<svg width="957" height="296" fill="none" xmlns="http://www.w3.org/2000/svg"><path d="M833.876 198.615V77.409s14.524 12.184 59.666 12.184c45.142 0 61.236-13.577 61.236-13.577v122.599s-6.5 14.889-61.236 15.461c-54.736.573-59.666-15.461-59.666-15.461Z" fill="#fff"/><path d="M955.185 73.584c0 2.247-1.424 4.564-4.421 6.824-2.982 2.248-7.366 4.316-12.892 6.07-11.039 3.505-26.407 5.69-43.59 5.69-17.183 0-32.552-2.185-43.591-5.69-5.525-1.754-9.91-3.822-12.891-6.07-2.998-2.26-4.422-4.577-4.422-6.824 0-2.248 1.424-4.565 4.422-6.825 2.981-2.248 7.366-4.316 12.891-6.07C861.73 57.184 877.099 55 894.282 55s32.551 2.184 43.59 5.689c5.526 1.754 9.91 3.822 12.892 6.07 2.997 2.26 4.421 4.577 4.421 6.825Z" fill="#fff" stroke="#ED1C24" stroke-width="2"/><path d="M833.56 74.633v120.935M955.156 72.859l-.139 122.836m-.022-.127c0 10.387-27.184 18.808-60.717 18.808-33.534 0-60.718-8.421-60.718-18.808m121.435-82.09c0 10.387-27.184 18.808-60.717 18.808-33.534 0-60.718-8.421-60.718-18.808m121.435 41.328c0 10.387-27.184 18.808-60.717 18.808-33.534 0-60.718-8.421-60.718-18.808" stroke="#ED1C24" stroke-width="2"/><path d="m91.037 153.416 69.124 18.293V72.293L91.037 54 23.126 75.138v99.004l67.911-20.726Z" fill="#fff" stroke="#2D2D2D" stroke-width="2"/><path d="M92.25 94.186 23.126 75.893v121.23l69.124 18.292 67.911-21.138V73.461L92.25 94.186Z" fill="#fff" stroke="#2D2D2D" stroke-width="2"/><path d="M91.238 93.99v119.398" stroke="#2D2D2D" stroke-width="2"/><rect x="472.943" y="87.819" width="125.813" height="125.813" rx="62.907" fill="#ED1C24"/><path d="M524.576 128.419s-28.839 17.555-1.66 34.986c5.228 3.395 24.191 12.836 23.652 21.572 0 0 11.494-16.976-5.312-27.658-17.261-10.931-21.577-22.607-16.68-28.9Z" fill="#fff"/><path d="M514.533 161.956s-10.29 15.568 9.959 18.756c1.992.249 16.639 1.781 20.457 6.583 0 0-.332-8.28-12.282-13.166-11.909-4.886-16.806-6.086-18.134-12.173Zm39.836-16.354c-12.366-12.918-15.81-20.909-10.498-31.26 0 0-36.889 14.16-.457 39.292 13.029 8.985 10.872 18.176 10.872 18.508 2.033-2.112 12.448-13.622.083-26.54Z" fill="#fff"/><path d="M536.522 243.949a.999.999 0 0 0-1.414 0l-6.364 6.364a1 1 0 0 0 1.415 1.414l5.656-5.657 5.657 5.657a1 1 0 0 0 1.414-1.414l-6.364-6.364Zm-414.937 51.869h384.23v-2h-384.23v2Zm415.23-31v-20.162h-2v20.162h2Zm-31 31c17.121 0 31-13.88 31-31h-2c0 16.016-12.983 29-29 29v2ZM93.832 268.065c0 15.327 12.425 27.753 27.753 27.753v-2c-14.223 0-25.753-11.53-25.753-25.753h-2Zm442.69-215.979a1 1 0 0 1-1.414 0l-6.364-6.364a1 1 0 0 1 1.415-1.415l5.656 5.657 5.657-5.657a1 1 0 1 1 1.414 1.415l-6.364 6.364ZM121.585.216h384.23v2h-384.23v-2Zm415.23 31V51.38h-2V31.217h2Zm-31-31c17.121 0 31 13.88 31 31h-2c0-16.015-12.983-29-29-29v-2ZM93.832 27.97c0-15.327 12.425-27.752 27.753-27.752v2c-14.223 0-25.753 11.53-25.753 25.752h-2ZM197.21 150.784a1 1 0 0 0 0 2v-2Zm257.767 1.707a.999.999 0 0 0 0-1.414l-6.364-6.364a.999.999 0 1 0-1.414 1.414l5.657 5.657-5.657 5.657a1 1 0 0 0 1.414 1.414l6.364-6.364Zm-257.767.293h257.06v-2H197.21v2Zm432.509-8.368a1 1 0 1 0 0 2v-2Zm173.193 1.707a1 1 0 0 0 0-1.414l-6.364-6.364a.999.999 0 1 0-1.414 1.414l5.656 5.657-5.656 5.657a.999.999 0 1 0 1.414 1.414l6.364-6.364Zm-173.193.293h172.486v-2H629.719v2Zm172.486 16.578a1 1 0 0 0 0-2v2Zm-173.193-1.707a.999.999 0 0 0 0 1.414l6.363 6.364a1 1 0 0 0 1.415-1.414l-5.657-5.657 5.657-5.657a1 1 0 0 0-1.415-1.414l-6.363 6.364Zm173.193-.293H629.719v2h172.486v-2Z" fill="#000"/><path d="m295.036 135.476 1.787-.156c.085.716.28 1.305.586 1.767.312.456.794.827 1.445 1.113.651.28 1.384.42 2.197.42.723 0 1.361-.107 1.914-.322.554-.215.964-.508 1.231-.879.273-.377.41-.788.41-1.23 0-.45-.13-.84-.391-1.172-.26-.339-.69-.622-1.289-.85-.384-.15-1.233-.381-2.548-.693-1.316-.319-2.237-.619-2.764-.899-.684-.358-1.195-.8-1.533-1.328a3.314 3.314 0 0 1-.498-1.787c0-.722.205-1.396.615-2.021.41-.632 1.009-1.11 1.797-1.436.788-.325 1.663-.488 2.627-.488 1.061 0 1.995.172 2.802.517.814.339 1.439.84 1.875 1.504.437.664.671 1.416.704 2.256l-1.817.137c-.097-.905-.43-1.589-.996-2.051-.56-.462-1.39-.693-2.49-.693-1.146 0-1.983.211-2.51.635-.521.416-.781.921-.781 1.513 0 .515.185.938.556 1.27.365.332 1.316.674 2.852 1.025 1.543.345 2.601.648 3.174.908.833.384 1.448.873 1.846 1.465.397.586.595 1.263.595 2.031a3.92 3.92 0 0 1-.654 2.159c-.436.67-1.064 1.194-1.885 1.572-.814.371-1.732.557-2.754.557-1.295 0-2.383-.189-3.261-.567-.873-.377-1.56-.944-2.061-1.699-.495-.762-.755-1.621-.781-2.578Zm25.034 3.066c.879.606 1.689 1.048 2.431 1.328l-.556 1.319c-1.029-.371-2.054-.957-3.076-1.758-1.062.592-2.233.889-3.516.889-1.296 0-2.471-.313-3.525-.938-1.055-.625-1.869-1.504-2.442-2.637-.566-1.132-.849-2.409-.849-3.828 0-1.413.286-2.698.859-3.857.573-1.159 1.387-2.041 2.441-2.647 1.062-.605 2.246-.908 3.555-.908 1.322 0 2.513.316 3.574.947a6.088 6.088 0 0 1 2.422 2.637c.56 1.126.84 2.399.84 3.818 0 1.179-.179 2.24-.537 3.184a6.667 6.667 0 0 1-1.621 2.451Zm-4.17-2.422c1.094.306 1.995.762 2.705 1.368 1.113-1.016 1.67-2.543 1.67-4.581 0-1.158-.199-2.171-.596-3.037-.39-.866-.967-1.536-1.728-2.011-.756-.482-1.605-.723-2.549-.723-1.413 0-2.585.485-3.516 1.455-.931.964-1.396 2.406-1.396 4.326 0 1.862.459 3.291 1.377 4.287.924.996 2.102 1.494 3.535 1.494a4.85 4.85 0 0 0 1.914-.38 6.14 6.14 0 0 0-1.875-.821l.459-1.377Zm9.008 3.955v-14.316h1.895v12.627h7.051v1.689h-8.946ZM195.876 33.881l1.895.478c-.398 1.556-1.114 2.745-2.149 3.565-1.029.814-2.288 1.22-3.779 1.22-1.543 0-2.8-.312-3.77-.937-.963-.631-1.699-1.543-2.207-2.734a9.8 9.8 0 0 1-.752-3.838c0-1.491.284-2.79.85-3.897.573-1.113 1.383-1.956 2.432-2.529 1.054-.58 2.213-.869 3.476-.869 1.432 0 2.637.365 3.613 1.094.977.729 1.657 1.754 2.041 3.076l-1.865.44c-.332-1.042-.814-1.8-1.445-2.276-.632-.475-1.426-.713-2.383-.713-1.1 0-2.021.264-2.764.791-.735.527-1.253 1.237-1.552 2.129-.3.885-.45 1.8-.45 2.744 0 1.218.176 2.282.528 3.194.358.904.911 1.581 1.66 2.03.749.45 1.559.675 2.432.675 1.061 0 1.959-.306 2.695-.918.736-.612 1.234-1.52 1.494-2.725Zm3.559-.166c0-1.92.534-3.343 1.602-4.268.892-.768 1.979-1.152 3.262-1.152 1.425 0 2.591.469 3.496 1.406.905.931 1.357 2.22 1.357 3.867 0 1.335-.202 2.387-.605 3.155a4.222 4.222 0 0 1-1.748 1.777 5.063 5.063 0 0 1-2.5.635c-1.452 0-2.627-.466-3.526-1.397-.892-.93-1.338-2.272-1.338-4.023Zm1.807 0c0 1.328.29 2.324.869 2.988.58.658 1.309.987 2.188.987.872 0 1.598-.332 2.177-.996.58-.665.87-1.677.87-3.038 0-1.282-.293-2.252-.879-2.91-.58-.664-1.302-.996-2.168-.996-.879 0-1.608.329-2.188.986-.579.658-.869 1.65-.869 2.979Zm10.181 5.185V28.53h1.572v1.454a3.646 3.646 0 0 1 1.299-1.22c.54-.313 1.155-.469 1.845-.469.769 0 1.397.16 1.885.479.495.319.843.765 1.045 1.337.82-1.21 1.888-1.816 3.203-1.816 1.029 0 1.82.286 2.373.86.554.566.83 1.441.83 2.626v7.12h-1.748v-6.534c0-.703-.058-1.207-.176-1.513a1.437 1.437 0 0 0-.615-.752 1.934 1.934 0 0 0-1.054-.284c-.73 0-1.335.245-1.817.733-.482.482-.723 1.256-.723 2.324v6.026h-1.757v-6.739c0-.781-.144-1.367-.43-1.758-.287-.39-.755-.585-1.406-.585-.495 0-.954.13-1.377.39-.417.26-.72.641-.908 1.143-.189.501-.284 1.224-.284 2.168v5.38h-1.757Zm16.86 3.975V28.53h1.601v1.348c.378-.527.804-.921 1.28-1.181.475-.268 1.051-.4 1.728-.4.885 0 1.667.227 2.344.683.677.455 1.188 1.1 1.533 1.933.345.827.518 1.735.518 2.725 0 1.061-.192 2.018-.577 2.871-.377.846-.931 1.497-1.66 1.953-.722.45-1.484.674-2.285.674a3.337 3.337 0 0 1-1.582-.371 3.618 3.618 0 0 1-1.143-.938v5.05h-1.757Zm1.591-9.101c0 1.334.271 2.32.811 2.959.54.638 1.195.957 1.963.957.781 0 1.448-.33 2.002-.987.56-.664.84-1.69.84-3.076 0-1.322-.274-2.311-.821-2.969-.54-.657-1.188-.986-1.943-.986-.749 0-1.413.352-1.992 1.055-.573.696-.86 1.712-.86 3.047Zm16.538 5.127v-1.524c-.807 1.172-1.904 1.758-3.291 1.758a4.223 4.223 0 0 1-1.718-.352c-.528-.234-.922-.527-1.182-.879-.254-.358-.433-.794-.537-1.308-.072-.345-.108-.892-.108-1.64v-6.427h1.758v5.752c0 .918.036 1.537.108 1.856.11.462.345.827.703 1.094.358.26.801.39 1.328.39a2.92 2.92 0 0 0 1.484-.4c.463-.274.788-.641.977-1.104.195-.468.293-1.145.293-2.03v-5.558h1.758v10.372h-1.573Zm8.374-1.573.254 1.553a6.516 6.516 0 0 1-1.328.156c-.638 0-1.133-.1-1.484-.303-.352-.201-.599-.465-.743-.79-.143-.333-.214-1.026-.214-2.08v-5.967h-1.289v-1.368h1.289v-2.568l1.748-1.055v3.623h1.767v1.368h-1.767v6.064c0 .501.029.824.088.967a.771.771 0 0 0 .302.342c.143.084.345.127.606.127.195 0 .452-.023.771-.069Zm9.028-1.767 1.817.224c-.287 1.062-.817 1.885-1.592 2.471-.775.586-1.764.879-2.969.879-1.517 0-2.721-.466-3.613-1.397-.886-.937-1.328-2.249-1.328-3.935 0-1.745.449-3.1 1.347-4.063.899-.963 2.064-1.445 3.497-1.445 1.386 0 2.519.472 3.398 1.416s1.318 2.272 1.318 3.985c0 .104-.003.26-.009.468h-7.735c.065 1.14.388 2.012.967 2.617.579.606 1.302.909 2.168.909.644 0 1.195-.17 1.65-.508.456-.339.817-.88 1.084-1.621Zm-5.771-2.842h5.791c-.078-.873-.3-1.527-.664-1.963-.56-.677-1.286-1.016-2.178-1.016-.807 0-1.488.27-2.041.81-.547.541-.85 1.264-.908 2.169Zm23.955 4.492c-.58.645-1.211 1.13-1.895 1.455a5.18 5.18 0 0 1-2.217.479c-1.465 0-2.627-.495-3.486-1.485-.697-.807-1.045-1.709-1.045-2.705 0-.885.283-1.683.85-2.392.572-.717 1.425-1.345 2.558-1.885-.644-.742-1.074-1.345-1.289-1.807-.215-.462-.322-.908-.322-1.338 0-.859.335-1.605 1.006-2.236.677-.638 1.526-.957 2.549-.957.976 0 1.774.3 2.392.898.625.6.938 1.319.938 2.159 0 1.36-.902 2.522-2.705 3.486l2.568 3.271a8.094 8.094 0 0 0 .683-1.992l1.827.39c-.313 1.25-.736 2.28-1.27 3.087a10.222 10.222 0 0 0 2.236 2.197l-1.181 1.397c-.71-.456-1.442-1.13-2.197-2.022Zm-3.575-7.46c.762-.45 1.254-.844 1.475-1.183.228-.338.342-.712.342-1.123 0-.488-.157-.885-.469-1.19a1.545 1.545 0 0 0-1.152-.47c-.476 0-.873.153-1.192.46a1.51 1.51 0 0 0-.469 1.122c0 .222.056.456.166.703.118.241.29.498.518.772l.781.908Zm2.471 6.073-3.223-3.994c-.95.567-1.591 1.094-1.923 1.582-.333.482-.499.96-.499 1.436 0 .58.232 1.181.694 1.806.462.625 1.116.938 1.963.938.527 0 1.071-.163 1.631-.488a4.01 4.01 0 0 0 1.357-1.28Zm12.392 3.077V24.584h2.852l3.388 10.137c.313.944.541 1.65.684 2.119.163-.52.417-1.286.762-2.295l3.427-9.96h2.549V38.9h-1.826V26.918l-4.16 11.983h-1.709l-4.141-12.188v12.188h-1.826Zm23.462-1.28c-.651.554-1.279.944-1.885 1.172a5.39 5.39 0 0 1-1.933.342c-1.14 0-2.015-.277-2.627-.83-.612-.56-.918-1.273-.918-2.139 0-.508.114-.97.341-1.387a2.93 2.93 0 0 1 .909-1.015c.377-.254.8-.446 1.269-.576.345-.092.866-.18 1.563-.264 1.419-.17 2.464-.371 3.134-.605.007-.241.01-.394.01-.46 0-.716-.166-1.22-.498-1.513-.449-.397-1.116-.596-2.002-.596-.827 0-1.439.147-1.836.44-.39.286-.68.797-.869 1.533l-1.719-.235c.157-.735.414-1.328.772-1.777.358-.456.875-.804 1.553-1.045.677-.247 1.461-.37 2.353-.37.886 0 1.605.103 2.158.312.554.208.961.472 1.221.79.26.313.443.71.547 1.192.058.3.088.84.088 1.621v2.344c0 1.634.036 2.67.107 3.105.078.43.228.843.449 1.24h-1.836a3.731 3.731 0 0 1-.351-1.279Zm-.147-3.925c-.638.26-1.595.481-2.871.663-.722.105-1.233.222-1.533.352a1.52 1.52 0 0 0-.937 1.406c0 .47.175.86.527 1.172.358.313.879.469 1.562.469.678 0 1.28-.147 1.807-.44a2.76 2.76 0 0 0 1.162-1.22c.189-.397.283-.983.283-1.758v-.645Zm11.48 1.406 1.728.224c-.189 1.192-.674 2.126-1.455 2.803-.775.67-1.728 1.006-2.861 1.006-1.419 0-2.562-.462-3.428-1.387-.859-.93-1.289-2.262-1.289-3.994 0-1.12.186-2.1.557-2.94.371-.84.934-1.468 1.689-1.884a5.027 5.027 0 0 1 2.481-.635c1.126 0 2.047.286 2.763.86.716.566 1.175 1.373 1.377 2.421l-1.709.264c-.163-.697-.452-1.22-.869-1.572-.41-.352-.908-.528-1.494-.528-.885 0-1.605.32-2.158.957-.554.632-.83 1.634-.83 3.008 0 1.394.267 2.406.8 3.037.534.632 1.231.948 2.09.948.69 0 1.267-.212 1.729-.635.462-.423.755-1.074.879-1.953Zm3.432 3.799V24.584h1.758v5.137c.82-.95 1.855-1.426 3.105-1.426.769 0 1.436.153 2.002.46.567.299.97.715 1.211 1.25.248.533.371 1.308.371 2.323V38.9h-1.757v-6.572c0-.879-.192-1.517-.577-1.914-.377-.403-.914-.605-1.611-.605-.521 0-1.012.136-1.475.41a2.27 2.27 0 0 0-.976 1.094c-.195.462-.293 1.1-.293 1.914V38.9h-1.758Zm11.343-12.295v-2.022h1.758v2.022h-1.758Zm0 12.294V28.53h1.758V38.9h-1.758Zm4.643 0V28.53h1.582v1.474c.762-1.14 1.862-1.709 3.301-1.709.625 0 1.198.114 1.719.342.527.221.921.514 1.181.879.261.364.443.797.547 1.299.065.325.098.895.098 1.709V38.9h-1.758v-6.31c0-.715-.068-1.25-.205-1.6a1.661 1.661 0 0 0-.732-.85c-.346-.215-.752-.322-1.221-.322-.749 0-1.397.237-1.944.712-.54.476-.81 1.377-.81 2.706V38.9h-1.758Zm18.433-3.34 1.816.225c-.287 1.062-.817 1.885-1.592 2.471-.775.586-1.764.879-2.969.879-1.517 0-2.721-.466-3.613-1.397-.885-.937-1.328-2.249-1.328-3.935 0-1.745.449-3.1 1.348-4.063.898-.963 2.063-1.445 3.496-1.445 1.386 0 2.519.472 3.398 1.416s1.319 2.272 1.319 3.985c0 .104-.004.26-.01.468h-7.735c.065 1.14.388 2.012.967 2.617.58.606 1.302.909 2.168.909.645 0 1.195-.17 1.651-.508.455-.339.817-.88 1.084-1.621Zm-5.772-2.841h5.791c-.078-.873-.299-1.527-.664-1.963-.56-.677-1.286-1.016-2.178-1.016-.807 0-1.487.27-2.041.81-.547.541-.849 1.264-.908 2.169Zm15.918 6.181V24.584h1.894v12.627h7.051v1.69h-8.945Zm18.286-3.34 1.816.225c-.287 1.062-.817 1.885-1.592 2.471-.775.586-1.764.879-2.969.879-1.517 0-2.721-.466-3.613-1.397-.885-.937-1.328-2.249-1.328-3.935 0-1.745.449-3.1 1.348-4.063.898-.963 2.063-1.445 3.496-1.445 1.386 0 2.519.472 3.398 1.416s1.319 2.272 1.319 3.985c0 .104-.004.26-.01.468h-7.735c.066 1.14.388 2.012.967 2.617.58.606 1.302.909 2.168.909.645 0 1.195-.17 1.651-.508.455-.339.817-.88 1.084-1.621Zm-5.772-2.841h5.791c-.078-.873-.299-1.527-.664-1.963-.56-.677-1.286-1.016-2.178-1.016-.807 0-1.487.27-2.041.81-.547.541-.849 1.264-.908 2.169Zm16.772 4.902c-.651.554-1.279.944-1.884 1.172a5.395 5.395 0 0 1-1.934.342c-1.139 0-2.015-.277-2.627-.83-.612-.56-.918-1.273-.918-2.139 0-.508.114-.97.342-1.387.234-.423.537-.761.908-1.015a4.342 4.342 0 0 1 1.27-.576c.345-.092.865-.18 1.562-.264 1.419-.17 2.464-.371 3.135-.605.006-.241.01-.394.01-.46 0-.716-.166-1.22-.498-1.513-.45-.397-1.117-.596-2.002-.596-.827 0-1.439.147-1.836.44-.391.286-.681.797-.869 1.533l-1.719-.235c.156-.735.413-1.328.771-1.777.358-.456.876-.804 1.553-1.045.677-.247 1.462-.37 2.354-.37.885 0 1.604.103 2.158.312.553.208.96.472 1.22.79.261.313.443.71.547 1.192.059.3.088.84.088 1.621v2.344c0 1.634.036 2.67.108 3.105.078.43.227.843.449 1.24h-1.836a3.731 3.731 0 0 1-.352-1.279Zm-.146-3.925c-.638.26-1.595.481-2.871.663-.723.105-1.234.222-1.533.352a1.518 1.518 0 0 0-.938 1.406c0 .47.176.86.527 1.172.358.313.879.469 1.563.469.677 0 1.279-.147 1.807-.44a2.766 2.766 0 0 0 1.162-1.22c.188-.397.283-.983.283-1.758v-.645Zm4.692 5.205V28.529h1.582v1.573c.404-.736.775-1.221 1.113-1.455a1.976 1.976 0 0 1 1.133-.352c.593 0 1.195.189 1.807.566l-.606 1.631c-.429-.254-.859-.38-1.289-.38a1.66 1.66 0 0 0-1.035.351c-.306.228-.524.547-.654.957a6.825 6.825 0 0 0-.293 2.05v5.43h-1.758Zm6.88 0V28.529h1.582v1.475c.761-1.14 1.862-1.709 3.301-1.709.625 0 1.197.114 1.718.342.528.221.921.514 1.182.879.26.364.443.797.547 1.299.065.325.097.895.097 1.709V38.9h-1.757v-6.31c0-.715-.069-1.25-.205-1.6a1.659 1.659 0 0 0-.733-.85c-.345-.215-.752-.322-1.221-.322-.748 0-1.396.237-1.943.712-.54.476-.81 1.377-.81 2.706V38.9h-1.758Zm11.342-12.295v-2.022h1.758v2.022h-1.758Zm0 12.294V28.53h1.758V38.9h-1.758Zm4.644 0V28.53h1.582v1.474c.761-1.14 1.862-1.709 3.3-1.709.625 0 1.198.114 1.719.342.528.221.921.514 1.182.879.26.364.443.797.547 1.299.065.325.097.895.097 1.709V38.9h-1.757v-6.31c0-.715-.069-1.25-.206-1.6a1.652 1.652 0 0 0-.732-.85c-.345-.215-.752-.322-1.221-.322-.748 0-1.396.237-1.943.712-.54.476-.811 1.377-.811 2.706V38.9h-1.757Zm11.01.86 1.709.254c.072.527.27.911.596 1.152.436.326 1.032.488 1.787.488.814 0 1.442-.162 1.885-.488.442-.325.742-.781.898-1.367.091-.358.134-1.11.127-2.256-.768.905-1.725 1.358-2.871 1.358-1.426 0-2.529-.515-3.31-1.543-.782-1.03-1.172-2.263-1.172-3.702 0-.99.179-1.9.537-2.734.358-.84.875-1.488 1.552-1.943.684-.456 1.485-.684 2.403-.684 1.224 0 2.233.495 3.027 1.484v-1.25h1.621v8.965c0 1.615-.166 2.758-.498 3.428-.325.677-.846 1.211-1.562 1.602-.71.39-1.586.585-2.627.585-1.237 0-2.237-.28-2.998-.84-.762-.553-1.13-1.39-1.104-2.51Zm1.455-6.23c0 1.36.27 2.353.811 2.978.54.625 1.217.938 2.031.938.807 0 1.484-.31 2.031-.928.547-.625.821-1.602.821-2.93 0-1.27-.284-2.227-.85-2.871-.56-.645-1.237-.967-2.031-.967-.781 0-1.446.32-1.992.957-.547.632-.821 1.572-.821 2.822Z" fill="#9C9C9C"/><path d="m32.284 251 6.598-17.18h2.449L48.362 251h-2.59l-2.004-5.203h-7.183L34.698 251h-2.414Zm4.957-7.055h5.824l-1.793-4.757c-.547-1.446-.953-2.633-1.218-3.563a21.871 21.871 0 0 1-.926 3.281l-1.887 5.039ZM50.11 255.77v-17.215h1.922v1.617c.453-.633.965-1.106 1.535-1.418.57-.32 1.262-.481 2.074-.481 1.063 0 2 .274 2.813.821.812.547 1.426 1.32 1.84 2.32.414.992.62 2.082.62 3.27 0 1.273-.23 2.421-.69 3.445-.454 1.016-1.118 1.797-1.993 2.344-.867.539-1.781.808-2.742.808-.703 0-1.336-.148-1.898-.445a4.334 4.334 0 0 1-1.372-1.125v6.059H50.11Zm1.91-10.922c0 1.601.324 2.785.973 3.55.648.766 1.434 1.149 2.355 1.149.938 0 1.739-.395 2.403-1.184.672-.797 1.008-2.027 1.008-3.691 0-1.586-.329-2.774-.985-3.563-.648-.789-1.426-1.183-2.332-1.183-.898 0-1.695.422-2.39 1.265-.688.836-1.032 2.055-1.032 3.657Zm11.65 10.922v-17.215h1.921v1.617c.453-.633.965-1.106 1.535-1.418.57-.32 1.262-.481 2.075-.481 1.062 0 2 .274 2.812.821.813.547 1.426 1.32 1.84 2.32.414.992.621 2.082.621 3.27 0 1.273-.23 2.421-.691 3.445-.453 1.016-1.117 1.797-1.992 2.344-.868.539-1.782.808-2.743.808-.703 0-1.336-.148-1.898-.445a4.333 4.333 0 0 1-1.371-1.125v6.059h-2.11Zm1.91-10.922c0 1.601.324 2.785.972 3.55.649.766 1.434 1.149 2.356 1.149.937 0 1.738-.395 2.402-1.184.672-.797 1.008-2.027 1.008-3.691 0-1.586-.328-2.774-.984-3.563-.649-.789-1.426-1.183-2.332-1.183-.899 0-1.696.422-2.391 1.265-.688.836-1.031 2.055-1.031 3.657ZM77.18 251v-17.18h2.11V251h-2.11Zm5.602-14.754v-2.426h2.11v2.426h-2.11Zm0 14.754v-12.445h2.11V251h-2.11Zm13.653-4.559 2.075.27c-.227 1.43-.809 2.551-1.746 3.363-.93.805-2.075 1.207-3.434 1.207-1.703 0-3.074-.554-4.113-1.664-1.032-1.117-1.547-2.715-1.547-4.793 0-1.344.222-2.519.668-3.527.445-1.008 1.12-1.762 2.027-2.262a6.027 6.027 0 0 1 2.977-.762c1.351 0 2.457.344 3.316 1.032.86.679 1.41 1.648 1.652 2.906l-2.05.316c-.196-.836-.543-1.465-1.043-1.886-.493-.422-1.09-.633-1.793-.633-1.063 0-1.926.383-2.59 1.148-.664.758-.996 1.961-.996 3.61 0 1.672.32 2.886.96 3.644.641.758 1.477 1.137 2.508 1.137.829 0 1.52-.254 2.075-.762.554-.508.906-1.289 1.054-2.344Zm12.2 3.024c-.781.664-1.535 1.133-2.261 1.406a6.46 6.46 0 0 1-2.321.41c-1.367 0-2.418-.332-3.152-.996-.734-.672-1.102-1.527-1.102-2.566 0-.61.137-1.164.411-1.664a3.505 3.505 0 0 1 1.089-1.219 5.197 5.197 0 0 1 1.524-.691c.414-.11 1.039-.215 1.875-.317 1.703-.203 2.957-.445 3.762-.726.007-.29.011-.473.011-.551 0-.86-.199-1.465-.597-1.817-.539-.476-1.34-.714-2.403-.714-.992 0-1.726.175-2.203.527-.469.344-.816.957-1.043 1.84l-2.062-.282c.187-.882.496-1.593.926-2.132.429-.547 1.05-.965 1.863-1.254.812-.297 1.754-.446 2.824-.446 1.063 0 1.926.125 2.59.375.664.25 1.152.567 1.465.95.312.375.531.851.656 1.429.07.36.105 1.008.105 1.946v2.812c0 1.961.043 3.203.129 3.727.094.515.274 1.011.539 1.488h-2.203c-.218-.438-.359-.949-.422-1.535Zm-.175-4.711c-.766.312-1.914.578-3.446.797-.867.125-1.48.265-1.84.422a1.823 1.823 0 0 0-1.125 1.687c0 .563.211 1.031.633 1.406.43.375 1.055.563 1.875.563.813 0 1.535-.176 2.168-.527.633-.36 1.098-.848 1.395-1.465.226-.477.34-1.18.34-2.11v-.773Zm10.219 4.359.305 1.864a7.823 7.823 0 0 1-1.594.187c-.766 0-1.359-.121-1.781-.363-.422-.242-.719-.559-.891-.949-.172-.399-.258-1.231-.258-2.497v-7.16h-1.546v-1.64h1.546v-3.082l2.098-1.266v4.348h2.121v1.64h-2.121v7.278c0 .601.035.988.106 1.16a.923.923 0 0 0 .363.41c.172.102.414.152.726.152.235 0 .543-.027.926-.082Zm2.286-12.867v-2.426h2.109v2.426h-2.109Zm0 14.754v-12.445h2.109V251h-2.109Zm4.747-6.223c0-2.304.641-4.011 1.922-5.121 1.07-.922 2.375-1.383 3.914-1.383 1.711 0 3.109.563 4.195 1.688 1.086 1.117 1.629 2.664 1.629 4.641 0 1.601-.242 2.863-.726 3.785a5.07 5.07 0 0 1-2.098 2.133 6.082 6.082 0 0 1-3 .761c-1.742 0-3.152-.558-4.231-1.676-1.07-1.117-1.605-2.726-1.605-4.828Zm2.168 0c0 1.594.348 2.789 1.043 3.586.695.789 1.57 1.184 2.625 1.184 1.047 0 1.918-.399 2.613-1.195.696-.797 1.043-2.012 1.043-3.645 0-1.539-.351-2.703-1.055-3.492-.695-.797-1.562-1.195-2.601-1.195-1.055 0-1.93.394-2.625 1.183-.695.789-1.043 1.981-1.043 3.574ZM140.058 251v-12.445h1.898v1.769c.914-1.367 2.234-2.051 3.961-2.051.75 0 1.437.137 2.062.411.633.265 1.106.617 1.418 1.054.313.438.532.957.657 1.559.078.391.117 1.074.117 2.051V251h-2.11v-7.57c0-.86-.082-1.5-.246-1.922a1.99 1.99 0 0 0-.879-1.02c-.414-.258-.902-.386-1.464-.386-.899 0-1.676.285-2.332.855-.649.57-.973 1.652-.973 3.246V251h-2.109Z" fill="#2D2D2D"/><path d="m221.911 279.512 5.498-14.316h2.041l5.86 14.316h-2.159l-1.669-4.336h-5.987l-1.572 4.336h-2.012Zm4.131-5.878h4.854l-1.495-3.965c-.455-1.205-.794-2.194-1.015-2.969-.182.918-.44 1.829-.772 2.734l-1.572 4.2Zm21.196.859 1.895.478c-.397 1.556-1.114 2.745-2.149 3.565-1.028.814-2.288 1.221-3.779 1.221-1.543 0-2.8-.313-3.77-.938-.963-.631-1.699-1.543-2.207-2.734a9.803 9.803 0 0 1-.752-3.838c0-1.491.284-2.79.85-3.897.573-1.113 1.384-1.956 2.432-2.529 1.054-.579 2.213-.869 3.476-.869 1.433 0 2.637.364 3.614 1.094.976.729 1.656 1.754 2.041 3.076l-1.866.439c-.332-1.041-.813-1.8-1.445-2.275-.632-.475-1.426-.713-2.383-.713-1.1 0-2.021.264-2.763.791-.736.527-1.254 1.237-1.553 2.129a8.49 8.49 0 0 0-.449 2.744c0 1.217.175 2.282.527 3.193.358.905.911 1.582 1.66 2.032a4.644 4.644 0 0 0 2.432.673c1.061 0 1.959-.306 2.695-.918.736-.611 1.234-1.52 1.494-2.724Zm4.761 5.019v-14.316h1.894v14.316h-1.894Zm5.444 0v-14.316h4.931c1.114 0 1.963.068 2.549.205.821.189 1.52.531 2.1 1.025.755.639 1.318 1.456 1.689 2.452.378.989.567 2.122.567 3.398 0 1.087-.127 2.051-.381 2.891-.254.84-.58 1.536-.977 2.09-.397.546-.833.979-1.308 1.298-.469.313-1.039.551-1.709.713-.664.163-1.429.244-2.295.244h-5.166Zm1.894-1.689h3.057c.944 0 1.683-.088 2.217-.264.54-.175.97-.423 1.289-.742.449-.449.797-1.051 1.045-1.807.254-.761.381-1.682.381-2.763 0-1.498-.248-2.647-.743-3.447-.488-.808-1.084-1.348-1.787-1.622-.507-.195-1.325-.293-2.451-.293h-3.008v10.938Zm21.797 1.689v-12.627h-4.717v-1.689h11.348v1.689h-4.737v12.627h-1.894Zm7.798 0v-10.371h1.582v1.573c.403-.736.774-1.221 1.113-1.455a1.969 1.969 0 0 1 1.133-.352c.592 0 1.194.189 1.806.566l-.605 1.631c-.43-.254-.86-.381-1.289-.381-.384 0-.729.118-1.035.352-.306.228-.525.547-.655.957a6.86 6.86 0 0 0-.293 2.051v5.429h-1.757Zm13.647-1.279c-.651.554-1.28.944-1.885 1.172a5.389 5.389 0 0 1-1.934.342c-1.139 0-2.015-.277-2.627-.83-.612-.56-.918-1.273-.918-2.139 0-.508.114-.97.342-1.387.235-.423.537-.761.908-1.015a4.334 4.334 0 0 1 1.27-.576c.345-.092.866-.18 1.563-.264 1.419-.169 2.464-.371 3.134-.606.007-.24.01-.393.01-.459 0-.716-.166-1.22-.498-1.513-.449-.397-1.117-.596-2.002-.596-.827 0-1.439.147-1.836.439-.391.287-.68.798-.869 1.534l-1.719-.235c.156-.735.414-1.328.772-1.777.358-.456.875-.804 1.552-1.045.678-.247 1.462-.371 2.354-.371.885 0 1.605.104 2.158.312.554.209.96.472 1.221.791.26.313.443.71.547 1.192.058.299.088.84.088 1.621v2.344c0 1.634.035 2.669.107 3.105.078.43.228.843.449 1.24h-1.836a3.728 3.728 0 0 1-.351-1.279Zm-.147-3.926c-.638.261-1.595.482-2.871.664-.722.105-1.234.222-1.533.352a1.513 1.513 0 0 0-.938 1.406c0 .469.176.86.528 1.172.358.313.879.469 1.562.469.677 0 1.28-.147 1.807-.44a2.76 2.76 0 0 0 1.162-1.22c.189-.397.283-.983.283-1.758v-.645Zm4.712 5.205v-10.371h1.582v1.475c.762-1.139 1.862-1.709 3.301-1.709.625 0 1.198.114 1.719.342.527.221.921.514 1.181.879.261.364.443.797.547 1.298.065.326.098.896.098 1.709v6.377h-1.758v-6.308c0-.716-.068-1.25-.205-1.602a1.657 1.657 0 0 0-.733-.849c-.345-.215-.752-.323-1.22-.323-.749 0-1.397.238-1.944.713-.54.476-.81 1.377-.81 2.705v5.664h-1.758Zm10.63-3.095 1.738-.274c.098.697.368 1.231.811 1.602.449.371 1.074.556 1.875.556.807 0 1.406-.162 1.796-.488.391-.332.586-.719.586-1.162 0-.397-.172-.71-.517-.937-.241-.157-.84-.355-1.797-.596-1.289-.326-2.184-.606-2.686-.84-.494-.241-.872-.57-1.132-.986a2.664 2.664 0 0 1-.381-1.397c0-.462.104-.888.312-1.279.215-.397.505-.726.869-.986.274-.202.645-.371 1.114-.508a5.26 5.26 0 0 1 1.523-.215c.814 0 1.527.117 2.139.352.618.234 1.074.553 1.367.957.293.397.495.931.605 1.601l-1.718.234c-.079-.533-.306-.95-.684-1.25-.371-.299-.898-.449-1.582-.449-.807 0-1.383.134-1.729.401-.345.267-.517.579-.517.937 0 .228.071.433.215.615.143.189.368.345.674.469.175.065.693.215 1.552.449 1.244.332 2.11.606 2.598.821.495.208.882.514 1.162.918.28.403.42.905.42 1.504 0 .585-.173 1.139-.518 1.66-.338.514-.83.914-1.474 1.201-.645.28-1.374.42-2.188.42-1.347 0-2.376-.28-3.086-.84-.703-.56-1.152-1.39-1.347-2.49Zm17.67 1.816c-.651.554-1.279.944-1.884 1.172a5.392 5.392 0 0 1-1.934.342c-1.139 0-2.015-.277-2.627-.83-.612-.56-.918-1.273-.918-2.139 0-.508.114-.97.342-1.387.234-.423.537-.761.908-1.015a4.334 4.334 0 0 1 1.27-.576c.345-.092.866-.18 1.562-.264 1.419-.169 2.464-.371 3.135-.606.006-.24.01-.393.01-.459 0-.716-.166-1.22-.498-1.513-.45-.397-1.117-.596-2.002-.596-.827 0-1.439.147-1.836.439-.391.287-.681.798-.869 1.534l-1.719-.235c.156-.735.413-1.328.771-1.777.358-.456.876-.804 1.553-1.045.677-.247 1.462-.371 2.354-.371.885 0 1.604.104 2.158.312.553.209.96.472 1.22.791.261.313.443.71.547 1.192.059.299.088.84.088 1.621v2.344c0 1.634.036 2.669.108 3.105.078.43.228.843.449 1.24h-1.836a3.728 3.728 0 0 1-.352-1.279Zm-.146-3.926c-.638.261-1.595.482-2.871.664-.723.105-1.234.222-1.533.352a1.516 1.516 0 0 0-.938 1.406c0 .469.176.86.527 1.172.359.313.879.469 1.563.469.677 0 1.279-.147 1.807-.44a2.766 2.766 0 0 0 1.162-1.22c.189-.397.283-.983.283-1.758v-.645Zm11.479 1.407 1.729.224c-.189 1.192-.674 2.126-1.455 2.803-.775.671-1.729 1.006-2.862 1.006-1.419 0-2.562-.462-3.427-1.387-.86-.931-1.289-2.262-1.289-3.994 0-1.12.185-2.1.556-2.94.371-.839.934-1.468 1.69-1.884a5.022 5.022 0 0 1 2.48-.635c1.126 0 2.048.286 2.764.859.716.567 1.175 1.374 1.377 2.422l-1.709.264c-.163-.697-.453-1.221-.869-1.572-.411-.352-.909-.528-1.495-.528-.885 0-1.604.319-2.158.957-.553.632-.83 1.634-.83 3.008 0 1.393.267 2.406.801 3.037.534.632 1.23.947 2.09.947.69 0 1.266-.211 1.728-.634.463-.423.756-1.075.879-1.953Zm7.271 2.226.253 1.553a6.52 6.52 0 0 1-1.328.156c-.638 0-1.133-.101-1.484-.303-.352-.201-.599-.465-.742-.791-.143-.332-.215-1.025-.215-2.08v-5.966h-1.289v-1.368h1.289v-2.568l1.748-1.055v3.623h1.768v1.368h-1.768v6.064c0 .501.029.824.088.967a.77.77 0 0 0 .303.342c.143.084.345.127.605.127.195 0 .453-.023.772-.069Zm1.938-10.723v-2.021h1.758v2.021h-1.758Zm0 12.295v-10.371h1.758v10.371h-1.758Zm3.989-5.185c0-1.921.534-3.343 1.601-4.268.892-.768 1.98-1.152 3.262-1.152 1.426 0 2.591.469 3.496 1.406.905.931 1.358 2.22 1.358 3.867 0 1.335-.202 2.386-.606 3.155a4.224 4.224 0 0 1-1.748 1.777 5.065 5.065 0 0 1-2.5.635c-1.452 0-2.627-.466-3.525-1.397-.892-.931-1.338-2.272-1.338-4.023Zm1.807 0c0 1.328.289 2.324.869 2.988.579.658 1.308.986 2.187.986.873 0 1.598-.332 2.178-.996.579-.664.869-1.676.869-3.037 0-1.282-.293-2.252-.879-2.91-.579-.664-1.302-.996-2.168-.996-.879 0-1.608.329-2.187.986-.58.658-.869 1.651-.869 2.979Zm10.18 5.185v-10.371h1.582v1.475c.762-1.139 1.862-1.709 3.301-1.709.625 0 1.198.114 1.719.342.527.221.921.514 1.181.879.261.364.443.797.547 1.298.065.326.098.896.098 1.709v6.377h-1.758v-6.308c0-.716-.068-1.25-.205-1.602a1.657 1.657 0 0 0-.733-.849c-.345-.215-.752-.323-1.22-.323-.749 0-1.397.238-1.944.713-.54.476-.81 1.377-.81 2.705v5.664h-1.758Zm10.63-3.095 1.738-.274c.098.697.368 1.231.81 1.602.45.371 1.075.556 1.875.556.808 0 1.407-.162 1.797-.488.391-.332.586-.719.586-1.162 0-.397-.172-.71-.517-.937-.241-.157-.84-.355-1.797-.596-1.289-.326-2.184-.606-2.686-.84-.494-.241-.872-.57-1.133-.986a2.672 2.672 0 0 1-.38-1.397c0-.462.104-.888.312-1.279.215-.397.505-.726.869-.986.274-.202.645-.371 1.114-.508a5.26 5.26 0 0 1 1.523-.215c.814 0 1.527.117 2.139.352.618.234 1.074.553 1.367.957.293.397.495.931.605 1.601l-1.718.234c-.079-.533-.306-.95-.684-1.25-.371-.299-.898-.449-1.582-.449-.807 0-1.384.134-1.729.401-.345.267-.517.579-.517.937 0 .228.071.433.215.615.143.189.368.345.674.469.175.065.693.215 1.552.449 1.244.332 2.11.606 2.598.821.495.208.882.514 1.162.918.28.403.42.905.42 1.504 0 .585-.173 1.139-.518 1.66-.338.514-.83.914-1.474 1.201-.645.28-1.374.42-2.188.42-1.347 0-2.376-.28-3.086-.84-.703-.56-1.152-1.39-1.347-2.49Z" fill="#9C9C9C"/></svg>