<svg width="604" height="747" fill="none" xmlns="http://www.w3.org/2000/svg"><path d="M243.512 46.544 524.935 208.64v396.598L243.512 443.141V46.544Z" fill="#0070CC" stroke="#F6F6F6"/><path transform="matrix(.86627 -.49957 0 1 524.85 208.788)" fill="#0070CC" stroke="#F6F6F6" d="M0 0h90.213v396.597H0z"/><path d="m321.661 1.477 281.174 162.531-78.104 45.148L243.558 46.625l78.103-45.148ZM122.256 116.85l281.423 162.098v396.597L122.256 513.448V116.85Z" fill="#0070CC" stroke="#F6F6F6"/><path transform="matrix(.86627 -.49957 0 1 403.594 279.096)" fill="#0070CC" stroke="#F6F6F6" d="M0 0h90.213v396.597H0z"/><path d="m200.406 71.783 281.173 162.532-78.104 45.147-281.173-162.531 78.104-45.148ZM1 187.158l281.423 162.098v396.597L1 583.756V187.158Z" fill="#0070CC" stroke="#F6F6F6"/><path transform="matrix(.86627 -.49957 0 1 282.339 349.402)" fill="#0070CC" stroke="#F6F6F6" d="M0 0h90.213v396.597H0z"/><path d="m79.15 142.091 281.172 162.532-78.103 45.147L1.046 187.239l78.103-45.148Z" fill="#0070CC" stroke="#F6F6F6"/><path fill-rule="evenodd" clip-rule="evenodd" d="M35.627 262.065c0-.552.387-.776.866-.5l129.521 74.779c.479.277.866.948.866 1.5v26.844c0 .552-.387.776-.866.5L36.493 290.409c-.479-.277-.866-.948-.866-1.5v-26.844Zm0 50.48c0-.552.388-.777.866-.501l70.186 40.427c.479.275.867.947.867 1.499v26.843c0 .553-.388.777-.867.501l-70.186-40.427c-.478-.275-.866-.946-.866-1.499v-26.843Zm.866 49.976c-.478-.276-.866-.052-.866.501v26.843c0 .552.388 1.224.866 1.499l173.375 99.863c.478.275.866.051.866-.501v-26.844c0-.552-.388-1.223-.866-1.499L36.493 362.521Z" fill="#0070CC"/><path d="m36.493 261.565-.25.433.25-.433Zm-.866.5h.5-.5Zm130.387 74.279.25-.433-.25.433Zm0 28.844-.25.433.25-.433ZM36.493 290.409l.25-.433-.25.433Zm-.866-1.5h-.5.5Zm.866 23.135.25-.433-.25.433Zm-.866.501h-.5.5Zm71.052 39.926.25-.434-.25.434Zm0 28.843.25-.433-.25.433Zm-70.186-40.427.25-.433-.25.433Zm-.866-1.499h-.5.5Zm0 23.634h.5-.5Zm.866-.501-.25.433.25-.433Zm-.866 27.344h-.5.5Zm.866 1.499.25-.433-.25.433Zm173.375 99.863-.25.433.25-.433Zm0-28.844-.25.433.25-.433ZM36.743 261.132c-.33-.191-.747-.272-1.113-.061-.366.212-.503.613-.503.994h1a.35.35 0 0 1 .021-.139c.006-.013.003-.001-.018.011-.02.013-.032.009-.019.01a.35.35 0 0 1 .132.051l.5-.866Zm129.521 74.779L36.743 261.132l-.5.866 129.521 74.779.5-.866Zm1.116 1.933c0-.384-.131-.776-.32-1.103-.189-.327-.463-.637-.796-.83l-.5.866c.146.084.305.248.43.464.124.215.186.436.186.603h1Zm0 26.844v-26.844h-1v26.844h1Zm-1.616.933c.331.191.747.272 1.113.061.366-.212.503-.613.503-.994h-1a.35.35 0 0 1-.021.139c-.006.013-.003.001.018-.011.021-.013.032-.009.019-.01a.353.353 0 0 1-.132-.051l-.5.866ZM36.243 290.842l129.521 74.779.5-.866-129.521-74.779-.5.866Zm-1.116-1.933c0 .384.131.776.32 1.103.19.327.463.637.796.83l.5-.866a1.277 1.277 0 0 1-.43-.464 1.28 1.28 0 0 1-.186-.603h-1Zm0-26.844v26.844h1v-26.844h-1Zm1.616 49.546c-.33-.191-.747-.271-1.113-.06-.365.212-.503.612-.503.994h1a.34.34 0 0 1 .021-.139c.006-.013.003-.001-.017.011-.021.012-.032.008-.019.009a.373.373 0 0 1 .132.051l.499-.866Zm70.186 40.426-70.186-40.426-.5.866 70.187 40.427.499-.867Zm1.117 1.933c0-.385-.132-.776-.321-1.104-.189-.327-.463-.637-.796-.829l-.499.867c.145.084.305.247.429.463.125.215.187.435.187.603h1Zm0 26.843V353.97h-1v26.843h1Zm-1.616.934c.33.191.747.271 1.112.06.366-.211.504-.612.504-.994h-1a.35.35 0 0 1-.022.14c-.005.012-.003 0 .018-.012.021-.012.032-.008.018-.009a.35.35 0 0 1-.131-.051l-.499.866Zm-70.186-40.426 70.186 40.426.499-.866-70.186-40.427-.5.867Zm-1.117-1.933c0 .385.131.777.32 1.104.19.327.463.637.797.829l.499-.867a1.265 1.265 0 0 1-.43-.463 1.273 1.273 0 0 1-.186-.603h-1Zm0-26.843v26.843h1v-26.843h-1Zm1 50.477c0-.082.014-.125.021-.14.006-.012.003 0-.017.012-.021.012-.032.008-.019.009.017.002.061.01.132.051l.499-.867c-.33-.19-.747-.271-1.113-.059-.365.211-.503.612-.503.994h1Zm0 26.843v-26.843h-1v26.843h1Zm.616 1.066a1.274 1.274 0 0 1-.43-.463 1.273 1.273 0 0 1-.186-.603h-1c0 .385.131.776.32 1.104.19.327.463.636.797.828l.499-.866Zm173.374 99.862L36.743 390.931l-.5.866 173.375 99.863.499-.867Zm.117-.067a.35.35 0 0 1-.021.139c-.006.013-.003.001.017-.011.021-.012.033-.009.019-.01a.334.334 0 0 1-.132-.051l-.499.867c.331.19.747.271 1.113.06.366-.212.503-.613.503-.994h-1Zm0-26.844v26.844h1v-26.844h-1Zm-.616-1.066c.146.084.305.248.43.463.124.216.186.436.186.603h1c0-.384-.131-.776-.321-1.103-.189-.327-.462-.637-.796-.829l-.499.866ZM36.244 362.954l173.374 99.862.499-.866-173.374-99.863-.5.867Z" fill="#F6F6F6"/></svg>