<svg width="26" height="26" fill="none" xmlns="http://www.w3.org/2000/svg"><path d="M19.208 9.767a2.973 2.973 0 0 1-2.97-2.97 2.972 2.972 0 0 1 2.97-2.968 2.973 2.973 0 0 1 2.97 2.969 2.973 2.973 0 0 1-2.97 2.97Zm0-4.949a1.982 1.982 0 0 0-1.98 1.98 1.982 1.982 0 0 0 1.98 1.98 1.982 1.982 0 0 0 1.98-1.98 1.982 1.982 0 0 0-1.98-1.98Z" fill="#fff" stroke="#fff" stroke-width=".5"/><path d="M5.332 17.553a7.187 7.187 0 0 0-2.266 1.525C1.487 20.66.74 22.858 1.081 24.922c2.064.338 4.261-.41 5.841-1.988a7.186 7.186 0 0 0 1.527-2.266m-5.981-7.771a15.02 15.02 0 0 0-.985 1.019 14.934 14.934 0 0 1 4.88 2.339 2.488 2.488 0 0 1 1.693-1.244 14.331 14.331 0 0 1 1.646-5.907l.003-.005a15.38 15.38 0 0 0-3.82 1.371 15.373 15.373 0 0 0-3.417 2.427Zm0 0v0Zm8.524 5.045a2.492 2.492 0 0 1-1.253 1.7 14.928 14.928 0 0 1 2.347 4.875c.355-.31.696-.639 1.021-.984a15.373 15.373 0 0 0 2.426-3.416 15.373 15.373 0 0 0 1.372-3.817 14.34 14.34 0 0 1-5.913 1.642v0Z" stroke="#fff" stroke-width="1.7" stroke-miterlimit="10" stroke-linecap="round" stroke-linejoin="round"/><path d="M10.92 16.695c.136.442.126.845.07 1.262 3.537-.181 6.995-1.752 9.62-4.37 3.355-3.361 4.942-8.032 4.218-12.417-4.386-.718-9.054.87-12.411 4.225C9.8 8.02 8.233 11.477 8.055 15.012a2.49 2.49 0 0 1 1.385.119" stroke="#fff" stroke-width="1.7" stroke-miterlimit="10" stroke-linecap="round" stroke-linejoin="round"/></svg>