<svg width="1274" height="595" fill="none" xmlns="http://www.w3.org/2000/svg"><rect x=".565" y=".565" width="1272.87" height="593.87" rx="9.435" fill="#F6F6F6" stroke="#E6E6E6" stroke-width="1.131"/><path fill-rule="evenodd" clip-rule="evenodd" d="m1138.61 113.227 10 5.773-10 5.774v-4.9c-.15.08-.31.126-.49.126h-4.99c-.56 0-1-.448-1-1s.44-1 1-1h4.99c.18 0 .34.046.49.126v-4.899ZM242.25 120h-2.497v-2h2.497a1 1 0 0 1 0 2Zm6.99-1a1 1 0 0 1 1-1h4.993a1 1 0 1 1 0 2h-4.993a1 1 0 0 1-1-1Zm12.983 0a1 1 0 0 1 1-1h4.994a1 1 0 0 1 0 2h-4.994a1 1 0 0 1-1-1Zm12.984 0a1 1 0 0 1 1-1h4.993a1 1 0 1 1 0 2h-4.993a1 1 0 0 1-1-1Zm12.983 0a1 1 0 0 1 1-1h4.994a1 1 0 0 1 0 2h-4.994a1 1 0 0 1-1-1Zm12.984 0a1 1 0 0 1 1-1h4.994a1 1 0 0 1 0 2h-4.994a1 1 0 0 1-1-1Zm12.984 0a1 1 0 0 1 1-1h4.993a1 1 0 1 1 0 2h-4.993a1 1 0 0 1-1-1Zm12.983 0a1 1 0 0 1 1-1h4.994a1 1 0 0 1 0 2h-4.994a1 1 0 0 1-1-1Zm12.984 0a1 1 0 0 1 1-1h4.994a1 1 0 0 1 0 2h-4.994a1 1 0 0 1-1-1Zm12.983 0a1 1 0 0 1 1-1h4.994a1 1 0 0 1 0 2h-4.994a1 1 0 0 1-1-1Zm12.984 0a1 1 0 0 1 1-1h4.994a1 1 0 0 1 0 2h-4.994a1 1 0 0 1-1-1Zm12.984 0a1 1 0 0 1 1-1h4.993a1 1 0 1 1 0 2h-4.993a1 1 0 0 1-1-1Zm12.983 0a1 1 0 0 1 1-1h4.994a1 1 0 0 1 0 2h-4.994a1 1 0 0 1-1-1Zm12.984 0a1 1 0 0 1 1-1h4.994a1 1 0 0 1 0 2h-4.994a1 1 0 0 1-1-1Zm12.984 0a1 1 0 0 1 1-1h4.993a1 1 0 1 1 0 2h-4.993a1 1 0 0 1-1-1Zm12.983 0a1 1 0 0 1 1-1h4.994a1 1 0 0 1 0 2h-4.994a1 1 0 0 1-1-1Zm12.984 0a1 1 0 0 1 1-1h4.993a1 1 0 1 1 0 2h-4.993a1 1 0 0 1-1-1Zm12.983 0a1 1 0 0 1 1-1h4.994a1 1 0 0 1 0 2h-4.994a1 1 0 0 1-1-1Zm12.984 0a1 1 0 0 1 1-1h4.994a1 1 0 0 1 0 2h-4.994a1 1 0 0 1-1-1Zm12.984 0a1 1 0 0 1 1-1h4.993a1 1 0 1 1 0 2h-4.993a1 1 0 0 1-1-1Zm12.983 0a1 1 0 0 1 1-1h4.994a1 1 0 0 1 0 2h-4.994a1 1 0 0 1-1-1Zm12.984 0a1 1 0 0 1 1-1h4.994a1 1 0 0 1 0 2h-4.994a1 1 0 0 1-1-1Zm12.984 0a1 1 0 0 1 1-1h4.993a1 1 0 1 1 0 2h-4.993a1 1 0 0 1-1-1Zm12.983 0a1 1 0 0 1 1-1h4.994a1 1 0 0 1 0 2h-4.994a1 1 0 0 1-1-1Zm12.984 0a1 1 0 0 1 1-1h4.994a1 1 0 0 1 0 2h-4.994a1 1 0 0 1-1-1Zm12.983 0a1 1 0 0 1 1-1h4.994a1 1 0 0 1 0 2h-4.994a1 1 0 0 1-1-1Zm12.984 0a1 1 0 0 1 1-1h4.994a1 1 0 0 1 0 2h-4.994a1 1 0 0 1-1-1Zm12.984 0a1 1 0 0 1 1-1h4.993a1 1 0 1 1 0 2h-4.993a1 1 0 0 1-1-1Zm12.983 0a1 1 0 0 1 1-1h4.994a1 1 0 0 1 0 2h-4.994a1 1 0 0 1-1-1Zm12.984 0a1 1 0 0 1 1-1h4.994a1 1 0 0 1 0 2h-4.994a1 1 0 0 1-1-1Zm12.984 0a1 1 0 0 1 1-1h4.993a1 1 0 1 1 0 2h-4.993a1 1 0 0 1-1-1Zm12.983 0a1 1 0 0 1 1-1h4.994a1 1 0 0 1 0 2h-4.994a1 1 0 0 1-1-1Zm12.984 0a1 1 0 0 1 1-1h4.994a1 1 0 0 1 0 2h-4.994a1 1 0 0 1-1-1Zm12.984 0a1 1 0 0 1 1-1h4.993a1 1 0 1 1 0 2h-4.993a1 1 0 0 1-1-1Zm12.983 0a1 1 0 0 1 1-1h4.994a1 1 0 0 1 0 2h-4.994a1 1 0 0 1-1-1Zm12.984 0a1 1 0 0 1 1-1h4.994a1 1 0 0 1 0 2h-4.994a1 1 0 0 1-1-1Zm12.984 0a1 1 0 0 1 1-1h4.993a1 1 0 1 1 0 2h-4.993a1 1 0 0 1-1-1Zm12.983 0a1 1 0 0 1 1-1h4.994a1 1 0 0 1 0 2h-4.994a1 1 0 0 1-1-1Zm12.984 0a1 1 0 0 1 1-1h4.994a1 1 0 0 1 0 2h-4.994a1 1 0 0 1-1-1Zm12.983 0a1 1 0 0 1 1-1h4.994a1 1 0 0 1 0 2h-4.994a1 1 0 0 1-1-1Zm12.984 0a1 1 0 0 1 1-1h4.994a1 1 0 0 1 0 2h-4.994a1 1 0 0 1-1-1Zm12.984 0a1 1 0 0 1 1-1h4.993a1 1 0 1 1 0 2h-4.993a1 1 0 0 1-1-1Zm12.983 0a1 1 0 0 1 1-1h4.994a1 1 0 0 1 0 2h-4.994a1 1 0 0 1-1-1Zm12.984 0a1 1 0 0 1 1-1h4.994a1 1 0 0 1 0 2h-4.994a1 1 0 0 1-1-1Zm12.984 0a1 1 0 0 1 1-1h4.993a1 1 0 1 1 0 2h-4.993a1 1 0 0 1-1-1Zm12.983 0a1 1 0 0 1 1-1h4.994a1 1 0 0 1 0 2h-4.994a1 1 0 0 1-1-1Zm12.984 0a1 1 0 0 1 1-1h4.994a1 1 0 0 1 0 2h-4.994a1 1 0 0 1-1-1Zm12.984 0a1 1 0 0 1 1-1h4.993a1 1 0 1 1 0 2h-4.993a1 1 0 0 1-1-1Zm12.983 0a1 1 0 0 1 1-1h4.994a1 1 0 0 1 0 2h-4.994a1 1 0 0 1-1-1Zm12.984 0a1 1 0 0 1 1-1h4.994a1 1 0 0 1 0 2h-4.994a1 1 0 0 1-1-1Zm12.984 0a1 1 0 0 1 1-1h4.993a1 1 0 0 1 0 2h-4.993a1 1 0 0 1-1-1Zm12.983 0a1 1 0 0 1 1-1h4.994a1 1 0 0 1 0 2h-4.994a1 1 0 0 1-1-1Zm12.984 0a1 1 0 0 1 1-1h4.993a1 1 0 1 1 0 2h-4.993a1 1 0 0 1-1-1Zm12.983 0a1 1 0 0 1 1-1h4.994a1 1 0 0 1 0 2h-4.994a1 1 0 0 1-1-1Zm12.984 0a1 1 0 0 1 1-1h4.994a1 1 0 0 1 0 2h-4.994a1 1 0 0 1-1-1Zm12.984 0a1 1 0 0 1 1-1h4.993a1 1 0 1 1 0 2h-4.993a1 1 0 0 1-1-1Zm12.983 0a1 1 0 0 1 1-1h4.994a1 1 0 0 1 0 2h-4.994a1 1 0 0 1-1-1Zm12.984 0a1 1 0 0 1 1-1h4.994a1 1 0 0 1 0 2h-4.994a1 1 0 0 1-1-1Zm12.984 0a1 1 0 0 1 1-1h4.993a1 1 0 1 1 0 2h-4.993a1 1 0 0 1-1-1Zm12.983 0c0-.552.45-1 1-1h4.99c.56 0 1 .448 1 1s-.44 1-1 1h-4.99c-.55 0-1-.448-1-1Zm12.98 0c0-.552.45-1 1-1h5c.55 0 1 .448 1 1s-.45 1-1 1h-5c-.55 0-1-.448-1-1Zm12.99 0c0-.552.45-1 1-1h4.99c.55 0 1 .448 1 1s-.45 1-1 1h-4.99c-.55 0-1-.448-1-1Zm12.98 0c0-.552.45-1 1-1h4.99c.56 0 1 .448 1 1s-.44 1-1 1h-4.99c-.55 0-1-.448-1-1Zm12.98 0c0-.552.45-1 1-1h5c.55 0 1 .448 1 1s-.45 1-1 1h-5c-.55 0-1-.448-1-1Zm12.99 0c0-.552.45-1 1-1h4.99c.55 0 1 .448 1 1s-.45 1-1 1h-4.99c-.55 0-1-.448-1-1Zm12.98 0c0-.552.45-1 1-1h5c.55 0 1 .448 1 1s-.45 1-1 1h-5c-.55 0-1-.448-1-1Zm12.99 0c0-.552.44-1 1-1h4.99c.55 0 1 .448 1 1s-.45 1-1 1h-4.99c-.56 0-1-.448-1-1Zm12.98 0c0-.552.45-1 1-1h4.99c.56 0 1 .448 1 1s-.44 1-1 1h-4.99c-.55 0-1-.448-1-1Zm12.98 0c0-.552.45-1 1-1h5c.55 0 1 .448 1 1s-.45 1-1 1h-5c-.55 0-1-.448-1-1Zm19.47 96.227 10 5.773-10 5.774v-4.9c-.15.08-.31.126-.49.126h-4.99c-.56 0-1-.448-1-1s.44-1 1-1h4.99c.18 0 .34.046.49.126v-4.899ZM242.25 222h-2.497v-2h2.497a1 1 0 0 1 0 2Zm6.99-1a1 1 0 0 1 1-1h4.993a1 1 0 1 1 0 2h-4.993a1 1 0 0 1-1-1Zm12.983 0a1 1 0 0 1 1-1h4.994a1 1 0 0 1 0 2h-4.994a1 1 0 0 1-1-1Zm12.984 0a1 1 0 0 1 1-1h4.993a1 1 0 1 1 0 2h-4.993a1 1 0 0 1-1-1Zm12.983 0a1 1 0 0 1 1-1h4.994a1 1 0 0 1 0 2h-4.994a1 1 0 0 1-1-1Zm12.984 0a1 1 0 0 1 1-1h4.994a1 1 0 0 1 0 2h-4.994a1 1 0 0 1-1-1Zm12.984 0a1 1 0 0 1 1-1h4.993a1 1 0 1 1 0 2h-4.993a1 1 0 0 1-1-1Zm12.983 0a1 1 0 0 1 1-1h4.994a1 1 0 0 1 0 2h-4.994a1 1 0 0 1-1-1Zm12.984 0a1 1 0 0 1 1-1h4.994a1 1 0 0 1 0 2h-4.994a1 1 0 0 1-1-1Zm12.983 0a1 1 0 0 1 1-1h4.994a1 1 0 0 1 0 2h-4.994a1 1 0 0 1-1-1Zm12.984 0a1 1 0 0 1 1-1h4.994a1 1 0 0 1 0 2h-4.994a1 1 0 0 1-1-1Zm12.984 0a1 1 0 0 1 1-1h4.993a1 1 0 1 1 0 2h-4.993a1 1 0 0 1-1-1Zm12.983 0a1 1 0 0 1 1-1h4.994a1 1 0 0 1 0 2h-4.994a1 1 0 0 1-1-1Zm12.984 0a1 1 0 0 1 1-1h4.994a1 1 0 0 1 0 2h-4.994a1 1 0 0 1-1-1Zm12.984 0a1 1 0 0 1 1-1h4.993a1 1 0 1 1 0 2h-4.993a1 1 0 0 1-1-1Zm12.983 0a1 1 0 0 1 1-1h4.994a1 1 0 0 1 0 2h-4.994a1 1 0 0 1-1-1Zm12.984 0a1 1 0 0 1 1-1h4.993a1 1 0 1 1 0 2h-4.993a1 1 0 0 1-1-1Zm12.983 0a1 1 0 0 1 1-1h4.994a1 1 0 0 1 0 2h-4.994a1 1 0 0 1-1-1Zm12.984 0a1 1 0 0 1 1-1h4.994a1 1 0 0 1 0 2h-4.994a1 1 0 0 1-1-1Zm12.984 0a1 1 0 0 1 1-1h4.993a1 1 0 1 1 0 2h-4.993a1 1 0 0 1-1-1Zm12.983 0a1 1 0 0 1 1-1h4.994a1 1 0 0 1 0 2h-4.994a1 1 0 0 1-1-1Zm12.984 0a1 1 0 0 1 1-1h4.994a1 1 0 0 1 0 2h-4.994a1 1 0 0 1-1-1Zm12.984 0a1 1 0 0 1 1-1h4.993a1 1 0 1 1 0 2h-4.993a1 1 0 0 1-1-1Zm12.983 0a1 1 0 0 1 1-1h4.994a1 1 0 0 1 0 2h-4.994a1 1 0 0 1-1-1Zm12.984 0a1 1 0 0 1 1-1h4.994a1 1 0 0 1 0 2h-4.994a1 1 0 0 1-1-1Zm12.983 0a1 1 0 0 1 1-1h4.994a1 1 0 0 1 0 2h-4.994a1 1 0 0 1-1-1Zm12.984 0a1 1 0 0 1 1-1h4.994a1 1 0 0 1 0 2h-4.994a1 1 0 0 1-1-1Zm12.984 0a1 1 0 0 1 1-1h4.993a1 1 0 1 1 0 2h-4.993a1 1 0 0 1-1-1Zm12.983 0a1 1 0 0 1 1-1h4.994a1 1 0 0 1 0 2h-4.994a1 1 0 0 1-1-1Zm12.984 0a1 1 0 0 1 1-1h4.994a1 1 0 0 1 0 2h-4.994a1 1 0 0 1-1-1Zm12.984 0a1 1 0 0 1 1-1h4.993a1 1 0 1 1 0 2h-4.993a1 1 0 0 1-1-1Zm12.983 0a1 1 0 0 1 1-1h4.994a1 1 0 0 1 0 2h-4.994a1 1 0 0 1-1-1Zm12.984 0a1 1 0 0 1 1-1h4.994a1 1 0 0 1 0 2h-4.994a1 1 0 0 1-1-1Zm12.984 0a1 1 0 0 1 1-1h4.993a1 1 0 1 1 0 2h-4.993a1 1 0 0 1-1-1Zm12.983 0a1 1 0 0 1 1-1h4.994a1 1 0 0 1 0 2h-4.994a1 1 0 0 1-1-1Zm12.984 0a1 1 0 0 1 1-1h4.994a1 1 0 0 1 0 2h-4.994a1 1 0 0 1-1-1Zm12.984 0a1 1 0 0 1 1-1h4.993a1 1 0 1 1 0 2h-4.993a1 1 0 0 1-1-1Zm12.983 0a1 1 0 0 1 1-1h4.994a1 1 0 0 1 0 2h-4.994a1 1 0 0 1-1-1Zm12.984 0a1 1 0 0 1 1-1h4.994a1 1 0 0 1 0 2h-4.994a1 1 0 0 1-1-1Zm12.983 0a1 1 0 0 1 1-1h4.994a1 1 0 0 1 0 2h-4.994a1 1 0 0 1-1-1Zm12.984 0a1 1 0 0 1 1-1h4.994a1 1 0 0 1 0 2h-4.994a1 1 0 0 1-1-1Zm12.984 0a1 1 0 0 1 1-1h4.993a1 1 0 1 1 0 2h-4.993a1 1 0 0 1-1-1Zm12.983 0a1 1 0 0 1 1-1h4.994a1 1 0 0 1 0 2h-4.994a1 1 0 0 1-1-1Zm12.984 0a1 1 0 0 1 1-1h4.994a1 1 0 0 1 0 2h-4.994a1 1 0 0 1-1-1Zm12.984 0a1 1 0 0 1 1-1h4.993a1 1 0 1 1 0 2h-4.993a1 1 0 0 1-1-1Zm12.983 0a1 1 0 0 1 1-1h4.994a1 1 0 0 1 0 2h-4.994a1 1 0 0 1-1-1Zm12.984 0a1 1 0 0 1 1-1h4.994a1 1 0 0 1 0 2h-4.994a1 1 0 0 1-1-1Zm12.984 0a1 1 0 0 1 1-1h4.993a1 1 0 1 1 0 2h-4.993a1 1 0 0 1-1-1Zm12.983 0a1 1 0 0 1 1-1h4.994a1 1 0 0 1 0 2h-4.994a1 1 0 0 1-1-1Zm12.984 0a1 1 0 0 1 1-1h4.994a1 1 0 0 1 0 2h-4.994a1 1 0 0 1-1-1Zm12.984 0a1 1 0 0 1 1-1h4.993a1 1 0 0 1 0 2h-4.993a1 1 0 0 1-1-1Zm12.983 0a1 1 0 0 1 1-1h4.994a1 1 0 0 1 0 2h-4.994a1 1 0 0 1-1-1Zm12.984 0a1 1 0 0 1 1-1h4.993a1 1 0 1 1 0 2h-4.993a1 1 0 0 1-1-1Zm12.983 0a1 1 0 0 1 1-1h4.994a1 1 0 0 1 0 2h-4.994a1 1 0 0 1-1-1Zm12.984 0a1 1 0 0 1 1-1h4.994a1 1 0 0 1 0 2h-4.994a1 1 0 0 1-1-1Zm12.984 0a1 1 0 0 1 1-1h4.993a1 1 0 1 1 0 2h-4.993a1 1 0 0 1-1-1Zm12.983 0a1 1 0 0 1 1-1h4.994a1 1 0 0 1 0 2h-4.994a1 1 0 0 1-1-1Zm12.984 0a1 1 0 0 1 1-1h4.994a1 1 0 0 1 0 2h-4.994a1 1 0 0 1-1-1Zm12.984 0a1 1 0 0 1 1-1h4.993a1 1 0 1 1 0 2h-4.993a1 1 0 0 1-1-1Zm12.983 0c0-.552.45-1 1-1h4.99c.56 0 1 .448 1 1s-.44 1-1 1h-4.99c-.55 0-1-.448-1-1Zm12.98 0c0-.552.45-1 1-1h5c.55 0 1 .448 1 1s-.45 1-1 1h-5c-.55 0-1-.448-1-1Zm12.99 0c0-.552.45-1 1-1h4.99c.55 0 1 .448 1 1s-.45 1-1 1h-4.99c-.55 0-1-.448-1-1Zm12.98 0c0-.552.45-1 1-1h4.99c.56 0 1 .448 1 1s-.44 1-1 1h-4.99c-.55 0-1-.448-1-1Zm12.98 0c0-.552.45-1 1-1h5c.55 0 1 .448 1 1s-.45 1-1 1h-5c-.55 0-1-.448-1-1Zm12.99 0c0-.552.45-1 1-1h4.99c.55 0 1 .448 1 1s-.45 1-1 1h-4.99c-.55 0-1-.448-1-1Zm12.98 0c0-.552.45-1 1-1h5c.55 0 1 .448 1 1s-.45 1-1 1h-5c-.55 0-1-.448-1-1Zm12.99 0c0-.552.44-1 1-1h4.99c.55 0 1 .448 1 1s-.45 1-1 1h-4.99c-.56 0-1-.448-1-1Zm12.98 0c0-.552.45-1 1-1h4.99c.56 0 1 .448 1 1s-.44 1-1 1h-4.99c-.55 0-1-.448-1-1Zm12.98 0c0-.552.45-1 1-1h5c.55 0 1 .448 1 1s-.45 1-1 1h-5c-.55 0-1-.448-1-1Zm19.47 97.227 10 5.773-10 5.774v-4.9c-.15.08-.31.126-.49.126h-4.99c-.56 0-1-.448-1-1s.44-1 1-1h4.99c.18 0 .34.046.49.126v-4.899ZM242.25 325h-2.497v-2h2.497a1 1 0 0 1 0 2Zm6.99-1a1 1 0 0 1 1-1h4.993a1 1 0 1 1 0 2h-4.993a1 1 0 0 1-1-1Zm12.983 0a1 1 0 0 1 1-1h4.994a1 1 0 0 1 0 2h-4.994a1 1 0 0 1-1-1Zm12.984 0a1 1 0 0 1 1-1h4.993a1 1 0 1 1 0 2h-4.993a1 1 0 0 1-1-1Zm12.983 0a1 1 0 0 1 1-1h4.994a1 1 0 0 1 0 2h-4.994a1 1 0 0 1-1-1Zm12.984 0a1 1 0 0 1 1-1h4.994a1 1 0 0 1 0 2h-4.994a1 1 0 0 1-1-1Zm12.984 0a1 1 0 0 1 1-1h4.993a1 1 0 1 1 0 2h-4.993a1 1 0 0 1-1-1Zm12.983 0a1 1 0 0 1 1-1h4.994a1 1 0 0 1 0 2h-4.994a1 1 0 0 1-1-1Zm12.984 0a1 1 0 0 1 1-1h4.994a1 1 0 0 1 0 2h-4.994a1 1 0 0 1-1-1Zm12.983 0a1 1 0 0 1 1-1h4.994a1 1 0 0 1 0 2h-4.994a1 1 0 0 1-1-1Zm12.984 0a1 1 0 0 1 1-1h4.994a1 1 0 0 1 0 2h-4.994a1 1 0 0 1-1-1Zm12.984 0a1 1 0 0 1 1-1h4.993a1 1 0 1 1 0 2h-4.993a1 1 0 0 1-1-1Zm12.983 0a1 1 0 0 1 1-1h4.994a1 1 0 0 1 0 2h-4.994a1 1 0 0 1-1-1Zm12.984 0a1 1 0 0 1 1-1h4.994a1 1 0 0 1 0 2h-4.994a1 1 0 0 1-1-1Zm12.984 0a1 1 0 0 1 1-1h4.993a1 1 0 1 1 0 2h-4.993a1 1 0 0 1-1-1Zm12.983 0a1 1 0 0 1 1-1h4.994a1 1 0 0 1 0 2h-4.994a1 1 0 0 1-1-1Zm12.984 0a1 1 0 0 1 1-1h4.993a1 1 0 1 1 0 2h-4.993a1 1 0 0 1-1-1Zm12.983 0a1 1 0 0 1 1-1h4.994a1 1 0 0 1 0 2h-4.994a1 1 0 0 1-1-1Zm12.984 0a1 1 0 0 1 1-1h4.994a1 1 0 0 1 0 2h-4.994a1 1 0 0 1-1-1Zm12.984 0a1 1 0 0 1 1-1h4.993a1 1 0 1 1 0 2h-4.993a1 1 0 0 1-1-1Zm12.983 0a1 1 0 0 1 1-1h4.994a1 1 0 0 1 0 2h-4.994a1 1 0 0 1-1-1Zm12.984 0a1 1 0 0 1 1-1h4.994a1 1 0 0 1 0 2h-4.994a1 1 0 0 1-1-1Zm12.984 0a1 1 0 0 1 1-1h4.993a1 1 0 1 1 0 2h-4.993a1 1 0 0 1-1-1Zm12.983 0a1 1 0 0 1 1-1h4.994a1 1 0 0 1 0 2h-4.994a1 1 0 0 1-1-1Zm12.984 0a1 1 0 0 1 1-1h4.994a1 1 0 0 1 0 2h-4.994a1 1 0 0 1-1-1Zm12.983 0a1 1 0 0 1 1-1h4.994a1 1 0 0 1 0 2h-4.994a1 1 0 0 1-1-1Zm12.984 0a1 1 0 0 1 1-1h4.994a1 1 0 0 1 0 2h-4.994a1 1 0 0 1-1-1Zm12.984 0a1 1 0 0 1 1-1h4.993a1 1 0 1 1 0 2h-4.993a1 1 0 0 1-1-1Zm12.983 0a1 1 0 0 1 1-1h4.994a1 1 0 0 1 0 2h-4.994a1 1 0 0 1-1-1Zm12.984 0a1 1 0 0 1 1-1h4.994a1 1 0 0 1 0 2h-4.994a1 1 0 0 1-1-1Zm12.984 0a1 1 0 0 1 1-1h4.993a1 1 0 1 1 0 2h-4.993a1 1 0 0 1-1-1Zm12.983 0a1 1 0 0 1 1-1h4.994a1 1 0 0 1 0 2h-4.994a1 1 0 0 1-1-1Zm12.984 0a1 1 0 0 1 1-1h4.994a1 1 0 0 1 0 2h-4.994a1 1 0 0 1-1-1Zm12.984 0a1 1 0 0 1 1-1h4.993a1 1 0 1 1 0 2h-4.993a1 1 0 0 1-1-1Zm12.983 0a1 1 0 0 1 1-1h4.994a1 1 0 0 1 0 2h-4.994a1 1 0 0 1-1-1Zm12.984 0a1 1 0 0 1 1-1h4.994a1 1 0 0 1 0 2h-4.994a1 1 0 0 1-1-1Zm12.984 0a1 1 0 0 1 1-1h4.993a1 1 0 1 1 0 2h-4.993a1 1 0 0 1-1-1Zm12.983 0a1 1 0 0 1 1-1h4.994a1 1 0 0 1 0 2h-4.994a1 1 0 0 1-1-1Zm12.984 0a1 1 0 0 1 1-1h4.994a1 1 0 0 1 0 2h-4.994a1 1 0 0 1-1-1Zm12.983 0a1 1 0 0 1 1-1h4.994a1 1 0 0 1 0 2h-4.994a1 1 0 0 1-1-1Zm12.984 0a1 1 0 0 1 1-1h4.994a1 1 0 0 1 0 2h-4.994a1 1 0 0 1-1-1Zm12.984 0a1 1 0 0 1 1-1h4.993a1 1 0 1 1 0 2h-4.993a1 1 0 0 1-1-1Zm12.983 0a1 1 0 0 1 1-1h4.994a1 1 0 0 1 0 2h-4.994a1 1 0 0 1-1-1Zm12.984 0a1 1 0 0 1 1-1h4.994a1 1 0 0 1 0 2h-4.994a1 1 0 0 1-1-1Zm12.984 0a1 1 0 0 1 1-1h4.993a1 1 0 1 1 0 2h-4.993a1 1 0 0 1-1-1Zm12.983 0a1 1 0 0 1 1-1h4.994a1 1 0 0 1 0 2h-4.994a1 1 0 0 1-1-1Zm12.984 0a1 1 0 0 1 1-1h4.994a1 1 0 0 1 0 2h-4.994a1 1 0 0 1-1-1Zm12.984 0a1 1 0 0 1 1-1h4.993a1 1 0 1 1 0 2h-4.993a1 1 0 0 1-1-1Zm12.983 0a1 1 0 0 1 1-1h4.994a1 1 0 0 1 0 2h-4.994a1 1 0 0 1-1-1Zm12.984 0a1 1 0 0 1 1-1h4.994a1 1 0 0 1 0 2h-4.994a1 1 0 0 1-1-1Zm12.984 0a1 1 0 0 1 1-1h4.993a1 1 0 0 1 0 2h-4.993a1 1 0 0 1-1-1Zm12.983 0a1 1 0 0 1 1-1h4.994a1 1 0 0 1 0 2h-4.994a1 1 0 0 1-1-1Zm12.984 0a1 1 0 0 1 1-1h4.993a1 1 0 1 1 0 2h-4.993a1 1 0 0 1-1-1Zm12.983 0a1 1 0 0 1 1-1h4.994a1 1 0 0 1 0 2h-4.994a1 1 0 0 1-1-1Zm12.984 0a1 1 0 0 1 1-1h4.994a1 1 0 0 1 0 2h-4.994a1 1 0 0 1-1-1Zm12.984 0a1 1 0 0 1 1-1h4.993a1 1 0 1 1 0 2h-4.993a1 1 0 0 1-1-1Zm12.983 0a1 1 0 0 1 1-1h4.994a1 1 0 0 1 0 2h-4.994a1 1 0 0 1-1-1Zm12.984 0a1 1 0 0 1 1-1h4.994a1 1 0 0 1 0 2h-4.994a1 1 0 0 1-1-1Zm12.984 0a1 1 0 0 1 1-1h4.993a1 1 0 1 1 0 2h-4.993a1 1 0 0 1-1-1Zm12.983 0c0-.552.45-1 1-1h4.99c.56 0 1 .448 1 1s-.44 1-1 1h-4.99c-.55 0-1-.448-1-1Zm12.98 0c0-.552.45-1 1-1h5c.55 0 1 .448 1 1s-.45 1-1 1h-5c-.55 0-1-.448-1-1Zm12.99 0c0-.552.45-1 1-1h4.99c.55 0 1 .448 1 1s-.45 1-1 1h-4.99c-.55 0-1-.448-1-1Zm12.98 0c0-.552.45-1 1-1h4.99c.56 0 1 .448 1 1s-.44 1-1 1h-4.99c-.55 0-1-.448-1-1Zm12.98 0c0-.552.45-1 1-1h5c.55 0 1 .448 1 1s-.45 1-1 1h-5c-.55 0-1-.448-1-1Zm12.99 0c0-.552.45-1 1-1h4.99c.55 0 1 .448 1 1s-.45 1-1 1h-4.99c-.55 0-1-.448-1-1Zm12.98 0c0-.552.45-1 1-1h5c.55 0 1 .448 1 1s-.45 1-1 1h-5c-.55 0-1-.448-1-1Zm12.99 0c0-.552.44-1 1-1h4.99c.55 0 1 .448 1 1s-.45 1-1 1h-4.99c-.56 0-1-.448-1-1Zm12.98 0c0-.552.45-1 1-1h4.99c.56 0 1 .448 1 1s-.44 1-1 1h-4.99c-.55 0-1-.448-1-1Zm12.98 0c0-.552.45-1 1-1h5c.55 0 1 .448 1 1s-.45 1-1 1h-5c-.55 0-1-.448-1-1Zm19.47 97.227 10 5.773-10 5.774v-4.9c-.15.08-.31.126-.49.126h-4.99c-.56 0-1-.448-1-1s.44-1 1-1h4.99c.18 0 .34.046.49.126v-4.899ZM242.25 428h-2.497v-2h2.497a1 1 0 0 1 0 2Zm6.99-1a1 1 0 0 1 1-1h4.993a1 1 0 1 1 0 2h-4.993a1 1 0 0 1-1-1Zm12.983 0a1 1 0 0 1 1-1h4.994a1 1 0 0 1 0 2h-4.994a1 1 0 0 1-1-1Zm12.984 0a1 1 0 0 1 1-1h4.993a1 1 0 1 1 0 2h-4.993a1 1 0 0 1-1-1Zm12.983 0a1 1 0 0 1 1-1h4.994a1 1 0 0 1 0 2h-4.994a1 1 0 0 1-1-1Zm12.984 0a1 1 0 0 1 1-1h4.994a1 1 0 0 1 0 2h-4.994a1 1 0 0 1-1-1Zm12.984 0a1 1 0 0 1 1-1h4.993a1 1 0 1 1 0 2h-4.993a1 1 0 0 1-1-1Zm12.983 0a1 1 0 0 1 1-1h4.994a1 1 0 0 1 0 2h-4.994a1 1 0 0 1-1-1Zm12.984 0a1 1 0 0 1 1-1h4.994a1 1 0 0 1 0 2h-4.994a1 1 0 0 1-1-1Zm12.983 0a1 1 0 0 1 1-1h4.994a1 1 0 0 1 0 2h-4.994a1 1 0 0 1-1-1Zm12.984 0a1 1 0 0 1 1-1h4.994a1 1 0 0 1 0 2h-4.994a1 1 0 0 1-1-1Zm12.984 0a1 1 0 0 1 1-1h4.993a1 1 0 1 1 0 2h-4.993a1 1 0 0 1-1-1Zm12.983 0a1 1 0 0 1 1-1h4.994a1 1 0 0 1 0 2h-4.994a1 1 0 0 1-1-1Zm12.984 0a1 1 0 0 1 1-1h4.994a1 1 0 0 1 0 2h-4.994a1 1 0 0 1-1-1Zm12.984 0a1 1 0 0 1 1-1h4.993a1 1 0 1 1 0 2h-4.993a1 1 0 0 1-1-1Zm12.983 0a1 1 0 0 1 1-1h4.994a1 1 0 0 1 0 2h-4.994a1 1 0 0 1-1-1Zm12.984 0a1 1 0 0 1 1-1h4.993a1 1 0 1 1 0 2h-4.993a1 1 0 0 1-1-1Zm12.983 0a1 1 0 0 1 1-1h4.994a1 1 0 0 1 0 2h-4.994a1 1 0 0 1-1-1Zm12.984 0a1 1 0 0 1 1-1h4.994a1 1 0 0 1 0 2h-4.994a1 1 0 0 1-1-1Zm12.984 0a1 1 0 0 1 1-1h4.993a1 1 0 1 1 0 2h-4.993a1 1 0 0 1-1-1Zm12.983 0a1 1 0 0 1 1-1h4.994a1 1 0 0 1 0 2h-4.994a1 1 0 0 1-1-1Zm12.984 0a1 1 0 0 1 1-1h4.994a1 1 0 0 1 0 2h-4.994a1 1 0 0 1-1-1Zm12.984 0a1 1 0 0 1 1-1h4.993a1 1 0 1 1 0 2h-4.993a1 1 0 0 1-1-1Zm12.983 0a1 1 0 0 1 1-1h4.994a1 1 0 0 1 0 2h-4.994a1 1 0 0 1-1-1Zm12.984 0a1 1 0 0 1 1-1h4.994a1 1 0 0 1 0 2h-4.994a1 1 0 0 1-1-1Zm12.983 0a1 1 0 0 1 1-1h4.994a1 1 0 0 1 0 2h-4.994a1 1 0 0 1-1-1Zm12.984 0a1 1 0 0 1 1-1h4.994a1 1 0 0 1 0 2h-4.994a1 1 0 0 1-1-1Zm12.984 0a1 1 0 0 1 1-1h4.993a1 1 0 1 1 0 2h-4.993a1 1 0 0 1-1-1Zm12.983 0a1 1 0 0 1 1-1h4.994a1 1 0 0 1 0 2h-4.994a1 1 0 0 1-1-1Zm12.984 0a1 1 0 0 1 1-1h4.994a1 1 0 0 1 0 2h-4.994a1 1 0 0 1-1-1Zm12.984 0a1 1 0 0 1 1-1h4.993a1 1 0 1 1 0 2h-4.993a1 1 0 0 1-1-1Zm12.983 0a1 1 0 0 1 1-1h4.994a1 1 0 0 1 0 2h-4.994a1 1 0 0 1-1-1Zm12.984 0a1 1 0 0 1 1-1h4.994a1 1 0 0 1 0 2h-4.994a1 1 0 0 1-1-1Zm12.984 0a1 1 0 0 1 1-1h4.993a1 1 0 1 1 0 2h-4.993a1 1 0 0 1-1-1Zm12.983 0a1 1 0 0 1 1-1h4.994a1 1 0 0 1 0 2h-4.994a1 1 0 0 1-1-1Zm12.984 0a1 1 0 0 1 1-1h4.994a1 1 0 0 1 0 2h-4.994a1 1 0 0 1-1-1Zm12.984 0a1 1 0 0 1 1-1h4.993a1 1 0 1 1 0 2h-4.993a1 1 0 0 1-1-1Zm12.983 0a1 1 0 0 1 1-1h4.994a1 1 0 0 1 0 2h-4.994a1 1 0 0 1-1-1Zm12.984 0a1 1 0 0 1 1-1h4.994a1 1 0 0 1 0 2h-4.994a1 1 0 0 1-1-1Zm12.983 0a1 1 0 0 1 1-1h4.994a1 1 0 0 1 0 2h-4.994a1 1 0 0 1-1-1Zm12.984 0a1 1 0 0 1 1-1h4.994a1 1 0 0 1 0 2h-4.994a1 1 0 0 1-1-1Zm12.984 0a1 1 0 0 1 1-1h4.993a1 1 0 1 1 0 2h-4.993a1 1 0 0 1-1-1Zm12.983 0a1 1 0 0 1 1-1h4.994a1 1 0 0 1 0 2h-4.994a1 1 0 0 1-1-1Zm12.984 0a1 1 0 0 1 1-1h4.994a1 1 0 0 1 0 2h-4.994a1 1 0 0 1-1-1Zm12.984 0a1 1 0 0 1 1-1h4.993a1 1 0 1 1 0 2h-4.993a1 1 0 0 1-1-1Zm12.983 0a1 1 0 0 1 1-1h4.994a1 1 0 0 1 0 2h-4.994a1 1 0 0 1-1-1Zm12.984 0a1 1 0 0 1 1-1h4.994a1 1 0 0 1 0 2h-4.994a1 1 0 0 1-1-1Zm12.984 0a1 1 0 0 1 1-1h4.993a1 1 0 1 1 0 2h-4.993a1 1 0 0 1-1-1Zm12.983 0a1 1 0 0 1 1-1h4.994a1 1 0 0 1 0 2h-4.994a1 1 0 0 1-1-1Zm12.984 0a1 1 0 0 1 1-1h4.994a1 1 0 0 1 0 2h-4.994a1 1 0 0 1-1-1Zm12.984 0a1 1 0 0 1 1-1h4.993a1 1 0 0 1 0 2h-4.993a1 1 0 0 1-1-1Zm12.983 0a1 1 0 0 1 1-1h4.994a1 1 0 0 1 0 2h-4.994a1 1 0 0 1-1-1Zm12.984 0a1 1 0 0 1 1-1h4.993a1 1 0 1 1 0 2h-4.993a1 1 0 0 1-1-1Zm12.983 0a1 1 0 0 1 1-1h4.994a1 1 0 0 1 0 2h-4.994a1 1 0 0 1-1-1Zm12.984 0a1 1 0 0 1 1-1h4.994a1 1 0 0 1 0 2h-4.994a1 1 0 0 1-1-1Zm12.984 0a1 1 0 0 1 1-1h4.993a1 1 0 1 1 0 2h-4.993a1 1 0 0 1-1-1Zm12.983 0a1 1 0 0 1 1-1h4.994a1 1 0 0 1 0 2h-4.994a1 1 0 0 1-1-1Zm12.984 0a1 1 0 0 1 1-1h4.994a1 1 0 0 1 0 2h-4.994a1 1 0 0 1-1-1Zm12.984 0a1 1 0 0 1 1-1h4.993a1 1 0 1 1 0 2h-4.993a1 1 0 0 1-1-1Zm12.983 0c0-.552.45-1 1-1h4.99c.56 0 1 .448 1 1s-.44 1-1 1h-4.99c-.55 0-1-.448-1-1Zm12.98 0c0-.552.45-1 1-1h5c.55 0 1 .448 1 1s-.45 1-1 1h-5c-.55 0-1-.448-1-1Zm12.99 0c0-.552.45-1 1-1h4.99c.55 0 1 .448 1 1s-.45 1-1 1h-4.99c-.55 0-1-.448-1-1Zm12.98 0c0-.552.45-1 1-1h4.99c.56 0 1 .448 1 1s-.44 1-1 1h-4.99c-.55 0-1-.448-1-1Zm12.98 0c0-.552.45-1 1-1h5c.55 0 1 .448 1 1s-.45 1-1 1h-5c-.55 0-1-.448-1-1Zm12.99 0c0-.552.45-1 1-1h4.99c.55 0 1 .448 1 1s-.45 1-1 1h-4.99c-.55 0-1-.448-1-1Zm12.98 0c0-.552.45-1 1-1h5c.55 0 1 .448 1 1s-.45 1-1 1h-5c-.55 0-1-.448-1-1Zm12.99 0c0-.552.44-1 1-1h4.99c.55 0 1 .448 1 1s-.45 1-1 1h-4.99c-.56 0-1-.448-1-1Zm12.98 0c0-.552.45-1 1-1h4.99c.56 0 1 .448 1 1s-.44 1-1 1h-4.99c-.55 0-1-.448-1-1Zm12.98 0c0-.552.45-1 1-1h5c.55 0 1 .448 1 1s-.45 1-1 1h-5c-.55 0-1-.448-1-1Z" fill="#9C9C9C"/><path d="m102.292 121 5.498-14.316h2.041L115.69 121h-2.158l-1.67-4.336h-5.986L104.304 121h-2.012Zm4.131-5.879h4.853l-1.494-3.965c-.456-1.204-.794-2.194-1.015-2.968a18.37 18.37 0 0 1-.772 2.734l-1.572 4.199Zm10.556 9.854v-14.346h1.602v1.348c.378-.528.804-.922 1.279-1.182.476-.267 1.052-.4 1.729-.4.885 0 1.666.227 2.344.683.677.456 1.188 1.1 1.533 1.934.345.827.517 1.735.517 2.724 0 1.062-.192 2.019-.576 2.871-.377.847-.931 1.498-1.66 1.954-.723.449-1.484.673-2.285.673a3.33 3.33 0 0 1-1.582-.371 3.62 3.62 0 0 1-1.143-.937v5.049h-1.758Zm1.592-9.102c0 1.335.27 2.321.811 2.959.54.638 1.194.957 1.963.957.781 0 1.448-.329 2.002-.986.56-.664.839-1.69.839-3.076 0-1.322-.273-2.312-.82-2.969-.54-.658-1.188-.987-1.943-.987-.749 0-1.413.352-1.992 1.055-.573.697-.86 1.712-.86 3.047Zm9.541 9.102v-14.346h1.602v1.348c.377-.528.804-.922 1.279-1.182.475-.267 1.052-.4 1.729-.4.885 0 1.666.227 2.343.683.677.456 1.189 1.1 1.534 1.934.345.827.517 1.735.517 2.724 0 1.062-.192 2.019-.576 2.871-.378.847-.931 1.498-1.66 1.954-.723.449-1.485.673-2.285.673a3.327 3.327 0 0 1-1.582-.371 3.608 3.608 0 0 1-1.143-.937v5.049h-1.758Zm1.592-9.102c0 1.335.27 2.321.811 2.959.54.638 1.194.957 1.962.957.782 0 1.449-.329 2.002-.986.56-.664.84-1.69.84-3.076 0-1.322-.273-2.312-.82-2.969-.54-.658-1.188-.987-1.943-.987-.749 0-1.413.352-1.993 1.055-.573.697-.859 1.712-.859 3.047Zm9.502 5.127v-14.316h1.758V121h-1.758Zm4.502-12.295v-2.021h1.758v2.021h-1.758Zm0 12.295v-10.371h1.758V121h-1.758Zm11.211-3.799 1.728.225c-.188 1.191-.673 2.125-1.455 2.803-.774.67-1.728 1.005-2.861 1.005-1.419 0-2.562-.462-3.428-1.386-.859-.931-1.289-2.263-1.289-3.994 0-1.12.186-2.1.557-2.94.371-.84.934-1.468 1.689-1.885a5.028 5.028 0 0 1 2.481-.634c1.126 0 2.047.286 2.763.859.717.566 1.176 1.374 1.377 2.422l-1.709.263c-.162-.696-.452-1.22-.869-1.572-.41-.351-.908-.527-1.494-.527-.885 0-1.605.319-2.158.957-.553.631-.83 1.634-.83 3.008 0 1.393.267 2.405.801 3.037.533.631 1.23.947 2.089.947.691 0 1.267-.212 1.729-.635.462-.423.755-1.074.879-1.953Zm10 2.52c-.651.553-1.279.944-1.885 1.172a5.408 5.408 0 0 1-1.933.341c-1.14 0-2.015-.276-2.627-.83-.612-.56-.918-1.272-.918-2.138 0-.508.114-.97.341-1.387.235-.423.538-.762.909-1.016.377-.254.8-.446 1.269-.576.345-.091.866-.179 1.563-.264 1.419-.169 2.464-.371 3.134-.605.007-.241.01-.394.01-.459 0-.716-.166-1.221-.498-1.514-.449-.397-1.116-.595-2.002-.595-.827 0-1.439.146-1.836.439-.39.287-.68.798-.869 1.533l-1.719-.234c.157-.736.414-1.328.772-1.777.358-.456.875-.804 1.553-1.045.677-.248 1.461-.371 2.353-.371.885 0 1.605.104 2.158.312.554.208.961.472 1.221.791.26.313.443.71.547 1.191.058.3.088.84.088 1.622v2.343c0 1.634.036 2.67.107 3.106.078.429.228.843.449 1.24h-1.836a3.734 3.734 0 0 1-.351-1.279Zm-.147-3.926c-.638.26-1.595.482-2.871.664-.722.104-1.233.221-1.533.352a1.518 1.518 0 0 0-.937 1.406c0 .469.175.859.527 1.172.358.312.879.468 1.562.468.678 0 1.28-.146 1.807-.439.527-.3.915-.706 1.162-1.221.189-.397.283-.983.283-1.758v-.644Zm8.35 3.633.254 1.552a6.473 6.473 0 0 1-1.328.157c-.638 0-1.133-.101-1.485-.303-.351-.202-.599-.466-.742-.791-.143-.332-.215-1.025-.215-2.08v-5.967h-1.289v-1.367h1.289v-2.568l1.748-1.055v3.623h1.768v1.367h-1.768v6.065c0 .501.03.823.088.966a.76.76 0 0 0 .303.342c.143.085.345.127.606.127.195 0 .452-.023.771-.068Zm1.738-10.723v-2.021h1.758v2.021h-1.758Zm0 12.295v-10.371h1.758V121h-1.758Zm3.789-5.186c0-1.92.534-3.343 1.602-4.267.892-.768 1.979-1.152 3.262-1.152 1.425 0 2.591.468 3.496 1.406.905.931 1.357 2.22 1.357 3.867 0 1.335-.202 2.386-.605 3.154a4.226 4.226 0 0 1-1.748 1.778 5.064 5.064 0 0 1-2.5.634c-1.452 0-2.627-.465-3.526-1.396-.892-.931-1.338-2.272-1.338-4.024Zm1.807 0c0 1.329.29 2.325.869 2.989.58.657 1.309.986 2.188.986.872 0 1.598-.332 2.177-.996.58-.664.87-1.676.87-3.037 0-1.283-.293-2.253-.879-2.91-.58-.664-1.302-.996-2.168-.996-.879 0-1.608.328-2.188.986-.579.657-.869 1.65-.869 2.978Zm9.98 5.186v-10.371h1.582v1.475c.762-1.14 1.862-1.709 3.301-1.709.625 0 1.198.113 1.719.341.527.222.921.515 1.182.879.26.365.442.798.547 1.299.065.326.097.895.097 1.709V121h-1.758v-6.309c0-.716-.068-1.25-.205-1.601a1.66 1.66 0 0 0-.732-.85c-.345-.215-.752-.322-1.221-.322-.749 0-1.396.238-1.943.713-.541.475-.811 1.377-.811 2.705V121h-1.758Z" fill="#2D2D2D"/><path d="M1089.56 104V93.898h-3.78v-1.351h9.08v1.351h-3.79V104h-1.51Zm9.12 0V92.547h1.52V104h-1.52Zm6.15 0V92.547h2.28l2.71 8.109c.25.755.43 1.321.55 1.696.13-.417.33-1.029.61-1.836l2.74-7.97h2.04V104h-1.46v-9.586l-3.33 9.586h-1.37l-3.31-9.75V104h-1.46Zm15.41 0V92.547h8.28v1.351h-6.77v3.508h6.34v1.344h-6.34v3.898h7.03V104h-8.54Z" fill="#9C9C9C"/><path d="M517.419 172.777c0-2.304.641-4.011 1.922-5.121 1.07-.922 2.375-1.383 3.914-1.383 1.711 0 3.109.563 4.195 1.688 1.086 1.117 1.629 2.664 1.629 4.641 0 1.601-.242 2.863-.726 3.785a5.07 5.07 0 0 1-2.098 2.133 6.082 6.082 0 0 1-3 .761c-1.742 0-3.152-.558-4.231-1.676-1.07-1.117-1.605-2.726-1.605-4.828Zm2.168 0c0 1.594.348 2.789 1.043 3.586.695.789 1.57 1.184 2.625 1.184 1.047 0 1.918-.399 2.613-1.195.695-.797 1.043-2.012 1.043-3.645 0-1.539-.351-2.703-1.055-3.492-.695-.797-1.562-1.195-2.601-1.195-1.055 0-1.93.394-2.625 1.183-.695.789-1.043 1.981-1.043 3.574ZM531.775 179v-17.18h2.11v9.797l4.992-5.062h2.73l-4.758 4.617 5.239 7.828h-2.602l-4.113-6.363-1.488 1.429V179h-2.11Zm-46.457 100.777c0-2.304.641-4.011 1.922-5.121 1.07-.922 2.375-1.383 3.914-1.383 1.711 0 3.109.563 4.195 1.688 1.086 1.117 1.629 2.664 1.629 4.641 0 1.601-.242 2.863-.726 3.785a5.07 5.07 0 0 1-2.098 2.133 6.082 6.082 0 0 1-3 .761c-1.742 0-3.152-.558-4.23-1.676-1.071-1.117-1.606-2.726-1.606-4.828Zm2.168 0c0 1.594.348 2.789 1.043 3.586.695.789 1.57 1.184 2.625 1.184 1.047 0 1.918-.399 2.613-1.195.696-.797 1.043-2.012 1.043-3.645 0-1.539-.351-2.703-1.054-3.492-.696-.797-1.563-1.195-2.602-1.195-1.055 0-1.93.394-2.625 1.183-.695.789-1.043 1.981-1.043 3.574ZM499.674 286v-17.18h2.11v9.797l4.992-5.062h2.73l-4.757 4.617 5.238 7.828h-2.602l-4.113-6.363-1.488 1.429V286h-2.11Zm-395.868-61v-14.316h2.851l3.389 10.136c.312.944.54 1.651.683 2.119.163-.52.417-1.285.762-2.294l3.428-9.961h2.549V225h-1.826v-11.982L111.481 225h-1.709l-4.14-12.188V225h-1.826Zm23.593-3.34 1.817.225c-.287 1.061-.817 1.885-1.592 2.47-.775.586-1.764.879-2.969.879-1.517 0-2.721-.465-3.613-1.396-.885-.938-1.328-2.249-1.328-3.936 0-1.744.449-3.099 1.347-4.062.899-.964 2.064-1.445 3.497-1.445 1.386 0 2.519.472 3.398 1.416s1.318 2.272 1.318 3.984c0 .104-.003.26-.009.469h-7.735c.065 1.139.388 2.011.967 2.617.579.605 1.302.908 2.168.908.645 0 1.195-.169 1.65-.508.456-.338.817-.879 1.084-1.621Zm-5.771-2.842h5.791c-.078-.872-.3-1.526-.664-1.963-.56-.677-1.286-1.015-2.178-1.015-.807 0-1.488.27-2.041.81-.547.541-.85 1.263-.908 2.168Zm9.805 6.182v-10.371h1.572v1.455a3.645 3.645 0 0 1 1.299-1.221c.54-.312 1.155-.468 1.845-.468.769 0 1.397.159 1.885.478.495.319.843.765 1.045 1.338.82-1.211 1.888-1.816 3.203-1.816 1.029 0 1.82.286 2.373.859.554.566.83 1.442.83 2.627V225h-1.748v-6.533c0-.703-.058-1.208-.176-1.514a1.44 1.44 0 0 0-.615-.752 1.932 1.932 0 0 0-1.054-.283c-.73 0-1.335.244-1.817.732-.482.482-.723 1.257-.723 2.325V225h-1.757v-6.738c0-.782-.144-1.367-.43-1.758-.286-.391-.755-.586-1.406-.586-.495 0-.954.13-1.377.391-.417.26-.72.641-.908 1.142-.189.501-.284 1.224-.284 2.168V225h-1.757Zm16.005-5.186c0-1.92.534-3.343 1.602-4.267.892-.768 1.979-1.152 3.262-1.152 1.425 0 2.591.468 3.496 1.406.905.931 1.357 2.22 1.357 3.867 0 1.335-.202 2.386-.605 3.154a4.226 4.226 0 0 1-1.748 1.778 5.064 5.064 0 0 1-2.5.634c-1.452 0-2.627-.465-3.526-1.396-.892-.931-1.338-2.272-1.338-4.024Zm1.807 0c0 1.329.29 2.325.869 2.989.58.657 1.309.986 2.188.986.872 0 1.598-.332 2.177-.996.58-.664.87-1.676.87-3.037 0-1.283-.293-2.253-.879-2.91-.58-.664-1.302-.996-2.168-.996-.879 0-1.608.328-2.188.986-.579.657-.869 1.65-.869 2.978Zm9.961 5.186v-10.371h1.582v1.572c.404-.736.775-1.221 1.113-1.455a1.977 1.977 0 0 1 1.133-.351c.593 0 1.195.188 1.807.566l-.606 1.631c-.429-.254-.859-.381-1.289-.381a1.66 1.66 0 0 0-1.035.351c-.306.228-.524.547-.654.958a6.82 6.82 0 0 0-.293 2.05V225h-1.758Zm6.602 3.994-.196-1.65c.384.104.72.156 1.006.156.391 0 .703-.065.938-.195.234-.131.426-.313.576-.547.11-.176.289-.612.537-1.309.032-.097.085-.241.156-.429l-3.935-10.391h1.894l2.158 6.006c.28.761.531 1.562.752 2.402.202-.807.443-1.595.723-2.363l2.217-6.045h1.758l-3.946 10.547c-.423 1.139-.752 1.924-.986 2.353-.313.58-.671 1.003-1.074 1.27-.404.273-.886.41-1.446.41-.338 0-.716-.072-1.132-.215Zm19.14-3.994v-12.627h-4.717v-1.689h11.348v1.689h-4.736V225h-1.895Zm7.627-12.295v-2.021h1.758v2.021h-1.758Zm0 12.295v-10.371h1.758V225h-1.758Zm11.543-3.34 1.817.225c-.287 1.061-.818 1.885-1.592 2.47-.775.586-1.765.879-2.969.879-1.517 0-2.721-.465-3.613-1.396-.886-.938-1.328-2.249-1.328-3.936 0-1.744.449-3.099 1.347-4.062.899-.964 2.064-1.445 3.496-1.445 1.387 0 2.52.472 3.399 1.416s1.318 2.272 1.318 3.984c0 .104-.003.26-.01.469h-7.734c.065 1.139.387 2.011.967 2.617.579.605 1.302.908 2.168.908.644 0 1.194-.169 1.65-.508.456-.338.817-.879 1.084-1.621Zm-5.771-2.842h5.791c-.078-.872-.3-1.526-.664-1.963-.56-.677-1.286-1.015-2.178-1.015-.807 0-1.488.27-2.041.81-.547.541-.85 1.263-.908 2.168Zm9.785 6.182v-10.371h1.582v1.572c.403-.736.775-1.221 1.113-1.455a1.977 1.977 0 0 1 1.133-.351c.592 0 1.195.188 1.807.566l-.606 1.631c-.43-.254-.859-.381-1.289-.381a1.66 1.66 0 0 0-1.035.351c-.306.228-.524.547-.654.958a6.82 6.82 0 0 0-.293 2.05V225h-1.758ZM106.364 327l-3.799-14.316h1.944l2.177 9.384c.235.983.437 1.96.606 2.93.365-1.53.579-2.412.644-2.646l2.725-9.668h2.285l2.051 7.246c.514 1.797.885 3.486 1.113 5.068.183-.905.42-1.943.713-3.115l2.246-9.199h1.905L117.048 327h-1.826l-3.018-10.908a45.036 45.036 0 0 1-.449-1.68c-.15.658-.29 1.218-.42 1.68L108.298 327h-1.934Zm14.072 0 5.499-14.316h2.041L133.835 327h-2.158l-1.67-4.336h-5.987L122.448 327h-2.012Zm4.131-5.879h4.854l-1.494-3.965c-.456-1.204-.795-2.194-1.016-2.968a18.246 18.246 0 0 1-.771 2.734l-1.573 4.199ZM135.27 327v-14.316h1.895v12.627h7.051V327h-8.946Zm-31.406 102v-14.316h4.932c1.113 0 1.963.068 2.549.205.82.188 1.52.53 2.099 1.025.755.638 1.319 1.455 1.69 2.451.377.99.566 2.123.566 3.399 0 1.087-.127 2.05-.381 2.89-.254.84-.579 1.537-.976 2.09-.397.547-.834.98-1.309 1.299-.469.312-1.038.55-1.709.713-.664.163-1.429.244-2.295.244h-5.166Zm1.895-1.689h3.056c.944 0 1.683-.088 2.217-.264.541-.176.97-.423 1.289-.742.449-.45.798-1.052 1.045-1.807.254-.762.381-1.683.381-2.764 0-1.497-.247-2.646-.742-3.447-.488-.807-1.084-1.348-1.787-1.621-.508-.195-1.325-.293-2.451-.293h-3.008v10.938Zm12.343-10.606v-2.021h1.758v2.021h-1.758Zm0 12.295v-10.371h1.758V429h-1.758Zm3.741-3.096 1.738-.273c.098.696.368 1.23.811 1.601.449.372 1.074.557 1.875.557.807 0 1.406-.163 1.796-.488.391-.332.586-.72.586-1.162 0-.397-.172-.71-.517-.938-.241-.156-.84-.355-1.797-.596-1.289-.325-2.184-.605-2.686-.839-.494-.241-.872-.57-1.132-.987a2.66 2.66 0 0 1-.381-1.396c0-.462.104-.889.312-1.279.215-.398.505-.726.869-.987.274-.202.645-.371 1.114-.508a5.26 5.26 0 0 1 1.523-.214c.814 0 1.527.117 2.139.351.618.234 1.074.553 1.367.957.293.397.495.931.605 1.602l-1.718.234c-.079-.534-.306-.95-.684-1.25-.371-.299-.898-.449-1.582-.449-.807 0-1.383.133-1.729.4-.345.267-.517.58-.517.938a.97.97 0 0 0 .215.615c.143.189.368.345.674.469.175.065.693.215 1.552.449 1.244.332 2.11.605 2.598.82.495.209.882.515 1.162.918.28.404.42.905.42 1.504 0 .586-.173 1.139-.518 1.66-.338.515-.83.915-1.474 1.201-.645.28-1.374.42-2.188.42-1.347 0-2.376-.28-3.086-.839-.703-.56-1.152-1.39-1.347-2.491ZM132.556 429v-14.316h1.757v8.164l4.161-4.219h2.275l-3.965 3.848 4.365 6.523h-2.168l-3.427-5.303-1.241 1.192V429h-1.757Zm19.052 0v-12.627h-4.716v-1.689h11.347v1.689h-4.736V429h-1.895Zm7.627-12.295v-2.021h1.758v2.021h-1.758Zm0 12.295v-10.371h1.758V429h-1.758Zm11.543-3.34 1.817.225c-.287 1.061-.817 1.885-1.592 2.47-.775.586-1.764.879-2.969.879-1.517 0-2.721-.465-3.613-1.396-.886-.938-1.328-2.249-1.328-3.936 0-1.744.449-3.099 1.347-4.062.899-.964 2.064-1.445 3.496-1.445 1.387 0 2.52.472 3.399 1.416s1.318 2.272 1.318 3.984c0 .104-.003.26-.01.469h-7.734c.065 1.139.387 2.011.967 2.617.579.605 1.302.908 2.168.908.644 0 1.195-.169 1.65-.508.456-.338.817-.879 1.084-1.621Zm-5.771-2.842h5.791c-.078-.872-.3-1.526-.664-1.963-.56-.677-1.286-1.015-2.178-1.015-.807 0-1.488.27-2.041.81-.547.541-.85 1.263-.908 2.168Zm9.785 6.182v-10.371h1.582v1.572c.404-.736.775-1.221 1.113-1.455a1.977 1.977 0 0 1 1.133-.351c.593 0 1.195.188 1.807.566l-.606 1.631c-.429-.254-.859-.381-1.289-.381a1.66 1.66 0 0 0-1.035.351c-.306.228-.524.547-.654.958a6.82 6.82 0 0 0-.293 2.05V429h-1.758Z" fill="#2D2D2D"/><path fill-rule="evenodd" clip-rule="evenodd" d="M905.472 328.072a.999.999 0 0 1 1.3.556l17.158 42.759 2.588-6.056a1 1 0 1 1 1.839.786l-3.537 8.276a1 1 0 0 1-1.312.527l-8.276-3.537a1 1 0 1 1 .786-1.839l6.056 2.588-17.158-42.76a1 1 0 0 1 .556-1.3Zm163.488.008c.51-.217 1.1.019 1.32.527l3.53 8.278a1 1 0 0 1-1.84.785l-2.58-6.057-17.58 43.76a.999.999 0 0 1-.93.627H928.917a1 1 0 1 1 0-2H1050.2l17.33-43.132-6.06 2.585a.998.998 0 1 1-.78-1.839l8.27-3.534Z" fill="#ED1C24"/><path fill-rule="evenodd" clip-rule="evenodd" d="m736.185 448.058-9.834-11.012-9.179 11.012h-82.895c-16.569 0-30 13.432-30 30v19.198c0 16.568 13.432 30 30 30H820.45c16.569 0 30-13.432 30-30v-19.198c0-16.568-13.431-30-30-30h-84.265ZM334.035 57.383c-10.63 0-19.247 8.617-19.247 19.247 0 10.63 8.617 19.246 19.247 19.246h78.014l12.28 13.751 11.462-13.75h75.977c10.629 0 19.246-8.618 19.246-19.247 0-10.63-8.617-19.247-19.246-19.247H334.035Z" fill="#E6E6E6"/><path d="m1000.37 390.989-9.653-10.804-9.006 10.804h-64.763c-16.621 0-30.095 13.432-30.095 30v57.618c0 16.568 13.474 30 30.095 30h220.462c16.62 0 30.1-13.432 30.1-30v-57.618c0-16.568-13.48-30-30.1-30h-137.04Z" fill="#E6E6E6"/><path d="m913.784 431.189 5.498-14.316h2.041l5.86 14.316h-2.158l-1.67-4.336h-5.987l-1.572 4.336h-2.012Zm4.131-5.879h4.854l-1.494-3.965c-.456-1.204-.795-2.194-1.016-2.968-.182.917-.44 1.829-.772 2.734l-1.572 4.199Zm17.735 5.879-3.799-14.316h1.943l2.178 9.384c.234.983.436 1.96.605 2.93.365-1.53.58-2.412.645-2.646l2.724-9.668h2.286l2.05 7.246c.515 1.797.886 3.486 1.114 5.068.182-.905.42-1.943.713-3.115l2.246-9.199h1.904l-3.926 14.316h-1.826l-3.018-10.908a47.308 47.308 0 0 1-.449-1.68c-.15.658-.29 1.218-.42 1.68l-3.037 10.908h-1.933Zm14.072 0 5.498-14.316h2.041l5.859 14.316h-2.158l-1.67-4.336h-5.986l-1.572 4.336h-2.012Zm4.131-5.879h4.853l-1.494-3.965c-.456-1.204-.794-2.194-1.016-2.968a18.246 18.246 0 0 1-.771 2.734l-1.572 4.199Zm10.703 5.879v-14.316h1.894V429.5h7.051v1.689h-8.945Zm15.107-3.096 1.738-.273c.098.696.368 1.23.811 1.601.449.372 1.074.557 1.875.557.807 0 1.406-.163 1.797-.488.391-.332.586-.72.586-1.162 0-.397-.173-.71-.518-.938-.241-.156-.84-.355-1.797-.596-1.289-.325-2.184-.605-2.685-.839-.495-.241-.873-.57-1.133-.987a2.66 2.66 0 0 1-.381-1.396c0-.462.104-.889.313-1.279.215-.398.504-.726.869-.987.273-.202.644-.371 1.113-.508a5.261 5.261 0 0 1 1.524-.214c.813 0 1.526.117 2.138.351.619.234 1.074.554 1.367.957.293.397.495.931.606 1.602l-1.719.234c-.078-.534-.306-.95-.683-1.25-.372-.299-.899-.449-1.583-.449-.807 0-1.383.133-1.728.4s-.518.58-.518.938a.97.97 0 0 0 .215.615c.143.189.368.345.674.469.176.065.693.215 1.553.449 1.243.332 2.109.605 2.597.82.495.209.883.515 1.163.918.28.404.419.905.419 1.504 0 .586-.172 1.139-.517 1.66-.339.515-.83.915-1.475 1.201-.644.28-1.373.42-2.187.42-1.348 0-2.377-.28-3.086-.839-.703-.56-1.152-1.39-1.348-2.491Zm17.803-.244 1.816.225c-.286 1.061-.817 1.885-1.591 2.47-.775.586-1.765.879-2.969.879-1.517 0-2.722-.465-3.613-1.396-.886-.938-1.329-2.249-1.329-3.936 0-1.744.45-3.099 1.348-4.062.898-.964 2.064-1.445 3.496-1.445 1.387 0 2.52.472 3.399 1.416.878.944 1.318 2.272 1.318 3.984 0 .104-.003.26-.01.469h-7.734c.065 1.139.387 2.011.967 2.617.579.605 1.302.908 2.168.908.644 0 1.194-.169 1.65-.508.456-.338.817-.879 1.084-1.621Zm-5.772-2.842h5.791c-.078-.872-.299-1.526-.664-1.963-.559-.677-1.285-1.015-2.177-1.015-.808 0-1.488.27-2.041.81-.547.541-.85 1.263-.909 2.168Zm9.486 7.041 1.71.254c.07.528.27.912.59 1.153.44.325 1.03.488 1.79.488.81 0 1.44-.163 1.88-.488.45-.326.75-.782.9-1.368.09-.358.14-1.11.13-2.255-.77.905-1.73 1.357-2.87 1.357-1.43 0-2.53-.514-3.31-1.543-.78-1.029-1.17-2.262-1.17-3.701 0-.99.17-1.901.53-2.734.36-.84.88-1.488 1.56-1.944.68-.456 1.48-.683 2.4-.683 1.22 0 2.23.494 3.02 1.484v-1.25h1.63v8.965c0 1.614-.17 2.757-.5 3.428-.33.677-.85 1.21-1.56 1.601-.71.391-1.59.586-2.63.586-1.24 0-2.24-.28-3-.84-.76-.553-1.13-1.39-1.1-2.51Zm1.45-6.23c0 1.361.27 2.353.81 2.978s1.22.938 2.03.938c.81 0 1.49-.309 2.04-.928.54-.625.82-1.601.82-2.929 0-1.27-.29-2.227-.85-2.872-.56-.644-1.24-.966-2.04-.966-.78 0-1.44.319-1.99.957-.54.631-.82 1.572-.82 2.822Zm10 5.371v-10.371h1.57v1.455c.33-.508.76-.915 1.3-1.221.54-.312 1.16-.468 1.85-.468.77 0 1.4.159 1.88.478.5.319.85.765 1.05 1.338.82-1.211 1.89-1.816 3.2-1.816 1.03 0 1.82.286 2.37.859.56.566.83 1.442.83 2.627v7.119h-1.74v-6.533c0-.703-.06-1.208-.18-1.514a1.43 1.43 0 0 0-.61-.752c-.3-.189-.66-.283-1.06-.283-.73 0-1.33.244-1.82.732-.48.482-.72 1.257-.72 2.325v6.025h-1.76v-6.738c0-.782-.14-1.367-.43-1.758-.28-.391-.75-.586-1.4-.586-.5 0-.96.13-1.38.391-.42.26-.72.641-.91 1.142-.19.501-.28 1.224-.28 2.168v5.381h-1.76Zm23.76-3.34 1.82.225c-.29 1.061-.82 1.885-1.59 2.47-.78.586-1.77.879-2.97.879-1.52 0-2.72-.465-3.62-1.396-.88-.938-1.32-2.249-1.32-3.936 0-1.744.45-3.099 1.34-4.062.9-.964 2.07-1.445 3.5-1.445 1.39 0 2.52.472 3.4 1.416.88.944 1.32 2.272 1.32 3.984 0 .104-.01.26-.01.469h-7.74c.07 1.139.39 2.011.97 2.617.58.605 1.3.908 2.17.908.64 0 1.19-.169 1.65-.508.45-.338.81-.879 1.08-1.621Zm-5.77-2.842h5.79c-.08-.872-.3-1.526-.66-1.963-.56-.677-1.29-1.015-2.18-1.015-.81 0-1.49.27-2.04.81-.55.541-.85 1.263-.91 2.168Zm9.8 6.182v-10.371h1.59v1.475c.76-1.14 1.86-1.709 3.3-1.709.62 0 1.2.113 1.72.341.52.222.92.515 1.18.879.26.365.44.798.55 1.299.06.326.09.895.09 1.709v6.377h-1.76v-6.309c0-.716-.06-1.25-.2-1.601a1.68 1.68 0 0 0-.73-.85c-.35-.215-.75-.322-1.22-.322-.75 0-1.4.238-1.95.713-.54.475-.81 1.377-.81 2.705v5.664h-1.76Zm14.98-1.572.25 1.552c-.5.105-.94.157-1.33.157-.64 0-1.13-.101-1.48-.303-.35-.202-.6-.465-.75-.791-.14-.332-.21-1.025-.21-2.08v-5.967h-1.29v-1.367h1.29v-2.568l1.75-1.055v3.623h1.77v1.367h-1.77v6.065c0 .501.03.823.09.966a.71.71 0 0 0 .3.342c.14.085.34.127.6.127.2 0 .46-.023.78-.068Zm-140.18 18.324-.488-2.725v-2.343h2.002v2.343l-.44 2.725h-1.074Zm3.232 0-.478-2.725v-2.343h2.002v2.343l-.469 2.725h-1.055Zm6.67 9.248-3.945-10.371h1.855l2.227 6.211c.241.67.462 1.367.664 2.09.156-.547.374-1.205.654-1.973l2.305-6.328h1.807l-3.926 10.371h-1.641Zm13.887-1.279c-.651.553-1.279.944-1.885 1.172a5.408 5.408 0 0 1-1.933.341c-1.14 0-2.015-.276-2.627-.83-.612-.56-.918-1.272-.918-2.138 0-.508.114-.97.341-1.387.235-.423.538-.762.909-1.016.377-.254.8-.446 1.269-.576.345-.091.866-.179 1.563-.264 1.419-.169 2.464-.371 3.134-.605.007-.241.01-.394.01-.459 0-.716-.166-1.221-.498-1.514-.449-.397-1.116-.595-2.002-.595-.827 0-1.439.146-1.836.439-.39.287-.68.798-.869 1.533l-1.719-.234c.157-.736.414-1.328.772-1.777.358-.456.875-.804 1.553-1.045.677-.248 1.461-.371 2.353-.371.886 0 1.605.104 2.158.312.554.208.961.472 1.221.791.26.313.443.71.547 1.191.058.3.088.84.088 1.622v2.343c0 1.634.036 2.67.107 3.106.078.429.228.843.449 1.24h-1.836a3.734 3.734 0 0 1-.351-1.279Zm-.147-3.926c-.638.26-1.595.482-2.871.664-.722.104-1.233.221-1.533.352a1.518 1.518 0 0 0-.937 1.406c0 .469.175.859.527 1.172.358.312.879.468 1.562.468.678 0 1.28-.146 1.807-.439a2.758 2.758 0 0 0 1.162-1.221c.189-.397.283-.983.283-1.758v-.644Zm4.473 5.205v-14.316h1.758v14.316h-1.758Zm11.289 0v-1.523c-.807 1.171-1.904 1.757-3.291 1.757a4.235 4.235 0 0 1-1.719-.351c-.527-.235-.921-.528-1.181-.879-.254-.358-.433-.794-.537-1.309-.072-.345-.108-.892-.108-1.64v-6.426h1.758v5.752c0 .918.036 1.536.107 1.855.111.463.345.827.704 1.094.358.261.8.391 1.328.391.527 0 1.022-.134 1.484-.401.462-.273.788-.641.977-1.103.195-.469.293-1.146.293-2.031v-5.557h1.757v10.371h-1.572Zm11.436-3.34 1.816.225c-.286 1.061-.817 1.885-1.592 2.47-.774.586-1.764.879-2.968.879-1.517 0-2.722-.465-3.614-1.396-.885-.938-1.328-2.249-1.328-3.936 0-1.744.449-3.099 1.348-4.062.898-.964 2.064-1.445 3.496-1.445 1.387 0 2.519.472 3.398 1.416s1.319 2.272 1.319 3.984c0 .104-.004.26-.01.469h-7.734c.065 1.139.387 2.011.966 2.617.58.605 1.302.908 2.168.908.645 0 1.195-.169 1.651-.508.455-.338.817-.879 1.084-1.621Zm-5.772-2.842h5.791c-.078-.872-.299-1.526-.664-1.963-.56-.677-1.286-1.015-2.178-1.015-.807 0-1.487.27-2.041.81-.546.541-.849 1.263-.908 2.168Zm24.619-2.236h-9.453v-1.641h9.453v1.641Zm0 4.346h-9.453v-1.641h9.453v1.641Zm6.827 4.072 3.789-5.391-3.506-4.98h2.197l1.592 2.432c.299.462.54.849.722 1.162.287-.43.551-.811.791-1.143l1.749-2.451h2.102l-3.587 4.883 3.857 5.488h-2.158l-2.129-3.223-.566-.869-2.725 4.092h-2.128Zm11.256-9.248-.48-2.725v-2.343h2v2.343l-.44 2.725h-1.08Zm3.24 0-.48-2.725v-2.343h2v2.343l-.47 2.725h-1.05Zm9.36-3.047v-2.021h1.76v2.021h-1.76Zm0 12.295v-10.371h1.76v10.371h-1.76Zm3.74-3.096 1.74-.273c.1.696.37 1.23.81 1.601.45.372 1.07.557 1.88.557.8 0 1.4-.163 1.79-.488.39-.332.59-.72.59-1.162 0-.397-.17-.71-.52-.938-.24-.156-.84-.355-1.8-.596-1.29-.325-2.18-.605-2.68-.839-.5-.241-.87-.57-1.13-.987a2.614 2.614 0 0 1-.39-1.396c0-.462.11-.889.32-1.279.21-.398.5-.726.87-.987.27-.202.64-.371 1.11-.508.47-.143.98-.214 1.52-.214.82 0 1.53.117 2.14.351.62.234 1.08.554 1.37.957.29.397.49.931.6 1.602l-1.71.234c-.08-.534-.31-.95-.69-1.25-.37-.299-.9-.449-1.58-.449-.81 0-1.38.133-1.73.4-.34.267-.52.58-.52.938 0 .228.07.433.22.615.14.189.37.345.67.469.18.065.7.215 1.55.449 1.25.332 2.11.605 2.6.82.5.209.88.515 1.16.918.28.404.42.905.42 1.504 0 .586-.17 1.139-.51 1.66-.34.515-.83.915-1.48 1.201-.64.28-1.37.42-2.19.42-1.34 0-2.37-.28-3.08-.839-.7-.56-1.15-1.39-1.35-2.491Zm16.25 3.096v-10.371h1.58v1.572c.41-.735.78-1.221 1.12-1.455.34-.234.72-.351 1.13-.351.59 0 1.19.188 1.81.566l-.61 1.631c-.43-.254-.86-.381-1.29-.381-.38 0-.73.117-1.03.352-.31.227-.53.546-.66.957a7.018 7.018 0 0 0-.29 2.05v5.43h-1.76Zm13.78-3.34 1.82.225c-.29 1.061-.82 1.885-1.59 2.47-.78.586-1.77.879-2.97.879-1.52 0-2.73-.465-3.62-1.396-.88-.938-1.33-2.249-1.33-3.936 0-1.744.45-3.099 1.35-4.062.9-.964 2.07-1.445 3.5-1.445 1.39 0 2.52.472 3.4 1.416.88.944 1.32 2.272 1.32 3.984 0 .104-.01.26-.01.469h-7.74c.07 1.139.39 2.011.97 2.617.58.605 1.3.908 2.17.908.64 0 1.19-.169 1.65-.508.45-.338.81-.879 1.08-1.621Zm-5.77-2.842h5.79c-.08-.872-.3-1.526-.66-1.963-.56-.677-1.29-1.015-2.18-1.015-.81 0-1.49.27-2.04.81-.55.541-.85 1.263-.91 2.168Zm9.8 6.182v-10.371h1.58v1.455c.32-.508.75-.915 1.29-1.221a3.665 3.665 0 0 1 1.85-.468c.77 0 1.4.159 1.89.478.49.319.84.765 1.04 1.338.82-1.211 1.89-1.816 3.2-1.816 1.03 0 1.82.286 2.38.859.55.566.83 1.442.83 2.627v7.119h-1.75v-6.533c0-.703-.06-1.208-.18-1.514a1.43 1.43 0 0 0-.61-.752c-.3-.189-.65-.283-1.06-.283-.73 0-1.33.244-1.81.732-.49.482-.73 1.257-.73 2.325v6.025h-1.75v-6.738c0-.782-.15-1.367-.43-1.758-.29-.391-.76-.586-1.41-.586-.49 0-.95.13-1.38.391-.41.26-.72.641-.91 1.142-.18.501-.28 1.224-.28 2.168v5.381h-1.76Zm16.01-5.186c0-1.92.53-3.343 1.6-4.267.89-.768 1.98-1.152 3.26-1.152 1.43 0 2.59.468 3.5 1.406.9.931 1.36 2.22 1.36 3.867 0 1.335-.21 2.386-.61 3.154-.4.762-.98 1.354-1.75 1.778-.76.423-1.59.634-2.5.634-1.45 0-2.62-.465-3.52-1.396-.89-.931-1.34-2.272-1.34-4.024Zm1.81 0c0 1.329.29 2.325.87 2.989.57.657 1.3.986 2.18.986.88 0 1.6-.332 2.18-.996.58-.664.87-1.676.87-3.037 0-1.283-.29-2.253-.88-2.91-.58-.664-1.3-.996-2.17-.996-.88 0-1.61.328-2.18.986-.58.658-.87 1.65-.87 2.978Zm12.86 5.186-3.95-10.371h1.86l2.22 6.211c.25.67.47 1.367.67 2.09.15-.547.37-1.205.65-1.973l2.31-6.328h1.8l-3.92 10.371h-1.64Zm14.22-3.34 1.81.225c-.28 1.061-.81 1.885-1.59 2.47-.77.586-1.76.879-2.97.879-1.51 0-2.72-.465-3.61-1.396-.89-.938-1.33-2.249-1.33-3.936 0-1.744.45-3.099 1.35-4.062.9-.964 2.06-1.445 3.49-1.445 1.39 0 2.52.472 3.4 1.416.88.944 1.32 2.272 1.32 3.984 0 .104 0 .26-.01.469h-7.73c.06 1.139.38 2.011.96 2.617.58.605 1.31.908 2.17.908.65 0 1.2-.169 1.65-.508.46-.338.82-.879 1.09-1.621Zm-5.78-2.842h5.8c-.08-.872-.3-1.526-.67-1.963-.56-.677-1.28-1.015-2.18-1.015-.8 0-1.48.27-2.04.81-.54.541-.85 1.263-.91 2.168Zm16.54 6.182v-1.309c-.66 1.029-1.63 1.543-2.9 1.543-.83 0-1.59-.227-2.29-.683-.69-.456-1.22-1.091-1.61-1.904-.38-.821-.57-1.762-.57-2.823 0-1.035.18-1.972.52-2.812.35-.847.86-1.494 1.56-1.944a4.144 4.144 0 0 1 2.31-.673c.62 0 1.18.133 1.67.4.49.26.88.602 1.19 1.025v-5.136h1.75v14.316h-1.63Zm-5.56-5.176c0 1.328.28 2.321.84 2.979.56.657 1.22.986 1.98.986.77 0 1.42-.312 1.96-.937.54-.632.81-1.592.81-2.881 0-1.42-.28-2.461-.82-3.125-.55-.664-1.22-.996-2.02-.996-.79 0-1.44.319-1.97.957-.52.638-.78 1.644-.78 3.017Zm10.42 5.176v-2.002h2v2.002c0 .736-.13 1.328-.39 1.777-.26.456-.67.808-1.24 1.055l-.49-.752c.38-.163.65-.404.82-.723.18-.312.28-.765.3-1.357h-1ZM921.9 479.39l1.728.225c-.189 1.191-.674 2.125-1.455 2.803-.775.67-1.729 1.005-2.861 1.005-1.42 0-2.562-.462-3.428-1.386-.859-.931-1.289-2.263-1.289-3.994 0-1.12.185-2.1.556-2.94.372-.84.935-1.468 1.69-1.885a5.024 5.024 0 0 1 2.48-.634c1.127 0 2.048.286 2.764.859.716.566 1.175 1.374 1.377 2.422l-1.709.263c-.163-.696-.452-1.22-.869-1.572-.41-.351-.908-.527-1.494-.527-.886 0-1.605.319-2.158.957-.554.631-.831 1.634-.831 3.008 0 1.393.267 2.405.801 3.037.534.631 1.231.947 2.09.947.69 0 1.266-.211 1.729-.635.462-.423.755-1.074.879-1.953Zm2.578-1.387c0-1.92.534-3.343 1.601-4.267.892-.768 1.979-1.152 3.262-1.152 1.426 0 2.591.468 3.496 1.406.905.931 1.357 2.22 1.357 3.867 0 1.335-.201 2.386-.605 3.154a4.226 4.226 0 0 1-1.748 1.778 5.064 5.064 0 0 1-2.5.634c-1.452 0-2.627-.465-3.525-1.396-.892-.931-1.338-2.272-1.338-4.024Zm1.806 0c0 1.329.29 2.325.869 2.989.58.657 1.309.986 2.188.986.872 0 1.598-.332 2.178-.996.579-.664.869-1.676.869-3.037 0-1.283-.293-2.253-.879-2.91-.58-.664-1.302-.996-2.168-.996-.879 0-1.608.328-2.188.986-.579.658-.869 1.65-.869 2.978Zm9.981 5.186v-10.371h1.572v1.455a3.653 3.653 0 0 1 1.299-1.221c.54-.312 1.155-.468 1.846-.468.768 0 1.396.159 1.884.478.495.319.843.765 1.045 1.338.821-1.211 1.888-1.816 3.203-1.816 1.029 0 1.82.286 2.373.859.554.566.831 1.442.831 2.627v7.119h-1.749v-6.533c0-.703-.058-1.208-.175-1.514a1.447 1.447 0 0 0-.616-.752 1.932 1.932 0 0 0-1.054-.283c-.729 0-1.335.244-1.817.732-.481.482-.722 1.257-.722 2.325v6.025h-1.758v-6.738c0-.782-.143-1.367-.43-1.758-.286-.391-.755-.586-1.406-.586-.495 0-.954.13-1.377.391-.417.26-.719.641-.908 1.142-.189.501-.283 1.224-.283 2.168v5.381h-1.758Zm16.66 3.975v-14.346h1.601v1.348c.378-.528.805-.922 1.28-1.182.475-.267 1.051-.4 1.728-.4.886 0 1.667.227 2.344.683.677.456 1.188 1.1 1.533 1.934.345.827.518 1.735.518 2.724 0 1.062-.192 2.019-.576 2.871-.378.847-.931 1.498-1.66 1.954-.723.449-1.485.673-2.286.673a3.33 3.33 0 0 1-1.582-.371 3.604 3.604 0 0 1-1.142-.937v5.049h-1.758Zm1.592-9.102c0 1.335.27 2.321.81 2.959.541.638 1.195.957 1.963.957.781 0 1.449-.329 2.002-.986.56-.664.84-1.69.84-3.076 0-1.322-.273-2.312-.82-2.969-.541-.658-1.189-.986-1.944-.986-.748 0-1.412.351-1.992 1.054-.573.697-.859 1.712-.859 3.047Zm9.521 5.127v-10.371h1.582v1.572c.404-.735.775-1.221 1.114-1.455a1.974 1.974 0 0 1 1.132-.351c.593 0 1.195.188 1.807.566l-.605 1.631c-.43-.254-.86-.381-1.29-.381-.384 0-.729.117-1.035.352-.306.227-.524.546-.654.957a6.853 6.853 0 0 0-.293 2.05v5.43h-1.758Zm13.78-3.34 1.816.225c-.287 1.061-.817 1.885-1.592 2.47-.775.586-1.764.879-2.969.879-1.517 0-2.721-.465-3.613-1.396-.885-.938-1.328-2.249-1.328-3.936 0-1.744.449-3.099 1.348-4.062.898-.964 2.063-1.445 3.496-1.445 1.386 0 2.519.472 3.398 1.416s1.319 2.272 1.319 3.984c0 .104-.004.26-.01.469h-7.735c.065 1.139.388 2.011.967 2.617.58.605 1.302.908 2.168.908.645 0 1.195-.169 1.651-.508.455-.338.817-.879 1.084-1.621Zm-5.772-2.842h5.791c-.078-.872-.299-1.526-.664-1.963-.56-.677-1.286-1.015-2.178-1.015-.807 0-1.487.27-2.041.81-.547.541-.849 1.263-.908 2.168Zm9.102 3.086 1.738-.273c.098.696.368 1.23.81 1.601.45.372 1.075.557 1.875.557.808 0 1.407-.163 1.797-.488.391-.332.586-.72.586-1.162 0-.397-.172-.71-.517-.938-.241-.156-.84-.355-1.797-.596-1.289-.325-2.184-.605-2.686-.839-.495-.241-.872-.57-1.133-.987a2.669 2.669 0 0 1-.38-1.396c0-.462.104-.889.312-1.279.215-.398.505-.726.869-.987.274-.202.645-.371 1.113-.508a5.271 5.271 0 0 1 1.524-.214c.814 0 1.527.117 2.139.351.618.234 1.074.554 1.367.957.293.397.495.931.605 1.602l-1.719.234c-.078-.534-.306-.95-.683-1.25-.371-.299-.899-.449-1.582-.449-.807 0-1.384.133-1.729.4-.345.267-.517.58-.517.938 0 .228.071.433.215.615.143.189.367.345.673.469.176.065.694.215 1.553.449 1.244.332 2.11.605 2.598.82.495.209.882.515 1.162.918.28.404.42.905.42 1.504 0 .586-.173 1.139-.518 1.66-.338.515-.83.915-1.474 1.201-.645.28-1.374.42-2.188.42-1.347 0-2.376-.28-3.086-.839-.703-.56-1.152-1.39-1.347-2.491Zm10 0 1.738-.273c.098.696.368 1.23.81 1.601.45.372 1.075.557 1.875.557.808 0 1.407-.163 1.797-.488.391-.332.586-.72.586-1.162 0-.397-.172-.71-.517-.938-.241-.156-.84-.355-1.797-.596-1.289-.325-2.184-.605-2.686-.839-.495-.241-.872-.57-1.133-.987a2.669 2.669 0 0 1-.38-1.396c0-.462.104-.889.312-1.279.215-.398.505-.726.869-.987.274-.202.645-.371 1.113-.508a5.271 5.271 0 0 1 1.524-.214c.814 0 1.527.117 2.139.351.618.234 1.074.554 1.367.957.293.397.495.931.605 1.602l-1.719.234c-.078-.534-.306-.95-.683-1.25-.371-.299-.899-.449-1.582-.449-.807 0-1.384.133-1.729.4-.345.267-.517.58-.517.938 0 .228.071.433.215.615.143.189.367.345.673.469.176.065.694.215 1.553.449 1.244.332 2.11.605 2.598.82.495.209.882.515 1.162.918.28.404.42.905.42 1.504 0 .586-.173 1.139-.518 1.66-.338.515-.83.915-1.474 1.201-.645.28-1.374.42-2.188.42-1.347 0-2.376-.28-3.086-.839-.703-.56-1.152-1.39-1.347-2.491Zm17.802-.244 1.82.225c-.29 1.061-.82 1.885-1.6 2.47-.77.586-1.76.879-2.96.879-1.52 0-2.73-.465-3.62-1.396-.88-.938-1.33-2.249-1.33-3.936 0-1.744.45-3.099 1.35-4.062.9-.964 2.07-1.445 3.5-1.445 1.39 0 2.52.472 3.4 1.416.88.944 1.32 2.272 1.32 3.984 0 .104-.01.26-.01.469h-7.74c.07 1.139.39 2.011.97 2.617.58.605 1.3.908 2.17.908.64 0 1.19-.169 1.65-.508.45-.338.81-.879 1.08-1.621Zm-5.77-2.842h5.79c-.08-.872-.3-1.526-.66-1.963-.56-.677-1.29-1.015-2.18-1.015-.81 0-1.49.27-2.04.81-.55.541-.85 1.263-.91 2.168Zm16.53 6.182v-1.309c-.66 1.029-1.62 1.543-2.9 1.543-.83 0-1.59-.227-2.28-.683-.69-.456-1.23-1.091-1.61-1.904-.38-.821-.57-1.762-.57-2.823 0-1.035.17-1.972.52-2.812.34-.847.86-1.494 1.55-1.944a4.144 4.144 0 0 1 2.31-.673c.63 0 1.19.133 1.67.4.49.26.89.602 1.19 1.025v-5.136h1.75v14.316h-1.63Zm-5.55-5.176c0 1.328.28 2.321.84 2.979.56.657 1.22.986 1.98.986.77 0 1.42-.312 1.95-.937.54-.632.81-1.592.81-2.881 0-1.42-.27-2.461-.82-3.125-.55-.664-1.22-.996-2.02-.996-.78 0-1.44.319-1.96.957-.52.638-.78 1.644-.78 3.017Zm10.42 5.176v-2.002h2v2.002c0 .736-.13 1.328-.39 1.777-.26.456-.68.808-1.24 1.055l-.49-.752c.37-.163.64-.404.82-.723.17-.312.27-.765.29-1.357h-.99Zm10.01-5.186c0-1.92.54-3.343 1.61-4.267.89-.768 1.98-1.152 3.26-1.152 1.42 0 2.59.468 3.49 1.406.91.931 1.36 2.22 1.36 3.867 0 1.335-.2 2.386-.6 3.154-.4.762-.98 1.354-1.75 1.778-.76.423-1.6.634-2.5.634-1.45 0-2.63-.465-3.53-1.396-.89-.931-1.34-2.272-1.34-4.024Zm1.81 0c0 1.329.29 2.325.87 2.989.58.657 1.31.986 2.19.986.87 0 1.6-.332 2.18-.996.58-.664.87-1.676.87-3.037 0-1.283-.3-2.253-.88-2.91-.58-.664-1.31-.996-2.17-.996-.88 0-1.61.328-2.19.986-.58.658-.87 1.65-.87 2.978Zm9.96 5.186v-10.371h1.58v1.572c.41-.735.78-1.221 1.12-1.455.34-.234.72-.351 1.13-.351.59 0 1.2.188 1.81.566l-.61 1.631c-.43-.254-.86-.381-1.29-.381-.38 0-.73.117-1.03.352-.31.227-.53.546-.66.957a7.018 7.018 0 0 0-.29 2.05v5.43h-1.76Zm19.02-1.279c-.65.553-1.28.944-1.89 1.172-.6.227-1.24.341-1.93.341-1.14 0-2.02-.276-2.63-.83-.61-.56-.92-1.272-.92-2.138 0-.508.12-.97.34-1.387.24-.423.54-.762.91-1.016.38-.254.8-.446 1.27-.576.35-.091.87-.179 1.56-.264 1.42-.169 2.47-.371 3.14-.605.01-.241.01-.394.01-.459 0-.716-.17-1.221-.5-1.514-.45-.397-1.12-.595-2-.595-.83 0-1.44.146-1.84.439-.39.287-.68.798-.87 1.533l-1.71-.234c.15-.736.41-1.328.77-1.777.36-.456.87-.804 1.55-1.045.68-.248 1.46-.371 2.35-.371.89 0 1.61.104 2.16.312.55.208.96.472 1.22.791.26.313.44.71.55 1.191.06.3.09.84.09 1.622v2.343c0 1.634.03 2.67.1 3.106.08.429.23.843.45 1.24h-1.83c-.18-.365-.3-.791-.35-1.279Zm-.15-3.926c-.64.26-1.6.482-2.87.664-.72.104-1.24.221-1.53.352-.3.13-.54.322-.7.576-.16.247-.24.524-.24.83 0 .469.17.859.53 1.172.35.312.87.468 1.56.468.67 0 1.28-.146 1.8-.439.53-.299.92-.706 1.17-1.221.19-.397.28-.983.28-1.758v-.644Zm4.49 5.205v-10.371h1.58v1.572c.41-.735.78-1.221 1.12-1.455.34-.234.72-.351 1.13-.351.59 0 1.19.188 1.81.566l-.61 1.631c-.43-.254-.86-.381-1.29-.381-.38 0-.73.117-1.03.352-.31.227-.53.546-.66.957a7.018 7.018 0 0 0-.29 2.05v5.43h-1.76Zm13.45-3.799 1.73.225c-.19 1.191-.68 2.125-1.46 2.803-.77.67-1.73 1.005-2.86 1.005-1.42 0-2.56-.462-3.43-1.386-.86-.931-1.29-2.263-1.29-3.994 0-1.12.19-2.1.56-2.94.37-.84.94-1.468 1.69-1.885a5.024 5.024 0 0 1 2.48-.634c1.13 0 2.05.286 2.76.859.72.566 1.18 1.374 1.38 2.422l-1.71.263c-.16-.696-.45-1.22-.87-1.572-.41-.351-.9-.527-1.49-.527-.89 0-1.61.319-2.16.957-.55.631-.83 1.634-.83 3.008 0 1.393.27 2.405.8 3.037.54.631 1.23.947 2.09.947.69 0 1.27-.211 1.73-.635.46-.423.76-1.074.88-1.953Zm3.23 3.799v-14.316h1.76v5.136c.82-.95 1.85-1.425 3.1-1.425.77 0 1.44.153 2.01.459.56.299.97.716 1.21 1.25.25.533.37 1.308.37 2.324v6.572h-1.76v-6.572c0-.879-.19-1.517-.58-1.914-.37-.404-.91-.606-1.61-.606-.52 0-1.01.137-1.47.41-.46.267-.78.632-.98 1.094-.19.462-.29 1.1-.29 1.914v5.674h-1.76Zm11.14-12.295v-2.021h1.76v2.021h-1.76Zm0 12.295v-10.371h1.76v10.371h-1.76Zm7.33 0-3.95-10.371h1.86l2.23 6.211c.24.67.46 1.367.66 2.09.16-.547.37-1.205.65-1.973l2.31-6.328h1.8l-3.92 10.371h-1.64Zm14.22-3.34 1.81.225c-.28 1.061-.81 1.885-1.59 2.47-.77.586-1.76.879-2.97.879-1.51 0-2.72-.465-3.61-1.396-.89-.938-1.33-2.249-1.33-3.936 0-1.744.45-3.099 1.35-4.062.9-.964 2.06-1.445 3.5-1.445 1.38 0 2.51.472 3.39 1.416.88.944 1.32 2.272 1.32 3.984 0 .104 0 .26-.01.469h-7.73c.06 1.139.39 2.011.96 2.617.58.605 1.31.908 2.17.908.65 0 1.2-.169 1.65-.508.46-.338.82-.879 1.09-1.621Zm-5.77-2.842h5.79c-.08-.872-.3-1.526-.67-1.963-.56-.677-1.28-1.015-2.18-1.015-.8 0-1.48.27-2.04.81-.54.541-.85 1.263-.9 2.168Zm16.53 6.182v-1.309c-.66 1.029-1.63 1.543-2.9 1.543-.83 0-1.59-.227-2.29-.683-.69-.456-1.22-1.091-1.61-1.904-.38-.821-.56-1.762-.56-2.823 0-1.035.17-1.972.51-2.812.35-.847.87-1.494 1.56-1.944a4.144 4.144 0 0 1 2.31-.673c.63 0 1.18.133 1.67.4.49.26.89.602 1.19 1.025v-5.136h1.75v14.316h-1.63Zm-5.56-5.176c0 1.328.28 2.321.84 2.979.56.657 1.22.986 1.98.986.77 0 1.42-.312 1.96-.937.54-.632.81-1.592.81-2.881 0-1.42-.28-2.461-.82-3.125-.55-.664-1.22-.996-2.02-.996-.78 0-1.44.319-1.97.957-.52.638-.78 1.644-.78 3.017Zm-486.641-4.559-.517-2.666v-2.422h2.988v2.422l-.449 2.666h-2.022Zm4.405 0-.518-2.666v-2.422h2.988v2.422l-.449 2.666h-2.021Zm7.763 9.229-4.179-10.371h2.881l1.953 5.292.566 1.768c.15-.449.244-.745.283-.889.091-.293.189-.586.293-.879l1.973-5.292h2.822l-4.121 10.371h-2.471Zm10.332-7.207-2.49-.45c.28-1.002.762-1.744 1.445-2.226.684-.482 1.7-.723 3.047-.723 1.224 0 2.136.147 2.735.44.599.286 1.019.654 1.26 1.103.247.443.371 1.26.371 2.451l-.03 3.203c0 .912.043 1.586.127 2.022.091.43.257.892.498 1.387h-2.715a10.47 10.47 0 0 1-.263-.811 4.748 4.748 0 0 0-.098-.322c-.469.456-.97.797-1.504 1.025a4.304 4.304 0 0 1-1.709.342c-1.067 0-1.911-.29-2.529-.869-.612-.58-.918-1.312-.918-2.197 0-.586.14-1.107.42-1.563.28-.462.67-.814 1.172-1.055.508-.247 1.237-.462 2.187-.644 1.283-.241 2.171-.466 2.666-.674v-.273c0-.528-.13-.902-.39-1.123-.261-.228-.752-.342-1.475-.342-.488 0-.869.097-1.143.293-.273.189-.494.524-.664 1.006Zm3.672 2.226c-.351.117-.908.257-1.67.42-.761.163-1.259.322-1.494.479-.358.253-.537.576-.537.966 0 .384.143.717.43.996.286.28.651.42 1.094.42.494 0 .966-.162 1.416-.488.332-.247.55-.55.654-.908.071-.234.107-.68.107-1.338v-.547Zm5.41 4.981v-14.317h2.745v14.317h-2.745Zm12.393 0v-1.553a3.996 3.996 0 0 1-1.494 1.308 4.147 4.147 0 0 1-1.943.479c-.697 0-1.322-.153-1.875-.459a2.713 2.713 0 0 1-1.202-1.289c-.247-.553-.371-1.318-.371-2.295v-6.562h2.744v4.765c0 1.458.049 2.354.147 2.686.104.325.29.586.557.781.266.189.605.283 1.015.283.469 0 .889-.127 1.26-.381.371-.26.625-.579.762-.957.136-.384.205-1.318.205-2.802v-4.375h2.744v10.371h-2.549Zm11.406-3.301 2.735.459c-.352 1.002-.909 1.767-1.67 2.295-.755.521-1.703.781-2.842.781-1.803 0-3.138-.589-4.004-1.768-.684-.944-1.025-2.135-1.025-3.574 0-1.719.449-3.063 1.347-4.033.899-.977 2.035-1.465 3.408-1.465 1.543 0 2.761.511 3.653 1.533.892 1.016 1.318 2.575 1.279 4.678h-6.875c.02.814.241 1.449.664 1.904.423.45.951.674 1.582.674.43 0 .791-.117 1.084-.351.293-.235.515-.612.664-1.133Zm.157-2.774c-.02-.794-.225-1.396-.616-1.806a1.879 1.879 0 0 0-1.425-.625c-.599 0-1.094.218-1.485.654-.39.436-.583 1.029-.576 1.777h4.102Zm9.931-1.894v-2.52h10.01v2.52h-10.01Zm0 4.336v-2.529h10.01v2.529h-10.01Zm16.533 3.633 3.741-5.342-3.584-5.029h3.349l1.836 2.851 1.934-2.851h3.222l-3.515 4.912 3.838 5.459h-3.369l-2.11-3.213-2.129 3.213h-3.213Zm12.627-9.229-.517-2.666v-2.422h2.988v2.422l-.449 2.666h-2.022Zm4.405 0-.518-2.666v-2.422h2.988v2.422l-.449 2.666h-2.021Zm-88.887 32.209 1.894.479c-.397 1.556-1.113 2.744-2.148 3.564-1.029.814-2.288 1.221-3.779 1.221-1.543 0-2.8-.313-3.77-.938-.963-.631-1.699-1.543-2.207-2.734a9.803 9.803 0 0 1-.752-3.838c0-1.491.283-2.79.85-3.896.573-1.114 1.383-1.957 2.431-2.53 1.055-.579 2.214-.869 3.477-.869 1.432 0 2.637.365 3.613 1.094.977.729 1.657 1.754 2.041 3.076l-1.865.439c-.332-1.041-.814-1.8-1.445-2.275-.632-.475-1.426-.713-2.383-.713-1.1 0-2.022.264-2.764.791-.735.528-1.253 1.237-1.552 2.129-.3.886-.45 1.8-.45 2.744 0 1.218.176 2.282.528 3.194.358.905.911 1.582 1.66 2.031a4.644 4.644 0 0 0 2.431.674c1.062 0 1.96-.306 2.696-.918.735-.612 1.233-1.52 1.494-2.725Zm4.014 5.02v-14.317h1.757v5.137c.821-.951 1.856-1.426 3.106-1.426.768 0 1.435.153 2.002.459.566.3.97.716 1.211 1.25.247.534.371 1.309.371 2.324v6.573h-1.758v-6.573c0-.879-.192-1.517-.576-1.914-.378-.403-.915-.605-1.611-.605-.521 0-1.013.137-1.475.41a2.27 2.27 0 0 0-.977 1.094c-.195.462-.293 1.1-.293 1.914v5.674h-1.757Zm18.232-3.34 1.816.224c-.286 1.062-.817 1.885-1.591 2.471-.775.586-1.765.879-2.969.879-1.517 0-2.722-.466-3.613-1.396-.886-.938-1.329-2.25-1.329-3.936 0-1.745.45-3.099 1.348-4.063.899-.963 2.064-1.445 3.496-1.445 1.387 0 2.52.472 3.399 1.416s1.318 2.272 1.318 3.985c0 .104-.003.26-.01.468h-7.734c.065 1.14.387 2.012.967 2.617.579.606 1.302.909 2.168.909.644 0 1.194-.17 1.65-.508.456-.339.817-.879 1.084-1.621Zm-5.771-2.842h5.791c-.079-.872-.3-1.527-.665-1.963-.559-.677-1.285-1.016-2.177-1.016-.808 0-1.488.271-2.041.811-.547.54-.85 1.263-.908 2.168Zm16.572 2.383 1.728.224c-.189 1.192-.674 2.126-1.455 2.803-.775.671-1.728 1.006-2.861 1.006-1.419 0-2.562-.462-3.428-1.387-.859-.931-1.289-2.262-1.289-3.994 0-1.12.186-2.099.557-2.939.371-.84.934-1.468 1.689-1.885a5.029 5.029 0 0 1 2.481-.635c1.126 0 2.047.287 2.763.86.716.566 1.175 1.373 1.377 2.421l-1.709.264c-.162-.697-.452-1.221-.869-1.572-.41-.352-.908-.528-1.494-.528-.885 0-1.605.319-2.158.957-.554.632-.83 1.635-.83 3.008 0 1.394.267 2.406.801 3.037.533.632 1.23.948 2.089.948.69 0 1.267-.212 1.729-.635.462-.423.755-1.074.879-1.953Zm3.242 3.799v-14.317h1.758v8.164l4.16-4.218h2.275l-3.965 3.847 4.366 6.524h-2.168l-3.428-5.303-1.24 1.191v4.112h-1.758Zm9.99 3.974v-14.345h1.602v1.347c.377-.527.804-.921 1.279-1.181.475-.267 1.051-.401 1.729-.401.885 0 1.666.228 2.343.684.677.455 1.188 1.1 1.534 1.933.345.827.517 1.735.517 2.725 0 1.061-.192 2.018-.576 2.871-.378.846-.931 1.497-1.66 1.953-.723.449-1.485.674-2.285.674a3.339 3.339 0 0 1-1.582-.371 3.586 3.586 0 0 1-1.143-.938v5.049h-1.758Zm1.592-9.101c0 1.334.27 2.321.811 2.959.54.638 1.194.957 1.962.957.782 0 1.449-.329 2.002-.987.56-.664.84-1.689.84-3.076 0-1.321-.273-2.311-.82-2.969-.54-.657-1.188-.986-1.943-.986-.749 0-1.413.352-1.993 1.055-.573.696-.859 1.712-.859 3.047Zm8.887-.059c0-1.921.534-3.343 1.601-4.268.892-.768 1.979-1.152 3.262-1.152 1.426 0 2.591.469 3.496 1.406.905.931 1.358 2.22 1.358 3.868 0 1.334-.202 2.386-.606 3.154a4.218 4.218 0 0 1-1.748 1.777 5.065 5.065 0 0 1-2.5.635c-1.452 0-2.627-.466-3.525-1.396-.892-.931-1.338-2.273-1.338-4.024Zm1.806 0c0 1.328.29 2.324.869 2.988.58.658 1.309.987 2.188.987.872 0 1.598-.332 2.178-.996.579-.664.869-1.677.869-3.038 0-1.282-.293-2.252-.879-2.91-.579-.664-1.302-.996-2.168-.996-.879 0-1.608.329-2.188.987-.579.657-.869 1.65-.869 2.978Zm9.991-7.109v-2.022h1.757v2.022h-1.757Zm0 12.295v-10.371h1.757v10.371h-1.757Zm4.443 0v-10.371h1.582v1.474c.762-1.139 1.862-1.709 3.301-1.709.625 0 1.198.114 1.719.342.527.221.921.514 1.181.879.261.364.443.797.547 1.299.065.325.098.895.098 1.709v6.377h-1.758v-6.309c0-.716-.068-1.25-.205-1.602a1.657 1.657 0 0 0-.733-.849c-.345-.215-.752-.322-1.22-.322-.749 0-1.397.237-1.944.712-.54.476-.81 1.377-.81 2.706v5.664h-1.758Zm14.971-1.573.254 1.553a6.537 6.537 0 0 1-1.329.156c-.638 0-1.132-.101-1.484-.302-.352-.202-.599-.466-.742-.791-.143-.332-.215-1.026-.215-2.08v-5.967h-1.289v-1.367h1.289v-2.569l1.748-1.055v3.624h1.768v1.367h-1.768v6.064c0 .501.029.824.088.967a.77.77 0 0 0 .303.342c.143.084.345.127.605.127.195 0 .453-.023.772-.069Zm8.828-1.767 1.816.224c-.286 1.062-.817 1.885-1.592 2.471-.774.586-1.764.879-2.968.879-1.517 0-2.722-.466-3.614-1.396-.885-.938-1.328-2.25-1.328-3.936 0-1.745.449-3.099 1.348-4.063.898-.963 2.064-1.445 3.496-1.445 1.387 0 2.52.472 3.398 1.416.879.944 1.319 2.272 1.319 3.985 0 .104-.003.26-.01.468h-7.734c.065 1.14.387 2.012.966 2.617.58.606 1.303.909 2.168.909.645 0 1.195-.17 1.651-.508.456-.339.817-.879 1.084-1.621Zm-5.772-2.842h5.791c-.078-.872-.299-1.527-.664-1.963-.56-.677-1.286-1.016-2.177-1.016-.808 0-1.488.271-2.042.811-.546.54-.849 1.263-.908 2.168Zm16.533 6.182v-1.309c-.657 1.029-1.624 1.543-2.9 1.543a4.089 4.089 0 0 1-2.285-.684c-.69-.455-1.227-1.09-1.611-1.904-.378-.82-.567-1.761-.567-2.822 0-1.035.173-1.973.518-2.813.345-.846.862-1.494 1.553-1.943a4.151 4.151 0 0 1 2.314-.674c.625 0 1.182.134 1.67.401.488.26.885.602 1.191 1.025v-5.137h1.748v14.317h-1.631Zm-5.556-5.176c0 1.328.28 2.321.84 2.978.56.658 1.22.987 1.982.987.768 0 1.419-.313 1.953-.938.541-.631.811-1.592.811-2.881 0-1.419-.274-2.461-.821-3.125-.546-.664-1.22-.996-2.021-.996-.781 0-1.436.319-1.963.957-.521.638-.781 1.644-.781 3.018Zm19.365 3.603.254 1.553a6.536 6.536 0 0 1-1.328.156c-.638 0-1.133-.101-1.485-.302-.351-.202-.598-.466-.742-.791-.143-.332-.215-1.026-.215-2.08v-5.967h-1.289v-1.367h1.289v-2.569l1.749-1.055v3.624h1.767v1.367h-1.767v6.064c0 .501.029.824.087.967a.777.777 0 0 0 .303.342c.143.084.345.127.606.127.195 0 .452-.023.771-.069Zm1.074-3.613c0-1.921.534-3.343 1.602-4.268.892-.768 1.979-1.152 3.262-1.152 1.425 0 2.591.469 3.496 1.406.905.931 1.357 2.22 1.357 3.868 0 1.334-.202 2.386-.605 3.154a4.224 4.224 0 0 1-1.748 1.777 5.065 5.065 0 0 1-2.5.635c-1.452 0-2.627-.466-3.526-1.396-.892-.931-1.338-2.273-1.338-4.024Zm1.807 0c0 1.328.29 2.324.869 2.988.58.658 1.309.987 2.188.987.872 0 1.598-.332 2.177-.996.58-.664.869-1.677.869-3.038 0-1.282-.293-2.252-.878-2.91-.58-.664-1.303-.996-2.168-.996-.879 0-1.608.329-2.188.987-.579.657-.869 1.65-.869 2.978Zm22.275 5.186v-1.309c-.657 1.029-1.624 1.543-2.9 1.543a4.086 4.086 0 0 1-2.285-.684c-.69-.455-1.227-1.09-1.612-1.904-.377-.82-.566-1.761-.566-2.822 0-1.035.173-1.973.518-2.813.345-.846.862-1.494 1.552-1.943a4.154 4.154 0 0 1 2.315-.674c.625 0 1.181.134 1.67.401.488.26.885.602 1.191 1.025v-5.137h1.748v14.317h-1.631Zm-5.556-5.176c0 1.328.28 2.321.84 2.978.559.658 1.22.987 1.982.987.768 0 1.419-.313 1.953-.938.54-.631.811-1.592.811-2.881 0-1.419-.274-2.461-.821-3.125-.547-.664-1.22-.996-2.021-.996-.781 0-1.436.319-1.963.957-.521.638-.781 1.644-.781 3.018Zm9.97-7.119v-2.022h1.758v2.022h-1.758Zm0 12.295v-10.371h1.758v10.371h-1.758Zm3.741-3.096 1.738-.274c.098.697.368 1.231.81 1.602.45.371 1.075.557 1.875.557.808 0 1.407-.163 1.797-.489.391-.332.586-.719.586-1.162 0-.397-.172-.709-.517-.937-.241-.156-.84-.355-1.797-.596-1.289-.325-2.184-.605-2.686-.84-.495-.241-.872-.569-1.133-.986a2.672 2.672 0 0 1-.38-1.397c0-.462.104-.888.312-1.279.215-.397.505-.726.869-.986.274-.202.645-.371 1.114-.508a5.26 5.26 0 0 1 1.523-.215c.814 0 1.527.117 2.139.352.618.234 1.074.553 1.367.957.293.397.495.931.605 1.601l-1.718.235c-.079-.534-.306-.951-.684-1.25-.371-.3-.898-.45-1.582-.45-.807 0-1.384.134-1.729.401-.345.267-.517.579-.517.937a.97.97 0 0 0 .215.616c.143.188.368.345.673.468.176.065.694.215 1.553.45 1.244.332 2.11.605 2.598.82.495.208.882.514 1.162.918.28.403.42.905.42 1.504 0 .586-.173 1.139-.518 1.66-.338.514-.83.915-1.474 1.201-.645.28-1.374.42-2.188.42-1.347 0-2.376-.28-3.086-.84-.703-.56-1.152-1.39-1.347-2.49Zm10.713 3.096v-14.317h1.757v8.164l4.16-4.218h2.276l-3.965 3.847 4.365 6.524h-2.168l-3.427-5.303-1.241 1.191v4.112h-1.757Z" fill="#2D2D2D"/><path d="M686.154 423H764.4v10h-78.246v-10ZM397.247 321h66.208v10h-66.208v-10Zm-38.119-104h139.437v10H359.128v-10Z" fill="#F6F6F6"/><path fill-rule="evenodd" clip-rule="evenodd" d="M828.19 226.088a1 1 0 0 1 1.323.501l3.701 8.204a1 1 0 1 1-1.823.822l-2.708-6.003-74.794 197.742a1 1 0 0 1-.935.646h-56.768a1 1 0 0 1 0-2h56.077l74.549-197.096-6.003 2.709a1 1 0 1 1-.822-1.824l8.203-3.701Zm-208.585-.028a1 1 0 0 1 1.281.599l71.404 196.73 2.788-5.966a1 1 0 0 1 1.812.847l-3.811 8.153a1 1 0 0 1-1.329.483l-8.154-3.811a1 1 0 0 1 .847-1.812l5.967 2.789-71.404-196.731a1 1 0 0 1 .599-1.281Zm-250.818 1.012a.999.999 0 0 1 1.3.556l37.221 92.759 2.587-6.056a1 1 0 0 1 1.84.786l-3.537 8.276a1 1 0 0 1-1.312.527l-8.276-3.537a1 1 0 1 1 .786-1.839l6.056 2.588-37.221-92.76a1 1 0 0 1 .556-1.3Zm120.337-.983a1 1 0 0 1 1.324.498l3.714 8.198a1 1 0 1 1-1.821.825l-2.718-5.998-36.031 95.74a1 1 0 0 1-.936.648h-42.368a1 1 0 0 1 0-2h41.676l35.787-95.093-5.999 2.718a1 1 0 1 1-.825-1.821l8.197-3.715Zm39.134-103.005a1 1 0 0 1 1.318.514l3.617 8.241a1 1 0 1 1-1.831.804l-2.647-6.03-36.938 94.75c-.15.384-.52.637-.932.637H369.159a1 1 0 0 1 0-2h121.003l36.689-94.114-6.03 2.647a1 1 0 1 1-.804-1.831l8.241-3.618Zm-197.569.979a1 1 0 0 1 1.287.587l34.266 91.738 2.733-5.991a.999.999 0 1 1 1.819.83l-3.735 8.188a1 1 0 0 1-1.324.495l-8.189-3.735a1 1 0 0 1 .83-1.82l5.992 2.733-34.265-91.738a1 1 0 0 1 .586-1.287Z" fill="#ED1C24"/><path d="m359.29 74.4-2.539 4.405 2.539 4.511h-2.158l-3.086-4.511 3.086-4.405h2.158Zm3.828 0-2.529 4.405 2.529 4.511h-2.158l-3.086-4.511 3.086-4.405h2.158Zm1.592 6.641 2.754-.42c.117.534.355.94.713 1.22.358.274.859.411 1.504.411.71 0 1.243-.13 1.602-.39a.874.874 0 0 0 .361-.733.721.721 0 0 0-.195-.518c-.137-.13-.443-.25-.918-.361-2.214-.488-3.617-.934-4.209-1.338-.821-.56-1.231-1.338-1.231-2.334 0-.898.355-1.654 1.065-2.266.709-.611 1.809-.918 3.3-.918 1.42 0 2.474.232 3.164.694.69.462 1.166 1.146 1.426 2.05l-2.588.48c-.11-.404-.322-.714-.634-.928-.306-.215-.746-.323-1.319-.323-.722 0-1.24.101-1.553.303-.208.143-.312.329-.312.557 0 .195.091.36.273.498.248.182 1.101.44 2.559.771 1.465.332 2.487.739 3.066 1.22.573.49.86 1.17.86 2.042 0 .95-.397 1.767-1.192 2.451-.794.684-1.969 1.025-3.525 1.025-1.413 0-2.533-.286-3.359-.859a3.964 3.964 0 0 1-1.612-2.334Zm18.106-.341 2.734.458c-.351 1.003-.908 1.768-1.67 2.295-.755.521-1.702.781-2.842.781-1.803 0-3.138-.589-4.004-1.767-.683-.944-1.025-2.136-1.025-3.574 0-1.72.449-3.064 1.348-4.034.898-.976 2.034-1.465 3.408-1.465 1.543 0 2.76.512 3.652 1.534.892 1.015 1.319 2.575 1.28 4.678h-6.875c.019.813.24 1.448.664 1.904.423.449.95.674 1.582.674.429 0 .791-.118 1.084-.352.293-.234.514-.612.664-1.133Zm.156-2.774c-.02-.794-.225-1.397-.615-1.807a1.882 1.882 0 0 0-1.426-.625c-.599 0-1.094.218-1.484.654-.391.437-.583 1.03-.577 1.778h4.102Zm9.727-4.297v2.187h-1.875v4.18c0 .846.016 1.341.048 1.485.039.136.121.25.244.341a.8.8 0 0 0 .469.137c.254 0 .622-.088 1.104-.264l.234 2.13c-.638.273-1.361.41-2.168.41-.495 0-.941-.082-1.338-.245-.397-.169-.69-.384-.879-.644-.182-.267-.309-.625-.38-1.075-.059-.319-.088-.963-.088-1.933v-4.522h-1.26V73.63h1.26v-2.06l2.754-1.602v3.662h1.875ZM403.021 84l-4.18-10.371h2.881l1.953 5.293.566 1.767c.15-.449.245-.745.284-.888.091-.293.188-.586.293-.88l1.972-5.292h2.823L405.491 84h-2.47Zm10.332-7.207-2.49-.45c.28-1.002.761-1.744 1.445-2.226.683-.482 1.699-.723 3.047-.723 1.224 0 2.135.147 2.734.44.599.286 1.019.654 1.26 1.103.247.443.371 1.26.371 2.452l-.029 3.203c0 .911.042 1.585.127 2.021.091.43.257.892.498 1.387h-2.715a9.856 9.856 0 0 1-.264-.81 5.047 5.047 0 0 0-.097-.323 4.962 4.962 0 0 1-1.504 1.026 4.31 4.31 0 0 1-1.709.341c-1.068 0-1.911-.29-2.53-.869-.612-.58-.918-1.312-.918-2.197 0-.586.14-1.107.42-1.563a2.71 2.71 0 0 1 1.172-1.054c.508-.248 1.237-.463 2.188-.645 1.282-.24 2.171-.465 2.666-.674v-.273c0-.527-.131-.902-.391-1.123-.26-.228-.752-.342-1.475-.342-.488 0-.869.098-1.142.293-.274.189-.495.524-.664 1.006Zm3.672 2.226c-.352.118-.909.258-1.67.42-.762.163-1.26.323-1.494.479-.358.254-.537.576-.537.967 0 .384.143.716.429.996.287.28.651.42 1.094.42.495 0 .967-.163 1.416-.489.332-.247.55-.55.654-.908.072-.234.108-.68.108-1.338v-.547Zm5.41 4.981V69.684h2.744V84h-2.744Zm12.392 0v-1.553a3.98 3.98 0 0 1-1.494 1.309 4.144 4.144 0 0 1-1.943.478c-.697 0-1.322-.153-1.875-.459a2.71 2.71 0 0 1-1.201-1.289c-.248-.553-.371-1.318-.371-2.295V73.63h2.744v4.765c0 1.459.049 2.354.146 2.686.104.326.29.586.557.781.267.19.605.283 1.016.283.468 0 .888-.126 1.259-.38.371-.26.625-.58.762-.957.137-.385.205-1.319.205-2.803V73.63h2.744V84h-2.549Zm11.407-3.3 2.734.458c-.352 1.003-.908 1.768-1.67 2.295-.755.521-1.702.781-2.842.781-1.803 0-3.138-.589-4.004-1.767-.683-.944-1.025-2.136-1.025-3.574 0-1.72.449-3.064 1.348-4.034.898-.976 2.034-1.465 3.408-1.465 1.543 0 2.76.512 3.652 1.534.892 1.015 1.319 2.575 1.28 4.678h-6.875c.019.813.24 1.448.664 1.904.423.449.95.674 1.582.674.429 0 .791-.118 1.084-.352.293-.234.514-.612.664-1.133Zm.156-2.774c-.02-.794-.225-1.397-.615-1.807a1.882 1.882 0 0 0-1.426-.625c-.599 0-1.094.218-1.484.654-.391.437-.583 1.03-.577 1.778h4.102Zm9.932-1.895v-2.52h10.009v2.52h-10.009Zm0 4.336v-2.53h10.009v2.53h-10.009ZM472.855 84l3.74-5.342-3.584-5.03h3.35l1.836 2.853 1.933-2.852h3.223l-3.516 4.912L483.675 84h-3.369l-2.109-3.213L476.068 84h-3.213Zm15.879-.684 2.539-4.414-2.539-4.502h2.158l3.086 4.502-3.086 4.414h-2.158Zm-3.828 0 2.539-4.414-2.539-4.502h2.158l3.086 4.502-3.086 4.414h-2.158Z" fill="#2D2D2D"/><path d="M327.027 114h203.639v8H327.027v-8Zm287.904 103H834.62v8H614.931v-8Zm286.9 102h175.549v8H901.831v-8Z" fill="#F6F6F6"/><path d="M327.027 119a1 1 0 0 1 1-1h201.639a1 1 0 0 1 0 2H328.027a1 1 0 0 1-1-1Zm289.91 102a1 1 0 0 1 1-1h211.671a1 1 0 0 1 0 2H617.937a1 1 0 0 1-1-1Zm286.901 103a1 1 0 0 1 1-1h166.532c.55 0 1 .448 1 1s-.45 1-1 1H904.838a1 1 0 0 1-1-1Z" fill="#ED1C24"/></svg>