<svg width="69" height="69" viewBox="0 0 69 69" fill="none" xmlns="http://www.w3.org/2000/svg">
<circle cx="34.5" cy="34.5" r="34.5" fill="#2D2D2D"/>
<path d="M34.0825 20.1157C34.4307 19.3129 35.5693 19.3129 35.9175 20.1157L39.11 27.4781C39.2549 27.8123 39.5701 28.0412 39.9326 28.0757L47.9212 28.837C48.7924 28.92 49.1442 30.0029 48.4882 30.5821L42.4728 35.8935C42.1997 36.1346 42.0794 36.505 42.1586 36.8605L43.9032 44.6933C44.0935 45.5475 43.1723 46.2168 42.4187 45.7719L35.5084 41.6921C35.1948 41.507 34.8052 41.507 34.4916 41.6921L27.5813 45.7719C26.8277 46.2168 25.9065 45.5475 26.0968 44.6933L27.8414 36.8605C27.9206 36.505 27.8003 36.1346 27.5272 35.8935L21.5118 30.5821C20.8558 30.0029 21.2076 28.92 22.0788 28.837L30.0674 28.0758C30.4299 28.0412 30.7451 27.8123 30.89 27.4781L34.0825 20.1157Z" fill="white"/>
</svg>
