<svg width="592" height="687" fill="none" xmlns="http://www.w3.org/2000/svg"><path d="m572.381 268.222 17.942-10.359v371.668l-17.942 10.358V268.222Z" fill="#0070CC" stroke="#fff"/><path d="m145.232.89 445.091 256.973-17.942 10.359-445.09-256.974L145.232.89Zm-17.941 10.36 445.09 256.973V639.89l-445.09-256.973V11.25Z" fill="#0070CC" stroke="#fff"/><path d="M150.346 80c0-1.105.776-1.552 1.732-1l391.249 225.888c.957.552 1.732 1.895 1.732 3v286.039c0 1.104-.775 1.552-1.732 1L152.078 369.039c-.956-.552-1.732-1.896-1.732-3V80Z" fill="#0070CC" stroke="#fff"/><mask id="a" fill="#fff"><path fill-rule="evenodd" clip-rule="evenodd" d="M164.7 59.873c0 4.577-3.213 6.432-7.177 4.143-3.963-2.288-7.177-7.853-7.177-12.43 0-4.576 3.214-6.431 7.177-4.143 3.964 2.288 7.177 7.853 7.177 12.43Zm21.235 12.43c0 4.577-3.213 6.432-7.177 4.144-3.963-2.289-7.177-7.854-7.177-12.43 0-4.577 3.214-6.432 7.177-4.144 3.964 2.288 7.177 7.854 7.177 12.43Zm13.799 16.574c3.964 2.288 7.177.433 7.177-4.143 0-4.577-3.213-10.142-7.177-12.43-3.963-2.29-7.177-.434-7.177 4.143 0 4.576 3.214 10.142 7.177 12.43Z"/></mask><path fill-rule="evenodd" clip-rule="evenodd" d="M164.7 59.873c0 4.577-3.213 6.432-7.177 4.143-3.963-2.288-7.177-7.853-7.177-12.43 0-4.576 3.214-6.431 7.177-4.143 3.964 2.288 7.177 7.853 7.177 12.43Zm21.235 12.43c0 4.577-3.213 6.432-7.177 4.144-3.963-2.289-7.177-7.854-7.177-12.43 0-4.577 3.214-6.432 7.177-4.144 3.964 2.288 7.177 7.854 7.177 12.43Zm13.799 16.574c3.964 2.288 7.177.433 7.177-4.143 0-4.577-3.213-10.142-7.177-12.43-3.963-2.29-7.177-.434-7.177 4.143 0 4.576 3.214 10.142 7.177 12.43Z" fill="#0070CC"/><path d="m157.523 64.016-.5.866.5-.866Zm21.235 12.43.5-.865-.5.866Zm0-16.573-.5.866.5-.866Zm20.976 29.004-.5.866.5-.866Zm0-16.574-.5.866.5-.866Zm-42.711-7.42c2.164 1.249 4.358 1.494 6.075.502 1.717-.991 2.602-3.013 2.602-5.512h-2c0 2.078-.722 3.272-1.602 3.78-.881.508-2.275.536-4.075-.503l-1 1.732Zm-7.677-13.297c0 2.505.873 5.212 2.236 7.574 1.364 2.36 3.272 4.47 5.441 5.722l1-1.732c-1.794-1.035-3.474-2.853-4.709-4.99-1.234-2.138-1.968-4.502-1.968-6.574h-2Zm8.677-5.01c-2.164-1.249-4.357-1.493-6.075-.502-1.717.992-2.602 3.014-2.602 5.512h2c0-2.078.722-3.272 1.602-3.78.881-.508 2.275-.536 4.075.503l1-1.732Zm7.677 13.297c0-2.505-.873-5.212-2.236-7.573-1.363-2.361-3.271-4.47-5.441-5.723l-1 1.732c1.794 1.036 3.474 2.853 4.709 4.99 1.234 2.139 1.968 4.502 1.968 6.574h2Zm12.558 17.44c2.164 1.249 4.358 1.494 6.075.502 1.717-.991 2.602-3.013 2.602-5.512h-2c0 2.078-.722 3.272-1.602 3.78-.881.508-2.275.537-4.075-.502l-1 1.732Zm-7.677-13.297c0 2.505.873 5.212 2.236 7.574 1.364 2.36 3.271 4.47 5.441 5.723l1-1.733c-1.794-1.035-3.474-2.853-4.709-4.99-1.234-2.138-1.968-4.502-1.968-6.574h-2Zm8.677-5.01c-2.164-1.248-4.357-1.493-6.075-.502-1.717.992-2.602 3.014-2.602 5.512h2c0-2.078.722-3.272 1.602-3.78.881-.508 2.275-.536 4.075.503l1-1.732Zm7.677 13.297c0-2.505-.873-5.212-2.236-7.573-1.364-2.361-3.271-4.47-5.441-5.723l-1 1.732c1.794 1.036 3.474 2.853 4.709 4.99 1.234 2.139 1.968 4.503 1.968 6.574h2Zm18.976 12.43c0 2.078-.722 3.272-1.602 3.78-.881.509-2.275.537-4.075-.502l-1 1.732c2.164 1.25 4.358 1.494 6.075.503 1.717-.992 2.602-3.014 2.602-5.512h-2Zm-6.677-11.564c1.794 1.036 3.474 2.854 4.709 4.991 1.234 2.138 1.968 4.502 1.968 6.574h2c0-2.506-.873-5.213-2.236-7.574-1.363-2.36-3.271-4.47-5.441-5.723l-1 1.732Zm-5.677 3.278c0-2.078.722-3.272 1.602-3.78.881-.509 2.276-.537 4.075.502l1-1.732c-2.164-1.25-4.357-1.494-6.075-.502-1.717.991-2.602 3.013-2.602 5.512h2Zm6.677 11.564c-1.794-1.036-3.474-2.853-4.709-4.991-1.234-2.138-1.968-4.502-1.968-6.573h-2c0 2.505.873 5.212 2.236 7.573 1.364 2.361 3.272 4.47 5.441 5.723l1-1.732Z" fill="#fff" mask="url(#a)"/><path transform="matrix(-.86603 -.5 0 1 365.101 368.756)" fill="#0070CC" stroke="#fff" d="M0 0h72.953v12.195H0z"/><path transform="matrix(-.86603 -.5 0 1 244.009 298.844)" fill="#0070CC" stroke="#fff" d="M0 0h72.953v12.195H0z"/><path transform="matrix(-.86603 -.5 0 1 423.015 402.193)" fill="#0070CC" stroke="#fff" d="M0 0h48.635v12.195H0z"/><path transform="matrix(-.86603 -.5 0 1 286.128 323.162)" fill="#0070CC" stroke="#fff" d="M0 0h30.397v12.195H0z"/><path transform="matrix(.86603 .5 0 1 180.83 213.589)" fill="#0070CC" stroke="#fff" d="M0 0h48.635v12.195H0z"/><path transform="matrix(-.86603 -.5 0 1 217.684 308.037)" fill="#0070CC" stroke="#fff" d="M0 0h42.556v12.195H0z"/><path transform="matrix(-.86603 -.5 0 1 449.34 441.782)" fill="#0070CC" stroke="#fff" d="M0 0h48.635v12.195H0z"/><path transform="matrix(-.86603 -.5 0 1 391.426 408.346)" fill="#0070CC" stroke="#fff" d="M0 0h109.429v12.195H0z"/><path transform="matrix(-.86603 -.5 0 1 280.863 344.512)" fill="#0070CC" stroke="#fff" d="M0 0h54.714v12.195H0z"/><path transform="matrix(.86603 .5 0 1 354.571 338.288)" fill="#0070CC" stroke="#fff" d="M0 0h42.556v12.195H0z"/><path transform="matrix(.86603 .5 0 1 180.83 237.978)" fill="#0070CC" stroke="#fff" d="M0 0h109.429v12.195H0z"/><path transform="matrix(.86603 .5 0 1 291.393 301.811)" fill="#0070CC" stroke="#fff" d="M0 0h54.714v12.195H0z"/><path transform="matrix(.86603 .5 0 1 238.744 167.993)" fill="#0070CC" stroke="#fff" d="M0 0h72.953v12.195H0z"/><path transform="matrix(.86603 .5 0 1 180.83 134.556)" fill="#0070CC" stroke="#fff" d="M0 0h48.635v12.195H0z"/><path transform="matrix(.86603 .5 0 1 317.717 213.588)" fill="#0070CC" stroke="#fff" d="M0 0h55.936v12.195H0z"/><path transform="matrix(.86603 .5 0 1 180.83 158.947)" fill="#0070CC" stroke="#fff" d="M0 0h109.429v12.195H0z"/><path transform="matrix(.86603 .5 0 1 291.393 222.779)" fill="#0070CC" stroke="#fff" d="M0 0h54.714v12.195H0z"/><path d="m446.381 314.222 17.942-10.359v371.668l-17.942 10.358V314.222Z" fill="#0070CC" stroke="#fff"/><path d="m19.232 46.89 445.091 256.973-17.942 10.359L1.291 57.248 19.232 46.89ZM1.29 57.25l445.091 256.973V685.89L1.291 428.917V57.25Z" fill="#0070CC" stroke="#fff"/><path d="M24.346 126c0-1.105.776-1.552 1.732-1l391.249 225.888c.957.552 1.732 1.895 1.732 3v286.039c0 1.104-.775 1.552-1.732 1L26.078 415.039c-.956-.552-1.732-1.896-1.732-3V126Z" fill="#0070CC" stroke="#fff"/><mask id="b" fill="#fff"><path fill-rule="evenodd" clip-rule="evenodd" d="M38.7 105.873c0 4.577-3.213 6.432-7.177 4.143-3.963-2.288-7.177-7.853-7.177-12.43 0-4.576 3.213-6.431 7.177-4.143 3.964 2.288 7.177 7.853 7.177 12.43Zm21.235 12.43c0 4.577-3.213 6.432-7.177 4.144-3.964-2.289-7.177-7.854-7.177-12.431 0-4.576 3.213-6.431 7.177-4.143 3.964 2.288 7.177 7.853 7.177 12.43Zm13.8 16.574c3.963 2.288 7.176.433 7.176-4.144 0-4.576-3.213-10.141-7.177-12.43-3.963-2.288-7.176-.433-7.176 4.144 0 4.576 3.213 10.142 7.176 12.43Z"/></mask><path fill-rule="evenodd" clip-rule="evenodd" d="M38.7 105.873c0 4.577-3.213 6.432-7.177 4.143-3.963-2.288-7.177-7.853-7.177-12.43 0-4.576 3.213-6.431 7.177-4.143 3.964 2.288 7.177 7.853 7.177 12.43Zm21.235 12.43c0 4.577-3.213 6.432-7.177 4.144-3.964-2.289-7.177-7.854-7.177-12.431 0-4.576 3.213-6.431 7.177-4.143 3.964 2.288 7.177 7.853 7.177 12.43Zm13.8 16.574c3.963 2.288 7.176.433 7.176-4.144 0-4.576-3.213-10.141-7.177-12.43-3.963-2.288-7.176-.433-7.176 4.144 0 4.576 3.213 10.142 7.176 12.43Z" fill="#0070CC"/><path d="m31.523 110.016-.5.866.5-.866Zm21.235 12.431.5-.866-.5.866Zm0-16.574-.5.866.5-.866Zm20.976 29.004-.5.866.5-.866Zm0-16.574-.5.866.5-.866Zm-42.71-7.421c2.163 1.25 4.356 1.495 6.074.503 1.717-.991 2.602-3.013 2.602-5.512h-2c0 2.078-.722 3.272-1.602 3.78-.88.508-2.275.536-4.075-.503l-1 1.732Zm-7.678-13.296c0 2.505.873 5.212 2.236 7.573 1.364 2.362 3.271 4.471 5.441 5.723l1-1.732c-1.794-1.035-3.474-2.853-4.709-4.991-1.234-2.137-1.968-4.501-1.968-6.573h-2Zm8.677-5.01c-2.164-1.249-4.357-1.493-6.075-.502-1.717.992-2.602 3.014-2.602 5.512h2c0-2.078.722-3.272 1.602-3.78.88-.508 2.276-.536 4.075.503l1-1.732Zm7.677 13.297c0-2.505-.873-5.212-2.236-7.573-1.364-2.361-3.271-4.47-5.44-5.723l-1 1.732c1.793 1.036 3.474 2.853 4.708 4.99 1.234 2.138 1.968 4.503 1.968 6.574h2Zm12.558 17.44c2.164 1.249 4.357 1.494 6.075.502 1.717-.991 2.602-3.013 2.602-5.512h-2c0 2.078-.722 3.272-1.602 3.78-.88.508-2.275.537-4.075-.502l-1 1.732Zm-7.677-13.297c0 2.506.873 5.212 2.236 7.574 1.364 2.361 3.272 4.47 5.441 5.723l1-1.732c-1.794-1.036-3.474-2.854-4.709-4.991-1.234-2.138-1.968-4.502-1.968-6.574h-2Zm8.677-5.009c-2.164-1.249-4.357-1.494-6.075-.503-1.717.992-2.602 3.014-2.602 5.512h2c0-2.078.722-3.272 1.602-3.78.88-.508 2.276-.536 4.075.503l1-1.732Zm7.677 13.296c0-2.505-.873-5.212-2.236-7.573-1.363-2.361-3.271-4.471-5.441-5.723l-1 1.732c1.794 1.036 3.474 2.853 4.709 4.991 1.234 2.138 1.968 4.502 1.968 6.573h2Zm18.976 12.43c0 2.078-.722 3.272-1.602 3.781-.88.508-2.275.536-4.075-.503l-1 1.732c2.164 1.249 4.358 1.494 6.075.503 1.717-.992 2.602-3.014 2.602-5.513h-2Zm-6.677-11.564c1.794 1.036 3.475 2.854 4.709 4.991 1.234 2.138 1.968 4.502 1.968 6.573h2c0-2.505-.873-5.212-2.236-7.573-1.364-2.361-3.271-4.47-5.44-5.723l-1 1.732Zm-5.676 3.278c0-2.078.721-3.272 1.601-3.78.88-.509 2.275-.537 4.075.502l1-1.732c-2.164-1.249-4.357-1.494-6.075-.502-1.717.991-2.602 3.013-2.602 5.512h2Zm6.676 11.564c-1.794-1.036-3.474-2.853-4.709-4.991-1.234-2.138-1.968-4.502-1.968-6.573h-2c0 2.505.873 5.212 2.236 7.573 1.364 2.361 3.271 4.47 5.441 5.723l1-1.732Z" fill="#fff" mask="url(#b)"/><path transform="matrix(-.86603 -.5 0 1 239.101 414.756)" fill="#0070CC" stroke="#fff" d="M0 0h72.953v12.195H0z"/><path transform="matrix(-.86603 -.5 0 1 118.009 344.844)" fill="#0070CC" stroke="#fff" d="M0 0h72.953v12.195H0z"/><path transform="matrix(-.86603 -.5 0 1 297.015 448.193)" fill="#0070CC" stroke="#fff" d="M0 0h48.635v12.195H0z"/><path transform="matrix(-.86603 -.5 0 1 160.128 369.162)" fill="#0070CC" stroke="#fff" d="M0 0h30.397v12.195H0z"/><path transform="matrix(.86603 .5 0 1 54.83 259.589)" fill="#0070CC" stroke="#fff" d="M0 0h48.635v12.195H0z"/><path transform="matrix(-.86603 -.5 0 1 91.684 354.037)" fill="#0070CC" stroke="#fff" d="M0 0h42.556v12.195H0z"/><path transform="matrix(-.86603 -.5 0 1 323.34 487.782)" fill="#0070CC" stroke="#fff" d="M0 0h48.635v12.195H0z"/><path transform="matrix(-.86603 -.5 0 1 265.426 454.346)" fill="#0070CC" stroke="#fff" d="M0 0h109.429v12.195H0z"/><path transform="matrix(-.86603 -.5 0 1 154.863 390.512)" fill="#0070CC" stroke="#fff" d="M0 0h54.714v12.195H0z"/><path transform="matrix(.86603 .5 0 1 228.571 384.288)" fill="#0070CC" stroke="#fff" d="M0 0h42.556v12.195H0z"/><path transform="matrix(.86603 .5 0 1 54.83 283.978)" fill="#0070CC" stroke="#fff" d="M0 0h109.429v12.195H0z"/><path transform="matrix(.86603 .5 0 1 165.393 347.811)" fill="#0070CC" stroke="#fff" d="M0 0h54.714v12.195H0z"/><path transform="matrix(.86603 .5 0 1 112.744 213.993)" fill="#0070CC" stroke="#fff" d="M0 0h72.953v12.195H0z"/><path transform="matrix(.86603 .5 0 1 54.83 180.556)" fill="#0070CC" stroke="#fff" d="M0 0h48.635v12.195H0z"/><path transform="matrix(.86603 .5 0 1 191.717 259.588)" fill="#0070CC" stroke="#fff" d="M0 0h55.936v12.195H0z"/><path transform="matrix(.86603 .5 0 1 54.83 204.947)" fill="#0070CC" stroke="#fff" d="M0 0h109.429v12.195H0z"/><path transform="matrix(.86603 .5 0 1 165.393 268.779)" fill="#0070CC" stroke="#fff" d="M0 0h54.714v12.195H0z"/></svg>