<svg width="357" height="432" fill="none" xmlns="http://www.w3.org/2000/svg"><rect x="72" y="1" width="196" height="117" rx="9" fill="#fff" stroke="#000" stroke-width="2"/><rect x="62" y="7" width="217" height="51" rx="10" fill="#2D2D2D"/><rect x="62" y="59" width="217" height="52" rx="10" fill="#2D2D2D"/><path d="M85.256 34.733c0-.102-.006-.232-.017-.391 0-.17-.006-.34-.017-.51a7.515 7.515 0 0 0-.051-.527 3.977 3.977 0 0 0-.051-.442h-1.139v-1.105h2.261l.17 1.19h.085a3.766 3.766 0 0 1 1.156-.986c.476-.272 1.054-.408 1.734-.408 1.213 0 2.125.334 2.737 1.003.612.668.918 1.762.918 3.28 0 .715-.108 1.36-.323 1.939a3.973 3.973 0 0 1-.884 1.445c-.385.397-.85.703-1.394.918a4.856 4.856 0 0 1-1.802.323c-.238 0-.453-.012-.646-.034a3.464 3.464 0 0 1-.51-.068 3.122 3.122 0 0 1-.442-.102 6.188 6.188 0 0 1-.476-.17v3.57h-1.309v-8.925Zm3.91-1.938c-.34 0-.663.062-.969.187a3.04 3.04 0 0 0-.799.493c-.227.204-.414.43-.561.68a2 2 0 0 0-.272.748v3.876c.25.17.527.306.833.408.317.09.731.136 1.241.136.907 0 1.632-.295 2.176-.884.544-.6.816-1.474.816-2.618 0-.963-.193-1.706-.578-2.227-.374-.533-1.003-.8-1.887-.8Zm11.422-1.037h2.414v5.797c0 .555.034 1.088.102 1.598h1.139v1.105h-2.261l-.051-1.445h-.068a3.556 3.556 0 0 1-1.173 1.19c-.487.306-1.076.459-1.768.459-.52 0-.969-.063-1.343-.187a1.838 1.838 0 0 1-.9-.612c-.239-.295-.414-.686-.528-1.173-.113-.499-.17-1.117-.17-1.853v-3.74h-1.139v-1.14h2.465v4.608c0 .465.017.884.051 1.258.046.363.13.674.255.935.125.25.306.442.544.578.25.124.578.187.986.187.59 0 1.1-.193 1.53-.578a3.643 3.643 0 0 0 1.003-1.445v-4.403h-1.088v-1.14Zm5.15 0h2.023v-1.683l1.326-.374v2.057h4.539v1.139h-4.539v4.012c0 .827.198 1.44.595 1.836.408.397.986.595 1.734.595.51 0 .952-.097 1.326-.29a7.007 7.007 0 0 0 1.037-.628l.442 1.003a4.771 4.771 0 0 1-1.428.765 5.004 5.004 0 0 1-1.683.289c-.454 0-.884-.068-1.292-.204a2.855 2.855 0 0 1-1.054-.595 2.902 2.902 0 0 1-.731-1.037c-.182-.43-.272-.94-.272-1.53v-4.216h-2.023v-1.14Zm28.403 12.104a8.424 8.424 0 0 1-2.142-.867 6.157 6.157 0 0 1-1.734-1.48c-.487-.611-.878-1.36-1.173-2.243-.283-.884-.425-1.932-.425-3.145 0-1.202.148-2.25.442-3.145.295-.907.692-1.672 1.19-2.295a5.933 5.933 0 0 1 1.734-1.513 7.276 7.276 0 0 1 2.108-.816l.425 1.07a8.367 8.367 0 0 0-1.836.766 4.715 4.715 0 0 0-1.445 1.24c-.396.51-.708 1.151-.935 1.922-.215.76-.323 1.683-.323 2.77 0 1.1.131 2.04.391 2.823.272.77.624 1.41 1.054 1.92.442.522.93.925 1.462 1.208a5.99 5.99 0 0 0 1.632.612l-.425 1.173Zm50.516-4.54c0-.34.108-.611.323-.815.227-.215.516-.323.867-.323.431 0 .765.153 1.003.459.238.294.357.714.357 1.258 0 .442-.073.827-.221 1.156a2.7 2.7 0 0 1-.561.85 2.55 2.55 0 0 1-.714.56 3.385 3.385 0 0 1-.697.324l-.425-.663a3.01 3.01 0 0 0 1.054-.68c.295-.295.442-.652.442-1.071a1.894 1.894 0 0 1-.374.05c-.328 0-.589-.09-.782-.271-.181-.193-.272-.47-.272-.833Zm63.298 3.367a5.748 5.748 0 0 0 1.615-.612 4.723 4.723 0 0 0 1.462-1.207c.442-.51.794-1.15 1.054-1.921.272-.782.408-1.723.408-2.822 0-1.088-.113-2.012-.34-2.771-.215-.77-.527-1.411-.935-1.921a4.51 4.51 0 0 0-1.428-1.241 8.327 8.327 0 0 0-1.836-.765l.425-1.071c.737.159 1.434.43 2.091.816a5.833 5.833 0 0 1 1.751 1.513c.499.623.896 1.388 1.19 2.295.295.895.442 1.944.442 3.145 0 1.212-.147 2.26-.442 3.145-.283.884-.674 1.632-1.173 2.244a5.843 5.843 0 0 1-1.734 1.479 8.123 8.123 0 0 1-2.125.867l-.425-1.173Z" fill="#fff"/><path d="M137.999 28.358h2.754v7.038h.935l3.349-3.638h1.598l-3.757 4.029 3.094 3.332h1.105v1.139h-1.751l-3.638-3.842h-.935v3.842h-1.309V29.497h-1.445v-1.14Zm19.378 10.829a4.122 4.122 0 0 1-.731.51 5.036 5.036 0 0 1-.901.408 6.014 6.014 0 0 1-1.037.255 5.618 5.618 0 0 1-1.071.102c-.68 0-1.28-.102-1.802-.306a3.612 3.612 0 0 1-1.309-.901 4.03 4.03 0 0 1-.799-1.411c-.181-.544-.272-1.156-.272-1.836 0-.714.097-1.349.289-1.904.204-.556.493-1.02.867-1.394a3.654 3.654 0 0 1 1.36-.85 4.96 4.96 0 0 1 1.785-.306c.476 0 .947.062 1.411.187.465.125.873.362 1.224.714.363.34.641.816.833 1.428.193.6.261 1.383.204 2.346h-6.579c0 1.02.272 1.785.816 2.295.556.498 1.292.748 2.21.748.306 0 .607-.034.901-.102.306-.08.595-.17.867-.272.272-.102.51-.216.714-.34.216-.125.38-.238.493-.34l.527.969Zm-3.587-6.511c-.374 0-.731.04-1.071.119-.328.08-.623.215-.884.408a2.22 2.22 0 0 0-.629.73c-.158.295-.26.664-.306 1.106h5.287c-.056-.748-.3-1.326-.731-1.734-.419-.42-.974-.63-1.666-.63Zm10.675 6.273h.646l2.108-7.191h1.377l-2.363 7.633c-.125.397-.255.844-.391 1.343a6.02 6.02 0 0 1-.544 1.428 3.408 3.408 0 0 1-.969 1.122c-.408.306-.941.459-1.598.459a2.43 2.43 0 0 1-.476-.051 3.7 3.7 0 0 1-.476-.136 2.543 2.543 0 0 1-.442-.17 1.187 1.187 0 0 1-.306-.204l.476-1.224a1.4 1.4 0 0 0 .272.17c.124.056.255.102.391.136.147.045.289.08.425.102.136.034.249.05.34.05.85 0 1.428-.719 1.734-2.158h-1.139l-3.57-8.5h1.53l2.975 7.19Zm7.665.085h2.669v-8.942l-2.72 1.904-.663-.97 3.74-2.668h.952v10.676h2.618v1.224h-6.596v-1.224Z" fill="#279EFF"/><path d="M207.485 38.609h.187l2.669-6.851h1.479l-3.587 8.5h-1.496l-3.655-8.5h1.564l2.839 6.85Zm7.495-6.188a5.408 5.408 0 0 1 1.649-.612 9.014 9.014 0 0 1 1.802-.187c.578 0 1.049.09 1.411.272.374.181.663.42.867.714.216.283.357.612.425.986.08.362.119.73.119 1.105 0 .43-.011.89-.034 1.377a71.38 71.38 0 0 0-.051 1.462c0 .567.034 1.105.102 1.615h1.139v1.105h-2.261l-.153-1.275h-.085c-.068.102-.17.232-.306.39a2.903 2.903 0 0 1-.544.477 3.336 3.336 0 0 1-1.921.561c-.838 0-1.501-.215-1.989-.646-.487-.43-.731-1.02-.731-1.768 0-.578.125-1.06.374-1.445.261-.386.629-.68 1.105-.884.476-.204 1.049-.323 1.717-.357.68-.034 1.44.011 2.278.136.057-.522.063-.952.017-1.292-.034-.352-.124-.63-.272-.833a1.055 1.055 0 0 0-.595-.425c-.249-.09-.561-.136-.935-.136-.51 0-.997.073-1.462.22-.464.137-.878.279-1.241.426l-.425-.986Zm2.499 6.85c.318 0 .612-.05.884-.152a2.694 2.694 0 0 0 1.224-.901c.136-.193.238-.374.306-.544v-1.19a9.612 9.612 0 0 0-1.632-.153c-.498 0-.929.056-1.292.17-.362.102-.646.266-.85.493-.204.227-.306.521-.306.884 0 .374.125.703.374.986.261.272.692.408 1.292.408Zm8.482-10.913h2.822v9.044c0 .691.113 1.178.34 1.462.238.283.583.425 1.037.425.317 0 .617-.057.901-.17.294-.114.617-.306.969-.578l.612.935c-.182.159-.38.3-.595.425a5.194 5.194 0 0 1-.663.323c-.227.08-.454.142-.68.187a3.428 3.428 0 0 1-1.751-.102 1.905 1.905 0 0 1-.833-.51c-.216-.238-.38-.55-.493-.935-.114-.397-.17-.884-.17-1.462v-7.905h-1.496v-1.14Zm10.929 10.676h2.669v-8.942l-2.72 1.904-.663-.97 3.74-2.668h.952v10.676h2.618v1.224h-6.596v-1.224Z" fill="#FFC700"/><path d="M85.256 83.674c0-.102-.006-.232-.017-.39 0-.17-.006-.34-.017-.51a7.515 7.515 0 0 0-.051-.528 3.977 3.977 0 0 0-.051-.442h-1.139V80.7h2.261l.17 1.19h.085a3.767 3.767 0 0 1 1.156-.986c.476-.272 1.054-.408 1.734-.408 1.213 0 2.125.335 2.737 1.003.612.669.918 1.763.918 3.281 0 .714-.108 1.36-.323 1.938a3.972 3.972 0 0 1-.884 1.445c-.385.397-.85.703-1.394.918a4.854 4.854 0 0 1-1.802.323c-.238 0-.453-.011-.646-.034a3.464 3.464 0 0 1-.51-.068 3.094 3.094 0 0 1-.442-.102 6.188 6.188 0 0 1-.476-.17v3.57h-1.309v-8.925Zm3.91-1.938c-.34 0-.663.063-.969.187a3.04 3.04 0 0 0-.799.493c-.227.204-.414.43-.561.68-.147.25-.238.499-.272.748v3.876c.25.17.527.306.833.408.317.09.731.136 1.241.136.907 0 1.632-.294 2.176-.884.544-.6.816-1.473.816-2.618 0-.963-.193-1.705-.578-2.227-.374-.532-1.003-.799-1.887-.799Zm11.422-1.037h2.414v5.797c0 .556.034 1.088.102 1.598h1.139V89.2h-2.261l-.051-1.445h-.068a3.555 3.555 0 0 1-1.173 1.19c-.487.306-1.076.46-1.768.46-.52 0-.969-.063-1.343-.188a1.838 1.838 0 0 1-.9-.612c-.239-.294-.414-.685-.528-1.173-.113-.498-.17-1.116-.17-1.853v-3.74h-1.139V80.7h2.465v4.607c0 .465.017.884.051 1.258.046.363.13.675.255.935.125.25.306.442.544.578.25.125.578.187.986.187.59 0 1.1-.192 1.53-.578a3.643 3.643 0 0 0 1.003-1.445v-4.403h-1.088V80.7Zm5.15 0h2.023v-1.683l1.326-.374V80.7h4.539v1.14h-4.539v4.011c0 .828.198 1.44.595 1.836.408.397.986.595 1.734.595.51 0 .952-.096 1.326-.289a6.999 6.999 0 0 0 1.037-.629l.442 1.003a4.767 4.767 0 0 1-1.428.765 5.004 5.004 0 0 1-1.683.29c-.454 0-.884-.069-1.292-.205a2.853 2.853 0 0 1-1.054-.595 2.9 2.9 0 0 1-.731-1.037c-.182-.43-.272-.94-.272-1.53v-4.216h-2.023V80.7Zm28.403 12.104a8.417 8.417 0 0 1-2.142-.867 6.157 6.157 0 0 1-1.734-1.479c-.487-.612-.878-1.36-1.173-2.244-.283-.884-.425-1.932-.425-3.145 0-1.201.148-2.25.442-3.145.295-.906.692-1.671 1.19-2.295a5.934 5.934 0 0 1 1.734-1.513 7.276 7.276 0 0 1 2.108-.816l.425 1.071a8.367 8.367 0 0 0-1.836.765 4.715 4.715 0 0 0-1.445 1.241c-.396.51-.708 1.15-.935 1.921-.215.76-.323 1.683-.323 2.771 0 1.1.131 2.04.391 2.822.272.77.624 1.411 1.054 1.921.442.522.93.924 1.462 1.207a5.99 5.99 0 0 0 1.632.612l-.425 1.173Zm50.516-4.539c0-.34.108-.612.323-.816.227-.215.516-.323.867-.323.431 0 .765.153 1.003.46.238.294.357.713.357 1.257 0 .442-.073.828-.221 1.156a2.69 2.69 0 0 1-.561.85 2.55 2.55 0 0 1-.714.561 3.38 3.38 0 0 1-.697.323l-.425-.663a3.01 3.01 0 0 0 1.054-.68c.295-.294.442-.651.442-1.07a1.894 1.894 0 0 1-.374.05c-.328 0-.589-.09-.782-.272-.181-.192-.272-.47-.272-.833Zm52.505 3.366a5.76 5.76 0 0 0 1.615-.612 4.733 4.733 0 0 0 1.462-1.207c.442-.51.793-1.15 1.054-1.92.272-.783.408-1.723.408-2.823 0-1.088-.113-2.011-.34-2.77-.215-.771-.527-1.412-.935-1.922a4.532 4.532 0 0 0-1.428-1.24 8.327 8.327 0 0 0-1.836-.766l.425-1.07c.737.158 1.434.43 2.091.815a5.846 5.846 0 0 1 1.751 1.513c.499.624.895 1.389 1.19 2.295.295.896.442 1.944.442 3.145 0 1.213-.147 2.261-.442 3.145-.283.884-.674 1.632-1.173 2.244a5.843 5.843 0 0 1-1.734 1.48 8.13 8.13 0 0 1-2.125.866l-.425-1.173Z" fill="#fff"/><path d="M137.999 77.3h2.754v7.037h.935l3.349-3.638h1.598l-3.757 4.03 3.094 3.331h1.105v1.14h-1.751l-3.638-3.843h-.935V89.2h-1.309V78.44h-1.445V77.3Zm19.378 10.828a4.112 4.112 0 0 1-.731.51 5.036 5.036 0 0 1-.901.408 5.996 5.996 0 0 1-1.037.255 5.618 5.618 0 0 1-1.071.102c-.68 0-1.28-.102-1.802-.306a3.61 3.61 0 0 1-1.309-.9 4.029 4.029 0 0 1-.799-1.412c-.181-.544-.272-1.156-.272-1.836 0-.714.097-1.348.289-1.904.204-.555.493-1.02.867-1.394a3.654 3.654 0 0 1 1.36-.85 4.96 4.96 0 0 1 1.785-.306c.476 0 .947.063 1.411.187.465.125.873.363 1.224.714.363.34.641.816.833 1.428.193.6.261 1.383.204 2.346h-6.579c0 1.02.272 1.785.816 2.295.556.499 1.292.748 2.21.748.306 0 .607-.034.901-.102.306-.08.595-.17.867-.272.272-.102.51-.215.714-.34.216-.124.38-.238.493-.34l.527.97Zm-3.587-6.51a4.72 4.72 0 0 0-1.071.118c-.328.08-.623.216-.884.408a2.22 2.22 0 0 0-.629.731c-.158.295-.26.663-.306 1.105h5.287c-.056-.748-.3-1.326-.731-1.734-.419-.42-.974-.629-1.666-.629Zm10.675 6.272h.646l2.108-7.19h1.377l-2.363 7.632c-.125.397-.255.845-.391 1.343a6.02 6.02 0 0 1-.544 1.428 3.408 3.408 0 0 1-.969 1.122c-.408.306-.941.46-1.598.46a2.43 2.43 0 0 1-.476-.052 3.7 3.7 0 0 1-.476-.136 2.543 2.543 0 0 1-.442-.17 1.187 1.187 0 0 1-.306-.204l.476-1.224c.068.057.158.114.272.17.124.057.255.102.391.136.147.046.289.08.425.102.136.034.249.051.34.051.85 0 1.428-.72 1.734-2.159h-1.139l-3.57-8.5h1.53l2.975 7.191Zm7.665.085h2.669v-8.942l-2.72 1.904-.663-.969 3.74-2.669h.952v10.676h2.618V89.2h-6.596v-1.224Z" fill="#279EFF"/><path d="M196.692 87.55h.187l2.669-6.85h1.479l-3.587 8.5h-1.496l-3.655-8.5h1.564l2.839 6.85Zm7.495-6.188a5.398 5.398 0 0 1 1.649-.612 9.02 9.02 0 0 1 1.802-.187c.578 0 1.048.09 1.411.272.374.182.663.42.867.714.215.284.357.612.425.986.079.363.119.731.119 1.105 0 .43-.011.89-.034 1.377-.023.488-.04.975-.051 1.462 0 .567.034 1.105.102 1.615h1.139V89.2h-2.261l-.153-1.275h-.085a4.33 4.33 0 0 1-.306.391 2.9 2.9 0 0 1-.544.476 3.495 3.495 0 0 1-.799.391c-.317.114-.691.17-1.122.17-.839 0-1.502-.215-1.989-.646-.487-.43-.731-1.02-.731-1.768 0-.578.125-1.06.374-1.445.261-.385.629-.68 1.105-.884.476-.204 1.048-.323 1.717-.357.68-.034 1.439.012 2.278.136.057-.521.062-.952.017-1.292-.034-.351-.125-.629-.272-.833a1.056 1.056 0 0 0-.595-.425c-.249-.09-.561-.136-.935-.136-.51 0-.997.074-1.462.221a13.17 13.17 0 0 0-1.241.425l-.425-.986Zm2.499 6.851a2.5 2.5 0 0 0 .884-.153 2.694 2.694 0 0 0 1.224-.9c.136-.193.238-.375.306-.545v-1.19a9.612 9.612 0 0 0-1.632-.153c-.499 0-.929.057-1.292.17-.363.102-.646.267-.85.493-.204.227-.306.522-.306.884 0 .374.125.703.374.986.261.272.691.408 1.292.408Zm8.481-10.914h2.822v9.044c0 .692.114 1.179.34 1.462.238.284.584.425 1.037.425.318 0 .618-.056.901-.17.295-.113.618-.306.969-.578l.612.935a3.72 3.72 0 0 1-.595.425 5.055 5.055 0 0 1-.663.323 4.88 4.88 0 0 1-.68.187 3.434 3.434 0 0 1-1.751-.102 1.916 1.916 0 0 1-.833-.51c-.215-.238-.379-.55-.493-.935-.113-.396-.17-.884-.17-1.462v-7.905h-1.496V77.3Zm17.271 3.01c0 1.042-.493 2.204-1.479 3.484-.986 1.28-2.363 2.675-4.131 4.182h5.984V89.2h-7.548v-1.224c.215-.204.51-.47.884-.799a70.76 70.76 0 0 0 1.207-1.088c.43-.408.867-.844 1.309-1.309.453-.464.861-.94 1.224-1.428.362-.487.657-.974.884-1.462.226-.487.34-.957.34-1.41 0-.68-.182-1.213-.544-1.599-.352-.396-.884-.595-1.598-.595-.612 0-1.128.068-1.547.204a3.76 3.76 0 0 0-1.139.595l-.578-.935a5.504 5.504 0 0 1 1.615-.799 6.664 6.664 0 0 1 1.887-.255c1.065 0 1.87.29 2.414.867.544.578.816 1.36.816 2.346Z" fill="#FFC700"/><path d="M62.098 36.707a1 1 0 0 0 0-1.414l-6.364-6.364a1 1 0 0 0-1.414 1.414L59.977 36l-5.657 5.657a1 1 0 0 0 1.414 1.414l6.364-6.364ZM61.391 35H12v2h49.39v-2ZM0 47v215h2V47H0Zm12 227h62v-2H12v2ZM0 262c0 6.627 5.373 12 12 12v-2c-5.523 0-10-4.477-10-10H0ZM12 35C5.373 35 0 40.373 0 47h2c0-5.523 4.477-10 10-10v-2Zm267.459 51.707a1 1 0 0 1 0-1.414l6.364-6.364a1 1 0 1 1 1.414 1.414L281.58 86l5.657 5.657a1.001 1.001 0 0 1-1.414 1.414l-6.364-6.364Zm.707-1.707H345v2h-64.834v-2ZM357 97v230h-2V97h2Zm-12 242h-71v-2h71v2Zm12-12c0 6.627-5.373 12-12 12v-2c5.523 0 10-4.477 10-10h2ZM345 85c6.627 0 12 5.373 12 12h-2c0-5.523-4.477-10-10-10v-2Z" fill="#2D2D2D"/><path d="m109.231 141.049 24.982 6.611v-35.929l-24.982-6.611-24.543 7.639v35.78l24.543-7.49Z" fill="#fff" stroke="#2D2D2D" stroke-width="2"/><path d="m109.67 119.644-24.982-6.611v43.812l24.982 6.611 24.543-7.639v-43.663l-24.543 7.49Z" fill="#fff" stroke="#2D2D2D" stroke-width="2"/><path d="M109.304 119.573v43.15" stroke="#2D2D2D" stroke-width="2"/><path d="m148.066 159.067 5.498-14.316h2.041l5.86 14.316h-2.159l-1.67-4.336h-5.986l-1.572 4.336h-2.012Zm4.131-5.879h4.854l-1.495-3.964c-.455-1.205-.794-2.194-1.015-2.969-.183.918-.44 1.829-.772 2.734l-1.572 4.199Zm10.757 9.854v-14.346h1.601v1.348c.378-.527.804-.921 1.28-1.182.475-.267 1.051-.4 1.728-.4.885 0 1.667.228 2.344.684.677.455 1.188 1.1 1.533 1.933.345.827.518 1.735.518 2.725 0 1.061-.192 2.018-.577 2.871-.377.846-.931 1.497-1.66 1.953-.722.449-1.484.674-2.285.674a3.342 3.342 0 0 1-1.582-.371 3.622 3.622 0 0 1-1.143-.938v5.049h-1.757Zm1.591-9.102c0 1.335.271 2.321.811 2.959.54.638 1.195.957 1.963.957.781 0 1.448-.328 2.002-.986.56-.664.84-1.689.84-3.076 0-1.322-.274-2.311-.821-2.969-.54-.657-1.188-.986-1.943-.986-.749 0-1.413.351-1.992 1.055-.573.696-.86 1.712-.86 3.046Zm9.741 9.102v-14.346h1.602v1.348c.378-.527.804-.921 1.279-1.182.476-.267 1.052-.4 1.729-.4.885 0 1.667.228 2.344.684.677.455 1.188 1.1 1.533 1.933.345.827.517 1.735.517 2.725 0 1.061-.192 2.018-.576 2.871-.377.846-.931 1.497-1.66 1.953-.723.449-1.484.674-2.285.674a3.342 3.342 0 0 1-1.582-.371 3.622 3.622 0 0 1-1.143-.938v5.049h-1.758Zm1.592-9.102c0 1.335.27 2.321.811 2.959.54.638 1.194.957 1.963.957.781 0 1.448-.328 2.002-.986.56-.664.84-1.689.84-3.076 0-1.322-.274-2.311-.821-2.969-.54-.657-1.188-.986-1.943-.986-.749 0-1.413.351-1.992 1.055-.573.696-.86 1.712-.86 3.046Zm9.702 5.127v-14.316h1.758v14.316h-1.758Zm4.702-12.295v-2.021h1.758v2.021h-1.758Zm0 12.295v-10.371h1.758v10.371h-1.758Zm11.411-3.798 1.729.224c-.189 1.192-.674 2.126-1.455 2.803-.775.67-1.729 1.006-2.862 1.006-1.419 0-2.562-.462-3.428-1.387-.859-.931-1.289-2.262-1.289-3.994 0-1.12.186-2.1.557-2.94.371-.839.934-1.468 1.69-1.884a5.022 5.022 0 0 1 2.48-.635c1.126 0 2.048.286 2.764.859.716.567 1.175 1.374 1.377 2.422l-1.709.264c-.163-.697-.453-1.221-.87-1.572-.41-.352-.908-.528-1.494-.528-.885 0-1.604.319-2.158.957-.553.632-.83 1.634-.83 3.008 0 1.393.267 2.406.801 3.037.534.632 1.23.947 2.09.947.69 0 1.266-.211 1.728-.634.462-.423.755-1.075.879-1.953Zm10.2 2.519c-.651.553-1.279.944-1.885 1.172a5.387 5.387 0 0 1-1.933.342c-1.14 0-2.015-.277-2.627-.83-.612-.56-.918-1.273-.918-2.139 0-.508.114-.97.342-1.387.234-.423.537-.761.908-1.015a4.356 4.356 0 0 1 1.269-.577c.345-.091.866-.179 1.563-.263 1.419-.169 2.464-.371 3.135-.606.006-.241.009-.394.009-.459 0-.716-.166-1.22-.498-1.513-.449-.397-1.116-.596-2.002-.596-.826 0-1.438.146-1.836.439-.39.287-.68.798-.869 1.534l-1.718-.235c.156-.735.413-1.328.771-1.777.358-.456.876-.804 1.553-1.045.677-.247 1.461-.371 2.353-.371.886 0 1.605.104 2.159.312.553.209.96.472 1.22.791.261.313.443.71.547 1.192.059.299.088.84.088 1.621v2.344c0 1.634.036 2.669.107 3.105.079.43.228.843.45 1.24h-1.836a3.706 3.706 0 0 1-.352-1.279Zm-.146-3.926c-.638.261-1.595.482-2.871.664-.723.105-1.234.222-1.534.352a1.518 1.518 0 0 0-.937 1.406c0 .469.176.86.527 1.172.358.313.879.469 1.563.469.677 0 1.279-.147 1.806-.44a2.755 2.755 0 0 0 1.162-1.22c.189-.397.284-.983.284-1.758v-.645Zm8.549 3.633.254 1.553a6.528 6.528 0 0 1-1.328.156c-.638 0-1.133-.101-1.484-.303-.352-.201-.599-.465-.743-.791-.143-.332-.214-1.025-.214-2.08v-5.967h-1.289v-1.367h1.289v-2.568l1.748-1.055v3.623h1.767v1.367h-1.767v6.065c0 .501.029.823.088.967a.775.775 0 0 0 .302.342c.144.084.345.126.606.126.195 0 .452-.022.771-.068Zm1.939-10.723v-2.021h1.757v2.021h-1.757Zm0 12.295v-10.371h1.757v10.371h-1.757Zm3.989-5.185c0-1.921.533-3.343 1.601-4.268.892-.768 1.979-1.152 3.262-1.152 1.426 0 2.591.469 3.496 1.406.905.931 1.357 2.22 1.357 3.867 0 1.335-.201 2.386-.605 3.155a4.224 4.224 0 0 1-1.748 1.777 5.065 5.065 0 0 1-2.5.635c-1.452 0-2.627-.466-3.526-1.397-.891-.931-1.337-2.272-1.337-4.023Zm1.806 0c0 1.328.29 2.324.869 2.988.58.658 1.309.986 2.188.986.872 0 1.598-.332 2.178-.996.579-.664.869-1.676.869-3.037 0-1.282-.293-2.252-.879-2.91-.58-.664-1.302-.996-2.168-.996-.879 0-1.608.329-2.188.986-.579.658-.869 1.651-.869 2.979Zm10.181 5.185v-10.371h1.582v1.475c.761-1.139 1.862-1.709 3.301-1.709.625 0 1.197.114 1.718.342.528.221.921.514 1.182.879.26.364.443.797.547 1.298.065.326.097.896.097 1.709v6.377h-1.757v-6.308c0-.716-.069-1.25-.205-1.602a1.657 1.657 0 0 0-.733-.849c-.345-.215-.752-.323-1.221-.323-.748 0-1.396.238-1.943.713-.54.476-.81 1.377-.81 2.705v5.664h-1.758Z" fill="#2D2D2D"/><path d="M57.782 311.767V251.32s11.659 10.138 45.932 10.138 45.86-11.079 45.86-11.079v61.388c-14.298 21.006-85.284 14.729-91.792 0Z" fill="#E0454C"/><path d="M56.782 354.458v-62.632s11.857 12.115 46.13 12.115 45.662-12.115 45.662-12.115l.969 62.632c-14.575 18.287-83.89 14.858-92.761 0Z" fill="#0070CC"/><path d="M149.652 247.504c0 1.614-1.025 3.327-3.3 5.04-2.258 1.7-5.595 3.274-9.822 4.613-8.442 2.676-20.21 4.347-33.378 4.347-13.169 0-24.937-1.671-33.379-4.347-4.226-1.339-7.563-2.913-9.822-4.613-2.275-1.713-3.3-3.426-3.3-5.04 0-1.614 1.025-3.327 3.3-5.04 2.259-1.7 5.596-3.274 9.822-4.613 8.442-2.676 20.21-4.347 33.379-4.347 13.168 0 24.936 1.671 33.378 4.347 4.227 1.339 7.564 2.913 9.822 4.613 2.275 1.713 3.3 3.426 3.3 5.04Z" fill="#E0454C" stroke="#2D2D2D" stroke-width="2"/><path d="m56.652 246.504.35 107.263m92.65-107.263v108m.088-1.557c0 7.956-20.76 14.406-46.369 14.406-25.609 0-46.369-6.45-46.369-14.406m92.738-64c0 7.956-20.76 14.406-46.369 14.406-25.609 0-46.369-6.45-46.369-14.406" stroke="#2D2D2D" stroke-width="2"/><path d="M68.84 286.504v-11.453h2.28l2.711 8.109c.25.755.433 1.32.547 1.695.13-.416.334-1.028.61-1.835l2.742-7.969h2.039v11.453h-1.461v-9.586l-3.328 9.586h-1.368l-3.312-9.75v9.75h-1.46Zm13.605 0v-11.453h8.282v1.351H83.96v3.508h6.336v1.344H83.96v3.898h7.031v1.352h-8.547Zm10.794 0v-11.453h2.281l2.711 8.109c.25.755.433 1.32.547 1.695.13-.416.334-1.028.61-1.835l2.742-7.969h2.039v11.453h-1.461v-9.586l-3.328 9.586h-1.367l-3.313-9.75v9.75h-1.46Zm13.114-5.578c0-1.901.511-3.388 1.531-4.461 1.021-1.078 2.339-1.617 3.954-1.617 1.057 0 2.01.252 2.859.757a4.916 4.916 0 0 1 1.937 2.118c.448.901.672 1.924.672 3.07 0 1.161-.234 2.2-.703 3.117-.469.917-1.133 1.612-1.992 2.086a5.711 5.711 0 0 1-2.781.703c-1.078 0-2.042-.26-2.891-.781a5.033 5.033 0 0 1-1.93-2.133 6.47 6.47 0 0 1-.656-2.859Zm1.563.023c0 1.38.369 2.469 1.109 3.266.745.792 1.677 1.187 2.797 1.187 1.141 0 2.078-.401 2.812-1.203.74-.802 1.11-1.94 1.11-3.414 0-.932-.159-1.745-.477-2.437-.312-.698-.773-1.237-1.383-1.618a3.712 3.712 0 0 0-2.039-.578 3.88 3.88 0 0 0-2.773 1.11c-.771.734-1.156 1.963-1.156 3.687Zm11.575 5.555v-11.453h5.078c1.021 0 1.797.104 2.328.312.531.203.956.565 1.273 1.086.318.521.477 1.097.477 1.727 0 .812-.263 1.497-.789 2.054-.526.558-1.339.912-2.438 1.063.401.193.706.383.914.57a7.88 7.88 0 0 1 1.258 1.524l1.992 3.117h-1.906l-1.515-2.383a22.156 22.156 0 0 0-1.094-1.578c-.287-.365-.544-.62-.774-.766a2.24 2.24 0 0 0-.687-.304c-.172-.037-.453-.055-.844-.055h-1.758v5.086h-1.515Zm1.515-6.399h3.258c.693 0 1.234-.07 1.625-.21.391-.146.688-.375.891-.688.203-.318.304-.661.304-1.031 0-.542-.197-.987-.593-1.336-.391-.349-1.011-.524-1.86-.524h-3.625v3.789Zm13.153 6.399v-4.852l-4.414-6.601h1.844l2.258 3.453c.417.646.805 1.292 1.164 1.937a41.88 41.88 0 0 1 1.25-2.023l2.219-3.367h1.765l-4.57 6.601v4.852h-1.516Zm-49.273 63v-11.453h3.945c.89 0 1.57.054 2.04.164.656.151 1.216.424 1.679.82.604.511 1.055 1.164 1.352 1.961.302.792.453 1.698.453 2.719 0 .87-.102 1.64-.305 2.312-.203.672-.463 1.23-.781 1.672a4.195 4.195 0 0 1-1.047 1.039c-.375.25-.83.44-1.367.571-.532.13-1.144.195-1.836.195h-4.133Zm1.516-1.352h2.445c.755 0 1.346-.07 1.773-.211.433-.14.776-.338 1.032-.593.359-.36.638-.841.835-1.446.204-.609.305-1.346.305-2.211 0-1.198-.198-2.117-.594-2.757-.39-.646-.867-1.079-1.43-1.297-.406-.157-1.06-.235-1.96-.235h-2.406v8.75Zm10.504 1.352v-11.453h1.516v11.453h-1.516Zm3.88-3.68 1.43-.125c.067.573.224 1.044.468 1.414.25.365.636.662 1.157.891.521.224 1.106.336 1.757.336.579 0 1.089-.086 1.532-.258.442-.172.771-.406.984-.703.219-.302.328-.63.328-.984 0-.36-.104-.672-.312-.938-.209-.271-.552-.497-1.032-.68-.307-.119-.986-.304-2.039-.554-1.052-.256-1.789-.495-2.211-.719-.546-.287-.955-.641-1.226-1.063a2.647 2.647 0 0 1-.399-1.429c0-.578.165-1.117.493-1.617.328-.506.807-.888 1.437-1.149.63-.26 1.331-.391 2.102-.391.849 0 1.596.138 2.242.415.651.27 1.151.671 1.5 1.203.349.531.536 1.132.562 1.804l-1.453.11c-.078-.724-.343-1.271-.797-1.641-.447-.37-1.112-.555-1.992-.555-.916 0-1.586.17-2.008.508-.416.334-.625.737-.625 1.211 0 .412.149.75.446 1.016.291.265 1.052.539 2.281.82 1.234.276 2.081.518 2.539.727.667.307 1.159.698 1.477 1.172.317.468.476 1.01.476 1.625 0 .609-.174 1.184-.523 1.726-.349.537-.852.956-1.508 1.258-.651.297-1.385.445-2.203.445-1.037 0-1.906-.151-2.61-.453a3.688 3.688 0 0 1-1.648-1.359 3.908 3.908 0 0 1-.625-2.063Zm11.325 3.68v-11.453h1.516v5.679l5.687-5.679h2.055l-4.805 4.64 5.016 6.813h-2l-4.078-5.797-1.875 1.828v3.969h-1.516Z" fill="#fff"/><path d="M217.124 311.767V251.32s11.659 10.138 45.932 10.138 45.86-11.079 45.86-11.079v61.388c-14.298 21.006-85.284 14.729-91.792 0Z" fill="#E0454C"/><path d="M216.124 354.458v-62.632s11.857 12.115 46.13 12.115 45.662-12.115 45.662-12.115l.969 62.632c-14.575 18.287-83.891 14.858-92.761 0Z" fill="#0070CC"/><path d="M308.993 247.504c0 1.614-1.024 3.327-3.299 5.04-2.259 1.7-5.596 3.274-9.822 4.613-8.442 2.676-20.21 4.347-33.379 4.347-13.168 0-24.936-1.671-33.378-4.347-4.227-1.339-7.563-2.913-9.822-4.613-2.275-1.713-3.3-3.426-3.3-5.04 0-1.614 1.025-3.327 3.3-5.04 2.259-1.7 5.595-3.274 9.822-4.613 8.442-2.676 20.21-4.347 33.378-4.347 13.169 0 24.937 1.671 33.379 4.347 4.226 1.339 7.563 2.913 9.822 4.613 2.275 1.713 3.299 3.426 3.299 5.04Z" fill="#E0454C" stroke="#000" stroke-width="2"/><path d="m215.993 246.504.351 107.263m92.649-107.263v108m.089-1.557c0 7.956-20.76 14.406-46.369 14.406-25.609 0-46.369-6.45-46.369-14.406m92.738-64c0 7.956-20.76 14.406-46.369 14.406-25.609 0-46.369-6.45-46.369-14.406" stroke="#000" stroke-width="2"/><path d="M228.181 286.504v-11.453h2.281l2.711 8.109c.25.755.432 1.32.547 1.695.13-.416.333-1.028.609-1.835l2.743-7.969h2.039v11.453h-1.461v-9.586l-3.328 9.586h-1.368l-3.312-9.75v9.75h-1.461Zm13.606 0v-11.453h8.281v1.351h-6.765v3.508h6.336v1.344h-6.336v3.898h7.031v1.352h-8.547Zm10.794 0v-11.453h2.281l2.711 8.109c.25.755.432 1.32.547 1.695.13-.416.333-1.028.609-1.835l2.743-7.969h2.039v11.453h-1.461v-9.586l-3.328 9.586h-1.368l-3.312-9.75v9.75h-1.461Zm13.114-5.578c0-1.901.51-3.388 1.531-4.461 1.021-1.078 2.339-1.617 3.953-1.617 1.058 0 2.011.252 2.86.757a4.916 4.916 0 0 1 1.937 2.118c.448.901.672 1.924.672 3.07 0 1.161-.234 2.2-.703 3.117-.469.917-1.133 1.612-1.992 2.086a5.717 5.717 0 0 1-2.781.703c-1.079 0-2.042-.26-2.891-.781a5.033 5.033 0 0 1-1.93-2.133 6.47 6.47 0 0 1-.656-2.859Zm1.562.023c0 1.38.37 2.469 1.11 3.266.745.792 1.677 1.187 2.797 1.187 1.14 0 2.078-.401 2.812-1.203.74-.802 1.11-1.94 1.11-3.414 0-.932-.159-1.745-.477-2.437-.312-.698-.773-1.237-1.383-1.618a3.714 3.714 0 0 0-2.039-.578 3.88 3.88 0 0 0-2.773 1.11c-.771.734-1.157 1.963-1.157 3.687Zm11.575 5.555v-11.453h5.079c1.02 0 1.796.104 2.328.312.531.203.955.565 1.273 1.086.318.521.477 1.097.477 1.727 0 .812-.263 1.497-.789 2.054-.526.558-1.339.912-2.438 1.063.401.193.706.383.914.57a7.88 7.88 0 0 1 1.258 1.524l1.992 3.117h-1.906l-1.516-2.383a21.875 21.875 0 0 0-1.093-1.578c-.287-.365-.545-.62-.774-.766a2.24 2.24 0 0 0-.687-.304c-.172-.037-.453-.055-.844-.055h-1.758v5.086h-1.516Zm1.516-6.399h3.258c.693 0 1.234-.07 1.625-.21.391-.146.687-.375.891-.688.203-.318.304-.661.304-1.031 0-.542-.198-.987-.594-1.336-.39-.349-1.01-.524-1.859-.524h-3.625v3.789Zm13.153 6.399v-4.852l-4.414-6.601h1.844l2.258 3.453c.416.646.804 1.292 1.164 1.937a41.88 41.88 0 0 1 1.25-2.023l2.219-3.367h1.765l-4.57 6.601v4.852h-1.516Zm-49.273 63v-11.453h3.945c.891 0 1.57.054 2.039.164.656.151 1.216.424 1.68.82.604.511 1.055 1.164 1.351 1.961.302.792.454 1.698.454 2.719 0 .87-.102 1.64-.305 2.312-.203.672-.464 1.23-.781 1.672a4.203 4.203 0 0 1-1.047 1.039c-.375.25-.831.44-1.367.571-.532.13-1.144.195-1.836.195h-4.133Zm1.515-1.352h2.446c.755 0 1.346-.07 1.773-.211.432-.14.776-.338 1.031-.593.36-.36.638-.841.836-1.446.203-.609.305-1.346.305-2.211 0-1.198-.198-2.117-.594-2.757-.39-.646-.867-1.079-1.429-1.297-.407-.157-1.06-.235-1.961-.235h-2.407v8.75Zm10.505 1.352v-11.453h1.516v11.453h-1.516Zm3.88-3.68 1.429-.125c.068.573.224 1.044.469 1.414.25.365.636.662 1.156.891.521.224 1.107.336 1.758.336.578 0 1.089-.086 1.532-.258.442-.172.77-.406.984-.703.219-.302.328-.63.328-.984 0-.36-.104-.672-.312-.938-.209-.271-.553-.497-1.032-.68-.307-.119-.987-.304-2.039-.554-1.052-.256-1.789-.495-2.211-.719-.547-.287-.955-.641-1.226-1.063a2.647 2.647 0 0 1-.399-1.429c0-.578.164-1.117.492-1.617.329-.506.808-.888 1.438-1.149.63-.26 1.331-.391 2.102-.391.848 0 1.596.138 2.242.415.651.27 1.151.671 1.5 1.203.349.531.536 1.132.562 1.804l-1.453.11c-.078-.724-.344-1.271-.797-1.641-.448-.37-1.112-.555-1.992-.555-.917 0-1.586.17-2.008.508-.416.334-.625.737-.625 1.211 0 .412.149.75.446 1.016.291.265 1.052.539 2.281.82 1.234.276 2.081.518 2.539.727.667.307 1.159.698 1.476 1.172.318.468.477 1.01.477 1.625 0 .609-.175 1.184-.523 1.726-.349.537-.852.956-1.508 1.258-.651.297-1.386.445-2.203.445-1.037 0-1.907-.151-2.61-.453a3.683 3.683 0 0 1-1.648-1.359 3.908 3.908 0 0 1-.625-2.063Zm11.325 3.68v-11.453h1.515v5.679l5.688-5.679h2.055l-4.805 4.64 5.016 6.813h-2l-4.079-5.797-1.875 1.828v3.969h-1.515Z" fill="#fff"/><path d="M245.076 379.565s-10.499 6.5-.604 12.953c1.903 1.257 8.807 4.753 8.611 7.987 0 0 4.184-6.285-1.934-10.24-6.284-4.047-7.856-8.37-6.073-10.7Z" fill="#ED1C24"/><path d="M241.42 391.982s-3.746 5.764 3.626 6.944c.725.092 6.058.66 7.448 2.438 0 0-.121-3.066-4.472-4.875-4.336-1.809-6.118-2.254-6.602-4.507Zm14.503-6.055c-4.502-4.783-5.756-7.742-3.822-11.574 0 0-13.43 5.242-.166 14.548 4.744 3.326 3.958 6.729 3.958 6.852.74-.782 4.532-5.044.03-9.826Z" fill="#ED1C24"/><path d="M263.37 397.458v-11.453h1.555l6.016 8.992v-8.992h1.453v11.453h-1.555l-6.016-9v9h-1.453Zm11.317-5.578c0-1.901.511-3.388 1.532-4.461 1.021-1.078 2.338-1.617 3.953-1.617 1.057 0 2.01.252 2.859.758a4.922 4.922 0 0 1 1.938 2.117c.448.901.672 1.924.672 3.07 0 1.162-.235 2.201-.704 3.117-.468.917-1.132 1.612-1.992 2.086a5.711 5.711 0 0 1-2.781.703c-1.078 0-2.042-.26-2.891-.781a5.024 5.024 0 0 1-1.929-2.133 6.457 6.457 0 0 1-.657-2.859Zm1.563.023c0 1.381.37 2.469 1.109 3.266.745.792 1.677 1.187 2.797 1.187 1.141 0 2.078-.401 2.813-1.203.739-.802 1.109-1.94 1.109-3.414 0-.932-.159-1.745-.476-2.437-.313-.698-.774-1.237-1.383-1.617a3.707 3.707 0 0 0-2.039-.579c-1.073 0-1.998.37-2.774 1.11-.771.734-1.156 1.963-1.156 3.687Zm11.552 5.555v-11.453h3.945c.89 0 1.57.055 2.039.164.656.151 1.216.424 1.68.82.604.511 1.054 1.164 1.351 1.961.302.792.453 1.698.453 2.719 0 .87-.101 1.641-.304 2.312-.204.672-.464 1.23-.782 1.672a4.17 4.17 0 0 1-1.047 1.039c-.375.25-.83.44-1.367.571-.531.13-1.143.195-1.836.195h-4.132Zm1.515-1.352h2.445c.756 0 1.347-.07 1.774-.21.432-.141.776-.339 1.031-.594.36-.36.638-.841.836-1.446.203-.609.305-1.346.305-2.21 0-1.198-.198-2.118-.594-2.758-.391-.646-.867-1.078-1.43-1.297-.406-.156-1.06-.235-1.961-.235h-2.406v8.75Zm10.278 1.352v-11.453h8.282v1.351h-6.766v3.508h6.336v1.344h-6.336v3.898h7.031v1.352h-8.547Z" fill="#2D2D2D"/><path d="M61.002 379.565s-10.499 6.5-.604 12.953c1.903 1.257 8.807 4.753 8.611 7.987 0 0 4.185-6.285-1.934-10.24-6.284-4.047-7.855-8.37-6.073-10.7Z" fill="#ED1C24"/><path d="M57.347 391.982s-3.747 5.764 3.625 6.944c.725.092 6.058.66 7.448 2.438 0 0-.12-3.066-4.472-4.875-4.335-1.809-6.118-2.254-6.601-4.507Zm14.503-6.055c-4.502-4.783-5.756-7.742-3.823-11.574 0 0-13.43 5.242-.166 14.548 4.744 3.326 3.958 6.729 3.958 6.852.74-.782 4.532-5.044.03-9.826Z" fill="#ED1C24"/><path d="M79.297 397.458v-11.453h1.554l6.016 8.992v-8.992h1.453v11.453h-1.555l-6.015-9v9h-1.453Zm11.317-5.578c0-1.901.51-3.388 1.531-4.461 1.02-1.078 2.339-1.617 3.953-1.617 1.057 0 2.01.252 2.86.758a4.92 4.92 0 0 1 1.937 2.117c.448.901.672 1.924.672 3.07 0 1.162-.234 2.201-.703 3.117-.469.917-1.133 1.612-1.992 2.086a5.714 5.714 0 0 1-2.782.703c-1.078 0-2.041-.26-2.89-.781a5.029 5.029 0 0 1-1.93-2.133 6.463 6.463 0 0 1-.656-2.859Zm1.562.023c0 1.381.37 2.469 1.11 3.266.744.792 1.677 1.187 2.796 1.187 1.141 0 2.079-.401 2.813-1.203.74-.802 1.109-1.94 1.109-3.414 0-.932-.159-1.745-.476-2.437-.313-.698-.774-1.237-1.383-1.617a3.707 3.707 0 0 0-2.04-.579 3.88 3.88 0 0 0-2.773 1.11c-.77.734-1.156 1.963-1.156 3.687Zm11.552 5.555v-11.453h3.945c.891 0 1.57.055 2.039.164.656.151 1.216.424 1.68.82.604.511 1.055 1.164 1.351 1.961.303.792.454 1.698.454 2.719 0 .87-.102 1.641-.305 2.312-.203.672-.464 1.23-.781 1.672a4.203 4.203 0 0 1-1.047 1.039c-.375.25-.831.44-1.367.571-.532.13-1.144.195-1.836.195h-4.133Zm1.515-1.352h2.446c.755 0 1.346-.07 1.773-.21.432-.141.776-.339 1.031-.594.36-.36.638-.841.836-1.446.204-.609.305-1.346.305-2.21 0-1.198-.198-2.118-.594-2.758-.39-.646-.867-1.078-1.429-1.297-.407-.156-1.06-.235-1.961-.235h-2.407v8.75Zm10.279 1.352v-11.453h8.281v1.351h-6.766v3.508h6.336v1.344h-6.336v3.898h7.031v1.352h-8.546Z" fill="#2D2D2D"/><path d="M153.002 409.565s-10.499 6.5-.604 12.953c1.904 1.257 8.807 4.753 8.611 7.987 0 0 4.185-6.285-1.934-10.24-6.284-4.047-7.855-8.37-6.073-10.7Z" fill="#ED1C24"/><path d="M149.347 421.982s-3.747 5.764 3.625 6.944c.725.092 6.058.66 7.448 2.438 0 0-.121-3.066-4.472-4.875-4.335-1.809-6.118-2.254-6.601-4.507Zm14.503-6.055c-4.502-4.783-5.756-7.742-3.823-11.574 0 0-13.43 5.242-.166 14.548 4.744 3.326 3.958 6.729 3.958 6.852.741-.782 4.532-5.044.031-9.826Z" fill="#ED1C24"/><path d="M171.297 427.458v-11.453h1.554l6.016 8.992v-8.992h1.453v11.453h-1.555l-6.015-9v9h-1.453Zm11.317-5.578c0-1.901.51-3.388 1.531-4.461 1.021-1.078 2.339-1.617 3.953-1.617 1.057 0 2.011.252 2.86.758a4.926 4.926 0 0 1 1.937 2.117c.448.901.672 1.924.672 3.07 0 1.162-.234 2.201-.703 3.117-.469.917-1.133 1.612-1.992 2.086a5.718 5.718 0 0 1-2.782.703c-1.078 0-2.041-.26-2.89-.781a5.033 5.033 0 0 1-1.93-2.133 6.47 6.47 0 0 1-.656-2.859Zm1.562.023c0 1.381.37 2.469 1.11 3.266.744.792 1.677 1.187 2.797 1.187 1.14 0 2.078-.401 2.812-1.203.74-.802 1.109-1.94 1.109-3.414 0-.932-.158-1.745-.476-2.437-.313-.698-.774-1.237-1.383-1.617a3.707 3.707 0 0 0-2.039-.579 3.88 3.88 0 0 0-2.773 1.11c-.771.734-1.157 1.963-1.157 3.687Zm11.552 5.555v-11.453h3.945c.891 0 1.57.055 2.039.164.656.151 1.216.424 1.68.82.604.511 1.055 1.164 1.351 1.961.303.792.454 1.698.454 2.719 0 .87-.102 1.641-.305 2.312-.203.672-.464 1.23-.781 1.672a4.203 4.203 0 0 1-1.047 1.039c-.375.25-.831.44-1.367.571-.532.13-1.144.195-1.836.195h-4.133Zm1.515-1.352h2.446c.755 0 1.346-.07 1.773-.21.432-.141.776-.339 1.031-.594.36-.36.638-.841.836-1.446.204-.609.305-1.346.305-2.21 0-1.198-.198-2.118-.594-2.758-.39-.646-.867-1.078-1.429-1.297-.407-.156-1.06-.235-1.961-.235h-2.407v8.75Zm10.279 1.352v-11.453h8.281v1.351h-6.766v3.508h6.336v1.344h-6.336v3.898h7.031v1.352h-8.546Z" fill="#2D2D2D"/><path d="M137.453 346.166v-60.447s11.659 10.137 45.932 10.137 45.86-11.078 45.86-11.078v61.388c-14.298 21.006-85.284 14.728-91.792 0Z" fill="#E0454C"/><path d="M136.453 388.857v-62.633s11.857 12.115 46.13 12.115 45.662-12.115 45.662-12.115l.969 62.633c-14.575 18.286-83.891 14.858-92.761 0Z" fill="#0070CC"/><path d="M229.323 281.902c0 1.614-1.025 3.328-3.3 5.04-2.259 1.7-5.595 3.274-9.822 4.614-8.442 2.675-20.21 4.346-33.378 4.346-13.169 0-24.937-1.671-33.379-4.346-4.227-1.34-7.563-2.914-9.822-4.614-2.275-1.712-3.299-3.426-3.299-5.04 0-1.614 1.024-3.327 3.299-5.039 2.259-1.7 5.595-3.274 9.822-4.614 8.442-2.676 20.21-4.347 33.379-4.347 13.168 0 24.936 1.671 33.378 4.347 4.227 1.34 7.563 2.914 9.822 4.614 2.275 1.712 3.3 3.425 3.3 5.039Z" fill="#E0454C" stroke="#2D2D2D" stroke-width="2"/><path d="m136.323 280.902.35 107.264m92.65-107.264v108m.088-1.557c0 7.956-20.76 14.406-46.369 14.406-25.609 0-46.369-6.45-46.369-14.406m92.738-64c0 7.956-20.76 14.406-46.369 14.406-25.609 0-46.369-6.45-46.369-14.406" stroke="#2D2D2D" stroke-width="2"/><path d="M148.51 320.902v-11.453h2.281l2.711 8.11c.25.755.432 1.32.547 1.695.13-.417.333-1.029.609-1.836l2.743-7.969h2.039v11.453h-1.461v-9.586l-3.328 9.586h-1.368l-3.312-9.75v9.75h-1.461Zm13.606 0v-11.453h8.282v1.352h-6.766v3.508h6.336v1.343h-6.336v3.899h7.031v1.351h-8.547Zm10.794 0v-11.453h2.281l2.711 8.11c.25.755.432 1.32.547 1.695.13-.417.333-1.029.609-1.836l2.743-7.969h2.039v11.453h-1.461v-9.586l-3.328 9.586h-1.368l-3.312-9.75v9.75h-1.461Zm13.114-5.578c0-1.901.51-3.388 1.531-4.461 1.021-1.078 2.339-1.617 3.953-1.617 1.058 0 2.011.253 2.86.758a4.914 4.914 0 0 1 1.937 2.117c.448.901.672 1.925.672 3.07 0 1.162-.234 2.201-.703 3.118-.469.916-1.133 1.612-1.992 2.086a5.725 5.725 0 0 1-2.781.703c-1.078 0-2.042-.261-2.891-.782a5.024 5.024 0 0 1-1.93-2.132 6.473 6.473 0 0 1-.656-2.86Zm1.563.024c0 1.38.369 2.468 1.109 3.265.745.792 1.677 1.188 2.797 1.188 1.14 0 2.078-.401 2.812-1.203.74-.802 1.11-1.94 1.11-3.414 0-.933-.159-1.745-.477-2.438-.312-.698-.773-1.237-1.383-1.617a3.706 3.706 0 0 0-2.039-.578c-1.073 0-1.997.37-2.773 1.109-.771.735-1.156 1.964-1.156 3.688Zm11.575 5.554v-11.453h5.078c1.021 0 1.797.104 2.328.313.531.203.956.565 1.273 1.086.318.52.477 1.096.477 1.726 0 .813-.263 1.498-.789 2.055-.526.557-1.339.911-2.438 1.062.401.193.706.383.914.571.443.406.862.914 1.258 1.523l1.992 3.117h-1.906l-1.516-2.382a21.709 21.709 0 0 0-1.093-1.579c-.287-.364-.545-.619-.774-.765a2.22 2.22 0 0 0-.687-.305c-.172-.036-.453-.055-.844-.055h-1.758v5.086h-1.515Zm1.515-6.398h3.258c.693 0 1.234-.07 1.625-.211.391-.146.688-.375.891-.688.203-.317.304-.661.304-1.031 0-.541-.198-.987-.593-1.336-.391-.349-1.011-.523-1.86-.523h-3.625v3.789Zm13.153 6.398v-4.851l-4.414-6.602h1.844l2.258 3.453a34.87 34.87 0 0 1 1.164 1.938c.344-.599.76-1.274 1.25-2.024l2.219-3.367h1.765l-4.57 6.602v4.851h-1.516Zm-49.273 63v-11.453h3.945c.891 0 1.571.055 2.039.164a3.878 3.878 0 0 1 1.68.821c.604.51 1.055 1.164 1.352 1.961.302.791.453 1.697.453 2.718 0 .87-.102 1.641-.305 2.313-.203.672-.464 1.229-.781 1.672a4.22 4.22 0 0 1-1.047 1.039c-.375.25-.831.44-1.367.57-.532.13-1.144.195-1.836.195h-4.133Zm1.516-1.351h2.445c.755 0 1.346-.071 1.773-.211.433-.141.776-.339 1.032-.594.359-.359.638-.841.835-1.445.204-.61.305-1.347.305-2.211 0-1.198-.198-2.117-.594-2.758-.39-.646-.867-1.078-1.429-1.297-.407-.156-1.06-.234-1.961-.234h-2.406v8.75Zm10.504 1.351v-11.453h1.516v11.453h-1.516Zm3.88-3.679 1.43-.125c.067.573.224 1.044.468 1.414.25.364.636.661 1.157.89.52.224 1.106.336 1.757.336.579 0 1.089-.086 1.532-.258.442-.171.77-.406.984-.703.219-.302.328-.63.328-.984 0-.359-.104-.672-.312-.938-.209-.27-.552-.497-1.032-.679-.307-.12-.987-.305-2.039-.555-1.052-.255-1.789-.495-2.211-.719-.546-.286-.955-.64-1.226-1.062a2.65 2.65 0 0 1-.399-1.43c0-.578.164-1.117.493-1.617.328-.505.807-.888 1.437-1.148.63-.261 1.331-.391 2.102-.391.849 0 1.596.138 2.242.414.651.271 1.151.672 1.5 1.203s.536 1.133.562 1.805l-1.453.109c-.078-.724-.344-1.271-.797-1.64-.448-.37-1.112-.555-1.992-.555-.917 0-1.586.169-2.008.508-.416.333-.625.737-.625 1.211 0 .411.149.75.446 1.015.291.266 1.052.539 2.281.821 1.234.276 2.081.518 2.539.726.667.307 1.159.698 1.477 1.172.317.469.476 1.01.476 1.625 0 .609-.174 1.185-.523 1.727-.349.536-.852.955-1.508 1.257-.651.297-1.386.446-2.203.446-1.037 0-1.907-.151-2.61-.453a3.692 3.692 0 0 1-1.648-1.36 3.904 3.904 0 0 1-.625-2.062Zm11.325 3.679v-11.453h1.516v5.68l5.687-5.68h2.055l-4.805 4.641 5.016 6.812h-2l-4.078-5.797-1.875 1.829v3.968h-1.516Z" fill="#fff"/><circle cx="55.377" cy="272.504" r="6.412" fill="#2D2D2D"/><circle cx="308.885" cy="337.75" r="6.412" fill="#2D2D2D"/></svg>