<svg width="1218" height="620" fill="none" xmlns="http://www.w3.org/2000/svg"><mask id="a" style="mask-type:alpha" maskUnits="userSpaceOnUse" x="0" y="0" width="1218" height="620"><path fill="#0070CC" d="M0 0h1218v620H0z"/></mask><g mask="url(#a)" stroke="#fff"><path d="m1004.01 616 208.82 177.985" stroke-linejoin="round"/><path d="m1102.03 233.111 56.5 121.728-154.35 89.111-210.835-32.617-56.494-121.728 154.344-89.111 210.835 32.617Z" fill="#0070CC"/><path d="m737.304 289.397 56.176 121.165v174.036l-56.176-121.164V289.397Zm56.176 121.716L1004 442.23v174.036l-210.52-31.117V411.113Zm364.94-56.245L1004 442.23v174.036l154.42-87.362V354.868Zm-104.88-93.672 38.22 82.352-104.416 60.286-142.639-22.066-38.22-82.352 104.419-60.287 142.636 22.067Zm-.57-225.828 38.43 82.802-104.993 60.616-143.418-22.187-38.428-82.802L909.55 13.18l143.42 22.187Z" fill="#0070CC"/><path d="m804.869 73.655 38.212 82.42v118.384l-38.212-82.42V73.655Zm38.212 82.794 143.204 21.167V296l-143.204-21.167V156.449Z" fill="#0070CC"/><path d="m1091.32 118.19-105.035 59.426V296l105.035-59.426V118.19Z" fill="#0070CC"/><path d="M737.5 464 9 620.5M1084.17 572l208.82 177.985M1158.17 529l208.82 177.985M763.5 522 245 638.5M796.5 585 528 641.5" stroke-linejoin="round"/></g></svg>