<svg width="362" height="410" fill="none" xmlns="http://www.w3.org/2000/svg"><circle cx="181" cy="224" r="134" fill="#fff"/><path d="M162.786 191.971s-47.589 29.021-2.739 57.836c8.628 5.613 39.92 21.218 39.03 35.66 0 0 18.967-28.062-8.765-45.721-28.485-18.07-35.606-37.371-27.526-47.775Z" fill="#ED1C24"/><path d="M146.216 247.412s-16.981 25.735 16.433 31.005c3.287.411 27.458 2.943 33.757 10.883 0 0-.547-13.689-20.268-21.765-19.651-8.077-27.731-10.062-29.922-20.123Zm65.734-27.036c-20.405-21.355-26.088-34.565-17.323-51.676 0 0-60.873 23.408-.754 64.954 21.501 14.853 17.94 30.048 17.94 30.595 3.355-3.491 20.542-22.518.137-43.873Z" fill="#ED1C24"/><path d="M2.13 353.263v-60.446s11.66 10.137 45.932 10.137c34.274 0 45.86-11.079 45.86-11.079v61.388c-14.298 21.006-85.284 14.729-91.792 0Z" fill="#E0454C"/><path d="M1.13 395.954v-62.632s11.857 12.115 46.13 12.115 45.663-12.115 45.663-12.115l.969 62.632c-14.575 18.287-83.891 14.858-92.762 0Z" fill="#0070CC"/><path d="M94 289c0 1.614-1.024 3.327-3.3 5.04-2.258 1.7-5.595 3.274-9.822 4.613C72.436 301.329 60.668 303 47.5 303s-24.936-1.671-33.378-4.347c-4.227-1.339-7.564-2.913-9.823-4.613C2.024 292.327 1 290.614 1 289c0-1.614 1.024-3.327 3.3-5.04 2.258-1.7 5.595-3.274 9.822-4.613C22.564 276.671 34.332 275 47.5 275s24.936 1.671 33.378 4.347c4.227 1.339 7.564 2.913 9.823 4.613C92.976 285.673 94 287.386 94 289Z" fill="#E0454C" stroke="#2D2D2D" stroke-width="2"/><path d="m1 288 .35 107.263M94 288v108m.089-1.557c0 7.956-20.76 14.406-46.37 14.406-25.608 0-46.368-6.45-46.368-14.406m92.738-64c0 7.956-20.76 14.406-46.37 14.406-25.608 0-46.368-6.45-46.368-14.406" stroke="#2D2D2D" stroke-width="2"/><path d="M13.188 328v-11.453h2.28l2.712 8.109c.25.755.432 1.321.547 1.696.13-.417.333-1.029.609-1.836l2.742-7.969h2.04V328h-1.462v-9.586L19.328 328h-1.367l-3.313-9.75V328h-1.46Zm13.606 0v-11.453h8.281v1.351h-6.766v3.508h6.336v1.344H28.31v3.898h7.032V328h-8.547Zm10.793 0v-11.453h2.282l2.71 8.109c.25.755.433 1.321.548 1.696.13-.417.333-1.029.609-1.836l2.742-7.969h2.04V328h-1.462v-9.586L43.728 328h-1.367l-3.313-9.75V328h-1.46Zm13.115-5.578c0-1.901.51-3.388 1.53-4.461 1.022-1.078 2.34-1.617 3.954-1.617 1.057 0 2.01.252 2.86.758a4.914 4.914 0 0 1 1.937 2.117c.448.901.672 1.924.672 3.07 0 1.162-.235 2.201-.703 3.117-.47.917-1.133 1.612-1.993 2.086a5.714 5.714 0 0 1-2.78.703c-1.079 0-2.043-.26-2.892-.781a5.029 5.029 0 0 1-1.93-2.133 6.463 6.463 0 0 1-.655-2.859Zm1.562.023c0 1.381.37 2.469 1.11 3.266.744.792 1.676 1.187 2.796 1.187 1.14 0 2.078-.401 2.813-1.203.74-.802 1.11-1.94 1.11-3.414 0-.932-.16-1.745-.477-2.437-.313-.698-.774-1.237-1.383-1.617a3.707 3.707 0 0 0-2.04-.579 3.88 3.88 0 0 0-2.773 1.11c-.77.734-1.156 1.963-1.156 3.687ZM63.84 328v-11.453h5.078c1.021 0 1.797.104 2.328.312.532.203.956.565 1.274 1.086a3.26 3.26 0 0 1 .476 1.727c0 .812-.263 1.497-.789 2.055-.526.557-1.338.911-2.437 1.062.4.193.706.383.914.57.442.407.862.914 1.258 1.524L73.933 328h-1.906l-1.516-2.383a21.94 21.94 0 0 0-1.094-1.578c-.286-.365-.544-.62-.773-.766a2.237 2.237 0 0 0-.688-.304c-.172-.037-.453-.055-.844-.055h-1.757V328h-1.516Zm1.516-6.398h3.257c.693 0 1.235-.071 1.626-.211.39-.146.687-.375.89-.688a1.88 1.88 0 0 0 .305-1.031c0-.542-.198-.987-.594-1.336-.39-.349-1.01-.524-1.86-.524h-3.624v3.79ZM78.508 328v-4.852l-4.414-6.601h1.844L78.195 320a34.69 34.69 0 0 1 1.164 1.938c.344-.599.76-1.274 1.25-2.024l2.22-3.367h1.765l-4.57 6.601V328h-1.516Zm-49.274 63v-11.453h3.946c.89 0 1.57.055 2.039.164.656.151 1.216.424 1.68.82.604.511 1.054 1.164 1.351 1.961.302.792.453 1.698.453 2.719 0 .87-.101 1.641-.305 2.312-.203.672-.463 1.23-.78 1.672a4.195 4.195 0 0 1-1.048 1.039c-.375.25-.83.44-1.367.571-.531.13-1.143.195-1.836.195h-4.133Zm1.516-1.352h2.445c.755 0 1.347-.07 1.774-.21.432-.141.776-.339 1.031-.594.36-.36.638-.841.836-1.446.203-.609.305-1.346.305-2.21 0-1.198-.198-2.118-.594-2.758-.39-.646-.867-1.078-1.43-1.297-.406-.156-1.06-.235-1.96-.235H30.75v8.75ZM41.255 391v-11.453h1.515V391h-1.515Zm3.88-3.68 1.43-.125c.067.573.223 1.045.468 1.414.25.365.635.662 1.156.891.52.224 1.107.336 1.758.336.578 0 1.088-.086 1.531-.258.443-.172.771-.406.984-.703.22-.302.329-.63.329-.984 0-.36-.104-.672-.313-.938-.208-.271-.552-.497-1.031-.68-.307-.119-.987-.304-2.04-.554-1.051-.255-1.788-.495-2.21-.719-.547-.286-.956-.641-1.227-1.062a2.656 2.656 0 0 1-.398-1.43c0-.578.164-1.117.492-1.617.328-.506.807-.888 1.438-1.149.63-.26 1.33-.39 2.101-.39.85 0 1.596.138 2.242.414.651.27 1.151.672 1.5 1.203.35.531.537 1.133.563 1.804l-1.453.11c-.078-.724-.344-1.271-.797-1.641-.448-.37-1.112-.554-1.992-.554-.917 0-1.586.169-2.008.507-.417.334-.625.737-.625 1.211 0 .412.148.75.445 1.016.292.266 1.052.539 2.281.82 1.235.276 2.081.518 2.54.727.666.307 1.158.698 1.476 1.172.318.468.477 1.01.477 1.625 0 .609-.175 1.185-.524 1.726-.349.537-.851.956-1.508 1.258-.65.297-1.385.445-2.203.445-1.036 0-1.906-.151-2.61-.453a3.685 3.685 0 0 1-1.648-1.359 3.907 3.907 0 0 1-.625-2.063ZM56.458 391v-11.453h1.516v5.68l5.688-5.68h2.054l-4.804 4.641L65.927 391h-2l-4.078-5.797-1.875 1.828V391h-1.516Z" fill="#fff"/><path d="M268.13 353.263v-60.446s11.659 10.137 45.932 10.137c34.274 0 45.861-11.079 45.861-11.079v61.388c-14.299 21.006-85.285 14.729-91.793 0Z" fill="#E0454C"/><path d="M267.13 395.954v-62.632s11.857 12.115 46.13 12.115 45.663-12.115 45.663-12.115l.969 62.632c-14.575 18.287-83.891 14.858-92.762 0Z" fill="#0070CC"/><path d="M360 289c0 1.614-1.024 3.327-3.299 5.04-2.259 1.7-5.596 3.274-9.823 4.613-8.442 2.676-20.21 4.347-33.378 4.347s-24.936-1.671-33.378-4.347c-4.227-1.339-7.564-2.913-9.823-4.613-2.275-1.713-3.299-3.426-3.299-5.04 0-1.614 1.024-3.327 3.299-5.04 2.259-1.7 5.596-3.274 9.823-4.613 8.442-2.676 20.21-4.347 33.378-4.347s24.936 1.671 33.378 4.347c4.227 1.339 7.564 2.913 9.823 4.613 2.275 1.713 3.299 3.426 3.299 5.04Z" fill="#E0454C" stroke="#2D2D2D" stroke-width="2"/><path d="m267 288 .351 107.263M360 288v108m.089-1.557c0 7.956-20.761 14.406-46.369 14.406-25.609 0-46.369-6.45-46.369-14.406m92.738-64c0 7.956-20.761 14.406-46.369 14.406-25.609 0-46.369-6.45-46.369-14.406" stroke="#2D2D2D" stroke-width="2"/><path d="M279.188 328v-11.453h2.281l2.711 8.109c.25.755.432 1.321.547 1.696.13-.417.333-1.029.609-1.836l2.742-7.969h2.039V328h-1.461v-9.586L285.328 328h-1.367l-3.313-9.75V328h-1.46Zm13.606 0v-11.453h8.281v1.351h-6.766v3.508h6.336v1.344h-6.336v3.898h7.032V328h-8.547Zm10.793 0v-11.453h2.282l2.711 8.109c.25.755.432 1.321.547 1.696.13-.417.333-1.029.609-1.836l2.742-7.969h2.039V328h-1.461v-9.586L309.728 328h-1.367l-3.313-9.75V328h-1.461Zm13.115-5.578c0-1.901.51-3.388 1.531-4.461 1.021-1.078 2.338-1.617 3.953-1.617 1.057 0 2.01.252 2.859.758a4.916 4.916 0 0 1 1.938 2.117c.448.901.672 1.924.672 3.07 0 1.162-.235 2.201-.703 3.117-.469.917-1.133 1.612-1.993 2.086a5.711 5.711 0 0 1-2.781.703c-1.078 0-2.042-.26-2.891-.781a5.03 5.03 0 0 1-1.929-2.133 6.456 6.456 0 0 1-.656-2.859Zm1.562.023c0 1.381.37 2.469 1.109 3.266.745.792 1.678 1.187 2.797 1.187 1.141 0 2.078-.401 2.813-1.203.739-.802 1.109-1.94 1.109-3.414 0-.932-.159-1.745-.476-2.437-.313-.698-.774-1.237-1.383-1.617a3.707 3.707 0 0 0-2.039-.579c-1.073 0-1.998.37-2.774 1.11-.771.734-1.156 1.963-1.156 3.687ZM329.839 328v-11.453h5.078c1.021 0 1.797.104 2.328.312.532.203.956.565 1.274 1.086a3.26 3.26 0 0 1 .476 1.727c0 .812-.263 1.497-.789 2.055-.526.557-1.338.911-2.437 1.062.401.193.705.383.914.57a7.88 7.88 0 0 1 1.258 1.524l1.992 3.117h-1.906l-1.516-2.383a21.828 21.828 0 0 0-1.094-1.578c-.286-.365-.544-.62-.773-.766a2.235 2.235 0 0 0-.688-.304c-.172-.037-.453-.055-.844-.055h-1.757V328h-1.516Zm1.516-6.398h3.257c.693 0 1.235-.071 1.625-.211.391-.146.688-.375.891-.688a1.88 1.88 0 0 0 .305-1.031c0-.542-.198-.987-.594-1.336-.391-.349-1.01-.524-1.859-.524h-3.625v3.79ZM344.508 328v-4.852l-4.414-6.601h1.844l2.257 3.453c.417.646.805 1.292 1.164 1.938.344-.599.761-1.274 1.25-2.024l2.219-3.367h1.766l-4.571 6.601V328h-1.515Zm-49.274 63v-11.453h3.946c.89 0 1.57.055 2.039.164.656.151 1.216.424 1.679.82.605.511 1.055 1.164 1.352 1.961.302.792.453 1.698.453 2.719 0 .87-.101 1.641-.305 2.312-.203.672-.463 1.23-.781 1.672a4.187 4.187 0 0 1-1.047 1.039c-.375.25-.83.44-1.367.571-.531.13-1.143.195-1.836.195h-4.133Zm1.516-1.352h2.445c.756 0 1.347-.07 1.774-.21.432-.141.776-.339 1.031-.594.359-.36.638-.841.836-1.446.203-.609.305-1.346.305-2.21 0-1.198-.198-2.118-.594-2.758-.391-.646-.867-1.078-1.43-1.297-.406-.156-1.06-.235-1.961-.235h-2.406v8.75ZM307.255 391v-11.453h1.515V391h-1.515Zm3.879-3.68 1.43-.125c.068.573.224 1.045.469 1.414.25.365.635.662 1.156.891.521.224 1.107.336 1.758.336.578 0 1.088-.086 1.531-.258.443-.172.771-.406.984-.703.219-.302.329-.63.329-.984 0-.36-.105-.672-.313-.938-.208-.271-.552-.497-1.031-.68-.307-.119-.987-.304-2.039-.554-1.052-.255-1.789-.495-2.211-.719-.547-.286-.956-.641-1.227-1.062a2.66 2.66 0 0 1-.398-1.43c0-.578.164-1.117.492-1.617.328-.506.807-.888 1.438-1.149.63-.26 1.33-.39 2.101-.39.849 0 1.596.138 2.242.414.651.27 1.151.672 1.5 1.203s.537 1.133.563 1.804l-1.453.11c-.078-.724-.344-1.271-.797-1.641-.448-.37-1.112-.554-1.992-.554-.917 0-1.586.169-2.008.507-.417.334-.625.737-.625 1.211 0 .412.148.75.445 1.016.292.266 1.052.539 2.281.82 1.235.276 2.081.518 2.539.727.667.307 1.159.698 1.477 1.172.318.468.477 1.01.477 1.625 0 .609-.175 1.185-.524 1.726-.349.537-.851.956-1.508 1.258-.651.297-1.385.445-2.203.445-1.036 0-1.906-.151-2.609-.453a3.686 3.686 0 0 1-1.649-1.359 3.917 3.917 0 0 1-.625-2.063Zm11.325 3.68v-11.453h1.516v5.68l5.688-5.68h2.054l-4.804 4.641 5.015 6.812h-2l-4.078-5.797-1.875 1.828V391h-1.516Z" fill="#fff"/><path d="M135.13 79.263V18.817s11.659 10.137 45.932 10.137c34.274 0 45.861-11.079 45.861-11.079v61.388c-14.299 21.006-85.285 14.729-91.793 0Z" fill="#E0454C"/><path d="M134.13 121.954V59.322s11.857 12.115 46.13 12.115 45.663-12.115 45.663-12.115l.969 62.632c-14.575 18.287-83.891 14.858-92.762 0Z" fill="#0070CC"/><path d="M227 15c0 1.614-1.024 3.327-3.299 5.04-2.259 1.7-5.596 3.274-9.823 4.613C205.436 27.33 193.668 29 180.5 29s-24.936-1.671-33.378-4.347c-4.227-1.34-7.564-2.913-9.823-4.613C135.024 18.327 134 16.614 134 15c0-1.614 1.024-3.327 3.299-5.04 2.259-1.7 5.596-3.274 9.823-4.613C155.564 2.67 167.332 1 180.5 1s24.936 1.671 33.378 4.347c4.227 1.34 7.564 2.913 9.823 4.613C225.976 11.673 227 13.386 227 15Z" fill="#E0454C" stroke="#2D2D2D" stroke-width="2"/><path d="m134 14 .351 107.263M227 14v108m.089-1.557c0 7.956-20.761 14.406-46.369 14.406-25.609 0-46.369-6.45-46.369-14.406m92.738-64c0 7.956-20.761 14.406-46.369 14.406-25.609 0-46.369-6.45-46.369-14.406" stroke="#2D2D2D" stroke-width="2"/><path d="M146.188 54V42.547h2.281l2.711 8.11c.25.755.432 1.32.547 1.695.13-.417.333-1.03.609-1.836l2.742-7.97h2.039V54h-1.461v-9.586L152.328 54h-1.367l-3.313-9.75V54h-1.46Zm13.606 0V42.547h8.281v1.351h-6.766v3.508h6.336v1.344h-6.336v3.898h7.032V54h-8.547Zm10.793 0V42.547h2.282l2.711 8.11c.25.755.432 1.32.547 1.695.13-.417.333-1.03.609-1.836l2.742-7.97h2.039V54h-1.461v-9.586L176.728 54h-1.367l-3.313-9.75V54h-1.461Zm13.115-5.578c0-1.901.51-3.388 1.531-4.461 1.021-1.078 2.338-1.617 3.953-1.617 1.057 0 2.01.252 2.859.758a4.922 4.922 0 0 1 1.938 2.117c.448.9.672 1.924.672 3.07 0 1.161-.235 2.2-.703 3.117-.469.917-1.133 1.612-1.993 2.086a5.715 5.715 0 0 1-2.781.703c-1.078 0-2.042-.26-2.891-.78a5.03 5.03 0 0 1-1.929-2.134 6.456 6.456 0 0 1-.656-2.86Zm1.562.023c0 1.38.37 2.47 1.109 3.266.745.792 1.678 1.187 2.797 1.187 1.141 0 2.078-.4 2.813-1.203.739-.802 1.109-1.94 1.109-3.414 0-.932-.159-1.745-.476-2.437-.313-.698-.774-1.237-1.383-1.617a3.71 3.71 0 0 0-2.039-.579c-1.073 0-1.998.37-2.774 1.11-.771.734-1.156 1.963-1.156 3.687ZM196.839 54V42.547h5.078c1.021 0 1.797.104 2.328.312.532.203.956.566 1.274 1.086a3.26 3.26 0 0 1 .476 1.727c0 .812-.263 1.497-.789 2.055-.526.557-1.338.911-2.437 1.062.401.193.705.383.914.57a7.88 7.88 0 0 1 1.258 1.524L206.933 54h-1.906l-1.516-2.383a21.61 21.61 0 0 0-1.094-1.578c-.286-.364-.544-.62-.773-.766a2.223 2.223 0 0 0-.688-.304c-.172-.037-.453-.055-.844-.055h-1.757V54h-1.516Zm1.516-6.398h3.257c.693 0 1.235-.07 1.625-.211.391-.146.688-.375.891-.688a1.88 1.88 0 0 0 .305-1.031c0-.542-.198-.987-.594-1.336-.391-.349-1.01-.523-1.859-.523h-3.625v3.789ZM211.508 54v-4.852l-4.414-6.601h1.844L211.195 46c.417.646.805 1.292 1.164 1.938.344-.6.761-1.274 1.25-2.024l2.219-3.367h1.766l-4.571 6.601V54h-1.515Zm-49.274 63v-11.453h3.946c.89 0 1.57.055 2.039.164.656.151 1.216.424 1.679.82.605.511 1.055 1.164 1.352 1.961.302.792.453 1.698.453 2.719 0 .87-.101 1.641-.305 2.312-.203.672-.463 1.23-.781 1.672a4.187 4.187 0 0 1-1.047 1.039c-.375.25-.83.44-1.367.571-.531.13-1.143.195-1.836.195h-4.133Zm1.516-1.352h2.445c.756 0 1.347-.07 1.774-.21.432-.141.776-.339 1.031-.594.359-.36.638-.841.836-1.446.203-.609.305-1.346.305-2.21 0-1.198-.198-2.118-.594-2.758-.391-.646-.867-1.078-1.43-1.297-.406-.156-1.06-.235-1.961-.235h-2.406v8.75ZM174.255 117v-11.453h1.515V117h-1.515Zm3.879-3.68 1.43-.125c.068.573.224 1.045.469 1.414.25.365.635.662 1.156.891.521.224 1.107.336 1.758.336.578 0 1.088-.086 1.531-.258.443-.172.771-.406.984-.703.219-.302.329-.63.329-.984 0-.36-.105-.672-.313-.938-.208-.271-.552-.497-1.031-.68-.307-.119-.987-.304-2.039-.554-1.052-.255-1.789-.495-2.211-.719-.547-.286-.956-.641-1.227-1.062a2.66 2.66 0 0 1-.398-1.43c0-.578.164-1.117.492-1.617.328-.506.807-.888 1.438-1.149.63-.26 1.33-.39 2.101-.39.849 0 1.596.138 2.242.414.651.27 1.151.672 1.5 1.203s.537 1.133.563 1.804l-1.453.11c-.078-.724-.344-1.271-.797-1.641-.448-.37-1.112-.554-1.992-.554-.917 0-1.586.169-2.008.507-.417.334-.625.737-.625 1.211 0 .412.148.75.445 1.016.292.266 1.052.539 2.281.82 1.235.276 2.081.518 2.539.727.667.307 1.159.698 1.477 1.172.318.468.477 1.01.477 1.625 0 .609-.175 1.185-.524 1.726-.349.537-.851.956-1.508 1.258-.651.297-1.385.445-2.203.445-1.036 0-1.906-.151-2.609-.453a3.686 3.686 0 0 1-1.649-1.359 3.917 3.917 0 0 1-.625-2.063Zm11.325 3.68v-11.453h1.516v5.68l5.688-5.68h2.054l-4.804 4.641 5.015 6.812h-2l-4.078-5.797-1.875 1.828V117h-1.516Z" fill="#fff"/></svg>