<svg width="593" height="523" fill="none" xmlns="http://www.w3.org/2000/svg"><path d="M390.25 99.006H233.581v47.827h.038c-.484 11.925 7.155 23.939 22.917 33.039 30.585 17.658 80.174 17.658 110.759 0 15.762-9.1 23.401-21.114 22.917-33.039h.038V99.006Z" fill="#0070CC" stroke="#fff"/><path d="M256.535 68.099c30.585-17.659 80.174-17.659 110.759 0 30.585 17.658 30.585 46.288 0 63.946-30.585 17.659-80.174 17.659-110.759 0-30.585-17.658-30.585-46.288 0-63.946Z" fill="#0070CC" stroke="#fff"/><mask id="a" fill="#fff"><path fill-rule="evenodd" clip-rule="evenodd" d="M377.713 140.044c2.81-1.623 5.088-.307 5.088 2.937 0 3.245-2.278 7.191-5.088 8.813-2.81 1.622-5.088.307-5.088-2.938 0-3.244 2.278-7.19 5.088-8.812Zm-13.709 9.792c2.81-1.623 5.088-.308 5.088 2.937 0 3.245-2.278 7.19-5.088 8.813-2.81 1.622-5.088.307-5.088-2.938s2.278-7.19 5.088-8.812Z"/></mask><path fill-rule="evenodd" clip-rule="evenodd" d="M377.713 140.044c2.81-1.623 5.088-.307 5.088 2.937 0 3.245-2.278 7.191-5.088 8.813-2.81 1.622-5.088.307-5.088-2.938 0-3.244 2.278-7.19 5.088-8.812Zm-13.709 9.792c2.81-1.623 5.088-.308 5.088 2.937 0 3.245-2.278 7.19-5.088 8.813-2.81 1.622-5.088.307-5.088-2.938s2.278-7.19 5.088-8.812Z" fill="#0070CC"/><path d="m377.713 140.044-.5-.866.5.866Zm0 11.75.5.866-.5-.866Zm-13.709-1.958.5.866-.5-.866Zm0 11.75-.5-.866.5.866Zm-5.088-2.938h1-1Zm24.885-15.667c0-1.832-.651-3.387-1.991-4.16-1.339-.773-3.01-.56-4.597.357l1 1.732c1.222-.706 2.095-.647 2.597-.357.503.29.991 1.016.991 2.428h2Zm-5.588 9.679c1.592-.92 2.978-2.458 3.963-4.164.986-1.707 1.625-3.676 1.625-5.515h-2c0 1.406-.5 3.032-1.357 4.515-.856 1.483-2.014 2.729-3.231 3.432l1 1.732Zm-6.588-3.804c0 1.833.651 3.387 1.99 4.16 1.339.773 3.01.56 4.598-.356l-1-1.732c-1.223.706-2.096.646-2.598.356-.502-.29-.99-1.016-.99-2.428h-2Zm5.588-9.678c-1.593.919-2.979 2.457-3.964 4.164-.985 1.706-1.624 3.675-1.624 5.514h2c0-1.405.5-3.031 1.356-4.514.856-1.483 2.014-2.73 3.232-3.432l-1-1.732Zm-7.121 13.595c0-1.833-.651-3.387-1.99-4.16-1.339-.773-3.011-.56-4.598.356l1 1.733c1.223-.706 2.096-.647 2.598-.357.502.29.99 1.016.99 2.428h2Zm-5.588 9.679c1.593-.92 2.979-2.458 3.964-4.164.985-1.707 1.624-3.676 1.624-5.515h-2c0 1.406-.5 3.032-1.356 4.515-.856 1.483-2.015 2.729-3.232 3.432l1 1.732Zm-6.588-3.804c0 1.833.651 3.387 1.99 4.16 1.34.773 3.011.56 4.598-.356l-1-1.732c-1.223.706-2.095.646-2.598.356-.502-.29-.99-1.016-.99-2.428h-2Zm5.588-9.679c-1.593.92-2.978 2.458-3.964 4.164-.985 1.707-1.624 3.676-1.624 5.515h2c0-1.405.5-3.032 1.356-4.515.857-1.483 2.015-2.729 3.232-3.431l-1-1.733Z" fill="#fff" mask="url(#a)"/><path d="M390.25 45.151H233.581v47.827h.038c-.484 11.925 7.155 23.939 22.917 33.039 30.585 17.658 80.174 17.658 110.759 0 15.762-9.1 23.401-21.114 22.917-33.04h.038V45.152Z" fill="#0070CC" stroke="#fff"/><path d="M256.535 14.244c30.585-17.659 80.174-17.659 110.759 0 30.585 17.658 30.585 46.288 0 63.946-30.585 17.659-80.174 17.659-110.759 0-30.585-17.658-30.585-46.288 0-63.946Z" fill="#0070CC" stroke="#fff"/><mask id="b" fill="#fff"><path fill-rule="evenodd" clip-rule="evenodd" d="M377.713 89.126c2.81-1.622 5.088-.307 5.088 2.938s-2.278 7.19-5.088 8.812c-2.81 1.623-5.088.308-5.088-2.937 0-3.245 2.278-7.19 5.088-8.813Zm-13.709 9.792c2.81-1.622 5.088-.307 5.088 2.938 0 3.244-2.278 7.19-5.088 8.812-2.81 1.623-5.088.307-5.088-2.937 0-3.245 2.278-7.191 5.088-8.813Z"/></mask><path fill-rule="evenodd" clip-rule="evenodd" d="M377.713 89.126c2.81-1.622 5.088-.307 5.088 2.938s-2.278 7.19-5.088 8.812c-2.81 1.623-5.088.308-5.088-2.937 0-3.245 2.278-7.19 5.088-8.813Zm-13.709 9.792c2.81-1.622 5.088-.307 5.088 2.938 0 3.244-2.278 7.19-5.088 8.812-2.81 1.623-5.088.307-5.088-2.937 0-3.245 2.278-7.191 5.088-8.813Z" fill="#0070CC"/><path d="m377.713 89.126-.5-.866.5.866Zm0 11.75.5.866-.5-.866Zm-13.709-1.958-.5-.866.5.866Zm0 11.75.5.866-.5-.866Zm-5.088-2.937h1-1Zm24.885-15.667c0-1.833-.651-3.387-1.991-4.16-1.339-.773-3.01-.56-4.597.356l1 1.732c1.222-.706 2.095-.646 2.597-.356.503.29.991 1.016.991 2.428h2Zm-5.588 9.678c1.592-.919 2.978-2.457 3.963-4.163.986-1.707 1.625-3.676 1.625-5.515h-2c0 1.405-.5 3.032-1.357 4.515-.856 1.483-2.014 2.729-3.231 3.431l1 1.732Zm-6.588-3.803c0 1.833.651 3.387 1.99 4.16 1.339.773 3.01.56 4.598-.357l-1-1.732c-1.223.706-2.096.647-2.598.357-.502-.29-.99-1.016-.99-2.428h-2Zm5.588-9.679c-1.593.92-2.979 2.458-3.964 4.164-.985 1.707-1.624 3.676-1.624 5.515h2c0-1.406.5-3.032 1.356-4.515.856-1.483 2.014-2.729 3.232-3.432l-1-1.732Zm-7.121 13.596c0-1.833-.651-3.387-1.99-4.16-1.339-.773-3.011-.56-4.598.356l1 1.732c1.223-.706 2.096-.646 2.598-.356.502.29.99 1.016.99 2.428h2Zm-5.588 9.678c1.593-.919 2.979-2.457 3.964-4.164.985-1.706 1.624-3.675 1.624-5.514h-2c0 1.405-.5 3.031-1.356 4.514-.856 1.483-2.015 2.73-3.232 3.432l1 1.732Zm-6.588-3.803c0 1.832.651 3.387 1.99 4.16 1.34.773 3.011.56 4.598-.357l-1-1.732c-1.223.706-2.095.647-2.598.357-.502-.29-.99-1.016-.99-2.428h-2Zm5.588-9.679c-1.593.92-2.978 2.458-3.964 4.164-.985 1.707-1.624 3.676-1.624 5.515h2c0-1.406.5-3.032 1.356-4.515.857-1.483 2.015-2.729 3.232-3.432l-1-1.732Z" fill="#fff" mask="url(#b)"/><path d="M330.031 94.067c0-9.722 6.873-13.641 15.355-8.76l211.809 122.39c8.427 4.826 15.3 16.653 15.3 26.375l-.412 145.643c0 9.723-6.874 13.628-15.355 8.746L344.905 266.072c-8.455-4.882-15.273-16.694-15.245-26.417l.371-145.588Z" stroke="#fff" stroke-miterlimit="10"/><path d="M331.02 66.014c-6.007-3.48-10.887-.688-10.915 6.216l-.549 177.794c0 6.876 4.825 15.306 10.832 18.785l240.567 138.96c5.994 3.465 10.888.688 10.902-6.216l.508-177.794c0-6.876-4.839-15.32-10.846-18.785L331.02 66.014Z" fill="#0070CC" stroke="#fff" stroke-linejoin="round"/><path d="m323.281 65.244 9.196-5.336c1.98-1.155 4.715-.99 7.74.756l240.526 138.961c6.007 3.465 10.86 11.881 10.846 18.784l-.508 177.795c0 3.424-1.224 5.844-3.176 6.972l-9.183 5.349c1.952-1.141 3.162-3.548 3.162-6.972l.509-177.794c0-6.876-4.839-15.32-10.847-18.785L330.979 66.014a9.51 9.51 0 0 0-5.224-1.485 5.49 5.49 0 0 0-2.515.715h.041Zm5.554 202.726c-6.007-3.465-15.713-3.479-21.679 0l-153.66 89.385c-5.98 3.466-5.939 9.104.068 12.569l240.568 138.892c6.007 3.465 15.726 3.465 21.692 0l153.661-89.386c5.98-3.479 5.938-9.103 0-12.569L328.835 267.97Z" fill="#0070CC" stroke="#fff" stroke-linejoin="round"/><path d="m229.102 336.618 94.853-55.158a11.915 11.915 0 0 1 10.859 0l211.342 122.032c2.997 1.733 3.011 4.552 0 6.285l-94.852 55.171a11.999 11.999 0 0 1-10.86 0L229.157 342.916c-3.01-1.746-3.038-4.552 0-6.298m14.091 71.013 37.748-22.002a13.25 13.25 0 0 1 12.029 0l71.482 41.255c3.341 1.925 3.355 5.046 0 6.972l-37.748 22.002a13.25 13.25 0 0 1-12.028 0l-71.483-41.255c-3.327-1.925-3.354-5.046 0-6.972Z" stroke="#fff" stroke-linejoin="round"/><path d="m245.186 433.443-91.663-52.944c-3.011-1.746-4.523-4.029-4.523-6.325v-10.63c0 2.282 1.498 4.579 4.523 6.325L394.09 508.761c6.007 3.465 15.726 3.465 21.692 0l153.661-89.386a10.415 10.415 0 0 0 3.341-2.915 5.826 5.826 0 0 0 1.113-3.328v10.644c0 2.255-1.484 4.51-4.454 6.229l-153.661 89.386c-5.966 3.479-15.685 3.479-21.692 0L286.563 457.33" fill="#0070CC"/><path d="m245.186 433.443-91.663-52.944c-3.011-1.746-4.523-4.029-4.523-6.325v-10.63c0 2.282 1.498 4.579 4.523 6.325L394.09 508.761c6.007 3.465 15.726 3.465 21.692 0l153.661-89.386a10.415 10.415 0 0 0 3.341-2.915 5.826 5.826 0 0 0 1.113-3.328v10.644c0 2.255-1.484 4.51-4.454 6.229l-153.661 89.386c-5.966 3.479-15.685 3.479-21.692 0L286.563 457.33m294.359-257.953-9.128 5.226m19.562 14.342-9.128 5.226M393.747 509.269v10.438m19.561-9.131v9.131m156.534-100.469v10.437" stroke="#fff" stroke-linejoin="round"/><path d="m245.186 432.921 33.295 19.829 8.646-4.992-33.294-19.829-8.647 4.992Z" stroke="#fff" stroke-linejoin="round"/><path d="m245.186 432.797.014 9.502 33.294 19.94-.014-9.489-33.294-19.953Z" fill="#0070CC" stroke="#fff" stroke-linejoin="round"/><path d="m278.481 452.75.013 9.489 8.647-4.992-.014-9.488-8.646 4.991Z" fill="#0070CC" stroke="#fff" stroke-linejoin="round"/><path d="m278.73 283-103.098-56.637c-10.227-5.618-10.134-15.051.202-20.601L241.5 170.5m-41 160L148 303" stroke="#fff"/><path d="M173.334 237.567H1v44.677h.045c0 8.534 11.895 15.402 35.685 29.137 23.79 13.735 35.686 20.603 50.467 20.603 14.781 0 26.677-6.868 50.467-20.603 23.79-13.735 35.685-20.603 35.685-29.137 0-.18-.005-.36-.015-.538v-44.139Z" fill="#0070CC" stroke="#fff"/><path d="M36.73 208.43c23.79-13.735 35.685-20.603 50.467-20.603 14.781 0 26.676 6.868 50.467 20.603 23.79 13.735 35.685 20.603 35.685 29.137 0 8.534-11.895 15.402-35.685 29.137-23.791 13.735-35.686 20.603-50.467 20.603-14.782 0-26.677-6.868-50.467-20.603-23.79-13.735-35.686-20.603-35.686-29.137 0-8.534 11.896-15.402 35.686-29.137Z" fill="#0070CC" stroke="#fff"/><path fill-rule="evenodd" clip-rule="evenodd" d="M14.232 259.92c-.478-.276-.866-.053-.866.5v29.079c0 .553.388 1.224.867 1.5l4.155 2.4c.478.276.866.052.866-.5v-29.08c0-.552-.388-1.224-.866-1.5l-4.156-2.399Zm9.713 6.313c-.479-.276-.866-.052-.866.5v29.079c0 .553.387 1.224.866 1.5l4.155 2.4c.479.276.867.052.867-.5v-29.08c0-.552-.388-1.224-.866-1.5l-4.156-2.399Zm8.846 6.084c0-.552.388-.776.866-.5l4.156 2.4c.478.276.866.947.866 1.5v29.079c0 .553-.388.776-.866.5l-4.156-2.399c-.478-.276-.866-.948-.866-1.5v-29.08Zm10.579 4.599c-.478-.276-.866-.052-.866.5v29.08c0 .552.388 1.224.866 1.5l4.156 2.399c.478.276.866.052.866-.5v-29.079c0-.553-.388-1.224-.866-1.5l-4.156-2.4Z" fill="#0070CC"/><path d="M13.366 260.42h-.5.5Zm.867-.5.25-.433-.25.433Zm-.867 29.579h.5-.5Zm.867 1.5.25-.433-.25.433Zm4.155 2.4-.25.433.25-.433Zm.866-.5h-.5.5Zm0-29.08h.5-.5Zm-.866-1.5-.25.433.25-.433Zm4.69 4.414h.5-.5Zm.867-.5.25-.433-.25.433Zm-.866 29.579h-.5.5Zm.866 1.5.25-.433-.25.433Zm4.155 2.4-.25.433.25-.433Zm.867-.5h-.5.5Zm0-29.08h.5-.5Zm-.866-1.5.25-.433-.25.433Zm5.556 3.185-.25.433.25-.433Zm4.156 2.4.25-.433-.25.433Zm0 31.079.25-.433-.25.433Zm-4.156-2.399-.25.433.25-.433Zm9.713-25.981-.25.433.25-.433Zm0 31.08-.25.433.25-.433Zm4.156 2.399-.25.433.25-.433Zm.866-.5h-.5.5Zm0-29.079h.5-.5Zm-.866-1.5-.25.433.25-.433Zm-33.66-18.896a.35.35 0 0 1 .022-.14c.006-.012.003 0-.018.012-.02.012-.032.009-.019.01.017.001.06.01.131.051l.5-.866c-.33-.191-.746-.272-1.112-.061-.366.211-.504.612-.504.994h1Zm0 29.079V260.42h-1v29.079h1Zm.617 1.067a1.282 1.282 0 0 1-.43-.463 1.28 1.28 0 0 1-.187-.604h-1c0 .385.132.776.321 1.104.189.327.462.637.796.829l.5-.866Zm4.155 2.4-4.156-2.4-.5.866 4.156 2.4.5-.866Zm.116-.067a.346.346 0 0 1-.021.139c-.006.012-.003 0 .018-.012.02-.012.032-.008.019-.009a.372.372 0 0 1-.132-.051l-.5.866c.33.19.747.272 1.113.06.365-.211.503-.612.503-.993h-1Zm0-29.08v29.08h1v-29.08h-1Zm-.616-1.067c.145.084.305.248.43.464.124.215.186.435.186.603h1c0-.385-.131-.776-.32-1.103-.19-.328-.463-.638-.796-.83l-.5.866Zm-4.156-2.399 4.156 2.399.5-.866-4.156-2.399-.5.866Zm9.597 6.38c0-.082.014-.124.021-.14.006-.012.003 0-.018.012-.02.012-.032.009-.019.01.017.001.061.01.132.051l.5-.866c-.33-.191-.747-.272-1.113-.061-.366.211-.503.612-.503.994h1Zm0 29.079v-29.079h-1v29.079h1Zm.616 1.067a1.282 1.282 0 0 1-.43-.463 1.28 1.28 0 0 1-.186-.604h-1c0 .385.131.777.32 1.104.19.327.463.637.796.829l.5-.866Zm4.155 2.4-4.155-2.4-.5.866 4.155 2.4.5-.866Zm.117-.067a.344.344 0 0 1-.022.139c-.006.012-.003 0 .018-.012.02-.012.032-.008.019-.009a.372.372 0 0 1-.131-.051l-.5.866c.33.19.746.272 1.112.06.366-.211.504-.612.504-.993h-1Zm0-29.08v29.08h1v-29.08h-1Zm-.616-1.067c.145.084.304.248.429.464.124.215.187.435.187.603h1c0-.384-.132-.776-.321-1.103-.19-.328-.462-.638-.796-.83l-.5.866Zm-4.156-2.399 4.155 2.399.5-.866-4.155-2.399-.5.866Zm10.212 4.718c-.33-.19-.746-.272-1.112-.06-.366.211-.504.612-.504.993h1c0-.081.015-.124.022-.139.006-.012.003 0-.018.012-.021.012-.033.008-.02.009a.366.366 0 0 1 .132.051l.5-.866Zm4.156 2.4-4.156-2.4-.5.866 4.156 2.4.5-.866Zm1.116 1.933c0-.385-.132-.777-.32-1.104-.19-.327-.463-.637-.796-.829l-.5.866c.145.084.305.248.43.463.124.216.186.436.186.604h1Zm0 29.079v-29.079h-1v29.079h1Zm-1.616.933c.33.191.746.272 1.112.061.366-.211.504-.612.504-.994h-1a.353.353 0 0 1-.021.14c-.006.012-.004 0 .017-.012s.033-.009.02-.01a.332.332 0 0 1-.132-.051l-.5.866Zm-4.156-2.399 4.156 2.399.5-.866-4.156-2.399-.5.866Zm-1.116-1.933c0 .384.132.776.32 1.103.19.328.463.638.796.83l.5-.866a1.278 1.278 0 0 1-.43-.464 1.274 1.274 0 0 1-.186-.603h-1Zm0-29.08v29.08h1v-29.08h-1Zm10.713 5.099a.35.35 0 0 1 .021-.139c.006-.012.004 0-.017.012s-.033.008-.02.009a.373.373 0 0 1 .132.051l.5-.866c-.33-.19-.746-.272-1.112-.06-.366.211-.504.612-.504.993h1Zm0 29.08v-29.08h-1v29.08h1Zm.616 1.067a1.278 1.278 0 0 1-.43-.464 1.274 1.274 0 0 1-.186-.603h-1c0 .384.132.776.32 1.103.19.328.463.638.796.83l.5-.866Zm4.156 2.399-4.156-2.399-.5.866 4.156 2.399.5-.866Zm.116-.067a.342.342 0 0 1-.022.139c-.006.013-.003.001.018-.011.021-.012.033-.009.02-.01a.332.332 0 0 1-.132-.051l-.5.866c.33.191.746.272 1.112.061.366-.211.504-.613.504-.994h-1Zm0-29.079v29.079h1v-29.079h-1Zm-.616-1.067c.145.083.305.247.429.463.125.216.187.436.187.604h1c0-.385-.132-.777-.321-1.104-.189-.327-.462-.637-.795-.829l-.5.866Zm-4.156-2.4 4.156 2.4.5-.866-4.156-2.4-.5.866Z" fill="#fff"/><path d="M173.334 185.12H1v45.648h.045c0 8.534 11.895 15.402 35.685 29.137 23.79 13.736 35.686 20.603 50.467 20.603 14.781 0 26.677-6.867 50.467-20.603 23.79-13.735 35.685-20.603 35.685-29.137 0-.18-.005-.359-.015-.538v-45.11Z" fill="#0070CC" stroke="#fff"/><path d="M36.73 155.983c23.79-13.735 35.685-20.603 50.467-20.603 14.781 0 26.676 6.868 50.467 20.603 23.79 13.735 35.685 20.603 35.685 29.137 0 8.534-11.895 15.402-35.685 29.137-23.791 13.736-35.686 20.603-50.467 20.603-14.782 0-26.677-6.867-50.467-20.603-23.79-13.735-35.685-20.603-35.685-29.137 0-8.534 11.895-15.402 35.685-29.137Z" fill="#0070CC" stroke="#fff"/><mask id="c" fill="#fff"><path fill-rule="evenodd" clip-rule="evenodd" d="M82.15 148.213c2.788 1.609 7.307 1.609 10.094 0 2.787-1.609 2.787-4.218 0-5.827s-7.306-1.609-10.094 0c-2.787 1.609-2.787 4.218 0 5.827Zm-67.942 39.821c2.787 1.609 7.306 1.609 10.093 0s2.787-4.218 0-5.828c-2.787-1.609-7.306-1.609-10.093 0-2.788 1.61-2.788 4.219 0 5.828Zm138.401 0c2.787 1.609 7.306 1.609 10.093 0s2.787-4.218 0-5.828c-2.787-1.609-7.306-1.609-10.093 0-2.788 1.61-2.788 4.219 0 5.828Zm-60.365 37.392c-2.787 1.61-7.306 1.61-10.094 0-2.787-1.609-2.787-4.218 0-5.827 2.788-1.609 7.307-1.609 10.094 0 2.787 1.609 2.787 4.218 0 5.827Z"/></mask><path fill-rule="evenodd" clip-rule="evenodd" d="M82.15 148.213c2.788 1.609 7.307 1.609 10.094 0 2.787-1.609 2.787-4.218 0-5.827s-7.306-1.609-10.094 0c-2.787 1.609-2.787 4.218 0 5.827Zm-67.942 39.821c2.787 1.609 7.306 1.609 10.093 0s2.787-4.218 0-5.828c-2.787-1.609-7.306-1.609-10.093 0-2.788 1.61-2.788 4.219 0 5.828Zm138.401 0c2.787 1.609 7.306 1.609 10.093 0s2.787-4.218 0-5.828c-2.787-1.609-7.306-1.609-10.093 0-2.788 1.61-2.788 4.219 0 5.828Zm-60.365 37.392c-2.787 1.61-7.306 1.61-10.094 0-2.787-1.609-2.787-4.218 0-5.827 2.788-1.609 7.307-1.609 10.094 0 2.787 1.609 2.787 4.218 0 5.827Z" fill="#0070CC"/><path d="m92.244 148.213-.5-.866.5.866Zm-10.094 0 .5-.866-.5.866Zm10.094-5.827.5-.866-.5.866ZM24.3 188.034l.5.866-.5-.866Zm-10.093 0 .5-.866-.5.866Zm0-5.828-.5-.866.5.866Zm148.494 5.828.5.866-.5-.866Zm0-5.828.5-.866-.5.866Zm-10.093 0-.5-.866.5.866Zm-60.365 43.22.5.866-.5-.866Zm-.5-78.079c-1.206.696-2.85 1.073-4.547 1.073-1.697 0-3.34-.377-4.547-1.073l-1 1.732c1.582.913 3.592 1.341 5.547 1.341 1.956 0 3.965-.428 5.547-1.341l-1-1.732Zm0-4.095c1.211.699 1.59 1.476 1.59 2.048 0 .571-.379 1.348-1.59 2.047l1 1.732c1.576-.909 2.59-2.242 2.59-3.779 0-1.538-1.014-2.87-2.59-3.78l-1 1.732Zm-9.094 0c1.206-.696 2.85-1.073 4.547-1.073 1.698 0 3.341.377 4.547 1.073l1-1.732c-1.582-.913-3.591-1.341-5.547-1.341-1.955 0-3.965.428-5.547 1.341l1 1.732Zm0 4.095c-1.211-.699-1.59-1.476-1.59-2.047 0-.572.379-1.349 1.59-2.048l-1-1.732c-1.575.91-2.59 2.242-2.59 3.78 0 1.537 1.015 2.87 2.59 3.779l1-1.732ZM23.8 187.168c-1.206.696-2.85 1.073-4.547 1.073-1.697 0-3.34-.377-4.546-1.073l-1 1.732c1.581.913 3.59 1.341 5.546 1.341 1.956 0 3.966-.428 5.547-1.341l-1-1.732Zm0-4.095c1.211.699 1.59 1.476 1.59 2.047 0 .572-.379 1.348-1.59 2.048l1 1.732c1.576-.91 2.59-2.242 2.59-3.78 0-1.538-1.014-2.87-2.59-3.78l-1 1.733Zm-9.093 0c1.205-.697 2.849-1.073 4.546-1.073 1.698 0 3.341.376 4.547 1.073l1-1.733c-1.581-.913-3.591-1.34-5.547-1.34-1.955 0-3.965.427-5.546 1.34l1 1.733Zm0 4.095c-1.212-.7-1.59-1.476-1.59-2.048 0-.571.378-1.348 1.59-2.047l-1-1.733c-1.576.91-2.59 2.242-2.59 3.78 0 1.538 1.014 2.87 2.59 3.78l1-1.732Zm147.494 0c-1.206.696-2.849 1.073-4.547 1.073-1.697 0-3.341-.377-4.546-1.073l-1 1.732c1.581.913 3.591 1.341 5.546 1.341 1.956 0 3.966-.428 5.547-1.341l-1-1.732Zm0-4.095c1.211.699 1.59 1.476 1.59 2.047 0 .572-.379 1.348-1.59 2.048l1 1.732c1.576-.91 2.59-2.242 2.59-3.78 0-1.538-1.014-2.87-2.59-3.78l-1 1.733Zm-9.093 0c1.205-.697 2.849-1.073 4.546-1.073 1.698 0 3.341.376 4.547 1.073l1-1.733c-1.581-.913-3.591-1.34-5.547-1.34-1.955 0-3.965.427-5.546 1.34l1 1.733Zm0 4.095c-1.212-.7-1.591-1.476-1.591-2.048 0-.571.379-1.348 1.591-2.047l-1-1.733c-1.576.91-2.591 2.242-2.591 3.78 0 1.538 1.015 2.87 2.591 3.78l1-1.732ZM81.65 226.292c1.582.914 3.592 1.341 5.547 1.341 1.956 0 3.965-.427 5.547-1.341l-1-1.732c-1.206.697-2.85 1.073-4.547 1.073-1.697 0-3.34-.376-4.547-1.073l-1 1.732Zm0-7.559c-1.575.91-2.59 2.242-2.59 3.78 0 1.538 1.015 2.87 2.59 3.779l1-1.732c-1.211-.699-1.59-1.476-1.59-2.047 0-.572.379-1.349 1.59-2.048l-1-1.732Zm11.094 0c-1.582-.913-3.591-1.341-5.547-1.341-1.955 0-3.965.428-5.547 1.341l1 1.732c1.206-.696 2.85-1.073 4.547-1.073 1.698 0 3.341.377 4.547 1.073l1-1.732Zm0 7.559c1.576-.909 2.59-2.241 2.59-3.779 0-1.538-1.014-2.87-2.59-3.78l-1 1.732c1.211.699 1.59 1.476 1.59 2.048 0 .571-.379 1.348-1.59 2.047l1 1.732Z" fill="#fff" mask="url(#c)"/><path d="m364 130 153 88.5M364 150l153 88.5M364 170l153 88.5M364 190l153 88.5M364 210l153 88.5M364 230l74.5 42.5M342 243V94.5L541.5 208v150L342 243Z" stroke="#fff"/></svg>