<svg width="350" height="220" fill="none" xmlns="http://www.w3.org/2000/svg"><path fill="#0070CC" d="M0 0h350v220H0z"/><mask id="a" style="mask-type:alpha" maskUnits="userSpaceOnUse" x="146" y="60" width="204" height="160"><path fill="#fff" fill-opacity=".7" d="M146 60h204v160H146z"/></mask><g mask="url(#a)" fill="#B6DCFA"><path fill-rule="evenodd" clip-rule="evenodd" d="m237.808 126.044 41.958-30.967 41.959 30.967-41.959 30.967-41.958-30.967Zm41.958-32.056 43.434 32.056-43.434 32.056-43.433-32.056 43.433-32.056Z"/><path fill-rule="evenodd" clip-rule="evenodd" d="m238.386 133.1 41.959-30.967 41.958 30.967-41.958 30.967-41.959-30.967Zm41.959-32.055 43.434 32.055-43.434 32.056-43.434-32.056 43.434-32.055Z"/><path fill-rule="evenodd" clip-rule="evenodd" d="m238.386 140.775 41.959-30.967 41.958 30.967-41.958 30.967-41.959-30.967Zm41.959-32.056 43.434 32.056-43.434 32.056-43.434-32.056 43.434-32.056Z"/><path fill-rule="evenodd" clip-rule="evenodd" d="m238.386 148.452 41.959-30.967 41.958 30.967-41.958 30.967-41.959-30.967Zm41.959-32.056 43.434 32.056-43.434 32.056-43.434-32.056 43.434-32.056Z"/><path fill-rule="evenodd" clip-rule="evenodd" d="m238.386 156.129 41.959-30.967 41.958 30.967-41.958 30.967-41.959-30.967Zm41.959-32.056 43.434 32.056-43.434 32.056-43.434-32.056 43.434-32.056Z"/><path fill-rule="evenodd" clip-rule="evenodd" d="m238.378 163.81 41.959-30.966 41.958 30.966-41.958 30.967-41.959-30.967Zm41.959-32.055 43.434 32.055-43.434 32.056-43.434-32.056 43.434-32.055Z"/><path fill-rule="evenodd" clip-rule="evenodd" d="m238.378 171.486 41.959-30.967 41.958 30.967-41.958 30.967-41.959-30.967Zm41.959-32.056 43.434 32.056-43.434 32.056-43.434-32.056 43.434-32.056Z"/><path d="m279.908 86.399-43.434 32.056 43.434 32.055 43.434-32.055-43.434-32.056Z"/><path fill-rule="evenodd" clip-rule="evenodd" d="m167.545 175.104 41.958-30.967 41.959 30.967-41.959 30.967-41.958-30.967Zm41.958-32.056 43.434 32.056-43.434 32.056-43.434-32.056 43.434-32.056Z"/><path fill-rule="evenodd" clip-rule="evenodd" d="m168.123 182.16 41.959-30.966 41.958 30.966-41.958 30.967-41.959-30.967Zm41.959-32.055 43.434 32.055-43.434 32.056-43.434-32.056 43.434-32.055Z"/><path fill-rule="evenodd" clip-rule="evenodd" d="m168.123 189.835 41.959-30.967 41.958 30.967-41.958 30.967-41.959-30.967Zm41.959-32.056 43.434 32.056-43.434 32.056-43.434-32.056 43.434-32.056Z"/><path fill-rule="evenodd" clip-rule="evenodd" d="m168.123 197.512 41.959-30.967 41.958 30.967-41.958 30.967-41.959-30.967Zm41.959-32.056 43.434 32.056-43.434 32.056-43.434-32.056 43.434-32.056Z"/><path fill-rule="evenodd" clip-rule="evenodd" d="m168.123 205.189 41.959-30.967 41.958 30.967-41.958 30.967-41.959-30.967Zm41.959-32.056 43.434 32.056-43.434 32.056-43.434-32.056 43.434-32.056Z"/><path fill-rule="evenodd" clip-rule="evenodd" d="m168.115 212.87 41.959-30.966 41.958 30.966-41.958 30.967-41.959-30.967Zm41.959-32.055 43.434 32.055-43.434 32.056-43.434-32.056 43.434-32.055Z"/><path fill-rule="evenodd" clip-rule="evenodd" d="m168.115 220.546 41.959-30.967 41.958 30.967-41.958 30.967-41.959-30.967Zm41.959-32.056 43.434 32.056-43.434 32.056-43.434-32.056 43.434-32.056Z"/><path d="m209.645 135.459-43.434 32.056 43.434 32.055 43.434-32.055-43.434-32.056Z"/><path fill-rule="evenodd" clip-rule="evenodd" d="m307.809 178.795 41.959-30.967 41.958 30.967-41.958 30.967-41.959-30.967Zm41.959-32.056 43.434 32.056-43.434 32.056-43.434-32.056 43.434-32.056Z"/><path fill-rule="evenodd" clip-rule="evenodd" d="m308.388 185.851 41.958-30.967 41.959 30.967-41.959 30.967-41.958-30.967Zm41.958-32.056 43.434 32.056-43.434 32.056-43.434-32.056 43.434-32.056Z"/><path fill-rule="evenodd" clip-rule="evenodd" d="m308.388 193.526 41.958-30.967 41.959 30.967-41.959 30.967-41.958-30.967Zm41.958-32.056 43.434 32.056-43.434 32.056-43.434-32.056 43.434-32.056Z"/><path fill-rule="evenodd" clip-rule="evenodd" d="m308.388 201.203 41.958-30.967 41.959 30.967-41.959 30.967-41.958-30.967Zm41.958-32.056 43.434 32.056-43.434 32.056-43.434-32.056 43.434-32.056Z"/><path fill-rule="evenodd" clip-rule="evenodd" d="m308.388 208.88 41.958-30.967 41.959 30.967-41.959 30.967-41.958-30.967Zm41.958-32.056 43.434 32.056-43.434 32.056-43.434-32.056 43.434-32.056Z"/><path fill-rule="evenodd" clip-rule="evenodd" d="m308.38 216.561 41.958-30.967 41.959 30.967-41.959 30.967-41.958-30.967Zm41.958-32.055 43.434 32.055-43.434 32.056-43.434-32.056 43.434-32.055Z"/><path fill-rule="evenodd" clip-rule="evenodd" d="m308.38 224.237 41.958-30.967 41.959 30.967-41.959 30.967-41.958-30.967Zm41.958-32.056 43.434 32.056-43.434 32.056-43.434-32.056 43.434-32.056Z"/><path d="m349.909 139.15-43.434 32.056 43.434 32.055 43.434-32.055-43.434-32.056Z"/></g></svg>