<svg width="86" height="24" fill="none" xmlns="http://www.w3.org/2000/svg"><path fill-rule="evenodd" clip-rule="evenodd" d="M0 1.282h22.531V23.89H0V1.282Z" fill="#000"/><path fill-rule="evenodd" clip-rule="evenodd" d="M.652 1.936H21.88v21.3H.651v-21.3Z" fill="#FFF200"/><path fill-rule="evenodd" clip-rule="evenodd" d="m1.778 18.932 2.77 2.832 6.487-6.605L17.74 21.9l2.81-2.791-6.638-6.66 1.276-1.239V8.568l.801-.68v2.07l1.032.844L20.1 7.71l.991.763c.584-2.165-2.796-7.082-5.592-4.358l-3.258 3.241.666.804-1.656 1.62L9.65 8.2l.842-.763-3.57-3.458C4.235 1.759 1.48 5.137 1.384 8.432l.977-.817 3 3.241 1.072-.898V7.969l.665.504v2.601L8.4 12.382l-6.623 6.55Zm26.508-14.94v1.961h.842c1.153-.217.841-1.879 0-1.96h-.842Zm-2.389-1.947v8.88h2.39V8.036l2.035 2.887h2.823l-2.51-3.554c2.905-1.416 1.819-5.284-1.235-5.325h-3.502Zm11.049 4.44c.787 0 1.425.598 1.425 1.334 0 .735-.638 1.335-1.425 1.335-.774 0-1.412-.6-1.412-1.335 0-.736.638-1.335 1.412-1.335Zm-.503-1.962c.652 0 1.263.218 1.765.572v-.34h2.334l.014 6.169h-2.362l.014-.381a3.056 3.056 0 0 1-1.765.558c-1.737 0-3.162-1.47-3.162-3.282 0-1.811 1.425-3.296 3.162-3.296Zm5.349.232h2.483v6.169h-2.483v-6.17Zm1.248-3.528c.72 0 1.303.6 1.303 1.321 0 .722-.583 1.321-1.303 1.321a1.32 1.32 0 0 1 0-2.642Zm18.853 3.528h2.484v6.169h-2.484v-6.17Zm1.235-3.528c.733 0 1.317.6 1.317 1.321a1.32 1.32 0 0 1-1.317 1.321c-.72 0-1.303-.6-1.303-1.32 0-.722.584-1.322 1.303-1.322ZM44.737 4.755v1.96h.855v4.209h2.403V6.716h2.253v4.208h2.484V6.689h1.547V4.782h-1.616V3.407c-.04-.504 1.14-.708 1.548-.3V1.091c-2.28-.721-4.126.573-4.113 2.574v1.09h-2.117V3.407c-.028-.504 1.004-.708 1.6-.3V1.091c-1.98-.585-4.098.382-4.084 2.56v1.09l-.76.014ZM57.82 11.1c2.131-.014 2.918-.899 3.38-2.193h-2.158c-.977 1.253-2.403.341-2.334-.68h4.56c0-2.506-1.33-3.691-3.447-3.691s-3.448 1.498-3.448 3.323 1.547 3.255 3.447 3.241Zm-.8-4.33c.026-.75 1.655-.75 1.764 0H57.02Zm17.712 4.33c2.144-.014 2.932-.899 3.393-2.193h-2.172c-.976 1.253-2.402.341-2.333-.68h4.56c0-2.506-1.316-3.691-3.447-3.691-2.118 0-3.448 1.498-3.448 3.323s1.547 3.255 3.447 3.241Zm-.8-4.33c.026-.75 1.655-.75 1.763 0h-1.764Zm-3.299-1.893L69.9 6.375c-.923-.287-1.819-.232-1.791.027.027.163-.123.449 1.316.654 2.144.34 1.968 4.344-1.629 4.044-.99-.068-1.791-.327-2.456-.722l.8-1.607c1.127.558 2.213.885 2.294.327.096-.695-1.18-.45-1.954-1.035-1.385-.858-.598-3.514 1.67-3.541.8-.054 1.628.082 2.483.355Zm8.497-.123v6.169h2.321V7.15c.068-.94 1.914-1.103 1.928 0v3.773h2.347V7.057c-.054-2.166-2.32-3.215-4.37-1.84v-.462H79.13Zm-51.863 9.941-1.547 9.152h4.384c2.973 0 4.194-3.704 2.077-4.97 1.805-1.676.882-4.195-1.059-4.222l-3.855.04Zm1.778 5.461-.312 1.512h1.018c1.154.055 1.018-1.512.353-1.512h-1.059Zm.516-3.282-.258 1.226.312.014c.937.054 1.48-1.24.353-1.24h-.407Zm3.61 6.987h2.66l.802-1.607h3.013l.447 1.634h2.457l-2.13-9.138h-2.512l-4.737 9.11Zm4.33-3.527h1.656l-.529-2.411-1.127 2.41Zm5.89 3.554h2.458l.624-5.733 3.515 5.706h2.633l1.1-9.166h-2.457l-.692 5.734-3.516-5.761H44.52l-1.126 9.22Zm12.095-9.22-1.724 9.193h2.592l.693-3.432 2.32 3.432h3.407L59.45 19.04l4.248-4.386H60.4l-2.905 3.241.462-3.24-2.47.013Z" fill="#000"/></svg>