<svg width="49" height="48" fill="none" xmlns="http://www.w3.org/2000/svg"><g clip-path="url(#a)"><path d="M8.035 33.876c-2.095-1.72-2.095-4.508 0-6.228L21.203 16.84c2.095-1.72 5.492-1.72 7.587 0l13.168 10.808c2.095 1.72 2.095 4.508 0 6.228L28.79 44.685c-2.095 1.72-5.492 1.72-7.587 0L8.035 33.876Z" fill="#F41921"/><path fill-rule="evenodd" clip-rule="evenodd" d="M22.72 18.085 9.554 28.895c-1.257 1.032-1.257 2.705 0 3.736L22.72 43.44c1.257 1.032 3.295 1.032 4.552 0L40.44 32.63c1.257-1.031 1.257-2.704 0-3.736L27.273 18.086c-1.257-1.032-3.295-1.032-4.552 0ZM8.036 27.648c-2.095 1.72-2.095 4.508 0 6.228l13.168 10.809c2.095 1.72 5.492 1.72 7.587 0l13.168-10.809c2.095-1.72 2.095-4.508 0-6.228L28.79 16.84c-2.095-1.72-5.492-1.72-7.587 0L8.035 27.648Z" fill="#000"/><path d="M8.035 26.667c-2.095-1.72-2.095-4.508 0-6.228L21.203 9.631c2.095-1.72 5.492-1.72 7.587 0l13.168 10.808c2.095 1.72 2.095 4.508 0 6.228L28.79 37.475c-2.095 1.72-5.492 1.72-7.587 0L8.035 26.667Z" fill="#fff"/><path fill-rule="evenodd" clip-rule="evenodd" d="M22.72 10.876 9.554 21.685c-1.257 1.031-1.257 2.704 0 3.736L22.72 36.23c1.257 1.031 3.295 1.031 4.552 0L40.44 25.42c1.257-1.032 1.257-2.705 0-3.736L27.273 10.876c-1.257-1.032-3.295-1.032-4.552 0ZM8.036 20.44c-2.095 1.72-2.095 4.508 0 6.228l13.168 10.808c2.095 1.72 5.492 1.72 7.587 0l13.168-10.808c2.095-1.72 2.095-4.508 0-6.228L28.79 9.631c-2.095-1.72-5.492-1.72-7.587 0L8.035 20.439Z" fill="#000"/><path d="M8.035 20.15c-2.095-1.72-2.095-4.508 0-6.228L21.203 3.114c2.095-1.72 5.492-1.72 7.587 0l13.168 10.808c2.095 1.72 2.095 4.508 0 6.228L28.79 30.958c-2.095 1.72-5.492 1.72-7.587 0L8.035 20.15Z" fill="#fff"/><path fill-rule="evenodd" clip-rule="evenodd" d="M22.72 4.36 9.554 15.167c-1.257 1.032-1.257 2.704 0 3.736l13.166 10.81c1.257 1.032 3.295 1.032 4.552 0L40.44 18.904c1.257-1.032 1.257-2.704 0-3.736L27.273 4.359c-1.257-1.032-3.295-1.032-4.552 0ZM8.036 13.921c-2.095 1.72-2.095 4.508 0 6.228l13.168 10.808c2.095 1.72 5.492 1.72 7.587 0L41.958 20.15c2.095-1.72 2.095-4.508 0-6.228L28.79 3.114c-2.095-1.72-5.492-1.72-7.587 0L8.035 13.922Z" fill="#000"/></g><defs><clipPath id="a"><path fill="#fff" transform="translate(.997)" d="M0 0h48v48H0z"/></clipPath></defs></svg>