<svg width="43" height="39" fill="none" xmlns="http://www.w3.org/2000/svg"><rect x=".9" y=".9" width="40.529" height="37.06" rx="4.1" fill="#fff" stroke="#000" stroke-width="1.8"/><path d="m15.986 23.176-.692.494.448.627.667-.384-.423-.737Zm7.692-4.42.676-.515-.452-.595-.648.373.424.737Zm9.208 13.086a.85.85 0 0 0 .956-.728l1.028-7.58a.85.85 0 1 0-1.685-.229l-.913 6.739-6.739-.913a.85.85 0 1 0-.228 1.684l7.58 1.027ZM7.308 12.494l7.986 11.176 1.383-.988-7.985-11.176-1.384.988Zm9.101 11.419 7.693-4.42-.848-1.474-7.692 4.42.847 1.474Zm6.593-4.643 9.322 12.245 1.352-1.03-9.322-12.244-1.352 1.03Z" fill="#ED1C24"/><path d="M.5 7.5H41" stroke="#000" stroke-width="1.7"/><circle cx="5.5" cy="4.5" r="1.5" fill="#000"/><circle cx="9.5" cy="4.5" r="1.5" fill="#000"/><circle cx="13.5" cy="4.5" r="1.5" fill="#000"/></svg>