<svg width="48" height="48" fill="none" xmlns="http://www.w3.org/2000/svg"><path d="M4.435 20.08H43.26v21.31a5.1 5.1 0 0 1-5.1 5.1H9.536a5.1 5.1 0 0 1-5.1-5.1V20.08Z" fill="#fff" stroke="#000" stroke-width="1.8"/><path d="M43.2 10.09 4.374 19.709l-.842-3.397a6 6 0 0 1 4.381-7.267L35.092 2.31a6 6 0 0 1 7.266 4.381l.842 3.398Z" fill="#fff"/><path d="m43.2 10.09.204.825a.85.85 0 0 0 .621-1.03l-.825.205ZM4.374 19.709l-.825.204.204.825.825-.204-.204-.825ZM42.996 9.265 4.169 18.884l.41 1.65 38.825-9.62-.408-1.65ZM5.199 19.505l-.842-3.398-1.65.41.842 3.396 1.65-.409ZM8.118 9.87l27.178-6.734-.409-1.65L7.71 8.22l.409 1.65Zm33.415-2.973.842 3.397 1.65-.409-.842-3.397-1.65.409Zm-6.237-3.76a5.15 5.15 0 0 1 6.237 3.76l1.65-.409a6.85 6.85 0 0 0-8.296-5.002l.409 1.65ZM4.357 16.106a5.15 5.15 0 0 1 3.76-6.237L7.71 8.22a6.85 6.85 0 0 0-5.002 8.296l1.65-.409Z" fill="#000"/><path d="M4.664 27.643h39.495" stroke="#000" stroke-width="1.8" stroke-linejoin="round"/><path d="m12.563 20.308-4.514 6.77m13.541-6.77-4.513 6.77m13.541-6.77-4.514 6.77m13.541-6.77-4.514 6.77M6.879 10.152l7.838 5.812m-.085-8.069 7.787 6.03m.223-8.287 7.675 6.498m.143-8.139 7.756 6.155" stroke="#000" stroke-width="1.8" stroke-linecap="round" stroke-linejoin="round"/><path d="M21.59 40.62v-9.028l7.9 4.389-7.9 4.639Z" stroke="#ED1C24" stroke-width="1.8" stroke-linecap="round" stroke-linejoin="round"/></svg>