<svg width="673" height="441" fill="none" xmlns="http://www.w3.org/2000/svg"><path d="m170 169.23 172.919-99.616c9.571-5.514 25.089-5.514 34.66 0l172.918 99.616" stroke="#fff"/><path d="M776.243 105.646H413.676v102.168h.095c0 17.954 25.025 32.403 75.077 61.3 50.052 28.898 75.078 43.346 106.176 43.346s56.124-14.448 106.175-43.346c50.052-28.897 75.078-43.346 75.078-61.3a19.4 19.4 0 0 0-.034-1.133V105.646Z" fill="#0070CC" stroke="#fff"/><path d="M488.848 44.346C538.9 15.449 563.925 1 595.024 1c31.098 0 56.123 14.449 106.175 43.346s75.078 43.346 75.078 61.3c0 17.955-25.026 32.404-75.078 61.301-50.052 28.897-75.077 43.346-106.175 43.346-31.099 0-56.124-14.449-106.176-43.346s-75.077-43.346-75.077-61.301c0-17.954 25.025-32.403 75.077-61.3ZM1 122.324l43.875 25.332 87.749 50.662v202.649l-87.75-50.662L1 324.974v-202.65Z" fill="#0070CC" stroke="#fff"/><path transform="matrix(.86603 -.5 0 1 132.624 198.318)" fill="#0070CC" stroke="#fff" d="M0 0h202.649v202.649H0z"/><path d="m176.499 21 43.875 25.331 87.75 50.662-175.5 101.325-87.75-50.662L1 122.324 176.499 21Z" fill="#0070CC" stroke="#fff"/><path fill-rule="evenodd" clip-rule="evenodd" d="M18.078 157.275c-.478-.276-.866-.053-.866.5v30.424c0 .552.388 1.223.866 1.5l6.154 3.553 13.174 7.606c.478.276.866.052.866-.5v-30.424c0-.553-.388-1.224-.866-1.5l-13.174-7.606-6.154-3.553Zm0 79.033c-.478-.276-.866-.052-.866.5v14.212c0 .552.388 1.224.866 1.5l96.548 55.742c.478.276.866.052.866-.5V293.55c0-.553-.388-1.224-.866-1.5l-96.548-55.742Zm0 28.371c-.478-.277-.866-.053-.866.5v14.212c0 .552.388 1.223.866 1.5l96.548 55.741c.478.276.866.053.866-.5V321.92c0-.552-.388-1.224-.866-1.5l-96.548-55.741Zm-.866 28.871c0-.553.388-.777.866-.5l96.548 55.741c.478.276.866.948.866 1.5v14.212c0 .553-.388.776-.866.5l-96.548-55.741c-.478-.277-.866-.948-.866-1.5V293.55Z" fill="#0070CC"/><path d="m18.078 157.275-.25.433.25-.433Zm0 32.424.25-.433-.25.433Zm6.154 3.553-.25.433.25-.433Zm13.174 7.606-.25.433.25-.433Zm.866-.5h-.5.5Zm0-30.424h.5-.5Zm-.866-1.5-.25.433.25-.433Zm-13.174-7.606.25-.433-.25.433Zm-7.02 75.98h-.5.5Zm.866-.5-.25.433.25-.433Zm-.866 14.712h-.5.5Zm.866 1.5-.25.433.25-.433Zm96.548 55.742-.25.433.25-.433Zm0-16.212-.25.433.25-.433Zm-97.414-26.871h-.5.5Zm.866-.5-.25.433.25-.433Zm-.866 14.712h-.5.5Zm.866 1.5.25-.434-.25.434Zm96.548 55.741-.25.433.25-.433Zm0-16.212.25-.433-.25.433Zm-96.548-27.37.25-.433-.25.433Zm-.866.5h-.5.5Zm97.414 55.241-.25.433.25-.433Zm0 16.212-.25.433.25-.433Zm-96.548-55.741.25-.434-.25.434Zm-.866-1.5h-.5.5Zm.5-149.987a.38.38 0 0 1 .021-.14c.006-.012.004 0-.017.012s-.033.009-.02.01c.017.001.061.01.132.051l.5-.866c-.33-.191-.746-.272-1.112-.061-.366.211-.504.612-.504.994h1Zm0 30.424v-30.424h-1v30.424h1Zm.616 1.067a1.278 1.278 0 0 1-.43-.464 1.277 1.277 0 0 1-.186-.603h-1c0 .384.132.776.32 1.103.19.327.463.637.796.83l.5-.866Zm6.154 3.553-6.154-3.553-.5.866 6.154 3.553.5-.866Zm13.174 7.606-13.174-7.606-.5.866 13.174 7.606.5-.866Zm.116-.067a.346.346 0 0 1-.022.139c-.005.012-.003 0 .018-.012.021-.012.033-.008.02-.009a.373.373 0 0 1-.132-.051l-.5.866c.33.19.746.272 1.112.06.366-.211.504-.612.504-.993h-1Zm0-30.424v30.424h1v-30.424h-1Zm-.616-1.067c.145.084.305.248.43.463.124.216.186.436.186.604h1c0-.385-.132-.777-.32-1.104-.19-.327-.463-.637-.796-.829l-.5.866Zm-13.174-7.606 13.174 7.606.5-.866-13.174-7.606-.5.866Zm-6.154-3.553 6.154 3.553.5-.866-6.154-3.553-.5.866Zm-.116 79.1c0-.082.015-.124.021-.139.006-.013.004-.001-.017.011s-.033.009-.02.01c.017.001.061.01.132.051l.5-.866c-.33-.191-.746-.272-1.112-.061-.366.211-.504.613-.504.994h1Zm0 14.212v-14.212h-1v14.212h1Zm.616 1.067a1.278 1.278 0 0 1-.43-.464 1.274 1.274 0 0 1-.186-.603h-1c0 .384.132.776.32 1.103.19.328.463.638.796.83l.5-.866Zm96.548 55.742-96.548-55.742-.5.866 96.548 55.742.5-.866Zm.116-.067a.342.342 0 0 1-.022.139c-.006.012-.003 0 .018-.012.021-.012.033-.008.019-.009a.365.365 0 0 1-.131-.051l-.5.866c.33.19.746.271 1.112.06.366-.211.504-.612.504-.993h-1Zm0-14.212v14.212h1V293.55h-1Zm-.616-1.067c.145.083.304.247.429.463.124.216.187.436.187.604h1c0-.385-.132-.777-.321-1.104-.189-.327-.462-.637-.795-.829l-.5.866Zm-96.548-55.742 96.548 55.742.5-.866-96.548-55.742-.5.866Zm-.116 28.438c0-.082.015-.125.021-.14.006-.012.004 0-.017.012s-.033.008-.02.01c.017.001.061.01.132.051l.5-.866c-.33-.191-.746-.272-1.112-.061-.366.211-.504.612-.504.994h1Zm0 14.212v-14.212h-1v14.212h1Zm.616 1.066a1.265 1.265 0 0 1-.43-.463 1.28 1.28 0 0 1-.186-.603h-1c0 .384.132.776.32 1.103.19.327.463.637.796.83l.5-.867Zm96.548 55.742-96.548-55.742-.5.867 96.548 55.741.5-.866Zm.116-.067a.35.35 0 0 1-.022.14c-.006.012-.003 0 .018-.012.021-.012.033-.009.019-.01a.327.327 0 0 1-.131-.051l-.5.866c.33.191.746.272 1.112.061.366-.211.504-.612.504-.994h-1Zm0-14.212v14.212h1V321.92h-1Zm-.617-1.067c.146.084.305.248.43.464.124.215.187.436.187.603h1c0-.384-.132-.776-.321-1.103-.189-.328-.462-.637-.795-.83l-.501.866Zm-96.547-55.741 96.548 55.741.5-.866-96.548-55.741-.5.866Zm.5 27.505c-.33-.191-.746-.272-1.112-.061-.366.211-.504.612-.504.994h1c0-.082.015-.125.021-.14.006-.012.004 0-.017.012s-.033.008-.02.01c.017.001.061.01.132.051l.5-.866Zm96.548 55.741-96.548-55.741-.5.866 96.548 55.741.5-.866Zm1.116 1.933c0-.384-.132-.776-.321-1.103-.189-.328-.462-.637-.795-.83l-.5.866c.145.084.304.248.429.464.124.215.187.436.187.603h1Zm0 14.212v-14.212h-1v14.212h1Zm-1.616.933c.33.191.746.272 1.112.061.366-.211.504-.612.504-.994h-1a.35.35 0 0 1-.022.14c-.006.012-.003 0 .018-.012.021-.012.033-.009.019-.01a.327.327 0 0 1-.131-.051l-.5.866Zm-96.548-55.741 96.548 55.741.5-.866-96.548-55.742-.5.867Zm-1.116-1.933c0 .384.132.776.32 1.103.19.327.463.637.796.83l.5-.867a1.265 1.265 0 0 1-.43-.463 1.28 1.28 0 0 1-.186-.603h-1Zm0-14.212v14.212h1V293.55h-1Z" fill="#fff"/><path d="m214 256.324 43.875 25.332 87.749 50.662v202.649l-87.749-50.662L214 458.974v-202.65Z" fill="#0070CC" stroke="#fff"/><path transform="matrix(.86603 -.5 0 1 345.624 332.318)" fill="#0070CC" stroke="#fff" d="M0 0h202.649v202.649H0z"/><path d="m389.499 155 43.875 25.331 87.75 50.662-175.5 101.325-87.749-50.662L214 256.324 389.499 155Z" fill="#0070CC" stroke="#fff"/><path fill-rule="evenodd" clip-rule="evenodd" d="M231.078 291.275c-.478-.276-.866-.053-.866.5v30.424c0 .552.388 1.223.866 1.5l6.154 3.553 13.174 7.606c.478.276.866.052.866-.5v-30.424c0-.553-.388-1.224-.866-1.5l-13.174-7.606-6.154-3.553Zm0 79.033c-.478-.276-.866-.052-.866.5v14.212c0 .552.388 1.224.866 1.5l96.548 55.742c.478.276.866.052.866-.5V427.55c0-.553-.388-1.224-.866-1.5l-96.548-55.742Zm0 28.371c-.478-.277-.866-.053-.866.5v14.212c0 .552.388 1.223.866 1.5l96.548 55.741c.478.276.866.053.866-.5V455.92c0-.552-.388-1.224-.866-1.5l-96.548-55.741Zm-.866 28.871c0-.553.388-.777.866-.5l96.548 55.741c.478.276.866.948.866 1.5v14.212c0 .553-.388.776-.866.5l-96.548-55.741c-.478-.277-.866-.948-.866-1.5V427.55Z" fill="#0070CC"/><path d="m231.078 291.275-.25.433.25-.433Zm0 32.424.25-.433-.25.433Zm6.154 3.553-.25.433.25-.433Zm13.174 7.606-.25.433.25-.433Zm.866-.5h-.5.5Zm0-30.424h.5-.5Zm-.866-1.5-.25.433.25-.433Zm-13.174-7.606.25-.433-.25.433Zm-7.02 75.98h-.5.5Zm.866-.5-.25.433.25-.433Zm-.866 14.712h-.5.5Zm.866 1.5.25-.433-.25.433Zm96.548 55.742-.25.433.25-.433Zm0-16.212-.25.433.25-.433Zm-97.414-26.871h-.5.5Zm.866-.5-.25.433.25-.433Zm-.866 14.712h-.5.5Zm.866 1.5-.25.433.25-.433Zm96.548 55.741-.25.433.25-.433Zm0-16.212.25-.433-.25.433Zm-96.548-27.37.25-.433-.25.433Zm-.866.5h-.5.5Zm97.414 55.241.25-.433-.25.433Zm0 16.212-.25.433.25-.433Zm-96.548-55.741.25-.434-.25.434Zm-.866-1.5h-.5.5Zm.5-149.987c0-.082.014-.124.021-.14.006-.012.004 0-.017.012s-.033.009-.019.01c.016.001.06.01.131.051l.5-.866c-.33-.191-.746-.272-1.112-.061-.366.211-.504.612-.504.994h1Zm0 30.424v-30.424h-1v30.424h1Zm.616 1.067a1.275 1.275 0 0 1-.429-.464 1.271 1.271 0 0 1-.187-.603h-1c0 .384.132.776.321 1.103.189.327.462.637.795.83l.5-.866Zm6.154 3.553-6.154-3.553-.5.866 6.154 3.553.5-.866Zm13.174 7.606-13.174-7.606-.5.866 13.174 7.606.5-.866Zm.116-.067a.342.342 0 0 1-.022.139c-.005.012-.003 0 .018-.012.021-.012.033-.008.019-.009a.371.371 0 0 1-.131-.051l-.5.866c.33.19.746.272 1.112.06.366-.211.504-.612.504-.993h-1Zm0-30.424v30.424h1v-30.424h-1Zm-.616-1.067c.145.084.305.248.429.463.125.216.187.436.187.604h1c0-.385-.132-.777-.321-1.104-.189-.327-.462-.637-.795-.829l-.5.866Zm-13.174-7.606 13.174 7.606.5-.866-13.174-7.606-.5.866Zm-6.154-3.553 6.154 3.553.5-.866-6.154-3.553-.5.866Zm-.116 79.1a.32.32 0 0 1 .022-.139c.005-.013.003-.001-.018.011-.021.012-.033.009-.019.01.016.001.06.01.131.051l.5-.866c-.33-.191-.746-.272-1.112-.061-.366.211-.504.613-.504.994h1Zm0 14.212v-14.212h-1v14.212h1Zm.616 1.067a1.275 1.275 0 0 1-.429-.464 1.268 1.268 0 0 1-.187-.603h-1c0 .384.132.776.321 1.103.189.328.462.638.795.83l.5-.866Zm96.548 55.742-96.548-55.742-.5.866 96.548 55.742.5-.866Zm.116-.067a.342.342 0 0 1-.022.139c-.006.012-.003 0 .018-.012.021-.012.033-.008.019-.009a.365.365 0 0 1-.131-.051l-.5.866c.33.19.746.271 1.112.06.366-.211.504-.612.504-.993h-1Zm0-14.212v14.212h1V427.55h-1Zm-.616-1.067c.145.083.304.247.429.463.124.216.187.436.187.604h1c0-.385-.132-.777-.321-1.104-.189-.327-.462-.637-.795-.829l-.5.866Zm-96.548-55.742 96.548 55.742.5-.866-96.548-55.742-.5.866Zm-.116 28.438c0-.082.014-.125.022-.14.005-.012.003 0-.018.012-.021.012-.033.008-.019.01.016.001.06.01.131.051l.5-.866c-.33-.191-.746-.272-1.112-.061-.366.211-.504.612-.504.994h1Zm0 14.212v-14.212h-1v14.212h1Zm.616 1.067a1.275 1.275 0 0 1-.429-.464 1.274 1.274 0 0 1-.187-.603h-1c0 .384.132.776.321 1.103.189.327.462.637.795.83l.5-.866Zm96.548 55.741-96.548-55.741-.5.866 96.548 55.741.5-.866Zm.116-.067a.35.35 0 0 1-.022.14c-.006.012-.003 0 .018-.012.021-.012.033-.009.019-.01a.327.327 0 0 1-.131-.051l-.5.866c.33.191.746.272 1.112.061.366-.211.504-.612.504-.994h-1Zm0-14.212v14.212h1V455.92h-1Zm-.616-1.067c.145.084.304.248.429.464.124.215.187.436.187.603h1c0-.384-.132-.776-.321-1.103-.189-.328-.462-.637-.795-.83l-.5.866Zm-96.548-55.741 96.548 55.741.5-.866-96.548-55.741-.5.866Zm.5 27.505c-.33-.191-.746-.272-1.112-.061-.366.211-.504.612-.504.994h1c0-.082.014-.125.022-.14.005-.012.003 0-.018.012-.021.012-.033.008-.019.01.016.001.06.01.131.051l.5-.866Zm96.548 55.741-96.548-55.741-.5.866 96.548 55.741.5-.866Zm1.116 1.933c0-.384-.132-.776-.321-1.103-.189-.328-.462-.637-.795-.83l-.5.866c.145.084.304.248.429.464.124.215.187.436.187.603h1Zm0 14.212v-14.212h-1v14.212h1Zm-1.616.933c.33.191.746.272 1.112.061.366-.211.504-.612.504-.994h-1a.35.35 0 0 1-.022.14c-.006.012-.003 0 .018-.012.021-.012.033-.009.019-.01a.327.327 0 0 1-.131-.051l-.5.866Zm-96.548-55.741 96.548 55.741.5-.866-96.548-55.742-.5.867Zm-1.116-1.933c0 .384.132.776.321 1.103.189.327.462.637.795.83l.5-.867a1.263 1.263 0 0 1-.429-.463 1.274 1.274 0 0 1-.187-.603h-1Zm0-14.212v14.212h1V427.55h-1Z" fill="#fff"/><path d="m451 396.324 43.875 25.332 87.749 50.662v202.649l-87.749-50.662L451 598.974v-202.65Z" fill="#0070CC" stroke="#fff"/><path transform="matrix(.86603 -.5 0 1 582.624 472.318)" fill="#0070CC" stroke="#fff" d="M0 0h202.649v202.649H0z"/><path d="m626.499 295 43.875 25.331 87.75 50.662-175.5 101.325-87.749-50.662L451 396.324 626.499 295Z" fill="#0070CC" stroke="#fff"/><path fill-rule="evenodd" clip-rule="evenodd" d="M468.078 431.275c-.478-.276-.866-.053-.866.5v30.424c0 .552.388 1.223.866 1.5l6.154 3.553 13.174 7.606c.478.276.866.052.866-.5v-30.424c0-.553-.388-1.224-.866-1.5l-13.174-7.606-6.154-3.553Zm0 79.033c-.478-.276-.866-.052-.866.5v14.212c0 .552.388 1.224.866 1.5l96.548 55.742c.478.276.866.052.866-.5V567.55c0-.553-.388-1.224-.866-1.5l-96.548-55.742Zm0 28.371c-.478-.277-.866-.053-.866.5v14.212c0 .552.388 1.223.866 1.5l96.548 55.741c.478.276.866.053.866-.5V595.92c0-.552-.388-1.224-.866-1.5l-96.548-55.741Zm-.866 28.871c0-.553.388-.777.866-.5l96.548 55.741c.478.276.866.948.866 1.5v14.212c0 .553-.388.776-.866.5l-96.548-55.741c-.478-.277-.866-.948-.866-1.5V567.55Z" fill="#0070CC"/><path d="m468.078 431.275-.25.433.25-.433Zm0 32.424.25-.433-.25.433Zm6.154 3.553-.25.433.25-.433Zm13.174 7.606-.25.433.25-.433Zm.866-.5h-.5.5Zm0-30.424h.5-.5Zm-.866-1.5-.25.433.25-.433Zm-13.174-7.606.25-.433-.25.433Zm-7.02 75.98h-.5.5Zm.866-.5-.25.433.25-.433Zm-.866 14.712h-.5.5Zm.866 1.5.25-.433-.25.433Zm96.548 55.742-.25.433.25-.433Zm0-16.212-.25.433.25-.433Zm-97.414-26.871h-.5.5Zm.866-.5-.25.433.25-.433Zm-.866 14.712h-.5.5Zm.866 1.5-.25.433.25-.433Zm96.548 55.741-.25.433.25-.433Zm0-16.212.25-.433-.25.433Zm-96.548-27.37.25-.433-.25.433Zm-.866.5h-.5.5Zm97.414 55.241.25-.433-.25.433Zm0 16.212-.25.433.25-.433Zm-96.548-55.741.25-.434-.25.434Zm-.866-1.5h-.5.5Zm.5-149.987c0-.082.014-.124.021-.14.006-.012.004 0-.017.012s-.033.009-.019.01c.016.001.06.01.131.051l.5-.866c-.33-.191-.746-.272-1.112-.061-.366.211-.504.612-.504.994h1Zm0 30.424v-30.424h-1v30.424h1Zm.616 1.067a1.275 1.275 0 0 1-.429-.464 1.271 1.271 0 0 1-.187-.603h-1c0 .384.132.776.321 1.103.189.327.462.637.795.83l.5-.866Zm6.154 3.553-6.154-3.553-.5.866 6.154 3.553.5-.866Zm13.174 7.606-13.174-7.606-.5.866 13.174 7.606.5-.866Zm.116-.067a.342.342 0 0 1-.022.139c-.005.012-.003 0 .018-.012.021-.012.033-.008.019-.009a.371.371 0 0 1-.131-.051l-.5.866c.33.19.746.272 1.112.06.366-.211.504-.612.504-.993h-1Zm0-30.424v30.424h1v-30.424h-1Zm-.616-1.067c.145.084.305.248.429.463.125.216.187.436.187.604h1c0-.385-.132-.777-.321-1.104-.189-.327-.462-.637-.795-.829l-.5.866Zm-13.174-7.606 13.174 7.606.5-.866-13.174-7.606-.5.866Zm-6.154-3.553 6.154 3.553.5-.866-6.154-3.553-.5.866Zm-.116 79.1a.32.32 0 0 1 .022-.139c.005-.013.003-.001-.018.011-.021.012-.033.009-.019.01.016.001.06.01.131.051l.5-.866c-.33-.191-.746-.272-1.112-.061-.366.211-.504.613-.504.994h1Zm0 14.212v-14.212h-1v14.212h1Zm.616 1.067a1.275 1.275 0 0 1-.429-.464 1.268 1.268 0 0 1-.187-.603h-1c0 .384.132.776.321 1.103.189.328.462.638.795.83l.5-.866Zm96.548 55.742-96.548-55.742-.5.866 96.548 55.742.5-.866Zm.116-.067a.342.342 0 0 1-.022.139c-.006.012-.003 0 .018-.012.021-.012.033-.008.019-.009a.365.365 0 0 1-.131-.051l-.5.866c.33.19.746.271 1.112.06.366-.211.504-.612.504-.993h-1Zm0-14.212v14.212h1V567.55h-1Zm-.616-1.067c.145.083.304.247.429.463.124.216.187.436.187.604h1c0-.385-.132-.777-.321-1.104-.189-.327-.462-.637-.795-.829l-.5.866Zm-96.548-55.742 96.548 55.742.5-.866-96.548-55.742-.5.866Zm-.116 28.438c0-.082.014-.125.022-.14.005-.012.003 0-.018.012-.021.012-.033.008-.019.01.016.001.06.01.131.051l.5-.866c-.33-.191-.746-.272-1.112-.061-.366.211-.504.612-.504.994h1Zm0 14.212v-14.212h-1v14.212h1Zm.616 1.067a1.275 1.275 0 0 1-.429-.464 1.274 1.274 0 0 1-.187-.603h-1c0 .384.132.776.321 1.103.189.327.462.637.795.83l.5-.866Zm96.548 55.741-96.548-55.741-.5.866 96.548 55.741.5-.866Zm.116-.067a.35.35 0 0 1-.022.14c-.006.012-.003 0 .018-.012.021-.012.033-.009.019-.01a.327.327 0 0 1-.131-.051l-.5.866c.33.191.746.272 1.112.061.366-.211.504-.612.504-.994h-1Zm0-14.212v14.212h1V595.92h-1Zm-.616-1.067c.145.084.304.248.429.464.124.215.187.436.187.603h1c0-.384-.132-.776-.321-1.103-.189-.328-.462-.637-.795-.83l-.5.866Zm-96.548-55.741 96.548 55.741.5-.866-96.548-55.741-.5.866Zm.5 27.505c-.33-.191-.746-.272-1.112-.061-.366.211-.504.612-.504.994h1c0-.082.014-.125.022-.14.005-.012.003 0-.018.012-.021.012-.033.008-.019.01.016.001.06.01.131.051l.5-.866Zm96.548 55.741-96.548-55.741-.5.866 96.548 55.741.5-.866Zm1.116 1.933c0-.384-.132-.776-.321-1.103-.189-.328-.462-.637-.795-.83l-.5.866c.145.084.304.248.429.464.124.215.187.436.187.603h1Zm0 14.212v-14.212h-1v14.212h1Zm-1.616.933c.33.191.746.272 1.112.061.366-.211.504-.612.504-.994h-1a.35.35 0 0 1-.022.14c-.006.012-.003 0 .018-.012.021-.012.033-.009.019-.01a.327.327 0 0 1-.131-.051l-.5.866Zm-96.548-55.741 96.548 55.741.5-.866-96.548-55.742-.5.867Zm-1.116-1.933c0 .384.132.776.321 1.103.189.327.462.637.795.83l.5-.867a1.263 1.263 0 0 1-.429-.463 1.274 1.274 0 0 1-.187-.603h-1Zm0-14.212v14.212h1V567.55h-1Z" fill="#fff"/><path d="M697.356 110.344c-5.991 5.991-18.326 7.959-33.725 6.06-15.341-1.891-33.486-7.602-50.776-16.698-17.289-9.096-30.406-19.834-37.649-29.825-7.27-10.027-8.521-19.143-2.53-25.134 5.991-5.991 18.326-7.959 33.725-6.06 15.342 1.891 33.486 7.602 50.776 16.698 17.289 9.096 30.406 19.834 37.649 29.825 7.27 10.027 8.521 19.143 2.53 25.134Z" stroke="#fff"/><path d="M665.766 131.404c-5.991 5.991-18.326 7.959-33.725 6.061-15.342-1.892-33.487-7.602-50.776-16.699-17.289-9.096-30.407-19.834-37.649-29.824-7.27-10.028-8.521-19.144-2.53-25.135 5.991-5.99 18.326-7.959 33.724-6.06 15.342 1.892 33.487 7.602 50.776 16.698 17.29 9.096 30.407 19.834 37.65 29.825 7.269 10.028 8.52 19.144 2.53 25.134Z" stroke="#fff"/><path d="M620.636 155.473c-5.99 5.991-18.326 7.959-33.724 6.061-15.342-1.892-33.487-7.602-50.776-16.699-17.289-9.096-30.407-19.834-37.65-29.824-7.269-10.028-8.52-19.144-2.529-25.135 5.99-5.99 18.325-7.959 33.724-6.06 15.342 1.892 33.487 7.602 50.776 16.698s30.407 19.834 37.65 29.825c7.269 10.028 8.52 19.143 2.529 25.134Z" stroke="#fff"/></svg>