<svg width="48" height="48" fill="none" xmlns="http://www.w3.org/2000/svg"><path fill-rule="evenodd" clip-rule="evenodd" d="M2.528 33.981 30.974 4.92l1.343 1.372L3.871 35.354 2.528 33.98Zm5.496 5.615L36.47 10.533l1.343 1.372L9.367 40.968l-1.343-1.372Zm5.495 5.614 28.446-29.063 1.343 1.373-28.446 29.062-1.343-1.372Z" fill="#000"/><path d="M27.735 33.831C27.735 41.657 21.527 48 13.868 48 6.208 48 0 41.657 0 33.831c0-7.825 6.209-14.168 13.868-14.168 7.659 0 13.867 6.343 13.867 14.168Z" fill="#fff"/><path fill-rule="evenodd" clip-rule="evenodd" d="M13.868 46.08c6.56 0 11.947-5.445 11.947-12.248 0-6.804-5.387-12.249-11.947-12.249S1.92 27.028 1.92 33.831c0 6.804 5.388 12.249 11.948 12.249Zm0 1.92c7.659 0 13.867-6.343 13.867-14.169 0-7.825-6.208-14.168-13.867-14.168C6.208 19.663 0 26.006 0 33.831 0 41.657 6.209 48 13.868 48Z" fill="#000"/><path d="M22.86 33.793c0 5.096-4.043 9.226-9.03 9.226-4.987 0-9.03-4.13-9.03-9.226 0-5.095 4.043-9.226 9.03-9.226 4.987 0 9.03 4.13 9.03 9.226Z" fill="#fff"/><path fill-rule="evenodd" clip-rule="evenodd" d="M13.83 41.1c3.888 0 7.11-3.233 7.11-7.307s-3.222-7.306-7.11-7.306c-3.888 0-7.11 3.232-7.11 7.306S9.942 41.1 13.83 41.1Zm0 1.92c4.987 0 9.03-4.132 9.03-9.227 0-5.095-4.043-9.226-9.03-9.226-4.987 0-9.03 4.13-9.03 9.226 0 5.096 4.043 9.226 9.03 9.226Z" fill="#000"/><path d="M48 11.443c0 6.32-5.014 11.443-11.2 11.443-6.185 0-11.2-5.123-11.2-11.443C25.6 5.123 30.614 0 36.8 0 42.986 0 48 5.123 48 11.443Z" fill="#fff"/><path fill-rule="evenodd" clip-rule="evenodd" d="M36.8 20.966c5.087 0 9.28-4.225 9.28-9.523S41.887 1.92 36.8 1.92c-5.086 0-9.28 4.225-9.28 9.523s4.194 9.523 9.28 9.523Zm0 1.92c6.186 0 11.2-5.123 11.2-11.443C48 5.123 42.986 0 36.8 0c-6.185 0-11.2 5.123-11.2 11.443 0 6.32 5.014 11.443 11.2 11.443Z" fill="#ED1C24"/><path fill-rule="evenodd" clip-rule="evenodd" d="m43.146 7.47-6.669 8.227-5.362-4.866 1.29-1.422 3.86 3.502 5.39-6.65 1.49 1.21Z" fill="#ED1C24"/></svg>