<svg width="747" height="474" fill="none" xmlns="http://www.w3.org/2000/svg"><mask id="a" style="mask-type:alpha" maskUnits="userSpaceOnUse" x="0" y="0" width="747" height="474"><path fill="#0070CC" d="M0 0h747v474H0z"/></mask><g mask="url(#a)" fill="#0070CC" stroke="#fff"><path d="M655.833 486.212 384.934 329.808V17l270.899 156.404v312.808Z"/><path transform="matrix(-.86603 .5 0 -1 384.934 329.808)" d="M0 0h312.808v312.808H0z"/><path d="m330.044 102.553 180.485 104.203v295.658L330.044 398.211V102.553Z"/><path transform="matrix(.86603 -.5 0 1 511.02 206.722)" d="M.433.25h61.822v295.659H.433z"/><path d="m384.016 70.892 180.485 104.203-53.54 30.911-180.485-104.203 53.54-30.911ZM204.4 175.845l180.485 104.203v295.659L204.4 471.504V175.845Z"/><path transform="matrix(.86603 -.5 0 1 385.376 280.014)" d="M.433.25h61.822v295.659H.433z"/><path d="m258.372 144.184 180.485 104.203-53.539 30.911-180.485-104.203 53.539-30.911Zm-144.337 29.22 270.9 156.403v347.709l-270.9-156.404V173.404Z"/><path d="m384.934 329.808 270.9-156.404v347.709l-270.9 156.404V329.808ZM23 315.731l270.9 156.404 91.034-142.328-270.9-156.403-91.033 142.327Z"/><path d="M746.867 315.731 475.968 472.135l-91.034-142.328 270.899-156.403 91.034 142.327Z"/></g></svg>