<svg width="512" height="493" fill="none" xmlns="http://www.w3.org/2000/svg"><rect width="512" height="493" rx="10" fill="#F6F6F6"/><rect x="147" y="41" width="196" height="117" rx="9" fill="#fff" stroke="#000" stroke-width="2"/><rect x="137" y="47" width="217" height="51" rx="10" fill="#2D2D2D"/><rect x="137" y="99" width="217" height="52" rx="10" fill="#2D2D2D"/><path d="M160.632 74.475c0-.102-.006-.232-.017-.391a7.897 7.897 0 0 0-.068-1.037 3.838 3.838 0 0 0-.051-.442h-1.139V71.5h2.261l.17 1.19h.085a3.761 3.761 0 0 1 1.156-.986c.476-.272 1.054-.408 1.734-.408 1.213 0 2.125.334 2.737 1.003.612.669.918 1.762.918 3.281 0 .714-.108 1.36-.323 1.938a3.978 3.978 0 0 1-.884 1.445 3.93 3.93 0 0 1-1.394.918 4.858 4.858 0 0 1-1.802.323c-.238 0-.453-.011-.646-.034a3.475 3.475 0 0 1-.51-.068 3.119 3.119 0 0 1-.442-.102 6.233 6.233 0 0 1-.476-.17v3.57h-1.309v-8.925Zm3.91-1.938c-.34 0-.663.062-.969.187a3.034 3.034 0 0 0-.799.493c-.227.204-.414.43-.561.68-.147.25-.238.499-.272.748v3.876c.249.17.527.306.833.408.317.09.731.136 1.241.136.907 0 1.632-.295 2.176-.884.544-.6.816-1.473.816-2.618 0-.963-.193-1.706-.578-2.227-.374-.533-1.003-.799-1.887-.799Zm11.422-1.037h2.414v5.797c0 .555.034 1.088.102 1.598h1.139V80h-2.261l-.051-1.445h-.068a3.556 3.556 0 0 1-1.173 1.19c-.487.306-1.076.459-1.768.459-.521 0-.969-.062-1.343-.187a1.84 1.84 0 0 1-.901-.612c-.238-.295-.413-.686-.527-1.173-.113-.499-.17-1.116-.17-1.853v-3.74h-1.139V71.5h2.465v4.607c0 .465.017.884.051 1.258.046.363.131.674.255.935.125.25.306.442.544.578.25.125.578.187.986.187.59 0 1.1-.193 1.53-.578a3.643 3.643 0 0 0 1.003-1.445v-4.403h-1.088V71.5Zm5.15 0h2.023v-1.683l1.326-.374V71.5h4.539v1.139h-4.539v4.012c0 .827.198 1.44.595 1.836.408.397.986.595 1.734.595.51 0 .952-.096 1.326-.289a7.007 7.007 0 0 0 1.037-.629l.442 1.003a4.771 4.771 0 0 1-1.428.765 5.004 5.004 0 0 1-1.683.289c-.454 0-.884-.068-1.292-.204a2.855 2.855 0 0 1-1.054-.595 2.902 2.902 0 0 1-.731-1.037c-.182-.43-.272-.94-.272-1.53v-4.216h-2.023V71.5Zm28.403 12.104a8.424 8.424 0 0 1-2.142-.867 6.157 6.157 0 0 1-1.734-1.479c-.487-.612-.878-1.36-1.173-2.244-.283-.884-.425-1.932-.425-3.145 0-1.201.148-2.25.442-3.145.295-.907.692-1.672 1.19-2.295a5.933 5.933 0 0 1 1.734-1.513 7.276 7.276 0 0 1 2.108-.816l.425 1.071a8.367 8.367 0 0 0-1.836.765 4.715 4.715 0 0 0-1.445 1.241c-.396.51-.708 1.15-.935 1.921-.215.76-.323 1.683-.323 2.771 0 1.1.131 2.04.391 2.822.272.77.624 1.411 1.054 1.921.442.521.93.924 1.462 1.207a5.99 5.99 0 0 0 1.632.612l-.425 1.173Zm50.516-4.539c0-.34.108-.612.323-.816.227-.215.516-.323.867-.323.431 0 .765.153 1.003.459.238.295.357.714.357 1.258 0 .442-.073.827-.221 1.156a2.7 2.7 0 0 1-.561.85 2.55 2.55 0 0 1-.714.561 3.385 3.385 0 0 1-.697.323l-.425-.663a3.01 3.01 0 0 0 1.054-.68c.295-.295.442-.652.442-1.071a1.894 1.894 0 0 1-.374.051c-.328 0-.589-.09-.782-.272-.181-.193-.272-.47-.272-.833Zm63.298 3.366a5.748 5.748 0 0 0 1.615-.612 4.723 4.723 0 0 0 1.462-1.207c.442-.51.794-1.15 1.054-1.921.272-.782.408-1.723.408-2.822 0-1.088-.113-2.012-.34-2.771-.215-.77-.527-1.411-.935-1.921a4.51 4.51 0 0 0-1.428-1.241 8.327 8.327 0 0 0-1.836-.765l.425-1.071c.737.159 1.434.43 2.091.816a5.833 5.833 0 0 1 1.751 1.513c.499.623.896 1.388 1.19 2.295.295.895.442 1.944.442 3.145 0 1.213-.147 2.261-.442 3.145-.283.884-.674 1.632-1.173 2.244a5.843 5.843 0 0 1-1.734 1.479 8.123 8.123 0 0 1-2.125.867l-.425-1.173Z" fill="#fff"/><path d="M213.375 68.1h2.754v7.038h.935l3.349-3.638h1.598l-3.757 4.029 3.094 3.332h1.105V80h-1.751l-3.638-3.842h-.935V80h-1.309V69.239h-1.445V68.1Zm19.378 10.829a4.159 4.159 0 0 1-.731.51 5.036 5.036 0 0 1-.901.408 6.037 6.037 0 0 1-1.037.255 5.618 5.618 0 0 1-1.071.102c-.68 0-1.281-.102-1.802-.306a3.603 3.603 0 0 1-1.309-.901 4.014 4.014 0 0 1-.799-1.411c-.181-.544-.272-1.156-.272-1.836 0-.714.096-1.349.289-1.904.204-.555.493-1.02.867-1.394a3.646 3.646 0 0 1 1.36-.85 4.96 4.96 0 0 1 1.785-.306c.476 0 .946.062 1.411.187.465.125.873.363 1.224.714.363.34.64.816.833 1.428.193.6.261 1.383.204 2.346h-6.579c0 1.02.272 1.785.816 2.295.555.499 1.292.748 2.21.748.306 0 .606-.034.901-.102.306-.08.595-.17.867-.272.272-.102.51-.215.714-.34a3.01 3.01 0 0 0 .493-.34l.527.969Zm-3.587-6.511c-.374 0-.731.04-1.071.119-.329.08-.623.215-.884.408a2.22 2.22 0 0 0-.629.731c-.159.295-.261.663-.306 1.105h5.287c-.057-.748-.3-1.326-.731-1.734-.419-.42-.975-.629-1.666-.629Zm10.675 6.273h.646l2.108-7.191h1.377l-2.363 7.633c-.125.397-.255.844-.391 1.343a6.02 6.02 0 0 1-.544 1.428 3.408 3.408 0 0 1-.969 1.122c-.408.306-.941.459-1.598.459a2.43 2.43 0 0 1-.476-.051 3.7 3.7 0 0 1-.476-.136 2.543 2.543 0 0 1-.442-.17 1.187 1.187 0 0 1-.306-.204l.476-1.224a1.4 1.4 0 0 0 .272.17c.124.057.255.102.391.136.147.045.289.08.425.102.136.034.249.051.34.051.85 0 1.428-.72 1.734-2.159h-1.139l-3.57-8.5h1.53l2.975 7.191Zm7.665.085h2.669v-8.942l-2.72 1.904-.663-.969 3.74-2.669h.952v10.676h2.618V80h-6.596v-1.224Z" fill="#279EFF"/><path d="M282.861 78.351h.187l2.669-6.851h1.479l-3.587 8.5h-1.496l-3.655-8.5h1.564l2.839 6.851Zm7.495-6.188a5.408 5.408 0 0 1 1.649-.612 9.014 9.014 0 0 1 1.802-.187c.578 0 1.049.09 1.411.272.374.181.663.42.867.714.216.283.357.612.425.986.08.363.119.731.119 1.105 0 .43-.011.89-.034 1.377a71.38 71.38 0 0 0-.051 1.462c0 .567.034 1.105.102 1.615h1.139V80h-2.261l-.153-1.275h-.085c-.068.102-.17.232-.306.391a2.903 2.903 0 0 1-.544.476 3.336 3.336 0 0 1-1.921.561c-.838 0-1.501-.215-1.989-.646-.487-.43-.731-1.02-.731-1.768 0-.578.125-1.06.374-1.445.261-.385.629-.68 1.105-.884.476-.204 1.049-.323 1.717-.357.68-.034 1.44.011 2.278.136.057-.521.063-.952.017-1.292-.034-.351-.124-.629-.272-.833a1.055 1.055 0 0 0-.595-.425c-.249-.09-.561-.136-.935-.136-.51 0-.997.074-1.462.221a13.27 13.27 0 0 0-1.241.425l-.425-.986Zm2.499 6.851c.318 0 .612-.051.884-.153a2.694 2.694 0 0 0 1.224-.901c.136-.193.238-.374.306-.544v-1.19a9.612 9.612 0 0 0-1.632-.153c-.498 0-.929.057-1.292.17-.362.102-.646.266-.85.493-.204.227-.306.521-.306.884 0 .374.125.703.374.986.261.272.692.408 1.292.408Zm8.482-10.914h2.822v9.044c0 .691.113 1.179.34 1.462.238.283.583.425 1.037.425.317 0 .617-.057.901-.17.294-.113.617-.306.969-.578l.612.935c-.182.159-.38.3-.595.425a5.194 5.194 0 0 1-.663.323c-.227.08-.454.142-.68.187a3.428 3.428 0 0 1-1.751-.102 1.905 1.905 0 0 1-.833-.51c-.216-.238-.38-.55-.493-.935-.114-.397-.17-.884-.17-1.462v-7.905h-1.496V68.1Zm10.929 10.676h2.669v-8.942l-2.72 1.904-.663-.969 3.74-2.669h.952v10.676h2.618V80h-6.596v-1.224Z" fill="#FFC700"/><path d="M160.632 123.475c0-.102-.006-.232-.017-.391a7.897 7.897 0 0 0-.068-1.037 3.846 3.846 0 0 0-.051-.442h-1.139V120.5h2.261l.17 1.19h.085a3.761 3.761 0 0 1 1.156-.986c.476-.272 1.054-.408 1.734-.408 1.213 0 2.125.334 2.737 1.003.612.669.918 1.762.918 3.281 0 .714-.108 1.36-.323 1.938a3.978 3.978 0 0 1-.884 1.445c-.385.397-.85.703-1.394.918a4.864 4.864 0 0 1-1.802.323c-.238 0-.453-.011-.646-.034a3.435 3.435 0 0 1-.51-.068 3.203 3.203 0 0 1-.442-.102 6.107 6.107 0 0 1-.476-.17v3.57h-1.309v-8.925Zm3.91-1.938c-.34 0-.663.062-.969.187a3.042 3.042 0 0 0-.799.493 2.884 2.884 0 0 0-.561.68 2.006 2.006 0 0 0-.272.748v3.876c.249.17.527.306.833.408.317.091.731.136 1.241.136.907 0 1.632-.295 2.176-.884.544-.601.816-1.473.816-2.618 0-.963-.193-1.706-.578-2.227-.374-.533-1.003-.799-1.887-.799Zm11.422-1.037h2.414v5.797c0 .555.034 1.088.102 1.598h1.139V129h-2.261l-.051-1.445h-.068a3.559 3.559 0 0 1-1.173 1.19c-.487.306-1.076.459-1.768.459-.521 0-.969-.062-1.343-.187a1.837 1.837 0 0 1-.901-.612c-.238-.295-.413-.686-.527-1.173-.113-.499-.17-1.116-.17-1.853v-3.74h-1.139V120.5h2.465v4.607c0 .465.017.884.051 1.258.046.363.131.674.255.935.125.249.306.442.544.578.25.125.578.187.986.187.59 0 1.1-.193 1.53-.578a3.64 3.64 0 0 0 1.003-1.445v-4.403h-1.088V120.5Zm5.15 0h2.023v-1.683l1.326-.374v2.057h4.539v1.139h-4.539v4.012c0 .827.198 1.439.595 1.836.408.397.986.595 1.734.595.51 0 .952-.096 1.326-.289a7.007 7.007 0 0 0 1.037-.629l.442 1.003a4.785 4.785 0 0 1-1.428.765 4.997 4.997 0 0 1-1.683.289c-.454 0-.884-.068-1.292-.204a2.86 2.86 0 0 1-1.054-.595 2.904 2.904 0 0 1-.731-1.037c-.182-.431-.272-.941-.272-1.53v-4.216h-2.023V120.5Zm28.403 12.104a8.446 8.446 0 0 1-2.142-.867 6.157 6.157 0 0 1-1.734-1.479c-.487-.612-.878-1.36-1.173-2.244-.283-.884-.425-1.932-.425-3.145 0-1.201.148-2.25.442-3.145.295-.907.692-1.672 1.19-2.295a5.928 5.928 0 0 1 1.734-1.513 7.293 7.293 0 0 1 2.108-.816l.425 1.071a8.397 8.397 0 0 0-1.836.765 4.72 4.72 0 0 0-1.445 1.241c-.396.51-.708 1.15-.935 1.921-.215.759-.323 1.683-.323 2.771 0 1.099.131 2.04.391 2.822.272.771.624 1.411 1.054 1.921.442.521.93.924 1.462 1.207a5.97 5.97 0 0 0 1.632.612l-.425 1.173Zm50.516-4.539c0-.34.108-.612.323-.816.227-.215.516-.323.867-.323.431 0 .765.153 1.003.459.238.295.357.714.357 1.258 0 .442-.073.827-.221 1.156a2.7 2.7 0 0 1-.561.85 2.55 2.55 0 0 1-.714.561 3.401 3.401 0 0 1-.697.323l-.425-.663a3.01 3.01 0 0 0 1.054-.68c.295-.295.442-.652.442-1.071a1.894 1.894 0 0 1-.374.051c-.328 0-.589-.091-.782-.272-.181-.193-.272-.47-.272-.833Zm52.505 3.366a5.74 5.74 0 0 0 1.615-.612 4.735 4.735 0 0 0 1.462-1.207c.442-.51.793-1.15 1.054-1.921.272-.782.408-1.723.408-2.822 0-1.088-.113-2.012-.34-2.771-.215-.771-.527-1.411-.935-1.921a4.536 4.536 0 0 0-1.428-1.241 8.356 8.356 0 0 0-1.836-.765l.425-1.071a7.053 7.053 0 0 1 2.091.816 5.84 5.84 0 0 1 1.751 1.513c.499.623.895 1.388 1.19 2.295.295.895.442 1.944.442 3.145 0 1.213-.147 2.261-.442 3.145-.283.884-.674 1.632-1.173 2.244a5.843 5.843 0 0 1-1.734 1.479 8.157 8.157 0 0 1-2.125.867l-.425-1.173Z" fill="#fff"/><path d="M213.375 117.1h2.754v7.038h.935l3.349-3.638h1.598l-3.757 4.029 3.094 3.332h1.105V129h-1.751l-3.638-3.842h-.935V129h-1.309v-10.761h-1.445V117.1Zm19.378 10.829a4.191 4.191 0 0 1-.731.51 4.994 4.994 0 0 1-.901.408 6.093 6.093 0 0 1-1.037.255 5.618 5.618 0 0 1-1.071.102c-.68 0-1.281-.102-1.802-.306a3.603 3.603 0 0 1-1.309-.901 4.017 4.017 0 0 1-.799-1.411c-.181-.544-.272-1.156-.272-1.836 0-.714.096-1.349.289-1.904.204-.555.493-1.02.867-1.394a3.65 3.65 0 0 1 1.36-.85 4.96 4.96 0 0 1 1.785-.306c.476 0 .946.062 1.411.187.465.125.873.363 1.224.714.363.34.64.816.833 1.428.193.601.261 1.383.204 2.346h-6.579c0 1.02.272 1.785.816 2.295.555.499 1.292.748 2.21.748.306 0 .606-.034.901-.102a8.57 8.57 0 0 0 .867-.272c.272-.102.51-.215.714-.34a3.03 3.03 0 0 0 .493-.34l.527.969Zm-3.587-6.511c-.374 0-.731.04-1.071.119a2.418 2.418 0 0 0-.884.408 2.216 2.216 0 0 0-.629.731c-.159.295-.261.663-.306 1.105h5.287c-.057-.748-.3-1.326-.731-1.734-.419-.419-.975-.629-1.666-.629Zm10.675 6.273h.646l2.108-7.191h1.377l-2.363 7.633c-.125.397-.255.844-.391 1.343a6.02 6.02 0 0 1-.544 1.428 3.408 3.408 0 0 1-.969 1.122c-.408.306-.941.459-1.598.459a2.43 2.43 0 0 1-.476-.051 3.653 3.653 0 0 1-.476-.136 2.52 2.52 0 0 1-.442-.17 1.187 1.187 0 0 1-.306-.204l.476-1.224a1.4 1.4 0 0 0 .272.17c.124.057.255.102.391.136.147.045.289.079.425.102.136.034.249.051.34.051.85 0 1.428-.72 1.734-2.159h-1.139l-3.57-8.5h1.53l2.975 7.191Zm7.665.085h2.669v-8.942l-2.72 1.904-.663-.969 3.74-2.669h.952v10.676h2.618V129h-6.596v-1.224Z" fill="#279EFF"/><path d="M272.068 127.351h.187l2.669-6.851h1.479l-3.587 8.5h-1.496l-3.655-8.5h1.564l2.839 6.851Zm7.495-6.188a5.414 5.414 0 0 1 1.649-.612 8.992 8.992 0 0 1 1.802-.187c.578 0 1.048.091 1.411.272.374.181.663.419.867.714.215.283.357.612.425.986.079.363.119.731.119 1.105 0 .431-.011.89-.034 1.377-.023.487-.04.975-.051 1.462 0 .567.034 1.105.102 1.615h1.139V129h-2.261l-.153-1.275h-.085c-.068.102-.17.232-.306.391a2.903 2.903 0 0 1-.544.476 3.499 3.499 0 0 1-.799.391c-.317.113-.691.17-1.122.17-.839 0-1.502-.215-1.989-.646-.487-.431-.731-1.02-.731-1.768 0-.578.125-1.06.374-1.445.261-.385.629-.68 1.105-.884.476-.204 1.048-.323 1.717-.357.68-.034 1.439.011 2.278.136.057-.521.062-.952.017-1.292-.034-.351-.125-.629-.272-.833a1.054 1.054 0 0 0-.595-.425c-.249-.091-.561-.136-.935-.136-.51 0-.997.074-1.462.221a13.17 13.17 0 0 0-1.241.425l-.425-.986Zm2.499 6.851a2.5 2.5 0 0 0 .884-.153 2.686 2.686 0 0 0 1.224-.901c.136-.193.238-.374.306-.544v-1.19a9.612 9.612 0 0 0-1.632-.153c-.499 0-.929.057-1.292.17-.363.102-.646.266-.85.493-.204.227-.306.521-.306.884 0 .374.125.703.374.986.261.272.691.408 1.292.408Zm8.481-10.914h2.822v9.044c0 .691.114 1.179.34 1.462.238.283.584.425 1.037.425.318 0 .618-.057.901-.17.295-.113.618-.306.969-.578l.612.935a3.72 3.72 0 0 1-.595.425 5.068 5.068 0 0 1-.663.323 5.022 5.022 0 0 1-.68.187 3.444 3.444 0 0 1-1.751-.102 1.916 1.916 0 0 1-.833-.51c-.215-.238-.379-.55-.493-.935-.113-.397-.17-.884-.17-1.462v-7.905h-1.496V117.1Zm17.271 3.009c0 1.043-.493 2.204-1.479 3.485-.986 1.281-2.363 2.675-4.131 4.182h5.984V129h-7.548v-1.224c.215-.204.51-.47.884-.799.374-.329.776-.691 1.207-1.088.43-.408.867-.844 1.309-1.309.453-.465.861-.941 1.224-1.428.362-.487.657-.975.884-1.462.226-.487.34-.958.34-1.411 0-.68-.182-1.213-.544-1.598-.352-.397-.884-.595-1.598-.595-.612 0-1.128.068-1.547.204a3.75 3.75 0 0 0-1.139.595l-.578-.935a5.495 5.495 0 0 1 1.615-.799 6.664 6.664 0 0 1 1.887-.255c1.065 0 1.87.289 2.414.867.544.578.816 1.36.816 2.346Z" fill="#FFC700"/><path d="M137.098 76.707a1 1 0 0 0 0-1.414l-6.364-6.364a1 1 0 1 0-1.414 1.414L134.977 76l-5.657 5.657a1 1 0 1 0 1.414 1.414l6.364-6.364ZM136.391 75H87v2h49.391v-2ZM75 87v215h2V87h-2Zm12 227h62v-2H87v2Zm-12-12c0 6.627 5.373 12 12 12v-2c-5.523 0-10-4.477-10-10h-2ZM87 75c-6.627 0-12 5.373-12 12h2c0-5.523 4.477-10 10-10v-2Zm267.459 51.707a.999.999 0 0 1 0-1.414l6.364-6.364a.999.999 0 1 1 1.414 1.414L356.58 126l5.657 5.657a1 1 0 0 1-1.414 1.414l-6.364-6.364Zm.707-1.707H420v2h-64.834v-2ZM432 137v230h-2V137h2Zm-12 242h-71v-2h71v2Zm12-12c0 6.627-5.373 12-12 12v-2c5.523 0 10-4.477 10-10h2Zm-12-242c6.627 0 12 5.373 12 12h-2c0-5.523-4.477-10-10-10v-2Z" fill="#2D2D2D"/><path d="m184.231 181.049 24.982 6.611v-35.929l-24.982-6.611-24.543 7.639v35.78l24.543-7.49Z" fill="#fff" stroke="#2D2D2D" stroke-width="2"/><path d="m184.67 159.644-24.982-6.611v43.812l24.982 6.611 24.543-7.639v-43.663l-24.543 7.49Z" fill="#fff" stroke="#2D2D2D" stroke-width="2"/><path d="M184.304 159.573v43.15" stroke="#2D2D2D" stroke-width="2"/><path d="m222.971 199 5.498-14.316h2.041L236.369 199h-2.158l-1.67-4.336h-5.986L224.982 199h-2.011Zm4.131-5.879h4.853l-1.494-3.965c-.456-1.204-.794-2.194-1.016-2.968a18.246 18.246 0 0 1-.771 2.734l-1.572 4.199Zm10.756 9.854v-14.346h1.602v1.348c.377-.528.804-.922 1.279-1.182.475-.267 1.051-.4 1.729-.4.885 0 1.666.227 2.343.683.677.456 1.188 1.1 1.534 1.934.345.827.517 1.735.517 2.724 0 1.062-.192 2.019-.576 2.871-.378.847-.931 1.498-1.66 1.954-.723.449-1.485.673-2.285.673a3.327 3.327 0 0 1-1.582-.371 3.597 3.597 0 0 1-1.143-.937v5.049h-1.758Zm1.592-9.102c0 1.335.27 2.321.811 2.959.54.638 1.194.957 1.962.957.782 0 1.449-.329 2.002-.986.56-.664.84-1.69.84-3.076 0-1.322-.273-2.312-.82-2.969-.54-.658-1.188-.987-1.943-.987-.749 0-1.413.352-1.993 1.055-.573.697-.859 1.712-.859 3.047Zm9.741 9.102v-14.346h1.602v1.348c.377-.528.804-.922 1.279-1.182.475-.267 1.051-.4 1.728-.4.886 0 1.667.227 2.344.683.677.456 1.188 1.1 1.533 1.934.345.827.518 1.735.518 2.724 0 1.062-.192 2.019-.576 2.871-.378.847-.931 1.498-1.66 1.954-.723.449-1.485.673-2.286.673a3.33 3.33 0 0 1-1.582-.371 3.604 3.604 0 0 1-1.142-.937v5.049h-1.758Zm1.592-9.102c0 1.335.27 2.321.81 2.959.541.638 1.195.957 1.963.957.781 0 1.449-.329 2.002-.986.56-.664.84-1.69.84-3.076 0-1.322-.273-2.312-.82-2.969-.541-.658-1.188-.987-1.944-.987-.748 0-1.412.352-1.992 1.055-.573.697-.859 1.712-.859 3.047Zm9.702 5.127v-14.316h1.758V199h-1.758Zm4.702-12.295v-2.021h1.758v2.021h-1.758Zm0 12.295v-10.371h1.758V199h-1.758Zm11.411-3.799 1.728.225c-.189 1.191-.674 2.125-1.455 2.803-.775.67-1.728 1.005-2.861 1.005-1.42 0-2.562-.462-3.428-1.386-.859-.931-1.289-2.263-1.289-3.994 0-1.12.186-2.1.557-2.94.371-.84.934-1.468 1.689-1.885a5.028 5.028 0 0 1 2.481-.634c1.126 0 2.047.286 2.763.859.716.566 1.175 1.374 1.377 2.422l-1.709.263c-.163-.696-.452-1.22-.869-1.572-.41-.351-.908-.527-1.494-.527-.886 0-1.605.319-2.158.957-.554.631-.83 1.634-.83 3.008 0 1.393.267 2.405.8 3.037.534.631 1.231.947 2.09.947.69 0 1.267-.212 1.729-.635.462-.423.755-1.074.879-1.953Zm10.2 2.52c-.651.553-1.28.944-1.885 1.172a5.414 5.414 0 0 1-1.934.341c-1.139 0-2.015-.276-2.627-.83-.612-.56-.918-1.272-.918-2.138 0-.508.114-.97.342-1.387a2.93 2.93 0 0 1 .908-1.016 4.334 4.334 0 0 1 1.27-.576c.345-.091.866-.179 1.562-.264 1.42-.169 2.465-.371 3.135-.605.007-.241.01-.394.01-.459 0-.716-.166-1.221-.498-1.514-.449-.397-1.117-.595-2.002-.595-.827 0-1.439.146-1.836.439-.391.287-.68.798-.869 1.533l-1.719-.234c.156-.736.414-1.328.772-1.777.358-.456.875-.804 1.552-1.045.677-.248 1.462-.371 2.354-.371.885 0 1.605.104 2.158.312.553.208.96.472 1.221.791.26.313.442.71.547 1.191.058.3.088.84.088 1.622v2.343c0 1.634.035 2.67.107 3.106.078.429.228.843.449 1.24h-1.836a3.734 3.734 0 0 1-.351-1.279Zm-.147-3.926c-.638.26-1.595.482-2.871.664-.723.104-1.234.221-1.533.352-.3.13-.531.322-.693.576a1.475 1.475 0 0 0-.245.83c0 .469.176.859.528 1.172.358.312.879.468 1.562.468.677 0 1.28-.146 1.807-.439.527-.3.915-.706 1.162-1.221.189-.397.283-.983.283-1.758v-.644Zm8.55 3.633.254 1.552a6.473 6.473 0 0 1-1.328.157c-.638 0-1.133-.101-1.485-.303-.351-.202-.599-.466-.742-.791-.143-.332-.215-1.025-.215-2.08v-5.967h-1.289v-1.367h1.289v-2.568l1.748-1.055v3.623h1.768v1.367h-1.768v6.065c0 .501.03.823.088.966a.76.76 0 0 0 .303.342c.143.085.345.127.605.127a5.8 5.8 0 0 0 .772-.068Zm1.938-10.723v-2.021h1.758v2.021h-1.758Zm0 12.295v-10.371h1.758V199h-1.758Zm3.989-5.186c0-1.92.534-3.343 1.602-4.267.892-.768 1.979-1.152 3.261-1.152 1.426 0 2.592.468 3.497 1.406.904.931 1.357 2.22 1.357 3.867 0 1.335-.202 2.386-.606 3.154a4.22 4.22 0 0 1-1.748 1.778 5.061 5.061 0 0 1-2.5.634c-1.451 0-2.627-.465-3.525-1.396-.892-.931-1.338-2.272-1.338-4.024Zm1.807 0c0 1.329.289 2.325.869 2.989.579.657 1.309.986 2.187.986.873 0 1.599-.332 2.178-.996.58-.664.869-1.676.869-3.037 0-1.283-.293-2.253-.879-2.91-.579-.664-1.302-.996-2.168-.996-.878 0-1.608.328-2.187.986-.58.657-.869 1.65-.869 2.978Zm10.18 5.186v-10.371h1.582v1.475c.762-1.14 1.862-1.709 3.301-1.709.625 0 1.198.113 1.719.341.527.222.921.515 1.181.879.261.365.443.798.547 1.299.065.326.098.895.098 1.709V199h-1.758v-6.309c0-.716-.068-1.25-.205-1.601a1.665 1.665 0 0 0-.732-.85c-.345-.215-.752-.322-1.221-.322-.749 0-1.397.238-1.943.713-.541.475-.811 1.377-.811 2.705V199h-1.758Z" fill="#2D2D2D"/><path d="M132.782 351.767V291.32s11.659 10.138 45.932 10.138 45.86-11.079 45.86-11.079v61.388c-14.298 21.006-85.284 14.729-91.792 0Z" fill="#E0454C"/><path d="M131.782 394.458v-62.632s11.857 12.115 46.13 12.115 45.662-12.115 45.662-12.115l.969 62.632c-14.575 18.287-83.89 14.858-92.761 0Z" fill="#0070CC"/><path d="M224.652 287.504c0 1.614-1.025 3.327-3.3 5.04-2.258 1.7-5.595 3.274-9.822 4.613-8.442 2.676-20.21 4.347-33.378 4.347-13.169 0-24.937-1.671-33.379-4.347-4.226-1.339-7.563-2.913-9.822-4.613-2.275-1.713-3.299-3.426-3.299-5.04 0-1.614 1.024-3.327 3.299-5.04 2.259-1.7 5.596-3.274 9.822-4.613 8.442-2.676 20.21-4.347 33.379-4.347 13.168 0 24.936 1.671 33.378 4.347 4.227 1.339 7.564 2.913 9.822 4.613 2.275 1.713 3.3 3.426 3.3 5.04Z" fill="#E0454C" stroke="#2D2D2D" stroke-width="2"/><path d="m131.652 286.504.35 107.263m92.65-107.263v108m.088-1.557c0 7.956-20.76 14.406-46.369 14.406-25.609 0-46.369-6.45-46.369-14.406m92.738-64c0 7.956-20.76 14.406-46.369 14.406-25.609 0-46.369-6.45-46.369-14.406" stroke="#2D2D2D" stroke-width="2"/><path d="M144.188 327v-11.453h2.281l2.711 8.109c.25.755.432 1.321.547 1.696.13-.417.333-1.029.609-1.836l2.742-7.969h2.039V327h-1.461v-9.586L150.328 327h-1.367l-3.313-9.75V327h-1.46Zm13.606 0v-11.453h8.281v1.351h-6.766v3.508h6.336v1.344h-6.336v3.898h7.032V327h-8.547Zm10.793 0v-11.453h2.282l2.711 8.109c.25.755.432 1.321.547 1.696.13-.417.333-1.029.609-1.836l2.742-7.969h2.039V327h-1.461v-9.586L174.728 327h-1.367l-3.313-9.75V327h-1.461Zm13.115-5.578c0-1.901.51-3.388 1.531-4.461 1.021-1.078 2.338-1.617 3.953-1.617 1.057 0 2.01.252 2.859.758a4.916 4.916 0 0 1 1.938 2.117c.448.901.672 1.924.672 3.07 0 1.162-.235 2.201-.703 3.117-.469.917-1.133 1.612-1.993 2.086a5.711 5.711 0 0 1-2.781.703c-1.078 0-2.042-.26-2.891-.781a5.03 5.03 0 0 1-1.929-2.133 6.456 6.456 0 0 1-.656-2.859Zm1.562.023c0 1.381.37 2.469 1.109 3.266.745.792 1.678 1.187 2.797 1.187 1.141 0 2.078-.401 2.813-1.203.739-.802 1.109-1.94 1.109-3.414 0-.932-.159-1.745-.476-2.437-.313-.698-.774-1.237-1.383-1.617a3.707 3.707 0 0 0-2.039-.579c-1.073 0-1.998.37-2.774 1.11-.771.734-1.156 1.963-1.156 3.687ZM194.839 327v-11.453h5.078c1.021 0 1.797.104 2.328.312.532.203.956.565 1.274 1.086a3.26 3.26 0 0 1 .476 1.727c0 .812-.263 1.497-.789 2.055-.526.557-1.338.911-2.437 1.062.401.193.705.383.914.57a7.88 7.88 0 0 1 1.258 1.524l1.992 3.117h-1.906l-1.516-2.383a21.828 21.828 0 0 0-1.094-1.578c-.286-.365-.544-.62-.773-.766a2.235 2.235 0 0 0-.688-.304c-.172-.037-.453-.055-.844-.055h-1.757V327h-1.516Zm1.516-6.398h3.257c.693 0 1.235-.071 1.625-.211.391-.146.688-.375.891-.688a1.88 1.88 0 0 0 .305-1.031c0-.542-.198-.987-.594-1.336-.391-.349-1.01-.524-1.859-.524h-3.625v3.79ZM209.508 327v-4.852l-4.414-6.601h1.844l2.257 3.453c.417.646.805 1.292 1.164 1.938.344-.599.761-1.274 1.25-2.024l2.219-3.367h1.766l-4.571 6.601V327h-1.515Zm-49.274 63v-11.453h3.946c.89 0 1.57.055 2.039.164.656.151 1.216.424 1.679.82.605.511 1.055 1.164 1.352 1.961.302.792.453 1.698.453 2.719 0 .87-.101 1.641-.305 2.312-.203.672-.463 1.23-.781 1.672a4.187 4.187 0 0 1-1.047 1.039c-.375.25-.83.44-1.367.571-.531.13-1.143.195-1.836.195h-4.133Zm1.516-1.352h2.445c.756 0 1.347-.07 1.774-.21.432-.141.776-.339 1.031-.594.359-.36.638-.841.836-1.446.203-.609.305-1.346.305-2.21 0-1.198-.198-2.118-.594-2.758-.391-.646-.867-1.078-1.43-1.297-.406-.156-1.06-.235-1.961-.235h-2.406v8.75ZM172.255 390v-11.453h1.515V390h-1.515Zm3.879-3.68 1.43-.125c.068.573.224 1.045.469 1.414.25.365.635.662 1.156.891.521.224 1.107.336 1.758.336.578 0 1.088-.086 1.531-.258.443-.172.771-.406.984-.703.219-.302.329-.63.329-.984 0-.36-.105-.672-.313-.938-.208-.271-.552-.497-1.031-.68-.307-.119-.987-.304-2.039-.554-1.052-.255-1.789-.495-2.211-.719-.547-.286-.956-.641-1.227-1.062a2.66 2.66 0 0 1-.398-1.43c0-.578.164-1.117.492-1.617.328-.506.807-.888 1.438-1.149.63-.26 1.33-.39 2.101-.39.849 0 1.596.138 2.242.414.651.27 1.151.672 1.5 1.203s.537 1.133.563 1.804l-1.453.11c-.078-.724-.344-1.271-.797-1.641-.448-.37-1.112-.554-1.992-.554-.917 0-1.586.169-2.008.507-.417.334-.625.737-.625 1.211 0 .412.148.75.445 1.016.292.266 1.052.539 2.281.82 1.235.276 2.081.518 2.539.727.667.307 1.159.698 1.477 1.172.318.468.477 1.01.477 1.625 0 .609-.175 1.185-.524 1.726-.349.537-.851.956-1.508 1.258-.651.297-1.385.445-2.203.445-1.036 0-1.906-.151-2.609-.453a3.686 3.686 0 0 1-1.649-1.359 3.917 3.917 0 0 1-.625-2.063Zm11.325 3.68v-11.453h1.516v5.68l5.688-5.68h2.054l-4.804 4.641 5.015 6.812h-2l-4.078-5.797-1.875 1.828V390h-1.516Z" fill="#fff"/><path d="M292.124 351.767V291.32s11.659 10.138 45.932 10.138 45.86-11.079 45.86-11.079v61.388c-14.298 21.006-85.284 14.729-91.792 0Z" fill="#E0454C"/><path d="M291.124 394.458v-62.632s11.857 12.115 46.13 12.115 45.662-12.115 45.662-12.115l.969 62.632c-14.575 18.287-83.891 14.858-92.761 0Z" fill="#0070CC"/><path d="M383.993 287.504c0 1.614-1.024 3.327-3.299 5.04-2.259 1.7-5.596 3.274-9.822 4.613-8.442 2.676-20.21 4.347-33.379 4.347-13.168 0-24.936-1.671-33.378-4.347-4.227-1.339-7.563-2.913-9.822-4.613-2.275-1.713-3.3-3.426-3.3-5.04 0-1.614 1.025-3.327 3.3-5.04 2.259-1.7 5.595-3.274 9.822-4.613 8.442-2.676 20.21-4.347 33.378-4.347 13.169 0 24.937 1.671 33.379 4.347 4.226 1.339 7.563 2.913 9.822 4.613 2.275 1.713 3.299 3.426 3.299 5.04Z" fill="#E0454C" stroke="#000" stroke-width="2"/><path d="m290.993 286.504.351 107.263m92.649-107.263v108m.089-1.557c0 7.956-20.76 14.406-46.369 14.406-25.609 0-46.369-6.45-46.369-14.406m92.738-64c0 7.956-20.76 14.406-46.369 14.406-25.609 0-46.369-6.45-46.369-14.406" stroke="#000" stroke-width="2"/><path d="M303.188 327v-11.453h2.281l2.711 8.109c.25.755.432 1.321.547 1.696.13-.417.333-1.029.609-1.836l2.742-7.969h2.039V327h-1.461v-9.586L309.328 327h-1.367l-3.313-9.75V327h-1.46Zm13.606 0v-11.453h8.281v1.351h-6.766v3.508h6.336v1.344h-6.336v3.898h7.032V327h-8.547Zm10.793 0v-11.453h2.282l2.711 8.109c.25.755.432 1.321.547 1.696.13-.417.333-1.029.609-1.836l2.742-7.969h2.039V327h-1.461v-9.586L333.728 327h-1.367l-3.313-9.75V327h-1.461Zm13.115-5.578c0-1.901.51-3.388 1.531-4.461 1.021-1.078 2.338-1.617 3.953-1.617 1.057 0 2.01.252 2.859.758a4.916 4.916 0 0 1 1.938 2.117c.448.901.672 1.924.672 3.07 0 1.162-.235 2.201-.703 3.117-.469.917-1.133 1.612-1.993 2.086a5.711 5.711 0 0 1-2.781.703c-1.078 0-2.042-.26-2.891-.781a5.03 5.03 0 0 1-1.929-2.133 6.456 6.456 0 0 1-.656-2.859Zm1.562.023c0 1.381.37 2.469 1.109 3.266.745.792 1.678 1.187 2.797 1.187 1.141 0 2.078-.401 2.813-1.203.739-.802 1.109-1.94 1.109-3.414 0-.932-.159-1.745-.476-2.437-.313-.698-.774-1.237-1.383-1.617a3.707 3.707 0 0 0-2.039-.579c-1.073 0-1.998.37-2.774 1.11-.771.734-1.156 1.963-1.156 3.687ZM353.839 327v-11.453h5.078c1.021 0 1.797.104 2.328.312.532.203.956.565 1.274 1.086a3.26 3.26 0 0 1 .476 1.727c0 .812-.263 1.497-.789 2.055-.526.557-1.338.911-2.437 1.062.401.193.705.383.914.57a7.88 7.88 0 0 1 1.258 1.524l1.992 3.117h-1.906l-1.516-2.383a21.828 21.828 0 0 0-1.094-1.578c-.286-.365-.544-.62-.773-.766a2.235 2.235 0 0 0-.688-.304c-.172-.037-.453-.055-.844-.055h-1.757V327h-1.516Zm1.516-6.398h3.257c.693 0 1.235-.071 1.625-.211.391-.146.688-.375.891-.688a1.88 1.88 0 0 0 .305-1.031c0-.542-.198-.987-.594-1.336-.391-.349-1.01-.524-1.859-.524h-3.625v3.79ZM368.508 327v-4.852l-4.414-6.601h1.844l2.257 3.453c.417.646.805 1.292 1.164 1.938.344-.599.761-1.274 1.25-2.024l2.219-3.367h1.766l-4.571 6.601V327h-1.515Zm-49.274 63v-11.453h3.946c.89 0 1.57.055 2.039.164.656.151 1.216.424 1.679.82.605.511 1.055 1.164 1.352 1.961.302.792.453 1.698.453 2.719 0 .87-.101 1.641-.305 2.312-.203.672-.463 1.23-.781 1.672a4.187 4.187 0 0 1-1.047 1.039c-.375.25-.83.44-1.367.571-.531.13-1.143.195-1.836.195h-4.133Zm1.516-1.352h2.445c.756 0 1.347-.07 1.774-.21.432-.141.776-.339 1.031-.594.359-.36.638-.841.836-1.446.203-.609.305-1.346.305-2.21 0-1.198-.198-2.118-.594-2.758-.391-.646-.867-1.078-1.43-1.297-.406-.156-1.06-.235-1.961-.235h-2.406v8.75ZM331.255 390v-11.453h1.515V390h-1.515Zm3.879-3.68 1.43-.125c.068.573.224 1.045.469 1.414.25.365.635.662 1.156.891.521.224 1.107.336 1.758.336.578 0 1.088-.086 1.531-.258.443-.172.771-.406.984-.703.219-.302.329-.63.329-.984 0-.36-.105-.672-.313-.938-.208-.271-.552-.497-1.031-.68-.307-.119-.987-.304-2.039-.554-1.052-.255-1.789-.495-2.211-.719-.547-.286-.956-.641-1.227-1.062a2.66 2.66 0 0 1-.398-1.43c0-.578.164-1.117.492-1.617.328-.506.807-.888 1.438-1.149.63-.26 1.33-.39 2.101-.39.849 0 1.596.138 2.242.414.651.27 1.151.672 1.5 1.203s.537 1.133.563 1.804l-1.453.11c-.078-.724-.344-1.271-.797-1.641-.448-.37-1.112-.554-1.992-.554-.917 0-1.586.169-2.008.507-.417.334-.625.737-.625 1.211 0 .412.148.75.445 1.016.292.266 1.052.539 2.281.82 1.235.276 2.081.518 2.539.727.667.307 1.159.698 1.477 1.172.318.468.477 1.01.477 1.625 0 .609-.175 1.185-.524 1.726-.349.537-.851.956-1.508 1.258-.651.297-1.385.445-2.203.445-1.036 0-1.906-.151-2.609-.453a3.686 3.686 0 0 1-1.649-1.359 3.917 3.917 0 0 1-.625-2.063Zm11.325 3.68v-11.453h1.516v5.68l5.688-5.68h2.054l-4.804 4.641 5.015 6.812h-2l-4.078-5.797-1.875 1.828V390h-1.516Z" fill="#fff"/><path d="M320.076 419.565s-10.499 6.5-.604 12.953c1.903 1.257 8.807 4.753 8.611 7.987 0 0 4.184-6.285-1.934-10.24-6.284-4.047-7.856-8.37-6.073-10.7Z" fill="#ED1C24"/><path d="M316.42 431.982s-3.746 5.764 3.626 6.944c.725.092 6.058.659 7.448 2.438 0 0-.121-3.066-4.472-4.875-4.336-1.809-6.118-2.254-6.602-4.507Zm14.503-6.055c-4.502-4.783-5.756-7.742-3.822-11.574 0 0-13.43 5.242-.166 14.548 4.744 3.326 3.958 6.729 3.958 6.852.74-.782 4.532-5.044.03-9.826Z" fill="#ED1C24"/><path d="M338.219 437v-11.453h1.554l6.016 8.992v-8.992h1.453V437h-1.554l-6.016-9v9h-1.453Zm11.317-5.578c0-1.901.51-3.388 1.531-4.461 1.021-1.078 2.339-1.617 3.953-1.617 1.058 0 2.011.252 2.86.758a4.914 4.914 0 0 1 1.937 2.117c.448.901.672 1.924.672 3.07 0 1.162-.234 2.201-.703 3.117-.469.917-1.133 1.612-1.992 2.086a5.718 5.718 0 0 1-2.782.703c-1.078 0-2.041-.26-2.89-.781a5.033 5.033 0 0 1-1.93-2.133 6.47 6.47 0 0 1-.656-2.859Zm1.562.023c0 1.381.37 2.469 1.11 3.266.745.792 1.677 1.187 2.797 1.187 1.14 0 2.078-.401 2.812-1.203.74-.802 1.11-1.94 1.11-3.414 0-.932-.159-1.745-.477-2.437-.313-.698-.773-1.237-1.383-1.617a3.707 3.707 0 0 0-2.039-.579 3.88 3.88 0 0 0-2.773 1.11c-.771.734-1.157 1.963-1.157 3.687ZM362.65 437v-11.453h3.945c.891 0 1.571.055 2.039.164.657.151 1.217.424 1.68.82.604.511 1.055 1.164 1.352 1.961.302.792.453 1.698.453 2.719 0 .87-.102 1.641-.305 2.312-.203.672-.463 1.23-.781 1.672a4.203 4.203 0 0 1-1.047 1.039c-.375.25-.831.44-1.367.571-.532.13-1.143.195-1.836.195h-4.133Zm1.516-1.352h2.445c.755 0 1.346-.07 1.773-.21.433-.141.776-.339 1.032-.594.359-.36.638-.841.836-1.446.203-.609.304-1.346.304-2.21 0-1.198-.198-2.118-.594-2.758-.39-.646-.867-1.078-1.429-1.297-.406-.156-1.06-.235-1.961-.235h-2.406v8.75ZM374.444 437v-11.453h8.281v1.351h-6.766v3.508h6.336v1.344h-6.336v3.898h7.032V437h-8.547Z" fill="#2D2D2D"/><path d="M136.002 419.565s-10.499 6.5-.604 12.953c1.904 1.257 8.807 4.753 8.611 7.987 0 0 4.185-6.285-1.934-10.24-6.284-4.047-7.855-8.37-6.073-10.7Z" fill="#ED1C24"/><path d="M132.347 431.982s-3.747 5.764 3.625 6.944c.725.092 6.058.659 7.448 2.438 0 0-.121-3.066-4.472-4.875-4.335-1.809-6.118-2.254-6.601-4.507Zm14.503-6.055c-4.502-4.783-5.756-7.742-3.823-11.574 0 0-13.43 5.242-.166 14.548 4.744 3.326 3.958 6.729 3.958 6.852.741-.782 4.532-5.044.031-9.826Z" fill="#ED1C24"/><path d="M154.219 437v-11.453h1.554l6.016 8.992v-8.992h1.453V437h-1.554l-6.016-9v9h-1.453Zm11.317-5.578c0-1.901.51-3.388 1.531-4.461 1.021-1.078 2.339-1.617 3.953-1.617 1.058 0 2.011.252 2.86.758a4.914 4.914 0 0 1 1.937 2.117c.448.901.672 1.924.672 3.07 0 1.162-.234 2.201-.703 3.117-.469.917-1.133 1.612-1.992 2.086a5.718 5.718 0 0 1-2.782.703c-1.078 0-2.041-.26-2.89-.781a5.033 5.033 0 0 1-1.93-2.133 6.47 6.47 0 0 1-.656-2.859Zm1.562.023c0 1.381.37 2.469 1.11 3.266.745.792 1.677 1.187 2.797 1.187 1.14 0 2.078-.401 2.812-1.203.74-.802 1.11-1.94 1.11-3.414 0-.932-.159-1.745-.477-2.437-.313-.698-.773-1.237-1.383-1.617a3.707 3.707 0 0 0-2.039-.579 3.88 3.88 0 0 0-2.773 1.11c-.771.734-1.157 1.963-1.157 3.687ZM178.65 437v-11.453h3.945c.891 0 1.571.055 2.039.164.657.151 1.217.424 1.68.82.604.511 1.055 1.164 1.352 1.961.302.792.453 1.698.453 2.719 0 .87-.102 1.641-.305 2.312-.203.672-.463 1.23-.781 1.672a4.203 4.203 0 0 1-1.047 1.039c-.375.25-.831.44-1.367.571-.532.13-1.143.195-1.836.195h-4.133Zm1.516-1.352h2.445c.755 0 1.346-.07 1.773-.21.433-.141.776-.339 1.032-.594.359-.36.638-.841.836-1.446.203-.609.304-1.346.304-2.21 0-1.198-.198-2.118-.594-2.758-.39-.646-.867-1.078-1.429-1.297-.406-.156-1.06-.235-1.961-.235h-2.406v8.75ZM190.444 437v-11.453h8.281v1.351h-6.766v3.508h6.336v1.344h-6.336v3.898h7.032V437h-8.547Z" fill="#2D2D2D"/><path d="M228.002 449.565s-10.499 6.499-.604 12.953c1.904 1.257 8.807 4.753 8.611 7.987 0 0 4.185-6.285-1.934-10.24-6.284-4.047-7.855-8.37-6.073-10.7Z" fill="#ED1C24"/><path d="M224.347 461.982s-3.747 5.764 3.625 6.944c.725.092 6.058.659 7.448 2.438 0 0-.121-3.066-4.472-4.875-4.335-1.809-6.118-2.254-6.601-4.507Zm14.503-6.055c-4.502-4.783-5.756-7.742-3.823-11.574 0 0-13.43 5.242-.166 14.548 4.744 3.326 3.958 6.729 3.958 6.852.741-.782 4.532-5.044.031-9.826Z" fill="#ED1C24"/><path d="M246.219 467v-11.453h1.554l6.016 8.992v-8.992h1.453V467h-1.554l-6.016-9v9h-1.453Zm11.317-5.578c0-1.901.51-3.388 1.531-4.461 1.021-1.078 2.339-1.617 3.953-1.617 1.058 0 2.011.252 2.86.758a4.914 4.914 0 0 1 1.937 2.117c.448.901.672 1.924.672 3.07 0 1.162-.234 2.201-.703 3.117-.469.917-1.133 1.612-1.992 2.086a5.718 5.718 0 0 1-2.782.703c-1.078 0-2.041-.26-2.89-.781a5.033 5.033 0 0 1-1.93-2.133 6.47 6.47 0 0 1-.656-2.859Zm1.562.023c0 1.381.37 2.469 1.11 3.266.745.792 1.677 1.187 2.797 1.187 1.14 0 2.078-.401 2.812-1.203.74-.802 1.11-1.94 1.11-3.414 0-.932-.159-1.745-.477-2.437-.313-.698-.773-1.237-1.383-1.617a3.707 3.707 0 0 0-2.039-.579 3.88 3.88 0 0 0-2.773 1.11c-.771.734-1.157 1.963-1.157 3.687ZM270.65 467v-11.453h3.945c.891 0 1.571.055 2.039.164.657.151 1.217.424 1.68.82.604.511 1.055 1.164 1.352 1.961.302.792.453 1.698.453 2.719 0 .87-.102 1.641-.305 2.312-.203.672-.463 1.23-.781 1.672a4.203 4.203 0 0 1-1.047 1.039c-.375.25-.831.44-1.367.571-.532.13-1.143.195-1.836.195h-4.133Zm1.516-1.352h2.445c.755 0 1.346-.07 1.773-.21.433-.141.776-.339 1.032-.594.359-.36.638-.841.836-1.446.203-.609.304-1.346.304-2.21 0-1.198-.198-2.118-.594-2.758-.39-.646-.867-1.078-1.429-1.297-.406-.156-1.06-.235-1.961-.235h-2.406v8.75ZM282.444 467v-11.453h8.281v1.351h-6.766v3.508h6.336v1.344h-6.336v3.898h7.032V467h-8.547Z" fill="#2D2D2D"/><path d="M212.453 386.166v-60.447s11.659 10.137 45.932 10.137 45.86-11.078 45.86-11.078v61.388c-14.298 21.006-85.284 14.728-91.792 0Z" fill="#E0454C"/><path d="M211.453 428.857v-62.633s11.857 12.115 46.13 12.115 45.662-12.115 45.662-12.115l.969 62.633c-14.575 18.286-83.891 14.858-92.761 0Z" fill="#0070CC"/><path d="M304.323 321.902c0 1.614-1.025 3.328-3.3 5.04-2.259 1.7-5.595 3.274-9.822 4.614-8.442 2.675-20.21 4.346-33.378 4.346-13.169 0-24.937-1.671-33.379-4.346-4.227-1.34-7.563-2.914-9.822-4.614-2.275-1.712-3.299-3.426-3.299-5.04 0-1.614 1.024-3.327 3.299-5.039 2.259-1.7 5.595-3.274 9.822-4.614 8.442-2.676 20.21-4.347 33.379-4.347 13.168 0 24.936 1.671 33.378 4.347 4.227 1.34 7.563 2.914 9.822 4.614 2.275 1.712 3.3 3.425 3.3 5.039Z" fill="#E0454C" stroke="#2D2D2D" stroke-width="2"/><path d="m211.323 320.902.35 107.264m92.65-107.264v108m.088-1.557c0 7.956-20.76 14.406-46.369 14.406-25.609 0-46.369-6.45-46.369-14.406m92.738-64c0 7.956-20.76 14.406-46.369 14.406-25.609 0-46.369-6.45-46.369-14.406" stroke="#2D2D2D" stroke-width="2"/><path d="M223.188 361v-11.453h2.281l2.711 8.109c.25.755.432 1.321.547 1.696.13-.417.333-1.029.609-1.836l2.742-7.969h2.039V361h-1.461v-9.586L229.328 361h-1.367l-3.313-9.75V361h-1.46Zm13.606 0v-11.453h8.281v1.351h-6.766v3.508h6.336v1.344h-6.336v3.898h7.032V361h-8.547Zm10.793 0v-11.453h2.282l2.711 8.109c.25.755.432 1.321.547 1.696.13-.417.333-1.029.609-1.836l2.742-7.969h2.039V361h-1.461v-9.586L253.728 361h-1.367l-3.313-9.75V361h-1.461Zm13.115-5.578c0-1.901.51-3.388 1.531-4.461 1.021-1.078 2.338-1.617 3.953-1.617 1.057 0 2.01.252 2.859.758a4.916 4.916 0 0 1 1.938 2.117c.448.901.672 1.924.672 3.07 0 1.162-.235 2.201-.703 3.117-.469.917-1.133 1.612-1.993 2.086a5.711 5.711 0 0 1-2.781.703c-1.078 0-2.042-.26-2.891-.781a5.03 5.03 0 0 1-1.929-2.133 6.456 6.456 0 0 1-.656-2.859Zm1.562.023c0 1.381.37 2.469 1.109 3.266.745.792 1.678 1.187 2.797 1.187 1.141 0 2.078-.401 2.813-1.203.739-.802 1.109-1.94 1.109-3.414 0-.932-.159-1.745-.476-2.437-.313-.698-.774-1.237-1.383-1.617a3.707 3.707 0 0 0-2.039-.579c-1.073 0-1.998.37-2.774 1.11-.771.734-1.156 1.963-1.156 3.687ZM273.839 361v-11.453h5.078c1.021 0 1.797.104 2.328.312.532.203.956.565 1.274 1.086a3.26 3.26 0 0 1 .476 1.727c0 .812-.263 1.497-.789 2.055-.526.557-1.338.911-2.437 1.062.401.193.705.383.914.57a7.88 7.88 0 0 1 1.258 1.524l1.992 3.117h-1.906l-1.516-2.383a21.828 21.828 0 0 0-1.094-1.578c-.286-.365-.544-.62-.773-.766a2.235 2.235 0 0 0-.688-.304c-.172-.037-.453-.055-.844-.055h-1.757V361h-1.516Zm1.516-6.398h3.257c.693 0 1.235-.071 1.625-.211.391-.146.688-.375.891-.688a1.88 1.88 0 0 0 .305-1.031c0-.542-.198-.987-.594-1.336-.391-.349-1.01-.524-1.859-.524h-3.625v3.79ZM288.508 361v-4.852l-4.414-6.601h1.844l2.257 3.453c.417.646.805 1.292 1.164 1.938.344-.599.761-1.274 1.25-2.024l2.219-3.367h1.766l-4.571 6.601V361h-1.515Zm-49.274 63v-11.453h3.946c.89 0 1.57.055 2.039.164.656.151 1.216.424 1.679.82.605.511 1.055 1.164 1.352 1.961.302.792.453 1.698.453 2.719 0 .87-.101 1.641-.305 2.312-.203.672-.463 1.23-.781 1.672a4.187 4.187 0 0 1-1.047 1.039c-.375.25-.83.44-1.367.571-.531.13-1.143.195-1.836.195h-4.133Zm1.516-1.352h2.445c.756 0 1.347-.07 1.774-.21.432-.141.776-.339 1.031-.594.359-.36.638-.841.836-1.446.203-.609.305-1.346.305-2.21 0-1.198-.198-2.118-.594-2.758-.391-.646-.867-1.078-1.43-1.297-.406-.156-1.06-.235-1.961-.235h-2.406v8.75ZM251.255 424v-11.453h1.515V424h-1.515Zm3.879-3.68 1.43-.125c.068.573.224 1.045.469 1.414.25.365.635.662 1.156.891.521.224 1.107.336 1.758.336.578 0 1.088-.086 1.531-.258.443-.172.771-.406.984-.703.219-.302.329-.63.329-.984 0-.36-.105-.672-.313-.938-.208-.271-.552-.497-1.031-.68-.307-.119-.987-.304-2.039-.554-1.052-.255-1.789-.495-2.211-.719-.547-.286-.956-.641-1.227-1.062a2.66 2.66 0 0 1-.398-1.43c0-.578.164-1.117.492-1.617.328-.506.807-.888 1.438-1.149.63-.26 1.33-.39 2.101-.39.849 0 1.596.138 2.242.414.651.27 1.151.672 1.5 1.203s.537 1.133.563 1.804l-1.453.11c-.078-.724-.344-1.271-.797-1.641-.448-.37-1.112-.554-1.992-.554-.917 0-1.586.169-2.008.507-.417.334-.625.737-.625 1.211 0 .412.148.75.445 1.016.292.266 1.052.539 2.281.82 1.235.276 2.081.518 2.539.727.667.307 1.159.698 1.477 1.172.318.468.477 1.01.477 1.625 0 .609-.175 1.185-.524 1.726-.349.537-.851.956-1.508 1.258-.651.297-1.385.445-2.203.445-1.036 0-1.906-.151-2.609-.453a3.686 3.686 0 0 1-1.649-1.359 3.917 3.917 0 0 1-.625-2.063Zm11.325 3.68v-11.453h1.516v5.68l5.688-5.68h2.054l-4.804 4.641 5.015 6.812h-2l-4.078-5.797-1.875 1.828V424h-1.516Z" fill="#fff"/><circle cx="130.5" cy="312.5" r="6.5" fill="#2D2D2D"/><circle cx="383.5" cy="377.5" r="6.5" fill="#2D2D2D"/></svg>