<?xml version="1.0" encoding="UTF-8" standalone="no"?>
<!-- Created with Inkscape (http://www.inkscape.org/) -->

<svg
   xmlns:dc="http://purl.org/dc/elements/1.1/"
   xmlns:cc="http://creativecommons.org/ns#"
   xmlns:rdf="http://www.w3.org/1999/02/22-rdf-syntax-ns#"
   xmlns:svg="http://www.w3.org/2000/svg"
   xmlns="http://www.w3.org/2000/svg"
   xmlns:sodipodi="http://sodipodi.sourceforge.net/DTD/sodipodi-0.dtd"
   xmlns:inkscape="http://www.inkscape.org/namespaces/inkscape"
   width="69.991104mm"
   height="11.8606mm"
   viewBox="0 0 247.99998 42.025746"
   id="svg3349"
   version="1.1"
   inkscape:version="0.91 r13725"
   sodipodi:docname="Banco_do_Brasil_logo.svg">
  <defs
     id="defs3351" />
  <sodipodi:namedview
     id="base"
     pagecolor="#ffffff"
     bordercolor="#666666"
     borderopacity="1.0"
     inkscape:pageopacity="0.0"
     inkscape:pageshadow="2"
     inkscape:zoom="1.4"
     inkscape:cx="140.2092"
     inkscape:cy="-61.422389"
     inkscape:document-units="px"
     inkscape:current-layer="layer1"
     showgrid="false"
     fit-margin-top="0"
     fit-margin-left="0"
     fit-margin-right="0"
     fit-margin-bottom="0"
     inkscape:window-width="1280"
     inkscape:window-height="703"
     inkscape:window-x="298"
     inkscape:window-y="185"
     inkscape:window-maximized="0" />
  <metadata
     id="metadata3354">
    <rdf:RDF>
      <cc:Work
         rdf:about="">
        <dc:format>image/svg+xml</dc:format>
        <dc:type
           rdf:resource="http://purl.org/dc/dcmitype/StillImage" />
        <dc:title></dc:title>
      </cc:Work>
    </rdf:RDF>
  </metadata>
  <g
     inkscape:label="Layer 1"
     inkscape:groupmode="layer"
     id="layer1"
     transform="translate(-293.14287,-491.34933)">
    <g
       id="g21587"
       transform="matrix(2.5247497,0,0,2.5247497,-527.83489,-680.23413)">
      <path
         inkscape:connector-curvature="0"
         id="path10055"
         d="m 325.17194,480.68496 98.22755,0 0,-16.64551 -98.22755,0 z"
         style="clip-rule:nonzero;fill:#fde100;fill-opacity:1;fill-rule:nonzero;stroke:none" />
      <path
         inkscape:connector-curvature="0"
         id="path10057"
         d="m 329.75202,470.27969 2.59766,1.7334 3.12011,-2.08008 -1.29882,-0.86915 1.68945,-1.12304 3.6377,2.42675 -5.97657,3.98438 1.29883,0.86914 7.41211,-4.9414 -6.24024,-4.16017 z m 12.48047,4.16015 -2.60253,-1.73339 -3.12013,2.08007 1.29883,0.86425 -1.68946,1.12794 -3.63768,-2.42676 5.97656,-3.98438 -1.29884,-0.86913 -7.40722,4.9414 6.24023,4.16016 z m 0,-6.58692 -1.30371,0.86915 -1.29882,-0.86915 2.60253,-1.7334 z m -12.48047,9.01368 1.29882,-0.86914 1.29884,0.86914 -2.59766,1.7334 z"
         style="clip-rule:nonzero;fill:#003882;fill-opacity:1;fill-rule:evenodd;stroke:none" />
      <path
         inkscape:connector-curvature="0"
         id="path10059"
         d="m 348.13093,476.51504 c 0.81543,0 2.84179,-0.0928 2.84179,-2.19727 0,-1.14257 -0.35644,-1.93847 -1.72363,-2.10937 1.04493,-0.20508 1.56738,-0.89844 1.56738,-1.85548 0,-1.77246 -1.20605,-2.15331 -2.67578,-2.15331 l -3.41308,0 0,8.31543 z m 61.25488,0 c 1.14259,0 2.29493,-0.15137 2.29493,-1.91407 0,-2.03613 -2.94922,-1.83105 -2.94922,-3.125 0,-0.46875 0.28808,-0.72265 0.77148,-0.72265 l 1.58204,0 0,-1.04981 -2.22169,0 c -1.82129,0 -2.2705,0.8252 -2.2705,1.88965 0,2.02636 3.2666,1.97754 3.2666,3.12011 0,0.45899 -0.24903,0.77149 -0.75195,0.77149 l -2.33888,0 -1.7334,-5.77636 -2.07518,0 -1.91895,6.19629 -1.20606,-2.66602 c 0.88379,-0.16113 1.23536,-0.72266 1.24024,-1.74805 0,-1.16211 -0.69336,-1.78222 -1.7627,-1.78222 l -3.24707,0 0,6.80664 1.77246,0 0,-5.76172 0.59082,0 c 0.49805,0 0.93262,0.3662 0.93262,1.03515 0,0.56642 -0.2832,1.03517 -0.7373,1.00587 l -0.49805,0.005 1.61621,3.71582 2.8418,0 0.4248,-1.50879 1.83594,0 0.41992,1.50879 z m -4.80956,-2.54883 -1.31348,0 0.625,-2.78809 z m -19.77052,2.74903 c 2.65137,0 2.65137,-1.7627 2.65137,-3.56934 0,-1.83106 0,-3.57423 -2.65137,-3.57423 -2.65136,0 -2.65136,1.74317 -2.65136,3.57423 0,1.80664 0,3.56934 2.65136,3.56934 m 0,-1.03517 c -0.77636,0 -0.8789,-0.76171 -0.8789,-2.53417 0,-1.77246 0.1025,-2.53906 0.8789,-2.53906 0.77637,0 0.87403,0.7666 0.87403,2.53906 0,1.77246 -0.0976,2.53417 -0.87403,2.53417 m -8.41796,0.83497 2.58789,0 c 2.71484,0 2.53417,-2.40234 2.53417,-3.45215 0,-2.12403 -0.39062,-3.37403 -2.4707,-3.37403 l -2.65136,0 z m 1.72851,-5.7666 0.69824,0 c 0.95215,0 0.95215,1.1084 0.95215,2.36327 0,1.71388 -0.16601,2.36818 -0.99609,2.36818 l -0.6543,0 z m 13.75488,2.13867 0.42969,0 c 0.83008,0 1.09375,0.4541 1.09375,1.18653 0,1.16698 -0.78613,1.17675 -1.13769,1.17675 l -0.91309,0 0,-2.34863 z m -0.52734,-1.26954 0,-2.12402 1.01563,0 c 0.55663,0 0.94726,0.44434 0.94726,1.05957 0,0.80567 -0.50293,1.05469 -0.85938,1.05469 l -0.57617,0 z m 1.30371,4.90235 c 0.81543,0 2.8418,-0.0928 2.8418,-2.20215 0,-1.14257 -0.35645,-1.9336 -1.71875,-2.10937 1.04492,-0.20508 1.56738,-0.89844 1.56738,-1.85548 0,-1.77246 -1.21094,-2.15331 -2.67578,-2.15331 l -3.41797,0 0,8.32031 z m 26.17676,-0.005 0,-1.03027 -2.02148,0 0,-5.77636 -1.72852,0 0,6.80663 z m -4.76563,-6.80663 -1.73339,0 0,6.80663 1.73339,0 z m -42.20214,7.00683 c 2.65136,0 2.65136,-1.76758 2.65136,-3.58398 0,-1.84083 0,-3.58887 -2.65136,-3.58887 -2.64649,0 -2.64649,1.74804 -2.64649,3.58887 0,1.8164 0,3.58398 2.64649,3.58398 m 0,-1.03516 c -0.77637,0 -0.87402,-0.77149 -0.87402,-2.54882 0,-1.78223 0.0976,-2.54883 0.87402,-2.54883 0.77636,0 0.8789,0.7666 0.8789,2.54883 0,1.77733 -0.1025,2.54882 -0.8789,2.54882 m -17.1338,-1.71875 -1.31835,0 0.625,-2.7832 z m -1.99706,2.55371 0.42968,-1.50878 1.83594,0 0.41993,1.50878 1.81151,0 -2.04589,-6.80663 -2.07031,0 -2.08985,6.80663 z m 13.59375,0.2002 c 1.5039,0 2.38281,-0.59571 2.38281,-2.45117 l -1.71388,0 c -0.0195,0.54687 -0.0292,1.41601 -0.66893,1.41601 -0.72754,0 -0.83497,-0.44434 -0.83497,-2.54882 0,-2.18262 0.16602,-2.54883 0.80078,-2.54883 0.45411,0 0.65919,0.34179 0.65919,1.26953 l 1.7041,0 c 0.0635,-1.49414 -0.7666,-2.30957 -2.40723,-2.30957 -2.44141,0 -2.50976,1.55273 -2.50976,3.58887 0,2.0459 -0.0635,3.58398 2.58789,3.58398 m -7.22169,-0.2002 0,-4.53613 1.88965,4.53613 2.0459,0 0,-6.80663 -1.47461,0 0,4.39941 -1.84082,-4.39941 -2.09472,0 0,6.80663 z m -11.86035,-3.6377 0.26856,0 c 1.01563,0 1.33789,0.44923 1.33789,1.18653 0,1.16211 -0.96191,1.17187 -1.3916,1.17187 l -0.62989,0 0,-2.34862 z m -0.41504,-1.27441 0,-2.12402 0.75195,0 c 0.6836,0 1.16211,0.44922 1.16211,1.05957 0,0.80566 -0.61523,1.05958 -1.05468,1.05958 l -0.708,0 z"
         style="clip-rule:nonzero;fill:#003882;fill-opacity:1;fill-rule:evenodd;stroke:none" />
    </g>
  </g>
</svg>
