<svg width="604" height="651" viewBox="0 0 604 651" fill="none" xmlns="http://www.w3.org/2000/svg">
<path d="M168.937 536.404V649.034" stroke="white"/>
<path d="M111.598 618.829L168.681 588.624L229.092 618.829" stroke="white"/>
<path d="M111.342 549.203V619.085L169.193 649.546L229.092 619.085V548.691" stroke="white"/>
<path d="M111.086 548.691L168.937 517.206L229.092 548.691L167.913 578.64L111.086 548.691Z" stroke="white"/>
<path d="M109.038 506.711L167.657 475.993L227.044 504.407" stroke="white"/>
<path d="M168.681 501.591C167.06 478.041 164.329 429.917 177.64 403.295C191.463 375.65 220.841 315.907 216.293 270.955C211.941 227.951 199.654 215.408 183.016 202.097" stroke="white"/>
<path d="M166.377 441.692L109.806 471.13L169.193 501.847L227.556 471.13L166.377 441.692Z" stroke="white"/>
<path d="M215.269 340.325L157.674 310.376L215.269 279.658L274.656 310.376L215.269 340.325Z" stroke="white"/>
<path d="M104.942 204.657L164.073 234.862" stroke="white"/>
<path d="M54.7707 344.932C64.9245 313.106 93.1296 252.844 139.973 272.92C149.701 277.089 161.834 294.73 155.076 324.628" stroke="white"/>
<path d="M0.247421 345.188H54.7707L113.134 377.186" stroke="white"/>
<path d="M156.906 309.864C157.333 321.127 149.334 351.991 126.189 392.8C106.734 427.101 109.55 474.457 109.55 506.967L168.937 536.916" stroke="white"/>
<path d="M59.6343 377.186L1.01536 346.98C10.4012 307.133 49.1904 220.783 129.26 194.162C136.854 192.199 156.445 190.117 174.056 197.489C191.668 204.862 225.593 224.452 240.355 232.814" stroke="white"/>
<path d="M113.39 377.186C122.605 348.004 154.602 292.656 191.719 300.904C242.402 312.167 199.077 387.974 188.903 412.511C180.2 433.501 171.453 467.416 168.937 501.847C168.937 516.95 168.937 525.397 168.937 536.66L228.068 505.175C227.897 489.816 226.956 458.075 231.139 446.812C234.467 437.853 255.969 396.64 262.369 377.186C268.768 357.731 285.151 296.297 265.44 260.46C245.73 224.623 214.757 220.271 191.719 226.415C168.681 232.558 93.6793 257.132 60.6582 377.186" stroke="white"/>
<path d="M59.8902 376.93H113.134" stroke="white"/>
<path d="M105.198 205.681V275.307L164.073 306.536V235.63" stroke="white"/>
<path d="M462.543 454.622V603.126" stroke="white"/>
<path d="M386.941 563.3L462.205 523.474L541.858 563.3" stroke="white"/>
<path d="M386.603 471.497V563.637L462.88 603.801L541.858 563.637V470.822" stroke="white"/>
<path d="M386.266 470.822L462.543 429.308L541.858 470.822L461.193 510.311L386.266 470.822Z" stroke="white"/>
<path d="M383.565 415.47L460.855 374.969L539.158 412.433" stroke="white"/>
<path d="M462.205 408.72C460.068 377.669 456.468 314.217 474.018 279.116C492.244 242.665 530.98 163.893 524.982 104.623C519.245 47.9218 503.044 31.3838 481.106 13.8333" stroke="white"/>
<path d="M459.168 329.743L384.578 368.556L462.88 409.058L539.833 368.556L459.168 329.743Z" stroke="white"/>
<path d="M523.632 196.089L447.692 156.6L523.632 116.099L601.935 156.6L523.632 196.089Z" stroke="white"/>
<path d="M378.165 17.2085L456.13 57.0347" stroke="white"/>
<path d="M312.013 202.164C325.401 160.2 362.59 80.7442 424.354 107.215C437.18 112.712 453.178 135.971 444.267 175.392" stroke="white"/>
<path d="M240.124 202.501H312.013L388.966 244.69" stroke="white"/>
<path d="M446.68 155.925C447.242 170.775 436.697 211.47 406.179 265.278C380.528 310.504 384.241 372.944 384.241 415.808L462.543 455.296" stroke="white"/>
<path d="M318.426 244.69L241.136 204.864C253.512 152.325 304.656 38.4715 410.229 3.37041C420.242 0.782837 446.072 -1.96225 469.293 7.75805C492.514 17.4783 537.245 43.3091 556.708 54.3344" stroke="white"/>
<path d="M389.303 244.69C401.454 206.214 443.642 133.237 492.581 144.112C559.408 158.963 502.283 258.914 488.869 291.267C477.393 318.942 465.86 363.66 462.543 409.058C462.543 428.971 462.543 440.109 462.543 454.959L540.508 413.445C540.283 393.195 539.042 351.343 544.558 336.493C548.946 324.68 577.296 270.341 585.734 244.69C594.172 219.039 615.773 138.037 589.784 90.7856C563.796 43.5341 522.957 37.7965 492.581 45.8967C462.205 53.997 363.315 86.398 319.776 244.69" stroke="white"/>
<path d="M318.764 244.353H388.966" stroke="white"/>
<path d="M378.503 18.5583V110.361L456.13 151.537V58.047" stroke="white"/>
</svg>
