<svg width="48" height="48" viewBox="0 0 48 48" fill="none" xmlns="http://www.w3.org/2000/svg">
<rect x="2" y="2" width="45" height="44" rx="2" fill="white" stroke="black" stroke-width="2"/>
<path d="M3.5 10.5H46.5" stroke="black" stroke-width="2" stroke-linecap="round" stroke-linejoin="round"/>
<circle cx="7.5" cy="6.5" r="1.5" fill="black"/>
<circle cx="11.5" cy="6.5" r="1.5" fill="black"/>
<circle cx="15.5" cy="6.5" r="1.5" fill="black"/>
<path d="M25.8219 31.5171L33.0103 20.7345C33.2901 20.3149 33.8417 20.1666 34.2787 20.4184C40.2476 23.8585 41.8906 30.3811 42.0056 34.0493C42.0223 34.5828 41.5803 35 41.0465 35H27.618C27.2393 35 26.893 34.786 26.7236 34.4472L25.7595 32.5191C25.599 32.1981 25.6228 31.8157 25.8219 31.5171Z" fill="#ED1C24"/>
<path d="M41.9719 34.5H7.02809C7.54636 25.3003 15.1706 18 24.5 18C33.8294 18 41.4536 25.3003 41.9719 34.5Z" stroke="black" stroke-width="2"/>
<path d="M15 21L23.6822 33.3379C24.0805 33.9039 24.9195 33.9039 25.3178 33.3379L34 21" stroke="black" stroke-width="2"/>
<circle cx="24.5" cy="34.5" r="2.5" fill="white" stroke="black" stroke-width="2"/>
<path d="M27 33.5L35 29" stroke="black" stroke-width="2" stroke-linecap="round" stroke-linejoin="round"/>
</svg>
