<svg width="48" height="48" viewBox="0 0 48 48" fill="none" xmlns="http://www.w3.org/2000/svg">
<path d="M4 36.956V28.6105C4 27.1138 5.10311 25.8461 6.58541 25.6392L22.5106 23.4171C24.1587 23.1872 25.679 24.3424 25.8989 25.9918L26.4538 30.1532C26.4845 30.3836 26.4883 30.6168 26.4652 30.8482L25.6311 39.189C25.5476 40.0245 25.1177 40.7867 24.446 41.2905L21.9269 43.1798C21.6445 43.3916 21.327 43.5519 20.9889 43.6533L17.1062 44.8181C16.7065 44.9381 16.2861 44.9733 15.872 44.9215L9.37276 44.1091C8.80291 44.0379 8.26549 43.8046 7.82431 43.4369L6.10974 42.0081C5.71012 41.6751 5.40396 41.2439 5.22131 40.7568L4.19101 38.0094C4.0647 37.6725 4 37.3157 4 36.956Z" fill="white"/>
<path d="M5 23.5V39C5 42.866 9.37258 45 16 45C22.6274 45 27 42.866 27 39V24" stroke="black" stroke-width="2"/>
<path d="M27 32C27 35.3137 22.0751 38 16 38C9.92487 38 5 35.3137 5 32" stroke="black" stroke-width="2"/>
<path d="M27 24C27 25.4297 25.9993 26.9089 23.9814 28.086C21.9881 29.2487 19.1685 30 16 30C12.8315 30 10.0119 29.2487 8.01859 28.086C6.00073 26.9089 5 25.4297 5 24C5 22.5703 6.00073 21.0911 8.01859 19.914C10.0119 18.7513 12.8315 18 16 18C19.1685 18 21.9881 18.7513 23.9814 19.914C25.9993 21.0911 27 22.5703 27 24Z" fill="white" stroke="black" stroke-width="2"/>
<path d="M14.2929 25.7071C14.6834 26.0976 15.3166 26.0976 15.7071 25.7071L22.0711 19.3431C22.4616 18.9526 22.4616 18.3195 22.0711 17.9289C21.6805 17.5384 21.0474 17.5384 20.6569 17.9289L15 23.5858L9.34315 17.9289C8.95262 17.5384 8.31946 17.5384 7.92893 17.9289C7.53841 18.3195 7.53841 18.9526 7.92893 19.3431L14.2929 25.7071ZM16 25V11H14V25H16Z" fill="#ED1C24"/>
<path d="M21 37.5132V20.6784C21 19.1526 22.1452 17.8699 23.6613 17.6976L39.7712 15.8669C41.5112 15.6692 43.0499 16.9976 43.1083 18.7478L43.5 30.5L43.0605 38.8504C43.0216 39.5905 42.71 40.29 42.186 40.814L39.6945 43.3055C39.2433 43.7567 38.66 44.0523 38.0293 44.1493L33.0243 44.9193C32.6775 44.9727 32.3239 44.9648 31.9798 44.896L25.747 43.6494C25.2568 43.5514 24.7988 43.3324 24.4148 43.0123L22.6556 41.5464C22.227 41.1892 21.9065 40.7196 21.7301 40.1904L21.154 38.4619C21.052 38.156 21 37.8356 21 37.5132Z" fill="white"/>
<path d="M21 15.5V39C21 42.866 25.3726 45 32 45C38.6274 45 43 42.866 43 39V16" stroke="black" stroke-width="2"/>
<path d="M43 32C43 35.3137 38.0751 38 32 38C25.9249 38 21 35.3137 21 32" stroke="black" stroke-width="2"/>
<path d="M43 24C43 27.3137 38.0751 30 32 30C25.9249 30 21 27.3137 21 24" stroke="black" stroke-width="2"/>
<path d="M43 16C43 17.4297 41.9993 18.9089 39.9814 20.086C37.9881 21.2487 35.1685 22 32 22C28.8315 22 26.0119 21.2487 24.0186 20.086C22.0007 18.9089 21 17.4297 21 16C21 14.5703 22.0007 13.0911 24.0186 11.914C26.0119 10.7513 28.8315 10 32 10C35.1685 10 37.9881 10.7513 39.9814 11.914C41.9993 13.0911 43 14.5703 43 16Z" fill="white" stroke="black" stroke-width="2"/>
<path d="M32.7071 1.29289C32.3166 0.902369 31.6834 0.902369 31.2929 1.29289L24.9289 7.65685C24.5384 8.04738 24.5384 8.68054 24.9289 9.07107C25.3195 9.46159 25.9526 9.46159 26.3431 9.07107L32 3.41421L37.6569 9.07107C38.0474 9.46159 38.6805 9.46159 39.0711 9.07107C39.4616 8.68054 39.4616 8.04738 39.0711 7.65685L32.7071 1.29289ZM31 2L31 17L33 17L33 2L31 2Z" fill="#ED1C24"/>
</svg>
