<svg width="48" height="48" viewBox="0 0 48 48" fill="none" xmlns="http://www.w3.org/2000/svg">
<path d="M5.23698 42.7512V15.2408C5.23698 15.2408 8.59995 18.8972 18.9611 18.8972C29.3223 18.8972 32.9869 14.9572 32.9869 14.9572V42.7512C22.1499 46.2393 16.074 46.3506 5.23698 42.7512Z" fill="white"/>
<path d="M33.823 13.8424C33.823 16.7876 27.2406 19.1751 18.9477 19.1751C10.6547 19.1751 4.07233 16.7876 4.07233 13.8424C4.07233 10.8973 10.6547 8.50977 18.9477 8.50977C27.2406 8.50977 33.823 10.8973 33.823 13.8424Z" fill="white"/>
<path fill-rule="evenodd" clip-rule="evenodd" d="M32.0405 13.8424C32.0405 13.8354 32.0407 13.7894 31.9832 13.6882C31.9188 13.5749 31.7868 13.403 31.535 13.1891C31.0197 12.7513 30.1617 12.2718 28.9323 11.8321C26.4894 10.9582 22.9753 10.3806 18.9611 10.3806C14.9469 10.3806 11.4327 10.9582 8.98978 11.8321C7.76043 12.2718 6.90237 12.7513 6.38708 13.1891C6.13531 13.403 6.00329 13.5749 5.93891 13.6882C5.88139 13.7894 5.88161 13.835 5.88165 13.842C5.88161 13.8491 5.88139 13.8955 5.93891 13.9967C6.00329 14.1099 6.13531 14.2819 6.38708 14.4958C6.90237 14.9335 7.76043 15.413 8.98978 15.8528C11.4327 16.7267 14.9469 17.3042 18.9611 17.3042C22.9753 17.3042 26.4894 16.7267 28.9323 15.8528C30.1617 15.413 31.0197 14.9335 31.535 14.4958C31.7868 14.2819 31.9188 14.1099 31.9832 13.9967C32.0407 13.8955 32.0405 13.8495 32.0405 13.8424ZM18.9611 19.1751C27.3018 19.1751 33.9221 16.7876 33.9221 13.8424C33.9221 10.8973 27.3018 8.50977 18.9611 8.50977C10.6203 8.50977 4 10.8973 4 13.8424C4 16.7876 10.6203 19.1751 18.9611 19.1751Z" fill="black"/>
<path fill-rule="evenodd" clip-rule="evenodd" d="M4.09579 40.9202L4.00049 13.666L5.87134 13.6577L5.96665 40.912L4.09579 40.9202Z" fill="black"/>
<path fill-rule="evenodd" clip-rule="evenodd" d="M32.0512 41.1041L32.0512 13.9338L33.9221 13.9338L33.9221 41.1041L32.0512 41.1041Z" fill="black"/>
<path fill-rule="evenodd" clip-rule="evenodd" d="M9.46139 43.6756C11.8643 44.5621 15.2462 45.1291 19.0274 45.1291C22.8086 45.1291 26.1905 44.5621 28.5934 43.6756C29.7985 43.231 30.7083 42.724 31.2996 42.2082C31.893 41.6905 32.0782 41.2473 32.0782 40.9046H33.949C33.949 41.9868 33.3515 42.901 32.5294 43.618C31.7053 44.3369 30.5668 44.9417 29.2409 45.4309C26.5818 46.4119 22.9706 47 19.0274 47C15.0842 47 11.473 46.4119 8.81383 45.4309C7.48792 44.9417 6.34948 44.3369 5.52535 43.618C4.70329 42.901 4.1057 41.9868 4.1057 40.9046H5.97657C5.97657 41.2473 6.1617 41.6905 6.75513 42.2082C7.34648 42.724 8.25628 43.231 9.46139 43.6756Z" fill="black"/>
<path d="M9.86948 30.8495L11.1759 30.7225C11.2545 31.1609 11.4133 31.483 11.6522 31.6886C11.8941 31.8943 12.2192 31.9971 12.6274 31.9971C13.0599 31.9971 13.3849 31.9064 13.6027 31.7249C13.8234 31.5405 13.9338 31.3258 13.9338 31.0808C13.9338 30.9236 13.8869 30.7905 13.7932 30.6816C13.7025 30.5697 13.5422 30.473 13.3124 30.3913C13.1551 30.3369 12.7968 30.2401 12.2373 30.101C11.5176 29.9226 11.0126 29.7034 10.7223 29.4433C10.314 29.0774 10.1099 28.6313 10.1099 28.1051C10.1099 27.7664 10.2051 27.4504 10.3957 27.1571C10.5892 26.8607 10.8659 26.6354 11.2258 26.4812C11.5887 26.327 12.0256 26.2499 12.5367 26.2499C13.3713 26.2499 13.9988 26.4328 14.4192 26.7987C14.8425 27.1647 15.0648 27.653 15.086 28.2639L13.7433 28.3229C13.6858 27.9812 13.5619 27.7362 13.3713 27.588C13.1838 27.4368 12.9011 27.3612 12.5231 27.3612C12.133 27.3612 11.8276 27.4414 11.6068 27.6016C11.4647 27.7045 11.3936 27.842 11.3936 28.0144C11.3936 28.1717 11.4601 28.3062 11.5932 28.4181C11.7625 28.5603 12.1738 28.7084 12.827 28.8627C13.4802 29.0169 13.9625 29.1772 14.274 29.3435C14.5885 29.5068 14.8335 29.7321 15.0089 30.0194C15.1873 30.3036 15.2765 30.6559 15.2765 31.0763C15.2765 31.4573 15.1706 31.8141 14.959 32.1468C14.7473 32.4794 14.4479 32.7274 14.0608 32.8907C13.6737 33.051 13.1914 33.1311 12.6138 33.1311C11.7731 33.1311 11.1275 32.9376 10.6769 32.5505C10.2263 32.1604 9.95717 31.5934 9.86948 30.8495Z" fill="black"/>
<path d="M21.7586 32.1695C22.0882 32.4053 22.4465 32.5928 22.8336 32.7319L22.3392 33.68C22.1366 33.6195 21.9385 33.5363 21.745 33.4305C21.7026 33.4093 21.4047 33.2128 20.8513 32.8408C20.4159 33.0313 19.9335 33.1266 19.4043 33.1266C18.3822 33.1266 17.5808 32.8257 17.0002 32.2239C16.4226 31.6221 16.1338 30.7769 16.1338 29.6882C16.1338 28.6026 16.4241 27.7589 17.0047 27.1571C17.5854 26.5523 18.3731 26.2499 19.368 26.2499C20.3539 26.2499 21.1356 26.5523 21.7132 27.1571C22.2908 27.7589 22.5796 28.6026 22.5796 29.6882C22.5796 30.2628 22.4995 30.7678 22.3392 31.2033C22.2182 31.5359 22.0247 31.858 21.7586 32.1695ZM20.679 31.4119C20.8513 31.2093 20.9799 30.9644 21.0645 30.6771C21.1522 30.3898 21.1961 30.0602 21.1961 29.6882C21.1961 28.9201 21.0267 28.3471 20.688 27.9691C20.3493 27.588 19.9063 27.3975 19.359 27.3975C18.8116 27.3975 18.3671 27.588 18.0254 27.9691C17.6867 28.3501 17.5173 28.9231 17.5173 29.6882C17.5173 30.4654 17.6867 31.0475 18.0254 31.4346C18.3671 31.8187 18.798 32.0107 19.3181 32.0107C19.5117 32.0107 19.6946 31.979 19.867 31.9155C19.5948 31.737 19.3181 31.5979 19.0369 31.4981L19.4134 30.7315C19.8549 30.8827 20.2768 31.1095 20.679 31.4119Z" fill="black"/>
<path d="M23.6728 33.0132V26.4177H25.0155V31.8928H28.354V33.0132H23.6728Z" fill="black"/>
<path fill-rule="evenodd" clip-rule="evenodd" d="M43.892 28.9215L43.891 28.9215L43.888 28.9215L43.883 28.9216L43.876 28.9219L43.8671 28.9223L43.8561 28.9229L43.8432 28.9237L43.8283 28.9249L43.8115 28.9263L43.7927 28.9281L43.772 28.9303L43.7494 28.9329L43.7249 28.936L43.6985 28.9395L43.6702 28.9437L43.6401 28.9484L43.6082 28.9537L43.5745 28.9597L43.539 28.9663L43.5018 28.9737L43.4628 28.9818L43.4221 28.9906L43.3798 29.0003L43.3358 29.0109L43.2902 29.0223L43.2431 29.0346L43.1944 29.0478L43.1441 29.062L43.0924 29.0771L43.0393 29.0933L42.9847 29.1104L42.9288 29.1287L42.8715 29.148L42.813 29.1683L42.7531 29.1898L42.6921 29.2125L42.6299 29.2362L42.5666 29.2612L42.5022 29.2873L42.4367 29.3146L42.3702 29.3431L42.3028 29.3728L42.2345 29.4037L42.1652 29.4359L42.0952 29.4693L42.0244 29.5039L41.9529 29.5398L41.8806 29.577L41.8078 29.6154L41.7343 29.655L41.6603 29.6959L41.5858 29.7381L41.5109 29.7815L41.4355 29.8262L41.3598 29.8721L41.2838 29.9192L41.2075 29.9675L41.131 30.0171L41.0544 30.0679L40.9776 30.1198L40.9008 30.173L40.8239 30.2273L40.7471 30.2827L40.6703 30.3393L40.5936 30.397L40.5171 30.4557L40.4408 30.5156L40.3647 30.5764L40.289 30.6383L40.2135 30.7012L40.1385 30.7651L40.0638 30.8299L39.9896 30.8957L39.9159 30.9623L39.8428 31.0298L39.7702 31.0981L39.6982 31.1672L39.6269 31.237L39.5563 31.3076L39.4864 31.3788L39.4172 31.4508L39.3488 31.5233L39.2813 31.5964L39.2146 31.6701L39.1488 31.7442L39.0839 31.8188L39.02 31.8939L38.957 31.9693L38.895 32.045L38.834 32.1211L38.7741 32.1974L38.7153 32.2739L38.6575 32.3505L38.6008 32.4273L38.5453 32.5041L38.4909 32.581L38.4377 32.6578L38.3856 32.7346L38.3348 32.8113L38.2851 32.8878L38.2367 32.9641L38.1894 33.0401L38.1434 33.1158L38.0987 33.1912L38.0552 33.2662L38.0129 33.3407L37.9719 33.4148L37.9321 33.4883L37.8936 33.5612L37.8564 33.6335L37.8204 33.7051L37.7857 33.7759L37.7522 33.846L37.7199 33.9153L37.6889 33.9837L37.6591 34.0512L37.6305 34.1178L37.6031 34.1833L37.5769 34.2478L37.5519 34.3113L37.528 34.3735L37.5053 34.4347L37.4837 34.4946L37.4632 34.5532L37.4438 34.6106L37.4255 34.6666L37.4083 34.7213L37.392 34.7746L37.3768 34.8264L37.3625 34.8768L37.3493 34.9256L37.3369 34.9729L37.3254 35.0186L37.3148 35.0627L37.3051 35.1052L37.2961 35.146L37.2879 35.1851L37.2805 35.2225L37.2738 35.2581L37.2678 35.292L37.2624 35.324L37.2577 35.3543L37.2535 35.3827L37.2499 35.4092L37.2468 35.4339L37.2441 35.4566L37.2419 35.4775L37.2401 35.4964L37.2386 35.5134L37.2375 35.5284L37.2366 35.5415L37.236 35.5526L37.2356 35.5617L37.2353 35.5689L37.2352 35.574L37.2351 35.5772L37.2351 35.5783L37.2351 35.5775L37.2351 35.5746L37.235 35.5698L37.2347 35.563L37.2343 35.5542L37.2338 35.5434L37.2329 35.5306L37.2318 35.5159L37.2304 35.4992L37.2287 35.4806L37.2265 35.4601L37.2239 35.4376L37.2209 35.4132L37.2173 35.387L37.2133 35.3589L37.2086 35.329L37.2033 35.2972L37.1974 35.2636L37.1908 35.2283L37.1835 35.1912L37.1755 35.1523L37.1667 35.1118L37.1571 35.0696L37.1466 35.0257L37.1353 34.9803L37.123 34.9332L37.1099 34.8846L37.0958 34.8345L37.0807 34.7829L37.0647 34.7299L37.0476 34.6754L37.0294 34.6196L37.0102 34.5625L36.9899 34.504L36.9685 34.4443L36.946 34.3834L36.9223 34.3212L36.8974 34.258L36.8714 34.1937L36.8442 34.1283L36.8158 34.0619L36.7862 33.9945L36.7554 33.9263L36.7233 33.8571L36.69 33.7872L36.6555 33.7164L36.6197 33.6449L36.5826 33.5727L36.5443 33.4999L36.5048 33.4265L36.464 33.3526L36.4219 33.2781L36.3786 33.2032L36.334 33.1279L36.2882 33.0522L36.2412 32.9762L36.193 32.8999L36.1435 32.8235L36.0928 32.7468L36.0409 32.6701L35.9879 32.5932L35.9337 32.5164L35.8783 32.4395L35.8219 32.3627L35.7643 32.2861L35.7056 32.2095L35.6458 32.1332L35.585 32.0571L35.5232 31.9813L35.4604 31.9059L35.3966 31.8308L35.3319 31.7561L35.2662 31.6819L35.1996 31.6081L35.1322 31.5349L35.064 31.4623L34.995 31.3903L34.9252 31.3189L34.8547 31.2482L34.7834 31.1782L34.7116 31.109L34.6391 31.0406L34.566 30.973L34.4924 30.9062L34.4183 30.8403L34.3437 30.7754L34.2687 30.7114L34.1933 30.6483L34.1176 30.5862L34.0416 30.5252L33.9653 30.4652L33.8888 30.4062L33.8122 30.3484L33.7354 30.2916L33.6586 30.236L33.5817 30.1815L33.5049 30.1282L33.4281 30.0761L33.3514 30.0251L33.2749 29.9753L33.1986 29.9268L33.1225 29.8795L33.0468 29.8334L32.9714 29.7885L32.8964 29.7449L32.8218 29.7026L32.7477 29.6614L32.6742 29.6216L32.6012 29.583L32.5289 29.5456L32.4572 29.5096L32.3863 29.4747L32.3161 29.4411L32.2468 29.4087L32.1783 29.3776L32.1107 29.3477L32.0441 29.319L31.9785 29.2915L31.9139 29.2652L31.8504 29.2401L31.788 29.2162L31.7268 29.1934L31.6668 29.1717L31.608 29.1511L31.5505 29.1317L31.4944 29.1133L31.4396 29.0959L31.3862 29.0796L31.3343 29.0643L31.2838 29.05L31.2348 29.0366L31.1874 29.0242L31.1416 29.0126L31.0973 29.002L31.0547 28.9921L31.0138 28.9831L30.9746 28.9749L30.9371 28.9674L30.9013 28.9607L30.8673 28.9546L30.8351 28.9492L30.8047 28.9444L30.7761 28.9402L30.7495 28.9365L30.7246 28.9333L30.7017 28.9307L30.6807 28.9284L30.6616 28.9266L30.6445 28.9251L30.6293 28.9239L30.6161 28.923L30.6048 28.9224L30.5955 28.9219L30.5882 28.9217L30.5829 28.9215L30.5796 28.9215L30.5783 28.9215L30.579 28.9215L30.5817 28.9214L30.5863 28.9213L30.593 28.9211L30.6016 28.9207L30.6123 28.9201L30.6249 28.9193L30.6394 28.9183L30.656 28.9169L30.6744 28.9151L30.6948 28.913L30.7171 28.9105L30.7413 28.9075L30.7674 28.904L30.7954 28.8999L30.8252 28.8953L30.8568 28.8901L30.8903 28.8843L30.9255 28.8777L30.9624 28.8705L31.0011 28.8625L31.0415 28.8537L31.0836 28.8442L31.1273 28.8338L31.1727 28.8225L31.2196 28.8104L31.268 28.7973L31.318 28.7833L31.3695 28.7683L31.4224 28.7523L31.4768 28.7353L31.5325 28.7172L31.5895 28.6981L31.6479 28.6779L31.7075 28.6566L31.7683 28.6341L31.8304 28.6105L31.8935 28.5858L31.9578 28.5599L32.0231 28.5328L32.0894 28.5045L32.1567 28.4749L32.2249 28.4442L32.2939 28.4122L32.3638 28.379L32.4345 28.3446L32.506 28.3089L32.5781 28.272L32.6509 28.2338L32.7242 28.1943L32.7981 28.1536L32.8726 28.1116L32.9474 28.0684L33.0227 28.024L33.0984 27.9783L33.1743 27.9313L33.2506 27.8832L33.327 27.8338L33.4037 27.7832L33.4804 27.7314L33.5572 27.6785L33.6341 27.6244L33.711 27.5691L33.7877 27.5127L33.8644 27.4552L33.941 27.3966L34.0173 27.337L34.0934 27.2762L34.1692 27.2145L34.2447 27.1518L34.3199 27.088L34.3946 27.0234L34.4688 26.9578L34.5426 26.8913L34.6159 26.824L34.6886 26.7558L34.7606 26.6868L34.832 26.6171L34.9028 26.5466L34.9728 26.4755L35.0421 26.4036L35.1106 26.3312L35.1783 26.2582L35.2451 26.1846L35.311 26.1105L35.3761 26.036L35.4402 25.961L35.5033 25.8857L35.5655 25.81L35.6266 25.734L35.6867 25.6577L35.7457 25.5812L35.8036 25.5046L35.8605 25.4279L35.9162 25.351L35.9708 25.2742L36.0242 25.1973L36.0764 25.1205L36.1275 25.0438L36.1773 24.9673L36.226 24.891L36.2734 24.8149L36.3196 24.7391L36.3645 24.6637L36.4082 24.5886L36.4507 24.514L36.4919 24.4399L36.5319 24.3663L36.5706 24.2933L36.608 24.2209L36.6442 24.1492L36.6792 24.0782L36.7128 24.008L36.7453 23.9386L36.7765 23.87L36.8065 23.8024L36.8353 23.7357L36.8629 23.67L36.8893 23.6053L36.9145 23.5417L36.9385 23.4792L36.9614 23.4179L36.9832 23.3578L37.0039 23.2989L37.0234 23.2414L37.0419 23.1851L37.0593 23.1302L37.0757 23.0767L37.0911 23.0247L37.1055 22.9741L37.119 22.925L37.1315 22.8775L37.1431 22.8315L37.1538 22.7871L37.1637 22.7444L37.1728 22.7033L37.1811 22.6639L37.1886 22.6263L37.1954 22.5904L37.2015 22.5562L37.207 22.5239L37.2118 22.4934L37.2161 22.4647L37.2198 22.4378L37.223 22.4129L37.2257 22.3898L37.228 22.3686L37.2299 22.3494L37.2314 22.3321L37.2326 22.3168L37.2335 22.3034L37.2342 22.292L37.2346 22.2825L37.2349 22.2751L37.2351 22.2696L37.2351 22.2661L37.2351 22.2646L37.2351 22.2652L37.2352 22.2677L37.2353 22.2722L37.2355 22.2787L37.2358 22.2872L37.2364 22.2977L37.2372 22.3101L37.2382 22.3245L37.2396 22.3409L37.2413 22.3592L37.2434 22.3794L37.2459 22.4016L37.2489 22.4257L37.2523 22.4516L37.2563 22.4794L37.2609 22.5091L37.266 22.5406L37.2718 22.5738L37.2783 22.6089L37.2855 22.6457L37.2934 22.6843L37.3021 22.7246L37.3116 22.7665L37.3219 22.8101L37.3331 22.8553L37.3452 22.9021L37.3582 22.9504L37.3722 23.0003L37.3871 23.0517L37.403 23.1045L37.4199 23.1587L37.4379 23.2143L37.4569 23.2713L37.4771 23.3295L37.4983 23.389L37.5206 23.4498L37.5441 23.5117L37.5688 23.5748L37.5946 23.6389L37.6216 23.7041L37.6498 23.7704L37.6792 23.8376L37.7099 23.9057L37.7417 23.9747L37.7749 24.0446L37.8092 24.1152L37.8448 24.1866L37.8816 24.2586L37.9197 24.3314L37.9591 24.4047L37.9997 24.4785L38.0416 24.5529L38.0847 24.6278L38.129 24.703L38.1746 24.7787L38.2215 24.8546L38.2695 24.9308L38.3188 25.0073L38.3693 25.0839L38.421 25.1606L38.4738 25.2374L38.5279 25.3143L38.583 25.3912L38.6393 25.468L38.6967 25.5446L38.7552 25.6212L38.8148 25.6976L38.8755 25.7737L38.9371 25.8495L38.9998 25.9251L39.0634 26.0002L39.128 26.075L39.1935 26.1493L39.26 26.2231L39.3272 26.2964L39.3953 26.3691L39.4642 26.4412L39.5339 26.5127L39.6043 26.5835L39.6754 26.6536L39.7472 26.7229L39.8196 26.7915L39.8926 26.8592L39.9661 26.9261L40.0401 26.9921L40.1146 27.0573L40.1896 27.1214L40.2649 27.1846L40.3406 27.2469L40.4166 27.3081L40.4928 27.3683L40.5692 27.4274L40.6459 27.4854L40.7226 27.5423L40.7994 27.5981L40.8763 27.6528L40.9531 27.7063L41.0299 27.7586L41.1066 27.8098L41.1832 27.8597L41.2595 27.9085L41.3356 27.956L41.4114 28.0023L41.4869 28.0473L41.562 28.0911L41.6366 28.1337L41.7108 28.175L41.7844 28.2151L41.8575 28.2539L41.9299 28.2914L42.0017 28.3277L42.0727 28.3627L42.143 28.3965L42.2125 28.4291L42.2811 28.4604L42.3488 28.4905L42.4156 28.5194L42.4814 28.5471L42.5462 28.5736L42.6099 28.5989L42.6724 28.623L42.7338 28.646L42.794 28.6678L42.853 28.6886L42.9107 28.7082L42.967 28.7268L43.022 28.7443L43.0756 28.7608L43.1278 28.7762L43.1785 28.7907L43.2277 28.8042L43.2754 28.8168L43.3215 28.8285L43.366 28.8393L43.4088 28.8493L43.45 28.8584L43.4896 28.8668L43.5273 28.8744L43.5634 28.8812L43.5977 28.8874L43.6302 28.8929L43.6609 28.8978L43.6897 28.9021L43.7167 28.9059L43.7418 28.9091L43.765 28.9119L43.7863 28.9142L43.8057 28.9161L43.8232 28.9176L43.8387 28.9189L43.8522 28.9198L43.8638 28.9205L43.8734 28.9209L43.881 28.9212L43.8866 28.9214L43.8902 28.9214L43.8919 28.9215L43.892 28.9215Z" fill="#ED1C24"/>
<path fill-rule="evenodd" clip-rule="evenodd" d="M46.7449 14.5097L46.7442 14.5098L46.742 14.5098L46.7385 14.5099L46.7335 14.5101L46.7271 14.5103L46.7193 14.5108L46.7101 14.5114L46.6994 14.5122L46.6874 14.5132L46.674 14.5145L46.6592 14.516L46.6431 14.5179L46.6255 14.5201L46.6067 14.5227L46.5865 14.5256L46.565 14.529L46.5422 14.5328L46.5181 14.537L46.4928 14.5418L46.4662 14.547L46.4384 14.5528L46.4093 14.5592L46.3791 14.5661L46.3477 14.5736L46.3151 14.5818L46.2814 14.5905L46.2466 14.6L46.2107 14.6101L46.1738 14.6209L46.1358 14.6325L46.0969 14.6447L46.0569 14.6578L46.016 14.6715L45.9742 14.6861L45.9314 14.7015L45.8879 14.7176L45.8434 14.7346L45.7982 14.7524L45.7522 14.771L45.7054 14.7905L45.6579 14.8109L45.6098 14.8321L45.561 14.8542L45.5115 14.8772L45.4615 14.901L45.4109 14.9258L45.3598 14.9514L45.3082 14.978L45.2562 15.0054L45.2037 15.0337L45.1508 15.0629L45.0976 15.0931L45.0441 15.1241L44.9903 15.156L44.9362 15.1887L44.8819 15.2224L44.8274 15.2569L44.7728 15.2923L44.718 15.3286L44.6632 15.3657L44.6083 15.4037L44.5534 15.4425L44.4985 15.4821L44.4437 15.5225L44.3889 15.5637L44.3343 15.6056L44.2798 15.6484L44.2255 15.6919L44.1713 15.7361L44.1174 15.781L44.0638 15.8266L44.0105 15.8729L43.9575 15.9199L43.9049 15.9675L43.8526 16.0157L43.8008 16.0645L43.7494 16.1138L43.6984 16.1637L43.648 16.2141L43.598 16.265L43.5486 16.3164L43.4998 16.3682L43.4516 16.4204L43.4039 16.473L43.3569 16.526L43.3106 16.5793L43.2649 16.6329L43.2199 16.6868L43.1756 16.7409L43.1321 16.7952L43.0893 16.8497L43.0472 16.9043L43.006 16.9591L42.9655 17.0139L42.9258 17.0688L42.887 17.1237L42.849 17.1786L42.8118 17.2334L42.7755 17.2882L42.74 17.3428L42.7054 17.3973L42.6717 17.4516L42.6388 17.5057L42.6068 17.5596L42.5758 17.6131L42.5456 17.6664L42.5163 17.7193L42.4879 17.7718L42.4604 17.8238L42.4338 17.8755L42.4081 17.9266L42.3832 17.9772L42.3593 18.0273L42.3363 18.0768L42.3141 18.1257L42.2928 18.1739L42.2724 18.2214L42.2528 18.2682L42.2341 18.3143L42.2162 18.3596L42.1992 18.4041L42.183 18.4478L42.1676 18.4905L42.1529 18.5324L42.1391 18.5734L42.126 18.6135L42.1137 18.6525L42.1021 18.6906L42.0912 18.7276L42.081 18.7635L42.0715 18.7984L42.0627 18.8322L42.0545 18.8648L42.0469 18.8964L42.04 18.9267L42.0336 18.9558L42.0277 18.9838L42.0224 19.0105L42.0177 19.0359L42.0134 19.0601L42.0095 19.083L42.0061 19.1046L42.0032 19.1249L42.0006 19.1438L41.9983 19.1615L41.9964 19.1777L41.9949 19.1926L41.9936 19.2061L41.9925 19.2183L41.9917 19.229L41.9911 19.2383L41.9906 19.2463L41.9903 19.2528L41.9901 19.2579L41.9901 19.2616L41.99 19.2638L41.99 19.2646L41.99 19.264L41.99 19.262L41.9899 19.2586L41.9897 19.2537L41.9894 19.2474L41.989 19.2397L41.9884 19.2306L41.9877 19.2201L41.9866 19.2082L41.9854 19.1949L41.9839 19.1802L41.982 19.1641L41.9798 19.1467L41.9773 19.128L41.9744 19.1079L41.9711 19.0865L41.9673 19.0638L41.9631 19.0399L41.9584 19.0146L41.9532 18.9881L41.9474 18.9604L41.9411 18.9314L41.9342 18.9013L41.9268 18.8699L41.9187 18.8375L41.9099 18.8039L41.9006 18.7692L41.8905 18.7334L41.8797 18.6965L41.8682 18.6586L41.856 18.6197L41.8431 18.5799L41.8293 18.539L41.8148 18.4973L41.7996 18.4546L41.7835 18.4111L41.7665 18.3667L41.7488 18.3216L41.7302 18.2756L41.7108 18.2289L41.6905 18.1815L41.6694 18.1334L41.6473 18.0846L41.6244 18.0352L41.6006 17.9852L41.576 17.9347L41.5504 17.8836L41.5239 17.8321L41.4966 17.7801L41.4683 17.7276L41.4392 17.6748L41.4091 17.6216L41.3782 17.5681L41.3464 17.5143L41.3137 17.4603L41.2801 17.406L41.2456 17.3515L41.2103 17.2969L41.1741 17.2422L41.137 17.1873L41.0991 17.1324L41.0604 17.0775L41.0209 17.0227L40.9805 16.9678L40.9394 16.913L40.8975 16.8584L40.8548 16.8039L40.8114 16.7495L40.7672 16.6954L40.7223 16.6415L40.6768 16.5878L40.6305 16.5345L40.5836 16.4815L40.5361 16.4288L40.4879 16.3765L40.4392 16.3246L40.3899 16.2732L40.34 16.2222L40.2897 16.1717L40.2388 16.1217L40.1875 16.0723L40.1357 16.0234L40.0835 15.9751L40.0309 15.9274L39.978 15.8804L39.9247 15.834L39.8711 15.7882L39.8173 15.7432L39.7632 15.6989L39.7089 15.6553L39.6544 15.6124L39.5998 15.5703L39.5451 15.529L39.4902 15.4884L39.4353 15.4487L39.3804 15.4098L39.3255 15.3717L39.2707 15.3345L39.2159 15.2981L39.1613 15.2625L39.1068 15.2278L39.0525 15.194L38.9983 15.1611L38.9445 15.1291L38.8909 15.0979L38.8376 15.0677L38.7847 15.0383L38.7322 15.0098L38.6801 14.9823L38.6284 14.9556L38.5772 14.9298L38.5265 14.9049L38.4764 14.8809L38.4269 14.8578L38.378 14.8356L38.3297 14.8142L38.2821 14.7937L38.2352 14.7741L38.1891 14.7553L38.1437 14.7374L38.0992 14.7203L38.0555 14.704L38.0126 14.6885L37.9706 14.6738L37.9296 14.6599L37.8895 14.6468L37.8503 14.6344L37.8122 14.6227L37.7751 14.6118L37.7391 14.6015L37.7041 14.592L37.6702 14.5831L37.6375 14.5749L37.6059 14.5672L37.5755 14.5602L37.5462 14.5538L37.5182 14.5479L37.4914 14.5426L37.4658 14.5378L37.4415 14.5334L37.4185 14.5295L37.3968 14.5261L37.3764 14.5231L37.3574 14.5205L37.3397 14.5182L37.3233 14.5163L37.3083 14.5147L37.2947 14.5134L37.2824 14.5123L37.2716 14.5115L37.2621 14.5109L37.2541 14.5104L37.2474 14.5101L37.2422 14.5099L37.2384 14.5098L37.2361 14.5098L37.2351 14.5097L37.2356 14.5097L37.2375 14.5097L37.2409 14.5096L37.2456 14.5095L37.2518 14.5092L37.2594 14.5088L37.2684 14.5082L37.2788 14.5075L37.2906 14.5065L37.3038 14.5052L37.3184 14.5037L37.3343 14.5019L37.3516 14.4998L37.3702 14.4973L37.3902 14.4944L37.4115 14.4911L37.4341 14.4874L37.458 14.4832L37.4831 14.4785L37.5095 14.4733L37.5372 14.4676L37.566 14.4614L37.5961 14.4545L37.6273 14.4471L37.6597 14.4391L37.6932 14.4304L37.7278 14.4211L37.7635 14.411L37.8003 14.4003L37.8381 14.3889L37.8769 14.3768L37.9167 14.3639L37.9574 14.3502L37.9991 14.3358L38.0417 14.3205L38.0852 14.3045L38.1295 14.2877L38.1746 14.27L38.2205 14.2515L38.2671 14.2321L38.3145 14.2119L38.3625 14.1908L38.4112 14.1689L38.4606 14.146L38.5105 14.1223L38.561 14.0977L38.612 14.0722L38.6636 14.0458L38.7155 14.0185L38.7679 13.9903L38.8207 13.9613L38.8739 13.9313L38.9274 13.9004L38.9812 13.8687L39.0352 13.836L39.0895 13.8025L39.1439 13.7681L39.1985 13.7328L39.2532 13.6967L39.3081 13.6597L39.3629 13.6219L39.4178 13.5833L39.4727 13.5438L39.5276 13.5035L39.5824 13.4624L39.637 13.4206L39.6916 13.378L39.7459 13.3346L39.8001 13.2905L39.854 13.2457L39.9077 13.2002L39.961 13.154L40.0141 13.1071L40.0668 13.0596L40.1191 13.0115L40.171 12.9628L40.2225 12.9136L40.2735 12.8638L40.3241 12.8134L40.3741 12.7626L40.4236 12.7113L40.4725 12.6596L40.5208 12.6074L40.5686 12.5549L40.6157 12.5019L40.6621 12.4487L40.7079 12.3951L40.753 12.3413L40.7974 12.2872L40.8411 12.233L40.884 12.1785L40.9261 12.1239L40.9675 12.0691L41.0081 12.0143L41.0479 11.9594L41.0869 11.9045L41.125 11.8496L41.1624 11.7948L41.1988 11.74L41.2344 11.6854L41.2692 11.6308L41.3031 11.5765L41.336 11.5224L41.3682 11.4685L41.3994 11.4149L41.4297 11.3616L41.4591 11.3086L41.4877 11.2561L41.5153 11.2039L41.5421 11.1522L41.5679 11.101L41.5929 11.0503L41.617 11.0001L41.6401 10.9505L41.6624 10.9016L41.6839 10.8533L41.7044 10.8056L41.7241 10.7587L41.743 10.7125L41.761 10.6671L41.7782 10.6224L41.7945 10.5786L41.8101 10.5357L41.8248 10.4937L41.8388 10.4525L41.852 10.4124L41.8644 10.3731L41.8761 10.3349L41.8871 10.2977L41.8974 10.2616L41.907 10.2266L41.916 10.1926L41.9243 10.1598L41.9319 10.1281L41.939 10.0976L41.9455 10.0682L41.9514 10.0401L41.9568 10.0132L41.9616 9.98755L41.966 9.96316L41.9699 9.94005L41.9734 9.91824L41.9764 9.89775L41.9791 9.87858L41.9814 9.86075L41.9833 9.84427L41.9849 9.82916L41.9863 9.81542L41.9874 9.80306L41.9882 9.7921L41.9889 9.78254L41.9893 9.77439L41.9896 9.76764L41.9898 9.76232L41.99 9.75842L41.99 9.75594L41.99 9.75488L41.99 9.75526L41.99 9.75705L41.9901 9.76028L41.9903 9.76492L41.9905 9.77099L41.9909 9.77847L41.9915 9.78736L41.9922 9.79765L41.9932 9.80934L41.9944 9.82242L41.9959 9.83688L41.9977 9.85271L41.9998 9.86989L42.0023 9.88842L42.0051 9.90829L42.0084 9.92947L42.0121 9.95196L42.0162 9.97573L42.0209 10.0008L42.026 10.0271L42.0317 10.0546L42.0379 10.0834L42.0446 10.1133L42.052 10.1445L42.06 10.1768L42.0686 10.2102L42.0779 10.2447L42.0879 10.2804L42.0985 10.317L42.1099 10.3548L42.122 10.3935L42.1348 10.4332L42.1484 10.4739L42.1628 10.5155L42.178 10.558L42.1939 10.6014L42.2107 10.6456L42.2283 10.6907L42.2468 10.7365L42.2661 10.7831L42.2862 10.8304L42.3072 10.8784L42.3291 10.9271L42.3519 10.9764L42.3755 11.0263L42.4001 11.0767L42.4255 11.1277L42.4518 11.1792L42.479 11.2311L42.5071 11.2835L42.5361 11.3362L42.566 11.3894L42.5968 11.4428L42.6285 11.4966L42.6611 11.5506L42.6945 11.6049L42.7289 11.6593L42.7641 11.7139L42.8001 11.7686L42.837 11.8234L42.8748 11.8783L42.9134 11.9332L42.9528 11.9881L42.993 12.043L43.034 12.0977L43.0758 12.1524L43.1184 12.207L43.1617 12.2613L43.2057 12.3155L43.2505 12.3695L43.2959 12.4231L43.3421 12.4765L43.3889 12.5296L43.4363 12.5823L43.4844 12.6347L43.533 12.6866L43.5822 12.7382L43.632 12.7892L43.6823 12.8398L43.7331 12.8898L43.7843 12.9394L43.8361 12.9883L43.8882 13.0367L43.9407 13.0845L43.9936 13.1317L44.0468 13.1782L44.1003 13.224L44.1541 13.2692L44.2082 13.3136L44.2625 13.3573L44.3169 13.4003L44.3715 13.4425L44.4262 13.484L44.4811 13.5246L44.5359 13.5645L44.5908 13.6036L44.6457 13.6418L44.7006 13.6792L44.7554 13.7157L44.81 13.7514L44.8646 13.7862L44.9189 13.8201L44.9731 13.8532L45.027 13.8854L45.0806 13.9167L45.1339 13.9471L45.1869 13.9766L45.2395 14.0052L45.2917 14.0329L45.3434 14.0597L45.3947 14.0856L45.4454 14.1107L45.4956 14.1348L45.5453 14.1581L45.5943 14.1804L45.6427 14.2019L45.6904 14.2226L45.7374 14.2423L45.7836 14.2612L45.8291 14.2793L45.8738 14.2966L45.9177 14.313L45.9607 14.3286L46.0028 14.3434L46.044 14.3574L46.0842 14.3707L46.1235 14.3832L46.1618 14.395L46.1991 14.406L46.2353 14.4164L46.2704 14.426L46.3045 14.435L46.3374 14.4434L46.3692 14.4511L46.3998 14.4582L46.4292 14.4647L46.4575 14.4707L46.4845 14.4761L46.5102 14.481L46.5347 14.4854L46.5579 14.4894L46.5798 14.4929L46.6004 14.4959L46.6197 14.4986L46.6376 14.5009L46.6542 14.5029L46.6694 14.5045L46.6833 14.5059L46.6957 14.507L46.7068 14.5079L46.7165 14.5085L46.7248 14.509L46.7316 14.5094L46.7371 14.5096L46.7411 14.5097L46.7437 14.5097L46.7448 14.5097L46.7449 14.5097Z" fill="#ED1C24"/>
<path fill-rule="evenodd" clip-rule="evenodd" d="M36.3822 5.75486L36.3815 5.75487L36.3794 5.7549L36.3758 5.75499L36.3708 5.75517L36.3644 5.75546L36.3566 5.75589L36.3474 5.75649L36.3368 5.75729L36.3247 5.75832L36.3113 5.75959L36.2965 5.76115L36.2804 5.76302L36.2629 5.76522L36.244 5.76778L36.2238 5.77073L36.2023 5.77409L36.1796 5.77789L36.1555 5.78215L36.1301 5.78689L36.1035 5.79215L36.0757 5.79794L36.0466 5.80428L36.0164 5.8112L35.985 5.81873L35.9524 5.82687L35.9187 5.83565L35.8839 5.8451L35.8481 5.85522L35.8111 5.86604L35.7732 5.87758L35.7342 5.88985L35.6942 5.90287L35.6533 5.91665L35.6115 5.93121L35.5688 5.94657L35.5252 5.96273L35.4808 5.97971L35.4355 5.99752L35.3895 6.01616L35.3427 6.03566L35.2953 6.05601L35.2471 6.07724L35.1983 6.09933L35.1488 6.1223L35.0988 6.14616L35.0482 6.17091L34.9971 6.19655L34.9455 6.22308L34.8935 6.25051L34.841 6.27883L34.7882 6.30805L34.735 6.33817L34.6814 6.36918L34.6276 6.40108L34.5735 6.43386L34.5192 6.46752L34.4648 6.50206L34.4101 6.53746L34.3554 6.57373L34.3005 6.61084L34.2457 6.64879L34.1908 6.68758L34.1359 6.72718L34.081 6.76759L34.0263 6.80879L33.9716 6.85076L33.9171 6.89351L33.8628 6.93699L33.8087 6.98121L33.7548 7.02614L33.7012 7.07176L33.6478 7.11806L33.5948 7.16501L33.5422 7.2126L33.4899 7.26079L33.4381 7.30958L33.3867 7.35893L33.3357 7.40882L33.2853 7.45924L33.2354 7.51014L33.186 7.56151L33.1371 7.61333L33.0889 7.66555L33.0412 7.71816L32.9942 7.77113L32.9479 7.82443L32.9022 7.87802L32.8572 7.93189L32.813 7.98599L32.7694 8.04031L32.7266 8.0948L32.6846 8.14944L32.6433 8.20419L32.6028 8.25903L32.5632 8.31392L32.5243 8.36882L32.4863 8.42371L32.4491 8.47855L32.4128 8.5333L32.3773 8.58795L32.3427 8.64244L32.309 8.69675L32.2761 8.75084L32.2442 8.80468L32.2131 8.85824L32.1829 8.91148L32.1536 8.96437L32.1252 9.01687L32.0977 9.06895L32.0711 9.12058L32.0454 9.17173L32.0206 9.22235L31.9966 9.27242L31.9736 9.3219L31.9514 9.37077L31.9301 9.41899L31.9097 9.46652L31.8902 9.51334L31.8714 9.55942L31.8536 9.60472L31.8365 9.64921L31.8203 9.69287L31.8049 9.73566L31.7903 9.77756L31.7764 9.81854L31.7633 9.85857L31.751 9.89762L31.7394 9.93567L31.7285 9.97269L31.7184 10.0086L31.7089 10.0435L31.7 10.0773L31.6918 10.11L31.6843 10.1415L31.6773 10.1718L31.6709 10.201L31.6651 10.2289L31.6598 10.2556L31.655 10.281L31.6507 10.3052L31.6469 10.3281L31.6435 10.3497L31.6405 10.37L31.6379 10.389L31.6357 10.4066L31.6338 10.4228L31.6322 10.4377L31.6309 10.4513L31.6298 10.4634L31.629 10.4741L31.6284 10.4835L31.628 10.4914L31.6277 10.4979L31.6275 10.503L31.6274 10.5067L31.6273 10.5089L31.6273 10.5098L31.6273 10.5092L31.6273 10.5071L31.6272 10.5037L31.6271 10.4988L31.6268 10.4925L31.6264 10.4848L31.6258 10.4757L31.625 10.4652L31.624 10.4533L31.6227 10.44L31.6212 10.4253L31.6193 10.4093L31.6172 10.3919L31.6146 10.3731L31.6117 10.353L31.6084 10.3316L31.6046 10.309L31.6004 10.285L31.5957 10.2597L31.5905 10.2332L31.5847 10.2055L31.5784 10.1765L31.5716 10.1464L31.5641 10.1151L31.556 10.0826L31.5473 10.049L31.5379 10.0143L31.5278 9.97848L31.517 9.94163L31.5056 9.90375L31.4934 9.86485L31.4804 9.82498L31.4667 9.78415L31.4522 9.7424L31.4369 9.69974L31.4208 9.65622L31.4039 9.61186L31.3861 9.56668L31.3676 9.52073L31.3481 9.47402L31.3278 9.4266L31.3067 9.37849L31.2847 9.32973L31.2618 9.28034L31.238 9.23036L31.2133 9.17982L31.1877 9.12876L31.1613 9.07721L31.1339 9.0252L31.1057 8.97276L31.0765 8.91993L31.0465 8.86674L31.0155 8.81323L30.9837 8.75943L30.951 8.70538L30.9174 8.6511L30.8829 8.59664L30.8476 8.54201L30.8114 8.48727L30.7744 8.43244L30.7365 8.37756L30.6977 8.32266L30.6582 8.26777L30.6179 8.21292L30.5767 8.15815L30.5348 8.10349L30.4921 8.04898L30.4487 7.99463L30.4045 7.94049L30.3597 7.88658L30.3141 7.83294L30.2679 7.7796L30.221 7.72657L30.1734 7.6739L30.1253 7.62162L30.0765 7.56974L30.0272 7.51829L29.9774 7.46731L29.927 7.41682L29.8761 7.36684L29.8248 7.3174L29.773 7.26852L29.7208 7.22023L29.6682 7.17255L29.6153 7.12549L29.562 7.07909L29.5085 7.03336L29.4546 6.98832L29.4005 6.94399L29.3462 6.90038L29.2918 6.85752L29.2371 6.81542L29.1824 6.7741L29.1275 6.73356L29.0727 6.69383L29.0178 6.65492L28.9629 6.61683L28.908 6.57958L28.8533 6.54318L28.7986 6.50764L28.7441 6.47297L28.6898 6.43916L28.6357 6.40624L28.5818 6.3742L28.5282 6.34305L28.475 6.31279L28.422 6.28343L28.3695 6.25496L28.3174 6.22739L28.2657 6.20071L28.2145 6.17493L28.1639 6.15004L28.1138 6.12604L28.0642 6.10293L28.0153 6.0807L27.967 6.05934L27.9195 6.03884L27.8726 6.01921L27.8264 6.00043L27.7811 5.98249L27.7365 5.96538L27.6928 5.94909L27.6499 5.93361L27.608 5.91892L27.5669 5.90501L27.5268 5.89187L27.4877 5.87948L27.4495 5.86783L27.4124 5.8569L27.3764 5.84666L27.3414 5.83711L27.3076 5.82822L27.2748 5.81998L27.2432 5.81236L27.2128 5.80534L27.1835 5.79891L27.1555 5.79303L27.1287 5.78769L27.1032 5.78287L27.0789 5.77854L27.0559 5.77467L27.0342 5.77124L27.0138 5.76823L26.9947 5.7656L26.977 5.76335L26.9606 5.76143L26.9456 5.75982L26.932 5.7585L26.9197 5.75744L26.9089 5.7566L26.8994 5.75597L26.8914 5.75552L26.8848 5.75521L26.8796 5.75501L26.8758 5.75491L26.8734 5.75487L26.8725 5.75486L26.873 5.75486L26.8749 5.75483L26.8782 5.75475L26.883 5.75459L26.8891 5.75432L26.8967 5.75392L26.9057 5.75334L26.9161 5.75258L26.9279 5.75159L26.9411 5.75035L26.9557 5.74884L26.9716 5.74703L26.9889 5.74488L27.0076 5.74238L27.0275 5.73949L27.0488 5.7362L27.0714 5.73247L27.0953 5.72829L27.1204 5.72362L27.1468 5.71845L27.1745 5.71275L27.2033 5.70649L27.2334 5.69967L27.2646 5.69224L27.297 5.6842L27.3305 5.67552L27.3651 5.66618L27.4008 5.65617L27.4376 5.64546L27.4754 5.63403L27.5142 5.62188L27.554 5.60898L27.5948 5.59532L27.6365 5.58088L27.679 5.56566L27.7225 5.54962L27.7668 5.53278L27.8119 5.5151L27.8578 5.49659L27.9044 5.47723L27.9518 5.45701L27.9999 5.43593L28.0486 5.41397L28.0979 5.39114L28.1479 5.36743L28.1983 5.34282L28.2494 5.31732L28.3009 5.29093L28.3529 5.26365L28.4053 5.23547L28.4581 5.20639L28.5112 5.17641L28.5647 5.14555L28.6185 5.11379L28.6725 5.08115L28.7268 5.04762L28.7812 5.01323L28.8358 4.97796L28.8906 4.94183L28.9454 4.90485L29.0003 4.86703L29.0552 4.82838L29.1101 4.78891L29.1649 4.74863L29.2197 4.70755L29.2744 4.6657L29.3289 4.62308L29.3833 4.57971L29.4374 4.53561L29.4913 4.49079L29.545 4.44528L29.5984 4.39909L29.6514 4.35224L29.7041 4.30475L29.7564 4.25665L29.8084 4.20796L29.8598 4.15869L29.9109 4.10888L29.9614 4.05855L30.0114 4.00772L30.0609 3.95642L30.1098 3.90468L30.1582 3.85252L30.2059 3.79997L30.253 3.74706L30.2994 3.69381L30.3452 3.64026L30.3903 3.58643L30.4347 3.53236L30.4784 3.47808L30.5213 3.42361L30.5635 3.369L30.6048 3.31426L30.6454 3.25944L30.6852 3.20455L30.7242 3.14965L30.7624 3.09476L30.7997 3.03991L30.8362 2.98514L30.8718 2.93047L30.9065 2.87596L30.9404 2.82161L30.9734 2.76748L31.0055 2.7136L31.0367 2.65999L31.067 2.6067L31.0965 2.55375L31.125 2.50119L31.1527 2.44904L31.1794 2.39733L31.2053 2.34611L31.2302 2.2954L31.2543 2.24524L31.2775 2.19566L31.2998 2.1467L31.3212 2.09838L31.3418 2.05073L31.3615 2.00379L31.3803 1.9576L31.3983 1.91217L31.4155 1.86755L31.4318 1.82375L31.4474 1.78082L31.4621 1.73878L31.4761 1.69765L31.4893 1.65747L31.5018 1.61826L31.5135 1.58005L31.5245 1.54287L31.5348 1.50673L31.5444 1.47168L31.5533 1.43772L31.5616 1.40488L31.5693 1.37319L31.5763 1.34267L31.5828 1.31334L31.5887 1.28521L31.5941 1.25831L31.599 1.23266L31.6033 1.20828L31.6072 1.18517L31.6107 1.16336L31.6138 1.14286L31.6164 1.1237L31.6187 1.10587L31.6206 1.08939L31.6223 1.07428L31.6236 1.06054L31.6247 1.04818L31.6255 1.03722L31.6262 1.02766L31.6267 1.0195L31.627 1.01276L31.6272 1.00744L31.6273 1.00353L31.6273 1.00105L31.6273 1L31.6273 1.00037L31.6274 1.00217L31.6274 1.00539L31.6276 1.01004L31.6279 1.01611L31.6282 1.02359L31.6288 1.03248L31.6296 1.04277L31.6305 1.05446L31.6317 1.06754L31.6332 1.082L31.635 1.09782L31.6371 1.11501L31.6396 1.13354L31.6425 1.1534L31.6457 1.17459L31.6494 1.19707L31.6536 1.22085L31.6582 1.2459L31.6633 1.27221L31.669 1.29975L31.6752 1.32851L31.682 1.35846L31.6893 1.3896L31.6973 1.42189L31.706 1.45531L31.7153 1.48985L31.7252 1.52547L31.7359 1.56215L31.7472 1.59988L31.7593 1.63861L31.7722 1.67833L31.7858 1.71901L31.8001 1.76062L31.8153 1.80313L31.8313 1.84652L31.8481 1.89075L31.8657 1.9358L31.8841 1.98163L31.9034 2.02821L31.9235 2.07552L31.9446 2.12353L31.9664 2.17219L31.9892 2.22148L32.0129 2.27137L32.0374 2.32182L32.0628 2.3728L32.0891 2.42428L32.1163 2.47622L32.1445 2.52859L32.1735 2.58136L32.2034 2.63449L32.2342 2.68795L32.2658 2.74171L32.2984 2.79572L32.3319 2.84997L32.3662 2.90441L32.4014 2.959L32.4375 3.01373L32.4744 3.06855L32.5121 3.12342L32.5507 3.17832L32.5901 3.23322L32.6303 3.28807L32.6713 3.34286L32.7131 3.39754L32.7557 3.45208L32.799 3.50645L32.8431 3.56063L32.8878 3.61457L32.9333 3.66826L32.9794 3.72165L33.0262 3.77473L33.0736 3.82746L33.1217 3.87981L33.1703 3.93176L33.2196 3.98327L33.2693 4.03433L33.3196 4.0849L33.3704 4.13496L33.4217 4.18449L33.4734 4.23346L33.5255 4.28184L33.578 4.32963L33.6309 4.37678L33.6841 4.42329L33.7377 4.46913L33.7915 4.51428L33.8455 4.55873L33.8998 4.60245L33.9542 4.64543L34.0088 4.68765L34.0636 4.7291L34.1184 4.76976L34.1733 4.80962L34.2282 4.84867L34.2831 4.88689L34.3379 4.92427L34.3927 4.9608L34.4474 4.99648L34.5019 5.0313L34.5563 5.06524L34.6104 5.0983L34.6643 5.13048L34.7179 5.16178L34.7713 5.19218L34.8242 5.22168L34.8768 5.25029L34.929 5.27801L34.9808 5.30483L35.032 5.33075L35.0828 5.35578L35.133 5.37992L35.1826 5.40318L35.2316 5.42555L35.28 5.44705L35.3277 5.46768L35.3747 5.48745L35.4209 5.50636L35.4664 5.52444L35.5111 5.54168L35.555 5.5581L35.598 5.57371L35.6401 5.58852L35.6813 5.60255L35.7216 5.61581L35.7608 5.62832L35.7991 5.64009L35.8364 5.65114L35.8726 5.66148L35.9078 5.67114L35.9418 5.68013L35.9747 5.68848L36.0065 5.69619L36.0371 5.7033L36.0666 5.70983L36.0948 5.71579L36.1218 5.72122L36.1475 5.72612L36.172 5.73053L36.1952 5.73447L36.2171 5.73797L36.2377 5.74105L36.257 5.74373L36.275 5.74604L36.2915 5.74801L36.3068 5.74967L36.3206 5.75103L36.3331 5.75214L36.3441 5.753L36.3538 5.75367L36.3621 5.75415L36.3689 5.75448L36.3744 5.75469L36.3784 5.7548L36.381 5.75485L36.3822 5.75486L36.3822 5.75486Z" fill="#ED1C24"/>
</svg>
