<svg width="44" height="43" fill="none" xmlns="http://www.w3.org/2000/svg"><path d="M3.758 9.212h6.34V7.035h-8.76c-.936 5.016-.496 15.046 8.758 15.046v-2.24c-6.588 0-6.971-7.086-6.34-10.629Zm36.874 0h-6.34V7.035h8.758c.937 5.016.497 15.046-8.758 15.046v-2.24c6.588 0 6.971-7.086 6.34-10.629Z" fill="#fff" stroke="#000" stroke-linejoin="round"/><path d="m6.777 29.703 6.717-3.884 4.836 3.884-7.792 5.356v-3.616l-3.761-1.74Zm30.494 0-6.717-3.884-4.836 3.884 7.792 5.356v-3.616l3.761-1.74Z" fill="#F94239"/><path d="m19.606 39.371 1.09-9.303h3.634l1.09 9.303h-5.814Z" fill="#fff" stroke="#000"/><rect x="12.5" y="39.5" width="19" height="3" rx="1.5" fill="#fff" stroke="#000"/><path d="M9.5 3.5h25V18c0 6.904-5.596 12.5-12.5 12.5S9.5 24.904 9.5 18V3.5Z" fill="#fff" stroke="#000"/><rect x="7.5" y=".5" width="29" height="4" rx="2" fill="#fff" stroke="#000"/></svg>