<svg width="48" height="48" fill="none" xmlns="http://www.w3.org/2000/svg"><rect x="1.143" width="11.114" height="11.114" rx="2.25" transform="scale(1.07807 .9153) rotate(-45 60.478 5.35)" fill="#fff" stroke="#000" stroke-width="1.5"/><rect x="1.143" width="11.114" height="11.114" rx="2.25" transform="scale(1.07807 .9153) rotate(-45 56.039 3.665)" fill="#fff" stroke="#000" stroke-width="1.5"/><rect x="1.143" width="11.114" height="11.114" rx="2.25" transform="scale(1.07807 .9153) rotate(-45 51.482 1.777)" fill="#fff" stroke="#000" stroke-width="1.5"/><rect x="1.143" width="11.114" height="11.114" rx="2.25" transform="scale(1.07807 .9153) rotate(-45 27.712 -8.399)" fill="#fff" stroke="#000" stroke-width="1.5"/><rect x="1.143" width="11.114" height="11.114" rx="2.25" transform="scale(1.07807 .9153) rotate(-45 23.273 -10.083)" fill="#fff" stroke="#000" stroke-width="1.5"/><rect x="1.143" width="11.114" height="11.114" rx="2.25" transform="scale(1.07807 .9153) rotate(-45 18.716 -11.97)" fill="#fff" stroke="#000" stroke-width="1.5"/><rect x="1.143" width="11.114" height="11.114" rx="2.25" transform="scale(1.07807 .9153) rotate(-45 37.517 15.03)" fill="#fff" stroke="#000" stroke-width="1.5"/><rect x="1.143" width="11.114" height="11.114" rx="2.25" transform="scale(1.07807 .9153) rotate(-45 33.078 13.345)" fill="#fff" stroke="#000" stroke-width="1.5"/><rect x="1.143" width="11.114" height="11.114" rx="2.25" transform="scale(1.07807 .9153) rotate(-45 28.521 11.457)" fill="#fff" stroke="#000" stroke-width="1.5"/><rect x="1.143" width="11.114" height="11.114" rx="2.25" transform="scale(1.07807 .9153) rotate(-45 50.498 -17.177)" fill="#fff" stroke="#000" stroke-width="1.5"/><rect x="1.143" width="11.114" height="11.114" rx="2.25" transform="scale(1.07807 .9153) rotate(-45 46.059 -18.862)" fill="#fff" stroke="#000" stroke-width="1.5"/><rect x="1.143" width="11.114" height="11.114" rx="2.25" transform="scale(1.07807 .9153) rotate(-45 41.502 -20.75)" fill="#fff" stroke="#000" stroke-width="1.5"/></svg>