<svg width="49" height="49" fill="none" xmlns="http://www.w3.org/2000/svg"><path fill-rule="evenodd" clip-rule="evenodd" d="M.98 48.922a.968.968 0 0 1-.959-.962L0 39.383a.941.941 0 0 1 .954-.944.968.968 0 0 1 .959.962l.016 6.276L7.582 40.6c.137.378.63 1.288 1.253 1.61l-5.55 4.826 6.299.057a.968.968 0 0 1 .959.962.942.942 0 0 1-.954.944L.98 48.922Zm46.14 0a.968.968 0 0 0 .958-.962l.022-8.577a.941.941 0 0 0-.954-.944.968.968 0 0 0-.96.962l-.015 6.276-5.653-5.076c-.137.378-.63 1.288-1.253 1.61l5.55 4.826-6.3.057a.968.968 0 0 0-.958.962.942.942 0 0 0 .954.944l8.608-.078Zm0-47.907a.968.968 0 0 1 .958.962l.022 8.577a.941.941 0 0 1-.954.944.968.968 0 0 1-.96-.962l-.015-6.276-5.653 5.076c-.137-.377-.63-1.288-1.253-1.61l5.55-4.826-6.3-.057a.968.968 0 0 1-.958-.962.942.942 0 0 1 .954-.944l8.608.078Zm-46.118.048a.968.968 0 0 0-.96.961l-.02 8.577a.941.941 0 0 0 .954.944.968.968 0 0 0 .958-.961l.016-6.276 5.653 5.075c.137-.377.63-1.288 1.253-1.61l-5.55-4.825 6.3-.058a.968.968 0 0 0 .958-.961.941.941 0 0 0-.954-.944l-8.608.078Z" fill="#ED1C24"/><path d="M9.874 40.465V12.098s3.473 3.77 14.171 3.77c10.699 0 14.483-4.062 14.483-4.062v28.66c-11.19 3.596-17.464 3.71-28.654 0Z" fill="#fff"/><path d="M39.391 10.656c0 3.037-6.797 5.5-15.36 5.5-8.563 0-15.36-2.463-15.36-5.5s6.797-5.498 15.36-5.498c8.563 0 15.36 2.461 15.36 5.498Z" fill="#fff"/><path fill-rule="evenodd" clip-rule="evenodd" d="M37.467 10.656c0-.008 0-.056-.06-.162-.067-.118-.204-.296-.463-.517-.532-.453-1.416-.948-2.682-1.402-2.516-.902-6.134-1.497-10.265-1.497-4.132 0-7.75.595-10.265 1.497-1.266.454-2.15.949-2.682 1.402-.26.22-.396.399-.463.517-.06.106-.06.154-.06.162 0 .008 0 .057.06.163.067.118.203.296.463.517.532.453 1.416.948 2.682 1.402 2.515.901 6.133 1.497 10.265 1.497 4.131 0 7.75-.596 10.265-1.497 1.266-.454 2.15-.95 2.682-1.402.26-.221.396-.4.463-.517.06-.106.06-.155.06-.163Zm-13.47 5.5c8.582 0 15.394-2.463 15.394-5.5S32.58 5.158 23.997 5.158 8.603 7.619 8.603 10.656c0 3.037 6.812 5.5 15.394 5.5Z" fill="#000"/><path fill-rule="evenodd" clip-rule="evenodd" d="m8.701 38.578-.098-28.245 1.92-.009.098 28.246-1.92.008Zm28.785.045V10.518h1.911v28.105h-1.91Z" fill="#000"/><path fill-rule="evenodd" clip-rule="evenodd" d="M14.212 41.423c2.473.915 5.953 1.5 9.843 1.5 3.89 0 7.37-.585 9.842-1.5 1.24-.458 2.176-.982 2.785-1.514.612-.535.803-.993.803-1.347h1.912c0 1.114-.614 2.056-1.458 2.795-.847.74-2.018 1.364-3.381 1.868-2.734 1.011-6.448 1.617-10.503 1.617-4.056 0-7.77-.606-10.504-1.617-1.363-.504-2.534-1.128-3.38-1.868-.845-.739-1.46-1.68-1.46-2.795h1.913c0 .354.192.813.803 1.347.609.532 1.545 1.056 2.785 1.514Zm0-9.603c2.473.915 5.953 1.5 9.843 1.5 3.89 0 7.37-.585 9.842-1.5 1.24-.458 2.176-.981 2.785-1.514.612-.534.803-.992.803-1.347h1.912c0 1.115-.614 2.056-1.458 2.795-.847.74-2.018 1.364-3.381 1.868-2.734 1.011-6.448 1.618-10.503 1.618-4.056 0-7.77-.607-10.504-1.618-1.363-.504-2.534-1.127-3.38-1.868-.845-.739-1.46-1.68-1.46-2.795h1.913c0 .355.192.813.803 1.347.609.533 1.545 1.056 2.785 1.514Zm-.001-9.602c2.472.914 5.951 1.499 9.84 1.499 3.89 0 7.369-.585 9.84-1.5 1.24-.458 2.177-.981 2.786-1.514.61-.534.802-.992.802-1.347h1.912c0 1.115-.614 2.056-1.458 2.795-.847.74-2.017 1.364-3.38 1.868-2.734 1.011-6.447 1.618-10.502 1.618-4.054 0-7.767-.607-10.5-1.618-1.364-.504-2.534-1.127-3.38-1.868-.845-.739-1.46-1.68-1.46-2.795h1.913c0 .355.191.813.802 1.347.61.533 1.546 1.056 2.785 1.515Z" fill="#000"/></svg>