<svg width="49" height="48" fill="none" xmlns="http://www.w3.org/2000/svg"><path fill-rule="evenodd" clip-rule="evenodd" d="M32.068 45.469a.85.85 0 0 1-.847-.854V36.09a.85.85 0 0 1 .847-.854.85.85 0 0 1 .847.854v8.525a.85.85 0 0 1-.847.854Zm-7.364 0a.85.85 0 0 1-.847-.854V36.09a.85.85 0 0 1 .847-.854.85.85 0 0 1 .847.854v8.525a.85.85 0 0 1-.847.854Zm-7.364 0a.85.85 0 0 1-.848-.854V36.09a.85.85 0 0 1 .847-.854.85.85 0 0 1 .847.854v8.525a.85.85 0 0 1-.847.854Z" fill="#000"/><path fill-rule="evenodd" clip-rule="evenodd" d="M31.031 36.09c0-.578.464-1.046 1.037-1.046s1.038.469 1.038 1.046v8.525c0 .578-.465 1.046-1.038 1.046a1.041 1.041 0 0 1-1.037-1.046V36.09Zm1.037-.662a.659.659 0 0 0-.656.662v8.525c0 .366.294.662.656.662a.659.659 0 0 0 .657-.662V36.09a.659.659 0 0 0-.657-.662Zm-15.766.662c0-.577.464-1.046 1.037-1.046s1.038.469 1.038 1.046v8.525c0 .578-.465 1.046-1.038 1.046a1.041 1.041 0 0 1-1.037-1.046V36.09Zm1.037-.662a.659.659 0 0 0-.656.662v8.525c0 .366.294.662.656.662a.659.659 0 0 0 .657-.662V36.09a.659.659 0 0 0-.657-.662Zm6.328.662c0-.577.464-1.046 1.037-1.046s1.037.469 1.037 1.046v8.525c0 .578-.464 1.046-1.037 1.046a1.041 1.041 0 0 1-1.038-1.046V36.09Zm1.037-.662a.659.659 0 0 0-.657.662v8.525a.66.66 0 0 0 .657.662.659.659 0 0 0 .656-.662V36.09a.659.659 0 0 0-.656-.662Zm15.185-13.187a.857.857 0 0 1 .31-1.166l7.324-4.263a.843.843 0 0 1 1.157.313.857.857 0 0 1-.31 1.166l-7.324 4.262a.843.843 0 0 1-1.157-.312Zm-3.683-6.429a.857.857 0 0 1 .31-1.166l7.325-4.263a.843.843 0 0 1 1.157.313.857.857 0 0 1-.31 1.166l-7.325 4.263a.843.843 0 0 1-1.157-.313Zm-3.682-6.429a.857.857 0 0 1 .31-1.166l7.325-4.263a.843.843 0 0 1 1.157.313.857.857 0 0 1-.31 1.166L33.68 9.696a.843.843 0 0 1-1.157-.313Z" fill="#000"/><path fill-rule="evenodd" clip-rule="evenodd" d="M40.063 3.788a1.033 1.033 0 0 1 1.417.383c.287.5.117 1.14-.38 1.428l-7.324 4.263a1.033 1.033 0 0 1-1.417-.383 1.05 1.05 0 0 1 .38-1.428l7.325-4.263Zm1.088.575a.654.654 0 0 0-.897-.242l-7.325 4.262a.665.665 0 0 0-.24.904.654.654 0 0 0 .897.242l7.324-4.262a.665.665 0 0 0 .24-.904Zm2.595 5.854a1.033 1.033 0 0 1 1.417.383c.286.5.116 1.14-.38 1.428l-7.324 4.263a1.033 1.033 0 0 1-1.417-.383 1.05 1.05 0 0 1 .38-1.428l7.324-4.263Zm1.087.575a.653.653 0 0 0-.897-.242l-7.324 4.262a.664.664 0 0 0-.24.904.653.653 0 0 0 .896.242l7.325-4.262a.665.665 0 0 0 .24-.904Zm2.595 5.854a1.033 1.033 0 0 1 1.417.383c.286.5.116 1.14-.38 1.428l-7.324 4.263a1.033 1.033 0 0 1-1.417-.383 1.05 1.05 0 0 1 .38-1.428l7.324-4.263Zm1.087.575a.654.654 0 0 0-.897-.242l-7.324 4.262a.665.665 0 0 0-.24.904.654.654 0 0 0 .896.242l7.325-4.262a.664.664 0 0 0 .24-.904ZM17.44 9.59a.84.84 0 0 1-1.155.312L8.963 5.627a.86.86 0 0 1-.31-1.168.84.84 0 0 1 1.155-.312l7.322 4.275a.86.86 0 0 1 .31 1.168Zm-3.682 6.45a.84.84 0 0 1-1.155.311L5.28 12.076a.86.86 0 0 1-.31-1.168.84.84 0 0 1 1.155-.311l7.323 4.275a.86.86 0 0 1 .31 1.167Zm-3.682 6.448a.84.84 0 0 1-1.155.312l-7.323-4.275a.86.86 0 0 1-.31-1.167.84.84 0 0 1 1.155-.312l7.323 4.275a.86.86 0 0 1 .31 1.167Z" fill="#000"/><path fill-rule="evenodd" clip-rule="evenodd" d="M8.487 4.363c.286-.5.92-.672 1.416-.382l7.323 4.275c.495.29.666.93.38 1.43-.286.5-.92.672-1.416.382L8.867 5.793a1.053 1.053 0 0 1-.38-1.43Zm1.225-.05a.65.65 0 0 0-.895.242.667.667 0 0 0 .241.906l7.323 4.275a.65.65 0 0 0 .895-.242.667.667 0 0 0-.241-.906L9.712 4.313Zm-4.907 6.5c.286-.5.92-.672 1.416-.383l7.323 4.276c.495.289.665.929.38 1.43-.286.5-.92.671-1.416.381l-7.323-4.275a1.053 1.053 0 0 1-.38-1.43Zm1.225-.05a.65.65 0 0 0-.895.241.667.667 0 0 0 .24.906l7.324 4.275a.65.65 0 0 0 .894-.241.667.667 0 0 0-.24-.906L6.03 10.763Zm-4.907 6.499c.286-.5.92-.672 1.415-.383l7.323 4.276c.496.289.666.929.38 1.43-.286.5-.92.671-1.415.382L1.503 18.69a1.053 1.053 0 0 1-.38-1.43Zm1.225-.05a.65.65 0 0 0-.895.241.667.667 0 0 0 .24.906l7.323 4.275a.65.65 0 0 0 .895-.241.667.667 0 0 0-.24-.906l-7.323-4.275Z" fill="#000"/><path d="M15.354 9.935A4.228 4.228 0 0 1 19.025 7.8l11.807.008a4.228 4.228 0 0 1 3.664 2.134l5.917 10.33a4.298 4.298 0 0 1 .001 4.265l-5.896 10.31a4.228 4.228 0 0 1-3.672 2.137l-11.807-.008a4.228 4.228 0 0 1-3.664-2.134L9.46 24.511a4.298 4.298 0 0 1-.001-4.265l5.896-10.31Z" fill="#fff"/><path fill-rule="evenodd" clip-rule="evenodd" d="m30.831 9.514-11.807-.008c-.909 0-1.749.488-2.203 1.282l-5.896 10.31a2.578 2.578 0 0 0 0 2.56l5.917 10.33a2.537 2.537 0 0 0 2.199 1.28l11.806.008c.91 0 1.75-.488 2.203-1.282l5.897-10.31a2.579 2.579 0 0 0-.001-2.56l-5.916-10.33a2.537 2.537 0 0 0-2.199-1.28ZM19.025 7.799a4.228 4.228 0 0 0-3.671 2.136L9.458 20.246a4.298 4.298 0 0 0 .001 4.266l5.916 10.33a4.228 4.228 0 0 0 3.664 2.133l11.807.008a4.228 4.228 0 0 0 3.672-2.136l5.896-10.311a4.298 4.298 0 0 0-.001-4.266L34.496 9.94a4.228 4.228 0 0 0-3.664-2.133l-11.807-.008Z" fill="#000"/><path fill-rule="evenodd" clip-rule="evenodd" d="M19.025 7.99a4.038 4.038 0 0 0-3.506 2.041L9.623 20.342a4.104 4.104 0 0 0 0 4.074l5.917 10.33a4.038 4.038 0 0 0 3.5 2.037l11.806.008a4.038 4.038 0 0 0 3.507-2.04l5.896-10.311a4.104 4.104 0 0 0-.001-4.074l-5.916-10.33A4.038 4.038 0 0 0 30.831 8l-11.806-.01ZM15.19 9.84a4.419 4.419 0 0 1 3.837-2.233l11.806.008a4.419 4.419 0 0 1 3.83 2.23l5.916 10.33a4.49 4.49 0 0 1 .001 4.457l-5.896 10.31a4.418 4.418 0 0 1-3.837 2.233l-11.807-.008a4.418 4.418 0 0 1-3.829-2.23l-5.916-10.33a4.49 4.49 0 0 1-.001-4.456L15.19 9.839Zm3.835-.142c-.84 0-1.618.451-2.038 1.186l-5.896 10.31a2.385 2.385 0 0 0 0 2.368l5.917 10.33a2.347 2.347 0 0 0 2.034 1.184l11.807.008c.84 0 1.617-.451 2.037-1.186l5.897-10.31a2.385 2.385 0 0 0-.001-2.368l-5.916-10.33a2.347 2.347 0 0 0-2.034-1.184l-11.807-.008Zm-2.368.994a2.727 2.727 0 0 1 2.368-1.378l11.807.008c.975 0 1.876.525 2.364 1.377l5.916 10.329c.488.851.488 1.9 0 2.751L33.216 34.09a2.728 2.728 0 0 1-2.368 1.378L19.04 35.46a2.727 2.727 0 0 1-2.363-1.376l-5.916-10.33a2.772 2.772 0 0 1-.001-2.75l5.896-10.312Z" fill="#000"/><path fill-rule="evenodd" clip-rule="evenodd" d="M27.448 15.339h-5.175c-.908 0-1.747.49-2.2 1.285l-2.588 4.531a2.587 2.587 0 0 0 0 2.562l2.592 4.542a2.529 2.529 0 0 0 2.195 1.28h5.174c.908 0 1.748-.49 2.201-1.285l2.588-4.531a2.587 2.587 0 0 0 0-2.562l-2.593-4.542a2.529 2.529 0 0 0-2.194-1.28Zm-5.172-1.71a4.228 4.228 0 0 0-3.669 2.142l-2.587 4.531a4.312 4.312 0 0 0-.002 4.271l2.593 4.541a4.215 4.215 0 0 0 3.659 2.134h5.174a4.228 4.228 0 0 0 3.669-2.141l2.587-4.531a4.312 4.312 0 0 0 .001-4.271l-2.593-4.541a4.215 4.215 0 0 0-3.658-2.134h-5.174Z" fill="#ED1C24"/><path fill-rule="evenodd" clip-rule="evenodd" d="M27.45 13.822h-5.174a4.04 4.04 0 0 0-3.504 2.045l-2.587 4.531a4.118 4.118 0 0 0-.001 4.08l2.593 4.54a4.024 4.024 0 0 0 3.493 2.038h5.174c1.445 0 2.78-.78 3.503-2.045l2.588-4.531a4.118 4.118 0 0 0 .001-4.08l-2.593-4.54a4.025 4.025 0 0 0-3.493-2.038Zm-5.174-.384h5.174c1.578 0 3.035.85 3.823 2.23l2.593 4.541a4.505 4.505 0 0 1-.001 4.462l-2.587 4.532a4.418 4.418 0 0 1-3.834 2.238H22.27a4.405 4.405 0 0 1-3.824-2.23l-2.593-4.542a4.505 4.505 0 0 1 .002-4.462l2.587-4.532a4.418 4.418 0 0 1 3.834-2.238Zm5.172 2.093h-5.175c-.84 0-1.616.453-2.036 1.188l-2.587 4.532a2.394 2.394 0 0 0 0 2.37l2.592 4.542a2.339 2.339 0 0 0 2.03 1.184h5.174c.84 0 1.616-.453 2.036-1.189l2.588-4.53a2.395 2.395 0 0 0 0-2.372l-2.593-4.541a2.339 2.339 0 0 0-2.03-1.184Zm-5.175-.384h5.175c.974 0 1.873.525 2.36 1.376l2.593 4.542a2.78 2.78 0 0 1-.001 2.754l-2.587 4.531a2.727 2.727 0 0 1-2.367 1.381h-5.174a2.719 2.719 0 0 1-2.36-1.376l-2.593-4.542a2.78 2.78 0 0 1 0-2.754l2.588-4.531a2.727 2.727 0 0 1 2.366-1.381Z" fill="#ED1C24"/></svg>