<svg width="49" height="48" fill="none" xmlns="http://www.w3.org/2000/svg"><path fill-rule="evenodd" clip-rule="evenodd" d="M19.68 2a2 2 0 0 1 2-2h5.973a2 2 0 0 1 2 2v1.642a20.759 20.759 0 0 1 6.261 2.564l1.052-1.052a2 2 0 0 1 2.829 0l3.88 3.881a2 2 0 0 1 0 2.829l-1.017 1.017a20.77 20.77 0 0 1 2.525 5.82h1.795a2 2 0 0 1 2 2v5.974a2 2 0 0 1-2 2h-1.642a20.756 20.756 0 0 1-2.564 6.262l1.051 1.051a2 2 0 0 1 0 2.829l-3.88 3.88a2 2 0 0 1-2.829 0l-1.017-1.017a20.762 20.762 0 0 1-6.444 2.678V46a2 2 0 0 1-2 2H21.68a2 2 0 0 1-2-2v-1.795a20.767 20.767 0 0 1-5.82-2.525l-1.296 1.297a2 2 0 0 1-2.829 0l-3.88-3.881a2 2 0 0 1 0-2.829l1.33-1.33a20.758 20.758 0 0 1-2.564-6.262H2.978a2 2 0 0 1-2-2v-5.974a2 2 0 0 1 2-2h1.795a20.768 20.768 0 0 1 2.525-5.82L6 11.585a2 2 0 0 1 0-2.828l3.881-3.881a2 2 0 0 1 2.829 0l1.33 1.33a20.764 20.764 0 0 1 5.638-2.41V2Z" fill="#fff"/><path fill-rule="evenodd" clip-rule="evenodd" d="M27.653 5.237V2H21.68v3.34l-1.494.39a18.765 18.765 0 0 0-5.095 2.18l-1.345.828-2.449-2.448-3.88 3.88 2.425 2.426-.851 1.352a18.77 18.77 0 0 0-2.282 5.26L6.317 20.7h-3.34v5.974h3.237l.356 1.555a18.758 18.758 0 0 0 2.317 5.658l.829 1.345-2.448 2.448 3.88 3.881 2.426-2.425 1.351.851a18.77 18.77 0 0 0 5.26 2.282l1.494.39V46h5.974v-3.236l1.554-.356a18.762 18.762 0 0 0 5.823-2.42l1.352-.851 2.146 2.146 3.881-3.88-2.17-2.17.83-1.345a18.76 18.76 0 0 0 2.317-5.658l.355-1.555h3.237v-5.974h-3.34l-.39-1.494a18.77 18.77 0 0 0-2.282-5.26l-.852-1.35 2.147-2.147-3.88-3.881-2.17 2.169-1.346-.829a18.759 18.759 0 0 0-5.658-2.317l-1.554-.355Zm2-1.595V2a2 2 0 0 0-2-2H21.68a2 2 0 0 0-2 2v1.795a20.764 20.764 0 0 0-5.638 2.411l-1.33-1.33a2 2 0 0 0-2.829 0l-3.88 3.88a2 2 0 0 0 0 2.829l1.296 1.296a20.768 20.768 0 0 0-2.525 5.82H2.978a2 2 0 0 0-2 2v5.974a2 2 0 0 0 2 2H4.62a20.758 20.758 0 0 0 2.564 6.262l-1.33 1.33a2 2 0 0 0 0 2.829l3.88 3.88a2 2 0 0 0 2.829 0l1.296-1.296a20.767 20.767 0 0 0 5.82 2.525V46a2 2 0 0 0 2 2h5.974a2 2 0 0 0 2-2v-1.642a20.762 20.762 0 0 0 6.444-2.678l1.017 1.018a2 2 0 0 0 2.828 0l3.881-3.881a2 2 0 0 0 0-2.829l-1.051-1.051a20.756 20.756 0 0 0 2.564-6.262h1.642a2 2 0 0 0 2-2v-5.974a2 2 0 0 0-2-2h-1.795a20.77 20.77 0 0 0-2.525-5.82l1.017-1.017a2 2 0 0 0 0-2.829l-3.88-3.88a2 2 0 0 0-2.829 0l-1.052 1.051a20.759 20.759 0 0 0-6.26-2.564Z" fill="#000"/><path fill-rule="evenodd" clip-rule="evenodd" d="M24.978 35.753c6.788 0 12.292-5.503 12.292-12.292s-5.504-12.292-12.292-12.292c-6.789 0-12.292 5.503-12.292 12.292s5.503 12.292 12.292 12.292Zm0 2c7.893 0 14.292-6.399 14.292-14.292S32.87 9.169 24.978 9.169c-7.894 0-14.292 6.399-14.292 14.292s6.398 14.292 14.292 14.292Z" fill="#000"/></svg>