<svg width="49" height="48" fill="none" xmlns="http://www.w3.org/2000/svg"><g clip-path="url(#a)" fill-rule="evenodd" clip-rule="evenodd"><path d="M26.445 17.517c2.374-3.87 6.046-5.376 10.247-5.376 6.807 0 12.332 5.44 12.332 12.16S43.5 36.46 36.692 36.46a12.38 12.38 0 0 1-9.649-4.587l-.188-.233 1.809-1.422.183.227a10.058 10.058 0 0 0 7.845 3.729c5.54 0 10.023-4.425 10.023-9.874 0-5.45-4.483-9.874-10.023-9.874-3.573 0-6.403 1.229-8.273 4.277a6.044 6.044 0 0 0-.296.67c-.148.374-.32.85-.493 1.373-.35 1.059-.685 2.261-.844 3.201-.549 3.243-2.262 6.15-3.078 7.242l-.174.233-.022-.016a12.372 12.372 0 0 1-10.009 5.054c-6.806 0-12.332-5.44-12.332-12.16s5.526-12.16 12.332-12.16a12.38 12.38 0 0 1 9.65 4.587l.188.233-1.809 1.421-.183-.227a10.058 10.058 0 0 0-7.846-3.728c-5.54 0-10.022 4.425-10.022 9.874 0 5.449 4.483 9.874 10.022 9.874 3.488 0 6.558-1.753 8.354-4.417l.163-.241.037.024c.737-1.086 2.024-3.442 2.451-5.97.186-1.101.56-2.426.927-3.534.184-.558.37-1.075.538-1.497.156-.394.323-.78.472-1.023Z" fill="#000"/><path d="M22.504 12.673c0-.635.521-1.143 1.155-1.143s1.155.508 1.155 1.143v5.932a1.15 1.15 0 0 1-1.155 1.143h-6.875a1.149 1.149 0 0 1-1.154-1.143c0-.635.52-1.143 1.154-1.143h5.72v-4.79Z" fill="#FF1019"/></g><defs><clipPath id="a"><path fill="#fff" transform="translate(.971)" d="M0 0h48v48H0z"/></clipPath></defs></svg>