<svg width="276" height="307" fill="none" xmlns="http://www.w3.org/2000/svg"><mask id="a" style="mask-type:alpha" maskUnits="userSpaceOnUse" x="0" y="0" width="276" height="307"><rect width="276" height="307" rx="10" fill="#CE2034"/></mask><g mask="url(#a)"><path d="M40 157.781a6 6 0 0 1 5.266-5.955L206 132v224H40V157.781Z" fill="url(#b)"/><path d="M58 170.27a6 6 0 0 1 4.676-5.852L206 132v224L58 369V170.27Z" fill="url(#c)"/><path d="M354 170.27a6.001 6.001 0 0 0-4.676-5.852L206 132v224l148 13V170.27Z" fill="url(#d)"/><path d="M361 361H206V132h149a6 6 0 0 1 6 6v223Z" fill="url(#e)"/><path d="m94.972 182.611-10.666 13.982c-.727.954-.722 2.186.013 2.781l10.653 8.631m19.454-4.671 10.665-13.981c.728-.954.722-2.186-.013-2.782l-10.652-8.63" stroke="#fff" stroke-opacity=".3"/><circle r="1.154" transform="matrix(.97237 -.23345 0 1 97.59 193.91)" fill="#fff"/><circle r="1.154" transform="matrix(.97237 -.23345 0 1 105.073 192.114)" fill="#fff"/><circle r="1.154" transform="matrix(.97237 -.23345 0 1 112.555 190.317)" fill="#fff"/><path d="m89.5 231 87.5-22.5m-87 45 87.5-22.5M90 276.5l87.5-22.5" stroke="#fff" stroke-opacity=".2"/></g><defs><linearGradient id="b" x1="206" y1="226.66" x2="27.389" y2="225.324" gradientUnits="userSpaceOnUse"><stop stop-color="#fff" stop-opacity=".1"/><stop offset=".505" stop-color="#fff" stop-opacity=".27"/><stop offset="1" stop-color="#fff" stop-opacity=".31"/></linearGradient><linearGradient id="c" x1="206" y1="226.66" x2="27.389" y2="225.324" gradientUnits="userSpaceOnUse"><stop stop-color="#fff" stop-opacity=".1"/><stop offset=".505" stop-color="#fff" stop-opacity=".27"/><stop offset="1" stop-color="#fff" stop-opacity=".31"/></linearGradient><linearGradient id="d" x1="206" y1="226.66" x2="384.611" y2="225.324" gradientUnits="userSpaceOnUse"><stop stop-color="#fff" stop-opacity=".1"/><stop offset=".505" stop-color="#fff" stop-opacity=".27"/><stop offset="1" stop-color="#fff" stop-opacity=".31"/></linearGradient><linearGradient id="e" x1="206" y1="264.82" x2="372.777" y2="265.954" gradientUnits="userSpaceOnUse"><stop stop-color="#fff" stop-opacity=".29"/><stop offset=".392" stop-color="#fff" stop-opacity=".31"/><stop offset="1" stop-color="#fff" stop-opacity="0"/></linearGradient></defs></svg>