<svg width="542" height="366" fill="none" xmlns="http://www.w3.org/2000/svg"><rect width="542" height="366" rx="10" fill="#F6F6F6"/><rect x="188" y="55" width="161" height="217" rx="20" fill="#fff"/><rect x="214" y="141" width="109.667" height="110" rx="54.834" fill="#ED1C24"/><path d="M259.006 176.495s-25.138 15.348-1.447 30.589c4.558 2.968 21.087 11.222 20.617 18.86 0 0 10.019-14.842-4.63-24.182-15.046-9.557-18.808-19.765-14.54-25.267Z" fill="#fff"/><path d="M250.253 205.818s-8.97 13.611 8.68 16.398c1.737.217 14.504 1.557 17.832 5.756 0 0-.289-7.24-10.706-11.512-10.381-4.271-14.649-5.321-15.806-10.642Zm34.723-14.299c-10.779-11.295-13.781-18.281-9.151-27.331 0 0-32.155 12.38-.398 34.353 11.357 7.856 9.476 15.892 9.476 16.182 1.773-1.846 10.851-11.91.073-23.204Z" fill="#fff"/><path d="m411.318 287 3.024-7.874h1.122l3.223 7.874H417.5l-.918-2.385h-3.293l-.865 2.385h-1.106Zm2.272-3.233h2.669l-.821-2.181a21.49 21.49 0 0 1-.559-1.633c-.1.505-.242 1.006-.424 1.504l-.865 2.31Zm5.806 5.419v-7.89h.881v.741c.208-.29.442-.507.703-.65.262-.147.579-.22.951-.22.487 0 .917.125 1.289.376.373.251.654.605.843 1.063.19.455.285.955.285 1.499a3.79 3.79 0 0 1-.317 1.579 2.355 2.355 0 0 1-.913 1.074 2.342 2.342 0 0 1-1.257.371c-.322 0-.612-.068-.87-.204a1.984 1.984 0 0 1-.628-.516v2.777h-.967Zm.875-5.006c0 .734.149 1.277.446 1.628.297.351.657.526 1.08.526.43 0 .797-.181 1.101-.542.308-.366.462-.93.462-1.692 0-.727-.151-1.272-.451-1.633-.298-.362-.654-.543-1.069-.543-.412 0-.777.194-1.096.58-.315.384-.473.942-.473 1.676Zm8.97 2.116c-.358.305-.703.52-1.036.645-.33.125-.684.188-1.064.188-.627 0-1.108-.152-1.445-.457a1.526 1.526 0 0 1-.505-1.176c0-.279.063-.533.188-.763.129-.232.296-.419.5-.558.208-.14.44-.245.698-.317.19-.05.476-.099.86-.145.78-.093 1.355-.204 1.724-.333l.005-.253c0-.393-.091-.671-.274-.832-.247-.219-.614-.328-1.101-.328-.455 0-.791.081-1.01.242-.215.158-.374.439-.478.843l-.945-.129c.086-.404.227-.73.424-.977.197-.251.482-.442.854-.575a3.77 3.77 0 0 1 1.295-.204c.487 0 .882.057 1.187.172.304.114.528.259.671.435.143.172.244.39.301.655.032.165.048.462.048.892v1.289c0 .899.02 1.468.059 1.708.043.236.126.464.247.682h-1.009a2.044 2.044 0 0 1-.194-.704Zm-.08-2.159c-.351.143-.878.265-1.579.365-.398.058-.679.122-.844.194a.83.83 0 0 0-.515.773c0 .258.096.473.29.645.197.172.483.258.859.258.372 0 .704-.081.994-.242.29-.165.503-.389.639-.672.104-.218.156-.54.156-.966v-.355Zm6.203.774.951.123c-.104.655-.371 1.169-.8 1.542-.426.368-.951.553-1.574.553-.781 0-1.409-.254-1.885-.763-.473-.512-.709-1.244-.709-2.197 0-.615.102-1.154.306-1.616.204-.462.514-.808.929-1.037a2.761 2.761 0 0 1 1.364-.349c.62 0 1.126.158 1.52.473.394.311.647.755.758 1.332l-.94.145c-.09-.383-.249-.672-.478-.865-.226-.193-.5-.29-.822-.29-.487 0-.883.175-1.187.526-.304.348-.457.899-.457 1.655 0 .766.147 1.323.441 1.67.293.347.677.521 1.149.521.38 0 .697-.116.951-.349.254-.233.415-.591.483-1.074Zm1.778 2.089v-7.874h.967v2.825a2.158 2.158 0 0 1 1.708-.784c.422 0 .789.084 1.101.252.311.165.533.394.666.688.136.294.204.72.204 1.278V287h-.967v-3.615c0-.483-.105-.834-.317-1.052-.207-.222-.503-.333-.886-.333a1.57 1.57 0 0 0-.811.225c-.251.147-.43.347-.537.602-.107.254-.161.605-.161 1.052V287h-.967Zm10.028-1.837.999.124c-.158.583-.449 1.036-.876 1.359-.426.322-.97.483-1.632.483-.835 0-1.497-.256-1.988-.768-.487-.516-.73-1.237-.73-2.165 0-.959.247-1.704.741-2.234s1.135-.795 1.923-.795c.763 0 1.386.26 1.869.779.483.519.725 1.249.725 2.191 0 .057-.002.143-.005.258h-4.254c.036.627.213 1.106.532 1.439.318.333.716.5 1.192.5.355 0 .657-.093.908-.279.25-.187.449-.484.596-.892Zm-3.174-1.563h3.185c-.043-.48-.165-.84-.366-1.079a1.48 1.48 0 0 0-1.197-.559c-.444 0-.819.149-1.123.446-.301.297-.467.694-.499 1.192Zm8.754 3.4v-7.874h1.042V287h-1.042Zm2.584.473.94.139c.039.29.149.502.328.634.239.179.567.269.982.269.448 0 .794-.09 1.037-.269a1.32 1.32 0 0 0 .494-.752c.05-.197.074-.61.07-1.241-.422.498-.949.747-1.579.747-.784 0-1.391-.283-1.821-.849-.43-.565-.644-1.244-.644-2.035 0-.545.098-1.046.295-1.504.197-.462.482-.818.854-1.069.376-.251.816-.376 1.321-.376.674 0 1.229.272 1.665.816v-.687h.892v4.931c0 .888-.091 1.516-.274 1.885a1.963 1.963 0 0 1-.859.881c-.391.215-.872.322-1.445.322-.68 0-1.23-.154-1.649-.462-.419-.304-.621-.764-.607-1.38Zm.8-3.427c0 .748.149 1.294.446 1.638.297.344.67.516 1.117.516.444 0 .817-.17 1.117-.511.301-.343.452-.88.452-1.611 0-.698-.156-1.224-.468-1.579-.308-.354-.68-.532-1.117-.532-.43 0-.795.176-1.096.527-.3.347-.451.864-.451 1.552Zm5.5 2.954v-5.704h.87v.811c.419-.627 1.024-.94 1.816-.94.344 0 .659.063.945.188.29.122.507.283.65.483.143.201.244.439.301.715.036.179.054.492.054.94V287h-.967v-3.47c0-.394-.038-.687-.113-.881a.914.914 0 0 0-.403-.467 1.244 1.244 0 0 0-.671-.177c-.412 0-.768.131-1.069.392-.297.261-.446.757-.446 1.488V287h-.967Zm6.129-6.762v-1.112h.966v1.112h-.966Zm0 6.762v-5.704h.966V287h-.966Zm4.554-.865.14.854a3.538 3.538 0 0 1-.73.086c-.351 0-.623-.055-.817-.166a.938.938 0 0 1-.408-.435c-.079-.183-.118-.564-.118-1.144v-3.282h-.709v-.752h.709v-1.413l.961-.58v1.993h.972v.752h-.972v3.335c0 .276.016.453.049.532a.42.42 0 0 0 .166.188c.079.047.19.07.333.07.107 0 .249-.013.424-.038Zm4.856-.972.999.124c-.158.583-.45 1.036-.876 1.359-.426.322-.97.483-1.632.483-.835 0-1.497-.256-1.988-.768-.487-.516-.73-1.237-.73-2.165 0-.959.247-1.704.741-2.234s1.135-.795 1.923-.795c.763 0 1.386.26 1.869.779.483.519.725 1.249.725 2.191 0 .057-.002.143-.005.258h-4.254c.036.627.213 1.106.532 1.439.318.333.716.5 1.192.5.354 0 .657-.093.908-.279.25-.187.449-.484.596-.892Zm-3.174-1.563h3.185c-.043-.48-.165-.84-.366-1.079a1.48 1.48 0 0 0-1.197-.559c-.444 0-.819.149-1.123.446-.301.297-.467.694-.499 1.192Zm-79.992 23.586v-7.89h.881v.741c.207-.29.442-.507.703-.65.262-.147.579-.22.951-.22.487 0 .917.125 1.289.376.372.251.654.605.843 1.063.19.455.285.955.285 1.499 0 .584-.106 1.11-.317 1.579a2.361 2.361 0 0 1-.913 1.074 2.342 2.342 0 0 1-1.257.371c-.322 0-.612-.068-.87-.204a1.973 1.973 0 0 1-.628-.516v2.777h-.967Zm.875-5.006c0 .734.149 1.277.446 1.628.297.351.657.526 1.08.526.429 0 .796-.181 1.101-.542.308-.366.462-.93.462-1.692 0-.727-.151-1.272-.451-1.633-.298-.362-.654-.543-1.069-.543-.412 0-.777.194-1.096.58-.315.384-.473.942-.473 1.676Zm4.888-.032c0-1.056.294-1.839.881-2.347.49-.423 1.088-.634 1.794-.634.784 0 1.425.258 1.923.773.497.512.746 1.221.746 2.127 0 .734-.111 1.313-.333 1.735a2.323 2.323 0 0 1-.961.978 2.78 2.78 0 0 1-1.375.349c-.799 0-1.445-.256-1.939-.768-.491-.512-.736-1.25-.736-2.213Zm.994 0c0 .73.159 1.278.478 1.644.318.361.719.542 1.203.542.48 0 .879-.183 1.198-.548.318-.365.478-.922.478-1.67 0-.706-.162-1.239-.484-1.601a1.517 1.517 0 0 0-1.192-.548c-.484 0-.885.181-1.203.543-.319.361-.478.907-.478 1.638Zm6.542 2.852-1.746-5.704h.999l.908 3.292.338 1.225c.014-.061.113-.453.296-1.176l.907-3.341h.994l.854 3.308.285 1.091.327-1.101.978-3.298h.94L411.603 305h-1.005l-.908-3.416-.22-.972-1.155 4.388h-1.009Zm10.801-1.837.999.124c-.158.583-.449 1.036-.876 1.359-.426.322-.97.483-1.632.483-.835 0-1.497-.256-1.988-.768-.487-.516-.73-1.237-.73-2.165 0-.959.247-1.704.741-2.234s1.135-.795 1.923-.795c.763 0 1.386.26 1.869.779.483.519.725 1.249.725 2.191 0 .057-.002.143-.005.258h-4.254c.036.627.213 1.106.532 1.439.318.333.716.5 1.192.5.355 0 .657-.093.908-.279.25-.187.449-.484.596-.892Zm-3.174-1.563h3.185c-.043-.48-.165-.84-.366-1.079a1.48 1.48 0 0 0-1.197-.559c-.444 0-.819.149-1.123.446-.301.297-.467.694-.499 1.192Zm5.381 3.4v-5.704h.871v.865c.222-.405.426-.672.612-.801.19-.129.397-.193.623-.193.326 0 .657.104.994.312l-.333.896a1.392 1.392 0 0 0-.709-.209.913.913 0 0 0-.57.193 1.025 1.025 0 0 0-.36.527 3.773 3.773 0 0 0-.161 1.128V305h-.967Zm7.579-1.837.999.124c-.157.583-.449 1.036-.875 1.359-.427.322-.971.483-1.633.483-.835 0-1.497-.256-1.988-.768-.486-.516-.73-1.237-.73-2.165 0-.959.247-1.704.741-2.234s1.135-.795 1.923-.795c.763 0 1.386.26 1.869.779.484.519.725 1.249.725 2.191a7.5 7.5 0 0 1-.005.258h-4.254c.036.627.213 1.106.532 1.439.318.333.716.5 1.192.5.355 0 .657-.093.908-.279.251-.187.449-.484.596-.892Zm-3.174-1.563h3.185c-.043-.48-.165-.84-.365-1.079a1.482 1.482 0 0 0-1.198-.559c-.444 0-.818.149-1.123.446-.301.297-.467.694-.499 1.192Zm9.093 3.4v-.72c-.362.566-.893.849-1.595.849-.455 0-.874-.125-1.257-.376a2.5 2.5 0 0 1-.886-1.047c-.208-.452-.312-.969-.312-1.553 0-.569.095-1.085.285-1.547.19-.465.474-.821.854-1.068a2.283 2.283 0 0 1 1.273-.371c.344 0 .65.073.918.22.269.143.487.331.656.564v-2.825h.961V305h-.897Zm-3.056-2.847c0 .731.154 1.277.462 1.639.308.361.671.542 1.09.542.423 0 .781-.172 1.074-.516.298-.347.446-.875.446-1.584 0-.781-.15-1.354-.451-1.719-.301-.365-.671-.548-1.112-.548-.43 0-.789.176-1.079.527-.287.351-.43.904-.43 1.659Zm12.262 2.143c-.358.305-.704.52-1.037.645a2.967 2.967 0 0 1-1.063.188c-.627 0-1.108-.152-1.445-.457a1.526 1.526 0 0 1-.505-1.176c0-.279.063-.533.188-.763.129-.232.296-.419.5-.558.207-.14.44-.245.698-.317.19-.05.476-.099.859-.145.781-.093 1.356-.204 1.725-.333l.005-.253c0-.393-.091-.671-.274-.832-.247-.219-.614-.328-1.101-.328-.455 0-.791.081-1.01.242-.215.158-.374.439-.478.843l-.945-.129c.086-.404.227-.73.424-.977.197-.251.482-.442.854-.575a3.765 3.765 0 0 1 1.295-.204c.486 0 .882.057 1.187.172.304.114.528.259.671.435.143.172.243.39.301.655.032.165.048.462.048.892v1.289c0 .899.02 1.468.059 1.708.043.236.125.464.247.682h-1.01a2.066 2.066 0 0 1-.193-.704Zm-.08-2.159c-.351.143-.878.265-1.58.365-.397.058-.678.122-.843.194a.824.824 0 0 0-.381.317.807.807 0 0 0-.134.456c0 .258.096.473.29.645.196.172.483.258.859.258.372 0 .704-.081.994-.242.29-.165.503-.389.639-.672.104-.218.156-.54.156-.966v-.355Zm2.481 5.049v-7.89h.881v.741c.207-.29.442-.507.703-.65.262-.147.579-.22.951-.22.487 0 .917.125 1.289.376.373.251.654.605.843 1.063.19.455.285.955.285 1.499 0 .584-.106 1.11-.317 1.579a2.355 2.355 0 0 1-.913 1.074 2.342 2.342 0 0 1-1.257.371c-.322 0-.612-.068-.87-.204a1.973 1.973 0 0 1-.628-.516v2.777h-.967Zm.875-5.006c0 .734.149 1.277.446 1.628.297.351.657.526 1.08.526.43 0 .797-.181 1.101-.542.308-.366.462-.93.462-1.692 0-.727-.151-1.272-.451-1.633-.298-.362-.654-.543-1.069-.543-.412 0-.777.194-1.096.58-.315.384-.473.942-.473 1.676Zm5.248 5.006v-7.89h.881v.741c.208-.29.442-.507.703-.65.262-.147.579-.22.951-.22.487 0 .917.125 1.289.376.373.251.654.605.843 1.063.19.455.285.955.285 1.499a3.79 3.79 0 0 1-.317 1.579 2.355 2.355 0 0 1-.913 1.074 2.342 2.342 0 0 1-1.257.371c-.322 0-.612-.068-.87-.204a1.984 1.984 0 0 1-.628-.516v2.777h-.967Zm.875-5.006c0 .734.149 1.277.446 1.628.297.351.657.526 1.08.526.43 0 .797-.181 1.101-.542.308-.366.462-.93.462-1.692 0-.727-.151-1.272-.451-1.633-.298-.362-.654-.543-1.069-.543-.412 0-.777.194-1.096.58-.315.384-.473.942-.473 1.676Zm5.227 2.82v-7.874h.966V305h-.966Zm2.476-6.762v-1.112h.966v1.112h-.966Zm0 6.762v-5.704h.966V305h-.966Zm6.166-2.089.95.123c-.104.655-.37 1.169-.8 1.542-.426.368-.951.553-1.574.553-.78 0-1.409-.254-1.885-.763-.473-.512-.709-1.244-.709-2.197 0-.615.102-1.154.306-1.616.204-.462.514-.808.929-1.037a2.762 2.762 0 0 1 1.365-.349c.619 0 1.126.158 1.52.473.394.311.646.755.757 1.332l-.94.145c-.089-.383-.249-.672-.478-.865a1.222 1.222 0 0 0-.822-.29c-.487 0-.882.175-1.187.526-.304.348-.456.899-.456 1.655 0 .766.147 1.323.44 1.67.294.347.677.521 1.15.521.379 0 .696-.116.95-.349.254-.233.416-.591.484-1.074Zm5.5 1.385c-.358.305-.704.52-1.037.645a2.97 2.97 0 0 1-1.063.188c-.627 0-1.109-.152-1.445-.457-.337-.308-.505-.7-.505-1.176 0-.279.063-.533.188-.763.129-.232.295-.419.499-.558.208-.14.441-.245.699-.317a6.8 6.8 0 0 1 .859-.145c.781-.093 1.355-.204 1.724-.333.004-.133.005-.217.005-.253 0-.393-.091-.671-.273-.832-.248-.219-.615-.328-1.102-.328-.454 0-.791.081-1.009.242-.215.158-.375.439-.478.843l-.946-.129c.086-.404.228-.73.425-.977.197-.251.481-.442.854-.575a3.763 3.763 0 0 1 1.294-.204c.487 0 .883.057 1.187.172.304.114.528.259.671.435.144.172.244.39.301.655.033.165.049.462.049.892v1.289c0 .899.019 1.468.059 1.708.043.236.125.464.247.682h-1.01a2.044 2.044 0 0 1-.193-.704Zm-.081-2.159c-.351.143-.877.265-1.579.365-.397.058-.679.122-.843.194a.832.832 0 0 0-.516.773c0 .258.097.473.29.645.197.172.484.258.86.258.372 0 .703-.081.993-.242.29-.165.503-.389.639-.672.104-.218.156-.54.156-.966v-.355Zm4.592 1.998.14.854a3.538 3.538 0 0 1-.73.086c-.351 0-.624-.055-.817-.166a.938.938 0 0 1-.408-.435c-.079-.183-.118-.564-.118-1.144v-3.282h-.709v-.752h.709v-1.413l.961-.58v1.993h.972v.752h-.972v3.335c0 .276.016.453.049.532a.42.42 0 0 0 .166.188c.079.047.19.07.333.07.107 0 .249-.013.424-.038Zm.956-5.897v-1.112h.967v1.112h-.967Zm0 6.762v-5.704h.967V305h-.967Zm2.084-2.852c0-1.056.294-1.839.881-2.347.491-.423 1.089-.634 1.794-.634.784 0 1.425.258 1.923.773.498.512.747 1.221.747 2.127 0 .734-.111 1.313-.333 1.735a2.326 2.326 0 0 1-.962.978 2.78 2.78 0 0 1-1.375.349c-.798 0-1.445-.256-1.939-.768-.49-.512-.736-1.25-.736-2.213Zm.994 0c0 .73.159 1.278.478 1.644.319.361.72.542 1.203.542.48 0 .879-.183 1.198-.548.319-.365.478-.922.478-1.67 0-.706-.161-1.239-.483-1.601a1.52 1.52 0 0 0-1.193-.548c-.483 0-.884.181-1.203.543-.319.361-.478.907-.478 1.638ZM485.82 305v-5.704h.87v.811c.419-.627 1.025-.94 1.816-.94.344 0 .659.063.945.188.29.122.507.283.65.483.143.201.244.439.301.715.036.179.054.492.054.94V305h-.967v-3.47c0-.394-.038-.687-.113-.881a.91.91 0 0 0-.403-.467 1.244 1.244 0 0 0-.671-.177c-.412 0-.768.131-1.069.392-.297.261-.446.757-.446 1.488V305h-.967Zm5.737-1.703.956-.15c.053.383.202.677.445.881.248.204.591.306 1.032.306.444 0 .773-.09.988-.269.215-.182.322-.395.322-.639a.587.587 0 0 0-.284-.515c-.133-.086-.462-.196-.989-.328-.709-.179-1.201-.333-1.477-.462a1.468 1.468 0 0 1-.623-.542 1.472 1.472 0 0 1-.209-.768c0-.255.057-.489.172-.704a1.59 1.59 0 0 1 .478-.543c.15-.111.354-.204.612-.279.261-.079.541-.118.838-.118.447 0 .84.064 1.176.193.34.129.591.305.752.527.161.218.272.512.333.881l-.945.128a1.033 1.033 0 0 0-.376-.687c-.204-.165-.494-.247-.87-.247-.444 0-.761.073-.951.22-.19.147-.285.319-.285.516 0 .125.04.238.119.338.078.104.202.19.37.258.097.036.381.118.854.247.684.183 1.16.333 1.429.451.272.115.485.283.639.505.154.222.231.498.231.827 0 .322-.095.627-.285.913a1.827 1.827 0 0 1-.811.661 2.988 2.988 0 0 1-1.203.231c-.741 0-1.307-.154-1.697-.462-.387-.308-.634-.764-.741-1.37ZM47.687 284.47l.983-.086c.047.394.154.718.323.972.171.251.436.455.794.613.359.154.761.231 1.209.231a2.88 2.88 0 0 0 1.053-.178c.304-.118.53-.279.676-.483a1.13 1.13 0 0 0 .226-.677c0-.247-.072-.462-.215-.644-.143-.186-.38-.342-.709-.468-.211-.082-.678-.209-1.402-.381-.723-.175-1.23-.34-1.52-.494-.376-.197-.657-.44-.843-.73a1.826 1.826 0 0 1-.274-.983c0-.398.113-.768.339-1.112.225-.348.555-.611.988-.79a3.75 3.75 0 0 1 1.445-.268c.583 0 1.097.095 1.541.284.448.187.791.462 1.031.828.24.365.37.778.387 1.24l-.999.075c-.054-.497-.236-.873-.548-1.127-.308-.255-.764-.382-1.37-.382-.63 0-1.09.117-1.38.349-.286.229-.43.507-.43.833 0 .283.103.515.307.698.2.183.723.371 1.568.564.849.19 1.43.356 1.746.5.458.211.796.479 1.015.805.218.322.328.695.328 1.117 0 .419-.12.815-.36 1.187-.24.369-.586.657-1.037.865a3.612 3.612 0 0 1-1.515.306c-.712 0-1.31-.104-1.794-.311a2.532 2.532 0 0 1-1.133-.935 2.684 2.684 0 0 1-.43-1.418Zm7.208-.322c0-1.056.294-1.839.881-2.347.49-.423 1.089-.634 1.794-.634.784 0 1.425.258 1.923.773.498.512.747 1.221.747 2.127 0 .734-.111 1.313-.333 1.735a2.324 2.324 0 0 1-.962.978 2.78 2.78 0 0 1-1.375.349c-.798 0-1.445-.256-1.939-.768-.49-.512-.736-1.25-.736-2.213Zm.994 0c0 .73.16 1.278.478 1.644.319.361.72.542 1.203.542.48 0 .88-.183 1.198-.548.319-.365.478-.922.478-1.67 0-.706-.161-1.239-.483-1.601a1.519 1.519 0 0 0-1.193-.548c-.483 0-.884.181-1.203.543-.319.361-.478.907-.478 1.638ZM65.117 287v-.838c-.444.645-1.048.967-1.81.967a2.34 2.34 0 0 1-.946-.193c-.29-.129-.506-.29-.65-.484a1.872 1.872 0 0 1-.295-.72c-.04-.189-.06-.49-.06-.902v-3.534h.968v3.163c0 .505.02.846.059 1.021.06.254.19.455.386.602.197.143.44.214.73.214.291 0 .563-.073.817-.22a1.24 1.24 0 0 0 .537-.607c.108-.258.162-.63.162-1.117v-3.056h.966V287h-.864Zm2.374 0v-5.704h.87v.865c.222-.405.426-.672.612-.801.19-.129.398-.193.623-.193.326 0 .657.104.994.312l-.333.896a1.39 1.39 0 0 0-.71-.209.912.912 0 0 0-.569.193 1.02 1.02 0 0 0-.36.527 3.76 3.76 0 0 0-.16 1.128V287h-.967Zm7.396-2.089.95.123c-.103.655-.37 1.169-.8 1.542-.426.368-.95.553-1.574.553-.78 0-1.409-.254-1.885-.763-.473-.512-.709-1.244-.709-2.197 0-.615.102-1.154.306-1.616.204-.462.514-.808.93-1.037a2.76 2.76 0 0 1 1.364-.349c.62 0 1.126.158 1.52.473.394.311.646.755.757 1.332l-.94.145c-.09-.383-.249-.672-.478-.865-.225-.193-.5-.29-.822-.29-.487 0-.882.175-1.187.526-.304.348-.456.899-.456 1.655 0 .766.147 1.323.44 1.67.294.347.677.521 1.15.521.38 0 .696-.116.95-.349.254-.233.416-.591.484-1.074Zm5.682.252 1 .124c-.158.583-.45 1.036-.876 1.359-.426.322-.97.483-1.633.483-.834 0-1.497-.256-1.987-.768-.487-.516-.73-1.237-.73-2.165 0-.959.246-1.704.74-2.234.495-.53 1.136-.795 1.923-.795.763 0 1.386.26 1.87.779.483.519.724 1.249.724 2.191a7.5 7.5 0 0 1-.005.258h-4.254c.036.627.213 1.106.532 1.439.319.333.716.5 1.192.5.355 0 .657-.093.908-.279.25-.187.45-.484.596-.892Zm-3.174-1.563h3.185c-.043-.48-.165-.84-.365-1.079a1.48 1.48 0 0 0-1.198-.559c-.444 0-.818.149-1.123.446-.3.297-.467.694-.5 1.192Zm5.006 1.697.956-.15c.054.383.202.677.446.881.247.204.59.306 1.03.306.445 0 .774-.09.99-.269.214-.182.322-.395.322-.639a.586.586 0 0 0-.285-.515c-.133-.086-.462-.196-.989-.328-.709-.179-1.2-.333-1.477-.462a1.469 1.469 0 0 1-.623-.542 1.467 1.467 0 0 1-.21-.768c0-.255.058-.489.173-.704a1.59 1.59 0 0 1 .478-.543 1.95 1.95 0 0 1 .612-.279c.261-.079.54-.118.838-.118.448 0 .84.064 1.176.193.34.129.591.305.752.527.161.218.272.512.333.881l-.945.128a1.03 1.03 0 0 0-.376-.687c-.204-.165-.494-.247-.87-.247-.444 0-.761.073-.95.22-.19.147-.285.319-.285.516 0 .125.039.238.118.338a.85.85 0 0 0 .37.258c.097.036.382.118.854.247.684.183 1.16.333 1.429.451.272.115.485.283.64.505.153.222.23.498.23.827 0 .322-.095.627-.285.913a1.831 1.831 0 0 1-.81.661 2.991 2.991 0 0 1-1.204.231c-.74 0-1.307-.154-1.697-.462-.387-.308-.634-.764-.741-1.37Zm8.588-1.149c0-1.056.294-1.839.881-2.347.49-.423 1.089-.634 1.794-.634.784 0 1.425.258 1.923.773.498.512.746 1.221.746 2.127 0 .734-.11 1.313-.333 1.735a2.324 2.324 0 0 1-.961.978 2.781 2.781 0 0 1-1.375.349c-.799 0-1.445-.256-1.939-.768-.49-.512-.736-1.25-.736-2.213Zm.994 0c0 .73.16 1.278.478 1.644.319.361.72.542 1.203.542.48 0 .88-.183 1.198-.548.318-.365.478-.922.478-1.67 0-.706-.161-1.239-.484-1.601a1.519 1.519 0 0 0-1.192-.548c-.483 0-.885.181-1.203.543-.319.361-.478.907-.478 1.638Zm5.72 2.852v-4.952h-.854v-.752h.854v-.607c0-.383.034-.668.102-.854.093-.251.256-.453.489-.607.236-.158.566-.236.988-.236.272 0 .573.032.902.096l-.145.844a3.22 3.22 0 0 0-.569-.054c-.293 0-.501.063-.623.188s-.182.36-.182.704v.526h1.111v.752h-1.111V287h-.962Zm9.593 0v-.72c-.362.566-.894.849-1.595.849-.455 0-.874-.125-1.257-.376a2.5 2.5 0 0 1-.886-1.047c-.208-.452-.312-.969-.312-1.553 0-.569.095-1.085.285-1.547.189-.465.474-.821.854-1.068a2.283 2.283 0 0 1 1.273-.371c.343 0 .65.073.918.22.269.143.487.331.655.564v-2.825h.962V287h-.897Zm-3.056-2.847c0 .731.154 1.277.462 1.639.308.361.671.542 1.09.542.422 0 .781-.172 1.074-.516.297-.347.446-.875.446-1.584 0-.781-.15-1.354-.451-1.719-.301-.365-.672-.548-1.112-.548-.43 0-.79.176-1.08.527-.286.351-.429.904-.429 1.659Zm9.2 2.143c-.358.305-.703.52-1.036.645-.33.125-.684.188-1.064.188-.626 0-1.108-.152-1.445-.457-.336-.308-.504-.7-.504-1.176a1.596 1.596 0 0 1 .687-1.321c.208-.14.44-.245.698-.317.19-.05.477-.099.86-.145.78-.093 1.355-.204 1.724-.333l.005-.253c0-.393-.091-.671-.274-.832-.247-.219-.614-.328-1.101-.328-.455 0-.791.081-1.01.242-.214.158-.374.439-.478.843l-.945-.129c.086-.404.227-.73.424-.977.197-.251.482-.442.854-.575a3.77 3.77 0 0 1 1.295-.204c.487 0 .882.057 1.187.172.304.114.528.259.671.435.143.172.244.39.301.655.032.165.048.462.048.892v1.289c0 .899.02 1.468.059 1.708.043.236.126.464.247.682h-1.009a2.044 2.044 0 0 1-.194-.704Zm-.08-2.159c-.351.143-.877.265-1.579.365-.398.058-.679.122-.844.194a.834.834 0 0 0-.515.773c0 .258.096.473.29.645.197.172.483.258.859.258.373 0 .704-.081.994-.242.29-.165.503-.389.639-.672.104-.218.156-.54.156-.966v-.355Zm4.592 1.998.14.854a3.54 3.54 0 0 1-.731.086c-.351 0-.623-.055-.816-.166a.928.928 0 0 1-.408-.435c-.079-.183-.119-.564-.119-1.144v-3.282h-.709v-.752h.709v-1.413l.962-.58v1.993h.972v.752h-.972v3.335c0 .276.016.453.048.532a.428.428 0 0 0 .167.188c.079.047.19.07.333.07.107 0 .249-.013.424-.038Zm4.673.161c-.358.305-.704.52-1.037.645a2.97 2.97 0 0 1-1.063.188c-.627 0-1.108-.152-1.445-.457-.337-.308-.505-.7-.505-1.176 0-.279.063-.533.188-.763.129-.232.296-.419.5-.558.207-.14.44-.245.698-.317.19-.05.476-.099.859-.145.781-.093 1.356-.204 1.724-.333l.006-.253c0-.393-.092-.671-.274-.832-.247-.219-.614-.328-1.101-.328-.455 0-.792.081-1.01.242-.215.158-.374.439-.478.843l-.945-.129c.086-.404.227-.73.424-.977.197-.251.482-.442.854-.575a3.763 3.763 0 0 1 1.294-.204c.487 0 .883.057 1.187.172.305.114.529.259.672.435.143.172.243.39.301.655.032.165.048.462.048.892v1.289c0 .899.02 1.468.059 1.708.043.236.125.464.247.682h-1.01a2.066 2.066 0 0 1-.193-.704Zm-.081-2.159c-.351.143-.877.265-1.579.365-.397.058-.678.122-.843.194a.824.824 0 0 0-.381.317.808.808 0 0 0-.135.456c0 .258.097.473.29.645.197.172.484.258.86.258.372 0 .703-.081.993-.242.29-.165.504-.389.64-.672.103-.218.155-.54.155-.966v-.355Z" fill="#000"/><path d="m446.464 92.494 19.812-5.757v-8.494L446.464 73 427 79.058v8.376l19.464 5.06Z" fill="#fff" stroke="#2D2D2D"/><path d="M446.812 84.518 427 79.275v14.746l19.812 5.242 19.464-6.058V78.578l-19.464 5.94Z" fill="#fff" stroke="#2D2D2D"/><path d="M446.522 84.462v14.22" stroke="#2D2D2D"/><path d="m446.464 138.494 19.812-5.757v-8.494L446.464 119 427 125.058v8.376l19.464 5.06Z" fill="#fff" stroke="#2D2D2D"/><path d="M446.812 130.518 427 125.275v14.746l19.812 5.242 19.464-6.058v-14.627l-19.464 5.94Z" fill="#fff" stroke="#2D2D2D"/><path d="M446.522 130.462v14.22" stroke="#2D2D2D"/><path d="m446.464 184.494 19.812-5.757v-8.494L446.464 165 427 171.058v8.376l19.464 5.06Z" fill="#fff" stroke="#2D2D2D"/><path d="M446.812 176.518 427 171.275v14.746l19.812 5.242 19.464-6.058v-14.627l-19.464 5.94Z" fill="#fff" stroke="#2D2D2D"/><path d="M446.522 176.462v14.22" stroke="#2D2D2D"/><path d="m446.464 230.494 19.812-5.757v-8.494L446.464 211 427 217.058v8.376l19.464 5.06Z" fill="#fff" stroke="#2D2D2D"/><path d="M446.812 222.518 427 217.275v14.746l19.812 5.242 19.464-6.058v-14.627l-19.464 5.94Z" fill="#fff" stroke="#2D2D2D"/><path d="M446.522 222.462v14.22" stroke="#2D2D2D"/><path d="M253.385 92.82v5.026l-2.513 1.257-3.769-3.77-5.026 5.026 3.769 3.769-1.256 2.513h-5.026v7.539h5.026l1.256 2.512-3.769 3.77 5.026 5.025 3.769-3.769 2.513 1.256V128h7.538v-5.026l2.513-1.256 3.769 3.769 5.026-5.025-3.769-3.77 1.256-2.512h5.026v-7.539h-5.026l-1.256-2.513 3.769-3.769-5.026-5.026-3.769 3.77-2.513-1.257v-5.025h-7.538Z" fill="#fff" stroke="#000" stroke-linecap="round" stroke-linejoin="round"/><path d="M257.154 115.436a5.026 5.026 0 1 0-.001-10.051 5.026 5.026 0 0 0 .001 10.051Zm31.298-32.596-.939 3.507-1.989.407-1.925-3.335-4.447 2.568 1.926 3.334-1.347 1.519-3.507-.94-1.409 5.26 3.507.94.407 1.989-3.335 1.925 2.567 4.446 3.335-1.925 1.518 1.346-.939 3.507 5.26 1.41.939-3.507 1.989-.407 1.925 3.335 4.447-2.567-1.926-3.335 1.347-1.519 3.507.94 1.409-5.26-3.507-.94-.407-1.988 3.335-1.926-2.567-4.446-3.335 1.925-1.518-1.346.939-3.507-5.26-1.41Z" fill="#fff" stroke="#000" stroke-linecap="round" stroke-linejoin="round"/><path d="M286.854 99.326a3.63 3.63 0 1 0 1.88-7.013 3.63 3.63 0 0 0-1.88 7.013Z" fill="#fff" stroke="#000" stroke-linecap="round" stroke-linejoin="round"/><path d="M268.123 90.981c-11.303-6.617-25.831-2.818-32.448 8.485a23.649 23.649 0 0 0-2.325 18.537m51.445-4.567c8.61 2.207 17.379-2.985 19.585-11.595" stroke="#000"/><path d="M170.354 224.354a.502.502 0 0 0 0-.708l-3.182-3.182a.502.502 0 0 0-.708.708l2.829 2.828-2.829 2.828a.502.502 0 0 0 .708.708l3.182-3.182ZM170 223.5h-52v1h52v-1ZM366.646 85.646a.5.5 0 0 0 0 .707l3.182 3.183a.501.501 0 0 0 .708-.708L367.707 86l2.829-2.828a.5.5 0 0 0-.708-.707l-3.182 3.181Zm.354.854h52v-1h-52v1Zm-196.646 91.854a.502.502 0 0 0 0-.708l-3.182-3.182a.502.502 0 0 0-.708.708l2.829 2.828-2.829 2.828a.502.502 0 0 0 .708.708l3.182-3.182ZM170 177.5h-52v1h52v-1Zm196.646-45.854a.502.502 0 0 0 0 .708l3.182 3.182a.502.502 0 0 0 .708-.708L367.707 132l2.829-2.828a.502.502 0 0 0-.708-.708l-3.182 3.182Zm.354.854h52v-1h-52v1Zm-196.646-.146a.502.502 0 0 0 0-.708l-3.182-3.182a.502.502 0 0 0-.708.708l2.829 2.828-2.829 2.828a.502.502 0 0 0 .708.708l3.182-3.182ZM170 131.5h-52v1h52v-1Zm196.646 46.146a.502.502 0 0 0 0 .708l3.182 3.182a.502.502 0 0 0 .708-.708L367.707 178l2.829-2.828a.502.502 0 0 0-.708-.708l-3.182 3.182Zm.354.854h52v-1h-52v1ZM170.354 86.354a.5.5 0 0 0 0-.708l-3.182-3.181a.501.501 0 0 0-.708.707L169.293 86l-2.829 2.828a.5.5 0 0 0 .708.707l3.182-3.181ZM170 85.5h-52v1h52v-1Zm196.646 138.146a.502.502 0 0 0 0 .708l3.182 3.182a.502.502 0 0 0 .708-.708L367.707 224l2.829-2.828a.502.502 0 0 0-.708-.708l-3.182 3.182Zm.354.854h52v-1h-52v1Z" fill="#000"/><path d="M66.5 212a2.5 2.5 0 0 1 2.5-2.5h14.594a2.5 2.5 0 0 1 2.201 1.315l1.385 2.572a3.5 3.5 0 0 0 3.082 1.841h16.797a2.5 2.5 0 0 1 2.5 2.5v18.232a2.5 2.5 0 0 1-2.5 2.5H69a2.5 2.5 0 0 1-2.5-2.5V212Z" fill="#fff" stroke="#000"/><circle cx="97.722" cy="231.911" r=".881" fill="#000"/><circle cx="101.247" cy="231.911" r=".881" fill="#000"/><path d="M66.5 166a2.5 2.5 0 0 1 2.5-2.5h14.594a2.5 2.5 0 0 1 2.201 1.315l1.385 2.572a3.5 3.5 0 0 0 3.082 1.841h16.797a2.5 2.5 0 0 1 2.5 2.5v18.232a2.5 2.5 0 0 1-2.5 2.5H69a2.5 2.5 0 0 1-2.5-2.5V166Z" fill="#fff" stroke="#000"/><circle cx="97.722" cy="185.911" r=".881" fill="#000"/><circle cx="101.247" cy="185.911" r=".881" fill="#000"/><path d="M66.5 120a2.5 2.5 0 0 1 2.5-2.5h14.594a2.5 2.5 0 0 1 2.201 1.315l1.385 2.572a3.5 3.5 0 0 0 3.082 1.841h16.797a2.5 2.5 0 0 1 2.5 2.5v18.232a2.5 2.5 0 0 1-2.5 2.5H69a2.5 2.5 0 0 1-2.5-2.5V120Z" fill="#fff" stroke="#000"/><circle cx="97.722" cy="139.911" r=".881" fill="#000"/><circle cx="101.247" cy="139.911" r=".881" fill="#000"/><path d="M66.5 74a2.5 2.5 0 0 1 2.5-2.5h14.594a2.5 2.5 0 0 1 2.201 1.315l1.385 2.572a3.5 3.5 0 0 0 3.082 1.84h16.797a2.5 2.5 0 0 1 2.5 2.5V97.96a2.5 2.5 0 0 1-2.5 2.5H69a2.5 2.5 0 0 1-2.5-2.5V74Z" fill="#fff" stroke="#000"/><circle cx="97.722" cy="93.911" r=".881" fill="#000"/><circle cx="101.247" cy="93.911" r=".881" fill="#000"/></svg>