<svg width="572" height="660" fill="none" xmlns="http://www.w3.org/2000/svg"><path d="M555.102 237.796 571 228.624v329.107l-15.898 9.172V237.796Z" fill="#0070CC" stroke="#fff"/><path d="m176.614 1.078 394.32 227.661-15.895 9.177-394.32-227.66 15.895-9.178Z" fill="#0070CC" stroke="#fff"/><path d="m160.716 10.25 394.387 227.547v329.107L160.716 339.357V10.25Z" fill="#0070CC" stroke="#fff"/><path d="M181.146 71.359c0-1.105.775-1.553 1.732-1L529.161 270.15c.957.552 1.732 1.895 1.732 3v252.826c0 1.104-.775 1.552-1.732 1L182.878 327.184c-.957-.552-1.732-1.895-1.732-2.999V71.359Zm12.282-18.299c0 3.777-2.652 5.307-5.925 3.418-3.272-1.89-5.924-6.483-5.924-10.259 0-3.776 2.652-5.306 5.924-3.417 3.273 1.89 5.925 6.483 5.925 10.259Zm18.818 11.003c0 3.776-2.652 5.307-5.926 3.419-3.273-1.888-5.926-6.48-5.926-10.257 0-3.776 2.653-5.307 5.926-3.419 3.274 1.889 5.926 6.48 5.926 10.257Zm18.587 11.007c0 3.776-2.653 5.307-5.926 3.418-3.273-1.888-5.926-6.48-5.926-10.257 0-3.776 2.653-5.307 5.926-3.418 3.273 1.888 5.926 6.48 5.926 10.256Z" fill="#0070CC" stroke="#fff"/><path d="m475.244 283.089 15.898-9.172v329.107l-15.898 9.172V283.089Z" fill="#0070CC" stroke="#fff"/><path d="m96.756 46.37 394.32 227.661-15.895 9.177-394.32-227.66 15.895-9.178Z" fill="#0070CC" stroke="#fff"/><path d="M80.858 55.542 475.244 283.09v329.107L80.858 384.649V55.543Z" fill="#0070CC" stroke="#fff"/><path d="M101.287 116.651c0-1.105.776-1.553 1.733-1.001l346.283 199.793c.957.552 1.732 1.895 1.732 3v252.826c0 1.104-.775 1.552-1.732 1L103.02 372.476c-.957-.552-1.733-1.895-1.733-2.999V116.651Zm12.283-18.298c0 3.776-2.652 5.306-5.925 3.417-3.272-1.89-5.925-6.483-5.925-10.259 0-3.776 2.653-5.306 5.925-3.417 3.273 1.89 5.925 6.483 5.925 10.259Zm18.818 11.002c0 3.776-2.653 5.307-5.926 3.419-3.273-1.889-5.926-6.481-5.926-10.257s2.653-5.307 5.926-3.419c3.273 1.889 5.926 6.481 5.926 10.257Zm18.587 11.007c0 3.776-2.653 5.307-5.926 3.419-3.273-1.889-5.926-6.481-5.926-10.257s2.653-5.307 5.926-3.419c3.273 1.888 5.926 6.481 5.926 10.257Z" fill="#0070CC" stroke="#fff"/><path d="m395.386 329.813 15.898-9.172v329.107l-15.898 9.172V329.813Z" fill="#0070CC" stroke="#fff"/><path d="m16.898 93.095 394.32 227.661-15.895 9.177L1.003 102.272l15.895-9.177Z" fill="#0070CC" stroke="#fff"/><path d="m1 102.268 394.386 227.547v329.107L1 431.375V102.268Z" fill="#0070CC" stroke="#fff"/><path d="M21.43 163.375c0-1.104.775-1.552 1.732-1l346.283 199.793c.957.552 1.732 1.895 1.732 2.999v252.826c0 1.105-.775 1.553-1.732 1.001L23.162 419.201c-.957-.552-1.733-1.895-1.733-3V163.375Zm12.282-18.298c0 3.777-2.652 5.307-5.925 3.417-3.272-1.889-5.924-6.482-5.924-10.258 0-3.776 2.652-5.307 5.924-3.417 3.273 1.889 5.925 6.482 5.925 10.258Zm18.818 11.004c0 3.776-2.653 5.307-5.926 3.419-3.273-1.888-5.926-6.481-5.926-10.257s2.653-5.307 5.926-3.419c3.273 1.889 5.926 6.481 5.926 10.257Zm18.587 11.007c0 3.776-2.653 5.307-5.926 3.419-3.273-1.889-5.926-6.481-5.926-10.257s2.653-5.307 5.926-3.419c3.273 1.888 5.926 6.481 5.926 10.257Z" fill="#0070CC" stroke="#fff"/><g clip-path="url(#a)" fill="#0070CC"><rect x=".433" y=".75" width="146.89" height="33.231" rx="1.654" transform="matrix(.86617 .49975 0 1 45.955 310.684)"/><path d="m45.897 310.901 3.465 1.999v43l-3.465-1.999v-43Z"/></g><rect x=".433" y=".75" width="146.89" height="33.231" rx="1.654" transform="matrix(.86617 .49975 0 1 45.955 310.684)" stroke="#fff" stroke-linecap="round"/><g clip-path="url(#b)" fill="#0070CC"><rect x=".433" y=".75" width="147.847" height="33.453" rx="1.654" transform="matrix(.86617 .49975 0 1 193.635 395.318)"/><path d="m193.577 395.535 3.465 1.999v43l-3.465-1.999v-43Z"/></g><rect x=".433" y=".75" width="147.847" height="33.453" rx="1.654" transform="matrix(.86617 .49975 0 1 193.635 395.318)" stroke="#fff" stroke-linecap="round"/><rect x=".433" y=".75" width="146.89" height="33.231" rx="1.654" transform="matrix(.86617 .49975 0 1 45.955 264.214)" fill="#0070CC"/><rect x=".433" y=".75" width="146.89" height="33.231" rx="1.654" transform="matrix(.86617 .49975 0 1 45.955 264.214)" stroke="#fff" stroke-linecap="round"/><rect x=".433" y=".75" width="147.847" height="33.453" rx="1.654" transform="matrix(.86617 .49975 0 1 193.635 348.547)" fill="#0070CC"/><rect x=".433" y=".75" width="147.847" height="33.453" rx="1.654" transform="matrix(.86617 .49975 0 1 193.635 348.547)" stroke="#fff" stroke-linecap="round"/><path d="M242.17 453.053v32.276l5.632-3.062 3.938 13.036 6.296.539-3.668-12.335 8.046 4.642-20.244-35.096Z" fill="#0070CC" stroke="#fff"/><defs><clipPath id="a"/><clipPath id="b"/></defs></svg>