<svg width="1272" height="410" fill="none" xmlns="http://www.w3.org/2000/svg"><path d="M0 10C0 4.477 4.477 0 10 0h1252c5.52 0 10 4.477 10 10v390c0 5.523-4.48 10-10 10H10c-5.523 0-10-4.477-10-10V10Z" fill="#F6F6F6"/><path fill-rule="evenodd" clip-rule="evenodd" d="m889.369 192.06 4.454 4.455a.698.698 0 0 1 0 .989l-4.454 4.455a.699.699 0 1 1-.99-.99l3.259-3.259h-97.81v-1.4h97.81l-3.259-3.26a.699.699 0 1 1 .99-.99Zm-492.927 0 4.455 4.455a.7.7 0 0 1 0 .989l-4.455 4.455a.699.699 0 1 1-.99-.99l3.26-3.259h-97.81v-1.4h97.81l-3.26-3.26a.7.7 0 0 1 .99-.99Z" fill="#000"/><path d="m85.51 313.67 1.876-.164c.089.752.294 1.371.615 1.856.328.479.834.868 1.518 1.169.683.294 1.452.441 2.307.441.759 0 1.428-.113 2.01-.338.58-.226 1.011-.533 1.291-.923.288-.397.431-.827.431-1.292a1.94 1.94 0 0 0-.41-1.231c-.273-.355-.725-.652-1.354-.892-.403-.157-1.295-.4-2.676-.728-1.38-.335-2.348-.649-2.902-.943-.717-.376-1.254-.841-1.61-1.395a3.48 3.48 0 0 1-.522-1.876c0-.759.215-1.466.645-2.123.431-.663 1.06-1.165 1.887-1.507.827-.342 1.747-.513 2.758-.513 1.115 0 2.096.182 2.943.544.855.355 1.511.882 1.97 1.579.457.697.703 1.487.737 2.369l-1.907.143c-.102-.95-.451-1.668-1.046-2.153-.588-.485-1.46-.728-2.614-.728-1.204 0-2.082.222-2.636.666-.547.438-.82.968-.82 1.59 0 .54.195.984.584 1.333.383.348 1.381.707 2.995 1.076 1.62.363 2.73.681 3.332.954.875.403 1.521.916 1.938 1.538.417.615.626 1.326.626 2.133 0 .8-.23 1.555-.687 2.266-.458.704-1.118 1.254-1.98 1.651-.854.39-1.818.584-2.891.584-1.36 0-2.502-.198-3.425-.594-.916-.397-1.637-.992-2.163-1.785-.52-.799-.793-1.702-.82-2.707Zm14.647 9.003V307.61h1.682v1.415c.396-.553.844-.967 1.343-1.24.499-.281 1.104-.421 1.815-.421.93 0 1.75.24 2.461.718.711.479 1.247 1.155 1.61 2.03.362.868.543 1.822.543 2.861 0 1.114-.202 2.119-.605 3.015-.396.888-.977 1.572-1.743 2.051-.759.471-1.559.707-2.399.707-.616 0-1.169-.13-1.662-.39a3.766 3.766 0 0 1-1.199-.984v5.301h-1.846Zm1.671-9.556c0 1.401.284 2.437.851 3.107.568.67 1.255 1.005 2.062 1.005.82 0 1.521-.346 2.102-1.036.587-.697.881-1.774.881-3.23 0-1.388-.287-2.427-.861-3.117-.567-.691-1.247-1.036-2.04-1.036-.787 0-1.484.369-2.092 1.107-.602.732-.903 1.798-.903 3.2Zm17.324 4.04c-.683.581-1.343.991-1.979 1.23a5.661 5.661 0 0 1-2.03.359c-1.196 0-2.116-.29-2.758-.871-.643-.588-.964-1.337-.964-2.246 0-.533.12-1.019.359-1.456.246-.444.564-.8.953-1.067a4.58 4.58 0 0 1 1.334-.605c.362-.095.909-.188 1.64-.276 1.49-.178 2.588-.39 3.292-.636.006-.253.01-.414.01-.482 0-.752-.174-1.282-.523-1.589-.472-.417-1.172-.626-2.102-.626-.868 0-1.511.154-1.928.462-.41.3-.714.837-.912 1.609l-1.805-.246c.164-.772.434-1.394.81-1.866.376-.478.919-.844 1.63-1.097.711-.26 1.535-.39 2.471-.39.93 0 1.686.11 2.267.328.581.219 1.008.496 1.281.831.274.328.465.745.575 1.251.061.314.092.882.092 1.702v2.461c0 1.716.037 2.803.113 3.261.082.451.239.885.471 1.302h-1.927a3.911 3.911 0 0 1-.37-1.343Zm-.153-4.122c-.67.273-1.675.506-3.015.697-.759.109-1.295.232-1.61.369a1.596 1.596 0 0 0-.984 1.477c0 .492.184.902.553 1.23.376.328.923.492 1.641.492.711 0 1.343-.154 1.897-.461a2.899 2.899 0 0 0 1.22-1.282c.199-.417.298-1.032.298-1.846v-.676Zm4.916 5.465v-10.89h1.662v1.651c.423-.772.813-1.282 1.169-1.528a2.07 2.07 0 0 1 1.189-.369c.622 0 1.254.198 1.897.595l-.636 1.712c-.451-.266-.902-.4-1.353-.4-.404 0-.766.124-1.087.37-.322.239-.551.574-.687 1.005a7.19 7.19 0 0 0-.308 2.153v5.701h-1.846Zm7.224 0v-15.032h1.846v8.572l4.368-4.43h2.389l-4.163 4.04 4.584 6.85h-2.277l-3.599-5.568-1.302 1.251v4.317h-1.846Zm14.151 0 5.773-15.032h2.143l6.152 15.032h-2.266l-1.753-4.553h-6.286l-1.651 4.553h-2.112Zm4.337-6.173h5.096l-1.568-4.163c-.479-1.265-.834-2.304-1.067-3.117a19.059 19.059 0 0 1-.81 2.871l-1.651 4.409Zm11.285 10.346V307.61h1.681v1.415c.397-.553.845-.967 1.344-1.24.499-.281 1.104-.421 1.815-.421.929 0 1.75.24 2.461.718.71.479 1.247 1.155 1.609 2.03.363.868.544 1.822.544 2.861 0 1.114-.202 2.119-.605 3.015-.397.888-.978 1.572-1.743 2.051-.759.471-1.559.707-2.4.707a3.5 3.5 0 0 1-1.661-.39 3.78 3.78 0 0 1-1.2-.984v5.301h-1.845Zm1.671-9.556c0 1.401.284 2.437.851 3.107.568.67 1.255 1.005 2.061 1.005.821 0 1.521-.346 2.102-1.036.588-.697.882-1.774.882-3.23 0-1.388-.287-2.427-.861-3.117-.568-.691-1.248-1.036-2.041-1.036-.786 0-1.483.369-2.092 1.107-.601.732-.902 1.798-.902 3.2Zm10.218 9.556V307.61h1.682v1.415c.396-.553.844-.967 1.343-1.24.499-.281 1.104-.421 1.815-.421.93 0 1.75.24 2.461.718.711.479 1.248 1.155 1.61 2.03.362.868.543 1.822.543 2.861 0 1.114-.201 2.119-.605 3.015-.396.888-.977 1.572-1.743 2.051-.759.471-1.558.707-2.399.707-.616 0-1.169-.13-1.661-.39a3.76 3.76 0 0 1-1.2-.984v5.301h-1.846Zm1.672-9.556c0 1.401.283 2.437.851 3.107.567.67 1.254 1.005 2.061 1.005.82 0 1.521-.346 2.102-1.036.588-.697.882-1.774.882-3.23 0-1.388-.288-2.427-.862-3.117-.567-.691-1.247-1.036-2.04-1.036-.786 0-1.484.369-2.092 1.107-.602.732-.902 1.798-.902 3.2Zm10.177 5.383v-15.032h1.845V318.5h-1.845Zm4.927-12.91v-2.122h1.845v2.122h-1.845Zm0 12.91v-10.89h1.845v10.89h-1.845Zm11.971-3.989 1.815.236c-.198 1.251-.707 2.232-1.528 2.943-.813.704-1.815 1.056-3.004 1.056-1.49 0-2.69-.485-3.599-1.456-.903-.978-1.354-2.375-1.354-4.194 0-1.176.195-2.204.585-3.086.389-.882.981-1.542 1.774-1.979a5.266 5.266 0 0 1 2.604-.667c1.183 0 2.15.301 2.902.903.752.594 1.234 1.442 1.446 2.543l-1.795.276c-.171-.731-.475-1.281-.912-1.65-.431-.37-.954-.554-1.569-.554-.93 0-1.685.335-2.266 1.005-.581.663-.872 1.716-.872 3.158 0 1.463.28 2.526.841 3.189.561.663 1.292.995 2.194.995.725 0 1.33-.223 1.815-.667.486-.444.793-1.128.923-2.051Zm10.7 2.646c-.683.581-1.343.991-1.979 1.23a5.67 5.67 0 0 1-2.03.359c-1.196 0-2.116-.29-2.758-.871-.643-.588-.964-1.337-.964-2.246 0-.533.119-1.019.359-1.456.246-.444.564-.8.953-1.067a4.586 4.586 0 0 1 1.333-.605c.363-.095.909-.188 1.641-.276 1.49-.178 2.587-.39 3.291-.636.007-.253.011-.414.011-.482 0-.752-.175-1.282-.523-1.589-.472-.417-1.173-.626-2.102-.626-.869 0-1.511.154-1.928.462-.41.3-.714.837-.913 1.609l-1.804-.246c.164-.772.434-1.394.81-1.866.376-.478.919-.844 1.63-1.097.711-.26 1.535-.39 2.471-.39.93 0 1.685.11 2.266.328.581.219 1.009.496 1.282.831.273.328.465.745.574 1.251.062.314.093.882.093 1.702v2.461c0 1.716.037 2.803.112 3.261.082.451.24.885.472 1.302h-1.928a3.934 3.934 0 0 1-.369-1.343Zm-.154-4.122c-.67.273-1.674.506-3.014.697-.759.109-1.296.232-1.61.369a1.59 1.59 0 0 0-.985 1.477c0 .492.185.902.554 1.23.376.328.923.492 1.641.492.711 0 1.343-.154 1.897-.461a2.91 2.91 0 0 0 1.22-1.282c.198-.417.297-1.032.297-1.846v-.676Zm8.967 3.814.267 1.63c-.519.11-.984.165-1.394.165-.67 0-1.19-.106-1.559-.318-.369-.212-.629-.489-.779-.831-.151-.349-.226-1.077-.226-2.184v-6.265h-1.353v-1.436h1.353v-2.696l1.835-1.108v3.804h1.856v1.436h-1.856v6.368c0 .526.031.864.093 1.015.068.15.174.27.318.359.15.088.362.133.635.133.205 0 .475-.024.81-.072Zm2.026-11.259v-2.122h1.845v2.122h-1.845Zm0 12.91v-10.89h1.845v10.89h-1.845Zm4.178-5.445c0-2.016.561-3.51 1.682-4.481.936-.806 2.078-1.21 3.425-1.21 1.497 0 2.72.492 3.67 1.477.951.977 1.426 2.331 1.426 4.06 0 1.402-.212 2.506-.636 3.312a4.44 4.44 0 0 1-1.835 1.867 5.32 5.32 0 0 1-2.625.666c-1.525 0-2.759-.489-3.702-1.466-.937-.978-1.405-2.386-1.405-4.225Zm1.897 0c0 1.395.304 2.441.913 3.138.608.69 1.374 1.036 2.297 1.036.916 0 1.678-.349 2.286-1.046.609-.698.913-1.761.913-3.189 0-1.347-.308-2.366-.923-3.056-.608-.697-1.367-1.046-2.276-1.046-.923 0-1.689.345-2.297 1.036-.609.69-.913 1.733-.913 3.127Zm10.68 5.445v-10.89h1.661v1.549c.8-1.197 1.955-1.795 3.466-1.795.656 0 1.257.12 1.804.359.554.233.968.54 1.241.923.273.383.465.837.574 1.364.069.342.103.94.103 1.794v6.696h-1.846v-6.624c0-.752-.072-1.313-.215-1.682a1.745 1.745 0 0 0-.769-.892c-.363-.225-.79-.338-1.282-.338-.786 0-1.466.249-2.041.748-.567.499-.851 1.446-.851 2.841v5.947h-1.845Z" fill="#2D2D2D"/><path d="M465.902 68.5c0-5.523 4.477-10 10-10h275c5.523 0 10 4.477 10 10v273c0 5.523-4.477 10-10 10h-275c-5.523 0-10-4.477-10-10v-273Z" fill="#E6E6E6"/><path d="m467.603 94.286-33.701 11.323v23.04l33.156 8.672 32.574-10.021v-22.844l-32.029-10.17Z" fill="#fff"/><path fill-rule="evenodd" clip-rule="evenodd" d="M466.813 92.936a.6.6 0 0 1 .379-.01l32.949 10.029-.349 1.148-32.758-9.97-32.791 11.878-.409-1.128 32.979-11.947Z" fill="#2D2D2D"/><path fill-rule="evenodd" clip-rule="evenodd" d="M500.196 102.993a.603.603 0 0 1 .251.489v23.737a.598.598 0 0 1-.417.571l-32.084 10.281a.6.6 0 0 1-.336.009l-33.726-8.92a.6.6 0 0 1-.446-.58v-23.133a.599.599 0 0 1 .755-.579l33.549 9.024 31.91-10.978a.603.603 0 0 1 .544.079Zm-.949 1.33-31.289 10.763a.6.6 0 0 1-.351.012l-32.969-8.868v21.888l33.109 8.757 31.5-10.094v-22.458Z" fill="#2D2D2D"/><path fill-rule="evenodd" clip-rule="evenodd" d="M466.732 136.732V114.41h1.2v22.322h-1.2Z" fill="#2D2D2D"/><path d="m467.603 187.286-33.701 11.323v23.04l33.156 8.672 32.574-10.021v-22.845l-32.029-10.169Z" fill="#fff"/><path fill-rule="evenodd" clip-rule="evenodd" d="M466.813 185.936a.6.6 0 0 1 .379-.01l32.949 10.029-.349 1.148-32.758-9.971-32.791 11.879-.409-1.128 32.979-11.947Z" fill="#2D2D2D"/><path fill-rule="evenodd" clip-rule="evenodd" d="M500.196 195.993a.603.603 0 0 1 .251.489v23.737a.598.598 0 0 1-.417.571l-32.084 10.281a.6.6 0 0 1-.336.009l-33.726-8.92a.6.6 0 0 1-.446-.58v-23.133a.599.599 0 0 1 .755-.579l33.549 9.024 31.91-10.978a.603.603 0 0 1 .544.079Zm-.949 1.33-31.289 10.763a.6.6 0 0 1-.351.012l-32.969-8.868v21.888l33.109 8.757 31.5-10.094v-22.458Z" fill="#2D2D2D"/><path fill-rule="evenodd" clip-rule="evenodd" d="M466.732 229.732V207.41h1.2v22.322h-1.2Z" fill="#2D2D2D"/><path d="m467.603 284.286-33.701 11.323v23.04l33.156 8.672 32.574-10.021v-22.845l-32.029-10.169Z" fill="#fff"/><path fill-rule="evenodd" clip-rule="evenodd" d="M466.813 282.936a.6.6 0 0 1 .379-.01l32.949 10.029-.349 1.148-32.758-9.971-32.791 11.879-.409-1.128 32.979-11.947Z" fill="#2D2D2D"/><path fill-rule="evenodd" clip-rule="evenodd" d="M500.196 292.993a.603.603 0 0 1 .251.489v23.737a.598.598 0 0 1-.417.571l-32.084 10.281a.6.6 0 0 1-.336.009l-33.726-8.92a.6.6 0 0 1-.446-.58v-23.133a.599.599 0 0 1 .755-.579l33.549 9.024 31.91-10.978a.603.603 0 0 1 .544.079Zm-.949 1.33-31.289 10.763a.6.6 0 0 1-.351.012l-32.969-8.868v21.888l33.109 8.757 31.5-10.094v-22.458Z" fill="#2D2D2D"/><path fill-rule="evenodd" clip-rule="evenodd" d="M466.732 326.732V304.41h1.2v22.322h-1.2Z" fill="#2D2D2D"/><path fill-rule="evenodd" clip-rule="evenodd" d="M576.778 99.15c-.061-.128-.089-.193-.122-.254-.887-1.648-1.772-3.296-2.669-4.944-.09-.165-.078-.263.045-.405 1.412-1.61 2.805-3.23 4.22-4.833a.432.432 0 0 0 .113-.217l-1.234.314c-1.704.44-3.422.88-5.11 1.327-.158.042-.23-.003-.31-.132a514.05 514.05 0 0 0-2.919-4.721.645.645 0 0 0-.212-.23l-.234 1.26c-.272 1.486-.543 2.963-.812 4.455-.03.16-.07.32-.084.48-.014.154-.095.21-.237.255-2.01.617-4.015 1.238-6.022 1.86a.672.672 0 0 0-.269.145c1.642.637 3.284 1.274 4.949 1.922-.06.047-.1.084-.145.111-1.026.648-2.055 1.297-3.079 1.947-.123.078-.22.09-.358.029-1.227-.54-2.464-1.07-3.695-1.604-.552-.24-1.047-.559-1.433-1.022-.873-1.042-.7-2.227.463-2.962a5.556 5.556 0 0 1 1.246-.552c1.968-.626 3.946-1.23 5.907-1.835.166-.052.242-.124.274-.299.265-1.487.536-2.984.812-4.454.147-.795.224-1.608.62-2.338.152-.28.333-.555.552-.788.785-.851 1.878-.882 2.715-.073.28.274.52.594.727.926.913 1.454 1.811 2.917 2.715 4.387.106.173.201.208.396.158 2.202-.577 4.403-1.145 6.615-1.713.456-.117.915-.16 1.382-.075 1.015.186 1.46.94 1.116 1.9-.156.437-.427.804-.73 1.154-1.538 1.766-3.079 3.54-4.608 5.3-.125.144-.128.247-.041.41.922 1.694 1.834 3.385 2.76 5.1.219.405.388.828.393 1.293.01 1.06-.785 1.929-1.864 2.085-.604.086-1.166-.04-1.733-.211-1.38-.416-2.76-.826-4.152-1.233-.128-.038-.177-.087-.2-.222-.159-.951-.333-1.9-.502-2.85-.004-.027.004-.055.008-.113 1.576.425 3.148.844 4.767 1.283" fill="#E25A1C"/><path fill-rule="evenodd" clip-rule="evenodd" d="M574.041 113.069c-1.245-.002-2.486-.008-3.741-.003-.165 0-.257-.046-.349-.183-1.473-2.191-2.965-4.387-4.425-6.569-.047-.07-.097-.137-.181-.254l-.942 6.992h-3.261c.038-.309.072-.61.112-.908.317-2.383.639-4.744.958-7.126.306-2.272.609-4.543.919-6.815a.295.295 0 0 1 .112-.189c1.122-.715 2.249-1.423 3.375-2.131.017-.01.04-.011.098-.028-.34 2.539-.678 5.055-1.018 7.572l.04.027c1.768-1.911 3.536-3.83 5.338-5.768l.141.797c.127.72.249 1.443.384 2.163.027.145-.013.233-.112.336a764.661 764.661 0 0 0-3.421 3.518c-.05.052-.097.105-.154.166.036.056.067.111.104.162 1.964 2.694 3.923 5.389 5.885 8.084.035.048.087.087.131.13v.043m-38.541-7.143c-.05-.247-.085-.612-.198-.953-.548-1.646-2.274-2.539-4.06-2.14-1.964.445-3.376 1.953-3.558 3.919-.151 1.448.647 2.851 2.13 3.363 1.195.421 2.349.245 3.421-.381 1.417-.828 2.183-2.06 2.281-3.808h-.016Zm-8.621 6.124c-.097.708-.189 1.374-.279 2.042-.119.887-.239 1.775-.353 2.673-.013.103-.046.149-.16.149-.896-.004-1.792-.003-2.691-.005-.021 0-.041-.01-.089-.024.054-.419.107-.84.163-1.258.198-1.47.394-2.94.595-4.41.23-1.683.411-3.362.705-5.033.52-2.961 3.102-5.5 6.113-6.146 1.749-.37 3.421-.198 4.949.764 1.524.957 2.395 2.36 2.601 4.097.282 2.472-.65 4.521-2.441 6.236-1.182 1.116-2.6 1.824-4.22 2.064-1.681.248-3.261-.026-4.676-.993-.051-.035-.107-.067-.196-.121m-1.527-14.065-2.942 2.14c-.157-.24-.297-.48-.461-.706-.422-.576-.947-1.006-1.708-1.057-.634-.044-1.177.16-1.608.616-.386.408-.436.989-.076 1.45.397.508.83.989 1.275 1.459.737.779 1.505 1.528 2.235 2.316.664.713 1.195 1.51 1.36 2.494.195 1.158-.042 2.249-.603 3.274-1.037 1.882-2.668 2.984-4.835 3.318-.954.15-1.902.121-2.828-.146-1.234-.354-2.094-1.145-2.646-2.25-.195-.394-.345-.81-.52-1.233 1.079-.564 2.13-1.114 3.193-1.668.036.086.063.158.097.227.182.354.331.73.554 1.058.669.968 1.745 1.262 2.829.784.28-.124.552-.297.782-.497.703-.61.835-1.461.315-2.227-.299-.441-.673-.837-1.038-1.232-.871-.944-1.779-1.859-2.623-2.828-.586-.663-.985-1.434-1.113-2.316a3.887 3.887 0 0 1 .577-2.695c1.284-2.028 3.148-3.073 5.611-3.006 1.407.05 2.532.693 3.399 1.762.257.316.499.643.761.986m23.826 10.778c-.164 1.223-.319 2.383-.479 3.541-.009.059-.056.139-.107.162-2.441 1.1-5.634.946-7.618-1.267-1.072-1.189-1.522-2.606-1.455-4.165.155-3.63 3.238-6.814 6.933-7.26 2.156-.258 4.038.31 5.498 1.947.994 1.113 1.455 2.449 1.386 3.919-.044.971-.2 1.936-.324 2.895-.175 1.368-.367 2.74-.552 4.098a3.445 3.445 0 0 1-.028.158h-2.897c.038-.314.074-.621.115-.928.21-1.579.443-3.163.627-4.744.115-.984.043-1.962-.419-2.873-.491-.968-1.312-1.483-2.395-1.594-2.24-.232-4.38 1.287-4.836 3.429-.315 1.421.182 2.784 1.341 3.541 1.129.733 2.327.735 3.559.261.625-.241 1.154-.624 1.66-1.138m12.308-8.6c-.133.984-.265 1.953-.397 2.94-.616 0-1.218-.004-1.82 0-.488.004-.933.312-1.081.758-.057.174-.079.36-.104.543l-.912 6.77c-.077.57-.151 1.14-.227 1.719h-3.034c.056-.434.11-.855.166-1.276.197-1.465.394-2.939.593-4.387.172-1.267.326-2.539.529-3.808.271-1.693 1.996-3.207 3.741-3.274.835-.035 1.672-.006 2.532-.006" fill="#3C3A3E"/><path fill-rule="evenodd" clip-rule="evenodd" d="M576.778 191.15c-.061-.128-.089-.193-.122-.254-.887-1.648-1.772-3.296-2.669-4.944-.09-.165-.078-.263.045-.405 1.412-1.61 2.805-3.229 4.22-4.833a.427.427 0 0 0 .113-.217l-1.234.314c-1.704.441-3.422.879-5.11 1.327-.158.042-.23-.003-.31-.132a516.733 516.733 0 0 0-2.919-4.721.65.65 0 0 0-.212-.23c-.078.421-.157.84-.234 1.261-.272 1.485-.543 2.962-.812 4.454-.03.16-.07.32-.084.481-.014.153-.095.209-.237.254-2.01.616-4.015 1.238-6.022 1.859a.678.678 0 0 0-.269.146c1.642.637 3.284 1.274 4.949 1.922-.06.047-.1.084-.145.111-1.026.648-2.055 1.297-3.079 1.947-.123.078-.22.089-.358.029-1.227-.539-2.464-1.069-3.695-1.604-.552-.24-1.047-.559-1.433-1.022-.873-1.042-.7-2.227.463-2.962a5.564 5.564 0 0 1 1.246-.552c1.968-.626 3.946-1.23 5.907-1.835.166-.052.242-.124.274-.299.265-1.487.536-2.984.812-4.454.147-.795.224-1.608.62-2.338.152-.281.333-.554.552-.788.785-.851 1.878-.882 2.715-.073.28.274.52.594.727.926.913 1.454 1.811 2.917 2.715 4.387.106.173.201.208.396.158 2.202-.577 4.403-1.145 6.615-1.713.456-.117.915-.16 1.382-.074 1.015.185 1.46.939 1.116 1.899-.156.437-.427.804-.73 1.154-1.538 1.766-3.079 3.541-4.608 5.3-.125.144-.128.247-.041.41.922 1.694 1.834 3.385 2.76 5.099.219.406.388.829.393 1.294.01 1.06-.785 1.929-1.864 2.085-.604.086-1.166-.04-1.733-.211-1.38-.416-2.76-.826-4.152-1.233-.128-.038-.177-.088-.2-.222-.159-.951-.333-1.9-.502-2.851-.004-.026.004-.054.008-.112 1.576.425 3.148.844 4.767 1.283" fill="#E25A1C"/><path fill-rule="evenodd" clip-rule="evenodd" d="M574.041 205.068c-1.245-.001-2.486-.007-3.741-.002-.165 0-.257-.046-.349-.183-1.473-2.191-2.965-4.387-4.425-6.569-.047-.07-.097-.137-.181-.254l-.942 6.992h-3.261c.038-.309.072-.61.112-.908.317-2.383.639-4.744.958-7.126.306-2.272.609-4.544.919-6.815a.297.297 0 0 1 .112-.189c1.122-.715 2.249-1.423 3.375-2.131.017-.011.04-.011.098-.028-.34 2.539-.678 5.055-1.018 7.572.014.008.027.018.04.027 1.768-1.911 3.536-3.831 5.338-5.768l.141.797c.127.719.249 1.443.384 2.163.027.145-.013.233-.112.336a764.661 764.661 0 0 0-3.421 3.518c-.05.052-.097.105-.154.166.036.056.067.111.104.162 1.964 2.694 3.923 5.389 5.885 8.083.035.049.087.088.131.131v.043m-38.541-7.143c-.05-.247-.085-.612-.198-.953-.548-1.646-2.274-2.539-4.06-2.14-1.964.445-3.376 1.953-3.558 3.919-.151 1.448.647 2.851 2.13 3.363 1.195.421 2.349.245 3.421-.381 1.417-.828 2.183-2.06 2.281-3.808h-.016Zm-8.621 6.124c-.097.708-.189 1.374-.279 2.042-.119.887-.239 1.775-.353 2.673-.013.103-.046.149-.16.148-.896-.003-1.792-.002-2.691-.004-.021 0-.041-.01-.089-.024.054-.419.107-.84.163-1.258.198-1.47.394-2.94.595-4.41.23-1.683.411-3.362.705-5.033.52-2.962 3.102-5.5 6.113-6.146 1.749-.37 3.421-.199 4.949.764 1.524.957 2.395 2.36 2.601 4.097.282 2.472-.65 4.521-2.441 6.236-1.182 1.116-2.6 1.824-4.22 2.064-1.681.248-3.261-.026-4.676-.993-.051-.036-.107-.067-.196-.121m-1.527-14.065c-1.003.731-1.973 1.434-2.942 2.14-.157-.24-.297-.481-.461-.706-.422-.576-.947-1.006-1.708-1.057-.634-.044-1.177.159-1.608.616-.386.408-.436.989-.076 1.45.397.508.83.989 1.275 1.459.737.779 1.505 1.528 2.235 2.316.664.713 1.195 1.51 1.36 2.494.195 1.158-.042 2.249-.603 3.274-1.037 1.882-2.668 2.984-4.835 3.318-.954.15-1.902.121-2.828-.146-1.234-.354-2.094-1.145-2.646-2.25-.195-.394-.345-.81-.52-1.233 1.079-.564 2.13-1.114 3.193-1.668.036.086.063.158.097.227.182.354.331.73.554 1.058.669.968 1.745 1.262 2.829.784.28-.124.552-.297.782-.497.703-.61.835-1.461.315-2.227-.299-.441-.673-.837-1.038-1.232-.871-.944-1.779-1.859-2.623-2.828-.586-.663-.985-1.434-1.113-2.316a3.888 3.888 0 0 1 .577-2.695c1.284-2.028 3.148-3.073 5.611-3.006 1.407.05 2.532.693 3.399 1.762.257.316.499.643.761.986m23.826 10.778c-.164 1.223-.319 2.383-.479 3.541-.009.059-.056.139-.107.162-2.441 1.1-5.634.946-7.618-1.267-1.072-1.189-1.522-2.606-1.455-4.165.155-3.63 3.238-6.814 6.933-7.26 2.156-.258 4.038.31 5.498 1.947.994 1.113 1.455 2.449 1.386 3.919-.044.971-.2 1.936-.324 2.895-.175 1.368-.367 2.74-.552 4.098a3.445 3.445 0 0 1-.028.158h-2.897c.038-.314.074-.621.115-.928.21-1.579.443-3.163.627-4.744.115-.984.043-1.962-.419-2.873-.491-.968-1.312-1.483-2.395-1.594-2.24-.232-4.38 1.287-4.836 3.429-.315 1.421.182 2.784 1.341 3.541 1.129.733 2.327.735 3.559.261.625-.241 1.154-.624 1.66-1.138m12.308-8.6c-.133.984-.265 1.953-.397 2.94-.616 0-1.218-.004-1.82 0-.488.004-.933.312-1.081.758-.057.174-.079.36-.104.543l-.912 6.77c-.077.57-.151 1.14-.227 1.719h-3.034c.056-.434.11-.855.166-1.276.197-1.465.394-2.939.593-4.387.172-1.267.326-2.539.529-3.808.271-1.693 1.996-3.207 3.741-3.274.835-.035 1.672-.006 2.532-.006" fill="#3C3A3E"/><path fill-rule="evenodd" clip-rule="evenodd" d="M576.778 284.15c-.061-.128-.089-.193-.122-.254-.887-1.648-1.772-3.296-2.669-4.944-.09-.165-.078-.263.045-.405 1.412-1.61 2.805-3.229 4.22-4.833a.427.427 0 0 0 .113-.217l-1.234.314c-1.704.441-3.422.879-5.11 1.327-.158.042-.23-.003-.31-.132a516.733 516.733 0 0 0-2.919-4.721.65.65 0 0 0-.212-.23c-.078.421-.157.84-.234 1.261-.272 1.485-.543 2.962-.812 4.454-.03.16-.07.32-.084.481-.014.153-.095.209-.237.254-2.01.616-4.015 1.238-6.022 1.859a.678.678 0 0 0-.269.146c1.642.637 3.284 1.274 4.949 1.922-.06.047-.1.084-.145.111-1.026.648-2.055 1.297-3.079 1.947-.123.078-.22.089-.358.029-1.227-.539-2.464-1.069-3.695-1.604-.552-.24-1.047-.559-1.433-1.022-.873-1.042-.7-2.227.463-2.962a5.564 5.564 0 0 1 1.246-.552c1.968-.626 3.946-1.23 5.907-1.835.166-.052.242-.124.274-.299.265-1.487.536-2.984.812-4.454.147-.795.224-1.608.62-2.338.152-.281.333-.554.552-.788.785-.851 1.878-.882 2.715-.073.28.274.52.594.727.926.913 1.454 1.811 2.917 2.715 4.387.106.173.201.208.396.158 2.202-.577 4.403-1.145 6.615-1.713.456-.117.915-.16 1.382-.074 1.015.185 1.46.939 1.116 1.899-.156.437-.427.804-.73 1.154-1.538 1.766-3.079 3.541-4.608 5.3-.125.144-.128.247-.041.41.922 1.694 1.834 3.385 2.76 5.099.219.406.388.829.393 1.294.01 1.06-.785 1.929-1.864 2.085-.604.086-1.166-.04-1.733-.211-1.38-.416-2.76-.826-4.152-1.233-.128-.038-.177-.088-.2-.222-.159-.951-.333-1.9-.502-2.851-.004-.026.004-.054.008-.112 1.576.425 3.148.844 4.767 1.283" fill="#E25A1C"/><path fill-rule="evenodd" clip-rule="evenodd" d="M574.041 298.068c-1.245-.001-2.486-.007-3.741-.002-.165 0-.257-.046-.349-.183-1.473-2.191-2.965-4.387-4.425-6.569-.047-.07-.097-.137-.181-.254l-.942 6.992h-3.261c.038-.309.072-.61.112-.908.317-2.383.639-4.744.958-7.126.306-2.272.609-4.544.919-6.815a.297.297 0 0 1 .112-.189c1.122-.715 2.249-1.423 3.375-2.131.017-.011.04-.011.098-.028-.34 2.539-.678 5.055-1.018 7.572.014.008.027.018.04.027 1.768-1.911 3.536-3.831 5.338-5.768l.141.797c.127.719.249 1.443.384 2.163.027.145-.013.233-.112.336a764.661 764.661 0 0 0-3.421 3.518c-.05.052-.097.105-.154.166.036.056.067.111.104.162 1.964 2.694 3.923 5.389 5.885 8.083.035.049.087.088.131.131v.043m-38.541-7.143c-.05-.247-.085-.612-.198-.953-.548-1.646-2.274-2.539-4.06-2.14-1.964.445-3.376 1.953-3.558 3.919-.151 1.448.647 2.851 2.13 3.363 1.195.421 2.349.245 3.421-.381 1.417-.828 2.183-2.06 2.281-3.808h-.016Zm-8.621 6.124c-.097.708-.189 1.374-.279 2.042-.119.887-.239 1.775-.353 2.673-.013.103-.046.149-.16.148-.896-.003-1.792-.002-2.691-.004-.021 0-.041-.01-.089-.024.054-.419.107-.84.163-1.258.198-1.47.394-2.94.595-4.41.23-1.683.411-3.362.705-5.033.52-2.962 3.102-5.5 6.113-6.146 1.749-.37 3.421-.199 4.949.764 1.524.957 2.395 2.36 2.601 4.097.282 2.472-.65 4.521-2.441 6.236-1.182 1.116-2.6 1.824-4.22 2.064-1.681.248-3.261-.026-4.676-.993-.051-.036-.107-.067-.196-.121m-1.527-14.065c-1.003.731-1.973 1.434-2.942 2.14-.157-.24-.297-.481-.461-.706-.422-.576-.947-1.006-1.708-1.057-.634-.044-1.177.159-1.608.616-.386.408-.436.989-.076 1.45.397.508.83.989 1.275 1.459.737.779 1.505 1.528 2.235 2.316.664.713 1.195 1.51 1.36 2.494.195 1.158-.042 2.249-.603 3.274-1.037 1.882-2.668 2.984-4.835 3.318-.954.15-1.902.121-2.828-.146-1.234-.354-2.094-1.145-2.646-2.25-.195-.394-.345-.81-.52-1.233 1.079-.564 2.13-1.114 3.193-1.668.036.086.063.158.097.227.182.354.331.73.554 1.058.669.968 1.745 1.262 2.829.784.28-.124.552-.297.782-.497.703-.61.835-1.461.315-2.227-.299-.441-.673-.837-1.038-1.232-.871-.944-1.779-1.859-2.623-2.828-.586-.663-.985-1.434-1.113-2.316a3.888 3.888 0 0 1 .577-2.695c1.284-2.028 3.148-3.073 5.611-3.006 1.407.05 2.532.693 3.399 1.762.257.316.499.643.761.986m23.826 10.778c-.164 1.223-.319 2.383-.479 3.541-.009.059-.056.139-.107.162-2.441 1.1-5.634.946-7.618-1.267-1.072-1.189-1.522-2.606-1.455-4.165.155-3.63 3.238-6.814 6.933-7.26 2.156-.258 4.038.31 5.498 1.947.994 1.113 1.455 2.449 1.386 3.919-.044.971-.2 1.936-.324 2.895-.175 1.368-.367 2.74-.552 4.098a3.445 3.445 0 0 1-.028.158h-2.897c.038-.314.074-.621.115-.928.21-1.579.443-3.163.627-4.744.115-.984.043-1.962-.419-2.873-.491-.968-1.312-1.483-2.395-1.594-2.24-.232-4.38 1.287-4.836 3.429-.315 1.421.182 2.784 1.341 3.541 1.129.733 2.327.735 3.559.261.625-.241 1.154-.624 1.66-1.138m12.308-8.6c-.133.984-.265 1.953-.397 2.94-.616 0-1.218-.004-1.82 0-.488.004-.933.312-1.081.758-.057.174-.079.36-.104.543l-.912 6.77c-.077.57-.151 1.14-.227 1.719h-3.034c.056-.434.11-.855.166-1.276.197-1.465.394-2.939.593-4.387.172-1.267.326-2.539.529-3.808.271-1.693 1.996-3.207 3.741-3.274.835-.035 1.672-.006 2.532-.006" fill="#3C3A3E"/><path d="m514.934 136.5-2.849-10.737h1.458l1.633 7.038c.176.738.327 1.47.454 2.198.274-1.148.435-1.81.484-1.985l2.043-7.251h1.714l1.538 5.434c.386 1.348.664 2.615.835 3.802.137-.679.315-1.458.535-2.337l1.684-6.899h1.428l-2.944 10.737h-1.37l-2.263-8.181a35.738 35.738 0 0 1-.337-1.26c-.112.493-.217.913-.315 1.26l-2.277 8.181h-1.451Zm12.058-5.229c0-1.783.479-3.177 1.436-4.183.957-1.01 2.192-1.516 3.706-1.516.991 0 1.885.237 2.681.711a4.611 4.611 0 0 1 1.816 1.985c.42.844.63 1.804.63 2.878 0 1.089-.22 2.063-.659 2.922-.44.86-1.062 1.512-1.868 1.956a5.365 5.365 0 0 1-2.607.659c-1.011 0-1.915-.244-2.71-.732a4.724 4.724 0 0 1-1.81-2 6.06 6.06 0 0 1-.615-2.68Zm1.465.021c0 1.294.347 2.315 1.04 3.062.698.742 1.572 1.113 2.622 1.113 1.07 0 1.948-.376 2.637-1.128.693-.752 1.04-1.818 1.04-3.2 0-.874-.149-1.636-.447-2.285-.293-.655-.725-1.16-1.296-1.517a3.484 3.484 0 0 0-1.912-.542 3.64 3.64 0 0 0-2.6 1.04c-.723.689-1.084 1.841-1.084 3.457Zm10.864 5.208v-10.737h4.761c.957 0 1.684.097 2.183.293.498.19.896.529 1.193 1.018.298.488.447 1.028.447 1.618 0 .762-.246 1.404-.74 1.927-.493.522-1.254.854-2.285.996.376.18.662.359.857.534a7.37 7.37 0 0 1 1.179 1.429l1.868 2.922h-1.787l-1.421-2.234a20.457 20.457 0 0 0-1.025-1.479c-.269-.342-.511-.581-.725-.718a2.09 2.09 0 0 0-.645-.286c-.161-.034-.425-.051-.791-.051h-1.648v4.768h-1.421Zm1.421-5.999h3.054c.65 0 1.157-.065 1.524-.197.366-.137.644-.352.835-.645.19-.298.285-.62.285-.967 0-.507-.185-.925-.556-1.252-.367-.327-.948-.491-1.743-.491h-3.399v3.552Zm9.538 5.999v-10.737h1.421v5.324l5.332-5.324h1.927l-4.505 4.35 4.702 6.387h-1.875l-3.823-5.435-1.758 1.714v3.721h-1.421Zm10.293 0v-10.737h7.764v1.267h-6.343v3.288h5.94v1.26h-5.94v3.655h6.592v1.267h-8.013Zm10.198 0v-10.737h4.761c.957 0 1.684.097 2.182.293.498.19.896.529 1.194 1.018.298.488.447 1.028.447 1.618 0 .762-.247 1.404-.74 1.927-.493.522-1.255.854-2.285.996.376.18.661.359.857.534a7.37 7.37 0 0 1 1.179 1.429l1.868 2.922h-1.787l-1.421-2.234a20.094 20.094 0 0 0-1.026-1.479c-.268-.342-.51-.581-.725-.718a2.095 2.095 0 0 0-.644-.286c-.161-.034-.425-.051-.791-.051h-1.648v4.768h-1.421Zm1.421-5.999h3.054c.649 0 1.157-.065 1.523-.197.367-.137.645-.352.835-.645.191-.298.286-.62.286-.967 0-.507-.186-.925-.557-1.252-.366-.327-.947-.491-1.743-.491h-3.398v3.552ZM514.934 228.5l-2.849-10.737h1.458l1.633 7.038c.176.738.327 1.47.454 2.198.274-1.148.435-1.81.484-1.985l2.043-7.251h1.714l1.538 5.434c.386 1.348.664 2.615.835 3.802.137-.679.315-1.458.535-2.337l1.684-6.899h1.428l-2.944 10.737h-1.37l-2.263-8.181a35.738 35.738 0 0 1-.337-1.26c-.112.493-.217.913-.315 1.26l-2.277 8.181h-1.451Zm12.058-5.229c0-1.783.479-3.177 1.436-4.183.957-1.01 2.192-1.516 3.706-1.516.991 0 1.885.237 2.681.711a4.611 4.611 0 0 1 1.816 1.985c.42.844.63 1.804.63 2.878 0 1.089-.22 2.063-.659 2.922-.44.86-1.062 1.512-1.868 1.956a5.365 5.365 0 0 1-2.607.659c-1.011 0-1.915-.244-2.71-.732a4.724 4.724 0 0 1-1.81-2 6.06 6.06 0 0 1-.615-2.68Zm1.465.021c0 1.294.347 2.315 1.04 3.062.698.742 1.572 1.113 2.622 1.113 1.07 0 1.948-.376 2.637-1.128.693-.752 1.04-1.818 1.04-3.2 0-.874-.149-1.636-.447-2.285-.293-.655-.725-1.16-1.296-1.517a3.484 3.484 0 0 0-1.912-.542 3.64 3.64 0 0 0-2.6 1.04c-.723.689-1.084 1.841-1.084 3.457Zm10.864 5.208v-10.737h4.761c.957 0 1.684.097 2.183.293.498.19.896.529 1.193 1.018.298.488.447 1.028.447 1.618 0 .762-.246 1.404-.74 1.927-.493.522-1.254.854-2.285.996.376.18.662.359.857.534a7.37 7.37 0 0 1 1.179 1.429l1.868 2.922h-1.787l-1.421-2.234a20.457 20.457 0 0 0-1.025-1.479c-.269-.342-.511-.581-.725-.718a2.09 2.09 0 0 0-.645-.286c-.161-.034-.425-.051-.791-.051h-1.648v4.768h-1.421Zm1.421-5.999h3.054c.65 0 1.157-.065 1.524-.197.366-.137.644-.352.835-.645.19-.298.285-.62.285-.967 0-.507-.185-.925-.556-1.252-.367-.327-.948-.491-1.743-.491h-3.399v3.552Zm9.538 5.999v-10.737h1.421v5.324l5.332-5.324h1.927l-4.505 4.35 4.702 6.387h-1.875l-3.823-5.435-1.758 1.714v3.721h-1.421Zm10.293 0v-10.737h7.764v1.267h-6.343v3.288h5.94v1.26h-5.94v3.655h6.592v1.267h-8.013Zm10.198 0v-10.737h4.761c.957 0 1.684.097 2.182.293.498.19.896.529 1.194 1.018.298.488.447 1.028.447 1.618 0 .762-.247 1.404-.74 1.927-.493.522-1.255.854-2.285.996.376.18.661.359.857.534a7.37 7.37 0 0 1 1.179 1.429l1.868 2.922h-1.787l-1.421-2.234a20.094 20.094 0 0 0-1.026-1.479c-.268-.342-.51-.581-.725-.718a2.095 2.095 0 0 0-.644-.286c-.161-.034-.425-.051-.791-.051h-1.648v4.768h-1.421Zm1.421-5.999h3.054c.649 0 1.157-.065 1.523-.197.367-.137.645-.352.835-.645.191-.298.286-.62.286-.967 0-.507-.186-.925-.557-1.252-.366-.327-.947-.491-1.743-.491h-3.398v3.552ZM514.934 321.5l-2.849-10.737h1.458l1.633 7.038c.176.738.327 1.47.454 2.198.274-1.148.435-1.81.484-1.985l2.043-7.251h1.714l1.538 5.434c.386 1.348.664 2.615.835 3.802.137-.679.315-1.458.535-2.337l1.684-6.899h1.428l-2.944 10.737h-1.37l-2.263-8.181a35.738 35.738 0 0 1-.337-1.26c-.112.493-.217.913-.315 1.26l-2.277 8.181h-1.451Zm12.058-5.229c0-1.783.479-3.177 1.436-4.183.957-1.01 2.192-1.516 3.706-1.516.991 0 1.885.237 2.681.711a4.611 4.611 0 0 1 1.816 1.985c.42.844.63 1.804.63 2.878 0 1.089-.22 2.063-.659 2.922-.44.86-1.062 1.512-1.868 1.956a5.365 5.365 0 0 1-2.607.659c-1.011 0-1.915-.244-2.71-.732a4.724 4.724 0 0 1-1.81-2 6.06 6.06 0 0 1-.615-2.68Zm1.465.021c0 1.294.347 2.315 1.04 3.062.698.742 1.572 1.113 2.622 1.113 1.07 0 1.948-.376 2.637-1.128.693-.752 1.04-1.818 1.04-3.2 0-.874-.149-1.636-.447-2.285-.293-.655-.725-1.16-1.296-1.517a3.484 3.484 0 0 0-1.912-.542 3.64 3.64 0 0 0-2.6 1.04c-.723.689-1.084 1.841-1.084 3.457Zm10.864 5.208v-10.737h4.761c.957 0 1.684.097 2.183.293.498.19.896.529 1.193 1.018.298.488.447 1.028.447 1.618 0 .762-.246 1.404-.74 1.927-.493.522-1.254.854-2.285.996.376.18.662.359.857.534a7.37 7.37 0 0 1 1.179 1.429l1.868 2.922h-1.787l-1.421-2.234a20.457 20.457 0 0 0-1.025-1.479c-.269-.342-.511-.581-.725-.718a2.09 2.09 0 0 0-.645-.286c-.161-.034-.425-.051-.791-.051h-1.648v4.768h-1.421Zm1.421-5.999h3.054c.65 0 1.157-.065 1.524-.197.366-.137.644-.352.835-.645.19-.298.285-.62.285-.967 0-.507-.185-.925-.556-1.252-.367-.327-.948-.491-1.743-.491h-3.399v3.552Zm9.538 5.999v-10.737h1.421v5.324l5.332-5.324h1.927l-4.505 4.35 4.702 6.387h-1.875l-3.823-5.435-1.758 1.714v3.721h-1.421Zm10.293 0v-10.737h7.764v1.267h-6.343v3.288h5.94v1.26h-5.94v3.655h6.592v1.267h-8.013Zm10.198 0v-10.737h4.761c.957 0 1.684.097 2.182.293.498.19.896.529 1.194 1.018.298.488.447 1.028.447 1.618 0 .762-.247 1.404-.74 1.927-.493.522-1.255.854-2.285.996.376.18.661.359.857.534a7.37 7.37 0 0 1 1.179 1.429l1.868 2.922h-1.787l-1.421-2.234a20.094 20.094 0 0 0-1.026-1.479c-.268-.342-.51-.581-.725-.718a2.095 2.095 0 0 0-.644-.286c-.161-.034-.425-.051-.791-.051h-1.648v4.768h-1.421Zm1.421-5.999h3.054c.649 0 1.157-.065 1.523-.197.367-.137.645-.352.835-.645.191-.298.286-.62.286-.967 0-.507-.186-.925-.557-1.252-.366-.327-.947-.491-1.743-.491h-3.398v3.552Zm54.546-131.681 1.43-.125c.067.573.224 1.045.469 1.414.25.365.635.662 1.156.891.521.224 1.107.336 1.758.336.578 0 1.088-.086 1.531-.258.443-.172.771-.406.984-.703.219-.302.328-.63.328-.984 0-.36-.104-.672-.312-.938-.209-.271-.552-.497-1.031-.68-.308-.119-.987-.304-2.039-.554-1.053-.255-1.79-.495-2.211-.719-.547-.286-.956-.641-1.227-1.062a2.652 2.652 0 0 1-.398-1.43c0-.578.164-1.117.492-1.617.328-.506.807-.888 1.437-1.149.63-.26 1.331-.39 2.102-.39.849 0 1.596.138 2.242.414.651.27 1.151.672 1.5 1.203s.536 1.133.563 1.804l-1.454.11c-.078-.724-.343-1.271-.796-1.641-.448-.37-1.112-.554-1.993-.554-.916 0-1.586.169-2.007.507-.417.334-.625.737-.625 1.211 0 .412.148.75.445 1.016.291.266 1.052.539 2.281.82 1.234.276 2.081.518 2.539.727.667.307 1.159.698 1.477 1.172.317.468.476 1.01.476 1.625a3.13 3.13 0 0 1-.523 1.726c-.349.537-.852.956-1.508 1.258-.651.297-1.385.445-2.203.445-1.037 0-1.906-.151-2.609-.453a3.686 3.686 0 0 1-1.649-1.359 3.908 3.908 0 0 1-.625-2.063Zm11.208 3.68v-11.453h1.406v4.109c.656-.76 1.485-1.14 2.485-1.14.614 0 1.148.122 1.601.367.453.239.776.573.969 1 .198.427.297 1.047.297 1.859v5.258h-1.407v-5.258c0-.703-.153-1.213-.46-1.531-.303-.323-.732-.484-1.29-.484-.416 0-.809.109-1.179.328a1.809 1.809 0 0 0-.781.875c-.157.369-.235.88-.235 1.531v4.539h-1.406Zm14.52-1.023c-.521.442-1.023.755-1.508.937a4.315 4.315 0 0 1-1.546.274c-.912 0-1.612-.222-2.102-.665-.49-.447-.734-1.018-.734-1.711 0-.406.091-.776.273-1.109.188-.338.43-.609.727-.812.302-.203.64-.357 1.015-.461.276-.073.693-.144 1.25-.211 1.136-.136 1.972-.297 2.508-.485.005-.192.008-.315.008-.367 0-.573-.133-.976-.399-1.211-.359-.317-.893-.476-1.601-.476-.662 0-1.151.117-1.469.351-.312.229-.544.638-.695 1.227l-1.375-.188c.125-.588.33-1.062.617-1.422.286-.364.7-.643 1.242-.836.542-.197 1.169-.296 1.883-.296.708 0 1.284.083 1.727.25.442.166.768.377.976.632.208.25.354.568.438.954.046.239.07.671.07 1.296v1.875c0 1.308.029 2.136.086 2.485.062.344.182.674.359.992h-1.469a3.011 3.011 0 0 1-.281-1.023Zm-.117-3.141c-.51.208-1.276.385-2.297.531-.578.084-.987.177-1.226.281a1.218 1.218 0 0 0-.75 1.125c0 .375.14.688.421.938.287.25.704.375 1.25.375.542 0 1.024-.117 1.446-.352.422-.239.732-.565.929-.976.151-.318.227-.787.227-1.406v-.516Zm3.794 4.164v-8.297h1.265v1.258c.323-.589.62-.977.891-1.164.276-.188.578-.281.906-.281.474 0 .956.151 1.446.453l-.485 1.304a2.011 2.011 0 0 0-1.031-.304c-.307 0-.583.093-.828.281a1.486 1.486 0 0 0-.524.766 5.48 5.48 0 0 0-.234 1.64v4.344h-1.406Zm11.223-2.672 1.453.18c-.229.849-.653 1.508-1.273 1.976-.62.469-1.412.704-2.375.704-1.214 0-2.177-.373-2.891-1.118-.708-.75-1.062-1.799-1.062-3.148 0-1.396.359-2.479 1.078-3.25.719-.771 1.651-1.156 2.797-1.156 1.109 0 2.015.377 2.719 1.132.703.756 1.054 1.818 1.054 3.188 0 .083-.002.208-.008.375h-6.187c.052.911.31 1.609.773 2.094.464.484 1.042.726 1.735.726.515 0 .955-.135 1.32-.406.365-.271.654-.703.867-1.297Zm-4.617-2.273h4.633c-.063-.698-.24-1.222-.531-1.571-.448-.541-1.029-.812-1.743-.812-.645 0-1.19.216-1.632.648-.438.433-.68 1.011-.727 1.735Zm13.427 4.945v-1.047c-.526.823-1.3 1.235-2.321 1.235a3.277 3.277 0 0 1-1.828-.547c-.552-.365-.982-.873-1.289-1.524-.302-.656-.453-1.409-.453-2.258 0-.828.138-1.578.414-2.25.276-.677.69-1.195 1.242-1.554a3.316 3.316 0 0 1 1.852-.539c.5 0 .945.106 1.336.32.39.208.708.482.953.82v-4.109h1.398V187.5h-1.304Zm-4.446-4.141c0 1.063.224 1.857.672 2.383.448.526.977.789 1.586.789.615 0 1.135-.25 1.563-.75.432-.505.648-1.273.648-2.304 0-1.136-.219-1.969-.656-2.5-.438-.532-.977-.797-1.617-.797-.625 0-1.149.255-1.571.765-.416.511-.625 1.315-.625 2.414Zm13.025 4.141v-11.453h5.078c1.021 0 1.797.104 2.329.312.531.203.955.565 1.273 1.086.318.521.477 1.097.477 1.727 0 .812-.264 1.497-.79 2.055-.526.557-1.338.911-2.437 1.062.401.193.706.383.914.57a7.88 7.88 0 0 1 1.258 1.524l1.992 3.117h-1.906l-1.516-2.383a21.828 21.828 0 0 0-1.094-1.578c-.286-.365-.544-.62-.773-.766a2.235 2.235 0 0 0-.688-.304c-.171-.037-.453-.055-.843-.055h-1.758v5.086h-1.516Zm1.516-6.398h3.258c.692 0 1.234-.071 1.625-.211.39-.146.687-.375.89-.688a1.88 1.88 0 0 0 .305-1.031c0-.542-.198-.987-.594-1.336-.39-.349-1.01-.524-1.859-.524h-3.625v3.79Zm10.223 6.398v-11.453h3.946c.89 0 1.57.055 2.039.164.656.151 1.216.424 1.679.82.605.511 1.055 1.164 1.352 1.961.302.792.453 1.698.453 2.719 0 .87-.101 1.641-.305 2.312-.203.672-.463 1.23-.781 1.672a4.203 4.203 0 0 1-1.047 1.039c-.375.25-.83.44-1.367.571-.531.13-1.143.195-1.836.195h-4.133Zm1.516-1.352h2.445c.755 0 1.347-.07 1.774-.21.432-.141.776-.339 1.031-.594.359-.36.638-.841.836-1.446.203-.609.305-1.346.305-2.21 0-1.198-.198-2.118-.594-2.758-.391-.646-.867-1.078-1.43-1.297-.406-.156-1.06-.235-1.961-.235h-2.406v8.75Zm10.247 1.352v-11.453h3.945c.891 0 1.57.055 2.039.164.656.151 1.216.424 1.68.82.604.511 1.055 1.164 1.351 1.961.303.792.454 1.698.454 2.719 0 .87-.102 1.641-.305 2.312-.203.672-.464 1.23-.781 1.672a4.203 4.203 0 0 1-1.047 1.039c-.375.25-.831.44-1.367.571-.532.13-1.144.195-1.836.195h-4.133Zm1.515-1.352h2.446c.755 0 1.346-.07 1.773-.21.432-.141.776-.339 1.031-.594.36-.36.638-.841.836-1.446.204-.609.305-1.346.305-2.21 0-1.198-.198-2.118-.594-2.758-.39-.646-.867-1.078-1.429-1.297-.407-.156-1.06-.235-1.961-.235h-2.407v8.75Zm9.505-1.125 1.391-.218c.078.557.294.984.648 1.281.36.297.86.445 1.5.445.646 0 1.125-.13 1.438-.39.312-.266.468-.576.468-.93a.853.853 0 0 0-.414-.75c-.192-.125-.671-.284-1.437-.477-1.031-.26-1.748-.484-2.149-.672a2.14 2.14 0 0 1-.906-.789 2.13 2.13 0 0 1-.304-1.117c0-.37.083-.711.25-1.023.171-.318.403-.581.695-.789.219-.162.515-.297.89-.406a4.196 4.196 0 0 1 1.219-.172c.651 0 1.222.093 1.711.281.495.187.86.443 1.094.765.234.318.396.745.484 1.282l-1.375.187c-.062-.427-.245-.76-.547-1-.296-.239-.718-.359-1.265-.359-.646 0-1.107.107-1.383.32-.276.214-.414.464-.414.75 0 .182.057.347.172.492.114.151.294.276.539.375.14.052.555.172 1.242.36.995.265 1.688.484 2.078.656.396.167.706.411.93.734.224.323.336.724.336 1.203 0 .469-.138.912-.414 1.329-.271.411-.664.731-1.18.961-.516.224-1.099.336-1.75.336-1.078 0-1.901-.224-2.469-.672-.562-.448-.922-1.112-1.078-1.993ZM635.362 233.5v-11.453h3.945c.89 0 1.57.055 2.039.164.656.151 1.216.424 1.68.82.604.511 1.054 1.164 1.351 1.961.302.792.453 1.698.453 2.719 0 .87-.101 1.641-.304 2.312-.204.672-.464 1.23-.782 1.672a4.17 4.17 0 0 1-1.047 1.039c-.375.25-.83.44-1.367.571-.531.13-1.143.195-1.836.195h-4.132Zm1.515-1.352h2.445c.756 0 1.347-.07 1.774-.21.432-.141.776-.339 1.031-.594.36-.36.638-.841.836-1.446.203-.609.305-1.346.305-2.21 0-1.198-.198-2.118-.594-2.758-.391-.646-.867-1.078-1.43-1.297-.406-.156-1.06-.235-1.961-.235h-2.406v8.75Zm15.481.329c-.52.442-1.023.755-1.507.937-.48.182-.995.274-1.547.274-.912 0-1.612-.222-2.102-.665-.489-.447-.734-1.018-.734-1.711 0-.406.091-.776.273-1.109.188-.338.43-.609.727-.812.302-.203.64-.357 1.015-.461.276-.073.693-.144 1.25-.211 1.136-.136 1.972-.297 2.508-.485.005-.192.008-.315.008-.367 0-.573-.133-.976-.398-1.211-.36-.317-.894-.476-1.602-.476-.661 0-1.151.117-1.469.351-.312.229-.544.638-.695 1.227l-1.375-.188c.125-.588.331-1.062.617-1.422.287-.364.701-.643 1.242-.836.542-.197 1.17-.296 1.883-.296.708 0 1.284.083 1.727.25.442.166.768.377.976.632.209.25.354.568.438.954.047.239.07.671.07 1.296v1.875c0 1.308.029 2.136.086 2.485.063.344.182.674.359.992h-1.468a2.989 2.989 0 0 1-.282-1.023Zm-.117-3.141c-.51.208-1.276.385-2.297.531-.578.084-.987.177-1.226.281a1.218 1.218 0 0 0-.75 1.125c0 .375.14.688.422.938.286.25.703.375 1.25.375.541 0 1.023-.117 1.445-.352a2.21 2.21 0 0 0 .93-.976c.151-.318.226-.787.226-1.406v-.516Zm6.88 2.906.203 1.242a5.17 5.17 0 0 1-1.062.125c-.511 0-.907-.08-1.188-.242a1.36 1.36 0 0 1-.594-.633c-.114-.265-.172-.82-.172-1.664v-4.773h-1.031v-1.094h1.031v-2.055l1.399-.843v2.898h1.414v1.094h-1.414v4.851c0 .401.023.659.07.774a.615.615 0 0 0 .242.273c.115.068.276.102.485.102.156 0 .362-.018.617-.055Zm6.997.235c-.521.442-1.024.755-1.508.937a4.321 4.321 0 0 1-1.547.274c-.911 0-1.612-.222-2.101-.665-.49-.447-.735-1.018-.735-1.711 0-.406.091-.776.274-1.109a2.33 2.33 0 0 1 .726-.812 3.47 3.47 0 0 1 1.016-.461c.276-.073.692-.144 1.25-.211 1.135-.136 1.971-.297 2.508-.485.005-.192.007-.315.007-.367 0-.573-.132-.976-.398-1.211-.359-.317-.893-.476-1.602-.476-.661 0-1.151.117-1.468.351-.313.229-.545.638-.696 1.227l-1.375-.188c.125-.588.331-1.062.618-1.422.286-.364.7-.643 1.242-.836.541-.197 1.169-.296 1.883-.296.708 0 1.283.083 1.726.25.443.166.768.377.977.632.208.25.354.568.437.954.047.239.07.671.07 1.296v1.875c0 1.308.029 2.136.086 2.485.063.344.183.674.36.992h-1.469a2.967 2.967 0 0 1-.281-1.023Zm-.117-3.141c-.511.208-1.276.385-2.297.531-.578.084-.987.177-1.227.281a1.228 1.228 0 0 0-.555.461c-.13.198-.195.42-.195.664 0 .375.141.688.422.938.286.25.703.375 1.25.375.542 0 1.023-.117 1.445-.352a2.21 2.21 0 0 0 .93-.976c.151-.318.227-.787.227-1.406v-.516Zm4.145 4.164v-7.203h-1.242v-1.094h1.242v-.883c0-.557.049-.971.148-1.242.136-.364.373-.659.711-.883.344-.229.823-.343 1.438-.343.396 0 .833.046 1.312.14l-.211 1.227a4.714 4.714 0 0 0-.828-.078c-.427 0-.729.091-.906.273-.177.182-.266.524-.266 1.024v.765h1.618v1.094h-1.618v7.203h-1.398Zm4.301 0v-8.297h1.266v1.258c.323-.589.62-.977.891-1.164.276-.188.578-.281.906-.281.474 0 .956.151 1.445.453l-.484 1.304a2.014 2.014 0 0 0-1.031-.304 1.32 1.32 0 0 0-.828.281 1.48 1.48 0 0 0-.524.766 5.48 5.48 0 0 0-.234 1.64v4.344h-1.407Zm10.958-1.023c-.521.442-1.023.755-1.508.937a4.315 4.315 0 0 1-1.546.274c-.912 0-1.612-.222-2.102-.665-.49-.447-.734-1.018-.734-1.711 0-.406.091-.776.273-1.109.188-.338.43-.609.727-.812.302-.203.64-.357 1.015-.461.276-.073.693-.144 1.25-.211 1.136-.136 1.972-.297 2.508-.485.005-.192.008-.315.008-.367 0-.573-.133-.976-.399-1.211-.359-.317-.893-.476-1.601-.476-.662 0-1.151.117-1.469.351-.312.229-.544.638-.695 1.227l-1.375-.188c.125-.588.331-1.062.617-1.422.286-.364.701-.643 1.242-.836.542-.197 1.169-.296 1.883-.296.708 0 1.284.083 1.727.25.442.166.768.377.976.632.208.25.354.568.438.954.047.239.07.671.07 1.296v1.875c0 1.308.029 2.136.086 2.485.062.344.182.674.359.992h-1.468a2.989 2.989 0 0 1-.282-1.023Zm-.117-3.141c-.51.208-1.276.385-2.297.531-.578.084-.987.177-1.226.281a1.218 1.218 0 0 0-.75 1.125c0 .375.14.688.422.938.286.25.703.375 1.25.375.541 0 1.023-.117 1.445-.352a2.21 2.21 0 0 0 .93-.976c.151-.318.226-.787.226-1.406v-.516Zm3.809 4.164v-8.297h1.258v1.164a2.924 2.924 0 0 1 1.039-.976c.433-.25.925-.375 1.477-.375.614 0 1.117.127 1.508.382.396.256.674.612.836 1.071.656-.969 1.51-1.453 2.562-1.453.823 0 1.456.229 1.899.687.442.453.664 1.154.664 2.102v5.695h-1.399v-5.227c0-.562-.047-.966-.14-1.211a1.155 1.155 0 0 0-.493-.601 1.545 1.545 0 0 0-.843-.227c-.584 0-1.068.196-1.453.586-.386.386-.579 1.006-.579 1.86v4.82h-1.406v-5.391c0-.625-.114-1.093-.344-1.406-.229-.312-.604-.469-1.125-.469-.395 0-.763.105-1.101.313a1.775 1.775 0 0 0-.727.914c-.151.401-.226.979-.226 1.734v4.305h-1.407Zm19.208-2.672 1.453.18c-.229.849-.653 1.508-1.273 1.976-.62.469-1.412.704-2.375.704-1.214 0-2.177-.373-2.891-1.118-.708-.75-1.062-1.799-1.062-3.148 0-1.396.359-2.479 1.078-3.25.719-.771 1.651-1.156 2.797-1.156 1.109 0 2.015.377 2.719 1.132.703.756 1.054 1.818 1.054 3.188 0 .083-.002.208-.008.375h-6.187c.052.911.31 1.609.773 2.094.464.484 1.042.726 1.735.726.515 0 .955-.135 1.32-.406.365-.271.654-.703.867-1.297Zm-4.617-2.273h4.633c-.063-.698-.24-1.222-.531-1.571-.448-.541-1.029-.812-1.743-.812-.645 0-1.19.216-1.632.648-.438.433-.68 1.011-.727 1.735Zm7.481 2.468 1.391-.218c.078.557.294.984.648 1.281.36.297.86.445 1.5.445.646 0 1.125-.13 1.438-.39.312-.266.469-.576.469-.93a.853.853 0 0 0-.414-.75c-.193-.125-.672-.284-1.438-.477-1.031-.26-1.747-.484-2.148-.672a2.137 2.137 0 0 1-.907-.789 2.13 2.13 0 0 1-.304-1.117c0-.37.083-.711.25-1.023.172-.318.403-.581.695-.789.219-.162.516-.297.891-.406.38-.115.786-.172 1.218-.172.651 0 1.222.093 1.711.281.495.187.86.443 1.094.765.234.318.396.745.484 1.282l-1.375.187c-.062-.427-.244-.76-.546-1-.297-.239-.719-.359-1.266-.359-.646 0-1.107.107-1.383.32-.276.214-.414.464-.414.75 0 .182.057.347.172.492.115.151.294.276.539.375.141.052.555.172 1.242.36.995.265 1.688.484 2.078.656.396.167.706.411.93.734.224.323.336.724.336 1.203 0 .469-.138.912-.414 1.329-.271.411-.664.731-1.18.961-.515.224-1.099.336-1.75.336-1.078 0-1.901-.224-2.469-.672-.562-.448-.921-1.112-1.078-1.993Zm-32.501-21.875c-.464.516-.969.904-1.516 1.164a4.13 4.13 0 0 1-1.773.383c-1.172 0-2.102-.396-2.789-1.187-.558-.646-.836-1.367-.836-2.164 0-.709.226-1.347.679-1.914.459-.573 1.141-1.076 2.047-1.508-.515-.594-.859-1.076-1.031-1.445a2.536 2.536 0 0 1-.258-1.071c0-.687.268-1.284.805-1.789.542-.51 1.221-.765 2.039-.765.781 0 1.419.239 1.914.718.5.479.75 1.055.75 1.727 0 1.088-.721 2.018-2.164 2.789l2.055 2.617c.234-.458.416-.989.547-1.594l1.46.313c-.25 1-.588 1.823-1.015 2.469a8.15 8.15 0 0 0 1.789 1.757l-.945 1.118c-.568-.365-1.154-.904-1.758-1.618Zm-2.86-5.968c.61-.36 1.003-.675 1.18-.946.182-.27.274-.57.274-.898 0-.391-.125-.708-.375-.953a1.239 1.239 0 0 0-.922-.375 1.32 1.32 0 0 0-.953.367c-.25.245-.375.544-.375.898 0 .178.044.365.132.563.094.193.232.398.414.617l.625.727Zm1.977 4.859-2.578-3.195c-.761.453-1.274.875-1.539 1.265-.266.386-.399.769-.399 1.149 0 .463.185.945.555 1.445.37.5.893.75 1.57.75.422 0 .857-.13 1.305-.391a3.195 3.195 0 0 0 1.086-1.023Z" fill="#2D2D2D"/><path fill-rule="evenodd" clip-rule="evenodd" d="m618.074 321.741.383-.924c1.06.44 2.223.683 3.445.683h3v1h-3a9.97 9.97 0 0 1-3.828-.759Zm108.828.759v-1h3a8.963 8.963 0 0 0 3.445-.683l.383.924a9.97 9.97 0 0 1-3.828.759h-3Zm13-222.014h-1V97.5a8.978 8.978 0 0 0-.682-3.445l.923-.383a9.97 9.97 0 0 1 .759 3.828v2.986Zm-115-12.986h-3a9.97 9.97 0 0 0-3.828.759l.383.924a8.974 8.974 0 0 1 3.445-.683h3v-1Zm-13 222.014h1v2.986c0 1.222.243 2.385.683 3.445l-.924.383a9.97 9.97 0 0 1-.759-3.828v-2.986Zm0-5.972h1v-5.973h-1v5.973Zm0-11.945h1v-5.972h-1v5.972Zm0-11.944h1v-5.972h-1v5.972Zm0-11.945h1v-5.972h-1v5.972Zm0-11.944h1v-5.972h-1v5.972Zm0-11.945h1v-5.972h-1v5.972Zm0-11.944h1v-5.972h-1v5.972Zm0-11.944h1v-5.973h-1v5.973Zm0-11.945h1v-5.972h-1v5.972Zm0-11.944h1v-5.973h-1v5.973Zm0-11.945h1v-5.972h-1v5.972Zm0-11.944h1v-5.972h-1v5.972Zm0-11.945h1v-5.972h-1v5.972Zm0-11.944h1v-5.972h-1v5.972Zm0-11.945h1v-5.972h-1v5.972Zm0-11.944h1v-5.972h-1v5.972Zm0-11.945h1v-5.972h-1v5.972Zm0-11.944h1V97.5a8.96 8.96 0 0 1 .683-3.445l-.924-.383a9.97 9.97 0 0 0-.759 3.828v2.986Zm19-12.986v1h6v-1h-6Zm12 0v1h6v-1h-6Zm12 0v1h6v-1h-6Zm12 0v1h6v-1h-6Zm12 0v1h6v-1h-6Zm12 0v1h6v-1h-6Zm12 0v1h6v-1h-6Zm12 0v1h6v-1h-6Zm12 0v1h3c1.222 0 2.385.243 3.445.683l.383-.924a9.97 9.97 0 0 0-3.828-.759h-3Zm13 18.958h-1v5.973h1v-5.973Zm0 11.945h-1v5.972h1v-5.972Zm0 11.944h-1v5.972h1v-5.972Zm0 11.945h-1v5.972h1v-5.972Zm0 11.944h-1v5.972h1v-5.972Zm0 11.945h-1v5.972h1v-5.972Zm0 11.944h-1v5.972h1v-5.972Zm0 11.944h-1v5.973h1v-5.973Zm0 11.945h-1v5.972h1v-5.972Zm0 11.944h-1v5.973h1v-5.973Zm0 11.945h-1v5.972h1v-5.972Zm0 11.944h-1v5.972h1v-5.972Zm0 11.945h-1v5.972h1v-5.972Zm0 11.944h-1v5.972h1v-5.972Zm0 11.945h-1v5.972h1v-5.972Zm0 11.944h-1v5.972h1v-5.972Zm0 11.945h-1v5.972h1v-5.972Zm0 11.944h-1v2.986a8.98 8.98 0 0 1-.682 3.445l.923.383a9.97 9.97 0 0 0 .759-3.828v-2.986Zm-19 12.986v-1h-6v1h6Zm-12 0v-1h-6v1h6Zm-12 0v-1h-6v1h6Zm-12 0v-1h-6v1h6Zm-12 0v-1h-6v1h6Zm-12 0v-1h-6v1h6Zm-12 0v-1h-6v1h6Zm-12 0v-1h-6v1h6Z" fill="#9C9C9C"/><path d="M167.619 100.052 86.43 122.911l81.189 22.596 80.663-22.596-80.663-22.859Z" fill="#fff"/><path fill-rule="evenodd" clip-rule="evenodd" d="M167.429 99.378a.701.701 0 0 1 .381 0l80.663 22.859a.7.7 0 0 1-.002 1.348l-80.663 22.596a.71.71 0 0 1-.377 0l-81.188-22.596a.7.7 0 0 1-.002-1.348l81.188-22.86Zm-78.402 23.529 78.591 21.873 78.083-21.873-78.083-22.128-78.59 22.128Z" fill="#000"/><path d="m167.429 144.794-81.04-22.015v139.22l80.923 22.979 81.012-22.979v-139.22l-80.895 22.015Z" fill="#fff"/><path fill-rule="evenodd" clip-rule="evenodd" d="M85.964 122.223a.702.702 0 0 1 .608-.119l80.857 21.965 80.711-21.965a.703.703 0 0 1 .884.675v139.22a.701.701 0 0 1-.509.674l-81.012 22.978a.69.69 0 0 1-.382 0l-80.923-22.978a.701.701 0 0 1-.51-.674v-139.22a.7.7 0 0 1 .276-.556Zm1.125 1.472V261.47l80.223 22.78 80.312-22.78V123.695l-80.011 21.774a.707.707 0 0 1-.368.001l-80.156-21.775Z" fill="#000"/><path fill-rule="evenodd" clip-rule="evenodd" d="m168.077 144.967-.041 140.48h-1.4l.041-140.48h1.4Z" fill="#000"/><path d="M917.532 244.32V141.556s11.027 10.431 45.3 10.431c34.274 0 46.488-11.623 46.488-11.623V244.32c-13.543 20.763-87.413 15.177-91.788 0Z" fill="#fff"/><path d="M1010.4 137.489c0 8.284-21.017 15-47.498 15-26.481 0-47.5-6.716-47.5-15 0-8.284 21.019-15 47.5-15s47.498 6.716 47.498 15Z" fill="#fff"/><path fill-rule="evenodd" clip-rule="evenodd" d="M1005.5 141.73c2.17-1.63 2.9-3.084 2.9-4.241 0-1.157-.73-2.611-2.9-4.241-2.13-1.605-5.35-3.137-9.522-4.459-8.319-2.637-19.98-4.3-33.076-4.3s-24.757 1.663-33.076 4.3c-4.171 1.322-7.39 2.854-9.523 4.459-2.166 1.63-2.901 3.084-2.901 4.241 0 1.157.735 2.611 2.901 4.241 2.133 1.605 5.352 3.137 9.523 4.459 8.319 2.637 19.98 4.3 33.076 4.3s24.757-1.663 33.076-4.3c4.172-1.322 7.392-2.854 9.522-4.459Zm-42.598 10.759c26.481 0 47.498-6.716 47.498-15 0-8.284-21.017-15-47.498-15-26.481 0-47.5 6.716-47.5 15 0 8.284 21.019 15 47.5 15Z" fill="#ED1C24"/><path fill-rule="evenodd" clip-rule="evenodd" d="m915.753 243.757-.351-107.263 2-.01.351 107.264-2 .009Zm92.647.732v-108h2v108h-2Z" fill="#ED1C24"/><path fill-rule="evenodd" clip-rule="evenodd" d="M930.631 252.163c8.271 2.57 19.758 4.175 32.491 4.175 12.732 0 24.22-1.605 32.491-4.175 4.141-1.286 7.417-2.798 9.637-4.43 2.25-1.647 3.24-3.281 3.24-4.801h2c0 2.458-1.6 4.613-4.05 6.413-2.47 1.815-5.98 3.408-10.234 4.728-8.511 2.644-20.208 4.265-33.084 4.265-12.877 0-24.574-1.621-33.085-4.265-4.249-1.32-7.761-2.913-10.232-4.728-2.451-1.8-4.052-3.955-4.052-6.413h2c0 1.52.994 3.154 3.236 4.801 2.221 1.632 5.5 3.144 9.642 4.43Z" fill="#ED1C24"/><path d="M1093.53 245.32V141.556s11.03 10.431 45.3 10.431c34.28 0 46.49-11.623 46.49-11.623V245.32s-4.93 12.746-46.49 13.236c-41.55.49-45.3-13.236-45.3-13.236Z" fill="#fff"/><path d="M1186.4 137.489c0 8.284-21.02 15-47.5 15s-47.5-6.716-47.5-15c0-8.284 21.02-15 47.5-15s47.5 6.716 47.5 15Z" fill="#fff"/><path fill-rule="evenodd" clip-rule="evenodd" d="M1181.5 141.73c2.17-1.63 2.9-3.084 2.9-4.241 0-1.157-.73-2.611-2.9-4.241-2.13-1.605-5.35-3.137-9.52-4.459-8.32-2.637-19.98-4.3-33.08-4.3-13.09 0-24.75 1.663-33.07 4.3-4.18 1.322-7.39 2.854-9.53 4.459-2.16 1.63-2.9 3.084-2.9 4.241 0 1.157.74 2.611 2.9 4.241 2.14 1.605 5.35 3.137 9.53 4.459 8.32 2.637 19.98 4.3 33.07 4.3 13.1 0 24.76-1.663 33.08-4.3 4.17-1.322 7.39-2.854 9.52-4.459Zm-42.6 10.759c26.48 0 47.5-6.716 47.5-15 0-8.284-21.02-15-47.5-15s-47.5 6.716-47.5 15c0 8.284 21.02 15 47.5 15Z" fill="#ED1C24"/><path fill-rule="evenodd" clip-rule="evenodd" d="m1091.75 243.757-.35-107.263 2-.01.35 107.264-2 .009Zm92.65.732v-108h2v108h-2Z" fill="#ED1C24"/><path fill-rule="evenodd" clip-rule="evenodd" d="M1106.63 253.163c8.27 2.57 19.76 4.175 32.49 4.175s24.22-1.605 32.49-4.175c4.14-1.286 7.42-2.798 9.64-4.43 2.25-1.647 3.24-3.281 3.24-4.801h2c0 2.458-1.6 4.613-4.05 6.413-2.47 1.815-5.98 3.408-10.23 4.728-8.52 2.644-20.21 4.265-33.09 4.265-12.87 0-24.57-1.621-33.08-4.265-4.25-1.32-7.76-2.913-10.24-4.728-2.45-1.8-4.05-3.955-4.05-6.413h2c0 1.52 1 3.154 3.24 4.801 2.22 1.632 5.5 3.144 9.64 4.43Z" fill="#ED1C24"/><path d="M1005.53 274.897V171.341s11.03 8.544 45.3 8.544c34.28 0 46.49-9.521 46.49-9.521v103.961c-13.72 18.884-83.39 16.452-91.79.572Z" fill="#fff"/><path d="M1098.4 167.489c0 8.284-21.02 15-47.5 15s-47.5-6.716-47.5-15c0-8.284 21.02-15 47.5-15s47.5 6.716 47.5 15Z" fill="#fff"/><path fill-rule="evenodd" clip-rule="evenodd" d="M1093.5 171.73c2.17-1.63 2.9-3.084 2.9-4.241 0-1.157-.73-2.611-2.9-4.241-2.13-1.605-5.35-3.137-9.52-4.459-8.32-2.637-19.98-4.3-33.08-4.3-13.09 0-24.75 1.663-33.07 4.3-4.18 1.322-7.39 2.854-9.53 4.459-2.16 1.63-2.9 3.084-2.9 4.241 0 1.157.74 2.611 2.9 4.241 2.14 1.605 5.35 3.137 9.53 4.459 8.32 2.637 19.98 4.3 33.07 4.3 13.1 0 24.76-1.663 33.08-4.3 4.17-1.322 7.39-2.854 9.52-4.459Zm-42.6 10.759c26.48 0 47.5-6.716 47.5-15 0-8.284-21.02-15-47.5-15s-47.5 6.716-47.5 15c0 8.284 21.02 15 47.5 15Z" fill="#ED1C24"/><path fill-rule="evenodd" clip-rule="evenodd" d="m1003.75 273.757-.35-107.263 2-.01.35 107.264-2 .009Zm92.65.732v-108h2v108h-2Z" fill="#ED1C24"/><path fill-rule="evenodd" clip-rule="evenodd" d="M1018.63 282.163c8.27 2.57 19.76 4.175 32.49 4.175s24.22-1.605 32.49-4.175c4.14-1.286 7.42-2.798 9.64-4.43 2.25-1.647 3.24-3.281 3.24-4.801h2c0 2.458-1.6 4.613-4.05 6.413-2.47 1.815-5.98 3.408-10.23 4.728-8.52 2.644-20.21 4.265-33.09 4.265-12.87 0-24.57-1.621-33.08-4.265-4.25-1.32-7.76-2.913-10.24-4.728-2.45-1.8-4.05-3.955-4.05-6.413h2c0 1.52 1 3.154 3.24 4.801 2.22 1.632 5.5 3.144 9.64 4.43Z" fill="#ED1C24"/><path d="M1114.33 268.701s-10.5 6.5-.61 12.954c1.91 1.257 8.81 4.752 8.61 7.987 0 0 4.19-6.286-1.93-10.241-6.28-4.047-7.86-8.37-6.07-10.7Z" fill="#ED1C24"/><path d="M1110.67 281.118s-3.75 5.764 3.63 6.945c.72.092 6.05.659 7.44 2.437 0 0-.12-3.066-4.47-4.875-4.33-1.809-6.12-2.253-6.6-4.507Zm14.5-6.055c-4.5-4.783-5.75-7.742-3.82-11.574 0 0-13.43 5.243-.16 14.548 4.74 3.326 3.95 6.73 3.95 6.852.74-.781 4.54-5.043.03-9.826Z" fill="#ED1C24"/><path d="M1132.62 286.594v-11.453h1.56l6.01 8.992v-8.992h1.45v11.453h-1.55l-6.02-9v9h-1.45Zm11.32-5.578c0-1.901.51-3.388 1.53-4.461 1.02-1.078 2.34-1.617 3.95-1.617 1.06 0 2.01.253 2.86.758.85.505 1.5 1.211 1.94 2.117.45.901.67 1.925.67 3.07 0 1.162-.23 2.201-.7 3.118-.47.916-1.13 1.612-1.99 2.086-.86.468-1.79.703-2.79.703-1.07 0-2.04-.261-2.89-.782a5.096 5.096 0 0 1-1.93-2.132 6.565 6.565 0 0 1-.65-2.86Zm1.56.024c0 1.38.37 2.468 1.11 3.265.74.792 1.68 1.188 2.8 1.188 1.14 0 2.07-.401 2.81-1.203.74-.802 1.11-1.94 1.11-3.414 0-.933-.16-1.745-.48-2.438-.31-.698-.77-1.237-1.38-1.617-.6-.385-1.28-.578-2.04-.578-1.07 0-2 .37-2.77 1.109-.77.735-1.16 1.964-1.16 3.688Zm11.55 5.554v-11.453h3.95c.89 0 1.57.055 2.04.164a3.95 3.95 0 0 1 1.68.821c.6.51 1.05 1.164 1.35 1.961.3.791.45 1.697.45 2.718 0 .87-.1 1.641-.3 2.313-.21.672-.47 1.229-.79 1.672-.31.437-.66.784-1.04 1.039-.38.25-.83.44-1.37.57-.53.13-1.14.195-1.84.195h-4.13Zm1.52-1.351h2.44c.76 0 1.35-.071 1.78-.211.43-.141.77-.339 1.03-.594.36-.359.64-.841.83-1.445.21-.61.31-1.347.31-2.211 0-1.198-.2-2.117-.6-2.758-.39-.646-.86-1.078-1.43-1.297-.4-.156-1.05-.234-1.96-.234h-2.4v8.75Zm10.28 1.351v-11.453h8.28v1.352h-6.77v3.508h6.34v1.343h-6.34v3.899h7.03v1.351h-8.54Z" fill="#2D2D2D"/><path d="M926.253 268.701s-10.5 6.5-.604 12.954c1.903 1.257 8.807 4.752 8.611 7.987 0 0 4.184-6.286-1.934-10.241-6.285-4.047-7.856-8.37-6.073-10.7Z" fill="#ED1C24"/><path d="M922.597 281.118s-3.746 5.764 3.626 6.945c.725.092 6.058.659 7.448 2.437 0 0-.121-3.066-4.472-4.875-4.336-1.809-6.118-2.253-6.602-4.507Zm14.503-6.055c-4.502-4.783-5.756-7.742-3.822-11.574 0 0-13.43 5.243-.166 14.548 4.743 3.326 3.958 6.73 3.958 6.852.74-.781 4.532-5.043.03-9.826Z" fill="#ED1C24"/><path d="M944.547 286.594v-11.453h1.555l6.015 8.992v-8.992h1.453v11.453h-1.554l-6.016-9v9h-1.453Zm11.317-5.578c0-1.901.511-3.388 1.531-4.461 1.021-1.078 2.339-1.617 3.954-1.617 1.057 0 2.01.253 2.859.758a4.914 4.914 0 0 1 1.937 2.117c.448.901.672 1.925.672 3.07 0 1.162-.234 2.201-.703 3.118-.469.916-1.133 1.612-1.992 2.086a5.722 5.722 0 0 1-2.781.703c-1.078 0-2.042-.261-2.891-.782a5.024 5.024 0 0 1-1.93-2.132 6.473 6.473 0 0 1-.656-2.86Zm1.563.024c0 1.38.37 2.468 1.109 3.265.745.792 1.677 1.188 2.797 1.188 1.141 0 2.078-.401 2.812-1.203.74-.802 1.11-1.94 1.11-3.414 0-.933-.159-1.745-.477-2.438-.312-.698-.773-1.237-1.383-1.617a3.712 3.712 0 0 0-2.039-.578c-1.072 0-1.997.37-2.773 1.109-.771.735-1.156 1.964-1.156 3.688Zm11.551 5.554v-11.453h3.946c.89 0 1.57.055 2.039.164.656.151 1.216.425 1.679.821.605.51 1.055 1.164 1.352 1.961.302.791.453 1.697.453 2.718 0 .87-.102 1.641-.305 2.313-.203.672-.463 1.229-.781 1.672a4.22 4.22 0 0 1-1.047 1.039c-.375.25-.83.44-1.367.57-.531.13-1.143.195-1.836.195h-4.133Zm1.516-1.351h2.445c.755 0 1.347-.071 1.774-.211.432-.141.776-.339 1.031-.594.359-.359.638-.841.836-1.445.203-.61.305-1.347.305-2.211 0-1.198-.198-2.117-.594-2.758-.391-.646-.867-1.078-1.43-1.297-.406-.156-1.06-.234-1.961-.234h-2.406v8.75Zm10.278 1.351v-11.453h8.281v1.352h-6.765v3.508h6.336v1.343h-6.336v3.899h7.031v1.351h-8.547Z" fill="#2D2D2D"/><path d="M1019.25 299.701s-10.5 6.5-.6 12.954c1.9 1.257 8.81 4.752 8.61 7.987 0 0 4.18-6.286-1.93-10.241-6.29-4.047-7.86-8.37-6.08-10.7Z" fill="#ED1C24"/><path d="M1015.6 312.118s-3.75 5.764 3.62 6.945c.73.092 6.06.659 7.45 2.437 0 0-.12-3.066-4.47-4.875-4.34-1.809-6.12-2.253-6.6-4.507Zm14.5-6.055c-4.5-4.783-5.76-7.742-3.82-11.574 0 0-13.43 5.243-.17 14.548 4.75 3.326 3.96 6.73 3.96 6.852.74-.781 4.53-5.043.03-9.826Z" fill="#ED1C24"/><path d="M1037.55 317.594v-11.453h1.55l6.02 8.992v-8.992h1.45v11.453h-1.55l-6.02-9v9h-1.45Zm11.31-5.578c0-1.901.51-3.388 1.54-4.461 1.02-1.078 2.33-1.617 3.95-1.617 1.06 0 2.01.253 2.86.758.85.505 1.49 1.211 1.94 2.117.44.901.67 1.925.67 3.07 0 1.162-.24 2.201-.71 3.118a4.771 4.771 0 0 1-1.99 2.086c-.86.468-1.78.703-2.78.703-1.08 0-2.04-.261-2.89-.782a5.03 5.03 0 0 1-1.93-2.132 6.437 6.437 0 0 1-.66-2.86Zm1.57.024c0 1.38.37 2.468 1.11 3.265.74.792 1.67 1.188 2.79 1.188 1.14 0 2.08-.401 2.82-1.203.74-.802 1.1-1.94 1.1-3.414 0-.933-.15-1.745-.47-2.438a3.606 3.606 0 0 0-1.38-1.617 3.744 3.744 0 0 0-2.04-.578c-1.08 0-2 .37-2.78 1.109-.77.735-1.15 1.964-1.15 3.688Zm11.55 5.554v-11.453h3.94c.89 0 1.57.055 2.04.164.66.151 1.22.425 1.68.821.61.51 1.06 1.164 1.35 1.961.31.791.46 1.697.46 2.718 0 .87-.1 1.641-.31 2.313-.2.672-.46 1.229-.78 1.672-.32.437-.67.784-1.05 1.039-.37.25-.83.44-1.36.57-.53.13-1.15.195-1.84.195h-4.13Zm1.51-1.351h2.45c.75 0 1.35-.071 1.77-.211.43-.141.78-.339 1.03-.594.36-.359.64-.841.84-1.445.2-.61.3-1.347.3-2.211 0-1.198-.19-2.117-.59-2.758-.39-.646-.87-1.078-1.43-1.297-.41-.156-1.06-.234-1.96-.234h-2.41v8.75Zm10.28 1.351v-11.453h8.28v1.352h-6.76v3.508h6.33v1.343h-6.33v3.899h7.03v1.351h-8.55Z" fill="#2D2D2D"/></svg>