<svg width="69" height="69" fill="none" xmlns="http://www.w3.org/2000/svg"><circle cx="34.5" cy="34.5" r="34.5" fill="#ED1C40"/><path d="M43.947 20.43c.69.116 2.416-1.84 6.212-.805 6.558 1.956 1.266 11.276.46 13.001-1.15 2.186-6.096 11.62-1.495 12.541 2.07.46 5.292 0 4.832 2.991-.346 3.107-7.478 1.496-8.858.806-5.982-2.532-4.487-8.86-1.61-13.576 1.15-2.416 5.176-8.054 2.645-8.974-1.61-.576-3.336 3.911-3.911 5.177-.69 1.38-5.062 9.894-5.982 11.275-2.3 3.682-6.557 1.84-5.637-1.266 1.265-4.026 6.442-13.346 3.336-13.806-1.61-.23-2.416 1.61-2.876 2.646-.92 1.841-4.371 11.736-6.097 15.417-2.186 4.602-11.389 2.646-9.778-4.257.575-2.646 3.911-13 4.601-14.841 1.381-3.452 2.761-7.939 8.053-8.054 1.496 0 3.796 1.726 5.407 2.301 1.61.46 2.76-2.761 5.752-2.991 3.68-.23 3.566 2.3 4.946 2.416Z" fill="#fff"/></svg>