<svg width="34" height="34" fill="none" xmlns="http://www.w3.org/2000/svg"><path d="M25.277 12.69a3.964 3.964 0 0 1-3.96-3.96 3.963 3.963 0 0 1 3.96-3.959 3.964 3.964 0 0 1 3.96 3.96 3.964 3.964 0 0 1-3.96 3.959Zm0-6.6a2.642 2.642 0 0 0-2.64 2.64 2.643 2.643 0 0 0 2.64 2.64 2.643 2.643 0 0 0 2.64-2.64 2.643 2.643 0 0 0-2.64-2.64Z" fill="#fff" stroke="#fff" stroke-width=".5"/><path d="M6.777 23.071a9.584 9.584 0 0 0-3.022 2.034c-2.105 2.109-3.101 5.04-2.647 7.791 2.752.45 5.681-.547 7.789-2.651a9.583 9.583 0 0 0 2.035-3.021M2.957 16.862c-.46.433-.898.887-1.313 1.359A19.91 19.91 0 0 1 8.15 21.34c.15-.276.34-.53.562-.752a3.325 3.325 0 0 1 1.695-.907c.14-2.7.89-5.393 2.194-7.875l.004-.008a20.51 20.51 0 0 0-5.093 1.829 20.494 20.494 0 0 0-4.556 3.235Zm0 0v0Zm11.366 6.727a3.324 3.324 0 0 1-.908 1.7 3.325 3.325 0 0 1-.763.567 19.903 19.903 0 0 1 3.13 6.5c.473-.413.927-.852 1.36-1.312a20.492 20.492 0 0 0 3.235-4.554 20.494 20.494 0 0 0 1.83-5.09c-2.486 1.303-5.181 2.05-7.884 2.189v0Z" stroke="#fff" stroke-width="1.7" stroke-miterlimit="10" stroke-linecap="round" stroke-linejoin="round"/><path d="M14.228 21.926c.18.59.166 1.128.091 1.683 4.717-.241 9.328-2.336 12.828-5.828 4.473-4.48 6.59-10.708 5.623-16.555C26.923.27 20.7 2.388 16.222 6.86c-3.488 3.5-5.578 8.109-5.816 12.822a3.32 3.32 0 0 1 1.847.16" stroke="#fff" stroke-width="1.7" stroke-miterlimit="10" stroke-linecap="round" stroke-linejoin="round"/></svg>