<svg width="48" height="48" fill="none" xmlns="http://www.w3.org/2000/svg"><g clip-path="url(#a)"><path fill-rule="evenodd" clip-rule="evenodd" d="m38.866 33.233-4.132-2.691-3.447 5.686-4.009-1.158-3.53 5.321.181 1.675 19.192-3.492-1.114-11.843-3.141 6.502Zm-17.898-5.106 3.08-.418c.497.221.844.305 1.442.455.93.24 2.007.47 3.602-.324.371-.182 1.144-.88 1.457-1.278l12.616-2.26 1.287 15.383-21.614 3.847-1.87-15.405Zm23.435-5.543-1.245.234-2.393-24.412L0 3.074l5.022 40.251 4.772-.684c-.381-.537-.975-1.187-1.988-2.02-1.405-1.153-.908-3.111-.08-4.348 1.097-2.09 6.748-4.745 6.428-8.085-.115-1.214-.31-2.796-1.452-3.879-.043.45.035.883.035.883s-.469-.59-.703-1.396c-.232-.309-.414-.407-.66-.82-.176.477-.153 1.03-.153 1.03s-.383-.894-.445-1.649c-.228.338-.285.98-.285.98s-.498-1.41-.385-2.17c-.227-.66-.9-1.972-.71-4.954 1.244.861 3.983.656 5.05-.897.354-.514.597-1.919-.177-4.686-.497-1.775-1.728-4.417-2.207-5.42l-.058.041c.253.808.774 2.5.975 3.322.605 2.49.767 3.357.483 4.504-.242.998-.822 1.651-2.292 2.381-1.47.732-3.421-1.05-3.545-1.148-1.428-1.124-2.533-2.957-2.657-3.848-.128-.975.57-1.56.92-2.358-.502.142-1.063.394-1.063.394s.67-.684 1.495-1.275a9.05 9.05 0 0 0 .902-.661c-.521-.009-.945.006-.945.006s.87-.464 1.771-.802c-.66-.029-1.29-.005-1.29-.005s1.94-.857 3.472-1.486c1.054-.426 2.083-.3 2.662.526.759 1.082 1.556 1.67 3.246 2.034 1.038-.454 1.353-.688 2.657-1.039 1.148-1.246 2.05-1.408 2.05-1.408s-.448.405-.567 1.042c.65-.507 1.364-.93 1.364-.93s-.276.337-.534.872l.06.088a13.64 13.64 0 0 1 1.652-.804s-.255.318-.555.73c.573-.004 1.734.025 2.185.075 2.66.058 3.212-2.806 4.233-3.165 1.278-.451 1.85-.724 4.028 1.39 1.87 1.814 3.33 5.06 2.605 5.788-.608.604-1.808-.235-3.137-1.872a7.044 7.044 0 0 1-1.482-3.192c-.21-1.1-1.027-1.737-1.027-1.737s.474 1.042.474 1.962c0 .502.064 2.38.88 3.434-.081.154-.12.763-.208.879-.95-1.132-2.987-1.943-3.32-2.182 1.126.91 3.71 3.001 4.704 5.005.938 1.895.385 3.631.86 4.081.135.13 2.02 2.448 2.382 3.613.632 2.03.038 4.164-.79 5.488l-2.311.356c-.338-.093-.566-.14-.87-.313.168-.292.5-1.02.503-1.17l-.13-.227c-.72 1.006-1.925 1.984-2.926 2.545-1.31.733-2.82.62-3.803.32-2.79-.85-5.429-2.713-6.065-3.202 0 0-.02.39.1.479.704.783 2.316 2.2 3.873 3.189l-3.32.36 1.57 12.075c-.697.098-.805.146-1.567.254-.672-2.344-1.956-3.874-3.36-4.765-1.239-.786-2.947-.963-4.582-.643l-.105.12c1.137-.117 2.479.046 3.857.908 1.354.845 2.444 3.027 2.845 4.341.514 1.68.87 3.476-.514 5.38-.984 1.354-3.857 2.102-6.178.484.62.984 1.458 1.79 2.586 1.941 1.675.225 3.265-.062 4.36-1.171.934-.95 1.429-2.933 1.299-5.022l1.478-.212.534 3.75L46.4 41.82l-1.997-19.236Zm-14.89-10.183c-.069.154-.176.255-.015.756l.01.029.026.064.067.15c.29.587.61 1.14 1.143 1.423a3.64 3.64 0 0 1 .428-.046c.5-.022.817.057 1.018.163a2.11 2.11 0 0 0 .01-.455c-.038-.743.15-2.007-1.296-2.672-.546-.25-1.312-.173-1.567.14a.635.635 0 0 1 .12.026c.386.133.125.264.056.422Zm4.052 6.932c-.19-.103-1.075-.062-1.698.011-1.187.138-2.468.545-2.749.761-.51.39-.278 1.07.099 1.348 1.057.78 1.984 1.303 2.962 1.176.601-.078 1.13-1.017 1.506-1.87.257-.587.257-1.22-.12-1.426ZM23.06 13.321c.335-.314-1.667-.726-3.22.32-1.145.771-1.182 2.425-.085 3.363.11.093.2.159.285.213.32-.15.685-.3 1.105-.434a9.977 9.977 0 0 1 1.784-.408c.232-.256.501-.707.434-1.523-.091-1.107-.941-.931-.303-1.531Z" fill="#632CA6"/></g><defs><clipPath id="a"><path fill="#fff" d="M0 0h48v48H0z"/></clipPath></defs></svg>