<svg width="786" height="888" viewBox="0 0 786 888" fill="none" xmlns="http://www.w3.org/2000/svg">
<mask id="mask0_1_46" style="mask-type:alpha" maskUnits="userSpaceOnUse" x="0" y="-2" width="786" height="890">
<rect y="-2" width="786" height="890" fill="#2D2D2D"/>
</mask>
<g mask="url(#mask0_1_46)">
<path d="M839.593 132.633L185.433 833.478" stroke="url(#paint0_linear_1_46)" stroke-width="2"/>
<path d="M427.898 -2.16699C427.898 -2.16699 793.003 155.1 483.335 483.056C173.667 811.011 156.255 833.478 156.255 833.478" stroke="url(#paint1_linear_1_46)" stroke-width="2"/>
<path d="M398.72 -2.16699C398.72 -2.16699 763.825 155.1 454.157 483.056C144.489 811.011 127.077 833.478 127.077 833.478" stroke="url(#paint2_linear_1_46)" stroke-width="2"/>
<path d="M369.548 -2.16699C369.548 -2.16699 734.653 155.1 424.985 483.056C115.317 811.011 97.9046 833.478 97.9046 833.478" stroke="url(#paint3_linear_1_46)" stroke-width="2"/>
<path d="M334.531 -2.16699C334.531 -2.16699 699.636 155.1 389.968 483.056C80.2999 811.011 62.8877 833.478 62.8877 833.478" stroke="url(#paint4_linear_1_46)" stroke-width="2"/>
<path d="M859.431 138.469L205.271 839.314" stroke="url(#paint5_linear_1_46)" stroke-width="2"/>
<path d="M879.275 144.304L225.114 845.149" stroke="url(#paint6_linear_1_46)" stroke-width="2"/>
<path d="M899.118 150.139L244.958 850.984" stroke="url(#paint7_linear_1_46)" stroke-width="2"/>
<path d="M918.962 155.975L264.801 856.82" stroke="url(#paint8_linear_1_46)" stroke-width="2"/>
<path d="M938.805 161.811L284.645 862.655" stroke="url(#paint9_linear_1_46)" stroke-width="2"/>
<path d="M958.637 167.646L304.477 868.491" stroke="url(#paint10_linear_1_46)" stroke-width="2"/>
<path d="M978.481 173.482L324.32 874.327" stroke="url(#paint11_linear_1_46)" stroke-width="2"/>
<path d="M998.324 179.318L344.164 880.163" stroke="url(#paint12_linear_1_46)" stroke-width="2"/>
<path d="M1018.16 185.153L363.996 885.997" stroke="url(#paint13_linear_1_46)" stroke-width="2"/>
<path d="M1038 190.988L383.839 891.833" stroke="url(#paint14_linear_1_46)" stroke-width="2"/>
<path d="M358.103 511.218L363.86 516.236L365.307 508.875L358.103 511.218Z" fill="#ED1C24"/>
<path d="M446.285 486.796L452.433 491.326L453.273 483.872L446.285 486.796Z" fill="#ED1C24"/>
<path d="M502.444 514.921L508.194 519.946L509.65 512.587L502.444 514.921Z" fill="#ED1C24"/>
<path d="M510.047 642.102L515.75 647.179L517.274 639.834L510.047 642.102Z" fill="#ED1C24"/>
<path d="M493.55 752.356L487.71 747.435L486.387 754.819L493.55 752.356Z" fill="#ED1C24"/>
<path d="M675.066 526.497L667.746 528.672L673.188 533.835L675.066 526.497Z" fill="#ED1C24"/>
<path d="M482.707 407.442L489.324 411.255L489.324 403.753L482.707 407.442Z" fill="#ED1C24"/>
</g>
<defs>
<linearGradient id="paint0_linear_1_46" x1="512.513" y1="132.633" x2="512.513" y2="833.478" gradientUnits="userSpaceOnUse">
<stop stop-color="white"/>
<stop offset="0.928773" stop-color="#E8F2FA"/>
<stop offset="1" stop-color="white"/>
</linearGradient>
<linearGradient id="paint1_linear_1_46" x1="483.335" y1="132.633" x2="483.335" y2="833.478" gradientUnits="userSpaceOnUse">
<stop stop-color="white"/>
<stop offset="1" stop-color="#E8F2FA"/>
</linearGradient>
<linearGradient id="paint2_linear_1_46" x1="454.157" y1="132.633" x2="454.157" y2="833.478" gradientUnits="userSpaceOnUse">
<stop stop-color="white"/>
<stop offset="1" stop-color="#E8F2FA"/>
</linearGradient>
<linearGradient id="paint3_linear_1_46" x1="424.985" y1="132.633" x2="424.985" y2="833.478" gradientUnits="userSpaceOnUse">
<stop stop-color="white"/>
<stop offset="1" stop-color="#E8F2FA"/>
</linearGradient>
<linearGradient id="paint4_linear_1_46" x1="389.968" y1="132.633" x2="389.968" y2="833.478" gradientUnits="userSpaceOnUse">
<stop stop-color="white"/>
<stop offset="1" stop-color="#E8F2FA"/>
</linearGradient>
<linearGradient id="paint5_linear_1_46" x1="532.351" y1="138.469" x2="532.351" y2="839.314" gradientUnits="userSpaceOnUse">
<stop stop-color="white"/>
<stop offset="0.928773" stop-color="#E8F2FA"/>
<stop offset="1" stop-color="white"/>
</linearGradient>
<linearGradient id="paint6_linear_1_46" x1="552.194" y1="144.304" x2="552.194" y2="845.149" gradientUnits="userSpaceOnUse">
<stop stop-color="white"/>
<stop offset="0.928773" stop-color="#E8F2FA"/>
<stop offset="1" stop-color="white"/>
</linearGradient>
<linearGradient id="paint7_linear_1_46" x1="572.038" y1="150.139" x2="572.038" y2="850.984" gradientUnits="userSpaceOnUse">
<stop stop-color="white"/>
<stop offset="0.928773" stop-color="#E8F2FA"/>
<stop offset="1" stop-color="white"/>
</linearGradient>
<linearGradient id="paint8_linear_1_46" x1="591.881" y1="155.975" x2="591.881" y2="856.82" gradientUnits="userSpaceOnUse">
<stop stop-color="white"/>
<stop offset="0.928773" stop-color="#E8F2FA"/>
<stop offset="1" stop-color="white"/>
</linearGradient>
<linearGradient id="paint9_linear_1_46" x1="611.725" y1="161.811" x2="611.725" y2="862.655" gradientUnits="userSpaceOnUse">
<stop stop-color="white"/>
<stop offset="0.928773" stop-color="#E8F2FA"/>
<stop offset="1" stop-color="white"/>
</linearGradient>
<linearGradient id="paint10_linear_1_46" x1="631.557" y1="167.646" x2="631.557" y2="868.491" gradientUnits="userSpaceOnUse">
<stop stop-color="white"/>
<stop offset="0.928773" stop-color="#E8F2FA"/>
<stop offset="1" stop-color="white"/>
</linearGradient>
<linearGradient id="paint11_linear_1_46" x1="651.401" y1="173.482" x2="651.401" y2="874.327" gradientUnits="userSpaceOnUse">
<stop stop-color="white"/>
<stop offset="0.928773" stop-color="#E8F2FA"/>
<stop offset="1" stop-color="white"/>
</linearGradient>
<linearGradient id="paint12_linear_1_46" x1="671.244" y1="179.318" x2="671.244" y2="880.163" gradientUnits="userSpaceOnUse">
<stop stop-color="white"/>
<stop offset="0.928773" stop-color="#E8F2FA"/>
<stop offset="1" stop-color="white"/>
</linearGradient>
<linearGradient id="paint13_linear_1_46" x1="691.076" y1="185.153" x2="691.076" y2="885.997" gradientUnits="userSpaceOnUse">
<stop stop-color="white"/>
<stop offset="0.928773" stop-color="#E8F2FA"/>
<stop offset="1" stop-color="white"/>
</linearGradient>
<linearGradient id="paint14_linear_1_46" x1="710.92" y1="190.988" x2="710.92" y2="891.833" gradientUnits="userSpaceOnUse">
<stop stop-color="white"/>
<stop offset="0.928773" stop-color="#E8F2FA"/>
<stop offset="1" stop-color="white"/>
</linearGradient>
</defs>
</svg>
