<svg width="48" height="48" fill="none" xmlns="http://www.w3.org/2000/svg"><rect x="11.279" y="11.35" width="33.657" height="35.8" rx="3.15" fill="#fff" stroke="#000" stroke-width="1.7"/><path d="m20.8 25.5-4.323 4.39a1 1 0 0 0 0 1.404l4.323 4.39m14.271 0 4.324-4.39a1 1 0 0 0 0-1.404L35.07 25.5" stroke="#ED1C24" stroke-width="1.5" stroke-linecap="round" stroke-linejoin="round"/><circle cx="22.695" cy="30.266" r="1.552" fill="#ED1C24"/><circle cx="28.052" cy="30.266" r="1.552" fill="#ED1C24"/><circle cx="33.409" cy="30.266" r="1.552" fill="#ED1C24"/><rect x="4.85" y="3.85" width="23.793" height="17.142" rx="3.15" fill="#fff" stroke="#000" stroke-width="1.7"/><path d="M28.322 12.512a.15.15 0 0 1 0-.255l8.737-5.405a.15.15 0 0 1 .229.127v10.81a.15.15 0 0 1-.229.127l-8.737-5.404Z" fill="#fff" stroke="#000" stroke-width="1.7"/></svg>