<svg width="326" height="188" viewBox="0 0 326 188" fill="none" xmlns="http://www.w3.org/2000/svg">
<path fill-rule="evenodd" clip-rule="evenodd" d="M59.644 187.993C59.9497 187.998 60.256 188 60.5627 188C60.8695 188 61.1757 187.998 61.4814 187.993H264.519C264.824 187.998 265.13 188 265.437 188C265.744 188 266.05 187.998 266.356 187.993H267.175V187.976C299.819 187.078 326 160.947 326 128.843C326 96.1711 298.885 69.6855 265.437 69.6855C261.767 69.6855 258.173 70.0044 254.683 70.6154C254.688 70.3063 254.69 69.9967 254.69 69.6864C254.69 37.0148 227.575 10.5292 194.128 10.5292C183.42 10.5292 173.362 13.2434 164.634 18.0058C153.625 6.90209 138.201 0 121.126 0C87.6779 0 60.563 26.4856 60.563 59.1573C60.563 62.753 60.8915 66.2739 61.5206 69.6928C61.2019 69.6879 60.8826 69.6855 60.5627 69.6855C27.1149 69.6855 0 96.1711 0 128.843C0 160.513 25.4778 186.37 57.5049 187.926V187.993H59.644Z" fill="white"/>
<rect x="85.669" y="118.908" width="39.1843" height="48.4724" rx="10" fill="white"/>
<rect x="85.669" y="118.908" width="39.1843" height="48.4724" rx="10" fill="#2D2D2D"/>
<path d="M93.5986 70.8677H99.6439H213.75C224.795 70.8677 233.75 79.822 233.75 90.8677V127.419C233.75 138.465 224.795 147.419 213.75 147.419H93.5986C82.5529 147.419 73.5986 138.465 73.5986 127.419V90.8677C73.5986 79.822 82.5529 70.8677 93.5986 70.8677Z" stroke="#2D2D2D" stroke-width="2"/>
<path fill-rule="evenodd" clip-rule="evenodd" d="M107.224 129.445C107.224 128.341 108.12 127.445 109.224 127.445H110.219C111.324 127.445 112.219 128.341 112.219 129.445V129.492C112.692 129.641 113.147 129.83 113.579 130.057L113.612 130.024C114.393 129.242 115.659 129.242 116.439 130.024L117.144 130.729C117.925 131.511 117.925 132.778 117.144 133.559L117.111 133.592C117.337 134.025 117.526 134.48 117.674 134.953H117.72C118.825 134.953 119.72 135.849 119.72 136.953V137.953C119.72 139.058 118.825 139.953 117.72 139.953H117.674C117.526 140.426 117.337 140.881 117.111 141.314L117.144 141.348C117.925 142.129 117.925 143.396 117.144 144.178L116.439 144.883C115.658 145.665 114.393 145.665 113.612 144.883L113.579 144.85C113.146 145.076 112.692 145.265 112.219 145.414V145.462C112.219 146.567 111.324 147.462 110.219 147.462H109.224C108.12 147.462 107.224 146.567 107.224 145.462V145.414C106.752 145.265 106.297 145.076 105.865 144.85L105.831 144.883C105.051 145.665 103.785 145.665 103.004 144.883L102.3 144.178C101.519 143.396 101.519 142.129 102.3 141.348L102.333 141.314C102.107 140.882 101.918 140.427 101.769 139.953H101.723C100.619 139.953 99.7235 139.058 99.7235 137.953L99.7235 136.953C99.7235 135.849 100.619 134.953 101.723 134.953H101.769C101.917 134.48 102.107 134.025 102.333 133.592L102.299 133.559C101.519 132.777 101.519 131.51 102.299 130.729L103.004 130.023C103.785 129.242 105.051 129.242 105.831 130.023L105.865 130.057C106.297 129.83 106.752 129.641 107.224 129.492V129.445Z" fill="white"/>
<ellipse cx="109.722" cy="137.463" rx="4.82472" ry="4.82965" fill="#2D2D2D"/>
<path fill-rule="evenodd" clip-rule="evenodd" d="M93.2764 152.284C93.2913 152.691 93.3449 153.093 93.4345 153.484C92.7433 154.078 92.5496 155.099 93.0218 155.918C93.4939 156.736 94.4735 157.078 95.3335 156.777C95.627 157.05 95.9476 157.297 96.2927 157.514C96.2233 158.424 96.8078 159.282 97.7206 159.527C98.6333 159.772 99.5684 159.321 99.9626 158.499C100.369 158.484 100.77 158.43 101.161 158.34C101.754 159.033 102.774 159.227 103.593 158.754C104.411 158.281 104.753 157.299 104.451 156.439C104.724 156.145 104.971 155.824 105.188 155.478C106.096 155.547 106.954 154.962 107.198 154.05C107.442 153.137 106.992 152.201 106.171 151.806C106.156 151.398 106.102 150.996 106.012 150.605C106.704 150.011 106.897 148.99 106.425 148.171C105.953 147.352 104.973 147.01 104.112 147.312C103.819 147.039 103.499 146.792 103.154 146.576C103.224 145.666 102.639 144.807 101.726 144.562C100.813 144.318 99.8781 144.769 99.4841 145.591C99.0772 145.606 98.6763 145.66 98.286 145.75C97.6925 145.057 96.6725 144.864 95.8542 145.337C95.0358 145.81 94.6935 146.791 94.9957 147.651C94.723 147.945 94.4761 148.266 94.2597 148.611C93.3508 148.542 92.493 149.127 92.2487 150.04C92.0043 150.953 92.4551 151.888 93.2764 152.284Z" fill="white"/>
<ellipse rx="3.73449" ry="3.73779" transform="matrix(0.96586 0.259066 -0.258572 0.965992 99.7216 152.051)" fill="#2D2D2D"/>
<rect x="75.6843" y="109.292" width="28.6109" height="28.6402" rx="14.3055" fill="#ED1C24"/>
<path d="M87.426 118.535C87.426 118.535 80.8678 122.532 87.0485 126.5C88.2375 127.272 92.5498 129.421 92.4272 131.41C92.4272 131.41 95.041 127.546 91.2193 125.114C87.2939 122.626 86.3125 119.968 87.426 118.535Z" fill="white"/>
<path d="M85.1423 126.169C85.1423 126.169 82.8022 129.713 87.407 130.439C87.8599 130.495 91.1909 130.844 92.059 131.937C92.059 131.937 91.9836 130.052 89.2659 128.94C86.5578 127.828 85.4443 127.555 85.1423 126.169Z" fill="white"/>
<path d="M94.2012 122.446C91.3892 119.506 90.606 117.687 91.8139 115.33C91.8139 115.33 83.4251 118.554 91.7101 124.275C94.673 126.32 94.1823 128.413 94.1823 128.488C94.6447 128.007 97.0132 125.387 94.2012 122.446Z" fill="white"/>
<rect x="182.812" y="118.908" width="39.1843" height="48.4724" rx="10" fill="white"/>
<rect x="182.812" y="118.908" width="39.1843" height="48.4724" rx="10" fill="#2D2D2D"/>
<rect x="172.827" y="109.292" width="28.6109" height="28.6402" rx="14.3055" fill="#ED1C24"/>
<path d="M184.569 118.535C184.569 118.535 178.011 122.532 184.191 126.5C185.38 127.272 189.693 129.421 189.57 131.41C189.57 131.41 192.184 127.546 188.362 125.114C184.437 122.626 183.455 119.968 184.569 118.535Z" fill="white"/>
<path d="M182.285 126.169C182.285 126.169 179.945 129.713 184.55 130.439C185.003 130.495 188.334 130.844 189.202 131.937C189.202 131.937 189.126 130.052 186.409 128.94C183.701 127.828 182.587 127.555 182.285 126.169Z" fill="white"/>
<path d="M191.344 122.446C188.532 119.506 187.749 117.687 188.957 115.33C188.957 115.33 180.568 118.554 188.853 124.275C191.816 126.32 191.325 128.413 191.325 128.488C191.788 128.007 194.156 125.387 191.344 122.446Z" fill="white"/>
<rect x="87.3621" y="45.5276" width="39.1843" height="48.4724" rx="10" fill="white"/>
<rect x="87.3621" y="45.5276" width="39.1843" height="48.4724" rx="10" fill="#2D2D2D"/>
<rect x="77.3774" y="35.9121" width="28.6109" height="28.6402" rx="14.3055" fill="#ED1C24"/>
<path d="M89.1191 45.1542C89.1191 45.1542 82.561 49.1505 88.7417 53.1185C89.9306 53.8914 94.243 56.0404 94.1203 58.0291C94.1203 58.0291 96.7341 54.1647 92.9125 51.733C88.987 49.2448 88.0056 46.5869 89.1191 45.1542Z" fill="white"/>
<path d="M86.8354 52.7881C86.8354 52.7881 84.4953 56.332 89.1001 57.0578C89.5531 57.1143 92.884 57.4631 93.7522 58.5564C93.7522 58.5564 93.6767 56.6713 90.9591 55.5592C88.2509 54.447 87.1374 54.1737 86.8354 52.7881Z" fill="white"/>
<path d="M95.8943 49.0653C93.0823 46.1247 92.2991 44.3056 93.507 41.9493C93.507 41.9493 85.1182 45.1727 93.4032 50.8938C96.3661 52.9391 95.8754 55.0315 95.8754 55.1069C96.3378 54.6262 98.7063 52.006 95.8943 49.0653Z" fill="white"/>
<rect x="182.812" y="45.5276" width="39.1843" height="48.4724" rx="10" fill="white"/>
<rect x="182.812" y="45.5276" width="39.1843" height="48.4724" rx="10" fill="#2D2D2D"/>
<rect x="172.827" y="35.9121" width="28.6109" height="28.6402" rx="14.3055" fill="#ED1C24"/>
<path d="M184.569 45.1542C184.569 45.1542 178.011 49.1505 184.192 53.1185C185.381 53.8914 189.693 56.0404 189.57 58.0291C189.57 58.0291 192.184 54.1647 188.362 51.733C184.437 49.2448 183.456 46.5869 184.569 45.1542Z" fill="white"/>
<path d="M182.285 52.7881C182.285 52.7881 179.945 56.332 184.55 57.0578C185.003 57.1143 188.334 57.4631 189.202 58.5564C189.202 58.5564 189.127 56.6713 186.409 55.5592C183.701 54.447 182.587 54.1737 182.285 52.7881Z" fill="white"/>
<path d="M191.344 49.0653C188.532 46.1247 187.749 44.3056 188.957 41.9493C188.957 41.9493 180.568 45.1727 188.853 50.8938C191.816 52.9391 191.325 55.0315 191.325 55.1069C191.788 54.6262 194.156 52.006 191.344 49.0653Z" fill="white"/>
</svg>
