<svg width="675" height="481" viewBox="0 0 675 481" fill="none" xmlns="http://www.w3.org/2000/svg">
<path d="M686.851 310.518C685.553 324.373 675.739 338.011 657.408 348.595C617.952 371.375 553.981 371.375 514.525 348.595L357.183 257.754C341.175 248.512 332.851 236.514 332.211 224.405L332.21 224.397C332.157 223.393 332.157 222.388 332.21 221.384L332.21 143.193L512.367 143.193L512.367 169.338C549.687 167.606 588.036 174.982 616.584 191.464C635.251 202.241 647.174 215.438 652.353 229.306L686.924 229.306V305.085C687.025 306.593 687.025 308.103 686.924 309.611V310.518H686.851Z" fill="#0070CC" stroke="white"/>
<path d="M357.183 180.318C323.833 161.064 323.833 129.846 357.183 110.592C384.254 94.9624 424.978 92.0198 457.189 101.764C507.745 84.9996 573.385 89.088 616.584 114.029C650.234 133.456 661.969 160.745 651.789 185.656C653.711 186.611 655.586 187.614 657.408 188.666C696.864 211.446 696.864 248.38 657.408 271.16C617.952 293.94 553.981 293.94 514.525 271.16L429.524 222.085C429.508 222.075 429.491 222.066 429.475 222.056C429.459 222.047 429.443 222.038 429.426 222.028L357.183 180.318Z" fill="#0070CC" stroke="white"/>
<path d="M686.851 219.862C685.553 233.717 675.739 247.356 657.408 257.939C617.952 280.719 553.981 280.719 514.525 257.939L357.183 167.098C341.175 157.856 332.851 145.858 332.211 133.75L332.21 133.742C332.157 132.737 332.157 131.732 332.21 130.728L332.21 52.5374L512.367 52.5374L512.367 78.6824C549.687 76.9508 588.036 84.3263 616.584 100.809C635.251 111.586 647.174 124.782 652.353 138.65L686.924 138.65V214.429C687.025 215.938 687.025 217.448 686.924 218.956V219.862H686.851Z" fill="#0070CC" stroke="white"/>
<mask id="path-4-inside-1_1:408" fill="white">
<path fill-rule="evenodd" clip-rule="evenodd" d="M357.868 139.977C363.288 143.106 367.682 140.569 367.682 134.311C367.682 128.052 363.288 120.442 357.868 117.313C352.448 114.184 348.054 116.72 348.054 122.979C348.054 129.237 352.448 136.847 357.868 139.977ZM384.309 155.086C389.729 158.215 394.123 155.678 394.123 149.42C394.123 143.162 389.729 135.551 384.309 132.422C378.889 129.293 374.495 131.83 374.495 138.088C374.495 144.346 378.889 151.957 384.309 155.086Z"/>
</mask>
<path fill-rule="evenodd" clip-rule="evenodd" d="M357.868 139.977C363.288 143.106 367.682 140.569 367.682 134.311C367.682 128.052 363.288 120.442 357.868 117.313C352.448 114.184 348.054 116.72 348.054 122.979C348.054 129.237 352.448 136.847 357.868 139.977ZM384.309 155.086C389.729 158.215 394.123 155.678 394.123 149.42C394.123 143.162 389.729 135.551 384.309 132.422C378.889 129.293 374.495 131.83 374.495 138.088C374.495 144.346 378.889 151.957 384.309 155.086Z" fill="#0070CC"/>
<path d="M367.682 134.311H368.682H367.682ZM357.868 139.977L357.368 140.843H357.368L357.868 139.977ZM357.868 117.313L358.368 116.447V116.447L357.868 117.313ZM348.054 122.979H347.054H348.054ZM384.309 155.086L383.809 155.952L384.309 155.086ZM384.309 132.422L383.809 133.288H383.809L384.309 132.422ZM366.682 134.311C366.682 137.23 365.665 139.014 364.307 139.798C362.95 140.582 360.896 140.57 358.368 139.111L357.368 140.843C360.26 142.512 363.113 142.797 365.307 141.53C367.502 140.263 368.682 137.65 368.682 134.311H366.682ZM357.368 118.179C359.89 119.635 362.23 122.174 363.941 125.138C365.653 128.103 366.682 131.398 366.682 134.311H368.682C368.682 130.965 367.514 127.326 365.673 124.138C363.833 120.95 361.266 118.12 358.368 116.447L357.368 118.179ZM349.054 122.979C349.054 120.06 350.071 118.275 351.428 117.491C352.786 116.708 354.84 116.719 357.368 118.179L358.368 116.447C355.476 114.777 352.623 114.492 350.428 115.759C348.234 117.026 347.054 119.639 347.054 122.979H349.054ZM358.368 139.111C355.846 137.654 353.506 135.115 351.794 132.151C350.083 129.187 349.054 125.891 349.054 122.979H347.054C347.054 126.325 348.222 129.963 350.062 133.151C351.903 136.339 354.47 139.17 357.368 140.843L358.368 139.111ZM393.123 149.42C393.123 152.339 392.106 154.124 390.748 154.907C389.391 155.691 387.337 155.679 384.809 154.22L383.809 155.952C386.701 157.622 389.554 157.906 391.748 156.639C393.943 155.372 395.123 152.76 395.123 149.42H393.123ZM383.809 133.288C386.331 134.744 388.671 137.283 390.382 140.248C392.094 143.212 393.123 146.508 393.123 149.42H395.123C395.123 146.074 393.955 142.435 392.115 139.248C390.274 136.06 387.707 133.229 384.809 131.556L383.809 133.288ZM375.495 138.088C375.495 135.169 376.512 133.384 377.87 132.601C379.227 131.817 381.281 131.829 383.809 133.288L384.809 131.556C381.917 129.886 379.064 129.602 376.87 130.869C374.675 132.136 373.495 134.748 373.495 138.088H375.495ZM384.809 154.22C382.287 152.764 379.947 150.225 378.236 147.26C376.524 144.296 375.495 141 375.495 138.088H373.495C373.495 141.434 374.663 145.073 376.504 148.26C378.344 151.448 380.911 154.279 383.809 155.952L384.809 154.22Z" fill="white" mask="url(#path-4-inside-1_1:408)"/>
<path d="M357.183 89.6627C323.833 70.4082 323.833 39.1905 357.183 19.936C384.254 4.30665 424.978 1.364 457.189 11.108C507.746 -5.65615 573.385 -1.56775 616.584 23.3732C650.234 42.8007 661.969 70.0894 651.79 95C653.711 95.9548 655.586 96.9583 657.408 98.0103C696.864 120.79 696.864 157.724 657.408 180.504C617.952 203.284 553.981 203.284 514.525 180.504L429.524 131.429C429.508 131.419 429.492 131.41 429.475 131.401C429.459 131.391 429.443 131.382 429.426 131.372L357.183 89.6627Z" fill="#0070CC" stroke="white"/>
<path d="M770.681 567.518C769.383 581.373 759.568 595.011 741.237 605.595C701.781 628.375 637.81 628.375 598.354 605.595L441.012 514.754C425.005 505.512 416.681 493.514 416.04 481.405L416.04 481.397C415.987 480.393 415.987 479.388 416.04 478.384L416.04 400.193L596.197 400.193L596.197 426.338C633.516 424.606 671.865 431.982 700.413 448.464C719.08 459.241 731.003 472.438 736.182 486.306L770.754 486.306V562.085C770.854 563.593 770.854 565.103 770.754 566.611V567.518H770.681Z" fill="#0070CC" stroke="white"/>
<path d="M441.012 437.318C407.663 418.064 407.663 386.846 441.012 367.592C468.083 351.962 508.807 349.02 541.019 358.764C591.575 342 657.214 346.088 700.413 371.029C734.063 390.456 745.798 417.745 735.619 442.656C737.541 443.611 739.415 444.614 741.237 445.666C780.693 468.446 780.693 505.38 741.237 528.16C701.781 550.94 637.81 550.94 598.354 528.16L513.353 479.085C513.337 479.075 513.321 479.066 513.305 479.056C513.288 479.047 513.272 479.038 513.256 479.028L441.012 437.318Z" fill="#0070CC" stroke="white"/>
<path d="M770.681 476.862C769.383 490.717 759.568 504.356 741.237 514.939C701.781 537.719 637.81 537.719 598.354 514.939L441.012 424.098C425.005 414.856 416.681 402.858 416.04 390.75L416.04 390.742C415.987 389.737 415.987 388.732 416.04 387.728L416.04 309.537L596.197 309.537L596.197 335.682C633.516 333.951 671.865 341.326 700.413 357.809C719.08 368.586 731.003 381.782 736.182 395.65L770.754 395.65V471.429C770.854 472.938 770.854 474.448 770.754 475.956V476.862H770.681Z" fill="#0070CC" stroke="white"/>
<mask id="path-10-inside-2_1:408" fill="white">
<path fill-rule="evenodd" clip-rule="evenodd" d="M441.697 396.977C447.117 400.106 451.511 397.569 451.511 391.311C451.511 385.052 447.117 377.442 441.697 374.313C436.277 371.184 431.883 373.72 431.883 379.979C431.883 386.237 436.277 393.847 441.697 396.977ZM468.138 412.086C473.558 415.215 477.952 412.678 477.952 406.42C477.952 400.162 473.558 392.551 468.138 389.422C462.718 386.293 458.325 388.83 458.325 395.088C458.325 401.346 462.718 408.957 468.138 412.086Z"/>
</mask>
<path fill-rule="evenodd" clip-rule="evenodd" d="M441.697 396.977C447.117 400.106 451.511 397.569 451.511 391.311C451.511 385.052 447.117 377.442 441.697 374.313C436.277 371.184 431.883 373.72 431.883 379.979C431.883 386.237 436.277 393.847 441.697 396.977ZM468.138 412.086C473.558 415.215 477.952 412.678 477.952 406.42C477.952 400.162 473.558 392.551 468.138 389.422C462.718 386.293 458.325 388.83 458.325 395.088C458.325 401.346 462.718 408.957 468.138 412.086Z" fill="#0070CC"/>
<path d="M451.511 391.311H452.511H451.511ZM441.697 396.977L441.197 397.843H441.197L441.697 396.977ZM441.697 374.313L442.197 373.447V373.447L441.697 374.313ZM431.883 379.979H430.883H431.883ZM468.138 412.086L467.638 412.952L468.138 412.086ZM468.138 389.422L467.638 390.288H467.638L468.138 389.422ZM450.511 391.311C450.511 394.23 449.494 396.014 448.137 396.798C446.779 397.582 444.725 397.57 442.197 396.111L441.197 397.843C444.089 399.512 446.942 399.797 449.137 398.53C451.331 397.263 452.511 394.65 452.511 391.311H450.511ZM441.197 375.179C443.719 376.635 446.059 379.174 447.771 382.138C449.482 385.103 450.511 388.398 450.511 391.311H452.511C452.511 387.965 451.343 384.326 449.503 381.138C447.662 377.95 445.095 375.12 442.197 373.447L441.197 375.179ZM432.883 379.979C432.883 377.06 433.9 375.275 435.258 374.491C436.615 373.708 438.669 373.719 441.197 375.179L442.197 373.447C439.305 371.777 436.452 371.492 434.258 372.759C432.063 374.026 430.883 376.639 430.883 379.979H432.883ZM442.197 396.111C439.675 394.654 437.335 392.115 435.624 389.151C433.912 386.187 432.883 382.891 432.883 379.979H430.883C430.883 383.325 432.051 386.963 433.892 390.151C435.732 393.339 438.299 396.17 441.197 397.843L442.197 396.111ZM476.952 406.42C476.952 409.339 475.935 411.124 474.578 411.907C473.22 412.691 471.166 412.679 468.638 411.22L467.638 412.952C470.531 414.622 473.383 414.906 475.578 413.639C477.772 412.372 478.952 409.76 478.952 406.42H476.952ZM467.638 390.288C470.161 391.744 472.5 394.283 474.212 397.248C475.923 400.212 476.952 403.508 476.952 406.42H478.952C478.952 403.074 477.784 399.435 475.944 396.248C474.103 393.06 471.536 390.229 468.638 388.556L467.638 390.288ZM459.325 395.088C459.325 392.169 460.342 390.384 461.699 389.601C463.057 388.817 465.111 388.829 467.638 390.288L468.638 388.556C465.746 386.886 462.893 386.602 460.699 387.869C458.505 389.136 457.325 391.748 457.325 395.088H459.325ZM468.638 411.22C466.116 409.764 463.777 407.225 462.065 404.26C460.354 401.296 459.325 398 459.325 395.088H457.325C457.325 398.434 458.493 402.073 460.333 405.26C462.174 408.448 464.741 411.279 467.638 412.952L468.638 411.22Z" fill="white" mask="url(#path-10-inside-2_1:408)"/>
<path d="M441.013 346.663C407.663 327.408 407.663 296.19 441.013 276.936C468.083 261.307 508.807 258.364 541.019 268.108C591.575 251.344 657.215 255.432 700.414 280.373C734.063 299.801 745.798 327.089 735.619 352C737.541 352.955 739.415 353.958 741.237 355.01C780.694 377.79 780.694 414.724 741.237 437.504C701.781 460.284 637.81 460.284 598.354 437.504L513.354 388.429C513.337 388.419 513.321 388.41 513.305 388.401C513.288 388.391 513.272 388.382 513.256 388.372L441.013 346.663Z" fill="#0070CC" stroke="white"/>
<path d="M355.681 439.322C354.383 453.177 344.568 466.816 326.237 477.399C286.781 500.179 222.81 500.179 183.354 477.399L26.0123 386.558C10.0048 377.316 1.68073 365.318 1.04006 353.21L1.03964 353.202C0.986781 352.197 0.986794 351.192 1.03964 350.188L1.03963 271.997L181.197 271.997L181.197 298.142C218.516 296.411 256.865 303.786 285.413 320.269C304.08 331.046 316.003 344.242 321.182 358.11L355.754 358.11V433.889C355.854 435.398 355.854 436.908 355.754 438.416V439.322H355.681Z" fill="#0070CC" stroke="white"/>
<path d="M26.0125 309.123C-7.33732 289.868 -7.33731 258.651 26.0125 239.396C53.0833 223.767 93.8069 220.824 126.019 230.568C176.575 213.804 242.214 217.892 285.413 242.833C319.063 262.261 330.798 289.55 320.619 314.46C322.541 315.415 324.415 316.418 326.237 317.47C365.693 340.25 365.693 377.184 326.237 399.964C286.781 422.744 222.81 422.744 183.354 399.964L98.3534 350.889C98.3371 350.88 98.3208 350.87 98.3046 350.861C98.2883 350.851 98.272 350.842 98.2557 350.833L26.0125 309.123Z" fill="#0070CC" stroke="white"/>
<path d="M355.681 348.667C354.383 362.522 344.568 376.16 326.237 386.744C286.781 409.524 222.81 409.524 183.354 386.744L26.0123 295.903C10.0048 286.661 1.68073 274.663 1.04006 262.554L1.03964 262.546C0.986781 261.542 0.986794 260.537 1.03964 259.533L1.03963 181.342L181.197 181.342L181.197 207.487C218.516 205.755 256.865 213.131 285.413 229.613C304.08 240.39 316.003 253.587 321.182 267.455L355.754 267.455V343.234C355.854 344.742 355.854 346.252 355.754 347.76V348.667H355.681Z" fill="#0070CC" stroke="white"/>
<mask id="path-16-inside-3_1:408" fill="white">
<path fill-rule="evenodd" clip-rule="evenodd" d="M26.6972 268.781C32.1171 271.91 36.5109 269.374 36.5109 263.115C36.5109 256.857 32.1171 249.246 26.6972 246.117C21.2772 242.988 16.8834 245.525 16.8834 251.783C16.8834 258.042 21.2772 265.652 26.6972 268.781ZM53.1384 283.89C58.5584 287.02 62.9522 284.483 62.9522 278.224C62.9522 271.966 58.5584 264.356 53.1384 261.226C47.7184 258.097 43.3247 260.634 43.3247 266.892C43.3247 273.151 47.7184 280.761 53.1384 283.89Z"/>
</mask>
<path fill-rule="evenodd" clip-rule="evenodd" d="M26.6972 268.781C32.1171 271.91 36.5109 269.374 36.5109 263.115C36.5109 256.857 32.1171 249.246 26.6972 246.117C21.2772 242.988 16.8834 245.525 16.8834 251.783C16.8834 258.042 21.2772 265.652 26.6972 268.781ZM53.1384 283.89C58.5584 287.02 62.9522 284.483 62.9522 278.224C62.9522 271.966 58.5584 264.356 53.1384 261.226C47.7184 258.097 43.3247 260.634 43.3247 266.892C43.3247 273.151 47.7184 280.761 53.1384 283.89Z" fill="#0070CC"/>
<path d="M26.6972 246.117L27.1972 245.251V245.251L26.6972 246.117ZM53.1384 283.89L52.6384 284.756L53.1384 283.89ZM53.1384 261.226L52.6384 262.093L53.1384 261.226ZM35.5109 263.115C35.5109 266.034 34.494 267.819 33.1365 268.602C31.779 269.386 29.725 269.374 27.1972 267.915L26.1972 269.647C29.0893 271.317 31.9421 271.601 34.1365 270.335C36.3309 269.068 37.5109 266.455 37.5109 263.115H35.5109ZM26.1972 246.983C28.7194 248.439 31.0591 250.978 32.7705 253.943C34.4819 256.907 35.5109 260.203 35.5109 263.115H37.5109C37.5109 259.769 36.343 256.13 34.5026 252.943C32.6621 249.755 30.0949 246.924 27.1972 245.251L26.1972 246.983ZM17.8834 251.783C17.8834 248.864 18.9003 247.08 20.2578 246.296C21.6153 245.512 23.6693 245.524 26.1972 246.983L27.1972 245.251C24.305 243.581 21.4522 243.297 19.2578 244.564C17.0634 245.831 15.8834 248.444 15.8834 251.783H17.8834ZM27.1972 267.915C24.6749 266.459 22.3352 263.92 20.6238 260.956C18.9124 257.991 17.8834 254.696 17.8834 251.783H15.8834C15.8834 255.129 17.0513 258.768 18.8918 261.956C20.7322 265.143 23.2994 267.974 26.1972 269.647L27.1972 267.915ZM61.9522 278.224C61.9522 281.143 60.9353 282.928 59.5778 283.712C58.2203 284.496 56.1662 284.484 53.6384 283.024L52.6384 284.756C55.5306 286.426 58.3834 286.711 60.5778 285.444C62.7722 284.177 63.9522 281.564 63.9522 278.224H61.9522ZM52.6384 262.093C55.1606 263.549 57.5004 266.088 59.2118 269.052C60.9232 272.016 61.9522 275.312 61.9522 278.224H63.9522C63.9522 274.878 62.7843 271.24 60.9438 268.052C59.1034 264.864 56.5362 262.033 53.6384 260.36L52.6384 262.093ZM44.3247 266.892C44.3247 263.974 45.3416 262.189 46.6991 261.405C48.0565 260.621 50.1106 260.633 52.6384 262.093L53.6384 260.36C50.7463 258.691 47.8935 258.406 45.6991 259.673C43.5047 260.94 42.3247 263.553 42.3247 266.892H44.3247ZM53.6384 283.024C51.1162 281.568 48.7765 279.029 47.0651 276.065C45.3536 273.101 44.3247 269.805 44.3247 266.892H42.3247C42.3247 270.239 43.4926 273.877 45.333 277.065C47.1735 280.253 49.7406 283.083 52.6384 284.756L53.6384 283.024Z" fill="white" mask="url(#path-16-inside-3_1:408)"/>
<path d="M26.0126 218.467C-7.33722 199.213 -7.33722 167.995 26.0126 148.74C53.0834 133.111 93.807 130.168 126.019 139.912C176.575 123.148 242.215 127.237 285.414 152.178C319.063 171.605 330.798 198.894 320.619 223.804C322.541 224.759 324.415 225.763 326.237 226.815C365.693 249.595 365.693 286.528 326.237 309.308C286.781 332.088 222.81 332.088 183.354 309.308L98.3535 260.233C98.3372 260.224 98.3209 260.214 98.3046 260.205C98.2884 260.196 98.2721 260.186 98.2558 260.177L26.0126 218.467Z" fill="#0070CC" stroke="white"/>
</svg>
