<svg width="314" height="181" viewBox="0 0 314 181" fill="none" xmlns="http://www.w3.org/2000/svg">
<path fill-rule="evenodd" clip-rule="evenodd" d="M57.4514 180.994C57.7449 180.998 58.0389 181 58.3334 181C58.6279 181 58.922 180.998 59.2154 180.994H254.785C255.078 180.998 255.372 181 255.667 181C255.961 181 256.255 180.998 256.549 180.994H257.34V180.977C288.783 180.112 314 154.954 314 124.045C314 92.5902 287.883 67.0908 255.667 67.0908C252.132 67.0908 248.67 67.3978 245.308 67.986C245.313 67.6885 245.315 67.3904 245.315 67.0918C245.315 35.6366 219.198 10.1372 186.982 10.1372C176.669 10.1372 166.98 12.7503 158.574 17.3354C147.97 6.6451 133.113 0 116.667 0C84.4505 0 58.3337 25.4994 58.3337 56.9546C58.3337 60.4165 58.6501 63.8062 59.2561 67.0978C58.9491 67.0931 58.6415 67.0908 58.3334 67.0908C26.1168 67.0908 0 92.5902 0 124.045C0 154.536 24.54 179.431 55.3882 180.929V180.994H57.4514Z" fill="white"/>
<rect x="82.8042" y="114.845" width="37.7128" height="45.9379" rx="10" fill="white"/>
<rect x="82.8042" y="114.845" width="37.7128" height="45.9379" rx="10" fill="#2D2D2D"/>
<path d="M90.5065 68.0866H95.7061H205.457C216.503 68.0866 225.457 77.0409 225.457 88.0866V121.915C225.457 132.961 216.503 141.915 205.457 141.915H90.5065C79.4608 141.915 70.5065 132.961 70.5065 121.915V88.0866C70.5065 77.0409 79.4608 68.0866 90.5065 68.0866Z" stroke="#2D2D2D" stroke-width="2"/>
<path fill-rule="evenodd" clip-rule="evenodd" d="M98.0239 134.742C98.1662 135.196 98.3476 135.632 98.5642 136.047C97.8017 136.83 97.8078 138.082 98.5827 138.857L99.157 139.431C99.9307 140.205 101.18 140.212 101.963 139.453C102.381 139.672 102.821 139.856 103.278 139.999C103.293 141.091 104.182 141.971 105.277 141.971H106.088C107.183 141.971 108.073 141.091 108.088 140C108.544 139.857 108.982 139.674 109.398 139.456C110.181 140.217 111.431 140.211 112.205 139.436L112.78 138.862C113.553 138.087 113.56 136.836 112.8 136.053C113.018 135.636 113.201 135.198 113.344 134.742C114.434 134.726 115.313 133.837 115.313 132.742V131.928C115.313 130.834 114.434 129.945 113.344 129.929C113.201 129.472 113.018 129.034 112.8 128.616C113.561 127.834 113.555 126.583 112.78 125.808L112.206 125.234C111.432 124.459 110.18 124.453 109.398 125.214C108.981 124.996 108.544 124.813 108.088 124.67C108.072 123.579 107.183 122.7 106.088 122.7H105.277C104.183 122.7 103.293 123.58 103.278 124.671C102.822 124.814 102.384 124.997 101.968 125.215C101.186 124.453 99.9345 124.46 99.1604 125.234L98.5862 125.809C97.8119 126.584 97.8054 127.836 98.5667 128.618C98.3489 129.035 98.1666 129.473 98.0238 129.929C96.9325 129.944 96.0527 130.834 96.0527 131.928L96.0527 132.742C96.0527 133.837 96.9326 134.727 98.0239 134.742Z" fill="white"/>
<ellipse cx="105.683" cy="132.344" rx="4.64712" ry="4.64982" fill="#2D2D2D"/>
<path fill-rule="evenodd" clip-rule="evenodd" d="M89.8423 146.613C89.8567 147.006 89.9083 147.392 89.9947 147.769C89.3293 148.342 89.143 149.324 89.5977 150.112C90.0525 150.9 90.9961 151.23 91.8244 150.939C92.1065 151.202 92.4147 151.439 92.7464 151.648C92.6796 152.523 93.2424 153.35 94.1215 153.586C95.0004 153.821 95.9009 153.387 96.281 152.595C96.6731 152.581 97.0595 152.529 97.4356 152.443C98.0072 153.111 98.9906 153.298 99.7794 152.843C100.568 152.387 100.898 151.441 100.606 150.612C100.868 150.33 101.106 150.021 101.314 149.689C102.19 149.756 103.017 149.193 103.252 148.314C103.488 147.435 103.054 146.534 102.263 146.153C102.249 145.761 102.197 145.374 102.111 144.997C102.776 144.424 102.962 143.442 102.508 142.654C102.053 141.866 101.11 141.536 100.282 141.826C99.9988 141.563 99.6896 141.325 99.3569 141.116C99.4235 140.241 98.8608 139.414 97.9818 139.179C97.1026 138.943 96.2017 139.378 95.8219 140.17C95.43 140.184 95.0438 140.236 94.6677 140.322C94.0959 139.656 93.1138 139.47 92.3258 139.925C91.5377 140.38 91.2081 141.325 91.4989 142.153C91.2362 142.436 90.9984 142.745 90.7899 143.077C89.9146 143.011 89.0884 143.574 88.8531 144.453C88.6177 145.332 89.0517 146.232 89.8423 146.613Z" fill="white"/>
<ellipse rx="3.59691" ry="3.59873" transform="matrix(0.965888 0.25896 -0.258679 0.965963 96.0509 146.39)" fill="#2D2D2D"/>
<rect x="72.8983" y="105.223" width="27.5577" height="27.5738" rx="13.7789" fill="#ED1C24"/>
<path d="M84.2078 114.122C84.2078 114.122 77.8911 117.969 83.8442 121.79C84.9894 122.534 89.143 124.603 89.0249 126.517C89.0249 126.517 91.5425 122.797 87.8615 120.456C84.0806 118.06 83.1353 115.501 84.2078 114.122Z" fill="white"/>
<path d="M82.0082 121.471C82.0082 121.471 79.7542 124.883 84.1895 125.582C84.6258 125.636 87.8342 125.972 88.6703 127.025C88.6703 127.025 88.5976 125.21 85.98 124.139C83.3715 123.068 82.2991 122.805 82.0082 121.471Z" fill="white"/>
<path d="M90.7336 117.887C88.0252 115.056 87.2708 113.305 88.4342 111.036C88.4342 111.036 80.3542 114.139 88.3342 119.648C91.1881 121.617 90.7155 123.631 90.7155 123.704C91.1608 123.241 93.4421 120.718 90.7336 117.887Z" fill="white"/>
<rect x="176.082" y="114.481" width="37.742" height="46.6676" rx="10" fill="white"/>
<rect x="176.082" y="114.481" width="37.742" height="46.6676" rx="10" fill="#2D2D2D"/>
<path fill-rule="evenodd" clip-rule="evenodd" d="M191.591 134.742C191.733 135.196 191.915 135.632 192.131 136.047C191.369 136.83 191.375 138.082 192.15 138.857L192.724 139.431C193.498 140.205 194.747 140.212 195.53 139.453C195.948 139.672 196.387 139.856 196.845 139.999C196.859 141.091 197.749 141.971 198.844 141.971H199.655C200.75 141.971 201.64 141.091 201.655 140C202.111 139.857 202.549 139.674 202.965 139.456C203.748 140.217 204.998 140.211 205.772 139.436L206.347 138.862C207.12 138.087 207.127 136.836 206.367 136.053C206.585 135.636 206.768 135.198 206.911 134.742C208.001 134.726 208.88 133.837 208.88 132.742V131.929C208.88 130.834 208.001 129.945 206.911 129.929C206.768 129.472 206.585 129.034 206.367 128.616C207.128 127.834 207.122 126.582 206.347 125.808L205.773 125.234C204.998 124.459 203.747 124.453 202.965 125.214C202.548 124.996 202.11 124.813 201.655 124.67C201.639 123.579 200.75 122.7 199.655 122.7H198.844C197.749 122.7 196.86 123.58 196.845 124.671C196.389 124.814 195.951 124.997 195.535 125.215C194.753 124.453 193.502 124.46 192.727 125.234L192.153 125.809C191.379 126.584 191.372 127.836 192.134 128.618C191.916 129.035 191.734 129.473 191.591 129.929C190.5 129.944 189.62 130.834 189.62 131.929L189.62 132.742C189.62 133.837 190.5 134.727 191.591 134.742Z" fill="white"/>
<ellipse cx="199.25" cy="132.344" rx="4.64712" ry="4.64982" fill="#2D2D2D"/>
<path fill-rule="evenodd" clip-rule="evenodd" d="M183.409 146.613C183.424 147.006 183.475 147.393 183.562 147.769C182.896 148.342 182.71 149.324 183.165 150.112C183.62 150.9 184.563 151.23 185.391 150.94C185.674 151.202 185.982 151.44 186.313 151.648C186.247 152.523 186.809 153.35 187.689 153.586C188.567 153.821 189.468 153.387 189.848 152.596C190.24 152.581 190.626 152.53 191.003 152.443C191.574 153.111 192.558 153.298 193.346 152.843C194.135 152.387 194.465 151.442 194.173 150.612C194.435 150.33 194.673 150.021 194.881 149.689C195.757 149.756 196.584 149.193 196.819 148.314C197.055 147.435 196.621 146.534 195.83 146.154C195.816 145.761 195.764 145.374 195.678 144.997C196.343 144.425 196.529 143.442 196.075 142.654C195.62 141.866 194.677 141.537 193.849 141.827C193.566 141.563 193.257 141.325 192.924 141.116C192.991 140.241 192.428 139.414 191.549 139.179C190.67 138.943 189.769 139.378 189.389 140.17C188.997 140.184 188.611 140.236 188.235 140.323C187.663 139.657 186.681 139.47 185.893 139.925C185.105 140.381 184.775 141.325 185.066 142.154C184.803 142.436 184.565 142.745 184.357 143.077C183.482 143.011 182.655 143.574 182.42 144.453C182.185 145.332 182.619 146.232 183.409 146.613Z" fill="white"/>
<ellipse rx="3.59691" ry="3.59873" transform="matrix(0.965888 0.25896 -0.258679 0.965963 189.618 146.39)" fill="#2D2D2D"/>
<rect x="166.465" y="105.223" width="27.5577" height="27.5738" rx="13.7789" fill="#ED1C24"/>
<path d="M177.775 114.122C177.775 114.122 171.458 117.969 177.411 121.79C178.556 122.534 182.71 124.603 182.592 126.517C182.592 126.517 185.11 122.797 181.429 120.456C177.648 118.06 176.702 115.501 177.775 114.122Z" fill="white"/>
<path d="M175.575 121.471C175.575 121.471 173.321 124.883 177.757 125.582C178.193 125.637 181.401 125.972 182.237 127.025C182.237 127.025 182.165 125.21 179.547 124.139C176.939 123.069 175.866 122.805 175.575 121.471Z" fill="white"/>
<path d="M184.301 117.887C181.592 115.056 180.838 113.305 182.001 111.036C182.001 111.036 173.921 114.14 181.901 119.648C184.755 121.617 184.282 123.631 184.282 123.704C184.728 123.241 187.009 120.718 184.301 117.887Z" fill="white"/>
<rect x="84.1463" y="43.8325" width="37.742" height="46.6676" rx="10" fill="white"/>
<rect x="84.1463" y="43.8325" width="37.742" height="46.6676" rx="10" fill="#2D2D2D"/>
<path fill-rule="evenodd" clip-rule="evenodd" d="M99.6547 64.0932C99.797 64.5469 99.9784 64.9833 100.195 65.3984C99.4324 66.1808 99.4385 67.4333 100.213 68.2081L100.788 68.7825C101.561 69.5562 102.811 69.5635 103.594 68.8044C104.012 69.0236 104.451 69.2069 104.908 69.3505C104.923 70.4422 105.813 71.3227 106.908 71.3227H107.719C108.814 71.3227 109.704 70.4426 109.719 69.3511C110.174 69.2081 110.613 69.0257 111.029 68.8077C111.811 69.5686 113.062 69.5618 113.836 68.7874L114.41 68.2128C115.184 67.4385 115.191 66.1874 114.431 65.4046C114.649 64.9876 114.831 64.5492 114.974 64.0932C116.065 64.0768 116.944 63.1878 116.944 62.0934V61.2797C116.944 60.1854 116.065 59.2964 114.975 59.28C114.832 58.8237 114.649 58.3849 114.431 57.9677C115.192 57.1852 115.185 55.9337 114.411 55.1593L113.837 54.585C113.062 53.8107 111.811 53.804 111.029 54.5648C110.612 54.3469 110.174 54.1646 109.719 54.0217C109.703 52.9307 108.814 52.0511 107.719 52.0511H106.908C105.813 52.0511 104.924 52.931 104.908 54.0223C104.453 54.1653 104.015 54.3478 103.599 54.5659C102.816 53.8045 101.565 53.8111 100.791 54.5857L100.217 55.1603C99.4427 55.935 99.4362 57.187 100.197 57.9697C99.9797 58.3863 99.7974 58.8244 99.6546 59.28C98.5633 59.2954 97.6834 60.1848 97.6834 61.2797L97.6834 62.0934C97.6834 63.1884 98.5634 64.0779 99.6547 64.0932Z" fill="white"/>
<ellipse cx="107.314" cy="61.6955" rx="4.64712" ry="4.64982" fill="#2D2D2D"/>
<path fill-rule="evenodd" clip-rule="evenodd" d="M91.4731 75.9643C91.4875 76.3568 91.5391 76.7436 91.6255 77.1202C90.9601 77.6927 90.7738 78.6751 91.2285 79.4631C91.6832 80.2513 92.6269 80.581 93.4552 80.2905C93.7373 80.5529 94.0455 80.7906 94.3772 80.9988C94.3104 81.8744 94.8732 82.7012 95.7523 82.9368C96.6311 83.1723 97.5317 82.7379 97.9118 81.9466C98.3039 81.9322 98.6902 81.8805 99.0664 81.7942C99.638 82.462 100.621 82.6494 101.41 82.1937C102.199 81.7381 102.528 80.7925 102.236 79.9634C102.499 79.681 102.737 79.3724 102.945 79.0403C103.821 79.1069 104.648 78.544 104.883 77.6647C105.118 76.7859 104.684 75.8854 103.894 75.5045C103.879 75.1119 103.828 74.7249 103.742 74.3481C104.407 73.7756 104.593 72.7933 104.138 72.0052C103.684 71.2173 102.741 70.8875 101.912 71.1776C101.63 70.9144 101.32 70.6761 100.988 70.4674C101.054 69.5919 100.492 68.7653 99.6126 68.5297C98.7334 68.2942 97.8325 68.729 97.4527 69.5208C97.0608 69.5354 96.6746 69.5872 96.2985 69.6736C95.7267 69.0075 94.7446 68.821 93.9566 69.2762C93.1685 69.7315 92.8388 70.676 93.1297 71.5047C92.867 71.7873 92.6292 72.0961 92.4207 72.4284C91.5454 72.3624 90.7192 72.9252 90.4838 73.8042C90.2485 74.6829 90.6825 75.5835 91.4731 75.9643Z" fill="white"/>
<ellipse rx="3.59691" ry="3.59873" transform="matrix(0.965888 0.25896 -0.258679 0.965963 97.6817 75.7413)" fill="#2D2D2D"/>
<rect x="74.5291" y="34.575" width="27.5577" height="27.5738" rx="13.7789" fill="#ED1C24"/>
<path d="M85.8387 43.473C85.8387 43.473 79.5219 47.3205 85.4751 51.1408C86.6203 51.8849 90.7739 53.9538 90.6557 55.8685C90.6557 55.8685 93.1734 52.148 89.4924 49.8069C85.7114 47.4113 84.7662 44.8523 85.8387 43.473Z" fill="white"/>
<path d="M83.6391 50.8227C83.6391 50.8227 81.385 54.2346 85.8204 54.9333C86.2566 54.9878 89.465 55.3235 90.3012 56.3761C90.3012 56.3761 90.2285 54.5613 87.6109 53.4905C85.0024 52.4197 83.9299 52.1566 83.6391 50.8227Z" fill="white"/>
<path d="M92.3645 47.2384C89.656 44.4072 88.9016 42.6559 90.065 40.3873C90.065 40.3873 81.985 43.4907 89.965 48.9988C92.8189 50.9679 92.3463 52.9824 92.3463 53.055C92.7917 52.5922 95.0729 50.0696 92.3645 47.2384Z" fill="white"/>
<rect x="176.083" y="43.8325" width="37.742" height="46.6676" rx="10" fill="white"/>
<rect x="176.083" y="43.8325" width="37.742" height="46.6676" rx="10" fill="#2D2D2D"/>
<path fill-rule="evenodd" clip-rule="evenodd" d="M191.591 64.0932C191.733 64.5469 191.915 64.9833 192.131 65.3984C191.369 66.1808 191.375 67.4333 192.15 68.2081L192.724 68.7825C193.498 69.5562 194.748 69.5635 195.53 68.8044C195.948 69.0236 196.388 69.2069 196.845 69.3505C196.86 70.4422 197.749 71.3227 198.845 71.3227H199.656C200.751 71.3227 201.64 70.4426 201.655 69.3511C202.111 69.2081 202.549 69.0257 202.966 68.8077C203.748 69.5686 204.999 69.5618 205.773 68.7874L206.347 68.2128C207.121 67.4385 207.128 66.1874 206.367 65.4046C206.585 64.9876 206.768 64.5492 206.911 64.0932C208.001 64.0768 208.88 63.1878 208.88 62.0934V61.2797C208.88 60.1854 208.001 59.2964 206.911 59.28C206.768 58.8237 206.585 58.3849 206.367 57.9677C207.128 57.1852 207.122 55.9337 206.347 55.1593L205.773 54.585C204.999 53.8107 203.748 53.804 202.965 54.5648C202.549 54.3469 202.111 54.1646 201.655 54.0217C201.64 52.9307 200.75 52.0511 199.656 52.0511H198.845C197.75 52.0511 196.86 52.931 196.845 54.0223C196.389 54.1653 195.951 54.3478 195.535 54.5659C194.753 53.8045 193.502 53.8111 192.728 54.5857L192.153 55.1603C191.379 55.935 191.373 57.187 192.134 57.9697C191.916 58.3863 191.734 58.8244 191.591 59.28C190.5 59.2954 189.62 60.1848 189.62 61.2797L189.62 62.0934C189.62 63.1884 190.5 64.0779 191.591 64.0932Z" fill="white"/>
<ellipse cx="199.25" cy="61.6955" rx="4.64712" ry="4.64982" fill="#2D2D2D"/>
<path fill-rule="evenodd" clip-rule="evenodd" d="M183.41 75.9643C183.424 76.3568 183.476 76.7436 183.562 77.1202C182.897 77.6927 182.71 78.6751 183.165 79.4631C183.62 80.2513 184.563 80.581 185.392 80.2905C185.674 80.553 185.982 80.7906 186.314 80.9988C186.247 81.8744 186.81 82.7012 187.689 82.9368C188.568 83.1723 189.468 82.7379 189.848 81.9466C190.24 81.9322 190.627 81.8805 191.003 81.7942C191.574 82.462 192.558 82.6494 193.347 82.1937C194.135 81.7381 194.465 80.7925 194.173 79.9634C194.435 79.6809 194.673 79.3724 194.882 79.0403C195.757 79.1069 196.584 78.544 196.82 77.6647C197.055 76.7859 196.621 75.8854 195.83 75.5045C195.816 75.1119 195.764 74.7249 195.678 74.3482C196.343 73.7757 196.53 72.7933 196.075 72.0052C195.62 71.2173 194.677 70.8875 193.849 71.1777C193.566 70.9144 193.257 70.6761 192.924 70.4674C192.991 69.5919 192.428 68.7653 191.549 68.5297C190.67 68.2942 189.769 68.729 189.389 69.5208C188.997 69.5354 188.611 69.5872 188.235 69.6736C187.663 69.0075 186.681 68.821 185.893 69.2762C185.105 69.7315 184.775 70.676 185.066 71.5046C184.803 71.7873 184.566 72.0961 184.357 72.4284C183.482 72.3624 182.656 72.9252 182.42 73.8042C182.185 74.6829 182.619 75.5834 183.41 75.9643Z" fill="white"/>
<ellipse rx="3.59691" ry="3.59873" transform="matrix(0.965888 0.25896 -0.258679 0.965963 189.618 75.7413)" fill="#2D2D2D"/>
<rect x="166.466" y="34.575" width="27.5577" height="27.5738" rx="13.7789" fill="#ED1C24"/>
<path d="M177.775 43.473C177.775 43.473 171.458 47.3205 177.411 51.1408C178.557 51.8849 182.71 53.9538 182.592 55.8685C182.592 55.8685 185.11 52.148 181.429 49.8069C177.648 47.4113 176.703 44.8523 177.775 43.473Z" fill="white"/>
<path d="M175.575 50.8227C175.575 50.8227 173.321 54.2346 177.757 54.9333C178.193 54.9878 181.401 55.3235 182.238 56.3761C182.238 56.3761 182.165 54.5613 179.547 53.4905C176.939 52.4197 175.866 52.1566 175.575 50.8227Z" fill="white"/>
<path d="M184.301 47.2384C181.592 44.4072 180.838 42.6559 182.001 40.3873C182.001 40.3873 173.921 43.4907 181.901 48.9988C184.755 50.9679 184.283 52.9824 184.283 53.055C184.728 52.5922 187.009 50.0696 184.301 47.2384Z" fill="white"/>
</svg>
