<svg width="153" height="50" viewBox="0 0 153 50" fill="none" xmlns="http://www.w3.org/2000/svg">
<rect width="153" height="50" rx="10" fill="white"/>
<g clip-path="url(#clip0_105:78)">
<path d="M51.3034 21.6929H43.8965C41.8945 17.9248 39.7782 15 36.8969 15C33.1462 15 31.3827 18.2124 29.6787 21.337L29.5297 21.61H21V23.4673H25.9678C27.7214 23.4673 28.0791 24.0474 28.0791 24.0474C26.703 26.1435 25.0487 28.2152 22.2916 28.2152H21V30.165H22.3016C27.6469 30.165 29.9817 25.9095 31.8546 22.4923C33.5734 19.3433 34.7707 17.4373 36.8969 17.4373C39.1026 17.4373 41.4225 22.1462 43.4643 26.3043C43.7624 26.9088 44.0654 27.5279 44.3734 28.1421C36.5442 28.3858 32.8134 30.1845 29.7781 31.6518C27.5575 32.7242 25.8038 34.055 22.9176 34.055H21V36.0049H22.9027C26.3801 36.0049 28.5461 34.9519 30.8511 33.8357C34.0454 32.2953 37.6669 30.5501 46.2015 30.5501H51.1345V28.6003H48.3476C48.1186 28.6173 47.8888 28.5821 47.6759 28.4976C47.4631 28.413 47.273 28.2813 47.1206 28.1128C46.6337 27.1866 46.1568 26.2117 45.6898 25.2368L45.044 23.9401C45.044 23.9401 45.506 23.4526 46.7877 23.4526H51.3034V21.6929Z" fill="#188FFF"/>
<path d="M60.6578 21.6783H55.4962V23.5014H60.5435C62.63 23.5014 63.8272 24.4325 63.8272 26.0996C63.8272 27.679 62.5058 28.6978 60.464 28.6978H55.4962V35.0348H57.4834V30.5014H60.4292C63.1218 30.5014 65.8342 29.1219 65.8342 26.007C65.8193 23.3747 63.7924 21.6783 60.6578 21.6783ZM77.2899 29.4144C77.2899 32.0028 75.9684 33.4311 73.574 33.4311C71.1795 33.4311 69.7985 31.9345 69.7985 29.3217V21.6783H67.8114V29.4144C67.8114 33.0167 69.9972 35.2639 73.5193 35.2639C77.0415 35.2639 79.2621 33.0362 79.2621 29.3022V21.6783H77.275L77.2899 29.4144ZM84.2547 21.6783H82.2825V35.0543H91.6517V33.2263H84.2547V21.6783ZM98.8401 27.4304C95.9886 26.8308 95.467 26.1971 95.467 25.1198C95.467 24.0425 96.5102 23.2869 98.0005 23.2869C99.3387 23.2884 100.631 23.7665 101.637 24.6323L101.836 24.7883L103.008 23.2869L102.824 23.1407C101.493 22.0353 99.793 21.4519 98.0502 21.5028C95.4074 21.5028 93.4898 23.0822 93.4898 25.3001C93.4898 27.7667 95.3328 28.6685 98.0949 29.2584C100.857 29.8482 101.319 30.4478 101.319 31.5105C101.319 32.6609 100.216 33.4603 98.6314 33.4603C96.9573 33.4603 95.7005 32.9728 94.2896 31.6957L94.1008 31.53L92.8639 32.968L93.0427 33.124C94.5354 34.5119 96.5206 35.2743 98.5768 35.2493C101.364 35.2493 103.306 33.6504 103.306 31.3496C103.311 29.2632 101.975 28.0982 98.8401 27.4304ZM110.514 21.5857L104.305 35.0543H106.361L107.921 31.6421H114.757L116.297 35.0543H118.428L112.218 21.5857H110.514ZM108.721 29.8726L111.349 24.1205L113.962 29.8726H108.721ZM127.897 29.6971C130.028 29.2096 131.285 27.7472 131.285 25.7437C131.295 25.2442 131.205 24.7476 131.019 24.2824C130.833 23.8173 130.555 23.3928 130.202 23.0334C129.131 22.0935 127.727 21.6049 126.292 21.6734H120.395V35.0543H122.382V30.0383H125.77L129.581 35.0494H132.015L127.897 29.6971ZM122.363 28.2347V23.5014H126.173C128.16 23.5014 129.293 24.3398 129.293 25.8412C129.293 27.3426 128.061 28.2786 126.158 28.2786L122.363 28.2347Z" fill="#464E56"/>
</g>
<defs>
<clipPath id="clip0_105:78">
<rect width="111" height="21" fill="white" transform="translate(21 15)"/>
</clipPath>
</defs>
</svg>
