<svg width="140" height="50" viewBox="0 0 140 50" fill="none" xmlns="http://www.w3.org/2000/svg">
<rect width="140" height="50" rx="10" fill="white"/>
<g clip-path="url(#clip0_105:77)">
<path d="M65.3705 25.482C64.8755 25.482 64.4678 25.5831 64.1473 25.7851C63.8269 25.9872 63.6667 26.2952 63.6667 26.709C63.6667 27.113 63.8269 27.4258 64.1473 27.6473C64.4676 27.859 65.1471 28.09 66.1859 28.3403C67.2342 28.5905 68.0206 28.9417 68.5451 29.394C69.079 29.8463 69.346 30.5152 69.346 31.4005C69.346 32.2762 69.011 32.9884 68.341 33.537C67.671 34.0856 66.7926 34.3599 65.7056 34.3599C64.1137 34.3599 62.7011 33.8161 61.468 32.7286L62.5455 31.444C63.5747 32.3294 64.6425 32.772 65.7489 32.772C66.3023 32.772 66.7391 32.6566 67.0593 32.4256C67.3894 32.185 67.5544 31.8722 67.5544 31.4873C67.5544 31.0926 67.3991 30.7894 67.0884 30.5779C66.7875 30.3566 66.2633 30.1593 65.5159 29.9859C64.7683 29.803 64.2005 29.6394 63.8125 29.4951C63.424 29.3411 63.0795 29.1437 62.7788 28.903C62.177 28.4507 61.8761 27.7578 61.8761 26.8245C61.8761 25.8912 62.2158 25.1742 62.8952 24.6736C63.5843 24.1636 64.4337 23.9087 65.4434 23.9087C66.0939 23.9087 66.7395 24.0145 67.3803 24.2262C68.021 24.4379 68.5744 24.7362 69.0404 25.1211L68.1232 26.4056C67.8222 26.1362 67.4145 25.9148 66.8999 25.7416C66.3855 25.5684 65.8758 25.4818 65.3708 25.4818L65.3705 25.482Z" fill="#3C3C3B"/>
<path d="M75.2897 25.689V34.2182H73.5716V25.689H70.4846V24.1302H78.3783V25.689H75.2897Z" fill="#3C3C3B"/>
<path d="M87.245 26.5171C86.5559 25.805 85.7065 25.4489 84.6968 25.4489C83.6872 25.4489 82.8329 25.805 82.134 26.5171C81.4449 27.2293 81.1003 28.0955 81.1003 29.1157C81.1003 30.1263 81.4449 30.9877 82.134 31.6998C82.8329 32.412 83.6872 32.7681 84.6968 32.7681C85.7065 32.7681 86.5559 32.412 87.245 31.6998C87.9439 30.9877 88.2934 30.1263 88.2934 29.1157C88.2934 28.0955 87.9439 27.2293 87.245 26.5171ZM88.5121 32.8416C87.4829 33.8328 86.2112 34.3285 84.6968 34.3285C83.1825 34.3285 81.9107 33.8328 80.8816 32.8416C79.8524 31.8406 79.3378 30.5992 79.3378 29.1173C79.3378 27.6257 79.8524 26.3843 80.8816 25.393C81.9107 24.3921 83.1825 23.8916 84.6968 23.8916C86.2112 23.8916 87.4829 24.3921 88.5121 25.393C89.5413 26.3843 90.0559 27.6257 90.0559 29.1173C90.0559 30.5992 89.5413 31.8406 88.5121 32.8416Z" fill="#3C3C3B"/>
<path d="M100.349 27.4487C100.349 29.1135 99.6159 30.1624 98.15 30.5954L100.815 34.2622H98.6303L96.1985 30.8697H93.9416V34.2622H92.2235V24.17H96.0095C97.5628 24.17 98.6743 24.4299 99.3439 24.9495C100.014 25.4691 100.349 26.3015 100.349 27.4466V27.4487ZM96.0826 29.3253C97.0533 29.3253 97.7134 29.1762 98.0628 28.8778C98.4122 28.5795 98.587 28.1031 98.587 27.4489C98.587 26.7847 98.4074 26.3323 98.0482 26.0919C97.689 25.8416 97.0482 25.7165 96.1259 25.7165H93.9416V29.3254L96.0826 29.3253Z" fill="#3C3C3B"/>
<path d="M104.525 34.2286H102.807V24.1364H105.487L108.559 30.4712L111.631 24.1364H114.296V34.2286H112.578V26.3463L109.025 33.3487H108.064L104.525 26.3463L104.525 34.2286Z" fill="#3C3C3B"/>
<path d="M67.4587 21.4969L66.7325 19.8661H63.231L62.5142 21.4969H61.7332L64.6192 15.1207H65.3819L68.2585 21.4969H67.4587ZM63.5343 19.1917H66.4386L64.9773 15.9115L63.5343 19.1917Z" fill="#3C3C3B"/>
<path d="M71.6875 15.1311C72.4841 15.1311 73.0998 15.3193 73.5345 15.6957C73.9759 16.0663 74.1965 16.5918 74.1965 17.2722C74.1965 17.9709 73.9759 18.5145 73.5345 18.903C73.0995 19.2918 72.4838 19.4862 71.6875 19.4862H70.0054V21.5088H69.2703V15.1326L71.6875 15.1311ZM71.6599 18.8119C72.2418 18.8119 72.6922 18.6843 73.011 18.4292C73.3296 18.168 73.4889 17.7883 73.4889 17.2901C73.4889 16.8043 73.3296 16.4368 73.011 16.1877C72.6924 15.9326 72.242 15.805 71.6599 15.805H70.0055V18.8115L71.6599 18.8119Z" fill="#3C3C3B"/>
<path d="M79.8839 21.4969L79.1577 19.8661H75.6562L74.9394 21.4969H74.1584L77.0444 15.1207H77.8071L80.6837 21.4969H79.8839ZM75.9595 19.1917H78.8638L77.4025 15.9115L75.9595 19.1917Z" fill="#3C3C3B"/>
<path d="M86.2009 16.5284C85.9497 16.2794 85.6556 16.085 85.3186 15.9452C84.9878 15.7994 84.6477 15.7265 84.2985 15.7265C83.8206 15.7265 83.3795 15.8419 82.9751 16.0727C82.5769 16.2975 82.2614 16.6073 82.0286 17.0023C81.7957 17.3972 81.6793 17.8285 81.6793 18.2961C81.6793 18.7578 81.7957 19.186 82.0286 19.5807C82.2614 19.9754 82.5769 20.2882 82.9751 20.519C83.3795 20.7498 83.8206 20.8652 84.2985 20.8652C84.6476 20.8652 84.9876 20.7984 85.3186 20.6648C85.6495 20.5251 85.9436 20.3338 86.2009 20.0908L86.6513 20.5737C86.3265 20.8774 85.9559 21.1174 85.5393 21.2936C85.1289 21.4637 84.7031 21.5487 84.2618 21.5487C83.6551 21.5487 83.0975 21.406 82.5891 21.1205C82.0806 20.8289 81.6761 20.434 81.3758 19.9358C81.0817 19.4376 80.9346 18.8909 80.9346 18.2957C80.9346 17.7064 81.0847 17.1657 81.385 16.6737C81.6852 16.1755 82.0896 15.7837 82.5982 15.4984C83.113 15.2068 83.6767 15.061 84.2892 15.061C84.7243 15.061 85.147 15.143 85.5573 15.307C85.9677 15.471 86.3291 15.7018 86.6416 15.9995L86.2009 16.5284Z" fill="#3C3C3B"/>
<path d="M87.9237 15.1311H88.6588V18.0195H92.5372V15.1311H93.2723V21.5073H92.5372V18.683H88.6588V21.5073H87.9237V15.1311Z" fill="#3C3C3B"/>
<path d="M95.2327 15.1311H99.5982V15.8054H95.9677V17.9465H99.2119V18.6116H95.9677V20.8345H99.7177V21.5088H95.2327V15.1311Z" fill="#3C3C3B"/>
<path d="M32.9546 42.8242C32.9799 42.7553 35.1797 41.0144 37.8433 38.9561C43.7531 34.3887 43.4294 34.6433 43.4294 34.5445C43.4294 34.4998 41.2779 34.4471 38.6483 34.4273L33.8672 34.3912L35.2987 33.3065C36.086 32.7097 37.9158 31.2823 39.3651 30.1344L41.9999 28.0471L45.7192 27.9958C49.1225 27.9489 49.5068 27.9193 50.247 27.647C51.8978 27.0394 52.7477 25.9795 52.7514 24.5231C52.7545 23.3022 52.2251 22.4969 51.0218 21.8919C49.9328 21.3443 48.9659 21.1787 46.8515 21.1777L45.2315 21.1766L45.7818 20.3325C46.4333 19.3336 46.6552 18.6401 46.6531 17.6164C46.6505 16.6098 46.258 15.776 45.3856 14.9246C43.1521 12.7453 39.1103 12.1661 36.1293 13.5982C35.0361 14.123 31.5268 16.8737 32.3104 16.5912C32.4623 16.5364 33.426 16.4613 34.4514 16.4243C37.4037 16.3179 39.1406 16.8099 40.5805 18.1607C42.4296 19.8945 42.9898 22.6515 41.9274 24.7905C40.8211 27.018 38.1257 28.3906 33.9659 28.8434C33.1154 28.936 30.3563 28.9784 26.7822 28.9536L20.9821 28.9134L22.8458 27.4689C23.8707 26.6745 25.8065 25.1803 27.1477 24.1483L29.5862 22.2722H32.6774L31.9397 22.8617C31.5339 23.1859 30.1527 24.2487 28.8705 25.2238L26.5389 26.9964L29.6301 27.0383C33.9622 27.0969 35.9419 26.8325 37.884 25.9359C38.9929 25.4236 39.7608 24.7398 40.2066 23.8673C40.504 23.2855 40.5476 23.0428 40.5037 22.2152C40.3686 19.6684 38.5157 18.301 35.1995 18.301C32.7009 18.301 30.1924 18.9366 26.3714 20.5379C25.3836 20.9515 24.5577 21.2723 24.5353 21.2505C24.4445 21.1618 31.3221 14.6673 32.6586 13.5805C33.9184 12.5557 35.2355 11.7918 36.489 11.3602C37.4658 11.0237 37.7467 10.9902 39.6334 10.9859C41.3891 10.9818 41.8731 11.0289 42.8024 11.2941C47.2493 12.5626 49.8712 16.1099 48.613 19.1608C48.526 19.3716 48.6043 19.4005 49.2635 19.4005C51.3763 19.4005 53.5167 20.6622 54.3072 22.3738C55.44 24.827 54.3559 27.7977 51.8738 29.045C50.5739 29.6981 49.6936 29.8296 46.1258 29.9025L42.8107 29.9707L39.2351 32.6128L48.8881 32.7497L48.129 33.3278C47.7115 33.6457 45.2467 35.5336 42.6525 37.5236C40.0579 39.5136 37.3953 41.5486 36.7375 42.0464L35.5409 42.9516H34.2264C33.4892 42.9516 32.9317 42.8966 32.9578 42.8263L32.9546 42.8242Z" fill="#225593"/>
<path d="M41.9871 28.0232L45.1858 27.9523L42.8 29.9412L39.6028 29.9133L41.9871 28.0232Z" fill="#7A7572"/>
<path d="M39.7474 29.8957C39.533 29.8653 39.4304 30.1063 39.262 30.1924C37.501 31.5914 35.7187 32.9639 33.9264 34.3256C34.015 34.4418 34.3283 34.3504 34.5007 34.3871C37.0155 34.4381 39.5308 34.4144 42.0446 34.4837C42.497 34.5111 42.977 34.4691 43.4134 34.5656C42.7045 35.2027 41.9198 35.759 41.1743 36.3558L33.5782 42.2765L32.7163 42.9716L35.5119 42.9685C35.5978 42.9074 35.7149 42.8195 35.8042 42.7702L35.9154 42.6781C35.9154 42.6781 45.6102 35.272 48.8888 32.7567C48.8241 32.6453 48.547 32.7373 48.3972 32.7089C45.3749 32.6795 42.3516 32.6376 39.3289 32.5762C40.4597 31.686 41.6516 30.8626 42.7871 29.9854C42.563 29.9184 42.2755 29.9677 42.0274 29.9447C41.2652 29.9319 40.503 29.9135 39.7413 29.8978L39.7474 29.8957Z" fill="#EA9941"/>
<path d="M24.7119 21.0456C24.9697 20.7506 28.4875 17.3658 28.6624 17.2442C28.8742 17.0971 30.7506 16.6961 31.7614 16.5823C31.9436 16.5617 32.1338 16.5383 32.1839 16.5302C32.2562 16.5185 32.1891 16.5989 31.8579 16.92C31.221 17.5374 30.7418 18.1352 30.3085 18.8515C30.1632 19.0916 30.0943 19.1738 30.0234 19.1914C29.6306 19.289 27.647 20.034 26.3371 20.5754C25.4663 20.9355 24.6487 21.2492 24.5819 21.2492C24.5554 21.2492 24.6139 21.1576 24.7117 21.0455L24.7119 21.0456Z" fill="#326BA3"/>
<path d="M35.1532 16.4394C34.1707 16.443 33.1819 16.4934 32.2098 16.61C31.85 16.864 31.5823 17.23 31.2785 17.5452C30.8425 18.0399 30.4588 18.5839 30.1289 19.1511C30.1823 19.2474 30.3503 19.1144 30.4439 19.1174C32.067 18.6589 33.7418 18.3214 35.4365 18.3846C36.3882 18.3788 37.3545 18.5388 38.2285 18.9094C39.1885 19.3177 39.9842 20.1209 40.2818 21.125C40.4813 21.8035 40.5691 22.5394 40.4392 23.2392C40.1161 24.4564 39.1074 25.3803 37.9824 25.9035C36.4632 26.6498 34.7539 26.9158 33.0744 27.0054C30.9292 27.0457 28.782 27.0777 26.6373 27.0059C28.6353 25.4765 30.6552 23.9736 32.615 22.3956C32.7373 22.2876 32.5014 22.2975 32.4349 22.298C31.4858 22.2767 30.5335 22.2797 29.5854 22.2891C26.7266 24.4965 23.8636 26.6997 21.0079 28.9137C21.0973 29.0297 21.4098 28.9382 21.5822 28.9746C25.0007 29.0225 28.4212 28.9928 31.8408 28.9749C32.898 28.9765 33.9593 28.9598 35.0035 28.7761C36.9189 28.4663 38.8803 27.9294 40.4225 26.71C41.5094 25.8509 42.2962 24.5762 42.4398 23.1938C42.4934 22.2912 42.4791 21.3586 42.1305 20.5088C41.777 19.5679 41.2054 18.7072 40.4364 18.0494C39.4529 17.1468 38.1451 16.6686 36.8274 16.5231C36.273 16.4505 35.7123 16.4409 35.1536 16.4424L35.1532 16.4394Z" fill="#318FBF"/>
<path d="M115.912 24.3527V25.4318H115.694V24.3527H115.304V24.1555H116.302V24.3527H115.912Z" fill="#3C3C3B"/>
<path d="M116.752 25.3878H116.535V24.1116H116.874L117.262 24.9133L117.651 24.1116H117.988V25.3878H117.771V24.3911L117.321 25.2766H117.2L116.752 24.3911L116.752 25.3878Z" fill="#3C3C3B"/>
</g>
<defs>
<clipPath id="clip0_105:77">
<rect width="97" height="32" fill="white" transform="translate(21 11)"/>
</clipPath>
</defs>
</svg>
