<svg width="438" height="369" viewBox="0 0 438 369" fill="none" xmlns="http://www.w3.org/2000/svg">
<circle cx="219" cy="286.518" r="81.7332" fill="#0070CC" stroke="white"/>
<path d="M27.0289 122.817L27.0287 122.816L3.59567 99.5494C-0.61209 95.3709 -0.524444 88.5553 3.82254 84.5314L3.48289 84.1644L3.82255 84.5313C124.834 -27.4899 313.117 -27.531 434.177 84.5314C438.524 88.5553 438.611 95.3712 434.41 99.5497L410.977 122.816C406.967 126.797 400.51 126.892 396.338 123.063L396.337 123.063C296.262 31.3055 141.724 31.3261 41.6685 123.063L41.6683 123.063C37.496 126.892 31.0387 126.804 27.0289 122.817ZM80.2585 177.425L80.2583 177.425C75.979 173.201 76.1259 166.283 80.6285 162.299L80.2972 161.925L80.6286 162.299C159.232 92.7267 278.679 92.6516 357.371 162.299L357.702 161.925L357.371 162.299C361.866 166.276 362.02 173.201 357.734 177.425L357.734 177.425L334.164 200.706L334.164 200.706C330.24 204.587 323.925 204.839 319.752 201.232C262.248 151.473 175.882 151.363 118.24 201.231C114.068 204.839 107.752 204.581 103.828 200.706L80.2585 177.425Z" fill="#0070CC" stroke="white"/>
<path d="M238.785 338.653C238.174 339.977 237.595 341.06 237.148 341.847C236.816 338.6 235.066 335.366 232.522 332.267C229.514 328.601 225.341 325.057 220.891 321.809C216.439 318.559 211.689 315.591 207.514 313.085C205.978 312.163 204.523 311.306 203.19 310.52C200.889 309.163 198.949 308.019 197.577 307.125L197.575 307.124C186.321 299.885 180.945 292.683 179.127 286.002C177.31 279.327 179.018 273.072 182.148 267.662C185.282 262.248 189.822 257.716 193.595 254.531C195.445 252.969 197.105 251.736 198.315 250.885C195.46 256.148 195.785 263.03 199.675 270.571C204.1 279.148 213.159 288.645 227.574 297.801C234.493 302.213 238.47 307.253 240.567 312.315C242.666 317.381 242.897 322.504 242.262 327.097C241.628 331.693 240.129 335.745 238.785 338.653Z" fill="#0070CC" stroke="white"/>
<path d="M233.109 345.281C233.168 345.513 233.218 345.73 233.26 345.929C231.583 344.367 229.26 343.052 226.649 341.942C223.38 340.552 219.601 339.459 215.933 338.609C209.289 337.068 202.96 336.311 200.597 336.028C200.354 335.999 200.154 335.975 199.999 335.956C191.636 334.634 186.503 332.042 183.47 328.96C180.447 325.887 179.461 322.275 179.494 318.797C179.528 315.306 180.59 311.958 181.656 309.469C182.188 308.227 182.717 307.207 183.113 306.498C183.127 306.473 183.141 306.448 183.154 306.424C183.736 308.491 184.604 310.226 185.817 311.755C187.253 313.564 189.155 315.06 191.585 316.475C195.252 318.611 200.198 320.603 206.686 323.215C208.749 324.045 210.967 324.938 213.349 325.919L213.35 325.919C223.202 329.959 228.228 335.384 230.796 339.764C232.082 341.957 232.756 343.896 233.109 345.281Z" fill="#0070CC" stroke="white"/>
<path d="M231.154 226.582C227.209 234.845 226.608 242.31 229.426 250.267C232.366 258.568 239.011 267.362 249.313 278.157C259.485 288.816 260.253 298.833 258.114 306.61C256.304 313.192 252.397 318.21 250.205 320.677C250.237 320.255 250.26 319.755 250.259 319.183C250.257 317.388 250.022 314.898 249.098 311.952C247.248 306.052 242.648 298.375 231.719 290.816C216.592 280.349 209.157 271.078 206.435 263.104C203.724 255.165 205.662 248.438 209.477 242.961C213.305 237.466 219.018 233.242 223.802 230.385C226.19 228.959 228.337 227.879 229.886 227.156C230.371 226.929 230.797 226.738 231.154 226.582Z" fill="#0070CC" stroke="white"/>
</svg>
