<svg width="542" height="366" viewBox="0 0 542 366" fill="none" xmlns="http://www.w3.org/2000/svg">
<rect width="542" height="366" rx="10" fill="#F6F6F6"/>
<rect x="188" y="55" width="161" height="217" rx="20" fill="white"/>
<rect x="214" y="141" width="109.667" height="110" rx="54.8337" fill="#ED1C24"/>
<path d="M259.006 176.495C259.006 176.495 233.868 191.843 257.559 207.084C262.117 210.052 278.646 218.306 278.176 225.944C278.176 225.944 288.195 211.102 273.546 201.762C258.5 192.205 254.738 181.997 259.006 176.495Z" fill="white"/>
<path d="M250.253 205.818C250.253 205.818 241.283 219.429 258.933 222.216C260.67 222.433 273.437 223.773 276.765 227.972C276.765 227.972 276.476 220.732 266.059 216.46C255.678 212.189 251.41 211.139 250.253 205.818Z" fill="white"/>
<path d="M284.976 191.519C274.197 180.224 271.195 173.238 275.825 164.188C275.825 164.188 243.67 176.568 275.427 198.541C286.784 206.397 284.903 214.433 284.903 214.723C286.676 212.877 295.754 202.813 284.976 191.519Z" fill="white"/>
<path d="M411.318 287L414.342 279.126H415.464L418.687 287H417.5L416.582 284.615H413.289L412.424 287H411.318ZM413.59 283.767H416.259L415.438 281.586C415.187 280.924 415.001 280.379 414.879 279.953C414.779 280.458 414.637 280.959 414.455 281.457L413.59 283.767ZM419.396 289.186V281.296H420.277V282.037C420.485 281.747 420.719 281.53 420.98 281.387C421.242 281.24 421.559 281.167 421.931 281.167C422.418 281.167 422.848 281.292 423.22 281.543C423.593 281.794 423.874 282.148 424.063 282.606C424.253 283.061 424.348 283.561 424.348 284.105C424.348 284.689 424.243 285.215 424.031 285.684C423.824 286.15 423.519 286.508 423.118 286.758C422.721 287.005 422.302 287.129 421.861 287.129C421.539 287.129 421.249 287.061 420.991 286.925C420.737 286.789 420.528 286.617 420.363 286.409V289.186H419.396ZM420.271 284.18C420.271 284.914 420.42 285.457 420.717 285.808C421.014 286.159 421.374 286.334 421.797 286.334C422.227 286.334 422.594 286.153 422.898 285.792C423.206 285.426 423.36 284.862 423.36 284.1C423.36 283.373 423.209 282.828 422.909 282.467C422.611 282.105 422.255 281.924 421.84 281.924C421.428 281.924 421.063 282.118 420.744 282.504C420.429 282.888 420.271 283.446 420.271 284.18ZM429.241 286.296C428.883 286.601 428.538 286.816 428.205 286.941C427.875 287.066 427.521 287.129 427.141 287.129C426.514 287.129 426.033 286.977 425.696 286.672C425.36 286.364 425.191 285.972 425.191 285.496C425.191 285.217 425.254 284.963 425.379 284.733C425.508 284.501 425.675 284.314 425.879 284.175C426.087 284.035 426.319 283.93 426.577 283.858C426.767 283.808 427.053 283.759 427.437 283.713C428.217 283.62 428.792 283.509 429.161 283.38C429.164 283.247 429.166 283.163 429.166 283.127C429.166 282.734 429.075 282.456 428.892 282.295C428.645 282.076 428.278 281.967 427.791 281.967C427.336 281.967 427 282.048 426.781 282.209C426.566 282.367 426.407 282.648 426.303 283.052L425.358 282.923C425.444 282.519 425.585 282.193 425.782 281.946C425.979 281.695 426.264 281.504 426.636 281.371C427.009 281.235 427.44 281.167 427.931 281.167C428.418 281.167 428.813 281.224 429.118 281.339C429.422 281.453 429.646 281.598 429.789 281.774C429.932 281.946 430.033 282.164 430.09 282.429C430.122 282.594 430.138 282.891 430.138 283.321V284.61C430.138 285.509 430.158 286.078 430.197 286.318C430.24 286.554 430.323 286.782 430.444 287H429.435C429.334 286.799 429.27 286.565 429.241 286.296ZM429.161 284.137C428.81 284.28 428.283 284.402 427.582 284.502C427.184 284.56 426.903 284.624 426.738 284.696C426.574 284.767 426.446 284.873 426.357 285.013C426.267 285.149 426.223 285.301 426.223 285.469C426.223 285.727 426.319 285.942 426.513 286.114C426.71 286.286 426.996 286.372 427.372 286.372C427.744 286.372 428.076 286.291 428.366 286.13C428.656 285.965 428.869 285.741 429.005 285.458C429.109 285.24 429.161 284.918 429.161 284.492V284.137ZM435.364 284.911L436.315 285.034C436.211 285.689 435.944 286.203 435.515 286.576C435.089 286.944 434.564 287.129 433.941 287.129C433.16 287.129 432.532 286.875 432.056 286.366C431.583 285.854 431.347 285.122 431.347 284.169C431.347 283.554 431.449 283.015 431.653 282.553C431.857 282.091 432.167 281.745 432.582 281.516C433.001 281.283 433.456 281.167 433.946 281.167C434.566 281.167 435.072 281.325 435.466 281.64C435.86 281.951 436.113 282.395 436.224 282.972L435.284 283.117C435.194 282.734 435.035 282.445 434.806 282.252C434.58 282.059 434.306 281.962 433.984 281.962C433.497 281.962 433.101 282.137 432.797 282.488C432.493 282.836 432.34 283.387 432.34 284.143C432.34 284.909 432.487 285.466 432.781 285.813C433.074 286.16 433.458 286.334 433.93 286.334C434.31 286.334 434.627 286.218 434.881 285.985C435.135 285.752 435.296 285.394 435.364 284.911ZM437.142 287V279.126H438.109V281.951C438.56 281.428 439.129 281.167 439.817 281.167C440.239 281.167 440.606 281.251 440.918 281.419C441.229 281.584 441.451 281.813 441.584 282.107C441.72 282.401 441.788 282.827 441.788 283.385V287H440.821V283.385C440.821 282.902 440.716 282.551 440.504 282.333C440.297 282.111 440.001 282 439.618 282C439.332 282 439.061 282.075 438.807 282.225C438.556 282.372 438.377 282.572 438.27 282.827C438.163 283.081 438.109 283.432 438.109 283.879V287H437.142ZM447.17 285.163L448.169 285.287C448.011 285.87 447.72 286.323 447.293 286.646C446.867 286.968 446.323 287.129 445.661 287.129C444.826 287.129 444.164 286.873 443.673 286.361C443.186 285.845 442.943 285.124 442.943 284.196C442.943 283.237 443.19 282.492 443.684 281.962C444.178 281.432 444.819 281.167 445.607 281.167C446.37 281.167 446.993 281.427 447.476 281.946C447.959 282.465 448.201 283.195 448.201 284.137C448.201 284.194 448.199 284.28 448.196 284.395H443.942C443.978 285.022 444.155 285.501 444.474 285.834C444.792 286.167 445.19 286.334 445.666 286.334C446.021 286.334 446.323 286.241 446.574 286.055C446.824 285.868 447.023 285.571 447.17 285.163ZM443.996 283.6H447.181C447.138 283.12 447.016 282.76 446.815 282.521C446.507 282.148 446.108 281.962 445.618 281.962C445.174 281.962 444.799 282.111 444.495 282.408C444.194 282.705 444.028 283.102 443.996 283.6ZM452.75 287V279.126H453.792V287H452.75ZM455.334 287.473L456.274 287.612C456.313 287.902 456.423 288.114 456.602 288.246C456.841 288.425 457.169 288.515 457.584 288.515C458.032 288.515 458.378 288.425 458.621 288.246C458.865 288.067 459.029 287.816 459.115 287.494C459.165 287.297 459.189 286.884 459.185 286.253C458.763 286.751 458.236 287 457.606 287C456.822 287 456.215 286.717 455.785 286.151C455.355 285.586 455.141 284.907 455.141 284.116C455.141 283.571 455.239 283.07 455.436 282.612C455.633 282.15 455.918 281.794 456.29 281.543C456.666 281.292 457.106 281.167 457.611 281.167C458.285 281.167 458.84 281.439 459.276 281.983V281.296H460.168V286.227C460.168 287.115 460.077 287.743 459.894 288.112C459.715 288.484 459.429 288.778 459.035 288.993C458.644 289.208 458.163 289.315 457.59 289.315C456.91 289.315 456.36 289.161 455.941 288.853C455.522 288.549 455.32 288.089 455.334 287.473ZM456.134 284.046C456.134 284.794 456.283 285.34 456.58 285.684C456.877 286.028 457.25 286.2 457.697 286.2C458.141 286.2 458.514 286.03 458.814 285.689C459.115 285.346 459.266 284.809 459.266 284.078C459.266 283.38 459.11 282.854 458.798 282.499C458.49 282.145 458.118 281.967 457.681 281.967C457.251 281.967 456.886 282.143 456.585 282.494C456.285 282.841 456.134 283.358 456.134 284.046ZM461.634 287V281.296H462.504V282.107C462.923 281.48 463.528 281.167 464.32 281.167C464.664 281.167 464.979 281.23 465.265 281.355C465.555 281.477 465.772 281.638 465.915 281.838C466.058 282.039 466.159 282.277 466.216 282.553C466.252 282.732 466.27 283.045 466.27 283.493V287H465.303V283.53C465.303 283.136 465.265 282.843 465.19 282.649C465.115 282.452 464.98 282.297 464.787 282.182C464.597 282.064 464.374 282.005 464.116 282.005C463.704 282.005 463.348 282.136 463.047 282.397C462.75 282.658 462.601 283.154 462.601 283.885V287H461.634ZM467.763 280.238V279.126H468.729V280.238H467.763ZM467.763 287V281.296H468.729V287H467.763ZM472.317 286.135L472.457 286.989C472.185 287.047 471.941 287.075 471.727 287.075C471.376 287.075 471.104 287.02 470.91 286.909C470.717 286.798 470.581 286.653 470.502 286.474C470.423 286.291 470.384 285.91 470.384 285.33V282.048H469.675V281.296H470.384V279.883L471.345 279.303V281.296H472.317V282.048H471.345V285.383C471.345 285.659 471.361 285.836 471.394 285.915C471.429 285.994 471.485 286.056 471.56 286.103C471.639 286.15 471.75 286.173 471.893 286.173C472 286.173 472.142 286.16 472.317 286.135ZM477.173 285.163L478.172 285.287C478.014 285.87 477.722 286.323 477.296 286.646C476.87 286.968 476.326 287.129 475.664 287.129C474.829 287.129 474.167 286.873 473.676 286.361C473.189 285.845 472.946 285.124 472.946 284.196C472.946 283.237 473.193 282.492 473.687 281.962C474.181 281.432 474.822 281.167 475.61 281.167C476.373 281.167 476.996 281.427 477.479 281.946C477.962 282.465 478.204 283.195 478.204 284.137C478.204 284.194 478.202 284.28 478.199 284.395H473.945C473.981 285.022 474.158 285.501 474.477 285.834C474.795 286.167 475.193 286.334 475.669 286.334C476.023 286.334 476.326 286.241 476.577 286.055C476.827 285.868 477.026 285.571 477.173 285.163ZM473.999 283.6H477.184C477.141 283.12 477.019 282.76 476.818 282.521C476.51 282.148 476.111 281.962 475.621 281.962C475.177 281.962 474.802 282.111 474.498 282.408C474.197 282.705 474.031 283.102 473.999 283.6ZM394.007 307.186V299.296H394.888V300.037C395.095 299.747 395.33 299.53 395.591 299.387C395.853 299.24 396.17 299.167 396.542 299.167C397.029 299.167 397.459 299.292 397.831 299.543C398.203 299.794 398.485 300.148 398.674 300.606C398.864 301.061 398.959 301.561 398.959 302.105C398.959 302.689 398.853 303.215 398.642 303.684C398.434 304.15 398.13 304.508 397.729 304.758C397.332 305.005 396.913 305.129 396.472 305.129C396.15 305.129 395.86 305.061 395.602 304.925C395.348 304.789 395.138 304.617 394.974 304.409V307.186H394.007ZM394.882 302.18C394.882 302.914 395.031 303.457 395.328 303.808C395.625 304.159 395.985 304.334 396.408 304.334C396.837 304.334 397.204 304.153 397.509 303.792C397.817 303.426 397.971 302.862 397.971 302.1C397.971 301.373 397.82 300.828 397.52 300.467C397.222 300.105 396.866 299.924 396.451 299.924C396.039 299.924 395.674 300.118 395.355 300.504C395.04 300.888 394.882 301.446 394.882 302.18ZM399.77 302.148C399.77 301.092 400.064 300.309 400.651 299.801C401.141 299.378 401.739 299.167 402.445 299.167C403.229 299.167 403.87 299.425 404.368 299.94C404.865 300.452 405.114 301.161 405.114 302.067C405.114 302.801 405.003 303.38 404.781 303.802C404.563 304.221 404.242 304.547 403.82 304.78C403.401 305.013 402.943 305.129 402.445 305.129C401.646 305.129 401 304.873 400.506 304.361C400.015 303.849 399.77 303.111 399.77 302.148ZM400.764 302.148C400.764 302.878 400.923 303.426 401.242 303.792C401.56 304.153 401.961 304.334 402.445 304.334C402.925 304.334 403.324 304.151 403.643 303.786C403.961 303.421 404.121 302.864 404.121 302.116C404.121 301.41 403.959 300.877 403.637 300.515C403.319 300.15 402.921 299.967 402.445 299.967C401.961 299.967 401.56 300.148 401.242 300.51C400.923 300.871 400.764 301.417 400.764 302.148ZM407.306 305L405.56 299.296H406.559L407.467 302.588L407.805 303.813C407.819 303.752 407.918 303.36 408.101 302.637L409.008 299.296H410.002L410.856 302.604L411.141 303.695L411.468 302.594L412.446 299.296H413.386L411.603 305H410.598L409.69 301.584L409.47 300.612L408.315 305H407.306ZM418.107 303.163L419.106 303.287C418.948 303.87 418.657 304.323 418.23 304.646C417.804 304.968 417.26 305.129 416.598 305.129C415.763 305.129 415.101 304.873 414.61 304.361C414.123 303.845 413.88 303.124 413.88 302.196C413.88 301.237 414.127 300.492 414.621 299.962C415.115 299.432 415.756 299.167 416.544 299.167C417.307 299.167 417.93 299.427 418.413 299.946C418.896 300.465 419.138 301.195 419.138 302.137C419.138 302.194 419.136 302.28 419.133 302.395H414.879C414.915 303.022 415.092 303.501 415.411 303.834C415.729 304.167 416.127 304.334 416.603 304.334C416.958 304.334 417.26 304.241 417.511 304.055C417.761 303.868 417.96 303.571 418.107 303.163ZM414.933 301.6H418.118C418.075 301.12 417.953 300.76 417.752 300.521C417.444 300.148 417.045 299.962 416.555 299.962C416.111 299.962 415.736 300.111 415.432 300.408C415.131 300.705 414.965 301.102 414.933 301.6ZM420.314 305V299.296H421.185V300.161C421.407 299.756 421.611 299.489 421.797 299.36C421.987 299.231 422.194 299.167 422.42 299.167C422.746 299.167 423.077 299.271 423.414 299.479L423.081 300.375C422.844 300.236 422.608 300.166 422.372 300.166C422.16 300.166 421.971 300.23 421.802 300.359C421.634 300.485 421.514 300.66 421.442 300.886C421.335 301.229 421.281 301.605 421.281 302.014V305H420.314ZM427.893 303.163L428.892 303.287C428.735 303.87 428.443 304.323 428.017 304.646C427.59 304.968 427.046 305.129 426.384 305.129C425.549 305.129 424.887 304.873 424.396 304.361C423.91 303.845 423.666 303.124 423.666 302.196C423.666 301.237 423.913 300.492 424.407 299.962C424.901 299.432 425.542 299.167 426.33 299.167C427.093 299.167 427.716 299.427 428.199 299.946C428.683 300.465 428.924 301.195 428.924 302.137C428.924 302.194 428.923 302.28 428.919 302.395H424.665C424.701 303.022 424.878 303.501 425.197 303.834C425.515 304.167 425.913 304.334 426.389 304.334C426.744 304.334 427.046 304.241 427.297 304.055C427.548 303.868 427.746 303.571 427.893 303.163ZM424.719 301.6H427.904C427.861 301.12 427.739 300.76 427.539 300.521C427.231 300.148 426.831 299.962 426.341 299.962C425.897 299.962 425.523 300.111 425.218 300.408C424.917 300.705 424.751 301.102 424.719 301.6ZM433.812 305V304.28C433.45 304.846 432.919 305.129 432.217 305.129C431.762 305.129 431.343 305.004 430.96 304.753C430.58 304.502 430.285 304.153 430.074 303.706C429.866 303.254 429.762 302.737 429.762 302.153C429.762 301.584 429.857 301.068 430.047 300.606C430.237 300.141 430.521 299.785 430.901 299.538C431.28 299.291 431.705 299.167 432.174 299.167C432.518 299.167 432.824 299.24 433.092 299.387C433.361 299.53 433.579 299.718 433.748 299.951V297.126H434.709V305H433.812ZM430.756 302.153C430.756 302.884 430.91 303.43 431.218 303.792C431.526 304.153 431.889 304.334 432.308 304.334C432.731 304.334 433.089 304.162 433.382 303.818C433.68 303.471 433.828 302.943 433.828 302.234C433.828 301.453 433.678 300.88 433.377 300.515C433.076 300.15 432.706 299.967 432.265 299.967C431.835 299.967 431.476 300.143 431.186 300.494C430.899 300.845 430.756 301.398 430.756 302.153ZM443.018 304.296C442.66 304.601 442.314 304.816 441.981 304.941C441.652 305.066 441.298 305.129 440.918 305.129C440.291 305.129 439.81 304.977 439.473 304.672C439.137 304.364 438.968 303.972 438.968 303.496C438.968 303.217 439.031 302.963 439.156 302.733C439.285 302.501 439.452 302.314 439.656 302.175C439.863 302.035 440.096 301.93 440.354 301.858C440.544 301.808 440.83 301.759 441.213 301.713C441.994 301.62 442.569 301.509 442.938 301.38C442.941 301.247 442.943 301.163 442.943 301.127C442.943 300.734 442.852 300.456 442.669 300.295C442.422 300.076 442.055 299.967 441.568 299.967C441.113 299.967 440.777 300.048 440.558 300.209C440.343 300.367 440.184 300.648 440.08 301.052L439.135 300.923C439.221 300.519 439.362 300.193 439.559 299.946C439.756 299.695 440.041 299.504 440.413 299.371C440.785 299.235 441.217 299.167 441.708 299.167C442.194 299.167 442.59 299.224 442.895 299.339C443.199 299.453 443.423 299.598 443.566 299.774C443.709 299.946 443.809 300.164 443.867 300.429C443.899 300.594 443.915 300.891 443.915 301.321V302.61C443.915 303.509 443.935 304.078 443.974 304.318C444.017 304.554 444.099 304.782 444.221 305H443.211C443.111 304.799 443.047 304.565 443.018 304.296ZM442.938 302.137C442.587 302.28 442.06 302.402 441.358 302.502C440.961 302.56 440.68 302.624 440.515 302.696C440.35 302.767 440.223 302.873 440.134 303.013C440.044 303.149 440 303.301 440 303.469C440 303.727 440.096 303.942 440.29 304.114C440.486 304.286 440.773 304.372 441.149 304.372C441.521 304.372 441.853 304.291 442.143 304.13C442.433 303.965 442.646 303.741 442.782 303.458C442.886 303.24 442.938 302.918 442.938 302.492V302.137ZM445.419 307.186V299.296H446.3V300.037C446.507 299.747 446.742 299.53 447.003 299.387C447.265 299.24 447.582 299.167 447.954 299.167C448.441 299.167 448.871 299.292 449.243 299.543C449.616 299.794 449.897 300.148 450.086 300.606C450.276 301.061 450.371 301.561 450.371 302.105C450.371 302.689 450.265 303.215 450.054 303.684C449.847 304.15 449.542 304.508 449.141 304.758C448.744 305.005 448.325 305.129 447.884 305.129C447.562 305.129 447.272 305.061 447.014 304.925C446.76 304.789 446.55 304.617 446.386 304.409V307.186H445.419ZM446.294 302.18C446.294 302.914 446.443 303.457 446.74 303.808C447.037 304.159 447.397 304.334 447.82 304.334C448.25 304.334 448.617 304.153 448.921 303.792C449.229 303.426 449.383 302.862 449.383 302.1C449.383 301.373 449.232 300.828 448.932 300.467C448.634 300.105 448.278 299.924 447.863 299.924C447.451 299.924 447.086 300.118 446.767 300.504C446.452 300.888 446.294 301.446 446.294 302.18ZM451.542 307.186V299.296H452.423V300.037C452.631 299.747 452.865 299.53 453.126 299.387C453.388 299.24 453.705 299.167 454.077 299.167C454.564 299.167 454.994 299.292 455.366 299.543C455.739 299.794 456.02 300.148 456.209 300.606C456.399 301.061 456.494 301.561 456.494 302.105C456.494 302.689 456.389 303.215 456.177 303.684C455.97 304.15 455.665 304.508 455.264 304.758C454.867 305.005 454.448 305.129 454.007 305.129C453.685 305.129 453.395 305.061 453.137 304.925C452.883 304.789 452.674 304.617 452.509 304.409V307.186H451.542ZM452.417 302.18C452.417 302.914 452.566 303.457 452.863 303.808C453.16 304.159 453.52 304.334 453.943 304.334C454.373 304.334 454.74 304.153 455.044 303.792C455.352 303.426 455.506 302.862 455.506 302.1C455.506 301.373 455.355 300.828 455.055 300.467C454.757 300.105 454.401 299.924 453.986 299.924C453.574 299.924 453.209 300.118 452.89 300.504C452.575 300.888 452.417 301.446 452.417 302.18ZM457.644 305V297.126H458.61V305H457.644ZM460.12 298.238V297.126H461.086V298.238H460.12ZM460.12 305V299.296H461.086V305H460.12ZM466.286 302.911L467.236 303.034C467.132 303.689 466.866 304.203 466.436 304.576C466.01 304.944 465.485 305.129 464.862 305.129C464.082 305.129 463.453 304.875 462.977 304.366C462.504 303.854 462.268 303.122 462.268 302.169C462.268 301.554 462.37 301.015 462.574 300.553C462.778 300.091 463.088 299.745 463.503 299.516C463.922 299.283 464.377 299.167 464.868 299.167C465.487 299.167 465.994 299.325 466.388 299.64C466.782 299.951 467.034 300.395 467.145 300.972L466.205 301.117C466.116 300.734 465.956 300.445 465.727 300.252C465.501 300.059 465.228 299.962 464.905 299.962C464.418 299.962 464.023 300.137 463.718 300.488C463.414 300.836 463.262 301.387 463.262 302.143C463.262 302.909 463.409 303.466 463.702 303.813C463.996 304.16 464.379 304.334 464.852 304.334C465.231 304.334 465.548 304.218 465.802 303.985C466.056 303.752 466.218 303.394 466.286 302.911ZM471.786 304.296C471.428 304.601 471.082 304.816 470.749 304.941C470.42 305.066 470.065 305.129 469.686 305.129C469.059 305.129 468.577 304.977 468.241 304.672C467.904 304.364 467.736 303.972 467.736 303.496C467.736 303.217 467.799 302.963 467.924 302.733C468.053 302.501 468.219 302.314 468.423 302.175C468.631 302.035 468.864 301.93 469.122 301.858C469.311 301.808 469.598 301.759 469.981 301.713C470.762 301.62 471.336 301.509 471.705 301.38C471.709 301.247 471.71 301.163 471.71 301.127C471.71 300.734 471.619 300.456 471.437 300.295C471.189 300.076 470.822 299.967 470.335 299.967C469.881 299.967 469.544 300.048 469.326 300.209C469.111 300.367 468.951 300.648 468.848 301.052L467.902 300.923C467.988 300.519 468.13 300.193 468.327 299.946C468.524 299.695 468.808 299.504 469.181 299.371C469.553 299.235 469.985 299.167 470.475 299.167C470.962 299.167 471.358 299.224 471.662 299.339C471.966 299.453 472.19 299.598 472.333 299.774C472.477 299.946 472.577 300.164 472.634 300.429C472.667 300.594 472.683 300.891 472.683 301.321V302.61C472.683 303.509 472.702 304.078 472.742 304.318C472.785 304.554 472.867 304.782 472.989 305H471.979C471.879 304.799 471.814 304.565 471.786 304.296ZM471.705 302.137C471.354 302.28 470.828 302.402 470.126 302.502C469.729 302.56 469.447 302.624 469.283 302.696C469.118 302.767 468.991 302.873 468.901 303.013C468.812 303.149 468.767 303.301 468.767 303.469C468.767 303.727 468.864 303.942 469.057 304.114C469.254 304.286 469.541 304.372 469.917 304.372C470.289 304.372 470.62 304.291 470.91 304.13C471.2 303.965 471.413 303.741 471.549 303.458C471.653 303.24 471.705 302.918 471.705 302.492V302.137ZM476.297 304.135L476.437 304.989C476.165 305.047 475.921 305.075 475.707 305.075C475.356 305.075 475.083 305.02 474.89 304.909C474.697 304.798 474.561 304.653 474.482 304.474C474.403 304.291 474.364 303.91 474.364 303.33V300.048H473.655V299.296H474.364V297.883L475.325 297.303V299.296H476.297V300.048H475.325V303.383C475.325 303.659 475.341 303.836 475.374 303.915C475.409 303.994 475.465 304.056 475.54 304.103C475.619 304.15 475.73 304.173 475.873 304.173C475.98 304.173 476.122 304.16 476.297 304.135ZM477.253 298.238V297.126H478.22V298.238H477.253ZM477.253 305V299.296H478.22V305H477.253ZM479.337 302.148C479.337 301.092 479.631 300.309 480.218 299.801C480.709 299.378 481.307 299.167 482.012 299.167C482.796 299.167 483.437 299.425 483.935 299.94C484.433 300.452 484.682 301.161 484.682 302.067C484.682 302.801 484.571 303.38 484.349 303.802C484.13 304.221 483.81 304.547 483.387 304.78C482.968 305.013 482.51 305.129 482.012 305.129C481.214 305.129 480.567 304.873 480.073 304.361C479.583 303.849 479.337 303.111 479.337 302.148ZM480.331 302.148C480.331 302.878 480.49 303.426 480.809 303.792C481.128 304.153 481.529 304.334 482.012 304.334C482.492 304.334 482.891 304.151 483.21 303.786C483.529 303.421 483.688 302.864 483.688 302.116C483.688 301.41 483.527 300.877 483.205 300.515C482.886 300.15 482.488 299.967 482.012 299.967C481.529 299.967 481.128 300.148 480.809 300.51C480.49 300.871 480.331 301.417 480.331 302.148ZM485.82 305V299.296H486.69V300.107C487.109 299.48 487.715 299.167 488.506 299.167C488.85 299.167 489.165 299.23 489.451 299.355C489.741 299.477 489.958 299.638 490.101 299.838C490.244 300.039 490.345 300.277 490.402 300.553C490.438 300.732 490.456 301.045 490.456 301.493V305H489.489V301.53C489.489 301.136 489.451 300.843 489.376 300.649C489.301 300.452 489.167 300.297 488.973 300.182C488.783 300.064 488.56 300.005 488.302 300.005C487.89 300.005 487.534 300.136 487.233 300.397C486.936 300.658 486.787 301.154 486.787 301.885V305H485.82ZM491.557 303.297L492.513 303.147C492.566 303.53 492.715 303.824 492.958 304.028C493.206 304.232 493.549 304.334 493.99 304.334C494.434 304.334 494.763 304.244 494.978 304.065C495.193 303.883 495.3 303.67 495.3 303.426C495.3 303.208 495.205 303.036 495.016 302.911C494.883 302.825 494.554 302.715 494.027 302.583C493.318 302.404 492.826 302.25 492.55 302.121C492.278 301.989 492.07 301.808 491.927 301.579C491.788 301.346 491.718 301.09 491.718 300.811C491.718 300.556 491.775 300.322 491.89 300.107C492.008 299.889 492.167 299.708 492.368 299.564C492.518 299.453 492.722 299.36 492.98 299.285C493.241 299.206 493.521 299.167 493.818 299.167C494.265 299.167 494.658 299.231 494.994 299.36C495.334 299.489 495.585 299.665 495.746 299.887C495.907 300.105 496.018 300.399 496.079 300.768L495.134 300.896C495.091 300.603 494.965 300.374 494.758 300.209C494.554 300.044 494.264 299.962 493.888 299.962C493.444 299.962 493.127 300.035 492.937 300.182C492.747 300.329 492.652 300.501 492.652 300.698C492.652 300.823 492.692 300.936 492.771 301.036C492.849 301.14 492.973 301.226 493.141 301.294C493.238 301.33 493.522 301.412 493.995 301.541C494.679 301.724 495.155 301.874 495.424 301.992C495.696 302.107 495.909 302.275 496.063 302.497C496.217 302.719 496.294 302.995 496.294 303.324C496.294 303.646 496.199 303.951 496.009 304.237C495.823 304.52 495.553 304.74 495.198 304.898C494.844 305.052 494.443 305.129 493.995 305.129C493.254 305.129 492.688 304.975 492.298 304.667C491.911 304.359 491.664 303.903 491.557 303.297Z" fill="black"/>
<path d="M47.6874 284.47L48.6703 284.384C48.7169 284.778 48.8243 285.102 48.9926 285.356C49.1645 285.607 49.4294 285.811 49.7875 285.969C50.1456 286.123 50.5484 286.2 50.996 286.2C51.3935 286.2 51.7444 286.141 52.0488 286.022C52.3531 285.904 52.5787 285.743 52.7255 285.539C52.8759 285.331 52.9511 285.106 52.9511 284.862C52.9511 284.615 52.8795 284.4 52.7363 284.218C52.593 284.032 52.3567 283.876 52.0273 283.75C51.816 283.668 51.3487 283.541 50.6254 283.369C49.9021 283.194 49.3954 283.029 49.1054 282.875C48.7294 282.678 48.4483 282.435 48.2621 282.145C48.0795 281.851 47.9882 281.523 47.9882 281.162C47.9882 280.764 48.101 280.394 48.3266 280.05C48.5522 279.702 48.8816 279.439 49.3149 279.26C49.7481 279.081 50.2297 278.992 50.7597 278.992C51.3433 278.992 51.8572 279.087 52.3012 279.276C52.7488 279.463 53.0925 279.738 53.3324 280.104C53.5724 280.469 53.7013 280.882 53.7192 281.344L52.7201 281.419C52.6664 280.922 52.4838 280.546 52.1723 280.292C51.8643 280.037 51.4078 279.91 50.8027 279.91C50.1724 279.91 49.7123 280.027 49.4223 280.259C49.1358 280.488 48.9926 280.766 48.9926 281.092C48.9926 281.375 49.0947 281.607 49.2988 281.79C49.4993 281.973 50.0221 282.161 50.8671 282.354C51.7157 282.544 52.2976 282.71 52.6127 282.854C53.0711 283.065 53.4094 283.333 53.6279 283.659C53.8463 283.981 53.9555 284.354 53.9555 284.776C53.9555 285.195 53.8355 285.591 53.5956 285.963C53.3557 286.332 53.0102 286.62 52.559 286.828C52.1114 287.032 51.6065 287.134 51.0444 287.134C50.3318 287.134 49.7338 287.03 49.2504 286.823C48.7706 286.615 48.3928 286.304 48.1171 285.888C47.845 285.469 47.7017 284.997 47.6874 284.47ZM54.8954 284.148C54.8954 283.092 55.1891 282.309 55.7763 281.801C56.2669 281.378 56.8648 281.167 57.5702 281.167C58.3544 281.167 58.9954 281.425 59.4931 281.94C59.9908 282.452 60.2397 283.161 60.2397 284.067C60.2397 284.801 60.1287 285.38 59.9067 285.802C59.6882 286.221 59.3678 286.547 58.9452 286.78C58.5263 287.013 58.068 287.129 57.5702 287.129C56.7717 287.129 56.1254 286.873 55.6313 286.361C55.1407 285.849 54.8954 285.111 54.8954 284.148ZM55.8891 284.148C55.8891 284.878 56.0484 285.426 56.3671 285.792C56.6858 286.153 57.0868 286.334 57.5702 286.334C58.0501 286.334 58.4493 286.151 58.768 285.786C59.0867 285.421 59.246 284.864 59.246 284.116C59.246 283.41 59.0849 282.877 58.7626 282.515C58.4439 282.15 58.0465 281.967 57.5702 281.967C57.0868 281.967 56.6858 282.148 56.3671 282.51C56.0484 282.871 55.8891 283.417 55.8891 284.148ZM65.1166 287V286.162C64.6726 286.807 64.0693 287.129 63.3066 287.129C62.97 287.129 62.6549 287.064 62.3613 286.936C62.0712 286.807 61.8546 286.646 61.7113 286.452C61.5717 286.255 61.4732 286.015 61.4159 285.732C61.3766 285.543 61.3569 285.242 61.3569 284.83V281.296H62.3237V284.459C62.3237 284.964 62.3433 285.305 62.3827 285.48C62.4436 285.734 62.5725 285.935 62.7695 286.082C62.9664 286.225 63.2099 286.296 63.4999 286.296C63.79 286.296 64.0621 286.223 64.3163 286.076C64.5706 285.926 64.7496 285.723 64.8534 285.469C64.9609 285.211 65.0146 284.839 65.0146 284.352V281.296H65.9814V287H65.1166ZM67.4906 287V281.296H68.3608V282.161C68.5828 281.756 68.7869 281.489 68.9731 281.36C69.1628 281.231 69.3705 281.167 69.5961 281.167C69.922 281.167 70.2532 281.271 70.5898 281.479L70.2568 282.375C70.0204 282.236 69.7841 282.166 69.5478 282.166C69.3365 282.166 69.1467 282.23 68.9784 282.359C68.8101 282.485 68.6902 282.66 68.6186 282.886C68.5112 283.229 68.4574 283.605 68.4574 284.014V287H67.4906ZM74.8866 284.911L75.8373 285.034C75.7335 285.689 75.4667 286.203 75.037 286.576C74.6109 286.944 74.0863 287.129 73.4633 287.129C72.6827 287.129 72.0543 286.875 71.578 286.366C71.1054 285.854 70.8691 285.122 70.8691 284.169C70.8691 283.554 70.9711 283.015 71.1752 282.553C71.3793 282.091 71.6891 281.745 72.1044 281.516C72.5234 281.283 72.9781 281.167 73.4687 281.167C74.0881 281.167 74.5948 281.325 74.9887 281.64C75.3826 281.951 75.635 282.395 75.746 282.972L74.8061 283.117C74.7166 282.734 74.5572 282.445 74.328 282.252C74.1025 282.059 73.8285 281.962 73.5063 281.962C73.0193 281.962 72.6236 282.137 72.3193 282.488C72.0149 282.836 71.8627 283.387 71.8627 284.143C71.8627 284.909 72.0095 285.466 72.3031 285.813C72.5968 286.16 72.9799 286.334 73.4526 286.334C73.8321 286.334 74.149 286.218 74.4032 285.985C74.6575 285.752 74.8186 285.394 74.8866 284.911ZM80.5693 285.163L81.5683 285.287C81.4107 285.87 81.1189 286.323 80.6928 286.646C80.2667 286.968 79.7224 287.129 79.06 287.129C78.2257 287.129 77.5632 286.873 77.0727 286.361C76.5857 285.845 76.3422 285.124 76.3422 284.196C76.3422 283.237 76.5893 282.492 77.0834 281.962C77.5776 281.432 78.2185 281.167 79.0063 281.167C79.769 281.167 80.392 281.427 80.8754 281.946C81.3588 282.465 81.6005 283.195 81.6005 284.137C81.6005 284.194 81.5987 284.28 81.5951 284.395H77.3412C77.377 285.022 77.5543 285.501 77.873 285.834C78.1917 286.167 78.5891 286.334 79.0654 286.334C79.4198 286.334 79.7224 286.241 79.9731 286.055C80.2237 285.868 80.4224 285.571 80.5693 285.163ZM77.3949 283.6H80.58C80.537 283.12 80.4153 282.76 80.2148 282.521C79.9068 282.148 79.5076 281.962 79.017 281.962C78.573 281.962 78.1988 282.111 77.8945 282.408C77.5937 282.705 77.4272 283.102 77.3949 283.6ZM82.4008 285.297L83.3569 285.147C83.4106 285.53 83.5592 285.824 83.8027 286.028C84.0497 286.232 84.3935 286.334 84.8339 286.334C85.2779 286.334 85.6073 286.244 85.8222 286.065C86.037 285.883 86.1445 285.67 86.1445 285.426C86.1445 285.208 86.0496 285.036 85.8598 284.911C85.7273 284.825 85.3979 284.715 84.8715 284.583C84.1625 284.404 83.6702 284.25 83.3945 284.121C83.1223 283.989 82.9146 283.808 82.7714 283.579C82.6318 283.346 82.5619 283.09 82.5619 282.811C82.5619 282.556 82.6192 282.322 82.7338 282.107C82.852 281.889 83.0113 281.708 83.2118 281.564C83.3622 281.453 83.5663 281.36 83.8241 281.285C84.0855 281.206 84.3648 281.167 84.662 281.167C85.1096 281.167 85.5017 281.231 85.8383 281.36C86.1785 281.489 86.4291 281.665 86.5903 281.887C86.7514 282.105 86.8624 282.399 86.9233 282.768L85.978 282.896C85.935 282.603 85.8097 282.374 85.602 282.209C85.3979 282.044 85.1078 281.962 84.7319 281.962C84.2878 281.962 83.971 282.035 83.7812 282.182C83.5914 282.329 83.4965 282.501 83.4965 282.698C83.4965 282.823 83.5359 282.936 83.6147 283.036C83.6934 283.14 83.817 283.226 83.9853 283.294C84.082 283.33 84.3666 283.412 84.8393 283.541C85.5232 283.724 85.9994 283.874 86.268 283.992C86.5401 284.107 86.7532 284.275 86.9072 284.497C87.0611 284.719 87.1381 284.995 87.1381 285.324C87.1381 285.646 87.0432 285.951 86.8534 286.237C86.6672 286.52 86.3969 286.74 86.0424 286.898C85.6879 287.052 85.2869 287.129 84.8393 287.129C84.0981 287.129 83.5323 286.975 83.142 286.667C82.7553 286.359 82.5082 285.903 82.4008 285.297ZM90.9892 284.148C90.9892 283.092 91.2828 282.309 91.87 281.801C92.3606 281.378 92.9586 281.167 93.664 281.167C94.4482 281.167 95.0891 281.425 95.5868 281.94C96.0846 282.452 96.3334 283.161 96.3334 284.067C96.3334 284.801 96.2224 285.38 96.0004 285.802C95.782 286.221 95.4615 286.547 95.039 286.78C94.62 287.013 94.1617 287.129 93.664 287.129C92.8655 287.129 92.2192 286.873 91.725 286.361C91.2345 285.849 90.9892 285.111 90.9892 284.148ZM91.9828 284.148C91.9828 284.878 92.1422 285.426 92.4609 285.792C92.7795 286.153 93.1806 286.334 93.664 286.334C94.1438 286.334 94.5431 286.151 94.8617 285.786C95.1804 285.421 95.3398 284.864 95.3398 284.116C95.3398 283.41 95.1786 282.877 94.8564 282.515C94.5377 282.15 94.1402 281.967 93.664 281.967C93.1806 281.967 92.7795 282.148 92.4609 282.51C92.1422 282.871 91.9828 283.417 91.9828 284.148ZM97.703 287V282.048H96.849V281.296H97.703V280.689C97.703 280.306 97.7371 280.021 97.8051 279.835C97.8982 279.584 98.0611 279.382 98.2939 279.228C98.5302 279.07 98.8596 278.992 99.2822 278.992C99.5543 278.992 99.8551 279.024 100.184 279.088L100.039 279.932C99.839 279.896 99.6492 279.878 99.4701 279.878C99.1765 279.878 98.9688 279.941 98.8471 280.066C98.7253 280.191 98.6645 280.426 98.6645 280.77V281.296H99.7763V282.048H98.6645V287H97.703ZM107.296 287V286.28C106.934 286.846 106.402 287.129 105.701 287.129C105.246 287.129 104.827 287.004 104.444 286.753C104.064 286.502 103.769 286.153 103.558 285.706C103.35 285.254 103.246 284.737 103.246 284.153C103.246 283.584 103.341 283.068 103.531 282.606C103.72 282.141 104.005 281.785 104.385 281.538C104.764 281.291 105.189 281.167 105.658 281.167C106.001 281.167 106.308 281.24 106.576 281.387C106.845 281.53 107.063 281.718 107.231 281.951V279.126H108.193V287H107.296ZM104.24 284.153C104.24 284.884 104.394 285.43 104.702 285.792C105.01 286.153 105.373 286.334 105.792 286.334C106.214 286.334 106.573 286.162 106.866 285.818C107.163 285.471 107.312 284.943 107.312 284.234C107.312 283.453 107.162 282.88 106.861 282.515C106.56 282.15 106.189 281.967 105.749 281.967C105.319 281.967 104.959 282.143 104.669 282.494C104.383 282.845 104.24 283.398 104.24 284.153ZM113.44 286.296C113.082 286.601 112.737 286.816 112.404 286.941C112.074 287.066 111.72 287.129 111.34 287.129C110.714 287.129 110.232 286.977 109.895 286.672C109.559 286.364 109.391 285.972 109.391 285.496C109.391 285.217 109.453 284.963 109.579 284.733C109.707 284.501 109.874 284.314 110.078 284.175C110.286 284.035 110.518 283.93 110.776 283.858C110.966 283.808 111.253 283.759 111.636 283.713C112.416 283.62 112.991 283.509 113.36 283.38C113.363 283.247 113.365 283.163 113.365 283.127C113.365 282.734 113.274 282.456 113.091 282.295C112.844 282.076 112.477 281.967 111.99 281.967C111.535 281.967 111.199 282.048 110.98 282.209C110.766 282.367 110.606 282.648 110.502 283.052L109.557 282.923C109.643 282.519 109.784 282.193 109.981 281.946C110.178 281.695 110.463 281.504 110.835 281.371C111.208 281.235 111.639 281.167 112.13 281.167C112.617 281.167 113.012 281.224 113.317 281.339C113.621 281.453 113.845 281.598 113.988 281.774C114.131 281.946 114.232 282.164 114.289 282.429C114.321 282.594 114.337 282.891 114.337 283.321V284.61C114.337 285.509 114.357 286.078 114.396 286.318C114.439 286.554 114.522 286.782 114.643 287H113.634C113.533 286.799 113.469 286.565 113.44 286.296ZM113.36 284.137C113.009 284.28 112.483 284.402 111.781 284.502C111.383 284.56 111.102 284.624 110.937 284.696C110.773 284.767 110.646 284.873 110.556 285.013C110.467 285.149 110.422 285.301 110.422 285.469C110.422 285.727 110.518 285.942 110.712 286.114C110.909 286.286 111.195 286.372 111.571 286.372C111.944 286.372 112.275 286.291 112.565 286.13C112.855 285.965 113.068 285.741 113.204 285.458C113.308 285.24 113.36 284.918 113.36 284.492V284.137ZM117.952 286.135L118.092 286.989C117.82 287.047 117.576 287.075 117.361 287.075C117.01 287.075 116.738 287.02 116.545 286.909C116.351 286.798 116.215 286.653 116.137 286.474C116.058 286.291 116.018 285.91 116.018 285.33V282.048H115.309V281.296H116.018V279.883L116.98 279.303V281.296H117.952V282.048H116.98V285.383C116.98 285.659 116.996 285.836 117.028 285.915C117.064 285.994 117.12 286.056 117.195 286.103C117.274 286.15 117.385 286.173 117.528 286.173C117.635 286.173 117.777 286.16 117.952 286.135ZM122.625 286.296C122.267 286.601 121.921 286.816 121.588 286.941C121.259 287.066 120.904 287.129 120.525 287.129C119.898 287.129 119.417 286.977 119.08 286.672C118.743 286.364 118.575 285.972 118.575 285.496C118.575 285.217 118.638 284.963 118.763 284.733C118.892 284.501 119.059 284.314 119.263 284.175C119.47 284.035 119.703 283.93 119.961 283.858C120.151 283.808 120.437 283.759 120.82 283.713C121.601 283.62 122.176 283.509 122.544 283.38C122.548 283.247 122.55 283.163 122.55 283.127C122.55 282.734 122.458 282.456 122.276 282.295C122.029 282.076 121.662 281.967 121.175 281.967C120.72 281.967 120.383 282.048 120.165 282.209C119.95 282.367 119.791 282.648 119.687 283.052L118.742 282.923C118.828 282.519 118.969 282.193 119.166 281.946C119.363 281.695 119.648 281.504 120.02 281.371C120.392 281.235 120.824 281.167 121.314 281.167C121.801 281.167 122.197 281.224 122.501 281.339C122.806 281.453 123.03 281.598 123.173 281.774C123.316 281.946 123.416 282.164 123.474 282.429C123.506 282.594 123.522 282.891 123.522 283.321V284.61C123.522 285.509 123.542 286.078 123.581 286.318C123.624 286.554 123.706 286.782 123.828 287H122.818C122.718 286.799 122.654 286.565 122.625 286.296ZM122.544 284.137C122.193 284.28 121.667 284.402 120.965 284.502C120.568 284.56 120.287 284.624 120.122 284.696C119.957 284.767 119.83 284.873 119.741 285.013C119.651 285.149 119.606 285.301 119.606 285.469C119.606 285.727 119.703 285.942 119.896 286.114C120.093 286.286 120.38 286.372 120.756 286.372C121.128 286.372 121.459 286.291 121.749 286.13C122.039 285.965 122.253 285.741 122.389 285.458C122.492 285.24 122.544 284.918 122.544 284.492V284.137Z" fill="black"/>
<path d="M446.464 92.4938L466.276 86.7366L466.276 78.2428L446.464 72.9999L427 79.0583L427 87.4338L446.464 92.4938Z" fill="white" stroke="#2D2D2D"/>
<path d="M446.812 84.5178L427 79.275L427 94.0206L446.812 99.2635L466.276 93.2051L466.276 78.5778L446.812 84.5178Z" fill="white" stroke="#2D2D2D"/>
<path d="M446.522 84.4615L446.522 98.6822" stroke="#2D2D2D"/>
<path d="M446.464 138.494L466.276 132.737L466.276 124.243L446.464 119L427 125.058L427 133.434L446.464 138.494Z" fill="white" stroke="#2D2D2D"/>
<path d="M446.812 130.518L427 125.275L427 140.021L446.812 145.263L466.276 139.205L466.276 124.578L446.812 130.518Z" fill="white" stroke="#2D2D2D"/>
<path d="M446.522 130.462L446.522 144.682" stroke="#2D2D2D"/>
<path d="M446.464 184.494L466.276 178.737L466.276 170.243L446.464 165L427 171.058L427 179.434L446.464 184.494Z" fill="white" stroke="#2D2D2D"/>
<path d="M446.812 176.518L427 171.275L427 186.021L446.812 191.263L466.276 185.205L466.276 170.578L446.812 176.518Z" fill="white" stroke="#2D2D2D"/>
<path d="M446.522 176.462L446.522 190.682" stroke="#2D2D2D"/>
<path d="M446.464 230.494L466.276 224.737L466.276 216.243L446.464 211L427 217.058L427 225.434L446.464 230.494Z" fill="white" stroke="#2D2D2D"/>
<path d="M446.812 222.518L427 217.275L427 232.021L446.812 237.263L466.276 231.205L466.276 216.578L446.812 222.518Z" fill="white" stroke="#2D2D2D"/>
<path d="M446.522 222.462L446.522 236.682" stroke="#2D2D2D"/>
<path d="M253.385 92.8206V97.8462L250.872 99.1026L247.103 95.3334L242.077 100.359L245.846 104.128L244.59 106.641H239.564V114.18H244.59L245.846 116.692L242.077 120.462L247.103 125.487L250.872 121.718L253.385 122.974V128H260.923V122.974L263.436 121.718L267.205 125.487L272.231 120.462L268.462 116.692L269.718 114.18H274.744V106.641H269.718L268.462 104.128L272.231 100.359L267.205 95.3334L263.436 99.1026L260.923 97.8462V92.8206H253.385Z" fill="white" stroke="black" stroke-linecap="round" stroke-linejoin="round"/>
<path d="M257.154 115.436C259.929 115.436 262.179 113.186 262.179 110.41C262.179 107.635 259.929 105.385 257.154 105.385C254.378 105.385 252.128 107.635 252.128 110.41C252.128 113.186 254.378 115.436 257.154 115.436Z" fill="white" stroke="black" stroke-linecap="round" stroke-linejoin="round"/>
<path d="M288.452 82.8405L287.513 86.3473L285.524 86.7542L283.599 83.4194L279.152 85.9865L281.078 89.3214L279.731 90.8399L276.224 89.9002L274.815 95.1605L278.322 96.1001L278.729 98.0885L275.394 100.014L277.961 104.46L281.296 102.535L282.814 103.881L281.875 107.388L287.135 108.798L288.074 105.291L290.063 104.884L291.988 108.219L296.435 105.652L294.509 102.317L295.856 100.798L299.363 101.738L300.772 96.4778L297.265 95.5382L296.858 93.5498L300.193 91.6244L297.626 87.178L294.291 89.1033L292.773 87.7568L293.712 84.25L288.452 82.8405Z" fill="white" stroke="black" stroke-linecap="round" stroke-linejoin="round"/>
<path d="M286.854 99.3259C288.791 99.8448 290.781 98.6955 291.3 96.7587C291.819 94.8219 290.67 92.8312 288.733 92.3122C286.796 91.7933 284.806 92.9426 284.287 94.8794C283.768 96.8162 284.917 98.8069 286.854 99.3259Z" fill="white" stroke="black" stroke-linecap="round" stroke-linejoin="round"/>
<path d="M268.123 90.9811C256.82 84.3641 242.292 88.1631 235.675 99.4663C232.262 105.297 231.62 111.985 233.35 118.003" stroke="black"/>
<path d="M284.795 113.436C293.405 115.643 302.174 110.451 304.38 101.841" stroke="black"/>
<path d="M170.354 224.354C170.549 224.158 170.549 223.842 170.354 223.646L167.172 220.464C166.976 220.269 166.66 220.269 166.464 220.464C166.269 220.66 166.269 220.976 166.464 221.172L169.293 224L166.464 226.828C166.269 227.024 166.269 227.34 166.464 227.536C166.66 227.731 166.976 227.731 167.172 227.536L170.354 224.354ZM170 223.5H118V224.5H170V223.5Z" fill="black"/>
<path d="M366.646 85.6464C366.451 85.8417 366.451 86.1583 366.646 86.3535L369.828 89.5355C370.024 89.7308 370.34 89.7308 370.536 89.5355C370.731 89.3403 370.731 89.0237 370.536 88.8284L367.707 86L370.536 83.1716C370.731 82.9763 370.731 82.6597 370.536 82.4645C370.34 82.2692 370.024 82.2692 369.828 82.4645L366.646 85.6464ZM367 86.5L419 86.5L419 85.5L367 85.5L367 86.5Z" fill="black"/>
<path d="M170.354 178.354C170.549 178.158 170.549 177.842 170.354 177.646L167.172 174.464C166.976 174.269 166.66 174.269 166.464 174.464C166.269 174.66 166.269 174.976 166.464 175.172L169.293 178L166.464 180.828C166.269 181.024 166.269 181.34 166.464 181.536C166.66 181.731 166.976 181.731 167.172 181.536L170.354 178.354ZM170 177.5H118V178.5H170V177.5Z" fill="black"/>
<path d="M366.646 131.646C366.451 131.842 366.451 132.158 366.646 132.354L369.828 135.536C370.024 135.731 370.34 135.731 370.536 135.536C370.731 135.34 370.731 135.024 370.536 134.828L367.707 132L370.536 129.172C370.731 128.976 370.731 128.66 370.536 128.464C370.34 128.269 370.024 128.269 369.828 128.464L366.646 131.646ZM367 132.5L419 132.5L419 131.5L367 131.5L367 132.5Z" fill="black"/>
<path d="M170.354 132.354C170.549 132.158 170.549 131.842 170.354 131.646L167.172 128.464C166.976 128.269 166.66 128.269 166.464 128.464C166.269 128.66 166.269 128.976 166.464 129.172L169.293 132L166.464 134.828C166.269 135.024 166.269 135.34 166.464 135.536C166.66 135.731 166.976 135.731 167.172 135.536L170.354 132.354ZM170 131.5H118V132.5H170V131.5Z" fill="black"/>
<path d="M366.646 177.646C366.451 177.842 366.451 178.158 366.646 178.354L369.828 181.536C370.024 181.731 370.34 181.731 370.536 181.536C370.731 181.34 370.731 181.024 370.536 180.828L367.707 178L370.536 175.172C370.731 174.976 370.731 174.66 370.536 174.464C370.34 174.269 370.024 174.269 369.828 174.464L366.646 177.646ZM367 178.5L419 178.5L419 177.5L367 177.5L367 178.5Z" fill="black"/>
<path d="M170.354 86.3536C170.549 86.1583 170.549 85.8417 170.354 85.6464L167.172 82.4645C166.976 82.2692 166.66 82.2692 166.464 82.4645C166.269 82.6597 166.269 82.9763 166.464 83.1716L169.293 86L166.464 88.8284C166.269 89.0237 166.269 89.3403 166.464 89.5355C166.66 89.7308 166.976 89.7308 167.172 89.5355L170.354 86.3536ZM170 85.5H118V86.5H170V85.5Z" fill="black"/>
<path d="M366.646 223.646C366.451 223.842 366.451 224.158 366.646 224.354L369.828 227.536C370.024 227.731 370.34 227.731 370.536 227.536C370.731 227.34 370.731 227.024 370.536 226.828L367.707 224L370.536 221.172C370.731 220.976 370.731 220.66 370.536 220.464C370.34 220.269 370.024 220.269 369.828 220.464L366.646 223.646ZM367 224.5L419 224.5L419 223.5L367 223.5L367 224.5Z" fill="black"/>
<path d="M66.5 212C66.5 210.619 67.6193 209.5 69 209.5H83.594C84.5137 209.5 85.3592 210.005 85.7952 210.815L87.1802 213.387C87.7907 214.521 88.9743 215.228 90.2619 215.228H107.059C108.44 215.228 109.559 216.347 109.559 217.728V235.96C109.559 237.341 108.44 238.46 107.059 238.46H69C67.6193 238.46 66.5 237.341 66.5 235.96V212Z" fill="white" stroke="black"/>
<circle cx="97.7224" cy="231.911" r="0.881177" fill="black"/>
<circle cx="101.247" cy="231.911" r="0.881177" fill="black"/>
<path d="M66.5 166C66.5 164.619 67.6193 163.5 69 163.5H83.594C84.5137 163.5 85.3592 164.005 85.7952 164.815L87.1802 167.387C87.7907 168.521 88.9743 169.228 90.2619 169.228H107.059C108.44 169.228 109.559 170.347 109.559 171.728V189.96C109.559 191.341 108.44 192.46 107.059 192.46H69C67.6193 192.46 66.5 191.341 66.5 189.96V166Z" fill="white" stroke="black"/>
<circle cx="97.7224" cy="185.911" r="0.881177" fill="black"/>
<circle cx="101.247" cy="185.911" r="0.881177" fill="black"/>
<path d="M66.5 120C66.5 118.619 67.6193 117.5 69 117.5H83.594C84.5137 117.5 85.3592 118.005 85.7952 118.815L87.1802 121.387C87.7907 122.521 88.9743 123.228 90.2619 123.228H107.059C108.44 123.228 109.559 124.347 109.559 125.728V143.96C109.559 145.341 108.44 146.46 107.059 146.46H69C67.6193 146.46 66.5 145.341 66.5 143.96V120Z" fill="white" stroke="black"/>
<circle cx="97.7224" cy="139.911" r="0.881177" fill="black"/>
<circle cx="101.247" cy="139.911" r="0.881177" fill="black"/>
<path d="M66.5 74C66.5 72.6193 67.6193 71.5 69 71.5H83.594C84.5137 71.5 85.3592 72.005 85.7952 72.8148L87.1802 75.387C87.7907 76.5207 88.9743 77.2276 90.2619 77.2276H107.059C108.44 77.2276 109.559 78.3469 109.559 79.7276V97.96C109.559 99.3407 108.44 100.46 107.059 100.46H69C67.6193 100.46 66.5 99.3407 66.5 97.96V74Z" fill="white" stroke="black"/>
<circle cx="97.7224" cy="93.9106" r="0.881177" fill="black"/>
<circle cx="101.247" cy="93.9106" r="0.881177" fill="black"/>
</svg>
