<svg width="108" height="50" viewBox="0 0 108 50" fill="none" xmlns="http://www.w3.org/2000/svg">
<rect width="108" height="50" rx="10" fill="white"/>
<path d="M26.3065 13.3202C25.9533 12.9639 25.463 12.7446 24.9168 12.7446C24.3718 12.7446 23.8855 12.9639 23.5367 13.3202H23.5276C23.1756 13.6736 22.957 14.167 22.957 14.7122C22.957 15.2606 23.1756 15.7509 23.5276 16.1009L23.5367 16.1106C23.8855 16.4637 24.3718 16.68 24.9168 16.68C25.463 16.68 25.9533 16.4637 26.3065 16.1106L26.3105 16.1009C26.6642 15.7509 26.8797 15.2606 26.8797 14.7122C26.8797 14.167 26.6642 13.6736 26.3105 13.3202H26.3065ZM24.9168 40.2554C25.463 40.2554 25.9533 40.032 26.3065 39.6823L26.3105 39.6722C26.6642 39.3232 26.8797 38.8298 26.8797 38.2876C26.8797 37.7393 26.6642 37.2481 26.3105 36.8928H26.3065C25.9533 36.5332 25.463 36.3159 24.9168 36.3159C24.3718 36.3159 23.8855 36.5332 23.5367 36.8928H23.5276C23.1756 37.2481 22.957 37.7393 22.957 38.2876C22.957 38.8298 23.1756 39.3232 23.5276 39.6722L23.5367 39.6823C23.8855 40.032 24.3718 40.2554 24.9168 40.2554ZM35.5942 34.2936C36.0796 34.1654 36.5191 33.8527 36.7873 33.3796L36.8235 33.3104C37.0621 32.8625 37.1059 32.3445 36.9783 31.885C36.8497 31.3942 36.5347 30.9587 36.0644 30.688L36.0369 30.6693C35.5786 30.4165 35.0571 30.3615 34.5779 30.4927C34.0905 30.6148 33.6524 30.9407 33.3857 31.4098C33.1155 31.8759 33.059 32.4116 33.1882 32.9049C33.3219 33.3902 33.6343 33.8284 34.1016 34.1023H34.1046C34.5728 34.3728 35.1024 34.4211 35.5942 34.2936H35.5942ZM26.9269 24.4835C26.4125 23.9685 25.7025 23.6457 24.9168 23.6457C24.1321 23.6457 23.4242 23.9685 22.9108 24.4835C22.3988 24.9981 22.0833 25.7077 22.0833 26.4967C22.0833 27.2856 22.3988 27.9984 22.9108 28.519C23.4242 29.0309 24.1321 29.3508 24.9168 29.3508C25.7025 29.3508 26.4125 29.0309 26.9269 28.519C27.4399 27.9984 27.7554 27.2856 27.7554 26.4967C27.7554 25.7077 27.4399 24.9981 26.9269 24.4835ZM25.7965 21.1301C26.9369 21.3187 27.9613 21.8671 28.7441 22.659H28.7501C28.8747 22.7836 28.9958 22.9207 29.1083 23.058L31.0651 21.9216C30.8019 21.1235 30.7898 20.2891 31.0012 19.5063C31.2801 18.4587 31.9569 17.5204 32.9711 16.9328L33.0044 16.9115C34.0077 16.3416 35.1481 16.2231 36.1775 16.503C37.2199 16.7835 38.1604 17.466 38.7457 18.4829V18.4859C39.3285 19.4973 39.4466 20.658 39.1687 21.7026C38.8914 22.7503 38.2121 23.6946 37.1988 24.2792L36.9315 24.4375H36.9044C35.9669 24.8856 34.9365 24.9557 33.99 24.7055C33.2128 24.4986 32.5 24.0628 31.9417 23.4448L29.988 24.5778C30.2125 25.1746 30.3366 25.8173 30.3366 26.4967C30.3366 27.1726 30.2125 27.8248 29.988 28.4245L31.9417 29.5546C32.5 28.9269 33.2128 28.5008 33.99 28.2935C35.033 28.0074 36.1885 28.129 37.1988 28.7202L37.2636 28.7504V28.7534C38.2393 29.3477 38.8944 30.2643 39.1687 31.2998C39.4466 32.3385 39.3285 33.4996 38.7457 34.513L38.7105 34.5836L38.7064 34.5776C38.1213 35.5547 37.1987 36.2165 36.1804 36.4964C35.136 36.7728 33.9799 36.6547 32.9711 36.0721V36.0641C31.9568 35.4754 31.2801 34.5352 31.0012 33.4895C30.7898 32.7103 30.8018 31.8759 31.0651 31.0778L29.1083 29.9444C28.9958 30.0816 28.8746 30.2127 28.7501 30.3373L28.7441 30.3434C27.9613 31.1323 26.9369 31.6807 25.7965 31.8632V34.1331C26.6094 34.3037 27.3368 34.7118 27.907 35.2843L27.9101 35.2903C28.6743 36.054 29.1475 37.1179 29.1475 38.2876C29.1475 39.4534 28.6743 40.5112 27.9101 41.2789L27.907 41.2908C27.1373 42.0581 26.0819 42.5333 24.9167 42.5333C23.7577 42.5333 22.6992 42.0581 21.9316 41.2908H21.9285V41.2789C21.1634 40.5112 20.6891 39.4534 20.6891 38.2876C20.6891 37.1179 21.1634 36.054 21.9285 35.2903V35.2843H21.9316C22.5012 34.7118 23.2302 34.3037 24.0402 34.1331V31.8632C22.8997 31.6807 21.8773 31.1323 21.0956 30.3434L21.0876 30.3373C20.1114 29.3537 19.5 27.9984 19.5 26.4967C19.5 24.9981 20.1114 23.6425 21.0876 22.659H21.0956C21.8773 21.8671 22.8997 21.3187 24.0402 21.1301V18.8698C23.2302 18.6933 22.5012 18.2852 21.9316 17.7156H21.9285V17.7096C21.1634 16.9388 20.6892 15.8821 20.6892 14.7122C20.6892 13.5485 21.1634 12.4825 21.9285 11.715L21.9316 11.7119C22.6993 10.9415 23.7578 10.4667 24.9168 10.4667C26.0819 10.4667 27.1373 10.9415 27.907 11.7119V11.715H27.9101C28.6743 12.4825 29.1475 13.5485 29.1475 14.7122C29.1475 15.8821 28.6743 16.9388 27.9101 17.7096L27.907 17.7156C27.3369 18.2852 26.6094 18.6933 25.7965 18.8698V21.1301ZM36.7873 19.6224L36.7709 19.5976C36.5011 19.1412 36.0705 18.8365 35.5942 18.7052C35.1024 18.5742 34.5728 18.6291 34.1016 18.9005H34.1046C33.6343 19.1684 33.3199 19.6068 33.1882 20.0975C33.059 20.5848 33.1154 21.1235 33.3857 21.5927L33.3947 21.6048C33.6655 22.0678 34.0965 22.3785 34.5779 22.5036C35.0611 22.6408 35.6002 22.5829 36.0644 22.3114L36.0896 22.2993C36.5467 22.0254 36.8513 21.5927 36.9783 21.1175C37.1079 20.6272 37.0561 20.0914 36.7873 19.6224" fill="#231F20"/>
<path d="M45.4693 20.2862H47.6526V26.978L50.8012 23.4813H53.419L49.6179 27.5323L53.4348 32.6673H50.9349L47.6526 28.0806V32.6673H45.4693V20.2862Z" fill="#231F20"/>
<path d="M55.9553 28.1139C55.9553 29.2534 56.7715 30.9099 58.7381 30.9099C59.955 30.9099 60.7558 30.2733 61.1711 29.439C61.3886 29.034 61.4887 28.6011 61.5223 28.1506C61.5374 27.7148 61.4555 27.2614 61.2709 26.8589C60.8882 25.9912 60.0387 25.2387 58.722 25.2387C56.9564 25.2387 55.9553 26.6763 55.9553 28.0987V28.1139ZM63.6882 32.6673H61.5038V31.3458C60.9225 32.4146 59.7053 32.9508 58.4216 32.9508C55.4882 32.9508 53.7723 30.6572 53.7723 28.0655C53.7723 25.1716 55.8551 23.1977 58.4216 23.1977C60.088 23.1977 61.1043 24.0844 61.5038 24.8215V23.4813H63.6882V32.6673Z" fill="#231F20"/>
<path d="M66.1603 25.1716H65.0288V23.4813H66.1603V22.9637C66.1603 20.2343 68.2274 20.0698 69.7947 20.0516V21.7389C69.2436 21.7389 68.3447 21.7389 68.3447 23.0303V23.4813H69.7947V25.1716H68.3447V32.6673H66.1603V25.1716Z" fill="#231F20"/>
<path d="M71.2794 20.2862H73.4621V26.978L76.6112 23.4813H79.2291L75.428 27.5323L79.2442 32.6673H76.7443L73.4621 28.0806V32.6673H71.2794V20.2862Z" fill="#231F20"/>
<path d="M81.7653 28.1139C81.7653 29.2534 82.5813 30.9099 84.5482 30.9099C85.7633 30.9099 86.5641 30.2733 86.9802 29.439C87.1983 29.034 87.2988 28.6011 87.3317 28.1506C87.3468 27.7148 87.2648 27.2614 87.08 26.8589C86.6979 25.9912 85.8484 25.2387 84.5321 25.2387C82.7661 25.2387 81.7653 26.6763 81.7653 28.0987V28.1139ZM89.4976 32.6673H87.3139V31.3458C86.7308 32.4146 85.5147 32.9508 84.2316 32.9508C81.2982 32.9508 79.5837 30.6572 79.5837 28.0655C79.5837 25.1716 81.6659 23.1977 84.2316 23.1977C85.8971 23.1977 86.9143 24.0844 87.3139 24.8215V23.4813H89.4976V32.6673Z" fill="#231F20"/>
</svg>
