<svg width="140" height="50" fill="none" xmlns="http://www.w3.org/2000/svg"><rect width="140" height="50" rx="10" fill="#fff"/><g clip-path="url(#a)"><path d="M65.37 25.482c-.495 0-.902.101-1.223.303-.32.202-.48.51-.48.924 0 .404.16.717.48.938.32.212 1 .443 2.039.693 1.048.25 1.835.602 2.36 1.054.533.452.8 1.121.8 2.007 0 .875-.335 1.587-1.005 2.136-.67.549-1.548.823-2.635.823-1.592 0-3.005-.544-4.238-1.631l1.077-1.285c1.03.885 2.097 1.328 3.204 1.328.553 0 .99-.115 1.31-.346.33-.241.495-.554.495-.939 0-.394-.155-.698-.466-.91-.3-.22-.825-.418-1.572-.591-.748-.183-1.316-.347-1.704-.49a4 4 0 0 1-1.033-.593c-.602-.452-.903-1.145-.903-2.078 0-.934.34-1.65 1.02-2.151.688-.51 1.538-.765 2.547-.765.65 0 1.297.106 1.937.317.641.212 1.194.51 1.66.895l-.917 1.285c-.3-.27-.709-.491-1.223-.664a4.77 4.77 0 0 0-1.53-.26Zm9.92.207v8.53h-1.718v-8.53h-3.087V24.13h7.893v1.559H75.29Zm11.955.828c-.69-.712-1.538-1.068-2.548-1.068s-1.864.356-2.563 1.068c-.69.712-1.034 1.579-1.034 2.599 0 1.01.345 1.872 1.034 2.584.699.712 1.553 1.068 2.563 1.068 1.01 0 1.859-.356 2.548-1.068.699-.712 1.048-1.574 1.048-2.584 0-1.02-.35-1.887-1.048-2.599Zm1.267 6.325c-1.03.99-2.3 1.486-3.815 1.486-1.514 0-2.786-.495-3.815-1.486-1.03-1.001-1.544-2.243-1.544-3.725 0-1.491.514-2.733 1.544-3.724 1.029-1 2.3-1.501 3.815-1.501 1.514 0 2.786.5 3.815 1.501 1.03.991 1.544 2.233 1.544 3.724 0 1.482-.515 2.724-1.544 3.725Zm11.837-5.393c0 1.664-.733 2.713-2.199 3.146l2.665 3.667H98.63L96.2 30.87h-2.257v3.392h-1.718V24.17h3.785c1.554 0 2.665.26 3.335.78.67.52 1.005 1.352 1.005 2.497v.002Zm-4.266 1.876c.97 0 1.63-.149 1.98-.447.35-.299.524-.775.524-1.43 0-.663-.18-1.116-.539-1.356-.359-.25-1-.375-1.922-.375h-2.184v3.608h2.14Zm8.442 4.904h-1.718V24.136h2.68l3.072 6.335 3.072-6.335h2.665V34.23h-1.718v-7.883l-3.553 7.003h-.961l-3.539-7.003v7.883ZM67.459 21.497l-.727-1.63h-3.501l-.717 1.63h-.78l2.885-6.376h.763l2.876 6.376h-.8Zm-3.925-2.305h2.905l-1.462-3.28-1.443 3.28Zm8.154-4.061c.796 0 1.412.188 1.846.565.442.37.662.896.662 1.576 0 .699-.22 1.243-.662 1.631-.434.389-1.05.583-1.847.583h-1.682v2.023h-.735v-6.376l2.418-.002Zm-.028 3.68c.582 0 1.032-.127 1.351-.382.319-.261.478-.64.478-1.139 0-.486-.16-.853-.478-1.102-.319-.255-.769-.383-1.351-.383h-1.654v3.006h1.654Zm8.224 2.686-.726-1.63h-3.502l-.717 1.63h-.78l2.885-6.376h.763l2.877 6.376h-.8Zm-3.924-2.305h2.904l-1.462-3.28-1.442 3.28Zm10.24-2.664a2.72 2.72 0 0 0-.881-.583 2.505 2.505 0 0 0-1.02-.219c-.478 0-.92.116-1.324.347a2.517 2.517 0 0 0-.946.93c-.233.394-.35.825-.35 1.293 0 .462.117.89.35 1.285.232.394.548.707.946.938a2.702 2.702 0 0 0 2.344.146c.33-.14.625-.331.882-.574l.45.483a3.757 3.757 0 0 1-1.112.72c-.41.17-.836.255-1.277.255a3.358 3.358 0 0 1-1.673-.428 3.323 3.323 0 0 1-1.213-1.185 3.168 3.168 0 0 1-.441-1.64c0-.59.15-1.13.45-1.622.3-.498.705-.89 1.213-1.176a3.372 3.372 0 0 1 1.691-.437c.435 0 .858.082 1.268.246.41.164.772.395 1.085.692l-.441.53Zm1.724-1.397h.735v2.889h3.878v-2.89h.735v6.376h-.735v-2.824H88.66v2.824h-.735V15.13Zm7.309 0h4.365v.674h-3.63v2.142h3.244v.665h-3.244v2.223h3.75v.674h-4.485V15.13Z" fill="#3C3C3B"/><path d="M32.955 42.824c.025-.069 2.225-1.81 4.888-3.868 5.91-4.567 5.586-4.313 5.586-4.412 0-.044-2.151-.097-4.78-.117l-4.782-.036 1.432-1.084c.787-.597 2.617-2.025 4.066-3.173L42 28.047l3.72-.051c3.403-.047 3.787-.077 4.527-.349 1.65-.608 2.5-1.667 2.504-3.124.004-1.22-.526-2.026-1.73-2.631-1.088-.548-2.055-.713-4.17-.714l-1.62-.001.55-.845c.652-.998.874-1.692.872-2.716-.002-1.006-.395-1.84-1.267-2.691-2.234-2.18-6.276-2.759-9.257-1.327-1.093.525-4.602 3.276-3.819 2.993.152-.055 1.116-.13 2.141-.167 2.953-.106 4.69.386 6.13 1.737 1.849 1.733 2.409 4.49 1.346 6.63-1.106 2.227-3.801 3.6-7.961 4.052-.85.093-3.61.135-7.184.11l-5.8-.04 1.864-1.444c1.025-.795 2.96-2.289 4.302-3.32l2.438-1.877h3.091l-.737.59a253.85 253.85 0 0 1-3.07 2.362l-2.331 1.772 3.091.042c4.332.059 6.312-.206 8.254-1.102 1.109-.512 1.877-1.196 2.323-2.069.297-.582.34-.824.297-1.652-.135-2.547-1.988-3.914-5.304-3.914-2.5 0-5.008.636-8.829 2.237-.987.413-1.813.734-1.836.712-.09-.088 6.787-6.583 8.124-7.67 1.26-1.024 2.577-1.788 3.83-2.22.977-.336 1.258-.37 3.144-.374 1.756-.004 2.24.043 3.17.308 4.446 1.269 7.068 4.816 5.81 7.867-.087.21-.009.24.65.24 2.113 0 4.254 1.261 5.044 2.973 1.133 2.453.049 5.424-2.433 6.671-1.3.653-2.18.785-5.748.857l-3.315.069-3.576 2.642 9.653.137-.759.578c-.417.318-2.882 2.206-5.476 4.196-2.595 1.99-5.258 4.025-5.916 4.522l-1.196.906h-1.315c-.737 0-1.294-.055-1.268-.126l-.003-.002Z" fill="#225593"/><path d="m41.987 28.023 3.199-.07L42.8 29.94l-3.197-.028 2.384-1.89Z" fill="#7A7572"/><path d="M39.747 29.896c-.214-.03-.317.21-.485.296a312.08 312.08 0 0 1-5.336 4.134c.089.116.402.024.575.061 2.515.051 5.03.027 7.544.097.452.027.932-.015 1.368.082-.708.637-1.493 1.193-2.239 1.79l-7.596 5.92-.862.696 2.796-.004c.086-.06.203-.149.292-.198l.111-.092s9.695-7.406 12.974-9.921c-.065-.112-.342-.02-.492-.048-3.022-.03-6.045-.071-9.068-.133 1.13-.89 2.323-1.713 3.458-2.59-.224-.068-.511-.018-.76-.041-.762-.013-1.524-.032-2.286-.047l.006-.002Z" fill="#EA9941"/><path d="M24.712 21.046c.258-.295 3.776-3.68 3.95-3.802.212-.147 2.089-.548 3.1-.662.182-.02.372-.044.422-.052.072-.012.005.069-.326.39a9.3 9.3 0 0 0-1.55 1.931c-.145.24-.214.323-.285.34-.392.098-2.376.843-3.686 1.384-.87.36-1.688.674-1.755.674-.027 0 .032-.091.13-.203Z" fill="#326BA3"/><path d="M35.153 16.44a25.57 25.57 0 0 0-2.943.17c-.36.254-.628.62-.931.935-.436.495-.82 1.039-1.15 1.606.053.096.221-.037.315-.034 1.623-.458 3.298-.796 4.993-.732.951-.006 1.918.154 2.791.524.96.409 1.756 1.212 2.054 2.216.2.678.287 1.414.157 2.114-.323 1.217-1.332 2.141-2.457 2.665-1.519.746-3.228 1.012-4.908 1.101-2.145.04-4.292.073-6.437 0 1.998-1.528 4.018-3.031 5.978-4.61.122-.107-.114-.098-.18-.097a88.177 88.177 0 0 0-2.85-.009c-2.858 2.207-5.721 4.41-8.577 6.625.09.116.402.024.574.06 3.419.049 6.84.019 10.259 0 1.057.003 2.118-.014 3.163-.198 1.915-.31 3.876-.847 5.419-2.066 1.086-.86 1.873-2.134 2.017-3.516.053-.903.04-1.835-.31-2.685a6.007 6.007 0 0 0-1.694-2.46c-.983-.902-2.29-1.38-3.609-1.526a12.625 12.625 0 0 0-1.673-.08v-.004Z" fill="#318FBF"/><path d="M115.912 24.353v1.079h-.218v-1.08h-.39v-.197h.998v.198h-.39Zm.84 1.035h-.217v-1.276h.339l.388.801.389-.801h.337v1.276h-.217v-.997l-.45.886h-.121l-.448-.886v.997Z" fill="#3C3C3B"/></g><defs><clipPath id="a"><path fill="#fff" transform="translate(21 11)" d="M0 0h97v32H0z"/></clipPath></defs></svg>