<svg xmlns="http://www.w3.org/2000/svg" viewBox="0 0 128 18" width="512" height="72">
  <path fill="#0e72db" d="M34.43 1.88c1.82 1.75 2 4.77 2 7.07 0 2.3-.2 5.34-2 7.07-1.89 1.86-4.89 1.86-6.9 1.86-2.06 0-4.98 0-6.9-1.86-2.01-1.95-2.01-5.1-2.01-7.07 0-2.37.12-5.3 2.01-7.07C22.57.02 25.42.02 27.53.02c2.04 0 4.99 0 6.9 1.86zM23.06 13.8c1 1.3 2.65 1.43 4.45 1.43 1.79 0 3.43-.12 4.47-1.43.56-.72 1.05-2.06 1.05-4.85 0-3.02-.51-4.2-1.05-4.87-1.01-1.26-2.73-1.41-4.47-1.41-1.82 0-3.44.15-4.45 1.4-.66.85-1.05 2.23-1.05 4.88-.03 2.84.46 4.13 1.05 4.85zM37.62.37h16.75v2.9H47.4L47.42 18h-2.85l-.02-14.74h-6.93V.37zM16.43 8.95c0 6.95-2.26 8.95-8.6 8.95-3.02 0-5.55-.1-7.83-.25V.25A138 138 0 017.83 0c6.34 0 8.6 2 8.6 8.95zm-3.3-.05c0-4.72-1.27-6.06-5.32-6.06h-4.7v12.07c1.4.02 2.98.05 4.7.05 4.05 0 5.33-1.34 5.33-6.06zM59.77 17.73V4.6l9.53 12.53s.52.7 2.14.6c1.52-.1 1.94-1.41 1.94-2.2V.13h-2.9l.13 13.37-9.24-12.46S60.83.1 59.36.1C57.7.1 56.7 1.28 56.7 2.37v15.36h3.06zM74.85 8.95v6.5s-.2 2.38 2.9 2.3c3.07-.05 12.7 0 12.7 0v-2.99H78.19v-4.33h11.94V7.52l-11.94.02V3.02h12.26V.12H77.21s-2.3.15-2.33 2.4c-.05 2.33-.03 6.43-.03 6.43zM92.1.12h3.85l4.96 6.4 5.06-6.4h3.76l-6.83 8.93 6.73 8.68-3.9.02-4.82-6.25-4.79 6.25-4.02-.02 6.75-8.78L92.1.12zM111.25.12H128v2.9h-6.97l.02 14.73h-2.87V3.02h-6.93V.12z"/>
</svg>
