<svg width="49" height="48" fill="none" xmlns="http://www.w3.org/2000/svg"><path fill="#F6F6F6" d="M.987 0h48v48h-48z"/><path d="M.987 2.88A2.88 2.88 0 0 1 3.867 0h11.895a2.88 2.88 0 0 1 2.88 2.88v8.422a2.88 2.88 0 0 1-2.88 2.88H3.867a2.88 2.88 0 0 1-2.88-2.88V2.88Z" fill="#fff"/><path fill-rule="evenodd" clip-rule="evenodd" d="M15.762 1.92H3.867a.96.96 0 0 0-.96.96v8.422c0 .53.43.96.96.96h11.895c.53 0 .96-.43.96-.96V2.88a.96.96 0 0 0-.96-.96ZM3.867 0a2.88 2.88 0 0 0-2.88 2.88v8.422a2.88 2.88 0 0 0 2.88 2.88h11.895a2.88 2.88 0 0 0 2.88-2.88V2.88A2.88 2.88 0 0 0 15.762 0H3.867Z" fill="#000"/><path d="M20.85 2.88A2.88 2.88 0 0 1 23.73 0h22.377a2.88 2.88 0 0 1 2.88 2.88v8.422a2.88 2.88 0 0 1-2.88 2.88H23.73a2.88 2.88 0 0 1-2.88-2.88V2.88Z" fill="#fff"/><path fill-rule="evenodd" clip-rule="evenodd" d="M46.107 1.92H23.73a.96.96 0 0 0-.96.96v8.422c0 .53.43.96.96.96h22.378c.53 0 .96-.43.96-.96V2.88a.96.96 0 0 0-.96-.96ZM23.73 0a2.88 2.88 0 0 0-2.88 2.88v8.422a2.88 2.88 0 0 0 2.88 2.88h22.378a2.88 2.88 0 0 0 2.88-2.88V2.88A2.88 2.88 0 0 0 46.107 0H23.73Z" fill="#000"/><path d="M.987 19.79a2.88 2.88 0 0 1 2.88-2.88h11.895a2.88 2.88 0 0 1 2.88 2.88v8.42a2.88 2.88 0 0 1-2.88 2.88H3.867a2.88 2.88 0 0 1-2.88-2.88v-8.42Z" fill="#fff"/><path fill-rule="evenodd" clip-rule="evenodd" d="M15.762 18.83H3.867a.96.96 0 0 0-.96.96v8.42c0 .531.43.96.96.96h11.895a.96.96 0 0 0 .96-.96v-8.42a.96.96 0 0 0-.96-.96ZM3.867 16.91a2.88 2.88 0 0 0-2.88 2.88v8.42a2.88 2.88 0 0 0 2.88 2.88h11.895a2.88 2.88 0 0 0 2.88-2.88v-8.42a2.88 2.88 0 0 0-2.88-2.88H3.867Z" fill="#000"/><path d="M20.85 19.789a2.88 2.88 0 0 1 2.88-2.88h22.377a2.88 2.88 0 0 1 2.88 2.88v8.422a2.88 2.88 0 0 1-2.88 2.88H23.73a2.88 2.88 0 0 1-2.88-2.88v-8.422Z" fill="#fff"/><path fill-rule="evenodd" clip-rule="evenodd" d="M46.107 18.829H23.73a.96.96 0 0 0-.96.96v8.422c0 .53.43.96.96.96h22.378c.53 0 .96-.43.96-.96v-8.422a.96.96 0 0 0-.96-.96Zm-22.378-1.92a2.88 2.88 0 0 0-2.88 2.88v8.422a2.88 2.88 0 0 0 2.88 2.88h22.378a2.88 2.88 0 0 0 2.88-2.88v-8.422a2.88 2.88 0 0 0-2.88-2.88H23.73Z" fill="#000"/><path d="M.987 36.698a2.88 2.88 0 0 1 2.88-2.88h11.895a2.88 2.88 0 0 1 2.88 2.88v8.422a2.88 2.88 0 0 1-2.88 2.88H3.867a2.88 2.88 0 0 1-2.88-2.88v-8.422Z" fill="#fff"/><path fill-rule="evenodd" clip-rule="evenodd" d="M15.762 35.738H3.867a.96.96 0 0 0-.96.96v8.422c0 .53.43.96.96.96h11.895c.53 0 .96-.43.96-.96v-8.422a.96.96 0 0 0-.96-.96Zm-11.895-1.92a2.88 2.88 0 0 0-2.88 2.88v8.422A2.88 2.88 0 0 0 3.867 48h11.895a2.88 2.88 0 0 0 2.88-2.88v-8.422a2.88 2.88 0 0 0-2.88-2.88H3.867Z" fill="#000"/><path fill-rule="evenodd" clip-rule="evenodd" d="M11.829 4.691h20.8v4.8h-20.8v-4.8Z" fill="#FDFDFD"/><path fill-rule="evenodd" clip-rule="evenodd" d="M12.165 6.131h17.92v1.92h-17.92v-1.92Z" fill="#F41921"/><path fill-rule="evenodd" clip-rule="evenodd" d="m28.482 2.473 3.503 4.618-3.503 4.618-1.53-1.16 2.623-3.458-2.622-3.457 1.53-1.16Z" fill="#F41921"/><path fill-rule="evenodd" clip-rule="evenodd" d="M11.829 21.6h20.8v4.8h-20.8v-4.8Z" fill="#FDFDFD"/><path fill-rule="evenodd" clip-rule="evenodd" d="M12.165 23.04h17.92v1.92h-17.92v-1.92Z" fill="#F41921"/><path fill-rule="evenodd" clip-rule="evenodd" d="M28.482 19.382 31.985 24l-3.503 4.618-1.53-1.16L29.576 24l-2.622-3.457 1.53-1.16Z" fill="#F41921"/><path d="M20.85 36.698a2.88 2.88 0 0 1 2.88-2.88h22.377a2.88 2.88 0 0 1 2.88 2.88v8.422a2.88 2.88 0 0 1-2.88 2.88H23.73a2.88 2.88 0 0 1-2.88-2.88v-8.422Z" fill="#fff"/><path fill-rule="evenodd" clip-rule="evenodd" d="M46.107 35.738H23.73a.96.96 0 0 0-.96.96v8.422c0 .53.43.96.96.96h22.378c.53 0 .96-.43.96-.96v-8.422a.96.96 0 0 0-.96-.96Zm-22.378-1.92a2.88 2.88 0 0 0-2.88 2.88v8.422A2.88 2.88 0 0 0 23.73 48h22.378a2.88 2.88 0 0 0 2.88-2.88v-8.422a2.88 2.88 0 0 0-2.88-2.88H23.73Z" fill="#000"/><path fill-rule="evenodd" clip-rule="evenodd" d="M11.829 38.51h20.8v4.8h-20.8v-4.8Z" fill="#FDFDFD"/><path fill-rule="evenodd" clip-rule="evenodd" d="M12.165 39.95h17.92v1.92h-17.92v-1.92Z" fill="#F41921"/><path fill-rule="evenodd" clip-rule="evenodd" d="m28.482 36.291 3.503 4.618-3.503 4.618-1.53-1.16 2.623-3.458-2.622-3.457 1.53-1.16Z" fill="#F41921"/></svg>