<svg width="49" height="48" fill="none" xmlns="http://www.w3.org/2000/svg"><path fill-rule="evenodd" clip-rule="evenodd" d="M8.591 7.902a7.902 7.902 0 1 1 15.805 0v32.196a7.902 7.902 0 0 1-15.805 0V38.02a7.903 7.903 0 0 1-7.61-7.898v-.402c0-2.25.94-4.282 2.45-5.721a7.88 7.88 0 0 1-2.45-5.72v-.404a7.903 7.903 0 0 1 7.61-7.897V7.902Z" fill="#fff"/><path fill-rule="evenodd" clip-rule="evenodd" d="M8.664 36.022a2 2 0 0 1 1.927 1.999v2.077a5.902 5.902 0 0 0 11.805 0V7.902a5.902 5.902 0 1 0-11.805 0V9.98a2 2 0 0 1-1.927 2 5.903 5.903 0 0 0-5.683 5.898v.402c0 1.682.7 3.196 1.83 4.273a2 2 0 0 1 0 2.896 5.88 5.88 0 0 0-1.83 4.273v.402a5.903 5.903 0 0 0 5.683 5.899ZM2.907 24.55a7.872 7.872 0 0 0-1.926 5.17v.404a7.903 7.903 0 0 0 7.61 7.897v2.077a7.902 7.902 0 0 0 15.805 0V7.902a7.902 7.902 0 1 0-15.805 0V9.98a7.903 7.903 0 0 0-7.61 7.898v.402A7.872 7.872 0 0 0 3.431 24a7.947 7.947 0 0 0-.524.55Z" fill="#000"/><path fill-rule="evenodd" clip-rule="evenodd" d="M41.37 40.098a7.902 7.902 0 0 1-15.804 0V7.902a7.902 7.902 0 1 1 15.805 0V9.98a7.903 7.903 0 0 1 7.61 7.898v.402a7.88 7.88 0 0 1-2.45 5.72 7.88 7.88 0 0 1 2.45 5.72v.404a7.903 7.903 0 0 1-7.61 7.897v2.077Z" fill="#fff"/><path fill-rule="evenodd" clip-rule="evenodd" d="M41.298 11.978a2 2 0 0 1-1.927-1.999V7.902a5.903 5.903 0 0 0-11.805 0v32.196a5.902 5.902 0 0 0 11.805 0V38.02a2 2 0 0 1 1.927-2 5.903 5.903 0 0 0 5.683-5.898v-.402a5.88 5.88 0 0 0-1.83-4.273 2 2 0 0 1 0-2.896 5.88 5.88 0 0 0 1.83-4.273v-.402a5.903 5.903 0 0 0-5.683-5.899Zm5.757 11.472a7.872 7.872 0 0 0 1.926-5.17v-.404a7.903 7.903 0 0 0-7.61-7.897V7.902a7.902 7.902 0 0 0-15.805 0v32.196a7.902 7.902 0 1 0 15.805 0V38.02a7.903 7.903 0 0 0 7.61-7.898v-.402a7.872 7.872 0 0 0-2.45-5.72c.183-.175.358-.358.524-.55Z" fill="#000"/><path fill-rule="evenodd" clip-rule="evenodd" d="M33.075 14.172a1.41 1.41 0 1 0 0-2.821 1.41 1.41 0 0 0 0 2.821Zm0 2a3.41 3.41 0 1 0 0-6.821 3.41 3.41 0 0 0 0 6.821Zm5.854 8.598a1.41 1.41 0 1 0 0-2.822 1.41 1.41 0 0 0 0 2.822Zm0 2a3.41 3.41 0 1 0 0-6.822 3.41 3.41 0 0 0 0 6.822Zm-5.854 9.844a1.41 1.41 0 1 0 0-2.822 1.41 1.41 0 0 0 0 2.822Zm0 2a3.41 3.41 0 1 0 0-6.822 3.41 3.41 0 0 0 0 6.822Z" fill="#ED1C24"/><path fill-rule="evenodd" clip-rule="evenodd" d="M27.569 23h9.423v2h-9.423v-2Zm0-10.667h4.09v2h-4.09v-2Zm0 22h4.09v2h-4.09v-2Z" fill="#ED1C24"/></svg>