<svg width="48" height="48" fill="none" xmlns="http://www.w3.org/2000/svg"><path d="M43.24 38.594A23.45 23.45 0 0 0 48 24.408c0-5.41-1.83-10.396-4.913-14.388l-1.388 1.51a21.467 21.467 0 0 1 4.274 12.878c0 4.73-1.528 9.106-4.123 12.672l1.39 1.514Zm-36.633-.908L5.225 39.19A23.463 23.463 0 0 1 0 24.408c0-5.68 2.018-10.893 5.384-14.978l1.38 1.501a21.48 21.48 0 0 0-4.737 13.477c0 5 1.708 9.606 4.58 13.278Zm31.839-3.64a17.315 17.315 0 0 0 3.1-9.908c0-3.677-1.144-7.09-3.1-9.908l-1.406 1.53a15.33 15.33 0 0 1 2.48 8.378c0 3.086-.91 5.962-2.48 8.379l1.406 1.53Z" fill="#000"/><path d="m10.587 32.517-1.406 1.53a17.316 17.316 0 0 1-3.101-9.909c0-3.677 1.145-7.09 3.1-9.908l1.407 1.53a15.33 15.33 0 0 0-2.48 8.378c0 3.086.91 5.962 2.48 8.379Z" fill="#000"/><path d="M19.31 14.959s-11.582 6.894-.666 13.74c2.1 1.333 9.716 5.04 9.5 8.471 0 0 4.616-6.666-2.134-10.862-6.933-4.292-8.666-8.878-6.7-11.35Z" fill="#ED1C24"/><path d="M15.277 28.13s-4.133 6.113 4 7.366c.8.097 6.683.699 8.216 2.585 0 0-.133-3.252-4.933-5.17-4.783-1.92-6.75-2.391-7.283-4.782Zm16-6.423c-4.967-5.074-6.35-8.212-4.217-12.277 0 0-14.815 5.561-.183 15.431C32.11 28.39 31.243 32 31.243 32.13c.817-.83 5-5.35.034-10.423Z" fill="#ED1C24"/></svg>