<svg width="49" height="48" fill="none" xmlns="http://www.w3.org/2000/svg"><path d="M12.39 20.802a7.68 7.68 0 0 0 7.68 7.68h19.034a7.68 7.68 0 0 1 4.2 1.25l5.618 3.67V7.68A7.68 7.68 0 0 0 41.242 0H20.07a7.68 7.68 0 0 0-7.68 7.68v13.122Z" fill="#fff"/><path fill-rule="evenodd" clip-rule="evenodd" d="m48.922 33.402-5.618-3.67a7.68 7.68 0 0 0-4.2-1.25H20.07a7.68 7.68 0 0 1-7.68-7.68V7.68A7.68 7.68 0 0 1 20.07 0h21.172a7.68 7.68 0 0 1 7.68 7.68v25.722Zm-1.92-3.547-2.648-1.73a9.6 9.6 0 0 0-5.25-1.563H20.07a5.76 5.76 0 0 1-5.76-5.76V7.68a5.76 5.76 0 0 1 5.76-5.76h21.172a5.76 5.76 0 0 1 5.76 5.76v22.175Z" fill="#000"/><path d="M36.315 28.086a7.68 7.68 0 0 0-7.68-7.68h-18.13a7.68 7.68 0 0 1-4.2-1.25L.922 15.64v24.68A7.68 7.68 0 0 0 8.602 48h20.033a7.68 7.68 0 0 0 7.68-7.68V28.086Z" fill="#fff"/><path fill-rule="evenodd" clip-rule="evenodd" d="m.922 15.64 5.383 3.516a7.68 7.68 0 0 0 4.2 1.25h18.13a7.68 7.68 0 0 1 7.68 7.68V40.32a7.68 7.68 0 0 1-7.68 7.68H8.602a7.68 7.68 0 0 1-7.68-7.68V15.64Zm1.92 3.547 2.414 1.577a9.6 9.6 0 0 0 5.249 1.562h18.13a5.76 5.76 0 0 1 5.76 5.76V40.32a5.76 5.76 0 0 1-5.76 5.76H8.602a5.76 5.76 0 0 1-5.76-5.76V19.187Z" fill="#F41921"/><path d="M14.081 34.21c0 1.121-.895 2.03-2 2.03-1.104 0-2-.909-2-2.03 0-1.121.896-2.03 2-2.03 1.105 0 2 .909 2 2.03Z" fill="#F41921"/><path d="M26.538 14.671c0 1.121-.896 2.03-2 2.03-1.105 0-2-.909-2-2.03 0-1.121.895-2.03 2-2.03 1.104 0 2 .909 2 2.03Z" fill="#000"/><path d="M20.619 34.21c0 1.121-.896 2.03-2 2.03-1.105 0-2-.909-2-2.03 0-1.121.895-2.03 2-2.03 1.104 0 2 .909 2 2.03Z" fill="#F41921"/><path d="M33.075 14.671c0 1.121-.895 2.03-2 2.03-1.104 0-2-.909-2-2.03 0-1.121.896-2.03 2-2.03 1.105 0 2 .909 2 2.03Z" fill="#000"/><path d="M27.156 34.21c0 1.121-.895 2.03-2 2.03-1.104 0-2-.909-2-2.03 0-1.121.896-2.03 2-2.03 1.105 0 2 .909 2 2.03Z" fill="#F41921"/><path d="M39.613 14.671c0 1.121-.896 2.03-2 2.03-1.105 0-2-.909-2-2.03 0-1.121.895-2.03 2-2.03 1.104 0 2 .909 2 2.03Z" fill="#000"/></svg>