<svg width="104" height="40" fill="none" xmlns="http://www.w3.org/2000/svg"><path d="M17.407 22.6v-1.102c-.767 1.201-1.808 1.969-3.124 2.264a6.435 6.435 0 0 1-3.89-.315c-1.296-.512-2.396-1.476-3.32-2.874-.923-1.399-1.394-3.23-1.394-5.514 0-2.678.609-4.824 1.827-6.497 1.218-1.654 3.182-2.481 5.893-2.481 2.063 0 3.968.55 5.736 1.673 1.768 1.123 2.633 3.19 2.633 6.203v9.096c0 3.013-.884 5.06-2.633 6.163-1.768 1.103-3.673 1.654-5.736 1.654-3.949 0-6.404-1.85-7.347-5.552h4.695c.334.61.864 1.063 1.572 1.398.707.315 1.414.413 2.121.256.707-.158 1.356-.571 1.925-1.26.61-.71.943-1.733 1.042-3.111Zm-7.348-7.423c0 2.974.865 4.628 2.574 4.943 1.709.315 2.986-.08 3.791-1.201.393-.473.668-1.221.845-2.226a9.687 9.687 0 0 0 .04-3.012 6.136 6.136 0 0 0-1.061-2.638c-.55-.768-1.376-1.162-2.456-1.162-1.454 0-2.456.531-2.966 1.614-.511 1.064-.767 2.304-.767 3.682Zm27.798 8.657h-2.285c-.656 0-1.193-.199-1.59-.617-.417-.419-.616-.957-.616-1.594v-8.887c0-1.036-.318-1.814-.954-2.292a3.425 3.425 0 0 0-2.126-.717c-.775 0-1.47.24-2.087.717-.616.478-.914 1.236-.914 2.292v11.118h-4.57V13.652c0-2.969.774-4.941 2.304-5.938 1.55-.996 3.24-1.554 5.108-1.633 1.907 0 3.676.498 5.286 1.494 1.61.996 2.404 3.029 2.404 6.077v10.182h.04Zm1.42-15.883h4.259v15.903h-4.26V7.951Zm12.777 15.856a36.21 36.21 0 0 1-4.614-.06c-1.657-.137-2.485-1.183-2.485-3.176V3.741h2.327c.552 0 1.065.218 1.479.652.433.434.65.947.65 1.558v.592h2.643v.908c0 .651-.217 1.184-.651 1.578-.434.415-.947.612-1.558.612h-.453v9.687c0 .73.433 1.105 1.301 1.105h1.36v3.374Z" fill="#000"/><path d="M64.6 18.276h3.283c-.48 1.8-1.401 3.17-2.762 4.11-1.36.98-3.062 1.468-5.123 1.468-2.501 0-4.442-.783-5.843-2.368-1.401-1.547-2.102-3.739-2.102-6.616 0-2.74.68-4.874 2.042-6.42 1.4-1.586 3.342-2.37 5.843-2.37 2.622 0 4.663.764 6.104 2.31 1.4 1.586 2.1 3.778 2.1 6.617v.704c0 .216-.02.372-.06.45H56.737c.04 1.332.38 2.31.98 2.956.561.685 1.422 1.018 2.562 1.018.74 0 1.381-.156 1.901-.45a.72.72 0 0 0 .36-.235l.36-.352c.04-.137.2-.294.501-.51.28-.195.68-.312 1.2-.312Zm-7.864-4.992h6.704c-.08-1.155-.4-2.016-.92-2.564-.56-.607-1.381-.9-2.422-.9-.96 0-1.74.293-2.361.9-.64.587-.96 1.448-1 2.564ZM0 0h2.428C3.066 0 3.6.219 4.053.657c.453.438.68.956.68 1.573v21.624H0V0Zm39.277 3.742h2.185c.574 0 1.055.227 1.463.682.407.455.61.992.61 1.633v1.427h-4.258V3.742Z" fill="#000"/><path d="M30.875 34.57v-.436l7.332-4.316.591.932-6.18 3.534 6.196 3.474-.592.902-7.347-4.09Zm15.14 2.556a.83.83 0 0 0-.39-.737 3.01 3.01 0 0 0-.965-.42 15.43 15.43 0 0 0-1.26-.302 7.467 7.467 0 0 1-1.246-.36 2.883 2.883 0 0 1-.965-.602c-.26-.26-.389-.621-.389-1.083 0-.38.083-.706.249-.977.176-.27.405-.491.685-.662.28-.18.607-.31.98-.39.374-.09.763-.136 1.168-.136.727 0 1.35.09 1.868.27.53.171.95.352 1.26.542l-.497.947a11.52 11.52 0 0 0-1.121-.51c-.394-.171-.893-.257-1.494-.257a3.18 3.18 0 0 0-.685.076 2.38 2.38 0 0 0-.607.195c-.177.09-.322.21-.436.361a.861.861 0 0 0-.156.526c0 .261.13.462.39.602.259.14.58.26.964.36.384.09.8.181 1.246.271.456.08.877.2 1.26.361.384.16.706.376.966.647.259.27.389.636.389 1.098 0 .691-.286 1.263-.856 1.714-.56.45-1.406.676-2.538.676-.342 0-.68-.03-1.011-.09a6.298 6.298 0 0 1-1.728-.571 3.648 3.648 0 0 1-.592-.391l.623-.978c.124.12.29.246.498.376.208.12.436.23.685.331.249.1.514.18.794.24.29.06.58.091.871.091.28 0 .54-.02.779-.06.249-.05.467-.12.654-.21.186-.1.332-.226.435-.377a.96.96 0 0 0 .172-.571Zm7.855-5.489h2.21v5.128c0 .491.03.962.093 1.414h1.043v.977h-2.07l-.047-1.278h-.062a3.21 3.21 0 0 1-1.074 1.052c-.447.271-.986.406-1.62.406-.477 0-.886-.055-1.229-.165-.332-.1-.607-.28-.825-.541-.218-.261-.379-.607-.482-1.038-.104-.441-.156-.987-.156-1.639v-3.308h-1.043v-1.008h2.257v4.075c0 .411.016.782.047 1.113.041.321.12.597.233.827.114.22.28.391.498.511.229.11.53.166.903.166.54 0 1.007-.17 1.401-.511a3.22 3.22 0 0 0 .918-1.279v-3.894h-.996v-1.008Zm7.45 7.519v-5.007c0-.21-.011-.411-.032-.602-.01-.2-.046-.376-.109-.526a.764.764 0 0 0-.249-.376.618.618 0 0 0-.42-.135c-.353 0-.654.14-.903.42a2.85 2.85 0 0 0-.545 1.053v5.173H57.88v-7.518h.81l.233.917h.062c.104-.15.203-.291.296-.421a1.94 1.94 0 0 1 .343-.361c.135-.1.29-.176.467-.226.176-.06.4-.09.669-.09.156 0 .316.025.483.075.166.04.316.11.45.21.146.09.27.216.374.377.104.16.172.355.203.586.239-.39.503-.697.794-.917.3-.22.71-.331 1.23-.331.342 0 .617.055.824.165.218.11.384.271.498.482.125.2.208.446.25.736.051.281.077.597.077.948v5.368H64.76v-5.113c0-.21-.01-.406-.03-.586a1.666 1.666 0 0 0-.125-.496.723.723 0 0 0-.234-.331c-.093-.08-.223-.12-.389-.12-.363 0-.67.14-.918.42-.25.281-.436.682-.56 1.204v5.022H61.32Zm9.021 0v-5.007c0-.21-.01-.411-.03-.602a1.582 1.582 0 0 0-.11-.526.764.764 0 0 0-.249-.376.619.619 0 0 0-.42-.135c-.353 0-.654.14-.903.42-.239.281-.42.632-.545 1.053v5.173h-1.183v-7.518h.81l.233.917h.063c.103-.15.202-.291.295-.421a1.94 1.94 0 0 1 .343-.361c.135-.1.29-.176.467-.226.176-.06.4-.09.67-.09.155 0 .316.025.482.075.166.04.316.11.451.21.145.09.27.216.374.377.103.16.17.355.202.586.239-.39.503-.697.794-.917.3-.22.71-.331 1.23-.331.342 0 .617.055.825.165.218.11.383.271.498.482.124.2.207.446.249.736.052.281.078.597.078.948v5.368H73.78v-5.113c0-.21-.01-.406-.03-.586a1.672 1.672 0 0 0-.125-.496.723.723 0 0 0-.234-.331c-.093-.08-.223-.12-.389-.12-.363 0-.67.14-.918.42-.25.281-.436.682-.56 1.204v5.022H70.34Zm6.579 0v-1.008h2.708v-5.503H76.92v-1.008h3.954v6.511h2.646v1.008h-6.6Zm2.288-9.654a.95.95 0 0 1 .28-.691.935.935 0 0 1 .716-.301c.301 0 .55.1.747.3a.906.906 0 0 1 .312.692c0 .26-.104.481-.312.662-.197.18-.446.27-.747.27a.99.99 0 0 1-.716-.27.884.884 0 0 1-.28-.662Zm5.582 2.135h1.852V30.15l1.215-.331v1.82h4.156v1.007h-4.157v3.549c0 .731.182 1.273.545 1.624.374.35.903.526 1.588.526.467 0 .872-.085 1.214-.256.353-.17.67-.355.95-.556l.404.887a4.41 4.41 0 0 1-1.307.677 4.726 4.726 0 0 1-1.541.256c-.415 0-.81-.06-1.183-.181a2.642 2.642 0 0 1-.965-.526 2.574 2.574 0 0 1-.67-.918c-.166-.38-.249-.832-.249-1.353v-3.73H84.79v-1.006Zm9.832 7.023-.592-.902 6.195-3.474-6.18-3.534.592-.932 7.332 4.316v.436l-7.347 4.09Z" fill="#ED1C24"/><path d="M81.627 6.161a10.776 10.776 0 0 1 6.936-2.547c5.19 0 9.5 3.796 9.968 8.692 3.072.427 5.469 2.957 5.469 6.063 0 3.409-2.891 6.125-6.393 6.125H80.42c-4 0-7.296-3.102-7.296-6.99 0-3.346 2.443-6.117 5.677-6.82.276-1.638 1.347-3.27 2.825-4.523Z" fill="#0061B0"/><path d="m84.038 13.356.336.086c-.07.279-.197.492-.38.639a1.038 1.038 0 0 1-.67.219c-.274 0-.497-.056-.669-.168a1.065 1.065 0 0 1-.39-.49 1.771 1.771 0 0 1-.134-.688c0-.267.05-.5.15-.699.102-.199.246-.35.431-.453.187-.104.393-.155.617-.155.253 0 .467.065.64.195.173.131.294.315.362.552l-.331.079c-.059-.187-.144-.323-.256-.408a.677.677 0 0 0-.422-.128.818.818 0 0 0-.49.142.75.75 0 0 0-.275.381 1.54 1.54 0 0 0-.08.492c0 .218.031.409.093.572a.713.713 0 0 0 .295.364c.132.08.276.121.43.121a.717.717 0 0 0 .478-.164c.13-.11.219-.273.265-.489Zm.737.9V11.69h.336v2.263h1.25v.303h-1.586Zm1.885-1.25c0-.425.113-.759.34-.999.225-.242.517-.362.875-.362.234 0 .445.056.633.17.189.113.332.27.43.474.099.202.148.43.148.688 0 .26-.051.492-.155.698a1.08 1.08 0 0 1-.442.467c-.19.105-.395.158-.616.158a1.19 1.19 0 0 1-.64-.175 1.122 1.122 0 0 1-.428-.478 1.46 1.46 0 0 1-.145-.64Zm.346.005c0 .31.082.554.246.732a.811.811 0 0 0 .62.266c.252 0 .46-.09.623-.27.163-.18.245-.434.245-.764 0-.209-.035-.391-.105-.546a.816.816 0 0 0-.758-.492.855.855 0 0 0-.615.248c-.17.165-.256.44-.256.826Zm4.18-1.321h.335v1.483c0 .257-.028.462-.086.614a.75.75 0 0 1-.313.37c-.15.095-.347.143-.592.143-.238 0-.432-.042-.583-.125a.707.707 0 0 1-.324-.358c-.065-.158-.097-.373-.097-.644V11.69h.336v1.48c0 .224.02.388.06.494a.476.476 0 0 0 .212.244c.1.057.222.085.366.085.247 0 .423-.056.528-.17.105-.113.158-.33.158-.652v-1.48Zm.896 2.566V11.69h.874c.198 0 .348.013.452.037.145.034.27.095.372.184.134.114.234.26.3.439.066.177.1.38.1.609 0 .195-.023.368-.068.518a1.28 1.28 0 0 1-.173.375.938.938 0 0 1-.232.232.938.938 0 0 1-.302.128c-.118.03-.254.044-.407.044h-.916Zm.336-.303h.542c.167 0 .298-.016.393-.047a.56.56 0 0 0 .228-.133.802.802 0 0 0 .185-.324c.045-.136.068-.301.068-.495 0-.269-.044-.475-.132-.618a.655.655 0 0 0-.317-.29c-.09-.035-.234-.053-.434-.053h-.533v1.96ZM81.25 19.632v-2.566h1.835v.303h-1.5v.786h1.404v.3h-1.403v.874h1.557v.303H81.25Zm2.357 0v-2.566h.874c.198 0 .348.013.452.037.145.034.27.095.372.184.134.114.234.26.3.44.066.177.1.38.1.608 0 .195-.023.368-.068.518a1.28 1.28 0 0 1-.173.375.938.938 0 0 1-.232.232.939.939 0 0 1-.303.128 1.65 1.65 0 0 1-.406.044h-.916Zm.336-.303h.542c.167 0 .298-.016.392-.047a.56.56 0 0 0 .229-.133.803.803 0 0 0 .185-.324c.045-.136.068-.301.068-.495 0-.268-.044-.474-.132-.618a.655.655 0 0 0-.317-.29c-.09-.035-.234-.053-.434-.053h-.533v1.96Zm2.283.303v-2.566h.335v2.566h-.335Zm1.574 0v-2.263h-.835v-.303h2.01v.303h-.839v2.263h-.335Zm1.579 0v-2.566h.336v2.566h-.336Zm.827-1.25c0-.425.113-.759.34-.999.226-.241.517-.362.875-.362.234 0 .445.056.634.17.188.113.33.27.429.474.099.202.149.431.149.688 0 .26-.052.493-.156.698a1.077 1.077 0 0 1-.441.467c-.19.105-.396.158-.617.158a1.19 1.19 0 0 1-.64-.175 1.122 1.122 0 0 1-.427-.478 1.461 1.461 0 0 1-.146-.64Zm.346.006c0 .309.082.553.246.731a.811.811 0 0 0 .62.266c.252 0 .46-.09.623-.27.164-.179.246-.434.246-.764 0-.209-.036-.39-.106-.546a.816.816 0 0 0-.758-.492.855.855 0 0 0-.615.249c-.17.164-.256.44-.256.826Zm2.512 1.244v-2.566h.344l1.333 2.015v-2.015h.322v2.566h-.345l-1.333-2.016v2.016h-.321Z" fill="#fff"/></svg>