<svg width="16" height="16" fill="none" xmlns="http://www.w3.org/2000/svg"><path d="M15.188 1.594h-3.282V.344a.157.157 0 0 0-.156-.156h-1.094a.157.157 0 0 0-.156.156v1.25h-5V.344a.157.157 0 0 0-.156-.156H4.25a.157.157 0 0 0-.156.156v1.25H.812a.624.624 0 0 0-.625.625v12.969c0 .345.28.624.625.624h14.376a.624.624 0 0 0 .624-.624V2.217a.624.624 0 0 0-.624-.624Zm-.782 12.812H1.594V6.984h12.812v7.422ZM1.594 5.656V3h2.5v.938c0 .085.07.156.156.156h1.094c.086 0 .156-.07.156-.157V3h5v.938c0 .085.07.156.156.156h1.094c.086 0 .156-.07.156-.157V3h2.5v2.656H1.594Z" fill="#CE2034"/></svg>