<svg width="662" height="840" viewBox="0 0 662 840" fill="none" xmlns="http://www.w3.org/2000/svg">
<path d="M185.084 376.468L185.084 286.482M495.832 376.468V286.482M340.457 339.195V249.222" stroke="white" stroke-linejoin="round"/>
<path d="M120.791 466.21C120.791 433.645 142.237 401.08 185.13 376.234C228.022 351.388 284.24 338.964 340.457 338.964C396.675 338.964 452.893 351.387 495.785 376.234C538.678 401.08 560.124 433.645 560.124 466.21" stroke="white" stroke-width="2" stroke-linejoin="round"/>
<path d="M495.831 556.196L495.832 466.21M185.084 556.196L185.084 466.21M340.458 503.484V593.456" stroke="white" stroke-linejoin="round"/>
<path d="M560.124 376.382L560.124 466.297C560.124 498.84 538.678 531.383 495.785 556.212C410 605.871 270.915 605.871 185.13 556.212C142.237 531.383 120.791 498.84 120.791 466.297L120.791 376.382M560.124 376.382C560.124 408.925 538.678 441.467 495.786 466.297C452.893 491.126 396.675 503.541 340.458 503.541C284.24 503.541 228.023 491.126 185.13 466.297C142.237 441.467 120.791 408.925 120.791 376.382M560.124 376.382C560.124 343.839 538.678 311.296 495.786 286.467C410 236.808 270.915 236.808 185.13 286.467C142.237 311.296 120.791 343.839 120.791 376.382" stroke="white" stroke-width="2" stroke-linejoin="round"/>
<path d="M65.8743 621.584L65.8743 531.598M376.622 621.584V531.598M221.248 584.311V494.338" stroke="white" stroke-linejoin="round"/>
<path d="M1.58154 711.326C1.58161 678.761 23.0279 646.196 65.9204 621.35C108.813 596.503 165.03 584.08 221.248 584.08C277.466 584.08 333.683 596.503 376.576 621.35C419.469 646.196 440.915 678.761 440.915 711.326" stroke="white" stroke-width="2" stroke-linejoin="round"/>
<path d="M376.622 801.312L376.622 711.326M65.8743 801.312L65.8744 711.326M221.248 748.6V838.572" stroke="white" stroke-linejoin="round"/>
<path d="M440.915 621.498L440.915 711.413C440.915 743.956 419.469 776.499 376.576 801.328C290.791 850.987 151.706 850.987 65.9204 801.328C23.0278 776.499 1.58151 743.956 1.58154 711.413L1.58205 621.498M440.915 621.498C440.915 654.04 419.469 686.583 376.576 711.413C333.684 736.242 277.466 748.657 221.248 748.657C165.031 748.657 108.813 736.242 65.9206 711.413C23.028 686.583 1.58204 654.04 1.58205 621.498M440.915 621.498C440.915 588.955 419.469 556.412 376.576 531.582C290.791 481.924 151.706 481.924 65.9206 531.582C23.028 556.412 1.58207 588.955 1.58205 621.498" stroke="white" stroke-width="2" stroke-linejoin="round"/>
<path d="M285.541 128.674L285.541 38.6875M596.289 128.674V38.6878M440.914 91.4002V1.42773" stroke="white" stroke-linejoin="round"/>
<path d="M221.248 218.416C221.248 185.851 242.695 153.285 285.587 128.439C328.48 103.593 384.697 91.1697 440.915 91.1697C497.132 91.1696 553.35 103.593 596.243 128.439C639.135 153.285 660.581 185.851 660.582 218.416" stroke="white" stroke-width="2" stroke-linejoin="round"/>
<path d="M596.288 308.402L596.289 218.416M285.541 308.402L285.541 218.416M440.915 255.689V345.661" stroke="white" stroke-linejoin="round"/>
<path d="M660.581 128.587L660.582 218.502C660.582 251.045 639.135 283.588 596.243 308.417C510.457 358.076 371.372 358.076 285.587 308.417C242.694 283.588 221.248 251.045 221.248 218.502L221.249 128.587M660.581 128.587C660.581 161.13 639.135 193.673 596.243 218.502C553.35 243.332 497.133 255.746 440.915 255.746C384.697 255.746 328.48 243.332 285.587 218.502C242.695 193.673 221.249 161.13 221.249 128.587M660.581 128.587C660.581 96.044 639.135 63.5012 596.243 38.6718C510.458 -10.987 371.372 -10.987 285.587 38.6718C242.695 63.5013 221.249 96.044 221.249 128.587" stroke="white" stroke-width="2" stroke-linejoin="round"/>
</svg>
