<svg width="599" height="576" fill="none" xmlns="http://www.w3.org/2000/svg"><path d="M1.154 456.405 359.921 663.54V784L1.154 576.865v-120.46Zm358.768 207.136 358.767-207.135v120.46L359.922 784.001v-120.46Z" fill="#0070CC" stroke="#fff"/><path d="m359.922 249.271 358.767 207.135L359.922 663.54 1.154 456.406l358.768-207.135Z" fill="#0070CC" stroke="#fff"/><path d="m117.287 179.988 242.634 140.085v280.17L117.287 460.158v-280.17Z" fill="#0070CC" stroke="#fff"/><path transform="matrix(.86603 -.5 0 1 359.922 320.073)" fill="#0070CC" stroke="#fff" d="M0 0h280.17v280.17H0z"/><path d="m359.922 39.903 242.634 140.085-242.634 140.085-242.635-140.085L359.922 39.903Z" fill="#0070CC" stroke="#fff"/><path d="m261.314 59.004 100.467 58.005v116.009l-100.467-58.005V59.004Z" fill="#0070CC" stroke="#fff"/><path transform="matrix(.86603 -.5 0 1 361.781 117.009)" fill="#0070CC" stroke="#fff" d="M0 0h116.009v116.009H0z"/><path d="m361.781 1 100.466 58.005-100.466 58.004-100.467-58.005L361.781 1ZM80.34 332.785l100.467 58.005v116.009L80.34 448.794V332.785Z" fill="#0070CC" stroke="#fff"/><path transform="matrix(.86603 -.5 0 1 180.807 390.79)" fill="#0070CC" stroke="#fff" d="M0 0h116.009v116.009H0z"/><path d="m180.807 274.781 100.466 58.004-100.466 58.005L80.34 332.785l100.467-58.004Zm259.161 58.004 100.466 58.005v116.009l-100.466-58.005V332.785Z" fill="#0070CC" stroke="#fff"/><path transform="matrix(.86603 -.5 0 1 540.434 390.79)" fill="#0070CC" stroke="#fff" d="M0 0h116.009v116.009H0z"/><path d="m540.434 274.781 100.467 58.005-100.467 58.004-100.466-58.004 100.466-58.005Z" fill="#0070CC" stroke="#fff"/></svg>