<svg width="242" height="283" fill="none" xmlns="http://www.w3.org/2000/svg"><mask id="a" style="mask-type:alpha" maskUnits="userSpaceOnUse" x="0" y="0" width="242" height="283"><rect x=".07" y=".188" width="241.383" height="282" rx="10" fill="#F6F6F6"/></mask><g opacity=".3" stroke="#F4888D" stroke-linecap="round" stroke-linejoin="round" mask="url(#a)"><path d="M464.777 199.501 230.959 69.631c-31.445-17.465-71.085-6.535-89.135 24.578L2.962 333.566"/><path d="m469.222 216.231-241.54-134.16c-27.157-15.083-61.392-5.644-76.981 21.227L7.407 350.295"/><path d="M473.945 234.006 232.405 99.847c-27.157-15.084-61.392-5.644-76.981 21.226L12.13 368.07"/><path d="m478.668 251.781-241.54-134.159c-27.157-15.083-61.392-5.644-76.981 21.227L16.853 385.846"/><path d="m483.391 269.556-241.54-134.159c-27.157-15.084-61.392-5.644-76.981 21.226L21.576 403.62"/><path d="m488.114 287.331-241.54-134.159c-27.157-15.084-61.392-5.644-76.981 21.227L26.299 421.396"/><path d="m492.837 305.107-241.54-134.159c-27.157-15.084-61.392-5.645-76.981 21.226L31.022 439.171"/><path d="M497.56 322.882 256.02 188.723c-27.157-15.084-61.392-5.644-76.981 21.226L35.745 456.946"/><path d="m502.283 340.656-241.54-134.159c-27.157-15.083-61.392-5.644-76.981 21.227L40.468 474.721"/></g></svg>