<svg width="33" height="40" fill="none" xmlns="http://www.w3.org/2000/svg"><path d="M20.694 1.388v8.586a3 3 0 0 0 3 3h6.495" stroke="#000" stroke-width="2" stroke-linecap="round" stroke-linejoin="round"/><path d="M1.683 5.2a4 4 0 0 1 4-4h15.524l8.848 8.51a4 4 0 0 1 1.227 2.883v22.344a4 4 0 0 1-4 4H5.683a4 4 0 0 1-4-4V5.2Z" stroke="#000" stroke-width="2"/><path d="M17.207 15.189a1 1 0 0 0-1.414 0l-6.364 6.364a1 1 0 0 0 1.414 1.414L16.5 17.31l5.657 5.657a1 1 0 0 0 1.414-1.414l-6.364-6.364ZM15.5 30.757a1 1 0 1 0 2 0h-2Zm0-14.861v14.861h2V15.896h-2Z" fill="#0070CC"/></svg>