<svg width="604" height="651" fill="none" xmlns="http://www.w3.org/2000/svg"><path d="M168.937 536.404v112.63m-57.339-30.205 57.083-30.205 60.411 30.205" stroke="#fff"/><path d="M111.342 549.203v69.882l57.851 30.461 59.899-30.461v-70.394" stroke="#fff"/><path d="m111.086 548.691 57.851-31.485 60.155 31.485-61.179 29.949-56.827-29.949Zm-2.048-41.98 58.619-30.718 59.387 28.414" stroke="#fff"/><path d="M168.681 501.591c-1.621-23.55-4.352-71.674 8.959-98.296 13.823-27.645 43.201-87.388 38.653-132.34-4.352-43.004-16.639-55.547-33.277-68.858" stroke="#fff"/><path d="m166.377 441.692-56.571 29.438 59.387 30.717 58.363-30.717-61.179-29.438Zm48.892-101.367-57.595-29.949 57.595-30.718 59.387 30.718-59.387 29.949ZM104.942 204.657l59.131 30.205" stroke="#fff"/><path d="M54.77 344.932c10.154-31.826 38.36-92.088 85.203-72.012 9.728 4.169 21.861 21.81 15.103 51.708M.247 345.188h54.524l58.363 31.998" stroke="#fff"/><path d="M156.906 309.864c.427 11.263-7.572 42.127-30.717 82.936-19.455 34.301-16.639 81.657-16.639 114.167l59.387 29.949M59.634 377.186 1.015 346.98c9.386-39.847 48.175-126.197 128.245-152.818 7.594-1.963 27.185-4.045 44.796 3.327 17.612 7.373 51.537 26.963 66.299 35.325" stroke="#fff"/><path d="M113.39 377.186c9.215-29.182 41.212-84.53 78.329-76.282 50.683 11.263 7.358 87.07-2.816 111.607-8.703 20.99-17.45 54.905-19.966 89.336v34.813l59.131-31.485c-.171-15.359-1.112-47.1 3.071-58.363 3.328-8.959 24.83-50.172 31.23-69.626 6.399-19.455 22.782-80.889 3.071-116.726-19.71-35.837-50.683-40.189-73.721-34.045-23.038 6.143-98.04 30.717-131.06 150.771m-.769-.256h53.244" stroke="#fff"/><path d="M105.198 205.681v69.626l58.875 31.229V235.63m298.47 218.992v148.504M386.941 563.3l75.264-39.826 79.653 39.826" stroke="#fff"/><path d="M386.603 471.497v92.14l76.277 40.164 78.978-40.164v-92.815" stroke="#fff"/><path d="m386.266 470.822 76.277-41.514 79.315 41.514-80.665 39.489-74.927-39.489Zm-2.701-55.352 77.29-40.501 78.303 37.464" stroke="#fff"/><path d="M462.205 408.72c-2.137-31.051-5.737-94.503 11.813-129.604 18.226-36.451 56.962-115.223 50.964-174.493-5.737-56.701-21.938-73.24-43.876-90.79" stroke="#fff"/><path d="m459.168 329.743-74.59 38.813 78.302 40.502 76.953-40.502-80.665-38.813Zm64.464-133.654-75.94-39.489 75.94-40.501 78.303 40.501-78.303 39.489ZM378.165 17.209l77.965 39.826" stroke="#fff"/><path d="M312.013 202.164c13.388-41.964 50.577-121.42 112.341-94.949 12.826 5.497 28.824 28.756 19.913 68.177m-204.143 27.109h71.889l76.953 42.189" stroke="#fff"/><path d="M446.68 155.925c.562 14.85-9.983 55.545-40.501 109.353-25.651 45.226-21.938 107.666-21.938 150.53l78.302 39.488M318.426 244.69l-77.29-39.826c12.376-52.539 63.52-166.393 169.093-201.494 10.013-2.587 35.843-5.332 59.064 4.388 23.221 9.72 67.952 35.551 87.415 46.576" stroke="#fff"/><path d="M389.303 244.69c12.151-38.476 54.339-111.453 103.278-100.578 66.827 14.851 9.702 114.802-3.712 147.155-11.476 27.675-23.009 72.393-26.326 117.791v45.901l77.965-41.514c-.225-20.25-1.466-62.102 4.05-76.952 4.388-11.813 32.738-66.152 41.176-91.803 8.438-25.651 30.039-106.653 4.05-153.904-25.988-47.252-66.827-52.99-97.203-44.89-30.376 8.101-129.266 40.502-172.805 198.794m-1.012-.337h70.202" stroke="#fff"/><path d="M378.503 18.558v91.803l77.627 41.176v-93.49" stroke="#fff"/></svg>