<svg width="620" height="445" fill="none" xmlns="http://www.w3.org/2000/svg"><rect width="620" height="445" rx="10" fill="#F6F6F6"/><path d="M70 99.5C70 90.94 76.842 84 85.281 84H538.72c8.438 0 15.28 6.94 15.28 15.5 0 8.56-6.842 15.5-15.281 15.5H85.281C76.841 115 70 108.06 70 99.5Z" fill="#E6E6E6"/><path d="M127.841 92.48 146 97.352v-26.48L127.841 66 110 71.63V98l17.841-5.52Z" fill="#fff"/><path fill-rule="evenodd" clip-rule="evenodd" d="M109 98V70.741L127.329 65 146 69.972V97.33l-18.648-4.966L109 98Zm1.109-1.507 17.221-5.29 17.561 4.677V70.831l-17.537-4.67-17.245 5.401v24.93Z" fill="#2D2D2D"/><path d="M128.159 76.402 110 71.634v31.598L128.159 108 146 102.49V71l-17.841 5.402Z" fill="#fff"/><path fill-rule="evenodd" clip-rule="evenodd" d="M146 70v33.222L127.671 109 109 103.995v-33.32l18.648 4.998L146 70Zm-1.109 1.517L127.67 76.84l-17.561-4.707v30.998l17.537 4.701 17.245-5.437V71.517Z" fill="#2D2D2D"/><path fill-rule="evenodd" clip-rule="evenodd" d="M127.206 107.841V76.533h1.11v31.308h-1.11Z" fill="#2D2D2D"/><path d="M249.841 92.48 268 97.352v-26.48L249.841 66 232 71.63V98l17.841-5.52Z" fill="#fff"/><path fill-rule="evenodd" clip-rule="evenodd" d="M231 98V70.741L249.824 65 269 69.972V97.33l-19.152-4.966L231 98Zm1.139-1.507 17.687-5.29 18.035 4.677V70.831l-18.011-4.67-17.711 5.401v24.93Z" fill="#2D2D2D"/><path d="M250.159 76.402 232 71.634v31.598L250.159 108 268 102.49V71l-17.841 5.402Z" fill="#fff"/><path fill-rule="evenodd" clip-rule="evenodd" d="M269 70v33.222L250.176 109 231 103.995v-33.32l19.152 4.998L269 70Zm-1.139 1.517-17.687 5.323-18.035-4.707v30.998l18.011 4.701 17.711-5.437V71.517Z" fill="#2D2D2D"/><path fill-rule="evenodd" clip-rule="evenodd" d="M249.319 107.841V76.533h1.11v31.308h-1.11Z" fill="#2D2D2D"/><path d="M371.841 92.48 390 97.352v-26.48L371.841 66 354 71.63V98l17.841-5.52Z" fill="#fff"/><path fill-rule="evenodd" clip-rule="evenodd" d="M354 98V70.741L372.329 65 391 69.972V97.33l-18.648-4.966L354 98Zm1.109-1.507 17.221-5.29 17.561 4.677V70.831l-17.537-4.67-17.245 5.401v24.93Z" fill="#2D2D2D"/><path d="M372.159 76.402 354 71.634v31.598L372.159 108 390 102.49V71l-17.841 5.402Z" fill="#fff"/><path fill-rule="evenodd" clip-rule="evenodd" d="M391 70v33.222L372.671 109 354 103.995v-33.32l18.648 4.998L391 70Zm-1.109 1.517L372.67 76.84l-17.561-4.707v30.998l17.537 4.701 17.245-5.437V71.517Z" fill="#2D2D2D"/><path fill-rule="evenodd" clip-rule="evenodd" d="M371.432 107.841V76.533h1.11v31.308h-1.11Z" fill="#2D2D2D"/><path d="M493.841 92.48 512 97.352v-26.48L493.841 66 476 71.63V98l17.841-5.52Z" fill="#fff"/><path fill-rule="evenodd" clip-rule="evenodd" d="M476 98V70.741L494.329 65 513 69.972V97.33l-18.648-4.966L476 98Zm1.109-1.507 17.221-5.29 17.561 4.677V70.831l-17.537-4.67-17.245 5.401v24.93Z" fill="#2D2D2D"/><path d="M494.159 76.402 476 71.634v31.598L494.159 108 512 102.49V71l-17.841 5.402Z" fill="#fff"/><path fill-rule="evenodd" clip-rule="evenodd" d="M513 70v33.222L494.671 109 476 103.995v-33.32l18.648 4.998L513 70Zm-1.109 1.517L494.67 76.84l-17.561-4.707v30.998l17.537 4.701 17.245-5.437V71.517Z" fill="#2D2D2D"/><path fill-rule="evenodd" clip-rule="evenodd" d="M493.545 107.841V76.533h1.11v31.308h-1.11Z" fill="#2D2D2D"/><path d="M459 51.392 462.681 42h1.367l3.924 9.392h-1.446l-1.118-2.844H461.4l-1.053 2.844H459Zm2.766-3.857h3.25l-1.001-2.6c-.305-.79-.531-1.44-.68-1.948-.122.602-.294 1.2-.516 1.794l-1.053 2.755Zm7.18 6.465v-9.412h1.073v.884a2.59 2.59 0 0 1 .856-.775c.319-.175.704-.262 1.158-.262.593 0 1.116.15 1.569.448.453.3.796.722 1.027 1.269.231.542.346 1.138.346 1.787 0 .696-.128 1.324-.386 1.884a2.833 2.833 0 0 1-1.111 1.281 2.897 2.897 0 0 1-1.53.442c-.393 0-.746-.081-1.06-.243a2.416 2.416 0 0 1-.765-.615V54h-1.177Zm1.066-5.971c0 .875.181 1.522.543 1.941.362.419.8.628 1.314.628.523 0 .97-.216 1.341-.647.375-.436.562-1.108.562-2.018 0-.867-.183-1.517-.549-1.948-.362-.431-.796-.647-1.301-.647-.502 0-.946.23-1.334.692-.384.457-.576 1.123-.576 1.999Zm6.5 5.971v-9.412h1.073v.884a2.59 2.59 0 0 1 .856-.775c.319-.175.704-.262 1.158-.262.593 0 1.116.15 1.569.448.454.3.796.722 1.027 1.269.231.542.346 1.138.346 1.787 0 .696-.128 1.324-.385 1.884a2.841 2.841 0 0 1-1.112 1.281 2.897 2.897 0 0 1-1.53.442c-.393 0-.746-.081-1.06-.243a2.416 2.416 0 0 1-.765-.615V54h-1.177Zm1.066-5.971c0 .875.181 1.522.543 1.941.362.419.8.628 1.314.628.523 0 .97-.216 1.341-.647.375-.436.562-1.108.562-2.018 0-.867-.183-1.517-.549-1.948-.362-.431-.796-.647-1.301-.647-.502 0-.946.23-1.334.692-.384.457-.576 1.123-.576 1.999Zm6.474 3.363V42h1.177v9.392h-1.177Zm3.126-8.066V42h1.177v1.326h-1.177Zm0 8.066v-6.804h1.177v6.804h-1.177Zm7.619-2.492 1.157.148c-.126.781-.451 1.394-.974 1.838-.519.44-1.157.66-1.916.66-.95 0-1.715-.303-2.295-.91-.576-.61-.863-1.484-.863-2.62 0-.735.124-1.377.372-1.928a2.555 2.555 0 0 1 1.132-1.237 3.417 3.417 0 0 1 1.661-.416c.754 0 1.371.188 1.85.563.48.372.787.902.922 1.59l-1.144.172c-.109-.457-.303-.8-.582-1.031a1.504 1.504 0 0 0-1.001-.346c-.593 0-1.074.21-1.445.628-.37.414-.556 1.072-.556 1.973 0 .914.179 1.578.537 1.992.357.415.823.622 1.399.622.462 0 .848-.139 1.157-.416.31-.278.506-.705.589-1.282Zm6.807 1.653c-.436.363-.856.62-1.262.769-.401.15-.832.224-1.294.224-.763 0-1.35-.181-1.759-.544-.41-.368-.615-.835-.615-1.404 0-.333.076-.636.229-.91.157-.277.359-.499.608-.666.253-.166.536-.292.85-.378a8.59 8.59 0 0 1 1.046-.173c.951-.11 1.65-.243 2.099-.397.005-.158.007-.258.007-.3 0-.47-.111-.802-.334-.994-.3-.26-.747-.39-1.34-.39-.554 0-.964.095-1.229.288-.262.188-.456.523-.582 1.005l-1.151-.153c.104-.483.277-.872.516-1.166.24-.3.587-.528 1.04-.686.453-.162.979-.243 1.576-.243.593 0 1.074.068 1.445.205.371.136.643.31.817.519.175.205.297.465.367.781.039.197.058.551.058 1.064v1.537c0 1.073.024 1.752.072 2.038.053.282.153.553.301.813h-1.229a2.411 2.411 0 0 1-.236-.839Zm-.098-2.575c-.427.17-1.068.316-1.922.435-.484.069-.826.146-1.027.23-.2.086-.355.212-.464.379a.955.955 0 0 0-.164.544.98.98 0 0 0 .354.77c.239.204.588.307 1.046.307.453 0 .856-.096 1.21-.288.353-.197.612-.464.778-.801.126-.26.189-.645.189-1.154v-.422Zm5.703 2.382.17 1.02a4.463 4.463 0 0 1-.89.102c-.427 0-.758-.066-.993-.199a1.122 1.122 0 0 1-.497-.519c-.096-.217-.144-.672-.144-1.364v-3.915h-.863v-.897h.863v-1.685l1.17-.692v2.377h1.184v.897h-1.184v3.979c0 .329.02.54.059.634a.508.508 0 0 0 .203.224.815.815 0 0 0 .405.084 3.9 3.9 0 0 0 .517-.045Zm1.275-7.034V42h1.177v1.326h-1.177Zm0 8.066v-6.804h1.177v6.804h-1.177Zm2.649-3.402c0-1.26.358-2.193 1.072-2.8.598-.503 1.326-.755 2.185-.755.954 0 1.735.307 2.34.922.606.611.909 1.457.909 2.537 0 .876-.135 1.566-.405 2.07-.266.5-.656.888-1.17 1.166a3.45 3.45 0 0 1-1.674.416c-.973 0-1.759-.305-2.361-.916-.597-.61-.896-1.49-.896-2.64Zm1.21 0c0 .872.194 1.525.582 1.96.388.432.876.648 1.465.648a1.87 1.87 0 0 0 1.458-.654c.388-.435.582-1.1.582-1.992 0-.841-.196-1.478-.589-1.91a1.864 1.864 0 0 0-1.451-.653c-.589 0-1.077.216-1.465.647-.388.432-.582 1.083-.582 1.954Zm6.794 3.402v-6.804h1.06v.968c.51-.748 1.246-1.121 2.21-1.121.418 0 .802.074 1.151.224.353.145.617.337.791.577.174.239.296.523.366.852.044.213.065.587.065 1.12v4.184h-1.177v-4.138c0-.47-.045-.82-.137-1.051a1.093 1.093 0 0 0-.49-.558 1.54 1.54 0 0 0-.818-.21 1.94 1.94 0 0 0-1.301.467c-.362.312-.543.903-.543 1.774v3.716h-1.177Zm7.096-2.031 1.164-.179c.065.457.246.807.542 1.05.301.244.72.366 1.256.366.54 0 .941-.107 1.203-.32.262-.218.392-.472.392-.763a.697.697 0 0 0-.346-.615c-.162-.102-.563-.233-1.203-.39-.864-.214-1.463-.398-1.799-.552a1.78 1.78 0 0 1-.758-.647 1.721 1.721 0 0 1-.255-.916c0-.303.069-.583.209-.84.144-.26.338-.475.582-.646.183-.133.432-.244.745-.334a3.63 3.63 0 0 1 1.021-.14c.544 0 1.022.076 1.432.23.414.154.719.363.915.628.196.26.331.61.405 1.05l-1.15.155c-.053-.35-.205-.624-.458-.82-.249-.197-.602-.295-1.059-.295-.541 0-.927.087-1.158.262-.231.176-.346.38-.346.615 0 .15.047.285.143.404.096.124.247.227.452.308.117.042.464.14 1.039.294.833.218 1.413.398 1.74.539.331.136.59.337.778.602.187.265.281.594.281.987 0 .384-.116.747-.347 1.089-.226.337-.555.6-.987.788a3.71 3.71 0 0 1-1.465.275c-.902 0-1.591-.184-2.066-.55-.471-.368-.772-.913-.902-1.635ZM339 48.728l1.196-.105c.056.483.187.881.392 1.194.209.307.531.558.967.752a3.66 3.66 0 0 0 1.47.283c.484 0 .911-.072 1.281-.217.37-.146.645-.343.824-.594.183-.255.274-.532.274-.831 0-.304-.087-.568-.261-.792-.175-.228-.462-.42-.863-.574-.257-.1-.825-.257-1.706-.468-.88-.215-1.496-.418-1.849-.607-.457-.242-.799-.54-1.026-.897a2.256 2.256 0 0 1-.333-1.207c0-.488.137-.943.412-1.365.274-.427.675-.75 1.202-.97a4.523 4.523 0 0 1 1.758-.33c.71 0 1.335.117 1.875.35.545.228.963.567 1.255 1.015.292.449.449.957.47 1.524l-1.215.092c-.065-.61-.287-1.073-.667-1.385-.374-.312-.93-.468-1.666-.468-.767 0-1.326.143-1.679.429-.349.281-.523.622-.523 1.022 0 .348.124.633.372.858.244.224.88.455 1.909.692 1.032.233 1.74.438 2.123.614.558.26.97.589 1.235.99.266.395.399.852.399 1.371 0 .515-.146 1-.438 1.458-.292.453-.712.807-1.261 1.062-.545.25-1.159.376-1.843.376-.867 0-1.594-.127-2.182-.383a3.086 3.086 0 0 1-1.379-1.147 3.317 3.317 0 0 1-.523-1.742Zm14.07.852 1.215.15c-.192.718-.547 1.274-1.065 1.67-.518.395-1.181.593-1.987.593-1.015 0-1.821-.314-2.417-.943-.593-.633-.889-1.52-.889-2.658 0-1.179.3-2.093.902-2.744.601-.651 1.381-.977 2.339-.977.928 0 1.686.32 2.274.957.588.638.882 1.535.882 2.691 0 .07-.002.176-.006.317h-5.176c.044.77.26 1.359.647 1.768.388.409.872.613 1.451.613.431 0 .799-.114 1.104-.343.305-.228.547-.593.726-1.095Zm-3.862-1.92h3.875c-.053-.59-.201-1.032-.445-1.326a1.794 1.794 0 0 0-1.457-.686c-.54 0-.995.182-1.366.547-.366.365-.568.853-.607 1.465Zm6.659 4.175V44.83h1.059v1.062c.27-.497.518-.825.745-.983a1.31 1.31 0 0 1 .758-.237c.396 0 .799.127 1.209.382l-.406 1.102a1.67 1.67 0 0 0-.862-.258c-.257 0-.488.08-.693.238-.205.154-.351.37-.438.646-.13.423-.196.884-.196 1.386v3.667h-1.176Zm6.509 0-2.64-7.005h1.242l1.489 4.195c.162.453.31.924.445 1.412.104-.37.25-.814.438-1.333l1.542-4.274h1.209l-2.627 7.005h-1.098Zm4.882-8.305v-1.365h1.176v1.365h-1.176Zm0 8.305V44.83h1.176v7.005h-1.176Zm7.613-2.565 1.157.15c-.126.806-.451 1.437-.974 1.894-.518.453-1.156.68-1.914.68-.95 0-1.715-.313-2.294-.937-.575-.63-.863-1.528-.863-2.698 0-.757.124-1.418.373-1.986.248-.567.625-.991 1.13-1.273a3.338 3.338 0 0 1 1.66-.428c.754 0 1.37.193 1.849.58.48.383.787.928.922 1.636l-1.144.178c-.109-.47-.303-.825-.581-1.062a1.477 1.477 0 0 0-1-.356c-.593 0-1.074.215-1.444.646-.371.427-.556 1.104-.556 2.032 0 .94.179 1.625.536 2.051.357.427.823.64 1.398.64.462 0 .848-.143 1.157-.429.309-.285.505-.725.588-1.319Zm7.026.31 1.215.15c-.192.718-.547 1.274-1.065 1.67-.519.395-1.181.593-1.987.593-1.015 0-1.821-.314-2.418-.943-.592-.633-.888-1.52-.888-2.658 0-1.179.3-2.093.901-2.744.602-.651 1.381-.977 2.34-.977.928 0 1.686.32 2.274.957.588.638.882 1.535.882 2.691 0 .07-.002.176-.006.317h-5.176c.044.77.259 1.359.647 1.768.388.409.871.613 1.451.613.431 0 .799-.114 1.104-.343.305-.228.547-.593.726-1.095Zm-3.863-1.92h3.876c-.053-.59-.201-1.032-.445-1.326a1.794 1.794 0 0 0-1.457-.686c-.54 0-.995.182-1.366.547-.366.365-.568.853-.608 1.465Zm6.202 2.084 1.164-.185c.065.47.246.832.542 1.082.301.25.719.376 1.255.376.54 0 .941-.11 1.202-.33.261-.224.392-.486.392-.785a.722.722 0 0 0-.346-.633c-.161-.105-.562-.24-1.203-.402-.862-.22-1.461-.41-1.797-.567a1.8 1.8 0 0 1-.758-.667 1.81 1.81 0 0 1-.255-.943c0-.312.07-.6.21-.864a1.93 1.93 0 0 1 .581-.666c.183-.137.431-.251.745-.343a3.487 3.487 0 0 1 1.019-.145c.545 0 1.022.079 1.432.237.413.158.718.374.914.646.197.269.332.63.406 1.082l-1.15.158c-.053-.36-.205-.642-.458-.844-.248-.202-.601-.303-1.059-.303-.54 0-.925.09-1.156.27-.231.18-.347.392-.347.633a.66.66 0 0 0 .144.416c.096.127.246.233.451.317.118.044.464.145 1.039.303.832.224 1.412.409 1.738.554.331.14.591.348.778.62.187.273.281.611.281 1.016 0 .396-.115.77-.346 1.121-.227.348-.556.618-.987.812a3.61 3.61 0 0 1-1.464.283c-.902 0-1.59-.189-2.065-.567-.47-.378-.771-.939-.902-1.682ZM88 51.835v-9.67h3.278c.74 0 1.305.046 1.694.138.545.128 1.01.359 1.396.693.502.431.876.983 1.123 1.656.25.668.376 1.433.376 2.295 0 .735-.084 1.386-.253 1.953-.169.567-.385 1.038-.65 1.411-.263.37-.553.662-.869.878a3.51 3.51 0 0 1-1.136.481c-.441.11-.95.165-1.525.165H88Zm1.26-1.141h2.031c.627 0 1.119-.06 1.473-.178.36-.119.645-.286.857-.502.299-.303.53-.71.695-1.22.169-.514.253-1.137.253-1.867 0-1.011-.165-1.787-.493-2.328-.325-.545-.72-.91-1.188-1.095-.338-.132-.88-.198-1.63-.198H89.26v7.388Zm12.807.277c-.433.374-.851.638-1.253.792-.398.153-.827.23-1.285.23-.758 0-1.34-.187-1.747-.56-.406-.379-.61-.86-.61-1.445a1.962 1.962 0 0 1 .83-1.623 2.86 2.86 0 0 1 .845-.389c.23-.061.576-.12 1.038-.178.944-.114 1.638-.25 2.084-.409l.007-.31c0-.484-.111-.824-.331-1.022-.299-.269-.743-.403-1.331-.403-.55 0-.956.1-1.22.297-.26.194-.453.539-.578 1.036l-1.142-.159c.103-.496.274-.897.512-1.2.238-.308.582-.543 1.032-.706.45-.167.972-.25 1.565-.25.588 0 1.066.07 1.434.21.368.141.639.32.812.535.173.211.294.48.363.805.039.202.059.567.059 1.095V48.9c0 1.104.023 1.803.071 2.097.052.29.151.57.299.838H102.3a2.539 2.539 0 0 1-.233-.864Zm-.098-2.652c-.424.176-1.06.326-1.908.449-.48.07-.82.15-1.02.237a1.014 1.014 0 0 0-.46.39 1.01 1.01 0 0 0-.162.56c0 .317.116.58.35.792.238.21.584.316 1.039.316.45 0 .85-.099 1.2-.297.351-.202.608-.477.773-.824.125-.268.188-.664.188-1.187v-.436Zm5.661 2.454.169 1.049c-.329.07-.624.105-.883.105-.424 0-.753-.068-.987-.204a1.139 1.139 0 0 1-.493-.534c-.095-.225-.143-.693-.143-1.405v-4.03h-.857v-.924h.857v-1.735l1.162-.712v2.447h1.175v.923h-1.175v4.097c0 .338.019.556.058.653a.522.522 0 0 0 .202.23c.095.058.229.086.402.086.13 0 .301-.015.513-.046Zm5.758.198c-.433.374-.851.638-1.253.792-.398.153-.827.23-1.285.23-.758 0-1.34-.187-1.746-.56-.407-.379-.61-.86-.61-1.445a1.96 1.96 0 0 1 .83-1.623c.251-.171.533-.3.844-.389.23-.061.576-.12 1.039-.178.943-.114 1.638-.25 2.083-.409.005-.163.007-.266.007-.31 0-.484-.11-.824-.331-1.022-.299-.269-.742-.403-1.331-.403-.549 0-.956.1-1.22.297-.26.194-.452.539-.578 1.036l-1.142-.159c.104-.496.275-.897.513-1.2.238-.308.582-.543 1.032-.706.45-.167.971-.25 1.564-.25.588 0 1.067.07 1.434.21.368.141.639.32.812.535.173.211.294.48.363.805.039.202.059.567.059 1.095V48.9c0 1.104.024 1.803.071 2.097.052.29.152.57.299.838h-1.221a2.539 2.539 0 0 1-.233-.864Zm-.098-2.652c-.424.176-1.06.326-1.908.449-.48.07-.82.15-1.019.237a1.012 1.012 0 0 0-.461.39 1.01 1.01 0 0 0-.162.56c0 .317.117.58.35.792.238.21.585.316 1.039.316a2.4 2.4 0 0 0 1.201-.297c.35-.202.608-.477.772-.824.126-.268.188-.664.188-1.187v-.436Zm6.642.409 1.187-.105c.057.483.187.881.39 1.194.208.307.528.558.961.752.432.189.919.283 1.46.283.48 0 .905-.072 1.272-.217.368-.146.641-.343.818-.594.182-.255.273-.532.273-.831 0-.304-.087-.568-.26-.792-.173-.228-.459-.42-.857-.574-.255-.1-.82-.257-1.694-.468-.874-.215-1.486-.418-1.837-.607-.454-.242-.794-.54-1.019-.897a2.264 2.264 0 0 1-.331-1.207c0-.488.136-.943.409-1.365.273-.427.671-.75 1.194-.97a4.47 4.47 0 0 1 1.746-.33c.706 0 1.327.117 1.863.35.541.228.957.567 1.247 1.015.29.449.445.957.467 1.524l-1.207.092c-.065-.61-.286-1.073-.662-1.385-.373-.312-.924-.468-1.656-.468-.761 0-1.317.143-1.668.429-.346.281-.519.622-.519 1.022 0 .348.123.633.37.858.242.224.874.455 1.895.692 1.026.233 1.729.438 2.11.614.554.26.963.589 1.227.99.264.395.396.852.396 1.371 0 .515-.145 1-.435 1.458-.29.453-.708.807-1.253 1.062-.541.25-1.151.376-1.83.376-.862 0-1.584-.127-2.169-.383a3.075 3.075 0 0 1-1.369-1.147 3.332 3.332 0 0 1-.519-1.742Zm11.807 2.045.169 1.049c-.329.07-.623.105-.883.105-.424 0-.753-.068-.986-.204a1.14 1.14 0 0 1-.494-.534c-.095-.225-.143-.693-.143-1.405v-4.03h-.856v-.924h.856v-1.735l1.162-.712v2.447h1.175v.923h-1.175v4.097c0 .338.02.556.059.653.043.096.11.173.201.23.095.058.229.086.402.086.13 0 .301-.015.513-.046Zm1.247 1.062V44.83h1.052v1.062c.268-.497.514-.825.739-.983a1.3 1.3 0 0 1 .753-.237c.394 0 .795.127 1.201.382l-.402 1.102a1.653 1.653 0 0 0-.857-.258c-.255 0-.485.08-.688.238a1.26 1.26 0 0 0-.435.646c-.13.423-.195.884-.195 1.386v3.667h-1.168Zm9.27-2.255 1.207.15c-.19.718-.543 1.274-1.058 1.67-.515.395-1.173.593-1.973.593-1.009 0-1.809-.314-2.402-.943-.589-.633-.883-1.52-.883-2.658 0-1.179.299-2.093.896-2.744.597-.651 1.372-.977 2.324-.977.921 0 1.674.32 2.259.957.584.638.876 1.535.876 2.691 0 .07-.002.176-.007.317h-5.141c.044.77.258 1.359.643 1.768.385.409.866.613 1.441.613.429 0 .794-.114 1.097-.343.303-.228.543-.593.721-1.095Zm-3.837-1.92h3.85c-.052-.59-.199-1.032-.442-1.326a1.778 1.778 0 0 0-1.447-.686c-.537 0-.989.182-1.357.547-.363.365-.565.853-.604 1.465Zm11.126 3.311c-.432.374-.85.638-1.252.792-.398.153-.827.23-1.286.23-.757 0-1.339-.187-1.746-.56-.406-.379-.61-.86-.61-1.445a1.95 1.95 0 0 1 .831-1.623c.251-.171.532-.3.844-.389a8.185 8.185 0 0 1 1.038-.178c.944-.114 1.638-.25 2.084-.409l.007-.31c0-.484-.111-.824-.331-1.022-.299-.269-.743-.403-1.331-.403-.55 0-.956.1-1.22.297-.26.194-.453.539-.578 1.036l-1.143-.159c.104-.496.275-.897.513-1.2.238-.308.582-.543 1.032-.706.45-.167.972-.25 1.565-.25.588 0 1.066.07 1.434.21.368.141.638.32.812.535.173.211.294.48.363.805.039.202.058.567.058 1.095V48.9c0 1.104.024 1.803.072 2.097.052.29.151.57.298.838h-1.22a2.562 2.562 0 0 1-.234-.864Zm-.097-2.652c-.424.176-1.06.326-1.908.449-.481.07-.82.15-1.019.237a1.012 1.012 0 0 0-.461.39 1.01 1.01 0 0 0-.162.56c0 .317.116.58.35.792.238.21.584.316 1.039.316.45 0 .85-.099 1.2-.297.351-.202.608-.477.773-.824.125-.268.188-.664.188-1.187v-.436Zm3.11 3.516V44.83h1.045v.983c.216-.343.504-.618.863-.825a2.375 2.375 0 0 1 1.227-.316c.511 0 .928.107 1.253.323.329.215.56.516.694.903.545-.818 1.255-1.227 2.129-1.227.684 0 1.21.194 1.578.581.367.383.551.974.551 1.774v4.81h-1.162v-4.414c0-.475-.038-.816-.116-1.022a.975.975 0 0 0-.409-.508 1.272 1.272 0 0 0-.701-.192c-.485 0-.887.165-1.208.495-.32.326-.48.849-.48 1.57v4.07h-1.168v-4.551c0-.528-.096-.924-.286-1.188-.19-.263-.502-.395-.935-.395a1.69 1.69 0 0 0-.915.263 1.5 1.5 0 0 0-.604.772c-.125.339-.188.827-.188 1.465v3.634h-1.168Zm10.717-2.091 1.155-.185c.065.47.245.832.539 1.082.299.25.714.376 1.246.376.537 0 .935-.11 1.195-.33.259-.224.389-.486.389-.785a.725.725 0 0 0-.344-.633c-.16-.105-.558-.24-1.194-.402-.857-.22-1.452-.41-1.785-.567a1.787 1.787 0 0 1-.753-.667 1.819 1.819 0 0 1-.253-.943c0-.312.069-.6.207-.864.143-.268.336-.49.578-.666.182-.137.428-.251.74-.343a3.441 3.441 0 0 1 1.013-.145c.541 0 1.014.079 1.421.237.411.158.714.374.909.646.195.269.329.63.402 1.082l-1.142.158c-.052-.36-.203-.642-.454-.844-.247-.202-.598-.303-1.052-.303-.537 0-.92.09-1.149.27-.229.18-.344.392-.344.633 0 .154.048.293.143.416.095.127.244.233.448.317a18.7 18.7 0 0 0 1.032.303c.826.224 1.402.409 1.726.554.329.14.587.348.773.62.186.273.279.611.279 1.016 0 .396-.115.77-.344 1.121-.225.348-.552.618-.98.812a3.569 3.569 0 0 1-1.454.283c-.896 0-1.58-.189-2.051-.567-.468-.378-.766-.939-.896-1.682ZM234 51.839 237.665 42h1.361l3.905 9.839h-1.438l-1.113-2.98h-3.991l-1.048 2.98H234Zm2.754-4.04h3.235l-.996-2.725a27.616 27.616 0 0 1-.677-2.04c-.122.63-.293 1.257-.514 1.879l-1.048 2.886Zm7.298 4.04V42h3.6c.633 0 1.117.031 1.451.094.469.08.862.235 1.178.463.317.224.571.54.762.946.195.407.293.855.293 1.343 0 .836-.258 1.546-.775 2.127-.516.577-1.449.866-2.799.866h-2.448v4h-1.262Zm1.262-5.161h2.468c.816 0 1.395-.157 1.738-.47.343-.313.514-.754.514-1.322 0-.412-.102-.763-.306-1.054a1.395 1.395 0 0 0-.794-.584c-.213-.058-.605-.087-1.178-.087h-2.442v3.517Zm7.956 5.161V42h1.263v9.839h-1.263Zm2.988-2.128 1.159-.188c.065.48.245.846.54 1.101.3.255.716.383 1.25.383.538 0 .938-.112 1.198-.336.26-.228.391-.494.391-.798a.74.74 0 0 0-.345-.645c-.161-.107-.56-.244-1.198-.41-.859-.223-1.456-.415-1.79-.576a1.797 1.797 0 0 1-.755-.678 1.868 1.868 0 0 1-.254-.96c0-.318.069-.61.208-.88.143-.272.336-.498.579-.677.183-.139.43-.255.742-.349a3.41 3.41 0 0 1 1.016-.148c.542 0 1.018.08 1.426.242.412.161.716.38.911.658.195.273.33.64.404 1.1l-1.146.161c-.052-.367-.204-.653-.456-.859-.247-.205-.599-.308-1.054-.308-.539 0-.923.091-1.153.275-.23.183-.345.398-.345.644 0 .157.048.298.144.423.095.13.245.237.449.322.117.045.462.148 1.035.309.829.228 1.406.416 1.731.563.33.144.588.354.775.631.187.278.28.622.28 1.034 0 .403-.115.783-.345 1.14-.226.354-.553.63-.983.826-.43.193-.916.289-1.458.289-.899 0-1.584-.192-2.057-.577-.469-.385-.768-.955-.899-1.712Z" fill="#2D2D2D"/><path d="m300 142.722 1.013-.09c.048.411.159.749.332 1.014.177.262.45.475.819.639.369.161.784.241 1.245.241.41 0 .772-.061 1.085-.185.314-.123.546-.291.697-.504a1.19 1.19 0 0 0 .233-.706c0-.258-.074-.482-.221-.673-.148-.194-.392-.357-.731-.487-.218-.086-.699-.219-1.445-.398-.745-.183-1.267-.355-1.566-.516-.387-.205-.677-.459-.869-.762a1.92 1.92 0 0 1-.282-1.025c0-.415.116-.802.349-1.16.232-.363.572-.637 1.018-.824.446-.187.943-.28 1.489-.28.601 0 1.131.099 1.588.297.461.194.816.482 1.063.863s.38.812.398 1.294l-1.029.079c-.055-.52-.244-.912-.565-1.177-.317-.265-.787-.398-1.411-.398-.649 0-1.123.121-1.422.364-.295.239-.443.529-.443.869 0 .295.105.538.315.728.207.191.746.387 1.617.589.874.198 1.474.371 1.798.521.473.22.821.5 1.046.84.225.337.338.725.338 1.166 0 .437-.124.85-.371 1.239-.247.384-.603.685-1.068.902a3.682 3.682 0 0 1-1.561.319c-.734 0-1.35-.108-1.848-.325a2.613 2.613 0 0 1-1.168-.975 2.822 2.822 0 0 1-.443-1.479Zm14.188 1.759c.498.348.957.602 1.378.762l-.315.757c-.583-.213-1.165-.549-1.744-1.009-.601.34-1.265.51-1.992.51a3.802 3.802 0 0 1-1.998-.538 3.591 3.591 0 0 1-1.384-1.513c-.321-.65-.481-1.382-.481-2.197 0-.81.162-1.548.487-2.213.324-.665.786-1.171 1.383-1.519a3.96 3.96 0 0 1 2.015-.521c.749 0 1.424.181 2.026.544a3.472 3.472 0 0 1 1.372 1.513c.317.646.476 1.376.476 2.191 0 .676-.101 1.285-.304 1.827a3.819 3.819 0 0 1-.919 1.406Zm-2.363-1.389c.62.175 1.131.437 1.533.784.631-.583.946-1.459.946-2.628 0-.665-.112-1.246-.337-1.743a2.556 2.556 0 0 0-.98-1.154 2.602 2.602 0 0 0-1.445-.415c-.8 0-1.464.278-1.992.835-.528.553-.792 1.38-.792 2.482 0 1.069.261 1.889.781 2.461.524.571 1.192.857 2.003.857.384 0 .746-.073 1.085-.219a3.464 3.464 0 0 0-1.062-.47l.26-.79Zm5.105 2.269v-8.215h1.074v7.246H322v.969h-5.07Z" fill="#9C9C9C"/><path fill-rule="evenodd" clip-rule="evenodd" d="M172 128.131V106h1.107v22.131c0 27.195 22.058 49.241 49.268 49.241h9.735l-2.578-2.576a.554.554 0 0 1 .783-.783l3.523 3.521a.554.554 0 0 1 0 .783l-3.523 3.521a.554.554 0 0 1-.783-.783l2.578-2.576h-9.735c-27.821 0-50.375-22.542-50.375-50.348Zm285 0V106h-1.107v22.131c0 27.195-22.058 49.241-49.268 49.241h-9.735l2.578-2.576a.554.554 0 0 0-.783-.783l-3.523 3.521a.554.554 0 0 0 0 .783l3.523 3.521a.554.554 0 0 0 .783-.783l-2.578-2.576h9.735c27.821 0 50.375-22.542 50.375-50.348Zm-146.543 37.972V153h1.086v13.103l2.53-2.587a.534.534 0 0 1 .768 0 .565.565 0 0 1 0 .786l-3.457 3.535a.534.534 0 0 1-.768 0l-3.457-3.535a.565.565 0 0 1 0-.786.534.534 0 0 1 .768 0l2.53 2.587ZM310 128v-22h1v22h-1Z" fill="#2D2D2D"/><path d="M87 128h113v29H87v-29Zm345 0h114v29H432v-29Z" fill="#F6F6F6"/><path d="m93.95 142.254 1.047.263c-.22.857-.616 1.511-1.188 1.963-.569.448-1.265.672-2.09.672-.852 0-1.547-.172-2.083-.516-.533-.348-.94-.85-1.22-1.506a5.373 5.373 0 0 1-.416-2.113c0-.821.157-1.536.47-2.146a3.226 3.226 0 0 1 1.344-1.392 3.94 3.94 0 0 1 1.922-.479c.792 0 1.458.201 1.998.602.54.402.916.966 1.128 1.694l-1.031.242c-.184-.573-.45-.991-.8-1.253-.348-.262-.788-.392-1.317-.392-.608 0-1.117.145-1.528.435a2.308 2.308 0 0 0-.858 1.172 4.676 4.676 0 0 0-.248 1.512c0 .67.097 1.256.291 1.758.198.498.504.871.918 1.118.414.248.862.371 1.344.371.587 0 1.084-.168 1.49-.505.407-.337.683-.837.826-1.5Zm1.967-.092c0-1.057.295-1.841.886-2.35.493-.423 1.094-.634 1.803-.634.788 0 1.432.258 1.933.774.5.513.75 1.223.75 2.13 0 .734-.111 1.313-.335 1.736a2.32 2.32 0 0 1-.966.979c-.421.233-.882.35-1.382.35-.803 0-1.452-.257-1.949-.769-.493-.513-.74-1.251-.74-2.216Zm1 0c0 .732.16 1.28.48 1.646.32.362.723.543 1.209.543.482 0 .884-.183 1.204-.549.32-.365.48-.923.48-1.672 0-.706-.162-1.24-.486-1.602a1.528 1.528 0 0 0-1.198-.549c-.486 0-.89.181-1.21.543-.32.362-.48.909-.48 1.64Zm5.627 2.856v-5.711h.87v.801c.179-.28.419-.504.718-.672a2.003 2.003 0 0 1 1.02-.258c.425 0 .772.088 1.042.263.273.176.466.422.578.737.453-.667 1.043-1 1.77-1 .569 0 1.006.158 1.312.473.306.312.459.794.459 1.447v3.92h-.966v-3.598c0-.387-.033-.665-.097-.833a.802.802 0 0 0-.34-.414 1.075 1.075 0 0 0-.584-.156c-.403 0-.737.134-1.004.403-.266.265-.399.692-.399 1.28v3.318h-.972v-3.711c0-.43-.079-.753-.238-.968-.158-.215-.417-.322-.777-.322-.274 0-.527.071-.761.215a1.218 1.218 0 0 0-.502.629c-.105.276-.157.674-.157 1.194v2.963h-.972Zm9.321 2.188v-7.899h.886v.742c.208-.29.444-.507.707-.651.263-.147.581-.22.956-.22.489 0 .921.125 1.295.376.375.251.657.606.848 1.065.191.455.286.955.286 1.5 0 .585-.106 1.112-.318 1.581a2.375 2.375 0 0 1-.918 1.076c-.4.247-.821.371-1.264.371-.324 0-.615-.068-.874-.205a1.99 1.99 0 0 1-.632-.516v2.78h-.972Zm.88-5.011c0 .734.15 1.278.448 1.629.299.351.661.527 1.086.527.431 0 .8-.181 1.106-.543.31-.366.465-.931.465-1.694 0-.728-.152-1.273-.454-1.635-.299-.362-.657-.543-1.074-.543-.414 0-.781.194-1.102.581-.316.383-.475.943-.475 1.678Zm9.143 2.823v-.839c-.446.645-1.053.968-1.819.968-.339 0-.655-.065-.95-.194-.292-.129-.51-.29-.654-.484a1.878 1.878 0 0 1-.297-.72c-.039-.19-.059-.492-.059-.904v-3.538h.972v3.167c0 .506.02.846.059 1.022.061.254.191.455.389.602.198.143.443.215.734.215.292 0 .565-.073.821-.22a1.25 1.25 0 0 0 .54-.608c.108-.258.162-.631.162-1.118v-3.06h.971v5.711h-.869Zm4.63-.866.14.855a3.645 3.645 0 0 1-.734.086c-.353 0-.627-.056-.821-.167a.937.937 0 0 1-.41-.435c-.079-.183-.119-.565-.119-1.146v-3.285h-.713v-.753h.713v-1.414l.966-.581v1.995h.978v.753h-.978v3.339c0 .276.017.454.049.532a.43.43 0 0 0 .167.189c.08.046.191.07.335.07.108 0 .25-.013.427-.038Zm4.991-.973 1.004.123c-.158.585-.452 1.038-.88 1.361-.428.322-.976.484-1.641.484-.839 0-1.505-.257-1.998-.769-.489-.517-.734-1.239-.734-2.167 0-.961.248-1.707.745-2.237.497-.531 1.141-.796 1.933-.796.766 0 1.393.26 1.878.78.486.519.729 1.251.729 2.194 0 .057-.002.143-.005.258h-4.276c.036.627.214 1.107.534 1.441.321.333.72.5 1.199.5.356 0 .66-.093.912-.28.252-.186.452-.484.6-.892Zm-3.191-1.565h3.202c-.044-.481-.166-.841-.368-1.081a1.49 1.49 0 0 0-1.204-.559c-.446 0-.822.148-1.128.446-.302.298-.47.695-.502 1.194Zm13.243 2.473c-.32.355-.669.622-1.047.802a2.884 2.884 0 0 1-1.226.263c-.81 0-1.452-.272-1.927-.817-.385-.445-.578-.941-.578-1.49 0-.487.157-.927.47-1.317.317-.395.788-.741 1.414-1.038-.356-.409-.594-.74-.712-.995a1.733 1.733 0 0 1-.178-.737c0-.473.185-.883.556-1.231.374-.351.844-.527 1.409-.527.54 0 .981.165 1.322.495.346.33.519.726.519 1.188 0 .749-.499 1.389-1.496 1.92l1.42 1.801c.162-.315.288-.681.378-1.097l1.01.215c-.173.689-.407 1.255-.702 1.7.363.48.775.883 1.236 1.209l-.653.769c-.392-.25-.797-.622-1.215-1.113Zm-1.976-4.108c.421-.247.693-.464.815-.651.126-.186.189-.392.189-.618a.874.874 0 0 0-.259-.656.855.855 0 0 0-.637-.258.916.916 0 0 0-.659.253.831.831 0 0 0-.259.618c0 .122.031.251.092.387.065.133.16.274.286.425l.432.5Zm1.366 3.345-1.782-2.2c-.525.312-.88.603-1.063.872-.184.265-.275.528-.275.79 0 .319.127.651.383.995.255.344.617.516 1.085.516.292 0 .592-.09.902-.269.313-.183.563-.417.75-.704Zm6.851 1.694v-7.884h1.576l1.874 5.582c.173.52.299.909.378 1.167.09-.287.23-.708.421-1.264l1.895-5.485h1.409v7.884h-1.01v-6.598l-2.299 6.598h-.945l-2.289-6.711v6.711h-1.01Zm12.971-.705c-.36.305-.708.52-1.042.645a2.982 2.982 0 0 1-1.069.189c-.63 0-1.114-.153-1.453-.457a1.525 1.525 0 0 1-.507-1.178c0-.28.063-.534.189-.764.129-.233.297-.419.502-.559a2.41 2.41 0 0 1 .702-.317c.191-.05.479-.099.864-.145.784-.094 1.362-.205 1.733-.334l.005-.252c0-.395-.092-.673-.275-.834-.249-.219-.618-.328-1.107-.328-.457 0-.795.081-1.015.242-.216.158-.376.439-.481.844l-.95-.129c.087-.405.229-.731.427-.978.198-.251.484-.443.858-.576a3.805 3.805 0 0 1 1.301-.204c.49 0 .888.057 1.193.172.306.115.531.26.675.435.144.173.245.391.303.657.032.164.048.462.048.892v1.291c0 .9.02 1.47.06 1.71.043.236.126.464.248.683h-1.015a2.028 2.028 0 0 1-.194-.705Zm-.081-2.161c-.353.143-.882.265-1.588.365-.399.058-.682.122-.847.194a.832.832 0 0 0-.519.774c0 .258.098.473.292.645.198.172.486.258.864.258.374 0 .707-.08.999-.242.291-.164.505-.388.642-.672.104-.218.157-.541.157-.968v-.354Zm6.346.774.955.124c-.104.656-.372 1.17-.804 1.543-.428.369-.956.554-1.582.554-.784 0-1.416-.255-1.895-.764-.475-.513-.712-1.246-.712-2.199 0-.617.102-1.156.307-1.619.205-.462.517-.808.934-1.038a2.788 2.788 0 0 1 1.372-.349c.622 0 1.132.158 1.527.473.396.312.65.756.762 1.334l-.945.145c-.09-.384-.25-.672-.481-.866a1.225 1.225 0 0 0-.826-.29c-.489 0-.887.175-1.193.527-.306.347-.459.899-.459 1.656 0 .767.148 1.324.443 1.672.295.348.68.522 1.155.522.382 0 .7-.117.956-.35.256-.233.418-.591.486-1.075Zm1.897 2.092v-7.884h.972v2.829a2.177 2.177 0 0 1 1.717-.785c.425 0 .794.084 1.107.253.313.164.536.394.669.688.137.294.206.72.206 1.28v3.619h-.972v-3.619c0-.484-.106-.836-.319-1.054-.209-.223-.506-.334-.891-.334-.288 0-.559.076-.815.226a1.254 1.254 0 0 0-.54.602c-.108.255-.162.606-.162 1.054v3.125h-.972Zm6.271-6.77v-1.114h.972v1.114h-.972Zm0 6.77v-5.711h.972v5.711h-.972Zm2.567 0v-5.711h.875v.812c.421-.627 1.029-.941 1.825-.941.345 0 .662.063.95.188.291.122.509.283.653.484.144.201.245.439.302.715.036.179.054.493.054.941v3.512h-.971v-3.474c0-.394-.038-.688-.114-.882a.911.911 0 0 0-.405-.468 1.253 1.253 0 0 0-.675-.177c-.413 0-.772.131-1.074.392-.299.262-.448.758-.448 1.49v3.119h-.972Zm10.19-1.839 1.005.123c-.159.585-.452 1.038-.88 1.361-.429.322-.976.484-1.642.484-.838 0-1.504-.257-1.997-.769-.49-.517-.734-1.239-.734-2.167 0-.961.248-1.707.745-2.237.496-.531 1.141-.796 1.932-.796.767 0 1.393.26 1.879.78.486.519.729 1.251.729 2.194 0 .057-.002.143-.005.258h-4.276c.036.627.214 1.107.534 1.441.321.333.72.5 1.199.5.356 0 .66-.093.912-.28.252-.186.452-.484.599-.892Zm-3.19-1.565h3.201c-.043-.481-.165-.841-.367-1.081a1.49 1.49 0 0 0-1.204-.559c-.446 0-.822.148-1.128.446-.303.298-.47.695-.502 1.194ZM88.26 157.682v-7.883h1.046v6.953h3.898v.93H88.26Zm10.108-1.839 1.005.124c-.159.584-.452 1.038-.88 1.36-.429.323-.976.484-1.642.484-.838 0-1.504-.256-1.997-.769-.49-.516-.734-1.238-.734-2.167 0-.96.248-1.706.745-2.237.496-.53 1.14-.795 1.932-.795.767 0 1.393.259 1.88.779.485.52.728 1.251.728 2.194 0 .058-.002.144-.005.258h-4.276c.036.628.214 1.108.534 1.441.32.334.72.501 1.199.501.356 0 .66-.094.912-.28.252-.186.452-.484.6-.893Zm-3.19-1.565h3.201c-.043-.48-.165-.84-.367-1.08-.31-.373-.71-.56-1.204-.56-.446 0-.822.149-1.128.447-.303.297-.47.695-.502 1.193Zm9.272 2.7c-.36.305-.707.52-1.042.645a2.978 2.978 0 0 1-1.069.188c-.63 0-1.114-.152-1.452-.457a1.524 1.524 0 0 1-.508-1.177c0-.28.063-.534.189-.764.13-.233.297-.419.502-.559.209-.14.443-.246.702-.317.191-.051.479-.099.864-.146.785-.093 1.362-.204 1.733-.333l.006-.253c0-.394-.092-.672-.276-.833-.248-.219-.617-.328-1.107-.328-.457 0-.795.08-1.015.242-.216.158-.376.439-.48.844l-.95-.129c.086-.405.228-.731.426-.979.198-.251.484-.442.859-.575a3.8 3.8 0 0 1 1.301-.204c.489 0 .887.057 1.193.172.306.114.531.26.675.435.144.172.245.391.302.656.033.165.049.463.049.893v1.29c0 .9.019 1.47.059 1.71.043.237.126.465.248.683h-1.015a2.06 2.06 0 0 1-.194-.704Zm-.081-2.162c-.353.144-.882.266-1.587.366-.4.057-.682.122-.848.193a.843.843 0 0 0-.227 1.42c.198.172.486.258.864.258.375 0 .708-.08.999-.242.292-.165.506-.389.643-.672.104-.219.156-.541.156-.968v-.355Zm2.594 2.866v-5.71h.875v.865c.223-.405.428-.672.615-.801.191-.129.4-.193.626-.193.328 0 .661.104.999.311l-.334.898a1.405 1.405 0 0 0-.713-.209.919.919 0 0 0-.572.193c-.17.126-.29.301-.362.527a3.758 3.758 0 0 0-.162 1.13v2.989h-.972Zm3.804 0v-5.71h.874v.812c.421-.628 1.03-.941 1.825-.941.345 0 .662.062.95.188.292.122.509.283.653.484.144.2.245.439.303.715.036.179.054.493.054.941v3.511h-.972v-3.473c0-.395-.038-.689-.113-.882a.92.92 0 0 0-.405-.468 1.259 1.259 0 0 0-.675-.178 1.59 1.59 0 0 0-1.075.393c-.298.262-.448.758-.448 1.489v3.119h-.971Zm6.27-6.77v-1.113h.972v1.113h-.972Zm0 6.77v-5.71h.972v5.71h-.972Zm2.567 0v-5.71h.875v.812c.421-.628 1.029-.941 1.825-.941.345 0 .662.062.95.188.291.122.509.283.653.484.144.2.245.439.302.715.036.179.054.493.054.941v3.511h-.971v-3.473c0-.395-.038-.689-.114-.882a.911.911 0 0 0-.405-.468 1.253 1.253 0 0 0-.674-.178c-.414 0-.773.131-1.075.393-.299.262-.448.758-.448 1.489v3.119h-.972Zm6.087.474.945.139c.04.291.149.502.329.635.242.179.571.269.988.269.45 0 .798-.09 1.042-.269.245-.179.411-.43.497-.753.051-.197.074-.611.07-1.242-.424.498-.953.747-1.587.747-.788 0-1.398-.283-1.83-.849-.432-.567-.648-1.246-.648-2.038 0-.545.099-1.047.297-1.506.198-.462.484-.819.858-1.07.378-.251.821-.376 1.328-.376.677 0 1.235.272 1.674.817v-.688h.896v4.936c0 .889-.091 1.518-.275 1.887-.18.373-.468.667-.864.882-.392.215-.876.323-1.452.323-.684 0-1.236-.154-1.658-.462-.421-.305-.624-.766-.61-1.382Zm.805-3.431c0 .749.149 1.296.448 1.64.299.344.673.516 1.123.516.446 0 .82-.17 1.123-.511.302-.344.453-.882.453-1.613 0-.699-.156-1.226-.469-1.581-.31-.355-.684-.532-1.123-.532-.432 0-.799.175-1.102.527-.302.348-.453.866-.453 1.554ZM446 145.852l3.053-8.704h1.133l3.253 8.704h-1.198l-.927-2.636h-3.324l-.873 2.636H446Zm2.294-3.574h2.695l-.83-2.411a25.45 25.45 0 0 1-.564-1.804 11.934 11.934 0 0 1-.428 1.662l-.873 2.553Zm11.769.522 1.052.291c-.221.946-.618 1.668-1.193 2.167-.571.495-1.271.742-2.099.742-.856 0-1.554-.19-2.093-.57-.535-.384-.943-.938-1.225-1.662a6.433 6.433 0 0 1-.418-2.333c0-.907.158-1.696.472-2.369.318-.677.768-1.189 1.35-1.538a3.678 3.678 0 0 1 1.931-.528c.795 0 1.464.222 2.006.665.542.443.92 1.067 1.133 1.87l-1.036.267c-.184-.633-.451-1.094-.802-1.383-.351-.289-.792-.434-1.323-.434-.611 0-1.123.161-1.535.481-.408.321-.696.752-.862 1.295a5.625 5.625 0 0 0-.249 1.668c0 .74.097 1.387.293 1.941.198.55.506.962.921 1.235.416.273.866.41 1.351.41.589 0 1.088-.187 1.496-.559.409-.372.685-.924.83-1.656Zm2.643 3.052v-8.704h1.052v8.704h-1.052Zm3.023 0v-8.704h2.738c.618 0 1.09.042 1.415.125.456.115.844.323 1.166.623.42.388.732.885.938 1.491.21.601.315 1.29.315 2.066 0 .66-.071 1.246-.212 1.757-.141.51-.321.934-.542 1.27-.22.333-.463.596-.727.79-.26.19-.576.334-.948.433a4.938 4.938 0 0 1-1.275.149h-2.868Zm1.052-1.027h1.697c.524 0 .934-.054 1.231-.161.3-.107.538-.257.716-.451.249-.273.442-.639.58-1.098.141-.463.211-1.023.211-1.68 0-.911-.137-1.609-.412-2.096-.271-.491-.602-.819-.992-.985-.282-.119-.736-.179-1.361-.179h-1.67v6.65Zm12.102 1.027v-7.677h-2.619v-1.027h6.301v1.027h-2.63v7.677h-1.052Zm4.33 0v-6.305h.878v.956c.224-.448.43-.742.618-.885.192-.142.402-.214.629-.214.329 0 .664.115 1.004.345l-.337.991a1.309 1.309 0 0 0-.715-.231.872.872 0 0 0-.575.213c-.17.139-.291.333-.363.582-.109.38-.163.796-.163 1.247v3.301h-.976Zm7.578-.778c-.362.336-.711.574-1.047.712-.333.139-.69.208-1.074.208-.632 0-1.118-.168-1.458-.505-.34-.34-.51-.773-.51-1.3 0-.308.063-.589.19-.843.13-.257.298-.463.504-.617.21-.154.445-.271.705-.35.192-.056.481-.109.868-.161.788-.103 1.368-.225 1.74-.368l.006-.279c0-.435-.093-.742-.277-.92-.249-.241-.62-.362-1.112-.362-.459 0-.798.089-1.019.267-.217.174-.378.485-.483.932l-.954-.142c.087-.448.23-.808.429-1.081.198-.277.486-.489.862-.635.376-.15.811-.226 1.306-.226.492 0 .892.064 1.199.19.307.127.533.287.678.481.144.19.245.432.303.724.033.183.049.511.049.986v1.425c0 .993.02 1.622.06 1.888.043.261.126.512.249.754h-1.019a2.393 2.393 0 0 1-.195-.778Zm-.082-2.387c-.354.159-.885.293-1.594.404-.401.063-.685.135-.851.214a.861.861 0 0 0-.385.35.956.956 0 0 0-.136.505c0 .285.098.522.293.712.199.19.488.285.868.285.375 0 .71-.089 1.003-.267a1.63 1.63 0 0 0 .645-.742c.105-.242.157-.598.157-1.069v-.392Zm2.616 3.165v-6.305h.879v.896c.423-.692 1.034-1.039 1.833-1.039.347 0 .665.07.954.208.293.135.511.313.656.534.145.222.246.485.304.79.036.198.054.544.054 1.039v3.877h-.976v-3.836c0-.435-.038-.759-.114-.973a.992.992 0 0 0-.407-.517 1.176 1.176 0 0 0-.678-.196c-.415 0-.775.145-1.079.434-.3.289-.45.837-.45 1.644v3.444h-.976Zm5.902-1.882.966-.167c.054.424.204.748.45.974.249.226.596.338 1.041.338.448 0 .781-.099.997-.296a.939.939 0 0 0 .326-.707.666.666 0 0 0-.288-.57c-.133-.095-.466-.215-.997-.362-.716-.198-1.213-.368-1.491-.51a1.538 1.538 0 0 1-.629-.6 1.736 1.736 0 0 1-.212-.849c0-.281.058-.54.174-.778a1.71 1.71 0 0 1 .482-.599c.152-.123.358-.226.618-.309.264-.087.546-.131.846-.131.452 0 .848.072 1.188.214.343.143.596.336.759.582.163.241.275.566.336.973l-.954.143c-.044-.325-.17-.578-.38-.76-.206-.182-.499-.273-.878-.273-.448 0-.768.081-.96.243-.192.163-.287.353-.287.57 0 .139.039.263.119.374.079.115.204.21.374.285.098.04.385.131.862.273.691.202 1.171.368 1.443.499.274.127.489.313.645.558.155.245.233.55.233.914a1.924 1.924 0 0 1-1.106 1.74c-.358.17-.763.255-1.215.255-.748 0-1.319-.17-1.713-.51-.391-.341-.64-.845-.749-1.514Zm9.812 1.104c-.361.336-.71.574-1.046.712a2.76 2.76 0 0 1-1.074.208c-.633 0-1.119-.168-1.459-.505-.339-.34-.509-.773-.509-1.3 0-.308.063-.589.189-.843a1.74 1.74 0 0 1 .505-.617c.209-.154.444-.271.705-.35a6.36 6.36 0 0 1 .867-.161c.788-.103 1.368-.225 1.741-.368l.005-.279c0-.435-.092-.742-.276-.92-.25-.241-.62-.362-1.112-.362-.459 0-.799.089-1.019.267-.217.174-.378.485-.483.932l-.954-.142c.086-.448.229-.808.428-1.081.199-.277.486-.489.862-.635.376-.15.812-.226 1.307-.226.492 0 .891.064 1.198.19.308.127.534.287.678.481.145.19.246.432.304.724.032.183.049.511.049.986v1.425c0 .993.019 1.622.059 1.888.044.261.127.512.25.754h-1.02a2.445 2.445 0 0 1-.195-.778Zm-.081-2.387c-.355.159-.886.293-1.594.404-.402.063-.685.135-.852.214a.872.872 0 0 0-.385.35.964.964 0 0 0-.135.505.95.95 0 0 0 .293.712c.198.19.488.285.867.285.376 0 .71-.089 1.003-.267.293-.182.508-.43.645-.742.105-.242.158-.598.158-1.069v-.392Zm6.374.855.959.137c-.104.724-.374 1.292-.808 1.704-.43.407-.959.611-1.588.611-.788 0-1.423-.281-1.904-.843-.477-.566-.715-1.375-.715-2.428 0-.681.103-1.276.309-1.787.206-.511.518-.892.938-1.146a2.604 2.604 0 0 1 1.377-.386c.625 0 1.137.174 1.535.523.397.344.652.835.764 1.472l-.949.16c-.09-.423-.251-.742-.482-.955a1.17 1.17 0 0 0-.83-.321c-.492 0-.891.194-1.198.582-.308.384-.461.993-.461 1.828 0 .847.148 1.463.444 1.847.297.383.684.575 1.161.575.383 0 .703-.128.96-.385.256-.258.419-.653.488-1.188Zm4.036 1.354.141.944c-.274.063-.52.095-.737.095-.354 0-.629-.062-.824-.184a1.002 1.002 0 0 1-.412-.481c-.08-.202-.12-.624-.12-1.265v-3.627h-.715v-.831h.715v-1.562l.971-.641v2.203h.981v.831h-.981v3.687c0 .304.016.5.049.587a.453.453 0 0 0 .168.208.61.61 0 0 0 .336.077c.109 0 .251-.014.428-.041Zm1.077-6.519v-1.229h.976v1.229h-.976Zm0 7.475v-6.305h.976v6.305h-.976Zm2.215-3.153c0-1.167.296-2.032.889-2.594.495-.467 1.099-.701 1.811-.701.792 0 1.439.285 1.941.855.503.566.754 1.35.754 2.351 0 .812-.112 1.451-.336 1.918a2.471 2.471 0 0 1-.971 1.08 2.624 2.624 0 0 1-1.388.386c-.806 0-1.459-.283-1.958-.849-.495-.566-.742-1.381-.742-2.446Zm1.003 0c0 .808.161 1.413.482 1.817.322.4.727.599 1.215.599.484 0 .887-.201 1.209-.605.322-.404.483-1.019.483-1.846 0-.78-.163-1.37-.488-1.77-.322-.403-.723-.605-1.204-.605-.488 0-.893.2-1.215.6-.321.399-.482 1.003-.482 1.81Zm5.652 3.153v-6.305h.879v.896c.423-.692 1.034-1.039 1.833-1.039.347 0 .665.07.954.208.293.135.511.313.656.534.145.222.246.485.304.79.036.198.054.544.054 1.039v3.877h-.976v-3.836c0-.435-.038-.759-.114-.973a.987.987 0 0 0-.407-.517 1.175 1.175 0 0 0-.677-.196c-.416 0-.776.145-1.08.434-.3.289-.45.837-.45 1.644v3.444h-.976Zm5.902-1.882.966-.167c.054.424.204.748.45.974.249.226.596.338 1.041.338.448 0 .781-.099.998-.296a.941.941 0 0 0 .325-.707.666.666 0 0 0-.288-.57c-.133-.095-.466-.215-.997-.362-.716-.198-1.213-.368-1.491-.51a1.538 1.538 0 0 1-.629-.6 1.736 1.736 0 0 1-.212-.849c0-.281.058-.54.174-.778a1.71 1.71 0 0 1 .482-.599c.152-.123.358-.226.618-.309.264-.087.546-.131.846-.131.452 0 .848.072 1.188.214.343.143.596.336.759.582.163.241.275.566.336.973l-.954.143c-.044-.325-.17-.578-.38-.76-.206-.182-.499-.273-.878-.273-.448 0-.768.081-.96.243-.192.163-.287.353-.287.57 0 .139.039.263.119.374.079.115.204.21.374.285.098.04.385.131.862.273.691.202 1.171.368 1.443.499.274.127.489.313.645.558.155.245.233.55.233.914a1.924 1.924 0 0 1-1.106 1.74c-.358.17-.763.255-1.215.255-.748 0-1.319-.17-1.713-.51-.391-.341-.64-.845-.749-1.514Z" fill="#9C9C9C"/><path d="M265 225.5c0-24.577 20.147-44.5 45-44.5s45 19.923 45 44.5-20.147 44.5-45 44.5-45-19.923-45-44.5Z" fill="#ED1C24"/><path d="M302.188 210s-19.888 12.416-1.144 24.744c3.605 2.401 16.683 9.077 16.311 15.256 0 0 7.926-12.006-3.663-19.561-11.904-7.73-14.88-15.988-11.504-20.439Z" fill="#fff"/><path d="M294.821 234s-7.166 11.059 6.934 13.324c1.387.176 11.587 1.264 14.245 4.676 0 0-.231-5.882-8.553-9.353-8.292-3.471-11.702-4.323-12.626-8.647Zm28.029-11.826c-8.624-9.163-11.026-14.832-7.322-22.174 0 0-25.725 10.044-.318 27.872 9.086 6.373 7.582 12.893 7.582 13.128 1.418-1.498 8.681-9.663.058-18.826Z" fill="#fff"/><path d="M72 366.5c0-8.56 6.842-15.5 15.281-15.5H540.72c8.439 0 15.281 6.94 15.281 15.5 0 8.56-6.842 15.5-15.281 15.5H87.281C78.841 382 72 375.06 72 366.5Z" fill="#E6E6E6"/><path d="M352 370.151v-29.739s4.324 3.601 17.763 3.601c13.439 0 18.23-4.013 18.23-4.013v30.151s.904 4.849-17.545 4.849C352 375 352 370.151 352 370.151Z" fill="#fff"/><path d="M389 338.5c0 3.038-8.507 5.5-19 5.5s-19-2.462-19-5.5 8.507-5.5 19-5.5 19 2.462 19 5.5Z" fill="#fff"/><path fill-rule="evenodd" clip-rule="evenodd" d="M386.856 339.773c.85-.581 1.027-1.026 1.027-1.273 0-.247-.177-.692-1.027-1.273-.822-.563-2.085-1.114-3.745-1.594-3.307-.958-7.943-1.566-13.111-1.566-5.168 0-9.804.608-13.111 1.566-1.66.48-2.923 1.031-3.745 1.594-.85.581-1.027 1.026-1.027 1.273 0 .247.177.692 1.027 1.273.822.563 2.085 1.114 3.745 1.594 3.307.958 7.943 1.566 13.111 1.566 5.168 0 9.804-.608 13.111-1.566 1.66-.48 2.923-1.031 3.745-1.594ZM370 344c10.493 0 19-2.462 19-5.5s-8.507-5.5-19-5.5-19 2.462-19 5.5 8.507 5.5 19 5.5Z" fill="#2D2D2D"/><path fill-rule="evenodd" clip-rule="evenodd" d="M351 369v-30h1v30h-1Zm37 0v-31h1v31h-1Zm-30.88 3.348c3.272.97 7.826 1.577 12.88 1.577 5.054 0 9.608-.607 12.88-1.577 1.64-.485 2.926-1.052 3.79-1.657.877-.614 1.22-1.193 1.22-1.691H389c0 1.01-.69 1.869-1.679 2.562-1.003.702-2.418 1.312-4.116 1.815C379.801 374.385 375.133 375 370 375c-5.133 0-9.801-.615-13.205-1.623-1.698-.503-3.113-1.113-4.116-1.815-.989-.693-1.679-1.552-1.679-2.562h1.11c0 .498.343 1.077 1.22 1.691.864.605 2.15 1.172 3.79 1.657Z" fill="#2D2D2D"/><path d="M476 370.151v-29.739s4.324 3.601 17.763 3.601c13.439 0 18.23-4.013 18.23-4.013v30.151s.904 4.849-17.545 4.849C476 375 476 370.151 476 370.151Z" fill="#fff"/><path d="M513 338.5c0 3.038-8.507 5.5-19 5.5s-19-2.462-19-5.5 8.507-5.5 19-5.5 19 2.462 19 5.5Z" fill="#fff"/><path fill-rule="evenodd" clip-rule="evenodd" d="M510.856 339.773c.85-.581 1.027-1.026 1.027-1.273 0-.247-.177-.692-1.027-1.273-.822-.563-2.085-1.114-3.745-1.594-3.307-.958-7.943-1.566-13.111-1.566-5.168 0-9.804.608-13.111 1.566-1.66.48-2.923 1.031-3.745 1.594-.85.581-1.027 1.026-1.027 1.273 0 .247.177.692 1.027 1.273.822.563 2.085 1.114 3.745 1.594 3.307.958 7.943 1.566 13.111 1.566 5.168 0 9.804-.608 13.111-1.566 1.66-.48 2.923-1.031 3.745-1.594ZM494 344c10.493 0 19-2.462 19-5.5s-8.507-5.5-19-5.5-19 2.462-19 5.5 8.507 5.5 19 5.5Z" fill="#2D2D2D"/><path fill-rule="evenodd" clip-rule="evenodd" d="M475 369v-30h1v30h-1Zm37 0v-31h1v31h-1Zm-30.88 3.348c3.272.97 7.826 1.577 12.88 1.577 5.054 0 9.608-.607 12.88-1.577 1.64-.485 2.926-1.052 3.79-1.657.877-.614 1.22-1.193 1.22-1.691H513c0 1.01-.69 1.869-1.679 2.562-1.003.702-2.418 1.312-4.116 1.815C503.801 374.385 499.133 375 494 375c-5.133 0-9.801-.615-13.205-1.623-1.698-.503-3.113-1.113-4.116-1.815-.989-.693-1.679-1.552-1.679-2.562h1.11c0 .498.343 1.077 1.22 1.691.864.605 2.15 1.172 3.79 1.657Z" fill="#2D2D2D"/><path d="M230 370.151v-29.739s4.324 3.601 17.763 3.601c13.439 0 18.23-4.013 18.23-4.013v30.151s.904 4.849-17.545 4.849C230 375 230 370.151 230 370.151Z" fill="#fff"/><path d="M266 338.5c0 3.038-8.507 5.5-19 5.5s-19-2.462-19-5.5 8.507-5.5 19-5.5 19 2.462 19 5.5Z" fill="#fff"/><path fill-rule="evenodd" clip-rule="evenodd" d="M263.856 339.773c.85-.581 1.027-1.026 1.027-1.273 0-.247-.177-.692-1.027-1.273-.822-.563-2.085-1.114-3.745-1.594-3.307-.958-7.943-1.566-13.111-1.566-5.168 0-9.804.608-13.111 1.566-1.66.48-2.923 1.031-3.745 1.594-.85.581-1.027 1.026-1.027 1.273 0 .247.177.692 1.027 1.273.822.563 2.085 1.114 3.745 1.594 3.307.958 7.943 1.566 13.111 1.566 5.168 0 9.804-.608 13.111-1.566 1.66-.48 2.923-1.031 3.745-1.594ZM247 344c10.493 0 19-2.462 19-5.5s-8.507-5.5-19-5.5-19 2.462-19 5.5 8.507 5.5 19 5.5Z" fill="#2D2D2D"/><path fill-rule="evenodd" clip-rule="evenodd" d="M229 369v-30h1v30h-1Zm36 0v-31h1v31h-1Zm-30.88 3.348c3.272.97 7.826 1.577 12.88 1.577 5.054 0 9.608-.607 12.88-1.577 1.64-.485 2.926-1.052 3.79-1.657.877-.614 1.22-1.193 1.22-1.691H266c0 1.01-.69 1.869-1.679 2.562-1.003.702-2.418 1.312-4.116 1.815C256.801 374.385 252.133 375 247 375c-5.133 0-9.801-.615-13.205-1.623-1.698-.503-3.113-1.113-4.116-1.815-.989-.693-1.679-1.552-1.679-2.562h1.11c0 .498.343 1.077 1.22 1.691.864.605 2.15 1.172 3.79 1.657Z" fill="#2D2D2D"/><path d="M109 370.151v-29.739s4.324 3.601 17.763 3.601c13.439 0 18.23-4.013 18.23-4.013v30.151s.904 4.849-17.545 4.849C109 375 109 370.151 109 370.151Z" fill="#fff"/><path d="M146 338.5c0 3.038-8.507 5.5-19 5.5s-19-2.462-19-5.5 8.507-5.5 19-5.5 19 2.462 19 5.5Z" fill="#fff"/><path fill-rule="evenodd" clip-rule="evenodd" d="M143.856 339.773c.85-.581 1.027-1.026 1.027-1.273 0-.247-.177-.692-1.027-1.273-.822-.563-2.085-1.114-3.745-1.594-3.307-.958-7.943-1.566-13.111-1.566-5.168 0-9.804.608-13.111 1.566-1.66.48-2.923 1.031-3.745 1.594-.85.581-1.027 1.026-1.027 1.273 0 .247.177.692 1.027 1.273.822.563 2.085 1.114 3.745 1.594 3.307.958 7.943 1.566 13.111 1.566 5.168 0 9.804-.608 13.111-1.566 1.66-.48 2.923-1.031 3.745-1.594ZM127 344c10.493 0 19-2.462 19-5.5s-8.507-5.5-19-5.5-19 2.462-19 5.5 8.507 5.5 19 5.5Z" fill="#2D2D2D"/><path fill-rule="evenodd" clip-rule="evenodd" d="M108 369v-30h1v30h-1Zm37 0v-31h1v31h-1Zm-30.88 3.348c3.272.97 7.826 1.577 12.88 1.577 5.054 0 9.608-.607 12.88-1.577 1.64-.485 2.926-1.052 3.79-1.657.877-.614 1.22-1.193 1.22-1.691H146c0 1.01-.69 1.869-1.679 2.562-1.003.702-2.418 1.312-4.116 1.815C136.801 374.385 132.133 375 127 375c-5.133 0-9.801-.615-13.205-1.623-1.698-.503-3.113-1.113-4.116-1.815-.989-.693-1.679-1.552-1.679-2.562h1.11c0 .498.343 1.077 1.22 1.691.864.605 2.15 1.172 3.79 1.657Z" fill="#2D2D2D"/><path d="M466 395.129c0-1.605.428-2.859 1.283-3.764.855-.91 1.959-1.365 3.311-1.365.886 0 1.684.213 2.395.639a4.142 4.142 0 0 1 1.624 1.787c.375.76.562 1.624.562 2.59 0 .98-.196 1.857-.589 2.631-.392.773-.949 1.36-1.669 1.76a4.762 4.762 0 0 1-2.329.593c-.903 0-1.711-.22-2.422-.659a4.234 4.234 0 0 1-1.616-1.8 5.477 5.477 0 0 1-.55-2.412Zm1.309.019c0 1.165.31 2.083.929 2.756.624.668 1.405 1.002 2.343 1.002.956 0 1.741-.339 2.356-1.015.62-.677.929-1.637.929-2.881 0-.787-.133-1.472-.399-2.057a3.006 3.006 0 0 0-1.158-1.364 3.087 3.087 0 0 0-1.708-.488c-.899 0-1.673.312-2.324.936-.645.62-.968 1.657-.968 3.111Zm12.042 3.626.17 1.048c-.331.07-.628.105-.89.105-.427 0-.759-.068-.995-.204a1.144 1.144 0 0 1-.497-.534c-.096-.224-.144-.692-.144-1.404v-4.028h-.864v-.922h.864v-1.734l1.172-.712v2.446h1.184v.922h-1.184v4.094c0 .338.019.556.058.653a.525.525 0 0 0 .203.23.801.801 0 0 0 .406.086c.131 0 .303-.015.517-.046Zm1.27 1.061v-9.664h1.178v3.468c.55-.642 1.244-.963 2.081-.963.515 0 .962.104 1.342.31.38.202.65.484.811.844.166.36.249.883.249 1.569v4.436h-1.178v-4.436c0-.593-.129-1.024-.386-1.292-.253-.273-.613-.409-1.08-.409-.349 0-.678.092-.988.277-.305.18-.524.426-.654.738-.131.312-.197.743-.197 1.292v3.83h-1.178Zm12.33-2.254 1.218.151c-.192.717-.548 1.273-1.067 1.668-.519.396-1.182.593-1.99.593-1.016 0-1.823-.314-2.421-.942-.593-.633-.89-1.519-.89-2.657 0-1.178.301-2.092.903-2.742.602-.65 1.383-.976 2.343-.976.929 0 1.688.319 2.277.956.589.637.884 1.534.884 2.69 0 .07-.002.175-.007.316h-5.183c.044.769.26 1.358.648 1.767.388.408.873.613 1.453.613.432 0 .801-.114 1.106-.343.305-.229.548-.593.726-1.094Zm-3.867-1.919h3.88c-.052-.588-.2-1.03-.445-1.324a1.797 1.797 0 0 0-1.459-.686c-.541 0-.997.182-1.368.547-.366.365-.569.853-.608 1.463Zm6.669 4.173v-7h1.06v1.061c.271-.497.519-.824.746-.982a1.31 1.31 0 0 1 .759-.238c.397 0 .801.128 1.211.383l-.406 1.101a1.673 1.673 0 0 0-.864-.258c-.257 0-.488.08-.693.238a1.25 1.25 0 0 0-.439.646 4.648 4.648 0 0 0-.196 1.384v3.665h-1.178Zm7.959-2.089 1.165-.185c.065.47.246.831.543 1.081.301.251.72.376 1.256.376.541 0 .943-.11 1.205-.33.261-.224.392-.485.392-.784a.721.721 0 0 0-.347-.633c-.161-.106-.562-.24-1.204-.402-.864-.22-1.464-.409-1.799-.567a1.805 1.805 0 0 1-.76-.666 1.81 1.81 0 0 1-.255-.943c0-.312.07-.599.21-.863.144-.268.338-.49.582-.666.183-.136.432-.25.746-.343a3.524 3.524 0 0 1 1.021-.145c.545 0 1.023.079 1.433.238.415.158.72.373.916.646.197.268.332.628.406 1.081l-1.152.158c-.052-.36-.205-.642-.458-.844-.248-.202-.602-.303-1.06-.303-.541 0-.927.09-1.158.27-.232.18-.347.391-.347.633 0 .154.048.292.144.415.096.128.246.233.451.317.118.044.465.145 1.041.303.833.224 1.414.409 1.741.554.331.14.591.347.779.619.187.273.281.611.281 1.016 0 .395-.116.769-.347 1.12-.227.347-.556.618-.988.811a3.624 3.624 0 0 1-1.466.283c-.903 0-1.593-.189-2.068-.567-.471-.377-.772-.938-.903-1.68Zm9.856 1.028.17 1.048c-.331.07-.628.105-.89.105-.427 0-.759-.068-.994-.204a1.142 1.142 0 0 1-.498-.534c-.096-.224-.144-.692-.144-1.404v-4.028h-.864v-.922h.864v-1.734l1.172-.712v2.446h1.184v.922h-1.184v4.094c0 .338.019.556.059.653a.517.517 0 0 0 .202.23.801.801 0 0 0 .406.086c.131 0 .303-.015.517-.046Zm.832-2.439c0-1.297.358-2.257 1.073-2.881.598-.518 1.326-.778 2.186-.778.955 0 1.736.317 2.343.95.606.628.91 1.498.91 2.61 0 .901-.136 1.611-.406 2.129a2.843 2.843 0 0 1-1.172 1.2 3.367 3.367 0 0 1-1.675.428c-.973 0-1.761-.314-2.363-.942-.597-.629-.896-1.534-.896-2.716Zm1.21 0c0 .896.195 1.569.583 2.017.388.444.877.666 1.466.666.585 0 1.071-.224 1.459-.673.389-.448.583-1.131.583-2.05 0-.865-.197-1.52-.589-1.964-.389-.448-.873-.672-1.453-.672-.589 0-1.078.221-1.466.665-.388.444-.583 1.114-.583 2.011Zm6.788 3.5v-7h1.06v1.061c.27-.497.519-.824.746-.982a1.31 1.31 0 0 1 .759-.238c.397 0 .801.128 1.211.383l-.406 1.101a1.673 1.673 0 0 0-.864-.258c-.257 0-.489.08-.694.238a1.248 1.248 0 0 0-.438.646 4.648 4.648 0 0 0-.196 1.384v3.665h-1.178Zm9.345-2.254 1.218.151c-.192.717-.548 1.273-1.067 1.668-.519.396-1.182.593-1.99.593-1.016 0-1.823-.314-2.421-.942-.593-.633-.89-1.519-.89-2.657 0-1.178.301-2.092.903-2.742.602-.65 1.383-.976 2.343-.976.929 0 1.688.319 2.278.956.588.637.883 1.534.883 2.69 0 .07-.002.175-.007.316h-5.183c.044.769.26 1.358.648 1.767.388.408.873.613 1.453.613.432 0 .801-.114 1.106-.343.305-.229.548-.593.726-1.094Zm-3.867-1.919h3.881c-.053-.588-.201-1.03-.445-1.324a1.8 1.8 0 0 0-1.46-.686c-.541 0-.997.182-1.368.547-.366.365-.569.853-.608 1.463ZM346 400.219v-10.041h1.305l5.048 7.884v-7.884h1.22v10.041h-1.305l-5.048-7.89v7.89H346Zm9.239-3.637c0-1.347.358-2.345 1.075-2.993.599-.539 1.329-.808 2.19-.808.957 0 1.74.329 2.347.986.608.653.912 1.557.912 2.712 0 .937-.136 1.674-.407 2.213a2.9 2.9 0 0 1-1.174 1.246 3.282 3.282 0 0 1-1.678.446c-.975 0-1.764-.327-2.367-.98-.599-.653-.898-1.593-.898-2.822Zm1.213 0c0 .932.194 1.63.583 2.096.389.461.879.692 1.469.692.586 0 1.073-.233 1.462-.699.389-.466.584-1.176.584-2.13 0-.899-.197-1.58-.591-2.041-.389-.466-.874-.699-1.455-.699-.59 0-1.08.231-1.469.692-.389.461-.583 1.158-.583 2.089Zm6.53.411 1.2-.109c.057.502.188.915.394 1.239.21.32.533.58.97.781.437.196.929.295 1.475.295.486 0 .914-.076 1.285-.226.372-.151.647-.357.827-.617.183-.265.275-.552.275-.863a1.33 1.33 0 0 0-.262-.822c-.175-.237-.464-.436-.866-.596-.258-.105-.828-.267-1.711-.486-.883-.224-1.502-.434-1.856-.63-.459-.251-.802-.562-1.029-.932a2.4 2.4 0 0 1-.334-1.253c0-.507.137-.979.413-1.418.275-.443.677-.778 1.206-1.007a4.412 4.412 0 0 1 1.764-.342c.712 0 1.34.121 1.882.363.546.237.966.589 1.258 1.055.293.465.451.993.473 1.582l-1.22.096c-.066-.635-.288-1.114-.669-1.439-.376-.324-.933-.486-1.672-.486-.769 0-1.331.148-1.685.445-.349.293-.524.646-.524 1.062 0 .361.124.657.373.89.245.233.883.473 1.915.72 1.036.242 1.746.454 2.131.637.559.269.972.611 1.239 1.027.267.411.4.886.4 1.425 0 .534-.146 1.038-.439 1.513-.293.471-.715.838-1.266 1.103-.546.26-1.162.39-1.849.39-.869 0-1.599-.132-2.19-.397a3.132 3.132 0 0 1-1.383-1.192 3.54 3.54 0 0 1-.525-1.808Zm16.786 2.151c.59.424 1.134.735 1.632.931l-.373.925c-.691-.26-1.379-.671-2.066-1.233a4.593 4.593 0 0 1-2.36.623c-.87 0-1.659-.219-2.367-.657-.708-.438-1.254-1.055-1.639-1.849-.38-.795-.571-1.69-.571-2.685 0-.991.193-1.893.577-2.706.385-.813.932-1.431 1.64-1.856.712-.425 1.508-.637 2.386-.637.888 0 1.687.221 2.4.664a4.215 4.215 0 0 1 1.626 1.85c.376.79.564 1.682.564 2.678 0 .826-.12 1.571-.361 2.233a4.703 4.703 0 0 1-1.088 1.719Zm-2.8-1.699c.735.215 1.34.534 1.816.959.748-.712 1.122-1.783 1.122-3.212 0-.813-.134-1.523-.4-2.13-.263-.608-.65-1.078-1.161-1.411a3.015 3.015 0 0 0-1.711-.507c-.949 0-1.736.34-2.361 1.02-.625.676-.937 1.688-.937 3.035 0 1.306.308 2.308.924 3.006.621.699 1.412 1.048 2.374 1.048a3.14 3.14 0 0 0 1.285-.267 4.049 4.049 0 0 0-1.259-.575l.308-.966Zm6.026 2.774v-10.041h1.272v8.856H389v1.185h-6.006ZM224 400.392V391h1.272v3.857h4.994V391h1.271v9.392h-1.271v-4.427h-4.994v4.427H224Zm14.164-.839c-.437.363-.858.619-1.265.769a3.703 3.703 0 0 1-1.298.224c-.764 0-1.352-.181-1.763-.544-.41-.368-.616-.835-.616-1.403 0-.334.077-.637.23-.91.157-.278.36-.5.609-.667.254-.166.538-.292.852-.378a8.873 8.873 0 0 1 1.049-.173c.953-.111 1.654-.243 2.104-.397l.006-.301c0-.47-.111-.801-.334-.993-.301-.261-.749-.391-1.343-.391-.555 0-.966.096-1.233.289-.262.187-.456.523-.583 1.005l-1.154-.153c.105-.483.278-.872.518-1.166.241-.299.588-.528 1.042-.686.455-.162.981-.243 1.58-.243.594 0 1.077.068 1.448.205.372.136.645.309.82.519.175.205.297.465.367.781.039.197.059.551.059 1.064v1.537c0 1.072.024 1.752.072 2.038.052.282.153.553.301.813H238.4a2.41 2.41 0 0 1-.236-.839Zm-.098-2.575c-.428.17-1.071.316-1.927.435-.485.069-.828.145-1.029.231a1.006 1.006 0 0 0-.465.378.947.947 0 0 0-.164.544c0 .308.118.564.354.769.24.205.59.308 1.048.308.455 0 .859-.096 1.213-.288.354-.197.614-.464.78-.801.127-.261.19-.645.19-1.154v-.422Zm7.656 3.414v-.858c-.442.675-1.09 1.012-1.947 1.012a2.792 2.792 0 0 1-1.534-.448 3.005 3.005 0 0 1-1.081-1.25c-.253-.538-.38-1.155-.38-1.851 0-.679.116-1.294.347-1.845.232-.556.579-.981 1.042-1.275a2.83 2.83 0 0 1 1.554-.442c.419 0 .793.087 1.12.262.328.171.595.395.8.673V391h1.173v9.392h-1.094Zm-3.73-3.395c0 .871.188 1.522.564 1.954.376.431.819.647 1.331.647.515 0 .952-.205 1.31-.615.363-.414.544-1.044.544-1.89 0-.931-.183-1.615-.55-2.05-.367-.436-.819-.654-1.357-.654-.524 0-.963.21-1.317.628-.35.419-.525 1.079-.525 1.98Zm6.358-.007c0-1.26.359-2.193 1.075-2.799.599-.504 1.329-.756 2.189-.756.957 0 1.739.307 2.347.922.607.611.911 1.457.911 2.537 0 .876-.136 1.566-.406 2.07a2.809 2.809 0 0 1-1.174 1.166 3.464 3.464 0 0 1-1.678.416c-.974 0-1.763-.305-2.366-.916-.598-.611-.898-1.491-.898-2.64Zm1.213 0c0 .872.194 1.525.583 1.961.389.431.879.647 1.468.647.586 0 1.073-.218 1.462-.654.389-.435.583-1.099.583-1.992 0-.841-.196-1.478-.59-1.909a1.867 1.867 0 0 0-1.455-.654c-.589 0-1.079.216-1.468.647-.389.432-.583 1.083-.583 1.954Zm6.371 0c0-1.26.358-2.193 1.075-2.799.599-.504 1.328-.756 2.189-.756.957 0 1.739.307 2.347.922.607.611.911 1.457.911 2.537 0 .876-.136 1.566-.407 2.07a2.8 2.8 0 0 1-1.173 1.166 3.464 3.464 0 0 1-1.678.416c-.974 0-1.763-.305-2.366-.916-.599-.611-.898-1.491-.898-2.64Zm1.213 0c0 .872.194 1.525.583 1.961.389.431.878.647 1.468.647.586 0 1.073-.218 1.462-.654.389-.435.583-1.099.583-1.992 0-.841-.197-1.478-.59-1.909a1.87 1.87 0 0 0-1.455-.654c-.59 0-1.079.216-1.468.647-.389.432-.583 1.083-.583 1.954Zm6.81 6.01v-9.412h1.075v.885a2.6 2.6 0 0 1 .858-.776c.319-.175.706-.262 1.161-.262.594 0 1.118.149 1.573.448.454.299.797.722 1.029 1.269.231.542.347 1.138.347 1.787 0 .696-.129 1.324-.387 1.884a2.84 2.84 0 0 1-1.114 1.281 2.905 2.905 0 0 1-1.534.442 2.28 2.28 0 0 1-1.061-.243 2.422 2.422 0 0 1-.767-.615V403h-1.18Zm1.068-5.971c0 .875.182 1.523.544 1.941.363.419.802.628 1.318.628.524 0 .972-.216 1.343-.647.376-.436.564-1.109.564-2.018 0-.867-.184-1.517-.551-1.948-.362-.431-.797-.647-1.304-.647-.502 0-.948.231-1.337.692-.384.457-.577 1.123-.577 1.999ZM105 399.835v-9.67h4.244c.853 0 1.502.088 1.946.264.444.171.799.477 1.064.917.266.439.398.925.398 1.457 0 .686-.219 1.265-.659 1.735-.44.471-1.119.77-2.037.897.335.163.59.324.764.482.37.343.72.772 1.051 1.286l1.665 2.632h-1.593l-1.267-2.012c-.37-.58-.675-1.024-.914-1.332-.239-.308-.455-.524-.646-.647a1.855 1.855 0 0 0-.575-.257c-.144-.031-.379-.046-.705-.046h-1.469v4.294H105Zm1.267-5.402h2.722c.579 0 1.032-.06 1.359-.178.326-.124.574-.317.744-.581.17-.268.255-.558.255-.871 0-.457-.166-.833-.497-1.128-.326-.294-.844-.441-1.554-.441h-3.029v3.199Zm8.488 5.402v-9.67h3.298c.744 0 1.312.046 1.704.138a3.244 3.244 0 0 1 1.404.693c.505.431.881.983 1.129 1.656.253.668.379 1.433.379 2.295 0 .735-.085 1.385-.255 1.953-.17.567-.387 1.038-.653 1.411-.265.37-.557.662-.875.878a3.536 3.536 0 0 1-1.142.481c-.444.11-.956.165-1.535.165h-3.454Zm1.267-1.141h2.044c.631 0 1.125-.059 1.482-.178.361-.119.648-.286.862-.501.3-.304.533-.711.698-1.221.17-.514.255-1.137.255-1.867 0-1.011-.165-1.787-.496-2.328-.327-.545-.725-.91-1.195-1.095-.34-.132-.886-.198-1.639-.198h-2.011v7.388Zm8.456 1.141v-9.67h3.591c.731 0 1.317.099 1.756.297a2.22 2.22 0 0 1 1.039.903c.252.405.378.829.378 1.274 0 .413-.111.802-.333 1.167-.222.365-.557.66-1.005.884.579.171 1.023.464 1.332.877.313.414.47.902.47 1.465 0 .453-.096.875-.287 1.266-.188.387-.42.686-.699.897a2.962 2.962 0 0 1-1.051.482c-.418.105-.932.158-1.541.158h-3.65Zm1.267-5.607h2.069c.562 0 .965-.037 1.208-.112.322-.097.564-.257.725-.481.166-.225.248-.506.248-.845 0-.321-.076-.602-.228-.844a1.143 1.143 0 0 0-.653-.501c-.283-.093-.769-.139-1.456-.139h-1.913v2.922Zm0 4.466h2.383c.409 0 .696-.015.862-.046.291-.053.535-.141.731-.264.196-.123.357-.301.483-.534.126-.238.19-.511.19-.818 0-.361-.092-.673-.275-.937a1.428 1.428 0 0 0-.764-.561c-.322-.11-.788-.165-1.397-.165h-2.213v3.325Zm7.777 1.141v-9.67h1.906l2.266 6.847c.209.638.361 1.115.457 1.431.109-.352.278-.868.509-1.55l2.292-6.728h1.704v9.67h-1.221v-8.094l-2.781 8.094h-1.143l-2.769-8.232v8.232h-1.22Zm10.858-3.107 1.195-.105c.057.483.187.881.392 1.194.209.307.531.558.966.752.436.189.925.283 1.469.283.484 0 .91-.072 1.28-.217.37-.146.644-.343.823-.594.183-.255.274-.532.274-.831 0-.304-.087-.568-.261-.792-.174-.228-.462-.42-.862-.574-.257-.101-.825-.257-1.704-.468-.879-.215-1.495-.418-1.848-.607-.457-.242-.799-.541-1.025-.897a2.258 2.258 0 0 1-.333-1.207c0-.488.137-.943.411-1.366.274-.426.675-.749 1.202-.969a4.511 4.511 0 0 1 1.756-.33c.71 0 1.334.117 1.874.35.544.228.962.567 1.254 1.015.291.449.448.957.47 1.524l-1.215.093c-.065-.612-.287-1.073-.666-1.386-.374-.312-.929-.468-1.665-.468-.766 0-1.325.143-1.678.429-.348.281-.522.622-.522 1.022 0 .348.124.633.372.858.244.224.879.455 1.907.692 1.031.233 1.739.438 2.122.614.557.259.968.589 1.234.989.265.396.398.853.398 1.372a2.67 2.67 0 0 1-.437 1.458c-.292.453-.712.807-1.261 1.062-.544.251-1.157.376-1.841.376-.866 0-1.593-.128-2.181-.383a3.085 3.085 0 0 1-1.377-1.147 3.328 3.328 0 0 1-.523-1.742Z" fill="#2D2D2D"/><path d="M72 295.5c0-7.456 5.918-13.5 13.218-13.5h457.564c7.3 0 13.218 6.044 13.218 13.5s-5.918 13.5-13.218 13.5H85.218C77.918 309 72 302.956 72 295.5Z" fill="#E6E6E6"/><path d="M262 300.274V291h1.271v9.274H262Zm3.478 0v-6.718h1.061v.955c.511-.738 1.249-1.107 2.214-1.107.419 0 .803.074 1.153.221.353.144.618.333.792.57.175.236.297.516.367.841.044.211.066.58.066 1.107v4.131h-1.179v-4.087c0-.464-.046-.81-.138-1.037a1.087 1.087 0 0 0-.491-.551 1.56 1.56 0 0 0-.819-.208c-.502 0-.936.154-1.303.461-.363.308-.544.892-.544 1.753v3.669h-1.179Zm10.153-1.019.17 1.006a4.559 4.559 0 0 1-.891.101c-.428 0-.76-.065-.995-.196a1.117 1.117 0 0 1-.498-.512c-.096-.215-.144-.665-.144-1.348v-3.865h-.865v-.885h.865v-1.664l1.172-.683v2.347h1.186v.885h-1.186v3.929c0 .324.02.533.059.626a.503.503 0 0 0 .203.221c.096.055.232.082.406.082.131 0 .304-.014.518-.044Zm6.032-1.145 1.218.146c-.192.687-.548 1.221-1.067 1.6-.52.38-1.183.569-1.991.569-1.018 0-1.825-.301-2.424-.904-.593-.607-.89-1.457-.89-2.549 0-1.131.301-2.008.904-2.632.602-.624 1.384-.936 2.344-.936.93 0 1.69.306 2.28.917.589.612.884 1.472.884 2.581 0 .067-.002.169-.007.304h-5.187c.044.738.26 1.303.648 1.695.389.392.874.588 1.454.588.433 0 .802-.109 1.107-.329.306-.219.548-.569.727-1.05Zm-3.871-1.841h3.884c-.052-.565-.201-.989-.445-1.271-.376-.439-.862-.658-1.461-.658-.541 0-.997.175-1.368.525-.367.35-.57.818-.61 1.404Zm6.472 4.561 1.146.165c.048.341.181.59.4.746.292.211.692.316 1.198.316.546 0 .967-.105 1.264-.316.297-.211.498-.506.603-.885.061-.232.089-.719.085-1.462-.515.586-1.157.88-1.926.88-.956 0-1.696-.334-2.22-1-.524-.666-.786-1.465-.786-2.397 0-.641.12-1.232.36-1.772.24-.544.588-.963 1.042-1.258.458-.296.995-.443 1.611-.443.821 0 1.498.32 2.03.961v-.809h1.087v5.807c0 1.046-.111 1.786-.334 2.22-.218.439-.567.784-1.047 1.037-.476.253-1.064.38-1.762.38-.83 0-1.5-.181-2.011-.544-.511-.358-.758-.9-.74-1.626Zm.976-4.036c0 .882.181 1.525.543 1.93.363.405.817.607 1.363.607.541 0 .995-.2 1.362-.601.367-.405.55-1.037.55-1.898 0-.822-.19-1.442-.57-1.859-.375-.418-.829-.627-1.362-.627-.524 0-.969.207-1.336.62-.367.409-.55 1.019-.55 1.828Zm6.805 3.48v-6.718h1.061v1.018c.271-.476.52-.791.747-.942.231-.152.485-.228.76-.228.397 0 .801.122 1.211.367l-.406 1.056a1.734 1.734 0 0 0-.864-.247 1.14 1.14 0 0 0-.695.228 1.198 1.198 0 0 0-.438.62 4.296 4.296 0 0 0-.197 1.328v3.518h-1.179Zm9.131-.829c-.437.358-.858.611-1.264.759a3.723 3.723 0 0 1-1.297.221c-.764 0-1.352-.179-1.762-.537a1.77 1.77 0 0 1-.616-1.386c0-.329.077-.628.23-.898.157-.274.36-.493.609-.658.253-.164.537-.289.851-.373a8.762 8.762 0 0 1 1.048-.171c.952-.109 1.653-.24 2.103-.392a15.9 15.9 0 0 0 .006-.297c0-.464-.111-.791-.334-.981-.301-.257-.749-.386-1.343-.386-.554 0-.965.095-1.231.285-.262.186-.456.517-.583.993l-1.153-.152c.105-.476.278-.86.518-1.151.24-.295.587-.521 1.041-.677.454-.16.98-.24 1.579-.24.594 0 1.076.067 1.447.202s.644.306.819.513c.174.202.297.459.367.771.039.194.059.544.059 1.05v1.519c0 1.058.024 1.729.072 2.011.052.279.152.546.301.804h-1.231a2.346 2.346 0 0 1-.236-.829Zm-.098-2.543c-.428.169-1.07.312-1.926.43-.485.068-.827.143-1.028.228a1.01 1.01 0 0 0-.465.373.928.928 0 0 0-.164.538.96.96 0 0 0 .354.759c.24.202.589.303 1.048.303.454 0 .858-.094 1.211-.284a1.82 1.82 0 0 0 .78-.791c.126-.257.19-.637.19-1.139v-.417Zm5.711 2.353.171 1.006a4.559 4.559 0 0 1-.891.101c-.428 0-.76-.065-.996-.196a1.121 1.121 0 0 1-.498-.512c-.096-.215-.144-.665-.144-1.348v-3.865h-.864v-.885h.864v-1.664l1.173-.683v2.347h1.185v.885h-1.185v3.929c0 .324.019.533.059.626a.497.497 0 0 0 .203.221c.096.055.231.082.406.082.131 0 .303-.014.517-.044Zm1.278-6.946V291h1.179v1.309h-1.179Zm0 7.965v-6.718h1.179v6.718h-1.179Zm2.653-3.359c0-1.244.358-2.166 1.074-2.765.598-.497 1.327-.746 2.188-.746.956 0 1.737.303 2.344.911.607.603.911 1.438.911 2.505 0 .864-.136 1.545-.406 2.043a2.79 2.79 0 0 1-1.173 1.151 3.491 3.491 0 0 1-1.676.411c-.974 0-1.762-.301-2.365-.904-.598-.603-.897-1.472-.897-2.606Zm1.212 0c0 .86.194 1.505.582 1.935.389.426.878.639 1.468.639.585 0 1.072-.215 1.46-.645.389-.43.583-1.086.583-1.967 0-.831-.196-1.459-.589-1.885a1.878 1.878 0 0 0-1.454-.646c-.59 0-1.079.213-1.468.639-.388.426-.582 1.069-.582 1.93Zm6.805 3.359v-6.718h1.061v.955c.511-.738 1.249-1.107 2.214-1.107.419 0 .803.074 1.153.221.353.144.617.333.792.57.175.236.297.516.367.841.043.211.065.58.065 1.107v4.131h-1.179v-4.087c0-.464-.045-.81-.137-1.037a1.092 1.092 0 0 0-.491-.551 1.563 1.563 0 0 0-.819-.208c-.502 0-.937.154-1.303.461-.363.308-.544.892-.544 1.753v3.669h-1.179Zm11.397 0V291h1.179v9.274h-1.179Zm7.664-.829c-.437.358-.858.611-1.264.759a3.723 3.723 0 0 1-1.297.221c-.764 0-1.352-.179-1.762-.537a1.767 1.767 0 0 1-.616-1.386c0-.329.077-.628.229-.898.158-.274.361-.493.61-.658.253-.164.537-.289.851-.373a8.726 8.726 0 0 1 1.048-.171c.952-.109 1.653-.24 2.102-.392.005-.156.007-.255.007-.297 0-.464-.111-.791-.334-.981-.301-.257-.749-.386-1.343-.386-.554 0-.965.095-1.231.285-.262.186-.456.517-.583.993l-1.153-.152c.105-.476.278-.86.518-1.151.24-.295.587-.521 1.041-.677.454-.16.98-.24 1.579-.24.593 0 1.076.067 1.447.202s.644.306.819.513c.174.202.297.459.366.771.04.194.059.544.059 1.05v1.519c0 1.058.024 1.729.072 2.011.053.279.153.546.302.804h-1.232a2.366 2.366 0 0 1-.235-.829Zm-.099-2.543c-.428.169-1.069.312-1.925.43-.485.068-.828.143-1.028.228a1.01 1.01 0 0 0-.465.373.928.928 0 0 0-.164.538c0 .303.118.556.353.759.241.202.59.303 1.048.303.454 0 .858-.094 1.212-.284.354-.194.614-.458.779-.791.127-.257.19-.637.19-1.139v-.417Zm3.086 5.959-.131-1.069c.257.067.482.101.674.101.262 0 .472-.042.629-.127.157-.084.286-.202.387-.354.074-.114.194-.396.36-.847.022-.064.056-.156.105-.279l-2.64-6.73h1.271l1.447 3.89c.188.493.356 1.012.504 1.556.136-.523.297-1.033.485-1.531l1.487-3.915h1.179l-2.646 6.831c-.284.738-.505 1.247-.662 1.525-.209.375-.449.649-.72.822a1.734 1.734 0 0 1-.97.266c-.227 0-.48-.046-.759-.139Zm11.632-4.751 1.218.146c-.192.687-.548 1.221-1.067 1.6-.52.38-1.183.569-1.991.569-1.018 0-1.825-.301-2.424-.904-.593-.607-.89-1.457-.89-2.549 0-1.131.301-2.008.904-2.632.602-.624 1.384-.936 2.344-.936.93 0 1.69.306 2.28.917.589.612.884 1.472.884 2.581 0 .067-.002.169-.007.304h-5.187c.044.738.26 1.303.648 1.695.389.392.874.588 1.454.588.433 0 .802-.109 1.107-.329.306-.219.548-.569.727-1.05Zm-3.871-1.841h3.884c-.052-.565-.201-.989-.445-1.271-.376-.439-.862-.658-1.461-.658-.541 0-.997.175-1.368.525-.367.35-.57.818-.61 1.404Zm6.675 4.005v-6.718h1.061v1.018c.271-.476.52-.791.747-.942.231-.152.484-.228.759-.228.398 0 .802.122 1.212.367l-.406 1.056a1.735 1.735 0 0 0-.865-.247c-.257 0-.489.076-.694.228a1.205 1.205 0 0 0-.439.62 4.296 4.296 0 0 0-.196 1.328v3.518h-1.179Z" fill="#2D2D2D"/><path fill-rule="evenodd" clip-rule="evenodd" d="M171.687 319.838a.554.554 0 0 0 .783 0l3.525-3.523a.554.554 0 0 0-.784-.783l-2.579 2.578v-9.735c0-27.21 22.069-49.268 49.291-49.268H233V258h-11.077c-27.834 0-50.398 22.554-50.398 50.375v9.735l-2.58-2.578a.554.554 0 0 0-.783.783l3.525 3.523ZM456 308.923V320h-1.107v-11.077c0-27.222-22.058-49.291-49.268-49.291h-9.735l2.578 2.579a.554.554 0 0 1-.783.784l-3.523-3.525a.554.554 0 0 1 0-.783l3.523-3.525a.554.554 0 0 1 .783.783l-2.578 2.58h9.735c27.821 0 50.375 22.564 50.375 50.398Z" fill="#2D2D2D"/></svg>