<svg width="675" height="481" fill="none" xmlns="http://www.w3.org/2000/svg"><path d="M686.851 310.518c-1.298 13.855-11.112 27.493-29.443 38.077-39.456 22.78-103.427 22.78-142.883 0l-157.342-90.841c-16.008-9.242-24.332-21.24-24.972-33.349l-.001-.008a28.568 28.568 0 0 1 0-3.013v-78.191h180.157v26.145c37.32-1.732 75.669 5.644 104.217 22.126 18.667 10.777 30.59 23.974 35.769 37.842h34.571v75.779a33.841 33.841 0 0 1 0 4.526v.907h-.073Z" fill="#0070CC" stroke="#fff"/><path d="M357.183 180.318c-33.35-19.254-33.35-50.472 0-69.726 27.071-15.63 67.795-18.572 100.006-8.828C507.745 85 573.385 89.088 616.584 114.029c33.65 19.427 45.385 46.716 35.205 71.627 1.922.955 3.797 1.958 5.619 3.01 39.456 22.78 39.456 59.714 0 82.494s-103.427 22.78-142.883 0l-85.001-49.075-.049-.029-.049-.028-72.243-41.71Z" fill="#0070CC" stroke="#fff"/><path d="M686.851 219.862c-1.298 13.855-11.112 27.494-29.443 38.077-39.456 22.78-103.427 22.78-142.883 0l-157.342-90.841c-16.008-9.242-24.332-21.24-24.972-33.348l-.001-.008a28.587 28.587 0 0 1 0-3.014v-78.19h180.157v26.144c37.32-1.731 75.669 5.644 104.217 22.127 18.667 10.777 30.59 23.973 35.769 37.841h34.571v75.779a33.856 33.856 0 0 1 0 4.527v.906h-.073Z" fill="#0070CC" stroke="#fff"/><mask id="a" fill="#fff"><path fill-rule="evenodd" clip-rule="evenodd" d="M357.868 139.977c5.42 3.129 9.814.592 9.814-5.666 0-6.259-4.394-13.869-9.814-16.998-5.42-3.129-9.814-.593-9.814 5.666 0 6.258 4.394 13.868 9.814 16.998Zm26.441 15.109c5.42 3.129 9.814.592 9.814-5.666s-4.394-13.869-9.814-16.998c-5.42-3.129-9.814-.592-9.814 5.666s4.394 13.869 9.814 16.998Z"/></mask><path fill-rule="evenodd" clip-rule="evenodd" d="M357.868 139.977c5.42 3.129 9.814.592 9.814-5.666 0-6.259-4.394-13.869-9.814-16.998-5.42-3.129-9.814-.593-9.814 5.666 0 6.258 4.394 13.868 9.814 16.998Zm26.441 15.109c5.42 3.129 9.814.592 9.814-5.666s-4.394-13.869-9.814-16.998c-5.42-3.129-9.814-.592-9.814 5.666s4.394 13.869 9.814 16.998Z" fill="#0070CC"/><path d="M367.682 134.311h1-1Zm-9.814 5.666-.5.866.5-.866Zm0-22.664.5-.866-.5.866Zm-9.814 5.666h-1 1Zm36.255 32.107-.5.866.5-.866Zm0-22.664-.5.866.5-.866Zm-17.627 1.889c0 2.919-1.017 4.703-2.375 5.487-1.357.784-3.411.772-5.939-.687l-1 1.732c2.892 1.669 5.745 1.954 7.939.687 2.195-1.267 3.375-3.88 3.375-7.219h-2Zm-9.314-16.132c2.522 1.456 4.862 3.995 6.573 6.959 1.712 2.965 2.741 6.26 2.741 9.173h2c0-3.346-1.168-6.985-3.009-10.173-1.84-3.188-4.407-6.018-7.305-7.691l-1 1.732Zm-8.314 4.8c0-2.919 1.017-4.704 2.374-5.488 1.358-.783 3.412-.772 5.94.688l1-1.732c-2.892-1.67-5.745-1.955-7.94-.688-2.194 1.267-3.374 3.88-3.374 7.22h2Zm9.314 16.132c-2.522-1.457-4.862-3.996-6.574-6.96-1.711-2.964-2.74-6.26-2.74-9.172h-2c0 3.346 1.168 6.984 3.008 10.172 1.841 3.188 4.408 6.019 7.306 7.692l1-1.732Zm34.755 10.309c0 2.919-1.017 4.704-2.375 5.487-1.357.784-3.411.772-5.939-.687l-1 1.732c2.892 1.67 5.745 1.954 7.939.687 2.195-1.267 3.375-3.879 3.375-7.219h-2Zm-9.314-16.132c2.522 1.456 4.862 3.995 6.573 6.96 1.712 2.964 2.741 6.26 2.741 9.172h2c0-3.346-1.168-6.985-3.008-10.172-1.841-3.188-4.408-6.019-7.306-7.692l-1 1.732Zm-8.314 4.8c0-2.919 1.017-4.704 2.375-5.487 1.357-.784 3.411-.772 5.939.687l1-1.732c-2.892-1.67-5.745-1.954-7.939-.687-2.195 1.267-3.375 3.879-3.375 7.219h2Zm9.314 16.132c-2.522-1.456-4.862-3.995-6.573-6.96-1.712-2.964-2.741-6.26-2.741-9.172h-2c0 3.346 1.168 6.985 3.009 10.172 1.84 3.188 4.407 6.019 7.305 7.692l1-1.732Z" fill="#fff" mask="url(#a)"/><path d="M357.183 89.663c-33.35-19.255-33.35-50.472 0-69.727 27.071-15.63 67.795-18.572 100.006-8.828C507.746-5.656 573.385-1.568 616.584 23.373 650.234 42.801 661.969 70.09 651.79 95c1.921.955 3.796 1.958 5.618 3.01 39.456 22.78 39.456 59.714 0 82.494s-103.427 22.78-142.883 0l-85.001-49.075a.778.778 0 0 0-.049-.028l-.049-.029-72.243-41.71Zm413.498 477.855c-1.298 13.855-11.113 27.493-29.444 38.077-39.456 22.78-103.427 22.78-142.883 0l-157.342-90.841c-16.007-9.242-24.331-21.24-24.972-33.349v-.008a28.568 28.568 0 0 1 0-3.013v-78.191h180.157v26.145c37.319-1.732 75.668 5.644 104.216 22.126 18.667 10.777 30.59 23.974 35.769 37.842h34.572v75.779c.1 1.508.1 3.018 0 4.526v.907h-.073Z" fill="#0070CC" stroke="#fff"/><path d="M441.012 437.318c-33.349-19.254-33.349-50.472 0-69.726 27.071-15.63 67.795-18.572 100.007-8.828 50.556-16.764 116.195-12.676 159.394 12.265 33.65 19.427 45.385 46.716 35.206 71.627a102.04 102.04 0 0 1 5.618 3.01c39.456 22.78 39.456 59.714 0 82.494s-103.427 22.78-142.883 0l-85.001-49.075-.048-.029a.778.778 0 0 1-.049-.028l-72.244-41.71Z" fill="#0070CC" stroke="#fff"/><path d="M770.681 476.862c-1.298 13.855-11.113 27.494-29.444 38.077-39.456 22.78-103.427 22.78-142.883 0l-157.342-90.841c-16.007-9.242-24.331-21.24-24.972-33.348v-.008a28.587 28.587 0 0 1 0-3.014v-78.191h180.157v26.145c37.319-1.731 75.668 5.644 104.216 22.127 18.667 10.777 30.59 23.973 35.769 37.841h34.572v75.779c.1 1.509.1 3.019 0 4.527v.906h-.073Z" fill="#0070CC" stroke="#fff"/><mask id="b" fill="#fff"><path fill-rule="evenodd" clip-rule="evenodd" d="M441.697 396.977c5.42 3.129 9.814.592 9.814-5.666 0-6.259-4.394-13.869-9.814-16.998-5.42-3.129-9.814-.593-9.814 5.666 0 6.258 4.394 13.868 9.814 16.998Zm26.441 15.109c5.42 3.129 9.814.592 9.814-5.666s-4.394-13.869-9.814-16.998c-5.42-3.129-9.813-.592-9.813 5.666s4.393 13.869 9.813 16.998Z"/></mask><path fill-rule="evenodd" clip-rule="evenodd" d="M441.697 396.977c5.42 3.129 9.814.592 9.814-5.666 0-6.259-4.394-13.869-9.814-16.998-5.42-3.129-9.814-.593-9.814 5.666 0 6.258 4.394 13.868 9.814 16.998Zm26.441 15.109c5.42 3.129 9.814.592 9.814-5.666s-4.394-13.869-9.814-16.998c-5.42-3.129-9.813-.592-9.813 5.666s4.393 13.869 9.813 16.998Z" fill="#0070CC"/><path d="M451.511 391.311h1-1Zm-9.814 5.666-.5.866.5-.866Zm0-22.664.5-.866-.5.866Zm-9.814 5.666h-1 1Zm36.255 32.107-.5.866.5-.866Zm0-22.664-.5.866.5-.866Zm-17.627 1.889c0 2.919-1.017 4.703-2.374 5.487-1.358.784-3.412.772-5.94-.687l-1 1.732c2.892 1.669 5.745 1.954 7.94.687 2.194-1.267 3.374-3.88 3.374-7.219h-2Zm-9.314-16.132c2.522 1.456 4.862 3.995 6.574 6.959 1.711 2.965 2.74 6.26 2.74 9.173h2c0-3.346-1.168-6.985-3.008-10.173-1.841-3.188-4.408-6.018-7.306-7.691l-1 1.732Zm-8.314 4.8c0-2.919 1.017-4.704 2.375-5.488 1.357-.783 3.411-.772 5.939.688l1-1.732c-2.892-1.67-5.745-1.955-7.939-.688-2.195 1.267-3.375 3.88-3.375 7.22h2Zm9.314 16.132c-2.522-1.457-4.862-3.996-6.573-6.96-1.712-2.964-2.741-6.26-2.741-9.172h-2c0 3.346 1.168 6.984 3.009 10.172 1.84 3.188 4.407 6.019 7.305 7.692l1-1.732Zm34.755 10.309c0 2.919-1.017 4.704-2.374 5.487-1.358.784-3.412.772-5.94-.687l-1 1.732c2.893 1.67 5.745 1.954 7.94.687 2.194-1.267 3.374-3.879 3.374-7.219h-2Zm-9.314-16.132c2.523 1.456 4.862 3.995 6.574 6.96 1.711 2.964 2.74 6.26 2.74 9.172h2c0-3.346-1.168-6.985-3.008-10.172-1.841-3.188-4.408-6.019-7.306-7.692l-1 1.732Zm-8.313 4.8c0-2.919 1.017-4.704 2.374-5.487 1.358-.784 3.412-.772 5.939.687l1-1.732c-2.892-1.67-5.745-1.954-7.939-.687s-3.374 3.879-3.374 7.219h2Zm9.313 16.132c-2.522-1.456-4.861-3.995-6.573-6.96-1.711-2.964-2.74-6.26-2.74-9.172h-2c0 3.346 1.168 6.985 3.008 10.172 1.841 3.188 4.408 6.019 7.305 7.692l1-1.732Z" fill="#fff" mask="url(#b)"/><path d="M441.013 346.663c-33.35-19.255-33.35-50.473 0-69.727 27.07-15.629 67.794-18.572 100.006-8.828 50.556-16.764 116.196-12.676 159.395 12.265 33.649 19.428 45.384 46.716 35.205 71.627a102.04 102.04 0 0 1 5.618 3.01c39.457 22.78 39.457 59.714 0 82.494-39.456 22.78-103.427 22.78-142.883 0l-85-49.075a2.852 2.852 0 0 0-.049-.028l-.049-.029-72.243-41.709Zm-85.332 92.659c-1.298 13.855-11.113 27.494-29.444 38.077-39.456 22.78-103.427 22.78-142.883 0L26.012 386.558c-16.007-9.242-24.331-21.24-24.972-33.348v-.008a28.666 28.666 0 0 1 0-3.014v-78.191h180.157v26.145c37.319-1.731 75.668 5.644 104.216 22.127 18.667 10.777 30.59 23.973 35.769 37.841h34.572v75.779c.1 1.509.1 3.019 0 4.527v.906h-.073Z" fill="#0070CC" stroke="#fff"/><path d="M26.012 309.123c-33.35-19.255-33.35-50.472 0-69.727 27.071-15.629 67.795-18.572 100.007-8.828 50.556-16.764 116.195-12.676 159.394 12.265 33.65 19.428 45.385 46.717 35.206 71.627a102.04 102.04 0 0 1 5.618 3.01c39.456 22.78 39.456 59.714 0 82.494s-103.427 22.78-142.883 0l-85-49.075-.05-.028a1.22 1.22 0 0 0-.048-.028l-72.243-41.71Z" fill="#0070CC" stroke="#fff"/><path d="M355.681 348.667c-1.298 13.855-11.113 27.493-29.444 38.077-39.456 22.78-103.427 22.78-142.883 0L26.012 295.903c-16.007-9.242-24.331-21.24-24.972-33.349v-.008a28.647 28.647 0 0 1 0-3.013v-78.191h180.157v26.145c37.319-1.732 75.668 5.644 104.216 22.126 18.667 10.777 30.59 23.974 35.769 37.842h34.572v75.779c.1 1.508.1 3.018 0 4.526v.907h-.073Z" fill="#0070CC" stroke="#fff"/><mask id="c" fill="#fff"><path fill-rule="evenodd" clip-rule="evenodd" d="M26.697 268.781c5.42 3.129 9.814.593 9.814-5.666 0-6.258-4.394-13.869-9.814-16.998-5.42-3.129-9.814-.592-9.814 5.666 0 6.259 4.394 13.869 9.814 16.998Zm26.441 15.109c5.42 3.13 9.814.593 9.814-5.666 0-6.258-4.394-13.868-9.814-16.998-5.42-3.129-9.813-.592-9.813 5.666 0 6.259 4.393 13.869 9.813 16.998Z"/></mask><path fill-rule="evenodd" clip-rule="evenodd" d="M26.697 268.781c5.42 3.129 9.814.593 9.814-5.666 0-6.258-4.394-13.869-9.814-16.998-5.42-3.129-9.814-.592-9.814 5.666 0 6.259 4.394 13.869 9.814 16.998Zm26.441 15.109c5.42 3.13 9.814.593 9.814-5.666 0-6.258-4.394-13.868-9.814-16.998-5.42-3.129-9.813-.592-9.813 5.666 0 6.259 4.393 13.869 9.813 16.998Z" fill="#0070CC"/><path d="m26.697 246.117.5-.866-.5.866Zm26.441 37.773-.5.866.5-.866Zm0-22.664-.5.867.5-.867Zm-17.627 1.889c0 2.919-1.017 4.704-2.375 5.487-1.357.784-3.411.772-5.939-.687l-1 1.732c2.892 1.67 5.745 1.954 7.94.688 2.194-1.267 3.374-3.88 3.374-7.22h-2Zm-9.314-16.132c2.522 1.456 4.862 3.995 6.573 6.96 1.712 2.964 2.74 6.26 2.74 9.172h2c0-3.346-1.167-6.985-3.007-10.172-1.84-3.188-4.408-6.019-7.306-7.692l-1 1.732Zm-8.314 4.8c0-2.919 1.017-4.703 2.375-5.487 1.357-.784 3.411-.772 5.94.687l1-1.732c-2.893-1.67-5.746-1.954-7.94-.687-2.195 1.267-3.375 3.88-3.375 7.219h2Zm9.314 16.132c-2.522-1.456-4.862-3.995-6.573-6.959-1.712-2.965-2.74-6.26-2.74-9.173h-2c0 3.346 1.167 6.985 3.008 10.173 1.84 3.187 4.407 6.018 7.305 7.691l1-1.732Zm34.755 10.309c0 2.919-1.017 4.704-2.374 5.488-1.358.784-3.412.772-5.94-.688l-1 1.732c2.893 1.67 5.745 1.955 7.94.688 2.194-1.267 3.374-3.88 3.374-7.22h-2Zm-9.314-16.131c2.523 1.456 4.862 3.995 6.574 6.959 1.711 2.964 2.74 6.26 2.74 9.172h2c0-3.346-1.168-6.984-3.008-10.172-1.84-3.188-4.408-6.019-7.306-7.692l-1 1.733Zm-8.313 4.799c0-2.918 1.017-4.703 2.374-5.487 1.358-.784 3.412-.772 5.94.688l1-1.733c-2.893-1.669-5.745-1.954-7.94-.687-2.194 1.267-3.374 3.88-3.374 7.219h2Zm9.313 16.132c-2.522-1.456-4.861-3.995-6.573-6.959-1.711-2.964-2.74-6.26-2.74-9.173h-2c0 3.347 1.168 6.985 3.008 10.173 1.84 3.188 4.408 6.018 7.305 7.691l1-1.732Z" fill="#fff" mask="url(#c)"/><path d="M26.013 218.467c-33.35-19.254-33.35-50.472 0-69.727 27.07-15.629 67.794-18.572 100.006-8.828 50.556-16.764 116.196-12.675 159.395 12.266 33.649 19.427 45.384 46.716 35.205 71.626 1.922.955 3.796 1.959 5.618 3.011 39.456 22.78 39.456 59.713 0 82.493-39.456 22.78-103.427 22.78-142.883 0l-85-49.075-.05-.028-.048-.028-72.243-41.71Z" fill="#0070CC" stroke="#fff"/></svg>