<svg width="56" height="39" viewBox="0 0 56 39" fill="none" xmlns="http://www.w3.org/2000/svg">
<path d="M44.5698 28.8009L53.476 23.0142V22.8997L44.5698 17.1129V14.8218L55.6433 22.04V23.8732L44.5698 31.0921V28.8009ZM0 23.8738V22.0407L11.0728 14.8224V17.1136L2.16721 22.9003V23.0148L11.0728 28.8016V31.0934L0 23.8738Z" fill="#32ffb5"/>
<path d="M32.9371 38.5356C32.2457 37.9541 31.4315 37.5751 30.5882 37.2516C29.3878 36.8027 28.1512 36.456 26.8921 36.216C26.0183 36.0433 25.1375 35.8868 24.2572 35.7458C23.6241 35.6449 22.9819 35.5892 22.3468 35.5038C21.6373 35.41 20.935 35.2723 20.243 35.0911C19.256 34.8292 18.3137 34.4779 17.4562 33.9365C16.2901 33.1984 15.4901 32.212 15.2165 30.8685C15.1111 30.3109 15.0943 29.7404 15.1674 29.1776C15.3135 27.904 15.7863 26.7409 16.4382 25.638C16.4602 25.5986 16.4841 25.5604 16.51 25.5229C16.5268 25.5061 16.5456 25.4912 16.5656 25.4789C16.5883 25.5481 16.6148 25.6122 16.6316 25.6775C16.9239 26.8405 17.6088 27.739 18.6041 28.4357C19.3543 28.946 20.1576 29.3736 20.9996 29.71C22.7316 30.4202 24.4752 31.1026 26.2175 31.789C27.4534 32.2773 28.6486 32.8388 29.7325 33.6027C30.7783 34.3188 31.676 35.2302 32.3751 36.2872C32.8672 37.0369 33.2061 37.8765 33.3723 38.7575C33.3808 38.8215 33.3846 38.8856 33.3846 38.9503C33.2204 38.797 33.0846 38.6605 32.9371 38.5356ZM34.2881 37.5977C34.3004 36.8376 34.0475 36.1494 33.6776 35.4948C33.3193 34.89 32.8931 34.3285 32.4068 33.8214C31.5906 32.9365 30.6586 32.1745 29.6918 31.4539C27.9391 30.1459 26.0616 29.023 24.1661 27.9259C22.9916 27.2455 21.8132 26.5689 20.6614 25.8541C19.4468 25.105 18.3306 24.2065 17.3398 23.1793C16.4001 22.2013 15.6246 21.1178 15.1641 19.8455C14.963 19.2866 14.8343 18.7044 14.7793 18.1132C14.6603 16.8531 14.9236 15.6623 15.4254 14.5115C15.9376 13.3407 16.6736 12.3032 17.5228 11.3387C18.0725 10.7235 18.6604 10.1433 19.2832 9.60254C20.1078 8.8813 20.9854 8.22216 21.9077 7.63029C21.9426 7.60829 21.984 7.59471 22.0267 7.57272C21.8436 7.90067 21.6541 8.20792 21.5002 8.52876C21.2913 8.97897 21.1613 9.46152 21.1154 9.95572C20.9738 11.1996 21.2719 12.3665 21.7608 13.5018C22.2627 14.6648 22.9702 15.7101 23.7806 16.6927C24.8257 17.9347 25.9911 19.0699 27.2607 20.0822C28.5703 21.1295 29.944 22.0939 31.3739 22.9691C32.2322 23.4898 33.0276 24.1076 33.7449 24.8094C34.9911 26.0533 35.8545 27.5023 36.2167 29.2067C36.401 30.0703 36.454 30.9565 36.3751 31.8362C36.2781 32.8854 36.0479 33.9184 35.6903 34.91C35.3662 35.8137 34.9504 36.6818 34.4498 37.5013C34.411 37.5628 34.3677 37.6203 34.3056 37.7115C34.2972 37.6734 34.2914 37.6359 34.2881 37.5977ZM37.5625 26.0999C37.0465 25.1762 36.4107 24.3243 35.6728 23.5662C34.7415 22.6114 33.7112 21.7589 32.5982 21.024C31.4425 20.2465 30.3113 19.4366 29.2416 18.5518C27.8434 17.3907 26.5493 16.137 25.4964 14.6687C24.8076 13.7081 24.2501 12.6841 23.9274 11.5534C23.7017 10.8109 23.6099 10.034 23.6558 9.25906C23.7476 7.955 24.201 6.77062 24.9434 5.68132C25.6186 4.71039 26.4329 3.84489 27.3603 3.11136C28.7547 1.9826 30.301 1.08348 31.9405 0.331189C32.1998 0.214108 32.465 0.110612 32.7263 0C32.4301 0.688252 32.1377 1.34934 31.9101 2.03565C31.5395 3.14048 31.3985 4.30934 31.4968 5.47044C31.5945 6.49506 31.8635 7.49574 32.2929 8.43109C32.9099 9.83217 33.7591 11.1 34.7014 12.3122C35.4005 13.2133 36.1436 14.0788 36.9307 14.91C37.5703 15.5905 38.2242 16.2574 38.8664 16.9359C39.9691 18.1048 40.8713 19.394 41.4126 20.8985C41.6493 21.5415 41.798 22.2136 41.8549 22.8967C41.8672 23.0655 41.8937 23.2363 41.8983 23.4064C41.9209 24.726 41.6473 26.0345 41.0963 27.2338C40.5763 28.3891 39.8753 29.4532 39.0196 30.3866C38.88 30.5392 38.7396 30.69 38.5611 30.8847C38.7842 29.142 38.3684 27.5805 37.5625 26.0999Z" fill="#32ffb5"/>
</svg>
