<svg xmlns="http://www.w3.org/2000/svg" viewBox="0 0 1264 1110"><defs><style>.cls-1{isolation:isolate;}.cls-2,.cls-5{fill:#efeeed;}.cls-2{mix-blend-mode:multiply;}.cls-18,.cls-3,.cls-7{fill:#020202;}.cls-4{fill:#010101;}.cls-6{fill:#fff;}.cls-7{font-size:22px;}.cls-17,.cls-18,.cls-21,.cls-7{font-family:MavenProMedium, Maven Pro;}.cls-8{letter-spacing:-0.02em;}.cls-9{letter-spacing:-0.01em;}.cls-10{letter-spacing:0em;}.cls-11{letter-spacing:-0.01em;}.cls-12{letter-spacing:-0.01em;}.cls-13{letter-spacing:-0.02em;}.cls-14{letter-spacing:-0.03em;}.cls-15{fill:#777;}.cls-16{fill:#e5282a;}.cls-17{font-size:19.82px;}.cls-17,.cls-21{fill:#1d1d1b;}.cls-18{font-size:23.44px;letter-spacing:-0.02em;}.cls-19{letter-spacing:-0.01em;}.cls-20{letter-spacing:0em;}.cls-21{font-size:16.64px;}.cls-22{letter-spacing:0em;}.cls-23{letter-spacing:-0.01em;}.cls-24{letter-spacing:-0.01em;}</style></defs><g class="cls-1"><g id="Capa_1" data-name="Capa 1"><rect class="cls-2" x="392.31" y="207.17" width="598.91" height="298.41" rx="11.13"/><rect class="cls-3" x="415.51" y="228.39" width="552.5" height="256.88"/><path class="cls-4" d="M632.34,130.18l5.85-14.65h2L646,130.18h-2.2l-1.57-4.1h-6.11l-1.58,4.1Zm4.51-6h4.65l-2.33-6.08Z"/><path class="cls-4" d="M648.25,134.35V122.58a4.05,4.05,0,0,1,.07-.7,3.32,3.32,0,0,1,.33-.89,3,3,0,0,1,.71-.94,3.68,3.68,0,0,1,1.35-.7,6.58,6.58,0,0,1,2.09-.3,6.75,6.75,0,0,1,1.19.11,4.28,4.28,0,0,1,1.27.48,4.2,4.2,0,0,1,1.2,1,5,5,0,0,1,.84,1.69,8.61,8.61,0,0,1,.34,2.51,7.64,7.64,0,0,1-.45,2.78,3.57,3.57,0,0,1-1.22,1.71,5.58,5.58,0,0,1-1.6.8,6.18,6.18,0,0,1-1.78.24,8.15,8.15,0,0,1-2.33-.32v4.32Zm2-6.24a6.3,6.3,0,0,0,2.33.44,4.36,4.36,0,0,0,1.16-.13,2.66,2.66,0,0,0,.94-.49,2.28,2.28,0,0,0,.7-1.14,6.83,6.83,0,0,0,.24-2,7.88,7.88,0,0,0-.24-2.12,2.49,2.49,0,0,0-.69-1.23,2.62,2.62,0,0,0-.9-.52,3.4,3.4,0,0,0-1-.14c-1.7,0-2.54.55-2.54,1.64Z"/><path class="cls-4" d="M660.28,134.35V122.58a4.05,4.05,0,0,1,.07-.7,3.32,3.32,0,0,1,.33-.89,3,3,0,0,1,.71-.94,3.68,3.68,0,0,1,1.35-.7,6.58,6.58,0,0,1,2.09-.3,6.75,6.75,0,0,1,1.19.11,4.28,4.28,0,0,1,1.27.48,4.2,4.2,0,0,1,1.2,1,4.84,4.84,0,0,1,.84,1.69,8.61,8.61,0,0,1,.34,2.51,7.64,7.64,0,0,1-.45,2.78,3.57,3.57,0,0,1-1.22,1.71,5.66,5.66,0,0,1-1.59.8,6.3,6.3,0,0,1-1.79.24,8.15,8.15,0,0,1-2.33-.32v4.32Zm2-6.24a6.3,6.3,0,0,0,2.33.44,4.36,4.36,0,0,0,1.16-.13,2.58,2.58,0,0,0,.94-.49,2.28,2.28,0,0,0,.7-1.14,6.83,6.83,0,0,0,.24-2,7.88,7.88,0,0,0-.24-2.12,2.49,2.49,0,0,0-.69-1.23,2.67,2.67,0,0,0-.89-.52,3.47,3.47,0,0,0-1-.14c-1.69,0-2.54.55-2.54,1.64Z"/><path class="cls-4" d="M672.71,130.18V115.05h2v15.13Z"/><path class="cls-4" d="M678.33,117.53v-2.12h2.13v2.12Zm.07,12.65v-11h2v11Z"/><path class="cls-4" d="M684.59,128.9a7.43,7.43,0,0,1,0-8.4,4.83,4.83,0,0,1,3.8-1.45,8.74,8.74,0,0,1,3.23.61v1.91a6.9,6.9,0,0,0-3-.72h0a3.39,3.39,0,0,0-2.37.78,4.15,4.15,0,0,0-.86,3.07,6.79,6.79,0,0,0,.26,2,2.27,2.27,0,0,0,.75,1.19,2.72,2.72,0,0,0,1,.51,4.85,4.85,0,0,0,1.22.13,7.05,7.05,0,0,0,3.06-.7v1.9a8.94,8.94,0,0,1-3.23.6A4.83,4.83,0,0,1,684.59,128.9Z"/><path class="cls-4" d="M693.64,126.72a2.88,2.88,0,0,1,1.38-2.54,6.77,6.77,0,0,1,3.79-.91,16.24,16.24,0,0,1,2,.12,2.71,2.71,0,0,0-.76-2,3.42,3.42,0,0,0-2.26-.6,9.37,9.37,0,0,0-3,.55v-1.72a9.35,9.35,0,0,1,3.32-.59,5,5,0,0,1,3.54,1.19,4.46,4.46,0,0,1,1.24,3.4v3.16a3.25,3.25,0,0,1-.4,1.6,3.07,3.07,0,0,1-.72,1,3.84,3.84,0,0,1-1.35.7,6.94,6.94,0,0,1-2.09.29,6.73,6.73,0,0,1-2.12-.3,4.19,4.19,0,0,1-1.38-.72,2.92,2.92,0,0,1-.73-1,3.31,3.31,0,0,1-.34-.92A3.58,3.58,0,0,1,693.64,126.72Zm2,0c0,1.23.88,1.85,2.63,1.85h0c1.66,0,2.49-.59,2.49-1.78V125a14.28,14.28,0,0,0-1.91-.14,6,6,0,0,0-.92.08,10.32,10.32,0,0,0-1,.25,2.12,2.12,0,0,0-.92.57A1.33,1.33,0,0,0,695.65,126.7Z"/><path class="cls-4" d="M704.41,120.94v-1.72h1.91V116h2v3.25h2.92v1.72h-2.92v6.33c0,.85.54,1.28,1.62,1.28h0a2.36,2.36,0,0,0,1.28-.32v1.82a4,4,0,0,1-1.5.3h-.06a4.3,4.3,0,0,1-.84-.09,5.91,5.91,0,0,1-1.08-.38,2.35,2.35,0,0,1-1-1,3.4,3.4,0,0,1-.4-1.74v-6.21Z"/><path class="cls-4" d="M713.89,117.53v-2.12H716v2.12Zm.06,12.65v-11h2v11Z"/><path class="cls-4" d="M719.32,127.54a8.76,8.76,0,0,1,0-5.66,3.76,3.76,0,0,1,1.25-1.74,5.52,5.52,0,0,1,1.64-.83,6.52,6.52,0,0,1,1.82-.24,6.64,6.64,0,0,1,1.83.24,5.47,5.47,0,0,1,1.63.83,3.84,3.84,0,0,1,1.26,1.74,8.94,8.94,0,0,1,0,5.66,3.87,3.87,0,0,1-1.26,1.75,5.21,5.21,0,0,1-1.63.82,6.64,6.64,0,0,1-1.83.24,6.52,6.52,0,0,1-1.82-.24,5.25,5.25,0,0,1-1.64-.82A3.79,3.79,0,0,1,719.32,127.54Zm1.82-4.85a8.62,8.62,0,0,0,0,4,2.29,2.29,0,0,0,.72,1.18,2.5,2.5,0,0,0,1,.51,4.55,4.55,0,0,0,1.19.13,4.5,4.5,0,0,0,1.19-.13,2.5,2.5,0,0,0,1-.51,2.29,2.29,0,0,0,.72-1.18,8.62,8.62,0,0,0,0-4,2.34,2.34,0,0,0-.72-1.18,2.8,2.8,0,0,0-1-.51,5,5,0,0,0-1.19-.13,5,5,0,0,0-1.19.13,2.8,2.8,0,0,0-1,.51A2.34,2.34,0,0,0,721.14,122.69Z"/><path class="cls-4" d="M731.74,130.18v-10a10.45,10.45,0,0,1,4.67-1.12,4.63,4.63,0,0,1,3.26,1.08,3.88,3.88,0,0,1,1.19,3v7.06h-2.05V123a2.24,2.24,0,0,0-.5-1.53,2.64,2.64,0,0,0-2-.56,8.49,8.49,0,0,0-2.58.4v8.91Z"/><path class="cls-4" d="M743.59,122.32a3.13,3.13,0,0,1,1-2.32,4.12,4.12,0,0,1,3-1,6.53,6.53,0,0,1,2.93.72v1.73a6.56,6.56,0,0,0-2.69-.65c-1.45,0-2.18.47-2.18,1.4a.9.9,0,0,0,.58.77,7.21,7.21,0,0,0,1.4.53c.54.16,1.09.34,1.63.56a3.33,3.33,0,0,1,1.4,1.09,3.25,3.25,0,0,1-.41,4.19,4.31,4.31,0,0,1-3.08,1,6.41,6.41,0,0,1-3.17-.77v-1.83a6.17,6.17,0,0,0,3,.8h0a2.74,2.74,0,0,0,1.6-.38,1.13,1.13,0,0,0,.56-1,1.28,1.28,0,0,0-.58-1.08,4.21,4.21,0,0,0-1.4-.64c-.55-.16-1.1-.33-1.64-.52a3.16,3.16,0,0,1-1.4-.94A2.5,2.5,0,0,1,743.59,122.32Z"/><path class="cls-5" d="M690.67,145v71.09a1.09,1.09,0,0,0,2.18,0V145a1.09,1.09,0,0,0-2.18,0Z"/><path class="cls-6" d="M450.79,287.87V281.1h-4.06v-1.82l4.15-.15.32-4.58h2v4.58h7v2h-7v6.8c0,2.55.85,3.88,3.62,3.88a9.45,9.45,0,0,0,3.41-.65l.53,1.79a12.52,12.52,0,0,1-4.47.86C452.14,293.78,450.79,291.39,450.79,287.87Z"/><path class="cls-6" d="M469.67,286l-5-6.88h2.68l2.26,3.12c.5.79,1.09,1.65,1.68,2.41h.11c.53-.76,1.12-1.65,1.62-2.44l2.12-3.09h2.59l-5.06,7.09,5.47,7.2h-2.71L473,290.13c-.62-.79-1.26-1.76-1.88-2.59H471c-.59.86-1.17,1.71-1.76,2.62l-2.35,3.26h-2.59Z"/><path class="cls-6" d="M486.46,291.28a2.38,2.38,0,1,1,2.38,2.5A2.38,2.38,0,0,1,486.46,291.28Z"/><path class="cls-6" d="M499.75,291.54l1.12-1.62a10.2,10.2,0,0,0,6.21,1.95c2.41,0,3.58-1,3.58-2.21s-.55-1.85-4.44-2.65c-3.73-.76-5.58-2-5.58-4.17s2-4.06,5.94-4.06a10.73,10.73,0,0,1,5.76,1.82l-1.18,1.56a8.43,8.43,0,0,0-4.79-1.5c-2.41,0-3.29,1-3.29,2.06s1.23,1.77,4.17,2.38c4.74,1,5.88,2.21,5.88,4.41s-2.26,4.27-6.35,4.27A12.56,12.56,0,0,1,499.75,291.54Z"/><path class="cls-6" d="M521.37,287.87V281.1h-4.06v-1.82l4.15-.15.32-4.58h2v4.58h7v2h-7v6.8c0,2.55.85,3.88,3.62,3.88a9.45,9.45,0,0,0,3.41-.65l.53,1.79a12.52,12.52,0,0,1-4.47.86C522.72,293.78,521.37,291.39,521.37,287.87Z"/><path class="cls-6" d="M535.31,289.72c0-3.21,3-4.76,10.38-5.35-.09-1.94-1-3.59-3.79-3.59a9.86,9.86,0,0,0-5,1.71l-1-1.65a12.53,12.53,0,0,1,6.38-2.06c3.91,0,5.82,2.32,5.82,5.88v8.76h-2l-.21-1.94h-.08a9.6,9.6,0,0,1-5.62,2.3C537.51,293.78,535.31,292.28,535.31,289.72Zm10.38,0V286c-6.12.48-8,1.68-8,3.56,0,1.62,1.47,2.27,3.12,2.27A7.83,7.83,0,0,0,545.69,289.69Z"/><path class="cls-6" d="M554.87,279.13h2l.24,3.38h.06a7.53,7.53,0,0,1,6.38-3.73,6,6,0,0,1,2.82.59l-.56,2.09a7,7,0,0,0-2.64-.47c-2.15,0-4.18,1.08-5.88,4.08v8.35h-2.44Z"/><path class="cls-6" d="M574.3,287.87V281.1h-4v-1.82l4.14-.15.33-4.58h2v4.58h7v2h-7v6.8c0,2.55.86,3.88,3.62,3.88a9.45,9.45,0,0,0,3.41-.65l.53,1.79a12.43,12.43,0,0,1-4.47.86C575.66,293.78,574.3,291.39,574.3,287.87Z"/><path class="cls-6" d="M592,285.25a16.38,16.38,0,0,1,6.58-13.35l1.36,1.24a15.59,15.59,0,0,0,0,24.22l-1.36,1.24A16.4,16.4,0,0,1,592,285.25Z"/><path class="cls-6" d="M607.12,297.36a15.59,15.59,0,0,0,0-24.22l1.36-1.24a16.83,16.83,0,0,1,0,26.7Z"/><path class="cls-6" d="M626.94,298.16c2.5-1.12,3.74-2.71,3.71-5.15l-.53-2.7,1.65,2.32a2.08,2.08,0,0,1-1.65.68,2.11,2.11,0,0,1-2.29-2.21,2.18,2.18,0,0,1,2.35-2.23c1.73,0,2.65,1.44,2.65,3.76,0,3.44-2,5.85-5.18,7.06Zm.68-17.41a2.38,2.38,0,1,1,2.38,2.5A2.38,2.38,0,0,1,627.62,280.75Z"/><path class="cls-6" d="M447.47,327.13h2l.2,1.83h.09a7.55,7.55,0,0,1,4.94-2.18c3.85,0,5.91,2.85,5.91,7.29,0,4.85-3.06,7.71-6.5,7.71a6.76,6.76,0,0,1-4.26-1.86h-.06l.12,2.71v4.82h-2.44Zm10.64,6.94c0-3.14-1.18-5.23-4-5.23a6.07,6.07,0,0,0-4.17,2.12v7.11a5.94,5.94,0,0,0,3.79,1.65C456.23,339.72,458.11,337.6,458.11,334.07Z"/><path class="cls-6" d="M464.64,336v-8.88h2.44v8.56c0,2.68.94,4,3.29,4,1.65,0,2.86-.76,4.44-2.62v-9.91h2.45v14.29h-2l-.21-2.5h-.12a6.94,6.94,0,0,1-5.32,2.86C466.2,341.78,464.64,339.78,464.64,336Z"/><path class="cls-6" d="M486.08,335.87V329.1H482v-1.82l4.15-.15.32-4.58h2v4.58h7v2h-7v6.8c0,2.55.85,3.88,3.62,3.88a9.45,9.45,0,0,0,3.41-.65l.53,1.79a12.52,12.52,0,0,1-4.47.86C487.43,341.78,486.08,339.39,486.08,335.87Z"/><path class="cls-6" d="M503.78,333.25a16.36,16.36,0,0,1,6.59-13.35l1.35,1.24a15.61,15.61,0,0,0,0,24.22l-1.35,1.24A16.38,16.38,0,0,1,503.78,333.25Z"/><path class="cls-6" d="M517.66,337.72c0-3.21,3-4.76,10.38-5.35-.08-1.94-1-3.59-3.79-3.59a9.9,9.9,0,0,0-5,1.71l-1-1.65a12.53,12.53,0,0,1,6.38-2.06c3.91,0,5.82,2.32,5.82,5.88v8.76h-2l-.21-1.94h-.09a9.6,9.6,0,0,1-5.62,2.3C519.87,341.78,517.66,340.28,517.66,337.72Zm10.38,0V334c-6.11.48-8,1.68-8,3.56,0,1.62,1.47,2.27,3.12,2.27A7.78,7.78,0,0,0,528,337.69Z"/><path class="cls-6" d="M535.31,334.31c0-4.79,3.65-7.53,8-7.53a7.23,7.23,0,0,1,5.2,2.09l-1.2,1.56a5.9,5.9,0,0,0-3.91-1.62,5.24,5.24,0,0,0-5.56,5.5,5.19,5.19,0,0,0,5.5,5.44,6.82,6.82,0,0,0,4.41-1.8l1.09,1.59a8.53,8.53,0,0,1-5.68,2.24C538.66,341.78,535.31,339,535.31,334.31Z"/><path class="cls-6" d="M553,334.31c0-4.79,3.65-7.53,8-7.53a7.26,7.26,0,0,1,5.21,2.09l-1.21,1.56a5.88,5.88,0,0,0-3.91-1.62,5.25,5.25,0,0,0-5.56,5.5,5.19,5.19,0,0,0,5.5,5.44,6.77,6.77,0,0,0,4.41-1.8l1.09,1.59a8.53,8.53,0,0,1-5.67,2.24C556.31,341.78,553,339,553,334.31Z"/><path class="cls-6" d="M570,334.31c0-4.79,3.29-7.53,7.06-7.53s7,2.74,7,7.53-3.29,7.47-7,7.47S570,339,570,334.31Zm11.62,0c0-3.3-1.83-5.5-4.56-5.5s-4.56,2.2-4.56,5.5,1.82,5.44,4.56,5.44S581.63,337.57,581.63,334.31Z"/><path class="cls-6" d="M588.16,336v-8.88h2.44v8.56c0,2.68.94,4,3.29,4,1.65,0,2.85-.76,4.44-2.62v-9.91h2.44v14.29h-2l-.2-2.5h-.12a7,7,0,0,1-5.32,2.86C589.71,341.78,588.16,339.78,588.16,336Z"/><path class="cls-6" d="M606.27,327.13h2l.21,2.42h.11c1.5-1.56,3.15-2.77,5.39-2.77,3.38,0,4.93,2,4.93,5.76v8.88h-2.44v-8.55c0-2.71-.94-4-3.26-4-1.71,0-2.85.85-4.5,2.56v10h-2.44Z"/><path class="cls-6" d="M627.24,335.87V329.1h-4.06v-1.82l4.15-.15.32-4.58h2v4.58h7v2h-7v6.8c0,2.55.85,3.88,3.62,3.88a9.45,9.45,0,0,0,3.41-.65l.53,1.79a12.52,12.52,0,0,1-4.47.86C628.59,341.78,627.24,339.39,627.24,335.87Z"/><path class="cls-6" d="M641.68,339.39h5.41V325.63h-4.21v-1.58a13.63,13.63,0,0,0,4.83-1.39h1.82v16.73h4.88v2H641.68Z"/><path class="cls-6" d="M662.23,346.16c2.5-1.12,3.74-2.71,3.71-5.15l-.53-2.7,1.65,2.32a2.08,2.08,0,0,1-1.65.68,2.11,2.11,0,0,1-2.29-2.21,2.18,2.18,0,0,1,2.35-2.23c1.73,0,2.65,1.44,2.65,3.76,0,3.44-2,5.85-5.18,7.06Z"/><path class="cls-6" d="M696.76,339.84h-.09l-.23,1.58H694.5V320.49h2.44v5.7l-.12,2.77h.09a7,7,0,0,1,4.79-2.18c3.85,0,5.94,2.85,5.94,7.26,0,4.88-3.06,7.74-6.44,7.74A7.08,7.08,0,0,1,696.76,339.84Zm8.38-5.77c0-3.14-1.18-5.23-4-5.23a6.07,6.07,0,0,0-4.17,2.12v7.11a6,6,0,0,0,3.85,1.65C703.26,339.72,705.14,337.6,705.14,334.07Z"/><path class="cls-6" d="M711.76,337.72c0-3.21,3-4.76,10.38-5.35-.09-1.94-1-3.59-3.79-3.59a9.86,9.86,0,0,0-5,1.71l-1-1.65a12.53,12.53,0,0,1,6.38-2.06c3.91,0,5.82,2.32,5.82,5.88v8.76h-2l-.21-1.94h-.08a9.6,9.6,0,0,1-5.62,2.3C714,341.78,711.76,340.28,711.76,337.72Zm10.38,0V334c-6.12.48-8,1.68-8,3.56,0,1.62,1.47,2.27,3.12,2.27A7.83,7.83,0,0,0,722.14,337.69Z"/><path class="cls-6" d="M734.28,336.63V322.46h-5v-2h7.5v16.32c0,2.06,1.11,2.94,2.82,2.94a6.47,6.47,0,0,0,2.67-.65l.62,1.82a8.64,8.64,0,0,1-3.82.86C736,341.78,734.28,340,734.28,336.63Z"/><path class="cls-6" d="M747.05,337.72c0-3.21,3-4.76,10.38-5.35-.09-1.94-1-3.59-3.8-3.59a9.86,9.86,0,0,0-5,1.71l-1-1.65a12.53,12.53,0,0,1,6.38-2.06c3.91,0,5.82,2.32,5.82,5.88v8.76h-2l-.21-1.94h-.08a9.6,9.6,0,0,1-5.62,2.3C749.25,341.78,747.05,340.28,747.05,337.72Zm10.38,0V334c-6.12.48-8,1.68-8,3.56,0,1.62,1.47,2.27,3.12,2.27A7.83,7.83,0,0,0,757.43,337.69Z"/><path class="cls-6" d="M765.08,327.13h2l.21,2.42h.12c1.5-1.56,3.14-2.77,5.38-2.77,3.38,0,4.94,2,4.94,5.76v8.88h-2.44v-8.55c0-2.71-.94-4-3.27-4-1.7,0-2.85.85-4.49,2.56v10h-2.44Z"/><path class="cls-6" d="M782.34,334.31c0-4.79,3.64-7.53,8-7.53a7.25,7.25,0,0,1,5.2,2.09l-1.2,1.56a5.93,5.93,0,0,0-3.92-1.62,5.24,5.24,0,0,0-5.55,5.5,5.19,5.19,0,0,0,5.5,5.44,6.82,6.82,0,0,0,4.41-1.8l1.08,1.59a8.49,8.49,0,0,1-5.67,2.24C785.69,341.78,782.34,339,782.34,334.31Z"/><path class="cls-6" d="M799.63,334.25a7.18,7.18,0,0,1,7.29-7.47c4.12,0,6.53,2.68,6.53,6.7a9.94,9.94,0,0,1-.12,1.48H801.25v-1.89h10.64l-.62.68c0-3.38-1.67-5.06-4.29-5.06s-4.94,2-4.94,5.56,2.41,5.59,5.59,5.59a7.74,7.74,0,0,0,4.35-1.36l.88,1.59a9.79,9.79,0,0,1-5.53,1.71C803,341.78,799.63,339,799.63,334.25Z"/><path class="cls-6" d="M818.13,339.39h5.41V325.63h-4.21v-1.58a13.63,13.63,0,0,0,4.83-1.39H826v16.73h4.88v2H818.13Z"/><path class="cls-6" d="M835.42,330.81h12.64v1.82H835.42Z"/><path class="cls-6" d="M853.42,339.39h5.41V325.63h-4.21v-1.58a13.63,13.63,0,0,0,4.83-1.39h1.82v16.73h4.88v2H853.42Z"/><path class="cls-6" d="M870.3,332c0-6.3,2.56-9.68,6.73-9.68s6.74,3.38,6.74,9.68-2.56,9.79-6.74,9.79S870.3,338.22,870.3,332Zm11.2,0c0-5.39-1.85-7.71-4.47-7.71s-4.47,2.32-4.47,7.71,1.85,7.82,4.47,7.82S881.5,337.37,881.5,332Zm-6.29-.21a1.83,1.83,0,1,1,1.82,2A1.82,1.82,0,0,1,875.21,331.78Z"/><path class="cls-6" d="M887.94,332c0-6.3,2.56-9.68,6.74-9.68s6.73,3.38,6.73,9.68-2.56,9.79-6.73,9.79S887.94,338.22,887.94,332Zm11.21,0c0-5.39-1.86-7.71-4.47-7.71s-4.47,2.32-4.47,7.71,1.85,7.82,4.47,7.82S899.15,337.37,899.15,332Zm-6.3-.21a1.83,1.83,0,1,1,1.83,2A1.83,1.83,0,0,1,892.85,331.78Z"/><path class="cls-6" d="M907.09,345.36a15.61,15.61,0,0,0,0-24.22l1.35-1.24a16.82,16.82,0,0,1,0,26.7Z"/><path class="cls-6" d="M926.91,346.16c2.5-1.12,3.73-2.71,3.7-5.15l-.53-2.7,1.65,2.32a2.08,2.08,0,0,1-1.65.68,2.11,2.11,0,0,1-2.29-2.21,2.19,2.19,0,0,1,2.35-2.23c1.74,0,2.65,1.44,2.65,3.76,0,3.44-1.94,5.85-5.18,7.06Zm.67-17.41a2.39,2.39,0,1,1,2.39,2.5A2.39,2.39,0,0,1,927.58,328.75Z"/><path class="cls-6" d="M447.47,375.13h2l.2,1.83h.09a7.55,7.55,0,0,1,4.94-2.18c3.85,0,5.91,2.85,5.91,7.29,0,4.85-3.06,7.71-6.5,7.71a6.76,6.76,0,0,1-4.26-1.86h-.06l.12,2.71v4.82h-2.44Zm10.64,6.94c0-3.14-1.18-5.23-4-5.23a6.07,6.07,0,0,0-4.17,2.12v7.11a5.94,5.94,0,0,0,3.79,1.65C456.23,387.72,458.11,385.6,458.11,382.07Z"/><path class="cls-6" d="M464.64,384v-8.88h2.44v8.56c0,2.68.94,4,3.29,4,1.65,0,2.86-.76,4.44-2.62v-9.91h2.45v14.29h-2l-.21-2.5h-.12a6.94,6.94,0,0,1-5.32,2.86C466.2,389.78,464.64,387.78,464.64,384Z"/><path class="cls-6" d="M486.08,383.87V377.1H482v-1.82l4.15-.15.32-4.58h2v4.58h7v2h-7v6.8c0,2.55.85,3.88,3.62,3.88a9.45,9.45,0,0,0,3.41-.65l.53,1.79a12.52,12.52,0,0,1-4.47.86C487.43,389.78,486.08,387.39,486.08,383.87Z"/><path class="cls-6" d="M503.78,381.25a16.36,16.36,0,0,1,6.59-13.35l1.35,1.24a15.61,15.61,0,0,0,0,24.22l-1.35,1.24A16.38,16.38,0,0,1,503.78,381.25Z"/><path class="cls-6" d="M517.66,385.72c0-3.21,3-4.76,10.38-5.35-.08-1.94-1-3.59-3.79-3.59a9.9,9.9,0,0,0-5,1.71l-1-1.65a12.53,12.53,0,0,1,6.38-2.06c3.91,0,5.82,2.32,5.82,5.88v8.76h-2l-.21-1.94h-.09a9.6,9.6,0,0,1-5.62,2.3C519.87,389.78,517.66,388.28,517.66,385.72Zm10.38,0V382c-6.11.48-8,1.68-8,3.56,0,1.62,1.47,2.27,3.12,2.27A7.78,7.78,0,0,0,528,385.69Z"/><path class="cls-6" d="M535.31,382.31c0-4.79,3.65-7.53,8-7.53a7.23,7.23,0,0,1,5.2,2.09l-1.2,1.56a5.9,5.9,0,0,0-3.91-1.62,5.24,5.24,0,0,0-5.56,5.5,5.19,5.19,0,0,0,5.5,5.44,6.82,6.82,0,0,0,4.41-1.8l1.09,1.59a8.53,8.53,0,0,1-5.68,2.24C538.66,389.78,535.31,387,535.31,382.31Z"/><path class="cls-6" d="M553,382.31c0-4.79,3.65-7.53,8-7.53a7.26,7.26,0,0,1,5.21,2.09l-1.21,1.56a5.88,5.88,0,0,0-3.91-1.62,5.25,5.25,0,0,0-5.56,5.5,5.19,5.19,0,0,0,5.5,5.44,6.77,6.77,0,0,0,4.41-1.8l1.09,1.59a8.53,8.53,0,0,1-5.67,2.24C556.31,389.78,553,387,553,382.31Z"/><path class="cls-6" d="M570,382.31c0-4.79,3.29-7.53,7.06-7.53s7,2.74,7,7.53-3.29,7.47-7,7.47S570,387,570,382.31Zm11.62,0c0-3.3-1.83-5.5-4.56-5.5s-4.56,2.2-4.56,5.5,1.82,5.44,4.56,5.44S581.63,385.57,581.63,382.31Z"/><path class="cls-6" d="M588.16,384v-8.88h2.44v8.56c0,2.68.94,4,3.29,4,1.65,0,2.85-.76,4.44-2.62v-9.91h2.44v14.29h-2l-.2-2.5h-.12a7,7,0,0,1-5.32,2.86C589.71,389.78,588.16,387.78,588.16,384Z"/><path class="cls-6" d="M606.27,375.13h2l.21,2.42h.11c1.5-1.56,3.15-2.77,5.39-2.77,3.38,0,4.93,2,4.93,5.76v8.88h-2.44v-8.55c0-2.71-.94-4-3.26-4-1.71,0-2.85.85-4.5,2.56v10h-2.44Z"/><path class="cls-6" d="M627.24,383.87V377.1h-4.06v-1.82l4.15-.15.32-4.58h2v4.58h7v2h-7v6.8c0,2.55.85,3.88,3.62,3.88a9.45,9.45,0,0,0,3.41-.65l.53,1.79a12.52,12.52,0,0,1-4.47.86C628.59,389.78,627.24,387.39,627.24,383.87Z"/><path class="cls-6" d="M641,388c6.35-5.61,9.82-8.91,9.82-12,0-2.15-1.29-3.65-4-3.65a6.43,6.43,0,0,0-4.5,2.24l-1.41-1.39a8.36,8.36,0,0,1,6.2-2.85c3.76,0,6.12,2.21,6.12,5.53,0,3.53-3.53,7-8.62,11.64,1.18-.09,2.38-.14,3.5-.14h6.14v2.08H641Z"/><path class="cls-6" d="M662.23,394.16c2.5-1.12,3.74-2.71,3.71-5.15l-.53-2.7,1.65,2.32a2.08,2.08,0,0,1-1.65.68,2.11,2.11,0,0,1-2.29-2.21,2.18,2.18,0,0,1,2.35-2.23c1.73,0,2.65,1.44,2.65,3.76,0,3.44-2,5.85-5.18,7.06Z"/><path class="cls-6" d="M696.76,387.84h-.09l-.23,1.58H694.5V368.49h2.44v5.7l-.12,2.77h.09a7,7,0,0,1,4.79-2.18c3.85,0,5.94,2.85,5.94,7.26,0,4.88-3.06,7.74-6.44,7.74A7.08,7.08,0,0,1,696.76,387.84Zm8.38-5.77c0-3.14-1.18-5.23-4-5.23a6.07,6.07,0,0,0-4.17,2.12v7.11a6,6,0,0,0,3.85,1.65C703.26,387.72,705.14,385.6,705.14,382.07Z"/><path class="cls-6" d="M711.76,385.72c0-3.21,3-4.76,10.38-5.35-.09-1.94-1-3.59-3.79-3.59a9.86,9.86,0,0,0-5,1.71l-1-1.65a12.53,12.53,0,0,1,6.38-2.06c3.91,0,5.82,2.32,5.82,5.88v8.76h-2l-.21-1.94h-.08a9.6,9.6,0,0,1-5.62,2.3C714,389.78,711.76,388.28,711.76,385.72Zm10.38,0V382c-6.12.48-8,1.68-8,3.56,0,1.62,1.47,2.27,3.12,2.27A7.83,7.83,0,0,0,722.14,385.69Z"/><path class="cls-6" d="M734.28,384.63V370.46h-5v-2h7.5v16.32c0,2.06,1.11,2.94,2.82,2.94a6.47,6.47,0,0,0,2.67-.65l.62,1.82a8.64,8.64,0,0,1-3.82.86C736,389.78,734.28,388,734.28,384.63Z"/><path class="cls-6" d="M747.05,385.72c0-3.21,3-4.76,10.38-5.35-.09-1.94-1-3.59-3.8-3.59a9.86,9.86,0,0,0-5,1.71l-1-1.65a12.53,12.53,0,0,1,6.38-2.06c3.91,0,5.82,2.32,5.82,5.88v8.76h-2l-.21-1.94h-.08a9.6,9.6,0,0,1-5.62,2.3C749.25,389.78,747.05,388.28,747.05,385.72Zm10.38,0V382c-6.12.48-8,1.68-8,3.56,0,1.62,1.47,2.27,3.12,2.27A7.83,7.83,0,0,0,757.43,385.69Z"/><path class="cls-6" d="M765.08,375.13h2l.21,2.42h.12c1.5-1.56,3.14-2.77,5.38-2.77,3.38,0,4.94,2,4.94,5.76v8.88h-2.44v-8.55c0-2.71-.94-4-3.27-4-1.7,0-2.85.85-4.49,2.56v10h-2.44Z"/><path class="cls-6" d="M782.34,382.31c0-4.79,3.64-7.53,8-7.53a7.25,7.25,0,0,1,5.2,2.09l-1.2,1.56a5.93,5.93,0,0,0-3.92-1.62,5.24,5.24,0,0,0-5.55,5.5,5.19,5.19,0,0,0,5.5,5.44,6.82,6.82,0,0,0,4.41-1.8l1.08,1.59a8.49,8.49,0,0,1-5.67,2.24C785.69,389.78,782.34,387,782.34,382.31Z"/><path class="cls-6" d="M799.63,382.25a7.18,7.18,0,0,1,7.29-7.47c4.12,0,6.53,2.68,6.53,6.7a9.94,9.94,0,0,1-.12,1.48H801.25v-1.89h10.64l-.62.68c0-3.38-1.67-5.06-4.29-5.06s-4.94,2-4.94,5.56,2.41,5.59,5.59,5.59a7.74,7.74,0,0,0,4.35-1.36l.88,1.59a9.79,9.79,0,0,1-5.53,1.71C803,389.78,799.63,387,799.63,382.25Z"/><path class="cls-6" d="M817.42,388c6.35-5.61,9.82-8.91,9.82-12,0-2.15-1.29-3.65-4-3.65a6.43,6.43,0,0,0-4.5,2.24l-1.41-1.39a8.36,8.36,0,0,1,6.2-2.85c3.76,0,6.12,2.21,6.12,5.53,0,3.53-3.53,7-8.62,11.64,1.18-.09,2.38-.14,3.5-.14h6.14v2.08h-13.2Z"/><path class="cls-6" d="M840.77,380.63h-5.35v-1.82h5.35v-5.73h1.94v5.73h5.35v1.82h-5.35v5.74h-1.94Z"/><path class="cls-6" d="M853.42,387.39h5.41V373.63h-4.21v-1.58a13.63,13.63,0,0,0,4.83-1.39h1.82v16.73h4.88v2H853.42Z"/><path class="cls-6" d="M870.3,380c0-6.3,2.56-9.68,6.73-9.68s6.74,3.38,6.74,9.68-2.56,9.79-6.74,9.79S870.3,386.22,870.3,380Zm11.2,0c0-5.39-1.85-7.71-4.47-7.71s-4.47,2.32-4.47,7.71,1.85,7.82,4.47,7.82S881.5,385.37,881.5,380Zm-6.29-.21a1.83,1.83,0,1,1,1.82,2A1.82,1.82,0,0,1,875.21,379.78Z"/><path class="cls-6" d="M887.94,380c0-6.3,2.56-9.68,6.74-9.68s6.73,3.38,6.73,9.68-2.56,9.79-6.73,9.79S887.94,386.22,887.94,380Zm11.21,0c0-5.39-1.86-7.71-4.47-7.71s-4.47,2.32-4.47,7.71,1.85,7.82,4.47,7.82S899.15,385.37,899.15,380Zm-6.3-.21a1.83,1.83,0,1,1,1.83,2A1.83,1.83,0,0,1,892.85,379.78Z"/><path class="cls-6" d="M907.09,393.36a15.61,15.61,0,0,0,0-24.22l1.35-1.24a16.82,16.82,0,0,1,0,26.7Z"/><path class="cls-6" d="M926.91,394.16c2.5-1.12,3.73-2.71,3.7-5.15l-.53-2.7,1.65,2.32a2.08,2.08,0,0,1-1.65.68,2.11,2.11,0,0,1-2.29-2.21,2.19,2.19,0,0,1,2.35-2.23c1.74,0,2.65,1.44,2.65,3.76,0,3.44-1.94,5.85-5.18,7.06Zm.67-17.41a2.39,2.39,0,1,1,2.39,2.5A2.39,2.39,0,0,1,927.58,376.75Z"/><path class="cls-6" d="M450.79,431.87V425.1h-4.06v-1.82l4.15-.15.32-4.58h2v4.58h7v2h-7v6.8c0,2.55.85,3.88,3.62,3.88a9.45,9.45,0,0,0,3.41-.65l.53,1.79a12.52,12.52,0,0,1-4.47.86C452.14,437.78,450.79,435.39,450.79,431.87Z"/><path class="cls-6" d="M469.67,430l-5-6.88h2.68l2.26,3.12c.5.79,1.09,1.65,1.68,2.41h.11c.53-.76,1.12-1.65,1.62-2.44l2.12-3.09h2.59l-5.06,7.09,5.47,7.2h-2.71L473,434.13c-.62-.79-1.26-1.76-1.88-2.59H471c-.59.86-1.17,1.71-1.76,2.62l-2.35,3.26h-2.59Z"/><path class="cls-6" d="M486.46,435.28a2.38,2.38,0,1,1,2.38,2.5A2.38,2.38,0,0,1,486.46,435.28Z"/><path class="cls-6" d="M500,430.31c0-4.79,3.65-7.53,8-7.53a7.23,7.23,0,0,1,5.2,2.09l-1.2,1.56a5.9,5.9,0,0,0-3.91-1.62,5.24,5.24,0,0,0-5.56,5.5,5.19,5.19,0,0,0,5.5,5.44,6.82,6.82,0,0,0,4.41-1.8l1.09,1.59a8.53,8.53,0,0,1-5.68,2.24C503.37,437.78,500,435,500,430.31Z"/><path class="cls-6" d="M517.08,430.31c0-4.79,3.29-7.53,7-7.53s7.06,2.74,7.06,7.53-3.29,7.47-7.06,7.47S517.08,435,517.08,430.31Zm11.61,0c0-3.3-1.82-5.5-4.56-5.5s-4.55,2.2-4.55,5.5,1.82,5.44,4.55,5.44S528.69,433.57,528.69,430.31Z"/><path class="cls-6" d="M534.66,423.13h1.94l.21,1.89h.06a3.53,3.53,0,0,1,3.26-2.24c1.41,0,2.29.82,2.71,2.47.82-1.53,1.7-2.47,3.35-2.47,2,0,3.17,1.56,3.17,4.41v10.23H547V427.37c0-1.65-.47-2.5-1.53-2.5s-1.53.73-2.29,2.2v10.35H540.9V427.37c0-1.65-.42-2.5-1.47-2.5s-1.65.73-2.36,2.2v10.35h-2.41Z"/><path class="cls-6" d="M552.31,423.13h1.94l.2,1.89h.06c.74-1.33,1.62-2.24,3.27-2.24,1.41,0,2.29.82,2.7,2.47.82-1.53,1.71-2.47,3.35-2.47,2,0,3.18,1.56,3.18,4.41v10.23H564.6V427.37c0-1.65-.47-2.5-1.53-2.5s-1.53.73-2.29,2.2v10.35h-2.24V427.37c0-1.65-.41-2.5-1.47-2.5s-1.65.73-2.35,2.2v10.35h-2.41Z"/><path class="cls-6" d="M577.51,425.1h-6.62v-2H580v14.29h-2.44Zm-1-6.85a1.94,1.94,0,0,1,3.88,0,1.94,1.94,0,0,1-3.88,0Z"/><path class="cls-6" d="M592,431.87V425.1h-4.06v-1.82l4.15-.15.32-4.58h2v4.58h7v2h-7v6.8c0,2.55.85,3.88,3.62,3.88a9.45,9.45,0,0,0,3.41-.65l.53,1.79a12.52,12.52,0,0,1-4.47.86C593.3,437.78,592,435.39,592,431.87Z"/><path class="cls-6" d="M609.65,429.25a16.36,16.36,0,0,1,6.59-13.35l1.35,1.24a15.61,15.61,0,0,0,0,24.22l-1.35,1.24A16.38,16.38,0,0,1,609.65,429.25Z"/><path class="cls-6" d="M624.77,441.36a15.61,15.61,0,0,0,0-24.22l1.35-1.24a16.82,16.82,0,0,1,0,26.7Z"/><path class="cls-6" d="M644.59,442.16c2.5-1.12,3.73-2.71,3.7-5.15l-.52-2.7,1.64,2.32a2.07,2.07,0,0,1-1.64.68,2.11,2.11,0,0,1-2.3-2.21,2.19,2.19,0,0,1,2.35-2.23c1.74,0,2.65,1.44,2.65,3.76,0,3.44-1.94,5.85-5.18,7.06Zm.68-17.41a2.38,2.38,0,1,1,2.38,2.5A2.38,2.38,0,0,1,645.27,424.75Z"/><text class="cls-7" transform="translate(769.31 538.25)">2-<tspan class="cls-8" x="22.98" y="0">P</tspan><tspan class="cls-9" x="35.84" y="0">h</tspan><tspan class="cls-10" x="48.37" y="0">a</tspan><tspan class="cls-11" x="60.01" y="0">s</tspan><tspan x="69.44" y="0">e </tspan><tspan class="cls-12" x="89.07" y="0">C</tspan><tspan class="cls-8" x="102.64" y="0">o</tspan><tspan class="cls-13" x="114.78" y="0">m</tspan><tspan class="cls-14" x="134.25" y="0">m</tspan><tspan class="cls-9" x="153.52" y="0">i</tspan><tspan x="159.63" y="0">t</tspan></text><path class="cls-15" d="M414.39,626.71V561.29a4.54,4.54,0,1,1,9.07,0v65.42a4.54,4.54,0,1,1-9.07,0Z"/><path class="cls-15" d="M691.62,565.83H419.46a4.54,4.54,0,1,1,0-9.08H691.62a4.54,4.54,0,0,1,0,9.08Z"/><path class="cls-15" d="M397.75,609.66a4.48,4.48,0,0,0,1.09,3l16.64,19.47a4.53,4.53,0,0,0,6.89,0L439,612.61a4.54,4.54,0,1,0-6.89-5.9l-13.2,15.44-13.19-15.44a4.53,4.53,0,0,0-8,2.95Z"/><path class="cls-15" d="M687.08,561.29v-47.7a4.54,4.54,0,1,1,9.07,0v47.7a4.54,4.54,0,1,1-9.07,0Z"/><path class="cls-15" d="M951.37,626.71V561.29a4.54,4.54,0,1,0-9.07,0v65.42a4.54,4.54,0,1,0,9.07,0Z"/><path class="cls-15" d="M691.62,565.83H946.3a4.54,4.54,0,0,0,0-9.08H691.62a4.54,4.54,0,1,0,0,9.08Z"/><path class="cls-15" d="M968,609.66a4.48,4.48,0,0,1-1.09,3l-16.64,19.47a4.54,4.54,0,0,1-6.9,0l-16.64-19.47a4.54,4.54,0,0,1,6.9-5.9l13.19,15.44L960,606.71a4.53,4.53,0,0,1,8,2.95Z"/><path class="cls-6" d="M946.82,659c-30.59,0-62.23,6.94-62.23,18.54V820.86a7,7,0,0,0,1.33,4,12,12,0,0,0,1.51,1.75c7.92,7.65,31.78,12.78,59.39,12.78s51.5-5.13,59.4-12.77a11.14,11.14,0,0,0,1.53-1.77,6.91,6.91,0,0,0,1.32-4V677.55C1009.07,666,977.42,659,946.82,659Z"/><path class="cls-16" d="M989.47,661.48c-11.55-3.13-27.1-4.93-42.65-4.93s-31.09,1.8-42.64,4.93c-13.52,3.67-20.67,8.88-20.67,15.07v49.2a8.51,8.51,0,0,0,1.61,4.89,13.55,13.55,0,0,0,1.72,2c8.11,7.83,32.22,13.11,60,13.11s51.89-5.27,60-13.12a13.39,13.39,0,0,0,1.71-2,8.49,8.49,0,0,0,1.61-4.9v-49.2C1010.15,670.36,1003,665.15,989.47,661.48Zm14.41,65.9a7.25,7.25,0,0,1-1,1.14c-6.93,6.69-30.51,11.54-56.08,11.54s-49.13-4.85-56.05-11.54a7,7,0,0,1-1-1.15,2.84,2.84,0,0,1-.58-1.62v-40.4a30.22,30.22,0,0,0,4.23,2.41l.07,0c.77.36,1.57.72,2.42,1.07l.21.09c.82.33,1.67.66,2.56,1l.32.11c.76.26,1.53.52,2.33.77l.73.22c.75.23,1.53.45,2.32.66l1.07.29c.76.2,1.54.39,2.33.57l1.36.31,2.33.5,1.56.3,1.86.33,2.14.36,1.76.26c.75.12,1.52.22,2.29.32l2,.26,1.8.2,2.7.28,1.38.12c1.08.1,2.18.18,3.28.26l1.18.07c1.19.08,2.39.15,3.61.2l.89,0c1.31,0,2.63.1,4,.13h.53c1.45,0,2.91,0,4.39,0s2.93,0,4.38,0h.54c1.33,0,2.65-.08,4-.13l.91,0c1.21-.05,2.41-.12,3.6-.2l1.18-.07c1.1-.08,2.2-.16,3.28-.26l1.4-.13,2.62-.26,1.89-.22,2-.24,2.33-.33,1.73-.26,2.17-.36,1.85-.33,1.56-.31c.79-.15,1.56-.32,2.33-.49l1.35-.31c.8-.18,1.58-.38,2.35-.57l1-.28q1.25-.33,2.43-.69l.6-.19c.83-.26,1.64-.52,2.43-.8l.25-.08c.91-.32,1.79-.66,2.63-1l.14-.06c.87-.36,1.69-.72,2.48-1.1h0a30.51,30.51,0,0,0,4.25-2.42v40.4A2.85,2.85,0,0,1,1003.88,727.38Zm-57.06-65.14c35.71,0,57.64,8.33,57.64,14.31a3,3,0,0,1-.59,1.65c-2.5,3.69-11.43,7.45-24.61,9.91l-.12,0-1.49.26-1.57.26h0a184.18,184.18,0,0,1-24.32,2.14l-.83,0-1.56,0-2.55,0-2.56,0-1.56,0-.82,0a185.33,185.33,0,0,1-24.27-2.13l-.1,0c-.5-.07-1-.16-1.47-.24l-1.59-.28h0c-13.18-2.45-22.11-6.21-24.62-9.91a3,3,0,0,1-.6-1.65C889.2,670.57,911.12,662.24,946.82,662.24Z"/><path class="cls-16" d="M1007.48,722.89a2.64,2.64,0,0,0-2.63,2.64,3.25,3.25,0,0,1-.61,1.76c-2.27,3.36-9.49,6.64-19.8,9a187.54,187.54,0,0,1-75.22,0c-10.31-2.36-17.52-5.64-19.78-9a3.21,3.21,0,0,1-.63-1.77,2.63,2.63,0,1,0-5.26,0V774a8.24,8.24,0,0,0,1.58,4.79,12.91,12.91,0,0,0,1.68,2c4.05,3.9,12,7.21,22.85,9.56a197.41,197.41,0,0,0,74.33,0c10.91-2.35,18.81-5.65,22.85-9.55a12.71,12.71,0,0,0,1.7-2,8.19,8.19,0,0,0,1.58-4.78V725.53A2.64,2.64,0,0,0,1007.48,722.89ZM1004.85,774a3.15,3.15,0,0,1-.61,1.76,8,8,0,0,1-1,1.18l0,0c-3.35,3.24-10.74,6.18-20.82,8.29a191.48,191.48,0,0,1-71.11,0c-10.07-2.11-17.46-5.06-20.82-8.31h0a7.59,7.59,0,0,1-1-1.16,3.09,3.09,0,0,1-.63-1.77V733.94c4.31,3.12,11.21,5.78,20.22,7.77a197.45,197.45,0,0,0,75.58,0c9-2,15.93-4.65,20.24-7.77Z"/><path class="cls-16" d="M1007.48,771.42a2.63,2.63,0,0,0-2.63,2.63,3.28,3.28,0,0,1-.61,1.77c-2.27,3.35-9.49,6.63-19.8,9a188,188,0,0,1-75.22,0c-10.31-2.37-17.52-5.64-19.78-9a3.21,3.21,0,0,1-.63-1.78,2.63,2.63,0,1,0-5.26,0v48.48a8.29,8.29,0,0,0,1.58,4.79,12.36,12.36,0,0,0,1.68,1.95c4.05,3.91,12,7.22,22.85,9.56a197.41,197.41,0,0,0,74.33,0c10.91-2.34,18.81-5.64,22.85-9.55a12.62,12.62,0,0,0,1.7-2,8.24,8.24,0,0,0,1.58-4.78V774.05A2.64,2.64,0,0,0,1007.48,771.42Zm-2.63,51.11a3.12,3.12,0,0,1-.61,1.75,8.59,8.59,0,0,1-1,1.19h0c-3.35,3.24-10.74,6.19-20.82,8.3a192,192,0,0,1-71.11,0c-10.07-2.12-17.46-5.07-20.82-8.31h0a7.59,7.59,0,0,1-1-1.16,3.11,3.11,0,0,1-.63-1.77V782.46c4.31,3.12,11.21,5.78,20.22,7.77a196.92,196.92,0,0,0,75.58,0c9-2,15.93-4.65,20.24-7.77Z"/><text class="cls-17" transform="translate(914.04 870.6)">RDBMS</text><path class="cls-6" d="M318.27,659.2c-26.8,0-54.52,6.08-54.52,16.24V801a6.05,6.05,0,0,0,1.17,3.51,10.56,10.56,0,0,0,1.32,1.54c6.94,6.69,27.84,11.19,52,11.19s45.13-4.5,52.05-11.18a10.85,10.85,0,0,0,1.34-1.56,6.06,6.06,0,0,0,1.16-3.5V675.44C372.82,665.28,345.09,659.2,318.27,659.2Z"/><path class="cls-16" d="M355.65,661.36c-10.13-2.75-23.75-4.32-37.38-4.32s-27.24,1.57-37.35,4.32c-11.85,3.22-18.11,7.78-18.11,13.2v43.11a7.38,7.38,0,0,0,1.41,4.29,11.28,11.28,0,0,0,1.5,1.75c7.11,6.86,28.23,11.48,52.55,11.48s45.47-4.61,52.58-11.49a10.75,10.75,0,0,0,1.5-1.74,7.38,7.38,0,0,0,1.41-4.29V674.56C373.76,669.14,367.5,664.58,355.65,661.36Zm12.62,57.74a7,7,0,0,1-.86,1c-6.07,5.86-26.73,10.11-49.14,10.11s-43-4.25-49.11-10.11a7,7,0,0,1-.86-1,2.5,2.5,0,0,1-.51-1.43V682.28a27.56,27.56,0,0,0,3.7,2.11l.06,0c.68.32,1.38.64,2.13.94l.18.07c.72.3,1.47.58,2.25.86l.28.1c.66.23,1.34.45,2,.67l.64.2c.66.19,1.34.39,2,.57l.93.25c.67.18,1.36.34,2.05.51l1.19.27,2,.43,1.36.26,1.64.3,1.87.31,1.54.23,2,.28,1.75.22c.53.07,1,.13,1.58.18q1.17.13,2.37.24l1.2.11c.95.09,1.91.16,2.88.23l1,.07,3.15.17.79,0c1.15.05,2.3.09,3.47.11h.47c1.27,0,2.55,0,3.84,0s2.57,0,3.84,0h.48c1.16,0,2.32-.06,3.47-.11l.79,0,3.15-.17,1-.07c1-.07,1.92-.14,2.87-.23l1.23-.11,2.3-.23,1.65-.19,1.72-.22,2-.28,1.51-.23,1.91-.32,1.62-.29,1.36-.26c.7-.14,1.38-.28,2-.43l1.19-.27,2.06-.51.9-.24c.73-.2,1.44-.4,2.13-.61l.53-.16c.73-.23,1.44-.46,2.13-.7l.22-.07c.8-.29,1.56-.58,2.3-.88l.12,0c.76-.31,1.49-.64,2.17-1h0a27.39,27.39,0,0,0,3.73-2.12v35.39A2.52,2.52,0,0,1,368.27,719.1Zm-50-57.07c31.3,0,50.51,7.3,50.51,12.53a2.6,2.6,0,0,1-.52,1.45c-2.19,3.23-10,6.53-21.56,8.68l-.1,0-1.32.23-1.36.23h0a162.93,162.93,0,0,1-21.31,1.88h-.72l-1.37,0-2.24,0-2.24,0-1.36,0H314a163.94,163.94,0,0,1-21.26-1.87l-.09,0-1.3-.21-1.39-.25h0c-11.55-2.14-19.38-5.44-21.58-8.68a2.62,2.62,0,0,1-.52-1.45C267.79,669.33,287,662,318.27,662Z"/><path class="cls-16" d="M371.43,715.17a2.32,2.32,0,0,0-2.31,2.31,2.77,2.77,0,0,1-.54,1.54c-2,2.94-8.31,5.82-17.34,7.89a164.73,164.73,0,0,1-65.91,0C276.3,724.84,270,722,268,719a2.76,2.76,0,0,1-.55-1.55,2.31,2.31,0,1,0-4.61,0V760a7.24,7.24,0,0,0,1.38,4.2,11.26,11.26,0,0,0,1.47,1.71c3.55,3.42,10.48,6.32,20,8.38a173.14,173.14,0,0,0,65.13,0c9.55-2.06,16.47-5,20-8.37a11.58,11.58,0,0,0,1.5-1.73,7.25,7.25,0,0,0,1.37-4.19V717.48A2.31,2.31,0,0,0,371.43,715.17ZM369.12,760a2.67,2.67,0,0,1-.54,1.54,7.59,7.59,0,0,1-.89,1h0c-2.94,2.84-9.42,5.42-18.25,7.27a168.18,168.18,0,0,1-62.3,0c-8.82-1.85-15.3-4.44-18.25-7.28h0a6.76,6.76,0,0,1-.87-1,2.67,2.67,0,0,1-.55-1.55v-35.1c3.78,2.73,9.82,5.06,17.72,6.8a172.36,172.36,0,0,0,66.22,0c7.9-1.74,13.95-4.07,17.73-6.8Z"/><path class="cls-16" d="M371.43,757.69a2.31,2.31,0,0,0-2.31,2.3,2.8,2.8,0,0,1-.54,1.55c-2,2.94-8.31,5.82-17.34,7.89a164.73,164.73,0,0,1-65.91,0c-9-2.07-15.35-4.95-17.33-7.88a2.79,2.79,0,0,1-.55-1.56,2.31,2.31,0,0,0-4.61,0v42.48a7.19,7.19,0,0,0,1.38,4.19,11.86,11.86,0,0,0,1.47,1.72c3.55,3.42,10.48,6.32,20,8.37a172.6,172.6,0,0,0,65.13,0c9.55-2,16.47-4.94,20-8.36a11.68,11.68,0,0,0,1.5-1.74,7.22,7.22,0,0,0,1.37-4.18V760A2.3,2.3,0,0,0,371.43,757.69Zm-2.31,44.78a2.66,2.66,0,0,1-.54,1.53,6.56,6.56,0,0,1-.89,1v0c-2.94,2.83-9.42,5.42-18.25,7.26a167.61,167.61,0,0,1-62.3,0c-8.82-1.85-15.3-4.43-18.25-7.27h0a7.29,7.29,0,0,1-.87-1,2.71,2.71,0,0,1-.55-1.55V767.36c3.78,2.74,9.82,5.07,17.72,6.81a172.89,172.89,0,0,0,66.22,0c7.9-1.74,13.95-4.07,17.73-6.81Z"/><circle class="cls-6" cx="318.29" cy="751.63" r="39.99"/><path class="cls-15" d="M303.79,779.66a30.59,30.59,0,0,0,40.3-9.39,2.35,2.35,0,0,0-.79-3.36h0a2.34,2.34,0,0,0-3.1.72,25.86,25.86,0,1,1-12.26-38.73l-7.66,5.15a2.36,2.36,0,0,0-.64,3.27h0a2.36,2.36,0,0,0,3.26.64l11.14-7.5a2.39,2.39,0,0,0,.73-.79,2.36,2.36,0,0,0,.14-2l-4.73-11.79a2.36,2.36,0,0,0-3.06-1.31h0a2.36,2.36,0,0,0-1.31,3.06l2.59,6.45a30.55,30.55,0,0,0-24.61,55.61Z"/><text class="cls-18" transform="translate(300.51 759.92)">A<tspan class="cls-19" x="15.06" y="0">C</tspan><tspan class="cls-20" x="29.49" y="0">ID</tspan></text><path class="cls-16" d="M286.75,843S283.49,848,289.9,849c.62.08,5.26.56,6.46,2.08,0,0-.11-2.63-3.88-4.17S287.17,844.94,286.75,843Z"/><path class="cls-16" d="M289.93,832.39s-9.12,5.56-.53,11.08c1.66,1.08,7.65,4.08,7.47,6.83,0,0,3.63-5.38-1.67-8.75C289.74,838.08,288.38,834.39,289.93,832.39Z"/><path class="cls-16" d="M299.34,837.83c-3.9-4.1-5-6.62-3.32-9.9,0,0-11.67,4.49-.15,12.45,4.12,2.85,3.43,5.76,3.44,5.87C300,845.57,303.24,841.92,299.34,837.83Z"/><text class="cls-21" transform="translate(305.69 845.92)"><tspan class="cls-22">N</tspan><tspan class="cls-23" x="12.23" y="0">O</tspan><tspan class="cls-24" x="24.46" y="0">D</tspan><tspan x="35.52" y="0">E</tspan></text><path class="cls-6" d="M516.62,659.2c-26.8,0-54.52,6.08-54.52,16.24V801a6.05,6.05,0,0,0,1.17,3.51,10.56,10.56,0,0,0,1.32,1.54c6.94,6.69,27.85,11.19,52,11.19s45.13-4.5,52-11.18a10.85,10.85,0,0,0,1.34-1.56,6.06,6.06,0,0,0,1.16-3.5V675.44C571.17,665.28,543.44,659.2,516.62,659.2Z"/><path class="cls-16" d="M554,661.36c-10.13-2.75-23.75-4.32-37.38-4.32s-27.24,1.57-37.35,4.32c-11.85,3.22-18.11,7.78-18.11,13.2v43.11a7.38,7.38,0,0,0,1.41,4.29,11.28,11.28,0,0,0,1.5,1.75c7.11,6.86,28.23,11.48,52.55,11.48s45.47-4.61,52.58-11.49a10.75,10.75,0,0,0,1.5-1.74,7.39,7.39,0,0,0,1.42-4.29V674.56C572.12,669.14,565.85,664.58,554,661.36Zm12.62,57.74a7,7,0,0,1-.86,1c-6.07,5.86-26.73,10.11-49.14,10.11s-43-4.25-49.11-10.11a7,7,0,0,1-.86-1,2.5,2.5,0,0,1-.51-1.43V682.28a27.1,27.1,0,0,0,3.71,2.11l.06,0c.67.32,1.37.64,2.12.94l.18.07c.72.3,1.47.58,2.25.86l.28.1c.66.23,1.34.45,2,.67l.64.2c.66.19,1.34.39,2,.57l.94.25c.66.18,1.35.34,2,.51l1.19.27,2,.43,1.36.26,1.64.3,1.87.31,1.54.23,2,.28,1.74.22c.53.07,1.05.13,1.58.18.79.09,1.57.17,2.37.24l1.2.11c.95.09,1.91.16,2.88.23l1,.07,3.15.17.79,0c1.15.05,2.3.09,3.47.11h.47c1.27,0,2.55,0,3.84,0s2.57,0,3.85,0h.47c1.17,0,2.32-.06,3.47-.11l.79,0,3.15-.17,1-.07c1-.07,1.93-.14,2.87-.23l1.23-.11,2.3-.23,1.65-.19,1.72-.22,2-.28,1.52-.23,1.9-.32,1.62-.29,1.37-.26,2-.43,1.18-.27,2.06-.51.9-.24c.73-.2,1.44-.4,2.13-.61l.53-.16c.73-.23,1.44-.46,2.13-.7l.22-.07c.8-.29,1.56-.58,2.3-.88l.12,0c.76-.31,1.49-.64,2.18-1h0a27.39,27.39,0,0,0,3.73-2.12v35.39A2.52,2.52,0,0,1,566.62,719.1Zm-50-57.07c31.3,0,50.51,7.3,50.51,12.53a2.66,2.66,0,0,1-.51,1.45c-2.2,3.23-10,6.53-21.57,8.68l-.1,0-1.31.23-1.37.23h0A162.93,162.93,0,0,1,521,687.05h-.72l-1.37,0-2.24,0-2.23,0-1.37,0h-.72A163.94,163.94,0,0,1,491,685.18l-.09,0-1.29-.21-1.4-.25h0c-11.55-2.14-19.38-5.44-21.58-8.68a2.62,2.62,0,0,1-.52-1.45C466.14,669.33,485.35,662,516.62,662Z"/><path class="cls-16" d="M569.78,715.17a2.32,2.32,0,0,0-2.31,2.31,2.77,2.77,0,0,1-.54,1.54c-2,2.94-8.31,5.82-17.34,7.89a164.73,164.73,0,0,1-65.91,0c-9-2.07-15.35-4.94-17.33-7.88a2.76,2.76,0,0,1-.55-1.55,2.31,2.31,0,1,0-4.61,0V760a7.24,7.24,0,0,0,1.38,4.2,10.77,10.77,0,0,0,1.48,1.71c3.54,3.42,10.47,6.32,20,8.38a173.14,173.14,0,0,0,65.13,0c9.55-2.06,16.47-5,20-8.37a11,11,0,0,0,1.5-1.73,7.25,7.25,0,0,0,1.37-4.19V717.48A2.31,2.31,0,0,0,569.78,715.17ZM567.47,760a2.67,2.67,0,0,1-.54,1.54,7.59,7.59,0,0,1-.89,1h0c-2.94,2.84-9.42,5.42-18.24,7.27a168.23,168.23,0,0,1-62.31,0c-8.82-1.85-15.3-4.44-18.25-7.28h0a6.76,6.76,0,0,1-.87-1,2.67,2.67,0,0,1-.55-1.55v-35.1c3.78,2.73,9.82,5.06,17.72,6.8a172.36,172.36,0,0,0,66.22,0c7.9-1.74,14-4.07,17.73-6.8Z"/><path class="cls-16" d="M569.78,757.69a2.31,2.31,0,0,0-2.31,2.3,2.8,2.8,0,0,1-.54,1.55c-2,2.94-8.31,5.82-17.34,7.89a164.73,164.73,0,0,1-65.91,0c-9-2.07-15.35-4.95-17.33-7.88a2.79,2.79,0,0,1-.55-1.56,2.31,2.31,0,0,0-4.61,0v42.48a7.19,7.19,0,0,0,1.38,4.19,11.32,11.32,0,0,0,1.48,1.72c3.54,3.42,10.47,6.32,20,8.37a172.6,172.6,0,0,0,65.13,0c9.55-2,16.47-4.94,20-8.36a11.12,11.12,0,0,0,1.5-1.74,7.22,7.22,0,0,0,1.37-4.18V760A2.3,2.3,0,0,0,569.78,757.69Zm-2.31,44.78a2.66,2.66,0,0,1-.54,1.53,6.56,6.56,0,0,1-.89,1v0c-2.94,2.83-9.42,5.42-18.24,7.26a167.66,167.66,0,0,1-62.31,0c-8.82-1.85-15.3-4.43-18.25-7.27h0a7.29,7.29,0,0,1-.87-1,2.71,2.71,0,0,1-.55-1.55V767.36c3.78,2.74,9.82,5.07,17.72,6.81a172.89,172.89,0,0,0,66.22,0c7.9-1.74,14-4.07,17.73-6.81Z"/><circle class="cls-6" cx="516.64" cy="751.63" r="39.99"/><path class="cls-15" d="M502.14,779.66a30.59,30.59,0,0,0,40.3-9.39,2.34,2.34,0,0,0-.79-3.36h0a2.34,2.34,0,0,0-3.1.72,25.86,25.86,0,1,1-12.26-38.73l-7.66,5.15a2.36,2.36,0,0,0-.64,3.27h0a2.37,2.37,0,0,0,3.27.64l11.13-7.5a2.39,2.39,0,0,0,.73-.79,2.36,2.36,0,0,0,.14-2l-4.73-11.79a2.36,2.36,0,0,0-3.06-1.31h0a2.35,2.35,0,0,0-1.3,3.06l2.58,6.45a30.55,30.55,0,0,0-24.61,55.61Z"/><text class="cls-18" transform="translate(498.86 759.92)">A<tspan class="cls-19" x="15.06" y="0">C</tspan><tspan class="cls-20" x="29.49" y="0">ID</tspan></text><path class="cls-16" d="M485.1,843s-3.25,4.93,3.15,5.94c.62.08,5.26.56,6.46,2.08,0,0-.11-2.63-3.88-4.17S485.52,844.94,485.1,843Z"/><path class="cls-16" d="M488.28,832.39s-9.12,5.56-.53,11.08c1.66,1.08,7.65,4.08,7.47,6.83,0,0,3.63-5.38-1.67-8.75C488.09,838.08,486.73,834.39,488.28,832.39Z"/><path class="cls-16" d="M497.69,837.83c-3.9-4.1-5-6.62-3.32-9.9,0,0-11.66,4.49-.15,12.45,4.13,2.85,3.43,5.76,3.44,5.87C498.31,845.57,501.59,841.92,497.69,837.83Z"/><text class="cls-21" transform="translate(504.04 845.92)"><tspan class="cls-22">N</tspan><tspan class="cls-23" x="12.23" y="0">O</tspan><tspan class="cls-24" x="24.46" y="0">D</tspan><tspan x="35.52" y="0">E</tspan></text><path class="cls-6" d="M417.1,688.39c-26.8,0-54.52,6.08-54.52,16.24V830.2a6.09,6.09,0,0,0,1.16,3.51,10.69,10.69,0,0,0,1.33,1.54c6.93,6.7,27.84,11.2,52,11.2s45.12-4.5,52-11.19a9.79,9.79,0,0,0,1.34-1.56,6,6,0,0,0,1.17-3.5V704.63C471.65,694.47,443.91,688.39,417.1,688.39Z"/><path class="cls-16" d="M454.47,690.55c-10.12-2.74-23.74-4.32-37.37-4.32s-27.24,1.58-37.36,4.32c-11.85,3.22-18.11,7.78-18.11,13.2v43.11a7.43,7.43,0,0,0,1.41,4.29,10.81,10.81,0,0,0,1.51,1.75c7.1,6.87,28.23,11.49,52.55,11.49s45.46-4.62,52.58-11.49a11.85,11.85,0,0,0,1.5-1.75,7.36,7.36,0,0,0,1.41-4.29V703.75C472.59,698.33,466.32,693.77,454.47,690.55Zm12.63,57.74a6.53,6.53,0,0,1-.86,1c-6.07,5.86-26.73,10.11-49.14,10.11s-43.05-4.25-49.11-10.11a6.51,6.51,0,0,1-.87-1,2.53,2.53,0,0,1-.5-1.43V711.47a27.56,27.56,0,0,0,3.7,2.11l.06,0c.67.32,1.38.64,2.12.94l.19.08c.72.29,1.46.58,2.24.85l.28.1c.66.23,1.34.45,2,.67l.64.2c.66.2,1.34.39,2,.58l.93.25,2,.5,1.2.27,2,.43,1.36.27,1.63.29,1.88.31,1.54.24,2,.28,1.75.22,1.58.18,2.36.24,1.21.11,2.88.22,1,.07,3.16.17.78,0q1.72.07,3.48.12h.46c1.27,0,2.55,0,3.85,0s2.57,0,3.84,0h.47c1.17,0,2.32-.07,3.47-.12l.8,0,3.15-.17,1-.07,2.87-.22,1.23-.12c.77-.07,1.54-.14,2.29-.23l1.65-.19,1.72-.21,2.05-.29,1.51-.23,1.9-.31,1.62-.29,1.37-.27,2-.43,1.18-.27q1.05-.24,2.07-.51l.9-.24c.72-.19,1.44-.4,2.13-.6l.52-.17c.73-.22,1.44-.46,2.13-.7l.22-.07c.8-.29,1.57-.58,2.3-.88l.13-.05c.76-.31,1.48-.63,2.17-1h0a27.24,27.24,0,0,0,3.72-2.12v35.39A2.53,2.53,0,0,1,467.1,748.29Zm-50-57.07c31.29,0,50.5,7.3,50.5,12.53a2.66,2.66,0,0,1-.51,1.45c-2.19,3.23-10,6.53-21.57,8.68l-.1,0-1.31.23-1.37.23h0a162.77,162.77,0,0,1-21.3,1.88h-.72l-1.37,0h-4.48l-1.37,0h-.72a162.36,162.36,0,0,1-21.26-1.87l-.09,0-1.29-.21-1.4-.25h0c-11.55-2.15-19.37-5.45-21.57-8.68a2.68,2.68,0,0,1-.52-1.46C366.62,698.52,385.82,691.22,417.1,691.22Z"/><path class="cls-16" d="M470.25,744.36a2.31,2.31,0,0,0-2.3,2.31,2.9,2.9,0,0,1-.54,1.55c-2,2.94-8.31,5.81-17.35,7.88a164.25,164.25,0,0,1-65.91,0c-9-2.07-15.35-4.94-17.33-7.87a2.9,2.9,0,0,1-.55-1.56,2.31,2.31,0,1,0-4.61,0v42.48a7.25,7.25,0,0,0,1.39,4.19,11.26,11.26,0,0,0,1.47,1.71c3.55,3.43,10.47,6.32,20,8.38a173.14,173.14,0,0,0,65.13,0c9.55-2,16.47-4.95,20-8.37a11,11,0,0,0,1.49-1.73,7.26,7.26,0,0,0,1.38-4.18V746.67A2.32,2.32,0,0,0,470.25,744.36ZM468,789.15a2.74,2.74,0,0,1-.54,1.53,6.12,6.12,0,0,1-.9,1h0c-2.94,2.84-9.41,5.42-18.24,7.27A168.23,168.23,0,0,1,386,799c-8.82-1.85-15.3-4.44-18.24-7.28h0a6.27,6.27,0,0,1-.88-1,2.73,2.73,0,0,1-.55-1.54V754c3.78,2.73,9.83,5.06,17.72,6.81a172.89,172.89,0,0,0,66.22,0c7.91-1.75,14-4.08,17.74-6.81Z"/><path class="cls-16" d="M470.25,786.88a2.3,2.3,0,0,0-2.3,2.31,2.85,2.85,0,0,1-.54,1.54c-2,2.94-8.31,5.82-17.35,7.89a164.73,164.73,0,0,1-65.91,0c-9-2.07-15.35-4.94-17.33-7.88a2.87,2.87,0,0,1-.55-1.55,2.31,2.31,0,1,0-4.61,0v42.47a7.26,7.26,0,0,0,1.39,4.2,11.26,11.26,0,0,0,1.47,1.71c3.55,3.42,10.47,6.32,20,8.37a172.87,172.87,0,0,0,65.13,0c9.55-2.06,16.47-5,20-8.37a11,11,0,0,0,1.49-1.73,7.26,7.26,0,0,0,1.38-4.19V789.19A2.31,2.31,0,0,0,470.25,786.88ZM468,831.66a2.74,2.74,0,0,1-.54,1.54,7,7,0,0,1-.9,1h0c-2.94,2.84-9.41,5.42-18.24,7.27a168.23,168.23,0,0,1-62.31,0c-8.82-1.85-15.3-4.44-18.24-7.28h0a6.73,6.73,0,0,1-.88-1,2.74,2.74,0,0,1-.55-1.55v-35.1c3.78,2.73,9.83,5.06,17.72,6.8a172.89,172.89,0,0,0,66.22,0c7.91-1.74,14-4.07,17.74-6.81Z"/><circle class="cls-6" cx="417.11" cy="780.82" r="39.99"/><path class="cls-15" d="M402.61,808.86a30.61,30.61,0,0,0,40.3-9.39,2.35,2.35,0,0,0-.79-3.37h0a2.35,2.35,0,0,0-3.1.73,25.86,25.86,0,1,1-12.25-38.74l-7.67,5.16a2.35,2.35,0,0,0-.63,3.26h0a2.35,2.35,0,0,0,3.26.64l11.13-7.49a2.38,2.38,0,0,0,.87-2.83L429,745a2.34,2.34,0,0,0-3.05-1.3h0a2.34,2.34,0,0,0-1.31,3l2.58,6.45a30.56,30.56,0,0,0-24.61,55.62Z"/><text class="cls-18" transform="translate(399.34 789.12)">A<tspan class="cls-19" x="15.06" y="0">C</tspan><tspan class="cls-20" x="29.49" y="0">ID</tspan></text><path class="cls-16" d="M385.58,872.21s-3.26,4.93,3.14,5.94c.63.08,5.27.56,6.46,2.08,0,0-.1-2.62-3.87-4.17S386,874.13,385.58,872.21Z"/><path class="cls-16" d="M388.75,861.58s-9.11,5.56-.53,11.09c1.66,1.07,7.65,4.07,7.48,6.82,0,0,3.63-5.38-1.68-8.75S387.2,863.58,388.75,861.58Z"/><path class="cls-16" d="M398.16,867c-3.9-4.09-5-6.62-3.32-9.9,0,0-11.66,4.49-.15,12.45,4.13,2.85,3.44,5.76,3.44,5.87C398.78,874.77,402.07,871.11,398.16,867Z"/><text class="cls-21" transform="translate(404.51 875.11)"><tspan class="cls-22">N</tspan><tspan class="cls-23" x="12.23" y="0">O</tspan><tspan class="cls-24" x="24.46" y="0">D</tspan><tspan x="35.52" y="0">E</tspan></text></g></g></svg>