<svg xmlns="http://www.w3.org/2000/svg" viewBox="0 0 794.56 808.17"><defs><style>.cls-1{isolation:isolate;}.cls-2,.cls-5{fill:#efeeed;}.cls-2{mix-blend-mode:multiply;}.cls-18,.cls-3,.cls-7{fill:#020202;}.cls-4{fill:#010101;}.cls-6{fill:#fff;}.cls-7{font-size:22px;}.cls-17,.cls-18,.cls-21,.cls-7{font-family:MavenProMedium, Maven Pro;}.cls-8{letter-spacing:-0.02em;}.cls-9{letter-spacing:-0.01em;}.cls-10{letter-spacing:0em;}.cls-11{letter-spacing:-0.01em;}.cls-12{letter-spacing:-0.01em;}.cls-13{letter-spacing:-0.02em;}.cls-14{letter-spacing:-0.03em;}.cls-15{fill:#777;}.cls-16{fill:#e5282a;}.cls-17{font-size:19.82px;}.cls-17,.cls-21{fill:#1d1d1b;}.cls-18{font-size:23.44px;letter-spacing:-0.02em;}.cls-19{letter-spacing:-0.01em;}.cls-20{letter-spacing:0em;}.cls-21{font-size:16.64px;}.cls-22{letter-spacing:0em;}.cls-23{letter-spacing:-0.01em;}.cls-24{letter-spacing:-0.01em;}</style></defs><g class="cls-1"><g id="Capa_1" data-name="Capa 1"><rect class="cls-2" x="153.11" y="113.62" width="598.91" height="298.41" rx="11.13"/><rect class="cls-3" x="176.31" y="134.83" width="552.5" height="256.88"/><path class="cls-4" d="M393.14,36.63,399,22h2l5.82,14.65h-2.19L403,32.52h-6.11l-1.58,4.11Zm4.51-6h4.65L400,24.53Z"/><path class="cls-4" d="M409.06,40.8V29a4.14,4.14,0,0,1,.06-.7,3.27,3.27,0,0,1,.33-.88,3.11,3.11,0,0,1,.71-1,3.84,3.84,0,0,1,1.35-.7,6.6,6.6,0,0,1,2.09-.29,6.75,6.75,0,0,1,1.19.1,4.63,4.63,0,0,1,1.27.49,4,4,0,0,1,1.2,1,4.93,4.93,0,0,1,.84,1.69,8.4,8.4,0,0,1,.34,2.52,7.68,7.68,0,0,1-.45,2.78,3.57,3.57,0,0,1-1.22,1.71,5.53,5.53,0,0,1-1.59.8,6.3,6.3,0,0,1-1.79.24,8.57,8.57,0,0,1-2.33-.32V40.8Zm2-6.24a6.5,6.5,0,0,0,2.33.44,4.82,4.82,0,0,0,1.16-.13,2.61,2.61,0,0,0,.94-.5,2.28,2.28,0,0,0,.7-1.14,6.76,6.76,0,0,0,.24-2,7.83,7.83,0,0,0-.24-2.12,2.49,2.49,0,0,0-.69-1.23,2.72,2.72,0,0,0-.89-.53,3.47,3.47,0,0,0-1-.14c-1.69,0-2.54.55-2.54,1.65Z"/><path class="cls-4" d="M421.09,40.8V29a4.14,4.14,0,0,1,.06-.7,3.27,3.27,0,0,1,.33-.88,3.11,3.11,0,0,1,.71-1,3.84,3.84,0,0,1,1.35-.7,6.6,6.6,0,0,1,2.09-.29,6.75,6.75,0,0,1,1.19.1,4.69,4.69,0,0,1,1.28.49,4.13,4.13,0,0,1,1.19,1,4.76,4.76,0,0,1,.84,1.69,8.4,8.4,0,0,1,.34,2.52,7.68,7.68,0,0,1-.45,2.78,3.57,3.57,0,0,1-1.22,1.71,5.4,5.4,0,0,1-1.59.8,6.3,6.3,0,0,1-1.79.24,8.57,8.57,0,0,1-2.33-.32V40.8Zm2-6.24a6.5,6.5,0,0,0,2.33.44,4.82,4.82,0,0,0,1.16-.13,2.61,2.61,0,0,0,.94-.5,2.21,2.21,0,0,0,.7-1.14,6.76,6.76,0,0,0,.24-2,7.83,7.83,0,0,0-.24-2.12,2.49,2.49,0,0,0-.69-1.23,2.72,2.72,0,0,0-.89-.53,3.47,3.47,0,0,0-1-.14c-1.69,0-2.54.55-2.54,1.65Z"/><path class="cls-4" d="M433.51,36.63V21.5h2V36.63Z"/><path class="cls-4" d="M439.13,24V21.85h2.14V24Zm.07,12.66v-11h2v11Z"/><path class="cls-4" d="M445.39,35.35a6.09,6.09,0,0,1-1.3-4.2,6.05,6.05,0,0,1,1.3-4.2,4.83,4.83,0,0,1,3.8-1.45,8.7,8.7,0,0,1,3.23.61V28a6.9,6.9,0,0,0-3-.72h0a3.39,3.39,0,0,0-2.37.78c-.57.52-.86,1.54-.86,3.07a6.67,6.67,0,0,0,.26,2,2.23,2.23,0,0,0,.75,1.19,2.83,2.83,0,0,0,1,.52,5.36,5.36,0,0,0,1.22.13,7.2,7.2,0,0,0,3.06-.7v1.89a8.7,8.7,0,0,1-3.23.61A4.83,4.83,0,0,1,445.39,35.35Z"/><path class="cls-4" d="M454.44,33.16a2.89,2.89,0,0,1,1.38-2.54,6.85,6.85,0,0,1,3.79-.91,14.46,14.46,0,0,1,2,.13,2.71,2.71,0,0,0-.76-2,3.36,3.36,0,0,0-2.26-.61,9.65,9.65,0,0,0-3,.55V26.09a9.14,9.14,0,0,1,3.32-.59,5,5,0,0,1,3.54,1.18,4.49,4.49,0,0,1,1.24,3.41v3.16a3.26,3.26,0,0,1-.07.7,3.62,3.62,0,0,1-.33.9,3,3,0,0,1-.71.95,3.82,3.82,0,0,1-1.36.7,6.63,6.63,0,0,1-2.09.3,6.44,6.44,0,0,1-2.12-.31,4,4,0,0,1-1.38-.71,3.14,3.14,0,0,1-.73-1,3.25,3.25,0,0,1-.34-.93A4.39,4.39,0,0,1,454.44,33.16Zm2,0c0,1.24.88,1.86,2.63,1.86h0c1.66,0,2.49-.6,2.49-1.78V31.45a12.79,12.79,0,0,0-1.91-.14,5,5,0,0,0-.92.08,8.17,8.17,0,0,0-1,.25,2.06,2.06,0,0,0-.92.56A1.37,1.37,0,0,0,456.45,33.14Z"/><path class="cls-4" d="M465.21,27.38V25.67h1.91V22.42h2v3.25H472v1.71h-2.92v6.34c0,.85.54,1.28,1.62,1.28h0a2.45,2.45,0,0,0,1.28-.32v1.81a3.84,3.84,0,0,1-1.5.31h-.05a3.71,3.71,0,0,1-.85-.1,5.24,5.24,0,0,1-1.08-.38,2.25,2.25,0,0,1-1-1,3.35,3.35,0,0,1-.41-1.74V27.38Z"/><path class="cls-4" d="M474.69,24V21.85h2.13V24Zm.06,12.66v-11h2v11Z"/><path class="cls-4" d="M480.12,34a7.65,7.65,0,0,1-.47-2.83,7.65,7.65,0,0,1,.47-2.83,3.73,3.73,0,0,1,1.26-1.75,5.32,5.32,0,0,1,1.63-.82,6.52,6.52,0,0,1,1.82-.24,6.64,6.64,0,0,1,1.83.24,5.43,5.43,0,0,1,1.63.82,3.87,3.87,0,0,1,1.26,1.75,7.66,7.66,0,0,1,.46,2.83,7.66,7.66,0,0,1-.46,2.83,3.79,3.79,0,0,1-1.26,1.74,5.24,5.24,0,0,1-1.63.83,6.64,6.64,0,0,1-1.83.24,6.52,6.52,0,0,1-1.82-.24,5.14,5.14,0,0,1-1.63-.83A3.65,3.65,0,0,1,480.12,34Zm1.82-4.85a7.11,7.11,0,0,0-.24,2,7.11,7.11,0,0,0,.24,2,2.34,2.34,0,0,0,.72,1.18,2.89,2.89,0,0,0,1,.51,5,5,0,0,0,1.19.13,5.12,5.12,0,0,0,1.2-.13,2.85,2.85,0,0,0,1-.51,2.34,2.34,0,0,0,.72-1.18,7.11,7.11,0,0,0,.24-2,7.11,7.11,0,0,0-.24-2A2.34,2.34,0,0,0,487,28a2.53,2.53,0,0,0-1-.51,4.63,4.63,0,0,0-1.2-.13,4.55,4.55,0,0,0-1.19.13,2.57,2.57,0,0,0-1,.51A2.34,2.34,0,0,0,481.94,29.14Z"/><path class="cls-4" d="M492.54,36.63v-10a10.45,10.45,0,0,1,4.67-1.12,4.67,4.67,0,0,1,3.27,1.08,3.89,3.89,0,0,1,1.18,3v7.07h-2.05V29.4a2.21,2.21,0,0,0-.5-1.52,2.64,2.64,0,0,0-2-.56,8.19,8.19,0,0,0-2.58.4v8.91Z"/><path class="cls-4" d="M504.39,28.76a3.1,3.1,0,0,1,1-2.31,4.08,4.08,0,0,1,3-.95,6.65,6.65,0,0,1,2.93.71V28a6.56,6.56,0,0,0-2.69-.65c-1.45,0-2.17.46-2.17,1.4a.87.87,0,0,0,.58.76,7.08,7.08,0,0,0,1.39.54c.54.15,1.09.34,1.63.55a3.29,3.29,0,0,1,1.4,1.1,3.25,3.25,0,0,1-.41,4.19,4.31,4.31,0,0,1-3.08,1,6.48,6.48,0,0,1-3.16-.77V34.2a6.13,6.13,0,0,0,3,.8h0a2.88,2.88,0,0,0,1.61-.38,1.17,1.17,0,0,0,.55-1,1.28,1.28,0,0,0-.58-1.09,4.53,4.53,0,0,0-1.4-.64c-.55-.15-1.09-.32-1.64-.51a3.25,3.25,0,0,1-1.4-.94A2.52,2.52,0,0,1,504.39,28.76Z"/><path class="cls-5" d="M451.47,51.48v71.1a1.09,1.09,0,1,0,2.18,0V51.48a1.09,1.09,0,1,0-2.18,0Z"/><path class="cls-6" d="M211.59,194.31v-6.76h-4.06v-1.82l4.15-.15L212,181h2v4.59h7v2h-7v6.79c0,2.56.85,3.88,3.62,3.88a9.46,9.46,0,0,0,3.41-.64l.53,1.79a12.53,12.53,0,0,1-4.47.85C212.94,200.22,211.59,197.84,211.59,194.31Z"/><path class="cls-6" d="M230.47,192.46l-5-6.88h2.68l2.26,3.12c.5.79,1.09,1.64,1.68,2.41h.12c.52-.77,1.11-1.65,1.61-2.44l2.12-3.09h2.59l-5.06,7.08,5.47,7.21h-2.71l-2.47-3.29c-.61-.8-1.26-1.77-1.88-2.59h-.12c-.58.85-1.17,1.7-1.76,2.62l-2.35,3.26h-2.59Z"/><path class="cls-6" d="M247.26,197.72a2.39,2.39,0,1,1,2.38,2.5A2.38,2.38,0,0,1,247.26,197.72Z"/><path class="cls-6" d="M260.56,198l1.11-1.62a10.19,10.19,0,0,0,6.21,1.94c2.41,0,3.58-1,3.58-2.2s-.55-1.86-4.44-2.65c-3.73-.77-5.58-2-5.58-4.18s2-4.05,5.94-4.05a10.73,10.73,0,0,1,5.76,1.82L272,188.61a8.43,8.43,0,0,0-4.79-1.5c-2.41,0-3.29,1-3.29,2.06s1.23,1.76,4.17,2.38c4.74,1,5.88,2.2,5.88,4.41s-2.26,4.26-6.35,4.26A12.57,12.57,0,0,1,260.56,198Z"/><path class="cls-6" d="M282.17,194.31v-6.76h-4.06v-1.82l4.15-.15.32-4.59h2v4.59h7v2h-7v6.79c0,2.56.85,3.88,3.62,3.88a9.46,9.46,0,0,0,3.41-.64l.53,1.79a12.53,12.53,0,0,1-4.47.85C283.52,200.22,282.17,197.84,282.17,194.31Z"/><path class="cls-6" d="M296.11,196.16c0-3.2,3-4.76,10.38-5.35-.09-1.94-1-3.58-3.79-3.58a10,10,0,0,0-5,1.7l-1-1.65a12.53,12.53,0,0,1,6.38-2.05c3.91,0,5.82,2.32,5.82,5.88v8.76h-2l-.2-1.94h-.09a9.65,9.65,0,0,1-5.62,2.29C298.32,200.22,296.11,198.72,296.11,196.16Zm10.38,0v-3.7c-6.12.47-8,1.68-8,3.56,0,1.62,1.47,2.26,3.12,2.26A7.75,7.75,0,0,0,306.49,196.13Z"/><path class="cls-6" d="M315.67,185.58h2l.23,3.38H318a7.53,7.53,0,0,1,6.38-3.73,6,6,0,0,1,2.82.58l-.56,2.09a7.23,7.23,0,0,0-2.64-.47c-2.15,0-4.18,1.09-5.88,4.09v8.35h-2.44Z"/><path class="cls-6" d="M335.1,194.31v-6.76h-4.05v-1.82l4.14-.15.33-4.59h2v4.59h7v2h-7v6.79c0,2.56.85,3.88,3.61,3.88a9.42,9.42,0,0,0,3.41-.64l.53,1.79a12.44,12.44,0,0,1-4.47.85C336.46,200.22,335.1,197.84,335.1,194.31Z"/><path class="cls-6" d="M352.81,191.7a16.35,16.35,0,0,1,6.59-13.35l1.35,1.23a15.6,15.6,0,0,0,0,24.23L359.4,205A16.35,16.35,0,0,1,352.81,191.7Z"/><path class="cls-6" d="M367.93,203.81a15.62,15.62,0,0,0,0-24.23l1.35-1.23a16.82,16.82,0,0,1,0,26.69Z"/><path class="cls-6" d="M387.75,204.6c2.49-1.11,3.73-2.7,3.7-5.14l-.53-2.71,1.65,2.33a2.31,2.31,0,0,1-3.94-1.53,2.2,2.2,0,0,1,2.35-2.24c1.73,0,2.65,1.44,2.65,3.77,0,3.44-1.94,5.85-5.18,7Zm.67-17.4a2.39,2.39,0,1,1,2.38,2.5A2.38,2.38,0,0,1,388.42,187.2Z"/><path class="cls-6" d="M208.27,233.58h2l.2,1.82h.09a7.6,7.6,0,0,1,4.94-2.17c3.85,0,5.91,2.85,5.91,7.29,0,4.85-3.06,7.7-6.5,7.7a6.74,6.74,0,0,1-4.26-1.85h-.06l.12,2.7v4.83h-2.44Zm10.64,6.94c0-3.15-1.17-5.24-4-5.24a6.07,6.07,0,0,0-4.17,2.12v7.12a6,6,0,0,0,3.79,1.64C217,246.16,218.91,244.05,218.91,240.52Z"/><path class="cls-6" d="M225.44,242.46v-8.88h2.44v8.56c0,2.67.94,4,3.3,4,1.64,0,2.85-.76,4.44-2.61v-9.91h2.44v14.29h-2l-.21-2.5h-.12a6.93,6.93,0,0,1-5.32,2.85C227,248.22,225.44,246.22,225.44,242.46Z"/><path class="cls-6" d="M246.88,242.31v-6.76h-4.06v-1.82l4.15-.15.32-4.59h2v4.59h7v2h-7v6.79c0,2.56.85,3.88,3.62,3.88a9.46,9.46,0,0,0,3.41-.64l.53,1.79a12.53,12.53,0,0,1-4.47.85C248.23,248.22,246.88,245.84,246.88,242.31Z"/><path class="cls-6" d="M264.58,239.7a16.35,16.35,0,0,1,6.59-13.35l1.35,1.23a15.62,15.62,0,0,0,0,24.23L271.17,253A16.35,16.35,0,0,1,264.58,239.7Z"/><path class="cls-6" d="M278.46,244.16c0-3.2,3-4.76,10.38-5.35-.08-1.94-1-3.58-3.79-3.58a10,10,0,0,0-5,1.7l-1-1.65a12.53,12.53,0,0,1,6.38-2.05c3.91,0,5.83,2.32,5.83,5.88v8.76h-2l-.21-1.94H289a9.62,9.62,0,0,1-5.61,2.29C280.67,248.22,278.46,246.72,278.46,244.16Zm10.38,0v-3.7c-6.11.47-8,1.68-8,3.56,0,1.62,1.47,2.26,3.11,2.26A7.73,7.73,0,0,0,288.84,244.13Z"/><path class="cls-6" d="M296.11,240.75c0-4.79,3.65-7.52,8-7.52a7.27,7.27,0,0,1,5.2,2.08l-1.2,1.56a5.9,5.9,0,0,0-3.91-1.62,5.25,5.25,0,0,0-5.56,5.5,5.18,5.18,0,0,0,5.5,5.44,6.81,6.81,0,0,0,4.41-1.79l1.09,1.59a8.52,8.52,0,0,1-5.68,2.23C299.46,248.22,296.11,245.49,296.11,240.75Z"/><path class="cls-6" d="M313.75,240.75c0-4.79,3.65-7.52,8-7.52a7.29,7.29,0,0,1,5.21,2.08l-1.21,1.56a5.88,5.88,0,0,0-3.91-1.62,5.25,5.25,0,0,0-5.56,5.5,5.19,5.19,0,0,0,5.5,5.44,6.76,6.76,0,0,0,4.41-1.79l1.09,1.59a8.52,8.52,0,0,1-5.67,2.23C317.11,248.22,313.75,245.49,313.75,240.75Z"/><path class="cls-6" d="M330.81,240.75c0-4.79,3.3-7.52,7.06-7.52s7.06,2.73,7.06,7.52-3.3,7.47-7.06,7.47S330.81,245.49,330.81,240.75Zm11.62,0c0-3.29-1.83-5.5-4.56-5.5s-4.56,2.21-4.56,5.5,1.82,5.44,4.56,5.44S342.43,244,342.43,240.75Z"/><path class="cls-6" d="M349,242.46v-8.88h2.44v8.56c0,2.67.94,4,3.29,4,1.65,0,2.85-.76,4.44-2.61v-9.91h2.44v14.29h-2l-.2-2.5h-.12a6.94,6.94,0,0,1-5.32,2.85C350.52,248.22,349,246.22,349,242.46Z"/><path class="cls-6" d="M367.07,233.58h2l.21,2.41h.12c1.5-1.56,3.14-2.76,5.38-2.76,3.38,0,4.94,2,4.94,5.76v8.88h-2.44v-8.56c0-2.7-.95-4-3.27-4-1.7,0-2.85.86-4.5,2.56v10h-2.44Z"/><path class="cls-6" d="M388,242.31v-6.76H384v-1.82l4.15-.15.32-4.59h2v4.59h7v2h-7v6.79c0,2.56.85,3.88,3.62,3.88a9.46,9.46,0,0,0,3.41-.64l.53,1.79a12.53,12.53,0,0,1-4.47.85C389.39,248.22,388,245.84,388,242.31Z"/><path class="cls-6" d="M402.48,245.84h5.41V232.08h-4.2v-1.59a13.44,13.44,0,0,0,4.82-1.38h1.82v16.73h4.88v2H402.48Z"/><path class="cls-6" d="M423,252.6c2.49-1.11,3.73-2.7,3.7-5.14l-.53-2.71,1.65,2.33a2.31,2.31,0,0,1-3.94-1.53,2.2,2.2,0,0,1,2.35-2.24c1.73,0,2.65,1.44,2.65,3.77,0,3.44-1.94,5.85-5.18,7Z"/><path class="cls-6" d="M457.56,246.28h-.09l-.23,1.59H455.3V226.93h2.44v5.71l-.12,2.76h.09a7,7,0,0,1,4.79-2.17c3.85,0,5.94,2.85,5.94,7.26,0,4.88-3.06,7.73-6.44,7.73A7,7,0,0,1,457.56,246.28Zm8.38-5.76c0-3.15-1.17-5.24-4-5.24a6.07,6.07,0,0,0-4.17,2.12v7.12a6,6,0,0,0,3.85,1.64C464.06,246.16,465.94,244.05,465.94,240.52Z"/><path class="cls-6" d="M472.56,244.16c0-3.2,3-4.76,10.38-5.35-.09-1.94-1-3.58-3.79-3.58a10,10,0,0,0-5,1.7l-1-1.65a12.53,12.53,0,0,1,6.38-2.05c3.91,0,5.82,2.32,5.82,5.88v8.76h-2l-.2-1.94h-.09a9.65,9.65,0,0,1-5.62,2.29C474.77,248.22,472.56,246.72,472.56,244.16Zm10.38,0v-3.7c-6.12.47-8,1.68-8,3.56,0,1.62,1.47,2.26,3.12,2.26A7.75,7.75,0,0,0,482.94,244.13Z"/><path class="cls-6" d="M495.09,243.08V228.9H490v-2h7.5v16.32c0,2.06,1.11,2.94,2.82,2.94a6.44,6.44,0,0,0,2.67-.64l.62,1.82a8.63,8.63,0,0,1-3.82.85C496.76,248.22,495.09,246.46,495.09,243.08Z"/><path class="cls-6" d="M507.85,244.16c0-3.2,3-4.76,10.38-5.35-.09-1.94-1-3.58-3.79-3.58a10,10,0,0,0-5,1.7l-1-1.65a12.53,12.53,0,0,1,6.38-2.05c3.91,0,5.82,2.32,5.82,5.88v8.76h-2l-.21-1.94h-.08a9.65,9.65,0,0,1-5.62,2.29C510.05,248.22,507.85,246.72,507.85,244.16Zm10.38,0v-3.7c-6.12.47-8,1.68-8,3.56,0,1.62,1.47,2.26,3.12,2.26A7.77,7.77,0,0,0,518.23,244.13Z"/><path class="cls-6" d="M525.88,233.58h2l.2,2.41h.12c1.5-1.56,3.15-2.76,5.38-2.76,3.38,0,4.94,2,4.94,5.76v8.88h-2.44v-8.56c0-2.7-.94-4-3.26-4-1.71,0-2.86.86-4.5,2.56v10h-2.44Z"/><path class="cls-6" d="M543.14,240.75c0-4.79,3.65-7.52,8-7.52a7.27,7.27,0,0,1,5.2,2.08l-1.2,1.56a5.9,5.9,0,0,0-3.91-1.62,5.25,5.25,0,0,0-5.56,5.5,5.18,5.18,0,0,0,5.5,5.44,6.81,6.81,0,0,0,4.41-1.79l1.09,1.59a8.52,8.52,0,0,1-5.68,2.23C546.49,248.22,543.14,245.49,543.14,240.75Z"/><path class="cls-6" d="M560.43,240.69a7.18,7.18,0,0,1,7.29-7.46c4.12,0,6.53,2.67,6.53,6.7a9.68,9.68,0,0,1-.12,1.47H562.05v-1.88h10.64l-.61.67c0-3.38-1.68-5.05-4.3-5.05s-4.94,2-4.94,5.55c0,3.71,2.41,5.59,5.59,5.59a7.81,7.81,0,0,0,4.35-1.35l.88,1.59a9.78,9.78,0,0,1-5.52,1.7C563.84,248.22,560.43,245.46,560.43,240.69Z"/><path class="cls-6" d="M578.93,245.84h5.41V232.08h-4.21v-1.59a13.44,13.44,0,0,0,4.83-1.38h1.82v16.73h4.88v2H578.93Z"/><path class="cls-6" d="M596.22,237.25h12.65v1.83H596.22Z"/><path class="cls-6" d="M614.22,245.84h5.41V232.08h-4.21v-1.59a13.44,13.44,0,0,0,4.83-1.38h1.82v16.73H627v2H614.22Z"/><path class="cls-6" d="M631.1,238.43c0-6.29,2.56-9.67,6.73-9.67s6.74,3.38,6.74,9.67-2.56,9.79-6.74,9.79S631.1,244.66,631.1,238.43Zm11.2,0c0-5.38-1.85-7.7-4.47-7.7s-4.47,2.32-4.47,7.7,1.86,7.82,4.47,7.82S642.3,243.81,642.3,238.43Zm-6.29-.21a1.83,1.83,0,1,1,1.82,2A1.83,1.83,0,0,1,636,238.22Z"/><path class="cls-6" d="M648.74,238.43c0-6.29,2.56-9.67,6.74-9.67s6.73,3.38,6.73,9.67-2.56,9.79-6.73,9.79S648.74,244.66,648.74,238.43Zm11.21,0c0-5.38-1.86-7.7-4.47-7.7s-4.47,2.32-4.47,7.7,1.85,7.82,4.47,7.82S660,243.81,660,238.43Zm-6.3-.21a1.83,1.83,0,1,1,1.83,2A1.83,1.83,0,0,1,653.65,238.22Z"/><path class="cls-6" d="M667.89,251.81a15.62,15.62,0,0,0,0-24.23l1.35-1.23a16.81,16.81,0,0,1,0,26.69Z"/><path class="cls-6" d="M687.71,252.6c2.5-1.11,3.73-2.7,3.7-5.14l-.52-2.71,1.64,2.33a2.31,2.31,0,0,1-3.94-1.53,2.2,2.2,0,0,1,2.35-2.24c1.74,0,2.65,1.44,2.65,3.77,0,3.44-1.94,5.85-5.17,7Zm.68-17.4a2.38,2.38,0,1,1,2.38,2.5A2.38,2.38,0,0,1,688.39,235.2Z"/><path class="cls-6" d="M208.27,281.58h2l.2,1.82h.09a7.6,7.6,0,0,1,4.94-2.17c3.85,0,5.91,2.85,5.91,7.29,0,4.85-3.06,7.7-6.5,7.7a6.74,6.74,0,0,1-4.26-1.85h-.06l.12,2.7v4.83h-2.44Zm10.64,6.94c0-3.15-1.17-5.24-4-5.24a6.07,6.07,0,0,0-4.17,2.12v7.12a6,6,0,0,0,3.79,1.64C217,294.16,218.91,292.05,218.91,288.52Z"/><path class="cls-6" d="M225.44,290.46v-8.88h2.44v8.56c0,2.67.94,4,3.3,4,1.64,0,2.85-.76,4.44-2.61v-9.91h2.44v14.29h-2l-.21-2.5h-.12a6.93,6.93,0,0,1-5.32,2.85C227,296.22,225.44,294.22,225.44,290.46Z"/><path class="cls-6" d="M246.88,290.31v-6.76h-4.06v-1.82l4.15-.15.32-4.59h2v4.59h7v2h-7v6.79c0,2.56.85,3.88,3.62,3.88a9.46,9.46,0,0,0,3.41-.64l.53,1.79a12.53,12.53,0,0,1-4.47.85C248.23,296.22,246.88,293.84,246.88,290.31Z"/><path class="cls-6" d="M264.58,287.7a16.35,16.35,0,0,1,6.59-13.35l1.35,1.23a15.62,15.62,0,0,0,0,24.23L271.17,301A16.35,16.35,0,0,1,264.58,287.7Z"/><path class="cls-6" d="M278.46,292.16c0-3.2,3-4.76,10.38-5.35-.08-1.94-1-3.58-3.79-3.58a10,10,0,0,0-5,1.7l-1-1.65a12.53,12.53,0,0,1,6.38-2c3.91,0,5.83,2.32,5.83,5.88v8.76h-2l-.21-1.94H289a9.62,9.62,0,0,1-5.61,2.29C280.67,296.22,278.46,294.72,278.46,292.16Zm10.38,0v-3.7c-6.11.47-8,1.68-8,3.56,0,1.62,1.47,2.26,3.11,2.26A7.73,7.73,0,0,0,288.84,292.13Z"/><path class="cls-6" d="M296.11,288.75c0-4.79,3.65-7.52,8-7.52a7.27,7.27,0,0,1,5.2,2.08l-1.2,1.56a5.9,5.9,0,0,0-3.91-1.62,5.25,5.25,0,0,0-5.56,5.5,5.18,5.18,0,0,0,5.5,5.44,6.81,6.81,0,0,0,4.41-1.79l1.09,1.59a8.52,8.52,0,0,1-5.68,2.23C299.46,296.22,296.11,293.49,296.11,288.75Z"/><path class="cls-6" d="M313.75,288.75c0-4.79,3.65-7.52,8-7.52a7.29,7.29,0,0,1,5.21,2.08l-1.21,1.56a5.88,5.88,0,0,0-3.91-1.62,5.25,5.25,0,0,0-5.56,5.5,5.19,5.19,0,0,0,5.5,5.44,6.76,6.76,0,0,0,4.41-1.79l1.09,1.59a8.52,8.52,0,0,1-5.67,2.23C317.11,296.22,313.75,293.49,313.75,288.75Z"/><path class="cls-6" d="M330.81,288.75c0-4.79,3.3-7.52,7.06-7.52s7.06,2.73,7.06,7.52-3.3,7.47-7.06,7.47S330.81,293.49,330.81,288.75Zm11.62,0c0-3.29-1.83-5.5-4.56-5.5s-4.56,2.21-4.56,5.5,1.82,5.44,4.56,5.44S342.43,292,342.43,288.75Z"/><path class="cls-6" d="M349,290.46v-8.88h2.44v8.56c0,2.67.94,4,3.29,4,1.65,0,2.85-.76,4.44-2.61v-9.91h2.44v14.29h-2l-.2-2.5h-.12a6.94,6.94,0,0,1-5.32,2.85C350.52,296.22,349,294.22,349,290.46Z"/><path class="cls-6" d="M367.07,281.58h2l.21,2.41h.12c1.5-1.56,3.14-2.76,5.38-2.76,3.38,0,4.94,2,4.94,5.76v8.88h-2.44v-8.56c0-2.7-.95-4-3.27-4-1.7,0-2.85.86-4.5,2.56v10h-2.44Z"/><path class="cls-6" d="M388,290.31v-6.76H384v-1.82l4.15-.15.32-4.59h2v4.59h7v2h-7v6.79c0,2.56.85,3.88,3.62,3.88a9.46,9.46,0,0,0,3.41-.64l.53,1.79a12.53,12.53,0,0,1-4.47.85C389.39,296.22,388,293.84,388,290.31Z"/><path class="cls-6" d="M401.77,294.43c6.35-5.62,9.82-8.91,9.82-12,0-2.14-1.29-3.64-4-3.64A6.46,6.46,0,0,0,403,281l-1.41-1.38a8.32,8.32,0,0,1,6.2-2.85c3.76,0,6.12,2.2,6.12,5.52,0,3.53-3.53,7-8.62,11.65,1.18-.09,2.38-.15,3.5-.15H415v2.09H401.77Z"/><path class="cls-6" d="M423,300.6c2.49-1.11,3.73-2.7,3.7-5.14l-.53-2.71,1.65,2.33a2.31,2.31,0,0,1-3.94-1.53,2.2,2.2,0,0,1,2.35-2.24c1.73,0,2.65,1.44,2.65,3.77,0,3.44-1.94,5.85-5.18,7.05Z"/><path class="cls-6" d="M457.56,294.28h-.09l-.23,1.59H455.3V274.93h2.44v5.71l-.12,2.76h.09a7,7,0,0,1,4.79-2.17c3.85,0,5.94,2.85,5.94,7.26,0,4.88-3.06,7.73-6.44,7.73A7,7,0,0,1,457.56,294.28Zm8.38-5.76c0-3.15-1.17-5.24-4-5.24a6.07,6.07,0,0,0-4.17,2.12v7.12a6,6,0,0,0,3.85,1.64C464.06,294.16,465.94,292.05,465.94,288.52Z"/><path class="cls-6" d="M472.56,292.16c0-3.2,3-4.76,10.38-5.35-.09-1.94-1-3.58-3.79-3.58a10,10,0,0,0-5,1.7l-1-1.65a12.53,12.53,0,0,1,6.38-2c3.91,0,5.82,2.32,5.82,5.88v8.76h-2l-.2-1.94h-.09a9.65,9.65,0,0,1-5.62,2.29C474.77,296.22,472.56,294.72,472.56,292.16Zm10.38,0v-3.7c-6.12.47-8,1.68-8,3.56,0,1.62,1.47,2.26,3.12,2.26A7.75,7.75,0,0,0,482.94,292.13Z"/><path class="cls-6" d="M495.09,291.08V276.9H490v-2h7.5v16.32c0,2.06,1.11,2.94,2.82,2.94a6.44,6.44,0,0,0,2.67-.64l.62,1.82a8.63,8.63,0,0,1-3.82.85C496.76,296.22,495.09,294.46,495.09,291.08Z"/><path class="cls-6" d="M507.85,292.16c0-3.2,3-4.76,10.38-5.35-.09-1.94-1-3.58-3.79-3.58a10,10,0,0,0-5,1.7l-1-1.65a12.53,12.53,0,0,1,6.38-2c3.91,0,5.82,2.32,5.82,5.88v8.76h-2l-.21-1.94h-.08a9.65,9.65,0,0,1-5.62,2.29C510.05,296.22,507.85,294.72,507.85,292.16Zm10.38,0v-3.7c-6.12.47-8,1.68-8,3.56,0,1.62,1.47,2.26,3.12,2.26A7.77,7.77,0,0,0,518.23,292.13Z"/><path class="cls-6" d="M525.88,281.58h2l.2,2.41h.12c1.5-1.56,3.15-2.76,5.38-2.76,3.38,0,4.94,2,4.94,5.76v8.88h-2.44v-8.56c0-2.7-.94-4-3.26-4-1.71,0-2.86.86-4.5,2.56v10h-2.44Z"/><path class="cls-6" d="M543.14,288.75c0-4.79,3.65-7.52,8-7.52a7.27,7.27,0,0,1,5.2,2.08l-1.2,1.56a5.9,5.9,0,0,0-3.91-1.62,5.25,5.25,0,0,0-5.56,5.5,5.18,5.18,0,0,0,5.5,5.44,6.81,6.81,0,0,0,4.41-1.79l1.09,1.59a8.52,8.52,0,0,1-5.68,2.23C546.49,296.22,543.14,293.49,543.14,288.75Z"/><path class="cls-6" d="M560.43,288.69a7.18,7.18,0,0,1,7.29-7.46c4.12,0,6.53,2.67,6.53,6.7a9.68,9.68,0,0,1-.12,1.47H562.05v-1.88h10.64l-.61.67c0-3.38-1.68-5.05-4.3-5.05s-4.94,2-4.94,5.55c0,3.71,2.41,5.59,5.59,5.59a7.81,7.81,0,0,0,4.35-1.35l.88,1.59a9.78,9.78,0,0,1-5.52,1.7C563.84,296.22,560.43,293.46,560.43,288.69Z"/><path class="cls-6" d="M578.22,294.43c6.35-5.62,9.82-8.91,9.82-12,0-2.14-1.29-3.64-4-3.64a6.46,6.46,0,0,0-4.5,2.23l-1.41-1.38a8.32,8.32,0,0,1,6.2-2.85c3.76,0,6.12,2.2,6.12,5.52,0,3.53-3.53,7-8.62,11.65,1.18-.09,2.38-.15,3.5-.15h6.15v2.09H578.22Z"/><path class="cls-6" d="M601.57,287.08h-5.35v-1.83h5.35v-5.73h1.94v5.73h5.36v1.83h-5.36v5.73h-1.94Z"/><path class="cls-6" d="M614.22,293.84h5.41V280.08h-4.21v-1.59a13.44,13.44,0,0,0,4.83-1.38h1.82v16.73H627v2H614.22Z"/><path class="cls-6" d="M631.1,286.43c0-6.29,2.56-9.67,6.73-9.67s6.74,3.38,6.74,9.67-2.56,9.79-6.74,9.79S631.1,292.66,631.1,286.43Zm11.2,0c0-5.38-1.85-7.7-4.47-7.7s-4.47,2.32-4.47,7.7,1.86,7.82,4.47,7.82S642.3,291.81,642.3,286.43Zm-6.29-.21a1.83,1.83,0,1,1,1.82,2A1.83,1.83,0,0,1,636,286.22Z"/><path class="cls-6" d="M648.74,286.43c0-6.29,2.56-9.67,6.74-9.67s6.73,3.38,6.73,9.67-2.56,9.79-6.73,9.79S648.74,292.66,648.74,286.43Zm11.21,0c0-5.38-1.86-7.7-4.47-7.7s-4.47,2.32-4.47,7.7,1.85,7.82,4.47,7.82S660,291.81,660,286.43Zm-6.3-.21a1.83,1.83,0,1,1,1.83,2A1.83,1.83,0,0,1,653.65,286.22Z"/><path class="cls-6" d="M667.89,299.81a15.62,15.62,0,0,0,0-24.23l1.35-1.23a16.81,16.81,0,0,1,0,26.69Z"/><path class="cls-6" d="M687.71,300.6c2.5-1.11,3.73-2.7,3.7-5.14l-.52-2.71,1.64,2.33a2.31,2.31,0,0,1-3.94-1.53,2.2,2.2,0,0,1,2.35-2.24c1.74,0,2.65,1.44,2.65,3.77,0,3.44-1.94,5.85-5.17,7.05Zm.68-17.4a2.38,2.38,0,1,1,2.38,2.5A2.38,2.38,0,0,1,688.39,283.2Z"/><path class="cls-6" d="M211.59,338.31v-6.76h-4.06v-1.82l4.15-.15L212,325h2v4.59h7v2h-7v6.79c0,2.56.85,3.88,3.62,3.88a9.46,9.46,0,0,0,3.41-.64l.53,1.79a12.53,12.53,0,0,1-4.47.85C212.94,344.22,211.59,341.84,211.59,338.31Z"/><path class="cls-6" d="M230.47,336.46l-5-6.88h2.68l2.26,3.12c.5.79,1.09,1.64,1.68,2.41h.12c.52-.77,1.11-1.65,1.61-2.44l2.12-3.09h2.59l-5.06,7.08,5.47,7.21h-2.71l-2.47-3.29c-.61-.8-1.26-1.77-1.88-2.59h-.12c-.58.85-1.17,1.7-1.76,2.62l-2.35,3.26h-2.59Z"/><path class="cls-6" d="M247.26,341.72a2.39,2.39,0,1,1,2.38,2.5A2.38,2.38,0,0,1,247.26,341.72Z"/><path class="cls-6" d="M260.82,336.75c0-4.79,3.65-7.52,8-7.52a7.27,7.27,0,0,1,5.2,2.08l-1.2,1.56a5.9,5.9,0,0,0-3.91-1.62,5.25,5.25,0,0,0-5.56,5.5,5.18,5.18,0,0,0,5.5,5.44,6.81,6.81,0,0,0,4.41-1.79l1.09,1.59a8.52,8.52,0,0,1-5.68,2.23C264.17,344.22,260.82,341.49,260.82,336.75Z"/><path class="cls-6" d="M277.88,336.75c0-4.79,3.29-7.52,7.05-7.52S292,332,292,336.75s-3.29,7.47-7.06,7.47S277.88,341.49,277.88,336.75Zm11.61,0c0-3.29-1.82-5.5-4.56-5.5s-4.55,2.21-4.55,5.5,1.82,5.44,4.55,5.44S289.49,340,289.49,336.75Z"/><path class="cls-6" d="M295.46,329.58h1.94l.21,1.88h.06a3.54,3.54,0,0,1,3.26-2.23c1.41,0,2.3.82,2.71,2.47.82-1.53,1.7-2.47,3.35-2.47,2,0,3.18,1.55,3.18,4.41v10.23h-2.42V333.81c0-1.64-.47-2.5-1.52-2.5s-1.53.74-2.3,2.21v10.35H301.7V333.81c0-1.64-.41-2.5-1.47-2.5s-1.65.74-2.36,2.21v10.35h-2.41Z"/><path class="cls-6" d="M313.11,329.58h1.94l.2,1.88h.06a3.56,3.56,0,0,1,3.27-2.23c1.41,0,2.29.82,2.7,2.47.83-1.53,1.71-2.47,3.35-2.47,2,0,3.18,1.55,3.18,4.41v10.23H325.4V333.81c0-1.64-.47-2.5-1.53-2.5s-1.53.74-2.29,2.21v10.35h-2.24V333.81c0-1.64-.41-2.5-1.47-2.5s-1.64.74-2.35,2.21v10.35h-2.41Z"/><path class="cls-6" d="M338.31,331.55h-6.62v-2h9.06v14.29h-2.44Zm-1-6.85a1.94,1.94,0,1,1,1.94,1.88A1.83,1.83,0,0,1,337.34,324.7Z"/><path class="cls-6" d="M352.75,338.31v-6.76h-4.06v-1.82l4.15-.15.32-4.59h2v4.59h7v2h-7v6.79c0,2.56.85,3.88,3.62,3.88a9.46,9.46,0,0,0,3.41-.64l.53,1.79a12.53,12.53,0,0,1-4.47.85C354.1,344.22,352.75,341.84,352.75,338.31Z"/><path class="cls-6" d="M370.45,335.7A16.35,16.35,0,0,1,377,322.35l1.35,1.23a15.62,15.62,0,0,0,0,24.23L377,349A16.35,16.35,0,0,1,370.45,335.7Z"/><path class="cls-6" d="M385.57,347.81a15.62,15.62,0,0,0,0-24.23l1.35-1.23a16.81,16.81,0,0,1,0,26.69Z"/><path class="cls-6" d="M405.39,348.6c2.5-1.11,3.73-2.7,3.71-5.14l-.53-2.71,1.64,2.33a2.31,2.31,0,0,1-3.94-1.53,2.2,2.2,0,0,1,2.35-2.24c1.74,0,2.65,1.44,2.65,3.77,0,3.44-1.94,5.85-5.17,7.05Zm.68-17.4a2.38,2.38,0,1,1,2.38,2.5A2.38,2.38,0,0,1,406.07,331.2Z"/><text class="cls-7" transform="translate(530.11 444.69)">2-<tspan class="cls-8" x="22.98" y="0">P</tspan><tspan class="cls-9" x="35.84" y="0">h</tspan><tspan class="cls-10" x="48.37" y="0">a</tspan><tspan class="cls-11" x="60.01" y="0">s</tspan><tspan x="69.44" y="0">e </tspan><tspan class="cls-12" x="89.07" y="0">C</tspan><tspan class="cls-8" x="102.64" y="0">o</tspan><tspan class="cls-13" x="114.78" y="0">m</tspan><tspan class="cls-14" x="134.25" y="0">m</tspan><tspan class="cls-9" x="153.52" y="0">i</tspan><tspan x="159.63" y="0">t</tspan></text><path class="cls-15" d="M175.19,533.16V467.74a4.54,4.54,0,1,1,9.07,0v65.42a4.54,4.54,0,1,1-9.07,0Z"/><path class="cls-15" d="M452.42,472.27H180.26a4.54,4.54,0,1,1,0-9.07H452.42a4.54,4.54,0,1,1,0,9.07Z"/><path class="cls-15" d="M158.55,516.11a4.5,4.5,0,0,0,1.09,2.95l16.64,19.47a4.55,4.55,0,0,0,6.89,0l16.65-19.47a4.54,4.54,0,1,0-6.9-5.9l-13.19,15.43-13.2-15.43a4.53,4.53,0,0,0-8,3Z"/><path class="cls-15" d="M447.88,467.74V420a4.54,4.54,0,0,1,9.08,0v47.71a4.54,4.54,0,0,1-9.08,0Z"/><path class="cls-15" d="M712.17,533.16V467.74a4.54,4.54,0,1,0-9.07,0v65.42a4.54,4.54,0,1,0,9.07,0Z"/><path class="cls-15" d="M452.42,472.27H707.1a4.54,4.54,0,1,0,0-9.07H452.42a4.54,4.54,0,1,0,0,9.07Z"/><path class="cls-15" d="M728.81,516.11a4.5,4.5,0,0,1-1.09,2.95l-16.64,19.47a4.55,4.55,0,0,1-6.89,0l-16.65-19.47a4.54,4.54,0,0,1,6.9-5.9l13.19,15.43,13.2-15.43a4.53,4.53,0,0,1,8,3Z"/><path class="cls-6" d="M707.62,565.46c-30.59,0-62.23,6.93-62.23,18.54V727.31a6.94,6.94,0,0,0,1.33,4,12.63,12.63,0,0,0,1.51,1.76c7.92,7.64,31.78,12.78,59.39,12.78s51.5-5.14,59.4-12.77a12.1,12.1,0,0,0,1.53-1.77,6.93,6.93,0,0,0,1.32-4V584C769.87,572.39,738.22,565.46,707.62,565.46Z"/><path class="cls-16" d="M750.27,567.93c-11.55-3.14-27.1-4.94-42.65-4.94s-31.09,1.8-42.64,4.94c-13.52,3.66-20.67,8.87-20.67,15.06v49.2a8.45,8.45,0,0,0,1.62,4.9,12.39,12.39,0,0,0,1.71,2c8.11,7.84,32.22,13.11,60,13.11s51.89-5.27,60-13.11a13.49,13.49,0,0,0,1.71-2,8.46,8.46,0,0,0,1.61-4.9V583C771,576.8,763.8,571.59,750.27,567.93Zm14.41,65.89a6.82,6.82,0,0,1-1,1.14c-6.93,6.7-30.51,11.54-56.08,11.54s-49.13-4.85-56-11.53a8.54,8.54,0,0,1-1-1.15,2.9,2.9,0,0,1-.58-1.63V591.8a33,33,0,0,0,4.23,2.41l.07,0c.77.37,1.57.73,2.42,1.08l.21.08c.82.34,1.67.66,2.56,1l.32.11c.76.26,1.54.51,2.33.76l.73.23c.76.23,1.53.45,2.33.66l1.06.29,2.33.57,1.36.31,2.33.49,1.56.3,1.86.34,2.14.35c.58.1,1.17.18,1.76.27l2.29.32,2,.25,1.81.21q1.34.15,2.7.27l1.37.13,3.28.25,1.18.08c1.19.08,2.4.14,3.61.2l.89,0c1.31.06,2.64.1,4,.13h.53c1.45,0,2.91,0,4.39,0s2.93,0,4.38,0h.54c1.33,0,2.65-.07,4-.13l.91,0c1.21-.06,2.41-.12,3.6-.2l1.18-.08,3.28-.25,1.4-.13c.88-.08,1.76-.17,2.62-.27.64-.06,1.26-.14,1.89-.21l2-.25,2.33-.32,1.73-.27c.73-.11,1.45-.23,2.17-.36s1.24-.21,1.85-.33l1.56-.3,2.33-.49,1.35-.31c.8-.19,1.59-.38,2.35-.58l1-.27c.83-.23,1.64-.46,2.43-.7l.6-.18c.83-.26,1.65-.53,2.43-.8l.25-.09c.92-.32,1.79-.65,2.63-1l.14,0c.87-.36,1.69-.73,2.48-1.11h0a32.67,32.67,0,0,0,4.25-2.42v40.39A2.82,2.82,0,0,1,764.68,633.82Zm-57.06-65.14c35.71,0,57.64,8.34,57.64,14.31a3.08,3.08,0,0,1-.58,1.65c-2.51,3.69-11.44,7.46-24.62,9.91l-.12,0-1.49.27-1.56.26h0a184.18,184.18,0,0,1-24.32,2.14l-.82,0-1.56,0-2.56,0-2.56,0-1.56,0-.82,0a185,185,0,0,1-24.26-2.13l-.11,0-1.47-.25-1.59-.28h0c-13.18-2.45-22.11-6.22-24.62-9.91A3,3,0,0,1,650,583C650,577,671.92,568.68,707.62,568.68Z"/><path class="cls-16" d="M768.29,629.34a2.64,2.64,0,0,0-2.64,2.63,3.2,3.2,0,0,1-.61,1.77c-2.27,3.35-9.49,6.63-19.8,9a188,188,0,0,1-75.22,0c-10.31-2.36-17.52-5.64-19.78-9a3.21,3.21,0,0,1-.63-1.78,2.63,2.63,0,0,0-5.26,0v48.48a8.29,8.29,0,0,0,1.58,4.79,12.36,12.36,0,0,0,1.68,2c4,3.91,11.95,7.22,22.85,9.56a196.86,196.86,0,0,0,74.33,0c10.91-2.34,18.81-5.64,22.85-9.55a12.62,12.62,0,0,0,1.7-2,8.24,8.24,0,0,0,1.58-4.78V632A2.63,2.63,0,0,0,768.29,629.34Zm-2.64,51.11a3,3,0,0,1-.61,1.75,8.59,8.59,0,0,1-1,1.19h0c-3.35,3.24-10.74,6.19-20.82,8.3a192,192,0,0,1-71.11,0c-10.07-2.12-17.46-5.07-20.82-8.31h0a7.59,7.59,0,0,1-1-1.16,3.09,3.09,0,0,1-.63-1.77V640.38c4.32,3.12,11.21,5.78,20.23,7.77a196.92,196.92,0,0,0,75.58,0c9-2,15.92-4.65,20.23-7.77Z"/><path class="cls-16" d="M768.29,677.86a2.64,2.64,0,0,0-2.64,2.64,3.17,3.17,0,0,1-.61,1.76c-2.27,3.36-9.49,6.64-19.8,9a187.54,187.54,0,0,1-75.22,0c-10.31-2.36-17.52-5.64-19.78-9a3.21,3.21,0,0,1-.63-1.77,2.63,2.63,0,1,0-5.26,0V729a8.24,8.24,0,0,0,1.58,4.79,12.91,12.91,0,0,0,1.68,2c4,3.9,11.95,7.21,22.85,9.56a197.41,197.41,0,0,0,74.33,0c10.91-2.35,18.81-5.65,22.85-9.55a12.71,12.71,0,0,0,1.7-2,8.19,8.19,0,0,0,1.58-4.78V680.5A2.64,2.64,0,0,0,768.29,677.86ZM765.65,729a3.07,3.07,0,0,1-.61,1.76,8,8,0,0,1-1,1.18l0,0c-3.35,3.24-10.74,6.18-20.82,8.29a191.48,191.48,0,0,1-71.11,0c-10.07-2.11-17.46-5.06-20.82-8.31h0a7.59,7.59,0,0,1-1-1.16,3.09,3.09,0,0,1-.63-1.77V688.91c4.32,3.12,11.21,5.78,20.23,7.77a197.45,197.45,0,0,0,75.58,0c9-2,15.92-4.65,20.23-7.77Z"/><text class="cls-17" transform="translate(674.84 777.05)">RDBMS</text><path class="cls-6" d="M79.07,565.64c-26.8,0-54.52,6.08-54.52,16.25V707.45A6,6,0,0,0,25.72,711,9.6,9.6,0,0,0,27,712.5c6.94,6.7,27.85,11.2,52,11.2s45.13-4.5,52.05-11.19a10.24,10.24,0,0,0,1.34-1.55,6.09,6.09,0,0,0,1.16-3.51V581.89C133.62,571.72,105.89,565.64,79.07,565.64Z"/><path class="cls-16" d="M116.45,567.81c-10.13-2.75-23.75-4.32-37.38-4.32s-27.24,1.57-37.35,4.32C29.87,571,23.61,575.59,23.61,581v43.11A7.4,7.4,0,0,0,25,628.41a11.68,11.68,0,0,0,1.5,1.74c7.11,6.87,28.23,11.49,52.55,11.49s45.47-4.62,52.58-11.49a11.19,11.19,0,0,0,1.5-1.74,7.42,7.42,0,0,0,1.42-4.29V581C134.57,575.59,128.3,571,116.45,567.81Zm12.62,57.73a6,6,0,0,1-.86,1c-6.07,5.87-26.73,10.11-49.14,10.11S36,632.4,30,626.55a7.14,7.14,0,0,1-.86-1,2.47,2.47,0,0,1-.51-1.42v-35.4a27.1,27.1,0,0,0,3.71,2.11l.06,0c.67.33,1.37.64,2.12.95l.18.07c.72.29,1.47.58,2.25.86l.28.09c.66.23,1.34.45,2,.67l.64.2c.66.2,1.34.39,2,.58l.94.25,2,.5,1.19.27c.67.15,1.35.3,2,.43l1.36.27,1.64.29,1.87.31,1.54.24,2,.28,1.74.22,1.58.18,2.37.24,1.2.11,2.88.22,1,.07c1,.07,2.09.12,3.15.17l.79,0,3.47.11h.47c1.27,0,2.55,0,3.84,0s2.57,0,3.85,0h.47l3.47-.11.79,0c1.06-.05,2.11-.1,3.15-.17l1-.07c1-.06,1.93-.14,2.87-.22l1.23-.11,2.3-.23,1.65-.19,1.72-.22,2-.28,1.52-.23,1.9-.32,1.62-.29,1.37-.27,2-.43,1.18-.27,2.06-.5.9-.25q1.1-.28,2.13-.6l.53-.17q1.09-.33,2.13-.69l.22-.08c.8-.28,1.56-.58,2.3-.88l.12-.05c.76-.31,1.49-.63,2.18-1h0a27.39,27.39,0,0,0,3.73-2.12v35.4A2.47,2.47,0,0,1,129.07,625.54Zm-50-57.07c31.3,0,50.51,7.3,50.51,12.54a2.65,2.65,0,0,1-.51,1.44c-2.2,3.24-10,6.54-21.57,8.69h-.1l-1.31.24-1.37.22h0a161.28,161.28,0,0,1-21.31,1.87h-.72l-1.37,0H76.84l-1.37,0h-.72a160.65,160.65,0,0,1-21.26-1.87H53.4l-1.29-.22-1.4-.25h0c-11.55-2.15-19.38-5.45-21.58-8.68a2.65,2.65,0,0,1-.52-1.45C28.59,575.77,47.8,568.47,79.07,568.47Z"/><path class="cls-16" d="M132.23,621.62a2.31,2.31,0,0,0-2.31,2.3,2.82,2.82,0,0,1-.54,1.55c-2,2.94-8.31,5.81-17.34,7.88a152.58,152.58,0,0,1-33,3.34,153,153,0,0,1-32.94-3.33c-9-2.07-15.35-5-17.33-7.88a2.79,2.79,0,0,1-.55-1.56,2.31,2.31,0,0,0-4.61,0V666.4A7.24,7.24,0,0,0,25,670.59a10.77,10.77,0,0,0,1.48,1.71c3.54,3.43,10.47,6.33,20,8.38a158,158,0,0,0,32.55,3.1,158.33,158.33,0,0,0,32.58-3.1c9.55-2,16.47-4.94,20-8.36a11.63,11.63,0,0,0,1.49-1.74,7.24,7.24,0,0,0,1.37-4.18V623.92A2.3,2.3,0,0,0,132.23,621.62Zm-2.31,44.78a2.66,2.66,0,0,1-.54,1.53,6.56,6.56,0,0,1-.89,1h0c-2.94,2.84-9.42,5.42-18.24,7.27a157.61,157.61,0,0,1-31.17,2.92,157.3,157.3,0,0,1-31.14-2.92c-8.82-1.85-15.3-4.43-18.25-7.28h0a6.67,6.67,0,0,1-.87-1,2.71,2.71,0,0,1-.55-1.55V631.29C32,634,38.07,636.35,46,638.1a157.54,157.54,0,0,0,33.1,3.2,157.73,157.73,0,0,0,33.12-3.2c7.9-1.74,14-4.07,17.73-6.81Z"/><path class="cls-16" d="M132.23,664.13a2.32,2.32,0,0,0-2.31,2.31,2.82,2.82,0,0,1-.54,1.55c-2,2.94-8.31,5.81-17.34,7.88a153.28,153.28,0,0,1-33,3.34,153,153,0,0,1-32.94-3.34c-9-2.07-15.35-4.94-17.33-7.87a2.82,2.82,0,0,1-.55-1.56,2.31,2.31,0,1,0-4.61,0v42.47a7.24,7.24,0,0,0,1.38,4.2,10.77,10.77,0,0,0,1.48,1.71c3.54,3.43,10.47,6.32,20,8.38a158.77,158.77,0,0,0,32.55,3.09,159.07,159.07,0,0,0,32.58-3.09c9.55-2.06,16.47-5,20-8.37a11,11,0,0,0,1.5-1.73,7.25,7.25,0,0,0,1.37-4.19V666.44A2.31,2.31,0,0,0,132.23,664.13Zm-2.31,44.78a2.67,2.67,0,0,1-.54,1.54,6.56,6.56,0,0,1-.89,1h0c-2.94,2.84-9.42,5.42-18.24,7.27a157.65,157.65,0,0,1-31.17,2.91,157.34,157.34,0,0,1-31.14-2.91c-8.82-1.85-15.3-4.44-18.25-7.28h0a6.76,6.76,0,0,1-.87-1,2.67,2.67,0,0,1-.55-1.55v-35.1c3.78,2.73,9.82,5.06,17.72,6.8a156.83,156.83,0,0,0,33.1,3.21,157.73,157.73,0,0,0,33.12-3.2c7.9-1.75,14-4.08,17.73-6.81Z"/><circle class="cls-6" cx="79.09" cy="658.08" r="39.99"/><path class="cls-15" d="M64.59,686.11a30.61,30.61,0,0,0,40.3-9.39,2.35,2.35,0,0,0-.79-3.37h0a2.36,2.36,0,0,0-3.1.73,25.86,25.86,0,1,1-12.26-38.74l-7.66,5.16a2.35,2.35,0,0,0-.64,3.26h0a2.35,2.35,0,0,0,3.27.64l11.13-7.49a2.39,2.39,0,0,0,.73-.79,2.36,2.36,0,0,0,.14-2L91,622.3A2.35,2.35,0,0,0,87.92,621h0a2.35,2.35,0,0,0-1.3,3.06l2.58,6.44a30.56,30.56,0,0,0-24.61,55.62Z"/><text class="cls-18" transform="translate(61.31 666.37)">A<tspan class="cls-19" x="15.06" y="0">C</tspan><tspan class="cls-20" x="29.49" y="0">ID</tspan></text><path class="cls-16" d="M47.55,749.46s-3.25,4.94,3.15,5.94c.62.08,5.26.56,6.46,2.08,0,0-.11-2.62-3.88-4.17S48,751.38,47.55,749.46Z"/><path class="cls-16" d="M50.73,738.83s-9.12,5.56-.53,11.09c1.66,1.07,7.65,4.07,7.47,6.83,0,0,3.63-5.39-1.67-8.76C50.54,744.52,49.18,740.83,50.73,738.83Z"/><path class="cls-16" d="M60.14,744.27c-3.9-4.09-5-6.62-3.32-9.89,0,0-11.66,4.48-.15,12.45,4.13,2.85,3.43,5.75,3.44,5.86C60.76,752,64,748.36,60.14,744.27Z"/><text class="cls-21" transform="translate(66.49 752.36)"><tspan class="cls-22">N</tspan><tspan class="cls-23" x="12.23" y="0">O</tspan><tspan class="cls-24" x="24.46" y="0">D</tspan><tspan x="35.52" y="0">E</tspan></text><path class="cls-6" d="M277.42,565.64c-26.8,0-54.52,6.08-54.52,16.25V707.45a6,6,0,0,0,1.17,3.51,10.13,10.13,0,0,0,1.32,1.54c6.94,6.7,27.85,11.2,52,11.2s45.13-4.5,52.05-11.19a10.24,10.24,0,0,0,1.34-1.55,6.09,6.09,0,0,0,1.16-3.51V581.89C332,571.72,304.24,565.64,277.42,565.64Z"/><path class="cls-16" d="M314.8,567.81c-10.12-2.75-23.75-4.32-37.38-4.32s-27.23,1.57-37.35,4.32C228.22,571,222,575.59,222,581v43.11a7.4,7.4,0,0,0,1.41,4.29,11.68,11.68,0,0,0,1.5,1.74c7.11,6.87,28.23,11.49,52.55,11.49S322.89,637,330,630.15a10.68,10.68,0,0,0,1.5-1.74,7.42,7.42,0,0,0,1.42-4.29V581C332.92,575.59,326.65,571,314.8,567.81Zm12.62,57.73a6,6,0,0,1-.86,1c-6.07,5.87-26.73,10.11-49.14,10.11s-43-4.25-49.11-10.1a7.14,7.14,0,0,1-.86-1,2.54,2.54,0,0,1-.51-1.42v-35.4a27.1,27.1,0,0,0,3.71,2.11l.06,0c.67.33,1.38.64,2.12.95l.18.07c.72.29,1.47.58,2.25.86l.28.09c.66.23,1.34.45,2,.67l.64.2c.66.2,1.34.39,2,.58l.94.25,2,.5,1.19.27c.67.15,1.35.3,2,.43l1.37.27,1.63.29,1.88.31,1.53.24,2,.28,1.74.22,1.59.18c.78.09,1.57.16,2.36.24l1.2.11,2.88.22,1,.07c1,.07,2.09.12,3.16.17l.78,0,3.48.11h.46c1.27,0,2.55,0,3.84,0s2.58,0,3.85,0h.47l3.47-.11.79,0c1.06-.05,2.11-.1,3.15-.17l1-.07c1-.06,1.93-.14,2.87-.22l1.23-.11,2.3-.23,1.65-.19,1.72-.22,2.05-.28,1.51-.23,1.9-.32L307,596l1.37-.27,2-.43,1.18-.27,2.06-.5.9-.25c.73-.19,1.44-.39,2.14-.6l.52-.17q1.1-.33,2.13-.69l.22-.08c.8-.28,1.56-.58,2.3-.88l.12-.05c.77-.31,1.49-.63,2.18-1h0a27.24,27.24,0,0,0,3.72-2.12v35.4A2.47,2.47,0,0,1,327.42,625.54Zm-50-57.07c31.3,0,50.51,7.3,50.51,12.54a2.65,2.65,0,0,1-.51,1.44c-2.2,3.24-10,6.54-21.57,8.69h-.1l-1.31.24-1.37.22h0a161.28,161.28,0,0,1-21.31,1.87H281l-1.37,0h-4.47l-1.37,0h-.72a160.65,160.65,0,0,1-21.26-1.87h-.09l-1.29-.22-1.4-.25h0c-11.55-2.15-19.38-5.45-21.58-8.68a2.73,2.73,0,0,1-.52-1.45C226.94,575.77,246.15,568.47,277.42,568.47Z"/><path class="cls-16" d="M330.58,621.62a2.31,2.31,0,0,0-2.31,2.3,2.82,2.82,0,0,1-.54,1.55c-2,2.94-8.3,5.81-17.34,7.88a164.49,164.49,0,0,1-65.91,0c-9-2.07-15.35-5-17.33-7.88a2.87,2.87,0,0,1-.55-1.56,2.31,2.31,0,0,0-4.61,0V666.4a7.18,7.18,0,0,0,1.39,4.19,10.24,10.24,0,0,0,1.47,1.71c3.55,3.43,10.47,6.33,20,8.38a172.6,172.6,0,0,0,65.13,0c9.55-2,16.47-4.94,20-8.36a11.63,11.63,0,0,0,1.49-1.74,7.26,7.26,0,0,0,1.38-4.18V623.92A2.31,2.31,0,0,0,330.58,621.62Zm-2.31,44.78a2.66,2.66,0,0,1-.54,1.53,6.56,6.56,0,0,1-.89,1h0c-2.94,2.84-9.42,5.42-18.24,7.27a167.66,167.66,0,0,1-62.31,0C237.46,674.4,231,671.82,228,669h0a6.19,6.19,0,0,1-.88-1,2.79,2.79,0,0,1-.55-1.55V631.29c3.78,2.74,9.82,5.06,17.72,6.81a157.6,157.6,0,0,0,33.1,3.2,157.73,157.73,0,0,0,33.12-3.2c7.9-1.74,13.95-4.07,17.73-6.81Z"/><path class="cls-16" d="M330.58,664.13a2.32,2.32,0,0,0-2.31,2.31,2.82,2.82,0,0,1-.54,1.55c-2,2.94-8.3,5.81-17.34,7.88a164.25,164.25,0,0,1-65.91,0c-9-2.07-15.35-4.94-17.33-7.87a2.9,2.9,0,0,1-.55-1.56,2.31,2.31,0,1,0-4.61,0v42.47a7.18,7.18,0,0,0,1.39,4.2,10.24,10.24,0,0,0,1.47,1.71c3.55,3.43,10.47,6.32,20,8.38a173.14,173.14,0,0,0,65.13,0c9.55-2.06,16.47-5,20-8.37a11.54,11.54,0,0,0,1.49-1.73,7.26,7.26,0,0,0,1.38-4.19V666.44A2.32,2.32,0,0,0,330.58,664.13Zm-2.31,44.78a2.67,2.67,0,0,1-.54,1.54,6.56,6.56,0,0,1-.89,1h0c-2.94,2.84-9.42,5.42-18.24,7.27a168.23,168.23,0,0,1-62.31,0c-8.82-1.85-15.3-4.44-18.24-7.28h0a6.27,6.27,0,0,1-.88-1,2.74,2.74,0,0,1-.55-1.55v-35.1c3.78,2.73,9.82,5.06,17.72,6.8a156.9,156.9,0,0,0,33.1,3.21,157.73,157.73,0,0,0,33.12-3.2c7.9-1.75,13.95-4.08,17.73-6.81Z"/><circle class="cls-6" cx="277.44" cy="658.08" r="39.99"/><path class="cls-15" d="M262.94,686.11a30.61,30.61,0,0,0,40.3-9.39,2.35,2.35,0,0,0-.79-3.37h0a2.36,2.36,0,0,0-3.1.73,25.86,25.86,0,1,1-12.26-38.74l-7.66,5.16a2.35,2.35,0,0,0-.64,3.26h0a2.35,2.35,0,0,0,3.27.64l11.13-7.49a2.29,2.29,0,0,0,.73-.79,2.36,2.36,0,0,0,.14-2l-4.73-11.79a2.34,2.34,0,0,0-3.05-1.31h0a2.35,2.35,0,0,0-1.3,3.06l2.58,6.44a30.56,30.56,0,0,0-24.61,55.62Z"/><text class="cls-18" transform="translate(259.67 666.37)">A<tspan class="cls-19" x="15.06" y="0">C</tspan><tspan class="cls-20" x="29.49" y="0">ID</tspan></text><path class="cls-16" d="M245.9,749.46s-3.25,4.94,3.15,5.94c.63.08,5.26.56,6.46,2.08,0,0-.11-2.62-3.88-4.17S246.32,751.38,245.9,749.46Z"/><path class="cls-16" d="M249.08,738.83s-9.12,5.56-.53,11.09c1.66,1.07,7.65,4.07,7.47,6.83,0,0,3.63-5.39-1.67-8.76C248.89,744.52,247.53,740.83,249.08,738.83Z"/><path class="cls-16" d="M258.49,744.27c-3.9-4.09-5-6.62-3.32-9.89,0,0-11.66,4.48-.15,12.45,4.13,2.85,3.44,5.75,3.44,5.86C259.11,752,262.4,748.36,258.49,744.27Z"/><text class="cls-21" transform="translate(264.84 752.36)"><tspan class="cls-22">N</tspan><tspan class="cls-23" x="12.23" y="0">O</tspan><tspan class="cls-24" x="24.46" y="0">D</tspan><tspan x="35.52" y="0">E</tspan></text><path class="cls-6" d="M177.9,594.84c-26.8,0-54.52,6.07-54.52,16.24V736.65a6.08,6.08,0,0,0,1.16,3.5,10.17,10.17,0,0,0,1.33,1.54c6.93,6.7,27.84,11.2,52,11.2s45.12-4.5,52-11.19a9.71,9.71,0,0,0,1.34-1.55,6,6,0,0,0,1.17-3.5V611.08C232.45,600.91,204.71,594.84,177.9,594.84Z"/><path class="cls-16" d="M215.27,597c-10.12-2.75-23.74-4.32-37.37-4.32s-27.24,1.57-37.36,4.32c-11.85,3.21-18.11,7.78-18.11,13.2v43.11a7.45,7.45,0,0,0,1.41,4.29,11.74,11.74,0,0,0,1.51,1.75c7.1,6.86,28.23,11.48,52.55,11.48s45.46-4.62,52.58-11.49a11.75,11.75,0,0,0,1.5-1.74,7.4,7.4,0,0,0,1.41-4.29V610.2C233.39,604.78,227.13,600.21,215.27,597Zm12.63,57.74a7.65,7.65,0,0,1-.86,1c-6.07,5.86-26.73,10.11-49.14,10.11s-43.05-4.25-49.11-10.11a6.59,6.59,0,0,1-.87-1,2.53,2.53,0,0,1-.5-1.42V617.92a28.69,28.69,0,0,0,3.7,2.11l.06,0c.67.32,1.38.63,2.12.94l.19.07c.72.3,1.46.58,2.24.86l.28.09c.66.23,1.35.46,2,.67l.64.2c.66.2,1.35.39,2,.58l.93.25c.67.17,1.35.34,2.05.5l1.19.28,2,.43,1.36.26,1.63.3,1.88.31,1.54.23,2,.28,1.75.22,1.58.18q1.17.13,2.37.24l1.2.11c1,.08,1.91.16,2.88.22l1,.07c1.05.07,2.1.13,3.16.18l.78,0c1.15.05,2.31.09,3.48.11h.46c1.27,0,2.56,0,3.85,0s2.57,0,3.84,0h.47c1.17,0,2.33-.06,3.47-.11l.8,0q1.59-.07,3.15-.18l1-.07c1-.06,1.92-.14,2.87-.22l1.23-.11,2.3-.23,1.65-.19,1.72-.22,2-.28,1.51-.23,1.9-.32,1.62-.29,1.37-.26,2-.43,1.19-.28,2.06-.5.9-.24c.72-.2,1.44-.4,2.13-.61l.52-.16c.73-.23,1.44-.46,2.13-.7l.22-.08c.8-.28,1.57-.57,2.3-.87l.13,0c.76-.32,1.48-.64,2.17-1h0a29.16,29.16,0,0,0,3.73-2.12v35.39A2.6,2.6,0,0,1,227.9,654.74Zm-50-57.08c31.29,0,50.51,7.31,50.51,12.54a2.7,2.7,0,0,1-.52,1.45c-2.19,3.23-10,6.53-21.57,8.68l-.1,0-1.31.23-1.37.23h0a161.44,161.44,0,0,1-21.31,1.87l-.72,0-1.37,0-2.24,0-2.24,0-1.37,0-.72,0a160.65,160.65,0,0,1-21.26-1.87h-.09l-1.29-.22-1.39-.24h0c-11.55-2.15-19.37-5.44-21.57-8.68a2.62,2.62,0,0,1-.52-1.45C127.42,605,146.62,597.66,177.9,597.66Z"/><path class="cls-16" d="M231.05,650.81a2.3,2.3,0,0,0-2.3,2.3,2.77,2.77,0,0,1-.54,1.55c-2,2.94-8.31,5.82-17.35,7.89a153.15,153.15,0,0,1-33,3.33,153.19,153.19,0,0,1-33-3.33c-9-2.07-15.34-4.94-17.33-7.88a2.87,2.87,0,0,1-.55-1.56,2.31,2.31,0,0,0-4.61,0v42.48a7.26,7.26,0,0,0,1.39,4.2,12.32,12.32,0,0,0,1.47,1.71c3.55,3.42,10.47,6.32,20,8.37A158.13,158.13,0,0,0,177.9,713a158.23,158.23,0,0,0,32.57-3.1c9.55-2,16.48-4.94,20-8.36a11.46,11.46,0,0,0,1.49-1.73,7.19,7.19,0,0,0,1.38-4.19V653.11A2.3,2.3,0,0,0,231.05,650.81Zm-2.3,44.78a2.72,2.72,0,0,1-.54,1.54,7,7,0,0,1-.9,1h0c-2.94,2.84-9.41,5.42-18.24,7.27a158.3,158.3,0,0,1-31.16,2.91,157.48,157.48,0,0,1-31.15-2.92c-8.82-1.85-15.3-4.43-18.24-7.27h0a7.34,7.34,0,0,1-.88-1,2.76,2.76,0,0,1-.55-1.55V660.48c3.78,2.74,9.83,5.07,17.72,6.81a157,157,0,0,0,33.11,3.2,157.14,157.14,0,0,0,33.12-3.2c7.9-1.74,13.95-4.07,17.73-6.81Z"/><path class="cls-16" d="M231.05,693.33a2.3,2.3,0,0,0-2.3,2.3,2.82,2.82,0,0,1-.54,1.55c-2,2.94-8.31,5.81-17.35,7.88a153.11,153.11,0,0,1-33,3.34,153.15,153.15,0,0,1-33-3.34c-9-2.07-15.34-4.94-17.33-7.87a2.9,2.9,0,0,1-.55-1.56,2.31,2.31,0,0,0-4.61,0v42.48a7.25,7.25,0,0,0,1.39,4.19,11.26,11.26,0,0,0,1.47,1.71c3.55,3.43,10.47,6.32,20,8.38a158.13,158.13,0,0,0,32.56,3.1,158.23,158.23,0,0,0,32.57-3.1c9.55-2,16.48-4.95,20-8.37a10.55,10.55,0,0,0,1.49-1.73,7.18,7.18,0,0,0,1.38-4.18V695.63A2.3,2.3,0,0,0,231.05,693.33Zm-2.3,44.78a2.66,2.66,0,0,1-.54,1.53,6.12,6.12,0,0,1-.9,1h0c-2.94,2.84-9.41,5.42-18.24,7.27a157.51,157.51,0,0,1-31.16,2.92A157.48,157.48,0,0,1,146.75,748c-8.82-1.85-15.3-4.43-18.24-7.28h0a6.8,6.8,0,0,1-.88-1,2.73,2.73,0,0,1-.55-1.54V703c3.78,2.74,9.83,5.06,17.72,6.81A157.7,157.7,0,0,0,177.9,713a157.8,157.8,0,0,0,33.12-3.2c7.9-1.75,13.95-4.07,17.73-6.81Z"/><circle class="cls-6" cx="177.91" cy="687.27" r="39.99"/><path class="cls-15" d="M163.41,715.3a30.59,30.59,0,0,0,40.3-9.39,2.35,2.35,0,0,0-.78-3.37h0a2.37,2.37,0,0,0-3.11.73,25.86,25.86,0,1,1-12.25-38.74l-7.66,5.16a2.34,2.34,0,0,0-.64,3.26h0a2.35,2.35,0,0,0,3.26.63l11.13-7.49a2.29,2.29,0,0,0,.73-.79,2.33,2.33,0,0,0,.14-2l-4.72-11.79a2.36,2.36,0,0,0-3.06-1.31h0a2.35,2.35,0,0,0-1.31,3.06l2.59,6.45a30.55,30.55,0,0,0-24.62,55.61Z"/><text class="cls-18" transform="translate(160.14 695.56)">A<tspan class="cls-19" x="15.06" y="0">C</tspan><tspan class="cls-20" x="29.49" y="0">ID</tspan></text><path class="cls-16" d="M146.38,778.65s-3.26,4.94,3.14,5.94c.63.08,5.27.57,6.47,2.08,0,0-.11-2.62-3.88-4.16S146.8,780.58,146.38,778.65Z"/><path class="cls-16" d="M149.55,768s-9.11,5.55-.52,11.08c1.65,1.07,7.64,4.07,7.47,6.83,0,0,3.63-5.38-1.68-8.76S148,770,149.55,768Z"/><path class="cls-16" d="M159,773.46c-3.91-4.09-5-6.62-3.32-9.89,0,0-11.67,4.49-.15,12.45,4.12,2.85,3.43,5.76,3.43,5.86C159.58,781.21,162.87,777.56,159,773.46Z"/><text class="cls-21" transform="translate(165.32 781.55)"><tspan class="cls-22">N</tspan><tspan class="cls-23" x="12.23" y="0">O</tspan><tspan class="cls-24" x="24.46" y="0">D</tspan><tspan x="35.52" y="0">E</tspan></text></g></g></svg>