<svg xmlns="http://www.w3.org/2000/svg" viewBox="0 0 1169.86 683.87"><defs><style>.cls-1{isolation:isolate;}.cls-2{fill:#777;}.cls-23,.cls-3{fill:#efeeed;}.cls-3{mix-blend-mode:multiply;}.cls-4{fill:#fff;}.cls-5{font-size:26.49px;}.cls-15,.cls-5{fill:#020202;font-family:MavenProMedium, Maven Pro;}.cls-6{letter-spacing:-0.02em;}.cls-7{letter-spacing:-0.02em;}.cls-8{letter-spacing:-0.03em;}.cls-9{letter-spacing:-0.02em;}.cls-10{letter-spacing:0em;}.cls-11{letter-spacing:-0.01em;}.cls-12{letter-spacing:-0.01em;}.cls-13{letter-spacing:-0.02em;}.cls-14{fill:#e5282a;}.cls-15{font-size:37.56px;letter-spacing:-0.02em;}.cls-16{letter-spacing:-0.01em;}.cls-17{letter-spacing:0em;}.cls-18{letter-spacing:-0.01em;}.cls-19{letter-spacing:0em;}.cls-20{letter-spacing:-0.01em;}.cls-21{letter-spacing:0em;}.cls-22{fill:#575656;}.cls-24{fill:#e52529;}</style></defs><g class="cls-1"><g id="Capa_1" data-name="Capa 1"><path class="cls-2" d="M631.9,523.91,588.84,567a3.92,3.92,0,0,1-5.55-5.55l43.06-43a3.92,3.92,0,0,1,5.55,5.54Z"/><path class="cls-2" d="M631.65,544.51a3.85,3.85,0,0,0,1.13-2.47L634.51,520a3.92,3.92,0,0,0-4.21-4.21l-22.08,1.73a3.92,3.92,0,1,0,.61,7.82l17.5-1.37L625,541.44a3.92,3.92,0,0,0,6.69,3.07Z"/><path class="cls-2" d="M110.18,455.38V564.2a3.92,3.92,0,0,0,7.84,0V455.38a3.92,3.92,0,1,0-7.84,0Z"/><path class="cls-2" d="M114.1,560.27H586.18a3.93,3.93,0,0,1,0,7.85H114.1a3.93,3.93,0,0,1,0-7.85Z"/><rect class="cls-3" x="16.37" y="300.53" width="188.52" height="117.89" rx="5.19"/><path class="cls-4" d="M110.63,373.83a2.75,2.75,0,0,1-1.38-.37L68.34,363.6A2.75,2.75,0,0,1,67,361.21V335.3a2.78,2.78,0,0,1,1.39-2.4L109.25,324a2.79,2.79,0,0,1,2.77,0l40.91,8.86a2.77,2.77,0,0,1,1.38,2.4v25.91a2.74,2.74,0,0,1-1.38,2.39L112,373.46A2.76,2.76,0,0,1,110.63,373.83Z"/><path class="cls-2" d="M110.63,375.69c-.48,0-42.91-10-42.91-10a2.81,2.81,0,0,1-1.41-2.43v-30a2.81,2.81,0,0,1,1.41-2.43s42.43-9.08,42.91-9.08,42.92,9.08,42.92,9.08a2.8,2.8,0,0,1,1.4,2.43v30a2.8,2.8,0,0,1-1.4,2.43S111.12,375.69,110.63,375.69ZM71.94,361.6l38.69,8,38.7-8V334.86l-38.7-8.39-38.69,8.39Z"/><path class="cls-2" d="M110.63,346.31a2.82,2.82,0,0,1-1.4-.37l-41.51-8.72a2.81,2.81,0,1,1,2.81-4.87l40.1,7.91,40.11-7.91a2.81,2.81,0,0,1,2.81,4.87L112,345.94A2.83,2.83,0,0,1,110.63,346.31Z"/><path class="cls-2" d="M110.63,373.65a2.81,2.81,0,0,1-2.81-2.81V344.37a2.82,2.82,0,0,1,5.63,0v26.47A2.81,2.81,0,0,1,110.63,373.65Z"/><text class="cls-5" transform="translate(43.74 401.08)">A<tspan class="cls-6" x="17.58" y="0">p</tspan><tspan class="cls-7" x="32.09" y="0">p</tspan><tspan class="cls-8" x="46.58" y="0">l</tspan><tspan class="cls-9" x="53.52" y="0">i</tspan><tspan class="cls-10" x="60.47" y="0">c</tspan><tspan class="cls-11" x="73.02" y="0">a</tspan><tspan class="cls-12" x="86.86" y="0">t</tspan><tspan class="cls-13" x="96.41" y="0">i</tspan><tspan class="cls-12" x="103.63" y="0">o</tspan><tspan x="118.3" y="0">n</tspan></text><path class="cls-2" d="M631.9,185.46,588.84,142.4a3.92,3.92,0,0,0-5.55,5.55L626.35,191a3.92,3.92,0,1,0,5.55-5.55Z"/><path class="cls-2" d="M631.65,164.86a3.85,3.85,0,0,1,1.13,2.47l1.73,22.08a3.9,3.9,0,0,1-4.21,4.21l-22.08-1.73a3.92,3.92,0,1,1,.61-7.82l17.5,1.37L625,167.94a3.92,3.92,0,0,1,6.69-3.08Z"/><path class="cls-2" d="M110.18,254V145.18a3.92,3.92,0,1,1,7.84,0V254a3.92,3.92,0,0,1-7.84,0Z"/><path class="cls-2" d="M114.1,149.1H586.18a3.93,3.93,0,0,0,0-7.85H114.1a3.93,3.93,0,0,0,0,7.85Z"/><circle class="cls-14" cx="645.45" cy="354.46" r="111.93"/><path class="cls-4" d="M602,372S580.9,404,622.35,410.46c4,.52,34.08,3.63,41.83,13.46,0,0-.71-17-25.1-27S604.7,384.45,602,372Z"/><path class="cls-4" d="M622.53,303.22s-59,36-3.41,71.76c10.73,6.92,49.5,26.35,48.36,44.18,0,0,23.49-34.84-10.83-56.66C621.34,340,612.5,316.15,622.53,303.22Z"/><path class="cls-4" d="M683.46,338.41c-25.27-26.49-32.29-42.85-21.49-64.05,0,0-75.5,29.05-1,80.59,26.7,18.46,22.23,37.27,22.25,38C687.47,388.56,708.73,364.91,683.46,338.41Z"/><path class="cls-4" d="M1055.45,216.42c-47.35,0-96.32,10.74-96.32,28.7V467a10.68,10.68,0,0,0,2.06,6.19,18.08,18.08,0,0,0,2.34,2.72c12.25,11.83,49.19,19.78,91.92,19.78s79.72-7.95,92-19.76a17.81,17.81,0,0,0,2.36-2.75,10.63,10.63,0,0,0,2.06-6.18V245.12C1151.82,227.16,1102.82,216.42,1055.45,216.42Z"/><path class="cls-14" d="M1121.48,220.24c-17.89-4.85-42-7.63-66-7.63s-48.12,2.78-66,7.63c-20.93,5.68-32,13.74-32,23.32v76.16a13,13,0,0,0,2.5,7.58,20.08,20.08,0,0,0,2.65,3.08c12.56,12.13,49.88,20.3,92.84,20.3s80.32-8.16,92.89-20.3a20.15,20.15,0,0,0,2.65-3.08,13.09,13.09,0,0,0,2.5-7.58V243.56C1153.49,234,1142.42,225.92,1121.48,220.24Zm22.3,102a11.48,11.48,0,0,1-1.52,1.77c-10.72,10.36-47.22,17.86-86.81,17.86S979.4,334.36,968.69,324a11.4,11.4,0,0,1-1.52-1.77,4.39,4.39,0,0,1-.9-2.52V257.19a47.78,47.78,0,0,0,6.54,3.73l.11.05c1.19.57,2.43,1.13,3.75,1.67l.32.13c1.27.52,2.59,1,4,1.51l.5.17c1.16.41,2.37.8,3.6,1.19l1.13.35q1.75.52,3.6,1l1.64.44c1.18.31,2.39.6,3.62.89l2.1.48c1.18.26,2.38.51,3.6.76l2.41.46,2.88.53,3.32.55,2.72.41c1.17.17,2.36.34,3.55.49q1.53.21,3.09.39l2.8.32,4.18.43,2.12.19c1.68.15,3.37.28,5.09.39l1.82.13q2.77.17,5.58.3l1.39.06c2,.08,4.07.15,6.14.2h.82c2.24.05,4.51.08,6.79.08s4.54,0,6.79-.08h.83q3.11-.07,6.13-.2l1.41-.06c1.87-.09,3.73-.19,5.56-.3l1.84-.13c1.7-.11,3.4-.24,5.07-.39l2.17-.2c1.37-.13,2.72-.26,4.06-.41,1-.1,2-.22,2.92-.33l3-.38c1.22-.16,2.42-.33,3.62-.51l2.67-.4,3.36-.56,2.86-.52,2.42-.46c1.22-.25,2.42-.5,3.6-.76l2.09-.48c1.24-.29,2.46-.59,3.65-.9l1.58-.42c1.29-.35,2.55-.7,3.77-1.07l.92-.29c1.3-.4,2.55-.81,3.77-1.24l.39-.13c1.41-.5,2.76-1,4.06-1.55l.22-.09c1.35-.55,2.62-1.12,3.84-1.7h0a49.45,49.45,0,0,0,6.58-3.75v62.53A4.39,4.39,0,0,1,1143.78,322.24Zm-88.33-100.83c55.28,0,89.23,12.9,89.23,22.15a4.75,4.75,0,0,1-.91,2.56c-3.87,5.71-17.7,11.54-38.11,15.33l-.17,0-2.32.41-2.42.4h0a286.79,286.79,0,0,1-37.64,3.32l-1.28,0-2.41,0q-2,0-4,0c-1.33,0-2.64,0-4,0l-2.42,0-1.27,0a285.75,285.75,0,0,1-37.56-3.31l-.16,0-2.28-.38-2.47-.44h0c-20.41-3.79-34.23-9.62-38.12-15.33a4.69,4.69,0,0,1-.92-2.57C966.27,234.31,1000.2,221.41,1055.45,221.41Z"/><path class="cls-14" d="M1149.36,315.3a4.08,4.08,0,0,0-4.08,4.08,5,5,0,0,1-1,2.73c-3.51,5.19-14.68,10.27-30.64,13.93-16.58,3.8-37.27,5.89-58.24,5.89s-41.62-2.09-58.2-5.89c-16-3.66-27.11-8.73-30.62-13.91a5,5,0,0,1-1-2.75,4.07,4.07,0,1,0-8.14,0v75a12.77,12.77,0,0,0,2.45,7.42,19.17,19.17,0,0,0,2.6,3c6.27,6,18.5,11.17,35.37,14.8,16.63,3.58,36.52,5.47,57.51,5.47s40.91-1.89,57.55-5.47c16.87-3.63,29.1-8.74,35.36-14.78a20.34,20.34,0,0,0,2.64-3.06,12.8,12.8,0,0,0,2.43-7.4v-75A4.08,4.08,0,0,0,1149.36,315.3Zm-4.08,79.11a4.77,4.77,0,0,1-1,2.72,11.38,11.38,0,0,1-1.58,1.83l0,0c-5.19,5-16.64,9.58-32.23,12.85-15.84,3.31-35.39,5.14-55,5.14s-39.18-1.83-55-5.15c-15.58-3.26-27-7.83-32.23-12.85l0,0a11.89,11.89,0,0,1-1.55-1.8,4.82,4.82,0,0,1-1-2.74v-62c6.68,4.83,17.36,8.94,31.31,12,16.76,3.7,37,5.66,58.48,5.66s41.74-2,58.51-5.66c14-3.08,24.64-7.19,31.32-12Z"/><path class="cls-14" d="M1149.36,390.41a4.08,4.08,0,0,0-4.08,4.08,5,5,0,0,1-1,2.73c-3.51,5.2-14.68,10.27-30.64,13.93-16.58,3.8-37.27,5.89-58.24,5.89s-41.62-2.09-58.2-5.89c-16-3.66-27.11-8.73-30.62-13.91a5,5,0,0,1-1-2.75,4.07,4.07,0,1,0-8.14,0v75a12.76,12.76,0,0,0,2.45,7.41,19.17,19.17,0,0,0,2.6,3c6.27,6.05,18.5,11.17,35.37,14.8,16.63,3.58,36.52,5.47,57.51,5.47s40.91-1.89,57.55-5.47c16.87-3.63,29.1-8.74,35.36-14.78a20.92,20.92,0,0,0,2.64-3.06,12.8,12.8,0,0,0,2.43-7.39v-75A4.08,4.08,0,0,0,1149.36,390.41Zm-4.08,79.12a4.77,4.77,0,0,1-1,2.71,11.38,11.38,0,0,1-1.58,1.83l0,0c-5.19,5-16.64,9.58-32.23,12.85-15.84,3.32-35.39,5.14-55,5.14s-39.18-1.83-55-5.15c-15.58-3.26-27-7.83-32.23-12.85l0,0a11.89,11.89,0,0,1-1.55-1.8,4.81,4.81,0,0,1-1-2.73v-62c6.68,4.83,17.36,8.94,31.31,12,16.76,3.7,37,5.66,58.48,5.66s41.74-2,58.51-5.66c14-3.08,24.64-7.19,31.32-12Z"/><text class="cls-15" transform="translate(977.84 547.67)">D<tspan class="cls-16" x="24.63" y="0">a</tspan><tspan class="cls-17" x="44.26" y="0">t</tspan><tspan x="58.22" y="0">a</tspan><tspan class="cls-18" x="77.58" y="0">b</tspan><tspan class="cls-19" x="98.46" y="0">a</tspan><tspan class="cls-20" x="118.32" y="0">s</tspan><tspan class="cls-21" x="134.43" y="0">e</tspan></text><path class="cls-2" d="M468.4,363H221a3.92,3.92,0,1,1,0-7.84H468.4a3.92,3.92,0,1,1,0,7.84Z"/><path class="cls-2" d="M453.66,377.38a3.93,3.93,0,0,0,2.55-.94L473,362.05a3.93,3.93,0,0,0,0-6L456.21,341.7a3.92,3.92,0,1,0-5.1,6l13.34,11.41-13.34,11.41a3.92,3.92,0,0,0,2.55,6.9Z"/><path class="cls-22" d="M242.84,33.12a9.81,9.81,0,0,1-.36-2.8,9.81,9.81,0,0,1,.36-2.8,5.73,5.73,0,0,1,.92-1.92,4.5,4.5,0,0,1,1.39-1.17,5.64,5.64,0,0,1,1.62-.6,8.9,8.9,0,0,1,1.68-.15,10.58,10.58,0,0,1,4,.77v1.68a9.08,9.08,0,0,0-3.76-.82,4.2,4.2,0,0,0-3.33,1.18,5.77,5.77,0,0,0-1,3.83,5.78,5.78,0,0,0,1,3.82,4.21,4.21,0,0,0,3.33,1.19,9.22,9.22,0,0,0,3.76-.81v1.67a10.59,10.59,0,0,1-4,.78,8.87,8.87,0,0,1-1.68-.16,5.64,5.64,0,0,1-1.62-.6A4.5,4.5,0,0,1,243.76,35,5.63,5.63,0,0,1,242.84,33.12Z"/><path class="cls-22" d="M254.64,34.48a6.91,6.91,0,0,1-.41-2.51,6.85,6.85,0,0,1,.41-2.5,3.31,3.31,0,0,1,1.12-1.55,4.78,4.78,0,0,1,1.44-.73,6.32,6.32,0,0,1,3.23,0,4.9,4.9,0,0,1,1.44.73A3.38,3.38,0,0,1,263,29.47a6.85,6.85,0,0,1,.41,2.5,6.91,6.91,0,0,1-.41,2.51A3.34,3.34,0,0,1,261.87,36a4.46,4.46,0,0,1-1.44.73,6,6,0,0,1-3.23,0,4.36,4.36,0,0,1-1.44-.73A3.28,3.28,0,0,1,254.64,34.48Zm1.62-4.3A6,6,0,0,0,256,32a6,6,0,0,0,.22,1.79,2,2,0,0,0,.64,1,2.34,2.34,0,0,0,.86.46,5.11,5.11,0,0,0,2.11,0,2.34,2.34,0,0,0,.86-.46,2,2,0,0,0,.64-1,7.39,7.39,0,0,0,0-3.58,2,2,0,0,0-.64-1,2.17,2.17,0,0,0-.86-.45,4.7,4.7,0,0,0-2.11,0,2.17,2.17,0,0,0-.86.45A2,2,0,0,0,256.26,30.18Z"/><path class="cls-22" d="M265.84,36.81v-8.9a8.86,8.86,0,0,1,4-1,4.38,4.38,0,0,1,2.59.73,9.73,9.73,0,0,1,3.56-.73,4.06,4.06,0,0,1,2.87,1,3.5,3.5,0,0,1,1,2.68v6.23h-1.77V30.45a2.1,2.1,0,0,0-.41-1.34,2,2,0,0,0-1.6-.52,6.85,6.85,0,0,0-2.6.54,4.09,4.09,0,0,1,.22,1.39v6.29H272V30.47a1.93,1.93,0,0,0-.45-1.35,2.48,2.48,0,0,0-1.8-.49,8,8,0,0,0-2.12.3v7.88Z"/><path class="cls-22" d="M282.71,40.51V30.08a3.24,3.24,0,0,1,.05-.62,3.71,3.71,0,0,1,.29-.78,2.9,2.9,0,0,1,.63-.84,3.51,3.51,0,0,1,1.2-.62,6,6,0,0,1,1.85-.26,5.19,5.19,0,0,1,1,.1,3.76,3.76,0,0,1,1.13.42,3.55,3.55,0,0,1,1.06.87,4.4,4.4,0,0,1,.74,1.49,7.52,7.52,0,0,1,.3,2.23,6.9,6.9,0,0,1-.39,2.46A3.22,3.22,0,0,1,289.53,36a4.68,4.68,0,0,1-1.41.71,5.53,5.53,0,0,1-1.58.22,7.43,7.43,0,0,1-2.06-.29v3.83ZM284.48,35a5.66,5.66,0,0,0,2.06.39,4.39,4.39,0,0,0,1-.11,2.31,2.31,0,0,0,.83-.44,2,2,0,0,0,.62-1,5.71,5.71,0,0,0,.22-1.74,6.64,6.64,0,0,0-.22-1.88,2.11,2.11,0,0,0-.61-1.08,2.29,2.29,0,0,0-.79-.47,3,3,0,0,0-.89-.12c-1.5,0-2.25.48-2.25,1.45Z"/><path class="cls-22" d="M293.43,32.73V27.11h1.78v5.76a2.84,2.84,0,0,0,.56,1.94,2.31,2.31,0,0,0,1.77.62,2.23,2.23,0,0,0,1.75-.62,2.81,2.81,0,0,0,.56-1.94V27.11h1.77v5.62a4.32,4.32,0,0,1-1.07,3.14,4,4,0,0,1-3,1.11,4,4,0,0,1-3-1.11A4.32,4.32,0,0,1,293.43,32.73Z"/><path class="cls-22" d="M303.53,28.63V27.11h1.69V24.24H307v2.87h2.58v1.52H307v5.61c0,.75.47,1.13,1.43,1.13h0a2.13,2.13,0,0,0,1.13-.28V36.7a3.51,3.51,0,0,1-1.33.27h-.05a3.47,3.47,0,0,1-.75-.09,5.06,5.06,0,0,1-.95-.34,2,2,0,0,1-.92-.87,3,3,0,0,1-.36-1.54v-5.5Z"/><path class="cls-22" d="M311.32,32.08c0-3.41,1.42-5.12,4.28-5.12h0a4,4,0,0,1,3.1,1.27,4.84,4.84,0,0,1,1.17,3.41c0,.46,0,.9-.06,1.33h-6.7a2.51,2.51,0,0,0,2.73,2.5,7.18,7.18,0,0,0,3.35-.73v1.61a8.68,8.68,0,0,1-3.39.63h-.05a5.64,5.64,0,0,1-1.58-.21,4.52,4.52,0,0,1-1.4-.71,3.19,3.19,0,0,1-1.08-1.51A7,7,0,0,1,311.32,32.08Zm1.78-.71h5a4.53,4.53,0,0,0-.16-.92,4.63,4.63,0,0,0-.39-.9,2,2,0,0,0-.76-.72,2.41,2.41,0,0,0-1.17-.27,2.32,2.32,0,0,0-1.8.63A3.7,3.7,0,0,0,313.1,31.37Z"/><path class="cls-22" d="M328.5,33.15a4.14,4.14,0,0,1,.54-2.06,5.33,5.33,0,0,1,2.1-1.82,4.4,4.4,0,0,1-1.21-2.57,3,3,0,0,1,3-3,3,3,0,0,1,2.16.85,2.76,2.76,0,0,1,.88,2.08,2.83,2.83,0,0,1-.53,1.74,5.79,5.79,0,0,1-1.75,1.42l2.53,3a7.4,7.4,0,0,0,.5-1.68h1.78a7.89,7.89,0,0,1-1.16,3l2.26,2.71h-2.16l-1.14-1.34a5,5,0,0,1-3.62,1.5h0a4.73,4.73,0,0,1-1.94-.38,3.46,3.46,0,0,1-1.32-1,4.83,4.83,0,0,1-.71-1.23A3.42,3.42,0,0,1,328.5,33.15Zm1.77.05a2.09,2.09,0,0,0,.11.63,2.37,2.37,0,0,0,.36.71,1.86,1.86,0,0,0,.79.65,2.86,2.86,0,0,0,1.26.26,3.41,3.41,0,0,0,2.58-1.17l-3.12-3.76a5.53,5.53,0,0,0-1.13.75,2.09,2.09,0,0,0-.61.77,2.63,2.63,0,0,0-.2.61A2.88,2.88,0,0,0,330.27,33.2ZM332,25.52a1.43,1.43,0,0,0-.43,1.05,3.91,3.91,0,0,0,1.09,1.93,5.78,5.78,0,0,0,1.48-1.05,1.45,1.45,0,0,0,.35-.95,1.34,1.34,0,0,0-.41-1,1.5,1.5,0,0,0-2.08,0Z"/><path class="cls-22" d="M243,61.3v-13h2l4.24,5.6,4.28-5.6h2v13h-1.81V51.07l-4.43,5.81-4.4-5.81V61.3Z"/><path class="cls-22" d="M258.05,58.23A2.56,2.56,0,0,1,259.27,56a6,6,0,0,1,3.35-.81,12.73,12.73,0,0,1,1.77.12,2.43,2.43,0,0,0-.67-1.76,3.08,3.08,0,0,0-2-.53,8.4,8.4,0,0,0-2.68.48V52a8.36,8.36,0,0,1,2.93-.52,4.35,4.35,0,0,1,3.13,1.05,4,4,0,0,1,1.11,3v2.8a3.34,3.34,0,0,1-.06.62,3.89,3.89,0,0,1-.3.79,2.89,2.89,0,0,1-.63.85,3.51,3.51,0,0,1-1.2.62,6.12,6.12,0,0,1-1.85.26,5.92,5.92,0,0,1-1.88-.27,3.53,3.53,0,0,1-1.22-.64,2.71,2.71,0,0,1-.65-.85,3.51,3.51,0,0,1-.3-.82A3.55,3.55,0,0,1,258.05,58.23Zm1.78,0c0,1.1.78,1.64,2.33,1.64h0c1.46,0,2.2-.52,2.2-1.57V56.71a11.43,11.43,0,0,0-1.69-.12,4.78,4.78,0,0,0-.82.07,7.45,7.45,0,0,0-.91.22,1.86,1.86,0,0,0-.82.5A1.2,1.2,0,0,0,259.83,58.21Z"/><path class="cls-22" d="M269.31,60.17a5.4,5.4,0,0,1-1.16-3.72,5.37,5.37,0,0,1,1.16-3.72,4.28,4.28,0,0,1,3.36-1.29,7.77,7.77,0,0,1,2.86.54v1.7a6,6,0,0,0-2.67-.64h0a3,3,0,0,0-2.09.69,3.64,3.64,0,0,0-.76,2.72,6,6,0,0,0,.22,1.78,2.12,2.12,0,0,0,.66,1.05,2.57,2.57,0,0,0,.9.46,4.24,4.24,0,0,0,1.07.11,6.17,6.17,0,0,0,2.71-.62v1.68a7.77,7.77,0,0,1-2.86.54A4.31,4.31,0,0,1,269.31,60.17Z"/><path class="cls-22" d="M277.85,61.3V47.88h1.78v4a7.1,7.1,0,0,1,2.57-.48A3.62,3.62,0,0,1,285,52.52a4.33,4.33,0,0,1,1,3.06V61.3H284.2V55.51a2.36,2.36,0,0,0-.6-1.9,2.45,2.45,0,0,0-1.57-.48,6.65,6.65,0,0,0-2.4.47v7.7Z"/><path class="cls-22" d="M288.81,50.09V48.22h1.89v1.87Zm.06,11.21V51.59h1.77V61.3Z"/><path class="cls-22" d="M293.81,61.3V52.42a9.3,9.3,0,0,1,4.13-1,4.12,4.12,0,0,1,2.89,1A3.43,3.43,0,0,1,301.88,55V61.3h-1.82V54.9a2,2,0,0,0-.43-1.35,2.36,2.36,0,0,0-1.76-.49,7.26,7.26,0,0,0-2.29.35V61.3Z"/><path class="cls-22" d="M304.29,56.56c0-3.41,1.42-5.12,4.28-5.12h0a4,4,0,0,1,3.11,1.27,4.89,4.89,0,0,1,1.16,3.41c0,.46,0,.91-.06,1.33h-6.7a2.52,2.52,0,0,0,2.73,2.5,7.1,7.1,0,0,0,3.36-.73v1.61a8.5,8.5,0,0,1-3.39.64h-.06a5.34,5.34,0,0,1-1.58-.22,4.63,4.63,0,0,1-1.4-.71A3.21,3.21,0,0,1,304.68,59,7,7,0,0,1,304.29,56.56Zm1.78-.7h5a4.64,4.64,0,0,0-.17-.93,4.9,4.9,0,0,0-.39-.9,1.93,1.93,0,0,0-.75-.72,2.45,2.45,0,0,0-1.18-.27,2.32,2.32,0,0,0-1.8.63A3.78,3.78,0,0,0,306.07,55.86Z"/><path class="cls-22" d="M322.11,61.3v-13h1.81V59.61h6.43V61.3Z"/><path class="cls-22" d="M331.7,56.56q0-5.12,4.28-5.12h0a4,4,0,0,1,3.11,1.27,4.85,4.85,0,0,1,1.16,3.41c0,.46,0,.91,0,1.33h-6.7a2.51,2.51,0,0,0,2.73,2.5,7.06,7.06,0,0,0,3.35-.73v1.61a8.5,8.5,0,0,1-3.39.64h-.06a5.23,5.23,0,0,1-1.57-.22,4.68,4.68,0,0,1-1.41-.71A3.2,3.2,0,0,1,332.1,59,6.73,6.73,0,0,1,331.7,56.56Zm1.79-.7h5a4,4,0,0,0-.17-.93,4.24,4.24,0,0,0-.38-.9,2,2,0,0,0-.76-.72A2.42,2.42,0,0,0,336,53a2.34,2.34,0,0,0-1.8.63A3.71,3.71,0,0,0,333.49,55.86Z"/><path class="cls-22" d="M342.06,58.23A2.56,2.56,0,0,1,343.27,56a6,6,0,0,1,3.36-.81,12.69,12.69,0,0,1,1.76.12,2.39,2.39,0,0,0-.67-1.76,3.05,3.05,0,0,0-2-.53,8.46,8.46,0,0,0-2.69.48V52a8.4,8.4,0,0,1,2.93-.52,4.38,4.38,0,0,1,3.14,1.05,4,4,0,0,1,1.1,3v2.8a3.34,3.34,0,0,1-.06.62,3.37,3.37,0,0,1-.3.79,2.73,2.73,0,0,1-.63.85,3.33,3.33,0,0,1-1.2.62,6.07,6.07,0,0,1-1.85.26,6,6,0,0,1-1.88-.27,3.47,3.47,0,0,1-1.21-.64,2.74,2.74,0,0,1-.66-.85,3,3,0,0,1-.29-.82A3.55,3.55,0,0,1,342.06,58.23Zm1.77,0c0,1.1.78,1.64,2.33,1.64h0c1.47,0,2.2-.52,2.2-1.57V56.71a11.43,11.43,0,0,0-1.69-.12,4.59,4.59,0,0,0-.81.07,7.58,7.58,0,0,0-.92.22,1.77,1.77,0,0,0-.81.5A1.16,1.16,0,0,0,343.83,58.21Z"/><path class="cls-22" d="M352.68,61.3V52.41a12.82,12.82,0,0,1,4.73-1v1.64a12.31,12.31,0,0,0-3,.4V61.3Z"/><path class="cls-22" d="M359.32,61.3V52.42a9.34,9.34,0,0,1,4.14-1,4.12,4.12,0,0,1,2.89,1,3.46,3.46,0,0,1,1,2.66V61.3h-1.81V54.9a2,2,0,0,0-.44-1.35,2.34,2.34,0,0,0-1.76-.49,7.25,7.25,0,0,0-2.28.35V61.3Z"/><path class="cls-22" d="M370.37,50.09V48.22h1.89v1.87Zm.06,11.21V51.59h1.77V61.3Z"/><path class="cls-22" d="M375.37,61.3V52.42a9.34,9.34,0,0,1,4.14-1,4.12,4.12,0,0,1,2.89,1,3.46,3.46,0,0,1,1,2.66V61.3h-1.81V54.9a2,2,0,0,0-.44-1.35,2.34,2.34,0,0,0-1.76-.49,7.25,7.25,0,0,0-2.28.35V61.3Z"/><path class="cls-22" d="M386,56.37a5.76,5.76,0,0,1,1-3.6,3.65,3.65,0,0,1,3.13-1.35,4.61,4.61,0,0,1,2.83.8A2.67,2.67,0,0,1,394,54.49V61.7a3.87,3.87,0,0,1-.19,1.2,3.31,3.31,0,0,1-.62,1.08,2.85,2.85,0,0,1-1.32.82,6.69,6.69,0,0,1-2.14.3,10,10,0,0,1-2.88-.41V63a9.32,9.32,0,0,0,2.73.41,5.71,5.71,0,0,0,1.51-.16,1.39,1.39,0,0,0,1.08-1,2.75,2.75,0,0,0,.05-.56v-.86a7,7,0,0,1-2,.28,4.12,4.12,0,0,1-3.2-1.23A5,5,0,0,1,386,56.37Zm1.77,0a3.4,3.4,0,0,0,.68,2.51,2.66,2.66,0,0,0,1.86.62,5.1,5.1,0,0,0,2-.37V54.38a1.31,1.31,0,0,0,0-.37,1.63,1.63,0,0,0-.21-.43,1.14,1.14,0,0,0-.65-.42,4.6,4.6,0,0,0-1.22-.14,3.08,3.08,0,0,0-.85.11,2.16,2.16,0,0,0-.74.44,2.11,2.11,0,0,0-.59,1A6.77,6.77,0,0,0,387.76,56.38Z"/><path class="cls-14" d="M270.75,367.55a8.08,8.08,0,1,1,8.07-8.07A8.09,8.09,0,0,1,270.75,367.55Z"/><path class="cls-23" d="M270.75,354.18a5.3,5.3,0,1,1-5.3,5.3,5.3,5.3,0,0,1,5.3-5.3m0-5.55a10.85,10.85,0,1,0,10.85,10.85,10.84,10.84,0,0,0-10.85-10.85Z"/><path class="cls-14" d="M244,152.9a8.07,8.07,0,1,1,8.08-8.07A8.08,8.08,0,0,1,244,152.9Z"/><path class="cls-23" d="M244,139.54a5.3,5.3,0,1,1-5.29,5.29,5.3,5.3,0,0,1,5.29-5.29m0-5.56a10.85,10.85,0,1,0,10.85,10.85A10.85,10.85,0,0,0,244,134Z"/><path class="cls-24" d="M245.12,145.84V72.16a1.13,1.13,0,1,0-2.26,0v73.68a1.13,1.13,0,1,0,2.26,0Z"/><path class="cls-22" d="M261,660l5.18-13H268l5.16,13h-1.95l-1.39-3.64h-5.42L263,660Zm4-5.33h4.12l-2.06-5.38Z"/><path class="cls-22" d="M274.65,656.34a11.07,11.07,0,0,1,0-5.6,5.73,5.73,0,0,1,.93-1.92,4.52,4.52,0,0,1,1.39-1.17,5.58,5.58,0,0,1,1.61-.6,9.05,9.05,0,0,1,1.68-.15,10.78,10.78,0,0,1,4,.77v1.68a9,9,0,0,0-3.76-.82,4.24,4.24,0,0,0-3.33,1.18,7.62,7.62,0,0,0,0,7.65,4.18,4.18,0,0,0,3.33,1.2,9.2,9.2,0,0,0,3.76-.82v1.67a10.59,10.59,0,0,1-4,.78,9.05,9.05,0,0,1-1.68-.15,5.62,5.62,0,0,1-1.61-.61,4.49,4.49,0,0,1-1.39-1.16A5.69,5.69,0,0,1,274.65,656.34Z"/><path class="cls-22" d="M286.77,660v-13h1.81v13Z"/><path class="cls-22" d="M291.93,660v-13h4.13a5.92,5.92,0,0,1,4.54,1.65,8.36,8.36,0,0,1,0,9.67,5.92,5.92,0,0,1-4.54,1.65Zm1.81-1.6h2a4.55,4.55,0,0,0,3.48-1.18,5.23,5.23,0,0,0,1.11-3.7,5.3,5.3,0,0,0-1.11-3.72,4.58,4.58,0,0,0-3.48-1.17h-2Z"/><path class="cls-22" d="M310.16,648.76v-1.69H320.7v1.69h-4.37V660h-1.82V648.76Z"/><path class="cls-22" d="M321.26,660v-8.89a12.86,12.86,0,0,1,4.73-1v1.64a12.68,12.68,0,0,0-2.95.4V660Z"/><path class="cls-22" d="M327.25,657a2.56,2.56,0,0,1,1.22-2.25,6,6,0,0,1,3.35-.81,12.58,12.58,0,0,1,1.76.12,2.39,2.39,0,0,0-.67-1.76,3,3,0,0,0-2-.53,8.46,8.46,0,0,0-2.69.48v-1.51a8.2,8.2,0,0,1,2.94-.53,4.37,4.37,0,0,1,3.13,1.05,4,4,0,0,1,1.1,3v2.8a3.26,3.26,0,0,1-.06.62,3.76,3.76,0,0,1-.29.79,2.8,2.8,0,0,1-.64.85,3.33,3.33,0,0,1-1.2.62,6,6,0,0,1-1.84.26,5.87,5.87,0,0,1-1.88-.27,3.37,3.37,0,0,1-1.22-.64,2.71,2.71,0,0,1-.65-.85,3.51,3.51,0,0,1-.3-.82A3.55,3.55,0,0,1,327.25,657Zm1.78,0c0,1.1.77,1.64,2.33,1.64h0c1.47,0,2.2-.52,2.2-1.57v-1.57a12.81,12.81,0,0,0-1.68-.12,4.78,4.78,0,0,0-.82.07,8,8,0,0,0-.92.22,1.77,1.77,0,0,0-.81.5A1.15,1.15,0,0,0,329,657Z"/><path class="cls-22" d="M338,660v-8.88a9.26,9.26,0,0,1,4.13-1,4.16,4.16,0,0,1,2.89,1,3.43,3.43,0,0,1,1,2.66V660h-1.82v-6.4a1.93,1.93,0,0,0-.44-1.35,2.31,2.31,0,0,0-1.75-.49,7.56,7.56,0,0,0-2.29.35V660Z"/><path class="cls-22" d="M348.45,653.07a2.75,2.75,0,0,1,.85-2,3.6,3.6,0,0,1,2.63-.85,5.79,5.79,0,0,1,2.59.64v1.54a5.64,5.64,0,0,0-2.37-.58c-1.29,0-1.93.41-1.93,1.24a.79.79,0,0,0,.51.68,7.53,7.53,0,0,0,1.24.47,13.59,13.59,0,0,1,1.44.49,2.89,2.89,0,0,1,1.24,1,2.86,2.86,0,0,1-.36,3.71,3.85,3.85,0,0,1-2.73.85,5.77,5.77,0,0,1-2.8-.68v-1.63a5.32,5.32,0,0,0,2.68.71h0a2.53,2.53,0,0,0,1.42-.33,1,1,0,0,0,.49-.86,1.12,1.12,0,0,0-.51-1,4.06,4.06,0,0,0-1.24-.57c-.48-.13-1-.28-1.45-.45a2.93,2.93,0,0,1-1.24-.83A2.28,2.28,0,0,1,348.45,653.07Z"/><path class="cls-22" d="M357,657a2.56,2.56,0,0,1,1.21-2.25,6,6,0,0,1,3.36-.81,12.69,12.69,0,0,1,1.76.12,2.39,2.39,0,0,0-.67-1.76,3.05,3.05,0,0,0-2-.53,8.46,8.46,0,0,0-2.69.48v-1.51a8.19,8.19,0,0,1,2.93-.53,4.38,4.38,0,0,1,3.14,1.05,4,4,0,0,1,1.1,3v2.8a3.26,3.26,0,0,1-.06.62,3.37,3.37,0,0,1-.3.79,2.62,2.62,0,0,1-.63.85,3.33,3.33,0,0,1-1.2.62,6.07,6.07,0,0,1-1.85.26,6,6,0,0,1-1.88-.27,3.31,3.31,0,0,1-1.21-.64,2.74,2.74,0,0,1-.66-.85,3,3,0,0,1-.29-.82A3.55,3.55,0,0,1,357,657Zm1.77,0c0,1.1.78,1.64,2.33,1.64h0c1.47,0,2.2-.52,2.2-1.57v-1.57a13,13,0,0,0-1.69-.12,4.59,4.59,0,0,0-.81.07,7.58,7.58,0,0,0-.92.22,1.77,1.77,0,0,0-.81.5A1.16,1.16,0,0,0,358.77,657Z"/><path class="cls-22" d="M368.25,658.91a6.59,6.59,0,0,1,0-7.44,4.28,4.28,0,0,1,3.37-1.29,7.72,7.72,0,0,1,2.85.54v1.7a6,6,0,0,0-2.66-.64h0a3,3,0,0,0-2.1.69,3.64,3.64,0,0,0-.76,2.72,6.35,6.35,0,0,0,.22,1.78,2.06,2.06,0,0,0,.67,1,2.45,2.45,0,0,0,.89.46,4.27,4.27,0,0,0,1.08.11,6.26,6.26,0,0,0,2.7-.61v1.67a7.72,7.72,0,0,1-2.85.54A4.31,4.31,0,0,1,368.25,658.91Z"/><path class="cls-22" d="M376.11,651.85v-1.51h1.69v-2.88h1.77v2.88h2.58v1.51h-2.58v5.61c0,.76.48,1.13,1.43,1.13h0a2.11,2.11,0,0,0,1.13-.28v1.61a3.47,3.47,0,0,1-1.33.27h0a3.33,3.33,0,0,1-.75-.09,4.77,4.77,0,0,1-1-.33,2.05,2.05,0,0,1-.91-.87,3.05,3.05,0,0,1-.36-1.54v-5.51Z"/><path class="cls-22" d="M384.5,648.84V647h1.89v1.88Zm.05,11.2v-9.7h1.78V660Z"/><path class="cls-22" d="M389.3,657.7a7.86,7.86,0,0,1,0-5,3.34,3.34,0,0,1,1.12-1.54,4.46,4.46,0,0,1,1.44-.73,6,6,0,0,1,3.23,0,4.46,4.46,0,0,1,1.44.73,3.28,3.28,0,0,1,1.12,1.54,7.86,7.86,0,0,1,0,5,3.36,3.36,0,0,1-1.12,1.55,4.63,4.63,0,0,1-1.44.72,6,6,0,0,1-3.23,0,4.63,4.63,0,0,1-1.44-.72A3.43,3.43,0,0,1,389.3,657.7Zm1.62-4.29a6,6,0,0,0-.22,1.79,5.91,5.91,0,0,0,.22,1.78,2,2,0,0,0,.64,1,2.3,2.3,0,0,0,.86.45,5.11,5.11,0,0,0,2.11,0,2.3,2.3,0,0,0,.86-.45,2,2,0,0,0,.64-1,5.91,5.91,0,0,0,.22-1.78,6,6,0,0,0-.22-1.79,2,2,0,0,0-.64-1,2.46,2.46,0,0,0-.86-.45,5.11,5.11,0,0,0-2.11,0,2.46,2.46,0,0,0-.86.45A2,2,0,0,0,390.92,653.41Z"/><path class="cls-22" d="M400.3,660v-8.88a9.29,9.29,0,0,1,4.13-1,4.14,4.14,0,0,1,2.89,1,3.43,3.43,0,0,1,1.05,2.66V660h-1.82v-6.4a2,2,0,0,0-.43-1.35,2.36,2.36,0,0,0-1.76-.49,7.56,7.56,0,0,0-2.29.35V660Z"/><path class="cls-22" d="M410.79,653.07a2.72,2.72,0,0,1,.86-2,3.56,3.56,0,0,1,2.62-.85,5.87,5.87,0,0,1,2.6.64v1.54a5.64,5.64,0,0,0-2.38-.58c-1.29,0-1.93.41-1.93,1.24a.79.79,0,0,0,.52.68,7.39,7.39,0,0,0,1.23.47,13.59,13.59,0,0,1,1.44.49,2.83,2.83,0,0,1,1.24,1,2.86,2.86,0,0,1-.36,3.71,3.85,3.85,0,0,1-2.73.85,5.77,5.77,0,0,1-2.8-.68v-1.63a5.33,5.33,0,0,0,2.69.71h0a2.49,2.49,0,0,0,1.41-.33,1,1,0,0,0,.49-.86,1.13,1.13,0,0,0-.5-1,4.18,4.18,0,0,0-1.24-.57c-.49-.13-1-.28-1.46-.45a2.89,2.89,0,0,1-1.23-.83A2.24,2.24,0,0,1,410.79,653.07Z"/><path class="cls-22" d="M269.43,288.45a3.46,3.46,0,0,1,1.11-2.59A4.77,4.77,0,0,1,274,284.8a7.36,7.36,0,0,1,3.34.79v1.76a5.87,5.87,0,0,0-3.12-.86c-2,0-2.94.65-2.94,2a1.13,1.13,0,0,0,.52.92A4.19,4.19,0,0,0,273,290a16.57,16.57,0,0,1,1.66.61,16.28,16.28,0,0,1,1.67.79,3.54,3.54,0,0,1,1.78,3.14,3.05,3.05,0,0,1-1.24,2.59,5.64,5.64,0,0,1-3.44.94,8.73,8.73,0,0,1-3.86-.93v-1.87a7,7,0,0,0,3.7,1.11c2,0,3-.62,3-1.84a1.92,1.92,0,0,0-.51-1.35,2.9,2.9,0,0,0-1.27-.8l-1.67-.57c-.61-.21-1.16-.42-1.67-.64a3.22,3.22,0,0,1-1.27-1A2.83,2.83,0,0,1,269.43,288.45Z"/><path class="cls-22" d="M280.22,291.42a9.82,9.82,0,0,1,.37-2.79,5.55,5.55,0,0,1,1-1.92,4.81,4.81,0,0,1,1.41-1.16,5.58,5.58,0,0,1,1.61-.6,9.05,9.05,0,0,1,1.68-.15A9.22,9.22,0,0,1,288,285a5.43,5.43,0,0,1,1.6.6,4.81,4.81,0,0,1,1.41,1.16,5.55,5.55,0,0,1,1,1.92,10.76,10.76,0,0,1-.06,5.81,5,5,0,0,1-1.18,2,5.34,5.34,0,0,1-1.59,1.08,6.7,6.7,0,0,1-1.85.48,1.93,1.93,0,0,0,.51,1.33,1.79,1.79,0,0,0,1.42.58v1.41a3.8,3.8,0,0,1-2.66-1,3.05,3.05,0,0,1-1-2.34,7.1,7.1,0,0,1-1.92-.44,5.56,5.56,0,0,1-1.65-1.06,4.72,4.72,0,0,1-1.23-2A9.5,9.5,0,0,1,280.22,291.42Zm2.08-2.22a9.3,9.3,0,0,0,0,4.45,4.44,4.44,0,0,0,.65,1.46,2.94,2.94,0,0,0,1,.84,3.75,3.75,0,0,0,1.13.4,8.46,8.46,0,0,0,1.19.08,8.72,8.72,0,0,0,1.2-.08,3.7,3.7,0,0,0,1.12-.4,2.88,2.88,0,0,0,1-.84,4.06,4.06,0,0,0,.66-1.46,9.65,9.65,0,0,0,0-4.45,4.36,4.36,0,0,0-.65-1.45,2.88,2.88,0,0,0-1-.84,3.8,3.8,0,0,0-1.12-.4,8.66,8.66,0,0,0-1.21-.08,8.3,8.3,0,0,0-1.2.08,3.8,3.8,0,0,0-1.12.4,2.94,2.94,0,0,0-1,.84A4.58,4.58,0,0,0,282.3,289.2Z"/><path class="cls-22" d="M295,297.91V285h1.81v11.27h6.44v1.69Z"/><path class="cls-24" d="M269.62,309.11v51.46a1.13,1.13,0,0,0,2.26,0V309.11a1.13,1.13,0,0,0-2.26,0Z"/><path class="cls-14" d="M262.94,572.25a8.08,8.08,0,1,1,8.07-8.08A8.08,8.08,0,0,1,262.94,572.25Z"/><path class="cls-23" d="M262.94,558.88a5.3,5.3,0,1,1-5.3,5.29,5.29,5.29,0,0,1,5.3-5.29m0-5.56a10.85,10.85,0,1,0,10.85,10.85,10.85,10.85,0,0,0-10.85-10.85Z"/><path class="cls-24" d="M264.07,636.75V563.07a1.13,1.13,0,0,0-2.26,0v73.68a1.13,1.13,0,0,0,2.26,0Z"/><path class="cls-2" d="M924.92,363.4H791.64a3.93,3.93,0,0,1,0-7.85H924.92a3.93,3.93,0,0,1,0,7.85Z"/><path class="cls-2" d="M910.17,377.79a3.91,3.91,0,0,0,2.55-.94l16.84-14.39a3.94,3.94,0,0,0,0-6l-16.84-14.38a3.92,3.92,0,1,0-5.1,6L921,359.48l-13.35,11.4a3.93,3.93,0,0,0,2.55,6.91Z"/><path class="cls-2" d="M801.18,341.16a3.87,3.87,0,0,0-2.55.95L781.79,356.5a3.93,3.93,0,0,0,0,6l16.84,14.39a3.92,3.92,0,1,0,5.1-6l-13.35-11.41,13.35-11.41a3.93,3.93,0,0,0-2.55-6.91Z"/><path class="cls-14" d="M855.16,367.55a8.08,8.08,0,1,1,8.07-8.07A8.08,8.08,0,0,1,855.16,367.55Z"/><path class="cls-23" d="M855.16,354.18a5.3,5.3,0,1,1-5.3,5.3,5.31,5.31,0,0,1,5.3-5.3m0-5.55A10.85,10.85,0,1,0,866,359.48a10.85,10.85,0,0,0-10.85-10.85Z"/></g></g></svg>