<svg id="Capa_1" data-name="Capa 1" xmlns="http://www.w3.org/2000/svg" viewBox="0 0 1006.75 884.09"><defs><style>.cls-1{fill:#e5282a;}.cls-2{fill:#fff;}.cls-3{font-size:113.29px;fill:#1d1d1b;font-family:MavenProMedium, Maven Pro;letter-spacing:-0.01em;}.cls-4{letter-spacing:0.02em;}.cls-5{letter-spacing:0em;}.cls-6{letter-spacing:-0.01em;}.cls-7{letter-spacing:0.02em;}.cls-8{letter-spacing:0em;}</style></defs><circle class="cls-1" cx="503.37" cy="358.77" r="225.07"/><path class="cls-2" d="M416,394.07s-42.4,64.23,40.93,77.3c8.14,1.05,68.52,7.31,84.1,27.08,0,0-1.42-34.13-50.46-54.25S421.44,419.08,416,394.07Z"/><path class="cls-2" d="M457.29,255.75S338.66,328.08,450.45,400C472,414,550,453,547.68,488.87c0,0,47.24-70.05-21.77-113.94C454.91,329.78,437.12,281.75,457.29,255.75Z"/><path class="cls-2" d="M579.81,326.51C529,273.24,514.88,240.35,536.6,197.72c0,0-151.81,58.42-2,162,53.68,37.11,44.7,74.95,44.73,76.34C587.86,427.35,630.62,379.78,579.81,326.51Z"/><text class="cls-3" transform="translate(314.62 726.6)">C<tspan class="cls-4" x="70.37" y="0">L</tspan><tspan class="cls-5" x="133.21" y="0">I</tspan><tspan class="cls-6" x="162.86" y="0">E</tspan><tspan class="cls-7" x="227.53" y="0">N</tspan><tspan class="cls-8" x="313.16" y="0">T</tspan></text></svg>