<svg xmlns="http://www.w3.org/2000/svg" viewBox="0 0 693.18 901.95"><defs><style>.cls-1{isolation:isolate;}.cls-2{fill:#777;}.cls-3{fill:#e5282a;}.cls-4,.cls-5{fill:#efeeed;}.cls-5{mix-blend-mode:multiply;}.cls-6{fill:#010101;}.cls-7{fill:#575656;}.cls-8{fill:#e52529;}.cls-9{fill:#fff;}.cls-10{fill:#020202;}.cls-11{font-size:12.2px;letter-spacing:0em;}.cls-11,.cls-15,.cls-16{fill:#1d1d1b;}.cls-11,.cls-16{font-family:MavenProMedium, Maven Pro;}.cls-12{letter-spacing:-0.01em;}.cls-13{letter-spacing:-0.01em;}.cls-14{letter-spacing:0em;}.cls-16{font-size:19.51px;}.cls-17{letter-spacing:-0.02em;}.cls-18{letter-spacing:-0.02em;}.cls-19{letter-spacing:-0.01em;}.cls-20{letter-spacing:-0.01em;}.cls-21{letter-spacing:-0.01em;}.cls-22{letter-spacing:-0.03em;}.cls-23{letter-spacing:-0.01em;}.cls-24{letter-spacing:-0.01em;}.cls-25{letter-spacing:-0.02em;}.cls-26{letter-spacing:0em;}.cls-27{letter-spacing:-0.02em;}.cls-28{letter-spacing:-0.01em;}.cls-29{letter-spacing:0.03em;}.cls-30{letter-spacing:-0.03em;}.cls-31{letter-spacing:-0.01em;}.cls-32{letter-spacing:-0.02em;}.cls-33{letter-spacing:-0.01em;}</style></defs><g class="cls-1"><g id="Capa_1" data-name="Capa 1"><path class="cls-2" d="M357.44,636.37a2.43,2.43,0,0,1-.58,1.58L348,648.35a2.44,2.44,0,0,1-3.68,0L335.4,638a2.42,2.42,0,1,1,3.68-3.15l7.05,8.24,7-8.24a2.43,2.43,0,0,1,4.27,1.57Z"/><path class="cls-2" d="M348.55,599v46.62a2.42,2.42,0,0,1-4.84,0V599a2.42,2.42,0,0,1,4.84,0Z"/><circle class="cls-3" cx="346.13" cy="616.45" r="6.58"/><path class="cls-4" d="M346.13,612.13a4.32,4.32,0,1,1-4.32,4.32,4.33,4.33,0,0,1,4.32-4.32m0-4.53a8.85,8.85,0,1,0,8.84,8.85,8.85,8.85,0,0,0-8.84-8.85Z"/><path class="cls-2" d="M490.05,636.37a2.43,2.43,0,0,1-.58,1.58l-8.89,10.4a2.44,2.44,0,0,1-3.68,0L468,638a2.42,2.42,0,1,1,3.68-3.15l7.05,8.24,7.05-8.24a2.42,2.42,0,0,1,4.26,1.57Z"/><path class="cls-2" d="M481.22,599v46.62a2.42,2.42,0,1,1-4.84,0V599a2.42,2.42,0,0,1,4.84,0Z"/><path class="cls-2" d="M452.38,576l24.71,24.71a2.42,2.42,0,0,0,3.42-3.43l-24.7-24.71a2.43,2.43,0,0,0-3.43,3.43Z"/><path class="cls-3" d="M478.74,621.59a6.58,6.58,0,1,1,6.58-6.58A6.59,6.59,0,0,1,478.74,621.59Z"/><path class="cls-4" d="M478.74,610.69a4.32,4.32,0,1,1-4.32,4.32,4.33,4.33,0,0,1,4.32-4.32m0-4.52a8.85,8.85,0,1,0,8.85,8.84,8.84,8.84,0,0,0-8.85-8.84Z"/><path class="cls-2" d="M202.21,636.37a2.43,2.43,0,0,0,.58,1.58l8.89,10.4a2.44,2.44,0,0,0,3.68,0l8.89-10.4a2.43,2.43,0,0,0-3.69-3.15l-7,8.24-7.05-8.24a2.42,2.42,0,0,0-4.26,1.57Z"/><path class="cls-2" d="M211,599v46.62a2.43,2.43,0,0,0,4.85,0V599a2.43,2.43,0,0,0-4.85,0Z"/><path class="cls-2" d="M239.88,576l-24.71,24.71a2.43,2.43,0,1,1-3.43-3.43l24.71-24.71a2.43,2.43,0,0,1,3.43,3.43Z"/><circle class="cls-3" cx="225.88" cy="586.65" r="6.58"/><path class="cls-4" d="M225.88,582.33a4.32,4.32,0,1,1-4.31,4.32,4.33,4.33,0,0,1,4.31-4.32m0-4.52a8.85,8.85,0,1,0,8.85,8.84,8.84,8.84,0,0,0-8.85-8.84Z"/><rect class="cls-5" x="96.61" y="90.66" width="485.56" height="123.62" rx="6.39"/><path class="cls-6" d="M274.33,43.08l4.94-12.38H281l4.92,12.38H284l-1.33-3.47h-5.16l-1.33,3.47Zm3.8-5.08h3.93l-2-5.14Z"/><path class="cls-6" d="M287.77,46.6V36.66a3.05,3.05,0,0,1,.06-.6,2.72,2.72,0,0,1,.27-.74,2.63,2.63,0,0,1,.6-.8,3.35,3.35,0,0,1,1.14-.6,5.92,5.92,0,0,1,1.77-.24,5.66,5.66,0,0,1,1,.09A3.73,3.73,0,0,1,294.7,35a4,4,0,0,1,.71,1.42,7.27,7.27,0,0,1,.29,2.13,6.54,6.54,0,0,1-.38,2.35,3.1,3.1,0,0,1-1,1.45,4.72,4.72,0,0,1-1.35.67,5,5,0,0,1-1.5.2,7.1,7.1,0,0,1-2-.27V46.6Zm1.7-5.27a5.34,5.34,0,0,0,2,.37,3.45,3.45,0,0,0,1-.11,2.26,2.26,0,0,0,.8-.41,2,2,0,0,0,.59-1,5.55,5.55,0,0,0,.21-1.66,6.41,6.41,0,0,0-.21-1.79,2.19,2.19,0,0,0-.58-1,2.4,2.4,0,0,0-.76-.44,2.77,2.77,0,0,0-.85-.12c-1.43,0-2.14.46-2.14,1.39Z"/><path class="cls-6" d="M297.94,46.6V36.66a4,4,0,0,1,.05-.6,3.22,3.22,0,0,1,.28-.74,2.63,2.63,0,0,1,.6-.8,3.17,3.17,0,0,1,1.14-.6,5.85,5.85,0,0,1,1.76-.24,5.58,5.58,0,0,1,1,.09,3.69,3.69,0,0,1,1.08.4,3.53,3.53,0,0,1,1,.83,4.18,4.18,0,0,1,.71,1.42,7.28,7.28,0,0,1,.28,2.13,6.55,6.55,0,0,1-.37,2.35,3.11,3.11,0,0,1-1,1.45,4.8,4.8,0,0,1-1.34.67,5.16,5.16,0,0,1-1.51.2,7.15,7.15,0,0,1-2-.27V46.6Zm1.69-5.27a5.38,5.38,0,0,0,2,.37,3.53,3.53,0,0,0,1-.11,2.22,2.22,0,0,0,.79-.41,2,2,0,0,0,.6-1,5.93,5.93,0,0,0,.2-1.66,6.85,6.85,0,0,0-.2-1.79,2.19,2.19,0,0,0-.59-1,2.26,2.26,0,0,0-.75-.44,2.84,2.84,0,0,0-.86-.12c-1.42,0-2.14.46-2.14,1.39Z"/><path class="cls-6" d="M308.44,43.08V30.3h1.69V43.08Z"/><path class="cls-6" d="M313.18,32.39V30.6H315v1.79Zm.06,10.69V33.82h1.69v9.26Z"/><path class="cls-6" d="M318.47,42a5.17,5.17,0,0,1-1.1-3.55,5.17,5.17,0,0,1,1.1-3.55,4.07,4.07,0,0,1,3.21-1.22,7.51,7.51,0,0,1,2.73.51v1.62a5.75,5.75,0,0,0-2.55-.61h0a2.9,2.9,0,0,0-2,.66,3.5,3.5,0,0,0-.72,2.59,5.83,5.83,0,0,0,.21,1.7,2,2,0,0,0,.64,1,2.21,2.21,0,0,0,.85.43,3.92,3.92,0,0,0,1,.11,5.93,5.93,0,0,0,2.58-.59v1.6a7.51,7.51,0,0,1-2.73.51A4.07,4.07,0,0,1,318.47,42Z"/><path class="cls-6" d="M326.12,40.15A2.44,2.44,0,0,1,327.28,38a5.67,5.67,0,0,1,3.2-.77,13.08,13.08,0,0,1,1.68.1,2.28,2.28,0,0,0-.63-1.67,2.9,2.9,0,0,0-1.92-.51,8.21,8.21,0,0,0-2.56.46V34.17a7.89,7.89,0,0,1,2.8-.49,4.16,4.16,0,0,1,3,1,3.76,3.76,0,0,1,1.05,2.87v2.68a3,3,0,0,1-.06.59,3.31,3.31,0,0,1-.28.76,2.76,2.76,0,0,1-.6.8,3.15,3.15,0,0,1-1.15.59,5.54,5.54,0,0,1-1.76.25,5.76,5.76,0,0,1-1.8-.25,3.55,3.55,0,0,1-1.16-.61,2.51,2.51,0,0,1-.62-.82,3.35,3.35,0,0,1-.29-.78A4.18,4.18,0,0,1,326.12,40.15Zm1.69,0c0,1,.75,1.57,2.23,1.57h0c1.39,0,2.09-.5,2.09-1.5V38.7a10.42,10.42,0,0,0-1.61-.11,5.3,5.3,0,0,0-.77.06,7.06,7.06,0,0,0-.88.22,1.73,1.73,0,0,0-.78.47A1.15,1.15,0,0,0,327.81,40.13Z"/><path class="cls-6" d="M335.22,35.27V33.82h1.61V31.08h1.69v2.74H341v1.45h-2.47v5.35c0,.72.46,1.08,1.37,1.08h0a2.06,2.06,0,0,0,1.08-.27V43a3.42,3.42,0,0,1-1.27.25h-.05a3,3,0,0,1-.71-.08,4.17,4.17,0,0,1-.91-.32,2,2,0,0,1-.88-.83,2.86,2.86,0,0,1-.34-1.47V35.27Z"/><path class="cls-6" d="M343.22,32.39V30.6H345v1.79Zm.06,10.69V33.82H345v9.26Z"/><path class="cls-6" d="M347.81,40.85a7.52,7.52,0,0,1,0-4.78,3.31,3.31,0,0,1,1.06-1.48,4.46,4.46,0,0,1,1.38-.69,5.79,5.79,0,0,1,3.09,0,4.31,4.31,0,0,1,1.37.69,3.25,3.25,0,0,1,1.07,1.48,7.52,7.52,0,0,1,0,4.78,3.25,3.25,0,0,1-1.07,1.48,4.53,4.53,0,0,1-1.37.69,6.07,6.07,0,0,1-3.09,0,4.7,4.7,0,0,1-1.38-.69A3.31,3.31,0,0,1,347.81,40.85Zm1.54-4.1a7.41,7.41,0,0,0,0,3.42,2,2,0,0,0,.61,1,2.13,2.13,0,0,0,.83.43,4.65,4.65,0,0,0,2,0,2.21,2.21,0,0,0,.83-.43,2,2,0,0,0,.61-1,7.41,7.41,0,0,0,0-3.42,1.94,1.94,0,0,0-.61-1,2.39,2.39,0,0,0-.83-.44,5.1,5.1,0,0,0-2,0,2.31,2.31,0,0,0-.83.44A1.94,1.94,0,0,0,349.35,36.75Z"/><path class="cls-6" d="M358.31,43.08V34.61a8.72,8.72,0,0,1,3.94-1,3.91,3.91,0,0,1,2.76.91,3.26,3.26,0,0,1,1,2.54v6h-1.73V37a1.86,1.86,0,0,0-.42-1.29,2.22,2.22,0,0,0-1.68-.47,7.2,7.2,0,0,0-2.18.33v7.53Z"/><path class="cls-6" d="M375.52,43.08V30.7h1.73V41.47h6.14v1.61Z"/><path class="cls-6" d="M384.81,40.15A2.44,2.44,0,0,1,386,38a5.71,5.71,0,0,1,3.21-.77,13.3,13.3,0,0,1,1.68.1,2.28,2.28,0,0,0-.64-1.67,2.89,2.89,0,0,0-1.91-.51,8.22,8.22,0,0,0-2.57.46V34.17a7.89,7.89,0,0,1,2.8-.49,4.16,4.16,0,0,1,3,1,3.77,3.77,0,0,1,1.06,2.87v2.68a3,3,0,0,1-.06.59,3.87,3.87,0,0,1-.28.76,2.62,2.62,0,0,1-.61.8,3.1,3.1,0,0,1-1.14.59,5.6,5.6,0,0,1-1.77.25,5.69,5.69,0,0,1-1.79-.25,3.51,3.51,0,0,1-1.17-.61,2.82,2.82,0,0,1-.62-.82,2.86,2.86,0,0,1-.28-.78A3.15,3.15,0,0,1,384.81,40.15Zm1.7,0c0,1,.74,1.57,2.22,1.57h0q2.1,0,2.1-1.5V38.7a10.61,10.61,0,0,0-1.61-.11,5.32,5.32,0,0,0-.78.06,7.53,7.53,0,0,0-.88.22,1.73,1.73,0,0,0-.78.47A1.15,1.15,0,0,0,386.51,40.13Z"/><path class="cls-6" d="M393.82,33.82h1.82l2.49,6.94,2.45-6.94h1.82l-3.81,10.25c-.66,1.77-1.61,2.66-2.87,2.66h0a6,6,0,0,1-1.29-.15V45.05a4.38,4.38,0,0,0,1,.16c.77,0,1.38-.71,1.85-2.14Z"/><path class="cls-6" d="M403.62,38.56c0-3.26,1.36-4.88,4.09-4.88h0a3.82,3.82,0,0,1,3,1.21,4.63,4.63,0,0,1,1.11,3.25c0,.44,0,.86-.05,1.27h-6.4A2.4,2.4,0,0,0,408,41.79a6.84,6.84,0,0,0,3.2-.69v1.54a8.32,8.32,0,0,1-3.24.6h-.05a5.44,5.44,0,0,1-1.5-.2,4.35,4.35,0,0,1-1.34-.68,3,3,0,0,1-1-1.45A6.54,6.54,0,0,1,403.62,38.56Zm1.7-.67h4.76a4.15,4.15,0,0,0-.16-.88,3.55,3.55,0,0,0-.37-.86,1.84,1.84,0,0,0-.72-.69,2.21,2.21,0,0,0-1.12-.26,2.23,2.23,0,0,0-1.72.6A3.52,3.52,0,0,0,405.32,37.89Z"/><path class="cls-6" d="M414,43.08V34.6a12.09,12.09,0,0,1,4.52-.92v1.55a12.75,12.75,0,0,0-2.82.39v7.46Z"/><path class="cls-4" d="M345.47,54.63V114.7a.92.92,0,1,0,1.84,0V54.63a.92.92,0,0,0-1.84,0Z"/><path class="cls-7" d="M550.27,299.41a9.11,9.11,0,0,1,0-4.56,4.69,4.69,0,0,1,.76-1.57,3.84,3.84,0,0,1,1.13-.95,4.64,4.64,0,0,1,1.32-.49,7.43,7.43,0,0,1,1.37-.12,8.63,8.63,0,0,1,3.23.62v1.37a7.46,7.46,0,0,0-3.06-.66,3.46,3.46,0,0,0-2.72,1,6.2,6.2,0,0,0,0,6.23,3.43,3.43,0,0,0,2.72,1,7.31,7.31,0,0,0,3.06-.67v1.36a8.46,8.46,0,0,1-3.23.64,6.64,6.64,0,0,1-1.37-.13,4.36,4.36,0,0,1-1.32-.49A3.7,3.7,0,0,1,551,301,4.69,4.69,0,0,1,550.27,299.41Z"/><path class="cls-7" d="M559.9,300.52a6.29,6.29,0,0,1,0-4.08,2.72,2.72,0,0,1,.91-1.26,3.83,3.83,0,0,1,1.17-.6,5,5,0,0,1,1.32-.17,5,5,0,0,1,1.32.17,4,4,0,0,1,1.18.6,2.77,2.77,0,0,1,.9,1.26,6.29,6.29,0,0,1,0,4.08,2.77,2.77,0,0,1-.9,1.26,3.73,3.73,0,0,1-1.18.59,4.58,4.58,0,0,1-1.32.18,4.63,4.63,0,0,1-1.32-.18,3.59,3.59,0,0,1-1.17-.59A2.72,2.72,0,0,1,559.9,300.52Zm1.32-3.5a6,6,0,0,0,0,2.92,1.67,1.67,0,0,0,.52.85,2.07,2.07,0,0,0,.7.37,3.55,3.55,0,0,0,.86.09,3.49,3.49,0,0,0,.86-.09,2.2,2.2,0,0,0,.71-.37,1.74,1.74,0,0,0,.52-.85,6.35,6.35,0,0,0,0-2.92,1.7,1.7,0,0,0-.52-.85,1.87,1.87,0,0,0-.71-.37,3.49,3.49,0,0,0-.86-.09,3.55,3.55,0,0,0-.86.09,1.77,1.77,0,0,0-.7.37A1.63,1.63,0,0,0,561.22,297Z"/><path class="cls-7" d="M569,302.42v-7.25a7.2,7.2,0,0,1,3.28-.79,3.61,3.61,0,0,1,2.12.59,7.91,7.91,0,0,1,2.9-.59,3.26,3.26,0,0,1,2.33.78,2.83,2.83,0,0,1,.84,2.18v5.08h-1.44v-5.18a1.74,1.74,0,0,0-.34-1.1,1.59,1.59,0,0,0-1.3-.42,5.63,5.63,0,0,0-2.12.44,3.39,3.39,0,0,1,.18,1.13v5.13H574v-5.16a1.57,1.57,0,0,0-.36-1.1,2,2,0,0,0-1.47-.41,6.61,6.61,0,0,0-1.73.24v6.43Z"/><path class="cls-7" d="M582.78,305.44v-8.5a2.21,2.21,0,0,1,.05-.51,2.81,2.81,0,0,1,.23-.64,2.58,2.58,0,0,1,.51-.68,3.06,3.06,0,0,1,1-.51,5.18,5.18,0,0,1,2.37-.13,3.12,3.12,0,0,1,.92.35,2.91,2.91,0,0,1,.86.7,3.75,3.75,0,0,1,.61,1.22,6.22,6.22,0,0,1,.24,1.82,5.63,5.63,0,0,1-.32,2,2.57,2.57,0,0,1-.89,1.24,3.59,3.59,0,0,1-1.14.57,4.37,4.37,0,0,1-1.29.18,6.14,6.14,0,0,1-1.68-.23v3.12Zm1.45-4.51a4.64,4.64,0,0,0,1.68.32,3.34,3.34,0,0,0,.83-.09,2,2,0,0,0,.68-.36,1.7,1.7,0,0,0,.51-.82,4.8,4.8,0,0,0,.17-1.42,5.47,5.47,0,0,0-.17-1.53,1.8,1.8,0,0,0-.5-.89,2,2,0,0,0-.65-.38,2.61,2.61,0,0,0-.72-.1c-1.22,0-1.83.4-1.83,1.19Z"/><path class="cls-7" d="M591.52,299.1v-4.58H593v4.69a2.26,2.26,0,0,0,.46,1.58,2.29,2.29,0,0,0,2.87,0,2.36,2.36,0,0,0,.46-1.59v-4.69h1.44v4.58a3.56,3.56,0,0,1-.87,2.56,3.81,3.81,0,0,1-4.92,0A3.53,3.53,0,0,1,591.52,299.1Z"/><path class="cls-7" d="M599.76,295.75v-1.23h1.38v-2.35h1.44v2.35h2.11v1.23h-2.11v4.58c0,.61.39.92,1.17.92h0a1.77,1.77,0,0,0,.92-.23v1.31a2.79,2.79,0,0,1-1.09.22h0a2.81,2.81,0,0,1-.62-.07,4.81,4.81,0,0,1-.77-.27,1.76,1.76,0,0,1-.75-.71,2.45,2.45,0,0,1-.29-1.26v-4.49Z"/><path class="cls-7" d="M606.1,298.56c0-2.78,1.17-4.17,3.49-4.17h0a3.26,3.26,0,0,1,2.53,1,3.93,3.93,0,0,1,1,2.78c0,.37,0,.73,0,1.08h-5.47a2.05,2.05,0,0,0,2.23,2,5.74,5.74,0,0,0,2.73-.6v1.32a7.07,7.07,0,0,1-2.76.51h0a4.36,4.36,0,0,1-1.28-.17,4,4,0,0,1-1.15-.58,2.63,2.63,0,0,1-.87-1.23A5.51,5.51,0,0,1,606.1,298.56Zm1.46-.57h4.06a3.68,3.68,0,0,0-.13-.75,3.31,3.31,0,0,0-.32-.73,1.56,1.56,0,0,0-.62-.6,2,2,0,0,0-1-.22,1.86,1.86,0,0,0-1.46.52A3,3,0,0,0,607.56,298Z"/><path class="cls-7" d="M620.11,299.44a3.4,3.4,0,0,1,.44-1.68,4.33,4.33,0,0,1,1.72-1.48,3.64,3.64,0,0,1-1-2.1,2.37,2.37,0,0,1,.72-1.74,2.4,2.4,0,0,1,1.76-.72,2.45,2.45,0,0,1,1.76.69,2.27,2.27,0,0,1,.72,1.7,2.31,2.31,0,0,1-.44,1.42,4.76,4.76,0,0,1-1.42,1.15l2.06,2.47a5.78,5.78,0,0,0,.41-1.36h1.45a6.38,6.38,0,0,1-.95,2.42l1.85,2.21h-1.76l-.93-1.09a4.08,4.08,0,0,1-3,1.22h0a3.7,3.7,0,0,1-1.57-.31,2.73,2.73,0,0,1-1.08-.8,4.11,4.11,0,0,1-.58-1A3,3,0,0,1,620.11,299.44Zm1.45,0a1.92,1.92,0,0,0,.08.51,2.48,2.48,0,0,0,.3.58,1.49,1.49,0,0,0,.64.53,2.38,2.38,0,0,0,1,.21,2.78,2.78,0,0,0,2.09-.95l-2.54-3.07a5.23,5.23,0,0,0-.92.61,1.84,1.84,0,0,0-.5.63,2.29,2.29,0,0,0-.16.5A2.81,2.81,0,0,0,621.56,299.48Zm1.37-6.26a1.15,1.15,0,0,0-.35.85,3.16,3.16,0,0,0,.89,1.58,4.92,4.92,0,0,0,1.21-.86A1.2,1.2,0,0,0,625,294a1.11,1.11,0,0,0-.34-.81,1.16,1.16,0,0,0-.85-.33A1.11,1.11,0,0,0,622.93,293.22Z"/><path class="cls-7" d="M550.39,322.38V311.81H552l3.47,4.57,3.48-4.57h1.61v10.57h-1.48v-8.33l-3.61,4.74-3.59-4.74v8.33Z"/><path class="cls-7" d="M562.68,319.88a2.08,2.08,0,0,1,1-1.83,4.89,4.89,0,0,1,2.74-.66,9.54,9.54,0,0,1,1.43.1,2,2,0,0,0-.54-1.44,2.53,2.53,0,0,0-1.63-.43,6.61,6.61,0,0,0-2.19.4v-1.24a6.5,6.5,0,0,1,2.39-.43,3.56,3.56,0,0,1,2.55.86,3.22,3.22,0,0,1,.9,2.45V320a2.73,2.73,0,0,1-.05.5,2.52,2.52,0,0,1-.24.65,2.32,2.32,0,0,1-.52.69,2.69,2.69,0,0,1-1,.51,4.85,4.85,0,0,1-1.5.21,5.06,5.06,0,0,1-1.54-.22,3,3,0,0,1-1-.52,2.28,2.28,0,0,1-.53-.7,2.71,2.71,0,0,1-.24-.66A3.17,3.17,0,0,1,562.68,319.88Zm1.45,0c0,.89.63,1.34,1.9,1.34h0c1.2,0,1.79-.43,1.79-1.29v-1.27a8.85,8.85,0,0,0-1.37-.1,5.43,5.43,0,0,0-.67.05,4.75,4.75,0,0,0-.74.19,1.47,1.47,0,0,0-.67.4A1,1,0,0,0,564.13,319.87Z"/><path class="cls-7" d="M571.86,321.46a5.35,5.35,0,0,1,0-6.06,3.48,3.48,0,0,1,2.74-1,6.42,6.42,0,0,1,2.33.44v1.38a5.05,5.05,0,0,0-2.18-.52h0a2.45,2.45,0,0,0-1.71.57,3,3,0,0,0-.62,2.21,4.7,4.7,0,0,0,.19,1.46,1.65,1.65,0,0,0,.54.85,2.1,2.1,0,0,0,.72.38,3.78,3.78,0,0,0,.88.09,5.07,5.07,0,0,0,2.21-.51v1.37a6.42,6.42,0,0,1-2.33.44A3.48,3.48,0,0,1,571.86,321.46Z"/><path class="cls-7" d="M578.82,322.38V311.45h1.45v3.29a5.82,5.82,0,0,1,2.09-.39,3,3,0,0,1,2.3.88,3.52,3.52,0,0,1,.82,2.5v4.65H584v-4.71a1.9,1.9,0,0,0-.49-1.55,2,2,0,0,0-1.28-.39,5.5,5.5,0,0,0-2,.38v6.27Z"/><path class="cls-7" d="M587.75,313.25v-1.53h1.54v1.53Zm0,9.13v-7.9h1.45v7.9Z"/><path class="cls-7" d="M591.83,322.38v-7.23a7.56,7.56,0,0,1,3.37-.81,3.38,3.38,0,0,1,2.36.78,2.78,2.78,0,0,1,.85,2.17v5.09h-1.48v-5.21a1.6,1.6,0,0,0-.36-1.1,1.88,1.88,0,0,0-1.43-.4,6,6,0,0,0-1.86.28v6.43Z"/><path class="cls-7" d="M600.37,318.52c0-2.78,1.17-4.17,3.49-4.17h0a3.26,3.26,0,0,1,2.53,1,3.93,3.93,0,0,1,1,2.78c0,.37,0,.73,0,1.08h-5.47a2.05,2.05,0,0,0,2.23,2,5.74,5.74,0,0,0,2.73-.6V322a7.07,7.07,0,0,1-2.76.51h0a4.36,4.36,0,0,1-1.28-.17,4,4,0,0,1-1.15-.58,2.63,2.63,0,0,1-.87-1.23A5.51,5.51,0,0,1,600.37,318.52Zm1.46-.57h4.06a3.68,3.68,0,0,0-.13-.75,3.31,3.31,0,0,0-.32-.73,1.56,1.56,0,0,0-.62-.6,2,2,0,0,0-1-.22,1.86,1.86,0,0,0-1.46.52A3,3,0,0,0,601.83,318Z"/><path class="cls-7" d="M614.9,322.38V311.81h1.48V321h5.25v1.37Z"/><path class="cls-7" d="M622.73,318.52q0-4.17,3.49-4.17h0a3.29,3.29,0,0,1,2.54,1,4,4,0,0,1,.94,2.78c0,.37,0,.73,0,1.08H624.2a2.05,2.05,0,0,0,2.23,2,5.74,5.74,0,0,0,2.73-.6V322a7.07,7.07,0,0,1-2.76.51h0a4.36,4.36,0,0,1-1.28-.17,3.84,3.84,0,0,1-1.14-.58,2.58,2.58,0,0,1-.88-1.23A5.53,5.53,0,0,1,622.73,318.52Zm1.45-.57h4.06a3.68,3.68,0,0,0-.13-.75,3.31,3.31,0,0,0-.32-.73,1.6,1.6,0,0,0-.61-.6,2.06,2.06,0,0,0-1-.22,1.87,1.87,0,0,0-1.47.52A3,3,0,0,0,624.18,318Z"/><path class="cls-7" d="M631.17,319.88a2.08,2.08,0,0,1,1-1.83,4.88,4.88,0,0,1,2.73-.66,9.58,9.58,0,0,1,1.44.1,1.92,1.92,0,0,0-.55-1.44,2.51,2.51,0,0,0-1.63-.43,6.66,6.66,0,0,0-2.19.4v-1.24a6.58,6.58,0,0,1,2.39-.43,3.59,3.59,0,0,1,2.56.86,3.22,3.22,0,0,1,.9,2.45V320a2.73,2.73,0,0,1,0,.5,3.6,3.6,0,0,1-.24.65,2.32,2.32,0,0,1-.52.69,2.78,2.78,0,0,1-1,.51,4.92,4.92,0,0,1-1.51.21,5,5,0,0,1-1.53-.22,2.83,2.83,0,0,1-1-.52,2.28,2.28,0,0,1-.53-.7,3.36,3.36,0,0,1-.25-.66A3.15,3.15,0,0,1,631.17,319.88Zm1.44,0c0,.89.64,1.34,1.9,1.34h0c1.19,0,1.79-.43,1.79-1.29v-1.27a8.89,8.89,0,0,0-1.38-.1,4.17,4.17,0,0,0-1.41.24,1.39,1.39,0,0,0-.66.4A1,1,0,0,0,632.61,319.87Z"/><path class="cls-7" d="M639.83,322.38v-7.24a10.48,10.48,0,0,1,3.85-.79v1.33a9.73,9.73,0,0,0-2.41.34v6.36Z"/><path class="cls-7" d="M645.24,322.38v-7.23a7.59,7.59,0,0,1,3.37-.81,3.36,3.36,0,0,1,2.36.78,2.78,2.78,0,0,1,.85,2.17v5.09h-1.48v-5.21a1.6,1.6,0,0,0-.35-1.1,1.92,1.92,0,0,0-1.44-.4,6.12,6.12,0,0,0-1.86.28v6.43Z"/><path class="cls-7" d="M654.25,313.25v-1.53h1.54v1.53Zm0,9.13v-7.9h1.45v7.9Z"/><path class="cls-7" d="M658.33,322.38v-7.23a7.56,7.56,0,0,1,3.37-.81,3.33,3.33,0,0,1,2.35.78,2.79,2.79,0,0,1,.86,2.17v5.09h-1.48v-5.21a1.6,1.6,0,0,0-.36-1.1,1.89,1.89,0,0,0-1.43-.4,6,6,0,0,0-1.86.28v6.43Z"/><path class="cls-7" d="M667,318.37a4.77,4.77,0,0,1,.83-2.94,3,3,0,0,1,2.56-1.09,3.72,3.72,0,0,1,2.31.65,2.19,2.19,0,0,1,.86,1.85v5.88a3,3,0,0,1-.15,1,2.75,2.75,0,0,1-.51.88,2.22,2.22,0,0,1-1.07.67,5.27,5.27,0,0,1-1.75.25,8.48,8.48,0,0,1-2.34-.33v-1.38a7.86,7.86,0,0,0,2.22.33,4.71,4.71,0,0,0,1.24-.13,1.3,1.3,0,0,0,.66-.39,1.34,1.34,0,0,0,.22-.43,2.61,2.61,0,0,0,0-.46V322a5.93,5.93,0,0,1-1.6.22,3.35,3.35,0,0,1-2.61-1A4.08,4.08,0,0,1,667,318.37Zm1.45,0a2.77,2.77,0,0,0,.55,2,2.15,2.15,0,0,0,1.52.51,4.26,4.26,0,0,0,1.6-.3v-3.89a.91.91,0,0,0,0-.3,1.18,1.18,0,0,0-.17-.35.93.93,0,0,0-.53-.34,3.87,3.87,0,0,0-1-.11,2.31,2.31,0,0,0-.69.09,1.71,1.71,0,0,0-.61.36,1.69,1.69,0,0,0-.48.83A5.46,5.46,0,0,0,668.43,318.38Z"/><path class="cls-2" d="M357.52,294.79a2.43,2.43,0,0,1-.58,1.57l-8.89,10.4a2.42,2.42,0,0,1-3.68,0l-8.89-10.4a2.42,2.42,0,0,1,3.68-3.15l7,8.24,7.05-8.24a2.42,2.42,0,0,1,4.26,1.58Z"/><path class="cls-2" d="M348.63,237.26v66.79a2.42,2.42,0,0,1-4.84,0V237.26a2.42,2.42,0,0,1,4.84,0Z"/><path class="cls-2" d="M334.9,246.25a2.43,2.43,0,0,1,.58-1.57l8.89-10.4a2.42,2.42,0,0,1,3.68,0l8.89,10.4a2.42,2.42,0,1,1-3.68,3.15l-7.05-8.24-7,8.24a2.42,2.42,0,0,1-4.26-1.58Z"/><path class="cls-3" d="M346.21,276.25a6.59,6.59,0,1,1,6.58-6.59A6.59,6.59,0,0,1,346.21,276.25Z"/><path class="cls-4" d="M346.21,265.35a4.32,4.32,0,1,1-4.32,4.31,4.32,4.32,0,0,1,4.32-4.31m0-4.53a8.85,8.85,0,1,0,8.85,8.84,8.85,8.85,0,0,0-8.85-8.84Z"/><path class="cls-2" d="M522.81,237.15v34.94a2.43,2.43,0,0,1-4.85,0V237.15a2.43,2.43,0,1,1,4.85,0Z"/><path class="cls-2" d="M478.89,269.66H520.1a2.43,2.43,0,0,1,0,4.85H478.89a2.43,2.43,0,0,1,0-4.85Z"/><path class="cls-2" d="M531.69,246.25a2.43,2.43,0,0,0-.58-1.57l-8.89-10.4a2.42,2.42,0,0,0-3.68,0l-8.89,10.4a2.42,2.42,0,1,0,3.68,3.15l7-8.24,7,8.24a2.42,2.42,0,0,0,3.42.27A2.45,2.45,0,0,0,531.69,246.25Z"/><path class="cls-2" d="M481.31,272.09v25.47a2.42,2.42,0,0,1-4.84,0V272.09a2.42,2.42,0,1,1,4.84,0Z"/><path class="cls-2" d="M455.9,324.11l24.7-24.71a2.42,2.42,0,0,0-3.42-3.42l-24.71,24.7a2.43,2.43,0,0,0,3.43,3.43Z"/><path class="cls-2" d="M468.62,324a2.33,2.33,0,0,1-1.52.7l-13.64,1.07a2.42,2.42,0,0,1-2.6-2.6l1.06-13.64a2.42,2.42,0,1,1,4.83.38l-.84,10.81,10.81-.85a2.43,2.43,0,0,1,1.9,4.13Z"/><circle class="cls-3" cx="478.63" cy="295.87" r="6.58"/><path class="cls-4" d="M478.63,291.55a4.32,4.32,0,1,1-4.32,4.32,4.33,4.33,0,0,1,4.32-4.32m0-4.52a8.85,8.85,0,1,0,8.84,8.84,8.84,8.84,0,0,0-8.84-8.84Z"/><path class="cls-2" d="M169.62,237v34.94a2.42,2.42,0,0,0,4.84,0V237a2.42,2.42,0,0,0-4.84,0Z"/><path class="cls-2" d="M213.53,269.52H172.32a2.42,2.42,0,1,0,0,4.84h41.21a2.42,2.42,0,0,0,0-4.84Z"/><path class="cls-2" d="M160.73,246.11a2.43,2.43,0,0,1,.58-1.58l8.89-10.39a2.42,2.42,0,0,1,3.68,0l8.89,10.39a2.42,2.42,0,1,1-3.68,3.15L172,239.44l-7,8.24a2.42,2.42,0,0,1-4.26-1.57Z"/><path class="cls-2" d="M211.11,271.94v25.48a2.42,2.42,0,1,0,4.84,0V271.94a2.42,2.42,0,1,0-4.84,0Z"/><path class="cls-2" d="M236.52,324l-24.7-24.7a2.43,2.43,0,1,1,3.43-3.43l24.7,24.7a2.43,2.43,0,1,1-3.43,3.43Z"/><path class="cls-2" d="M223.8,323.81a2.45,2.45,0,0,0,1.53.7L239,325.58a2.44,2.44,0,0,0,2.61-2.61l-1.07-13.63a2.42,2.42,0,1,0-4.83.37l.84,10.81-10.81-.84a2.42,2.42,0,0,0-1.9,4.13Z"/><circle class="cls-3" cx="213.79" cy="295.12" r="6.58"/><path class="cls-4" d="M213.79,290.8a4.32,4.32,0,1,1-4.32,4.32,4.33,4.33,0,0,1,4.32-4.32m0-4.53a8.85,8.85,0,1,0,8.85,8.85,8.84,8.84,0,0,0-8.85-8.85Z"/><path class="cls-8" d="M481,297.12H541.1a.92.92,0,1,0,0-1.84H481a.92.92,0,0,0,0,1.84Z"/><path class="cls-7" d="M18.28,299.84l4.22-10.57h1.44l4.2,10.57H26.55l-1.13-3H21l-1.14,3Zm3.25-4.34h3.36l-1.68-4.39Z"/><path class="cls-7" d="M29.39,296.83a9.15,9.15,0,0,1,0-4.57,4.73,4.73,0,0,1,.76-1.56,3.63,3.63,0,0,1,1.13-1,5,5,0,0,1,1.32-.49,7.43,7.43,0,0,1,1.37-.12,8.68,8.68,0,0,1,3.23.63v1.37a7.31,7.31,0,0,0-3.06-.67,3.45,3.45,0,0,0-2.72,1,6.21,6.21,0,0,0,0,6.24,3.41,3.41,0,0,0,2.72,1A7.46,7.46,0,0,0,37.2,298v1.36A8.68,8.68,0,0,1,34,300a7.43,7.43,0,0,1-1.37-.12,4.64,4.64,0,0,1-1.32-.49,3.6,3.6,0,0,1-1.13-1A4.79,4.79,0,0,1,29.39,296.83Z"/><path class="cls-7" d="M39.27,299.84V289.27h1.48v10.57Z"/><path class="cls-7" d="M43.48,299.84V289.27h3.37a4.88,4.88,0,0,1,3.7,1.34,5.59,5.59,0,0,1,1.26,3.95,5.53,5.53,0,0,1-1.26,3.94,4.85,4.85,0,0,1-3.7,1.34Zm1.48-1.3h1.66a3.73,3.73,0,0,0,2.84-1,5.53,5.53,0,0,0,0-6.05,3.73,3.73,0,0,0-2.84-1H45Z"/><path class="cls-7" d="M58.35,290.65v-1.38h8.59v1.38H63.37v9.19H61.89v-9.19Z"/><path class="cls-7" d="M67.39,299.84V292.6a10.33,10.33,0,0,1,3.86-.79v1.33a10.2,10.2,0,0,0-2.41.33v6.37Z"/><path class="cls-7" d="M72.27,297.34a2.09,2.09,0,0,1,1-1.83,4.88,4.88,0,0,1,2.73-.66,11.36,11.36,0,0,1,1.44.09,1.93,1.93,0,0,0-.55-1.43,2.45,2.45,0,0,0-1.63-.43,6.85,6.85,0,0,0-2.19.39v-1.24a6.75,6.75,0,0,1,2.39-.42,3.56,3.56,0,0,1,2.55.85,3.23,3.23,0,0,1,.9,2.46v2.28a2.21,2.21,0,0,1,0,.51,2.48,2.48,0,0,1-.24.64,2.07,2.07,0,0,1-.51.69,2.71,2.71,0,0,1-1,.51,5,5,0,0,1-1.51.21,4.75,4.75,0,0,1-1.53-.22,3,3,0,0,1-1-.51,2.13,2.13,0,0,1-.53-.7,2.36,2.36,0,0,1-.25-.67A3.15,3.15,0,0,1,72.27,297.34Zm1.45,0c0,.9.64,1.34,1.9,1.34h0c1.19,0,1.79-.43,1.79-1.28V296.1a10.32,10.32,0,0,0-1.38-.1,3.85,3.85,0,0,0-.66.06,6.7,6.7,0,0,0-.75.18,1.49,1.49,0,0,0-.67.41A1,1,0,0,0,73.72,297.32Z"/><path class="cls-7" d="M81,299.84V292.6a7.59,7.59,0,0,1,3.37-.81,3.36,3.36,0,0,1,2.36.78,2.8,2.8,0,0,1,.85,2.17v5.1H86.1v-5.21a1.61,1.61,0,0,0-.35-1.1,1.92,1.92,0,0,0-1.44-.41,6.13,6.13,0,0,0-1.86.29v6.43Z"/><path class="cls-7" d="M89.55,294.16a2.29,2.29,0,0,1,.7-1.67,3,3,0,0,1,2.15-.68,4.78,4.78,0,0,1,2.11.51v1.26a4.55,4.55,0,0,0-1.94-.47c-1,0-1.57.33-1.57,1,0,.22.14.4.42.55a4.86,4.86,0,0,0,1,.38c.39.12.78.25,1.17.41a2.26,2.26,0,0,1,1,.79,2.34,2.34,0,0,1-.29,3,3.12,3.12,0,0,1-2.23.69,4.69,4.69,0,0,1-2.28-.55v-1.33a4.38,4.38,0,0,0,2.19.58h0a2.07,2.07,0,0,0,1.16-.27.84.84,0,0,0,.4-.7.92.92,0,0,0-.42-.78,3,3,0,0,0-1-.47c-.39-.11-.79-.23-1.19-.37a2.21,2.21,0,0,1-1-.68A1.77,1.77,0,0,1,89.55,294.16Z"/><path class="cls-7" d="M96.53,297.34a2.08,2.08,0,0,1,1-1.83,4.88,4.88,0,0,1,2.73-.66,11.13,11.13,0,0,1,1.44.09,1.89,1.89,0,0,0-.55-1.43,2.45,2.45,0,0,0-1.63-.43,6.85,6.85,0,0,0-2.19.39v-1.24a6.79,6.79,0,0,1,2.39-.42,3.58,3.58,0,0,1,2.56.85,3.23,3.23,0,0,1,.9,2.46v2.28a2.94,2.94,0,0,1,0,.51,3.55,3.55,0,0,1-.24.64,2.1,2.1,0,0,1-.52.69,2.62,2.62,0,0,1-1,.51,4.92,4.92,0,0,1-1.51.21,4.75,4.75,0,0,1-1.53-.22,3,3,0,0,1-1-.51,2.28,2.28,0,0,1-.53-.7,2.71,2.71,0,0,1-.25-.67A3.12,3.12,0,0,1,96.53,297.34Zm1.44,0c0,.9.64,1.34,1.9,1.34h0c1.19,0,1.79-.43,1.79-1.28V296.1a10.32,10.32,0,0,0-1.38-.1,3.85,3.85,0,0,0-.66.06,6.7,6.7,0,0,0-.75.18,1.4,1.4,0,0,0-.66.41A.94.94,0,0,0,98,297.32Z"/><path class="cls-7" d="M105.7,298.92a5.37,5.37,0,0,1,0-6.07,3.49,3.49,0,0,1,2.74-1,6.15,6.15,0,0,1,2.33.44v1.38a4.87,4.87,0,0,0-2.17-.52h0a2.42,2.42,0,0,0-1.71.56,3,3,0,0,0-.62,2.21,5,5,0,0,0,.18,1.46,1.73,1.73,0,0,0,.54.86,2,2,0,0,0,.73.37,3.78,3.78,0,0,0,.88.09,5.16,5.16,0,0,0,2.2-.5v1.37a6.34,6.34,0,0,1-2.33.43A3.52,3.52,0,0,1,105.7,298.92Z"/><path class="cls-7" d="M112.1,293.17v-1.24h1.38v-2.34h1.45v2.34H117v1.24h-2.1v4.57c0,.61.39.92,1.17.92h0a1.65,1.65,0,0,0,.92-.23v1.31A2.78,2.78,0,0,1,116,300h0a2.72,2.72,0,0,1-.61-.07,3.46,3.46,0,0,1-.78-.27,1.63,1.63,0,0,1-.74-.71,2.45,2.45,0,0,1-.3-1.26v-4.48Z"/><path class="cls-7" d="M119,290.71v-1.54h1.54v1.54Zm0,9.13v-7.91h1.45v7.91Z"/><path class="cls-7" d="M122.86,297.93a6.47,6.47,0,0,1,0-4.08,2.86,2.86,0,0,1,.91-1.26A3.63,3.63,0,0,1,125,292a4.89,4.89,0,0,1,2.63,0,3.63,3.63,0,0,1,1.18.59,2.79,2.79,0,0,1,.91,1.26,6.47,6.47,0,0,1,0,4.08,2.68,2.68,0,0,1-.91,1.26,3.88,3.88,0,0,1-1.18.6,5.17,5.17,0,0,1-2.63,0,3.88,3.88,0,0,1-1.18-.6A2.75,2.75,0,0,1,122.86,297.93Zm1.32-3.5a6.35,6.35,0,0,0,0,2.92,1.7,1.7,0,0,0,.52.85,1.83,1.83,0,0,0,.7.37,4.2,4.2,0,0,0,1.73,0,1.83,1.83,0,0,0,.7-.37,1.63,1.63,0,0,0,.52-.85,6,6,0,0,0,0-2.92,1.67,1.67,0,0,0-.52-.85,2.16,2.16,0,0,0-.7-.37,4.2,4.2,0,0,0-1.73,0,2.16,2.16,0,0,0-.7.37A1.74,1.74,0,0,0,124.18,294.43Z"/><path class="cls-7" d="M131.83,299.84V292.6a7.56,7.56,0,0,1,3.37-.81,3.38,3.38,0,0,1,2.36.78,2.83,2.83,0,0,1,.85,2.17v5.1h-1.48v-5.21a1.57,1.57,0,0,0-.36-1.1,1.89,1.89,0,0,0-1.43-.41,6,6,0,0,0-1.86.29v6.43Z"/><path class="cls-7" d="M140.38,294.16a2.25,2.25,0,0,1,.7-1.67,3,3,0,0,1,2.14-.68,4.79,4.79,0,0,1,2.12.51v1.26a4.59,4.59,0,0,0-1.94-.47c-1.05,0-1.57.33-1.57,1,0,.22.14.4.42.55a4.76,4.76,0,0,0,1,.38c.39.12.79.25,1.18.41a2.32,2.32,0,0,1,1,.79,2.33,2.33,0,0,1-.3,3,3.11,3.11,0,0,1-2.22.69,4.63,4.63,0,0,1-2.28-.55v-1.33a4.32,4.32,0,0,0,2.19.58h0a2,2,0,0,0,1.15-.27.81.81,0,0,0,.4-.7.93.93,0,0,0-.41-.78,3.15,3.15,0,0,0-1-.47c-.4-.11-.79-.23-1.19-.37a2.3,2.3,0,0,1-1-.68A1.81,1.81,0,0,1,140.38,294.16Z"/><path class="cls-8" d="M154.62,296h60.07a.92.92,0,0,0,0-1.84H154.62a.92.92,0,0,0,0,1.84Z"/><path class="cls-7" d="M271.23,268.53a2.79,2.79,0,0,1,.91-2.11,3.89,3.89,0,0,1,2.79-.87,6,6,0,0,1,2.72.64v1.44a4.79,4.79,0,0,0-2.54-.7c-1.6,0-2.4.53-2.4,1.6a.92.92,0,0,0,.42.75,3.48,3.48,0,0,0,1,.51c.41.13.87.3,1.36.5a12.12,12.12,0,0,1,1.35.65,2.86,2.86,0,0,1,1.46,2.55,2.51,2.51,0,0,1-1,2.12,4.54,4.54,0,0,1-2.8.76,7.08,7.08,0,0,1-3.15-.76v-1.52a5.75,5.75,0,0,0,3,.9c1.64,0,2.46-.5,2.47-1.5a1.53,1.53,0,0,0-.42-1.09,2.41,2.41,0,0,0-1-.66l-1.36-.46c-.5-.17-.95-.35-1.36-.53a2.55,2.55,0,0,1-1-.84A2.26,2.26,0,0,1,271.23,268.53Z"/><path class="cls-7" d="M280,271a7.51,7.51,0,0,1,.31-2.27,4.6,4.6,0,0,1,.77-1.57,3.89,3.89,0,0,1,1.15-.94,4.68,4.68,0,0,1,1.32-.5,8,8,0,0,1,2.76,0,4.51,4.51,0,0,1,1.31.5,3.73,3.73,0,0,1,1.14.94,4.43,4.43,0,0,1,.78,1.57,7.51,7.51,0,0,1,.31,2.27,7.89,7.89,0,0,1-.35,2.46,3.9,3.9,0,0,1-1,1.64,4.5,4.5,0,0,1-1.3.89,5.39,5.39,0,0,1-1.51.38,1.57,1.57,0,0,0,.42,1.09,1.49,1.49,0,0,0,1.16.47V279a3.09,3.09,0,0,1-2.17-.78,2.5,2.5,0,0,1-.86-1.91,5.4,5.4,0,0,1-1.56-.36,4.33,4.33,0,0,1-1.35-.86,3.92,3.92,0,0,1-1-1.65A7.61,7.61,0,0,1,280,271Zm1.7-1.81a6.5,6.5,0,0,0-.22,1.81,6.57,6.57,0,0,0,.22,1.82,3.58,3.58,0,0,0,.53,1.19,2.29,2.29,0,0,0,.8.68,3.16,3.16,0,0,0,.91.33,7.16,7.16,0,0,0,1,.07,7,7,0,0,0,1-.07,3.11,3.11,0,0,0,.92-.33,2.42,2.42,0,0,0,.81-.68,3.58,3.58,0,0,0,.54-1.19,7,7,0,0,0,.21-1.82,6.92,6.92,0,0,0-.21-1.81,3.84,3.84,0,0,0-.53-1.18,2.24,2.24,0,0,0-.81-.68,3.21,3.21,0,0,0-.92-.33,6.89,6.89,0,0,0-2,0,3.06,3.06,0,0,0-.91.33,2.29,2.29,0,0,0-.8.68A3.62,3.62,0,0,0,281.73,269.14Z"/><path class="cls-7" d="M292.07,276.25V265.67h1.47v9.2h5.25v1.38Z"/><path class="cls-8" d="M305.15,271.58h42a.92.92,0,1,0,0-1.84h-42a.92.92,0,0,0,0,1.84Z"/><rect class="cls-5" x="102.65" y="676.73" width="473.47" height="131.48" rx="6.39"/><path class="cls-6" d="M239,783.17v-13.6h1.91v5.91h6.51v-5.91h1.86v13.6h-1.86v-5.91h-6.51v5.91Z"/><path class="cls-6" d="M251.87,780a2.66,2.66,0,0,1,1.27-2.35,6.28,6.28,0,0,1,3.52-.85,13.91,13.91,0,0,1,1.85.12,2.51,2.51,0,0,0-.7-1.84,3.14,3.14,0,0,0-2.1-.56,8.69,8.69,0,0,0-2.82.51v-1.6a8.7,8.7,0,0,1,3.07-.54,4.56,4.56,0,0,1,3.29,1.1,4.15,4.15,0,0,1,1.16,3.16V780a2.81,2.81,0,0,1-.07.65,3.28,3.28,0,0,1-.31.84,2.83,2.83,0,0,1-.66.88,3.36,3.36,0,0,1-1.26.65,6,6,0,0,1-1.94.28,6.15,6.15,0,0,1-2-.29,3.79,3.79,0,0,1-1.28-.66,2.89,2.89,0,0,1-.68-.9,3.25,3.25,0,0,1-.31-.86A3.79,3.79,0,0,1,251.87,780Zm1.86,0c0,1.15.81,1.73,2.44,1.73h0c1.54,0,2.31-.55,2.31-1.66v-1.64a12.36,12.36,0,0,0-1.77-.13,5.29,5.29,0,0,0-.86.08,6,6,0,0,0-1,.23,1.85,1.85,0,0,0-.85.52A1.24,1.24,0,0,0,253.73,779.93Z"/><path class="cls-6" d="M262.58,778a7,7,0,0,1,.42-2.57,3.48,3.48,0,0,1,1.14-1.59,4.57,4.57,0,0,1,1.48-.74,6.06,6.06,0,0,1,1.63-.21,8.07,8.07,0,0,1,2.18.3v-4h1.86V780a3.57,3.57,0,0,1-.06.65,4.47,4.47,0,0,1-.31.83,2.72,2.72,0,0,1-.66.88,3.54,3.54,0,0,1-1.25.66,6.18,6.18,0,0,1-1.92.27,6,6,0,0,1-1.13-.1,4.27,4.27,0,0,1-1.18-.45,3.57,3.57,0,0,1-1.1-.9,4.69,4.69,0,0,1-.78-1.57A8,8,0,0,1,262.58,778Zm1.86,0a7.16,7.16,0,0,0,.23,2,2.15,2.15,0,0,0,.64,1.13,2.38,2.38,0,0,0,.82.49,3.38,3.38,0,0,0,1,.13c1.57,0,2.35-.51,2.34-1.52v-5.21a5.72,5.72,0,0,0-2.18-.42,4.24,4.24,0,0,0-1.06.12,2.42,2.42,0,0,0-.87.45,2,2,0,0,0-.65,1.06A6.13,6.13,0,0,0,264.44,778Z"/><path class="cls-6" d="M274,780.72a8.26,8.26,0,0,1,0-5.26,3.62,3.62,0,0,1,1.17-1.62,4.82,4.82,0,0,1,1.52-.76,6.32,6.32,0,0,1,3.38,0,4.82,4.82,0,0,1,1.52.76,3.62,3.62,0,0,1,1.17,1.62,8.26,8.26,0,0,1,0,5.26,3.62,3.62,0,0,1-1.17,1.62,4.82,4.82,0,0,1-1.52.76,6.32,6.32,0,0,1-3.38,0,4.82,4.82,0,0,1-1.52-.76A3.62,3.62,0,0,1,274,780.72Zm1.7-4.5a6.48,6.48,0,0,0-.23,1.87,6.55,6.55,0,0,0,.23,1.88,2.15,2.15,0,0,0,.67,1.09,2.48,2.48,0,0,0,.9.48,5.19,5.19,0,0,0,2.22,0,2.48,2.48,0,0,0,.9-.48A2.15,2.15,0,0,0,281,780a6.55,6.55,0,0,0,.23-1.88,6.48,6.48,0,0,0-.23-1.87,2.13,2.13,0,0,0-.67-1.1,2.44,2.44,0,0,0-.9-.47,5.19,5.19,0,0,0-2.22,0,2.44,2.44,0,0,0-.9.47A2.13,2.13,0,0,0,275.67,776.22Z"/><path class="cls-6" d="M285.51,780.72a8.26,8.26,0,0,1,0-5.26,3.62,3.62,0,0,1,1.17-1.62,4.82,4.82,0,0,1,1.52-.76,6.32,6.32,0,0,1,3.38,0,4.82,4.82,0,0,1,1.52.76,3.62,3.62,0,0,1,1.17,1.62,8.26,8.26,0,0,1,0,5.26,3.62,3.62,0,0,1-1.17,1.62,4.82,4.82,0,0,1-1.52.76,6.32,6.32,0,0,1-3.38,0,4.82,4.82,0,0,1-1.52-.76A3.62,3.62,0,0,1,285.51,780.72Zm1.7-4.5a6.48,6.48,0,0,0-.23,1.87,6.55,6.55,0,0,0,.23,1.88,2.08,2.08,0,0,0,.67,1.09,2.4,2.4,0,0,0,.9.48,5.19,5.19,0,0,0,2.22,0,2.48,2.48,0,0,0,.9-.48,2.15,2.15,0,0,0,.67-1.09,6.55,6.55,0,0,0,.23-1.88,6.48,6.48,0,0,0-.23-1.87,2.13,2.13,0,0,0-.67-1.1,2.44,2.44,0,0,0-.9-.47,5.19,5.19,0,0,0-2.22,0,2.37,2.37,0,0,0-.9.47A2.07,2.07,0,0,0,287.21,776.22Z"/><path class="cls-6" d="M297.09,787V776.11a3.49,3.49,0,0,1,.06-.65,3.36,3.36,0,0,1,.3-.82,2.83,2.83,0,0,1,.66-.88,3.54,3.54,0,0,1,1.25-.65,6.36,6.36,0,0,1,1.94-.27,5.8,5.8,0,0,1,1.11.1,4,4,0,0,1,1.19.44,4,4,0,0,1,1.1.91,4.34,4.34,0,0,1,.79,1.57,8.17,8.17,0,0,1,.31,2.33,7.37,7.37,0,0,1-.41,2.59,3.4,3.4,0,0,1-1.14,1.58,5,5,0,0,1-1.48.75,6.12,6.12,0,0,1-1.66.22A7.72,7.72,0,0,1,299,783v4Zm1.86-5.79a6,6,0,0,0,2.16.41,4.24,4.24,0,0,0,1.08-.12,2.63,2.63,0,0,0,.87-.46,2.16,2.16,0,0,0,.65-1.06,6.23,6.23,0,0,0,.23-1.83,7.29,7.29,0,0,0-.23-2,2.3,2.3,0,0,0-.64-1.14,2.47,2.47,0,0,0-.83-.48,3,3,0,0,0-.94-.13c-1.57,0-2.35.51-2.35,1.52Z"/><path class="cls-9" d="M272.13,698.61c-11.79,0-24,2.67-24,7.14v41a2.68,2.68,0,0,0,.51,1.55,4.34,4.34,0,0,0,.59.67c3,3,12.25,4.93,22.89,4.93S292,752,295,749a3.63,3.63,0,0,0,.59-.69,2.63,2.63,0,0,0,.51-1.54v-41C296.12,701.28,283.92,698.61,272.13,698.61Z"/><path class="cls-2" d="M295.5,702.84c-1.42-1.29-4-2.36-7.19-3.17l-.44-.11-1.46-.32-.36-.08q-.81-.17-1.68-.3c-.72-.12-1.47-.23-2.22-.33l-1.07-.13a79.46,79.46,0,0,0-8.95-.5h0c-12.1,0-24.6,2.74-24.6,7.32h0v42.09a2.71,2.71,0,0,0,.52,1.58,4.67,4.67,0,0,0,.6.7c3.13,3,12.56,5,23.48,5s20.36-2,23.48-5a3.74,3.74,0,0,0,.6-.7,2.73,2.73,0,0,0,.53-1.58V705.22A3.25,3.25,0,0,0,295.5,702.84Zm-44.58,2.31.17-.15.23-.17.24-.16.3-.17.31-.17.39-.18.37-.17.47-.18.44-.17.54-.18.5-.17.62-.18.56-.16c.22-.07.46-.12.69-.18l.62-.16.76-.17.68-.14.83-.16.73-.13.91-.14.77-.12,1-.13.81-.1,1.09-.1.82-.08,1.2-.09.82,0c.46,0,.93,0,1.4-.06l.72,0c.73,0,1.47,0,2.23,0h0q1.14,0,2.22,0l.72,0c.48,0,.95,0,1.41.06l.82,0,1.2.09.83.08,1.08.1.81.1,1,.13.77.12.91.14.73.13.83.16.68.14.76.17.63.16.68.18.57.16.61.18.51.17.53.18.45.17.46.18.38.17.38.18.31.17.31.17.24.16.23.17.17.15a.46.46,0,0,0,.07.07c-2.1,2-10.26,4.16-21.29,4.16s-19.22-2.15-21.26-4.14l0,0Zm42.48,42.16c-2.08,2-10.25,4.16-21.27,4.16s-19.19-2.15-21.3-4.19a.86.86,0,0,1-.13-.14V708.91c4.24,2.23,12.3,3.64,21.43,3.64s17.19-1.41,21.44-3.64v38.23A1.36,1.36,0,0,1,293.4,747.31Z"/><path class="cls-6" d="M352.93,783.31v-13.6h2.16l7.61,10.83V769.71h1.9v13.6h-2.1l-7.67-10.89v10.89Z"/><path class="cls-6" d="M367.53,780.86a8.23,8.23,0,0,1,0-5.25A3.55,3.55,0,0,1,368.7,774a4.91,4.91,0,0,1,1.51-.77,6.08,6.08,0,0,1,1.7-.22,6,6,0,0,1,1.69.22,5,5,0,0,1,1.52.77,3.62,3.62,0,0,1,1.17,1.62,8.23,8.23,0,0,1,0,5.25,3.66,3.66,0,0,1-1.17,1.63,5.16,5.16,0,0,1-1.52.76,6,6,0,0,1-1.69.22,6.08,6.08,0,0,1-1.7-.22,5.11,5.11,0,0,1-1.51-.76A3.58,3.58,0,0,1,367.53,780.86Zm1.69-4.5a6.59,6.59,0,0,0-.22,1.88,6.52,6.52,0,0,0,.22,1.87,2.25,2.25,0,0,0,.67,1.1,2.56,2.56,0,0,0,.91.47,4.38,4.38,0,0,0,1.11.12,4.49,4.49,0,0,0,1.11-.12,2.6,2.6,0,0,0,.9-.47,2.18,2.18,0,0,0,.67-1.1,6.52,6.52,0,0,0,.22-1.87,6.59,6.59,0,0,0-.22-1.88,2.1,2.1,0,0,0-.67-1.09,2.48,2.48,0,0,0-.9-.48,4.49,4.49,0,0,0-1.11-.12,4.38,4.38,0,0,0-1.11.12,2.44,2.44,0,0,0-.91.48A2.17,2.17,0,0,0,369.22,776.36Z"/><path class="cls-6" d="M378.6,773.39a3.62,3.62,0,0,1,1.16-2.72,5,5,0,0,1,3.59-1.11,7.86,7.86,0,0,1,3.51.82v1.85a6.25,6.25,0,0,0-3.28-.9c-2.05,0-3.08.68-3.08,2.06a1.18,1.18,0,0,0,.54,1,4.09,4.09,0,0,0,1.34.66c.53.17,1.11.38,1.74.64a17.66,17.66,0,0,1,1.74.83,3.7,3.7,0,0,1,1.34,1.3,3.64,3.64,0,0,1,.54,2,3.21,3.21,0,0,1-1.31,2.72,5.84,5.84,0,0,1-3.61,1,9.12,9.12,0,0,1-4-1v-2a7.26,7.26,0,0,0,3.88,1.16c2.11,0,3.17-.64,3.18-1.93a2,2,0,0,0-.54-1.41,3,3,0,0,0-1.33-.84l-1.75-.59c-.64-.23-1.22-.45-1.75-.68a3.22,3.22,0,0,1-1.33-1.08A2.94,2.94,0,0,1,378.6,773.39Z"/><path class="cls-6" d="M389.92,776.5a10,10,0,0,1,.39-2.92,5.86,5.86,0,0,1,1-2,5,5,0,0,1,1.48-1.21,5.88,5.88,0,0,1,1.69-.64,9.86,9.86,0,0,1,1.76-.15,10,10,0,0,1,1.79.15,5.78,5.78,0,0,1,1.69.64,5.07,5.07,0,0,1,1.47,1.21,5.86,5.86,0,0,1,1,2,11.23,11.23,0,0,1-.06,6.08,5.24,5.24,0,0,1-1.23,2.12,5.91,5.91,0,0,1-1.67,1.14,6.82,6.82,0,0,1-1.94.49,2,2,0,0,0,.54,1.4,1.89,1.89,0,0,0,1.49.6v1.49a4,4,0,0,1-2.8-1,3.22,3.22,0,0,1-1.1-2.46,7.39,7.39,0,0,1-2-.45,5.62,5.62,0,0,1-1.73-1.12,4.9,4.9,0,0,1-1.29-2.12A9.8,9.8,0,0,1,389.92,776.5Zm2.18-2.32a8.37,8.37,0,0,0-.28,2.32,8.53,8.53,0,0,0,.28,2.34,4.72,4.72,0,0,0,.68,1.54,3.11,3.11,0,0,0,1,.87,3.82,3.82,0,0,0,1.18.42,7.89,7.89,0,0,0,1.25.09,8.11,8.11,0,0,0,1.26-.09,3.82,3.82,0,0,0,1.18-.42,3.25,3.25,0,0,0,1-.87,4.52,4.52,0,0,0,.69-1.54,9,9,0,0,0,.27-2.34,8.8,8.8,0,0,0-.27-2.32,4.76,4.76,0,0,0-.68-1.53,3.07,3.07,0,0,0-1-.88,4.27,4.27,0,0,0-1.18-.41,8,8,0,0,0-1.27-.09,7.75,7.75,0,0,0-1.26.09,4,4,0,0,0-1.17.41,3.14,3.14,0,0,0-1,.88A4.76,4.76,0,0,0,392.1,774.18Z"/><path class="cls-6" d="M405.4,783.31v-13.6h1.9v11.83h6.75v1.77Z"/><path class="cls-9" d="M382.81,698.75c-11.79,0-24,2.67-24,7.15v41a2.62,2.62,0,0,0,.52,1.54,4.32,4.32,0,0,0,.58.68c3.05,2.94,12.25,4.92,22.89,4.92s19.85-2,22.89-4.92a3.9,3.9,0,0,0,.59-.68,2.69,2.69,0,0,0,.52-1.54v-41C406.81,701.42,394.6,698.75,382.81,698.75Z"/><path class="cls-2" d="M406.19,703c-1.43-1.3-4-2.37-7.2-3.18l-.44-.11-1.46-.32-.36-.07c-.54-.11-1.1-.21-1.68-.31s-1.46-.23-2.22-.33l-1.07-.13a79.46,79.46,0,0,0-8.95-.5h0c-12.1,0-24.6,2.74-24.6,7.33h0v42.08a2.77,2.77,0,0,0,.52,1.59,5.12,5.12,0,0,0,.6.69c3.13,3,12.56,5,23.48,5s20.36-2,23.48-5a4.73,4.73,0,0,0,.61-.71,2.79,2.79,0,0,0,.52-1.58V705.37A3.25,3.25,0,0,0,406.19,703Zm-44.59,2.3.17-.15L362,705l.24-.15.3-.18.31-.16.39-.19.37-.16.47-.19.44-.16c.17-.07.35-.13.54-.19l.5-.17.62-.18.56-.16.69-.18.62-.15.76-.17.68-.15.83-.15.73-.14L372,702l.77-.12,1-.12.81-.1,1.09-.11.82-.08,1.2-.08.82-.06,1.4-.06.72,0c.73,0,1.47,0,2.23,0h0c.76,0,1.5,0,2.22,0l.73,0,1.4.06.82.06,1.2.08.83.08,1.08.11.81.1,1,.12.78.12.9.14.73.14.83.15.68.15.76.17.63.15.68.18.57.16.61.18.51.17.53.19.45.16.46.19.38.16.38.19.31.16.31.18.24.15.23.17.17.15.07.08c-2.1,2-10.26,4.15-21.29,4.15s-19.22-2.14-21.26-4.13l0,0Zm42.49,42.16c-2.09,2-10.26,4.16-21.28,4.16s-19.19-2.14-21.3-4.19l-.13-.14V709.06c4.24,2.22,12.31,3.64,21.43,3.64s17.19-1.42,21.44-3.64v38.22Z"/><path class="cls-6" d="M127.28,785v-13.6h5a5.53,5.53,0,0,1,3.59,1.06,3.7,3.7,0,0,1,1.31,3,3.85,3.85,0,0,1-.87,2.65,4.37,4.37,0,0,1-2.17,1.35l3.61,5.49h-2.24l-3.29-5.18h-3V785Zm1.9-6.95h3a3.3,3.3,0,0,0,2.42-.69,2.52,2.52,0,0,0,.65-1.79c0-1.67-1-2.5-3.16-2.5h-2.95Z"/><path class="cls-6" d="M140.2,785v-13.6h4.34a6.18,6.18,0,0,1,4.75,1.73,8.77,8.77,0,0,1,0,10.14,6.23,6.23,0,0,1-4.76,1.73Zm1.9-1.68h2.14a4.8,4.8,0,0,0,3.65-1.23,5.54,5.54,0,0,0,1.16-3.88,5.6,5.6,0,0,0-1.16-3.91,4.8,4.8,0,0,0-3.65-1.23H142.1Z"/><path class="cls-6" d="M153.94,785v-13.6h4.71a6.59,6.59,0,0,1,2.33.36,2.87,2.87,0,0,1,1.38,1A3.79,3.79,0,0,1,163,774a4.17,4.17,0,0,1,.17,1.19,3.46,3.46,0,0,1-.17,1.09,2.84,2.84,0,0,1-.39.8,4,4,0,0,1-.48.51,1.67,1.67,0,0,1-.42.3l-.15.08.25.11a4.36,4.36,0,0,1,.58.32,4.2,4.2,0,0,1,.72.59,3.18,3.18,0,0,1,.59.91,3,3,0,0,1,.27,1.28,4,4,0,0,1-.84,2.5,3.07,3.07,0,0,1-1.5,1A7.47,7.47,0,0,1,159,785Zm1.9-7.83h2.79a3.66,3.66,0,0,0,1.93-.42,1.73,1.73,0,0,0,.66-1.58,1.84,1.84,0,0,0-.7-1.64,3.78,3.78,0,0,0-2.07-.46h-2.61Zm0,6.15,3.08,0a4.14,4.14,0,0,0,2.33-.52,2,2,0,0,0,.76-1.76,1.8,1.8,0,0,0-.83-1.72,5.16,5.16,0,0,0-2.4-.46h-2.94Z"/><path class="cls-6" d="M166.68,785v-13.6h2.06l4.46,5.87,4.48-5.87h2.06V785h-1.9V774.3l-4.64,6.1-4.62-6.1V785Z"/><path class="cls-6" d="M182.73,775.1a3.63,3.63,0,0,1,1.16-2.71,5,5,0,0,1,3.6-1.12,7.67,7.67,0,0,1,3.5.83v1.84a6.25,6.25,0,0,0-3.28-.9c-2.05,0-3.08.69-3.08,2.06a1.21,1.21,0,0,0,.54,1,4.4,4.4,0,0,0,1.34.65c.53.17,1.11.38,1.74.64a15,15,0,0,1,1.75.84,3.7,3.7,0,0,1,1.87,3.28,3.22,3.22,0,0,1-1.3,2.73,5.93,5.93,0,0,1-3.61,1,9.21,9.21,0,0,1-4.05-1v-2a7.36,7.36,0,0,0,3.88,1.15c2.11,0,3.17-.64,3.18-1.93a2,2,0,0,0-.54-1.4,3.08,3.08,0,0,0-1.33-.85l-1.75-.59c-.63-.22-1.22-.45-1.75-.68a3.22,3.22,0,0,1-1.33-1.08A2.92,2.92,0,0,1,182.73,775.1Z"/><path class="cls-9" d="M159.24,700.46c-11.79,0-24,2.68-24,7.15v41a2.6,2.6,0,0,0,.52,1.54,3.91,3.91,0,0,0,.58.68c3.05,2.95,12.25,4.93,22.89,4.93s19.85-2,22.89-4.92a4,4,0,0,0,.59-.69,2.67,2.67,0,0,0,.52-1.54v-41C183.24,703.14,171,700.46,159.24,700.46Z"/><path class="cls-2" d="M182.62,704.7c-1.43-1.29-4-2.36-7.2-3.17l-.44-.11c-.47-.12-1-.22-1.46-.33l-.36-.07-1.67-.31c-.73-.12-1.47-.23-2.23-.33l-1.07-.13a79.46,79.46,0,0,0-8.95-.5h0c-12.09,0-24.6,2.74-24.6,7.33h0v42.09a2.71,2.71,0,0,0,.52,1.58,4.57,4.57,0,0,0,.6.69c3.13,3,12.56,5.06,23.48,5.06s20.36-2,23.48-5a4.64,4.64,0,0,0,.61-.7,2.79,2.79,0,0,0,.52-1.58V707.08A3.27,3.27,0,0,0,182.62,704.7ZM138,707l.17-.14a1.37,1.37,0,0,1,.23-.17l.24-.16.3-.18.31-.16.39-.18.38-.17.46-.19.44-.16.54-.19.51-.16c.19-.07.4-.13.61-.19l.56-.16.69-.18.62-.15.76-.17.68-.14.83-.16.73-.13.91-.15.77-.11,1-.13.81-.1,1.09-.11.82-.07c.39,0,.8-.06,1.2-.09l.82-.05q.69,0,1.41-.06l.71,0c.73,0,1.47,0,2.23,0h0c.76,0,1.5,0,2.23,0l.72,0c.47,0,.94,0,1.4.06l.82.05c.4,0,.81,0,1.2.09l.83.07,1.08.11.81.1,1,.13.78.11.9.15.74.13.82.16.68.14.76.17.63.15.68.18.57.16.61.19.51.16.53.19c.16,0,.3.11.45.17l.46.18.38.17.38.18.31.16.31.18.24.16.23.17.17.14.07.08c-2.1,2-10.26,4.16-21.29,4.16S140,709.09,138,707.1l0,0Zm42.49,42.17c-2.09,2-10.26,4.15-21.28,4.15s-19.19-2.14-21.3-4.19a.89.89,0,0,1-.13-.14V710.77c4.24,2.22,12.31,3.64,21.43,3.64s17.19-1.41,21.44-3.64V749C180.62,749.07,180.57,749.11,180.52,749.17Z"/><path class="cls-9" d="M512,700.45c-11.8,0-24,2.67-24,7.14v41a2.68,2.68,0,0,0,.51,1.54,5.72,5.72,0,0,0,.58.68c3.06,2.94,12.25,4.92,22.9,4.92s19.85-2,22.89-4.92a4.37,4.37,0,0,0,.59-.68,2.68,2.68,0,0,0,.51-1.54v-41C536,703.12,523.77,700.45,512,700.45Z"/><path class="cls-2" d="M535.35,704.69c-1.42-1.3-4-2.37-7.19-3.18l-.45-.11c-.47-.11-1-.22-1.45-.32l-.36-.07-1.68-.31c-.72-.12-1.47-.23-2.23-.33l-1.07-.13a79.2,79.2,0,0,0-8.95-.5h0c-12.09,0-24.6,2.74-24.6,7.33h0v42.08a2.78,2.78,0,0,0,.53,1.59,5.12,5.12,0,0,0,.6.69c3.13,3,12.56,5.05,23.47,5.05s20.37-2,23.49-5a4.68,4.68,0,0,0,.6-.71,2.73,2.73,0,0,0,.53-1.58V707.07A3.23,3.23,0,0,0,535.35,704.69ZM490.77,707l.17-.15.22-.17.24-.15.31-.18.31-.16.39-.19.37-.16.47-.19.44-.16.53-.19.51-.17.61-.18.57-.16.69-.18.62-.15.76-.17.68-.15.83-.15.73-.14.91-.14.77-.12,1-.12.81-.1,1.09-.11.82-.08,1.2-.08.82-.06L509,703l.72,0c.72,0,1.47,0,2.22,0h0c.76,0,1.5,0,2.22,0l.72,0,1.41.06.82.06,1.2.08.82.08,1.09.11.81.1,1,.12.77.12.91.14.73.14.83.15.68.15.76.17.62.15.69.18.56.16.62.18.5.17c.19.06.37.12.54.19l.44.16.47.19.37.16.39.19.31.16.31.18.24.15.22.17a1.29,1.29,0,0,1,.17.15l.07.08c-2.09,2-10.25,4.15-21.29,4.15s-19.21-2.14-21.26-4.13v0Zm42.48,42.16c-2.08,2-10.25,4.16-21.28,4.16s-19.18-2.14-21.3-4.19l-.12-.14V710.76c4.24,2.22,12.3,3.64,21.42,3.64s17.2-1.42,21.44-3.64V749A.87.87,0,0,1,533.25,749.15Z"/><path class="cls-10" d="M461.56,781.27a10.88,10.88,0,0,1,0-5.7,5.88,5.88,0,0,1,1-2,4.85,4.85,0,0,1,1.44-1.18,5.54,5.54,0,0,1,1.64-.62,9.38,9.38,0,0,1,1.71-.15,9.22,9.22,0,0,1,1.71.15,5.54,5.54,0,0,1,1.64.62,4.68,4.68,0,0,1,1.43,1.18,5.7,5.7,0,0,1,1,2,10.88,10.88,0,0,1,0,5.7,5.55,5.55,0,0,1-1,2,4.58,4.58,0,0,1-1.43,1.19A5.5,5.5,0,0,1,469,785a8.42,8.42,0,0,1-1.71.16,8.56,8.56,0,0,1-1.71-.16,5.5,5.5,0,0,1-1.64-.61,4.73,4.73,0,0,1-1.44-1.19A5.73,5.73,0,0,1,461.56,781.27Zm1.74-5.12a9.64,9.64,0,0,0,0,4.53,4.8,4.8,0,0,0,.66,1.5,3.17,3.17,0,0,0,1,.85,3.81,3.81,0,0,0,1.14.4,7.33,7.33,0,0,0,1.22.09,7.41,7.41,0,0,0,1.22-.09,3.81,3.81,0,0,0,1.14-.4,3.06,3.06,0,0,0,1-.85,4.8,4.8,0,0,0,.66-1.5,9.64,9.64,0,0,0,0-4.53,4.63,4.63,0,0,0-.66-1.49,3,3,0,0,0-1-.85,3.85,3.85,0,0,0-1.14-.41,8.81,8.81,0,0,0-1.22-.08,8.7,8.7,0,0,0-1.22.08,3.85,3.85,0,0,0-1.14.41,3,3,0,0,0-1,.85A4.63,4.63,0,0,0,463.3,776.15Z"/><path class="cls-10" d="M475.22,776.7v-1.55h1.72v-2.92h1.8v2.92h2.63v1.55h-2.63v5.7c0,.77.49,1.16,1.46,1.16h0a2.18,2.18,0,0,0,1.15-.29v1.64a3.61,3.61,0,0,1-1.35.27h0a3.49,3.49,0,0,1-.76-.09,5,5,0,0,1-1-.34,2.11,2.11,0,0,1-.94-.89,3.1,3.1,0,0,1-.36-1.56v-5.6Z"/><path class="cls-10" d="M483.7,785V771.38h1.8v4.11a7.16,7.16,0,0,1,2.62-.49,3.68,3.68,0,0,1,2.86,1.1,4.34,4.34,0,0,1,1,3.11V785h-1.85v-5.88a2.4,2.4,0,0,0-.61-1.94,2.55,2.55,0,0,0-1.61-.48,6.9,6.9,0,0,0-2.44.47V785Z"/><path class="cls-10" d="M494.28,780.21c0-3.48,1.46-5.21,4.36-5.21h0a4.08,4.08,0,0,1,3.16,1.29,4.94,4.94,0,0,1,1.19,3.47q0,.71-.06,1.35h-6.82a2.56,2.56,0,0,0,2.78,2.54,7.19,7.19,0,0,0,3.41-.74v1.65a9,9,0,0,1-3.45.64h-.06a5.48,5.48,0,0,1-1.6-.22,4.58,4.58,0,0,1-1.43-.72,3.3,3.3,0,0,1-1.09-1.54A7,7,0,0,1,494.28,780.21Zm1.82-.72h5.07a4.11,4.11,0,0,0-.17-.94,4,4,0,0,0-.39-.91,2,2,0,0,0-.77-.74,2.42,2.42,0,0,0-1.2-.28,2.39,2.39,0,0,0-1.83.64A3.75,3.75,0,0,0,496.1,779.49Z"/><path class="cls-10" d="M505.33,785v-9a13.13,13.13,0,0,1,4.82-1v1.66a12.2,12.2,0,0,0-3,.42V785Z"/><path class="cls-10" d="M518.4,775.39a3.52,3.52,0,0,1,1.13-2.63,4.88,4.88,0,0,1,3.49-1.08,7.55,7.55,0,0,1,3.4.8v1.79a6.08,6.08,0,0,0-3.18-.87c-2,0-3,.66-3,2a1.16,1.16,0,0,0,.52.94,4.15,4.15,0,0,0,1.3.64c.51.16,1.08.37,1.69.62a14.77,14.77,0,0,1,1.69.81,3.58,3.58,0,0,1,1.82,3.19,3.11,3.11,0,0,1-1.27,2.64,5.73,5.73,0,0,1-3.5.95,8.87,8.87,0,0,1-3.92-.95v-1.89a7.1,7.1,0,0,0,3.76,1.12c2,0,3.08-.62,3.09-1.87a2,2,0,0,0-.52-1.37,3.08,3.08,0,0,0-1.3-.82l-1.69-.57c-.62-.22-1.19-.44-1.7-.66a3.18,3.18,0,0,1-1.29-1A2.82,2.82,0,0,1,518.4,775.39Z"/><path class="cls-10" d="M528.24,776.7v-1.55H530v-2.92h1.8v2.92h2.63v1.55h-2.63v5.7c0,.77.49,1.16,1.46,1.16h0a2.21,2.21,0,0,0,1.15-.29v1.64a3.61,3.61,0,0,1-1.35.27h0a3.49,3.49,0,0,1-.76-.09,5,5,0,0,1-1-.34,2.11,2.11,0,0,1-.94-.89,3.1,3.1,0,0,1-.36-1.56v-5.6Z"/><path class="cls-10" d="M536.59,782.65a8.13,8.13,0,0,1,0-5.1,3.47,3.47,0,0,1,1.14-1.57,4.62,4.62,0,0,1,1.47-.74,5.71,5.71,0,0,1,1.64-.22,5.78,5.78,0,0,1,1.65.22A4.62,4.62,0,0,1,544,776a3.53,3.53,0,0,1,1.13,1.57,8,8,0,0,1,0,5.1,3.53,3.53,0,0,1-1.13,1.57,4.62,4.62,0,0,1-1.47.74,5.78,5.78,0,0,1-1.65.22,5.71,5.71,0,0,1-1.64-.22,4.62,4.62,0,0,1-1.47-.74A3.47,3.47,0,0,1,536.59,782.65Zm1.65-4.37a7.64,7.64,0,0,0,0,3.64,2,2,0,0,0,.65,1.06,2.41,2.41,0,0,0,.88.46,4.1,4.1,0,0,0,1.07.12,4.24,4.24,0,0,0,1.08-.12,2.37,2.37,0,0,0,.87-.46,2.1,2.1,0,0,0,.66-1.06,8,8,0,0,0,0-3.64,2.1,2.1,0,0,0-.66-1.06,2.23,2.23,0,0,0-.87-.46,4.24,4.24,0,0,0-1.08-.12,4.1,4.1,0,0,0-1.07.12,2.27,2.27,0,0,0-.88.46A2,2,0,0,0,538.24,778.28Z"/><path class="cls-10" d="M547.87,785v-9a13.12,13.12,0,0,1,4.81-1v1.66a12.18,12.18,0,0,0-3,.42V785Z"/><path class="cls-10" d="M554.06,780.21c0-3.48,1.45-5.21,4.35-5.21h0a4.08,4.08,0,0,1,3.16,1.29,4.94,4.94,0,0,1,1.19,3.47q0,.71-.06,1.35H555.9a2.56,2.56,0,0,0,2.78,2.54,7.19,7.19,0,0,0,3.41-.74v1.65a9,9,0,0,1-3.45.64h0A5.5,5.5,0,0,1,557,785a4.58,4.58,0,0,1-1.43-.72,3.3,3.3,0,0,1-1.09-1.54A7,7,0,0,1,554.06,780.21Zm1.81-.72h5.07a4.11,4.11,0,0,0-.17-.94,4,4,0,0,0-.39-.91,2,2,0,0,0-.77-.74,2.85,2.85,0,0,0-3,.36A3.75,3.75,0,0,0,555.87,779.49Z"/><path class="cls-4" d="M345.47,780.63V840.7a.92.92,0,0,0,1.84,0V780.63a.92.92,0,0,0-1.84,0Z"/><rect class="cls-4" x="217.47" y="354.97" width="257.94" height="199.64" rx="6.39"/><path class="cls-4" d="M469.53,449.35h77.05a.93.93,0,0,0,0-1.85H469.53a.93.93,0,0,0,0,1.85Z"/><path class="cls-6" d="M118.63,188.5l4.93-12.38h1.69l4.92,12.38h-1.86L127,185h-5.17l-1.33,3.47Zm3.8-5.09h3.93l-2-5.13Z"/><path class="cls-6" d="M132.07,192v-10a3.81,3.81,0,0,1,.05-.59,3.1,3.1,0,0,1,.28-.75,2.76,2.76,0,0,1,.6-.8,3.54,3.54,0,0,1,1.14-.59,5.6,5.6,0,0,1,1.77-.25,5.66,5.66,0,0,1,1,.09,3.8,3.8,0,0,1,1.07.41,3.5,3.5,0,0,1,1,.82,4.06,4.06,0,0,1,.71,1.43A7.17,7.17,0,0,1,140,184a6.58,6.58,0,0,1-.38,2.35,3,3,0,0,1-1,1.44,4.51,4.51,0,0,1-1.35.68,5.46,5.46,0,0,1-1.51.2,7.15,7.15,0,0,1-2-.27V192Zm1.69-5.27a5.63,5.63,0,0,0,2,.37,3.9,3.9,0,0,0,1-.11,2.1,2.1,0,0,0,.79-.42,1.89,1.89,0,0,0,.6-1,5.93,5.93,0,0,0,.2-1.66,6.85,6.85,0,0,0-.2-1.79,2.07,2.07,0,0,0-.59-1,2,2,0,0,0-.75-.44,2.77,2.77,0,0,0-.85-.12c-1.43,0-2.15.46-2.15,1.38Z"/><path class="cls-6" d="M142.23,192v-10a2.88,2.88,0,0,1,.06-.59,3.1,3.1,0,0,1,.28-.75,2.44,2.44,0,0,1,.6-.8,3.33,3.33,0,0,1,1.14-.59,5.5,5.5,0,0,1,1.76-.25,5.58,5.58,0,0,1,1,.09,3.74,3.74,0,0,1,1.08.41,3.64,3.64,0,0,1,1,.82,4.23,4.23,0,0,1,.71,1.43,7.19,7.19,0,0,1,.28,2.13,6.59,6.59,0,0,1-.37,2.35,3,3,0,0,1-1,1.44,4.59,4.59,0,0,1-1.34.68,5.52,5.52,0,0,1-1.51.2,7.15,7.15,0,0,1-2-.27V192Zm1.7-5.27a5.59,5.59,0,0,0,2,.37,3.81,3.81,0,0,0,1-.11,2.14,2.14,0,0,0,.8-.42,1.82,1.82,0,0,0,.59-1,5.55,5.55,0,0,0,.21-1.66,6.41,6.41,0,0,0-.21-1.79,2.06,2.06,0,0,0-.58-1,2.12,2.12,0,0,0-.75-.44,2.84,2.84,0,0,0-.86-.12c-1.43,0-2.14.46-2.14,1.38Z"/><path class="cls-6" d="M152.73,188.5V175.71h1.7V188.5Z"/><path class="cls-6" d="M157.48,177.8V176h1.8v1.79Zm.06,10.7v-9.26h1.69v9.26Z"/><path class="cls-6" d="M162.77,187.42a6.28,6.28,0,0,1,0-7.1,4.07,4.07,0,0,1,3.21-1.23,7.32,7.32,0,0,1,2.73.52v1.61a5.89,5.89,0,0,0-2.55-.61h0a2.87,2.87,0,0,0-2,.66,3.53,3.53,0,0,0-.72,2.6,5.83,5.83,0,0,0,.21,1.7,1.92,1.92,0,0,0,.63,1,2.35,2.35,0,0,0,.86.44,4.3,4.3,0,0,0,1,.11,6.08,6.08,0,0,0,2.59-.59v1.6a7.51,7.51,0,0,1-2.73.51A4.1,4.1,0,0,1,162.77,187.42Z"/><path class="cls-6" d="M170.42,185.57a2.46,2.46,0,0,1,1.16-2.15,5.76,5.76,0,0,1,3.2-.77,13,13,0,0,1,1.68.11,2.25,2.25,0,0,0-.64-1.67,2.86,2.86,0,0,0-1.91-.51,7.88,7.88,0,0,0-2.56.46v-1.45a7.86,7.86,0,0,1,2.8-.5,4.22,4.22,0,0,1,3,1,3.8,3.8,0,0,1,1.05,2.88v2.67a2.88,2.88,0,0,1-.06.59,3.31,3.31,0,0,1-.28.76,2.67,2.67,0,0,1-.6.81,3.31,3.31,0,0,1-1.15.59,5.58,5.58,0,0,1-1.76.25,5.7,5.7,0,0,1-1.8-.26,3.37,3.37,0,0,1-1.16-.6,2.62,2.62,0,0,1-.62-.82,3.22,3.22,0,0,1-.29-.78A4.3,4.3,0,0,1,170.42,185.57Zm1.69,0c0,1,.74,1.57,2.23,1.57h0c1.4,0,2.1-.5,2.1-1.51v-1.49a11.68,11.68,0,0,0-1.61-.12,4.34,4.34,0,0,0-.78.07,5.45,5.45,0,0,0-.87.21,1.72,1.72,0,0,0-.78.48A1.11,1.11,0,0,0,172.11,185.55Z"/><path class="cls-6" d="M179.51,180.69v-1.45h1.62v-2.75h1.69v2.75h2.46v1.45h-2.46V186c0,.72.46,1.08,1.37,1.08h0a2,2,0,0,0,1.07-.27v1.53a3.34,3.34,0,0,1-1.26.26H184a3.68,3.68,0,0,1-.71-.08,4.17,4.17,0,0,1-.91-.32,2,2,0,0,1-.88-.83,2.91,2.91,0,0,1-.34-1.47v-5.25Z"/><path class="cls-6" d="M187.52,177.8V176h1.8v1.79Zm.06,10.7v-9.26h1.69v9.26Z"/><path class="cls-6" d="M192.11,186.27a7.55,7.55,0,0,1,0-4.79,3.26,3.26,0,0,1,1.06-1.47,4.5,4.5,0,0,1,1.38-.7,6,6,0,0,1,3.08,0,4.5,4.5,0,0,1,1.38.7,3.28,3.28,0,0,1,1.07,1.47,7.55,7.55,0,0,1,0,4.79,3.28,3.28,0,0,1-1.07,1.47,4.5,4.5,0,0,1-1.38.7,6,6,0,0,1-3.08,0,4.5,4.5,0,0,1-1.38-.7A3.26,3.26,0,0,1,192.11,186.27Zm1.54-4.1a7.37,7.37,0,0,0,0,3.41,2,2,0,0,0,.61,1,2.32,2.32,0,0,0,.82.43,4.21,4.21,0,0,0,1,.11,4.15,4.15,0,0,0,1-.11,2.24,2.24,0,0,0,.82-.43,1.94,1.94,0,0,0,.61-1,7,7,0,0,0,0-3.41,1.94,1.94,0,0,0-.61-1,2.24,2.24,0,0,0-.82-.43,4.15,4.15,0,0,0-1-.11,4.21,4.21,0,0,0-1,.11,2.32,2.32,0,0,0-.82.43A2,2,0,0,0,193.65,182.17Z"/><path class="cls-6" d="M202.6,188.5V180a8.93,8.93,0,0,1,4-1,4,4,0,0,1,2.76.92,3.28,3.28,0,0,1,1,2.54v6h-1.73v-6.11a1.89,1.89,0,0,0-.42-1.29,2.26,2.26,0,0,0-1.68-.47,6.91,6.91,0,0,0-2.18.34v7.53Z"/><path class="cls-6" d="M212.62,181.85a2.61,2.61,0,0,1,.82-1.95,3.42,3.42,0,0,1,2.5-.81,5.47,5.47,0,0,1,2.48.61v1.47a5.44,5.44,0,0,0-2.27-.56c-1.23,0-1.84.4-1.84,1.19,0,.26.16.47.49.64a5.71,5.71,0,0,0,1.18.45c.46.13.92.29,1.38.47a2.85,2.85,0,0,1,1.18.93,2.74,2.74,0,0,1-.35,3.54,3.63,3.63,0,0,1-2.6.81,5.56,5.56,0,0,1-2.68-.65v-1.55a5.2,5.2,0,0,0,2.57.68h0a2.4,2.4,0,0,0,1.35-.32,1,1,0,0,0,.47-.82,1.1,1.1,0,0,0-.49-.92,3.78,3.78,0,0,0-1.18-.54c-.47-.13-.93-.27-1.39-.43a2.73,2.73,0,0,1-1.18-.8A2.12,2.12,0,0,1,212.62,181.85Z"/><path class="cls-9" d="M169,166.35a1.49,1.49,0,0,1-.73-.2l-21.71-5.23a1.46,1.46,0,0,1-.73-1.27V122.91a1.48,1.48,0,0,1,.73-1.28l21.71-4.7a1.48,1.48,0,0,1,1.47,0l21.71,4.7a1.48,1.48,0,0,1,.73,1.28v36.74a1.46,1.46,0,0,1-.73,1.27l-21.71,5.23A1.49,1.49,0,0,1,169,166.35Z"/><path class="cls-2" d="M169,167.33c-.25,0-22.76-5.32-22.76-5.32a1.48,1.48,0,0,1-.75-1.29V121.81a1.48,1.48,0,0,1,.75-1.29s22.51-4.82,22.76-4.82,22.77,4.82,22.77,4.82a1.48,1.48,0,0,1,.75,1.29v38.91a1.48,1.48,0,0,1-.75,1.29S169.26,167.33,169,167.33Zm-20.53-7.47L169,164.12l20.54-4.26V122.67L169,118.22l-20.53,4.45Z"/><path class="cls-2" d="M169,128.75a1.53,1.53,0,0,1-.75-.2l-22-4.63a1.49,1.49,0,1,1,1.49-2.58L169,125.53l21.28-4.19a1.48,1.48,0,0,1,2,.54,1.5,1.5,0,0,1-.54,2l-22,4.63A1.52,1.52,0,0,1,169,128.75Z"/><path class="cls-2" d="M169,166.25a1.5,1.5,0,0,1-1.5-1.49v-37a1.5,1.5,0,0,1,3,0v37A1.49,1.49,0,0,1,169,166.25Z"/><path class="cls-6" d="M258.61,179.46a3.33,3.33,0,0,1,1.05-2.47,4.58,4.58,0,0,1,3.27-1,7.12,7.12,0,0,1,3.19.75v1.68a5.62,5.62,0,0,0-3-.82c-1.87,0-2.8.62-2.8,1.87a1.08,1.08,0,0,0,.49.88,3.86,3.86,0,0,0,1.22.6c.48.15,1,.34,1.58.58a15.71,15.71,0,0,1,1.59.76,3.33,3.33,0,0,1,1.21,1.18,3.29,3.29,0,0,1,.49,1.81,2.91,2.91,0,0,1-1.19,2.48,5.37,5.37,0,0,1-3.28.89,8.37,8.37,0,0,1-3.68-.89V186A6.72,6.72,0,0,0,262.3,187c1.92,0,2.89-.59,2.89-1.76a1.8,1.8,0,0,0-.49-1.28,2.77,2.77,0,0,0-1.21-.77l-1.59-.54c-.58-.2-1.11-.4-1.59-.61a3,3,0,0,1-1.21-1A2.62,2.62,0,0,1,258.61,179.46Z"/><path class="cls-6" d="M268.86,184q0-4.89,4.09-4.89h0a3.85,3.85,0,0,1,3,1.21,4.64,4.64,0,0,1,1.11,3.25c0,.45,0,.87-.05,1.28h-6.4a2.4,2.4,0,0,0,2.61,2.38,6.72,6.72,0,0,0,3.2-.7v1.54a8.09,8.09,0,0,1-3.23.61h-.06a5.13,5.13,0,0,1-1.5-.21,4.32,4.32,0,0,1-1.34-.67,3.1,3.1,0,0,1-1-1.45A6.54,6.54,0,0,1,268.86,184Zm1.71-.68h4.75a4.27,4.27,0,0,0-.16-.88,3.72,3.72,0,0,0-.37-.86,1.72,1.72,0,0,0-.72-.69,2.32,2.32,0,0,0-1.12-.26,2.2,2.2,0,0,0-1.72.61A3.49,3.49,0,0,0,270.57,183.3Z"/><path class="cls-6" d="M279.23,188.5V180a12.06,12.06,0,0,1,4.51-.93v1.56a11.67,11.67,0,0,0-2.82.39v7.46Z"/><path class="cls-6" d="M285.19,179.24H287l2.6,7.22,2.62-7.22H294l-3.56,9.26h-1.74Z"/><path class="cls-6" d="M296.11,177.8V176h1.8v1.79Zm.06,10.7v-9.26h1.69v9.26Z"/><path class="cls-6" d="M301.4,187.42a6.28,6.28,0,0,1,0-7.1,4.07,4.07,0,0,1,3.21-1.23,7.32,7.32,0,0,1,2.73.52v1.61a5.89,5.89,0,0,0-2.55-.61h0a2.87,2.87,0,0,0-2,.66,3.53,3.53,0,0,0-.72,2.6,5.83,5.83,0,0,0,.21,1.7,1.92,1.92,0,0,0,.63,1,2.35,2.35,0,0,0,.86.44,4.3,4.3,0,0,0,1,.11,6.08,6.08,0,0,0,2.59-.59v1.6a7.51,7.51,0,0,1-2.73.51A4.1,4.1,0,0,1,301.4,187.42Z"/><path class="cls-6" d="M309,184q0-4.89,4.09-4.89h0a3.84,3.84,0,0,1,3,1.21,4.64,4.64,0,0,1,1.11,3.25c0,.45,0,.87-.05,1.28h-6.4a2.4,2.4,0,0,0,2.61,2.38,6.72,6.72,0,0,0,3.2-.7v1.54a8.09,8.09,0,0,1-3.23.61h-.06a5.13,5.13,0,0,1-1.5-.21,4.32,4.32,0,0,1-1.34-.67,3.1,3.1,0,0,1-1-1.45A6.54,6.54,0,0,1,309,184Zm1.71-.68h4.75a4.05,4.05,0,0,0-.53-1.74,1.72,1.72,0,0,0-.72-.69,2.32,2.32,0,0,0-1.12-.26,2.2,2.2,0,0,0-1.72.61A3.49,3.49,0,0,0,310.7,183.3Z"/><path class="cls-6" d="M319,181.85a2.61,2.61,0,0,1,.82-1.95,3.42,3.42,0,0,1,2.5-.81,5.44,5.44,0,0,1,2.48.61v1.47a5.44,5.44,0,0,0-2.27-.56c-1.22,0-1.84.4-1.84,1.19,0,.26.17.47.49.64a5.71,5.71,0,0,0,1.18.45c.46.13.92.29,1.38.47a2.85,2.85,0,0,1,1.18.93,2.74,2.74,0,0,1-.35,3.54,3.62,3.62,0,0,1-2.6.81,5.5,5.5,0,0,1-2.67-.65v-1.55a5.16,5.16,0,0,0,2.56.68h0a2.4,2.4,0,0,0,1.35-.32,1,1,0,0,0,.47-.82,1.08,1.08,0,0,0-.49-.92,3.68,3.68,0,0,0-1.18-.54c-.46-.13-.93-.27-1.39-.43a2.79,2.79,0,0,1-1.18-.8A2.12,2.12,0,0,1,319,181.85Z"/><path class="cls-9" d="M291.79,166a1.36,1.36,0,0,1-.73-.2l-21.71-5.23a1.47,1.47,0,0,1-.74-1.27V122.56a1.5,1.5,0,0,1,.74-1.28l21.71-4.7a1.46,1.46,0,0,1,1.46,0l21.71,4.7a1.48,1.48,0,0,1,.74,1.28V159.3a1.45,1.45,0,0,1-.74,1.27l-21.71,5.23A1.36,1.36,0,0,1,291.79,166Z"/><path class="cls-2" d="M291.79,167c-.26,0-22.77-5.33-22.77-5.33a1.49,1.49,0,0,1-.74-1.29V121.46a1.49,1.49,0,0,1,.74-1.29s22.51-4.82,22.77-4.82,22.77,4.82,22.77,4.82a1.5,1.5,0,0,1,.75,1.29v38.91a1.5,1.5,0,0,1-.75,1.29S292.05,167,291.79,167Zm-20.53-7.48,20.53,4.26,20.53-4.26V122.32l-20.53-4.45-20.53,4.45Z"/><path class="cls-2" d="M291.79,128.4a1.49,1.49,0,0,1-.74-.2l-22-4.63a1.49,1.49,0,1,1,1.49-2.58l21.28,4.2,21.28-4.2a1.49,1.49,0,1,1,1.49,2.58l-22,4.63A1.53,1.53,0,0,1,291.79,128.4Z"/><path class="cls-2" d="M291.79,165.9a1.49,1.49,0,0,1-1.49-1.49v-37a1.49,1.49,0,0,1,3,0v37A1.49,1.49,0,0,1,291.79,165.9Z"/><path class="cls-6" d="M369.47,188.5l4.93-12.38h1.69L381,188.5h-1.86L377.82,185h-5.17l-1.33,3.47Zm3.8-5.09h3.93l-2-5.13Z"/><path class="cls-6" d="M383.11,188.5V176.12h4.46a4.62,4.62,0,0,1,3.2,1,4.22,4.22,0,0,1,0,5.75,4.62,4.62,0,0,1-3.2,1h-2.73v4.59Zm1.73-6.11h2.57a2.88,2.88,0,0,0,2.21-.64,2.54,2.54,0,0,0,.56-1.72,2.52,2.52,0,0,0-.56-1.71,2.87,2.87,0,0,0-2.21-.64h-2.57Z"/><path class="cls-6" d="M394.18,188.5V176.12h1.73V188.5Z"/><path class="cls-6" d="M398.42,181.85a2.61,2.61,0,0,1,.82-1.95,3.43,3.43,0,0,1,2.5-.81,5.44,5.44,0,0,1,2.48.61v1.47a5.44,5.44,0,0,0-2.27-.56c-1.22,0-1.84.4-1.84,1.19,0,.26.17.47.49.64a5.71,5.71,0,0,0,1.18.45c.46.13.92.29,1.38.47a2.85,2.85,0,0,1,1.18.93,2.74,2.74,0,0,1-.35,3.54,3.62,3.62,0,0,1-2.6.81,5.5,5.5,0,0,1-2.67-.65v-1.55a5.16,5.16,0,0,0,2.56.68h0a2.4,2.4,0,0,0,1.35-.32,1,1,0,0,0,.47-.82,1.08,1.08,0,0,0-.49-.92,3.68,3.68,0,0,0-1.18-.54c-.46-.13-.93-.27-1.39-.43a2.79,2.79,0,0,1-1.18-.8A2.12,2.12,0,0,1,398.42,181.85Z"/><path class="cls-9" d="M387.32,165.65a1.47,1.47,0,0,1-.73-.19l-21.71-5.23a1.49,1.49,0,0,1-.73-1.28V122.21a1.46,1.46,0,0,1,.73-1.27l21.71-4.71a1.48,1.48,0,0,1,1.47,0l21.71,4.71a1.46,1.46,0,0,1,.73,1.27V159a1.49,1.49,0,0,1-.73,1.28l-21.71,5.23A1.48,1.48,0,0,1,387.32,165.65Z"/><path class="cls-2" d="M387.32,166.64c-.25,0-22.76-5.33-22.76-5.33a1.47,1.47,0,0,1-.75-1.29v-38.9a1.49,1.49,0,0,1,.75-1.3S387.07,115,387.32,115s22.77,4.82,22.77,4.82a1.49,1.49,0,0,1,.75,1.3V160a1.47,1.47,0,0,1-.75,1.29S387.58,166.64,387.32,166.64Zm-20.53-7.48,20.53,4.26,20.54-4.26V122l-20.54-4.46L366.79,122Z"/><path class="cls-2" d="M387.32,128.05a1.52,1.52,0,0,1-.74-.2l-22-4.63a1.49,1.49,0,0,1,1.5-2.58l21.27,4.2,21.28-4.2a1.49,1.49,0,1,1,1.49,2.58l-22,4.63A1.53,1.53,0,0,1,387.32,128.05Z"/><path class="cls-2" d="M387.32,165.55a1.49,1.49,0,0,1-1.49-1.49V127a1.5,1.5,0,0,1,3,0v37A1.49,1.49,0,0,1,387.32,165.55Z"/><path class="cls-6" d="M450.15,188.5V176.12h4a5.67,5.67,0,0,1,4.33,1.58,8,8,0,0,1,0,9.23,5.67,5.67,0,0,1-4.33,1.57Zm1.73-1.53h1.95a4.35,4.35,0,0,0,3.32-1.12,6.44,6.44,0,0,0,0-7.08,4.36,4.36,0,0,0-3.32-1.13h-1.95Z"/><path class="cls-6" d="M461.75,185.57a2.46,2.46,0,0,1,1.16-2.15,5.76,5.76,0,0,1,3.2-.77,13,13,0,0,1,1.68.11,2.21,2.21,0,0,0-.64-1.67,2.86,2.86,0,0,0-1.91-.51,7.88,7.88,0,0,0-2.56.46v-1.45a7.86,7.86,0,0,1,2.8-.5,4.2,4.2,0,0,1,3,1,3.8,3.8,0,0,1,1,2.88v2.67a2.88,2.88,0,0,1-.06.59,3.31,3.31,0,0,1-.28.76,2.67,2.67,0,0,1-.6.81,3.31,3.31,0,0,1-1.15.59,5.58,5.58,0,0,1-1.76.25,5.74,5.74,0,0,1-1.8-.26,3.37,3.37,0,0,1-1.16-.6,2.62,2.62,0,0,1-.62-.82,3.71,3.71,0,0,1-.29-.78A4.3,4.3,0,0,1,461.75,185.57Zm1.69,0c0,1,.75,1.57,2.23,1.57h0c1.4,0,2.1-.5,2.1-1.51v-1.49a11.68,11.68,0,0,0-1.61-.12,4.42,4.42,0,0,0-.78.07,5.45,5.45,0,0,0-.87.21,1.84,1.84,0,0,0-.78.48A1.15,1.15,0,0,0,463.44,185.55Z"/><path class="cls-6" d="M470.84,180.69v-1.45h1.62v-2.75h1.69v2.75h2.46v1.45h-2.46V186c0,.72.46,1.08,1.37,1.08h0a2,2,0,0,0,1.07-.27v1.53a3.34,3.34,0,0,1-1.26.26h-.05a3.68,3.68,0,0,1-.71-.08,4.17,4.17,0,0,1-.91-.32,2,2,0,0,1-.88-.83,2.91,2.91,0,0,1-.34-1.47v-5.25Z"/><path class="cls-6" d="M478.34,185.57a2.43,2.43,0,0,1,1.16-2.15,5.76,5.76,0,0,1,3.2-.77,13,13,0,0,1,1.68.11,2.25,2.25,0,0,0-.64-1.67,2.87,2.87,0,0,0-1.91-.51,7.88,7.88,0,0,0-2.56.46v-1.45a7.8,7.8,0,0,1,2.79-.5,4.24,4.24,0,0,1,3,1,3.8,3.8,0,0,1,1.05,2.88v2.67a2.88,2.88,0,0,1-.06.59,3.31,3.31,0,0,1-.28.76,2.55,2.55,0,0,1-.61.81,3.17,3.17,0,0,1-1.14.59,5.6,5.6,0,0,1-1.77.25,5.68,5.68,0,0,1-1.79-.26,3.28,3.28,0,0,1-1.16-.6,2.62,2.62,0,0,1-.62-.82,2.64,2.64,0,0,1-.34-1.39Zm1.69,0c0,1,.74,1.57,2.22,1.57h0c1.4,0,2.1-.5,2.1-1.51v-1.49a11.8,11.8,0,0,0-1.61-.12,4.26,4.26,0,0,0-.78.07,5.83,5.83,0,0,0-.88.21,1.74,1.74,0,0,0-.77.48A1.11,1.11,0,0,0,480,185.55Z"/><path class="cls-6" d="M494.6,179.46a3.33,3.33,0,0,1,1-2.47,4.58,4.58,0,0,1,3.27-1,7.12,7.12,0,0,1,3.19.75v1.68a5.62,5.62,0,0,0-3-.82c-1.87,0-2.8.62-2.8,1.87a1.08,1.08,0,0,0,.49.88,3.86,3.86,0,0,0,1.22.6c.48.15,1,.34,1.58.58a15.71,15.71,0,0,1,1.59.76,3.33,3.33,0,0,1,1.21,1.18,3.29,3.29,0,0,1,.49,1.81,2.93,2.93,0,0,1-1.18,2.48,5.42,5.42,0,0,1-3.29.89,8.37,8.37,0,0,1-3.68-.89V186a6.72,6.72,0,0,0,3.53,1.05c1.92,0,2.89-.59,2.89-1.76a1.8,1.8,0,0,0-.49-1.28,2.77,2.77,0,0,0-1.21-.77l-1.59-.54c-.58-.2-1.11-.4-1.59-.61a3,3,0,0,1-1.21-1A2.62,2.62,0,0,1,494.6,179.46Z"/><path class="cls-6" d="M503.82,180.69v-1.45h1.61v-2.75h1.7v2.75h2.46v1.45h-2.46V186c0,.72.45,1.08,1.36,1.08h0a2,2,0,0,0,1.08-.27v1.53a3.39,3.39,0,0,1-1.27.26h0a3.69,3.69,0,0,1-.72-.08,4.36,4.36,0,0,1-.91-.32,2,2,0,0,1-.87-.83,2.91,2.91,0,0,1-.35-1.47v-5.25Z"/><path class="cls-6" d="M511.7,188.5V180a12.1,12.1,0,0,1,4.51-.93v1.56a11.53,11.53,0,0,0-2.81.39v7.46Z"/><path class="cls-6" d="M517.5,184q0-4.89,4.08-4.89h0a3.86,3.86,0,0,1,3,1.21,4.64,4.64,0,0,1,1.11,3.25c0,.45,0,.87,0,1.28h-6.4a2.4,2.4,0,0,0,2.61,2.38,6.75,6.75,0,0,0,3.2-.7v1.54a8.17,8.17,0,0,1-3.24.61h0a5.15,5.15,0,0,1-1.51-.21,4.43,4.43,0,0,1-1.34-.67,3.16,3.16,0,0,1-1-1.45A6.33,6.33,0,0,1,517.5,184Zm1.7-.68H524a5.06,5.06,0,0,0-.16-.88,4.21,4.21,0,0,0-.37-.86,1.84,1.84,0,0,0-.72-.69,2.36,2.36,0,0,0-1.13-.26,2.18,2.18,0,0,0-1.71.61A3.48,3.48,0,0,0,519.2,183.3Z"/><path class="cls-6" d="M527.38,185.57a2.46,2.46,0,0,1,1.16-2.15,5.78,5.78,0,0,1,3.2-.77,13.33,13.33,0,0,1,1.69.11,2.25,2.25,0,0,0-.64-1.67,2.89,2.89,0,0,0-1.91-.51,7.94,7.94,0,0,0-2.57.46v-1.45a7.9,7.9,0,0,1,2.8-.5,4.2,4.2,0,0,1,3,1,3.8,3.8,0,0,1,1.06,2.88v2.67a2.88,2.88,0,0,1-.06.59,3.42,3.42,0,0,1-.29.76,2.38,2.38,0,0,1-.6.81,3.22,3.22,0,0,1-1.15.59,5.5,5.5,0,0,1-1.76.25,5.68,5.68,0,0,1-1.79-.26,3.34,3.34,0,0,1-1.17-.6,2.78,2.78,0,0,1-.62-.82,3.12,3.12,0,0,1-.28-.78A3.23,3.23,0,0,1,527.38,185.57Zm1.7,0c0,1,.74,1.57,2.22,1.57h0c1.4,0,2.1-.5,2.1-1.51v-1.49a11.93,11.93,0,0,0-1.61-.12,4.26,4.26,0,0,0-.78.07,5.83,5.83,0,0,0-.88.21,1.84,1.84,0,0,0-.78.48A1.15,1.15,0,0,0,529.08,185.55Z"/><path class="cls-6" d="M537.58,188.5V180a8.5,8.5,0,0,1,3.85-.93,4.15,4.15,0,0,1,2.47.7,9.27,9.27,0,0,1,3.4-.7A3.88,3.88,0,0,1,550,180a3.33,3.33,0,0,1,1,2.55v6h-1.7v-6.07a2,2,0,0,0-.39-1.29,1.87,1.87,0,0,0-1.52-.49,6.43,6.43,0,0,0-2.49.52,3.66,3.66,0,0,1,.22,1.32v6h-1.7v-6.06a1.8,1.8,0,0,0-.43-1.28,2.29,2.29,0,0,0-1.71-.47,7.56,7.56,0,0,0-2,.28v7.53Z"/><path class="cls-6" d="M553.38,181.85a2.65,2.65,0,0,1,.82-1.95,3.44,3.44,0,0,1,2.51-.81,5.43,5.43,0,0,1,2.47.61v1.47a5.4,5.4,0,0,0-2.26-.56c-1.23,0-1.84.4-1.84,1.19,0,.26.16.47.49.64a5.4,5.4,0,0,0,1.17.45c.46.13.92.29,1.38.47a2.79,2.79,0,0,1,1.18.93,2.72,2.72,0,0,1-.34,3.54,3.64,3.64,0,0,1-2.61.81,5.5,5.5,0,0,1-2.67-.65v-1.55a5.17,5.17,0,0,0,2.57.68h0a2.46,2.46,0,0,0,1.36-.32,1,1,0,0,0,.46-.82,1.1,1.1,0,0,0-.48-.92,3.89,3.89,0,0,0-1.18-.54c-.47-.13-.93-.27-1.39-.43a2.67,2.67,0,0,1-1.18-.8A2.08,2.08,0,0,1,553.38,181.85Z"/><path class="cls-9" d="M504.54,165.3a1.45,1.45,0,0,1-.73-.19l-21.71-5.23a1.48,1.48,0,0,1-.73-1.28V121.86a1.46,1.46,0,0,1,.73-1.27l21.71-4.7a1.44,1.44,0,0,1,1.47,0l21.7,4.7a1.45,1.45,0,0,1,.74,1.27V158.6a1.47,1.47,0,0,1-.74,1.28l-21.7,5.23A1.51,1.51,0,0,1,504.54,165.3Z"/><path class="cls-2" d="M504.54,166.29c-.26,0-22.77-5.33-22.77-5.33a1.48,1.48,0,0,1-.74-1.29v-38.9a1.47,1.47,0,0,1,.74-1.29s22.51-4.82,22.77-4.82,22.77,4.82,22.77,4.82a1.48,1.48,0,0,1,.75,1.29v38.9a1.49,1.49,0,0,1-.75,1.29S504.8,166.29,504.54,166.29ZM484,158.81l20.53,4.27,20.53-4.27V121.63l-20.53-4.46L484,121.63Z"/><path class="cls-2" d="M504.54,127.7a1.49,1.49,0,0,1-.74-.2l-22-4.63a1.49,1.49,0,0,1,1.49-2.58l21.28,4.2,21.28-4.2a1.49,1.49,0,1,1,1.49,2.58l-22,4.63A1.53,1.53,0,0,1,504.54,127.7Z"/><path class="cls-2" d="M504.54,165.2a1.49,1.49,0,0,1-1.49-1.49v-37a1.49,1.49,0,1,1,3,0v37A1.48,1.48,0,0,1,504.54,165.2Z"/><path class="cls-3" d="M255.25,504.54s-2.56,3.87,2.47,4.66c.49.07,4.14.45,5.08,1.64,0,0-.09-2.06-3.05-3.28S255.58,506.05,255.25,504.54Z"/><path class="cls-3" d="M257.74,496.19s-7.16,4.36-.41,8.71c1.3.84,6,3.2,5.87,5.36,0,0,2.85-4.23-1.32-6.88S256.53,497.76,257.74,496.19Z"/><path class="cls-3" d="M265.14,500.46c-3.07-3.22-3.92-5.2-2.61-7.77,0,0-9.16,3.52-.12,9.78,3.24,2.24,2.7,4.52,2.7,4.61A4.49,4.49,0,0,0,265.14,500.46Z"/><text class="cls-11" transform="translate(271.39 507.69)">N<tspan class="cls-12" x="8.96" y="0">O</tspan><tspan class="cls-13" x="17.93" y="0">D</tspan><tspan class="cls-14" x="26.04" y="0">E</tspan></text><path class="cls-9" d="M279.46,379.07c-18,0-36.69,4.08-36.69,10.92v87.8a4.08,4.08,0,0,0,.79,2.36,6.56,6.56,0,0,0,.89,1c4.66,4.51,18.73,7.53,35,7.53s30.36-3,35-7.52a7.23,7.23,0,0,0,.91-1.05,4.06,4.06,0,0,0,.78-2.36V390C316.16,383.15,297.5,379.07,279.46,379.07Z"/><path class="cls-15" d="M251.46,438.22V429l1.83.42c.88,1.49,1.77,3,2.65,4.43l2.66-3.36,1.84.31V440l-1.66-.29V432.9c-.95,1.2-1.89,2.38-2.84,3.56-.95-1.56-1.89-3.12-2.83-4.7v6.84Z"/><path class="cls-15" d="M262.77,440.38v-9.25q3.08.45,6.17.73v1.5c-1.5-.14-3-.31-4.5-.5v2.34c1.3.17,2.6.32,3.9.44v1.58q-1.95-.2-3.9-.45v2.34q2.25.3,4.5.51v1.49Q265.85,440.83,262.77,440.38Z"/><path class="cls-15" d="M270.85,441.28V432c.62.05,1.24.1,1.86.13.9,1.35,1.79,2.68,2.69,4,.9-1.25,1.8-2.52,2.69-3.79l1.87,0v9.25h-1.68v-6.84c-1,1.34-1.92,2.68-2.88,4q-1.44-2.1-2.87-4.24v6.84Z"/><path class="cls-15" d="M282,437a7.08,7.08,0,0,1,.26-2,4.24,4.24,0,0,1,.69-1.38,3.64,3.64,0,0,1,1-.86,4.64,4.64,0,0,1,1.16-.47,7.65,7.65,0,0,1,1.22-.16,6.87,6.87,0,0,1,1.22.05,3.87,3.87,0,0,1,1.16.36,3.29,3.29,0,0,1,1,.75,3.71,3.71,0,0,1,.69,1.32,6.82,6.82,0,0,1,.26,2,7.33,7.33,0,0,1-.26,2,4.43,4.43,0,0,1-.69,1.43,4.18,4.18,0,0,1-1,.9,4.11,4.11,0,0,1-1.16.5,6.53,6.53,0,0,1-1.22.17,6.91,6.91,0,0,1-1.22-.05,3.73,3.73,0,0,1-1.16-.4,3.28,3.28,0,0,1-1-.8,3.93,3.93,0,0,1-.69-1.36A7.06,7.06,0,0,1,282,437Zm1.68-.05a6.29,6.29,0,0,0,.2,1.72,2,2,0,0,0,.62,1,2.19,2.19,0,0,0,.83.4,3.51,3.51,0,0,0,1,.07,4.72,4.72,0,0,0,.83-.1,2.26,2.26,0,0,0,.71-.3,1.78,1.78,0,0,0,.6-.59,3.92,3.92,0,0,0,.39-1,6.27,6.27,0,0,0,.15-1.45,5.79,5.79,0,0,0-.21-1.7,1.79,1.79,0,0,0-.62-1,2.13,2.13,0,0,0-.83-.38,4.51,4.51,0,0,0-1-.06,5.59,5.59,0,0,0-.81.1,2.65,2.65,0,0,0-.72.29,1.73,1.73,0,0,0-.6.57,3.14,3.14,0,0,0-.38,1A6,6,0,0,0,283.67,437Z"/><path class="cls-15" d="M292.69,441v-9.26c1.19-.11,2.37-.25,3.56-.4a3.5,3.5,0,0,1,2.53.42,2.35,2.35,0,0,1,.9,2.07,3.12,3.12,0,0,1-2,3q1.22,1.61,2.43,3.18c-.67.1-1.34.21-2,.3-.74-1-1.47-2-2.21-3l-1.5.17v3.27Zm1.67-5,1.84-.22a2.75,2.75,0,0,0,1.33-.48,1.44,1.44,0,0,0,.48-1.21c0-.57-.16-.93-.48-1.09a2.38,2.38,0,0,0-1.33-.11l-1.84.22Z"/><path class="cls-15" d="M300.53,430.75l2-.34L305,433.7c.8-1.42,1.61-2.84,2.41-4.27l2-.46q-1.78,3.06-3.58,6.08v4l-1.65.34v-4C302.94,433.86,301.73,432.31,300.53,430.75Z"/><path class="cls-3" d="M304.6,380.85a110,110,0,0,0-50.28,0c-8,2.16-12.18,5.24-12.18,8.88v88.32a5,5,0,0,0,1,2.89,7.29,7.29,0,0,0,1,1.18c4.78,4.61,19,7.72,35.36,7.72s30.59-3.1,35.37-7.73a7.27,7.27,0,0,0,1-1.17,4.9,4.9,0,0,0,1-2.89V389.73C316.79,386.09,312.58,383,304.6,380.85ZM313.1,479a4.73,4.73,0,0,1-.58.67c-4.08,3.94-18,6.8-33.06,6.8s-29-2.86-33-6.8a4.32,4.32,0,0,1-.58-.68,1.7,1.7,0,0,1-.34-1V394.93a19.73,19.73,0,0,0,2.49,1.42l0,0c.46.21.93.42,1.43.63l.13.05c.48.2,1,.39,1.51.58l.19.06,1.37.45.43.13c.44.14.9.27,1.37.39l.63.17c.44.12.9.23,1.37.34l.8.18,1.38.29.91.18,1.1.2,1.26.21,1,.16,1.35.18c.39.06.78.1,1.18.15s.7.09,1.06.12l1.59.17.81.07,1.94.15.7,0,2.12.11.53,0c.77,0,1.55.06,2.34.08h.31l2.59,0,2.58,0h.32c.79,0,1.56,0,2.33-.08l.54,0,2.12-.11.7,0,1.93-.15.83-.08c.52,0,1-.1,1.54-.15l1.11-.13c.39-.05.78-.09,1.16-.15l1.38-.19,1-.15,1.28-.21,1.09-.2.92-.18,1.38-.29.79-.18,1.39-.34.6-.16,1.44-.41.35-.11c.49-.15,1-.31,1.43-.47l.15-.05c.54-.19,1.06-.39,1.55-.59l.09,0c.51-.22,1-.43,1.46-.65h0a18.71,18.71,0,0,0,2.51-1.42v83.12A1.76,1.76,0,0,1,313.1,479ZM279.46,381.3c21.05,0,34,4.91,34,8.43a1.8,1.8,0,0,1-.35,1c-1.47,2.17-6.74,4.39-14.51,5.84h-.07l-.88.16-.92.15h0a107.33,107.33,0,0,1-14.34,1.26h-.49l-.92,0h-3l-.92,0h-.48a108.61,108.61,0,0,1-14.31-1.25h-.06l-.87-.15-.94-.17h0c-7.77-1.44-13-3.66-14.52-5.84a1.83,1.83,0,0,1-.35-1C245.49,386.21,258.41,381.3,279.46,381.3Z"/><path class="cls-3" d="M382.74,504.54s-2.56,3.87,2.47,4.66c.49.07,4.14.45,5.08,1.64,0,0-.09-2.06-3.05-3.28S383.07,506.05,382.74,504.54Z"/><path class="cls-3" d="M385.23,496.19s-7.16,4.36-.41,8.71c1.3.84,6,3.2,5.87,5.36,0,0,2.85-4.23-1.32-6.88S384,497.76,385.23,496.19Z"/><path class="cls-3" d="M392.63,500.46c-3.07-3.22-3.92-5.2-2.61-7.77,0,0-9.16,3.52-.12,9.78,3.24,2.24,2.7,4.52,2.7,4.61A4.49,4.49,0,0,0,392.63,500.46Z"/><text class="cls-11" transform="translate(398.88 507.69)">N<tspan class="cls-12" x="8.96" y="0">O</tspan><tspan class="cls-13" x="17.93" y="0">D</tspan><tspan class="cls-14" x="26.04" y="0">E</tspan></text><path class="cls-9" d="M407,379.07c-18,0-36.69,4.08-36.69,10.92v87.8a4.08,4.08,0,0,0,.79,2.36,6.56,6.56,0,0,0,.89,1c4.66,4.51,18.73,7.53,35,7.53s30.36-3,35-7.52a7.23,7.23,0,0,0,.91-1.05,4.14,4.14,0,0,0,.78-2.36V390C443.65,383.15,425,379.07,407,379.07Z"/><path class="cls-15" d="M379,438.22V429l1.83.42c.88,1.49,1.76,3,2.65,4.43l2.66-3.36,1.84.31V440l-1.66-.29V432.9l-2.84,3.56c-.95-1.56-1.89-3.12-2.83-4.7v6.84Z"/><path class="cls-15" d="M390.26,440.38v-9.25q3.08.45,6.17.73v1.5c-1.5-.14-3-.31-4.5-.5v2.34c1.3.17,2.6.32,3.9.44v1.58q-1.95-.2-3.9-.45v2.34q2.25.3,4.5.51v1.49Q393.34,440.83,390.26,440.38Z"/><path class="cls-15" d="M398.34,441.28V432c.62.05,1.24.1,1.86.13.9,1.35,1.79,2.68,2.69,4,.9-1.25,1.8-2.52,2.69-3.79l1.87,0v9.25h-1.68v-6.84c-1,1.34-1.92,2.68-2.88,4q-1.44-2.1-2.88-4.24v6.84Z"/><path class="cls-15" d="M409.48,437a7.08,7.08,0,0,1,.26-2,4.24,4.24,0,0,1,.69-1.38,3.64,3.64,0,0,1,1-.86,4.64,4.64,0,0,1,1.16-.47,7.5,7.5,0,0,1,1.22-.16,6.87,6.87,0,0,1,1.22.05,3.87,3.87,0,0,1,1.16.36,3.29,3.29,0,0,1,1,.75,3.71,3.71,0,0,1,.69,1.32,6.82,6.82,0,0,1,.26,2,7.33,7.33,0,0,1-.26,2,4.43,4.43,0,0,1-.69,1.43,4.18,4.18,0,0,1-1,.9,4.11,4.11,0,0,1-1.16.5,6.53,6.53,0,0,1-1.22.17,6.87,6.87,0,0,1-1.22-.05,3.73,3.73,0,0,1-1.16-.4,3.28,3.28,0,0,1-1-.8,3.93,3.93,0,0,1-.69-1.36A7.06,7.06,0,0,1,409.48,437Zm1.68-.05a5.6,5.6,0,0,0,.2,1.72,2,2,0,0,0,.62,1,2.12,2.12,0,0,0,.83.4,3.51,3.51,0,0,0,1,.07,4.72,4.72,0,0,0,.83-.1,2.36,2.36,0,0,0,.71-.3,1.88,1.88,0,0,0,.6-.59,3.59,3.59,0,0,0,.38-1,6.83,6.83,0,0,0,0-3.15,1.79,1.79,0,0,0-.62-1,2.13,2.13,0,0,0-.83-.38,4.51,4.51,0,0,0-1-.06,5.59,5.59,0,0,0-.81.1,2.65,2.65,0,0,0-.72.29,1.73,1.73,0,0,0-.6.57,3.14,3.14,0,0,0-.38,1A6,6,0,0,0,411.16,437Z"/><path class="cls-15" d="M420.18,441v-9.26c1.19-.11,2.37-.25,3.56-.4a3.5,3.5,0,0,1,2.53.42,2.35,2.35,0,0,1,.9,2.07,3.12,3.12,0,0,1-2,3l2.42,3.18c-.66.1-1.33.21-2,.3-.74-1-1.48-2-2.21-3l-1.5.17v3.27Zm1.67-5,1.84-.22a2.75,2.75,0,0,0,1.33-.48,1.44,1.44,0,0,0,.48-1.21c0-.57-.16-.93-.48-1.09a2.38,2.38,0,0,0-1.33-.11l-1.84.22Z"/><path class="cls-15" d="M428,430.75l2-.34,2.44,3.29c.8-1.42,1.61-2.84,2.41-4.27l2-.46q-1.78,3.06-3.58,6.08v4l-1.65.34v-4C430.43,433.86,429.22,432.31,428,430.75Z"/><path class="cls-3" d="M432.09,380.85a110,110,0,0,0-50.28,0c-8,2.16-12.18,5.24-12.18,8.88v88.32a5,5,0,0,0,.95,2.89,7.29,7.29,0,0,0,1,1.18c4.78,4.61,19,7.72,35.36,7.72s30.59-3.1,35.37-7.73a7.27,7.27,0,0,0,1-1.17,5,5,0,0,0,.95-2.89V389.73C444.28,386.09,440.07,383,432.09,380.85Zm8.5,98.17a4.73,4.73,0,0,1-.58.67c-4.09,3.94-18,6.8-33.06,6.8s-29-2.86-33.05-6.8a4.32,4.32,0,0,1-.58-.68,1.7,1.7,0,0,1-.34-1V394.93a19.73,19.73,0,0,0,2.49,1.42l0,0c.46.21.93.42,1.43.63l.12.05c.49.2,1,.39,1.52.58l.19.06,1.37.45.43.13c.44.14.9.27,1.37.39l.62.17,1.38.34.8.18,1.37.29.92.18,1.1.2,1.26.21,1,.16,1.35.18c.39.06.78.1,1.18.15s.7.09,1.06.12l1.59.17.81.07,1.94.15.7,0,2.12.11.53,0c.77,0,1.55.06,2.34.08h.31l2.59,0,2.58,0h.32c.78,0,1.56,0,2.33-.08l.54,0,2.12-.11.7,0,1.93-.15.83-.08c.52,0,1-.1,1.54-.15l1.11-.13c.39-.05.78-.09,1.16-.15l1.37-.19,1-.15,1.28-.21,1.09-.2.92-.18,1.37-.29.8-.18,1.39-.34.6-.16,1.44-.41.35-.11c.49-.15,1-.31,1.43-.47l.15-.05c.54-.19,1.05-.39,1.55-.59l.08,0c.52-.22,1-.43,1.47-.65h0a18.71,18.71,0,0,0,2.51-1.42v83.12A1.76,1.76,0,0,1,440.59,479ZM407,381.3c21.05,0,34,4.91,34,8.43a1.8,1.8,0,0,1-.35,1c-1.47,2.17-6.74,4.39-14.51,5.84H426l-.88.16-.92.15h0a107.33,107.33,0,0,1-14.34,1.26h-.49l-.92,0h-3l-.92,0H404a108.46,108.46,0,0,1-14.31-1.25h-.06l-.87-.15-.94-.17h0c-7.77-1.44-13-3.66-14.52-5.84a1.83,1.83,0,0,1-.35-1C373,386.21,385.9,381.3,407,381.3Z"/><path class="cls-3" d="M317.92,525.33s-2.55,3.88,2.47,4.66c.5.07,4.14.45,5.08,1.64,0,0-.08-2.06-3-3.28S318.25,526.84,317.92,525.33Z"/><path class="cls-3" d="M320.42,517s-7.16,4.37-.42,8.71c1.31.84,6,3.2,5.87,5.36,0,0,2.85-4.23-1.31-6.88S319.2,518.55,320.42,517Z"/><path class="cls-3" d="M327.81,521.25c-3.06-3.21-3.92-5.2-2.61-7.77,0,0-9.16,3.52-.11,9.78,3.24,2.24,2.69,4.52,2.7,4.61A4.48,4.48,0,0,0,327.81,521.25Z"/><text class="cls-11" transform="translate(334.06 528.48)">N<tspan class="cls-12" x="8.96" y="0">O</tspan><tspan class="cls-13" x="17.93" y="0">D</tspan><tspan class="cls-14" x="26.04" y="0">E</tspan></text><path class="cls-9" d="M342.13,399.86c-18,0-36.68,4.08-36.68,10.92v87.8a4.06,4.06,0,0,0,.78,2.36,7.12,7.12,0,0,0,.89,1c4.67,4.51,18.74,7.53,35,7.53s30.36-3,35-7.52a7.18,7.18,0,0,0,.9-1.05,4.06,4.06,0,0,0,.78-2.36v-87.8C378.83,403.94,360.17,399.86,342.13,399.86Z"/><path class="cls-15" d="M314.14,459v-9.25l1.83.42c.88,1.49,1.76,3,2.64,4.43q1.33-1.67,2.66-3.36l1.84.31v9.26l-1.65-.29v-6.84c-.95,1.2-1.9,2.38-2.85,3.56l-2.83-4.7v6.84Z"/><path class="cls-15" d="M325.45,461.17v-9.25q3.07.45,6.16.73v1.5c-1.5-.14-3-.31-4.5-.5V456c1.3.17,2.6.32,3.91.44V458c-1.31-.13-2.61-.28-3.91-.45v2.34q2.25.3,4.5.51v1.49Q328.52,461.62,325.45,461.17Z"/><path class="cls-15" d="M333.53,462.07v-9.26l1.85.13c.9,1.35,1.8,2.68,2.7,4l2.69-3.79,1.86,0v9.25H341v-6.84l-2.87,4q-1.44-2.1-2.88-4.24v6.84Z"/><path class="cls-15" d="M344.66,457.8a6.72,6.72,0,0,1,.27-2,4.13,4.13,0,0,1,.68-1.38,3.54,3.54,0,0,1,1-.86,4.49,4.49,0,0,1,1.16-.47,7.36,7.36,0,0,1,1.22-.16,6.91,6.91,0,0,1,1.22.05,3.81,3.81,0,0,1,1.15.36,3.07,3.07,0,0,1,1,.75,3.71,3.71,0,0,1,.69,1.32,6.47,6.47,0,0,1,.27,2,7,7,0,0,1-.27,2,4.06,4.06,0,0,1-.69,1.43,3.67,3.67,0,0,1-1,.9,4.06,4.06,0,0,1-1.15.5,6.65,6.65,0,0,1-1.22.17,6,6,0,0,1-1.22,0,3.64,3.64,0,0,1-1.16-.4,3.21,3.21,0,0,1-1-.8,3.84,3.84,0,0,1-.68-1.36A6.7,6.7,0,0,1,344.66,457.8Zm1.68-.05a5.89,5.89,0,0,0,.21,1.72,1.94,1.94,0,0,0,.61,1,2.19,2.19,0,0,0,.83.4,3.58,3.58,0,0,0,1,.07,4.59,4.59,0,0,0,.82-.1,2.41,2.41,0,0,0,.72-.3,2,2,0,0,0,.6-.59,3.59,3.59,0,0,0,.38-1,7.21,7.21,0,0,0,0-3.15,1.81,1.81,0,0,0-.62-1,2.27,2.27,0,0,0-.83-.38,4,4,0,0,0-1-.06,5.59,5.59,0,0,0-.81.1,2.42,2.42,0,0,0-.72.29,1.82,1.82,0,0,0-.6.57,3.12,3.12,0,0,0-.39,1A6,6,0,0,0,346.34,457.75Z"/><path class="cls-15" d="M355.36,461.83v-9.26c1.19-.11,2.38-.25,3.56-.4a3.49,3.49,0,0,1,2.53.42,2.35,2.35,0,0,1,.9,2.07,3.11,3.11,0,0,1-2,3l2.43,3.18-2,.3-2.21-3-1.5.17v3.27Zm1.67-5,1.85-.22a2.89,2.89,0,0,0,1.33-.48,1.44,1.44,0,0,0,.48-1.21c0-.57-.16-.93-.48-1.09a2.4,2.4,0,0,0-1.33-.11L357,454Z"/><path class="cls-15" d="M363.2,451.54l2-.34,2.43,3.29,2.42-4.27,2-.46q-1.79,3.06-3.57,6.08v4l-1.66.34v-4Q365,453.89,363.2,451.54Z"/><path class="cls-3" d="M367.28,401.64a110.42,110.42,0,0,0-50.28,0c-8,2.17-12.19,5.24-12.19,8.88v88.32a5,5,0,0,0,.95,2.89,8.44,8.44,0,0,0,1,1.18c4.79,4.62,19,7.72,35.36,7.72s30.59-3.1,35.38-7.73a7.34,7.34,0,0,0,1-1.17,5,5,0,0,0,1-2.89V410.52C379.47,406.88,375.25,403.81,367.28,401.64Zm8.49,98.17a4.73,4.73,0,0,1-.58.67c-4.08,3.94-18,6.8-33.06,6.8s-29-2.86-33-6.8a4.32,4.32,0,0,1-.58-.68,1.63,1.63,0,0,1-.34-1V415.72a19,19,0,0,0,2.49,1.42l0,0c.45.21.93.42,1.43.63l.12,0c.48.2,1,.39,1.51.58l.19.06,1.37.45.43.13c.45.14.91.27,1.37.39l.63.17,1.38.34.8.18,1.37.29.92.18,1.1.2,1.26.21,1,.16,1.36.18,1.17.15c.36,0,.71.09,1.07.12l1.59.17.81.07,1.94.15.69.05,2.13.11.52,0c.78,0,1.56.06,2.34.08h.31l2.59,0,2.59,0H345c.78,0,1.56,0,2.33-.08l.53,0,2.12-.11.7-.05c.65,0,1.3-.09,1.93-.15l.83-.08c.52,0,1-.1,1.55-.15l1.11-.13,1.16-.14,1.37-.2,1-.15,1.28-.21,1.09-.2.92-.18,1.37-.29.8-.18,1.39-.34.6-.16c.49-.13,1-.27,1.43-.41l.36-.11c.49-.15,1-.31,1.43-.47l.15-.05c.54-.19,1.05-.39,1.55-.59l.08,0c.51-.21,1-.43,1.46-.65h0a19.2,19.2,0,0,0,2.5-1.42v83.12A1.68,1.68,0,0,1,375.77,499.81Zm-33.64-97.72c21.06,0,34,4.91,34,8.43a1.78,1.78,0,0,1-.34,1c-1.48,2.17-6.74,4.39-14.51,5.84h-.07l-.88.16-.92.15h0A107.19,107.19,0,0,1,345,418.92h-.48l-.92,0h-3l-.92,0h-.49a108.3,108.3,0,0,1-14.3-1.25h-.06l-.87-.15-.94-.17h0c-7.77-1.44-13-3.66-14.51-5.84a1.75,1.75,0,0,1-.35-1C308.17,407,321.09,402.09,342.13,402.09Z"/><text class="cls-16" transform="translate(554.02 448.39)">A<tspan class="cls-17" x="12.95" y="0">p</tspan><tspan class="cls-18" x="23.71" y="0">a</tspan><tspan class="cls-19" x="33.81" y="0">c</tspan><tspan class="cls-20" x="42.84" y="0">h</tspan><tspan x="53.89" y="0">e I</tspan><tspan class="cls-21" x="76.49" y="0">g</tspan><tspan class="cls-22" x="86.76" y="0">n</tspan><tspan class="cls-23" x="97.59" y="0">i</tspan><tspan class="cls-24" x="103.01" y="0">t</tspan><tspan x="110.06" y="0">e</tspan><tspan class="cls-25" x="0" y="24">I</tspan><tspan class="cls-26" x="4.89" y="24">n-</tspan><tspan class="cls-20" x="25.35" y="24">M</tspan><tspan class="cls-27" x="40.95" y="24">e</tspan><tspan class="cls-17" x="51.33" y="24">m</tspan><tspan class="cls-28" x="68.63" y="24">o</tspan><tspan class="cls-29" x="79.54" y="24">r</tspan><tspan x="86.77" y="24">y</tspan><tspan class="cls-30"><tspan x="0" y="48">T</tspan><tspan class="cls-27" x="10.56" y="48">i</tspan><tspan class="cls-31" x="15.72" y="48">e</tspan><tspan class="cls-26" x="26.26" y="48">r</tspan></tspan></text><text class="cls-16" transform="translate(307.66 867.56)"><tspan class="cls-18">D</tspan><tspan class="cls-32" x="12.83" y="0">i</tspan><tspan class="cls-17" x="18.15" y="0">s</tspan><tspan x="26.29" y="0">k </tspan><tspan class="cls-30" x="44.35" y="0">T</tspan><tspan class="cls-27" x="54.91" y="0">i</tspan><tspan class="cls-33" x="60.07" y="0">e</tspan><tspan x="70.62" y="0">r</tspan></text></g></g></svg>