<svg xmlns="http://www.w3.org/2000/svg" viewBox="0 0 1264 1110"><defs><style>.cls-1{isolation:isolate;}.cls-2{fill:#777;}.cls-3{fill:#e5282a;}.cls-4,.cls-5{fill:#efeeed;}.cls-5{mix-blend-mode:multiply;}.cls-6{fill:#010101;}.cls-7{fill:#575656;}.cls-8{fill:#e52529;}.cls-9{fill:#fff;}.cls-10{fill:#020202;}.cls-11{font-size:12.2px;letter-spacing:0em;}.cls-11,.cls-15,.cls-16{fill:#1d1d1b;}.cls-11,.cls-16{font-family:MavenProMedium, Maven Pro;}.cls-12{letter-spacing:-0.01em;}.cls-13{letter-spacing:-0.01em;}.cls-14{letter-spacing:0em;}.cls-16{font-size:19.51px;}.cls-17{letter-spacing:-0.02em;}.cls-18{letter-spacing:-0.02em;}.cls-19{letter-spacing:-0.01em;}.cls-20{letter-spacing:-0.01em;}.cls-21{letter-spacing:-0.01em;}.cls-22{letter-spacing:-0.03em;}.cls-23{letter-spacing:-0.01em;}.cls-24{letter-spacing:-0.01em;}.cls-25{letter-spacing:-0.02em;}.cls-26{letter-spacing:0em;}.cls-27{letter-spacing:-0.02em;}.cls-28{letter-spacing:-0.01em;}.cls-29{letter-spacing:0.03em;}.cls-30{letter-spacing:-0.03em;}.cls-31{letter-spacing:-0.01em;}.cls-32{letter-spacing:-0.02em;}.cls-33{letter-spacing:-0.01em;}</style></defs><g class="cls-1"><g id="Capa_1" data-name="Capa 1"><path class="cls-2" d="M635.14,778.34a2.43,2.43,0,0,1-.58,1.58l-8.89,10.39a2.42,2.42,0,0,1-3.68,0l-8.89-10.39a2.42,2.42,0,1,1,3.68-3.15l7.05,8.24,7-8.24a2.43,2.43,0,0,1,4.27,1.57Z"/><path class="cls-2" d="M626.25,741v46.62a2.43,2.43,0,0,1-4.85,0V741a2.43,2.43,0,0,1,4.85,0Z"/><path class="cls-3" d="M623.83,765a6.59,6.59,0,1,1,6.58-6.58A6.59,6.59,0,0,1,623.83,765Z"/><path class="cls-4" d="M623.83,754.1a4.32,4.32,0,1,1-4.32,4.32,4.32,4.32,0,0,1,4.32-4.32m0-4.53a8.85,8.85,0,1,0,8.84,8.85,8.85,8.85,0,0,0-8.84-8.85Z"/><path class="cls-2" d="M767.75,778.34a2.43,2.43,0,0,1-.58,1.58l-8.89,10.39a2.42,2.42,0,0,1-3.68,0l-8.89-10.39a2.42,2.42,0,1,1,3.68-3.15l7.05,8.24,7-8.24a2.42,2.42,0,0,1,4.26,1.57Z"/><path class="cls-2" d="M758.92,741v46.62a2.42,2.42,0,0,1-4.84,0V741a2.42,2.42,0,0,1,4.84,0Z"/><path class="cls-2" d="M730.08,718l24.71,24.7a2.42,2.42,0,1,0,3.42-3.42l-24.7-24.71a2.43,2.43,0,0,0-3.43,3.43Z"/><circle class="cls-3" cx="756.44" cy="756.98" r="6.58"/><path class="cls-4" d="M756.44,752.66a4.32,4.32,0,1,1-4.32,4.32,4.33,4.33,0,0,1,4.32-4.32m0-4.53a8.85,8.85,0,1,0,8.85,8.85,8.85,8.85,0,0,0-8.85-8.85Z"/><path class="cls-2" d="M479.91,778.34a2.38,2.38,0,0,0,.58,1.58l8.88,10.39a2.43,2.43,0,0,0,3.69,0l8.88-10.39a2.42,2.42,0,1,0-3.68-3.15l-7,8.24-7.05-8.24a2.42,2.42,0,0,0-4.26,1.57Z"/><path class="cls-2" d="M488.73,741v46.62a2.43,2.43,0,0,0,4.85,0V741a2.43,2.43,0,0,0-4.85,0Z"/><path class="cls-2" d="M517.57,718l-24.7,24.7a2.42,2.42,0,1,1-3.43-3.42l24.71-24.71a2.42,2.42,0,0,1,3.42,3.43Z"/><circle class="cls-3" cx="503.58" cy="728.62" r="6.58"/><path class="cls-4" d="M503.58,724.3a4.32,4.32,0,1,1-4.31,4.32,4.33,4.33,0,0,1,4.31-4.32m0-4.53a8.85,8.85,0,1,0,8.85,8.85,8.84,8.84,0,0,0-8.85-8.85Z"/><rect class="cls-5" x="374.31" y="232.63" width="485.56" height="123.62" rx="6.39"/><path class="cls-6" d="M552,185.05,557,172.67h1.68l4.92,12.38h-1.86l-1.33-3.47h-5.16l-1.33,3.47Zm3.8-5.09h3.93l-2-5.13Z"/><path class="cls-6" d="M565.47,188.57v-9.95a3,3,0,0,1,.06-.59,2.65,2.65,0,0,1,.27-.75,2.71,2.71,0,0,1,.6-.79,3.35,3.35,0,0,1,1.14-.6,5.91,5.91,0,0,1,1.77-.25,5.66,5.66,0,0,1,1,.09,3.69,3.69,0,0,1,1.07.41,3.38,3.38,0,0,1,1,.83,3.92,3.92,0,0,1,.71,1.42,7.22,7.22,0,0,1,.29,2.13,6.54,6.54,0,0,1-.38,2.35,3,3,0,0,1-1,1.44,4.51,4.51,0,0,1-1.35.68,5.39,5.39,0,0,1-1.5.2,7.1,7.1,0,0,1-2-.27v3.65Zm1.7-5.27a5.34,5.34,0,0,0,2,.37,3.87,3.87,0,0,0,1-.11,2.14,2.14,0,0,0,.8-.42,1.88,1.88,0,0,0,.59-1,5.58,5.58,0,0,0,.2-1.66,6.45,6.45,0,0,0-.2-1.79,2.07,2.07,0,0,0-.59-1,2,2,0,0,0-.75-.44,2.77,2.77,0,0,0-.85-.12c-1.43,0-2.14.46-2.14,1.38Z"/><path class="cls-6" d="M575.64,188.57v-9.95a2.94,2.94,0,0,1,.05-.59,3.1,3.1,0,0,1,.28-.75,2.55,2.55,0,0,1,.6-.79,3.17,3.17,0,0,1,1.14-.6,5.84,5.84,0,0,1,1.76-.25,5.58,5.58,0,0,1,1,.09,3.74,3.74,0,0,1,1.08.41,3.51,3.51,0,0,1,1,.83,4.08,4.08,0,0,1,.71,1.42,7.23,7.23,0,0,1,.28,2.13,6.55,6.55,0,0,1-.37,2.35,3,3,0,0,1-1,1.44,4.59,4.59,0,0,1-1.34.68,5.52,5.52,0,0,1-1.51.2,7.15,7.15,0,0,1-2-.27v3.65Zm1.69-5.27a5.38,5.38,0,0,0,2,.37,4,4,0,0,0,1-.11,2.1,2.1,0,0,0,.79-.42,1.89,1.89,0,0,0,.6-1,5.93,5.93,0,0,0,.2-1.66,6.85,6.85,0,0,0-.2-1.79,2.15,2.15,0,0,0-.59-1,2,2,0,0,0-.75-.44,2.84,2.84,0,0,0-.86-.12c-1.43,0-2.14.46-2.14,1.38Z"/><path class="cls-6" d="M586.14,185.05V172.26h1.69v12.79Z"/><path class="cls-6" d="M590.88,174.36v-1.8h1.81v1.8Zm.06,10.69v-9.26h1.69v9.26Z"/><path class="cls-6" d="M596.17,184a6.28,6.28,0,0,1,0-7.1,4.07,4.07,0,0,1,3.21-1.23,7.52,7.52,0,0,1,2.73.52v1.61a5.89,5.89,0,0,0-2.55-.61h0a2.88,2.88,0,0,0-2,.66,3.53,3.53,0,0,0-.72,2.6,5.83,5.83,0,0,0,.21,1.7,1.93,1.93,0,0,0,.64,1,2.24,2.24,0,0,0,.85.44,4.33,4.33,0,0,0,1,.11,6.07,6.07,0,0,0,2.58-.59v1.6a7.51,7.51,0,0,1-2.73.51A4.1,4.1,0,0,1,596.17,184Z"/><path class="cls-6" d="M603.82,182.12A2.44,2.44,0,0,1,605,180a5.67,5.67,0,0,1,3.2-.78,13,13,0,0,1,1.68.11,2.24,2.24,0,0,0-.63-1.67,2.9,2.9,0,0,0-1.92-.51,7.88,7.88,0,0,0-2.56.46v-1.45a7.86,7.86,0,0,1,2.8-.5,4.2,4.2,0,0,1,3,1,3.8,3.8,0,0,1,1.05,2.88v2.67a3.05,3.05,0,0,1-.06.6,3.26,3.26,0,0,1-.28.75,2.67,2.67,0,0,1-.6.81,3.15,3.15,0,0,1-1.15.59,5.58,5.58,0,0,1-1.76.25,5.47,5.47,0,0,1-1.8-.26,3.37,3.37,0,0,1-1.16-.6,2.51,2.51,0,0,1-.62-.82,3.35,3.35,0,0,1-.29-.78A4.3,4.3,0,0,1,603.82,182.12Zm1.69,0c0,1.05.75,1.57,2.23,1.57h0c1.39,0,2.09-.5,2.09-1.5v-1.5a11.68,11.68,0,0,0-1.61-.12,5.37,5.37,0,0,0-.77.07,8.54,8.54,0,0,0-.88.21,1.84,1.84,0,0,0-.78.48A1.15,1.15,0,0,0,605.51,182.1Z"/><path class="cls-6" d="M612.92,177.24v-1.45h1.61V173h1.69v2.75h2.47v1.45h-2.47v5.35c0,.72.46,1.08,1.37,1.08h0a2.06,2.06,0,0,0,1.08-.27v1.53a3.24,3.24,0,0,1-1.27.26h0a3.68,3.68,0,0,1-.71-.08,4.17,4.17,0,0,1-.91-.32,2,2,0,0,1-.88-.83,2.91,2.91,0,0,1-.34-1.47v-5.25Z"/><path class="cls-6" d="M620.92,174.36v-1.8h1.81v1.8Zm.06,10.69v-9.26h1.69v9.26Z"/><path class="cls-6" d="M625.51,182.82a6.54,6.54,0,0,1-.39-2.39,6.47,6.47,0,0,1,.39-2.39,3.31,3.31,0,0,1,1.06-1.48,4.25,4.25,0,0,1,1.38-.69,5.79,5.79,0,0,1,3.09,0,4.11,4.11,0,0,1,1.37.69,3.25,3.25,0,0,1,1.07,1.48,6.47,6.47,0,0,1,.39,2.39,6.54,6.54,0,0,1-.39,2.39,3.22,3.22,0,0,1-1.07,1.47,4.35,4.35,0,0,1-1.37.7,6.07,6.07,0,0,1-3.09,0,4.5,4.5,0,0,1-1.38-.7A3.28,3.28,0,0,1,625.51,182.82Zm1.54-4.1a6.26,6.26,0,0,0-.2,1.71,6.13,6.13,0,0,0,.2,1.7,2,2,0,0,0,.61,1,2.13,2.13,0,0,0,.83.43,4.65,4.65,0,0,0,2,0,2.21,2.21,0,0,0,.83-.43,2,2,0,0,0,.61-1,6.13,6.13,0,0,0,.2-1.7,6.26,6.26,0,0,0-.2-1.71,2,2,0,0,0-.61-1,2.36,2.36,0,0,0-.83-.43,4.65,4.65,0,0,0-2,0,2.28,2.28,0,0,0-.83.43A2,2,0,0,0,627.05,178.72Z"/><path class="cls-6" d="M636,185.05v-8.48a8.85,8.85,0,0,1,3.94-.95,3.93,3.93,0,0,1,2.76.92,3.3,3.3,0,0,1,1,2.54v6H642V179a1.86,1.86,0,0,0-.42-1.29,2.22,2.22,0,0,0-1.68-.48,6.91,6.91,0,0,0-2.18.34v7.53Z"/><path class="cls-6" d="M653.22,185.05V172.67H655v10.76h6.14v1.62Z"/><path class="cls-6" d="M662.51,182.12a2.44,2.44,0,0,1,1.16-2.14,5.69,5.69,0,0,1,3.2-.78,13.33,13.33,0,0,1,1.69.11,2.25,2.25,0,0,0-.64-1.67,2.89,2.89,0,0,0-1.91-.51,7.94,7.94,0,0,0-2.57.46v-1.45a7.9,7.9,0,0,1,2.8-.5,4.2,4.2,0,0,1,3,1,3.8,3.8,0,0,1,1.06,2.88v2.67a3.05,3.05,0,0,1-.06.6,3.38,3.38,0,0,1-.29.75,2.38,2.38,0,0,1-.6.81,3.07,3.07,0,0,1-1.15.59,5.5,5.5,0,0,1-1.76.25,5.4,5.4,0,0,1-1.79-.26,3.34,3.34,0,0,1-1.17-.6,2.65,2.65,0,0,1-.62-.82,2.86,2.86,0,0,1-.28-.78A3.23,3.23,0,0,1,662.51,182.12Zm1.7,0c0,1.05.74,1.57,2.22,1.57h0q2.1,0,2.1-1.5v-1.5a11.93,11.93,0,0,0-1.61-.12,5.38,5.38,0,0,0-.78.07c-.27,0-.56.12-.88.21a1.84,1.84,0,0,0-.78.48A1.15,1.15,0,0,0,664.21,182.1Z"/><path class="cls-6" d="M671.52,175.79h1.82l2.49,6.93,2.45-6.93h1.82L676.29,186c-.66,1.78-1.61,2.67-2.87,2.67h0a6,6,0,0,1-1.29-.15V187a4.38,4.38,0,0,0,1,.16c.76,0,1.38-.72,1.85-2.14Z"/><path class="cls-6" d="M681.32,180.53q0-4.89,4.09-4.89h0a3.83,3.83,0,0,1,3,1.22,4.61,4.61,0,0,1,1.11,3.25c0,.44,0,.86,0,1.27h-6.4a2.4,2.4,0,0,0,2.61,2.38,6.72,6.72,0,0,0,3.2-.7v1.55a8.32,8.32,0,0,1-3.24.6h0a5.44,5.44,0,0,1-1.5-.2,4.58,4.58,0,0,1-1.34-.68,3,3,0,0,1-1-1.45A6.54,6.54,0,0,1,681.32,180.53Zm1.7-.67h4.76a4.25,4.25,0,0,0-.16-.89,3.66,3.66,0,0,0-.37-.85,1.94,1.94,0,0,0-.72-.7,2.32,2.32,0,0,0-1.12-.26,2.23,2.23,0,0,0-1.72.61A3.52,3.52,0,0,0,683,179.86Z"/><path class="cls-6" d="M691.68,185.05v-8.48a12.11,12.11,0,0,1,4.52-.93v1.56a11.6,11.6,0,0,0-2.82.39v7.46Z"/><path class="cls-4" d="M623.17,196.6v60.06a.92.92,0,1,0,1.84,0V196.6a.92.92,0,1,0-1.84,0Z"/><path class="cls-7" d="M828,441.38a9.11,9.11,0,0,1,0-4.56,4.69,4.69,0,0,1,.76-1.57,3.7,3.7,0,0,1,1.13-.95,4.36,4.36,0,0,1,1.32-.49,6.64,6.64,0,0,1,1.37-.13,8.64,8.64,0,0,1,3.23.63v1.37a7.47,7.47,0,0,0-3.06-.67,3.43,3.43,0,0,0-2.72,1,6.2,6.2,0,0,0,0,6.23,3.43,3.43,0,0,0,2.72,1,7.47,7.47,0,0,0,3.06-.67v1.36a8.65,8.65,0,0,1-3.23.64,7.41,7.41,0,0,1-1.37-.13,4.36,4.36,0,0,1-1.32-.49,3.7,3.7,0,0,1-1.13-.95A4.69,4.69,0,0,1,828,441.38Z"/><path class="cls-7" d="M837.6,442.49a5.38,5.38,0,0,1-.34-2,5.43,5.43,0,0,1,.34-2.05,2.72,2.72,0,0,1,.91-1.26,3.79,3.79,0,0,1,1.17-.59,4.93,4.93,0,0,1,2.64,0,3.79,3.79,0,0,1,1.17.59,2.72,2.72,0,0,1,.91,1.26,5.43,5.43,0,0,1,.34,2.05,5.38,5.38,0,0,1-.34,2,2.72,2.72,0,0,1-.91,1.26,3.59,3.59,0,0,1-1.17.59,4.93,4.93,0,0,1-2.64,0,3.59,3.59,0,0,1-1.17-.59A2.72,2.72,0,0,1,837.6,442.49Zm1.31-3.5a5.36,5.36,0,0,0-.17,1.46,5.29,5.29,0,0,0,.17,1.45,1.6,1.6,0,0,0,.53.85,1.77,1.77,0,0,0,.7.37,3.75,3.75,0,0,0,1.72,0,1.87,1.87,0,0,0,.71-.37,1.65,1.65,0,0,0,.52-.85,5.29,5.29,0,0,0,.17-1.45,5.36,5.36,0,0,0-.17-1.46,1.7,1.7,0,0,0-.52-.85,1.87,1.87,0,0,0-.71-.37,4.15,4.15,0,0,0-1.72,0,1.77,1.77,0,0,0-.7.37A1.64,1.64,0,0,0,838.91,439Z"/><path class="cls-7" d="M846.73,444.39v-7.26a7.33,7.33,0,0,1,3.28-.79,3.54,3.54,0,0,1,2.12.6,7.72,7.72,0,0,1,2.9-.6,3.27,3.27,0,0,1,2.33.79,2.82,2.82,0,0,1,.84,2.18v5.08h-1.44v-5.18a1.72,1.72,0,0,0-.34-1.1,1.59,1.59,0,0,0-1.3-.42,5.59,5.59,0,0,0-2.12.44,3.35,3.35,0,0,1,.18,1.13v5.13h-1.45v-5.17a1.56,1.56,0,0,0-.37-1.1,2,2,0,0,0-1.46-.4,6.61,6.61,0,0,0-1.73.24v6.43Z"/><path class="cls-7" d="M860.48,447.4v-8.49a2.14,2.14,0,0,1,.28-1.15,2.43,2.43,0,0,1,.51-.68,2.71,2.71,0,0,1,1-.51,5.18,5.18,0,0,1,2.37-.13,3.49,3.49,0,0,1,.92.34,3.11,3.11,0,0,1,.86.71,3.64,3.64,0,0,1,.61,1.22,6.2,6.2,0,0,1,.24,1.81,5.65,5.65,0,0,1-.32,2,2.64,2.64,0,0,1-.89,1.24,3.93,3.93,0,0,1-1.14.57,4.37,4.37,0,0,1-1.29.18,5.78,5.78,0,0,1-1.68-.24v3.12Zm1.45-4.5a4.6,4.6,0,0,0,1.68.32,2.9,2.9,0,0,0,.83-.1,1.92,1.92,0,0,0,.68-.35,1.69,1.69,0,0,0,.51-.83,5.05,5.05,0,0,0,.17-1.42,6,6,0,0,0-.17-1.53,1.76,1.76,0,0,0-.5-.88,1.84,1.84,0,0,0-.65-.38,2.28,2.28,0,0,0-.72-.1c-1.22,0-1.83.39-1.83,1.18Z"/><path class="cls-7" d="M869.22,441.07v-4.59h1.45v4.7a2.28,2.28,0,0,0,.46,1.58,1.89,1.89,0,0,0,1.44.5,1.82,1.82,0,0,0,1.43-.5,2.31,2.31,0,0,0,.45-1.58v-4.7h1.45v4.59a3.54,3.54,0,0,1-.87,2.55,3.78,3.78,0,0,1-4.92,0A3.5,3.5,0,0,1,869.22,441.07Z"/><path class="cls-7" d="M877.46,437.72v-1.24h1.38v-2.34h1.44v2.34h2.11v1.24h-2.11v4.57q0,.93,1.17.93h0a1.79,1.79,0,0,0,.92-.23v1.31a3,3,0,0,1-1.09.22h0a3.46,3.46,0,0,1-.62-.07,4.12,4.12,0,0,1-.77-.28,1.6,1.6,0,0,1-.75-.71,2.41,2.41,0,0,1-.29-1.25v-4.49Z"/><path class="cls-7" d="M883.8,440.53c0-2.78,1.17-4.17,3.49-4.17h0a3.22,3.22,0,0,1,2.53,1,3.9,3.9,0,0,1,.95,2.77,9.61,9.61,0,0,1,0,1.09h-5.46a2,2,0,0,0,2.23,2,5.74,5.74,0,0,0,2.73-.59V444a7.07,7.07,0,0,1-2.76.51h-.05a4.72,4.72,0,0,1-1.28-.17,3.89,3.89,0,0,1-1.15-.58,2.61,2.61,0,0,1-.87-1.24A5.42,5.42,0,0,1,883.8,440.53Zm1.46-.57h4.06a3.77,3.77,0,0,0-.13-.76,3.53,3.53,0,0,0-.32-.73,1.54,1.54,0,0,0-.62-.59,2,2,0,0,0-1-.22,1.89,1.89,0,0,0-1.46.51A3.09,3.09,0,0,0,885.26,440Z"/><path class="cls-7" d="M897.81,441.4a3.39,3.39,0,0,1,.44-1.67,4.35,4.35,0,0,1,1.72-1.49,3.58,3.58,0,0,1-1-2.1,2.48,2.48,0,0,1,2.48-2.46,2.45,2.45,0,0,1,1.76.69,2.28,2.28,0,0,1,.72,1.7,2.32,2.32,0,0,1-.44,1.43,5.06,5.06,0,0,1-1.42,1.15l2.06,2.47a6.37,6.37,0,0,0,.41-1.37H906a6.53,6.53,0,0,1-1,2.43l1.85,2.21h-1.76l-.93-1.1a4.05,4.05,0,0,1-3,1.23h0a3.86,3.86,0,0,1-1.57-.31,2.73,2.73,0,0,1-1.08-.8,4.11,4.11,0,0,1-.58-1A2.86,2.86,0,0,1,897.81,441.4Zm1.45.05a1.92,1.92,0,0,0,.08.51,2.48,2.48,0,0,0,.3.58,1.56,1.56,0,0,0,.64.53,2.38,2.38,0,0,0,1,.21,2.76,2.76,0,0,0,2.09-1l-2.54-3.06a4.73,4.73,0,0,0-.92.61,1.84,1.84,0,0,0-.5.63,2.29,2.29,0,0,0-.16.5A2.81,2.81,0,0,0,899.26,441.45Zm1.37-6.27a1.19,1.19,0,0,0-.35.86,3.2,3.2,0,0,0,.89,1.58,5.09,5.09,0,0,0,1.2-.86,1.17,1.17,0,0,0,.28-.78,1.12,1.12,0,0,0-.33-.82,1.2,1.2,0,0,0-.85-.33A1.15,1.15,0,0,0,900.63,435.18Z"/><path class="cls-7" d="M828.09,464.35V453.78h1.6l3.47,4.57,3.48-4.57h1.6v10.57h-1.47V456l-3.61,4.73L829.57,456v8.33Z"/><path class="cls-7" d="M840.38,461.85a2.08,2.08,0,0,1,1-1.83,4.89,4.89,0,0,1,2.74-.66,11.09,11.09,0,0,1,1.43.09A2,2,0,0,0,845,458a2.48,2.48,0,0,0-1.64-.43,7,7,0,0,0-2.19.39v-1.24a6.81,6.81,0,0,1,2.4-.42,3.56,3.56,0,0,1,2.55.85,3.23,3.23,0,0,1,.9,2.46v2.28a2.94,2.94,0,0,1,0,.51,2.66,2.66,0,0,1-.24.65,2.32,2.32,0,0,1-.52.69,2.69,2.69,0,0,1-1,.5,4.56,4.56,0,0,1-1.5.22,4.75,4.75,0,0,1-1.54-.23,2.68,2.68,0,0,1-1-.51,2.28,2.28,0,0,1-.53-.7,2.62,2.62,0,0,1-.24-.67A3.05,3.05,0,0,1,840.38,461.85Zm1.45,0c0,.89.63,1.34,1.9,1.34h0c1.19,0,1.79-.43,1.79-1.29v-1.28a10.29,10.29,0,0,0-1.37-.1,4,4,0,0,0-.67.06,6.7,6.7,0,0,0-.75.18,1.51,1.51,0,0,0-.66.41A1,1,0,0,0,841.83,461.84Z"/><path class="cls-7" d="M849.56,463.43a5.31,5.31,0,0,1,0-6.06,3.48,3.48,0,0,1,2.74-1.05,6.42,6.42,0,0,1,2.33.44v1.38a4.91,4.91,0,0,0-2.18-.52h0a2.46,2.46,0,0,0-1.71.56,3,3,0,0,0-.62,2.22,4.93,4.93,0,0,0,.18,1.45,1.76,1.76,0,0,0,.55.86,1.91,1.91,0,0,0,.72.37,3.28,3.28,0,0,0,.88.1,5.07,5.07,0,0,0,2.21-.51V464a6.42,6.42,0,0,1-2.33.44A3.48,3.48,0,0,1,849.56,463.43Z"/><path class="cls-7" d="M856.52,464.35V453.42H858v3.29a5.82,5.82,0,0,1,2.09-.39,3,3,0,0,1,2.3.88,3.49,3.49,0,0,1,.82,2.49v4.66H861.7v-4.71a1.92,1.92,0,0,0-.49-1.56,2.08,2.08,0,0,0-1.29-.38,5.28,5.28,0,0,0-1.95.38v6.27Z"/><path class="cls-7" d="M865.45,455.22v-1.53H867v1.53Zm0,9.13v-7.91H867v7.91Z"/><path class="cls-7" d="M869.53,464.35v-7.23a7.44,7.44,0,0,1,3.37-.82,3.38,3.38,0,0,1,2.36.79,2.81,2.81,0,0,1,.85,2.16v5.1h-1.48v-5.21a1.58,1.58,0,0,0-.36-1.1,1.88,1.88,0,0,0-1.43-.4,6,6,0,0,0-1.86.28v6.43Z"/><path class="cls-7" d="M878.07,460.49c0-2.78,1.17-4.17,3.49-4.17h0a3.22,3.22,0,0,1,2.53,1,3.9,3.9,0,0,1,.95,2.77c0,.38,0,.74,0,1.09h-5.47a2.05,2.05,0,0,0,2.23,2,5.74,5.74,0,0,0,2.73-.59V464a7.07,7.07,0,0,1-2.76.51h0a4.72,4.72,0,0,1-1.28-.17,4,4,0,0,1-1.15-.58,2.61,2.61,0,0,1-.87-1.24A5.42,5.42,0,0,1,878.07,460.49Zm1.46-.57h4.06a3.77,3.77,0,0,0-.13-.76,3.53,3.53,0,0,0-.32-.73,1.54,1.54,0,0,0-.62-.59,2.29,2.29,0,0,0-2.42.29A3.09,3.09,0,0,0,879.53,459.92Z"/><path class="cls-7" d="M892.6,464.35V453.78h1.48V463h5.24v1.38Z"/><path class="cls-7" d="M900.42,460.49c0-2.78,1.17-4.17,3.49-4.17h0a3.22,3.22,0,0,1,2.53,1,3.9,3.9,0,0,1,.95,2.77c0,.38,0,.74,0,1.09H901.9a2.05,2.05,0,0,0,2.23,2,5.74,5.74,0,0,0,2.73-.59V464a7.07,7.07,0,0,1-2.76.51h-.05a4.72,4.72,0,0,1-1.28-.17,4,4,0,0,1-1.15-.58,2.61,2.61,0,0,1-.87-1.24A5.42,5.42,0,0,1,900.42,460.49Zm1.46-.57h4.06a3.77,3.77,0,0,0-.13-.76,3.53,3.53,0,0,0-.32-.73,1.54,1.54,0,0,0-.62-.59,2.29,2.29,0,0,0-2.42.29A3.09,3.09,0,0,0,901.88,459.92Z"/><path class="cls-7" d="M908.87,461.85a2.08,2.08,0,0,1,1-1.83,4.88,4.88,0,0,1,2.73-.66,11.13,11.13,0,0,1,1.44.09,1.91,1.91,0,0,0-.55-1.43,2.45,2.45,0,0,0-1.63-.43,6.85,6.85,0,0,0-2.19.39v-1.24a6.79,6.79,0,0,1,2.39-.42,3.58,3.58,0,0,1,2.56.85,3.23,3.23,0,0,1,.9,2.46v2.28a2.94,2.94,0,0,1,0,.51,3.9,3.9,0,0,1-.24.65,2.32,2.32,0,0,1-.52.69,2.78,2.78,0,0,1-1,.5,4.62,4.62,0,0,1-1.51.22,4.73,4.73,0,0,1-1.53-.23,2.68,2.68,0,0,1-1-.51,2.28,2.28,0,0,1-.53-.7,2.71,2.71,0,0,1-.25-.67A3,3,0,0,1,908.87,461.85Zm1.44,0c0,.89.64,1.34,1.9,1.34h0c1.19,0,1.79-.43,1.79-1.29v-1.28a10.32,10.32,0,0,0-1.38-.1,3.85,3.85,0,0,0-.66.06,6.7,6.7,0,0,0-.75.18,1.4,1.4,0,0,0-.66.41A1,1,0,0,0,910.31,461.84Z"/><path class="cls-7" d="M917.53,464.35v-7.24a10.28,10.28,0,0,1,3.85-.79v1.33A10.2,10.2,0,0,0,919,458v6.37Z"/><path class="cls-7" d="M922.94,464.35v-7.23a7.44,7.44,0,0,1,3.37-.82,3.36,3.36,0,0,1,2.36.79,2.77,2.77,0,0,1,.85,2.16v5.1H928v-5.21a1.63,1.63,0,0,0-.35-1.1,1.92,1.92,0,0,0-1.44-.4,6.07,6.07,0,0,0-1.86.28v6.43Z"/><path class="cls-7" d="M932,455.22v-1.53h1.54v1.53Zm0,9.13v-7.91h1.44v7.91Z"/><path class="cls-7" d="M936,464.35v-7.23a7.44,7.44,0,0,1,3.37-.82,3.34,3.34,0,0,1,2.35.79,2.78,2.78,0,0,1,.86,2.16v5.1h-1.48v-5.21a1.58,1.58,0,0,0-.36-1.1,1.89,1.89,0,0,0-1.43-.4,6,6,0,0,0-1.86.28v6.43Z"/><path class="cls-7" d="M944.68,460.34a4.77,4.77,0,0,1,.83-2.94,3,3,0,0,1,2.56-1.1,3.74,3.74,0,0,1,2.3.65,2.18,2.18,0,0,1,.87,1.85v5.89a3,3,0,0,1-.15,1,2.75,2.75,0,0,1-.51.88,2.29,2.29,0,0,1-1.07.67,5.54,5.54,0,0,1-1.75.25,8.49,8.49,0,0,1-2.34-.34v-1.38a7.53,7.53,0,0,0,2.22.34,4.65,4.65,0,0,0,1.24-.14,1.3,1.3,0,0,0,.66-.38,1.34,1.34,0,0,0,.22-.43,2.61,2.61,0,0,0,0-.46V464a6.36,6.36,0,0,1-1.6.22,3.35,3.35,0,0,1-2.61-1A4.08,4.08,0,0,1,944.68,460.34Zm1.45,0a2.8,2.8,0,0,0,.55,2.05,2.13,2.13,0,0,0,1.52.51,4.26,4.26,0,0,0,1.6-.3v-3.89a1.21,1.21,0,0,0,0-.3,1.18,1.18,0,0,0-.17-.35.93.93,0,0,0-.53-.34,3.43,3.43,0,0,0-1-.12,2.29,2.29,0,0,0-.69.1,1.83,1.83,0,0,0-.61.35,1.7,1.7,0,0,0-.48.84A5.43,5.43,0,0,0,946.13,460.34Z"/><path class="cls-2" d="M635.22,436.75a2.43,2.43,0,0,1-.58,1.58l-8.89,10.4a2.44,2.44,0,0,1-3.68,0l-8.89-10.4a2.42,2.42,0,1,1,3.68-3.15l7,8.24,7.05-8.24a2.42,2.42,0,0,1,4.26,1.57Z"/><path class="cls-2" d="M626.33,379.23V446a2.42,2.42,0,0,1-4.84,0V379.23a2.42,2.42,0,0,1,4.84,0Z"/><path class="cls-2" d="M612.6,388.22a2.41,2.41,0,0,1,.58-1.57l8.89-10.4a2.42,2.42,0,0,1,3.68,0l8.89,10.4A2.42,2.42,0,0,1,631,389.8l-7.05-8.25-7,8.25a2.42,2.42,0,0,1-4.26-1.58Z"/><circle class="cls-3" cx="623.91" cy="411.63" r="6.58"/><path class="cls-4" d="M623.91,407.31a4.32,4.32,0,1,1-4.32,4.32,4.33,4.33,0,0,1,4.32-4.32m0-4.52a8.85,8.85,0,1,0,8.85,8.84,8.84,8.84,0,0,0-8.85-8.84Z"/><path class="cls-2" d="M800.5,379.12v34.93a2.42,2.42,0,1,1-4.84,0V379.12a2.42,2.42,0,1,1,4.84,0Z"/><path class="cls-2" d="M756.59,411.63H797.8a2.43,2.43,0,0,1,0,4.85H756.59a2.43,2.43,0,0,1,0-4.85Z"/><path class="cls-2" d="M809.39,388.22a2.41,2.41,0,0,0-.58-1.57l-8.89-10.4a2.42,2.42,0,0,0-3.68,0l-8.89,10.4A2.42,2.42,0,0,0,791,389.8l7.05-8.25,7,8.25a2.42,2.42,0,0,0,4.26-1.58Z"/><path class="cls-2" d="M759,414.05v25.48a2.42,2.42,0,1,1-4.84,0V414.05a2.42,2.42,0,1,1,4.84,0Z"/><path class="cls-2" d="M733.6,466.07l24.7-24.7a2.42,2.42,0,0,0-3.42-3.43l-24.71,24.71a2.42,2.42,0,1,0,3.43,3.42Z"/><path class="cls-2" d="M746.32,465.92a2.38,2.38,0,0,1-1.53.7l-13.63,1.07a2.43,2.43,0,0,1-2.61-2.6l1.07-13.64a2.42,2.42,0,1,1,4.83.37l-.84,10.82,10.81-.85a2.43,2.43,0,0,1,1.9,4.13Z"/><path class="cls-3" d="M756.33,444.42a6.58,6.58,0,1,1,6.58-6.58A6.59,6.59,0,0,1,756.33,444.42Z"/><path class="cls-4" d="M756.33,433.52a4.32,4.32,0,1,1-4.32,4.32,4.33,4.33,0,0,1,4.32-4.32m0-4.53a8.85,8.85,0,1,0,8.84,8.85,8.85,8.85,0,0,0-8.84-8.85Z"/><path class="cls-2" d="M447.32,379v34.94a2.42,2.42,0,1,0,4.84,0V379a2.42,2.42,0,0,0-4.84,0Z"/><path class="cls-2" d="M491.23,411.48H450a2.43,2.43,0,0,0,0,4.85h41.21a2.43,2.43,0,0,0,0-4.85Z"/><path class="cls-2" d="M438.43,388.08a2.43,2.43,0,0,1,.58-1.58l8.89-10.4a2.44,2.44,0,0,1,3.68,0l8.89,10.4a2.42,2.42,0,1,1-3.68,3.15l-7.05-8.24-7.05,8.24a2.42,2.42,0,0,1-4.26-1.57Z"/><path class="cls-2" d="M488.81,413.91v25.47a2.42,2.42,0,1,0,4.84,0V413.91a2.42,2.42,0,1,0-4.84,0Z"/><path class="cls-2" d="M514.22,465.93l-24.7-24.71a2.42,2.42,0,0,1,3.42-3.42l24.71,24.7a2.43,2.43,0,0,1-3.43,3.43Z"/><path class="cls-2" d="M501.5,465.77a2.39,2.39,0,0,0,1.53.71l13.63,1.06a2.41,2.41,0,0,0,1.9-.7,2.45,2.45,0,0,0,.71-1.9L518.2,451.3a2.42,2.42,0,1,0-4.83.38l.84,10.81-10.81-.85a2.43,2.43,0,0,0-1.9,4.13Z"/><path class="cls-3" d="M491.49,443.67a6.59,6.59,0,1,1,6.58-6.58A6.59,6.59,0,0,1,491.49,443.67Z"/><path class="cls-4" d="M491.49,432.77a4.32,4.32,0,1,1-4.32,4.32,4.33,4.33,0,0,1,4.32-4.32m0-4.53a8.85,8.85,0,1,0,8.85,8.85,8.84,8.84,0,0,0-8.85-8.85Z"/><path class="cls-8" d="M758.73,439.09H818.8a.92.92,0,1,0,0-1.84H758.73a.92.92,0,1,0,0,1.84Z"/><path class="cls-7" d="M296,441.81l4.22-10.57h1.44l4.2,10.57h-1.59l-1.13-3H298.7l-1.13,3Zm3.25-4.35h3.36l-1.68-4.38Z"/><path class="cls-7" d="M307.09,438.8a9.15,9.15,0,0,1,0-4.57,4.69,4.69,0,0,1,.76-1.57,3.6,3.6,0,0,1,1.13-1,4.64,4.64,0,0,1,1.32-.49,7.43,7.43,0,0,1,1.37-.12,8.87,8.87,0,0,1,3.23.62v1.37a7.49,7.49,0,0,0-3.06-.66,3.45,3.45,0,0,0-2.72,1,6.2,6.2,0,0,0,0,6.23,3.42,3.42,0,0,0,2.72,1,7.35,7.35,0,0,0,3.06-.67v1.37a8.68,8.68,0,0,1-3.23.63,7.43,7.43,0,0,1-1.37-.12,5,5,0,0,1-1.32-.49,3.63,3.63,0,0,1-1.13-1A4.73,4.73,0,0,1,307.09,438.8Z"/><path class="cls-7" d="M317,441.81V431.24h1.48v10.57Z"/><path class="cls-7" d="M321.18,441.81V431.24h3.37a4.8,4.8,0,0,1,3.69,1.34,6.83,6.83,0,0,1,0,7.89,4.85,4.85,0,0,1-3.7,1.34Zm1.48-1.3h1.66a3.73,3.73,0,0,0,2.84-1,5.55,5.55,0,0,0,0-6.06,3.77,3.77,0,0,0-2.84-.95h-1.66Z"/><path class="cls-7" d="M336,432.61v-1.37h8.59v1.37h-3.56v9.2h-1.48v-9.2Z"/><path class="cls-7" d="M345.09,441.81v-7.25a10.52,10.52,0,0,1,3.85-.79v1.34a10.18,10.18,0,0,0-2.4.33v6.37Z"/><path class="cls-7" d="M350,439.31a2.11,2.11,0,0,1,1-1.84,4.88,4.88,0,0,1,2.73-.65,11.36,11.36,0,0,1,1.44.09,1.93,1.93,0,0,0-.55-1.43A2.45,2.45,0,0,0,353,435a6.61,6.61,0,0,0-2.19.4V434.2a6.76,6.76,0,0,1,2.39-.43,3.56,3.56,0,0,1,2.55.86,3.23,3.23,0,0,1,.9,2.46v2.28a2.21,2.21,0,0,1-.05.51,2.62,2.62,0,0,1-.24.64,2.29,2.29,0,0,1-.51.69,2.71,2.71,0,0,1-1,.51,5,5,0,0,1-1.51.21,4.75,4.75,0,0,1-1.53-.22,2.83,2.83,0,0,1-1-.52,2,2,0,0,1-.53-.7,2.31,2.31,0,0,1-.25-.66A3.15,3.15,0,0,1,350,439.31Zm1.45,0c0,.89.64,1.34,1.9,1.34h0c1.2,0,1.8-.43,1.8-1.28v-1.28a8.89,8.89,0,0,0-1.38-.1,3.85,3.85,0,0,0-.66.06,4,4,0,0,0-.75.18,1.47,1.47,0,0,0-.67.4A1,1,0,0,0,351.42,439.29Z"/><path class="cls-7" d="M358.7,441.81v-7.24a7.56,7.56,0,0,1,3.37-.81,3.38,3.38,0,0,1,2.36.78,2.78,2.78,0,0,1,.85,2.17v5.1H363.8v-5.22a1.65,1.65,0,0,0-.35-1.1,1.92,1.92,0,0,0-1.44-.4,6,6,0,0,0-1.86.29v6.43Z"/><path class="cls-7" d="M367.25,436.13a2.29,2.29,0,0,1,.7-1.67,2.94,2.94,0,0,1,2.14-.69,4.8,4.8,0,0,1,2.12.52v1.25a4.74,4.74,0,0,0-1.94-.47c-1,0-1.57.34-1.57,1a.65.65,0,0,0,.42.56,5.67,5.67,0,0,0,1,.38c.4.11.79.25,1.18.4a2.33,2.33,0,0,1,1,.79,2.36,2.36,0,0,1-.29,3,3.12,3.12,0,0,1-2.23.69,4.69,4.69,0,0,1-2.28-.56v-1.32a4.35,4.35,0,0,0,2.19.58h0a2.07,2.07,0,0,0,1.16-.27.85.85,0,0,0,.4-.7.92.92,0,0,0-.42-.79,3.25,3.25,0,0,0-1-.46c-.4-.11-.79-.23-1.19-.37a2.21,2.21,0,0,1-1-.68A1.77,1.77,0,0,1,367.25,436.13Z"/><path class="cls-7" d="M374.23,439.31a2.1,2.1,0,0,1,1-1.84,4.88,4.88,0,0,1,2.73-.65,11.25,11.25,0,0,1,1.44.09,1.89,1.89,0,0,0-.55-1.43,2.45,2.45,0,0,0-1.63-.44,6.61,6.61,0,0,0-2.19.4V434.2a6.8,6.8,0,0,1,2.39-.43,3.6,3.6,0,0,1,2.56.86,3.23,3.23,0,0,1,.9,2.46v2.28a2.94,2.94,0,0,1-.05.51,3.26,3.26,0,0,1-.25.64,2.14,2.14,0,0,1-.51.69,2.62,2.62,0,0,1-1,.51,4.92,4.92,0,0,1-1.51.21,4.75,4.75,0,0,1-1.53-.22,2.83,2.83,0,0,1-1-.52,2.16,2.16,0,0,1-.53-.7,2.66,2.66,0,0,1-.25-.66A3.12,3.12,0,0,1,374.23,439.31Zm1.44,0c0,.89.64,1.34,1.9,1.34h0c1.19,0,1.79-.43,1.79-1.28v-1.28A8.89,8.89,0,0,0,378,438a3.85,3.85,0,0,0-.66.06,4,4,0,0,0-.75.18,1.39,1.39,0,0,0-.66.4A1,1,0,0,0,375.67,439.29Z"/><path class="cls-7" d="M383.4,440.88a5.35,5.35,0,0,1,0-6.06,3.49,3.49,0,0,1,2.74-1.05,6.35,6.35,0,0,1,2.33.44v1.38a5,5,0,0,0-2.17-.52h0a2.42,2.42,0,0,0-1.71.57,3,3,0,0,0-.62,2.21,5,5,0,0,0,.18,1.46,1.65,1.65,0,0,0,.54.85,1.9,1.9,0,0,0,.73.38,3.72,3.72,0,0,0,.88.09,5.16,5.16,0,0,0,2.2-.5v1.36a6.35,6.35,0,0,1-2.33.44A3.49,3.49,0,0,1,383.4,440.88Z"/><path class="cls-7" d="M389.8,435.14V433.9h1.38v-2.35h1.45v2.35h2.1v1.24h-2.1v4.57c0,.61.39.92,1.17.92h0a1.77,1.77,0,0,0,.92-.23v1.31a2.78,2.78,0,0,1-1.08.22h0a2.72,2.72,0,0,1-.61-.07,4.56,4.56,0,0,1-.78-.27,1.68,1.68,0,0,1-.74-.71,2.45,2.45,0,0,1-.3-1.26v-4.48Z"/><path class="cls-7" d="M396.65,432.67v-1.53h1.54v1.53Zm0,9.14V433.9h1.45v7.91Z"/><path class="cls-7" d="M400.56,439.9a6.47,6.47,0,0,1,0-4.08,2.79,2.79,0,0,1,.91-1.26,3.88,3.88,0,0,1,1.18-.6,5.17,5.17,0,0,1,2.63,0,3.88,3.88,0,0,1,1.18.6,2.79,2.79,0,0,1,.91,1.26,6.47,6.47,0,0,1,0,4.08,2.79,2.79,0,0,1-.91,1.26,3.88,3.88,0,0,1-1.18.6,5.17,5.17,0,0,1-2.63,0,3.88,3.88,0,0,1-1.18-.6A2.79,2.79,0,0,1,400.56,439.9Zm1.32-3.5a6.35,6.35,0,0,0,0,2.92,1.74,1.74,0,0,0,.52.85,2,2,0,0,0,.7.37,4.2,4.2,0,0,0,1.73,0,2,2,0,0,0,.7-.37,1.67,1.67,0,0,0,.52-.85,6,6,0,0,0,0-2.92,1.67,1.67,0,0,0-.52-.85,2,2,0,0,0-.7-.37,4.2,4.2,0,0,0-1.73,0,2,2,0,0,0-.7.37A1.74,1.74,0,0,0,401.88,436.4Z"/><path class="cls-7" d="M409.53,441.81v-7.24a7.56,7.56,0,0,1,3.37-.81,3.33,3.33,0,0,1,2.35.78,2.79,2.79,0,0,1,.86,2.17v5.1h-1.48v-5.22a1.6,1.6,0,0,0-.36-1.1,1.89,1.89,0,0,0-1.43-.4,6,6,0,0,0-1.86.29v6.43Z"/><path class="cls-7" d="M418.08,436.13a2.25,2.25,0,0,1,.7-1.67,2.94,2.94,0,0,1,2.14-.69,4.8,4.8,0,0,1,2.12.52v1.25a4.74,4.74,0,0,0-1.94-.47c-1.05,0-1.57.34-1.57,1a.65.65,0,0,0,.41.56,5.8,5.8,0,0,0,1,.38c.39.11.79.25,1.18.4a2.39,2.39,0,0,1,1,.79,2.34,2.34,0,0,1-.3,3,3.11,3.11,0,0,1-2.22.69,4.64,4.64,0,0,1-2.28-.56v-1.32a4.32,4.32,0,0,0,2.18.58h0a2,2,0,0,0,1.15-.27.83.83,0,0,0,.4-.7.94.94,0,0,0-.41-.79,3.36,3.36,0,0,0-1-.46c-.4-.11-.79-.23-1.19-.37a2.3,2.3,0,0,1-1-.68A1.81,1.81,0,0,1,418.08,436.13Z"/><path class="cls-8" d="M432.32,438h60.07a.93.93,0,0,0,0-1.85H432.32a.93.93,0,0,0,0,1.85Z"/><path class="cls-7" d="M548.93,410.5a2.79,2.79,0,0,1,.91-2.11,3.89,3.89,0,0,1,2.79-.87,6,6,0,0,1,2.72.64v1.44a4.79,4.79,0,0,0-2.54-.7c-1.6,0-2.4.53-2.4,1.6a1,1,0,0,0,.42.75,3.48,3.48,0,0,0,1,.51c.41.13.86.29,1.36.5a12.12,12.12,0,0,1,1.35.64,3,3,0,0,1,1,1,2.83,2.83,0,0,1,.42,1.55,2.47,2.47,0,0,1-1,2.11,4.54,4.54,0,0,1-2.8.77,7.22,7.22,0,0,1-3.15-.76v-1.52a5.75,5.75,0,0,0,3,.9c1.64,0,2.46-.5,2.47-1.5a1.53,1.53,0,0,0-.42-1.09,2.29,2.29,0,0,0-1-.66l-1.36-.46c-.5-.17-1-.35-1.36-.53a2.55,2.55,0,0,1-1-.84A2.26,2.26,0,0,1,548.93,410.5Z"/><path class="cls-7" d="M557.73,412.92a7.87,7.87,0,0,1,.3-2.28,4.73,4.73,0,0,1,.78-1.56,3.92,3.92,0,0,1,1.15-.95,4.64,4.64,0,0,1,1.32-.49,7.43,7.43,0,0,1,1.37-.12,7.58,7.58,0,0,1,1.39.12,4.58,4.58,0,0,1,1.31.49,3.88,3.88,0,0,1,1.14.95,4.37,4.37,0,0,1,.78,1.56,7.53,7.53,0,0,1,.31,2.28,7.89,7.89,0,0,1-.35,2.46,4.19,4.19,0,0,1-1,1.64,4.27,4.27,0,0,1-1.3.88,5.08,5.08,0,0,1-1.51.39,1.59,1.59,0,0,0,.42,1.09,1.48,1.48,0,0,0,1.16.47V421a3.09,3.09,0,0,1-2.17-.78,2.5,2.5,0,0,1-.86-1.91,5.75,5.75,0,0,1-1.56-.36,4.52,4.52,0,0,1-1.35-.86,3.82,3.82,0,0,1-1-1.65A7.61,7.61,0,0,1,557.73,412.92Zm1.7-1.81a7.56,7.56,0,0,0,0,3.62,3.55,3.55,0,0,0,.53,1.2,2.4,2.4,0,0,0,.8.68,3.06,3.06,0,0,0,.91.33,7.16,7.16,0,0,0,1,.07,7,7,0,0,0,1-.07,3.11,3.11,0,0,0,.92-.33,2.54,2.54,0,0,0,.81-.68,3.55,3.55,0,0,0,.54-1.2,7.91,7.91,0,0,0,0-3.62,3.91,3.91,0,0,0-.53-1.19,2.34,2.34,0,0,0-.81-.68,2.89,2.89,0,0,0-.92-.32,5.7,5.7,0,0,0-1-.07,5.63,5.63,0,0,0-1,.07,2.77,2.77,0,0,0-.91.32,2.4,2.4,0,0,0-.8.68A3.68,3.68,0,0,0,559.43,411.11Z"/><path class="cls-7" d="M569.77,418.21V407.64h1.47v9.19h5.25v1.38Z"/><path class="cls-8" d="M582.85,413.55H624.8a.93.93,0,0,0,0-1.85H582.85a.93.93,0,0,0,0,1.85Z"/><rect class="cls-5" x="380.35" y="818.7" width="473.47" height="131.48" rx="6.39"/><path class="cls-6" d="M516.7,925.14v-13.6h1.9v5.91h6.52v-5.91H527v13.6h-1.86v-5.92H518.6v5.92Z"/><path class="cls-6" d="M529.57,921.92a2.69,2.69,0,0,1,1.27-2.36,6.34,6.34,0,0,1,3.52-.84,15.86,15.86,0,0,1,1.85.11,2.52,2.52,0,0,0-.7-1.84,3.2,3.2,0,0,0-2.1-.55,8.66,8.66,0,0,0-2.82.5v-1.59a8.66,8.66,0,0,1,3.07-.55,4.6,4.6,0,0,1,3.29,1.1,4.18,4.18,0,0,1,1.16,3.16V922a2.81,2.81,0,0,1-.07.65,3.11,3.11,0,0,1-.31.83,2.76,2.76,0,0,1-.66.89,3.51,3.51,0,0,1-1.26.65,6.3,6.3,0,0,1-1.94.28,6.15,6.15,0,0,1-2-.29,3.79,3.79,0,0,1-1.28-.66,3,3,0,0,1-.68-.9,3.37,3.37,0,0,1-.31-.86A3.88,3.88,0,0,1,529.57,921.92Zm1.86,0c0,1.15.81,1.72,2.44,1.72h0q2.31,0,2.31-1.65v-1.64a12.36,12.36,0,0,0-1.77-.13,5.24,5.24,0,0,0-.86.07,7.08,7.08,0,0,0-1,.24,1.85,1.85,0,0,0-.85.52A1.22,1.22,0,0,0,531.43,921.9Z"/><path class="cls-6" d="M540.28,919.92a7,7,0,0,1,.42-2.57,3.48,3.48,0,0,1,1.14-1.59,4.57,4.57,0,0,1,1.48-.74,5.68,5.68,0,0,1,1.63-.22,8.07,8.07,0,0,1,2.18.3v-4H549V922a3.66,3.66,0,0,1-.06.65,4.47,4.47,0,0,1-.31.83,2.72,2.72,0,0,1-.66.88,3.54,3.54,0,0,1-1.25.65,6.17,6.17,0,0,1-1.92.28,7,7,0,0,1-1.13-.1,4.27,4.27,0,0,1-1.18-.45,3.6,3.6,0,0,1-1.1-.91,4.5,4.5,0,0,1-.78-1.57A7.86,7.86,0,0,1,540.28,919.92Zm1.86,0a7.62,7.62,0,0,0,.22,2A2.32,2.32,0,0,0,543,923a2.2,2.2,0,0,0,.82.48,3.05,3.05,0,0,0,1,.13c1.57,0,2.35-.5,2.34-1.51V916.9a5.76,5.76,0,0,0-2.18-.43,4.24,4.24,0,0,0-1.06.12,2.3,2.3,0,0,0-.87.46,2.07,2.07,0,0,0-.66,1.05A6.6,6.6,0,0,0,542.14,919.92Z"/><path class="cls-6" d="M551.67,922.69a8.26,8.26,0,0,1,0-5.26,3.62,3.62,0,0,1,1.17-1.62,4.82,4.82,0,0,1,1.52-.76,6.32,6.32,0,0,1,3.38,0,4.92,4.92,0,0,1,1.52.76,3.62,3.62,0,0,1,1.17,1.62,8.26,8.26,0,0,1,0,5.26,3.62,3.62,0,0,1-1.17,1.62,4.92,4.92,0,0,1-1.52.76,6.32,6.32,0,0,1-3.38,0,4.82,4.82,0,0,1-1.52-.76A3.62,3.62,0,0,1,551.67,922.69Zm1.7-4.51a7.8,7.8,0,0,0,0,3.76A2.08,2.08,0,0,0,554,923a2.24,2.24,0,0,0,.9.47,5.19,5.19,0,0,0,2.22,0,2.3,2.3,0,0,0,.9-.47,2.15,2.15,0,0,0,.67-1.09,7.8,7.8,0,0,0,0-3.76,2.15,2.15,0,0,0-.67-1.09,2.48,2.48,0,0,0-.9-.48,5.66,5.66,0,0,0-2.22,0,2.4,2.4,0,0,0-.9.48A2.08,2.08,0,0,0,553.37,918.18Z"/><path class="cls-6" d="M563.21,922.69a8.26,8.26,0,0,1,0-5.26,3.62,3.62,0,0,1,1.17-1.62,4.88,4.88,0,0,1,1.51-.76,6.13,6.13,0,0,1,1.7-.23,6,6,0,0,1,1.69.23,4.92,4.92,0,0,1,1.52.76,3.62,3.62,0,0,1,1.17,1.62,8.26,8.26,0,0,1,0,5.26,3.62,3.62,0,0,1-1.17,1.62,4.92,4.92,0,0,1-1.52.76,6,6,0,0,1-1.69.23,6.13,6.13,0,0,1-1.7-.23,4.88,4.88,0,0,1-1.51-.76A3.62,3.62,0,0,1,563.21,922.69Zm1.69-4.51a8.14,8.14,0,0,0,0,3.76,2.16,2.16,0,0,0,.68,1.09,2.24,2.24,0,0,0,.9.47,4.43,4.43,0,0,0,1.11.12,4.49,4.49,0,0,0,1.11-.12,2.3,2.3,0,0,0,.9-.47,2.15,2.15,0,0,0,.67-1.09,7.8,7.8,0,0,0,0-3.76,2.15,2.15,0,0,0-.67-1.09,2.48,2.48,0,0,0-.9-.48,4.53,4.53,0,0,0-1.11-.11,4.47,4.47,0,0,0-1.11.11,2.4,2.4,0,0,0-.9.48A2.16,2.16,0,0,0,564.9,918.18Z"/><path class="cls-6" d="M574.79,929V918.08a3.49,3.49,0,0,1,.06-.65,3.56,3.56,0,0,1,.3-.83,2.79,2.79,0,0,1,.66-.87,3.54,3.54,0,0,1,1.25-.65,6.05,6.05,0,0,1,1.94-.28,6.74,6.74,0,0,1,1.11.1,4.32,4.32,0,0,1,1.19.45,3.69,3.69,0,0,1,1.1.91,4.37,4.37,0,0,1,.79,1.56,8.29,8.29,0,0,1,.31,2.34,7.27,7.27,0,0,1-.41,2.58,3.38,3.38,0,0,1-1.14,1.59,5,5,0,0,1-1.48.74,5.74,5.74,0,0,1-1.66.23,7.72,7.72,0,0,1-2.16-.3v4Zm1.86-5.79a6,6,0,0,0,2.16.4,4.24,4.24,0,0,0,1.08-.12,2.59,2.59,0,0,0,.87-.45,2.16,2.16,0,0,0,.65-1.06,6.23,6.23,0,0,0,.23-1.83,7.24,7.24,0,0,0-.23-2,2.3,2.3,0,0,0-.64-1.14,2.51,2.51,0,0,0-.83-.49,3.35,3.35,0,0,0-.94-.12c-1.57,0-2.35.5-2.35,1.52Z"/><path class="cls-9" d="M549.83,840.57c-11.79,0-24,2.68-24,7.15v41a2.65,2.65,0,0,0,.51,1.54,4.44,4.44,0,0,0,.59.68c3,2.95,12.25,4.93,22.89,4.93s19.85-2,22.89-4.92a4,4,0,0,0,.59-.69,2.65,2.65,0,0,0,.51-1.54v-41C573.82,843.25,561.62,840.57,549.83,840.57Z"/><path class="cls-2" d="M573.2,844.81c-1.42-1.29-4-2.36-7.19-3.17l-.44-.11c-.48-.12-1-.22-1.46-.33l-.36-.07-1.68-.31c-.72-.12-1.47-.23-2.23-.33l-1.06-.13a79.46,79.46,0,0,0-8.95-.5h0c-12.1,0-24.6,2.74-24.6,7.33h0v42.09a2.71,2.71,0,0,0,.52,1.58,4.57,4.57,0,0,0,.6.69c3.13,3,12.56,5.06,23.48,5.06s20.36-2,23.48-5.05a4.59,4.59,0,0,0,.6-.7,2.73,2.73,0,0,0,.53-1.58V847.19A3.25,3.25,0,0,0,573.2,844.81Zm-44.58,2.3.17-.14a1.37,1.37,0,0,1,.23-.17l.23-.16.31-.18.31-.16.39-.18.37-.17.47-.19.44-.16.54-.19.5-.16.61-.19.57-.16.69-.18.62-.15.76-.17.68-.14.83-.16.73-.13.91-.15.77-.11,1-.13.81-.1,1.09-.11.82-.07c.39,0,.8-.06,1.2-.09l.82-.05c.45,0,.93,0,1.4-.06l.72,0c.73,0,1.47,0,2.23,0h0q1.14,0,2.22,0l.72,0q.72,0,1.41.06l.82.05c.4,0,.81,0,1.2.09l.83.07,1.08.11.81.1,1,.13.77.11.91.15.73.13.83.16.68.14.76.17.62.16.69.17.57.16.61.19.5.16.54.19c.16,0,.3.11.45.17l.46.18.37.17.39.18.31.16.31.18.24.16a1.28,1.28,0,0,1,.22.17l.17.14.08.08c-2.1,2-10.26,4.16-21.29,4.16s-19.22-2.15-21.26-4.14l0,0Zm42.48,42.17c-2.08,2-10.25,4.15-21.27,4.15s-19.19-2.14-21.3-4.19a.58.58,0,0,1-.13-.14V850.88c4.24,2.22,12.3,3.64,21.43,3.64s17.19-1.41,21.43-3.64V889.1A.93.93,0,0,1,571.1,889.28Z"/><path class="cls-6" d="M630.63,925.28v-13.6h2.16l7.61,10.82V911.68h1.9v13.6h-2.1l-7.67-10.89v10.89Z"/><path class="cls-6" d="M645.23,922.83a8.23,8.23,0,0,1,0-5.25A3.46,3.46,0,0,1,646.4,916a5.11,5.11,0,0,1,1.51-.76,6.64,6.64,0,0,1,3.39,0,5.16,5.16,0,0,1,1.52.76,3.52,3.52,0,0,1,1.16,1.63,8.05,8.05,0,0,1,0,5.25,3.54,3.54,0,0,1-1.16,1.62,5,5,0,0,1-1.52.77,6.64,6.64,0,0,1-3.39,0,4.91,4.91,0,0,1-1.51-.77A3.48,3.48,0,0,1,645.23,922.83Zm1.69-4.5a6.52,6.52,0,0,0-.22,1.87,6.59,6.59,0,0,0,.22,1.88,2.17,2.17,0,0,0,.67,1.09,2.44,2.44,0,0,0,.91.48,5.15,5.15,0,0,0,2.21,0,2.44,2.44,0,0,0,.91-.48,2.1,2.1,0,0,0,.67-1.09,6.59,6.59,0,0,0,.22-1.88,6.52,6.52,0,0,0-.22-1.87,2.18,2.18,0,0,0-.67-1.1,2.56,2.56,0,0,0-.91-.47,5.15,5.15,0,0,0-2.21,0,2.56,2.56,0,0,0-.91.47A2.25,2.25,0,0,0,646.92,918.33Z"/><path class="cls-6" d="M656.3,915.35a3.61,3.61,0,0,1,1.16-2.71,5,5,0,0,1,3.59-1.12,7.87,7.87,0,0,1,3.51.83v1.85a6.26,6.26,0,0,0-3.28-.91c-2,0-3.08.69-3.08,2.06a1.21,1.21,0,0,0,.54,1,4.53,4.53,0,0,0,1.34.66c.53.16,1.11.38,1.74.64a17.66,17.66,0,0,1,1.74.83,3.78,3.78,0,0,1,1.34,1.3,3.64,3.64,0,0,1,.54,2,3.21,3.21,0,0,1-1.31,2.72,5.91,5.91,0,0,1-3.61,1,9.12,9.12,0,0,1-4-1v-2a7.35,7.35,0,0,0,3.88,1.16c2.11,0,3.17-.64,3.18-1.93a2,2,0,0,0-.54-1.41,3,3,0,0,0-1.33-.84l-1.75-.6c-.64-.22-1.22-.44-1.75-.67a3.33,3.33,0,0,1-1.33-1.09A2.92,2.92,0,0,1,656.3,915.35Z"/><path class="cls-6" d="M667.62,918.47a10,10,0,0,1,.39-2.93,5.72,5.72,0,0,1,1-2,5,5,0,0,1,1.48-1.22,6.15,6.15,0,0,1,1.69-.63,9,9,0,0,1,1.76-.16,9.17,9.17,0,0,1,1.79.16,6.15,6.15,0,0,1,1.69.63,5.1,5.1,0,0,1,1.47,1.22,5.72,5.72,0,0,1,1,2,11.26,11.26,0,0,1-.06,6.09,5.13,5.13,0,0,1-1.23,2.11,5.52,5.52,0,0,1-1.67,1.14,6.57,6.57,0,0,1-1.95.5,2.08,2.08,0,0,0,.54,1.4,1.93,1.93,0,0,0,1.5.6v1.49a4,4,0,0,1-2.8-1,3.22,3.22,0,0,1-1.1-2.46,7.39,7.39,0,0,1-2-.46,5.77,5.77,0,0,1-1.73-1.11,5,5,0,0,1-1.29-2.12A9.8,9.8,0,0,1,667.62,918.47Zm2.18-2.32a8.37,8.37,0,0,0-.28,2.32,8.53,8.53,0,0,0,.28,2.34,4.57,4.57,0,0,0,.68,1.53,3,3,0,0,0,1,.88,3.82,3.82,0,0,0,1.18.42,7.8,7.8,0,0,0,1.25.09,8.11,8.11,0,0,0,1.26-.09,3.91,3.91,0,0,0,1.18-.42,3.15,3.15,0,0,0,1-.88,4.77,4.77,0,0,0,.69-1.53,9,9,0,0,0,.27-2.34,8.8,8.8,0,0,0-.27-2.32,4.77,4.77,0,0,0-.68-1.53,3.06,3.06,0,0,0-1-.88,4,4,0,0,0-1.18-.42,8,8,0,0,0-1.27-.09,7.75,7.75,0,0,0-1.26.09,3.77,3.77,0,0,0-1.17.42,3,3,0,0,0-1,.88A4.57,4.57,0,0,0,669.8,916.15Z"/><path class="cls-6" d="M683.1,925.28v-13.6H685v11.83h6.75v1.77Z"/><path class="cls-9" d="M660.51,840.72c-11.79,0-24,2.67-24,7.14v41a2.68,2.68,0,0,0,.51,1.54,5,5,0,0,0,.59.68c3,2.94,12.25,4.92,22.89,4.92s19.85-2,22.89-4.92a3.9,3.9,0,0,0,.59-.68,2.68,2.68,0,0,0,.51-1.54v-41C684.5,843.39,672.3,840.72,660.51,840.72Z"/><path class="cls-2" d="M683.89,845c-1.43-1.3-4-2.37-7.2-3.18l-.44-.11-1.46-.32-.36-.08c-.54-.1-1.1-.21-1.68-.3s-1.47-.23-2.22-.33l-1.07-.13a79.46,79.46,0,0,0-9-.5h0c-12.1,0-24.6,2.74-24.6,7.33h0v42.08a2.71,2.71,0,0,0,.52,1.58,4.67,4.67,0,0,0,.6.7c3.13,3,12.56,5,23.48,5s20.36-2,23.48-5a3.74,3.74,0,0,0,.6-.7,2.73,2.73,0,0,0,.53-1.58V847.34A3.25,3.25,0,0,0,683.89,845Zm-44.59,2.3.17-.15.23-.17.24-.15.3-.18.31-.16a3.54,3.54,0,0,1,.39-.19l.37-.16.47-.19.44-.17.54-.18.5-.17.62-.18.56-.16.69-.18.62-.16.76-.16.68-.15.83-.16.73-.13.91-.14.77-.12,1-.13.81-.09,1.09-.11.82-.08,1.2-.08.82-.06,1.4-.06.72,0c.73,0,1.47,0,2.23,0h0q1.14,0,2.22,0l.73,0,1.4.06.82.06,1.2.08.83.08,1.08.11.81.09,1,.13.77.12.91.14.73.13.83.16.68.15.76.16.63.16.68.18.57.16.61.18.51.17.53.18.45.17.46.19.38.16.38.19.31.16.31.18.24.15.23.17.17.15.07.07c-2.1,2-10.26,4.16-21.29,4.16s-19.22-2.14-21.26-4.14h0A.27.27,0,0,1,639.3,847.26Zm42.48,42.16c-2.08,2-10.25,4.16-21.27,4.16s-19.19-2.15-21.3-4.19l-.13-.14V851c4.24,2.23,12.3,3.65,21.43,3.65S677.7,853.25,682,851v38.23A1.36,1.36,0,0,1,681.78,889.42Z"/><path class="cls-6" d="M405,927v-13.6h5a5.53,5.53,0,0,1,3.59,1.07,3.69,3.69,0,0,1,1.31,3,3.86,3.86,0,0,1-.87,2.65,4.41,4.41,0,0,1-2.17,1.35l3.61,5.48h-2.24l-3.29-5.17h-3.05V927Zm1.9-7h3a3.27,3.27,0,0,0,2.43-.69,2.48,2.48,0,0,0,.65-1.78c0-1.67-1.05-2.5-3.16-2.5h-2.95Z"/><path class="cls-6" d="M417.9,927v-13.6h4.34a6.19,6.19,0,0,1,4.75,1.74,8.77,8.77,0,0,1,0,10.14,6.22,6.22,0,0,1-4.76,1.72Zm1.9-1.67h2.14a4.8,4.8,0,0,0,3.65-1.23,7.12,7.12,0,0,0,0-7.79,4.8,4.8,0,0,0-3.65-1.23H419.8Z"/><path class="cls-6" d="M431.64,927v-13.6h4.71a6.58,6.58,0,0,1,2.33.37,2.93,2.93,0,0,1,1.38,1,4,4,0,0,1,.59,1.17,4.19,4.19,0,0,1,.17,1.2,3.51,3.51,0,0,1-.17,1.09,2.6,2.6,0,0,1-.4.8,3.34,3.34,0,0,1-.47.51,2,2,0,0,1-.42.3l-.15.08.25.11a3.41,3.41,0,0,1,.58.32,4.15,4.15,0,0,1,.72.58,3.25,3.25,0,0,1,.59.92,3.18,3.18,0,0,1,.26,1.28,4.38,4.38,0,0,1-.18,1.27,4.33,4.33,0,0,1-.65,1.23,3.21,3.21,0,0,1-1.5,1,7.53,7.53,0,0,1-2.54.37Zm1.9-7.82h2.79a3.6,3.6,0,0,0,1.92-.42,1.71,1.71,0,0,0,.67-1.58,1.81,1.81,0,0,0-.71-1.64,3.72,3.72,0,0,0-2.06-.46h-2.61Zm0,6.15,3.08,0a4.05,4.05,0,0,0,2.33-.53,2,2,0,0,0,.76-1.75,1.79,1.79,0,0,0-.83-1.72,5,5,0,0,0-2.4-.46h-2.94Z"/><path class="cls-6" d="M444.38,927v-13.6h2.06l4.46,5.88,4.48-5.88h2.06V927h-1.9V916.27l-4.64,6.09-4.62-6.09V927Z"/><path class="cls-6" d="M460.43,917.07a3.65,3.65,0,0,1,1.16-2.72,5,5,0,0,1,3.59-1.11,7.8,7.8,0,0,1,3.51.82v1.85a6.25,6.25,0,0,0-3.28-.9c-2.05,0-3.08.68-3.08,2.06a1.18,1.18,0,0,0,.54,1,4.09,4.09,0,0,0,1.34.66c.53.17,1.11.38,1.74.64a17.87,17.87,0,0,1,1.75.83,3.75,3.75,0,0,1,1.33,1.3,3.64,3.64,0,0,1,.54,2,3.2,3.2,0,0,1-1.3,2.72,5.88,5.88,0,0,1-3.61,1,9.19,9.19,0,0,1-4.05-1v-1.95a7.36,7.36,0,0,0,3.88,1.15c2.11,0,3.17-.64,3.18-1.93a2,2,0,0,0-.54-1.41,3,3,0,0,0-1.33-.84l-1.75-.59c-.63-.22-1.22-.45-1.75-.68a3.22,3.22,0,0,1-1.33-1.08A2.94,2.94,0,0,1,460.43,917.07Z"/><path class="cls-9" d="M436.94,842.43c-11.79,0-24,2.67-24,7.15v41a2.62,2.62,0,0,0,.52,1.54,4.32,4.32,0,0,0,.58.68c3.05,2.95,12.25,4.92,22.89,4.92s19.85-2,22.89-4.92a3.9,3.9,0,0,0,.59-.68,2.69,2.69,0,0,0,.52-1.54v-41C460.94,845.1,448.73,842.43,436.94,842.43Z"/><path class="cls-2" d="M460.32,846.67c-1.43-1.3-4-2.37-7.2-3.18l-.44-.11-1.46-.32-.36-.07c-.54-.11-1.1-.21-1.68-.31s-1.46-.23-2.22-.33l-1.07-.13a79.46,79.46,0,0,0-8.95-.5h0c-12.1,0-24.6,2.74-24.6,7.33h0v42.08a2.74,2.74,0,0,0,.52,1.59,5.12,5.12,0,0,0,.6.69c3.13,3,12.56,5.05,23.48,5.05s20.36-2,23.48-5a4.73,4.73,0,0,0,.61-.71,2.76,2.76,0,0,0,.52-1.58V849.05A3.25,3.25,0,0,0,460.32,846.67ZM415.73,849l.17-.15.23-.17.24-.15.3-.18.31-.16.39-.19.37-.16.47-.19.44-.16c.17-.07.35-.13.54-.19l.5-.17.62-.18.56-.16.69-.18.62-.15.76-.17.68-.15.83-.15.73-.14.91-.14.77-.12,1-.12.81-.1,1.09-.11.82-.08,1.2-.08.82-.06L434,845l.72,0c.73,0,1.47,0,2.23,0h0c.76,0,1.5,0,2.22,0l.73,0,1.4.06.82.06,1.2.08.83.08,1.08.11.81.1,1,.12.78.12.9.14.73.14.83.15.68.15.76.17.63.15.68.18.57.16.61.18.51.17.53.19.45.16.46.19.38.16.38.19.31.16.31.18.24.15.23.17.17.15.07.08c-2.1,2-10.26,4.15-21.29,4.15s-19.22-2.14-21.26-4.13l0,0Zm42.49,42.16c-2.09,2-10.26,4.16-21.28,4.16s-19.19-2.14-21.3-4.19l-.13-.14V852.74c4.24,2.22,12.31,3.64,21.43,3.64s17.19-1.42,21.44-3.64V891Z"/><path class="cls-9" d="M789.67,842.42c-11.79,0-24,2.67-24,7.14v41a2.68,2.68,0,0,0,.51,1.54,4.92,4.92,0,0,0,.58.68c3.05,2.94,12.25,4.92,22.89,4.92s19.86-2,22.9-4.92a4.37,4.37,0,0,0,.59-.68,2.68,2.68,0,0,0,.51-1.54v-41C813.67,845.09,801.47,842.42,789.67,842.42Z"/><path class="cls-2" d="M813.05,846.66c-1.42-1.3-4-2.37-7.19-3.18l-.45-.11c-.47-.11-.95-.22-1.45-.32l-.36-.08c-.55-.1-1.11-.21-1.68-.3s-1.47-.23-2.23-.33l-1.07-.13a79.2,79.2,0,0,0-9-.5h0c-12.09,0-24.6,2.74-24.6,7.33h0v42.08a2.73,2.73,0,0,0,.53,1.58,4.16,4.16,0,0,0,.6.7c3.13,3,12.56,5.05,23.47,5.05s20.36-2,23.49-5.05a4.16,4.16,0,0,0,.6-.7,2.73,2.73,0,0,0,.53-1.58V849A3.23,3.23,0,0,0,813.05,846.66ZM768.47,849l.17-.15.22-.17.24-.15.31-.18.31-.17.39-.18.37-.16.47-.19.44-.17.53-.18.51-.17.61-.18.57-.16.69-.18.62-.16.76-.16.68-.15.83-.16.73-.13.91-.14.77-.12,1-.13.8-.09,1.1-.11.81-.08,1.21-.08.82-.06,1.4-.06.72,0c.72,0,1.47,0,2.22,0h0c.75,0,1.5,0,2.22,0l.72,0L794,845l.82.06,1.2.08.82.08,1.09.11.81.09,1,.13.77.12.91.14.73.13.83.16.68.15.76.16.62.16.69.18.56.16.62.18.5.17.54.18.44.17.47.19.37.16a3.54,3.54,0,0,1,.39.19l.31.16.31.17.24.16.22.17.17.15.07.07c-2.09,2-10.25,4.16-21.29,4.16s-19.21-2.15-21.26-4.14h0A.27.27,0,0,1,768.47,849ZM811,891.12c-2.08,2-10.25,4.16-21.28,4.16s-19.18-2.15-21.3-4.19l-.12-.14V852.72c4.24,2.23,12.3,3.65,21.42,3.65s17.2-1.42,21.44-3.65V891A1.33,1.33,0,0,1,811,891.12Z"/><path class="cls-10" d="M739.26,923.23a10.84,10.84,0,0,1,0-5.69,5.7,5.7,0,0,1,1-2,4.88,4.88,0,0,1,1.44-1.19,5.79,5.79,0,0,1,1.64-.61,9.22,9.22,0,0,1,3.42,0,5.79,5.79,0,0,1,1.64.61,4.71,4.71,0,0,1,1.43,1.19,5.7,5.7,0,0,1,1,2,10.84,10.84,0,0,1,0,5.69,5.61,5.61,0,0,1-1,2,4.71,4.71,0,0,1-1.43,1.19,5.5,5.5,0,0,1-1.64.61,9.22,9.22,0,0,1-3.42,0,5.5,5.5,0,0,1-1.64-.61,4.88,4.88,0,0,1-1.44-1.19A5.61,5.61,0,0,1,739.26,923.23Zm1.74-5.11a9.64,9.64,0,0,0,0,4.53,4.63,4.63,0,0,0,.66,1.49,2.93,2.93,0,0,0,1,.85,3.58,3.58,0,0,0,1.14.41,7.33,7.33,0,0,0,1.22.09,7.41,7.41,0,0,0,1.22-.09,3.58,3.58,0,0,0,1.14-.41,2.93,2.93,0,0,0,1-.85,4.63,4.63,0,0,0,.66-1.49,10,10,0,0,0,0-4.53,4.63,4.63,0,0,0-.66-1.49,2.93,2.93,0,0,0-1-.85,3.85,3.85,0,0,0-1.14-.41,7.49,7.49,0,0,0-1.22-.08,7.41,7.41,0,0,0-1.22.08,3.85,3.85,0,0,0-1.14.41,2.93,2.93,0,0,0-1,.85A4.63,4.63,0,0,0,741,918.12Z"/><path class="cls-10" d="M752.92,918.67v-1.55h1.72v-2.93h1.8v2.93h2.63v1.55h-2.63v5.7c0,.77.49,1.15,1.46,1.15h0a2.2,2.2,0,0,0,1.15-.28v1.63a3.44,3.44,0,0,1-1.35.28h-.05a3.49,3.49,0,0,1-.76-.09,5,5,0,0,1-1-.34,2.11,2.11,0,0,1-.94-.89,3.1,3.1,0,0,1-.36-1.56v-5.6Z"/><path class="cls-10" d="M761.4,927V913.34h1.8v4.11a7.36,7.36,0,0,1,2.62-.48,3.71,3.71,0,0,1,2.86,1.09,4.41,4.41,0,0,1,1,3.12V927h-1.84v-5.88a2.39,2.39,0,0,0-.62-1.94,2.52,2.52,0,0,0-1.6-.48,6.68,6.68,0,0,0-2.44.47V927Z"/><path class="cls-10" d="M772,922.17c0-3.47,1.46-5.2,4.36-5.2h0a4.08,4.08,0,0,1,3.16,1.29,4.93,4.93,0,0,1,1.19,3.46c0,.48,0,.93-.06,1.36h-6.82a2.56,2.56,0,0,0,2.78,2.54,7.31,7.31,0,0,0,3.41-.74v1.64a8.8,8.8,0,0,1-3.45.65h-.06a5.78,5.78,0,0,1-1.6-.22,4.93,4.93,0,0,1-1.43-.72,3.28,3.28,0,0,1-1.09-1.55A6.91,6.91,0,0,1,772,922.17Zm1.82-.71h5.07a4,4,0,0,0-.17-.94,4.23,4.23,0,0,0-.39-.92,2,2,0,0,0-.77-.74,2.53,2.53,0,0,0-1.2-.27,2.35,2.35,0,0,0-1.83.64A3.75,3.75,0,0,0,773.8,921.46Z"/><path class="cls-10" d="M783,927v-9a12.92,12.92,0,0,1,4.81-1v1.66a12.65,12.65,0,0,0-3,.41v8Z"/><path class="cls-10" d="M796.1,917.36a3.52,3.52,0,0,1,1.13-2.63,4.87,4.87,0,0,1,3.48-1.09,7.57,7.57,0,0,1,3.41.81v1.79a6.09,6.09,0,0,0-3.18-.88c-2,0-3,.67-3,2a1.16,1.16,0,0,0,.52.94,4.15,4.15,0,0,0,1.3.64c.51.16,1.08.36,1.69.62a14.77,14.77,0,0,1,1.69.81,3.55,3.55,0,0,1,1.82,3.18,3.12,3.12,0,0,1-1.27,2.65,5.73,5.73,0,0,1-3.5.95,8.87,8.87,0,0,1-3.92-.95v-1.89a7.19,7.19,0,0,0,3.76,1.12c2.05,0,3.08-.63,3.09-1.88a1.94,1.94,0,0,0-.53-1.36,2.89,2.89,0,0,0-1.29-.82l-1.69-.57c-.62-.22-1.19-.44-1.7-.66a3.27,3.27,0,0,1-1.29-1A2.85,2.85,0,0,1,796.1,917.36Z"/><path class="cls-10" d="M805.94,918.67v-1.55h1.72v-2.93h1.8v2.93h2.63v1.55h-2.63v5.7c0,.77.49,1.15,1.46,1.15h0a2.2,2.2,0,0,0,1.15-.28v1.63a3.44,3.44,0,0,1-1.35.28h0a3.49,3.49,0,0,1-.76-.09,5,5,0,0,1-1-.34,2.14,2.14,0,0,1-.93-.89,3.1,3.1,0,0,1-.36-1.56v-5.6Z"/><path class="cls-10" d="M814.29,924.61a7,7,0,0,1-.41-2.54,7.1,7.1,0,0,1,.41-2.55,3.5,3.5,0,0,1,1.14-1.58,4.84,4.84,0,0,1,1.47-.74,6.08,6.08,0,0,1,1.64-.21,6.16,6.16,0,0,1,1.65.21,4.68,4.68,0,0,1,1.46.74,3.5,3.5,0,0,1,1.14,1.58,6.87,6.87,0,0,1,.42,2.55,6.78,6.78,0,0,1-.42,2.54,3.45,3.45,0,0,1-1.14,1.58,4.68,4.68,0,0,1-1.46.74,6.15,6.15,0,0,1-1.65.22,6.08,6.08,0,0,1-1.64-.22,4.84,4.84,0,0,1-1.47-.74A3.45,3.45,0,0,1,814.29,924.61Zm1.65-4.36a6.15,6.15,0,0,0-.22,1.82,6.24,6.24,0,0,0,.22,1.82,2.07,2.07,0,0,0,.65,1.06,2.41,2.41,0,0,0,.88.46,4.14,4.14,0,0,0,1.07.11,4.27,4.27,0,0,0,1.08-.11,2.45,2.45,0,0,0,.87-.46,2.07,2.07,0,0,0,.65-1.06,6.24,6.24,0,0,0,.22-1.82,6.15,6.15,0,0,0-.22-1.82,2.1,2.1,0,0,0-.65-1.07,2.45,2.45,0,0,0-.87-.46,4.79,4.79,0,0,0-1.08-.11,4.63,4.63,0,0,0-1.07.11,2.41,2.41,0,0,0-.88.46A2.1,2.1,0,0,0,815.94,920.25Z"/><path class="cls-10" d="M825.57,927v-9a12.88,12.88,0,0,1,4.81-1v1.66a12.65,12.65,0,0,0-3,.41v8Z"/><path class="cls-10" d="M831.75,922.17c0-3.47,1.46-5.2,4.36-5.2h0a4.08,4.08,0,0,1,3.16,1.29,4.93,4.93,0,0,1,1.19,3.46c0,.48,0,.93-.06,1.36H833.6a2.56,2.56,0,0,0,2.78,2.54,7.31,7.31,0,0,0,3.41-.74v1.64a8.8,8.8,0,0,1-3.45.65h-.06a5.84,5.84,0,0,1-1.6-.22,5.06,5.06,0,0,1-1.43-.72,3.28,3.28,0,0,1-1.09-1.55A6.91,6.91,0,0,1,831.75,922.17Zm1.82-.71h5.07a4,4,0,0,0-.17-.94,4.23,4.23,0,0,0-.39-.92,2,2,0,0,0-.77-.74,2.53,2.53,0,0,0-1.2-.27,2.35,2.35,0,0,0-1.83.64A3.75,3.75,0,0,0,833.57,921.46Z"/><path class="cls-4" d="M623.17,922.6v60.07a.92.92,0,1,0,1.84,0V922.6a.92.92,0,0,0-1.84,0Z"/><rect class="cls-4" x="495.17" y="496.93" width="257.94" height="199.64" rx="6.39"/><path class="cls-4" d="M747.23,591.31h77a.92.92,0,0,0,0-1.84h-77a.92.92,0,1,0,0,1.84Z"/><path class="cls-6" d="M396.33,330.46l4.93-12.37H403l4.92,12.37H406L404.68,327h-5.17l-1.33,3.47Zm3.8-5.08h3.93l-2-5.14Z"/><path class="cls-6" d="M409.77,334V324a3.81,3.81,0,0,1,.05-.59,3.1,3.1,0,0,1,.28-.75,2.76,2.76,0,0,1,.6-.8,3,3,0,0,1,1.14-.59,5.6,5.6,0,0,1,1.77-.25,5.47,5.47,0,0,1,1,.09,3.74,3.74,0,0,1,1.08.41,3.35,3.35,0,0,1,1,.82,4.23,4.23,0,0,1,.71,1.43,7.15,7.15,0,0,1,.29,2.12,6.54,6.54,0,0,1-.38,2.35,3,3,0,0,1-1,1.45,4.43,4.43,0,0,1-1.34.67,5.15,5.15,0,0,1-1.51.21,7.15,7.15,0,0,1-2-.27V334Zm1.69-5.28a5.43,5.43,0,0,0,2,.38,3.9,3.9,0,0,0,1-.11,2.25,2.25,0,0,0,.79-.42,1.94,1.94,0,0,0,.6-1,6,6,0,0,0,.2-1.67,6.91,6.91,0,0,0-.2-1.79,2,2,0,0,0-.59-1,2.14,2.14,0,0,0-.75-.45,2.77,2.77,0,0,0-.85-.12c-1.43,0-2.15.47-2.15,1.39Z"/><path class="cls-6" d="M419.93,334V324a2.88,2.88,0,0,1,.06-.59,2.73,2.73,0,0,1,.28-.75,2.44,2.44,0,0,1,.6-.8,3,3,0,0,1,1.14-.59,5.5,5.5,0,0,1,1.76-.25,5.66,5.66,0,0,1,1,.09,3.74,3.74,0,0,1,1.08.41,3.47,3.47,0,0,1,1,.82,4.23,4.23,0,0,1,.71,1.43,7.16,7.16,0,0,1,.28,2.12,6.55,6.55,0,0,1-.37,2.35,3.11,3.11,0,0,1-1,1.45,4.55,4.55,0,0,1-1.34.67,5.15,5.15,0,0,1-1.51.21,7.1,7.1,0,0,1-2-.27V334Zm1.7-5.28a5.39,5.39,0,0,0,2,.38,3.81,3.81,0,0,0,1-.11,2.29,2.29,0,0,0,.8-.42,1.86,1.86,0,0,0,.59-1,5.62,5.62,0,0,0,.21-1.67,6.46,6.46,0,0,0-.21-1.79,2,2,0,0,0-.58-1,2.27,2.27,0,0,0-.76-.45,2.72,2.72,0,0,0-.85-.12c-1.43,0-2.14.47-2.14,1.39Z"/><path class="cls-6" d="M430.43,330.46V317.68h1.7v12.78Z"/><path class="cls-6" d="M435.18,319.77V318H437v1.79Zm.06,10.69V321.2h1.69v9.26Z"/><path class="cls-6" d="M440.47,329.38a6.28,6.28,0,0,1,0-7.1,4.1,4.1,0,0,1,3.21-1.22,7.32,7.32,0,0,1,2.73.52v1.61a5.75,5.75,0,0,0-2.55-.61h0a2.87,2.87,0,0,0-2,.66,3.5,3.5,0,0,0-.72,2.59,5.86,5.86,0,0,0,.21,1.71,2,2,0,0,0,.63,1,2.51,2.51,0,0,0,.86.44,4.3,4.3,0,0,0,1,.11,6,6,0,0,0,2.59-.6v1.61a7.51,7.51,0,0,1-2.73.51A4.07,4.07,0,0,1,440.47,329.38Z"/><path class="cls-6" d="M448.12,327.54a2.43,2.43,0,0,1,1.16-2.15,5.76,5.76,0,0,1,3.2-.77,13,13,0,0,1,1.68.11,2.29,2.29,0,0,0-.64-1.68,2.87,2.87,0,0,0-1.91-.51,7.91,7.91,0,0,0-2.56.47v-1.45a7.86,7.86,0,0,1,2.8-.5,4.17,4.17,0,0,1,3,1,3.8,3.8,0,0,1,1.05,2.88v2.67a2.88,2.88,0,0,1-.06.59,3.31,3.31,0,0,1-.28.76,2.55,2.55,0,0,1-.61.81,3.33,3.33,0,0,1-1.14.59,5.89,5.89,0,0,1-1.76.25,5.7,5.7,0,0,1-1.8-.26,3.37,3.37,0,0,1-1.16-.61,2.58,2.58,0,0,1-.62-.81,3.22,3.22,0,0,1-.29-.78A4.3,4.3,0,0,1,448.12,327.54Zm1.69,0c0,1,.74,1.57,2.23,1.57h0c1.4,0,2.1-.51,2.1-1.51v-1.49a10.39,10.39,0,0,0-1.61-.12,4.26,4.26,0,0,0-.78.07,5.45,5.45,0,0,0-.87.21,1.57,1.57,0,0,0-.78.48A1.09,1.09,0,0,0,449.81,327.52Z"/><path class="cls-6" d="M457.21,322.65V321.2h1.62v-2.74h1.69v2.74H463v1.45h-2.46V328c0,.73.46,1.09,1.37,1.09h0a2,2,0,0,0,1.07-.27v1.53a3.34,3.34,0,0,1-1.26.26h-.05a3.86,3.86,0,0,1-.72-.08,5.31,5.31,0,0,1-.91-.32,2,2,0,0,1-.87-.84,2.84,2.84,0,0,1-.34-1.46v-5.26Z"/><path class="cls-6" d="M465.22,319.77V318H467v1.79Zm.06,10.69V321.2H467v9.26Z"/><path class="cls-6" d="M469.81,328.23a6.47,6.47,0,0,1-.39-2.39,6.54,6.54,0,0,1,.39-2.39,3.15,3.15,0,0,1,1.06-1.47,4.5,4.5,0,0,1,1.38-.7,6,6,0,0,1,3.08,0,4.5,4.5,0,0,1,1.38.7,3.17,3.17,0,0,1,1.07,1.47,6.54,6.54,0,0,1,.39,2.39,6.47,6.47,0,0,1-.39,2.39,3.25,3.25,0,0,1-1.07,1.48,4.25,4.25,0,0,1-1.38.69,5.75,5.75,0,0,1-3.08,0,4.25,4.25,0,0,1-1.38-.69A3.24,3.24,0,0,1,469.81,328.23Zm1.54-4.09a5.78,5.78,0,0,0-.2,1.7,5.9,5.9,0,0,0,.2,1.71,2,2,0,0,0,.61,1,2.32,2.32,0,0,0,.82.43,4.21,4.21,0,0,0,1,.11,4.15,4.15,0,0,0,1-.11,2.24,2.24,0,0,0,.82-.43,1.94,1.94,0,0,0,.61-1,5.86,5.86,0,0,0,.21-1.71,5.74,5.74,0,0,0-.21-1.7,1.94,1.94,0,0,0-.61-1,2.1,2.1,0,0,0-.82-.43,4.15,4.15,0,0,0-1-.11,4.21,4.21,0,0,0-1,.11,2.17,2.17,0,0,0-.82.43A2,2,0,0,0,471.35,324.14Z"/><path class="cls-6" d="M480.3,330.46V322a8.9,8.9,0,0,1,3.95-.95A4,4,0,0,1,487,322a3.28,3.28,0,0,1,1,2.53v6h-1.74v-6.1a1.89,1.89,0,0,0-.41-1.29,2.26,2.26,0,0,0-1.68-.47,6.86,6.86,0,0,0-2.18.34v7.52Z"/><path class="cls-6" d="M490.32,323.82a2.64,2.64,0,0,1,.82-2,3.46,3.46,0,0,1,2.5-.8,5.47,5.47,0,0,1,2.48.61v1.46a5.42,5.42,0,0,0-2.27-.55c-1.23,0-1.84.4-1.84,1.18a.75.75,0,0,0,.49.65,6.08,6.08,0,0,0,1.18.45c.46.13.91.29,1.38.47a2.77,2.77,0,0,1,1.18.93,2.57,2.57,0,0,1,.49,1.61,2.6,2.6,0,0,1-.84,1.93,3.63,3.63,0,0,1-2.6.81,5.54,5.54,0,0,1-2.68-.65v-1.55a5.2,5.2,0,0,0,2.57.68h0a2.42,2.42,0,0,0,1.36-.32A1,1,0,0,0,495,328a1.08,1.08,0,0,0-.48-.92,3.78,3.78,0,0,0-1.18-.54c-.47-.13-.93-.28-1.39-.44a2.63,2.63,0,0,1-1.18-.79A2.12,2.12,0,0,1,490.32,323.82Z"/><path class="cls-9" d="M446.7,308.32a1.49,1.49,0,0,1-.73-.2l-21.71-5.23a1.47,1.47,0,0,1-.73-1.27V264.87a1.47,1.47,0,0,1,.73-1.27L446,258.9a1.48,1.48,0,0,1,1.47,0l21.7,4.7a1.46,1.46,0,0,1,.74,1.27v36.75a1.46,1.46,0,0,1-.74,1.27l-21.7,5.23A1.49,1.49,0,0,1,446.7,308.32Z"/><path class="cls-2" d="M446.7,309.3c-.25,0-22.76-5.32-22.76-5.32a1.49,1.49,0,0,1-.75-1.3v-38.9a1.47,1.47,0,0,1,.75-1.29s22.51-4.82,22.76-4.82,22.77,4.82,22.77,4.82a1.47,1.47,0,0,1,.75,1.29v38.9a1.49,1.49,0,0,1-.75,1.3S447,309.3,446.7,309.3Zm-20.53-7.47,20.53,4.26,20.54-4.26V264.64l-20.54-4.46-20.53,4.46Z"/><path class="cls-2" d="M446.7,270.71a1.51,1.51,0,0,1-.74-.19l-22-4.63a1.5,1.5,0,0,1-.54-2,1.48,1.48,0,0,1,2-.54l21.28,4.19L468,263.31a1.49,1.49,0,1,1,1.49,2.58l-22,4.63A1.52,1.52,0,0,1,446.7,270.71Z"/><path class="cls-2" d="M446.7,308.22a1.49,1.49,0,0,1-1.49-1.49v-37a1.5,1.5,0,0,1,3,0v37A1.5,1.5,0,0,1,446.7,308.22Z"/><path class="cls-6" d="M536.31,321.43a3.31,3.31,0,0,1,1.05-2.47,4.58,4.58,0,0,1,3.27-1,7,7,0,0,1,3.19.76v1.68a5.64,5.64,0,0,0-3-.82c-1.87,0-2.8.62-2.8,1.87a1.08,1.08,0,0,0,.49.88,3.91,3.91,0,0,0,1.21.6,18,18,0,0,1,3.18,1.34,3.33,3.33,0,0,1,1.21,1.18,3.29,3.29,0,0,1,.49,1.81,2.91,2.91,0,0,1-1.19,2.48,5.37,5.37,0,0,1-3.28.89,8.37,8.37,0,0,1-3.68-.89v-1.78A6.69,6.69,0,0,0,540,329c1.92,0,2.89-.58,2.89-1.75a1.8,1.8,0,0,0-.49-1.28,2.74,2.74,0,0,0-1.21-.77l-1.59-.54c-.58-.2-1.11-.41-1.59-.62a2.94,2.94,0,0,1-1.21-1A2.66,2.66,0,0,1,536.31,321.43Z"/><path class="cls-6" d="M546.56,325.94q0-4.87,4.09-4.88h0a3.82,3.82,0,0,1,3,1.21,4.63,4.63,0,0,1,1.11,3.25c0,.44,0,.87,0,1.27h-6.4a2.41,2.41,0,0,0,2.61,2.39,6.84,6.84,0,0,0,3.2-.7V330a8.28,8.28,0,0,1-3.24.61h-.05a5.13,5.13,0,0,1-1.5-.21,4.32,4.32,0,0,1-1.34-.67,3.1,3.1,0,0,1-1-1.45A6.6,6.6,0,0,1,546.56,325.94Zm1.71-.67H553a4.15,4.15,0,0,0-.16-.88,3.72,3.72,0,0,0-.37-.86,1.84,1.84,0,0,0-.72-.69,2.32,2.32,0,0,0-1.12-.26,2.23,2.23,0,0,0-1.72.6A3.55,3.55,0,0,0,548.27,325.27Z"/><path class="cls-6" d="M556.93,330.46V322a12.24,12.24,0,0,1,4.51-.92v1.56a11.67,11.67,0,0,0-2.82.39v7.45Z"/><path class="cls-6" d="M562.89,321.2h1.82l2.6,7.22,2.61-7.22h1.82l-3.56,9.26h-1.74Z"/><path class="cls-6" d="M573.81,319.77V318h1.8v1.79Zm.06,10.69V321.2h1.69v9.26Z"/><path class="cls-6" d="M579.1,329.38a6.28,6.28,0,0,1,0-7.1,4.1,4.1,0,0,1,3.21-1.22,7.32,7.32,0,0,1,2.73.52v1.61a5.75,5.75,0,0,0-2.55-.61h0a2.87,2.87,0,0,0-2,.66,3.5,3.5,0,0,0-.72,2.59,5.86,5.86,0,0,0,.21,1.71,2,2,0,0,0,.63,1,2.51,2.51,0,0,0,.86.44,4.3,4.3,0,0,0,1,.11,6,6,0,0,0,2.59-.6v1.61a7.51,7.51,0,0,1-2.73.51A4.07,4.07,0,0,1,579.1,329.38Z"/><path class="cls-6" d="M586.69,325.94q0-4.87,4.09-4.88h0a3.82,3.82,0,0,1,3,1.21,4.63,4.63,0,0,1,1.11,3.25c0,.44,0,.87,0,1.27h-6.4a2.41,2.41,0,0,0,2.61,2.39,6.84,6.84,0,0,0,3.2-.7V330a8.27,8.27,0,0,1-3.23.61h-.06a5.13,5.13,0,0,1-1.5-.21,4.32,4.32,0,0,1-1.34-.67,3.1,3.1,0,0,1-1-1.45A6.6,6.6,0,0,1,586.69,325.94Zm1.71-.67h4.75a4.15,4.15,0,0,0-.16-.88,3.72,3.72,0,0,0-.37-.86,1.72,1.72,0,0,0-.72-.69,2.32,2.32,0,0,0-1.12-.26,2.23,2.23,0,0,0-1.72.6A3.55,3.55,0,0,0,588.4,325.27Z"/><path class="cls-6" d="M596.65,323.82a2.64,2.64,0,0,1,.82-2,3.46,3.46,0,0,1,2.5-.8,5.44,5.44,0,0,1,2.48.61v1.46a5.42,5.42,0,0,0-2.27-.55c-1.22,0-1.84.4-1.84,1.18a.76.76,0,0,0,.49.65,6.34,6.34,0,0,0,1.18.45c.46.13.92.29,1.38.47a2.77,2.77,0,0,1,1.18.93,2.57,2.57,0,0,1,.49,1.61,2.6,2.6,0,0,1-.84,1.93,3.63,3.63,0,0,1-2.6.81A5.5,5.5,0,0,1,597,330v-1.55a5.16,5.16,0,0,0,2.56.68h0a2.4,2.4,0,0,0,1.35-.32,1,1,0,0,0,.47-.82,1.07,1.07,0,0,0-.49-.92,3.68,3.68,0,0,0-1.18-.54c-.46-.13-.93-.28-1.39-.44a2.68,2.68,0,0,1-1.18-.79A2.12,2.12,0,0,1,596.65,323.82Z"/><path class="cls-9" d="M569.49,308a1.46,1.46,0,0,1-.73-.2l-21.71-5.23a1.45,1.45,0,0,1-.74-1.27V264.52a1.46,1.46,0,0,1,.74-1.27l21.71-4.7a1.46,1.46,0,0,1,1.46,0l21.71,4.7a1.46,1.46,0,0,1,.74,1.27v36.75a1.45,1.45,0,0,1-.74,1.27l-21.71,5.23A1.46,1.46,0,0,1,569.49,308Z"/><path class="cls-2" d="M569.49,309c-.26,0-22.77-5.32-22.77-5.32a1.5,1.5,0,0,1-.75-1.29V263.43a1.5,1.5,0,0,1,.75-1.29s22.51-4.82,22.77-4.82,22.77,4.82,22.77,4.82a1.5,1.5,0,0,1,.75,1.29v38.91a1.5,1.5,0,0,1-.75,1.29S569.75,309,569.49,309ZM549,301.48l20.53,4.26L590,301.48V264.29l-20.53-4.45L549,264.29Z"/><path class="cls-2" d="M569.49,270.37a1.49,1.49,0,0,1-.74-.2l-22-4.63a1.49,1.49,0,1,1,1.49-2.58l21.28,4.19L590.77,263a1.49,1.49,0,1,1,1.49,2.58l-22,4.63A1.56,1.56,0,0,1,569.49,270.37Z"/><path class="cls-2" d="M569.49,307.87a1.49,1.49,0,0,1-1.49-1.49v-37a1.49,1.49,0,0,1,3,0v37A1.49,1.49,0,0,1,569.49,307.87Z"/><path class="cls-6" d="M647.16,330.46l4.94-12.37h1.69l4.92,12.37h-1.86L655.52,327h-5.17L649,330.46Zm3.81-5.08h3.93l-2-5.14Z"/><path class="cls-6" d="M660.81,330.46V318.09h4.46a4.62,4.62,0,0,1,3.2,1,4.22,4.22,0,0,1,0,5.75,4.62,4.62,0,0,1-3.2,1h-2.73v4.58Zm1.73-6.1h2.57a2.93,2.93,0,0,0,2.21-.64,3,3,0,0,0,0-3.44,2.91,2.91,0,0,0-2.21-.63h-2.57Z"/><path class="cls-6" d="M671.88,330.46V318.09h1.73v12.37Z"/><path class="cls-6" d="M676.12,323.82a2.64,2.64,0,0,1,.82-2,3.46,3.46,0,0,1,2.5-.8,5.44,5.44,0,0,1,2.48.61v1.46a5.42,5.42,0,0,0-2.27-.55c-1.22,0-1.84.4-1.84,1.18a.76.76,0,0,0,.49.65,6.34,6.34,0,0,0,1.18.45c.46.13.92.29,1.38.47a2.77,2.77,0,0,1,1.18.93,2.57,2.57,0,0,1,.49,1.61,2.6,2.6,0,0,1-.84,1.93,3.62,3.62,0,0,1-2.6.81,5.5,5.5,0,0,1-2.67-.65v-1.55a5.16,5.16,0,0,0,2.56.68h0a2.4,2.4,0,0,0,1.35-.32,1,1,0,0,0,.47-.82,1.07,1.07,0,0,0-.49-.92,3.68,3.68,0,0,0-1.18-.54c-.46-.13-.93-.28-1.39-.44a2.68,2.68,0,0,1-1.18-.79A2.12,2.12,0,0,1,676.12,323.82Z"/><path class="cls-9" d="M665,307.62a1.49,1.49,0,0,1-.73-.2l-21.71-5.23a1.46,1.46,0,0,1-.73-1.27V264.18a1.48,1.48,0,0,1,.73-1.28l21.71-4.7a1.48,1.48,0,0,1,1.47,0l21.7,4.7a1.47,1.47,0,0,1,.74,1.28v36.74a1.45,1.45,0,0,1-.74,1.27l-21.7,5.23A1.49,1.49,0,0,1,665,307.62Z"/><path class="cls-2" d="M665,308.6c-.25,0-22.77-5.32-22.77-5.32a1.49,1.49,0,0,1-.74-1.29V263.08a1.49,1.49,0,0,1,.74-1.29S664.77,257,665,257s22.77,4.82,22.77,4.82a1.48,1.48,0,0,1,.75,1.29V302a1.48,1.48,0,0,1-.75,1.29S665.28,308.6,665,308.6Zm-20.53-7.47L665,305.39l20.54-4.26V263.94L665,259.49l-20.53,4.45Z"/><path class="cls-2" d="M665,270a1.52,1.52,0,0,1-.74-.2l-22-4.63a1.49,1.49,0,0,1,1.49-2.58L665,266.8l21.28-4.19a1.49,1.49,0,1,1,1.49,2.58l-22,4.63A1.53,1.53,0,0,1,665,270Z"/><path class="cls-2" d="M665,307.52a1.49,1.49,0,0,1-1.49-1.49V269a1.5,1.5,0,0,1,3,0v37A1.5,1.5,0,0,1,665,307.52Z"/><path class="cls-6" d="M727.85,330.46V318.09h3.95a5.62,5.62,0,0,1,4.32,1.57,8,8,0,0,1,0,9.24,5.66,5.66,0,0,1-4.33,1.56Zm1.73-1.52h1.95a4.35,4.35,0,0,0,3.32-1.12,6.46,6.46,0,0,0,0-7.09,4.35,4.35,0,0,0-3.32-1.12h-1.95Z"/><path class="cls-6" d="M739.45,327.54a2.46,2.46,0,0,1,1.16-2.15,5.76,5.76,0,0,1,3.2-.77,13,13,0,0,1,1.68.11,2.29,2.29,0,0,0-.64-1.68,2.86,2.86,0,0,0-1.91-.51,7.91,7.91,0,0,0-2.56.47v-1.45a7.86,7.86,0,0,1,2.8-.5,4.17,4.17,0,0,1,3,1,3.8,3.8,0,0,1,1.05,2.88v2.67a2.88,2.88,0,0,1-.06.59,3.31,3.31,0,0,1-.28.76,2.67,2.67,0,0,1-.6.81,3.49,3.49,0,0,1-1.15.59,5.89,5.89,0,0,1-1.76.25,5.7,5.7,0,0,1-1.8-.26,3.37,3.37,0,0,1-1.16-.61,2.58,2.58,0,0,1-.62-.81,3.22,3.22,0,0,1-.29-.78A4.3,4.3,0,0,1,739.45,327.54Zm1.69,0c0,1,.74,1.57,2.23,1.57h0c1.4,0,2.1-.51,2.1-1.51v-1.49a10.29,10.29,0,0,0-1.61-.12,4.42,4.42,0,0,0-.78.07,5.45,5.45,0,0,0-.87.21,1.57,1.57,0,0,0-.78.48A1.09,1.09,0,0,0,741.14,327.52Z"/><path class="cls-6" d="M748.54,322.65V321.2h1.62v-2.74h1.69v2.74h2.46v1.45h-2.46V328c0,.73.46,1.09,1.37,1.09h0a2,2,0,0,0,1.07-.27v1.53a3.34,3.34,0,0,1-1.26.26h0a3.86,3.86,0,0,1-.72-.08,5.31,5.31,0,0,1-.91-.32,2,2,0,0,1-.87-.84,2.84,2.84,0,0,1-.34-1.46v-5.26Z"/><path class="cls-6" d="M756,327.54a2.43,2.43,0,0,1,1.16-2.15,5.76,5.76,0,0,1,3.2-.77,13,13,0,0,1,1.68.11,2.29,2.29,0,0,0-.64-1.68,2.89,2.89,0,0,0-1.91-.51A8,8,0,0,0,757,323v-1.45a7.9,7.9,0,0,1,2.8-.5,4.16,4.16,0,0,1,3,1,3.77,3.77,0,0,1,1.06,2.88v2.67a2.88,2.88,0,0,1-.06.59,3.31,3.31,0,0,1-.28.76,2.55,2.55,0,0,1-.61.81,3.33,3.33,0,0,1-1.14.59,5.91,5.91,0,0,1-1.77.25,5.68,5.68,0,0,1-1.79-.26,3.28,3.28,0,0,1-1.16-.61,2.58,2.58,0,0,1-.62-.81,2.64,2.64,0,0,1-.34-1.39Zm1.69,0c0,1,.74,1.57,2.22,1.57h0c1.4,0,2.1-.51,2.1-1.51v-1.49a10.39,10.39,0,0,0-1.61-.12,4.26,4.26,0,0,0-.78.07,5.83,5.83,0,0,0-.88.21,1.58,1.58,0,0,0-.77.48A1.09,1.09,0,0,0,757.73,327.52Z"/><path class="cls-6" d="M772.3,321.43a3.31,3.31,0,0,1,1.05-2.47,4.58,4.58,0,0,1,3.27-1,7,7,0,0,1,3.19.76v1.68a5.64,5.64,0,0,0-3-.82c-1.87,0-2.8.62-2.8,1.87a1.08,1.08,0,0,0,.49.88,3.91,3.91,0,0,0,1.21.6,16.69,16.69,0,0,1,1.59.58,15.71,15.71,0,0,1,1.59.76,3.33,3.33,0,0,1,1.21,1.18,3.29,3.29,0,0,1,.49,1.81,2.91,2.91,0,0,1-1.19,2.48,5.37,5.37,0,0,1-3.28.89,8.37,8.37,0,0,1-3.68-.89v-1.78A6.69,6.69,0,0,0,776,329c1.92,0,2.89-.58,2.89-1.75a1.8,1.8,0,0,0-.49-1.28,2.74,2.74,0,0,0-1.21-.77l-1.59-.54c-.58-.2-1.11-.41-1.59-.62a2.94,2.94,0,0,1-1.21-1A2.66,2.66,0,0,1,772.3,321.43Z"/><path class="cls-6" d="M781.52,322.65V321.2h1.61v-2.74h1.7v2.74h2.46v1.45h-2.46V328c0,.73.45,1.09,1.36,1.09h0a2.06,2.06,0,0,0,1.08-.27v1.53a3.39,3.39,0,0,1-1.27.26h0a3.69,3.69,0,0,1-.72-.08,5,5,0,0,1-.91-.32,1.9,1.9,0,0,1-.87-.84,2.84,2.84,0,0,1-.35-1.46v-5.26Z"/><path class="cls-6" d="M789.4,330.46V322a12.28,12.28,0,0,1,4.51-.92v1.56a11.53,11.53,0,0,0-2.81.39v7.45Z"/><path class="cls-6" d="M795.2,325.94q0-4.87,4.08-4.88h0a3.82,3.82,0,0,1,3,1.21,4.63,4.63,0,0,1,1.11,3.25c0,.44,0,.87-.06,1.27h-6.39a2.4,2.4,0,0,0,2.61,2.39,6.87,6.87,0,0,0,3.2-.7V330a8.35,8.35,0,0,1-3.24.61h0a5.15,5.15,0,0,1-1.51-.21,4.43,4.43,0,0,1-1.34-.67,3.24,3.24,0,0,1-1-1.45A6.61,6.61,0,0,1,795.2,325.94Zm1.7-.67h4.76a4.9,4.9,0,0,0-.16-.88,4.21,4.21,0,0,0-.37-.86,1.84,1.84,0,0,0-.72-.69,2.36,2.36,0,0,0-1.13-.26,2.21,2.21,0,0,0-1.71.6A3.54,3.54,0,0,0,796.9,325.27Z"/><path class="cls-6" d="M805.08,327.54a2.46,2.46,0,0,1,1.16-2.15,5.78,5.78,0,0,1,3.2-.77,13,13,0,0,1,1.68.11,2.25,2.25,0,0,0-.63-1.68,2.89,2.89,0,0,0-1.91-.51A8,8,0,0,0,806,323v-1.45a7.9,7.9,0,0,1,2.8-.5,4.16,4.16,0,0,1,3,1,3.8,3.8,0,0,1,1.06,2.88v2.67a2.88,2.88,0,0,1-.06.59,3.42,3.42,0,0,1-.29.76,2.52,2.52,0,0,1-.6.81,3.49,3.49,0,0,1-1.15.59,6.34,6.34,0,0,1-3.56,0,3.37,3.37,0,0,1-1.16-.61,2.73,2.73,0,0,1-.62-.81,3.12,3.12,0,0,1-.28-.78A3.23,3.23,0,0,1,805.08,327.54Zm1.7,0c0,1,.74,1.57,2.22,1.57h0c1.4,0,2.09-.51,2.09-1.51v-1.49a10.25,10.25,0,0,0-1.6-.12,4.26,4.26,0,0,0-.78.07,5.56,5.56,0,0,0-.88.21,1.66,1.66,0,0,0-.78.48A1.13,1.13,0,0,0,806.78,327.52Z"/><path class="cls-6" d="M815.28,330.46V322a8.62,8.62,0,0,1,3.85-.92,4.08,4.08,0,0,1,2.47.7,9.07,9.07,0,0,1,3.4-.7,3.84,3.84,0,0,1,2.73.92,3.3,3.3,0,0,1,1,2.55v5.95H827v-6.07a2,2,0,0,0-.39-1.28,1.87,1.87,0,0,0-1.52-.49,6.6,6.6,0,0,0-2.49.51,3.75,3.75,0,0,1,.22,1.33v6h-1.7v-6a1.85,1.85,0,0,0-.43-1.29,2.35,2.35,0,0,0-1.71-.47,8,8,0,0,0-2,.28v7.53Z"/><path class="cls-6" d="M831.08,323.82a2.67,2.67,0,0,1,.82-2,3.49,3.49,0,0,1,2.51-.8,5.43,5.43,0,0,1,2.47.61v1.46a5.39,5.39,0,0,0-2.27-.55c-1.22,0-1.83.4-1.83,1.18a.75.75,0,0,0,.49.65,6,6,0,0,0,1.17.45c.46.13.92.29,1.38.47a2.71,2.71,0,0,1,1.18.93,2.72,2.72,0,0,1-.34,3.54,3.64,3.64,0,0,1-2.61.81,5.5,5.5,0,0,1-2.67-.65v-1.55a5.16,5.16,0,0,0,2.56.68h0a2.46,2.46,0,0,0,1.36-.32,1,1,0,0,0,.46-.82,1.08,1.08,0,0,0-.48-.92,3.84,3.84,0,0,0-1.19-.54c-.46-.13-.92-.28-1.39-.44a2.6,2.6,0,0,1-1.17-.79A2.08,2.08,0,0,1,831.08,323.82Z"/><path class="cls-9" d="M782.24,307.27a1.36,1.36,0,0,1-.73-.2l-21.71-5.23a1.47,1.47,0,0,1-.74-1.27V263.83a1.5,1.5,0,0,1,.74-1.28l21.71-4.7a1.46,1.46,0,0,1,1.46,0l21.71,4.7a1.48,1.48,0,0,1,.74,1.28v36.74a1.45,1.45,0,0,1-.74,1.27L783,307.07A1.36,1.36,0,0,1,782.24,307.27Z"/><path class="cls-2" d="M782.24,308.26c-.26,0-22.77-5.33-22.77-5.33a1.49,1.49,0,0,1-.74-1.29V262.73a1.49,1.49,0,0,1,.74-1.29s22.51-4.82,22.77-4.82S805,261.44,805,261.44a1.5,1.5,0,0,1,.75,1.29v38.91a1.5,1.5,0,0,1-.75,1.29S782.5,308.26,782.24,308.26Zm-20.53-7.48L782.24,305l20.53-4.26V263.59l-20.53-4.45-20.53,4.45Z"/><path class="cls-2" d="M782.24,269.67a1.49,1.49,0,0,1-.74-.2l-22-4.63a1.49,1.49,0,1,1,1.49-2.58l21.28,4.2,21.28-4.2a1.49,1.49,0,1,1,1.49,2.58l-22,4.63A1.53,1.53,0,0,1,782.24,269.67Z"/><path class="cls-2" d="M782.24,307.17a1.49,1.49,0,0,1-1.49-1.49v-37a1.49,1.49,0,0,1,3,0v37A1.49,1.49,0,0,1,782.24,307.17Z"/><path class="cls-3" d="M533,646.51s-2.56,3.87,2.47,4.66c.49.06,4.14.44,5.08,1.64,0,0-.09-2.06-3-3.28S533.28,648,533,646.51Z"/><path class="cls-3" d="M535.44,638.16s-7.16,4.36-.41,8.71c1.3.84,6,3.19,5.87,5.36,0,0,2.85-4.23-1.32-6.88S534.22,639.73,535.44,638.16Z"/><path class="cls-3" d="M542.84,642.43c-3.07-3.22-3.92-5.2-2.61-7.78,0,0-9.16,3.53-.12,9.78,3.24,2.24,2.7,4.53,2.7,4.61A4.48,4.48,0,0,0,542.84,642.43Z"/><text class="cls-11" transform="translate(549.09 649.66)">N<tspan class="cls-12" x="8.96" y="0">O</tspan><tspan class="cls-13" x="17.93" y="0">D</tspan><tspan class="cls-14" x="26.04" y="0">E</tspan></text><path class="cls-9" d="M557.16,521c-18,0-36.69,4.09-36.69,10.93v87.8a4.1,4.1,0,0,0,.79,2.36,6.56,6.56,0,0,0,.89,1c4.66,4.5,18.73,7.53,35,7.53s30.36-3,35-7.53a6.65,6.65,0,0,0,.91-1,4.16,4.16,0,0,0,.78-2.36V532C593.86,525.12,575.2,521,557.16,521Z"/><path class="cls-15" d="M529.16,580.19v-9.26l1.83.43q1.32,2.22,2.65,4.43l2.66-3.36,1.84.31V582l-1.66-.28v-6.84l-2.84,3.55c-.95-1.55-1.89-3.12-2.83-4.69v6.84Z"/><path class="cls-15" d="M540.47,582.35V573.1c2,.29,4.11.54,6.17.73v1.5q-2.25-.21-4.5-.51v2.35c1.3.17,2.6.31,3.9.44v1.57c-1.3-.12-2.6-.27-3.9-.44v2.34c1.5.2,3,.36,4.5.5v1.5Q543.55,582.79,540.47,582.35Z"/><path class="cls-15" d="M548.55,583.24V574l1.86.13c.9,1.35,1.79,2.68,2.69,4q1.35-1.89,2.69-3.79l1.86,0v9.25l-1.67,0v-6.84q-1.44,2-2.88,4c-1-1.4-1.92-2.82-2.88-4.24v6.84Z"/><path class="cls-15" d="M559.69,579a7,7,0,0,1,.26-2,4,4,0,0,1,.69-1.38,3.35,3.35,0,0,1,1-.86,4.29,4.29,0,0,1,1.16-.47,6.54,6.54,0,0,1,1.22-.16,6.91,6.91,0,0,1,1.22,0,4.18,4.18,0,0,1,1.16.36,3.32,3.32,0,0,1,1,.76,3.71,3.71,0,0,1,.69,1.32,6.77,6.77,0,0,1,.26,2,7.38,7.38,0,0,1-.26,2,4.27,4.27,0,0,1-.69,1.42,4,4,0,0,1-1,.9,4.16,4.16,0,0,1-1.16.51,6.53,6.53,0,0,1-1.22.17,6,6,0,0,1-1.22-.06,3.7,3.7,0,0,1-1.16-.39,3.28,3.28,0,0,1-1-.8A3.93,3.93,0,0,1,560,581,7.06,7.06,0,0,1,559.69,579Zm1.68-.05a5.6,5.6,0,0,0,.2,1.72,1.87,1.87,0,0,0,.62,1,2.15,2.15,0,0,0,.83.41,3.51,3.51,0,0,0,1,.07,4.48,4.48,0,0,0,.82-.1,2.91,2.91,0,0,0,.72-.3,1.72,1.72,0,0,0,.6-.6,3.35,3.35,0,0,0,.38-1,5.64,5.64,0,0,0,.16-1.45,5.71,5.71,0,0,0-.21-1.69,1.77,1.77,0,0,0-.62-1,2,2,0,0,0-.83-.38,4,4,0,0,0-1-.06,4.47,4.47,0,0,0-.81.1,2.36,2.36,0,0,0-.72.29,1.64,1.64,0,0,0-.6.57,3.17,3.17,0,0,0-.38,1A5.64,5.64,0,0,0,561.37,578.93Z"/><path class="cls-15" d="M570.39,583v-9.25c1.19-.12,2.37-.25,3.56-.4a3.51,3.51,0,0,1,2.53.42,2.34,2.34,0,0,1,.9,2.06,3.14,3.14,0,0,1-2,3l2.42,3.17-2,.31c-.74-1-1.48-2-2.21-3l-1.5.18v3.27Zm1.67-5,1.84-.23a2.65,2.65,0,0,0,1.33-.48,1.42,1.42,0,0,0,.48-1.21q0-.86-.48-1.08a2.47,2.47,0,0,0-1.33-.12l-1.84.23Z"/><path class="cls-15" d="M578.23,572.72l2-.35c.81,1.11,1.63,2.21,2.44,3.29.8-1.41,1.61-2.84,2.41-4.27.66-.14,1.33-.3,2-.46q-1.79,3.08-3.58,6.09v4l-1.65.33v-4C580.64,575.83,579.43,574.28,578.23,572.72Z"/><path class="cls-3" d="M582.3,522.82a110,110,0,0,0-50.28,0c-8,2.16-12.18,5.23-12.18,8.88V620a5,5,0,0,0,.95,2.89,6.81,6.81,0,0,0,1,1.17c4.78,4.62,19,7.73,35.36,7.73s30.59-3.11,35.37-7.73a7.27,7.27,0,0,0,1-1.17,5,5,0,0,0,1-2.89V531.7C594.49,528.05,590.28,525,582.3,522.82ZM590.8,621a3.83,3.83,0,0,1-.58.67c-4.09,4-18,6.81-33.06,6.81s-29-2.86-33-6.8a4.83,4.83,0,0,1-.58-.68,1.73,1.73,0,0,1-.34-1V536.89a18.57,18.57,0,0,0,2.49,1.42l0,0c.46.22.93.43,1.43.64l.13,0c.48.19,1,.39,1.51.57l.19.07,1.37.45.43.13c.44.14.9.26,1.37.39l.62.17,1.38.34.8.18,1.37.29.92.18,1.1.2,1.26.21,1,.15,1.35.19,1.18.15,1.06.12,1.59.16.81.08,1.94.15.7,0c.7,0,1.41.09,2.12.12l.53,0,2.34.08h.31c.85,0,1.72,0,2.59,0s1.73,0,2.58,0h.32l2.33-.08.54,0c.71,0,1.42-.07,2.12-.12l.7,0,1.93-.15.83-.08,1.54-.15,1.11-.13,1.16-.15,1.38-.19,1-.15L576,542l1.09-.19.92-.18,1.37-.29.8-.18,1.39-.34.6-.17,1.44-.4.35-.11,1.43-.47.15,0c.54-.19,1.05-.39,1.55-.59l.08,0c.52-.21,1-.42,1.47-.65h0a17.68,17.68,0,0,0,2.51-1.43V620A1.73,1.73,0,0,1,590.8,621Zm-33.64-97.71c21.05,0,34,4.91,34,8.43a1.77,1.77,0,0,1-.35,1c-1.47,2.18-6.74,4.4-14.51,5.85h-.07l-.88.15-.92.16h0a109,109,0,0,1-14.34,1.26h-.49l-.92,0h-3l-.92,0h-.48a108.54,108.54,0,0,1-14.31-1.26h-.06l-.87-.14-.94-.17h0c-7.77-1.45-13-3.67-14.52-5.84a1.83,1.83,0,0,1-.35-1C523.19,528.18,536.11,523.27,557.16,523.27Z"/><path class="cls-3" d="M660.44,646.51s-2.56,3.87,2.47,4.66c.49.06,4.14.44,5.08,1.64,0,0-.09-2.06-3-3.28S660.77,648,660.44,646.51Z"/><path class="cls-3" d="M662.93,638.16s-7.16,4.36-.41,8.71c1.3.84,6,3.19,5.87,5.36,0,0,2.85-4.23-1.32-6.88S661.71,639.73,662.93,638.16Z"/><path class="cls-3" d="M670.33,642.43c-3.07-3.22-3.92-5.2-2.61-7.78,0,0-9.17,3.53-.12,9.78,3.24,2.24,2.7,4.53,2.7,4.61A4.48,4.48,0,0,0,670.33,642.43Z"/><text class="cls-11" transform="translate(676.58 649.66)">N<tspan class="cls-12" x="8.96" y="0">O</tspan><tspan class="cls-13" x="17.93" y="0">D</tspan><tspan class="cls-14" x="26.04" y="0">E</tspan></text><path class="cls-9" d="M684.65,521c-18,0-36.69,4.09-36.69,10.93v87.8a4.1,4.1,0,0,0,.79,2.36,6.56,6.56,0,0,0,.89,1c4.66,4.5,18.73,7.53,35,7.53s30.36-3,35-7.53a6.12,6.12,0,0,0,.9-1,4.1,4.1,0,0,0,.79-2.36V532C721.35,525.12,702.69,521,684.65,521Z"/><path class="cls-15" d="M656.65,580.19v-9.26l1.83.43q1.32,2.22,2.65,4.43l2.66-3.36,1.84.31V582l-1.66-.28v-6.84l-2.84,3.55c-1-1.55-1.89-3.12-2.83-4.69v6.84Z"/><path class="cls-15" d="M668,582.35V573.1c2,.29,4.11.54,6.17.73v1.5q-2.25-.21-4.5-.51v2.35c1.3.17,2.6.31,3.9.44v1.57c-1.3-.12-2.6-.27-3.9-.44v2.34c1.5.2,3,.36,4.5.5v1.5Q671,582.79,668,582.35Z"/><path class="cls-15" d="M676,583.24V574l1.86.13c.89,1.35,1.79,2.68,2.69,4l2.69-3.79,1.86,0v9.25l-1.67,0v-6.84q-1.44,2-2.88,4c-1-1.4-1.92-2.82-2.88-4.24v6.84Z"/><path class="cls-15" d="M687.18,579a7,7,0,0,1,.26-2,4,4,0,0,1,.69-1.38,3.48,3.48,0,0,1,1-.86,4.29,4.29,0,0,1,1.16-.47,6.54,6.54,0,0,1,1.22-.16,6.91,6.91,0,0,1,1.22,0,4.18,4.18,0,0,1,1.16.36,3.32,3.32,0,0,1,1,.76,3.71,3.71,0,0,1,.69,1.32,6.77,6.77,0,0,1,.26,2,7.38,7.38,0,0,1-.26,2,4.27,4.27,0,0,1-.69,1.42,4,4,0,0,1-1,.9,4.16,4.16,0,0,1-1.16.51,6.53,6.53,0,0,1-1.22.17,6,6,0,0,1-1.22-.06,3.7,3.7,0,0,1-1.16-.39,3.17,3.17,0,0,1-1-.8,3.93,3.93,0,0,1-.69-1.36A7.06,7.06,0,0,1,687.18,579Zm1.67-.05a5.89,5.89,0,0,0,.21,1.72,1.87,1.87,0,0,0,.62,1,2.15,2.15,0,0,0,.83.41,3.51,3.51,0,0,0,1,.07,4.48,4.48,0,0,0,.82-.1,2.91,2.91,0,0,0,.72-.3,1.91,1.91,0,0,0,.6-.6,3.35,3.35,0,0,0,.38-1,5.64,5.64,0,0,0,.16-1.45A5.71,5.71,0,0,0,694,577a1.77,1.77,0,0,0-.62-1,2.06,2.06,0,0,0-.83-.38,4,4,0,0,0-1-.06,4.47,4.47,0,0,0-.81.1,2.36,2.36,0,0,0-.72.29,1.64,1.64,0,0,0-.6.57,3.17,3.17,0,0,0-.38,1A6.09,6.09,0,0,0,688.85,578.93Z"/><path class="cls-15" d="M697.88,583v-9.25c1.19-.12,2.37-.25,3.56-.4a3.51,3.51,0,0,1,2.53.42,2.34,2.34,0,0,1,.89,2.06,3.13,3.13,0,0,1-2,3l2.42,3.17-2,.31c-.74-1-1.48-2-2.21-3l-1.5.18v3.27Zm1.67-5,1.84-.23a2.65,2.65,0,0,0,1.33-.48,1.42,1.42,0,0,0,.48-1.21q0-.86-.48-1.08a2.47,2.47,0,0,0-1.33-.12l-1.84.23Z"/><path class="cls-15" d="M705.72,572.72l2-.35c.81,1.11,1.62,2.21,2.44,3.29.8-1.41,1.61-2.84,2.41-4.27.66-.14,1.33-.3,2-.46Q712.78,574,711,577v4l-1.65.33v-4C708.13,575.83,706.92,574.28,705.72,572.72Z"/><path class="cls-3" d="M709.79,522.82a110,110,0,0,0-50.28,0c-8,2.16-12.18,5.23-12.18,8.88V620a5,5,0,0,0,.95,2.89,6.81,6.81,0,0,0,1,1.17c4.78,4.62,19,7.73,35.36,7.73s30.59-3.11,35.37-7.73a7.27,7.27,0,0,0,1-1.17,5,5,0,0,0,1-2.89V531.7C722,528.05,717.77,525,709.79,522.82Zm8.5,98.16a3.83,3.83,0,0,1-.58.67c-4.09,4-18,6.81-33.06,6.81s-29-2.86-33-6.8A4.83,4.83,0,0,1,651,621a1.73,1.73,0,0,1-.34-1V536.89a18.57,18.57,0,0,0,2.49,1.42l0,0c.46.22.93.43,1.43.64l.12,0c.49.19,1,.39,1.52.57l.18.07,1.38.45.43.13c.44.14.9.26,1.37.39l.62.17,1.38.34.8.18,1.37.29.92.18,1.1.2,1.26.21,1,.15,1.35.19,1.18.15,1.06.12,1.59.16.81.08,1.94.15.7,0c.7,0,1.41.09,2.12.12l.53,0,2.34.08h.31c.85,0,1.72,0,2.59,0s1.73,0,2.58,0h.32l2.33-.08.54,0c.71,0,1.42-.07,2.12-.12l.7,0,1.93-.15L696,543l1.54-.15,1.11-.13,1.16-.15,1.37-.19,1-.15,1.28-.22,1.09-.19.92-.18,1.37-.29.8-.18,1.39-.34.6-.17,1.44-.4.35-.11,1.43-.47.15,0c.54-.19,1.05-.39,1.55-.59l.08,0c.52-.21,1-.42,1.47-.65h0a18.87,18.87,0,0,0,2.51-1.43V620A1.73,1.73,0,0,1,718.29,621Zm-33.64-97.71c21.05,0,34,4.91,34,8.43a1.77,1.77,0,0,1-.35,1c-1.47,2.18-6.74,4.4-14.51,5.85h-.07l-.88.15-.92.16h0a108.71,108.71,0,0,1-14.33,1.26h-.49l-.92,0h-3l-.92,0h-.49a108.39,108.39,0,0,1-14.3-1.26h-.06l-.87-.14-.94-.17h0c-7.77-1.45-13-3.67-14.52-5.84a1.83,1.83,0,0,1-.35-1C650.68,528.18,663.6,523.27,684.65,523.27Z"/><path class="cls-3" d="M595.62,667.3s-2.56,3.87,2.47,4.66c.5.06,4.14.44,5.08,1.64,0,0-.09-2.06-3-3.28S596,668.81,595.62,667.3Z"/><path class="cls-3" d="M598.12,659s-7.16,4.36-.42,8.71c1.31.84,6,3.19,5.87,5.36,0,0,2.85-4.23-1.31-6.88S596.9,660.52,598.12,659Z"/><path class="cls-3" d="M605.51,663.22c-3.07-3.22-3.92-5.2-2.61-7.78,0,0-9.16,3.53-.11,9.78,3.24,2.24,2.69,4.53,2.7,4.61A4.47,4.47,0,0,0,605.51,663.22Z"/><text class="cls-11" transform="translate(611.76 670.45)">N<tspan class="cls-12" x="8.96" y="0">O</tspan><tspan class="cls-13" x="17.93" y="0">D</tspan><tspan class="cls-14" x="26.04" y="0">E</tspan></text><path class="cls-9" d="M619.83,541.82c-18,0-36.68,4.09-36.68,10.93v87.8a4.09,4.09,0,0,0,.78,2.36,7.12,7.12,0,0,0,.89,1c4.67,4.5,18.74,7.53,35,7.53s30.36-3,35-7.53a6.6,6.6,0,0,0,.9-1,4.09,4.09,0,0,0,.78-2.36v-87.8C656.53,545.91,637.87,541.82,619.83,541.82Z"/><path class="cls-15" d="M591.84,601v-9.26l1.82.43,2.65,4.43c.89-1.11,1.77-2.23,2.66-3.36l1.84.31v9.25l-1.66-.28v-6.84c-.94,1.19-1.89,2.38-2.84,3.55l-2.83-4.69v6.84Z"/><path class="cls-15" d="M603.15,603.14v-9.25c2.05.29,4.1.54,6.16.73v1.5q-2.25-.21-4.5-.51V598c1.3.17,2.6.31,3.91.44V600c-1.31-.12-2.61-.27-3.91-.44v2.34c1.5.2,3,.36,4.5.5v1.5Q606.22,603.58,603.15,603.14Z"/><path class="cls-15" d="M611.22,604v-9.25l1.86.13,2.69,4,2.7-3.79,1.86,0v9.25l-1.68,0v-6.84q-1.44,2-2.88,4-1.42-2.1-2.87-4.24v6.84C612.34,604.11,611.78,604.08,611.22,604Z"/><path class="cls-15" d="M622.36,599.77a6.68,6.68,0,0,1,.27-2,4,4,0,0,1,.68-1.38,3.39,3.39,0,0,1,1-.86,4.16,4.16,0,0,1,1.16-.47,6.43,6.43,0,0,1,1.22-.16,6.94,6.94,0,0,1,1.22,0,4.12,4.12,0,0,1,1.15.36,3.1,3.1,0,0,1,1,.76,3.56,3.56,0,0,1,.69,1.32,6.42,6.42,0,0,1,.27,2,7,7,0,0,1-.27,2,4.27,4.27,0,0,1-.69,1.42,3.67,3.67,0,0,1-1,.9,4.1,4.1,0,0,1-1.15.51,6.65,6.65,0,0,1-1.22.17,6,6,0,0,1-1.22-.06,3.61,3.61,0,0,1-1.16-.39,3.21,3.21,0,0,1-1-.8,3.93,3.93,0,0,1-.68-1.36A6.7,6.7,0,0,1,622.36,599.77Zm1.68,0a5.93,5.93,0,0,0,.21,1.72,1.86,1.86,0,0,0,.61,1,2.22,2.22,0,0,0,.83.41,4,4,0,0,0,1,.07,5.74,5.74,0,0,0,.82-.1,3.07,3.07,0,0,0,.72-.3,1.78,1.78,0,0,0,.59-.6,3.09,3.09,0,0,0,.39-1,6.15,6.15,0,0,0,.15-1.45,5.71,5.71,0,0,0-.21-1.69,1.71,1.71,0,0,0-.61-1,2.09,2.09,0,0,0-.84-.38,3.94,3.94,0,0,0-1-.06,5.93,5.93,0,0,0-.82.1,2.48,2.48,0,0,0-.71.29,1.64,1.64,0,0,0-.6.57,3.16,3.16,0,0,0-.39.95A6.12,6.12,0,0,0,624,599.72Z"/><path class="cls-15" d="M633.06,603.79v-9.25c1.19-.12,2.38-.25,3.56-.4a3.44,3.44,0,0,1,2.53.42,2.34,2.34,0,0,1,.9,2.06,3.12,3.12,0,0,1-2,3l2.43,3.17-2,.31-2.21-3-1.5.18v3.27Zm1.67-5,1.85-.22a2.79,2.79,0,0,0,1.33-.49,1.42,1.42,0,0,0,.48-1.21q0-.85-.48-1.08a2.48,2.48,0,0,0-1.33-.12l-1.85.23Z"/><path class="cls-15" d="M640.9,593.51l2-.35c.81,1.11,1.62,2.21,2.43,3.29.81-1.41,1.61-2.84,2.42-4.27.66-.14,1.32-.3,2-.46q-1.79,3.07-3.57,6.09v4l-1.66.33v-4C643.31,596.62,642.11,595.07,640.9,593.51Z"/><path class="cls-3" d="M645,543.61a110,110,0,0,0-50.28,0c-8,2.16-12.19,5.23-12.19,8.88v88.32a5,5,0,0,0,1,2.89,7.81,7.81,0,0,0,1,1.17c4.78,4.62,19,7.73,35.36,7.73s30.59-3.1,35.38-7.73a7.81,7.81,0,0,0,1-1.17,5,5,0,0,0,.95-2.89V552.49C657.17,548.84,653,545.77,645,543.61Zm8.49,98.16a3.83,3.83,0,0,1-.58.67c-4.08,3.95-18,6.81-33.06,6.81s-29-2.86-33-6.8a4.25,4.25,0,0,1-.58-.68,1.65,1.65,0,0,1-.34-1V557.68a18,18,0,0,0,2.49,1.42l0,0c.45.22.93.43,1.43.64l.12,0c.48.19,1,.39,1.51.57l.19.07,1.37.45.43.13c.45.14.91.27,1.37.39l.63.17,1.38.34.8.18,1.37.29.92.18,1.09.2,1.27.21,1,.15,1.36.19,1.17.15,1.07.12,1.59.16.81.08,1.93.15.7,0q1,.08,2.13.12l.52,0,2.34.08h.31c.86,0,1.72,0,2.59,0s1.73,0,2.59,0h.31l2.34-.08.53,0c.72,0,1.42-.07,2.12-.12l.7,0,1.93-.15.83-.08,1.55-.15,1.11-.13,1.15-.15,1.38-.19,1-.15,1.28-.22,1.09-.19.92-.18,1.37-.29.8-.18,1.38-.34.61-.16,1.43-.41.36-.11,1.43-.47.15-.05c.54-.19,1-.39,1.55-.59l.08,0c.51-.21,1-.42,1.46-.65h0a18.11,18.11,0,0,0,2.5-1.43v83.13A1.65,1.65,0,0,1,653.47,641.77Zm-33.64-97.71c21.06,0,34,4.91,34,8.43a1.81,1.81,0,0,1-.34,1c-1.48,2.17-6.74,4.39-14.52,5.84h-.06l-.88.16-.93.15h0a108.86,108.86,0,0,1-14.34,1.26h-.48l-.92,0h-3l-.91,0h-.49a106.56,106.56,0,0,1-14.3-1.26h-.07l-.86-.14-.94-.17h0c-7.77-1.45-13-3.67-14.51-5.84a1.75,1.75,0,0,1-.35-1C585.87,549,598.79,544.06,619.83,544.06Z"/><text class="cls-16" transform="translate(831.72 590.36)">A<tspan class="cls-17" x="12.95" y="0">p</tspan><tspan class="cls-18" x="23.71" y="0">a</tspan><tspan class="cls-19" x="33.81" y="0">c</tspan><tspan class="cls-20" x="42.84" y="0">h</tspan><tspan x="53.89" y="0">e I</tspan><tspan class="cls-21" x="76.49" y="0">g</tspan><tspan class="cls-22" x="86.76" y="0">n</tspan><tspan class="cls-23" x="97.59" y="0">i</tspan><tspan class="cls-24" x="103.01" y="0">t</tspan><tspan x="110.06" y="0">e</tspan><tspan class="cls-25" x="0" y="24">I</tspan><tspan class="cls-26" x="4.89" y="24">n-</tspan><tspan class="cls-20" x="25.35" y="24">M</tspan><tspan class="cls-27" x="40.95" y="24">e</tspan><tspan class="cls-17" x="51.33" y="24">m</tspan><tspan class="cls-28" x="68.63" y="24">o</tspan><tspan class="cls-29" x="79.54" y="24">r</tspan><tspan x="86.77" y="24">y</tspan><tspan class="cls-30"><tspan x="0" y="48">T</tspan><tspan class="cls-27" x="10.56" y="48">i</tspan><tspan class="cls-31" x="15.72" y="48">e</tspan><tspan class="cls-26" x="26.26" y="48">r</tspan></tspan></text><text class="cls-16" transform="translate(585.36 1009.53)"><tspan class="cls-18">D</tspan><tspan class="cls-32" x="12.83" y="0">i</tspan><tspan class="cls-17" x="18.15" y="0">s</tspan><tspan x="26.29" y="0">k </tspan><tspan class="cls-30" x="44.35" y="0">T</tspan><tspan class="cls-27" x="54.91" y="0">i</tspan><tspan class="cls-33" x="60.07" y="0">e</tspan><tspan x="70.62" y="0">r</tspan></text></g></g></svg>