<svg xmlns="http://www.w3.org/2000/svg" viewBox="0 0 815.31 691.58"><defs><style>.cls-1{isolation:isolate;}.cls-2{fill:#010101;}.cls-3{fill:#575656;}.cls-4{fill:#777;}.cls-5{fill:#e5282a;}.cls-14,.cls-6{fill:#efeeed;}.cls-7{fill:#e52529;}.cls-8{fill:#fff;}.cls-10,.cls-15,.cls-9{fill:#1d1d1b;}.cls-10{font-size:12.98px;}.cls-10,.cls-15{font-family:MavenProMedium, Maven Pro;}.cls-11{letter-spacing:0em;}.cls-12{letter-spacing:-0.01em;}.cls-13{letter-spacing:-0.01em;}.cls-14{mix-blend-mode:multiply;}.cls-15{font-size:19.51px;}.cls-16{letter-spacing:-0.02em;}.cls-17{letter-spacing:-0.02em;}.cls-18{letter-spacing:0.01em;}.cls-19{letter-spacing:-0.01em;}.cls-20{letter-spacing:-0.01em;}.cls-21{letter-spacing:-0.02em;}.cls-22{letter-spacing:0em;}.cls-23{letter-spacing:-0.03em;}.cls-24{letter-spacing:-0.04em;}.cls-25{letter-spacing:-0.01em;}.cls-26{letter-spacing:-0.02em;}.cls-27{letter-spacing:-0.01em;}.cls-28{letter-spacing:-0.03em;}.cls-29{letter-spacing:0em;}.cls-30{letter-spacing:-0.01em;}.cls-31{letter-spacing:-0.01em;}.cls-32{letter-spacing:-0.01em;}</style></defs><g class="cls-1"><g id="Capa_1" data-name="Capa 1"><path class="cls-2" d="M314.89,46.51l5.87-14.7h2l5.84,14.7h-2.2l-1.59-4.12h-6.13l-1.58,4.12Zm4.52-6h4.67l-2.33-6.1Z"/><path class="cls-2" d="M330.86,50.7V38.88a4.14,4.14,0,0,1,.06-.7,4.19,4.19,0,0,1,.33-.89,3.32,3.32,0,0,1,.72-.95,3.84,3.84,0,0,1,1.35-.7,6.65,6.65,0,0,1,2.1-.3,6.75,6.75,0,0,1,1.19.11,4.12,4.12,0,0,1,1.28.49,4.17,4.17,0,0,1,1.2,1,4.81,4.81,0,0,1,.84,1.7,8.4,8.4,0,0,1,.34,2.52,7.93,7.93,0,0,1-.44,2.79,3.68,3.68,0,0,1-1.23,1.72,5.58,5.58,0,0,1-1.6.8,6.3,6.3,0,0,1-1.79.24,8.27,8.27,0,0,1-2.34-.32V50.7Zm2-6.27a6.32,6.32,0,0,0,2.34.45,4.82,4.82,0,0,0,1.16-.13,2.78,2.78,0,0,0,.94-.5,2.26,2.26,0,0,0,.71-1.14,6.86,6.86,0,0,0,.24-2A7.88,7.88,0,0,0,338,39a2.49,2.49,0,0,0-.7-1.24,2.67,2.67,0,0,0-.89-.52,3.16,3.16,0,0,0-1-.14c-1.7,0-2.55.55-2.55,1.64Z"/><path class="cls-2" d="M342.93,50.7V38.88a3.33,3.33,0,0,1,.07-.7,3.61,3.61,0,0,1,.32-.89,3.32,3.32,0,0,1,.72-.95,3.84,3.84,0,0,1,1.35-.7,6.65,6.65,0,0,1,2.1-.3,6.75,6.75,0,0,1,1.19.11,4,4,0,0,1,1.28.49,3.92,3.92,0,0,1,1.2,1,5,5,0,0,1,.85,1.7,8.75,8.75,0,0,1,.33,2.52,7.71,7.71,0,0,1-.44,2.79,3.68,3.68,0,0,1-1.23,1.72,5.58,5.58,0,0,1-1.6.8,6.3,6.3,0,0,1-1.79.24,8.27,8.27,0,0,1-2.34-.32V50.7Zm2-6.27a6.32,6.32,0,0,0,2.34.45,4.82,4.82,0,0,0,1.16-.13,2.78,2.78,0,0,0,.94-.5,2.26,2.26,0,0,0,.71-1.14,6.86,6.86,0,0,0,.24-2,7.88,7.88,0,0,0-.24-2.12,2.42,2.42,0,0,0-.7-1.24,2.67,2.67,0,0,0-.89-.52,3.12,3.12,0,0,0-1-.14c-1.7,0-2.55.55-2.55,1.64Z"/><path class="cls-2" d="M355.4,46.51V31.33h2V46.51Z"/><path class="cls-2" d="M361,33.82V31.69h2.14v2.13Zm.06,12.69v-11h2v11Z"/><path class="cls-2" d="M367.31,45.23A6.13,6.13,0,0,1,366,41a6.1,6.1,0,0,1,1.3-4.21,4.88,4.88,0,0,1,3.82-1.46,8.76,8.76,0,0,1,3.24.62v1.91a6.94,6.94,0,0,0-3-.72h0a3.43,3.43,0,0,0-2.38.78c-.57.52-.86,1.55-.86,3.08a7.2,7.2,0,0,0,.25,2,2.35,2.35,0,0,0,.76,1.19,2.79,2.79,0,0,0,1,.52,5.36,5.36,0,0,0,1.22.13,7.11,7.11,0,0,0,3.07-.71v1.91a9,9,0,0,1-3.24.6A4.87,4.87,0,0,1,367.31,45.23Z"/><path class="cls-2" d="M376.4,43a2.9,2.9,0,0,1,1.38-2.55,6.8,6.8,0,0,1,3.8-.92,14.36,14.36,0,0,1,2,.13,2.69,2.69,0,0,0-.75-2,3.45,3.45,0,0,0-2.27-.6,9.38,9.38,0,0,0-3.05.55V35.94a9.2,9.2,0,0,1,3.33-.6,5,5,0,0,1,3.55,1.19A4.5,4.5,0,0,1,385.63,40v3.17a3.42,3.42,0,0,1-.07.71,4,4,0,0,1-.34.89,2.93,2.93,0,0,1-.71,1,4,4,0,0,1-1.36.71,7.06,7.06,0,0,1-2.1.29,6.55,6.55,0,0,1-2.13-.31,4,4,0,0,1-1.38-.71,3.34,3.34,0,0,1-.74-1,4.35,4.35,0,0,1-.34-.93A4.56,4.56,0,0,1,376.4,43Zm2,0c0,1.24.88,1.87,2.64,1.87h0c1.66,0,2.49-.6,2.49-1.79V41.31a14,14,0,0,0-1.91-.14,6,6,0,0,0-.92.08,8.31,8.31,0,0,0-1,.26,2,2,0,0,0-.92.56A1.33,1.33,0,0,0,378.41,43Z"/><path class="cls-2" d="M387.2,37.24V35.52h1.92V32.26h2v3.26h2.92v1.72h-2.92v6.35q0,1.29,1.62,1.29h0a2.37,2.37,0,0,0,1.28-.33v1.83a4,4,0,0,1-1.5.3h-.06a4.39,4.39,0,0,1-.85-.09,6.78,6.78,0,0,1-1.08-.38,2.35,2.35,0,0,1-1-1,3.46,3.46,0,0,1-.4-1.75V37.24Z"/><path class="cls-2" d="M396.71,33.82V31.69h2.14v2.13Zm.06,12.69v-11h2v11Z"/><path class="cls-2" d="M402.16,43.86a8.82,8.82,0,0,1,0-5.68,3.87,3.87,0,0,1,1.26-1.75,5.15,5.15,0,0,1,1.64-.82,6.82,6.82,0,0,1,3.66,0,5.1,5.1,0,0,1,1.63.82,3.82,3.82,0,0,1,1.27,1.75,7.72,7.72,0,0,1,.46,2.84,7.68,7.68,0,0,1-.46,2.84,3.85,3.85,0,0,1-1.27,1.76,5.32,5.32,0,0,1-1.63.82,7.1,7.1,0,0,1-3.66,0,5.37,5.37,0,0,1-1.64-.82A3.91,3.91,0,0,1,402.16,43.86ZM404,39a7.11,7.11,0,0,0-.24,2,7.19,7.19,0,0,0,.24,2,2.29,2.29,0,0,0,.72,1.18,2.75,2.75,0,0,0,1,.52,5.6,5.6,0,0,0,2.4,0,2.72,2.72,0,0,0,1-.52,2.3,2.3,0,0,0,.73-1.18,7.19,7.19,0,0,0,.24-2,7.11,7.11,0,0,0-.24-2,2.38,2.38,0,0,0-.73-1.19,2.85,2.85,0,0,0-1-.51,5.6,5.6,0,0,0-2.4,0,2.89,2.89,0,0,0-1,.51A2.37,2.37,0,0,0,404,39Z"/><path class="cls-2" d="M414.62,46.51V36.45a10.54,10.54,0,0,1,4.69-1.13,4.63,4.63,0,0,1,3.27,1.09,3.88,3.88,0,0,1,1.19,3v7.09h-2.06V39.26a2.25,2.25,0,0,0-.49-1.53,2.7,2.7,0,0,0-2-.56,8.3,8.3,0,0,0-2.59.4v8.94Z"/><path class="cls-2" d="M435.06,46.51V31.81h2.06V44.6h7.29v1.91Z"/><path class="cls-2" d="M446.1,43a2.9,2.9,0,0,1,1.38-2.55,6.8,6.8,0,0,1,3.8-.92,14.36,14.36,0,0,1,2,.13,2.69,2.69,0,0,0-.75-2,3.45,3.45,0,0,0-2.27-.6,9.38,9.38,0,0,0-3.05.55V35.94a9.2,9.2,0,0,1,3.33-.6,5,5,0,0,1,3.55,1.19A4.5,4.5,0,0,1,455.33,40v3.17a3.42,3.42,0,0,1-.07.71,4,4,0,0,1-.34.89,2.93,2.93,0,0,1-.71,1,4,4,0,0,1-1.36.71,7.06,7.06,0,0,1-2.1.29,6.55,6.55,0,0,1-2.13-.31,4,4,0,0,1-1.38-.71,3.34,3.34,0,0,1-.74-1,4.35,4.35,0,0,1-.34-.93A4.56,4.56,0,0,1,446.1,43Zm2,0c0,1.24.88,1.87,2.64,1.87h0c1.66,0,2.49-.6,2.49-1.79V41.31a14,14,0,0,0-1.91-.14,6,6,0,0,0-.92.08,8.31,8.31,0,0,0-1,.26,2,2,0,0,0-.92.56A1.33,1.33,0,0,0,448.11,43Z"/><path class="cls-2" d="M456.79,35.52H459l3,8.23,2.91-8.23H467l-4.52,12.16q-1.17,3.16-3.41,3.17h0a7.08,7.08,0,0,1-1.54-.18V48.86a5.71,5.71,0,0,0,1.24.18c.91,0,1.65-.85,2.2-2.54Z"/><path class="cls-2" d="M468.43,41.14c0-3.86,1.62-5.8,4.85-5.8h0a4.54,4.54,0,0,1,3.52,1.44,5.5,5.5,0,0,1,1.32,3.86,14.58,14.58,0,0,1-.07,1.51h-7.59a2.84,2.84,0,0,0,3.1,2.83,8,8,0,0,0,3.79-.82V46a9.74,9.74,0,0,1-3.84.71h-.06a6.35,6.35,0,0,1-1.79-.24,5.4,5.4,0,0,1-1.59-.8,3.74,3.74,0,0,1-1.22-1.72A7.72,7.72,0,0,1,468.43,41.14Zm2-.79h5.64a5.75,5.75,0,0,0-.18-1.05,4.54,4.54,0,0,0-.45-1,2.1,2.1,0,0,0-.85-.82,2.68,2.68,0,0,0-1.34-.31,2.6,2.6,0,0,0-2,.72A4.11,4.11,0,0,0,470.46,40.35Z"/><path class="cls-2" d="M480.74,46.51V36.44a14.47,14.47,0,0,1,5.36-1.1v1.85a14.08,14.08,0,0,0-3.35.47v8.85Z"/><path class="cls-3" d="M650.34,368a10.67,10.67,0,0,1,0-5.42,5.71,5.71,0,0,1,.89-1.87,4.63,4.63,0,0,1,1.35-1.13,5.64,5.64,0,0,1,1.56-.58,8.51,8.51,0,0,1,1.63-.15,10.25,10.25,0,0,1,3.84.75v1.62a8.94,8.94,0,0,0-3.64-.79,4.08,4.08,0,0,0-3.22,1.15,7.34,7.34,0,0,0,0,7.4,4.05,4.05,0,0,0,3.22,1.16,8.78,8.78,0,0,0,3.64-.79V371a10.25,10.25,0,0,1-3.84.75,8.51,8.51,0,0,1-1.63-.15,5.34,5.34,0,0,1-1.56-.58,4.48,4.48,0,0,1-1.35-1.13A5.56,5.56,0,0,1,650.34,368Z"/><path class="cls-3" d="M661.77,369.29a7.55,7.55,0,0,1,0-4.85,3.26,3.26,0,0,1,1.08-1.5,4.55,4.55,0,0,1,1.39-.7,5.94,5.94,0,0,1,3.13,0,4.59,4.59,0,0,1,1.4.7,3.33,3.33,0,0,1,1.08,1.5,7.55,7.55,0,0,1,0,4.85,3.28,3.28,0,0,1-1.08,1.5,4.59,4.59,0,0,1-1.4.7,5.94,5.94,0,0,1-3.13,0,4.55,4.55,0,0,1-1.39-.7A3.21,3.21,0,0,1,661.77,369.29Zm1.56-4.16a7.27,7.27,0,0,0,0,3.47,2,2,0,0,0,.62,1,2.31,2.31,0,0,0,.83.44,4.39,4.39,0,0,0,1,.11,4.24,4.24,0,0,0,1-.11,2.43,2.43,0,0,0,.84-.44,2,2,0,0,0,.61-1,7.27,7.27,0,0,0,0-3.47,2,2,0,0,0-.61-1,2.24,2.24,0,0,0-.84-.43,3.79,3.79,0,0,0-1-.11,3.92,3.92,0,0,0-1,.11,2.13,2.13,0,0,0-.83.43A2,2,0,0,0,663.33,365.13Z"/><path class="cls-3" d="M672.61,371.55v-8.62a8.67,8.67,0,0,1,3.9-.93,4.21,4.21,0,0,1,2.51.7,9.27,9.27,0,0,1,3.44-.7,4,4,0,0,1,2.78.92,3.4,3.4,0,0,1,1,2.6v6h-1.72V365.4a2.07,2.07,0,0,0-.4-1.31,1.91,1.91,0,0,0-1.55-.5,6.67,6.67,0,0,0-2.52.53,3.77,3.77,0,0,1,.22,1.34v6.09h-1.72v-6.14a1.86,1.86,0,0,0-.43-1.3,2.37,2.37,0,0,0-1.74-.48,7.8,7.8,0,0,0-2,.29v7.63Z"/><path class="cls-3" d="M688.94,375.13V365a3.83,3.83,0,0,1,0-.6,3.15,3.15,0,0,1,.28-.76,2.7,2.7,0,0,1,.61-.81,3.37,3.37,0,0,1,1.16-.6,5.68,5.68,0,0,1,1.79-.26,4.9,4.9,0,0,1,1,.1,3.85,3.85,0,0,1,1.1.41,3.55,3.55,0,0,1,1,.83,4.17,4.17,0,0,1,.72,1.45A7.38,7.38,0,0,1,697,367a6.71,6.71,0,0,1-.38,2.38,3.21,3.21,0,0,1-1.05,1.47,4.38,4.38,0,0,1-1.37.68,5.24,5.24,0,0,1-1.53.21,6.94,6.94,0,0,1-2-.28v3.71Zm1.72-5.35a5.49,5.49,0,0,0,2,.38,3.53,3.53,0,0,0,1-.12,2.1,2.1,0,0,0,.81-.42,2,2,0,0,0,.6-1,5.64,5.64,0,0,0,.21-1.68,6.64,6.64,0,0,0-.21-1.82,2.11,2.11,0,0,0-.59-1.05,2.21,2.21,0,0,0-.77-.45,2.79,2.79,0,0,0-.86-.12c-1.45,0-2.17.47-2.17,1.41Z"/><path class="cls-3" d="M699.32,367.6v-5.44H701v5.58a2.68,2.68,0,0,0,.55,1.87,2.19,2.19,0,0,0,1.71.6,2.22,2.22,0,0,0,1.7-.59,2.76,2.76,0,0,0,.54-1.88v-5.58h1.71v5.44a4.21,4.21,0,0,1-1,3,4.5,4.5,0,0,1-5.85,0A4.17,4.17,0,0,1,699.32,367.6Z"/><path class="cls-3" d="M709.1,363.63v-1.47h1.64v-2.78h1.72v2.78H715v1.47h-2.5v5.43c0,.73.46,1.1,1.38,1.1h0a2.11,2.11,0,0,0,1.1-.28v1.56a3.49,3.49,0,0,1-1.29.26h0a3.78,3.78,0,0,1-.72-.08,5.3,5.3,0,0,1-.93-.33,2,2,0,0,1-.88-.84,2.86,2.86,0,0,1-.35-1.49v-5.33Z"/><path class="cls-3" d="M716.64,367c0-3.3,1.38-5,4.14-5h0a3.88,3.88,0,0,1,3,1.23,4.7,4.7,0,0,1,1.13,3.3q0,.68-.06,1.29h-6.49a2.44,2.44,0,0,0,2.65,2.42,6.86,6.86,0,0,0,3.24-.71v1.57a8.49,8.49,0,0,1-3.28.61h0a5.34,5.34,0,0,1-1.53-.21,4.81,4.81,0,0,1-1.36-.68,3.13,3.13,0,0,1-1-1.47A6.55,6.55,0,0,1,716.64,367Zm1.72-.68h4.83a5.12,5.12,0,0,0-.16-.9,4,4,0,0,0-.38-.87,1.83,1.83,0,0,0-.73-.7,2.29,2.29,0,0,0-1.14-.26,2.23,2.23,0,0,0-1.74.61A3.59,3.59,0,0,0,718.36,366.29Z"/><path class="cls-3" d="M733.27,368a4,4,0,0,1,.53-2,5,5,0,0,1,2-1.77,4.28,4.28,0,0,1-1.17-2.49,3,3,0,0,1,2.94-2.93,2.91,2.91,0,0,1,2.1.83,2.89,2.89,0,0,1,.33,3.7,5.65,5.65,0,0,1-1.69,1.37l2.45,2.93a7.81,7.81,0,0,0,.49-1.62H743a7.59,7.59,0,0,1-1.12,2.88l2.19,2.63H742l-1.1-1.3a4.81,4.81,0,0,1-3.51,1.45h0a4.64,4.64,0,0,1-1.88-.36,3.4,3.4,0,0,1-1.27-.95,4.32,4.32,0,0,1-.69-1.2A3.39,3.39,0,0,1,733.27,368Zm1.72.06a1.89,1.89,0,0,0,.1.6,2.8,2.8,0,0,0,.35.69,1.75,1.75,0,0,0,.77.63,2.71,2.71,0,0,0,1.22.25,3.3,3.3,0,0,0,2.49-1.13l-3-3.65a6.16,6.16,0,0,0-1.1.73,2.16,2.16,0,0,0-.59.75,3,3,0,0,0-.19.59A2.7,2.7,0,0,0,735,368.06Zm1.63-7.44a1.35,1.35,0,0,0-.42,1,3.73,3.73,0,0,0,1.06,1.88,5.64,5.64,0,0,0,1.43-1,1.39,1.39,0,0,0,.33-.92,1.33,1.33,0,0,0-.39-1,1.39,1.39,0,0,0-1-.39A1.36,1.36,0,0,0,736.62,360.62Z"/><path class="cls-3" d="M650.48,395.26V382.7h1.9l4.11,5.42,4.14-5.42h1.9v12.56h-1.75v-9.9L656.49,391l-4.26-5.62v9.9Z"/><path class="cls-3" d="M665.07,392.29a2.47,2.47,0,0,1,1.18-2.18,5.83,5.83,0,0,1,3.25-.78,11.84,11.84,0,0,1,1.7.11,2.29,2.29,0,0,0-.65-1.7,2.93,2.93,0,0,0-1.93-.52,8.2,8.2,0,0,0-2.61.47v-1.47a8.12,8.12,0,0,1,2.84-.5,4.25,4.25,0,0,1,3,1,3.85,3.85,0,0,1,1.07,2.92v2.71a3.05,3.05,0,0,1-.06.6,3.47,3.47,0,0,1-.29.77,2.59,2.59,0,0,1-.61.82,3.34,3.34,0,0,1-1.17.6,5.67,5.67,0,0,1-1.78.25,5.94,5.94,0,0,1-1.83-.26,3.51,3.51,0,0,1-1.17-.61,2.54,2.54,0,0,1-.63-.83,2.82,2.82,0,0,1-.29-.8A3.15,3.15,0,0,1,665.07,392.29Zm1.72,0c0,1.06.75,1.59,2.26,1.59h0q2.13,0,2.13-1.53v-1.51a9.45,9.45,0,0,0-1.63-.12,4.37,4.37,0,0,0-.79.07,5.66,5.66,0,0,0-.89.21,1.81,1.81,0,0,0-.79.48A1.16,1.16,0,0,0,666.79,392.27Z"/><path class="cls-3" d="M676,394.16a6.35,6.35,0,0,1,0-7.2,4.13,4.13,0,0,1,3.25-1.24,7.49,7.49,0,0,1,2.77.52v1.64a5.89,5.89,0,0,0-2.58-.62h0a2.89,2.89,0,0,0-2,.67,3.53,3.53,0,0,0-.73,2.63,6.05,6.05,0,0,0,.21,1.73,2.09,2.09,0,0,0,.64,1,2.55,2.55,0,0,0,.87.44,4.48,4.48,0,0,0,1,.11,6.08,6.08,0,0,0,2.62-.6v1.62a7.49,7.49,0,0,1-2.77.52A4.13,4.13,0,0,1,676,394.16Z"/><path class="cls-3" d="M684.24,395.26v-13H686v3.91a6.83,6.83,0,0,1,2.49-.46,3.5,3.5,0,0,1,2.72,1,4.17,4.17,0,0,1,1,3v5.54h-1.75v-5.6a2.28,2.28,0,0,0-.59-1.85,2.41,2.41,0,0,0-1.52-.46,6.41,6.41,0,0,0-2.32.45v7.46Z"/><path class="cls-3" d="M694.85,384.41v-1.82h1.83v1.82Zm0,10.85v-9.4h1.72v9.4Z"/><path class="cls-3" d="M699.69,395.26v-8.6a9,9,0,0,1,4-1,4,4,0,0,1,2.8.93,3.32,3.32,0,0,1,1,2.57v6.06h-1.76v-6.19a1.91,1.91,0,0,0-.42-1.31,2.25,2.25,0,0,0-1.7-.48,7,7,0,0,0-2.21.34v7.64Z"/><path class="cls-3" d="M709.83,390.67q0-4.95,4.15-4.95h0a3.89,3.89,0,0,1,3,1.23,4.69,4.69,0,0,1,1.12,3.29c0,.45,0,.88,0,1.29h-6.49a2.44,2.44,0,0,0,2.65,2.42,6.8,6.8,0,0,0,3.24-.71v1.57a8.34,8.34,0,0,1-3.28.61h-.06a5.22,5.22,0,0,1-1.52-.21,4.23,4.23,0,0,1-1.36-.68,3.13,3.13,0,0,1-1-1.47A6.54,6.54,0,0,1,709.83,390.67Zm1.73-.68h4.83a5.29,5.29,0,0,0-.16-.9,4.27,4.27,0,0,0-.38-.86,1.85,1.85,0,0,0-.73-.71,2.4,2.4,0,0,0-1.14-.26,2.23,2.23,0,0,0-1.74.61A3.62,3.62,0,0,0,711.56,390Z"/><path class="cls-3" d="M727.08,395.26V382.7h1.76v10.92h6.23v1.64Z"/><path class="cls-3" d="M736.37,390.67c0-3.3,1.39-4.95,4.15-4.95h0a3.89,3.89,0,0,1,3,1.23,4.69,4.69,0,0,1,1.12,3.29c0,.45,0,.88,0,1.29h-6.49a2.44,2.44,0,0,0,2.65,2.42,6.74,6.74,0,0,0,3.24-.71v1.57a8.34,8.34,0,0,1-3.28.61h0a5.29,5.29,0,0,1-1.53-.21,4.23,4.23,0,0,1-1.36-.68,3.13,3.13,0,0,1-1-1.47A6.54,6.54,0,0,1,736.37,390.67Zm1.73-.68h4.83a5.29,5.29,0,0,0-.16-.9,4.27,4.27,0,0,0-.38-.86,1.85,1.85,0,0,0-.73-.71,2.4,2.4,0,0,0-1.14-.26,2.23,2.23,0,0,0-1.74.61A3.62,3.62,0,0,0,738.1,390Z"/><path class="cls-3" d="M746.4,392.29a2.47,2.47,0,0,1,1.18-2.18,5.79,5.79,0,0,1,3.24-.78,11.89,11.89,0,0,1,1.71.11,2.29,2.29,0,0,0-.65-1.7,2.94,2.94,0,0,0-1.94-.52,8.19,8.19,0,0,0-2.6.47v-1.47a8.12,8.12,0,0,1,2.84-.5,4.25,4.25,0,0,1,3,1,3.85,3.85,0,0,1,1.07,2.92v2.71a3.05,3.05,0,0,1-.06.6,3.47,3.47,0,0,1-.29.77,2.74,2.74,0,0,1-.61.82,3.34,3.34,0,0,1-1.17.6,5.69,5.69,0,0,1-1.79.25,5.87,5.87,0,0,1-1.82-.26,3.51,3.51,0,0,1-1.17-.61,2.54,2.54,0,0,1-.63-.83,2.82,2.82,0,0,1-.29-.8A3.15,3.15,0,0,1,746.4,392.29Zm1.72,0q0,1.59,2.25,1.59h0q2.13,0,2.13-1.53v-1.51a9.53,9.53,0,0,0-1.63-.12,4.37,4.37,0,0,0-.79.07,5.66,5.66,0,0,0-.89.21,1.81,1.81,0,0,0-.79.48A1.16,1.16,0,0,0,748.12,392.27Z"/><path class="cls-3" d="M756.68,395.26v-8.61a12.44,12.44,0,0,1,4.58-.93v1.58a12,12,0,0,0-2.86.39v7.57Z"/><path class="cls-3" d="M763.12,395.26v-8.6a9,9,0,0,1,4-1,4,4,0,0,1,2.8.93,3.32,3.32,0,0,1,1,2.57v6.06h-1.76v-6.19a1.91,1.91,0,0,0-.42-1.31,2.25,2.25,0,0,0-1.7-.48,7.16,7.16,0,0,0-2.22.34v7.64Z"/><path class="cls-3" d="M773.81,384.41v-1.82h1.83v1.82Zm.06,10.85v-9.4h1.72v9.4Z"/><path class="cls-3" d="M778.66,395.26v-8.6a9,9,0,0,1,4-1,4,4,0,0,1,2.79.93,3.29,3.29,0,0,1,1,2.57v6.06h-1.76v-6.19a1.91,1.91,0,0,0-.42-1.31,2.28,2.28,0,0,0-1.71-.48,7.14,7.14,0,0,0-2.21.34v7.64Z"/><path class="cls-3" d="M788.93,390.49a5.63,5.63,0,0,1,1-3.49,3.54,3.54,0,0,1,3-1.3,4.48,4.48,0,0,1,2.74.77,2.57,2.57,0,0,1,1,2.2v7a3.62,3.62,0,0,1-.18,1.16,3.37,3.37,0,0,1-.6,1,2.76,2.76,0,0,1-1.27.8,6.6,6.6,0,0,1-2.08.29,10.09,10.09,0,0,1-2.78-.39v-1.64a9.26,9.26,0,0,0,2.63.39,5.34,5.34,0,0,0,1.47-.16,1.45,1.45,0,0,0,.79-.45,1.53,1.53,0,0,0,.26-.51,2.75,2.75,0,0,0,0-.55v-.82a7.29,7.29,0,0,1-1.89.26,4,4,0,0,1-3.1-1.18A4.87,4.87,0,0,1,788.93,390.49Zm1.72,0a3.37,3.37,0,0,0,.65,2.43,2.58,2.58,0,0,0,1.81.6,5,5,0,0,0,1.89-.36v-4.61a1.86,1.86,0,0,0,0-.36,2,2,0,0,0-.21-.42,1.08,1.08,0,0,0-.63-.4,4.28,4.28,0,0,0-1.18-.14,2.86,2.86,0,0,0-.82.11,2.32,2.32,0,0,0-.72.43,2,2,0,0,0-.56,1A6,6,0,0,0,790.65,390.5Z"/><path class="cls-4" d="M421.44,362.48a2.89,2.89,0,0,1-.69,1.87L410.19,376.7a2.87,2.87,0,0,1-4.37,0l-10.55-12.35a2.88,2.88,0,0,1,4.37-3.74L408,370.4l8.36-9.79a2.88,2.88,0,0,1,5.07,1.87Z"/><path class="cls-4" d="M410.88,294.17v79.31a2.88,2.88,0,1,1-5.75,0V294.17a2.88,2.88,0,1,1,5.75,0Z"/><path class="cls-4" d="M394.58,304.85a2.83,2.83,0,0,1,.69-1.87l10.55-12.35a2.87,2.87,0,0,1,4.37,0L420.75,303a2.88,2.88,0,1,1-4.37,3.74L408,296.93l-8.37,9.79a2.87,2.87,0,0,1-5.06-1.87Z"/><path class="cls-5" d="M408,340.46a7.82,7.82,0,1,1,7.81-7.81A7.82,7.82,0,0,1,408,340.46Z"/><path class="cls-6" d="M408,327.52a5.13,5.13,0,1,1-5.13,5.13,5.13,5.13,0,0,1,5.13-5.13m0-5.38a10.51,10.51,0,1,0,10.5,10.51A10.52,10.52,0,0,0,408,322.14Z"/><path class="cls-4" d="M617.72,294v41.5a2.88,2.88,0,0,1-5.76,0V294a2.88,2.88,0,0,1,5.76,0Z"/><path class="cls-4" d="M565.57,332.65H614.5a2.88,2.88,0,1,1,0,5.75H565.57a2.88,2.88,0,1,1,0-5.75Z"/><path class="cls-4" d="M628.27,304.85a2.83,2.83,0,0,0-.69-1.87L617,290.63a2.88,2.88,0,0,0-4.38,0L602.1,303a2.88,2.88,0,1,0,4.37,3.74l8.37-9.79,8.37,9.79a2.87,2.87,0,0,0,5.06-1.87Z"/><path class="cls-4" d="M568.44,335.53v30.25a2.88,2.88,0,0,1-5.75,0V335.53a2.88,2.88,0,1,1,5.75,0Z"/><path class="cls-4" d="M538.26,397.3,567.6,368a2.88,2.88,0,1,0-4.07-4.07l-29.34,29.34a2.88,2.88,0,0,0,4.07,4.07Z"/><path class="cls-4" d="M553.37,397.12a2.81,2.81,0,0,1-1.81.83l-16.19,1.27a2.89,2.89,0,0,1-3.1-3.09l1.27-16.2a2.88,2.88,0,0,1,5.74.45l-1,12.84,12.84-1a2.88,2.88,0,0,1,3.09,2.65A2.93,2.93,0,0,1,553.37,397.12Z"/><path class="cls-5" d="M565.26,371.59a7.82,7.82,0,1,1,7.81-7.82A7.83,7.83,0,0,1,565.26,371.59Z"/><path class="cls-6" d="M565.26,358.64a5.13,5.13,0,1,1-5.13,5.13,5.13,5.13,0,0,1,5.13-5.13m0-5.37a10.51,10.51,0,1,0,10.5,10.5,10.51,10.51,0,0,0-10.5-10.5Z"/><path class="cls-4" d="M198.3,293.86v41.49a2.88,2.88,0,1,0,5.75,0V293.86a2.88,2.88,0,1,0-5.75,0Z"/><path class="cls-4" d="M250.45,332.47H201.51a2.88,2.88,0,0,0,0,5.76h48.94a2.88,2.88,0,0,0,0-5.76Z"/><path class="cls-4" d="M187.74,304.68a2.91,2.91,0,0,1,.69-1.88L199,290.46a2.87,2.87,0,0,1,4.37,0l10.55,12.34a2.88,2.88,0,0,1-4.37,3.75l-8.37-9.79-8.36,9.79a2.88,2.88,0,0,1-5.07-1.87Z"/><path class="cls-4" d="M247.57,335.35V365.6a2.88,2.88,0,1,0,5.75,0V335.35a2.88,2.88,0,1,0-5.75,0Z"/><path class="cls-4" d="M277.75,397.13l-29.34-29.34a2.88,2.88,0,1,1,4.07-4.07l29.34,29.34a2.88,2.88,0,0,1-4.07,4.07Z"/><path class="cls-4" d="M262.64,396.94a2.89,2.89,0,0,0,1.81.84l16.2,1.26a2.83,2.83,0,0,0,2.25-.83,2.89,2.89,0,0,0,.84-2.26l-1.27-16.19a2.88,2.88,0,0,0-5.74.44l1,12.84-12.84-1a2.88,2.88,0,0,0-2.26,4.9Z"/><circle class="cls-5" cx="250.76" cy="362.88" r="7.82"/><path class="cls-6" d="M250.76,357.75a5.13,5.13,0,1,1-5.13,5.13,5.13,5.13,0,0,1,5.13-5.13m0-5.38a10.51,10.51,0,1,0,10.5,10.51,10.51,10.51,0,0,0-10.5-10.51Z"/><path class="cls-7" d="M568.11,365.26h71.33a1.1,1.1,0,1,0,0-2.19H568.11a1.1,1.1,0,0,0,0,2.19Z"/><path class="cls-3" d="M18.58,368.48l5-12.55H25.3l5,12.55H28.41L27.06,365H21.82l-1.35,3.52Zm3.86-5.15h4l-2-5.21Z"/><path class="cls-3" d="M31.78,364.91a10.71,10.71,0,0,1,0-5.43,5.76,5.76,0,0,1,.89-1.86A4.63,4.63,0,0,1,34,356.49a5.42,5.42,0,0,1,1.56-.58,8.44,8.44,0,0,1,1.63-.15,10.33,10.33,0,0,1,3.84.75v1.62a8.94,8.94,0,0,0-3.64-.79,4.07,4.07,0,0,0-3.22,1.15,7.28,7.28,0,0,0,0,7.4,4,4,0,0,0,3.22,1.16,8.78,8.78,0,0,0,3.64-.79v1.62a10.33,10.33,0,0,1-3.84.75,8.44,8.44,0,0,1-1.63-.15A5.42,5.42,0,0,1,34,367.9a4.48,4.48,0,0,1-1.35-1.13A5.76,5.76,0,0,1,31.78,364.91Z"/><path class="cls-3" d="M43.51,368.48V355.93h1.75v12.55Z"/><path class="cls-3" d="M48.5,368.48V355.93h4a5.71,5.71,0,0,1,4.39,1.6,8.09,8.09,0,0,1,0,9.36,5.73,5.73,0,0,1-4.39,1.59Zm1.76-1.54h2a4.4,4.4,0,0,0,3.36-1.14,6.57,6.57,0,0,0,0-7.19,4.4,4.4,0,0,0-3.36-1.14h-2Z"/><path class="cls-3" d="M66.16,357.56v-1.63h10.2v1.63H72.12v10.92H70.37V357.56Z"/><path class="cls-3" d="M76.9,368.48v-8.6a12.46,12.46,0,0,1,4.58-.94v1.58a12.47,12.47,0,0,0-2.86.4v7.56Z"/><path class="cls-3" d="M82.7,365.51a2.46,2.46,0,0,1,1.18-2.17,5.79,5.79,0,0,1,3.24-.79,13.52,13.52,0,0,1,1.71.11,2.3,2.3,0,0,0-.65-1.7,3,3,0,0,0-1.94-.51,8.19,8.19,0,0,0-2.6.47v-1.47a7.9,7.9,0,0,1,2.84-.51,4.25,4.25,0,0,1,3,1,3.85,3.85,0,0,1,1.07,2.92v2.71a3.05,3.05,0,0,1-.06.6,3.66,3.66,0,0,1-.29.77,2.7,2.7,0,0,1-.61.81,3.18,3.18,0,0,1-1.17.61,6,6,0,0,1-1.79.25,5.87,5.87,0,0,1-1.82-.26,3.33,3.33,0,0,1-1.17-.62,2.44,2.44,0,0,1-.63-.83,2.77,2.77,0,0,1-.29-.79A3.26,3.26,0,0,1,82.7,365.51Zm1.72,0c0,1.06.75,1.58,2.25,1.58h0c1.42,0,2.13-.5,2.13-1.52V364a12.12,12.12,0,0,0-1.63-.12,5.51,5.51,0,0,0-.79.07,7.19,7.19,0,0,0-.89.22,1.72,1.72,0,0,0-.79.48A1.14,1.14,0,0,0,84.42,365.5Z"/><path class="cls-3" d="M93.07,368.48v-8.59a9,9,0,0,1,4-1,4,4,0,0,1,2.8.93,3.34,3.34,0,0,1,1,2.58v6.05H99.12v-6.19A1.93,1.93,0,0,0,98.7,361a2.26,2.26,0,0,0-1.7-.47,7.16,7.16,0,0,0-2.22.34v7.63Z"/><path class="cls-3" d="M103.22,361.74a2.67,2.67,0,0,1,.83-2,3.48,3.48,0,0,1,2.54-.82,5.64,5.64,0,0,1,2.52.62v1.49a5.46,5.46,0,0,0-2.31-.56q-1.86,0-1.86,1.2a.74.74,0,0,0,.5.65,5.58,5.58,0,0,0,1.19.46,12.87,12.87,0,0,1,1.4.48,2.71,2.71,0,0,1,1.2.94,2.76,2.76,0,0,1-.36,3.59,3.69,3.69,0,0,1-2.64.82,5.57,5.57,0,0,1-2.71-.66V366.4a5.23,5.23,0,0,0,2.6.68h0a2.43,2.43,0,0,0,1.38-.32,1,1,0,0,0,.47-.83,1.12,1.12,0,0,0-.49-.93,3.69,3.69,0,0,0-1.2-.55c-.47-.13-.94-.28-1.41-.44a2.73,2.73,0,0,1-1.2-.81A2.11,2.11,0,0,1,103.22,361.74Z"/><path class="cls-3" d="M111.5,365.51a2.46,2.46,0,0,1,1.18-2.17,5.79,5.79,0,0,1,3.24-.79,13.52,13.52,0,0,1,1.71.11A2.3,2.3,0,0,0,117,361a3,3,0,0,0-1.94-.51,8.19,8.19,0,0,0-2.6.47v-1.47a7.9,7.9,0,0,1,2.84-.51,4.25,4.25,0,0,1,3,1,3.85,3.85,0,0,1,1.07,2.92v2.71a3.05,3.05,0,0,1-.06.6,3.66,3.66,0,0,1-.29.77,2.7,2.7,0,0,1-.61.81,3.18,3.18,0,0,1-1.17.61,6,6,0,0,1-1.79.25,5.87,5.87,0,0,1-1.82-.26,3.33,3.33,0,0,1-1.17-.62,2.44,2.44,0,0,1-.63-.83,2.77,2.77,0,0,1-.29-.79A3.26,3.26,0,0,1,111.5,365.51Zm1.72,0c0,1.06.75,1.58,2.25,1.58h0c1.42,0,2.13-.5,2.13-1.52V364a12.12,12.12,0,0,0-1.63-.12,5.51,5.51,0,0,0-.79.07,7.19,7.19,0,0,0-.89.22,1.72,1.72,0,0,0-.79.48A1.14,1.14,0,0,0,113.22,365.5Z"/><path class="cls-3" d="M122.4,367.39a6.36,6.36,0,0,1,0-7.21,4.17,4.17,0,0,1,3.25-1.24,7.5,7.5,0,0,1,2.77.53v1.63a5.88,5.88,0,0,0-2.58-.61h0a2.94,2.94,0,0,0-2,.66,3.57,3.57,0,0,0-.74,2.64,5.9,5.9,0,0,0,.22,1.72,2,2,0,0,0,.64,1,2.39,2.39,0,0,0,.87.44,4,4,0,0,0,1,.11,6.21,6.21,0,0,0,2.62-.59v1.62a7.49,7.49,0,0,1-2.77.52A4.17,4.17,0,0,1,122.4,367.39Z"/><path class="cls-3" d="M130,360.56v-1.47h1.64V356.3h1.71v2.79h2.5v1.47h-2.5V366c0,.73.47,1.09,1.39,1.09h0a2.07,2.07,0,0,0,1.09-.27v1.56a3.4,3.4,0,0,1-1.28.26h0a3.78,3.78,0,0,1-.72-.08,5.3,5.3,0,0,1-.93-.33,1.92,1.92,0,0,1-.88-.84,2.86,2.86,0,0,1-.35-1.49v-5.33Z"/><path class="cls-3" d="M138.12,357.64v-1.82H140v1.82Zm.06,10.84v-9.39h1.72v9.39Z"/><path class="cls-3" d="M142.78,366.22a7.55,7.55,0,0,1,0-4.85,3.27,3.27,0,0,1,1.07-1.5,4.71,4.71,0,0,1,1.4-.7,5.94,5.94,0,0,1,3.13,0,4.59,4.59,0,0,1,1.4.7,3.35,3.35,0,0,1,1.08,1.5,7.73,7.73,0,0,1,0,4.85,3.35,3.35,0,0,1-1.08,1.5,4.59,4.59,0,0,1-1.4.7,5.94,5.94,0,0,1-3.13,0,4.71,4.71,0,0,1-1.4-.7A3.27,3.27,0,0,1,142.78,366.22Zm1.56-4.16a7.27,7.27,0,0,0,0,3.47,2,2,0,0,0,.62,1,2.31,2.31,0,0,0,.83.44,4.38,4.38,0,0,0,1,.1,4.29,4.29,0,0,0,1-.1,2.31,2.31,0,0,0,.83-.44,1.92,1.92,0,0,0,.62-1,7.27,7.27,0,0,0,0-3.47,1.92,1.92,0,0,0-.62-1,2.31,2.31,0,0,0-.83-.44,4.29,4.29,0,0,0-1-.1,4.38,4.38,0,0,0-1,.1,2.31,2.31,0,0,0-.83.44A2,2,0,0,0,144.34,362.06Z"/><path class="cls-3" d="M153.42,368.48v-8.59a9,9,0,0,1,4-1,4,4,0,0,1,2.79.93,3.32,3.32,0,0,1,1,2.58v6.05h-1.76v-6.19a1.93,1.93,0,0,0-.42-1.31,2.29,2.29,0,0,0-1.71-.47,7.09,7.09,0,0,0-2.21.34v7.63Z"/><path class="cls-3" d="M163.58,361.74a2.64,2.64,0,0,1,.83-2,3.46,3.46,0,0,1,2.54-.82,5.57,5.57,0,0,1,2.51.62v1.49a5.42,5.42,0,0,0-2.3-.56q-1.86,0-1.86,1.2a.75.75,0,0,0,.49.65,5.68,5.68,0,0,0,1.2.46,13.65,13.65,0,0,1,1.4.48,2.74,2.74,0,0,1,1.19.94,2.57,2.57,0,0,1,.5,1.63,2.62,2.62,0,0,1-.85,2,3.73,3.73,0,0,1-2.64.82,5.55,5.55,0,0,1-2.71-.66V366.4a5.21,5.21,0,0,0,2.6.68h0a2.37,2.37,0,0,0,1.37-.32,1,1,0,0,0,.48-.83,1.11,1.11,0,0,0-.5-.93,3.54,3.54,0,0,0-1.19-.55c-.48-.13-1-.28-1.42-.44a2.76,2.76,0,0,1-1.19-.81A2.11,2.11,0,0,1,163.58,361.74Z"/><path class="cls-7" d="M180.49,364h71.33a1.1,1.1,0,1,0,0-2.19H180.49a1.1,1.1,0,0,0,0,2.19Z"/><path class="cls-3" d="M319,331.3a3.34,3.34,0,0,1,1.07-2.5,4.64,4.64,0,0,1,3.32-1,7.17,7.17,0,0,1,3.23.77v1.7a5.76,5.76,0,0,0-3-.83c-1.9,0-2.84.63-2.84,1.9a1.08,1.08,0,0,0,.5.89,3.73,3.73,0,0,0,1.23.61c.49.15,1,.35,1.61.59a16.11,16.11,0,0,1,1.61.77,3.44,3.44,0,0,1,1.73,3,3,3,0,0,1-1.21,2.52,5.44,5.44,0,0,1-3.33.9,8.45,8.45,0,0,1-3.73-.9v-1.8a6.78,6.78,0,0,0,3.58,1.06c1.95,0,2.92-.59,2.93-1.78a1.86,1.86,0,0,0-.49-1.3,3,3,0,0,0-1.23-.78l-1.62-.54c-.58-.21-1.12-.42-1.61-.63a2.89,2.89,0,0,1-1.23-1A2.71,2.71,0,0,1,319,331.3Z"/><path class="cls-3" d="M329.42,334.18a9.19,9.19,0,0,1,.36-2.7,5.53,5.53,0,0,1,.92-1.87,4.84,4.84,0,0,1,1.37-1.12,5.42,5.42,0,0,1,1.56-.58,8.44,8.44,0,0,1,1.63-.15,8.58,8.58,0,0,1,1.65.15,5.26,5.26,0,0,1,1.55.58,4.8,4.8,0,0,1,1.36,1.12,5.35,5.35,0,0,1,.93,1.87,10.33,10.33,0,0,1-.06,5.62,4.53,4.53,0,0,1-1.14,1.94A5.34,5.34,0,0,1,338,340.1a6.6,6.6,0,0,1-1.8.46,1.88,1.88,0,0,0,.5,1.29,1.74,1.74,0,0,0,1.37.55v1.37a3.64,3.64,0,0,1-2.57-.93,2.93,2.93,0,0,1-1-2.27,6.67,6.67,0,0,1-1.86-.42,5.23,5.23,0,0,1-1.59-1,4.68,4.68,0,0,1-1.2-2A9.21,9.21,0,0,1,329.42,334.18Zm2-2.15a9,9,0,0,0,0,4.3,4.29,4.29,0,0,0,.63,1.42,2.76,2.76,0,0,0,.95.81,3.79,3.79,0,0,0,1.09.39,8.38,8.38,0,0,0,2.31,0,3.84,3.84,0,0,0,1.1-.39,2.76,2.76,0,0,0,.95-.81,4.1,4.1,0,0,0,.64-1.42,9.37,9.37,0,0,0,0-4.3,4.43,4.43,0,0,0-.63-1.41,2.7,2.7,0,0,0-1-.81,3.47,3.47,0,0,0-1.09-.38,6.79,6.79,0,0,0-1.17-.09,6.67,6.67,0,0,0-1.16.09,3.42,3.42,0,0,0-1.08.38,2.76,2.76,0,0,0-.95.81A4.43,4.43,0,0,0,331.43,332Z"/><path class="cls-3" d="M343.71,340.46V327.91h1.75v10.92h6.24v1.63Z"/><path class="cls-7" d="M359.24,334.92h49.82a1.1,1.1,0,1,0,0-2.19H359.24a1.1,1.1,0,0,0,0,2.19Z"/><rect class="cls-6" x="255.69" y="426.22" width="306.31" height="234.03" rx="7.58"/><path class="cls-6" d="M555,534.91h91.49a1.1,1.1,0,1,0,0-2.19H555a1.1,1.1,0,1,0,0,2.19Z"/><path class="cls-8" d="M476.77,464.32c-20.42,0-41.55,4.63-41.55,12.38v98.05a4.62,4.62,0,0,0,.89,2.67,7.81,7.81,0,0,0,1,1.17c5.28,5.11,21.22,8.54,39.65,8.54s34.39-3.43,39.66-8.53a7.87,7.87,0,0,0,1-1.18,4.62,4.62,0,0,0,.89-2.67V476.7C518.34,469,497.2,464.32,476.77,464.32Z"/><path class="cls-5" d="M505.25,466.55c-7.71-2.1-18.09-3.3-28.48-3.3s-20.76,1.2-28.47,3.3c-9,2.45-13.8,5.93-13.8,10.06v32.85a5.64,5.64,0,0,0,1.08,3.27,9.35,9.35,0,0,0,1.14,1.33c5.42,5.23,21.52,8.75,40,8.75s34.65-3.52,40.07-8.75a8.29,8.29,0,0,0,1.14-1.33,5.64,5.64,0,0,0,1.08-3.27V476.61C519.06,472.48,514.29,469,505.25,466.55Zm9.62,44a5.31,5.31,0,0,1-.65.76c-4.63,4.47-20.37,7.7-37.45,7.7s-32.8-3.24-37.42-7.7a4.8,4.8,0,0,1-.66-.76,1.91,1.91,0,0,1-.39-1.09v-27a21.63,21.63,0,0,0,2.82,1.61l.05,0q.76.36,1.62.72l.14.05c.54.23,1.11.44,1.71.65l.21.08,1.56.51.48.15,1.55.44.72.19,1.55.38.91.21,1.56.33,1,.2,1.25.23,1.43.23,1.17.18,1.53.21,1.34.17,1.2.14c.6.07,1.2.13,1.81.18l.91.09,2.2.17.78.05,2.41.13.6,0,2.65.08h.35c1,0,2,0,2.93,0s2,0,2.93,0h.36l2.64-.08.61,0,2.4-.13.79-.05,2.19-.17.94-.09c.58-.05,1.17-.11,1.75-.18l1.25-.14,1.32-.16,1.55-.22,1.15-.18c.49-.07,1-.15,1.45-.24l1.24-.22,1-.2,1.56-.33.9-.21,1.57-.38.69-.18,1.62-.47.4-.12c.56-.17,1.1-.35,1.62-.53l.17-.06c.61-.22,1.19-.44,1.75-.67l.1,0c.58-.24,1.13-.48,1.65-.73h0a21.29,21.29,0,0,0,2.84-1.61v27A1.91,1.91,0,0,1,514.87,510.55Zm-38.1-43.5c23.85,0,38.49,5.57,38.49,9.56a2,2,0,0,1-.39,1.1c-1.67,2.46-7.63,5-16.44,6.62h-.07l-1,.18-1.05.17h0a122.52,122.52,0,0,1-16.24,1.43h-.55l-1,0h-3.42l-1,0h-.55a123.82,123.82,0,0,1-16.2-1.42l-.07,0-1-.16-1.06-.19h0c-8.8-1.64-14.77-4.15-16.44-6.62a2,2,0,0,1-.4-1.1C438.3,472.62,452.94,467.05,476.77,467.05Z"/><path class="cls-5" d="M517.28,507.55a1.76,1.76,0,0,0-1.76,1.76,2.18,2.18,0,0,1-.41,1.18c-1.51,2.24-6.33,4.43-13.22,6a125.39,125.39,0,0,1-50.22,0c-6.89-1.58-11.7-3.77-13.21-6a2.18,2.18,0,0,1-.42-1.19,1.76,1.76,0,1,0-3.51,0V575a5.5,5.5,0,0,0,1.05,3.19,9.06,9.06,0,0,0,1.12,1.31c2.71,2.61,8,4.81,15.26,6.38a131.64,131.64,0,0,0,49.63,0c7.28-1.56,12.56-3.77,15.26-6.37a9.26,9.26,0,0,0,1.14-1.32,5.58,5.58,0,0,0,1-3.19V509.31A1.76,1.76,0,0,0,517.28,507.55ZM515.52,575a2.08,2.08,0,0,1-.41,1.17,5.3,5.3,0,0,1-.68.79h0c-2.24,2.16-7.18,4.13-13.9,5.54a128,128,0,0,1-47.48,0c-6.73-1.41-11.66-3.38-13.91-5.55h0a5,5,0,0,1-.66-.77A2.07,2.07,0,0,1,438,575v-60c2.88,2.09,7.49,3.86,13.5,5.19a131.71,131.71,0,0,0,50.47,0c6-1.33,10.63-3.1,13.51-5.19Z"/><path class="cls-9" d="M448.64,506v-9.16l1.8.42,2.63,4.39,2.63-3.33,1.82.31v9.16l-1.64-.28v-6.77l-2.81,3.51c-.94-1.53-1.87-3.08-2.81-4.64v6.77Z"/><path class="cls-9" d="M459.83,508.11V499q3,.45,6.1.73v1.48c-1.49-.14-3-.31-4.45-.5V503c1.28.17,2.57.31,3.86.44V505c-1.29-.13-2.58-.28-3.86-.44v2.32c1.48.19,3,.35,4.45.49v1.48Q462.87,508.54,459.83,508.11Z"/><path class="cls-9" d="M467.82,509v-9.15l1.84.13,2.66,4,2.67-3.75,1.84,0v9.16l-1.66,0v-6.77c-.95,1.33-1.9,2.66-2.85,4l-2.84-4.2v6.77C468.93,509.08,468.37,509,467.82,509Z"/><path class="cls-9" d="M478.84,504.77a6.58,6.58,0,0,1,.27-2,4,4,0,0,1,.67-1.36,3.6,3.6,0,0,1,1-.85,4.13,4.13,0,0,1,1.14-.46,6.55,6.55,0,0,1,1.21-.16,6.83,6.83,0,0,1,1.21,0,4,4,0,0,1,1.14.35,3.16,3.16,0,0,1,1,.76,3.38,3.38,0,0,1,.68,1.3,6.29,6.29,0,0,1,.27,1.95,6.86,6.86,0,0,1-.27,2,4.21,4.21,0,0,1-.68,1.41,3.92,3.92,0,0,1-1,.89,4.31,4.31,0,0,1-1.14.5,6.54,6.54,0,0,1-1.21.17,6,6,0,0,1-1.21-.06,3.86,3.86,0,0,1-1.14-.39,3.41,3.41,0,0,1-1-.79,3.87,3.87,0,0,1-.67-1.35A6.56,6.56,0,0,1,478.84,504.77Zm1.66,0a5.83,5.83,0,0,0,.21,1.7,1.87,1.87,0,0,0,.61,1,2.08,2.08,0,0,0,.82.4,3.43,3.43,0,0,0,1,.07,4.48,4.48,0,0,0,.82-.1,2.21,2.21,0,0,0,.7-.3,1.67,1.67,0,0,0,.6-.58,3.51,3.51,0,0,0,.38-1,6.12,6.12,0,0,0,.15-1.44,5.57,5.57,0,0,0-.21-1.67,1.74,1.74,0,0,0-.61-1,2.13,2.13,0,0,0-.82-.37,3.91,3.91,0,0,0-1-.06,5.62,5.62,0,0,0-.8.1,2.22,2.22,0,0,0-.71.29,1.7,1.7,0,0,0-.6.56,3.11,3.11,0,0,0-.37.94A5.47,5.47,0,0,0,480.5,504.73Z"/><path class="cls-9" d="M489.43,508.76V499.6c1.18-.12,2.35-.25,3.53-.4a3.53,3.53,0,0,1,2.5.41,2.35,2.35,0,0,1,.89,2.05,3.09,3.09,0,0,1-2,3l2.4,3.14-2,.3-2.18-2.94-1.48.18v3.23Zm1.66-4.92,1.82-.22a2.66,2.66,0,0,0,1.31-.47,1.43,1.43,0,0,0,.48-1.2c0-.56-.16-.92-.48-1.07a2.39,2.39,0,0,0-1.31-.12l-1.82.22Z"/><path class="cls-9" d="M497.19,498.58l2-.34,2.41,3.26q1.2-2.12,2.39-4.23l2-.46c-1.18,2-2.36,4-3.54,6v3.93c-.55.12-1.09.23-1.64.33v-3.92C499.57,501.65,498.38,500.13,497.19,498.58Z"/><path class="cls-9" d="M462.59,554.18V545c1,.25,2.08.47,3.12.67a5.23,5.23,0,0,1,3.22,1.68,5.29,5.29,0,0,1,1.1,3.55,4.3,4.3,0,0,1-1.09,3.27,3.59,3.59,0,0,1-3.23.65C464.67,554.65,463.62,554.43,462.59,554.18Zm1.62-1.12,1.5.3a2.2,2.2,0,0,0,2.05-.38,3.2,3.2,0,0,0,.62-2.27,4,4,0,0,0-.62-2.47,3.15,3.15,0,0,0-2.05-1.07l-1.5-.3Z"/><path class="cls-9" d="M472.07,555.69v-9.16q.82.08,1.65.12v9.15Z"/><path class="cls-9" d="M475.7,549.29a2.28,2.28,0,0,1,.94-2,4.22,4.22,0,0,1,2.35-.7,5.76,5.76,0,0,1,2.47.51v1.62a4.09,4.09,0,0,0-2.28-.58,3.07,3.07,0,0,0-1.29.29.88.88,0,0,0-.53.83.79.79,0,0,0,.48.71,4.56,4.56,0,0,0,1.17.41,11.88,11.88,0,0,1,1.38.39,2.44,2.44,0,0,1,1.17.85,2.69,2.69,0,0,1,.48,1.67,2.35,2.35,0,0,1-.92,1.87,3.57,3.57,0,0,1-2.26.8,5.34,5.34,0,0,1-3-.75v-1.67a4.1,4.1,0,0,0,2.66.88c1.27,0,1.9-.43,1.9-1.13a1,1,0,0,0-.34-.77,2.09,2.09,0,0,0-.87-.43c-.35-.09-.73-.2-1.13-.33a9.47,9.47,0,0,1-1.13-.44,2,2,0,0,1-.87-.76A2.24,2.24,0,0,1,475.7,549.29Z"/><path class="cls-9" d="M483.92,555.52v-9.16l1.65-.21V550c1.15-1.45,2.3-2.94,3.44-4.45.74-.14,1.47-.3,2.19-.47q-1.81,2.43-3.66,4.76,2,2.22,4,4.31c-.68.16-1.35.31-2,.45q-1.53-1.68-3.07-3.42l-.91,1.14v3Z"/><path class="cls-5" d="M450.66,605.49s-2.73,4.12,2.62,5c.53.07,4.41.47,5.41,1.74,0,0-.09-2.19-3.24-3.48S451,607.09,450.66,605.49Z"/><path class="cls-5" d="M453.31,596.6s-7.62,4.65-.44,9.27c1.38.89,6.39,3.4,6.25,5.71,0,0,3-4.5-1.4-7.32S452,598.27,453.31,596.6Z"/><path class="cls-5" d="M461.18,601.15c-3.26-3.43-4.17-5.54-2.78-8.28,0,0-9.75,3.75-.12,10.41,3.45,2.39,2.87,4.82,2.87,4.91A4.77,4.77,0,0,0,461.18,601.15Z"/><text class="cls-10" transform="translate(468.53 607.54)"><tspan class="cls-11">N</tspan><tspan class="cls-12" x="9.54" y="0">O</tspan><tspan class="cls-13" x="19.08" y="0">D</tspan><tspan x="27.72" y="0">E</tspan></text><path class="cls-8" d="M333.22,464.32c-20.42,0-41.55,4.63-41.55,12.38v98.05a4.62,4.62,0,0,0,.89,2.67,7.81,7.81,0,0,0,1,1.17c5.29,5.11,21.22,8.54,39.65,8.54s34.39-3.43,39.66-8.53a7.92,7.92,0,0,0,1-1.18,4.68,4.68,0,0,0,.88-2.67V476.7C374.79,469,353.66,464.32,333.22,464.32Z"/><path class="cls-5" d="M361.7,466.55c-7.71-2.1-18.09-3.3-28.48-3.3s-20.76,1.2-28.47,3.3c-9,2.45-13.8,5.93-13.8,10.06v32.85a5.71,5.71,0,0,0,1.08,3.27,9.35,9.35,0,0,0,1.14,1.33c5.42,5.23,21.52,8.75,40.05,8.75s34.65-3.52,40.07-8.75a8.88,8.88,0,0,0,1.15-1.33,5.7,5.7,0,0,0,1.07-3.27V476.61C375.51,472.48,370.74,469,361.7,466.55Zm9.63,44a6.1,6.1,0,0,1-.66.76c-4.63,4.47-20.37,7.7-37.45,7.7s-32.8-3.24-37.42-7.7a5.37,5.37,0,0,1-.66-.76,1.91,1.91,0,0,1-.39-1.09v-27a21.63,21.63,0,0,0,2.82,1.61l.05,0q.76.36,1.62.72l.14.05c.55.23,1.11.44,1.71.65l.21.08,1.56.51.48.15,1.56.44.71.19,1.56.38.9.21,1.56.33,1,.2,1.24.23,1.43.23,1.17.18c.51.08,1,.15,1.54.21l1.33.17,1.2.14c.6.07,1.2.13,1.81.18l.91.09,2.2.17.79.05,2.4.13.6,0,2.65.08h.35c1,0,1.95,0,2.93,0s2,0,2.93,0h.36l2.64-.08.61,0,2.4-.13.79-.05,2.19-.17.94-.09c.59-.05,1.17-.11,1.75-.18l1.26-.14,1.31-.16,1.55-.22,1.16-.18c.49-.07,1-.15,1.45-.24l1.23-.22,1-.2,1.56-.33.9-.21,1.57-.38.69-.18,1.62-.47.4-.12c.56-.17,1.1-.35,1.62-.53l.17-.06c.61-.22,1.19-.44,1.76-.67l.09,0c.58-.24,1.13-.48,1.66-.73h0a21.29,21.29,0,0,0,2.84-1.61v27A2,2,0,0,1,371.33,510.55Zm-38.11-43.5c23.85,0,38.49,5.57,38.49,9.56a2,2,0,0,1-.39,1.1c-1.67,2.46-7.63,5-16.44,6.62h-.07l-1,.18-1.05.17h0a122.52,122.52,0,0,1-16.24,1.43H336l-1,0h-3.41l-1,0h-.55a123.82,123.82,0,0,1-16.21-1.42l-.07,0-1-.16-1.06-.19h0c-8.8-1.64-14.76-4.15-16.44-6.62a2,2,0,0,1-.4-1.1C294.75,472.62,309.39,467.05,333.22,467.05Z"/><path class="cls-5" d="M373.73,507.55a1.76,1.76,0,0,0-1.76,1.76,2.18,2.18,0,0,1-.41,1.18c-1.51,2.24-6.33,4.43-13.22,6a125.39,125.39,0,0,1-50.22,0c-6.89-1.58-11.7-3.77-13.21-6a2.18,2.18,0,0,1-.42-1.19,1.76,1.76,0,1,0-3.51,0V575a5.5,5.5,0,0,0,1,3.19,9.06,9.06,0,0,0,1.12,1.31c2.71,2.61,8,4.81,15.26,6.38a131.7,131.7,0,0,0,49.64,0c7.28-1.56,12.55-3.77,15.25-6.37a9.26,9.26,0,0,0,1.14-1.32,5.58,5.58,0,0,0,1.05-3.19V509.31A1.76,1.76,0,0,0,373.73,507.55ZM372,575a2.08,2.08,0,0,1-.41,1.17,4.78,4.78,0,0,1-.68.79h0c-2.24,2.16-7.17,4.13-13.9,5.54a128,128,0,0,1-47.48,0c-6.72-1.41-11.66-3.38-13.91-5.55h0a5.61,5.61,0,0,1-.67-.77,2.07,2.07,0,0,1-.42-1.18v-60c2.88,2.09,7.49,3.86,13.5,5.19a131.71,131.71,0,0,0,50.47,0c6-1.33,10.63-3.1,13.51-5.19Z"/><path class="cls-9" d="M305.09,506v-9.16c.6.15,1.2.29,1.81.42q1.31,2.2,2.62,4.39l2.63-3.33,1.82.31v9.16l-1.64-.28v-6.77l-2.81,3.51q-1.41-2.3-2.8-4.64v6.77Z"/><path class="cls-9" d="M316.28,508.11V499q3,.45,6.1.73v1.48c-1.48-.14-3-.31-4.45-.5V503c1.28.17,2.57.31,3.86.44V505c-1.29-.13-2.58-.28-3.86-.44v2.32c1.48.19,3,.35,4.45.49v1.48Q319.32,508.54,316.28,508.11Z"/><path class="cls-9" d="M324.27,509v-9.15l1.84.13,2.67,4,2.66-3.75,1.84,0v9.16l-1.66,0v-6.77c-.95,1.33-1.89,2.66-2.84,4l-2.85-4.2v6.77Z"/><path class="cls-9" d="M335.3,504.77a6.6,6.6,0,0,1,.26-2,3.84,3.84,0,0,1,.68-1.36,3.43,3.43,0,0,1,1-.85,4.07,4.07,0,0,1,1.15-.46,6.33,6.33,0,0,1,1.2-.16,6.8,6.8,0,0,1,1.21,0,4.18,4.18,0,0,1,1.15.35,3.12,3.12,0,0,1,1,.76,3.52,3.52,0,0,1,.69,1.3,6.62,6.62,0,0,1,.26,1.95,7.23,7.23,0,0,1-.26,2,4.42,4.42,0,0,1-.69,1.41,3.88,3.88,0,0,1-1,.89,4.51,4.51,0,0,1-1.15.5,6.42,6.42,0,0,1-1.21.17,5.81,5.81,0,0,1-1.2-.06,3.82,3.82,0,0,1-1.15-.39,3.24,3.24,0,0,1-1-.79,3.71,3.71,0,0,1-.68-1.35A6.58,6.58,0,0,1,335.3,504.77Zm1.65,0a5.83,5.83,0,0,0,.21,1.7,1.87,1.87,0,0,0,.61,1,2.15,2.15,0,0,0,.82.4,3.46,3.46,0,0,0,1,.07,4.48,4.48,0,0,0,.82-.1,2.36,2.36,0,0,0,.71-.3,1.72,1.72,0,0,0,.59-.58,3.51,3.51,0,0,0,.38-1,6.12,6.12,0,0,0,.15-1.44,6,6,0,0,0-.2-1.67,1.81,1.81,0,0,0-.62-1,2.07,2.07,0,0,0-.82-.37,3.91,3.91,0,0,0-1-.06,5.62,5.62,0,0,0-.8.1,2.22,2.22,0,0,0-.71.29,1.79,1.79,0,0,0-.6.56,3.11,3.11,0,0,0-.37.94A5.94,5.94,0,0,0,337,504.73Z"/><path class="cls-9" d="M345.88,508.76V499.6c1.18-.12,2.35-.25,3.53-.4a3.53,3.53,0,0,1,2.5.41,2.35,2.35,0,0,1,.89,2.05,3.09,3.09,0,0,1-2,3l2.4,3.14-2,.3L349,505.17c-.49.07-1,.12-1.48.18v3.23Zm1.66-4.92,1.82-.22a2.74,2.74,0,0,0,1.32-.47,1.45,1.45,0,0,0,.47-1.2c0-.56-.16-.92-.47-1.07a2.44,2.44,0,0,0-1.32-.12l-1.82.22Z"/><path class="cls-9" d="M353.64,498.58l2-.34L358,501.5q1.2-2.12,2.39-4.23l2-.46c-1.18,2-2.36,4-3.54,6v3.93c-.54.12-1.09.23-1.63.33v-3.92C356,501.65,354.84,500.13,353.64,498.58Z"/><path class="cls-9" d="M319,554.18V545c1,.25,2.08.47,3.12.67a5.23,5.23,0,0,1,3.22,1.68,5.3,5.3,0,0,1,1.11,3.55,4.3,4.3,0,0,1-1.1,3.27,3.58,3.58,0,0,1-3.23.65C321.12,554.65,320.07,554.43,319,554.18Zm1.63-1.12c.49.11,1,.21,1.49.3a2.2,2.2,0,0,0,2-.38,3.19,3.19,0,0,0,.63-2.27,4,4,0,0,0-.63-2.47,3.15,3.15,0,0,0-2-1.07c-.5-.1-1-.19-1.49-.3Z"/><path class="cls-9" d="M328.52,555.69v-9.16q.83.08,1.65.12v9.15Z"/><path class="cls-9" d="M332.15,549.29a2.28,2.28,0,0,1,.94-2,4.22,4.22,0,0,1,2.35-.7,5.76,5.76,0,0,1,2.47.51v1.62a4.09,4.09,0,0,0-2.28-.58,3.07,3.07,0,0,0-1.29.29.88.88,0,0,0-.53.83.79.79,0,0,0,.48.71,4.7,4.7,0,0,0,1.17.41,11.88,11.88,0,0,1,1.38.39,2.44,2.44,0,0,1,1.17.85,2.69,2.69,0,0,1,.48,1.67,2.35,2.35,0,0,1-.92,1.87,3.56,3.56,0,0,1-2.25.8,5.35,5.35,0,0,1-3.05-.75v-1.67a4.1,4.1,0,0,0,2.66.88c1.27,0,1.9-.43,1.9-1.13a1,1,0,0,0-.34-.77,2.09,2.09,0,0,0-.87-.43c-.35-.09-.73-.2-1.13-.33a8.7,8.7,0,0,1-1.12-.44,1.94,1.94,0,0,1-.87-.76A2.24,2.24,0,0,1,332.15,549.29Z"/><path class="cls-9" d="M340.37,555.52v-9.16l1.65-.21V550c1.15-1.45,2.3-2.94,3.44-4.45.74-.14,1.47-.3,2.19-.47q-1.81,2.43-3.66,4.76,2,2.22,4,4.31c-.67.16-1.35.31-2,.45q-1.53-1.68-3.07-3.42l-.91,1.14v3Z"/><path class="cls-5" d="M307.11,605.49s-2.73,4.12,2.63,5c.52.07,4.4.47,5.4,1.74,0,0-.09-2.19-3.24-3.48S307.46,607.09,307.11,605.49Z"/><path class="cls-5" d="M309.76,596.6s-7.62,4.65-.44,9.27c1.39.89,6.39,3.4,6.25,5.71,0,0,3-4.5-1.4-7.32S308.46,598.27,309.76,596.6Z"/><path class="cls-5" d="M317.63,601.15c-3.26-3.43-4.17-5.54-2.77-8.28,0,0-9.76,3.75-.13,10.41,3.45,2.39,2.87,4.82,2.87,4.91A4.76,4.76,0,0,0,317.63,601.15Z"/><text class="cls-10" transform="translate(324.98 607.54)"><tspan class="cls-11">N</tspan><tspan class="cls-12" x="9.54" y="0">O</tspan><tspan class="cls-13" x="19.08" y="0">D</tspan><tspan x="27.72" y="0">E</tspan></text><path class="cls-8" d="M405,487.12c-20.43,0-41.55,4.63-41.55,12.38v98a4.64,4.64,0,0,0,.89,2.67,7.27,7.27,0,0,0,1,1.17c5.28,5.11,21.21,8.54,39.65,8.54s34.38-3.43,39.66-8.53a7.87,7.87,0,0,0,1-1.18,4.64,4.64,0,0,0,.89-2.67v-98C446.57,491.75,425.43,487.12,405,487.12Z"/><path class="cls-5" d="M433.48,489.35c-7.72-2.1-18.1-3.3-28.48-3.3s-20.76,1.2-28.47,3.3c-9,2.45-13.8,5.92-13.8,10.06v32.85a5.7,5.7,0,0,0,1.07,3.27,8.8,8.8,0,0,0,1.15,1.33c5.42,5.23,21.51,8.75,40.05,8.75s34.65-3.52,40.07-8.75a10,10,0,0,0,1.14-1.33,5.71,5.71,0,0,0,1.08-3.27V499.41C447.29,495.27,442.51,491.8,433.48,489.35Zm9.62,44a5.37,5.37,0,0,1-.66.76c-4.62,4.47-20.37,7.7-37.44,7.7s-32.81-3.24-37.43-7.7a5.55,5.55,0,0,1-.66-.77,1.92,1.92,0,0,1-.38-1.08v-27a21,21,0,0,0,2.82,1.61l0,0,1.62.72.14.05c.55.23,1.12.44,1.71.65l.22.08,1.55.51.49.15c.5.15,1,.3,1.55.44l.71.19,1.56.38.91.21,1.55.33,1,.2,1.24.22c.48.09.95.17,1.44.24l1.17.18c.5.07,1,.15,1.53.21l1.33.17,1.21.14c.59.06,1.19.13,1.8.18l.92.09,2.19.17.79.05,2.41.13.59,0c.88,0,1.76.07,2.65.09h.36c1,0,1.94,0,2.93,0s2,0,2.92,0h.37l2.64-.08.6,0,2.41-.13.79-.05,2.18-.17.94-.09c.59,0,1.17-.11,1.75-.18l1.26-.14,1.31-.17c.53-.06,1.05-.14,1.56-.21l1.15-.18c.49-.07,1-.15,1.45-.24l1.23-.22,1.05-.2,1.55-.33.91-.21,1.57-.38.68-.19c.56-.15,1.1-.3,1.63-.46l.4-.12q.82-.26,1.62-.54l.17,0c.61-.22,1.19-.44,1.75-.67l.09,0c.58-.24,1.14-.48,1.66-.73h0a21.29,21.29,0,0,0,2.84-1.61v27A1.91,1.91,0,0,1,443.1,533.35ZM405,489.85c23.84,0,38.49,5.57,38.49,9.56a2,2,0,0,1-.4,1.1c-1.67,2.46-7.63,5-16.43,6.61l-.08,0-1,.18-1,.17h0a122.36,122.36,0,0,1-16.23,1.43h-.55l-1.05,0h-3.41l-1,0h-.55a123.82,123.82,0,0,1-16.2-1.42l-.07,0-1-.16-1.07-.19h0c-8.81-1.64-14.77-4.15-16.45-6.62a2,2,0,0,1-.39-1.1C366.53,495.42,381.16,489.85,405,489.85Z"/><path class="cls-5" d="M445.51,530.35a1.76,1.76,0,0,0-1.76,1.76,2.18,2.18,0,0,1-.41,1.18c-1.52,2.24-6.34,4.43-13.22,6a125.44,125.44,0,0,1-50.23,0c-6.88-1.58-11.7-3.77-13.21-6a2.18,2.18,0,0,1-.41-1.18,1.76,1.76,0,0,0-3.52,0v65.64a5.52,5.52,0,0,0,1.06,3.19,8.48,8.48,0,0,0,1.12,1.31c2.7,2.61,8,4.81,15.26,6.38a131.64,131.64,0,0,0,49.63,0c7.28-1.56,12.55-3.77,15.26-6.38a7.75,7.75,0,0,0,1.13-1.32,5.45,5.45,0,0,0,1.05-3.18V532.11A1.76,1.76,0,0,0,445.51,530.35Zm-1.76,67.4a2.08,2.08,0,0,1-.41,1.17,5.35,5.35,0,0,1-.69.79h0c-2.24,2.16-7.18,4.13-13.91,5.54a127.76,127.76,0,0,1-47.48,0c-6.72-1.41-11.66-3.37-13.9-5.54h0a5.16,5.16,0,0,1-.67-.78,2.08,2.08,0,0,1-.41-1.17v-60c2.88,2.09,7.48,3.86,13.5,5.19a131.66,131.66,0,0,0,50.46,0c6-1.33,10.64-3.1,13.52-5.19Z"/><path class="cls-9" d="M376.86,528.77v-9.16c.6.15,1.21.28,1.81.42.87,1.47,1.75,2.93,2.62,4.39.88-1.1,1.75-2.21,2.63-3.33l1.82.31v9.16l-1.64-.28v-6.77c-.94,1.18-1.87,2.35-2.81,3.51-.93-1.54-1.87-3.08-2.8-4.64v6.77Z"/><path class="cls-9" d="M388.05,530.91v-9.16q3,.45,6.11.73V524c-1.49-.14-3-.31-4.46-.5v2.32c1.29.17,2.58.31,3.87.44v1.55c-1.29-.12-2.58-.27-3.87-.44v2.32c1.49.2,3,.36,4.46.5v1.48Q391.1,531.35,388.05,530.91Z"/><path class="cls-9" d="M396.05,531.79v-9.15c.61,0,1.22.09,1.84.12q1.32,2,2.66,4l2.67-3.75,1.84,0v9.16l-1.66,0v-6.77c-.95,1.33-1.9,2.66-2.85,4l-2.85-4.2v6.77C397.15,531.87,396.6,531.84,396.05,531.79Z"/><path class="cls-9" d="M407.07,527.57a6.94,6.94,0,0,1,.26-2,4,4,0,0,1,.68-1.36,3.4,3.4,0,0,1,1-.85,4.23,4.23,0,0,1,1.15-.47,7.41,7.41,0,0,1,1.21-.15,6.68,6.68,0,0,1,1.2,0,4,4,0,0,1,1.15.35,3.29,3.29,0,0,1,1,.75,3.5,3.5,0,0,1,.68,1.31,6.31,6.31,0,0,1,.26,1.95,6.76,6.76,0,0,1-.26,2,4.18,4.18,0,0,1-.68,1.42,4.08,4.08,0,0,1-2.16,1.38,6.29,6.29,0,0,1-1.2.18,5.91,5.91,0,0,1-1.21-.06,3.91,3.91,0,0,1-1.15-.39,3.21,3.21,0,0,1-1-.79,3.87,3.87,0,0,1-.68-1.35A6.91,6.91,0,0,1,407.07,527.57Zm1.66-.05a5.74,5.74,0,0,0,.21,1.7,1.85,1.85,0,0,0,.6,1,2.12,2.12,0,0,0,.83.4,3.43,3.43,0,0,0,1,.07,5.59,5.59,0,0,0,.81-.1,2.26,2.26,0,0,0,.71-.3,1.82,1.82,0,0,0,.59-.58,3.5,3.5,0,0,0,.39-1,6.12,6.12,0,0,0,.15-1.44,5.69,5.69,0,0,0-.21-1.68,1.77,1.77,0,0,0-.61-1,2.13,2.13,0,0,0-.82-.37,3.94,3.94,0,0,0-1-.06,5.59,5.59,0,0,0-.81.1,2.67,2.67,0,0,0-.71.28,1.79,1.79,0,0,0-.59.57,3.1,3.1,0,0,0-.38.94A6,6,0,0,0,408.73,527.52Z"/><path class="cls-9" d="M417.66,531.56V522.4c1.17-.12,2.35-.25,3.52-.4a3.46,3.46,0,0,1,2.5.41,2.32,2.32,0,0,1,.89,2.05,3.06,3.06,0,0,1-2,3l2.4,3.15-2,.3c-.73-1-1.46-1.95-2.18-2.94l-1.49.18v3.23Zm1.65-4.92,1.83-.22a2.7,2.7,0,0,0,1.31-.47,1.43,1.43,0,0,0,.48-1.2c0-.57-.16-.92-.48-1.07a2.4,2.4,0,0,0-1.31-.12l-1.83.22Z"/><path class="cls-9" d="M425.42,521.38l2-.35c.8,1.1,1.61,2.19,2.41,3.26.8-1.4,1.59-2.81,2.39-4.22l2-.46c-1.17,2-2.35,4-3.53,6v3.93c-.55.12-1.09.23-1.64.33V526Q427.21,523.7,425.42,521.38Z"/><path class="cls-9" d="M390.81,577v-9.16c1,.25,2.08.47,3.13.67a5.23,5.23,0,0,1,3.22,1.68,5.35,5.35,0,0,1,1.1,3.55,4.3,4.3,0,0,1-1.1,3.27,3.57,3.57,0,0,1-3.22.65C392.89,577.45,391.85,577.23,390.81,577Zm1.63-1.12q.75.17,1.5.3a2.18,2.18,0,0,0,2-.38,3.19,3.19,0,0,0,.63-2.27A4,4,0,0,0,396,571a3.12,3.12,0,0,0-2-1.07l-1.5-.3Z"/><path class="cls-9" d="M400.29,578.49v-9.16c.55,0,1.11.08,1.66.11v9.16Z"/><path class="cls-9" d="M403.93,572.09a2.3,2.3,0,0,1,.93-2,4.24,4.24,0,0,1,2.35-.7,5.78,5.78,0,0,1,2.48.51v1.62a4.09,4.09,0,0,0-2.28-.58,3.07,3.07,0,0,0-1.29.29.86.86,0,0,0-.53.83.79.79,0,0,0,.48.71,4.56,4.56,0,0,0,1.17.41,12.31,12.31,0,0,1,1.37.39,2.44,2.44,0,0,1,1.18.85,2.67,2.67,0,0,1,.48,1.67,2.33,2.33,0,0,1-.93,1.87,3.58,3.58,0,0,1-2.25.8,5.32,5.32,0,0,1-3-.75v-1.67a4.1,4.1,0,0,0,2.66.88c1.27,0,1.9-.43,1.9-1.13a1,1,0,0,0-.34-.77,2.09,2.09,0,0,0-.87-.43c-.36-.09-.73-.2-1.13-.33a10.64,10.64,0,0,1-1.13-.44,2,2,0,0,1-.87-.76A2.24,2.24,0,0,1,403.93,572.09Z"/><path class="cls-9" d="M412.14,578.32v-9.16l1.65-.21v3.88c1.16-1.45,2.31-2.94,3.45-4.45.73-.14,1.46-.3,2.19-.47q-1.83,2.43-3.66,4.76,2,2.22,4,4.31l-2,.45c-1-1.12-2-2.26-3.06-3.42l-.92,1.14v3Z"/><path class="cls-5" d="M378.88,628.29s-2.72,4.12,2.63,5c.52.07,4.4.47,5.4,1.74,0,0-.09-2.19-3.24-3.48S379.23,629.89,378.88,628.29Z"/><path class="cls-5" d="M381.53,619.4s-7.62,4.65-.44,9.27c1.39.89,6.4,3.4,6.25,5.71,0,0,3-4.5-1.4-7.32S380.24,621.07,381.53,619.4Z"/><path class="cls-5" d="M389.41,624c-3.27-3.43-4.18-5.54-2.78-8.28,0,0-9.75,3.75-.13,10.41,3.45,2.39,2.88,4.82,2.88,4.91A4.77,4.77,0,0,0,389.41,624Z"/><text class="cls-10" transform="translate(396.76 630.34)"><tspan class="cls-11">N</tspan><tspan class="cls-12" x="9.54" y="0">O</tspan><tspan class="cls-13" x="19.08" y="0">D</tspan><tspan x="27.72" y="0">E</tspan></text><rect class="cls-14" x="107.62" y="112.03" width="582.34" height="148.26" rx="7.66"/><path class="cls-2" d="M134,229.36l5.92-14.84h2l5.89,14.84h-2.22L144,225.2h-6.19l-1.6,4.16Zm4.57-6.09h4.71l-2.36-6.16Z"/><path class="cls-2" d="M150.15,233.59V221.66a4.17,4.17,0,0,1,.06-.71,3.36,3.36,0,0,1,.33-.9,3.19,3.19,0,0,1,.72-1,3.79,3.79,0,0,1,1.37-.72,6.78,6.78,0,0,1,2.12-.3,7,7,0,0,1,1.21.11,4.54,4.54,0,0,1,1.29.49,4.14,4.14,0,0,1,1.21,1,5,5,0,0,1,.85,1.71,8.6,8.6,0,0,1,.34,2.55,7.87,7.87,0,0,1-.45,2.82,3.61,3.61,0,0,1-1.24,1.73,5.42,5.42,0,0,1-1.61.81,6.44,6.44,0,0,1-1.81.25,8.36,8.36,0,0,1-2.36-.33v4.38Zm2-6.32a6.62,6.62,0,0,0,2.36.44,4.39,4.39,0,0,0,1.17-.13,2.65,2.65,0,0,0,.95-.5,2.29,2.29,0,0,0,.72-1.16,6.93,6.93,0,0,0,.24-2,8.12,8.12,0,0,0-.24-2.15,2.41,2.41,0,0,0-1.61-1.77,3.23,3.23,0,0,0-1-.14c-1.72,0-2.57.55-2.57,1.66Z"/><path class="cls-2" d="M162.34,233.59V221.66a4.17,4.17,0,0,1,.06-.71,4.24,4.24,0,0,1,.33-.9,3.06,3.06,0,0,1,.73-1,3.65,3.65,0,0,1,1.36-.72,6.82,6.82,0,0,1,2.12-.3,7,7,0,0,1,1.21.11,4.54,4.54,0,0,1,1.29.49,4.14,4.14,0,0,1,1.21,1,5,5,0,0,1,.85,1.71,8.6,8.6,0,0,1,.34,2.55,7.87,7.87,0,0,1-.45,2.82,3.61,3.61,0,0,1-1.24,1.73,5.3,5.3,0,0,1-1.61.81,6.44,6.44,0,0,1-1.81.25,8.36,8.36,0,0,1-2.36-.33v4.38Zm2-6.32a6.67,6.67,0,0,0,2.36.44,4.39,4.39,0,0,0,1.17-.13,2.65,2.65,0,0,0,.95-.5,2.29,2.29,0,0,0,.72-1.16,6.93,6.93,0,0,0,.24-2,8.12,8.12,0,0,0-.24-2.15,2.57,2.57,0,0,0-.7-1.24A2.62,2.62,0,0,0,168,220a3.23,3.23,0,0,0-1-.14c-1.71,0-2.57.55-2.57,1.66Z"/><path class="cls-2" d="M174.93,229.36V214h2v15.33Z"/><path class="cls-2" d="M180.62,216.54v-2.15h2.16v2.15Zm.07,12.82v-11.1h2v11.1Z"/><path class="cls-2" d="M187,228.07a7.53,7.53,0,0,1,0-8.52,4.92,4.92,0,0,1,3.85-1.47,8.92,8.92,0,0,1,3.27.62v1.94a6.87,6.87,0,0,0-3.05-.73h0a3.42,3.42,0,0,0-2.4.79c-.58.53-.87,1.56-.87,3.11a6.92,6.92,0,0,0,.25,2,2.43,2.43,0,0,0,.76,1.21,2.91,2.91,0,0,0,1,.52,5,5,0,0,0,1.24.13,7.19,7.19,0,0,0,3.09-.71v1.92a8.92,8.92,0,0,1-3.27.62A4.92,4.92,0,0,1,187,228.07Z"/><path class="cls-2" d="M196.14,225.85a2.93,2.93,0,0,1,1.39-2.57,6.86,6.86,0,0,1,3.84-.93,16.42,16.42,0,0,1,2,.13,2.7,2.7,0,0,0-.76-2,3.51,3.51,0,0,0-2.29-.6,9.56,9.56,0,0,0-3.08.55v-1.74a9.36,9.36,0,0,1,3.36-.6,5,5,0,0,1,3.59,1.2,4.54,4.54,0,0,1,1.26,3.45v3.21a3.35,3.35,0,0,1-.07.71,4.07,4.07,0,0,1-.34.91,3.27,3.27,0,0,1-.72,1,4,4,0,0,1-1.38.71,7.51,7.51,0,0,1-4.27,0,3.9,3.9,0,0,1-1.39-.72,3.1,3.1,0,0,1-.74-1,3.86,3.86,0,0,1-.35-.94A4.49,4.49,0,0,1,196.14,225.85Zm2,0c0,1.25.89,1.88,2.67,1.88h0c1.68,0,2.51-.6,2.51-1.8v-1.8a14.31,14.31,0,0,0-1.92-.14,6.28,6.28,0,0,0-.94.08,8.89,8.89,0,0,0-1.05.26,2,2,0,0,0-.93.57A1.34,1.34,0,0,0,198.17,225.83Z"/><path class="cls-2" d="M207.05,220v-1.74H209V215h2v3.29h3V220h-3v6.41c0,.87.55,1.3,1.64,1.3h0a2.53,2.53,0,0,0,1.3-.32v1.84a4.17,4.17,0,0,1-1.52.31h-.06a4.55,4.55,0,0,1-.86-.1,6.11,6.11,0,0,1-1.09-.39,2.37,2.37,0,0,1-1.05-1,3.54,3.54,0,0,1-.41-1.77V220Z"/><path class="cls-2" d="M216.65,216.54v-2.15h2.16v2.15Zm.07,12.82v-11.1h2v11.1Z"/><path class="cls-2" d="M222.15,226.69a9,9,0,0,1,0-5.74,4,4,0,0,1,1.28-1.77,5.34,5.34,0,0,1,1.65-.83,7.25,7.25,0,0,1,3.7,0,5.34,5.34,0,0,1,1.65.83,4,4,0,0,1,1.28,1.77,9,9,0,0,1,0,5.74,3.91,3.91,0,0,1-1.28,1.77,5.34,5.34,0,0,1-1.65.83,7,7,0,0,1-3.7,0,5.34,5.34,0,0,1-1.65-.83A3.84,3.84,0,0,1,222.15,226.69Zm1.85-4.92a8.88,8.88,0,0,0,0,4.1,2.38,2.38,0,0,0,.73,1.19,2.79,2.79,0,0,0,1,.52,5.7,5.7,0,0,0,2.42,0,2.79,2.79,0,0,0,1-.52,2.45,2.45,0,0,0,.73-1.19,8.88,8.88,0,0,0,0-4.1,2.45,2.45,0,0,0-.73-1.19,2.79,2.79,0,0,0-1-.52,5.7,5.7,0,0,0-2.42,0,2.79,2.79,0,0,0-1,.52A2.38,2.38,0,0,0,224,221.77Z"/><path class="cls-2" d="M234.74,229.36V219.2a10.59,10.59,0,0,1,4.73-1.14,4.72,4.72,0,0,1,3.31,1.1,3.92,3.92,0,0,1,1.2,3v7.16H241.9V222a2.26,2.26,0,0,0-.5-1.54,2.69,2.69,0,0,0-2-.57,8.47,8.47,0,0,0-2.61.4v9Z"/><path class="cls-2" d="M246.75,221.39a3.13,3.13,0,0,1,1-2.34,4.14,4.14,0,0,1,3-1,6.64,6.64,0,0,1,3,.73v1.76a6.52,6.52,0,0,0-2.72-.66c-1.47,0-2.2.47-2.2,1.42a.88.88,0,0,0,.58.77,7.66,7.66,0,0,0,1.42.55,15.28,15.28,0,0,1,1.65.56,3.29,3.29,0,0,1,1.42,1.11,3.27,3.27,0,0,1-.42,4.24,4.34,4.34,0,0,1-3.12,1,6.57,6.57,0,0,1-3.21-.78V226.9a6.22,6.22,0,0,0,3.08.81h0a3,3,0,0,0,1.63-.38,1.17,1.17,0,0,0,.56-1,1.27,1.27,0,0,0-.59-1.09,4.18,4.18,0,0,0-1.41-.65c-.56-.16-1.12-.33-1.67-.52a3.21,3.21,0,0,1-1.41-1A2.51,2.51,0,0,1,246.75,221.39Z"/><path class="cls-8" d="M194.44,202.8a1.83,1.83,0,0,1-.88-.23l-26-6.28a1.74,1.74,0,0,1-.88-1.52V150.7a1.76,1.76,0,0,1,.88-1.53l26-5.63a1.73,1.73,0,0,1,1.76,0l26,5.63a1.78,1.78,0,0,1,.88,1.53v44.07a1.76,1.76,0,0,1-.88,1.52l-26,6.28A1.81,1.81,0,0,1,194.44,202.8Z"/><path class="cls-4" d="M194.44,204c-.31,0-27.3-6.38-27.3-6.38a1.78,1.78,0,0,1-.9-1.55V149.39a1.78,1.78,0,0,1,.9-1.55s27-5.78,27.3-5.78,27.31,5.78,27.31,5.78a1.8,1.8,0,0,1,.9,1.55v46.66a1.8,1.8,0,0,1-.9,1.55S194.75,204,194.44,204Zm-24.62-9,24.62,5.11L219.07,195v-44.6l-24.63-5.34-24.62,5.34Z"/><path class="cls-4" d="M194.44,157.7a1.76,1.76,0,0,1-.89-.23l-26.42-5.55a1.79,1.79,0,0,1,1.79-3.1l25.52,5,25.52-5a1.79,1.79,0,1,1,1.79,3.1l-26.41,5.55A1.8,1.8,0,0,1,194.44,157.7Z"/><path class="cls-4" d="M194.44,202.68a1.78,1.78,0,0,1-1.79-1.78V156.47a1.79,1.79,0,0,1,3.58,0V200.9A1.78,1.78,0,0,1,194.44,202.68Z"/><path class="cls-2" d="M301.9,218.53a3.93,3.93,0,0,1,1.27-3,5.43,5.43,0,0,1,3.92-1.22,8.58,8.58,0,0,1,3.83.9v2a6.77,6.77,0,0,0-3.58-1q-3.36,0-3.36,2.25a1.31,1.31,0,0,0,.59,1.05,4.63,4.63,0,0,0,1.46.72c.58.18,1.21.41,1.9.7a17.7,17.7,0,0,1,1.9.91,4,4,0,0,1,2.05,3.59,3.53,3.53,0,0,1-1.43,3,6.44,6.44,0,0,1-3.93,1.07,10,10,0,0,1-4.42-1.07v-2.13a8,8,0,0,0,4.23,1.26c2.31,0,3.46-.7,3.47-2.1a2.19,2.19,0,0,0-.58-1.54,3.47,3.47,0,0,0-1.46-.92l-1.91-.65c-.69-.24-1.33-.49-1.9-.74a3.47,3.47,0,0,1-1.46-1.18A3.19,3.19,0,0,1,301.9,218.53Z"/><path class="cls-2" d="M314.2,223.94c0-3.9,1.64-5.86,4.9-5.86h0a4.58,4.58,0,0,1,3.56,1.46,5.54,5.54,0,0,1,1.33,3.9c0,.53,0,1-.06,1.52h-7.67a2.87,2.87,0,0,0,3.13,2.86,8.08,8.08,0,0,0,3.83-.84v1.85a9.76,9.76,0,0,1-3.88.73h-.06a6,6,0,0,1-1.8-.25,5.08,5.08,0,0,1-1.61-.81,3.68,3.68,0,0,1-1.24-1.73A7.93,7.93,0,0,1,314.2,223.94Zm2.05-.8H322a5.1,5.1,0,0,0-.19-1.06,4.82,4.82,0,0,0-.45-1,2.15,2.15,0,0,0-.86-.83,2.75,2.75,0,0,0-1.35-.31,2.67,2.67,0,0,0-2.06.72A4.29,4.29,0,0,0,316.25,223.14Z"/><path class="cls-2" d="M326.63,229.36V219.19a14.58,14.58,0,0,1,5.41-1.11V220a14.4,14.4,0,0,0-3.38.47v8.94Z"/><path class="cls-2" d="M333.79,218.26H336l3.12,8.66,3.14-8.66h2.17l-4.26,11.1H338Z"/><path class="cls-2" d="M346.88,216.54v-2.15H349v2.15Zm.07,12.82v-11.1h2v11.1Z"/><path class="cls-2" d="M353.22,228.07a7.53,7.53,0,0,1,0-8.52,4.92,4.92,0,0,1,3.85-1.47,8.92,8.92,0,0,1,3.27.62v1.94a6.87,6.87,0,0,0-3-.73h0a3.42,3.42,0,0,0-2.4.79c-.58.53-.87,1.56-.87,3.11a6.92,6.92,0,0,0,.25,2,2.43,2.43,0,0,0,.76,1.21,2.91,2.91,0,0,0,1,.52,5,5,0,0,0,1.24.13,7.19,7.19,0,0,0,3.09-.71v1.92a8.92,8.92,0,0,1-3.27.62A4.92,4.92,0,0,1,353.22,228.07Z"/><path class="cls-2" d="M362.33,223.94c0-3.9,1.63-5.86,4.9-5.86h0a4.58,4.58,0,0,1,3.56,1.46,5.54,5.54,0,0,1,1.33,3.9c0,.53,0,1-.06,1.52h-7.67a2.87,2.87,0,0,0,3.13,2.86,8.11,8.11,0,0,0,3.83-.84v1.85a9.76,9.76,0,0,1-3.88.73h-.06a6.14,6.14,0,0,1-1.81-.25,5.14,5.14,0,0,1-1.6-.81,3.68,3.68,0,0,1-1.24-1.73A7.93,7.93,0,0,1,362.33,223.94Zm2-.8h5.71a5.1,5.1,0,0,0-.19-1.06,4.82,4.82,0,0,0-.45-1,2.15,2.15,0,0,0-.86-.83,2.75,2.75,0,0,0-1.35-.31,2.67,2.67,0,0,0-2.06.72A4.28,4.28,0,0,0,364.37,223.14Z"/><path class="cls-2" d="M374.27,221.39a3.14,3.14,0,0,1,1-2.34,4.13,4.13,0,0,1,3-1,6.71,6.71,0,0,1,3,.73v1.76a6.56,6.56,0,0,0-2.72-.66c-1.47,0-2.21.47-2.21,1.42a.89.89,0,0,0,.59.77,7.28,7.28,0,0,0,1.41.55,16.21,16.21,0,0,1,1.66.56,3.27,3.27,0,0,1,1.41,1.11,3.06,3.06,0,0,1,.59,1.93,3.09,3.09,0,0,1-1,2.31,4.37,4.37,0,0,1-3.12,1,6.57,6.57,0,0,1-3.21-.78V226.9a6.19,6.19,0,0,0,3.08.81h0a2.89,2.89,0,0,0,1.62-.38,1.15,1.15,0,0,0,.56-1,1.27,1.27,0,0,0-.58-1.09,4.33,4.33,0,0,0-1.42-.65c-.55-.16-1.11-.33-1.66-.52a3.3,3.3,0,0,1-1.42-1A2.56,2.56,0,0,1,374.27,221.39Z"/><path class="cls-8" d="M341.7,202.38a1.73,1.73,0,0,1-.88-.23l-26-6.27a1.76,1.76,0,0,1-.88-1.53V150.28a1.76,1.76,0,0,1,.88-1.53l26-5.63a1.73,1.73,0,0,1,1.76,0l26,5.63a1.77,1.77,0,0,1,.89,1.53v44.07a1.77,1.77,0,0,1-.89,1.53l-26,6.27A1.73,1.73,0,0,1,341.7,202.38Z"/><path class="cls-4" d="M341.7,203.56c-.31,0-27.31-6.38-27.31-6.38a1.79,1.79,0,0,1-.89-1.55V149a1.79,1.79,0,0,1,.89-1.55s27-5.78,27.31-5.78S369,147.42,369,147.42a1.79,1.79,0,0,1,.89,1.55v46.66a1.79,1.79,0,0,1-.89,1.55S342,203.56,341.7,203.56Zm-24.62-9,24.62,5.11,24.63-5.11V150l-24.63-5.34L317.08,150Z"/><path class="cls-4" d="M341.7,157.29a1.75,1.75,0,0,1-.89-.24l-26.42-5.55a1.79,1.79,0,0,1,1.79-3.1l25.52,5,25.52-5a1.79,1.79,0,0,1,1.79,3.1l-26.42,5.55A1.75,1.75,0,0,1,341.7,157.29Z"/><path class="cls-4" d="M341.7,202.27a1.79,1.79,0,0,1-1.79-1.79V156.05a1.79,1.79,0,0,1,3.58,0v44.43A1.79,1.79,0,0,1,341.7,202.27Z"/><path class="cls-2" d="M434.86,229.36l5.92-14.84h2l5.9,14.84h-2.23l-1.6-4.16h-6.19l-1.6,4.16Zm4.56-6.09h4.71l-2.35-6.16Z"/><path class="cls-2" d="M451.22,229.36V214.52h5.36a5.57,5.57,0,0,1,3.83,1.22,5.06,5.06,0,0,1,0,6.9,5.53,5.53,0,0,1-3.84,1.22h-3.28v5.5Zm2.07-7.32h3.09a3.49,3.49,0,0,0,2.65-.77,3.53,3.53,0,0,0,0-4.11,3.42,3.42,0,0,0-2.65-.77h-3.09Z"/><path class="cls-2" d="M464.5,229.36V214.52h2.07v14.84Z"/><path class="cls-2" d="M469.58,221.39a3.14,3.14,0,0,1,1-2.34,4.13,4.13,0,0,1,3-1,6.71,6.71,0,0,1,3,.73v1.76a6.56,6.56,0,0,0-2.72-.66c-1.47,0-2.21.47-2.21,1.42a.89.89,0,0,0,.59.77,7.28,7.28,0,0,0,1.41.55,16.21,16.21,0,0,1,1.66.56,3.27,3.27,0,0,1,1.41,1.11,3.06,3.06,0,0,1,.59,1.93,3.09,3.09,0,0,1-1,2.31,4.37,4.37,0,0,1-3.12,1,6.57,6.57,0,0,1-3.21-.78V226.9a6.19,6.19,0,0,0,3.08.81h0a2.89,2.89,0,0,0,1.62-.38,1.15,1.15,0,0,0,.56-1,1.27,1.27,0,0,0-.58-1.09,4.33,4.33,0,0,0-1.42-.65c-.56-.16-1.11-.33-1.66-.52a3.3,3.3,0,0,1-1.42-1A2.56,2.56,0,0,1,469.58,221.39Z"/><path class="cls-8" d="M456.27,202a1.77,1.77,0,0,1-.88-.24l-26-6.27a1.78,1.78,0,0,1-.88-1.53V149.86a1.76,1.76,0,0,1,.88-1.52l26-5.64a1.75,1.75,0,0,1,1.77,0l26,5.64a1.76,1.76,0,0,1,.88,1.52v44.07a1.78,1.78,0,0,1-.88,1.53l-26,6.27A1.78,1.78,0,0,1,456.27,202Z"/><path class="cls-4" d="M456.27,203.15c-.3,0-27.3-6.39-27.3-6.39a1.78,1.78,0,0,1-.9-1.55V148.55A1.78,1.78,0,0,1,429,147s27-5.78,27.3-5.78S483.58,147,483.58,147a1.78,1.78,0,0,1,.9,1.55v46.66a1.78,1.78,0,0,1-.9,1.55S456.58,203.15,456.27,203.15Zm-24.62-9,24.62,5.11,24.63-5.11v-44.6l-24.63-5.34-24.62,5.34Z"/><path class="cls-4" d="M456.28,156.87a1.81,1.81,0,0,1-.9-.24L429,151.08a1.79,1.79,0,0,1,1.78-3.1l25.53,5,25.52-5a1.79,1.79,0,0,1,1.78,3.1l-26.41,5.55A1.8,1.8,0,0,1,456.28,156.87Z"/><path class="cls-4" d="M456.28,201.85a1.79,1.79,0,0,1-1.79-1.79V155.64a1.79,1.79,0,1,1,3.57,0v44.42A1.79,1.79,0,0,1,456.28,201.85Z"/><path class="cls-2" d="M531.63,229.36V214.52h4.73a6.77,6.77,0,0,1,5.19,1.89,9.54,9.54,0,0,1,0,11.07,6.74,6.74,0,0,1-5.19,1.88Zm2.07-1.82H536a5.22,5.22,0,0,0,4-1.35,7.8,7.8,0,0,0,0-8.5,5.22,5.22,0,0,0-4-1.34H533.7Z"/><path class="cls-2" d="M545.53,225.85a3,3,0,0,1,1.39-2.57,6.86,6.86,0,0,1,3.84-.93,16.46,16.46,0,0,1,2,.13,2.74,2.74,0,0,0-.76-2,3.52,3.52,0,0,0-2.3-.6,9.5,9.5,0,0,0-3.07.55v-1.74a9.34,9.34,0,0,1,3.35-.6,5,5,0,0,1,3.59,1.2,4.54,4.54,0,0,1,1.27,3.45v3.21a3.36,3.36,0,0,1-.08.71,4,4,0,0,1-.33.91,3.14,3.14,0,0,1-.73,1,3.86,3.86,0,0,1-1.37.71,6.82,6.82,0,0,1-2.12.3,6.62,6.62,0,0,1-2.15-.32,3.81,3.81,0,0,1-1.39-.72,3.13,3.13,0,0,1-.75-1,3.76,3.76,0,0,1-.34-.94A3.61,3.61,0,0,1,545.53,225.85Zm2,0c0,1.25.88,1.88,2.66,1.88h0c1.67,0,2.51-.6,2.51-1.8v-1.8a14.47,14.47,0,0,0-1.93-.14,6,6,0,0,0-.93.08,8,8,0,0,0-1,.26,2,2,0,0,0-.94.57A1.37,1.37,0,0,0,547.57,225.83Z"/><path class="cls-2" d="M556.44,220v-1.74h1.93V215h2v3.29h3V220h-3v6.41c0,.87.54,1.3,1.64,1.3h0a2.47,2.47,0,0,0,1.29-.32v1.84a4.13,4.13,0,0,1-1.52.31h-.05a4.46,4.46,0,0,1-.86-.1,5.85,5.85,0,0,1-1.09-.39,2.27,2.27,0,0,1-1.05-1,3.44,3.44,0,0,1-.42-1.77V220Z"/><path class="cls-2" d="M565.43,225.85a2.93,2.93,0,0,1,1.39-2.57,6.86,6.86,0,0,1,3.84-.93,16.42,16.42,0,0,1,2,.13,2.7,2.7,0,0,0-.76-2,3.51,3.51,0,0,0-2.29-.6,9.56,9.56,0,0,0-3.08.55v-1.74a9.36,9.36,0,0,1,3.36-.6,5,5,0,0,1,3.58,1.2,4.51,4.51,0,0,1,1.27,3.45v3.21a4.17,4.17,0,0,1-.07.71,4.07,4.07,0,0,1-.34.91,3.14,3.14,0,0,1-.73,1,3.86,3.86,0,0,1-1.37.71,7.51,7.51,0,0,1-4.27,0,3.9,3.9,0,0,1-1.39-.72,3.28,3.28,0,0,1-.75-1,4.22,4.22,0,0,1-.34-.94A4.49,4.49,0,0,1,565.43,225.85Zm2,0c0,1.25.89,1.88,2.67,1.88h0c1.67,0,2.51-.6,2.51-1.8v-1.8a14.47,14.47,0,0,0-1.93-.14,6.26,6.26,0,0,0-.93.08,8.43,8.43,0,0,0-1,.26,1.93,1.93,0,0,0-.93.57A1.34,1.34,0,0,0,567.46,225.83Z"/><path class="cls-2" d="M584.93,218.53a4,4,0,0,1,1.26-3,5.48,5.48,0,0,1,3.93-1.22,8.54,8.54,0,0,1,3.82.9v2a6.77,6.77,0,0,0-3.58-1q-3.36,0-3.36,2.25a1.31,1.31,0,0,0,.59,1.05,4.74,4.74,0,0,0,1.46.72c.58.18,1.21.41,1.9.7a17.89,17.89,0,0,1,1.91.91,4,4,0,0,1,2,3.59,3.52,3.52,0,0,1-1.42,3,6.47,6.47,0,0,1-3.94,1.07,10,10,0,0,1-4.42-1.07v-2.13a8.05,8.05,0,0,0,4.24,1.26c2.3,0,3.46-.7,3.47-2.1a2.2,2.2,0,0,0-.59-1.54,3.38,3.38,0,0,0-1.45-.92l-1.91-.65c-.69-.24-1.33-.49-1.91-.74a3.44,3.44,0,0,1-1.45-1.18A3.13,3.13,0,0,1,584.93,218.53Z"/><path class="cls-2" d="M596,220v-1.74h1.93V215h2v3.29h3V220h-3v6.41c0,.87.55,1.3,1.64,1.3h0a2.52,2.52,0,0,0,1.29-.32v1.84a4.13,4.13,0,0,1-1.52.31h-.06a4.45,4.45,0,0,1-.85-.1,6.17,6.17,0,0,1-1.1-.39,2.37,2.37,0,0,1-1-1,3.54,3.54,0,0,1-.41-1.77V220Z"/><path class="cls-2" d="M605.44,229.36V219.19a14.58,14.58,0,0,1,5.41-1.11V220a14.4,14.4,0,0,0-3.38.47v8.94Z"/><path class="cls-2" d="M612.39,223.94c0-3.9,1.64-5.86,4.9-5.86h0a4.57,4.57,0,0,1,3.55,1.46,5.55,5.55,0,0,1,1.34,3.9c0,.53,0,1-.07,1.52h-7.67a2.88,2.88,0,0,0,3.13,2.86,8.06,8.06,0,0,0,3.83-.84v1.85a9.71,9.71,0,0,1-3.87.73h-.07a6.07,6.07,0,0,1-1.8-.25,5.19,5.19,0,0,1-1.61-.81,3.66,3.66,0,0,1-1.23-1.73A7.7,7.7,0,0,1,612.39,223.94Zm2.05-.8h5.7a5.1,5.1,0,0,0-.19-1.06,5.31,5.31,0,0,0-.44-1,2.18,2.18,0,0,0-.87-.83,2.7,2.7,0,0,0-1.35-.31,2.63,2.63,0,0,0-2,.72A4.21,4.21,0,0,0,614.44,223.14Z"/><path class="cls-2" d="M624.25,225.85a2.93,2.93,0,0,1,1.39-2.57,6.86,6.86,0,0,1,3.84-.93,16.42,16.42,0,0,1,2,.13,2.7,2.7,0,0,0-.76-2,3.49,3.49,0,0,0-2.29-.6,9.56,9.56,0,0,0-3.08.55v-1.74a9.36,9.36,0,0,1,3.36-.6,5,5,0,0,1,3.59,1.2,4.54,4.54,0,0,1,1.26,3.45v3.21a3.35,3.35,0,0,1-.07.71,4.07,4.07,0,0,1-.34.91,3.27,3.27,0,0,1-.72,1,4,4,0,0,1-1.38.71,7.51,7.51,0,0,1-4.27,0,3.9,3.9,0,0,1-1.39-.72,3.1,3.1,0,0,1-.74-1,3.86,3.86,0,0,1-.35-.94A4.49,4.49,0,0,1,624.25,225.85Zm2,0c0,1.25.89,1.88,2.67,1.88h0c1.68,0,2.51-.6,2.51-1.8v-1.8a14.31,14.31,0,0,0-1.92-.14,6.28,6.28,0,0,0-.94.08,8.89,8.89,0,0,0-1,.26,2,2,0,0,0-.93.57A1.34,1.34,0,0,0,626.28,225.83Z"/><path class="cls-2" d="M636.48,229.36V219.17a10.2,10.2,0,0,1,4.61-1.11,4.93,4.93,0,0,1,3,.84,10.94,10.94,0,0,1,4.07-.84,4.65,4.65,0,0,1,3.29,1.1,4,4,0,0,1,1.17,3.06v7.14h-2v-7.28a2.34,2.34,0,0,0-.47-1.54,2.26,2.26,0,0,0-1.83-.59,7.88,7.88,0,0,0-3,.62,4.42,4.42,0,0,1,.26,1.59v7.2h-2V222.1a2.18,2.18,0,0,0-.52-1.54,2.76,2.76,0,0,0-2-.56,9.46,9.46,0,0,0-2.43.33v9Z"/><path class="cls-2" d="M655.43,221.39a3.16,3.16,0,0,1,1-2.34,4.17,4.17,0,0,1,3-1,6.71,6.71,0,0,1,3,.73v1.76a6.56,6.56,0,0,0-2.72-.66c-1.47,0-2.21.47-2.21,1.42a.89.89,0,0,0,.59.77,7.28,7.28,0,0,0,1.41.55,15.28,15.28,0,0,1,1.65.56,3.24,3.24,0,0,1,1.42,1.11,3.27,3.27,0,0,1-.42,4.24,4.34,4.34,0,0,1-3.12,1,6.56,6.56,0,0,1-3.2-.78V226.9a6.18,6.18,0,0,0,3.07.81h0a2.89,2.89,0,0,0,1.62-.38,1.17,1.17,0,0,0,.56-1,1.27,1.27,0,0,0-.58-1.09,4.33,4.33,0,0,0-1.42-.65c-.56-.16-1.11-.33-1.67-.52a3.32,3.32,0,0,1-1.41-1A2.51,2.51,0,0,1,655.43,221.39Z"/><path class="cls-8" d="M596.85,201.55a1.77,1.77,0,0,1-.88-.24l-26-6.27a1.77,1.77,0,0,1-.88-1.53V149.44a1.76,1.76,0,0,1,.88-1.52l26-5.64a1.78,1.78,0,0,1,1.76,0l26,5.64a1.76,1.76,0,0,1,.88,1.52v44.07a1.77,1.77,0,0,1-.88,1.53l-26,6.27A1.71,1.71,0,0,1,596.85,201.55Z"/><path class="cls-4" d="M596.85,202.73c-.3,0-27.3-6.39-27.3-6.39a1.78,1.78,0,0,1-.9-1.55V148.13a1.75,1.75,0,0,1,.9-1.54s27-5.78,27.3-5.78,27.31,5.78,27.31,5.78a1.75,1.75,0,0,1,.9,1.54v46.66a1.78,1.78,0,0,1-.9,1.55S597.16,202.73,596.85,202.73Zm-24.62-9,24.62,5.12,24.63-5.12V149.17l-24.63-5.35-24.62,5.35Z"/><path class="cls-4" d="M596.85,156.45a1.8,1.8,0,0,1-.89-.24l-26.41-5.55a1.78,1.78,0,1,1,1.78-3.09l25.52,5,25.53-5a1.78,1.78,0,1,1,1.78,3.09l-26.41,5.55A1.81,1.81,0,0,1,596.85,156.45Z"/><path class="cls-4" d="M596.85,201.43a1.79,1.79,0,0,1-1.78-1.79V155.22a1.79,1.79,0,1,1,3.57,0v44.42A1.79,1.79,0,0,1,596.85,201.43Z"/><path class="cls-6" d="M399.37,61.41v71.33a1.1,1.1,0,1,0,2.19,0V61.41a1.1,1.1,0,0,0-2.19,0Z"/><text class="cls-15" transform="translate(654.8 534.92)"><tspan class="cls-16">D<tspan class="cls-17" x="12.83" y="0">i</tspan><tspan class="cls-18" x="18.15" y="0">s</tspan><tspan class="cls-19" x="26.78" y="0">t</tspan><tspan class="cls-20" x="33.95" y="0">r</tspan><tspan class="cls-21" x="40.4" y="0">ib</tspan><tspan class="cls-20" x="56.31" y="0">ut</tspan><tspan x="74.63" y="0">e</tspan><tspan class="cls-22" x="85.14" y="0">d</tspan></tspan><tspan class="cls-23" x="0" y="24">M</tspan><tspan class="cls-24" x="15.34" y="24">u</tspan><tspan class="cls-16" x="26.14" y="24">l</tspan><tspan class="cls-25" x="31.56" y="24">t</tspan><tspan class="cls-22" x="38.59" y="24">i-</tspan><tspan class="cls-23" x="53.25" y="24">T</tspan><tspan class="cls-26" x="63.81" y="24">i</tspan><tspan class="cls-27" x="68.97" y="24">e</tspan><tspan x="79.52" y="24">r</tspan><tspan class="cls-28" x="0" y="48">S</tspan><tspan class="cls-29" x="10.42" y="48">t</tspan><tspan class="cls-30" x="17.77" y="48">o</tspan><tspan class="cls-31" x="28.67" y="48">r</tspan><tspan class="cls-32" x="35.17" y="48">a</tspan><tspan class="cls-20" x="45.31" y="48">g</tspan><tspan x="55.56" y="48">e</tspan></text></g></g></svg>