<svg xmlns="http://www.w3.org/2000/svg" viewBox="0 0 1264 1110"><defs><style>.cls-1{isolation:isolate;}.cls-2{fill:#010101;}.cls-3{fill:#575656;}.cls-4{fill:#777;}.cls-5{fill:#e5282a;}.cls-14,.cls-6{fill:#efeeed;}.cls-7{fill:#e52529;}.cls-8{fill:#fff;}.cls-10,.cls-15,.cls-9{fill:#1d1d1b;}.cls-10{font-size:12.98px;}.cls-10,.cls-15{font-family:MavenProMedium, Maven Pro;}.cls-11{letter-spacing:0em;}.cls-12{letter-spacing:-0.01em;}.cls-13{letter-spacing:-0.01em;}.cls-14{mix-blend-mode:multiply;}.cls-15{font-size:19.51px;}.cls-16{letter-spacing:-0.02em;}.cls-17{letter-spacing:-0.02em;}.cls-18{letter-spacing:0.01em;}.cls-19{letter-spacing:-0.01em;}.cls-20{letter-spacing:-0.01em;}.cls-21{letter-spacing:-0.02em;}.cls-22{letter-spacing:0em;}.cls-23{letter-spacing:-0.03em;}.cls-24{letter-spacing:-0.04em;}.cls-25{letter-spacing:-0.01em;}.cls-26{letter-spacing:-0.02em;}.cls-27{letter-spacing:-0.01em;}.cls-28{letter-spacing:-0.03em;}.cls-29{letter-spacing:0em;}.cls-30{letter-spacing:-0.01em;}.cls-31{letter-spacing:-0.01em;}.cls-32{letter-spacing:-0.01em;}</style></defs><g class="cls-1"><g id="Capa_1" data-name="Capa 1"><path class="cls-2" d="M508.51,231.33l5.86-14.7h2l5.84,14.7H520l-1.58-4.12h-6.14l-1.58,4.12Zm4.52-6h4.67l-2.34-6.1Z"/><path class="cls-2" d="M524.47,235.51V223.7a3.18,3.18,0,0,1,.4-1.59,3,3,0,0,1,.71-1,3.68,3.68,0,0,1,1.35-.7,6.69,6.69,0,0,1,2.1-.3,6.78,6.78,0,0,1,1.2.11,4.44,4.44,0,0,1,1.28.48,4,4,0,0,1,1.19,1,4.93,4.93,0,0,1,.85,1.69,8.75,8.75,0,0,1,.34,2.53,7.7,7.7,0,0,1-.45,2.79,3.73,3.73,0,0,1-1.23,1.72,5.45,5.45,0,0,1-1.6.8,6.25,6.25,0,0,1-1.79.24,8.64,8.64,0,0,1-2.34-.32v4.33Zm2-6.26a6.6,6.6,0,0,0,2.34.44,4.31,4.31,0,0,0,1.16-.13,2.62,2.62,0,0,0,.95-.49,2.36,2.36,0,0,0,.7-1.15,6.83,6.83,0,0,0,.24-2,8,8,0,0,0-.24-2.13,2.49,2.49,0,0,0-.69-1.23,2.65,2.65,0,0,0-.9-.53,3.42,3.42,0,0,0-1-.14q-2.55,0-2.55,1.65Z"/><path class="cls-2" d="M536.54,235.51V223.7a4.27,4.27,0,0,1,.07-.71,3.4,3.4,0,0,1,.33-.88,3,3,0,0,1,.71-1,3.68,3.68,0,0,1,1.35-.7,6.69,6.69,0,0,1,2.1-.3,6.78,6.78,0,0,1,1.2.11,4.44,4.44,0,0,1,1.28.48,4.2,4.2,0,0,1,1.2,1,5.11,5.11,0,0,1,.84,1.69A8.75,8.75,0,0,1,546,226a7.7,7.7,0,0,1-.45,2.79,3.73,3.73,0,0,1-1.23,1.72,5.33,5.33,0,0,1-1.6.8,6.25,6.25,0,0,1-1.79.24,8.51,8.51,0,0,1-2.33-.32v4.33Zm2-6.26a6.5,6.5,0,0,0,2.33.44,4.31,4.31,0,0,0,1.16-.13,2.62,2.62,0,0,0,1-.49,2.28,2.28,0,0,0,.7-1.15,6.8,6.8,0,0,0,.25-2,7.92,7.92,0,0,0-.25-2.13,2.49,2.49,0,0,0-.69-1.23,2.65,2.65,0,0,0-.9-.53,3.42,3.42,0,0,0-1-.14c-1.7,0-2.54.55-2.54,1.65Z"/><path class="cls-2" d="M549,231.33V216.15h2v15.18Z"/><path class="cls-2" d="M554.65,218.63V216.5h2.14v2.13Zm.07,12.7v-11h2v11Z"/><path class="cls-2" d="M560.93,230.05a7.45,7.45,0,0,1,0-8.44,4.85,4.85,0,0,1,3.81-1.45,8.75,8.75,0,0,1,3.24.61v1.92a6.93,6.93,0,0,0-3-.72h-.05a3.39,3.39,0,0,0-2.37.78c-.58.52-.86,1.55-.86,3.08a6.78,6.78,0,0,0,.25,2,2.31,2.31,0,0,0,.75,1.19,2.64,2.64,0,0,0,1,.52,4.85,4.85,0,0,0,1.22.13A7.06,7.06,0,0,0,568,229v1.9a8.75,8.75,0,0,1-3.24.61A4.89,4.89,0,0,1,560.93,230.05Z"/><path class="cls-2" d="M570,227.85a2.92,2.92,0,0,1,1.38-2.55,6.83,6.83,0,0,1,3.8-.91,14.51,14.51,0,0,1,2,.13,2.71,2.71,0,0,0-.76-2,3.39,3.39,0,0,0-2.27-.61,9.6,9.6,0,0,0-3,.55v-1.72a9.35,9.35,0,0,1,3.32-.59,5,5,0,0,1,3.55,1.19,4.46,4.46,0,0,1,1.25,3.41v3.18a3.33,3.33,0,0,1-.07.7,3.75,3.75,0,0,1-.33.9,3.11,3.11,0,0,1-.72,1,3.73,3.73,0,0,1-1.36.7,7.49,7.49,0,0,1-4.23,0,3.84,3.84,0,0,1-1.38-.72,3.06,3.06,0,0,1-.73-1,3.25,3.25,0,0,1-.34-.93A3.51,3.51,0,0,1,570,227.85Zm2,0c0,1.24.88,1.86,2.65,1.86h0c1.66,0,2.49-.59,2.49-1.78v-1.78a12.79,12.79,0,0,0-1.91-.14,6.15,6.15,0,0,0-.93.08,8.17,8.17,0,0,0-1,.25,2.12,2.12,0,0,0-.92.57A1.36,1.36,0,0,0,572,227.83Z"/><path class="cls-2" d="M580.81,222.05v-1.72h1.92v-3.26h2v3.26h2.93v1.72h-2.93v6.36c0,.85.54,1.28,1.62,1.28h0a2.36,2.36,0,0,0,1.28-.32v1.82a3.92,3.92,0,0,1-1.51.31h0a3.71,3.71,0,0,1-.85-.1,5,5,0,0,1-1.08-.38,2.3,2.3,0,0,1-1-1,3.32,3.32,0,0,1-.41-1.74v-6.24Z"/><path class="cls-2" d="M590.32,218.63V216.5h2.14v2.13Zm.07,12.7v-11h2v11Z"/><path class="cls-2" d="M595.77,228.68a9,9,0,0,1,0-5.68,3.87,3.87,0,0,1,1.26-1.75,5.52,5.52,0,0,1,1.64-.83,7.1,7.1,0,0,1,3.66,0,5.4,5.4,0,0,1,1.64.83,3.87,3.87,0,0,1,1.26,1.75,8.82,8.82,0,0,1,0,5.68,3.87,3.87,0,0,1-1.26,1.75,5.4,5.4,0,0,1-1.64.83,7.1,7.1,0,0,1-3.66,0,5.52,5.52,0,0,1-1.64-.83A3.87,3.87,0,0,1,595.77,228.68Zm1.83-4.87a8.71,8.71,0,0,0,0,4.06,2.28,2.28,0,0,0,.73,1.18,2.47,2.47,0,0,0,1,.51,5.6,5.6,0,0,0,2.4,0,2.57,2.57,0,0,0,1-.51,2.34,2.34,0,0,0,.72-1.18,8.71,8.71,0,0,0,0-4.06,2.34,2.34,0,0,0-.72-1.18,2.57,2.57,0,0,0-1-.51,5.6,5.6,0,0,0-2.4,0,2.47,2.47,0,0,0-1,.51A2.28,2.28,0,0,0,597.6,223.81Z"/><path class="cls-2" d="M608.23,231.33V221.27a10.41,10.41,0,0,1,4.69-1.13,4.7,4.7,0,0,1,3.28,1.08,3.93,3.93,0,0,1,1.18,3v7.09h-2v-7.25a2.22,2.22,0,0,0-.5-1.53,2.68,2.68,0,0,0-2-.56,8.24,8.24,0,0,0-2.58.4v8.94Z"/><path class="cls-2" d="M628.67,231.33v-14.7h2.06v12.78H638v1.92Z"/><path class="cls-2" d="M639.71,227.85a2.92,2.92,0,0,1,1.38-2.55,6.83,6.83,0,0,1,3.8-.91,14.51,14.51,0,0,1,2,.13,2.71,2.71,0,0,0-.76-2,3.39,3.39,0,0,0-2.27-.61,9.6,9.6,0,0,0-3,.55v-1.72a9.35,9.35,0,0,1,3.32-.59,5,5,0,0,1,3.55,1.19,4.49,4.49,0,0,1,1.25,3.41v3.18a3.33,3.33,0,0,1-.07.7,3.75,3.75,0,0,1-.33.9,3.11,3.11,0,0,1-.72,1,3.73,3.73,0,0,1-1.36.7,7.49,7.49,0,0,1-4.23,0,3.84,3.84,0,0,1-1.38-.72,3.06,3.06,0,0,1-.73-1,3.25,3.25,0,0,1-.34-.93A3.51,3.51,0,0,1,639.71,227.85Zm2,0c0,1.24.88,1.86,2.65,1.86h0c1.66,0,2.49-.59,2.49-1.78v-1.78A12.79,12.79,0,0,0,645,226a6.15,6.15,0,0,0-.93.08,8.17,8.17,0,0,0-1,.25,2.12,2.12,0,0,0-.92.57A1.36,1.36,0,0,0,641.72,227.83Z"/><path class="cls-2" d="M650.4,220.33h2.17l3,8.24,2.9-8.24h2.16l-4.52,12.17q-1.17,3.17-3.4,3.16h0a7.62,7.62,0,0,1-1.53-.17v-1.82a5.12,5.12,0,0,0,1.23.19c.91,0,1.65-.85,2.21-2.54Z"/><path class="cls-2" d="M662.05,226c0-3.87,1.61-5.8,4.85-5.8h0a4.52,4.52,0,0,1,3.52,1.44,5.5,5.5,0,0,1,1.32,3.86c0,.52,0,1-.06,1.51h-7.6a2.85,2.85,0,0,0,3.1,2.83A8.11,8.11,0,0,0,671,229v1.83a9.81,9.81,0,0,1-3.84.72h-.07a6.28,6.28,0,0,1-1.78-.24,5.33,5.33,0,0,1-1.6-.8,3.79,3.79,0,0,1-1.22-1.72A8,8,0,0,1,662.05,226Zm2-.8h5.65a5.25,5.25,0,0,0-.19-1,5.16,5.16,0,0,0-.44-1,2.15,2.15,0,0,0-.86-.83,2.75,2.75,0,0,0-1.33-.3,2.64,2.64,0,0,0-2,.71A4.23,4.23,0,0,0,664.07,225.16Z"/><path class="cls-2" d="M674.35,231.33V221.26a14.51,14.51,0,0,1,5.36-1.1V222a14,14,0,0,0-3.34.46v8.86Z"/><path class="cls-3" d="M844,552.79a11,11,0,0,1,0-5.42,5.38,5.38,0,0,1,.9-1.86,4.25,4.25,0,0,1,1.35-1.13,5.42,5.42,0,0,1,1.56-.58,8.44,8.44,0,0,1,1.63-.15,10.33,10.33,0,0,1,3.84.75V546a8.85,8.85,0,0,0-3.64-.79,4.09,4.09,0,0,0-3.23,1.14,7.36,7.36,0,0,0,0,7.41,4.06,4.06,0,0,0,3.23,1.16,8.86,8.86,0,0,0,3.64-.8v1.62a10.34,10.34,0,0,1-3.84.76,8.44,8.44,0,0,1-1.63-.15,5.42,5.42,0,0,1-1.56-.58,4.38,4.38,0,0,1-1.35-1.13A5.52,5.52,0,0,1,844,552.79Z"/><path class="cls-3" d="M855.38,554.11a6.51,6.51,0,0,1-.4-2.43,6.42,6.42,0,0,1,.4-2.42,3.21,3.21,0,0,1,1.08-1.5,4.28,4.28,0,0,1,1.4-.7,5.9,5.9,0,0,1,3.12,0,4.28,4.28,0,0,1,1.4.7,3.21,3.21,0,0,1,1.08,1.5,6.42,6.42,0,0,1,.4,2.42,6.51,6.51,0,0,1-.4,2.43,3.23,3.23,0,0,1-1.08,1.49,4.31,4.31,0,0,1-1.4.71,5.9,5.9,0,0,1-3.12,0,4.31,4.31,0,0,1-1.4-.71A3.23,3.23,0,0,1,855.38,554.11Zm1.56-4.16a7.58,7.58,0,0,0,0,3.46,2,2,0,0,0,.62,1,2.27,2.27,0,0,0,.84.44,4.78,4.78,0,0,0,2,0,2.2,2.2,0,0,0,.84-.44,2,2,0,0,0,.62-1,7.58,7.58,0,0,0,0-3.46,2.06,2.06,0,0,0-.62-1,2.2,2.2,0,0,0-.84-.44,4.78,4.78,0,0,0-2,0,2.27,2.27,0,0,0-.84.44A2.06,2.06,0,0,0,856.94,550Z"/><path class="cls-3" d="M866.22,556.37v-8.62a8.62,8.62,0,0,1,3.9-.94,4.19,4.19,0,0,1,2.51.71,9.34,9.34,0,0,1,3.45-.71,3.9,3.9,0,0,1,2.77.93,3.35,3.35,0,0,1,1,2.59v6h-1.72v-6.16a2,2,0,0,0-.4-1.3,1.9,1.9,0,0,0-1.54-.5,6.77,6.77,0,0,0-2.52.52,4.07,4.07,0,0,1,.21,1.35v6.09h-1.71v-6.14a1.84,1.84,0,0,0-.44-1.3,2.35,2.35,0,0,0-1.74-.48,7.78,7.78,0,0,0-2,.28v7.64Z"/><path class="cls-3" d="M882.55,559.94V549.85a3.05,3.05,0,0,1,.06-.6,2.89,2.89,0,0,1,.28-.76,2.79,2.79,0,0,1,.61-.81,3.22,3.22,0,0,1,1.15-.6,5.73,5.73,0,0,1,1.79-.25,5.89,5.89,0,0,1,1,.09,3.66,3.66,0,0,1,1.09.42,3.55,3.55,0,0,1,1,.83,4.08,4.08,0,0,1,.72,1.45,7,7,0,0,1,.29,2.15,6.51,6.51,0,0,1-.38,2.39,3,3,0,0,1-1.05,1.46,4.72,4.72,0,0,1-1.36.69,5.34,5.34,0,0,1-1.53.21,7.32,7.32,0,0,1-2-.28v3.7Zm1.72-5.34a5.53,5.53,0,0,0,2,.37,3.61,3.61,0,0,0,1-.11,2.14,2.14,0,0,0,.8-.42,2,2,0,0,0,.61-1,5.75,5.75,0,0,0,.2-1.69,6.61,6.61,0,0,0-.2-1.81,2.11,2.11,0,0,0-.6-1.05,2.27,2.27,0,0,0-.76-.45,2.86,2.86,0,0,0-.87-.12c-1.45,0-2.17.47-2.17,1.4Z"/><path class="cls-3" d="M892.94,552.42V547h1.71v5.57a2.76,2.76,0,0,0,.55,1.88,2.19,2.19,0,0,0,1.71.6,2.17,2.17,0,0,0,1.7-.6,2.72,2.72,0,0,0,.54-1.88V547h1.72v5.44a4.23,4.23,0,0,1-1,3,3.9,3.9,0,0,1-2.92,1.07,3.94,3.94,0,0,1-2.93-1.07A4.23,4.23,0,0,1,892.94,552.42Z"/><path class="cls-3" d="M902.71,548.45V547h1.64v-2.79h1.72V547h2.5v1.47h-2.5v5.43c0,.73.46,1.09,1.39,1.09h0a2.1,2.1,0,0,0,1.09-.27v1.56a3.49,3.49,0,0,1-1.29.26h0a3.23,3.23,0,0,1-.73-.09,4.42,4.42,0,0,1-.92-.32,1.94,1.94,0,0,1-.89-.84,3,3,0,0,1-.35-1.5v-5.32Z"/><path class="cls-3" d="M910.25,551.78q0-4.95,4.15-4.95h0a3.88,3.88,0,0,1,3,1.23,4.7,4.7,0,0,1,1.13,3.3q0,.67-.06,1.29H912a2.42,2.42,0,0,0,2.64,2.41,6.93,6.93,0,0,0,3.25-.7v1.56a8.34,8.34,0,0,1-3.28.61h-.06a5.34,5.34,0,0,1-1.53-.2,4.55,4.55,0,0,1-1.35-.69,3.14,3.14,0,0,1-1-1.47A6.73,6.73,0,0,1,910.25,551.78Zm1.73-.68h4.82a4.25,4.25,0,0,0-.16-.89,4.06,4.06,0,0,0-.37-.87,1.82,1.82,0,0,0-.73-.7,2.29,2.29,0,0,0-1.14-.27,2.26,2.26,0,0,0-1.75.62A3.56,3.56,0,0,0,912,551.1Z"/><path class="cls-3" d="M926.89,552.82a4,4,0,0,1,.52-2,5.09,5.09,0,0,1,2-1.76,4.26,4.26,0,0,1-1.18-2.5,2.94,2.94,0,0,1,2.94-2.92,2.9,2.9,0,0,1,2.1.82,2.9,2.9,0,0,1,.33,3.71,5.67,5.67,0,0,1-1.69,1.37l2.45,2.93a7.41,7.41,0,0,0,.49-1.62h1.72a7.61,7.61,0,0,1-1.13,2.88l2.2,2.63h-2.1l-1.1-1.31a4.81,4.81,0,0,1-3.5,1.46h0a4.55,4.55,0,0,1-1.87-.37,3.26,3.26,0,0,1-1.28-.95,4.83,4.83,0,0,1-.69-1.19A3.42,3.42,0,0,1,926.89,552.82Zm1.71,0a2.22,2.22,0,0,0,.1.61,3.2,3.2,0,0,0,.35.69,2,2,0,0,0,.77.63,2.87,2.87,0,0,0,1.23.25,3.28,3.28,0,0,0,2.49-1.14l-3-3.64a6,6,0,0,0-1.1.73,2.16,2.16,0,0,0-.59.74,2.82,2.82,0,0,0-.19.6A3.71,3.71,0,0,0,928.6,552.87Zm1.63-7.44a1.38,1.38,0,0,0-.41,1,3.72,3.72,0,0,0,1,1.87,5.94,5.94,0,0,0,1.43-1,1.34,1.34,0,0,0,.34-.92,1.32,1.32,0,0,0-.4-1,1.46,1.46,0,0,0-2,0Z"/><path class="cls-3" d="M844.09,580.07V567.52H846l4.12,5.42,4.14-5.42h1.9v12.55h-1.76v-9.9l-4.28,5.63-4.26-5.63v9.9Z"/><path class="cls-3" d="M858.68,577.1a2.49,2.49,0,0,1,1.18-2.17,5.85,5.85,0,0,1,3.25-.79,11.73,11.73,0,0,1,1.7.12,2.31,2.31,0,0,0-.64-1.71,3,3,0,0,0-1.94-.51,8.14,8.14,0,0,0-2.6.47V571a7.86,7.86,0,0,1,2.84-.51,4.21,4.21,0,0,1,3,1,3.85,3.85,0,0,1,1.07,2.92v2.71a3.05,3.05,0,0,1-.06.6,3.66,3.66,0,0,1-.29.77,2.55,2.55,0,0,1-.61.81,3.12,3.12,0,0,1-1.16.61,6,6,0,0,1-1.79.25,5.87,5.87,0,0,1-1.82-.26,3.39,3.39,0,0,1-1.18-.62,2.72,2.72,0,0,1-.63-.83,3.12,3.12,0,0,1-.29-.79A3.26,3.26,0,0,1,858.68,577.1Zm1.72,0c0,1.06.76,1.58,2.26,1.58h0c1.41,0,2.12-.5,2.12-1.52v-1.52a12,12,0,0,0-1.63-.12,5.64,5.64,0,0,0-.79.07,7.66,7.66,0,0,0-.89.22,1.69,1.69,0,0,0-.78.48A1.17,1.17,0,0,0,860.4,577.09Z"/><path class="cls-3" d="M869.58,579a6.36,6.36,0,0,1,0-7.21,4.18,4.18,0,0,1,3.26-1.24,7.44,7.44,0,0,1,2.76.53v1.63a5.88,5.88,0,0,0-2.58-.61h0a2.89,2.89,0,0,0-2,.67,3.53,3.53,0,0,0-.73,2.63,5.93,5.93,0,0,0,.21,1.72,2,2,0,0,0,.65,1,2.27,2.27,0,0,0,.86.44,4,4,0,0,0,1,.11,6,6,0,0,0,2.62-.59v1.62a7.43,7.43,0,0,1-2.76.52A4.14,4.14,0,0,1,869.58,579Z"/><path class="cls-3" d="M877.85,580.07v-13h1.72V571a6.92,6.92,0,0,1,2.49-.47,3.54,3.54,0,0,1,2.73,1.05,4.2,4.2,0,0,1,1,3v5.53H884v-5.6a2.27,2.27,0,0,0-.58-1.84,2.38,2.38,0,0,0-1.53-.46,6.45,6.45,0,0,0-2.32.45v7.45Z"/><path class="cls-3" d="M888.46,569.23v-1.82h1.83v1.82Zm.06,10.84v-9.39h1.71v9.39Z"/><path class="cls-3" d="M893.3,580.07v-8.59a9,9,0,0,1,4-1,4,4,0,0,1,2.8.92,3.31,3.31,0,0,1,1,2.58v6.05h-1.75v-6.19a1.88,1.88,0,0,0-.43-1.31,2.26,2.26,0,0,0-1.7-.47,7.09,7.09,0,0,0-2.21.34v7.63Z"/><path class="cls-3" d="M903.45,575.49c0-3.3,1.38-5,4.14-5h0a3.88,3.88,0,0,1,3,1.23,4.7,4.7,0,0,1,1.13,3.3q0,.68-.06,1.29H905.2a2.44,2.44,0,0,0,2.65,2.42,6.86,6.86,0,0,0,3.24-.71v1.57a8.49,8.49,0,0,1-3.28.61h0a5.34,5.34,0,0,1-1.53-.21,4.81,4.81,0,0,1-1.36-.68,3.13,3.13,0,0,1-1-1.47A6.55,6.55,0,0,1,903.45,575.49Zm1.72-.68H910a5,5,0,0,0-.16-.9,4,4,0,0,0-.38-.87,1.83,1.83,0,0,0-.73-.7,2.29,2.29,0,0,0-1.14-.26,2.23,2.23,0,0,0-1.74.61A3.59,3.59,0,0,0,905.17,574.81Z"/><path class="cls-3" d="M920.7,580.07V567.52h1.75v10.92h6.23v1.63Z"/><path class="cls-3" d="M930,575.49c0-3.3,1.38-5,4.14-5h0a3.88,3.88,0,0,1,3,1.23,4.7,4.7,0,0,1,1.13,3.3q0,.68-.06,1.29h-6.49a2.44,2.44,0,0,0,2.65,2.42,6.86,6.86,0,0,0,3.24-.71v1.57a8.49,8.49,0,0,1-3.28.61h-.05a5.34,5.34,0,0,1-1.53-.21,4.81,4.81,0,0,1-1.36-.68,3.2,3.2,0,0,1-1-1.47A6.77,6.77,0,0,1,930,575.49Zm1.73-.68h4.82a4.23,4.23,0,0,0-.16-.9A4,4,0,0,0,936,573a1.83,1.83,0,0,0-.73-.7,2.29,2.29,0,0,0-1.14-.26,2.23,2.23,0,0,0-1.74.61A3.6,3.6,0,0,0,931.72,574.81Z"/><path class="cls-3" d="M940,577.1a2.49,2.49,0,0,1,1.18-2.17,5.85,5.85,0,0,1,3.25-.79,11.83,11.83,0,0,1,1.7.12,2.31,2.31,0,0,0-.64-1.71,3,3,0,0,0-1.94-.51,8.14,8.14,0,0,0-2.6.47V571a7.86,7.86,0,0,1,2.84-.51,4.22,4.22,0,0,1,3,1,3.85,3.85,0,0,1,1.07,2.92v2.71a3.05,3.05,0,0,1-.06.6,3.66,3.66,0,0,1-.29.77,2.55,2.55,0,0,1-.61.81,3.21,3.21,0,0,1-1.16.61,6,6,0,0,1-1.79.25,5.87,5.87,0,0,1-1.82-.26,3.39,3.39,0,0,1-1.18-.62,2.72,2.72,0,0,1-.63-.83,3.12,3.12,0,0,1-.29-.79A3.26,3.26,0,0,1,940,577.1Zm1.72,0c0,1.06.76,1.58,2.26,1.58h0c1.41,0,2.12-.5,2.12-1.52v-1.52a12,12,0,0,0-1.63-.12,5.64,5.64,0,0,0-.79.07,7.66,7.66,0,0,0-.89.22,1.78,1.78,0,0,0-.79.48A1.2,1.2,0,0,0,941.73,577.09Z"/><path class="cls-3" d="M950.3,580.07v-8.6a12.41,12.41,0,0,1,4.57-.94v1.58a12.46,12.46,0,0,0-2.85.4v7.56Z"/><path class="cls-3" d="M956.73,580.07v-8.59a9,9,0,0,1,4-1,4,4,0,0,1,2.8.92,3.34,3.34,0,0,1,1,2.58v6.05h-1.75v-6.19a1.88,1.88,0,0,0-.43-1.31,2.26,2.26,0,0,0-1.7-.47,7,7,0,0,0-2.21.34v7.63Z"/><path class="cls-3" d="M967.43,569.23v-1.82h1.83v1.82Zm.05,10.84v-9.39h1.72v9.39Z"/><path class="cls-3" d="M972.27,580.07v-8.59a9,9,0,0,1,4-1,4,4,0,0,1,2.8.92,3.34,3.34,0,0,1,1,2.58v6.05h-1.76v-6.19a1.93,1.93,0,0,0-.42-1.31,2.26,2.26,0,0,0-1.7-.47,7,7,0,0,0-2.21.34v7.63Z"/><path class="cls-3" d="M982.54,575.3a5.6,5.6,0,0,1,1-3.48,3.56,3.56,0,0,1,3-1.3,4.44,4.44,0,0,1,2.75.77,2.58,2.58,0,0,1,1,2.19v7a3.55,3.55,0,0,1-.18,1.15,3.15,3.15,0,0,1-.61,1,2.7,2.7,0,0,1-1.27.8,6.6,6.6,0,0,1-2.08.29,9.74,9.74,0,0,1-2.78-.4v-1.63a9.38,9.38,0,0,0,2.64.39,5.44,5.44,0,0,0,1.47-.16,1.46,1.46,0,0,0,.78-.46,1.6,1.6,0,0,0,.26-.5,2.64,2.64,0,0,0,0-.55v-.83a7,7,0,0,1-1.9.27,4,4,0,0,1-3.09-1.19A4.81,4.81,0,0,1,982.54,575.3Zm1.72,0a3.35,3.35,0,0,0,.65,2.43,2.58,2.58,0,0,0,1.81.6,5.17,5.17,0,0,0,1.9-.35v-4.62a1.28,1.28,0,0,0,0-.36,1.42,1.42,0,0,0-.21-.41,1,1,0,0,0-.63-.4,4.23,4.23,0,0,0-1.18-.14,2.91,2.91,0,0,0-.82.11,1.93,1.93,0,0,0-1.28,1.42A6.39,6.39,0,0,0,984.26,575.31Z"/><path class="cls-4" d="M615.05,547.3a2.85,2.85,0,0,1-.69,1.87l-10.55,12.35a2.9,2.9,0,0,1-4.38,0l-10.55-12.35a2.88,2.88,0,1,1,4.37-3.74l8.37,9.79,8.37-9.79a2.87,2.87,0,0,1,5.06,1.87Z"/><path class="cls-4" d="M604.5,479V558.3a2.88,2.88,0,1,1-5.76,0V479a2.88,2.88,0,1,1,5.76,0Z"/><path class="cls-4" d="M588.19,489.67a2.86,2.86,0,0,1,.69-1.88l10.55-12.34a2.88,2.88,0,0,1,4.38,0l10.55,12.34a2.88,2.88,0,1,1-4.37,3.75l-8.37-9.79-8.37,9.79a2.88,2.88,0,0,1-5.06-1.87Z"/><path class="cls-5" d="M601.62,525.28a7.82,7.82,0,1,1,7.82-7.82A7.83,7.83,0,0,1,601.62,525.28Z"/><path class="cls-6" d="M601.62,512.34a5.13,5.13,0,1,1-5.13,5.12,5.13,5.13,0,0,1,5.13-5.12m0-5.38a10.51,10.51,0,1,0,10.5,10.5,10.5,10.5,0,0,0-10.5-10.5Z"/><path class="cls-4" d="M811.33,478.85v41.49a2.88,2.88,0,1,1-5.75,0V478.85a2.88,2.88,0,1,1,5.75,0Z"/><path class="cls-4" d="M759.18,517.46h48.93a2.88,2.88,0,0,1,0,5.76H759.18a2.88,2.88,0,0,1,0-5.76Z"/><path class="cls-4" d="M821.88,489.67a2.86,2.86,0,0,0-.69-1.88l-10.55-12.34a2.87,2.87,0,0,0-4.37,0l-10.56,12.34a2.88,2.88,0,0,0,4.37,3.75l8.37-9.79,8.37,9.79a2.88,2.88,0,0,0,5.06-1.87Z"/><path class="cls-4" d="M762.06,520.34v30.25a2.88,2.88,0,0,1-5.76,0V520.34a2.88,2.88,0,0,1,5.76,0Z"/><path class="cls-4" d="M731.88,582.12l29.33-29.34a2.87,2.87,0,1,0-4.06-4.07l-29.34,29.34a2.88,2.88,0,0,0,4.07,4.07Z"/><path class="cls-4" d="M747,581.93a2.9,2.9,0,0,1-1.82.84L729,584a2.88,2.88,0,0,1-3.09-3.1l1.27-16.19a2.87,2.87,0,1,1,5.73.44l-1,12.84,12.84-1a2.88,2.88,0,0,1,2.26,4.9Z"/><path class="cls-5" d="M758.87,556.4a7.82,7.82,0,1,1,7.82-7.81A7.82,7.82,0,0,1,758.87,556.4Z"/><path class="cls-6" d="M758.87,543.46a5.13,5.13,0,1,1-5.13,5.13,5.13,5.13,0,0,1,5.13-5.13m0-5.38a10.51,10.51,0,1,0,10.5,10.51,10.51,10.51,0,0,0-10.5-10.51Z"/><path class="cls-4" d="M391.91,478.68v41.49a2.88,2.88,0,1,0,5.75,0V478.68a2.88,2.88,0,1,0-5.75,0Z"/><path class="cls-4" d="M444.06,517.29H395.13a2.88,2.88,0,0,0,0,5.76h48.93a2.88,2.88,0,1,0,0-5.76Z"/><path class="cls-4" d="M381.36,489.49a2.85,2.85,0,0,1,.69-1.87l10.55-12.35a2.89,2.89,0,0,1,4.37,0l10.56,12.35a2.88,2.88,0,1,1-4.37,3.74l-8.37-9.79-8.37,9.79a2.87,2.87,0,0,1-5.06-1.87Z"/><path class="cls-4" d="M441.18,520.17v30.25a2.88,2.88,0,0,0,5.76,0V520.17a2.88,2.88,0,0,0-5.76,0Z"/><path class="cls-4" d="M471.36,581.94,442,552.61a2.87,2.87,0,0,1,4.06-4.07l29.34,29.33a2.88,2.88,0,0,1-4.07,4.07Z"/><path class="cls-4" d="M456.25,581.76a2.84,2.84,0,0,0,1.82.83l16.19,1.27a2.93,2.93,0,0,0,2.26-.83,2.9,2.9,0,0,0,.83-2.26l-1.27-16.19a2.87,2.87,0,1,0-5.73.44l1,12.84-12.84-1a2.88,2.88,0,0,0-2.26,4.9Z"/><path class="cls-5" d="M444.37,555.51a7.82,7.82,0,1,1,7.82-7.82A7.83,7.83,0,0,1,444.37,555.51Z"/><path class="cls-6" d="M444.37,542.57a5.13,5.13,0,1,1-5.13,5.12,5.13,5.13,0,0,1,5.13-5.12m0-5.38a10.51,10.51,0,1,0,10.5,10.5,10.5,10.5,0,0,0-10.5-10.5Z"/><path class="cls-7" d="M761.72,550.07h71.34a1.09,1.09,0,0,0,0-2.18H761.72a1.09,1.09,0,0,0,0,2.18Z"/><path class="cls-3" d="M212.2,553.3l5-12.56h1.71l5,12.56H222l-1.35-3.52h-5.24l-1.35,3.52Zm3.86-5.16h4l-2-5.21Z"/><path class="cls-3" d="M225.39,549.72a10.67,10.67,0,0,1,0-5.42,5.38,5.38,0,0,1,.9-1.86,4.32,4.32,0,0,1,1.34-1.13,5.29,5.29,0,0,1,1.57-.58,8.33,8.33,0,0,1,1.62-.15,10.44,10.44,0,0,1,3.84.74V543a8.78,8.78,0,0,0-3.64-.79,4.08,4.08,0,0,0-3.22,1.14,7.36,7.36,0,0,0,0,7.41,4.05,4.05,0,0,0,3.22,1.15,8.78,8.78,0,0,0,3.64-.79v1.62a10.27,10.27,0,0,1-3.84.76,8.33,8.33,0,0,1-1.62-.15,5.33,5.33,0,0,1-1.57-.59,4.19,4.19,0,0,1-1.34-1.13A5.38,5.38,0,0,1,225.39,549.72Z"/><path class="cls-3" d="M237.12,553.3V540.74h1.75V553.3Z"/><path class="cls-3" d="M242.12,553.3V540.74h4a5.75,5.75,0,0,1,4.39,1.6,8.07,8.07,0,0,1,0,9.37,5.73,5.73,0,0,1-4.39,1.59Zm1.75-1.55h2a4.44,4.44,0,0,0,3.37-1.14,5.09,5.09,0,0,0,1.07-3.58,5.15,5.15,0,0,0-1.07-3.6,4.44,4.44,0,0,0-3.37-1.14h-2Z"/><path class="cls-3" d="M259.77,542.38v-1.64H270v1.64h-4.23V553.3H264V542.38Z"/><path class="cls-3" d="M270.51,553.3v-8.6a12.26,12.26,0,0,1,4.58-.94v1.58a12.06,12.06,0,0,0-2.86.39v7.57Z"/><path class="cls-3" d="M276.31,550.33a2.5,2.5,0,0,1,1.18-2.18,5.85,5.85,0,0,1,3.25-.78,13.36,13.36,0,0,1,1.7.11,2.28,2.28,0,0,0-.64-1.7,3,3,0,0,0-1.94-.51,8.11,8.11,0,0,0-2.6.46v-1.47a8.08,8.08,0,0,1,2.84-.5,4.25,4.25,0,0,1,3,1,3.85,3.85,0,0,1,1.07,2.92v2.71a3.08,3.08,0,0,1-.06.61,3.42,3.42,0,0,1-.29.76,2.48,2.48,0,0,1-.61.82,3.28,3.28,0,0,1-1.16.6,5.72,5.72,0,0,1-1.79.26,5.58,5.58,0,0,1-1.82-.27,3.39,3.39,0,0,1-1.18-.61,2.72,2.72,0,0,1-.63-.83,3.12,3.12,0,0,1-.29-.79A3.34,3.34,0,0,1,276.31,550.33Zm1.72,0c0,1.06.76,1.59,2.26,1.59h0c1.41,0,2.12-.51,2.12-1.52v-1.52a12,12,0,0,0-1.63-.12,4.45,4.45,0,0,0-.79.07,7.49,7.49,0,0,0-.89.21,1.8,1.8,0,0,0-.79.49A1.16,1.16,0,0,0,278,550.31Z"/><path class="cls-3" d="M286.68,553.3v-8.6a9,9,0,0,1,4-1,4,4,0,0,1,2.8.93,3.34,3.34,0,0,1,1,2.57v6.06h-1.75v-6.19a1.88,1.88,0,0,0-.43-1.31,2.25,2.25,0,0,0-1.7-.48,7.35,7.35,0,0,0-2.21.34v7.64Z"/><path class="cls-3" d="M296.83,546.56a2.65,2.65,0,0,1,.84-2,3.46,3.46,0,0,1,2.54-.82,5.72,5.72,0,0,1,2.51.61v1.49a5.57,5.57,0,0,0-2.3-.56c-1.25,0-1.87.4-1.87,1.2,0,.27.17.48.5.66a6.44,6.44,0,0,0,1.19.46,14.38,14.38,0,0,1,1.4.47,2.79,2.79,0,0,1,1.2.94,2.66,2.66,0,0,1,.5,1.63,2.62,2.62,0,0,1-.85,2,3.68,3.68,0,0,1-2.64.83,5.42,5.42,0,0,1-2.71-.67v-1.57a5.19,5.19,0,0,0,2.6.69h0a2.49,2.49,0,0,0,1.38-.32,1,1,0,0,0,.47-.83,1.07,1.07,0,0,0-.49-.93,3.69,3.69,0,0,0-1.2-.55c-.47-.14-.94-.28-1.41-.44a2.64,2.64,0,0,1-1.19-.81A2.14,2.14,0,0,1,296.83,546.56Z"/><path class="cls-3" d="M305.11,550.33a2.5,2.5,0,0,1,1.18-2.18,5.85,5.85,0,0,1,3.25-.78,13.36,13.36,0,0,1,1.7.11,2.28,2.28,0,0,0-.64-1.7,3,3,0,0,0-1.94-.51,8.11,8.11,0,0,0-2.6.46v-1.47a8.08,8.08,0,0,1,2.84-.5,4.25,4.25,0,0,1,3,1,3.85,3.85,0,0,1,1.07,2.92v2.71a3.08,3.08,0,0,1-.06.61,3.42,3.42,0,0,1-.29.76,2.48,2.48,0,0,1-.61.82,3.37,3.37,0,0,1-1.16.6,5.72,5.72,0,0,1-1.79.26,5.58,5.58,0,0,1-1.82-.27,3.39,3.39,0,0,1-1.18-.61,2.72,2.72,0,0,1-.63-.83,3.12,3.12,0,0,1-.29-.79A3.34,3.34,0,0,1,305.11,550.33Zm1.72,0c0,1.06.76,1.59,2.26,1.59h0c1.41,0,2.12-.51,2.12-1.52v-1.52a12,12,0,0,0-1.63-.12,4.45,4.45,0,0,0-.79.07,7.49,7.49,0,0,0-.89.21,1.8,1.8,0,0,0-.79.49A1.16,1.16,0,0,0,306.83,550.31Z"/><path class="cls-3" d="M316,552.2a6.35,6.35,0,0,1,0-7.2,4.14,4.14,0,0,1,3.26-1.24,7.47,7.47,0,0,1,2.76.52v1.64a5.89,5.89,0,0,0-2.58-.62h0a2.94,2.94,0,0,0-2,.67,3.55,3.55,0,0,0-.73,2.63,6,6,0,0,0,.21,1.73,2,2,0,0,0,.65,1,2.27,2.27,0,0,0,.86.44,4.48,4.48,0,0,0,1,.11,6,6,0,0,0,2.62-.6v1.63a7.68,7.68,0,0,1-2.76.52A4.15,4.15,0,0,1,316,552.2Z"/><path class="cls-3" d="M323.61,545.38v-1.47h1.64v-2.79H327v2.79h2.5v1.47H327v5.42c0,.74.46,1.1,1.39,1.1h0a2.11,2.11,0,0,0,1.1-.27v1.55a3.32,3.32,0,0,1-1.29.27h0a3.23,3.23,0,0,1-.73-.09,4.23,4.23,0,0,1-.92-.32,2,2,0,0,1-.89-.85,2.93,2.93,0,0,1-.35-1.49v-5.32Z"/><path class="cls-3" d="M331.74,542.45v-1.82h1.83v1.82Zm.05,10.85v-9.39h1.72v9.39Z"/><path class="cls-3" d="M336.39,551a6.51,6.51,0,0,1-.4-2.43,6.42,6.42,0,0,1,.4-2.42,3.21,3.21,0,0,1,1.08-1.5,4.52,4.52,0,0,1,1.4-.71,6.18,6.18,0,0,1,3.12,0,4.52,4.52,0,0,1,1.4.71,3.21,3.21,0,0,1,1.08,1.5,6.42,6.42,0,0,1,.4,2.42,6.51,6.51,0,0,1-.4,2.43,3.23,3.23,0,0,1-1.08,1.49,4.52,4.52,0,0,1-1.4.71,5.9,5.9,0,0,1-3.12,0,4.52,4.52,0,0,1-1.4-.71A3.23,3.23,0,0,1,336.39,551Zm1.56-4.16a7.58,7.58,0,0,0,0,3.46,2,2,0,0,0,.62,1,2.27,2.27,0,0,0,.84.44,4.78,4.78,0,0,0,2,0,2.27,2.27,0,0,0,.84-.44,2,2,0,0,0,.62-1,7.58,7.58,0,0,0,0-3.46,2.06,2.06,0,0,0-.62-1,2.27,2.27,0,0,0-.84-.44,4.78,4.78,0,0,0-2,0,2.27,2.27,0,0,0-.84.44A2.06,2.06,0,0,0,338,546.88Z"/><path class="cls-3" d="M347,553.3v-8.6a9,9,0,0,1,4-1,4,4,0,0,1,2.8.93,3.34,3.34,0,0,1,1,2.57v6.06h-1.76v-6.19a1.93,1.93,0,0,0-.42-1.31,2.25,2.25,0,0,0-1.7-.48,7.35,7.35,0,0,0-2.21.34v7.64Z"/><path class="cls-3" d="M357.19,546.56a2.67,2.67,0,0,1,.83-2,3.48,3.48,0,0,1,2.54-.82,5.77,5.77,0,0,1,2.52.61v1.49a5.61,5.61,0,0,0-2.3-.56c-1.25,0-1.87.4-1.87,1.2,0,.27.17.48.5.66a6.44,6.44,0,0,0,1.19.46c.47.13.93.29,1.4.47a2.79,2.79,0,0,1,1.2.94,2.78,2.78,0,0,1-.35,3.59,3.68,3.68,0,0,1-2.64.83,5.42,5.42,0,0,1-2.71-.67v-1.57a5.19,5.19,0,0,0,2.6.69h0a2.51,2.51,0,0,0,1.38-.32,1,1,0,0,0,.47-.83,1.1,1.1,0,0,0-.49-.93,3.69,3.69,0,0,0-1.2-.55c-.47-.14-.94-.28-1.41-.44a2.73,2.73,0,0,1-1.2-.81A2.18,2.18,0,0,1,357.19,546.56Z"/><path class="cls-7" d="M374.1,548.79h71.33a1.1,1.1,0,1,0,0-2.19H374.1a1.1,1.1,0,0,0,0,2.19Z"/><path class="cls-3" d="M512.58,516.12a3.35,3.35,0,0,1,1.08-2.51,4.61,4.61,0,0,1,3.31-1,7.21,7.21,0,0,1,3.24.76v1.71a5.71,5.71,0,0,0-3-.83c-1.89,0-2.84.63-2.84,1.9a1.11,1.11,0,0,0,.5.89,4.16,4.16,0,0,0,1.23.61,15.54,15.54,0,0,1,1.61.59,14.18,14.18,0,0,1,1.61.77,3.41,3.41,0,0,1,1.73,3,3,3,0,0,1-1.2,2.51,5.42,5.42,0,0,1-3.33.91,8.46,8.46,0,0,1-3.74-.9v-1.81a6.73,6.73,0,0,0,3.58,1.07c1.95,0,2.93-.59,2.94-1.78a1.85,1.85,0,0,0-.5-1.3,2.82,2.82,0,0,0-1.23-.78l-1.61-.55c-.59-.2-1.13-.41-1.62-.62a3.05,3.05,0,0,1-1.23-1A2.71,2.71,0,0,1,512.58,516.12Z"/><path class="cls-3" d="M523,519a9.29,9.29,0,0,1,.36-2.7,5.39,5.39,0,0,1,.93-1.86,4.64,4.64,0,0,1,1.36-1.12,5.24,5.24,0,0,1,1.56-.58,9,9,0,0,1,3.28,0,5.14,5.14,0,0,1,1.56.58,4.77,4.77,0,0,1,1.36,1.12,5.57,5.57,0,0,1,.92,1.86,9.29,9.29,0,0,1,.36,2.7,9.44,9.44,0,0,1-.41,2.92,4.84,4.84,0,0,1-1.14,2,5.15,5.15,0,0,1-1.54,1,6,6,0,0,1-1.8.46,1.87,1.87,0,0,0,.5,1.29,1.76,1.76,0,0,0,1.38.56v1.37a3.68,3.68,0,0,1-2.58-.93,3,3,0,0,1-1-2.27,6.59,6.59,0,0,1-1.86-.42,5.12,5.12,0,0,1-1.6-1,4.57,4.57,0,0,1-1.2-2A9.55,9.55,0,0,1,523,519Zm2-2.14a8,8,0,0,0-.25,2.14,8.12,8.12,0,0,0,.25,2.16,4.61,4.61,0,0,0,.64,1.42,2.67,2.67,0,0,0,1,.81,3.42,3.42,0,0,0,1.08.38,6.75,6.75,0,0,0,1.16.09,6.83,6.83,0,0,0,1.16-.09,3.47,3.47,0,0,0,1.09-.38,2.89,2.89,0,0,0,1-.81,4.19,4.19,0,0,0,.63-1.42A8.09,8.09,0,0,0,533,519a7.93,7.93,0,0,0-.26-2.14,4.13,4.13,0,0,0-.62-1.41,2.7,2.7,0,0,0-1-.81,3.89,3.89,0,0,0-1.09-.39,8.6,8.6,0,0,0-2.34,0,3.79,3.79,0,0,0-1.07.39,2.67,2.67,0,0,0-1,.81A4.54,4.54,0,0,0,525,516.85Z"/><path class="cls-3" d="M537.32,525.28V512.73h1.76v10.91h6.23v1.64Z"/><path class="cls-7" d="M552.86,519.74h49.82a1.1,1.1,0,0,0,0-2.19H552.86a1.1,1.1,0,1,0,0,2.19Z"/><rect class="cls-6" x="449.31" y="611.03" width="306.31" height="234.03" rx="7.58"/><path class="cls-6" d="M748.63,719.73h91.5a1.1,1.1,0,0,0,0-2.19h-91.5a1.1,1.1,0,0,0,0,2.19Z"/><path class="cls-8" d="M670.38,649.13c-20.42,0-41.54,4.63-41.54,12.38v98a4.64,4.64,0,0,0,.88,2.68,7.81,7.81,0,0,0,1,1.17c5.29,5.1,21.22,8.53,39.65,8.53s34.39-3.43,39.67-8.52a8,8,0,0,0,1-1.19,4.58,4.58,0,0,0,.88-2.67v-98C712,653.76,690.82,649.13,670.38,649.13Z"/><path class="cls-5" d="M698.87,651.36c-7.72-2.09-18.1-3.29-28.49-3.29s-20.75,1.2-28.46,3.29c-9,2.45-13.8,5.93-13.8,10.06v32.86a5.64,5.64,0,0,0,1.07,3.26,8.42,8.42,0,0,0,1.15,1.34c5.41,5.23,21.51,8.75,40,8.75s34.65-3.52,40.07-8.76a8.78,8.78,0,0,0,1.15-1.32,5.7,5.7,0,0,0,1.07-3.27V661.42C712.67,657.29,707.9,653.81,698.87,651.36Zm9.62,44a4.94,4.94,0,0,1-.66.76c-4.62,4.47-20.37,7.71-37.45,7.71s-32.8-3.24-37.42-7.7a5,5,0,0,1-.66-.77,1.93,1.93,0,0,1-.39-1.08v-27a20.68,20.68,0,0,0,2.83,1.61l0,0c.52.25,1.05.49,1.62.72l.14.06c.55.22,1.12.44,1.71.65l.22.07c.5.18,1,.35,1.55.52l.49.15,1.55.44.71.19,1.56.38.91.21,1.55.33,1,.2,1.24.22,1.43.24,1.17.18,1.54.21,1.33.17,1.21.14,1.8.18.91.08c.73.07,1.46.12,2.2.17l.79.06,2.4.13.6,0c.88,0,1.76.07,2.65.09h.35c1,0,1.95,0,2.93,0s2,0,2.93,0h.36c.89,0,1.77,0,2.65-.09l.6,0,2.4-.13.79-.06c.74-.05,1.47-.1,2.19-.17l.94-.08L685,674l1.26-.14,1.31-.17,1.56-.21,1.15-.18,1.45-.24,1.23-.22,1-.2,1.55-.33.9-.21c.54-.12,1.06-.25,1.57-.38l.69-.19c.55-.15,1.1-.3,1.62-.46l.4-.12c.56-.18,1.1-.35,1.63-.54l.16,0c.61-.22,1.2-.44,1.76-.67l.09,0c.58-.24,1.13-.48,1.66-.74h0a20.24,20.24,0,0,0,2.84-1.62v27A1.94,1.94,0,0,1,708.49,695.36Zm-38.11-43.49c23.85,0,38.49,5.56,38.49,9.55a2,2,0,0,1-.39,1.11c-1.67,2.46-7.63,5-16.44,6.61l-.07,0-1,.17-1,.18h0a124.23,124.23,0,0,1-16.24,1.43h-.55l-1,0h-3.41l-1,0h-.55a121.74,121.74,0,0,1-16.2-1.43h-.07l-1-.16-1.06-.19h0c-8.8-1.64-14.76-4.16-16.44-6.62a2.09,2.09,0,0,1-.4-1.11C631.91,657.43,646.55,651.87,670.38,651.87Z"/><path class="cls-5" d="M710.89,692.37a1.75,1.75,0,0,0-1.75,1.75,2.07,2.07,0,0,1-.42,1.18c-1.51,2.24-6.33,4.44-13.21,6a125.44,125.44,0,0,1-50.23,0c-6.88-1.57-11.7-3.76-13.21-6a2.13,2.13,0,0,1-.42-1.19,1.76,1.76,0,0,0-3.51,0v65.64a5.51,5.51,0,0,0,1.05,3.2,8.44,8.44,0,0,0,1.13,1.3c2.7,2.61,8,4.82,15.25,6.39a131.7,131.7,0,0,0,49.64,0c7.28-1.57,12.55-3.77,15.25-6.38A8.66,8.66,0,0,0,711.6,763a5.48,5.48,0,0,0,1-3.19V694.12A1.76,1.76,0,0,0,710.89,692.37Zm-1.75,67.39a2,2,0,0,1-.42,1.17,4.78,4.78,0,0,1-.68.79h0c-2.24,2.17-7.17,4.13-13.9,5.54a128,128,0,0,1-47.48,0c-6.72-1.41-11.66-3.38-13.9-5.54h0a5.16,5.16,0,0,1-.67-.78,2,2,0,0,1-.42-1.18v-60c2.88,2.08,7.49,3.86,13.51,5.19a131.66,131.66,0,0,0,50.46,0c6-1.33,10.63-3.11,13.52-5.19Z"/><path class="cls-9" d="M642.25,690.79v-9.16l1.81.42q1.31,2.21,2.62,4.38l2.63-3.32,1.82.31v9.15l-1.64-.28v-6.77q-1.41,1.79-2.81,3.52-1.41-2.31-2.8-4.65v6.77Z"/><path class="cls-9" d="M653.44,692.93v-9.16c2,.29,4.07.53,6.1.72V686c-1.48-.13-3-.3-4.45-.49v2.32c1.28.16,2.57.31,3.86.44v1.55c-1.29-.12-2.58-.27-3.86-.44v2.32c1.48.19,3,.36,4.45.5v1.48C657.51,693.46,655.47,693.22,653.44,692.93Z"/><path class="cls-9" d="M661.43,693.81v-9.16l1.84.13c.89,1.33,1.78,2.66,2.67,4,.89-1.24,1.77-2.49,2.66-3.75l1.84,0v9.16l-1.66,0v-6.77q-1.41,2-2.84,4-1.43-2.07-2.85-4.19v6.77Z"/><path class="cls-9" d="M672.46,689.59a6.6,6.6,0,0,1,.26-2,3.9,3.9,0,0,1,.68-1.37,3.39,3.39,0,0,1,1-.84,4.11,4.11,0,0,1,1.15-.47,7.25,7.25,0,0,1,1.2-.16,6.71,6.71,0,0,1,1.21.05,3.78,3.78,0,0,1,1.15.35,3.25,3.25,0,0,1,1,.75,3.69,3.69,0,0,1,.69,1.3,6.74,6.74,0,0,1,.26,2,7.11,7.11,0,0,1-.26,2,4.21,4.21,0,0,1-.69,1.41,3.54,3.54,0,0,1-1,.89,4.06,4.06,0,0,1-1.15.5,5.6,5.6,0,0,1-1.21.17,5.84,5.84,0,0,1-1.2,0,3.82,3.82,0,0,1-1.15-.39,3.24,3.24,0,0,1-1-.79,3.71,3.71,0,0,1-.68-1.35A6.58,6.58,0,0,1,672.46,689.59Zm1.66-.05a5.78,5.78,0,0,0,.2,1.7,1.9,1.9,0,0,0,.61,1,2.31,2.31,0,0,0,.82.4,3.86,3.86,0,0,0,1,.07,5.57,5.57,0,0,0,.82-.1,2.52,2.52,0,0,0,.71-.3,1.75,1.75,0,0,0,.59-.59,3.39,3.39,0,0,0,.38-1,7,7,0,0,0,0-3.11,1.72,1.72,0,0,0-.62-1,2.1,2.1,0,0,0-.82-.38,4.44,4.44,0,0,0-1,0,4.53,4.53,0,0,0-.8.09,2.48,2.48,0,0,0-.71.29,1.67,1.67,0,0,0-.59.56,3.29,3.29,0,0,0-.38,1A5.89,5.89,0,0,0,674.12,689.54Z"/><path class="cls-9" d="M683.05,693.57v-9.15c1.17-.12,2.35-.25,3.52-.4a3.47,3.47,0,0,1,2.5.41,2.34,2.34,0,0,1,.89,2.05,3.09,3.09,0,0,1-2,3c.8,1.06,1.6,2.1,2.4,3.14l-2,.31L686.18,690l-1.48.18v3.23Zm1.65-4.91,1.82-.22a2.65,2.65,0,0,0,1.32-.48,1.4,1.4,0,0,0,.47-1.2c0-.56-.15-.91-.47-1.07a2.36,2.36,0,0,0-1.32-.11l-1.82.22Z"/><path class="cls-9" d="M690.8,683.4l2-.35c.81,1.1,1.61,2.18,2.42,3.26l2.39-4.23c.65-.14,1.31-.29,2-.45-1.18,2-2.35,4-3.54,6v3.93l-1.63.33V688Q692.6,685.72,690.8,683.4Z"/><path class="cls-9" d="M656.2,739v-9.15c1,.25,2.08.47,3.13.66a4.78,4.78,0,0,1,4.32,5.24,4.3,4.3,0,0,1-1.1,3.27,3.57,3.57,0,0,1-3.22.65C658.28,739.46,657.24,739.24,656.2,739Zm1.63-1.11,1.49.3a2.23,2.23,0,0,0,2-.38,3.19,3.19,0,0,0,.63-2.27,4,4,0,0,0-.63-2.48,3.24,3.24,0,0,0-2-1.07l-1.49-.29Z"/><path class="cls-9" d="M665.68,740.51v-9.16l1.66.11v9.16Z"/><path class="cls-9" d="M669.31,734.11a2.28,2.28,0,0,1,.94-2,4.16,4.16,0,0,1,2.35-.7,5.46,5.46,0,0,1,2.47.51v1.61a4.15,4.15,0,0,0-2.27-.57,3,3,0,0,0-1.3.29.87.87,0,0,0-.53.83.78.78,0,0,0,.49.71,5.57,5.57,0,0,0,1.16.41,14.18,14.18,0,0,1,1.38.38,2.46,2.46,0,0,1,1.17.86,2.65,2.65,0,0,1,.48,1.67,2.34,2.34,0,0,1-.92,1.87,3.62,3.62,0,0,1-2.25.8,5.51,5.51,0,0,1-3.05-.75v-1.67a4.18,4.18,0,0,0,2.66.88c1.27,0,1.91-.43,1.91-1.13a1,1,0,0,0-.35-.77,2.09,2.09,0,0,0-.87-.43c-.35-.09-.72-.2-1.12-.33a9.86,9.86,0,0,1-1.13-.44,2.11,2.11,0,0,1-.87-.76A2.27,2.27,0,0,1,669.31,734.11Z"/><path class="cls-9" d="M677.53,740.33v-9.15l1.65-.21v3.88q1.73-2.19,3.45-4.45c.73-.15,1.46-.3,2.19-.47q-1.83,2.43-3.67,4.76c1.36,1.48,2.7,2.91,4,4.3-.67.17-1.35.32-2,.46q-1.53-1.68-3.06-3.42c-.31.38-.61.76-.92,1.13v3Z"/><path class="cls-5" d="M644.27,790.3s-2.73,4.13,2.63,5c.52.07,4.4.47,5.4,1.74,0,0-.09-2.19-3.24-3.49S644.62,791.91,644.27,790.3Z"/><path class="cls-5" d="M646.92,781.42s-7.62,4.64-.44,9.27c1.39.89,6.4,3.4,6.25,5.7,0,0,3-4.5-1.4-7.32S645.63,783.09,646.92,781.42Z"/><path class="cls-5" d="M654.79,786c-3.26-3.42-4.17-5.53-2.77-8.27,0,0-9.76,3.75-.13,10.41,3.45,2.38,2.87,4.81,2.88,4.9A4.76,4.76,0,0,0,654.79,786Z"/><text class="cls-10" transform="translate(662.15 792.36)"><tspan class="cls-11">N</tspan><tspan class="cls-12" x="9.54" y="0">O</tspan><tspan class="cls-13" x="19.08" y="0">D</tspan><tspan x="27.72" y="0">E</tspan></text><path class="cls-8" d="M526.84,649.13c-20.43,0-41.55,4.63-41.55,12.38v98a4.58,4.58,0,0,0,.89,2.68,7.76,7.76,0,0,0,1,1.17c5.29,5.1,21.22,8.53,39.66,8.53s34.38-3.43,39.66-8.52a7.49,7.49,0,0,0,1-1.19,4.6,4.6,0,0,0,.89-2.67v-98C568.41,653.76,547.27,649.13,526.84,649.13Z"/><path class="cls-5" d="M555.32,651.36c-7.72-2.09-18.1-3.29-28.48-3.29s-20.76,1.2-28.47,3.29c-9,2.45-13.8,5.93-13.8,10.06v32.86a5.64,5.64,0,0,0,1.07,3.26,8.42,8.42,0,0,0,1.15,1.34c5.41,5.23,21.51,8.75,40.05,8.75s34.64-3.52,40.06-8.76a8.78,8.78,0,0,0,1.15-1.32,5.71,5.71,0,0,0,1.08-3.27V661.42C569.13,657.29,564.35,653.81,555.32,651.36Zm9.62,44a4.45,4.45,0,0,1-.66.76c-4.62,4.47-20.37,7.71-37.44,7.71s-32.81-3.24-37.43-7.7a5.55,5.55,0,0,1-.66-.77,1.92,1.92,0,0,1-.38-1.08v-27a20,20,0,0,0,2.82,1.61l0,0c.52.25,1,.49,1.62.72l.14.06c.55.22,1.12.44,1.71.65l.22.07c.5.18,1,.35,1.55.52l.49.15,1.55.44.71.19,1.56.38.91.21,1.55.33,1,.2,1.24.22,1.43.24,1.18.18,1.53.21,1.33.17,1.21.14,1.8.18.92.08c.72.07,1.45.12,2.19.17l.79.06,2.41.13.59,0c.88,0,1.76.07,2.65.09h.35c1,0,2,0,2.94,0s2,0,2.92,0h.36c.89,0,1.77,0,2.65-.09l.6,0,2.41-.13.79-.06c.73-.05,1.46-.1,2.18-.17l.94-.08,1.75-.18,1.26-.14,1.31-.17,1.56-.21,1.15-.18,1.45-.24,1.23-.22,1.05-.2,1.55-.33.9-.21,1.58-.38.68-.19c.55-.15,1.1-.3,1.63-.46l.39-.12c.56-.18,1.1-.35,1.63-.54l.17,0c.61-.22,1.19-.44,1.75-.67l.09,0c.58-.24,1.13-.48,1.66-.74h0a20.83,20.83,0,0,0,2.84-1.62v27A1.88,1.88,0,0,1,564.94,695.36Zm-38.1-43.49c23.84,0,38.49,5.56,38.49,9.55a2.07,2.07,0,0,1-.4,1.11c-1.67,2.46-7.63,5-16.43,6.61l-.08,0-1,.17-1,.18h0a124.07,124.07,0,0,1-16.23,1.43h-.55l-1.05,0h-3.41l-1,0h-.55a122,122,0,0,1-16.2-1.43h-.07l-1-.16-1.06-.19h0c-8.8-1.64-14.76-4.16-16.44-6.62a2.07,2.07,0,0,1-.39-1.11C488.37,657.43,503,651.87,526.84,651.87Z"/><path class="cls-5" d="M567.34,692.37a1.76,1.76,0,0,0-1.75,1.75,2.13,2.13,0,0,1-.41,1.18c-1.52,2.24-6.34,4.44-13.22,6a125.44,125.44,0,0,1-50.23,0c-6.88-1.57-11.7-3.76-13.21-6a2.21,2.21,0,0,1-.42-1.19,1.76,1.76,0,0,0-3.51,0v65.64a5.52,5.52,0,0,0,1.06,3.2,7.88,7.88,0,0,0,1.12,1.3c2.7,2.61,8,4.82,15.26,6.39a131.64,131.64,0,0,0,49.63,0c7.28-1.57,12.55-3.77,15.25-6.38a8.14,8.14,0,0,0,1.14-1.32,5.48,5.48,0,0,0,1.05-3.19V694.12A1.76,1.76,0,0,0,567.34,692.37Zm-1.75,67.39a2.05,2.05,0,0,1-.41,1.17,5.35,5.35,0,0,1-.69.79h0c-2.24,2.17-7.18,4.13-13.91,5.54a128,128,0,0,1-47.48,0c-6.72-1.41-11.66-3.38-13.9-5.54h0a5.16,5.16,0,0,1-.67-.78,2.12,2.12,0,0,1-.42-1.18v-60c2.88,2.08,7.49,3.86,13.51,5.19a131.66,131.66,0,0,0,50.46,0c6-1.33,10.63-3.11,13.52-5.19Z"/><path class="cls-9" d="M498.7,690.79v-9.16l1.81.42c.87,1.47,1.75,2.93,2.62,4.38.88-1.1,1.75-2.21,2.63-3.32l1.82.31v9.15l-1.64-.28v-6.77c-.94,1.19-1.87,2.36-2.81,3.52-.93-1.54-1.87-3.09-2.8-4.65v6.77Z"/><path class="cls-9" d="M509.89,692.93v-9.16q3,.43,6.11.72V686c-1.49-.13-3-.3-4.46-.49v2.32c1.29.16,2.57.31,3.86.44v1.55c-1.29-.12-2.57-.27-3.86-.44v2.32c1.48.19,3,.36,4.46.5v1.48Q512.94,693.37,509.89,692.93Z"/><path class="cls-9" d="M517.89,693.81v-9.16l1.84.13c.88,1.33,1.77,2.66,2.66,4q1.33-1.86,2.66-3.75l1.85,0v9.16l-1.66,0v-6.77l-2.85,4q-1.42-2.07-2.85-4.19v6.77Z"/><path class="cls-9" d="M528.91,689.59a6.94,6.94,0,0,1,.26-2,4.08,4.08,0,0,1,.68-1.37,3.53,3.53,0,0,1,1-.84,4.23,4.23,0,0,1,1.15-.47,7.23,7.23,0,0,1,1.21-.16,6.64,6.64,0,0,1,1.2.05,3.7,3.7,0,0,1,1.15.35,3.41,3.41,0,0,1,1,.75,3.69,3.69,0,0,1,.68,1.3,6.74,6.74,0,0,1,.26,2,7.11,7.11,0,0,1-.26,2,4.21,4.21,0,0,1-.68,1.41,3.72,3.72,0,0,1-1,.89,3.94,3.94,0,0,1-1.15.5,5.6,5.6,0,0,1-1.2.17,5.91,5.91,0,0,1-1.21,0,3.91,3.91,0,0,1-1.15-.39,3.36,3.36,0,0,1-1-.79,3.87,3.87,0,0,1-.68-1.35A6.91,6.91,0,0,1,528.91,689.59Zm1.66-.05a6.13,6.13,0,0,0,.2,1.7,1.9,1.9,0,0,0,.61,1,2.31,2.31,0,0,0,.82.4,3.94,3.94,0,0,0,1,.07,5.59,5.59,0,0,0,.81-.1,2.52,2.52,0,0,0,.71-.3,1.75,1.75,0,0,0,.59-.59,3.13,3.13,0,0,0,.38-1,6,6,0,0,0,.15-1.43,5.68,5.68,0,0,0-.2-1.68,1.77,1.77,0,0,0-.61-1,2.2,2.2,0,0,0-.83-.38,4.38,4.38,0,0,0-1,0,4.54,4.54,0,0,0-.81.09,2.6,2.6,0,0,0-.71.29,1.76,1.76,0,0,0-.59.56,3.29,3.29,0,0,0-.38,1A5.89,5.89,0,0,0,530.57,689.54Z"/><path class="cls-9" d="M539.5,693.57v-9.15c1.17-.12,2.35-.25,3.52-.4a3.47,3.47,0,0,1,2.5.41,2.32,2.32,0,0,1,.89,2.05,3.09,3.09,0,0,1-2,3l2.41,3.14-2,.31L542.63,690l-1.48.18v3.23Zm1.65-4.91,1.83-.22a2.61,2.61,0,0,0,1.31-.48,1.4,1.4,0,0,0,.48-1.2c0-.56-.16-.91-.48-1.07a2.32,2.32,0,0,0-1.31-.11l-1.83.22Z"/><path class="cls-9" d="M547.26,683.4l2-.35c.8,1.1,1.61,2.18,2.41,3.26.8-1.4,1.59-2.81,2.39-4.23.65-.14,1.31-.29,2-.45q-1.75,3-3.54,6v3.93l-1.63.33V688Q549,685.72,547.26,683.4Z"/><path class="cls-9" d="M512.65,739v-9.15c1,.25,2.08.47,3.13.66a4.78,4.78,0,0,1,4.32,5.24A4.3,4.3,0,0,1,519,739a3.57,3.57,0,0,1-3.22.65C514.73,739.46,513.69,739.24,512.65,739Zm1.63-1.11,1.49.3a2.23,2.23,0,0,0,2.05-.38,3.19,3.19,0,0,0,.63-2.27,4,4,0,0,0-.63-2.48,3.24,3.24,0,0,0-2.05-1.07l-1.49-.29Z"/><path class="cls-9" d="M522.13,740.51v-9.16l1.66.11v9.16Z"/><path class="cls-9" d="M525.76,734.11a2.28,2.28,0,0,1,.94-2,4.16,4.16,0,0,1,2.35-.7,5.46,5.46,0,0,1,2.47.51v1.61a4.11,4.11,0,0,0-2.27-.57,3,3,0,0,0-1.3.29.87.87,0,0,0-.53.83.8.8,0,0,0,.49.71,5.57,5.57,0,0,0,1.16.41,14.18,14.18,0,0,1,1.38.38,2.46,2.46,0,0,1,1.17.86,2.65,2.65,0,0,1,.48,1.67,2.34,2.34,0,0,1-.92,1.87,3.58,3.58,0,0,1-2.25.8,5.51,5.51,0,0,1-3-.75v-1.67a4.18,4.18,0,0,0,2.66.88c1.27,0,1.91-.43,1.91-1.13a1,1,0,0,0-.35-.77,2.09,2.09,0,0,0-.87-.43c-.35-.09-.72-.2-1.12-.33a10.64,10.64,0,0,1-1.13-.44,2.11,2.11,0,0,1-.87-.76A2.27,2.27,0,0,1,525.76,734.11Z"/><path class="cls-9" d="M534,740.33v-9.15l1.65-.21v3.88q1.73-2.19,3.45-4.45c.73-.15,1.46-.3,2.19-.47q-1.83,2.43-3.67,4.76,2,2.22,4,4.3c-.67.17-1.35.32-2,.46q-1.53-1.68-3.06-3.42c-.31.38-.61.76-.92,1.13v3Z"/><path class="cls-5" d="M500.72,790.3s-2.72,4.13,2.63,5c.52.07,4.4.47,5.4,1.74,0,0-.09-2.19-3.24-3.49S501.07,791.91,500.72,790.3Z"/><path class="cls-5" d="M503.37,781.42s-7.62,4.64-.44,9.27c1.39.89,6.4,3.4,6.25,5.7,0,0,3-4.5-1.4-7.32S502.08,783.09,503.37,781.42Z"/><path class="cls-5" d="M511.24,786c-3.26-3.42-4.17-5.53-2.77-8.27,0,0-9.75,3.75-.13,10.41,3.45,2.38,2.88,4.81,2.88,4.9A4.76,4.76,0,0,0,511.24,786Z"/><text class="cls-10" transform="translate(518.6 792.36)"><tspan class="cls-11">N</tspan><tspan class="cls-12" x="9.54" y="0">O</tspan><tspan class="cls-13" x="19.08" y="0">D</tspan><tspan x="27.72" y="0">E</tspan></text><path class="cls-8" d="M598.61,671.93c-20.42,0-41.55,4.63-41.55,12.38v98.05A4.65,4.65,0,0,0,558,785a8.34,8.34,0,0,0,1,1.17c5.28,5.1,21.22,8.53,39.65,8.53s34.39-3.43,39.66-8.52a8,8,0,0,0,1-1.19,4.6,4.6,0,0,0,.89-2.67V684.31C640.18,676.56,619,671.93,598.61,671.93Z"/><path class="cls-5" d="M627.09,674.16c-7.71-2.09-18.09-3.29-28.48-3.29s-20.76,1.2-28.47,3.29c-9,2.45-13.8,5.93-13.8,10.06v32.85a5.59,5.59,0,0,0,1.08,3.27,8.29,8.29,0,0,0,1.14,1.33c5.42,5.24,21.52,8.76,40.05,8.76s34.65-3.52,40.07-8.76a8.21,8.21,0,0,0,1.14-1.32,5.64,5.64,0,0,0,1.08-3.28V684.22C640.9,680.09,636.12,676.61,627.09,674.16Zm9.62,44a4.89,4.89,0,0,1-.65.76c-4.63,4.47-20.37,7.71-37.45,7.71s-32.8-3.24-37.43-7.7a4.9,4.9,0,0,1-.65-.77,1.89,1.89,0,0,1-.39-1.09v-27a20.54,20.54,0,0,0,2.82,1.61l0,0c.51.25,1,.49,1.61.72l.15.06c.54.22,1.11.44,1.71.65l.21.07q.75.27,1.56.51l.48.16,1.55.44.71.19,1.56.38.91.21,1.56.33,1,.2,1.25.22,1.43.24,1.17.18,1.53.21,1.34.17,1.2.14,1.8.18.92.08c.72.07,1.46.12,2.19.17l.79.06,2.41.13.6,0c.87,0,1.76.07,2.65.09h.35c1,0,2,0,2.93,0s2,0,2.93,0h.36q1.33,0,2.64-.09l.61,0,2.4-.13.79-.06c.74,0,1.47-.1,2.19-.17l.93-.08,1.76-.18,1.25-.14,1.31-.17,1.56-.22,1.15-.17,1.45-.24,1.24-.22,1-.2,1.56-.33.9-.21c.53-.12,1.06-.25,1.57-.39l.68-.18c.56-.15,1.1-.3,1.63-.46l.4-.13c.56-.17,1.1-.35,1.62-.53l.17-.06c.61-.21,1.19-.43,1.75-.66l.1,0c.58-.24,1.13-.49,1.65-.74h0a20.24,20.24,0,0,0,2.84-1.62v27A1.89,1.89,0,0,1,636.71,718.16Zm-38.1-43.49c23.85,0,38.49,5.56,38.49,9.55a2.07,2.07,0,0,1-.39,1.11c-1.67,2.46-7.64,5-16.44,6.61h-.08c-.32.07-.66.12-1,.18l-1,.18h0a124.23,124.23,0,0,1-16.24,1.43h-.55l-1,0H596.9l-1,0h-.55a122,122,0,0,1-16.2-1.43H579l-1-.16L577,692h0c-8.8-1.63-14.77-4.15-16.44-6.61a2,2,0,0,1-.4-1.11C560.14,680.23,574.78,674.67,598.61,674.67Z"/><path class="cls-5" d="M639.12,715.17a1.76,1.76,0,0,0-1.76,1.75,2.13,2.13,0,0,1-.41,1.18c-1.51,2.24-6.33,4.43-13.22,6a125.44,125.44,0,0,1-50.23,0c-6.88-1.57-11.69-3.76-13.2-6a2.13,2.13,0,0,1-.42-1.19,1.76,1.76,0,0,0-3.52,0v65.64a5.55,5.55,0,0,0,1.06,3.2,9,9,0,0,0,1.12,1.3c2.71,2.61,8,4.82,15.26,6.39a131.64,131.64,0,0,0,49.63,0c7.28-1.57,12.56-3.77,15.26-6.38a9.26,9.26,0,0,0,1.14-1.32,5.55,5.55,0,0,0,1-3.19V716.92A1.76,1.76,0,0,0,639.12,715.17Zm-1.76,67.39a2.05,2.05,0,0,1-.41,1.17,5.3,5.3,0,0,1-.68.79h0c-2.24,2.17-7.18,4.13-13.9,5.54a128,128,0,0,1-47.48,0c-6.73-1.41-11.67-3.38-13.91-5.54h0a5,5,0,0,1-.66-.78,2,2,0,0,1-.42-1.18v-60c2.88,2.08,7.49,3.86,13.5,5.19a131.71,131.71,0,0,0,50.47,0c6-1.33,10.63-3.11,13.51-5.19Z"/><path class="cls-9" d="M570.48,713.58v-9.15l1.8.42c.88,1.47,1.75,2.93,2.63,4.38l2.63-3.33,1.82.32v9.15l-1.64-.28v-6.77q-1.41,1.78-2.81,3.52c-.94-1.54-1.87-3.09-2.81-4.65V714Z"/><path class="cls-9" d="M581.67,715.73v-9.16q3,.43,6.1.72v1.48c-1.49-.13-3-.3-4.45-.49v2.32c1.28.16,2.57.31,3.86.44v1.55c-1.29-.13-2.58-.27-3.86-.44v2.32c1.48.19,3,.36,4.45.5v1.48Q584.71,716.17,581.67,715.73Z"/><path class="cls-9" d="M589.66,716.61v-9.16l1.84.13,2.66,4,2.67-3.75,1.84,0V717H597v-6.77q-1.43,2-2.85,4c-.95-1.38-1.89-2.78-2.84-4.19v6.77Z"/><path class="cls-9" d="M600.68,712.39a6.58,6.58,0,0,1,.27-2,4.07,4.07,0,0,1,.67-1.37,3.78,3.78,0,0,1,1-.85,4.47,4.47,0,0,1,1.14-.46,6.55,6.55,0,0,1,1.21-.16,6.8,6.8,0,0,1,1.21,0,3.72,3.72,0,0,1,1.14.35,3.29,3.29,0,0,1,1,.75A3.53,3.53,0,0,1,609,710a6.4,6.4,0,0,1,.27,2,6.79,6.79,0,0,1-.27,2,4,4,0,0,1-.68,1.41,3.58,3.58,0,0,1-1,.89,4,4,0,0,1-1.14.5,6.54,6.54,0,0,1-1.21.17,6.8,6.8,0,0,1-1.21-.05,3.86,3.86,0,0,1-1.14-.39,3.28,3.28,0,0,1-1-.8,3.73,3.73,0,0,1-.67-1.34A6.56,6.56,0,0,1,600.68,712.39Zm1.66,0a5.74,5.74,0,0,0,.21,1.7,1.9,1.9,0,0,0,.61,1,2.23,2.23,0,0,0,.82.4,3.82,3.82,0,0,0,1,.07,5.74,5.74,0,0,0,.82-.1,2.46,2.46,0,0,0,.7-.3,1.7,1.7,0,0,0,.6-.59,3.39,3.39,0,0,0,.38-1,6,6,0,0,0,.15-1.43,5.64,5.64,0,0,0-.21-1.68,1.71,1.71,0,0,0-.61-.95,2.16,2.16,0,0,0-.82-.38,4,4,0,0,0-1-.05,4.42,4.42,0,0,0-.8.09,2.48,2.48,0,0,0-.71.29,1.7,1.7,0,0,0-.6.56,3.46,3.46,0,0,0-.38.95A5.89,5.89,0,0,0,602.34,712.34Z"/><path class="cls-9" d="M611.27,716.37v-9.15c1.18-.12,2.35-.25,3.52-.41a3.55,3.55,0,0,1,2.51.42,2.34,2.34,0,0,1,.89,2,3.09,3.09,0,0,1-2,3c.8,1.06,1.6,2.1,2.4,3.14l-2,.31-2.18-2.94-1.49.18v3.23Zm1.65-4.91,1.83-.22a2.57,2.57,0,0,0,1.31-.48,1.4,1.4,0,0,0,.48-1.2c0-.56-.16-.92-.48-1.07a2.31,2.31,0,0,0-1.31-.11l-1.83.22Z"/><path class="cls-9" d="M619,706.19c.66-.1,1.32-.22,2-.34l2.41,3.26q1.2-2.1,2.39-4.23c.66-.14,1.31-.3,2-.45q-1.77,3-3.54,6v3.93l-1.64.33v-3.93Q620.81,708.52,619,706.19Z"/><path class="cls-9" d="M584.42,761.79v-9.15c1,.25,2.09.47,3.13.66a4.78,4.78,0,0,1,4.32,5.24,4.32,4.32,0,0,1-1.09,3.27,3.59,3.59,0,0,1-3.23.65C586.51,762.26,585.46,762,584.42,761.79Zm1.63-1.11,1.5.3a2.23,2.23,0,0,0,2.05-.38,3.25,3.25,0,0,0,.62-2.27,4.12,4.12,0,0,0-.62-2.48,3.24,3.24,0,0,0-2.05-1.07l-1.5-.29Z"/><path class="cls-9" d="M593.9,763.31v-9.16l1.66.11v9.16Z"/><path class="cls-9" d="M597.54,756.91a2.27,2.27,0,0,1,.94-2,4.14,4.14,0,0,1,2.35-.7,5.48,5.48,0,0,1,2.47.51v1.61a4.17,4.17,0,0,0-2.28-.57,2.92,2.92,0,0,0-1.29.29.87.87,0,0,0-.53.83.79.79,0,0,0,.48.71,5.47,5.47,0,0,0,1.17.41,14.18,14.18,0,0,1,1.38.38,2.46,2.46,0,0,1,1.17.86,2.67,2.67,0,0,1,.48,1.67,2.37,2.37,0,0,1-.92,1.87,3.69,3.69,0,0,1-2.26.8,5.48,5.48,0,0,1-3-.75v-1.67a4.09,4.09,0,0,0,2.66.87c1.27,0,1.9-.42,1.9-1.12a1,1,0,0,0-.34-.77,2.09,2.09,0,0,0-.87-.43c-.35-.09-.73-.2-1.13-.33a10.64,10.64,0,0,1-1.13-.44,2.11,2.11,0,0,1-.87-.76A2.26,2.26,0,0,1,597.54,756.91Z"/><path class="cls-9" d="M605.76,763.13V754l1.65-.21v3.88q1.73-2.19,3.44-4.45c.74-.15,1.47-.3,2.19-.47q-1.81,2.43-3.66,4.76,2,2.22,4,4.3c-.68.17-1.35.32-2,.46q-1.53-1.68-3.07-3.42l-.91,1.13v3Z"/><path class="cls-5" d="M572.5,813.1s-2.73,4.13,2.62,5c.53.07,4.41.47,5.41,1.74,0,0-.09-2.19-3.24-3.49S572.84,814.71,572.5,813.1Z"/><path class="cls-5" d="M575.15,804.22s-7.62,4.64-.44,9.26c1.38.9,6.39,3.41,6.25,5.71,0,0,3-4.5-1.4-7.32S573.85,805.89,575.15,804.22Z"/><path class="cls-5" d="M583,808.76c-3.27-3.42-4.17-5.53-2.78-8.27,0,0-9.75,3.75-.12,10.41,3.45,2.38,2.87,4.81,2.87,4.9A4.76,4.76,0,0,0,583,808.76Z"/><text class="cls-10" transform="translate(590.37 815.16)"><tspan class="cls-11">N</tspan><tspan class="cls-12" x="9.54" y="0">O</tspan><tspan class="cls-13" x="19.08" y="0">D</tspan><tspan x="27.72" y="0">E</tspan></text><rect class="cls-14" x="301.23" y="296.85" width="582.34" height="148.26" rx="7.66"/><path class="cls-2" d="M327.64,414.18l5.92-14.84h2l5.9,14.84h-2.23l-1.6-4.16h-6.19l-1.6,4.16Zm4.56-6.1h4.71l-2.35-6.16Z"/><path class="cls-2" d="M343.76,418.41V406.48a4.37,4.37,0,0,1,.06-.72,4,4,0,0,1,.34-.89,3,3,0,0,1,.72-1,3.89,3.89,0,0,1,1.36-.71,6.82,6.82,0,0,1,2.12-.3,6.89,6.89,0,0,1,1.21.11,4.33,4.33,0,0,1,1.29.49,4,4,0,0,1,1.21,1,4.86,4.86,0,0,1,.86,1.71,8.85,8.85,0,0,1,.34,2.55,7.87,7.87,0,0,1-.45,2.82,3.72,3.72,0,0,1-1.25,1.73,5.42,5.42,0,0,1-1.61.81,6.39,6.39,0,0,1-1.81.24,8.79,8.79,0,0,1-2.36-.32v4.38Zm2-6.33a6.46,6.46,0,0,0,2.36.45,4.85,4.85,0,0,0,1.17-.13,2.86,2.86,0,0,0,1-.5,2.33,2.33,0,0,0,.71-1.16,6.9,6.9,0,0,0,.25-2,8,8,0,0,0-.25-2.15,2.49,2.49,0,0,0-.7-1.24,2.83,2.83,0,0,0-.91-.54,3.44,3.44,0,0,0-1-.14c-1.71,0-2.57.56-2.57,1.66Z"/><path class="cls-2" d="M356,418.41V406.48a3.51,3.51,0,0,1,.07-.72,3.44,3.44,0,0,1,.33-.89,3,3,0,0,1,.72-1,3.86,3.86,0,0,1,1.37-.71,6.71,6.71,0,0,1,2.11-.3,6.89,6.89,0,0,1,1.21.11,4.33,4.33,0,0,1,1.29.49,4,4,0,0,1,1.21,1,4.86,4.86,0,0,1,.86,1.71,8.85,8.85,0,0,1,.34,2.55,7.87,7.87,0,0,1-.45,2.82,3.72,3.72,0,0,1-1.25,1.73,5.42,5.42,0,0,1-1.61.81,6.39,6.39,0,0,1-1.81.24A8.79,8.79,0,0,1,358,414v4.38Zm2-6.33a6.46,6.46,0,0,0,2.36.45,4.85,4.85,0,0,0,1.17-.13,2.77,2.77,0,0,0,1-.5,2.33,2.33,0,0,0,.71-1.16,6.9,6.9,0,0,0,.25-2,8,8,0,0,0-.25-2.15,2.49,2.49,0,0,0-.7-1.24,2.9,2.9,0,0,0-.9-.54,3.56,3.56,0,0,0-1-.14c-1.71,0-2.57.56-2.57,1.66Z"/><path class="cls-2" d="M368.54,414.18V398.85h2v15.33Z"/><path class="cls-2" d="M374.24,401.36v-2.15h2.16v2.15Zm.06,12.82V403.07h2v11.11Z"/><path class="cls-2" d="M380.58,412.88a7.52,7.52,0,0,1,0-8.51,4.9,4.9,0,0,1,3.85-1.47,8.92,8.92,0,0,1,3.27.62v1.94a6.94,6.94,0,0,0-3.06-.73h0a3.42,3.42,0,0,0-2.4.79c-.58.52-.87,1.56-.87,3.11a6.89,6.89,0,0,0,.26,2,2.33,2.33,0,0,0,.76,1.2,2.78,2.78,0,0,0,1,.53,5.39,5.39,0,0,0,1.23.13,7.2,7.2,0,0,0,3.1-.71v1.92a8.91,8.91,0,0,1-3.27.61A4.9,4.9,0,0,1,380.58,412.88Z"/><path class="cls-2" d="M389.75,410.67a2.93,2.93,0,0,1,1.39-2.57,6.86,6.86,0,0,1,3.84-.93,14.7,14.7,0,0,1,2,.13,2.75,2.75,0,0,0-.77-2,3.43,3.43,0,0,0-2.29-.61,9.52,9.52,0,0,0-3.07.56V403.5a9.3,9.3,0,0,1,3.35-.6,5,5,0,0,1,3.59,1.2,4.54,4.54,0,0,1,1.26,3.45v3.21a3.42,3.42,0,0,1-.07.71,4,4,0,0,1-.34.9,3,3,0,0,1-.72,1,3.79,3.79,0,0,1-1.37.71,6.82,6.82,0,0,1-2.12.3,6.63,6.63,0,0,1-2.15-.31,4.32,4.32,0,0,1-1.4-.72,3.21,3.21,0,0,1-.74-1,3.4,3.4,0,0,1-.34-.94A3.68,3.68,0,0,1,389.75,410.67Zm2,0c0,1.25.89,1.88,2.67,1.88h0c1.68,0,2.52-.6,2.52-1.81v-1.79a13.08,13.08,0,0,0-1.93-.14,6,6,0,0,0-.93.08,8.42,8.42,0,0,0-1.06.25,2.13,2.13,0,0,0-.93.58A1.36,1.36,0,0,0,391.78,410.65Z"/><path class="cls-2" d="M400.66,404.81v-1.74h1.93v-3.29h2v3.29h2.95v1.74h-2.95v6.42c0,.86.54,1.3,1.64,1.3h0a2.4,2.4,0,0,0,1.29-.33V414a3.94,3.94,0,0,1-1.52.31H406a3.79,3.79,0,0,1-.86-.1,5.1,5.1,0,0,1-1.09-.38,2.24,2.24,0,0,1-1.05-1,3.4,3.4,0,0,1-.42-1.76v-6.3Z"/><path class="cls-2" d="M410.26,401.36v-2.15h2.17v2.15Zm.07,12.82V403.07h2v11.11Z"/><path class="cls-2" d="M415.76,411.5a9.15,9.15,0,0,1,0-5.73A3.91,3.91,0,0,1,417,404a5.34,5.34,0,0,1,1.65-.83,7,7,0,0,1,3.7,0A5.23,5.23,0,0,1,424,404a3.84,3.84,0,0,1,1.28,1.77,9,9,0,0,1,0,5.73,3.84,3.84,0,0,1-1.28,1.77,5.26,5.26,0,0,1-1.65.84,7.25,7.25,0,0,1-3.7,0,5.37,5.37,0,0,1-1.65-.84A3.91,3.91,0,0,1,415.76,411.5Zm1.85-4.91a7.34,7.34,0,0,0-.24,2.05,7.21,7.21,0,0,0,.24,2,2.38,2.38,0,0,0,.74,1.2,2.67,2.67,0,0,0,1,.52,5.27,5.27,0,0,0,1.21.13,5.15,5.15,0,0,0,1.21-.13,2.79,2.79,0,0,0,1-.52,2.37,2.37,0,0,0,.73-1.2,7.21,7.21,0,0,0,.24-2,7.34,7.34,0,0,0-.24-2.05,2.34,2.34,0,0,0-.73-1.19,2.64,2.64,0,0,0-1-.52,4.66,4.66,0,0,0-1.21-.13,4.77,4.77,0,0,0-1.21.13,2.53,2.53,0,0,0-1,.52A2.35,2.35,0,0,0,417.61,406.59Z"/><path class="cls-2" d="M428.35,414.18V404a10.6,10.6,0,0,1,4.74-1.14,4.71,4.71,0,0,1,3.3,1.1,3.9,3.9,0,0,1,1.2,3v7.16h-2.08v-7.32a2.24,2.24,0,0,0-.5-1.55,2.69,2.69,0,0,0-2-.56,8.49,8.49,0,0,0-2.62.4v9Z"/><path class="cls-2" d="M440.36,406.21a3.16,3.16,0,0,1,1-2.34,4.13,4.13,0,0,1,3-1,6.57,6.57,0,0,1,3,.73v1.76a6.56,6.56,0,0,0-2.72-.66c-1.47,0-2.21.47-2.21,1.42,0,.31.2.56.59.77a6.7,6.7,0,0,0,1.41.54c.55.16,1.1.34,1.65.56a3.34,3.34,0,0,1,1.42,1.12,3.27,3.27,0,0,1-.42,4.24,4.34,4.34,0,0,1-3.12,1,6.56,6.56,0,0,1-3.2-.78v-1.86a6.09,6.09,0,0,0,3.07.82h0a2.81,2.81,0,0,0,1.62-.39,1.15,1.15,0,0,0,.56-1,1.29,1.29,0,0,0-.58-1.1,4.54,4.54,0,0,0-1.42-.65c-.56-.15-1.11-.33-1.67-.52a3.3,3.3,0,0,1-1.41-.95A2.53,2.53,0,0,1,440.36,406.21Z"/><path class="cls-8" d="M388.06,387.62a1.78,1.78,0,0,1-.89-.24l-26-6.27a1.76,1.76,0,0,1-.88-1.53V335.52a1.77,1.77,0,0,1,.88-1.53l26-5.64a1.8,1.8,0,0,1,1.77,0L415,334a1.77,1.77,0,0,1,.88,1.53v44.06a1.76,1.76,0,0,1-.88,1.53l-26,6.27A1.77,1.77,0,0,1,388.06,387.62Z"/><path class="cls-4" d="M388.06,388.8c-.31,0-27.31-6.39-27.31-6.39a1.8,1.8,0,0,1-.9-1.55V334.21a1.8,1.8,0,0,1,.9-1.55s27-5.78,27.31-5.78,27.3,5.78,27.3,5.78a1.78,1.78,0,0,1,.9,1.55v46.65a1.78,1.78,0,0,1-.9,1.55S388.36,388.8,388.06,388.8Zm-24.63-9L388.06,385l24.62-5.12V335.24l-24.62-5.35-24.63,5.35Z"/><path class="cls-4" d="M388.06,342.52a1.81,1.81,0,0,1-.9-.24l-26.41-5.55a1.79,1.79,0,1,1,1.79-3.09l25.52,5,25.52-5a1.78,1.78,0,1,1,1.78,3.09L389,342.28A1.8,1.8,0,0,1,388.06,342.52Z"/><path class="cls-4" d="M388.06,387.5a1.79,1.79,0,0,1-1.79-1.79V341.29a1.79,1.79,0,0,1,3.58,0v44.42A1.79,1.79,0,0,1,388.06,387.5Z"/><path class="cls-2" d="M495.52,403.35a4,4,0,0,1,1.26-3,5.5,5.5,0,0,1,3.92-1.22,8.43,8.43,0,0,1,3.83.91v2a6.86,6.86,0,0,0-3.58-1q-3.36,0-3.36,2.25a1.31,1.31,0,0,0,.59,1,4.74,4.74,0,0,0,1.46.72c.58.18,1.21.41,1.9.69s1.32.59,1.91.91a4.1,4.1,0,0,1,1.45,1.42,4,4,0,0,1,.59,2.17,3.5,3.5,0,0,1-1.43,3,6.35,6.35,0,0,1-3.93,1.07,10,10,0,0,1-4.42-1.06v-2.13a8,8,0,0,0,4.23,1.26c2.31,0,3.47-.7,3.47-2.11a2.16,2.16,0,0,0-.58-1.53,3.25,3.25,0,0,0-1.45-.92l-1.91-.65c-.7-.24-1.33-.49-1.91-.74a3.7,3.7,0,0,1-1.46-1.18A3.21,3.21,0,0,1,495.52,403.35Z"/><path class="cls-2" d="M507.82,408.76q0-5.86,4.9-5.86h0a4.61,4.61,0,0,1,3.56,1.46,5.58,5.58,0,0,1,1.33,3.89,15.11,15.11,0,0,1-.07,1.53h-7.67a2.88,2.88,0,0,0,3.13,2.86,8.13,8.13,0,0,0,3.84-.84v1.85a10,10,0,0,1-3.88.72h-.07a6.42,6.42,0,0,1-1.8-.24,5.19,5.19,0,0,1-1.61-.81,3.75,3.75,0,0,1-1.23-1.74A7.87,7.87,0,0,1,507.82,408.76Zm2-.81h5.7a5.22,5.22,0,0,0-.19-1.06,4.69,4.69,0,0,0-.44-1,2.11,2.11,0,0,0-.87-.83,3.21,3.21,0,0,0-3.4.41A4.18,4.18,0,0,0,509.86,408Z"/><path class="cls-2" d="M520.25,414.18V404a14.5,14.5,0,0,1,5.41-1.11v1.87a13.76,13.76,0,0,0-3.38.47v8.94Z"/><path class="cls-2" d="M527.4,403.07h2.18l3.11,8.66,3.14-8.66H538l-4.27,11.11h-2.09Z"/><path class="cls-2" d="M540.5,401.36v-2.15h2.16v2.15Zm.06,12.82V403.07h2v11.11Z"/><path class="cls-2" d="M546.84,412.88a7.52,7.52,0,0,1,0-8.51,4.9,4.9,0,0,1,3.85-1.47,8.92,8.92,0,0,1,3.27.62v1.94a6.94,6.94,0,0,0-3.06-.73h0a3.42,3.42,0,0,0-2.4.79c-.58.52-.87,1.56-.87,3.11a6.89,6.89,0,0,0,.26,2,2.33,2.33,0,0,0,.76,1.2,2.78,2.78,0,0,0,1,.53,5.39,5.39,0,0,0,1.23.13,7.2,7.2,0,0,0,3.1-.71v1.92a8.91,8.91,0,0,1-3.27.61A4.9,4.9,0,0,1,546.84,412.88Z"/><path class="cls-2" d="M556,408.76q0-5.86,4.89-5.86h0a4.61,4.61,0,0,1,3.56,1.46,5.58,5.58,0,0,1,1.33,3.89c0,.53,0,1-.07,1.53H558a2.88,2.88,0,0,0,3.13,2.86,8.06,8.06,0,0,0,3.83-.84v1.85a9.89,9.89,0,0,1-3.87.72H561a6.42,6.42,0,0,1-1.8-.24,5.19,5.19,0,0,1-1.61-.81,3.75,3.75,0,0,1-1.23-1.74A7.87,7.87,0,0,1,556,408.76Zm2-.81h5.7a5.22,5.22,0,0,0-.19-1.06,4.69,4.69,0,0,0-.44-1,2.11,2.11,0,0,0-.87-.83,2.7,2.7,0,0,0-1.35-.31,2.63,2.63,0,0,0-2.05.72A4.18,4.18,0,0,0,558,408Z"/><path class="cls-2" d="M567.88,406.21a3.14,3.14,0,0,1,1-2.34,4.09,4.09,0,0,1,3-1,6.51,6.51,0,0,1,3,.73v1.76a6.56,6.56,0,0,0-2.72-.66c-1.47,0-2.2.47-2.2,1.42,0,.31.19.56.58.77a6.81,6.81,0,0,0,1.42.54c.55.16,1.1.34,1.65.56a3.46,3.46,0,0,1,1.42,1.12,3.27,3.27,0,0,1-.42,4.24,4.34,4.34,0,0,1-3.12,1,6.57,6.57,0,0,1-3.21-.78v-1.86a6.13,6.13,0,0,0,3.08.82h0a2.87,2.87,0,0,0,1.63-.39,1.15,1.15,0,0,0,.56-1,1.3,1.3,0,0,0-.59-1.1,4.48,4.48,0,0,0-1.41-.65c-.56-.15-1.12-.33-1.67-.52a3.19,3.19,0,0,1-1.41-.95A2.54,2.54,0,0,1,567.88,406.21Z"/><path class="cls-8" d="M535.31,387.2a1.77,1.77,0,0,1-.88-.24l-26-6.27a1.76,1.76,0,0,1-.88-1.52V335.1a1.78,1.78,0,0,1,.88-1.53l26-5.64a1.78,1.78,0,0,1,1.76,0l26,5.64a1.78,1.78,0,0,1,.88,1.53v44.07a1.76,1.76,0,0,1-.88,1.52l-26,6.27A1.71,1.71,0,0,1,535.31,387.2Z"/><path class="cls-4" d="M535.31,388.38C535,388.38,508,382,508,382a1.75,1.75,0,0,1-.9-1.54V333.79a1.78,1.78,0,0,1,.9-1.55s27-5.78,27.3-5.78,27.31,5.78,27.31,5.78a1.78,1.78,0,0,1,.9,1.55v46.66a1.75,1.75,0,0,1-.9,1.54S535.62,388.38,535.31,388.38Zm-24.62-9,24.62,5.12,24.63-5.12V334.82l-24.63-5.35-24.62,5.35Z"/><path class="cls-4" d="M535.31,342.1a1.8,1.8,0,0,1-.89-.24L508,336.32a1.79,1.79,0,1,1,1.78-3.1l25.52,5,25.53-5a1.79,1.79,0,1,1,1.78,3.1l-26.41,5.54A1.81,1.81,0,0,1,535.31,342.1Z"/><path class="cls-4" d="M535.31,387.08a1.78,1.78,0,0,1-1.78-1.78V340.87a1.79,1.79,0,1,1,3.57,0V385.3A1.79,1.79,0,0,1,535.31,387.08Z"/><path class="cls-2" d="M628.47,414.18l5.92-14.84h2l5.9,14.84h-2.23L638.49,410h-6.2l-1.59,4.16Zm4.56-6.1h4.72l-2.36-6.16Z"/><path class="cls-2" d="M644.83,414.18V399.34h5.36a5.51,5.51,0,0,1,3.83,1.22,5.06,5.06,0,0,1,0,6.9,5.56,5.56,0,0,1-3.83,1.22h-3.28v5.5Zm2.08-7.33H650a3.49,3.49,0,0,0,2.65-.76,3.06,3.06,0,0,0,.67-2.06,3,3,0,0,0-.67-2.06,3.46,3.46,0,0,0-2.65-.76h-3.08Z"/><path class="cls-2" d="M658.11,414.18V399.34h2.07v14.84Z"/><path class="cls-2" d="M663.19,406.21a3.14,3.14,0,0,1,1-2.34,4.09,4.09,0,0,1,3-1,6.51,6.51,0,0,1,3,.73v1.76a6.56,6.56,0,0,0-2.72-.66c-1.47,0-2.2.47-2.2,1.42,0,.31.19.56.58.77a6.81,6.81,0,0,0,1.42.54c.55.16,1.1.34,1.65.56a3.46,3.46,0,0,1,1.42,1.12,3.27,3.27,0,0,1-.42,4.24,4.34,4.34,0,0,1-3.12,1,6.57,6.57,0,0,1-3.21-.78v-1.86a6.13,6.13,0,0,0,3.08.82h0a2.87,2.87,0,0,0,1.63-.39,1.15,1.15,0,0,0,.56-1,1.3,1.3,0,0,0-.59-1.1,4.48,4.48,0,0,0-1.41-.65c-.56-.15-1.12-.33-1.67-.52a3.19,3.19,0,0,1-1.41-.95A2.54,2.54,0,0,1,663.19,406.21Z"/><path class="cls-8" d="M649.89,386.78a1.81,1.81,0,0,1-.88-.23l-26-6.28a1.74,1.74,0,0,1-.89-1.52V334.68a1.77,1.77,0,0,1,.89-1.53l26-5.63a1.73,1.73,0,0,1,1.76,0l26,5.63a1.76,1.76,0,0,1,.88,1.53v44.07a1.74,1.74,0,0,1-.88,1.52l-26,6.28A1.83,1.83,0,0,1,649.89,386.78Z"/><path class="cls-4" d="M649.89,388c-.31,0-27.31-6.38-27.31-6.38a1.79,1.79,0,0,1-.89-1.55V333.37a1.79,1.79,0,0,1,.89-1.55s27-5.78,27.31-5.78,27.31,5.78,27.31,5.78a1.79,1.79,0,0,1,.89,1.55V380a1.79,1.79,0,0,1-.89,1.55S650.2,388,649.89,388Zm-24.63-9,24.63,5.11L674.51,379V334.4l-24.62-5.34-24.63,5.34Z"/><path class="cls-4" d="M649.89,341.69a1.75,1.75,0,0,1-.89-.24l-26.42-5.55a1.79,1.79,0,0,1,1.79-3.1l25.52,5,25.52-5a1.79,1.79,0,0,1,1.79,3.1l-26.42,5.55A1.75,1.75,0,0,1,649.89,341.69Z"/><path class="cls-4" d="M649.89,386.66a1.78,1.78,0,0,1-1.79-1.78V340.45a1.79,1.79,0,0,1,3.58,0v44.43A1.78,1.78,0,0,1,649.89,386.66Z"/><path class="cls-2" d="M725.24,414.18V399.34H730a6.77,6.77,0,0,1,5.19,1.89,9.56,9.56,0,0,1,0,11.07,6.81,6.81,0,0,1-5.2,1.88Zm2.07-1.83h2.34a5.25,5.25,0,0,0,4-1.34,7.75,7.75,0,0,0,0-8.5,5.22,5.22,0,0,0-4-1.35h-2.34Z"/><path class="cls-2" d="M739.15,410.67a2.9,2.9,0,0,1,1.39-2.57,6.86,6.86,0,0,1,3.84-.93,14.65,14.65,0,0,1,2,.13,2.7,2.7,0,0,0-.76-2,3.45,3.45,0,0,0-2.29-.61,9.58,9.58,0,0,0-3.08.56V403.5a9.36,9.36,0,0,1,3.36-.6,5,5,0,0,1,3.58,1.2,4.51,4.51,0,0,1,1.27,3.45v3.21a3.42,3.42,0,0,1-.07.71,4,4,0,0,1-.34.9,3,3,0,0,1-.73,1,3.71,3.71,0,0,1-1.37.71,7.63,7.63,0,0,1-4.27,0,4.25,4.25,0,0,1-1.39-.72,3.41,3.41,0,0,1-.75-1,4.22,4.22,0,0,1-.34-.94A4.59,4.59,0,0,1,739.15,410.67Zm2,0c0,1.25.89,1.88,2.67,1.88h0c1.67,0,2.51-.6,2.51-1.81v-1.79a13,13,0,0,0-1.93-.14,6.26,6.26,0,0,0-.93.08,8.29,8.29,0,0,0-1,.25,2,2,0,0,0-.93.58A1.32,1.32,0,0,0,741.18,410.65Z"/><path class="cls-2" d="M750.05,404.81v-1.74H752v-3.29h2v3.29h3v1.74h-3v6.42c0,.86.55,1.3,1.64,1.3h0a2.38,2.38,0,0,0,1.29-.33V414a3.9,3.9,0,0,1-1.52.31h-.05a3.85,3.85,0,0,1-.86-.1,5.3,5.3,0,0,1-1.09-.38,2.34,2.34,0,0,1-1.05-1,3.5,3.5,0,0,1-.41-1.76v-6.3Z"/><path class="cls-2" d="M759,410.67a2.9,2.9,0,0,1,1.39-2.57,6.86,6.86,0,0,1,3.84-.93,14.8,14.8,0,0,1,2,.13,2.75,2.75,0,0,0-.77-2,3.43,3.43,0,0,0-2.29-.61,9.63,9.63,0,0,0-3.08.56V403.5a9.36,9.36,0,0,1,3.36-.6,5,5,0,0,1,3.59,1.2,4.54,4.54,0,0,1,1.26,3.45v3.21a3.42,3.42,0,0,1-.07.71,4,4,0,0,1-.34.9,3.15,3.15,0,0,1-.72,1,3.85,3.85,0,0,1-1.38.71,7.63,7.63,0,0,1-4.27,0,4.25,4.25,0,0,1-1.39-.72,3.21,3.21,0,0,1-.74-1,3.86,3.86,0,0,1-.35-.94A4.59,4.59,0,0,1,759,410.67Zm2,0c0,1.25.89,1.88,2.67,1.88h0c1.68,0,2.52-.6,2.52-1.81v-1.79a13.08,13.08,0,0,0-1.93-.14,6.28,6.28,0,0,0-.94.08,8.72,8.72,0,0,0-1,.25,2.13,2.13,0,0,0-.93.58A1.32,1.32,0,0,0,761.07,410.65Z"/><path class="cls-2" d="M778.54,403.35a4,4,0,0,1,1.27-3,5.48,5.48,0,0,1,3.92-1.22,8.39,8.39,0,0,1,3.82.91v2a6.82,6.82,0,0,0-3.57-1q-3.36,0-3.36,2.25a1.29,1.29,0,0,0,.59,1,4.63,4.63,0,0,0,1.46.72c.57.18,1.21.41,1.9.69a19.83,19.83,0,0,1,1.9.91,4.12,4.12,0,0,1,1.46,1.42,4,4,0,0,1,.59,2.17,3.5,3.5,0,0,1-1.43,3,6.38,6.38,0,0,1-3.94,1.07,10,10,0,0,1-4.41-1.06v-2.13a8,8,0,0,0,4.23,1.26c2.31,0,3.46-.7,3.47-2.11a2.17,2.17,0,0,0-.59-1.53,3.2,3.2,0,0,0-1.45-.92l-1.91-.65c-.69-.24-1.33-.49-1.91-.74a3.67,3.67,0,0,1-1.45-1.18A3.21,3.21,0,0,1,778.54,403.35Z"/><path class="cls-2" d="M789.6,404.81v-1.74h1.94v-3.29h2v3.29h2.95v1.74h-2.95v6.42c0,.86.54,1.3,1.64,1.3h0a2.38,2.38,0,0,0,1.29-.33V414a3.9,3.9,0,0,1-1.52.31h0a3.79,3.79,0,0,1-.86-.1,5.1,5.1,0,0,1-1.09-.38,2.24,2.24,0,0,1-1-1,3.4,3.4,0,0,1-.41-1.76v-6.3Z"/><path class="cls-2" d="M799.05,414.18V404a14.59,14.59,0,0,1,5.42-1.11v1.87a13.76,13.76,0,0,0-3.38.47v8.94Z"/><path class="cls-2" d="M806,408.76q0-5.86,4.9-5.86h0a4.61,4.61,0,0,1,3.56,1.46,5.53,5.53,0,0,1,1.33,3.89,15.11,15.11,0,0,1-.07,1.53h-7.67a2.88,2.88,0,0,0,3.13,2.86,8.13,8.13,0,0,0,3.84-.84v1.85a10,10,0,0,1-3.88.72h-.07a6.42,6.42,0,0,1-1.8-.24,5.19,5.19,0,0,1-1.61-.81,3.75,3.75,0,0,1-1.23-1.74A7.87,7.87,0,0,1,806,408.76Zm2-.81h5.7a4.62,4.62,0,0,0-.19-1.06,4.25,4.25,0,0,0-.44-1,2.15,2.15,0,0,0-.86-.83,2.75,2.75,0,0,0-1.35-.31,2.66,2.66,0,0,0-2.06.72A4.18,4.18,0,0,0,808.05,408Z"/><path class="cls-2" d="M817.86,410.67a2.93,2.93,0,0,1,1.39-2.57,6.86,6.86,0,0,1,3.84-.93,14.7,14.7,0,0,1,2,.13,2.75,2.75,0,0,0-.77-2,3.43,3.43,0,0,0-2.29-.61,9.52,9.52,0,0,0-3.07.56V403.5a9.3,9.3,0,0,1,3.35-.6,5,5,0,0,1,3.59,1.2,4.54,4.54,0,0,1,1.26,3.45v3.21a3.42,3.42,0,0,1-.07.71,3.58,3.58,0,0,1-.34.9,2.86,2.86,0,0,1-.72,1,3.79,3.79,0,0,1-1.37.71,6.82,6.82,0,0,1-2.12.3,6.63,6.63,0,0,1-2.15-.31,4.32,4.32,0,0,1-1.4-.72,3.21,3.21,0,0,1-.74-1,3.4,3.4,0,0,1-.34-.94A3.68,3.68,0,0,1,817.86,410.67Zm2,0c0,1.25.89,1.88,2.67,1.88h0c1.68,0,2.52-.6,2.52-1.81v-1.79a13.08,13.08,0,0,0-1.93-.14,6,6,0,0,0-.93.08,8.42,8.42,0,0,0-1.06.25,2.13,2.13,0,0,0-.93.58A1.36,1.36,0,0,0,819.89,410.65Z"/><path class="cls-2" d="M830.09,414.18V404a10.24,10.24,0,0,1,4.62-1.11,5,5,0,0,1,3,.84,10.86,10.86,0,0,1,4.07-.84A4.65,4.65,0,0,1,845,404a4,4,0,0,1,1.18,3.06v7.14h-2V406.9a2.4,2.4,0,0,0-.47-1.54,2.23,2.23,0,0,0-1.83-.59,7.88,7.88,0,0,0-3,.62,4.65,4.65,0,0,1,.26,1.59v7.2h-2v-7.26a2.22,2.22,0,0,0-.51-1.54,2.79,2.79,0,0,0-2.06-.57,8.94,8.94,0,0,0-2.42.34v9Z"/><path class="cls-2" d="M849,406.21a3.14,3.14,0,0,1,1-2.34,4.09,4.09,0,0,1,3-1,6.54,6.54,0,0,1,3,.73v1.76a6.56,6.56,0,0,0-2.72-.66c-1.47,0-2.21.47-2.21,1.42,0,.31.2.56.59.77a6.7,6.7,0,0,0,1.41.54c.55.16,1.11.34,1.66.56a3.46,3.46,0,0,1,1.42,1.12,3.27,3.27,0,0,1-.42,4.24,4.34,4.34,0,0,1-3.12,1,6.57,6.57,0,0,1-3.21-.78v-1.86a6.13,6.13,0,0,0,3.08.82h0a2.81,2.81,0,0,0,1.62-.39,1.12,1.12,0,0,0,.56-1,1.29,1.29,0,0,0-.58-1.1,4.54,4.54,0,0,0-1.42-.65c-.55-.15-1.11-.33-1.66-.52a3.19,3.19,0,0,1-1.41-.95A2.54,2.54,0,0,1,849,406.21Z"/><path class="cls-8" d="M790.47,386.36a1.7,1.7,0,0,1-.88-.23l-26-6.27a1.78,1.78,0,0,1-.88-1.53V334.26a1.76,1.76,0,0,1,.88-1.52l26-5.64a1.73,1.73,0,0,1,1.76,0l26,5.64a1.74,1.74,0,0,1,.88,1.52v44.07a1.76,1.76,0,0,1-.88,1.53l-26,6.27A1.75,1.75,0,0,1,790.47,386.36Z"/><path class="cls-4" d="M790.47,387.54c-.31,0-27.31-6.38-27.31-6.38a1.79,1.79,0,0,1-.89-1.55V333a1.79,1.79,0,0,1,.89-1.55s27-5.78,27.31-5.78,27.31,5.78,27.31,5.78a1.79,1.79,0,0,1,.89,1.55v46.66a1.79,1.79,0,0,1-.89,1.55S790.78,387.54,790.47,387.54Zm-24.63-9,24.63,5.11,24.62-5.11V334l-24.62-5.34L765.84,334Z"/><path class="cls-4" d="M790.47,341.27a1.81,1.81,0,0,1-.9-.24l-26.41-5.55a1.79,1.79,0,1,1,1.79-3.1l25.52,5,25.52-5a1.79,1.79,0,0,1,1.79,3.1L791.36,341A1.78,1.78,0,0,1,790.47,341.27Z"/><path class="cls-4" d="M790.47,386.25a1.79,1.79,0,0,1-1.79-1.79V340a1.79,1.79,0,0,1,3.58,0v44.43A1.79,1.79,0,0,1,790.47,386.25Z"/><path class="cls-6" d="M593,246.23v71.33a1.1,1.1,0,1,0,2.19,0V246.23a1.1,1.1,0,0,0-2.19,0Z"/><text class="cls-15" transform="translate(848.42 719.74)"><tspan class="cls-16">D<tspan class="cls-17" x="12.83" y="0">i</tspan><tspan class="cls-18" x="18.15" y="0">s</tspan><tspan class="cls-19" x="26.78" y="0">t</tspan><tspan class="cls-20" x="33.95" y="0">r</tspan><tspan class="cls-21" x="40.4" y="0">ib</tspan><tspan class="cls-20" x="56.31" y="0">ut</tspan><tspan x="74.63" y="0">e</tspan><tspan class="cls-22" x="85.14" y="0">d</tspan></tspan><tspan class="cls-23" x="0" y="24">M</tspan><tspan class="cls-24" x="15.34" y="24">u</tspan><tspan class="cls-16" x="26.14" y="24">l</tspan><tspan class="cls-25" x="31.56" y="24">t</tspan><tspan class="cls-22" x="38.59" y="24">i-</tspan><tspan class="cls-23" x="53.25" y="24">T</tspan><tspan class="cls-26" x="63.81" y="24">i</tspan><tspan class="cls-27" x="68.97" y="24">e</tspan><tspan x="79.52" y="24">r</tspan><tspan class="cls-28" x="0" y="48">S</tspan><tspan class="cls-29" x="10.42" y="48">t</tspan><tspan class="cls-30" x="17.77" y="48">o</tspan><tspan class="cls-31" x="28.67" y="48">r</tspan><tspan class="cls-32" x="35.17" y="48">a</tspan><tspan class="cls-20" x="45.31" y="48">g</tspan><tspan x="55.56" y="48">e</tspan></text></g></g></svg>