<svg xmlns="http://www.w3.org/2000/svg" viewBox="0 0 1264 1110"><defs><style>.cls-1{isolation:isolate;}.cls-2,.cls-8{fill:#efeeed;}.cls-2{mix-blend-mode:multiply;}.cls-3{fill:#010101;}.cls-4{fill:#e5282a;}.cls-5{fill:#fff;}.cls-6{fill:#575656;}.cls-7{fill:#777;}.cls-9{fill:#e52529;}.cls-10{fill:#020202;}</style></defs><g class="cls-1"><g id="Capa_1" data-name="Capa 1"><rect class="cls-2" x="354.22" y="728" width="555.56" height="74.56" rx="7.33"/><path class="cls-3" d="M512.46,775.34V753.82h3v21.52Z"/><path class="cls-3" d="M520.38,775.34V760.61a15.35,15.35,0,0,1,6.86-1.65,6.81,6.81,0,0,1,4.79,1.59,5.67,5.67,0,0,1,1.74,4.41v10.38h-3V764.73a3.23,3.23,0,0,0-.73-2.24c-.48-.55-1.46-.82-2.92-.82a12.31,12.31,0,0,0-3.79.58v13.09Z"/><path class="cls-3" d="M536.6,761.76v-2.52h2.81v-4.77h2.94v4.77h4.29v2.52h-4.29v9.31c0,1.25.79,1.88,2.38,1.88h0a3.5,3.5,0,0,0,1.88-.48v2.68a6,6,0,0,1-2.21.44h-.08a6.2,6.2,0,0,1-1.24-.14,7.87,7.87,0,0,1-1.59-.56,3.38,3.38,0,0,1-1.52-1.44,5,5,0,0,1-.59-2.56v-9.13Z"/><path class="cls-3" d="M549.52,767.48q0-8.49,7.1-8.49h0a6.65,6.65,0,0,1,5.16,2.11,8,8,0,0,1,1.93,5.65c0,.77,0,1.51-.09,2.21H552.53q.53,4.14,4.53,4.14a11.74,11.74,0,0,0,5.56-1.21v2.68a14.33,14.33,0,0,1-5.62,1h-.1a9.41,9.41,0,0,1-2.61-.35,7.77,7.77,0,0,1-2.33-1.18,5.34,5.34,0,0,1-1.79-2.51A11.34,11.34,0,0,1,549.52,767.48Zm3-1.17h8.27a7.66,7.66,0,0,0-.28-1.53,6.57,6.57,0,0,0-.64-1.49,3.11,3.11,0,0,0-1.26-1.2,4,4,0,0,0-2-.45,3.86,3.86,0,0,0-3,1A6.08,6.08,0,0,0,552.48,766.31Z"/><path class="cls-3" d="M566.89,767.16a9.64,9.64,0,0,1,1.69-6,6.1,6.1,0,0,1,5.2-2.23,7.66,7.66,0,0,1,4.7,1.32,4.43,4.43,0,0,1,1.77,3.77v12a6.32,6.32,0,0,1-.31,2,5.75,5.75,0,0,1-1,1.79,4.83,4.83,0,0,1-2.19,1.37,11.08,11.08,0,0,1-3.55.5,17.25,17.25,0,0,1-4.78-.68v-2.81a15.59,15.59,0,0,0,4.52.68,9.69,9.69,0,0,0,2.52-.27,2.3,2.3,0,0,0,1.79-1.66,3.91,3.91,0,0,0,.08-.93v-1.42a12.24,12.24,0,0,1-3.25.45,6.82,6.82,0,0,1-5.3-2A8.36,8.36,0,0,1,566.89,767.16Zm3,0c0,2.09.37,3.48,1.12,4.17a4.42,4.42,0,0,0,3.09,1,8.55,8.55,0,0,0,3.25-.62v-7.9a2.77,2.77,0,0,0-.06-.62,2.58,2.58,0,0,0-.36-.71,1.85,1.85,0,0,0-1.08-.69,7.06,7.06,0,0,0-2-.24,4.89,4.89,0,0,0-1.4.19,3.65,3.65,0,0,0-1.23.73,3.33,3.33,0,0,0-1,1.71A10.63,10.63,0,0,0,569.84,767.18Z"/><path class="cls-3" d="M584.63,775.34V760.6a21.1,21.1,0,0,1,7.84-1.61v2.71a20.64,20.64,0,0,0-4.9.68v13Z"/><path class="cls-3" d="M594.56,770.25a4.26,4.26,0,0,1,2-3.73,10,10,0,0,1,5.57-1.34,21.38,21.38,0,0,1,2.92.19,3.88,3.88,0,0,0-1.11-2.91,5,5,0,0,0-3.32-.89,13.79,13.79,0,0,0-4.46.81v-2.52a13.53,13.53,0,0,1,4.87-.87,7.28,7.28,0,0,1,5.2,1.74,6.58,6.58,0,0,1,1.83,5v4.65a6,6,0,0,1-.1,1,6.57,6.57,0,0,1-.49,1.32,4.51,4.51,0,0,1-1.06,1.4,5.48,5.48,0,0,1-2,1,11.11,11.11,0,0,1-6.19,0,5.84,5.84,0,0,1-2-1,4.29,4.29,0,0,1-1.08-1.42,5.26,5.26,0,0,1-.5-1.36A6.44,6.44,0,0,1,594.56,770.25Zm3,0q0,2.73,3.87,2.73h0c2.43,0,3.65-.88,3.65-2.62v-2.6a19.82,19.82,0,0,0-2.8-.2,9.2,9.2,0,0,0-1.35.11,13.32,13.32,0,0,0-1.52.37,3.09,3.09,0,0,0-1.36.83A2,2,0,0,0,597.51,770.22Z"/><path class="cls-3" d="M610.38,761.76v-2.52h2.8v-4.77h3v4.77h4.28v2.52h-4.28v9.31c0,1.25.79,1.88,2.38,1.88h0a3.47,3.47,0,0,0,1.87-.48v2.68a6,6,0,0,1-2.2.44h-.08a6.3,6.3,0,0,1-1.25-.14,7.61,7.61,0,0,1-1.58-.56,3.38,3.38,0,0,1-1.52-1.44,5,5,0,0,1-.6-2.56v-9.13Z"/><path class="cls-3" d="M624.3,756.75v-3.12h3.14v3.12Zm.1,18.59v-16.1h2.94v16.1Z"/><path class="cls-3" d="M632.27,771.46a13,13,0,0,1,0-8.31,5.67,5.67,0,0,1,1.86-2.57,7.67,7.67,0,0,1,2.39-1.2,10.16,10.16,0,0,1,5.36,0,7.72,7.72,0,0,1,2.4,1.2,5.65,5.65,0,0,1,1.85,2.57,13,13,0,0,1,0,8.31,5.65,5.65,0,0,1-1.85,2.57,7.75,7.75,0,0,1-2.4,1.21,10.44,10.44,0,0,1-5.36,0,7.71,7.71,0,0,1-2.39-1.21A5.67,5.67,0,0,1,632.27,771.46Zm2.69-7.12a10.29,10.29,0,0,0-.36,3,10.17,10.17,0,0,0,.36,3A3.41,3.41,0,0,0,636,772a4,4,0,0,0,1.43.75,7.25,7.25,0,0,0,1.75.19,7.4,7.4,0,0,0,1.76-.19,4.12,4.12,0,0,0,1.43-.75,3.47,3.47,0,0,0,1.06-1.74,10.56,10.56,0,0,0,.35-3,10.69,10.69,0,0,0-.35-3,3.4,3.4,0,0,0-1.06-1.73,3.81,3.81,0,0,0-1.43-.75,6.92,6.92,0,0,0-1.76-.19,6.78,6.78,0,0,0-1.75.19,3.73,3.73,0,0,0-1.43.75A3.33,3.33,0,0,0,635,764.34Z"/><path class="cls-3" d="M650.53,775.34V760.61a15.35,15.35,0,0,1,6.86-1.65,6.82,6.82,0,0,1,4.79,1.59,5.67,5.67,0,0,1,1.73,4.41v10.38h-3V764.73a3.28,3.28,0,0,0-.73-2.24c-.48-.55-1.46-.82-2.92-.82a12.31,12.31,0,0,0-3.79.58v13.09Z"/><path class="cls-3" d="M680.45,775.34V753.82h3v18.72h10.68v2.8Z"/><path class="cls-3" d="M696.61,770.25a4.26,4.26,0,0,1,2-3.73,10,10,0,0,1,5.57-1.34,21.38,21.38,0,0,1,2.92.19,3.88,3.88,0,0,0-1.11-2.91,5,5,0,0,0-3.32-.89,13.74,13.74,0,0,0-4.46.81v-2.52a13.53,13.53,0,0,1,4.87-.87,7.28,7.28,0,0,1,5.2,1.74,6.58,6.58,0,0,1,1.83,5v4.65a6,6,0,0,1-.1,1,6.12,6.12,0,0,1-.5,1.32,4.33,4.33,0,0,1-1,1.4,5.48,5.48,0,0,1-2,1,11.11,11.11,0,0,1-6.19,0,5.84,5.84,0,0,1-2-1,4.29,4.29,0,0,1-1.08-1.42,5.26,5.26,0,0,1-.5-1.36A6.44,6.44,0,0,1,696.61,770.25Zm2.95,0q0,2.73,3.87,2.73h0c2.43,0,3.65-.88,3.65-2.62v-2.6a19.82,19.82,0,0,0-2.8-.2,9.2,9.2,0,0,0-1.35.11,13.32,13.32,0,0,0-1.52.37,3.09,3.09,0,0,0-1.36.83A2,2,0,0,0,699.56,770.22Z"/><path class="cls-3" d="M712.27,759.24h3.17l4.33,12.06L724,759.24h3.17l-6.62,17.82c-1.14,3.08-2.81,4.63-5,4.63h0a10.73,10.73,0,0,1-2.25-.26v-2.66a7.56,7.56,0,0,0,1.81.27q2,0,3.23-3.71Z"/><path class="cls-3" d="M729.31,767.48q0-8.49,7.11-8.49h0a6.65,6.65,0,0,1,5.16,2.11,8.08,8.08,0,0,1,1.93,5.65c0,.77,0,1.51-.1,2.21H732.32q.54,4.14,4.54,4.14a11.8,11.8,0,0,0,5.56-1.21v2.68a14.38,14.38,0,0,1-5.63,1h-.09a9.43,9.43,0,0,1-2.62-.35,7.88,7.88,0,0,1-2.33-1.18,5.33,5.33,0,0,1-1.78-2.51A11.33,11.33,0,0,1,729.31,767.48Zm3-1.17h8.27a7.65,7.65,0,0,0-.27-1.53,7.1,7.1,0,0,0-.65-1.49,3.08,3.08,0,0,0-1.25-1.2,4,4,0,0,0-2-.45,3.89,3.89,0,0,0-3,1A6.22,6.22,0,0,0,732.27,766.31Z"/><path class="cls-3" d="M747.33,775.34V760.6a21.14,21.14,0,0,1,7.84-1.61v2.71a20.49,20.49,0,0,0-4.89.68v13Z"/><circle class="cls-4" cx="632" cy="532.13" r="79.45"/><path class="cls-5" d="M601.16,544.59s-15,22.67,14.44,27.28c2.88.37,24.19,2.58,29.69,9.56,0,0-.5-12-17.81-19.15S603.08,553.42,601.16,544.59Z"/><path class="cls-5" d="M615.73,495.76s-41.87,25.53-2.41,50.93c7.61,4.92,35.13,18.71,34.32,31.36,0,0,16.68-24.73-7.69-40.22C614.89,521.89,608.61,504.94,615.73,495.76Z"/><path class="cls-5" d="M659,520.74c-17.93-18.81-22.92-30.42-15.25-45.46,0,0-53.59,20.62-.69,57.19,19,13.11,15.78,26.46,15.79,26.95C661.82,556.33,676.92,539.54,659,520.74Z"/><path class="cls-6" d="M856.59,399.34a10,10,0,0,1,0-5,5.26,5.26,0,0,1,.83-1.73,4.21,4.21,0,0,1,1.25-1,4.9,4.9,0,0,1,1.44-.54,8.15,8.15,0,0,1,1.51-.14,9.54,9.54,0,0,1,3.55.69v1.5a8.27,8.27,0,0,0-3.36-.73,3.8,3.8,0,0,0-3,1.06,6.77,6.77,0,0,0,0,6.85,3.73,3.73,0,0,0,3,1.07,8.11,8.11,0,0,0,3.36-.73v1.5a9.55,9.55,0,0,1-3.55.7,8.15,8.15,0,0,1-1.51-.14,4.9,4.9,0,0,1-1.44-.54,4.21,4.21,0,0,1-1.25-1A5.26,5.26,0,0,1,856.59,399.34Z"/><path class="cls-6" d="M867.17,400.56a7,7,0,0,1,0-4.49,3,3,0,0,1,1-1.39,4.35,4.35,0,0,1,1.29-.65,5.59,5.59,0,0,1,2.89,0,4.28,4.28,0,0,1,1.3.65,3.11,3.11,0,0,1,1,1.39,7.18,7.18,0,0,1,0,4.49,3.08,3.08,0,0,1-1,1.38,4.1,4.1,0,0,1-1.3.66,5.59,5.59,0,0,1-2.89,0,4.16,4.16,0,0,1-1.29-.66A2.94,2.94,0,0,1,867.17,400.56Zm1.45-3.85a6.54,6.54,0,0,0,0,3.21,1.73,1.73,0,0,0,.57.93,2.14,2.14,0,0,0,.77.41,4.26,4.26,0,0,0,.95.1,4.16,4.16,0,0,0,.94-.1,2.27,2.27,0,0,0,.78-.41,1.85,1.85,0,0,0,.57-.93,6.87,6.87,0,0,0,0-3.21,1.85,1.85,0,0,0-.57-.93,2.11,2.11,0,0,0-.78-.41,3.66,3.66,0,0,0-.94-.1,3.74,3.74,0,0,0-.95.1,2,2,0,0,0-.77.41A1.73,1.73,0,0,0,868.62,396.71Z"/><path class="cls-6" d="M877.2,402.65v-8a8.09,8.09,0,0,1,3.61-.86,3.84,3.84,0,0,1,2.32.65,8.54,8.54,0,0,1,3.19-.65,3.58,3.58,0,0,1,2.57.86,3.08,3.08,0,0,1,.92,2.39v5.59h-1.59V397a1.87,1.87,0,0,0-.36-1.2,1.79,1.79,0,0,0-1.44-.46,6.19,6.19,0,0,0-2.33.48,3.47,3.47,0,0,1,.2,1.24v5.64H882.7V397a1.73,1.73,0,0,0-.4-1.21,2.21,2.21,0,0,0-1.61-.44,7.49,7.49,0,0,0-1.9.26v7.07Z"/><path class="cls-6" d="M892.31,406v-9.34a3.53,3.53,0,0,1,.05-.56,3.3,3.3,0,0,1,.26-.7,2.57,2.57,0,0,1,.57-.75,3,3,0,0,1,1.07-.55,5.17,5.17,0,0,1,1.65-.24,4.94,4.94,0,0,1,1,.09,3.43,3.43,0,0,1,1,.38,3.39,3.39,0,0,1,1,.77,3.86,3.86,0,0,1,.67,1.35,6.62,6.62,0,0,1,.26,2,6.07,6.07,0,0,1-.35,2.21,2.82,2.82,0,0,1-1,1.35,4.17,4.17,0,0,1-1.26.64,5.24,5.24,0,0,1-1.42.19,6.72,6.72,0,0,1-1.85-.26V406ZM893.9,401a5.19,5.19,0,0,0,1.85.35,4,4,0,0,0,.92-.1,2.12,2.12,0,0,0,.74-.39A1.82,1.82,0,0,0,898,400a5.27,5.27,0,0,0,.19-1.56,6.12,6.12,0,0,0-.19-1.68,1.91,1.91,0,0,0-.55-1,1.94,1.94,0,0,0-.7-.42,2.83,2.83,0,0,0-.81-.11c-1.34,0-2,.43-2,1.3Z"/><path class="cls-6" d="M901.92,399v-5h1.59v5.16a2.51,2.51,0,0,0,.51,1.74,2.54,2.54,0,0,0,3.16,0,2.56,2.56,0,0,0,.49-1.74V394h1.59v5a3.92,3.92,0,0,1-1,2.82,3.59,3.59,0,0,1-2.7,1,3.63,3.63,0,0,1-2.71-1A3.92,3.92,0,0,1,901.92,399Z"/><path class="cls-6" d="M911,395.32V394h1.52v-2.58h1.59V394h2.31v1.36h-2.31v5c0,.68.43,1,1.28,1h0a1.9,1.9,0,0,0,1-.26v1.45a3.16,3.16,0,0,1-1.19.24h0a3.22,3.22,0,0,1-.67-.08,4.24,4.24,0,0,1-.86-.3,1.86,1.86,0,0,1-.82-.78,2.76,2.76,0,0,1-.32-1.38v-4.93Z"/><path class="cls-6" d="M918,398.41q0-4.59,3.83-4.59h0a3.61,3.61,0,0,1,2.79,1.14,4.37,4.37,0,0,1,1,3.05c0,.42,0,.82,0,1.2h-6a2.25,2.25,0,0,0,2.45,2.23,6.27,6.27,0,0,0,3-.65v1.45a7.65,7.65,0,0,1-3,.56h0a5,5,0,0,1-1.42-.19,4,4,0,0,1-1.25-.63,3,3,0,0,1-1-1.36A6.29,6.29,0,0,1,918,398.41Zm1.6-.63H924a3.69,3.69,0,0,0-.15-.83,3.25,3.25,0,0,0-.35-.8,1.62,1.62,0,0,0-.67-.65,2.1,2.1,0,0,0-1.06-.25,2.06,2.06,0,0,0-1.61.57A3.3,3.3,0,0,0,919.55,397.78Z"/><path class="cls-6" d="M933.34,399.37a3.6,3.6,0,0,1,.49-1.84,4.66,4.66,0,0,1,1.88-1.64,4,4,0,0,1-1.08-2.3,2.71,2.71,0,0,1,2.72-2.71,2.69,2.69,0,0,1,1.94.76,2.68,2.68,0,0,1,.31,3.43,5.35,5.35,0,0,1-1.57,1.27l2.27,2.71a7.25,7.25,0,0,0,.45-1.5h1.59a7,7,0,0,1-1,2.67l2,2.43h-1.94l-1-1.21a4.45,4.45,0,0,1-3.24,1.35h0a4.27,4.27,0,0,1-1.73-.34,3,3,0,0,1-1.18-.88,4.3,4.3,0,0,1-.64-1.1A3.19,3.19,0,0,1,933.34,399.37Zm1.59.05a2,2,0,0,0,.09.56,2.8,2.8,0,0,0,.33.64,1.75,1.75,0,0,0,.71.58,2.62,2.62,0,0,0,1.13.23,3.05,3.05,0,0,0,2.31-1.05L936.71,397a5.15,5.15,0,0,0-1,.67,1.82,1.82,0,0,0-.54.69,2.43,2.43,0,0,0-.18.55A2.35,2.35,0,0,0,934.93,399.42Zm1.51-6.89a1.28,1.28,0,0,0-.39.94,3.47,3.47,0,0,0,1,1.73,5.41,5.41,0,0,0,1.33-.94,1.3,1.3,0,0,0,.3-.85,1.22,1.22,0,0,0-.36-.9,1.3,1.3,0,0,0-.94-.36A1.28,1.28,0,0,0,936.44,392.53Z"/><path class="cls-6" d="M856.72,424.59V413h1.76l3.81,5,3.83-5h1.76v11.62h-1.62v-9.16l-4,5.2-3.94-5.2v9.16Z"/><path class="cls-6" d="M870.23,421.84a2.27,2.27,0,0,1,1.09-2,5.28,5.28,0,0,1,3-.73,13.53,13.53,0,0,1,1.58.1,2.13,2.13,0,0,0-.6-1.57,2.68,2.68,0,0,0-1.79-.48,7.47,7.47,0,0,0-2.41.44v-1.36a7.39,7.39,0,0,1,2.63-.47,3.89,3.89,0,0,1,2.8.94,3.56,3.56,0,0,1,1,2.7v2.51a3.53,3.53,0,0,1,0,.56,3.48,3.48,0,0,1-.27.71,2.58,2.58,0,0,1-.56.75,3,3,0,0,1-1.08.56,5.24,5.24,0,0,1-1.66.23,5.32,5.32,0,0,1-1.68-.24,3.06,3.06,0,0,1-1.09-.57,2.34,2.34,0,0,1-.58-.77,2.56,2.56,0,0,1-.27-.73A2.75,2.75,0,0,1,870.23,421.84Zm1.59,0c0,1,.69,1.47,2.08,1.47h0c1.31,0,2-.47,2-1.41v-1.4a9.25,9.25,0,0,0-1.51-.11,4.68,4.68,0,0,0-.73.06,5.73,5.73,0,0,0-.82.2,1.56,1.56,0,0,0-.73.45A1,1,0,0,0,871.82,421.82Z"/><path class="cls-6" d="M880.31,423.57a5.9,5.9,0,0,1,0-6.66,3.82,3.82,0,0,1,3-1.15,7,7,0,0,1,2.56.48v1.52a5.41,5.41,0,0,0-2.39-.57h0a2.65,2.65,0,0,0-1.88.62,3.28,3.28,0,0,0-.68,2.43,5.53,5.53,0,0,0,.2,1.6,1.84,1.84,0,0,0,.59.94,2.18,2.18,0,0,0,.8.41,4,4,0,0,0,1,.1,5.59,5.59,0,0,0,2.42-.55v1.5a7,7,0,0,1-2.56.48A3.82,3.82,0,0,1,880.31,423.57Z"/><path class="cls-6" d="M888,424.59v-12h1.59v3.62a6.26,6.26,0,0,1,2.3-.43,3.29,3.29,0,0,1,2.52,1,3.89,3.89,0,0,1,.9,2.75v5.12h-1.62V419.4a2.06,2.06,0,0,0-.55-1.7,2.24,2.24,0,0,0-1.41-.43,5.9,5.9,0,0,0-2.14.42v6.9Z"/><path class="cls-6" d="M897.78,414.55v-1.68h1.69v1.68Zm.05,10V415.9h1.59v8.69Z"/><path class="cls-6" d="M902.26,424.59v-8a8.36,8.36,0,0,1,3.71-.89,3.67,3.67,0,0,1,2.58.86,3.05,3.05,0,0,1,.94,2.38v5.61h-1.62v-5.73a1.72,1.72,0,0,0-.4-1.21,2.06,2.06,0,0,0-1.57-.44,6.7,6.7,0,0,0-2,.31v7.07Z"/><path class="cls-6" d="M911.65,420.34q0-4.57,3.84-4.58h0a3.6,3.6,0,0,1,2.79,1.14,4.36,4.36,0,0,1,1,3.05c0,.41,0,.81-.05,1.19h-6a2.25,2.25,0,0,0,2.44,2.24,6.47,6.47,0,0,0,3-.65v1.44a7.73,7.73,0,0,1-3,.57h-.05a4.86,4.86,0,0,1-1.41-.19,4.17,4.17,0,0,1-1.26-.64,2.88,2.88,0,0,1-1-1.35A6.35,6.35,0,0,1,911.65,420.34Zm1.6-.63h4.46a4.25,4.25,0,0,0-.14-.82,4,4,0,0,0-.35-.81,1.71,1.71,0,0,0-.68-.65,2.17,2.17,0,0,0-1-.24,2.14,2.14,0,0,0-1.62.56A3.32,3.32,0,0,0,913.25,419.71Z"/><path class="cls-6" d="M927.61,424.59V413h1.63v10.1H935v1.52Z"/><path class="cls-6" d="M936.21,420.34q0-4.57,3.84-4.58h0a3.58,3.58,0,0,1,2.78,1.14,4.31,4.31,0,0,1,1,3.05,11.47,11.47,0,0,1,0,1.19h-6a2.25,2.25,0,0,0,2.45,2.24,6.45,6.45,0,0,0,3-.65v1.44a7.73,7.73,0,0,1-3,.57h0a4.86,4.86,0,0,1-1.41-.19,4.17,4.17,0,0,1-1.26-.64,2.8,2.8,0,0,1-1-1.35A6.11,6.11,0,0,1,936.21,420.34Zm1.6-.63h4.47a4.25,4.25,0,0,0-.15-.82,3.55,3.55,0,0,0-.35-.81,1.71,1.71,0,0,0-.68-.65,2.14,2.14,0,0,0-1.05-.24,2.1,2.1,0,0,0-1.61.56A3.39,3.39,0,0,0,937.81,419.71Z"/><path class="cls-6" d="M945.49,421.84a2.29,2.29,0,0,1,1.09-2,5.34,5.34,0,0,1,3-.73,13.22,13.22,0,0,1,1.57.1,2.13,2.13,0,0,0-.59-1.57,2.73,2.73,0,0,0-1.8-.48,7.52,7.52,0,0,0-2.41.44v-1.36a7.43,7.43,0,0,1,2.63-.47,3.91,3.91,0,0,1,2.81.94,3.56,3.56,0,0,1,1,2.7v2.51a2.67,2.67,0,0,1-.06.56,2.87,2.87,0,0,1-.26.71,2.45,2.45,0,0,1-.57.75,3,3,0,0,1-1.07.56,5.24,5.24,0,0,1-1.66.23,5.43,5.43,0,0,1-1.69-.24,3.15,3.15,0,0,1-1.09-.57,2.48,2.48,0,0,1-.58-.77,3.38,3.38,0,0,1-.27-.73A3.66,3.66,0,0,1,945.49,421.84Zm1.59,0c0,1,.7,1.47,2.09,1.47h0c1.31,0,2-.47,2-1.41v-1.4a9.16,9.16,0,0,0-1.51-.11,4.78,4.78,0,0,0-.73.06,6.07,6.07,0,0,0-.82.2,1.61,1.61,0,0,0-.73.45A1.08,1.08,0,0,0,947.08,421.82Z"/><path class="cls-6" d="M955,424.59v-8a11.35,11.35,0,0,1,4.23-.87v1.46a11.19,11.19,0,0,0-2.64.37v7Z"/><path class="cls-6" d="M961,424.59v-8a8.36,8.36,0,0,1,3.71-.89,3.67,3.67,0,0,1,2.58.86,3.05,3.05,0,0,1,.94,2.38v5.61h-1.62v-5.73a1.72,1.72,0,0,0-.4-1.21,2.06,2.06,0,0,0-1.57-.44,6.7,6.7,0,0,0-2.05.31v7.07Z"/><path class="cls-6" d="M970.86,414.55v-1.68h1.69v1.68Zm0,10V415.9h1.59v8.69Z"/><path class="cls-6" d="M975.34,424.59v-8a8.36,8.36,0,0,1,3.71-.89,3.67,3.67,0,0,1,2.58.86,3.05,3.05,0,0,1,.94,2.38v5.61H981v-5.73a1.72,1.72,0,0,0-.4-1.21,2.06,2.06,0,0,0-1.57-.44,6.7,6.7,0,0,0-2.05.31v7.07Z"/><path class="cls-6" d="M984.85,420.17a5.19,5.19,0,0,1,.91-3.22,3.29,3.29,0,0,1,2.81-1.21,4.12,4.12,0,0,1,2.54.72,2.39,2.39,0,0,1,.95,2V425a3.29,3.29,0,0,1-.16,1.07,3.12,3.12,0,0,1-.56,1,2.63,2.63,0,0,1-1.18.74,6,6,0,0,1-1.92.27,9.09,9.09,0,0,1-2.58-.37v-1.51a8.69,8.69,0,0,0,2.44.36,5.57,5.57,0,0,0,1.36-.14,1.23,1.23,0,0,0,1-.9,2.23,2.23,0,0,0,0-.5v-.77a6.27,6.27,0,0,1-1.75.25,3.71,3.71,0,0,1-2.87-1.1A4.5,4.5,0,0,1,984.85,420.17Zm1.59,0a3,3,0,0,0,.61,2.25,2.37,2.37,0,0,0,1.67.56,4.62,4.62,0,0,0,1.75-.33v-4.27a1.55,1.55,0,0,0,0-.33,1.65,1.65,0,0,0-.19-.39,1,1,0,0,0-.59-.37,3.69,3.69,0,0,0-1.09-.13,2.86,2.86,0,0,0-.76.1,2,2,0,0,0-.66.39,1.92,1.92,0,0,0-.53.93A5.9,5.9,0,0,0,986.44,420.18Z"/><path class="cls-7" d="M644.76,394.26a2.67,2.67,0,0,1-.64,1.73l-9.77,11.43a2.68,2.68,0,0,1-2,.93,2.72,2.72,0,0,1-2-.93L620.54,396a2.66,2.66,0,1,1,4-3.47l7.75,9.06,7.74-9.06a2.67,2.67,0,0,1,4.69,1.74Z"/><path class="cls-7" d="M635,331v73.4a2.67,2.67,0,0,1-5.33,0V331a2.67,2.67,0,1,1,5.33,0Z"/><path class="cls-7" d="M619.9,340.92a2.65,2.65,0,0,1,.64-1.73l9.77-11.43a2.66,2.66,0,0,1,4,0l9.77,11.43a2.66,2.66,0,0,1-4,3.46l-7.74-9.06-7.75,9.06a2.66,2.66,0,0,1-4.68-1.73Z"/><circle class="cls-4" cx="632.33" cy="366.65" r="7.23"/><path class="cls-8" d="M632.33,361.9a4.75,4.75,0,1,1-4.75,4.75,4.75,4.75,0,0,1,4.75-4.75m0-5a9.72,9.72,0,1,0,9.72,9.72,9.72,9.72,0,0,0-9.72-9.72Z"/><path class="cls-7" d="M826.4,330.91v38.4a2.66,2.66,0,1,1-5.32,0v-38.4a2.66,2.66,0,1,1,5.32,0Z"/><path class="cls-7" d="M778.14,366.65h45.29a2.66,2.66,0,1,1,0,5.32H778.14a2.66,2.66,0,1,1,0-5.32Z"/><path class="cls-7" d="M836.17,340.92a2.65,2.65,0,0,0-.64-1.73l-9.77-11.43a2.66,2.66,0,0,0-4,0L812,339.19a2.66,2.66,0,0,0,4,3.46l7.74-9.06,7.74,9.06a2.67,2.67,0,0,0,4.69-1.73Z"/><path class="cls-7" d="M780.8,369.31v28a2.66,2.66,0,0,1-5.32,0v-28a2.66,2.66,0,0,1,5.32,0Z"/><path class="cls-7" d="M752.87,426.48,780,399.33a2.66,2.66,0,0,0-3.76-3.77l-27.15,27.15a2.66,2.66,0,1,0,3.76,3.77Z"/><path class="cls-7" d="M766.86,426.31a2.69,2.69,0,0,1-1.68.77l-15,1.17a2.66,2.66,0,0,1-2.86-2.86l1.17-15a2.66,2.66,0,1,1,5.31.41l-.93,11.88,11.89-.93a2.67,2.67,0,0,1,2.86,2.45A2.7,2.7,0,0,1,766.86,426.31Z"/><path class="cls-4" d="M777.85,402.68a7.23,7.23,0,1,1,7.24-7.23A7.24,7.24,0,0,1,777.85,402.68Z"/><path class="cls-8" d="M777.85,390.7a4.75,4.75,0,1,1-4.74,4.75,4.75,4.75,0,0,1,4.74-4.75m0-5a9.72,9.72,0,1,0,9.72,9.72,9.72,9.72,0,0,0-9.72-9.72Z"/><path class="cls-7" d="M438.25,330.75v38.4a2.67,2.67,0,0,0,5.33,0v-38.4a2.67,2.67,0,0,0-5.33,0Z"/><path class="cls-7" d="M486.51,366.49H441.23a2.66,2.66,0,1,0,0,5.32h45.28a2.66,2.66,0,1,0,0-5.32Z"/><path class="cls-7" d="M428.49,340.76a2.6,2.6,0,0,1,.64-1.73l9.76-11.43a2.67,2.67,0,0,1,4.05,0L452.71,339a2.66,2.66,0,0,1-4,3.46l-7.74-9.06-7.75,9.06a2.65,2.65,0,0,1-3.75.29A2.62,2.62,0,0,1,428.49,340.76Z"/><path class="cls-7" d="M483.85,369.15v28a2.67,2.67,0,0,0,5.33,0v-28a2.67,2.67,0,0,0-5.33,0Z"/><path class="cls-7" d="M511.78,426.32l-27.15-27.15a2.67,2.67,0,1,1,3.77-3.77l27.15,27.15a2.67,2.67,0,0,1-3.77,3.77Z"/><path class="cls-7" d="M497.8,426.15a2.64,2.64,0,0,0,1.68.77l15,1.17a2.66,2.66,0,0,0,2.86-2.86l-1.17-15a2.66,2.66,0,0,0-5.31.41l.93,11.88-11.88-.93a2.67,2.67,0,0,0-2.09,4.54Z"/><path class="cls-4" d="M486.8,401.85a7.23,7.23,0,1,1,7.23-7.23A7.23,7.23,0,0,1,486.8,401.85Z"/><path class="cls-8" d="M486.8,389.88a4.75,4.75,0,1,1-4.74,4.74,4.75,4.75,0,0,1,4.74-4.74m0-5a9.72,9.72,0,1,0,9.72,9.72,9.72,9.72,0,0,0-9.72-9.72Z"/><path class="cls-9" d="M780.49,396.82h66a1,1,0,0,0,0-2h-66a1,1,0,0,0,0,2Z"/><path class="cls-6" d="M271.94,399.81l4.63-11.62h1.58l4.62,11.62H281l-1.25-3.26h-4.85l-1.25,3.26Zm3.57-4.77h3.69l-1.84-4.82Z"/><path class="cls-6" d="M284.15,396.5a10,10,0,0,1,0-5,5,5,0,0,1,.83-1.72,3.89,3.89,0,0,1,1.24-1,5.42,5.42,0,0,1,1.45-.55,8,8,0,0,1,1.51-.13,9.58,9.58,0,0,1,3.55.69v1.5a8.32,8.32,0,0,0-3.37-.73,3.79,3.79,0,0,0-3,1.06,6.77,6.77,0,0,0,0,6.85,3.72,3.72,0,0,0,3,1.07,8.15,8.15,0,0,0,3.37-.73v1.5a9.59,9.59,0,0,1-3.55.7,8,8,0,0,1-1.51-.14,5.06,5.06,0,0,1-1.45-.54,4.06,4.06,0,0,1-1.24-1A5,5,0,0,1,284.15,396.5Z"/><path class="cls-6" d="M295,399.81V388.19h1.63v11.62Z"/><path class="cls-6" d="M299.63,399.81V388.19h3.7a5.3,5.3,0,0,1,4.06,1.48,7.48,7.48,0,0,1,0,8.67,5.32,5.32,0,0,1-4.07,1.47Zm1.62-1.43h1.83a4.11,4.11,0,0,0,3.12-1.05,6.08,6.08,0,0,0,0-6.65,4.07,4.07,0,0,0-3.12-1.06h-1.83Z"/><path class="cls-6" d="M316,389.71v-1.52h9.44v1.52h-3.92v10.1h-1.63v-10.1Z"/><path class="cls-6" d="M325.91,399.81v-8a11.35,11.35,0,0,1,4.23-.87v1.46a11.74,11.74,0,0,0-2.64.37v7Z"/><path class="cls-6" d="M331.28,397.06a2.28,2.28,0,0,1,1.08-2,5.42,5.42,0,0,1,3-.73,11.64,11.64,0,0,1,1.58.11,2.18,2.18,0,0,0-.6-1.58,2.76,2.76,0,0,0-1.79-.47,7.44,7.44,0,0,0-2.41.43v-1.36a7.39,7.39,0,0,1,2.63-.47,3.89,3.89,0,0,1,2.8.94,3.56,3.56,0,0,1,1,2.7v2.51a3.53,3.53,0,0,1-.05.56,3.48,3.48,0,0,1-.27.71,2.33,2.33,0,0,1-.57.75,2.73,2.73,0,0,1-1.07.56A5.23,5.23,0,0,1,335,400a5.3,5.3,0,0,1-1.68-.25,3.23,3.23,0,0,1-1.09-.56,2.41,2.41,0,0,1-.58-.77,2.61,2.61,0,0,1-.27-.74A2.75,2.75,0,0,1,331.28,397.06Zm1.59,0c0,1,.69,1.47,2.08,1.47h0c1.31,0,2-.47,2-1.42v-1.4a10.53,10.53,0,0,0-1.51-.11,4.68,4.68,0,0,0-.73.06,8.22,8.22,0,0,0-.83.2,1.67,1.67,0,0,0-.73.45A1.08,1.08,0,0,0,332.87,397.05Z"/><path class="cls-6" d="M340.87,399.81v-7.95a8.2,8.2,0,0,1,3.7-.9,3.7,3.7,0,0,1,2.59.86,3.11,3.11,0,0,1,.94,2.39v5.6h-1.63v-5.73a1.78,1.78,0,0,0-.39-1.21,2.09,2.09,0,0,0-1.58-.44,6.59,6.59,0,0,0-2,.31v7.07Z"/><path class="cls-6" d="M350.27,393.57a2.46,2.46,0,0,1,.76-1.83,3.24,3.24,0,0,1,2.36-.76,5.16,5.16,0,0,1,2.32.57v1.38a5,5,0,0,0-2.13-.52c-1.15,0-1.72.37-1.72,1.11a.69.69,0,0,0,.46.61,5.51,5.51,0,0,0,1.1.42,13.09,13.09,0,0,1,1.29.44,2.6,2.6,0,0,1,1.11.87,2.55,2.55,0,0,1-.32,3.32,3.41,3.41,0,0,1-2.45.77,5.09,5.09,0,0,1-2.5-.62v-1.45a4.85,4.85,0,0,0,2.4.64h0a2.25,2.25,0,0,0,1.27-.3.91.91,0,0,0,.44-.77,1,1,0,0,0-.46-.86,3.35,3.35,0,0,0-1.11-.51c-.44-.12-.87-.26-1.3-.41a2.56,2.56,0,0,1-1.11-.74A2,2,0,0,1,350.27,393.57Z"/><path class="cls-6" d="M357.93,397.06a2.27,2.27,0,0,1,1.09-2,5.39,5.39,0,0,1,3-.73,11.53,11.53,0,0,1,1.58.11,2.1,2.1,0,0,0-.6-1.58,2.74,2.74,0,0,0-1.79-.47,7.44,7.44,0,0,0-2.41.43v-1.36a7.39,7.39,0,0,1,2.63-.47,3.91,3.91,0,0,1,2.81.94,3.55,3.55,0,0,1,1,2.7v2.51a2.65,2.65,0,0,1-.05.56,4,4,0,0,1-.26.71,2.33,2.33,0,0,1-.57.75,2.86,2.86,0,0,1-1.08.56,5.21,5.21,0,0,1-1.65.24,5.37,5.37,0,0,1-1.69-.25,3.33,3.33,0,0,1-1.09-.56,2.56,2.56,0,0,1-.58-.77,2.61,2.61,0,0,1-.27-.74A3.66,3.66,0,0,1,357.93,397.06Zm1.59,0c0,1,.7,1.47,2.09,1.47h0c1.31,0,2-.47,2-1.42v-1.4a10.53,10.53,0,0,0-1.51-.11,4.68,4.68,0,0,0-.73.06,8.07,8.07,0,0,0-.82.2,1.56,1.56,0,0,0-.73.45A1.08,1.08,0,0,0,359.52,397.05Z"/><path class="cls-6" d="M368,398.8a5.91,5.91,0,0,1,0-6.67,3.83,3.83,0,0,1,3-1.15,6.85,6.85,0,0,1,2.56.49V393a5.48,5.48,0,0,0-2.39-.57h0a2.71,2.71,0,0,0-1.88.62,3.28,3.28,0,0,0-.68,2.43,5.48,5.48,0,0,0,.2,1.6,1.88,1.88,0,0,0,.6.95,2.08,2.08,0,0,0,.8.4,3.84,3.84,0,0,0,1,.11,5.68,5.68,0,0,0,2.43-.56v1.51A7,7,0,0,1,371,400,3.87,3.87,0,0,1,368,398.8Z"/><path class="cls-6" d="M375.05,392.48v-1.36h1.51v-2.58h1.59v2.58h2.32v1.36h-2.32v5q0,1,1.29,1h0a1.93,1.93,0,0,0,1-.26v1.44a3,3,0,0,1-1.19.25h0a3.3,3.3,0,0,1-.67-.08,4.18,4.18,0,0,1-.85-.3,1.76,1.76,0,0,1-.82-.78,2.66,2.66,0,0,1-.33-1.38v-4.93Z"/><path class="cls-6" d="M382.57,389.77v-1.68h1.69v1.68Zm.05,10v-8.69h1.59v8.69Z"/><path class="cls-6" d="M386.87,397.72a6.23,6.23,0,0,1-.37-2.25,6.14,6.14,0,0,1,.37-2.24,3.11,3.11,0,0,1,1-1.39,4.35,4.35,0,0,1,1.29-.65,5.63,5.63,0,0,1,2.9,0,4.35,4.35,0,0,1,1.29.65,3,3,0,0,1,1,1.39,5.93,5.93,0,0,1,.37,2.24,6,6,0,0,1-.37,2.25,3,3,0,0,1-1,1.38,3.92,3.92,0,0,1-1.29.65,5.36,5.36,0,0,1-2.9,0,3.92,3.92,0,0,1-1.29-.65A3.08,3.08,0,0,1,386.87,397.72Zm1.45-3.85a6.83,6.83,0,0,0,0,3.2,1.89,1.89,0,0,0,.57.94,2.23,2.23,0,0,0,.77.41,4.56,4.56,0,0,0,1.9,0,2.23,2.23,0,0,0,.77-.41,1.82,1.82,0,0,0,.57-.94,6.83,6.83,0,0,0,0-3.2,1.79,1.79,0,0,0-.57-.93,2.07,2.07,0,0,0-.77-.41,4.56,4.56,0,0,0-1.9,0,2.07,2.07,0,0,0-.77.41A1.85,1.85,0,0,0,388.32,393.87Z"/><path class="cls-6" d="M396.73,399.81v-7.95a8.2,8.2,0,0,1,3.7-.9,3.71,3.71,0,0,1,2.59.86,3.1,3.1,0,0,1,.93,2.39v5.6h-1.62v-5.73a1.78,1.78,0,0,0-.39-1.21,2.09,2.09,0,0,0-1.58-.44,6.59,6.59,0,0,0-2,.31v7.07Z"/><path class="cls-6" d="M406.12,393.57a2.47,2.47,0,0,1,.77-1.83,3.23,3.23,0,0,1,2.35-.76,5.17,5.17,0,0,1,2.33.57v1.38a5,5,0,0,0-2.13-.52c-1.15,0-1.73.37-1.73,1.11a.71.71,0,0,0,.46.61,5.87,5.87,0,0,0,1.11.42,13.09,13.09,0,0,1,1.29.44,2.73,2.73,0,0,1,1.11.87,2.58,2.58,0,0,1-.32,3.32,3.41,3.41,0,0,1-2.45.77,5.13,5.13,0,0,1-2.51-.62v-1.45a4.91,4.91,0,0,0,2.41.64h0a2.28,2.28,0,0,0,1.28-.3.9.9,0,0,0,.43-.77,1,1,0,0,0-.45-.86,3.35,3.35,0,0,0-1.11-.51c-.44-.12-.87-.26-1.31-.41a2.59,2.59,0,0,1-1.1-.74A2,2,0,0,1,406.12,393.57Z"/><path class="cls-9" d="M421.77,395.63h66a1,1,0,1,0,0-2h-66a1,1,0,0,0,0,2Z"/><path class="cls-6" d="M549.93,365.4a3.11,3.11,0,0,1,1-2.32,4.28,4.28,0,0,1,3.07-.95,6.66,6.66,0,0,1,3,.7v1.58a5.33,5.33,0,0,0-2.79-.77c-1.76,0-2.64.59-2.64,1.76a1,1,0,0,0,.47.82,3.48,3.48,0,0,0,1.14.57c.45.14,1,.32,1.49.54a14.77,14.77,0,0,1,1.49.72,3.14,3.14,0,0,1,1.6,2.8,2.73,2.73,0,0,1-1.12,2.33,5,5,0,0,1-3.08.84,7.8,7.8,0,0,1-3.46-.84v-1.67a6.3,6.3,0,0,0,3.32,1c1.8,0,2.71-.55,2.71-1.65a1.68,1.68,0,0,0-.46-1.2,2.62,2.62,0,0,0-1.13-.72l-1.5-.51c-.54-.19-1-.38-1.49-.58a2.73,2.73,0,0,1-1.14-.92A2.47,2.47,0,0,1,549.93,365.4Z"/><path class="cls-6" d="M559.6,368.06a8.65,8.65,0,0,1,.33-2.5,4.94,4.94,0,0,1,.86-1.72,4.38,4.38,0,0,1,1.26-1,5,5,0,0,1,1.45-.54,8,8,0,0,1,1.5-.13,8.16,8.16,0,0,1,1.53.13,4.9,4.9,0,0,1,1.44.54,4.38,4.38,0,0,1,1.26,1,5.11,5.11,0,0,1,.86,1.72,8.65,8.65,0,0,1,.33,2.5,8.41,8.41,0,0,1-.39,2.7,4.36,4.36,0,0,1-1,1.81,5,5,0,0,1-1.43,1,5.4,5.4,0,0,1-1.66.42,1.76,1.76,0,0,0,.46,1.2,1.65,1.65,0,0,0,1.28.51v1.27a3.37,3.37,0,0,1-2.39-.86,2.75,2.75,0,0,1-.94-2.1,5.78,5.78,0,0,1-1.72-.39,5,5,0,0,1-1.48-.95,4.29,4.29,0,0,1-1.1-1.81A8.48,8.48,0,0,1,559.6,368.06Zm1.86-2a7.25,7.25,0,0,0-.24,2,7.4,7.4,0,0,0,.24,2,4.12,4.12,0,0,0,.59,1.31,2.63,2.63,0,0,0,.87.75,3.25,3.25,0,0,0,1,.36,8.21,8.21,0,0,0,2.14,0,3.16,3.16,0,0,0,1-.36,2.7,2.7,0,0,0,.89-.75,3.91,3.91,0,0,0,.59-1.31,7.86,7.86,0,0,0,.23-2,7.69,7.69,0,0,0-.23-2,4.13,4.13,0,0,0-.58-1.31,2.6,2.6,0,0,0-.89-.75,3.48,3.48,0,0,0-1-.35,7.33,7.33,0,0,0-2.16,0,3.53,3.53,0,0,0-1,.35,2.63,2.63,0,0,0-.87.75A4.12,4.12,0,0,0,561.46,366.08Z"/><path class="cls-6" d="M572.82,373.88V362.26h1.63v10.11h5.76v1.51Z"/><path class="cls-9" d="M587.2,368.75h46.11a1,1,0,0,0,0-2H587.2a1,1,0,0,0,0,2Z"/><rect class="cls-2" x="350.27" y="153.75" width="562.79" height="143.28" rx="7.4"/><path class="cls-3" d="M375.79,267.14l5.72-14.34h1.95l5.71,14.34H387l-1.54-4h-6l-1.54,4Zm4.41-5.89h4.56l-2.28-5.95Z"/><path class="cls-3" d="M391.37,271.23V259.7a4,4,0,0,1,.06-.69,4,4,0,0,1,.32-.87,3.16,3.16,0,0,1,.7-.92,3.52,3.52,0,0,1,1.32-.69,6.67,6.67,0,0,1,2.05-.29,6.45,6.45,0,0,1,1.17.11,4.24,4.24,0,0,1,1.25.47,3.81,3.81,0,0,1,1.16.95,4.85,4.85,0,0,1,.83,1.66,8.32,8.32,0,0,1,.33,2.46,7.62,7.62,0,0,1-.44,2.73,3.53,3.53,0,0,1-1.2,1.67,5.18,5.18,0,0,1-1.56.78,6,6,0,0,1-1.74.24,8.23,8.23,0,0,1-2.29-.32v4.24Zm2-6.12a6.28,6.28,0,0,0,2.29.43,4.6,4.6,0,0,0,1.13-.12,2.81,2.81,0,0,0,.92-.48,2.29,2.29,0,0,0,.69-1.12,6.54,6.54,0,0,0,.24-1.93,7.54,7.54,0,0,0-.24-2.07,2.54,2.54,0,0,0-.68-1.21,2.56,2.56,0,0,0-.87-.51,3.33,3.33,0,0,0-1-.14c-1.66,0-2.49.54-2.49,1.61Z"/><path class="cls-3" d="M403.15,271.23V259.7a3.23,3.23,0,0,1,.07-.69,3.15,3.15,0,0,1,.32-.87,3,3,0,0,1,.69-.92,3.68,3.68,0,0,1,1.32-.69,6.67,6.67,0,0,1,2.05-.29,6.45,6.45,0,0,1,1.17.11,4.14,4.14,0,0,1,1.25.47,4,4,0,0,1,1.17.95,4.85,4.85,0,0,1,.82,1.66,8.32,8.32,0,0,1,.33,2.46,7.62,7.62,0,0,1-.44,2.73,3.47,3.47,0,0,1-1.2,1.67,5.25,5.25,0,0,1-1.55.78,6,6,0,0,1-1.75.24,8.21,8.21,0,0,1-2.28-.32v4.24Zm2-6.12a6.19,6.19,0,0,0,2.28.43,4.6,4.6,0,0,0,1.13-.12,2.81,2.81,0,0,0,.92-.48,2.29,2.29,0,0,0,.69-1.12,6.54,6.54,0,0,0,.24-1.93,7.54,7.54,0,0,0-.24-2.07,2.3,2.3,0,0,0-1.55-1.72,3.33,3.33,0,0,0-1-.14c-1.66,0-2.48.54-2.48,1.61Z"/><path class="cls-3" d="M415.32,267.14V252.33h2v14.81Z"/><path class="cls-3" d="M420.82,254.75v-2.08h2.09v2.08Zm.07,12.39V256.41h2v10.73Z"/><path class="cls-3" d="M427,265.89a7.3,7.3,0,0,1,0-8.23,4.76,4.76,0,0,1,3.72-1.42,8.53,8.53,0,0,1,3.16.6v1.87a6.69,6.69,0,0,0-2.95-.7h0a3.31,3.31,0,0,0-2.32.76c-.56.51-.84,1.51-.84,3a6.47,6.47,0,0,0,.25,2,2.28,2.28,0,0,0,.73,1.16,2.76,2.76,0,0,0,1,.51,5.13,5.13,0,0,0,1.19.12,6.84,6.84,0,0,0,3-.68v1.86a8.73,8.73,0,0,1-3.16.59A4.73,4.73,0,0,1,427,265.89Z"/><path class="cls-3" d="M435.82,263.75a2.85,2.85,0,0,1,1.34-2.49,6.72,6.72,0,0,1,3.71-.89,15.47,15.47,0,0,1,1.95.12,2.62,2.62,0,0,0-.74-1.94,3.36,3.36,0,0,0-2.21-.59,9.23,9.23,0,0,0-3,.54v-1.68a9,9,0,0,1,3.25-.58,4.88,4.88,0,0,1,3.47,1.16,4.42,4.42,0,0,1,1.22,3.34v3.09a4,4,0,0,1-.07.69,4.35,4.35,0,0,1-.33.88,2.89,2.89,0,0,1-.7.93,3.57,3.57,0,0,1-1.33.69,6.65,6.65,0,0,1-2,.29,6.52,6.52,0,0,1-2.08-.3,4,4,0,0,1-1.35-.7,3.06,3.06,0,0,1-.72-.95,3.41,3.41,0,0,1-.33-.91A4.14,4.14,0,0,1,435.82,263.75Zm2,0c0,1.21.86,1.81,2.58,1.81h0q2.43,0,2.43-1.74v-1.73a13.61,13.61,0,0,0-1.86-.14,5.9,5.9,0,0,0-.91.08,6.45,6.45,0,0,0-1,.25,2,2,0,0,0-.9.55A1.3,1.3,0,0,0,437.78,263.73Z"/><path class="cls-3" d="M446.36,258.09v-1.68h1.87v-3.18h2v3.18h2.86v1.68h-2.86v6.2c0,.84.53,1.25,1.59,1.25h0a2.34,2.34,0,0,0,1.25-.31V267a3.86,3.86,0,0,1-1.47.3h-.05a3.54,3.54,0,0,1-.83-.1,4.83,4.83,0,0,1-1.06-.37,2.17,2.17,0,0,1-1-1,3.32,3.32,0,0,1-.4-1.7v-6.09Z"/><path class="cls-3" d="M455.64,254.75v-2.08h2.09v2.08Zm.07,12.39V256.41h2v10.73Z"/><path class="cls-3" d="M461,264.56a8.57,8.57,0,0,1,0-5.54,3.73,3.73,0,0,1,1.23-1.72,5.33,5.33,0,0,1,1.6-.8,6.76,6.76,0,0,1,3.57,0,5.33,5.33,0,0,1,1.6.8,3.73,3.73,0,0,1,1.23,1.72,8.57,8.57,0,0,1,0,5.54,3.75,3.75,0,0,1-1.23,1.71,5.11,5.11,0,0,1-1.6.8,6.76,6.76,0,0,1-3.57,0,5.11,5.11,0,0,1-1.6-.8A3.75,3.75,0,0,1,461,264.56Zm1.79-4.75a6.86,6.86,0,0,0-.24,2,6.74,6.74,0,0,0,.24,2,2.25,2.25,0,0,0,.7,1.16,2.61,2.61,0,0,0,1,.5,5.72,5.72,0,0,0,2.33,0,2.54,2.54,0,0,0,1-.5,2.33,2.33,0,0,0,.71-1.16,7.14,7.14,0,0,0,.23-2,7.27,7.27,0,0,0-.23-2,2.33,2.33,0,0,0-.71-1.16,2.69,2.69,0,0,0-1-.5,5.72,5.72,0,0,0-2.33,0,2.77,2.77,0,0,0-1,.5A2.25,2.25,0,0,0,462.75,259.81Z"/><path class="cls-3" d="M473.12,267.14v-9.82a10.32,10.32,0,0,1,4.58-1.1,4.52,4.52,0,0,1,3.19,1.06,3.8,3.8,0,0,1,1.16,2.94v6.92h-2v-7.07a2.21,2.21,0,0,0-.48-1.5,2.61,2.61,0,0,0-1.95-.54,8.15,8.15,0,0,0-2.52.39v8.72Z"/><path class="cls-3" d="M484.73,259.44a3.05,3.05,0,0,1,.95-2.27,4,4,0,0,1,2.9-.93,6.49,6.49,0,0,1,2.87.7v1.7a6.38,6.38,0,0,0-2.63-.63c-1.42,0-2.13.45-2.13,1.37a.87.87,0,0,0,.57.75,7.76,7.76,0,0,0,1.36.52,16.73,16.73,0,0,1,1.6.54,3.22,3.22,0,0,1,1.37,1.08,3.17,3.17,0,0,1-.4,4.1,4.2,4.2,0,0,1-3,.94,6.27,6.27,0,0,1-3.1-.76v-1.79a6,6,0,0,0,3,.78h0a2.76,2.76,0,0,0,1.57-.37,1.1,1.1,0,0,0,.54-.94,1.27,1.27,0,0,0-.56-1.07,4.39,4.39,0,0,0-1.38-.63c-.53-.15-1.07-.31-1.61-.5a3.08,3.08,0,0,1-1.36-.92A2.43,2.43,0,0,1,484.73,259.44Z"/><path class="cls-5" d="M434.18,241.47a1.71,1.71,0,0,1-.85-.22l-25.16-6.07a1.68,1.68,0,0,1-.85-1.47V191.12a1.71,1.71,0,0,1,.85-1.48l25.16-5.44a1.67,1.67,0,0,1,1.7,0l25.16,5.44a1.71,1.71,0,0,1,.85,1.48v42.59a1.68,1.68,0,0,1-.85,1.47L435,241.25A1.71,1.71,0,0,1,434.18,241.47Z"/><path class="cls-7" d="M434.18,242.61c-.3,0-26.39-6.17-26.39-6.17a1.72,1.72,0,0,1-.87-1.49v-45.1a1.71,1.71,0,0,1,.87-1.49s26.09-5.59,26.39-5.59,26.39,5.59,26.39,5.59a1.71,1.71,0,0,1,.87,1.49V235a1.72,1.72,0,0,1-.87,1.49S434.48,242.61,434.18,242.61ZM410.38,234l23.8,4.94L458,234v-43.1l-23.8-5.17-23.8,5.17Z"/><path class="cls-7" d="M434.18,197.89a1.73,1.73,0,0,1-.86-.23l-25.53-5.36a1.73,1.73,0,0,1,1.73-3l24.66,4.87,24.66-4.87a1.73,1.73,0,0,1,1.73,3L435,197.66A1.73,1.73,0,0,1,434.18,197.89Z"/><path class="cls-7" d="M434.18,241.36a1.73,1.73,0,0,1-1.73-1.73V196.7a1.73,1.73,0,0,1,3.46,0v42.93A1.73,1.73,0,0,1,434.18,241.36Z"/><path class="cls-3" d="M538,256.67a3.82,3.82,0,0,1,1.23-2.86,5.27,5.27,0,0,1,3.79-1.18,8.23,8.23,0,0,1,3.69.87v1.95a6.59,6.59,0,0,0-3.45-.95c-2.17,0-3.25.72-3.25,2.17a1.26,1.26,0,0,0,.57,1,4.42,4.42,0,0,0,1.41.69c.56.18,1.17.4,1.83.68a17.69,17.69,0,0,1,1.85.88,3.79,3.79,0,0,1,1.4,1.36,3.89,3.89,0,0,1,.57,2.1,3.37,3.37,0,0,1-1.38,2.87,6.17,6.17,0,0,1-3.8,1,9.61,9.61,0,0,1-4.27-1v-2.06a7.8,7.8,0,0,0,4.09,1.22q3.35,0,3.36-2a2.09,2.09,0,0,0-.57-1.48,3.24,3.24,0,0,0-1.41-.89l-1.84-.63c-.67-.23-1.28-.47-1.84-.71a3.53,3.53,0,0,1-1.41-1.14A3.09,3.09,0,0,1,538,256.67Z"/><path class="cls-3" d="M549.92,261.9q0-5.65,4.73-5.66h0a4.41,4.41,0,0,1,3.43,1.41,5.33,5.33,0,0,1,1.29,3.76c0,.52,0,1-.06,1.48h-7.42a2.78,2.78,0,0,0,3,2.76,7.81,7.81,0,0,0,3.7-.81v1.79a9.45,9.45,0,0,1-3.74.7h-.07a6,6,0,0,1-1.74-.24,5,5,0,0,1-1.55-.78,3.58,3.58,0,0,1-1.2-1.68A7.59,7.59,0,0,1,549.92,261.9Zm2-.78h5.52a5,5,0,0,0-.19-1,4.25,4.25,0,0,0-.43-1,2,2,0,0,0-.83-.8,2.7,2.7,0,0,0-1.31-.3,2.56,2.56,0,0,0-2,.69A4.08,4.08,0,0,0,551.89,261.12Z"/><path class="cls-3" d="M561.93,267.14v-9.83a14.17,14.17,0,0,1,5.23-1.07v1.81a13.4,13.4,0,0,0-3.27.45v8.64Z"/><path class="cls-3" d="M568.85,256.41H571l3,8.37,3-8.37h2.1L575,267.14h-2Z"/><path class="cls-3" d="M581.5,254.75v-2.08h2.09v2.08Zm.07,12.39V256.41h2v10.73Z"/><path class="cls-3" d="M587.63,265.89a7.25,7.25,0,0,1,0-8.23,4.76,4.76,0,0,1,3.72-1.42,8.53,8.53,0,0,1,3.16.6v1.87a6.72,6.72,0,0,0-3-.7h0a3.31,3.31,0,0,0-2.32.76c-.56.51-.84,1.51-.84,3a6.47,6.47,0,0,0,.25,2,2.28,2.28,0,0,0,.73,1.16,2.68,2.68,0,0,0,1,.51,5.13,5.13,0,0,0,1.19.12,6.84,6.84,0,0,0,3-.68v1.86a8.73,8.73,0,0,1-3.16.59A4.73,4.73,0,0,1,587.63,265.89Z"/><path class="cls-3" d="M596.43,261.9q0-5.65,4.74-5.66h0a4.44,4.44,0,0,1,3.44,1.41,5.33,5.33,0,0,1,1.28,3.76c0,.52,0,1-.06,1.48h-7.41a2.78,2.78,0,0,0,3,2.76,7.85,7.85,0,0,0,3.71-.81v1.79a9.53,9.53,0,0,1-3.75.7h-.06a6.12,6.12,0,0,1-1.75-.24,5,5,0,0,1-1.55-.78,3.57,3.57,0,0,1-1.19-1.68A7.58,7.58,0,0,1,596.43,261.9Zm2-.78h5.51a5.73,5.73,0,0,0-.18-1,4.3,4.3,0,0,0-.44-1,2,2,0,0,0-.83-.8,2.66,2.66,0,0,0-1.3-.3,2.58,2.58,0,0,0-2,.69A4.08,4.08,0,0,0,598.41,261.12Z"/><path class="cls-3" d="M608,259.44a3.09,3.09,0,0,1,.95-2.27,4,4,0,0,1,2.9-.93,6.56,6.56,0,0,1,2.88.7v1.7a6.42,6.42,0,0,0-2.63-.63c-1.42,0-2.14.45-2.14,1.37a.87.87,0,0,0,.57.75,7.58,7.58,0,0,0,1.37.52,16.55,16.55,0,0,1,1.59.54,3.11,3.11,0,0,1,1.37,1.08,3.14,3.14,0,0,1-.4,4.1,4.18,4.18,0,0,1-3,.94,6.25,6.25,0,0,1-3.1-.76v-1.79a6,6,0,0,0,3,.78h0a2.74,2.74,0,0,0,1.57-.37,1.1,1.1,0,0,0,.54-.94,1.27,1.27,0,0,0-.56-1.07,4.23,4.23,0,0,0-1.37-.63c-.54-.15-1.08-.31-1.61-.5a3.11,3.11,0,0,1-1.37-.92A2.48,2.48,0,0,1,608,259.44Z"/><path class="cls-5" d="M576.49,241.07a1.75,1.75,0,0,1-.85-.23l-25.16-6.06a1.72,1.72,0,0,1-.85-1.48V190.72a1.72,1.72,0,0,1,.85-1.48l25.16-5.45a1.72,1.72,0,0,1,1.7,0l25.16,5.45a1.71,1.71,0,0,1,.86,1.48V233.3a1.71,1.71,0,0,1-.86,1.48l-25.16,6.06A1.69,1.69,0,0,1,576.49,241.07Z"/><path class="cls-7" d="M576.49,242.21c-.3,0-26.39-6.17-26.39-6.17a1.74,1.74,0,0,1-.86-1.5V189.45a1.74,1.74,0,0,1,.86-1.5s26.09-5.58,26.39-5.58S602.88,188,602.88,188a1.73,1.73,0,0,1,.87,1.5v45.09a1.73,1.73,0,0,1-.87,1.5S576.79,242.21,576.49,242.21Zm-23.79-8.67,23.79,5,23.8-5V190.45l-23.8-5.17-23.79,5.17Z"/><path class="cls-7" d="M576.49,197.49a1.7,1.7,0,0,1-.86-.24l-25.53-5.36a1.73,1.73,0,1,1,1.73-3l24.66,4.86,24.67-4.86a1.73,1.73,0,0,1,1.73,3l-25.53,5.36A1.7,1.7,0,0,1,576.49,197.49Z"/><path class="cls-7" d="M576.49,241a1.72,1.72,0,0,1-1.72-1.72V196.29a1.73,1.73,0,0,1,3.45,0v42.94A1.72,1.72,0,0,1,576.49,241Z"/><path class="cls-3" d="M666.52,267.14l5.72-14.34h2l5.7,14.34h-2.15l-1.55-4h-6l-1.55,4Zm4.41-5.89h4.56l-2.28-5.95Z"/><path class="cls-3" d="M682.34,267.14V252.8h5.17a5.32,5.32,0,0,1,3.7,1.18,4.87,4.87,0,0,1,0,6.67,5.37,5.37,0,0,1-3.7,1.18h-3.17v5.31Zm2-7.08h3a3.33,3.33,0,0,0,2.56-.74,2.91,2.91,0,0,0,.65-2,2.94,2.94,0,0,0-.65-2,3.35,3.35,0,0,0-2.56-.74h-3Z"/><path class="cls-3" d="M695.17,267.14V252.8h2v14.34Z"/><path class="cls-3" d="M700.08,259.44a3.09,3.09,0,0,1,.95-2.27,4,4,0,0,1,2.9-.93,6.56,6.56,0,0,1,2.88.7v1.7a6.42,6.42,0,0,0-2.63-.63c-1.42,0-2.14.45-2.14,1.37a.87.87,0,0,0,.57.75,7.58,7.58,0,0,0,1.37.52,16.55,16.55,0,0,1,1.59.54,3.11,3.11,0,0,1,1.37,1.08,3.17,3.17,0,0,1-.4,4.1,4.19,4.19,0,0,1-3,.94,6.23,6.23,0,0,1-3.09-.76v-1.79a6,6,0,0,0,3,.78h0a2.74,2.74,0,0,0,1.57-.37,1.1,1.1,0,0,0,.54-.94,1.27,1.27,0,0,0-.56-1.07,4.33,4.33,0,0,0-1.37-.63c-.54-.15-1.08-.31-1.61-.5a3.11,3.11,0,0,1-1.37-.92A2.48,2.48,0,0,1,700.08,259.44Z"/><path class="cls-5" d="M687.22,240.66a1.71,1.71,0,0,1-.85-.22l-25.16-6.06a1.71,1.71,0,0,1-.85-1.48V190.31a1.68,1.68,0,0,1,.85-1.47l25.16-5.45a1.67,1.67,0,0,1,1.7,0l25.16,5.45a1.68,1.68,0,0,1,.85,1.47V232.9a1.71,1.71,0,0,1-.85,1.48l-25.16,6.06A1.71,1.71,0,0,1,687.22,240.66Z"/><path class="cls-7" d="M687.22,241.81c-.3,0-26.39-6.18-26.39-6.18a1.71,1.71,0,0,1-.86-1.49V189.05a1.74,1.74,0,0,1,.86-1.5S686.92,182,687.22,182s26.39,5.59,26.39,5.59a1.73,1.73,0,0,1,.87,1.5v45.09a1.7,1.7,0,0,1-.87,1.49S687.52,241.81,687.22,241.81Zm-23.8-8.67,23.8,4.94,23.8-4.94V190l-23.8-5.16L663.42,190Z"/><path class="cls-7" d="M687.22,197.08a1.76,1.76,0,0,1-.86-.23l-25.53-5.36a1.73,1.73,0,1,1,1.73-3l24.66,4.86,24.67-4.86a1.71,1.71,0,0,1,2.36.63,1.74,1.74,0,0,1-.64,2.36l-25.52,5.36A1.8,1.8,0,0,1,687.22,197.08Z"/><path class="cls-7" d="M687.22,240.55a1.73,1.73,0,0,1-1.73-1.73V195.89a1.73,1.73,0,0,1,3.46,0v42.93A1.72,1.72,0,0,1,687.22,240.55Z"/><path class="cls-3" d="M760,267.14V252.8h4.58a6.56,6.56,0,0,1,5,1.82,9.25,9.25,0,0,1,0,10.7,6.53,6.53,0,0,1-5,1.82Zm2-1.76h2.26a5,5,0,0,0,3.84-1.31,5.78,5.78,0,0,0,1.23-4.09,5.85,5.85,0,0,0-1.23-4.12,5.06,5.06,0,0,0-3.84-1.3h-2.26Z"/><path class="cls-3" d="M773.48,263.75a2.84,2.84,0,0,1,1.35-2.49,6.67,6.67,0,0,1,3.71-.89,15.47,15.47,0,0,1,2,.12,2.66,2.66,0,0,0-.74-1.94,3.37,3.37,0,0,0-2.22-.59,9.17,9.17,0,0,0-3,.54v-1.68a9,9,0,0,1,3.24-.58,4.85,4.85,0,0,1,3.47,1.16,4.42,4.42,0,0,1,1.22,3.34v3.09a3.23,3.23,0,0,1-.07.69,3.71,3.71,0,0,1-.32.88,3.21,3.21,0,0,1-.7.93,3.65,3.65,0,0,1-1.33.69,6.67,6.67,0,0,1-2.05.29,6.56,6.56,0,0,1-2.08-.3,4,4,0,0,1-1.34-.7,3.06,3.06,0,0,1-.72-.95,3.41,3.41,0,0,1-.33-.91A3.33,3.33,0,0,1,773.48,263.75Zm2,0c0,1.21.86,1.81,2.57,1.81h0q2.43,0,2.43-1.74v-1.73a13.64,13.64,0,0,0-1.87-.14,5.78,5.78,0,0,0-.9.08,6.84,6.84,0,0,0-1,.25,2,2,0,0,0-.9.55A1.29,1.29,0,0,0,775.45,263.73Z"/><path class="cls-3" d="M784,258.09v-1.68h1.87v-3.18h2v3.18h2.85v1.68h-2.85v6.2c0,.84.52,1.25,1.58,1.25h0a2.34,2.34,0,0,0,1.25-.31V267a3.86,3.86,0,0,1-1.47.3h0a3.54,3.54,0,0,1-.83-.1,4.77,4.77,0,0,1-1.05-.37,2.23,2.23,0,0,1-1-1,3.42,3.42,0,0,1-.4-1.7v-6.09Z"/><path class="cls-3" d="M792.71,263.75a2.85,2.85,0,0,1,1.34-2.49,6.72,6.72,0,0,1,3.71-.89,15.47,15.47,0,0,1,2,.12,2.62,2.62,0,0,0-.74-1.94,3.36,3.36,0,0,0-2.21-.59,9.18,9.18,0,0,0-3,.54v-1.68a9,9,0,0,1,3.25-.58,4.88,4.88,0,0,1,3.47,1.16,4.42,4.42,0,0,1,1.22,3.34v3.09a4,4,0,0,1-.07.69,4.35,4.35,0,0,1-.33.88,2.89,2.89,0,0,1-.7.93,3.57,3.57,0,0,1-1.33.69,6.65,6.65,0,0,1-2,.29,6.52,6.52,0,0,1-2.08-.3,4,4,0,0,1-1.35-.7,3.06,3.06,0,0,1-.72-.95,3.41,3.41,0,0,1-.33-.91A4.14,4.14,0,0,1,792.71,263.75Zm2,0c0,1.21.86,1.81,2.58,1.81h0q2.43,0,2.43-1.74v-1.73a13.61,13.61,0,0,0-1.86-.14,5.9,5.9,0,0,0-.91.08,6.45,6.45,0,0,0-1,.25,1.93,1.93,0,0,0-.9.55A1.3,1.3,0,0,0,794.67,263.73Z"/><path class="cls-3" d="M811.55,256.67a3.82,3.82,0,0,1,1.23-2.86,5.28,5.28,0,0,1,3.79-1.18,8.2,8.2,0,0,1,3.69.87v1.95a6.59,6.59,0,0,0-3.45-.95c-2.17,0-3.25.72-3.25,2.17a1.26,1.26,0,0,0,.57,1,4.42,4.42,0,0,0,1.41.69c.56.18,1.17.4,1.84.68a17.5,17.5,0,0,1,1.84.88,3.89,3.89,0,0,1,1.41,1.36,4,4,0,0,1,.56,2.1,3.38,3.38,0,0,1-1.37,2.87,6.23,6.23,0,0,1-3.81,1,9.64,9.64,0,0,1-4.27-1v-2.06a7.82,7.82,0,0,0,4.09,1.22q3.34,0,3.36-2a2.09,2.09,0,0,0-.57-1.48,3.21,3.21,0,0,0-1.4-.89l-1.85-.63c-.67-.23-1.28-.47-1.84-.71a3.53,3.53,0,0,1-1.41-1.14A3.09,3.09,0,0,1,811.55,256.67Z"/><path class="cls-3" d="M822.24,258.09v-1.68h1.87v-3.18h2v3.18h2.85v1.68h-2.85v6.2c0,.84.52,1.25,1.58,1.25h0a2.34,2.34,0,0,0,1.25-.31V267a3.86,3.86,0,0,1-1.47.3h-.05a3.54,3.54,0,0,1-.83-.1,4.77,4.77,0,0,1-1.05-.37,2.23,2.23,0,0,1-1-1,3.42,3.42,0,0,1-.4-1.7v-6.09Z"/><path class="cls-3" d="M831.38,267.14v-9.83a14.13,14.13,0,0,1,5.23-1.07v1.81a13.4,13.4,0,0,0-3.27.45v8.64Z"/><path class="cls-3" d="M838.1,261.9q0-5.65,4.73-5.66h0a4.41,4.41,0,0,1,3.43,1.41,5.33,5.33,0,0,1,1.29,3.76c0,.52,0,1-.06,1.48h-7.41a2.77,2.77,0,0,0,3,2.76,7.88,7.88,0,0,0,3.71-.81v1.79a9.53,9.53,0,0,1-3.75.7H843a6,6,0,0,1-1.74-.24,5,5,0,0,1-1.55-.78,3.5,3.5,0,0,1-1.19-1.68A7.37,7.37,0,0,1,838.1,261.9Zm2-.78h5.52a5,5,0,0,0-.19-1,4.25,4.25,0,0,0-.43-1,2,2,0,0,0-.83-.8,2.7,2.7,0,0,0-1.31-.3,2.56,2.56,0,0,0-2,.69A4.08,4.08,0,0,0,840.07,261.12Z"/><path class="cls-3" d="M849.56,263.75a2.83,2.83,0,0,1,1.34-2.49,6.7,6.7,0,0,1,3.71-.89,15.47,15.47,0,0,1,1.95.12,2.62,2.62,0,0,0-.74-1.94,3.37,3.37,0,0,0-2.22-.59,9.17,9.17,0,0,0-3,.54v-1.68a9,9,0,0,1,3.25-.58,4.84,4.84,0,0,1,3.46,1.16,4.38,4.38,0,0,1,1.22,3.34v3.09a4,4,0,0,1-.06.69,4.35,4.35,0,0,1-.33.88,3,3,0,0,1-.7.93,3.65,3.65,0,0,1-1.33.69,6.65,6.65,0,0,1-2,.29A6.58,6.58,0,0,1,852,267a4,4,0,0,1-1.34-.7,3.06,3.06,0,0,1-.72-.95,3.41,3.41,0,0,1-.33-.91A4.14,4.14,0,0,1,849.56,263.75Zm2,0c0,1.21.86,1.81,2.58,1.81h0q2.43,0,2.43-1.74v-1.73a13.64,13.64,0,0,0-1.87-.14,5.88,5.88,0,0,0-.9.08,6.45,6.45,0,0,0-1,.25,2,2,0,0,0-.91.55A1.34,1.34,0,0,0,851.52,263.73Z"/><path class="cls-3" d="M861.38,267.14v-9.85a9.92,9.92,0,0,1,4.45-1.07,4.78,4.78,0,0,1,2.87.81,10.6,10.6,0,0,1,3.94-.81,4.47,4.47,0,0,1,3.17,1.06,3.86,3.86,0,0,1,1.14,3v6.9h-2v-7a2.35,2.35,0,0,0-.45-1.5,2.21,2.21,0,0,0-1.77-.56,7.59,7.59,0,0,0-2.88.6,4.31,4.31,0,0,1,.25,1.53v7h-2v-7a2.13,2.13,0,0,0-.5-1.49,2.65,2.65,0,0,0-2-.55,8.82,8.82,0,0,0-2.35.33v8.72Z"/><path class="cls-3" d="M879.69,259.44a3.09,3.09,0,0,1,.95-2.27,4,4,0,0,1,2.9-.93,6.49,6.49,0,0,1,2.87.7v1.7a6.38,6.38,0,0,0-2.63-.63c-1.42,0-2.13.45-2.13,1.37a.87.87,0,0,0,.57.75,7.76,7.76,0,0,0,1.36.52,15.84,15.84,0,0,1,1.6.54,3.16,3.16,0,0,1,1.37,1.08,3.17,3.17,0,0,1-.4,4.1,4.19,4.19,0,0,1-3,.94,6.23,6.23,0,0,1-3.09-.76v-1.79a6,6,0,0,0,3,.78h0a2.74,2.74,0,0,0,1.57-.37,1.1,1.1,0,0,0,.54-.94,1.27,1.27,0,0,0-.56-1.07,4.33,4.33,0,0,0-1.37-.63c-.54-.15-1.08-.31-1.61-.5a3.11,3.11,0,0,1-1.37-.92A2.48,2.48,0,0,1,879.69,259.44Z"/><path class="cls-5" d="M823.08,240.26a1.72,1.72,0,0,1-.85-.23L797.07,234a1.68,1.68,0,0,1-.85-1.47V189.91a1.71,1.71,0,0,1,.85-1.48L822.23,183a1.72,1.72,0,0,1,1.7,0l25.16,5.45a1.71,1.71,0,0,1,.85,1.48V232.5a1.68,1.68,0,0,1-.85,1.47L823.93,240A1.72,1.72,0,0,1,823.08,240.26Z"/><path class="cls-7" d="M823.08,241.4c-.3,0-26.39-6.17-26.39-6.17a1.74,1.74,0,0,1-.86-1.5V188.64a1.74,1.74,0,0,1,.86-1.5s26.09-5.58,26.39-5.58,26.39,5.58,26.39,5.58a1.73,1.73,0,0,1,.87,1.5v45.09a1.73,1.73,0,0,1-.87,1.5S823.38,241.4,823.08,241.4Zm-23.8-8.66,23.8,4.94,23.8-4.94v-43.1l-23.8-5.17-23.8,5.17Z"/><path class="cls-7" d="M823.08,196.68a1.73,1.73,0,0,1-.86-.23l-25.53-5.37a1.73,1.73,0,0,1,1.73-3L823.08,193l24.66-4.86a1.73,1.73,0,1,1,1.73,3l-25.53,5.37A1.73,1.73,0,0,1,823.08,196.68Z"/><path class="cls-7" d="M823.08,240.15a1.74,1.74,0,0,1-1.73-1.73V195.49a1.73,1.73,0,0,1,3.46,0v42.93A1.73,1.73,0,0,1,823.08,240.15Z"/><rect class="cls-2" x="353.79" y="917.51" width="556.42" height="144.5" rx="7.02"/><path class="cls-3" d="M534,1030.46v-13.6h1.9v5.91h6.51v-5.91h1.86v13.6h-1.86v-5.91h-6.51v5.91Z"/><path class="cls-3" d="M546.84,1027.24a2.67,2.67,0,0,1,1.28-2.35,6.24,6.24,0,0,1,3.51-.85,13.8,13.8,0,0,1,1.85.12,2.47,2.47,0,0,0-.7-1.84,3.14,3.14,0,0,0-2.1-.56,8.78,8.78,0,0,0-2.82.51v-1.6a8.71,8.71,0,0,1,3.08-.54,4.53,4.53,0,0,1,3.28,1.1,4.11,4.11,0,0,1,1.16,3.16v2.93a3.68,3.68,0,0,1-.06.66,4.47,4.47,0,0,1-.31.83,2.75,2.75,0,0,1-.67.88,3.51,3.51,0,0,1-1.26.66,7,7,0,0,1-3.91,0,3.73,3.73,0,0,1-1.27-.66,2.78,2.78,0,0,1-.69-.9,3.25,3.25,0,0,1-.31-.86A3.79,3.79,0,0,1,546.84,1027.24Zm1.86,0c0,1.15.82,1.73,2.45,1.73h0c1.53,0,2.3-.55,2.3-1.66v-1.64a12.36,12.36,0,0,0-1.77-.13,5.18,5.18,0,0,0-.85.08,7.06,7.06,0,0,0-1,.23,1.9,1.9,0,0,0-.85.52A1.24,1.24,0,0,0,548.7,1027.22Z"/><path class="cls-3" d="M557.55,1025.24a7,7,0,0,1,.42-2.57,3.48,3.48,0,0,1,1.14-1.59,4.78,4.78,0,0,1,1.48-.74,6.14,6.14,0,0,1,1.64-.21,8,8,0,0,1,2.17.3v-4h1.87v10.9a3.59,3.59,0,0,1-.07.65,3.67,3.67,0,0,1-.31.83,2.72,2.72,0,0,1-.66.88,3.48,3.48,0,0,1-1.24.66,6.18,6.18,0,0,1-1.92.27,5.94,5.94,0,0,1-1.13-.1,4.32,4.32,0,0,1-1.19-.45,3.69,3.69,0,0,1-1.1-.9,4.88,4.88,0,0,1-.78-1.57A8,8,0,0,1,557.55,1025.24Zm1.86,0a7.16,7.16,0,0,0,.23,2,2.22,2.22,0,0,0,.64,1.13,2.47,2.47,0,0,0,.82.49,3.5,3.5,0,0,0,1,.13c1.56,0,2.34-.51,2.33-1.52v-5.21a5.7,5.7,0,0,0-2.17-.42,4.13,4.13,0,0,0-1.06.12,2.46,2.46,0,0,0-.88.45,2.16,2.16,0,0,0-.65,1.06A6.13,6.13,0,0,0,559.41,1025.24Z"/><path class="cls-3" d="M568.94,1028a8.23,8.23,0,0,1,0-5.25,3.6,3.6,0,0,1,1.17-1.63,4.92,4.92,0,0,1,1.52-.76,6.64,6.64,0,0,1,3.39,0,4.88,4.88,0,0,1,1.51.76,3.46,3.46,0,0,1,1.17,1.63,8.23,8.23,0,0,1,0,5.25,3.48,3.48,0,0,1-1.17,1.62,4.67,4.67,0,0,1-1.51.76,6.36,6.36,0,0,1-3.39,0,4.71,4.71,0,0,1-1.52-.76A3.62,3.62,0,0,1,568.94,1028Zm1.7-4.5a6.52,6.52,0,0,0-.22,1.87,6.59,6.59,0,0,0,.22,1.88,2.15,2.15,0,0,0,.67,1.09,2.44,2.44,0,0,0,.91.48,5.15,5.15,0,0,0,2.21,0,2.44,2.44,0,0,0,.91-.48,2.21,2.21,0,0,0,.67-1.09,6.59,6.59,0,0,0,.22-1.88,6.52,6.52,0,0,0-.22-1.87,2.2,2.2,0,0,0-.67-1.1,2.41,2.41,0,0,0-.91-.47,5.15,5.15,0,0,0-2.21,0,2.41,2.41,0,0,0-.91.47A2.13,2.13,0,0,0,570.64,1023.51Z"/><path class="cls-3" d="M580.48,1028a8.23,8.23,0,0,1,0-5.25,3.6,3.6,0,0,1,1.17-1.63,4.92,4.92,0,0,1,1.52-.76,6,6,0,0,1,1.69-.22,6.08,6.08,0,0,1,1.7.22,4.88,4.88,0,0,1,1.51.76,3.6,3.6,0,0,1,1.17,1.63,8.23,8.23,0,0,1,0,5.25,3.62,3.62,0,0,1-1.17,1.62,4.67,4.67,0,0,1-1.51.76,6.08,6.08,0,0,1-1.7.23,6,6,0,0,1-1.69-.23,4.71,4.71,0,0,1-1.52-.76A3.62,3.62,0,0,1,580.48,1028Zm1.7-4.5a6.52,6.52,0,0,0-.22,1.87,6.59,6.59,0,0,0,.22,1.88,2.15,2.15,0,0,0,.67,1.09,2.48,2.48,0,0,0,.9.48,4.49,4.49,0,0,0,1.11.12,4.38,4.38,0,0,0,1.11-.12,2.44,2.44,0,0,0,.91-.48,2.21,2.21,0,0,0,.67-1.09,6.59,6.59,0,0,0,.22-1.88,6.52,6.52,0,0,0-.22-1.87,2.2,2.2,0,0,0-.67-1.1,2.41,2.41,0,0,0-.91-.47,4.38,4.38,0,0,0-1.11-.12,4.49,4.49,0,0,0-1.11.12,2.44,2.44,0,0,0-.9.47A2.13,2.13,0,0,0,582.18,1023.51Z"/><path class="cls-3" d="M592.06,1034.33V1023.4a3.49,3.49,0,0,1,.06-.65,3.36,3.36,0,0,1,.3-.82,3,3,0,0,1,.67-.88,3.37,3.37,0,0,1,1.25-.65,6.27,6.27,0,0,1,1.94-.27,6,6,0,0,1,1.11.1,4.1,4.1,0,0,1,2.29,1.35,4.5,4.5,0,0,1,.78,1.57,7.83,7.83,0,0,1,.31,2.33,7.37,7.37,0,0,1-.41,2.59,3.33,3.33,0,0,1-1.14,1.58,4.93,4.93,0,0,1-1.48.75,6.1,6.1,0,0,1-1.65.22,7.79,7.79,0,0,1-2.17-.3v4Zm1.86-5.79a6.05,6.05,0,0,0,2.17.41,4.15,4.15,0,0,0,1.07-.12,2.45,2.45,0,0,0,.87-.46,2.1,2.1,0,0,0,.66-1.06,6.27,6.27,0,0,0,.22-1.83,7.33,7.33,0,0,0-.22-2,2.23,2.23,0,0,0-.65-1.13,2.31,2.31,0,0,0-.82-.49,3.05,3.05,0,0,0-.94-.13c-1.57,0-2.36.51-2.36,1.52Z"/><path class="cls-5" d="M567.1,945.9c-11.79,0-24,2.67-24,7.14v41a2.7,2.7,0,0,0,.52,1.55,3.83,3.83,0,0,0,.58.67c3,3,12.25,4.93,22.89,4.93s19.85-2,22.9-4.92a4.53,4.53,0,0,0,.59-.69,2.63,2.63,0,0,0,.51-1.54V953C591.1,948.57,578.9,945.9,567.1,945.9Z"/><path class="cls-7" d="M590.48,950.14c-1.42-1.3-4-2.37-7.19-3.18l-.45-.11-1.45-.32-.36-.08q-.82-.16-1.68-.3c-.73-.12-1.47-.23-2.23-.33l-1.07-.13a79.33,79.33,0,0,0-8.95-.5h0c-12.09,0-24.6,2.74-24.6,7.33h0V994.6a2.73,2.73,0,0,0,.53,1.58,4.11,4.11,0,0,0,.59.7c3.13,3,12.57,5,23.48,5s20.36-2,23.48-5a4.2,4.2,0,0,0,.61-.7,2.71,2.71,0,0,0,.52-1.58V952.52A3.25,3.25,0,0,0,590.48,950.14Zm-44.59,2.3.17-.15.23-.17.24-.16.31-.17c.09-.06.2-.11.31-.17l.38-.18.38-.16a4.89,4.89,0,0,1,.46-.19l.44-.17.54-.18c.17-.06.33-.12.51-.17l.61-.18.56-.16.69-.18.62-.16.76-.17.68-.14.83-.16.73-.13.91-.14L557,949l1-.13.8-.1,1.09-.1.82-.08,1.2-.09.82,0c.46,0,.93,0,1.41-.06l.71,0c.73,0,1.47,0,2.23,0h0c.76,0,1.5,0,2.23,0l.72,0c.47,0,.94,0,1.4.06l.82,0,1.2.09.83.08,1.08.1.81.1,1,.13.78.12.9.14.74.13.82.16.69.15.75.16.63.16.68.18.57.16.61.18.51.17.54.18.44.17.46.18.38.17.39.18.31.17.3.17.24.16.23.17.17.15.07.07c-2.1,2-10.26,4.16-21.29,4.16s-19.22-2.15-21.26-4.14l0,0Zm42.49,42.16c-2.09,2-10.25,4.16-21.28,4.16s-19.18-2.15-21.3-4.19l-.13-.14V956.2c4.24,2.23,12.31,3.64,21.43,3.64s17.19-1.41,21.44-3.64v38.23Z"/><path class="cls-3" d="M647.9,1030.6V1017h2.16l7.61,10.83V1017h1.9v13.6h-2.1l-7.66-10.89v10.89Z"/><path class="cls-3" d="M662.5,1028.15a8.23,8.23,0,0,1,0-5.25,3.62,3.62,0,0,1,1.17-1.62,5,5,0,0,1,1.52-.77,6.6,6.6,0,0,1,3.38,0,4.85,4.85,0,0,1,1.52.77,3.62,3.62,0,0,1,1.17,1.62,8.23,8.23,0,0,1,0,5.25,3.6,3.6,0,0,1-1.17,1.63,4.82,4.82,0,0,1-1.52.76,6.6,6.6,0,0,1-3.38,0,4.92,4.92,0,0,1-1.52-.76A3.6,3.6,0,0,1,662.5,1028.15Zm1.7-4.5a6.55,6.55,0,0,0-.23,1.88,6.48,6.48,0,0,0,.23,1.87,2.18,2.18,0,0,0,.67,1.1,2.6,2.6,0,0,0,.9.47,4.49,4.49,0,0,0,1.11.12A4.43,4.43,0,0,0,668,1029a2.52,2.52,0,0,0,.9-.47,2.11,2.11,0,0,0,.67-1.1,6.48,6.48,0,0,0,.23-1.87,6.55,6.55,0,0,0-.23-1.88,2,2,0,0,0-.67-1.09,2.4,2.4,0,0,0-.9-.48,4.43,4.43,0,0,0-1.11-.12,4.49,4.49,0,0,0-1.11.12,2.48,2.48,0,0,0-.9.48A2.1,2.1,0,0,0,664.2,1023.65Z"/><path class="cls-3" d="M673.57,1020.68a3.65,3.65,0,0,1,1.16-2.72,5.06,5.06,0,0,1,3.6-1.11,7.79,7.79,0,0,1,3.5.82v1.85a6.25,6.25,0,0,0-3.28-.9c-2,0-3.08.68-3.08,2.06a1.18,1.18,0,0,0,.54,1,4.2,4.2,0,0,0,1.34.66c.53.17,1.11.38,1.74.64a17.87,17.87,0,0,1,1.75.83,3.75,3.75,0,0,1,1.33,1.3,3.64,3.64,0,0,1,.54,2,3.2,3.2,0,0,1-1.3,2.72,5.86,5.86,0,0,1-3.61,1,9.19,9.19,0,0,1-4-1v-2a7.36,7.36,0,0,0,3.88,1.15c2.11,0,3.17-.64,3.18-1.93a2,2,0,0,0-.54-1.41,3,3,0,0,0-1.33-.84l-1.75-.59c-.63-.22-1.22-.45-1.75-.68a3.22,3.22,0,0,1-1.33-1.08A2.94,2.94,0,0,1,673.57,1020.68Z"/><path class="cls-3" d="M684.89,1023.79a10,10,0,0,1,.39-2.92,5.86,5.86,0,0,1,1-2,5,5,0,0,1,1.48-1.21,5.88,5.88,0,0,1,1.69-.64,10.58,10.58,0,0,1,3.55,0,5.67,5.67,0,0,1,1.69.64,5.07,5.07,0,0,1,1.47,1.21,5.86,5.86,0,0,1,1,2,11.26,11.26,0,0,1-.06,6.09,5.16,5.16,0,0,1-1.24,2.11,5.91,5.91,0,0,1-1.67,1.14,6.82,6.82,0,0,1-1.94.49,2,2,0,0,0,.54,1.4,1.91,1.91,0,0,0,1.49.6v1.49a4,4,0,0,1-2.79-1,3.18,3.18,0,0,1-1.1-2.46,7.23,7.23,0,0,1-2-.45,5.81,5.81,0,0,1-1.74-1.11,5,5,0,0,1-1.29-2.13A10.07,10.07,0,0,1,684.89,1023.79Zm2.18-2.32a8.77,8.77,0,0,0-.28,2.32,8.93,8.93,0,0,0,.28,2.34,4.94,4.94,0,0,0,.69,1.54,3.07,3.07,0,0,0,1,.87,3.91,3.91,0,0,0,1.18.42,8.8,8.8,0,0,0,2.51,0,3.73,3.73,0,0,0,1.18-.42,3.14,3.14,0,0,0,1-.87,4.52,4.52,0,0,0,.69-1.54,9,9,0,0,0,.27-2.34,8.8,8.8,0,0,0-.27-2.32,4.76,4.76,0,0,0-.68-1.53,3.07,3.07,0,0,0-1-.88,4.16,4.16,0,0,0-1.18-.41,8.94,8.94,0,0,0-2.53,0,4.21,4.21,0,0,0-1.17.41,3.1,3.1,0,0,0-1,.88A5,5,0,0,0,687.07,1021.47Z"/><path class="cls-3" d="M700.37,1030.6V1017h1.9v11.83H709v1.77Z"/><path class="cls-5" d="M677.78,946c-11.79,0-24,2.67-24,7.15v41a2.68,2.68,0,0,0,.51,1.54,4.32,4.32,0,0,0,.58.68c3.05,2.95,12.25,4.92,22.89,4.92s19.85-2,22.9-4.92a5,5,0,0,0,.59-.68,2.68,2.68,0,0,0,.51-1.54v-41C701.78,948.71,689.58,946,677.78,946Z"/><path class="cls-7" d="M701.16,950.28c-1.42-1.3-4-2.37-7.19-3.18l-.45-.1c-.47-.12-1-.23-1.45-.33l-.36-.07-1.68-.31c-.73-.12-1.47-.23-2.23-.33l-1.07-.13a79.2,79.2,0,0,0-9-.5h0c-12.09,0-24.6,2.74-24.6,7.33h0v42.08a2.75,2.75,0,0,0,.53,1.59,4.46,4.46,0,0,0,.59.69c3.13,3,12.57,5.05,23.48,5.05s20.36-2,23.48-5a4.73,4.73,0,0,0,.61-.71,2.69,2.69,0,0,0,.52-1.58V952.66A3.25,3.25,0,0,0,701.16,950.28Zm-44.59,2.3.17-.15.23-.17.24-.15.31-.18.31-.16.38-.19.38-.16.46-.19.44-.16.54-.19.51-.17.61-.18.56-.16.69-.18L663,950l.75-.17.68-.15.84-.15.72-.14.91-.14.78-.12,1-.12.8-.1,1.09-.11.82-.08,1.2-.08.82-.06,1.41-.06.72,0c.72,0,1.46,0,2.22,0h0c.76,0,1.5,0,2.23,0l.72,0,1.4.06.82.06,1.2.08.83.08,1.08.11.81.1,1,.12.78.12.9.14.74.14.83.15.68.15.75.17.63.15.69.18.56.16.61.18.51.17c.18.06.37.12.54.19l.44.16.46.19.38.16.39.19.31.16.3.18.24.15.23.17.17.15.07.08c-2.1,2-10.26,4.15-21.29,4.15s-19.21-2.14-21.26-4.13l0,0Zm42.49,42.16c-2.09,2-10.25,4.16-21.28,4.16s-19.18-2.14-21.3-4.19l-.13-.14V956.35c4.24,2.22,12.31,3.64,21.43,3.64s17.19-1.42,21.44-3.64v38.22Z"/><path class="cls-3" d="M422.25,1032.32v-13.6h5a5.54,5.54,0,0,1,3.59,1.06,3.73,3.73,0,0,1,1.31,3.05,3.85,3.85,0,0,1-.87,2.65,4.53,4.53,0,0,1-2.18,1.36l3.61,5.48h-2.24l-3.28-5.18h-3.06v5.18Zm1.9-7h3a3.28,3.28,0,0,0,2.42-.69,2.48,2.48,0,0,0,.65-1.79c0-1.67-1.05-2.5-3.15-2.5h-3Z"/><path class="cls-3" d="M435.17,1032.32v-13.6h4.34a6.17,6.17,0,0,1,4.75,1.73,7.18,7.18,0,0,1,1.63,5.08,7.1,7.1,0,0,1-1.62,5.06,6.21,6.21,0,0,1-4.76,1.73Zm1.9-1.68h2.15a4.79,4.79,0,0,0,3.64-1.23,5.49,5.49,0,0,0,1.16-3.88,5.56,5.56,0,0,0-1.16-3.91,4.79,4.79,0,0,0-3.64-1.23h-2.15Z"/><path class="cls-3" d="M448.91,1032.32v-13.6h4.71a6.46,6.46,0,0,1,2.34.37,2.81,2.81,0,0,1,1.37,1,3.83,3.83,0,0,1,.6,1.17,4.17,4.17,0,0,1,.16,1.19,3.46,3.46,0,0,1-.16,1.09,2.84,2.84,0,0,1-.4.8,4,4,0,0,1-.48.51,1.65,1.65,0,0,1-.41.3l-.16.08.26.11a5.29,5.29,0,0,1,.57.32,3.92,3.92,0,0,1,.73.59,3.18,3.18,0,0,1,.58.91,3,3,0,0,1,.27,1.28,4,4,0,0,1-.19,1.27,4.33,4.33,0,0,1-.65,1.23,3.07,3.07,0,0,1-1.5,1,7.43,7.43,0,0,1-2.54.38Zm1.9-7.83h2.79a3.64,3.64,0,0,0,1.93-.42,1.73,1.73,0,0,0,.66-1.58,1.82,1.82,0,0,0-.7-1.64,3.78,3.78,0,0,0-2.07-.46h-2.61Zm0,6.15,3.08,0a4.18,4.18,0,0,0,2.34-.52,2,2,0,0,0,.76-1.75,1.79,1.79,0,0,0-.84-1.73,5.16,5.16,0,0,0-2.4-.46h-2.94Z"/><path class="cls-3" d="M461.66,1032.32v-13.6h2.06l4.45,5.87,4.49-5.87h2.06v13.6h-1.9v-10.73l-4.65,6.1-4.61-6.1v10.73Z"/><path class="cls-3" d="M477.71,1022.39a3.59,3.59,0,0,1,1.16-2.71,5,5,0,0,1,3.59-1.12,7.67,7.67,0,0,1,3.5.83v1.84a6.19,6.19,0,0,0-3.27-.9c-2.06,0-3.08.69-3.08,2.06a1.21,1.21,0,0,0,.54,1,4.34,4.34,0,0,0,1.33.65c.53.17,1.12.38,1.75.64a15.66,15.66,0,0,1,1.74.84,3.68,3.68,0,0,1,1.88,3.28,3.23,3.23,0,0,1-1.31,2.73,5.91,5.91,0,0,1-3.61,1,9.13,9.13,0,0,1-4-1v-2a7.33,7.33,0,0,0,3.87,1.15c2.12,0,3.18-.64,3.18-1.93a2,2,0,0,0-.53-1.4,3.14,3.14,0,0,0-1.33-.85l-1.75-.59c-.64-.22-1.22-.45-1.75-.68a3.25,3.25,0,0,1-1.34-1.08A3,3,0,0,1,477.71,1022.39Z"/><path class="cls-5" d="M454.21,947.75c-11.79,0-24,2.68-24,7.15v41a2.63,2.63,0,0,0,.51,1.54,3.91,3.91,0,0,0,.58.68c3.05,3,12.25,4.93,22.89,4.93s19.85-2,22.9-4.92a5.08,5.08,0,0,0,.59-.69,2.63,2.63,0,0,0,.51-1.54v-41C478.21,950.43,466,947.75,454.21,947.75Z"/><path class="cls-7" d="M477.59,952c-1.42-1.29-4-2.36-7.19-3.17l-.45-.11c-.47-.12-1-.22-1.45-.33l-.36-.07-1.68-.31c-.73-.12-1.47-.23-2.23-.33l-1.07-.13a79.2,79.2,0,0,0-9-.5h0c-12.09,0-24.6,2.74-24.6,7.33h0v42.09a2.73,2.73,0,0,0,.53,1.58,4,4,0,0,0,.59.69c3.13,3,12.57,5.06,23.48,5.06s20.36-2,23.49-5a5.23,5.23,0,0,0,.6-.7,2.71,2.71,0,0,0,.52-1.58V954.37A3.27,3.27,0,0,0,477.59,952ZM433,954.29a1.14,1.14,0,0,1,.16-.14l.23-.17.24-.16.31-.18.31-.16.38-.18.38-.17.46-.19.44-.16.54-.19.51-.16.61-.19.57-.16.68-.18.63-.15.76-.17.67-.14.84-.16.72-.13.91-.15.78-.11,1-.13.8-.1,1.09-.11.82-.07c.39,0,.8-.06,1.2-.09l.82,0c.46,0,.94,0,1.41-.06l.72,0q1.08,0,2.22,0h0c.76,0,1.5,0,2.23,0l.72,0c.47,0,.95,0,1.4.06l.82,0c.41,0,.81.05,1.2.09l.83.07,1.08.11.81.1,1,.13.78.11.9.15.74.13.83.16.68.14.75.17.63.16.69.17.56.16.62.19.5.16.54.19.44.17.46.18.38.17.39.18.31.16.3.18.24.16a1.37,1.37,0,0,1,.23.17l.17.14.07.08c-2.1,2-10.25,4.16-21.29,4.16S435,956.38,433,954.39l0,0Zm42.48,42.17c-2.09,2-10.25,4.15-21.28,4.15s-19.18-2.14-21.3-4.19a.87.87,0,0,1-.12-.14V958.06c4.24,2.22,12.3,3.64,21.42,3.64s17.2-1.41,21.44-3.64v38.22A1.54,1.54,0,0,1,475.49,996.46Z"/><path class="cls-5" d="M807,947.74c-11.79,0-24,2.67-24,7.15v41a2.62,2.62,0,0,0,.52,1.54,4.32,4.32,0,0,0,.58.68c3.05,2.94,12.25,4.92,22.89,4.92s19.85-2,22.9-4.92a4.32,4.32,0,0,0,.58-.68,2.69,2.69,0,0,0,.52-1.54v-41C831,950.41,818.74,947.74,807,947.74Z"/><path class="cls-7" d="M830.33,952c-1.43-1.3-4-2.37-7.2-3.18l-.44-.11-1.46-.32-.36-.07L819.2,948c-.73-.12-1.47-.23-2.23-.33l-1.07-.13A79.46,79.46,0,0,0,807,947h0c-12.09,0-24.6,2.74-24.6,7.33h0v42.08a2.74,2.74,0,0,0,.52,1.59,5.12,5.12,0,0,0,.6.69c3.13,3,12.56,5,23.48,5s20.36-2,23.48-5A4.73,4.73,0,0,0,831,998a2.76,2.76,0,0,0,.52-1.58V954.36A3.25,3.25,0,0,0,830.33,952Zm-44.59,2.3.17-.15.23-.17.24-.15.3-.18.31-.16.39-.19.38-.16.46-.19.44-.16c.17-.07.35-.13.54-.19l.51-.17.61-.18.56-.16.69-.18.62-.15.76-.17.68-.15.83-.15.73-.14.91-.14.77-.12,1-.12.81-.1,1.09-.11.82-.08,1.2-.08.82-.06,1.41-.06.71,0c.73,0,1.47,0,2.23,0h0c.76,0,1.5,0,2.23,0l.72,0,1.4.06.82.06,1.2.08.83.08,1.08.11.81.1,1,.12.78.12.9.14.74.14.82.15.68.15.76.17.63.15.68.18.57.16.61.18.51.17.53.19.45.16.46.19.38.16.38.19.31.16.31.18.24.15.23.17.17.15.07.08c-2.1,2-10.26,4.15-21.29,4.15s-19.22-2.14-21.26-4.13l0,0Zm42.49,42.16c-2.09,2-10.26,4.16-21.28,4.16s-19.19-2.14-21.3-4.19l-.13-.14V958.05c4.24,2.22,12.31,3.64,21.43,3.64s17.19-1.42,21.44-3.64v38.22Z"/><path class="cls-10" d="M756.53,1028.56a11.16,11.16,0,0,1,0-5.7,5.88,5.88,0,0,1,1-2,4.68,4.68,0,0,1,1.43-1.18,5.49,5.49,0,0,1,1.65-.62,9.77,9.77,0,0,1,3.41,0,5.44,5.44,0,0,1,1.64.62,4.85,4.85,0,0,1,1.44,1.18,5.88,5.88,0,0,1,1,2,11.16,11.16,0,0,1,0,5.7,5.73,5.73,0,0,1-1,2,4.73,4.73,0,0,1-1.44,1.19,5.72,5.72,0,0,1-1.64.62,9.77,9.77,0,0,1-3.41,0,5.77,5.77,0,0,1-1.65-.62,4.58,4.58,0,0,1-1.43-1.19A5.73,5.73,0,0,1,756.53,1028.56Zm1.74-5.12a9.64,9.64,0,0,0,0,4.53,4.57,4.57,0,0,0,.67,1.5,3,3,0,0,0,1,.85,3.85,3.85,0,0,0,1.13.4,7.33,7.33,0,0,0,1.22.09,7.54,7.54,0,0,0,1.23-.09,3.85,3.85,0,0,0,1.13-.4,3,3,0,0,0,1-.85,4.38,4.38,0,0,0,.66-1.5,9.64,9.64,0,0,0,0-4.53,4.32,4.32,0,0,0-.66-1.49,2.85,2.85,0,0,0-1-.85,3.58,3.58,0,0,0-1.13-.4,7.54,7.54,0,0,0-1.23-.09,7.33,7.33,0,0,0-1.22.09,3.58,3.58,0,0,0-1.13.4,2.85,2.85,0,0,0-1,.85A4.51,4.51,0,0,0,758.27,1023.44Z"/><path class="cls-10" d="M770.19,1024v-1.55h1.72v-2.92h1.81v2.92h2.62V1024h-2.62v5.7c0,.77.48,1.16,1.46,1.16h0a2.16,2.16,0,0,0,1.15-.29v1.64a3.61,3.61,0,0,1-1.35.27h0a3.56,3.56,0,0,1-.76-.09,5.18,5.18,0,0,1-1-.34,2,2,0,0,1-.93-.89,3,3,0,0,1-.37-1.56V1024Z"/><path class="cls-10" d="M778.67,1032.32v-13.65h1.81v4.11a7.07,7.07,0,0,1,2.61-.49,3.74,3.74,0,0,1,2.87,1.1,4.38,4.38,0,0,1,1,3.11v5.82h-1.85v-5.89a2.4,2.4,0,0,0-.61-1.94,2.52,2.52,0,0,0-1.6-.48,6.86,6.86,0,0,0-2.44.47v7.84Z"/><path class="cls-10" d="M789.26,1027.5c0-3.48,1.45-5.21,4.35-5.21h0a4.1,4.1,0,0,1,3.17,1.29,5,5,0,0,1,1.18,3.47q0,.71-.06,1.35H791.1a2.56,2.56,0,0,0,2.79,2.54,7.14,7.14,0,0,0,3.4-.74v1.65a8.9,8.9,0,0,1-3.44.64h-.06a5.38,5.38,0,0,1-1.6-.22,4.48,4.48,0,0,1-1.43-.72,3.26,3.26,0,0,1-1.1-1.54A7,7,0,0,1,789.26,1027.5Zm1.81-.72h5.08a5.59,5.59,0,0,0-.17-.94,4.21,4.21,0,0,0-.4-.91,1.9,1.9,0,0,0-.77-.74,2.85,2.85,0,0,0-3,.36A3.82,3.82,0,0,0,791.07,1026.78Z"/><path class="cls-10" d="M800.31,1032.32v-9a13.08,13.08,0,0,1,4.81-1V1024a12.33,12.33,0,0,0-3,.42v8Z"/><path class="cls-10" d="M813.38,1022.69a3.51,3.51,0,0,1,1.12-2.64A4.9,4.9,0,0,1,818,1019a7.52,7.52,0,0,1,3.4.8v1.79a6.08,6.08,0,0,0-3.18-.87c-2,0-3,.66-3,2a1.17,1.17,0,0,0,.53.93,4.1,4.1,0,0,0,1.29.64c.52.16,1.08.37,1.69.62a14.94,14.94,0,0,1,1.7.81,3.6,3.6,0,0,1,1.81,3.19,3.12,3.12,0,0,1-1.26,2.64,5.75,5.75,0,0,1-3.5,1,8.93,8.93,0,0,1-3.93-.94v-1.9a7.13,7.13,0,0,0,3.76,1.12c2.05,0,3.08-.62,3.09-1.87a2,2,0,0,0-.52-1.37,3.11,3.11,0,0,0-1.29-.82l-1.7-.57c-.62-.22-1.18-.44-1.7-.66a3.1,3.1,0,0,1-1.29-1A2.81,2.81,0,0,1,813.38,1022.69Z"/><path class="cls-10" d="M823.21,1024v-1.55h1.72v-2.92h1.81v2.92h2.62V1024h-2.62v5.7c0,.77.48,1.16,1.45,1.16h0a2.18,2.18,0,0,0,1.15-.29v1.64a3.61,3.61,0,0,1-1.35.27h0a3.49,3.49,0,0,1-.76-.09,5,5,0,0,1-1-.34,2,2,0,0,1-.93-.89,3,3,0,0,1-.37-1.56V1024Z"/><path class="cls-10" d="M831.57,1029.94a8,8,0,0,1,0-5.1,3.46,3.46,0,0,1,1.13-1.57,4.62,4.62,0,0,1,1.47-.74,6.26,6.26,0,0,1,3.29,0,4.62,4.62,0,0,1,1.47.74,3.38,3.38,0,0,1,1.13,1.57,8,8,0,0,1,0,5.1,3.38,3.38,0,0,1-1.13,1.57,4.62,4.62,0,0,1-1.47.74,6.26,6.26,0,0,1-3.29,0,4.62,4.62,0,0,1-1.47-.74A3.46,3.46,0,0,1,831.57,1029.94Zm1.64-4.37a7.64,7.64,0,0,0,0,3.64,2.09,2.09,0,0,0,.65,1.06,2.41,2.41,0,0,0,.88.46,4.88,4.88,0,0,0,2.15,0,2.41,2.41,0,0,0,.88-.46,2.09,2.09,0,0,0,.65-1.06,7.64,7.64,0,0,0,0-3.64,2.09,2.09,0,0,0-.65-1.06,2.27,2.27,0,0,0-.88-.46,4.88,4.88,0,0,0-2.15,0,2.27,2.27,0,0,0-.88.46A2.09,2.09,0,0,0,833.21,1025.57Z"/><path class="cls-10" d="M842.85,1032.32v-9a13.08,13.08,0,0,1,4.81-1V1024a12.26,12.26,0,0,0-3,.42v8Z"/><path class="cls-10" d="M849,1027.5c0-3.48,1.45-5.21,4.36-5.21h0a4.1,4.1,0,0,1,3.17,1.29,5,5,0,0,1,1.18,3.47q0,.71-.06,1.35h-6.82a2.56,2.56,0,0,0,2.79,2.54,7.21,7.21,0,0,0,3.41-.74v1.65a9,9,0,0,1-3.45.64h-.06a5.38,5.38,0,0,1-1.6-.22,4.48,4.48,0,0,1-1.43-.72,3.26,3.26,0,0,1-1.1-1.54A7,7,0,0,1,849,1027.5Zm1.81-.72h5.08a5.59,5.59,0,0,0-.17-.94,4.21,4.21,0,0,0-.4-.91,1.9,1.9,0,0,0-.77-.74,2.35,2.35,0,0,0-1.19-.28,2.4,2.4,0,0,0-1.84.64A3.82,3.82,0,0,0,850.84,1026.78Z"/><path class="cls-7" d="M567.42,688.82a2.5,2.5,0,0,1-.62,1.66l-9.38,11a2.56,2.56,0,0,1-1.94.89,2.6,2.6,0,0,1-2-.89l-9.38-11a2.56,2.56,0,0,1,3.89-3.33l7.44,8.71,7.44-8.71a2.56,2.56,0,0,1,4.5,1.67Z"/><path class="cls-7" d="M558,641.27V698.6a2.56,2.56,0,1,1-5.12,0V641.27a2.56,2.56,0,1,1,5.12,0Z"/><path class="cls-7" d="M543.54,650.76a2.59,2.59,0,0,1,.61-1.67l9.39-11a2.56,2.56,0,0,1,3.88,0l9.38,11a2.56,2.56,0,1,1-3.88,3.33l-7.44-8.7-7.44,8.7a2.56,2.56,0,0,1-4.5-1.66Z"/><path class="cls-7" d="M721.12,688.82a2.5,2.5,0,0,1-.62,1.66l-9.38,11a2.56,2.56,0,0,1-1.94.89,2.6,2.6,0,0,1-1.95-.89l-9.38-11a2.56,2.56,0,0,1,3.89-3.33l7.44,8.71,7.43-8.71a2.57,2.57,0,0,1,4.51,1.67Z"/><path class="cls-7" d="M711.73,641.27V698.6a2.56,2.56,0,1,1-5.11,0V641.27a2.56,2.56,0,1,1,5.11,0Z"/><path class="cls-7" d="M697.24,650.76a2.59,2.59,0,0,1,.61-1.67l9.38-11a2.6,2.6,0,0,1,1.95-.89,2.56,2.56,0,0,1,1.94.89l9.38,11a2.56,2.56,0,1,1-3.88,3.33l-7.44-8.7-7.44,8.7a2.56,2.56,0,0,1-4.5-1.66Z"/><path class="cls-4" d="M555.66,668.51a6.58,6.58,0,1,1,6.58-6.58A6.59,6.59,0,0,1,555.66,668.51Z"/><path class="cls-8" d="M555.66,657.61a4.32,4.32,0,1,1-4.32,4.32,4.33,4.33,0,0,1,4.32-4.32m0-4.52a8.85,8.85,0,1,0,8.85,8.84,8.84,8.84,0,0,0-8.85-8.84Z"/><circle class="cls-4" cx="709.18" cy="676.78" r="6.58"/><path class="cls-8" d="M709.18,672.46a4.32,4.32,0,1,1-4.32,4.32,4.32,4.32,0,0,1,4.32-4.32m0-4.53a8.85,8.85,0,1,0,8.84,8.85,8.85,8.85,0,0,0-8.84-8.85Z"/><path class="cls-7" d="M567.09,879.07a2.5,2.5,0,0,1-.62,1.66l-9.38,11a2.56,2.56,0,0,1-3.88,0l-9.38-11a2.56,2.56,0,1,1,3.88-3.33l7.44,8.71,7.44-8.71a2.56,2.56,0,0,1,4.5,1.67Z"/><path class="cls-7" d="M557.71,831.52v57.33a2.56,2.56,0,1,1-5.12,0V831.52a2.56,2.56,0,0,1,5.12,0Z"/><path class="cls-7" d="M543.21,841a2.55,2.55,0,0,1,.62-1.67l9.38-11a2.56,2.56,0,0,1,3.88,0l9.39,11a2.56,2.56,0,1,1-3.89,3.33l-7.44-8.7-7.44,8.7a2.56,2.56,0,0,1-4.5-1.66Z"/><circle class="cls-4" cx="555.15" cy="854.8" r="6.58"/><path class="cls-8" d="M555.15,850.48a4.32,4.32,0,1,1-4.32,4.32,4.33,4.33,0,0,1,4.32-4.32m0-4.53A8.85,8.85,0,1,0,564,854.8a8.85,8.85,0,0,0-8.85-8.85Z"/><path class="cls-7" d="M720.79,879.07a2.5,2.5,0,0,1-.62,1.66l-9.38,11a2.56,2.56,0,0,1-3.88,0l-9.39-11a2.56,2.56,0,0,1,3.89-3.33l7.44,8.71,7.44-8.71a2.56,2.56,0,0,1,4.5,1.67Z"/><path class="cls-7" d="M711.41,831.52v57.33a2.56,2.56,0,1,1-5.12,0V831.52a2.56,2.56,0,1,1,5.12,0Z"/><path class="cls-7" d="M696.91,841a2.55,2.55,0,0,1,.62-1.67l9.38-11a2.56,2.56,0,0,1,3.88,0l9.38,11a2.56,2.56,0,1,1-3.88,3.33l-7.44-8.7-7.44,8.7a2.56,2.56,0,0,1-4.5-1.66Z"/><circle class="cls-4" cx="708.4" cy="866.49" r="6.58"/><path class="cls-8" d="M708.4,862.17a4.32,4.32,0,1,1-4.31,4.32,4.32,4.32,0,0,1,4.31-4.32m0-4.53a8.85,8.85,0,1,0,8.85,8.85,8.84,8.84,0,0,0-8.85-8.85Z"/></g></g></svg>