<svg xmlns="http://www.w3.org/2000/svg" viewBox="0 0 1264 1110"><defs><style>.cls-1{isolation:isolate;}.cls-2{font-size:40px;}.cls-17,.cls-18,.cls-2{fill:#1d1d1b;}.cls-18,.cls-2{font-family:MavenProMedium, Maven Pro;}.cls-3{letter-spacing:-0.02em;}.cls-4{letter-spacing:-0.02em;}.cls-5{letter-spacing:-0.03em;}.cls-6{letter-spacing:-0.02em;}.cls-7{letter-spacing:0em;}.cls-8{letter-spacing:-0.01em;}.cls-9{letter-spacing:-0.01em;}.cls-10{letter-spacing:-0.02em;}.cls-11,.cls-13{fill:#efeeed;}.cls-11{mix-blend-mode:multiply;}.cls-12{fill:#020202;}.cls-14{fill:#fff;}.cls-15{fill:#777;}.cls-16{fill:#e5282a;}.cls-18{font-size:19.82px;}.cls-19{letter-spacing:0em;}.cls-20{letter-spacing:-0.01em;}.cls-21{letter-spacing:-0.01em;}</style></defs><g class="cls-1"><g id="Capa_1" data-name="Capa 1"><text class="cls-2" transform="translate(511.55 176.33)">A<tspan class="cls-3" x="26.54" y="0">p</tspan><tspan class="cls-4" x="48.46" y="0">p</tspan><tspan class="cls-5" x="70.33" y="0">l</tspan><tspan class="cls-6" x="80.8" y="0">i</tspan><tspan class="cls-7" x="91.31" y="0">c</tspan><tspan class="cls-8" x="110.25" y="0">a</tspan><tspan class="cls-9" x="131.15" y="0">t</tspan><tspan class="cls-10" x="145.57" y="0">i</tspan><tspan class="cls-9" x="156.46" y="0">on</tspan><tspan x="201.48" y="0">s</tspan></text><rect class="cls-11" x="382.81" y="270.62" width="473.27" height="298.41" rx="11.13"/><rect class="cls-12" x="406.02" y="291.83" width="426.86" height="256.88"/><path class="cls-13" d="M619.81,208.48v71.09a1.09,1.09,0,1,0,2.18,0V208.48a1.09,1.09,0,1,0-2.18,0Z"/><path class="cls-14" d="M434.77,347.22c0-6.2,3.62-10,8.64-10a7.22,7.22,0,0,1,5.3,2.36l-1.41,1.55a5.21,5.21,0,0,0-3.89-1.73c-3.67,0-6.08,3-6.08,7.76s2.41,7.88,6.08,7.88a5.57,5.57,0,0,0,4.33-2.11l1.41,1.5a7.46,7.46,0,0,1-6,2.79C438.42,357.22,434.77,353.52,434.77,347.22Z"/><path class="cls-14" d="M453.41,337.58h6c3.91,0,6.77,1.41,6.77,5.44,0,3.85-2.86,5.7-6.77,5.7h-3.53v8.15h-2.5Zm5.68,9.14c3,0,4.65-1.23,4.65-3.7s-1.65-3.44-4.65-3.44h-3.18v7.14Zm1.79,0,5.88,10.12H464l-5-8.82Z"/><path class="cls-14" d="M471.5,337.58h11.94v2.09H474v6h8v2.09h-8v7h9.76v2.09H471.5Z"/><path class="cls-14" d="M493.2,337.58H496l6.49,19.29h-2.64l-3.32-10.76c-.68-2.15-1.33-4.27-1.92-6.5h-.11c-.62,2.23-1.24,4.35-1.91,6.5l-3.39,10.76h-2.52ZM490.15,349H499v2h-8.85Z"/><path class="cls-14" d="M511,339.67h-6.38v-2.09h15.23v2.09h-6.38v17.2H511Z"/><path class="cls-14" d="M524.44,337.58h11.93v2.09h-9.46v6h8v2.09h-8v7h9.76v2.09H524.44Z"/><path class="cls-14" d="M562.43,351.31v-6.76h-4.06v-1.83l4.15-.14.32-4.59h2v4.59h7v2h-7v6.79c0,2.56.85,3.88,3.62,3.88a9.25,9.25,0,0,0,3.41-.65l.53,1.8a12.53,12.53,0,0,1-4.47.85C563.78,357.22,562.43,354.84,562.43,351.31Z"/><path class="cls-14" d="M576.37,353.16c0-3.2,3-4.76,10.38-5.35-.09-1.94-1-3.59-3.79-3.59a10,10,0,0,0-5,1.71l-1-1.65a12.53,12.53,0,0,1,6.38-2.06c3.91,0,5.82,2.33,5.82,5.88v8.77h-2l-.2-1.94h-.09a9.65,9.65,0,0,1-5.62,2.29C578.58,357.22,576.37,355.72,576.37,353.16Zm10.38,0v-3.7c-6.12.47-8,1.67-8,3.56,0,1.61,1.47,2.26,3.12,2.26A7.81,7.81,0,0,0,586.75,353.13Z"/><path class="cls-14" d="M596.66,355.28h-.09l-.23,1.59H594.4V335.93h2.44v5.7l-.12,2.77h.09a7,7,0,0,1,4.79-2.18c3.85,0,5.94,2.86,5.94,7.27,0,4.88-3.06,7.73-6.44,7.73A7.1,7.1,0,0,1,596.66,355.28Zm8.38-5.76c0-3.15-1.17-5.24-4-5.24a6.07,6.07,0,0,0-4.17,2.12v7.12a6,6,0,0,0,3.85,1.64C603.16,355.16,605,353.05,605,349.52Z"/><path class="cls-14" d="M616.54,352.07V337.9h-5.06v-2H619v16.32c0,2.06,1.12,2.94,2.82,2.94a6.47,6.47,0,0,0,2.68-.65l.62,1.83a8.7,8.7,0,0,1-3.82.85C618.22,357.22,616.54,355.46,616.54,352.07Z"/><path class="cls-14" d="M629,349.69a7.19,7.19,0,0,1,7.29-7.47c4.12,0,6.53,2.68,6.53,6.71a9.68,9.68,0,0,1-.12,1.47H630.57v-1.88h10.64l-.61.67c0-3.38-1.68-5.06-4.3-5.06s-4.94,2-4.94,5.56,2.41,5.59,5.59,5.59a7.78,7.78,0,0,0,4.35-1.35l.88,1.58a9.7,9.7,0,0,1-5.52,1.71C632.36,357.22,629,354.46,629,349.69Z"/><path class="cls-14" d="M651,354.72a2.38,2.38,0,1,1,2.38,2.5A2.38,2.38,0,0,1,651,354.72Z"/><path class="cls-14" d="M668.68,354.72a2.39,2.39,0,1,1,2.38,2.5A2.38,2.38,0,0,1,668.68,354.72Z"/><path class="cls-14" d="M686.33,354.72a2.38,2.38,0,1,1,2.38,2.5A2.38,2.38,0,0,1,686.33,354.72Z"/><path class="cls-14" d="M703.3,361.6c2.5-1.12,3.73-2.7,3.7-5.14l-.53-2.71,1.65,2.32a2.08,2.08,0,0,1-1.65.68,2.11,2.11,0,0,1-2.29-2.21,2.19,2.19,0,0,1,2.35-2.23c1.74,0,2.65,1.44,2.65,3.76,0,3.44-1.94,5.85-5.18,7.06Zm.67-17.41a2.39,2.39,0,1,1,2.38,2.5A2.38,2.38,0,0,1,704,344.19Z"/><path class="cls-14" d="M434.77,395.22c0-6.2,3.62-10,8.64-10a7.22,7.22,0,0,1,5.3,2.36l-1.41,1.55a5.21,5.21,0,0,0-3.89-1.73c-3.67,0-6.08,3-6.08,7.76s2.41,7.88,6.08,7.88a5.57,5.57,0,0,0,4.33-2.11l1.41,1.5a7.46,7.46,0,0,1-6,2.79C438.42,405.22,434.77,401.52,434.77,395.22Z"/><path class="cls-14" d="M453.41,385.58h6c3.91,0,6.77,1.41,6.77,5.44,0,3.85-2.86,5.7-6.77,5.7h-3.53v8.15h-2.5Zm5.68,9.14c3,0,4.65-1.23,4.65-3.7s-1.65-3.44-4.65-3.44h-3.18v7.14Zm1.79,0,5.88,10.12H464l-5-8.82Z"/><path class="cls-14" d="M471.5,385.58h11.94v2.09H474v6h8v2.09h-8v7h9.76v2.09H471.5Z"/><path class="cls-14" d="M493.2,385.58H496l6.49,19.29h-2.64l-3.32-10.76c-.68-2.15-1.33-4.27-1.92-6.5h-.11c-.62,2.23-1.24,4.35-1.91,6.5l-3.39,10.76h-2.52ZM490.15,397H499v2h-8.85Z"/><path class="cls-14" d="M511,387.67h-6.38v-2.09h15.23v2.09h-6.38v17.2H511Z"/><path class="cls-14" d="M524.44,385.58h11.93v2.09h-9.46v6h8v2.09h-8v7h9.76v2.09H524.44Z"/><path class="cls-14" d="M565.64,392.55H559v-2h9.06v14.29h-2.44Zm-1-6.85a1.94,1.94,0,1,1,1.94,1.88A1.82,1.82,0,0,1,564.67,385.7Z"/><path class="cls-14" d="M576.75,390.58h2L579,393h.12c1.5-1.56,3.14-2.77,5.38-2.77,3.38,0,4.94,2,4.94,5.77v8.88H587v-8.56c0-2.7-.94-4-3.27-4-1.7,0-2.85.85-4.5,2.56v10h-2.44Z"/><path class="cls-14" d="M593.43,397.75c0-4.64,3.09-7.53,6.47-7.53a6.12,6.12,0,0,1,4.29,1.83h.06l-.12-2.62v-5.5h2.44v20.94h-2l-.2-1.89h-.09a6.86,6.86,0,0,1-4.68,2.24C595.9,405.22,593.43,402.51,593.43,397.75Zm10.7,3.3v-7.12a5.28,5.28,0,0,0-3.73-1.65c-2.47,0-4.47,2.18-4.47,5.44s1.59,5.44,4.2,5.44A5.39,5.39,0,0,0,604.13,401.05Z"/><path class="cls-14" d="M611.31,397.69a7.19,7.19,0,0,1,7.29-7.47c4.12,0,6.53,2.68,6.53,6.71a9.68,9.68,0,0,1-.12,1.47H612.92v-1.88h10.65l-.62.67c0-3.38-1.67-5.06-4.29-5.06s-4.94,2-4.94,5.56,2.41,5.59,5.59,5.59a7.83,7.83,0,0,0,4.35-1.35l.88,1.58a9.74,9.74,0,0,1-5.53,1.71C614.72,405.22,611.31,402.46,611.31,397.69Z"/><path class="cls-14" d="M634.25,397.46l-5-6.88h2.67l2.27,3.11c.5.8,1.08,1.65,1.67,2.41H636c.53-.76,1.12-1.64,1.62-2.44l2.11-3.08h2.59l-5.06,7.08,5.47,7.21H640l-2.47-3.3c-.62-.79-1.27-1.76-1.88-2.58h-.12c-.59.85-1.18,1.7-1.77,2.61l-2.35,3.27h-2.59Z"/><path class="cls-14" d="M651,402.72a2.38,2.38,0,1,1,2.38,2.5A2.38,2.38,0,0,1,651,402.72Z"/><path class="cls-14" d="M668.68,402.72a2.39,2.39,0,1,1,2.38,2.5A2.38,2.38,0,0,1,668.68,402.72Z"/><path class="cls-14" d="M686.33,402.72a2.38,2.38,0,1,1,2.38,2.5A2.38,2.38,0,0,1,686.33,402.72Z"/><path class="cls-14" d="M703.3,409.6c2.5-1.12,3.73-2.7,3.7-5.14l-.53-2.71,1.65,2.32a2.08,2.08,0,0,1-1.65.68,2.11,2.11,0,0,1-2.29-2.21,2.19,2.19,0,0,1,2.35-2.23c1.74,0,2.65,1.44,2.65,3.76,0,3.44-1.94,5.85-5.18,7.06Zm.67-17.41a2.39,2.39,0,1,1,2.38,2.5A2.38,2.38,0,0,1,704,392.19Z"/><path class="cls-14" d="M435.65,450.78h4.79V435.67h-4.79v-2.09h12.06v2.09h-4.8v15.11h4.8v2.09H435.65Z"/><path class="cls-14" d="M452.91,433.58h2.71l6.17,12.11,1.86,4h.06c-.09-1.91-.33-4.09-.33-6.12v-10h2.35v19.29H463l-6.18-12.12-1.85-4h-.06c.09,2,.33,4,.33,6v10.09h-2.36Z"/><path class="cls-14" d="M470.12,450.37l1.47-1.71a8.11,8.11,0,0,0,5.64,2.38c2.65,0,4.18-1.26,4.18-3,0-2.06-1.5-2.65-3.44-3.47l-2.79-1.24c-1.91-.76-4.15-2.12-4.15-5s2.65-5.12,6.32-5.12a8.43,8.43,0,0,1,5.94,2.39L482,437.2a6.79,6.79,0,0,0-4.74-1.8c-2.23,0-3.73,1.06-3.73,2.79s1.79,2.53,3.44,3.18l2.71,1.21c2.38.94,4.26,2.29,4.26,5.14,0,3.06-2.59,5.5-6.82,5.5A9.81,9.81,0,0,1,470.12,450.37Z"/><path class="cls-14" d="M489.15,433.58h11.93v2.09h-9.46v6h8v2.09h-8v7h9.76v2.09H489.15Z"/><path class="cls-14" d="M506.35,433.58h6c3.91,0,6.76,1.41,6.76,5.44,0,3.85-2.85,5.7-6.76,5.7h-3.53v8.15h-2.5Zm5.67,9.14c3,0,4.65-1.23,4.65-3.7s-1.65-3.44-4.65-3.44h-3.17v7.14Zm1.8,0,5.88,10.12h-2.79l-5-8.82Z"/><path class="cls-14" d="M528.67,435.67h-6.38v-2.09h15.23v2.09h-6.38v17.2h-2.47Z"/><path class="cls-14" d="M559.17,450.78H564V435.67h-4.79v-2.09h12.05v2.09h-4.79v15.11h4.79v2.09H559.17Z"/><path class="cls-14" d="M576.43,433.58h2.7l6.18,12.11,1.85,4h.06c-.09-1.91-.32-4.09-.32-6.12v-10h2.35v19.29h-2.71l-6.17-12.12-1.85-4h-.06c.09,2,.32,4,.32,6v10.09h-2.35Z"/><path class="cls-14" d="M599.25,435.67h-6.38v-2.09H608.1v2.09h-6.38v17.2h-2.47Z"/><path class="cls-14" d="M610.72,443.13c0-6.23,3.06-9.91,7.41-9.91s7.41,3.68,7.41,9.91-3.06,10.09-7.41,10.09S610.72,449.46,610.72,443.13Zm12.26,0c0-4.85-1.94-7.73-4.85-7.73s-4.85,2.88-4.85,7.73,1.94,7.91,4.85,7.91S623,448.07,623,443.13Z"/><path class="cls-14" d="M650.66,447.31v-6.76H646.6v-1.83l4.14-.14.33-4.59h2v4.59h7v2h-7v6.79c0,2.56.85,3.88,3.61,3.88a9.21,9.21,0,0,0,3.41-.65l.53,1.8a12.44,12.44,0,0,1-4.47.85C652,453.22,650.66,450.84,650.66,447.31Z"/><path class="cls-14" d="M664.6,449.16c0-3.2,3-4.76,10.38-5.35-.09-1.94-1-3.59-3.8-3.59a10,10,0,0,0-5,1.71l-1-1.65a12.53,12.53,0,0,1,6.38-2.06c3.91,0,5.83,2.33,5.83,5.88v8.77h-2l-.21-1.94h-.09a9.62,9.62,0,0,1-5.61,2.29C666.8,453.22,664.6,451.72,664.6,449.16Zm10.38,0v-3.7c-6.12.47-8,1.67-8,3.56,0,1.61,1.47,2.26,3.11,2.26A7.83,7.83,0,0,0,675,449.13Z"/><path class="cls-14" d="M684.89,451.28h-.09l-.24,1.59h-1.94V431.93h2.44v5.7L685,440.4H685a7.07,7.07,0,0,1,4.8-2.18c3.85,0,5.94,2.86,5.94,7.27,0,4.88-3.06,7.73-6.44,7.73A7.08,7.08,0,0,1,684.89,451.28Zm8.38-5.76c0-3.15-1.18-5.24-4-5.24a6.07,6.07,0,0,0-4.18,2.12v7.12a6,6,0,0,0,3.85,1.64C691.39,451.16,693.27,449.05,693.27,445.52Z"/><path class="cls-14" d="M704.77,448.07V433.9h-5.06v-2h7.5v16.32c0,2.06,1.11,2.94,2.82,2.94a6.51,6.51,0,0,0,2.68-.65l.61,1.83a8.63,8.63,0,0,1-3.82.85C706.44,453.22,704.77,451.46,704.77,448.07Z"/><path class="cls-14" d="M717.18,445.69a7.19,7.19,0,0,1,7.29-7.47c4.12,0,6.53,2.68,6.53,6.71a9.68,9.68,0,0,1-.12,1.47H718.79v-1.88h10.65l-.62.67c0-3.38-1.67-5.06-4.29-5.06s-4.94,2-4.94,5.56,2.41,5.59,5.59,5.59a7.83,7.83,0,0,0,4.35-1.35l.88,1.58a9.74,9.74,0,0,1-5.53,1.71C720.59,453.22,717.18,450.46,717.18,445.69Z"/><path class="cls-14" d="M739.26,450.72a2.39,2.39,0,1,1,2.38,2.5A2.38,2.38,0,0,1,739.26,450.72Z"/><path class="cls-14" d="M756.91,450.72a2.38,2.38,0,1,1,2.38,2.5A2.38,2.38,0,0,1,756.91,450.72Z"/><path class="cls-14" d="M774.55,450.72a2.39,2.39,0,1,1,2.38,2.5A2.38,2.38,0,0,1,774.55,450.72Z"/><path class="cls-14" d="M791.52,457.6c2.5-1.12,3.74-2.7,3.71-5.14l-.53-2.71,1.64,2.32a2.07,2.07,0,0,1-1.64.68,2.11,2.11,0,0,1-2.3-2.21,2.19,2.19,0,0,1,2.36-2.23c1.73,0,2.64,1.44,2.64,3.76,0,3.44-1.94,5.85-5.17,7.06Zm.68-17.41a2.38,2.38,0,1,1,2.38,2.5A2.38,2.38,0,0,1,792.2,440.19Z"/><path class="cls-14" d="M434.83,498.37l1.47-1.71a8.11,8.11,0,0,0,5.64,2.38c2.65,0,4.18-1.26,4.18-3,0-2.06-1.5-2.65-3.44-3.47l-2.79-1.24c-1.91-.76-4.15-2.12-4.15-5s2.65-5.12,6.32-5.12a8.43,8.43,0,0,1,5.94,2.39l-1.29,1.59a6.79,6.79,0,0,0-4.74-1.8c-2.23,0-3.73,1.06-3.73,2.79s1.79,2.53,3.44,3.18l2.71,1.21c2.38.94,4.26,2.29,4.26,5.14,0,3.06-2.59,5.5-6.82,5.5A9.81,9.81,0,0,1,434.83,498.37Z"/><path class="cls-14" d="M453.86,481.58h11.93v2.09h-9.46v6h8v2.09h-8v7h9.76v2.09H453.86Z"/><path class="cls-14" d="M472.09,481.58h2.44v17.2h9.53v2.09h-12Z"/><path class="cls-14" d="M489.15,481.58h11.93v2.09h-9.46v6h8v2.09h-8v7h9.76v2.09H489.15Z"/><path class="cls-14" d="M505.35,491.22c0-6.2,3.62-10,8.64-10a7.22,7.22,0,0,1,5.3,2.36l-1.41,1.55A5.21,5.21,0,0,0,514,483.4c-3.67,0-6.08,3-6.08,7.76S510.32,499,514,499a5.57,5.57,0,0,0,4.33-2.11l1.41,1.5a7.46,7.46,0,0,1-6,2.79C509,501.22,505.35,497.52,505.35,491.22Z"/><path class="cls-14" d="M528.67,483.67h-6.38v-2.09h15.23v2.09h-6.38v17.2h-2.47Z"/><path class="cls-14" d="M560.28,481.58h11.85v2.09h-9.38v6.49h7.94v2.09h-7.94v8.62h-2.47Z"/><path class="cls-14" d="M576.93,481.58h6c3.91,0,6.76,1.41,6.76,5.44,0,3.85-2.85,5.7-6.76,5.7h-3.53v8.15h-2.5Zm5.67,9.14c3,0,4.65-1.23,4.65-3.7s-1.65-3.44-4.65-3.44h-3.17v7.14Zm1.8,0,5.88,10.12h-2.79l-5-8.82Z"/><path class="cls-14" d="M593.07,491.13c0-6.23,3.06-9.91,7.41-9.91s7.41,3.68,7.41,9.91-3,10.09-7.41,10.09S593.07,497.46,593.07,491.13Zm12.27,0c0-4.85-1.94-7.73-4.86-7.73s-4.85,2.88-4.85,7.73,1.94,7.91,4.85,7.91S605.34,496.07,605.34,491.13Z"/><path class="cls-14" d="M611.43,481.58h3l2.71,8.23.94,3.12h.12l.91-3.12,2.73-8.23h3v19.29h-2.35v-9.65c0-1.88.29-5.17.41-6.82h-.09l-1.08,3.76L619,495.75h-1.76l-2.71-7.59-1.11-3.76h-.06c.17,1.65.41,4.94.41,6.82v9.65h-2.29Z"/><path class="cls-14" d="M650.66,495.31v-6.76H646.6v-1.83l4.14-.14.33-4.59h2v4.59h7v2h-7v6.79c0,2.56.85,3.88,3.61,3.88a9.21,9.21,0,0,0,3.41-.65l.53,1.8a12.44,12.44,0,0,1-4.47.85C652,501.22,650.66,498.84,650.66,495.31Z"/><path class="cls-14" d="M664.6,497.16c0-3.2,3-4.76,10.38-5.35-.09-1.94-1-3.59-3.8-3.59a10,10,0,0,0-5,1.71l-1-1.65a12.53,12.53,0,0,1,6.38-2.06c3.91,0,5.83,2.33,5.83,5.88v8.77h-2l-.21-1.94h-.09a9.62,9.62,0,0,1-5.61,2.29C666.8,501.22,664.6,499.72,664.6,497.16Zm10.38,0v-3.7c-6.12.47-8,1.67-8,3.56,0,1.61,1.47,2.26,3.11,2.26A7.83,7.83,0,0,0,675,497.13Z"/><path class="cls-14" d="M684.89,499.28h-.09l-.24,1.59h-1.94V479.93h2.44v5.7L685,488.4H685a7.07,7.07,0,0,1,4.8-2.18c3.85,0,5.94,2.86,5.94,7.27,0,4.88-3.06,7.73-6.44,7.73A7.08,7.08,0,0,1,684.89,499.28Zm8.38-5.76c0-3.15-1.18-5.24-4-5.24a6.07,6.07,0,0,0-4.18,2.12v7.12a6,6,0,0,0,3.85,1.64C691.39,499.16,693.27,497.05,693.27,493.52Z"/><path class="cls-14" d="M704.77,496.07V481.9h-5.06v-2h7.5v16.32c0,2.06,1.11,2.94,2.82,2.94a6.51,6.51,0,0,0,2.68-.65l.61,1.83a8.63,8.63,0,0,1-3.82.85C706.44,501.22,704.77,499.46,704.77,496.07Z"/><path class="cls-14" d="M717.18,493.69a7.19,7.19,0,0,1,7.29-7.47c4.12,0,6.53,2.68,6.53,6.71a9.68,9.68,0,0,1-.12,1.47H718.79v-1.88h10.65l-.62.67c0-3.38-1.67-5.06-4.29-5.06s-4.94,2-4.94,5.56,2.41,5.59,5.59,5.59a7.83,7.83,0,0,0,4.35-1.35l.88,1.58a9.74,9.74,0,0,1-5.53,1.71C720.59,501.22,717.18,498.46,717.18,493.69Z"/><path class="cls-14" d="M739.26,498.72a2.39,2.39,0,1,1,2.38,2.5A2.38,2.38,0,0,1,739.26,498.72Z"/><path class="cls-14" d="M756.91,498.72a2.38,2.38,0,1,1,2.38,2.5A2.38,2.38,0,0,1,756.91,498.72Z"/><path class="cls-14" d="M774.55,498.72a2.39,2.39,0,1,1,2.38,2.5A2.38,2.38,0,0,1,774.55,498.72Z"/><path class="cls-14" d="M791.52,505.6c2.5-1.12,3.74-2.7,3.71-5.14l-.53-2.71,1.64,2.32a2.07,2.07,0,0,1-1.64.68,2.11,2.11,0,0,1-2.3-2.21,2.19,2.19,0,0,1,2.36-2.23c1.73,0,2.64,1.44,2.64,3.76,0,3.44-1.94,5.85-5.17,7.06Zm.68-17.41a2.38,2.38,0,1,1,2.38,2.5A2.38,2.38,0,0,1,792.2,488.19Z"/><path class="cls-15" d="M614.91,650.61V585.19a4.54,4.54,0,1,1,9.08,0v65.42a4.54,4.54,0,1,1-9.08,0Z"/><path class="cls-15" d="M598.27,633.56a4.53,4.53,0,0,0,1.09,3L616,656a4.54,4.54,0,0,0,6.9,0l16.64-19.47a4.54,4.54,0,1,0-6.89-5.9l-13.2,15.44-13.19-15.44a4.54,4.54,0,0,0-8,2.95Z"/><path class="cls-14" d="M501.53,672.65c-31.92,0-64.93,7.24-64.93,19.35V841.55a7.19,7.19,0,0,0,1.39,4.18,11.85,11.85,0,0,0,1.57,1.83c8.26,8,33.16,13.34,62,13.34s53.75-5.36,62-13.33a11.64,11.64,0,0,0,1.6-1.85,7.2,7.2,0,0,0,1.38-4.17V692C566.5,679.89,533.47,672.65,501.53,672.65Z"/><path class="cls-16" d="M546.05,675.22c-12.06-3.27-28.28-5.14-44.52-5.14S469.09,672,457,675.22c-14.11,3.83-21.57,9.27-21.57,15.73v51.34a8.86,8.86,0,0,0,1.68,5.11,14.12,14.12,0,0,0,1.79,2.08c8.47,8.18,33.63,13.68,62.59,13.68s54.15-5.5,62.63-13.68a13.58,13.58,0,0,0,1.78-2.08,8.8,8.8,0,0,0,1.69-5.11V691C567.63,684.49,560.16,679.05,546.05,675.22Zm15,68.77a7.42,7.42,0,0,1-1,1.19c-7.23,7-31.84,12.05-58.53,12.05s-51.27-5.07-58.49-12a8,8,0,0,1-1-1.2,3,3,0,0,1-.6-1.7V700.14a31.65,31.65,0,0,0,4.41,2.51l.07,0c.8.38,1.64.76,2.53,1.12l.22.09q1.28.52,2.67,1l.34.11c.78.27,1.59.54,2.43.8l.76.24,2.42.69,1.11.29c.8.21,1.61.41,2.44.6l1.42.33,2.43.51,1.62.31,1.94.35c.74.13,1.49.26,2.24.37l1.83.28,2.4.34,2.08.26,1.88.22,2.82.28,1.43.13c1.13.1,2.28.19,3.43.27l1.24.08c1.24.08,2.49.15,3.76.2l.93,0c1.37.06,2.75.11,4.14.14H497c1.52,0,3,.05,4.58.05s3.07,0,4.58-.05h.56c1.39,0,2.77-.08,4.13-.14l.95,0c1.26-.05,2.51-.12,3.75-.2l1.24-.08q1.72-.12,3.42-.27l1.46-.13,2.74-.28,2-.22,2-.26,2.44-.34,1.8-.27,2.27-.38,1.92-.35,1.63-.31c.83-.17,1.64-.34,2.43-.52l1.41-.32q1.26-.28,2.46-.6l1.07-.29c.87-.23,1.72-.47,2.54-.72l.62-.19c.87-.27,1.72-.55,2.54-.84l.26-.09c1-.33,1.87-.68,2.74-1l.15-.06c.91-.37,1.77-.76,2.59-1.15h0a33.14,33.14,0,0,0,4.44-2.52v42.15A2.93,2.93,0,0,1,561.08,744Zm-59.55-68c37.27,0,60.16,8.69,60.16,14.93a3.21,3.21,0,0,1-.61,1.72c-2.62,3.85-11.93,7.78-25.69,10.34l-.12,0-1.57.28-1.62.27h0a192.49,192.49,0,0,1-25.38,2.24h-.86c-.54,0-1.08,0-1.63,0l-2.67,0-2.66,0c-.55,0-1.09,0-1.63,0h-.86a193.32,193.32,0,0,1-25.32-2.23l-.11,0-1.54-.25-1.66-.3h0c-13.76-2.56-23.08-6.49-25.7-10.34a3.13,3.13,0,0,1-.62-1.73C441.41,684.71,464.28,676,501.53,676Z"/><path class="cls-16" d="M564.84,739.32a2.74,2.74,0,0,0-2.74,2.74,3.3,3.3,0,0,1-.65,1.84c-2.36,3.51-9.89,6.93-20.65,9.4a196,196,0,0,1-78.5,0c-10.76-2.47-18.29-5.89-20.65-9.38a3.43,3.43,0,0,1-.65-1.86,2.75,2.75,0,0,0-5.49,0v50.59a8.59,8.59,0,0,0,1.65,5,13.48,13.48,0,0,0,1.75,2c4.23,4.08,12.47,7.53,23.85,10a206,206,0,0,0,77.57,0c11.38-2.45,19.62-5.9,23.84-10a14.42,14.42,0,0,0,1.78-2.06,8.6,8.6,0,0,0,1.64-5V742.06A2.75,2.75,0,0,0,564.84,739.32Zm-2.74,53.33a3.19,3.19,0,0,1-.65,1.83,8.12,8.12,0,0,1-1.06,1.24h0c-3.49,3.38-11.21,6.46-21.72,8.66a200.12,200.12,0,0,1-74.21,0c-10.51-2.21-18.23-5.28-21.73-8.67h0a8.86,8.86,0,0,1-1.05-1.21,3.3,3.3,0,0,1-.65-1.85V750.84c4.5,3.26,11.7,6,21.1,8.11A206,206,0,0,0,541,759c9.41-2.08,16.61-4.85,21.12-8.11Z"/><path class="cls-16" d="M564.84,790a2.75,2.75,0,0,0-2.74,2.75,3.32,3.32,0,0,1-.65,1.84c-2.36,3.51-9.89,6.93-20.65,9.39a195.77,195.77,0,0,1-78.5,0c-10.76-2.47-18.29-5.89-20.65-9.38a3.43,3.43,0,0,1-.65-1.86,2.75,2.75,0,1,0-5.49,0v50.59a8.59,8.59,0,0,0,1.65,5,13.48,13.48,0,0,0,1.75,2c4.23,4.07,12.47,7.52,23.85,10a205.68,205.68,0,0,0,77.57,0c11.38-2.44,19.62-5.89,23.84-10a14.42,14.42,0,0,0,1.78-2.06,8.62,8.62,0,0,0,1.64-5V792.7A2.75,2.75,0,0,0,564.84,790Zm-2.74,53.34a3.19,3.19,0,0,1-.65,1.83,8.12,8.12,0,0,1-1.06,1.24h0c-3.49,3.38-11.21,6.46-21.72,8.66a200.12,200.12,0,0,1-74.21,0c-10.51-2.21-18.23-5.28-21.73-8.67h0a8.39,8.39,0,0,1-1.05-1.22,3.25,3.25,0,0,1-.65-1.84V801.48c4.5,3.25,11.7,6,21.1,8.1a205.78,205.78,0,0,0,78.88,0c9.41-2.08,16.61-4.86,21.12-8.11Z"/><circle class="cls-14" cx="501.55" cy="782.74" r="47.63"/><path class="cls-15" d="M486,812.61a31,31,0,0,0,40.84-9.52,2.39,2.39,0,0,0-.8-3.41h0a2.37,2.37,0,0,0-3.14.74,26.2,26.2,0,1,1-12.42-39.25l-7.77,5.23a2.37,2.37,0,0,0-.64,3.3h0a2.38,2.38,0,0,0,3.3.65l11.28-7.59a2.35,2.35,0,0,0,.88-2.86L512.72,748a2.38,2.38,0,0,0-3.1-1.32h0a2.38,2.38,0,0,0-1.33,3.09l2.62,6.54A31,31,0,0,0,486,812.61Z"/><path class="cls-17" d="M480.55,781.87a4.71,4.71,0,0,1,1.89-4.08,7.88,7.88,0,0,1,4.75-1.38,10.8,10.8,0,0,1,5,1.3V781a8.18,8.18,0,0,0-4.61-1.42,5.92,5.92,0,0,0-2.61.53,1.76,1.76,0,0,0-1.07,1.68,1.62,1.62,0,0,0,1,1.45,10.52,10.52,0,0,0,2.36.88A28.13,28.13,0,0,1,490,785a5.24,5.24,0,0,1,2.37,1.89,5.77,5.77,0,0,1,1,3.47,4.4,4.4,0,0,1-1.87,3.66,7.31,7.31,0,0,1-4.56,1.42,11.7,11.7,0,0,1-6.14-1.56v-3.38a8.75,8.75,0,0,0,5.37,1.78c2.56,0,3.84-.71,3.84-2.14a2.12,2.12,0,0,0-.69-1.61,4.37,4.37,0,0,0-1.76-.94c-.71-.21-1.47-.45-2.28-.73A24.07,24.07,0,0,1,483,786a4.17,4.17,0,0,1-1.75-1.54A4.48,4.48,0,0,1,480.55,781.87Z"/><path class="cls-17" d="M496.51,785.93a13.47,13.47,0,0,1,.54-4,7.94,7.94,0,0,1,1.37-2.75,6.66,6.66,0,0,1,2-1.67,8.22,8.22,0,0,1,2.33-.87,13.64,13.64,0,0,1,2.46-.22,13.42,13.42,0,0,1,2.44.22,8.22,8.22,0,0,1,2.31.87,6.89,6.89,0,0,1,2,1.67,8,8,0,0,1,1.39,2.76,15.44,15.44,0,0,1,.09,7.67,8.67,8.67,0,0,1-1.14,2.63,6.74,6.74,0,0,1-1.72,1.73,7.54,7.54,0,0,1-2,1,10.4,10.4,0,0,1-2.18.43,2,2,0,0,0,.94,1.86,4.31,4.31,0,0,0,2.26.57v2.62q-6,0-6-5.08a9,9,0,0,1-2.63-.72,7.78,7.78,0,0,1-2.25-1.57,7,7,0,0,1-1.67-2.87A13.73,13.73,0,0,1,496.51,785.93Zm3.77-3.44a14.72,14.72,0,0,0,0,6.9,4,4,0,0,0,1.24,2,4.58,4.58,0,0,0,1.67.88,9.92,9.92,0,0,0,4.06,0,4.54,4.54,0,0,0,1.68-.88,4,4,0,0,0,1.24-2,14.72,14.72,0,0,0,0-6.9,4,4,0,0,0-1.24-2,4.54,4.54,0,0,0-1.68-.88,9.48,9.48,0,0,0-4.06,0,4.58,4.58,0,0,0-1.67.88A4,4,0,0,0,500.28,782.49Z"/><path class="cls-17" d="M517.71,795.26V776.63h3.36v15.46h9v3.17Z"/><path class="cls-16" d="M464,891.58s-3.88,5.88,3.75,7.08c.74.09,6.27.67,7.69,2.48,0,0-.13-3.13-4.61-5S464.49,893.87,464,891.58Z"/><path class="cls-16" d="M467.77,878.93s-10.86,6.62-.63,13.2c2,1.27,9.11,4.85,8.9,8.13,0,0,4.33-6.41-2-10.43C467.55,885.7,465.92,881.31,467.77,878.93Z"/><path class="cls-16" d="M479,885.4c-4.65-4.87-5.94-7.88-4-11.78,0,0-13.89,5.34-.18,14.82,4.91,3.4,4.09,6.86,4.09,7C479.72,894.63,483.63,890.28,479,885.4Z"/><text class="cls-18" transform="translate(486.55 895.04)"><tspan class="cls-19">N</tspan><tspan class="cls-20" x="14.56" y="0">O</tspan><tspan class="cls-21" x="29.13" y="0">D</tspan><tspan x="42.31" y="0">E</tspan></text><path class="cls-14" d="M737.78,672.65c-31.92,0-64.94,7.24-64.94,19.35V841.55a7.27,7.27,0,0,0,1.39,4.18,11.38,11.38,0,0,0,1.58,1.83c8.25,8,33.16,13.34,62,13.34s53.74-5.36,62-13.33a12.13,12.13,0,0,0,1.59-1.85,7.21,7.21,0,0,0,1.39-4.17V692C802.75,679.89,769.71,672.65,737.78,672.65Z"/><path class="cls-16" d="M782.29,675.22c-12.06-3.27-28.28-5.14-44.51-5.14s-32.45,1.87-44.5,5.14c-14.11,3.83-21.57,9.27-21.57,15.73v51.34a8.8,8.8,0,0,0,1.69,5.11,13.55,13.55,0,0,0,1.79,2.08c8.46,8.18,33.62,13.68,62.59,13.68s54.15-5.5,62.62-13.68a13.63,13.63,0,0,0,1.79-2.08,8.79,8.79,0,0,0,1.68-5.11V691C803.87,684.49,796.41,679.05,782.29,675.22Zm15,68.77a8,8,0,0,1-1,1.19c-7.23,7-31.83,12.05-58.52,12.05s-51.27-5.07-58.49-12a8,8,0,0,1-1-1.2,3,3,0,0,1-.61-1.7V700.14a32.24,32.24,0,0,0,4.41,2.51l.07,0c.81.38,1.65.76,2.53,1.12l.22.09c.86.35,1.75.69,2.68,1l.33.11c.79.27,1.6.54,2.43.8l.76.24,2.43.69,1.11.29c.79.21,1.61.41,2.43.6l1.42.33,2.43.51,1.62.31,2,.35c.73.13,1.48.26,2.23.37l1.84.28,2.39.34,2.08.26,1.89.22,2.82.28,1.43.13c1.13.1,2.27.19,3.43.27l1.23.08c1.24.08,2.5.15,3.76.2l.93,0c1.37.06,2.75.11,4.14.14h.56c1.51,0,3,.05,4.58.05s3.06,0,4.57-.05h.57c1.39,0,2.76-.08,4.13-.14l.94,0c1.27-.05,2.52-.12,3.76-.2l1.23-.08c1.15-.08,2.3-.17,3.42-.27l1.47-.13,2.74-.28,2-.22,2-.26,2.43-.34,1.8-.27,2.27-.38,1.93-.35,1.63-.31,2.43-.52,1.41-.32q1.25-.28,2.46-.6l1.07-.29c.86-.23,1.71-.47,2.54-.72l.62-.19c.87-.27,1.72-.55,2.53-.84l.27-.09c1-.33,1.86-.68,2.74-1l.15-.06c.9-.37,1.76-.76,2.58-1.15h0a33.62,33.62,0,0,0,4.43-2.52v42.15A3,3,0,0,1,797.33,744Zm-59.55-68c37.27,0,60.15,8.69,60.15,14.93a3.13,3.13,0,0,1-.61,1.72c-2.61,3.85-11.93,7.78-25.69,10.34l-.12,0-1.56.28-1.63.27h0a192.33,192.33,0,0,1-25.38,2.24h-.86l-1.62,0-2.67,0-2.67,0-1.63,0h-.86a193.47,193.47,0,0,1-25.32-2.23l-.11,0-1.53-.25L704,703h0c-13.76-2.56-23.08-6.49-25.7-10.34a3.21,3.21,0,0,1-.62-1.73C677.65,684.71,700.53,676,737.78,676Z"/><path class="cls-16" d="M801.09,739.32a2.75,2.75,0,0,0-2.75,2.74,3.36,3.36,0,0,1-.64,1.84c-2.37,3.51-9.9,6.93-20.66,9.4a196,196,0,0,1-78.5,0c-10.76-2.47-18.28-5.89-20.64-9.38a3.37,3.37,0,0,1-.66-1.86,2.75,2.75,0,0,0-5.49,0v50.59a8.67,8.67,0,0,0,1.65,5,14.07,14.07,0,0,0,1.75,2c4.23,4.08,12.48,7.53,23.85,10a206,206,0,0,0,77.57,0c11.38-2.45,19.62-5.9,23.85-10a13.76,13.76,0,0,0,1.77-2.06,8.6,8.6,0,0,0,1.64-5V742.06A2.74,2.74,0,0,0,801.09,739.32Zm-2.75,53.33a3.25,3.25,0,0,1-.64,1.83,7.64,7.64,0,0,1-1.07,1.24h0c-3.5,3.38-11.22,6.46-21.73,8.66a200.12,200.12,0,0,1-74.21,0c-10.5-2.21-18.22-5.28-21.73-8.67h0a8.16,8.16,0,0,1-1-1.21,3.24,3.24,0,0,1-.66-1.85V750.84c4.51,3.26,11.7,6,21.11,8.11a206,206,0,0,0,78.87,0c9.41-2.08,16.62-4.85,21.12-8.11Z"/><path class="cls-16" d="M801.09,790a2.75,2.75,0,0,0-2.75,2.75,3.38,3.38,0,0,1-.64,1.84c-2.37,3.51-9.9,6.93-20.66,9.39a195.77,195.77,0,0,1-78.5,0c-10.76-2.47-18.28-5.89-20.64-9.38a3.37,3.37,0,0,1-.66-1.86,2.75,2.75,0,1,0-5.49,0v50.59a8.67,8.67,0,0,0,1.65,5,14.07,14.07,0,0,0,1.75,2c4.23,4.07,12.48,7.52,23.85,10a205.68,205.68,0,0,0,77.57,0c11.38-2.44,19.62-5.89,23.85-10a13.76,13.76,0,0,0,1.77-2.06,8.62,8.62,0,0,0,1.64-5V792.7A2.75,2.75,0,0,0,801.09,790Zm-2.75,53.34a3.25,3.25,0,0,1-.64,1.83,7.64,7.64,0,0,1-1.07,1.24h0c-3.5,3.38-11.22,6.46-21.73,8.66a200.12,200.12,0,0,1-74.21,0c-10.5-2.21-18.22-5.28-21.73-8.67h0a7.77,7.77,0,0,1-1-1.22,3.19,3.19,0,0,1-.66-1.84V801.48c4.51,3.25,11.7,6,21.11,8.1a205.72,205.72,0,0,0,78.87,0c9.41-2.08,16.62-4.86,21.12-8.11Z"/><circle class="cls-14" cx="737.79" cy="782.74" r="47.63"/><path class="cls-15" d="M722.22,812.61a31,31,0,0,0,40.83-9.52,2.37,2.37,0,0,0-.8-3.41h0a2.38,2.38,0,0,0-3.14.74,26.2,26.2,0,1,1-12.42-39.25l-7.76,5.23a2.38,2.38,0,0,0-.65,3.3h0a2.39,2.39,0,0,0,3.31.65l11.28-7.59a2.45,2.45,0,0,0,.74-.8,2.4,2.4,0,0,0,.14-2.06L749,748a2.38,2.38,0,0,0-3.1-1.32h0a2.37,2.37,0,0,0-1.32,3.09l2.62,6.54a31,31,0,0,0-24.94,56.35Z"/><path class="cls-17" d="M716.79,781.87a4.71,4.71,0,0,1,1.9-4.08,7.83,7.83,0,0,1,4.74-1.38,10.84,10.84,0,0,1,5,1.3V781a8.23,8.23,0,0,0-4.61-1.42,5.86,5.86,0,0,0-2.61.53,1.74,1.74,0,0,0-1.07,1.68,1.6,1.6,0,0,0,1,1.45,10.71,10.71,0,0,0,2.36.88,28.13,28.13,0,0,1,2.78.91,5.24,5.24,0,0,1,2.37,1.89,5.77,5.77,0,0,1,1,3.47,4.37,4.37,0,0,1-1.87,3.66,7.26,7.26,0,0,1-4.55,1.42,11.76,11.76,0,0,1-6.15-1.56v-3.38a8.77,8.77,0,0,0,5.37,1.78c2.56,0,3.85-.71,3.85-2.14a2.13,2.13,0,0,0-.7-1.61,4.31,4.31,0,0,0-1.76-.94c-.71-.21-1.47-.45-2.28-.73s-1.56-.58-2.27-.9a4.2,4.2,0,0,1-1.76-1.54A4.55,4.55,0,0,1,716.79,781.87Z"/><path class="cls-17" d="M732.76,785.93a13.82,13.82,0,0,1,.53-4,7.94,7.94,0,0,1,1.37-2.75,6.59,6.59,0,0,1,2-1.67,8.11,8.11,0,0,1,2.33-.87,13.53,13.53,0,0,1,2.45-.22,13.33,13.33,0,0,1,2.44.22,8.17,8.17,0,0,1,2.32.87,7,7,0,0,1,2,1.67,8,8,0,0,1,1.38,2.76,15.6,15.6,0,0,1,.1,7.67,8.67,8.67,0,0,1-1.15,2.63,6.44,6.44,0,0,1-1.72,1.73,7.49,7.49,0,0,1-2,1,10.62,10.62,0,0,1-2.19.43,2,2,0,0,0,1,1.86,4.27,4.27,0,0,0,2.25.57v2.62q-6,0-6-5.08a9,9,0,0,1-2.63-.72,7.78,7.78,0,0,1-2.25-1.57,6.93,6.93,0,0,1-1.66-2.87A13.73,13.73,0,0,1,732.76,785.93Zm3.77-3.44a14.38,14.38,0,0,0,0,6.9,4,4,0,0,0,1.24,2,4.55,4.55,0,0,0,1.66.88,9.92,9.92,0,0,0,4.06,0,4.54,4.54,0,0,0,1.68-.88,4,4,0,0,0,1.24-2,14.38,14.38,0,0,0,0-6.9,4,4,0,0,0-1.24-2,4.54,4.54,0,0,0-1.68-.88,9.48,9.48,0,0,0-4.06,0,4.55,4.55,0,0,0-1.66.88A4,4,0,0,0,736.53,782.49Z"/><path class="cls-17" d="M754,795.26V776.63h3.35v15.46h9v3.17Z"/><path class="cls-16" d="M700.24,891.58s-3.88,5.88,3.74,7.08c.75.09,6.27.67,7.7,2.48,0,0-.13-3.13-4.62-5S700.73,893.87,700.24,891.58Z"/><path class="cls-16" d="M704,878.93s-10.85,6.62-.62,13.2c2,1.27,9.11,4.85,8.9,8.13,0,0,4.32-6.41-2-10.43C703.8,885.7,702.17,881.31,704,878.93Z"/><path class="cls-16" d="M715.23,885.4c-4.65-4.87-6-7.88-4-11.78,0,0-13.89,5.34-.18,14.82,4.92,3.4,4.09,6.86,4.1,7C716,894.63,719.88,890.28,715.23,885.4Z"/><text class="cls-18" transform="translate(722.79 895.04)"><tspan class="cls-19">N</tspan><tspan class="cls-20" x="14.56" y="0">O</tspan><tspan class="cls-21" x="29.13" y="0">D</tspan><tspan x="42.31" y="0">E</tspan></text><path class="cls-14" d="M619.24,707.42c-31.92,0-64.94,7.24-64.94,19.35V876.32a7.27,7.27,0,0,0,1.39,4.18,11.9,11.9,0,0,0,1.58,1.83c8.26,8,33.16,13.34,62,13.34s53.74-5.36,62-13.33a12.13,12.13,0,0,0,1.59-1.85,7.21,7.21,0,0,0,1.39-4.17V726.77C684.21,714.66,651.17,707.42,619.24,707.42Z"/><path class="cls-16" d="M663.75,710c-12-3.27-28.28-5.14-44.51-5.14s-32.44,1.87-44.5,5.14c-14.11,3.83-21.56,9.27-21.56,15.73v51.34a8.79,8.79,0,0,0,1.68,5.11,13.55,13.55,0,0,0,1.79,2.08c8.46,8.18,33.62,13.68,62.59,13.68s54.15-5.5,62.62-13.68a13.63,13.63,0,0,0,1.79-2.08,8.79,8.79,0,0,0,1.68-5.11V725.72C685.33,719.26,677.87,713.82,663.75,710Zm15,68.77a8,8,0,0,1-1,1.19c-7.23,7-31.83,12-58.52,12s-51.27-5.07-58.49-12a8,8,0,0,1-1-1.2,3,3,0,0,1-.61-1.7V734.91a34,34,0,0,0,4.41,2.51l.07,0c.81.38,1.65.76,2.53,1.12l.22.09c.86.35,1.75.69,2.68,1l.33.11c.79.27,1.6.54,2.43.8l.76.24,2.43.69,1.11.29c.79.21,1.61.41,2.43.6l1.42.33,2.43.51,1.62.31,1.95.35,2.23.37,1.84.28,2.39.34,2.08.26,1.89.22,2.82.28,1.43.13c1.13.1,2.27.19,3.43.27l1.23.08c1.24.08,2.5.15,3.76.2l.93,0c1.37.06,2.75.11,4.15.14h.55c1.51,0,3,.05,4.58.05s3.06,0,4.57-.05h.57c1.39,0,2.76-.08,4.13-.14l.94,0c1.27-.05,2.52-.12,3.76-.2l1.24-.08c1.15-.08,2.29-.17,3.41-.27l1.47-.13,2.74-.28,2-.22,2.05-.26,2.43-.34,1.8-.27,2.27-.38,1.93-.35,1.63-.31,2.43-.52,1.41-.32c.83-.19,1.66-.39,2.46-.6l1.07-.29c.86-.23,1.71-.47,2.54-.72l.62-.2c.87-.27,1.72-.54,2.53-.83l.27-.09c.95-.33,1.86-.68,2.74-1l.15-.06c.9-.37,1.76-.76,2.58-1.15h0a33,33,0,0,0,4.43-2.52v42.15A3,3,0,0,1,678.79,778.76Zm-59.55-68c37.27,0,60.15,8.69,60.15,14.93a3.13,3.13,0,0,1-.61,1.72c-2.61,3.85-11.93,7.78-25.69,10.34l-.12,0-1.56.28-1.63.27h0a192.33,192.33,0,0,1-25.38,2.24h-.86l-1.62,0-2.67,0-2.67,0-1.63,0h-.86a193.63,193.63,0,0,1-25.32-2.23l-.1,0-1.54-.25-1.66-.3h0c-13.76-2.56-23.08-6.49-25.7-10.34a3.23,3.23,0,0,1-.62-1.73C559.11,719.48,582,710.79,619.24,710.79Z"/><path class="cls-16" d="M682.55,774.08a2.75,2.75,0,0,0-2.75,2.75,3.36,3.36,0,0,1-.64,1.84c-2.37,3.51-9.9,6.93-20.66,9.4a196,196,0,0,1-78.5,0c-10.76-2.47-18.28-5.89-20.64-9.38a3.37,3.37,0,0,1-.66-1.86,2.75,2.75,0,1,0-5.49,0v50.59a8.67,8.67,0,0,0,1.65,5,13.53,13.53,0,0,0,1.76,2c4.22,4.08,12.47,7.53,23.84,10a205.68,205.68,0,0,0,77.57,0c11.38-2.44,19.63-5.89,23.85-10a13.76,13.76,0,0,0,1.77-2.06,8.6,8.6,0,0,0,1.64-5V776.83A2.75,2.75,0,0,0,682.55,774.08Zm-2.75,53.34a3.25,3.25,0,0,1-.64,1.83,7.64,7.64,0,0,1-1.07,1.24h0c-3.5,3.38-11.22,6.46-21.73,8.66a200.12,200.12,0,0,1-74.21,0c-10.5-2.21-18.22-5.28-21.73-8.67h0a7.77,7.77,0,0,1-1-1.22,3.19,3.19,0,0,1-.66-1.84V785.61c4.51,3.26,11.71,6,21.11,8.11a206,206,0,0,0,78.87,0c9.41-2.08,16.62-4.85,21.12-8.11Z"/><path class="cls-16" d="M682.55,824.72a2.75,2.75,0,0,0-2.75,2.75,3.38,3.38,0,0,1-.64,1.84c-2.37,3.51-9.9,6.93-20.66,9.39a195.53,195.53,0,0,1-78.5,0c-10.76-2.46-18.28-5.88-20.64-9.37a3.37,3.37,0,0,1-.66-1.86,2.75,2.75,0,1,0-5.49,0v50.59a8.67,8.67,0,0,0,1.65,5,13.47,13.47,0,0,0,1.75,2c4.23,4.08,12.48,7.53,23.85,10a205.68,205.68,0,0,0,77.57,0c11.38-2.44,19.63-5.89,23.85-10a13.76,13.76,0,0,0,1.77-2.06,8.62,8.62,0,0,0,1.64-5V827.47A2.75,2.75,0,0,0,682.55,824.72Zm-2.75,53.34a3.25,3.25,0,0,1-.64,1.83,7.64,7.64,0,0,1-1.07,1.24h0c-3.5,3.38-11.22,6.46-21.73,8.66a200.12,200.12,0,0,1-74.21,0c-10.5-2.21-18.22-5.29-21.73-8.67h0a7.77,7.77,0,0,1-1-1.22,3.19,3.19,0,0,1-.66-1.84V836.25c4.51,3.25,11.7,6,21.11,8.1a205.72,205.72,0,0,0,78.87,0c9.41-2.08,16.62-4.86,21.12-8.11Z"/><circle class="cls-14" cx="619.25" cy="817.51" r="47.63"/><path class="cls-15" d="M603.68,847.38a31,31,0,0,0,40.83-9.52,2.37,2.37,0,0,0-.8-3.41h0a2.38,2.38,0,0,0-3.14.74,26.2,26.2,0,1,1-12.42-39.25l-7.76,5.23a2.38,2.38,0,0,0-.65,3.3h0a2.39,2.39,0,0,0,3.31.65l11.28-7.59a2.45,2.45,0,0,0,.74-.8,2.4,2.4,0,0,0,.14-2.06l-4.79-11.95a2.38,2.38,0,0,0-3.1-1.32h0a2.37,2.37,0,0,0-1.32,3.09l2.62,6.54a31,31,0,0,0-24.94,56.35Z"/><path class="cls-17" d="M598.25,816.64a4.71,4.71,0,0,1,1.9-4.08,7.83,7.83,0,0,1,4.74-1.38,10.84,10.84,0,0,1,5,1.3v3.29a8.2,8.2,0,0,0-4.61-1.42,5.73,5.73,0,0,0-2.61.53,1.74,1.74,0,0,0-1.07,1.68,1.6,1.6,0,0,0,1,1.45,10.71,10.71,0,0,0,2.36.88,28.13,28.13,0,0,1,2.78.91,5.26,5.26,0,0,1,2.38,1.89,5.82,5.82,0,0,1,1,3.47,4.37,4.37,0,0,1-1.87,3.66,7.26,7.26,0,0,1-4.55,1.42,11.76,11.76,0,0,1-6.15-1.56V825.3a8.77,8.77,0,0,0,5.37,1.78c2.56,0,3.85-.71,3.85-2.14a2.13,2.13,0,0,0-.7-1.61,4.32,4.32,0,0,0-1.76-1c-.71-.2-1.47-.44-2.27-.72s-1.57-.58-2.28-.9a4.2,4.2,0,0,1-1.76-1.54A4.55,4.55,0,0,1,598.25,816.64Z"/><path class="cls-17" d="M614.22,820.7a13.82,13.82,0,0,1,.53-4,8.12,8.12,0,0,1,1.37-2.75,6.7,6.7,0,0,1,2-1.67,8.11,8.11,0,0,1,2.33-.87,13.53,13.53,0,0,1,2.45-.22,13.33,13.33,0,0,1,2.44.22,8.17,8.17,0,0,1,2.32.87,6.87,6.87,0,0,1,2,1.67,7.74,7.74,0,0,1,1.38,2.76,13.44,13.44,0,0,1,.53,4,13.93,13.93,0,0,1-.43,3.66,8.67,8.67,0,0,1-1.15,2.63,6.44,6.44,0,0,1-1.72,1.73,7.49,7.49,0,0,1-2,1,10.62,10.62,0,0,1-2.19.43,2,2,0,0,0,1,1.85,4.19,4.19,0,0,0,2.25.58v2.62q-6,0-6-5.08a9,9,0,0,1-2.63-.72,7.78,7.78,0,0,1-2.25-1.57,6.93,6.93,0,0,1-1.66-2.87A13.73,13.73,0,0,1,614.22,820.7Zm3.77-3.44a14.38,14.38,0,0,0,0,6.9,4,4,0,0,0,1.24,2,4.55,4.55,0,0,0,1.66.88,8.53,8.53,0,0,0,2,.21,8.62,8.62,0,0,0,2-.21,4.58,4.58,0,0,0,1.67-.88,3.93,3.93,0,0,0,1.24-2,14.38,14.38,0,0,0,0-6.9,3.93,3.93,0,0,0-1.24-2,4.58,4.58,0,0,0-1.67-.88,8.58,8.58,0,0,0-2-.22,8.48,8.48,0,0,0-2,.22,4.55,4.55,0,0,0-1.66.88A4,4,0,0,0,618,817.26Z"/><path class="cls-17" d="M635.42,830V811.4h3.35v15.46h9V830Z"/><path class="cls-16" d="M581.7,926.35s-3.88,5.88,3.74,7.08c.75.09,6.27.67,7.7,2.48,0,0-.13-3.13-4.62-5S582.19,928.64,581.7,926.35Z"/><path class="cls-16" d="M585.47,913.7s-10.85,6.62-.62,13.2c2,1.27,9.11,4.85,8.9,8.13,0,0,4.32-6.41-2-10.43C585.26,920.47,583.63,916.08,585.47,913.7Z"/><path class="cls-16" d="M596.69,920.17c-4.65-4.87-5.94-7.88-4-11.78,0,0-13.89,5.34-.18,14.82,4.92,3.4,4.1,6.86,4.1,7C597.42,929.4,601.34,925.05,596.69,920.17Z"/><text class="cls-18" transform="translate(604.25 929.81)"><tspan class="cls-19">N</tspan><tspan class="cls-20" x="14.56" y="0">O</tspan><tspan class="cls-21" x="29.13" y="0">D</tspan><tspan x="42.31" y="0">E</tspan></text></g></g></svg>