<svg xmlns="http://www.w3.org/2000/svg" viewBox="0 0 507.39 861.65"><defs><style>.cls-1{isolation:isolate;}.cls-2{font-size:40px;}.cls-17,.cls-18,.cls-2{fill:#1d1d1b;}.cls-18,.cls-2{font-family:MavenProMedium, Maven Pro;}.cls-3{letter-spacing:-0.02em;}.cls-4{letter-spacing:-0.02em;}.cls-5{letter-spacing:-0.03em;}.cls-6{letter-spacing:-0.02em;}.cls-7{letter-spacing:0em;}.cls-8{letter-spacing:-0.01em;}.cls-9{letter-spacing:-0.01em;}.cls-10{letter-spacing:-0.02em;}.cls-11,.cls-13{fill:#efeeed;}.cls-11{mix-blend-mode:multiply;}.cls-12{fill:#020202;}.cls-14{fill:#fff;}.cls-15{fill:#777;}.cls-16{fill:#e5282a;}.cls-18{font-size:19.82px;}.cls-19{letter-spacing:0em;}.cls-20{letter-spacing:-0.01em;}.cls-21{letter-spacing:-0.01em;}</style></defs><g class="cls-1"><g id="Capa_1" data-name="Capa 1"><text class="cls-2" transform="translate(144.24 67.71)">A<tspan class="cls-3" x="26.54" y="0">p</tspan><tspan class="cls-4" x="48.46" y="0">p</tspan><tspan class="cls-5" x="70.33" y="0">l</tspan><tspan class="cls-6" x="80.8" y="0">i</tspan><tspan class="cls-7" x="91.31" y="0">c</tspan><tspan class="cls-8" x="110.25" y="0">a</tspan><tspan class="cls-9" x="131.15" y="0">t</tspan><tspan class="cls-10" x="145.57" y="0">i</tspan><tspan class="cls-9" x="156.46" y="0">on</tspan><tspan x="201.48" y="0">s</tspan></text><rect class="cls-11" x="17.06" y="161.99" width="473.27" height="298.41" rx="11.13"/><rect class="cls-12" x="40.27" y="183.21" width="426.86" height="256.88"/><path class="cls-13" d="M252.6,99.86V171a1.1,1.1,0,0,0,2.19,0V99.86a1.1,1.1,0,0,0-2.19,0Z"/><path class="cls-14" d="M70.33,238.6c0-6.2,3.62-10,8.65-10A7.22,7.22,0,0,1,84.27,231l-1.41,1.55A5.19,5.19,0,0,0,79,230.78c-3.68,0-6.09,3-6.09,7.76s2.41,7.88,6.09,7.88a5.55,5.55,0,0,0,4.32-2.11l1.41,1.5a7.46,7.46,0,0,1-6,2.79C74,248.6,70.33,244.89,70.33,238.6Z"/><path class="cls-14" d="M89,229h6c3.91,0,6.76,1.41,6.76,5.44,0,3.85-2.85,5.7-6.76,5.7H91.48v8.15H89Zm5.67,9.14c3,0,4.65-1.23,4.65-3.7S97.65,231,94.65,231H91.48v7.14Zm1.8,0,5.88,10.12h-2.8l-5-8.82Z"/><path class="cls-14" d="M107.06,229H119V231h-9.47v6h8v2.09h-8v7h9.77v2.09H107.06Z"/><path class="cls-14" d="M128.77,229h2.82l6.5,19.29h-2.65l-3.32-10.77c-.68-2.14-1.32-4.26-1.91-6.49h-.12c-.62,2.23-1.23,4.35-1.91,6.49l-3.38,10.77h-2.53Zm-3.06,11.44h8.85v2h-8.85Z"/><path class="cls-14" d="M146.59,231h-6.38V229h15.23V231h-6.38v17.21h-2.47Z"/><path class="cls-14" d="M160,229h11.94V231h-9.47v6h8v2.09h-8v7h9.76v2.09H160Z"/><path class="cls-14" d="M198,242.69v-6.76h-4.05V234.1l4.14-.14.33-4.59h2V234h7v2h-7v6.79c0,2.56.86,3.88,3.62,3.88a9.21,9.21,0,0,0,3.41-.65l.53,1.8a12.44,12.44,0,0,1-4.47.85C199.35,248.6,198,246.22,198,242.69Z"/><path class="cls-14" d="M211.93,244.54c0-3.2,3-4.76,10.38-5.35-.08-1.94-1-3.59-3.79-3.59a9.93,9.93,0,0,0-5,1.71l-1-1.65a12.53,12.53,0,0,1,6.38-2.06c3.91,0,5.82,2.33,5.82,5.88v8.77h-2l-.21-1.94h-.09a9.62,9.62,0,0,1-5.61,2.29C214.14,248.6,211.93,247.1,211.93,244.54Zm10.38,0v-3.7c-6.11.47-8,1.67-8,3.55,0,1.62,1.47,2.27,3.11,2.27A7.78,7.78,0,0,0,222.31,244.51Z"/><path class="cls-14" d="M232.23,246.66h-.09l-.24,1.59H230V227.31h2.44V233l-.11,2.77h.08a7.07,7.07,0,0,1,4.8-2.18c3.85,0,5.94,2.85,5.94,7.27,0,4.88-3.06,7.73-6.44,7.73A7.06,7.06,0,0,1,232.23,246.66Zm8.38-5.76c0-3.15-1.18-5.24-4-5.24a6.07,6.07,0,0,0-4.18,2.12v7.11a6,6,0,0,0,3.85,1.65C238.72,246.54,240.61,244.42,240.61,240.9Z"/><path class="cls-14" d="M252.11,243.45V229.28h-5.06v-2h7.5v16.32c0,2.06,1.11,2.94,2.82,2.94a6.47,6.47,0,0,0,2.67-.65l.62,1.83a8.77,8.77,0,0,1-3.82.85C253.78,248.6,252.11,246.84,252.11,243.45Z"/><path class="cls-14" d="M264.52,241.07a7.19,7.19,0,0,1,7.29-7.47c4.11,0,6.53,2.68,6.53,6.71a9.68,9.68,0,0,1-.12,1.47H266.13V239.9h10.65l-.62.67c0-3.38-1.68-5.06-4.29-5.06s-4.94,2-4.94,5.56c0,3.71,2.41,5.59,5.58,5.59a7.84,7.84,0,0,0,4.36-1.35l.88,1.58a9.81,9.81,0,0,1-5.53,1.71C267.93,248.6,264.52,245.84,264.52,241.07Z"/><path class="cls-14" d="M286.6,246.1a2.38,2.38,0,1,1,2.38,2.5A2.38,2.38,0,0,1,286.6,246.1Z"/><path class="cls-14" d="M304.25,246.1a2.38,2.38,0,1,1,2.38,2.5A2.38,2.38,0,0,1,304.25,246.1Z"/><path class="cls-14" d="M321.89,246.1a2.38,2.38,0,1,1,2.38,2.5A2.38,2.38,0,0,1,321.89,246.1Z"/><path class="cls-14" d="M338.86,253c2.5-1.12,3.73-2.71,3.7-5.15l-.52-2.7,1.64,2.32a2.07,2.07,0,0,1-1.64.68,2.11,2.11,0,0,1-2.3-2.21,2.19,2.19,0,0,1,2.35-2.23c1.74,0,2.65,1.44,2.65,3.76,0,3.44-1.94,5.85-5.17,7.06Zm.68-17.41a2.38,2.38,0,1,1,2.38,2.5A2.38,2.38,0,0,1,339.54,235.57Z"/><path class="cls-14" d="M70.33,286.6c0-6.2,3.62-10,8.65-10A7.22,7.22,0,0,1,84.27,279l-1.41,1.55A5.19,5.19,0,0,0,79,278.78c-3.68,0-6.09,3-6.09,7.76s2.41,7.88,6.09,7.88a5.55,5.55,0,0,0,4.32-2.11l1.41,1.5a7.46,7.46,0,0,1-6,2.79C74,296.6,70.33,292.89,70.33,286.6Z"/><path class="cls-14" d="M89,277h6c3.91,0,6.76,1.41,6.76,5.44,0,3.85-2.85,5.7-6.76,5.7H91.48v8.15H89Zm5.67,9.14c3,0,4.65-1.23,4.65-3.7S97.65,279,94.65,279H91.48v7.14Zm1.8,0,5.88,10.12h-2.8l-5-8.82Z"/><path class="cls-14" d="M107.06,277H119V279h-9.47v6h8v2.09h-8v7h9.77v2.09H107.06Z"/><path class="cls-14" d="M128.77,277h2.82l6.5,19.29h-2.65l-3.32-10.77c-.68-2.14-1.32-4.26-1.91-6.49h-.12c-.62,2.23-1.23,4.35-1.91,6.49l-3.38,10.77h-2.53Zm-3.06,11.44h8.85v2h-8.85Z"/><path class="cls-14" d="M146.59,279h-6.38V277h15.23V279h-6.38v17.21h-2.47Z"/><path class="cls-14" d="M160,277h11.94V279h-9.47v6h8v2.09h-8v7h9.76v2.09H160Z"/><path class="cls-14" d="M201.2,283.93h-6.62v-2h9.06v14.29H201.2Zm-1-6.85a1.94,1.94,0,0,1,3.88,0,1.94,1.94,0,0,1-3.88,0Z"/><path class="cls-14" d="M212.32,282h2l.2,2.41h.12c1.5-1.56,3.15-2.77,5.38-2.77,3.38,0,4.94,2,4.94,5.77v8.88h-2.44v-8.56c0-2.71-.94-4-3.26-4-1.71,0-2.86.85-4.5,2.56v10h-2.44Z"/><path class="cls-14" d="M229,289.13c0-4.65,3.09-7.53,6.47-7.53a6.11,6.11,0,0,1,4.29,1.83h.06l-.12-2.62v-5.5h2.44v20.94h-2l-.21-1.89h-.09a6.83,6.83,0,0,1-4.67,2.24C231.46,296.6,229,293.89,229,289.13Zm10.7,3.29v-7.11a5.26,5.26,0,0,0-3.73-1.65c-2.47,0-4.47,2.18-4.47,5.44s1.59,5.44,4.21,5.44A5.35,5.35,0,0,0,239.69,292.42Z"/><path class="cls-14" d="M246.87,289.07a7.19,7.19,0,0,1,7.29-7.47c4.12,0,6.53,2.68,6.53,6.71a9.68,9.68,0,0,1-.12,1.47H248.49V287.9h10.64l-.61.67c0-3.38-1.68-5.06-4.3-5.06s-4.94,2-4.94,5.56,2.41,5.59,5.59,5.59a7.81,7.81,0,0,0,4.35-1.35l.88,1.58a9.78,9.78,0,0,1-5.52,1.71C250.28,296.6,246.87,293.84,246.87,289.07Z"/><path class="cls-14" d="M269.81,288.84l-5-6.88h2.68l2.26,3.11c.5.8,1.09,1.65,1.68,2.41h.11c.53-.76,1.12-1.64,1.62-2.44l2.12-3.08h2.59L272.81,289l5.47,7.21h-2.71L273.1,293c-.62-.79-1.26-1.76-1.88-2.59h-.12c-.59.86-1.17,1.71-1.76,2.62L267,296.25H264.4Z"/><path class="cls-14" d="M286.6,294.1a2.38,2.38,0,1,1,2.38,2.5A2.38,2.38,0,0,1,286.6,294.1Z"/><path class="cls-14" d="M304.25,294.1a2.38,2.38,0,1,1,2.38,2.5A2.38,2.38,0,0,1,304.25,294.1Z"/><path class="cls-14" d="M321.89,294.1a2.38,2.38,0,1,1,2.38,2.5A2.38,2.38,0,0,1,321.89,294.1Z"/><path class="cls-14" d="M338.86,301c2.5-1.12,3.73-2.71,3.7-5.15l-.52-2.7,1.64,2.32a2.07,2.07,0,0,1-1.64.68,2.11,2.11,0,0,1-2.3-2.21,2.19,2.19,0,0,1,2.35-2.23c1.74,0,2.65,1.44,2.65,3.76,0,3.44-1.94,5.85-5.17,7.06Zm.68-17.41a2.38,2.38,0,1,1,2.38,2.5A2.38,2.38,0,0,1,339.54,283.57Z"/><path class="cls-14" d="M71.22,342.16H76V327H71.22V325h12V327H78.48v15.12h4.79v2.09h-12Z"/><path class="cls-14" d="M88.48,325h2.7l6.18,12.11,1.85,4h.06C99.18,339.16,99,337,99,335V325h2.35v19.29H98.59l-6.17-12.12-1.85-4h-.06c.09,2,.32,4,.32,6v10.09H88.48Z"/><path class="cls-14" d="M105.68,341.75l1.47-1.71a8.12,8.12,0,0,0,5.65,2.38c2.64,0,4.17-1.26,4.17-3,0-2.05-1.5-2.64-3.44-3.46l-2.79-1.24c-1.91-.76-4.15-2.12-4.15-5s2.65-5.12,6.33-5.12a8.44,8.44,0,0,1,5.94,2.39l-1.3,1.58a6.79,6.79,0,0,0-4.73-1.79c-2.24,0-3.74,1.06-3.74,2.79s1.8,2.53,3.44,3.18l2.71,1.2c2.38.95,4.26,2.3,4.26,5.15,0,3.06-2.58,5.5-6.82,5.5A9.84,9.84,0,0,1,105.68,341.75Z"/><path class="cls-14" d="M124.71,325h11.94V327h-9.47v6h8v2.09h-8v7h9.76v2.09H124.71Z"/><path class="cls-14" d="M141.91,325h6c3.91,0,6.76,1.41,6.76,5.44,0,3.85-2.85,5.7-6.76,5.7h-3.53v8.15h-2.5Zm5.68,9.14c3,0,4.64-1.23,4.64-3.7s-1.64-3.44-4.64-3.44h-3.18v7.14Zm1.79,0,5.88,10.12h-2.79l-5-8.82Z"/><path class="cls-14" d="M164.23,327h-6.38V325h15.23V327H166.7v17.21h-2.47Z"/><path class="cls-14" d="M194.73,342.16h4.79V327h-4.79V325h12.06V327H202v15.12h4.8v2.09H194.73Z"/><path class="cls-14" d="M212,325h2.71l6.17,12.11,1.86,4h.05c-.08-1.91-.32-4.09-.32-6.12V325h2.35v19.29h-2.7l-6.18-12.12-1.85-4H214c.09,2,.33,4,.33,6v10.09H212Z"/><path class="cls-14" d="M234.81,327h-6.38V325h15.23V327h-6.38v17.21h-2.47Z"/><path class="cls-14" d="M246.28,334.51c0-6.23,3.06-9.91,7.41-9.91s7.41,3.68,7.41,9.91-3.05,10.09-7.41,10.09S246.28,340.84,246.28,334.51Zm12.27,0c0-4.85-1.95-7.73-4.86-7.73s-4.85,2.88-4.85,7.73,1.94,7.91,4.85,7.91S258.55,339.45,258.55,334.51Z"/><path class="cls-14" d="M286.22,338.69v-6.76h-4.06V330.1l4.15-.14.32-4.59h2V330h7v2h-7v6.79c0,2.56.85,3.88,3.62,3.88a9.25,9.25,0,0,0,3.41-.65l.53,1.8a12.53,12.53,0,0,1-4.47.85C287.57,344.6,286.22,342.22,286.22,338.69Z"/><path class="cls-14" d="M300.16,340.54c0-3.2,3-4.76,10.38-5.35-.09-1.94-1-3.59-3.79-3.59a9.86,9.86,0,0,0-5,1.71l-1-1.65a12.53,12.53,0,0,1,6.38-2.06c3.91,0,5.82,2.33,5.82,5.88v8.77h-2l-.21-1.94h-.08A9.65,9.65,0,0,1,305,344.6C302.36,344.6,300.16,343.1,300.16,340.54Zm10.38,0v-3.7c-6.12.47-8,1.67-8,3.55,0,1.62,1.47,2.27,3.12,2.27A7.83,7.83,0,0,0,310.54,340.51Z"/><path class="cls-14" d="M320.45,342.66h-.09l-.23,1.59h-1.94V323.31h2.44V329l-.12,2.77h.09a7,7,0,0,1,4.79-2.18c3.85,0,5.94,2.85,5.94,7.27,0,4.88-3.06,7.73-6.44,7.73A7.08,7.08,0,0,1,320.45,342.66Zm8.38-5.76c0-3.15-1.18-5.24-4-5.24a6.07,6.07,0,0,0-4.17,2.12v7.11a6,6,0,0,0,3.85,1.65C327,342.54,328.83,340.42,328.83,336.9Z"/><path class="cls-14" d="M340.33,339.45V325.28h-5.06v-2h7.5v16.32c0,2.06,1.12,2.94,2.82,2.94a6.47,6.47,0,0,0,2.68-.65l.62,1.83a8.85,8.85,0,0,1-3.83.85C342,344.6,340.33,342.84,340.33,339.45Z"/><path class="cls-14" d="M352.74,337.07A7.19,7.19,0,0,1,360,329.6c4.12,0,6.53,2.68,6.53,6.71a9.68,9.68,0,0,1-.12,1.47H354.36V335.9H365l-.61.67c0-3.38-1.68-5.06-4.3-5.06s-4.94,2-4.94,5.56,2.41,5.59,5.59,5.59a7.81,7.81,0,0,0,4.35-1.35l.88,1.58a9.78,9.78,0,0,1-5.52,1.71C356.15,344.6,352.74,341.84,352.74,337.07Z"/><path class="cls-14" d="M374.83,342.1a2.38,2.38,0,1,1,2.38,2.5A2.38,2.38,0,0,1,374.83,342.1Z"/><path class="cls-14" d="M392.47,342.1a2.38,2.38,0,1,1,2.38,2.5A2.38,2.38,0,0,1,392.47,342.1Z"/><path class="cls-14" d="M410.12,342.1a2.38,2.38,0,1,1,2.38,2.5A2.38,2.38,0,0,1,410.12,342.1Z"/><path class="cls-14" d="M427.09,349c2.49-1.12,3.73-2.71,3.7-5.15l-.53-2.7,1.65,2.32a2.08,2.08,0,0,1-1.65.68,2.11,2.11,0,0,1-2.29-2.21,2.18,2.18,0,0,1,2.35-2.23c1.73,0,2.65,1.44,2.65,3.76,0,3.44-2,5.85-5.18,7.06Zm.67-17.41a2.38,2.38,0,1,1,2.38,2.5A2.38,2.38,0,0,1,427.76,331.57Z"/><path class="cls-14" d="M70.39,389.75,71.86,388a8.12,8.12,0,0,0,5.65,2.38c2.64,0,4.17-1.26,4.17-3,0-2.05-1.5-2.64-3.44-3.46l-2.79-1.24c-1.91-.76-4.15-2.12-4.15-5s2.65-5.12,6.33-5.12A8.44,8.44,0,0,1,83.57,375l-1.3,1.58a6.79,6.79,0,0,0-4.73-1.79c-2.24,0-3.74,1.06-3.74,2.79s1.8,2.53,3.44,3.18L80,382c2.38.95,4.26,2.3,4.26,5.15,0,3.06-2.58,5.5-6.82,5.5A9.84,9.84,0,0,1,70.39,389.75Z"/><path class="cls-14" d="M89.42,373h11.94V375H91.89v6h8v2.09h-8v7h9.76v2.09H89.42Z"/><path class="cls-14" d="M107.65,373h2.44v17.2h9.53v2.09h-12Z"/><path class="cls-14" d="M124.71,373h11.94V375h-9.47v6h8v2.09h-8v7h9.76v2.09H124.71Z"/><path class="cls-14" d="M140.91,382.6c0-6.2,3.62-10,8.65-10a7.22,7.22,0,0,1,5.29,2.36l-1.41,1.55a5.19,5.19,0,0,0-3.88-1.73c-3.68,0-6.09,3-6.09,7.76s2.41,7.88,6.09,7.88a5.57,5.57,0,0,0,4.32-2.11l1.41,1.5a7.46,7.46,0,0,1-6,2.79C144.56,392.6,140.91,388.89,140.91,382.6Z"/><path class="cls-14" d="M164.23,375h-6.38V373h15.23V375H166.7v17.21h-2.47Z"/><path class="cls-14" d="M195.85,373H207.7V375h-9.38v6.5h7.94v2.09h-7.94v8.62h-2.47Z"/><path class="cls-14" d="M212.49,373h6c3.91,0,6.76,1.41,6.76,5.44,0,3.85-2.85,5.7-6.76,5.7H215v8.15h-2.5Zm5.68,9.14c3,0,4.64-1.23,4.64-3.7s-1.64-3.44-4.64-3.44H215v7.14Zm1.79,0,5.88,10.12h-2.79l-5-8.82Z"/><path class="cls-14" d="M228.64,382.51c0-6.23,3.06-9.91,7.41-9.91s7.41,3.68,7.41,9.91-3.06,10.09-7.41,10.09S228.64,388.84,228.64,382.51Zm12.26,0c0-4.85-1.94-7.73-4.85-7.73s-4.85,2.88-4.85,7.73,1.94,7.91,4.85,7.91S240.9,387.45,240.9,382.51Z"/><path class="cls-14" d="M247,373h3l2.7,8.23.94,3.12h.12l.91-3.12L257.4,373h3v19.29h-2.35V382.6c0-1.88.29-5.17.41-6.82h-.09l-1.09,3.76-2.76,7.59h-1.77l-2.7-7.59-1.12-3.76h-.06c.18,1.65.41,4.94.41,6.82v9.65H247Z"/><path class="cls-14" d="M286.22,386.69v-6.76h-4.06V378.1l4.15-.14.32-4.59h2V378h7v2h-7v6.79c0,2.56.85,3.88,3.62,3.88a9.25,9.25,0,0,0,3.41-.65l.53,1.8a12.53,12.53,0,0,1-4.47.85C287.57,392.6,286.22,390.22,286.22,386.69Z"/><path class="cls-14" d="M300.16,388.54c0-3.2,3-4.76,10.38-5.35-.09-1.94-1-3.59-3.79-3.59a9.86,9.86,0,0,0-5,1.71l-1-1.65a12.53,12.53,0,0,1,6.38-2.06c3.91,0,5.82,2.33,5.82,5.88v8.77h-2l-.21-1.94h-.08A9.65,9.65,0,0,1,305,392.6C302.36,392.6,300.16,391.1,300.16,388.54Zm10.38,0v-3.7c-6.12.47-8,1.67-8,3.55,0,1.62,1.47,2.27,3.12,2.27A7.83,7.83,0,0,0,310.54,388.51Z"/><path class="cls-14" d="M320.45,390.66h-.09l-.23,1.59h-1.94V371.31h2.44V377l-.12,2.77h.09a7,7,0,0,1,4.79-2.18c3.85,0,5.94,2.85,5.94,7.27,0,4.88-3.06,7.73-6.44,7.73A7.08,7.08,0,0,1,320.45,390.66Zm8.38-5.76c0-3.15-1.18-5.24-4-5.24a6.07,6.07,0,0,0-4.17,2.12v7.11a6,6,0,0,0,3.85,1.65C327,390.54,328.83,388.42,328.83,384.9Z"/><path class="cls-14" d="M340.33,387.45V373.28h-5.06v-2h7.5v16.32c0,2.06,1.12,2.94,2.82,2.94a6.47,6.47,0,0,0,2.68-.65l.62,1.83a8.85,8.85,0,0,1-3.83.85C342,392.6,340.33,390.84,340.33,387.45Z"/><path class="cls-14" d="M352.74,385.07A7.19,7.19,0,0,1,360,377.6c4.12,0,6.53,2.68,6.53,6.71a9.68,9.68,0,0,1-.12,1.47H354.36V383.9H365l-.61.67c0-3.38-1.68-5.06-4.3-5.06s-4.94,2-4.94,5.56,2.41,5.59,5.59,5.59a7.81,7.81,0,0,0,4.35-1.35l.88,1.58a9.78,9.78,0,0,1-5.52,1.71C356.15,392.6,352.74,389.84,352.74,385.07Z"/><path class="cls-14" d="M374.83,390.1a2.38,2.38,0,1,1,2.38,2.5A2.38,2.38,0,0,1,374.83,390.1Z"/><path class="cls-14" d="M392.47,390.1a2.38,2.38,0,1,1,2.38,2.5A2.38,2.38,0,0,1,392.47,390.1Z"/><path class="cls-14" d="M410.12,390.1a2.38,2.38,0,1,1,2.38,2.5A2.38,2.38,0,0,1,410.12,390.1Z"/><path class="cls-14" d="M427.09,397c2.49-1.12,3.73-2.71,3.7-5.15l-.53-2.7,1.65,2.32a2.08,2.08,0,0,1-1.65.68,2.11,2.11,0,0,1-2.29-2.21,2.18,2.18,0,0,1,2.35-2.23c1.73,0,2.65,1.44,2.65,3.76,0,3.44-2,5.85-5.18,7.06Zm.67-17.41a2.38,2.38,0,1,1,2.38,2.5A2.38,2.38,0,0,1,427.76,379.57Z"/><path class="cls-15" d="M249.16,542V476.57a4.54,4.54,0,1,1,9.07,0V542a4.54,4.54,0,1,1-9.07,0Z"/><path class="cls-15" d="M232.52,524.94a4.48,4.48,0,0,0,1.09,2.95l16.64,19.47a4.53,4.53,0,0,0,6.89,0l16.65-19.47a4.54,4.54,0,0,0-6.9-5.9L253.7,537.43,240.5,522a4.53,4.53,0,0,0-8,3Z"/><path class="cls-14" d="M135.56,564c-31.92,0-64.94,7.24-64.94,19.35V732.93A7.27,7.27,0,0,0,72,737.11a11.9,11.9,0,0,0,1.58,1.83c8.25,8,33.16,13.34,62,13.34s53.74-5.36,62-13.33a12.13,12.13,0,0,0,1.59-1.85,7.21,7.21,0,0,0,1.39-4.17V583.38C200.53,571.27,167.49,564,135.56,564Z"/><path class="cls-16" d="M180.07,566.6c-12-3.27-28.28-5.14-44.51-5.14s-32.44,1.87-44.5,5.14C77,570.43,69.5,575.87,69.5,582.33v51.34a8.79,8.79,0,0,0,1.68,5.11A13.55,13.55,0,0,0,73,640.86c8.46,8.18,33.62,13.68,62.59,13.68s54.15-5.5,62.62-13.68a13.63,13.63,0,0,0,1.79-2.08,8.79,8.79,0,0,0,1.68-5.11V582.33C201.65,575.87,194.19,570.43,180.07,566.6Zm15,68.77a8,8,0,0,1-1,1.19c-7.23,7-31.83,12-58.52,12s-51.27-5.06-58.49-12a8,8,0,0,1-1-1.2,3,3,0,0,1-.61-1.7V591.52A34,34,0,0,0,79.84,594l.07,0c.81.38,1.65.75,2.53,1.12l.22.09c.86.35,1.75.69,2.68,1l.33.11c.79.27,1.6.54,2.43.8l.76.24c.79.23,1.6.46,2.43.68.36.1.73.21,1.11.3.79.21,1.61.41,2.43.6l1.42.32,2.43.52,1.62.31,2,.35,2.23.37,1.84.28,2.39.34,2.08.26,1.89.21c.93.11,1.87.2,2.82.29l1.43.13c1.13.1,2.27.19,3.43.27l1.23.08c1.24.08,2.5.15,3.76.2l.93,0c1.37.06,2.75.11,4.15.14H131c1.51,0,3,.05,4.58.05s3.06,0,4.57-.05h.57c1.39,0,2.76-.08,4.13-.14l.94,0c1.27-.05,2.52-.12,3.76-.2l1.24-.08c1.15-.08,2.29-.17,3.41-.27l1.47-.13,2.74-.28,2-.23,2.05-.25,2.43-.34,1.8-.27,2.27-.38,1.93-.35,1.63-.31,2.43-.52,1.41-.32q1.24-.28,2.46-.6l1.07-.29c.86-.23,1.71-.47,2.54-.72l.62-.2c.87-.27,1.72-.54,2.53-.83l.27-.09c1-.34,1.86-.68,2.74-1l.15-.06c.9-.37,1.76-.76,2.58-1.15h0a33.62,33.62,0,0,0,4.43-2.52v42.15A3,3,0,0,1,195.11,635.37Zm-59.55-68c37.27,0,60.15,8.69,60.15,14.93a3.13,3.13,0,0,1-.61,1.72c-2.61,3.85-11.93,7.78-25.69,10.34l-.12,0-1.56.28-1.63.27h0a192.33,192.33,0,0,1-25.38,2.24h-.86l-1.62,0-2.67,0-2.67,0-1.63,0h-.86A193.47,193.47,0,0,1,105.08,595l-.11,0-1.53-.25-1.66-.3h0c-13.76-2.56-23.08-6.49-25.7-10.34a3.23,3.23,0,0,1-.62-1.73C75.43,576.09,98.31,567.4,135.56,567.4Z"/><path class="cls-16" d="M198.87,630.69a2.75,2.75,0,0,0-2.75,2.75,3.38,3.38,0,0,1-.64,1.84c-2.37,3.51-9.9,6.93-20.66,9.39a181.85,181.85,0,0,1-39.26,4,182.32,182.32,0,0,1-39.24-4c-10.76-2.47-18.28-5.89-20.64-9.38a3.37,3.37,0,0,1-.66-1.86,2.75,2.75,0,1,0-5.49,0V684a8.67,8.67,0,0,0,1.65,5,14.07,14.07,0,0,0,1.75,2c4.23,4.07,12.48,7.52,23.85,10a188.14,188.14,0,0,0,38.78,3.69A188.24,188.24,0,0,0,174.35,701c11.38-2.44,19.63-5.89,23.85-10A13.76,13.76,0,0,0,200,689a8.6,8.6,0,0,0,1.64-5V633.44A2.75,2.75,0,0,0,198.87,630.69ZM196.12,684a3.25,3.25,0,0,1-.64,1.83,7.64,7.64,0,0,1-1.07,1.24h0c-3.5,3.38-11.22,6.46-21.73,8.66a187.56,187.56,0,0,1-37.11,3.47,187.45,187.45,0,0,1-37.1-3.47c-10.5-2.21-18.22-5.28-21.73-8.67h0a7.77,7.77,0,0,1-1-1.22A3.19,3.19,0,0,1,75,684V642.22c4.51,3.25,11.7,6,21.11,8.11a187.68,187.68,0,0,0,39.43,3.81A187.78,187.78,0,0,0,175,650.33c9.41-2.08,16.62-4.85,21.12-8.11Z"/><path class="cls-16" d="M198.87,681.33a2.75,2.75,0,0,0-2.75,2.75,3.38,3.38,0,0,1-.64,1.84c-2.37,3.5-9.9,6.93-20.66,9.39a181.85,181.85,0,0,1-39.26,4,181.65,181.65,0,0,1-39.24-4c-10.76-2.46-18.28-5.88-20.64-9.38a3.32,3.32,0,0,1-.66-1.85,2.75,2.75,0,1,0-5.49,0v50.59a8.67,8.67,0,0,0,1.65,5,13.47,13.47,0,0,0,1.75,2c4.23,4.08,12.48,7.53,23.85,10a188.83,188.83,0,0,0,38.78,3.69,188.94,188.94,0,0,0,38.79-3.69c11.38-2.44,19.62-5.89,23.85-10a13.37,13.37,0,0,0,1.77-2.07,8.57,8.57,0,0,0,1.64-5V684.08A2.75,2.75,0,0,0,198.87,681.33Zm-2.75,53.34a3.25,3.25,0,0,1-.64,1.83,7.64,7.64,0,0,1-1.07,1.24h0c-3.5,3.38-11.22,6.46-21.73,8.66a187.56,187.56,0,0,1-37.11,3.47,188.21,188.21,0,0,1-37.1-3.47c-10.5-2.21-18.22-5.29-21.73-8.67h0a7.77,7.77,0,0,1-1-1.22,3.19,3.19,0,0,1-.66-1.84V692.86c4.51,3.25,11.7,6,21.11,8.1a187,187,0,0,0,39.43,3.82A187.78,187.78,0,0,0,175,701c9.41-2.08,16.62-4.86,21.12-8.11Z"/><circle class="cls-14" cx="135.57" cy="674.12" r="47.63"/><path class="cls-15" d="M120,704a31,31,0,0,0,40.83-9.52,2.37,2.37,0,0,0-.8-3.41h0a2.38,2.38,0,0,0-3.14.74,26.2,26.2,0,1,1-12.42-39.25l-7.76,5.23a2.38,2.38,0,0,0-.65,3.3h0a2.39,2.39,0,0,0,3.31.65l11.28-7.59a2.4,2.4,0,0,0,.88-2.86l-4.79-11.95a2.38,2.38,0,0,0-3.1-1.32h0a2.37,2.37,0,0,0-1.32,3.09l2.62,6.54A31,31,0,0,0,120,704Z"/><path class="cls-17" d="M114.57,673.25a4.71,4.71,0,0,1,1.9-4.08,7.83,7.83,0,0,1,4.74-1.38,10.84,10.84,0,0,1,5,1.3v3.28a8.27,8.27,0,0,0-4.61-1.41,5.73,5.73,0,0,0-2.61.53,1.74,1.74,0,0,0-1.07,1.68,1.6,1.6,0,0,0,1,1.45,10.71,10.71,0,0,0,2.36.88,25.73,25.73,0,0,1,2.78.91,5.32,5.32,0,0,1,2.38,1.89,5.82,5.82,0,0,1,1,3.47,4.38,4.38,0,0,1-1.87,3.66,7.26,7.26,0,0,1-4.55,1.42,11.76,11.76,0,0,1-6.15-1.56V681.9a8.72,8.72,0,0,0,5.37,1.79c2.56,0,3.85-.71,3.85-2.14a2.11,2.11,0,0,0-.7-1.61,4.32,4.32,0,0,0-1.76-1c-.71-.2-1.47-.44-2.27-.72a24.06,24.06,0,0,1-2.28-.91,4.1,4.1,0,0,1-1.76-1.53A4.58,4.58,0,0,1,114.57,673.25Z"/><path class="cls-17" d="M130.54,677.31a13.82,13.82,0,0,1,.53-4,8.12,8.12,0,0,1,1.37-2.75,6.59,6.59,0,0,1,2-1.67,7.83,7.83,0,0,1,2.33-.87,13.53,13.53,0,0,1,2.45-.22,13.33,13.33,0,0,1,2.44.22,8.17,8.17,0,0,1,2.32.87,6.87,6.87,0,0,1,2,1.67,7.94,7.94,0,0,1,1.38,2.75,13.55,13.55,0,0,1,.53,4,13.93,13.93,0,0,1-.43,3.66,8.67,8.67,0,0,1-1.15,2.63,6.44,6.44,0,0,1-1.72,1.73,7.49,7.49,0,0,1-2,1,10.62,10.62,0,0,1-2.19.43,2,2,0,0,0,1,1.85,4.19,4.19,0,0,0,2.25.58v2.62q-6,0-6-5.08a9.68,9.68,0,0,1-2.63-.72,7.78,7.78,0,0,1-2.25-1.57,6.93,6.93,0,0,1-1.66-2.87A13.73,13.73,0,0,1,130.54,677.31Zm3.77-3.44a14.38,14.38,0,0,0,0,6.9,4,4,0,0,0,1.24,2,4.55,4.55,0,0,0,1.66.88,8.53,8.53,0,0,0,2,.21,8.62,8.62,0,0,0,2-.21,4.58,4.58,0,0,0,1.67-.88,3.93,3.93,0,0,0,1.24-2,14.38,14.38,0,0,0,0-6.9,3.93,3.93,0,0,0-1.24-2,4.44,4.44,0,0,0-1.67-.88,8.58,8.58,0,0,0-2-.22,8.48,8.48,0,0,0-2,.22,4.4,4.4,0,0,0-1.66.88A4,4,0,0,0,134.31,673.87Z"/><path class="cls-17" d="M151.74,686.64V668h3.35v15.46h9v3.17Z"/><path class="cls-16" d="M98,783s-3.88,5.88,3.74,7.08c.75.09,6.27.67,7.7,2.48,0,0-.13-3.13-4.62-5S98.51,785.25,98,783Z"/><path class="cls-16" d="M101.79,770.31s-10.85,6.61-.62,13.2c2,1.27,9.11,4.85,8.9,8.13,0,0,4.32-6.41-2-10.43C101.58,777.08,100,772.68,101.79,770.31Z"/><path class="cls-16" d="M113,776.78c-4.65-4.87-5.94-7.88-4-11.78,0,0-13.89,5.34-.18,14.82,4.92,3.4,4.09,6.86,4.1,7C113.74,786,117.66,781.66,113,776.78Z"/><text class="cls-18" transform="translate(120.57 786.42)"><tspan class="cls-19">N</tspan><tspan class="cls-20" x="14.56" y="0">O</tspan><tspan class="cls-21" x="29.13" y="0">D</tspan><tspan x="42.31" y="0">E</tspan></text><path class="cls-14" d="M371.8,564c-31.92,0-64.94,7.24-64.94,19.35V732.93a7.27,7.27,0,0,0,1.39,4.18,12.47,12.47,0,0,0,1.58,1.83c8.26,8,33.16,13.34,62,13.34s53.75-5.36,62-13.33a11.11,11.11,0,0,0,1.59-1.85,7.21,7.21,0,0,0,1.39-4.17V583.38C436.77,571.27,403.74,564,371.8,564Z"/><path class="cls-16" d="M416.32,566.6c-12.06-3.27-28.29-5.14-44.52-5.14s-32.44,1.87-44.49,5.14c-14.11,3.83-21.57,9.27-21.57,15.73v51.34a8.86,8.86,0,0,0,1.68,5.11,13.55,13.55,0,0,0,1.79,2.08c8.47,8.18,33.63,13.68,62.59,13.68S426,649,434.42,640.86a13.63,13.63,0,0,0,1.79-2.08,8.8,8.8,0,0,0,1.69-5.11V582.33C437.9,575.87,430.43,570.43,416.32,566.6Zm15,68.77a7.42,7.42,0,0,1-1,1.19c-7.23,7-31.84,12-58.53,12s-51.27-5.06-58.49-12a8,8,0,0,1-1-1.2,3,3,0,0,1-.6-1.7V591.52a32.69,32.69,0,0,0,4.41,2.51l.07,0c.8.38,1.64.75,2.53,1.12l.22.09q1.27.53,2.67,1l.34.11c.78.27,1.59.54,2.43.8l.76.24c.78.23,1.59.46,2.42.68.37.1.74.21,1.11.3.8.21,1.61.41,2.44.6l1.42.32c.79.18,1.6.35,2.43.52l1.62.31,1.94.35,2.24.37,1.83.28,2.4.34,2.08.26c.62.07,1.25.15,1.88.21.93.11,1.87.2,2.82.29l1.43.13c1.13.1,2.28.19,3.43.27l1.23.08c1.25.08,2.5.15,3.77.2l.93,0c1.37.06,2.75.11,4.14.14h.55c1.52,0,3,.05,4.58.05s3.06,0,4.58-.05h.56c1.39,0,2.77-.08,4.13-.14l.95,0c1.26-.05,2.51-.12,3.75-.2l1.24-.08q1.73-.12,3.42-.27l1.46-.13,2.74-.28,2-.23,2-.25,2.44-.34,1.8-.27,2.26-.38,1.93-.35,1.63-.31c.83-.17,1.64-.34,2.43-.52l1.41-.32q1.26-.28,2.46-.6l1.07-.29c.87-.23,1.72-.47,2.54-.72l.62-.2c.87-.27,1.72-.54,2.54-.83l.26-.09c1-.34,1.87-.68,2.74-1l.15-.06c.91-.37,1.77-.76,2.59-1.15h0a33.14,33.14,0,0,0,4.44-2.52v42.15A3,3,0,0,1,431.35,635.37Zm-59.55-68c37.27,0,60.16,8.69,60.16,14.93a3.15,3.15,0,0,1-.62,1.72c-2.61,3.85-11.93,7.78-25.69,10.34l-.11,0-1.57.28-1.63.27h0A192.49,192.49,0,0,1,377,597.2h-.86l-1.63,0-2.67,0-2.66,0-1.63,0h-.86A193.32,193.32,0,0,1,341.33,595l-.11,0-1.54-.25-1.66-.3h0c-13.75-2.56-23.07-6.49-25.69-10.34a3.15,3.15,0,0,1-.62-1.73C311.68,576.09,334.55,567.4,371.8,567.4Z"/><path class="cls-16" d="M435.11,630.69a2.75,2.75,0,0,0-2.74,2.75,3.32,3.32,0,0,1-.65,1.84c-2.36,3.51-9.89,6.93-20.66,9.39a195.77,195.77,0,0,1-78.5,0c-10.75-2.47-18.28-5.89-20.64-9.38a3.43,3.43,0,0,1-.65-1.86,2.75,2.75,0,1,0-5.49,0V684a8.59,8.59,0,0,0,1.65,5,12.94,12.94,0,0,0,1.75,2c4.23,4.07,12.47,7.52,23.85,10a205.68,205.68,0,0,0,77.57,0c11.38-2.44,19.62-5.89,23.84-10a14.42,14.42,0,0,0,1.78-2.06,8.6,8.6,0,0,0,1.64-5V633.44A2.75,2.75,0,0,0,435.11,630.69ZM432.37,684a3.19,3.19,0,0,1-.65,1.83,8.12,8.12,0,0,1-1.06,1.24h0c-3.5,3.38-11.21,6.46-21.72,8.66a200.12,200.12,0,0,1-74.21,0c-10.51-2.21-18.23-5.28-21.73-8.67h0a9,9,0,0,1-1-1.22,3.25,3.25,0,0,1-.65-1.84V642.22c4.5,3.25,11.7,6,21.1,8.11a206,206,0,0,0,78.88,0c9.41-2.08,16.61-4.85,21.12-8.11Z"/><path class="cls-16" d="M435.11,681.33a2.75,2.75,0,0,0-2.74,2.75,3.32,3.32,0,0,1-.65,1.84c-2.36,3.5-9.89,6.93-20.66,9.39a195.53,195.53,0,0,1-78.5,0c-10.75-2.46-18.28-5.88-20.64-9.38a3.38,3.38,0,0,1-.65-1.85,2.75,2.75,0,1,0-5.49,0v50.59a8.59,8.59,0,0,0,1.65,5,12.42,12.42,0,0,0,1.75,2c4.23,4.08,12.47,7.53,23.85,10a205.68,205.68,0,0,0,77.57,0c11.37-2.44,19.62-5.89,23.84-10a14,14,0,0,0,1.78-2.07,8.57,8.57,0,0,0,1.64-5V684.08A2.75,2.75,0,0,0,435.11,681.33Zm-2.74,53.34a3.19,3.19,0,0,1-.65,1.83,8.12,8.12,0,0,1-1.06,1.24h0c-3.5,3.38-11.21,6.46-21.72,8.66a200.12,200.12,0,0,1-74.21,0c-10.51-2.21-18.23-5.29-21.73-8.67h0a9,9,0,0,1-1-1.22,3.25,3.25,0,0,1-.65-1.84V692.86c4.5,3.25,11.7,6,21.1,8.1a205.78,205.78,0,0,0,78.88,0c9.41-2.08,16.61-4.86,21.12-8.11Z"/><circle class="cls-14" cx="371.82" cy="674.12" r="47.63"/><path class="cls-15" d="M356.24,704a31,31,0,0,0,40.84-9.52,2.39,2.39,0,0,0-.8-3.41h0a2.37,2.37,0,0,0-3.14.74,26.2,26.2,0,1,1-12.42-39.25L373,657.78a2.37,2.37,0,0,0-.64,3.3h0a2.38,2.38,0,0,0,3.3.65l11.28-7.59a2.2,2.2,0,0,0,.74-.81,2.34,2.34,0,0,0,.14-2.05L383,639.33a2.37,2.37,0,0,0-3.09-1.32h0a2.38,2.38,0,0,0-1.33,3.09l2.62,6.54A31,31,0,0,0,356.24,704Z"/><path class="cls-17" d="M350.82,673.25a4.71,4.71,0,0,1,1.89-4.08,7.88,7.88,0,0,1,4.75-1.38,10.8,10.8,0,0,1,5,1.3v3.28a8.25,8.25,0,0,0-4.61-1.41,5.79,5.79,0,0,0-2.61.53,1.76,1.76,0,0,0-1.07,1.68,1.62,1.62,0,0,0,1,1.45,10.52,10.52,0,0,0,2.36.88,25.73,25.73,0,0,1,2.78.91,5.24,5.24,0,0,1,2.37,1.89,5.75,5.75,0,0,1,1,3.47,4.4,4.4,0,0,1-1.86,3.66,7.31,7.31,0,0,1-4.56,1.42,11.76,11.76,0,0,1-6.15-1.56V681.9a8.73,8.73,0,0,0,5.38,1.79c2.56,0,3.84-.71,3.84-2.14a2.08,2.08,0,0,0-.7-1.61,4.28,4.28,0,0,0-1.75-1q-1.06-.3-2.28-.72a24.06,24.06,0,0,1-2.28-.91,4.16,4.16,0,0,1-1.76-1.53A4.57,4.57,0,0,1,350.82,673.25Z"/><path class="cls-17" d="M366.78,677.31a13.47,13.47,0,0,1,.54-4,8.11,8.11,0,0,1,1.36-2.75,6.7,6.7,0,0,1,2-1.67A7.93,7.93,0,0,1,373,668a13.56,13.56,0,0,1,2.46-.22,13.42,13.42,0,0,1,2.44.22,8.22,8.22,0,0,1,2.31.87,6.87,6.87,0,0,1,2,1.67,8,8,0,0,1,1.39,2.75,15.48,15.48,0,0,1,.09,7.68,8.67,8.67,0,0,1-1.14,2.63,6.74,6.74,0,0,1-1.72,1.73,7.69,7.69,0,0,1-2,1,10.37,10.37,0,0,1-2.19.43,2,2,0,0,0,.95,1.85,4.22,4.22,0,0,0,2.26.58v2.62q-6,0-6-5.08a9.58,9.58,0,0,1-2.63-.72,7.78,7.78,0,0,1-2.25-1.57,7,7,0,0,1-1.67-2.87A13.73,13.73,0,0,1,366.78,677.31Zm3.77-3.44a14.72,14.72,0,0,0,0,6.9,4,4,0,0,0,1.24,2,4.58,4.58,0,0,0,1.67.88,9.92,9.92,0,0,0,4.06,0,4.54,4.54,0,0,0,1.68-.88,4,4,0,0,0,1.24-2,14.72,14.72,0,0,0,0-6.9,4,4,0,0,0-1.24-2,4.4,4.4,0,0,0-1.68-.88,9.48,9.48,0,0,0-4.06,0,4.44,4.44,0,0,0-1.67.88A4,4,0,0,0,370.55,673.87Z"/><path class="cls-17" d="M388,686.64V668h3.36v15.46h9v3.17Z"/><path class="cls-16" d="M334.26,783s-3.88,5.88,3.75,7.08c.74.09,6.27.67,7.69,2.48,0,0-.13-3.13-4.62-5S334.76,785.25,334.26,783Z"/><path class="cls-16" d="M338,770.31s-10.86,6.61-.63,13.2c2,1.27,9.11,4.85,8.9,8.13,0,0,4.32-6.41-2-10.43C337.82,777.08,336.19,772.68,338,770.31Z"/><path class="cls-16" d="M349.25,776.78c-4.65-4.87-5.94-7.88-3.95-11.78,0,0-13.9,5.34-.18,14.82,4.91,3.4,4.09,6.86,4.09,7C350,786,353.9,781.66,349.25,776.78Z"/><text class="cls-18" transform="translate(356.81 786.42)"><tspan class="cls-19">N</tspan><tspan class="cls-20" x="14.56" y="0">O</tspan><tspan class="cls-21" x="29.13" y="0">D</tspan><tspan x="42.31" y="0">E</tspan></text><path class="cls-14" d="M253.26,598.8c-31.92,0-64.93,7.24-64.93,19.35V767.7a7.19,7.19,0,0,0,1.39,4.18,11.85,11.85,0,0,0,1.57,1.83c8.26,8,33.16,13.34,62,13.34s53.75-5.36,62-13.33a11.64,11.64,0,0,0,1.6-1.85,7.2,7.2,0,0,0,1.38-4.17V618.15C318.23,606,285.2,598.8,253.26,598.8Z"/><path class="cls-16" d="M297.78,601.37c-12.06-3.27-28.29-5.14-44.52-5.14s-32.44,1.87-44.49,5.14c-14.11,3.83-21.57,9.27-21.57,15.73v51.34a8.86,8.86,0,0,0,1.68,5.11,13.55,13.55,0,0,0,1.79,2.08c8.47,8.18,33.63,13.68,62.59,13.68s54.15-5.5,62.63-13.68a14.16,14.16,0,0,0,1.78-2.08,8.8,8.8,0,0,0,1.69-5.11V617.1C319.36,610.64,311.89,605.2,297.78,601.37Zm15,68.77a7.42,7.42,0,0,1-1,1.19c-7.23,7-31.84,12-58.53,12s-51.27-5.06-58.49-12a7.47,7.47,0,0,1-1-1.19,3,3,0,0,1-.6-1.7V626.29a32.69,32.69,0,0,0,4.41,2.51l.07,0c.8.38,1.64.75,2.53,1.12l.22.09q1.27.53,2.67,1l.34.11c.78.27,1.59.54,2.43.8l.76.24c.78.23,1.6.46,2.42.68l1.11.3c.8.21,1.61.41,2.44.6l1.42.32c.79.18,1.6.35,2.43.52L218,635l1.94.35,2.24.37L224,636l2.4.34,2.08.26c.62.07,1.25.15,1.88.21.93.11,1.87.2,2.82.29l1.43.13c1.13.1,2.28.19,3.43.27l1.24.08c1.24.08,2.49.15,3.76.2l.93,0c1.37.06,2.75.11,4.14.14h.55c1.52,0,3,.05,4.58.05s3.06,0,4.58-.05h.56c1.39,0,2.77-.08,4.13-.14l1,0c1.26-.05,2.51-.12,3.75-.2l1.24-.08q1.72-.12,3.42-.27l1.46-.13,2.74-.28,2-.23,2-.25,2.44-.34,1.8-.28,2.27-.37,1.92-.35,1.63-.31c.83-.17,1.64-.34,2.43-.52l1.41-.32q1.26-.28,2.46-.6l1.07-.29c.87-.23,1.72-.47,2.54-.72l.62-.2c.87-.27,1.72-.54,2.54-.83l.26-.09c1-.34,1.87-.68,2.74-1l.15-.06c.91-.37,1.77-.76,2.59-1.15h0a33.14,33.14,0,0,0,4.44-2.52v42.15A3,3,0,0,1,312.81,670.14Zm-59.55-68c37.27,0,60.16,8.69,60.16,14.93a3.21,3.21,0,0,1-.61,1.72c-2.62,3.85-11.94,7.78-25.69,10.34l-.12,0-1.57.28-1.63.27h0A192.49,192.49,0,0,1,258.42,632h-.86l-1.63,0-2.67,0-2.66,0L249,632h-.86a193.32,193.32,0,0,1-25.32-2.23l-.11,0-1.54-.25-1.66-.3h0c-13.75-2.56-23.07-6.49-25.69-10.34a3.15,3.15,0,0,1-.62-1.73C193.14,610.86,216,602.17,253.26,602.17Z"/><path class="cls-16" d="M316.57,665.46a2.75,2.75,0,0,0-2.74,2.75,3.32,3.32,0,0,1-.65,1.84c-2.36,3.51-9.89,6.93-20.66,9.39a181.78,181.78,0,0,1-39.26,4,182.39,182.39,0,0,1-39.24-4c-10.75-2.47-18.28-5.89-20.64-9.38a3.43,3.43,0,0,1-.65-1.86,2.75,2.75,0,1,0-5.49,0V718.8a8.59,8.59,0,0,0,1.65,5,13.48,13.48,0,0,0,1.75,2c4.23,4.07,12.47,7.52,23.85,10a188.8,188.8,0,0,0,38.77,3.69,188.41,188.41,0,0,0,38.8-3.69c11.38-2.44,19.62-5.89,23.84-10a14.42,14.42,0,0,0,1.78-2.06,8.62,8.62,0,0,0,1.64-5V668.21A2.75,2.75,0,0,0,316.57,665.46Zm-2.74,53.34a3.19,3.19,0,0,1-.65,1.83,8.12,8.12,0,0,1-1.06,1.24h0c-3.5,3.38-11.21,6.46-21.72,8.66a200.12,200.12,0,0,1-74.21,0c-10.51-2.21-18.23-5.28-21.73-8.67h0a8.39,8.39,0,0,1-1.05-1.22,3.25,3.25,0,0,1-.65-1.84V677c4.5,3.25,11.7,6,21.1,8.1a187,187,0,0,0,39.43,3.82,188,188,0,0,0,39.45-3.81c9.41-2.08,16.61-4.86,21.12-8.11Z"/><path class="cls-16" d="M316.57,716.1a2.75,2.75,0,0,0-2.74,2.75,3.32,3.32,0,0,1-.65,1.84c-2.36,3.5-9.89,6.93-20.66,9.39a181.78,181.78,0,0,1-39.26,4,181.72,181.72,0,0,1-39.24-4c-10.75-2.46-18.28-5.88-20.64-9.38a3.38,3.38,0,0,1-.65-1.85,2.75,2.75,0,1,0-5.49,0v50.59a8.59,8.59,0,0,0,1.65,5,12.42,12.42,0,0,0,1.75,2c4.23,4.08,12.47,7.53,23.85,10a188.8,188.8,0,0,0,38.77,3.69,189.11,189.11,0,0,0,38.8-3.69c11.38-2.44,19.62-5.89,23.84-10a14,14,0,0,0,1.78-2.07,8.57,8.57,0,0,0,1.64-5V718.85A2.75,2.75,0,0,0,316.57,716.1Zm-2.74,53.34a3.19,3.19,0,0,1-.65,1.83,8.63,8.63,0,0,1-1.06,1.24h0c-3.5,3.38-11.21,6.46-21.72,8.66a200.12,200.12,0,0,1-74.21,0c-10.51-2.21-18.23-5.29-21.73-8.67h0a8.39,8.39,0,0,1-1.05-1.22,3.25,3.25,0,0,1-.65-1.84V727.63c4.5,3.25,11.7,6,21.1,8.1a187,187,0,0,0,39.43,3.82,187.24,187.24,0,0,0,39.45-3.82c9.41-2.07,16.61-4.85,21.12-8.1Z"/><circle class="cls-14" cx="253.28" cy="708.89" r="47.63"/><path class="cls-15" d="M237.7,738.76a31,31,0,0,0,40.84-9.52,2.39,2.39,0,0,0-.8-3.41h0a2.37,2.37,0,0,0-3.14.74,26.2,26.2,0,1,1-12.42-39.25l-7.77,5.23a2.37,2.37,0,0,0-.64,3.3h0a2.38,2.38,0,0,0,3.3.65l11.28-7.59a2.41,2.41,0,0,0,.75-.81,2.37,2.37,0,0,0,.13-2.05l-4.78-11.95a2.38,2.38,0,0,0-3.1-1.32h0a2.38,2.38,0,0,0-1.33,3.09l2.62,6.54a31,31,0,0,0-24.94,56.35Z"/><path class="cls-17" d="M232.28,708a4.71,4.71,0,0,1,1.89-4.08,7.88,7.88,0,0,1,4.75-1.38,10.8,10.8,0,0,1,5,1.3v3.28a8.25,8.25,0,0,0-4.61-1.41,5.79,5.79,0,0,0-2.61.53,1.76,1.76,0,0,0-1.07,1.68,1.62,1.62,0,0,0,1,1.45,10.52,10.52,0,0,0,2.36.88,25.73,25.73,0,0,1,2.78.91,5.24,5.24,0,0,1,2.37,1.89,5.75,5.75,0,0,1,1,3.47,4.4,4.4,0,0,1-1.86,3.66,7.31,7.31,0,0,1-4.56,1.42,11.76,11.76,0,0,1-6.15-1.56v-3.39a8.79,8.79,0,0,0,5.38,1.79c2.56,0,3.84-.71,3.84-2.14a2.1,2.1,0,0,0-.69-1.61,4.39,4.39,0,0,0-1.76-1q-1.06-.3-2.28-.72a24.06,24.06,0,0,1-2.28-.91A4.16,4.16,0,0,1,233,710.6,4.6,4.6,0,0,1,232.28,708Z"/><path class="cls-17" d="M248.24,712.08a13.47,13.47,0,0,1,.54-4,7.94,7.94,0,0,1,1.37-2.75,6.66,6.66,0,0,1,2-1.67,7.93,7.93,0,0,1,2.33-.87,13.64,13.64,0,0,1,2.46-.22,13.42,13.42,0,0,1,2.44.22,7.93,7.93,0,0,1,2.31.87,6.87,6.87,0,0,1,2,1.67,8,8,0,0,1,1.39,2.75,15.48,15.48,0,0,1,.09,7.68,8.67,8.67,0,0,1-1.14,2.63,6.74,6.74,0,0,1-1.72,1.73,7.54,7.54,0,0,1-2,1,10.4,10.4,0,0,1-2.18.43,2,2,0,0,0,.94,1.85,4.22,4.22,0,0,0,2.26.58v2.62q-6,0-6-5.08a9.58,9.58,0,0,1-2.63-.72,7.78,7.78,0,0,1-2.25-1.57,7,7,0,0,1-1.67-2.87A13.73,13.73,0,0,1,248.24,712.08Zm3.77-3.44a14.72,14.72,0,0,0,0,6.9,4,4,0,0,0,1.24,2,4.58,4.58,0,0,0,1.67.88,9.92,9.92,0,0,0,4.06,0,4.54,4.54,0,0,0,1.68-.88,4,4,0,0,0,1.24-2,14.72,14.72,0,0,0,0-6.9,4,4,0,0,0-1.24-2,4.4,4.4,0,0,0-1.68-.88,9.48,9.48,0,0,0-4.06,0,4.44,4.44,0,0,0-1.67.88A4,4,0,0,0,252,708.64Z"/><path class="cls-17" d="M269.44,721.41V702.78h3.36v15.46h8.95v3.17Z"/><path class="cls-16" d="M215.72,817.73s-3.88,5.88,3.75,7.08c.74.09,6.27.67,7.69,2.48,0,0-.13-3.13-4.61-5S216.22,820,215.72,817.73Z"/><path class="cls-16" d="M219.5,805.08s-10.86,6.61-.63,13.2c2,1.27,9.11,4.85,8.9,8.13,0,0,4.32-6.41-2-10.43C219.28,811.85,217.65,807.45,219.5,805.08Z"/><path class="cls-16" d="M230.71,811.55c-4.65-4.87-5.94-7.88-4-11.79,0,0-13.9,5.35-.18,14.83,4.91,3.4,4.09,6.86,4.09,7C231.45,820.78,235.36,816.43,230.71,811.55Z"/><text class="cls-18" transform="translate(238.27 821.19)"><tspan class="cls-19">N</tspan><tspan class="cls-20" x="14.56" y="0">O</tspan><tspan class="cls-21" x="29.13" y="0">D</tspan><tspan x="42.31" y="0">E</tspan></text></g></g></svg>