<svg xmlns="http://www.w3.org/2000/svg" viewBox="0 0 1264 1110"><defs><style>.cls-1{isolation:isolate;}.cls-2{fill:#efeeed;mix-blend-mode:multiply;}.cls-13,.cls-3{fill:#777;}.cls-4{fill:#010101;}.cls-5{fill:#fff;}.cls-6{fill:#e5282a;}.cls-7{font-size:23.27px;}.cls-14,.cls-27,.cls-28,.cls-7{fill:#1d1d1b;}.cls-14,.cls-28,.cls-7{font-family:MavenProMedium, Maven Pro;}.cls-8{letter-spacing:0.01em;}.cls-9{letter-spacing:0em;}.cls-10{letter-spacing:-0.02em;}.cls-11{letter-spacing:0em;}.cls-12{letter-spacing:0em;}.cls-13{fill-rule:evenodd;}.cls-14{font-size:28px;}.cls-15{letter-spacing:-0.01em;}.cls-16{letter-spacing:-0.03em;}.cls-17{letter-spacing:-0.01em;}.cls-18{letter-spacing:-0.01em;}.cls-19{letter-spacing:0.01em;}.cls-20{letter-spacing:0em;}.cls-21{letter-spacing:-0.02em;}.cls-22{letter-spacing:-0.02em;}.cls-23{letter-spacing:0em;}.cls-24{letter-spacing:-0.02em;}.cls-25{letter-spacing:-0.02em;}.cls-26{letter-spacing:0em;}.cls-28{font-size:21.03px;}.cls-29{letter-spacing:0em;}.cls-30{letter-spacing:-0.01em;}.cls-31{letter-spacing:-0.01em;}</style></defs><g class="cls-1"><g id="Capa_1" data-name="Capa 1"><rect class="cls-2" x="264.93" y="253.62" width="705.79" height="204.03" rx="9.28"/><path class="cls-3" d="M560,749.79a3.52,3.52,0,0,1-2.29-.85L542.58,736a3.52,3.52,0,0,1,0-5.35l15.11-12.92a3.52,3.52,0,1,1,4.58,5.35l-12,10.25,12,10.24a3.52,3.52,0,0,1-2.29,6.2Z"/><path class="cls-3" d="M774.06,736.87H546.52a3.52,3.52,0,1,1,0-7H774.06a3.52,3.52,0,1,1,0,7Z"/><path class="cls-3" d="M761,716.91a3.51,3.51,0,0,1,2.29.84l15.11,12.92a3.54,3.54,0,0,1,1.23,2.68,3.5,3.5,0,0,1-1.23,2.67l-15.11,12.92a3.52,3.52,0,1,1-4.58-5.35l12-10.24-12-10.24a3.52,3.52,0,0,1,2.29-6.2Z"/><path class="cls-3" d="M919,411.9H884.41a3.53,3.53,0,0,0,0,7.05H919a3.53,3.53,0,1,0,0-7.05Z"/><path class="cls-3" d="M915.43,415.43V564.81a3.53,3.53,0,1,0,7.05,0V415.43a3.53,3.53,0,1,0-7.05,0Z"/><path class="cls-3" d="M902.51,553.64a3.52,3.52,0,0,0,.85,2.29L916.28,571a3.52,3.52,0,0,0,5.35,0l12.92-15.11a3.52,3.52,0,1,0-5.35-4.58l-10.25,12-10.24-12a3.52,3.52,0,0,0-6.2,2.29Z"/><path class="cls-3" d="M613.51,444.83v50.78a3.52,3.52,0,0,1-7,0V444.83a3.52,3.52,0,1,1,7,0Z"/><path class="cls-3" d="M549.68,492.09h59.9a3.52,3.52,0,0,1,0,7h-59.9a3.52,3.52,0,1,1,0-7Z"/><path class="cls-3" d="M553.2,495.61v37a3.52,3.52,0,0,1-7,0v-37a3.52,3.52,0,0,1,7,0Z"/><path class="cls-3" d="M516.26,571.23l35.91-35.92a3.52,3.52,0,1,0-5-5l-35.91,35.91a3.52,3.52,0,0,0,5,5Z"/><path class="cls-3" d="M534.76,571a3.56,3.56,0,0,1-2.22,1l-19.82,1.55a3.52,3.52,0,0,1-3.79-3.78L510.48,550a3.53,3.53,0,0,1,7,.54l-1.23,15.72L532,565a3.52,3.52,0,0,1,2.77,6Z"/><path class="cls-3" d="M669.15,492.09H609.26a3.52,3.52,0,1,0,0,7h59.89a3.52,3.52,0,1,0,0-7Z"/><path class="cls-3" d="M665.63,495.61v37a3.53,3.53,0,0,0,7,0v-37a3.53,3.53,0,0,0-7,0Z"/><path class="cls-3" d="M702.57,571.23l-35.91-35.92a3.52,3.52,0,1,1,5-5l35.92,35.91a3.53,3.53,0,1,1-5,5Z"/><path class="cls-3" d="M684.08,571a3.52,3.52,0,0,0,2.22,1l19.82,1.55a3.52,3.52,0,0,0,3.78-3.78L708.35,550a3.52,3.52,0,1,0-7,.54l1.23,15.72L686.84,565a3.52,3.52,0,0,0-2.76,6Z"/><path class="cls-3" d="M320.08,411.9h34.55a3.53,3.53,0,0,1,0,7.05H320.08a3.53,3.53,0,0,1,0-7.05Z"/><path class="cls-3" d="M323.6,415.43V564.81a3.52,3.52,0,1,1-7,0V415.43a3.52,3.52,0,1,1,7,0Z"/><path class="cls-3" d="M336.52,553.64a3.47,3.47,0,0,1-.85,2.29L322.76,571a3.53,3.53,0,0,1-5.36,0l-12.91-15.11a3.52,3.52,0,1,1,5.35-4.58l10.24,12,10.24-12a3.52,3.52,0,0,1,6.2,2.29Z"/><path class="cls-4" d="M589.76,754.27a3.63,3.63,0,0,1,1.16-2.71,5,5,0,0,1,3.58-1.12,7.8,7.8,0,0,1,3.5.83v1.84a6.19,6.19,0,0,0-3.27-.9c-2.05,0-3.07.69-3.07,2.06a1.19,1.19,0,0,0,.54,1,4.47,4.47,0,0,0,1.33.66q.79.24,1.74.63a17.65,17.65,0,0,1,1.74.84,3.57,3.57,0,0,1,1.33,1.29,3.64,3.64,0,0,1,.54,2,3.18,3.18,0,0,1-1.3,2.71,5.83,5.83,0,0,1-3.6,1,9.12,9.12,0,0,1-4-1v-2a7.33,7.33,0,0,0,3.87,1.15c2.11,0,3.17-.64,3.17-1.92a2,2,0,0,0-.53-1.41,3.12,3.12,0,0,0-1.33-.84l-1.75-.59c-.63-.22-1.21-.45-1.74-.68A3.22,3.22,0,0,1,590.3,756,2.91,2.91,0,0,1,589.76,754.27Z"/><path class="cls-4" d="M600,754h2l2.73,7.6,2.69-7.6h2l-4.17,11.24c-.72,1.94-1.77,2.92-3.15,2.92h0a6.58,6.58,0,0,1-1.42-.16v-1.68a4.85,4.85,0,0,0,1.14.17q1.26,0,2-2.34Z"/><path class="cls-4" d="M611.52,764.17v-9.29a9.74,9.74,0,0,1,4.33-1,4.3,4.3,0,0,1,3,1,3.6,3.6,0,0,1,1.1,2.79v6.54h-1.9v-6.69a2,2,0,0,0-.46-1.41,2.42,2.42,0,0,0-1.84-.52,7.61,7.61,0,0,0-2.39.37v8.25Z"/><path class="cls-4" d="M623.54,763a6.87,6.87,0,0,1,0-7.79,4.5,4.5,0,0,1,3.52-1.34,8.07,8.07,0,0,1,3,.57v1.77a6.29,6.29,0,0,0-2.79-.67h0a3.17,3.17,0,0,0-2.2.72,3.84,3.84,0,0,0-.79,2.85,6.45,6.45,0,0,0,.23,1.86,2.2,2.2,0,0,0,.7,1.11,2.72,2.72,0,0,0,.93.47,4.66,4.66,0,0,0,1.13.12,6.57,6.57,0,0,0,2.83-.64v1.75a8.06,8.06,0,0,1-3,.56A4.5,4.5,0,0,1,623.54,763Z"/><path class="cls-4" d="M632.49,764.17v-14h1.85v4.23a7.54,7.54,0,0,1,2.69-.5,3.84,3.84,0,0,1,3,1.13,4.52,4.52,0,0,1,1,3.2v6h-1.9v-6a2.45,2.45,0,0,0-.63-2,2.54,2.54,0,0,0-1.65-.5,6.87,6.87,0,0,0-2.51.49v8Z"/><path class="cls-4" d="M644.11,764.17v-9.3a13.47,13.47,0,0,1,4.95-1v1.71A12.43,12.43,0,0,0,646,756v8.17Z"/><path class="cls-4" d="M650.72,761.73a8.23,8.23,0,0,1,0-5.25,3.54,3.54,0,0,1,1.17-1.61,4.8,4.8,0,0,1,1.51-.77,6.6,6.6,0,0,1,3.38,0,4.8,4.8,0,0,1,1.51.77,3.4,3.4,0,0,1,1.17,1.61,8.23,8.23,0,0,1,0,5.25,3.48,3.48,0,0,1-1.17,1.62,4.77,4.77,0,0,1-1.51.76,6.6,6.6,0,0,1-3.38,0,4.77,4.77,0,0,1-1.51-.76A3.62,3.62,0,0,1,650.72,761.73Zm1.69-4.5a8.1,8.1,0,0,0,0,3.75,2.15,2.15,0,0,0,.67,1.09,2.27,2.27,0,0,0,.91.47,4.35,4.35,0,0,0,1.1.12,4.49,4.49,0,0,0,1.11-.12,2.3,2.3,0,0,0,.9-.47,2.15,2.15,0,0,0,.67-1.09,8.1,8.1,0,0,0,0-3.75,2.15,2.15,0,0,0-.67-1.09,2.6,2.6,0,0,0-.9-.47,4.49,4.49,0,0,0-1.11-.12,4.35,4.35,0,0,0-1.1.12,2.56,2.56,0,0,0-.91.47A2.15,2.15,0,0,0,652.41,757.23Z"/><path class="cls-4" d="M662.24,764.17v-9.29a9.74,9.74,0,0,1,4.32-1,4.31,4.31,0,0,1,3,1,3.59,3.59,0,0,1,1.09,2.79v6.54h-1.9v-6.69a2,2,0,0,0-.46-1.41,2.4,2.4,0,0,0-1.84-.52,7.66,7.66,0,0,0-2.39.37v8.25Z"/><path class="cls-4" d="M673.8,752.45v-2h2v2Zm.06,11.72V754h1.86v10.15Z"/><path class="cls-4" d="M678.34,764.17v-1.72l5.17-6.72h-5V754h7.43v1.69l-5.14,6.7h5.14v1.76Z"/><path class="cls-4" d="M687.84,761a2.7,2.7,0,0,1,1.27-2.35,6.32,6.32,0,0,1,3.51-.85,13.91,13.91,0,0,1,1.85.12,2.46,2.46,0,0,0-.7-1.83,3.14,3.14,0,0,0-2.1-.56,8.68,8.68,0,0,0-2.81.51v-1.59a8.45,8.45,0,0,1,3.07-.55,4.58,4.58,0,0,1,3.28,1.1,4.14,4.14,0,0,1,1.16,3.15V761a2.81,2.81,0,0,1-.07.65,3.11,3.11,0,0,1-.31.83,2.76,2.76,0,0,1-.66.89,3.51,3.51,0,0,1-1.26.65,6.25,6.25,0,0,1-1.93.27,6.16,6.16,0,0,1-2-.28,3.73,3.73,0,0,1-1.27-.66,3,3,0,0,1-.69-.9,3.1,3.1,0,0,1-.37-1.53Zm1.86,0c0,1.15.81,1.72,2.44,1.72h0c1.53,0,2.3-.55,2.3-1.65v-1.64a11.18,11.18,0,0,0-1.77-.12,5.12,5.12,0,0,0-.85.07,8.26,8.26,0,0,0-1,.23,1.87,1.87,0,0,0-.85.53A1.2,1.2,0,0,0,689.7,760.94Z"/><path class="cls-4" d="M697.82,755.61V754h1.77v-3h1.85v3h2.71v1.59h-2.71v5.87c0,.79.5,1.18,1.51,1.18h0a2.33,2.33,0,0,0,1.19-.29v1.68a3.67,3.67,0,0,1-1.39.28h0a3.75,3.75,0,0,1-.79-.09,4.83,4.83,0,0,1-1-.35,2.14,2.14,0,0,1-1-.91,3.17,3.17,0,0,1-.37-1.61v-5.76Z"/><path class="cls-4" d="M706.6,752.45v-2h2v2Zm.06,11.72V754h1.86v10.15Z"/><path class="cls-4" d="M711.63,761.73a8.23,8.23,0,0,1,0-5.25,3.54,3.54,0,0,1,1.17-1.61,4.8,4.8,0,0,1,1.51-.77,6.6,6.6,0,0,1,3.38,0,4.8,4.8,0,0,1,1.51.77,3.4,3.4,0,0,1,1.17,1.61,8.23,8.23,0,0,1,0,5.25,3.48,3.48,0,0,1-1.17,1.62,4.77,4.77,0,0,1-1.51.76,6.6,6.6,0,0,1-3.38,0,4.77,4.77,0,0,1-1.51-.76A3.62,3.62,0,0,1,711.63,761.73Zm1.69-4.5a8.1,8.1,0,0,0,0,3.75,2.21,2.21,0,0,0,.67,1.09,2.27,2.27,0,0,0,.91.47,4.35,4.35,0,0,0,1.1.12,4.49,4.49,0,0,0,1.11-.12,2.3,2.3,0,0,0,.9-.47,2.15,2.15,0,0,0,.67-1.09,8.1,8.1,0,0,0,0-3.75,2.15,2.15,0,0,0-.67-1.09,2.6,2.6,0,0,0-.9-.47,4.49,4.49,0,0,0-1.11-.12,4.35,4.35,0,0,0-1.1.12,2.56,2.56,0,0,0-.91.47A2.21,2.21,0,0,0,713.32,757.23Z"/><path class="cls-4" d="M723.15,764.17v-9.29a9.74,9.74,0,0,1,4.32-1,4.31,4.31,0,0,1,3,1,3.59,3.59,0,0,1,1.09,2.79v6.54h-1.9v-6.69a2.06,2.06,0,0,0-.45-1.41,2.45,2.45,0,0,0-1.85-.52,7.66,7.66,0,0,0-2.39.37v8.25Z"/><path class="cls-4" d="M566.44,536.16V522.59H575v1.77h-6.65v4.13h5.85v1.77h-5.85v5.9Z"/><path class="cls-4" d="M576.47,531.21c0-3.58,1.49-5.36,4.48-5.36h0a4.17,4.17,0,0,1,3.25,1.33,5.08,5.08,0,0,1,1.22,3.56c0,.49,0,1-.06,1.4h-7a2.62,2.62,0,0,0,2.86,2.61,7.39,7.39,0,0,0,3.5-.76v1.69a9,9,0,0,1-3.54.66h-.06a5.73,5.73,0,0,1-1.65-.22,4.84,4.84,0,0,1-1.47-.74,3.47,3.47,0,0,1-1.13-1.59A7.09,7.09,0,0,1,576.47,531.21Zm1.87-.74h5.21a4.37,4.37,0,0,0-.17-1,4.48,4.48,0,0,0-.41-.94,1.93,1.93,0,0,0-.79-.76,2.49,2.49,0,0,0-1.23-.28,2.41,2.41,0,0,0-1.88.66A3.83,3.83,0,0,0,578.34,530.47Z"/><path class="cls-4" d="M587.43,531a7.18,7.18,0,0,1,.41-2.57A3.48,3.48,0,0,1,589,526.8a4.67,4.67,0,0,1,1.48-.74,6.06,6.06,0,0,1,1.63-.21,8,8,0,0,1,2.17.3v-4h1.86V533a3.66,3.66,0,0,1-.06.65,4.47,4.47,0,0,1-.31.83,2.83,2.83,0,0,1-.66.88,3.48,3.48,0,0,1-1.24.65,6.18,6.18,0,0,1-1.92.27,6,6,0,0,1-1.13-.1,4.19,4.19,0,0,1-2.28-1.35,4.72,4.72,0,0,1-.77-1.56A7.63,7.63,0,0,1,587.43,531Zm1.86,0a7.18,7.18,0,0,0,.22,1.95,2.31,2.31,0,0,0,.64,1.13,2.28,2.28,0,0,0,.82.48,3.05,3.05,0,0,0,1,.13c1.56,0,2.34-.5,2.33-1.51v-5.2a5.67,5.67,0,0,0-2.17-.42,4.1,4.1,0,0,0-1.05.12,2.24,2.24,0,0,0-.88.45,2.06,2.06,0,0,0-.65,1A6.19,6.19,0,0,0,589.29,531Z"/><path class="cls-4" d="M598.45,531.21c0-3.58,1.49-5.36,4.48-5.36h0a4.17,4.17,0,0,1,3.25,1.33,5.08,5.08,0,0,1,1.22,3.56c0,.49,0,1-.06,1.4h-7a2.64,2.64,0,0,0,2.87,2.61,7.39,7.39,0,0,0,3.5-.76v1.69a9,9,0,0,1-3.54.66h-.06a5.73,5.73,0,0,1-1.65-.22,4.84,4.84,0,0,1-1.47-.74,3.4,3.4,0,0,1-1.13-1.59A7.09,7.09,0,0,1,598.45,531.21Zm1.86-.74h5.22a5,5,0,0,0-.17-1,4.48,4.48,0,0,0-.41-.94,2,2,0,0,0-.79-.76,2.49,2.49,0,0,0-1.23-.28,2.45,2.45,0,0,0-1.89.66A3.9,3.9,0,0,0,600.31,530.47Z"/><path class="cls-4" d="M609.81,536.16v-9.3a13.47,13.47,0,0,1,5-1v1.71a12.89,12.89,0,0,0-3.09.42v8.18Z"/><path class="cls-4" d="M616.08,533a2.69,2.69,0,0,1,1.28-2.35,6.3,6.3,0,0,1,3.51-.85,13.76,13.76,0,0,1,1.84.12A2.5,2.5,0,0,0,622,528a3.17,3.17,0,0,0-2.1-.55,9,9,0,0,0-2.81.5v-1.59a8.7,8.7,0,0,1,3.07-.54,4.53,4.53,0,0,1,3.28,1.1,4.14,4.14,0,0,1,1.16,3.15V533a2.81,2.81,0,0,1-.07.65,3.24,3.24,0,0,1-.31.83,2.76,2.76,0,0,1-.66.89,3.51,3.51,0,0,1-1.26.65,6.25,6.25,0,0,1-1.93.27,6.16,6.16,0,0,1-2-.28,3.56,3.56,0,0,1-1.27-.67,2.82,2.82,0,0,1-.68-.89,3.47,3.47,0,0,1-.32-.86A3.88,3.88,0,0,1,616.08,533Zm1.86,0c0,1.15.81,1.72,2.44,1.72h0c1.53,0,2.3-.55,2.3-1.65v-1.64a12.33,12.33,0,0,0-1.76-.13,5.19,5.19,0,0,0-.86.08,6.62,6.62,0,0,0-1,.23,1.94,1.94,0,0,0-.85.52A1.24,1.24,0,0,0,617.94,532.93Z"/><path class="cls-4" d="M626.06,527.6V526h1.77v-3h1.86v3h2.7v1.59h-2.7v5.87c0,.79.5,1.18,1.5,1.18h0a2.32,2.32,0,0,0,1.18-.29V536a3.67,3.67,0,0,1-1.39.28h0a3.75,3.75,0,0,1-.79-.09,5.5,5.5,0,0,1-1-.35,2.12,2.12,0,0,1-.95-.91,3.07,3.07,0,0,1-.38-1.61V527.6Z"/><path class="cls-4" d="M634.21,531.21c0-3.58,1.49-5.36,4.48-5.36h0a4.17,4.17,0,0,1,3.25,1.33,5.08,5.08,0,0,1,1.22,3.56c0,.49,0,1-.06,1.4h-7a2.62,2.62,0,0,0,2.86,2.61,7.39,7.39,0,0,0,3.5-.76v1.69a9,9,0,0,1-3.54.66h-.06a5.73,5.73,0,0,1-1.65-.22,4.84,4.84,0,0,1-1.47-.74,3.47,3.47,0,0,1-1.13-1.59A7.09,7.09,0,0,1,634.21,531.21Zm1.87-.74h5.21a4.37,4.37,0,0,0-.17-1,4.48,4.48,0,0,0-.41-.94,1.93,1.93,0,0,0-.79-.76,2.49,2.49,0,0,0-1.23-.28,2.41,2.41,0,0,0-1.88.66A3.83,3.83,0,0,0,636.08,530.47Z"/><path class="cls-4" d="M645.17,531a7.18,7.18,0,0,1,.41-2.57,3.48,3.48,0,0,1,1.14-1.59,4.67,4.67,0,0,1,1.48-.74,6.06,6.06,0,0,1,1.63-.21,8,8,0,0,1,2.17.3v-4h1.86V533a3.66,3.66,0,0,1-.06.65,4.47,4.47,0,0,1-.31.83,2.83,2.83,0,0,1-.66.88,3.48,3.48,0,0,1-1.24.65,6.18,6.18,0,0,1-1.92.27,5.94,5.94,0,0,1-1.13-.1,4.19,4.19,0,0,1-2.28-1.35,4.92,4.92,0,0,1-.78-1.56A8,8,0,0,1,645.17,531Zm1.85,0a7.14,7.14,0,0,0,.23,1.95,2.31,2.31,0,0,0,.64,1.13,2.28,2.28,0,0,0,.82.48,3.05,3.05,0,0,0,1,.13c1.56,0,2.34-.5,2.33-1.51v-5.2a5.67,5.67,0,0,0-2.17-.42,4.24,4.24,0,0,0-1.06.12,2.27,2.27,0,0,0-.87.45,2.06,2.06,0,0,0-.65,1A6.16,6.16,0,0,0,647,531Z"/><path class="cls-4" d="M576.52,552.62a10,10,0,0,1,.39-2.92,5.72,5.72,0,0,1,1-2,5.07,5.07,0,0,1,1.47-1.21,5.62,5.62,0,0,1,1.7-.63,8.93,8.93,0,0,1,1.76-.16,9.14,9.14,0,0,1,1.78.16,5.42,5.42,0,0,1,1.68.63,5.07,5.07,0,0,1,1.47,1.21,5.72,5.72,0,0,1,1,2,11.23,11.23,0,0,1-.06,6.08,5.15,5.15,0,0,1-1.23,2.1,5.61,5.61,0,0,1-1.66,1.14,7,7,0,0,1-2,.5,2,2,0,0,0,.54,1.4,1.91,1.91,0,0,0,1.49.6V563a4,4,0,0,1-2.79-1,3.2,3.2,0,0,1-1.09-2.45,7.22,7.22,0,0,1-2-.46,5.77,5.77,0,0,1-1.73-1.11,4.93,4.93,0,0,1-1.29-2.11A10.07,10.07,0,0,1,576.52,552.62Zm2.18-2.32a9.79,9.79,0,0,0,0,4.65,4.72,4.72,0,0,0,.68,1.54,3,3,0,0,0,1,.87,3.77,3.77,0,0,0,1.17.42,7.89,7.89,0,0,0,1.25.09,8.11,8.11,0,0,0,1.26-.09,3.77,3.77,0,0,0,1.17-.42,3.14,3.14,0,0,0,1-.87A4.52,4.52,0,0,0,587,555a10.15,10.15,0,0,0,0-4.65,4.6,4.6,0,0,0-.68-1.52,3,3,0,0,0-1-.88,3.62,3.62,0,0,0-1.18-.41,8.86,8.86,0,0,0-2.52,0,3.53,3.53,0,0,0-1.16.41,2.93,2.93,0,0,0-1,.88A4.6,4.6,0,0,0,578.7,550.3Z"/><path class="cls-4" d="M591.59,555.15v-5.89h1.86v6a3,3,0,0,0,.59,2,3,3,0,0,0,3.69,0,3,3,0,0,0,.58-2v-6h1.86v5.89a4.53,4.53,0,0,1-1.12,3.28,4.85,4.85,0,0,1-6.32,0A4.5,4.5,0,0,1,591.59,555.15Z"/><path class="cls-4" d="M602.82,554.46c0-3.57,1.5-5.35,4.48-5.35h0a4.19,4.19,0,0,1,3.26,1.33,5.05,5.05,0,0,1,1.21,3.56c0,.48,0,1,0,1.39h-7a2.63,2.63,0,0,0,2.86,2.62,7.46,7.46,0,0,0,3.51-.77v1.7a9.1,9.1,0,0,1-3.55.66h-.06a5.82,5.82,0,0,1-1.65-.23,4.84,4.84,0,0,1-1.47-.74,3.35,3.35,0,0,1-1.12-1.59A7,7,0,0,1,602.82,554.46Zm1.87-.73h5.22a4.9,4.9,0,0,0-.18-1,4.42,4.42,0,0,0-.4-.94,2.06,2.06,0,0,0-.79-.76,2.55,2.55,0,0,0-1.24-.29,2.43,2.43,0,0,0-1.88.67A3.9,3.9,0,0,0,604.69,553.73Z"/><path class="cls-4" d="M614.19,559.42v-9.3a13.19,13.19,0,0,1,4.95-1v1.7a13.44,13.44,0,0,0-3.09.43v8.18Z"/><path class="cls-4" d="M621.21,547.69v-2h2v2Zm0,11.73V549.26h1.86v10.16Z"/><path class="cls-4" d="M625.94,554.46q0-5.36,4.48-5.35h0a4.19,4.19,0,0,1,3.25,1.33,5.06,5.06,0,0,1,1.22,3.56c0,.48,0,1-.06,1.39h-7a2.63,2.63,0,0,0,2.86,2.62,7.4,7.4,0,0,0,3.51-.77v1.7a9,9,0,0,1-3.54.66h-.06a5.72,5.72,0,0,1-1.65-.23,4.63,4.63,0,0,1-1.47-.74,3.3,3.3,0,0,1-1.13-1.59A7.05,7.05,0,0,1,625.94,554.46Zm1.86-.73H633a4.91,4.91,0,0,0-.17-1,4.48,4.48,0,0,0-.41-.94,2,2,0,0,0-.79-.76,2.54,2.54,0,0,0-1.23-.29,2.44,2.44,0,0,0-1.89.67A3.9,3.9,0,0,0,627.8,553.73Z"/><path class="cls-4" d="M636.85,552.13a2.89,2.89,0,0,1,.9-2.14,3.79,3.79,0,0,1,2.75-.88,6.09,6.09,0,0,1,2.72.66v1.61a6.06,6.06,0,0,0-2.49-.61c-1.35,0-2,.44-2,1.3,0,.29.18.52.54.71a7.25,7.25,0,0,0,1.29.5,14.9,14.9,0,0,1,1.51.51,3,3,0,0,1,1.3,1,2.82,2.82,0,0,1,.54,1.76,2.86,2.86,0,0,1-.92,2.12,4,4,0,0,1-2.86.89,6,6,0,0,1-2.93-.72v-1.69a5.7,5.7,0,0,0,2.81.74h0a2.67,2.67,0,0,0,1.49-.35,1.07,1.07,0,0,0,.51-.9,1.2,1.2,0,0,0-.53-1,4.11,4.11,0,0,0-1.3-.59c-.51-.14-1-.3-1.52-.48a2.85,2.85,0,0,1-1.29-.87A2.28,2.28,0,0,1,636.85,552.13Z"/><path class="cls-4" d="M521.2,312l8.42-21.11h2.87l8.4,21.11h-3.17l-2.27-5.92h-8.81L524.37,312Zm6.49-8.67h6.71L531,294.54Z"/><path class="cls-4" d="M544.13,318V301a5.75,5.75,0,0,1,.09-1,5.32,5.32,0,0,1,.48-1.27,4.38,4.38,0,0,1,1-1.36,5.5,5.5,0,0,1,1.95-1,9.72,9.72,0,0,1,3-.42,9.82,9.82,0,0,1,1.72.15,6.64,6.64,0,0,1,1.84.7,6,6,0,0,1,1.72,1.41,7,7,0,0,1,1.21,2.43,12.4,12.4,0,0,1,.48,3.62,11.06,11.06,0,0,1-.64,4,5.2,5.2,0,0,1-1.76,2.47,7.75,7.75,0,0,1-2.3,1.15,9,9,0,0,1-2.57.35,12.12,12.12,0,0,1-3.36-.47V318Zm2.89-9a9.35,9.35,0,0,0,3.36.63,6.72,6.72,0,0,0,1.67-.18,3.83,3.83,0,0,0,1.35-.71,3.27,3.27,0,0,0,1-1.65,9.84,9.84,0,0,0,.34-2.84,11.41,11.41,0,0,0-.34-3.05,3.64,3.64,0,0,0-1-1.77,3.78,3.78,0,0,0-1.29-.75,4.61,4.61,0,0,0-1.45-.21q-3.66,0-3.66,2.37Z"/><path class="cls-4" d="M561.47,318V301a5.75,5.75,0,0,1,.09-1,5.32,5.32,0,0,1,.48-1.27,4.38,4.38,0,0,1,1-1.36,5.5,5.5,0,0,1,2-1,10.59,10.59,0,0,1,4.73-.27,6.64,6.64,0,0,1,1.84.7,6,6,0,0,1,1.72,1.41,7,7,0,0,1,1.21,2.43,12.38,12.38,0,0,1,.49,3.62,11,11,0,0,1-.65,4,5.2,5.2,0,0,1-1.76,2.47,7.63,7.63,0,0,1-2.3,1.15,9,9,0,0,1-2.57.35,12.12,12.12,0,0,1-3.36-.47V318Zm2.89-9a9.35,9.35,0,0,0,3.36.63,6.72,6.72,0,0,0,1.67-.18,3.83,3.83,0,0,0,1.35-.71,3.27,3.27,0,0,0,1-1.65,9.81,9.81,0,0,0,.35-2.84,11.37,11.37,0,0,0-.35-3.05,3.64,3.64,0,0,0-1-1.77,3.69,3.69,0,0,0-1.29-.75,4.61,4.61,0,0,0-1.45-.21q-3.66,0-3.66,2.37Z"/><path class="cls-4" d="M579.38,312v-21.8h2.89V312Z"/><path class="cls-4" d="M587.48,293.73v-3.06h3.08v3.06Zm.1,18.24V296.18h2.89V312Z"/><path class="cls-4" d="M596.5,310.13a10.69,10.69,0,0,1,0-12.11,7,7,0,0,1,5.48-2.09,12.51,12.51,0,0,1,4.65.88v2.75a9.9,9.9,0,0,0-4.34-1h-.06a4.89,4.89,0,0,0-3.42,1.12c-.82.75-1.23,2.22-1.23,4.42a9.94,9.94,0,0,0,.36,2.91,3.33,3.33,0,0,0,1.08,1.71,4.11,4.11,0,0,0,1.45.75,7.51,7.51,0,0,0,1.76.18,10.21,10.21,0,0,0,4.4-1v2.73a12.71,12.71,0,0,1-4.65.87A7,7,0,0,1,596.5,310.13Z"/><path class="cls-4" d="M609.55,307a4.17,4.17,0,0,1,2-3.66A9.75,9.75,0,0,1,617,302a22.19,22.19,0,0,1,2.87.19,3.84,3.84,0,0,0-1.09-2.86,4.91,4.91,0,0,0-3.26-.87,13.72,13.72,0,0,0-4.37.79v-2.47a13.23,13.23,0,0,1,4.77-.85,7.12,7.12,0,0,1,5.11,1.71,6.47,6.47,0,0,1,1.79,4.9v4.56a5,5,0,0,1-.1,1,5.28,5.28,0,0,1-.48,1.29,4.45,4.45,0,0,1-1,1.37,5.34,5.34,0,0,1-2,1,9.51,9.51,0,0,1-3,.43,9.8,9.8,0,0,1-3.07-.44,6,6,0,0,1-2-1,4.71,4.71,0,0,1-1.06-1.4,5.32,5.32,0,0,1-.48-1.33A6.2,6.2,0,0,1,609.55,307Zm2.89,0q0,2.67,3.8,2.67h0q3.59,0,3.58-2.56v-2.55a17.59,17.59,0,0,0-2.74-.2,7.78,7.78,0,0,0-1.33.11,13.4,13.4,0,0,0-1.5.36,3,3,0,0,0-1.32.82A1.93,1.93,0,0,0,612.44,307Z"/><path class="cls-4" d="M625.07,298.65v-2.47h2.75v-4.69h2.89v4.69h4.21v2.47h-4.21v9.13c0,1.23.78,1.84,2.33,1.84h0a3.47,3.47,0,0,0,1.84-.46v2.62a5.84,5.84,0,0,1-2.17.44h-.08a6.09,6.09,0,0,1-1.22-.14,7.32,7.32,0,0,1-1.55-.55,3.27,3.27,0,0,1-1.49-1.42,4.89,4.89,0,0,1-.59-2.5v-9Z"/><path class="cls-4" d="M638.73,293.73v-3.06h3.08v3.06Zm.1,18.24V296.18h2.88V312Z"/><path class="cls-4" d="M646.56,308.17a12.76,12.76,0,0,1,0-8.16,5.56,5.56,0,0,1,1.81-2.52,7.75,7.75,0,0,1,2.35-1.18,10.06,10.06,0,0,1,5.26,0,7.53,7.53,0,0,1,2.35,1.18,5.5,5.5,0,0,1,1.82,2.52,12.76,12.76,0,0,1,0,8.16,5.5,5.5,0,0,1-1.82,2.52,7.53,7.53,0,0,1-2.35,1.18,10.06,10.06,0,0,1-5.26,0,7.75,7.75,0,0,1-2.35-1.18A5.56,5.56,0,0,1,646.56,308.17Zm2.63-7a12.27,12.27,0,0,0,0,5.82,3.32,3.32,0,0,0,1,1.7,3.74,3.74,0,0,0,1.4.74,7.15,7.15,0,0,0,1.72.18,7,7,0,0,0,1.72-.18,3.77,3.77,0,0,0,1.41-.74,3.32,3.32,0,0,0,1-1.7,12.27,12.27,0,0,0,0-5.82,3.32,3.32,0,0,0-1-1.7,3.77,3.77,0,0,0-1.41-.74,7,7,0,0,0-1.72-.18,7.15,7.15,0,0,0-1.72.18,3.74,3.74,0,0,0-1.4.74A3.32,3.32,0,0,0,649.19,301.18Z"/><path class="cls-4" d="M664.47,312V297.52a15,15,0,0,1,6.73-1.62,6.7,6.7,0,0,1,4.7,1.56,5.55,5.55,0,0,1,1.7,4.33V312h-3V301.56a3.23,3.23,0,0,0-.71-2.2,3.86,3.86,0,0,0-2.87-.8,12,12,0,0,0-3.71.57V312Z"/><path class="cls-4" d="M681.54,300.64a4.52,4.52,0,0,1,1.4-3.34,5.9,5.9,0,0,1,4.27-1.37,9.42,9.42,0,0,1,4.23,1v2.51a9.28,9.28,0,0,0-3.87-.94c-2.09,0-3.14.67-3.14,2,0,.45.28.81.84,1.11a10.19,10.19,0,0,0,2,.77c.78.22,1.56.49,2.35.8a4.65,4.65,0,0,1,2,1.58,4.66,4.66,0,0,1-.6,6,6.18,6.18,0,0,1-4.44,1.38,9.33,9.33,0,0,1-4.56-1.11v-2.64a8.8,8.8,0,0,0,4.38,1.15h.06a4.11,4.11,0,0,0,2.31-.54,1.65,1.65,0,0,0,.8-1.4,1.83,1.83,0,0,0-.83-1.56,6.28,6.28,0,0,0-2-.93c-.79-.22-1.58-.47-2.37-.74a4.6,4.6,0,0,1-2-1.35A3.64,3.64,0,0,1,681.54,300.64Z"/><path class="cls-5" d="M918.93,623.9c-38.08,0-77.46,8.63-77.46,23.08V832.39a8.58,8.58,0,0,0,1.66,5,14.47,14.47,0,0,0,1.88,2.18c9.85,9.52,39.56,15.91,73.92,15.91s64.12-6.39,74-15.89a14.82,14.82,0,0,0,1.91-2.21,8.65,8.65,0,0,0,1.65-5V647C996.44,632.53,957,623.9,918.93,623.9Z"/><path class="cls-6" d="M972,627.67c-14.38-3.9-33.74-6.14-53.11-6.14s-38.7,2.24-53.07,6.14c-16.84,4.57-25.74,11.06-25.74,18.76V832.94a10.54,10.54,0,0,0,2,6.1,16.26,16.26,0,0,0,2.14,2.48c10.09,9.75,40.11,16.32,74.66,16.32s64.61-6.56,74.71-16.32a16.28,16.28,0,0,0,2.13-2.48,10.47,10.47,0,0,0,2-6.1V646.43C997.78,638.73,988.88,632.24,972,627.67ZM990,835a9,9,0,0,1-1.23,1.42c-8.62,8.33-38,14.37-69.82,14.37s-61.16-6-69.77-14.37a8.49,8.49,0,0,1-1.23-1.42,3.54,3.54,0,0,1-.72-2V657.4a39.91,39.91,0,0,0,5.26,3l.08,0c1,.46,2,.91,3,1.34l.26.11c1,.42,2.08.82,3.19,1.22l.4.13c.94.33,1.91.65,2.9.95l.91.29c.94.28,1.91.55,2.89.82l1.33.35c.94.25,1.92.49,2.9.72l1.69.38,2.9.62,1.94.37,2.32.42,2.67.44c.72.12,1.45.23,2.18.33.94.14,1.9.28,2.86.4l2.48.31,2.25.26c1.11.12,2.23.24,3.36.34l1.71.16c1.35.12,2.72.22,4.09.32l1.47.09c1.48.1,3,.18,4.49.25l1.11.05c1.63.06,3.28.12,4.94.16h.66c1.81,0,3.63.06,5.46.06s3.66,0,5.46-.06h.68c1.65,0,3.3-.1,4.93-.16l1.12-.05c1.51-.07,3-.15,4.48-.25l1.48-.09c1.37-.1,2.73-.2,4.07-.32l1.75-.16q1.65-.15,3.27-.33c.79-.08,1.57-.18,2.34-.27l2.45-.31c1-.12,1.94-.26,2.9-.4.72-.11,1.44-.21,2.15-.33l2.7-.44,2.3-.42,2-.38c1-.19,1.94-.4,2.89-.61l1.69-.38c1-.23,2-.47,2.93-.72l1.28-.34c1-.28,2-.57,3-.86l.74-.24c1-.32,2.05-.65,3-1l.32-.11c1.14-.4,2.22-.82,3.27-1.24l.17-.07c1.09-.45,2.11-.91,3.09-1.38h0a39.88,39.88,0,0,0,5.3-3V832.94A3.56,3.56,0,0,1,990,835ZM918.93,628.62c44.47,0,71.77,10.37,71.77,17.81a3.82,3.82,0,0,1-.73,2.06c-3.12,4.59-14.24,9.28-30.65,12.33l-.14,0-1.87.33-1.94.32h0a228.64,228.64,0,0,1-30.27,2.67l-1,0-1.94,0c-1.06,0-2.12,0-3.19,0s-2.12,0-3.18,0l-1.94,0-1,0a229.46,229.46,0,0,1-30.21-2.66l-.13,0-1.83-.3-2-.36h0c-16.41-3.05-27.53-7.74-30.65-12.34a3.74,3.74,0,0,1-.74-2.06C847.21,639,874.5,628.62,918.93,628.62Z"/><text class="cls-7" transform="translate(871.3 892.07)"><tspan class="cls-8">H</tspan><tspan class="cls-9" x="15.9" y="0">A</tspan><tspan x="31.41" y="0">D</tspan><tspan class="cls-10" x="47.09" y="0">O</tspan><tspan class="cls-11" x="64.11" y="0">O</tspan><tspan class="cls-12" x="81.36" y="0">P</tspan></text><path id="path136" class="cls-13" d="M943.37,758.75c.64-.35,1.79-.82,2.43-1.17-.66.11-1.83.35-2.49.46-1.74.3-1.95.72-2.22,2.44-.13.81-.3,1.81-.43,2.63.34-.92.75-2,1.15-2.86s.66-1,1.56-1.5ZM911,714.44a11.14,11.14,0,0,1,4.28-4C912.36,711.1,911.81,711.63,911,714.44ZM910.5,719c2.4-4.83,4.22-6.61,9.25-9C914.06,711.4,912.39,712.39,910.5,719ZM859,744.13a11.12,11.12,0,0,1,2.51-5.32C859.13,740.5,858.82,741.19,859,744.13Zm53.86,40.48c-.07-.59-.14-1.18-.22-1.76a14.33,14.33,0,0,1,0-3l.24-3.11c-.3,1-.9,2.11-1.2,3.16-.12.42-.22.76-.28,1.08a35.54,35.54,0,0,1-13.48.17c-.28-1.67-.63-3.4-.93-4.65-.08,1.4,0,5.25,0,7.41a5.57,5.57,0,0,1-.94,3.67,34,34,0,0,0-2.28,3.89,9.76,9.76,0,0,1-.29,3.7c-.62,2.24-7,.51-8.62.05-2.06-.56-6.31-1.4-5.24-4.14a35.39,35.39,0,0,0,2-8.33c-3.76-5.43-7.27-12.87-7.94-19.46-.52-5.12-.21-8.27.9-11.4a29.14,29.14,0,0,1,8.15-12.71c5.31-4.66,10.28-6.53,18-7.72-1.87,2.1-3.72,4.31-5.73,6.68a33.85,33.85,0,0,0-4.55,7.46c-1.79,3.63-1.76,5,.62,8.2,2,2.75,3.15,4,4,6.67a13.9,13.9,0,0,0-1.25,4.88c2.5,2.74,4.36,4.62,6.8,5.19a8.82,8.82,0,0,0,6.51-.63c4.74-2.42,9.12-5.55,14.47-5.68,2.47-6.08,2.22-11.16,1-17.05a85,85,0,0,1-1.39-11.92,28.42,28.42,0,0,0-.45,12.13c.9,5.07,1.6,10.66-.9,15.11-4.84.37-9,3.32-13.34,5.57a7.3,7.3,0,0,1-5.51.47c-1.8-.5-3-1.69-5-3.92,0-2.25.47-3.29,1.5-5.32,1.66-3.26,3.49-6.3,5.49-9.52a93.71,93.71,0,0,0-6.71,8.43c-.74-2.11-1.8-3.18-3.55-5.55s-1.89-3.33-.61-6a27.08,27.08,0,0,1,4.56-7.42c3.78-4.08,7.25-8.63,11.38-12.65,2.25-2.18,3.16-2.11,6.14-2.56,2.69-.41,5.32-.92,8.06-1.56-2.65.25-5.22.34-7.8.4h-.08c2.54-3.25,4-5.06,8.14-6.85,10.17-4.42,16.63-4.9,24.62,1.82,2.07,1.74,3.88,3.42,6,4.93a7.43,7.43,0,0,0-2.28.54,9.64,9.64,0,0,1,3.37.2c.31.2.62.39.95.58a8.9,8.9,0,0,1,3.32,2.75,29.86,29.86,0,0,1,2.72,4.58c-.51-.18-.94-.34-1.32-.45a2.73,2.73,0,0,0-.91-.25,2.86,2.86,0,0,0-1.76.41l-.06,0a12.13,12.13,0,0,1-2.94,1,3.48,3.48,0,0,0,1.84,0l.19-.06a2.79,2.79,0,0,0-.38,1.17,2.9,2.9,0,0,0,.3,1.58h0a1.4,1.4,0,0,0,.3.47c-.39.14-.79.31-1.2.48a18.88,18.88,0,0,1,5.46-.09c.12.58.24,1.2.35,1.83l-.68.05h-.06c-.87-.7-1.85-.59-3.18-.28-4,.92-3.1,3.19-5,6.62,1.93-2.37,1.79-4.84,4.94-5.59a5.06,5.06,0,0,1,1.73-.31,4,4,0,0,0-2,2.06c-.87,2.44-.33,4.5-1.28,6.78,1.18-2,1.25-4,2.3-6.17a4.3,4.3,0,0,1,2.64-2h.71a17.86,17.86,0,0,1,.26,3.82,42.81,42.81,0,0,1-1,6.23c1.07-1.37,1.55-4.27,2-6.32a17.8,17.8,0,0,0-.06-7c-.58-3.14,2.65-2.63,4.52-4.1,1.38-1.09,2.33-2.83,3.6-4.06s3.22.58,3.72,1.77A44,44,0,0,1,977,747.59c-.64,5.85-3.47,12.24-8.63,15.13-6.58,3.67-14.34,1.42-20.88-.78a15.73,15.73,0,0,1-3.59-1.93,9.31,9.31,0,0,1,0,4.6c-.71,2.38-1.85,6.28,1.39,7,1.23.28,1.79.24,3.53-.66a6.45,6.45,0,0,1-3.08.06,2,2,0,0,1-1.59-1.37,5.24,5.24,0,0,0,1.66.54c2.4.58,4.68-.57,5.13-2.24a14.91,14.91,0,0,1,.77-2.8c.49.15,1,.29,1.53.42-.29,1-.59,1.94-.89,2.9A7,7,0,0,1,946,773c-2.46,0-4-1.58-5.7-3.08l-3.4-3a26.31,26.31,0,0,1-8.33-4.18,14.7,14.7,0,0,0,6.19,4.86c-.41,4.17-1.86,7.21-3.09,11.2-.56,1.8-5,9-6.2,9.74-.87.5-6.33,5.1-7.36,5.71-.77,1-1.44,2.42-2.59,3-3.51,1.85-5.76-1.7-7.65-4.7-.86-1.36-3.24-5.3-1.16-6.4a57.64,57.64,0,0,0,5.07-3.1c.3.53.8,1.05,1.13,1.59ZM925.09,791c-1.77,1.43-4.76,4-5.34,4.29-1,1.56-1.18,2.53-2.86,3.44-5,2.71-7.65-.43-10.61-5-1.42-2.17-4.5-7.13-1.23-8.82,1.38-.71,2.43-1.24,3.47-1.84a37.51,37.51,0,0,1-10.31-.1c.06.42.12.83.16,1.19.23,1.92.3,2.51-.74,4a16.77,16.77,0,0,0-2,3.49,10.29,10.29,0,0,1-.38,4.34c-1,3.87-8.26,1.75-11.21,1-3.54-1-8.6-1.85-6.52-6.4a21.74,21.74,0,0,0,1.16-3.2c-3.1,1.37-7.4-1.53-9.45-3.59a11.84,11.84,0,0,1-3.38-6.42c-.32-1.88,0-1.87,1.31-3.2l3.67-3.63c.49-1.35,1-2.69,1.48-4q-.29-1.51-.42-3a32.09,32.09,0,0,1,.36-9.79c-2.16.84-4.63.45-5.73-1.84a14.5,14.5,0,0,1-1-3c-4.81-4.63,4.2-10.7,6.83-11.15-.31.85-.63,1.63-.92,2.4,1.78.93,1.56,3.55,1.18,5.25-.64-.81-1-1.87-1.94-1.91-.13,1.91-.11,4-1.61,5.15.45,1.18.42,1.18,1.68.7,1.79-.69,3.13-2.22,4.48-3.72a25.79,25.79,0,0,1,5.9-7.64c6.31-5.59,12.28-7.43,21.89-9,1.28-1.33,2.6-2.62,4-3.87a7.09,7.09,0,0,1,5-2.15c3-4,5.37-6.82,10.28-8.89,10.28-4.32,17.36-4.53,25.62,2.27,2.72,2.25,5,4.62,8,6.5a13.82,13.82,0,0,1,3.75,3,18.67,18.67,0,0,1,3.44,5.66,11.63,11.63,0,0,0,3.26-1.68c1.26-1.08,2.06-2.89,3.23-4.07,1.55-1.58,5.09.32,5.88,1.82,2.66,5.11,3.76,14.51,3.19,20.11-.7,6.91-3.55,13.45-9.64,16.7-4.15,2.21-9.7,2.41-14.46,1.51l-.93,3c-.92,3-4.53,5.52-7.69,5.67s-4.67-1.42-6.65-3.33l-3.13-3c-.06.68-.15,1.34-.26,2,.82,1.62,1.21,3,1.91,4.71a12.31,12.31,0,0,1,1.21,5c0,1.75.09,3.49.14,5.24a4.37,4.37,0,0,1,.73,3.31c-.24,3.34-2.08,3.66-5.14,3.64-1,0-4.88,0-5.86-.06C927.05,791.92,925.77,791.77,925.09,791Zm10.34-18.22c-.62,2.2-1.45,4.28-2.2,6.66s-4.39,8.81-6.55,10.39a5.48,5.48,0,0,0,2.57.56c1,.08,4.81.1,5.77.12,2.12,0,2.92-.13,3.14-2.54a3.11,3.11,0,0,0-.58-2.44c-.05-1.85-.1-3.7-.16-5.55a10.59,10.59,0,0,0-1.07-4.39A27.79,27.79,0,0,1,935.43,772.75Zm-64.61-30.26c.48,0,.77.2,1.14.57-.07-.88-.23-1.53-.85-1.89l-.12.43a6.1,6.1,0,0,0-.17.89Zm3,6.36c-.34.89-.66,1.8-1,2.74-.05.16-.1.32-.14.47-1.81.77-4.19,1.26-5.11-.64a17.55,17.55,0,0,1-1-3c-3-3.09,1.47-7.17,3.9-8.63a13.14,13.14,0,0,0-.77,1.91c-.74,2.55.34,4.83-2,6.68,1.09,2.2,1,3.07,3.57,2.06A8.22,8.22,0,0,0,873.81,748.85Zm-.7,20.79A50.37,50.37,0,0,0,879.42,783v.07a5.1,5.1,0,0,1-.75,1.86c-1.85,2.47-6.56-1.16-7.93-2.56a9.31,9.31,0,0,1-2.72-5c-.18-1.24,0-1.27.85-2.14l3.48-3.52C872.61,771,872.86,770.32,873.11,769.64Zm87.73-38.11a2.9,2.9,0,0,1,.63.92l.25-.21-.33-.72Zm-22.69,8.54a3.63,3.63,0,0,1-.36-1.56,11.49,11.49,0,0,1-2.86,1.77c1.38-1.24,3.26-4.16,4.63-5.08,1.54-1,3.64-.84,5.45-1.67A11.23,11.23,0,0,1,942.8,735a3.66,3.66,0,0,1,2.42,3.08,10.85,10.85,0,0,1,3.41-.57,21.25,21.25,0,0,0-10.06,6.5,8.43,8.43,0,0,1,1.21-2.21,3.69,3.69,0,0,1-1.63-1.7Zm-16.67-13a48.21,48.21,0,0,1-5.74,1.84c-1.76,2.32-2.84,3.52-3.24,6.63-.48-3.06-.58-3.62.78-5.91a6.89,6.89,0,0,0-1.29.93c-1.9,1.62-4.38,8-5.37,10.31.63-2.76,2.6-9.63,4.62-11.64,1.34-1.32,1.64-1.29,3.52-1.47q3.36-.32,6.72-.69Zm41.44,6.67c1.61.15,2.53.4,4-.31a13.12,13.12,0,0,0,6-6.1c-.79,3.1-2.36,5.73-5.64,6.9-1.61.57-2.65,0-4.28-.49ZM932,734c.6-2.68,1.68-5.27,5.85-7.28C932.33,728.15,931.29,730.47,932,734Zm-71.73,14.47c.47-5.37,1.52-7.69,5.34-11.73-4.79,3.37-6,4.9-5.34,11.73"/><path class="cls-5" d="M445.6,379.67a2.13,2.13,0,0,1-1.06-.28l-31.46-7.58A2.14,2.14,0,0,1,412,370V355.68a2.14,2.14,0,0,1,1.06-1.84L444.54,347a2.18,2.18,0,0,1,2.13,0l31.45,6.82a2.13,2.13,0,0,1,1.07,1.84V370a2.13,2.13,0,0,1-1.07,1.84l-31.45,7.58A2.14,2.14,0,0,1,445.6,379.67Z"/><path class="cls-3" d="M445.6,381.1c-.37,0-33-7.72-33-7.72a2.14,2.14,0,0,1-1.08-1.87V354.1a2.15,2.15,0,0,1,1.08-1.87s32.62-7,33-7,33,7,33,7a2.15,2.15,0,0,1,1.08,1.87v17.41a2.14,2.14,0,0,1-1.08,1.87S446,381.1,445.6,381.1Zm-29.75-10.83,29.75,6.18,29.76-6.18V355.34l-29.76-6.45-29.75,6.45Z"/><path class="cls-3" d="M445.6,364.15a2.21,2.21,0,0,1-1.08-.29l-31.91-6.71a2.16,2.16,0,1,1,2.16-3.74l30.83,6.08,30.84-6.08a2.16,2.16,0,1,1,2.16,3.74l-31.92,6.71A2.16,2.16,0,0,1,445.6,364.15Z"/><path class="cls-3" d="M445.6,379.53a2.16,2.16,0,0,1-2.16-2.16V362.66a2.17,2.17,0,0,1,4.33,0v14.71A2.16,2.16,0,0,1,445.6,379.53Z"/><text class="cls-14" transform="translate(383.86 416.71)">I<tspan class="cls-15" x="7.44" y="0">g</tspan><tspan class="cls-16" x="22.18" y="0">n</tspan><tspan class="cls-17" x="37.72" y="0">i</tspan><tspan class="cls-18" x="45.5" y="0">t</tspan><tspan x="55.62" y="0">e </tspan><tspan class="cls-19" x="80.61" y="0">A</tspan><tspan class="cls-20" x="99.38" y="0">P</tspan><tspan x="116.06" y="0">I</tspan></text><path class="cls-5" d="M606.92,379.67a2.13,2.13,0,0,1-1.06-.28l-31.46-7.58a2.12,2.12,0,0,1-1.06-1.84V355.68a2.12,2.12,0,0,1,1.06-1.84L605.86,347a2.18,2.18,0,0,1,2.13,0l31.45,6.82a2.13,2.13,0,0,1,1.07,1.84V370a2.13,2.13,0,0,1-1.07,1.84L608,379.39A2.14,2.14,0,0,1,606.92,379.67Z"/><path class="cls-3" d="M606.92,381.1c-.37,0-33-7.72-33-7.72a2.14,2.14,0,0,1-1.08-1.87V354.1a2.15,2.15,0,0,1,1.08-1.87s32.62-7,33-7,33,7,33,7A2.15,2.15,0,0,1,641,354.1v17.41a2.14,2.14,0,0,1-1.08,1.87S607.29,381.1,606.92,381.1Zm-29.75-10.83,29.75,6.18,29.76-6.18V355.34l-29.76-6.45-29.75,6.45Z"/><path class="cls-3" d="M606.92,364.15a2.21,2.21,0,0,1-1.08-.29l-31.91-6.71a2.16,2.16,0,0,1,2.16-3.74l30.83,6.08,30.84-6.08a2.16,2.16,0,1,1,2.16,3.74L608,363.86A2.16,2.16,0,0,1,606.92,364.15Z"/><path class="cls-3" d="M606.92,379.53a2.16,2.16,0,0,1-2.16-2.16V362.66a2.16,2.16,0,0,1,4.32,0v14.71A2.15,2.15,0,0,1,606.92,379.53Z"/><text class="cls-14" transform="translate(545.15 416.71)"><tspan class="cls-21">S</tspan><tspan class="cls-22" x="15.23" y="0">p</tspan><tspan class="cls-18" x="30.68" y="0">a</tspan><tspan class="cls-23" x="45.28" y="0">r</tspan><tspan x="54.74" y="0">k </tspan><tspan class="cls-19" x="80.66" y="0">A</tspan><tspan class="cls-20" x="99.44" y="0">P</tspan><tspan x="116.12" y="0">I</tspan></text><path class="cls-5" d="M780.59,379.67a2.13,2.13,0,0,1-1.06-.28l-31.46-7.58A2.14,2.14,0,0,1,747,370V355.68a2.14,2.14,0,0,1,1.06-1.84L779.53,347a2.18,2.18,0,0,1,2.13,0l31.45,6.82a2.13,2.13,0,0,1,1.07,1.84V370a2.13,2.13,0,0,1-1.07,1.84l-31.45,7.58A2.14,2.14,0,0,1,780.59,379.67Z"/><path class="cls-3" d="M780.59,381.1c-.37,0-33-7.72-33-7.72a2.14,2.14,0,0,1-1.08-1.87V354.1a2.15,2.15,0,0,1,1.08-1.87s32.62-7,33-7,33,7,33,7a2.15,2.15,0,0,1,1.08,1.87v17.41a2.14,2.14,0,0,1-1.08,1.87S781,381.1,780.59,381.1Zm-29.75-10.83,29.75,6.18,29.76-6.18V355.34l-29.76-6.45-29.75,6.45Z"/><path class="cls-3" d="M780.59,364.15a2.21,2.21,0,0,1-1.08-.29l-31.91-6.71a2.16,2.16,0,0,1,2.16-3.74l30.83,6.08,30.84-6.08a2.16,2.16,0,1,1,2.16,3.74l-31.92,6.71A2.16,2.16,0,0,1,780.59,364.15Z"/><path class="cls-3" d="M780.59,379.53a2.16,2.16,0,0,1-2.16-2.16V362.66a2.17,2.17,0,0,1,4.33,0v14.71A2.16,2.16,0,0,1,780.59,379.53Z"/><text class="cls-14" transform="translate(706.49 416.71)"><tspan class="cls-24">H</tspan><tspan class="cls-25" x="18.53" y="0">a</tspan><tspan class="cls-17" x="33.04" y="0">d</tspan><tspan class="cls-26" x="48.49" y="0">o</tspan><tspan class="cls-15" x="64.34" y="0">o</tspan><tspan x="79.9" y="0">p </tspan><tspan class="cls-19" x="105.31" y="0">A</tspan><tspan class="cls-20" x="124.09" y="0">P</tspan><tspan x="140.77" y="0">I</tspan></text><path class="cls-5" d="M436.34,623.71c-33.09,0-67.31,7.5-67.31,20.06V802.61a7.46,7.46,0,0,0,1.44,4.33,12.29,12.29,0,0,0,1.63,1.9c8.56,8.27,34.38,13.83,64.24,13.83s55.71-5.56,64.26-13.82a12.56,12.56,0,0,0,1.65-1.92,7.47,7.47,0,0,0,1.43-4.32V643.77C503.68,631.21,469.44,623.71,436.34,623.71Z"/><path class="cls-6" d="M482.48,627.32C470,623.93,453.17,622,436.34,622s-33.63,1.94-46.12,5.33c-14.63,4-22.36,9.61-22.36,16.3v53.22a9.13,9.13,0,0,0,1.75,5.3,14,14,0,0,0,1.85,2.15c8.78,8.48,34.86,14.19,64.88,14.19s56.13-5.7,64.91-14.19a13.57,13.57,0,0,0,1.86-2.15,9.12,9.12,0,0,0,1.74-5.3V643.62C504.85,636.93,497.12,631.29,482.48,627.32Zm15.59,71.29a8.54,8.54,0,0,1-1.06,1.23c-7.5,7.24-33,12.48-60.67,12.48s-53.14-5.25-60.63-12.48a8.09,8.09,0,0,1-1.07-1.24,3.11,3.11,0,0,1-.62-1.76V653.15a33.37,33.37,0,0,0,4.57,2.6l.07,0c.84.4,1.71.78,2.62,1.16l.23.09c.89.37,1.81.72,2.77,1.06l.35.12c.82.28,1.66.56,2.52.83l.79.24c.81.25,1.66.48,2.51.72l1.15.3c.83.22,1.67.42,2.53.62l1.47.34c.82.18,1.66.36,2.52.53l1.68.33,2,.36,2.32.39,1.9.28,2.49.35,2.15.27,2,.23,2.92.29,1.48.14c1.17.1,2.36.19,3.56.27l1.27.09q1.93.12,3.9.21l1,0c1.42.06,2.85.11,4.29.14h.57c1.57,0,3.16,0,4.75,0s3.18,0,4.74,0h.59c1.44,0,2.87-.08,4.28-.14l1,0c1.31-.06,2.61-.13,3.89-.21l1.28-.09c1.2-.08,2.38-.17,3.55-.27l1.52-.14L460,664l2-.23,2.12-.27,2.53-.35,1.86-.28,2.35-.39,2-.36,1.69-.33,2.52-.53,1.46-.34c.87-.2,1.72-.41,2.55-.62l1.11-.3c.89-.24,1.78-.49,2.63-.75l.65-.2c.9-.28,1.78-.57,2.62-.86l.28-.09c1-.35,1.93-.72,2.84-1.09l.15-.06c.94-.38,1.83-.78,2.68-1.19h0a34.91,34.91,0,0,0,4.6-2.62v43.69A3.11,3.11,0,0,1,498.07,698.61Zm-61.73-70.47c38.63,0,62.36,9,62.36,15.48a3.34,3.34,0,0,1-.64,1.79c-2.71,4-12.37,8.06-26.63,10.71l-.12,0-1.62.28-1.69.29h0a200.81,200.81,0,0,1-26.3,2.31l-.89,0-1.69,0-2.77,0-2.76,0-1.69,0-.89,0a199.93,199.93,0,0,1-26.25-2.3l-.11,0-1.59-.27-1.73-.31h0c-14.26-2.65-23.92-6.72-26.64-10.72a3.26,3.26,0,0,1-.64-1.79C374,637.16,397.73,628.14,436.34,628.14Z"/><path class="cls-6" d="M502,693.75a2.86,2.86,0,0,0-2.85,2.85,3.51,3.51,0,0,1-.67,1.91c-2.45,3.63-10.26,7.18-21.41,9.73-11.59,2.66-26,4.12-40.7,4.12s-29.09-1.46-40.67-4.12c-11.15-2.55-18.95-6.1-21.4-9.72a3.49,3.49,0,0,1-.67-1.92,2.85,2.85,0,1,0-5.7,0V802.93a9,9,0,0,0,1.71,5.18,14,14,0,0,0,1.82,2.11c4.38,4.23,12.93,7.81,24.72,10.35a213.43,213.43,0,0,0,80.4,0c11.8-2.54,20.34-6.11,24.72-10.33a13.78,13.78,0,0,0,1.84-2.14,8.92,8.92,0,0,0,1.7-5.17V696.6A2.85,2.85,0,0,0,502,693.75Zm-2.85,109.18a3.33,3.33,0,0,1-.67,1.9,7.69,7.69,0,0,1-1.1,1.28l0,0c-3.62,3.5-11.62,6.69-22.52,9a207.24,207.24,0,0,1-76.92,0c-10.89-2.29-18.89-5.48-22.52-9h0a8.4,8.4,0,0,1-1.08-1.26,3.31,3.31,0,0,1-.67-1.91V705.7c4.66,3.37,12.12,6.25,21.87,8.4,11.71,2.59,25.84,3.95,40.87,3.95s29.17-1.36,40.89-3.95c9.75-2.15,17.22-5,21.89-8.41Z"/><path class="cls-27" d="M390.76,691.19V676.36l2.93.68q2.12,3.57,4.25,7.1,2.13-2.67,4.26-5.39l2.95.5v14.84l-2.66-.46v-11l-4.55,5.69q-2.28-3.74-4.54-7.52v11Z"/><path class="cls-27" d="M408.89,694.66V679.83q4.94.7,9.89,1.17v2.4q-3.61-.35-7.22-.81v3.76c2.09.27,4.17.51,6.26.71v2.52c-2.09-.2-4.17-.44-6.26-.71v3.76q3.6.47,7.22.8v2.4Q413.83,695.37,408.89,694.66Z"/><path class="cls-27" d="M421.84,696.09V681.26l3,.21,4.32,6.42q2.16-3,4.32-6.08l3,0v14.83c-.9,0-1.79,0-2.69,0v-11c-1.54,2.16-3.07,4.3-4.61,6.42-1.54-2.25-3.08-4.51-4.61-6.8v11Z"/><path class="cls-27" d="M439.7,689.25a10.64,10.64,0,0,1,.43-3.2,6.57,6.57,0,0,1,1.09-2.22,5.7,5.7,0,0,1,1.63-1.37,6.85,6.85,0,0,1,1.86-.75,10.56,10.56,0,0,1,2-.26,10.42,10.42,0,0,1,2,.07,6.23,6.23,0,0,1,1.85.57,5.1,5.1,0,0,1,1.64,1.22,5.72,5.72,0,0,1,1.1,2.11,10.28,10.28,0,0,1,.43,3.16,11.15,11.15,0,0,1-.43,3.24,6.73,6.73,0,0,1-1.1,2.28,6.16,6.16,0,0,1-1.64,1.45,6.82,6.82,0,0,1-1.85.8,10,10,0,0,1-2,.28,10.21,10.21,0,0,1-2-.09,5.85,5.85,0,0,1-1.86-.63,5.29,5.29,0,0,1-1.63-1.29,6.25,6.25,0,0,1-1.09-2.18A10.66,10.66,0,0,1,439.7,689.25Zm2.69-.07a9.61,9.61,0,0,0,.33,2.75,3,3,0,0,0,1,1.58,3.36,3.36,0,0,0,1.33.65,6.22,6.22,0,0,0,1.62.11,7.68,7.68,0,0,0,1.32-.16,4.28,4.28,0,0,0,1.15-.48,3,3,0,0,0,1-1,5.73,5.73,0,0,0,.62-1.59,10,10,0,0,0,.24-2.32,9.39,9.39,0,0,0-.33-2.72,2.87,2.87,0,0,0-1-1.55,3.42,3.42,0,0,0-1.34-.61,6.33,6.33,0,0,0-1.63-.08,7.76,7.76,0,0,0-1.3.15,4,4,0,0,0-1.15.47,2.7,2.7,0,0,0-1,.91,5.16,5.16,0,0,0-.62,1.53A9.76,9.76,0,0,0,442.39,689.18Z"/><path class="cls-27" d="M456.85,695.71V680.87c1.91-.19,3.81-.4,5.71-.65a5.6,5.6,0,0,1,4.05.68,3.75,3.75,0,0,1,1.45,3.31,5,5,0,0,1-3.26,4.87c1.3,1.71,2.6,3.4,3.9,5.09l-3.22.49c-1.18-1.58-2.36-3.16-3.54-4.76l-2.41.29v5.23Zm2.68-8,3-.36a4.46,4.46,0,0,0,2.13-.77,2.32,2.32,0,0,0,.77-1.94c0-.92-.26-1.49-.77-1.74a3.89,3.89,0,0,0-2.13-.19c-1,.13-2,.25-3,.36Z"/><path class="cls-27" d="M469.42,679.22c1.07-.18,2.14-.36,3.21-.56,1.31,1.77,2.61,3.54,3.91,5.28q1.93-3.41,3.87-6.85c1.06-.23,2.12-.48,3.18-.73q-2.85,4.92-5.73,9.75v6.37l-2.65.53v-6.36Q472.33,683,469.42,679.22Z"/><path class="cls-27" d="M413.36,769.29V754.45q2.52.62,5.07,1.08a7.75,7.75,0,0,1,7,8.48q0,3.63-1.78,5.3c-1.18,1.1-2.93,1.48-5.22,1.06Q415.88,769.89,413.36,769.29Zm2.64-1.81c.81.17,1.62.34,2.42.49,1.54.28,2.65.06,3.32-.62s1-1.91,1-3.68a6.61,6.61,0,0,0-1-4,5.18,5.18,0,0,0-3.32-1.73l-2.42-.48Z"/><path class="cls-27" d="M428.72,771.74V756.9c.89.08,1.79.14,2.68.19v14.83C430.51,771.87,429.61,771.81,428.72,771.74Z"/><path class="cls-27" d="M434.61,761.38a3.68,3.68,0,0,1,1.52-3.23,6.78,6.78,0,0,1,3.8-1.14,9.14,9.14,0,0,1,4,.83v2.62a6.69,6.69,0,0,0-3.69-.94,5.2,5.2,0,0,0-2.1.47,1.42,1.42,0,0,0-.85,1.35,1.27,1.27,0,0,0,.78,1.15,8,8,0,0,0,1.89.66c.74.17,1.48.38,2.23.63a4,4,0,0,1,1.9,1.38,4.34,4.34,0,0,1,.78,2.71,3.79,3.79,0,0,1-1.5,3,5.87,5.87,0,0,1-3.65,1.3A8.85,8.85,0,0,1,434.8,771v-2.7a6.77,6.77,0,0,0,4.31,1.42c2.06-.06,3.08-.69,3.08-1.83a1.57,1.57,0,0,0-.55-1.25,3.59,3.59,0,0,0-1.41-.7c-.57-.14-1.18-.32-1.83-.53a17,17,0,0,1-1.83-.71,3.53,3.53,0,0,1-1.41-1.23A3.7,3.7,0,0,1,434.61,761.38Z"/><path class="cls-27" d="M447.92,771.46V756.62l2.67-.33v6.28q2.81-3.52,5.59-7.21c1.18-.23,2.36-.49,3.54-.76q-2.94,3.95-5.93,7.71,3.29,3.6,6.54,7c-1.09.26-2.19.5-3.29.73-1.65-1.81-3.3-3.65-5-5.54l-1.49,1.84v4.8C449.7,771.25,448.81,771.36,447.92,771.46Z"/><path class="cls-6" d="M394,852.41s-4.41,6.68,4.26,8c.85.11,7.14.77,8.76,2.82,0,0-.15-3.55-5.25-5.64S394.6,855,394,852.41Z"/><path class="cls-6" d="M398.33,838s-12.35,7.53-.71,15c2.24,1.45,10.36,5.52,10.12,9.25,0,0,4.92-7.3-2.27-11.86C398.08,845.72,396.23,840.72,398.33,838Z"/><path class="cls-6" d="M411.08,845.38c-5.29-5.55-6.76-9-4.49-13.41,0,0-15.81,6.08-.21,16.87,5.59,3.86,4.65,7.8,4.66,7.94C411.92,855.87,416.37,850.92,411.08,845.38Z"/><text class="cls-28" transform="translate(423 855.74)"><tspan class="cls-29">N</tspan><tspan class="cls-30" x="15.45" y="0">O</tspan><tspan class="cls-31" x="30.92" y="0">D</tspan><tspan x="44.9" y="0">E</tspan></text><path class="cls-5" d="M203.79,623.71c-33.09,0-67.31,7.5-67.31,20.06V802.61a7.46,7.46,0,0,0,1.44,4.33,12.29,12.29,0,0,0,1.63,1.9c8.56,8.27,34.38,13.83,64.24,13.83s55.71-5.56,64.25-13.82a12.07,12.07,0,0,0,1.66-1.92,7.47,7.47,0,0,0,1.43-4.32V643.77C271.13,631.21,236.89,623.71,203.79,623.71Z"/><path class="cls-6" d="M249.93,627.32c-12.5-3.39-29.32-5.33-46.14-5.33s-33.63,1.94-46.12,5.33c-14.63,4-22.36,9.61-22.36,16.3v53.22a9.19,9.19,0,0,0,1.74,5.3,14,14,0,0,0,1.86,2.15c8.77,8.48,34.85,14.19,64.88,14.19s56.13-5.7,64.91-14.19a14.06,14.06,0,0,0,1.85-2.15,9.13,9.13,0,0,0,1.75-5.3V643.62C272.3,636.93,264.56,631.29,249.93,627.32Zm15.59,71.29a8,8,0,0,1-1.07,1.23c-7.49,7.24-33,12.48-60.66,12.48s-53.15-5.25-60.63-12.48a8.09,8.09,0,0,1-1.07-1.24,3.11,3.11,0,0,1-.62-1.76V653.15a33.37,33.37,0,0,0,4.57,2.6l.07,0c.83.4,1.7.78,2.62,1.16l.23.09c.89.37,1.81.72,2.77,1.06l.35.12c.81.28,1.65.56,2.52.83l.79.24c.81.25,1.65.48,2.51.72l1.15.3c.82.22,1.67.42,2.52.62l1.48.34,2.51.53,1.69.33,2,.36,2.32.39,1.9.28,2.48.35,2.16.27,1.95.23,2.92.29,1.49.14c1.17.1,2.36.19,3.55.27l1.28.09q1.94.12,3.9.21l1,0c1.41.06,2.84.11,4.29.14H199c1.57,0,3.15,0,4.75,0s3.17,0,4.74,0h.59c1.44,0,2.86-.08,4.28-.14l1,0c1.31-.06,2.6-.13,3.89-.21l1.28-.09c1.19-.08,2.38-.17,3.55-.27l1.51-.14,2.84-.29,2-.23,2.12-.27,2.53-.35,1.86-.28,2.35-.39,2-.36,1.69-.33,2.52-.53,1.46-.34,2.55-.62,1.1-.3c.9-.24,1.79-.49,2.64-.75l.64-.2c.91-.28,1.78-.57,2.63-.86l.27-.09c1-.35,1.94-.72,2.85-1.09l.15-.06c.94-.38,1.83-.78,2.68-1.19h0a34.91,34.91,0,0,0,4.6-2.62v43.69A3.17,3.17,0,0,1,265.52,698.61Zm-61.73-70.47c38.63,0,62.35,9,62.35,15.48a3.32,3.32,0,0,1-.63,1.79c-2.71,4-12.37,8.06-26.63,10.71l-.12,0-1.62.28-1.69.29h0A200.81,200.81,0,0,1,209.13,659l-.89,0-1.69,0-2.76,0-2.77,0-1.68,0-.89,0a199.93,199.93,0,0,1-26.25-2.3l-.11,0-1.6-.27-1.72-.31h0c-14.25-2.65-23.92-6.72-26.63-10.72a3.26,3.26,0,0,1-.64-1.79C141.47,637.16,165.18,628.14,203.79,628.14Z"/><path class="cls-6" d="M269.41,693.75a2.85,2.85,0,0,0-2.84,2.85,3.51,3.51,0,0,1-.67,1.91c-2.45,3.63-10.26,7.18-21.41,9.73-11.59,2.66-26.05,4.12-40.7,4.12s-29.09-1.46-40.67-4.12c-11.15-2.55-19-6.1-21.4-9.72a3.5,3.5,0,0,1-.68-1.92,2.85,2.85,0,1,0-5.69,0V802.93a8.92,8.92,0,0,0,1.71,5.18,13.42,13.42,0,0,0,1.82,2.11c4.38,4.23,12.93,7.81,24.72,10.35a195.6,195.6,0,0,0,40.19,3.82A195.8,195.8,0,0,0,244,820.57c11.8-2.54,20.34-6.11,24.72-10.33a14.94,14.94,0,0,0,1.84-2.14,8.92,8.92,0,0,0,1.7-5.17V696.6A2.86,2.86,0,0,0,269.41,693.75Zm-2.84,109.18a3.33,3.33,0,0,1-.67,1.9,8.76,8.76,0,0,1-1.1,1.28l0,0c-3.63,3.5-11.62,6.69-22.52,9a194.53,194.53,0,0,1-38.47,3.6,194.32,194.32,0,0,1-38.45-3.6c-10.89-2.29-18.89-5.48-22.53-9h0a7.86,7.86,0,0,1-1.08-1.26,3.33,3.33,0,0,1-.68-1.91V705.7c4.67,3.37,12.13,6.25,21.88,8.4,11.71,2.59,25.84,3.95,40.87,3.95s29.17-1.36,40.88-3.95c9.76-2.15,17.23-5,21.9-8.41Z"/><path class="cls-27" d="M158.21,691.19V676.36l2.93.68q2.12,3.57,4.25,7.1c1.41-1.78,2.84-3.58,4.26-5.39l2.95.5v14.84l-2.66-.46v-11l-4.55,5.69q-2.28-3.74-4.54-7.52v11Z"/><path class="cls-27" d="M176.34,694.66V679.83c3.29.47,6.58.86,9.89,1.17v2.4q-3.61-.35-7.22-.81v3.76q3.12.4,6.26.71v2.52q-3.14-.3-6.26-.71v3.76q3.6.47,7.22.8v2.4C182.92,695.52,179.63,695.13,176.34,694.66Z"/><path class="cls-27" d="M189.29,696.09V681.26l3,.21,4.32,6.42,4.31-6.08,3,0v14.83c-.9,0-1.8,0-2.69,0v-11q-2.31,3.24-4.61,6.42c-1.54-2.25-3.08-4.51-4.61-6.8v11Z"/><path class="cls-27" d="M207.15,689.25a11,11,0,0,1,.42-3.2,6.57,6.57,0,0,1,1.1-2.22,5.79,5.79,0,0,1,1.62-1.37,7.11,7.11,0,0,1,1.86-.75,10.79,10.79,0,0,1,2-.26,10.28,10.28,0,0,1,1.95.07,6.2,6.2,0,0,1,1.86.57,5.06,5.06,0,0,1,1.63,1.22,5.59,5.59,0,0,1,1.11,2.11,10.92,10.92,0,0,1,.43,3.16,11.88,11.88,0,0,1-.43,3.24,6.55,6.55,0,0,1-1.11,2.28,6.11,6.11,0,0,1-1.63,1.45,6.75,6.75,0,0,1-1.86.8,9.74,9.74,0,0,1-1.95.28,10.36,10.36,0,0,1-2-.09,6,6,0,0,1-1.86-.63,5.37,5.37,0,0,1-1.62-1.29,6.26,6.26,0,0,1-1.1-2.18A11,11,0,0,1,207.15,689.25Zm2.69-.07a9.61,9.61,0,0,0,.33,2.75,3,3,0,0,0,1,1.58,3.46,3.46,0,0,0,1.34.65,6.18,6.18,0,0,0,1.62.11,7.68,7.68,0,0,0,1.32-.16,4.41,4.41,0,0,0,1.15-.48,3,3,0,0,0,1-1,5.44,5.44,0,0,0,.61-1.59,11.15,11.15,0,0,0-.08-5,2.88,2.88,0,0,0-1-1.55,3.38,3.38,0,0,0-1.33-.61,6.36,6.36,0,0,0-1.63-.08,7.64,7.64,0,0,0-1.3.15,3.94,3.94,0,0,0-1.15.47,2.82,2.82,0,0,0-1,.91,5.45,5.45,0,0,0-.61,1.53A9.76,9.76,0,0,0,209.84,689.18Z"/><path class="cls-27" d="M224.3,695.71V680.87c1.91-.19,3.81-.4,5.71-.65a5.6,5.6,0,0,1,4.05.68,3.77,3.77,0,0,1,1.44,3.31,5,5,0,0,1-3.25,4.87l3.89,5.09-3.22.49c-1.18-1.58-2.36-3.16-3.54-4.76l-2.4.29v5.23Zm2.68-8,3-.36a4.5,4.5,0,0,0,2.13-.77,2.32,2.32,0,0,0,.77-1.94c0-.92-.26-1.49-.77-1.74a3.9,3.9,0,0,0-2.13-.19c-1,.13-2,.25-3,.36Z"/><path class="cls-27" d="M236.87,679.22c1.07-.18,2.14-.36,3.21-.56l3.9,5.28q2-3.41,3.88-6.85c1.06-.23,2.12-.48,3.18-.73-1.9,3.28-3.82,6.53-5.73,9.75v6.37l-2.65.53v-6.36Q239.77,683,236.87,679.22Z"/><path class="cls-27" d="M180.81,769.29V754.45q2.52.62,5.07,1.08a7.74,7.74,0,0,1,7,8.48q0,3.63-1.77,5.3c-1.19,1.1-2.93,1.48-5.22,1.06Q183.33,769.89,180.81,769.29Zm2.64-1.81c.8.17,1.61.34,2.42.49,1.53.28,2.64.06,3.32-.62s1-1.91,1-3.68a6.62,6.62,0,0,0-1-4,5.23,5.23,0,0,0-3.32-1.73c-.81-.15-1.62-.31-2.42-.48Z"/><path class="cls-27" d="M196.17,771.74V756.9c.89.08,1.79.14,2.68.19v14.83C198,771.87,197.06,771.81,196.17,771.74Z"/><path class="cls-27" d="M202.05,761.38a3.7,3.7,0,0,1,1.52-3.23,6.82,6.82,0,0,1,3.81-1.14,9.14,9.14,0,0,1,4,.83v2.62a6.71,6.71,0,0,0-3.7-.94,5.15,5.15,0,0,0-2.09.47,1.43,1.43,0,0,0-.86,1.35,1.27,1.27,0,0,0,.78,1.15,8.25,8.25,0,0,0,1.9.66c.74.17,1.48.38,2.23.63a4,4,0,0,1,1.9,1.38,4.34,4.34,0,0,1,.78,2.71,3.82,3.82,0,0,1-1.5,3,5.89,5.89,0,0,1-3.65,1.3,8.83,8.83,0,0,1-4.93-1.22v-2.7a6.75,6.75,0,0,0,4.31,1.42c2.05-.06,3.08-.69,3.08-1.83a1.58,1.58,0,0,0-.56-1.25,3.46,3.46,0,0,0-1.41-.7c-.57-.14-1.17-.32-1.82-.53a17,17,0,0,1-1.83-.71,3.4,3.4,0,0,1-1.41-1.23A3.7,3.7,0,0,1,202.05,761.38Z"/><path class="cls-27" d="M215.36,771.46V756.62c.9-.1,1.79-.21,2.68-.33v6.28q2.81-3.52,5.58-7.21c1.19-.23,2.37-.49,3.55-.76q-3,3.95-5.93,7.71,3.28,3.6,6.54,7c-1.09.26-2.19.5-3.3.73-1.64-1.81-3.3-3.65-4.95-5.54L218,766.32v4.8C217.15,771.25,216.26,771.36,215.36,771.46Z"/><path class="cls-6" d="M161.48,852.41s-4.41,6.68,4.26,8c.85.11,7.13.77,8.75,2.82,0,0-.14-3.55-5.25-5.64S162.05,855,161.48,852.41Z"/><path class="cls-6" d="M165.78,838s-12.35,7.53-.71,15c2.24,1.45,10.36,5.52,10.12,9.25,0,0,4.91-7.3-2.27-11.86C165.53,845.72,163.68,840.72,165.78,838Z"/><path class="cls-6" d="M178.53,845.38c-5.29-5.55-6.76-9-4.5-13.41,0,0-15.8,6.08-.2,16.87,5.59,3.86,4.65,7.8,4.66,7.94C179.37,855.87,183.82,850.92,178.53,845.38Z"/><text class="cls-28" transform="translate(190.44 855.74)"><tspan class="cls-29">N</tspan><tspan class="cls-30" x="15.45" y="0">O</tspan><tspan class="cls-31" x="30.92" y="0">D</tspan><tspan x="44.9" y="0">E</tspan></text><path class="cls-5" d="M320.06,660.65c-33.08,0-67.31,7.5-67.31,20.05V839.55a7.56,7.56,0,0,0,1.44,4.33,13.44,13.44,0,0,0,1.64,1.9c8.56,8.27,34.37,13.82,64.23,13.82s55.71-5.55,64.26-13.81a12.48,12.48,0,0,0,1.65-1.92,7.43,7.43,0,0,0,1.44-4.32V680.7C387.41,668.15,353.17,660.65,320.06,660.65Z"/><path class="cls-6" d="M366.21,664.26c-12.5-3.39-29.32-5.34-46.15-5.34s-33.62,2-46.12,5.34c-14.62,4-22.35,9.6-22.35,16.3v53.22a9.09,9.09,0,0,0,1.74,5.29,14.12,14.12,0,0,0,1.86,2.16c8.77,8.48,34.85,14.18,64.87,14.18s56.14-5.7,64.92-14.18a14.56,14.56,0,0,0,1.85-2.15,9.17,9.17,0,0,0,1.74-5.3V680.56C388.57,673.86,380.84,668.23,366.21,664.26Zm15.58,71.28a8.54,8.54,0,0,1-1.06,1.23c-7.49,7.24-33,12.49-60.67,12.49s-53.14-5.25-60.63-12.48a8,8,0,0,1-1.06-1.24,3.08,3.08,0,0,1-.63-1.76v-43.7a34.45,34.45,0,0,0,4.57,2.61l.08,0c.83.4,1.7.79,2.62,1.17l.22.09c.89.36,1.81.71,2.78,1.06l.34.11c.82.29,1.66.56,2.52.83l.79.25c.82.24,1.66.48,2.51.71l1.16.31c.82.21,1.66.42,2.52.62l1.47.34,2.52.53,1.68.32,2,.37,2.32.38,1.89.29,2.49.35,2.16.27,2,.22c1,.11,1.94.2,2.92.3l1.48.13c1.18.1,2.36.2,3.56.28l1.28.08c1.28.09,2.58.16,3.9.22l1,0c1.42.06,2.85.1,4.29.14h.58c1.57,0,3.15.05,4.74.05s3.18,0,4.75-.05h.58c1.44,0,2.87-.08,4.28-.14l1,0c1.3-.06,2.6-.14,3.89-.22l1.28-.08c1.19-.08,2.37-.17,3.54-.28l1.52-.13,2.84-.29c.68-.08,1.36-.15,2-.24l2.13-.26,2.52-.35,1.87-.29c.79-.12,1.57-.25,2.35-.39s1.34-.23,2-.36l1.69-.32q1.29-.25,2.52-.54c.5-.1,1-.22,1.47-.33l2.54-.62L366,697c.9-.24,1.78-.49,2.63-.75l.65-.2c.9-.28,1.78-.57,2.63-.87l.27-.09c1-.35,1.93-.71,2.84-1.08l.16-.06c.94-.39,1.83-.79,2.68-1.19h0a33.81,33.81,0,0,0,4.6-2.62v43.7A3.08,3.08,0,0,1,381.79,735.54Zm-61.73-70.46c38.64,0,62.36,9,62.36,15.48a3.29,3.29,0,0,1-.64,1.78c-2.7,4-12.36,8.07-26.62,10.72l-.13,0-1.62.29-1.69.28h0A199,199,0,0,1,325.41,696l-.89,0-1.69,0H317.3l-1.69,0-.89,0a199.85,199.85,0,0,1-26.24-2.31l-.12,0-1.59-.26-1.72-.31h0c-14.26-2.66-23.92-6.73-26.64-10.72a3.29,3.29,0,0,1-.64-1.79C257.74,674.09,281.45,665.08,320.06,665.08Z"/><path class="cls-6" d="M385.69,730.69a2.85,2.85,0,0,0-2.85,2.84,3.47,3.47,0,0,1-.66,1.91c-2.46,3.63-10.26,7.18-21.42,9.74a202.94,202.94,0,0,1-81.37,0c-11.15-2.56-18.95-6.1-21.39-9.72a3.53,3.53,0,0,1-.68-1.93,2.85,2.85,0,0,0-5.69,0V839.87a8.92,8.92,0,0,0,1.71,5.18,13.37,13.37,0,0,0,1.81,2.11c4.38,4.23,12.93,7.8,24.72,10.34a195.56,195.56,0,0,0,40.19,3.83,195.87,195.87,0,0,0,40.22-3.83c11.79-2.53,20.34-6.1,24.71-10.33a13.24,13.24,0,0,0,1.84-2.13,8.94,8.94,0,0,0,1.71-5.17V733.53A2.85,2.85,0,0,0,385.69,730.69Zm-2.85,109.18a3.31,3.31,0,0,1-.66,1.89,8.82,8.82,0,0,1-1.11,1.29h0c-3.63,3.51-11.63,6.69-22.52,9a207.58,207.58,0,0,1-76.93,0c-10.89-2.28-18.89-5.47-22.52-9h0a8.32,8.32,0,0,1-1.08-1.26,3.37,3.37,0,0,1-.68-1.91V742.63c4.66,3.38,12.13,6.25,21.87,8.4a194,194,0,0,0,40.87,4A194.7,194.7,0,0,0,361,751c9.75-2.16,17.22-5,21.89-8.41Z"/><path class="cls-27" d="M274.49,728.12V713.29l2.93.68c1.41,2.38,2.83,4.75,4.24,7.1,1.42-1.78,2.84-3.57,4.27-5.39,1,.18,2,.35,2.95.51V731c-.89-.14-1.78-.3-2.66-.45v-11q-2.28,2.88-4.56,5.7-2.27-3.74-4.53-7.53v11Z"/><path class="cls-27" d="M292.62,731.59V716.76c3.28.48,6.58.86,9.88,1.17v2.4c-2.4-.22-4.81-.49-7.21-.8v3.75c2.08.27,4.17.51,6.25.72v2.51c-2.08-.2-4.17-.44-6.25-.71v3.76q3.6.47,7.21.8v2.4C299.2,732.46,295.9,732.07,292.62,731.59Z"/><path class="cls-27" d="M305.57,733V718.19c1,.08,2,.15,3,.21,1.44,2.16,2.87,4.3,4.31,6.42q2.16-3,4.32-6.07c1,0,2,0,3,0v14.84l-2.69,0v-11q-2.31,3.24-4.62,6.43l-4.61-6.8v11C307.36,733.16,306.46,733.09,305.57,733Z"/><path class="cls-27" d="M323.42,726.18a11,11,0,0,1,.43-3.2,6.58,6.58,0,0,1,1.1-2.22,5.79,5.79,0,0,1,1.62-1.37,7.11,7.11,0,0,1,1.86-.75,10.79,10.79,0,0,1,2-.26,11.19,11.19,0,0,1,1.95.07,6.32,6.32,0,0,1,1.86.58,5,5,0,0,1,1.63,1.22,5.92,5.92,0,0,1,1.11,2.1,10.68,10.68,0,0,1,.42,3.17,11.44,11.44,0,0,1-.42,3.23,7.08,7.08,0,0,1-1.11,2.29,6.42,6.42,0,0,1-1.63,1.44,6.62,6.62,0,0,1-1.86.81,9.76,9.76,0,0,1-1.95.27,8.93,8.93,0,0,1-2-.09,6.26,6.26,0,0,1-1.86-.62,5.37,5.37,0,0,1-1.62-1.29,6.26,6.26,0,0,1-1.1-2.18A11.06,11.06,0,0,1,323.42,726.18Zm2.69-.07a9.23,9.23,0,0,0,.34,2.75,3,3,0,0,0,1,1.58,3.43,3.43,0,0,0,1.33.65,5.85,5.85,0,0,0,1.63.12,7.6,7.6,0,0,0,1.32-.17,3.82,3.82,0,0,0,1.15-.48,2.81,2.81,0,0,0,1-.95,5.54,5.54,0,0,0,.61-1.58,9.51,9.51,0,0,0,.25-2.33,9.07,9.07,0,0,0-.34-2.72,2.84,2.84,0,0,0-1-1.54,3.38,3.38,0,0,0-1.33-.61,6.79,6.79,0,0,0-1.63-.09,7.56,7.56,0,0,0-1.3.16,4.06,4.06,0,0,0-1.16.46,2.88,2.88,0,0,0-1,.91,5.24,5.24,0,0,0-.61,1.54A9.63,9.63,0,0,0,326.11,726.11Z"/><path class="cls-27" d="M340.58,732.64V717.81q2.85-.28,5.71-.65a5.61,5.61,0,0,1,4,.67,3.78,3.78,0,0,1,1.44,3.32,5,5,0,0,1-3.25,4.86c1.3,1.71,2.59,3.41,3.89,5.09-1.07.18-2.14.34-3.22.49-1.18-1.57-2.36-3.16-3.54-4.75l-2.4.28v5.24Zm2.68-8c1-.11,2-.23,2.95-.36a4.32,4.32,0,0,0,2.13-.77,2.27,2.27,0,0,0,.77-1.94c0-.91-.25-1.49-.77-1.73a3.79,3.79,0,0,0-2.13-.19l-2.95.35Z"/><path class="cls-27" d="M353.15,716.15c1.07-.17,2.14-.36,3.21-.55l3.9,5.28c1.29-2.27,2.59-4.56,3.87-6.85l3.19-.74q-2.86,4.92-5.73,9.76v6.36l-2.65.54v-6.37Q356,719.91,353.15,716.15Z"/><path class="cls-27" d="M297.09,806.22V791.39q2.52.6,5.06,1.08a8.51,8.51,0,0,1,5.22,2.72,8.65,8.65,0,0,1,1.78,5.76c0,2.42-.59,4.19-1.78,5.29s-2.92,1.49-5.22,1.06Q299.62,806.84,297.09,806.22Zm2.64-1.8c.8.17,1.61.33,2.42.48,1.53.29,2.64.07,3.32-.61s1-1.91,1-3.68a6.62,6.62,0,0,0-1-4,5.18,5.18,0,0,0-3.32-1.73c-.81-.15-1.62-.31-2.42-.48Z"/><path class="cls-27" d="M312.44,808.67V793.84c.9.07,1.79.13,2.69.18v14.84C314.23,808.81,313.34,808.75,312.44,808.67Z"/><path class="cls-27" d="M318.33,798.31a3.7,3.7,0,0,1,1.52-3.22,6.72,6.72,0,0,1,3.81-1.14,9.17,9.17,0,0,1,4,.83v2.61a6.83,6.83,0,0,0-3.7-.93,4.85,4.85,0,0,0-2.09.47,1.42,1.42,0,0,0-.86,1.34,1.26,1.26,0,0,0,.78,1.15,7.57,7.57,0,0,0,1.89.67c.74.17,1.49.38,2.23.63a4,4,0,0,1,1.9,1.38,4.31,4.31,0,0,1,.78,2.7,3.77,3.77,0,0,1-1.49,3,5.85,5.85,0,0,1-3.65,1.3,8.64,8.64,0,0,1-4.93-1.22v-2.7a6.64,6.64,0,0,0,4.31,1.42c2.05,0,3.08-.69,3.08-1.82a1.58,1.58,0,0,0-.56-1.25,3.23,3.23,0,0,0-1.41-.7c-.57-.14-1.18-.32-1.82-.53a17,17,0,0,1-1.83-.71,3.29,3.29,0,0,1-1.41-1.24A3.65,3.65,0,0,1,318.33,798.31Z"/><path class="cls-27" d="M331.64,808.39V793.56c.9-.1,1.79-.21,2.68-.33v6.27c1.86-2.35,3.73-4.75,5.58-7.2,1.19-.24,2.37-.49,3.55-.77q-3,4-5.94,7.72,3.3,3.6,6.55,7c-1.1.27-2.2.51-3.3.74-1.64-1.81-3.3-3.66-5-5.55l-1.48,1.85v4.8C333.43,808.18,332.54,808.29,331.64,808.39Z"/><path class="cls-6" d="M277.76,889.34s-4.42,6.69,4.26,8c.84.11,7.13.76,8.75,2.82,0,0-.15-3.55-5.25-5.65S278.32,892,277.76,889.34Z"/><path class="cls-6" d="M282.05,875s-12.34,7.53-.71,15c2.25,1.45,10.36,5.52,10.12,9.25,0,0,4.92-7.29-2.26-11.86C281.81,882.65,280,877.65,282.05,875Z"/><path class="cls-6" d="M294.81,882.31c-5.29-5.54-6.76-9-4.5-13.4,0,0-15.8,6.08-.2,16.86,5.58,3.87,4.65,7.8,4.65,8C295.64,892.81,300.09,887.86,294.81,882.31Z"/><text class="cls-28" transform="translate(306.72 892.68)"><tspan class="cls-29">N</tspan><tspan class="cls-30" x="15.45" y="0">O</tspan><tspan class="cls-31" x="30.92" y="0">D</tspan><tspan x="44.9" y="0">E</tspan></text></g></g></svg>