<svg xmlns="http://www.w3.org/2000/svg" viewBox="0 0 937.14 707.1"><defs><style>.cls-1{isolation:isolate;}.cls-2{fill:#efeeed;mix-blend-mode:multiply;}.cls-13,.cls-3{fill:#777;}.cls-4{fill:#010101;}.cls-5{fill:#fff;}.cls-6{fill:#e5282a;}.cls-7{font-size:23.27px;}.cls-14,.cls-27,.cls-28,.cls-7{fill:#1d1d1b;}.cls-14,.cls-28,.cls-7{font-family:MavenProMedium, Maven Pro;}.cls-8{letter-spacing:0.01em;}.cls-9{letter-spacing:0em;}.cls-10{letter-spacing:-0.02em;}.cls-11{letter-spacing:0em;}.cls-12{letter-spacing:0em;}.cls-13{fill-rule:evenodd;}.cls-14{font-size:28px;}.cls-15{letter-spacing:-0.01em;}.cls-16{letter-spacing:-0.03em;}.cls-17{letter-spacing:-0.01em;}.cls-18{letter-spacing:-0.01em;}.cls-19{letter-spacing:0.01em;}.cls-20{letter-spacing:0em;}.cls-21{letter-spacing:-0.02em;}.cls-22{letter-spacing:-0.02em;}.cls-23{letter-spacing:0em;}.cls-24{letter-spacing:-0.02em;}.cls-25{letter-spacing:-0.02em;}.cls-26{letter-spacing:0em;}.cls-28{font-size:21.03px;}.cls-29{letter-spacing:0em;}.cls-30{letter-spacing:-0.01em;}.cls-31{letter-spacing:-0.01em;}</style></defs><g class="cls-1"><g id="Capa_1" data-name="Capa 1"><rect class="cls-2" x="166.95" y="30.26" width="705.79" height="204.03" rx="9.28"/><path class="cls-3" d="M462,526.42a3.52,3.52,0,0,1-2.29-.85l-15.11-12.92a3.51,3.51,0,0,1-1.24-2.67,3.54,3.54,0,0,1,1.24-2.68l15.11-12.92a3.53,3.53,0,0,1,4.58,5.36l-12,10.24,12,10.24a3.52,3.52,0,0,1-2.29,6.2Z"/><path class="cls-3" d="M676.08,513.5H448.54a3.52,3.52,0,0,1,0-7H676.08a3.52,3.52,0,1,1,0,7Z"/><path class="cls-3" d="M663,493.54a3.45,3.45,0,0,1,2.29.85l15.12,12.91a3.53,3.53,0,0,1,0,5.36L665.3,525.57a3.52,3.52,0,0,1-4.58-5.35l12-10.24-12-10.24a3.52,3.52,0,0,1,2.29-6.2Z"/><path class="cls-3" d="M821,188.54H786.43a3.52,3.52,0,1,0,0,7H821a3.52,3.52,0,0,0,0-7Z"/><path class="cls-3" d="M817.46,192.06V341.45a3.52,3.52,0,1,0,7,0V192.06a3.52,3.52,0,1,0-7,0Z"/><path class="cls-3" d="M804.54,330.27a3.49,3.49,0,0,0,.84,2.29l12.92,15.12a3.57,3.57,0,0,0,2.68,1.23,3.53,3.53,0,0,0,2.67-1.23l12.92-15.12a3.52,3.52,0,0,0-5.35-4.58L821,340l-10.24-12a3.52,3.52,0,0,0-6.2,2.29Z"/><path class="cls-3" d="M515.54,221.46v50.78a3.53,3.53,0,1,1-7,0V221.46a3.53,3.53,0,0,1,7,0Z"/><path class="cls-3" d="M451.71,268.72H511.6a3.53,3.53,0,0,1,0,7H451.71a3.53,3.53,0,1,1,0-7Z"/><path class="cls-3" d="M455.23,272.24v37a3.53,3.53,0,0,1-7.05,0v-37a3.53,3.53,0,0,1,7.05,0Z"/><path class="cls-3" d="M418.29,347.86,454.2,312a3.52,3.52,0,0,0-5-5L413.3,342.88a3.52,3.52,0,0,0,5,5Z"/><path class="cls-3" d="M436.78,347.63a3.47,3.47,0,0,1-2.22,1l-19.82,1.55a3.52,3.52,0,0,1-3.78-3.78l1.55-19.82a3.52,3.52,0,1,1,7,.54l-1.23,15.72L434,341.63a3.52,3.52,0,0,1,2.76,6Z"/><path class="cls-3" d="M571.18,268.72h-59.9a3.53,3.53,0,0,0,0,7h59.9a3.53,3.53,0,0,0,0-7Z"/><path class="cls-3" d="M567.66,272.24v37a3.52,3.52,0,0,0,7,0v-37a3.52,3.52,0,0,0-7,0Z"/><path class="cls-3" d="M604.6,347.86,568.69,312a3.52,3.52,0,0,1,5-5l35.91,35.91a3.52,3.52,0,0,1-5,5Z"/><path class="cls-3" d="M586.1,347.63a3.51,3.51,0,0,0,2.22,1l19.82,1.55a3.52,3.52,0,0,0,3.79-3.78l-1.55-19.82a3.53,3.53,0,0,0-7,.54l1.23,15.72-15.71-1.23a3.52,3.52,0,0,0-2.77,6Z"/><path class="cls-3" d="M222.11,188.54h34.54a3.52,3.52,0,1,1,0,7H222.11a3.52,3.52,0,1,1,0-7Z"/><path class="cls-3" d="M225.63,192.06V341.45a3.53,3.53,0,0,1-7,0V192.06a3.53,3.53,0,0,1,7,0Z"/><path class="cls-3" d="M238.55,330.27a3.5,3.5,0,0,1-.85,2.29l-12.92,15.12a3.52,3.52,0,0,1-5.35,0l-12.92-15.12a3.52,3.52,0,0,1,5.35-4.58l10.24,12,10.25-12a3.53,3.53,0,0,1,6.2,2.29Z"/><path class="cls-4" d="M491.79,530.9a3.62,3.62,0,0,1,1.15-2.71,5,5,0,0,1,3.59-1.12,7.83,7.83,0,0,1,3.5.83v1.85a6.16,6.16,0,0,0-3.27-.91c-2.05,0-3.08.69-3.08,2.06a1.18,1.18,0,0,0,.54,1,4.09,4.09,0,0,0,1.34.66c.53.16,1.11.38,1.74.64A17.66,17.66,0,0,1,499,534a3.72,3.72,0,0,1,1.33,1.29,3.64,3.64,0,0,1,.54,2A3.21,3.21,0,0,1,499.6,540a5.86,5.86,0,0,1-3.6,1,9.17,9.17,0,0,1-4-1v-2a7.34,7.34,0,0,0,3.87,1.16c2.11,0,3.17-.65,3.18-1.93a2,2,0,0,0-.54-1.4,3.08,3.08,0,0,0-1.33-.85l-1.74-.59c-.64-.22-1.22-.44-1.75-.68a3.35,3.35,0,0,1-1.33-1.07A2.91,2.91,0,0,1,491.79,530.9Z"/><path class="cls-4" d="M502,530.65h2l2.73,7.61,2.68-7.61h2l-4.17,11.24q-1.1,2.93-3.15,2.92h0a6.51,6.51,0,0,1-1.42-.16V543a4.77,4.77,0,0,0,1.14.17c.84,0,1.52-.78,2-2.34Z"/><path class="cls-4" d="M513.54,540.81v-9.3a9.81,9.81,0,0,1,4.33-1,4.31,4.31,0,0,1,3,1,3.57,3.57,0,0,1,1.09,2.78v6.55h-1.9v-6.7a2,2,0,0,0-.46-1.41,2.4,2.4,0,0,0-1.84-.52,7.66,7.66,0,0,0-2.39.37v8.26Z"/><path class="cls-4" d="M525.56,539.62a6.91,6.91,0,0,1,0-7.78,4.5,4.5,0,0,1,3.53-1.35,8.07,8.07,0,0,1,3,.57v1.77a6.3,6.3,0,0,0-2.8-.67h0a3.15,3.15,0,0,0-2.2.72,3.85,3.85,0,0,0-.8,2.85,6.2,6.2,0,0,0,.24,1.87,2.13,2.13,0,0,0,.69,1.1,2.55,2.55,0,0,0,.94.48,4.6,4.6,0,0,0,1.13.12,6.61,6.61,0,0,0,2.83-.65v1.76a8.26,8.26,0,0,1-3,.56A4.5,4.5,0,0,1,525.56,539.62Z"/><path class="cls-4" d="M534.51,540.81v-14h1.86V531a7.5,7.5,0,0,1,2.69-.5,3.85,3.85,0,0,1,3,1.13,4.52,4.52,0,0,1,1,3.2v6h-1.9v-6.06a2.46,2.46,0,0,0-.63-2,2.6,2.6,0,0,0-1.65-.5,6.83,6.83,0,0,0-2.51.49v8.06Z"/><path class="cls-4" d="M546.14,540.81v-9.3a13.2,13.2,0,0,1,4.94-1v1.71a12.84,12.84,0,0,0-3.08.43v8.18Z"/><path class="cls-4" d="M552.75,538.36a8.2,8.2,0,0,1,0-5.24,3.54,3.54,0,0,1,1.16-1.62,5,5,0,0,1,1.51-.76,6.36,6.36,0,0,1,3.39,0,4.88,4.88,0,0,1,1.51.76,3.62,3.62,0,0,1,1.17,1.62,8.2,8.2,0,0,1,0,5.24,3.62,3.62,0,0,1-1.17,1.62,4.88,4.88,0,0,1-1.51.76,6.36,6.36,0,0,1-3.39,0,5,5,0,0,1-1.51-.76A3.54,3.54,0,0,1,552.75,538.36Zm1.69-4.49a7.72,7.72,0,0,0,0,3.74,2.1,2.1,0,0,0,.67,1.09,2.48,2.48,0,0,0,.9.48,5.15,5.15,0,0,0,2.21,0,2.33,2.33,0,0,0,.9-.48,2,2,0,0,0,.67-1.09,7.72,7.72,0,0,0,0-3.74,2.11,2.11,0,0,0-.67-1.1,2.44,2.44,0,0,0-.9-.47,5.15,5.15,0,0,0-2.21,0,2.6,2.6,0,0,0-.9.47A2.18,2.18,0,0,0,554.44,533.87Z"/><path class="cls-4" d="M564.26,540.81v-9.3a9.74,9.74,0,0,1,4.33-1,4.31,4.31,0,0,1,3,1,3.58,3.58,0,0,1,1.1,2.78v6.55h-1.9v-6.7a2,2,0,0,0-.46-1.41,2.44,2.44,0,0,0-1.84-.52,7.61,7.61,0,0,0-2.39.37v8.26Z"/><path class="cls-4" d="M575.83,529.08v-2h2v2Zm.06,11.73V530.65h1.85v10.16Z"/><path class="cls-4" d="M580.37,540.81v-1.73l5.16-6.72h-5v-1.71h7.43v1.69l-5.15,6.7h5.15v1.77Z"/><path class="cls-4" d="M589.87,537.6a2.68,2.68,0,0,1,1.27-2.36,6.33,6.33,0,0,1,3.51-.84,13.76,13.76,0,0,1,1.84.12,2.47,2.47,0,0,0-.7-1.84,3.15,3.15,0,0,0-2.09-.56,8.78,8.78,0,0,0-2.82.51V531a8.54,8.54,0,0,1,3.08-.55,4.61,4.61,0,0,1,3.28,1.1,4.13,4.13,0,0,1,1.15,3.15v2.94a3.57,3.57,0,0,1-.06.65,4.47,4.47,0,0,1-.31.83,3,3,0,0,1-.67.88,3.37,3.37,0,0,1-1.25.65,6.35,6.35,0,0,1-1.94.28,6.19,6.19,0,0,1-2-.29,3.83,3.83,0,0,1-1.27-.66,2.89,2.89,0,0,1-.68-.9,3.25,3.25,0,0,1-.31-.86A3.68,3.68,0,0,1,589.87,537.6Zm1.85,0c0,1.14.82,1.72,2.44,1.72h0c1.54,0,2.3-.55,2.3-1.65V536a10.93,10.93,0,0,0-1.76-.13,5,5,0,0,0-.85.07,8.91,8.91,0,0,0-1,.23,1.92,1.92,0,0,0-.85.53A1.25,1.25,0,0,0,591.72,537.58Z"/><path class="cls-4" d="M599.84,532.24v-1.59h1.77v-3h1.86v3h2.7v1.59h-2.7v5.87c0,.79.5,1.19,1.5,1.19h0a2.2,2.2,0,0,0,1.18-.3v1.68a3.65,3.65,0,0,1-1.39.29h0a3.66,3.66,0,0,1-.78-.09,4.74,4.74,0,0,1-1-.36,2.1,2.1,0,0,1-1-.91,3.17,3.17,0,0,1-.38-1.61v-5.76Z"/><path class="cls-4" d="M608.63,529.08v-2h2v2Zm.06,11.73V530.65h1.85v10.16Z"/><path class="cls-4" d="M613.66,538.36a8.2,8.2,0,0,1,0-5.24,3.54,3.54,0,0,1,1.16-1.62,5,5,0,0,1,1.51-.76,6.13,6.13,0,0,1,1.7-.23,6.06,6.06,0,0,1,1.69.23,4.88,4.88,0,0,1,1.51.76,3.62,3.62,0,0,1,1.17,1.62,8.2,8.2,0,0,1,0,5.24,3.62,3.62,0,0,1-1.17,1.62,4.88,4.88,0,0,1-1.51.76A6.06,6.06,0,0,1,618,541a6.13,6.13,0,0,1-1.7-.23,5,5,0,0,1-1.51-.76A3.54,3.54,0,0,1,613.66,538.36Zm1.69-4.49a7.72,7.72,0,0,0,0,3.74,2.1,2.1,0,0,0,.67,1.09,2.48,2.48,0,0,0,.9.48,5.15,5.15,0,0,0,2.21,0,2.44,2.44,0,0,0,.91-.48,2.09,2.09,0,0,0,.66-1.09,7.72,7.72,0,0,0,0-3.74,2.17,2.17,0,0,0-.66-1.1,2.56,2.56,0,0,0-.91-.47,5.15,5.15,0,0,0-2.21,0,2.6,2.6,0,0,0-.9.47A2.18,2.18,0,0,0,615.35,533.87Z"/><path class="cls-4" d="M625.17,540.81v-9.3a9.74,9.74,0,0,1,4.33-1,4.31,4.31,0,0,1,3,1,3.58,3.58,0,0,1,1.1,2.78v6.55h-1.9v-6.7a2,2,0,0,0-.46-1.41,2.42,2.42,0,0,0-1.84-.52,7.61,7.61,0,0,0-2.39.37v8.26Z"/><path class="cls-4" d="M468.47,312.79V299.22H477V301h-6.65v4.13h5.86v1.77h-5.86v5.9Z"/><path class="cls-4" d="M478.49,307.84c0-3.57,1.5-5.36,4.48-5.36h0a4.19,4.19,0,0,1,3.26,1.33,5.1,5.1,0,0,1,1.21,3.57c0,.48,0,.94-.06,1.39h-7a2.63,2.63,0,0,0,2.86,2.61,7.46,7.46,0,0,0,3.51-.76v1.69a9.1,9.1,0,0,1-3.55.66h-.06a5.83,5.83,0,0,1-1.65-.22A5.08,5.08,0,0,1,480,312a3.54,3.54,0,0,1-1.13-1.59A7.27,7.27,0,0,1,478.49,307.84Zm1.87-.74h5.22a5,5,0,0,0-.18-1,4.42,4.42,0,0,0-.4-.94,2.14,2.14,0,0,0-.79-.76,2.55,2.55,0,0,0-1.24-.28,2.43,2.43,0,0,0-1.88.66A3.9,3.9,0,0,0,480.36,307.1Z"/><path class="cls-4" d="M489.45,307.59a7,7,0,0,1,.42-2.57,3.45,3.45,0,0,1,1.14-1.58,4.6,4.6,0,0,1,1.48-.75,6,6,0,0,1,1.63-.21,8.06,8.06,0,0,1,2.17.3v-4h1.86v10.88a3.59,3.59,0,0,1-.07.65,3.38,3.38,0,0,1-.31.83,2.72,2.72,0,0,1-.66.88,3.39,3.39,0,0,1-1.24.65A6.11,6.11,0,0,1,494,313a5.94,5.94,0,0,1-1.13-.1,4,4,0,0,1-1.19-.44,3.68,3.68,0,0,1-1.09-.91,4.54,4.54,0,0,1-.78-1.56A7.9,7.9,0,0,1,489.45,307.59Zm1.86,0a7.18,7.18,0,0,0,.22,2,2.26,2.26,0,0,0,.64,1.13,2.41,2.41,0,0,0,.83.49,3.4,3.4,0,0,0,1,.12c1.56,0,2.33-.5,2.33-1.51v-5.2a5.7,5.7,0,0,0-2.17-.42,4.13,4.13,0,0,0-1.06.12,2.54,2.54,0,0,0-.88.45,2.16,2.16,0,0,0-.65,1.06A6.12,6.12,0,0,0,491.31,307.59Z"/><path class="cls-4" d="M500.47,307.84c0-3.57,1.5-5.36,4.48-5.36h0a4.19,4.19,0,0,1,3.26,1.33,5.1,5.1,0,0,1,1.21,3.57c0,.48,0,.94-.06,1.39h-7a2.63,2.63,0,0,0,2.86,2.61,7.46,7.46,0,0,0,3.51-.76v1.69a9.1,9.1,0,0,1-3.55.66h-.06a5.83,5.83,0,0,1-1.65-.22A5.08,5.08,0,0,1,502,312a3.54,3.54,0,0,1-1.13-1.59A7.27,7.27,0,0,1,500.47,307.84Zm1.87-.74h5.22a5,5,0,0,0-.18-1,4,4,0,0,0-.41-.94,2,2,0,0,0-.79-.76,2.49,2.49,0,0,0-1.23-.28,2.43,2.43,0,0,0-1.88.66A3.9,3.9,0,0,0,502.34,307.1Z"/><path class="cls-4" d="M511.84,312.79v-9.3a13.39,13.39,0,0,1,4.95-1v1.71a12.92,12.92,0,0,0-3.09.43v8.17Z"/><path class="cls-4" d="M518.11,309.59a2.68,2.68,0,0,1,1.27-2.36,6.33,6.33,0,0,1,3.51-.84,15.86,15.86,0,0,1,1.85.11,2.5,2.5,0,0,0-.7-1.83,3.2,3.2,0,0,0-2.1-.56,8.68,8.68,0,0,0-2.81.51V303a8.45,8.45,0,0,1,3.07-.55,4.6,4.6,0,0,1,3.28,1.1,4.13,4.13,0,0,1,1.15,3.15v2.93a3.68,3.68,0,0,1-.06.66,4.47,4.47,0,0,1-.31.83,2.83,2.83,0,0,1-.66.88,3.51,3.51,0,0,1-1.26.65,6.29,6.29,0,0,1-1.93.27,6.16,6.16,0,0,1-2-.28,3.79,3.79,0,0,1-1.28-.66,3,3,0,0,1-.68-.9,3.37,3.37,0,0,1-.31-.86A3.77,3.77,0,0,1,518.11,309.59Zm1.86,0c0,1.14.81,1.71,2.44,1.71h0q2.31,0,2.31-1.65V308a12.51,12.51,0,0,0-1.77-.12,5.12,5.12,0,0,0-.85.07,8.26,8.26,0,0,0-1,.23,1.9,1.9,0,0,0-.86.53A1.24,1.24,0,0,0,520,309.57Z"/><path class="cls-4" d="M528.08,304.23v-1.59h1.77v-3h1.86v3h2.7v1.59h-2.7v5.87c0,.79.5,1.18,1.5,1.18h0a2.2,2.2,0,0,0,1.18-.29v1.68A3.59,3.59,0,0,1,533,313h0a3.74,3.74,0,0,1-.78-.09,4.83,4.83,0,0,1-1-.35,2.1,2.1,0,0,1-1-.91,3.17,3.17,0,0,1-.38-1.61v-5.76Z"/><path class="cls-4" d="M536.23,307.84c0-3.57,1.5-5.36,4.48-5.36h0a4.19,4.19,0,0,1,3.26,1.33,5.1,5.1,0,0,1,1.21,3.57c0,.48,0,.94-.06,1.39h-7a2.63,2.63,0,0,0,2.86,2.61,7.46,7.46,0,0,0,3.51-.76v1.69A9.1,9.1,0,0,1,541,313h-.06a5.83,5.83,0,0,1-1.65-.22,5.08,5.08,0,0,1-1.47-.74,3.54,3.54,0,0,1-1.13-1.59A7.27,7.27,0,0,1,536.23,307.84Zm1.87-.74h5.22a5,5,0,0,0-.18-1,4.42,4.42,0,0,0-.4-.94,2.14,2.14,0,0,0-.79-.76,2.55,2.55,0,0,0-1.24-.28,2.43,2.43,0,0,0-1.88.66A3.9,3.9,0,0,0,538.1,307.1Z"/><path class="cls-4" d="M547.19,307.59a7,7,0,0,1,.42-2.57,3.45,3.45,0,0,1,1.14-1.58,4.66,4.66,0,0,1,1.47-.75,6.14,6.14,0,0,1,1.64-.21,8.06,8.06,0,0,1,2.17.3v-4h1.86v10.88a3.59,3.59,0,0,1-.07.65,3.38,3.38,0,0,1-.31.83,2.72,2.72,0,0,1-.66.88,3.39,3.39,0,0,1-1.24.65,6.11,6.11,0,0,1-1.91.27,5.94,5.94,0,0,1-1.13-.1,4,4,0,0,1-1.19-.44,3.68,3.68,0,0,1-1.09-.91,4.54,4.54,0,0,1-.78-1.56A7.9,7.9,0,0,1,547.19,307.59Zm1.86,0a7.18,7.18,0,0,0,.22,2,2.26,2.26,0,0,0,.64,1.13,2.47,2.47,0,0,0,.82.49,3.52,3.52,0,0,0,1,.12c1.56,0,2.33-.5,2.33-1.51v-5.2a5.7,5.7,0,0,0-2.17-.42,4.13,4.13,0,0,0-1.06.12,2.54,2.54,0,0,0-.88.45,2.16,2.16,0,0,0-.65,1.06A6.12,6.12,0,0,0,549.05,307.59Z"/><path class="cls-4" d="M478.55,329.25a10.39,10.39,0,0,1,.38-2.92,6.08,6.08,0,0,1,1-2,5,5,0,0,1,1.48-1.21,5.57,5.57,0,0,1,1.69-.63,9.87,9.87,0,0,1,3.54,0,5.47,5.47,0,0,1,1.69.63,5.07,5.07,0,0,1,1.47,1.21,6.08,6.08,0,0,1,1,2,11.49,11.49,0,0,1-.06,6.08,5.1,5.1,0,0,1-1.24,2.11,5.63,5.63,0,0,1-1.66,1.13,6.5,6.5,0,0,1-1.94.5,2,2,0,0,0,.54,1.4,1.89,1.89,0,0,0,1.49.6v1.48a4,4,0,0,1-2.79-1,3.18,3.18,0,0,1-1.1-2.45,7.39,7.39,0,0,1-2-.46,5.39,5.39,0,0,1-1.72-1.1,5,5,0,0,1-1.3-2.12A10.09,10.09,0,0,1,478.55,329.25Zm2.17-2.31a8.69,8.69,0,0,0-.28,2.31,8.8,8.8,0,0,0,.28,2.33,4.62,4.62,0,0,0,.69,1.54,2.86,2.86,0,0,0,1,.87,3.82,3.82,0,0,0,1.18.42,7.76,7.76,0,0,0,1.24.09,7.93,7.93,0,0,0,1.26-.09,3.82,3.82,0,0,0,1.18-.42,3,3,0,0,0,1-.87,4.63,4.63,0,0,0,.68-1.54,8.4,8.4,0,0,0,.28-2.33,8.3,8.3,0,0,0-.28-2.31,4.57,4.57,0,0,0-.67-1.53,3.17,3.17,0,0,0-1-.88,4.16,4.16,0,0,0-1.18-.41,8,8,0,0,0-1.27-.09,7.71,7.71,0,0,0-1.25.09,4,4,0,0,0-1.17.41,3.1,3.1,0,0,0-1,.88A4.56,4.56,0,0,0,480.72,326.94Z"/><path class="cls-4" d="M493.62,331.78V325.9h1.86v6a2.9,2.9,0,0,0,.59,2,3,3,0,0,0,3.69,0,3,3,0,0,0,.58-2v-6h1.85v5.88a4.53,4.53,0,0,1-1.12,3.28,4.16,4.16,0,0,1-3.15,1.17,4.21,4.21,0,0,1-3.17-1.17A4.54,4.54,0,0,1,493.62,331.78Z"/><path class="cls-4" d="M504.85,331.09q0-5.35,4.48-5.35h0a4.17,4.17,0,0,1,3.25,1.33,5.08,5.08,0,0,1,1.22,3.56c0,.49,0,.95-.06,1.4h-7a2.62,2.62,0,0,0,2.86,2.61,7.39,7.39,0,0,0,3.5-.76v1.69a9,9,0,0,1-3.54.66h-.06a5.73,5.73,0,0,1-1.65-.22,4.84,4.84,0,0,1-1.47-.74,3.47,3.47,0,0,1-1.13-1.59A7.15,7.15,0,0,1,504.85,331.09Zm1.87-.73h5.21a4.37,4.37,0,0,0-.17-1,4.48,4.48,0,0,0-.41-.94,1.93,1.93,0,0,0-.79-.76,2.49,2.49,0,0,0-1.23-.28,2.41,2.41,0,0,0-1.88.66A3.83,3.83,0,0,0,506.72,330.36Z"/><path class="cls-4" d="M516.21,336.05v-9.3a13.47,13.47,0,0,1,4.95-1v1.71a12.89,12.89,0,0,0-3.09.42v8.18Z"/><path class="cls-4" d="M523.23,324.33v-2h2v2Zm.06,11.72V325.9h1.86v10.15Z"/><path class="cls-4" d="M528,331.09q0-5.35,4.48-5.35h0a4.21,4.21,0,0,1,3.26,1.33,5.07,5.07,0,0,1,1.21,3.56c0,.49,0,.95-.06,1.4h-7a2.63,2.63,0,0,0,2.86,2.61,7.46,7.46,0,0,0,3.51-.76v1.69a9.1,9.1,0,0,1-3.55.66h-.06A5.73,5.73,0,0,1,531,336a5.08,5.08,0,0,1-1.47-.74,3.47,3.47,0,0,1-1.13-1.59A7.37,7.37,0,0,1,528,331.09Zm1.87-.73H535a4.37,4.37,0,0,0-.17-1,4.48,4.48,0,0,0-.41-.94,1.93,1.93,0,0,0-.79-.76,2.49,2.49,0,0,0-1.23-.28,2.43,2.43,0,0,0-1.88.66A3.83,3.83,0,0,0,529.83,330.36Z"/><path class="cls-4" d="M538.88,328.76a2.89,2.89,0,0,1,.9-2.14,3.77,3.77,0,0,1,2.75-.88,6.08,6.08,0,0,1,2.71.66V328a6,6,0,0,0-2.49-.6q-2,0-2,1.29a.81.81,0,0,0,.53.71,6.42,6.42,0,0,0,1.3.5,15.79,15.79,0,0,1,1.51.51,3.07,3.07,0,0,1,1.29,1,3,3,0,0,1-.38,3.88,4,4,0,0,1-2.85.89,6,6,0,0,1-2.93-.71v-1.7a5.7,5.7,0,0,0,2.81.74h0a2.63,2.63,0,0,0,1.48-.35,1,1,0,0,0,.52-.9,1.17,1.17,0,0,0-.54-1,3.85,3.85,0,0,0-1.29-.6c-.51-.14-1-.3-1.53-.47a3,3,0,0,1-1.29-.88A2.32,2.32,0,0,1,538.88,328.76Z"/><path class="cls-4" d="M423.22,88.6l8.42-21.11h2.88l8.39,21.11h-3.17l-2.27-5.91h-8.81l-2.27,5.91Zm6.49-8.67h6.71l-3.35-8.76Z"/><path class="cls-4" d="M446.16,94.62v-17a5.86,5.86,0,0,1,.09-1,5.22,5.22,0,0,1,.47-1.27,4.26,4.26,0,0,1,1-1.36,5.37,5.37,0,0,1,1.94-1,9.51,9.51,0,0,1,3-.43,8.88,8.88,0,0,1,1.72.16,6.19,6.19,0,0,1,1.84.69A5.85,5.85,0,0,1,458,74.82a6.89,6.89,0,0,1,1.21,2.43,12.12,12.12,0,0,1,.49,3.63,11.13,11.13,0,0,1-.64,4,5.25,5.25,0,0,1-1.77,2.46A7.58,7.58,0,0,1,455,88.5a8.73,8.73,0,0,1-2.57.35,12,12,0,0,1-3.36-.46v6.23Zm2.89-9a9.27,9.27,0,0,0,3.36.63,6.63,6.63,0,0,0,1.66-.18,3.79,3.79,0,0,0,1.36-.71,3.26,3.26,0,0,0,1-1.65,9.73,9.73,0,0,0,.35-2.83,11.4,11.4,0,0,0-.35-3.06,3.58,3.58,0,0,0-1-1.77,3.65,3.65,0,0,0-1.28-.75,4.69,4.69,0,0,0-1.46-.2c-2.44,0-3.65.78-3.65,2.36Z"/><path class="cls-4" d="M463.5,94.62v-17a5.86,5.86,0,0,1,.09-1,5.22,5.22,0,0,1,.47-1.27,4.26,4.26,0,0,1,1-1.36A5.37,5.37,0,0,1,467,73a9.51,9.51,0,0,1,3-.43,8.88,8.88,0,0,1,1.72.16,6.19,6.19,0,0,1,1.84.69,5.85,5.85,0,0,1,1.72,1.41,6.89,6.89,0,0,1,1.21,2.43,12.12,12.12,0,0,1,.49,3.63,11.13,11.13,0,0,1-.64,4,5.25,5.25,0,0,1-1.77,2.46,7.58,7.58,0,0,1-2.29,1.15,8.73,8.73,0,0,1-2.57.35,12,12,0,0,1-3.36-.46v6.23Zm2.89-9a9.27,9.27,0,0,0,3.36.63,6.63,6.63,0,0,0,1.66-.18,3.79,3.79,0,0,0,1.36-.71,3.26,3.26,0,0,0,1-1.65,9.73,9.73,0,0,0,.35-2.83,11.4,11.4,0,0,0-.35-3.06,3.58,3.58,0,0,0-1-1.77,3.65,3.65,0,0,0-1.28-.75,4.69,4.69,0,0,0-1.46-.2c-2.43,0-3.65.78-3.65,2.36Z"/><path class="cls-4" d="M481.41,88.6V66.8h2.89V88.6Z"/><path class="cls-4" d="M489.51,70.37V67.31h3.07v3.06Zm.09,18.23V72.81h2.89V88.6Z"/><path class="cls-4" d="M498.53,86.76a8.72,8.72,0,0,1-1.88-6.05c0-2.65.62-4.67,1.88-6.06A7,7,0,0,1,504,72.56a12.81,12.81,0,0,1,4.66.88V76.2a9.82,9.82,0,0,0-4.35-1h-.06a4.87,4.87,0,0,0-3.41,1.12c-.83.75-1.24,2.23-1.24,4.43a9.92,9.92,0,0,0,.36,2.9,3.41,3.41,0,0,0,1.09,1.71,3.88,3.88,0,0,0,1.45.75,7.42,7.42,0,0,0,1.75.18,10.25,10.25,0,0,0,4.41-1V88a12.8,12.8,0,0,1-4.66.87A7,7,0,0,1,498.53,86.76Z"/><path class="cls-4" d="M511.58,83.61a4.17,4.17,0,0,1,2-3.66A9.76,9.76,0,0,1,519,78.64a22.33,22.33,0,0,1,2.87.18A3.88,3.88,0,0,0,520.8,76a5,5,0,0,0-3.26-.86,13.8,13.8,0,0,0-4.38.78V73.41a13.55,13.55,0,0,1,4.78-.85,7.11,7.11,0,0,1,5.1,1.71,6.44,6.44,0,0,1,1.8,4.91v4.56a4.94,4.94,0,0,1-.1,1,6.28,6.28,0,0,1-.48,1.29,4.62,4.62,0,0,1-1,1.37,5.48,5.48,0,0,1-2,1,10.93,10.93,0,0,1-6.07,0,5.84,5.84,0,0,1-2-1,4.29,4.29,0,0,1-1.06-1.4,5.28,5.28,0,0,1-.49-1.33A6.18,6.18,0,0,1,511.58,83.61Zm2.89,0q0,2.67,3.79,2.67h0c2.38,0,3.58-.85,3.58-2.56V81.14a19.07,19.07,0,0,0-2.75-.2,8.81,8.81,0,0,0-1.32.11,12.43,12.43,0,0,0-1.5.36,3,3,0,0,0-1.33.82A1.92,1.92,0,0,0,514.47,83.58Z"/><path class="cls-4" d="M527.09,75.28V72.81h2.76V68.13h2.89v4.68h4.2v2.47h-4.2v9.13c0,1.23.77,1.84,2.33,1.84h0a3.47,3.47,0,0,0,1.84-.46v2.62a5.56,5.56,0,0,1-2.16.44h-.08a5.38,5.38,0,0,1-1.22-.14,7.88,7.88,0,0,1-1.56-.54,3.38,3.38,0,0,1-1.49-1.42,5,5,0,0,1-.58-2.51v-9Z"/><path class="cls-4" d="M540.76,70.37V67.31h3.07v3.06Zm.09,18.23V72.81h2.89V88.6Z"/><path class="cls-4" d="M548.58,84.8a12.76,12.76,0,0,1,0-8.16,5.42,5.42,0,0,1,1.82-2.51,7.45,7.45,0,0,1,2.35-1.19,10.06,10.06,0,0,1,5.26,0,7.56,7.56,0,0,1,2.35,1.19,5.49,5.49,0,0,1,1.82,2.51,12.94,12.94,0,0,1,0,8.16,5.57,5.57,0,0,1-1.82,2.52A7.52,7.52,0,0,1,558,88.5a10.06,10.06,0,0,1-5.26,0,7.42,7.42,0,0,1-2.35-1.18A5.5,5.5,0,0,1,548.58,84.8Zm2.63-7a12.27,12.27,0,0,0,0,5.82,3.32,3.32,0,0,0,1,1.7,3.77,3.77,0,0,0,1.41.74,8.31,8.31,0,0,0,3.44,0,3.74,3.74,0,0,0,1.4-.74,3.26,3.26,0,0,0,1-1.7,12.27,12.27,0,0,0,0-5.82,3.3,3.3,0,0,0-1-1.7,3.89,3.89,0,0,0-1.4-.74,8.31,8.31,0,0,0-3.44,0,3.92,3.92,0,0,0-1.41.74A3.37,3.37,0,0,0,551.21,77.81Z"/><path class="cls-4" d="M566.49,88.6V74.15a15.08,15.08,0,0,1,6.73-1.62,6.73,6.73,0,0,1,4.71,1.56,5.59,5.59,0,0,1,1.7,4.33V88.6h-3V78.19A3.2,3.2,0,0,0,576,76a3.83,3.83,0,0,0-2.86-.8,12.15,12.15,0,0,0-3.72.57V88.6Z"/><path class="cls-4" d="M583.57,77.27a4.45,4.45,0,0,1,1.4-3.33,5.85,5.85,0,0,1,4.27-1.38,9.43,9.43,0,0,1,4.23,1v2.5a9.28,9.28,0,0,0-3.87-.94c-2.1,0-3.14.67-3.14,2a1.28,1.28,0,0,0,.83,1.1,10.7,10.7,0,0,0,2,.77,24.12,24.12,0,0,1,2.35.8,4.65,4.65,0,0,1,2,1.58,4.67,4.67,0,0,1-.59,6,6.22,6.22,0,0,1-4.44,1.38,9.33,9.33,0,0,1-4.56-1.11V85.1a8.79,8.79,0,0,0,4.37,1.15h.06a4.11,4.11,0,0,0,2.31-.54,1.65,1.65,0,0,0,.8-1.4,1.84,1.84,0,0,0-.83-1.56,6.23,6.23,0,0,0-2-.93c-.8-.22-1.59-.46-2.38-.74a4.72,4.72,0,0,1-2-1.35A3.6,3.6,0,0,1,583.57,77.27Z"/><path class="cls-5" d="M821,400.53c-38.08,0-77.47,8.64-77.47,23.08V609a8.62,8.62,0,0,0,1.66,5A14.09,14.09,0,0,0,747,616.2c9.85,9.51,39.56,15.91,73.93,15.91s64.11-6.4,73.95-15.9a13.34,13.34,0,0,0,1.9-2.21,8.55,8.55,0,0,0,1.65-5V423.61C898.46,409.17,859.06,400.53,821,400.53Z"/><path class="cls-6" d="M874.06,404.31c-14.38-3.91-33.74-6.14-53.1-6.14s-38.7,2.23-53.08,6.14c-16.83,4.56-25.73,11.05-25.73,18.75V609.58a10.47,10.47,0,0,0,2,6.09,15.74,15.74,0,0,0,2.13,2.48c10.1,9.76,40.11,16.32,74.67,16.32s64.6-6.56,74.71-16.32a16.36,16.36,0,0,0,2.13-2.48,10.54,10.54,0,0,0,2-6.09V423.06C899.81,415.36,890.9,408.87,874.06,404.31ZM892,611.6a9,9,0,0,1-1.22,1.42c-8.63,8.34-38,14.37-69.82,14.37s-61.16-6-69.78-14.36A9.52,9.52,0,0,1,750,611.6a3.61,3.61,0,0,1-.72-2V434a40.57,40.57,0,0,0,5.26,3l.09,0c1,.46,2,.9,3,1.34l.27.1c1,.42,2.08.82,3.19,1.22l.4.13c.93.33,1.9.65,2.9,1l.9.28c.94.28,1.91.55,2.9.82l1.32.36c.95.24,1.92.48,2.91.71l1.69.39c.95.21,1.91.41,2.9.61l1.93.37c.77.15,1.54.29,2.32.42l2.67.44,2.19.34c.94.14,1.89.27,2.86.39l2.48.32,2.25.26,3.36.34,1.71.15c1.34.12,2.71.22,4.09.32l1.47.1c1.48.09,3,.17,4.48.24l1.12.05c1.63.07,3.28.12,4.94.16h.65c1.81,0,3.63.06,5.47.06s3.65,0,5.46-.06h.67c1.66,0,3.3-.09,4.93-.16l1.13-.05c1.5-.07,3-.15,4.48-.24l1.47-.1c1.37-.1,2.73-.2,4.08-.32l1.75-.16c1.1-.1,2.18-.21,3.26-.33.79-.08,1.57-.17,2.35-.27s1.63-.2,2.44-.3l2.91-.41,2.14-.32,2.71-.45c.77-.14,1.54-.27,2.3-.42L865,444c1-.2,1.95-.4,2.9-.61l1.68-.39c1-.23,2-.47,2.93-.72l1.28-.34c1-.28,2.05-.57,3-.86l.74-.23c1-.33,2.05-.66,3-1l.31-.11c1.14-.4,2.23-.81,3.27-1.24l.18-.07c1.08-.45,2.11-.9,3.09-1.37h0a39.26,39.26,0,0,0,5.29-3V609.58A3.54,3.54,0,0,1,892,611.6ZM821,405.25c44.46,0,71.76,10.38,71.76,17.81a3.74,3.74,0,0,1-.73,2.06c-3.11,4.59-14.23,9.28-30.65,12.33l-.14,0-1.86.33-1.94.33h0a230.57,230.57,0,0,1-30.28,2.66l-1,0-2,0-3.18,0-3.18,0-1.94,0-1,0a229.84,229.84,0,0,1-30.21-2.65l-.12,0c-.62-.09-1.23-.2-1.84-.3l-2-.35h0c-16.41-3-27.53-7.74-30.66-12.33a3.84,3.84,0,0,1-.74-2.07C749.23,415.63,776.52,405.25,821,405.25Z"/><text class="cls-7" transform="translate(773.32 668.7)"><tspan class="cls-8">H</tspan><tspan class="cls-9" x="15.9" y="0">A</tspan><tspan x="31.41" y="0">D</tspan><tspan class="cls-10" x="47.09" y="0">O</tspan><tspan class="cls-11" x="64.11" y="0">O</tspan><tspan class="cls-12" x="81.36" y="0">P</tspan></text><path id="path136" class="cls-13" d="M845.39,535.38c.64-.34,1.79-.82,2.43-1.16-.65.11-1.83.35-2.48.46-1.75.29-2,.71-2.22,2.43-.13.81-.31,1.82-.44,2.63.35-.92.76-2,1.16-2.86s.66-1,1.55-1.5ZM813,491.08a11.23,11.23,0,0,1,4.28-4C814.38,487.73,813.84,488.27,813,491.08Zm-.45,4.53c2.41-4.83,4.22-6.6,9.26-9C816.09,488,814.41,489,812.52,495.61Zm-51.45,25.15a11.07,11.07,0,0,1,2.51-5.32C761.16,517.13,760.84,517.83,761.07,520.76Zm53.86,40.48c-.08-.59-.15-1.17-.22-1.76a13.67,13.67,0,0,1-.05-3c.09-1,.17-2.07.25-3.11-.3,1.06-.91,2.11-1.21,3.16a9.42,9.42,0,0,0-.27,1.08,35.35,35.35,0,0,1-13.48.17c-.29-1.66-.64-3.4-.93-4.65-.09,1.4,0,5.25,0,7.41a5.55,5.55,0,0,1-.94,3.67,35.94,35.94,0,0,0-2.28,3.89,9.63,9.63,0,0,1-.28,3.71c-.63,2.24-7,.5-8.63,0-2.06-.56-6.31-1.4-5.24-4.14a35.36,35.36,0,0,0,2-8.33c-3.77-5.43-7.27-12.87-8-19.46-.52-5.12-.2-8.27.9-11.4a29.23,29.23,0,0,1,8.15-12.71c5.31-4.66,10.28-6.53,18.06-7.72-1.87,2.1-3.72,4.31-5.74,6.69a34.17,34.17,0,0,0-4.55,7.45c-1.79,3.63-1.75,5,.62,8.2,2,2.75,3.15,4,4,6.67a13.9,13.9,0,0,0-1.26,4.88c2.51,2.74,4.37,4.62,6.8,5.2a8.87,8.87,0,0,0,6.51-.64c4.74-2.42,9.13-5.55,14.48-5.68,2.47-6.08,2.22-11.16,1-17.05a86.51,86.51,0,0,1-1.39-11.92,28.42,28.42,0,0,0-.44,12.13c.89,5.07,1.59,10.67-.91,15.12-4.83.37-9,3.31-13.33,5.57a7.37,7.37,0,0,1-5.52.46c-1.8-.5-3-1.69-5-3.92,0-2.25.48-3.28,1.51-5.32,1.65-3.26,3.48-6.3,5.49-9.51a90.69,90.69,0,0,0-6.72,8.42c-.74-2.11-1.79-3.17-3.55-5.55s-1.88-3.33-.61-6a27,27,0,0,1,4.57-7.43c3.78-4.08,7.24-8.62,11.38-12.65,2.24-2.18,3.15-2.1,6.13-2.55,2.69-.41,5.32-.93,8.07-1.57-2.66.25-5.23.34-7.81.41h-.08c2.54-3.25,4-5.06,8.15-6.85,10.17-4.42,16.63-4.9,24.61,1.82,2.07,1.74,3.88,3.43,6,4.93a7.49,7.49,0,0,0-2.29.54,9.7,9.7,0,0,1,3.38.2c.3.2.62.39.94.58a9,9,0,0,1,3.33,2.76,29.77,29.77,0,0,1,2.72,4.57c-.51-.18-.94-.34-1.32-.45a2.88,2.88,0,0,0-2.68.17l-.06,0a13.06,13.06,0,0,1-2.94,1,3.52,3.52,0,0,0,1.85,0l.18-.05a3,3,0,0,0-.38,1.16,2.9,2.9,0,0,0,.31,1.58h0a1.46,1.46,0,0,0,.3.47c-.39.14-.78.31-1.19.49a18.81,18.81,0,0,1,5.45-.1c.12.58.25,1.2.36,1.83l-.69,0h0c-.88-.7-1.85-.58-3.19-.28-4,.92-3.09,3.2-5,6.62,1.94-2.36,1.79-4.84,4.95-5.58a4.8,4.8,0,0,1,1.73-.32,4,4,0,0,0-2,2.06c-.86,2.45-.33,4.5-1.28,6.79,1.18-2,1.25-4,2.31-6.18a4.31,4.31,0,0,1,2.64-2h.71a17.89,17.89,0,0,1,.25,3.82,44.15,44.15,0,0,1-1,6.23c1.06-1.37,1.55-4.27,2-6.32a18,18,0,0,0-.06-7c-.59-3.13,2.64-2.62,4.52-4.1,1.38-1.09,2.33-2.82,3.59-4.05s3.23.57,3.72,1.76A44,44,0,0,1,879,524.22c-.63,5.86-3.46,12.25-8.62,15.13-6.59,3.67-14.35,1.43-20.88-.78a16.16,16.16,0,0,1-3.6-1.92,9,9,0,0,1,0,4.59c-.7,2.39-1.84,6.29,1.4,7,1.23.27,1.79.23,3.52-.67a6.46,6.46,0,0,1-3.08.06,2,2,0,0,1-1.59-1.37,5.45,5.45,0,0,0,1.66.55c2.4.57,4.69-.58,5.13-2.24a15.57,15.57,0,0,1,.77-2.81c.5.15,1,.29,1.54.42-.3,1-.59,1.94-.89,2.91a7.05,7.05,0,0,1-6.43,4.49c-2.45,0-4-1.58-5.7-3.08l-3.4-3a26.1,26.1,0,0,1-8.33-4.18,14.79,14.79,0,0,0,6.2,4.86c-.41,4.17-1.86,7.21-3.1,11.2-.56,1.8-5,9-6.19,9.74-.88.5-6.34,5.1-7.37,5.71-.76,1-1.44,2.42-2.59,3-3.5,1.85-5.76-1.7-7.64-4.7-.86-1.36-3.25-5.3-1.17-6.4a56.33,56.33,0,0,0,5.08-3.1c.29.53.8,1.05,1.13,1.59Zm12.19,6.36c-1.78,1.43-4.76,4-5.34,4.29-1,1.56-1.18,2.53-2.86,3.44-5,2.71-7.66-.43-10.62-5-1.41-2.18-4.5-7.14-1.22-8.82,1.38-.71,2.42-1.24,3.47-1.85a37.5,37.5,0,0,1-10.31-.1c.06.43.11.83.16,1.2.22,1.91.3,2.5-.74,4a16.84,16.84,0,0,0-2,3.5,10.09,10.09,0,0,1-.37,4.33c-1,3.87-8.27,1.75-11.21,1-3.54-1-8.6-1.85-6.53-6.41a21.23,21.23,0,0,0,1.16-3.19c-3.1,1.37-7.4-1.54-9.45-3.6a11.84,11.84,0,0,1-3.38-6.42c-.31-1.88,0-1.87,1.31-3.19l3.67-3.64c.5-1.34,1-2.69,1.49-4a28.46,28.46,0,0,1-.42-3,31.73,31.73,0,0,1,.35-9.78c-2.15.84-4.63.44-5.73-1.84a16,16,0,0,1-1-3c-4.8-4.63,4.2-10.71,6.83-11.16-.3.85-.63,1.63-.92,2.41,1.78.92,1.56,3.55,1.19,5.24-.65-.81-1-1.87-1.94-1.91-.14,1.91-.12,4-1.61,5.15.44,1.18.42,1.18,1.68.7,1.78-.69,3.13-2.22,4.48-3.71a25.5,25.5,0,0,1,5.89-7.64c6.32-5.6,12.28-7.43,21.89-9,1.28-1.33,2.6-2.62,4-3.87a7,7,0,0,1,5-2.14c3-4,5.38-6.83,10.28-8.89,10.28-4.33,17.37-4.54,25.62,2.26,2.73,2.25,5,4.62,8,6.5a13.85,13.85,0,0,1,3.75,3,18.62,18.62,0,0,1,3.45,5.66,11.45,11.45,0,0,0,3.25-1.68c1.26-1.08,2.07-2.89,3.24-4.07,1.55-1.57,5.09.32,5.87,1.83,2.67,5.1,3.76,14.5,3.19,20.1-.7,6.91-3.55,13.45-9.64,16.7-4.14,2.21-9.7,2.41-14.46,1.52-.31,1-.61,2-.92,3-.93,3-4.54,5.52-7.69,5.67s-4.67-1.42-6.66-3.33l-3.13-3c-.06.68-.15,1.34-.26,2,.82,1.62,1.22,3,1.92,4.72a12.25,12.25,0,0,1,1.2,5c.05,1.75.09,3.5.14,5.24a4.34,4.34,0,0,1,.73,3.31c-.24,3.34-2.07,3.66-5.14,3.64-1,0-4.88,0-5.86,0C829.08,568.55,827.79,568.4,827.12,567.6Zm10.33-18.22c-.61,2.2-1.44,4.28-2.2,6.66s-4.39,8.81-6.55,10.4a5.64,5.64,0,0,0,2.57.55c1,.09,4.81.1,5.77.12,2.12,0,2.93-.12,3.14-2.54a3.07,3.07,0,0,0-.57-2.44c-.06-1.85-.11-3.7-.16-5.54a10.61,10.61,0,0,0-1.08-4.4C838,551.21,837.74,550.3,837.45,549.38Zm-64.61-30.25a1.31,1.31,0,0,1,1.14.56c-.06-.88-.23-1.53-.84-1.89,0,.14-.09.29-.13.43s-.12.59-.17.9Zm3,6.35c-.35.89-.66,1.8-1,2.75l-.15.47c-1.81.76-4.19,1.25-5.1-.65a18.12,18.12,0,0,1-1-3c-3-3.09,1.48-7.17,3.91-8.63a13.6,13.6,0,0,0-.77,1.91c-.74,2.56.33,4.83-2,6.68,1.09,2.2,1,3.08,3.58,2.06A8.34,8.34,0,0,0,775.84,525.48Zm-.7,20.8a50.12,50.12,0,0,0,6.3,13.33v.07a5.08,5.08,0,0,1-.74,1.86c-1.86,2.48-6.57-1.16-7.93-2.55a9.46,9.46,0,0,1-2.73-5c-.17-1.23,0-1.26.86-2.14l3.48-3.52C774.63,547.63,774.89,547,775.14,546.28Zm87.73-38.11a3,3,0,0,1,.62.91l.26-.21c-.11-.24-.22-.48-.34-.72Zm-22.7,8.54a3.82,3.82,0,0,1-.36-1.57,11.31,11.31,0,0,1-2.86,1.77c1.39-1.24,3.27-4.15,4.63-5.07,1.55-1,3.65-.85,5.45-1.68a10.67,10.67,0,0,1-2.21,1.44,3.72,3.72,0,0,1,2.09,1.89,4,4,0,0,1,.34,1.2,10.79,10.79,0,0,1,3.41-.58,21.2,21.2,0,0,0-10.06,6.5,8.43,8.43,0,0,1,1.21-2.21,3.73,3.73,0,0,1-1.64-1.69Zm-16.67-13a46.87,46.87,0,0,1-5.73,1.84c-1.77,2.32-2.84,3.53-3.25,6.64-.48-3.06-.58-3.63.78-5.92a6.56,6.56,0,0,0-1.28.93c-1.91,1.63-4.39,8-5.38,10.31.63-2.75,2.6-9.63,4.63-11.64,1.33-1.32,1.63-1.29,3.52-1.46,2.24-.22,4.47-.45,6.71-.7Zm41.44,6.67c1.61.15,2.53.4,4-.31a13.12,13.12,0,0,0,6-6.1c-.78,3.1-2.36,5.73-5.64,6.9-1.6.57-2.64,0-4.28-.49Zm-30.91.3c.61-2.68,1.68-5.27,5.86-7.27C834.36,504.78,833.32,507.1,834,510.67ZM762.3,525.15c.48-5.38,1.52-7.7,5.34-11.74-4.79,3.37-6,4.91-5.34,11.74"/><path class="cls-5" d="M347.63,156.31a2.15,2.15,0,0,1-1.07-.29l-31.45-7.58A2.13,2.13,0,0,1,314,146.6V132.31a2.13,2.13,0,0,1,1.07-1.84l31.45-6.81a2.13,2.13,0,0,1,2.13,0l31.46,6.81a2.12,2.12,0,0,1,1.06,1.84V146.6a2.12,2.12,0,0,1-1.06,1.84L348.69,156A2.14,2.14,0,0,1,347.63,156.31Z"/><path class="cls-3" d="M347.63,157.73c-.37,0-33-7.71-33-7.71a2.16,2.16,0,0,1-1.08-1.87V130.73a2.15,2.15,0,0,1,1.08-1.87s32.63-7,33-7,33,7,33,7a2.16,2.16,0,0,1,1.09,1.87v17.42a2.17,2.17,0,0,1-1.09,1.87S348,157.73,347.63,157.73ZM317.87,146.9l29.76,6.18,29.75-6.18V132l-29.75-6.46L317.87,132Z"/><path class="cls-3" d="M347.63,140.78a2.19,2.19,0,0,1-1.08-.29l-31.92-6.71a2.16,2.16,0,1,1,2.16-3.74l30.84,6.08L378.47,130a2.16,2.16,0,1,1,2.16,3.74l-31.92,6.71A2.21,2.21,0,0,1,347.63,140.78Z"/><path class="cls-3" d="M347.63,156.16a2.15,2.15,0,0,1-2.16-2.15V139.29a2.16,2.16,0,0,1,4.32,0V154A2.16,2.16,0,0,1,347.63,156.16Z"/><text class="cls-14" transform="translate(285.88 193.34)">I<tspan class="cls-15" x="7.44" y="0">g</tspan><tspan class="cls-16" x="22.18" y="0">n</tspan><tspan class="cls-17" x="37.72" y="0">i</tspan><tspan class="cls-18" x="45.5" y="0">t</tspan><tspan x="55.62" y="0">e </tspan><tspan class="cls-19" x="80.61" y="0">A</tspan><tspan class="cls-20" x="99.38" y="0">P</tspan><tspan x="116.06" y="0">I</tspan></text><path class="cls-5" d="M509,156.31a2.15,2.15,0,0,1-1.07-.29l-31.45-7.58a2.13,2.13,0,0,1-1.07-1.84V132.31a2.13,2.13,0,0,1,1.07-1.84l31.45-6.81a2.13,2.13,0,0,1,2.13,0l31.46,6.81a2.12,2.12,0,0,1,1.06,1.84V146.6a2.12,2.12,0,0,1-1.06,1.84L510,156A2.14,2.14,0,0,1,509,156.31Z"/><path class="cls-3" d="M509,157.73c-.38,0-33-7.71-33-7.71a2.16,2.16,0,0,1-1.08-1.87V130.73a2.15,2.15,0,0,1,1.08-1.87s32.62-7,33-7,33,7,33,7a2.16,2.16,0,0,1,1.09,1.87v17.42a2.17,2.17,0,0,1-1.09,1.87S509.32,157.73,509,157.73ZM479.19,146.9,509,153.08l29.75-6.18V132L509,125.52,479.19,132Z"/><path class="cls-3" d="M509,140.78a2.19,2.19,0,0,1-1.08-.29L476,133.78a2.16,2.16,0,0,1,2.16-3.74L509,136.12,539.79,130a2.16,2.16,0,1,1,2.15,3.74L510,140.49A2.21,2.21,0,0,1,509,140.78Z"/><path class="cls-3" d="M509,156.16a2.15,2.15,0,0,1-2.16-2.15V139.29a2.16,2.16,0,0,1,4.32,0V154A2.16,2.16,0,0,1,509,156.16Z"/><text class="cls-14" transform="translate(447.17 193.34)"><tspan class="cls-21">S</tspan><tspan class="cls-22" x="15.23" y="0">p</tspan><tspan class="cls-18" x="30.68" y="0">a</tspan><tspan class="cls-23" x="45.28" y="0">r</tspan><tspan x="54.74" y="0">k </tspan><tspan class="cls-19" x="80.66" y="0">A</tspan><tspan class="cls-20" x="99.44" y="0">P</tspan><tspan x="116.12" y="0">I</tspan></text><path class="cls-5" d="M682.62,156.31a2.15,2.15,0,0,1-1.07-.29l-31.45-7.58A2.13,2.13,0,0,1,649,146.6V132.31a2.13,2.13,0,0,1,1.07-1.84l31.45-6.81a2.13,2.13,0,0,1,2.13,0l31.46,6.81a2.12,2.12,0,0,1,1.06,1.84V146.6a2.12,2.12,0,0,1-1.06,1.84L683.68,156A2.11,2.11,0,0,1,682.62,156.31Z"/><path class="cls-3" d="M682.62,157.73c-.37,0-33-7.71-33-7.71a2.16,2.16,0,0,1-1.08-1.87V130.73a2.15,2.15,0,0,1,1.08-1.87s32.63-7,33-7,33,7,33,7a2.16,2.16,0,0,1,1.09,1.87v17.42a2.17,2.17,0,0,1-1.09,1.87S683,157.73,682.62,157.73ZM652.86,146.9l29.76,6.18,29.75-6.18V132l-29.75-6.46L652.86,132Z"/><path class="cls-3" d="M682.62,140.78a2.19,2.19,0,0,1-1.08-.29l-31.92-6.7a2.16,2.16,0,0,1,2.16-3.75l30.84,6.08L713.46,130a2.16,2.16,0,0,1,2.16,3.75l-31.92,6.7A2.21,2.21,0,0,1,682.62,140.78Z"/><path class="cls-3" d="M682.62,156.16a2.16,2.16,0,0,1-2.16-2.15V139.29a2.16,2.16,0,1,1,4.32,0V154A2.16,2.16,0,0,1,682.62,156.16Z"/><text class="cls-14" transform="translate(608.52 193.34)"><tspan class="cls-24">H</tspan><tspan class="cls-25" x="18.53" y="0">a</tspan><tspan class="cls-17" x="33.04" y="0">d</tspan><tspan class="cls-26" x="48.49" y="0">o</tspan><tspan class="cls-15" x="64.34" y="0">o</tspan><tspan x="79.9" y="0">p </tspan><tspan class="cls-19" x="105.31" y="0">A</tspan><tspan class="cls-20" x="124.09" y="0">P</tspan><tspan x="140.77" y="0">I</tspan></text><path class="cls-5" d="M338.37,400.34c-33.09,0-67.32,7.51-67.32,20.06V579.24a7.45,7.45,0,0,0,1.45,4.33,11.84,11.84,0,0,0,1.63,1.9c8.56,8.27,34.37,13.83,64.24,13.83s55.7-5.56,64.25-13.81a12,12,0,0,0,1.65-1.92,7.44,7.44,0,0,0,1.44-4.33V420.4C405.71,407.85,371.47,400.34,338.37,400.34Z"/><path class="cls-6" d="M384.51,404c-12.5-3.39-29.32-5.33-46.14-5.33s-33.63,1.94-46.12,5.33c-14.63,4-22.36,9.61-22.36,16.3v53.22a9.12,9.12,0,0,0,1.74,5.3,14.62,14.62,0,0,0,1.86,2.16c8.77,8.47,34.85,14.18,64.88,14.18s56.13-5.7,64.91-14.19a14.06,14.06,0,0,0,1.85-2.15,9.13,9.13,0,0,0,1.75-5.3V420.25C406.88,413.56,399.14,407.92,384.51,404Zm15.58,71.29a7.45,7.45,0,0,1-1.06,1.23c-7.49,7.24-33,12.48-60.66,12.48s-53.15-5.25-60.63-12.48a7.58,7.58,0,0,1-1.07-1.24,3.11,3.11,0,0,1-.63-1.76V429.78a35.11,35.11,0,0,0,4.57,2.61l.08,0c.83.4,1.7.79,2.62,1.16l.23.1c.89.36,1.8.71,2.77,1.05l.35.12c.81.28,1.65.56,2.52.83l.78.24q1.23.38,2.52.72l1.15.31,2.52.62,1.47.33c.83.19,1.67.36,2.52.54l1.68.32c.67.12,1.34.25,2,.36s1.53.26,2.32.39l1.89.29,2.49.34q1.06.15,2.16.27l1.95.23,2.92.29,1.49.14,3.55.28,1.28.08q1.94.12,3.9.21l1,0c1.42.06,2.85.11,4.3.14h.57c1.57,0,3.15.06,4.75.06s3.17,0,4.74-.06h.58c1.44,0,2.87-.08,4.29-.14l1,0c1.31-.06,2.6-.13,3.89-.21l1.28-.08,3.54-.28,1.52-.14,2.84-.28,2-.24c.71-.08,1.42-.17,2.12-.27.85-.11,1.69-.22,2.52-.35l1.87-.28,2.35-.39,2-.36c.56-.11,1.13-.21,1.69-.33l2.51-.53,1.47-.33c.86-.21,1.71-.41,2.54-.63.38-.09.74-.2,1.11-.3.9-.24,1.78-.49,2.64-.74l.64-.21c.9-.28,1.78-.56,2.63-.86l.27-.09c1-.35,1.93-.71,2.84-1.08l.16-.07c.94-.38,1.83-.78,2.68-1.19h0a34.91,34.91,0,0,0,4.6-2.62v43.69A3.09,3.09,0,0,1,400.09,475.24Zm-61.72-70.46c38.63,0,62.35,9,62.35,15.47a3.27,3.27,0,0,1-.63,1.79c-2.71,4-12.37,8.06-26.63,10.72l-.13,0-1.62.29-1.69.28h0a199.1,199.1,0,0,1-26.31,2.31l-.89,0-1.69,0-2.76,0-2.77,0-1.68,0-.9,0a198.22,198.22,0,0,1-26.24-2.3l-.11,0-1.6-.27-1.72-.3h0c-14.26-2.65-23.92-6.72-26.64-10.71a3.4,3.4,0,0,1-.64-1.8C276,413.79,299.75,404.78,338.37,404.78Z"/><path class="cls-6" d="M404,470.38a2.86,2.86,0,0,0-2.85,2.85,3.47,3.47,0,0,1-.66,1.91c-2.46,3.63-10.26,7.18-21.42,9.73-11.58,2.66-26,4.12-40.69,4.12s-29.09-1.46-40.68-4.11c-11.15-2.56-18.95-6.11-21.39-9.73a3.5,3.5,0,0,1-.68-1.92,2.85,2.85,0,1,0-5.69,0V579.57a8.92,8.92,0,0,0,1.71,5.18,13.92,13.92,0,0,0,1.81,2.11c4.39,4.23,12.93,7.8,24.72,10.34a213.49,213.49,0,0,0,80.41,0c11.79-2.53,20.34-6.11,24.71-10.33a13.9,13.9,0,0,0,1.85-2.14,9,9,0,0,0,1.7-5.16V473.23A2.86,2.86,0,0,0,404,470.38Zm-2.85,109.19a3.31,3.31,0,0,1-.66,1.89,8.24,8.24,0,0,1-1.11,1.28v0c-3.63,3.5-11.63,6.69-22.52,9a207.24,207.24,0,0,1-76.92,0c-10.9-2.28-18.9-5.47-22.53-9v0a7.77,7.77,0,0,1-1.08-1.25,3.37,3.37,0,0,1-.68-1.91V482.33c4.67,3.37,12.13,6.25,21.88,8.4a193.87,193.87,0,0,0,40.87,4c15,0,29.17-1.37,40.88-4,9.76-2.15,17.22-5,21.89-8.4Z"/><path class="cls-27" d="M292.79,467.82V453l2.93.68q2.11,3.57,4.24,7.1,2.13-2.67,4.26-5.39l3,.51v14.83l-2.66-.45v-11c-1.52,1.92-3,3.81-4.56,5.7-1.51-2.5-3-5-4.53-7.53v11Z"/><path class="cls-27" d="M310.92,471.29V456.46c3.28.47,6.58.86,9.88,1.17V460q-3.62-.33-7.21-.81V463c2.08.27,4.17.51,6.25.71v2.52c-2.08-.2-4.17-.44-6.25-.71v3.76q3.6.47,7.21.8v2.4C317.5,472.15,314.2,471.77,310.92,471.29Z"/><path class="cls-27" d="M323.87,472.72V457.89c1,.08,2,.14,3,.21,1.44,2.15,2.87,4.29,4.31,6.42q2.16-3,4.32-6.07l3,0v14.83c-.89,0-1.79,0-2.68,0v-11q-2.31,3.24-4.62,6.42-2.3-3.36-4.61-6.8v11Z"/><path class="cls-27" d="M341.72,465.88a10.68,10.68,0,0,1,.43-3.2,6.58,6.58,0,0,1,1.1-2.22,5.79,5.79,0,0,1,1.62-1.37,7.11,7.11,0,0,1,1.86-.75,10.79,10.79,0,0,1,2-.26,11.19,11.19,0,0,1,1.95.07,6.32,6.32,0,0,1,1.86.58,5,5,0,0,1,1.63,1.21,6,6,0,0,1,1.11,2.11,10.68,10.68,0,0,1,.42,3.17,11.44,11.44,0,0,1-.42,3.23,7.08,7.08,0,0,1-1.11,2.29,6.42,6.42,0,0,1-1.63,1.44,7.25,7.25,0,0,1-1.86.81,9.76,9.76,0,0,1-1.95.27,9.56,9.56,0,0,1-2-.09,5.94,5.94,0,0,1-1.86-.63,5.19,5.19,0,0,1-1.62-1.28,6.14,6.14,0,0,1-1.1-2.19A10.66,10.66,0,0,1,341.72,465.88Zm2.69-.07a9.23,9.23,0,0,0,.34,2.75,3,3,0,0,0,1,1.58,3.43,3.43,0,0,0,1.33.65,6.26,6.26,0,0,0,1.63.12,7.6,7.6,0,0,0,1.32-.17,3.67,3.67,0,0,0,1.14-.48,2.94,2.94,0,0,0,1-.95,5.5,5.5,0,0,0,.61-1.59,9.37,9.37,0,0,0,.25-2.32,9,9,0,0,0-.34-2.72,2.84,2.84,0,0,0-1-1.54,3.24,3.24,0,0,0-1.33-.61,6.31,6.31,0,0,0-1.63-.09,7.64,7.64,0,0,0-1.3.15,4.29,4.29,0,0,0-1.16.47,2.88,2.88,0,0,0-1,.91,5.28,5.28,0,0,0-.61,1.53A9.78,9.78,0,0,0,344.41,465.81Z"/><path class="cls-27" d="M358.88,472.34V457.51q2.85-.28,5.7-.65a5.62,5.62,0,0,1,4.06.67,3.77,3.77,0,0,1,1.44,3.31,5,5,0,0,1-3.25,4.87c1.3,1.71,2.59,3.41,3.89,5.09-1.07.17-2.15.34-3.22.49q-1.77-2.35-3.54-4.76l-2.4.29v5.23Zm2.68-8c1-.11,2-.23,2.95-.36a4.32,4.32,0,0,0,2.13-.77,2.29,2.29,0,0,0,.77-1.94c0-.92-.25-1.49-.77-1.74a4,4,0,0,0-2.13-.19c-1,.13-2,.25-2.95.36Z"/><path class="cls-27" d="M371.45,455.85c1.07-.18,2.14-.36,3.21-.56q1.95,2.67,3.9,5.28,1.94-3.4,3.87-6.85c1.07-.23,2.13-.48,3.19-.73q-2.87,4.92-5.73,9.75v6.37l-2.65.53v-6.36Q374.35,459.61,371.45,455.85Z"/><path class="cls-27" d="M315.38,545.92V531.09q2.53.6,5.07,1.08a8.55,8.55,0,0,1,5.22,2.71,8.66,8.66,0,0,1,1.78,5.76q0,3.63-1.78,5.3c-1.18,1.1-2.93,1.49-5.22,1.06Q317.91,546.52,315.38,545.92Zm2.65-1.8c.8.17,1.61.33,2.42.48a3.63,3.63,0,0,0,3.32-.61c.67-.68,1-1.92,1-3.69a6.56,6.56,0,0,0-1-4,5.19,5.19,0,0,0-3.32-1.74c-.81-.15-1.62-.31-2.42-.48Z"/><path class="cls-27" d="M330.74,548.37V533.54c.9.07,1.79.13,2.69.18v14.83C332.53,548.5,331.64,548.44,330.74,548.37Z"/><path class="cls-27" d="M336.63,538a3.71,3.71,0,0,1,1.52-3.23,6.79,6.79,0,0,1,3.81-1.14,9,9,0,0,1,4,.84v2.61a6.78,6.78,0,0,0-3.69-.94,4.84,4.84,0,0,0-2.09.48,1.41,1.41,0,0,0-.86,1.34,1.26,1.26,0,0,0,.78,1.15,8,8,0,0,0,1.89.66c.74.18,1.49.38,2.23.63a3.91,3.91,0,0,1,1.9,1.39,4.29,4.29,0,0,1,.78,2.7,3.81,3.81,0,0,1-1.49,3,5.85,5.85,0,0,1-3.65,1.3,8.8,8.8,0,0,1-4.93-1.22v-2.7a6.75,6.75,0,0,0,4.31,1.42c2.05-.05,3.08-.69,3.08-1.82a1.6,1.6,0,0,0-.56-1.26,3.33,3.33,0,0,0-1.41-.69q-.86-.22-1.83-.54a15.65,15.65,0,0,1-1.82-.71,3.33,3.33,0,0,1-1.41-1.23A3.68,3.68,0,0,1,336.63,538Z"/><path class="cls-27" d="M349.94,548.09V533.25c.89-.09,1.79-.21,2.68-.33v6.28c1.86-2.35,3.73-4.75,5.58-7.21,1.19-.23,2.37-.49,3.55-.76q-3,3.94-5.94,7.71,3.3,3.6,6.55,7c-1.1.26-2.2.51-3.3.73-1.64-1.8-3.3-3.65-5-5.54L352.62,543v4.79C351.73,547.88,350.83,548,349.94,548.09Z"/><path class="cls-6" d="M296.06,629s-4.42,6.69,4.26,8.05c.85.11,7.13.76,8.75,2.82,0,0-.15-3.56-5.25-5.65S296.62,631.65,296.06,629Z"/><path class="cls-6" d="M300.36,614.65s-12.35,7.52-.72,15c2.25,1.45,10.36,5.52,10.12,9.25,0,0,4.92-7.29-2.26-11.86C300.11,622.35,298.26,617.35,300.36,614.65Z"/><path class="cls-6" d="M313.11,622c-5.29-5.54-6.76-9-4.5-13.4,0,0-15.8,6.08-.2,16.86,5.58,3.86,4.65,7.8,4.65,7.95C314,632.51,318.4,627.55,313.11,622Z"/><text class="cls-28" transform="translate(325.02 632.37)"><tspan class="cls-29">N</tspan><tspan class="cls-30" x="15.45" y="0">O</tspan><tspan class="cls-31" x="30.92" y="0">D</tspan><tspan x="44.9" y="0">E</tspan></text><path class="cls-5" d="M105.81,400.34c-33.08,0-67.31,7.51-67.31,20.06V579.24a7.44,7.44,0,0,0,1.44,4.33,11.88,11.88,0,0,0,1.64,1.9c8.56,8.27,34.37,13.83,64.23,13.83s55.71-5.56,64.26-13.81a13.06,13.06,0,0,0,1.65-1.92,7.51,7.51,0,0,0,1.44-4.33V420.4C173.16,407.85,138.92,400.34,105.81,400.34Z"/><path class="cls-6" d="M152,404c-12.49-3.39-29.31-5.33-46.14-5.33S72.18,400.56,59.69,404c-14.62,4-22.35,9.61-22.35,16.3v53.22a9.12,9.12,0,0,0,1.74,5.3,14.57,14.57,0,0,0,1.85,2.16c8.78,8.47,34.86,14.18,64.88,14.18s56.13-5.7,64.92-14.19a14.06,14.06,0,0,0,1.85-2.15,9.12,9.12,0,0,0,1.74-5.3V420.25C174.32,413.56,166.59,407.92,152,404Zm15.59,71.29a8.54,8.54,0,0,1-1.06,1.23c-7.5,7.24-33,12.48-60.67,12.48s-53.14-5.25-60.63-12.48a8,8,0,0,1-1.06-1.24,3,3,0,0,1-.63-1.76V429.78a34.45,34.45,0,0,0,4.57,2.61l.08,0c.83.4,1.7.79,2.62,1.16l.22.1c.89.36,1.81.71,2.78,1.05l.34.12c.82.28,1.66.56,2.52.83l.79.24c.82.25,1.66.49,2.51.72l1.15.31c.83.21,1.67.42,2.53.62l1.47.33c.83.19,1.66.36,2.52.54l1.68.32c.66.12,1.34.25,2,.36s1.53.26,2.31.39l1.9.29,2.49.34c.71.1,1.43.19,2.15.27l2,.23,2.92.29,1.48.14,3.56.28,1.28.08c1.28.08,2.58.15,3.89.21l1,0c1.42.06,2.85.11,4.29.14h.57c1.58,0,3.16.06,4.75.06s3.18,0,4.75-.06h.58c1.44,0,2.87-.08,4.28-.14l1,0c1.31-.06,2.61-.13,3.89-.21l1.29-.08,3.54-.28,1.52-.14,2.84-.28,2-.24c.72-.08,1.42-.17,2.13-.27s1.69-.22,2.52-.35l1.87-.28,2.34-.39,2-.36c.57-.11,1.14-.21,1.69-.33.86-.17,1.7-.35,2.52-.53l1.46-.33c.87-.21,1.72-.41,2.55-.63.38-.09.74-.2,1.11-.3.9-.24,1.78-.49,2.63-.74l.65-.21c.9-.28,1.78-.56,2.63-.86l.27-.09c1-.35,1.93-.71,2.84-1.08l.15-.07c.94-.38,1.84-.78,2.69-1.19h0a34.91,34.91,0,0,0,4.6-2.62v43.69A3.09,3.09,0,0,1,167.54,475.24Zm-61.73-70.46c38.64,0,62.36,9,62.36,15.47a3.29,3.29,0,0,1-.64,1.79c-2.7,4-12.36,8.06-26.63,10.72l-.12,0-1.62.29-1.69.28h0a198.79,198.79,0,0,1-26.3,2.31l-.89,0-1.69,0-2.77,0-2.76,0-1.69,0-.89,0a198.53,198.53,0,0,1-26.25-2.3l-.11,0-1.59-.27-1.72-.3h0c-14.26-2.65-23.92-6.72-26.64-10.71a3.32,3.32,0,0,1-.64-1.8C43.49,413.79,67.2,404.78,105.81,404.78Z"/><path class="cls-6" d="M171.44,470.38a2.86,2.86,0,0,0-2.85,2.85,3.41,3.41,0,0,1-.67,1.91c-2.45,3.63-10.25,7.18-21.41,9.73-11.59,2.66-26,4.12-40.7,4.12s-29.09-1.46-40.67-4.11c-11.15-2.56-19-6.11-21.4-9.73a3.49,3.49,0,0,1-.67-1.92,2.85,2.85,0,0,0-5.7,0V579.57a9,9,0,0,0,1.71,5.18,14,14,0,0,0,1.82,2.11c4.38,4.23,12.93,7.8,24.72,10.34A195.6,195.6,0,0,0,105.81,601,195.91,195.91,0,0,0,146,597.2c11.79-2.53,20.34-6.11,24.71-10.33a13.33,13.33,0,0,0,1.84-2.14,8.89,8.89,0,0,0,1.7-5.16V473.23A2.85,2.85,0,0,0,171.44,470.38Zm-2.85,109.19a3.31,3.31,0,0,1-.66,1.89,8.24,8.24,0,0,1-1.11,1.28v0c-3.63,3.5-11.63,6.69-22.52,9a194.71,194.71,0,0,1-38.48,3.6,194.4,194.4,0,0,1-38.45-3.6c-10.89-2.28-18.89-5.47-22.52-9v0a7.82,7.82,0,0,1-1.09-1.25,3.36,3.36,0,0,1-.67-1.91V482.33c4.66,3.37,12.13,6.25,21.87,8.4a193.93,193.93,0,0,0,40.87,4,194.06,194.06,0,0,0,40.89-4c9.75-2.15,17.22-5,21.89-8.4Z"/><path class="cls-27" d="M60.24,467.82V453l2.92.68c1.42,2.38,2.83,4.75,4.25,7.1q2.13-2.67,4.26-5.39l3,.51v14.83L72,470.27v-11c-1.52,1.92-3,3.81-4.55,5.7-1.51-2.5-3-5-4.54-7.53v11Z"/><path class="cls-27" d="M78.36,471.29V456.46q4.94.71,9.89,1.17V460q-3.61-.33-7.21-.81V463q3.12.4,6.25.71v2.52q-3.14-.3-6.25-.71v3.76q3.6.47,7.21.8v2.4C85,472.15,81.65,471.77,78.36,471.29Z"/><path class="cls-27" d="M91.32,472.72V457.89c1,.08,2,.14,3,.21q2.15,3.22,4.31,6.42,2.16-3,4.32-6.07l3,0v14.83l-2.69,0v-11c-1.54,2.16-3.07,4.3-4.61,6.42-1.54-2.24-3.07-4.51-4.61-6.8v11Z"/><path class="cls-27" d="M109.17,465.88a10.68,10.68,0,0,1,.43-3.2,6.58,6.58,0,0,1,1.1-2.22,5.52,5.52,0,0,1,1.62-1.37,6.85,6.85,0,0,1,1.86-.75,10.56,10.56,0,0,1,1.95-.26,11.34,11.34,0,0,1,2,.07,6.26,6.26,0,0,1,1.85.58,4.93,4.93,0,0,1,1.64,1.21,5.81,5.81,0,0,1,1.1,2.11,10.34,10.34,0,0,1,.43,3.17,11.08,11.08,0,0,1-.43,3.23,6.88,6.88,0,0,1-1.1,2.29,6.3,6.3,0,0,1-1.64,1.44,7.2,7.2,0,0,1-1.85.81,10,10,0,0,1-2,.27,9.46,9.46,0,0,1-1.95-.09,5.85,5.85,0,0,1-1.86-.63,5.08,5.08,0,0,1-1.62-1.28,6.14,6.14,0,0,1-1.1-2.19A10.66,10.66,0,0,1,109.17,465.88Zm2.69-.07a9.61,9.61,0,0,0,.33,2.75,3.06,3.06,0,0,0,1,1.58,3.43,3.43,0,0,0,1.33.65,6.21,6.21,0,0,0,1.62.12,7.86,7.86,0,0,0,1.33-.17,3.67,3.67,0,0,0,1.14-.48,2.82,2.82,0,0,0,1-.95,5.21,5.21,0,0,0,.62-1.59,9.87,9.87,0,0,0,.25-2.32,9.35,9.35,0,0,0-.34-2.72,2.84,2.84,0,0,0-1-1.54,3.3,3.3,0,0,0-1.33-.61,6.4,6.4,0,0,0-1.64-.09,7.89,7.89,0,0,0-1.3.15,4.36,4.36,0,0,0-1.15.47,2.7,2.7,0,0,0-1,.91,5,5,0,0,0-.61,1.53A9.28,9.28,0,0,0,111.86,465.81Z"/><path class="cls-27" d="M126.32,472.34V457.51q2.87-.28,5.71-.65a5.64,5.64,0,0,1,4.06.67,3.77,3.77,0,0,1,1.44,3.31,5,5,0,0,1-3.26,4.87q1.95,2.57,3.9,5.09c-1.07.17-2.15.34-3.22.49q-1.77-2.35-3.54-4.76l-2.41.29v5.23Zm2.68-8c1-.11,2-.23,3-.36a4.32,4.32,0,0,0,2.13-.77,2.32,2.32,0,0,0,.77-1.94c0-.92-.26-1.49-.77-1.74a4,4,0,0,0-2.13-.19c-1,.13-2,.25-3,.36Z"/><path class="cls-27" d="M138.89,455.85c1.07-.18,2.14-.36,3.21-.56q2,2.67,3.91,5.28,1.94-3.4,3.87-6.85c1.06-.23,2.13-.48,3.19-.73q-2.87,4.92-5.74,9.75v6.37l-2.65.53v-6.36Q141.8,459.61,138.89,455.85Z"/><path class="cls-27" d="M82.83,545.92V531.09q2.52.6,5.07,1.08a8.52,8.52,0,0,1,5.21,2.71,8.67,8.67,0,0,1,1.79,5.76q0,3.63-1.78,5.3c-1.18,1.1-2.93,1.49-5.22,1.06Q85.35,546.52,82.83,545.92Zm2.64-1.8,2.43.48c1.53.28,2.64.06,3.31-.61s1-1.92,1-3.69a6.49,6.49,0,0,0-1-4,5.14,5.14,0,0,0-3.31-1.74l-2.43-.48Z"/><path class="cls-27" d="M98.19,548.37V533.54c.89.07,1.79.13,2.69.18v14.83C100,548.5,99.08,548.44,98.19,548.37Z"/><path class="cls-27" d="M104.08,538a3.69,3.69,0,0,1,1.52-3.23,6.78,6.78,0,0,1,3.8-1.14,9,9,0,0,1,4,.84v2.61a6.78,6.78,0,0,0-3.69-.94,4.84,4.84,0,0,0-2.09.48,1.39,1.39,0,0,0-.86,1.34,1.26,1.26,0,0,0,.78,1.15,8,8,0,0,0,1.89.66c.74.18,1.48.38,2.23.63a3.91,3.91,0,0,1,1.9,1.39,4.29,4.29,0,0,1,.78,2.7,3.79,3.79,0,0,1-1.5,3,5.8,5.8,0,0,1-3.64,1.3,8.86,8.86,0,0,1-4.94-1.22v-2.7a6.77,6.77,0,0,0,4.31,1.42c2.06-.05,3.08-.69,3.08-1.82a1.6,1.6,0,0,0-.55-1.26,3.39,3.39,0,0,0-1.41-.69q-.86-.22-1.83-.54a14.37,14.37,0,0,1-1.82-.71,3.41,3.41,0,0,1-1.42-1.23A3.67,3.67,0,0,1,104.08,538Z"/><path class="cls-27" d="M117.39,548.09V533.25c.89-.09,1.78-.21,2.67-.33v6.28q2.81-3.53,5.59-7.21c1.18-.23,2.37-.49,3.54-.76q-2.94,3.94-5.93,7.71c2.19,2.4,4.38,4.73,6.54,7-1.09.26-2.19.51-3.29.73q-2.48-2.7-5-5.54L120.06,543v4.79C119.17,547.88,118.28,548,117.39,548.09Z"/><path class="cls-6" d="M63.51,629s-4.42,6.69,4.25,8.05c.85.11,7.14.76,8.76,2.82,0,0-.15-3.56-5.25-5.65S64.07,631.65,63.51,629Z"/><path class="cls-6" d="M67.8,614.65s-12.34,7.52-.71,15c2.25,1.45,10.36,5.52,10.12,9.25,0,0,4.92-7.29-2.27-11.86C67.55,622.35,65.7,617.35,67.8,614.65Z"/><path class="cls-6" d="M80.55,622c-5.28-5.54-6.75-9-4.49-13.4,0,0-15.8,6.08-.21,16.86,5.59,3.86,4.66,7.8,4.66,7.95C81.39,632.51,85.84,627.55,80.55,622Z"/><text class="cls-28" transform="translate(92.47 632.37)"><tspan class="cls-29">N</tspan><tspan class="cls-30" x="15.45" y="0">O</tspan><tspan class="cls-31" x="30.92" y="0">D</tspan><tspan x="44.9" y="0">E</tspan></text><path class="cls-5" d="M222.09,437.28c-33.09,0-67.31,7.5-67.31,20.05V616.18a7.46,7.46,0,0,0,1.44,4.33,12.29,12.29,0,0,0,1.63,1.9c8.56,8.27,34.38,13.82,64.24,13.82s55.71-5.55,64.25-13.81A12.07,12.07,0,0,0,288,620.5a7.47,7.47,0,0,0,1.43-4.32V457.33C289.43,444.78,255.19,437.28,222.09,437.28Z"/><path class="cls-6" d="M268.23,440.89c-12.5-3.39-29.31-5.33-46.14-5.33s-33.63,1.94-46.12,5.33c-14.63,4-22.36,9.61-22.36,16.3v53.22a9.13,9.13,0,0,0,1.75,5.3,13.46,13.46,0,0,0,1.85,2.15C166,526.34,192.06,532,222.09,532s56.13-5.7,64.91-14.18a13.53,13.53,0,0,0,1.85-2.15,9.13,9.13,0,0,0,1.75-5.3V457.19C290.6,450.5,282.86,444.86,268.23,440.89Zm15.59,71.28a8.09,8.09,0,0,1-1.07,1.24c-7.49,7.24-33,12.48-60.66,12.48s-53.15-5.25-60.63-12.48a8.09,8.09,0,0,1-1.07-1.24,3.11,3.11,0,0,1-.62-1.76V466.72a34.45,34.45,0,0,0,4.57,2.6l.07,0c.83.39,1.7.78,2.62,1.16l.23.09c.89.36,1.81.72,2.77,1.06l.35.12c.81.28,1.65.56,2.52.82l.79.25c.81.24,1.65.48,2.51.71l1.15.31c.82.22,1.67.42,2.53.62l1.47.34,2.51.53,1.69.33,2,.36,2.32.38,1.9.29,2.48.35,2.16.27,2,.22c1,.11,1.94.21,2.93.3l1.48.14c1.17.1,2.36.19,3.55.27l1.28.09q1.94.12,3.9.21l1,0c1.42.06,2.85.11,4.29.14h.57c1.57,0,3.15.05,4.75.05s3.17,0,4.74-.05h.59c1.44,0,2.86-.08,4.28-.14l1,0c1.31-.06,2.61-.13,3.89-.21l1.28-.09c1.2-.08,2.38-.17,3.55-.27l1.51-.14,2.84-.29,2-.23,2.12-.27,2.53-.35,1.86-.28,2.35-.39,2-.36,1.69-.33,2.52-.53,1.46-.34c.87-.2,1.72-.41,2.55-.62l1.11-.3c.89-.24,1.78-.49,2.63-.75l.64-.2c.91-.28,1.79-.57,2.63-.86l.28-.1c1-.35,1.93-.71,2.84-1.08l.15-.06c.94-.39,1.83-.78,2.68-1.19h0a34.27,34.27,0,0,0,4.6-2.61v43.69A3.14,3.14,0,0,1,283.82,512.17Zm-61.73-70.46c38.63,0,62.35,9,62.35,15.48a3.27,3.27,0,0,1-.63,1.78c-2.71,4-12.37,8.07-26.63,10.72l-.12,0-1.62.29-1.69.28h0a200.81,200.81,0,0,1-26.31,2.31l-.89,0-1.68,0-2.77,0-2.76,0-1.69,0-.89,0a199.86,199.86,0,0,1-26.25-2.31l-.11,0L188.8,470l-1.73-.31h0c-14.26-2.65-23.93-6.73-26.64-10.72a3.26,3.26,0,0,1-.64-1.79C159.77,450.73,183.48,441.71,222.09,441.71Z"/><path class="cls-6" d="M287.71,507.32a2.85,2.85,0,0,0-2.84,2.85,3.51,3.51,0,0,1-.67,1.91c-2.45,3.63-10.26,7.17-21.41,9.73-11.59,2.66-26,4.12-40.7,4.12s-29.09-1.46-40.67-4.12c-11.15-2.55-18.95-6.1-21.4-9.72a3.5,3.5,0,0,1-.68-1.92,2.85,2.85,0,1,0-5.69,0V616.5a8.92,8.92,0,0,0,1.71,5.18,14,14,0,0,0,1.82,2.11c4.38,4.23,12.93,7.81,24.72,10.34A194.87,194.87,0,0,0,222.09,638a195.73,195.73,0,0,0,40.21-3.82c11.8-2.54,20.34-6.11,24.72-10.33a14.33,14.33,0,0,0,1.84-2.14,8.92,8.92,0,0,0,1.7-5.17V510.17A2.86,2.86,0,0,0,287.71,507.32ZM284.87,616.5a3.38,3.38,0,0,1-.67,1.9,8.19,8.19,0,0,1-1.1,1.28h0c-3.62,3.51-11.62,6.7-22.52,9a194.57,194.57,0,0,1-38.47,3.59,194.44,194.44,0,0,1-38.45-3.59c-10.89-2.29-18.89-5.48-22.53-9h0a8.4,8.4,0,0,1-1.08-1.26,3.35,3.35,0,0,1-.68-1.91V519.26c4.67,3.38,12.13,6.25,21.88,8.41a194.57,194.57,0,0,0,40.87,4,194.67,194.67,0,0,0,40.88-4c9.76-2.15,17.23-5,21.9-8.41Z"/><path class="cls-27" d="M176.51,504.76V489.92c1,.24,2,.46,2.93.68q2.12,3.57,4.25,7.11c1.42-1.79,2.84-3.58,4.26-5.4,1,.18,2,.35,3,.51v14.83c-.89-.14-1.77-.29-2.66-.45v-11q-2.28,2.88-4.55,5.7-2.28-3.74-4.54-7.53v11Z"/><path class="cls-27" d="M194.64,508.23V493.39q4.94.72,9.89,1.17V497q-3.61-.33-7.22-.8v3.76c2.09.27,4.17.5,6.26.71v2.52c-2.09-.21-4.17-.44-6.26-.72v3.76q3.6.46,7.22.81v2.4Q199.58,508.93,194.64,508.23Z"/><path class="cls-27" d="M207.59,509.66V494.82l3,.21q2.16,3.24,4.32,6.42,2.16-3,4.31-6.07c1,0,2,0,3,0v14.84l-2.69,0v-11q-2.31,3.24-4.61,6.43-2.31-3.37-4.61-6.8v11Z"/><path class="cls-27" d="M225.45,502.82a10.75,10.75,0,0,1,.43-3.21A6.61,6.61,0,0,1,227,497.4,5.73,5.73,0,0,1,228.6,496a6.92,6.92,0,0,1,1.85-.75,10.81,10.81,0,0,1,2-.25,9.65,9.65,0,0,1,2,.07,6.23,6.23,0,0,1,1.85.57,4.92,4.92,0,0,1,1.63,1.22A5.59,5.59,0,0,1,239,499a10.59,10.59,0,0,1,.43,3.16,11.08,11.08,0,0,1-.43,3.23,6.61,6.61,0,0,1-1.11,2.29,5.91,5.91,0,0,1-1.63,1.44,6.57,6.57,0,0,1-1.85.81,10.76,10.76,0,0,1-2,.28,10.36,10.36,0,0,1-2-.09,6.44,6.44,0,0,1-1.85-.63,5.29,5.29,0,0,1-1.63-1.29,6.25,6.25,0,0,1-1.09-2.18A10.71,10.71,0,0,1,225.45,502.82Zm2.69-.08a9.69,9.69,0,0,0,.33,2.76,3,3,0,0,0,1,1.58,3.77,3.77,0,0,0,1.34.65,6.18,6.18,0,0,0,1.62.11,7.6,7.6,0,0,0,1.32-.17,3.72,3.72,0,0,0,1.15-.48,2.81,2.81,0,0,0,1-.95,5.53,5.53,0,0,0,.62-1.58,10,10,0,0,0,.24-2.33,9.44,9.44,0,0,0-.33-2.72,2.88,2.88,0,0,0-1-1.54,3.42,3.42,0,0,0-1.34-.61,6.76,6.76,0,0,0-1.63-.09,8.87,8.87,0,0,0-1.3.16A3.9,3.9,0,0,0,230,498a2.89,2.89,0,0,0-1,.91,5.23,5.23,0,0,0-.62,1.54A9.67,9.67,0,0,0,228.14,502.74Z"/><path class="cls-27" d="M242.6,509.27V494.44q2.86-.29,5.71-.65a5.61,5.61,0,0,1,4.05.67,3.79,3.79,0,0,1,1.45,3.32,5,5,0,0,1-3.26,4.86l3.89,5.1-3.21.49-3.55-4.76-2.4.29V509C244.39,509.09,243.5,509.19,242.6,509.27Zm2.68-8c1-.11,2-.23,3-.36a4.3,4.3,0,0,0,2.13-.77,2.3,2.3,0,0,0,.77-1.94c0-.91-.26-1.49-.77-1.73a3.81,3.81,0,0,0-2.13-.19l-3,.36Z"/><path class="cls-27" d="M255.17,492.78c1.07-.17,2.14-.36,3.21-.55l3.91,5.28q1.93-3.4,3.87-6.85c1.06-.24,2.12-.48,3.18-.74q-2.85,4.92-5.73,9.76V506c-.88.19-1.76.36-2.65.54v-6.37Q258.06,496.55,255.17,492.78Z"/><path class="cls-27" d="M199.11,582.86V568q2.52.62,5.07,1.08a8.56,8.56,0,0,1,5.21,2.72,8.67,8.67,0,0,1,1.79,5.76c0,2.42-.6,4.19-1.78,5.3s-2.93,1.48-5.22,1Q201.63,583.47,199.11,582.86Zm2.64-1.81c.81.17,1.61.33,2.42.48,1.54.29,2.64.07,3.32-.61s1-1.91,1-3.68a6.55,6.55,0,0,0-1-4,5.2,5.2,0,0,0-3.32-1.73c-.81-.15-1.61-.31-2.42-.48Z"/><path class="cls-27" d="M214.47,585.31V570.47c.89.07,1.79.14,2.68.18v14.84C216.26,585.44,215.36,585.38,214.47,585.31Z"/><path class="cls-27" d="M220.36,575a3.7,3.7,0,0,1,1.51-3.23,6.76,6.76,0,0,1,3.81-1.14,9,9,0,0,1,4,.83V574a6.69,6.69,0,0,0-3.69-.94,5,5,0,0,0-2.1.47,1.41,1.41,0,0,0-.85,1.35,1.28,1.28,0,0,0,.78,1.15,8,8,0,0,0,1.89.66c.74.17,1.48.38,2.23.63a4,4,0,0,1,1.9,1.38,4.34,4.34,0,0,1,.78,2.71,3.79,3.79,0,0,1-1.5,3,5.81,5.81,0,0,1-3.65,1.3,8.75,8.75,0,0,1-4.93-1.23v-2.69a6.71,6.71,0,0,0,4.31,1.41c2,0,3.08-.68,3.08-1.82a1.55,1.55,0,0,0-.56-1.25,3.25,3.25,0,0,0-1.4-.7c-.57-.14-1.18-.32-1.83-.53a17,17,0,0,1-1.83-.71,3.4,3.4,0,0,1-1.41-1.23A3.7,3.7,0,0,1,220.36,575Z"/><path class="cls-27" d="M233.67,585V570.19l2.67-.33v6.27c1.87-2.34,3.73-4.75,5.58-7.2,1.19-.23,2.37-.49,3.55-.76q-3,3.95-5.93,7.71,3.28,3.6,6.54,7c-1.09.26-2.19.5-3.29.73-1.65-1.81-3.3-3.65-5-5.54l-1.49,1.84v4.8Z"/><path class="cls-6" d="M179.78,666s-4.41,6.68,4.26,8c.85.11,7.13.76,8.76,2.82,0,0-.15-3.55-5.26-5.64S180.35,668.58,179.78,666Z"/><path class="cls-6" d="M184.08,651.58s-12.35,7.53-.71,15c2.24,1.45,10.36,5.51,10.12,9.24,0,0,4.91-7.29-2.27-11.85C183.83,659.29,182,654.29,184.08,651.58Z"/><path class="cls-6" d="M196.83,659c-5.29-5.55-6.76-9-4.5-13.41,0,0-15.8,6.08-.2,16.87,5.59,3.86,4.65,7.8,4.66,7.94C197.67,669.44,202.12,664.49,196.83,659Z"/><text class="cls-28" transform="translate(208.74 669.31)"><tspan class="cls-29">N</tspan><tspan class="cls-30" x="15.45" y="0">O</tspan><tspan class="cls-31" x="30.92" y="0">D</tspan><tspan x="44.9" y="0">E</tspan></text></g></g></svg>