<svg xmlns="http://www.w3.org/2000/svg" viewBox="0 0 884.05 774.11"><defs><style>.cls-1{isolation:isolate;}.cls-2{fill:#777;}.cls-3,.cls-8{fill:#efeeed;}.cls-3{mix-blend-mode:multiply;}.cls-4{fill:#020202;}.cls-10,.cls-5{fill:#1d1d1b;}.cls-6{fill:#fff;}.cls-7{fill:#010101;}.cls-9{fill:#e5282a;}.cls-10{font-size:18.67px;font-family:MavenProMedium, Maven Pro;letter-spacing:0em;}.cls-11{letter-spacing:-0.01em;}.cls-12{letter-spacing:-0.01em;}.cls-13{letter-spacing:0em;}</style></defs><g class="cls-1"><g id="Capa_1" data-name="Capa 1"><path class="cls-2" d="M502.69,317.08v57.17a4,4,0,0,1-7.93,0V317.08a4,4,0,1,1,7.93,0Z"/><path class="cls-2" d="M430.83,370.28h67.43a4,4,0,0,1,0,7.93H430.83a4,4,0,0,1,0-7.93Z"/><path class="cls-2" d="M517.23,332a4,4,0,0,0-1-2.58l-14.54-17a4,4,0,0,0-6,0l-14.54,17a4,4,0,1,0,6,5.16l11.53-13.49,11.53,13.49a4,4,0,0,0,7-2.58Z"/><path class="cls-2" d="M434.8,374.25v41.68a4,4,0,1,1-7.93,0V374.25a4,4,0,1,1,7.93,0Z"/><path class="cls-2" d="M393.21,459.37l40.42-40.43a4,4,0,0,0-5.6-5.6L387.6,453.76a4,4,0,1,0,5.61,5.61Z"/><path class="cls-2" d="M414,459.12a4,4,0,0,1-2.5,1.15L389.22,462a4,4,0,0,1-4.26-4.26l1.74-22.31a4,4,0,0,1,7.91.61l-1.38,17.69,17.69-1.38a4,4,0,0,1,3.11,6.76Z"/><path class="cls-2" d="M188,317.08v57.17a4,4,0,0,0,7.93,0V317.08a4,4,0,1,0-7.93,0Z"/><path class="cls-2" d="M259.87,370.28H192.44a4,4,0,1,0,0,7.93h67.43a4,4,0,0,0,0-7.93Z"/><path class="cls-2" d="M173.47,332a4,4,0,0,1,.95-2.58l14.54-17a4,4,0,0,1,6,0l14.54,17a4,4,0,0,1-6,5.16L192,321.07l-11.53,13.49a4,4,0,0,1-7-2.58Z"/><path class="cls-2" d="M255.9,374.25v41.68a4,4,0,1,0,7.93,0V374.25a4,4,0,1,0-7.93,0Z"/><path class="cls-2" d="M297.49,459.37l-40.43-40.43a4,4,0,0,1,5.61-5.6l40.43,40.42a4,4,0,0,1-5.61,5.61Z"/><path class="cls-2" d="M276.67,459.12a4,4,0,0,0,2.5,1.15L301.48,462a4,4,0,0,0,4.26-4.26L304,435.44a4,4,0,1,0-7.9.61l1.38,17.69-17.69-1.38a4,4,0,0,0-3.11,6.76Z"/><rect class="cls-3" x="31.62" y="107.36" width="627.45" height="219.36" rx="9.73"/><rect class="cls-4" x="132.06" y="134.81" width="502.71" height="168.67"/><path class="cls-2" d="M69.71,201.42a24.85,24.85,0,0,0,32.73-7.62,1.92,1.92,0,0,0-.65-2.74h0a1.91,1.91,0,0,0-2.51.59,21,21,0,1,1-10-31.45l-6.23,4.19a1.91,1.91,0,0,0-.51,2.65h0a1.9,1.9,0,0,0,2.65.52l9-6.08a1.86,1.86,0,0,0,.6-.65,1.9,1.9,0,0,0,.11-1.65l-3.84-9.57a1.91,1.91,0,0,0-2.48-1.06h0A1.91,1.91,0,0,0,87.6,151l2.1,5.24a24.81,24.81,0,0,0-20,45.15Z"/><path class="cls-5" d="M76.59,176.25v-2.67l3-1.7h2.77v18.3H79.79V174.37Z"/><path class="cls-6" d="M171.65,178.78c0-5.27,4-8.28,8.76-8.28a8,8,0,0,1,5.73,2.3l-1.33,1.71a6.47,6.47,0,0,0-4.3-1.78,5.77,5.77,0,0,0-6.11,6.05,5.7,5.7,0,0,0,6,6,7.46,7.46,0,0,0,4.85-2l1.2,1.75a9.34,9.34,0,0,1-6.24,2.45C175.34,187,171.65,184,171.65,178.78Z"/><path class="cls-6" d="M191,180.66v-9.77h2.69v9.41c0,2.94,1,4.37,3.62,4.37,1.81,0,3.13-.85,4.88-2.88v-10.9h2.68v15.72h-2.23l-.22-2.75h-.13c-1.59,1.84-3.43,3.13-5.86,3.13C192.67,187,191,184.79,191,180.66Z"/><path class="cls-6" d="M210.16,184.54l1.23-1.78a11.22,11.22,0,0,0,6.82,2.13c2.65,0,3.94-1.1,3.94-2.42s-.61-2-4.88-2.91c-4.11-.84-6.14-2.24-6.14-4.6,0-2.52,2.23-4.46,6.53-4.46a11.81,11.81,0,0,1,6.34,2l-1.3,1.71a9.26,9.26,0,0,0-5.27-1.65c-2.65,0-3.62,1.07-3.62,2.27s1.36,1.94,4.59,2.61c5.21,1.14,6.47,2.43,6.47,4.86s-2.49,4.68-7,4.68A13.81,13.81,0,0,1,210.16,184.54Z"/><path class="cls-6" d="M233.92,180.49v-7.43h-4.46v-2l4.56-.16.35-5h2.24v5h7.69v2.17h-7.69v7.47c0,2.81.93,4.26,4,4.26a10.31,10.31,0,0,0,3.75-.71l.59,2A14,14,0,0,1,240,187C235.41,187,233.92,184.37,233.92,180.49Z"/><path class="cls-6" d="M248.6,178.78c0-5.27,3.62-8.28,7.76-8.28s7.76,3,7.76,8.28S260.5,187,256.36,187,248.6,184,248.6,178.78Zm12.77,0c0-3.62-2-6.05-5-6.05s-5,2.43-5,6.05,2,6,5,6S261.37,182.37,261.37,178.78Z"/><path class="cls-6" d="M267.94,170.89h2.13l.23,2.07h.06c.81-1.46,1.78-2.46,3.59-2.46,1.55,0,2.52.91,3,2.72.91-1.68,1.88-2.72,3.69-2.72,2.2,0,3.49,1.72,3.49,4.85v11.26h-2.65V175.55c0-1.81-.52-2.75-1.68-2.75s-1.68.81-2.52,2.42v11.39h-2.46V175.55c0-1.81-.45-2.75-1.62-2.75s-1.81.81-2.58,2.42v11.39h-2.65Z"/><path class="cls-6" d="M293.8,167.69h-7v-2.3h16.75v2.3h-7v18.92H293.8Z"/><path class="cls-6" d="M307.44,182.53c0-3.52,3.3-5.24,11.42-5.88-.1-2.14-1.13-4-4.17-4a10.89,10.89,0,0,0-5.5,1.88l-1.07-1.81a13.74,13.74,0,0,1,7-2.27c4.3,0,6.4,2.56,6.4,6.47v9.64h-2.23l-.23-2.14H319a10.58,10.58,0,0,1-6.18,2.52C309.87,187,307.44,185.34,307.44,182.53Zm11.42,0v-4.08c-6.73.52-8.77,1.85-8.77,3.92,0,1.78,1.62,2.49,3.43,2.49A8.56,8.56,0,0,0,318.86,182.5Z"/><path class="cls-6" d="M326.55,184.54l1.23-1.78a11.24,11.24,0,0,0,6.82,2.13c2.66,0,3.95-1.1,3.95-2.42s-.62-2-4.88-2.91-6.15-2.24-6.15-4.6c0-2.52,2.23-4.46,6.53-4.46a11.75,11.75,0,0,1,6.34,2l-1.29,1.71a9.31,9.31,0,0,0-5.27-1.65c-2.65,0-3.62,1.07-3.62,2.27s1.35,1.94,4.59,2.61c5.2,1.14,6.46,2.43,6.46,4.86s-2.48,4.68-7,4.68A13.87,13.87,0,0,1,326.55,184.54Z"/><path class="cls-6" d="M347.05,163.58h2.68v15.56h.13l8.44-8.25h3.07l-11.64,11.45v4.27h-2.68Zm6.05,14.68,1.61-1.74,7.51,10.09h-3Z"/><path class="cls-6" d="M370.14,184.24a2.62,2.62,0,1,1,2.62,2.75A2.61,2.61,0,0,1,370.14,184.24Z"/><path class="cls-6" d="M387.14,170.89h2.23l.26,3.72h.07a8.27,8.27,0,0,1,7-4.11,6.56,6.56,0,0,1,3.11.65l-.62,2.3a7.79,7.79,0,0,0-2.91-.52c-2.36,0-4.59,1.19-6.46,4.49v9.19h-2.69Z"/><path class="cls-6" d="M404.34,180.66v-9.77H407v9.41c0,2.94,1,4.37,3.62,4.37,1.81,0,3.14-.85,4.88-2.88v-10.9h2.69v15.72H416l-.22-2.75h-.13C414,185.7,412.2,187,409.78,187,406.06,187,404.34,184.79,404.34,180.66Z"/><path class="cls-6" d="M424.26,170.89h2.2l.22,2.65h.13c1.65-1.71,3.46-3,5.92-3,3.72,0,5.43,2.2,5.43,6.34v9.77h-2.68V177.2c0-3-1-4.37-3.59-4.37-1.88,0-3.14.94-4.95,2.81v11h-2.68Z"/><path class="cls-6" d="M447.38,177.62a18,18,0,0,1,7.24-14.68l1.49,1.35a17.17,17.17,0,0,0,0,26.65l-1.49,1.36A18,18,0,0,1,447.38,177.62Z"/><path class="cls-6" d="M467.13,184.24a2.62,2.62,0,1,1,2.62,2.75A2.62,2.62,0,0,1,467.13,184.24Z"/><path class="cls-6" d="M486.53,184.24a2.62,2.62,0,1,1,2.62,2.75A2.62,2.62,0,0,1,486.53,184.24Z"/><path class="cls-6" d="M505.93,184.24a2.62,2.62,0,1,1,2.62,2.75A2.61,2.61,0,0,1,505.93,184.24Z"/><path class="cls-6" d="M522.19,190.94a17.17,17.17,0,0,0,0-26.65l1.49-1.35a18.5,18.5,0,0,1,0,29.36Z"/><path class="cls-2" d="M69.71,285.61A24.86,24.86,0,0,0,102.44,278a1.91,1.91,0,0,0-.65-2.73h0a1.9,1.9,0,0,0-2.51.59,21,21,0,1,1-10-31.45l-6.23,4.19a1.9,1.9,0,0,0-.51,2.64h0a1.91,1.91,0,0,0,2.65.51l9-6.08a1.83,1.83,0,0,0,.6-.64,1.91,1.91,0,0,0,.11-1.65l-3.84-9.57a1.91,1.91,0,0,0-2.48-1.07h0a1.92,1.92,0,0,0-1.06,2.49l2.1,5.23a24.81,24.81,0,0,0-20,45.16Z"/><path class="cls-5" d="M76.07,273.53V271a8.88,8.88,0,0,0,4.48,1.24q4.53,0,4.53-3.23t-4.8-3.22H78.69v-2.25h1.54q3.94,0,4-2.67c0-1.79-1.31-2.68-3.91-2.68h0a7.62,7.62,0,0,0-3.73.93v-2.44a9.24,9.24,0,0,1,4-.87h.06a6.46,6.46,0,0,1,4.7,1.48,4.81,4.81,0,0,1,1.51,3.58,4,4,0,0,1-2.18,3.66A4.62,4.62,0,0,1,87.64,269a5.52,5.52,0,0,1-.37,2,5.58,5.58,0,0,1-1.16,1.77,5.44,5.44,0,0,1-2.16,1.3,10,10,0,0,1-3.19.47A11.22,11.22,0,0,1,76.07,273.53Z"/><path class="cls-6" d="M171.65,261.71c0-5.27,4-8.28,8.76-8.28a8,8,0,0,1,5.73,2.3l-1.33,1.71a6.47,6.47,0,0,0-4.3-1.78,5.77,5.77,0,0,0-6.11,6,5.7,5.7,0,0,0,6,6,7.46,7.46,0,0,0,4.85-2l1.2,1.74a9.31,9.31,0,0,1-6.24,2.46C175.34,269.92,171.65,266.91,171.65,261.71Z"/><path class="cls-6" d="M191,263.58v-9.76h2.68v9.41c0,2.94,1,4.36,3.63,4.36,1.81,0,3.13-.84,4.88-2.88V253.82h2.68v15.71h-2.23l-.22-2.75h-.13c-1.59,1.85-3.43,3.14-5.86,3.14C192.67,269.92,191,267.72,191,263.58Z"/><path class="cls-6" d="M210.16,267.46l1.23-1.78a11.16,11.16,0,0,0,6.82,2.14c2.65,0,3.94-1.1,3.94-2.43s-.61-2-4.88-2.91c-4.11-.84-6.14-2.23-6.14-4.59,0-2.52,2.23-4.46,6.53-4.46a11.89,11.89,0,0,1,6.34,2l-1.3,1.72a9.26,9.26,0,0,0-5.27-1.65c-2.65,0-3.62,1.07-3.62,2.26,0,1.36,1.36,1.94,4.59,2.62,5.21,1.13,6.47,2.43,6.47,4.85s-2.49,4.69-7,4.69A13.74,13.74,0,0,1,210.16,267.46Z"/><path class="cls-6" d="M233.92,263.42V256h-4.46v-2l4.56-.16.35-5h2.23v5h7.7V256h-7.7v7.47c0,2.82.94,4.27,4,4.27a10.31,10.31,0,0,0,3.75-.71l.58,2a13.62,13.62,0,0,1-4.91.94C235.41,269.92,233.92,267.3,233.92,263.42Z"/><path class="cls-6" d="M248.6,261.71c0-5.27,3.62-8.28,7.76-8.28s7.76,3,7.76,8.28-3.62,8.21-7.76,8.21S248.6,266.91,248.6,261.71Zm12.77,0c0-3.62-2-6-5-6s-5,2.43-5,6,2,6,5,6S261.37,265.3,261.37,261.71Z"/><path class="cls-6" d="M267.93,253.82h2.14l.22,2.07h.07c.81-1.46,1.78-2.46,3.59-2.46,1.55,0,2.52.9,3,2.72.91-1.69,1.88-2.72,3.69-2.72,2.2,0,3.49,1.71,3.49,4.85v11.25h-2.65V258.47c0-1.81-.52-2.74-1.68-2.74s-1.68.8-2.52,2.42v11.38h-2.46V258.47c0-1.81-.45-2.74-1.62-2.74s-1.81.8-2.58,2.42v11.38h-2.66Z"/><path class="cls-6" d="M293.8,250.62h-7v-2.3h16.75v2.3h-7v18.91H293.8Z"/><path class="cls-6" d="M307.44,265.46c0-3.53,3.3-5.24,11.42-5.89-.1-2.13-1.13-3.94-4.17-3.94a11,11,0,0,0-5.5,1.87l-1.07-1.81a13.83,13.83,0,0,1,7-2.26c4.3,0,6.4,2.55,6.4,6.47v9.63h-2.23l-.23-2.13H319a10.58,10.58,0,0,1-6.18,2.52C309.87,269.92,307.44,268.27,307.44,265.46Zm11.42,0v-4.08c-6.73.52-8.77,1.84-8.77,3.91,0,1.78,1.62,2.49,3.43,2.49A8.6,8.6,0,0,0,318.86,265.43Z"/><path class="cls-6" d="M326.55,267.46l1.23-1.78a11.18,11.18,0,0,0,6.82,2.14c2.65,0,3.95-1.1,3.95-2.43s-.62-2-4.88-2.91-6.15-2.23-6.15-4.59c0-2.52,2.23-4.46,6.53-4.46a11.83,11.83,0,0,1,6.34,2l-1.29,1.72a9.31,9.31,0,0,0-5.27-1.65c-2.65,0-3.62,1.07-3.62,2.26,0,1.36,1.35,1.94,4.59,2.62,5.2,1.13,6.46,2.43,6.46,4.85s-2.49,4.69-7,4.69A13.8,13.8,0,0,1,326.55,267.46Z"/><path class="cls-6" d="M347.05,246.51h2.68v15.55h.13l8.44-8.24h3.07l-11.64,11.44v4.27h-2.68Zm6.05,14.68,1.61-1.75,7.51,10.09h-3Z"/><path class="cls-6" d="M370.14,267.17a2.62,2.62,0,1,1,2.61,2.75A2.62,2.62,0,0,1,370.14,267.17Z"/><path class="cls-6" d="M387.14,253.82h2.23l.26,3.72h.07a8.27,8.27,0,0,1,7-4.11,6.56,6.56,0,0,1,3.11.65l-.62,2.29a8,8,0,0,0-2.91-.52c-2.36,0-4.59,1.2-6.46,4.5v9.18h-2.69Z"/><path class="cls-6" d="M404.05,261.64a7.9,7.9,0,0,1,8-8.21c4.53,0,7.18,2.94,7.18,7.37a11.54,11.54,0,0,1-.13,1.62H405.83v-2.07h11.71l-.68.74c0-3.72-1.85-5.56-4.72-5.56s-5.44,2.2-5.44,6.11c0,4.08,2.65,6.15,6.15,6.15a8.6,8.6,0,0,0,4.78-1.49l1,1.75a10.78,10.78,0,0,1-6.08,1.87C407.8,269.92,404.05,266.88,404.05,261.64Z"/><path class="cls-6" d="M423.19,261.71c0-5.11,3.4-8.28,7.12-8.28a6.75,6.75,0,0,1,4.72,2h.06l-.13-2.87v-6.05h2.69v23h-2.2l-.23-2.07h-.1a7.53,7.53,0,0,1-5.14,2.46C425.91,269.92,423.19,267,423.19,261.71ZM435,265.33V257.5a5.85,5.85,0,0,0-4.1-1.81c-2.72,0-4.92,2.4-4.92,6,0,3.75,1.75,6,4.62,6A5.93,5.93,0,0,0,435,265.33Z"/><path class="cls-6" d="M443.14,263.58v-9.76h2.68v9.41c0,2.94,1,4.36,3.63,4.36,1.81,0,3.13-.84,4.88-2.88V253.82H457v15.71h-2.23l-.22-2.75h-.13c-1.59,1.85-3.43,3.14-5.86,3.14C444.85,269.92,443.14,267.72,443.14,263.58Z"/><path class="cls-6" d="M462.64,261.71c0-5.27,4-8.28,8.76-8.28a7.94,7.94,0,0,1,5.72,2.3l-1.32,1.71a6.49,6.49,0,0,0-4.3-1.78,5.77,5.77,0,0,0-6.11,6,5.7,5.7,0,0,0,6,6,7.46,7.46,0,0,0,4.85-2l1.2,1.74a9.32,9.32,0,0,1-6.24,2.46C466.32,269.92,462.64,266.91,462.64,261.71Z"/><path class="cls-6" d="M481.65,261.64a7.89,7.89,0,0,1,8-8.21c4.52,0,7.18,2.94,7.18,7.37a11.54,11.54,0,0,1-.13,1.62H483.43v-2.07h11.7l-.68.74c0-3.72-1.84-5.56-4.72-5.56s-5.43,2.2-5.43,6.11c0,4.08,2.65,6.15,6.14,6.15a8.6,8.6,0,0,0,4.79-1.49l1,1.75a10.81,10.81,0,0,1-6.08,1.87C485.4,269.92,481.65,266.88,481.65,261.64Z"/><path class="cls-6" d="M505.57,260.54a18,18,0,0,1,7.25-14.68l1.48,1.36a17.19,17.19,0,0,0,0,26.65l-1.48,1.35A18,18,0,0,1,505.57,260.54Z"/><path class="cls-6" d="M525.33,267.17a2.62,2.62,0,1,1,2.62,2.75A2.62,2.62,0,0,1,525.33,267.17Z"/><path class="cls-6" d="M544.73,267.17a2.62,2.62,0,1,1,2.62,2.75A2.62,2.62,0,0,1,544.73,267.17Z"/><path class="cls-6" d="M564.13,267.17a2.62,2.62,0,1,1,2.62,2.75A2.62,2.62,0,0,1,564.13,267.17Z"/><path class="cls-6" d="M580.39,273.87a17.17,17.17,0,0,0,0-26.65l1.49-1.36a18.5,18.5,0,0,1,0,29.36Z"/><path class="cls-5" d="M575.65,537.52v-3.14l3.52-2h3.27v21.57h-3V535.31Z"/><path class="cls-5" d="M591,553.94v-2.81h3v2.81Z"/><path class="cls-5" d="M611.88,553.94V532.37h3.27l7.06,9.32,7.11-9.32h3.27v21.57h-3v-17l-7.37,9.66-7.32-9.66v17Z"/><path class="cls-5" d="M637,548.84a4.25,4.25,0,0,1,2-3.74,10,10,0,0,1,5.58-1.34,23.29,23.29,0,0,1,2.93.18,3.94,3.94,0,0,0-1.11-2.92,5,5,0,0,0-3.33-.88,14.09,14.09,0,0,0-4.47.8v-2.52a13.58,13.58,0,0,1,4.88-.87,7.29,7.29,0,0,1,5.21,1.74,6.63,6.63,0,0,1,1.83,5V549a5.16,5.16,0,0,1-.1,1,6,6,0,0,1-.49,1.32,4.64,4.64,0,0,1-1,1.4,5.62,5.62,0,0,1-2,1,11.14,11.14,0,0,1-6.2,0,5.81,5.81,0,0,1-2-1,4.61,4.61,0,0,1-1.09-1.43,5.66,5.66,0,0,1-.5-1.36A6.41,6.41,0,0,1,637,548.84Zm2.95,0q0,2.73,3.88,2.73h.05c2.43,0,3.65-.88,3.65-2.62v-2.61a19.82,19.82,0,0,0-2.8-.2,8.07,8.07,0,0,0-1.36.12,11.87,11.87,0,0,0-1.53.36,3,3,0,0,0-1.35.84A1.93,1.93,0,0,0,639.9,548.81Z"/><path class="cls-5" d="M654.52,560.08V542.75a5.16,5.16,0,0,1,.1-1,5,5,0,0,1,.48-1.3,4.3,4.3,0,0,1,1-1.39,5.51,5.51,0,0,1,2-1,10.23,10.23,0,0,1,3.08-.43,9.37,9.37,0,0,1,1.76.16,6.26,6.26,0,0,1,1.87.71,6,6,0,0,1,1.76,1.44,7.16,7.16,0,0,1,1.24,2.48,12.55,12.55,0,0,1,.5,3.7,11.33,11.33,0,0,1-.66,4.1,5.38,5.38,0,0,1-1.81,2.52,7.81,7.81,0,0,1-2.34,1.18,9.38,9.38,0,0,1-2.62.35,12.59,12.59,0,0,1-3.44-.47v6.36Zm3-9.19a9.54,9.54,0,0,0,3.44.65,6.48,6.48,0,0,0,1.7-.19,3.85,3.85,0,0,0,1.38-.73,3.39,3.39,0,0,0,1-1.68,10.21,10.21,0,0,0,.35-2.9,11.75,11.75,0,0,0-.35-3.11,3.68,3.68,0,0,0-1-1.81,3.71,3.71,0,0,0-1.32-.77,4.76,4.76,0,0,0-1.48-.21c-2.49,0-3.74.8-3.74,2.42Z"/><path class="cls-5" d="M684,553.94V532.37h7.78a8,8,0,0,1,5.57,1.78,7.33,7.33,0,0,1,0,10,8,8,0,0,1-5.57,1.78H687v8Zm3-10.64h4.49c1.91,0,3.19-.37,3.84-1.12a4.36,4.36,0,0,0,1-3,4.42,4.42,0,0,0-1-3c-.64-.74-1.93-1.11-3.85-1.11H687Z"/><path class="cls-5" d="M703.16,553.94V531.63h3v6.72a11.9,11.9,0,0,1,4.28-.8,6.09,6.09,0,0,1,4.68,1.79,7.21,7.21,0,0,1,1.67,5.09v9.51h-3v-9.62c0-1.59-.33-2.64-1-3.17a4.09,4.09,0,0,0-2.62-.79,11,11,0,0,0-4,.78v12.8Z"/><path class="cls-5" d="M720.36,548.84a4.25,4.25,0,0,1,2-3.74,9.93,9.93,0,0,1,5.57-1.34,23.45,23.45,0,0,1,2.94.18,4,4,0,0,0-1.12-2.92,5,5,0,0,0-3.33-.88,14.09,14.09,0,0,0-4.47.8v-2.52a13.66,13.66,0,0,1,4.88-.87,7.27,7.27,0,0,1,5.21,1.74,6.59,6.59,0,0,1,1.84,5V549a5.16,5.16,0,0,1-.1,1,6.57,6.57,0,0,1-.49,1.32,4.51,4.51,0,0,1-1.06,1.4,5.56,5.56,0,0,1-2,1,11.18,11.18,0,0,1-6.21,0,5.9,5.9,0,0,1-2-1,4.74,4.74,0,0,1-1.08-1.43,5.26,5.26,0,0,1-.5-1.36A6.41,6.41,0,0,1,720.36,548.84Zm2.95,0q0,2.73,3.87,2.73h.05c2.44,0,3.66-.88,3.66-2.62v-2.61a20,20,0,0,0-2.81-.2,8.05,8.05,0,0,0-1.35.12,11.15,11.15,0,0,0-1.53.36,3,3,0,0,0-1.36.84A2,2,0,0,0,723.31,548.81Z"/><path class="cls-5" d="M737.25,542.36a4.58,4.58,0,0,1,1.43-3.41,6,6,0,0,1,4.36-1.4,9.56,9.56,0,0,1,4.32,1.06v2.55a9.55,9.55,0,0,0-4-1c-2.13,0-3.2.69-3.2,2.07a1.3,1.3,0,0,0,.85,1.12,10.85,10.85,0,0,0,2.05.79,23.64,23.64,0,0,1,2.41.82,4.75,4.75,0,0,1,2.06,1.61,4.79,4.79,0,0,1-.61,6.17,6.34,6.34,0,0,1-4.53,1.41,9.59,9.59,0,0,1-4.66-1.13v-2.7a9.05,9.05,0,0,0,4.47,1.18h.06a4.18,4.18,0,0,0,2.36-.56,1.68,1.68,0,0,0,.81-1.43,1.86,1.86,0,0,0-.84-1.59,6.53,6.53,0,0,0-2.06-1c-.81-.22-1.62-.48-2.43-.75a4.72,4.72,0,0,1-2-1.39A3.68,3.68,0,0,1,737.25,542.36Z"/><path class="cls-5" d="M751.53,546.06q0-8.5,7.12-8.51h0a6.68,6.68,0,0,1,5.17,2.12,8,8,0,0,1,1.93,5.66c0,.77,0,1.51-.09,2.21H754.55c.36,2.77,1.87,4.16,4.55,4.16a11.81,11.81,0,0,0,5.57-1.22v2.69a14.39,14.39,0,0,1-5.64,1.05h-.09a9.43,9.43,0,0,1-2.62-.35,7.81,7.81,0,0,1-2.34-1.18,5.49,5.49,0,0,1-1.79-2.52A11.43,11.43,0,0,1,751.53,546.06Zm3-1.17h8.29a7,7,0,0,0-.28-1.54,6.76,6.76,0,0,0-.64-1.49,3.2,3.2,0,0,0-1.26-1.21,4,4,0,0,0-2-.45,3.87,3.87,0,0,0-3,1A6.25,6.25,0,0,0,754.5,544.89Z"/><path class="cls-5" d="M574.8,617.73v-2.25c1.16-.89,2.29-1.83,3.37-2.81s2.19-2.09,3.33-3.32a18.28,18.28,0,0,0,2.71-3.72,7.33,7.33,0,0,0,1-3.42c0-2.32-1.59-3.49-4.78-3.49a9.22,9.22,0,0,0-5.31,1.63v-2.87a11.08,11.08,0,0,1,5.7-1.57c2.51,0,4.36.62,5.55,1.84a6.11,6.11,0,0,1,1.79,4.43q0,5.52-8.19,12.74h8.41v2.81Z"/><path class="cls-5" d="M595.18,617.73v-2.81h3v2.81Z"/><path class="cls-5" d="M616.05,617.73V596.16h14.06V599H619.06v6.57h9.73v2.81h-9.73v6.57h11.05v2.81Z"/><path class="cls-5" d="M632.62,617.73l5.83-8.05-5.68-8.09h3.61l3.82,5.4,3.81-5.4h3.63l-5.7,7.87,5.82,8.27h-3.63l-3.93-5.59-3.94,5.59Z"/><path class="cls-5" d="M650.31,609.85q0-8.51,7.12-8.51h0a6.68,6.68,0,0,1,5.17,2.12,8,8,0,0,1,1.93,5.66q0,1.15-.09,2.22H653.32c.36,2.76,1.87,4.15,4.55,4.15a11.81,11.81,0,0,0,5.57-1.22V617a14.39,14.39,0,0,1-5.64,1h-.09a9.43,9.43,0,0,1-2.62-.35,7.81,7.81,0,0,1-2.34-1.18A5.49,5.49,0,0,1,651,614,11.4,11.4,0,0,1,650.31,609.85Zm3-1.17h8.29a7.75,7.75,0,0,0-.27-1.54,7.33,7.33,0,0,0-.65-1.49,3.2,3.2,0,0,0-1.26-1.21,4,4,0,0,0-2-.45,3.88,3.88,0,0,0-3,1A6.25,6.25,0,0,0,653.27,608.68Z"/><path class="cls-5" d="M669.68,615.85a11,11,0,0,1,0-12.37,7.13,7.13,0,0,1,5.6-2.14,12.85,12.85,0,0,1,4.75.9v2.81A10.18,10.18,0,0,0,675.6,604h-.07a5,5,0,0,0-3.48,1.15c-.85.77-1.27,2.27-1.27,4.52a10.35,10.35,0,0,0,.37,3,3.45,3.45,0,0,0,1.11,1.75,4.1,4.1,0,0,0,1.48.76,7.22,7.22,0,0,0,1.79.19,10.35,10.35,0,0,0,4.5-1v2.79a12.84,12.84,0,0,1-4.75.89A7.16,7.16,0,0,1,669.68,615.85Z"/><path class="cls-5" d="M683.63,610.94v-9.35h3v9.58a4.72,4.72,0,0,0,.93,3.23,3.83,3.83,0,0,0,2.94,1,3.78,3.78,0,0,0,2.92-1,4.71,4.71,0,0,0,.93-3.24v-9.58h3v9.35a7.23,7.23,0,0,1-1.79,5.22,7.74,7.74,0,0,1-10,0A7.2,7.2,0,0,1,683.63,610.94Z"/><path class="cls-5" d="M700.43,604.12v-2.53h2.81v-4.78h3v4.78h4.3v2.53h-4.3v9.33c0,1.25.8,1.88,2.39,1.88h0a3.59,3.59,0,0,0,1.88-.47v2.67a5.86,5.86,0,0,1-2.21.45h-.08a6.3,6.3,0,0,1-1.25-.14,7.87,7.87,0,0,1-1.59-.56,3.41,3.41,0,0,1-1.52-1.45,5,5,0,0,1-.6-2.56v-9.15Z"/><path class="cls-5" d="M714.39,599.1V596h3.14v3.13Zm.09,18.63V601.59h2.95v16.14Z"/><path class="cls-5" d="M722.38,613.84a13.1,13.1,0,0,1,0-8.33,5.65,5.65,0,0,1,1.85-2.57,7.91,7.91,0,0,1,2.41-1.21,9.44,9.44,0,0,1,2.68-.36,9.56,9.56,0,0,1,2.69.36,7.75,7.75,0,0,1,2.4,1.21,5.74,5.74,0,0,1,1.86,2.57,13.1,13.1,0,0,1,0,8.33,5.63,5.63,0,0,1-1.86,2.57,7.79,7.79,0,0,1-2.4,1.22,10,10,0,0,1-2.69.35,9.82,9.82,0,0,1-2.68-.35,8,8,0,0,1-2.41-1.22A5.55,5.55,0,0,1,722.38,613.84Zm2.69-7.14a12.47,12.47,0,0,0,0,5.95,3.41,3.41,0,0,0,1.06,1.74,3.88,3.88,0,0,0,1.43.75,8.25,8.25,0,0,0,3.52,0,3.88,3.88,0,0,0,1.43-.75,3.42,3.42,0,0,0,1.07-1.74,12.82,12.82,0,0,0,0-5.95,3.34,3.34,0,0,0-1.07-1.73,3.91,3.91,0,0,0-1.43-.76,8.69,8.69,0,0,0-3.52,0,3.91,3.91,0,0,0-1.43.76A3.33,3.33,0,0,0,725.07,606.7Z"/><path class="cls-5" d="M740.67,617.73V603a15.44,15.44,0,0,1,6.88-1.65,6.85,6.85,0,0,1,4.8,1.59,5.71,5.71,0,0,1,1.74,4.42v10.41h-3V607.1a3.31,3.31,0,0,0-.73-2.25c-.49-.55-1.46-.82-2.93-.82a12.26,12.26,0,0,0-3.79.58v13.12Z"/><path class="cls-5" d="M770.64,617.73V596.16h7.78a8.08,8.08,0,0,1,5.57,1.78,7.33,7.33,0,0,1,0,10,8,8,0,0,1-5.57,1.78h-4.77v8Zm3-10.64h4.49q2.86,0,3.84-1.11a5.13,5.13,0,0,0,0-6c-.64-.74-1.93-1.11-3.85-1.11h-4.49Z"/><path class="cls-5" d="M789.8,617.73V595.42h3v6.72a11.8,11.8,0,0,1,4.27-.8,6.09,6.09,0,0,1,4.68,1.79,7.24,7.24,0,0,1,1.67,5.1v9.5h-3v-9.62c0-1.58-.33-2.64-1-3.17a4.15,4.15,0,0,0-2.62-.79,10.92,10.92,0,0,0-4,.78v12.8Z"/><path class="cls-5" d="M807,612.63a4.26,4.26,0,0,1,2-3.74,10,10,0,0,1,5.58-1.34,21.64,21.64,0,0,1,2.93.19,4,4,0,0,0-1.12-2.92,5,5,0,0,0-3.33-.89,13.74,13.74,0,0,0-4.46.81v-2.53a13.57,13.57,0,0,1,4.87-.87,7.23,7.23,0,0,1,5.21,1.75,6.55,6.55,0,0,1,1.84,5v4.66a5.14,5.14,0,0,1-.1,1,6,6,0,0,1-.49,1.32,4.4,4.4,0,0,1-1.06,1.4,5.56,5.56,0,0,1-2,1,11.18,11.18,0,0,1-6.21,0,5.9,5.9,0,0,1-2-1,4.62,4.62,0,0,1-1.08-1.43,5.26,5.26,0,0,1-.5-1.36A6.41,6.41,0,0,1,807,612.63Zm3,0q0,2.73,3.87,2.73h0q3.66,0,3.66-2.62V610.1a20,20,0,0,0-2.81-.2,8.05,8.05,0,0,0-1.35.12,11.15,11.15,0,0,0-1.53.36,3,3,0,0,0-1.36.84A2,2,0,0,0,810,612.6Z"/><path class="cls-5" d="M823.89,606.15a4.59,4.59,0,0,1,1.43-3.41,6,6,0,0,1,4.36-1.4A9.56,9.56,0,0,1,834,602.4V605a9.55,9.55,0,0,0-4-1q-3.21,0-3.21,2.07a1.3,1.3,0,0,0,.85,1.12,11.12,11.12,0,0,0,2,.79,24.45,24.45,0,0,1,2.41.82,4.83,4.83,0,0,1,2.06,1.61,4.76,4.76,0,0,1-.61,6.17,6.34,6.34,0,0,1-4.53,1.41,9.59,9.59,0,0,1-4.66-1.13v-2.7a9,9,0,0,0,4.47,1.18h.06a4.18,4.18,0,0,0,2.36-.56,1.67,1.67,0,0,0,.81-1.42,1.87,1.87,0,0,0-.84-1.6,6.43,6.43,0,0,0-2.06-1c-.81-.22-1.62-.47-2.42-.75a4.75,4.75,0,0,1-2.06-1.39A3.68,3.68,0,0,1,823.89,606.15Z"/><path class="cls-5" d="M838.18,609.85q0-8.51,7.12-8.51h0a6.68,6.68,0,0,1,5.17,2.12,8,8,0,0,1,1.93,5.66q0,1.15-.09,2.22H841.19c.36,2.76,1.87,4.15,4.55,4.15a11.81,11.81,0,0,0,5.57-1.22V617a14.39,14.39,0,0,1-5.64,1h-.09a9.43,9.43,0,0,1-2.62-.35,7.81,7.81,0,0,1-2.34-1.18,5.49,5.49,0,0,1-1.79-2.52A11.4,11.4,0,0,1,838.18,609.85Zm3-1.17h8.29a7.75,7.75,0,0,0-.27-1.54,7.33,7.33,0,0,0-.65-1.49,3.2,3.2,0,0,0-1.26-1.21,4,4,0,0,0-2-.45,3.88,3.88,0,0,0-3,1A6.25,6.25,0,0,0,841.14,608.68Z"/><path class="cls-5" d="M574.92,680.54V677.6a10.43,10.43,0,0,0,5.27,1.46q5.34,0,5.34-3.8t-5.65-3.8H578v-2.65h1.82q4.65,0,4.65-3.14c0-2.11-1.53-3.16-4.61-3.16h0a9,9,0,0,0-4.39,1.09v-2.87a10.8,10.8,0,0,1,4.67-1h.08c2.5,0,4.35.58,5.53,1.75a5.67,5.67,0,0,1,1.78,4.22,4.76,4.76,0,0,1-2.57,4.31,5.45,5.45,0,0,1,3.63,5.26,6.18,6.18,0,0,1-1.81,4.45,6.24,6.24,0,0,1-2.54,1.52,11.29,11.29,0,0,1-3.75.56A13.27,13.27,0,0,1,574.92,680.54Z"/><path class="cls-5" d="M593.66,681.52v-2.81h3v2.81Z"/><path class="cls-5" d="M614.53,681.52V660h8a8.74,8.74,0,0,1,5.69,1.7,5.89,5.89,0,0,1,2.08,4.82,6.12,6.12,0,0,1-1.39,4.21,7.08,7.08,0,0,1-3.45,2.15l5.74,8.69H627.6l-5.21-8.21h-4.84v8.21Zm3-11h4.81c1.88,0,3.16-.36,3.85-1.09a4,4,0,0,0,1-2.84q0-4-5-4h-4.69Z"/><path class="cls-5" d="M633.7,673.64q0-8.5,7.12-8.51h0a6.67,6.67,0,0,1,5.17,2.12,8,8,0,0,1,1.93,5.66q0,1.15-.09,2.22H636.71c.36,2.76,1.88,4.15,4.55,4.15a11.78,11.78,0,0,0,5.57-1.22v2.69a14.38,14.38,0,0,1-5.63,1h-.1a9.07,9.07,0,0,1-2.62-.35,7.65,7.65,0,0,1-2.33-1.18,5.44,5.44,0,0,1-1.8-2.52A11.58,11.58,0,0,1,633.7,673.64Zm3-1.17H645a7.53,7.53,0,0,0-.27-1.53,6.88,6.88,0,0,0-.65-1.5,3.31,3.31,0,0,0-1.25-1.21,4.14,4.14,0,0,0-2-.44,3.87,3.87,0,0,0-3,1A6.14,6.14,0,0,0,636.67,672.47Z"/><path class="cls-5" d="M651.11,673.25a11,11,0,0,1,.67-4.08,5.54,5.54,0,0,1,1.8-2.52,7.52,7.52,0,0,1,2.35-1.18,9.77,9.77,0,0,1,2.59-.34,12.6,12.6,0,0,1,3.45.48v-6.33h3v17.27a5.17,5.17,0,0,1-.11,1,5.77,5.77,0,0,1-.49,1.31,4.38,4.38,0,0,1-1,1.41,5.6,5.6,0,0,1-2,1,9.61,9.61,0,0,1-3,.43,9.46,9.46,0,0,1-1.79-.16,6.21,6.21,0,0,1-1.88-.71,5.65,5.65,0,0,1-1.75-1.43,7.4,7.4,0,0,1-1.23-2.49A12.32,12.32,0,0,1,651.11,673.25Zm2.95,0a11.27,11.27,0,0,0,.36,3.1,3.6,3.6,0,0,0,1,1.8,4.11,4.11,0,0,0,1.31.77,5.31,5.31,0,0,0,1.53.2q3.72,0,3.7-2.4v-8.26a9,9,0,0,0-3.45-.67,7,7,0,0,0-1.68.18,3.89,3.89,0,0,0-1.39.73,3.24,3.24,0,0,0-1,1.67A9.73,9.73,0,0,0,654.06,673.25Z"/><path class="cls-5" d="M669.66,674.73v-9.34h3V675a4.72,4.72,0,0,0,.94,3.23,3.83,3.83,0,0,0,2.94,1,3.75,3.75,0,0,0,2.92-1,4.72,4.72,0,0,0,.92-3.24v-9.57h3v9.34A7.23,7.23,0,0,1,681.5,680a7.74,7.74,0,0,1-10,0A7.2,7.2,0,0,1,669.66,674.73Z"/><path class="cls-5" d="M689.1,679.64c-1.28-1.42-1.91-3.48-1.91-6.19s.63-4.76,1.91-6.18a7.13,7.13,0,0,1,5.6-2.14,12.85,12.85,0,0,1,4.75.9v2.82a10,10,0,0,0-4.43-1.06H695a5,5,0,0,0-3.49,1.14c-.84.77-1.26,2.27-1.26,4.52a9.92,9.92,0,0,0,.37,3,3.45,3.45,0,0,0,1.11,1.75,4.1,4.1,0,0,0,1.48.76,7.22,7.22,0,0,0,1.79.19,10.35,10.35,0,0,0,4.5-1v2.79a12.84,12.84,0,0,1-4.75.89A7.16,7.16,0,0,1,689.1,679.64Z"/><path class="cls-5" d="M702.34,673.64q0-8.5,7.12-8.51h0a6.67,6.67,0,0,1,5.17,2.12,8.05,8.05,0,0,1,1.94,5.66c0,.77,0,1.51-.1,2.22H705.36c.35,2.76,1.87,4.15,4.54,4.15a11.85,11.85,0,0,0,5.58-1.22v2.69a14.46,14.46,0,0,1-5.64,1h-.09a9.14,9.14,0,0,1-2.63-.35,7.88,7.88,0,0,1-2.33-1.18,5.35,5.35,0,0,1-1.79-2.52A11.35,11.35,0,0,1,702.34,673.64Zm3-1.17h8.29a7.53,7.53,0,0,0-.28-1.53,6.88,6.88,0,0,0-.65-1.5,3.24,3.24,0,0,0-1.25-1.21,4.14,4.14,0,0,0-2-.44,3.89,3.89,0,0,0-3,1A6.21,6.21,0,0,0,705.31,672.47Z"/><path class="cls-5" d="M731.94,681.52V660h7.79a8,8,0,0,1,5.56,1.78,7.34,7.34,0,0,1,0,10,8.06,8.06,0,0,1-5.57,1.77H735v8Zm3-10.64h4.48c1.92,0,3.2-.37,3.85-1.11a4.45,4.45,0,0,0,1-3,4.39,4.39,0,0,0-1-3c-.64-.74-1.92-1.11-3.85-1.11H735Z"/><path class="cls-5" d="M751.11,681.52V659.21h2.95v6.72a11.84,11.84,0,0,1,4.27-.8,6.08,6.08,0,0,1,4.69,1.8,7.19,7.19,0,0,1,1.66,5.09v9.5h-3V671.9c0-1.58-.34-2.64-1-3.17a4.17,4.17,0,0,0-2.62-.79,11,11,0,0,0-4,.78v12.8Z"/><path class="cls-5" d="M768.3,676.42a4.26,4.26,0,0,1,2-3.74,10.05,10.05,0,0,1,5.58-1.34,21.42,21.42,0,0,1,2.93.19,3.92,3.92,0,0,0-1.11-2.92,5,5,0,0,0-3.33-.89,13.84,13.84,0,0,0-4.47.81V666a13.62,13.62,0,0,1,4.88-.87,7.25,7.25,0,0,1,5.21,1.75,6.59,6.59,0,0,1,1.84,5v4.66a5.15,5.15,0,0,1-.11,1,6,6,0,0,1-.49,1.32,4.68,4.68,0,0,1-1,1.41,5.7,5.7,0,0,1-2,1,11.14,11.14,0,0,1-6.2,0,5.81,5.81,0,0,1-2-1.05,4.5,4.5,0,0,1-1.09-1.43,5.66,5.66,0,0,1-.5-1.36A6.41,6.41,0,0,1,768.3,676.42Zm3,0q0,2.73,3.88,2.73h0q3.65,0,3.65-2.62v-2.61a19.82,19.82,0,0,0-2.8-.2,8.17,8.17,0,0,0-1.36.12,12,12,0,0,0-1.53.37,2.94,2.94,0,0,0-1.35.83A2,2,0,0,0,771.25,676.39Z"/><path class="cls-5" d="M785.19,669.94a4.59,4.59,0,0,1,1.43-3.4,6,6,0,0,1,4.37-1.41,9.62,9.62,0,0,1,4.31,1.06v2.56a9.47,9.47,0,0,0-3.95-1c-2.14,0-3.2.68-3.2,2.06A1.3,1.3,0,0,0,789,671a10.85,10.85,0,0,0,2,.79,25.19,25.19,0,0,1,2.4.82,4.77,4.77,0,0,1,2.06,1.61,4.47,4.47,0,0,1,.86,2.8,4.53,4.53,0,0,1-1.46,3.37,6.35,6.35,0,0,1-4.54,1.41,9.62,9.62,0,0,1-4.66-1.13v-2.7a9,9,0,0,0,4.47,1.18h.07a4.2,4.2,0,0,0,2.36-.56,1.67,1.67,0,0,0,.81-1.42,1.87,1.87,0,0,0-.85-1.6,6.65,6.65,0,0,0-2.06-.95c-.81-.22-1.61-.47-2.42-.75a4.72,4.72,0,0,1-2.05-1.39A3.68,3.68,0,0,1,785.19,669.94Z"/><path class="cls-5" d="M799.48,673.64q0-8.5,7.12-8.51h0a6.67,6.67,0,0,1,5.17,2.12,8.05,8.05,0,0,1,1.94,5.66c0,.77,0,1.51-.1,2.22H802.5c.35,2.76,1.87,4.15,4.54,4.15a11.78,11.78,0,0,0,5.57-1.22v2.69a14.38,14.38,0,0,1-5.63,1h-.1a9.12,9.12,0,0,1-2.62-.35,7.77,7.77,0,0,1-2.33-1.18,5.35,5.35,0,0,1-1.79-2.52A11.35,11.35,0,0,1,799.48,673.64Zm3-1.17h8.29a8.28,8.28,0,0,0-.28-1.53,6.88,6.88,0,0,0-.65-1.5,3.24,3.24,0,0,0-1.25-1.21,4.14,4.14,0,0,0-2-.44,3.89,3.89,0,0,0-3,1A6.21,6.21,0,0,0,802.45,672.47Z"/><path class="cls-7" d="M293.24,40.08l5.11-12.8h1.74l5.09,12.8h-1.92l-1.38-3.59h-5.34l-1.38,3.59Zm3.94-5.26h4.06l-2-5.31Z"/><path class="cls-7" d="M307.15,43.73V33.44a4.32,4.32,0,0,1,.05-.62,3.47,3.47,0,0,1,.29-.77,2.62,2.62,0,0,1,.62-.82,3.23,3.23,0,0,1,1.18-.62,5.91,5.91,0,0,1,1.83-.25,6,6,0,0,1,1,.09,3.66,3.66,0,0,1,1.11.42,3.61,3.61,0,0,1,1.05.85,4.44,4.44,0,0,1,.73,1.48,7.32,7.32,0,0,1,.3,2.2,6.73,6.73,0,0,1-.39,2.43,3.18,3.18,0,0,1-1.07,1.49,4.66,4.66,0,0,1-1.39.7,5.55,5.55,0,0,1-1.56.21,7.23,7.23,0,0,1-2-.28v3.78Zm1.75-5.46a5.52,5.52,0,0,0,2,.39,3.73,3.73,0,0,0,1-.12,2.17,2.17,0,0,0,.82-.43,1.94,1.94,0,0,0,.61-1,6,6,0,0,0,.21-1.72,6.83,6.83,0,0,0-.21-1.85,2.22,2.22,0,0,0-.6-1.08A2.48,2.48,0,0,0,312,32a3,3,0,0,0-.88-.12q-2.22,0-2.22,1.44Z"/><path class="cls-7" d="M317.66,43.73V33.44a3.26,3.26,0,0,1,.06-.62,2.94,2.94,0,0,1,.28-.77,2.62,2.62,0,0,1,.62-.82,3.32,3.32,0,0,1,1.18-.62,6.52,6.52,0,0,1,2.87-.16,3.81,3.81,0,0,1,1.12.42,3.56,3.56,0,0,1,1,.85,4.25,4.25,0,0,1,.73,1.48,7.32,7.32,0,0,1,.3,2.2,6.73,6.73,0,0,1-.39,2.43,3.18,3.18,0,0,1-1.07,1.49A4.66,4.66,0,0,1,323,40a5.45,5.45,0,0,1-1.56.21,7.23,7.23,0,0,1-2-.28v3.78Zm1.75-5.46a5.6,5.6,0,0,0,2,.39,3.73,3.73,0,0,0,1-.12,2.1,2.1,0,0,0,.82-.43,2,2,0,0,0,.62-1,6,6,0,0,0,.21-1.72,6.83,6.83,0,0,0-.21-1.85,2.23,2.23,0,0,0-.61-1.08,2.28,2.28,0,0,0-.78-.46,3,3,0,0,0-.88-.12q-2.22,0-2.22,1.44Z"/><path class="cls-7" d="M328.52,40.08V26.86h1.75V40.08Z"/><path class="cls-7" d="M333.43,29V27.17h1.86V29Zm.06,11V30.51h1.75v9.57Z"/><path class="cls-7" d="M338.9,39a5.34,5.34,0,0,1-1.14-3.68,5.32,5.32,0,0,1,1.14-3.67,4.24,4.24,0,0,1,3.32-1.26,7.59,7.59,0,0,1,2.82.53v1.67a6,6,0,0,0-2.63-.63h0a3,3,0,0,0-2.07.68,3.62,3.62,0,0,0-.75,2.68,5.93,5.93,0,0,0,.22,1.77,2,2,0,0,0,.66,1,2.24,2.24,0,0,0,.88.45,4.07,4.07,0,0,0,1.06.12,6.27,6.27,0,0,0,2.67-.61V39.7a7.59,7.59,0,0,1-2.82.53A4.24,4.24,0,0,1,338.9,39Z"/><path class="cls-7" d="M346.81,37.05a2.51,2.51,0,0,1,1.2-2.21,5.85,5.85,0,0,1,3.31-.8,14,14,0,0,1,1.74.11,2.35,2.35,0,0,0-.66-1.73,3,3,0,0,0-2-.53,8.23,8.23,0,0,0-2.65.48v-1.5a8.19,8.19,0,0,1,2.9-.51,4.32,4.32,0,0,1,3.09,1,3.9,3.9,0,0,1,1.09,3v2.76a3.08,3.08,0,0,1-.06.61,3.57,3.57,0,0,1-.29.79,2.69,2.69,0,0,1-.63.83,3.23,3.23,0,0,1-1.18.61,5.7,5.7,0,0,1-1.83.26A5.77,5.77,0,0,1,349,40a3.18,3.18,0,0,1-1.2-.62,2.71,2.71,0,0,1-.65-.85,2.76,2.76,0,0,1-.29-.81A3.36,3.36,0,0,1,346.81,37.05Zm1.75,0c0,1.08.77,1.62,2.3,1.62h0c1.45,0,2.17-.52,2.17-1.56V35.56a11,11,0,0,0-1.66-.13,5.78,5.78,0,0,0-.81.07,7.32,7.32,0,0,0-.9.22,1.77,1.77,0,0,0-.81.5A1.17,1.17,0,0,0,348.56,37Z"/><path class="cls-7" d="M356.22,32V30.51h1.67V27.67h1.75v2.84h2.55V32h-2.55v5.54c0,.74.47,1.12,1.41,1.12h0a2.19,2.19,0,0,0,1.12-.28V40a3.64,3.64,0,0,1-1.31.26h-.05a4,4,0,0,1-.74-.08,5.37,5.37,0,0,1-.94-.33,2.08,2.08,0,0,1-.91-.86,3,3,0,0,1-.35-1.52V32Z"/><path class="cls-7" d="M364.5,29V27.17h1.87V29Zm.06,11V30.51h1.75v9.57Z"/><path class="cls-7" d="M369.24,37.78a6.75,6.75,0,0,1-.4-2.48,6.69,6.69,0,0,1,.4-2.47,3.41,3.41,0,0,1,1.1-1.53,4.77,4.77,0,0,1,1.43-.71,5.89,5.89,0,0,1,3.19,0,4.77,4.77,0,0,1,1.43.71,3.41,3.41,0,0,1,1.1,1.53,6.69,6.69,0,0,1,.4,2.47,6.75,6.75,0,0,1-.4,2.48,3.37,3.37,0,0,1-1.1,1.52A4.58,4.58,0,0,1,375,40a6.16,6.16,0,0,1-3.19,0,4.58,4.58,0,0,1-1.43-.72A3.37,3.37,0,0,1,369.24,37.78Zm1.6-4.24a7.52,7.52,0,0,0,0,3.53,2.06,2.06,0,0,0,.63,1,2.51,2.51,0,0,0,.85.45,5,5,0,0,0,2.09,0,2.51,2.51,0,0,0,.85-.45,2.06,2.06,0,0,0,.63-1,7.52,7.52,0,0,0,0-3.53,2,2,0,0,0-.63-1,2.2,2.2,0,0,0-.85-.45,5,5,0,0,0-2.09,0,2.2,2.2,0,0,0-.85.45A2,2,0,0,0,370.84,33.54Z"/><path class="cls-7" d="M380.1,40.08V31.32a9.07,9.07,0,0,1,4.08-1,4,4,0,0,1,2.85.94,3.39,3.39,0,0,1,1,2.63v6.17h-1.79V33.77a2,2,0,0,0-.43-1.33,2.3,2.3,0,0,0-1.74-.49,7.12,7.12,0,0,0-2.26.35v7.78Z"/><path class="cls-7" d="M390.46,33.21a2.73,2.73,0,0,1,.84-2,3.56,3.56,0,0,1,2.6-.83,5.68,5.68,0,0,1,2.56.62V32.5a5.65,5.65,0,0,0-2.35-.57c-1.27,0-1.9.41-1.9,1.22a.78.78,0,0,0,.5.67,6.77,6.77,0,0,0,1.22.47,13.43,13.43,0,0,1,1.43.49,2.73,2.73,0,0,1,1.73,2.62,2.67,2.67,0,0,1-.87,2,3.75,3.75,0,0,1-2.69.84,5.61,5.61,0,0,1-2.76-.67V38a5.38,5.38,0,0,0,2.65.7h0a2.5,2.5,0,0,0,1.4-.33,1,1,0,0,0,.48-.85,1.13,1.13,0,0,0-.5-.95,3.77,3.77,0,0,0-1.23-.56c-.48-.13-1-.28-1.43-.45A2.76,2.76,0,0,1,391,34.7,2.15,2.15,0,0,1,390.46,33.21Z"/><path class="cls-8" d="M344.4,53.06v62.13a1,1,0,0,0,1.9,0V53.06a1,1,0,1,0-1.9,0Z"/><path class="cls-9" d="M406.35,679.72s-3.91,5.94,3.79,7.14c.75.1,6.33.68,7.77,2.51,0,0-.14-3.16-4.67-5S406.86,682,406.35,679.72Z"/><path class="cls-9" d="M410.17,666.94s-11,6.69-.63,13.33c2,1.29,9.19,4.9,9,8.21,0,0,4.36-6.47-2-10.53C410,673.78,408.31,669.35,410.17,666.94Z"/><path class="cls-9" d="M421.49,673.48c-4.7-4.92-6-8-4-11.9,0,0-14,5.4-.18,15,5,3.43,4.13,6.93,4.13,7.06C422.23,682.8,426.18,678.4,421.49,673.48Z"/><text class="cls-10" transform="translate(431.05 684.54)">N<tspan class="cls-11" x="13.72" y="0">O</tspan><tspan class="cls-12" x="27.44" y="0">D</tspan><tspan class="cls-13" x="39.86" y="0">E</tspan></text><path class="cls-6" d="M443.4,487.68c-27.59,0-56.14,6.26-56.14,16.73V638.79a6.22,6.22,0,0,0,1.2,3.61,10.79,10.79,0,0,0,1.36,1.59c7.14,6.89,28.68,11.53,53.58,11.53S489.87,650.88,497,644a10.32,10.32,0,0,0,1.38-1.6,6.29,6.29,0,0,0,1.2-3.61V504.41C499.58,493.94,471,487.68,443.4,487.68Z"/><path class="cls-9" d="M481.89,490.42c-10.42-2.83-24.45-4.45-38.49-4.45s-28,1.62-38.47,4.45c-12.2,3.31-18.64,8-18.64,13.59V639.19a7.67,7.67,0,0,0,1.45,4.42,11.34,11.34,0,0,0,1.55,1.79c7.32,7.07,29.07,11.83,54.11,11.83s46.82-4.75,54.15-11.83a11.83,11.83,0,0,0,1.54-1.79,7.61,7.61,0,0,0,1.46-4.42V504C500.55,498.43,494.1,493.73,481.89,490.42Zm13,150.24a6.81,6.81,0,0,1-.88,1c-6.25,6-27.53,10.41-50.61,10.41s-44.32-4.38-50.57-10.41a6.87,6.87,0,0,1-.89-1,2.66,2.66,0,0,1-.52-1.47V512a28.58,28.58,0,0,0,3.81,2.17l.06,0c.7.33,1.43.66,2.19,1l.19.08c.74.3,1.51.59,2.31.88l.29.1,2.1.69.66.2q1,.31,2.1.6l1,.26c.68.17,1.39.35,2.1.51l1.23.28c.69.16,1.39.3,2.1.45l1.4.27,1.68.3,1.94.32c.52.09,1,.17,1.58.24l2.07.29,1.8.23,1.63.19,2.44.24,1.24.12,3,.23,1.07.07,3.25.17.81,0c1.18.05,2.37.09,3.58.11h.47c1.31,0,2.63,0,4,0s2.65,0,4,0h.49c1.2,0,2.39-.06,3.57-.11l.82,0,3.24-.17,1.07-.08c1-.06,2-.14,3-.22l1.26-.12q1.2-.1,2.37-.24l1.7-.19,1.77-.23,2.11-.29c.52-.08,1-.15,1.55-.24l2-.32,1.67-.3,1.41-.27,2.1-.45,1.22-.28c.72-.17,1.43-.34,2.12-.52l.93-.25c.75-.2,1.48-.41,2.2-.62l.53-.17c.76-.23,1.49-.47,2.2-.72l.22-.08q1.25-.44,2.37-.9l.13-.05c.79-.32,1.53-.65,2.24-1h0a29,29,0,0,0,3.84-2.18V639.19A2.6,2.6,0,0,1,494.89,640.66ZM443.4,491.1c32.23,0,52,7.52,52,12.91a2.76,2.76,0,0,1-.53,1.49c-2.26,3.33-10.32,6.73-22.22,8.94l-.1,0-1.35.24-1.41.23h0a166.79,166.79,0,0,1-21.94,1.93h-.74l-1.41,0H441.1l-1.41,0H439a166.15,166.15,0,0,1-21.89-1.93H417l-1.33-.22-1.43-.26h0c-11.89-2.22-19.95-5.61-22.22-8.94a2.82,2.82,0,0,1-.53-1.5C391.42,498.62,411.2,491.1,443.4,491.1Z"/><path class="cls-2" d="M431.69,610.55a28.46,28.46,0,0,0,37.49-8.73,2.18,2.18,0,0,0-.73-3.13h0a2.19,2.19,0,0,0-2.89.67,24,24,0,1,1-11.4-36l-7.13,4.8a2.19,2.19,0,0,0-.59,3h0a2.2,2.2,0,0,0,3,.59l10.35-7a2.09,2.09,0,0,0,.68-.74,2.19,2.19,0,0,0,.13-1.89l-4.4-11A2.19,2.19,0,0,0,453.4,550h0a2.19,2.19,0,0,0-1.22,2.85l2.41,6a28.42,28.42,0,0,0-22.9,51.73Z"/><path class="cls-5" d="M436.72,597.68v-2.19c1.13-.87,2.23-1.78,3.28-2.74s2.13-2,3.23-3.22a17.7,17.7,0,0,0,2.64-3.62,7.14,7.14,0,0,0,1-3.32q0-3.4-4.65-3.4a9,9,0,0,0-5.16,1.58V578a10.89,10.89,0,0,1,5.55-1.52q3.64,0,5.39,1.79a6,6,0,0,1,1.74,4.31q0,5.36-8,12.38H450v2.74Z"/><path class="cls-9" d="M210.22,680.32s-3.92,5.93,3.78,7.14c.75.1,6.33.68,7.77,2.5,0,0-.13-3.15-4.66-5S210.72,682.63,210.22,680.32Z"/><path class="cls-9" d="M214,667.54s-11,6.68-.63,13.33c2,1.29,9.19,4.9,9,8.21,0,0,4.37-6.47-2-10.53C213.81,674.38,212.17,669.94,214,667.54Z"/><path class="cls-9" d="M225.35,674.08c-4.69-4.92-6-8-4-11.9,0,0-14,5.4-.18,15,5,3.43,4.13,6.93,4.13,7.05C226.09,683.4,230,679,225.35,674.08Z"/><text class="cls-10" transform="translate(234.91 685.14)">N<tspan class="cls-11" x="13.72" y="0">O</tspan><tspan class="cls-12" x="27.44" y="0">D</tspan><tspan class="cls-13" x="39.86" y="0">E</tspan></text><path class="cls-6" d="M247.27,488.28c-27.6,0-56.15,6.26-56.15,16.73V639.39a6.22,6.22,0,0,0,1.2,3.61,10.2,10.2,0,0,0,1.36,1.58c7.15,6.9,28.68,11.54,53.59,11.54s46.46-4.64,53.59-11.52a10,10,0,0,0,1.38-1.61,6.17,6.17,0,0,0,1.2-3.6V505C303.44,494.54,274.88,488.28,247.27,488.28Z"/><path class="cls-9" d="M285.75,491c-10.42-2.83-24.45-4.45-38.48-4.45s-28.05,1.62-38.47,4.45c-12.2,3.31-18.65,8-18.65,13.59V639.79a7.64,7.64,0,0,0,1.45,4.41,11.42,11.42,0,0,0,1.55,1.8c7.32,7.07,29.07,11.83,54.12,11.83s46.82-4.75,54.14-11.83a12.47,12.47,0,0,0,1.55-1.79,7.7,7.7,0,0,0,1.45-4.42V504.61C304.41,499,298,494.33,285.75,491Zm13,150.24a6.73,6.73,0,0,1-.88,1c-6.25,6-27.53,10.42-50.6,10.42s-44.33-4.38-50.58-10.41a7,7,0,0,1-.89-1,2.6,2.6,0,0,1-.52-1.46V512.56a28.58,28.58,0,0,0,3.81,2.17l.07,0c.69.33,1.42.66,2.18,1l.19.08c.74.3,1.51.59,2.31.88l.29.1,2.11.69.65.2c.68.21,1.38.4,2.1.6l1,.25,2.1.52,1.23.28,2.1.45,1.4.27,1.69.3,1.93.32,1.58.24,2.08.29,1.8.23,1.62.18,2.44.25,1.24.11c1,.09,2,.16,3,.23l1.07.07c1.07.07,2.16.13,3.25.18l.81,0c1.18,0,2.37.09,3.58.11h.47c1.32,0,2.63,0,4,0s2.64,0,3.95,0h.49c1.2,0,2.39-.07,3.57-.11l.82,0c1.09-.05,2.17-.11,3.25-.18l1.06-.07c1-.07,2-.14,3-.23l1.27-.11,2.36-.24,1.7-.2,1.77-.22,2.11-.29,1.55-.24,2-.32,1.67-.3,1.41-.28,2.1-.44,1.22-.28,2.13-.52.92-.25c.75-.2,1.49-.41,2.2-.62l.54-.17q1.13-.35,2.19-.72l.23-.08q1.23-.44,2.37-.9l.12,0c.79-.32,1.53-.66,2.24-1h0a29,29,0,0,0,3.84-2.18V639.79A2.6,2.6,0,0,1,298.75,641.26ZM247.27,491.7c32.22,0,52,7.52,52,12.91a2.76,2.76,0,0,1-.53,1.49c-2.26,3.33-10.32,6.73-22.21,8.94l-.11,0-1.35.24-1.41.23h0a163.74,163.74,0,0,1-22,1.93l-.74,0-1.41,0-2.3,0-2.31,0-1.41,0-.74,0a164.54,164.54,0,0,1-21.89-1.92h-.1l-1.33-.23-1.43-.25h0c-11.9-2.21-20-5.6-22.22-8.93a2.75,2.75,0,0,1-.54-1.5C195.28,499.22,215.06,491.7,247.27,491.7Z"/><path class="cls-2" d="M235.55,611.15A28.46,28.46,0,0,0,273,602.42a2.18,2.18,0,0,0-.73-3.13h0a2.19,2.19,0,0,0-2.89.67,24,24,0,1,1-11.4-36l-7.13,4.8a2.19,2.19,0,0,0-.59,3h0a2.19,2.19,0,0,0,3,.6l10.35-7a2.2,2.2,0,0,0,.81-2.63l-4.4-11a2.19,2.19,0,0,0-2.84-1.22h0a2.19,2.19,0,0,0-1.22,2.84l2.41,6a28.42,28.42,0,0,0-22.9,51.73Z"/><path class="cls-5" d="M240.58,598.27v-2.18c1.13-.87,2.23-1.78,3.28-2.74s2.13-2,3.23-3.22a18,18,0,0,0,2.64-3.62,7.14,7.14,0,0,0,1-3.32q0-3.41-4.65-3.4a9,9,0,0,0-5.15,1.58v-2.79a10.82,10.82,0,0,1,5.54-1.52q3.64,0,5.39,1.79a6,6,0,0,1,1.75,4.3q0,5.37-8,12.39h8.18v2.73Z"/><path class="cls-9" d="M308.92,737.6s-3.92,5.94,3.78,7.15c.75.09,6.33.67,7.77,2.5,0,0-.14-3.16-4.67-5S309.42,739.91,308.92,737.6Z"/><path class="cls-9" d="M312.73,724.83s-11,6.68-.63,13.32c2,1.29,9.19,4.9,9,8.21,0,0,4.36-6.47-2-10.52C312.51,731.66,310.87,727.23,312.73,724.83Z"/><path class="cls-9" d="M324.05,731.36c-4.7-4.92-6-8-4-11.9,0,0-14,5.4-.18,15,5,3.43,4.13,6.93,4.13,7.06C324.79,740.68,328.74,736.28,324.05,731.36Z"/><text class="cls-10" transform="translate(333.61 742.43)">N<tspan class="cls-11" x="13.72" y="0">O</tspan><tspan class="cls-12" x="27.44" y="0">D</tspan><tspan class="cls-13" x="39.86" y="0">E</tspan></text><path class="cls-6" d="M346,545.56c-27.6,0-56.15,6.26-56.15,16.73V696.67a6.2,6.2,0,0,0,1.2,3.61,10.79,10.79,0,0,0,1.36,1.59c7.14,6.9,28.68,11.53,53.59,11.53s46.46-4.63,53.59-11.52a10.32,10.32,0,0,0,1.38-1.6,6.27,6.27,0,0,0,1.2-3.61V562.29C402.14,551.82,373.58,545.56,346,545.56Z"/><path class="cls-9" d="M384.45,548.3C374,545.47,360,543.85,346,543.85s-28.06,1.62-38.47,4.45c-12.2,3.31-18.65,8-18.65,13.59V697.07a7.67,7.67,0,0,0,1.45,4.42,11.89,11.89,0,0,0,1.55,1.8c7.32,7.07,29.07,11.82,54.12,11.82s46.82-4.75,54.14-11.83a12.47,12.47,0,0,0,1.55-1.79,7.67,7.67,0,0,0,1.45-4.42V561.89C403.11,556.31,396.66,551.61,384.45,548.3Zm13,150.24a6.36,6.36,0,0,1-.88,1C390.32,705.61,369,710,346,710s-44.33-4.38-50.58-10.41a7.49,7.49,0,0,1-.89-1,2.63,2.63,0,0,1-.52-1.47V569.84a28.58,28.58,0,0,0,3.81,2.17l.07,0c.69.33,1.42.66,2.18,1l.19.08c.74.3,1.51.6,2.31.88l.29.1q1,.36,2.1.69l.66.2q1,.31,2.1.6l1,.26c.68.18,1.39.35,2.1.51l1.23.29,2.1.44,1.4.27,1.69.3,1.93.32,1.58.25,2.08.28,1.79.23,1.63.19c.81.08,1.62.17,2.44.24l1.24.12,3,.23,1.07.07c1.07.07,2.16.12,3.25.18l.81,0c1.18.05,2.37.09,3.58.12H342c1.31,0,2.63.05,4,.05s2.64,0,3.95-.05h.49q1.8,0,3.57-.12l.82,0c1.09-.05,2.17-.1,3.24-.17l1.07-.07,3-.23,1.27-.12c.79-.07,1.58-.15,2.36-.24l1.7-.19,1.77-.23,2.11-.29,1.55-.23,2-.33,1.67-.3,1.41-.27c.71-.15,1.41-.29,2.1-.45l1.22-.27,2.12-.53.93-.24c.75-.21,1.48-.41,2.2-.63l.53-.17c.76-.23,1.49-.47,2.2-.72l.22-.07c.83-.3,1.62-.6,2.37-.91l.13-.05c.79-.32,1.53-.65,2.24-1h0a29,29,0,0,0,3.84-2.18V697.07A2.57,2.57,0,0,1,397.45,698.54ZM346,549c32.22,0,52,7.52,52,12.91a2.76,2.76,0,0,1-.53,1.49c-2.26,3.33-10.32,6.73-22.22,8.94l-.1,0-1.35.24-1.41.24h0a167.1,167.1,0,0,1-21.95,1.93h-.74l-1.41,0h-4.61l-1.41,0h-.74a166.15,166.15,0,0,1-21.89-1.93h-.1l-1.33-.22-1.43-.26h0c-11.89-2.21-20-5.61-22.21-8.94a2.75,2.75,0,0,1-.54-1.5C294,556.5,313.76,549,346,549Z"/><path class="cls-2" d="M334.25,668.43a28.46,28.46,0,0,0,37.49-8.73,2.18,2.18,0,0,0-.73-3.13h0a2.19,2.19,0,0,0-2.89.68,24,24,0,1,1-11.4-36l-7.13,4.8a2.2,2.2,0,0,0-.59,3h0a2.2,2.2,0,0,0,3,.59l10.35-7a2.15,2.15,0,0,0,.68-.73,2.2,2.2,0,0,0,.13-1.89l-4.4-11a2.19,2.19,0,0,0-2.84-1.22h0a2.2,2.2,0,0,0-1.22,2.85l2.41,6a28.42,28.42,0,0,0-22.9,51.72Z"/><path class="cls-5" d="M339.28,655.56v-2.19c1.13-.86,2.23-1.78,3.28-2.73s2.13-2,3.23-3.23a17.7,17.7,0,0,0,2.64-3.62,7.11,7.11,0,0,0,1-3.32c0-2.26-1.55-3.4-4.65-3.4a9,9,0,0,0-5.16,1.58v-2.79a10.89,10.89,0,0,1,5.55-1.52q3.64,0,5.39,1.79a6,6,0,0,1,1.74,4.31q0,5.35-8,12.38h8.18v2.74Z"/></g></g></svg>