<svg xmlns="http://www.w3.org/2000/svg" viewBox="0 0 1264 1110"><defs><style>.cls-1{isolation:isolate;}.cls-2{fill:#777;}.cls-3,.cls-8{fill:#efeeed;}.cls-3{mix-blend-mode:multiply;}.cls-4{fill:#020202;}.cls-10,.cls-5{fill:#1d1d1b;}.cls-6{fill:#fff;}.cls-7{fill:#010101;}.cls-9{fill:#e5282a;}.cls-10{font-size:18.67px;font-family:MavenProMedium, Maven Pro;letter-spacing:0em;}.cls-11{letter-spacing:-0.01em;}.cls-12{letter-spacing:-0.01em;}.cls-13{letter-spacing:0em;}</style></defs><g class="cls-1"><g id="Capa_1" data-name="Capa 1"><path class="cls-2" d="M774.51,522.56v57.17a4,4,0,1,1-7.93,0V522.56a4,4,0,0,1,7.93,0Z"/><path class="cls-2" d="M702.65,575.77h67.43a4,4,0,1,1,0,7.93H702.65a4,4,0,0,1,0-7.93Z"/><path class="cls-2" d="M789.05,537.46a4,4,0,0,0-.95-2.58l-14.54-17a4,4,0,0,0-6,0l-14.54,17a4,4,0,0,0,6,5.16l11.53-13.49L782.08,540a4,4,0,0,0,7-2.58Z"/><path class="cls-2" d="M706.62,579.73v41.69a4,4,0,0,1-7.93,0V579.73a4,4,0,0,1,7.93,0Z"/><path class="cls-2" d="M665,664.85l40.43-40.42a4,4,0,0,0-5.61-5.61l-40.43,40.43a4,4,0,0,0,5.61,5.6Z"/><path class="cls-2" d="M685.85,664.6a4,4,0,0,1-2.5,1.15L661,667.49a4,4,0,0,1-4.26-4.26l1.75-22.31a4,4,0,1,1,7.9.61l-1.38,17.7,17.69-1.39a4,4,0,0,1,3.11,6.76Z"/><path class="cls-2" d="M459.83,522.56v57.17a4,4,0,1,0,7.93,0V522.56a4,4,0,0,0-7.93,0Z"/><path class="cls-2" d="M531.69,575.77H464.26a4,4,0,0,0,0,7.93h67.43a4,4,0,0,0,0-7.93Z"/><path class="cls-2" d="M445.29,537.46a4,4,0,0,1,.95-2.58l14.54-17a4,4,0,0,1,6,0l14.54,17a4,4,0,1,1-6,5.16L463.8,526.55,452.27,540a4,4,0,0,1-7-2.58Z"/><path class="cls-2" d="M527.72,579.73v41.69a4,4,0,0,0,7.93,0V579.73a4,4,0,0,0-7.93,0Z"/><path class="cls-2" d="M569.31,664.85l-40.42-40.42a4,4,0,0,1,5.6-5.61l40.43,40.43a4,4,0,0,1-5.61,5.6Z"/><path class="cls-2" d="M548.49,664.6a4,4,0,0,0,2.5,1.15l22.31,1.74a4,4,0,0,0,4.26-4.26l-1.74-22.31a4,4,0,1,0-7.91.61l1.38,17.7-17.69-1.39a4,4,0,0,0-3.11,6.76Z"/><rect class="cls-3" x="303.44" y="312.84" width="627.45" height="219.36" rx="9.73"/><rect class="cls-4" x="403.88" y="340.29" width="502.71" height="168.67"/><path class="cls-2" d="M341.54,406.9a24.84,24.84,0,0,0,32.72-7.62,1.91,1.91,0,0,0-.64-2.73h0a1.91,1.91,0,0,0-2.52.59,21,21,0,1,1-10-31.45l-6.22,4.18a1.91,1.91,0,0,0-.52,2.65h0a1.9,1.9,0,0,0,2.65.52l9-6.08a1.91,1.91,0,0,0,.7-2.29L363,355.1a1.92,1.92,0,0,0-2.49-1.07h0a1.92,1.92,0,0,0-1.06,2.49l2.1,5.23a24.81,24.81,0,0,0-20,45.15Z"/><path class="cls-5" d="M348.41,381.73v-2.67l3-1.7h2.78v18.31h-2.56V379.85Z"/><path class="cls-6" d="M443.47,384.26c0-5.27,4-8.28,8.76-8.28a8,8,0,0,1,5.73,2.3L456.63,380a6.51,6.51,0,0,0-4.3-1.77,5.77,5.77,0,0,0-6.11,6,5.7,5.7,0,0,0,6,6,7.48,7.48,0,0,0,4.85-2l1.19,1.75a9.35,9.35,0,0,1-6.24,2.46C447.16,392.48,443.47,389.47,443.47,384.26Z"/><path class="cls-6" d="M462.77,386.14v-9.77h2.69v9.41c0,2.94,1,4.37,3.62,4.37,1.81,0,3.14-.84,4.88-2.88v-10.9h2.69v15.72h-2.24l-.22-2.75h-.13c-1.58,1.84-3.43,3.14-5.85,3.14C464.49,392.48,462.77,390.28,462.77,386.14Z"/><path class="cls-6" d="M482,390l1.23-1.78a11.22,11.22,0,0,0,6.82,2.13c2.65,0,4-1.09,4-2.42s-.62-2-4.89-2.91c-4.1-.84-6.14-2.23-6.14-4.59,0-2.52,2.23-4.47,6.53-4.47a11.78,11.78,0,0,1,6.34,2l-1.29,1.71a9.32,9.32,0,0,0-5.28-1.65c-2.65,0-3.62,1.07-3.62,2.27,0,1.36,1.36,1.94,4.59,2.62,5.21,1.13,6.47,2.42,6.47,4.85s-2.49,4.69-7,4.69A13.87,13.87,0,0,1,482,390Z"/><path class="cls-6" d="M505.74,386v-7.44h-4.46v-2l4.56-.17.36-5h2.23v5h7.69v2.17h-7.69V386c0,2.81.94,4.27,4,4.27a10.39,10.39,0,0,0,3.75-.71l.58,2a13.63,13.63,0,0,1-4.92.94C507.23,392.48,505.74,389.86,505.74,386Z"/><path class="cls-6" d="M520.42,384.26c0-5.27,3.62-8.28,7.76-8.28s7.76,3,7.76,8.28-3.62,8.22-7.76,8.22S520.42,389.47,520.42,384.26Zm12.77,0c0-3.62-2-6-5-6s-5,2.42-5,6,2,6,5,6S533.19,387.85,533.19,384.26Z"/><path class="cls-6" d="M539.76,376.37h2.13l.23,2.07h.06C543,377,544,376,545.77,376c1.55,0,2.52.91,3,2.72.9-1.68,1.87-2.72,3.68-2.72,2.2,0,3.49,1.72,3.49,4.86v11.25h-2.65V381c0-1.81-.51-2.75-1.68-2.75s-1.68.81-2.52,2.43v11.38h-2.46V381c0-1.81-.45-2.75-1.61-2.75s-1.82.81-2.59,2.43v11.38h-2.65Z"/><path class="cls-6" d="M565.62,373.17h-7v-2.29h16.75v2.29h-7v18.92h-2.72Z"/><path class="cls-6" d="M579.27,388c0-3.52,3.29-5.23,11.41-5.88-.1-2.14-1.13-3.95-4.17-3.95a10.92,10.92,0,0,0-5.5,1.88L580,378.25a13.67,13.67,0,0,1,7-2.27c4.3,0,6.4,2.56,6.4,6.47v9.64h-2.23l-.22-2.14h-.1a10.56,10.56,0,0,1-6.18,2.53C581.69,392.48,579.27,390.83,579.27,388Zm11.41,0v-4.07c-6.73.51-8.76,1.84-8.76,3.91,0,1.78,1.61,2.49,3.43,2.49A8.56,8.56,0,0,0,590.68,388Z"/><path class="cls-6" d="M598.37,390l1.23-1.78a11.25,11.25,0,0,0,6.83,2.13c2.65,0,3.94-1.09,3.94-2.42s-.61-2-4.88-2.91c-4.11-.84-6.15-2.23-6.15-4.59,0-2.52,2.24-4.47,6.54-4.47a11.75,11.75,0,0,1,6.33,2l-1.29,1.71a9.29,9.29,0,0,0-5.27-1.65c-2.65,0-3.62,1.07-3.62,2.27,0,1.36,1.36,1.94,4.59,2.62,5.21,1.13,6.47,2.42,6.47,4.85s-2.49,4.69-7,4.69A13.87,13.87,0,0,1,598.37,390Z"/><path class="cls-6" d="M618.87,369.07h2.69v15.55h.13l8.44-8.25h3.07l-11.64,11.45v4.27h-2.69Zm6,14.68,1.62-1.75,7.5,10.09h-3Z"/><path class="cls-6" d="M642,389.73a2.62,2.62,0,1,1,2.62,2.75A2.62,2.62,0,0,1,642,389.73Z"/><path class="cls-6" d="M659,376.37h2.24l.25,3.72h.07a8.3,8.3,0,0,1,7-4.11,6.67,6.67,0,0,1,3.1.65l-.61,2.3a7.83,7.83,0,0,0-2.91-.52c-2.36,0-4.6,1.2-6.47,4.49v9.19H659Z"/><path class="cls-6" d="M676.17,386.14v-9.77h2.68v9.41c0,2.94,1,4.37,3.62,4.37,1.81,0,3.14-.84,4.88-2.88v-10.9H690v15.72h-2.23l-.23-2.75h-.13c-1.58,1.84-3.43,3.14-5.85,3.14C677.88,392.48,676.17,390.28,676.17,386.14Z"/><path class="cls-6" d="M696.08,376.37h2.2l.23,2.65h.13c1.65-1.71,3.46-3,5.91-3,3.72,0,5.44,2.2,5.44,6.34v9.77H707.3v-9.41c0-3-1-4.37-3.59-4.37-1.87,0-3.13.94-4.94,2.82v11h-2.69Z"/><path class="cls-6" d="M719.2,383.1a18,18,0,0,1,7.24-14.68l1.49,1.36a17.16,17.16,0,0,0,0,26.64l-1.49,1.36A18,18,0,0,1,719.2,383.1Z"/><path class="cls-6" d="M739,389.73a2.62,2.62,0,1,1,2.61,2.75A2.62,2.62,0,0,1,739,389.73Z"/><path class="cls-6" d="M758.35,389.73a2.62,2.62,0,1,1,2.62,2.75A2.62,2.62,0,0,1,758.35,389.73Z"/><path class="cls-6" d="M777.75,389.73a2.62,2.62,0,1,1,2.62,2.75A2.62,2.62,0,0,1,777.75,389.73Z"/><path class="cls-6" d="M794,396.42a17.18,17.18,0,0,0,0-26.64l1.48-1.36a18.49,18.49,0,0,1,0,29.36Z"/><path class="cls-2" d="M341.54,491.09a24.84,24.84,0,0,0,32.72-7.63,1.91,1.91,0,0,0-.64-2.73h0a1.91,1.91,0,0,0-2.52.59,21,21,0,1,1-10-31.45l-6.22,4.19a1.9,1.9,0,0,0-.52,2.65h0a1.92,1.92,0,0,0,2.65.52l9-6.09a1.91,1.91,0,0,0,.7-2.29L363,439.28a1.92,1.92,0,0,0-2.49-1.06h0a1.91,1.91,0,0,0-1.06,2.48l2.1,5.24a24.8,24.8,0,0,0-20,45.15Z"/><path class="cls-5" d="M347.89,479v-2.5a8.81,8.81,0,0,0,4.48,1.24c3,0,4.53-1.08,4.53-3.22s-1.6-3.23-4.8-3.23h-1.59v-2.25h1.54q3.94,0,3.95-2.67c0-1.78-1.3-2.68-3.91-2.68h0a7.62,7.62,0,0,0-3.73.93V462.2a9.28,9.28,0,0,1,4-.87h.07a6.45,6.45,0,0,1,4.69,1.48,4.82,4.82,0,0,1,1.51,3.58,4,4,0,0,1-2.18,3.66,4.63,4.63,0,0,1,3.08,4.47,5.4,5.4,0,0,1-.37,2,5.54,5.54,0,0,1-1.16,1.76,5.44,5.44,0,0,1-2.16,1.3,9.7,9.7,0,0,1-3.19.47A11.36,11.36,0,0,1,347.89,479Z"/><path class="cls-6" d="M443.47,467.19c0-5.27,4-8.28,8.76-8.28a8,8,0,0,1,5.73,2.3l-1.33,1.71a6.47,6.47,0,0,0-4.3-1.78,5.77,5.77,0,0,0-6.11,6.05,5.7,5.7,0,0,0,6,6,7.48,7.48,0,0,0,4.85-2l1.19,1.75a9.34,9.34,0,0,1-6.24,2.45C447.16,475.4,443.47,472.4,443.47,467.19Z"/><path class="cls-6" d="M462.77,469.07V459.3h2.69v9.41c0,2.94,1,4.37,3.62,4.37,1.81,0,3.14-.85,4.88-2.88V459.3h2.69V475h-2.24l-.22-2.75h-.13c-1.59,1.84-3.43,3.13-5.85,3.13C464.49,475.4,462.77,473.2,462.77,469.07Z"/><path class="cls-6" d="M482,473l1.23-1.78A11.22,11.22,0,0,0,490,473.3c2.65,0,4-1.1,4-2.42s-.62-2-4.89-2.91c-4.1-.84-6.14-2.24-6.14-4.6,0-2.52,2.23-4.46,6.53-4.46a11.78,11.78,0,0,1,6.34,2l-1.29,1.71a9.32,9.32,0,0,0-5.28-1.65c-2.65,0-3.62,1.07-3.62,2.27,0,1.35,1.36,1.94,4.59,2.61,5.21,1.14,6.47,2.43,6.47,4.86s-2.49,4.68-7,4.68A13.87,13.87,0,0,1,482,473Z"/><path class="cls-6" d="M505.74,468.9v-7.43h-4.46v-2l4.56-.16.36-5h2.23v5h7.69v2.17h-7.69v7.47c0,2.81.93,4.26,4,4.26a10.31,10.31,0,0,0,3.75-.71l.59,2a14,14,0,0,1-4.92.93C507.23,475.4,505.74,472.78,505.74,468.9Z"/><path class="cls-6" d="M520.42,467.19c0-5.27,3.62-8.28,7.76-8.28s7.76,3,7.76,8.28-3.62,8.21-7.76,8.21S520.42,472.4,520.42,467.19Zm12.77,0c0-3.62-2-6.05-5-6.05s-5,2.43-5,6.05,2,6,5,6S533.19,470.78,533.19,467.19Z"/><path class="cls-6" d="M539.76,459.3h2.13l.23,2.07h.06c.81-1.46,1.78-2.46,3.59-2.46,1.55,0,2.52.91,3,2.72.9-1.68,1.87-2.72,3.68-2.72,2.2,0,3.49,1.72,3.49,4.85V475h-2.65V464c0-1.81-.51-2.75-1.68-2.75s-1.68.81-2.52,2.42V475h-2.46V464c0-1.81-.45-2.75-1.62-2.75s-1.81.81-2.58,2.42V475h-2.65Z"/><path class="cls-6" d="M565.62,456.1h-7v-2.3h16.74v2.3h-7V475h-2.72Z"/><path class="cls-6" d="M579.27,470.94c0-3.52,3.29-5.24,11.41-5.88-.1-2.14-1.13-3.95-4.17-3.95A10.92,10.92,0,0,0,581,463L580,461.18a13.67,13.67,0,0,1,7-2.27c4.3,0,6.4,2.56,6.4,6.47V475h-2.23l-.22-2.14h-.1a10.55,10.55,0,0,1-6.18,2.52C581.69,475.4,579.27,473.75,579.27,470.94Zm11.41,0v-4.08c-6.73.52-8.76,1.85-8.76,3.92,0,1.78,1.61,2.49,3.43,2.49A8.56,8.56,0,0,0,590.68,470.91Z"/><path class="cls-6" d="M598.37,473l1.23-1.78a11.25,11.25,0,0,0,6.83,2.13c2.65,0,3.94-1.1,3.94-2.42s-.61-2-4.88-2.91c-4.11-.84-6.15-2.24-6.15-4.6,0-2.52,2.23-4.46,6.54-4.46a11.75,11.75,0,0,1,6.33,2l-1.29,1.71a9.31,9.31,0,0,0-5.27-1.65c-2.65,0-3.62,1.07-3.62,2.27,0,1.35,1.36,1.94,4.59,2.61,5.21,1.14,6.47,2.43,6.47,4.86s-2.49,4.68-7,4.68A13.87,13.87,0,0,1,598.37,473Z"/><path class="cls-6" d="M618.87,452h2.69v15.56h.13l8.44-8.25h3.07l-11.64,11.45V475h-2.69Zm6,14.68,1.62-1.74L634,475h-3Z"/><path class="cls-6" d="M642,472.65a2.62,2.62,0,1,1,2.62,2.75A2.61,2.61,0,0,1,642,472.65Z"/><path class="cls-6" d="M659,459.3h2.24l.25,3.72h.07a8.28,8.28,0,0,1,7-4.11,6.54,6.54,0,0,1,3.1.65l-.62,2.3a7.75,7.75,0,0,0-2.91-.52c-2.36,0-4.59,1.19-6.46,4.49V475H659Z"/><path class="cls-6" d="M675.87,467.13a7.91,7.91,0,0,1,8-8.22c4.53,0,7.18,2.95,7.18,7.38a10.17,10.17,0,0,1-.13,1.61H677.65v-2.07h11.71l-.68.75c0-3.72-1.84-5.57-4.72-5.57s-5.43,2.2-5.43,6.12,2.65,6.14,6.14,6.14a8.52,8.52,0,0,0,4.78-1.49l1,1.75a10.77,10.77,0,0,1-6.07,1.87C679.62,475.4,675.87,472.36,675.87,467.13Z"/><path class="cls-6" d="M695,467.19c0-5.11,3.4-8.28,7.12-8.28a6.76,6.76,0,0,1,4.72,2h.06l-.13-2.88V452h2.69v23h-2.2L707,473H707a7.58,7.58,0,0,1-5.15,2.45C697.73,475.4,695,472.43,695,467.19Zm11.77,3.62V463a5.79,5.79,0,0,0-4.1-1.81c-2.72,0-4.92,2.39-4.92,6,0,3.75,1.75,6,4.63,6A5.93,5.93,0,0,0,706.78,470.81Z"/><path class="cls-6" d="M715,469.07V459.3h2.69v9.41c0,2.94,1,4.37,3.62,4.37,1.81,0,3.14-.85,4.88-2.88V459.3h2.69V475H726.6l-.22-2.75h-.13c-1.59,1.84-3.43,3.13-5.85,3.13C716.68,475.4,715,473.2,715,469.07Z"/><path class="cls-6" d="M734.46,467.19c0-5.27,4-8.28,8.76-8.28a8,8,0,0,1,5.73,2.3l-1.33,1.71a6.47,6.47,0,0,0-4.3-1.78,5.77,5.77,0,0,0-6.11,6.05,5.7,5.7,0,0,0,6,6,7.46,7.46,0,0,0,4.85-2l1.2,1.75a9.36,9.36,0,0,1-6.24,2.45C738.15,475.4,734.46,472.4,734.46,467.19Z"/><path class="cls-6" d="M753.47,467.13a7.91,7.91,0,0,1,8-8.22c4.53,0,7.18,2.95,7.18,7.38a11.51,11.51,0,0,1-.13,1.61H755.25v-2.07H767l-.67.75c0-3.72-1.85-5.57-4.73-5.57s-5.43,2.2-5.43,6.12,2.65,6.14,6.15,6.14a8.52,8.52,0,0,0,4.78-1.49l1,1.75a10.81,10.81,0,0,1-6.08,1.87C757.22,475.4,753.47,472.36,753.47,467.13Z"/><path class="cls-6" d="M777.4,466a18,18,0,0,1,7.24-14.68l1.49,1.35a17.17,17.17,0,0,0,0,26.65l-1.49,1.36A18,18,0,0,1,777.4,466Z"/><path class="cls-6" d="M797.15,472.65a2.62,2.62,0,1,1,2.62,2.75A2.62,2.62,0,0,1,797.15,472.65Z"/><path class="cls-6" d="M816.55,472.65a2.62,2.62,0,1,1,2.62,2.75A2.61,2.61,0,0,1,816.55,472.65Z"/><path class="cls-6" d="M836,472.65a2.62,2.62,0,1,1,2.62,2.75A2.61,2.61,0,0,1,836,472.65Z"/><path class="cls-6" d="M852.21,479.35a17.17,17.17,0,0,0,0-26.65l1.49-1.35a18.5,18.5,0,0,1,0,29.36Z"/><path class="cls-5" d="M847.47,743v-3.14l3.52-2h3.27v21.56h-3V740.79Z"/><path class="cls-5" d="M862.83,759.42v-2.81h3v2.81Z"/><path class="cls-5" d="M883.7,759.42V737.86H887l7.06,9.31,7.12-9.31h3.26v21.56h-3v-17L894,752.08l-7.31-9.66v17Z"/><path class="cls-5" d="M908.77,754.32a4.28,4.28,0,0,1,2-3.74,10.05,10.05,0,0,1,5.58-1.34,21.42,21.42,0,0,1,2.93.19,3.92,3.92,0,0,0-1.11-2.92,5,5,0,0,0-3.33-.89,13.84,13.84,0,0,0-4.47.81V743.9a13.62,13.62,0,0,1,4.88-.87,7.28,7.28,0,0,1,5.21,1.75,6.55,6.55,0,0,1,1.84,5v4.66a5.07,5.07,0,0,1-.11,1,5.52,5.52,0,0,1-.49,1.32,4.56,4.56,0,0,1-1.05,1.41,5.7,5.7,0,0,1-2,1,11.14,11.14,0,0,1-6.2,0,5.9,5.9,0,0,1-2-1.05,4.5,4.5,0,0,1-1.09-1.43,5,5,0,0,1-.59-2.42Zm3,0c0,1.82,1.3,2.73,3.88,2.73h0q3.65,0,3.65-2.62v-2.61a19.82,19.82,0,0,0-2.8-.2,8.26,8.26,0,0,0-1.36.12,12,12,0,0,0-1.53.37,2.94,2.94,0,0,0-1.35.83A2,2,0,0,0,911.72,754.29Z"/><path class="cls-5" d="M926.34,765.56V748.23a6.1,6.1,0,0,1,.1-1,5.18,5.18,0,0,1,.48-1.3A4.6,4.6,0,0,1,928,744.5a5.51,5.51,0,0,1,2-1A9.91,9.91,0,0,1,933,743a10.29,10.29,0,0,1,1.76.16,6.43,6.43,0,0,1,1.87.71,6,6,0,0,1,1.76,1.44,7.05,7.05,0,0,1,1.24,2.49,12.5,12.5,0,0,1,.5,3.7,11.27,11.27,0,0,1-.66,4.09,5.32,5.32,0,0,1-1.8,2.52,8,8,0,0,1-2.35,1.18,9.33,9.33,0,0,1-2.62.35,12.14,12.14,0,0,1-3.43-.47v6.36Zm3-9.19a9.24,9.24,0,0,0,3.43.65,6.48,6.48,0,0,0,1.7-.19,3.82,3.82,0,0,0,1.38-.72,3.31,3.31,0,0,0,1-1.69,9.75,9.75,0,0,0,.36-2.89,11.38,11.38,0,0,0-.36-3.12,3.46,3.46,0,0,0-2.33-2.58,4.87,4.87,0,0,0-1.49-.21q-3.74,0-3.73,2.42Z"/><path class="cls-5" d="M955.82,759.42V737.86h7.78a8.06,8.06,0,0,1,5.57,1.77,7.34,7.34,0,0,1,0,10,8.08,8.08,0,0,1-5.57,1.77h-4.77v8Zm3-10.64h4.49c1.91,0,3.2-.37,3.84-1.11a4.39,4.39,0,0,0,1-3,4.45,4.45,0,0,0-1-3c-.64-.74-1.93-1.11-3.85-1.11h-4.49Z"/><path class="cls-5" d="M975,759.42V737.11h3v6.72a11.8,11.8,0,0,1,4.27-.8,6.06,6.06,0,0,1,4.68,1.8,7.15,7.15,0,0,1,1.67,5.09v9.5h-3V749.8c0-1.58-.34-2.64-1-3.17a4.15,4.15,0,0,0-2.62-.79,11,11,0,0,0-4,.78v12.8Z"/><path class="cls-5" d="M992.18,754.32a4.26,4.26,0,0,1,2-3.74,10.05,10.05,0,0,1,5.58-1.34,21.53,21.53,0,0,1,2.93.19,4,4,0,0,0-1.11-2.92,5.06,5.06,0,0,0-3.34-.89,13.79,13.79,0,0,0-4.46.81V743.9a13.57,13.57,0,0,1,4.87-.87,7.32,7.32,0,0,1,5.22,1.75,6.59,6.59,0,0,1,1.83,5v4.66a5.07,5.07,0,0,1-.1,1,6,6,0,0,1-.49,1.32,4.56,4.56,0,0,1-1,1.41,5.79,5.79,0,0,1-2,1,9.92,9.92,0,0,1-3.08.43,9.78,9.78,0,0,1-3.12-.45,6,6,0,0,1-2-1.05,4.62,4.62,0,0,1-1.08-1.43,5.26,5.26,0,0,1-.5-1.36A6.41,6.41,0,0,1,992.18,754.32Zm3,0q0,2.73,3.87,2.73h0q3.66,0,3.66-2.62v-2.61a19.86,19.86,0,0,0-2.81-.2,8.05,8.05,0,0,0-1.35.12,12,12,0,0,0-1.53.37,2.84,2.84,0,0,0-1.35.83A2,2,0,0,0,995.13,754.29Z"/><path class="cls-5" d="M1009.07,747.84a4.59,4.59,0,0,1,1.43-3.4,6,6,0,0,1,4.36-1.41,9.69,9.69,0,0,1,4.32,1.06v2.56a9.51,9.51,0,0,0-3.95-1c-2.14,0-3.21.68-3.21,2.06a1.31,1.31,0,0,0,.85,1.12,10.32,10.32,0,0,0,2.06.79,25.19,25.19,0,0,1,2.4.82,4.83,4.83,0,0,1,2.06,1.61,4.76,4.76,0,0,1-.61,6.17,6.32,6.32,0,0,1-4.53,1.41,9.48,9.48,0,0,1-4.66-1.13v-2.7a9,9,0,0,0,4.47,1.18h.06a4.18,4.18,0,0,0,2.36-.56,1.67,1.67,0,0,0,.81-1.42,1.88,1.88,0,0,0-.84-1.6,6.65,6.65,0,0,0-2.06-1c-.81-.22-1.62-.47-2.42-.75a4.75,4.75,0,0,1-2.06-1.39A3.68,3.68,0,0,1,1009.07,747.84Z"/><path class="cls-5" d="M1023.36,751.54q0-8.5,7.12-8.51h0a6.67,6.67,0,0,1,5.17,2.12,8,8,0,0,1,1.93,5.66q0,1.16-.09,2.22h-11.15c.36,2.76,1.88,4.15,4.55,4.15a11.9,11.9,0,0,0,5.57-1.21v2.68a14.38,14.38,0,0,1-5.63,1.05h-.1a9.07,9.07,0,0,1-2.62-.35,7.81,7.81,0,0,1-2.34-1.18,5.49,5.49,0,0,1-1.79-2.52A11.58,11.58,0,0,1,1023.36,751.54Zm3-1.17h8.29a7.53,7.53,0,0,0-.27-1.53,6.88,6.88,0,0,0-.65-1.5,3.17,3.17,0,0,0-1.26-1.2,4,4,0,0,0-2-.45,3.84,3.84,0,0,0-3,1A6.14,6.14,0,0,0,1026.32,750.37Z"/><path class="cls-5" d="M846.62,823.21V821c1.17-.89,2.29-1.82,3.38-2.81s2.19-2.09,3.32-3.31a18.22,18.22,0,0,0,2.71-3.73,7.33,7.33,0,0,0,1-3.41q0-3.5-4.78-3.5a9.3,9.3,0,0,0-5.31,1.63V803a11.18,11.18,0,0,1,5.7-1.57q3.76,0,5.55,1.85a6.08,6.08,0,0,1,1.8,4.42q0,5.52-8.2,12.74h8.42v2.81Z"/><path class="cls-5" d="M867,823.21V820.4h3v2.81Z"/><path class="cls-5" d="M887.87,823.21V801.65h14.07v2.81H890.88V811h9.73v2.81h-9.73v6.57h11.06v2.81Z"/><path class="cls-5" d="M904.45,823.21l5.82-8.05-5.68-8.08h3.61l3.82,5.4,3.81-5.4h3.63l-5.7,7.86,5.83,8.27H916L912,817.62l-3.94,5.59Z"/><path class="cls-5" d="M922.13,815.34q0-8.52,7.12-8.52h0a6.67,6.67,0,0,1,5.17,2.12,8.06,8.06,0,0,1,1.93,5.66q0,1.15-.09,2.22H925.14q.54,4.15,4.55,4.15a11.78,11.78,0,0,0,5.57-1.21v2.68a14.2,14.2,0,0,1-5.63,1.06h-.1a9.12,9.12,0,0,1-2.62-.36,7.65,7.65,0,0,1-2.33-1.18,5.44,5.44,0,0,1-1.8-2.52A11.56,11.56,0,0,1,922.13,815.34Zm3-1.17h8.28a7.62,7.62,0,0,0-.27-1.54,6.88,6.88,0,0,0-.65-1.5,3.21,3.21,0,0,0-1.25-1.2,4,4,0,0,0-2-.45,3.84,3.84,0,0,0-3,1A6.09,6.09,0,0,0,925.1,814.17Z"/><path class="cls-5" d="M941.51,821.33q-1.92-2.13-1.92-6.19t1.92-6.18a7.14,7.14,0,0,1,5.59-2.14,12.9,12.9,0,0,1,4.76.9v2.82a10.12,10.12,0,0,0-4.44-1.06h-.06a5,5,0,0,0-3.49,1.14c-.84.77-1.27,2.28-1.27,4.52a9.88,9.88,0,0,0,.38,3,3.37,3.37,0,0,0,1.1,1.75,4,4,0,0,0,1.48.76,7.25,7.25,0,0,0,1.8.19,10.42,10.42,0,0,0,4.5-1v2.8a13.09,13.09,0,0,1-4.76.88A7.13,7.13,0,0,1,941.51,821.33Z"/><path class="cls-5" d="M955.46,816.42v-9.34h2.95v9.58a4.64,4.64,0,0,0,.94,3.22,4.7,4.7,0,0,0,5.86,0,4.76,4.76,0,0,0,.92-3.23v-9.58h3v9.34a7.21,7.21,0,0,1-1.78,5.22,7.72,7.72,0,0,1-10,0A7.22,7.22,0,0,1,955.46,816.42Z"/><path class="cls-5" d="M972.25,809.6v-2.52h2.81v-4.79h3v4.79h4.29v2.52H978v9.33c0,1.25.79,1.88,2.38,1.88h0a3.5,3.5,0,0,0,1.88-.47V823a5.81,5.81,0,0,1-2.21.44H980a5.7,5.7,0,0,1-1.25-.14,7.61,7.61,0,0,1-1.58-.56,3.33,3.33,0,0,1-1.53-1.45,5,5,0,0,1-.6-2.56V809.6Z"/><path class="cls-5" d="M986.21,804.58v-3.12h3.14v3.12Zm.09,18.63V807.08h3v16.13Z"/><path class="cls-5" d="M994.2,819.33a13.13,13.13,0,0,1,0-8.34,5.67,5.67,0,0,1,1.86-2.57,7.75,7.75,0,0,1,2.4-1.21,10.47,10.47,0,0,1,5.37,0,7.75,7.75,0,0,1,2.4,1.21,5.67,5.67,0,0,1,1.86,2.57,13.13,13.13,0,0,1,0,8.34,5.67,5.67,0,0,1-1.86,2.57,7.75,7.75,0,0,1-2.4,1.21,10.47,10.47,0,0,1-5.37,0,7.75,7.75,0,0,1-2.4-1.21A5.67,5.67,0,0,1,994.2,819.33Zm2.69-7.14a12.82,12.82,0,0,0,0,5.95,3.44,3.44,0,0,0,1.06,1.73,3.77,3.77,0,0,0,1.44.75,8.2,8.2,0,0,0,3.51,0,3.77,3.77,0,0,0,1.44-.75,3.44,3.44,0,0,0,1.06-1.73,12.82,12.82,0,0,0,0-5.95,3.47,3.47,0,0,0-1.06-1.74,3.77,3.77,0,0,0-1.44-.75,8.2,8.2,0,0,0-3.51,0,3.77,3.77,0,0,0-1.44.75A3.47,3.47,0,0,0,996.89,812.19Z"/><path class="cls-5" d="M1012.49,823.21V808.45a15.35,15.35,0,0,1,6.88-1.66,6.79,6.79,0,0,1,4.8,1.6,5.68,5.68,0,0,1,1.74,4.42v10.4h-3V812.58a3.26,3.26,0,0,0-.73-2.25c-.48-.55-1.46-.82-2.93-.82a12.31,12.31,0,0,0-3.79.58v13.12Z"/><path class="cls-5" d="M1042.46,823.21V801.65h7.78a8.06,8.06,0,0,1,5.57,1.77,7.34,7.34,0,0,1,0,10,8.08,8.08,0,0,1-5.57,1.77h-4.76v8Zm3-10.64H1050c1.91,0,3.2-.37,3.84-1.11a4.37,4.37,0,0,0,1-3,4.45,4.45,0,0,0-1-3c-.64-.74-1.93-1.11-3.85-1.11h-4.48Z"/><path class="cls-5" d="M1061.63,823.21V800.9h2.95v6.72a11.8,11.8,0,0,1,4.27-.8,6.06,6.06,0,0,1,4.68,1.8,7.15,7.15,0,0,1,1.67,5.09v9.5h-3v-9.62c0-1.58-.34-2.64-1-3.16a4.09,4.09,0,0,0-2.62-.8,11,11,0,0,0-4,.78v12.8Z"/><path class="cls-5" d="M1078.82,818.11a4.26,4.26,0,0,1,2-3.74,10.05,10.05,0,0,1,5.58-1.34,21.53,21.53,0,0,1,2.93.19,4,4,0,0,0-1.11-2.92,5,5,0,0,0-3.33-.89,13.84,13.84,0,0,0-4.47.81v-2.53a13.58,13.58,0,0,1,4.88-.87,7.31,7.31,0,0,1,5.21,1.75,6.59,6.59,0,0,1,1.83,5v4.66a5.07,5.07,0,0,1-.1,1,6,6,0,0,1-.49,1.32,4.56,4.56,0,0,1-1,1.41,5.62,5.62,0,0,1-2,1,11.14,11.14,0,0,1-6.2,0,6,6,0,0,1-2-1,4.62,4.62,0,0,1-1.08-1.43,5.51,5.51,0,0,1-.5-1.36A6.41,6.41,0,0,1,1078.82,818.11Zm3,0q0,2.73,3.88,2.73h0q3.66,0,3.66-2.62v-2.6a18.34,18.34,0,0,0-2.81-.21,8.05,8.05,0,0,0-1.35.12,12,12,0,0,0-1.53.37,2.92,2.92,0,0,0-1.35.83A2,2,0,0,0,1081.77,818.08Z"/><path class="cls-5" d="M1095.71,811.63a4.59,4.59,0,0,1,1.43-3.4,6,6,0,0,1,4.36-1.41,9.69,9.69,0,0,1,4.32,1.06v2.56a9.51,9.51,0,0,0-4-1c-2.14,0-3.21.68-3.21,2.06a1.32,1.32,0,0,0,.86,1.13,10.62,10.62,0,0,0,2,.78,25.19,25.19,0,0,1,2.4.82,4.83,4.83,0,0,1,2.06,1.61,4.76,4.76,0,0,1-.61,6.17,6.31,6.31,0,0,1-4.53,1.41,9.48,9.48,0,0,1-4.66-1.13v-2.7a9,9,0,0,0,4.47,1.18h.06a4.1,4.1,0,0,0,2.36-.56,1.67,1.67,0,0,0,.82-1.42,1.9,1.9,0,0,0-.85-1.6,6.42,6.42,0,0,0-2.06-.94c-.81-.23-1.62-.48-2.42-.76a4.66,4.66,0,0,1-2-1.39A3.64,3.64,0,0,1,1095.71,811.63Z"/><path class="cls-5" d="M1110,815.34q0-8.52,7.12-8.52h0a6.67,6.67,0,0,1,5.17,2.12,8.06,8.06,0,0,1,1.93,5.66q0,1.15-.09,2.22H1113q.54,4.15,4.55,4.15a11.78,11.78,0,0,0,5.57-1.21v2.68a14.2,14.2,0,0,1-5.63,1.06h-.1a9.07,9.07,0,0,1-2.62-.36,7.65,7.65,0,0,1-2.33-1.18,5.44,5.44,0,0,1-1.8-2.52A11.56,11.56,0,0,1,1110,815.34Zm3-1.17h8.28a7.62,7.62,0,0,0-.27-1.54,6.88,6.88,0,0,0-.65-1.5,3.21,3.21,0,0,0-1.25-1.2,4,4,0,0,0-2-.45,3.84,3.84,0,0,0-3,1A6.09,6.09,0,0,0,1113,814.17Z"/><path class="cls-5" d="M846.74,886v-2.94a10.47,10.47,0,0,0,5.28,1.46q5.33,0,5.33-3.8T851.7,877h-1.88v-2.66h1.82c3.1,0,4.66-1,4.66-3.14s-1.54-3.15-4.61-3.15h-.05a9.06,9.06,0,0,0-4.39,1.08v-2.87a11,11,0,0,1,4.67-1H852c2.51,0,4.35.59,5.53,1.75a5.67,5.67,0,0,1,1.78,4.22,4.74,4.74,0,0,1-2.56,4.31,5.45,5.45,0,0,1,3.62,5.26,6.23,6.23,0,0,1-1.8,4.45A6.36,6.36,0,0,1,856,886.7a11.56,11.56,0,0,1-3.75.56A13.31,13.31,0,0,1,846.74,886Z"/><path class="cls-5" d="M865.48,887v-2.81h3V887Z"/><path class="cls-5" d="M886.35,887V865.44h8a8.73,8.73,0,0,1,5.69,1.69,5.86,5.86,0,0,1,2.08,4.83,6.14,6.14,0,0,1-1.38,4.21,7.06,7.06,0,0,1-3.45,2.14L903,887h-3.55l-5.21-8.21h-4.85V887Zm3-11h4.81c1.88,0,3.16-.36,3.85-1.09a4,4,0,0,0,1-2.84q0-4-5-4h-4.69Z"/><path class="cls-5" d="M905.52,879.13q0-8.52,7.12-8.51h0a6.66,6.66,0,0,1,5.17,2.11,8.07,8.07,0,0,1,1.94,5.66c0,.77,0,1.51-.1,2.22H908.54c.35,2.77,1.87,4.15,4.54,4.15a11.78,11.78,0,0,0,5.57-1.21v2.69a14.38,14.38,0,0,1-5.63,1h-.1a9.12,9.12,0,0,1-2.62-.36,7.65,7.65,0,0,1-2.33-1.18,5.35,5.35,0,0,1-1.79-2.52A11.33,11.33,0,0,1,905.52,879.13Zm3-1.17h8.29a8.39,8.39,0,0,0-.28-1.54,6.62,6.62,0,0,0-.65-1.49,3.17,3.17,0,0,0-1.25-1.21,4,4,0,0,0-2-.45,3.84,3.84,0,0,0-3,1.05A6.16,6.16,0,0,0,908.49,878Z"/><path class="cls-5" d="M922.93,878.73a11.17,11.17,0,0,1,.67-4.08,5.49,5.49,0,0,1,1.81-2.52,7.14,7.14,0,0,1,2.34-1.17,9.4,9.4,0,0,1,2.6-.34,12.71,12.71,0,0,1,3.45.48v-6.34h3V882a6,6,0,0,1-.1,1,6.57,6.57,0,0,1-.49,1.32,4.64,4.64,0,0,1-1,1.4,5.54,5.54,0,0,1-2,1,9.71,9.71,0,0,1-3,.44,10.36,10.36,0,0,1-1.79-.16,6.59,6.59,0,0,1-1.88-.71,6,6,0,0,1-1.75-1.44,7.59,7.59,0,0,1-1.23-2.49A12.28,12.28,0,0,1,922.93,878.73Zm3,0a11.26,11.26,0,0,0,.35,3.1,3.69,3.69,0,0,0,1,1.8,3.8,3.8,0,0,0,1.3.77,5,5,0,0,0,1.53.2q3.72,0,3.71-2.4v-8.26a9,9,0,0,0-3.45-.67,6.42,6.42,0,0,0-1.68.19,3.67,3.67,0,0,0-1.4.72,3.31,3.31,0,0,0-1,1.67A9.76,9.76,0,0,0,925.89,878.73Z"/><path class="cls-5" d="M941.48,880.21v-9.34h3v9.58a4.69,4.69,0,0,0,.93,3.22,3.79,3.79,0,0,0,2.94,1,3.74,3.74,0,0,0,2.92-1,4.7,4.7,0,0,0,.93-3.23v-9.58h3v9.34a7.24,7.24,0,0,1-1.78,5.22,7.72,7.72,0,0,1-10.05,0A7.16,7.16,0,0,1,941.48,880.21Z"/><path class="cls-5" d="M960.93,885.12Q959,883,959,878.94t1.92-6.19a7.12,7.12,0,0,1,5.59-2.13,12.85,12.85,0,0,1,4.75.9v2.81a10,10,0,0,0-4.43-1.06h-.06a5,5,0,0,0-3.49,1.15c-.85.76-1.27,2.27-1.27,4.52a10.23,10.23,0,0,0,.37,3,3.45,3.45,0,0,0,1.11,1.75,4,4,0,0,0,1.48.76,7.25,7.25,0,0,0,1.8.19,10.34,10.34,0,0,0,4.49-1v2.8a13,13,0,0,1-4.75.89A7.13,7.13,0,0,1,960.93,885.12Z"/><path class="cls-5" d="M974.16,879.13q0-8.52,7.12-8.51h0a6.67,6.67,0,0,1,5.17,2.11,8.11,8.11,0,0,1,1.93,5.66c0,.77,0,1.51-.1,2.22H977.18c.36,2.77,1.87,4.15,4.55,4.15a11.84,11.84,0,0,0,5.57-1.21v2.69a14.39,14.39,0,0,1-5.64,1h-.09a9.07,9.07,0,0,1-2.62-.36,7.81,7.81,0,0,1-2.34-1.18,5.42,5.42,0,0,1-1.79-2.52A11.33,11.33,0,0,1,974.16,879.13Zm3-1.17h8.29a7,7,0,0,0-.28-1.54,6.57,6.57,0,0,0-.64-1.49,3.13,3.13,0,0,0-1.26-1.21,4,4,0,0,0-2-.45,3.87,3.87,0,0,0-3,1.05A6.23,6.23,0,0,0,977.13,878Z"/><path class="cls-5" d="M1003.76,887V865.44h7.79a8.08,8.08,0,0,1,5.57,1.77,7.37,7.37,0,0,1,0,10,8.09,8.09,0,0,1-5.58,1.77h-4.76v8Zm3-10.64h4.48c1.92,0,3.2-.37,3.85-1.11a5.11,5.11,0,0,0,0-6c-.65-.75-1.93-1.12-3.86-1.12h-4.48Z"/><path class="cls-5" d="M1022.93,887V864.7h3v6.71a11.83,11.83,0,0,1,4.27-.79,6.06,6.06,0,0,1,4.69,1.79,7.19,7.19,0,0,1,1.67,5.09V887h-3v-9.62c0-1.58-.33-2.64-1-3.16a4.11,4.11,0,0,0-2.62-.79,11,11,0,0,0-4,.77V887Z"/><path class="cls-5" d="M1040.12,881.9a4.24,4.24,0,0,1,2-3.73,9.91,9.91,0,0,1,5.57-1.35,21.42,21.42,0,0,1,2.93.19,3.92,3.92,0,0,0-1.11-2.92,5,5,0,0,0-3.33-.89,13.84,13.84,0,0,0-4.47.81v-2.53a13.84,13.84,0,0,1,4.88-.86,7.27,7.27,0,0,1,5.21,1.74,6.55,6.55,0,0,1,1.84,5V882a5.89,5.89,0,0,1-.1,1,5.76,5.76,0,0,1-.5,1.32,4.41,4.41,0,0,1-1,1.41,5.54,5.54,0,0,1-2,1,9.84,9.84,0,0,1-3.07.44,9.6,9.6,0,0,1-3.13-.46,5.9,5.9,0,0,1-2-1,4.43,4.43,0,0,1-1.08-1.42,5.3,5.3,0,0,1-.5-1.37A5.44,5.44,0,0,1,1040.12,881.9Zm3,0q0,2.73,3.87,2.73h0q3.64,0,3.65-2.62v-2.6a18.2,18.2,0,0,0-2.8-.21,8.26,8.26,0,0,0-1.36.12,11.5,11.5,0,0,0-1.52.37,3,3,0,0,0-1.36.83A2,2,0,0,0,1043.08,881.87Z"/><path class="cls-5" d="M1057,875.43a4.59,4.59,0,0,1,1.42-3.41,6,6,0,0,1,4.37-1.4,9.68,9.68,0,0,1,4.32,1v2.56a9.55,9.55,0,0,0-4-1c-2.13,0-3.2.69-3.2,2.06a1.31,1.31,0,0,0,.85,1.13,10.87,10.87,0,0,0,2,.78c.8.23,1.6.5,2.41.82a4.84,4.84,0,0,1,2.06,1.62,4.78,4.78,0,0,1-.61,6.16,6.35,6.35,0,0,1-4.54,1.42,9.48,9.48,0,0,1-4.65-1.14v-2.7a8.94,8.94,0,0,0,4.46,1.18h.07a4.1,4.1,0,0,0,2.36-.56,1.66,1.66,0,0,0,.81-1.42,1.89,1.89,0,0,0-.84-1.6,6.52,6.52,0,0,0-2.06-.94c-.81-.23-1.62-.48-2.43-.76a4.79,4.79,0,0,1-2.05-1.38A3.71,3.71,0,0,1,1057,875.43Z"/><path class="cls-5" d="M1071.3,879.13q0-8.52,7.12-8.51h0a6.64,6.64,0,0,1,5.17,2.11,8.07,8.07,0,0,1,1.94,5.66c0,.77,0,1.51-.1,2.22h-11.14q.54,4.15,4.54,4.15a11.85,11.85,0,0,0,5.58-1.21v2.69a14.43,14.43,0,0,1-5.64,1h-.09a9.07,9.07,0,0,1-2.62-.36,7.81,7.81,0,0,1-2.34-1.18,5.42,5.42,0,0,1-1.79-2.52A11.33,11.33,0,0,1,1071.3,879.13Zm3-1.17h8.29a7.07,7.07,0,0,0-.92-3,3.13,3.13,0,0,0-1.26-1.21,4,4,0,0,0-2-.45,3.87,3.87,0,0,0-3,1.05A6.16,6.16,0,0,0,1074.27,878Z"/><path class="cls-7" d="M565.06,245.56l5.11-12.8h1.74l5.09,12.8h-1.92L573.7,242h-5.34L567,245.56Zm3.94-5.25h4.07L571,235Z"/><path class="cls-7" d="M579,249.21V238.92a3.15,3.15,0,0,1,.06-.61,3,3,0,0,1,.28-.78,2.73,2.73,0,0,1,.62-.82,3.32,3.32,0,0,1,1.18-.61,5.7,5.7,0,0,1,1.83-.26,6,6,0,0,1,1,.09,3.81,3.81,0,0,1,1.12.42,3.6,3.6,0,0,1,1,.86,4.2,4.2,0,0,1,.73,1.47,7.36,7.36,0,0,1,.3,2.2,6.73,6.73,0,0,1-.39,2.43,3.27,3.27,0,0,1-1.07,1.5,4.87,4.87,0,0,1-1.39.69,5.45,5.45,0,0,1-1.56.21,7.23,7.23,0,0,1-2-.28v3.78Zm1.75-5.45a5.76,5.76,0,0,0,2,.38,4.21,4.21,0,0,0,1-.11,2.4,2.4,0,0,0,.82-.43,2.1,2.1,0,0,0,.62-1,5.93,5.93,0,0,0,.21-1.72,6.88,6.88,0,0,0-.21-1.85,2.22,2.22,0,0,0-.61-1.07,2.13,2.13,0,0,0-.78-.46,3,3,0,0,0-.88-.13q-2.22,0-2.22,1.44Z"/><path class="cls-7" d="M589.48,249.21V238.92a3.15,3.15,0,0,1,.06-.61,3.41,3.41,0,0,1,.28-.78,2.77,2.77,0,0,1,.63-.82,3.15,3.15,0,0,1,1.18-.61,5.59,5.59,0,0,1,1.82-.26,5.92,5.92,0,0,1,1,.09,3.71,3.71,0,0,1,1.12.42,3.6,3.6,0,0,1,1,.86,4.2,4.2,0,0,1,.74,1.47,7.72,7.72,0,0,1,.29,2.2,6.73,6.73,0,0,1-.39,2.43,3.2,3.2,0,0,1-1.07,1.5,4.75,4.75,0,0,1-1.39.69,5.45,5.45,0,0,1-1.56.21,7.21,7.21,0,0,1-2-.28v3.78Zm1.76-5.45a5.71,5.71,0,0,0,2,.38,4.15,4.15,0,0,0,1-.11,2.4,2.4,0,0,0,.82-.43,2,2,0,0,0,.62-1,5.93,5.93,0,0,0,.21-1.72,6.88,6.88,0,0,0-.21-1.85,2.08,2.08,0,0,0-.61-1.07,2.13,2.13,0,0,0-.78-.46,2.91,2.91,0,0,0-.88-.13c-1.48,0-2.21.48-2.21,1.44Z"/><path class="cls-7" d="M600.34,245.56V232.34h1.75v13.22Z"/><path class="cls-7" d="M605.25,234.51v-1.86h1.87v1.86Zm.06,11.05V236h1.75v9.57Z"/><path class="cls-7" d="M610.72,244.45a6.49,6.49,0,0,1,0-7.35,4.25,4.25,0,0,1,3.32-1.26,7.72,7.72,0,0,1,2.82.53V238a6,6,0,0,0-2.63-.63h0a3,3,0,0,0-2.07.68,3.63,3.63,0,0,0-.75,2.69,6.24,6.24,0,0,0,.22,1.76,2.08,2.08,0,0,0,.66,1,2.54,2.54,0,0,0,.88.45,4.6,4.6,0,0,0,1.06.11,6.13,6.13,0,0,0,2.67-.61v1.66a7.71,7.71,0,0,1-2.82.52A4.25,4.25,0,0,1,610.72,244.45Z"/><path class="cls-7" d="M618.63,242.54a2.52,2.52,0,0,1,1.2-2.22,6,6,0,0,1,3.31-.8,14,14,0,0,1,1.74.11,2.29,2.29,0,0,0-.66-1.73,3,3,0,0,0-2-.53,8.28,8.28,0,0,0-2.66.48v-1.5a8.19,8.19,0,0,1,2.9-.51,4.32,4.32,0,0,1,3.09,1,3.91,3.91,0,0,1,1.09,3v2.76a3.26,3.26,0,0,1-.06.62,3.71,3.71,0,0,1-.29.78,2.44,2.44,0,0,1-.63.83,3.3,3.3,0,0,1-1.18.62,5.93,5.93,0,0,1-1.82.25,6.1,6.1,0,0,1-1.86-.26,3.51,3.51,0,0,1-1.2-.63A2.61,2.61,0,0,1,619,244a3.46,3.46,0,0,1-.3-.81A3.52,3.52,0,0,1,618.63,242.54Zm1.76,0c0,1.08.76,1.62,2.3,1.62h0c1.45,0,2.17-.52,2.17-1.56V241a9.83,9.83,0,0,0-1.66-.12,4.67,4.67,0,0,0-.81.07,5.86,5.86,0,0,0-.9.22,1.81,1.81,0,0,0-.81.49A1.16,1.16,0,0,0,620.39,242.52Z"/><path class="cls-7" d="M628,237.49V236h1.67v-2.84h1.75V236H634v1.5h-2.55V243c0,.75.47,1.12,1.42,1.12h0a2.09,2.09,0,0,0,1.12-.28v1.59a3.44,3.44,0,0,1-1.31.26h-.05a3.28,3.28,0,0,1-.74-.08,5.37,5.37,0,0,1-.94-.33,2,2,0,0,1-.91-.86,3.08,3.08,0,0,1-.35-1.52v-5.43Z"/><path class="cls-7" d="M636.32,234.51v-1.86h1.87v1.86Zm.06,11.05V236h1.75v9.57Z"/><path class="cls-7" d="M641.07,243.26a7.68,7.68,0,0,1,0-4.95,3.3,3.3,0,0,1,1.1-1.52,4.54,4.54,0,0,1,1.42-.72,5.79,5.79,0,0,1,1.6-.21,5.72,5.72,0,0,1,1.59.21,4.58,4.58,0,0,1,1.43.72,3.37,3.37,0,0,1,1.1,1.52,7.86,7.86,0,0,1,0,4.95,3.32,3.32,0,0,1-1.1,1.52,4.58,4.58,0,0,1-1.43.72,5.72,5.72,0,0,1-1.59.21,5.79,5.79,0,0,1-1.6-.21,4.54,4.54,0,0,1-1.42-.72A3.25,3.25,0,0,1,641.07,243.26Zm1.59-4.24a7.52,7.52,0,0,0,0,3.53,2,2,0,0,0,.63,1,2.51,2.51,0,0,0,.85.45,4.51,4.51,0,0,0,1.05.11,4.42,4.42,0,0,0,1-.11,2.42,2.42,0,0,0,.85-.45,2,2,0,0,0,.63-1,7.52,7.52,0,0,0,0-3.53,2,2,0,0,0-.63-1,2.42,2.42,0,0,0-.85-.45,4.42,4.42,0,0,0-1-.11,4.51,4.51,0,0,0-1.05.11,2.51,2.51,0,0,0-.85.45A2,2,0,0,0,642.66,239Z"/><path class="cls-7" d="M651.92,245.56V236.8a9.21,9.21,0,0,1,4.09-1,4,4,0,0,1,2.85,1,3.36,3.36,0,0,1,1,2.62v6.17H658.1v-6.31a1.92,1.92,0,0,0-.43-1.33,2.3,2.3,0,0,0-1.74-.49,7.35,7.35,0,0,0-2.25.35v7.78Z"/><path class="cls-7" d="M662.28,238.69a2.72,2.72,0,0,1,.85-2,3.58,3.58,0,0,1,2.59-.83,5.69,5.69,0,0,1,2.56.63V238a5.65,5.65,0,0,0-2.35-.57c-1.26,0-1.9.41-1.9,1.23a.77.77,0,0,0,.51.66,5.66,5.66,0,0,0,1.22.47c.47.14,1,.3,1.42.49a2.76,2.76,0,0,1,1.22,1,2.65,2.65,0,0,1,.51,1.66,2.69,2.69,0,0,1-.87,2,3.78,3.78,0,0,1-2.69.83,5.64,5.64,0,0,1-2.76-.67v-1.6a5.28,5.28,0,0,0,2.65.7h0a2.48,2.48,0,0,0,1.4-.33,1,1,0,0,0,.48-.85,1.13,1.13,0,0,0-.5-1,3.93,3.93,0,0,0-1.22-.56c-.48-.13-1-.28-1.44-.44a2.78,2.78,0,0,1-1.22-.83A2.2,2.2,0,0,1,662.28,238.69Z"/><path class="cls-8" d="M616.22,258.54v62.13a1,1,0,1,0,1.9,0V258.54a1,1,0,0,0-1.9,0Z"/><path class="cls-9" d="M678.18,885.2s-3.92,5.94,3.78,7.15c.75.09,6.33.67,7.77,2.5,0,0-.13-3.15-4.66-5S678.68,887.52,678.18,885.2Z"/><path class="cls-9" d="M682,872.43s-11,6.68-.63,13.33c2,1.28,9.19,4.89,9,8.2,0,0,4.37-6.47-2-10.52C681.77,879.27,680.13,874.83,682,872.43Z"/><path class="cls-9" d="M693.31,879c-4.69-4.92-6-8-4-11.89,0,0-14,5.39-.18,15,5,3.42,4.13,6.92,4.13,7.05C694.05,888.28,698,883.89,693.31,879Z"/><text class="cls-10" transform="translate(702.88 890.03)">N<tspan class="cls-11" x="13.72" y="0">O</tspan><tspan class="cls-12" x="27.44" y="0">D</tspan><tspan class="cls-13" x="39.86" y="0">E</tspan></text><path class="cls-6" d="M715.23,693.17c-27.6,0-56.15,6.25-56.15,16.72V844.27a6.2,6.2,0,0,0,1.2,3.61,10.26,10.26,0,0,0,1.37,1.59c7.14,6.9,28.67,11.53,53.58,11.53s46.46-4.63,53.59-11.52a10.32,10.32,0,0,0,1.38-1.6,6.2,6.2,0,0,0,1.2-3.61V709.89C771.4,699.42,742.84,693.17,715.23,693.17Z"/><path class="cls-9" d="M753.71,695.9c-10.42-2.83-24.45-4.45-38.48-4.45s-28.05,1.62-38.47,4.45c-12.2,3.31-18.65,8-18.65,13.59V844.67a7.65,7.65,0,0,0,1.45,4.42,12.48,12.48,0,0,0,1.55,1.8c7.32,7.07,29.07,11.83,54.12,11.83s46.82-4.76,54.14-11.84a12,12,0,0,0,1.55-1.79,7.67,7.67,0,0,0,1.45-4.42V709.49C772.37,703.91,765.92,699.21,753.71,695.9Zm13,150.24a6.36,6.36,0,0,1-.88,1c-6.25,6-27.53,10.41-50.6,10.41s-44.33-4.38-50.58-10.41a7.49,7.49,0,0,1-.89-1,2.63,2.63,0,0,1-.52-1.47V717.44a28.11,28.11,0,0,0,3.82,2.17l.06,0c.69.34,1.42.66,2.18,1l.19.08c.74.3,1.51.6,2.31.88l.29.1c.68.24,1.39.47,2.11.69l.65.21,2.1.59,1,.26,2.11.52,1.22.28,2.1.44,1.41.27q.82.17,1.68.3c.63.12,1.28.22,1.93.33l1.58.24,2.08.28,1.8.23,1.63.19q1.2.13,2.43.24l1.24.12,3,.23,1.06.07c1.08.07,2.16.13,3.25.18l.81,0c1.18,0,2.38.09,3.58.12h.48c1.31,0,2.63,0,4,0s2.64,0,3.95,0h.49q1.8,0,3.57-.12l.82,0c1.09-.05,2.17-.11,3.25-.18l1.07-.07,3-.23,1.27-.12c.79-.07,1.58-.15,2.36-.24l1.7-.19,1.77-.22c.71-.1,1.42-.19,2.11-.3l1.56-.23,2-.33,1.66-.3,1.41-.27,2.1-.44,1.22-.28,2.13-.52.92-.25c.75-.21,1.49-.41,2.2-.63l.54-.17q1.13-.35,2.19-.72l.23-.07c.82-.29,1.61-.6,2.37-.91l.12,0c.79-.32,1.53-.65,2.24-1h0a29,29,0,0,0,3.84-2.18V844.67A2.57,2.57,0,0,1,766.71,846.14ZM715.23,696.58c32.22,0,52,7.52,52,12.91a2.73,2.73,0,0,1-.53,1.49c-2.26,3.33-10.32,6.73-22.21,8.94l-.11,0-1.35.24-1.41.24h0a167.1,167.1,0,0,1-22,1.93h-.74l-1.41,0h-4.61l-1.41,0h-.74a166.15,166.15,0,0,1-21.89-1.93h-.1l-1.32-.22-1.44-.26h0c-11.9-2.21-20-5.61-22.22-8.94a2.75,2.75,0,0,1-.54-1.5C663.24,704.1,683,696.58,715.23,696.58Z"/><path class="cls-2" d="M703.52,816A28.46,28.46,0,0,0,741,807.3a2.19,2.19,0,0,0-.73-3.13h0a2.2,2.2,0,0,0-2.89.68,24,24,0,1,1-11.4-36l-7.12,4.79a2.19,2.19,0,0,0-.6,3h0a2.19,2.19,0,0,0,3,.59l10.35-7a2.15,2.15,0,0,0,.68-.73,2.2,2.2,0,0,0,.13-1.89l-4.4-11a2.18,2.18,0,0,0-2.84-1.21h0a2.19,2.19,0,0,0-1.22,2.84l2.41,6A28.42,28.42,0,0,0,703.52,816Z"/><path class="cls-5" d="M708.54,803.16V801c1.13-.86,2.23-1.77,3.28-2.73s2.14-2,3.24-3.22a18.13,18.13,0,0,0,2.64-3.63,7.11,7.11,0,0,0,1-3.32c0-2.26-1.56-3.39-4.66-3.39a8.92,8.92,0,0,0-5.15,1.58v-2.8a10.85,10.85,0,0,1,5.54-1.52q3.65,0,5.39,1.79a5.94,5.94,0,0,1,1.75,4.31q0,5.37-8,12.39h8.18v2.73Z"/><path class="cls-9" d="M482,885.8s-3.92,5.94,3.78,7.15c.75.09,6.33.67,7.77,2.5,0,0-.13-3.16-4.66-5S482.54,888.11,482,885.8Z"/><path class="cls-9" d="M485.85,873s-11,6.68-.63,13.32c2,1.29,9.2,4.9,9,8.21,0,0,4.37-6.47-2-10.52C485.63,879.86,484,875.43,485.85,873Z"/><path class="cls-9" d="M497.17,879.56c-4.69-4.92-6-8-4-11.9,0,0-14,5.4-.18,15,5,3.43,4.13,6.93,4.13,7.06C497.92,888.88,501.87,884.48,497.17,879.56Z"/><text class="cls-10" transform="translate(506.74 890.62)">N<tspan class="cls-11" x="13.72" y="0">O</tspan><tspan class="cls-12" x="27.44" y="0">D</tspan><tspan class="cls-13" x="39.86" y="0">E</tspan></text><path class="cls-6" d="M519.09,693.76c-27.6,0-56.15,6.26-56.15,16.73V844.87a6.29,6.29,0,0,0,1.2,3.61,10.26,10.26,0,0,0,1.37,1.59c7.14,6.9,28.67,11.53,53.58,11.53s46.47-4.63,53.59-11.52a10.32,10.32,0,0,0,1.38-1.6,6.22,6.22,0,0,0,1.2-3.61V710.49C575.26,700,546.7,693.76,519.09,693.76Z"/><path class="cls-9" d="M557.58,696.5c-10.43-2.83-24.46-4.45-38.49-4.45s-28.05,1.62-38.47,4.45c-12.2,3.31-18.65,8-18.65,13.59V845.27a7.67,7.67,0,0,0,1.45,4.42,12.48,12.48,0,0,0,1.55,1.8c7.32,7.07,29.07,11.82,54.12,11.82s46.82-4.75,54.14-11.83a11.34,11.34,0,0,0,1.55-1.79,7.6,7.6,0,0,0,1.45-4.42V710.09C576.23,704.51,569.78,699.81,557.58,696.5Zm13,150.24a6.94,6.94,0,0,1-.89,1c-6.25,6-27.53,10.41-50.6,10.41s-44.33-4.38-50.57-10.41a6.34,6.34,0,0,1-.89-1,2.57,2.57,0,0,1-.53-1.47V718a28.73,28.73,0,0,0,3.82,2.17l.06,0c.69.33,1.42.66,2.18,1l.19.08c.75.3,1.51.6,2.32.88l.29.1q1,.36,2.1.69l.65.2c.68.21,1.39.41,2.1.6l1,.26c.69.18,1.39.35,2.11.51l1.22.28q1,.24,2.1.45l1.41.27,1.68.3,1.93.32q.78.14,1.59.24l2.07.29,1.8.23,1.63.19c.8.08,1.61.17,2.43.24l1.24.12,3,.23,1.06.07c1.08.07,2.16.12,3.25.17l.81,0c1.18,0,2.38.09,3.58.12h.48c1.31,0,2.63,0,4,0s2.65,0,4,0h.48q1.8,0,3.57-.12l.82,0c1.09,0,2.18-.1,3.25-.17l1.07-.07,3-.23,1.27-.12,2.37-.24,1.69-.19,1.78-.23,2.1-.29,1.56-.23,2-.33,1.66-.3,1.41-.27c.72-.15,1.41-.29,2.1-.45l1.22-.28c.73-.16,1.44-.34,2.13-.52l.92-.24c.75-.21,1.49-.41,2.2-.63l.54-.17q1.13-.35,2.19-.72l.23-.07c.82-.3,1.61-.6,2.37-.91l.13,0c.78-.32,1.52-.65,2.23-1h0A28.4,28.4,0,0,0,571.1,718V845.27A2.63,2.63,0,0,1,570.58,846.74ZM519.09,697.18c32.22,0,52,7.52,52,12.91a2.76,2.76,0,0,1-.53,1.49c-2.26,3.33-10.32,6.73-22.21,8.94l-.1,0-1.36.24-1.4.24h0A167.1,167.1,0,0,1,523.55,723h-.75l-1.4,0h-4.62l-1.4,0h-.75A166.31,166.31,0,0,1,492.74,721h-.09l-1.33-.22-1.44-.26h0c-11.9-2.21-20-5.61-22.22-8.94a2.75,2.75,0,0,1-.54-1.5C467.1,704.7,486.88,697.18,519.09,697.18Z"/><path class="cls-2" d="M507.38,816.63a28.45,28.45,0,0,0,37.48-8.73,2.18,2.18,0,0,0-.73-3.13h0a2.2,2.2,0,0,0-2.89.67,24,24,0,1,1-11.4-36l-7.12,4.8a2.2,2.2,0,0,0-.6,3h0a2.2,2.2,0,0,0,3,.59l10.35-7a2.15,2.15,0,0,0,.68-.73,2.2,2.2,0,0,0,.13-1.89l-4.39-11a2.2,2.2,0,0,0-2.85-1.22h0a2.19,2.19,0,0,0-1.21,2.85l2.4,6a28.42,28.42,0,0,0-22.89,51.72Z"/><path class="cls-5" d="M512.4,803.76v-2.19c1.14-.86,2.23-1.78,3.29-2.73s2.13-2,3.23-3.23a17.7,17.7,0,0,0,2.64-3.62,7.11,7.11,0,0,0,1-3.32c0-2.26-1.55-3.4-4.65-3.4a9,9,0,0,0-5.16,1.58v-2.79a10.85,10.85,0,0,1,5.54-1.52q3.65,0,5.4,1.79a6,6,0,0,1,1.74,4.31q0,5.36-8,12.38h8.18v2.74Z"/><path class="cls-9" d="M580.74,943.09s-3.92,5.93,3.78,7.14c.75.09,6.33.67,7.77,2.5,0,0-.13-3.15-4.66-5S581.24,945.4,580.74,943.09Z"/><path class="cls-9" d="M584.55,930.31s-11,6.68-.63,13.33c2,1.28,9.19,4.89,9,8.2,0,0,4.37-6.47-2-10.52C584.33,937.15,582.69,932.71,584.55,930.31Z"/><path class="cls-9" d="M595.87,936.85c-4.69-4.93-6-8-4-11.9,0,0-14,5.39-.18,15,5,3.43,4.13,6.92,4.13,7.05C596.61,946.16,600.56,941.77,595.87,936.85Z"/><text class="cls-10" transform="translate(605.44 947.91)">N<tspan class="cls-11" x="13.72" y="0">O</tspan><tspan class="cls-12" x="27.44" y="0">D</tspan><tspan class="cls-13" x="39.86" y="0">E</tspan></text><path class="cls-6" d="M617.79,751.05c-27.6,0-56.15,6.25-56.15,16.72V902.15a6.25,6.25,0,0,0,1.2,3.62,10.66,10.66,0,0,0,1.37,1.58c7.14,6.9,28.67,11.53,53.58,11.53s46.46-4.63,53.59-11.52a10.32,10.32,0,0,0,1.38-1.6,6.2,6.2,0,0,0,1.2-3.61V767.77C674,757.3,645.4,751.05,617.79,751.05Z"/><path class="cls-9" d="M656.28,753.78c-10.43-2.83-24.46-4.45-38.49-4.45s-28,1.62-38.47,4.45c-12.2,3.31-18.65,8-18.65,13.6V902.55a7.65,7.65,0,0,0,1.45,4.42,12.48,12.48,0,0,0,1.55,1.8c7.32,7.07,29.07,11.83,54.12,11.83s46.82-4.76,54.14-11.83a12.57,12.57,0,0,0,1.55-1.8,7.67,7.67,0,0,0,1.45-4.42V767.38C674.93,761.79,668.48,757.09,656.28,753.78Zm13,150.24a6.94,6.94,0,0,1-.89,1c-6.25,6-27.53,10.41-50.6,10.41s-44.33-4.37-50.58-10.41a7.49,7.49,0,0,1-.89-1,2.63,2.63,0,0,1-.52-1.47V775.32a28.73,28.73,0,0,0,3.82,2.18l.06,0c.69.34,1.42.66,2.18,1l.19.07c.74.3,1.51.6,2.32.88l.29.1c.67.24,1.38.47,2.1.69l.65.21,2.1.59,1,.26,2.11.52,1.22.28,2.1.44,1.41.27,1.68.31,1.93.32,1.58.24,2.08.29,1.8.22,1.63.19,2.43.25,1.24.11,3,.23,1.06.07c1.08.07,2.16.13,3.25.18l.81,0c1.18,0,2.38.09,3.58.12h.48c1.31,0,2.63,0,4,0s2.64,0,4,0h.49q1.8,0,3.57-.12l.82,0c1.09-.05,2.17-.11,3.25-.18l1.07-.07,2.95-.23,1.27-.12,2.36-.23,1.7-.2L641,784c.7-.1,1.41-.19,2.1-.3l1.56-.23c.66-.11,1.31-.21,2-.33s1.11-.19,1.66-.3l1.41-.27,2.1-.44,1.22-.28,2.13-.52.92-.25c.75-.2,1.49-.41,2.2-.63l.54-.16,2.19-.72.23-.08c.82-.29,1.61-.6,2.37-.9l.13-.06c.78-.32,1.52-.65,2.23-1h0a29.52,29.52,0,0,0,3.84-2.19V902.55A2.63,2.63,0,0,1,669.28,904ZM617.79,754.47c32.22,0,52,7.51,52,12.91a2.76,2.76,0,0,1-.53,1.49c-2.26,3.32-10.32,6.72-22.21,8.94H647c-.44.09-.89.16-1.35.24l-1.41.24h0a167.1,167.1,0,0,1-21.94,1.93l-.75,0-1.41,0-2.3,0-2.31,0-1.4,0-.75,0a168,168,0,0,1-21.89-1.92l-.09,0-1.33-.22-1.44-.26h0c-11.9-2.21-20-5.61-22.22-8.94a2.75,2.75,0,0,1-.54-1.49C565.8,762,585.58,754.47,617.79,754.47Z"/><path class="cls-2" d="M606.08,873.92a28.46,28.46,0,0,0,37.48-8.74,2.19,2.19,0,0,0-.73-3.13h0a2.2,2.2,0,0,0-2.89.68,24,24,0,1,1-11.4-36l-7.12,4.79a2.19,2.19,0,0,0-.6,3h0a2.19,2.19,0,0,0,3,.59l10.35-7a2.2,2.2,0,0,0,.81-2.63l-4.39-11a2.19,2.19,0,0,0-2.85-1.21h0a2.18,2.18,0,0,0-1.21,2.84l2.4,6a28.42,28.42,0,0,0-22.89,51.73Z"/><path class="cls-5" d="M611.1,861v-2.19c1.13-.86,2.23-1.77,3.28-2.73s2.14-2,3.24-3.22a17.75,17.75,0,0,0,2.64-3.63,7.11,7.11,0,0,0,1-3.32q0-3.39-4.66-3.39a8.92,8.92,0,0,0-5.15,1.58v-2.79a10.76,10.76,0,0,1,5.54-1.53q3.64,0,5.39,1.8a5.92,5.92,0,0,1,1.75,4.3q0,5.37-8,12.39h8.18V861Z"/></g></g></svg>