<svg xmlns="http://www.w3.org/2000/svg" width="566" height="398.785" viewBox="0 0 566 398.785"><defs><style>.a{fill:#575656;}.b{fill:#777;}.c{fill:#e5282a;}.d{fill:#efeeed;}.e{fill:#e52529;}.f{fill:#fff;}.g{fill:#1d1d1b;}.h{isolation:isolate;}.i{fill:#010101;}</style></defs><g transform="translate(-35.463 -45.209)"><path class="a" d="M588.426,267.92a7.75,7.75,0,0,1,0-3.943,4.169,4.169,0,0,1,.647-1.36,3.363,3.363,0,0,1,.982-.822,4.065,4.065,0,0,1,1.134-.421,6.167,6.167,0,0,1,1.186-.11,7.45,7.45,0,0,1,2.793.546v1.178a6.505,6.505,0,0,0-2.648-.575,2.969,2.969,0,0,0-2.343.837,5.34,5.34,0,0,0,0,5.383,2.948,2.948,0,0,0,2.343.843,6.382,6.382,0,0,0,2.648-.575v1.2a7.465,7.465,0,0,1-2.793.545,6.1,6.1,0,0,1-1.186-.109,3.866,3.866,0,0,1-1.134-.422,3.248,3.248,0,0,1-.982-.822A4.046,4.046,0,0,1,588.426,267.92Z" transform="translate(-93.41 -36.514)"/><path class="a" d="M598.424,269.329a5.492,5.492,0,0,1,0-3.528,2.374,2.374,0,0,1,.786-1.091,3.322,3.322,0,0,1,1.01-.509,4.32,4.32,0,0,1,2.277,0,3.348,3.348,0,0,1,1.019.509,2.429,2.429,0,0,1,.785,1.091,5.492,5.492,0,0,1,0,3.528,2.391,2.391,0,0,1-.785,1.091,3.35,3.35,0,0,1-1.019.509,4.321,4.321,0,0,1-2.277,0,3.306,3.306,0,0,1-1.01-.509A2.341,2.341,0,0,1,598.424,269.329Zm1.135-3.027a5.293,5.293,0,0,0,0,2.525,1.452,1.452,0,0,0,.45.727,1.68,1.68,0,0,0,.6.32,3.2,3.2,0,0,0,.727.081,3.065,3.065,0,0,0,.728-.081,1.743,1.743,0,0,0,.611-.32,1.457,1.457,0,0,0,.444-.727,5.3,5.3,0,0,0,0-2.525,1.461,1.461,0,0,0-.444-.727,1.635,1.635,0,0,0-.611-.312,2.757,2.757,0,0,0-.728-.081,2.858,2.858,0,0,0-.727.081,1.551,1.551,0,0,0-.6.312A1.459,1.459,0,0,0,599.559,266.3Z" transform="translate(-95.093 -36.985)"/><path class="a" d="M607.972,270.967V264.7a6.291,6.291,0,0,1,2.837-.676,3.059,3.059,0,0,1,1.826.509,6.738,6.738,0,0,1,2.5-.509,2.91,2.91,0,0,1,2.023.669,2.473,2.473,0,0,1,.727,1.891v4.364h-1.251v-4.452a1.508,1.508,0,0,0-.292-.953,1.391,1.391,0,0,0-1.127-.364,4.858,4.858,0,0,0-1.833.386,2.742,2.742,0,0,1,.16.975v4.43h-1.251V266.5a1.353,1.353,0,0,0-.313-.946,1.723,1.723,0,0,0-1.266-.35,5.7,5.7,0,0,0-1.455.211v5.55Z" transform="translate(-96.756 -36.979)"/><path class="a" d="M622.265,273.568V266.2a2.722,2.722,0,0,1,0-.437,2.259,2.259,0,0,1,.2-.553,1.946,1.946,0,0,1,.444-.589,2.461,2.461,0,0,1,.843-.436,4.144,4.144,0,0,1,1.3-.189,3.561,3.561,0,0,1,.727.073,2.809,2.809,0,0,1,.8.3,2.57,2.57,0,0,1,.727.6,3.03,3.03,0,0,1,.524,1.055,5.38,5.38,0,0,1,.291,1.629,4.877,4.877,0,0,1-.277,1.732,2.342,2.342,0,0,1-.764,1.069,3.2,3.2,0,0,1-1,.494,3.819,3.819,0,0,1-1.113.153,5.039,5.039,0,0,1-1.455-.2v2.7Zm1.251-3.892a4,4,0,0,0,1.455.277,2.558,2.558,0,0,0,.727-.088,1.519,1.519,0,0,0,.589-.3,1.454,1.454,0,0,0,.436-.728,4.1,4.1,0,0,0,.153-1.222,4.8,4.8,0,0,0-.153-1.324,1.529,1.529,0,0,0-.429-.764,1.608,1.608,0,0,0-.56-.327,2.02,2.02,0,0,0-.626-.087c-1.055,0-1.578.342-1.578,1.025Z" transform="translate(-99.17 -36.976)"/><path class="a" d="M631.352,268.119v-3.957h1.221v4.059a1.954,1.954,0,0,0,.4,1.36,1.591,1.591,0,0,0,1.244.436,1.615,1.615,0,0,0,1.237-.429,2.007,2.007,0,0,0,.392-1.368v-4.059h1.244v3.957a3.062,3.062,0,0,1-.727,2.182,3.273,3.273,0,0,1-4.255,0A3.031,3.031,0,0,1,631.352,268.119Z" transform="translate(-100.707 -37.004)"/><path class="a" d="M639.914,264.819v-1.069h1.192v-2.023h1.251v2.023h1.847v1.069h-1.818v3.951c0,.531.335.8,1,.8h0a1.537,1.537,0,0,0,.8-.2V270.5a2.545,2.545,0,0,1-.938.189h0a2.852,2.852,0,0,1-.524-.058,3.921,3.921,0,0,1-.677-.24,1.45,1.45,0,0,1-.64-.612,2.07,2.07,0,0,1-.254-1.084v-3.877Z" transform="translate(-102.155 -36.593)"/><path class="a" d="M646.514,267.658c0-2.4,1-3.636,3.012-3.636h0a2.821,2.821,0,0,1,2.182.894,3.42,3.42,0,0,1,.822,2.4q0,.495-.043.938h-4.721a1.773,1.773,0,0,0,1.782,1.767c.048,0,.1,0,.145-.006a5,5,0,0,0,2.357-.517v1.142a6.154,6.154,0,0,1-2.386.444h0a3.9,3.9,0,0,1-1.113-.152,3.51,3.51,0,0,1-.99-.5,2.274,2.274,0,0,1-.727-1.069A4.779,4.779,0,0,1,646.514,267.658Zm1.251-.494h3.513a3.656,3.656,0,0,0-.116-.655,2.894,2.894,0,0,0-.276-.632,1.333,1.333,0,0,0-.531-.509,1.674,1.674,0,0,0-.829-.189,1.623,1.623,0,0,0-1.266.444,2.617,2.617,0,0,0-.5,1.521Z" transform="translate(-103.27 -36.98)"/><path class="a" d="M661.071,267.914a2.92,2.92,0,0,1,.386-1.455,3.628,3.628,0,0,1,1.455-1.287,3.113,3.113,0,0,1-.851-1.812,2.182,2.182,0,0,1,2.138-2.132,2.093,2.093,0,0,1,1.768,3.3,4.11,4.11,0,0,1-1.229,1l1.783,2.132a5.736,5.736,0,0,0,.356-1.178h1.273a5.525,5.525,0,0,1-.814,2.095l1.593,1.913h-1.506l-.8-.946a3.5,3.5,0,0,1-2.553,1.055h0a3.372,3.372,0,0,1-1.368-.262,2.478,2.478,0,0,1-.924-.691,3.16,3.16,0,0,1-.5-.873A2.468,2.468,0,0,1,661.071,267.914Zm1.251.043a1.363,1.363,0,0,0,.072.436,2.024,2.024,0,0,0,.255.5,1.265,1.265,0,0,0,.56.459,1.966,1.966,0,0,0,.887.182,2.4,2.4,0,0,0,1.812-.822l-2.182-2.655a4.43,4.43,0,0,0-.8.531,1.569,1.569,0,0,0-.429.545,2.218,2.218,0,0,0-.139.43,2,2,0,0,0-.029.392Zm1.185-5.411a.983.983,0,0,0-.3.727,2.71,2.71,0,0,0,.771,1.368,4.1,4.1,0,0,0,1.04-.728,1,1,0,0,0,.24-.669.962.962,0,0,0-.283-.727,1.009,1.009,0,0,0-.727-.284A.992.992,0,0,0,663.507,262.546Z" transform="translate(-105.73 -36.508)"/><path class="a" d="M588.6,291.278v-9.137h1.383l2.989,3.943,3.012-3.943h1.382v9.137h-1.272v-7.2l-3.121,4.1-3.1-4.089v7.2Z" transform="translate(-93.482 -40.042)"/><path class="a" d="M601.371,289.563a1.8,1.8,0,0,1,.858-1.586,4.235,4.235,0,0,1,2.364-.568,8.673,8.673,0,0,1,1.237.08,1.666,1.666,0,0,0-.473-1.236,2.134,2.134,0,0,0-1.4-.378,5.958,5.958,0,0,0-1.9.342v-1.069a5.9,5.9,0,0,1,2.066-.364,3.093,3.093,0,0,1,2.182.727,2.8,2.8,0,0,1,.778,2.124v1.972a2.2,2.2,0,0,1-.043.436,2.548,2.548,0,0,1-.211.56,1.9,1.9,0,0,1-.444.6,2.436,2.436,0,0,1-.851.436,4.145,4.145,0,0,1-1.295.182,4.325,4.325,0,0,1-1.331-.189,2.541,2.541,0,0,1-.851-.444,1.854,1.854,0,0,1-.459-.6,2.082,2.082,0,0,1-.211-.583A2.322,2.322,0,0,1,601.371,289.563Zm1.251,0c0,.771.546,1.157,1.645,1.157h0q1.549,0,1.549-1.113v-1.1a6.9,6.9,0,0,0-1.186-.087,3.178,3.178,0,0,0-.574.051,4.121,4.121,0,0,0-.647.153,1.327,1.327,0,0,0-.575.349.845.845,0,0,0-.211.575Z" transform="translate(-95.64 -40.488)"/><path class="a" d="M610.773,290.923a4.62,4.62,0,0,1,0-5.238,3,3,0,0,1,2.364-.9,5.447,5.447,0,0,1,2.015.378v1.193a4.28,4.28,0,0,0-1.876-.451h0a2.1,2.1,0,0,0-1.455.488,2.568,2.568,0,0,0-.531,1.913,4.4,4.4,0,0,0,.153,1.258,1.524,1.524,0,0,0,.465.728,1.866,1.866,0,0,0,.633.32,3.239,3.239,0,0,0,.727.08,4.422,4.422,0,0,0,1.905-.436v1.178a5.445,5.445,0,0,1-2.014.378A3.006,3.006,0,0,1,610.773,290.923Z" transform="translate(-97.092 -40.488)"/><path class="a" d="M618.152,291.213v-9.457h1.281V284.6a4.98,4.98,0,0,1,1.812-.335,2.548,2.548,0,0,1,1.979.728,3.034,3.034,0,0,1,.727,2.182v4.029h-1.273v-4.074a1.659,1.659,0,0,0-.429-1.345,1.754,1.754,0,0,0-1.106-.335,4.659,4.659,0,0,0-1.688.327v5.426Z" transform="translate(-98.477 -39.977)"/><path class="a" d="M627.44,283.369v-1.324h1.331v1.324Zm0,7.893v-6.837h1.251v6.837Z" transform="translate(-100.047 -40.026)"/><path class="a" d="M631.677,291.715v-6.256a6.532,6.532,0,0,1,2.909-.727,2.908,2.908,0,0,1,2.037.676,2.412,2.412,0,0,1,.727,1.869v4.408h-1.28v-4.5a1.388,1.388,0,0,0-.306-.952,1.635,1.635,0,0,0-1.237-.349,5.077,5.077,0,0,0-1.608.247v5.558Z" transform="translate(-100.763 -40.48)"/><path class="a" d="M640.553,288.385q0-3.6,3.018-3.6h0a2.832,2.832,0,0,1,2.183.895,3.414,3.414,0,0,1,.814,2.393v.938h-4.721a1.775,1.775,0,0,0,1.782,1.767c.049,0,.1,0,.145-.007a4.949,4.949,0,0,0,2.357-.516V291.4a6.065,6.065,0,0,1-2.386.444H643.7a3.779,3.779,0,0,1-1.106-.153,3.08,3.08,0,0,1-.989-.494,2.272,2.272,0,0,1-.727-1.07A4.748,4.748,0,0,1,640.553,288.385Zm1.258-.494h3.513a3.893,3.893,0,0,0-.116-.655,3.09,3.09,0,0,0-.277-.626,1.338,1.338,0,0,0-.531-.516,1.748,1.748,0,0,0-.829-.189,1.624,1.624,0,0,0-1.266.444,2.636,2.636,0,0,0-.494,1.55Z" transform="translate(-102.263 -40.489)"/><path class="a" d="M655.653,291.278v-9.137h1.28v7.944h4.532v1.193Z" transform="translate(-104.815 -40.042)"/><path class="a" d="M663.785,288.385c0-2.4,1.01-3.6,3.018-3.6h0a2.829,2.829,0,0,1,2.182.895,3.411,3.411,0,0,1,.815,2.393v.938H665.08a1.775,1.775,0,0,0,1.782,1.767c.048,0,.1,0,.146-.007a4.9,4.9,0,0,0,2.357-.516V291.4a6.067,6.067,0,0,1-2.387.444h0a3.819,3.819,0,0,1-1.113-.153,3.071,3.071,0,0,1-.989-.494,2.279,2.279,0,0,1-.728-1.07A4.75,4.75,0,0,1,663.785,288.385Zm1.258-.494h3.513a3.887,3.887,0,0,0-.116-.655,3.094,3.094,0,0,0-.277-.626,1.338,1.338,0,0,0-.531-.516,1.748,1.748,0,0,0-.829-.189,1.623,1.623,0,0,0-1.266.444,2.637,2.637,0,0,0-.494,1.55Z" transform="translate(-106.189 -40.489)"/><path class="a" d="M672.564,289.563a1.8,1.8,0,0,1,.858-1.586,4.214,4.214,0,0,1,2.358-.568,8.646,8.646,0,0,1,1.243.08,1.663,1.663,0,0,0-.473-1.236,2.141,2.141,0,0,0-1.411-.378,5.969,5.969,0,0,0-1.891.342v-1.069a5.9,5.9,0,0,1,2.066-.364,3.092,3.092,0,0,1,2.182.727,2.8,2.8,0,0,1,.779,2.124v1.972a2.264,2.264,0,0,1-.043.436,2.548,2.548,0,0,1-.211.56,2.008,2.008,0,0,1-.444.6,2.443,2.443,0,0,1-.851.436,4.144,4.144,0,0,1-1.3.182,4.275,4.275,0,0,1-1.324-.189,2.553,2.553,0,0,1-.852-.444,1.851,1.851,0,0,1-.458-.6,2.057,2.057,0,0,1-.211-.583A2.327,2.327,0,0,1,672.564,289.563Zm1.251,0q0,1.157,1.637,1.157h0q1.549,0,1.549-1.113v-1.1a6.91,6.91,0,0,0-1.186-.087,3.17,3.17,0,0,0-.574.051,4.118,4.118,0,0,0-.647.153,1.322,1.322,0,0,0-.575.349.846.846,0,0,0-.2.575Z" transform="translate(-107.672 -40.488)"/><path class="a" d="M681.563,291.725v-6.263a9.058,9.058,0,0,1,3.331-.676v1.149a8.7,8.7,0,0,0-2.08.284v5.506Z" transform="translate(-109.193 -40.489)"/><path class="a" d="M687.2,291.715v-6.256a6.538,6.538,0,0,1,2.91-.727,2.909,2.909,0,0,1,2.037.676,2.415,2.415,0,0,1,.727,1.869v4.408h-1.28v-4.5a1.388,1.388,0,0,0-.306-.952,1.636,1.636,0,0,0-1.237-.349,5.19,5.19,0,0,0-1.615.247v5.558Z" transform="translate(-110.146 -40.48)"/><path class="a" d="M696.558,283.369v-1.324h1.331v1.324Zm.043,7.893v-6.837h1.251v6.837Z" transform="translate(-111.728 -40.026)"/><path class="a" d="M700.8,291.715v-6.256a6.538,6.538,0,0,1,2.91-.727,2.906,2.906,0,0,1,2.029.676,2.391,2.391,0,0,1,.727,1.869v4.408h-1.28v-4.5a1.388,1.388,0,0,0-.306-.952,1.656,1.656,0,0,0-1.244-.349,5.2,5.2,0,0,0-1.607.247v5.558Z" transform="translate(-112.445 -40.48)"/><path class="a" d="M709.79,288.25a4.1,4.1,0,0,1,.728-2.538,2.572,2.572,0,0,1,2.182-.946,3.255,3.255,0,0,1,1.993.56,1.87,1.87,0,0,1,.728,1.6v5.092a2.639,2.639,0,0,1-.131.843,2.466,2.466,0,0,1-.436.728,2.012,2.012,0,0,1-.924.582,4.807,4.807,0,0,1-1.513.211,7.329,7.329,0,0,1-2.022-.284v-1.192a6.718,6.718,0,0,0,1.913.283,3.9,3.9,0,0,0,1.069-.116,1.053,1.053,0,0,0,.574-.327,1.1,1.1,0,0,0,.19-.371,2.033,2.033,0,0,0,0-.4v-.6a5.3,5.3,0,0,1-1.375.189,2.907,2.907,0,0,1-2.255-.858A3.543,3.543,0,0,1,709.79,288.25Zm1.251,0a2.454,2.454,0,0,0,.473,1.768,1.879,1.879,0,0,0,1.316.436,3.642,3.642,0,0,0,1.375-.262v-3.354a1.379,1.379,0,0,0,0-.262,1.479,1.479,0,0,0-.153-.3.786.786,0,0,0-.459-.292,3.107,3.107,0,0,0-.858-.1,2.066,2.066,0,0,0-.6.08,1.679,1.679,0,0,0-.524.313,1.452,1.452,0,0,0-.408.727,4.377,4.377,0,0,0-.167,1.258Z" transform="translate(-113.962 -40.485)"/><path class="b" d="M384.149,264.016a2.1,2.1,0,0,1-.5,1.36l-7.682,8.983a2.086,2.086,0,0,1-2.943.236,2.112,2.112,0,0,1-.236-.236l-7.674-8.983a2.095,2.095,0,0,1,3.179-2.721l6.081,7.122,6.081-7.122a2.095,2.095,0,0,1,3.688,1.36Z" transform="translate(-55.639 -36.625)"/><path class="b" d="M378.014,204.195v57.692a2.095,2.095,0,0,1-4.182.247,2.031,2.031,0,0,1,0-.247V204.195a2.095,2.095,0,0,1,4.182-.247A2.043,2.043,0,0,1,378.014,204.195Z" transform="translate(-57.185 -26.494)"/><path class="b" d="M364.6,211.742a2.058,2.058,0,0,1,.5-1.36l7.674-8.984a2.091,2.091,0,0,1,3.179,0l7.682,9a2.095,2.095,0,1,1-3.035,2.889,2,2,0,0,1-.144-.169l-6.1-7.136-6.089,7.122a2.088,2.088,0,0,1-3.68-1.36Z" transform="translate(-55.623 -26.273)"/><path class="c" d="M375.186,242.852a5.688,5.688,0,1,1,5.682-5.7v.015A5.688,5.688,0,0,1,375.186,242.852Z" transform="translate(-56.452 -31.48)"/><path class="d" d="M374.788,233.043a3.732,3.732,0,1,1-3.731,3.732,3.732,3.732,0,0,1,3.731-3.732h0m0-3.913a7.645,7.645,0,1,0,7.638,7.653v-.007a7.652,7.652,0,0,0-7.638-7.645Z" transform="translate(-56.054 -31.083)"/><path class="b" d="M559.072,204.071v30.188a2.095,2.095,0,1,1-4.19,0V204.071a2.095,2.095,0,0,1,4.19,0Z" transform="translate(-87.784 -26.494)"/><path class="b" d="M513.823,238.329h35.592a2.095,2.095,0,1,1,.247,4.182,2.036,2.036,0,0,1-.247,0H513.823a2.095,2.095,0,1,1-.247-4.182A2.043,2.043,0,0,1,513.823,238.329Z" transform="translate(-80.47 -32.637)"/><path class="b" d="M565.17,211.742a2.057,2.057,0,0,0-.5-1.36l-7.7-8.984a2.1,2.1,0,0,0-3.186,0l-7.652,9a2.095,2.095,0,1,0,3.034,2.889,1.866,1.866,0,0,0,.145-.169L555.4,206l6.088,7.121a2.088,2.088,0,0,0,3.681-1.36Z" transform="translate(-86.208 -26.272)"/><path class="b" d="M515.935,240.4v22a2.095,2.095,0,0,1-4.182,0v-22a2.095,2.095,0,1,1,4.182-.247A2.03,2.03,0,0,1,515.935,240.4Z" transform="translate(-80.494 -32.613)"/><path class="b" d="M489.652,289.849l21.342-21.313a2.1,2.1,0,0,0-2.849-3.073c-.038.036-.076.073-.112.112l-21.342,21.342a2.1,2.1,0,0,0,2.961,2.961Z" transform="translate(-76.165 -37.129)"/><path class="b" d="M500.472,291.84a2.045,2.045,0,0,1-1.317.6l-11.777.923a2.1,2.1,0,0,1-2.254-1.938,2.144,2.144,0,0,1,0-.31l.923-11.784a2.1,2.1,0,0,1,4.176.327l-.728,9.34,9.34-.727a2.1,2.1,0,0,1,2.248,1.928A2.13,2.13,0,0,1,500.472,291.84Z" transform="translate(-75.994 -39.252)"/><path class="c" d="M512.844,270.1a5.688,5.688,0,1,1,5.681-5.7v.007A5.7,5.7,0,0,1,512.844,270.1Z" transform="translate(-79.717 -36.085)"/><path class="d" d="M512.447,260.286a3.732,3.732,0,1,1-3.732,3.732,3.732,3.732,0,0,1,3.732-3.732h0m0-3.906a7.645,7.645,0,1,0,7.638,7.653v-.015A7.645,7.645,0,0,0,512.447,256.38Z" transform="translate(-79.319 -35.689)"/><path class="b" d="M192.781,203.924V234.1a2.095,2.095,0,1,0,4.182.247,2.037,2.037,0,0,0,0-.247v-30.18a2.095,2.095,0,0,0-4.182-.247A2.037,2.037,0,0,0,192.781,203.924Z" transform="translate(-26.587 -26.449)"/><path class="b" d="M230.766,238.172h-35.6a2.095,2.095,0,0,0,0,4.19h35.6a2.095,2.095,0,0,0,0-4.19Z" transform="translate(-26.636 -32.612)"/><path class="b" d="M183.538,211.593a2.12,2.12,0,0,1,.5-1.367l7.689-8.976a2.086,2.086,0,0,1,2.943-.236,2.109,2.109,0,0,1,.236.236l7.674,8.976a2.095,2.095,0,0,1-3.179,2.727l-6.089-7.122-6.081,7.122a2.095,2.095,0,0,1-3.688-1.36Z" transform="translate(-25.025 -26.247)"/><path class="b" d="M235.91,240.242v22a2.095,2.095,0,0,0,4.182.247,2.043,2.043,0,0,0,0-.247v-22A2.095,2.095,0,1,0,235.91,240,2.03,2.03,0,0,0,235.91,240.242Z" transform="translate(-33.876 -32.586)"/><path class="b" d="M257.852,289.694,236.51,268.351a2.1,2.1,0,1,1,2.849-3.073q.057.054.112.112l21.342,21.342a2.1,2.1,0,0,1-2.961,2.961Z" transform="translate(-33.864 -37.098)"/><path class="b" d="M248.977,291.686a2.1,2.1,0,0,0,1.317.611l11.784.917a2.061,2.061,0,0,0,1.636-.6,2.1,2.1,0,0,0,.611-1.644l-.923-11.777a2.1,2.1,0,0,0-4.176.32l.728,9.34-9.34-.728a2.1,2.1,0,0,0-1.644,3.565Z" transform="translate(-35.981 -39.228)"/><circle class="c" cx="5.688" cy="5.688" r="5.688" transform="matrix(0.16, -0.987, 0.987, 0.16, 197.829, 232.385)"/><path class="d" d="M237.147,259.505a3.732,3.732,0,1,1-3.731,3.732,3.732,3.732,0,0,1,3.731-3.732h0m0-3.913a7.645,7.645,0,1,0,7.638,7.653v-.007a7.645,7.645,0,0,0-7.638-7.645Z" transform="translate(-32.792 -35.556)"/><path class="e" d="M516.35,266.55h51.887a.8.8,0,1,0,.153-1.593.781.781,0,0,0-.153,0H516.35a.8.8,0,0,0,0,1.593Z" transform="translate(-81.149 -37.138)"/><path class="a" d="M35.463,267.837l3.637-9.129h1.251l3.637,9.129H42.614l-.982-2.531H37.82l-.982,2.56Zm2.808-3.746H41.18l-1.454-3.79Z" transform="translate(0 -36.082)"/><path class="a" d="M46.966,265.215a7.777,7.777,0,0,1,0-3.95,4.167,4.167,0,0,1,.647-1.353,3.369,3.369,0,0,1,.967-.823,3.951,3.951,0,0,1,1.135-.421,6.167,6.167,0,0,1,1.185-.11,7.524,7.524,0,0,1,2.794.546v1.178a6.513,6.513,0,0,0-2.648-.575,2.962,2.962,0,0,0-2.342.837,5.3,5.3,0,0,0,0,5.383,2.91,2.91,0,0,0,2.342.843,6.4,6.4,0,0,0,2.648-.574v1.178a7.523,7.523,0,0,1-2.794.545,6.1,6.1,0,0,1-1.185-.109,3.929,3.929,0,0,1-1.135-.422,3.26,3.26,0,0,1-.982-.822A4.19,4.19,0,0,1,46.966,265.215Z" transform="translate(-1.901 -36.057)"/><path class="a" d="M57.286,267.837v-9.129h1.273v9.129Z" transform="translate(-3.688 -36.082)"/><path class="a" d="M61.654,267.835v-9.129h2.909a4.155,4.155,0,0,1,3.194,1.164,5.885,5.885,0,0,1,0,6.808,4.165,4.165,0,0,1-3.194,1.157Zm1.28-1.12h1.455a3.2,3.2,0,0,0,2.444-.829,4.779,4.779,0,0,0,0-5.23,3.2,3.2,0,0,0-2.444-.829H62.934Z" transform="translate(-4.426 -36.08)"/><path class="a" d="M77.112,259.894v-1.186h7.42v1.186H81.448v7.943H80.175v-7.943Z" transform="translate(-7.039 -36.082)"/><path class="a" d="M86.514,268.283v-6.256a9.063,9.063,0,0,1,3.331-.684v1.149a9.077,9.077,0,0,0-2.081.291v5.5Z" transform="translate(-8.628 -36.528)"/><path class="a" d="M91.59,266.121a1.787,1.787,0,0,1,.858-1.578,4.207,4.207,0,0,1,2.357-.575,9.9,9.9,0,0,1,1.244.08,1.674,1.674,0,0,0-.473-1.237,2.181,2.181,0,0,0-1.411-.371,5.964,5.964,0,0,0-1.891.342v-1.069a5.75,5.75,0,0,1,2.066-.371,3.094,3.094,0,0,1,2.182.727,2.8,2.8,0,0,1,.778,2.124v1.972a2.2,2.2,0,0,1-.043.436,2.666,2.666,0,0,1-.211.56,1.976,1.976,0,0,1-.444.589,2.325,2.325,0,0,1-.851.444,4.4,4.4,0,0,1-1.3.182,4.277,4.277,0,0,1-1.324-.189,2.408,2.408,0,0,1-.851-.451,1.776,1.776,0,0,1-.459-.6,2.027,2.027,0,0,1-.211-.575A2.393,2.393,0,0,1,91.59,266.121Zm1.251,0c0,.771.546,1.149,1.637,1.149h0c1.033,0,1.55-.364,1.55-1.105v-1.143a8.853,8.853,0,0,0-1.186-.087,4.039,4.039,0,0,0-.575.052,5.115,5.115,0,0,0-.647.16,1.25,1.25,0,0,0-.574.349.83.83,0,0,0-.2.618Z" transform="translate(-9.485 -36.526)"/><path class="a" d="M100.668,268.274v-6.248a6.55,6.55,0,0,1,2.91-.728,2.913,2.913,0,0,1,2.037.676,2.43,2.43,0,0,1,.727,1.877v4.4h-1.273v-4.5a1.4,1.4,0,0,0-.3-.917,1.645,1.645,0,0,0-1.237-.342,5.218,5.218,0,0,0-1.615.247v5.55Z" transform="translate(-11.02 -36.519)"/><path class="a" d="M109.552,263.375a1.942,1.942,0,0,1,.6-1.455,2.534,2.534,0,0,1,1.847-.6,4.1,4.1,0,0,1,1.833.451v1.084a3.983,3.983,0,0,0-1.68-.407q-1.354,0-1.353.873a.539.539,0,0,0,.363.473,4.1,4.1,0,0,0,.866.334,9.382,9.382,0,0,1,1.019.35,1.971,1.971,0,0,1,.873.683,2.008,2.008,0,0,1-.262,2.612,2.684,2.684,0,0,1-1.92.6,4.055,4.055,0,0,1-1.971-.48v-1.128a3.8,3.8,0,0,0,1.891.494h0a1.761,1.761,0,0,0,1-.233.726.726,0,0,0,.342-.6.813.813,0,0,0-.356-.676,2.67,2.67,0,0,0-.873-.4c-.342-.095-.684-.2-1.025-.32a1.979,1.979,0,0,1-.873-.589A1.537,1.537,0,0,1,109.552,263.375Z" transform="translate(-12.521 -36.523)"/><path class="a" d="M116.8,266.127a1.789,1.789,0,0,1,.858-1.578,4.207,4.207,0,0,1,2.357-.575,9.871,9.871,0,0,1,1.244.08,1.677,1.677,0,0,0-.458-1.207,2.183,2.183,0,0,0-1.412-.371,5.968,5.968,0,0,0-1.891.342v-1.069a5.753,5.753,0,0,1,2.066-.371,3.1,3.1,0,0,1,2.183.727,2.8,2.8,0,0,1,.778,2.124V266.2a2.264,2.264,0,0,1-.043.436,2.714,2.714,0,0,1-.211.56,1.976,1.976,0,0,1-.444.589,2.313,2.313,0,0,1-.851.444,4.375,4.375,0,0,1-1.3.182,4.274,4.274,0,0,1-1.324-.189,2.411,2.411,0,0,1-.852-.451,1.764,1.764,0,0,1-.458-.6,2.028,2.028,0,0,1-.211-.575A2.355,2.355,0,0,1,116.8,266.127Zm1.251,0c0,.771.545,1.149,1.636,1.149h0c1.033,0,1.55-.364,1.55-1.105v-1.143a8.853,8.853,0,0,0-1.186-.087,4.038,4.038,0,0,0-.575.052,5.145,5.145,0,0,0-.647.16,1.254,1.254,0,0,0-.574.349.829.829,0,0,0-.2.618Z" transform="translate(-13.746 -36.532)"/><path class="a" d="M126.176,267.489a4.629,4.629,0,0,1,0-5.245,3.036,3.036,0,0,1,2.364-.9,5.45,5.45,0,0,1,2.015.386v1.186a4.274,4.274,0,0,0-1.876-.444h0a2.136,2.136,0,0,0-1.455.48,2.6,2.6,0,0,0-.538,1.92,4.3,4.3,0,0,0,.16,1.251,1.458,1.458,0,0,0,.465.728,1.748,1.748,0,0,0,.633.32,2.929,2.929,0,0,0,.727.08,4.52,4.52,0,0,0,1.905-.429V268a5.462,5.462,0,0,1-2.014.378A3.035,3.035,0,0,1,126.176,267.489Z" transform="translate(-15.193 -36.526)"/><path class="a" d="M132.995,262.131v-1.069h1.193v-2.029h1.244v2.029h1.818v1.069h-1.818v3.957c0,.531.342.793,1.01.793h0a1.508,1.508,0,0,0,.794-.2v1.134a2.475,2.475,0,0,1-.932.19h0a2.771,2.771,0,0,1-.524-.058,3.9,3.9,0,0,1-.676-.24,1.4,1.4,0,0,1-.641-.611,2.088,2.088,0,0,1-.254-1.084v-3.877Z" transform="translate(-16.483 -36.137)"/><path class="a" d="M140.1,259.936v-1.324h1.368v1.324Zm.044,7.885V260.99H141.4v6.831Z" transform="translate(-17.685 -36.066)"/><path class="a" d="M144.123,266.642a5.492,5.492,0,0,1,0-3.528,2.38,2.38,0,0,1,.779-1.091,3.442,3.442,0,0,1,1.018-.509,4.321,4.321,0,0,1,2.277,0,3.35,3.35,0,0,1,1.019.509,2.434,2.434,0,0,1,.785,1.091,5.618,5.618,0,0,1,0,3.528,2.444,2.444,0,0,1-.785,1.091,3.328,3.328,0,0,1-1.019.509,4.321,4.321,0,0,1-2.277,0,3.42,3.42,0,0,1-1.018-.509A2.38,2.38,0,0,1,144.123,266.642Zm1.135-3.026a5.294,5.294,0,0,0,0,2.525,1.455,1.455,0,0,0,.451.727,1.671,1.671,0,0,0,.6.32,3.2,3.2,0,0,0,.727.073,3.151,3.151,0,0,0,.728-.073,1.671,1.671,0,0,0,.6-.32,1.4,1.4,0,0,0,.451-.727,5.294,5.294,0,0,0,0-2.525,1.4,1.4,0,0,0-.451-.727,1.671,1.671,0,0,0-.6-.32,3.106,3.106,0,0,0-.728-.073,3.194,3.194,0,0,0-.727.073,1.67,1.67,0,0,0-.6.32A1.455,1.455,0,0,0,145.258,263.615Z" transform="translate(-18.315 -36.53)"/><path class="a" d="M153.5,268.274v-6.248a6.546,6.546,0,0,1,2.909-.728,2.916,2.916,0,0,1,2.03.676,2.416,2.416,0,0,1,.727,1.877v4.4h-1.281v-4.5a1.4,1.4,0,0,0-.3-.953,1.67,1.67,0,0,0-1.244-.342,5.149,5.149,0,0,0-1.608.248v5.55Z" transform="translate(-19.948 -36.519)"/><path class="a" d="M162.389,263.375a1.919,1.919,0,0,1,.6-1.455,2.52,2.52,0,0,1,1.848-.6,4.062,4.062,0,0,1,1.826.451v1.084a3.954,3.954,0,0,0-1.674-.407q-1.352,0-1.353.873a.547.547,0,0,0,.356.473,4.148,4.148,0,0,0,.873.334,9.871,9.871,0,0,1,1.018.35,1.992,1.992,0,0,1,.866.683,1.869,1.869,0,0,1,.363,1.186,1.9,1.9,0,0,1-.618,1.455,2.717,2.717,0,0,1-1.92.6,4.045,4.045,0,0,1-1.971-.48v-1.157a3.793,3.793,0,0,0,1.891.494h0a1.715,1.715,0,0,0,1-.233.728.728,0,0,0,.35-.6.808.808,0,0,0-.364-.676,2.573,2.573,0,0,0-.866-.4c-.349-.095-.727-.2-1.033-.32a2.005,2.005,0,0,1-.865-.589A1.533,1.533,0,0,1,162.389,263.375Z" transform="translate(-21.45 -36.523)"/><path class="e" d="M177.045,265.447h51.887a.8.8,0,1,0,.152-1.593.772.772,0,0,0-.152,0H177.045a.8.8,0,0,0,0,1.593Z" transform="translate(-23.805 -36.951)"/><path class="a" d="M298.437,236.627a2.431,2.431,0,0,1,.779-1.818,3.376,3.376,0,0,1,2.415-.728,5.235,5.235,0,0,1,2.35.56v1.237a4.191,4.191,0,0,0-2.182-.6c-1.383,0-2.066.459-2.066,1.382a.784.784,0,0,0,.363.647,2.719,2.719,0,0,0,.895.444c.357.11.727.255,1.171.43a11.548,11.548,0,0,1,1.172.56,2.5,2.5,0,0,1,1.258,2.182,2.182,2.182,0,0,1-.88,1.833,3.955,3.955,0,0,1-2.422.654,6.14,6.14,0,0,1-2.713-.654v-1.31a4.929,4.929,0,0,0,2.6.771c1.418,0,2.124-.43,2.131-1.295a1.349,1.349,0,0,0-.357-.946,2.181,2.181,0,0,0-.894-.568l-1.178-.393c-.422-.152-.815-.3-1.172-.458a2.105,2.105,0,0,1-.894-.727A1.972,1.972,0,0,1,298.437,236.627Z" transform="translate(-44.444 -31.918)"/><path class="a" d="M307.559,238.719a6.677,6.677,0,0,1,.262-1.964,4.007,4.007,0,0,1,.669-1.36,3.533,3.533,0,0,1,1-.815,3.962,3.962,0,0,1,1.135-.421,6.542,6.542,0,0,1,2.386,0,3.835,3.835,0,0,1,1.128.421,3.489,3.489,0,0,1,.989.815,3.878,3.878,0,0,1,.676,1.36,7.508,7.508,0,0,1-.043,4.088,3.3,3.3,0,0,1-.829,1.411,3.869,3.869,0,0,1-1.128.771,4.785,4.785,0,0,1-1.309.335,1.367,1.367,0,0,0,.363.938,1.267,1.267,0,0,0,1,.4v1a2.647,2.647,0,0,1-1.869-.676,2.133,2.133,0,0,1-.728-1.651,4.858,4.858,0,0,1-1.353-.306,3.81,3.81,0,0,1-1.157-.727,3.41,3.41,0,0,1-.873-1.455A6.681,6.681,0,0,1,307.559,238.719Zm1.454-1.564a6.55,6.55,0,0,0,0,3.128,3.12,3.12,0,0,0,.459,1.033,2,2,0,0,0,.691.589,2.781,2.781,0,0,0,.794.284,6.119,6.119,0,0,0,1.68,0,2.806,2.806,0,0,0,.8-.284,2,2,0,0,0,.691-.589,2.963,2.963,0,0,0,.465-1.033,6.811,6.811,0,0,0,0-3.128,3.217,3.217,0,0,0-.458-1.025,1.957,1.957,0,0,0-.727-.589,2.541,2.541,0,0,0-.794-.277,4.943,4.943,0,0,0-.851-.066,4.857,4.857,0,0,0-.843.066,2.5,2.5,0,0,0-.786.277,2.009,2.009,0,0,0-.691.589,3.221,3.221,0,0,0-.422,1Z" transform="translate(-45.985 -31.915)"/><path class="a" d="M320.067,243.309v-9.128h1.273v7.943h4.54v1.185Z" transform="translate(-48.099 -31.937)"/><path class="e" d="M333.515,239.992h36.24a.8.8,0,1,0,.152-1.593.774.774,0,0,0-.152,0h-36.24a.8.8,0,0,0,0,1.593Z" transform="translate(-50.25 -32.649)"/><rect class="d" width="222.815" height="170.237" rx="6.635" transform="translate(207.941 273.756)"/><path class="f" d="M430.4,353.588c-14.853,0-30.224,3.368-30.224,9.005v71.324a3.367,3.367,0,0,0,.647,1.942,5.736,5.736,0,0,0,.728.851c3.841,3.717,15.436,6.212,28.842,6.212s25.016-2.495,28.849-6.2a5.792,5.792,0,0,0,.728-.858,3.368,3.368,0,0,0,.647-1.943V362.594C460.634,356.993,445.257,353.588,430.4,353.588Z" transform="translate(-61.637 -52.117)"/><path class="c" d="M451.005,355.052a90.553,90.553,0,0,0-41.426,0c-6.547,1.782-10.038,4.314-10.038,7.318v23.9a4.107,4.107,0,0,0,.785,2.378,6.864,6.864,0,0,0,.829.967c3.943,3.8,15.654,6.365,29.1,6.365s25.2-2.561,29.147-6.365a6.053,6.053,0,0,0,.829-.967,4.1,4.1,0,0,0,.785-2.378v-23.9C461.051,359.365,457.582,356.834,451.005,355.052Zm7,32.007a3.791,3.791,0,0,1-.473.553c-3.368,3.252-14.818,5.6-27.242,5.6s-23.859-2.357-27.22-5.6a3.487,3.487,0,0,1-.479-.553,1.393,1.393,0,0,1-.284-.793V366.625a15.749,15.749,0,0,0,2.052,1.171h.037q.552.262,1.178.524l.1.036c.393.168.808.32,1.244.473l.153.058,1.134.371.35.109,1.127.32.524.138,1.127.277.662.153,1.135.24.727.145.909.167,1.04.168.851.13,1.113.153.975.124.873.1c.436.052.873.095,1.316.131l.662.066,1.6.123.567.037,1.753.095h.436l1.928.058h4.779l1.92-.058h.444l1.746-.095.574-.037,1.593-.123.684-.066c.422-.037.851-.08,1.273-.131l.909-.1.961-.116,1.127-.16.837-.13c.356-.052.727-.11,1.055-.175l.9-.16.727-.145,1.135-.24.654-.153,1.143-.276.5-.131,1.178-.342.291-.088c.407-.123.8-.254,1.178-.385l.124-.044c.444-.16.866-.32,1.273-.487h.072c.422-.175.822-.35,1.2-.531h0a15.573,15.573,0,0,0,2.066-1.172v19.641A1.389,1.389,0,0,1,458,387.058Zm-27.715-31.643c17.35,0,28,4.051,28,6.954a1.459,1.459,0,0,1-.284.8c-1.214,1.789-5.55,3.637-11.958,4.816h-.052l-.727.13-.764.124h0a89.022,89.022,0,0,1-11.813,1.04h-4.742a89.987,89.987,0,0,1-11.784-1.033h-.051l-.728-.116-.771-.138h0c-6.4-1.193-10.744-3.019-11.958-4.816a1.449,1.449,0,0,1-.292-.8C402.3,359.467,412.955,355.416,430.289,355.416Z" transform="translate(-61.531 -51.959)"/><path class="c" d="M459.76,391.409a1.28,1.28,0,0,0-1.281,1.28h0a1.582,1.582,0,0,1-.3.858c-1.1,1.63-4.6,3.223-9.616,4.364a91.193,91.193,0,0,1-36.531,0c-5.012-1.149-8.511-2.742-9.61-4.364a1.587,1.587,0,0,1-.3-.866,1.28,1.28,0,1,0-2.554-.192,1.244,1.244,0,0,0,0,.192v47.791a4,4,0,0,0,.764,2.321,6.6,6.6,0,0,0,.815.952c1.971,1.9,5.819,3.5,11.1,4.641a95.741,95.741,0,0,0,36.1,0c5.3-1.134,9.136-2.742,11.1-4.634a6.811,6.811,0,0,0,.829-.96,4.065,4.065,0,0,0,.727-2.321V392.689A1.28,1.28,0,0,0,459.76,391.409Zm-1.281,49.064a1.51,1.51,0,0,1-.3.852,3.826,3.826,0,0,1-.494.574h0c-1.63,1.571-5.223,3-10.111,4.03a93.108,93.108,0,0,1-34.538,0c-4.9-1.025-8.482-2.458-10.118-4.037h0a3.593,3.593,0,0,1-.48-.56,1.505,1.505,0,0,1-.349-.858V396.828c2.095,1.521,5.448,2.808,9.82,3.775a95.8,95.8,0,0,0,36.713,0c4.364-.967,7.732-2.254,9.827-3.775Z" transform="translate(-61.534 -58.492)"/><path class="g" d="M411.919,388.718v-6.663l1.309.3,1.913,3.194,1.914-2.422,1.324.225v6.664l-1.193-.2v-4.924l-2.044,2.553c-.683-1.113-1.36-2.24-2.043-3.375v4.925Z" transform="translate(-63.623 -56.928)"/><path class="g" d="M421.714,390.572v-6.627q2.181.328,4.437.531v1.077c-1.084-.1-2.182-.225-3.237-.364v1.666c.932.124,1.87.225,2.808.32v1.134c-.938-.094-1.876-.2-2.808-.32v1.688c1.077.138,2.182.255,3.237.357v1.077Q423.926,390.885,421.714,390.572Z" transform="translate(-65.278 -57.248)"/><path class="g" d="M428.708,391.345v-6.656l1.339.095,1.935,2.91,1.942-2.728h1.339v6.663h-1.207V386.7q-1.037,1.451-2.073,2.91l-2.066-3.056v4.924A6.226,6.226,0,0,0,428.708,391.345Z" transform="translate(-66.46 -57.374)"/><path class="g" d="M438.354,388.278a4.79,4.79,0,0,1,.2-1.455,2.91,2.91,0,0,1,.487-.989,2.621,2.621,0,0,1,.727-.618,3.033,3.033,0,0,1,.829-.335,4.839,4.839,0,0,1,.881-.116,5.021,5.021,0,0,1,.88,0,2.908,2.908,0,0,1,.829.255,2.3,2.3,0,0,1,.727.553,2.449,2.449,0,0,1,.494.946,4.579,4.579,0,0,1,.2,1.419,4.972,4.972,0,0,1-.2,1.454,3.057,3.057,0,0,1-.494,1.026,2.859,2.859,0,0,1-.727.647,3.127,3.127,0,0,1-.829.363,4.71,4.71,0,0,1-.88.124,4.34,4.34,0,0,1-.881-.043,2.8,2.8,0,0,1-.829-.284,2.488,2.488,0,0,1-.727-.574,2.813,2.813,0,0,1-.487-.982A4.768,4.768,0,0,1,438.354,388.278Zm1.207,0a4.252,4.252,0,0,0,.153,1.237,1.362,1.362,0,0,0,.444.728,1.52,1.52,0,0,0,.6.291,2.484,2.484,0,0,0,.727.051,3.2,3.2,0,0,0,.6-.073,1.609,1.609,0,0,0,.509-.218,1.214,1.214,0,0,0,.436-.422,2.565,2.565,0,0,0,.277-.727,4.489,4.489,0,0,0,.109-1.048,4.061,4.061,0,0,0-.153-1.215,1.263,1.263,0,0,0-.444-.727,1.548,1.548,0,0,0-.6-.269,2.845,2.845,0,0,0-.727-.043,4.035,4.035,0,0,0-.582.072,1.614,1.614,0,0,0-.517.211,1.241,1.241,0,0,0-.436.407,2.281,2.281,0,0,0-.269.684,3.972,3.972,0,0,0-.124,1.033Z" transform="translate(-68.09 -57.383)"/><path class="g" d="M447.624,391.064V384.4c.858-.087,1.709-.182,2.568-.292a2.571,2.571,0,0,1,1.819.3,1.714,1.714,0,0,1,.647,1.492,2.249,2.249,0,0,1-1.455,2.182l1.746,2.284-1.455.219-1.586-2.138-1.077.13v2.35Zm1.207-3.579,1.325-.16a1.921,1.921,0,0,0,.952-.342,1.036,1.036,0,0,0,.349-.873c0-.408-.116-.67-.349-.779a1.733,1.733,0,0,0-.952-.087l-1.325.16Z" transform="translate(-69.657 -57.267)"/><path class="g" d="M454.417,383.316l1.455-.248,1.753,2.372q.874-1.542,1.739-3.077l1.454-.335-2.575,4.364v2.859c-.4.087-.793.167-1.192.239V386.64C456.148,385.549,455.283,384.444,454.417,383.316Z" transform="translate(-70.805 -56.924)"/><path class="g" d="M424.13,430.889v-6.677c.727.182,1.512.342,2.269.487a3.474,3.474,0,0,1,3.142,3.8,3.127,3.127,0,0,1-.793,2.379,2.613,2.613,0,0,1-2.349.473C425.643,431.231,424.879,431.071,424.13,430.889Zm1.178-.814,1.091.219a1.6,1.6,0,0,0,1.491-.277,2.327,2.327,0,0,0,.451-1.651,2.9,2.9,0,0,0-.451-1.8,2.29,2.29,0,0,0-1.491-.779l-1.091-.218Z" transform="translate(-65.686 -64.053)"/><path class="g" d="M432.428,432.214v-6.663q.6.059,1.2.087v6.656Z" transform="translate(-67.089 -64.279)"/><path class="g" d="M435.605,427.567a1.659,1.659,0,0,1,.684-1.455A3.074,3.074,0,0,1,438,425.6a4.2,4.2,0,0,1,1.8.371v1.178a2.974,2.974,0,0,0-1.659-.422,2.233,2.233,0,0,0-.938.211.64.64,0,0,0-.386.6.574.574,0,0,0,.349.516,3.289,3.289,0,0,0,.851.3,8.574,8.574,0,0,1,1,.283,1.774,1.774,0,0,1,.851.619,1.951,1.951,0,0,1,.349,1.214,1.707,1.707,0,0,1-.669,1.36,2.6,2.6,0,0,1-1.644.583,3.89,3.89,0,0,1-2.182-.546v-1.215a2.98,2.98,0,0,0,1.935.64c.924,0,1.382-.312,1.382-.822a.728.728,0,0,0-.247-.56,1.526,1.526,0,0,0-.633-.312c-.254-.066-.531-.145-.822-.24a6.889,6.889,0,0,1-.822-.32,1.459,1.459,0,0,1-.633-.553A1.632,1.632,0,0,1,435.605,427.567Z" transform="translate(-67.625 -64.288)"/><path class="g" d="M442.8,431.876v-6.663l1.2-.153v2.8c.837-1.055,1.674-2.138,2.5-3.237.538-.1,1.069-.218,1.593-.341q-1.318,1.768-2.663,3.462,1.455,1.615,2.909,3.135c-.494.116-.981.226-1.454.327q-1.113-1.221-2.234-2.488l-.661.829v2.182Z" transform="translate(-68.842 -64.065)"/><path class="c" d="M413.584,477.162s-1.986,3,1.905,3.637c.386.051,3.208.342,3.936,1.266,0,0-.066-1.593-2.357-2.531S413.831,478.326,413.584,477.162Z" transform="translate(-63.818 -73.002)"/><path class="c" d="M415.485,469.38s-5.543,3.382-.32,6.744c1,.647,4.649,2.473,4.546,4.153,0,0,2.182-3.273-1.018-5.325S414.533,470.595,415.485,469.38Z" transform="translate(-63.792 -71.687)"/><path class="c" d="M421.838,472.138c-2.372-2.5-3.034-4.03-2.023-6.023,0,0-7.093,2.728-.087,7.572,2.51,1.739,2.087,3.507,2.087,3.572a3.469,3.469,0,0,0,.24-4.9C421.986,472.281,421.914,472.208,421.838,472.138Z" transform="translate(-64.42 -71.135)"/><g class="h" transform="translate(363.568 399.269)"><g class="h" transform="translate(0 0.085)"><path class="g" d="M430.3,477.675v-6.3h.774L435,476.921l-.17.264v-5.807h.68v6.3h-.764l-4.079-5.75.312-.293v6.043Z" transform="translate(-430.296 -471.378)"/></g><g class="h" transform="translate(6.703)"><path class="g" d="M441.185,477.753a3.082,3.082,0,0,1-1.562-.363,2.254,2.254,0,0,1-.944-1.082,4.447,4.447,0,0,1-.317-1.793,3.588,3.588,0,0,1,.713-2.422,2.648,2.648,0,0,1,2.11-.817,3.106,3.106,0,0,1,1.572.363,2.26,2.26,0,0,1,.945,1.082,4.463,4.463,0,0,1,.316,1.793,3.588,3.588,0,0,1-.713,2.422A2.661,2.661,0,0,1,441.185,477.753Zm0-.642a2.406,2.406,0,0,0,1.218-.273,1.605,1.605,0,0,0,.694-.85,4.984,4.984,0,0,0,0-2.941,1.631,1.631,0,0,0-.694-.849,2.38,2.38,0,0,0-1.218-.278,2.355,2.355,0,0,0-1.208.278,1.631,1.631,0,0,0-.694.849,4.983,4.983,0,0,0,0,2.941,1.6,1.6,0,0,0,.694.85A2.382,2.382,0,0,0,441.185,477.11Z" transform="translate(-438.362 -471.276)"/></g><g class="h" transform="translate(13.878 0.085)"><path class="g" d="M447,477.675v-6.3h1.973a2.9,2.9,0,0,1,2.215.788,4.122,4.122,0,0,1,0,4.717,2.887,2.887,0,0,1-2.215.793Zm.681-.642h1.246a2.264,2.264,0,0,0,1.756-.6,3.594,3.594,0,0,0,0-3.814,2.264,2.264,0,0,0-1.756-.6h-1.246Z" transform="translate(-446.997 -471.378)"/></g><g class="h" transform="translate(20.163 0.085)"><path class="g" d="M454.56,477.675v-6.3h3.975v.642h-3.3v2.172h2.9v.661h-2.9v2.181h3.3v.642Z" transform="translate(-454.56 -471.378)"/></g></g><path class="f" d="M304.738,353.588c-14.854,0-30.224,3.368-30.224,9.005v71.324a3.361,3.361,0,0,0,.647,1.942,5.727,5.727,0,0,0,.727.851c3.848,3.717,15.436,6.212,28.842,6.212s25.016-2.495,28.85-6.2a5.735,5.735,0,0,0,.727-.858,3.413,3.413,0,0,0,.641-1.943V362.594C334.977,356.993,319.606,353.588,304.738,353.588Z" transform="translate(-40.401 -52.117)"/><path class="c" d="M325.348,355.052a90.553,90.553,0,0,0-41.426,0c-6.547,1.782-10.038,4.314-10.038,7.318v23.9a4.154,4.154,0,0,0,.785,2.378,6.866,6.866,0,0,0,.829.967c3.942,3.8,15.654,6.365,29.133,6.365s25.2-2.561,29.147-6.365a6.437,6.437,0,0,0,.837-.967,4.145,4.145,0,0,0,.779-2.378v-23.9C335.394,359.365,331.924,356.834,325.348,355.052Zm7.005,32.007a4.4,4.4,0,0,1-.48.553c-3.368,3.252-14.817,5.6-27.242,5.6s-23.86-2.357-27.22-5.6a3.949,3.949,0,0,1-.48-.553,1.393,1.393,0,0,1-.283-.793V366.625A15.694,15.694,0,0,0,278.7,367.8h.036q.553.262,1.178.524l.1.036c.4.168.808.32,1.244.473l.153.058,1.134.371.349.109,1.135.32.516.138,1.135.277.655.153,1.134.24.728.145.9.167,1.04.168.851.13c.371.058.727.109,1.12.153l.967.124.873.1c.436.052.873.095,1.316.131l.662.066,1.6.123.575.037,1.746.095h.436l1.928.058H307l1.92-.058h.444l1.746-.095.574-.037,1.593-.123.684-.066c.429-.037.851-.08,1.273-.131l.917-.1.953-.116,1.127-.16.844-.13c.357-.052.727-.11,1.055-.175l.895-.16.727-.145,1.135-.24.654-.153,1.143-.276.5-.131,1.178-.342.291-.088c.407-.123.8-.254,1.178-.385l.124-.044c.444-.16.866-.32,1.28-.487h.066c.422-.175.822-.35,1.207-.531h0a15.469,15.469,0,0,0,2.066-1.172v19.641a1.46,1.46,0,0,1-.218.771Zm-27.722-31.643c17.349,0,28,4.051,28,6.954a1.451,1.451,0,0,1-.283.8c-1.215,1.789-5.55,3.637-11.959,4.816h-.051l-.727.13-.764.124h0a89,89,0,0,1-11.813,1.04h-4.714a90.088,90.088,0,0,1-11.791-1.033h-.051l-.728-.116-.771-.138h0c-6.4-1.193-10.736-3.019-11.959-4.816a1.455,1.455,0,0,1-.291-.8c-.08-2.91,10.569-6.961,27.9-6.961Z" transform="translate(-40.294 -51.959)"/><path class="c" d="M334.1,391.409a1.28,1.28,0,0,0-1.281,1.28h0a1.583,1.583,0,0,1-.3.858c-1.1,1.63-4.6,3.223-9.616,4.364a91.193,91.193,0,0,1-36.531,0c-5.013-1.149-8.511-2.742-9.61-4.364a1.6,1.6,0,0,1-.306-.866,1.28,1.28,0,1,0-2.553-.192,1.229,1.229,0,0,0,0,.192v47.791a4.006,4.006,0,0,0,.727,2.321,6.6,6.6,0,0,0,.815.952c1.971,1.9,5.819,3.5,11.1,4.641a95.776,95.776,0,0,0,36.108,0c5.3-1.134,9.129-2.742,11.093-4.634a6.7,6.7,0,0,0,.829-.96,4.066,4.066,0,0,0,.764-2.321V392.689A1.28,1.28,0,0,0,334.1,391.409Zm-1.259,49.064a1.51,1.51,0,0,1-.3.852,3.462,3.462,0,0,1-.494.574h0c-1.63,1.571-5.215,3-10.111,4.03a93.108,93.108,0,0,1-34.538,0c-4.889-1.025-8.482-2.458-10.118-4.037h0a4.065,4.065,0,0,1-.488-.56,1.508,1.508,0,0,1-.306-.858V396.828c2.095,1.521,5.449,2.808,9.821,3.775a95.8,95.8,0,0,0,36.713,0c4.364-.967,7.732-2.254,9.827-3.775Z" transform="translate(-40.298 -58.492)"/><path class="g" d="M286.261,388.718v-6.663c.436.109.873.21,1.317.3q.952,1.6,1.905,3.194l1.913-2.422,1.324.225v6.664l-1.193-.2v-4.924l-2.044,2.553q-1.026-1.673-2.037-3.375v4.925Z" transform="translate(-42.386 -56.928)"/><path class="g" d="M296.056,390.572v-6.627q2.183.328,4.438.531v1.077c-1.076-.1-2.182-.225-3.237-.364v1.666c.931.124,1.869.225,2.808.32v1.134c-.939-.094-1.877-.2-2.808-.32v1.688c1.076.138,2.182.255,3.237.357v1.077Q298.267,390.885,296.056,390.572Z" transform="translate(-44.041 -57.248)"/><path class="g" d="M303.051,391.345v-6.656l1.338.095,1.942,2.91,1.935-2.728h1.339v6.663H308.4V386.7c-.691.967-1.374,1.935-2.066,2.91l-2.073-3.056v4.924Z" transform="translate(-45.223 -57.374)"/><path class="g" d="M312.706,388.278a4.787,4.787,0,0,1,.189-1.455,2.791,2.791,0,0,1,.5-.989,2.487,2.487,0,0,1,.727-.618,2.948,2.948,0,0,1,.837-.335,4.6,4.6,0,0,1,.873-.116,5.021,5.021,0,0,1,.88,0,3.012,3.012,0,0,1,.837.255,2.257,2.257,0,0,1,.727.553,2.56,2.56,0,0,1,.5.946,4.815,4.815,0,0,1,.189,1.419,5.276,5.276,0,0,1-.189,1.454,3.2,3.2,0,0,1-.5,1.026,2.818,2.818,0,0,1-.727.647,3.284,3.284,0,0,1-.837.363,4.621,4.621,0,0,1-.88.124,4.2,4.2,0,0,1-.873-.043,2.784,2.784,0,0,1-.837-.284,2.35,2.35,0,0,1-.727-.574,2.7,2.7,0,0,1-.5-.982A4.788,4.788,0,0,1,312.706,388.278Zm1.2,0a4.253,4.253,0,0,0,.153,1.237,1.362,1.362,0,0,0,.444.728,1.567,1.567,0,0,0,.6.291,2.514,2.514,0,0,0,.727.051,3.209,3.209,0,0,0,.6-.073,1.692,1.692,0,0,0,.516-.218,1.258,1.258,0,0,0,.43-.422,2.536,2.536,0,0,0,.276-.727,5.106,5.106,0,0,0-.036-2.263,1.32,1.32,0,0,0-.451-.727,1.512,1.512,0,0,0-.6-.269,2.845,2.845,0,0,0-.727-.043,4.032,4.032,0,0,0-.583.072,1.618,1.618,0,0,0-.516.211,1.3,1.3,0,0,0-.436.407,2.26,2.26,0,0,0-.269.684,4.311,4.311,0,0,0-.087,1.033Z" transform="translate(-46.855 -57.383)"/><path class="g" d="M321.967,391.064V384.4c.858-.087,1.709-.182,2.568-.292a2.569,2.569,0,0,1,1.818.3A1.709,1.709,0,0,1,327,385.9a2.248,2.248,0,0,1-1.454,2.182l1.746,2.284-1.455.219-1.6-2.132c-.356.052-.727.087-1.076.131v2.349Zm1.207-3.579,1.324-.16a1.987,1.987,0,0,0,.961-.342,1.055,1.055,0,0,0,.342-.873c0-.408-.116-.67-.342-.779a1.778,1.778,0,0,0-.961-.087l-1.324.16Z" transform="translate(-48.42 -57.267)"/><path class="g" d="M328.76,383.316l1.454-.248,1.717,2.372q.874-1.542,1.738-3.077l1.455-.335-2.575,4.364v2.859c-.392.087-.793.167-1.185.239V386.64C330.477,385.549,329.633,384.444,328.76,383.316Z" transform="translate(-49.568 -56.924)"/><path class="g" d="M298.437,430.889v-6.677c.728.182,1.513.342,2.27.487a3.806,3.806,0,0,1,2.342,1.222,3.853,3.853,0,0,1,.808,2.582,3.132,3.132,0,0,1-.8,2.379,2.6,2.6,0,0,1-2.349.473C299.979,431.231,299.216,431.071,298.437,430.889Zm1.186-.814c.356.08.728.153,1.084.219a1.6,1.6,0,0,0,1.454-.277,2.321,2.321,0,0,0,.459-1.651,2.906,2.906,0,0,0-.459-1.8,2.291,2.291,0,0,0-1.454-.779c-.364-.072-.728-.138-1.084-.218Z" transform="translate(-44.444 -64.053)"/><path class="g" d="M306.771,432.214v-6.663q.6.059,1.2.087v6.656Z" transform="translate(-45.852 -64.279)"/><path class="g" d="M309.947,427.567a1.662,1.662,0,0,1,.684-1.455,3.078,3.078,0,0,1,1.709-.509,4.193,4.193,0,0,1,1.8.371v1.178a2.973,2.973,0,0,0-1.658-.422,2.237,2.237,0,0,0-.939.211.641.641,0,0,0-.386.6.575.575,0,0,0,.35.516,3.4,3.4,0,0,0,.851.3,8.619,8.619,0,0,1,1,.283,1.774,1.774,0,0,1,.851.619,1.951,1.951,0,0,1,.349,1.214,1.707,1.707,0,0,1-.669,1.36,2.592,2.592,0,0,1-1.637.583,3.9,3.9,0,0,1-2.219-.546v-1.215a2.983,2.983,0,0,0,1.935.64c.924,0,1.382-.312,1.382-.822a.726.726,0,0,0-.248-.56,1.518,1.518,0,0,0-.632-.312c-.254-.066-.531-.145-.822-.24a6.359,6.359,0,0,1-.815-.32,1.409,1.409,0,0,1-.632-.553A1.637,1.637,0,0,1,309.947,427.567Z" transform="translate(-46.388 -64.288)"/><path class="g" d="M317.144,431.876v-6.663l1.2-.153v2.8c.837-1.055,1.673-2.138,2.5-3.237.539-.1,1.069-.218,1.593-.341q-1.316,1.768-2.662,3.462,1.455,1.615,2.909,3.135c-.488.116-.982.226-1.455.327q-1.113-1.221-2.233-2.488l-.662.829v2.182Z" transform="translate(-47.605 -64.065)"/><path class="c" d="M287.926,477.162s-1.985,3,1.914,3.637c.378.051,3.2.342,3.928,1.266,0,0-.066-1.593-2.358-2.531S288.181,478.326,287.926,477.162Z" transform="translate(-42.582 -73.002)"/><path class="c" d="M289.828,469.38s-5.543,3.382-.32,6.744c1.011.647,4.649,2.473,4.546,4.153,0,0,2.182-3.273-1.019-5.325S288.882,470.595,289.828,469.38Z" transform="translate(-42.556 -71.687)"/><path class="c" d="M296.181,472.138c-2.371-2.5-3.033-4.03-2.015-6.023,0,0-7.1,2.728-.094,7.572,2.51,1.739,2.087,3.507,2.087,3.572a3.462,3.462,0,0,0,.25-4.89C296.337,472.288,296.261,472.211,296.181,472.138Z" transform="translate(-43.184 -71.135)"/><g class="h" transform="translate(259.146 399.269)"><g class="h" transform="translate(0 0.085)"><path class="g" d="M304.638,477.675v-6.3h.774l3.928,5.543-.17.264v-5.807h.681v6.3h-.765l-4.079-5.75.312-.293v6.043Z" transform="translate(-304.638 -471.378)"/></g><g class="h" transform="translate(6.704)"><path class="g" d="M315.528,477.753a3.08,3.08,0,0,1-1.562-.363,2.254,2.254,0,0,1-.944-1.082,4.448,4.448,0,0,1-.317-1.793,3.588,3.588,0,0,1,.713-2.422,2.647,2.647,0,0,1,2.11-.817,3.106,3.106,0,0,1,1.572.363,2.258,2.258,0,0,1,.944,1.082,4.448,4.448,0,0,1,.317,1.793,3.589,3.589,0,0,1-.713,2.422A2.661,2.661,0,0,1,315.528,477.753Zm0-.642a2.406,2.406,0,0,0,1.218-.273,1.609,1.609,0,0,0,.694-.85,4.983,4.983,0,0,0,0-2.941,1.635,1.635,0,0,0-.694-.849,2.38,2.38,0,0,0-1.218-.278,2.353,2.353,0,0,0-1.208.278,1.627,1.627,0,0,0-.694.849,4.966,4.966,0,0,0,0,2.941,1.6,1.6,0,0,0,.694.85A2.38,2.38,0,0,0,315.528,477.11Z" transform="translate(-312.705 -471.276)"/></g><g class="h" transform="translate(13.879 0.085)"><path class="g" d="M321.34,477.675v-6.3h1.973a2.9,2.9,0,0,1,2.215.788,4.123,4.123,0,0,1,0,4.717,2.89,2.89,0,0,1-2.215.793Zm.68-.642h1.246a2.264,2.264,0,0,0,1.757-.6,3.595,3.595,0,0,0,0-3.814,2.265,2.265,0,0,0-1.757-.6H322.02Z" transform="translate(-321.34 -471.378)"/></g><g class="h" transform="translate(20.164 0.085)"><path class="g" d="M328.9,477.675v-6.3h3.975v.642h-3.295v2.172h2.9v.661h-2.9v2.181h3.295v.642Z" transform="translate(-328.903 -471.378)"/></g></g><path class="f" d="M367.571,373.546c-14.861,0-30.224,3.368-30.224,9.005v71.287a3.375,3.375,0,0,0,.647,1.942,5.3,5.3,0,0,0,.727.851c3.841,3.717,15.429,6.213,28.842,6.213s25.009-2.5,28.85-6.205a5.735,5.735,0,0,0,.727-.858,3.369,3.369,0,0,0,.647-1.942V382.551C397.81,376.914,382.433,373.546,367.571,373.546Z" transform="translate(-51.02 -55.49)"/><path class="c" d="M388.181,375.01a90.583,90.583,0,0,0-41.426,0c-6.547,1.783-10.038,4.306-10.038,7.318v23.9a4.149,4.149,0,0,0,.778,2.378,6.36,6.36,0,0,0,.837.967c3.942,3.8,15.647,6.365,29.133,6.365s25.2-2.561,29.148-6.365a7.186,7.186,0,0,0,.828-.967,4.149,4.149,0,0,0,.786-2.378v-23.9C398.227,379.316,394.75,376.792,388.181,375.01Zm7,32.007a3.9,3.9,0,0,1-.48.553c-3.361,3.252-14.817,5.6-27.234,5.6s-23.866-2.357-27.228-5.6a4,4,0,0,1-.479-.56,1.393,1.393,0,0,1-.277-.785V386.583a15.214,15.214,0,0,0,2.052,1.171h0l1.178.524.1.036c.4.168.815.321,1.244.473l.16.058,1.127.371.357.109c.364.109.728.219,1.128.32l.517.139,1.134.276.662.153,1.128.24.727.145.9.16c.35.065.691.123,1.048.174l.851.13c.364.051.727.109,1.113.153l.968.124.88.1c.429.044.865.095,1.309.131l.67.066,1.593.124.574.036,1.753.095h.429c.641,0,1.281.051,1.928.066H369.8l1.92-.058h.436l1.753-.095.574-.037,1.586-.123.684-.066a10.676,10.676,0,0,0,1.273-.131l.917-.1.953-.124c.386-.044.764-.1,1.134-.153l.837-.131c.357-.051.727-.109,1.055-.174l.895-.16.764-.145,1.128-.24.661-.153,1.143-.277.494-.138c.407-.109.8-.219,1.186-.335l.291-.087q.6-.188,1.178-.392h.124c.444-.16.866-.321,1.273-.488h.066c.421-.174.829-.349,1.207-.531h0a15.481,15.481,0,0,0,2.066-1.171v19.64A1.4,1.4,0,0,1,395.179,407.017Zm-27.715-31.643c17.342,0,28,4.052,28,6.954a1.455,1.455,0,0,1-.291.8c-1.215,1.79-5.55,3.637-11.951,4.808h-.058l-.727.131-.727.124h0a89.048,89.048,0,0,1-11.807,1.04H365.13a90.005,90.005,0,0,1-11.784-1.033h-.051l-.727-.116-.779-.138h0c-6.409-1.193-10.744-3.019-11.966-4.816a1.452,1.452,0,0,1-.284-.8C339.481,379.426,350.123,375.374,367.465,375.374Z" transform="translate(-50.913 -55.332)"/><path class="c" d="M396.935,411.388a1.28,1.28,0,0,0-1.281,1.28h0a1.583,1.583,0,0,1-.3.858c-1.105,1.63-4.612,3.223-9.616,4.364a91.231,91.231,0,0,1-36.538,0c-5.005-1.149-8.511-2.742-9.61-4.364a1.6,1.6,0,0,1-.3-.858,1.28,1.28,0,0,0-2.56,0v47.748a4.02,4.02,0,0,0,.771,2.32,6.153,6.153,0,0,0,.815.953c1.964,1.9,5.819,3.5,11.1,4.641a95.775,95.775,0,0,0,36.1,0c5.3-1.135,9.129-2.743,11.1-4.641a5.632,5.632,0,0,0,.822-.961,3.965,3.965,0,0,0,.765-2.313V412.668A1.28,1.28,0,0,0,396.935,411.388Zm-1.281,49.028a1.514,1.514,0,0,1-.3.851,3.838,3.838,0,0,1-.5.574h0c-1.63,1.571-5.223,3-10.118,4.03a92.93,92.93,0,0,1-34.538,0c-4.888-1.025-8.482-2.451-10.111-4.03h0a3.729,3.729,0,0,1-.488-.567,1.517,1.517,0,0,1-.3-.852V416.778c2.095,1.521,5.441,2.808,9.821,3.775a95.764,95.764,0,0,0,36.705,0c4.364-.967,7.74-2.254,9.835-3.775Z" transform="translate(-50.916 -61.886)"/><path class="g" d="M349.085,408.65v-6.664c.437.11.881.2,1.317.306.632,1.069,1.273,2.132,1.905,3.194.641-.8,1.273-1.608,1.914-2.422l1.324.225v6.664l-1.193-.2v-4.924c-.684.858-1.36,1.709-2.044,2.554-.676-1.12-1.36-2.24-2.037-3.375v4.924Z" transform="translate(-53.003 -60.297)"/><path class="g" d="M358.881,410.523V403.86q2.181.327,4.444.531V405.5c-1.084-.1-2.182-.225-3.244-.363v1.687c.938.124,1.876.226,2.815.321v1.127c-.939-.087-1.877-.2-2.815-.32v1.688c1.084.145,2.182.262,3.244.364v1.076Q361.1,410.842,358.881,410.523Z" transform="translate(-54.659 -60.613)"/><path class="g" d="M365.884,411.294v-6.655c.444,0,.888.066,1.338.087q.961,1.455,1.935,2.909l1.942-2.727h1.339v6.663H371.23v-4.924q-1.036,1.451-2.073,2.909l-2.073-3.055v4.924C366.683,411.353,366.284,411.331,365.884,411.294Z" transform="translate(-55.842 -60.745)"/><path class="g" d="M375.53,408.236a5.031,5.031,0,0,1,.189-1.454,2.893,2.893,0,0,1,.494-.99,2.487,2.487,0,0,1,.727-.618,3.06,3.06,0,0,1,.837-.342,5.408,5.408,0,0,1,.88-.11,4.936,4.936,0,0,1,.873,0,2.889,2.889,0,0,1,.837.255,2.388,2.388,0,0,1,.727.545,2.552,2.552,0,0,1,.5.953,4.6,4.6,0,0,1,.189,1.419,4.921,4.921,0,0,1-.189,1.455,3.037,3.037,0,0,1-.5,1.033,2.974,2.974,0,0,1-1.571,1,4.563,4.563,0,0,1-.873.13,4.329,4.329,0,0,1-.88-.043,2.847,2.847,0,0,1-.837-.284,2.337,2.337,0,0,1-.727-.574,2.823,2.823,0,0,1-.494-.982A5.02,5.02,0,0,1,375.53,408.236Zm1.207-.036a4.2,4.2,0,0,0,.153,1.237,1.347,1.347,0,0,0,.436.727,1.54,1.54,0,0,0,.6.291,2.485,2.485,0,0,0,.727.051,4.013,4.013,0,0,0,.589-.072,1.632,1.632,0,0,0,.517-.219,1.331,1.331,0,0,0,.429-.421,2.55,2.55,0,0,0,.283-.728,4.437,4.437,0,0,0,.11-1.047,4.158,4.158,0,0,0-.153-1.222,1.29,1.29,0,0,0-.444-.727,1.553,1.553,0,0,0-.6-.269,2.883,2.883,0,0,0-.727-.044,4.016,4.016,0,0,0-.589.073,1.938,1.938,0,0,0-.517.2,1.3,1.3,0,0,0-.429.415,2.26,2.26,0,0,0-.277.684A4.4,4.4,0,0,0,376.737,408.2Z" transform="translate(-57.473 -60.756)"/><path class="g" d="M384.8,411.021v-6.663c.851-.087,1.709-.182,2.56-.291a2.515,2.515,0,0,1,1.819.3,1.691,1.691,0,0,1,.647,1.492,2.226,2.226,0,0,1-1.455,2.182l1.746,2.291-1.455.219c-.531-.727-1.062-1.419-1.586-2.139l-1.084.131v2.349Zm1.2-3.579,1.331-.16a1.969,1.969,0,0,0,.953-.342,1.04,1.04,0,0,0,.349-.873c0-.415-.116-.67-.349-.779a1.751,1.751,0,0,0-.953-.087l-1.331.16Z" transform="translate(-59.039 -60.639)"/><path class="g" d="M391.593,403.274l1.455-.255c.582.8,1.171,1.593,1.753,2.372.582-1.018,1.157-2.044,1.738-3.07l1.455-.335q-1.276,2.183-2.568,4.365v2.859c-.4.087-.793.167-1.193.24v-2.815Q392.9,404.962,391.593,403.274Z" transform="translate(-60.187 -60.297)"/><path class="g" d="M361.3,450.868v-6.663c.727.182,1.512.341,2.277.487a3.8,3.8,0,0,1,2.342,1.222,3.89,3.89,0,0,1,.8,2.582,3.126,3.126,0,0,1-.8,2.379,2.6,2.6,0,0,1-2.342.473C362.809,451.2,362.053,451.035,361.3,450.868Zm1.186-.814q.545.123,1.091.218a1.585,1.585,0,0,0,1.454-.276,2.322,2.322,0,0,0,.459-1.651,2.914,2.914,0,0,0-.415-1.841,2.271,2.271,0,0,0-1.455-.779l-1.091-.218Z" transform="translate(-55.067 -67.432)"/><path class="g" d="M369.6,452.172v-6.663c.4,0,.808.058,1.207.08v6.664Z" transform="translate(-56.47 -67.652)"/><path class="g" d="M372.78,447.526a1.676,1.676,0,0,1,.676-1.455,3.086,3.086,0,0,1,1.71-.509,4.2,4.2,0,0,1,1.8.371v1.178a2.981,2.981,0,0,0-1.658-.422,2.249,2.249,0,0,0-.939.211.627.627,0,0,0-.386.6.574.574,0,0,0,.35.516,3.287,3.287,0,0,0,.851.3,9.018,9.018,0,0,1,1,.284,1.77,1.77,0,0,1,.858.618,1.94,1.94,0,0,1,.349,1.214,1.7,1.7,0,0,1-.676,1.36,2.6,2.6,0,0,1-1.636.583,3.873,3.873,0,0,1-2.183-.546v-1.215a2.983,2.983,0,0,0,1.935.641c.924,0,1.382-.313,1.382-.823a.726.726,0,0,0-.248-.56,1.519,1.519,0,0,0-.632-.312c-.262-.066-.531-.145-.822-.24a7.649,7.649,0,0,1-.822-.32,1.454,1.454,0,0,1-.633-.553A1.639,1.639,0,0,1,372.78,447.526Z" transform="translate(-57.007 -67.661)"/><path class="g" d="M379.968,451.839v-6.664l1.2-.153v2.823c.844-1.055,1.68-2.139,2.51-3.237.531-.1,1.062-.219,1.593-.342q-1.33,1.768-2.662,3.463,1.455,1.614,2.909,3.135l-1.455.327c-.727-.815-1.454-1.645-2.225-2.488l-.67.829v2.182Z" transform="translate(-58.223 -67.442)"/><path class="c" d="M350.752,497.12s-1.979,3,1.913,3.637c.378.051,3.2.342,3.928,1.266,0,0-.066-1.593-2.357-2.531S351.006,498.284,350.752,497.12Z" transform="translate(-53.2 -76.375)"/><path class="c" d="M352.652,489.338s-5.543,3.383-.32,6.744c1.011.647,4.656,2.473,4.546,4.153,0,0,2.182-3.273-1.018-5.325S351.714,490.553,352.652,489.338Z" transform="translate(-53.173 -75.06)"/><path class="c" d="M359.013,492.14c-2.378-2.5-3.041-4.03-2.022-6.023,0,0-7.093,2.727-.095,7.572,2.51,1.738,2.095,3.506,2.095,3.572a3.47,3.47,0,0,0,.24-4.9C359.162,492.283,359.089,492.21,359.013,492.14Z" transform="translate(-53.802 -74.515)"/><g class="h" transform="translate(311.36 415.854)"><g class="h" transform="translate(0 0.085)"><path class="g" d="M367.471,497.633v-6.3h.774l3.927,5.543-.17.264v-5.807h.68v6.3h-.765l-4.079-5.75.312-.293v6.043Z" transform="translate(-367.471 -491.336)"/></g><g class="h" transform="translate(6.704)"><path class="g" d="M378.361,497.711a3.077,3.077,0,0,1-1.563-.364,2.257,2.257,0,0,1-.944-1.081,4.449,4.449,0,0,1-.316-1.793,3.588,3.588,0,0,1,.712-2.422,2.65,2.65,0,0,1,2.111-.817,3.106,3.106,0,0,1,1.572.363,2.264,2.264,0,0,1,.944,1.081,4.457,4.457,0,0,1,.316,1.794,3.588,3.588,0,0,1-.712,2.422A2.662,2.662,0,0,1,378.361,497.711Zm0-.642a2.406,2.406,0,0,0,1.218-.273,1.606,1.606,0,0,0,.693-.85,4.966,4.966,0,0,0,0-2.941,1.63,1.63,0,0,0-.693-.849,2.372,2.372,0,0,0-1.218-.279,2.347,2.347,0,0,0-1.208.279,1.628,1.628,0,0,0-.694.849,4.966,4.966,0,0,0,0,2.941,1.6,1.6,0,0,0,.694.85A2.382,2.382,0,0,0,378.361,497.068Z" transform="translate(-375.538 -491.234)"/></g><g class="h" transform="translate(13.879 0.085)"><path class="g" d="M384.173,497.633v-6.3h1.973a2.9,2.9,0,0,1,2.215.788,4.122,4.122,0,0,1,0,4.717,2.89,2.89,0,0,1-2.215.793Zm.68-.642H386.1a2.264,2.264,0,0,0,1.757-.6,3.595,3.595,0,0,0,0-3.814,2.265,2.265,0,0,0-1.757-.605h-1.246Z" transform="translate(-384.173 -491.336)"/></g><g class="h" transform="translate(20.164 0.085)"><path class="g" d="M391.736,497.633v-6.3h3.975v.642h-3.295v2.171h2.9v.661h-2.9v2.181h3.295v.642Z" transform="translate(-391.736 -491.336)"/></g></g><rect class="d" width="423.604" height="107.847" rx="6.705" transform="translate(100.232 45.209)"/><path class="i" d="M136.5,145.719l4.306-10.795h1.454l4.285,10.795h-1.615l-1.157-3.026h-4.5l-1.164,3.026Zm3.324-4.429h3.426l-1.717-4.482Z" transform="translate(-17.075 -15.162)"/><path class="i" d="M150.634,149.315v-8.678a2.983,2.983,0,0,1,.043-.516,2.449,2.449,0,0,1,.24-.655,2.315,2.315,0,0,1,.524-.727,2.762,2.762,0,0,1,1-.524A4.926,4.926,0,0,1,153.98,138a5.039,5.039,0,0,1,.88.08,3.315,3.315,0,0,1,.939.356,3.018,3.018,0,0,1,.88.727,3.647,3.647,0,0,1,.618,1.244,6.249,6.249,0,0,1,.247,1.855,5.728,5.728,0,0,1-.327,2.052,2.629,2.629,0,0,1-.9,1.258,3.948,3.948,0,0,1-1.171.589,4.675,4.675,0,0,1-1.317.182,6.058,6.058,0,0,1-1.716-.24v3.186Zm1.454-4.6a4.816,4.816,0,0,0,1.717.32,3.188,3.188,0,0,0,.851-.095,1.926,1.926,0,0,0,.691-.363,1.67,1.67,0,0,0,.524-.844,5.027,5.027,0,0,0,.174-1.455,5.909,5.909,0,0,0-.174-1.564,1.753,1.753,0,0,0-1.171-1.287,2.347,2.347,0,0,0-.728-.1c-1.251,0-1.869.4-1.869,1.207Z" transform="translate(-19.464 -15.681)"/><path class="i" d="M161.3,149.315v-8.678a2.289,2.289,0,0,1,.284-1.171,2.217,2.217,0,0,1,.531-.727,2.642,2.642,0,0,1,.989-.524A4.971,4.971,0,0,1,164.65,138a5.045,5.045,0,0,1,.88.08,3.3,3.3,0,0,1,.938.356,3.007,3.007,0,0,1,.88.727,3.631,3.631,0,0,1,.618,1.244,6.25,6.25,0,0,1,.248,1.855,5.729,5.729,0,0,1-.327,2.052,2.622,2.622,0,0,1-.9,1.258,3.856,3.856,0,0,1-1.172.589,4.67,4.67,0,0,1-1.316.182,6.06,6.06,0,0,1-1.717-.24v3.186Zm1.455-4.6a4.849,4.849,0,0,0,1.717.32,3.192,3.192,0,0,0,.851-.095,1.916,1.916,0,0,0,.691-.363,1.666,1.666,0,0,0,.524-.844,5.056,5.056,0,0,0,.175-1.455,5.943,5.943,0,0,0-.175-1.564,1.873,1.873,0,0,0-.509-.9,1.9,1.9,0,0,0-.611-.386,2.347,2.347,0,0,0-.728-.1c-1.244,0-1.869.4-1.869,1.207Z" transform="translate(-21.268 -15.681)"/><path class="i" d="M172.325,145.642V134.469h1.455V145.62Z" transform="translate(-23.13 -15.085)"/><path class="i" d="M177.306,136.374V134.81h1.571v1.564Zm.051,9.325v-8.074h1.455V145.7Z" transform="translate(-23.972 -15.143)"/><path class="i" d="M182.695,145.305a5.479,5.479,0,0,1,0-6.2,3.584,3.584,0,0,1,2.8-1.07,6.494,6.494,0,0,1,2.378.451V139.9a5.007,5.007,0,0,0-2.219-.531h0a2.49,2.49,0,0,0-1.746.575,3.047,3.047,0,0,0-.632,2.262,5.034,5.034,0,0,0,.182,1.455,1.761,1.761,0,0,0,.553.88,2.119,2.119,0,0,0,.727.378,3.627,3.627,0,0,0,.9.095,5.241,5.241,0,0,0,2.248-.516v1.4a6.5,6.5,0,0,1-2.379.451A3.58,3.58,0,0,1,182.695,145.305Z" transform="translate(-24.72 -15.687)"/><path class="i" d="M190.891,143.692a2.132,2.132,0,0,1,1.011-1.87,4.99,4.99,0,0,1,2.793-.676,11.826,11.826,0,0,1,1.455.095,1.965,1.965,0,0,0-.553-1.455,2.555,2.555,0,0,0-1.666-.436,6.955,6.955,0,0,0-2.24.4v-1.266a6.819,6.819,0,0,1,2.444-.436,3.638,3.638,0,0,1,2.612.873,3.3,3.3,0,0,1,.917,2.51v2.334a2.4,2.4,0,0,1-.052.517,2.958,2.958,0,0,1-.247.662,2.389,2.389,0,0,1-.524.727,2.913,2.913,0,0,1-1,.516,5.459,5.459,0,0,1-3.106,0,2.831,2.831,0,0,1-1.011-.524,2.262,2.262,0,0,1-.538-.727,2.837,2.837,0,0,1-.254-.684A3.244,3.244,0,0,1,190.891,143.692Zm1.455,0c0,.909.647,1.368,1.942,1.368h0c1.222,0,1.826-.437,1.826-1.31v-1.31a10.466,10.466,0,0,0-1.4-.1,4.487,4.487,0,0,0-.684.058,6.487,6.487,0,0,0-.764.189,1.454,1.454,0,0,0-.676.415.98.98,0,0,0-.226.676Z" transform="translate(-26.268 -15.689)"/><path class="i" d="M200.441,138.981v-1.266h1.419v-2.372h1.455v2.393H205.5v1.244h-2.182v4.663c0,.633.4.946,1.193.946h0a1.838,1.838,0,0,0,.946-.233V145.7a3.043,3.043,0,0,1-1.106.225H204.3a3.29,3.29,0,0,1-.625-.073,4.395,4.395,0,0,1-.793-.283,1.729,1.729,0,0,1-.765-.727,2.574,2.574,0,0,1-.3-1.288v-4.568Z" transform="translate(-27.882 -15.233)"/><path class="i" d="M208.845,136.374V134.81h1.571v1.564Zm.051,9.325v-8.074h1.455V145.7Z" transform="translate(-29.302 -15.143)"/><path class="i" d="M213.59,144.308a6.55,6.55,0,0,1,0-4.175,2.915,2.915,0,0,1,.932-1.288,3.872,3.872,0,0,1,1.2-.6,5.277,5.277,0,0,1,2.692,0,3.872,3.872,0,0,1,1.2.6,2.915,2.915,0,0,1,.932,1.288,6.55,6.55,0,0,1,0,4.175,2.848,2.848,0,0,1-.932,1.288,3.872,3.872,0,0,1-1.2.6,5.084,5.084,0,0,1-2.692,0,3.872,3.872,0,0,1-1.2-.6A2.8,2.8,0,0,1,213.59,144.308Zm1.346-3.579a6.458,6.458,0,0,0,0,2.982,1.723,1.723,0,0,0,.531.866,2.009,2.009,0,0,0,.727.378,4.135,4.135,0,0,0,1.76,0,2.019,2.019,0,0,0,.728-.378,1.789,1.789,0,0,0,.531-.866,6.459,6.459,0,0,0,0-2.982,1.791,1.791,0,0,0-.531-.865,2.019,2.019,0,0,0-.728-.378,4.135,4.135,0,0,0-1.76,0,2.009,2.009,0,0,0-.727.378A1.724,1.724,0,0,0,214.936,140.729Z" transform="translate(-30.046 -15.693)"/><path class="i" d="M224.68,146.241v-7.39a7.7,7.7,0,0,1,3.44-.829,3.434,3.434,0,0,1,2.408.8A2.85,2.85,0,0,1,231.4,141v5.208h-1.513v-5.324a1.643,1.643,0,0,0-.363-1.12,1.955,1.955,0,0,0-1.455-.415,6.162,6.162,0,0,0-1.9.291v6.547Z" transform="translate(-31.978 -15.685)"/><path class="i" d="M235.193,140.442a2.279,2.279,0,0,1,.727-1.7,3.012,3.012,0,0,1,2.182-.728,4.836,4.836,0,0,1,2.182.531v1.281a4.736,4.736,0,0,0-1.979-.48c-1.069,0-1.6.342-1.6,1.033a.639.639,0,0,0,.421.56,5.63,5.63,0,0,0,1.033.4,10.914,10.914,0,0,1,1.2.407,2.343,2.343,0,0,1,.727,3.892,3.159,3.159,0,0,1-2.269.727,4.768,4.768,0,0,1-2.335-.568V144.45a4.524,4.524,0,0,0,2.24.589h0a2.179,2.179,0,0,0,1.186-.277.849.849,0,0,0,.407-.727.923.923,0,0,0-.429-.793,3.043,3.043,0,0,0-1.025-.473c-.408-.116-.815-.24-1.215-.378a2.337,2.337,0,0,1-1.026-.728A1.825,1.825,0,0,1,235.193,140.442Z" transform="translate(-33.755 -15.683)"/><path class="f" d="M185.3,115.863a1.326,1.326,0,0,1-.64-.167l-18.913-4.569a1.264,1.264,0,0,1-.641-1.105V77.964a1.279,1.279,0,0,1,.641-1.113l18.913-4.1a1.26,1.26,0,0,1,1.28,0l18.913,4.1a1.3,1.3,0,0,1,.64,1.113v32.057a1.279,1.279,0,0,1-.64,1.105L185.936,115.7A1.315,1.315,0,0,1,185.3,115.863Z" transform="translate(-21.91 -4.626)"/><path class="b" d="M185.231,116.552c-.225,0-19.858-4.64-19.858-4.64a1.3,1.3,0,0,1-.655-1.128V76.828a1.3,1.3,0,0,1,.655-1.128s19.641-4.2,19.858-4.2S205.1,75.7,205.1,75.7a1.31,1.31,0,0,1,.655,1.128v33.941a1.31,1.31,0,0,1-.655,1.128S185.456,116.552,185.231,116.552Zm-17.909-6.547,17.909,3.717,17.916-3.717V77.562l-17.916-3.884-17.909,3.884Z" transform="translate(-21.845 -4.443)"/><path class="b" d="M185.233,83.835a1.271,1.271,0,0,1-.647-.167l-19.218-4.037a1.3,1.3,0,0,1,1.3-2.255l18.564,3.637L203.8,77.376a1.3,1.3,0,1,1,1.332,2.238l-.03.017-19.211,4.037A1.309,1.309,0,0,1,185.233,83.835Z" transform="translate(-21.847 -5.405)"/><path class="b" d="M189.138,117.459a1.3,1.3,0,0,1-1.3-1.287V83.845a1.3,1.3,0,0,1,2.6,0v32.319a1.3,1.3,0,0,1-1.295,1.295Z" transform="translate(-25.752 -6.31)"/><path class="i" d="M283.469,137.807a2.859,2.859,0,0,1,.924-2.182,3.952,3.952,0,0,1,2.851-.887,6.25,6.25,0,0,1,2.786.655v1.455a4.925,4.925,0,0,0-2.6-.728q-2.444,0-2.444,1.637a.951.951,0,0,0,.429.764,3.362,3.362,0,0,0,1.062.524c.422.131.88.3,1.382.509a12.7,12.7,0,0,1,1.382.662,2.91,2.91,0,0,1,1.492,2.611,2.566,2.566,0,0,1-1.04,2.182,4.686,4.686,0,0,1-2.859.779,7.266,7.266,0,0,1-3.215-.779v-1.549a5.821,5.821,0,0,0,3.077.917c1.68,0,2.516-.509,2.524-1.527a1.593,1.593,0,0,0-.422-1.121,2.532,2.532,0,0,0-1.062-.669l-1.389-.473c-.5-.175-.968-.356-1.383-.538a2.521,2.521,0,0,1-1.062-.858A2.316,2.316,0,0,1,283.469,137.807Z" transform="translate(-41.914 -15.128)"/><path class="i" d="M294.235,142.3c0-2.837,1.192-4.263,3.564-4.263h0a3.334,3.334,0,0,1,2.589,1.062,4.026,4.026,0,0,1,.967,2.837,9.4,9.4,0,0,1-.043,1.106h-5.579a2.088,2.088,0,0,0,2.087,2.089c.063,0,.127,0,.19-.009a5.87,5.87,0,0,0,2.786-.611v1.345a7.092,7.092,0,0,1-2.822.532h-.044a4.388,4.388,0,0,1-1.309-.182,3.708,3.708,0,0,1-1.171-.589,2.675,2.675,0,0,1-.9-1.259A5.758,5.758,0,0,1,294.235,142.3Zm1.491-.582h4.182a3.673,3.673,0,0,0-.138-.771,3.5,3.5,0,0,0-.327-.728,1.562,1.562,0,0,0-.626-.6,2,2,0,0,0-.981-.225,1.939,1.939,0,0,0-1.5.524A3.122,3.122,0,0,0,295.726,141.721Z" transform="translate(-43.733 -15.688)"/><path class="i" d="M305.116,146.245v-7.4a10.617,10.617,0,0,1,3.936-.808v1.4a10.463,10.463,0,0,0-2.459.342v6.5Z" transform="translate(-45.572 -15.689)"/><path class="i" d="M311.384,138.2h1.607l2.27,6.3,2.284-6.3h1.579l-3.1,8.074h-1.579Z" transform="translate(-46.632 -15.716)"/><path class="i" d="M322.842,136.374V134.81h1.542v1.564Zm.051,9.325v-8.074h1.454V145.7Z" transform="translate(-48.568 -15.143)"/><path class="i" d="M328.2,145.305a5.476,5.476,0,0,1,0-6.2,3.583,3.583,0,0,1,2.8-1.07,6.5,6.5,0,0,1,2.379.451V139.9a5.006,5.006,0,0,0-2.182-.531h0a2.489,2.489,0,0,0-1.746.575,3.043,3.043,0,0,0-.633,2.262,5.033,5.033,0,0,0,.182,1.455,1.766,1.766,0,0,0,.553.88,2.124,2.124,0,0,0,.728.378,3.616,3.616,0,0,0,.9.095,5.235,5.235,0,0,0,2.248-.516v1.4a6.494,6.494,0,0,1-2.378.451A3.581,3.581,0,0,1,328.2,145.305Z" transform="translate(-49.311 -15.687)"/><path class="i" d="M336.366,142.3c0-2.837,1.185-4.263,3.564-4.263h0a3.334,3.334,0,0,1,2.589,1.062,4.026,4.026,0,0,1,.967,2.837,9.4,9.4,0,0,1-.043,1.106h-5.579a2.088,2.088,0,0,0,2.086,2.089c.064,0,.127,0,.191-.009a5.892,5.892,0,0,0,2.785-.611v1.345a7.1,7.1,0,0,1-2.822.532h-.044a4.492,4.492,0,0,1-1.316-.182,3.763,3.763,0,0,1-1.164-.589,2.679,2.679,0,0,1-.9-1.259A5.758,5.758,0,0,1,336.366,142.3Zm1.454-.582h4.154a3.73,3.73,0,0,0-.139-.771,3.453,3.453,0,0,0-.327-.728,1.565,1.565,0,0,0-.625-.6,2,2,0,0,0-.982-.225,1.936,1.936,0,0,0-1.5.524,3.114,3.114,0,0,0-.553,1.8Z" transform="translate(-50.853 -15.688)"/><path class="i" d="M346.818,140.442a2.283,2.283,0,0,1,.728-1.7,3,3,0,0,1,2.182-.728,4.885,4.885,0,0,1,2.182.531v1.281a4.767,4.767,0,0,0-1.979-.48c-1.069,0-1.608.342-1.608,1.033a.648.648,0,0,0,.43.56,5.325,5.325,0,0,0,1.025.4,11.639,11.639,0,0,1,1.207.407,2.374,2.374,0,0,1,1.025.807,2.223,2.223,0,0,1,.43,1.4,2.247,2.247,0,0,1-.728,1.68,3.175,3.175,0,0,1-2.269.727,4.77,4.77,0,0,1-2.335-.568V144.45a4.507,4.507,0,0,0,2.241.589h0a2.1,2.1,0,0,0,1.178-.277.836.836,0,0,0,.407-.727.925.925,0,0,0-.422-.793,3.153,3.153,0,0,0-1.033-.473c-.4-.116-.807-.24-1.207-.378a2.4,2.4,0,0,1-1.033-.728A1.866,1.866,0,0,1,346.818,140.442Z" transform="translate(-52.62 -15.683)"/><path class="f" d="M314.2,115.495a1.252,1.252,0,0,1-.64-.167l-18.913-4.561a1.282,1.282,0,0,1-.64-1.114V77.6a1.28,1.28,0,0,1,.64-1.113l18.913-4.1a1.256,1.256,0,0,1,1.28,0l18.913,4.1A1.288,1.288,0,0,1,334.4,77.6v32.057a1.29,1.29,0,0,1-.647,1.114l-18.913,4.561A1.252,1.252,0,0,1,314.2,115.495Z" transform="translate(-43.695 -4.564)"/><path class="b" d="M314.136,116.174c-.225,0-19.866-4.641-19.866-4.641a1.3,1.3,0,0,1-.647-1.127V76.487a1.3,1.3,0,0,1,.647-1.128s19.641-4.2,19.866-4.2,19.858,4.183,19.858,4.183a1.3,1.3,0,0,1,.647,1.128v33.941a1.3,1.3,0,0,1-.647,1.127S314.355,116.174,314.136,116.174Zm-17.909-6.547,17.909,3.717,17.916-3.717V77.214L314.136,73.33l-17.909,3.884Z" transform="translate(-43.63 -4.385)"/><path class="b" d="M314.138,83.479a1.275,1.275,0,0,1-.647-.175l-19.218-4.037a1.3,1.3,0,0,1,1.3-2.254l18.564,3.636L332.7,77.012a1.3,1.3,0,0,1,1.3,2.254L314.786,83.3A1.274,1.274,0,0,1,314.138,83.479Z" transform="translate(-43.632 -5.347)"/><path class="b" d="M318.043,117.1a1.3,1.3,0,0,1-1.3-1.3h0V83.478a1.3,1.3,0,0,1,2.6,0V115.8A1.3,1.3,0,0,1,318.043,117.1Z" transform="translate(-47.537 -6.248)"/><path class="i" d="M399.856,145.719l4.306-10.795h1.455l4.292,10.795h-1.622l-1.164-3.026h-4.5l-1.163,3.026Zm3.317-4.429H406.6l-1.709-4.482Z" transform="translate(-61.584 -15.162)"/><path class="i" d="M414.177,145.717V134.922h3.9a4.049,4.049,0,0,1,2.786.888,3.68,3.68,0,0,1,0,5.019,4.023,4.023,0,0,1-2.793.888h-2.386v4Zm1.506-5.324h2.248a2.538,2.538,0,0,0,1.927-.56,2.566,2.566,0,0,0,0-2.99,2.489,2.489,0,0,0-1.927-.56h-2.248Z" transform="translate(-64.004 -15.161)"/><path class="i" d="M425.8,145.719V134.924h1.506v10.795Z" transform="translate(-65.969 -15.162)"/><path class="i" d="M430.248,140.442a2.283,2.283,0,0,1,.728-1.7,3,3,0,0,1,2.182-.728,4.885,4.885,0,0,1,2.182.531v1.281a4.767,4.767,0,0,0-1.979-.48c-1.069,0-1.608.342-1.608,1.033a.649.649,0,0,0,.43.56,5.346,5.346,0,0,0,1.025.4,11.639,11.639,0,0,1,1.207.407,2.381,2.381,0,0,1,1.026.807,2.392,2.392,0,0,1-.3,3.085,3.177,3.177,0,0,1-2.269.727,4.766,4.766,0,0,1-2.335-.568V144.45a4.5,4.5,0,0,0,2.24.589h0a2.1,2.1,0,0,0,1.178-.277.836.836,0,0,0,.407-.727.925.925,0,0,0-.422-.793,3.153,3.153,0,0,0-1.033-.473c-.407-.116-.807-.24-1.207-.378a2.4,2.4,0,0,1-1.033-.728A1.865,1.865,0,0,1,430.248,140.442Z" transform="translate(-66.72 -15.683)"/><path class="f" d="M414.491,115.157a1.294,1.294,0,0,1-.641-.175l-18.913-4.561a1.293,1.293,0,0,1-.64-1.113V77.229a1.28,1.28,0,0,1,.64-1.106l18.913-4.1a1.276,1.276,0,0,1,1.288,0l18.913,4.1a1.282,1.282,0,0,1,.64,1.106v32.057a1.3,1.3,0,0,1-.64,1.113l-18.913,4.561A1.3,1.3,0,0,1,414.491,115.157Z" transform="translate(-60.645 -4.502)"/><path class="b" d="M414.426,115.809c-.219,0-19.859-4.648-19.859-4.648a1.3,1.3,0,0,1-.655-1.128V76.093a1.3,1.3,0,0,1,.677-1.128s19.64-4.2,19.858-4.2,19.843,4.2,19.843,4.2a1.3,1.3,0,0,1,.655,1.128v33.941a1.3,1.3,0,0,1-.655,1.128S414.651,115.809,414.426,115.809Zm-17.91-6.547,17.91,3.717,17.916-3.717V76.82l-17.916-3.884-17.91,3.884Z" transform="translate(-60.579 -4.318)"/><path class="b" d="M414.45,83.116a1.323,1.323,0,0,1-.655-.175L394.606,78.9A1.3,1.3,0,0,1,395.9,76.65l18.571,3.637,18.564-3.637A1.3,1.3,0,0,1,434.33,78.9l-19.211,4.037A1.313,1.313,0,0,1,414.45,83.116Z" transform="translate(-60.596 -5.29)"/><path class="b" d="M418.34,116.712a1.3,1.3,0,0,1-1.3-1.3h0V83.1a1.3,1.3,0,0,1,2.6-.194,1.269,1.269,0,0,1,0,.194V115.41A1.3,1.3,0,0,1,418.34,116.712Z" transform="translate(-64.487 -6.167)"/><path class="i" d="M484.564,145.716V134.921h3.441a4.924,4.924,0,0,1,3.775,1.375,6.938,6.938,0,0,1,0,8.052,4.9,4.9,0,0,1-3.775,1.367Zm1.506-1.324h1.674a3.8,3.8,0,0,0,2.909-.981,5.675,5.675,0,0,0,0-6.183,3.8,3.8,0,0,0-2.909-.975H486.07Z" transform="translate(-75.9 -15.16)"/><path class="i" d="M496.732,143.692a2.183,2.183,0,0,1,1.011-1.87,4.991,4.991,0,0,1,2.793-.676,12.176,12.176,0,0,1,1.455.095,2,2,0,0,0-.553-1.455,2.559,2.559,0,0,0-1.673-.436,6.91,6.91,0,0,0-2.233.4v-1.266a6.8,6.8,0,0,1,2.436-.436,3.638,3.638,0,0,1,2.612.873,3.3,3.3,0,0,1,.923,2.51v2.334a2.4,2.4,0,0,1-.058.517,2.861,2.861,0,0,1-.24.662,2.281,2.281,0,0,1-.531.727,2.788,2.788,0,0,1-1,.516,4.945,4.945,0,0,1-1.541.219,4.828,4.828,0,0,1-1.565-.233,2.775,2.775,0,0,1-1.01-.524,2.279,2.279,0,0,1-.546-.728,2.737,2.737,0,0,1-.247-.684A2.6,2.6,0,0,1,496.732,143.692Zm1.455,0c0,.909.64,1.368,1.935,1.368h0c1.215,0,1.826-.437,1.826-1.31v-1.31a10.578,10.578,0,0,0-1.4-.1,4.288,4.288,0,0,0-.676.058,5.926,5.926,0,0,0-.728.189,1.465,1.465,0,0,0-.684.415.994.994,0,0,0-.239.676Z" transform="translate(-77.956 -15.689)"/><path class="i" d="M506.282,138.981v-1.266h1.4v-2.372h1.455v2.393h2.182v1.244h-2.182v4.663c0,.633.393.946,1.193.946h0a1.792,1.792,0,0,0,.938-.233V145.7a3.026,3.026,0,0,1-1.106.225h-.036a3.226,3.226,0,0,1-.626-.073,4.25,4.25,0,0,1-.793-.283,1.654,1.654,0,0,1-.764-.727,2.5,2.5,0,0,1-.3-1.288v-4.568Z" transform="translate(-79.57 -15.233)"/><path class="i" d="M514.151,143.692a2.133,2.133,0,0,1,1.011-1.87,4.993,4.993,0,0,1,2.793-.676,11.826,11.826,0,0,1,1.455.095,1.965,1.965,0,0,0-.553-1.455,2.555,2.555,0,0,0-1.666-.436,6.955,6.955,0,0,0-2.24.4v-1.266a6.819,6.819,0,0,1,2.444-.436,3.634,3.634,0,0,1,2.6.873,3.28,3.28,0,0,1,.924,2.51v2.334a3.08,3.08,0,0,1-.051.517,2.961,2.961,0,0,1-.248.662,2.292,2.292,0,0,1-.531.727,2.8,2.8,0,0,1-1,.516,5.459,5.459,0,0,1-3.106,0,2.832,2.832,0,0,1-1.011-.524,2.374,2.374,0,0,1-.545-.727,3.05,3.05,0,0,1-.248-.684A3.323,3.323,0,0,1,514.151,143.692Zm1.455,0c0,.909.647,1.368,1.942,1.368h0c1.215,0,1.826-.437,1.826-1.31v-1.31a10.567,10.567,0,0,0-1.4-.1,4.494,4.494,0,0,0-.676.058,6.228,6.228,0,0,0-.727.189,1.41,1.41,0,0,0-.677.415.982.982,0,0,0-.262.676Z" transform="translate(-80.9 -15.689)"/><path class="i" d="M531.221,137.807a2.911,2.911,0,0,1,.917-2.182,3.988,3.988,0,0,1,2.859-.888,6.216,6.216,0,0,1,2.779.655v1.455a4.925,4.925,0,0,0-2.6-.728q-2.444,0-2.444,1.637a.953.953,0,0,0,.429.764,3.442,3.442,0,0,0,1.062.524c.422.131.88.3,1.382.509a12.805,12.805,0,0,1,1.389.662,2.908,2.908,0,0,1,1.455,2.611,2.56,2.56,0,0,1-1.033,2.182,4.7,4.7,0,0,1-2.866.779,7.269,7.269,0,0,1-3.215-.779v-1.549a5.858,5.858,0,0,0,3.085.917c1.673,0,2.516-.509,2.524-1.527a1.6,1.6,0,0,0-.429-1.121,2.463,2.463,0,0,0-1.055-.669l-1.389-.473c-.5-.175-.967-.357-1.389-.538a2.5,2.5,0,0,1-1.055-.858A2.272,2.272,0,0,1,531.221,137.807Z" transform="translate(-83.785 -15.128)"/><path class="i" d="M540.911,138.981v-1.266h1.4v-2.372h1.455v2.393h2.182v1.244H543.77v4.663c0,.633.4.946,1.193.946h0a1.836,1.836,0,0,0,.938-.233V145.7a3.022,3.022,0,0,1-1.106.225h-.043a3.222,3.222,0,0,1-.618-.073,4.467,4.467,0,0,1-.8-.283,1.72,1.72,0,0,1-.727-.727,2.567,2.567,0,0,1-.3-1.288v-4.568Z" transform="translate(-85.423 -15.233)"/><path class="i" d="M549.174,146.245v-7.4a10.617,10.617,0,0,1,3.936-.808v1.4a10.464,10.464,0,0,0-2.459.342v6.5Z" transform="translate(-86.819 -15.689)"/><path class="i" d="M555.257,142.3c0-2.837,1.193-4.263,3.564-4.263h0A3.328,3.328,0,0,1,561.4,139.1a4.039,4.039,0,0,1,.975,2.837,8.03,8.03,0,0,1-.051,1.106h-5.579a2.1,2.1,0,0,0,2.1,2.088c.058,0,.116,0,.175-.008a5.863,5.863,0,0,0,2.786-.611v1.345a7.063,7.063,0,0,1-2.815.532h-.051a4.443,4.443,0,0,1-1.309-.182,3.8,3.8,0,0,1-1.172-.589,2.667,2.667,0,0,1-.894-1.259A5.594,5.594,0,0,1,555.257,142.3Zm1.492-.582h4.146a3.669,3.669,0,0,0-.138-.771,3.888,3.888,0,0,0-.32-.728,1.591,1.591,0,0,0-.633-.6,1.961,1.961,0,0,0-.982-.225,1.91,1.91,0,0,0-1.454.524A3.056,3.056,0,0,0,556.749,141.721Z" transform="translate(-87.847 -15.688)"/><path class="i" d="M565.64,143.692a2.131,2.131,0,0,1,1.011-1.87,4.991,4.991,0,0,1,2.793-.676,11.836,11.836,0,0,1,1.455.095,1.966,1.966,0,0,0-.553-1.455,2.537,2.537,0,0,0-1.665-.436,6.955,6.955,0,0,0-2.24.4v-1.266a6.818,6.818,0,0,1,2.444-.436,3.634,3.634,0,0,1,2.611.873,3.3,3.3,0,0,1,.917,2.51v2.334a2.4,2.4,0,0,1-.051.517,2.958,2.958,0,0,1-.248.662,2.36,2.36,0,0,1-.523.727,2.9,2.9,0,0,1-1,.516,5.459,5.459,0,0,1-3.106,0,2.828,2.828,0,0,1-1.01-.524,2.262,2.262,0,0,1-.538-.727,2.768,2.768,0,0,1-.254-.684A3.236,3.236,0,0,1,565.64,143.692Zm1.454,0c0,.909.648,1.368,1.943,1.368h0c1.222,0,1.826-.437,1.826-1.31v-1.31a10.479,10.479,0,0,0-1.4-.1,4.5,4.5,0,0,0-.684.058,6.622,6.622,0,0,0-.727.189,1.463,1.463,0,0,0-.676.415.974.974,0,0,0-.262.676Z" transform="translate(-89.602 -15.689)"/><path class="i" d="M576.345,146.241v-7.412a7.41,7.41,0,0,1,3.354-.808,3.59,3.59,0,0,1,2.182.611,7.959,7.959,0,0,1,2.961-.611,3.376,3.376,0,0,1,2.392.8,2.909,2.909,0,0,1,.852,2.225v5.194h-1.455v-5.3a1.7,1.7,0,0,0-.342-1.12,1.642,1.642,0,0,0-1.33-.43,5.745,5.745,0,0,0-2.183.451,3.206,3.206,0,0,1,.189,1.157v5.237H581.51V140.96a1.584,1.584,0,0,0-.378-1.12,2.006,2.006,0,0,0-1.455-.407,6.908,6.908,0,0,0-1.768.24v6.547Z" transform="translate(-91.411 -15.685)"/><path class="i" d="M592.933,140.442a2.3,2.3,0,0,1,.728-1.7,3.031,3.031,0,0,1,2.182-.728,4.884,4.884,0,0,1,2.182.531v1.281a4.767,4.767,0,0,0-1.979-.48c-1.069,0-1.608.342-1.608,1.033a.648.648,0,0,0,.43.56,5.327,5.327,0,0,0,1.025.4,10.9,10.9,0,0,1,1.2.407,2.355,2.355,0,0,1,1.033.807,2.379,2.379,0,0,1-.3,3.085,3.16,3.16,0,0,1-2.269.727,4.755,4.755,0,0,1-2.328-.568V144.45a4.494,4.494,0,0,0,2.233.589h0a2.1,2.1,0,0,0,1.178-.277.849.849,0,0,0,.407-.727.925.925,0,0,0-.422-.793,3.153,3.153,0,0,0-1.033-.473c-.407-.116-.807-.24-1.214-.378a2.415,2.415,0,0,1-1.026-.728A1.83,1.83,0,0,1,592.933,140.442Z" transform="translate(-94.214 -15.683)"/><path class="f" d="M537.548,114.768a1.291,1.291,0,0,1-.64-.175l-18.913-4.561a1.286,1.286,0,0,1-.64-1.113V76.862a1.282,1.282,0,0,1,.64-1.106l18.913-4.1a1.3,1.3,0,0,1,1.28,0l18.914,4.1a1.282,1.282,0,0,1,.64,1.106V108.92a1.286,1.286,0,0,1-.64,1.113l-18.914,4.561A1.247,1.247,0,0,1,537.548,114.768Z" transform="translate(-81.442 -4.441)"/><path class="b" d="M537.483,115.444c-.219,0-19.858-4.649-19.858-4.649a1.294,1.294,0,0,1-.655-1.128V75.726a1.274,1.274,0,0,1,.655-1.12s19.64-4.2,19.858-4.2,19.866,4.2,19.866,4.2a1.274,1.274,0,0,1,.655,1.12v33.941a1.293,1.293,0,0,1-.655,1.128S537.708,115.444,537.483,115.444ZM519.574,108.9l17.909,3.725L555.4,108.9V76.483l-17.916-3.892-17.909,3.892Z" transform="translate(-81.377 -4.258)"/><path class="b" d="M537.484,82.743a1.3,1.3,0,0,1-.647-.175l-19.211-4.037a1.3,1.3,0,1,1,1.295-2.248l18.564,3.637,18.571-3.637a1.3,1.3,0,0,1,1.295,2.248l-19.211,4.037A1.314,1.314,0,0,1,537.484,82.743Z" transform="translate(-81.378 -5.222)"/><path class="b" d="M541.391,116.345a1.3,1.3,0,0,1-1.295-1.3V82.731a1.3,1.3,0,1,1,2.6-.194,1.261,1.261,0,0,1,0,.194v32.312A1.3,1.3,0,0,1,541.391,116.345Z" transform="translate(-85.284 -6.105)"/></g></svg>