<svg xmlns="http://www.w3.org/2000/svg" width="566" height="384.499" viewBox="0 0 566 384.499"><defs><style>.a{fill:#777;}.b{fill:#e5282a;}.c{fill:#efeeed;}.d{fill:#fff;}.e{fill:#575656;}.f{fill:#e52529;}.g{fill:#010101;}</style></defs><g transform="translate(-19.173 -49.282)"><g transform="translate(386.847 141.578)"><path class="a" d="M540.389,273.745a2.042,2.042,0,0,1,1.322.482l8.7,7.35a2.013,2.013,0,0,1,.2,2.856,2.082,2.082,0,0,1-.2.2l-8.66,7.4a2.038,2.038,0,0,1-2.857-.22,2,2,0,0,1,.221-2.833l6.895-5.848-6.895-5.807a2.005,2.005,0,0,1-.212-2.844,2.042,2.042,0,0,1,1.526-.7Z" transform="translate(-486.496 -184.655)"/><path class="a" d="M501.684,282.872h39.009a2.007,2.007,0,1,1,0,4.015H501.684a2.007,2.007,0,1,1,0-4.015Z" transform="translate(-479.06 -186.407)"/><ellipse class="b" cx="5.506" cy="5.459" rx="5.506" ry="5.459" transform="translate(31.72 93.014)"/><path class="c" d="M514.86,283.614a3.615,3.615,0,1,1,3.615,3.584,3.6,3.6,0,0,1-3.615-3.584m-3.791,0a7.406,7.406,0,1,0,7.413-7.333h-.008A7.374,7.374,0,0,0,511.069,283.614Z" transform="translate(-481.249 -185.142)"/><path class="a" d="M540.388,163.5a2.045,2.045,0,0,1,1.322.481l8.7,7.375a2.013,2.013,0,0,1,.2,2.856,2.176,2.176,0,0,1-.2.2l-8.66,7.383a2.038,2.038,0,0,1-2.857-.22,2,2,0,0,1,.221-2.833l6.895-5.848-6.895-5.849a2,2,0,0,1-.225-2.83,2.034,2.034,0,0,1,1.539-.7Z" transform="translate(-486.495 -163.497)"/><path class="a" d="M501.684,172.562h39.009a2.007,2.007,0,1,1,0,4.015H501.684a2.007,2.007,0,1,1,0-4.015Z" transform="translate(-479.06 -165.237)"/><path class="a" d="M477.546,196.487l20.676-20.5a2,2,0,0,0,0-2.842,2.039,2.039,0,0,0-2.866,0l-20.675,20.491a2,2,0,0,0,.177,2.845A2.047,2.047,0,0,0,477.546,196.487Z" transform="translate(-474.167 -165.236)"/><path class="b" d="M522.94,173.812a5.506,5.506,0,1,1-5.505-5.459A5.482,5.482,0,0,1,522.94,173.812Z" transform="translate(-481.414 -164.429)"/><path class="c" d="M513.371,173.364a3.615,3.615,0,1,1,3.615,3.584,3.6,3.6,0,0,1-3.615-3.584m-3.782,0a7.405,7.405,0,1,0,7.4-7.342h-.008a7.365,7.365,0,0,0-7.4,7.333Z" transform="translate(-480.965 -163.982)"/><path class="a" d="M540.378,425.558a2.044,2.044,0,0,0,1.322-.481l8.7-7.375a2.013,2.013,0,0,0,.2-2.856,2.172,2.172,0,0,0-.2-.2l-8.7-7.375a2.044,2.044,0,0,0-2.849.39,2,2,0,0,0,.213,2.671l6.895,5.807-6.895,5.849a2,2,0,0,0-.224,2.83,2.03,2.03,0,0,0,1.538.7Z" transform="translate(-486.486 -210.203)"/><path class="a" d="M501.712,420.017h39.009a2.015,2.015,0,0,0,0-4.023H501.712a2.015,2.015,0,0,0,0,4.023Z" transform="translate(-479.088 -211.955)"/><path class="a" d="M477.546,391.205l20.676,20.5a2,2,0,0,1,.178,2.846,2.046,2.046,0,0,1-2.87.175,2.025,2.025,0,0,1-.178-.175l-20.675-20.5a2,2,0,0,1,.177-2.845A2.047,2.047,0,0,1,477.546,391.205Z" transform="translate(-474.167 -207.1)"/><ellipse class="b" cx="5.506" cy="5.459" rx="5.506" ry="5.459" transform="translate(6.785 190.26)"/><path class="c" d="M484.006,403.954a3.615,3.615,0,1,1,3.623,3.575h-.008a3.607,3.607,0,0,1-3.615-3.575m-3.783,0a7.406,7.406,0,1,0,7.405-7.342h-.008a7.365,7.365,0,0,0-7.4,7.333Z" transform="translate(-475.329 -208.235)"/></g><path class="c" d="M19.173,428.721V54.341c0-2.794,2.711-5.059,6.055-5.059H130.26c3.345,0,6.056,2.265,6.056,5.059v374.38c0,2.794-2.711,5.059-6.056,5.059H25.228C21.884,433.781,19.173,431.516,19.173,428.721Z"/><path class="c" d="M574.631,428.721V54.341c0-2.794,2.711-5.059,6.055-5.059H685.718c3.345,0,6.055,2.265,6.055,5.059v374.38c0,2.794-2.71,5.059-6.055,5.059H580.686C577.342,433.781,574.631,431.516,574.631,428.721Z" transform="translate(-106.6)"/><g transform="translate(500.671 166.679)"><path class="d" d="M642.063,195.295c-9.865,0-20.082,2.234-20.082,5.974v34.306a2.246,2.246,0,0,0,.427,1.3,3.623,3.623,0,0,0,.494.561c2.51,2.51,10.25,4.125,19.152,4.125s16.634-1.59,19.144-4.1a3.06,3.06,0,0,0,.494-.577,2.2,2.2,0,0,0,.427-1.289V201.286C662.136,197.529,651.928,195.295,642.063,195.295Z" transform="translate(-616.357 -194.701)"/><path class="a" d="M661.5,198.693a14.833,14.833,0,0,0-6.016-2.652l-.368-.092-1.222-.268-.3-.067q-.678-.142-1.405-.25c-.6-.1-1.23-.192-1.858-.276l-.9-.108a66.446,66.446,0,0,0-7.489-.419h0c-10.125,0-20.584,2.293-20.584,6.125h0V235.9a2.265,2.265,0,0,0,.435,1.322,3.906,3.906,0,0,0,.5.586c2.619,2.51,10.51,4.183,19.647,4.183s17.035-1.674,19.646-4.183a3.107,3.107,0,0,0,.5-.586,2.286,2.286,0,0,0,.444-1.322V200.685A2.719,2.719,0,0,0,661.5,198.693Zm-37.3,1.933.142-.126.192-.142.2-.133.25-.142.259-.142.326-.151.309-.142.394-.15.368-.142.453-.15.418-.142.519-.151.469-.133c.184-.059.385-.1.578-.151l.519-.133.636-.142.569-.117.694-.134.611-.109.761-.117.644-.1.837-.108.678-.084.911-.083.686-.067,1-.076h.686a9.237,9.237,0,0,0,1.172-.05h4.928a9.162,9.162,0,0,1,1.18.05h.686l1,.076.694.067.9.083.677.084.837.108.644.1.761.117.611.109.7.134.569.117.636.142.527.133.569.151.477.133.511.151.427.142.444.15.377.142.385.15.318.142.318.151.259.142.259.142.2.133.193.142.142.126a.363.363,0,0,0,.058.058c-1.757,1.674-8.585,3.481-17.814,3.481s-16.082-1.8-17.788-3.464h0ZM659.741,235.9c-1.741,1.674-8.577,3.481-17.8,3.481s-16.057-1.8-17.822-3.506a.715.715,0,0,1-.109-.117V203.772c3.547,1.866,10.292,3.046,17.931,3.046s14.383-1.18,17.94-3.046V235.76A1.179,1.179,0,0,1,659.741,235.9Z" transform="translate(-616.238 -194.56)"/><g transform="translate(0 54.869)"><path d="M615.022,273.345V263.3h1.657v4.323h4.639V263.3h1.671v10.046h-1.671v-4.278h-4.639v4.278Z" transform="translate(-615.022 -262.621)"/><path d="M630.392,274.121a5.538,5.538,0,0,1-1.13-.113,3.07,3.07,0,0,1-.986-.384,1.983,1.983,0,0,1-.709-.745,2.414,2.414,0,0,1-.263-1.182,2.624,2.624,0,0,1,.331-1.386,2.036,2.036,0,0,1,.95-.813,3.634,3.634,0,0,1,1.476-.272,5.418,5.418,0,0,1,1.032.09,4.127,4.127,0,0,1,.828.25,2.92,2.92,0,0,1,.625.353l.166,1.04a3.1,3.1,0,0,0-.888-.385,4.415,4.415,0,0,0-1.2-.158,2.33,2.33,0,0,0-1.3.3,1.02,1.02,0,0,0-.444.9,1.034,1.034,0,0,0,.256.73,1.486,1.486,0,0,0,.639.406,2.528,2.528,0,0,0,.806.128,5.15,5.15,0,0,0,1.31-.121.528.528,0,0,0,.422-.557v-3.163a1.376,1.376,0,0,0-.482-1.167,2.214,2.214,0,0,0-1.37-.369,4.572,4.572,0,0,0-1.311.2,3.149,3.149,0,0,0-1.114.566V266.8a3.562,3.562,0,0,1,1.228-.46,7.938,7.938,0,0,1,1.664-.173,4.5,4.5,0,0,1,.851.083,3.476,3.476,0,0,1,.806.256,2.284,2.284,0,0,1,.671.466,2.065,2.065,0,0,1,.459.716,2.7,2.7,0,0,1,.167.994V272.3a1.427,1.427,0,0,1-.46,1.138,2.567,2.567,0,0,1-1.243.541A9.954,9.954,0,0,1,630.392,274.121Z" transform="translate(-617.379 -263.172)"/><path d="M641.44,273.41a5.374,5.374,0,0,1-1.356-.173,3.14,3.14,0,0,1-1.2-.617,3,3,0,0,1-.858-1.243,5.672,5.672,0,0,1-.317-2.063,4.262,4.262,0,0,1,.874-2.832,3.266,3.266,0,0,1,2.651-1.039,4.162,4.162,0,0,1,.708.075,6.371,6.371,0,0,1,.858.218,2.52,2.52,0,0,1,.738.369l-.406.527V262.46h1.566V271.6a1.221,1.221,0,0,1-.293.814,2.164,2.164,0,0,1-.776.565,4.518,4.518,0,0,1-1.054.323A6.235,6.235,0,0,1,641.44,273.41Zm.044-1.371a3.581,3.581,0,0,0,1.16-.166q.481-.166.482-.436v-4.2a3.109,3.109,0,0,0-.828-.331,3.587,3.587,0,0,0-.843-.106,2.272,2.272,0,0,0-1.213.293,1.739,1.739,0,0,0-.7.859,3.77,3.77,0,0,0-.226,1.393,4.8,4.8,0,0,0,.18,1.363,1.847,1.847,0,0,0,.655.971A2.161,2.161,0,0,0,641.484,272.039Z" transform="translate(-619.375 -262.46)"/><path d="M652.256,274.118a3.416,3.416,0,0,1-2.734-1.039,4.412,4.412,0,0,1-.9-2.967,4.187,4.187,0,0,1,.927-3,3.55,3.55,0,0,1,2.673-.956,4.156,4.156,0,0,1,2.063.459,2.8,2.8,0,0,1,1.2,1.349,5.323,5.323,0,0,1,.392,2.153,4.277,4.277,0,0,1-.941,2.96A3.431,3.431,0,0,1,652.256,274.118Zm-.015-1.34a1.986,1.986,0,0,0,1.22-.339,1.892,1.892,0,0,0,.655-.941,5,5,0,0,0-.008-2.847,1.688,1.688,0,0,0-.663-.881,2.185,2.185,0,0,0-1.2-.293,2.063,2.063,0,0,0-1.2.316,1.726,1.726,0,0,0-.647.9,4.491,4.491,0,0,0-.2,1.415,3.529,3.529,0,0,0,.467,1.958A1.753,1.753,0,0,0,652.241,272.778Z" transform="translate(-621.471 -263.168)"/><path d="M663.029,274.118a3.415,3.415,0,0,1-2.734-1.039,4.408,4.408,0,0,1-.9-2.967,4.191,4.191,0,0,1,.926-3,3.552,3.552,0,0,1,2.673-.956,4.151,4.151,0,0,1,2.063.459,2.8,2.8,0,0,1,1.2,1.349,5.309,5.309,0,0,1,.392,2.153,4.273,4.273,0,0,1-.941,2.96A3.428,3.428,0,0,1,663.029,274.118Zm-.015-1.34a1.988,1.988,0,0,0,1.22-.339,1.891,1.891,0,0,0,.655-.941,4.321,4.321,0,0,0,.2-1.386,4.367,4.367,0,0,0-.211-1.461,1.692,1.692,0,0,0-.663-.881,2.187,2.187,0,0,0-1.2-.293,2.063,2.063,0,0,0-1.2.316,1.726,1.726,0,0,0-.647.9,4.489,4.489,0,0,0-.2,1.415,3.53,3.53,0,0,0,.467,1.958A1.751,1.751,0,0,0,663.014,272.778Z" transform="translate(-623.539 -263.168)"/><path d="M674.1,274.1a4.692,4.692,0,0,1-.708-.068,5.28,5.28,0,0,1-.844-.211,2.582,2.582,0,0,1-.738-.384l.406-.512v3.991h-1.566v-9.127a1.108,1.108,0,0,1,.293-.783,2.058,2.058,0,0,1,.776-.5,4.77,4.77,0,0,1,1.062-.272,8.176,8.176,0,0,1,1.152-.082,4.388,4.388,0,0,1,1.838.377A2.868,2.868,0,0,1,677.1,267.8a5.074,5.074,0,0,1,.5,2.448,4.767,4.767,0,0,1-.406,2.041,3.039,3.039,0,0,1-1.19,1.34A3.6,3.6,0,0,1,674.1,274.1Zm-.286-1.325a2.232,2.232,0,0,0,1.2-.3,1.833,1.833,0,0,0,.723-.873,3.583,3.583,0,0,0,.241-1.386,5.1,5.1,0,0,0-.173-1.371,1.818,1.818,0,0,0-.625-.971,2.062,2.062,0,0,0-1.3-.354,3.8,3.8,0,0,0-1.212.158q-.461.158-.46.459v4.2a3.907,3.907,0,0,0,.8.324A2.984,2.984,0,0,0,673.819,272.778Z" transform="translate(-625.699 -263.168)"/></g></g><g transform="translate(159.947 60.398)"><path class="e" d="M193.622,69.473a7.629,7.629,0,0,1,0-3.816,3.949,3.949,0,0,1,.636-1.314,3.218,3.218,0,0,1,.945-.794,3.9,3.9,0,0,1,1.1-.411,6.2,6.2,0,0,1,1.147-.1,7.233,7.233,0,0,1,2.7.519V64.7a6.244,6.244,0,0,0-2.56-.552,2.9,2.9,0,0,0-2.276.837,5.19,5.19,0,0,0,0,5.212,2.869,2.869,0,0,0,2.276.837,6.112,6.112,0,0,0,2.56-.561v1.138a7.078,7.078,0,0,1-2.7.536,5.576,5.576,0,0,1-1.147-.109,3.658,3.658,0,0,1-1.1-.41,3.107,3.107,0,0,1-.971-.828A3.937,3.937,0,0,1,193.622,69.473Z" transform="translate(-193.38 -63.037)"/><path class="e" d="M203.584,70.936a5.258,5.258,0,0,1,0-3.414,2.274,2.274,0,0,1,.761-1.054,3.2,3.2,0,0,1,.979-.5,4.361,4.361,0,0,1,2.209,0,3.345,3.345,0,0,1,.987.5,2.317,2.317,0,0,1,.753,1.054,5.268,5.268,0,0,1,0,3.414,2.324,2.324,0,0,1-.753,1.055,3.129,3.129,0,0,1-.987.493,3.809,3.809,0,0,1-1.1.151,3.873,3.873,0,0,1-1.1-.151,3,3,0,0,1-.979-.493A2.276,2.276,0,0,1,203.584,70.936Zm1.1-2.929a5.019,5.019,0,0,0,0,2.443,1.387,1.387,0,0,0,.435.711,1.726,1.726,0,0,0,.586.31,2.993,2.993,0,0,0,.719.075,2.955,2.955,0,0,0,.72-.075,1.848,1.848,0,0,0,.594-.31,1.449,1.449,0,0,0,.435-.711,5.308,5.308,0,0,0,0-2.443,1.419,1.419,0,0,0-.435-.711,1.556,1.556,0,0,0-.594-.31,2.917,2.917,0,0,0-.72-.076,2.953,2.953,0,0,0-.719.076,1.475,1.475,0,0,0-.586.31,1.361,1.361,0,0,0-.435.694Z" transform="translate(-195.284 -63.572)"/><path class="e" d="M213.074,72.518V66.452a6.028,6.028,0,0,1,2.745-.661,3.022,3.022,0,0,1,1.774.494,6.613,6.613,0,0,1,2.427-.494,2.725,2.725,0,0,1,1.949.653,2.366,2.366,0,0,1,.7,1.824v4.251h-1.2V68.184a1.457,1.457,0,0,0-.284-.92,1.328,1.328,0,0,0-1.088-.352,4.71,4.71,0,0,0-1.774.368,2.831,2.831,0,0,1,.15.945v4.293h-1.213V68.2a1.315,1.315,0,0,0-.3-.92,1.674,1.674,0,0,0-1.23-.343,5.55,5.55,0,0,0-1.448.2v5.38Z" transform="translate(-197.16 -63.565)"/><path class="e" d="M227.343,75.048V67.936a1.846,1.846,0,0,1,.042-.427,2.343,2.343,0,0,1,.192-.536A2.161,2.161,0,0,1,228,66.4a2.562,2.562,0,0,1,.836-.427,4.345,4.345,0,0,1,1.983-.109,2.6,2.6,0,0,1,.77.293,2.423,2.423,0,0,1,.719.586,3.146,3.146,0,0,1,.511,1.021,5.211,5.211,0,0,1,.2,1.522,4.7,4.7,0,0,1-.267,1.674A2.149,2.149,0,0,1,232.012,72a2.989,2.989,0,0,1-.954.477,3.642,3.642,0,0,1-1.08.151,5.163,5.163,0,0,1-1.405-.192v2.61Zm1.213-3.774a3.878,3.878,0,0,0,1.406.268,2.825,2.825,0,0,0,.694-.075,1.684,1.684,0,0,0,.569-.3,1.417,1.417,0,0,0,.427-.686,3.988,3.988,0,0,0,.142-1.189,4.559,4.559,0,0,0-.142-1.28,1.5,1.5,0,0,0-.418-.744,1.67,1.67,0,0,0-.544-.318,2.175,2.175,0,0,0-.6-.083c-1.021,0-1.531.335-1.531,1Z" transform="translate(-199.898 -63.568)"/><path class="e" d="M236.392,69.768V65.935h1.238v3.924a1.9,1.9,0,0,0,.385,1.322,1.916,1.916,0,0,0,2.4,0,1.972,1.972,0,0,0,.385-1.33V65.927h1.2v3.832a2.979,2.979,0,0,1-.727,2.142,3.189,3.189,0,0,1-4.117,0A2.953,2.953,0,0,1,236.392,69.768Z" transform="translate(-201.634 -63.592)"/><path class="e" d="M244.925,66.5V65.47h1.155V63.5h1.2V65.47h1.765V66.5h-1.765v3.832c0,.511.326.77.979.77h0a1.493,1.493,0,0,0,.77-.192v1.1a2.342,2.342,0,0,1-.912.184h0a2.338,2.338,0,0,1-.519-.059,4.028,4.028,0,0,1-.644-.225,1.475,1.475,0,0,1-.628-.594,2.049,2.049,0,0,1-.242-1.055V66.5Z" transform="translate(-203.272 -63.127)"/><path class="e" d="M251.489,69.291c0-2.326.979-3.489,2.92-3.489h0a2.726,2.726,0,0,1,2.117.836,3.287,3.287,0,0,1,.836,2.326v.9h-4.577a1.716,1.716,0,0,0,1.75,1.68c.039,0,.078,0,.116-.006a4.8,4.8,0,0,0,2.284-.5v1.1a5.915,5.915,0,0,1-2.31.427h0a3.636,3.636,0,0,1-1.071-.142,3.338,3.338,0,0,1-.962-.485,2.207,2.207,0,0,1-.728-1.029A4.61,4.61,0,0,1,251.489,69.291Zm1.222-.477h3.4a3.049,3.049,0,0,0-.109-.627,2.708,2.708,0,0,0-.267-.611,1.3,1.3,0,0,0-.519-.5,1.668,1.668,0,0,0-.836-.183,1.555,1.555,0,0,0-1.222.435,2.513,2.513,0,0,0-.444,1.5Z" transform="translate(-204.532 -63.567)"/><path class="e" d="M266,69.5a2.848,2.848,0,0,1,.368-1.406,3.612,3.612,0,0,1,1.439-1.238,3.047,3.047,0,0,1-.837-1.758,1.983,1.983,0,0,1,.6-1.456,2.009,2.009,0,0,1,1.472-.6,2.05,2.05,0,0,1,1.472.577,1.9,1.9,0,0,1,.6,1.423,1.933,1.933,0,0,1-.368,1.188,3.98,3.98,0,0,1-1.188.962l1.724,2.066a4.826,4.826,0,0,0,.343-1.138h1.214a5.339,5.339,0,0,1-.8,2.025l1.548,1.849H272.12l-.778-.912a3.416,3.416,0,0,1-2.51,1.021h0a3.1,3.1,0,0,1-1.314-.259,2.286,2.286,0,0,1-.9-.669,3.438,3.438,0,0,1-.485-.837A2.5,2.5,0,0,1,266,69.5Zm1.213,0a1.626,1.626,0,0,0,.067.427,2.061,2.061,0,0,0,.251.485,1.242,1.242,0,0,0,.536.444,1.975,1.975,0,0,0,.836.175,2.325,2.325,0,0,0,1.749-.794l-2.125-2.569a4.326,4.326,0,0,0-.769.511,1.527,1.527,0,0,0-.419.527,1.9,1.9,0,0,0-.134.419,2.4,2.4,0,0,0,.008.41Zm1.147-5.238a.961.961,0,0,0-.293.711,2.645,2.645,0,0,0,.744,1.322,4.115,4.115,0,0,0,1.013-.72,1,1,0,0,0,.267-.627.928.928,0,0,0-.284-.678.971.971,0,0,0-.711-.276.929.929,0,0,0-.736.3Z" transform="translate(-207.316 -63.037)"/><path class="e" d="M193.8,92.685V83.84h1.347l2.9,3.824,2.912-3.824h1.347v8.845h-1.238V85.714l-3.021,3.966-3-3.966v6.971Z" transform="translate(-193.462 -67.03)"/><path class="e" d="M206.53,91.1a1.742,1.742,0,0,1,.837-1.531,4.09,4.09,0,0,1,2.293-.552,8.024,8.024,0,0,1,1.2.083,1.677,1.677,0,0,0-.453-1.2,2.114,2.114,0,0,0-1.363-.36,5.54,5.54,0,0,0-1.833.335V86.828a5.455,5.455,0,0,1,2-.36,2.979,2.979,0,0,1,2.133.72,2.693,2.693,0,0,1,.753,2.049V91.2a2.276,2.276,0,0,1-.042.419,2.1,2.1,0,0,1-.2.544,1.941,1.941,0,0,1-.436.578,2.271,2.271,0,0,1-.836.427,4.073,4.073,0,0,1-1.255.175,4.223,4.223,0,0,1-1.289-.184,2.506,2.506,0,0,1-.836-.435,1.909,1.909,0,0,1-.444-.586,2.283,2.283,0,0,1-.2-.552A2.712,2.712,0,0,1,206.53,91.1Zm1.214,0c0,.745.527,1.122,1.59,1.122h0c1,0,1.5-.36,1.5-1.08V90.075a7.463,7.463,0,0,0-1.147-.084,4.493,4.493,0,0,0-.561.042,4,4,0,0,0-.619.159,1.233,1.233,0,0,0-.561.335.837.837,0,0,0-.2.561Z" transform="translate(-195.903 -67.533)"/><path class="e" d="M215.849,92.427a4.476,4.476,0,0,1,0-5.071,2.91,2.91,0,0,1,2.293-.836,5.381,5.381,0,0,1,1.949.368v1.155a4.225,4.225,0,0,0-1.824-.435h0a2.051,2.051,0,0,0-1.43.477,2.51,2.51,0,0,0-.519,1.849,3.926,3.926,0,0,0,.158,1.222,1.381,1.381,0,0,0,.452.711,1.752,1.752,0,0,0,.6.318,3.177,3.177,0,0,0,.736.075,4.236,4.236,0,0,0,1.849-.427v1.146a5.361,5.361,0,0,1-1.949.368A2.909,2.909,0,0,1,215.849,92.427Z" transform="translate(-197.541 -67.542)"/><path class="e" d="M223.242,92.613V83.467h1.214V86.22a4.881,4.881,0,0,1,1.749-.326,2.51,2.51,0,0,1,1.924.736,2.948,2.948,0,0,1,.687,2.092v3.891h-1.239V88.672a1.589,1.589,0,0,0-.41-1.3,1.673,1.673,0,0,0-1.072-.326,4.618,4.618,0,0,0-1.674.318v5.247Z" transform="translate(-199.111 -66.958)"/><path class="e" d="M232.489,85.027v-1.28h1.289v1.28Zm0,7.64v-6.61H233.7v6.61Z" transform="translate(-200.886 -67.012)"/><path class="e" d="M236.714,93.186v-6.05a6.317,6.317,0,0,1,2.819-.677,2.831,2.831,0,0,1,1.975.652,2.328,2.328,0,0,1,.711,1.816v4.259h-1.239v-4.36a1.335,1.335,0,0,0-.3-.92,1.575,1.575,0,0,0-1.2-.335,5.011,5.011,0,0,0-1.556.234v5.38Z" transform="translate(-201.696 -67.531)"/><path class="e" d="M245.556,89.958c0-2.326.979-3.489,2.92-3.489h0a2.73,2.73,0,0,1,2.117.836,3.292,3.292,0,0,1,.836,2.326v.9h-4.577a1.716,1.716,0,0,0,1.75,1.68c.039,0,.078,0,.116-.006a4.8,4.8,0,0,0,2.284-.5V92.87a5.915,5.915,0,0,1-2.31.427h0a3.633,3.633,0,0,1-1.071-.142,3.338,3.338,0,0,1-.962-.485,2.207,2.207,0,0,1-.728-1.029A4.6,4.6,0,0,1,245.556,89.958Zm1.222-.477h3.4a3.066,3.066,0,0,0-.109-.628,2.737,2.737,0,0,0-.267-.611,1.308,1.308,0,0,0-.519-.5,1.669,1.669,0,0,0-.836-.184,1.555,1.555,0,0,0-1.222.436,2.507,2.507,0,0,0-.444,1.531Z" transform="translate(-203.393 -67.533)"/><path class="e" d="M260.6,92.685V83.84h1.239v7.69h4.393v1.146Z" transform="translate(-206.281 -67.03)"/><path class="e" d="M268.709,89.958q0-3.49,2.92-3.489h0a2.756,2.756,0,0,1,2.125.836,3.35,3.35,0,0,1,.786,2.326v.9h-4.6a1.716,1.716,0,0,0,1.75,1.68c.039,0,.077,0,.116-.006a4.8,4.8,0,0,0,2.284-.5V92.87a5.918,5.918,0,0,1-2.31.427h0a3.633,3.633,0,0,1-1.071-.142,3.187,3.187,0,0,1-.954-.485,2.162,2.162,0,0,1-.736-1.029A4.621,4.621,0,0,1,268.709,89.958Zm1.213-.477h3.4a3.124,3.124,0,0,0-.108-.628,2.78,2.78,0,0,0-.268-.611,1.34,1.34,0,0,0-.51-.5,1.729,1.729,0,0,0-.837-.184,1.563,1.563,0,0,0-1.23.436,2.508,2.508,0,0,0-.444,1.531Z" transform="translate(-207.837 -67.533)"/><path class="e" d="M277.448,91.1a1.743,1.743,0,0,1,.836-1.531,4.084,4.084,0,0,1,2.284-.552,8.009,8.009,0,0,1,1.2.083,1.606,1.606,0,0,0-.46-1.2,2.107,2.107,0,0,0-1.364-.36,5.586,5.586,0,0,0-1.833.335V86.828a5.529,5.529,0,0,1,2-.36,3,3,0,0,1,2.142.72,2.693,2.693,0,0,1,.753,2.049V91.2a2.262,2.262,0,0,1,0,.419,2.968,2.968,0,0,1-.2.544,1.952,1.952,0,0,1-.435.578,2.337,2.337,0,0,1-.837.427A4.587,4.587,0,0,1,279,93.154a2.368,2.368,0,0,1-.837-.435,1.922,1.922,0,0,1-.444-.586,2.866,2.866,0,0,1-.209-.552A2.731,2.731,0,0,1,277.448,91.1Zm1.2,0c0,.745.536,1.122,1.59,1.122h0c1,0,1.5-.36,1.5-1.08V90.075a7.467,7.467,0,0,0-1.155-.084,3.475,3.475,0,0,0-1.18.2,1.163,1.163,0,0,0-.552.335.834.834,0,0,0-.2.561Z" transform="translate(-209.514 -67.533)"/><path class="e" d="M286.415,93.189V87.131a8.764,8.764,0,0,1,3.221-.661v1.113a8.175,8.175,0,0,0-2.016.284v5.322Z" transform="translate(-211.235 -67.534)"/><path class="e" d="M292.017,93.186v-6.05a6.342,6.342,0,0,1,2.819-.677,2.814,2.814,0,0,1,1.975.652,2.328,2.328,0,0,1,.711,1.816v4.259h-1.238v-4.36a1.341,1.341,0,0,0-.293-.92,1.605,1.605,0,0,0-1.2-.335,5.108,5.108,0,0,0-1.556.234v5.38Z" transform="translate(-212.31 -67.531)"/><path class="e" d="M301.346,85.027v-1.28h1.289v1.28Zm0,7.64v-6.61h1.214v6.61Z" transform="translate(-214.1 -67.012)"/><path class="e" d="M305.571,93.186v-6.05a6.317,6.317,0,0,1,2.819-.677,2.786,2.786,0,0,1,1.967.652,2.337,2.337,0,0,1,.719,1.816v4.259h-1.238v-4.36a1.34,1.34,0,0,0-.3-.92,1.582,1.582,0,0,0-1.2-.335,5.011,5.011,0,0,0-1.556.234v5.38Z" transform="translate(-214.911 -67.531)"/><path class="e" d="M314.546,89.83a3.99,3.99,0,0,1,.695-2.461,2.509,2.509,0,0,1,2.141-.912,3.11,3.11,0,0,1,1.933.544,1.833,1.833,0,0,1,.72,1.547v4.92a2.514,2.514,0,0,1-.126.836,2.3,2.3,0,0,1-.427.736,1.852,1.852,0,0,1-.9.561,4.408,4.408,0,0,1-1.464.209,7.075,7.075,0,0,1-1.958-.276V94.381a6.546,6.546,0,0,0,1.858.276,3.934,3.934,0,0,0,1.038-.109,1.083,1.083,0,0,0,.552-.326,1.128,1.128,0,0,0,.184-.36,2.188,2.188,0,0,0,0-.385v-.611a4.966,4.966,0,0,1-1.339.184,2.8,2.8,0,0,1-2.183-.836A3.415,3.415,0,0,1,314.546,89.83Zm1.213,0a2.317,2.317,0,0,0,.461,1.673,1.8,1.8,0,0,0,1.272.427,3.585,3.585,0,0,0,1.339-.251V88.424a.772.772,0,0,0,0-.251,1.013,1.013,0,0,0-.142-.293.779.779,0,0,0-.444-.284,3.245,3.245,0,0,0-.837-.092,1.935,1.935,0,0,0-.577.075,1.434,1.434,0,0,0-.511.3,1.412,1.412,0,0,0-.4.694,4.581,4.581,0,0,0-.175,1.264Z" transform="translate(-216.631 -67.531)"/></g><g transform="translate(159.895 96.852)"><g transform="translate(0 8.646)"><path class="a" d="M196.652,128.041h29.235a2.033,2.033,0,0,1,0,4.058H196.652a2.033,2.033,0,1,1-.261-4.058A2.008,2.008,0,0,1,196.652,128.041Z" transform="translate(-193.541 -120.611)"/><path class="a" d="M230.828,164.878V130.4a2.033,2.033,0,0,1,4.058,0v34.482a2.033,2.033,0,0,1-4.058,0Z" transform="translate(-200.515 -120.699)"/><path class="a" d="M204.041,118.848a2.03,2.03,0,0,0-1.313.485l-8.7,7.438a2.025,2.025,0,0,0-.225,2.855,1.967,1.967,0,0,0,.225.225l8.7,7.438a2.027,2.027,0,0,0,2.635-3.08h0l-6.895-5.857,6.895-5.857a2.025,2.025,0,0,0,.233-2.854l-.006-.007A2.05,2.05,0,0,0,204.041,118.848Z" transform="translate(-193.316 -118.848)"/><path class="a" d="M232.862,171.013h21.312a2.025,2.025,0,0,1,0,4.05H232.862a2.025,2.025,0,0,1,0-4.05Z" transform="translate(-200.516 -128.859)"/><path class="a" d="M281.49,192.287,260.814,171.62a2.025,2.025,0,0,0-2.861,2.862l20.667,20.676a2.034,2.034,0,0,0,2.87-2.87Z" transform="translate(-205.617 -128.872)"/><path class="a" d="M283.775,184.014a1.95,1.95,0,0,1,.586,1.272l.9,11.413a2.025,2.025,0,0,1-2.175,2.176l-11.413-.887a2.027,2.027,0,1,1,.318-4.041l9.045.7-.711-9.046a2.033,2.033,0,0,1,3.455-1.59Z" transform="translate(-207.994 -131.242)"/></g><g transform="translate(44.848)"><circle class="b" cx="5.506" cy="5.506" r="5.506" transform="translate(1.891 47.537)"/><path class="c" d="M252.6,172.031a3.615,3.615,0,1,1,3.615,3.615,3.615,3.615,0,0,1-3.615-3.615m-3.782,0a7.4,7.4,0,1,0,7.413-7.4h-.017A7.4,7.4,0,0,0,248.814,172.031Z" transform="translate(-248.814 -118.989)"/><path class="f" d="M258.9,159.208V108.921a.77.77,0,1,0-1.539,0v50.29a.77.77,0,0,0,1.539,0Z" transform="translate(-250.453 -108.149)"/></g></g><g transform="translate(158.283 411.847)"><path class="e" d="M191.32,506.984l3.531-8.844h1.206l3.514,8.844h-1.33l-.945-2.51h-3.7l-.954,2.51Zm2.719-3.632h2.811l-1.405-3.673Z" transform="translate(-191.32 -497.989)"/><path class="e" d="M202.766,504.43a7.642,7.642,0,0,1,0-3.824,3.949,3.949,0,0,1,.636-1.306,3.027,3.027,0,0,1,.945-.836,4.177,4.177,0,0,1,1.1-.411,6.268,6.268,0,0,1,1.147-.1,7.274,7.274,0,0,1,2.7.527v1.147a6.13,6.13,0,0,0-2.561-.561,2.886,2.886,0,0,0-2.276.837,5.194,5.194,0,0,0,0,5.221,2.851,2.851,0,0,0,2.276.836,6.244,6.244,0,0,0,2.561-.552v1.138a7.266,7.266,0,0,1-2.678.536,6.264,6.264,0,0,1-1.146-.1,3.883,3.883,0,0,1-1.1-.411,3,3,0,0,1-.945-.836A4,4,0,0,1,202.766,504.43Z" transform="translate(-193.47 -497.953)"/><path class="e" d="M213.054,506.984V498.14h1.238v8.844Z" transform="translate(-195.491 -497.989)"/><path class="e" d="M217.413,506.982v-8.844h2.82a4.081,4.081,0,0,1,3.1,1.121,4.676,4.676,0,0,1,1.054,3.305,4.625,4.625,0,0,1-1.054,3.3,4.058,4.058,0,0,1-3.1,1.121Zm1.239-1.088h1.388a3.118,3.118,0,0,0,2.377-.836,4.626,4.626,0,0,0,0-5.063,3.118,3.118,0,0,0-2.377-.836h-1.355Z" transform="translate(-196.328 -497.987)"/><path class="e" d="M232.81,499.294V498.14H240v1.154H237.01v7.69h-1.238v-7.69Z" transform="translate(-199.283 -497.989)"/><path class="e" d="M242.171,507.488v-6.057a8.622,8.622,0,0,1,3.229-.661v1.113a8.537,8.537,0,0,0-2.016.276v5.33Z" transform="translate(-201.079 -498.494)"/><path class="e" d="M247.224,505.4a1.749,1.749,0,0,1,.836-1.531,4.084,4.084,0,0,1,2.284-.553,9.544,9.544,0,0,1,1.2.076,1.618,1.618,0,0,0-.461-1.2,2.045,2.045,0,0,0-1.363-.36,5.735,5.735,0,0,0-1.833.326V501.12a5.63,5.63,0,0,1,2-.352,2.978,2.978,0,0,1,2.133.711,2.7,2.7,0,0,1,.753,2.058v1.908a1.882,1.882,0,0,1,0,.427,2.091,2.091,0,0,1-.2.536,1.748,1.748,0,0,1-.427.577,2.27,2.27,0,0,1-.836.427,4.2,4.2,0,0,1-1.264.176,3.972,3.972,0,0,1-1.28-.184,2.531,2.531,0,0,1-.836-.427,1.781,1.781,0,0,1-.444-.586,1.992,1.992,0,0,1-.209-.561A2.628,2.628,0,0,1,247.224,505.4Zm1.213,0c0,.752.536,1.121,1.59,1.121h0c1,0,1.5-.36,1.5-1.071v-1.088a8.632,8.632,0,0,0-1.155-.084,3.239,3.239,0,0,0-.552.05,5.556,5.556,0,0,0-.628.151,1.247,1.247,0,0,0-.561.343.839.839,0,0,0-.192.561Z" transform="translate(-202.049 -498.492)"/><path class="e" d="M256.263,507.483v-6.057a6.354,6.354,0,0,1,2.82-.678,2.81,2.81,0,0,1,1.974.653,2.341,2.341,0,0,1,.711,1.815v4.268h-1.238v-4.359a1.344,1.344,0,0,0-.293-.92,1.605,1.605,0,0,0-1.2-.343,5.141,5.141,0,0,0-1.556.242v5.38Z" transform="translate(-203.783 -498.488)"/><path class="e" d="M265.115,502.734a1.915,1.915,0,0,1,.586-1.4,2.506,2.506,0,0,1,1.8-.569,3.99,3.99,0,0,1,1.766.427v1.054a3.8,3.8,0,0,0-1.623-.393c-.836,0-1.313.276-1.313.836,0,.184.117.335.351.461a4.125,4.125,0,0,0,.837.318c.326.1.653.209.979.343a1.884,1.884,0,0,1,.837.661,1.958,1.958,0,0,1-.242,2.51,2.61,2.61,0,0,1-1.867.577,3.913,3.913,0,0,1-1.907-.46v-1.113a3.661,3.661,0,0,0,1.832.485h0a1.726,1.726,0,0,0,.971-.225.7.7,0,0,0,.335-.586.773.773,0,0,0-.352-.653,2.493,2.493,0,0,0-.837-.393c-.326-.092-.661-.192-1-.31a1.846,1.846,0,0,1-.836-.57A1.483,1.483,0,0,1,265.115,502.734Z" transform="translate(-205.482 -498.492)"/><path class="e" d="M272.344,505.4a1.738,1.738,0,0,1,.836-1.531,4.084,4.084,0,0,1,2.284-.553,9.246,9.246,0,0,1,1.2.076,1.579,1.579,0,0,0-.461-1.2,2.045,2.045,0,0,0-1.363-.36,5.735,5.735,0,0,0-1.833.326V501.12a5.666,5.666,0,0,1,2-.352,2.992,2.992,0,0,1,2.141.711,2.7,2.7,0,0,1,.753,2.058v1.908a2.349,2.349,0,0,1,0,.427,2.971,2.971,0,0,1-.2.536,1.763,1.763,0,0,1-.436.577,2.188,2.188,0,0,1-.836.427,4.13,4.13,0,0,1-1.264.176,3.972,3.972,0,0,1-1.28-.184,2.531,2.531,0,0,1-.836-.427,1.909,1.909,0,0,1-.444-.586,2.247,2.247,0,0,1-.209-.561A2.628,2.628,0,0,1,272.344,505.4Zm1.2,0c0,.752.535,1.121,1.59,1.121h0c1,0,1.5-.36,1.5-1.071v-1.088a8.61,8.61,0,0,0-1.154-.084,3.25,3.25,0,0,0-.553.05,5.587,5.587,0,0,0-.627.151,1.168,1.168,0,0,0-.553.343.788.788,0,0,0-.175.561Z" transform="translate(-206.869 -498.492)"/><path class="e" d="M281.652,506.725a4.493,4.493,0,0,1,0-5.08,2.92,2.92,0,0,1,2.293-.836,5.144,5.144,0,0,1,1.949.368v1.155a4.072,4.072,0,0,0-1.816-.436h0a2.026,2.026,0,0,0-1.43.469,2.509,2.509,0,0,0-.519,1.849,4.185,4.185,0,0,0,.15,1.222,1.447,1.447,0,0,0,.452.719,1.683,1.683,0,0,0,.611.31,3.221,3.221,0,0,0,.736.075,4.314,4.314,0,0,0,1.841-.419v1.147a5.322,5.322,0,0,1-1.949.36A2.945,2.945,0,0,1,281.652,506.725Z" transform="translate(-208.505 -498.499)"/><path class="e" d="M288.465,501.467v-1.038h1.155v-1.958h1.214v1.958h1.732v1.038h-1.757v3.824c0,.51.327.769.979.769h0a1.379,1.379,0,0,0,.77-.192v1.1a2.344,2.344,0,0,1-.828.217h0a2.259,2.259,0,0,1-.511-.059,2.891,2.891,0,0,1-.653-.225,1.367,1.367,0,0,1-.619-.594,2.05,2.05,0,0,1-.25-1.055V501.5Z" transform="translate(-209.963 -498.052)"/><path class="e" d="M295.61,499.325v-1.289H296.9v1.289Zm0,7.639v-6.618h1.213v6.618Z" transform="translate(-211.335 -497.969)"/><path class="e" d="M299.541,505.893a5.411,5.411,0,0,1,0-3.414,2.4,2.4,0,0,1,.761-1.055,3.049,3.049,0,0,1,1.03-.494,4.1,4.1,0,0,1,2.2,0,3.063,3.063,0,0,1,.987.494,2.338,2.338,0,0,1,.761,1.055,5.41,5.41,0,0,1,0,3.414,2.239,2.239,0,0,1-.761,1.054,3.23,3.23,0,0,1-.987.5,4.321,4.321,0,0,1-2.2,0,3.23,3.23,0,0,1-.987-.5A2.3,2.3,0,0,1,299.541,505.893Zm1.1-2.929a5.313,5.313,0,0,0,0,2.444,1.419,1.419,0,0,0,.435.711,1.529,1.529,0,0,0,.586.31,3.494,3.494,0,0,0,1.447,0,1.529,1.529,0,0,0,.586-.31,1.363,1.363,0,0,0,.435-.711,5.021,5.021,0,0,0,0-2.444,1.393,1.393,0,0,0-.435-.711,1.814,1.814,0,0,0-.586-.31,3.522,3.522,0,0,0-1.447,0,1.814,1.814,0,0,0-.586.31A1.456,1.456,0,0,0,300.646,502.963Z" transform="translate(-212.036 -498.495)"/><path class="e" d="M308.895,507.483v-6.057a6.319,6.319,0,0,1,2.819-.678,2.827,2.827,0,0,1,1.975.653,2.367,2.367,0,0,1,.711,1.815v4.268h-1.238v-4.359a1.313,1.313,0,0,0-.3-.92,1.582,1.582,0,0,0-1.2-.343,5.036,5.036,0,0,0-1.556.242v5.38Z" transform="translate(-213.884 -498.488)"/><path class="e" d="M317.748,502.734a1.882,1.882,0,0,1,.586-1.4,2.509,2.509,0,0,1,1.791-.569,4.006,4.006,0,0,1,1.774.427v1.054a3.85,3.85,0,0,0-1.623-.393c-.878,0-1.314.276-1.314.836,0,.184.117.335.352.461a4.013,4.013,0,0,0,.837.318c.326.1.661.209.987.343a1.913,1.913,0,0,1,.586,3.171,2.6,2.6,0,0,1-1.857.577,3.876,3.876,0,0,1-1.908-.46v-1.113a3.618,3.618,0,0,0,1.832.485h0a1.673,1.673,0,0,0,.962-.225.677.677,0,0,0,.335-.586.779.779,0,0,0-.343-.653,2.639,2.639,0,0,0-.837-.393c-.335-.092-.661-.192-1-.31a1.928,1.928,0,0,1-.836-.57A1.509,1.509,0,0,1,317.748,502.734Z" transform="translate(-215.583 -498.492)"/></g><g transform="translate(159.917 325.318)"><path class="a" d="M196.7,464.46h29.235a2.025,2.025,0,0,0,0-4.049H196.7a2.025,2.025,0,0,0,0,4.049Z" transform="translate(-193.599 -404.219)"/><path class="a" d="M230.854,419.476v34.482a2.025,2.025,0,0,0,4.05,0V419.476a2.025,2.025,0,0,0-4.05,0Z" transform="translate(-200.541 -395.975)"/><path class="a" d="M204.068,470.132a2.031,2.031,0,0,1-1.322-.485l-8.694-7.438a2.029,2.029,0,0,1,0-3.08l8.694-7.438a2.027,2.027,0,0,1,2.635,3.08l-6.895,5.932,6.895,5.857a2.025,2.025,0,0,1-1.313,3.564Z" transform="translate(-193.342 -402.452)"/><path class="a" d="M232.878,421.5H254.2a2.025,2.025,0,0,0,.006-4.05H232.878a2.025,2.025,0,1,0,0,4.05Z" transform="translate(-200.541 -395.974)"/><path class="a" d="M281.512,395.306l-20.667,20.667a2.033,2.033,0,1,1-2.87-2.87l20.668-20.668a2.033,2.033,0,1,1,2.87,2.87Z" transform="translate(-205.614 -391.042)"/><path class="a" d="M283.749,405.782a2.05,2.05,0,0,0,.586-1.28l.895-11.438a2.041,2.041,0,0,0-1.888-2.184,2.244,2.244,0,0,0-.295,0l-11.4.9a2.027,2.027,0,0,0,.309,4.042h0l9.045-.7-.7,9.045a2.025,2.025,0,0,0,3.456,1.59Z" transform="translate(-208.01 -390.874)"/><g transform="translate(44.328 15.878)"><circle class="b" cx="5.506" cy="5.506" r="5.506" transform="translate(1.899 1.899)"/><path class="c" d="M251.989,417.928a3.615,3.615,0,1,1,3.615,3.615,3.615,3.615,0,0,1-3.615-3.615m-3.791,0a7.4,7.4,0,1,0,0-.017Z" transform="translate(-248.198 -410.523)"/><path class="f" d="M257.907,468.835V418.572a.77.77,0,0,0-1.539,0v50.262a.77.77,0,0,0,1.539,0Z" transform="translate(-249.766 -411.92)"/></g></g><g transform="translate(175.028 231.164)"><path class="a" d="M275.093,274.361a2.03,2.03,0,0,1,1.314.486l8.7,7.438a2.025,2.025,0,0,1,.224,2.855,2.089,2.089,0,0,1-.224.224l-8.7,7.438a2.027,2.027,0,0,1-2.636-3.079l6.895-5.857-6.895-5.9a2.025,2.025,0,0,1,1.322-3.564Z" transform="translate(-223.753 -274.359)"/><path class="a" d="M215.526,283.566h55.886a2.025,2.025,0,0,1,0,4.05H215.526a2.025,2.025,0,0,1,0-4.05Z" transform="translate(-212.323 -276.126)"/><path class="a" d="M222.768,293.288a2.03,2.03,0,0,1-1.314-.486l-8.7-7.438a2.021,2.021,0,0,1,0-3.079l8.7-7.438a2.027,2.027,0,1,1,2.636,3.079l-6.895,5.9,6.895,5.857a2.025,2.025,0,0,1-1.322,3.564Z" transform="translate(-212.042 -274.359)"/><g transform="translate(19.503 53.315)"><path class="e" d="M236.177,342.84a2.336,2.336,0,0,1,.761-1.765,3.252,3.252,0,0,1,2.335-.728,5.02,5.02,0,0,1,2.276.535v1.206a4,4,0,0,0-2.125-.586c-1.338,0-2.008.444-2.008,1.338a.772.772,0,0,0,.352.628,2.917,2.917,0,0,0,.837.427c.343.109.728.251,1.138.419a10.15,10.15,0,0,1,1.13.544,2.391,2.391,0,0,1,1.221,2.133,2.1,2.1,0,0,1-.836,1.774,3.794,3.794,0,0,1-2.343.636,5.916,5.916,0,0,1-2.636-.636v-1.271a4.81,4.81,0,0,0,2.51.752c1.373,0,2.059-.418,2.067-1.255a1.276,1.276,0,0,0-.352-.912,2.012,2.012,0,0,0-.836-.553l-1.139-.385c-.418-.142-.794-.293-1.138-.444a2.131,2.131,0,0,1-.836-.7A1.892,1.892,0,0,1,236.177,342.84Z" transform="translate(-236.177 -340.336)"/><path class="e" d="M245.257,344.92a6.266,6.266,0,0,1,.259-1.9,3.848,3.848,0,0,1,.644-1.314,3.241,3.241,0,0,1,.962-.786,3.891,3.891,0,0,1,1.1-.419,6.672,6.672,0,0,1,2.309,0,3.762,3.762,0,0,1,1.1.419,3.11,3.11,0,0,1,.954.786,3.7,3.7,0,0,1,.653,1.314,6.292,6.292,0,0,1,.259,1.9,6.6,6.6,0,0,1-.293,2.058,3.262,3.262,0,0,1-.836,1.372,3.775,3.775,0,0,1-1.088.745,4.486,4.486,0,0,1-1.264.318,1.319,1.319,0,0,0,.352.912,1.247,1.247,0,0,0,.971.394v.9a2.59,2.59,0,0,1-1.816-.653,2.092,2.092,0,0,1-.719-1.6,4.508,4.508,0,0,1-1.305-.3,3.607,3.607,0,0,1-1.13-.719,3.286,3.286,0,0,1-.837-1.381A6.372,6.372,0,0,1,245.257,344.92Zm1.422-1.514a6.348,6.348,0,0,0,0,3.037,3,3,0,0,0,.444,1,1.927,1.927,0,0,0,.669.569,2.648,2.648,0,0,0,.761.276,5.924,5.924,0,0,0,.837.059,5.806,5.806,0,0,0,.836-.059,2.612,2.612,0,0,0,.77-.276,2.038,2.038,0,0,0,.678-.569,3,3,0,0,0,.452-1,5.855,5.855,0,0,0,.175-1.522,5.759,5.759,0,0,0-.175-1.514,3.209,3.209,0,0,0-.444-.987,1.869,1.869,0,0,0-.678-.569,2.689,2.689,0,0,0-.769-.276,5.751,5.751,0,0,0-1.674,0,2.566,2.566,0,0,0-.762.276,1.917,1.917,0,0,0-.669.569,3.027,3.027,0,0,0-.427.945Z" transform="translate(-237.919 -340.349)"/><path class="e" d="M257.756,349.327v-8.853h1.23v7.7h4.393v1.155Z" transform="translate(-240.318 -340.363)"/></g><g transform="translate(23.627 2.06)"><path class="b" d="M254.639,284.764a5.514,5.514,0,1,1-5.522-5.505h.009A5.513,5.513,0,0,1,254.639,284.764Z" transform="translate(-241.728 -277.359)"/><path class="c" d="M245.072,284.313a3.615,3.615,0,1,1,3.615,3.615h-.008a3.615,3.615,0,0,1-3.606-3.615m-3.791,0a7.405,7.405,0,1,0,7.405-7.405h-.008A7.406,7.406,0,0,0,241.281,284.313Z" transform="translate(-241.281 -276.908)"/><path class="f" d="M252.057,320.058V284.916a.77.77,0,1,0-1.539,0v35.145a.77.77,0,0,0,1.539,0Z" transform="translate(-243.054 -278.297)"/></g></g><g transform="translate(503.679 247.197)"><path class="d" d="M641.639,294.912c-9.865,0-20.082,2.234-20.082,5.982V335.2a2.192,2.192,0,0,0,.436,1.288,3.58,3.58,0,0,0,.485.569c2.552,2.46,10.251,4.117,19.153,4.117s16.609-1.674,19.152-4.117a3.251,3.251,0,0,0,.494-.569,2.243,2.243,0,0,0,.435-1.288V300.894C661.721,297.146,651.5,294.912,641.639,294.912Z" transform="translate(-619.285 -294.337)"/><path class="a" d="M661.083,298.342a14.778,14.778,0,0,0-6.024-2.661l-.368-.092-1.222-.267-.3-.059c-.453-.092-.92-.175-1.406-.259s-1.222-.192-1.858-.276l-.9-.108a66.434,66.434,0,0,0-7.489-.419h0c-10.125,0-20.584,2.293-20.584,6.133h0v35.21a2.319,2.319,0,0,0,.436,1.33,4.249,4.249,0,0,0,.5.577c2.619,2.511,10.509,4.184,19.646,4.184s17.036-1.674,19.646-4.184a3.893,3.893,0,0,0,.511-.594,2.326,2.326,0,0,0,.435-1.322V300.325A2.718,2.718,0,0,0,661.083,298.342Zm-37.31,1.924.142-.125.193-.126.2-.125.251-.15.259-.134.326-.159.31-.133.393-.159.368-.134c.142-.058.293-.108.452-.158l.419-.142.519-.151.469-.133.577-.151.519-.125.636-.142.569-.125.694-.126.611-.117.8-.142.644-.1.837-.1.677-.084.912-.092.686-.067,1-.066.686-.051,1.171-.05h4.937l1.171.05.686.051,1,.066.694.067.9.092.678.084.837.1.652.1.753.117.611.117.694.125.57.126.635.142.528.125.569.151.477.133.511.151.427.142.444.158.377.134.385.159.318.133.318.159.259.134.259.15.2.125.192.142.142.126.059.067C657.627,302,650.8,303.8,641.57,303.8s-16.082-1.791-17.788-3.456h0Zm35.553,35.276c-1.749,1.674-8.584,3.481-17.805,3.481s-16.057-1.791-17.822-3.506l-.108-.117V303.412c3.548,1.858,10.3,3.046,17.931,3.046s14.383-1.188,17.94-3.046v31.98Z" transform="translate(-619.165 -294.2)"/><g transform="translate(0 55.353)"><path d="M618.745,373.005V362.96h1.6l5.8,8.028-.466.9V362.96h1.581v10.045h-1.491l-5.964-8.193.527-.738v8.931Z" transform="translate(-618.745 -362.749)"/><path d="M635.272,373.779a3.415,3.415,0,0,1-2.734-1.039,4.411,4.411,0,0,1-.9-2.966,4.188,4.188,0,0,1,.927-3.005,3.552,3.552,0,0,1,2.673-.957,4.165,4.165,0,0,1,2.063.46,2.8,2.8,0,0,1,1.2,1.348,5.329,5.329,0,0,1,.392,2.154,4.273,4.273,0,0,1-.941,2.959A3.427,3.427,0,0,1,635.272,373.779Zm-.015-1.341a1.984,1.984,0,0,0,1.219-.339,1.9,1.9,0,0,0,.655-.941,4.991,4.991,0,0,0-.007-2.847,1.687,1.687,0,0,0-.663-.881,2.18,2.18,0,0,0-1.2-.294,2.06,2.06,0,0,0-1.2.316,1.736,1.736,0,0,0-.648.9,4.523,4.523,0,0,0-.2,1.417,3.519,3.519,0,0,0,.467,1.957A1.749,1.749,0,0,0,635.257,372.438Z" transform="translate(-621.22 -363.296)"/><path d="M646,373.129a9.375,9.375,0,0,1-1.325-.083,4.741,4.741,0,0,1-1.039-.263,10.007,10.007,0,0,1-.964-.436v-1.657a5,5,0,0,0,1.423.769,5.281,5.281,0,0,0,1.8.3,2.139,2.139,0,0,0,1.393-.384,1.31,1.31,0,0,0,.46-1.063,1.122,1.122,0,0,0-.339-.851,2.8,2.8,0,0,0-.9-.549q-.558-.225-1.19-.452-.481-.181-.949-.385a3.553,3.553,0,0,1-.844-.512,2.205,2.205,0,0,1-.6-.789,2.964,2.964,0,0,1-.03-2.2,2.718,2.718,0,0,1,.595-.927,2.826,2.826,0,0,1,1.054-.663,4.445,4.445,0,0,1,1.574-.249,6.44,6.44,0,0,1,1.047.075,4.189,4.189,0,0,1,.844.234q.4.158.866.384v1.626q-.377-.24-.76-.452a4.306,4.306,0,0,0-.836-.346,3.882,3.882,0,0,0-1.009-.151,2.617,2.617,0,0,0-1.039.151,1.352,1.352,0,0,0-.617.467,1.176,1.176,0,0,0-.211.693,1.249,1.249,0,0,0,.263.836,1.962,1.962,0,0,0,.746.511q.482.2,1.114.4.558.181,1.084.407a4.055,4.055,0,0,1,.934.549,2.458,2.458,0,0,1,.655.806,2.57,2.57,0,0,1,.249,1.19,3.15,3.15,0,0,1-.354,1.468,2.711,2.711,0,0,1-1.114,1.115A4.011,4.011,0,0,1,646,373.129Z" transform="translate(-623.338 -362.706)"/><path d="M657.689,373.166a4.484,4.484,0,0,1-3.487-1.3,5.666,5.666,0,0,1-1.182-3.931,5.76,5.76,0,0,1,1.167-3.923,4.436,4.436,0,0,1,3.5-1.318,4.512,4.512,0,0,1,3.494,1.3,7.131,7.131,0,0,1,.022,7.854A4.45,4.45,0,0,1,657.689,373.166Zm0-1.3a3.432,3.432,0,0,0,1.679-.421,2.328,2.328,0,0,0,.971-1.243,6.711,6.711,0,0,0,.316-2.282,6.247,6.247,0,0,0-.323-2.206,2.365,2.365,0,0,0-.979-1.228,3.712,3.712,0,0,0-3.32,0,2.35,2.35,0,0,0-.987,1.235,6.275,6.275,0,0,0-.324,2.214,6.631,6.631,0,0,0,.324,2.282,2.341,2.341,0,0,0,.987,1.257A3.2,3.2,0,0,0,657.689,371.871Zm3.735,1.371a1.635,1.635,0,0,0,.422-.052,2.132,2.132,0,0,0,.511-.249v1.19a2.064,2.064,0,0,1-.61.225,3.007,3.007,0,0,1-.579.061,2.25,2.25,0,0,1-.715-.112,2.474,2.474,0,0,1-.648-.332,2.216,2.216,0,0,1-.549-.572,3.482,3.482,0,0,1-.406-.836,6.408,6.408,0,0,0-.415-.941,2.278,2.278,0,0,0-.557-.693,1.207,1.207,0,0,0-.79-.263,1.8,1.8,0,0,0-.933.24,2.808,2.808,0,0,0-.723.618v-1.281a2.849,2.849,0,0,1,.746-.556,2.556,2.556,0,0,1,2.365.037,3.058,3.058,0,0,1,.933.851,4.777,4.777,0,0,1,.655,1.295,3.753,3.753,0,0,0,.595,1.025A.92.92,0,0,0,661.424,373.241Z" transform="translate(-625.323 -362.699)"/><path d="M667.036,373.005V362.96h1.672v8.63H673.5v1.415Z" transform="translate(-628.013 -362.749)"/></g></g><g transform="translate(502.122 84.584)"><path class="d" d="M641.995,93.7c-9.865,0-20.082,2.242-20.082,5.982v34.306a2.173,2.173,0,0,0,.435,1.288,3.3,3.3,0,0,0,.486.569c2.552,2.469,10.25,4.125,19.152,4.125s16.609-1.674,19.153-4.116a3.37,3.37,0,0,0,.494-.578,2.234,2.234,0,0,0,.435-1.288V99.685C662.076,95.945,651.835,93.7,641.995,93.7Z" transform="translate(-617.796 -93.109)"/><path class="a" d="M661.438,97.109a14.88,14.88,0,0,0-6.024-2.652l-.368-.092c-.394-.1-.837-.184-1.222-.276l-.3-.058-1.4-.259c-.611-.1-1.23-.192-1.866-.276l-.9-.109a66.63,66.63,0,0,0-7.489-.418h0c-10.116,0-20.584,2.293-20.584,6.133h0v35.217a2.265,2.265,0,0,0,.435,1.322,3.841,3.841,0,0,0,.5.578c2.619,2.51,10.51,4.234,19.647,4.234s17.035-1.674,19.646-4.183a3.907,3.907,0,0,0,.511-.586,2.337,2.337,0,0,0,.435-1.322V99.1A2.737,2.737,0,0,0,661.438,97.109ZM624.1,99.034l.142-.117a1.135,1.135,0,0,1,.192-.142l.2-.134.25-.15.259-.134.326-.15.318-.142.385-.159.368-.134.452-.158.427-.134c.158-.059.335-.109.51-.159l.469-.134.578-.15.518-.125.636-.142.57-.117.694-.134.611-.108.761-.126.644-.092.837-.108.678-.084.911-.092.686-.058c.327,0,.67-.05,1-.075l.686-.042q.577,0,1.18-.05h4.928a9.093,9.093,0,0,1,1.171.05l.686.042a4.49,4.49,0,0,1,1,.075l.694.058.9.092.677.084.837.108.652.092.753.126.619.108.687.134.569.117.636.142.527.125.569.15.477.134.511.159.427.134.444.158a1.1,1.1,0,0,1,.377.142l.385.151.318.142.318.15.259.134.259.15.2.134.193.142.142.117.058.067c-1.757,1.673-8.585,3.48-17.814,3.48s-16.09-1.8-17.763-3.464h0Zm35.553,35.284c-1.749,1.674-8.585,3.473-17.805,3.473s-16.057-1.791-17.822-3.506a.749.749,0,0,1-.109-.117v-31.98c3.547,1.858,10.3,3.046,17.931,3.046s14.383-1.18,17.94-3.046v31.988a.568.568,0,0,1-.109.142Z" transform="translate(-617.677 -92.968)"/><g transform="translate(0 55.918)"><path d="M616.818,172.436V162.39h4.458a3.452,3.452,0,0,1,2.4.76,2.915,2.915,0,0,1,.836,2.267,3.308,3.308,0,0,1-.316,1.446,2.749,2.749,0,0,1-.919,1.085,2.8,2.8,0,0,1-1.431.482l.181-.512,2.982,4.519h-2.063l-2.786-4.5.768.708h-2.455v3.8Zm1.657-5.151h2.335a2.171,2.171,0,0,0,1.484-.437,1.685,1.685,0,0,0,.489-1.325,1.919,1.919,0,0,0-.384-1.28,1.649,1.649,0,0,0-1.317-.453h-2.606Z" transform="translate(-616.818 -162.209)"/><path d="M629.212,172.436V162.39h3.524a4.759,4.759,0,0,1,3.63,1.265,6.518,6.518,0,0,1,0,7.508,4.743,4.743,0,0,1-3.63,1.273Zm1.657-1.4h1.7a3.226,3.226,0,0,0,2.485-.865,5.169,5.169,0,0,0,0-5.52,3.208,3.208,0,0,0-2.485-.874h-1.7Z" transform="translate(-619.197 -162.209)"/><path d="M642,172.436V162.39h3.72a5.011,5.011,0,0,1,1.98.331,2.339,2.339,0,0,1,1.122.941,2.8,2.8,0,0,1,.361,1.454,1.946,1.946,0,0,1-.256,1.062,2.2,2.2,0,0,1-.609.64q-.355.24-.671.452l-.2-.347a3.369,3.369,0,0,1,1.1.415,2.533,2.533,0,0,1,.866.843,2.443,2.443,0,0,1,.339,1.333,2.786,2.786,0,0,1-.467,1.672,2.675,2.675,0,0,1-1.3.949,5.642,5.642,0,0,1-1.921.3Zm1.656-5.859h2.259a2.863,2.863,0,0,0,.753-.1,1.166,1.166,0,0,0,.6-.384,1.62,1.62,0,0,0-.234-2,2.272,2.272,0,0,0-1.257-.309h-2.124Zm.015,4.474h2.38a3.648,3.648,0,0,0,.986-.128,1.383,1.383,0,0,0,.739-.482,1.589,1.589,0,0,0,.278-1,1.541,1.541,0,0,0-.18-.8,1.232,1.232,0,0,0-.474-.46,1.978,1.978,0,0,0-.663-.21,5.091,5.091,0,0,0-.731-.053H643.67Z" transform="translate(-621.65 -162.209)"/><path d="M654.038,172.436V162.39h1.732l3.6,5.316-.979.121,3.781-5.438h1.7v10.046h-1.657v-8.63l.467.316-3.826,5.286-3.644-5.24.436-.482v8.751Z" transform="translate(-623.961 -162.209)"/><path d="M672.165,172.559a9.273,9.273,0,0,1-1.325-.083,4.756,4.756,0,0,1-1.039-.263,9.98,9.98,0,0,1-.964-.436v-1.657a5,5,0,0,0,1.423.768,5.262,5.262,0,0,0,1.8.3,2.134,2.134,0,0,0,1.393-.385,1.306,1.306,0,0,0,.46-1.062,1.127,1.127,0,0,0-.339-.851,2.816,2.816,0,0,0-.9-.549q-.558-.225-1.19-.452-.482-.181-.949-.384a3.556,3.556,0,0,1-.843-.512,2.22,2.22,0,0,1-.6-.791,2.963,2.963,0,0,1-.03-2.2,2.723,2.723,0,0,1,.595-.926,2.824,2.824,0,0,1,1.055-.663,4.44,4.44,0,0,1,1.573-.249,6.348,6.348,0,0,1,1.047.076,4.187,4.187,0,0,1,.844.233c.267.106.554.234.866.385v1.626q-.377-.24-.76-.452a4.352,4.352,0,0,0-.836-.346,3.882,3.882,0,0,0-1.009-.151,2.62,2.62,0,0,0-1.04.151,1.356,1.356,0,0,0-.617.466,1.186,1.186,0,0,0-.21.693,1.241,1.241,0,0,0,.264.836,1.944,1.944,0,0,0,.745.512q.482.2,1.115.4.556.181,1.084.406a4.052,4.052,0,0,1,.934.549,2.468,2.468,0,0,1,.655.806,2.58,2.58,0,0,1,.248,1.19,3.153,3.153,0,0,1-.354,1.468,2.711,2.711,0,0,1-1.114,1.115A4.016,4.016,0,0,1,672.165,172.559Z" transform="translate(-626.801 -162.166)"/></g></g><g transform="translate(486.84 329.018)"><path class="d" d="M642.371,396.642c-9.873,0-20.082,2.234-20.082,5.974v34.306a2.244,2.244,0,0,0,.427,1.288,4.8,4.8,0,0,0,.486.57c2.56,2.46,10.25,4.116,19.161,4.116s16.609-1.674,19.152-4.116a3.648,3.648,0,0,0,.494-.57,2.237,2.237,0,0,0,.427-1.288V402.616C662.453,398.876,652.219,396.642,642.371,396.642Z" transform="translate(-602.586 -395.681)"/><path class="a" d="M661.784,399.594a14.724,14.724,0,0,0-6.016-2.66l-.377-.092c-.394-.092-.837-.184-1.214-.268l-.3-.058-1.406-.259c-.6-.1-1.23-.192-1.866-.276l-.9-.108a66.06,66.06,0,0,0-7.489-.419h0c-10.116,0-20.584,2.293-20.584,6.133h0V436.8a2.326,2.326,0,0,0,.444,1.331,4.257,4.257,0,0,0,.5.577c2.619,2.511,10.509,4.225,19.638,4.225s17.044-1.674,19.655-4.183a3.907,3.907,0,0,0,.5-.594,2.285,2.285,0,0,0,.444-1.322V401.586A2.706,2.706,0,0,0,661.784,399.594Zm-37.3,1.933.142-.125.183-.142.2-.125.259-.151.259-.133.326-.159.31-.134.393-.159.369-.133.444-.159.427-.142.511-.15.477-.134.577-.15.519-.126.636-.142.569-.125.695-.125.611-.117.761-.117.644-.1.837-.1.677-.083.912-.092.686-.067,1-.067.687-.05,1.138-.034h4.92l1.18.051.686.05,1,.067.686.066.911.092.678.084.837.1.644.1.761.117.611.117.694.126.57.125.635.142.519.125.578.151.469.133.519.151.418.142c.159.05.31.1.453.158l.368.134.394.159.31.133.326.159.259.134.259.15.2.126.184.142a1.046,1.046,0,0,1,.142.125l.058.067c-1.749,1.674-8.576,3.472-17.813,3.472s-16.074-1.791-17.789-3.455h0ZM660.026,436.8c-1.74,1.674-8.576,3.48-17.805,3.48s-16.049-1.791-17.822-3.505l-.1-.117V404.674c3.547,1.857,10.292,3.046,17.923,3.046s14.392-1.189,17.94-3.046v32a.682.682,0,0,1-.134.125Z" transform="translate(-602.461 -395.453)"/><g transform="translate(0 55.321)"><path d="M602.576,474.959a5.216,5.216,0,0,1-2.538-.572,3.7,3.7,0,0,1-1.589-1.717,6.745,6.745,0,0,1-.542-2.892,5.586,5.586,0,0,1,1.2-3.885,4.467,4.467,0,0,1,3.472-1.311,5.212,5.212,0,0,1,2.545.573,3.747,3.747,0,0,1,1.59,1.724,6.733,6.733,0,0,1,.549,2.9,5.556,5.556,0,0,1-1.2,3.871A4.486,4.486,0,0,1,602.576,474.959Zm0-1.43a3.252,3.252,0,0,0,1.664-.385,2.323,2.323,0,0,0,.979-1.212,6.059,6.059,0,0,0,.324-2.169,5.946,5.946,0,0,0-.324-2.146,2.328,2.328,0,0,0-.979-1.2,3.253,3.253,0,0,0-1.664-.384,3.215,3.215,0,0,0-1.657.392,2.35,2.35,0,0,0-.987,1.212,5.946,5.946,0,0,0-.323,2.146,6.008,6.008,0,0,0,.323,2.154,2.309,2.309,0,0,0,.987,1.212A3.264,3.264,0,0,0,602.576,473.529Z" transform="translate(-597.907 -464.041)"/><path d="M614.35,475.119a2.309,2.309,0,0,1-1.619-.543,2.05,2.05,0,0,1-.595-1.6v-4.307h-1.22v-1.311h1.22v-2.108h1.627v2.108H615.6v1.311h-1.837v3.99a1.356,1.356,0,0,0,.188.791.808.808,0,0,0,.7.264,2.033,2.033,0,0,0,.512-.068,1.792,1.792,0,0,0,.436-.174v1.4a2.61,2.61,0,0,1-.61.181A3.71,3.71,0,0,1,614.35,475.119Z" transform="translate(-600.404 -464.17)"/><path d="M618.986,474.665V463.912h1.581v4.322l-.467-.391a5.351,5.351,0,0,1,1.3-.655,4.213,4.213,0,0,1,1.393-.249,3.45,3.45,0,0,1,1.522.309,2.188,2.188,0,0,1,.986.979,3.752,3.752,0,0,1,.355,1.754v4.684h-1.582v-4.487a2.024,2.024,0,0,0-.436-1.4,1.663,1.663,0,0,0-1.3-.481,3.231,3.231,0,0,0-.912.135,4.226,4.226,0,0,0-.865.362l-.015,5.873Z" transform="translate(-601.952 -463.912)"/><path d="M633.161,475.607a3.957,3.957,0,0,1-1.935-.452,3.033,3.033,0,0,1-1.266-1.341,4.817,4.817,0,0,1-.444-2.169,4.3,4.3,0,0,1,.927-2.99,3.817,3.817,0,0,1,4.556-.474,3.034,3.034,0,0,1,1.092,1.513,6.647,6.647,0,0,1,.324,2.267h-5.949l-.045-1.175h4.789l-.377.377a2.842,2.842,0,0,0-.482-1.694,1.667,1.667,0,0,0-1.371-.535,1.989,1.989,0,0,0-1.024.248,1.55,1.55,0,0,0-.64.844,4.874,4.874,0,0,0-.219,1.634,2.792,2.792,0,0,0,.587,1.92,2.208,2.208,0,0,0,1.732.655,4.766,4.766,0,0,0,.956-.09,5.31,5.31,0,0,0,.821-.234c.25-.1.467-.188.647-.279v1.461a6.541,6.541,0,0,1-1.189.369A7.151,7.151,0,0,1,633.161,475.607Z" transform="translate(-603.973 -464.627)"/><path d="M640.307,475.384v-6.868a5.4,5.4,0,0,1,.723-.331,7.936,7.936,0,0,1,1.25-.369,6.792,6.792,0,0,1,1.461-.158,2.649,2.649,0,0,1,.617.06,2.505,2.505,0,0,1,.406.136v1.265q-.346-.045-.722-.068a6.175,6.175,0,0,0-.753,0c-.251.015-.5.038-.738.068s-.462.06-.663.091v6.175Z" transform="translate(-606.044 -464.631)"/><path d="M656.142,474.956a9.4,9.4,0,0,1-1.326-.082,4.8,4.8,0,0,1-1.039-.263,9.99,9.99,0,0,1-.963-.436v-1.657a4.96,4.96,0,0,0,1.423.768,5.258,5.258,0,0,0,1.8.3,2.136,2.136,0,0,0,1.393-.385,1.31,1.31,0,0,0,.46-1.062,1.122,1.122,0,0,0-.339-.851,2.807,2.807,0,0,0-.9-.549q-.558-.225-1.19-.453-.482-.179-.949-.384a3.545,3.545,0,0,1-.844-.512,2.219,2.219,0,0,1-.6-.79,2.8,2.8,0,0,1-.225-1.189,2.826,2.826,0,0,1,.2-1.009,2.742,2.742,0,0,1,.595-.926,2.832,2.832,0,0,1,1.055-.663,4.425,4.425,0,0,1,1.573-.249,6.462,6.462,0,0,1,1.047.075,4.273,4.273,0,0,1,.844.234q.4.159.866.385v1.626q-.377-.24-.761-.452a4.316,4.316,0,0,0-.835-.346,3.89,3.89,0,0,0-1.009-.151,2.6,2.6,0,0,0-1.039.151,1.35,1.35,0,0,0-.617.466,1.179,1.179,0,0,0-.211.693,1.246,1.246,0,0,0,.263.836,1.946,1.946,0,0,0,.746.512q.481.2,1.114.4c.372.12.732.255,1.084.406a4.053,4.053,0,0,1,.934.549,2.457,2.457,0,0,1,.655.806,2.58,2.58,0,0,1,.248,1.19,3.163,3.163,0,0,1-.353,1.468,2.712,2.712,0,0,1-1.115,1.114A4.006,4.006,0,0,1,656.142,474.956Z" transform="translate(-608.444 -464.037)"/><path d="M666.07,475.119a2.308,2.308,0,0,1-1.619-.543,2.049,2.049,0,0,1-.595-1.6v-4.307h-1.22v-1.311h1.22v-2.108h1.626v2.108h1.838v1.311h-1.838v3.99a1.362,1.362,0,0,0,.188.791.81.81,0,0,0,.7.264,2.022,2.022,0,0,0,.512-.068,1.786,1.786,0,0,0,.437-.174v1.4a2.622,2.622,0,0,1-.61.181A3.72,3.72,0,0,1,666.07,475.119Z" transform="translate(-610.329 -464.17)"/><path d="M673.851,475.607a3.416,3.416,0,0,1-2.734-1.039,4.409,4.409,0,0,1-.9-2.967,4.19,4.19,0,0,1,.926-3,3.552,3.552,0,0,1,2.673-.957,4.166,4.166,0,0,1,2.064.459,2.8,2.8,0,0,1,1.2,1.349,5.326,5.326,0,0,1,.391,2.154,4.279,4.279,0,0,1-.941,2.96A3.431,3.431,0,0,1,673.851,475.607Zm-.015-1.341a1.991,1.991,0,0,0,1.22-.339,1.9,1.9,0,0,0,.655-.941,4.992,4.992,0,0,0-.007-2.847,1.69,1.69,0,0,0-.663-.881,2.187,2.187,0,0,0-1.2-.294,2.063,2.063,0,0,0-1.2.317,1.727,1.727,0,0,0-.647.9,4.493,4.493,0,0,0-.2,1.416,3.527,3.527,0,0,0,.467,1.958A1.749,1.749,0,0,0,673.836,474.266Z" transform="translate(-611.785 -464.627)"/><path d="M681.478,475.384v-6.868a5.377,5.377,0,0,1,.722-.331,7.95,7.95,0,0,1,1.251-.369,6.787,6.787,0,0,1,1.461-.158,2.65,2.65,0,0,1,.617.06,2.537,2.537,0,0,1,.406.136v1.265q-.347-.045-.723-.068a6.175,6.175,0,0,0-.753,0q-.377.023-.738.068c-.241.03-.462.06-.663.091v6.175Z" transform="translate(-613.945 -464.631)"/><path d="M691.553,475.607a3.957,3.957,0,0,1-1.935-.452,3.024,3.024,0,0,1-1.265-1.341,4.806,4.806,0,0,1-.444-2.169,4.3,4.3,0,0,1,.926-2.99,3.817,3.817,0,0,1,4.556-.474,3.035,3.035,0,0,1,1.093,1.513,6.667,6.667,0,0,1,.323,2.267h-5.949l-.045-1.175h4.79l-.377.377a2.848,2.848,0,0,0-.482-1.694,1.669,1.669,0,0,0-1.37-.535,1.994,1.994,0,0,0-1.025.248,1.549,1.549,0,0,0-.64.844,4.9,4.9,0,0,0-.218,1.634,2.788,2.788,0,0,0,.587,1.92,2.207,2.207,0,0,0,1.732.655,4.781,4.781,0,0,0,.957-.09,5.3,5.3,0,0,0,.82-.234q.377-.143.648-.279v1.461a6.533,6.533,0,0,1-1.19.369A7.142,7.142,0,0,1,691.553,475.607Z" transform="translate(-615.179 -464.627)"/></g></g><g transform="translate(35.74 333.833)"><path class="g" d="M39.674,474.331,43.8,463.972h1.414l4.117,10.359H47.774l-1.1-2.928H42.352l-1.113,2.9Zm3.18-4.259h3.288l-1.673-4.293Z" transform="translate(-39.674 -413.417)"/><path class="g" d="M53.591,477.835v-8.367a3.156,3.156,0,0,1,.042-.494,2.581,2.581,0,0,1,.234-.628,2.313,2.313,0,0,1,.5-.669,2.963,2.963,0,0,1,.954-.494,4.692,4.692,0,0,1,1.481-.209,4.836,4.836,0,0,1,.836.075,3.171,3.171,0,0,1,.9.343,2.931,2.931,0,0,1,.837.686,3.407,3.407,0,0,1,.594,1.2,6,6,0,0,1,.259,1.866,5.5,5.5,0,0,1-.318,1.966,2.5,2.5,0,0,1-.836,1.2,3.763,3.763,0,0,1-1.13.569,4.54,4.54,0,0,1-1.263.167,6.006,6.006,0,0,1-1.674-.225v3.012Zm1.414-4.409a4.718,4.718,0,0,0,1.674.309,3.279,3.279,0,0,0,.836-.092,1.76,1.76,0,0,0,.661-.352,1.579,1.579,0,0,0,.5-.837,4.94,4.94,0,0,0,.167-1.388,5.7,5.7,0,0,0-.167-1.5,1.721,1.721,0,0,0-.494-.836,1.67,1.67,0,0,0-.627-.368,2.3,2.3,0,0,0-.711-.1c-1.2,0-1.8.385-1.8,1.155Z" transform="translate(-42.345 -413.993)"/><path class="g" d="M64.111,477.835v-8.367a2.414,2.414,0,0,1,.05-.494,2.614,2.614,0,0,1,.234-.628,2.042,2.042,0,0,1,.5-.669,2.784,2.784,0,0,1,.954-.494,4.615,4.615,0,0,1,1.472-.209,4.7,4.7,0,0,1,.837.075,3.134,3.134,0,0,1,.9.343,3.031,3.031,0,0,1,.836.686,3.52,3.52,0,0,1,.594,1.2,5.985,5.985,0,0,1,.234,1.782,5.5,5.5,0,0,1-.31,1.967,2.51,2.51,0,0,1-.836,1.2,3.856,3.856,0,0,1-1.122.569,4.633,4.633,0,0,1-1.263.167,5.981,5.981,0,0,1-1.674-.226v3.1Zm1.422-4.409a4.682,4.682,0,0,0,1.674.309,3.21,3.21,0,0,0,.837-.092,1.8,1.8,0,0,0,.669-.352,1.523,1.523,0,0,0,.494-.837,4.632,4.632,0,0,0,.175-1.388,5.385,5.385,0,0,0-.175-1.5,1.72,1.72,0,0,0-.486-.836,1.776,1.776,0,0,0-.627-.368,2.359,2.359,0,0,0-.72-.1c-1.2,0-1.791.385-1.791,1.155Z" transform="translate(-44.364 -413.993)"/><path class="g" d="M74.983,474.249v-10.7h1.422v10.7Z" transform="translate(-46.45 -413.336)"/><path class="g" d="M79.9,465.354v-1.506h1.505v1.5Zm.05,8.953v-7.748h1.414v7.748Z" transform="translate(-47.394 -413.394)"/><path class="g" d="M85.161,474.016a5.256,5.256,0,0,1,0-5.941,3.407,3.407,0,0,1,2.686-1.029,6.128,6.128,0,0,1,2.284.435v1.347a4.927,4.927,0,0,0-2.134-.51h0a2.4,2.4,0,0,0-1.674.552,2.952,2.952,0,0,0-.6,2.175,4.884,4.884,0,0,0,.175,1.422,1.6,1.6,0,0,0,.528.837,1.956,1.956,0,0,0,.719.368,3.557,3.557,0,0,0,.837.092,5.077,5.077,0,0,0,2.166-.494v1.339a6.29,6.29,0,0,1-2.284.427A3.43,3.43,0,0,1,85.161,474.016Z" transform="translate(-48.227 -414.006)"/><path class="g" d="M93.3,472.468a2.06,2.06,0,0,1,.971-1.8,4.825,4.825,0,0,1,2.678-.644,10.755,10.755,0,0,1,1.405.092,1.881,1.881,0,0,0-.535-1.4,2.391,2.391,0,0,0-1.6-.427,6.565,6.565,0,0,0-2.142.385v-1.214a6.588,6.588,0,0,1,2.343-.418,3.528,3.528,0,0,1,2.511.836,3.181,3.181,0,0,1,.878,2.41v2.234a2.414,2.414,0,0,1-.05.494,2.8,2.8,0,0,1-.234.636,2.236,2.236,0,0,1-.5.677,2.766,2.766,0,0,1-.962.494,4.664,4.664,0,0,1-1.472.209,4.759,4.759,0,0,1-1.506-.217,2.828,2.828,0,0,1-.971-.5,2.188,2.188,0,0,1-.519-.686,2.693,2.693,0,0,1-.243-.653A3.73,3.73,0,0,1,93.3,472.468Zm1.414,0c0,.837.619,1.314,1.866,1.314h0c1.172,0,1.758-.419,1.758-1.263v-1.247a9.771,9.771,0,0,0-1.347-.1,3.681,3.681,0,0,0-.653.059,4.6,4.6,0,0,0-.728.175,1.451,1.451,0,0,0-.653.4.931.931,0,0,0-.242.645Z" transform="translate(-49.965 -414.006)"/><path class="g" d="M102.712,467.87v-1.213h1.356v-2.3h1.414v2.3h2.058v1.213h-2.058v4.444c0,.6.385.9,1.146.9h0a1.671,1.671,0,0,0,.9-.226v1.281a2.808,2.808,0,0,1-1.054.217h0a3.127,3.127,0,0,1-.595-.067,3.536,3.536,0,0,1-.761-.267,1.676,1.676,0,0,1-.736-.695,2.429,2.429,0,0,1-.284-1.23v-4.393Z" transform="translate(-51.772 -413.491)"/><path class="g" d="M111.006,465.354v-1.506h1.506v1.5Zm.05,8.953v-7.748h1.414v7.748Z" transform="translate(-53.364 -413.394)"/><path class="g" d="M115.682,473.059a6.322,6.322,0,0,1,0-4.008,2.733,2.733,0,0,1,.887-1.23,3.762,3.762,0,0,1,1.155-.585,5.011,5.011,0,0,1,2.577,0,3.771,3.771,0,0,1,1.155.585,2.753,2.753,0,0,1,.9,1.23,6.322,6.322,0,0,1,0,4.008,2.748,2.748,0,0,1-.9,1.23,3.755,3.755,0,0,1-1.155.586,5.011,5.011,0,0,1-2.577,0,3.746,3.746,0,0,1-1.155-.586A2.724,2.724,0,0,1,115.682,473.059Zm1.289-3.43a6.168,6.168,0,0,0,0,2.853,1.67,1.67,0,0,0,.51.836,1.928,1.928,0,0,0,.686.36,3.846,3.846,0,0,0,1.674,0,1.865,1.865,0,0,0,.686-.36,1.62,1.62,0,0,0,.511-.836,5.859,5.859,0,0,0,0-2.853,1.622,1.622,0,0,0-.511-.837,1.889,1.889,0,0,0-.686-.36,3.469,3.469,0,0,0-.836-.092,3.56,3.56,0,0,0-.837.092,1.941,1.941,0,0,0-.686.36A1.672,1.672,0,0,0,116.97,469.629Z" transform="translate(-54.198 -414.011)"/><path class="g" d="M126.621,474.9V467.79a7.462,7.462,0,0,1,3.347-.836,3.346,3.346,0,0,1,2.31.769,2.749,2.749,0,0,1,.836,2.125v5.021h-1.447v-5.113a1.583,1.583,0,0,0-.352-1.079,1.891,1.891,0,0,0-1.406-.393,5.777,5.777,0,0,0-1.824.284v6.3Z" transform="translate(-56.36 -413.989)"/><path class="g" d="M137,469.355a2.185,2.185,0,0,1,.686-1.632,2.861,2.861,0,0,1,2.092-.677,4.579,4.579,0,0,1,2.075.51v1.23a4.552,4.552,0,0,0-1.9-.468c-1.029,0-1.539.335-1.539,1,0,.217.134.393.41.535a4.759,4.759,0,0,0,.987.377c.385.109.77.243,1.155.394a2.39,2.39,0,0,1,.987.778,2.293,2.293,0,0,1-.293,2.962,3.034,3.034,0,0,1-2.175.677,4.653,4.653,0,0,1-2.242-.544v-1.3a4.343,4.343,0,0,0,2.15.569h0a2,2,0,0,0,1.13-.267.838.838,0,0,0,.394-.686.92.92,0,0,0-.41-.77,3.183,3.183,0,0,0-.987-.452c-.394-.108-.778-.225-1.164-.36a2.284,2.284,0,0,1-.987-.669A1.77,1.77,0,0,1,137,469.355Z" transform="translate(-58.35 -414.005)"/><path class="d" d="M87.226,444a1.247,1.247,0,0,1-.611-.167l-18.166-4.376a1.222,1.222,0,0,1-.61-1.063V407.649a1.238,1.238,0,0,1,.61-1.071l18.166-3.933a1.241,1.241,0,0,1,1.23,0l18.166,3.933a1.241,1.241,0,0,1,.611,1.071v30.742a1.223,1.223,0,0,1-.611,1.063l-18.166,4.376A1.243,1.243,0,0,1,87.226,444Z" transform="translate(-45.079 -401.617)"/><path class="a" d="M87.158,444.611c-.209,0-19.044-4.452-19.044-4.452a1.237,1.237,0,0,1-.627-1.079V406.523a1.237,1.237,0,0,1,.627-1.079s18.835-4.033,19.044-4.033,19.052,4.033,19.052,4.033a1.237,1.237,0,0,1,.628,1.079v32.558a1.237,1.237,0,0,1-.628,1.079S87.376,444.611,87.158,444.611ZM69.98,438.361l17.178,3.564,17.186-3.564V407.243l-17.186-3.724L69.98,407.243Z" transform="translate(-45.012 -401.411)"/><path class="a" d="M87.156,413.408a1.279,1.279,0,0,1-.628-.167L68.12,409.366a1.247,1.247,0,0,1,1.2-2.185l.044.027,17.789,3.505,17.805-3.505a1.238,1.238,0,0,1,1.674.452,1.255,1.255,0,0,1-.452,1.674l-18.408,3.874A1.268,1.268,0,0,1,87.156,413.408Z" transform="translate(-45.009 -402.489)"/><path class="a" d="M91.532,445.806a1.254,1.254,0,0,1-1.255-1.247V413.6a1.255,1.255,0,1,1,2.51,0h0v30.959a1.247,1.247,0,0,1-1.247,1.247Z" transform="translate(-49.385 -403.509)"/></g><g transform="translate(49.797 252.392)"><path class="g" d="M57.07,366.319a2.79,2.79,0,0,1,.878-2.067,3.834,3.834,0,0,1,2.736-.836,5.95,5.95,0,0,1,2.669.627v1.406a4.7,4.7,0,0,0-2.51-.686c-1.564,0-2.343.519-2.343,1.564a.9.9,0,0,0,.41.736,3.226,3.226,0,0,0,1.021.5c.4.125.837.284,1.322.485a13.293,13.293,0,0,1,1.331.636,2.791,2.791,0,0,1,1.013.987,2.755,2.755,0,0,1,.41,1.514,2.436,2.436,0,0,1-1,2.075,4.5,4.5,0,0,1-2.744.745,7.017,7.017,0,0,1-3.08-.745v-1.472a5.621,5.621,0,0,0,2.971.836c1.606,0,2.418-.494,2.418-1.472a1.505,1.505,0,0,0-.41-1.072,2.313,2.313,0,0,0-1.013-.644l-1.33-.452c-.486-.167-.928-.335-1.33-.511a2.5,2.5,0,0,1-1.013-.836A2.189,2.189,0,0,1,57.07,366.319Z" transform="translate(-57.069 -312.676)"/><path class="g" d="M67.684,370.74q0-4.092,3.422-4.092h0a3.224,3.224,0,0,1,2.51,1.013,3.883,3.883,0,0,1,.928,2.72,8.845,8.845,0,0,1-.042,1.071H69.148a2.008,2.008,0,0,0,2.017,2c.056,0,.111,0,.166-.008a5.622,5.622,0,0,0,2.678-.585v1.288a6.783,6.783,0,0,1-2.7.511h-.05A4.309,4.309,0,0,1,70,374.48a3.607,3.607,0,0,1-1.122-.56,2.6,2.6,0,0,1-.836-1.214A5.452,5.452,0,0,1,67.684,370.74Zm1.43-.569h3.975a3.611,3.611,0,0,0-.134-.736,3.155,3.155,0,0,0-.309-.72,1.436,1.436,0,0,0-.6-.577,1.936,1.936,0,0,0-.937-.218,1.842,1.842,0,0,0-1.439.511,2.921,2.921,0,0,0-.553,1.724Z" transform="translate(-59.106 -313.298)"/><path class="g" d="M78.421,374.5v-7.112a10.089,10.089,0,0,1,3.774-.778v1.305a9.777,9.777,0,0,0-2.36.326v6.242Z" transform="translate(-61.167 -313.291)"/><path class="g" d="M84.592,366.784h1.515l2.175,6.041,2.192-6.041h1.489l-2.979,7.748H87.529Z" transform="translate(-62.351 -313.325)"/><path class="g" d="M95.9,364.935v-1.506h1.506v1.5Zm.051,8.953V366.14h1.413v7.748Z" transform="translate(-64.521 -312.681)"/><path class="g" d="M101.159,373.6a5.256,5.256,0,0,1,0-5.941,3.406,3.406,0,0,1,2.686-1.029,6.129,6.129,0,0,1,2.284.435v1.347a4.927,4.927,0,0,0-2.134-.51h0a2.4,2.4,0,0,0-1.674.552,2.953,2.953,0,0,0-.6,2.175,4.856,4.856,0,0,0,.175,1.422,1.605,1.605,0,0,0,.528.837,1.971,1.971,0,0,0,.719.368,3.6,3.6,0,0,0,.836.091,5.092,5.092,0,0,0,2.167-.493v1.338a6.275,6.275,0,0,1-2.284.427A3.429,3.429,0,0,1,101.159,373.6Z" transform="translate(-65.354 -313.293)"/><path class="g" d="M109.246,370.74q0-4.092,3.422-4.092h0a3.216,3.216,0,0,1,2.511,1.013,3.887,3.887,0,0,1,.928,2.72,8.845,8.845,0,0,1-.042,1.071H110.71a2.009,2.009,0,0,0,2.018,2c.055,0,.111,0,.166-.008a5.616,5.616,0,0,0,2.677-.585v1.288a6.779,6.779,0,0,1-2.7.511h-.05a4.31,4.31,0,0,1-1.255-.176,3.607,3.607,0,0,1-1.122-.56,2.592,2.592,0,0,1-.836-1.214A5.47,5.47,0,0,1,109.246,370.74Zm1.431-.569h3.974a3.389,3.389,0,0,0-.443-1.456,1.436,1.436,0,0,0-.6-.577,1.939,1.939,0,0,0-.937-.218,1.844,1.844,0,0,0-1.439.511,2.921,2.921,0,0,0-.56,1.724Z" transform="translate(-67.083 -313.298)"/><path class="g" d="M119.6,368.936a2.186,2.186,0,0,1,.686-1.632,2.859,2.859,0,0,1,2.092-.677,4.552,4.552,0,0,1,2.074.51v1.231a4.535,4.535,0,0,0-1.9-.469c-1.021,0-1.539.335-1.539,1,0,.217.142.394.41.536a4.752,4.752,0,0,0,.987.376c.385.109.77.243,1.155.394a2.39,2.39,0,0,1,.987.778,2.293,2.293,0,0,1-.293,2.962,3.028,3.028,0,0,1-2.175.677,4.6,4.6,0,0,1-2.234-.544v-1.3a4.314,4.314,0,0,0,2.142.569h0a2,2,0,0,0,1.13-.267.838.838,0,0,0,.394-.686.9.9,0,0,0-.411-.77,3.091,3.091,0,0,0-.987-.452c-.385-.108-.778-.225-1.164-.36a2.341,2.341,0,0,1-.987-.669A1.774,1.774,0,0,1,119.6,368.936Z" transform="translate(-69.069 -313.293)"/><path class="d" d="M86.82,343.216a1.141,1.141,0,0,1-.611-.167l-18.165-4.377a1.229,1.229,0,0,1-.619-1.063V306.868a1.253,1.253,0,0,1,.619-1.071l18.165-3.933a1.222,1.222,0,0,1,1.222,0L105.6,305.8a1.239,1.239,0,0,1,.619,1.071v30.741a1.214,1.214,0,0,1-.619,1.063l-18.166,4.377A1.137,1.137,0,0,1,86.82,343.216Z" transform="translate(-59.057 -300.835)"/><path class="a" d="M86.754,343.846c-.217,0-19.052-4.46-19.052-4.46a1.246,1.246,0,0,1-.619-1.079V305.742a1.247,1.247,0,0,1,.619-1.08s18.835-4.033,19.052-4.033,19.052,4.033,19.052,4.033a1.254,1.254,0,0,1,.628,1.08V338.3a1.254,1.254,0,0,1-.628,1.08S86.972,343.846,86.754,343.846Zm-17.178-6.259,17.178,3.564,17.178-3.564V306.461l-17.178-3.723-17.178,3.723Z" transform="translate(-58.991 -300.629)"/><path class="a" d="M86.754,312.627a1.243,1.243,0,0,1-.619-.167l-18.408-3.874a1.247,1.247,0,0,1,1.2-2.185l.045.026,17.805,3.514,17.806-3.514a1.247,1.247,0,0,1,1.292,2.133l-.045.027-18.408,3.874A1.286,1.286,0,0,1,86.754,312.627Z" transform="translate(-58.991 -301.707)"/><path class="a" d="M91.13,345.024a1.246,1.246,0,0,1-1.246-1.247V312.819a1.255,1.255,0,1,1,2.51,0v30.959a1.247,1.247,0,0,1-1.247,1.247Z" transform="translate(-63.367 -302.728)"/></g><g transform="translate(58.047 170.683)"><path class="g" d="M73.139,273.161,77.264,262.8h1.414l4.108,10.359H81.23l-1.1-2.928H75.8l-1.113,2.9Zm3.18-4.259h3.288l-1.674-4.293Z" transform="translate(-68.404 -211.661)"/><path class="g" d="M87.263,273.159V262.8h3.732a3.864,3.864,0,0,1,2.677.836,3.53,3.53,0,0,1,0,4.811,3.868,3.868,0,0,1-2.677.837H88.71v3.84Zm1.447-5.113h2.15a2.408,2.408,0,0,0,1.85-.536,2.434,2.434,0,0,0,0-2.87,2.4,2.4,0,0,0-1.85-.536H88.71Z" transform="translate(-71.114 -211.658)"/><path class="g" d="M98.725,273.161V262.8h1.448v10.359Z" transform="translate(-73.314 -211.661)"/><path class="g" d="M103.115,268.184a2.18,2.18,0,0,1,.686-1.632,2.87,2.87,0,0,1,2.091-.678,4.548,4.548,0,0,1,2.075.511v1.23a4.547,4.547,0,0,0-1.9-.469c-1.021,0-1.54.335-1.54,1,0,.217.143.394.411.536a4.788,4.788,0,0,0,.987.377c.385.108.769.242,1.155.393a2.383,2.383,0,0,1,.987.778,2.293,2.293,0,0,1-.293,2.962,3.032,3.032,0,0,1-2.175.678,4.61,4.61,0,0,1-2.234-.544v-1.3a4.32,4.32,0,0,0,2.142.569h0a2.011,2.011,0,0,0,1.13-.268.834.834,0,0,0,.393-.686.9.9,0,0,0-.41-.769,3.06,3.06,0,0,0-.987-.452c-.385-.109-.778-.226-1.163-.36a2.334,2.334,0,0,1-.987-.669A1.774,1.774,0,0,1,103.115,268.184Z" transform="translate(-74.156 -212.249)"/><path class="d" d="M87.018,242.1a1.235,1.235,0,0,1-.611-.159l-18.165-4.376a1.247,1.247,0,0,1-.611-1.072V205.754a1.221,1.221,0,0,1,.611-1.063l18.165-3.941a1.237,1.237,0,0,1,1.23,0l18.166,3.941a1.223,1.223,0,0,1,.611,1.063v30.783a1.247,1.247,0,0,1-.611,1.071l-18.166,4.377A1.246,1.246,0,0,1,87.018,242.1Z" transform="translate(-67.347 -199.721)"/><path class="a" d="M86.95,242.724c-.209,0-19.044-4.46-19.044-4.46a1.231,1.231,0,0,1-.627-1.08V204.636a1.246,1.246,0,0,1,.627-1.088s18.835-4.033,19.044-4.033S106,203.548,106,203.548a1.247,1.247,0,0,1,.628,1.088v32.532a1.229,1.229,0,0,1-.628,1.08S87.168,242.724,86.95,242.724Zm-17.178-6.259L86.95,240.03l17.186-3.564V205.372L86.95,201.64l-17.178,3.732Z" transform="translate(-67.279 -199.515)"/><path class="a" d="M86.956,211.513a1.278,1.278,0,0,1-.619-.167l-18.408-3.874a1.249,1.249,0,0,1,1.255-2.159l17.8,3.514,17.805-3.514a1.247,1.247,0,0,1,1.292,2.133c-.015.01-.03.018-.045.027l-18.408,3.874A1.284,1.284,0,0,1,86.956,211.513Z" transform="translate(-67.284 -200.593)"/><path class="a" d="M91.326,243.9a1.247,1.247,0,0,1-1.247-1.247V211.643a1.255,1.255,0,0,1,2.511,0h0V242.6a1.247,1.247,0,0,1-1.2,1.3C91.371,243.9,91.349,243.9,91.326,243.9Z" transform="translate(-71.655 -201.602)"/></g><g transform="translate(31.87 88.667)"><path class="g" d="M34.885,172.014V161.655h3.347a4.748,4.748,0,0,1,3.623,1.322,6.694,6.694,0,0,1,0,7.723,4.744,4.744,0,0,1-3.623,1.314Zm1.448-1.28h1.632a3.643,3.643,0,0,0,2.778-.937,5.391,5.391,0,0,0,0-5.924,3.65,3.65,0,0,0-2.778-.945H36.333Z" transform="translate(-34.885 -110.23)"/><path class="g" d="M46.9,170.154a2.057,2.057,0,0,1,.971-1.8,4.815,4.815,0,0,1,2.677-.644,10.765,10.765,0,0,1,1.406.092,1.853,1.853,0,0,0-.536-1.4,2.4,2.4,0,0,0-1.6-.427,6.582,6.582,0,0,0-2.141.385V165.15a6.584,6.584,0,0,1,2.343-.419,3.515,3.515,0,0,1,2.51.837,3.181,3.181,0,0,1,.837,2.41v2.234a2.415,2.415,0,0,1-.051.494,2.8,2.8,0,0,1-.234.636,2.226,2.226,0,0,1-.5.677,2.762,2.762,0,0,1-.962.494,4.666,4.666,0,0,1-1.473.209,4.808,4.808,0,0,1-1.506-.217,2.828,2.828,0,0,1-.971-.5,2.195,2.195,0,0,1-.519-.687,3.089,3.089,0,0,1-.242-.652A3.59,3.59,0,0,1,46.9,170.154Zm1.414,0c0,.837.627,1.314,1.866,1.314h0c1.171,0,1.757-.419,1.757-1.264v-1.247a9.884,9.884,0,0,0-1.347-.1,3.688,3.688,0,0,0-.653.059,4.527,4.527,0,0,0-.728.175,1.543,1.543,0,0,0-.652.4.962.962,0,0,0-.242.644Z" transform="translate(-37.189 -110.821)"/><path class="g" d="M56.309,165.555v-1.213h1.355v-2.3h1.414v2.3h2.058v1.213H59.078V170c0,.6.385.9,1.147.9h0a1.681,1.681,0,0,0,.9-.226v1.28a2.8,2.8,0,0,1-1.055.218h-.042a3.124,3.124,0,0,1-.594-.067,3.479,3.479,0,0,1-.761-.268,1.666,1.666,0,0,1-.736-.694,2.425,2.425,0,0,1-.284-1.23v-4.393Z" transform="translate(-38.997 -110.306)"/><path class="g" d="M64.075,170.154a2.031,2.031,0,0,1,.971-1.8,4.815,4.815,0,0,1,2.677-.644,10.767,10.767,0,0,1,1.406.092,1.886,1.886,0,0,0-.536-1.4,2.408,2.408,0,0,0-1.6-.427,6.582,6.582,0,0,0-2.141.385V165.15a6.54,6.54,0,0,1,2.335-.419,3.548,3.548,0,0,1,2.51.837,3.18,3.18,0,0,1,.878,2.41v2.234a2.414,2.414,0,0,1-.05.494,2.759,2.759,0,0,1-.234.636,2.12,2.12,0,0,1-.511.677,2.647,2.647,0,0,1-.954.494,4.692,4.692,0,0,1-1.481.209,4.75,4.75,0,0,1-1.5-.217,2.752,2.752,0,0,1-.971-.5,2.547,2.547,0,0,1-.8-1.85Zm1.414,0c0,.837.619,1.314,1.857,1.314h0c1.172,0,1.758-.419,1.758-1.264v-1.247a10.015,10.015,0,0,0-1.347-.1,3.609,3.609,0,0,0-.653.059,4.876,4.876,0,0,0-.736.175,1.455,1.455,0,0,0-.644.4.922.922,0,0,0-.259.644Z" transform="translate(-40.487 -110.822)"/><path class="g" d="M80.91,164.424a2.786,2.786,0,0,1,.836-2.067,3.834,3.834,0,0,1,2.736-.836,5.95,5.95,0,0,1,2.669.627v1.406a4.7,4.7,0,0,0-2.51-.686c-1.564,0-2.343.519-2.343,1.564a.9.9,0,0,0,.41.736,3.224,3.224,0,0,0,1.021.5c.4.126.837.284,1.322.486a13.043,13.043,0,0,1,1.331.636,2.785,2.785,0,0,1,1.013.987,2.755,2.755,0,0,1,.41,1.514,2.451,2.451,0,0,1-.987,2.075,4.537,4.537,0,0,1-2.752.744,7.005,7.005,0,0,1-3.08-.744V169.9a5.622,5.622,0,0,0,2.954.879c1.606,0,2.419-.494,2.419-1.473a1.5,1.5,0,0,0-.411-1.071,2.315,2.315,0,0,0-1.012-.644l-1.331-.453c-.485-.167-.928-.335-1.33-.51a2.506,2.506,0,0,1-1.013-.837A2.186,2.186,0,0,1,80.91,164.424Z" transform="translate(-43.717 -110.204)"/><path class="g" d="M90.458,165.555v-1.213h1.347v-2.3h1.422v2.3h2.058v1.213H93.227V170c0,.6.377.9,1.138.9h0a1.68,1.68,0,0,0,.9-.226v1.28a2.842,2.842,0,0,1-1.063.218h0a3.144,3.144,0,0,1-.6-.067,3.689,3.689,0,0,1-.761-.268,1.673,1.673,0,0,1-.728-.694,2.428,2.428,0,0,1-.293-1.23v-4.393Z" transform="translate(-45.55 -110.306)"/><path class="g" d="M98.617,172.6v-7.112a10.124,10.124,0,0,1,3.774-.778v1.305a9.634,9.634,0,0,0-2.352.326v6.242Z" transform="translate(-47.116 -110.819)"/><path class="g" d="M104.623,168.845q0-4.092,3.413-4.092h0a3.233,3.233,0,0,1,2.511,1.013,3.886,3.886,0,0,1,.928,2.719v1.072H106.12a2.009,2.009,0,0,0,2.017,2c.056,0,.112,0,.167-.008a5.648,5.648,0,0,0,2.677-.586v1.289a6.835,6.835,0,0,1-2.711.51h0a4.281,4.281,0,0,1-1.263-.175,3.7,3.7,0,0,1-1.122-.561,2.647,2.647,0,0,1-.836-1.213A5.3,5.3,0,0,1,104.623,168.845Zm1.422-.57h4.016a4.141,4.141,0,0,0-.134-.736,3.474,3.474,0,0,0-.309-.719,1.538,1.538,0,0,0-.6-.578,1.982,1.982,0,0,0-.945-.217,1.824,1.824,0,0,0-1.431.511,2.909,2.909,0,0,0-.594,1.724Z" transform="translate(-48.269 -110.826)"/><path class="g" d="M114.853,170.154a2.059,2.059,0,0,1,.971-1.8,4.837,4.837,0,0,1,2.677-.644,11.171,11.171,0,0,1,1.414.092,1.882,1.882,0,0,0-.535-1.4,2.419,2.419,0,0,0-1.6-.427,6.639,6.639,0,0,0-2.15.385V165.15a6.623,6.623,0,0,1,2.343-.419,3.515,3.515,0,0,1,2.51.837,3.178,3.178,0,0,1,.887,2.41v2.234a2.414,2.414,0,0,1-.05.494,2.9,2.9,0,0,1-.242.636,1.994,1.994,0,0,1-.5.677,2.689,2.689,0,0,1-.962.494,4.6,4.6,0,0,1-1.473.209,4.749,4.749,0,0,1-1.5-.217,2.806,2.806,0,0,1-.979-.5,2.335,2.335,0,0,1-.519-.687,2.631,2.631,0,0,1-.234-.652A2.71,2.71,0,0,1,114.853,170.154Zm1.422,0c0,.837.619,1.314,1.858,1.314h0c1.172,0,1.757-.419,1.757-1.264v-1.247a10.015,10.015,0,0,0-1.347-.1,3.6,3.6,0,0,0-.652.059,4.91,4.91,0,0,0-.737.175,1.543,1.543,0,0,0-.652.4.962.962,0,0,0-.226.644Z" transform="translate(-50.232 -110.821)"/><path class="g" d="M125.415,172.6V165.49a7.1,7.1,0,0,1,3.221-.778,3.468,3.468,0,0,1,2.066.586,7.749,7.749,0,0,1,2.845-.586,3.248,3.248,0,0,1,2.259.778,2.784,2.784,0,0,1,.836,2.133v5.021h-1.422v-5.079a1.674,1.674,0,0,0-.326-1.08,1.563,1.563,0,0,0-1.272-.41,5.387,5.387,0,0,0-2.083.435,3.081,3.081,0,0,1,.184,1.1v5.02H130.3v-5.07a1.5,1.5,0,0,0-.36-1.072,1.914,1.914,0,0,0-1.43-.393,6.3,6.3,0,0,0-1.674.234v6.3Z" transform="translate(-52.259 -110.818)"/><path class="g" d="M141.774,167.04a2.217,2.217,0,0,1,.686-1.632,2.879,2.879,0,0,1,2.1-.678,4.553,4.553,0,0,1,2.066.511v1.23a4.52,4.52,0,0,0-1.891-.469c-1.03,0-1.539.335-1.539,1,0,.217.133.393.41.535a4.509,4.509,0,0,0,.979.377c.385.109.769.242,1.154.394a2.327,2.327,0,0,1,.987.778,2.274,2.274,0,0,1-.284,2.962,3.045,3.045,0,0,1-2.183.678,4.6,4.6,0,0,1-2.234-.544v-1.3a4.326,4.326,0,0,0,2.15.569h0a2.057,2.057,0,0,0,1.138-.267.837.837,0,0,0,.385-.686.922.922,0,0,0-.4-.77,3.268,3.268,0,0,0-.987-.452c-.394-.109-.778-.226-1.163-.36a2.235,2.235,0,0,1-.987-.67A1.739,1.739,0,0,1,141.774,167.04Z" transform="translate(-55.398 -110.821)"/><path class="d" d="M86.6,140.6a1.218,1.218,0,0,1-.611-.159l-18.165-4.376a1.239,1.239,0,0,1-.611-1.072V104.249a1.221,1.221,0,0,1,.611-1.063l18.165-3.933a1.208,1.208,0,0,1,1.231,0l18.157,3.933a1.214,1.214,0,0,1,.619,1.063V134.99a1.231,1.231,0,0,1-.619,1.072l-18.157,4.376A1.271,1.271,0,0,1,86.6,140.6Z" transform="translate(-41.089 -98.224)"/><path class="a" d="M86.531,141.22c-.217,0-19.052-4.46-19.052-4.46a1.238,1.238,0,0,1-.619-1.08V103.132a1.229,1.229,0,0,1,.619-1.079S86.314,98.02,86.531,98.02s19.052,4.033,19.052,4.033a1.237,1.237,0,0,1,.628,1.079v32.549a1.246,1.246,0,0,1-.628,1.08S86.749,141.22,86.531,141.22Zm-17.186-6.259,17.178,3.573,17.178-3.573v-31.11L86.523,100.12l-17.178,3.732Z" transform="translate(-41.021 -98.02)"/><path class="a" d="M86.542,110.007a1.252,1.252,0,0,1-.619-.167l-18.408-3.874a1.247,1.247,0,0,1,1.247-2.159l17.805,3.514,17.806-3.514a1.247,1.247,0,0,1,1.292,2.133l-.045.027-18.408,3.874A1.287,1.287,0,0,1,86.542,110.007Z" transform="translate(-41.032 -99.096)"/><path class="a" d="M90.907,142.4a1.246,1.246,0,0,1-1.246-1.247V110.2a1.255,1.255,0,0,1,2.51,0v30.959a1.238,1.238,0,0,1-1.23,1.247Z" transform="translate(-45.397 -100.116)"/></g><g transform="translate(259.824 181.457)"><circle class="b" cx="60.075" cy="60.075" r="60.075"/><path class="d" d="M361.775,298.839S350.45,316.014,372.7,319.481c2.147.28,18.292,1.948,22.451,7.224,0,0-.381-9.124-13.472-14.491S363.224,305.521,361.775,298.839Z" transform="translate(-325.02 -229.35)"/><path class="d" d="M372.62,253.156s-31.667,19.322-1.83,38.515c5.759,3.714,26.567,14.142,25.956,23.712,0,0,12.608-18.7-5.813-30.411C371.982,272.9,367.236,260.1,372.62,253.156Z" transform="translate(-324.847 -220.583)"/><path class="d" d="M409.51,268.365c-13.563-14.217-17.331-23-11.535-34.377,0,0-40.522,15.592-.537,43.254,14.331,9.908,11.931,20,11.942,20.4C411.661,295.281,423.072,282.588,409.51,268.365Z" transform="translate(-329.034 -216.904)"/></g></g></svg>