<svg xmlns="http://www.w3.org/2000/svg" width="566" height="403.249" viewBox="0 0 566 403.249"><defs><style>.a{fill:#777;}.b{fill:#efeeed;}.c{fill:#020202;}.d{fill:#1d1d1b;}.e{fill:#fff;}.f{fill:#e5282a;}.g{isolation:isolate;}</style></defs><g transform="translate(-47.177 -40.872)"><path class="a" d="M374.045,237.956l-6.568-7.68a1.807,1.807,0,0,0-2.551-.16,1.72,1.72,0,0,0-.16.16l-6.569,7.68a1.807,1.807,0,1,0,2.711,2.331l3.438-4.022v20.15H336.371a1.8,1.8,0,0,0-2.7,1.794v18.184L318.69,291.373l.409-5.248a1.807,1.807,0,0,0-3.573-.276l-.787,10.08a1.992,1.992,0,0,0,0,.243,1.807,1.807,0,0,0,1.925,1.681l10.066-.782a1.808,1.808,0,0,0,1.129-.519l.014,0a1.808,1.808,0,0,0-1.405-3.054l-5.239.409,14.984-14.988a1.8,1.8,0,0,0,1.043-1.875V260h28.67a2.767,2.767,0,0,0,2-1.789v-21.9l3.4,3.975a1.807,1.807,0,0,0,3.163-1.165h.009A1.809,1.809,0,0,0,374.045,237.956Z" transform="translate(-47.189 -33.297)"/><g transform="translate(172.006 196.367)"><path class="a" d="M198.736,241.145v0Z" transform="translate(-198.736 -231.687)"/><path class="a" d="M257.706,285.854a1.807,1.807,0,1,0-3.569.275l.409,5.249-14.988-14.984V258.209a1.8,1.8,0,0,0-2.7-1.794H208.882V236.27l3.42,4.018a1.807,1.807,0,0,0,2.711-2.331l-6.569-7.68a1.826,1.826,0,0,0-.16-.16,1.807,1.807,0,0,0-2.551.16l-6.568,7.68a1.793,1.793,0,0,0,2.733,2.322l3.4-3.98v21.569c-.007.035-.019.066-.024.1A1.807,1.807,0,0,0,206.829,260a1.78,1.78,0,0,0,.477,0h28.67v17.041a1.8,1.8,0,0,0,1.034,1.87l15,15-5.238-.409a1.807,1.807,0,0,0-1.405,3.054h0a1.81,1.81,0,0,0,1.13.519l10.079.782a1.807,1.807,0,0,0,1.925-1.681,1.992,1.992,0,0,0,0-.243Z" transform="translate(-198.736 -229.664)"/></g><rect class="b" width="404.953" height="141.574" rx="7.624" transform="translate(47.177 40.872)"/><rect class="c" width="324.446" height="108.859" transform="translate(112.001 58.588)"/><path class="a" d="M75.283,107.251a16.038,16.038,0,0,0,21.124-4.918,1.239,1.239,0,0,0-.339-1.719.911.911,0,0,0-.08-.049h0a1.233,1.233,0,0,0-1.62.381,13.553,13.553,0,1,1-6.454-20.3l-4.021,2.7a1.233,1.233,0,0,0-.329,1.711h0a1.226,1.226,0,0,0,1.7.343l.01-.007,5.809-3.924a1.2,1.2,0,0,0,.387-.419,1.226,1.226,0,0,0,.071-1.065l-2.478-6.176a1.232,1.232,0,0,0-1.6-.684h0a1.233,1.233,0,0,0-.633,1.581l1.355,3.382a16.012,16.012,0,0,0-12.907,29.139Z" transform="translate(-3.523 -5.674)"/><path class="d" d="M82.415,94.25V92.527l1.936-1.1h1.788V103.24H84.481v-10.2Z" transform="translate(-6.215 -8.917)"/><path class="e" d="M156.9,95.692c0-3.4,2.581-5.344,5.653-5.344a5.164,5.164,0,0,1,3.7,1.484l-.858,1.1a4.174,4.174,0,0,0-2.775-1.148,3.724,3.724,0,0,0-3.942,3.492,3.807,3.807,0,0,0,0,.412,3.679,3.679,0,0,0,3.474,3.873,3.563,3.563,0,0,0,.4,0,4.816,4.816,0,0,0,3.131-1.291l.774,1.129a6.028,6.028,0,0,1-4.027,1.581C159.286,101,156.9,99.061,156.9,95.692Z" transform="translate(-19.352 -8.726)"/><path class="e" d="M172.067,96.959v-6.3H173.8v6.073c0,1.9.646,2.821,2.337,2.821,1.168,0,2.02-.549,3.15-1.859V90.654h1.73V100.8h-1.439l-.142-1.775h-.084a4.946,4.946,0,0,1-3.781,2.02C173.144,101.051,172.067,99.625,172.067,96.959Z" transform="translate(-22.027 -8.78)"/><path class="e" d="M187.08,99.41l.794-1.149a7.24,7.24,0,0,0,4.4,1.375c1.711,0,2.543-.71,2.543-1.562s-.394-1.291-3.15-1.879c-2.653-.542-3.963-1.445-3.963-2.968,0-1.627,1.44-2.879,4.215-2.879a7.623,7.623,0,0,1,4.092,1.291l-.838,1.1a5.978,5.978,0,0,0-3.4-1.065c-1.71,0-2.337.691-2.337,1.465s.878,1.252,2.963,1.684c3.363.736,4.176,1.568,4.176,3.137s-1.607,3.02-4.518,3.02A8.911,8.911,0,0,1,187.08,99.41Z" transform="translate(-24.674 -8.726)"/><path class="e" d="M205.083,96.16v-4.8H202.2V90.074l2.943-.1.226-3.227h1.445v3.227h4.963v1.4h-4.963v4.821c0,1.814.6,2.749,2.582,2.749a6.631,6.631,0,0,0,2.42-.458l.381,1.291a9.033,9.033,0,0,1-3.195.587C206.044,100.361,205.083,98.664,205.083,96.16Z" transform="translate(-27.342 -8.09)"/><path class="e" d="M217.2,95.692A5.016,5.016,0,1,1,222.21,101,4.971,4.971,0,0,1,217.2,95.692Zm8.241,0c0-2.336-1.291-3.9-3.227-3.9s-3.227,1.569-3.227,3.9,1.291,3.873,3.227,3.873S225.443,98.009,225.443,95.692Z" transform="translate(-29.987 -8.726)"/><path class="e" d="M232.356,90.6h1.375l.148,1.336h.039a2.516,2.516,0,0,1,2.317-1.588c1,0,1.627.587,1.936,1.755.587-1.084,1.213-1.755,2.381-1.755,1.42,0,2.253,1.11,2.253,3.131v7.267h-1.711V93.607c0-1.168-.335-1.775-1.084-1.775s-1.085.523-1.627,1.562v7.351H236.8V93.607c0-1.168-.291-1.775-1.046-1.775s-1.168.523-1.665,1.562v7.351h-1.711Z" transform="translate(-32.66 -8.726)"/><path class="e" d="M251.653,87.828h-4.518V86.344h10.81v1.484h-4.518v12.211h-1.775Z" transform="translate(-35.266 -8.02)"/><path class="e" d="M263.308,98.106c0-2.272,2.13-3.382,7.371-3.8a2.43,2.43,0,0,0-2.691-2.581,7.026,7.026,0,0,0-3.55,1.213l-.691-1.168a8.864,8.864,0,0,1,4.518-1.465c2.776,0,4.131,1.652,4.131,4.176v6.222h-1.439l-.148-1.381h-.039a6.829,6.829,0,0,1-3.989,1.626C264.877,100.99,263.308,99.919,263.308,98.106Zm7.371,0V95.472c-4.343.335-5.66,1.193-5.66,2.529,0,1.149,1.045,1.608,2.214,1.608a5.528,5.528,0,0,0,3.446-1.524Z" transform="translate(-38.118 -8.719)"/><path class="e" d="M278.283,99.41l.794-1.149a7.249,7.249,0,0,0,4.4,1.375c1.716,0,2.549-.71,2.549-1.562s-.4-1.291-3.15-1.879-3.969-1.445-3.969-2.968c0-1.627,1.439-2.879,4.215-2.879a7.588,7.588,0,0,1,4.092,1.291l-.833,1.1a6.016,6.016,0,0,0-3.4-1.065c-1.711,0-2.337.691-2.337,1.465s.871,1.252,2.963,1.684c3.355.736,4.169,1.568,4.169,3.137s-1.6,3.02-4.518,3.02A8.952,8.952,0,0,1,278.283,99.41Z" transform="translate(-40.76 -8.726)"/><path class="e" d="M294.347,84.926h1.73V94.968h.084l5.447-5.324h1.982l-7.512,7.39v2.756h-1.73Zm3.9,9.474,1.039-1.123,4.847,6.512H302.2Z" transform="translate(-43.593 -7.77)"/><path class="e" d="M312.439,100.771a1.683,1.683,0,1,1,0,.1Q312.437,100.82,312.439,100.771Z" transform="translate(-46.783 -10.281)"/><path class="e" d="M325.76,90.6H327.2l.168,2.4h.045a5.338,5.338,0,0,1,4.518-2.653,4.246,4.246,0,0,1,2.007.419l-.4,1.485a5.028,5.028,0,0,0-1.878-.336c-1.523,0-2.963.768-4.169,2.9v5.931h-1.736Z" transform="translate(-49.132 -8.725)"/><path class="e" d="M339.239,96.959v-6.3h1.716v6.073c0,1.9.646,2.821,2.337,2.821,1.168,0,2.026-.549,3.15-1.859V90.654h1.736V100.8h-1.413l-.142-1.775h-.084a5.038,5.038,0,0,1-3.788,2.026C340.349,101.051,339.239,99.625,339.239,96.959Z" transform="translate(-51.51 -8.78)"/><path class="e" d="M354.848,90.605h1.42l.142,1.71h.084a5.238,5.238,0,0,1,3.821-1.936c2.4,0,3.5,1.42,3.5,4.092v6.306h-1.73v-6.1c0-1.936-.646-2.82-2.317-2.82-1.213,0-2.027.606-3.195,1.814v7.1h-1.73Z" transform="translate(-54.263 -8.731)"/><path class="e" d="M372.965,93.9a11.615,11.615,0,0,1,4.672-9.474l.962.871a11.081,11.081,0,0,0,0,17.2l-.962.877A11.616,11.616,0,0,1,372.965,93.9Z" transform="translate(-57.458 -7.681)"/><path class="e" d="M388.44,100.771a1.683,1.683,0,1,1,0,.086C388.438,100.828,388.439,100.8,388.44,100.771Z" transform="translate(-60.187 -10.281)"/><path class="e" d="M403.642,100.771a1.684,1.684,0,1,1,0,.086C403.64,100.828,403.641,100.8,403.642,100.771Z" transform="translate(-62.869 -10.281)"/><path class="e" d="M418.843,100.771a1.683,1.683,0,1,1,0,.1Q418.841,100.82,418.843,100.771Z" transform="translate(-65.549 -10.281)"/><path class="e" d="M431.586,102.5a11.082,11.082,0,0,0,0-17.2l.961-.871a11.94,11.94,0,0,1,0,18.948Z" transform="translate(-67.797 -7.681)"/><path class="a" d="M75.266,173.223a16.045,16.045,0,0,0,21.124-4.911,1.232,1.232,0,0,0-.336-1.711c-.027-.018-.054-.035-.083-.052h0a1.226,1.226,0,0,0-1.62.381,13.553,13.553,0,1,1-6.454-20.3l-4.021,2.7a1.226,1.226,0,0,0-.329,1.7v0h0a1.232,1.232,0,0,0,1.71.329l5.809-3.924a1.186,1.186,0,0,0,.387-.413,1.234,1.234,0,0,0,.071-1.065l-2.478-6.176a1.232,1.232,0,0,0-1.6-.69h0a1.24,1.24,0,0,0-.684,1.607l1.356,3.375a16.013,16.013,0,0,0-12.908,29.147Z" transform="translate(-3.506 -17.309)"/><path class="d" d="M82.008,168.63V167a5.727,5.727,0,0,0,2.892.8q2.923,0,2.923-2.085t-3.1-2.078H83.7v-1.452h.994q2.543,0,2.581-1.723c0-1.156-.845-1.73-2.524-1.73h0a4.924,4.924,0,0,0-2.407.6v-1.575a5.973,5.973,0,0,1,2.582-.561h.039a4.165,4.165,0,0,1,3.033.955,3.105,3.105,0,0,1,.974,2.311,2.584,2.584,0,0,1-1.407,2.362,2.98,2.98,0,0,1,1.91,2.884,3.394,3.394,0,0,1-.988,2.433,3.5,3.5,0,0,1-1.394.839,6.442,6.442,0,0,1-2.059.3A7.227,7.227,0,0,1,82.008,168.63Z" transform="translate(-6.143 -20.513)"/><path class="e" d="M156.9,160.676c0-3.4,2.581-5.344,5.653-5.344a5.161,5.161,0,0,1,3.7,1.484l-.858,1.1a4.174,4.174,0,0,0-2.775-1.149,3.724,3.724,0,0,0-3.94,3.495c-.007.126-.008.252,0,.378a3.678,3.678,0,0,0,3.474,3.872,3.56,3.56,0,0,0,.4,0,4.816,4.816,0,0,0,3.131-1.291l.774,1.123a6.009,6.009,0,0,1-4.027,1.588C159.286,165.974,156.9,164.032,156.9,160.676Z" transform="translate(-19.352 -20.187)"/><path class="e" d="M172.067,161.936v-6.3h1.73v6.073c0,1.9.645,2.814,2.342,2.814,1.168,0,2.02-.542,3.15-1.858v-7.029h1.73v10.14h-1.439L179.437,164h-.084a4.935,4.935,0,0,1-3.781,2.026C173.144,166.028,172.067,164.608,172.067,161.936Z" transform="translate(-22.027 -20.241)"/><path class="e" d="M187.08,164.386l.794-1.148a7.206,7.206,0,0,0,4.4,1.381c1.711,0,2.543-.71,2.543-1.569s-.394-1.291-3.15-1.878c-2.653-.542-3.963-1.439-3.963-2.963,0-1.626,1.44-2.878,4.215-2.878a7.67,7.67,0,0,1,4.092,1.291l-.838,1.11a5.978,5.978,0,0,0-3.4-1.065c-1.71,0-2.337.69-2.337,1.459,0,.877.878,1.252,2.963,1.691,3.363.729,4.176,1.568,4.176,3.13s-1.607,3.027-4.518,3.027A8.863,8.863,0,0,1,187.08,164.386Z" transform="translate(-24.674 -20.187)"/><path class="e" d="M205.083,161.145v-4.789H202.2v-1.291l2.943-.1.226-3.227h1.44v3.227h4.969v1.394h-4.969v4.822c0,1.82.606,2.756,2.581,2.756a6.662,6.662,0,0,0,2.42-.458l.375,1.291a8.787,8.787,0,0,1-3.169.606C206.044,165.34,205.083,163.649,205.083,161.145Z" transform="translate(-27.342 -19.553)"/><path class="e" d="M217.2,160.676a5.016,5.016,0,1,1,5.008,5.3A4.97,4.97,0,0,1,217.2,160.676Zm8.241,0c0-2.337-1.291-3.873-3.227-3.873s-3.227,1.568-3.227,3.873,1.291,3.872,3.227,3.872S225.443,162.993,225.443,160.676Z" transform="translate(-29.987 -20.187)"/><path class="e" d="M232.349,155.583h1.381l.142,1.336h.045a2.516,2.516,0,0,1,2.317-1.587c1,0,1.627.581,1.936,1.755.587-1.09,1.213-1.755,2.381-1.755,1.42,0,2.253,1.1,2.253,3.13v7.261h-1.711v-7.138c0-1.168-.335-1.768-1.084-1.768s-1.085.516-1.627,1.562v7.345H236.8v-7.138c0-1.168-.291-1.768-1.046-1.768s-1.168.516-1.665,1.562v7.345h-1.717Z" transform="translate(-32.658 -20.187)"/><path class="e" d="M251.653,152.812h-4.518v-1.485h10.81v1.485h-4.518v12.2h-1.775Z" transform="translate(-35.266 -19.481)"/><path class="e" d="M263.308,163.1c0-2.278,2.13-3.382,7.371-3.8a2.406,2.406,0,0,0-2.691-2.543,7.094,7.094,0,0,0-3.55,1.207l-.691-1.168a8.922,8.922,0,0,1,4.518-1.459c2.776,0,4.131,1.646,4.131,4.175v6.216h-1.439l-.148-1.375h-.039a6.824,6.824,0,0,1-3.989,1.627C264.877,165.974,263.308,164.909,263.308,163.1Zm7.371,0v-2.633c-4.343.336-5.66,1.188-5.66,2.524,0,1.149,1.045,1.607,2.214,1.607a5.552,5.552,0,0,0,3.446-1.516Z" transform="translate(-38.118 -20.187)"/><path class="e" d="M278.283,164.386l.794-1.148a7.224,7.224,0,0,0,4.4,1.381c1.71,0,2.549-.71,2.549-1.569s-.4-1.291-3.15-1.878-3.969-1.439-3.969-2.963c0-1.626,1.439-2.878,4.215-2.878a7.625,7.625,0,0,1,4.092,1.291l-.833,1.11a6,6,0,0,0-3.4-1.065c-1.711,0-2.337.69-2.337,1.459,0,.877.871,1.252,2.963,1.691,3.355.729,4.169,1.568,4.169,3.13s-1.607,3.027-4.518,3.027A8.9,8.9,0,0,1,278.283,164.386Z" transform="translate(-40.76 -20.187)"/><path class="e" d="M294.347,149.909h1.73v10.036h.084l5.447-5.318h1.982l-7.512,7.384v2.756h-1.73Zm3.9,9.474,1.039-1.129,4.847,6.512H302.2Z" transform="translate(-43.593 -19.231)"/><path class="e" d="M312.439,165.754a1.683,1.683,0,1,1,0,.08C312.437,165.808,312.438,165.78,312.439,165.754Z" transform="translate(-46.783 -21.742)"/><path class="e" d="M325.76,155.583H327.2l.168,2.4h.045a5.335,5.335,0,0,1,4.518-2.652,4.226,4.226,0,0,1,2.007.419l-.4,1.478a5.166,5.166,0,0,0-1.878-.335c-1.523,0-2.963.774-4.169,2.9v5.925h-1.736Z" transform="translate(-49.132 -20.186)"/><path class="e" d="M339.011,160.63a5.1,5.1,0,0,1,4.894-5.3c.09,0,.179,0,.268,0,2.924,0,4.635,1.9,4.635,4.756a7.654,7.654,0,0,1-.084,1.045h-8.565V159.8h7.558l-.439.478c0-2.4-1.193-3.589-3.046-3.589s-3.511,1.42-3.511,3.944a3.682,3.682,0,0,0,3.969,3.969,5.55,5.55,0,0,0,3.085-.961l.645,1.129a6.959,6.959,0,0,1-3.924,1.207A5.14,5.14,0,0,1,339.011,160.63Z" transform="translate(-51.469 -20.187)"/><path class="e" d="M354.01,159.719c0-3.3,2.194-5.344,4.6-5.344a4.349,4.349,0,0,1,3.046,1.291h.039l-.083-1.852v-3.9h1.735v14.844h-1.42l-.148-1.336h-.064A4.861,4.861,0,0,1,358.392,165C355.765,165.018,354.01,163.133,354.01,159.719Zm7.622,2.336V157a3.772,3.772,0,0,0-2.646-1.168c-1.755,0-3.175,1.548-3.175,3.872,0,2.421,1.129,3.873,2.982,3.873A3.828,3.828,0,0,0,361.632,162.055Z" transform="translate(-54.115 -19.231)"/><path class="e" d="M369.642,161.936v-6.3h1.73v6.073c0,1.9.646,2.814,2.343,2.814,1.168,0,2.02-.542,3.15-1.858v-7.029h1.723v10.14h-1.439L377.006,164h-.084a4.935,4.935,0,0,1-3.782,2.026C370.746,166.028,369.642,164.608,369.642,161.936Z" transform="translate(-56.872 -20.241)"/><path class="e" d="M384.922,160.676c0-3.4,2.582-5.344,5.654-5.344a5.121,5.121,0,0,1,3.692,1.484l-.852,1.1a4.188,4.188,0,0,0-2.776-1.149,3.724,3.724,0,0,0-3.939,3.495,3.617,3.617,0,0,0,0,.378,3.679,3.679,0,0,0,3.475,3.872,3.56,3.56,0,0,0,.4,0,4.814,4.814,0,0,0,3.13-1.291l.775,1.123a6.01,6.01,0,0,1-4.028,1.588C387.3,165.974,384.922,164.032,384.922,160.676Z" transform="translate(-59.567 -20.187)"/><path class="e" d="M399.818,160.63a5.092,5.092,0,0,1,4.881-5.3c.094,0,.188,0,.282,0,2.917,0,4.635,1.9,4.635,4.756a7.65,7.65,0,0,1-.084,1.045h-8.565V159.8h7.551l-.438.478c0-2.4-1.188-3.589-3.047-3.589s-3.5,1.42-3.5,3.944a3.681,3.681,0,0,0,3.962,3.969,5.55,5.55,0,0,0,3.092-.961l.645,1.129a6.973,6.973,0,0,1-3.924,1.207A5.14,5.14,0,0,1,399.818,160.63Z" transform="translate(-62.194 -20.187)"/><path class="e" d="M418.562,158.874a11.617,11.617,0,0,1,4.679-9.474l.955.878a11.091,11.091,0,0,0,0,17.2l-.955.871A11.617,11.617,0,0,1,418.562,158.874Z" transform="translate(-65.5 -19.141)"/><path class="e" d="M434.046,165.754a1.7,1.7,0,1,1,0,.086C434.043,165.812,434.044,165.783,434.046,165.754Z" transform="translate(-68.231 -21.742)"/><path class="e" d="M449.247,165.754a1.684,1.684,0,1,1,0,.086Q449.245,165.8,449.247,165.754Z" transform="translate(-70.912 -21.742)"/><path class="e" d="M464.449,165.754a1.683,1.683,0,1,1,0,.086Q464.447,165.8,464.449,165.754Z" transform="translate(-73.593 -21.742)"/><path class="e" d="M477.191,167.477a11.081,11.081,0,0,0,0-17.2l.961-.878a11.938,11.938,0,0,1,0,18.948Z" transform="translate(-75.841 -19.141)"/><path class="f" d="M347.73,477.554s-2.524,3.833,2.446,4.608c.483.064,4.085.439,5.014,1.62,0,0-.09-2.04-3.014-3.227S348.059,479.025,347.73,477.554Z" transform="translate(-52.895 -77.017)"/><path class="f" d="M350.158,467.54s-7.1,4.317-.406,8.6c1.291.833,5.931,3.163,5.808,5.3,0,0,2.814-4.176-1.291-6.8C350.048,471.954,348.958,469.1,350.158,467.54Z" transform="translate(-52.858 -75.25)"/><path class="f" d="M358.311,471.019c-3.033-3.175-3.873-5.163-2.582-7.68,0,0-9.035,3.486-.116,9.681,3.227,2.214,2.665,4.473,2.665,4.557A4.452,4.452,0,0,0,358.311,471.019Z" transform="translate(-53.704 -74.51)"/><g class="g" transform="translate(311.8 395.503)"><g class="g" transform="translate(0 0.109)"><path class="d" d="M368.465,479.61v-8.037h.988l5.013,7.073-.217.337v-7.41h.868v8.037h-.976l-5.205-7.339.4-.373v7.712Z" transform="translate(-368.465 -471.573)"/></g><g class="g" transform="translate(8.554)"><path class="d" d="M382.454,479.707a3.923,3.923,0,0,1-1.994-.464,2.879,2.879,0,0,1-1.2-1.38,5.684,5.684,0,0,1-.4-2.29,4.575,4.575,0,0,1,.909-3.09,3.383,3.383,0,0,1,2.693-1.043,3.961,3.961,0,0,1,2.006.464,2.9,2.9,0,0,1,1.2,1.38,5.7,5.7,0,0,1,.4,2.29,4.578,4.578,0,0,1-.91,3.09A3.4,3.4,0,0,1,382.454,479.707Zm0-.82a3.071,3.071,0,0,0,1.554-.349,2.055,2.055,0,0,0,.886-1.085,6.374,6.374,0,0,0,0-3.753,2.09,2.09,0,0,0-.886-1.085,3.555,3.555,0,0,0-3.1,0,2.089,2.089,0,0,0-.885,1.085,6.357,6.357,0,0,0,0,3.753,2.054,2.054,0,0,0,.885,1.085A3.045,3.045,0,0,0,382.454,478.887Z" transform="translate(-378.851 -471.441)"/></g><g class="g" transform="translate(17.71 0.109)"><path class="d" d="M389.967,479.61v-8.037h2.518a3.7,3.7,0,0,1,2.827,1.007,5.261,5.261,0,0,1,0,6.018,3.689,3.689,0,0,1-2.827,1.012Zm.867-.82h1.591a2.889,2.889,0,0,0,2.241-.772,4.588,4.588,0,0,0,0-4.867,2.889,2.889,0,0,0-2.241-.772h-1.591Z" transform="translate(-389.967 -471.573)"/></g><g class="g" transform="translate(25.725 0.109)"><path class="d" d="M399.7,479.61v-8.037h5.073v.819h-4.205v2.772h3.7v.844h-3.7v2.783h4.205v.82Z" transform="translate(-399.699 -471.573)"/></g></g><path class="e" d="M362.087,327.072c-17.806,0-36.232,4.041-36.232,10.8V424.6a4.013,4.013,0,0,0,.774,2.33,6.957,6.957,0,0,0,.878,1.026c4.608,4.447,18.51,7.442,34.58,7.442s29.992-2.995,34.593-7.435a6.651,6.651,0,0,0,.89-1.033,4.052,4.052,0,0,0,.774-2.33V337.87C398.345,331.113,379.9,327.072,362.087,327.072Z" transform="translate(-49.15 -50.476)"/><path class="f" d="M386.795,328.6a108.813,108.813,0,0,0-49.67,0c-7.874,2.136-12.03,5.163-12.03,8.771V424.62a4.95,4.95,0,0,0,.936,2.852,7.31,7.31,0,0,0,1,1.156c4.724,4.563,18.762,7.635,34.922,7.635s30.217-3.066,34.948-7.635a7.644,7.644,0,0,0,.994-1.156,4.919,4.919,0,0,0,.942-2.852V337.369C398.838,333.774,394.675,330.74,386.795,328.6Zm8.39,96.965a4.351,4.351,0,0,1-.568.645c-4.034,3.873-17.768,6.718-32.664,6.718s-28.6-2.827-32.637-6.718a4.449,4.449,0,0,1-.575-.645,1.718,1.718,0,0,1-.335-.949V342.532a18.435,18.435,0,0,0,2.459,1.4h.039c.452.213.923.426,1.413.645l.123.052c.478.194.975.38,1.491.568l.188.064,1.355.446.426.128q.646.2,1.356.387l.646.168c.438.11.9.226,1.355.329l.794.18c.446.1.9.194,1.355.291l.9.174,1.085.194,1.252.206c.336.058.646.11,1.02.155l1.336.188,1.162.148,1.052.123,1.575.155.8.077,1.936.148.691.045,2.1.11h.523c.762.032,1.529.059,2.31.071h5.783c.775,0,1.543-.039,2.3-.071h.529l2.091-.11.691-.052c.645-.039,1.291-.091,1.936-.142l.813-.077q.775-.065,1.529-.155l1.1-.123,1.142-.148,1.361-.188c.336-.051.646-.1,1-.155l1.291-.206,1.078-.194.91-.174,1.355-.291.787-.18c.465-.11.923-.22,1.368-.336l.6-.161c.484-.129.955-.264,1.42-.4l.342-.11c.491-.148.962-.3,1.42-.465l.142-.051q.807-.284,1.529-.581l.084-.032c.51-.207.988-.419,1.445-.645h0a18.8,18.8,0,0,0,2.478-1.408V424.62a1.68,1.68,0,0,1-.491.949Zm-33.231-96.526c20.8,0,33.561,4.854,33.561,8.332a1.785,1.785,0,0,1-.342.962c-1.459,2.149-6.661,4.343-14.341,5.77h-.064l-.871.155-.91.149h0a107.721,107.721,0,0,1-14.16,1.245h-5.712a107.251,107.251,0,0,1-14.128-1.245h-.071l-.858-.142-.923-.168h0c-7.673-1.432-12.875-3.621-14.34-5.77a1.818,1.818,0,0,1-.342-.968C328.406,333.9,341.172,329.043,361.953,329.043Z" transform="translate(-49.016 -50.24)"/><path class="a" d="M358.673,414.963a18.368,18.368,0,0,0,24.2-5.634,1.406,1.406,0,0,0-.367-1.955c-.034-.023-.068-.045-.1-.065h0a1.413,1.413,0,0,0-1.865.432,15.49,15.49,0,1,1-7.357-23.234l-4.6,3.1a1.413,1.413,0,0,0-.381,1.936h0a1.42,1.42,0,0,0,1.936.381l6.68-4.518a1.349,1.349,0,0,0,.439-.478,1.414,1.414,0,0,0,.084-1.22l-2.84-7.1a1.413,1.413,0,0,0-1.807-.723h0a1.413,1.413,0,0,0-.788,1.837v0l1.556,3.873a18.342,18.342,0,0,0-14.78,33.386Z" transform="translate(-53.293 -59.068)"/><path class="d" d="M364.612,410.338v-1.413c.729-.562,1.439-1.149,2.117-1.768s1.375-1.291,2.085-2.079a11.438,11.438,0,0,0,1.7-2.336,4.6,4.6,0,0,0,.645-2.143q0-2.194-3-2.194a5.811,5.811,0,0,0-3.33,1.02v-1.787a7.029,7.029,0,0,1,3.582-.982,4.674,4.674,0,0,1,3.479,1.156,3.874,3.874,0,0,1,1.123,2.781q0,3.459-5.163,7.99h5.331v1.768Z" transform="translate(-55.985 -62.749)"/><path class="f" d="M182.287,478.024s-2.529,3.827,2.44,4.608c.484.064,4.085.439,5.015,1.614,0,0-.084-2.033-3.008-3.227S182.61,479.515,182.287,478.024Z" transform="translate(-23.715 -77.099)"/><path class="f" d="M184.685,468.01s-7.1,4.311-.406,8.6c1.291.833,5.931,3.163,5.808,5.3,0,0,2.82-4.175-1.291-6.8C184.562,472.424,183.5,469.558,184.685,468.01Z" transform="translate(-23.674 -75.333)"/><path class="f" d="M192.861,471.49c-3.027-3.175-3.872-5.163-2.581-7.68,0,0-9.036,3.485-.116,9.681,3.227,2.213,2.665,4.472,2.665,4.55A4.464,4.464,0,0,0,192.861,471.49Z" transform="translate(-24.524 -74.593)"/><g class="g" transform="translate(175.531 395.89)"><g class="g" transform="translate(0 0.108)"><path class="d" d="M203.016,480.08v-8.038H204l5.013,7.074-.217.337v-7.411h.867v8.038h-.976l-5.205-7.339.4-.374v7.712Z" transform="translate(-203.016 -472.042)"/></g><g class="g" transform="translate(8.553)"><path class="d" d="M217,480.177a3.933,3.933,0,0,1-1.994-.464,2.883,2.883,0,0,1-1.2-1.38,5.684,5.684,0,0,1-.4-2.29,4.58,4.58,0,0,1,.909-3.09A3.384,3.384,0,0,1,217,471.911a3.961,3.961,0,0,1,2.006.464,2.891,2.891,0,0,1,1.2,1.38,5.7,5.7,0,0,1,.4,2.29,4.578,4.578,0,0,1-.909,3.09A3.4,3.4,0,0,1,217,480.177Zm0-.82a3.071,3.071,0,0,0,1.554-.349,2.055,2.055,0,0,0,.886-1.085,6.374,6.374,0,0,0,0-3.753,2.09,2.09,0,0,0-.886-1.085,3.553,3.553,0,0,0-3.1,0,2.086,2.086,0,0,0-.886,1.085,6.374,6.374,0,0,0,0,3.753,2.051,2.051,0,0,0,.886,1.085A3.041,3.041,0,0,0,217,479.357Z" transform="translate(-213.401 -471.911)"/></g><g class="g" transform="translate(17.71 0.108)"><path class="d" d="M224.518,480.08v-8.038h2.518a3.7,3.7,0,0,1,2.826,1.007,5.261,5.261,0,0,1,0,6.018,3.687,3.687,0,0,1-2.826,1.012Zm.867-.82h1.59a2.886,2.886,0,0,0,2.241-.772,4.585,4.585,0,0,0,0-4.868,2.889,2.889,0,0,0-2.241-.771h-1.59Z" transform="translate(-224.518 -472.042)"/></g><g class="g" transform="translate(25.725 0.108)"><path class="d" d="M234.25,480.08v-8.038h5.073v.82h-4.205v2.772h3.7v.844h-3.7v2.783h4.205v.82Z" transform="translate(-234.25 -472.042)"/></g></g><path class="e" d="M208.4,327.542c-17.814,0-36.239,4.041-36.239,10.8v86.728a4.012,4.012,0,0,0,.774,2.329,6.558,6.558,0,0,0,.878,1.02c4.614,4.453,18.509,7.448,34.587,7.448s29.984-2.995,34.586-7.435a6.422,6.422,0,0,0,.891-1.039,3.979,3.979,0,0,0,.774-2.323V338.333C244.651,331.583,226.219,327.542,208.4,327.542Z" transform="translate(-22.043 -50.559)"/><path class="f" d="M233.1,329.059a108.781,108.781,0,0,0-49.663,0c-7.874,2.136-12.037,5.163-12.037,8.771v87.257a4.932,4.932,0,0,0,.936,2.846,7.427,7.427,0,0,0,1,1.161c4.724,4.563,18.762,7.635,34.929,7.635s30.217-3.066,34.941-7.635a8,8,0,0,0,1-1.156,4.962,4.962,0,0,0,.936-2.852V337.843C245.143,334.222,241.006,331.208,233.1,329.059Zm8.39,96.964a4.279,4.279,0,0,1-.568.646c-4.033,3.872-17.767,6.725-32.656,6.725s-28.611-2.827-32.645-6.718a4.546,4.546,0,0,1-.574-.646,1.682,1.682,0,0,1-.336-.942V342.973a18.405,18.405,0,0,0,2.459,1.4h.045c.445.213.916.427,1.407.646l.123.052c.478.194.974.381,1.491.568l.187.065,1.362.445.419.129c.439.136.89.259,1.355.387l.646.161,1.356.336.793.18,1.356.291.9.174,1.09.194,1.246.207,1.02.155,1.343.187,1.161.149,1.046.116,1.574.161.8.071c.646.058,1.291.1,1.936.148l.69.045c.691.045,1.394.084,2.1.116h.523c.761,0,1.529.058,2.31.071H211.2c.774,0,1.543-.045,2.3-.071h.53c.7-.032,1.4-.071,2.1-.116l.684-.045c.646-.045,1.291-.091,1.936-.148l.82-.071,1.523-.156,1.1-.128,1.142-.142,1.362-.187,1-.155,1.291-.207,1.077-.194.91-.18,1.356-.284.787-.18,1.375-.336.594-.161c.483-.128.961-.264,1.42-.4l.348-.11q.729-.226,1.413-.465l.148-.052q.794-.284,1.529-.581h.077c.51-.207.988-.426,1.445-.646h0a18.7,18.7,0,0,0,2.478-1.407v82.082a1.678,1.678,0,0,1-.458.949ZM208.266,329.51c20.794,0,33.561,4.854,33.561,8.333a1.779,1.779,0,0,1-.343.961c-1.459,2.149-6.661,4.344-14.334,5.77h-.072l-.871.155-.91.149h0a105.81,105.81,0,0,1-14.2,1.245h-5.751a106.251,106.251,0,0,1-14.128-1.239h-.065l-.858-.149-.922-.161h0c-7.68-1.426-12.908-3.614-14.341-5.763a1.778,1.778,0,0,1-.348-.968C174.711,334.364,187.477,329.51,208.266,329.51Z" transform="translate(-21.909 -50.32)"/><path class="a" d="M204.967,415.421a18.368,18.368,0,0,0,24.169-5.635,1.406,1.406,0,0,0-.367-1.955c-.033-.023-.068-.044-.1-.065h0a1.414,1.414,0,0,0-1.865.432,15.489,15.489,0,1,1-7.358-23.234l-4.6,3.1a1.415,1.415,0,0,0-.381,1.936h0a1.414,1.414,0,0,0,1.936.387l6.68-4.518a1.419,1.419,0,0,0,.523-1.7l-2.84-7.1a1.414,1.414,0,0,0-1.833-.787h0a1.414,1.414,0,0,0-.787,1.833l1.555,3.873a18.342,18.342,0,0,0-14.779,33.386Z" transform="translate(-26.175 -59.138)"/><path class="d" d="M210.917,410.8v-1.407c.73-.562,1.44-1.149,2.117-1.768s1.375-1.291,2.085-2.078a11.637,11.637,0,0,0,1.7-2.337,4.614,4.614,0,0,0,.646-2.143q0-2.2-3-2.194a5.807,5.807,0,0,0-3.323,1.02v-1.8a6.985,6.985,0,0,1,3.575-.981,4.672,4.672,0,0,1,3.478,1.156,3.871,3.871,0,0,1,1.13,2.775q0,3.465-5.163,8h5.279V410.8Z" transform="translate(-28.878 -62.829)"/><path class="f" d="M264.33,522.908s-2.53,3.834,2.44,4.615c.484.058,4.085.432,5.015,1.613,0,0-.091-2.039-3.014-3.227S264.653,524.4,264.33,522.908Z" transform="translate(-38.185 -85.016)"/><path class="f" d="M266.752,512.9s-7.1,4.311-.407,8.6c1.291.833,5.931,3.163,5.808,5.3,0,0,2.814-4.176-1.291-6.79C266.609,517.31,265.551,514.45,266.752,512.9Z" transform="translate(-38.147 -83.251)"/><path class="f" d="M274.9,516.374c-3.033-3.176-3.873-5.163-2.581-7.68,0,0-9.036,3.485-.116,9.681,3.227,2.214,2.665,4.472,2.665,4.556A4.451,4.451,0,0,0,274.9,516.374Z" transform="translate(-38.994 -82.509)"/><g class="g" transform="translate(243.104 432.864)"><g class="g" transform="translate(0 0.109)"><path class="d" d="M285.059,524.972v-8.037h.988l5.013,7.073-.217.337v-7.41h.867v8.037h-.976l-5.205-7.339.4-.373v7.712Z" transform="translate(-285.059 -516.935)"/></g><g class="g" transform="translate(8.553)"><path class="d" d="M299.047,525.069a3.926,3.926,0,0,1-1.994-.464,2.883,2.883,0,0,1-1.2-1.38,5.684,5.684,0,0,1-.4-2.29,4.58,4.58,0,0,1,.909-3.09,3.384,3.384,0,0,1,2.693-1.043,3.961,3.961,0,0,1,2.006.464,2.891,2.891,0,0,1,1.205,1.38,5.689,5.689,0,0,1,.4,2.29,4.578,4.578,0,0,1-.909,3.09A3.4,3.4,0,0,1,299.047,525.069Zm0-.82a3.069,3.069,0,0,0,1.554-.349,2.055,2.055,0,0,0,.886-1.085,6.374,6.374,0,0,0,0-3.753,2.09,2.09,0,0,0-.886-1.085,3.553,3.553,0,0,0-3.1,0,2.086,2.086,0,0,0-.886,1.085,6.374,6.374,0,0,0,0,3.753,2.051,2.051,0,0,0,.886,1.085A3.041,3.041,0,0,0,299.047,524.249Z" transform="translate(-295.444 -516.803)"/></g><g class="g" transform="translate(17.709 0.109)"><path class="d" d="M306.56,524.972v-8.037h2.519a3.7,3.7,0,0,1,2.826,1.006,5.261,5.261,0,0,1,0,6.018,3.685,3.685,0,0,1-2.826,1.012Zm.868-.82h1.59a2.888,2.888,0,0,0,2.241-.772,4.584,4.584,0,0,0,0-4.867,2.888,2.888,0,0,0-2.241-.772h-1.59Z" transform="translate(-306.56 -516.935)"/></g><g class="g" transform="translate(25.725 0.109)"><path class="d" d="M316.293,524.972v-8.037h5.073v.82H317.16v2.771h3.7v.844h-3.7v2.783h4.205v.82Z" transform="translate(-316.293 -516.935)"/></g></g><path class="e" d="M285.764,372.427c-17.813,0-36.239,4.04-36.239,10.8v86.728a4,4,0,0,0,.774,2.33,7,7,0,0,0,.878,1.026c4.608,4.453,18.51,7.441,34.587,7.441s29.985-2.988,34.587-7.435a6.643,6.643,0,0,0,.89-1.032,4.042,4.042,0,0,0,.774-2.33V383.224C322,376.467,303.564,372.427,285.764,372.427Z" transform="translate(-35.688 -58.476)"/><path class="f" d="M310.445,373.959a108.7,108.7,0,0,0-49.644,0c-7.874,2.136-12.037,5.163-12.037,8.771v87.244a4.95,4.95,0,0,0,.936,2.853,7.683,7.683,0,0,0,1,1.161c4.724,4.563,18.762,7.628,34.929,7.628s30.217-3.066,34.942-7.635a8.038,8.038,0,0,0,1-1.155,4.957,4.957,0,0,0,.937-2.853V382.73C322.488,379.128,318.326,376.095,310.445,373.959Zm8.39,96.964a4.113,4.113,0,0,1-.568.646c-4.033,3.917-17.793,6.75-32.637,6.75s-28.611-2.827-32.644-6.718a4.808,4.808,0,0,1-.575-.646,1.7,1.7,0,0,1-.335-.949V387.86a18.441,18.441,0,0,0,2.459,1.4h.045c.446.212.917.426,1.407.645l.123.052c.478.194.974.387,1.491.568l.188.064q.645.232,1.355.446l.426.128q.646.2,1.356.388l.645.167c.439.116.9.227,1.356.329l.794.187,1.355.284.9.175,1.091.194,1.245.206,1.02.161,1.343.181,1.156.148,1.052.123c.523.052,1.045.11,1.575.155l.8.077,1.936.148.691.045c.69.045,1.394.077,2.1.116h.523c.762.032,1.529.058,2.31.077h.233c.845,0,1.7.032,2.581.032s1.7,0,2.549-.032h.316q1.161,0,2.3-.077h.529c.7-.032,1.4-.064,2.091-.11l.69-.045,1.936-.148.82-.077c.51-.045,1.02-.1,1.524-.155l1.1-.123,1.142-.148,1.361-.188,1-.148,1.291-.212,1.077-.194.91-.174c.459-.1.91-.187,1.356-.291l.787-.174,1.368-.343.6-.155c.483-.135.955-.264,1.42-.406l.342-.11c.491-.148.962-.3,1.42-.465l.142-.045c.536-.194,1.046-.387,1.529-.587l.084-.032c.51-.207.988-.419,1.446-.645h0a18.91,18.91,0,0,0,2.478-1.408v82.107A1.659,1.659,0,0,1,318.836,470.923ZM285.63,374.41c20.794,0,33.561,4.854,33.561,8.333a1.785,1.785,0,0,1-.342.961c-1.459,2.149-6.661,4.344-14.341,5.77h-.064l-.871.155-.91.156h0A107.97,107.97,0,0,1,288.5,391.03h-5.751a107.233,107.233,0,0,1-14.128-1.245h-.064l-.858-.143-.923-.168h0c-7.674-1.426-12.908-3.621-14.334-5.77a1.775,1.775,0,0,1-.349-.968C252.069,379.251,264.823,374.41,285.63,374.41Z" transform="translate(-35.554 -58.239)"/><path class="a" d="M282.32,460.307a18.368,18.368,0,0,0,24.2-5.634,1.408,1.408,0,0,0-.367-1.955q-.051-.035-.1-.064h0a1.413,1.413,0,0,0-1.866.439,15.49,15.49,0,1,1-7.357-23.235l-4.6,3.1a1.42,1.42,0,0,0-.381,1.936h0a1.418,1.418,0,0,0,1.936.381l6.68-4.518a1.39,1.39,0,0,0,.439-.471,1.419,1.419,0,0,0,.083-1.22l-2.839-7.1a1.414,1.414,0,0,0-1.833-.787h0a1.42,1.42,0,0,0-.787,1.839l1.556,3.873a18.342,18.342,0,0,0-14.78,33.379Z" transform="translate(-39.827 -67.056)"/><path class="d" d="M288.258,455.689v-1.413c.73-.555,1.44-1.149,2.117-1.762a27.463,27.463,0,0,0,2.085-2.085,11.42,11.42,0,0,0,1.7-2.337,4.592,4.592,0,0,0,.646-2.142c0-1.459-1-2.194-3-2.194a5.8,5.8,0,0,0-3.33,1.02v-1.8a7.032,7.032,0,0,1,3.582-.981,4.672,4.672,0,0,1,3.478,1.156,3.874,3.874,0,0,1,1.123,2.781q0,3.453-5.163,7.99h5.279v1.768Z" transform="translate(-42.519 -70.745)"/><g transform="translate(396.203 278.65)"><path class="d" d="M473.918,343.967v-11.5l-2.726,1.674v-2.272l2.767-1.673h2.23v13.775Z" transform="translate(-470.985 -329.676)"/><path class="d" d="M482.375,346.4v-2.416h2.458V346.4Z" transform="translate(-472.958 -332.109)"/><path class="d" d="M496.241,343.967V330.192h6.113a4.725,4.725,0,0,1,3.294,1.044,3.992,3.992,0,0,1,1.146,3.108,4.535,4.535,0,0,1-.434,1.983,3.765,3.765,0,0,1-1.259,1.487,3.831,3.831,0,0,1-1.962.661l.247-.7,4.089,6.2h-2.829l-3.821-6.175,1.053.971h-3.366v5.2Zm2.272-7.063h3.2a2.981,2.981,0,0,0,2.035-.6,2.317,2.317,0,0,0,.671-1.818,2.638,2.638,0,0,0-.527-1.756,2.267,2.267,0,0,0-1.807-.619h-3.573Z" transform="translate(-475.403 -329.676)"/><path class="d" d="M517.374,345.007a5.871,5.871,0,0,1-2.447-.465,3.462,3.462,0,0,1-1.58-1.394,4.433,4.433,0,0,1-.558-2.313V334.33h2.168v6.2a2.783,2.783,0,0,0,.589,1.952,2.966,2.966,0,0,0,3.655,0,2.779,2.779,0,0,0,.589-1.952v-6.2h2.086v6.506a3.952,3.952,0,0,1-1.188,3.118A4.825,4.825,0,0,1,517.374,345.007Z" transform="translate(-478.322 -330.406)"/><path class="d" d="M527.534,335.128a8.542,8.542,0,0,1,1.022-.423,11.354,11.354,0,0,1,1.208-.341q.64-.145,1.3-.227a10.472,10.472,0,0,1,1.281-.082,6.072,6.072,0,0,1,2.4.4,2.773,2.773,0,0,1,1.384,1.239,4.356,4.356,0,0,1,.455,2.1v6.857h-2.169v-6.567a3.274,3.274,0,0,0-.093-.775,1.773,1.773,0,0,0-.351-.7,1.722,1.722,0,0,0-.744-.507,3.625,3.625,0,0,0-1.27-.185,6.906,6.906,0,0,0-2.251.392v8.343h-2.169Z" transform="translate(-480.922 -330.358)"/><path class="d" d="M552.482,343.967V332.113H548.02v-1.921h11.194v1.921h-4.462v11.855Z" transform="translate(-484.535 -329.676)"/><path class="d" d="M565.519,344.958a7.655,7.655,0,0,1-1.549-.154,4.243,4.243,0,0,1-1.353-.527,2.714,2.714,0,0,1-.97-1.022,3.3,3.3,0,0,1-.362-1.621,3.6,3.6,0,0,1,.454-1.9,2.8,2.8,0,0,1,1.3-1.115,5.029,5.029,0,0,1,2.024-.371,7.31,7.31,0,0,1,1.414.124,5.622,5.622,0,0,1,1.137.34,4.032,4.032,0,0,1,.857.485l.227,1.426a4.207,4.207,0,0,0-1.218-.526,6.022,6.022,0,0,0-1.653-.217,3.179,3.179,0,0,0-1.786.413,1.4,1.4,0,0,0-.609,1.239,1.419,1.419,0,0,0,.351,1,2.034,2.034,0,0,0,.878.558,3.446,3.446,0,0,0,1.1.176,7.131,7.131,0,0,0,1.8-.166.726.726,0,0,0,.578-.764V338a1.889,1.889,0,0,0-.661-1.6,3.04,3.04,0,0,0-1.879-.506,6.258,6.258,0,0,0-1.8.278,4.309,4.309,0,0,0-1.529.774v-2.023a4.843,4.843,0,0,1,1.683-.631,10.838,10.838,0,0,1,2.281-.237,6.219,6.219,0,0,1,1.168.114,4.873,4.873,0,0,1,1.1.351,3.164,3.164,0,0,1,.919.64,2.84,2.84,0,0,1,.63.981,3.722,3.722,0,0,1,.227,1.364v4.957a1.954,1.954,0,0,1-.63,1.559,3.509,3.509,0,0,1-1.7.743A13.632,13.632,0,0,1,565.519,344.958Z" transform="translate(-486.875 -330.358)"/><path class="d" d="M578.83,344.962a6.518,6.518,0,0,1-1.889-.237,11.333,11.333,0,0,1-1.519-.588v-2.045q.537.331,1.054.589a5.31,5.31,0,0,0,1.084.4,5.113,5.113,0,0,0,1.27.145,2.312,2.312,0,0,0,1.394-.371,1.115,1.115,0,0,0,.507-.929.919.919,0,0,0-.32-.744,2.791,2.791,0,0,0-.815-.455q-.5-.186-1.033-.371c-.372-.1-.743-.21-1.115-.341a3.917,3.917,0,0,1-1.022-.537,2.492,2.492,0,0,1-.744-.878,2.835,2.835,0,0,1-.278-1.321,2.906,2.906,0,0,1,.351-1.477,2.96,2.96,0,0,1,.919-.992,4,4,0,0,1,1.259-.558,5.492,5.492,0,0,1,1.352-.175,5.739,5.739,0,0,1,1.787.268,10.4,10.4,0,0,1,1.352.6l.021,1.859q-.744-.393-1.4-.681a3.77,3.77,0,0,0-1.528-.29,2.729,2.729,0,0,0-1.343.3.95.95,0,0,0-.537.878,1.04,1.04,0,0,0,.3.784,2.062,2.062,0,0,0,.785.455q.486.166,1.043.33.516.166,1.074.341a3.845,3.845,0,0,1,1.033.506,2.555,2.555,0,0,1,.774.868,2.876,2.876,0,0,1,.3,1.4,2.967,2.967,0,0,1-.609,1.879,3.347,3.347,0,0,1-1.539,1.053A5.918,5.918,0,0,1,578.83,344.962Z" transform="translate(-489.365 -330.362)"/><path class="d" d="M589.786,343.857h-2.148V329.566h2.168Zm.97-6.712,5.989,6.712h-2.788l-4.73-5.266Zm-1.425.7,4.234-4.358h2.664l-5.969,5.679Z" transform="translate(-491.523 -329.566)"/><path class="d" d="M604.18,344.962a6.522,6.522,0,0,1-1.889-.237,11.32,11.32,0,0,1-1.518-.588v-2.045q.536.331,1.053.589a5.31,5.31,0,0,0,1.084.4,5.117,5.117,0,0,0,1.27.145,2.313,2.313,0,0,0,1.394-.371,1.116,1.116,0,0,0,.506-.929.921.921,0,0,0-.32-.744,2.814,2.814,0,0,0-.815-.455q-.5-.186-1.034-.371-.557-.145-1.114-.341a3.911,3.911,0,0,1-1.023-.537,2.5,2.5,0,0,1-.744-.878,2.845,2.845,0,0,1-.278-1.321,2.914,2.914,0,0,1,.351-1.477,2.959,2.959,0,0,1,.919-.992,4.008,4.008,0,0,1,1.26-.558,5.482,5.482,0,0,1,1.352-.175,5.734,5.734,0,0,1,1.786.268,10.364,10.364,0,0,1,1.353.6l.021,1.859q-.744-.393-1.405-.681a3.768,3.768,0,0,0-1.528-.29,2.73,2.73,0,0,0-1.343.3.952.952,0,0,0-.537.878,1.037,1.037,0,0,0,.3.784,2.055,2.055,0,0,0,.785.455c.323.11.671.22,1.043.33q.516.166,1.074.341a3.853,3.853,0,0,1,1.032.506,2.558,2.558,0,0,1,.775.868,2.877,2.877,0,0,1,.3,1.4,2.962,2.962,0,0,1-.609,1.879,3.347,3.347,0,0,1-1.539,1.053A5.919,5.919,0,0,1,604.18,344.962Z" transform="translate(-493.835 -330.362)"/><path class="d" d="M470.941,394.383v-1.756q.7-.474,1.58-1.166t1.756-1.539a18.331,18.331,0,0,0,1.61-1.765,10.665,10.665,0,0,0,1.188-1.817,3.834,3.834,0,0,0,.455-1.726,2.441,2.441,0,0,0-.268-1.136,1.918,1.918,0,0,0-.909-.826,3.912,3.912,0,0,0-1.693-.31,4.653,4.653,0,0,0-2.024.423,10.031,10.031,0,0,0-1.57.918v-2.147a9.031,9.031,0,0,1,1.756-.806,7.111,7.111,0,0,1,2.333-.351,5.686,5.686,0,0,1,2.664.547,3.525,3.525,0,0,1,1.518,1.466,4.3,4.3,0,0,1,.485,2.034,4.542,4.542,0,0,1-.433,1.9,9.243,9.243,0,0,1-1.146,1.858,18.428,18.428,0,0,1-1.56,1.745q-.846.836-1.7,1.548t-1.58,1.271l-.537-.516h7.187v2.148Z" transform="translate(-470.941 -338.528)"/><path class="d" d="M485.735,396.864v-2.417h2.458v2.417Z" transform="translate(-473.55 -341.009)"/><path class="d" d="M499.6,394.431V380.656h9.025v1.921h-6.732v3.986h5.865V388.5h-5.886v4.007h6.753v1.921Z" transform="translate(-475.996 -338.577)"/><path class="d" d="M518.555,390.8l-3.159,4.358h-2.355l4.4-5.824Zm4.75,4.358h-2.643l-7.518-10.368h2.623Zm-5.535-5.928,3.2-4.44h2.375l-4.523,6.01Z" transform="translate(-478.366 -339.306)"/><path class="d" d="M531.881,395.418a5.424,5.424,0,0,1-2.654-.619,4.153,4.153,0,0,1-1.735-1.838,6.59,6.59,0,0,1-.609-2.974,5.894,5.894,0,0,1,1.27-4.1,5.239,5.239,0,0,1,6.247-.651,4.166,4.166,0,0,1,1.5,2.076,9.11,9.11,0,0,1,.445,3.108h-8.159l-.062-1.611h6.568l-.516.516a3.9,3.9,0,0,0-.661-2.323,2.287,2.287,0,0,0-1.879-.733,2.729,2.729,0,0,0-1.405.34,2.12,2.12,0,0,0-.877,1.157,6.7,6.7,0,0,0-.3,2.24,3.824,3.824,0,0,0,.8,2.633,3.024,3.024,0,0,0,2.376.9,6.61,6.61,0,0,0,1.311-.124,7.172,7.172,0,0,0,1.125-.32q.516-.2.888-.381v2a8.8,8.8,0,0,1-1.631.5A9.721,9.721,0,0,1,531.881,395.418Z" transform="translate(-480.807 -339.253)"/><path class="d" d="M545.851,395.318a6.542,6.542,0,0,1-1.86-.268,4.585,4.585,0,0,1-1.641-.878,4.219,4.219,0,0,1-1.167-1.632,6.551,6.551,0,0,1-.433-2.551,7.243,7.243,0,0,1,.413-2.623,4.248,4.248,0,0,1,1.136-1.683,4.323,4.323,0,0,1,1.642-.9,6.713,6.713,0,0,1,1.89-.268,8.974,8.974,0,0,1,1.651.155,6.971,6.971,0,0,1,1.529.465v1.941a8.709,8.709,0,0,0-1.4-.485,5.992,5.992,0,0,0-1.467-.176,3.318,3.318,0,0,0-2.427.806,3.543,3.543,0,0,0-.815,2.6,3.974,3.974,0,0,0,.774,2.716,3.264,3.264,0,0,0,2.53.857,5.643,5.643,0,0,0,1.487-.2,8.363,8.363,0,0,0,1.343-.485v1.941a7.15,7.15,0,0,1-1.507.495A8.16,8.16,0,0,1,545.851,395.318Z" transform="translate(-483.253 -339.258)"/><path class="d" d="M558.422,395.471a5.873,5.873,0,0,1-2.448-.465,3.45,3.45,0,0,1-1.579-1.394,4.423,4.423,0,0,1-.558-2.313v-6.506h2.169v6.2a2.78,2.78,0,0,0,.589,1.951,2.963,2.963,0,0,0,3.655,0,2.775,2.775,0,0,0,.589-1.951v-6.2h2.086V391.3a3.95,3.95,0,0,1-1.188,3.118A4.826,4.826,0,0,1,558.422,395.471Z" transform="translate(-485.561 -339.306)"/><path class="d" d="M572.062,394.81a3.163,3.163,0,0,1-2.22-.743,2.81,2.81,0,0,1-.816-2.188v-5.907h-1.673v-1.8h1.673v-2.891h2.23v2.891h2.519v1.8h-2.519v5.473a1.864,1.864,0,0,0,.259,1.084,1.106,1.106,0,0,0,.96.362,2.739,2.739,0,0,0,.7-.093,2.4,2.4,0,0,0,.6-.237v1.921a3.631,3.631,0,0,1-.836.248A5.1,5.1,0,0,1,572.062,394.81Z" transform="translate(-487.945 -338.687)"/><path class="d" d="M582.556,395.418a5.423,5.423,0,0,1-2.654-.619,4.153,4.153,0,0,1-1.735-1.838,6.59,6.59,0,0,1-.609-2.974,5.894,5.894,0,0,1,1.27-4.1,5.239,5.239,0,0,1,6.247-.651,4.166,4.166,0,0,1,1.5,2.076,9.11,9.11,0,0,1,.445,3.108h-8.158l-.062-1.611h6.567l-.516.516a3.9,3.9,0,0,0-.661-2.323,2.286,2.286,0,0,0-1.879-.733,2.73,2.73,0,0,0-1.405.34,2.124,2.124,0,0,0-.877,1.157,6.7,6.7,0,0,0-.3,2.24,3.824,3.824,0,0,0,.8,2.633,3.025,3.025,0,0,0,2.376.9,6.61,6.61,0,0,0,1.311-.124,7.172,7.172,0,0,0,1.125-.32q.517-.2.888-.381v2a8.8,8.8,0,0,1-1.631.5A9.721,9.721,0,0,1,582.556,395.418Z" transform="translate(-489.745 -339.253)"/><path class="d" d="M602.329,394.431V382.577h-4.461v-1.921h11.194v1.921H604.6v11.855Z" transform="translate(-493.327 -338.577)"/><path class="d" d="M615.367,395.422a7.6,7.6,0,0,1-1.549-.155,4.226,4.226,0,0,1-1.352-.527,2.707,2.707,0,0,1-.97-1.022,3.3,3.3,0,0,1-.362-1.621,3.594,3.594,0,0,1,.454-1.9,2.8,2.8,0,0,1,1.3-1.115,5.012,5.012,0,0,1,2.024-.372,7.373,7.373,0,0,1,1.414.124,5.65,5.65,0,0,1,1.137.341,3.973,3.973,0,0,1,.856.485l.228,1.425a4.21,4.21,0,0,0-1.218-.526,6.028,6.028,0,0,0-1.653-.217,3.19,3.19,0,0,0-1.786.413,1.4,1.4,0,0,0-.609,1.239,1.421,1.421,0,0,0,.352,1,2.036,2.036,0,0,0,.878.557,3.447,3.447,0,0,0,1.1.176,7.1,7.1,0,0,0,1.8-.166.726.726,0,0,0,.577-.764v-4.336a1.888,1.888,0,0,0-.66-1.6,3.034,3.034,0,0,0-1.88-.507,6.259,6.259,0,0,0-1.8.278,4.323,4.323,0,0,0-1.529.775v-2.024a4.861,4.861,0,0,1,1.684-.63,10.787,10.787,0,0,1,2.281-.238,6.219,6.219,0,0,1,1.168.114,4.844,4.844,0,0,1,1.1.352,3.149,3.149,0,0,1,.919.64,2.845,2.845,0,0,1,.63.981,3.718,3.718,0,0,1,.227,1.363v4.957a1.954,1.954,0,0,1-.629,1.559,3.494,3.494,0,0,1-1.7.743A13.634,13.634,0,0,1,615.367,395.422Z" transform="translate(-495.666 -339.258)"/><path class="d" d="M628.678,395.426a6.523,6.523,0,0,1-1.89-.237,11.6,11.6,0,0,1-1.518-.588v-2.045q.537.33,1.053.588a5.338,5.338,0,0,0,1.085.4,5.151,5.151,0,0,0,1.27.145,2.318,2.318,0,0,0,1.394-.371,1.117,1.117,0,0,0,.507-.93.917.917,0,0,0-.32-.743,2.773,2.773,0,0,0-.815-.455q-.5-.185-1.033-.371c-.372-.1-.744-.209-1.115-.341a3.892,3.892,0,0,1-1.022-.537,2.473,2.473,0,0,1-.744-.877,2.838,2.838,0,0,1-.279-1.322,2.9,2.9,0,0,1,.352-1.476,2.966,2.966,0,0,1,.918-.992,4.006,4.006,0,0,1,1.26-.557,5.451,5.451,0,0,1,1.352-.175,5.721,5.721,0,0,1,1.787.268,10.191,10.191,0,0,1,1.352.6l.021,1.858q-.744-.392-1.405-.681a3.778,3.778,0,0,0-1.527-.29,2.73,2.73,0,0,0-1.343.3.949.949,0,0,0-.537.877,1.041,1.041,0,0,0,.3.785,2.06,2.06,0,0,0,.785.454c.323.111.671.221,1.043.33q.516.167,1.074.342a3.8,3.8,0,0,1,1.033.506,2.552,2.552,0,0,1,.774.867,2.876,2.876,0,0,1,.3,1.4,2.974,2.974,0,0,1-.609,1.88,3.353,3.353,0,0,1-1.539,1.053A5.944,5.944,0,0,1,628.678,395.426Z" transform="translate(-498.156 -339.262)"/><path class="d" d="M639.633,394.321h-2.147V380.029h2.168Zm.971-6.712,5.99,6.712H643.8l-4.729-5.267Zm-1.425.7,4.233-4.358h2.664l-5.968,5.68Z" transform="translate(-500.314 -338.466)"/><path class="d" d="M654.028,395.426a6.52,6.52,0,0,1-1.889-.237,11.55,11.55,0,0,1-1.518-.588v-2.045q.536.33,1.053.588a5.313,5.313,0,0,0,1.084.4,5.155,5.155,0,0,0,1.27.145,2.319,2.319,0,0,0,1.394-.371,1.118,1.118,0,0,0,.506-.93.919.919,0,0,0-.32-.743,2.789,2.789,0,0,0-.816-.455q-.5-.185-1.033-.371c-.371-.1-.743-.209-1.115-.341a3.919,3.919,0,0,1-1.022-.537,2.491,2.491,0,0,1-.744-.877,2.849,2.849,0,0,1-.278-1.322,2.909,2.909,0,0,1,.351-1.476,2.961,2.961,0,0,1,.919-.992,4,4,0,0,1,1.26-.557,5.445,5.445,0,0,1,1.352-.175,5.715,5.715,0,0,1,1.786.268,10.1,10.1,0,0,1,1.352.6l.021,1.858q-.745-.392-1.405-.681a3.782,3.782,0,0,0-1.528-.29,2.73,2.73,0,0,0-1.343.3.95.95,0,0,0-.537.877,1.039,1.039,0,0,0,.3.785,2.05,2.05,0,0,0,.784.454q.486.167,1.044.33.516.167,1.074.342a3.805,3.805,0,0,1,1.032.506,2.563,2.563,0,0,1,.775.867,2.877,2.877,0,0,1,.3,1.4,2.969,2.969,0,0,1-.609,1.88,3.353,3.353,0,0,1-1.539,1.053A5.94,5.94,0,0,1,654.028,395.426Z" transform="translate(-502.627 -339.262)"/><path class="d" d="M474.857,445.02a7.51,7.51,0,0,1-2.1-.278,10.4,10.4,0,0,1-1.745-.671v-2.086a13.933,13.933,0,0,0,1.663.754,5.591,5.591,0,0,0,1.992.34,4.322,4.322,0,0,0,2.417-.568,1.855,1.855,0,0,0,.847-1.641,2.005,2.005,0,0,0-.815-1.7,4.243,4.243,0,0,0-2.53-.609h-1.714v-1.88h1.776a3.146,3.146,0,0,0,1.952-.507,1.849,1.849,0,0,0,.31-2.478,2.014,2.014,0,0,0-.981-.629,4.933,4.933,0,0,0-1.508-.207,6.2,6.2,0,0,0-1.59.2,8.356,8.356,0,0,0-1.508.568v-1.941a8.672,8.672,0,0,1,1.528-.557,6.908,6.908,0,0,1,1.8-.227,6.649,6.649,0,0,1,2.014.278,4.381,4.381,0,0,1,1.487.785,3.217,3.217,0,0,1,.909,1.187,3.667,3.667,0,0,1,.3,1.487,2.843,2.843,0,0,1-.237,1.2,2.938,2.938,0,0,1-.578.857,3.3,3.3,0,0,1-.641.516,1.5,1.5,0,0,1-.423.2,2.442,2.442,0,0,1,.588.279,4.82,4.82,0,0,1,.857.671,3.784,3.784,0,0,1,.774,1.084,3.4,3.4,0,0,1,.32,1.518,3.867,3.867,0,0,1-.341,1.632,3.624,3.624,0,0,1-1,1.291,4.714,4.714,0,0,1-1.621.846A7.379,7.379,0,0,1,474.857,445.02Z" transform="translate(-470.954 -347.437)"/><path class="d" d="M485.61,447.327V444.91h2.458v2.417Z" transform="translate(-473.528 -349.909)"/><path class="d" d="M501.748,439.958v4.936h-2.272V431.119h5.452a5.481,5.481,0,0,1,3.645,1.095,4.042,4.042,0,0,1,1.291,3.263,4.237,4.237,0,0,1-1.291,3.326,5.279,5.279,0,0,1-3.645,1.156Zm0-1.941h2.892a4.433,4.433,0,0,0,1.445-.2,1.914,1.914,0,0,0,1.291-1.353,3.561,3.561,0,0,0,.114-.908,3.819,3.819,0,0,0-.114-.93,1.973,1.973,0,0,0-.423-.815,2.058,2.058,0,0,0-.867-.568,4.232,4.232,0,0,0-1.445-.207h-2.892Z" transform="translate(-475.974 -347.477)"/><path class="d" d="M515.274,445.575v-9.417a7.32,7.32,0,0,1,.991-.454,10.92,10.92,0,0,1,1.714-.507,9.329,9.329,0,0,1,2-.217,3.615,3.615,0,0,1,.846.082,3.274,3.274,0,0,1,.558.186v1.735q-.476-.062-.992-.093a8.638,8.638,0,0,0-1.032,0q-.516.031-1.012.093c-.33.041-.633.083-.909.124v8.468Z" transform="translate(-478.76 -348.158)"/><path class="d" d="M528.9,445.881a4.68,4.68,0,0,1-3.748-1.426,6.045,6.045,0,0,1-1.229-4.069,5.746,5.746,0,0,1,1.27-4.12,4.871,4.871,0,0,1,3.665-1.311,5.7,5.7,0,0,1,2.83.629,3.842,3.842,0,0,1,1.652,1.849,7.293,7.293,0,0,1,.537,2.953,5.865,5.865,0,0,1-1.291,4.059A4.7,4.7,0,0,1,528.9,445.881Zm-.021-1.838a2.728,2.728,0,0,0,1.673-.465,2.607,2.607,0,0,0,.9-1.291,6.857,6.857,0,0,0-.011-3.9,2.319,2.319,0,0,0-.909-1.208,3,3,0,0,0-1.652-.4,2.828,2.828,0,0,0-1.652.433,2.366,2.366,0,0,0-.888,1.239,6.163,6.163,0,0,0-.268,1.941,4.834,4.834,0,0,0,.64,2.685A2.4,2.4,0,0,0,528.881,444.043Z" transform="translate(-480.285 -348.153)"/><path class="d" d="M543.539,445.006a7.331,7.331,0,0,1-1.859-.238,4.3,4.3,0,0,1-1.652-.847,4.088,4.088,0,0,1-1.177-1.7,7.781,7.781,0,0,1-.434-2.829,5.849,5.849,0,0,1,1.2-3.883,4.483,4.483,0,0,1,3.635-1.425,5.754,5.754,0,0,1,.971.1,8.6,8.6,0,0,1,1.176.3,3.5,3.5,0,0,1,1.012.506l-.558.723v-5.721H548v12.536a1.673,1.673,0,0,1-.4,1.115,2.967,2.967,0,0,1-1.063.774,6.251,6.251,0,0,1-1.445.444A8.628,8.628,0,0,1,543.539,445.006Zm.062-1.88a4.917,4.917,0,0,0,1.59-.227q.661-.227.661-.6v-5.763a4.294,4.294,0,0,0-1.136-.454,4.927,4.927,0,0,0-1.156-.145,3.116,3.116,0,0,0-1.663.4,2.37,2.37,0,0,0-.96,1.177,5.155,5.155,0,0,0-.311,1.91,6.562,6.562,0,0,0,.248,1.87,2.529,2.529,0,0,0,.9,1.332A2.961,2.961,0,0,0,543.6,443.126Z" transform="translate(-482.842 -347.278)"/><path class="d" d="M558.348,445.934a5.872,5.872,0,0,1-2.448-.465,3.463,3.463,0,0,1-1.58-1.394,4.427,4.427,0,0,1-.558-2.313v-6.506h2.169v6.2a2.781,2.781,0,0,0,.588,1.952,2.967,2.967,0,0,0,3.656,0,2.782,2.782,0,0,0,.588-1.952v-6.2h2.086v6.506a3.949,3.949,0,0,1-1.187,3.118A4.827,4.827,0,0,1,558.348,445.934Z" transform="translate(-485.548 -348.206)"/><path class="d" d="M572.958,445.782a6.507,6.507,0,0,1-1.86-.268,4.554,4.554,0,0,1-1.641-.878A4.2,4.2,0,0,1,568.289,443a6.55,6.55,0,0,1-.433-2.55,7.241,7.241,0,0,1,.413-2.623,4.23,4.23,0,0,1,1.136-1.683,4.306,4.306,0,0,1,1.642-.9,6.677,6.677,0,0,1,1.889-.269,8.98,8.98,0,0,1,1.652.155,7.014,7.014,0,0,1,1.529.465v1.941a8.821,8.821,0,0,0-1.4-.485,6.037,6.037,0,0,0-1.467-.176,3.318,3.318,0,0,0-2.426.806,3.541,3.541,0,0,0-.815,2.6,3.97,3.97,0,0,0,.774,2.715,3.264,3.264,0,0,0,2.53.857,5.644,5.644,0,0,0,1.487-.2,8.28,8.28,0,0,0,1.343-.485v1.941a7.207,7.207,0,0,1-1.508.5A8.146,8.146,0,0,1,572.958,445.782Z" transform="translate(-488.034 -348.158)"/><path class="d" d="M585.291,445.881a5.416,5.416,0,0,1-2.655-.62,4.148,4.148,0,0,1-1.735-1.838,6.6,6.6,0,0,1-.609-2.973,5.9,5.9,0,0,1,1.27-4.1,5.237,5.237,0,0,1,6.247-.65,4.154,4.154,0,0,1,1.5,2.075,9.111,9.111,0,0,1,.445,3.109h-8.158l-.062-1.611H588.1l-.516.516a3.911,3.911,0,0,0-.661-2.323,2.288,2.288,0,0,0-1.879-.732,2.729,2.729,0,0,0-1.405.34,2.119,2.119,0,0,0-.877,1.156,6.7,6.7,0,0,0-.3,2.241,3.824,3.824,0,0,0,.806,2.633,3.026,3.026,0,0,0,2.375.9,6.6,6.6,0,0,0,1.311-.124,7.085,7.085,0,0,0,1.125-.32,9.589,9.589,0,0,0,.888-.381v2a8.861,8.861,0,0,1-1.631.506A9.712,9.712,0,0,1,585.291,445.881Z" transform="translate(-490.227 -348.153)"/><path class="d" d="M602.057,444.894V431.119H610.9v1.921h-6.567v4.11h5.742v1.941h-5.742v5.8Z" transform="translate(-494.066 -347.477)"/><path class="d" d="M615.773,432.831v-1.963h2.313v1.963Zm.062,12.019V434.545H618l.021,10.305Z" transform="translate(-496.485 -347.432)"/><path class="d" d="M622.293,436.055a8.435,8.435,0,0,1,1.022-.423,11.248,11.248,0,0,1,1.208-.341q.64-.145,1.3-.227a10.47,10.47,0,0,1,1.281-.082,6.077,6.077,0,0,1,2.4.4,2.771,2.771,0,0,1,1.383,1.239,4.344,4.344,0,0,1,.455,2.1v6.857H629.17v-6.567a3.285,3.285,0,0,0-.093-.775,1.775,1.775,0,0,0-.352-.7,1.709,1.709,0,0,0-.744-.507,3.616,3.616,0,0,0-1.27-.186,6.671,6.671,0,0,0-1.146.1,6.577,6.577,0,0,0-1.105.289v8.343h-2.168Z" transform="translate(-497.635 -348.158)"/><path class="d" d="M640.643,445.886a7.6,7.6,0,0,1-1.549-.155,4.245,4.245,0,0,1-1.352-.527,2.72,2.72,0,0,1-.97-1.022,3.3,3.3,0,0,1-.362-1.622,3.6,3.6,0,0,1,.454-1.9,2.794,2.794,0,0,1,1.3-1.114,5,5,0,0,1,2.024-.372,7.446,7.446,0,0,1,1.414.124,5.743,5.743,0,0,1,1.137.341,4.031,4.031,0,0,1,.857.485l.227,1.426a4.23,4.23,0,0,0-1.218-.527,6.054,6.054,0,0,0-1.653-.217,3.183,3.183,0,0,0-1.786.413,1.4,1.4,0,0,0-.609,1.239,1.42,1.42,0,0,0,.351,1,2.043,2.043,0,0,0,.878.557,3.446,3.446,0,0,0,1.1.175,7.056,7.056,0,0,0,1.8-.166.725.725,0,0,0,.578-.764v-4.337a1.888,1.888,0,0,0-.661-1.6,3.039,3.039,0,0,0-1.879-.507,6.259,6.259,0,0,0-1.8.278,4.325,4.325,0,0,0-1.529.776v-2.024a4.878,4.878,0,0,1,1.683-.63,10.84,10.84,0,0,1,2.281-.237,6.151,6.151,0,0,1,1.168.114,4.753,4.753,0,0,1,1.1.352,3.13,3.13,0,0,1,.919.639,2.829,2.829,0,0,1,.63.982,3.714,3.714,0,0,1,.227,1.362v4.957a1.951,1.951,0,0,1-.629,1.559,3.494,3.494,0,0,1-1.7.744A13.63,13.63,0,0,1,640.643,445.886Z" transform="translate(-500.124 -348.158)"/><path class="d" d="M653.2,444.784h-2.148V430.492H653.2Z" transform="translate(-502.707 -347.366)"/><path class="d" d="M664.619,444.894V431.119h6.113a4.731,4.731,0,0,1,3.294,1.043,4,4,0,0,1,1.146,3.108,4.545,4.545,0,0,1-.433,1.983,3.768,3.768,0,0,1-1.26,1.487,3.847,3.847,0,0,1-1.962.661l.247-.7,4.089,6.2h-2.829l-3.821-6.175,1.053.97h-3.366v5.2Zm2.272-7.063h3.2a2.976,2.976,0,0,0,2.034-.6,2.314,2.314,0,0,0,.671-1.817,2.636,2.636,0,0,0-.527-1.756,2.266,2.266,0,0,0-1.807-.619h-3.573Z" transform="translate(-505.1 -347.477)"/><path class="d" d="M685.514,445.881a5.412,5.412,0,0,1-2.654-.62,4.144,4.144,0,0,1-1.735-1.838,6.586,6.586,0,0,1-.609-2.973,5.9,5.9,0,0,1,1.27-4.1,5.237,5.237,0,0,1,6.247-.65,4.163,4.163,0,0,1,1.5,2.075,9.094,9.094,0,0,1,.444,3.109h-8.158l-.062-1.611h6.568l-.516.516a3.906,3.906,0,0,0-.661-2.323,2.289,2.289,0,0,0-1.88-.732,2.729,2.729,0,0,0-1.4.34,2.112,2.112,0,0,0-.877,1.156,6.7,6.7,0,0,0-.3,2.241,3.824,3.824,0,0,0,.8,2.633,3.026,3.026,0,0,0,2.375.9,6.609,6.609,0,0,0,1.312-.124,7.084,7.084,0,0,0,1.125-.32q.517-.2.888-.381v2a8.859,8.859,0,0,1-1.631.506A9.727,9.727,0,0,1,685.514,445.881Z" transform="translate(-507.903 -348.153)"/><path class="d" d="M697.935,445.89a6.519,6.519,0,0,1-1.889-.238,11.365,11.365,0,0,1-1.518-.588v-2.045q.537.33,1.053.588a5.325,5.325,0,0,0,1.085.4,5.187,5.187,0,0,0,1.269.144,2.319,2.319,0,0,0,1.394-.371,1.116,1.116,0,0,0,.507-.93.917.917,0,0,0-.32-.743,2.785,2.785,0,0,0-.815-.455q-.5-.185-1.034-.371-.557-.145-1.114-.341a3.893,3.893,0,0,1-1.022-.537,2.475,2.475,0,0,1-.744-.878,2.837,2.837,0,0,1-.279-1.321,2.9,2.9,0,0,1,.352-1.477,2.948,2.948,0,0,1,.918-.992,3.988,3.988,0,0,1,1.26-.557,5.449,5.449,0,0,1,1.352-.176,5.718,5.718,0,0,1,1.787.268,10.406,10.406,0,0,1,1.352.6l.021,1.859q-.744-.392-1.405-.682a3.781,3.781,0,0,0-1.528-.289,2.724,2.724,0,0,0-1.342.3.95.95,0,0,0-.537.878,1.035,1.035,0,0,0,.3.784,2.044,2.044,0,0,0,.785.455c.323.11.671.221,1.043.33q.516.167,1.074.341a3.778,3.778,0,0,1,1.033.507,2.554,2.554,0,0,1,.774.867,2.871,2.871,0,0,1,.3,1.4,2.97,2.97,0,0,1-.609,1.88,3.347,3.347,0,0,1-1.539,1.053A5.946,5.946,0,0,1,697.935,445.89Z" transform="translate(-510.371 -348.162)"/><path class="d" d="M711.328,445.934a5.871,5.871,0,0,1-2.448-.465,3.456,3.456,0,0,1-1.579-1.394,4.419,4.419,0,0,1-.558-2.313v-6.506h2.169v6.2a2.781,2.781,0,0,0,.589,1.952,2.966,2.966,0,0,0,3.655,0,2.778,2.778,0,0,0,.589-1.952v-6.2h2.085v6.506a3.949,3.949,0,0,1-1.187,3.118A4.827,4.827,0,0,1,711.328,445.934Z" transform="translate(-512.529 -348.206)"/><path class="d" d="M723.636,444.784h-2.148V430.492h2.148Z" transform="translate(-515.129 -347.366)"/><path class="d" d="M731.287,445.273a3.165,3.165,0,0,1-2.22-.744,2.812,2.812,0,0,1-.816-2.188v-5.906h-1.673v-1.8h1.673v-2.891h2.23v2.891H733v1.8h-2.52v5.472a1.862,1.862,0,0,0,.259,1.084,1.1,1.1,0,0,0,.96.362,2.714,2.714,0,0,0,.7-.093,2.382,2.382,0,0,0,.6-.237v1.921a3.573,3.573,0,0,1-.837.248A5.011,5.011,0,0,1,731.287,445.273Z" transform="translate(-516.027 -347.587)"/></g></g></svg>