<svg xmlns="http://www.w3.org/2000/svg" viewBox="0 0 700.42 475.81"><defs><style>.cls-1{fill:#777;}.cls-2{fill:#e5282a;}.cls-3{fill:#efeeed;}.cls-4{fill:#fff;}.cls-5{fill:#575656;}.cls-6{fill:#e52529;}.cls-7{fill:#010101;}.cls-8{isolation:isolate;}.cls-9{fill:#1d1d1b;}</style></defs><g id="Capa_2" data-name="Capa 2"><g id="Capa_1-2" data-name="Capa 1"><path class="cls-1" d="M521.69,224.46a2.49,2.49,0,0,1,1.63.6l10.77,9.09a2.51,2.51,0,0,1,.25,3.54,1.88,1.88,0,0,1-.25.24l-10.72,9.16a2.52,2.52,0,0,1-3.53-.27,2.48,2.48,0,0,1,.27-3.51l8.53-7.24-8.53-7.18a2.48,2.48,0,0,1-.26-3.52,2.56,2.56,0,0,1,1.89-.87Z"/><path class="cls-1" d="M483,233.59h48.27a2.49,2.49,0,1,1,0,5H483a2.49,2.49,0,1,1,0-5Z"/><ellipse class="cls-2" cx="501.06" cy="236.07" rx="6.81" ry="6.75"/><path class="cls-3" d="M496.59,236.07a4.47,4.47,0,1,1,4.47,4.44,4.45,4.45,0,0,1-4.47-4.44m-4.69,0a9.16,9.16,0,1,0,9.17-9.07h0A9.11,9.11,0,0,0,491.9,236.07Z"/><path class="cls-1" d="M521.69,114.22a2.48,2.48,0,0,1,1.63.59l10.77,9.13a2.49,2.49,0,0,1,.25,3.53l-.25.25-10.72,9.13a2.52,2.52,0,0,1-3.53-.27,2.48,2.48,0,0,1,.27-3.51l8.53-7.23-8.53-7.24a2.48,2.48,0,0,1-.28-3.5,2.51,2.51,0,0,1,1.91-.87Z"/><path class="cls-1" d="M483,123.28h48.27a2.49,2.49,0,1,1,0,5H483a2.49,2.49,0,1,1,0-5Z"/><path class="cls-1" d="M459.18,152.89l25.58-25.37a2.47,2.47,0,0,0,0-3.52,2.53,2.53,0,0,0-3.55,0l-25.59,25.36a2.48,2.48,0,0,0,.22,3.52A2.55,2.55,0,0,0,459.18,152.89Z"/><path class="cls-2" d="M506.38,125.83a6.81,6.81,0,1,1-6.81-6.76A6.78,6.78,0,0,1,506.38,125.83Z"/><path class="cls-3" d="M495.1,125.83a4.47,4.47,0,1,1,4.47,4.43,4.46,4.46,0,0,1-4.47-4.43m-4.68,0a9.16,9.16,0,1,0,9.16-9.09h0a9.11,9.11,0,0,0-9.15,9.08Z"/><path class="cls-1" d="M521.69,380.72a2.49,2.49,0,0,0,1.63-.6L534.09,371a2.49,2.49,0,0,0,.25-3.53,1.88,1.88,0,0,0-.25-.24l-10.77-9.13a2.52,2.52,0,0,0-3.52.48,2.49,2.49,0,0,0,.26,3.31l8.53,7.18-8.53,7.24a2.47,2.47,0,0,0-.28,3.5,2.49,2.49,0,0,0,1.91.87Z"/><path class="cls-1" d="M483,371.69h48.27a2.49,2.49,0,0,0,0-5H483a2.49,2.49,0,0,0,0,5Z"/><path class="cls-1" d="M459.18,342l25.58,25.37a2.48,2.48,0,0,1,.22,3.52,2.53,2.53,0,0,1-3.55.22l-.22-.22-25.59-25.37a2.48,2.48,0,0,1,.22-3.52A2.55,2.55,0,0,1,459.18,342Z"/><ellipse class="cls-2" cx="470.2" cy="356.42" rx="6.81" ry="6.76"/><path class="cls-3" d="M465.73,356.42a4.48,4.48,0,1,1,4.48,4.42h0a4.46,4.46,0,0,1-4.47-4.42m-4.68,0a9.17,9.17,0,1,0,9.16-9.09h0a9.11,9.11,0,0,0-9.15,9.08Z"/><path class="cls-3" d="M0,469.55V6.26C0,2.8,3.35,0,7.49,0h130C141.61,0,145,2.8,145,6.26V469.55c0,3.46-3.35,6.26-7.49,6.26H7.49C3.35,475.81,0,473,0,469.55Z"/><path class="cls-3" d="M555.46,469.55V6.26C555.46,2.8,558.81,0,563,0h130c4.14,0,7.49,2.8,7.49,6.26V469.55c0,3.46-3.35,6.26-7.49,6.26H563C558.81,475.81,555.46,473,555.46,469.55Z"/><path class="cls-4" d="M627.66,146c-12.21,0-24.85,2.77-24.85,7.4v42.45a2.69,2.69,0,0,0,.53,1.6,4.09,4.09,0,0,0,.61.7c3.1,3.1,12.68,5.1,23.7,5.1s20.58-2,23.69-5.07a3.75,3.75,0,0,0,.61-.71,2.81,2.81,0,0,0,.53-1.6V153.43C652.5,148.78,639.87,146,627.66,146Z"/><path class="cls-1" d="M651.86,150.39c-1.47-1.33-4.14-2.44-7.45-3.28L644,147l-1.52-.33-.37-.09c-.56-.11-1.14-.22-1.74-.31s-1.52-.24-2.3-.34l-1.1-.13a82.16,82.16,0,0,0-9.27-.52h0c-12.53,0-25.47,2.84-25.47,7.58h0v43.58a2.78,2.78,0,0,0,.54,1.64,4.71,4.71,0,0,0,.62.72c3.24,3.11,13,5.18,24.31,5.18s21.08-2.07,24.31-5.18a3.53,3.53,0,0,0,.62-.72,2.86,2.86,0,0,0,.55-1.64V152.86A3.37,3.37,0,0,0,651.86,150.39Zm-46.16,2.4.17-.16.24-.18.25-.16.31-.18.32-.17.4-.19.39-.18.48-.18.46-.18.56-.18.52-.18.64-.19.58-.16c.23-.08.48-.13.71-.19l.65-.16.78-.18.71-.15.86-.16.75-.14.94-.14.8-.13,1-.13.84-.1,1.12-.11.85-.08,1.25-.09h.84a10.06,10.06,0,0,0,1.45-.07h6.1a10,10,0,0,1,1.46.07H633l1.24.09.86.08,1.12.11.84.1,1,.13.79.13,1,.14.75.14.86.16.71.15.78.18.65.16.71.19.59.16.63.19.53.18.55.18.46.18.48.18.39.18.4.19.32.17.32.18.25.16.24.18.17.16.07.07c-2.17,2.07-10.62,4.31-22,4.31s-19.9-2.23-22-4.29h0Zm44,43.65c-2.15,2.07-10.61,4.31-22,4.31s-19.87-2.23-22.06-4.34a.64.64,0,0,1-.13-.15V156.68c4.39,2.31,12.73,3.77,22.19,3.77s17.8-1.46,22.2-3.77v39.58A.77.77,0,0,1,649.68,196.44Z"/><path d="M595.85,226.45V214h2v5.35h5.74V214h2.07v12.43h-2.07v-5.29H597.9v5.29Z"/><path d="M612,226.73a7.15,7.15,0,0,1-1.4-.14,3.7,3.7,0,0,1-1.22-.48,2.41,2.41,0,0,1-.87-.92,3,3,0,0,1-.33-1.46,3.29,3.29,0,0,1,.41-1.72,2.53,2.53,0,0,1,1.18-1,4.35,4.35,0,0,1,1.82-.34,7.1,7.1,0,0,1,1.28.11,5.33,5.33,0,0,1,1,.31,3.55,3.55,0,0,1,.78.44l.2,1.29a3.66,3.66,0,0,0-1.1-.48,5.42,5.42,0,0,0-1.49-.2,2.86,2.86,0,0,0-1.61.38,1.25,1.25,0,0,0-.55,1.12,1.24,1.24,0,0,0,.32.9,1.76,1.76,0,0,0,.79.5,3,3,0,0,0,1,.16,6.39,6.39,0,0,0,1.62-.15.66.66,0,0,0,.52-.69v-3.91a1.72,1.72,0,0,0-.6-1.45,2.76,2.76,0,0,0-1.69-.45,5.57,5.57,0,0,0-1.63.25,3.93,3.93,0,0,0-1.37.7v-1.83a4.37,4.37,0,0,1,1.51-.57,10.07,10.07,0,0,1,2.06-.21,5.51,5.51,0,0,1,1.06.1,4.1,4.1,0,0,1,1,.32,2.79,2.79,0,0,1,.83.57,2.43,2.43,0,0,1,.57.89,3.3,3.3,0,0,1,.21,1.23v4.47a1.77,1.77,0,0,1-.57,1.41,3.17,3.17,0,0,1-1.54.67A12.08,12.08,0,0,1,612,226.73Z"/><path d="M623.15,226.73a6.22,6.22,0,0,1-1.67-.22,3.64,3.64,0,0,1-2.56-2.3,7,7,0,0,1-.39-2.55,5.25,5.25,0,0,1,1.08-3.5,4,4,0,0,1,3.28-1.29,5.34,5.34,0,0,1,.88.09,7.17,7.17,0,0,1,1.06.27,3,3,0,0,1,.91.46l-.5.65v-5.16h1.94v11.31a1.52,1.52,0,0,1-.36,1,2.91,2.91,0,0,1-1,.7,5.89,5.89,0,0,1-1.31.4A8.38,8.38,0,0,1,623.15,226.73Zm.06-1.7a4.56,4.56,0,0,0,1.43-.2q.6-.21.6-.54v-5.2a3.47,3.47,0,0,0-1-.41,4.31,4.31,0,0,0-1.05-.13,2.82,2.82,0,0,0-1.5.36,2.11,2.11,0,0,0-.86,1.06,4.61,4.61,0,0,0-.28,1.73,5.84,5.84,0,0,0,.22,1.68,2.29,2.29,0,0,0,.81,1.21A2.72,2.72,0,0,0,623.21,225Z"/><path d="M633.94,226.73a4.22,4.22,0,0,1-3.38-1.29,5.44,5.44,0,0,1-1.11-3.67,5.21,5.21,0,0,1,1.15-3.72,4.39,4.39,0,0,1,3.31-1.18,5.12,5.12,0,0,1,2.55.57,3.43,3.43,0,0,1,1.49,1.67,6.61,6.61,0,0,1,.49,2.66,5.26,5.26,0,0,1-1.17,3.66A4.21,4.21,0,0,1,633.94,226.73Zm0-1.66a2.48,2.48,0,0,0,1.51-.42,2.4,2.4,0,0,0,.81-1.16,5.61,5.61,0,0,0,.25-1.72,5.55,5.55,0,0,0-.26-1.81,2.19,2.19,0,0,0-.82-1.09,2.74,2.74,0,0,0-1.49-.36,2.53,2.53,0,0,0-1.49.39,2.14,2.14,0,0,0-.81,1.12,5.6,5.6,0,0,0-.24,1.75,4.31,4.31,0,0,0,.58,2.42A2.16,2.16,0,0,0,633.93,225.07Z"/><path d="M644.72,226.73a4.23,4.23,0,0,1-3.39-1.29,5.44,5.44,0,0,1-1.1-3.67,5.21,5.21,0,0,1,1.14-3.72,4.41,4.41,0,0,1,3.31-1.18,5.12,5.12,0,0,1,2.55.57,3.43,3.43,0,0,1,1.49,1.67,6.45,6.45,0,0,1,.49,2.66,5.26,5.26,0,0,1-1.17,3.66A4.2,4.2,0,0,1,644.72,226.73Zm0-1.66a2.46,2.46,0,0,0,1.51-.42,2.4,2.4,0,0,0,.81-1.16,5.33,5.33,0,0,0,.25-1.72A5.55,5.55,0,0,0,647,220a2.13,2.13,0,0,0-.82-1.09,2.72,2.72,0,0,0-1.49-.36,2.55,2.55,0,0,0-1.49.39,2.08,2.08,0,0,0-.8,1.12,5.31,5.31,0,0,0-.25,1.75,4.39,4.39,0,0,0,.58,2.42A2.17,2.17,0,0,0,644.7,225.07Z"/><path d="M655.75,226.71a6.48,6.48,0,0,1-.88-.08,8.32,8.32,0,0,1-1-.26,3.15,3.15,0,0,1-.91-.48l.5-.63v4.94h-1.94V218.9a1.35,1.35,0,0,1,.37-1,2.46,2.46,0,0,1,1-.62,5.58,5.58,0,0,1,1.31-.34,9.82,9.82,0,0,1,1.43-.1,5.27,5.27,0,0,1,2.27.47,3.54,3.54,0,0,1,1.64,1.57,6.29,6.29,0,0,1,.61,3,5.78,5.78,0,0,1-.5,2.52,3.66,3.66,0,0,1-1.47,1.66A4.48,4.48,0,0,1,655.75,226.71Zm-.35-1.64a2.77,2.77,0,0,0,1.49-.37,2.27,2.27,0,0,0,.89-1.08,4.45,4.45,0,0,0,.3-1.72,6.3,6.3,0,0,0-.21-1.69,2.31,2.31,0,0,0-.78-1.21,2.54,2.54,0,0,0-1.6-.43,4.76,4.76,0,0,0-1.5.19q-.57.19-.57.57v5.2a4.67,4.67,0,0,0,1,.4A3.76,3.76,0,0,0,655.4,225.07Z"/><path class="cls-5" d="M174.51,21.72a9.43,9.43,0,0,1,0-4.72,4.91,4.91,0,0,1,.78-1.63,4.08,4.08,0,0,1,1.17-1,4.82,4.82,0,0,1,1.37-.51,7.5,7.5,0,0,1,1.42-.12,8.67,8.67,0,0,1,3.34.64v1.42a7.65,7.65,0,0,0-3.16-.69,3.6,3.6,0,0,0-2.82,1,6.41,6.41,0,0,0,0,6.45,3.6,3.6,0,0,0,2.82,1,7.51,7.51,0,0,0,3.16-.7v1.41a8.69,8.69,0,0,1-3.34.66,6.76,6.76,0,0,1-1.42-.13,4.82,4.82,0,0,1-1.37-.51,3.91,3.91,0,0,1-1.2-1A4.84,4.84,0,0,1,174.51,21.72Z"/><path class="cls-5" d="M184.48,22.87a6.52,6.52,0,0,1,0-4.23,2.84,2.84,0,0,1,.94-1.3,3.86,3.86,0,0,1,1.21-.62,5.3,5.3,0,0,1,2.74,0,4.39,4.39,0,0,1,1.22.62,2.87,2.87,0,0,1,.93,1.3,6.52,6.52,0,0,1,0,4.23,2.82,2.82,0,0,1-.93,1.3,3.78,3.78,0,0,1-1.22.61A4.58,4.58,0,0,1,188,25a4.92,4.92,0,0,1-1.37-.19,3.46,3.46,0,0,1-1.21-.61A2.79,2.79,0,0,1,184.48,22.87Zm1.37-3.63a6.21,6.21,0,0,0,0,3,1.71,1.71,0,0,0,.53.88,2.21,2.21,0,0,0,.73.38,4.45,4.45,0,0,0,1.78,0,2.12,2.12,0,0,0,.73-.38,1.77,1.77,0,0,0,.54-.88,6.47,6.47,0,0,0,0-3,1.7,1.7,0,0,0-.54-.88,1.83,1.83,0,0,0-.73-.38,4.45,4.45,0,0,0-1.78,0,1.83,1.83,0,0,0-.73.38,1.69,1.69,0,0,0-.53.86Z"/><path class="cls-5" d="M193.9,24.84V17.33a7.45,7.45,0,0,1,3.4-.82,3.71,3.71,0,0,1,2.19.61,8.21,8.21,0,0,1,3-.61,3.34,3.34,0,0,1,2.41.81,2.92,2.92,0,0,1,.87,2.26v5.26h-1.49V19.47a1.8,1.8,0,0,0-.36-1.14,1.62,1.62,0,0,0-1.34-.43,5.92,5.92,0,0,0-2.2.45,3.63,3.63,0,0,1,.19,1.17v5.32h-1.5V19.49a1.68,1.68,0,0,0-.37-1.14,2.1,2.1,0,0,0-1.53-.42,6.84,6.84,0,0,0-1.79.25v6.66Z"/><path class="cls-5" d="M208.17,28v-8.8a2.38,2.38,0,0,1,.05-.53,2.65,2.65,0,0,1,.77-1.36,3.15,3.15,0,0,1,1-.53,5.39,5.39,0,0,1,2.46-.14,3.35,3.35,0,0,1,1,.37,2.94,2.94,0,0,1,.89.72A3.83,3.83,0,0,1,215,19a6.38,6.38,0,0,1,.25,1.89,5.83,5.83,0,0,1-.33,2.07,2.63,2.63,0,0,1-.92,1.28,3.63,3.63,0,0,1-1.18.59,4.39,4.39,0,0,1-1.34.19,6.41,6.41,0,0,1-1.74-.24V28Zm1.5-4.67a4.76,4.76,0,0,0,1.74.33,3.11,3.11,0,0,0,.86-.09,2,2,0,0,0,.7-.37,1.73,1.73,0,0,0,.53-.85,5.24,5.24,0,0,0,.18-1.47,5.71,5.71,0,0,0-.18-1.59,1.85,1.85,0,0,0-.52-.92,2,2,0,0,0-.67-.39,2.64,2.64,0,0,0-.74-.1c-1.27,0-1.9.41-1.9,1.23Z"/><path class="cls-5" d="M217.22,21.4V16.66h1.53v4.85a2.36,2.36,0,0,0,.48,1.64,2.36,2.36,0,0,0,3,0,2.51,2.51,0,0,0,.48-1.65V16.65h1.49v4.74a3.71,3.71,0,0,1-.9,2.65,4,4,0,0,1-5.1,0A3.67,3.67,0,0,1,217.22,21.4Z"/><path class="cls-5" d="M225.75,17.93V16.66h1.43V14.22h1.49v2.44h2.19v1.27h-2.19v4.74c0,.63.41.95,1.21.95h0a1.87,1.87,0,0,0,1-.23v1.35a3,3,0,0,1-1.13.23h0a2.88,2.88,0,0,1-.65-.07,5.28,5.28,0,0,1-.79-.28,1.8,1.8,0,0,1-.78-.74,2.57,2.57,0,0,1-.3-1.3V17.93Z"/><path class="cls-5" d="M232.32,20.84c0-2.88,1.21-4.32,3.61-4.32h0a3.39,3.39,0,0,1,2.62,1,4,4,0,0,1,1,2.87v1.12h-5.67a2.12,2.12,0,0,0,2.17,2.08h.14a5.91,5.91,0,0,0,2.83-.62v1.37a7.56,7.56,0,0,1-2.86.53h0a4.27,4.27,0,0,1-1.33-.18,4.16,4.16,0,0,1-1.19-.6,2.73,2.73,0,0,1-.9-1.27A5.83,5.83,0,0,1,232.32,20.84Zm1.51-.59H238a4.24,4.24,0,0,0-.13-.78,3.35,3.35,0,0,0-.33-.75,1.71,1.71,0,0,0-.65-.63,2,2,0,0,0-1-.22,1.88,1.88,0,0,0-1.51.54,3.05,3.05,0,0,0-.55,1.85Z"/><path class="cls-5" d="M246.82,21.75a3.54,3.54,0,0,1,.46-1.74,4.46,4.46,0,0,1,1.78-1.53,3.81,3.81,0,0,1-1-2.18,2.54,2.54,0,0,1,2.57-2.54,2.5,2.5,0,0,1,1.82.71,2.37,2.37,0,0,1,.75,1.76,2.42,2.42,0,0,1-.46,1.47,4.73,4.73,0,0,1-1.47,1.19l2.14,2.56a5.73,5.73,0,0,0,.42-1.41h1.5a6.49,6.49,0,0,1-1,2.51l1.91,2.29H254.4l-1-1.13A4.22,4.22,0,0,1,250.33,25h0a3.91,3.91,0,0,1-1.62-.32,2.79,2.79,0,0,1-1.12-.83,4.08,4.08,0,0,1-.6-1A3.11,3.11,0,0,1,246.82,21.75Zm1.5,0a2.35,2.35,0,0,0,.09.53,2.44,2.44,0,0,0,.31.6,1.54,1.54,0,0,0,.66.55,2.48,2.48,0,0,0,1,.21,2.85,2.85,0,0,0,2.16-1L250,19.48a5.59,5.59,0,0,0-.95.63,1.86,1.86,0,0,0-.52.66,2.35,2.35,0,0,0-.17.51,4.34,4.34,0,0,0,0,.51Zm1.42-6.48a1.17,1.17,0,0,0-.36.88,3.25,3.25,0,0,0,.92,1.63,5,5,0,0,0,1.25-.89,1.24,1.24,0,0,0,.34-.77,1.16,1.16,0,0,0-.36-.84,1.19,1.19,0,0,0-.88-.34,1.14,1.14,0,0,0-.91.37Z"/><path class="cls-5" d="M174.63,45.5V34.56h1.67l3.59,4.73,3.6-4.73h1.67V45.5h-1.53V36.88l-3.74,4.91-3.72-4.91V45.5Z"/><path class="cls-5" d="M187.36,42.91a2.14,2.14,0,0,1,1-1.89,5.05,5.05,0,0,1,2.84-.68,9.13,9.13,0,0,1,1.48.1,2.06,2.06,0,0,0-.56-1.49,2.59,2.59,0,0,0-1.69-.45,6.7,6.7,0,0,0-2.26.42V37.63a6.74,6.74,0,0,1,2.47-.44,3.69,3.69,0,0,1,2.64.89,3.33,3.33,0,0,1,.93,2.54V43a3.05,3.05,0,0,1-.05.52,2.36,2.36,0,0,1-.25.67,2.2,2.2,0,0,1-.54.71,2.66,2.66,0,0,1-1,.53,4.81,4.81,0,0,1-1.55.22,5.12,5.12,0,0,1-1.6-.23,2.83,2.83,0,0,1-1-.54,2.27,2.27,0,0,1-.55-.72,2.54,2.54,0,0,1-.25-.68A3.08,3.08,0,0,1,187.36,42.91Zm1.5,0c0,.93.65,1.39,2,1.39h0c1.24,0,1.85-.44,1.85-1.33V41.65a9.59,9.59,0,0,0-1.42-.1,5.34,5.34,0,0,0-.69.05,4.15,4.15,0,0,0-.77.2,1.48,1.48,0,0,0-.69.41,1,1,0,0,0-.25.69Z"/><path class="cls-5" d="M196.86,44.55a5.53,5.53,0,0,1,0-6.27,3.59,3.59,0,0,1,2.84-1,6.62,6.62,0,0,1,2.41.46v1.42a5.16,5.16,0,0,0-2.25-.53h0a2.51,2.51,0,0,0-1.78.59,3.11,3.11,0,0,0-.64,2.28,4.85,4.85,0,0,0,.2,1.52,1.69,1.69,0,0,0,.56.88,2.11,2.11,0,0,0,.74.39,3.52,3.52,0,0,0,.91.09,5.3,5.3,0,0,0,2.29-.52v1.41a6.62,6.62,0,0,1-2.41.46A3.61,3.61,0,0,1,196.86,44.55Z"/><path class="cls-5" d="M204.07,45.5V34.19h1.5v3.4a6.13,6.13,0,0,1,2.16-.4,3.13,3.13,0,0,1,2.39.91,3.69,3.69,0,0,1,.85,2.59V45.5h-1.54V40.63a2,2,0,0,0-.5-1.61,2.11,2.11,0,0,0-1.33-.4,5.64,5.64,0,0,0-2.07.39V45.5Z"/><path class="cls-5" d="M213.32,36.05V34.47h1.59v1.58Zm0,9.45V37.32h1.5V45.5Z"/><path class="cls-5" d="M217.54,45.5V38a7.71,7.71,0,0,1,3.49-.84,3.49,3.49,0,0,1,2.44.81,2.85,2.85,0,0,1,.88,2.24V45.5h-1.53V40.11a1.68,1.68,0,0,0-.37-1.14,1.89,1.89,0,0,0-1.48-.41,6,6,0,0,0-1.93.29V45.5Z"/><path class="cls-5" d="M226.38,41.51q0-4.32,3.62-4.32h0a3.39,3.39,0,0,1,2.62,1,4.11,4.11,0,0,1,1,2.88v1.12H228a2.12,2.12,0,0,0,2.16,2.08h.15a5.85,5.85,0,0,0,2.82-.62v1.44a7.51,7.51,0,0,1-2.85.53h0a4.27,4.27,0,0,1-1.33-.18,4,4,0,0,1-1.19-.6,2.73,2.73,0,0,1-.9-1.27A5.78,5.78,0,0,1,226.38,41.51Zm1.51-.59h4.21a3.36,3.36,0,0,0-.14-.78,3.64,3.64,0,0,0-.33-.76,1.59,1.59,0,0,0-.64-.62,2.19,2.19,0,0,0-1-.23,2,2,0,0,0-1.52.54,3.2,3.2,0,0,0-.55,1.9Z"/><path class="cls-5" d="M241.43,45.5V34.56H243v9.51h5.44v1.42Z"/><path class="cls-5" d="M249.54,41.51q0-4.32,3.61-4.32h0a3.42,3.42,0,0,1,2.63,1,4.15,4.15,0,0,1,1,2.88v1.12h-5.69a2.12,2.12,0,0,0,2.16,2.08h.15a5.85,5.85,0,0,0,2.82-.62v1.44a7.51,7.51,0,0,1-2.85.53h0a4.27,4.27,0,0,1-1.33-.18,3.87,3.87,0,0,1-1.18-.6,2.7,2.7,0,0,1-.91-1.27A5.51,5.51,0,0,1,249.54,41.51Zm1.5-.59h4.2a4,4,0,0,0-.13-.78,3.64,3.64,0,0,0-.33-.76,1.73,1.73,0,0,0-.64-.62,2.16,2.16,0,0,0-1-.23,1.94,1.94,0,0,0-1.52.54A3.07,3.07,0,0,0,251,41Z"/><path class="cls-5" d="M258.27,42.91a2.17,2.17,0,0,1,1-1.89,5,5,0,0,1,2.83-.68,9.33,9.33,0,0,1,1.49.1,2,2,0,0,0-.57-1.49,2.61,2.61,0,0,0-1.69-.45,6.81,6.81,0,0,0-2.27.42V37.63a6.76,6.76,0,0,1,2.48-.44,3.73,3.73,0,0,1,2.65.89,3.37,3.37,0,0,1,.93,2.54V43a2.26,2.26,0,0,1,0,.52,3.4,3.4,0,0,1-.25.67,2.2,2.2,0,0,1-.54.71,2.66,2.66,0,0,1-1,.53,4.93,4.93,0,0,1-1.57.22,5,5,0,0,1-1.58-.23,3,3,0,0,1-1-.54,2.39,2.39,0,0,1-.54-.72,3.52,3.52,0,0,1-.26-.68A3.09,3.09,0,0,1,258.27,42.91Zm1.5,0c0,.93.66,1.39,2,1.39h0c1.24,0,1.86-.44,1.86-1.33V41.65a9.82,9.82,0,0,0-1.43-.1,4.27,4.27,0,0,0-1.46.25,1.48,1.48,0,0,0-.69.41,1,1,0,0,0-.24.69Z"/><path class="cls-5" d="M267.24,45.5V38a10.74,10.74,0,0,1,4-.82v1.38a10.12,10.12,0,0,0-2.5.35V45.5Z"/><path class="cls-5" d="M272.84,45.5V38a7.74,7.74,0,0,1,3.49-.84,3.47,3.47,0,0,1,2.45.81,2.89,2.89,0,0,1,.88,2.24V45.5h-1.54V40.11a1.63,1.63,0,0,0-.36-1.14,2,2,0,0,0-1.49-.41,6,6,0,0,0-1.92.29V45.5Z"/><path class="cls-5" d="M282.17,36.05V34.47h1.6v1.58Zm0,9.45V37.32h1.5V45.5Z"/><path class="cls-5" d="M286.4,45.5V38a7.68,7.68,0,0,1,3.49-.84,3.39,3.39,0,0,1,2.43.81,2.86,2.86,0,0,1,.89,2.24V45.5h-1.53V40.11a1.68,1.68,0,0,0-.37-1.14,2,2,0,0,0-1.49-.41,6,6,0,0,0-1.92.29V45.5Z"/><path class="cls-5" d="M295.37,41.35a5,5,0,0,1,.86-3,3.12,3.12,0,0,1,2.66-1.13,3.85,3.85,0,0,1,2.39.67,2.3,2.3,0,0,1,.89,1.92v6.09a3.26,3.26,0,0,1-.16,1,2.79,2.79,0,0,1-.53.91,2.27,2.27,0,0,1-1.1.7,5.6,5.6,0,0,1-1.82.25,8.63,8.63,0,0,1-2.42-.34V47a8.17,8.17,0,0,0,2.3.35,5,5,0,0,0,1.28-.14,1.31,1.31,0,0,0,.69-.4,1.35,1.35,0,0,0,.22-.45,1.85,1.85,0,0,0,0-.47v-.76a6.09,6.09,0,0,1-1.65.23,3.48,3.48,0,0,1-2.7-1A4.2,4.2,0,0,1,295.37,41.35Zm1.51,0a2.8,2.8,0,0,0,.57,2.07A2.24,2.24,0,0,0,299,44a4.49,4.49,0,0,0,1.66-.31v-4a1.61,1.61,0,0,0,0-.31,1.22,1.22,0,0,0-.18-.36,1,1,0,0,0-.55-.35,4,4,0,0,0-1-.12,2.46,2.46,0,0,0-.72.1,1.62,1.62,0,0,0-.63.37,1.71,1.71,0,0,0-.5.86,5.49,5.49,0,0,0-.21,1.56Z"/><path class="cls-1" d="M178,78.76h36.18a2.52,2.52,0,0,1,0,5H178a2.52,2.52,0,1,1-.32-5A1.71,1.71,0,0,1,178,78.76Z"/><path class="cls-1" d="M211.65,124.24V81.57a2.52,2.52,0,0,1,5,0v42.67a2.52,2.52,0,0,1-5,0Z"/><path class="cls-1" d="M187.42,69.57a2.49,2.49,0,0,0-1.63.6L175,79.37a2.5,2.5,0,0,0-.28,3.53,2.47,2.47,0,0,0,.28.28l10.77,9.21a2.51,2.51,0,1,0,3.26-3.81h0l-8.53-7.25,8.53-7.25a2.5,2.5,0,0,0,.29-3.53h0A2.51,2.51,0,0,0,187.42,69.57Z"/><path class="cls-1" d="M214.17,121.73h26.37a2.51,2.51,0,1,1,0,5H214.17a2.51,2.51,0,1,1,0-5Z"/><path class="cls-1" d="M268,148l-25.58-25.57a2.5,2.5,0,0,0-3.54,3.54l25.57,25.58A2.52,2.52,0,0,0,268,148Z"/><path class="cls-1" d="M267.92,134.87a2.43,2.43,0,0,1,.73,1.58l1.1,14.12a2.5,2.5,0,0,1-2.3,2.69,2.54,2.54,0,0,1-.39,0l-14.12-1.1a2.51,2.51,0,1,1,.39-5l11.19.87-.88-11.19a2.53,2.53,0,0,1,2.34-2.69,2.5,2.5,0,0,1,1.94.72Z"/><circle class="cls-2" cx="238.79" cy="124.51" r="6.81"/><path class="cls-3" d="M234.32,124.51a4.48,4.48,0,1,1,4.47,4.47,4.48,4.48,0,0,1-4.47-4.47m-4.68,0a9.17,9.17,0,1,0,9.17-9.16h0A9.16,9.16,0,0,0,229.64,124.51Z"/><path class="cls-6" d="M240.09,122.05V59.82a1,1,0,0,0-1.91,0h0v62.23a1,1,0,0,0,1.91,0Z"/><path class="cls-5" d="M172.15,459.8l4.37-10.94H178l4.35,10.94h-1.65l-1.17-3.1H175l-1.18,3.1Zm3.36-4.49H179l-1.74-4.55Z"/><path class="cls-5" d="M183.65,456.69a9.51,9.51,0,0,1,0-4.74,4.84,4.84,0,0,1,.79-1.61,3.77,3.77,0,0,1,1.17-1,5.18,5.18,0,0,1,1.36-.5,7.58,7.58,0,0,1,1.42-.13,9.16,9.16,0,0,1,3.35.65v1.42a7.73,7.73,0,0,0-3.17-.69,3.56,3.56,0,0,0-2.82,1,6.45,6.45,0,0,0,0,6.47,3.56,3.56,0,0,0,2.82,1,7.72,7.72,0,0,0,3.17-.68v1.41a9.22,9.22,0,0,1-3.32.66,7.4,7.4,0,0,1-1.41-.13,4.8,4.8,0,0,1-1.37-.5,3.65,3.65,0,0,1-1.17-1A4.91,4.91,0,0,1,183.65,456.69Z"/><path class="cls-5" d="M193.88,459.8V448.86h1.53V459.8Z"/><path class="cls-5" d="M198.24,459.8V448.86h3.49a5,5,0,0,1,3.83,1.39,7,7,0,0,1,0,8.17,5,5,0,0,1-3.83,1.38Zm1.53-1.34h1.72a3.89,3.89,0,0,0,2.94-1,5.69,5.69,0,0,0,0-6.26,3.85,3.85,0,0,0-2.94-1h-1.68Z"/><path class="cls-5" d="M213.64,450.29v-1.43h8.89v1.43h-3.69v9.51H217.3v-9.51Z"/><path class="cls-5" d="M223,459.8v-7.49a10.51,10.51,0,0,1,4-.82v1.38a10,10,0,0,0-2.49.34v6.59Z"/><path class="cls-5" d="M228.05,457.21a2.15,2.15,0,0,1,1-1.89,5,5,0,0,1,2.82-.68,12.29,12.29,0,0,1,1.49.09,2,2,0,0,0-.57-1.48,2.52,2.52,0,0,0-1.68-.45,7,7,0,0,0-2.27.41v-1.29a7,7,0,0,1,2.47-.43,3.69,3.69,0,0,1,2.64.88,3.35,3.35,0,0,1,.94,2.55v2.36a2.26,2.26,0,0,1,0,.52,3,3,0,0,1-.25.67,2.32,2.32,0,0,1-.53.71,2.78,2.78,0,0,1-1,.53,5.45,5.45,0,0,1-1.56.22,5,5,0,0,1-1.58-.23,3.1,3.1,0,0,1-1-.53,2.27,2.27,0,0,1-.55-.72,2.46,2.46,0,0,1-.26-.7A3.06,3.06,0,0,1,228.05,457.21Zm1.5,0c0,.94.66,1.39,2,1.39h0c1.23,0,1.85-.44,1.85-1.32v-1.35a9.73,9.73,0,0,0-1.43-.1,3.91,3.91,0,0,0-.68.06,7.38,7.38,0,0,0-.78.19,1.5,1.5,0,0,0-.69.42,1,1,0,0,0-.24.69Z"/><path class="cls-5" d="M237.09,459.8v-7.49a7.71,7.71,0,0,1,3.49-.84,3.43,3.43,0,0,1,2.44.8,2.89,2.89,0,0,1,.88,2.25v5.28h-1.53v-5.39a1.67,1.67,0,0,0-.36-1.14,2,2,0,0,0-1.49-.43,6.59,6.59,0,0,0-1.93.3v6.66Z"/><path class="cls-5" d="M245.94,453.92a2.4,2.4,0,0,1,.73-1.73,3.09,3.09,0,0,1,2.22-.7,4.78,4.78,0,0,1,2.19.53v1.3a4.84,4.84,0,0,0-2-.49c-1,0-1.63.35-1.63,1,0,.23.15.41.44.57a5,5,0,0,0,1,.39c.41.13.81.26,1.22.43a2.29,2.29,0,0,1,1,.82,2.42,2.42,0,0,1-.3,3.1,3.22,3.22,0,0,1-2.31.72,5,5,0,0,1-2.36-.57V458a4.61,4.61,0,0,0,2.27.6h0a2.09,2.09,0,0,0,1.2-.28.87.87,0,0,0,.41-.72.93.93,0,0,0-.43-.81,3,3,0,0,0-1-.49c-.4-.11-.81-.24-1.23-.38a2.31,2.31,0,0,1-1-.71A1.85,1.85,0,0,1,245.94,453.92Z"/><path class="cls-5" d="M253.17,457.21a2.15,2.15,0,0,1,1-1.89,5,5,0,0,1,2.82-.68,10.55,10.55,0,0,1,1.49.09,2,2,0,0,0-.57-1.48,2.52,2.52,0,0,0-1.68-.45,7,7,0,0,0-2.27.41v-1.29a7,7,0,0,1,2.47-.43,3.65,3.65,0,0,1,2.65.88,3.35,3.35,0,0,1,.94,2.55v2.36a4.51,4.51,0,0,1,0,.52,5.4,5.4,0,0,1-.25.67,2.2,2.2,0,0,1-.54.71,2.7,2.7,0,0,1-1,.53,5.12,5.12,0,0,1-1.56.22,5,5,0,0,1-1.58-.23,3.1,3.1,0,0,1-1-.53,2.42,2.42,0,0,1-.55-.72,3.46,3.46,0,0,1-.26-.7A3.06,3.06,0,0,1,253.17,457.21Zm1.49,0c0,.94.66,1.39,2,1.39h0c1.23,0,1.85-.44,1.85-1.32v-1.35a9.73,9.73,0,0,0-1.43-.1,3.91,3.91,0,0,0-.68.06,7.38,7.38,0,0,0-.78.19,1.42,1.42,0,0,0-.68.42,1,1,0,0,0-.22.69Z"/><path class="cls-5" d="M262.67,458.85a5.56,5.56,0,0,1,0-6.29,3.58,3.58,0,0,1,2.83-1,6.27,6.27,0,0,1,2.42.46v1.42a5,5,0,0,0-2.25-.53h0a2.44,2.44,0,0,0-1.77.58,3.07,3.07,0,0,0-.64,2.28,5.23,5.23,0,0,0,.18,1.52,1.91,1.91,0,0,0,.56.89,2.26,2.26,0,0,0,.76.38,3.47,3.47,0,0,0,.91.09,5.32,5.32,0,0,0,2.28-.52v1.42a6.66,6.66,0,0,1-2.42.45A3.62,3.62,0,0,1,262.67,458.85Z"/><path class="cls-5" d="M269.29,452.9v-1.29h1.43v-2.42h1.5v2.42h2.15v1.29h-2.18v4.73c0,.63.41.95,1.21.95h0a1.7,1.7,0,0,0,1-.24v1.36a3.08,3.08,0,0,1-1,.27h0a3.38,3.38,0,0,1-.63-.07,3.88,3.88,0,0,1-.81-.28,1.65,1.65,0,0,1-.76-.74,2.58,2.58,0,0,1-.32-1.3v-4.64Z"/><path class="cls-5" d="M276.44,450.35v-1.6H278v1.6Zm0,9.45v-8.19h1.5v8.19Z"/><path class="cls-5" d="M280.43,457.82a6.76,6.76,0,0,1,0-4.22,3,3,0,0,1,.95-1.3,3.76,3.76,0,0,1,1.27-.62,5.23,5.23,0,0,1,2.72,0,3.7,3.7,0,0,1,1.22.62,2.81,2.81,0,0,1,1,1.3,6.76,6.76,0,0,1,0,4.22,2.77,2.77,0,0,1-1,1.31,3.7,3.7,0,0,1-1.22.62,5.23,5.23,0,0,1-2.72,0,3.8,3.8,0,0,1-1.22-.62A2.89,2.89,0,0,1,280.43,457.82Zm1.37-3.62a6.7,6.7,0,0,0,0,3,1.79,1.79,0,0,0,.54.88,2,2,0,0,0,.72.39,4.54,4.54,0,0,0,1.8,0,2,2,0,0,0,.72-.39,1.62,1.62,0,0,0,.54-.88,6.17,6.17,0,0,0,0-3,1.79,1.79,0,0,0-.54-.88,2.27,2.27,0,0,0-.72-.38,4.2,4.2,0,0,0-1.8,0,2.17,2.17,0,0,0-.72.38A1.84,1.84,0,0,0,281.8,454.2Z"/><path class="cls-5" d="M289.72,459.8v-7.49a7.71,7.71,0,0,1,3.49-.84,3.53,3.53,0,0,1,2.44.8,2.89,2.89,0,0,1,.88,2.25v5.28H295v-5.39a1.62,1.62,0,0,0-.37-1.14,2,2,0,0,0-1.48-.43,6.37,6.37,0,0,0-1.93.3v6.66Z"/><path class="cls-5" d="M298.57,453.92a2.36,2.36,0,0,1,.73-1.73,3.12,3.12,0,0,1,2.22-.7,4.78,4.78,0,0,1,2.19.53v1.3a4.84,4.84,0,0,0-2-.49c-1.09,0-1.62.35-1.62,1,0,.23.14.41.43.57a4.83,4.83,0,0,0,1,.39c.4.13.81.26,1.22.43a2.36,2.36,0,0,1,1,.82,2.4,2.4,0,0,1-.31,3.1,3.24,3.24,0,0,1-2.3.72,4.87,4.87,0,0,1-2.36-.57V458a4.53,4.53,0,0,0,2.27.6h0a2.06,2.06,0,0,0,1.19-.28.84.84,0,0,0,.42-.72,1,1,0,0,0-.43-.81,3.26,3.26,0,0,0-1-.49c-.42-.11-.82-.24-1.24-.38a2.31,2.31,0,0,1-1-.71A1.91,1.91,0,0,1,298.57,453.92Z"/><path class="cls-1" d="M178,416.14h36.18a2.51,2.51,0,0,0,0-5H178a2.51,2.51,0,0,0,0,5Z"/><path class="cls-1" d="M211.68,370.67v42.67a2.51,2.51,0,1,0,5,0h0V370.67a2.51,2.51,0,0,0-5,0Z"/><path class="cls-1" d="M187.44,425.35a2.54,2.54,0,0,1-1.63-.6l-10.76-9.21a2.49,2.49,0,0,1-.28-3.53,1.85,1.85,0,0,1,.28-.28l10.76-9.21a2.51,2.51,0,0,1,3.26,3.82l-8.53,7.34,8.53,7.24a2.51,2.51,0,0,1,.27,3.54,2.55,2.55,0,0,1-1.9.88Z"/><path class="cls-1" d="M214.19,373.18h26.38a2.51,2.51,0,1,0,0-5H214.19a2.51,2.51,0,0,0,0,5Z"/><path class="cls-1" d="M268.09,346.87l-25.57,25.57a2.52,2.52,0,1,1-3.77-3.33,2.28,2.28,0,0,1,.22-.22l25.57-25.57a2.52,2.52,0,0,1,3.77,3.33A2.28,2.28,0,0,1,268.09,346.87Z"/><path class="cls-1" d="M267.9,360a2.57,2.57,0,0,0,.72-1.58l1.11-14.16a2.53,2.53,0,0,0-2.34-2.7,2.16,2.16,0,0,0-.36,0l-14.12,1.11a2.51,2.51,0,1,0,.39,5h0l11.19-.87L263.62,358a2.5,2.5,0,0,0,2.29,2.7,2.53,2.53,0,0,0,2-.73Z"/><circle class="cls-2" cx="238.19" cy="370.41" r="6.81"/><path class="cls-3" d="M233.72,370.41a4.47,4.47,0,1,1,4.47,4.47,4.47,4.47,0,0,1-4.47-4.47m-4.7,0a9.17,9.17,0,1,0,9.17-9.17,9.17,9.17,0,0,0-9.17,9.17Z"/><path class="cls-6" d="M239.1,431.67v-62.2a1,1,0,0,0-1.91,0v62.2a1,1,0,0,0,1.91,0Z"/><path class="cls-1" d="M256.4,225.08a2.5,2.5,0,0,1,1.63.6l10.77,9.21a2.5,2.5,0,0,1,.27,3.53,2.37,2.37,0,0,1-.27.28L258,247.9a2.51,2.51,0,1,1-3.26-3.81l8.53-7.25-8.53-7.3a2.5,2.5,0,0,1,1.63-4.41Z"/><path class="cls-1" d="M196.83,234.28H266a2.51,2.51,0,0,1,0,5H196.83a2.51,2.51,0,0,1,0-5Z"/><path class="cls-1" d="M206.14,248.5a2.48,2.48,0,0,1-1.62-.6l-10.77-9.2a2.52,2.52,0,0,1-.28-3.54,1.79,1.79,0,0,1,.28-.27l10.77-9.21a2.51,2.51,0,0,1,3.26,3.81l-8.53,7.3,8.53,7.25a2.5,2.5,0,0,1-1.64,4.41Z"/><path class="cls-5" d="M217,294.15A2.88,2.88,0,0,1,218,292a4,4,0,0,1,2.88-.9,6.12,6.12,0,0,1,2.82.66v1.49a5,5,0,0,0-2.63-.72c-1.66,0-2.48.55-2.48,1.65a.94.94,0,0,0,.43.78,3.79,3.79,0,0,0,1,.53c.42.13.9.31,1.4.52a12,12,0,0,1,1.4.67,2.94,2.94,0,0,1,1.51,2.64,2.56,2.56,0,0,1-1,2.19,4.67,4.67,0,0,1-2.9.79,7.13,7.13,0,0,1-3.26-.79v-1.57a5.89,5.89,0,0,0,3.1.93c1.7,0,2.55-.51,2.56-1.55a1.57,1.57,0,0,0-.43-1.13,2.48,2.48,0,0,0-1-.68l-1.41-.48a14.63,14.63,0,0,1-1.4-.55,2.51,2.51,0,0,1-1-.87A2.36,2.36,0,0,1,217,294.15Z"/><path class="cls-5" d="M226.08,296.71a7.81,7.81,0,0,1,.33-2.35,4.61,4.61,0,0,1,.79-1.62,4.16,4.16,0,0,1,1.19-1,5.17,5.17,0,0,1,1.37-.52,8.58,8.58,0,0,1,2.86,0,5,5,0,0,1,1.35.52,3.88,3.88,0,0,1,1.19,1,4.64,4.64,0,0,1,.8,1.62,7.49,7.49,0,0,1,.32,2.35,7.91,7.91,0,0,1-.36,2.55,4.08,4.08,0,0,1-1,1.7,5,5,0,0,1-1.35.92,5.67,5.67,0,0,1-1.56.39,1.63,1.63,0,0,0,.43,1.13,1.56,1.56,0,0,0,1.2.49V305a3.13,3.13,0,0,1-2.24-.8,2.6,2.6,0,0,1-.9-2,5.62,5.62,0,0,1-1.61-.37,4.57,4.57,0,0,1-1.4-.89,4.08,4.08,0,0,1-1-1.71A8,8,0,0,1,226.08,296.71Zm1.76-1.87a6.56,6.56,0,0,0-.22,1.87,6.7,6.7,0,0,0,.22,1.89,4,4,0,0,0,.55,1.23,2.55,2.55,0,0,0,.83.7,3.21,3.21,0,0,0,.94.34,6.8,6.8,0,0,0,2.08,0,3,3,0,0,0,.95-.34,2.58,2.58,0,0,0,.84-.7,3.71,3.71,0,0,0,.56-1.23,7.51,7.51,0,0,0,.21-1.89,7.35,7.35,0,0,0-.21-1.87,4.08,4.08,0,0,0-.55-1.22,2.4,2.4,0,0,0-.84-.71,3.27,3.27,0,0,0-.95-.34,7.25,7.25,0,0,0-2.08,0,3.21,3.21,0,0,0-.94.34,2.46,2.46,0,0,0-.83.71,3.52,3.52,0,0,0-.52,1.17Z"/><path class="cls-5" d="M238.58,302.15v-11h1.52v9.53h5.44v1.43Z"/><path class="cls-2" d="M238.09,236.79a6.83,6.83,0,1,1-6.84-6.81h0A6.83,6.83,0,0,1,238.09,236.79Z"/><path class="cls-3" d="M226.8,236.79a4.48,4.48,0,1,1,4.47,4.47h0a4.47,4.47,0,0,1-4.46-4.47m-4.69,0a9.17,9.17,0,1,0,9.16-9.16h0A9.15,9.15,0,0,0,222.11,236.79Z"/><path class="cls-6" d="M233.25,279.31V235.82a1,1,0,0,0-.95-1,1,1,0,0,0-1,.95h0v43.49a1,1,0,0,0,1.91,0Z"/><path class="cls-4" d="M627.24,245.63c-12.21,0-24.86,2.76-24.86,7.4v42.46a2.77,2.77,0,0,0,.54,1.59,5.12,5.12,0,0,0,.6.71c3.16,3,12.69,5.09,23.7,5.09s20.56-2.07,23.71-5.09a4.16,4.16,0,0,0,.61-.71,2.84,2.84,0,0,0,.54-1.59V253C652.09,248.39,639.44,245.63,627.24,245.63Z"/><path class="cls-1" d="M651.44,250c-1.48-1.34-4.14-2.45-7.45-3.29l-.46-.11-1.51-.33-.37-.08-1.74-.32c-.6-.1-1.51-.24-2.3-.34l-1.11-.13a81.85,81.85,0,0,0-9.26-.52h0c-12.53,0-25.48,2.84-25.48,7.59h0v43.57a3,3,0,0,0,.54,1.65,6,6,0,0,0,.62.71c3.24,3.11,13,5.18,24.32,5.18s21.08-2.07,24.31-5.18a5.5,5.5,0,0,0,.63-.73,2.92,2.92,0,0,0,.54-1.64V252.5A3.4,3.4,0,0,0,651.44,250Zm-46.17,2.39.18-.16.24-.16.25-.15.31-.19.32-.16.4-.2.38-.16.49-.2.46-.17c.17-.07.36-.13.56-.19l.51-.18.65-.19.58-.16.71-.19.64-.15.79-.18.7-.16.86-.15.76-.15,1-.17.8-.13,1-.12.84-.1,1.13-.12.85-.08,1.24-.08.85-.07,1.45-.06h6.11l1.45.06.85.07,1.24.08.86.08,1.12.12.84.1,1,.12.81.13.93.14.76.15.86.15.7.16.79.18.65.15.71.19.59.16.63.19.53.17.55.2.46.17.48.19.39.17.39.2.33.16.32.19.25.15.23.18.18.16.07.08c-2.17,2.07-10.62,4.3-22,4.3s-19.9-2.22-22-4.28h0Zm44,43.65c-2.16,2.07-10.62,4.31-22,4.31s-19.88-2.22-22.06-4.34l-.13-.15V256.32c4.39,2.3,12.74,3.77,22.19,3.77s17.79-1.47,22.19-3.77v39.57Z"/><path d="M599.57,326.11V313.68h2l7.17,9.93-.57,1.12V313.68h2v12.43h-1.84L600.88,316l.65-.91v11.05Z"/><path d="M617,326.39a4.21,4.21,0,0,1-3.38-1.29,5.44,5.44,0,0,1-1.11-3.67,5.16,5.16,0,0,1,1.15-3.72,4.37,4.37,0,0,1,3.3-1.18,5.13,5.13,0,0,1,2.56.57,3.48,3.48,0,0,1,1.49,1.67,6.62,6.62,0,0,1,.48,2.66,5.3,5.3,0,0,1-1.16,3.66A4.24,4.24,0,0,1,617,326.39Zm0-1.66a2.44,2.44,0,0,0,1.51-.42,2.34,2.34,0,0,0,.81-1.16,6.23,6.23,0,0,0,0-3.53,2.08,2.08,0,0,0-.82-1.09,2.72,2.72,0,0,0-1.49-.36,2.55,2.55,0,0,0-1.49.39,2.17,2.17,0,0,0-.8,1.12,5.6,5.6,0,0,0-.24,1.75,4.31,4.31,0,0,0,.58,2.42A2.14,2.14,0,0,0,616.94,324.73Z"/><path d="M627.62,326.32a11.24,11.24,0,0,1-1.64-.11,5.85,5.85,0,0,1-1.28-.32,12.41,12.41,0,0,1-1.2-.54V323.3a6.4,6.4,0,0,0,1.76.95,6.77,6.77,0,0,0,2.23.37,2.65,2.65,0,0,0,1.73-.48,1.62,1.62,0,0,0,.56-1.31,1.36,1.36,0,0,0-.42-1.05,3.28,3.28,0,0,0-1.1-.68c-.46-.19-1-.38-1.48-.56s-.79-.31-1.17-.48a4.5,4.5,0,0,1-1-.63,2.73,2.73,0,0,1-.75-1,3.41,3.41,0,0,1-.28-1.47,3.51,3.51,0,0,1,.24-1.25,3.38,3.38,0,0,1,.74-1.15,3.58,3.58,0,0,1,1.3-.82,5.62,5.62,0,0,1,1.95-.31,8.09,8.09,0,0,1,1.3.1,5.16,5.16,0,0,1,1,.29c.33.13.69.29,1.07.47v2c-.31-.19-.62-.38-.94-.55a5,5,0,0,0-1-.43,4.82,4.82,0,0,0-1.25-.19,3.25,3.25,0,0,0-1.29.19,1.62,1.62,0,0,0-.76.58,1.38,1.38,0,0,0-.26.85,1.54,1.54,0,0,0,.32,1,2.54,2.54,0,0,0,.93.63,13.23,13.23,0,0,0,1.37.49q.69.22,1.35.51a4.66,4.66,0,0,1,1.15.68,3,3,0,0,1,.81,1,3.15,3.15,0,0,1,.31,1.48,3.9,3.9,0,0,1-.44,1.81,3.28,3.28,0,0,1-1.38,1.38A4.86,4.86,0,0,1,627.62,326.32Z"/><path d="M639.62,326.37a5.54,5.54,0,0,1-4.31-1.6,7,7,0,0,1-1.46-4.87,7.13,7.13,0,0,1,1.44-4.85,5.47,5.47,0,0,1,4.33-1.63A5.57,5.57,0,0,1,644,315a7,7,0,0,1,1.47,4.88,7.12,7.12,0,0,1-1.44,4.84A5.53,5.53,0,0,1,639.62,326.37Zm0-1.6a4.34,4.34,0,0,0,2.08-.52,3,3,0,0,0,1.21-1.54,8.33,8.33,0,0,0,.39-2.83,7.87,7.87,0,0,0-.4-2.73,3,3,0,0,0-1.22-1.52,4.64,4.64,0,0,0-4.11,0,3,3,0,0,0-1.22,1.53,8,8,0,0,0-.4,2.74,8.46,8.46,0,0,0,.4,2.83,2.94,2.94,0,0,0,1.22,1.55A3.91,3.91,0,0,0,639.62,324.77Zm4.63,1.69a2.18,2.18,0,0,0,.52-.06,2.54,2.54,0,0,0,.63-.31v1.47a2.55,2.55,0,0,1-.75.28,3.86,3.86,0,0,1-.72.08,2.91,2.91,0,0,1-.89-.14,3,3,0,0,1-.8-.41,2.89,2.89,0,0,1-.68-.71,4.49,4.49,0,0,1-.5-1,7.92,7.92,0,0,0-.51-1.17,3.18,3.18,0,0,0-.69-.86,1.56,1.56,0,0,0-1-.32,2.32,2.32,0,0,0-1.16.29,3.6,3.6,0,0,0-.89.77v-1.59a3.6,3.6,0,0,1,.92-.68,2.88,2.88,0,0,1,1.45-.34,3,3,0,0,1,1.48.38,3.84,3.84,0,0,1,1.15,1.06,5.72,5.72,0,0,1,.81,1.6,4.94,4.94,0,0,0,.74,1.27A1.14,1.14,0,0,0,644.25,326.46Z"/><path d="M647.86,326.11V313.68h2.07v10.68h5.93v1.75Z"/><path class="cls-4" d="M627.59,44.42c-12.21,0-24.85,2.78-24.85,7.4V94.28a2.63,2.63,0,0,0,.54,1.59,3.7,3.7,0,0,0,.6.71c3.16,3,12.68,5.1,23.7,5.1s20.55-2.07,23.7-5.09a4.16,4.16,0,0,0,.61-.72,2.77,2.77,0,0,0,.54-1.59V51.82C652.44,47.2,639.77,44.42,627.59,44.42Z"/><path class="cls-1" d="M651.8,48.81c-1.48-1.33-4.14-2.44-7.46-3.28l-.45-.11c-.49-.13-1-.23-1.51-.35L642,45l-1.73-.32c-.75-.12-1.52-.24-2.3-.34l-1.11-.14a82,82,0,0,0-9.27-.51h0c-12.52,0-25.47,2.83-25.47,7.59h0V94.86a2.73,2.73,0,0,0,.54,1.63,4.71,4.71,0,0,0,.62.72c3.24,3.1,13,5.24,24.31,5.24s21.08-2.07,24.31-5.18a4.28,4.28,0,0,0,.63-.72,2.85,2.85,0,0,0,.54-1.64V51.28A3.36,3.36,0,0,0,651.8,48.81Zm-46.2,2.38.17-.14a1.88,1.88,0,0,1,.24-.18l.25-.16.31-.19.32-.17.41-.18.39-.18.48-.19.45-.17.56-.2.53-.16a5.8,5.8,0,0,1,.63-.2l.58-.17.71-.18.65-.16.78-.17.71-.15.86-.16.75-.14.94-.15.8-.12,1-.13.84-.11,1.13-.11.84-.07c.41,0,.83-.06,1.25-.09l.85-.06c.47,0,1,0,1.46-.06h6.09a11.56,11.56,0,0,1,1.45.06l.85.06a5.8,5.8,0,0,1,1.25.09l.86.07,1.11.11.84.11,1,.13.81.12.93.15.76.14.85.16.71.15.78.17.66.16.7.18.59.17.63.2.53.16.55.2a1.19,1.19,0,0,1,.46.18l.48.18.39.18.4.18.32.17.32.19.25.16.24.18.17.14.07.09c-2.17,2.07-10.62,4.3-22,4.3s-19.91-2.22-22-4.28h0Zm44,43.67c-2.16,2.07-10.62,4.29-22,4.29s-19.87-2.21-22.06-4.33l-.13-.15V55.1c4.39,2.3,12.75,3.77,22.19,3.77s17.8-1.46,22.2-3.77V94.68a.59.59,0,0,1-.14.18Z"/><path d="M597.64,125.54V113.11h5.52a4.25,4.25,0,0,1,3,.94,3.6,3.6,0,0,1,1,2.8,4.08,4.08,0,0,1-.39,1.79,3.39,3.39,0,0,1-1.14,1.35,3.55,3.55,0,0,1-1.77.59l.22-.63,3.69,5.59h-2.55L601.78,120l1,.87h-3v4.7Zm2.05-6.37h2.89a2.7,2.7,0,0,0,1.84-.54A2.11,2.11,0,0,0,605,117a2.36,2.36,0,0,0-.48-1.59,2.06,2.06,0,0,0-1.63-.56h-3.23Z"/><path d="M610,125.54V113.11h4.36a5.9,5.9,0,0,1,4.49,1.56,8.09,8.09,0,0,1,0,9.3,5.86,5.86,0,0,1-4.49,1.57Zm2.05-1.73h2.11a4,4,0,0,0,3.07-1.07,6.4,6.4,0,0,0,0-6.84,4,4,0,0,0-3.07-1.08h-2.11Z"/><path d="M622.82,125.54V113.11h4.61a6.29,6.29,0,0,1,2.45.41,2.88,2.88,0,0,1,1.39,1.16,3.48,3.48,0,0,1,.44,1.8,2.43,2.43,0,0,1-.31,1.32,2.61,2.61,0,0,1-.76.79l-.83.56-.24-.43a4.32,4.32,0,0,1,1.36.51,3.13,3.13,0,0,1,1.07,1,3.06,3.06,0,0,1,.42,1.65,3.47,3.47,0,0,1-.57,2.07,3.33,3.33,0,0,1-1.62,1.18,6.94,6.94,0,0,1-2.37.37Zm2-7.25h2.8a3.59,3.59,0,0,0,.93-.12,1.44,1.44,0,0,0,.75-.48,1.56,1.56,0,0,0,.3-1,1.59,1.59,0,0,0-.59-1.43,2.86,2.86,0,0,0-1.56-.38h-2.63Zm0,5.54h3a4.79,4.79,0,0,0,1.22-.16,1.74,1.74,0,0,0,.91-.6,2,2,0,0,0,.35-1.24,1.91,1.91,0,0,0-.23-1,1.58,1.58,0,0,0-.58-.57,2.72,2.72,0,0,0-.82-.26,7.07,7.07,0,0,0-.91-.06h-2.89Z"/><path d="M634.86,125.54V113.11H637l4.45,6.58-1.21.15,4.68-6.73H647v12.43h-2V114.86l.57.39-4.73,6.54-4.51-6.48.54-.6v10.83Z"/><path d="M653.78,125.75a11.24,11.24,0,0,1-1.64-.11,5.85,5.85,0,0,1-1.28-.32,12.41,12.41,0,0,1-1.2-.54v-2a6.4,6.4,0,0,0,1.76,1,6.52,6.52,0,0,0,2.23.37,2.65,2.65,0,0,0,1.73-.48,1.62,1.62,0,0,0,.56-1.31,1.38,1.38,0,0,0-.42-1.05,3.28,3.28,0,0,0-1.1-.68c-.46-.19-.95-.38-1.48-.56s-.79-.31-1.17-.48a4.5,4.5,0,0,1-1-.63,2.73,2.73,0,0,1-.75-1,3.41,3.41,0,0,1-.28-1.47,3.51,3.51,0,0,1,.24-1.25,3.38,3.38,0,0,1,.74-1.15,3.58,3.58,0,0,1,1.3-.82,5.62,5.62,0,0,1,1.95-.31,8.09,8.09,0,0,1,1.3.1,5.16,5.16,0,0,1,1,.29c.33.13.69.29,1.07.47v2c-.31-.19-.62-.38-.94-.55a5,5,0,0,0-1-.43,4.82,4.82,0,0,0-1.25-.19,3.25,3.25,0,0,0-1.29.19,1.67,1.67,0,0,0-.76.57,1.43,1.43,0,0,0-.26.86,1.6,1.6,0,0,0,.32,1,2.54,2.54,0,0,0,.93.63,13.23,13.23,0,0,0,1.37.49q.69.23,1.35.51a4.66,4.66,0,0,1,1.15.68,3,3,0,0,1,.81,1,3.15,3.15,0,0,1,.31,1.48,3.9,3.9,0,0,1-.44,1.81,3.28,3.28,0,0,1-1.38,1.38A4.86,4.86,0,0,1,653.78,125.75Z"/><path class="cls-4" d="M628,347.36c-12.22,0-24.85,2.76-24.85,7.39v42.46a2.75,2.75,0,0,0,.52,1.59,8.32,8.32,0,0,0,.6.71c3.17,3,12.69,5.09,23.72,5.09s20.55-2.07,23.7-5.09a4.58,4.58,0,0,0,.61-.71,2.76,2.76,0,0,0,.53-1.59V354.75C652.82,350.12,640.15,347.36,628,347.36Z"/><path class="cls-1" d="M652.14,351.3c-1.47-1.35-4.14-2.46-7.44-3.3l-.47-.11-1.5-.33-.37-.07-1.74-.32c-.75-.13-1.52-.24-2.31-.35l-1.11-.13a81.85,81.85,0,0,0-9.26-.52h0c-12.52,0-25.48,2.84-25.48,7.59h0v43.57A2.89,2.89,0,0,0,603,399a6.06,6.06,0,0,0,.62.71c3.24,3.11,13,5.23,24.31,5.23s21.09-2.07,24.32-5.17a4.87,4.87,0,0,0,.62-.74,2.83,2.83,0,0,0,.55-1.64V353.76A3.31,3.31,0,0,0,652.14,351.3ZM606,353.69l.18-.16.23-.17.25-.16L607,353l.32-.17.4-.2.39-.16.48-.2.46-.16.55-.2.52-.18.64-.18.59-.17.71-.19.64-.15.79-.18.7-.15.86-.16.76-.14.94-.15.8-.12,1-.13.84-.1,1.13-.11.85-.09,1.24-.08.85-.06,1.41,0H631l1.46.06.85.06,1.24.08.85.09,1.13.11.84.1,1,.13.8.12.94.15.76.14.86.16.7.15.79.18.64.15.71.19.58.17.65.18.51.18a4.08,4.08,0,0,1,.56.2l.46.16.49.2.38.16.4.2.32.17.32.18.25.16.23.17.18.16.07.08c-2.16,2.07-10.61,4.3-22.05,4.3s-19.89-2.22-22-4.28h0Zm44,43.65c-2.15,2.07-10.61,4.31-22,4.31s-19.86-2.22-22.06-4.34l-.12-.14V357.58c4.39,2.3,12.73,3.77,22.18,3.77s17.81-1.47,22.2-3.77v39.6a.8.8,0,0,1-.17.15Z"/><path d="M584.51,428.14a6.37,6.37,0,0,1-3.14-.71,4.62,4.62,0,0,1-2-2.12,8.47,8.47,0,0,1-.67-3.58,6.91,6.91,0,0,1,1.49-4.81,5.5,5.5,0,0,1,4.29-1.62,6.49,6.49,0,0,1,3.15.71,4.64,4.64,0,0,1,2,2.13,8.39,8.39,0,0,1,.68,3.59,6.92,6.92,0,0,1-1.48,4.79A5.57,5.57,0,0,1,584.51,428.14Zm0-1.77a4.1,4.1,0,0,0,2.06-.47,2.92,2.92,0,0,0,1.21-1.5,7.48,7.48,0,0,0,.4-2.69,7.25,7.25,0,0,0-.4-2.65,2.85,2.85,0,0,0-1.21-1.49,4.64,4.64,0,0,0-4.11,0,3,3,0,0,0-1.22,1.51,7.25,7.25,0,0,0-.4,2.65,7.44,7.44,0,0,0,.4,2.67,2.88,2.88,0,0,0,1.22,1.5A4.12,4.12,0,0,0,584.51,426.37Z"/><path d="M596,428.18a2.85,2.85,0,0,1-2-.67,2.56,2.56,0,0,1-.74-2V420.2h-1.51v-1.62h1.51V416h2v2.61h2.27v1.62h-2.27v4.94a1.65,1.65,0,0,0,.23,1,1,1,0,0,0,.87.33,2.28,2.28,0,0,0,.63-.09,1.9,1.9,0,0,0,.54-.21v1.73a3.23,3.23,0,0,1-.76.23A5.64,5.64,0,0,1,596,428.18Z"/><path d="M599.81,427.94V414.63h2V420l-.58-.48a6.78,6.78,0,0,1,1.61-.82,5.39,5.39,0,0,1,1.73-.3,4.18,4.18,0,0,1,1.88.38,2.69,2.69,0,0,1,1.22,1.21,4.67,4.67,0,0,1,.44,2.17v5.8h-2v-5.56a2.51,2.51,0,0,0-.54-1.73,2,2,0,0,0-1.6-.6,4.08,4.08,0,0,0-1.13.17,4.84,4.84,0,0,0-1.07.45l0,7.27Z"/><path d="M614.85,428.22a4.91,4.91,0,0,1-2.39-.56,3.77,3.77,0,0,1-1.57-1.66,6,6,0,0,1-.55-2.68,5.32,5.32,0,0,1,1.15-3.7,4.73,4.73,0,0,1,5.64-.59,3.78,3.78,0,0,1,1.35,1.87,8.29,8.29,0,0,1,.4,2.81h-7.36l-.06-1.46h5.93l-.47.47a3.48,3.48,0,0,0-.59-2.1,2.07,2.07,0,0,0-1.7-.66,2.42,2.42,0,0,0-1.27.31,1.88,1.88,0,0,0-.79,1,6.07,6.07,0,0,0-.27,2,3.43,3.43,0,0,0,.73,2.38,2.72,2.72,0,0,0,2.14.81,6.23,6.23,0,0,0,1.18-.11,6.83,6.83,0,0,0,1-.29c.31-.12.58-.23.8-.34v1.8a7.71,7.71,0,0,1-1.47.46A8.66,8.66,0,0,1,614.85,428.22Z"/><path d="M621.13,427.94v-8.5a6.48,6.48,0,0,1,.9-.41,10,10,0,0,1,1.55-.46,8.4,8.4,0,0,1,1.8-.19,3.31,3.31,0,0,1,.77.07,3.22,3.22,0,0,1,.5.17v1.56l-.89-.08a7.37,7.37,0,0,0-.94,0l-.91.08-.82.12v7.64Z"/><path d="M637.76,428.14a11.36,11.36,0,0,1-1.64-.1,6.08,6.08,0,0,1-1.29-.33,9.42,9.42,0,0,1-1.19-.54v-2.05a5.79,5.79,0,0,0,1.76.95,6.49,6.49,0,0,0,2.23.38,2.61,2.61,0,0,0,1.72-.48,1.61,1.61,0,0,0,.57-1.31,1.4,1.4,0,0,0-.42-1.06,3.69,3.69,0,0,0-1.11-.68l-1.47-.56c-.4-.14-.79-.3-1.17-.47a4.57,4.57,0,0,1-1-.63,2.71,2.71,0,0,1-.74-1,3.41,3.41,0,0,1-.28-1.47,3.51,3.51,0,0,1,.24-1.25,3.29,3.29,0,0,1,.74-1.15,3.58,3.58,0,0,1,1.3-.82,5.39,5.39,0,0,1,1.95-.31,6.9,6.9,0,0,1,1.29.1,5.06,5.06,0,0,1,1,.28c.33.14.68.29,1.07.48v2c-.31-.2-.62-.38-.94-.56a5.38,5.38,0,0,0-1-.42,4.37,4.37,0,0,0-1.25-.19,3.17,3.17,0,0,0-1.28.19,1.63,1.63,0,0,0-.77.57,1.67,1.67,0,0,0,.07,1.89,2.39,2.39,0,0,0,.92.64,14.38,14.38,0,0,0,1.38.49,14.27,14.27,0,0,1,1.34.51,4.72,4.72,0,0,1,1.16.68,2.92,2.92,0,0,1,.81,1,3.15,3.15,0,0,1,.31,1.48,3.9,3.9,0,0,1-.44,1.81,3.28,3.28,0,0,1-1.38,1.38A4.89,4.89,0,0,1,637.76,428.14Z"/><path d="M647.71,428.18a2.85,2.85,0,0,1-2-.67,2.56,2.56,0,0,1-.74-2V420.2h-1.51v-1.62H645V416h2v2.61h2.27v1.62H647v4.94a1.65,1.65,0,0,0,.23,1,1,1,0,0,0,.86.33,2.3,2.3,0,0,0,.64-.09,1.9,1.9,0,0,0,.54-.21v1.73a3.23,3.23,0,0,1-.76.23A5.64,5.64,0,0,1,647.71,428.18Z"/><path d="M655.54,428.22a4.21,4.21,0,0,1-3.38-1.29,5.46,5.46,0,0,1-1.11-3.67,5.21,5.21,0,0,1,1.14-3.72,4.41,4.41,0,0,1,3.31-1.18,5.19,5.19,0,0,1,2.56.57,3.5,3.5,0,0,1,1.49,1.66,6.71,6.71,0,0,1,.48,2.67,5.3,5.3,0,0,1-1.16,3.66A4.24,4.24,0,0,1,655.54,428.22Zm0-1.66a2.46,2.46,0,0,0,1.51-.42,2.38,2.38,0,0,0,.81-1.17,5.22,5.22,0,0,0,.25-1.71,5.29,5.29,0,0,0-.26-1.81,2.09,2.09,0,0,0-.82-1.09,2.72,2.72,0,0,0-1.49-.36,2.55,2.55,0,0,0-1.49.39,2.13,2.13,0,0,0-.8,1.12,5.6,5.6,0,0,0-.24,1.75,4.4,4.4,0,0,0,.57,2.42A2.17,2.17,0,0,0,655.52,426.56Z"/><path d="M662.3,427.94v-8.5a6.48,6.48,0,0,1,.9-.41,10,10,0,0,1,1.55-.46,8.4,8.4,0,0,1,1.8-.19,3.31,3.31,0,0,1,.77.07,3.22,3.22,0,0,1,.5.17v1.56l-.89-.08a7.22,7.22,0,0,0-.93,0l-.92.08-.82.12v7.64Z"/><path d="M673.25,428.22a5,5,0,0,1-2.4-.56,3.77,3.77,0,0,1-1.57-1.66,6,6,0,0,1-.55-2.68,5.32,5.32,0,0,1,1.15-3.7,4.11,4.11,0,0,1,3.2-1.26,4.07,4.07,0,0,1,2.44.67,3.78,3.78,0,0,1,1.35,1.87,8.29,8.29,0,0,1,.4,2.81h-7.36l-.06-1.46h5.93l-.47.47a3.48,3.48,0,0,0-.59-2.1A2.07,2.07,0,0,0,673,420a2.42,2.42,0,0,0-1.27.31,1.92,1.92,0,0,0-.79,1,6.07,6.07,0,0,0-.27,2,3.43,3.43,0,0,0,.73,2.38,2.72,2.72,0,0,0,2.14.81,6.42,6.42,0,0,0,1.19-.11,7,7,0,0,0,1-.29c.31-.12.58-.23.8-.34v1.8a7.71,7.71,0,0,1-1.47.46A8.63,8.63,0,0,1,673.25,428.22Z"/><path class="cls-7" d="M20.5,427.51l5.11-12.82h1.75l5.09,12.82H30.52l-1.35-3.62H23.81l-1.37,3.59Zm3.94-5.27h4.07l-2.08-5.31Z"/><path class="cls-7" d="M34.42,431.13V420.78a4.07,4.07,0,0,1,0-.61,3.19,3.19,0,0,1,.29-.78,2.78,2.78,0,0,1,.62-.83,3.68,3.68,0,0,1,1.18-.61,6.12,6.12,0,0,1,2.87-.16,3.74,3.74,0,0,1,1.11.42,3.84,3.84,0,0,1,1,.85,4.29,4.29,0,0,1,.74,1.48,7.54,7.54,0,0,1,.32,2.31,6.92,6.92,0,0,1-.39,2.43,3.07,3.07,0,0,1-1,1.49,4.63,4.63,0,0,1-1.4.71,5.87,5.87,0,0,1-1.56.21,7.6,7.6,0,0,1-2.07-.28v3.72Zm1.75-5.45a5.84,5.84,0,0,0,2.07.38,3.92,3.92,0,0,0,1-.11,2.33,2.33,0,0,0,.82-.44,1.93,1.93,0,0,0,.62-1,6.24,6.24,0,0,0,.21-1.72,7.27,7.27,0,0,0-.21-1.86,2.14,2.14,0,0,0-.61-1,2.17,2.17,0,0,0-.77-.46,3,3,0,0,0-.88-.12c-1.49,0-2.23.47-2.23,1.43Z"/><path class="cls-7" d="M44.94,431.13V420.78a3.08,3.08,0,0,1,.06-.61,3.19,3.19,0,0,1,.29-.78,2.66,2.66,0,0,1,.62-.83,3.68,3.68,0,0,1,1.18-.61,5.94,5.94,0,0,1,1.82-.26,5.16,5.16,0,0,1,1,.1,3.8,3.8,0,0,1,1.12.42,3.84,3.84,0,0,1,1,.85,4.38,4.38,0,0,1,.74,1.48,7.85,7.85,0,0,1,.29,2.21,6.94,6.94,0,0,1-.38,2.43,3.07,3.07,0,0,1-1,1.49,4.81,4.81,0,0,1-1.39.71,5.48,5.48,0,0,1-1.56.2,7.23,7.23,0,0,1-2.07-.28v3.83Zm1.76-5.45a5.84,5.84,0,0,0,2.07.38,3.92,3.92,0,0,0,1-.11,2.29,2.29,0,0,0,.83-.44,1.86,1.86,0,0,0,.61-1,5.57,5.57,0,0,0,.22-1.72,6.49,6.49,0,0,0-.22-1.86,2,2,0,0,0-.6-1,2.17,2.17,0,0,0-.77-.46,3,3,0,0,0-.89-.12c-1.48,0-2.22.47-2.22,1.43Z"/><path class="cls-7" d="M55.81,427.51V414.27h1.76v13.24Z"/><path class="cls-7" d="M60.73,416.43v-1.86h1.86v1.85Zm.06,11.08v-9.59h1.75v9.59Z"/><path class="cls-7" d="M66.21,426.39a6.49,6.49,0,0,1,0-7.35,4.2,4.2,0,0,1,3.32-1.27,7.6,7.6,0,0,1,2.83.53V420a6.25,6.25,0,0,0-2.64-.63h0a3,3,0,0,0-2.07.68,3.64,3.64,0,0,0-.75,2.7,6.2,6.2,0,0,0,.22,1.76,2,2,0,0,0,.65,1,2.44,2.44,0,0,0,.89.46,4.54,4.54,0,0,0,1,.11,6.25,6.25,0,0,0,2.68-.61v1.66a7.59,7.59,0,0,1-2.83.52A4.2,4.2,0,0,1,66.21,426.39Z"/><path class="cls-7" d="M74.13,424.48a2.52,2.52,0,0,1,1.2-2.23,6,6,0,0,1,3.31-.8,12.72,12.72,0,0,1,1.74.12,2.31,2.31,0,0,0-.66-1.73,2.92,2.92,0,0,0-2-.53,8,8,0,0,0-2.65.48v-1.51a8.21,8.21,0,0,1,2.9-.51,4.41,4.41,0,0,1,3.11,1,3.92,3.92,0,0,1,1.08,3v2.77a3.15,3.15,0,0,1-.06.61,3.26,3.26,0,0,1-.29.79,2.66,2.66,0,0,1-.62.83,3.56,3.56,0,0,1-1.19.62,5.64,5.64,0,0,1-1.82.25,5.91,5.91,0,0,1-1.87-.26,3.55,3.55,0,0,1-1.2-.63,2.64,2.64,0,0,1-.64-.84,3,3,0,0,1-.3-.81A3.36,3.36,0,0,1,74.13,424.48Zm1.75,0c0,1,.76,1.62,2.31,1.62h0c1.45,0,2.17-.52,2.17-1.56V423a11.63,11.63,0,0,0-1.67-.13,4.25,4.25,0,0,0-.8.07,5.74,5.74,0,0,0-.91.22,1.78,1.78,0,0,0-.8.5,1.12,1.12,0,0,0-.3.8Z"/><path class="cls-7" d="M83.54,419.42v-1.5h1.68v-2.85H87v2.85h2.54v1.5H87v5.5c0,.75.47,1.12,1.42,1.12h0a2,2,0,0,0,1.1-.28v1.58a3.22,3.22,0,0,1-1.3.27h0a3.72,3.72,0,0,1-.74-.08,4,4,0,0,1-.94-.33,2.16,2.16,0,0,1-.91-.86,3,3,0,0,1-.35-1.52v-5.44Z"/><path class="cls-7" d="M91.83,416.43v-1.86H93.7v1.85Zm.07,11.08v-9.59h1.75v9.59Z"/><path class="cls-7" d="M96.59,425.2a7.8,7.8,0,0,1,0-5,3.32,3.32,0,0,1,1.09-1.52,4.84,4.84,0,0,1,1.43-.73,6.38,6.38,0,0,1,3.19,0,4.72,4.72,0,0,1,1.43.73,3.37,3.37,0,0,1,1.11,1.52,7.8,7.8,0,0,1,0,5,3.37,3.37,0,0,1-1.11,1.52,4.5,4.5,0,0,1-1.43.73,6.16,6.16,0,0,1-3.19,0,4.61,4.61,0,0,1-1.43-.73A3.32,3.32,0,0,1,96.59,425.2ZM98.18,421a7.52,7.52,0,0,0,0,3.53,2,2,0,0,0,.63,1,2.32,2.32,0,0,0,.85.45,4.54,4.54,0,0,0,1,.11,4.45,4.45,0,0,0,1-.11,2.32,2.32,0,0,0,.85-.45,2,2,0,0,0,.63-1,7.27,7.27,0,0,0,0-3.53,2,2,0,0,0-.63-1,2.32,2.32,0,0,0-.85-.45,4.45,4.45,0,0,0-1-.11,5.17,5.17,0,0,0-1,.11,2.48,2.48,0,0,0-.85.45A2,2,0,0,0,98.18,421Z"/><path class="cls-7" d="M107.45,427.51v-8.8a9.2,9.2,0,0,1,4.14-1,4.14,4.14,0,0,1,2.86,1,3.36,3.36,0,0,1,1,2.63v6.21h-1.79v-6.33a1.94,1.94,0,0,0-.43-1.33,2.33,2.33,0,0,0-1.74-.49,6.93,6.93,0,0,0-2.26.35v7.8Z"/><path class="cls-7" d="M117.82,420.62a2.76,2.76,0,0,1,.85-2,3.54,3.54,0,0,1,2.59-.83,5.64,5.64,0,0,1,2.57.63v1.52a5.66,5.66,0,0,0-2.35-.58c-1.28,0-1.91.41-1.91,1.23a.76.76,0,0,0,.51.66,6,6,0,0,0,1.22.47c.48.14,1,.3,1.43.49a2.88,2.88,0,0,1,1.22,1,2.83,2.83,0,0,1-.36,3.67,3.74,3.74,0,0,1-2.69.83,5.63,5.63,0,0,1-2.78-.67v-1.6a5.39,5.39,0,0,0,2.66.7h0a2.44,2.44,0,0,0,1.4-.33,1,1,0,0,0,.49-.85,1.14,1.14,0,0,0-.51-.95,3.66,3.66,0,0,0-1.22-.56c-.49-.14-1-.28-1.44-.45a2.9,2.9,0,0,1-1.22-.82A2.25,2.25,0,0,1,117.82,420.62Z"/><path class="cls-4" d="M72.66,404.57a1.54,1.54,0,0,1-.76-.2L49.42,399a1.48,1.48,0,0,1-.75-1.31V359.59a1.51,1.51,0,0,1,.75-1.32L71.9,353.4a1.53,1.53,0,0,1,1.52,0l22.48,4.87a1.54,1.54,0,0,1,.76,1.32v38.05A1.51,1.51,0,0,1,95.9,399l-22.48,5.42A1.54,1.54,0,0,1,72.66,404.57Z"/><path class="cls-1" d="M72.66,405.59c-.26,0-23.57-5.51-23.57-5.51a1.53,1.53,0,0,1-.78-1.34V358.46a1.53,1.53,0,0,1,.78-1.34s23.31-5,23.57-5,23.57,5,23.57,5a1.53,1.53,0,0,1,.78,1.34v40.28a1.53,1.53,0,0,1-.78,1.34S72.93,405.59,72.66,405.59ZM51.4,397.85l21.26,4.42,21.26-4.42v-38.5l-21.26-4.61L51.4,359.35Z"/><path class="cls-1" d="M72.66,365.64a1.52,1.52,0,0,1-.78-.21L49.1,360.64a1.54,1.54,0,1,1,1.49-2.7l0,0,22,4.34,22-4.34a1.53,1.53,0,0,1,2.07.56,1.55,1.55,0,0,1-.56,2.07l-22.78,4.79A1.49,1.49,0,0,1,72.66,365.64Z"/><path class="cls-1" d="M72.66,404.47a1.56,1.56,0,0,1-1.56-1.54V364.62a1.56,1.56,0,1,1,3.11,0h0v38.31a1.54,1.54,0,0,1-1.54,1.54Z"/><path class="cls-7" d="M37.9,317.73A3.45,3.45,0,0,1,39,315.17a4.73,4.73,0,0,1,3.39-1,7.37,7.37,0,0,1,3.3.77v1.74a5.84,5.84,0,0,0-3.1-.85c-1.94,0-2.9.65-2.9,1.94a1.12,1.12,0,0,0,.51.91,3.9,3.9,0,0,0,1.26.62c.5.16,1,.36,1.63.6a17.9,17.9,0,0,1,1.65.79A3.33,3.33,0,0,1,46,321.88a3.37,3.37,0,0,1,.51,1.88,3,3,0,0,1-1.23,2.56,5.61,5.61,0,0,1-3.4.93,8.74,8.74,0,0,1-3.81-.93V324.5a7,7,0,0,0,3.68,1c2,0,3-.61,3-1.82a1.87,1.87,0,0,0-.51-1.33,2.86,2.86,0,0,0-1.25-.8L41.3,321c-.6-.2-1.15-.41-1.64-.63a3.16,3.16,0,0,1-1.26-1A2.74,2.74,0,0,1,37.9,317.73Z"/><path class="cls-7" d="M48.51,322.43q0-5.06,4.24-5.06h0a4,4,0,0,1,3.1,1.25A4.81,4.81,0,0,1,57,322a11.3,11.3,0,0,1,0,1.32H50.32a2.5,2.5,0,0,0,2.5,2.48H53a7.07,7.07,0,0,0,3.32-.73v1.6a8.53,8.53,0,0,1-3.35.63h-.06a5.43,5.43,0,0,1-1.55-.22,4.52,4.52,0,0,1-1.39-.69,3.23,3.23,0,0,1-1-1.51A6.71,6.71,0,0,1,48.51,322.43Zm1.77-.7H55.2a4,4,0,0,0-.17-.91,3.37,3.37,0,0,0-.38-.89,1.77,1.77,0,0,0-.74-.72,2.47,2.47,0,0,0-1.16-.27,2.28,2.28,0,0,0-1.79.63,3.7,3.7,0,0,0-.68,2.14Z"/><path class="cls-7" d="M59.25,327.09v-8.8a12.27,12.27,0,0,1,4.67-1v1.61a12,12,0,0,0-2.92.41v7.72Z"/><path class="cls-7" d="M65.42,317.5h1.87L70,325l2.71-7.48h1.84l-3.68,9.59H69.05Z"/><path class="cls-7" d="M76.73,316v-1.86h1.86V316Zm.06,11.08V317.5h1.75v9.59Z"/><path class="cls-7" d="M82.2,326a6.53,6.53,0,0,1,0-7.35,4.24,4.24,0,0,1,3.33-1.27,7.33,7.33,0,0,1,2.82.54v1.66a6.18,6.18,0,0,0-2.64-.63h0a3,3,0,0,0-2.07.68,3.69,3.69,0,0,0-.74,2.7,5.86,5.86,0,0,0,.22,1.76,2,2,0,0,0,.65,1,2.44,2.44,0,0,0,.89.46,4.45,4.45,0,0,0,1,.11,6.26,6.26,0,0,0,2.69-.61v1.66a7.85,7.85,0,0,1-2.83.53A4.25,4.25,0,0,1,82.2,326Z"/><path class="cls-7" d="M90.07,322.43q0-5.06,4.24-5.06h0a4,4,0,0,1,3.1,1.25A4.77,4.77,0,0,1,98.56,322a11.3,11.3,0,0,1,0,1.32H91.89a2.49,2.49,0,0,0,2.49,2.48h.21a7,7,0,0,0,3.31-.73v1.6a8.51,8.51,0,0,1-3.34.63h-.07a5.48,5.48,0,0,1-1.55-.22,4.52,4.52,0,0,1-1.39-.69,3.23,3.23,0,0,1-1-1.51A6.71,6.71,0,0,1,90.07,322.43Zm1.77-.7h4.92a4.07,4.07,0,0,0-.55-1.8,1.77,1.77,0,0,0-.74-.72,2.47,2.47,0,0,0-1.16-.27,2.25,2.25,0,0,0-1.78.63,3.65,3.65,0,0,0-.7,2.14Z"/><path class="cls-7" d="M100.43,320.21a2.65,2.65,0,0,1,.85-2,3.49,3.49,0,0,1,2.59-.84,5.57,5.57,0,0,1,2.56.63v1.52a5.62,5.62,0,0,0-2.35-.58c-1.26,0-1.9.42-1.9,1.23,0,.27.17.49.51.67a5.58,5.58,0,0,0,1.22.46c.47.14,1,.3,1.43.49a3,3,0,0,1,1.22,1,2.86,2.86,0,0,1-.36,3.67,3.77,3.77,0,0,1-2.7.84,5.67,5.67,0,0,1-2.76-.68V325a5.36,5.36,0,0,0,2.65.7h0a2.46,2.46,0,0,0,1.4-.33,1,1,0,0,0,.48-.85,1.1,1.1,0,0,0-.5-1,3.71,3.71,0,0,0-1.23-.56c-.47-.13-1-.28-1.43-.45a2.87,2.87,0,0,1-1.23-.82A2.18,2.18,0,0,1,100.43,320.21Z"/><path class="cls-4" d="M72.25,303.79a1.32,1.32,0,0,1-.75-.2L49,298.17a1.52,1.52,0,0,1-.77-1.31V258.81a1.56,1.56,0,0,1,.77-1.32l22.48-4.87a1.51,1.51,0,0,1,1.51,0l22.48,4.87a1.53,1.53,0,0,1,.76,1.32v38.05a1.49,1.49,0,0,1-.76,1.31L73,303.59A1.36,1.36,0,0,1,72.25,303.79Z"/><path class="cls-1" d="M72.25,304.83c-.27,0-23.57-5.52-23.57-5.52a1.55,1.55,0,0,1-.77-1.34v-40.3a1.53,1.53,0,0,1,.77-1.33s23.3-5,23.57-5,23.58,5,23.58,5a1.55,1.55,0,0,1,.78,1.33V298a1.57,1.57,0,0,1-.78,1.34S72.52,304.83,72.25,304.83ZM51,297.08l21.25,4.41,21.26-4.41V258.56L72.25,254,51,258.56Z"/><path class="cls-1" d="M72.25,264.86a1.45,1.45,0,0,1-.76-.21l-22.78-4.79a1.54,1.54,0,1,1,1.48-2.7l.06,0,22,4.35,22-4.35a1.54,1.54,0,1,1,1.6,2.64l-.06,0-22.78,4.79A1.51,1.51,0,0,1,72.25,264.86Z"/><path class="cls-1" d="M72.25,303.69a1.54,1.54,0,0,1-1.54-1.54V263.84a1.56,1.56,0,1,1,3.11,0v38.31a1.54,1.54,0,0,1-1.55,1.54Z"/><path class="cls-7" d="M54,226.34l5.1-12.82h1.75l5.08,12.82H64l-1.37-3.62H57.26l-1.38,3.59Zm3.93-5.27H62l-2.07-5.31Z"/><path class="cls-7" d="M68.09,226.34V213.52h4.62a4.78,4.78,0,0,1,3.31,1,4.37,4.37,0,0,1,0,5.95,4.72,4.72,0,0,1-3.31,1H69.88v4.76ZM69.88,220h2.66a3,3,0,0,0,2.29-.66,3,3,0,0,0,0-3.55,3,3,0,0,0-2.29-.66H69.88Z"/><path class="cls-7" d="M79.55,226.34V213.52h1.79v12.82Z"/><path class="cls-7" d="M83.94,219.45a2.76,2.76,0,0,1,.85-2,3.54,3.54,0,0,1,2.59-.83,5.64,5.64,0,0,1,2.57.63v1.52a5.66,5.66,0,0,0-2.35-.58c-1.27,0-1.91.41-1.91,1.23a.77.77,0,0,0,.51.66,6,6,0,0,0,1.22.47,13.43,13.43,0,0,1,1.43.49,2.88,2.88,0,0,1,1.22,1,2.83,2.83,0,0,1-.36,3.67,3.74,3.74,0,0,1-2.69.83,5.56,5.56,0,0,1-2.77-.67v-1.6a5.36,5.36,0,0,0,2.65.7h0a2.53,2.53,0,0,0,1.4-.33,1,1,0,0,0,.49-.85,1.14,1.14,0,0,0-.51-.95,3.66,3.66,0,0,0-1.22-.56c-.48-.14-1-.28-1.44-.45a2.83,2.83,0,0,1-1.22-.83A2.21,2.21,0,0,1,83.94,219.45Z"/><path class="cls-4" d="M72.45,202.68a1.54,1.54,0,0,1-.76-.2l-22.48-5.41a1.56,1.56,0,0,1-.75-1.33v-38a1.53,1.53,0,0,1,.75-1.32l22.48-4.87a1.55,1.55,0,0,1,1.53,0l22.47,4.87a1.54,1.54,0,0,1,.76,1.32v38.09a1.54,1.54,0,0,1-.76,1.33l-22.47,5.41A1.48,1.48,0,0,1,72.45,202.68Z"/><path class="cls-1" d="M72.45,203.7c-.26,0-23.57-5.51-23.57-5.51a1.53,1.53,0,0,1-.77-1.34V156.57a1.53,1.53,0,0,1,.77-1.35s23.31-5,23.57-5,23.58,5,23.58,5a1.53,1.53,0,0,1,.77,1.35v40.26a1.5,1.5,0,0,1-.77,1.33S72.72,203.7,72.45,203.7ZM51.19,196l21.26,4.41L93.72,196V157.48l-21.27-4.62-21.26,4.62Z"/><path class="cls-1" d="M72.45,163.75a1.74,1.74,0,0,1-.77-.21L48.9,158.75a1.55,1.55,0,1,1,1.56-2.68l22,4.35,22-4.35a1.54,1.54,0,0,1,1.6,2.64l0,0-22.78,4.79A1.71,1.71,0,0,1,72.45,163.75Z"/><path class="cls-1" d="M72.45,202.58A1.55,1.55,0,0,1,70.91,201V162.66a1.55,1.55,0,1,1,3.1,0h0V201a1.54,1.54,0,0,1-1.48,1.6Z"/><path class="cls-7" d="M15.71,125.2V112.38h4.14A5.88,5.88,0,0,1,24.34,114a8.3,8.3,0,0,1,0,9.56,5.92,5.92,0,0,1-4.49,1.63Zm1.79-1.59h2A4.52,4.52,0,0,0,23,122.45a6.68,6.68,0,0,0,0-7.33A4.53,4.53,0,0,0,19.52,114h-2Z"/><path class="cls-7" d="M27.72,122.16a2.55,2.55,0,0,1,1.2-2.22,6,6,0,0,1,3.32-.8,14.52,14.52,0,0,1,1.74.11,2.3,2.3,0,0,0-.67-1.73,3,3,0,0,0-2-.53,8.5,8.5,0,0,0-2.65.48V116a8.18,8.18,0,0,1,2.9-.52,4.33,4.33,0,0,1,3.1,1,3.93,3.93,0,0,1,1,3v2.76a3.26,3.26,0,0,1-.06.62,4.3,4.3,0,0,1-.29.78,2.9,2.9,0,0,1-.63.84,3.28,3.28,0,0,1-1.19.61,6.52,6.52,0,0,1-3.68,0,3.52,3.52,0,0,1-1.2-.62,2.83,2.83,0,0,1-.65-.85,4,4,0,0,1-.3-.81C27.72,122.58,27.71,122.37,27.72,122.16Zm1.75,0c0,1,.78,1.63,2.31,1.63h0c1.45,0,2.18-.52,2.18-1.57v-1.54a11.73,11.73,0,0,0-1.67-.12,4.43,4.43,0,0,0-.81.07,5.9,5.9,0,0,0-.9.22,1.88,1.88,0,0,0-.81.49,1.24,1.24,0,0,0-.3.8Z"/><path class="cls-7" d="M37.14,117.11v-1.5h1.67v-2.85h1.75v2.85h2.55v1.5H40.56v5.5c0,.74.48,1.12,1.42,1.12h0a2.16,2.16,0,0,0,1.11-.28V125a3.65,3.65,0,0,1-1.31.27h-.05a3.63,3.63,0,0,1-.73-.08,4.39,4.39,0,0,1-.94-.34,2,2,0,0,1-.92-.85,3.13,3.13,0,0,1-.35-1.53v-5.43Z"/><path class="cls-7" d="M44.9,122.16a2.51,2.51,0,0,1,1.2-2.22,6,6,0,0,1,3.32-.8,14.52,14.52,0,0,1,1.74.11,2.37,2.37,0,0,0-.67-1.73,3,3,0,0,0-2-.53,8.62,8.62,0,0,0-2.66.48V116a8.2,8.2,0,0,1,2.89-.52,4.36,4.36,0,0,1,3.11,1,4,4,0,0,1,1.09,3v2.76a2.62,2.62,0,0,1-.07.62,3.19,3.19,0,0,1-.29.78,2.48,2.48,0,0,1-.63.84,3.24,3.24,0,0,1-1.18.61,5.67,5.67,0,0,1-1.83.26,5.8,5.8,0,0,1-1.85-.27,3.2,3.2,0,0,1-1.2-.62,2.83,2.83,0,0,1-.65-.85A2.79,2.79,0,0,1,44.9,122.16Zm1.75,0c0,1,.77,1.63,2.3,1.63h0c1.45,0,2.17-.52,2.17-1.57v-1.54a11.48,11.48,0,0,0-1.66-.12,4.43,4.43,0,0,0-.81.07,5.74,5.74,0,0,0-.91.22,1.79,1.79,0,0,0-.8.49,1.19,1.19,0,0,0-.32.8Z"/><path class="cls-7" d="M61.74,115.84a3.45,3.45,0,0,1,1-2.56,4.79,4.79,0,0,1,3.39-1,7.38,7.38,0,0,1,3.3.78v1.74a5.75,5.75,0,0,0-3.1-.85c-1.94,0-2.9.64-2.9,1.94a1.15,1.15,0,0,0,.5.91,4.05,4.05,0,0,0,1.27.62c.49.15,1,.35,1.63.6a13.89,13.89,0,0,1,1.65.79,3.51,3.51,0,0,1,1.76,3.09,3,3,0,0,1-1.22,2.57,5.64,5.64,0,0,1-3.41.92,8.69,8.69,0,0,1-3.81-.92v-1.82a7,7,0,0,0,3.66,1.08c2,0,3-.61,3-1.82a1.84,1.84,0,0,0-.51-1.32,2.86,2.86,0,0,0-1.25-.8l-1.65-.56c-.6-.21-1.15-.41-1.64-.63a3.12,3.12,0,0,1-1.26-1A2.7,2.7,0,0,1,61.74,115.84Z"/><path class="cls-7" d="M71.28,117.11v-1.5H73v-2.85h1.76v2.85h2.55v1.5H74.71v5.5c0,.74.47,1.12,1.41,1.12h0a2.19,2.19,0,0,0,1.12-.28V125a3.7,3.7,0,0,1-1.32.27h0a3.65,3.65,0,0,1-.74-.08,4.39,4.39,0,0,1-.94-.34,2,2,0,0,1-.91-.85A3.14,3.14,0,0,1,73,122.5v-5.43Z"/><path class="cls-7" d="M79.44,125.2v-8.81a12.7,12.7,0,0,1,4.67-1v1.62a11.94,11.94,0,0,0-2.91.4v7.72Z"/><path class="cls-7" d="M85.45,120.54q0-5.07,4.22-5.07h0a4,4,0,0,1,3.11,1.26,4.79,4.79,0,0,1,1.15,3.36v1.33H87.3a2.49,2.49,0,0,0,2.5,2.47H90a7,7,0,0,0,3.31-.72v1.59a8.4,8.4,0,0,1-3.36.63h0a5.21,5.21,0,0,1-1.56-.22,4.52,4.52,0,0,1-1.39-.69,3.2,3.2,0,0,1-1-1.5A6.59,6.59,0,0,1,85.45,120.54Zm1.76-.71h5a4.71,4.71,0,0,0-.17-.91,4.11,4.11,0,0,0-.38-.89,1.87,1.87,0,0,0-.74-.71,2.42,2.42,0,0,0-1.17-.27,2.23,2.23,0,0,0-1.77.63,3.57,3.57,0,0,0-.74,2.13Z"/><path class="cls-7" d="M95.68,122.16a2.53,2.53,0,0,1,1.2-2.22,5.92,5.92,0,0,1,3.31-.8,14.55,14.55,0,0,1,1.75.11,2.33,2.33,0,0,0-.66-1.73,3,3,0,0,0-2-.53,8.67,8.67,0,0,0-2.66.48V116a8.22,8.22,0,0,1,2.9-.52,4.36,4.36,0,0,1,3.11,1,3.92,3.92,0,0,1,1.1,3v2.76a2.62,2.62,0,0,1-.07.62,3.22,3.22,0,0,1-.3.78,2.33,2.33,0,0,1-.62.84,3.28,3.28,0,0,1-1.19.61,5.61,5.61,0,0,1-1.82.26,5.8,5.8,0,0,1-1.85-.27,3.28,3.28,0,0,1-1.22-.62,3,3,0,0,1-.64-.85,3.21,3.21,0,0,1-.36-1.44Zm1.76,0c0,1,.77,1.63,2.3,1.63h0c1.45,0,2.17-.52,2.17-1.57v-1.54a11.59,11.59,0,0,0-1.66-.12,4.36,4.36,0,0,0-.81.07,5.49,5.49,0,0,0-.91.22,1.83,1.83,0,0,0-.81.49,1.19,1.19,0,0,0-.28.8Z"/><path class="cls-7" d="M106.24,125.2v-8.81a8.79,8.79,0,0,1,4-1,4.32,4.32,0,0,1,2.56.73,9.43,9.43,0,0,1,3.52-.73,4,4,0,0,1,2.79,1,3.47,3.47,0,0,1,1,2.64v6.22h-1.76V119a2,2,0,0,0-.41-1.33,1.9,1.9,0,0,0-1.57-.51,6.56,6.56,0,0,0-2.58.54,3.74,3.74,0,0,1,.23,1.36v6.22h-1.76V119a1.82,1.82,0,0,0-.45-1.32,2.35,2.35,0,0,0-1.77-.49,7.66,7.66,0,0,0-2.07.29v7.8Z"/><path class="cls-7" d="M122.6,118.31a2.76,2.76,0,0,1,.85-2,3.62,3.62,0,0,1,2.6-.84,5.7,5.7,0,0,1,2.56.63v1.53a5.46,5.46,0,0,0-2.34-.58c-1.28,0-1.91.41-1.91,1.23,0,.27.17.48.51.66a5.73,5.73,0,0,0,1.21.47c.48.13,1,.3,1.43.48a2.9,2.9,0,0,1,1.22,1,2.81,2.81,0,0,1-.35,3.66,3.78,3.78,0,0,1-2.7.84,5.78,5.78,0,0,1-2.77-.67v-1.61a5.3,5.3,0,0,0,2.66.71h0a2.67,2.67,0,0,0,1.41-.33,1.06,1.06,0,0,0,.48-.85,1.16,1.16,0,0,0-.5-1,4.22,4.22,0,0,0-1.22-.56c-.49-.13-1-.28-1.44-.44a2.72,2.72,0,0,1-1.22-.83A2.17,2.17,0,0,1,122.6,118.31Z"/><path class="cls-4" d="M72,101.17a1.46,1.46,0,0,1-.76-.19L48.79,95.56A1.55,1.55,0,0,1,48,94.24v-38a1.52,1.52,0,0,1,.75-1.31L71.27,50a1.5,1.5,0,0,1,1.53,0l22.47,4.87A1.51,1.51,0,0,1,96,56.19V94.24a1.53,1.53,0,0,1-.76,1.32L72.8,101A1.6,1.6,0,0,1,72,101.17Z"/><path class="cls-1" d="M72,102.2c-.27,0-23.58-5.52-23.58-5.52a1.54,1.54,0,0,1-.76-1.34V55.06a1.49,1.49,0,0,1,.76-1.33s23.31-5,23.58-5,23.58,5,23.58,5a1.52,1.52,0,0,1,.77,1.33V95.34a1.53,1.53,0,0,1-.77,1.34S72.3,102.2,72,102.2ZM50.76,94.45,72,98.87l21.26-4.42V56L72,51.34,50.76,56Z"/><path class="cls-1" d="M72,62.24a1.51,1.51,0,0,1-.77-.21L48.48,57.24A1.54,1.54,0,0,1,50,54.57l22,4.35,22-4.35a1.54,1.54,0,0,1,1.59,2.64l0,0L72.86,62A1.51,1.51,0,0,1,72,62.24Z"/><path class="cls-1" d="M72,101.07a1.54,1.54,0,0,1-1.54-1.54V61.22a1.55,1.55,0,1,1,3.1,0V99.53a1.53,1.53,0,0,1-1.52,1.54Z"/><path class="cls-2" d="M304.1,276.4s-2,3,1.91,3.61c.38.05,3.21.34,3.93,1.27,0,0-.07-1.6-2.36-2.54S304.36,277.57,304.1,276.4Z"/><path class="cls-2" d="M306,269.94s-5.54,3.37-.32,6.74c1,.65,4.64,2.48,4.54,4.15,0,0,2.21-3.28-1-5.33S305.09,271.16,306,269.94Z"/><path class="cls-2" d="M311.75,273.24c-2.37-2.49-3-4-2-6,0,0-7.08,2.73-.09,7.57,2.51,1.73,2.09,3.5,2.09,3.57a3.48,3.48,0,0,0,.24-4.91Z"/><g class="cls-8"><g class="cls-8"><path class="cls-9" d="M317.39,278.84v-6.3h.78l3.92,5.54-.17.27v-5.81h.68v6.3h-.76l-4.08-5.75.31-.29v6Z"/></g><g class="cls-8"><path class="cls-9" d="M326.91,278.93a3.1,3.1,0,0,1-1.56-.36,2.24,2.24,0,0,1-1-1.08,4.49,4.49,0,0,1-.31-1.79,3.6,3.6,0,0,1,.71-2.43,2.66,2.66,0,0,1,2.11-.81,3.12,3.12,0,0,1,1.57.36,2.22,2.22,0,0,1,.94,1.08,4.33,4.33,0,0,1,.32,1.8,3.62,3.62,0,0,1-.71,2.42A2.68,2.68,0,0,1,326.91,278.93Zm0-.64a2.45,2.45,0,0,0,1.22-.27,1.64,1.64,0,0,0,.69-.85,4.14,4.14,0,0,0,.22-1.47,4.07,4.07,0,0,0-.22-1.47,1.64,1.64,0,0,0-.69-.85,2.78,2.78,0,0,0-2.43,0,1.6,1.6,0,0,0-.69.85,4.07,4.07,0,0,0-.22,1.47,4.14,4.14,0,0,0,.22,1.47,1.6,1.6,0,0,0,.69.85A2.43,2.43,0,0,0,326.91,278.29Z"/></g><g class="cls-8"><path class="cls-9" d="M331.26,278.84v-6.3h2a2.92,2.92,0,0,1,2.21.79,4.13,4.13,0,0,1,0,4.72,2.92,2.92,0,0,1-2.21.79Zm.68-.64h1.25a2.23,2.23,0,0,0,1.75-.61,3.57,3.57,0,0,0,0-3.81,2.26,2.26,0,0,0-1.75-.6h-1.25Z"/></g><g class="cls-8"><path class="cls-9" d="M337.54,278.84v-6.3h4v.64h-3.29v2.18h2.89V276h-2.89v2.18h3.29v.64Z"/></g></g><path class="cls-4" d="M322.83,179.33c-13.92,0-28.38,3.16-28.38,8.45v67.93a3.16,3.16,0,0,0,.61,1.82,5.07,5.07,0,0,0,.69.78c3.6,3.48,14.49,5.82,27.07,5.82s23.49-2.32,27.08-5.82a5.49,5.49,0,0,0,.71-.81,3.23,3.23,0,0,0,.6-1.83V187.79C351.23,182.49,336.79,179.33,322.83,179.33Z"/><path class="cls-9" d="M301.17,225.09V218l1.42.32c.68,1.16,1.36,2.33,2.05,3.43l2.05-2.6,1.43.24v7.12l-1.29-.22V221l-2.19,2.75c-.74-1.21-1.47-2.41-2.19-3.64v5.3Z"/><path class="cls-9" d="M309.92,226.76v-7.15c1.59.23,3.18.42,4.77.56v1.16c-1.16-.11-2.32-.24-3.48-.38v1.81c1,.13,2,.24,3,.34v1.22c-1-.1-2-.22-3-.35v1.81c1.16.16,2.32.29,3.48.4v1.15C313.1,227.18,311.51,227,309.92,226.76Z"/><path class="cls-9" d="M316.17,227.46v-7.18c.48,0,1,.08,1.44.1.7,1.05,1.38,2.07,2.08,3.1.7-1,1.39-1.95,2.08-2.94h1.45v7.16h-1.3v-5.29c-.77,1-1.49,2.07-2.23,3.09-.74-1.08-1.48-2.17-2.22-3.28v5.29Z"/><path class="cls-9" d="M324.8,224.15a5.41,5.41,0,0,1,.2-1.55,3.35,3.35,0,0,1,.53-1.07,2.91,2.91,0,0,1,.78-.66,3.64,3.64,0,0,1,.89-.37,7.47,7.47,0,0,1,.95-.12,5.92,5.92,0,0,1,.94,0,2.86,2.86,0,0,1,.9.28,2.56,2.56,0,0,1,.77.58,2.87,2.87,0,0,1,.54,1,5.36,5.36,0,0,1,.2,1.55,6.14,6.14,0,0,1-.2,1.54,3.27,3.27,0,0,1-.54,1.11,3.42,3.42,0,0,1-.77.7,3.25,3.25,0,0,1-.9.38,5,5,0,0,1-.94.14,6,6,0,0,1-.95,0,3.14,3.14,0,0,1-.89-.31,2.77,2.77,0,0,1-.78-.62,3.15,3.15,0,0,1-.53-1.05A5.45,5.45,0,0,1,324.8,224.15Zm1.3,0a4.94,4.94,0,0,0,.15,1.33,1.56,1.56,0,0,0,.48.77,1.59,1.59,0,0,0,.64.31,2.57,2.57,0,0,0,.78.06,3.5,3.5,0,0,0,.64-.08,1.65,1.65,0,0,0,.55-.23,1.27,1.27,0,0,0,.46-.46,2.68,2.68,0,0,0,.3-.77,4.27,4.27,0,0,0,.12-1.12,4.51,4.51,0,0,0-.16-1.32,1.39,1.39,0,0,0-.48-.77,1.57,1.57,0,0,0-.64-.3,3.4,3.4,0,0,0-.78,0,4.2,4.2,0,0,0-.62.07,2.13,2.13,0,0,0-.56.23,1.41,1.41,0,0,0-.47.44,2.4,2.4,0,0,0-.29.77,5,5,0,0,0-.13,1.15Z"/><path class="cls-9" d="M333.07,227.24v-7.16c.92-.09,1.83-.19,2.75-.31a2.74,2.74,0,0,1,2,.32,1.85,1.85,0,0,1,.7,1.61,2.44,2.44,0,0,1-1.55,2.32c.63.83,1.25,1.65,1.88,2.46l-1.55.23-1.71-2.32-1.16.13v2.53Zm1.29-3.87,1.42-.17a2.1,2.1,0,0,0,1-.37,1.07,1.07,0,0,0,.37-.93c0-.44-.12-.72-.37-.85a1.9,1.9,0,0,0-1-.08l-1.42.17Z"/><path class="cls-9" d="M339.13,219.31l1.55-.26,1.91,2.55c.62-1.1,1.25-2.2,1.87-3.31l1.54-.35q-1.38,2.35-2.77,4.7v3.09L342,226v-3.1Q340.52,221.13,339.13,219.31Z"/><path class="cls-2" d="M342.28,180.71a84.92,84.92,0,0,0-38.9,0c-6.19,1.67-9.42,4-9.42,6.87v68.33a3.9,3.9,0,0,0,.77,2.23,6.22,6.22,0,0,0,.78.92c3.69,3.56,14.7,6,27.35,6s23.67-2.4,27.37-6a5.54,5.54,0,0,0,.77-.91,3.74,3.74,0,0,0,.77-2.23V187.58C351.71,184.76,348.46,182.37,342.28,180.71Zm6.58,75.93a4.54,4.54,0,0,1-.45.52c-3.16,3-13.93,5.26-25.58,5.26s-22.43-2.21-25.53-5.26a3.24,3.24,0,0,1-.45-.53,1.32,1.32,0,0,1-.26-.77V191.6a15.27,15.27,0,0,0,1.93,1.1h0l1.1.49.1,0c.37.15.78.3,1.17.44l.15.05,1.06.35.33.1c.34.11.7.21,1.06.3l.49.13c.34.1.69.18,1.06.27l.62.14,1.06.22.71.14.85.15,1,.17.78.12,1,.14c.3.05.61.08.92.11l.82.1,1.23.13.62.05,1.5.12h.54l1.64.08h.42c.59,0,1.19.05,1.81.07h4.48a15.56,15.56,0,0,0,1.81-.07h.41l1.64-.08h.54l1.5-.12.64-.06c.4,0,.77-.08,1.19-.11l.86-.11c.3,0,.6-.06.9-.11l1.07-.15.77-.11,1-.17.84-.15.71-.14L340,195l.61-.14,1.08-.27.46-.12,1.12-.32.27-.08c.38-.12.77-.24,1.1-.37l.12,0c.42-.14.82-.3,1.2-.45H346c.39-.17.77-.33,1.13-.5h0a16.12,16.12,0,0,0,1.94-1.1v64.3A1.4,1.4,0,0,1,348.86,256.64Zm-26-75.58c16.29,0,26.31,3.79,26.31,6.52a1.41,1.41,0,0,1-.27.77c-1.14,1.68-5.22,3.4-11.23,4.52h-.05l-.69.12-.71.12h0a82.45,82.45,0,0,1-11.09,1h-4.5a84,84,0,0,1-11.07-1h0l-.68-.12-.72-.13h0c-6-1.11-10.06-2.83-11.24-4.52a1.41,1.41,0,0,1-.27-.77C296.55,184.85,306.55,181.06,322.83,181.06Z"/><path class="cls-2" d="M402.74,276.4s-2,3,1.91,3.61c.38.05,3.2.34,3.93,1.27,0,0-.07-1.6-2.36-2.54S403,277.57,402.74,276.4Z"/><path class="cls-2" d="M404.66,269.94s-5.54,3.37-.32,6.74c1,.65,4.65,2.48,4.55,4.15,0,0,2.2-3.28-1-5.33S403.71,271.16,404.66,269.94Z"/><path class="cls-2" d="M410.39,273.24c-2.38-2.49-3-4-2-6,0,0-7.09,2.73-.1,7.57,2.51,1.73,2.09,3.5,2.09,3.57a3.48,3.48,0,0,0,.24-4.91Z"/><g class="cls-8"><g class="cls-8"><path class="cls-9" d="M416,278.84v-6.3h.78l3.92,5.54-.17.27v-5.81h.68v6.3h-.76l-4.08-5.75.31-.29v6Z"/></g><g class="cls-8"><path class="cls-9" d="M425.54,278.93a3.1,3.1,0,0,1-1.56-.36,2.22,2.22,0,0,1-.94-1.08,4.48,4.48,0,0,1-.32-1.79,3.65,3.65,0,0,1,.71-2.43,2.67,2.67,0,0,1,2.11-.81,3.09,3.09,0,0,1,1.57.36,2.24,2.24,0,0,1,.95,1.08,4.51,4.51,0,0,1,.31,1.8,3.57,3.57,0,0,1-.71,2.42A2.66,2.66,0,0,1,425.54,278.93Zm0-.64a2.45,2.45,0,0,0,1.22-.27,1.6,1.6,0,0,0,.69-.85,4.12,4.12,0,0,0,.23-1.47,4,4,0,0,0-.23-1.47,1.6,1.6,0,0,0-.69-.85,2.78,2.78,0,0,0-2.43,0,1.64,1.64,0,0,0-.69.85,4.07,4.07,0,0,0-.22,1.47,4.14,4.14,0,0,0,.22,1.47,1.64,1.64,0,0,0,.69.85A2.43,2.43,0,0,0,425.54,278.29Z"/></g><g class="cls-8"><path class="cls-9" d="M429.9,278.84v-6.3h2a2.91,2.91,0,0,1,2.21.79,4.13,4.13,0,0,1,0,4.72,2.91,2.91,0,0,1-2.21.79Zm.68-.64h1.24a2.25,2.25,0,0,0,1.76-.61,3.63,3.63,0,0,0,0-3.81,2.28,2.28,0,0,0-1.76-.6h-1.24Z"/></g><g class="cls-8"><path class="cls-9" d="M436.17,278.84v-6.3h4v.64h-3.29v2.18h2.9V276h-2.9v2.18h3.29v.64Z"/></g></g><path class="cls-4" d="M421.5,179.33c-13.92,0-28.38,3.16-28.38,8.45v67.93a3.16,3.16,0,0,0,.61,1.82,5.07,5.07,0,0,0,.69.78c3.6,3.48,14.49,5.82,27.08,5.82s23.48-2.32,27.07-5.82a5.49,5.49,0,0,0,.71-.81,3.23,3.23,0,0,0,.6-1.83V187.79C449.86,182.49,435.43,179.33,421.5,179.33Z"/><path class="cls-9" d="M399.84,225.09V218l1.42.32c.68,1.16,1.36,2.33,2.05,3.43l2.06-2.6,1.42.24v7.12l-1.29-.22V221l-2.19,2.75c-.74-1.21-1.46-2.41-2.19-3.64v5.3Z"/><path class="cls-9" d="M408.55,226.76v-7.15c1.59.23,3.18.42,4.78.56v1.16c-1.16-.11-2.32-.24-3.49-.38v1.81c1,.13,2,.24,3,.34v1.22c-1-.1-2-.22-3-.35v1.81c1.17.16,2.33.29,3.49.4v1.15C411.73,227.18,410.14,227,408.55,226.76Z"/><path class="cls-9" d="M414.8,227.46v-7.18c.48,0,1,.08,1.44.1l2.08,3.1c.7-1,1.4-1.95,2.09-2.94h1.44v7.16h-1.3v-5.29c-.77,1-1.48,2.07-2.23,3.09-.74-1.08-1.48-2.17-2.22-3.28v5.29Z"/><path class="cls-9" d="M423.42,224.15a5.78,5.78,0,0,1,.2-1.55,3.37,3.37,0,0,1,.54-1.07,2.73,2.73,0,0,1,.77-.66,3.56,3.56,0,0,1,.9-.37,7.55,7.55,0,0,1,.94-.12,6,6,0,0,1,1,0,2.8,2.8,0,0,1,.89.28,2.48,2.48,0,0,1,.78.58,3,3,0,0,1,.53,1,6.07,6.07,0,0,1,0,3.09,3.45,3.45,0,0,1-.53,1.11,3.26,3.26,0,0,1-.78.7,3.19,3.19,0,0,1-.89.38,5.07,5.07,0,0,1-1,.14,5.92,5.92,0,0,1-.94,0,3.1,3.1,0,0,1-.9-.31,2.73,2.73,0,0,1-.77-.62,3,3,0,0,1-.54-1.05A5.84,5.84,0,0,1,423.42,224.15Zm1.3,0a4.26,4.26,0,0,0,.16,1.33,1.49,1.49,0,0,0,.48.77,1.53,1.53,0,0,0,.64.31,2.48,2.48,0,0,0,.77.06,3.4,3.4,0,0,0,.64-.08,1.78,1.78,0,0,0,.55-.23,1.47,1.47,0,0,0,.47-.46,3,3,0,0,0,.29-.77,5.29,5.29,0,0,0,0-2.44,1.39,1.39,0,0,0-.48-.77,1.57,1.57,0,0,0-.64-.3,3.32,3.32,0,0,0-.77,0,4.5,4.5,0,0,0-.63.07,2.28,2.28,0,0,0-.56.23,1.38,1.38,0,0,0-.46.44,2.68,2.68,0,0,0-.3.77,5,5,0,0,0-.16,1.15Z"/><path class="cls-9" d="M431.7,227.24v-7.16c.92-.09,1.83-.19,2.75-.31a2.74,2.74,0,0,1,2,.32,1.85,1.85,0,0,1,.7,1.61,2.41,2.41,0,0,1-1.55,2.32l1.87,2.46-1.54.23c-.58-.77-1.15-1.55-1.71-2.32l-1.16.13v2.53Zm1.29-3.87,1.43-.17a2.14,2.14,0,0,0,1-.37,1.12,1.12,0,0,0,.37-.93.88.88,0,0,0-.37-.85,1.91,1.91,0,0,0-1-.08l-1.43.17Z"/><path class="cls-9" d="M437.75,219.31l1.55-.26,1.89,2.55c.61-1.1,1.24-2.2,1.86-3.31l1.55-.35q-1.38,2.35-2.77,4.7v3.09l-1.28.27v-3.1Z"/><path class="cls-2" d="M440.91,180.71a84.87,84.87,0,0,0-38.89,0c-6.19,1.67-9.43,4-9.43,6.87v68.33a3.89,3.89,0,0,0,.74,2.23,5.61,5.61,0,0,0,.77.92c3.7,3.56,14.7,6,27.36,6s23.66-2.4,27.36-6a6.15,6.15,0,0,0,.78-.91,3.88,3.88,0,0,0,.73-2.23V187.58C450.35,184.76,447.09,182.37,440.91,180.71Zm6.58,76a3.65,3.65,0,0,1-.45.52c-3.16,3-13.92,5.26-25.57,5.26s-22.44-2.22-25.57-5.26a3.24,3.24,0,0,1-.45-.53,1.33,1.33,0,0,1-.27-.77V191.6a16,16,0,0,0,1.93,1.1h0l1.11.49.09,0c.38.15.77.3,1.18.44l.14.05,1.06.35.34.1c.34.11.69.21,1.06.3l.47.13,1.07.27.62.14,1.06.22.71.14.85.15,1,.17.77.12,1.05.14c.3.05.6.08.91.11l.82.1,1.23.13.63.05,1.5.12h.54l1.64.08h.41c.6,0,1.2.05,1.81.07h4.49a15.48,15.48,0,0,0,1.8-.07h.42l1.64-.08h.54l1.49-.12.64-.06c.41,0,.78-.08,1.2-.11l.85-.11c.31,0,.61-.06.9-.11l1.06-.15.78-.11,1-.17.84-.15.71-.14,1.06-.22.62-.14,1.07-.27.47-.12,1.11-.32.27-.08c.38-.12.78-.24,1.11-.37l.12,0c.41-.14.81-.3,1.2-.45h.06c.4-.17.77-.33,1.13-.5h0a15.51,15.51,0,0,0,1.95-1.1v64.3a1.41,1.41,0,0,1-.19.72Zm-26-75.6c16.29,0,26.31,3.79,26.31,6.52a1.41,1.41,0,0,1-.27.77c-1.14,1.68-5.22,3.4-11.23,4.52h-.11l-.68.12-.71.12h0a82.45,82.45,0,0,1-11.09,1h-4.54a84,84,0,0,1-11.07-1h0l-.68-.12-.72-.13h0c-6-1.11-10.06-2.83-11.24-4.52a1.41,1.41,0,0,1-.27-.77C395.2,184.85,405.18,181.06,421.5,181.06Z"/><path class="cls-2" d="M352.59,292.49s-2,3,1.91,3.6c.38.05,3.2.35,3.93,1.27,0,0-.06-1.59-2.32-2.54S352.84,293.65,352.59,292.49Z"/><path class="cls-2" d="M354.52,286s-5.54,3.38-.32,6.74c1,.65,4.64,2.48,4.54,4.15,0,0,2.2-3.28-1-5.33S353.58,287.24,354.52,286Z"/><path class="cls-2" d="M360.24,289.33c-2.37-2.48-3-4-2-6,0,0-7.09,2.72-.09,7.56,2.51,1.74,2.09,3.5,2.09,3.57a3.47,3.47,0,0,0,.24-4.9Z"/><g class="cls-8"><g class="cls-8"><path class="cls-9" d="M365.88,294.92v-6.29h.77l3.93,5.54-.17.26v-5.8h.68v6.29h-.77l-4.08-5.75.32-.29v6Z"/></g><g class="cls-8"><path class="cls-9" d="M375.39,295a3,3,0,0,1-1.56-.37,2.22,2.22,0,0,1-.94-1.08,4.44,4.44,0,0,1-.32-1.79,3.6,3.6,0,0,1,.71-2.42,2.64,2.64,0,0,1,2.11-.82,3.05,3.05,0,0,1,1.58.37,2.27,2.27,0,0,1,.94,1.08,4.41,4.41,0,0,1,.32,1.79,3.55,3.55,0,0,1-.72,2.42A2.67,2.67,0,0,1,375.39,295Zm0-.65a2.42,2.42,0,0,0,1.22-.27,1.57,1.57,0,0,0,.7-.85,5,5,0,0,0,0-2.94,1.65,1.65,0,0,0-.7-.85,2.42,2.42,0,0,0-1.22-.28,2.37,2.37,0,0,0-1.2.28,1.65,1.65,0,0,0-.7.85,5,5,0,0,0,0,2.94,1.57,1.57,0,0,0,.7.85A2.37,2.37,0,0,0,375.39,294.37Z"/></g><g class="cls-8"><path class="cls-9" d="M379.75,294.92v-6.29h2a2.9,2.9,0,0,1,2.21.78,4.13,4.13,0,0,1,0,4.72,2.87,2.87,0,0,1-2.21.79Zm.68-.64h1.24a2.28,2.28,0,0,0,1.76-.6,3.59,3.59,0,0,0,0-3.82,2.28,2.28,0,0,0-1.76-.6h-1.24Z"/></g><g class="cls-8"><path class="cls-9" d="M386,294.92v-6.29h4v.64h-3.3v2.17h2.9v.66h-2.9v2.18H390v.64Z"/></g></g><path class="cls-4" d="M371.32,195.42c-13.93,0-28.38,3.15-28.38,8.44v67.93a3.15,3.15,0,0,0,.6,1.83,7.16,7.16,0,0,0,.69.77c3.61,3.49,14.5,5.83,27.08,5.83s23.49-2.33,27.08-5.82a5.91,5.91,0,0,0,.69-.81,3.19,3.19,0,0,0,.61-1.83V203.83C399.71,198.57,385.27,195.42,371.32,195.42Z"/><path class="cls-9" d="M349.66,241.17V234l1.42.33c.68,1.15,1.36,2.32,2,3.42l2.06-2.59,1.42.24v7.16l-1.27-.23v-5.29l-2.21,2.76-2.19-3.64v5.29Z"/><path class="cls-9" d="M358.41,242.85v-7.16c1.59.23,3.17.42,4.77.57v1.16q-1.74-.16-3.48-.39v1.82c1,.13,2,.25,3,.34v1.21c-1-.11-2-.22-3-.35v1.81q1.74.22,3.48.39v1.15C361.58,243.27,360,243.08,358.41,242.85Z"/><path class="cls-9" d="M364.66,243.54v-7.16l1.43.1c.7,1.05,1.4,2.07,2.09,3.1l2.08-2.94h1.44v7.16h-1.26v-5.29l-2.22,3.09L366,238.32v5.29Z"/><path class="cls-9" d="M373.27,240.24a5.85,5.85,0,0,1,.21-1.55,3.3,3.3,0,0,1,.53-1.06,2.74,2.74,0,0,1,.77-.67,3.68,3.68,0,0,1,.9-.36,6.07,6.07,0,0,1,.94-.13,6,6,0,0,1,.95,0,3.08,3.08,0,0,1,.89.28,2.44,2.44,0,0,1,.77.58,2.87,2.87,0,0,1,.54,1,4.79,4.79,0,0,1,.2,1.55,5.45,5.45,0,0,1-.2,1.55,3.23,3.23,0,0,1-.54,1.1,2.71,2.71,0,0,1-.77.7,3.71,3.71,0,0,1-.89.39,6,6,0,0,1-.95.13,4.92,4.92,0,0,1-.94,0,2.91,2.91,0,0,1-.9-.31,2.57,2.57,0,0,1-.77-.62,3.15,3.15,0,0,1-.53-1A5.35,5.35,0,0,1,373.27,240.24Zm1.3,0a4.58,4.58,0,0,0,.17,1.33,1.54,1.54,0,0,0,.47.78,1.9,1.9,0,0,0,.64.31,2.85,2.85,0,0,0,.77,0,3.4,3.4,0,0,0,.64-.08,1.7,1.7,0,0,0,.56-.23,1.55,1.55,0,0,0,.46-.46,2.4,2.4,0,0,0,.29-.77,5.58,5.58,0,0,0,0-2.44,1.37,1.37,0,0,0-.48-.77,1.69,1.69,0,0,0-.64-.29,2.83,2.83,0,0,0-.77,0,4.52,4.52,0,0,0-.63.08,2,2,0,0,0-.56.22,1.48,1.48,0,0,0-.46.44,2.39,2.39,0,0,0-.3.78A4.57,4.57,0,0,0,374.57,240.2Z"/><path class="cls-9" d="M381.55,243.36v-7.17c.92-.08,1.84-.19,2.76-.31a2.71,2.71,0,0,1,1.95.33,1.81,1.81,0,0,1,.7,1.6,2.39,2.39,0,0,1-1.55,2.32l1.88,2.46-1.54.23L384,240.5l-1.16.14v2.52Zm1.29-3.87,1.44-.17a2.21,2.21,0,0,0,1-.37,1.12,1.12,0,0,0,.38-.94c0-.44-.13-.72-.38-.84a1.78,1.78,0,0,0-1-.09l-1.46.22Z"/><path class="cls-9" d="M387.62,235.4l1.55-.27,1.88,2.55,1.87-3.3,1.54-.36q-1.38,2.37-2.76,4.7v3.1l-1.28.26V239Q389,237.22,387.62,235.4Z"/><path class="cls-2" d="M390.77,196.79a85.43,85.43,0,0,0-38.89,0c-6.19,1.68-9.44,4.06-9.44,6.87V272a3.92,3.92,0,0,0,.74,2.24,7.41,7.41,0,0,0,.77.91c3.71,3.57,14.7,6,27.36,6s23.67-2.4,27.37-6a5.09,5.09,0,0,0,.77-.9,3.87,3.87,0,0,0,.78-2.24V203.66C400.21,200.85,396.94,198.47,390.77,196.79Zm6.57,76a3.17,3.17,0,0,1-.45.52c-3.15,3.05-13.92,5.26-25.57,5.26s-22.44-2.21-25.53-5.26a3.24,3.24,0,0,1-.45-.53,1.26,1.26,0,0,1-.27-.77V207.69a14.69,14.69,0,0,0,1.93,1.09h0c.35.17.72.33,1.11.49h.09c.37.16.77.3,1.17.45l.15.05,1.06.34.33.11,1.06.3.49.13,1.06.26.62.14,1.06.22.71.14.85.16,1,.16.77.13,1.06.13.9.12c.28,0,.55.07.83.09l1.23.13.62.06,1.51.12.53,0,1.65.09h.4c.6,0,1.21.05,1.81.06h4.49c.6,0,1.2,0,1.8-.06h.41l1.64-.09.54,0a14.49,14.49,0,0,0,1.49-.12l.65-.06c.4,0,.77-.08,1.2-.12l.85-.1.9-.11,1.06-.15.78-.12,1-.16.84-.16.71-.14,1.06-.22.62-.14,1.08-.26.46-.13c.38-.1.77-.2,1.11-.31l.27-.09c.38-.11.78-.24,1.11-.36l.12,0c.41-.15.81-.3,1.2-.46h.06c.39-.16.77-.33,1.13-.5h0a14.13,14.13,0,0,0,1.93-1.1V272A1.25,1.25,0,0,1,397.34,272.74Zm-26-75.6c16.29,0,26.3,3.8,26.3,6.52a1.45,1.45,0,0,1-.26.78c-1.15,1.67-5.22,3.39-11.23,4.51h-.05l-.68.13-.71.11h0a81.72,81.72,0,0,1-11.15,1H369a83.67,83.67,0,0,1-11.06-1h-.05l-.67-.11-.73-.13h0c-6-1.12-10.06-2.84-11.22-4.52a1.32,1.32,0,0,1-.27-.78C345,200.94,355,197.14,371.32,197.14Z"/></g></g></svg>