<svg xmlns="http://www.w3.org/2000/svg" width="487.61" height="387" viewBox="0 0 487.61 387"><defs><style>.a{fill:#efeeed;}.b{fill:#777;}.c{fill:#e5282a;}.d{fill:#e52529;}.e,.f{fill:#575656;}.e{font-size:13px;font-family:MavenPro-Medium, Maven Pro;font-weight:500;}.g{fill:#010101;}.h{fill:#fff;}.i{fill:#1d1d1b;}</style></defs><g transform="translate(-83.443 -74.926)"><path class="a" d="M86.331,463.009V86.193c0-2.812,2.9-5.092,6.468-5.092H205c3.573,0,6.469,2.28,6.469,5.092V463.009c0,2.812-2.9,5.092-6.469,5.092H92.8C89.227,468.1,86.331,465.821,86.331,463.009Z" transform="translate(-2.888 -6.175)"/><g transform="translate(216.049 92.713)"><g transform="translate(17.723 44.791)"><g transform="translate(0 9.235)"><path class="b" d="M257.956,170.32h31.231a2.172,2.172,0,0,1,0,4.335H257.956a2.172,2.172,0,0,1-.279-4.335A2.075,2.075,0,0,1,257.956,170.32Z" transform="translate(-254.632 -162.383)"/><path class="b" d="M290.74,209.625V172.789a2.172,2.172,0,0,1,4.335,0v36.836a2.172,2.172,0,0,1-4.335,0Z" transform="translate(-258.357 -162.43)"/><path class="b" d="M265.969,161.441a2.165,2.165,0,0,0-1.4.518l-9.3,7.946a2.167,2.167,0,0,0,0,3.289l9.3,7.946a2.165,2.165,0,1,0,2.816-3.289h0l-7.365-6.257,7.365-6.257a2.164,2.164,0,0,0,.249-3.05l-.007-.007A2.188,2.188,0,0,0,265.969,161.441Z" transform="translate(-254.512 -161.441)"/><path class="b" d="M292.913,211.821h22.766a2.163,2.163,0,0,1,0,4.326H292.913a2.163,2.163,0,1,1-.005-4.326Z" transform="translate(-258.358 -166.789)"/><path class="b" d="M342.136,234.541l-22.087-22.078a2.163,2.163,0,0,0-3.057,3.057l22.078,22.087a2.172,2.172,0,0,0,3.066-3.066Z" transform="translate(-261.083 -166.795)"/><path class="b" d="M343.307,224.437a2.083,2.083,0,0,1,.626,1.359l.956,12.192a2.164,2.164,0,0,1-1.989,2.324,2.327,2.327,0,0,1-.335,0l-12.192-.947a2.165,2.165,0,1,1,.34-4.317l9.663.751-.76-9.663a2.172,2.172,0,0,1,3.692-1.7Z" transform="translate(-262.352 -168.061)"/></g><g transform="translate(47.909)"><circle class="c" cx="5.882" cy="5.882" r="5.882" transform="translate(2.02 50.781)"/><path class="a" d="M312.15,213.563a3.861,3.861,0,1,1,3.861,3.861,3.861,3.861,0,0,1-3.861-3.861m-4.04,0a7.911,7.911,0,1,0,7.92-7.9h-.018A7.9,7.9,0,0,0,308.11,213.563Z" transform="translate(-308.11 -156.899)"/><path class="d" d="M318,205.654V151.933a.822.822,0,0,0-1.645,0v53.724a.822.822,0,0,0,1.645,0Z" transform="translate(-308.986 -151.109)"/></g></g><text class="e" transform="translate(53 13)"><tspan x="-33.475" y="0">Compute &amp;</tspan><tspan x="-53.313" y="16">Machine Learning</tspan></text></g><g transform="translate(232.049 345.193)"><g transform="translate(0 92.436)"><path class="f" d="M252.584,496.5l3.772-9.448h1.287L261.4,496.5h-1.421l-1.01-2.682h-3.951L254,496.5Zm2.905-3.879h3l-1.5-3.924Z" transform="translate(-252.584 -486.894)"/><path class="f" d="M263.663,493.793a8.19,8.19,0,0,1,0-4.085,4.24,4.24,0,0,1,.679-1.394,3.269,3.269,0,0,1,1.01-.894,4.517,4.517,0,0,1,1.18-.438,6.7,6.7,0,0,1,1.225-.107,7.772,7.772,0,0,1,2.887.563v1.225a6.547,6.547,0,0,0-2.735-.6,3.086,3.086,0,0,0-2.431.894,5.55,5.55,0,0,0,0,5.578,3.045,3.045,0,0,0,2.431.894,6.663,6.663,0,0,0,2.735-.59v1.216a7.749,7.749,0,0,1-2.86.572,6.548,6.548,0,0,1-1.225-.107,4.137,4.137,0,0,1-1.18-.438,3.206,3.206,0,0,1-1.01-.894A4.3,4.3,0,0,1,263.663,493.793Z" transform="translate(-253.732 -486.875)"/><path class="f" d="M273.574,496.5v-9.448H274.9V496.5Z" transform="translate(-254.812 -486.894)"/><path class="f" d="M277.784,496.5v-9.448H280.8a4.363,4.363,0,0,1,3.307,1.2,5,5,0,0,1,1.126,3.531A4.939,4.939,0,0,1,284.1,495.3a4.329,4.329,0,0,1-3.307,1.2Zm1.323-1.162h1.484a3.331,3.331,0,0,0,2.539-.894,4.943,4.943,0,0,0,0-5.408,3.338,3.338,0,0,0-2.539-.894h-1.448Z" transform="translate(-255.259 -486.893)"/><path class="f" d="M292.654,488.289v-1.234h7.678v1.234h-3.191V496.5h-1.323v-8.214Z" transform="translate(-256.837 -486.894)"/><path class="f" d="M301.694,496.773V490.3a9.26,9.26,0,0,1,3.45-.706v1.189a9.185,9.185,0,0,0-2.154.3v5.694Z" transform="translate(-257.797 -487.164)"/><path class="f" d="M306.574,494.537a1.872,1.872,0,0,1,.894-1.636,4.371,4.371,0,0,1,2.44-.59,10.31,10.31,0,0,1,1.287.081,1.725,1.725,0,0,0-.492-1.278,2.193,2.193,0,0,0-1.457-.384,6.141,6.141,0,0,0-1.958.349V489.97a6.05,6.05,0,0,1,2.136-.375,3.186,3.186,0,0,1,2.279.76,2.888,2.888,0,0,1,.8,2.2v2.038a1.94,1.94,0,0,1,0,.456,2.176,2.176,0,0,1-.214.572,1.839,1.839,0,0,1-.456.618,2.438,2.438,0,0,1-.894.456,4.505,4.505,0,0,1-1.35.188,4.276,4.276,0,0,1-1.368-.2,2.693,2.693,0,0,1-.894-.457,1.9,1.9,0,0,1-.474-.626,2.1,2.1,0,0,1-.223-.6A2.913,2.913,0,0,1,306.574,494.537Zm1.3,0c0,.8.572,1.2,1.7,1.2h0c1.064,0,1.6-.384,1.6-1.144v-1.162a9.324,9.324,0,0,0-1.234-.089,3.531,3.531,0,0,0-.59.054,6.2,6.2,0,0,0-.67.161,1.341,1.341,0,0,0-.6.367.9.9,0,0,0-.206.6Z" transform="translate(-258.315 -487.163)"/><path class="f" d="M315.3,496.77V490.3a6.8,6.8,0,0,1,3.012-.724,3,3,0,0,1,2.109.7,2.5,2.5,0,0,1,.76,1.94v4.559h-1.323v-4.657a1.435,1.435,0,0,0-.313-.983,1.721,1.721,0,0,0-1.287-.366,5.523,5.523,0,0,0-1.663.259v5.747Z" transform="translate(-259.241 -487.161)"/><path class="f" d="M323.854,491.695a2.047,2.047,0,0,1,.626-1.493,2.687,2.687,0,0,1,1.922-.608,4.28,4.28,0,0,1,1.886.456v1.126a4.082,4.082,0,0,0-1.734-.42c-.894,0-1.4.295-1.4.894,0,.2.125.358.375.492a4.293,4.293,0,0,0,.894.34c.349.107.7.223,1.046.366a2.019,2.019,0,0,1,.894.706,2.091,2.091,0,0,1-.259,2.682,2.785,2.785,0,0,1-1.993.617,4.185,4.185,0,0,1-2.038-.492v-1.189a3.9,3.9,0,0,0,1.958.518h0a1.845,1.845,0,0,0,1.037-.241.748.748,0,0,0,.358-.626.822.822,0,0,0-.375-.7,2.69,2.69,0,0,0-.894-.42c-.349-.1-.706-.206-1.064-.331a1.97,1.97,0,0,1-.894-.608A1.584,1.584,0,0,1,323.854,491.695Z" transform="translate(-260.149 -487.163)"/><path class="f" d="M330.834,494.537a1.861,1.861,0,0,1,.894-1.636,4.369,4.369,0,0,1,2.44-.59,9.973,9.973,0,0,1,1.287.08,1.69,1.69,0,0,0-.492-1.278,2.193,2.193,0,0,0-1.457-.384,6.14,6.14,0,0,0-1.958.349V489.97a6.089,6.089,0,0,1,2.136-.375,3.2,3.2,0,0,1,2.288.76,2.888,2.888,0,0,1,.8,2.2v2.038a2.59,2.59,0,0,1,0,.456,3.108,3.108,0,0,1-.215.572,1.864,1.864,0,0,1-.465.618,2.34,2.34,0,0,1-.894.456,4.419,4.419,0,0,1-1.35.188,4.278,4.278,0,0,1-1.368-.2,2.69,2.69,0,0,1-.894-.457,2.033,2.033,0,0,1-.474-.626,2.451,2.451,0,0,1-.223-.6A2.8,2.8,0,0,1,330.834,494.537Zm1.287,0c0,.8.572,1.2,1.7,1.2h0c1.064,0,1.6-.384,1.6-1.144v-1.162a9.323,9.323,0,0,0-1.233-.089,3.537,3.537,0,0,0-.59.054,6.223,6.223,0,0,0-.67.161,1.257,1.257,0,0,0-.59.367.841.841,0,0,0-.188.6Z" transform="translate(-260.89 -487.163)"/><path class="f" d="M339.9,495.953a4.8,4.8,0,0,1,0-5.426,3.124,3.124,0,0,1,2.449-.894,5.515,5.515,0,0,1,2.083.393v1.234a4.374,4.374,0,0,0-1.94-.465h0a2.167,2.167,0,0,0-1.529.5,2.687,2.687,0,0,0-.554,1.975,4.5,4.5,0,0,0,.161,1.305,1.543,1.543,0,0,0,.483.769,1.775,1.775,0,0,0,.652.331,3.326,3.326,0,0,0,.787.08,4.6,4.6,0,0,0,1.966-.447v1.225a5.64,5.64,0,0,1-2.083.384A3.145,3.145,0,0,1,339.9,495.953Z" transform="translate(-261.763 -487.167)"/><path class="f" d="M346.4,490.575v-1.108h1.234v-2.092h1.3v2.092h1.85v1.108h-1.877v4.085c0,.545.349.822,1.046.822h0a1.466,1.466,0,0,0,.822-.206v1.171a2.454,2.454,0,0,1-.885.232h0a2.385,2.385,0,0,1-.545-.063,3.068,3.068,0,0,1-.7-.241,1.453,1.453,0,0,1-.661-.635,2.2,2.2,0,0,1-.268-1.126v-4Z" transform="translate(-262.543 -486.928)"/><path class="f" d="M353.3,488.332v-1.377h1.377v1.377Zm0,8.161v-7.07h1.3v7.07Z" transform="translate(-263.275 -486.883)"/><path class="f" d="M357.129,495.066a5.784,5.784,0,0,1,0-3.647,2.574,2.574,0,0,1,.813-1.126,3.274,3.274,0,0,1,1.1-.527,4.374,4.374,0,0,1,2.351,0,3.248,3.248,0,0,1,1.055.527,2.5,2.5,0,0,1,.813,1.126,5.784,5.784,0,0,1,0,3.647,2.39,2.39,0,0,1-.813,1.126,3.429,3.429,0,0,1-1.055.536,4.616,4.616,0,0,1-2.351,0,3.439,3.439,0,0,1-1.055-.536A2.457,2.457,0,0,1,357.129,495.066Zm1.18-3.128a5.7,5.7,0,0,0,0,2.61,1.524,1.524,0,0,0,.465.76,1.632,1.632,0,0,0,.626.331,3.725,3.725,0,0,0,1.546,0,1.62,1.62,0,0,0,.626-.331,1.452,1.452,0,0,0,.465-.76,5.352,5.352,0,0,0,0-2.61,1.49,1.49,0,0,0-.465-.76,1.951,1.951,0,0,0-.626-.331,3.756,3.756,0,0,0-1.546,0,1.96,1.96,0,0,0-.626.331A1.562,1.562,0,0,0,358.309,491.938Z" transform="translate(-263.65 -487.165)"/><path class="f" d="M366.134,496.77V490.3a6.769,6.769,0,0,1,3.012-.724,3.022,3.022,0,0,1,2.109.7,2.529,2.529,0,0,1,.76,1.94v4.559h-1.323v-4.657a1.4,1.4,0,0,0-.322-.983,1.692,1.692,0,0,0-1.278-.367,5.41,5.41,0,0,0-1.663.259v5.747Z" transform="translate(-264.637 -487.161)"/><path class="f" d="M374.684,491.695a2.012,2.012,0,0,1,.626-1.493,2.687,2.687,0,0,1,1.913-.608,4.291,4.291,0,0,1,1.895.456v1.126a4.107,4.107,0,0,0-1.734-.42c-.939,0-1.4.295-1.4.894,0,.2.125.358.375.492a4.228,4.228,0,0,0,.894.34c.349.107.706.224,1.055.367a2.045,2.045,0,0,1,.626,3.388,2.775,2.775,0,0,1-1.984.617,4.136,4.136,0,0,1-2.038-.492v-1.189a3.861,3.861,0,0,0,1.958.518h0a1.784,1.784,0,0,0,1.028-.241.721.721,0,0,0,.358-.626.832.832,0,0,0-.366-.7,2.826,2.826,0,0,0-.894-.42c-.358-.1-.706-.206-1.064-.331a2.052,2.052,0,0,1-.894-.608A1.621,1.621,0,0,1,374.684,491.695Z" transform="translate(-265.544 -487.163)"/></g><g transform="translate(1.746)"><path class="b" d="M257.988,454.944H289.22a2.163,2.163,0,0,0,0-4.326H257.988a2.163,2.163,0,0,0,0,4.326Z" transform="translate(-254.674 -390.59)"/><path class="b" d="M290.765,411.291v36.836a2.163,2.163,0,0,0,4.326.005V411.291a2.163,2.163,0,0,0-4.326,0Z" transform="translate(-258.382 -386.187)"/><path class="b" d="M265.994,461.947a2.17,2.17,0,0,1-1.412-.518l-9.287-7.946a2.163,2.163,0,0,1-.24-3.05,2.242,2.242,0,0,1,.24-.24l9.287-7.946a2.165,2.165,0,1,1,2.816,3.289l-7.365,6.337,7.365,6.257a2.163,2.163,0,0,1-1.4,3.808Z" transform="translate(-254.537 -389.646)"/><path class="b" d="M292.928,413.454H315.7a2.163,2.163,0,1,0,.006-4.326H292.928a2.163,2.163,0,1,0-.005,4.326Z" transform="translate(-258.382 -386.186)"/><path class="b" d="M342.172,388.107l-22.078,22.078a2.172,2.172,0,1,1-3.255-2.876,2.23,2.23,0,0,1,.19-.19l22.078-22.078a2.172,2.172,0,0,1,3.255,2.876A2.108,2.108,0,0,1,342.172,388.107Z" transform="translate(-261.092 -383.552)"/><path class="b" d="M343.282,399.387a2.185,2.185,0,0,0,.626-1.368l.956-12.219a2.181,2.181,0,0,0-2.017-2.333,2.326,2.326,0,0,0-.315,0l-12.183.956a2.165,2.165,0,0,0,.331,4.317h0l9.663-.751-.751,9.663a2.163,2.163,0,0,0,3.692,1.7Z" transform="translate(-262.372 -383.462)"/><g transform="translate(47.355 16.962)"><circle class="c" cx="5.882" cy="5.882" r="5.882" transform="translate(2.029 2.029)"/><path class="a" d="M311.564,410.349a3.861,3.861,0,1,1,3.861,3.861,3.862,3.862,0,0,1-3.861-3.861m-4.049,0a7.9,7.9,0,1,0,0-.018Z" transform="translate(-307.515 -402.438)"/><path class="d" d="M317.05,463.984V410.291a.822.822,0,0,0-1.645,0v53.694a.822.822,0,0,0,1.645,0Z" transform="translate(-308.353 -403.184)"/></g></g></g><g transform="translate(249.937 247.598)"><path class="b" d="M333.7,274.28a2.174,2.174,0,0,1,1.4.518l9.3,7.946a2.164,2.164,0,0,1,.24,3.05,2.242,2.242,0,0,1-.24.24l-9.3,7.946a2.165,2.165,0,1,1-2.816-3.289l7.365-6.257-7.365-6.3a2.163,2.163,0,0,1,1.412-3.808Z" transform="translate(-278.852 -274.278)"/><path class="b" d="M276.169,283.17h59.7a2.163,2.163,0,0,1,0,4.326h-59.7a2.163,2.163,0,0,1,0-4.326Z" transform="translate(-272.747 -275.222)"/><path class="b" d="M284.054,294.5a2.174,2.174,0,0,1-1.4-.518l-9.3-7.946a2.163,2.163,0,0,1-.24-3.05,2.247,2.247,0,0,1,.24-.24l9.3-7.946a2.165,2.165,0,1,1,2.816,3.289l-7.365,6.3,7.365,6.257a2.163,2.163,0,0,1-1.412,3.808Z" transform="translate(-272.597 -274.278)"/><g transform="translate(20.834 56.955)"><path class="f" d="M295.906,340.672a2.49,2.49,0,0,1,.813-1.886,3.473,3.473,0,0,1,2.494-.778,5.356,5.356,0,0,1,2.431.572v1.287a4.274,4.274,0,0,0-2.27-.626c-1.43,0-2.145.474-2.145,1.43a.821.821,0,0,0,.375.67,3.107,3.107,0,0,0,.894.456c.366.116.778.268,1.216.447a10.619,10.619,0,0,1,1.207.581,2.559,2.559,0,0,1,1.305,2.279,2.245,2.245,0,0,1-.894,1.895,4.067,4.067,0,0,1-2.5.679,6.34,6.34,0,0,1-2.816-.679v-1.359a5.148,5.148,0,0,0,2.682.8c1.466,0,2.2-.447,2.208-1.341a1.371,1.371,0,0,0-.375-.974,2.154,2.154,0,0,0-.894-.59l-1.216-.411c-.447-.152-.849-.313-1.216-.474a2.283,2.283,0,0,1-.894-.751A2.017,2.017,0,0,1,295.906,340.672Z" transform="translate(-295.906 -337.997)"/><path class="f" d="M304.676,342.887a6.69,6.69,0,0,1,.277-2.029,4.1,4.1,0,0,1,.688-1.4,3.457,3.457,0,0,1,1.028-.84,4.165,4.165,0,0,1,1.18-.447,7.145,7.145,0,0,1,2.467,0,4.023,4.023,0,0,1,1.171.447,3.327,3.327,0,0,1,1.019.84,3.963,3.963,0,0,1,.7,1.4,6.715,6.715,0,0,1,.277,2.029,7.052,7.052,0,0,1-.313,2.2,3.493,3.493,0,0,1-.894,1.466,4.046,4.046,0,0,1-1.162.8,4.83,4.83,0,0,1-1.35.34,1.4,1.4,0,0,0,.375.974,1.333,1.333,0,0,0,1.037.42v.956a2.765,2.765,0,0,1-1.94-.7,2.233,2.233,0,0,1-.769-1.707,4.856,4.856,0,0,1-1.394-.322,3.87,3.87,0,0,1-1.207-.769,3.5,3.5,0,0,1-.894-1.475A6.8,6.8,0,0,1,304.676,342.887Zm1.52-1.618a5.811,5.811,0,0,0-.2,1.618,5.878,5.878,0,0,0,.2,1.627,3.2,3.2,0,0,0,.474,1.064,2.051,2.051,0,0,0,.715.608,2.829,2.829,0,0,0,.813.295,6.49,6.49,0,0,0,.894.063,6.379,6.379,0,0,0,.894-.063,2.812,2.812,0,0,0,.822-.295,2.181,2.181,0,0,0,.724-.608,3.23,3.23,0,0,0,.483-1.064,6.278,6.278,0,0,0,.188-1.627,6.206,6.206,0,0,0-.188-1.618,3.43,3.43,0,0,0-.474-1.055,2,2,0,0,0-.724-.608,2.849,2.849,0,0,0-.822-.3,6.117,6.117,0,0,0-1.788,0,2.725,2.725,0,0,0-.813.3,2.031,2.031,0,0,0-.715.608,3.2,3.2,0,0,0-.456,1.01Z" transform="translate(-296.836 -338.003)"/><path class="f" d="M316.746,347.587V338.13h1.314v8.223h4.693v1.234Z" transform="translate(-298.118 -338.011)"/></g><g transform="translate(25.241 2.201)"><path class="c" d="M314.866,284.892a5.891,5.891,0,1,1-5.9-5.882h.009A5.89,5.89,0,0,1,314.866,284.892Z" transform="translate(-301.074 -276.981)"/><path class="a" d="M304.884,284.651a3.862,3.862,0,1,1,3.861,3.861h-.009a3.862,3.862,0,0,1-3.853-3.861m-4.049,0a7.911,7.911,0,1,0,7.911-7.911h-.009A7.911,7.911,0,0,0,300.835,284.651Z" transform="translate(-300.835 -276.74)"/><path class="d" d="M311.4,322.094V284.552a.822.822,0,0,0-1.645,0v37.546a.822.822,0,0,0,1.645,0Z" transform="translate(-301.782 -277.482)"/></g></g><g transform="translate(101.14 367.029)"><path class="g" d="M106.13,479.377l4.407-11.066h1.511l4.4,11.066h-1.663l-1.171-3.128H108.99l-1.189,3.1Zm3.4-4.55h3.513l-1.788-4.586Z" transform="translate(-106.13 -414.304)"/><path class="g" d="M119.57,482.813v-8.939a3.465,3.465,0,0,1,.045-.527,2.79,2.79,0,0,1,.25-.67,2.473,2.473,0,0,1,.536-.715,3.145,3.145,0,0,1,1.019-.527,5.44,5.44,0,0,1,2.476-.143,3.371,3.371,0,0,1,.956.367,3.1,3.1,0,0,1,.894.733,3.634,3.634,0,0,1,.635,1.278,6.4,6.4,0,0,1,.277,1.993,5.877,5.877,0,0,1-.34,2.1,2.68,2.68,0,0,1-.894,1.287,4.023,4.023,0,0,1-1.207.608,4.882,4.882,0,0,1-1.35.179,6.4,6.4,0,0,1-1.788-.241v3.218Zm1.511-4.711a5.053,5.053,0,0,0,1.788.331,3.538,3.538,0,0,0,.894-.1,1.879,1.879,0,0,0,.706-.375,1.685,1.685,0,0,0,.536-.894,5.294,5.294,0,0,0,.179-1.484,6.105,6.105,0,0,0-.179-1.6,1.847,1.847,0,0,0-.527-.894,1.792,1.792,0,0,0-.67-.393,2.457,2.457,0,0,0-.76-.107c-1.278,0-1.922.411-1.922,1.234Z" transform="translate(-107.557 -414.612)"/><path class="g" d="M129.73,482.813v-8.939a2.608,2.608,0,0,1,.054-.527,2.793,2.793,0,0,1,.25-.67,2.176,2.176,0,0,1,.536-.715,2.97,2.97,0,0,1,1.019-.527,4.89,4.89,0,0,1,1.573-.224,4.99,4.99,0,0,1,.894.081,3.335,3.335,0,0,1,.965.366,3.243,3.243,0,0,1,.894.733,3.783,3.783,0,0,1,.635,1.278,6.408,6.408,0,0,1,.25,1.9,5.9,5.9,0,0,1-.331,2.1,2.681,2.681,0,0,1-.894,1.287,4.125,4.125,0,0,1-1.2.608,4.952,4.952,0,0,1-1.35.179,6.4,6.4,0,0,1-1.788-.241v3.307Zm1.52-4.711a5.009,5.009,0,0,0,1.788.331,3.456,3.456,0,0,0,.894-.1,1.922,1.922,0,0,0,.715-.375,1.626,1.626,0,0,0,.527-.894,4.958,4.958,0,0,0,.188-1.484,5.71,5.71,0,0,0-.188-1.6,1.839,1.839,0,0,0-.518-.894,1.888,1.888,0,0,0-.67-.393,2.514,2.514,0,0,0-.769-.107c-1.278,0-1.913.411-1.913,1.233Z" transform="translate(-108.635 -414.612)"/><path class="g" d="M140.23,479.333V467.9h1.52v11.432Z" transform="translate(-109.75 -414.261)"/><path class="g" d="M144.98,469.8v-1.609h1.609v1.6Zm.054,9.564v-8.277h1.511v8.277Z" transform="translate(-110.254 -414.292)"/><path class="g" d="M150.153,478.726a5.614,5.614,0,0,1,0-6.346,3.636,3.636,0,0,1,2.869-1.1,6.536,6.536,0,0,1,2.44.465v1.439a5.253,5.253,0,0,0-2.279-.545h0a2.561,2.561,0,0,0-1.788.59,3.153,3.153,0,0,0-.644,2.324,5.225,5.225,0,0,0,.188,1.52,1.719,1.719,0,0,0,.563.894,2.116,2.116,0,0,0,.769.393,3.911,3.911,0,0,0,.894.1,5.446,5.446,0,0,0,2.315-.527v1.43a6.719,6.719,0,0,1-2.44.456A3.668,3.668,0,0,1,150.153,478.726Z" transform="translate(-110.699 -414.618)"/><path class="g" d="M157.92,477.072a2.2,2.2,0,0,1,1.037-1.922,5.145,5.145,0,0,1,2.86-.688,11.555,11.555,0,0,1,1.5.1,2.008,2.008,0,0,0-.572-1.493,2.552,2.552,0,0,0-1.707-.456,7.036,7.036,0,0,0-2.288.411v-1.3a7.016,7.016,0,0,1,2.5-.447,3.77,3.77,0,0,1,2.682.894,3.4,3.4,0,0,1,.939,2.574v2.387a2.551,2.551,0,0,1-.054.527,2.967,2.967,0,0,1-.25.679,2.4,2.4,0,0,1-.536.724,2.973,2.973,0,0,1-1.028.527,5.016,5.016,0,0,1-1.573.223,5.113,5.113,0,0,1-1.609-.232,3.035,3.035,0,0,1-1.037-.536,2.355,2.355,0,0,1-.554-.733,2.911,2.911,0,0,1-.259-.7A3.993,3.993,0,0,1,157.92,477.072Zm1.511,0c0,.894.661,1.4,1.993,1.4h0c1.251,0,1.877-.447,1.877-1.35v-1.332a10.328,10.328,0,0,0-1.439-.107,3.8,3.8,0,0,0-.7.063,4.862,4.862,0,0,0-.778.188,1.534,1.534,0,0,0-.7.429.992.992,0,0,0-.259.688Z" transform="translate(-111.627 -414.619)"/><path class="g" d="M167.01,472.435v-1.3h1.448v-2.458h1.511v2.458h2.2v1.3h-2.2v4.746c0,.644.411.965,1.225.965h0a1.793,1.793,0,0,0,.956-.241v1.368a3.007,3.007,0,0,1-1.126.232h0a3.368,3.368,0,0,1-.635-.072,3.74,3.74,0,0,1-.813-.286,1.8,1.8,0,0,1-.787-.742,2.607,2.607,0,0,1-.3-1.314V472.4Z" transform="translate(-112.592 -414.344)"/><path class="g" d="M175.02,469.8v-1.609h1.609v1.6Zm.054,9.564v-8.277h1.511v8.277Z" transform="translate(-113.442 -414.292)"/><path class="g" d="M179.569,477.7a6.748,6.748,0,0,1,0-4.282,2.91,2.91,0,0,1,.947-1.314,4.008,4.008,0,0,1,1.234-.626,5.363,5.363,0,0,1,2.753,0,4.009,4.009,0,0,1,1.234.626,2.93,2.93,0,0,1,.956,1.314,6.748,6.748,0,0,1,0,4.282,2.935,2.935,0,0,1-.956,1.314,4.026,4.026,0,0,1-1.234.626,5.363,5.363,0,0,1-2.753,0,4.026,4.026,0,0,1-1.234-.626A2.915,2.915,0,0,1,179.569,477.7Zm1.377-3.665a6.6,6.6,0,0,0,0,3.048,1.8,1.8,0,0,0,.545.894,2.082,2.082,0,0,0,.733.384,3.811,3.811,0,0,0,.894.1,3.706,3.706,0,0,0,.894-.1,2,2,0,0,0,.733-.384,1.731,1.731,0,0,0,.545-.894,6.259,6.259,0,0,0,0-3.048,1.724,1.724,0,0,0-.545-.894,1.99,1.99,0,0,0-.733-.384,4.112,4.112,0,0,0-1.788,0,2.066,2.066,0,0,0-.733.384A1.791,1.791,0,0,0,180.945,474.036Z" transform="translate(-113.888 -414.622)"/><path class="g" d="M190.1,479.682v-7.6a7.97,7.97,0,0,1,3.575-.894,3.57,3.57,0,0,1,2.467.822,2.929,2.929,0,0,1,.894,2.27v5.363H195.49v-5.461a1.685,1.685,0,0,0-.375-1.153,2.015,2.015,0,0,0-1.5-.42,6.138,6.138,0,0,0-1.949.3v6.731Z" transform="translate(-115.043 -414.609)"/><path class="g" d="M200.12,473.747a2.334,2.334,0,0,1,.733-1.743,3.052,3.052,0,0,1,2.235-.724,4.871,4.871,0,0,1,2.217.545v1.314a4.863,4.863,0,0,0-2.029-.5c-1.1,0-1.645.358-1.645,1.064,0,.232.143.42.438.572a5.123,5.123,0,0,0,1.055.4c.411.116.822.259,1.234.42a2.545,2.545,0,0,1,1.055.831,2.45,2.45,0,0,1-.313,3.164,3.248,3.248,0,0,1-2.324.724,4.981,4.981,0,0,1-2.4-.581V477.85a4.661,4.661,0,0,0,2.3.608h0a2.151,2.151,0,0,0,1.207-.286.9.9,0,0,0,.42-.733.981.981,0,0,0-.438-.822,3.355,3.355,0,0,0-1.055-.483c-.42-.116-.831-.241-1.242-.384a2.452,2.452,0,0,1-1.055-.715A1.9,1.9,0,0,1,200.12,473.747Z" transform="translate(-116.106 -414.618)"/><path class="h" d="M154.041,453.275a1.339,1.339,0,0,1-.653-.179l-19.406-4.675a1.307,1.307,0,0,1-.653-1.135v-32.84a1.324,1.324,0,0,1,.653-1.144l19.406-4.2a1.321,1.321,0,0,1,1.314,0l19.406,4.2a1.32,1.32,0,0,1,.653,1.144v32.84a1.3,1.3,0,0,1-.653,1.135L154.7,453.1A1.332,1.332,0,0,1,154.041,453.275Z" transform="translate(-109.017 -408.001)"/><path class="b" d="M154,454.041c-.223,0-20.344-4.755-20.344-4.755a1.325,1.325,0,0,1-.67-1.153v-34.78a1.323,1.323,0,0,1,.67-1.153s20.121-4.308,20.344-4.308,20.353,4.308,20.353,4.308a1.321,1.321,0,0,1,.67,1.153v34.78a1.323,1.323,0,0,1-.67,1.153S154.237,454.041,154,454.041Zm-18.351-6.677L154,451.171l18.36-3.808V414.121L154,410.143l-18.351,3.978Z" transform="translate(-108.981 -407.891)"/><path class="b" d="M154,420.132a1.368,1.368,0,0,1-.67-.179l-19.665-4.139a1.332,1.332,0,0,1,1.284-2.334l.048.028,19,3.745,19.021-3.745a1.322,1.322,0,0,1,1.788.483,1.34,1.34,0,0,1-.483,1.788l-19.665,4.139A1.374,1.374,0,0,1,154,420.132Z" transform="translate(-108.98 -408.467)"/><path class="b" d="M156.341,454.2A1.342,1.342,0,0,1,155,452.864V419.792a1.341,1.341,0,1,1,2.682,0h0v33.073a1.332,1.332,0,0,1-1.332,1.332Z" transform="translate(-111.317 -409.012)"/></g><g transform="translate(116.156 280.028)"><path class="g" d="M122.93,374.3a2.977,2.977,0,0,1,.939-2.208,4.1,4.1,0,0,1,2.923-.894,6.372,6.372,0,0,1,2.851.67v1.5a5.026,5.026,0,0,0-2.682-.733c-1.672,0-2.5.554-2.5,1.672a.967.967,0,0,0,.438.787,3.438,3.438,0,0,0,1.091.536c.429.134.894.3,1.412.518a14.086,14.086,0,0,1,1.421.679,2.978,2.978,0,0,1,1.082,1.055,2.935,2.935,0,0,1,.438,1.618,2.6,2.6,0,0,1-1.064,2.217,4.8,4.8,0,0,1-2.932.8,7.474,7.474,0,0,1-3.289-.8v-1.573a6,6,0,0,0,3.173.894c1.716,0,2.583-.527,2.583-1.573a1.609,1.609,0,0,0-.438-1.144,2.476,2.476,0,0,0-1.082-.688l-1.421-.483c-.518-.179-.992-.357-1.421-.545a2.689,2.689,0,0,1-1.082-.894A2.349,2.349,0,0,1,122.93,374.3Z" transform="translate(-122.93 -316.994)"/><path class="g" d="M133.18,378.689q0-4.371,3.656-4.371h0a3.442,3.442,0,0,1,2.682,1.082,4.146,4.146,0,0,1,.992,2.9,9.493,9.493,0,0,1-.045,1.144h-5.721a2.147,2.147,0,0,0,2.155,2.136c.06,0,.119,0,.178-.009a5.994,5.994,0,0,0,2.86-.626v1.377a7.216,7.216,0,0,1-2.887.545H137a4.569,4.569,0,0,1-1.341-.188,3.853,3.853,0,0,1-1.2-.6,2.777,2.777,0,0,1-.894-1.3A5.856,5.856,0,0,1,133.18,378.689Zm1.529-.608h4.246a3.8,3.8,0,0,0-.143-.787,3.306,3.306,0,0,0-.331-.769,1.535,1.535,0,0,0-.644-.617,2.08,2.08,0,0,0-1-.232,1.97,1.97,0,0,0-1.537.545,3.129,3.129,0,0,0-.59,1.841Z" transform="translate(-124.018 -317.326)"/><path class="g" d="M143.55,382.708v-7.6a10.806,10.806,0,0,1,4.031-.831v1.394a10.489,10.489,0,0,0-2.521.349v6.668Z" transform="translate(-125.118 -317.323)"/><path class="g" d="M149.51,374.449h1.618l2.324,6.454,2.342-6.454h1.591l-3.182,8.277h-1.555Z" transform="translate(-125.751 -317.341)"/><path class="g" d="M160.43,372.818v-1.609h1.609v1.6Zm.054,9.564v-8.277h1.511v8.277Z" transform="translate(-126.91 -316.997)"/><path class="g" d="M165.6,381.744a5.614,5.614,0,0,1,0-6.346,3.639,3.639,0,0,1,2.869-1.1,6.553,6.553,0,0,1,2.44.465V376.2a5.266,5.266,0,0,0-2.279-.545h0a2.57,2.57,0,0,0-1.788.59,3.162,3.162,0,0,0-.644,2.324,5.223,5.223,0,0,0,.188,1.52,1.713,1.713,0,0,0,.563.894,2.1,2.1,0,0,0,.769.393,3.81,3.81,0,0,0,.894.1,5.428,5.428,0,0,0,2.315-.527v1.43a6.681,6.681,0,0,1-2.44.456A3.663,3.663,0,0,1,165.6,381.744Z" transform="translate(-127.355 -317.324)"/><path class="g" d="M173.32,378.689q0-4.371,3.656-4.371h0a3.433,3.433,0,0,1,2.682,1.082,4.146,4.146,0,0,1,.992,2.9,9.493,9.493,0,0,1-.045,1.144h-5.721a2.147,2.147,0,0,0,2.155,2.136c.06,0,.119,0,.178-.009a5.992,5.992,0,0,0,2.86-.626v1.376a7.216,7.216,0,0,1-2.887.545h-.054a4.57,4.57,0,0,1-1.341-.188,3.853,3.853,0,0,1-1.2-.6,2.777,2.777,0,0,1-.894-1.3A5.856,5.856,0,0,1,173.32,378.689Zm1.529-.608h4.246a3.611,3.611,0,0,0-.474-1.555,1.535,1.535,0,0,0-.644-.617,2.081,2.081,0,0,0-1-.232,1.97,1.97,0,0,0-1.537.545,3.128,3.128,0,0,0-.6,1.841Z" transform="translate(-128.278 -317.326)"/><path class="g" d="M183.32,376.765a2.335,2.335,0,0,1,.733-1.743,3.061,3.061,0,0,1,2.235-.724,4.865,4.865,0,0,1,2.217.545v1.314a4.859,4.859,0,0,0-2.029-.5c-1.09,0-1.645.358-1.645,1.064,0,.232.152.42.438.572a5.093,5.093,0,0,0,1.055.4c.411.116.822.259,1.234.42a2.545,2.545,0,0,1,1.055.831,2.448,2.448,0,0,1-.313,3.164,3.235,3.235,0,0,1-2.324.724,4.917,4.917,0,0,1-2.387-.581v-1.385a4.609,4.609,0,0,0,2.288.608h0a2.135,2.135,0,0,0,1.207-.286.89.89,0,0,0,.42-.733.964.964,0,0,0-.438-.822,3.3,3.3,0,0,0-1.055-.483c-.411-.116-.831-.241-1.242-.384a2.491,2.491,0,0,1-1.055-.715A1.9,1.9,0,0,1,183.32,376.765Z" transform="translate(-129.339 -317.324)"/><path class="h" d="M153.65,355.943a1.211,1.211,0,0,1-.653-.179l-19.406-4.675a1.316,1.316,0,0,1-.661-1.135v-32.84a1.342,1.342,0,0,1,.661-1.144l19.406-4.2a1.308,1.308,0,0,1,1.305,0l19.406,4.2a1.321,1.321,0,0,1,.661,1.144v32.84a1.294,1.294,0,0,1-.661,1.135L154.3,355.764A1.206,1.206,0,0,1,153.65,355.943Z" transform="translate(-123.991 -310.669)"/><path class="b" d="M153.615,356.727c-.232,0-20.353-4.764-20.353-4.764a1.333,1.333,0,0,1-.661-1.153V316.02a1.334,1.334,0,0,1,.661-1.153s20.121-4.308,20.353-4.308,20.353,4.308,20.353,4.308a1.341,1.341,0,0,1,.67,1.153V350.8a1.338,1.338,0,0,1-.67,1.153S153.847,356.727,153.615,356.727Zm-18.351-6.686,18.351,3.808,18.351-3.808V316.789l-18.351-3.978-18.351,3.978Z" transform="translate(-123.956 -310.559)"/><path class="b" d="M153.614,322.8a1.335,1.335,0,0,1-.661-.179l-19.665-4.139a1.332,1.332,0,0,1,1.284-2.334l.048.028,19.021,3.754,19.021-3.754a1.332,1.332,0,0,1,1.381,2.278l-.049.028-19.665,4.139A1.362,1.362,0,0,1,153.614,322.8Z" transform="translate(-123.956 -311.135)"/><path class="b" d="M155.952,356.864a1.332,1.332,0,0,1-1.332-1.332V322.46a1.341,1.341,0,0,1,2.682,0v33.073a1.331,1.331,0,0,1-1.331,1.332Z" transform="translate(-126.293 -311.68)"/></g><g transform="translate(124.969 192.742)"><path class="g" d="M138.449,285.093l4.407-11.066h1.511l4.389,11.066h-1.663l-1.18-3.128h-4.621l-1.189,3.1Zm3.4-4.55h3.513l-1.788-4.585Z" transform="translate(-133.39 -219.395)"/><path class="g" d="M152.089,285.092V274.026h3.987a4.124,4.124,0,0,1,2.86.894,3.772,3.772,0,0,1,0,5.14,4.129,4.129,0,0,1-2.86.894h-2.44v4.1Zm1.546-5.461h2.3a2.573,2.573,0,0,0,1.975-.572,2.269,2.269,0,0,0,.5-1.537,2.246,2.246,0,0,0-.5-1.529,2.559,2.559,0,0,0-1.975-.572h-2.3Z" transform="translate(-134.838 -219.393)"/><path class="g" d="M163.159,285.093V274.027h1.546v11.066Z" transform="translate(-136.013 -219.395)"/><path class="g" d="M167.4,279.463a2.334,2.334,0,0,1,.733-1.743,3.063,3.063,0,0,1,2.235-.724,4.842,4.842,0,0,1,2.217.545v1.314a4.86,4.86,0,0,0-2.028-.5c-1.09,0-1.645.358-1.645,1.064,0,.232.152.42.437.572a5.141,5.141,0,0,0,1.055.4c.411.116.823.259,1.234.42a2.544,2.544,0,0,1,1.055.831,2.448,2.448,0,0,1-.313,3.164,3.238,3.238,0,0,1-2.324.724,4.926,4.926,0,0,1-2.387-.581v-1.385a4.621,4.621,0,0,0,2.288.608h0a2.149,2.149,0,0,0,1.207-.286.893.893,0,0,0,.42-.733.961.961,0,0,0-.438-.822,3.258,3.258,0,0,0-1.055-.483c-.411-.116-.831-.241-1.242-.384a2.5,2.5,0,0,1-1.055-.715A1.9,1.9,0,0,1,167.4,279.463Z" transform="translate(-136.462 -219.709)"/><path class="h" d="M153.84,258.291a1.326,1.326,0,0,1-.653-.17l-19.406-4.675a1.333,1.333,0,0,1-.653-1.144v-32.84a1.3,1.3,0,0,1,.653-1.135l19.406-4.21a1.321,1.321,0,0,1,1.314,0l19.406,4.21a1.3,1.3,0,0,1,.653,1.135v32.885a1.329,1.329,0,0,1-.653,1.144L154.5,258.165A1.327,1.327,0,0,1,153.84,258.291Z" transform="translate(-132.825 -213.017)"/><path class="b" d="M153.8,259.066c-.223,0-20.344-4.764-20.344-4.764a1.316,1.316,0,0,1-.67-1.153V218.377a1.334,1.334,0,0,1,.67-1.162s20.121-4.308,20.344-4.308,20.353,4.308,20.353,4.308a1.33,1.33,0,0,1,.67,1.162V253.13a1.313,1.313,0,0,1-.67,1.153S154.036,259.066,153.8,259.066Zm-18.351-6.686,18.351,3.808,18.36-3.808V219.164l-18.36-3.987-18.351,3.987Z" transform="translate(-132.789 -212.907)"/><path class="b" d="M153.806,225.148a1.376,1.376,0,0,1-.661-.179L133.48,220.83a1.334,1.334,0,1,1,1.341-2.306l19.012,3.754,19.021-3.754a1.332,1.332,0,1,1,1.381,2.278l-.049.029-19.665,4.139A1.379,1.379,0,0,1,153.806,225.148Z" transform="translate(-132.792 -213.483)"/><path class="b" d="M156.141,259.206a1.332,1.332,0,0,1-1.332-1.332V224.748a1.341,1.341,0,1,1,2.682,0h0V257.82a1.332,1.332,0,0,1-1.276,1.385Z" transform="translate(-135.126 -214.022)"/></g><g transform="translate(97.006 105.124)"><path class="g" d="M101.505,187.41V176.344h3.575a5.068,5.068,0,0,1,3.87,1.412,7.15,7.15,0,0,1,0,8.25,5.065,5.065,0,0,1-3.87,1.4Zm1.546-1.368h1.743a3.884,3.884,0,0,0,2.968-1,5.755,5.755,0,0,0,0-6.329,3.9,3.9,0,0,0-2.968-1.01h-1.743Z" transform="translate(-101.505 -121.407)"/><path class="g" d="M113.1,185.106a2.2,2.2,0,0,1,1.037-1.922A5.152,5.152,0,0,1,117,182.5a11.881,11.881,0,0,1,1.5.1,1.975,1.975,0,0,0-.572-1.493,2.562,2.562,0,0,0-1.707-.456,7.058,7.058,0,0,0-2.288.411v-1.3a7.056,7.056,0,0,1,2.5-.447,3.756,3.756,0,0,1,2.682.894,3.4,3.4,0,0,1,.894,2.574v2.387a2.607,2.607,0,0,1-.054.527,2.952,2.952,0,0,1-.25.679,2.376,2.376,0,0,1-.536.724,2.95,2.95,0,0,1-1.028.527,4.968,4.968,0,0,1-1.573.223,5.112,5.112,0,0,1-1.609-.232,3,3,0,0,1-1.037-.536,2.335,2.335,0,0,1-.554-.733,3.268,3.268,0,0,1-.259-.7A3.825,3.825,0,0,1,113.1,185.106Zm1.511,0c0,.894.67,1.4,1.993,1.4h0c1.251,0,1.877-.447,1.877-1.35v-1.332a10.475,10.475,0,0,0-1.439-.107,4.06,4.06,0,0,0-.7.063,4.959,4.959,0,0,0-.778.189,1.638,1.638,0,0,0-.7.428,1.03,1.03,0,0,0-.259.688Z" transform="translate(-102.736 -121.723)"/><path class="g" d="M122.2,180.469v-1.3h1.448v-2.458h1.511v2.458h2.2v1.3h-2.2v4.746c0,.644.411.965,1.225.965h0a1.777,1.777,0,0,0,.956-.241v1.368a2.973,2.973,0,0,1-1.126.232h-.045a3.224,3.224,0,0,1-.635-.072,3.7,3.7,0,0,1-.813-.286,1.788,1.788,0,0,1-.787-.742,2.594,2.594,0,0,1-.3-1.314v-4.693Z" transform="translate(-103.701 -121.448)"/><path class="g" d="M129.695,185.106a2.173,2.173,0,0,1,1.037-1.922,5.152,5.152,0,0,1,2.86-.688,11.882,11.882,0,0,1,1.5.1,2.011,2.011,0,0,0-.572-1.493,2.572,2.572,0,0,0-1.707-.456,7.058,7.058,0,0,0-2.288.411v-1.3a6.988,6.988,0,0,1,2.494-.447,3.8,3.8,0,0,1,2.682.894,3.4,3.4,0,0,1,.939,2.574v2.387a2.607,2.607,0,0,1-.054.527,2.951,2.951,0,0,1-.25.679,2.26,2.26,0,0,1-.545.724,2.816,2.816,0,0,1-1.019.527,4.994,4.994,0,0,1-1.582.223,5.057,5.057,0,0,1-1.6-.232,2.928,2.928,0,0,1-1.037-.536,2.335,2.335,0,0,1-.554-.733A2.359,2.359,0,0,1,129.695,185.106Zm1.511,0c0,.894.661,1.4,1.984,1.4h0c1.251,0,1.877-.447,1.877-1.35v-1.332a10.761,10.761,0,0,0-1.439-.107,3.874,3.874,0,0,0-.7.063,5.3,5.3,0,0,0-.787.189,1.555,1.555,0,0,0-.688.428.993.993,0,0,0-.277.688Z" transform="translate(-104.497 -121.723)"/><path class="g" d="M145.954,179.315a2.977,2.977,0,0,1,.894-2.208,4.1,4.1,0,0,1,2.923-.894,6.379,6.379,0,0,1,2.851.67v1.5a5.027,5.027,0,0,0-2.682-.733c-1.672,0-2.5.554-2.5,1.672a.964.964,0,0,0,.438.787,3.439,3.439,0,0,0,1.09.536c.429.134.894.3,1.412.518a14.288,14.288,0,0,1,1.421.679,2.984,2.984,0,0,1,1.082,1.055,2.942,2.942,0,0,1,.438,1.618,2.619,2.619,0,0,1-1.055,2.217,4.841,4.841,0,0,1-2.941.8,7.471,7.471,0,0,1-3.289-.8v-1.573a6,6,0,0,0,3.155.939c1.716,0,2.583-.527,2.583-1.573a1.609,1.609,0,0,0-.438-1.144,2.481,2.481,0,0,0-1.082-.688l-1.421-.483c-.518-.179-.992-.358-1.421-.545a2.683,2.683,0,0,1-1.082-.894A2.344,2.344,0,0,1,145.954,179.315Z" transform="translate(-106.222 -121.393)"/><path class="g" d="M155.175,180.469v-1.3h1.439v-2.458h1.52v2.458h2.2v1.3h-2.2v4.746c0,.644.4.965,1.216.965h0a1.784,1.784,0,0,0,.965-.241v1.368a3.022,3.022,0,0,1-1.135.232h0a3.247,3.247,0,0,1-.644-.072,3.873,3.873,0,0,1-.813-.286,1.782,1.782,0,0,1-.778-.742,2.6,2.6,0,0,1-.313-1.314v-4.693Z" transform="translate(-107.202 -121.448)"/><path class="g" d="M163.055,187.724v-7.6a10.841,10.841,0,0,1,4.031-.831v1.394a10.323,10.323,0,0,0-2.512.349v6.668Z" transform="translate(-108.038 -121.722)"/><path class="g" d="M168.855,183.705q0-4.371,3.647-4.371h0a3.452,3.452,0,0,1,2.682,1.082,4.15,4.15,0,0,1,.992,2.905v1.144h-5.721a2.145,2.145,0,0,0,2.155,2.136c.059,0,.119,0,.178-.009a6.028,6.028,0,0,0,2.86-.626v1.377a7.293,7.293,0,0,1-2.9.545h0a4.569,4.569,0,0,1-1.35-.188,3.943,3.943,0,0,1-1.2-.6,2.817,2.817,0,0,1-.894-1.3A5.643,5.643,0,0,1,168.855,183.705Zm1.52-.608h4.291a4.543,4.543,0,0,0-.143-.787,3.771,3.771,0,0,0-.331-.769,1.654,1.654,0,0,0-.644-.617,2.117,2.117,0,0,0-1.01-.232,1.95,1.95,0,0,0-1.528.545,3.113,3.113,0,0,0-.635,1.841Z" transform="translate(-108.654 -121.726)"/><path class="g" d="M178.735,185.106a2.2,2.2,0,0,1,1.037-1.922,5.176,5.176,0,0,1,2.86-.688,12.022,12.022,0,0,1,1.511.1,2.01,2.01,0,0,0-.572-1.493,2.588,2.588,0,0,0-1.707-.456,7.116,7.116,0,0,0-2.3.411v-1.3a7.076,7.076,0,0,1,2.5-.447,3.756,3.756,0,0,1,2.682.894,3.4,3.4,0,0,1,.947,2.574v2.387a2.607,2.607,0,0,1-.054.527,3.02,3.02,0,0,1-.259.679,2.121,2.121,0,0,1-.536.724,2.855,2.855,0,0,1-1.028.527,4.889,4.889,0,0,1-1.573.223,5.057,5.057,0,0,1-1.6-.232,2.967,2.967,0,0,1-1.046-.536,2.474,2.474,0,0,1-.554-.733,2.753,2.753,0,0,1-.25-.7A2.855,2.855,0,0,1,178.735,185.106Zm1.52,0c0,.894.661,1.4,1.984,1.4h0c1.251,0,1.877-.447,1.877-1.35v-1.332a10.761,10.761,0,0,0-1.439-.107,3.873,3.873,0,0,0-.7.063,5.277,5.277,0,0,0-.787.189,1.638,1.638,0,0,0-.7.428,1.031,1.031,0,0,0-.241.688Z" transform="translate(-109.702 -121.723)"/><path class="g" d="M188.935,187.724v-7.6a7.612,7.612,0,0,1,3.441-.831,3.716,3.716,0,0,1,2.208.626,8.308,8.308,0,0,1,3.039-.626,3.474,3.474,0,0,1,2.413.831,2.976,2.976,0,0,1,.894,2.279v5.363h-1.52v-5.426a1.791,1.791,0,0,0-.349-1.153,1.673,1.673,0,0,0-1.359-.438,5.758,5.758,0,0,0-2.226.465,3.28,3.28,0,0,1,.2,1.18v5.363h-1.52v-5.417a1.61,1.61,0,0,0-.384-1.144,2.052,2.052,0,0,0-1.528-.42,6.789,6.789,0,0,0-1.788.25v6.731Z" transform="translate(-110.785 -121.721)"/><path class="g" d="M204.735,181.781a2.371,2.371,0,0,1,.733-1.743,3.079,3.079,0,0,1,2.244-.724,4.856,4.856,0,0,1,2.208.545v1.314a4.851,4.851,0,0,0-2.02-.5c-1.1,0-1.645.358-1.645,1.064,0,.232.143.42.438.572a4.818,4.818,0,0,0,1.046.4c.411.116.822.259,1.233.42a2.5,2.5,0,0,1,1.055.831,2.431,2.431,0,0,1-.3,3.164,3.25,3.25,0,0,1-2.333.724,4.9,4.9,0,0,1-2.387-.581v-1.385a4.614,4.614,0,0,0,2.3.608h0a2.2,2.2,0,0,0,1.216-.286.893.893,0,0,0,.411-.733.984.984,0,0,0-.429-.822,3.5,3.5,0,0,0-1.055-.483c-.42-.116-.831-.241-1.242-.384a2.379,2.379,0,0,1-1.055-.715A1.859,1.859,0,0,1,204.735,181.781Z" transform="translate(-112.462 -121.723)"/><path class="h" d="M153.436,160.259a1.284,1.284,0,0,1-.653-.17l-19.406-4.675a1.323,1.323,0,0,1-.652-1.144V121.43a1.307,1.307,0,0,1,.652-1.135l19.406-4.2a1.291,1.291,0,0,1,1.314,0l19.4,4.2a1.3,1.3,0,0,1,.661,1.135v32.84a1.312,1.312,0,0,1-.661,1.144l-19.4,4.675A1.338,1.338,0,0,1,153.436,160.259Z" transform="translate(-104.819 -114.994)"/><path class="b" d="M153.4,161.035c-.232,0-20.353-4.764-20.353-4.764a1.323,1.323,0,0,1-.661-1.153V120.346a1.315,1.315,0,0,1,.661-1.153s20.121-4.308,20.353-4.308,20.353,4.308,20.353,4.308a1.325,1.325,0,0,1,.67,1.153v34.771a1.329,1.329,0,0,1-.67,1.153S153.632,161.035,153.4,161.035Zm-18.36-6.686,18.351,3.817,18.351-3.817V121.115l-18.351-3.987-18.351,3.987Z" transform="translate(-104.783 -114.885)"/><path class="b" d="M153.405,127.116a1.323,1.323,0,0,1-.661-.179L133.079,122.8a1.332,1.332,0,0,1,1.332-2.306l19.021,3.754,19.021-3.754a1.332,1.332,0,1,1,1.38,2.278l-.048.028-19.665,4.139A1.362,1.362,0,0,1,153.405,127.116Z" transform="translate(-104.788 -115.46)"/><path class="b" d="M155.737,161.18a1.332,1.332,0,0,1-1.332-1.332V126.776a1.341,1.341,0,0,1,2.682,0v33.073a1.323,1.323,0,0,1-1.314,1.333Z" transform="translate(-107.12 -116.005)"/></g><g transform="translate(340.491 179.202)"><rect class="a" width="230.561" height="178.449" rx="6.39"/><path class="c" d="M411.615,347.329s-2.288,3.459,2.208,4.165c.438.063,3.7.4,4.541,1.466,0,0-.08-1.841-2.726-2.932S411.91,348.679,411.615,347.329Z" transform="translate(-377.845 -213.635)"/><path class="c" d="M413.823,338.979s-6.4,3.9-.366,7.785c1.162.751,5.363,2.86,5.247,4.791,0,0,2.547-3.781-1.18-6.15S412.741,340.382,413.823,338.979Z" transform="translate(-377.827 -212.749)"/><path class="c" d="M420.861,342.424c-2.744-2.878-3.5-4.648-2.333-6.945,0,0-8.188,3.146-.107,8.742,2.9,2,2.413,4.04,2.413,4.121a4.013,4.013,0,0,0,.273-5.669C421.028,342.586,420.947,342.5,420.861,342.424Z" transform="translate(-378.251 -212.377)"/><path class="h" d="M432,221.859c-16.089,0-32.8,3.647-32.8,9.761V310.1a3.643,3.643,0,0,0,.706,2.109,5.858,5.858,0,0,0,.8.894c4.165,4.031,16.742,6.731,31.285,6.731s27.137-2.682,31.285-6.722a6.507,6.507,0,0,0,.813-.939,3.632,3.632,0,0,0,.7-2.109V231.629C464.8,225.506,448.125,221.859,432,221.859Z" transform="translate(-376.589 -200.317)"/><path class="i" d="M407.894,280.03v-8.241l1.636.375c.787,1.332,1.582,2.682,2.369,3.96l2.378-3,1.645.277v8.224l-1.484-.259v-6.087c-.849,1.073-1.689,2.127-2.539,3.182-.849-1.394-1.689-2.789-2.53-4.2v6.114Z" transform="translate(-377.512 -205.617)"/><path class="i" d="M419.2,282.187v-8.268q2.753.4,5.515.652v1.341c-1.341-.125-2.682-.277-4.022-.447v2.092c1.162.152,2.324.286,3.486.393v1.412q-1.743-.178-3.486-.4v2.092q2.011.268,4.022.456v1.332Q421.957,282.589,419.2,282.187Z" transform="translate(-378.712 -205.843)"/><path class="i" d="M427.284,283.084v-8.295c.554.045,1.108.089,1.663.116.8,1.207,1.6,2.4,2.4,3.575.8-1.117,1.609-2.253,2.4-3.388h1.672v8.268h-1.5v-6.114c-.894,1.2-1.716,2.4-2.574,3.575q-1.287-1.877-2.565-3.79v6.114Z" transform="translate(-379.57 -205.935)"/><path class="i" d="M438.434,279.271a6.323,6.323,0,0,1,.232-1.788,3.789,3.789,0,0,1,.617-1.233,3.246,3.246,0,0,1,.894-.769,4.18,4.18,0,0,1,1.037-.42,6.9,6.9,0,0,1,1.091-.143,6.093,6.093,0,0,1,1.091.045,3.462,3.462,0,0,1,1.037.322,2.936,2.936,0,0,1,.894.67,3.311,3.311,0,0,1,.617,1.18,6.1,6.1,0,0,1,.232,1.788,6.563,6.563,0,0,1-.232,1.788,3.966,3.966,0,0,1-.617,1.278,3.742,3.742,0,0,1-.894.8,3.693,3.693,0,0,1-1.037.447,5.824,5.824,0,0,1-1.091.152,6.179,6.179,0,0,1-1.091-.045,3.338,3.338,0,0,1-1.037-.358,2.915,2.915,0,0,1-.894-.715,3.508,3.508,0,0,1-.617-1.216A6.291,6.291,0,0,1,438.434,279.271Zm1.5-.045a5.6,5.6,0,0,0,.179,1.537,1.793,1.793,0,0,0,.554.894,1.952,1.952,0,0,0,.742.357,3.125,3.125,0,0,0,.894.063,4.226,4.226,0,0,0,.742-.089,2.031,2.031,0,0,0,.635-.268,1.593,1.593,0,0,0,.536-.527,3.525,3.525,0,0,0,.349-.894,5.642,5.642,0,0,0,.134-1.3,5.162,5.162,0,0,0-.188-1.52,1.6,1.6,0,0,0-.554-.894,1.9,1.9,0,0,0-.742-.34,4.046,4.046,0,0,0-.894-.054,5.056,5.056,0,0,0-.724.089,2.382,2.382,0,0,0-.644.259,1.548,1.548,0,0,0-.536.509,2.79,2.79,0,0,0-.34.894,5.362,5.362,0,0,0-.152,1.323Z" transform="translate(-380.753 -205.948)"/><path class="i" d="M449.124,282.755v-8.277c1.064-.1,2.118-.223,3.182-.358a3.13,3.13,0,0,1,2.261.375,2.1,2.1,0,0,1,.8,1.85,2.79,2.79,0,0,1-1.788,2.682q1.09,1.439,2.172,2.843c-.6.089-1.2.188-1.788.268-.661-.894-1.314-1.788-1.975-2.682l-1.341.152v2.923Zm1.493-4.469,1.645-.2a2.455,2.455,0,0,0,1.189-.429,1.288,1.288,0,0,0,.429-1.082c0-.51-.143-.831-.429-.974a2.125,2.125,0,0,0-1.189-.1l-1.645.2Z" transform="translate(-381.888 -205.857)"/><path class="i" d="M456.964,273.35l1.788-.3,2.208,2.941c.715-1.269,1.439-2.539,2.154-3.817l1.788-.411q-1.591,2.735-3.2,5.435v3.575l-1.475.3V277.5C459.118,276.13,458.037,274.744,456.964,273.35Z" transform="translate(-382.72 -205.614)"/><path class="c" d="M454.4,223.33a98.319,98.319,0,0,0-44.943,0c-7.151,1.931-10.887,4.684-10.887,7.937v78.945a4.467,4.467,0,0,0,.894,2.583,6.5,6.5,0,0,0,.894,1.055c4.273,4.121,16.983,6.9,31.607,6.9s27.343-2.771,31.616-6.909a6.481,6.481,0,0,0,.894-1.046,4.384,4.384,0,0,0,.894-2.583V231.267C465.3,228.014,461.537,225.252,454.4,223.33Zm7.6,87.732a4.242,4.242,0,0,1-.518.6c-3.647,3.522-16.089,6.078-29.551,6.078s-25.922-2.556-29.5-6.078a3.868,3.868,0,0,1-.518-.608,1.516,1.516,0,0,1-.3-.894V235.915a17.6,17.6,0,0,0,2.226,1.269h0c.411.188.831.375,1.278.563l.116.045c.429.179.894.349,1.35.518l.17.054,1.225.4.384.116c.393.125.8.241,1.225.349l.563.152c.393.107.8.206,1.225.3l.715.161,1.233.259.813.161.983.179,1.126.188.894.143,1.207.161c.349.054.7.089,1.055.134s.626.08.947.107l1.421.152.724.063,1.734.134h.626l1.895.1h.474c.688,0,1.385.054,2.092.072H434.5a20.1,20.1,0,0,0,2.083-.072h.483l1.895-.1h.626l1.725-.134.742-.072c.465,0,.894-.089,1.377-.134l.992-.116c.349-.045.7-.08,1.037-.134l1.233-.17.894-.134,1.144-.188.974-.179.822-.161,1.234-.259.706-.161,1.242-.3.536-.143,1.287-.366.313-.1c.438-.134.894-.277,1.278-.42l.134-.045c.483-.17.948-.349,1.385-.527h.08c.456-.2.894-.384,1.305-.581h0a16.741,16.741,0,0,0,2.244-1.269v74.3A1.569,1.569,0,0,1,462,311.062Zm-30.069-87.33c18.816,0,30.391,4.389,30.391,7.535a1.614,1.614,0,0,1-.313.894c-1.314,1.94-6.025,3.924-12.97,5.22h-.063l-.787.143-.822.134h0a96.069,96.069,0,0,1-12.818,1.126h-5.193a97.005,97.005,0,0,1-12.791-1.117h-.054l-.778-.134-.84-.152h0c-6.945-1.287-11.62-3.272-12.979-5.22a1.63,1.63,0,0,1-.313-.894C401.568,228.121,413.117,223.732,431.933,223.732Z" transform="translate(-376.523 -200.197)"/><path class="c" d="M539.1,347.329s-2.288,3.459,2.208,4.165c.438.063,3.7.4,4.541,1.466,0,0-.08-1.841-2.726-2.932S539.4,348.679,539.1,347.329Z" transform="translate(-391.377 -213.635)"/><path class="c" d="M541.313,338.979s-6.4,3.9-.366,7.785c1.162.751,5.363,2.86,5.247,4.791,0,0,2.547-3.781-1.18-6.15S540.214,340.382,541.313,338.979Z" transform="translate(-391.36 -212.749)"/><path class="c" d="M548.351,342.424c-2.744-2.878-3.5-4.648-2.333-6.945,0,0-8.188,3.146-.107,8.742,2.9,2,2.413,4.04,2.413,4.121a4.013,4.013,0,0,0,.273-5.669C548.518,342.586,548.437,342.5,548.351,342.424Z" transform="translate(-391.783 -212.377)"/><path class="h" d="M559.54,221.859c-16.089,0-32.8,3.647-32.8,9.761V310.1a3.644,3.644,0,0,0,.706,2.109,5.855,5.855,0,0,0,.8.894c4.165,4.031,16.742,6.731,31.285,6.731s27.137-2.682,31.285-6.722a6.5,6.5,0,0,0,.813-.939,3.7,3.7,0,0,0,.7-2.109V231.629C592.3,225.506,575.629,221.859,559.54,221.859Z" transform="translate(-390.127 -200.317)"/><path class="i" d="M535.434,280.03v-8.241l1.636.375c.787,1.332,1.573,2.682,2.369,3.96l2.378-3,1.645.277v8.224l-1.484-.259v-6.087l-2.539,3.182c-.849-1.394-1.689-2.789-2.53-4.2v6.114Z" transform="translate(-391.05 -205.617)"/><path class="i" d="M546.694,282.187v-8.268q2.753.4,5.515.652v1.341c-1.341-.125-2.682-.277-4.022-.447v2.092c1.162.152,2.324.286,3.486.393v1.412q-1.743-.178-3.486-.4v2.092q2.011.268,4.022.456v1.332Q549.447,282.589,546.694,282.187Z" transform="translate(-392.245 -205.843)"/><path class="i" d="M554.774,283.084v-8.295c.554.045,1.108.089,1.663.116.8,1.207,1.6,2.4,2.4,3.575.8-1.117,1.609-2.253,2.4-3.388h1.672v8.268h-1.5v-6.114c-.894,1.2-1.716,2.4-2.574,3.575q-1.287-1.877-2.574-3.79v6.114Z" transform="translate(-393.102 -205.935)"/><path class="i" d="M565.914,279.271a6.322,6.322,0,0,1,.232-1.788,3.79,3.79,0,0,1,.617-1.233,3.246,3.246,0,0,1,.894-.769,4.182,4.182,0,0,1,1.037-.42,6.7,6.7,0,0,1,1.091-.143,6.093,6.093,0,0,1,1.091.045,3.462,3.462,0,0,1,1.037.322,2.936,2.936,0,0,1,.894.67,3.31,3.31,0,0,1,.617,1.18,6.1,6.1,0,0,1,.232,1.788,6.559,6.559,0,0,1-.232,1.788,3.964,3.964,0,0,1-.617,1.278,3.74,3.74,0,0,1-.894.8,3.694,3.694,0,0,1-1.037.447,5.824,5.824,0,0,1-1.091.152,6.1,6.1,0,0,1-1.091-.045,3.338,3.338,0,0,1-1.037-.358,2.913,2.913,0,0,1-.894-.715,3.506,3.506,0,0,1-.617-1.216A6.289,6.289,0,0,1,565.914,279.271Zm1.5-.045a4.986,4.986,0,0,0,.179,1.537,1.792,1.792,0,0,0,.554.894,1.889,1.889,0,0,0,.742.357,3.125,3.125,0,0,0,.894.063,4.226,4.226,0,0,0,.742-.089,2.115,2.115,0,0,0,.635-.268,1.679,1.679,0,0,0,.536-.527,3.2,3.2,0,0,0,.34-.894,6.116,6.116,0,0,0,0-2.816,1.6,1.6,0,0,0-.554-.894,1.9,1.9,0,0,0-.742-.34,4.047,4.047,0,0,0-.894-.054,5.056,5.056,0,0,0-.724.089,2.383,2.383,0,0,0-.644.259,1.549,1.549,0,0,0-.536.509,2.789,2.789,0,0,0-.34.894,5.387,5.387,0,0,0-.188,1.323Z" transform="translate(-394.285 -205.948)"/><path class="i" d="M576.614,282.755v-8.277c1.064-.1,2.118-.223,3.182-.358a3.13,3.13,0,0,1,2.261.375,2.1,2.1,0,0,1,.8,1.85,2.79,2.79,0,0,1-1.788,2.682l2.163,2.843c-.59.089-1.189.188-1.788.268-.661-.894-1.323-1.788-1.975-2.682l-1.341.152v2.923Zm1.493-4.469,1.645-.2a2.455,2.455,0,0,0,1.189-.429,1.288,1.288,0,0,0,.429-1.082c0-.51-.143-.831-.429-.974a2.125,2.125,0,0,0-1.189-.1l-1.645.2Z" transform="translate(-395.421 -205.857)"/><path class="i" d="M584.434,273.35l1.788-.3,2.181,2.941c.715-1.269,1.439-2.539,2.154-3.817l1.788-.411q-1.591,2.735-3.2,5.435v3.575l-1.475.3V277.5Q586.074,275.446,584.434,273.35Z" transform="translate(-396.251 -205.614)"/><path class="c" d="M581.894,223.33a98.319,98.319,0,0,0-44.943,0c-7.151,1.931-10.887,4.684-10.887,7.937v78.945a4.47,4.47,0,0,0,.849,2.583,6.547,6.547,0,0,0,.894,1.055c4.273,4.121,16.983,6.9,31.607,6.9s27.343-2.771,31.616-6.909a6.485,6.485,0,0,0,.894-1.046,4.469,4.469,0,0,0,.849-2.583V231.267C592.79,228.014,589.027,225.252,581.894,223.33Zm7.6,87.75a4.24,4.24,0,0,1-.518.6c-3.656,3.522-16.089,6.078-29.551,6.078s-25.922-2.556-29.542-6.078a3.864,3.864,0,0,1-.518-.608,1.516,1.516,0,0,1-.3-.894V235.915a17.6,17.6,0,0,0,2.226,1.269h0c.411.188.831.375,1.278.563l.107.045c.438.179.894.349,1.359.518l.17.054,1.225.4.384.116c.393.125.8.241,1.225.349l.554.152,1.234.3.715.161,1.225.259.822.161.983.179,1.126.188.894.143,1.207.161c.349.054.7.089,1.055.134s.626.08.947.107l1.421.152.724.063,1.734.134h.626l1.895.1h.474c.688,0,1.385.054,2.092.072h5.184a20.182,20.182,0,0,0,2.083-.072h.483l1.895-.1h.626l1.725-.134.742-.072c.465,0,.894-.089,1.376-.134l.992-.116c.349-.045.7-.08,1.037-.134l1.225-.17.894-.134,1.144-.188.974-.179.822-.161,1.225-.259.715-.161,1.242-.3.536-.143,1.287-.366.313-.1c.438-.134.894-.277,1.278-.42l.134-.045c.483-.17.939-.349,1.386-.527h.071c.465-.2.894-.384,1.314-.581h0a16.744,16.744,0,0,0,2.244-1.269v74.3a1.569,1.569,0,0,1-.215.831Zm-30.025-87.348c18.816,0,30.391,4.389,30.391,7.535a1.615,1.615,0,0,1-.313.894c-1.314,1.94-6.025,3.924-12.97,5.22h-.125l-.787.143-.822.134h0a96.067,96.067,0,0,1-12.818,1.126h-5.238a97.017,97.017,0,0,1-12.791-1.117h-.054l-.778-.134-.84-.152h0c-6.945-1.287-11.62-3.272-12.979-5.22a1.63,1.63,0,0,1-.313-.894C529.076,228.121,540.607,223.732,559.467,223.732Z" transform="translate(-390.055 -200.197)"/><path class="c" d="M474.285,368.119s-2.279,3.468,2.208,4.165c.447.063,3.7.4,4.541,1.466,0,0-.071-1.841-2.682-2.932S474.58,369.469,474.285,368.119Z" transform="translate(-384.497 -215.842)"/><path class="c" d="M476.5,359.789s-6.4,3.906-.375,7.785c1.171.751,5.363,2.86,5.247,4.791,0,0,2.547-3.781-1.171-6.15S475.412,361.174,476.5,359.789Z" transform="translate(-384.48 -214.958)"/><path class="c" d="M483.531,363.214c-2.735-2.869-3.5-4.648-2.333-6.945,0,0-8.188,3.146-.1,8.742,2.9,2,2.4,4.04,2.413,4.121a4,4,0,0,0,.277-5.656Q483.667,363.339,483.531,363.214Z" transform="translate(-384.903 -214.584)"/><path class="h" d="M494.671,242.649c-16.089,0-32.787,3.647-32.787,9.761V330.89a3.632,3.632,0,0,0,.7,2.109,6.4,6.4,0,0,0,.8.894c4.174,4.031,16.751,6.731,31.285,6.731s27.137-2.682,31.285-6.722a6.447,6.447,0,0,0,.8-.939,3.633,3.633,0,0,0,.7-2.109v-78.48C527.475,246.3,510.8,242.649,494.671,242.649Z" transform="translate(-383.243 -202.524)"/><path class="i" d="M470.574,300.807v-8.268l1.636.375c.787,1.332,1.573,2.682,2.36,3.96q1.189-1.492,2.378-3l1.645.277v8.277l-1.475-.259v-6.114c-.849,1.073-1.7,2.127-2.547,3.182l-2.53-4.2v6.114Z" transform="translate(-384.165 -207.819)"/><path class="i" d="M481.884,302.977v-8.268q2.745.4,5.506.653V296.7c-1.341-.125-2.682-.277-4.022-.447v2.1c1.162.152,2.324.286,3.495.393v1.394c-1.171-.116-2.333-.25-3.495-.4v2.092q2.011.268,4.022.456v1.332Q484.628,303.379,481.884,302.977Z" transform="translate(-385.365 -208.05)"/><path class="i" d="M489.964,303.876V295.6l1.654.116q1.207,1.81,2.413,3.575l2.4-3.388H498.1v8.268h-1.457v-6.114l-2.565,3.575q-1.287-1.877-2.574-3.79v6.114Z" transform="translate(-386.223 -208.144)"/><path class="i" d="M501.094,300.071a6.019,6.019,0,0,1,.241-1.788,3.683,3.683,0,0,1,.608-1.234,3.165,3.165,0,0,1,.894-.769,4.019,4.019,0,0,1,1.037-.42,6.582,6.582,0,0,1,1.091-.143,6.178,6.178,0,0,1,1.09.045,3.406,3.406,0,0,1,1.028.322,2.745,2.745,0,0,1,.894.67,3.31,3.31,0,0,1,.617,1.18,5.786,5.786,0,0,1,.241,1.788,6.265,6.265,0,0,1-.241,1.788,3.64,3.64,0,0,1-.617,1.278,3.283,3.283,0,0,1-.894.8,3.63,3.63,0,0,1-1.028.447,5.984,5.984,0,0,1-1.09.152,5.418,5.418,0,0,1-1.091,0,3.255,3.255,0,0,1-1.037-.357,2.869,2.869,0,0,1-.894-.715,3.434,3.434,0,0,1-.608-1.216A5.966,5.966,0,0,1,501.094,300.071Zm1.5-.045a5.251,5.251,0,0,0,.188,1.537,1.728,1.728,0,0,0,.545.894,1.951,1.951,0,0,0,.742.358,3.193,3.193,0,0,0,.894.063,4.127,4.127,0,0,0,.733-.089,2.155,2.155,0,0,0,.644-.268,1.8,1.8,0,0,0,.536-.527,3.206,3.206,0,0,0,.34-.894,6.449,6.449,0,0,0,0-2.816,1.622,1.622,0,0,0-.554-.894,2.024,2.024,0,0,0-.742-.34,3.573,3.573,0,0,0-.894-.054,5.064,5.064,0,0,0-.724.089,2.153,2.153,0,0,0-.644.259,1.625,1.625,0,0,0-.536.51,2.78,2.78,0,0,0-.349.894A5.364,5.364,0,0,0,502.6,300.027Z" transform="translate(-387.404 -208.156)"/><path class="i" d="M511.794,303.585v-8.277c1.064-.1,2.127-.223,3.182-.358a3.12,3.12,0,0,1,2.261.375,2.1,2.1,0,0,1,.8,1.85,2.78,2.78,0,0,1-1.788,2.682l2.172,2.842-1.788.268-1.975-2.682-1.341.152v2.923Zm1.493-4.469,1.654-.2a2.578,2.578,0,0,0,1.189-.429,1.288,1.288,0,0,0,.429-1.082c0-.509-.143-.831-.429-.974a2.141,2.141,0,0,0-1.189-.1l-1.681.25Z" transform="translate(-388.54 -208.068)"/><path class="i" d="M519.634,294.14l1.788-.3,2.172,2.941,2.163-3.817,1.788-.411q-1.6,2.735-3.191,5.435v3.575l-1.484.3v-3.575Q521.243,296.24,519.634,294.14Z" transform="translate(-389.372 -207.82)"/><path class="c" d="M517.083,244.121a98.69,98.69,0,0,0-44.943,0c-7.151,1.94-10.9,4.684-10.9,7.937V331a4.47,4.47,0,0,0,.849,2.583,7.512,7.512,0,0,0,.894,1.055c4.282,4.13,16.983,6.9,31.607,6.9s27.343-2.771,31.625-6.91a6.566,6.566,0,0,0,.894-1.046,4.467,4.467,0,0,0,.894-2.583V252.059C527.979,248.8,524.207,246.061,517.083,244.121Zm7.589,87.75a4.234,4.234,0,0,1-.518.6c-3.647,3.522-16.089,6.078-29.551,6.078s-25.922-2.556-29.5-6.078a3.87,3.87,0,0,1-.518-.608,1.456,1.456,0,0,1-.3-.894V256.707a16.991,16.991,0,0,0,2.226,1.269h0c.4.188.831.375,1.278.563h.107c.429.179.894.349,1.35.518l.17.054,1.225.4.384.116c.4.125.813.241,1.225.349l.563.152,1.234.3.715.161,1.225.259.822.161.983.179,1.126.188.894.143,1.216.161,1.046.134c.322,0,.635.08.956.107l1.421.152.724.063,1.734.134.617.045,1.9.1h.465c.7,0,1.394.054,2.092.072h5.184a20.176,20.176,0,0,0,2.083-.072h.474l1.895-.1.626-.045c.581,0,1.162-.08,1.725-.134l.742-.072c.465,0,.894-.089,1.385-.134l.992-.116,1.037-.125,1.225-.179.894-.134,1.144-.188.974-.179.822-.161,1.224-.259.715-.161,1.242-.3.536-.143c.438-.116.894-.241,1.278-.366l.322-.1c.438-.134.894-.277,1.278-.42l.134-.045c.483-.17.939-.349,1.386-.527h.072c.456-.188.894-.384,1.3-.581h0a17.2,17.2,0,0,0,2.235-1.269v74.3A1.5,1.5,0,0,1,524.672,331.871ZM494.6,244.523c18.825,0,30.391,4.389,30.391,7.535a1.593,1.593,0,0,1-.3.894c-1.323,1.94-6.025,3.924-12.97,5.22h-.063l-.787.143-.822.134h0a95.807,95.807,0,0,1-12.88,1.117h-5.193a96.89,96.89,0,0,1-12.782-1.117h-.054l-.778-.134-.84-.152h0c-6.945-1.287-11.62-3.272-12.97-5.22a1.561,1.561,0,0,1-.313-.894C464.247,248.912,475.8,244.523,494.6,244.523Z" transform="translate(-383.175 -202.405)"/></g></g></svg>