<svg xmlns="http://www.w3.org/2000/svg" viewBox="0 0 698.56 529.51"><defs><style>.cls-1{fill:#efeeed;}.cls-2{fill:#fff;}.cls-3{fill:#e5282a;}.cls-4{fill:#1d1d1b;}.cls-5{isolation:isolate;}.cls-6{fill:#575656;}.cls-7{fill:#777;}.cls-8{fill:#e52529;}.cls-9{fill:#010101;}</style></defs><g id="Capa_2" data-name="Capa 2"><g id="Capa_1-2" data-name="Capa 1"><rect class="cls-1" x="400.17" y="150.77" width="298.39" height="227.98" rx="7.38"/><path class="cls-2" d="M615.54,187.88c-19.89,0-40.48,4.51-40.48,12.06v95.52a4.53,4.53,0,0,0,.87,2.6,8.12,8.12,0,0,0,1,1.14c5.15,5,20.68,8.32,38.63,8.32s33.5-3.34,38.63-8.31a8.27,8.27,0,0,0,1-1.15,4.52,4.52,0,0,0,.86-2.6V199.94C656,192.44,635.44,187.88,615.54,187.88Z"/><path class="cls-3" d="M643.28,190.05c-7.51-2-17.62-3.21-27.74-3.21s-20.22,1.17-27.74,3.21c-8.76,2.39-13.44,5.78-13.44,9.8v32a5.53,5.53,0,0,0,1,3.19,9.18,9.18,0,0,0,1.11,1.3c5.28,5.09,21,8.52,39,8.52s33.75-3.43,39-8.52a8,8,0,0,0,1.11-1.3,5.47,5.47,0,0,0,1.06-3.19v-32C656.73,195.83,652.09,192.44,643.28,190.05Zm9.37,42.87a5.48,5.48,0,0,1-.63.74c-4.51,4.35-19.84,7.5-36.48,7.5s-31.95-3.16-36.45-7.5a5.07,5.07,0,0,1-.65-.74,2,2,0,0,1-.38-1.07v-26.3a21.42,21.42,0,0,0,2.75,1.57h.05c.49.24,1,.47,1.58.7l.13.05c.53.23,1.08.43,1.67.63l.2.08,1.52.5.47.15,1.51.42.7.19,1.51.37.89.2,1.52.33,1,.19,1.22.22,1.39.23,1.14.17,1.49.21,1.31.16,1.17.14c.58.07,1.17.13,1.76.18l.89.08,2.14.17.76,0,2.35.12h.58l2.58.08h6.4l2.58-.08h.59l2.34-.12.77,0,2.13-.17.92-.08c.56-.05,1.14-.11,1.7-.18l1.22-.14,1.28-.15,1.51-.22,1.13-.17c.47-.07,1-.15,1.41-.24l1.21-.21,1-.19,1.52-.33.88-.2,1.53-.37.67-.18,1.58-.45.39-.12c.54-.17,1.07-.34,1.57-.52l.17-.06c.59-.21,1.16-.42,1.7-.65h.1c.57-.23,1.1-.47,1.61-.71h0a20.51,20.51,0,0,0,2.77-1.57v26.3A1.92,1.92,0,0,1,652.65,232.92Zm-37.11-42.38c23.23,0,37.49,5.43,37.49,9.31a1.94,1.94,0,0,1-.38,1.08c-1.62,2.39-7.43,4.87-16,6.44h-.07l-1,.18-1,.17h0a119.64,119.64,0,0,1-15.82,1.39H612.4a122.65,122.65,0,0,1-15.78-1.38h-.07l-1-.16-1-.19h0c-8.58-1.59-14.39-4-16-6.44a2,2,0,0,1-.39-1.08C578.06,196,592.32,190.54,615.54,190.54Z"/><path class="cls-3" d="M655,230a1.71,1.71,0,0,0-1.71,1.72h0a2.18,2.18,0,0,1-.4,1.15c-1.47,2.18-6.17,4.31-12.88,5.84a122.1,122.1,0,0,1-48.92,0c-6.71-1.54-11.4-3.67-12.87-5.84a2.12,2.12,0,0,1-.41-1.16,1.71,1.71,0,0,0-3.42-.26,1.13,1.13,0,0,0,0,.26v64a5.43,5.43,0,0,0,1,3.11,9.48,9.48,0,0,0,1.09,1.27c2.64,2.55,7.8,4.69,14.87,6.22a128.47,128.47,0,0,0,48.35,0c7.09-1.52,12.23-3.67,14.86-6.21a9,9,0,0,0,1.11-1.28,5.41,5.41,0,0,0,1-3.11v-64A1.72,1.72,0,0,0,655,230Zm-1.71,65.71a2.12,2.12,0,0,1-.4,1.14,4.94,4.94,0,0,1-.67.77h0c-2.18,2.1-7,4-13.54,5.4a124.87,124.87,0,0,1-46.25,0c-6.55-1.38-11.36-3.3-13.55-5.41h0a5.08,5.08,0,0,1-.64-.75,2,2,0,0,1-.47-1.15V237.25c2.81,2,7.3,3.76,13.15,5.06a128.3,128.3,0,0,0,49.17,0c5.84-1.3,10.35-3,13.16-5.06Z"/><path class="cls-4" d="M588.14,228.48v-8.92l1.75.41,2.56,4.28L595,221l1.78.31v8.92l-1.6-.27v-6.6l-2.74,3.42q-1.37-2.24-2.74-4.52v6.59Z"/><path class="cls-4" d="M599,230.54v-8.87c1.94.29,3.93.52,5.94.71v1.44c-1.45-.14-2.92-.3-4.34-.49v2.23c1.25.17,2.51.3,3.76.43v1.52c-1.25-.13-2.51-.27-3.76-.43v2.26c1.45.19,2.93.34,4.34.48v1.44Q602,231,599,230.54Z"/><path class="cls-4" d="M606.82,231.41v-8.92l1.79.13,2.59,3.9,2.6-3.66h1.8v8.93H614v-6.6l-2.78,3.9L608.44,225v6.59A8.12,8.12,0,0,0,606.82,231.41Z"/><path class="cls-4" d="M617.55,227.29a6.43,6.43,0,0,1,.27-1.95,3.92,3.92,0,0,1,.65-1.33,3.47,3.47,0,0,1,1-.82,3.76,3.76,0,0,1,1.12-.45,6.59,6.59,0,0,1,1.17-.16,7.75,7.75,0,0,1,1.18,0,3.87,3.87,0,0,1,1.11.34,3.1,3.1,0,0,1,1,.74,3.36,3.36,0,0,1,.66,1.27,5.82,5.82,0,0,1,.26,1.9,6.79,6.79,0,0,1-.26,1.95,4.14,4.14,0,0,1-.66,1.37,3.88,3.88,0,0,1-1,.87,4.06,4.06,0,0,1-1.11.48,6.09,6.09,0,0,1-2.35.11,3.71,3.71,0,0,1-1.12-.38,3.15,3.15,0,0,1-1-.77,3.83,3.83,0,0,1-.65-1.31A6.54,6.54,0,0,1,617.55,227.29Zm1.62,0a5.75,5.75,0,0,0,.21,1.65,1.85,1.85,0,0,0,.59,1,2.13,2.13,0,0,0,.8.39,3.17,3.17,0,0,0,1,.06,4.26,4.26,0,0,0,.8-.09,2.08,2.08,0,0,0,.68-.3,1.67,1.67,0,0,0,.59-.56,3.36,3.36,0,0,0,.37-1,6.69,6.69,0,0,0,.15-1.41,5.5,5.5,0,0,0-.21-1.62,1.72,1.72,0,0,0-.59-1,2.15,2.15,0,0,0-.8-.36,4,4,0,0,0-1-.06,6.93,6.93,0,0,0-.78.1,2.18,2.18,0,0,0-.69.28,1.69,1.69,0,0,0-.58.55,3,3,0,0,0-.36.91,5.45,5.45,0,0,0-.17,1.39Z"/><path class="cls-4" d="M627.87,231.17v-8.92c1.15-.12,2.29-.24,3.44-.39a3.47,3.47,0,0,1,2.44.4,2.3,2.3,0,0,1,.86,2,3,3,0,0,1-2,2.92l2.34,3.06-2,.29-2.12-2.86-1.44.17V231Zm1.62-4.79,1.77-.21a2.68,2.68,0,0,0,1.28-.46,1.39,1.39,0,0,0,.46-1.17c0-.55-.15-.9-.46-1a2.33,2.33,0,0,0-1.28-.12l-1.77.21Z"/><path class="cls-4" d="M635.43,221.26l2-.33,2.35,3.17,2.32-4.12,2-.45-3.45,5.85v3.83l-1.59.32v-3.82C637.75,224.25,636.59,222.77,635.43,221.26Z"/><path class="cls-4" d="M601.72,275.42v-8.94c1,.24,2,.45,3,.65a5.06,5.06,0,0,1,3.14,1.64,5.11,5.11,0,0,1,1.07,3.45,4.19,4.19,0,0,1-1.06,3.19,3.5,3.5,0,0,1-3.15.63C603.75,275.88,602.73,275.66,601.72,275.42Zm1.58-1.09,1.46.29a2.15,2.15,0,0,0,2-.37,3.12,3.12,0,0,0,.61-2.21,3.94,3.94,0,0,0-.61-2.41,3,3,0,0,0-2-1l-1.46-.29Z"/><path class="cls-4" d="M611,276.89V268c.53,0,1.07.09,1.61.11V277Z"/><path class="cls-4" d="M614.5,270.66a2.22,2.22,0,0,1,.91-2,4.16,4.16,0,0,1,2.29-.69,5.72,5.72,0,0,1,2.41.5v1.58a4,4,0,0,0-2.22-.57,3,3,0,0,0-1.26.29.86.86,0,0,0-.52.81.78.78,0,0,0,.47.69,4.54,4.54,0,0,0,1.14.4,10.25,10.25,0,0,1,1.34.38,2.31,2.31,0,0,1,1.14.82,2.58,2.58,0,0,1,.47,1.63,2.29,2.29,0,0,1-.89,1.82,3.49,3.49,0,0,1-2.21.78,5.17,5.17,0,0,1-2.92-.73V274.8a4,4,0,0,0,2.59.85c1.24,0,1.85-.42,1.85-1.1a1,1,0,0,0-.33-.75,2,2,0,0,0-.84-.42c-.35-.08-.72-.19-1.11-.32a9.27,9.27,0,0,1-1.1-.43,1.89,1.89,0,0,1-.84-.74A2.07,2.07,0,0,1,614.5,270.66Z"/><path class="cls-4" d="M622.5,276.72V267.8l1.61-.2v3.75q1.68-2.13,3.35-4.34c.72-.13,1.43-.29,2.14-.46q-1.77,2.37-3.57,4.64,2,2.16,3.9,4.2l-1.95.44c-1-1.09-2-2.2-3-3.33l-.89,1.11v2.92Z"/><path class="cls-3" d="M590.1,325.4s-2.66,4,2.56,4.87c.51.07,4.29.46,5.27,1.7,0,0-.09-2.14-3.16-3.39S590.43,327,590.1,325.4Z"/><path class="cls-3" d="M592.68,316.74s-7.42,4.53-.42,9c1.34.87,6.22,3.31,6.08,5.56,0,0,2.93-4.38-1.36-7.13S591.41,318.37,592.68,316.74Z"/><path class="cls-3" d="M600.35,321.17c-3.17-3.34-4.06-5.39-2.71-8.06,0,0-9.49,3.65-.11,10.14,3.36,2.33,2.79,4.69,2.79,4.78a4.64,4.64,0,0,0,.32-6.56Z"/><g class="cls-5"><g class="cls-5"><path class="cls-4" d="M608.59,327.4V319h1l5.26,7.42-.22.35V319h.91v8.43h-1l-5.46-7.7.42-.39v8.09Z"/></g><g class="cls-5"><path class="cls-4" d="M621.34,327.53a4.17,4.17,0,0,1-2.09-.49,3,3,0,0,1-1.26-1.45,5.82,5.82,0,0,1-.43-2.4,4.77,4.77,0,0,1,1-3.24,3.54,3.54,0,0,1,2.82-1.1,4.09,4.09,0,0,1,2.11.49,3,3,0,0,1,1.26,1.45,5.82,5.82,0,0,1,.43,2.4,4.79,4.79,0,0,1-1,3.24A3.55,3.55,0,0,1,621.34,327.53Zm0-.86a3.32,3.32,0,0,0,1.64-.37,2.12,2.12,0,0,0,.92-1.14,6.62,6.62,0,0,0,0-3.94,2.15,2.15,0,0,0-.92-1.14,3.32,3.32,0,0,0-1.64-.37,3.22,3.22,0,0,0-1.61.37,2.12,2.12,0,0,0-.93,1.14,6.62,6.62,0,0,0,0,3.94,2.09,2.09,0,0,0,.93,1.14A3.22,3.22,0,0,0,621.34,326.67Z"/></g><g class="cls-5"><path class="cls-4" d="M627.17,327.4V319h2.65a3.89,3.89,0,0,1,3,1,5.54,5.54,0,0,1,0,6.32,3.85,3.85,0,0,1-3,1.06Zm.91-.86h1.67a3,3,0,0,0,2.35-.81,4.78,4.78,0,0,0,0-5.11,3,3,0,0,0-2.35-.81h-1.67Z"/></g><g class="cls-5"><path class="cls-4" d="M635.59,327.4V319h5.32v.85H636.5v2.91h3.88v.89H636.5v2.92h4.41v.86Z"/></g></g><path class="cls-2" d="M475.7,187.88c-19.89,0-40.48,4.51-40.48,12.06v95.52a4.61,4.61,0,0,0,.87,2.6,7.57,7.57,0,0,0,1,1.14c5.15,5,20.67,8.32,38.62,8.32s33.5-3.34,38.63-8.31a7.64,7.64,0,0,0,1-1.15,4.67,4.67,0,0,0,.86-2.6V199.94C516.2,192.44,495.61,187.88,475.7,187.88Z"/><path class="cls-3" d="M503.44,190.05c-7.51-2-17.62-3.21-27.74-3.21S455.48,188,448,190.05c-8.77,2.39-13.45,5.78-13.45,9.8v32a5.61,5.61,0,0,0,1.05,3.19,9.25,9.25,0,0,0,1.12,1.3c5.28,5.09,21,8.52,39,8.52s33.75-3.43,39-8.52a8.64,8.64,0,0,0,1.12-1.3,5.53,5.53,0,0,0,1-3.19v-32C516.9,195.83,512.25,192.44,503.44,190.05Zm9.38,42.87a5.56,5.56,0,0,1-.64.74c-4.51,4.35-19.84,7.5-36.48,7.5s-31.95-3.16-36.45-7.5a5.65,5.65,0,0,1-.65-.74,2,2,0,0,1-.38-1.07v-26.3a21.42,21.42,0,0,0,2.75,1.57h0c.49.24,1,.47,1.58.7l.13.05c.54.23,1.09.43,1.67.63l.21.08,1.51.5.47.15,1.52.42.69.19,1.52.37.88.2,1.52.33,1,.19,1.21.22,1.39.23,1.14.17c.5.08,1,.15,1.5.21l1.3.16,1.17.14c.58.07,1.17.13,1.76.18l.89.08,2.14.17.77,0,2.34.12h.58l2.59.08h6.4l2.57-.08H482l2.34-.12.77,0,2.13-.17.92-.08c.57-.05,1.14-.11,1.7-.18l1.23-.14,1.28-.15,1.51-.22,1.13-.17c.47-.07,1-.15,1.41-.24l1.2-.21,1-.19,1.52-.33.88-.2,1.53-.37.67-.18,1.58-.45.39-.12c.54-.17,1.07-.34,1.58-.52l.16-.06c.6-.21,1.16-.42,1.72-.65h.08c.57-.23,1.1-.47,1.62-.71h0a19.92,19.92,0,0,0,2.77-1.57v26.3a1.91,1.91,0,0,1-.3,1ZM475.7,190.54c23.23,0,37.49,5.43,37.49,9.31a1.86,1.86,0,0,1-.38,1.08c-1.62,2.39-7.43,4.87-16,6.44h-.07l-1,.18-1,.17h0a119.64,119.64,0,0,1-15.82,1.39H472.6a122.8,122.8,0,0,1-15.79-1.38h-.07l-1-.16-1-.19h0c-8.58-1.59-14.38-4-16-6.44a2,2,0,0,1-.39-1.08c-.11-3.89,14.16-9.32,37.37-9.32Z"/><path class="cls-3" d="M515.16,230a1.72,1.72,0,0,0-1.71,1.72h0a2.18,2.18,0,0,1-.4,1.15c-1.47,2.18-6.17,4.31-12.88,5.84a122.1,122.1,0,0,1-48.92,0c-6.71-1.54-11.4-3.67-12.87-5.84a2.12,2.12,0,0,1-.41-1.16,1.71,1.71,0,1,0-3.42-.26V295.7a5.41,5.41,0,0,0,1,3.11,8.22,8.22,0,0,0,1.09,1.27c2.64,2.55,7.79,4.69,14.86,6.22a128.53,128.53,0,0,0,48.36,0c7.09-1.52,12.22-3.67,14.85-6.21a9.09,9.09,0,0,0,1.12-1.28,5.5,5.5,0,0,0,1-3.11v-64A1.72,1.72,0,0,0,515.16,230Zm-1.68,65.71a2.12,2.12,0,0,1-.4,1.14,4.88,4.88,0,0,1-.66.77h0c-2.19,2.1-7,4-13.55,5.4a124.87,124.87,0,0,1-46.25,0c-6.54-1.38-11.36-3.3-13.55-5.41h0a5.14,5.14,0,0,1-.65-.75,2,2,0,0,1-.41-1.15V237.25c2.81,2,7.3,3.76,13.15,5.06a128.3,128.3,0,0,0,49.17,0c5.84-1.3,10.35-3,13.16-5.06Z"/><path class="cls-4" d="M448.3,228.48v-8.92c.58.15,1.17.28,1.76.41l2.55,4.28,2.56-3.25,1.78.31v8.92l-1.6-.27v-6.6l-2.74,3.42q-1.37-2.24-2.73-4.52v6.59Z"/><path class="cls-4" d="M459.2,230.54v-8.87c1.95.29,3.93.52,5.94.71v1.44c-1.44-.14-2.92-.3-4.33-.49v2.23c1.24.17,2.5.3,3.76.43v1.52c-1.26-.13-2.52-.27-3.76-.43v2.26c1.44.19,2.92.34,4.33.48v1.44Q462.16,231,459.2,230.54Z"/><path class="cls-4" d="M467,231.41v-8.92l1.79.13,2.6,3.9,2.6-3.66h1.79v8.93h-1.62v-6.6l-2.77,3.9L468.6,225v6.59Z"/><path class="cls-4" d="M477.73,227.29a6.41,6.41,0,0,1,.25-1.95,3.77,3.77,0,0,1,.66-1.33,3.38,3.38,0,0,1,1-.82,3.66,3.66,0,0,1,1.12-.45,6.46,6.46,0,0,1,1.17-.16,7.62,7.62,0,0,1,1.17,0,4.28,4.28,0,0,1,1.12.34,3,3,0,0,1,1,.74,3.38,3.38,0,0,1,.67,1.27,6.45,6.45,0,0,1,.25,1.9,6.78,6.78,0,0,1-.25,1.95,4.37,4.37,0,0,1-.67,1.37,3.72,3.72,0,0,1-1,.87,4.3,4.3,0,0,1-1.12.48,5.8,5.8,0,0,1-1.17.17,5.67,5.67,0,0,1-1.17-.06,3.38,3.38,0,0,1-1.12-.38,3.07,3.07,0,0,1-1-.77,3.6,3.6,0,0,1-.66-1.31A6.18,6.18,0,0,1,477.73,227.29Zm1.6,0a5.75,5.75,0,0,0,.21,1.65,1.85,1.85,0,0,0,.59,1,2.38,2.38,0,0,0,.8.39,3.22,3.22,0,0,0,1,.06,4.25,4.25,0,0,0,.79-.09,2.28,2.28,0,0,0,.7-.3,1.61,1.61,0,0,0,.57-.56,3.36,3.36,0,0,0,.37-1,6.69,6.69,0,0,0,.15-1.41,5.9,5.9,0,0,0-.2-1.62,1.79,1.79,0,0,0-.6-1,2,2,0,0,0-.8-.36,4,4,0,0,0-1-.06,6.48,6.48,0,0,0-.77.1,2.23,2.23,0,0,0-.7.28,1.79,1.79,0,0,0-.58.55,3,3,0,0,0-.36.91,5.9,5.9,0,0,0-.12,1.39Z"/><path class="cls-4" d="M488,231.17v-8.92c1.15-.12,2.29-.24,3.44-.39a3.47,3.47,0,0,1,2.44.4,2.3,2.3,0,0,1,.86,2,3,3,0,0,1-1.94,2.92l2.33,3.06-2,.29-2.14-2.85-1.44.17V231Zm1.62-4.79,1.77-.21a2.71,2.71,0,0,0,1.29-.46,1.44,1.44,0,0,0,.46-1.17c0-.55-.16-.9-.46-1a2.37,2.37,0,0,0-1.29-.12l-1.77.21Z"/><path class="cls-4" d="M495.59,221.26l2-.33,2.3,3.17,2.33-4.12,1.95-.45-3.45,5.85v3.83l-1.59.32v-3.82C497.89,224.25,496.76,222.77,495.59,221.26Z"/><path class="cls-4" d="M461.85,275.42v-8.94c1,.24,2,.45,3,.65a5,5,0,0,1,3.13,1.64,5.12,5.12,0,0,1,1.08,3.45,4.16,4.16,0,0,1-1.07,3.19,3.45,3.45,0,0,1-3.14.63C463.91,275.88,462.89,275.66,461.85,275.42Zm1.59-1.09,1.45.29a2.17,2.17,0,0,0,1.95-.37,3.17,3.17,0,0,0,.61-2.21,3.94,3.94,0,0,0-.61-2.41,3.11,3.11,0,0,0-1.95-1l-1.45-.29Z"/><path class="cls-4" d="M471.12,276.89V268c.54,0,1.08.09,1.61.11V277Z"/><path class="cls-4" d="M474.66,270.66a2.22,2.22,0,0,1,.91-2,4.16,4.16,0,0,1,2.29-.69,5.72,5.72,0,0,1,2.41.5v1.58a4,4,0,0,0-2.22-.57,3,3,0,0,0-1.26.29.88.88,0,0,0-.52.81.78.78,0,0,0,.47.69,5.15,5.15,0,0,0,1.14.4,10.39,10.39,0,0,1,1.35.38,2.4,2.4,0,0,1,1.14.82,2.63,2.63,0,0,1,.46,1.63,2.26,2.26,0,0,1-.89,1.82,3.45,3.45,0,0,1-2.19.78,5.19,5.19,0,0,1-3-.73V274.8a4,4,0,0,0,2.6.85c1.23,0,1.85-.42,1.85-1.1a1,1,0,0,0-.33-.75,2.12,2.12,0,0,0-.85-.42c-.34-.08-.71-.19-1.1-.32a8,8,0,0,1-1.09-.43,1.8,1.8,0,0,1-.85-.74A2.09,2.09,0,0,1,474.66,270.66Z"/><path class="cls-4" d="M482.66,276.72V267.8l1.61-.2v3.75q1.68-2.13,3.35-4.34c.72-.13,1.44-.29,2.14-.46q-1.77,2.37-3.57,4.64,1.95,2.16,3.9,4.2c-.65.16-1.32.3-1.95.44q-1.49-1.63-3-3.33l-.89,1.11v2.92Z"/><path class="cls-3" d="M450.26,325.4s-2.65,4,2.57,4.87c.5.07,4.28.46,5.26,1.7,0,0-.09-2.14-3.16-3.39S450.61,327,450.26,325.4Z"/><path class="cls-3" d="M452.85,316.74s-7.43,4.53-.43,9c1.35.87,6.22,3.31,6.09,5.56,0,0,2.92-4.38-1.37-7.13S451.58,318.37,452.85,316.74Z"/><path class="cls-3" d="M460.51,321.17c-3.17-3.34-4.06-5.39-2.7-8.06,0,0-9.5,3.65-.12,10.14,3.36,2.33,2.79,4.69,2.79,4.78a4.64,4.64,0,0,0,.34-6.55C460.72,321.38,460.62,321.27,460.51,321.17Z"/><g class="cls-5"><g class="cls-5"><path class="cls-4" d="M468.75,327.4V319h1l5.26,7.42-.22.35V319h.91v8.43h-1l-5.46-7.7.42-.39v8.09Z"/></g><g class="cls-5"><path class="cls-4" d="M481.51,327.53a4.18,4.18,0,0,1-2.1-.49,3,3,0,0,1-1.26-1.45,6,6,0,0,1-.43-2.4,4.77,4.77,0,0,1,1-3.24,3.56,3.56,0,0,1,2.83-1.1,4.08,4.08,0,0,1,2.1.49,3.07,3.07,0,0,1,1.27,1.45,6,6,0,0,1,.42,2.4,4.79,4.79,0,0,1-1,3.24A3.55,3.55,0,0,1,481.51,327.53Zm0-.86a3.3,3.3,0,0,0,1.63-.37,2.18,2.18,0,0,0,.93-1.14,6.84,6.84,0,0,0,0-3.94,2.22,2.22,0,0,0-.93-1.14,3.3,3.3,0,0,0-1.63-.37,3.24,3.24,0,0,0-1.62.37,2.22,2.22,0,0,0-.93,1.14,6.62,6.62,0,0,0,0,3.94,2.18,2.18,0,0,0,.93,1.14A3.24,3.24,0,0,0,481.51,326.67Z"/></g><g class="cls-5"><path class="cls-4" d="M487.33,327.4V319H490a3.89,3.89,0,0,1,3,1,5.54,5.54,0,0,1,0,6.32,3.85,3.85,0,0,1-3,1.06Zm.91-.86h1.67a3.05,3.05,0,0,0,2.36-.81,4.84,4.84,0,0,0,0-5.11,3.05,3.05,0,0,0-2.36-.81h-1.67Z"/></g><g class="cls-5"><path class="cls-4" d="M495.75,327.4V319h5.32v.85h-4.41v2.91h3.88v.89h-3.88v2.92h4.41v.86Z"/></g></g><path class="cls-2" d="M545.62,210.09c-19.9,0-40.47,4.51-40.47,12.06v95.47a4.46,4.46,0,0,0,.87,2.6,7,7,0,0,0,1,1.14c5.14,5,20.66,8.32,38.62,8.32s33.5-3.34,38.64-8.31a7.58,7.58,0,0,0,1-1.15,4.53,4.53,0,0,0,.87-2.6V222.15C586.12,214.6,565.53,210.09,545.62,210.09Z"/><path class="cls-3" d="M573.37,212.26c-7.52-2-17.63-3.21-27.75-3.21s-20.22,1.17-27.73,3.21c-8.77,2.39-13.44,5.77-13.44,9.8v32a5.52,5.52,0,0,0,1,3.18,8.64,8.64,0,0,0,1.12,1.3c5.28,5.09,20.95,8.52,39,8.52s33.76-3.43,39-8.52a9.78,9.78,0,0,0,1.11-1.3,5.53,5.53,0,0,0,1.05-3.18v-32C586.82,218,582.16,214.65,573.37,212.26Zm9.37,42.87a6.41,6.41,0,0,1-.64.74c-4.5,4.35-19.85,7.5-36.48,7.5s-32-3.16-36.46-7.5a5.08,5.08,0,0,1-.64-.75,1.83,1.83,0,0,1-.37-1.05V227.76a19.14,19.14,0,0,0,2.75,1.57h0l1.57.7.14.05c.54.23,1.09.43,1.67.64l.21.07,1.51.5.48.15c.48.14,1,.29,1.51.42l.69.19,1.52.37.89.2,1.51.33,1,.19,1.21.22,1.4.23,1.14.17c.49.07,1,.15,1.49.21l1.3.16,1.17.14c.58.06,1.16.13,1.76.18l.89.08,2.14.17.77.05,2.34.12h.58c.86,0,1.71.07,2.58.09h6.41l2.57-.08h.59l2.34-.12.77,0,2.13-.17.91-.08a14,14,0,0,0,1.71-.18l1.23-.14,1.27-.16c.52-.06,1-.14,1.52-.21l1.12-.17c.48-.07,1-.15,1.41-.24l1.2-.21,1-.19,1.51-.33.88-.2,1.53-.37.66-.19c.55-.14,1.08-.29,1.59-.44l.39-.12c.53-.17,1.06-.34,1.58-.53h.16c.6-.21,1.16-.43,1.71-.65h.09c.56-.23,1.11-.47,1.61-.71h0a20.37,20.37,0,0,0,2.77-1.57v26.3A1.87,1.87,0,0,1,582.74,255.13Zm-37.12-42.38c23.23,0,37.5,5.43,37.5,9.31a2,2,0,0,1-.39,1.08c-1.63,2.39-7.43,4.87-16,6.44h-.07l-1,.17-1,.17h0a119.79,119.79,0,0,1-15.81,1.39H542.5a122.49,122.49,0,0,1-15.78-1.38h-.07l-1-.16-1-.18h0c-8.58-1.6-14.39-4.05-16-6.45a1.94,1.94,0,0,1-.38-1.08C508.15,218.18,522.4,212.75,545.62,212.75Z"/><path class="cls-3" d="M585.09,252.2a1.72,1.72,0,0,0-1.72,1.72h0a2.1,2.1,0,0,1-.4,1.15c-1.48,2.18-6.17,4.31-12.88,5.84a122.15,122.15,0,0,1-48.93,0c-6.7-1.54-11.39-3.67-12.87-5.84a2.09,2.09,0,0,1-.39-1.15,1.72,1.72,0,0,0-3.43,0v63.94a5.34,5.34,0,0,0,1,3.11,8.29,8.29,0,0,0,1.09,1.28c2.63,2.54,7.79,4.68,14.87,6.21a128,128,0,0,0,48.34,0c7.09-1.52,12.23-3.67,14.87-6.21a8,8,0,0,0,1.1-1.29,5.3,5.3,0,0,0,1-3.1V253.92A1.72,1.72,0,0,0,585.09,252.2Zm-1.72,65.66A2,2,0,0,1,583,319a4.94,4.94,0,0,1-.67.77h0c-2.18,2.11-7,4-13.55,5.4a124.44,124.44,0,0,1-46.25,0c-6.55-1.38-11.36-3.28-13.54-5.4h0a4.8,4.8,0,0,1-.66-.76,2.12,2.12,0,0,1-.4-1.14V259.42c2.81,2,7.29,3.76,13.16,5.06a128.2,128.2,0,0,0,49.15,0c5.85-1.3,10.37-3,13.17-5.06Z"/><path class="cls-4" d="M518.21,250.67v-8.93c.59.15,1.18.28,1.76.41l2.56,4.28,2.56-3.25,1.77.31v8.92l-1.6-.27v-6.6q-1.37,1.72-2.73,3.42c-.91-1.5-1.82-3-2.73-4.52V251Z"/><path class="cls-4" d="M529.11,252.75v-8.92q2.92.43,5.95.71V246c-1.45-.14-2.92-.3-4.34-.49v2.26c1.26.17,2.51.3,3.77.43v1.51c-1.26-.12-2.51-.26-3.77-.43v2.26c1.45.2,2.92.35,4.34.49v1.44C533.08,253.28,531.09,253,529.11,252.75Z"/><path class="cls-4" d="M536.91,253.61v-8.92c.59,0,1.18.09,1.79.12.85,1.3,1.72,2.6,2.59,3.9l2.6-3.66h1.79V254h-1.61v-6.6c-.93,1.3-1.86,2.59-2.78,3.9l-2.78-4.09v6.59C538,253.69,537.44,253.66,536.91,253.61Z"/><path class="cls-4" d="M547.64,249.5a6.74,6.74,0,0,1,.25-1.95,4,4,0,0,1,.67-1.33,3.21,3.21,0,0,1,1-.82,3.9,3.9,0,0,1,1.12-.46,7.77,7.77,0,0,1,1.18-.15,7.62,7.62,0,0,1,1.17,0,4,4,0,0,1,1.12.34,3.18,3.18,0,0,1,1,.73,3.5,3.5,0,0,1,.67,1.28A6.45,6.45,0,0,1,556,249a6.78,6.78,0,0,1-.25,2,4.12,4.12,0,0,1-.67,1.38,4,4,0,0,1-2.1,1.34,5.82,5.82,0,0,1-2.35.12,3.71,3.71,0,0,1-1.12-.38,3.15,3.15,0,0,1-1-.77,3.88,3.88,0,0,1-.67-1.31A7,7,0,0,1,547.64,249.5Zm1.62-.05a5.37,5.37,0,0,0,.2,1.65,1.81,1.81,0,0,0,.59,1,2,2,0,0,0,.81.39,3.47,3.47,0,0,0,1,.07,7.11,7.11,0,0,0,.79-.1,2.47,2.47,0,0,0,.69-.29,1.82,1.82,0,0,0,.57-.57,3.11,3.11,0,0,0,.38-1,5.54,5.54,0,0,0,.15-1.41,5.61,5.61,0,0,0-.2-1.63,1.83,1.83,0,0,0-.6-1,2.32,2.32,0,0,0-.8-.36,3.52,3.52,0,0,0-1,0,5.16,5.16,0,0,0-.79.09,2.44,2.44,0,0,0-.69.28,1.69,1.69,0,0,0-.58.55,3.23,3.23,0,0,0-.37.92A5.75,5.75,0,0,0,549.26,249.45Z"/><path class="cls-4" d="M558,253.38v-8.92c1.14-.12,2.29-.24,3.43-.39a3.34,3.34,0,0,1,2.43.4,2.27,2.27,0,0,1,.87,2,3,3,0,0,1-2,2.92l2.34,3.07-2,.29c-.71-1-1.42-1.9-2.12-2.86l-1.46.17v3.15Zm1.6-4.79,1.79-.21a2.68,2.68,0,0,0,1.27-.46,1.37,1.37,0,0,0,.47-1.17c0-.56-.16-.9-.47-1a2.3,2.3,0,0,0-1.27-.12l-1.79.21Z"/><path class="cls-4" d="M565.52,243.47l1.94-.34c.78,1.07,1.57,2.13,2.35,3.17.78-1.36,1.55-2.74,2.33-4.11l2-.45q-1.71,2.92-3.44,5.85v3.83l-1.6.32V248Q567.27,245.72,565.52,243.47Z"/><path class="cls-4" d="M531.8,297.65v-8.92c1,.24,2,.45,3.05.65A5.09,5.09,0,0,1,538,291a5.21,5.21,0,0,1,1.07,3.46,4.23,4.23,0,0,1-1.07,3.19,3.48,3.48,0,0,1-3.14.63C533.83,298.09,532.81,297.87,531.8,297.65Zm1.59-1.09c.49.11,1,.21,1.46.29a2.11,2.11,0,0,0,1.95-.37,3.07,3.07,0,0,0,.61-2.21,3.9,3.9,0,0,0-.55-2.47,3,3,0,0,0-2-1l-1.46-.29Z"/><path class="cls-4" d="M541,299.1v-8.92c.53,0,1.08.08,1.61.1v8.93Z"/><path class="cls-4" d="M544.58,292.87a2.22,2.22,0,0,1,.91-1.95,4,4,0,0,1,2.29-.68,5.57,5.57,0,0,1,2.41.49v1.58a3.94,3.94,0,0,0-2.22-.56,2.93,2.93,0,0,0-1.26.28.83.83,0,0,0-.51.81.78.78,0,0,0,.47.69,4.54,4.54,0,0,0,1.14.4,12.56,12.56,0,0,1,1.33.38,2.33,2.33,0,0,1,1.15.83,2.59,2.59,0,0,1,.47,1.62,2.28,2.28,0,0,1-.91,1.82,3.43,3.43,0,0,1-2.19.78,5.15,5.15,0,0,1-2.92-.73V297a4,4,0,0,0,2.59.85c1.24,0,1.85-.42,1.85-1.1a1,1,0,0,0-.33-.75,2.12,2.12,0,0,0-.85-.42c-.35-.08-.71-.19-1.1-.32a9.27,9.27,0,0,1-1.1-.43,1.9,1.9,0,0,1-.85-.74A2.22,2.22,0,0,1,544.58,292.87Z"/><path class="cls-4" d="M552.58,298.93V290l1.61-.2v3.78q1.69-2.13,3.36-4.34c.71-.13,1.42-.29,2.13-.46q-1.78,2.37-3.56,4.64,1.93,2.16,3.89,4.2l-2,.44c-1-1.09-1.94-2.2-3-3.33l-.89,1.11v2.92Z"/><path class="cls-3" d="M520.18,347.61s-2.65,4,2.56,4.87c.51.07,4.29.46,5.26,1.7,0,0-.09-2.14-3.15-3.39S520.52,349.17,520.18,347.61Z"/><path class="cls-3" d="M522.76,339s-7.42,4.53-.43,9c1.36.87,6.24,3.31,6.09,5.57,0,0,2.92-4.39-1.36-7.14S521.5,340.58,522.76,339Z"/><path class="cls-3" d="M530.44,343.43c-3.19-3.34-4.07-5.39-2.71-8.06,0,0-9.5,3.65-.13,10.14,3.36,2.33,2.81,4.69,2.81,4.78a4.65,4.65,0,0,0,.32-6.56Z"/><g class="cls-5"><g class="cls-5"><path class="cls-4" d="M538.67,349.61v-8.43h1L545,348.6l-.23.35v-7.77h.91v8.43h-1l-5.47-7.7.42-.39v8.09Z"/></g><g class="cls-5"><path class="cls-4" d="M551.43,349.74a4.17,4.17,0,0,1-2.09-.49,3.12,3.12,0,0,1-1.27-1.45,6,6,0,0,1-.42-2.4,4.82,4.82,0,0,1,1-3.24,3.56,3.56,0,0,1,2.83-1.1,4.14,4.14,0,0,1,2.11.49A3,3,0,0,1,554.8,343a6,6,0,0,1,.42,2.4,4.84,4.84,0,0,1-1,3.24A3.57,3.57,0,0,1,551.43,349.74Zm0-.86a3.25,3.25,0,0,0,1.63-.37,2.14,2.14,0,0,0,.93-1.14,6.62,6.62,0,0,0,0-3.94,2.22,2.22,0,0,0-.93-1.14,3.75,3.75,0,0,0-3.25,0,2.22,2.22,0,0,0-.93,1.14,6.62,6.62,0,0,0,0,3.94,2.14,2.14,0,0,0,.93,1.14A3.24,3.24,0,0,0,551.43,348.88Z"/></g><g class="cls-5"><path class="cls-4" d="M557.26,349.61v-8.43h2.64a3.91,3.91,0,0,1,3,1.05,5.54,5.54,0,0,1,0,6.32,3.88,3.88,0,0,1-3,1.06Zm.91-.86h1.67a3,3,0,0,0,2.35-.81,4.84,4.84,0,0,0,0-5.11,3,3,0,0,0-2.35-.81h-1.67Z"/></g><g class="cls-5"><path class="cls-4" d="M565.68,349.61v-8.43H571V342h-4.41v2.9h3.88v.89h-3.88v2.92H571v.86Z"/></g></g><path class="cls-1" d="M0,522.55V7C0,3.12,3.73,0,8.34,0H153c4.61,0,8.34,3.12,8.34,7V522.55c0,3.84-3.73,7-8.34,7H8.34C3.73,529.51,0,526.39,0,522.55Z"/><path class="cls-6" d="M215.08,24.17a10.61,10.61,0,0,1,0-5.25,5.26,5.26,0,0,1,.88-1.81,4.43,4.43,0,0,1,1.3-1.1,5.45,5.45,0,0,1,1.52-.56,8.36,8.36,0,0,1,1.58-.14,10.08,10.08,0,0,1,3.72.71V17.6a8.59,8.59,0,0,0-3.53-.76A4,4,0,0,0,217.42,18a7.14,7.14,0,0,0,0,7.18,3.93,3.93,0,0,0,3.13,1.15,8.29,8.29,0,0,0,3.53-.77v1.57a9.68,9.68,0,0,1-3.72.74,8.37,8.37,0,0,1-1.58-.15,5.17,5.17,0,0,1-1.52-.57A4.2,4.2,0,0,1,215.92,26,5.35,5.35,0,0,1,215.08,24.17Z"/><path class="cls-6" d="M226.18,25.45a7.15,7.15,0,0,1,0-4.7,3.05,3.05,0,0,1,1-1.45,4.51,4.51,0,0,1,1.34-.7,6.22,6.22,0,0,1,3.05,0,4.88,4.88,0,0,1,1.36.7,3.2,3.2,0,0,1,1,1.45,7.15,7.15,0,0,1,0,4.7,3.2,3.2,0,0,1-1,1.45,4.14,4.14,0,0,1-1.36.68,5.64,5.64,0,0,1-3.05,0,4,4,0,0,1-1.34-.68A3.1,3.1,0,0,1,226.18,25.45Zm1.52-4a6.83,6.83,0,0,0,0,3.36,1.87,1.87,0,0,0,.6,1,2.48,2.48,0,0,0,.8.43,5,5,0,0,0,2,0,2.53,2.53,0,0,0,.81-.43,1.93,1.93,0,0,0,.6-1,7.33,7.33,0,0,0,0-3.36,1.87,1.87,0,0,0-.6-1,2,2,0,0,0-.81-.43,3.7,3.7,0,0,0-1-.1,4.19,4.19,0,0,0-1,.1,2.08,2.08,0,0,0-.8.43,1.85,1.85,0,0,0-.6.95Z"/><path class="cls-6" d="M236.66,27.64V19.28a8.42,8.42,0,0,1,3.78-.91,4.25,4.25,0,0,1,2.45.68,9.31,9.31,0,0,1,3.34-.68,3.74,3.74,0,0,1,2.68.9,3.28,3.28,0,0,1,1,2.51v5.86h-1.66v-6a2,2,0,0,0-.39-1.27,1.83,1.83,0,0,0-1.5-.48,6.38,6.38,0,0,0-2.44.51,4,4,0,0,1,.21,1.3v5.91h-1.68V21.69a1.79,1.79,0,0,0-.41-1.26,2.3,2.3,0,0,0-1.69-.48,7.91,7.91,0,0,0-2,.28v7.41Z"/><path class="cls-6" d="M252.54,31.12v-9.8a2.86,2.86,0,0,1,.06-.58,3.6,3.6,0,0,1,.26-.74,3,3,0,0,1,.59-.78,3.49,3.49,0,0,1,1.15-.59,6,6,0,0,1,2.74-.15,3.68,3.68,0,0,1,1.06.4,3.49,3.49,0,0,1,1,.81,4.6,4.6,0,0,1,.7,1.4,7.44,7.44,0,0,1,.28,2.1A6.74,6.74,0,0,1,260,25.5a3,3,0,0,1-1,1.42,4,4,0,0,1-1.31.66,5.36,5.36,0,0,1-1.49.21,7,7,0,0,1-1.93-.27v3.6Zm1.67-5.2a5.39,5.39,0,0,0,1.94.37,3.92,3.92,0,0,0,1-.1,2.36,2.36,0,0,0,.78-.42,2,2,0,0,0,.59-.94,5.71,5.71,0,0,0,.19-1.64,6.51,6.51,0,0,0-.19-1.76,2.08,2.08,0,0,0-.58-1,2.35,2.35,0,0,0-.75-.44,3.32,3.32,0,0,0-.83-.11c-1.4,0-2.11.46-2.11,1.37Z"/><path class="cls-6" d="M262.61,23.81V18.54h1.71v5.4a2.6,2.6,0,0,0,.53,1.82,2.63,2.63,0,0,0,3.31,0,2.74,2.74,0,0,0,.53-1.83V18.52h1.66V23.8a4.12,4.12,0,0,1-1,2.95,4.4,4.4,0,0,1-5.67,0A4.08,4.08,0,0,1,262.61,23.81Z"/><path class="cls-6" d="M272.11,20V18.54h1.59V15.83h1.66v2.71h2.43V20h-2.43v5.28c0,.7.45,1.06,1.35,1.06h0a2.08,2.08,0,0,0,1.06-.26v1.5a3.23,3.23,0,0,1-1.26.26h0a3.36,3.36,0,0,1-.71-.08,5.2,5.2,0,0,1-.89-.31,2,2,0,0,1-.87-.82,2.84,2.84,0,0,1-.33-1.45V20Z"/><path class="cls-6" d="M279.41,23.19c0-3.2,1.35-4.8,4-4.8h0a3.75,3.75,0,0,1,2.91,1.15,4.49,4.49,0,0,1,1.15,3.2V24h-6.3a2.36,2.36,0,0,0,2.41,2.31h.16a6.62,6.62,0,0,0,3.15-.69v1.52a8.14,8.14,0,0,1-3.19.59h0a4.92,4.92,0,0,1-1.47-.2,4.5,4.5,0,0,1-1.33-.67,3,3,0,0,1-1-1.41A6.43,6.43,0,0,1,279.41,23.19Zm1.69-.66h4.67a4.19,4.19,0,0,0-.15-.86,3.67,3.67,0,0,0-.36-.84,1.84,1.84,0,0,0-.72-.69,2.29,2.29,0,0,0-1.15-.26,2.17,2.17,0,0,0-1.68.6,3.4,3.4,0,0,0-.61,2.07Z"/><path class="cls-6" d="M295.56,24.2a4,4,0,0,1,.5-1.93,5.06,5.06,0,0,1,2-1.71,4.21,4.21,0,0,1-1.16-2.42,2.83,2.83,0,0,1,2.86-2.83,2.82,2.82,0,0,1,2,.79,2.8,2.8,0,0,1,.32,3.6A5.48,5.48,0,0,1,300.47,21l2.37,2.85a6.61,6.61,0,0,0,.47-1.57H305a7.33,7.33,0,0,1-1.09,2.79L306,27.64h-2l-1.07-1.26a4.68,4.68,0,0,1-3.46,1.41h0a4.34,4.34,0,0,1-1.81-.36,3.13,3.13,0,0,1-1.24-.92,4.74,4.74,0,0,1-.67-1.15A3.48,3.48,0,0,1,295.56,24.2Zm1.67,0a2,2,0,0,0,.09.59,2.85,2.85,0,0,0,.35.67,1.67,1.67,0,0,0,.73.61,2.74,2.74,0,0,0,1.16.24,3.19,3.19,0,0,0,2.4-1.09L299,21.68a5.9,5.9,0,0,0-1.06.7,2.16,2.16,0,0,0-.58.73,2.79,2.79,0,0,0-.18.58,2.63,2.63,0,0,0,0,.56ZM298.81,17a1.34,1.34,0,0,0-.41,1,3.69,3.69,0,0,0,1,1.82,5.67,5.67,0,0,0,1.39-1,1.4,1.4,0,0,0,.37-.86,1.28,1.28,0,0,0-.39-.94,1.36,1.36,0,0,0-1-.38,1.26,1.26,0,0,0-1,.42Z"/><path class="cls-6" d="M215.22,50.64V38.46h1.85l4,5.26,4-5.26h1.86V50.64h-1.71V41l-4.16,5.46L216.94,41v9.6Z"/><path class="cls-6" d="M229.38,47.76a2.4,2.4,0,0,1,1.15-2.11,5.66,5.66,0,0,1,3.16-.76,11.43,11.43,0,0,1,1.65.11,2.32,2.32,0,0,0-.62-1.66,2.93,2.93,0,0,0-1.88-.49,7.55,7.55,0,0,0-2.53.46V41.88a7.44,7.44,0,0,1,2.76-.49,4.07,4.07,0,0,1,2.94,1,3.68,3.68,0,0,1,1,2.82v2.7a3.66,3.66,0,0,1,0,.57,2.82,2.82,0,0,1-.28.75,2.76,2.76,0,0,1-.6.8,3.12,3.12,0,0,1-1.15.58,5.66,5.66,0,0,1-1.73.25,6,6,0,0,1-1.78-.26,3.52,3.52,0,0,1-1.15-.6,2.66,2.66,0,0,1-.61-.8,3,3,0,0,1-.27-.76A3.05,3.05,0,0,1,229.38,47.76Zm1.67,0c0,1,.73,1.54,2.19,1.54h0c1.38,0,2.06-.49,2.06-1.48V46.35a9.26,9.26,0,0,0-1.58-.11,6.78,6.78,0,0,0-.77,0,6.24,6.24,0,0,0-.85.22,1.69,1.69,0,0,0-.77.46,1.17,1.17,0,0,0-.28.78Z"/><path class="cls-6" d="M240,49.58a6.14,6.14,0,0,1,0-7,4,4,0,0,1,3.16-1.16,7.46,7.46,0,0,1,2.68.51v1.59a5.76,5.76,0,0,0-2.51-.6h0a2.82,2.82,0,0,0-2,.66,3.47,3.47,0,0,0-.72,2.54,5.69,5.69,0,0,0,.22,1.69,1.92,1.92,0,0,0,.63,1,2.48,2.48,0,0,0,.82.43,4.43,4.43,0,0,0,1,.11,5.81,5.81,0,0,0,2.55-.59v1.58a7.51,7.51,0,0,1-2.69.51A4,4,0,0,1,240,49.58Z"/><path class="cls-6" d="M248,50.64V38h1.67v3.79a6.81,6.81,0,0,1,2.41-.44,3.45,3.45,0,0,1,2.65,1,4.06,4.06,0,0,1,.94,2.88v5.36H254V45.21a2.16,2.16,0,0,0-.57-1.78,2.22,2.22,0,0,0-1.47-.45,6.52,6.52,0,0,0-2.31.43v7.23Z"/><path class="cls-6" d="M258.27,40.12V38.35H260v1.77Zm0,10.52v-9.1h1.67v9.1Z"/><path class="cls-6" d="M263,50.64V42.31a8.71,8.71,0,0,1,3.88-.94,4,4,0,0,1,2.72.9,3.19,3.19,0,0,1,1,2.5v5.87h-1.7v-6a1.87,1.87,0,0,0-.42-1.26,2.14,2.14,0,0,0-1.65-.46,6.77,6.77,0,0,0-2.14.32v7.41Z"/><path class="cls-6" d="M272.81,46.19c0-3.2,1.35-4.8,4-4.8h0a3.76,3.76,0,0,1,2.92,1.15,4.53,4.53,0,0,1,1.15,3.2V47h-6.3A2.35,2.35,0,0,0,277,49.3h.16a6.67,6.67,0,0,0,3.14-.69v1.6a8.05,8.05,0,0,1-3.18.59h0a4.88,4.88,0,0,1-1.47-.2,4.38,4.38,0,0,1-1.33-.67,3,3,0,0,1-1-1.41A6.42,6.42,0,0,1,272.81,46.19Zm1.68-.66h4.68a4.19,4.19,0,0,0-.15-.86,3.7,3.7,0,0,0-.37-.84,1.81,1.81,0,0,0-.71-.69,2.31,2.31,0,0,0-1.15-.26,2.2,2.2,0,0,0-1.69.6,3.52,3.52,0,0,0-.61,2.11Z"/><path class="cls-6" d="M289.55,50.64V38.46h1.71V49.05h6.05v1.58Z"/><path class="cls-6" d="M298.58,46.19q0-4.8,4-4.8h0a3.77,3.77,0,0,1,2.92,1.15,4.56,4.56,0,0,1,1.09,3.2V47h-6.34a2.36,2.36,0,0,0,2.41,2.31h.16A6.74,6.74,0,0,0,306,48.6v1.6a8.09,8.09,0,0,1-3.18.59h0a4.94,4.94,0,0,1-1.48-.2,4.28,4.28,0,0,1-1.31-.67,2.93,2.93,0,0,1-1-1.41A6.35,6.35,0,0,1,298.58,46.19Zm1.67-.66h4.68a3.71,3.71,0,0,0-.52-1.7,1.81,1.81,0,0,0-.71-.69,2.4,2.4,0,0,0-1.15-.26,2.2,2.2,0,0,0-1.69.6,3.45,3.45,0,0,0-.61,2.11Z"/><path class="cls-6" d="M308.3,47.76a2.4,2.4,0,0,1,1.15-2.11,5.63,5.63,0,0,1,3.15-.76,11.48,11.48,0,0,1,1.66.11,2.23,2.23,0,0,0-.63-1.66,2.92,2.92,0,0,0-1.88-.49,7.8,7.8,0,0,0-2.53.46V41.88a7.65,7.65,0,0,1,2.76-.49,4.09,4.09,0,0,1,2.95,1,3.68,3.68,0,0,1,1,2.82v2.7a2.72,2.72,0,0,1,0,.57,4,4,0,0,1-.27.75,2.76,2.76,0,0,1-.6.8,3.12,3.12,0,0,1-1.15.58,5.72,5.72,0,0,1-1.74.25,5.88,5.88,0,0,1-1.77-.26,3.17,3.17,0,0,1-1.15-.6,2.66,2.66,0,0,1-.61-.8,4.4,4.4,0,0,1-.29-.76A3.83,3.83,0,0,1,308.3,47.76Zm1.66,0c0,1,.74,1.54,2.19,1.54h0c1.37,0,2.06-.49,2.06-1.48V46.35a9.3,9.3,0,0,0-1.59-.11,4.71,4.71,0,0,0-1.62.27,1.61,1.61,0,0,0-.76.46,1.17,1.17,0,0,0-.28.78Z"/><path class="cls-6" d="M318.28,50.64V42.3a12.06,12.06,0,0,1,4.44-.91v1.53a10.91,10.91,0,0,0-2.78.39v7.33Z"/><path class="cls-6" d="M324.51,50.64V42.31a8.78,8.78,0,0,1,3.89-.94,3.9,3.9,0,0,1,2.72.9,3.26,3.26,0,0,1,1,2.5v5.87h-1.71v-6a1.82,1.82,0,0,0-.4-1.26,2.21,2.21,0,0,0-1.66-.46,6.73,6.73,0,0,0-2.14.32v7.41Z"/><path class="cls-6" d="M334.9,40.12V38.35h1.77v1.77Zm0,10.52v-9.1h1.67v9.1Z"/><path class="cls-6" d="M339.6,50.64V42.31a8.71,8.71,0,0,1,3.88-.94,3.86,3.86,0,0,1,2.71.9,3.22,3.22,0,0,1,1,2.5v5.87h-1.7v-6a1.87,1.87,0,0,0-.42-1.26,2.18,2.18,0,0,0-1.65-.46,6.77,6.77,0,0,0-2.14.32v7.41Z"/><path class="cls-6" d="M349.59,46a5.44,5.44,0,0,1,1-3.39,3.44,3.44,0,0,1,2.95-1.26,4.34,4.34,0,0,1,2.66.75,2.53,2.53,0,0,1,1,2.13V51a3.45,3.45,0,0,1-.17,1.15,3.58,3.58,0,0,1-.59,1,2.56,2.56,0,0,1-1.24.77,6.23,6.23,0,0,1-2,.29,9.89,9.89,0,0,1-2.7-.38V52.29a9.61,9.61,0,0,0,2.56.38,5.75,5.75,0,0,0,1.43-.15,1.52,1.52,0,0,0,.76-.45,1.57,1.57,0,0,0,.25-.5,2.35,2.35,0,0,0,0-.53V50.2a6.75,6.75,0,0,1-1.84.25,3.82,3.82,0,0,1-3-1.15A4.68,4.68,0,0,1,349.59,46Zm1.67,0a3.16,3.16,0,0,0,.63,2.3,2.46,2.46,0,0,0,1.75.59,4.87,4.87,0,0,0,1.85-.35V44.08a1,1,0,0,0,0-.34,1.3,1.3,0,0,0-.2-.41,1.14,1.14,0,0,0-.61-.39,4.89,4.89,0,0,0-1.15-.13,2.71,2.71,0,0,0-.8.11,2.05,2.05,0,0,0-.7.41,2,2,0,0,0-.55,1,6.41,6.41,0,0,0-.24,1.74Z"/><path class="cls-7" d="M219,87.65h40.26a2.8,2.8,0,0,1,0,5.59H219a2.8,2.8,0,0,1-.36-5.59A2.16,2.16,0,0,1,219,87.65Z"/><path class="cls-7" d="M256.42,138.26V90.77a2.8,2.8,0,0,1,5.59,0v47.49a2.8,2.8,0,0,1-5.59,0Z"/><path class="cls-7" d="M229.45,77.42a2.77,2.77,0,0,0-1.81.67l-12,10.24a2.79,2.79,0,0,0-.31,3.93c.1.11.2.21.31.31l12,10.24a2.79,2.79,0,0,0,3.63-4.24h0l-9.5-8.06,9.5-8.07a2.8,2.8,0,0,0,.32-3.93h0A2.81,2.81,0,0,0,229.45,77.42Z"/><path class="cls-7" d="M259.22,135.47h29.35a2.79,2.79,0,0,1,0,5.58H259.22a2.79,2.79,0,0,1,0-5.58Z"/><path class="cls-7" d="M319.16,164.75l-28.47-28.46a2.79,2.79,0,0,0-3.94,3.94l28.46,28.47a2.8,2.8,0,0,0,4-3.95Z"/><path class="cls-7" d="M319,150.09a2.71,2.71,0,0,1,.8,1.75l1.24,15.72a2.79,2.79,0,0,1-2.57,3h-.43l-15.72-1.22a2.79,2.79,0,0,1,.44-5.57l12.46,1-1-12.46a2.8,2.8,0,0,1,2.6-3,2.85,2.85,0,0,1,2.16.8Z"/><circle class="cls-3" cx="286.62" cy="138.56" r="7.58"/><path class="cls-1" d="M281.64,138.56a5,5,0,1,1,5,5,5,5,0,0,1-5-5m-5.2,0a10.2,10.2,0,1,0,10.21-10.19h0A10.19,10.19,0,0,0,276.44,138.56Z"/><path class="cls-8" d="M288.06,135.83V66.57a1.06,1.06,0,1,0-2.12,0h0v69.26a1.06,1.06,0,1,0,2.12,0Z"/><path class="cls-6" d="M212.45,511.69l4.87-12.18H219l4.84,12.18H222l-1.3-3.45h-5.09l-1.32,3.45Zm3.75-5h3.87l-1.94-5.06Z"/><path class="cls-6" d="M225.26,508.23a10.46,10.46,0,0,1,0-5.27,5.27,5.27,0,0,1,.87-1.8,4.21,4.21,0,0,1,1.3-1.15,5.56,5.56,0,0,1,1.52-.56,7.67,7.67,0,0,1,1.58-.14,10.14,10.14,0,0,1,3.73.72v1.58a8.44,8.44,0,0,0-3.53-.77,4,4,0,0,0-3.14,1.15,7.16,7.16,0,0,0,0,7.19,3.92,3.92,0,0,0,3.14,1.15,8.59,8.59,0,0,0,3.53-.76v1.57a10,10,0,0,1-3.69.74,8.36,8.36,0,0,1-1.58-.14,5.45,5.45,0,0,1-1.52-.56,4,4,0,0,1-1.3-1.16A5.23,5.23,0,0,1,225.26,508.23Z"/><path class="cls-6" d="M236.64,511.69V499.51h1.71v12.18Z"/><path class="cls-6" d="M241.49,511.69V499.51h3.88a5.66,5.66,0,0,1,4.27,1.55,7.85,7.85,0,0,1,0,9.09,5.58,5.58,0,0,1-4.27,1.54Zm1.71-1.49h1.91a4.3,4.3,0,0,0,3.27-1.16,6.35,6.35,0,0,0,0-7,4.33,4.33,0,0,0-3.27-1.15h-1.87Z"/><path class="cls-6" d="M258.63,501.1v-1.59h9.89v1.59h-4.11v10.59h-1.7V501.1Z"/><path class="cls-6" d="M269,511.69v-8.34a12.12,12.12,0,0,1,4.45-.91V504a12.41,12.41,0,0,0-2.78.38v7.34Z"/><path class="cls-6" d="M274.67,508.81a2.42,2.42,0,0,1,1.15-2.11,5.66,5.66,0,0,1,3.14-.76,13.1,13.1,0,0,1,1.66.11,2.2,2.2,0,0,0-.63-1.65,2.85,2.85,0,0,0-1.88-.5,8.3,8.3,0,0,0-2.52.45v-1.42a7.6,7.6,0,0,1,2.75-.49,4.09,4.09,0,0,1,2.94,1,3.74,3.74,0,0,1,1,2.84v2.62a2.91,2.91,0,0,1,0,.59,2.76,2.76,0,0,1-.28.74,2.41,2.41,0,0,1-.59.79,3,3,0,0,1-1.15.59,5.67,5.67,0,0,1-1.74.24,5.51,5.51,0,0,1-1.76-.25,3.31,3.31,0,0,1-1.15-.59,2.31,2.31,0,0,1-.61-.81,2.4,2.4,0,0,1-.29-.77A2.89,2.89,0,0,1,274.67,508.81Zm1.67,0c0,1,.73,1.55,2.19,1.55h0c1.37,0,2.06-.5,2.06-1.48v-1.5a12.14,12.14,0,0,0-1.59-.11,3.84,3.84,0,0,0-.76.07,6.87,6.87,0,0,0-.87.21,1.63,1.63,0,0,0-.77.47,1.13,1.13,0,0,0-.26.77Z"/><path class="cls-6" d="M284.73,511.69v-8.34a8.83,8.83,0,0,1,3.88-.93,3.85,3.85,0,0,1,2.72.9,3.24,3.24,0,0,1,1,2.5v5.87H290.6v-6a1.83,1.83,0,0,0-.4-1.27,2.26,2.26,0,0,0-1.66-.47,7,7,0,0,0-2.14.33v7.41Z"/><path class="cls-6" d="M294.58,505.15a2.64,2.64,0,0,1,.8-1.93,3.5,3.5,0,0,1,2.48-.78,5.51,5.51,0,0,1,2.43.59v1.45a5.23,5.23,0,0,0-2.23-.54c-1.15,0-1.81.38-1.81,1.15,0,.26.16.46.48.64a6,6,0,0,0,1.16.43c.44.14.89.29,1.34.48a2.54,2.54,0,0,1,1.16.91,2.69,2.69,0,0,1-.34,3.45,3.57,3.57,0,0,1-2.57.8,5.5,5.5,0,0,1-2.63-.64v-1.53a5.09,5.09,0,0,0,2.53.67h0a2.38,2.38,0,0,0,1.33-.31,1,1,0,0,0,.47-.81,1.07,1.07,0,0,0-.49-.9,3.56,3.56,0,0,0-1.15-.54c-.45-.12-.91-.26-1.37-.42a2.49,2.49,0,0,1-1.15-.79A2,2,0,0,1,294.58,505.15Z"/><path class="cls-6" d="M302.62,508.81a2.41,2.41,0,0,1,1.15-2.11,5.69,5.69,0,0,1,3.15-.76,13.22,13.22,0,0,1,1.66.11,2.17,2.17,0,0,0-.64-1.65,2.82,2.82,0,0,0-1.87-.5,8.36,8.36,0,0,0-2.53.45v-1.42a7.87,7.87,0,0,1,2.76-.49,4.13,4.13,0,0,1,2.95,1,3.73,3.73,0,0,1,1,2.84v2.62a2.91,2.91,0,0,1,0,.59,4.11,4.11,0,0,1-.27.74,2.44,2.44,0,0,1-.6.79,3,3,0,0,1-1.15.59,5.71,5.71,0,0,1-1.74.24,5.57,5.57,0,0,1-1.77-.25,3.4,3.4,0,0,1-1.15-.59,2.7,2.7,0,0,1-.61-.81,3,3,0,0,1-.29-.77A3.78,3.78,0,0,1,302.62,508.81Zm1.66,0c0,1,.74,1.55,2.19,1.55h0c1.37,0,2.06-.5,2.06-1.48v-1.5a12,12,0,0,0-1.59-.11,3.91,3.91,0,0,0-.76.07,6.34,6.34,0,0,0-.86.21,1.51,1.51,0,0,0-.76.47,1,1,0,0,0-.24.77Z"/><path class="cls-6" d="M313.19,510.63a6.16,6.16,0,0,1,0-7,4,4,0,0,1,3.16-1.15,7,7,0,0,1,2.68.5v1.59a5.57,5.57,0,0,0-2.5-.59h0a2.76,2.76,0,0,0-2,.64,3.49,3.49,0,0,0-.72,2.55,6,6,0,0,0,.21,1.68,2.07,2.07,0,0,0,.62,1,2.44,2.44,0,0,0,.85.43,4.28,4.28,0,0,0,1,.1,5.82,5.82,0,0,0,2.53-.58v1.58a7.2,7.2,0,0,1-2.68.5A4,4,0,0,1,313.19,510.63Z"/><path class="cls-6" d="M320.56,504v-1.43h1.59v-2.7h1.67v2.7h2.39V504h-2.42v5.26c0,.71.45,1.06,1.35,1.06h0a1.88,1.88,0,0,0,1.06-.26v1.51a3.27,3.27,0,0,1-1.14.3h0a3.36,3.36,0,0,1-.71-.08,4.17,4.17,0,0,1-.9-.31,1.92,1.92,0,0,1-.85-.82,2.84,2.84,0,0,1-.34-1.45v-5.17Z"/><path class="cls-6" d="M328.51,501.17V499.4h1.78v1.77Zm0,10.52v-9.11h1.67v9.11Z"/><path class="cls-6" d="M333,509.49a7.41,7.41,0,0,1,0-4.7,3.3,3.3,0,0,1,1.05-1.45,4.43,4.43,0,0,1,1.42-.68,5.57,5.57,0,0,1,3,0,4.14,4.14,0,0,1,1.36.68,3.24,3.24,0,0,1,1.05,1.45,7.55,7.55,0,0,1,0,4.7,3.15,3.15,0,0,1-1.05,1.46,4.59,4.59,0,0,1-1.36.69,6,6,0,0,1-3,0,4.59,4.59,0,0,1-1.36-.69A3.15,3.15,0,0,1,333,509.49Zm1.52-4a7.33,7.33,0,0,0,0,3.36,2,2,0,0,0,.6,1,2.12,2.12,0,0,0,.81.43,4.77,4.77,0,0,0,2,0,2.12,2.12,0,0,0,.81-.43,1.85,1.85,0,0,0,.6-1,7.07,7.07,0,0,0,0-3.36,2,2,0,0,0-.6-1,2.74,2.74,0,0,0-.81-.43,5.13,5.13,0,0,0-2,0,2.74,2.74,0,0,0-.81.43A2,2,0,0,0,334.48,505.46Z"/><path class="cls-6" d="M343.3,511.69v-8.34a8.57,8.57,0,0,1,3.88-.93,3.85,3.85,0,0,1,2.72.9,3.24,3.24,0,0,1,1,2.5v5.87h-1.71v-6a1.83,1.83,0,0,0-.41-1.27,2.22,2.22,0,0,0-1.65-.47,7,7,0,0,0-2.14.33v7.41Z"/><path class="cls-6" d="M353.15,505.15a2.6,2.6,0,0,1,.81-1.93,3.44,3.44,0,0,1,2.46-.78,5.63,5.63,0,0,1,2.45.59v1.45a5.28,5.28,0,0,0-2.24-.54c-1.21,0-1.81.38-1.81,1.15,0,.26.16.46.48.64a6,6,0,0,0,1.16.43c.45.14.91.29,1.36.48a2.63,2.63,0,0,1,1.15.91,2.67,2.67,0,0,1-.35,3.45,3.57,3.57,0,0,1-2.55.8,5.23,5.23,0,0,1-2.63-.64v-1.53a5,5,0,0,0,2.52.67h0a2.38,2.38,0,0,0,1.33-.31,1,1,0,0,0,.46-.81,1.08,1.08,0,0,0-.48-.9,3.58,3.58,0,0,0-1.15-.54c-.46-.12-.91-.26-1.37-.42a2.7,2.7,0,0,1-1.15-.79A2.08,2.08,0,0,1,353.15,505.15Z"/><path class="cls-7" d="M219,463.1h40.26a2.79,2.79,0,0,0,0-5.57H219a2.79,2.79,0,1,0,0,5.57Z"/><path class="cls-7" d="M256.45,412.51V460a2.79,2.79,0,1,0,5.58,0h0V412.51a2.79,2.79,0,1,0-5.58,0Z"/><path class="cls-7" d="M229.47,473.35a2.84,2.84,0,0,1-1.82-.67l-12-10.24a2.8,2.8,0,0,1-.31-3.94,2.91,2.91,0,0,1,.31-.3l12-10.25a2.79,2.79,0,1,1,3.63,4.24l-9.49,8.17,9.49,8.07a2.79,2.79,0,0,1-1.81,4.91Z"/><path class="cls-7" d="M259.24,415.3H288.6a2.79,2.79,0,0,0,0-5.58H259.24a2.79,2.79,0,0,0,0,5.58Z"/><path class="cls-7" d="M319.23,386l-28.46,28.46a2.8,2.8,0,0,1-4.2-3.71,1.81,1.81,0,0,1,.24-.24l28.46-28.47a2.8,2.8,0,1,1,4,4Z"/><path class="cls-7" d="M319,400.67a2.79,2.79,0,0,0,.8-1.76l1.24-15.75a2.81,2.81,0,0,0-2.6-3H318l-15.71,1.23a2.79,2.79,0,1,0,.43,5.57h0l12.46-1-1,12.46a2.79,2.79,0,0,0,4.76,2.19Z"/><circle class="cls-3" cx="285.95" cy="412.21" r="7.58"/><path class="cls-1" d="M281,412.21a5,5,0,1,1,5,5,5,5,0,0,1-5-5m-5.22,0A10.2,10.2,0,1,0,286,402a10.2,10.2,0,0,0-10.2,10.2Z"/><path class="cls-8" d="M287,480.39V411.17a1.05,1.05,0,0,0-1.06-1.06,1.07,1.07,0,0,0-1.06,1.06v69.22a1.06,1.06,0,0,0,2.12,0Z"/><path class="cls-7" d="M306.22,250.48a2.81,2.81,0,0,1,1.81.67l12,10.24a2.79,2.79,0,0,1,.31,3.93,1.82,1.82,0,0,1-.31.31l-12,10.25a2.79,2.79,0,1,1-3.63-4.24l9.49-8.07-9.49-8.12a2.79,2.79,0,0,1,1.82-4.91Z"/><path class="cls-7" d="M239.93,260.73h77a2.79,2.79,0,0,1,0,5.57h-77a2.79,2.79,0,1,1,0-5.57Z"/><path class="cls-7" d="M250.29,276.55a2.83,2.83,0,0,1-1.81-.67l-12-10.25a2.79,2.79,0,0,1-.31-3.93c.1-.11.2-.21.31-.31l12-10.24a2.79,2.79,0,0,1,3.63,4.24l-9.5,8.12,9.5,8.07a2.79,2.79,0,0,1-1.82,4.91Z"/><path class="cls-6" d="M262.37,327.35a3.25,3.25,0,0,1,1.05-2.43,4.47,4.47,0,0,1,3.22-1,7,7,0,0,1,3.13.73v1.66a5.57,5.57,0,0,0-2.93-.8c-1.84,0-2.76.61-2.76,1.84a1.1,1.1,0,0,0,.48.87,4.15,4.15,0,0,0,1.15.58c.48.15,1,.35,1.57.58a14.9,14.9,0,0,1,1.56.75,3.29,3.29,0,0,1,1.68,2.94,2.9,2.9,0,0,1-1.15,2.44,5.21,5.21,0,0,1-3.23.87,8.05,8.05,0,0,1-3.63-.87v-1.75a6.54,6.54,0,0,0,3.46,1c1.89,0,2.83-.57,2.84-1.72a1.73,1.73,0,0,0-.48-1.26,2.7,2.7,0,0,0-1.15-.76l-1.57-.53c-.58-.2-1.09-.4-1.57-.61a3,3,0,0,1-1.15-1A2.68,2.68,0,0,1,262.37,327.35Z"/><path class="cls-6" d="M272.48,330.2a8.3,8.3,0,0,1,.36-2.62,5.16,5.16,0,0,1,.88-1.81,4.48,4.48,0,0,1,1.33-1.08,5.49,5.49,0,0,1,1.52-.58,9.43,9.43,0,0,1,3.18,0,5.43,5.43,0,0,1,1.51.58,4.4,4.4,0,0,1,1.31,1.08,5,5,0,0,1,.9,1.81,8.91,8.91,0,0,1,.36,2.62,9.36,9.36,0,0,1-.4,2.83,4.51,4.51,0,0,1-1.16,1.89,5.1,5.1,0,0,1-1.49,1,6.25,6.25,0,0,1-1.74.43,1.78,1.78,0,0,0,.48,1.26,1.68,1.68,0,0,0,1.34.54v1.24a3.57,3.57,0,0,1-2.5-.9,2.92,2.92,0,0,1-1-2.2,6.15,6.15,0,0,1-1.79-.42,5,5,0,0,1-1.56-1,4.49,4.49,0,0,1-1.15-1.9A8.63,8.63,0,0,1,272.48,330.2Zm2-2.09a8.53,8.53,0,0,0,0,4.18,4.16,4.16,0,0,0,.61,1.38,2.78,2.78,0,0,0,.92.78,3.57,3.57,0,0,0,1,.38,8.89,8.89,0,0,0,1.15.08,8.77,8.77,0,0,0,1.15-.08,3.63,3.63,0,0,0,1.06-.38,2.85,2.85,0,0,0,.94-.78,4.1,4.1,0,0,0,.62-1.38,9.22,9.22,0,0,0,0-4.18,4.62,4.62,0,0,0-.61-1.36,2.63,2.63,0,0,0-.94-.78,3.53,3.53,0,0,0-1.06-.38,8.06,8.06,0,0,0-2.3,0,3.57,3.57,0,0,0-1,.38,2.56,2.56,0,0,0-.92.78,4.24,4.24,0,0,0-.59,1.3Z"/><path class="cls-6" d="M286.39,336.25V324.06h1.69v10.6h6.05v1.59Z"/><path class="cls-3" d="M285.83,263.51a7.59,7.59,0,1,1-7.6-7.58h0A7.58,7.58,0,0,1,285.83,263.51Z"/><path class="cls-1" d="M273.27,263.51a5,5,0,1,1,5,5h0a5,5,0,0,1-5-5m-5.22,0a10.2,10.2,0,1,0,10.2-10.19h0A10.19,10.19,0,0,0,268.05,263.51Z"/><path class="cls-8" d="M280.45,310.83v-48.4a1.06,1.06,0,1,0-2.12,0h0v48.4a1.06,1.06,0,1,0,2.12,0Z"/><path class="cls-9" d="M22.82,475.76l5.68-14.27h1.94l5.67,14.27H34l-1.51-4h-6l-1.53,4Zm4.37-5.87h4.53L29.42,464Z"/><path class="cls-9" d="M38.3,479.79V468.27a3.82,3.82,0,0,1,.06-.68,4,4,0,0,1,.32-.87,3.27,3.27,0,0,1,.69-.92,4.36,4.36,0,0,1,1.32-.68,6.71,6.71,0,0,1,2-.29,6.4,6.4,0,0,1,1.15.11,4.18,4.18,0,0,1,1.23.47,4,4,0,0,1,1.15.94,4.65,4.65,0,0,1,.82,1.65,8,8,0,0,1,.36,2.57,7.59,7.59,0,0,1-.44,2.71,3.5,3.5,0,0,1-1.15,1.66,5.08,5.08,0,0,1-1.56.78,6,6,0,0,1-1.74.23,8.13,8.13,0,0,1-2.3-.31v4.15Zm2-6.07a6.5,6.5,0,0,0,2.3.42,4.53,4.53,0,0,0,1.16-.12,2.52,2.52,0,0,0,.91-.49,2.24,2.24,0,0,0,.69-1.15,7.24,7.24,0,0,0,.23-1.91,7.89,7.89,0,0,0-.23-2.06,2.36,2.36,0,0,0-.68-1.16,2.23,2.23,0,0,0-.87-.5,2.91,2.91,0,0,0-1-.14c-1.64,0-2.47.53-2.47,1.59Z"/><path class="cls-9" d="M50,479.79V468.27a3.08,3.08,0,0,1,.07-.68,4,4,0,0,1,.32-.87,3,3,0,0,1,.69-.92,3.86,3.86,0,0,1,1.32-.68,6.58,6.58,0,0,1,2-.29,6.42,6.42,0,0,1,1.16.11,4.34,4.34,0,0,1,1.24.47,4,4,0,0,1,1.15.94A4.82,4.82,0,0,1,58.8,468a8.19,8.19,0,0,1,.32,2.46,7.52,7.52,0,0,1-.42,2.7,3.41,3.41,0,0,1-1.15,1.66,5.28,5.28,0,0,1-1.55.79,6.81,6.81,0,0,1-1.74.23,8.5,8.5,0,0,1-2.3-.31v4.26Zm2-6.07a6.46,6.46,0,0,0,2.3.42,4.53,4.53,0,0,0,1.16-.12,2.56,2.56,0,0,0,.92-.49,2.16,2.16,0,0,0,.68-1.15,6.5,6.5,0,0,0,.24-1.91,7.5,7.5,0,0,0-.24-2.06,2.26,2.26,0,0,0-1.54-1.66,3,3,0,0,0-1-.14q-2.46,0-2.46,1.59Z"/><path class="cls-9" d="M62.11,475.76V461h2v14.74Z"/><path class="cls-9" d="M67.58,463.43v-2.08h2.08v2.07Zm.07,12.33V465.09H69.6v10.67Z"/><path class="cls-9" d="M73.68,474.51a7.23,7.23,0,0,1,0-8.18,4.72,4.72,0,0,1,3.7-1.42,8.47,8.47,0,0,1,3.14.6v1.86a6.8,6.8,0,0,0-2.94-.7h0a3.27,3.27,0,0,0-2.3.76,4.07,4.07,0,0,0-.83,3,6.84,6.84,0,0,0,.24,2,2.24,2.24,0,0,0,.73,1.15,2.67,2.67,0,0,0,1,.51,5,5,0,0,0,1.15.13,7.22,7.22,0,0,0,3-.68v1.84a8.71,8.71,0,0,1-3.15.59A4.7,4.7,0,0,1,73.68,474.51Z"/><path class="cls-9" d="M82.49,472.38a2.86,2.86,0,0,1,1.34-2.48,6.62,6.62,0,0,1,3.69-.88,15.63,15.63,0,0,1,1.93.12,2.59,2.59,0,0,0-.73-1.92,3.35,3.35,0,0,0-2.21-.59,9,9,0,0,0-3,.53v-1.67a9.17,9.17,0,0,1,3.23-.58,4.9,4.9,0,0,1,3.46,1.16,4.37,4.37,0,0,1,1.21,3.31v3.08a3.3,3.3,0,0,1-.39,1.56,3,3,0,0,1-.7.93,3.86,3.86,0,0,1-1.32.68,7.27,7.27,0,0,1-4.1,0,4,4,0,0,1-1.34-.69,3,3,0,0,1-.71-.95,3.48,3.48,0,0,1-.34-.9A5.35,5.35,0,0,1,82.49,472.38Zm2,0c0,1.15.85,1.81,2.57,1.81h0c1.61,0,2.42-.58,2.42-1.74v-1.72a14.28,14.28,0,0,0-1.86-.14,4.41,4.41,0,0,0-.89.09,5.93,5.93,0,0,0-1,.24,2.06,2.06,0,0,0-.9.55,1.26,1.26,0,0,0-.33.89Z"/><path class="cls-9" d="M93,466.76v-1.67h1.86v-3.17h2v3.17h2.84v1.67H96.78v6.12c0,.83.53,1.24,1.58,1.24h0a2.3,2.3,0,0,0,1.23-.31v1.76a3.62,3.62,0,0,1-1.45.3h0a3.81,3.81,0,0,1-.82-.09,5,5,0,0,1-1-.37,2.34,2.34,0,0,1-1-1,3.31,3.31,0,0,1-.39-1.69v-6.05Z"/><path class="cls-9" d="M102.2,463.43v-2.08h2.07v2.07Zm.07,12.33V465.09h1.94v10.67Z"/><path class="cls-9" d="M107.49,473.19a8.69,8.69,0,0,1,0-5.52,3.78,3.78,0,0,1,1.22-1.7,5.29,5.29,0,0,1,1.59-.8,6.89,6.89,0,0,1,3.55,0,5.29,5.29,0,0,1,1.59.8,3.8,3.8,0,0,1,1.23,1.7,8.69,8.69,0,0,1,0,5.52,3.77,3.77,0,0,1-1.23,1.69,5.31,5.31,0,0,1-1.59.81,6.89,6.89,0,0,1-3.55,0,5.31,5.31,0,0,1-1.59-.81A3.75,3.75,0,0,1,107.49,473.19Zm1.77-4.73a8.42,8.42,0,0,0,0,3.93,2.25,2.25,0,0,0,.7,1.15,2.63,2.63,0,0,0,1,.5,5,5,0,0,0,1.15.13,4.89,4.89,0,0,0,1.15-.13,2.63,2.63,0,0,0,1-.5,2.19,2.19,0,0,0,.7-1.15,8.16,8.16,0,0,0,0-3.93,2.23,2.23,0,0,0-.7-1.15,2.63,2.63,0,0,0-1-.5,4.88,4.88,0,0,0-1.15-.12,4.94,4.94,0,0,0-1.15.12,2.63,2.63,0,0,0-1,.5A2.34,2.34,0,0,0,109.26,468.46Z"/><path class="cls-9" d="M119.57,475.76V466a10.31,10.31,0,0,1,4.61-1.15,4.59,4.59,0,0,1,3.18,1.06,3.79,3.79,0,0,1,1.16,2.93v6.91h-2v-7a2.17,2.17,0,0,0-.48-1.49,2.66,2.66,0,0,0-1.94-.54,8.23,8.23,0,0,0-2.51.39v8.68Z"/><path class="cls-9" d="M131.12,468.09a3,3,0,0,1,.94-2.24,4,4,0,0,1,2.89-.94,6.29,6.29,0,0,1,2.85.71v1.69a6.2,6.2,0,0,0-2.61-.64c-1.42,0-2.12.46-2.12,1.37a.83.83,0,0,0,.56.73,6.06,6.06,0,0,0,1.36.52c.53.15,1.06.34,1.59.54a3.26,3.26,0,0,1,1.36,1.08,3.14,3.14,0,0,1-.4,4.07,4.19,4.19,0,0,1-3,.94,6.53,6.53,0,0,1-3.09-.75v-1.79a6,6,0,0,0,3,.79h0a2.81,2.81,0,0,0,1.55-.37,1.15,1.15,0,0,0,.54-.95,1.29,1.29,0,0,0-.56-1.06,4.64,4.64,0,0,0-1.36-.62c-.54-.15-1.07-.31-1.6-.49a3.13,3.13,0,0,1-1.36-.93A2.42,2.42,0,0,1,131.12,468.09Z"/><path class="cls-2" d="M80.86,450.23A1.63,1.63,0,0,1,80,450l-25-6a1.7,1.7,0,0,1-.84-1.47V400.18A1.72,1.72,0,0,1,55,398.7l25-5.41a1.7,1.7,0,0,1,1.69,0l25,5.41a1.72,1.72,0,0,1,.84,1.48v42.33a1.7,1.7,0,0,1-.84,1.47l-25,6A1.69,1.69,0,0,1,80.86,450.23Z"/><path class="cls-7" d="M80.86,451.36c-.29,0-26.23-6.13-26.23-6.13a1.69,1.69,0,0,1-.86-1.48V398.91a1.7,1.7,0,0,1,.86-1.49s25.94-5.55,26.23-5.55,26.23,5.55,26.23,5.55a1.71,1.71,0,0,1,.87,1.49v44.84a1.69,1.69,0,0,1-.87,1.48S81.16,451.36,80.86,451.36ZM57.2,442.75l23.66,4.91,23.66-4.91V399.9l-23.66-5.13L57.2,399.9Z"/><path class="cls-7" d="M80.86,406.91a1.77,1.77,0,0,1-.87-.23l-25.35-5.34a1.72,1.72,0,1,1,1.66-3l.06,0,24.5,4.83,24.52-4.83a1.69,1.69,0,0,1,2.3.62,1.72,1.72,0,0,1-.62,2.3l-25.35,5.34A1.86,1.86,0,0,1,80.86,406.91Z"/><path class="cls-7" d="M80.86,450.12a1.73,1.73,0,0,1-1.73-1.72V405.77a1.73,1.73,0,1,1,3.45,0h0V448.4a1.71,1.71,0,0,1-1.71,1.72Z"/><path class="cls-9" d="M42.17,353.59a3.88,3.88,0,0,1,1.21-2.85,5.29,5.29,0,0,1,3.77-1.15,8.22,8.22,0,0,1,3.68.86v1.94a6.58,6.58,0,0,0-3.46-.95c-2.15,0-3.23.72-3.23,2.16a1.25,1.25,0,0,0,.57,1,4.38,4.38,0,0,0,1.4.7c.56.17,1.16.39,1.83.66a19.17,19.17,0,0,1,1.83.88,3.78,3.78,0,0,1,1.39,1.36,3.82,3.82,0,0,1,.57,2.08,3.36,3.36,0,0,1-1.37,2.86,6.27,6.27,0,0,1-3.78,1,9.71,9.71,0,0,1-4.24-1v-2a7.74,7.74,0,0,0,4.09,1.16c2.21,0,3.33-.68,3.33-2a2.08,2.08,0,0,0-.57-1.48,3.15,3.15,0,0,0-1.39-.88L46,357.26c-.67-.23-1.28-.46-1.84-.7a3.38,3.38,0,0,1-1.39-1.15A3,3,0,0,1,42.17,353.59Z"/><path class="cls-9" d="M54,358.82q0-5.64,4.71-5.64h0a4.44,4.44,0,0,1,3.45,1.4,5.34,5.34,0,0,1,1.28,3.74,14.15,14.15,0,0,1,0,1.48H56a2.76,2.76,0,0,0,2.78,2.75H59a7.74,7.74,0,0,0,3.69-.81v1.78a9.17,9.17,0,0,1-3.73.7h-.06a5.61,5.61,0,0,1-1.73-.24,5.23,5.23,0,0,1-1.55-.77,3.73,3.73,0,0,1-1.15-1.67A7.42,7.42,0,0,1,54,358.82Zm2-.78h5.47a5,5,0,0,0-.19-1,4.53,4.53,0,0,0-.42-1,1.92,1.92,0,0,0-.83-.79,2.63,2.63,0,0,0-1.29-.3,2.5,2.5,0,0,0-2,.7A4,4,0,0,0,56,358Z"/><path class="cls-9" d="M65.93,364v-9.79a13.89,13.89,0,0,1,5.2-1.07v1.8a12.74,12.74,0,0,0-3.25.45V364Z"/><path class="cls-9" d="M72.8,353.33h2.09l3,8.32,3-8.32h2L78.85,364h-2Z"/><path class="cls-9" d="M85.39,351.68V349.6h2.07v2.06ZM85.45,364V353.33h2V364Z"/><path class="cls-9" d="M91.48,362.76a7.23,7.23,0,0,1,0-8.18,4.67,4.67,0,0,1,3.7-1.42,8.48,8.48,0,0,1,3.15.6v1.86a6.7,6.7,0,0,0-2.94-.71h0a3.39,3.39,0,0,0-2.31.76,4.09,4.09,0,0,0-.83,3,6.85,6.85,0,0,0,.25,2,2.16,2.16,0,0,0,.72,1.15,2.67,2.67,0,0,0,1,.51,4.5,4.5,0,0,0,1.15.12,6.85,6.85,0,0,0,3-.68v1.85a8.68,8.68,0,0,1-3.15.59A4.75,4.75,0,0,1,91.48,362.76Z"/><path class="cls-9" d="M100.24,358.82q0-5.64,4.71-5.64h0a4.46,4.46,0,0,1,3.46,1.4,5.34,5.34,0,0,1,1.28,3.74,11.81,11.81,0,0,1-.06,1.48h-7.37a2.75,2.75,0,0,0,2.77,2.75h.23a7.72,7.72,0,0,0,3.69-.81v1.78a9.15,9.15,0,0,1-3.72.7h-.07a5.61,5.61,0,0,1-1.73-.24,5.06,5.06,0,0,1-1.54-.77,3.67,3.67,0,0,1-1.16-1.67A7.64,7.64,0,0,1,100.24,358.82Zm2-.78h5.47a4.71,4.71,0,0,0-.61-2,1.92,1.92,0,0,0-.83-.79,2.63,2.63,0,0,0-1.29-.3,2.51,2.51,0,0,0-2,.7,4,4,0,0,0-.77,2.37Z"/><path class="cls-9" d="M111.76,356.34a3,3,0,0,1,.95-2.24,3.92,3.92,0,0,1,2.88-.94,6.41,6.41,0,0,1,2.85.7v1.7a6.36,6.36,0,0,0-2.61-.65c-1.41,0-2.12.46-2.12,1.37a.85.85,0,0,0,.56.74,6.81,6.81,0,0,0,1.36.52,16.55,16.55,0,0,1,1.59.54,3.32,3.32,0,0,1,1.36,1.07,3.15,3.15,0,0,1-.4,4.08,4.18,4.18,0,0,1-3,.94,6.42,6.42,0,0,1-3.07-.75v-1.79a6,6,0,0,0,3,.78h0a2.72,2.72,0,0,0,1.55-.36,1.15,1.15,0,0,0,.54-.95,1.22,1.22,0,0,0-.56-1.06,4,4,0,0,0-1.36-.62c-.53-.15-1.07-.31-1.6-.5a3.11,3.11,0,0,1-1.36-.92A2.42,2.42,0,0,1,111.76,356.34Z"/><path class="cls-2" d="M80.41,338.08a1.63,1.63,0,0,1-.84-.23l-25-6a1.68,1.68,0,0,1-.85-1.46V288a1.7,1.7,0,0,1,.85-1.47l25-5.42a1.68,1.68,0,0,1,1.68,0l25,5.42a1.7,1.7,0,0,1,.85,1.47v42.34a1.7,1.7,0,0,1-.85,1.46l-25,6A1.66,1.66,0,0,1,80.41,338.08Z"/><path class="cls-7" d="M80.41,339.23c-.3,0-26.24-6.14-26.24-6.14a1.72,1.72,0,0,1-.85-1.49V286.75a1.71,1.71,0,0,1,.85-1.48s25.94-5.56,26.24-5.56,26.24,5.56,26.24,5.56a1.71,1.71,0,0,1,.86,1.48v44.84a1.73,1.73,0,0,1-.86,1.49S80.71,339.23,80.41,339.23Zm-23.66-8.62,23.66,4.91,23.65-4.91V287.75l-23.65-5.13-23.66,5.13Z"/><path class="cls-7" d="M80.41,294.75a1.73,1.73,0,0,1-.86-.23L54.2,289.19a1.72,1.72,0,0,1,1.66-3l.06,0,24.52,4.84L105,286.21a1.72,1.72,0,1,1,1.78,2.94l-.06,0-25.35,5.33A1.75,1.75,0,0,1,80.41,294.75Z"/><path class="cls-7" d="M80.41,338a1.72,1.72,0,0,1-1.72-1.71V293.61a1.73,1.73,0,0,1,3.46,0v42.64A1.72,1.72,0,0,1,80.43,338Z"/><path class="cls-9" d="M60.06,251.88l5.68-14.26h1.94l5.66,14.26H71.2l-1.52-4h-6l-1.53,4ZM64.44,246H69l-2.3-5.91Z"/><path class="cls-9" d="M75.77,251.88V237.62h5.14a5.34,5.34,0,0,1,3.69,1.15,4.86,4.86,0,0,1,0,6.63,5.34,5.34,0,0,1-3.69,1.15H77.77v5.29Zm2-7h3a3.32,3.32,0,0,0,2.55-.74,3.37,3.37,0,0,0,0-3.95,3.32,3.32,0,0,0-2.55-.74h-3Z"/><path class="cls-9" d="M88.53,251.88V237.62h2v14.26Z"/><path class="cls-9" d="M93.42,244.22a3,3,0,0,1,.94-2.25,4,4,0,0,1,2.88-.93,6.17,6.17,0,0,1,2.86.7v1.7a6.14,6.14,0,0,0-2.62-.65c-1.4,0-2.12.46-2.12,1.37,0,.3.2.54.57.74a6.58,6.58,0,0,0,1.36.52,16.55,16.55,0,0,1,1.59.54,3.32,3.32,0,0,1,1.36,1.07,3.16,3.16,0,0,1-.41,4.08,4.14,4.14,0,0,1-3,.93,6.37,6.37,0,0,1-3.08-.74v-1.79a6,6,0,0,0,2.95.78h0a2.68,2.68,0,0,0,1.56-.37,1.16,1.16,0,0,0,.54-.94,1.25,1.25,0,0,0-.57-1.06,4,4,0,0,0-1.36-.62c-.53-.15-1.07-.31-1.6-.5a3.23,3.23,0,0,1-1.36-.92A2.46,2.46,0,0,1,93.42,244.22Z"/><path class="cls-2" d="M80.63,225.55a1.68,1.68,0,0,1-.85-.22l-25-6a1.72,1.72,0,0,1-.84-1.48V175.5a1.67,1.67,0,0,1,.84-1.47l25-5.42a1.72,1.72,0,0,1,1.7,0l25,5.42a1.68,1.68,0,0,1,.85,1.47v42.39a1.7,1.7,0,0,1-.85,1.47l-25,6A1.68,1.68,0,0,1,80.63,225.55Z"/><path class="cls-7" d="M80.63,226.69c-.29,0-26.23-6.14-26.23-6.14a1.69,1.69,0,0,1-.87-1.48V174.24a1.73,1.73,0,0,1,.87-1.5s25.94-5.55,26.23-5.55,26.23,5.55,26.23,5.55a1.73,1.73,0,0,1,.87,1.5V219a1.7,1.7,0,0,1-.87,1.49S80.92,226.69,80.63,226.69ZM57,218.07,80.63,223l23.66-4.91V175.25l-23.66-5.13L57,175.25Z"/><path class="cls-7" d="M80.63,182.23a2,2,0,0,1-.86-.23l-25.35-5.34a1.72,1.72,0,0,1,1.73-3l24.51,4.84,24.52-4.84a1.71,1.71,0,1,1,1.78,2.93l-.06,0L81.55,182A1.75,1.75,0,0,1,80.63,182.23Z"/><path class="cls-7" d="M80.63,225.44a1.72,1.72,0,0,1-1.72-1.72V181a1.73,1.73,0,1,1,3.46,0h0v42.63a1.73,1.73,0,0,1-1.65,1.79Z"/><path class="cls-9" d="M17.49,139.32V125.06h4.6a6.5,6.5,0,0,1,5,1.82,9.2,9.2,0,0,1,0,10.64,6.52,6.52,0,0,1-5,1.8Zm2-1.76h2.25a5,5,0,0,0,3.82-1.29,7.42,7.42,0,0,0,0-8.16,5,5,0,0,0-3.82-1.3H19.48Z"/><path class="cls-9" d="M30.85,136a2.85,2.85,0,0,1,1.34-2.48,6.63,6.63,0,0,1,3.69-.89,15.64,15.64,0,0,1,1.93.13,2.49,2.49,0,0,0-.74-1.92,3.26,3.26,0,0,0-2.2-.59,9,9,0,0,0-2.95.53v-1.67a9.17,9.17,0,0,1,3.23-.58,4.85,4.85,0,0,1,3.46,1.15A4.37,4.37,0,0,1,39.76,133V136a3.08,3.08,0,0,1-.07.68,3.78,3.78,0,0,1-.32.87,3.22,3.22,0,0,1-.69.94,4,4,0,0,1-1.33.68,7.27,7.27,0,0,1-4.1,0,3.82,3.82,0,0,1-1.34-.7,2.85,2.85,0,0,1-.71-.94,4.27,4.27,0,0,1-.34-.9A5.45,5.45,0,0,1,30.85,136Zm1.95,0c0,1.15.86,1.81,2.57,1.81h0c1.61,0,2.42-.58,2.42-1.74V134.3a14.55,14.55,0,0,0-1.86-.14,5.26,5.26,0,0,0-.89.08,8.26,8.26,0,0,0-1,.24,2.17,2.17,0,0,0-.9.56,1.36,1.36,0,0,0-.33.89Z"/><path class="cls-9" d="M41.33,130.33v-1.68h1.86v-3.16h2v3.16H48v1.68H45.14v6.11c0,.83.53,1.25,1.58,1.25h0a2.4,2.4,0,0,0,1.23-.31v1.76a4,4,0,0,1-1.45.3h-.06a4.57,4.57,0,0,1-.82-.09,4.77,4.77,0,0,1-1-.37,2.31,2.31,0,0,1-1-1,3.31,3.31,0,0,1-.39-1.69v-6.05Z"/><path class="cls-9" d="M50,136a2.81,2.81,0,0,1,1.34-2.48,6.58,6.58,0,0,1,3.68-.89,15.67,15.67,0,0,1,1.94.13,2.58,2.58,0,0,0-.74-1.92,3.31,3.31,0,0,0-2.2-.59,9,9,0,0,0-3,.53v-1.67a9.08,9.08,0,0,1,3.22-.58,4.93,4.93,0,0,1,3.45,1.15A4.4,4.4,0,0,1,58.92,133V136a3.08,3.08,0,0,1-.07.68,3.78,3.78,0,0,1-.32.87,3,3,0,0,1-.7.94,3.86,3.86,0,0,1-1.32.68,6.67,6.67,0,0,1-2,.29,6.59,6.59,0,0,1-2.06-.3,3.7,3.7,0,0,1-1.33-.7,2.88,2.88,0,0,1-.72-.94A3.09,3.09,0,0,1,50,136Zm2,0c0,1.15.85,1.81,2.55,1.81h0c1.62,0,2.42-.58,2.42-1.74V134.3a14.26,14.26,0,0,0-1.85-.14,5.47,5.47,0,0,0-.9.08,8.72,8.72,0,0,0-1,.24,2.08,2.08,0,0,0-.89.56,1.27,1.27,0,0,0-.36.89Z"/><path class="cls-9" d="M68.71,128.91a3.82,3.82,0,0,1,1.15-2.85,5.29,5.29,0,0,1,3.77-1.15,8.21,8.21,0,0,1,3.67.86v1.94a6.58,6.58,0,0,0-3.46-.95c-2.15,0-3.22.72-3.22,2.16a1.24,1.24,0,0,0,.56,1,4.21,4.21,0,0,0,1.41.69c.55.18,1.15.4,1.82.67a17.11,17.11,0,0,1,1.83.88,3.73,3.73,0,0,1,1.4,1.36,3.81,3.81,0,0,1,.56,2.08,3.38,3.38,0,0,1-1.36,2.86,6.28,6.28,0,0,1-3.79,1,9.78,9.78,0,0,1-4.24-1v-2a7.63,7.63,0,0,0,4.07,1.21c2.21,0,3.33-.68,3.33-2a2.08,2.08,0,0,0-.57-1.48,3.26,3.26,0,0,0-1.39-.89l-1.83-.62c-.67-.23-1.28-.46-1.84-.7a3.46,3.46,0,0,1-1.39-1.15A3.05,3.05,0,0,1,68.71,128.91Z"/><path class="cls-9" d="M79.33,130.33v-1.68h1.85v-3.16h2v3.16H86v1.68H83.14v6.11c0,.83.52,1.25,1.57,1.25h0a2.37,2.37,0,0,0,1.25-.31v1.76a4.15,4.15,0,0,1-1.47.3h0a3.91,3.91,0,0,1-.83-.09,5.7,5.7,0,0,1-1-.37,2.32,2.32,0,0,1-1-1,3.32,3.32,0,0,1-.4-1.69v-6.05Z"/><path class="cls-9" d="M88.41,139.32v-9.79a13.85,13.85,0,0,1,5.2-1.07v1.8a12.66,12.66,0,0,0-3.24.45v8.59Z"/><path class="cls-9" d="M95.09,134.14q0-5.64,4.7-5.64h0a4.45,4.45,0,0,1,3.46,1.4,5.34,5.34,0,0,1,1.28,3.74v1.48H97.16a2.75,2.75,0,0,0,2.77,2.75h.23a7.72,7.72,0,0,0,3.69-.81v1.78a9.51,9.51,0,0,1-3.73.7h0a5.67,5.67,0,0,1-1.74-.24,5.23,5.23,0,0,1-1.55-.77,3.73,3.73,0,0,1-1.15-1.67A7.25,7.25,0,0,1,95.09,134.14Zm2-.78h5.53a5.73,5.73,0,0,0-.18-1,5.11,5.11,0,0,0-.43-1,2,2,0,0,0-.83-.79,2.67,2.67,0,0,0-1.3-.3,2.48,2.48,0,0,0-2,.7,4,4,0,0,0-.82,2.37Z"/><path class="cls-9" d="M106.48,136a2.82,2.82,0,0,1,1.33-2.48,6.72,6.72,0,0,1,3.69-.89,16,16,0,0,1,2,.13,2.58,2.58,0,0,0-.74-1.92,3.31,3.31,0,0,0-2.2-.59,9,9,0,0,0-3,.53v-1.67a9.09,9.09,0,0,1,3.23-.58,4.84,4.84,0,0,1,3.45,1.15,4.36,4.36,0,0,1,1.22,3.32V136a2.85,2.85,0,0,1-.4,1.55,2.79,2.79,0,0,1-.69.94,3.81,3.81,0,0,1-1.33.68,7.24,7.24,0,0,1-4.09,0,3.74,3.74,0,0,1-1.34-.7,3,3,0,0,1-.72-.94,3.58,3.58,0,0,1-.32-.9A3.34,3.34,0,0,1,106.48,136Zm2,0c0,1.15.85,1.81,2.55,1.81h0c1.62,0,2.42-.58,2.42-1.74V134.3a14.26,14.26,0,0,0-1.85-.14,5.47,5.47,0,0,0-.9.08,8.72,8.72,0,0,0-1,.24,2.17,2.17,0,0,0-.9.56,1.31,1.31,0,0,0-.31.89Z"/><path class="cls-9" d="M118.23,139.32v-9.79a9.82,9.82,0,0,1,4.44-1.07,4.77,4.77,0,0,1,2.84.8,10.8,10.8,0,0,1,3.92-.8,4.46,4.46,0,0,1,3.11,1.07,3.86,3.86,0,0,1,1.16,2.94v6.91h-2v-7a2.41,2.41,0,0,0-.45-1.49,2.14,2.14,0,0,0-1.75-.56,7.24,7.24,0,0,0-2.87.6,4.33,4.33,0,0,1,.25,1.52v6.91h-2v-7a2.09,2.09,0,0,0-.49-1.48,2.65,2.65,0,0,0-2-.54,9,9,0,0,0-2.3.32v8.68Z"/><path class="cls-9" d="M136.44,131.66a3.07,3.07,0,0,1,.94-2.25,4,4,0,0,1,2.89-.93,6.38,6.38,0,0,1,2.85.7v1.7a6.36,6.36,0,0,0-2.6-.65c-1.42,0-2.12.46-2.12,1.37a.84.84,0,0,0,.56.74,6,6,0,0,0,1.35.52,16.55,16.55,0,0,1,1.59.54,3.32,3.32,0,0,1,1.36,1.07,3.14,3.14,0,0,1-.39,4.08,4.21,4.21,0,0,1-3,.94,6.49,6.49,0,0,1-3.08-.75V137a5.85,5.85,0,0,0,3,.78h0a2.76,2.76,0,0,0,1.57-.36,1.18,1.18,0,0,0,.53-1,1.26,1.26,0,0,0-.55-1.06,4.64,4.64,0,0,0-1.36-.62c-.54-.15-1.07-.31-1.6-.5a3,3,0,0,1-1.36-.92A2.38,2.38,0,0,1,136.44,131.66Z"/><path class="cls-2" d="M80.16,112.59a1.62,1.62,0,0,1-.84-.22l-25-6a1.72,1.72,0,0,1-.84-1.48V62.54a1.69,1.69,0,0,1,.84-1.47l25-5.41a1.65,1.65,0,0,1,1.69,0l25,5.41a1.68,1.68,0,0,1,.85,1.47v42.33a1.71,1.71,0,0,1-.85,1.48l-25,6A1.68,1.68,0,0,1,80.16,112.59Z"/><path class="cls-7" d="M80.16,113.73c-.3,0-26.24-6.14-26.24-6.14a1.71,1.71,0,0,1-.85-1.49V61.28a1.7,1.7,0,0,1,.85-1.49s25.94-5.55,26.24-5.55,26.24,5.55,26.24,5.55a1.72,1.72,0,0,1,.86,1.49V106.1a1.72,1.72,0,0,1-.86,1.49S80.46,113.73,80.16,113.73Zm-23.67-8.62L80.15,110l23.65-4.92V62.27L80.15,57.13,56.49,62.27Z"/><path class="cls-7" d="M80.16,69.26a1.69,1.69,0,0,1-.85-.23L54,63.7a1.71,1.71,0,0,1,1.71-3l24.52,4.84,24.52-4.84a1.71,1.71,0,1,1,1.78,2.93l-.06,0L81.08,69A1.75,1.75,0,0,1,80.16,69.26Z"/><path class="cls-7" d="M80.16,112.48a1.72,1.72,0,0,1-1.72-1.72V68.12a1.73,1.73,0,0,1,3.46,0v42.64a1.71,1.71,0,0,1-1.69,1.72Z"/></g></g></svg>