<svg xmlns="http://www.w3.org/2000/svg" width="501.952" height="380" viewBox="0 0 501.952 380"><defs><style>.a{fill:#777;}.b{fill:#efeeed;}.c{fill:#020202;}.d,.h,.i,.j,.k{fill:#1d1d1b;}.e{fill:#fff;}.f{fill:#e5282a;}.g,.h,.i,.j{isolation:isolate;}.h,.i{font-size:7px;}.h,.i,.j{font-family:MavenPro-Regular, Maven Pro;}.i,.j{letter-spacing:-0.01em;}.j{font-size:6px;}.k{font-size:17px;font-family:MavenPro-Medium, Maven Pro;font-weight:500;}</style></defs><g transform="translate(-31.62 -69.328)"><path class="a" d="M499.455,315.241v33.951a2.375,2.375,0,0,1-4.709,0V315.241a2.375,2.375,0,1,1,4.709,0Z" transform="translate(-188.089 -121.37)"/><path class="a" d="M429.42,370.28h40.043a2.375,2.375,0,0,1,0,4.709H429.42a2.375,2.375,0,0,1,0-4.709Z" transform="translate(-160.728 -144.816)"/><path class="a" d="M502.015,323.5a2.374,2.374,0,0,0-.594-1.532l-8.635-10.1a2.376,2.376,0,0,0-3.353-.21,2.418,2.418,0,0,0-.21.21l-8.635,10.1a2.375,2.375,0,1,0,3.563,3.064L491,317.019l6.847,8.011A2.375,2.375,0,0,0,502,323.5Z" transform="translate(-182.014 -120.766)"/><path class="a" d="M431.565,372.411v24.752a2.375,2.375,0,1,1-4.709,0V372.411a2.375,2.375,0,1,1,4.709,0Z" transform="translate(-160.515 -144.589)"/><path class="a" d="M390.3,440.35l24-24.009a2.375,2.375,0,0,0-3.326-3.326l-24.009,24a2.375,2.375,0,1,0,3.331,3.331Z" transform="translate(-143.948 -161.98)"/><path class="a" d="M402.2,448.206a2.376,2.376,0,0,1-1.485.683l-13.231,1.027a2.375,2.375,0,0,1-2.53-2.53l1.033-13.249a2.375,2.375,0,0,1,4.7.362L389.868,445l10.505-.82a2.376,2.376,0,0,1,1.847,4.014Z" transform="translate(-143.505 -169.984)"/><path class="a" d="M187.986,315.241v33.951a2.375,2.375,0,0,0,4.709,0V315.241a2.375,2.375,0,1,0-4.709,0Z" transform="translate(-63.499 -121.37)"/><path class="a" d="M230.644,370.266H190.6a2.375,2.375,0,1,0,0,4.709h40.043a2.375,2.375,0,0,0,0-4.709Z" transform="translate(-63.477 -144.802)"/><path class="a" d="M173.47,323.5a2.375,2.375,0,0,1,.564-1.532l8.635-10.1a2.376,2.376,0,0,1,3.353-.21,2.429,2.429,0,0,1,.21.21l8.635,10.1a2.375,2.375,0,0,1-3.563,3.064l-6.829-8.023-6.847,8.011a2.375,2.375,0,0,1-4.157-1.532Z" transform="translate(-57.612 -120.766)"/><path class="a" d="M255.886,372.411v24.752a2.375,2.375,0,1,0,4.709,0V372.411a2.375,2.375,0,1,0-4.709,0Z" transform="translate(-91.076 -144.589)"/><path class="a" d="M280.739,440.343,256.73,416.334a2.375,2.375,0,0,1,3.332-3.326l24.009,24a2.375,2.375,0,0,1-3.332,3.331Z" transform="translate(-91.232 -161.973)"/><path class="a" d="M276.223,447.778a2.376,2.376,0,0,0,1.485.683l13.249,1.027a2.375,2.375,0,0,0,2.53-2.53l-1.033-13.243a2.375,2.375,0,1,0-4.691.362l.819,10.505-10.505-.82a2.376,2.376,0,0,0-1.847,4.014Z" transform="translate(-99.08 -169.556)"/><rect class="b" width="372.613" height="130.267" rx="9.73" transform="translate(31.62 69.328)"/><rect class="c" width="298.535" height="100.165" transform="translate(91.267 85.63)"/><path class="a" d="M64.592,179.891a14.757,14.757,0,0,0,19.437-4.525,1.14,1.14,0,0,0-.312-1.582c-.024-.016-.049-.031-.074-.045h0a1.134,1.134,0,0,0-1.491.35,12.471,12.471,0,1,1-5.939-18.677l-3.7,2.488a1.134,1.134,0,0,0-.3,1.574h0a1.128,1.128,0,0,0,1.564.315l.01-.007,5.345-3.611a1.105,1.105,0,0,0,.356-.386,1.128,1.128,0,0,0,.065-.98l-2.28-5.683a1.134,1.134,0,0,0-1.473-.629h0a1.134,1.134,0,0,0-.582,1.455l1.247,3.112a14.734,14.734,0,0,0-11.877,26.812Z" transform="translate(-10.352 -54.706)"/><path class="d" d="M76.59,174.475V172.89l1.782-1.01h1.645v10.867H78.49v-9.389Z" transform="translate(-18.264 -64.236)"/><path class="e" d="M171.65,175.417c0-3.13,2.375-4.917,5.2-4.917a4.749,4.749,0,0,1,3.4,1.366l-.79,1.015a3.842,3.842,0,0,0-2.554-1.057,3.426,3.426,0,0,0-3.627,3.214,3.779,3.779,0,0,0,3.195,3.942,3.42,3.42,0,0,0,.366,0,4.429,4.429,0,0,0,2.88-1.188l.713,1.039a5.545,5.545,0,0,1-3.706,1.455C173.841,180.3,171.65,178.517,171.65,175.417Z" transform="translate(-56.873 -63.676)"/><path class="e" d="M191,176.692v-5.8h1.6v5.588c0,1.746.594,2.6,2.15,2.6,1.075,0,1.859-.5,2.9-1.71V170.89h1.592v9.335h-1.324l-.131-1.633H197.7a4.552,4.552,0,0,1-3.48,1.859C191.992,180.457,191,179.145,191,176.692Z" transform="translate(-64.732 -63.834)"/><path class="e" d="M210.16,178.838l.73-1.057a6.664,6.664,0,0,0,4.05,1.265c1.574,0,2.34-.653,2.34-1.437s-.362-1.188-2.9-1.728c-2.441-.5-3.646-1.33-3.646-2.732,0-1.5,1.324-2.649,3.878-2.649a7.014,7.014,0,0,1,3.765,1.188l-.772,1.016a5.5,5.5,0,0,0-3.13-.98c-1.574,0-2.15.635-2.15,1.348s.808,1.152,2.726,1.55c3.094.677,3.842,1.443,3.842,2.886s-1.479,2.779-4.157,2.779A8.2,8.2,0,0,1,210.16,178.838Z" transform="translate(-72.514 -63.676)"/><path class="e" d="M232.109,174.564v-4.412H229.46v-1.188l2.708-.1.208-2.969h1.33v2.969h4.567v1.289h-4.567v4.436c0,1.669.552,2.53,2.375,2.53a6.121,6.121,0,0,0,2.227-.422l.35,1.188a8.314,8.314,0,0,1-2.94.54C232.993,178.43,232.109,176.868,232.109,174.564Z" transform="translate(-80.352 -61.808)"/><path class="e" d="M248.6,175.417a4.616,4.616,0,1,1,4.608,4.881A4.574,4.574,0,0,1,248.6,175.417Zm7.583,0c0-2.15-1.188-3.593-2.969-3.593s-2.969,1.443-2.969,3.593,1.188,3.563,2.969,3.563S256.183,177.549,256.183,175.417Z" transform="translate(-88.126 -63.676)"/><path class="e" d="M267.94,170.732H269.2l.137,1.229h.036a2.316,2.316,0,0,1,2.132-1.461c.92,0,1.5.54,1.782,1.615.54-1,1.116-1.615,2.191-1.615,1.306,0,2.073,1.021,2.073,2.88v6.687h-1.574V173.5c0-1.075-.309-1.633-1-1.633s-1,.481-1.5,1.437v6.764h-1.461V173.5c0-1.075-.267-1.633-.962-1.633s-1.075.481-1.532,1.437v6.764h-1.574Z" transform="translate(-95.981 -63.676)"/><path class="e" d="M290.957,166.756H286.8V165.39h9.947v1.366H292.59v11.236h-1.633Z" transform="translate(-103.641 -61.6)"/><path class="e" d="M307.44,177.624c0-2.09,1.96-3.112,6.782-3.492a2.237,2.237,0,0,0-2.476-2.375,6.47,6.47,0,0,0-3.266,1.116l-.635-1.075A8.161,8.161,0,0,1,312,170.45c2.554,0,3.8,1.52,3.8,3.842v5.725h-1.324l-.137-1.271H314.3a6.281,6.281,0,0,1-3.67,1.5C308.883,180.278,307.44,179.292,307.44,177.624Zm6.782,0V175.2c-4,.309-5.208,1.1-5.208,2.328,0,1.057.962,1.479,2.037,1.479a5.084,5.084,0,0,0,3.171-1.4Z" transform="translate(-112.024 -63.656)"/><path class="e" d="M326.55,178.838l.73-1.057a6.674,6.674,0,0,0,4.05,1.265c1.58,0,2.346-.653,2.346-1.437s-.368-1.188-2.9-1.728-3.652-1.33-3.652-2.732c0-1.5,1.324-2.649,3.878-2.649a6.976,6.976,0,0,1,3.765,1.188L334,172.7a5.528,5.528,0,0,0-3.13-.98c-1.574,0-2.15.635-2.15,1.348s.8,1.152,2.726,1.55c3.088.677,3.836,1.443,3.836,2.886s-1.473,2.779-4.157,2.779A8.236,8.236,0,0,1,326.55,178.838Z" transform="translate(-119.785 -63.676)"/><path class="e" d="M347.05,163.58h1.592v9.24h.077l5.012-4.9h1.823l-6.912,6.8v2.536H347.05Zm3.593,8.718.956-1.033,4.46,5.992h-1.782Z" transform="translate(-128.111 -60.865)"/><path class="e" d="M370.138,183.229a1.548,1.548,0,1,1,0,.091C370.136,183.29,370.137,183.259,370.138,183.229Z" transform="translate(-137.488 -68.245)"/><path class="e" d="M387.136,170.73h1.324l.154,2.209h.042a4.911,4.911,0,0,1,4.157-2.441,3.9,3.9,0,0,1,1.847.386l-.368,1.366a4.633,4.633,0,0,0-1.728-.309c-1.4,0-2.726.707-3.836,2.666v5.457h-1.6Z" transform="translate(-144.39 -63.674)"/><path class="e" d="M404.34,176.692v-5.8h1.58v5.588c0,1.746.594,2.6,2.15,2.6,1.075,0,1.865-.5,2.9-1.71V170.89h1.6v9.335h-1.3l-.131-1.633h-.077a4.637,4.637,0,0,1-3.486,1.865C405.361,180.457,404.34,179.145,404.34,176.692Z" transform="translate(-151.379 -63.834)"/><path class="e" d="M424.26,170.748h1.306l.131,1.574h.077a4.82,4.82,0,0,1,3.516-1.782c2.209,0,3.225,1.306,3.225,3.765v5.8h-1.592V174.5c0-1.782-.594-2.6-2.132-2.6-1.116,0-1.865.558-2.94,1.669V180.1H424.26Z" transform="translate(-159.47 -63.692)"/><path class="e" d="M447.379,171.658a10.69,10.69,0,0,1,4.3-8.718l.885.8a10.2,10.2,0,0,0,0,15.826l-.885.808A10.69,10.69,0,0,1,447.379,171.658Z" transform="translate(-168.859 -60.605)"/><path class="e" d="M467.129,183.229a1.559,1.559,0,1,1,0,.079C467.127,183.281,467.128,183.255,467.129,183.229Z" transform="translate(-176.88 -68.245)"/><path class="e" d="M486.529,183.229a1.558,1.558,0,1,1,0,.079C486.527,183.281,486.528,183.255,486.529,183.229Z" transform="translate(-184.76 -68.245)"/><path class="e" d="M505.928,183.229a1.548,1.548,0,1,1,0,.091C505.926,183.29,505.927,183.259,505.928,183.229Z" transform="translate(-192.638 -68.245)"/><path class="e" d="M522.19,179.568a10.2,10.2,0,0,0,0-15.826l.885-.8a10.986,10.986,0,0,1,0,17.436Z" transform="translate(-199.244 -60.605)"/><path class="a" d="M64.542,264.082a14.764,14.764,0,0,0,19.437-4.519,1.134,1.134,0,0,0-.309-1.574c-.025-.017-.05-.033-.077-.048h0a1.128,1.128,0,0,0-1.491.35,12.471,12.471,0,1,1-5.939-18.677l-3.7,2.488a1.128,1.128,0,0,0-.3,1.567h0a1.134,1.134,0,0,0,1.574.3l5.345-3.611a1.087,1.087,0,0,0,.356-.38A1.134,1.134,0,0,0,79.5,239l-2.28-5.683a1.134,1.134,0,0,0-1.473-.635h0a1.14,1.14,0,0,0-.629,1.479l1.247,3.106a14.733,14.733,0,0,0-11.877,26.818Z" transform="translate(-10.302 -88.9)"/><path class="d" d="M76.07,266.323v-1.5a5.271,5.271,0,0,0,2.66.736q2.69,0,2.69-1.918t-2.85-1.912h-.944v-1.336h.915q2.34,0,2.375-1.586c0-1.063-.778-1.592-2.322-1.592h0a4.523,4.523,0,0,0-2.215.552v-1.449a5.489,5.489,0,0,1,2.375-.517h.036a3.836,3.836,0,0,1,2.791.879,2.858,2.858,0,0,1,.9,2.126,2.375,2.375,0,0,1-1.295,2.173,2.744,2.744,0,0,1,1.758,2.655,3.274,3.274,0,0,1-.22,1.188,3.312,3.312,0,0,1-.689,1.051,3.231,3.231,0,0,1-1.283.772,5.939,5.939,0,0,1-1.894.279A6.664,6.664,0,0,1,76.07,266.323Z" transform="translate(-18.053 -98.315)"/><path class="e" d="M171.65,258.347c0-3.13,2.375-4.917,5.2-4.917a4.749,4.749,0,0,1,3.4,1.366l-.79,1.015a3.842,3.842,0,0,0-2.554-1.057,3.427,3.427,0,0,0-3.625,3.216q-.01.174,0,.347a3.385,3.385,0,0,0,3.2,3.563,3.428,3.428,0,0,0,.366,0,4.429,4.429,0,0,0,2.88-1.188l.713,1.033a5.528,5.528,0,0,1-3.706,1.461C173.841,263.222,171.65,261.435,171.65,258.347Z" transform="translate(-56.873 -97.357)"/><path class="e" d="M191,259.616v-5.8h1.592v5.588c0,1.746.594,2.589,2.156,2.589,1.075,0,1.859-.5,2.9-1.71V253.82h1.592v9.329h-1.324l-.131-1.633H197.7a4.54,4.54,0,0,1-3.48,1.865C191.992,263.381,191,262.075,191,259.616Z" transform="translate(-64.732 -97.516)"/><path class="e" d="M210.16,261.762l.73-1.057a6.625,6.625,0,0,0,4.05,1.271c1.574,0,2.34-.653,2.34-1.443s-.362-1.188-2.9-1.728c-2.441-.5-3.646-1.324-3.646-2.726,0-1.5,1.324-2.649,3.878-2.649a7.058,7.058,0,0,1,3.765,1.188l-.772,1.021a5.5,5.5,0,0,0-3.13-.98c-1.574,0-2.15.635-2.15,1.342,0,.808.808,1.152,2.726,1.556,3.094.671,3.842,1.443,3.842,2.88s-1.479,2.785-4.157,2.785A8.16,8.16,0,0,1,210.16,261.762Z" transform="translate(-72.514 -97.358)"/><path class="e" d="M232.109,257.5v-4.406H229.46V251.9l2.708-.1.208-2.969H233.7v2.969h4.573v1.283H233.7v4.436c0,1.675.558,2.536,2.375,2.536a6.122,6.122,0,0,0,2.227-.422l.344,1.188a8.087,8.087,0,0,1-2.916.558C232.993,261.358,232.109,259.8,232.109,257.5Z" transform="translate(-80.352 -95.494)"/><path class="e" d="M248.6,258.347a4.616,4.616,0,1,1,4.608,4.876A4.574,4.574,0,0,1,248.6,258.347Zm7.583,0c0-2.15-1.188-3.563-2.969-3.563s-2.969,1.443-2.969,3.563,1.188,3.563,2.969,3.563S256.183,260.479,256.183,258.347Z" transform="translate(-88.126 -97.358)"/><path class="e" d="M267.93,253.662H269.2l.131,1.229h.042a2.316,2.316,0,0,1,2.132-1.461c.92,0,1.5.534,1.782,1.615.54-1,1.116-1.615,2.191-1.615,1.306,0,2.073,1.016,2.073,2.88v6.681h-1.574v-6.568c0-1.075-.309-1.627-1-1.627s-1,.475-1.5,1.437v6.758h-1.461v-6.568c0-1.075-.267-1.627-.962-1.627s-1.075.475-1.532,1.437v6.758h-1.58Z" transform="translate(-95.977 -97.358)"/><path class="e" d="M290.957,249.686H286.8V248.32h9.947v1.366H292.59v11.23h-1.633Z" transform="translate(-103.641 -95.282)"/><path class="e" d="M307.44,260.574c0-2.1,1.96-3.112,6.782-3.5a2.214,2.214,0,0,0-2.476-2.34,6.531,6.531,0,0,0-3.266,1.111l-.635-1.075A8.218,8.218,0,0,1,312,253.43c2.554,0,3.8,1.514,3.8,3.842v5.719h-1.324l-.137-1.265H314.3a6.28,6.28,0,0,1-3.67,1.5C308.883,263.223,307.44,262.243,307.44,260.574Zm6.782,0v-2.423c-4,.309-5.208,1.093-5.208,2.322,0,1.057.962,1.479,2.037,1.479a5.106,5.106,0,0,0,3.171-1.4Z" transform="translate(-112.024 -97.358)"/><path class="e" d="M326.55,261.762l.73-1.057a6.642,6.642,0,0,0,4.05,1.271c1.574,0,2.346-.653,2.346-1.443s-.368-1.188-2.9-1.728-3.652-1.324-3.652-2.726c0-1.5,1.324-2.649,3.878-2.649a7.026,7.026,0,0,1,3.765,1.188L334,255.639a5.528,5.528,0,0,0-3.13-.98c-1.574,0-2.15.635-2.15,1.342,0,.808.8,1.152,2.726,1.556,3.088.671,3.836,1.443,3.836,2.88s-1.479,2.785-4.157,2.785A8.2,8.2,0,0,1,326.55,261.762Z" transform="translate(-119.785 -97.358)"/><path class="e" d="M347.05,246.51h1.592v9.234h.077l5.012-4.893h1.823l-6.912,6.794v2.536H347.05Zm3.593,8.718.956-1.039,4.46,5.992h-1.782Z" transform="translate(-128.111 -94.547)"/><path class="e" d="M370.139,266.159a1.557,1.557,0,1,1,0,.073Q370.137,266.2,370.139,266.159Z" transform="translate(-137.488 -101.927)"/><path class="e" d="M387.136,253.66h1.324l.154,2.209h.042a4.911,4.911,0,0,1,4.157-2.441,3.9,3.9,0,0,1,1.847.386l-.368,1.36a4.745,4.745,0,0,0-1.728-.309c-1.4,0-2.726.713-3.836,2.672v5.452h-1.6Z" transform="translate(-144.39 -97.356)"/><path class="e" d="M404.047,258.305a4.691,4.691,0,0,1,4.5-4.873c.083,0,.165,0,.248,0a4.013,4.013,0,0,1,4.264,4.377,6.871,6.871,0,0,1-.077.962H405.1v-1.229h6.954l-.4.439c0-2.209-1.1-3.3-2.8-3.3a3.3,3.3,0,0,0-3.231,3.628,3.388,3.388,0,0,0,3.652,3.652,5.107,5.107,0,0,0,2.839-.885l.594,1.039a6.4,6.4,0,0,1-3.611,1.11A4.73,4.73,0,0,1,404.047,258.305Z" transform="translate(-151.259 -97.357)"/><path class="e" d="M423.19,255.537c0-3.035,2.019-4.917,4.228-4.917a4.009,4.009,0,0,1,2.8,1.188h.036l-.077-1.7V246.51h1.6v13.659h-1.306l-.137-1.229h-.059a4.471,4.471,0,0,1-3.052,1.461C424.805,260.412,423.19,258.678,423.19,255.537Zm7.013,2.15v-4.65a3.472,3.472,0,0,0-2.435-1.075c-1.615,0-2.922,1.425-2.922,3.563,0,2.227,1.039,3.563,2.744,3.563A3.522,3.522,0,0,0,430.2,257.686Z" transform="translate(-159.035 -94.547)"/><path class="e" d="M443.14,259.616v-5.8h1.592v5.588c0,1.746.594,2.589,2.156,2.589,1.075,0,1.859-.5,2.9-1.71V253.82h1.586v9.329h-1.324l-.131-1.633h-.077a4.54,4.54,0,0,1-3.48,1.865C444.156,263.381,443.14,262.075,443.14,259.616Z" transform="translate(-167.138 -97.516)"/><path class="e" d="M462.64,258.347c0-3.13,2.375-4.917,5.2-4.917a4.715,4.715,0,0,1,3.4,1.366l-.784,1.015a3.855,3.855,0,0,0-2.554-1.057,3.427,3.427,0,0,0-3.625,3.216c-.007.116-.008.232,0,.347a3.385,3.385,0,0,0,3.2,3.563,3.43,3.43,0,0,0,.366,0,4.428,4.428,0,0,0,2.88-1.188l.713,1.033a5.535,5.535,0,0,1-3.706,1.461C464.825,263.222,462.64,261.435,462.64,258.347Z" transform="translate(-175.058 -97.357)"/><path class="e" d="M481.647,258.305a4.685,4.685,0,0,1,4.491-4.872c.086,0,.173,0,.259,0a4.016,4.016,0,0,1,4.264,4.377,6.854,6.854,0,0,1-.077.962H482.7v-1.229h6.948l-.4.439c0-2.209-1.093-3.3-2.8-3.3a3.3,3.3,0,0,0-3.225,3.628,3.387,3.387,0,0,0,3.646,3.652,5.108,5.108,0,0,0,2.845-.885l.594,1.039a6.418,6.418,0,0,1-3.611,1.111A4.73,4.73,0,0,1,481.647,258.305Z" transform="translate(-182.776 -97.357)"/><path class="e" d="M505.569,254.578a10.69,10.69,0,0,1,4.305-8.718l.879.808a10.208,10.208,0,0,0,0,15.826l-.879.8A10.69,10.69,0,0,1,505.569,254.578Z" transform="translate(-192.493 -94.283)"/><path class="e" d="M525.329,266.159a1.559,1.559,0,1,1,0,.079C525.327,266.211,525.328,266.185,525.329,266.159Z" transform="translate(-200.518 -101.927)"/><path class="e" d="M544.729,266.159a1.559,1.559,0,1,1,0,.079C544.727,266.211,544.728,266.185,544.729,266.159Z" transform="translate(-208.397 -101.927)"/><path class="e" d="M564.129,266.159a1.559,1.559,0,1,1,0,.079C564.127,266.211,564.128,266.185,564.129,266.159Z" transform="translate(-216.277 -101.927)"/><path class="e" d="M580.39,262.494a10.2,10.2,0,0,0,0-15.826l.885-.808a10.986,10.986,0,0,1,0,17.436Z" transform="translate(-222.882 -94.283)"/><path class="f" d="M405.947,679.72s-2.322,3.527,2.251,4.24c.445.059,3.759.4,4.614,1.49,0,0-.083-1.876-2.773-2.969S406.25,681.074,405.947,679.72Z" transform="translate(-151.793 -270.494)"/><path class="f" d="M408.106,666.94s-6.532,3.973-.374,7.916c1.188.766,5.458,2.91,5.345,4.875,0,0,2.589-3.842-1.188-6.253C408.005,671,407,668.371,408.106,666.94Z" transform="translate(-151.684 -265.304)"/><path class="f" d="M417.316,668.647c-2.791-2.922-3.563-4.751-2.375-7.067,0,0-8.314,3.207-.107,8.908,2.969,2.037,2.453,4.115,2.453,4.193A4.1,4.1,0,0,0,417.316,668.647Z" transform="translate(-154.171 -263.127)"/><g class="g" transform="translate(268.822 401.399)"><text class="h" transform="translate(0 7)"><tspan x="0" y="0">N</tspan></text><text class="i" transform="translate(8.148 7)"><tspan x="0" y="0">O</tspan></text><text class="j" transform="translate(16.295 6)"><tspan x="0" y="0">D</tspan></text><text class="h" transform="translate(23.671 7)"><tspan x="0" y="0">E</tspan></text></g><path class="e" d="M420.6,487.68c-16.384,0-33.339,3.718-33.339,9.935v79.8a3.694,3.694,0,0,0,.713,2.144,6.412,6.412,0,0,0,.808.944c4.24,4.092,17.032,6.847,31.819,6.847s27.6-2.755,31.83-6.841a6.125,6.125,0,0,0,.82-.95,3.738,3.738,0,0,0,.713-2.144v-79.8C453.961,491.4,436.989,487.68,420.6,487.68Z" transform="translate(-144.442 -192.498)"/><path class="f" d="M443.062,488.613a100.122,100.122,0,0,0-45.7,0c-7.245,1.966-11.069,4.751-11.069,8.07V576.96a4.557,4.557,0,0,0,.861,2.625,6.74,6.74,0,0,0,.921,1.063c4.347,4.2,17.263,7.025,32.133,7.025s27.8-2.821,32.157-7.025a6.991,6.991,0,0,0,.915-1.063,4.521,4.521,0,0,0,.867-2.625V496.677C454.144,493.369,450.313,490.578,443.062,488.613Zm7.72,89.22a4.069,4.069,0,0,1-.523.594c-3.712,3.563-16.349,6.182-30.055,6.182s-26.32-2.6-30.031-6.182a4.042,4.042,0,0,1-.529-.594,1.583,1.583,0,0,1-.309-.873V501.428a16.987,16.987,0,0,0,2.263,1.289h.036c.416.2.849.392,1.3.594l.113.048c.439.178.9.35,1.372.523l.172.059,1.247.41.392.119q.594.184,1.247.356l.594.154c.4.1.825.208,1.247.3l.73.166c.41.1.825.178,1.247.267l.831.16,1,.178,1.152.19c.309.053.594.1.938.143l1.229.172,1.069.137.968.113,1.449.143.736.071,1.782.137.635.042,1.93.1h.481c.7.03,1.407.053,2.126.065h5.321c.713,0,1.419-.036,2.12-.065h.487l1.924-.1.635-.047c.594-.036,1.188-.083,1.782-.131l.748-.071q.713-.06,1.407-.143l1.009-.113,1.051-.137,1.253-.172c.309-.047.594-.089.921-.143l1.188-.19.992-.178.837-.16,1.247-.267.725-.166c.428-.1.849-.2,1.259-.309l.552-.148c.445-.119.879-.243,1.306-.368l.315-.1c.451-.137.885-.279,1.307-.428l.131-.047q.742-.261,1.407-.535l.077-.03c.469-.19.909-.386,1.33-.594h0a17.232,17.232,0,0,0,2.28-1.295V576.96a1.541,1.541,0,0,1-.451.873ZM420.2,489.016c19.14,0,30.88,4.466,30.88,7.667a1.641,1.641,0,0,1-.315.885c-1.342,1.978-6.129,4-13.2,5.309h-.059l-.8.143-.837.137h0a99.023,99.023,0,0,1-13.029,1.146h-5.256a98.681,98.681,0,0,1-13-1.146h-.065l-.79-.131-.849-.154h0c-7.061-1.318-11.847-3.331-13.2-5.309a1.676,1.676,0,0,1-.315-.891C389.336,493.482,401.083,489.016,420.2,489.016Z" transform="translate(-144.048 -191.803)"/><path class="a" d="M425.82,585.894a16.9,16.9,0,0,0,22.264-5.184,1.294,1.294,0,0,0-.338-1.8c-.031-.021-.063-.041-.1-.059h0a1.3,1.3,0,0,0-1.716.4,14.252,14.252,0,1,1-6.77-21.379l-4.234,2.851a1.3,1.3,0,0,0-.35,1.781h0a1.306,1.306,0,0,0,1.782.35l6.146-4.157a1.248,1.248,0,0,0,.4-.439,1.3,1.3,0,0,0,.077-1.122l-2.613-6.532a1.3,1.3,0,0,0-1.663-.665h0a1.3,1.3,0,0,0-.726,1.69v0l1.431,3.563a16.877,16.877,0,0,0-13.6,30.72Z" transform="translate(-156.617 -217.746)"/><path class="d" d="M436.72,589.07v-1.3c.671-.517,1.324-1.057,1.948-1.627s1.265-1.188,1.918-1.912a10.5,10.5,0,0,0,1.568-2.15,4.237,4.237,0,0,0,.594-1.972q0-2.019-2.761-2.019a5.343,5.343,0,0,0-3.064.938v-1.645a6.468,6.468,0,0,1,3.3-.9,4.3,4.3,0,0,1,3.2,1.063,3.561,3.561,0,0,1,1.033,2.56q0,3.183-4.751,7.352h4.905v1.627Z" transform="translate(-164.531 -228.564)"/><path class="f" d="M209.815,680.32s-2.328,3.522,2.245,4.24c.445.059,3.759.4,4.614,1.485,0,0-.077-1.871-2.767-2.969S210.112,681.692,209.815,680.32Z" transform="translate(-72.133 -270.738)"/><path class="f" d="M211.936,667.54s-6.532,3.967-.374,7.916c1.188.766,5.458,2.91,5.345,4.875,0,0,2.6-3.842-1.188-6.253C211.824,671.6,210.85,668.965,211.936,667.54Z" transform="translate(-72.01 -265.548)"/><path class="f" d="M221.176,669.247c-2.785-2.922-3.563-4.751-2.375-7.067,0,0-8.314,3.207-.107,8.908,2.969,2.037,2.453,4.115,2.453,4.187A4.107,4.107,0,0,0,221.176,669.247Z" transform="translate(-74.509 -263.371)"/><g class="g" transform="translate(152.344 401.755)"><text class="h" transform="translate(0 7)"><tspan x="0" y="0">N</tspan></text><text class="i" transform="translate(8.148 7)"><tspan x="0" y="0">O</tspan></text><text class="j" transform="translate(16.295 6)"><tspan x="0" y="0">D</tspan></text><text class="h" transform="translate(23.671 7)"><tspan x="0" y="0">E</tspan></text></g><path class="e" d="M224.465,488.28c-16.39,0-33.345,3.717-33.345,9.935v79.8a3.693,3.693,0,0,0,.713,2.144,6.047,6.047,0,0,0,.808.938c4.246,4.1,17.032,6.853,31.825,6.853s27.59-2.755,31.825-6.841a5.944,5.944,0,0,0,.82-.956,3.666,3.666,0,0,0,.713-2.138V498.209C257.822,492,240.861,488.28,224.465,488.28Z" transform="translate(-64.781 -192.742)"/><path class="f" d="M246.922,489.193a100.1,100.1,0,0,0-45.7,0c-7.245,1.966-11.075,4.751-11.075,8.07v80.289a4.536,4.536,0,0,0,.861,2.619,6.8,6.8,0,0,0,.92,1.069c4.347,4.2,17.263,7.025,32.139,7.025s27.8-2.821,32.151-7.025a7.438,7.438,0,0,0,.921-1.063,4.575,4.575,0,0,0,.861-2.625V497.275C258,493.943,254.2,491.17,246.922,489.193Zm7.72,89.22a3.974,3.974,0,0,1-.523.594c-3.712,3.563-16.349,6.188-30.049,6.188s-26.325-2.6-30.037-6.182a4.148,4.148,0,0,1-.529-.594,1.543,1.543,0,0,1-.309-.867V502a16.994,16.994,0,0,0,2.263,1.289h.042c.41.2.843.392,1.295.594l.113.048c.439.178.9.35,1.372.523l.172.059,1.253.41.386.119c.4.125.819.238,1.247.356l.594.148,1.247.309.73.166,1.247.267.831.16,1,.178,1.146.19.938.142,1.235.172,1.069.137.962.107,1.449.148.736.065c.594.053,1.188.1,1.782.137l.635.042c.635.042,1.283.077,1.93.107h.481c.7,0,1.407.053,2.126.065h5.291c.713,0,1.419-.042,2.12-.065h.487c.647-.03,1.289-.065,1.93-.107l.629-.042c.594-.042,1.188-.083,1.782-.137l.754-.065,1.4-.143,1.01-.119,1.051-.131,1.253-.172.921-.142,1.188-.19.992-.178.837-.166,1.247-.261.725-.166,1.265-.309.546-.148c.445-.119.885-.244,1.306-.368l.321-.1q.671-.208,1.3-.428l.137-.047q.73-.261,1.407-.534h.071c.469-.19.909-.392,1.33-.594h0a17.224,17.224,0,0,0,2.28-1.295v75.526a1.545,1.545,0,0,1-.422.873Zm-30.572-88.8c19.134,0,30.88,4.466,30.88,7.667a1.641,1.641,0,0,1-.315.885c-1.342,1.978-6.129,4-13.189,5.309h-.065l-.8.143-.837.137h0a97.269,97.269,0,0,1-13.065,1.146h-5.291a97.765,97.765,0,0,1-13-1.14h-.059l-.79-.137-.849-.148h0c-7.067-1.312-11.877-3.326-13.2-5.3a1.635,1.635,0,0,1-.321-.891C193.2,494.074,204.943,489.608,224.071,489.608Z" transform="translate(-64.387 -192.039)"/><path class="a" d="M229.647,586.458a16.9,16.9,0,0,0,22.24-5.184,1.294,1.294,0,0,0-.338-1.8c-.031-.021-.063-.041-.1-.059h0a1.3,1.3,0,0,0-1.716.4,14.252,14.252,0,1,1-6.77-21.379l-4.234,2.85a1.3,1.3,0,0,0-.35,1.782h0a1.3,1.3,0,0,0,1.782.356l6.146-4.157a1.306,1.306,0,0,0,.481-1.562l-2.613-6.532a1.3,1.3,0,0,0-1.687-.725h0a1.3,1.3,0,0,0-.724,1.687L243.2,555.7a16.877,16.877,0,0,0-13.6,30.72Z" transform="translate(-76.923 -217.953)"/><path class="d" d="M240.58,589.656v-1.295c.671-.517,1.324-1.057,1.948-1.627s1.265-1.188,1.918-1.912a10.7,10.7,0,0,0,1.568-2.15,4.238,4.238,0,0,0,.594-1.972q0-2.025-2.761-2.019a5.347,5.347,0,0,0-3.058.938v-1.657a6.422,6.422,0,0,1,3.29-.9,4.3,4.3,0,0,1,3.2,1.063,3.563,3.563,0,0,1,1.039,2.554q0,3.189-4.751,7.358h4.858v1.621Z" transform="translate(-84.869 -228.799)"/><path class="f" d="M308.515,737.6s-2.328,3.527,2.245,4.246c.445.053,3.759.4,4.614,1.485,0,0-.083-1.877-2.773-2.969S308.812,738.972,308.515,737.6Z" transform="translate(-112.22 -294.003)"/><path class="f" d="M310.666,724.83s-6.532,3.967-.374,7.91c1.188.766,5.458,2.91,5.345,4.876,0,0,2.589-3.842-1.188-6.247C310.536,728.886,309.562,726.255,310.666,724.83Z" transform="translate(-112.109 -288.816)"/><path class="f" d="M319.876,726.527c-2.791-2.922-3.563-4.751-2.375-7.067,0,0-8.314,3.207-.107,8.908,2.969,2.037,2.453,4.115,2.453,4.193A4.1,4.1,0,0,0,319.876,726.527Z" transform="translate(-114.596 -286.635)"/><g class="g" transform="translate(210.957 435.777)"><text class="h" transform="translate(0 7)"><tspan x="0" y="0">N</tspan></text><text class="i" transform="translate(8.148 7)"><tspan x="0" y="0">O</tspan></text><text class="j" transform="translate(16.295 6)"><tspan x="0" y="0">D</tspan></text><text class="h" transform="translate(23.671 7)"><tspan x="0" y="0">E</tspan></text></g><path class="e" d="M323.195,545.56c-16.39,0-33.345,3.717-33.345,9.935v79.8a3.684,3.684,0,0,0,.713,2.144,6.408,6.408,0,0,0,.808.944c4.24,4.1,17.032,6.847,31.825,6.847s27.59-2.75,31.824-6.841a6.122,6.122,0,0,0,.82-.95,3.722,3.722,0,0,0,.713-2.144V555.5C356.534,549.277,339.573,545.56,323.195,545.56Z" transform="translate(-104.88 -216.006)"/><path class="f" d="M345.634,546.493a100.017,100.017,0,0,0-45.679,0c-7.245,1.966-11.075,4.751-11.075,8.07V634.84a4.556,4.556,0,0,0,.861,2.625,7.08,7.08,0,0,0,.92,1.069c4.347,4.2,17.263,7.019,32.139,7.019s27.8-2.821,32.151-7.025a7.429,7.429,0,0,0,.92-1.063,4.555,4.555,0,0,0,.861-2.625V554.563C356.716,551.249,352.885,548.458,345.634,546.493Zm7.72,89.22a3.764,3.764,0,0,1-.523.594c-3.712,3.6-16.372,6.212-30.031,6.212s-26.325-2.6-30.037-6.182a4.439,4.439,0,0,1-.529-.594,1.562,1.562,0,0,1-.309-.873V559.284a17,17,0,0,0,2.263,1.289h.042c.41.2.843.392,1.295.594l.113.048c.439.178.9.356,1.372.523l.172.059q.594.214,1.247.41l.392.119q.594.184,1.247.356l.594.154c.4.107.825.208,1.247.3l.73.172,1.247.261.831.16,1,.178,1.146.19.938.148,1.235.166,1.063.137.968.113c.481.047.962.1,1.449.142l.736.071,1.782.137.635.042c.635.042,1.283.071,1.93.107h.481c.7.03,1.407.053,2.126.071h.214c.778,0,1.562.03,2.375.03s1.568,0,2.346-.03h.291q1.069,0,2.12-.071h.487c.647-.03,1.289-.059,1.924-.1l.635-.042,1.782-.137.754-.071c.469-.042.938-.089,1.4-.143l1.01-.113,1.051-.137,1.253-.172.921-.137,1.188-.2.992-.178.837-.16c.422-.089.837-.172,1.247-.267l.725-.16,1.259-.315.552-.143c.445-.125.879-.243,1.306-.374l.315-.1c.451-.137.885-.279,1.307-.428l.131-.042c.493-.178.962-.356,1.407-.54l.077-.03c.469-.19.909-.386,1.33-.594h0a17.23,17.23,0,0,0,2.28-1.295v75.55A1.525,1.525,0,0,1,353.354,635.713Zm-30.554-88.8c19.134,0,30.88,4.466,30.88,7.667a1.641,1.641,0,0,1-.315.885c-1.342,1.978-6.129,4-13.2,5.309h-.059l-.8.143-.837.142h0a99.322,99.322,0,0,1-13.035,1.146h-5.291a98.69,98.69,0,0,1-13-1.146h-.059l-.79-.131-.849-.154h0c-7.061-1.312-11.877-3.332-13.189-5.309a1.635,1.635,0,0,1-.321-.891C291.921,551.362,303.655,546.908,322.8,546.908Z" transform="translate(-104.486 -215.311)"/><path class="a" d="M328.381,643.742a16.9,16.9,0,0,0,22.264-5.184,1.294,1.294,0,0,0-.338-1.8c-.031-.021-.063-.041-.1-.059h0a1.3,1.3,0,0,0-1.716.4,14.252,14.252,0,1,1-6.77-21.379l-4.234,2.851a1.306,1.306,0,0,0-.35,1.781h0a1.306,1.306,0,0,0,1.782.35l6.146-4.157a1.278,1.278,0,0,0,.4-.433,1.307,1.307,0,0,0,.077-1.122l-2.613-6.532a1.3,1.3,0,0,0-1.687-.725h0a1.306,1.306,0,0,0-.724,1.693l1.431,3.563a16.877,16.877,0,0,0-13.6,30.714Z" transform="translate(-117.043 -241.221)"/><path class="d" d="M339.28,646.942v-1.3c.671-.511,1.324-1.057,1.948-1.621a25.365,25.365,0,0,0,1.918-1.918,10.5,10.5,0,0,0,1.568-2.15,4.222,4.222,0,0,0,.594-1.972c0-1.342-.921-2.019-2.761-2.019a5.343,5.343,0,0,0-3.064.938v-1.657a6.467,6.467,0,0,1,3.3-.9,4.3,4.3,0,0,1,3.2,1.063,3.562,3.562,0,0,1,1.033,2.56q0,3.177-4.751,7.352h4.858v1.627Z" transform="translate(-124.955 -252.064)"/><text class="k" transform="translate(352.572 331.67)"><tspan x="0" y="0">1. Run Tasks</tspan><tspan x="0" y="34">2. Execute Tasks</tspan><tspan x="0" y="68">3. Produce Final Result</tspan></text></g></svg>