<svg xmlns="http://www.w3.org/2000/svg" viewBox="0 0 1006.75 884.09"><defs><style>.cls-1{isolation:isolate;}.cls-2{fill:#efeeed;mix-blend-mode:multiply;}.cls-3{fill:#e5282a;}.cls-4{fill:#fff;}.cls-5{fill:#1d1d1b;}</style></defs><g class="cls-1"><g id="Capa_1" data-name="Capa 1"><circle class="cls-2" cx="503.37" cy="503.98" r="153.91"/><path class="cls-3" d="M447.22,536.19s-27.26,41.29,26.3,49.69c5.24.67,44.05,4.7,54.06,17.4,0,0-.92-21.93-32.43-34.86S450.71,552.27,447.22,536.19Z"/><path class="cls-3" d="M473.75,447.3s-76.24,46.48-4.39,92.73c13.86,9,64,34.06,62.49,57.1,0,0,30.36-45-14-73.23C472.22,494.88,460.79,464,473.75,447.3Z"/><path class="cls-3" d="M552.5,492.77c-32.65-34.23-41.73-55.37-27.77-82.77,0,0-97.57,37.54-1.25,104.14C558,538,552.2,562.32,552.22,563.21,557.68,557.59,585.16,527,552.5,492.77Z"/><path class="cls-2" d="M503.37,139.62C302.14,139.62,139,302.75,139,504S302.14,868.34,503.37,868.34,867.73,705.21,867.73,504,704.61,139.62,503.37,139.62Zm0,719.2C307.4,858.82,148.54,700,148.54,504S307.4,149.14,503.37,149.14,858.21,308,858.21,504,699.35,858.82,503.37,858.82Z"/><path class="cls-4" d="M829.42,517.64c-49.85,0-101.42,11.3-101.42,30.22V787.21a11.29,11.29,0,0,0,2.17,6.52,18.87,18.87,0,0,0,2.46,2.86c12.9,12.46,51.8,20.83,96.79,20.83s83.94-8.37,96.82-20.81a18.65,18.65,0,0,0,2.49-2.89,11.24,11.24,0,0,0,2.17-6.51V547.86C930.9,528.94,879.3,517.64,829.42,517.64Z"/><path class="cls-3" d="M899,523.08c-18.83-5.11-44.17-8-69.53-8s-50.67,2.93-69.49,8c-22,6-33.69,14.47-33.69,24.56v80.19a13.79,13.79,0,0,0,2.63,8,20.77,20.77,0,0,0,2.79,3.25c13.23,12.77,52.52,21.37,97.76,21.37s84.58-8.59,97.81-21.37a21.84,21.84,0,0,0,2.8-3.24,13.84,13.84,0,0,0,2.62-8V547.64C932.65,537.55,921,529.06,899,523.08Zm23.48,107.41a12.11,12.11,0,0,1-1.6,1.86c-11.29,10.91-49.72,18.81-91.41,18.81s-80.08-7.91-91.35-18.81a12.25,12.25,0,0,1-1.61-1.87,4.68,4.68,0,0,1-.94-2.65V562a52.06,52.06,0,0,0,6.88,3.93l.12.05c1.25.6,2.56,1.19,3.94,1.76l.35.13c1.34.55,2.72,1.08,4.17,1.6l.53.17c1.22.43,2.49.85,3.79,1.25l1.19.37c1.23.37,2.5.73,3.79,1.08l1.73.46c1.24.33,2.51.64,3.81.94l2.21.5c1.25.28,2.51.55,3.8.81l2.53.49c1,.18,2,.37,3,.54s2.31.4,3.49.58l2.86.44,3.75.52,3.25.41,2.94.34c1.45.16,2.92.3,4.4.44l2.24.21c1.76.15,3.55.29,5.35.41l1.93.13q2.91.18,5.87.32l1.46.06c2.14.09,4.29.16,6.47.21l.86,0c2.37,0,4.75.07,7.15.07s4.79,0,7.15-.07l.88,0q3.25-.07,6.45-.21l1.48-.06c2-.09,3.93-.2,5.86-.32l1.94-.13c1.79-.12,3.57-.26,5.33-.41l2.29-.21,4.28-.43c1-.12,2-.23,3.07-.36s2.14-.26,3.2-.4c1.28-.17,2.55-.34,3.8-.53l2.81-.42,3.54-.59,3-.54,2.55-.5c1.28-.26,2.55-.52,3.79-.8l2.21-.5c1.3-.31,2.58-.62,3.83-.94l1.68-.45c1.35-.37,2.68-.74,4-1.13l1-.3c1.36-.43,2.68-.86,4-1.3l.41-.14c1.49-.53,2.91-1.08,4.28-1.64l.23-.09c1.42-.58,2.76-1.18,4-1.79h0a51.09,51.09,0,0,0,6.93-4v65.84A4.68,4.68,0,0,1,922.43,630.49Zm-93-106.17c58.22,0,94,13.58,94,23.32a4.91,4.91,0,0,1-1,2.69c-4.08,6-18.63,12.15-40.12,16.15l-.19,0-2.44.44-2.54.42h0a300,300,0,0,1-39.63,3.49l-1.35,0-2.54,0q-2.07,0-4.17,0c-1.4,0-2.78,0-4.16,0l-2.54,0-1.35,0a299,299,0,0,1-39.54-3.48l-.17,0-2.4-.4-2.6-.46h0c-21.49-4-36-10.13-40.14-16.15a5,5,0,0,1-1-2.7C735.52,537.9,771.24,524.32,829.42,524.32Z"/><path class="cls-3" d="M928.31,623.18a4.29,4.29,0,0,0-4.29,4.28,5.19,5.19,0,0,1-1,2.88c-3.69,5.47-15.45,10.82-32.26,14.67-17.46,4-39.24,6.21-61.33,6.21S785.59,649,768.14,645c-16.8-3.85-28.55-9.19-32.24-14.65a5.26,5.26,0,0,1-1-2.9,4.29,4.29,0,0,0-8.58,0V787.69a13.44,13.44,0,0,0,2.58,7.81,21.29,21.29,0,0,0,2.73,3.18c6.61,6.37,19.49,11.76,37.25,15.58C786.37,818,807.32,820,829.42,820s43.08-2,60.6-5.76c17.77-3.82,30.64-9.2,37.24-15.56a21.35,21.35,0,0,0,2.77-3.22,13.47,13.47,0,0,0,2.57-7.79V627.46A4.29,4.29,0,0,0,928.31,623.18ZM924,787.69a5,5,0,0,1-1,2.86,12.62,12.62,0,0,1-1.66,1.93l0,0c-5.47,5.28-17.52,10.08-33.94,13.52-16.68,3.5-37.27,5.42-58,5.42s-41.26-1.92-57.93-5.42c-16.42-3.44-28.47-8.25-33.94-13.54l0,0a11.62,11.62,0,0,1-1.63-1.89,5,5,0,0,1-1-2.88V641.17c7,5.09,18.27,9.42,33,12.67,17.65,3.89,38.94,5.95,61.58,5.95s44-2.06,61.61-5.95c14.7-3.25,26-7.58,33-12.67Z"/><path class="cls-5" d="M760.75,619.31V597q2.19.52,4.41,1,3.2,5.38,6.4,10.71l6.42-8.13c1.48.27,3,.52,4.45.76v22.35c-1.34-.21-2.68-.44-4-.68V606.47c-2.29,2.88-4.58,5.75-6.86,8.58q-3.43-5.62-6.84-11.34v16.52C763.39,619.93,762.07,619.63,760.75,619.31Z"/><path class="cls-5" d="M788.06,624.54V602.19q7.44,1.06,14.9,1.76v3.62q-5.44-.51-10.87-1.21V612c3.13.4,6.28.76,9.42,1.07v3.8c-3.14-.31-6.29-.67-9.42-1.08v5.66q5.42.71,10.87,1.21v3.62Q795.49,625.61,788.06,624.54Z"/><path class="cls-5" d="M807.58,626.69V604.34c1.49.12,3,.22,4.49.32q3.24,4.88,6.5,9.67,3.24-4.53,6.5-9.15c1.5,0,3,.05,4.5.05v22.35c-1.35,0-2.7,0-4.05,0V611q-3.48,4.88-6.95,9.68-3.48-5.09-7-10.25V627C810.27,626.89,808.92,626.8,807.58,626.69Z"/><path class="cls-5" d="M834.48,616.39a16.38,16.38,0,0,1,.64-4.83,9.93,9.93,0,0,1,1.66-3.34,8.56,8.56,0,0,1,2.44-2.07A10.61,10.61,0,0,1,842,605a16.82,16.82,0,0,1,3-.39,16.6,16.6,0,0,1,2.95.11,9.4,9.4,0,0,1,2.79.86,7.64,7.64,0,0,1,2.46,1.84,8.64,8.64,0,0,1,1.67,3.18,15.67,15.67,0,0,1,.64,4.76,16.9,16.9,0,0,1-.64,4.87,10.09,10.09,0,0,1-1.67,3.45,9,9,0,0,1-2.46,2.17,9.89,9.89,0,0,1-2.79,1.22,15.73,15.73,0,0,1-5.9.28,9,9,0,0,1-2.8-1,7.85,7.85,0,0,1-2.44-1.94,9.23,9.23,0,0,1-1.66-3.28A16.38,16.38,0,0,1,834.48,616.39Zm4-.11a14.22,14.22,0,0,0,.51,4.15,4.5,4.5,0,0,0,1.48,2.38,5.36,5.36,0,0,0,2,1A9.59,9.59,0,0,0,845,624a12.65,12.65,0,0,0,2-.25,5.89,5.89,0,0,0,1.73-.73,4.31,4.31,0,0,0,1.45-1.43,8.5,8.5,0,0,0,.93-2.39,15,15,0,0,0,.37-3.5,14.24,14.24,0,0,0-.5-4.1,4.36,4.36,0,0,0-1.5-2.32,5,5,0,0,0-2-.92,10.24,10.24,0,0,0-2.46-.14,12.8,12.8,0,0,0-2,.24,5.77,5.77,0,0,0-1.73.7,4.24,4.24,0,0,0-1.45,1.37,7.9,7.9,0,0,0-.93,2.31A14.73,14.73,0,0,0,838.53,616.28Z"/><path class="cls-5" d="M860.33,626.12V603.77q4.3-.43,8.6-1c2.62-.34,4.66,0,6.1,1s2.18,2.68,2.18,5a7.54,7.54,0,0,1-4.9,7.34q2.93,3.86,5.86,7.67c-1.61.26-3.23.5-4.85.74q-2.67-3.57-5.33-7.17l-3.63.43v7.89Zm4-12c1.49-.17,3-.35,4.46-.54a6.52,6.52,0,0,0,3.21-1.16,3.47,3.47,0,0,0,1.16-2.93c0-1.37-.39-2.24-1.16-2.61a5.81,5.81,0,0,0-3.21-.28c-1.48.19-3,.36-4.46.53Z"/><path class="cls-5" d="M879.27,601.27q2.41-.39,4.83-.84,3,4,5.89,8,2.93-5.13,5.83-10.32l4.8-1.11q-4.3,7.41-8.64,14.7v9.59c-1.33.28-2.66.54-4,.8v-9.58Q883.64,606.93,879.27,601.27Z"/><path class="cls-5" d="M794.79,744.72V722.37c2.54.61,5.08,1.15,7.64,1.63,3.44.64,6.07,2,7.86,4.1s2.69,5,2.69,8.67-.9,6.32-2.68,8-4.42,2.24-7.87,1.6C799.87,745.87,797.33,745.33,794.79,744.72Zm4-2.72c1.22.26,2.43.5,3.65.73,2.31.43,4,.1,5-.92s1.53-2.88,1.53-5.55-.51-4.7-1.53-6a7.77,7.77,0,0,0-5-2.61c-1.22-.23-2.43-.47-3.65-.73Z"/><path class="cls-5" d="M817.93,748.41V726.06c1.35.11,2.7.2,4.05.28v22.35C820.63,748.61,819.28,748.52,817.93,748.41Z"/><path class="cls-5" d="M826.81,732.8a5.56,5.56,0,0,1,2.28-4.86,10.18,10.18,0,0,1,5.74-1.71,13.49,13.49,0,0,1,6,1.25v3.94a10.12,10.12,0,0,0-5.56-1.41,7.44,7.44,0,0,0-3.16.71,2.14,2.14,0,0,0-1.29,2,1.92,1.92,0,0,0,1.18,1.74,12.42,12.42,0,0,0,2.85,1c1.11.25,2.23.57,3.35.94a6,6,0,0,1,2.87,2.09,6.52,6.52,0,0,1,1.17,4.07,5.73,5.73,0,0,1-2.25,4.57,8.8,8.8,0,0,1-5.5,2,13.2,13.2,0,0,1-7.43-1.84V743.2a10.12,10.12,0,0,0,6.49,2.14c3.1-.08,4.64-1,4.65-2.75a2.4,2.4,0,0,0-.84-1.89,5.19,5.19,0,0,0-2.13-1.05c-.85-.21-1.77-.48-2.75-.8a22.8,22.8,0,0,1-2.75-1.07,5.06,5.06,0,0,1-2.13-1.86A5.58,5.58,0,0,1,826.81,732.8Z"/><path class="cls-5" d="M846.86,748V725.64c1.35-.15,2.69-.32,4-.5v9.46q4.23-5.33,8.42-10.86c1.78-.35,3.57-.74,5.34-1.15q-4.44,5.94-8.94,11.62,4.95,5.41,9.86,10.51-2.48.6-5,1.11-3.74-4.1-7.48-8.35c-.74.93-1.49,1.86-2.24,2.78v7.23C849.55,747.67,848.21,747.84,846.86,748Z"/><path class="cls-4" d="M177.28,517.64c-49.86,0-101.43,11.3-101.43,30.22V787.21A11.29,11.29,0,0,0,78,793.73a18.91,18.91,0,0,0,2.47,2.86c12.89,12.46,51.79,20.83,96.79,20.83s83.94-8.37,96.81-20.81a18.7,18.7,0,0,0,2.5-2.89,11.3,11.3,0,0,0,2.16-6.51V547.86C278.75,528.94,227.16,517.64,177.28,517.64Z"/><path class="cls-3" d="M246.8,523.08c-18.83-5.11-44.17-8-69.52-8s-50.67,2.93-69.5,8c-22,6-33.68,14.47-33.68,24.56v80.19a13.78,13.78,0,0,0,2.62,8,21.36,21.36,0,0,0,2.8,3.25c13.22,12.77,52.51,21.37,97.76,21.37s84.58-8.59,97.81-21.37a21.79,21.79,0,0,0,2.79-3.24,13.78,13.78,0,0,0,2.63-8V547.64C280.51,537.55,268.85,529.06,246.8,523.08Zm23.49,107.41a12.69,12.69,0,0,1-1.6,1.86c-11.29,10.91-49.73,18.81-91.41,18.81s-80.08-7.91-91.36-18.81a12.25,12.25,0,0,1-1.61-1.87,4.68,4.68,0,0,1-.94-2.65V562a52.21,52.21,0,0,0,6.89,3.93l.11.05c1.25.6,2.56,1.19,3.95,1.76l.34.13c1.34.55,2.72,1.08,4.18,1.6l.52.17c1.23.43,2.5.85,3.8,1.25l1.18.37c1.23.37,2.5.73,3.79,1.08l1.74.46c1.24.33,2.51.64,3.8.94l2.22.5c1.24.28,2.5.55,3.79.81l2.53.49c1,.18,2,.37,3,.54s2.32.4,3.49.58l2.86.44,3.75.52,3.25.41,2.94.34c1.46.16,2.92.3,4.4.44l2.24.21c1.77.15,3.55.29,5.36.41l1.92.13q2.91.18,5.88.32l1.45.06q3.21.14,6.47.21l.86,0c2.37,0,4.75.07,7.16.07s4.78,0,7.14-.07l.88,0q3.25-.07,6.46-.21l1.47-.06c2-.09,3.93-.2,5.87-.32l1.93-.13c1.8-.12,3.58-.26,5.34-.41l2.29-.21,4.27-.43c1-.12,2-.23,3.07-.36s2.14-.26,3.2-.4c1.28-.17,2.55-.34,3.8-.53l2.81-.42,3.54-.59,3-.54,2.54-.5c1.29-.26,2.55-.52,3.8-.8l2.2-.5c1.3-.31,2.59-.62,3.84-.94l1.67-.45c1.35-.37,2.68-.74,4-1.13l1-.3c1.36-.43,2.68-.86,4-1.3l.41-.14c1.49-.53,2.91-1.08,4.28-1.64l.23-.09c1.42-.58,2.76-1.18,4.05-1.79h0a51.09,51.09,0,0,0,6.93-4v65.84A4.66,4.66,0,0,1,270.29,630.49Zm-93-106.17c58.21,0,94,13.58,94,23.32a5,5,0,0,1-1,2.69c-4.08,6-18.64,12.15-40.13,16.15l-.18,0-2.44.44-2.55.42h0a300.31,300.31,0,0,1-39.64,3.49l-1.34,0-2.55,0c-1.38,0-2.76,0-4.16,0s-2.79,0-4.17,0l-2.54,0-1.34,0a299,299,0,0,1-39.55-3.48l-.17,0-2.4-.4-2.6-.46h0c-21.48-4-36-10.13-40.13-16.15a4.93,4.93,0,0,1-1-2.7C83.37,537.9,119.09,524.32,177.28,524.32Z"/><path class="cls-3" d="M276.16,623.18a4.29,4.29,0,0,0-4.29,4.28,5.25,5.25,0,0,1-1,2.88c-3.7,5.47-15.46,10.82-32.27,14.67-17.46,4-39.24,6.21-61.32,6.21S133.44,649,116,645c-16.8-3.85-28.55-9.19-32.24-14.65a5.26,5.26,0,0,1-1-2.9,4.29,4.29,0,0,0-8.58,0V787.69a13.51,13.51,0,0,0,2.58,7.81,21.34,21.34,0,0,0,2.74,3.18c6.6,6.37,19.48,11.76,37.25,15.58C134.23,818,155.17,820,177.28,820s43.07-2,60.59-5.76c17.77-3.82,30.65-9.2,37.24-15.56a21.4,21.4,0,0,0,2.78-3.22,13.45,13.45,0,0,0,2.56-7.79V627.46A4.29,4.29,0,0,0,276.16,623.18Zm-4.29,164.51a5.06,5.06,0,0,1-1,2.86,12.67,12.67,0,0,1-1.67,1.93l0,0c-5.46,5.28-17.52,10.08-33.93,13.52-16.69,3.5-37.27,5.42-58,5.42S136,809.52,119.34,806c-16.41-3.44-28.47-8.25-33.94-13.54l0,0a12.13,12.13,0,0,1-1.63-1.89,5,5,0,0,1-1-2.88V641.17c7,5.09,18.28,9.42,33,12.67,17.65,3.89,38.94,5.95,61.59,5.95s43.95-2.06,61.6-5.95c14.7-3.25,25.95-7.58,33-12.67Z"/><path class="cls-5" d="M108.6,619.31V597l4.41,1q3.19,5.38,6.4,10.71,3.21-4,6.42-8.13c1.48.27,3,.52,4.45.76v22.35c-1.34-.21-2.67-.44-4-.68V606.47c-2.29,2.88-4.58,5.75-6.86,8.58q-3.42-5.62-6.84-11.34v16.52C111.25,619.93,109.92,619.63,108.6,619.31Z"/><path class="cls-5" d="M135.92,624.54V602.19q7.43,1.06,14.89,1.76v3.62q-5.44-.51-10.87-1.21V612q4.71.6,9.43,1.07v3.8q-4.73-.46-9.43-1.08v5.66q5.43.71,10.87,1.21v3.62Q143.36,625.61,135.92,624.54Z"/><path class="cls-5" d="M155.43,626.69V604.34c1.5.12,3,.22,4.49.32q3.26,4.88,6.5,9.67,3.26-4.53,6.51-9.15c1.5,0,3,.05,4.49.05v22.35c-1.35,0-2.7,0-4,0V611q-3.48,4.88-7,9.68-3.48-5.09-6.95-10.25V627C158.13,626.89,156.78,626.8,155.43,626.69Z"/><path class="cls-5" d="M182.33,616.39a16.37,16.37,0,0,1,.65-4.83,10.11,10.11,0,0,1,1.65-3.34,8.6,8.6,0,0,1,2.45-2.07,10.48,10.48,0,0,1,2.8-1.13,17.55,17.55,0,0,1,5.89-.28,9.55,9.55,0,0,1,2.8.86,7.86,7.86,0,0,1,2.46,1.84,8.79,8.79,0,0,1,1.67,3.18,16.32,16.32,0,0,1,.64,4.76,17.26,17.26,0,0,1-.64,4.87A10.27,10.27,0,0,1,201,623.7a9.28,9.28,0,0,1-2.46,2.17,10.07,10.07,0,0,1-2.8,1.22,15.67,15.67,0,0,1-5.89.28,8.93,8.93,0,0,1-2.8-1,7.89,7.89,0,0,1-2.45-1.94A9.39,9.39,0,0,1,183,621.2,16.71,16.71,0,0,1,182.33,616.39Zm4.06-.11a14.26,14.26,0,0,0,.5,4.15,4.56,4.56,0,0,0,1.48,2.38,5.36,5.36,0,0,0,2,1,9.67,9.67,0,0,0,2.45.17,12.81,12.81,0,0,0,2-.25,5.84,5.84,0,0,0,1.72-.73,4.22,4.22,0,0,0,1.45-1.43,8.21,8.21,0,0,0,.93-2.39,14.51,14.51,0,0,0,.37-3.5,14.24,14.24,0,0,0-.5-4.1,4.25,4.25,0,0,0-1.5-2.32,5.06,5.06,0,0,0-2-.92,10.31,10.31,0,0,0-2.46-.14,12.64,12.64,0,0,0-2,.24,5.93,5.93,0,0,0-1.74.7,4.33,4.33,0,0,0-1.45,1.37,7.65,7.65,0,0,0-.92,2.31A14.22,14.22,0,0,0,186.39,616.28Z"/><path class="cls-5" d="M208.18,626.12V603.77q4.31-.43,8.6-1c2.63-.34,4.66,0,6.11,1s2.17,2.68,2.17,5a7.54,7.54,0,0,1-4.9,7.34Q223.1,620,226,623.8c-1.62.26-3.24.5-4.86.74l-5.33-7.17-3.62.43v7.89Zm4-12c1.48-.17,3-.35,4.45-.54a6.45,6.45,0,0,0,3.21-1.16,3.41,3.41,0,0,0,1.16-2.93c0-1.37-.38-2.24-1.16-2.61a5.79,5.79,0,0,0-3.21-.28c-1.48.19-3,.36-4.45.53Z"/><path class="cls-5" d="M227.12,601.27c1.61-.26,3.23-.54,4.84-.84q2.94,4,5.88,8,2.92-5.13,5.84-10.32c1.6-.36,3.2-.73,4.79-1.11q-4.31,7.41-8.63,14.7v9.59c-1.33.28-2.66.54-4,.8v-9.58Q231.49,606.93,227.12,601.27Z"/><path class="cls-5" d="M142.65,744.72V722.37q3.79.92,7.64,1.63c3.44.64,6.06,2,7.85,4.1s2.69,5,2.69,8.67-.89,6.32-2.68,8-4.41,2.24-7.86,1.6Q146.45,745.63,142.65,744.72Zm4-2.72c1.21.26,2.43.5,3.65.73,2.31.43,4,.1,5-.92s1.54-2.88,1.53-5.55-.51-4.7-1.53-6a7.77,7.77,0,0,0-5-2.61c-1.22-.23-2.44-.47-3.65-.73Z"/><path class="cls-5" d="M165.79,748.41V726.06c1.35.11,2.7.2,4.05.28v22.35C168.49,748.61,167.14,748.52,165.79,748.41Z"/><path class="cls-5" d="M174.66,732.8a5.56,5.56,0,0,1,2.29-4.86,10.17,10.17,0,0,1,5.73-1.71,13.47,13.47,0,0,1,6,1.25v3.94a10.1,10.1,0,0,0-5.56-1.41,7.39,7.39,0,0,0-3.15.71,2.13,2.13,0,0,0-1.3,2,1.93,1.93,0,0,0,1.18,1.74,12.77,12.77,0,0,0,2.85,1c1.11.25,2.23.57,3.36.94a6,6,0,0,1,2.86,2.09,6.46,6.46,0,0,1,1.18,4.07,5.73,5.73,0,0,1-2.25,4.57,8.85,8.85,0,0,1-5.5,2,13.2,13.2,0,0,1-7.43-1.84V743.2a10.08,10.08,0,0,0,6.49,2.14c3.1-.08,4.64-1,4.64-2.75a2.4,2.4,0,0,0-.84-1.89,5.22,5.22,0,0,0-2.12-1.05c-.86-.21-1.77-.48-2.75-.8a22.17,22.17,0,0,1-2.75-1.07,5,5,0,0,1-2.13-1.86A5.5,5.5,0,0,1,174.66,732.8Z"/><path class="cls-5" d="M194.72,748V725.64c1.34-.15,2.69-.32,4-.5v9.46q4.22-5.33,8.41-10.86c1.79-.35,3.57-.74,5.35-1.15q-4.45,5.94-8.94,11.62,5,5.41,9.86,10.51-2.48.6-5,1.11-3.72-4.1-7.47-8.35c-.75.93-1.49,1.86-2.24,2.78v7.23C197.41,747.67,196.06,747.84,194.72,748Z"/><path class="cls-4" d="M503.35,18.35c-49.86,0-101.42,11.3-101.42,30.21V287.91a11.23,11.23,0,0,0,2.17,6.53,18.79,18.79,0,0,0,2.46,2.86c12.9,12.46,51.79,20.83,96.79,20.83s83.94-8.37,96.82-20.81a19.13,19.13,0,0,0,2.49-2.89,11.23,11.23,0,0,0,2.16-6.52V48.56C604.82,29.65,553.23,18.35,503.35,18.35Z"/><path class="cls-3" d="M572.88,23.79c-18.84-5.11-44.18-8-69.53-8s-50.67,2.93-69.49,8c-22,6-33.69,14.47-33.69,24.56v80.19a13.72,13.72,0,0,0,2.63,8,20.77,20.77,0,0,0,2.79,3.25c13.22,12.77,52.52,21.37,97.76,21.37s84.58-8.59,97.81-21.37a20.84,20.84,0,0,0,2.79-3.25,13.72,13.72,0,0,0,2.63-8V48.35C606.58,38.26,594.93,29.77,572.88,23.79ZM596.36,131.2a11.57,11.57,0,0,1-1.6,1.85C583.47,144,545,151.86,503.35,151.86S423.27,144,412,133.06a11.67,11.67,0,0,1-1.6-1.87,4.62,4.62,0,0,1-.95-2.65V62.7a52.21,52.21,0,0,0,6.89,3.93l.11.05c1.26.6,2.57,1.19,3.95,1.75l.34.14c1.34.55,2.73,1.08,4.18,1.59l.52.18c1.23.43,2.5.85,3.8,1.25l1.19.37q1.84.56,3.78,1.08l1.74.46c1.24.32,2.51.63,3.8.94l2.22.5c1.24.28,2.51.55,3.79.8l2.54.49,3,.55,3.49.58,2.86.44,3.74.52,3.25.41c1,.11,2,.23,2.95.33,1.45.16,2.92.31,4.4.45l2.23.2c1.77.16,3.56.29,5.36.42l1.93.13c1.94.12,3.89.23,5.87.32l1.46.06c2.13.09,4.29.16,6.46.21h.86q3.56.08,7.16.08c2.4,0,4.78,0,7.15-.07l.88,0q3.25-.07,6.45-.21l1.48-.06q3-.14,5.86-.32l1.93-.13c1.8-.13,3.58-.26,5.34-.41l2.29-.21c1.44-.14,2.86-.28,4.27-.44l3.07-.35,3.2-.4,3.81-.53,2.81-.43,3.54-.58,3-.55,2.55-.49c1.28-.26,2.54-.52,3.79-.8l2.2-.5c1.31-.31,2.59-.62,3.84-1,.57-.14,1.12-.29,1.67-.44,1.35-.37,2.68-.74,4-1.13l1-.31c1.36-.42,2.69-.85,4-1.3l.41-.14c1.49-.52,2.91-1.07,4.29-1.63l.23-.09c1.41-.58,2.76-1.18,4-1.79h0a51.7,51.7,0,0,0,6.93-4v65.84A4.68,4.68,0,0,1,596.36,131.2ZM503.35,25c58.21,0,94,13.58,94,23.32a5,5,0,0,1-1,2.69c-4.08,6-18.63,12.15-40.13,16.15l-.18,0-2.44.43-2.55.43h0a300.16,300.16,0,0,1-39.64,3.49l-1.34,0-2.54,0q-2.07,0-4.17,0c-1.4,0-2.79,0-4.16,0l-2.55,0-1.34,0a300.66,300.66,0,0,1-39.55-3.48l-.17,0-2.4-.41-2.59-.46h0c-21.49-4-36.05-10.14-40.14-16.15a4.93,4.93,0,0,1-1-2.7C409.44,38.61,445.17,25,503.35,25Z"/><path class="cls-3" d="M602.23,123.88a4.3,4.3,0,0,0-4.29,4.29,5.27,5.27,0,0,1-1,2.88c-3.7,5.47-15.46,10.82-32.27,14.67-17.46,4-39.24,6.2-61.32,6.2s-43.83-2.2-61.28-6.2c-16.8-3.85-28.56-9.19-32.25-14.65a5.34,5.34,0,0,1-1-2.9,4.29,4.29,0,1,0-8.57,0V288.4a13.45,13.45,0,0,0,2.57,7.8,20.94,20.94,0,0,0,2.74,3.19c6.6,6.37,19.48,11.76,37.25,15.58,17.51,3.77,38.45,5.76,60.56,5.76s43.07-2,60.59-5.76c17.77-3.82,30.65-9.2,37.24-15.56a21,21,0,0,0,2.78-3.23,13.4,13.4,0,0,0,2.56-7.78V128.17A4.3,4.3,0,0,0,602.23,123.88ZM597.94,288.4a5.06,5.06,0,0,1-1,2.86,13.12,13.12,0,0,1-1.66,1.93l0,0c-5.46,5.28-17.51,10.08-33.93,13.52-16.68,3.5-37.27,5.42-58,5.42s-41.26-1.92-57.94-5.42c-16.41-3.44-28.46-8.25-33.94-13.54l0,0a12.55,12.55,0,0,1-1.62-1.89,5,5,0,0,1-1-2.88V141.88c7,5.09,18.28,9.42,33,12.66,17.64,3.9,38.94,6,61.58,6s43.95-2.06,61.61-5.95c14.69-3.25,25.95-7.58,33-12.67Z"/><path class="cls-5" d="M434.67,120V97.67q2.2.52,4.41,1,3.19,5.39,6.4,10.7,3.21-4,6.42-8.12c1.49.27,3,.52,4.45.76v22.35c-1.33-.22-2.67-.44-4-.68V107.17q-3.43,4.33-6.86,8.59-3.42-5.64-6.83-11.34v16.52Z"/><path class="cls-5" d="M462,125.25V102.9q7.42,1.06,14.9,1.76v3.61q-5.44-.49-10.88-1.21v5.66q4.71.61,9.43,1.08v3.79q-4.72-.45-9.43-1.07v5.66q5.43.7,10.88,1.21V127Q469.42,126.32,462,125.25Z"/><path class="cls-5" d="M481.5,127.4V105.05c1.5.12,3,.22,4.49.32q3.25,4.86,6.5,9.67,3.25-4.53,6.51-9.15c1.5,0,3,0,4.5,0v22.35c-1.35,0-2.7,0-4.06,0V111.72q-3.46,4.89-6.95,9.69-3.47-5.09-6.94-10.25v16.53C484.2,127.6,482.85,127.51,481.5,127.4Z"/><path class="cls-5" d="M508.41,117.1a16.38,16.38,0,0,1,.64-4.83,9.93,9.93,0,0,1,1.66-3.34,8.4,8.4,0,0,1,2.44-2.07,10.61,10.61,0,0,1,2.8-1.13,17.59,17.59,0,0,1,5.9-.28,9.49,9.49,0,0,1,2.79.86,7.36,7.36,0,0,1,2.46,1.84,8.67,8.67,0,0,1,1.67,3.17,15.78,15.78,0,0,1,.64,4.77,17,17,0,0,1-.64,4.87,10.47,10.47,0,0,1-1.67,3.45,9.15,9.15,0,0,1-2.46,2.17,10,10,0,0,1-2.79,1.22,15.9,15.9,0,0,1-3,.41,14.85,14.85,0,0,1-2.95-.13,9.28,9.28,0,0,1-2.8-1,7.85,7.85,0,0,1-2.44-1.94,9.2,9.2,0,0,1-1.66-3.29A16.27,16.27,0,0,1,508.41,117.1Zm4.05-.12a14.56,14.56,0,0,0,.5,4.15,4.59,4.59,0,0,0,1.48,2.38,5.2,5.2,0,0,0,2,1,8.83,8.83,0,0,0,2.45.17,11.65,11.65,0,0,0,2-.24,6.3,6.3,0,0,0,1.73-.73,4.5,4.5,0,0,0,1.45-1.43,8.5,8.5,0,0,0,.93-2.39,15,15,0,0,0,.37-3.5,14.2,14.2,0,0,0-.51-4.1,4.32,4.32,0,0,0-1.49-2.33,5.22,5.22,0,0,0-2-.91,10.31,10.31,0,0,0-2.46-.14,12.64,12.64,0,0,0-2,.24,5.93,5.93,0,0,0-1.74.7,4.23,4.23,0,0,0-1.45,1.37,8.2,8.2,0,0,0-.92,2.31A14.19,14.19,0,0,0,512.46,117Z"/><path class="cls-5" d="M534.26,126.82V104.47q4.31-.42,8.59-1c2.63-.33,4.66,0,6.11,1s2.18,2.68,2.18,5a7.54,7.54,0,0,1-4.91,7.33q2.94,3.87,5.87,7.68c-1.62.26-3.23.5-4.85.73q-2.67-3.55-5.34-7.16l-3.62.43v7.88C537,126.55,535.6,126.69,534.26,126.82Zm4-12c1.49-.17,3-.35,4.46-.54a6.72,6.72,0,0,0,3.21-1.16,3.48,3.48,0,0,0,1.16-2.93c0-1.37-.39-2.24-1.16-2.61a5.89,5.89,0,0,0-3.21-.29c-1.49.19-3,.37-4.46.54Z"/><path class="cls-5" d="M553.19,102c1.62-.27,3.23-.54,4.84-.84l5.89,8q2.91-5.13,5.83-10.32,2.4-.54,4.8-1.11-4.31,7.41-8.64,14.7V122l-4,.8v-9.59Q557.57,107.65,553.19,102Z"/><path class="cls-5" d="M468.72,245.43V223.08c2.54.61,5.08,1.15,7.64,1.62,3.44.64,6.07,2,7.86,4.1s2.69,5,2.69,8.68-.9,6.32-2.69,8-4.41,2.24-7.86,1.59C473.8,246.58,471.26,246,468.72,245.43Zm4-2.72c1.21.26,2.43.5,3.65.73,2.31.43,4,.1,5-.93s1.53-2.87,1.53-5.55-.51-4.7-1.53-6a7.8,7.8,0,0,0-5-2.61c-1.22-.23-2.44-.47-3.65-.73Z"/><path class="cls-5" d="M491.86,249.12V226.77q2,.16,4.05.27v22.35Q493.89,249.29,491.86,249.12Z"/><path class="cls-5" d="M500.73,233.51a5.59,5.59,0,0,1,2.29-4.86,10.18,10.18,0,0,1,5.74-1.72,13.64,13.64,0,0,1,6,1.26v3.93a10.24,10.24,0,0,0-5.57-1.41,7.58,7.58,0,0,0-3.15.72,2.12,2.12,0,0,0-1.29,2,1.89,1.89,0,0,0,1.18,1.73,11.6,11.6,0,0,0,2.84,1c1.12.26,2.24.57,3.36.95a6,6,0,0,1,2.87,2.09,6.5,6.5,0,0,1,1.17,4.07,5.69,5.69,0,0,1-2.25,4.56,8.81,8.81,0,0,1-5.5,2A13.2,13.2,0,0,1,501,248v-4.06a10,10,0,0,0,6.49,2.13c3.1-.07,4.64-1,4.65-2.74a2.41,2.41,0,0,0-.84-1.89,5.19,5.19,0,0,0-2.13-1c-.85-.22-1.77-.48-2.75-.8a26.7,26.7,0,0,1-2.75-1.07,5.2,5.2,0,0,1-2.13-1.86A5.52,5.52,0,0,1,500.73,233.51Z"/><path class="cls-5" d="M520.79,248.7V226.35c1.35-.15,2.69-.32,4-.5v9.45q4.23-5.31,8.42-10.86c1.78-.35,3.57-.73,5.34-1.14q-4.44,5.94-8.94,11.62,5,5.42,9.86,10.51-2.47.58-5,1.1-3.74-4.08-7.48-8.35c-.74.94-1.49,1.86-2.24,2.78v7.23C523.48,248.38,522.14,248.55,520.79,248.7Z"/></g></g></svg>