<svg id="Capa_1" data-name="Capa 1" xmlns="http://www.w3.org/2000/svg" viewBox="0 0 799.18 623.52"><defs><style>.cls-1{fill:#fff;}.cls-2{fill:#e5282a;}.cls-3,.cls-4{fill:#1d1d1b;}.cls-4{font-size:43.36px;font-family:MavenProMedium, Maven Pro;}.cls-5{letter-spacing:0em;}.cls-6{letter-spacing:-0.01em;}.cls-7{letter-spacing:-0.01em;}</style></defs><path class="cls-1" d="M640.37,19.18c-68.22,0-138.77,15.46-138.77,41.34V388a15.39,15.39,0,0,0,3,8.93,25.1,25.1,0,0,0,3.36,3.92c17.65,17.05,70.87,28.5,132.44,28.5s114.86-11.45,132.47-28.48a25,25,0,0,0,3.41-3.95,15.39,15.39,0,0,0,3-8.92V60.52C779.21,34.64,708.62,19.18,640.37,19.18Z"/><path class="cls-2" d="M735.5,26.62c-25.76-7-60.44-11-95.13-11s-69.33,4-95.09,11c-30.15,8.18-46.09,19.8-46.09,33.6V170a18.82,18.82,0,0,0,3.6,10.92,28.77,28.77,0,0,0,3.82,4.44c18.09,17.48,71.86,29.24,133.76,29.24S756.1,202.8,774.2,185.31a28.84,28.84,0,0,0,3.82-4.44,18.84,18.84,0,0,0,3.6-10.92V60.22C781.62,46.42,765.67,34.8,735.5,26.62Zm32.13,147a15.87,15.87,0,0,1-2.19,2.53c-15.44,14.93-68,25.74-125.07,25.74S530.8,191,515.37,176.13a16.54,16.54,0,0,1-2.2-2.55,6.43,6.43,0,0,1-1.29-3.63V79.86a70.26,70.26,0,0,0,9.43,5.38l.15.07q2.56,1.23,5.4,2.4l.47.19c1.83.74,3.73,1.47,5.71,2.17l.72.25q2.52.87,5.19,1.71l1.63.5c1.68.51,3.42,1,5.18,1.47l2.37.64c1.7.44,3.44.86,5.21,1.28,1,.23,2,.47,3,.69,1.71.38,3.43.75,5.19,1.1l3.47.67c1.37.26,2.76.51,4.16.75,1.57.27,3.16.54,4.78.79,1.29.21,2.59.4,3.91.6l5.12.71,4.45.56c1.34.16,2.67.32,4,.46q3,.33,6,.61l3.06.28q3.63.31,7.33.57l2.63.17q4,.25,8,.44l2,.09q4.4.18,8.85.29l1.18,0c3.24.06,6.5.1,9.79.1s6.55,0,9.78-.1l1.2,0c3-.06,5.91-.16,8.83-.28l2-.09q4-.18,8-.44l2.64-.17q3.69-.25,7.31-.57l3.13-.28c2-.19,3.92-.38,5.85-.59l4.2-.49c1.47-.17,2.93-.36,4.37-.55,1.76-.23,3.49-.47,5.21-.72l3.84-.58c1.64-.26,3.25-.53,4.85-.81l4.12-.74,3.48-.67c1.76-.36,3.49-.72,5.19-1.1l3-.69c1.78-.42,3.54-.85,5.25-1.29L735,94c1.85-.5,3.67-1,5.42-1.54l1.34-.42c1.86-.58,3.67-1.17,5.41-1.78l.57-.19c2-.72,4-1.47,5.85-2.23l.32-.13q2.91-1.2,5.53-2.46h0a70.07,70.07,0,0,0,9.49-5.4V170A6.43,6.43,0,0,1,767.63,173.59ZM640.37,28.31c79.65,0,128.56,18.59,128.56,31.91a6.74,6.74,0,0,1-1.31,3.68c-5.58,8.23-25.5,16.63-54.9,22.1l-.26,0-3.34.59-3.48.58h0A412.68,412.68,0,0,1,651.39,92l-1.84,0q-1.72,0-3.48.06c-1.88,0-3.78,0-5.7,0s-3.81,0-5.7,0c-1.16,0-2.32,0-3.47-.06l-1.84,0a411.32,411.32,0,0,1-54.12-4.76l-.23,0c-1.1-.17-2.19-.36-3.28-.55s-2.39-.41-3.55-.63h-.06c-29.4-5.46-49.32-13.86-54.92-22.09a6.81,6.81,0,0,1-1.32-3.7C511.88,46.9,560.76,28.31,640.37,28.31Z"/><path class="cls-2" d="M775.67,163.58a5.87,5.87,0,0,0-5.87,5.86,7.16,7.16,0,0,1-1.37,3.94c-5.06,7.49-21.15,14.8-44.15,20.07-23.89,5.48-53.69,8.49-83.91,8.49s-60-3-83.85-8.48c-23-5.27-39.07-12.58-44.12-20.05a7.29,7.29,0,0,1-1.39-4,5.87,5.87,0,0,0-11.74,0V388.68a18.4,18.4,0,0,0,3.53,10.68,28.53,28.53,0,0,0,3.74,4.35c9,8.72,26.66,16.09,51,21.32,24,5.16,52.61,7.88,82.86,7.88s58.94-2.72,82.91-7.87c24.32-5.23,41.93-12.6,51-21.3a28.33,28.33,0,0,0,3.8-4.41,18.36,18.36,0,0,0,3.51-10.65V169.44A5.87,5.87,0,0,0,775.67,163.58Zm-5.87,225.1a6.88,6.88,0,0,1-1.37,3.91,17.4,17.4,0,0,1-2.28,2.64l0,0c-7.48,7.23-24,13.8-46.43,18.5-22.83,4.78-51,7.42-79.32,7.42s-56.46-2.64-79.27-7.42c-22.46-4.71-39-11.29-46.44-18.53l0,0a17.79,17.79,0,0,1-2.23-2.59,7,7,0,0,1-1.39-3.94V188.2c9.62,7,25,12.89,45.1,17.33,24.14,5.33,53.28,8.15,84.26,8.15s60.14-2.82,84.29-8.15c20.12-4.44,35.51-10.37,45.14-17.33Z"/><path class="cls-3" d="M546.4,158.29V127.71q3,.72,6,1.4,4.37,7.37,8.75,14.64,4.39-5.5,8.79-11.11,3,.54,6.09,1v30.58q-2.75-.45-5.49-.93V140.72q-4.7,5.92-9.39,11.74-4.68-7.69-9.35-15.52v22.61Q549.11,158.93,546.4,158.29Z"/><path class="cls-3" d="M583.78,165.44V134.86q10.17,1.47,20.38,2.41v4.95c-5-.46-9.92-1-14.88-1.65v7.74q6.45.84,12.9,1.47V155q-6.45-.63-12.9-1.47v7.75c5,.64,9.91,1.2,14.88,1.66v5Q593.95,166.9,583.78,165.44Z"/><path class="cls-3" d="M610.48,168.39V137.81c2,.16,4.09.3,6.14.43q4.46,6.67,8.9,13.24,4.44-6.21,8.9-12.52,3.08.06,6.15.07v30.58c-1.85,0-3.69,0-5.54-.06V146.94q-4.75,6.67-9.51,13.25-4.75-7-9.51-14v22.61C614.17,168.67,612.32,168.54,610.48,168.39Z"/><path class="cls-3" d="M647.29,154.29a22.42,22.42,0,0,1,.88-6.61,13.49,13.49,0,0,1,2.27-4.56,11.54,11.54,0,0,1,3.34-2.83,14,14,0,0,1,3.83-1.55,22.69,22.69,0,0,1,4-.53,22.94,22.94,0,0,1,4,.14,12.73,12.73,0,0,1,3.82,1.19,10.36,10.36,0,0,1,3.37,2.51,11.88,11.88,0,0,1,2.28,4.34,21.54,21.54,0,0,1,.88,6.53,23.1,23.1,0,0,1-.88,6.66,14.13,14.13,0,0,1-2.28,4.72,12.62,12.62,0,0,1-3.37,3,14,14,0,0,1-3.82,1.67,21.67,21.67,0,0,1-8.07.38,12.41,12.41,0,0,1-3.83-1.3,10.83,10.83,0,0,1-3.34-2.65,12.7,12.7,0,0,1-2.27-4.5A22.3,22.3,0,0,1,647.29,154.29Zm5.55-.15a20.09,20.09,0,0,0,.68,5.68,6.23,6.23,0,0,0,2,3.25,7.16,7.16,0,0,0,2.75,1.34,12.31,12.31,0,0,0,3.35.24,16.09,16.09,0,0,0,2.72-.34,8.2,8.2,0,0,0,2.37-1,6,6,0,0,0,2-1.95,11.55,11.55,0,0,0,1.27-3.27,20,20,0,0,0,.5-4.8,19.15,19.15,0,0,0-.68-5.6,5.91,5.91,0,0,0-2-3.18,7.22,7.22,0,0,0-2.75-1.26,13.38,13.38,0,0,0-3.36-.18,16.14,16.14,0,0,0-2.68.32,7.93,7.93,0,0,0-2.38,1,5.73,5.73,0,0,0-2,1.87,10.58,10.58,0,0,0-1.27,3.17A19.45,19.45,0,0,0,652.84,154.14Z"/><path class="cls-3" d="M682.66,167.6V137c3.92-.39,7.85-.84,11.76-1.34,3.59-.46,6.38,0,8.36,1.39s3,3.67,3,6.83c0,4.66-2.24,8-6.71,10q4,5.3,8,10.5c-2.21.36-4.42.69-6.63,1q-3.66-4.87-7.3-9.81c-1.66.21-3.31.41-5,.59V167C686.34,167.22,684.5,167.42,682.66,167.6Zm5.52-16.41c2-.23,4.07-.48,6.1-.74a8.93,8.93,0,0,0,4.39-1.59,4.73,4.73,0,0,0,1.59-4c0-1.88-.53-3.07-1.59-3.58a8,8,0,0,0-4.39-.39c-2,.26-4.07.51-6.1.74Z"/><path class="cls-3" d="M708.57,133.61q3.31-.56,6.62-1.15,4,5.49,8,10.89,4-7,8-14.12,3.28-.73,6.57-1.52Q731.9,137.85,726,147.82v13.12q-2.73.57-5.46,1.1V148.93Q714.56,141.35,708.57,133.61Z"/><path class="cls-3" d="M593,319.31V288.73Q598.2,290,603.44,291c4.71.88,8.3,2.69,10.75,5.61s3.68,6.86,3.68,11.87-1.22,8.65-3.67,10.92-6,3.06-10.76,2.19Q598.19,320.55,593,319.31Zm5.44-3.72c1.67.35,3.33.69,5,1,3.16.58,5.44.13,6.84-1.27s2.09-3.94,2.09-7.59-.7-6.44-2.09-8.26-3.68-3-6.84-3.57c-1.67-.31-3.33-.64-5-1Z"/><path class="cls-3" d="M624.65,324.36V293.78c1.85.15,3.69.28,5.54.38v30.58C628.34,324.64,626.5,324.51,624.65,324.36Z"/><path class="cls-3" d="M636.79,303a7.62,7.62,0,0,1,3.14-6.65,13.92,13.92,0,0,1,7.84-2.35,18.75,18.75,0,0,1,8.27,1.72v5.39a13.87,13.87,0,0,0-7.62-1.93,10.11,10.11,0,0,0-4.31,1,2.93,2.93,0,0,0-1.77,2.77,2.61,2.61,0,0,0,1.61,2.37,16.24,16.24,0,0,0,3.9,1.37,47.19,47.19,0,0,1,4.59,1.3,8.11,8.11,0,0,1,3.92,2.85,8.92,8.92,0,0,1,1.61,5.58,7.83,7.83,0,0,1-3.08,6.24,12,12,0,0,1-7.53,2.68,17.91,17.91,0,0,1-10.16-2.52v-5.56a13.74,13.74,0,0,0,8.88,2.92c4.24-.1,6.35-1.42,6.35-3.75a3.27,3.27,0,0,0-1.15-2.59,6.87,6.87,0,0,0-2.9-1.43c-1.17-.3-2.43-.66-3.77-1.1a33.81,33.81,0,0,1-3.76-1.46,7,7,0,0,1-2.91-2.55A7.62,7.62,0,0,1,636.79,303Z"/><path class="cls-3" d="M664.24,323.78V293.2q2.76-.3,5.51-.69v12.95q5.78-7.27,11.51-14.86c2.45-.48,4.89-1,7.32-1.57q-6.09,8.13-12.24,15.9,6.78,7.41,13.5,14.38c-2.26.54-4.53,1.05-6.8,1.51q-5.1-5.58-10.22-11.42l-3.07,3.8v9.9Q667,323.48,664.24,323.78Z"/><path class="cls-2" d="M553.15,490.68s-9.1,13.78,8.78,16.59c1.75.22,14.7,1.57,18.05,5.81,0,0-.31-7.32-10.83-11.64S554.31,496.05,553.15,490.68Z"/><path class="cls-2" d="M562,461s-25.46,15.52-1.47,31c4.63,3,21.35,11.37,20.86,19.07,0,0,10.14-15-4.67-24.45C561.49,476.89,557.68,466.58,562,461Z"/><path class="cls-2" d="M588.3,476.19c-10.91-11.44-13.94-18.49-9.28-27.64,0,0-32.57,12.53-.41,34.77,11.52,8,9.59,16.08,9.59,16.38C590,497.82,599.2,487.62,588.3,476.19Z"/><text class="cls-4" transform="translate(612.86 497.55)"><tspan class="cls-5">N</tspan><tspan class="cls-6" x="31.86" y="0">O</tspan><tspan class="cls-7" x="63.74" y="0">D</tspan><tspan x="92.58" y="0">E</tspan></text><path class="cls-1" d="M160.92,19.18C92.7,19.18,22.14,34.64,22.14,60.52V388a15.46,15.46,0,0,0,3,8.93,25.69,25.69,0,0,0,3.37,3.92c17.65,17.05,70.87,28.5,132.44,28.5s114.85-11.45,132.47-28.48a25.52,25.52,0,0,0,3.41-3.95,15.46,15.46,0,0,0,3-8.92V60.52C299.76,34.64,229.16,19.18,160.92,19.18Z"/><path class="cls-2" d="M256.05,26.62c-25.77-7-60.44-11-95.13-11s-69.34,4-95.09,11c-30.16,8.18-46.09,19.8-46.09,33.6V170a18.88,18.88,0,0,0,3.59,10.92,28.28,28.28,0,0,0,3.83,4.44C45.25,202.79,99,214.55,160.92,214.55s115.72-11.75,133.83-29.24a30,30,0,0,0,3.82-4.44A18.83,18.83,0,0,0,302.16,170V60.22C302.16,46.42,286.22,34.8,256.05,26.62Zm32.13,147a17,17,0,0,1-2.19,2.53c-15.45,14.93-68,25.74-125.07,25.74S51.35,191,35.91,176.13a17.05,17.05,0,0,1-2.19-2.55,6.37,6.37,0,0,1-1.3-3.63V79.86a71.53,71.53,0,0,0,9.43,5.38l.15.07c1.72.82,3.51,1.62,5.4,2.4l.47.19c1.84.74,3.73,1.47,5.72,2.17.23.09.48.17.72.25C56,90.9,57.72,91.47,59.5,92l1.62.5c1.68.51,3.42,1,5.19,1.47l2.37.64c1.7.44,3.44.86,5.2,1.28,1,.23,2,.47,3,.69q2.55.57,5.19,1.1l3.47.67c1.37.26,2.75.51,4.15.75,1.58.27,3.17.54,4.78.79,1.29.21,2.6.4,3.91.6l5.13.71,4.45.56c1.33.16,2.67.32,4,.46q3,.33,6,.61l3,.28c2.42.21,4.87.4,7.33.57l2.64.17q4,.25,8,.44l2,.09q4.38.18,8.85.29l1.18,0c3.24.06,6.5.1,9.79.1s6.54,0,9.78-.1l1.2,0c3-.06,5.91-.16,8.83-.28l2-.09q4-.18,8-.44l2.65-.17c2.45-.17,4.89-.36,7.3-.57l3.13-.28c2-.19,3.92-.38,5.85-.59l4.2-.49c1.47-.17,2.93-.36,4.38-.55,1.75-.23,3.49-.47,5.2-.72l3.85-.58c1.63-.26,3.25-.53,4.84-.81l4.12-.74,3.49-.67c1.76-.36,3.49-.72,5.19-1.1l3-.69q2.67-.63,5.24-1.29l2.29-.61c1.85-.5,3.67-1,5.43-1.54l1.33-.42q2.79-.87,5.42-1.78l.56-.19c2-.72,4-1.47,5.86-2.23l.32-.13q2.9-1.2,5.53-2.46h0a69.32,69.32,0,0,0,9.48-5.4V170A6.41,6.41,0,0,1,288.18,173.59ZM160.92,28.31c79.65,0,128.55,18.59,128.55,31.91a6.74,6.74,0,0,1-1.31,3.68c-5.58,8.23-25.49,16.63-54.9,22.1l-.25,0-3.34.59-3.48.58h0A412.83,412.83,0,0,1,171.94,92l-1.84,0q-1.74,0-3.48.06c-1.89,0-3.79,0-5.7,0s-3.81,0-5.7,0q-1.74,0-3.48-.06l-1.84,0a411.31,411.31,0,0,1-54.11-4.76l-.23,0c-1.11-.17-2.2-.36-3.29-.55s-2.38-.41-3.55-.63h0c-29.4-5.46-49.32-13.86-54.92-22.09a6.76,6.76,0,0,1-1.33-3.7C32.42,46.9,81.31,28.31,160.92,28.31Z"/><path class="cls-2" d="M296.22,163.58a5.87,5.87,0,0,0-5.87,5.86,7.18,7.18,0,0,1-1.38,3.94c-5.06,7.49-21.15,14.8-44.15,20.07-23.89,5.48-53.69,8.49-83.9,8.49s-60-3-83.86-8.48C54.08,188.19,38,180.88,33,173.41a7.23,7.23,0,0,1-1.4-4,5.87,5.87,0,0,0-11.73,0V388.68a18.45,18.45,0,0,0,3.52,10.68,28.58,28.58,0,0,0,3.75,4.35c9,8.72,26.65,16.09,51,21.32,24,5.16,52.62,7.88,82.87,7.88s58.93-2.72,82.91-7.87c24.31-5.23,41.93-12.6,50.95-21.3a29.44,29.44,0,0,0,3.8-4.41,18.41,18.41,0,0,0,3.5-10.65V169.44A5.87,5.87,0,0,0,296.22,163.58Zm-5.87,225.1a6.89,6.89,0,0,1-1.38,3.91,17.35,17.35,0,0,1-2.27,2.64l0,0c-7.48,7.23-24,13.8-46.43,18.5-22.83,4.78-51,7.42-79.32,7.42s-56.46-2.64-79.28-7.42c-22.45-4.71-38.94-11.29-46.44-18.53l0,0A16.64,16.64,0,0,1,33,392.62a6.91,6.91,0,0,1-1.4-3.94V188.2c9.62,7,25,12.89,45.1,17.33,24.15,5.33,53.29,8.15,84.27,8.15s60.14-2.82,84.29-8.15c20.11-4.44,35.51-10.37,45.14-17.33Z"/><path class="cls-3" d="M67,158.29V127.71q3,.72,6,1.4,4.36,7.37,8.76,14.64,4.38-5.5,8.78-11.11,3,.54,6.09,1v30.58q-2.74-.45-5.48-.93V140.72q-4.71,5.92-9.39,11.74-4.69-7.69-9.36-15.52v22.61Z"/><path class="cls-3" d="M104.32,165.44V134.86q10.17,1.47,20.39,2.41v4.95q-7.45-.69-14.88-1.65v7.74q6.44.84,12.9,1.47V155q-6.47-.63-12.9-1.47v7.75q7.42,1,14.88,1.66v5Q114.5,166.9,104.32,165.44Z"/><path class="cls-3" d="M131,168.39V137.81q3.07.24,6.15.43,4.44,6.67,8.89,13.24,4.45-6.21,8.9-12.52,3.09.06,6.16.07v30.58c-1.85,0-3.7,0-5.55-.06V146.94q-4.75,6.67-9.51,13.25-4.76-7-9.5-14v22.61C134.71,168.67,132.87,168.54,131,168.39Z"/><path class="cls-3" d="M167.84,154.29a22.42,22.42,0,0,1,.88-6.61,13.49,13.49,0,0,1,2.26-4.56,11.45,11.45,0,0,1,3.35-2.83,13.83,13.83,0,0,1,3.83-1.55,24.49,24.49,0,0,1,8.06-.39,12.78,12.78,0,0,1,3.83,1.19,10.22,10.22,0,0,1,3.36,2.51,11.88,11.88,0,0,1,2.29,4.34,21.88,21.88,0,0,1,.87,6.53,23.47,23.47,0,0,1-.87,6.66,14.13,14.13,0,0,1-2.29,4.72,12.58,12.58,0,0,1-3.36,3,14,14,0,0,1-3.83,1.67,21.63,21.63,0,0,1-8.06.38,12.24,12.24,0,0,1-3.83-1.3,10.75,10.75,0,0,1-3.35-2.65,12.7,12.7,0,0,1-2.26-4.5A22.3,22.3,0,0,1,167.84,154.29Zm5.54-.15a19.7,19.7,0,0,0,.69,5.68,6.16,6.16,0,0,0,2,3.25,7.09,7.09,0,0,0,2.75,1.34,12.24,12.24,0,0,0,3.34.24,16.36,16.36,0,0,0,2.73-.34,8.27,8.27,0,0,0,2.36-1,6,6,0,0,0,2-1.95,11.26,11.26,0,0,0,1.27-3.27,20,20,0,0,0,.51-4.8,19.11,19.11,0,0,0-.69-5.6,5.91,5.91,0,0,0-2-3.18,7.18,7.18,0,0,0-2.74-1.26,13.5,13.5,0,0,0-3.37-.18,16.28,16.28,0,0,0-2.68.32,7.93,7.93,0,0,0-2.38,1,5.73,5.73,0,0,0-2,1.87,10.87,10.87,0,0,0-1.26,3.17A19.41,19.41,0,0,0,173.38,154.14Z"/><path class="cls-3" d="M203.2,167.6V137q5.9-.59,11.77-1.34c3.59-.46,6.37,0,8.36,1.39s3,3.67,3,6.83c0,4.66-2.23,8-6.71,10q4,5.3,8,10.5c-2.21.36-4.43.69-6.64,1q-3.64-4.87-7.3-9.81c-1.65.21-3.3.41-5,.59V167C206.88,167.22,205,167.42,203.2,167.6Zm5.52-16.41q3.06-.34,6.1-.74a8.93,8.93,0,0,0,4.39-1.59,4.73,4.73,0,0,0,1.59-4c0-1.88-.53-3.07-1.59-3.58a8,8,0,0,0-4.39-.39q-3,.39-6.1.74Z"/><path class="cls-3" d="M229.11,133.61q3.31-.56,6.63-1.15,4,5.49,8,10.89,4-7,8-14.12,3.28-.73,6.56-1.52-5.89,10.14-11.81,20.11v13.12q-2.73.57-5.47,1.1V148.93Q235.1,141.35,229.11,133.61Z"/><path class="cls-3" d="M113.53,319.31V288.73Q118.74,290,124,291c4.7.88,8.3,2.69,10.75,5.61s3.67,6.86,3.68,11.87-1.23,8.65-3.67,10.92-6,3.06-10.76,2.19Q118.74,320.55,113.53,319.31Zm5.45-3.72c1.66.35,3.33.69,5,1,3.16.58,5.44.13,6.83-1.27s2.09-3.94,2.09-7.59-.69-6.44-2.09-8.26-3.67-3-6.83-3.57c-1.67-.31-3.34-.64-5-1Z"/><path class="cls-3" d="M145.2,324.36V293.78c1.84.15,3.69.28,5.54.38v30.58C148.89,324.64,147,324.51,145.2,324.36Z"/><path class="cls-3" d="M157.34,303a7.61,7.61,0,0,1,3.13-6.65,14,14,0,0,1,7.84-2.35,18.72,18.72,0,0,1,8.27,1.72v5.39a13.84,13.84,0,0,0-7.61-1.93,10.12,10.12,0,0,0-4.32,1,2.93,2.93,0,0,0-1.77,2.77,2.61,2.61,0,0,0,1.61,2.37,16.56,16.56,0,0,0,3.9,1.37A47.37,47.37,0,0,1,173,308a8.15,8.15,0,0,1,3.92,2.85,8.91,8.91,0,0,1,1.6,5.58,7.8,7.8,0,0,1-3.08,6.24,12,12,0,0,1-7.52,2.68,17.92,17.92,0,0,1-10.17-2.52v-5.56a13.77,13.77,0,0,0,8.88,2.92c4.24-.1,6.36-1.42,6.36-3.75a3.27,3.27,0,0,0-1.15-2.59,6.91,6.91,0,0,0-2.91-1.43c-1.17-.3-2.42-.66-3.76-1.1a34,34,0,0,1-3.77-1.46,7,7,0,0,1-2.9-2.55A7.54,7.54,0,0,1,157.34,303Z"/><path class="cls-3" d="M184.78,323.78V293.2q2.76-.3,5.52-.69v12.95q5.77-7.27,11.51-14.86c2.44-.48,4.88-1,7.31-1.57q-6.09,8.13-12.23,15.9,6.78,7.41,13.49,14.38c-2.26.54-4.52,1.05-6.79,1.51q-5.1-5.58-10.23-11.42l-3.06,3.8v9.9Q187.54,323.48,184.78,323.78Z"/><path class="cls-2" d="M73.69,490.68s-9.1,13.78,8.78,16.59c1.75.22,14.71,1.57,18,5.81,0,0-.31-7.32-10.83-11.64S74.86,496.05,73.69,490.68Z"/><path class="cls-2" d="M82.55,461s-25.45,15.52-1.47,31c4.63,3,21.36,11.37,20.87,19.07,0,0,10.13-15-4.67-24.45C82,476.89,78.22,466.58,82.55,461Z"/><path class="cls-2" d="M108.84,476.19c-10.9-11.44-13.93-18.49-9.27-27.64,0,0-32.58,12.53-.42,34.77,11.52,8,9.59,16.08,9.6,16.38C110.57,497.82,119.74,487.62,108.84,476.19Z"/><text class="cls-4" transform="translate(133.4 497.55)"><tspan class="cls-5">N</tspan><tspan class="cls-6" x="31.86" y="0">O</tspan><tspan class="cls-7" x="63.74" y="0">D</tspan><tspan x="92.58" y="0">E</tspan></text><path class="cls-1" d="M400.64,95.33c-68.21,0-138.77,15.46-138.77,41.34V464.16a15.39,15.39,0,0,0,3,8.93,25.69,25.69,0,0,0,3.37,3.92c17.65,17.05,70.87,28.5,132.43,28.5S515.5,494.06,533.12,477a25.52,25.52,0,0,0,3.41-3.95,15.46,15.46,0,0,0,3-8.92V136.67C539.49,110.79,468.89,95.33,400.64,95.33Z"/><path class="cls-2" d="M495.77,102.77c-25.76-7-60.44-11-95.13-11s-69.33,4-95.08,11c-30.16,8.18-46.1,19.8-46.1,33.6V246.1a18.82,18.82,0,0,0,3.6,10.92,28.77,28.77,0,0,0,3.82,4.44C285,278.94,338.74,290.7,400.64,290.7S516.37,279,534.47,261.46a28.84,28.84,0,0,0,3.82-4.44,18.84,18.84,0,0,0,3.6-10.92V136.37C541.89,122.57,525.94,111,495.77,102.77Zm32.14,147a17,17,0,0,1-2.19,2.53C510.27,267.2,457.68,278,400.64,278s-109.57-10.82-125-25.73a16.54,16.54,0,0,1-2.2-2.55,6.43,6.43,0,0,1-1.29-3.63V156a70.89,70.89,0,0,0,9.43,5.38l.15.07q2.56,1.23,5.4,2.4l.47.19c1.83.74,3.73,1.47,5.72,2.17l.71.25c1.68.58,3.42,1.15,5.2,1.71l1.62.5c1.68.51,3.42,1,5.18,1.47l2.38.64c1.69.44,3.43.86,5.2,1.28,1,.23,2,.47,3,.69q2.57.57,5.2,1.1l3.46.67c1.37.26,2.76.51,4.16.75,1.57.27,3.17.54,4.78.79,1.29.21,2.6.4,3.91.6l5.13.71,4.44.56c1.34.16,2.68.32,4,.46q3,.33,6,.61l3.06.28q3.63.32,7.33.57l2.64.17q4,.25,8,.44l2,.09q4.4.18,8.86.29l1.17,0c3.24.06,6.5.1,9.79.1s6.55,0,9.78-.1l1.21,0c3-.06,5.91-.16,8.83-.28l2-.09q4-.18,8-.44l2.64-.17q3.69-.26,7.31-.57l3.13-.28c2-.19,3.92-.38,5.85-.59l4.2-.49c1.47-.17,2.93-.36,4.38-.55,1.75-.23,3.48-.47,5.2-.72l3.85-.58c1.63-.26,3.24-.53,4.84-.81l4.12-.74c1.17-.22,2.34-.44,3.48-.67,1.76-.36,3.49-.72,5.2-1.1l3-.69c1.78-.42,3.54-.85,5.25-1.29l2.29-.61c1.85-.5,3.67-1,5.43-1.54l1.33-.42q2.79-.87,5.42-1.78l.56-.19c2-.72,4-1.47,5.86-2.23l.31-.13q2.91-1.2,5.53-2.46h0a70.54,70.54,0,0,0,9.48-5.4V246.1A6.41,6.41,0,0,1,527.91,249.74ZM400.64,104.46c79.65,0,128.56,18.59,128.56,31.91a6.74,6.74,0,0,1-1.31,3.68c-5.58,8.23-25.49,16.63-54.9,22.1l-.25,0-3.34.59-3.48.58h0a412.84,412.84,0,0,1-54.24,4.77l-1.83,0-3.48.06c-1.89,0-3.79,0-5.71,0s-3.81,0-5.69,0c-1.17,0-2.32,0-3.48-.06l-1.84,0a411,411,0,0,1-54.11-4.76l-.23,0c-1.11-.17-2.2-.36-3.29-.55s-2.38-.41-3.55-.63h-.06c-29.39-5.46-49.31-13.86-54.92-22.09a6.81,6.81,0,0,1-1.32-3.7C272.15,123.05,321,104.46,400.64,104.46Z"/><path class="cls-2" d="M535.94,239.73a5.88,5.88,0,0,0-5.87,5.86,7.16,7.16,0,0,1-1.37,3.94c-5.06,7.49-21.15,14.8-44.15,20.07-23.89,5.48-53.69,8.49-83.91,8.49s-60-3-83.85-8.48c-23-5.27-39.07-12.58-44.11-20.05a7.23,7.23,0,0,1-1.4-4,5.87,5.87,0,0,0-11.74,0V464.83a18.47,18.47,0,0,0,3.53,10.68,28.53,28.53,0,0,0,3.74,4.35c9,8.72,26.66,16.09,51,21.32,24,5.16,52.61,7.88,82.86,7.88s58.94-2.72,82.91-7.87c24.32-5.23,41.94-12.6,51-21.3a28.83,28.83,0,0,0,3.79-4.41,18.36,18.36,0,0,0,3.51-10.65V245.59A5.87,5.87,0,0,0,535.94,239.73Zm-5.87,225.1a6.88,6.88,0,0,1-1.37,3.91,17.4,17.4,0,0,1-2.28,2.64l0,0c-7.48,7.23-24,13.8-46.43,18.5-22.83,4.78-51,7.42-79.32,7.42s-56.45-2.64-79.27-7.42c-22.45-4.71-38.95-11.29-46.44-18.53l0,0a16.64,16.64,0,0,1-2.23-2.59,6.91,6.91,0,0,1-1.4-3.94V264.35c9.62,7,25,12.89,45.1,17.33,24.15,5.33,53.28,8.15,84.26,8.15s60.14-2.82,84.3-8.15c20.11-4.44,35.51-10.37,45.13-17.33Z"/><path class="cls-3" d="M306.67,234.44V203.86q3,.72,6,1.4,4.37,7.37,8.76,14.64,4.38-5.51,8.78-11.11,3,.54,6.09,1v30.58q-2.74-.45-5.49-.93V216.87q-4.69,5.92-9.38,11.74-4.7-7.7-9.36-15.52V235.7C310.3,235.29,308.48,234.87,306.67,234.44Z"/><path class="cls-3" d="M344.05,241.59V211q10.17,1.47,20.38,2.41v5q-7.44-.69-14.87-1.65v7.74q6.44.84,12.9,1.47v5.19q-6.46-.63-12.9-1.46v7.74q7.43,1,14.87,1.66V244Q354.22,243.05,344.05,241.59Z"/><path class="cls-3" d="M370.75,244.54V214q3.08.24,6.14.43,4.46,6.68,8.9,13.24,4.45-6.21,8.9-12.52,3.07.06,6.16.07v30.58c-1.85,0-3.7,0-5.55-.06V223.09q-4.76,6.67-9.51,13.25-4.76-7-9.5-14v22.61C374.44,244.82,372.6,244.69,370.75,244.54Z"/><path class="cls-3" d="M407.56,230.44a22.75,22.75,0,0,1,.88-6.61,13.49,13.49,0,0,1,2.27-4.56,11.54,11.54,0,0,1,3.34-2.83,13.88,13.88,0,0,1,3.84-1.55,22.58,22.58,0,0,1,4-.53,22.94,22.94,0,0,1,4,.14,13.08,13.08,0,0,1,3.83,1.19,10.43,10.43,0,0,1,3.36,2.51,11.73,11.73,0,0,1,2.28,4.34,21.54,21.54,0,0,1,.88,6.53,23.1,23.1,0,0,1-.88,6.66,13.94,13.94,0,0,1-2.28,4.72,12.73,12.73,0,0,1-3.36,3,14,14,0,0,1-3.83,1.67,20.93,20.93,0,0,1-4,.57,20.19,20.19,0,0,1-4-.19,12.38,12.38,0,0,1-3.84-1.3,10.83,10.83,0,0,1-3.34-2.65,12.7,12.7,0,0,1-2.27-4.5A22.59,22.59,0,0,1,407.56,230.44Zm5.55-.15a19.7,19.7,0,0,0,.69,5.68,6.16,6.16,0,0,0,2,3.25,7.33,7.33,0,0,0,2.75,1.35,12.8,12.8,0,0,0,3.35.23,16.09,16.09,0,0,0,2.72-.34,8.2,8.2,0,0,0,2.37-1,6,6,0,0,0,2-2,11.55,11.55,0,0,0,1.27-3.27,20,20,0,0,0,.51-4.8,19.11,19.11,0,0,0-.69-5.6,5.91,5.91,0,0,0-2.05-3.18,7.25,7.25,0,0,0-2.74-1.26,13.5,13.5,0,0,0-3.37-.18,16.14,16.14,0,0,0-2.68.32,7.93,7.93,0,0,0-2.38,1,5.82,5.82,0,0,0-2,1.87,10.59,10.59,0,0,0-1.26,3.17A19.41,19.41,0,0,0,413.11,230.29Z"/><path class="cls-3" d="M442.93,243.75V213.17q5.9-.58,11.77-1.34c3.58-.46,6.37,0,8.35,1.39s3,3.67,3,6.83c0,4.66-2.23,8-6.71,10q4,5.29,8,10.5c-2.21.36-4.43.69-6.64,1q-3.65-4.87-7.3-9.81c-1.65.21-3.31.41-5,.59v10.8C446.61,243.37,444.77,243.57,442.93,243.75Zm5.52-16.41q3.06-.34,6.1-.74a8.93,8.93,0,0,0,4.39-1.59,4.73,4.73,0,0,0,1.59-4c0-1.88-.53-3.07-1.59-3.58a8,8,0,0,0-4.39-.39q-3,.39-6.1.74Z"/><path class="cls-3" d="M468.84,209.76q3.32-.56,6.62-1.15,4,5.49,8.05,10.89,4-7,8-14.12,3.28-.74,6.56-1.52Q492.17,214,486.24,224v13.12q-2.73.57-5.46,1.1V225.08Q474.83,217.51,468.84,209.76Z"/><path class="cls-3" d="M353.26,395.46V364.88q5.21,1.25,10.45,2.22c4.71.88,8.3,2.69,10.75,5.61s3.68,6.86,3.68,11.87-1.22,8.65-3.67,10.92-6,3.06-10.76,2.19Q358.48,396.7,353.26,395.46Zm5.45-3.72c1.66.35,3.32.69,5,1,3.16.58,5.45.13,6.84-1.26s2.09-4,2.09-7.6-.7-6.43-2.09-8.26-3.68-3-6.84-3.57c-1.67-.31-3.33-.64-5-1Z"/><path class="cls-3" d="M384.93,400.51V369.93c1.84.15,3.69.28,5.53.38v30.58C388.62,400.79,386.77,400.66,384.93,400.51Z"/><path class="cls-3" d="M397.06,379.16a7.63,7.63,0,0,1,3.14-6.66,13.86,13.86,0,0,1,7.84-2.34,18.57,18.57,0,0,1,8.27,1.71v5.39a13.84,13.84,0,0,0-7.61-1.93,10.12,10.12,0,0,0-4.32,1,2.93,2.93,0,0,0-1.77,2.77,2.6,2.6,0,0,0,1.61,2.37,16.56,16.56,0,0,0,3.9,1.37,47.37,47.37,0,0,1,4.6,1.3,8.08,8.08,0,0,1,3.91,2.85,8.85,8.85,0,0,1,1.61,5.58,7.8,7.8,0,0,1-3.08,6.24,12,12,0,0,1-7.52,2.68,17.92,17.92,0,0,1-10.17-2.52v-5.56a13.76,13.76,0,0,0,8.88,2.92c4.24-.1,6.36-1.42,6.36-3.75a3.3,3.3,0,0,0-1.15-2.59,7,7,0,0,0-2.91-1.43c-1.17-.3-2.43-.66-3.76-1.1a33.24,33.24,0,0,1-3.77-1.46,7,7,0,0,1-2.91-2.55A7.67,7.67,0,0,1,397.06,379.16Z"/><path class="cls-3" d="M424.51,399.93V369.35q2.76-.3,5.51-.68v12.94q5.78-7.28,11.52-14.86c2.44-.48,4.88-1,7.31-1.57q-6.09,8.13-12.23,15.9,6.76,7.41,13.49,14.38c-2.26.54-4.53,1.05-6.8,1.51q-5.08-5.58-10.22-11.42-1.53,1.9-3.07,3.8v9.9Q427.28,399.63,424.51,399.93Z"/><path class="cls-2" d="M313.42,566.83s-9.1,13.78,8.78,16.59c1.75.22,14.7,1.57,18.05,5.81,0,0-.31-7.32-10.83-11.64S314.59,572.2,313.42,566.83Z"/><path class="cls-2" d="M322.28,537.15s-25.46,15.52-1.47,31c4.63,3,21.36,11.37,20.86,19.07,0,0,10.14-15-4.67-24.45C321.77,553,318,542.73,322.28,537.15Z"/><path class="cls-2" d="M348.57,552.34c-10.9-11.44-13.93-18.49-9.27-27.64,0,0-32.58,12.53-.42,34.77,11.52,8,9.59,16.08,9.6,16.38C350.3,574,359.47,563.77,348.57,552.34Z"/><text class="cls-4" transform="translate(373.13 573.7)"><tspan class="cls-5">N</tspan><tspan class="cls-6" x="31.86" y="0">O</tspan><tspan class="cls-7" x="63.74" y="0">D</tspan><tspan x="92.58" y="0">E</tspan></text></svg>