<svg id="Capa_1" data-name="Capa 1" xmlns="http://www.w3.org/2000/svg" viewBox="0 0 1006.75 884.09"><defs><style>.cls-1{fill:#fff;}.cls-2{fill:#e5282a;}.cls-3,.cls-4{fill:#1d1d1b;}.cls-4{font-size:43.36px;font-family:MavenProMedium, Maven Pro;}.cls-5{letter-spacing:0em;}.cls-6{letter-spacing:-0.01em;}.cls-7{letter-spacing:-0.01em;}</style></defs><path class="cls-1" d="M743.07,158.8c-68.22,0-138.78,15.46-138.78,41.34V527.63a15.46,15.46,0,0,0,3,8.93,25.69,25.69,0,0,0,3.37,3.92c17.65,17,70.87,28.5,132.44,28.5s114.85-11.45,132.47-28.48a25.52,25.52,0,0,0,3.41-4,15.39,15.39,0,0,0,3-8.92V200.14C881.91,174.26,811.32,158.8,743.07,158.8Z"/><path class="cls-2" d="M838.2,166.24c-25.77-7-60.44-11-95.13-11s-69.33,4-95.09,11c-30.15,8.18-46.09,19.8-46.09,33.6V309.57a18.88,18.88,0,0,0,3.59,10.92,28.81,28.81,0,0,0,3.83,4.44c18.09,17.48,71.86,29.24,133.76,29.24S858.8,342.42,876.9,324.93a29.4,29.4,0,0,0,3.82-4.44,18.86,18.86,0,0,0,3.6-10.92V199.84C884.32,186,868.37,174.42,838.2,166.24Zm32.13,147a16,16,0,0,1-2.19,2.54c-15.45,14.93-68,25.74-125.07,25.74s-109.57-10.82-125-25.73a16.54,16.54,0,0,1-2.2-2.55,6.43,6.43,0,0,1-1.29-3.63V219.48a70.74,70.74,0,0,0,9.42,5.38l.15.07q2.58,1.23,5.41,2.4l.47.19c1.83.74,3.72,1.47,5.71,2.17.23.09.48.17.72.25q2.52.87,5.19,1.71l1.63.5c1.68.51,3.41,1,5.18,1.47l2.37.64c1.7.44,3.44.86,5.21,1.28l3,.69c1.7.38,3.43.74,5.19,1.1l3.47.67c1.37.26,2.75.5,4.15.75,1.58.27,3.17.54,4.78.79,1.3.21,2.6.4,3.92.6l5.12.71,4.45.56,4,.46q3,.33,6,.61l3.06.28c2.41.21,4.86.4,7.33.57l2.63.17c2.66.17,5.33.32,8,.44l2,.09c2.93.12,5.87.22,8.85.28l1.18,0c3.24.06,6.5.1,9.79.1s6.54,0,9.78-.1l1.2,0c3-.06,5.91-.16,8.83-.28l2-.09q4.05-.18,8-.44l2.64-.17q3.69-.26,7.3-.57l3.13-.28c2-.19,3.92-.38,5.85-.59l4.2-.49c1.48-.17,2.93-.36,4.38-.55,1.76-.23,3.49-.47,5.2-.72,1.3-.19,2.58-.38,3.85-.59,1.64-.25,3.25-.52,4.84-.8l4.12-.74c1.18-.22,2.34-.44,3.49-.68,1.76-.35,3.49-.72,5.19-1.09l3-.69q2.67-.63,5.25-1.29l2.28-.61c1.85-.5,3.67-1,5.43-1.54l1.33-.42q2.79-.87,5.42-1.78l.56-.19c2-.72,4-1.47,5.86-2.23l.32-.13q2.91-1.2,5.53-2.46h0a70.07,70.07,0,0,0,9.49-5.4v90.09A6.37,6.37,0,0,1,870.33,313.2ZM743.07,167.93c79.65,0,128.56,18.59,128.56,31.91a6.82,6.82,0,0,1-1.31,3.68c-5.58,8.23-25.5,16.63-54.91,22.1l-.25,0-3.34.59-3.48.58h0a410.9,410.9,0,0,1-54.23,4.78l-1.84,0-3.48.06c-1.89,0-3.78,0-5.7,0s-3.81,0-5.7,0l-3.48-.06-1.83,0a411.32,411.32,0,0,1-54.12-4.76l-.23,0-3.28-.55c-1.2-.2-2.39-.41-3.55-.63h-.06c-29.4-5.46-49.32-13.86-54.92-22.09a6.81,6.81,0,0,1-1.32-3.7C614.58,186.52,663.46,167.93,743.07,167.93Z"/><path class="cls-2" d="M878.37,303.2a5.87,5.87,0,0,0-5.87,5.86,7.18,7.18,0,0,1-1.38,3.94c-5,7.49-21.15,14.8-44.14,20.07-23.9,5.48-53.69,8.49-83.91,8.49s-60-3-83.86-8.49c-23-5.26-39.06-12.58-44.11-20a7.23,7.23,0,0,1-1.4-4,5.87,5.87,0,0,0-11.73,0V528.3A18.45,18.45,0,0,0,605.49,539a28.58,28.58,0,0,0,3.75,4.35c9,8.72,26.66,16.09,51,21.32,24,5.16,52.62,7.88,82.87,7.88S802,569.81,826,564.66c24.31-5.23,41.93-12.6,50.95-21.3a28.33,28.33,0,0,0,3.8-4.41,18.38,18.38,0,0,0,3.51-10.65V309.06A5.88,5.88,0,0,0,878.37,303.2ZM872.5,528.3a7,7,0,0,1-1.37,3.91,18,18,0,0,1-2.28,2.64l0,0c-7.48,7.22-24,13.8-46.43,18.5-22.83,4.78-51,7.42-79.32,7.42s-56.46-2.64-79.27-7.42c-22.46-4.71-38.95-11.29-46.44-18.53l0,0a17.2,17.2,0,0,1-2.23-2.59,6.91,6.91,0,0,1-1.4-3.94V327.82c9.62,7,25,12.89,45.11,17.33,24.14,5.33,53.28,8.15,84.26,8.15s60.14-2.82,84.29-8.15c20.11-4.44,35.51-10.37,45.14-17.33Z"/><path class="cls-3" d="M649.1,297.91V267.33q3,.72,6,1.4,4.38,7.36,8.76,14.64,4.4-5.5,8.79-11.11,3,.54,6.09,1v30.58c-1.84-.3-3.66-.61-5.49-.93V280.34q-4.71,5.93-9.39,11.74-4.68-7.69-9.35-15.52v22.61Q651.81,298.55,649.1,297.91Z"/><path class="cls-3" d="M686.47,305.06q0-15.29,0-30.58,10.17,1.47,20.39,2.41v4.95q-7.46-.69-14.88-1.66v7.75q6.45.84,12.9,1.47v5.19q-6.45-.63-12.9-1.47v7.75q7.42,1,14.88,1.66v4.94Q696.65,306.52,686.47,305.06Z"/><path class="cls-3" d="M713.18,308V277.43q3.06.24,6.14.43,4.44,6.67,8.89,13.24,4.45-6.21,8.91-12.52,3.07.06,6.15.07v30.58l-5.55-.06q0-11.3,0-22.61-4.76,6.68-9.51,13.25-4.74-7-9.5-14V308.4C716.87,308.28,715,308.15,713.18,308Z"/><path class="cls-3" d="M750,293.91a22.37,22.37,0,0,1,.88-6.61,13.49,13.49,0,0,1,2.26-4.56,11.58,11.58,0,0,1,3.35-2.83,13.83,13.83,0,0,1,3.83-1.55,24.49,24.49,0,0,1,8.06-.39,13,13,0,0,1,3.83,1.18,10.51,10.51,0,0,1,3.37,2.51,12.17,12.17,0,0,1,2.28,4.35,22.19,22.19,0,0,1,.88,6.53,23.46,23.46,0,0,1-.88,6.66,14.32,14.32,0,0,1-2.28,4.72,12.8,12.8,0,0,1-3.37,3,13.57,13.57,0,0,1-3.83,1.66,20,20,0,0,1-4,.57,20.25,20.25,0,0,1-4-.18,12.33,12.33,0,0,1-3.83-1.3,10.87,10.87,0,0,1-3.35-2.65,12.79,12.79,0,0,1-2.26-4.5A22.3,22.3,0,0,1,750,293.91Zm5.54-.15a19.7,19.7,0,0,0,.69,5.68,6.27,6.27,0,0,0,2,3.25A7.09,7.09,0,0,0,761,304a12.27,12.27,0,0,0,3.34.24,16.22,16.22,0,0,0,2.73-.34,8.27,8.27,0,0,0,2.36-1,6,6,0,0,0,2-1.95,11.54,11.54,0,0,0,1.28-3.27,20.64,20.64,0,0,0,.5-4.8,19.49,19.49,0,0,0-.68-5.6,5.94,5.94,0,0,0-2-3.19,7.26,7.26,0,0,0-2.75-1.25,13.47,13.47,0,0,0-3.37-.18,15.26,15.26,0,0,0-2.68.32,7.88,7.88,0,0,0-2.37,1,5.85,5.85,0,0,0-2,1.87A10.87,10.87,0,0,0,756,289,19.41,19.41,0,0,0,755.53,293.76Z"/><path class="cls-3" d="M785.35,307.22V276.64q5.89-.58,11.77-1.34c3.59-.46,6.37,0,8.36,1.39s3,3.67,3,6.83c0,4.65-2.23,8-6.71,10q4,5.29,8,10.5c-2.21.36-4.42.69-6.64,1q-3.64-4.87-7.3-9.81c-1.65.21-3.3.41-5,.59v10.79Q788.12,306.94,785.35,307.22Zm5.53-16.41q3-.35,6.1-.74a8.93,8.93,0,0,0,4.38-1.59,4.73,4.73,0,0,0,1.59-4c0-1.88-.52-3.07-1.59-3.58a8,8,0,0,0-4.38-.39q-3.06.39-6.1.74Z"/><path class="cls-3" d="M811.27,273.23c2.21-.37,4.41-.75,6.62-1.15q4,5.49,8.05,10.88,4-7,8-14.11,3.29-.74,6.57-1.52-5.9,10.14-11.82,20.11v13.12q-2.73.57-5.46,1.1V288.54Q817.24,281,811.27,273.23Z"/><path class="cls-3" d="M695.69,458.93V428.35q5.2,1.25,10.45,2.22c4.71.88,8.3,2.69,10.75,5.61s3.68,6.85,3.68,11.87-1.23,8.65-3.67,10.92-6,3.06-10.76,2.18Q700.89,460.18,695.69,458.93Zm5.44-3.72c1.66.35,3.33.68,5,1,3.16.58,5.44.13,6.84-1.27s2.09-3.94,2.09-7.59-.7-6.44-2.09-8.26-3.68-3-6.84-3.57c-1.67-.31-3.34-.64-5-1Z"/><path class="cls-3" d="M727.35,464V433.4c1.85.15,3.69.27,5.54.37v30.59C731,464.26,729.2,464.13,727.35,464Z"/><path class="cls-3" d="M739.49,442.62a7.61,7.61,0,0,1,3.13-6.65,14,14,0,0,1,7.85-2.35,18.68,18.68,0,0,1,8.26,1.72v5.39a13.82,13.82,0,0,0-7.61-1.93,10.12,10.12,0,0,0-4.32,1,2.93,2.93,0,0,0-1.76,2.77,2.58,2.58,0,0,0,1.61,2.37,16.24,16.24,0,0,0,3.9,1.37c1.52.35,3.05.78,4.59,1.3a8.11,8.11,0,0,1,3.92,2.85,8.92,8.92,0,0,1,1.61,5.58,7.83,7.83,0,0,1-3.08,6.24,12,12,0,0,1-7.53,2.68,18,18,0,0,1-10.16-2.52v-5.56a13.74,13.74,0,0,0,8.88,2.92c4.23-.1,6.35-1.42,6.35-3.75a3.27,3.27,0,0,0-1.15-2.59,7,7,0,0,0-2.9-1.44c-1.18-.29-2.43-.65-3.77-1.09a33.07,33.07,0,0,1-3.76-1.46,7,7,0,0,1-2.91-2.55A7.54,7.54,0,0,1,739.49,442.62Z"/><path class="cls-3" d="M766.94,463.4V432.82c1.84-.2,3.67-.43,5.51-.69v12.94q5.77-7.26,11.51-14.86c2.45-.47,4.88-1,7.31-1.56q-6.07,8.13-12.23,15.9,6.78,7.41,13.49,14.38-3.39.81-6.79,1.51-5.1-5.58-10.23-11.42l-3.06,3.8v9.89C770.61,463,768.78,463.2,766.94,463.4Z"/><path class="cls-2" d="M655.84,630.3s-9.1,13.78,8.78,16.59c1.75.22,14.71,1.57,18,5.81,0,0-.3-7.32-10.82-11.64S657,635.67,655.84,630.3Z"/><path class="cls-2" d="M664.7,600.62s-25.45,15.52-1.47,31c4.63,3,21.36,11.37,20.87,19.06,0,0,10.14-15-4.67-24.44C664.19,616.51,660.38,606.2,664.7,600.62Z"/><path class="cls-2" d="M691,615.8c-10.9-11.43-13.93-18.48-9.27-27.63,0,0-32.58,12.53-.42,34.77,11.52,8,9.59,16.08,9.6,16.38C692.72,637.44,701.9,627.24,691,615.8Z"/><text class="cls-4" transform="translate(715.55 637.17)"><tspan class="cls-5">N</tspan><tspan class="cls-6" x="31.86" y="0">O</tspan><tspan class="cls-7" x="63.74" y="0">D</tspan><tspan x="92.58" y="0">E</tspan></text><path class="cls-1" d="M263.61,158.8c-68.21,0-138.77,15.46-138.77,41.34V527.63a15.39,15.39,0,0,0,3,8.93,25.69,25.69,0,0,0,3.37,3.92c17.65,17,70.87,28.5,132.43,28.5s114.86-11.45,132.48-28.48a25.52,25.52,0,0,0,3.41-4,15.46,15.46,0,0,0,3-8.92V200.14C402.46,174.26,331.86,158.8,263.61,158.8Z"/><path class="cls-2" d="M358.74,166.24c-25.76-7-60.44-11-95.13-11s-69.33,4-95.08,11c-30.16,8.18-46.1,19.8-46.1,33.6V309.57a18.82,18.82,0,0,0,3.6,10.92,28.77,28.77,0,0,0,3.82,4.44c18.09,17.48,71.86,29.24,133.76,29.24s115.73-11.75,133.83-29.24a28.84,28.84,0,0,0,3.82-4.44,18.86,18.86,0,0,0,3.6-10.92V199.84C404.86,186,388.91,174.42,358.74,166.24Zm32.14,147a16.55,16.55,0,0,1-2.19,2.54c-15.45,14.93-68,25.74-125.08,25.74s-109.57-10.82-125-25.73a16.54,16.54,0,0,1-2.2-2.55,6.43,6.43,0,0,1-1.29-3.63V219.48a71.53,71.53,0,0,0,9.43,5.38l.15.07q2.56,1.23,5.4,2.4l.47.19c1.83.74,3.73,1.47,5.72,2.17l.71.25c1.68.58,3.42,1.15,5.2,1.71l1.62.5c1.68.51,3.42,1,5.18,1.47l2.38.64c1.69.44,3.43.86,5.2,1.28l3,.69c1.71.38,3.44.74,5.2,1.1l3.46.67c1.37.26,2.76.5,4.16.75,1.57.27,3.17.54,4.78.79,1.29.21,2.6.4,3.91.6l5.13.71,4.44.56,4,.46q3,.33,6,.61l3.06.28q3.63.31,7.33.57l2.64.17q4,.25,8,.44l2,.09c2.93.12,5.88.22,8.86.28l1.17,0c3.24.06,6.5.1,9.79.1s6.55,0,9.78-.1l1.21,0c3-.06,5.91-.16,8.83-.28l2-.09q4.05-.18,8-.44l2.64-.17q3.69-.26,7.31-.57l3.13-.28c2-.19,3.92-.38,5.85-.59l4.2-.49c1.47-.17,2.93-.36,4.38-.55,1.75-.23,3.48-.47,5.2-.72,1.29-.19,2.58-.38,3.85-.59,1.63-.25,3.24-.52,4.84-.8L339,238c1.17-.22,2.34-.44,3.48-.68,1.76-.35,3.49-.72,5.2-1.09l3-.69q2.69-.63,5.25-1.29l2.29-.61c1.85-.5,3.67-1,5.43-1.54l1.33-.42q2.79-.87,5.42-1.78l.56-.19c2-.72,4-1.47,5.86-2.23l.31-.13q2.91-1.2,5.53-2.46h0a70.54,70.54,0,0,0,9.48-5.4v90.09A6.36,6.36,0,0,1,390.88,313.2ZM263.61,167.93c79.65,0,128.56,18.59,128.56,31.91a6.74,6.74,0,0,1-1.31,3.68c-5.58,8.23-25.49,16.63-54.9,22.1l-.25,0-3.34.59-3.48.58h0a411.06,411.06,0,0,1-54.24,4.78l-1.83,0-3.48.06c-1.89,0-3.79,0-5.71,0s-3.81,0-5.69,0c-1.17,0-2.32,0-3.48-.06l-1.84,0a411,411,0,0,1-54.11-4.76l-.23,0-3.29-.55c-1.19-.2-2.38-.41-3.55-.63h-.06c-29.39-5.46-49.31-13.86-54.92-22.09a6.81,6.81,0,0,1-1.32-3.7C135.12,186.52,184,167.93,263.61,167.93Z"/><path class="cls-2" d="M398.91,303.2a5.88,5.88,0,0,0-5.87,5.86,7.16,7.16,0,0,1-1.37,3.94c-5.06,7.49-21.15,14.8-44.15,20.07-23.89,5.48-53.69,8.49-83.91,8.49s-60-3-83.85-8.49c-23-5.26-39.07-12.58-44.11-20a7.23,7.23,0,0,1-1.4-4,5.87,5.87,0,0,0-11.74,0V528.3A18.47,18.47,0,0,0,126,539a28.53,28.53,0,0,0,3.74,4.35c9,8.72,26.66,16.09,51,21.32,24,5.16,52.61,7.88,82.86,7.88s58.94-2.72,82.91-7.87c24.32-5.23,41.94-12.6,51-21.3a28.83,28.83,0,0,0,3.79-4.41,18.38,18.38,0,0,0,3.51-10.65V309.06A5.87,5.87,0,0,0,398.91,303.2ZM393,528.3a6.88,6.88,0,0,1-1.37,3.91,17.4,17.4,0,0,1-2.28,2.64l0,0c-7.48,7.22-24,13.8-46.43,18.5-22.83,4.78-51,7.42-79.32,7.42s-56.45-2.64-79.27-7.42c-22.45-4.71-39-11.29-46.44-18.53l0,0a16.64,16.64,0,0,1-2.23-2.59,6.91,6.91,0,0,1-1.4-3.94V327.82c9.62,7,25,12.89,45.1,17.33,24.15,5.33,53.28,8.15,84.26,8.15s60.14-2.82,84.3-8.15c20.11-4.44,35.51-10.37,45.13-17.33Z"/><path class="cls-3" d="M169.64,297.91V267.33q3,.72,6,1.4,4.37,7.36,8.76,14.64,4.38-5.5,8.78-11.11,3,.54,6.09,1v30.58l-5.49-.93V280.34q-4.69,5.93-9.38,11.74-4.69-7.69-9.36-15.52v22.61C173.27,298.76,171.45,298.34,169.64,297.91Z"/><path class="cls-3" d="M207,305.06V274.48q10.17,1.47,20.38,2.41v4.95q-7.44-.69-14.87-1.66v7.75q6.43.84,12.9,1.47v5.19q-6.47-.63-12.9-1.47v7.75q7.42,1,14.87,1.66v4.94Q217.19,306.52,207,305.06Z"/><path class="cls-3" d="M233.72,308V277.43q3.08.24,6.14.43,4.45,6.67,8.9,13.24,4.45-6.21,8.9-12.52,3.07.06,6.16.07v30.58l-5.55-.06V286.56q-4.75,6.68-9.51,13.25-4.75-7-9.5-14V308.4C237.41,308.28,235.57,308.15,233.72,308Z"/><path class="cls-3" d="M270.53,293.91a22.71,22.71,0,0,1,.88-6.61,13.49,13.49,0,0,1,2.27-4.56,11.54,11.54,0,0,1,3.34-2.83,13.88,13.88,0,0,1,3.84-1.55,22.58,22.58,0,0,1,4-.53,22.94,22.94,0,0,1,4,.14,13.13,13.13,0,0,1,3.83,1.18,10.58,10.58,0,0,1,3.36,2.51,11.86,11.86,0,0,1,2.28,4.35,21.54,21.54,0,0,1,.88,6.53,23.1,23.1,0,0,1-.88,6.66,13.94,13.94,0,0,1-2.28,4.72,12.91,12.91,0,0,1-3.36,3,13.82,13.82,0,0,1-3.83,1.66,21.92,21.92,0,0,1-8.06.39,12.38,12.38,0,0,1-3.84-1.3,10.83,10.83,0,0,1-3.34-2.65,12.79,12.79,0,0,1-2.27-4.5A22.64,22.64,0,0,1,270.53,293.91Zm5.55-.15a19.7,19.7,0,0,0,.69,5.68,6.2,6.2,0,0,0,2,3.25,7.16,7.16,0,0,0,2.75,1.34,12.35,12.35,0,0,0,3.35.24,16.09,16.09,0,0,0,2.72-.34,8.2,8.2,0,0,0,2.37-1,6,6,0,0,0,2-1.95,11.55,11.55,0,0,0,1.27-3.27,20.07,20.07,0,0,0,.51-4.8,19.11,19.11,0,0,0-.69-5.6,5.94,5.94,0,0,0-2.05-3.19,7.22,7.22,0,0,0-2.74-1.25,13.5,13.5,0,0,0-3.37-.18,15.15,15.15,0,0,0-2.68.32,7.93,7.93,0,0,0-2.38,1,5.73,5.73,0,0,0-2,1.87,10.34,10.34,0,0,0-1.26,3.17A19.41,19.41,0,0,0,276.08,293.76Z"/><path class="cls-3" d="M305.9,307.22V276.64q5.89-.58,11.77-1.34c3.59-.46,6.37,0,8.35,1.39s3,3.67,3,6.83c0,4.65-2.23,8-6.71,10q4,5.29,8,10.5c-2.21.36-4.43.69-6.64,1q-3.65-4.87-7.3-9.81c-1.65.21-3.31.41-5,.59v10.79Q308.66,306.94,305.9,307.22Zm5.52-16.41q3.06-.35,6.1-.74a8.93,8.93,0,0,0,4.39-1.59,4.73,4.73,0,0,0,1.59-4c0-1.88-.53-3.07-1.59-3.58a8,8,0,0,0-4.39-.39q-3,.39-6.1.74Z"/><path class="cls-3" d="M331.81,273.23q3.31-.56,6.62-1.15,4,5.49,8.05,10.88,4-7,8-14.11,3.28-.74,6.56-1.52-5.89,10.14-11.82,20.11v13.12q-2.73.57-5.46,1.1V288.54Q337.79,281,331.81,273.23Z"/><path class="cls-3" d="M216.23,458.93V428.35q5.21,1.25,10.45,2.22c4.71.88,8.3,2.69,10.75,5.61s3.68,6.85,3.68,11.87-1.22,8.65-3.67,10.92-6,3.06-10.76,2.18Q221.45,460.18,216.23,458.93Zm5.45-3.72q2.49.53,5,1c3.17.58,5.45.13,6.84-1.27s2.09-3.94,2.09-7.59-.7-6.44-2.09-8.26-3.68-3-6.84-3.57c-1.67-.31-3.33-.64-5-1Z"/><path class="cls-3" d="M247.9,464V433.4c1.84.15,3.69.27,5.53.37v30.59C251.59,464.26,249.74,464.13,247.9,464Z"/><path class="cls-3" d="M260,442.62a7.62,7.62,0,0,1,3.14-6.65,13.94,13.94,0,0,1,7.84-2.35,18.72,18.72,0,0,1,8.27,1.72v5.39a13.84,13.84,0,0,0-7.61-1.93,10.12,10.12,0,0,0-4.32,1,2.92,2.92,0,0,0-1.77,2.77,2.61,2.61,0,0,0,1.61,2.37,16.56,16.56,0,0,0,3.9,1.37,47.37,47.37,0,0,1,4.6,1.3,8.08,8.08,0,0,1,3.91,2.85,8.85,8.85,0,0,1,1.61,5.58,7.8,7.8,0,0,1-3.08,6.24,12,12,0,0,1-7.52,2.68,18,18,0,0,1-10.17-2.52v-5.56a13.77,13.77,0,0,0,8.88,2.92c4.24-.1,6.36-1.42,6.36-3.75a3.33,3.33,0,0,0-1.15-2.59,7.11,7.11,0,0,0-2.91-1.44c-1.17-.29-2.43-.65-3.76-1.09a33.24,33.24,0,0,1-3.77-1.46,7.11,7.11,0,0,1-2.91-2.55A7.7,7.7,0,0,1,260,442.62Z"/><path class="cls-3" d="M287.48,463.4V432.82q2.76-.3,5.51-.69v12.94q5.77-7.26,11.52-14.86c2.44-.47,4.88-1,7.31-1.56q-6.09,8.13-12.23,15.9,6.77,7.41,13.49,14.38-3.39.81-6.8,1.51-5.08-5.58-10.22-11.42-1.53,1.91-3.07,3.8v9.89Q290.25,463.1,287.48,463.4Z"/><path class="cls-2" d="M176.39,630.3s-9.1,13.78,8.78,16.59c1.75.22,14.71,1.57,18.05,5.81,0,0-.31-7.32-10.83-11.64S177.56,635.67,176.39,630.3Z"/><path class="cls-2" d="M185.25,600.62s-25.46,15.52-1.47,31c4.63,3,21.36,11.37,20.87,19.06,0,0,10.13-15-4.68-24.44C184.74,616.51,180.92,606.2,185.25,600.62Z"/><path class="cls-2" d="M211.54,615.8c-10.9-11.43-13.93-18.48-9.27-27.63,0,0-32.58,12.53-.42,34.77,11.52,8,9.59,16.08,9.6,16.38C213.27,637.44,222.44,627.24,211.54,615.8Z"/><text class="cls-4" transform="translate(236.1 637.17)"><tspan class="cls-5">N</tspan><tspan class="cls-6" x="31.86" y="0">O</tspan><tspan class="cls-7" x="63.74" y="0">D</tspan><tspan x="92.58" y="0">E</tspan></text><path class="cls-1" d="M503.34,235c-68.22,0-138.77,15.46-138.77,41.34V603.78a15.39,15.39,0,0,0,3,8.93,25.65,25.65,0,0,0,3.36,3.92c17.65,17,70.87,28.5,132.44,28.5s114.86-11.45,132.47-28.48a25,25,0,0,0,3.41-3.95,15.39,15.39,0,0,0,3-8.92V276.29C642.18,250.41,571.59,235,503.34,235Z"/><path class="cls-2" d="M598.47,242.39c-25.76-7-60.44-11-95.13-11s-69.33,4-95.09,11c-30.15,8.18-46.09,19.8-46.09,33.6V385.72a18.82,18.82,0,0,0,3.6,10.92,28.77,28.77,0,0,0,3.82,4.44c18.09,17.48,71.86,29.24,133.76,29.24s115.73-11.75,133.83-29.24a28.84,28.84,0,0,0,3.82-4.44,18.86,18.86,0,0,0,3.6-10.92V276C644.59,262.19,628.64,250.57,598.47,242.39Zm32.13,147a15.53,15.53,0,0,1-2.19,2.54c-15.44,14.93-68,25.74-125.07,25.74s-109.57-10.82-125-25.73a16.54,16.54,0,0,1-2.2-2.55,6.43,6.43,0,0,1-1.29-3.63V295.63a70.26,70.26,0,0,0,9.43,5.38l.15.07q2.56,1.23,5.4,2.4l.47.19c1.83.74,3.73,1.47,5.71,2.17l.72.25q2.52.87,5.19,1.71l1.63.5c1.68.51,3.42,1,5.18,1.47l2.37.64c1.7.44,3.44.86,5.21,1.28l3,.69c1.71.38,3.43.74,5.19,1.1l3.47.67c1.37.26,2.76.5,4.16.75,1.57.27,3.16.54,4.78.79,1.29.21,2.59.4,3.91.6L446,317l4.45.56,4,.46q3,.33,6,.61l3.06.28q3.63.31,7.33.57l2.63.17q4,.25,8,.44l2,.09c2.93.12,5.88.22,8.85.28l1.18,0c3.24.06,6.5.1,9.79.1s6.55,0,9.78-.1l1.2,0c3-.06,5.91-.16,8.83-.28l2-.09q4.05-.18,8-.44l2.64-.17q3.69-.25,7.31-.57l3.13-.28c2-.19,3.92-.38,5.85-.59l4.2-.49c1.47-.17,2.93-.36,4.37-.55,1.76-.23,3.49-.47,5.21-.72,1.29-.19,2.57-.38,3.84-.59,1.64-.25,3.25-.52,4.85-.8l4.12-.74c1.17-.22,2.33-.44,3.48-.68,1.76-.35,3.49-.72,5.19-1.09l3-.69c1.78-.42,3.54-.85,5.25-1.29l2.29-.61c1.85-.5,3.67-1,5.42-1.54l1.34-.42c1.86-.58,3.67-1.17,5.41-1.78l.57-.19c2-.72,4-1.47,5.85-2.23l.32-.13q2.91-1.2,5.53-2.46h0a70.07,70.07,0,0,0,9.49-5.4v90.09A6.37,6.37,0,0,1,630.6,389.35ZM503.34,244.08C583,244.08,631.9,262.67,631.9,276a6.74,6.74,0,0,1-1.31,3.68c-5.58,8.23-25.5,16.63-54.9,22.1l-.26.05-3.34.59-3.48.58h0a411.21,411.21,0,0,1-54.24,4.78l-1.84,0q-1.72,0-3.48.06c-1.88,0-3.78,0-5.7,0s-3.81,0-5.7,0c-1.16,0-2.32,0-3.47-.06l-1.84,0A411.32,411.32,0,0,1,438.21,303l-.23,0-3.28-.55c-1.19-.2-2.39-.41-3.55-.63h-.06c-29.4-5.46-49.32-13.86-54.92-22.09a6.81,6.81,0,0,1-1.32-3.7C374.85,262.67,423.73,244.08,503.34,244.08Z"/><path class="cls-2" d="M638.64,379.35a5.87,5.87,0,0,0-5.87,5.86,7.16,7.16,0,0,1-1.37,3.94c-5.06,7.49-21.15,14.8-44.15,20.07-23.89,5.48-53.69,8.49-83.91,8.49s-60-3-83.85-8.49c-23-5.26-39.07-12.58-44.12-20a7.29,7.29,0,0,1-1.39-4,5.87,5.87,0,0,0-11.74,0V604.45a18.4,18.4,0,0,0,3.53,10.68,28.53,28.53,0,0,0,3.74,4.35c9,8.72,26.66,16.09,51,21.32,24,5.16,52.61,7.88,82.86,7.88s58.94-2.72,82.91-7.87c24.32-5.23,41.93-12.6,51-21.3a28.33,28.33,0,0,0,3.8-4.41,18.38,18.38,0,0,0,3.51-10.65V385.21A5.87,5.87,0,0,0,638.64,379.35Zm-5.87,225.1a6.88,6.88,0,0,1-1.37,3.91,17.4,17.4,0,0,1-2.28,2.64l0,0c-7.48,7.22-24,13.8-46.43,18.5-22.83,4.78-51,7.42-79.32,7.42s-56.46-2.64-79.27-7.42c-22.46-4.71-38.95-11.29-46.44-18.53l0,0a17.79,17.79,0,0,1-2.23-2.59,7,7,0,0,1-1.39-3.94V404c9.62,7,25,12.89,45.1,17.33,24.14,5.33,53.28,8.15,84.26,8.15s60.14-2.82,84.29-8.15c20.12-4.44,35.51-10.37,45.14-17.33Z"/><path class="cls-3" d="M409.37,374.06V343.48q3,.72,6,1.4,4.36,7.37,8.75,14.64,4.39-5.5,8.79-11.11,3,.54,6.09,1V380q-2.75-.45-5.49-.93V356.49q-4.69,5.92-9.39,11.74-4.68-7.69-9.35-15.52v22.61Q412.08,374.71,409.37,374.06Z"/><path class="cls-3" d="M446.75,381.21V350.63q10.17,1.47,20.38,2.41V358c-5-.46-9.92-1-14.88-1.66v7.75q6.45.84,12.9,1.47v5.19q-6.45-.63-12.9-1.47V377c5,.64,9.91,1.2,14.88,1.66v4.94Q456.92,382.68,446.75,381.21Z"/><path class="cls-3" d="M473.45,384.16V353.58q3.06.24,6.14.43,4.46,6.67,8.9,13.24,4.44-6.21,8.9-12.52,3.08.06,6.15.07v30.58c-1.85,0-3.69,0-5.54-.06V362.71q-4.75,6.68-9.51,13.25-4.75-7-9.51-14v22.61C477.14,384.44,475.29,384.31,473.45,384.16Z"/><path class="cls-3" d="M510.26,370.06a22.37,22.37,0,0,1,.88-6.61,13.49,13.49,0,0,1,2.27-4.56,11.41,11.41,0,0,1,3.34-2.83,14,14,0,0,1,3.83-1.55,22.69,22.69,0,0,1,4-.53,22.94,22.94,0,0,1,4,.14,13,13,0,0,1,3.82,1.18,10.65,10.65,0,0,1,3.37,2.51,12,12,0,0,1,2.28,4.35,21.54,21.54,0,0,1,.88,6.53,23.1,23.1,0,0,1-.88,6.66,14.13,14.13,0,0,1-2.28,4.72,12.62,12.62,0,0,1-3.37,3,13.64,13.64,0,0,1-3.82,1.66,21.4,21.4,0,0,1-8.07.39,12.41,12.41,0,0,1-3.83-1.3,10.83,10.83,0,0,1-3.34-2.65,12.7,12.7,0,0,1-2.27-4.5A22.26,22.26,0,0,1,510.26,370.06Zm5.55-.15a19.73,19.73,0,0,0,.68,5.68,6.27,6.27,0,0,0,2,3.25,7.16,7.16,0,0,0,2.75,1.34,12.31,12.31,0,0,0,3.35.24,16.09,16.09,0,0,0,2.72-.34,8.32,8.32,0,0,0,2.37-1,6,6,0,0,0,2-1.95,11.55,11.55,0,0,0,1.27-3.27,20,20,0,0,0,.5-4.8,19.15,19.15,0,0,0-.68-5.6,5.94,5.94,0,0,0-2-3.19A7.19,7.19,0,0,0,528,359a13.38,13.38,0,0,0-3.36-.18,15.15,15.15,0,0,0-2.68.32,7.93,7.93,0,0,0-2.38,1,5.73,5.73,0,0,0-2,1.87,10.58,10.58,0,0,0-1.27,3.17A19.45,19.45,0,0,0,515.81,369.91Z"/><path class="cls-3" d="M545.63,383.37V352.79c3.92-.39,7.85-.84,11.76-1.34,3.59-.46,6.38,0,8.36,1.39s3,3.67,3,6.83c0,4.66-2.24,8-6.71,10q4,5.3,8,10.5c-2.21.36-4.42.69-6.63,1q-3.66-4.87-7.3-9.81c-1.66.21-3.31.41-5,.59v10.79Q548.39,383.1,545.63,383.37ZM551.15,367c2-.23,4.07-.48,6.1-.74a8.93,8.93,0,0,0,4.39-1.59,4.73,4.73,0,0,0,1.59-4c0-1.88-.53-3.07-1.59-3.58a8,8,0,0,0-4.39-.39c-2,.26-4.07.51-6.1.74Z"/><path class="cls-3" d="M571.54,349.38q3.32-.56,6.62-1.15,4,5.49,8.05,10.89,4-7,8-14.12,3.28-.74,6.57-1.52-5.89,10.14-11.82,20.11v13.12q-2.73.57-5.46,1.1V364.69Q577.53,357.13,571.54,349.38Z"/><path class="cls-3" d="M456,535.08V504.5q5.21,1.25,10.45,2.22c4.71.88,8.3,2.69,10.75,5.61s3.68,6.85,3.68,11.87-1.23,8.65-3.67,10.92-6,3.06-10.76,2.18Q461.16,536.33,456,535.08Zm5.44-3.72c1.67.35,3.33.68,5,1,3.16.58,5.45.13,6.84-1.27s2.09-3.94,2.09-7.59-.7-6.44-2.09-8.26-3.68-3-6.84-3.57c-1.67-.31-3.33-.64-5-1Z"/><path class="cls-3" d="M487.62,540.13V509.55c1.85.15,3.69.28,5.54.38v30.58C491.31,540.41,489.47,540.28,487.62,540.13Z"/><path class="cls-3" d="M499.76,518.77a7.62,7.62,0,0,1,3.14-6.65,13.92,13.92,0,0,1,7.84-2.35,18.75,18.75,0,0,1,8.27,1.72v5.39a13.87,13.87,0,0,0-7.62-1.93,10.11,10.11,0,0,0-4.31,1,2.93,2.93,0,0,0-1.77,2.77,2.59,2.59,0,0,0,1.61,2.37,16.24,16.24,0,0,0,3.9,1.37c1.52.35,3.05.78,4.59,1.3a8.11,8.11,0,0,1,3.92,2.85,8.92,8.92,0,0,1,1.61,5.58,7.83,7.83,0,0,1-3.08,6.24,12,12,0,0,1-7.53,2.68,17.91,17.91,0,0,1-10.16-2.52V533a13.74,13.74,0,0,0,8.88,2.92c4.24-.1,6.35-1.42,6.35-3.75a3.27,3.27,0,0,0-1.15-2.59,6.87,6.87,0,0,0-2.9-1.43c-1.17-.3-2.43-.66-3.77-1.1a33.81,33.81,0,0,1-3.76-1.46,7,7,0,0,1-2.91-2.55A7.62,7.62,0,0,1,499.76,518.77Z"/><path class="cls-3" d="M527.21,539.55V509q2.76-.3,5.51-.69v12.94q5.78-7.26,11.51-14.85c2.45-.48,4.89-1,7.32-1.57q-6.09,8.13-12.24,15.9,6.78,7.41,13.5,14.38-3.39.81-6.8,1.51-5.1-5.58-10.22-11.42l-3.07,3.8v9.9Q530,539.25,527.21,539.55Z"/><path class="cls-2" d="M416.12,706.45S407,720.23,424.9,723c1.75.22,14.7,1.57,18.05,5.81,0,0-.31-7.32-10.83-11.64S417.28,711.82,416.12,706.45Z"/><path class="cls-2" d="M425,676.77s-25.46,15.52-1.47,31c4.63,3,21.35,11.37,20.86,19.06,0,0,10.14-15-4.67-24.44C424.46,692.66,420.65,682.35,425,676.77Z"/><path class="cls-2" d="M451.27,692c-10.91-11.43-13.94-18.48-9.28-27.63,0,0-32.57,12.53-.41,34.77,11.52,8,9.59,16.08,9.59,16.38C453,713.59,462.17,703.39,451.27,692Z"/><text class="cls-4" transform="translate(475.83 713.32)"><tspan class="cls-5">N</tspan><tspan class="cls-6" x="31.86" y="0">O</tspan><tspan class="cls-7" x="63.74" y="0">D</tspan><tspan x="92.58" y="0">E</tspan></text></svg>