<?xml version="1.0" encoding="utf-8"?>
<!-- Generator: Adobe Illustrator 24.0.3, SVG Export Plug-In . SVG Version: 6.00 Build 0)  -->
<svg version="1.1" id="Capa_1" xmlns="http://www.w3.org/2000/svg" xmlns:xlink="http://www.w3.org/1999/xlink" x="0px" y="0px"
	 viewBox="0 0 627.3 665" style="enable-background:new 0 0 627.3 665;" xml:space="preserve">
<style type="text/css">
	.st0{fill:#777777;}
	.st1{fill:#E5282A;}
	.st2{fill:#EFEEED;}
	.st3{enable-background:new    ;}
	.st4{fill:#010101;}
	.st5{fill:#575656;}
	.st6{fill:#E52529;}
	.st7{fill:#FFFFFF;}
	.st8{fill:#FFFFFF;stroke:#FFFFFF;stroke-width:7.2;stroke-miterlimit:10;}
	.st9{fill:#B12033;stroke:#B12033;stroke-width:2;stroke-miterlimit:10;}
</style>
<title>Diagrams-Webiste</title>
<g>
	<g id="Capa_1_1_">
		<path class="st0" d="M315.5,449.5c0,0.5-0.2,1-0.5,1.4l-7.8,9.1c-0.4,0.5-1,0.8-1.6,0.8c-0.6,0-1.2-0.3-1.6-0.8l-7.9-9.1
			c-0.8-0.9-0.7-2.3,0.2-3c0.9-0.8,2.3-0.7,3,0.2l6.2,7.3l6.2-7.3c0.8-0.9,2.1-1,3-0.2C315.2,448.3,315.5,448.8,315.5,449.5
			L315.5,449.5z"/>
		<path class="st0" d="M307.6,416.5v41.2c0,1.2-1,2.1-2.1,2.1c-1.2,0-2.1-1-2.1-2.1v-41.2c0-1.2,1-2.1,2.1-2.1
			S307.6,415.3,307.6,416.5C307.6,416.5,307.6,416.5,307.6,416.5z"/>
		<path class="st1" d="M305.5,437.7c-3.2,0-5.8-2.6-5.8-5.8c0-3.2,2.6-5.8,5.8-5.8c3.2,0,5.8,2.6,5.8,5.8c0,0,0,0,0,0
			C311.3,435.1,308.7,437.7,305.5,437.7z"/>
		<path class="st2" d="M305.5,428c2.1,0,3.8,1.7,3.8,3.8c0,2.1-1.7,3.8-3.8,3.8c-2.1,0-3.8-1.7-3.8-3.8c0,0,0,0,0,0
			C301.7,429.7,303.4,428,305.5,428 M305.5,424c-4.3,0-7.8,3.5-7.8,7.8c0,4.3,3.5,7.8,7.8,7.8c4.3,0,7.8-3.5,7.8-7.8
			C313.3,427.5,309.8,424,305.5,424L305.5,424z"/>
		<path class="st0" d="M432.6,449.5c0,0.5-0.2,1-0.5,1.4l-7.9,9.1c-0.8,0.9-2.1,1-3,0.2c-0.1-0.1-0.2-0.1-0.2-0.2l-7.9-9.2
			c-0.8-0.9-0.7-2.2,0.1-3c0.9-0.8,2.2-0.7,3,0.1c0,0,0.1,0.1,0.1,0.1l6.2,7.3l6.2-7.3c0.8-0.9,2.1-1,3-0.2
			C432.4,448.2,432.6,448.8,432.6,449.5L432.6,449.5z"/>
		<path class="st0" d="M424.8,416.5v41.2c0,1.2-1,2.1-2.1,2.1c-1.2,0-2.1-1-2.1-2.1v-41.2c0-1.2,1-2.1,2.1-2.1
			S424.8,415.3,424.8,416.5C424.8,416.5,424.8,416.5,424.8,416.5z"/>
		<path class="st0" d="M399.4,396.1l21.8,21.9c0.9,0.7,2.3,0.5,3-0.4c0.6-0.8,0.6-1.8,0-2.6l-21.8-21.8c-0.9-0.7-2.3-0.5-3,0.4
			C398.8,394.3,398.8,395.4,399.4,396.1L399.4,396.1z"/>
		<circle class="st1" cx="422.6" cy="430.6" r="5.8"/>
		<path class="st2" d="M422.6,426.8c2.1,0,3.8,1.7,3.8,3.8c0,2.1-1.7,3.8-3.8,3.8c-2.1,0-3.8-1.7-3.8-3.8
			C418.8,428.5,420.5,426.8,422.6,426.8L422.6,426.8 M422.6,422.8c-4.3,0-7.8,3.5-7.8,7.8c0,4.3,3.5,7.8,7.8,7.8
			c4.3,0,7.8-3.5,7.8-7.8c0,0,0,0,0,0C430.5,426.3,427,422.8,422.6,422.8z"/>
		<path class="st0" d="M178.4,449.5c0,0.5,0.2,1,0.5,1.4l7.9,9.2c0.8,0.9,2.1,1,3,0.2c0.1-0.1,0.2-0.1,0.2-0.2l7.9-9.2
			c0.8-0.9,0.7-2.3-0.2-3c-0.9-0.8-2.3-0.7-3,0.2l0,0l-6.2,7.3l-6.2-7.3c-0.8-0.9-2.1-1-3-0.2C178.6,448.3,178.4,448.8,178.4,449.5
			L178.4,449.5z"/>
		<path class="st0" d="M186.2,416.5v41.2c0,1.2,1,2.1,2.1,2.1c1.2,0,2.1-1,2.1-2.1c0,0,0,0,0,0v-41.2c0-1.2-1-2.1-2.1-2.1
			C187.1,414.3,186.2,415.3,186.2,416.5C186.2,416.5,186.2,416.5,186.2,416.5z"/>
		<path class="st0" d="M211.6,396.1L189.8,418c-0.9,0.7-2.3,0.5-3-0.4c-0.6-0.8-0.6-1.8,0-2.6l21.8-21.8c0.7-0.9,2.1-1.1,3-0.4
			c0.9,0.7,1.1,2.1,0.4,3C211.9,395.9,211.8,396.1,211.6,396.1L211.6,396.1z"/>
		<circle class="st1" cx="199.3" cy="405.5" r="5.8"/>
		<path class="st2" d="M199.3,401.7c2.1,0,3.8,1.7,3.8,3.8c0,2.1-1.7,3.8-3.8,3.8s-3.8-1.7-3.8-3.8c0,0,0,0,0,0
			C195.5,403.4,197.2,401.7,199.3,401.7 M199.3,397.7c-4.3,0-7.8,3.5-7.8,7.8s3.5,7.8,7.8,7.8c4.3,0,7.8-3.5,7.8-7.8
			C207.1,401.2,203.6,397.7,199.3,397.7L199.3,397.7z"/>
		<path class="st2" d="M96.7,76.5h417.6c3.1,0,5.6,2.5,5.6,5.6V180c0,3.1-2.5,5.6-5.6,5.6H96.7c-3.1,0-5.6-2.5-5.6-5.6V82.1
			C91,79,93.6,76.5,96.7,76.5z"/>
		<g class="st3">
			<path class="st4" d="M241.8,38.9l4.4-10.9h1.5l4.3,10.9h-1.6l-1.2-3.1h-4.6l-1.2,3.1H241.8z M245.2,34.4h3.5l-1.7-4.5L245.2,34.4
				z"/>
		</g>
		<g class="st3">
			<path class="st4" d="M253.7,42v-8.8c0-0.2,0-0.4,0-0.5c0-0.2,0.1-0.4,0.2-0.7s0.3-0.5,0.5-0.7c0.2-0.2,0.6-0.4,1-0.5
				s1-0.2,1.6-0.2c0.3,0,0.6,0,0.9,0.1c0.3,0.1,0.6,0.2,1,0.4c0.3,0.2,0.6,0.4,0.9,0.7c0.3,0.3,0.5,0.7,0.6,1.3
				c0.2,0.5,0.3,1.2,0.3,1.9c0,0.8-0.1,1.5-0.3,2.1s-0.5,1-0.9,1.3s-0.8,0.5-1.2,0.6S257.4,39,257,39c-0.6,0-1.2-0.1-1.7-0.2V42
				H253.7z M255.2,37.3c0.6,0.2,1.1,0.3,1.7,0.3c0.3,0,0.6,0,0.9-0.1c0.2-0.1,0.5-0.2,0.7-0.4c0.2-0.2,0.4-0.5,0.5-0.9
				c0.1-0.4,0.2-0.9,0.2-1.5c0-0.6-0.1-1.2-0.2-1.6c-0.1-0.4-0.3-0.7-0.5-0.9c-0.2-0.2-0.4-0.3-0.7-0.4s-0.5-0.1-0.8-0.1
				c-1.3,0-1.9,0.4-1.9,1.2V37.3z"/>
		</g>
		<g class="st3">
			<path class="st4" d="M262.7,42v-8.8c0-0.2,0-0.4,0-0.5c0-0.2,0.1-0.4,0.2-0.7s0.3-0.5,0.5-0.7c0.2-0.2,0.6-0.4,1-0.5
				s1-0.2,1.6-0.2c0.3,0,0.6,0,0.9,0.1c0.3,0.1,0.6,0.2,1,0.4c0.3,0.2,0.6,0.4,0.9,0.7c0.3,0.3,0.5,0.7,0.6,1.3
				c0.2,0.5,0.3,1.2,0.3,1.9c0,0.8-0.1,1.5-0.3,2.1s-0.5,1-0.9,1.3s-0.8,0.5-1.2,0.6s-0.8,0.2-1.3,0.2c-0.6,0-1.2-0.1-1.7-0.2V42
				H262.7z M264.2,37.3c0.6,0.2,1.1,0.3,1.7,0.3c0.3,0,0.6,0,0.9-0.1c0.2-0.1,0.5-0.2,0.7-0.4c0.2-0.2,0.4-0.5,0.5-0.9
				c0.1-0.4,0.2-0.9,0.2-1.5c0-0.6-0.1-1.2-0.2-1.6c-0.1-0.4-0.3-0.7-0.5-0.9c-0.2-0.2-0.4-0.3-0.7-0.4s-0.5-0.1-0.8-0.1
				c-1.3,0-1.9,0.4-1.9,1.2V37.3z"/>
		</g>
		<g class="st3">
			<path class="st4" d="M272,38.9V27.6h1.5v11.3H272z"/>
		</g>
		<g class="st3">
			<path class="st4" d="M276.2,29.4v-1.6h1.6v1.6H276.2z M276.2,38.9v-8.2h1.5v8.2H276.2z"/>
		</g>
		<g class="st3">
			<path class="st4" d="M280.8,37.9c-0.6-0.7-1-1.8-1-3.1c0-1.4,0.3-2.4,1-3.1c0.6-0.7,1.6-1.1,2.8-1.1c0.8,0,1.6,0.2,2.4,0.5v1.4
				c-0.7-0.4-1.5-0.5-2.2-0.5c0,0,0,0,0,0c-0.8,0-1.3,0.2-1.8,0.6s-0.6,1.2-0.6,2.3c0,0.6,0.1,1.1,0.2,1.5s0.3,0.7,0.6,0.9
				c0.2,0.2,0.5,0.3,0.8,0.4s0.6,0.1,0.9,0.1c0.8,0,1.5-0.2,2.3-0.5v1.4c-0.8,0.3-1.6,0.5-2.4,0.5C282.4,39,281.5,38.6,280.8,37.9z"
				/>
		</g>
		<g class="st3">
			<path class="st4" d="M287.6,36.3c0-0.8,0.3-1.4,1-1.9c0.7-0.5,1.6-0.7,2.8-0.7c0.5,0,1,0,1.5,0.1c0-0.7-0.2-1.2-0.6-1.5
				c-0.3-0.3-0.9-0.4-1.7-0.4c-0.7,0-1.5,0.1-2.3,0.4V31c0.8-0.3,1.6-0.4,2.5-0.4c1.1,0,2,0.3,2.6,0.9c0.6,0.6,0.9,1.4,0.9,2.5v2.4
				c0,0.2,0,0.4-0.1,0.5c0,0.2-0.1,0.4-0.2,0.7c-0.1,0.3-0.3,0.5-0.5,0.7c-0.2,0.2-0.6,0.4-1,0.5s-1,0.2-1.6,0.2
				c-0.6,0-1.1-0.1-1.6-0.2c-0.5-0.2-0.8-0.3-1-0.5s-0.4-0.4-0.5-0.7s-0.2-0.5-0.3-0.7C287.6,36.6,287.6,36.4,287.6,36.3z
				 M289.1,36.2c0,0.9,0.7,1.4,2,1.4c0,0,0,0,0,0c1.2,0,1.9-0.4,1.9-1.3V35c-0.4-0.1-0.9-0.1-1.4-0.1c-0.2,0-0.4,0-0.7,0.1
				c-0.2,0-0.5,0.1-0.8,0.2s-0.5,0.2-0.7,0.4S289.1,36,289.1,36.2z"/>
		</g>
		<g class="st3">
			<path class="st4" d="M295.6,32v-1.3h1.4v-2.4h1.5v2.4h2.2V32h-2.2v4.7c0,0.6,0.4,1,1.2,1c0,0,0,0,0,0c0.4,0,0.7-0.1,1-0.2v1.4
				c-0.4,0.2-0.7,0.2-1.1,0.2c0,0,0,0,0,0c-0.2,0-0.4,0-0.6-0.1c-0.2,0-0.5-0.1-0.8-0.3c-0.3-0.1-0.6-0.4-0.8-0.7
				c-0.2-0.3-0.3-0.8-0.3-1.3V32H295.6z"/>
		</g>
		<g class="st3">
			<path class="st4" d="M302.7,29.4v-1.6h1.6v1.6H302.7z M302.7,38.9v-8.2h1.5v8.2H302.7z"/>
		</g>
		<g class="st3">
			<path class="st4" d="M306.8,36.9c-0.2-0.6-0.3-1.3-0.3-2.1c0-0.8,0.1-1.5,0.3-2.1c0.2-0.6,0.5-1,0.9-1.3c0.4-0.3,0.8-0.5,1.2-0.6
				s0.9-0.2,1.4-0.2s0.9,0.1,1.4,0.2c0.4,0.1,0.8,0.3,1.2,0.6c0.4,0.3,0.7,0.7,0.9,1.3c0.2,0.6,0.3,1.3,0.3,2.1
				c0,0.8-0.1,1.5-0.3,2.1c-0.2,0.6-0.5,1-0.9,1.3s-0.8,0.5-1.2,0.6c-0.4,0.1-0.9,0.2-1.4,0.2s-0.9-0.1-1.4-0.2s-0.8-0.3-1.2-0.6
				S307,37.5,306.8,36.9z M308.1,33.3c-0.1,0.4-0.2,0.9-0.2,1.5c0,0.6,0.1,1.1,0.2,1.5c0.1,0.4,0.3,0.7,0.5,0.9
				c0.2,0.2,0.5,0.3,0.7,0.4c0.2,0.1,0.5,0.1,0.9,0.1c0.3,0,0.6,0,0.9-0.1c0.2-0.1,0.5-0.2,0.7-0.4c0.2-0.2,0.4-0.5,0.5-0.9
				s0.2-0.9,0.2-1.5c0-0.6-0.1-1.1-0.2-1.5c-0.1-0.4-0.3-0.7-0.5-0.9c-0.2-0.2-0.5-0.3-0.7-0.4c-0.2-0.1-0.5-0.1-0.9-0.1
				c-0.3,0-0.6,0-0.9,0.1c-0.2,0.1-0.5,0.2-0.7,0.4C308.4,32.6,308.2,32.9,308.1,33.3z"/>
		</g>
		<g class="st3">
			<path class="st4" d="M316,38.9v-7.5c1.1-0.6,2.3-0.8,3.5-0.8c1,0,1.8,0.3,2.4,0.8s0.9,1.3,0.9,2.2v5.3h-1.5v-5.4
				c0-0.5-0.1-0.9-0.4-1.1s-0.7-0.4-1.5-0.4c-0.7,0-1.3,0.1-1.9,0.3v6.6H316z"/>
			<path class="st4" d="M331.2,38.9V27.9h1.5v9.5h5.4v1.4H331.2z"/>
		</g>
		<g class="st3">
			<path class="st4" d="M339.4,36.3c0-0.8,0.3-1.4,1-1.9c0.7-0.5,1.6-0.7,2.8-0.7c0.5,0,1,0,1.5,0.1c0-0.7-0.2-1.2-0.6-1.5
				c-0.3-0.3-0.9-0.4-1.7-0.4c-0.7,0-1.5,0.1-2.3,0.4V31c0.8-0.3,1.6-0.4,2.5-0.4c1.1,0,2,0.3,2.6,0.9c0.6,0.6,0.9,1.4,0.9,2.5v2.4
				c0,0.2,0,0.4-0.1,0.5c0,0.2-0.1,0.4-0.2,0.7c-0.1,0.3-0.3,0.5-0.5,0.7c-0.2,0.2-0.6,0.4-1,0.5c-0.4,0.1-1,0.2-1.6,0.2
				c-0.6,0-1.1-0.1-1.6-0.2c-0.5-0.2-0.8-0.3-1-0.5s-0.4-0.4-0.5-0.7c-0.1-0.3-0.2-0.5-0.3-0.7C339.5,36.6,339.4,36.4,339.4,36.3z
				 M340.9,36.2c0,0.9,0.7,1.4,2,1.4c0,0,0,0,0,0c1.2,0,1.9-0.4,1.9-1.3V35c-0.4-0.1-0.9-0.1-1.4-0.1c-0.2,0-0.4,0-0.7,0.1
				c-0.2,0-0.5,0.1-0.8,0.2c-0.3,0.1-0.5,0.2-0.7,0.4C341,35.7,340.9,36,340.9,36.2z"/>
		</g>
		<g class="st3">
			<path class="st4" d="M347.4,30.7h1.6l2.2,6.1l2.2-6.1h1.6l-3.4,9.1c-0.6,1.6-1.4,2.4-2.5,2.4h0c-0.4,0-0.7,0-1.1-0.1v-1.4
				c0.3,0.1,0.6,0.1,0.9,0.1c0.7,0,1.2-0.6,1.6-1.9L347.4,30.7z"/>
		</g>
		<g class="st3">
			<path class="st4" d="M356.1,34.9c0-2.9,1.2-4.3,3.6-4.3c0,0,0,0,0,0c1.1,0,2,0.4,2.6,1.1c0.7,0.7,1,1.7,1,2.9c0,0.4,0,0.8,0,1.1
				h-5.6c0.2,1.4,0.9,2.1,2.3,2.1c1.1,0,2-0.2,2.8-0.6v1.4c-0.8,0.4-1.8,0.5-2.9,0.5c0,0,0,0,0,0c-0.5,0-0.9-0.1-1.3-0.2
				c-0.4-0.1-0.8-0.3-1.2-0.6c-0.4-0.3-0.7-0.7-0.9-1.3S356.1,35.7,356.1,34.9z M357.6,34.3h4.2c0-0.3-0.1-0.5-0.1-0.8
				s-0.2-0.5-0.3-0.8s-0.4-0.5-0.6-0.6c-0.3-0.2-0.6-0.2-1-0.2c-0.7,0-1.2,0.2-1.5,0.5C357.8,32.8,357.6,33.4,357.6,34.3z"/>
		</g>
		<g class="st3">
			<path class="st4" d="M365.2,38.9v-7.5c1.4-0.5,2.7-0.8,4-0.8v1.4c-0.8,0-1.6,0.1-2.5,0.3v6.6H365.2z"/>
		</g>
		<path class="st2" d="M304.7,49.9V103c0,0.4,0.4,0.8,0.8,0.8c0.4,0,0.8-0.4,0.8-0.8V49.9c0-0.4-0.4-0.8-0.8-0.8
			C305.1,49.1,304.7,49.5,304.7,49.9z"/>
		<g class="st3">
			<path class="st5" d="M489.1,260.9c-0.2-0.6-0.3-1.3-0.3-2s0.1-1.4,0.3-2c0.2-0.6,0.4-1,0.7-1.4c0.3-0.3,0.6-0.6,1-0.8
				c0.4-0.2,0.8-0.4,1.2-0.4c0.4-0.1,0.8-0.1,1.2-0.1c1,0,1.9,0.2,2.9,0.6v1.2c-0.9-0.4-1.8-0.6-2.7-0.6c-1.1,0-1.9,0.3-2.4,0.9
				c-0.5,0.6-0.7,1.5-0.7,2.8c0,1.3,0.2,2.2,0.7,2.7c0.5,0.6,1.3,0.9,2.4,0.9c0.9,0,1.8-0.2,2.7-0.6v1.2c-0.9,0.4-1.9,0.6-2.9,0.6
				c-0.4,0-0.8,0-1.2-0.1c-0.4-0.1-0.8-0.2-1.2-0.4c-0.4-0.2-0.7-0.5-1-0.8C489.5,261.9,489.3,261.5,489.1,260.9z"/>
		</g>
		<g class="st3">
			<path class="st5" d="M497.6,261.8c-0.2-0.5-0.3-1.1-0.3-1.8s0.1-1.3,0.3-1.8c0.2-0.5,0.5-0.9,0.8-1.1c0.3-0.2,0.7-0.4,1-0.5
				c0.4-0.1,0.7-0.2,1.2-0.2s0.8,0.1,1.2,0.2s0.7,0.3,1,0.5c0.3,0.2,0.6,0.6,0.8,1.1c0.2,0.5,0.3,1.1,0.3,1.8s-0.1,1.3-0.3,1.8
				c-0.2,0.5-0.5,0.9-0.8,1.1c-0.3,0.2-0.7,0.4-1,0.5s-0.7,0.2-1.2,0.2s-0.8-0.1-1.2-0.2c-0.4-0.1-0.7-0.3-1-0.5
				C498.1,262.7,497.8,262.3,497.6,261.8z M498.8,258.8c-0.1,0.3-0.2,0.8-0.2,1.3s0.1,1,0.2,1.3s0.3,0.6,0.5,0.8
				c0.2,0.2,0.4,0.3,0.6,0.3c0.2,0.1,0.5,0.1,0.8,0.1s0.6,0,0.8-0.1c0.2-0.1,0.4-0.2,0.6-0.3c0.2-0.2,0.4-0.4,0.5-0.8
				c0.1-0.3,0.2-0.8,0.2-1.3s-0.1-1-0.2-1.3c-0.1-0.3-0.3-0.6-0.5-0.8c-0.2-0.2-0.4-0.3-0.6-0.3c-0.2-0.1-0.5-0.1-0.8-0.1
				s-0.6,0-0.8,0.1c-0.2,0.1-0.4,0.2-0.6,0.3C499.1,258.2,498.9,258.4,498.8,258.8z"/>
		</g>
		<g class="st3">
			<path class="st5" d="M505.7,263.5v-6.4c0.9-0.5,1.9-0.7,2.9-0.7c0.8,0,1.4,0.2,1.9,0.5c0.9-0.4,1.7-0.5,2.6-0.5
				c0.9,0,1.6,0.2,2.1,0.7c0.5,0.5,0.7,1.1,0.7,1.9v4.5h-1.3V259c0-0.4-0.1-0.7-0.3-1c-0.2-0.2-0.6-0.4-1.2-0.4
				c-0.6,0-1.2,0.1-1.9,0.4c0.1,0.3,0.2,0.6,0.2,1c0,0,0,0,0,0v4.5h-1.3V259c0-0.4-0.1-0.7-0.3-1s-0.6-0.4-1.3-0.4
				c-0.5,0-1,0.1-1.5,0.2v5.7H505.7z"/>
		</g>
		<g class="st3">
			<path class="st5" d="M517.9,266.2v-7.5c0-0.2,0-0.3,0-0.4c0-0.1,0.1-0.3,0.2-0.6c0.1-0.2,0.3-0.4,0.5-0.6s0.5-0.3,0.9-0.4
				c0.4-0.1,0.8-0.2,1.3-0.2c0.3,0,0.5,0,0.8,0.1s0.5,0.1,0.8,0.3c0.3,0.2,0.5,0.4,0.8,0.6s0.4,0.6,0.5,1.1c0.1,0.5,0.2,1,0.2,1.6
				c0,0.7-0.1,1.3-0.3,1.8c-0.2,0.5-0.4,0.9-0.8,1.1c-0.3,0.2-0.7,0.4-1,0.5c-0.3,0.1-0.7,0.2-1.1,0.2c-0.5,0-1-0.1-1.5-0.2v2.8
				H517.9z M519.1,262.2c0.5,0.2,1,0.3,1.5,0.3c0.3,0,0.5,0,0.7-0.1s0.4-0.2,0.6-0.3s0.3-0.4,0.4-0.7c0.1-0.3,0.2-0.7,0.2-1.3
				c0-0.5-0.1-1-0.2-1.3c-0.1-0.4-0.2-0.6-0.4-0.8c-0.2-0.2-0.4-0.3-0.6-0.3c-0.2-0.1-0.4-0.1-0.6-0.1c-1.1,0-1.6,0.3-1.6,1V262.2z"
				/>
		</g>
		<g class="st3">
			<path class="st5" d="M525.6,260.6v-4h1.3v4.1c0,0.6,0.1,1.1,0.4,1.4c0.3,0.3,0.7,0.4,1.3,0.4c0.6,0,1-0.1,1.3-0.4
				c0.3-0.3,0.4-0.8,0.4-1.4v-4.1h1.3v4c0,1-0.3,1.7-0.8,2.3c-0.5,0.5-1.2,0.8-2.2,0.8c-0.9,0-1.7-0.3-2.2-0.8
				C525.8,262.3,525.6,261.6,525.6,260.6z"/>
			<path class="st5" d="M532.7,257.6v-1.1h1.2v-2.1h1.3v2.1h1.9v1.1h-1.9v4c0,0.5,0.3,0.8,1,0.8c0,0,0,0,0,0c0.3,0,0.6-0.1,0.8-0.2
				v1.2c-0.3,0.1-0.6,0.2-1,0.2c0,0,0,0,0,0c-0.2,0-0.3,0-0.5-0.1s-0.4-0.1-0.7-0.2c-0.3-0.1-0.5-0.3-0.7-0.6
				c-0.2-0.3-0.3-0.7-0.3-1.1v-4H532.7z"/>
		</g>
		<g class="st3">
			<path class="st5" d="M538.5,260.1c0-2.5,1-3.7,3.1-3.7c0,0,0,0,0,0c0.9,0,1.7,0.3,2.2,0.9c0.6,0.6,0.8,1.4,0.8,2.5
				c0,0.3,0,0.7,0,1h-4.8c0.2,1.2,0.8,1.8,2,1.8c0.9,0,1.7-0.2,2.4-0.5v1.2c-0.7,0.3-1.5,0.5-2.4,0.5c0,0,0,0,0,0
				c-0.4,0-0.8-0.1-1.1-0.2c-0.3-0.1-0.7-0.3-1-0.5s-0.6-0.6-0.8-1.1C538.6,261.4,538.5,260.8,538.5,260.1z M539.7,259.6h3.6
				c0-0.2-0.1-0.5-0.1-0.7c-0.1-0.2-0.2-0.4-0.3-0.6c-0.1-0.2-0.3-0.4-0.5-0.5c-0.2-0.1-0.5-0.2-0.8-0.2c-0.6,0-1,0.2-1.3,0.5
				C540,258.3,539.8,258.9,539.7,259.6z"/>
			<path class="st5" d="M550.8,260.9c0-0.5,0.1-1,0.4-1.5s0.8-0.9,1.5-1.3c-0.6-0.7-0.9-1.3-0.9-1.9c0-0.6,0.2-1.1,0.6-1.5
				c0.4-0.4,0.9-0.6,1.5-0.6c0.6,0,1.1,0.2,1.6,0.6c0.4,0.4,0.6,0.9,0.6,1.5c0,0.5-0.1,0.9-0.4,1.3c-0.3,0.3-0.7,0.7-1.3,1l1.8,2.2
				c0.2-0.4,0.3-0.8,0.4-1.2h1.3c-0.1,0.8-0.4,1.5-0.8,2.1l1.6,2h-1.6l-0.8-1c-0.7,0.7-1.6,1.1-2.6,1.1c0,0,0,0,0,0
				c-0.5,0-1-0.1-1.4-0.3c-0.4-0.2-0.7-0.4-0.9-0.7c-0.2-0.3-0.4-0.6-0.5-0.9C550.9,261.5,550.8,261.2,550.8,260.9z M552.1,260.9
				c0,0.1,0,0.3,0.1,0.4c0,0.2,0.1,0.3,0.3,0.5c0.1,0.2,0.3,0.3,0.6,0.5c0.3,0.1,0.6,0.2,0.9,0.2c0.7,0,1.3-0.3,1.9-0.8l-2.2-2.7
				c-0.3,0.2-0.6,0.4-0.8,0.5s-0.4,0.4-0.4,0.6c-0.1,0.2-0.1,0.3-0.1,0.4C552.1,260.6,552.1,260.8,552.1,260.9z M553.3,255.4
				c-0.2,0.2-0.3,0.5-0.3,0.8c0,0.3,0.3,0.8,0.8,1.4c0.5-0.3,0.9-0.6,1.1-0.8c0.2-0.2,0.2-0.4,0.2-0.7c0-0.3-0.1-0.5-0.3-0.7
				c-0.2-0.2-0.4-0.3-0.8-0.3C553.8,255.1,553.5,255.2,553.3,255.4z"/>
		</g>
		<g class="st3">
			<path class="st5" d="M489.2,281.2v-9.3h1.4l3.1,4l3.1-4h1.4v9.3h-1.3v-7.4l-3.2,4.2l-3.2-4.2v7.4H489.2z"/>
		</g>
		<g class="st3">
			<path class="st5" d="M500.1,279c0-0.7,0.3-1.2,0.9-1.6c0.6-0.4,1.4-0.6,2.4-0.6c0.4,0,0.9,0,1.3,0.1c0-0.6-0.2-1-0.5-1.3
				c-0.3-0.3-0.8-0.4-1.4-0.4c-0.6,0-1.3,0.1-1.9,0.3v-1.1c0.7-0.3,1.4-0.4,2.1-0.4c1,0,1.7,0.3,2.3,0.8c0.5,0.5,0.8,1.2,0.8,2.2v2
				c0,0.2,0,0.3,0,0.4c0,0.1-0.1,0.3-0.2,0.6c-0.1,0.2-0.3,0.4-0.5,0.6s-0.5,0.3-0.9,0.4c-0.4,0.1-0.8,0.2-1.3,0.2
				c-0.5,0-1-0.1-1.4-0.2c-0.4-0.1-0.7-0.3-0.9-0.5c-0.2-0.2-0.4-0.4-0.5-0.6c-0.1-0.2-0.2-0.4-0.2-0.6
				C500.1,279.3,500.1,279.1,500.1,279z M501.4,278.9c0,0.8,0.6,1.2,1.7,1.2c0,0,0,0,0,0c1.1,0,1.6-0.4,1.6-1.1v-1.1
				c-0.3-0.1-0.7-0.1-1.2-0.1c-0.2,0-0.4,0-0.6,0.1c-0.2,0-0.4,0.1-0.7,0.2s-0.4,0.2-0.6,0.4C501.5,278.5,501.4,278.7,501.4,278.9z"
				/>
		</g>
		<g class="st3">
			<path class="st5" d="M508.2,280.3c-0.6-0.6-0.8-1.5-0.8-2.7s0.3-2.1,0.8-2.7s1.4-0.9,2.4-0.9c0.7,0,1.4,0.1,2.1,0.4v1.2
				c-0.6-0.3-1.3-0.5-1.9-0.5c0,0,0,0,0,0c-0.6,0-1.1,0.2-1.5,0.5c-0.4,0.3-0.5,1-0.5,2c0,0.5,0.1,0.9,0.2,1.3
				c0.1,0.3,0.3,0.6,0.5,0.8c0.2,0.2,0.4,0.3,0.6,0.3c0.2,0.1,0.5,0.1,0.8,0.1c0.7,0,1.3-0.1,1.9-0.4v1.2c-0.7,0.3-1.3,0.4-2.1,0.4
				C509.6,281.3,508.8,281,508.2,280.3z"/>
		</g>
		<g class="st3">
			<path class="st5" d="M514.4,281.2v-9.7h1.3v2.9c0.6-0.2,1.2-0.3,1.8-0.3c0.9,0,1.5,0.3,2,0.8c0.5,0.5,0.7,1.3,0.7,2.2v4.1h-1.3
				V277c0-0.7-0.1-1.1-0.4-1.4s-0.7-0.3-1.1-0.3c-0.6,0-1.1,0.1-1.7,0.3v5.5H514.4z"/>
			<path class="st5" d="M522,273.1v-1.4h1.4v1.4H522z M522,281.2v-7h1.3v7H522z"/>
		</g>
		<g class="st3">
			<path class="st5" d="M525.8,281.2v-6.4c1-0.5,2-0.7,3-0.7c0.9,0,1.6,0.2,2.1,0.7s0.8,1.1,0.8,1.9v4.5h-1.3v-4.6
				c0-0.4-0.1-0.7-0.3-1s-0.6-0.4-1.3-0.4c-0.6,0-1.1,0.1-1.6,0.3v5.7H525.8z"/>
		</g>
		<g class="st3">
			<path class="st5" d="M533.4,277.8c0-2.5,1-3.7,3.1-3.7c0,0,0,0,0,0c0.9,0,1.7,0.3,2.2,0.9s0.8,1.4,0.8,2.5c0,0.3,0,0.7,0,1h-4.8
				c0.2,1.2,0.8,1.8,2,1.8c0.9,0,1.7-0.2,2.4-0.5v1.2c-0.7,0.3-1.5,0.5-2.4,0.5c0,0,0,0,0,0c-0.4,0-0.8-0.1-1.1-0.2
				c-0.3-0.1-0.7-0.3-1-0.5c-0.3-0.2-0.6-0.6-0.8-1.1C533.5,279,533.4,278.4,533.4,277.8z M534.7,277.2h3.6c0-0.2-0.1-0.5-0.1-0.7
				c-0.1-0.2-0.2-0.4-0.3-0.6s-0.3-0.4-0.5-0.5c-0.2-0.1-0.5-0.2-0.8-0.2c-0.6,0-1,0.2-1.3,0.5C534.9,276,534.7,276.5,534.7,277.2z"
				/>
		</g>
		<g class="st3">
			<path class="st5" d="M546.2,281.2v-9.3h1.3v8.1h4.6v1.2H546.2z"/>
		</g>
		<g class="st3">
			<path class="st5" d="M553.1,277.8c0-2.5,1-3.7,3.1-3.7c0,0,0,0,0,0c0.9,0,1.7,0.3,2.2,0.9c0.6,0.6,0.8,1.4,0.8,2.5
				c0,0.3,0,0.7,0,1h-4.8c0.2,1.2,0.8,1.8,2,1.8c0.9,0,1.7-0.2,2.4-0.5v1.2c-0.7,0.3-1.5,0.5-2.4,0.5c0,0,0,0,0,0
				c-0.4,0-0.8-0.1-1.1-0.2c-0.3-0.1-0.7-0.3-1-0.5c-0.3-0.2-0.6-0.6-0.8-1.1C553.2,279,553.1,278.4,553.1,277.8z M554.4,277.2h3.6
				c0-0.2-0.1-0.5-0.1-0.7c-0.1-0.2-0.2-0.4-0.3-0.6c-0.1-0.2-0.3-0.4-0.5-0.5c-0.2-0.1-0.5-0.2-0.8-0.2c-0.6,0-1,0.2-1.3,0.5
				C554.7,276,554.5,276.5,554.4,277.2z"/>
		</g>
		<g class="st3">
			<path class="st5" d="M560.6,279c0-0.7,0.3-1.2,0.9-1.6c0.6-0.4,1.4-0.6,2.4-0.6c0.4,0,0.9,0,1.3,0.1c0-0.6-0.2-1-0.5-1.3
				c-0.3-0.3-0.8-0.4-1.4-0.4c-0.6,0-1.3,0.1-1.9,0.3v-1.1c0.7-0.3,1.4-0.4,2.1-0.4c1,0,1.7,0.3,2.3,0.8c0.5,0.5,0.8,1.2,0.8,2.2v2
				c0,0.2,0,0.3,0,0.4c0,0.1-0.1,0.3-0.2,0.6c-0.1,0.2-0.3,0.4-0.5,0.6c-0.2,0.2-0.5,0.3-0.9,0.4c-0.4,0.1-0.8,0.2-1.3,0.2
				c-0.5,0-1-0.1-1.4-0.2s-0.7-0.3-0.9-0.5s-0.4-0.4-0.5-0.6c-0.1-0.2-0.2-0.4-0.2-0.6C560.6,279.3,560.6,279.1,560.6,279z
				 M561.9,278.9c0,0.8,0.6,1.2,1.7,1.2c0,0,0,0,0,0c1.1,0,1.6-0.4,1.6-1.1v-1.1c-0.3-0.1-0.7-0.1-1.2-0.1c-0.2,0-0.4,0-0.6,0.1
				c-0.2,0-0.4,0.1-0.7,0.2c-0.2,0.1-0.4,0.2-0.6,0.4C562,278.5,561.9,278.7,561.9,278.9z"/>
		</g>
		<g class="st3">
			<path class="st5" d="M568.2,281.2v-6.4c1.2-0.5,2.3-0.7,3.4-0.7v1.2c-0.7,0-1.4,0.1-2.1,0.3v5.6H568.2z"/>
		</g>
		<g class="st3">
			<path class="st5" d="M573,281.2v-6.4c1-0.5,2-0.7,3-0.7c0.9,0,1.6,0.2,2.1,0.7s0.8,1.1,0.8,1.9v4.5h-1.3v-4.6
				c0-0.4-0.1-0.7-0.3-1c-0.2-0.2-0.6-0.4-1.3-0.4c-0.6,0-1.1,0.1-1.6,0.3v5.7H573z"/>
		</g>
		<g class="st3">
			<path class="st5" d="M581,273.1v-1.4h1.4v1.4H581z M581,281.2v-7h1.3v7H581z"/>
			<path class="st5" d="M584.3,281.2v-6.4c1-0.5,2-0.7,3-0.7c0.9,0,1.6,0.2,2.1,0.7s0.8,1.1,0.8,1.9v4.5h-1.3v-4.6
				c0-0.4-0.1-0.7-0.3-1c-0.2-0.2-0.6-0.4-1.3-0.4c-0.6,0-1.1,0.1-1.6,0.3v5.7H584.3z"/>
		</g>
		<g class="st3">
			<path class="st5" d="M592.2,277.6c0-1.1,0.2-1.9,0.7-2.6c0.5-0.6,1.2-1,2.3-1c0.8,0,1.5,0.2,2,0.6s0.8,0.9,0.8,1.6v5.2
				c0,0.3,0,0.6-0.1,0.9s-0.2,0.5-0.4,0.8c-0.2,0.3-0.5,0.5-0.9,0.6c-0.4,0.1-0.9,0.2-1.5,0.2c-0.7,0-1.4-0.1-2.1-0.3v-1.2
				c0.7,0.2,1.3,0.3,2,0.3c0.4,0,0.8,0,1.1-0.1c0.3-0.1,0.5-0.2,0.6-0.3c0.1-0.1,0.2-0.3,0.2-0.4c0-0.1,0-0.2,0-0.4v-0.6
				c-0.5,0.1-0.9,0.2-1.4,0.2c-1,0-1.8-0.3-2.3-0.9S592.2,278.7,592.2,277.6z M593.5,277.6c0,0.9,0.2,1.5,0.5,1.8
				c0.3,0.3,0.8,0.4,1.3,0.4c0.5,0,1-0.1,1.4-0.3v-3.4c0-0.1,0-0.2,0-0.3c0-0.1-0.1-0.2-0.2-0.3c-0.1-0.1-0.2-0.2-0.5-0.3
				s-0.5-0.1-0.9-0.1c-0.2,0-0.4,0-0.6,0.1s-0.4,0.2-0.5,0.3s-0.3,0.4-0.4,0.7C593.6,276.7,593.5,277.1,593.5,277.6z"/>
		</g>
		<path class="st0" d="M318.9,256.8c0,0.5-0.2,1-0.5,1.4l-7.9,9.2c-0.8,0.9-2.1,1-3,0.2c-0.1-0.1-0.2-0.1-0.2-0.2l-7.9-9.2
			c-0.8-0.9-0.7-2.2,0.1-3c0.9-0.8,2.2-0.7,3,0.1c0,0,0.1,0.1,0.1,0.1l6.2,7.3l6.2-7.3c0.8-0.9,2.1-1,3-0.2
			C318.6,255.6,318.9,256.2,318.9,256.8L318.9,256.8z"/>
		<path class="st0" d="M311,206v59c0,1.2-1,2.1-2.1,2.1c-1.2,0-2.1-1-2.1-2.1v-59c0-1.2,1-2.1,2.1-2.1C310,203.9,311,204.8,311,206
			C311,206,311,206,311,206z"/>
		<path class="st0" d="M298.9,213.9c0-0.5,0.2-1,0.5-1.4l7.9-9.2c0.4-0.5,1-0.7,1.6-0.8c0.6,0,1.2,0.3,1.6,0.8l7.9,9.2
			c0.8,0.9,0.7,2.3-0.2,3c-0.9,0.8-2.3,0.7-3-0.2l0,0l-6.2-7.3l-6.2,7.3c-0.8,0.9-2.1,1-3,0.2C299.2,215.1,298.9,214.5,298.9,213.9z
			"/>
		<circle class="st1" cx="308.9" cy="234.6" r="5.8"/>
		<path class="st2" d="M308.9,230.8c2.1,0,3.8,1.7,3.8,3.8c0,2.1-1.7,3.8-3.8,3.8c-2.1,0-3.8-1.7-3.8-3.8S306.8,230.8,308.9,230.8
			L308.9,230.8 M308.9,226.8c-4.3,0-7.8,3.5-7.8,7.8s3.5,7.8,7.8,7.8c4.3,0,7.8-3.5,7.8-7.8c0,0,0,0,0,0
			C316.7,230.3,313.2,226.8,308.9,226.8z"/>
		<path class="st0" d="M464.9,205.9v30.9c0,1.2-1,2.1-2.1,2.1c-1.2,0-2.1-1-2.1-2.1c0,0,0,0,0,0v-30.9c0-1.2,1-2.1,2.1-2.1
			C463.9,203.7,464.9,204.7,464.9,205.9C464.9,205.9,464.9,205.9,464.9,205.9z"/>
		<path class="st0" d="M426.1,234.6h36.4c1.2,0,2.1,1,2.1,2.1c0,1.2-1,2.1-2.1,2.1h-36.4c-1.2,0-2.1-1-2.1-2.1
			C423.9,235.5,424.9,234.6,426.1,234.6C426.1,234.6,426.1,234.6,426.1,234.6z"/>
		<path class="st0" d="M472.7,213.9c0-0.5-0.2-1-0.5-1.4l-7.9-9.2c-0.8-0.9-2.1-1-3-0.2c-0.1,0.1-0.2,0.1-0.2,0.2l-7.9,9.2
			c-0.7,0.9-0.6,2.3,0.4,3c0.9,0.7,2.1,0.6,2.9-0.2l6.2-7.3l6.3,7.3c0.8,0.9,2.1,1,3,0.2C472.5,215.1,472.8,214.5,472.7,213.9
			L472.7,213.9z"/>
		<path class="st0" d="M428.2,236.7v22.5c0,1.2-1,2.1-2.1,2.1s-2.1-1-2.1-2.1c0,0,0,0,0,0v-22.5c0-1.2,1-2.1,2.1-2.1
			C427.3,234.6,428.2,235.5,428.2,236.7L428.2,236.7z"/>
		<path class="st0" d="M405.8,282.7l21.8-21.8c0.7-0.9,0.5-2.3-0.4-3c-0.8-0.6-1.8-0.6-2.6,0l-21.8,21.8c-0.7,0.9-0.5,2.3,0.4,3
			C403.9,283.3,405,283.3,405.8,282.7L405.8,282.7z"/>
		<path class="st0" d="M417,282.5c-0.4,0.4-0.8,0.6-1.4,0.6l-12,1c-0.6,0-1.2-0.2-1.7-0.6c-0.4-0.4-0.7-1-0.6-1.7l0.9-12
			c0.1-1.2,1.1-2.1,2.3-2s2.1,1.1,2,2.3l0,0l-0.8,9.5l9.5-0.8c1.2-0.1,2.2,0.8,2.3,2c0,0,0,0,0,0C417.7,281.5,417.5,282.1,417,282.5
			z"/>
		<path class="st1" d="M425.9,263.5c-3.2,0-5.8-2.6-5.8-5.8s2.6-5.8,5.8-5.8s5.8,2.6,5.8,5.8c0,0,0,0,0,0
			C431.7,260.9,429.1,263.5,425.9,263.5z"/>
		<path class="st2" d="M425.9,253.9c2.1,0,3.8,1.7,3.8,3.8s-1.7,3.8-3.8,3.8c-2.1,0-3.8-1.7-3.8-3.8c0,0,0,0,0,0
			C422,255.6,423.7,253.9,425.9,253.9 M425.9,249.9c-4.3,0-7.8,3.5-7.8,7.8c0,4.3,3.5,7.8,7.8,7.8c4.3,0,7.8-3.5,7.8-7.8
			c0,0,0,0,0,0C433.7,253.4,430.2,249.9,425.9,249.9C425.9,249.9,425.9,249.9,425.9,249.9z"/>
		<path class="st0" d="M152.9,205.7v30.9c0,1.2,1,2.1,2.1,2.1c1.2,0,2.1-1,2.1-2.1v-30.9c0-1.2-1-2.1-2.1-2.1
			C153.8,203.6,152.9,204.5,152.9,205.7z"/>
		<path class="st0" d="M191.7,234.5h-36.4c-1.2,0-2.1,1-2.1,2.1c0,1.2,1,2.1,2.1,2.1c0,0,0,0,0,0h36.4c1.2,0,2.1-1,2.1-2.1
			C193.8,235.4,192.9,234.5,191.7,234.5C191.7,234.5,191.7,234.5,191.7,234.5z"/>
		<path class="st0" d="M145,213.8c0-0.5,0.2-1,0.5-1.4l7.9-9.2c0.8-0.9,2.1-1,3-0.2c0.1,0.1,0.2,0.1,0.2,0.2l7.9,9.2
			c0.7,0.9,0.6,2.3-0.4,3c-0.9,0.7-2.1,0.6-2.9-0.2l-6.2-7.3l-6.2,7.3c-0.8,0.9-2.1,1-3,0.2C145.3,215,145,214.4,145,213.8
			L145,213.8z"/>
		<path class="st0" d="M189.5,236.6v22.5c0.1,1.2,1.1,2.1,2.3,2c1.1-0.1,1.9-0.9,2-2v-22.5c-0.1-1.2-1.1-2.1-2.3-2
			C190.5,234.7,189.6,235.5,189.5,236.6z"/>
		<path class="st0" d="M212,282.5l-21.8-21.8c-0.7-0.9-0.5-2.3,0.4-3c0.8-0.6,1.8-0.6,2.6,0l21.8,21.8c0.7,0.9,0.5,2.3-0.4,3
			C213.8,283.1,212.8,283.1,212,282.5L212,282.5z"/>
		<path class="st0" d="M200.8,282.4c0.4,0.4,0.8,0.6,1.3,0.6l12,1c0.6,0,1.2-0.2,1.7-0.6c0.4-0.4,0.7-1.1,0.6-1.7l-0.9-12
			c-0.1-1.2-1.1-2.1-2.3-2c-1.2,0.1-2.1,1.1-2,2.3l0.8,9.5l-9.6-0.8c-1.2-0.1-2.2,0.8-2.3,2c0,0,0,0,0,0
			C200.1,281.4,200.3,282,200.8,282.4z"/>
		<circle class="st1" cx="191.9" cy="257.1" r="5.8"/>
		<path class="st2" d="M191.9,253.3c2.1,0,3.8,1.7,3.8,3.8c0,2.1-1.7,3.8-3.8,3.8s-3.8-1.7-3.8-3.8c0,0,0,0,0,0
			C188.1,255,189.8,253.3,191.9,253.3 M191.9,249.3c-4.3,0-7.8,3.5-7.8,7.8c0,4.3,3.5,7.8,7.8,7.8s7.8-3.5,7.8-7.8c0,0,0,0,0,0
			C199.7,252.8,196.2,249.3,191.9,249.3z"/>
		<path class="st6" d="M428,258.8h53c0.4,0,0.8-0.4,0.8-0.8s-0.4-0.8-0.8-0.8c0,0,0,0,0,0h-53c-0.4,0-0.8,0.4-0.8,0.8
			C427.2,258.5,427.6,258.8,428,258.8z"/>
		<g class="st3">
			<path class="st5" d="M19.2,261.2l3.7-9.3h1.3l3.7,9.3h-1.4l-1-2.6h-3.9l-1,2.6H19.2z M22.1,257.4h3l-1.5-3.9L22.1,257.4z"/>
		</g>
		<g class="st3">
			<path class="st5" d="M29,258.6c-0.2-0.6-0.3-1.3-0.3-2s0.1-1.4,0.3-2s0.4-1,0.7-1.4c0.3-0.3,0.6-0.6,1-0.8
				c0.4-0.2,0.8-0.4,1.2-0.4s0.8-0.1,1.2-0.1c1,0,1.9,0.2,2.9,0.6v1.2c-0.9-0.4-1.8-0.6-2.7-0.6c-1.1,0-1.9,0.3-2.4,0.9
				c-0.5,0.6-0.7,1.5-0.7,2.8c0,1.3,0.2,2.2,0.7,2.7s1.3,0.9,2.4,0.9c0.9,0,1.8-0.2,2.7-0.6v1.2c-0.9,0.4-1.9,0.6-2.9,0.6
				c-0.4,0-0.8,0-1.2-0.1s-0.8-0.2-1.2-0.4c-0.4-0.2-0.7-0.5-1-0.8C29.4,259.6,29.2,259.2,29,258.6z"/>
		</g>
		<g class="st3">
			<path class="st5" d="M37.7,261.2v-9.3h1.3v9.3H37.7z"/>
			<path class="st5" d="M41.5,261.2v-9.3h3c1.4,0,2.5,0.4,3.3,1.2s1.1,2,1.1,3.5s-0.4,2.7-1.1,3.5s-1.8,1.2-3.3,1.2H41.5z
				 M42.8,260.1h1.5c1.1,0,2-0.3,2.5-0.8s0.8-1.5,0.8-2.7c0-1.2-0.3-2.1-0.8-2.7s-1.4-0.8-2.5-0.8h-1.5V260.1z"/>
		</g>
		<g class="st3">
			<path class="st5" d="M54.6,253.1v-1.2h7.6v1.2H59v8.1h-1.3v-8.1H54.6z"/>
		</g>
		<g class="st3">
			<path class="st5" d="M62.6,261.2v-6.4c1.2-0.5,2.3-0.7,3.4-0.7v1.2c-0.7,0-1.4,0.1-2.1,0.3v5.6H62.6z"/>
		</g>
		<g class="st3">
			<path class="st5" d="M66.9,259c0-0.7,0.3-1.2,0.9-1.6c0.6-0.4,1.4-0.6,2.4-0.6c0.4,0,0.9,0,1.3,0.1c0-0.6-0.2-1-0.5-1.3
				s-0.8-0.4-1.4-0.4c-0.6,0-1.3,0.1-1.9,0.3v-1.1c0.7-0.3,1.4-0.4,2.1-0.4c1,0,1.7,0.3,2.3,0.8c0.5,0.5,0.8,1.2,0.8,2.2v2
				c0,0.2,0,0.3,0,0.4c0,0.1-0.1,0.3-0.2,0.6s-0.3,0.4-0.5,0.6c-0.2,0.2-0.5,0.3-0.9,0.4c-0.4,0.1-0.8,0.2-1.3,0.2
				c-0.5,0-1-0.1-1.4-0.2c-0.4-0.1-0.7-0.3-0.9-0.5c-0.2-0.2-0.4-0.4-0.5-0.6c-0.1-0.2-0.2-0.4-0.2-0.6
				C66.9,259.3,66.9,259.2,66.9,259z M68.2,259c0,0.8,0.6,1.2,1.7,1.2c0,0,0,0,0,0c1.1,0,1.6-0.4,1.6-1.1v-1.1
				c-0.3-0.1-0.7-0.1-1.2-0.1c-0.2,0-0.4,0-0.6,0.1s-0.4,0.1-0.7,0.2c-0.2,0.1-0.4,0.2-0.6,0.4C68.3,258.6,68.2,258.8,68.2,259z"/>
		</g>
		<g class="st3">
			<path class="st5" d="M74.6,261.2v-6.4c1-0.5,2-0.7,3-0.7c0.9,0,1.6,0.2,2.1,0.7s0.8,1.1,0.8,1.9v4.5h-1.3v-4.6
				c0-0.4-0.1-0.7-0.3-1c-0.2-0.2-0.6-0.4-1.3-0.4c-0.6,0-1.1,0.1-1.6,0.3v5.7H74.6z"/>
		</g>
		<g class="st3">
			<path class="st5" d="M82.2,256.2c0-0.6,0.2-1.1,0.6-1.5s1-0.6,1.9-0.6c0.6,0,1.3,0.2,1.9,0.5v1.1c-0.6-0.3-1.2-0.4-1.7-0.4
				c-0.9,0-1.4,0.3-1.4,0.9c0,0.2,0.1,0.4,0.4,0.5c0.2,0.1,0.5,0.2,0.9,0.3s0.7,0.2,1,0.4c0.3,0.1,0.6,0.4,0.9,0.7
				c0.2,0.3,0.4,0.7,0.4,1.2c0,0.6-0.2,1-0.6,1.5c-0.4,0.4-1.1,0.6-2,0.6c-0.7,0-1.4-0.2-2-0.5v-1.2c0.6,0.3,1.3,0.5,1.9,0.5
				c0,0,0,0,0,0c0.4,0,0.8-0.1,1-0.2s0.4-0.4,0.4-0.6c0-0.3-0.1-0.5-0.4-0.7s-0.5-0.3-0.9-0.4s-0.7-0.2-1-0.3s-0.6-0.3-0.9-0.6
				S82.2,256.7,82.2,256.2z"/>
		</g>
		<g class="st3">
			<path class="st5" d="M88.3,259c0-0.7,0.3-1.2,0.9-1.6c0.6-0.4,1.4-0.6,2.4-0.6c0.4,0,0.9,0,1.3,0.1c0-0.6-0.2-1-0.5-1.3
				s-0.8-0.4-1.4-0.4c-0.6,0-1.3,0.1-1.9,0.3v-1.1c0.7-0.3,1.4-0.4,2.1-0.4c1,0,1.7,0.3,2.3,0.8c0.5,0.5,0.8,1.2,0.8,2.2v2
				c0,0.2,0,0.3,0,0.4c0,0.1-0.1,0.3-0.2,0.6s-0.3,0.4-0.5,0.6c-0.2,0.2-0.5,0.3-0.9,0.4c-0.4,0.1-0.8,0.2-1.3,0.2
				c-0.5,0-1-0.1-1.4-0.2c-0.4-0.1-0.7-0.3-0.9-0.5c-0.2-0.2-0.4-0.4-0.5-0.6c-0.1-0.2-0.2-0.4-0.2-0.6
				C88.3,259.3,88.3,259.2,88.3,259z M89.6,259c0,0.8,0.6,1.2,1.7,1.2c0,0,0,0,0,0c1.1,0,1.6-0.4,1.6-1.1v-1.1
				c-0.3-0.1-0.7-0.1-1.2-0.1c-0.2,0-0.4,0-0.6,0.1s-0.4,0.1-0.7,0.2c-0.2,0.1-0.4,0.2-0.6,0.4C89.7,258.6,89.6,258.8,89.6,259z"/>
		</g>
		<g class="st3">
			<path class="st5" d="M96.4,260.4c-0.6-0.6-0.8-1.5-0.8-2.7s0.3-2.1,0.8-2.7s1.4-0.9,2.4-0.9c0.7,0,1.4,0.1,2.1,0.4v1.2
				c-0.6-0.3-1.3-0.5-1.9-0.5c0,0,0,0,0,0c-0.6,0-1.1,0.2-1.5,0.5s-0.5,1-0.5,2c0,0.5,0.1,0.9,0.2,1.3c0.1,0.3,0.3,0.6,0.5,0.8
				c0.2,0.2,0.4,0.3,0.6,0.3s0.5,0.1,0.8,0.1c0.7,0,1.3-0.1,1.9-0.4v1.2c-0.7,0.3-1.3,0.4-2.1,0.4C97.8,261.3,97,261,96.4,260.4z"/>
		</g>
		<g class="st3">
			<path class="st5" d="M102.1,255.3v-1.1h1.2v-2.1h1.3v2.1h1.9v1.1h-1.9v4c0,0.5,0.3,0.8,1,0.8c0,0,0,0,0,0c0.3,0,0.6-0.1,0.8-0.2
				v1.2c-0.3,0.1-0.6,0.2-1,0.2c0,0,0,0,0,0c-0.2,0-0.3,0-0.5-0.1s-0.4-0.1-0.7-0.2c-0.3-0.1-0.5-0.3-0.7-0.6s-0.3-0.7-0.3-1.1v-4
				H102.1z"/>
		</g>
		<g class="st3">
			<path class="st5" d="M108.1,253.2v-1.4h1.4v1.4H108.1z M108.2,261.2v-7h1.3v7H108.2z"/>
		</g>
		<g class="st3">
			<path class="st5" d="M111.6,259.6c-0.2-0.5-0.3-1.1-0.3-1.8s0.1-1.3,0.3-1.8c0.2-0.5,0.5-0.9,0.8-1.1c0.3-0.2,0.7-0.4,1-0.5
				c0.4-0.1,0.7-0.2,1.2-0.2s0.8,0.1,1.2,0.2c0.4,0.1,0.7,0.3,1,0.5c0.3,0.2,0.6,0.6,0.8,1.1c0.2,0.5,0.3,1.1,0.3,1.8
				s-0.1,1.3-0.3,1.8c-0.2,0.5-0.5,0.9-0.8,1.1c-0.3,0.2-0.7,0.4-1,0.5c-0.4,0.1-0.7,0.2-1.2,0.2s-0.8-0.1-1.2-0.2
				c-0.4-0.1-0.7-0.3-1-0.5C112.1,260.4,111.8,260.1,111.6,259.6z M112.8,256.5c-0.1,0.3-0.2,0.8-0.2,1.3s0.1,1,0.2,1.3
				c0.1,0.3,0.3,0.6,0.5,0.8c0.2,0.2,0.4,0.3,0.6,0.3c0.2,0.1,0.5,0.1,0.8,0.1s0.6,0,0.8-0.1c0.2-0.1,0.4-0.2,0.6-0.3
				c0.2-0.2,0.4-0.4,0.5-0.8c0.1-0.3,0.2-0.8,0.2-1.3s-0.1-1-0.2-1.3c-0.1-0.3-0.3-0.6-0.5-0.8s-0.4-0.3-0.6-0.3
				c-0.2-0.1-0.5-0.1-0.8-0.1s-0.6,0-0.8,0.1c-0.2,0.1-0.4,0.2-0.6,0.3C113,255.9,112.9,256.1,112.8,256.5z"/>
			<path class="st5" d="M119.4,261.2v-6.4c1-0.5,2-0.7,3-0.7c0.9,0,1.6,0.2,2.1,0.7s0.8,1.1,0.8,1.9v4.5h-1.3v-4.6
				c0-0.4-0.1-0.7-0.3-1c-0.2-0.2-0.6-0.4-1.3-0.4c-0.6,0-1.1,0.1-1.6,0.3v5.7H119.4z"/>
		</g>
		<g class="st3">
			<path class="st5" d="M127.1,256.2c0-0.6,0.2-1.1,0.6-1.5s1-0.6,1.9-0.6c0.6,0,1.3,0.2,1.9,0.5v1.1c-0.6-0.3-1.2-0.4-1.7-0.4
				c-0.9,0-1.4,0.3-1.4,0.9c0,0.2,0.1,0.4,0.4,0.5c0.2,0.1,0.5,0.2,0.9,0.3s0.7,0.2,1,0.4c0.3,0.1,0.6,0.4,0.9,0.7
				c0.2,0.3,0.4,0.7,0.4,1.2c0,0.6-0.2,1-0.6,1.5c-0.4,0.4-1.1,0.6-2,0.6c-0.7,0-1.4-0.2-2-0.5v-1.2c0.6,0.3,1.3,0.5,1.9,0.5
				c0,0,0,0,0,0c0.4,0,0.8-0.1,1-0.2s0.4-0.4,0.4-0.6c0-0.3-0.1-0.5-0.4-0.7s-0.5-0.3-0.9-0.4s-0.7-0.2-1-0.3s-0.6-0.3-0.9-0.6
				S127.1,256.7,127.1,256.2z"/>
		</g>
		<path class="st6" d="M139.6,257.9h53.1c0.4,0,0.8-0.4,0.8-0.8c0-0.4-0.4-0.8-0.8-0.8h-53.1c-0.4,0-0.8,0.4-0.8,0.8
			C138.8,257.5,139.2,257.9,139.6,257.9L139.6,257.9z"/>
		<g class="st3">
			<path class="st5" d="M242.6,233.6c0-0.7,0.3-1.4,0.8-1.9c0.5-0.5,1.4-0.8,2.5-0.8c0.8,0,1.6,0.2,2.4,0.6v1.3
				c-0.7-0.4-1.4-0.6-2.2-0.6c-1.4,0-2.1,0.5-2.1,1.4c0,0.3,0.1,0.5,0.4,0.7c0.2,0.2,0.6,0.3,0.9,0.5c0.4,0.1,0.8,0.3,1.2,0.4
				c0.4,0.2,0.8,0.4,1.2,0.6c0.4,0.2,0.7,0.5,0.9,0.9c0.2,0.4,0.4,0.8,0.4,1.4c0,0.8-0.3,1.4-0.9,1.9c-0.6,0.4-1.4,0.7-2.5,0.7
				c-0.9,0-1.9-0.2-2.8-0.7v-1.3c0.9,0.5,1.8,0.8,2.7,0.8c1.5,0,2.2-0.4,2.2-1.3c0-0.4-0.1-0.7-0.4-1c-0.2-0.3-0.6-0.5-0.9-0.6
				l-1.2-0.4c-0.4-0.2-0.8-0.3-1.2-0.5c-0.4-0.2-0.7-0.4-0.9-0.7C242.8,234.5,242.6,234.1,242.6,233.6z"/>
		</g>
		<g class="st3">
			<path class="st5" d="M250.4,235.7c0-0.8,0.1-1.4,0.3-2s0.4-1,0.7-1.4c0.3-0.3,0.6-0.6,1-0.8c0.4-0.2,0.8-0.4,1.2-0.4
				c0.4-0.1,0.8-0.1,1.2-0.1c0.4,0,0.8,0,1.2,0.1c0.4,0.1,0.8,0.2,1.2,0.4c0.4,0.2,0.7,0.5,1,0.8c0.3,0.3,0.5,0.8,0.7,1.4
				s0.3,1.3,0.3,2c0,0.8-0.1,1.6-0.3,2.2c-0.2,0.6-0.5,1.1-0.8,1.4c-0.4,0.3-0.7,0.6-1.1,0.8s-0.8,0.3-1.3,0.3c0,0.4,0.1,0.7,0.4,1
				s0.6,0.4,1,0.4v1c-0.8,0-1.4-0.2-1.9-0.7s-0.8-1-0.8-1.7c-0.5,0-1-0.2-1.4-0.3s-0.8-0.4-1.2-0.8c-0.4-0.3-0.7-0.8-0.9-1.5
				C250.5,237.3,250.4,236.6,250.4,235.7z M251.9,234.1c-0.1,0.4-0.2,1-0.2,1.6s0.1,1.1,0.2,1.6c0.1,0.5,0.3,0.8,0.5,1.1
				c0.2,0.3,0.4,0.5,0.7,0.6s0.6,0.2,0.8,0.3c0.3,0,0.5,0.1,0.9,0.1s0.6,0,0.9-0.1c0.3,0,0.5-0.1,0.8-0.3s0.5-0.4,0.7-0.6
				s0.3-0.6,0.5-1.1c0.1-0.5,0.2-1,0.2-1.6s-0.1-1.1-0.2-1.6c-0.1-0.4-0.3-0.8-0.5-1s-0.4-0.5-0.7-0.6s-0.6-0.2-0.8-0.3
				s-0.5-0.1-0.9-0.1s-0.6,0-0.9,0.1c-0.2,0-0.5,0.1-0.8,0.3s-0.5,0.4-0.7,0.6C252.2,233.3,252,233.7,251.9,234.1z"/>
		</g>
		<g class="st3">
			<path class="st5" d="M261,240.4v-9.3h1.3v8.1h4.6v1.2H261z"/>
		</g>
		<path class="st6" d="M272.6,236.3h37.1c0.5,0,0.8-0.4,0.8-0.8v0c0-0.4-0.4-0.8-0.8-0.8h-37.1c-0.4,0-0.8,0.4-0.8,0.8
			C271.8,235.9,272.2,236.3,272.6,236.3z"/>
		<path class="st2" d="M102,473.6h407c3.1,0,5.6,2.5,5.6,5.6v104.9c0,3.1-2.5,5.6-5.6,5.6H102c-3.1,0-5.6-2.5-5.6-5.6V479.3
			C96.4,476.2,98.9,473.6,102,473.6z"/>
		<g class="st3">
			<path class="st4" d="M431.2,562.3v-10.9h1.5v4.8h5.2v-4.8h1.5v10.9h-1.5v-4.8h-5.2v4.8H431.2z"/>
		</g>
		<g class="st3">
			<path class="st4" d="M441.5,559.7c0-0.8,0.3-1.4,1-1.9c0.7-0.5,1.6-0.7,2.8-0.7c0.5,0,1,0,1.5,0.1c0-0.7-0.2-1.2-0.6-1.5
				c-0.3-0.3-0.9-0.4-1.7-0.4c-0.7,0-1.5,0.1-2.3,0.4v-1.3c0.8-0.3,1.6-0.4,2.5-0.4c1.1,0,2,0.3,2.6,0.9c0.6,0.6,0.9,1.4,0.9,2.5
				v2.4c0,0.2,0,0.4-0.1,0.5c0,0.2-0.1,0.4-0.2,0.7c-0.1,0.3-0.3,0.5-0.5,0.7c-0.2,0.2-0.6,0.4-1,0.5c-0.4,0.1-1,0.2-1.6,0.2
				c-0.6,0-1.1-0.1-1.6-0.2c-0.5-0.2-0.8-0.3-1-0.5s-0.4-0.4-0.5-0.7c-0.1-0.3-0.2-0.5-0.3-0.7C441.5,560.1,441.5,559.9,441.5,559.7
				z M443,559.7c0,0.9,0.7,1.4,2,1.4c0,0,0,0,0,0c1.2,0,1.9-0.4,1.9-1.3v-1.3c-0.4-0.1-0.9-0.1-1.4-0.1c-0.2,0-0.4,0-0.7,0.1
				c-0.2,0-0.5,0.1-0.8,0.2c-0.3,0.1-0.5,0.2-0.7,0.4C443.1,559.2,443,559.4,443,559.7z"/>
		</g>
		<g class="st3">
			<path class="st4" d="M450.1,558.1c0-0.8,0.1-1.5,0.3-2.1s0.5-1,0.9-1.3c0.4-0.3,0.8-0.5,1.2-0.6c0.4-0.1,0.8-0.2,1.3-0.2
				c0.6,0,1.2,0.1,1.8,0.2V551h1.5v8.8c0,0.2,0,0.4-0.1,0.5c0,0.2-0.1,0.4-0.2,0.7s-0.3,0.5-0.5,0.7c-0.2,0.2-0.6,0.4-1,0.5
				s-1,0.2-1.5,0.2c-0.3,0-0.6,0-0.9-0.1c-0.3-0.1-0.6-0.2-1-0.4c-0.3-0.2-0.6-0.4-0.9-0.7c-0.2-0.3-0.5-0.7-0.6-1.3
				C450.2,559.5,450.1,558.8,450.1,558.1z M451.6,558.1c0,0.6,0.1,1.2,0.2,1.6s0.3,0.7,0.5,0.9c0.2,0.2,0.4,0.3,0.7,0.4
				c0.2,0.1,0.5,0.1,0.8,0.1c1.3,0,1.9-0.4,1.9-1.2v-4.2c-0.6-0.2-1.1-0.3-1.8-0.3c-0.3,0-0.6,0-0.9,0.1s-0.5,0.2-0.7,0.4
				c-0.2,0.2-0.4,0.5-0.5,0.8S451.6,557.5,451.6,558.1z"/>
		</g>
		<g class="st3">
			<path class="st4" d="M459.3,560.3c-0.2-0.6-0.3-1.3-0.3-2.1c0-0.8,0.1-1.5,0.3-2.1c0.2-0.6,0.5-1,0.9-1.3
				c0.4-0.3,0.8-0.5,1.2-0.6s0.9-0.2,1.4-0.2c0.5,0,0.9,0.1,1.4,0.2c0.4,0.1,0.8,0.3,1.2,0.6c0.4,0.3,0.7,0.7,0.9,1.3
				s0.3,1.3,0.3,2.1c0,0.8-0.1,1.5-0.3,2.1s-0.5,1-0.9,1.3s-0.8,0.5-1.2,0.6c-0.4,0.1-0.9,0.2-1.4,0.2c-0.5,0-0.9-0.1-1.4-0.2
				s-0.8-0.3-1.2-0.6S459.5,560.9,459.3,560.3z M460.6,556.7c-0.1,0.4-0.2,0.9-0.2,1.5c0,0.6,0.1,1.1,0.2,1.5s0.3,0.7,0.5,0.9
				c0.2,0.2,0.5,0.3,0.7,0.4c0.2,0.1,0.5,0.1,0.9,0.1s0.6,0,0.9-0.1c0.2-0.1,0.5-0.2,0.7-0.4c0.2-0.2,0.4-0.5,0.5-0.9
				c0.1-0.4,0.2-0.9,0.2-1.5c0-0.6-0.1-1.1-0.2-1.5c-0.1-0.4-0.3-0.7-0.5-0.9c-0.2-0.2-0.5-0.3-0.7-0.4c-0.2-0.1-0.5-0.1-0.9-0.1
				s-0.6,0-0.9,0.1c-0.2,0.1-0.5,0.2-0.7,0.4C460.9,556,460.8,556.3,460.6,556.7z"/>
		</g>
		<g class="st3">
			<path class="st4" d="M468.6,560.3c-0.2-0.6-0.3-1.3-0.3-2.1c0-0.8,0.1-1.5,0.3-2.1s0.5-1,0.9-1.3c0.4-0.3,0.8-0.5,1.2-0.6
				s0.9-0.2,1.4-0.2c0.5,0,0.9,0.1,1.4,0.2s0.8,0.3,1.2,0.6c0.4,0.3,0.7,0.7,0.9,1.3s0.3,1.3,0.3,2.1c0,0.8-0.1,1.5-0.3,2.1
				s-0.5,1-0.9,1.3s-0.8,0.5-1.2,0.6s-0.9,0.2-1.4,0.2c-0.5,0-0.9-0.1-1.4-0.2s-0.8-0.3-1.2-0.6S468.8,560.9,468.6,560.3z
				 M469.9,556.7c-0.1,0.4-0.2,0.9-0.2,1.5c0,0.6,0.1,1.1,0.2,1.5c0.1,0.4,0.3,0.7,0.5,0.9c0.2,0.2,0.5,0.3,0.7,0.4
				c0.2,0.1,0.5,0.1,0.9,0.1c0.3,0,0.6,0,0.9-0.1c0.2-0.1,0.5-0.2,0.7-0.4c0.2-0.2,0.4-0.5,0.5-0.9c0.1-0.4,0.2-0.9,0.2-1.5
				c0-0.6-0.1-1.1-0.2-1.5c-0.1-0.4-0.3-0.7-0.5-0.9c-0.2-0.2-0.5-0.3-0.7-0.4c-0.2-0.1-0.5-0.1-0.9-0.1c-0.3,0-0.6,0-0.9,0.1
				c-0.2,0.1-0.5,0.2-0.7,0.4C470.2,556,470,556.3,469.9,556.7z"/>
		</g>
		<g class="st3">
			<path class="st4" d="M477.9,565.4v-8.8c0-0.2,0-0.4,0-0.5c0-0.2,0.1-0.4,0.2-0.7c0.1-0.3,0.3-0.5,0.5-0.7c0.2-0.2,0.6-0.4,1-0.5
				c0.4-0.1,1-0.2,1.6-0.2c0.3,0,0.6,0,0.9,0.1c0.3,0.1,0.6,0.2,1,0.4c0.3,0.2,0.6,0.4,0.9,0.7s0.5,0.7,0.6,1.3
				c0.2,0.5,0.3,1.2,0.3,1.9c0,0.8-0.1,1.5-0.3,2.1c-0.2,0.6-0.5,1-0.9,1.3c-0.4,0.3-0.8,0.5-1.2,0.6s-0.8,0.2-1.3,0.2
				c-0.6,0-1.2-0.1-1.7-0.2v3.2H477.9z M479.4,560.8c0.6,0.2,1.1,0.3,1.7,0.3c0.3,0,0.6,0,0.9-0.1s0.5-0.2,0.7-0.4
				c0.2-0.2,0.4-0.5,0.5-0.9c0.1-0.4,0.2-0.9,0.2-1.5c0-0.6-0.1-1.2-0.2-1.6c-0.1-0.4-0.3-0.7-0.5-0.9c-0.2-0.2-0.4-0.3-0.7-0.4
				c-0.2-0.1-0.5-0.1-0.8-0.1c-1.3,0-1.9,0.4-1.9,1.2V560.8z"/>
		</g>
		<path class="st7" d="M457.8,494.3c-9.5,0-19.3,2.1-19.3,5.7v33c0,0.4,0.2,0.9,0.4,1.2c0.1,0.2,0.3,0.4,0.5,0.5
			c2.5,2.4,9.8,4,18.4,4s16-1.6,18.4-4c0.2-0.2,0.3-0.4,0.5-0.5c0.3-0.4,0.4-0.8,0.4-1.2v-33C477.1,496.5,467.3,494.3,457.8,494.3z"
			/>
		<path class="st0" d="M476.6,497.7c-1.7-1.3-3.7-2.1-5.8-2.5l-0.4-0.1l-1.2-0.3l-0.3-0.1c-0.4-0.1-0.9-0.2-1.4-0.2
			s-1.2-0.2-1.8-0.3l-0.9-0.1c-2.4-0.3-4.8-0.4-7.2-0.4l0,0c-9.7,0-19.8,2.2-19.8,5.9l0,0v33.8c0,0.5,0.2,0.9,0.4,1.3
			c0.1,0.2,0.3,0.4,0.5,0.5c2.5,2.4,10.1,4.1,18.9,4.1s16.4-1.6,18.9-4c0.2-0.2,0.3-0.4,0.5-0.6c0.3-0.4,0.4-0.8,0.4-1.3v-33.9
			C477.5,498.9,477.2,498.2,476.6,497.7z M440.8,499.6l0.1-0.1l0.2-0.1l0.2-0.1l0.2-0.1l0.2-0.1l0.3-0.1l0.3-0.1l0.4-0.1l0.4-0.1
			l0.4-0.1l0.4-0.1l0.5-0.1l0.5-0.1l0.5-0.1l0.5-0.1l0.6-0.1l0.5-0.1l0.7-0.1l0.6-0.1l0.7-0.1l0.6-0.1l0.8-0.1l0.6-0.1l0.9-0.1
			l0.6-0.1l1-0.1h0.7l1.1,0h0.6h1.8l0,0h1.8h0.6l1.1,0h0.7l1,0.1l0.7,0.1l0.9,0.1l0.6,0.1l0.8,0.1l0.6,0.1l0.7,0.1l0.6,0.1l0.7,0.1
			l0.5,0.1l0.6,0.1l0.5,0.1l0.5,0.1l0.5,0.1l0.5,0.1l0.4,0.1l0.4,0.1l0.4,0.1l0.4,0.1l0.3,0.1l0.3,0.1l0.2,0.1l0.2,0.1l0.2,0.1
			c0.1,0,0.1,0.1,0.2,0.1l0.1,0.1l0.1,0.1c-1.7,1.6-8.2,3.4-17.1,3.4S442.4,501.3,440.8,499.6L440.8,499.6L440.8,499.6z
			 M474.9,533.5c-1.7,1.6-8.2,3.3-17.1,3.3s-15.4-1.7-17.1-3.4l-0.1-0.1v-30.7c3.4,1.8,9.9,2.9,17.2,2.9s13.8-1.1,17.2-2.9v30.7
			L474.9,533.5z"/>
		<g class="st3">
			<path class="st4" d="M331.9,562.3v-10.9h1.7l6.1,8.7v-8.7h1.5v10.9h-1.7l-6.2-8.8v8.8H331.9z"/>
		</g>
		<g class="st3">
			<path class="st4" d="M343.6,560.3c-0.2-0.6-0.3-1.3-0.3-2.1c0-0.8,0.1-1.5,0.3-2.1c0.2-0.6,0.5-1,0.9-1.3
				c0.4-0.3,0.8-0.5,1.2-0.6s0.9-0.2,1.4-0.2c0.5,0,0.9,0.1,1.4,0.2c0.4,0.1,0.8,0.3,1.2,0.6c0.4,0.3,0.7,0.7,0.9,1.3
				s0.3,1.3,0.3,2.1c0,0.8-0.1,1.5-0.3,2.1s-0.5,1-0.9,1.3s-0.8,0.5-1.2,0.6c-0.4,0.1-0.9,0.2-1.4,0.2c-0.5,0-0.9-0.1-1.4-0.2
				s-0.8-0.3-1.2-0.6S343.8,560.9,343.6,560.3z M345,556.7c-0.1,0.4-0.2,0.9-0.2,1.5c0,0.6,0.1,1.1,0.2,1.5s0.3,0.7,0.5,0.9
				c0.2,0.2,0.5,0.3,0.7,0.4c0.2,0.1,0.5,0.1,0.9,0.1s0.6,0,0.9-0.1c0.2-0.1,0.5-0.2,0.7-0.4c0.2-0.2,0.4-0.5,0.5-0.9
				c0.1-0.4,0.2-0.9,0.2-1.5c0-0.6-0.1-1.1-0.2-1.5c-0.1-0.4-0.3-0.7-0.5-0.9c-0.2-0.2-0.5-0.3-0.7-0.4c-0.2-0.1-0.5-0.1-0.9-0.1
				s-0.6,0-0.9,0.1c-0.2,0.1-0.5,0.2-0.7,0.4C345.3,556,345.1,556.3,345,556.7z"/>
		</g>
		<g class="st3">
			<path class="st4" d="M352.5,554.3c0-0.9,0.3-1.6,0.9-2.2s1.6-0.9,2.9-0.9c1,0,1.9,0.2,2.8,0.7v1.5c-0.8-0.5-1.7-0.7-2.6-0.7
				c-1.7,0-2.5,0.6-2.5,1.7c0,0.3,0.1,0.6,0.4,0.8c0.3,0.2,0.6,0.4,1.1,0.5s0.9,0.3,1.4,0.5c0.5,0.2,1,0.4,1.4,0.7s0.8,0.6,1.1,1
				c0.3,0.5,0.4,1,0.4,1.6c0,0.9-0.4,1.7-1,2.2c-0.7,0.5-1.7,0.8-2.9,0.8c-1.1,0-2.2-0.3-3.3-0.8v-1.6c1,0.6,2.1,0.9,3.1,0.9
				c1.7,0,2.6-0.5,2.6-1.6c0-0.4-0.1-0.8-0.4-1.1c-0.3-0.3-0.6-0.5-1.1-0.7l-1.4-0.5c-0.5-0.2-1-0.4-1.4-0.5
				c-0.4-0.2-0.8-0.5-1.1-0.9S352.5,554.9,352.5,554.3z"/>
		</g>
		<g class="st3">
			<path class="st4" d="M361.6,556.8c0-0.9,0.1-1.7,0.3-2.4c0.2-0.7,0.5-1.2,0.8-1.6c0.3-0.4,0.7-0.7,1.2-1c0.5-0.3,0.9-0.4,1.4-0.5
				c0.4-0.1,0.9-0.1,1.4-0.1c0.5,0,1,0,1.4,0.1c0.4,0.1,0.9,0.3,1.4,0.5c0.5,0.3,0.9,0.6,1.2,1c0.3,0.4,0.6,0.9,0.8,1.6
				c0.2,0.7,0.3,1.5,0.3,2.4c0,1-0.1,1.8-0.4,2.5c-0.2,0.7-0.6,1.3-1,1.7s-0.9,0.7-1.3,0.9c-0.5,0.2-1,0.3-1.6,0.4
				c0,0.4,0.1,0.8,0.4,1.1c0.3,0.3,0.7,0.5,1.2,0.5v1.2c-0.9,0-1.7-0.3-2.2-0.8c-0.6-0.5-0.9-1.2-0.9-2c-0.6-0.1-1.1-0.2-1.6-0.4
				c-0.5-0.2-0.9-0.5-1.4-0.9c-0.4-0.4-0.8-1-1-1.7S361.6,557.8,361.6,556.8z M363.4,555c-0.1,0.5-0.2,1.1-0.2,1.9
				c0,0.7,0.1,1.3,0.2,1.9c0.1,0.5,0.3,0.9,0.6,1.2c0.2,0.3,0.5,0.5,0.8,0.7c0.3,0.2,0.6,0.3,0.9,0.3c0.3,0,0.6,0.1,1,0.1
				s0.7,0,1-0.1c0.3,0,0.6-0.2,1-0.3c0.3-0.2,0.6-0.4,0.8-0.7c0.2-0.3,0.4-0.7,0.6-1.2c0.1-0.5,0.2-1.2,0.2-1.9
				c0-0.7-0.1-1.3-0.2-1.9c-0.1-0.5-0.3-0.9-0.5-1.2c-0.2-0.3-0.5-0.5-0.8-0.7s-0.7-0.3-1-0.3c-0.3,0-0.6-0.1-1-0.1s-0.7,0-1,0.1
				s-0.6,0.2-0.9,0.3c-0.3,0.2-0.6,0.4-0.8,0.7C363.7,554,363.5,554.4,363.4,555z"/>
		</g>
		<g class="st3">
			<path class="st4" d="M374,562.3v-10.9h1.5v9.5h5.4v1.4H374z"/>
		</g>
		<path class="st7" d="M355.9,494.3c-9.5,0-19.3,2.1-19.3,5.7v33c0,0.4,0.1,0.9,0.4,1.2c0.1,0.2,0.3,0.4,0.5,0.5
			c2.5,2.4,9.9,4,18.4,4s16-1.6,18.4-4c0.2-0.2,0.3-0.4,0.5-0.5c0.3-0.4,0.4-0.8,0.4-1.2v-33C375.2,496.5,365.4,494.3,355.9,494.3z"
			/>
		<path class="st0" d="M374.7,497.7c-1.7-1.3-3.7-2.1-5.8-2.5l-0.4-0.1l-1.2-0.3l-0.3-0.1c-0.4-0.1-0.9-0.2-1.4-0.2
			s-1.2-0.2-1.8-0.3l-0.9-0.1c-2.4-0.3-4.8-0.4-7.2-0.4l0,0c-9.7,0-19.8,2.2-19.8,5.9l0,0v33.8c0,0.5,0.2,0.9,0.4,1.3
			c0.1,0.2,0.3,0.4,0.5,0.5c2.5,2.4,10.1,4.1,18.9,4.1s16.4-1.6,18.9-4c0.2-0.2,0.3-0.4,0.5-0.6c0.3-0.4,0.4-0.8,0.4-1.3v-33.9
			C375.6,498.9,375.3,498.2,374.7,497.7z M338.8,499.6l0.1-0.1c0.1,0,0.1-0.1,0.2-0.1l0.2-0.1l0.2-0.1l0.2-0.1l0.3-0.1l0.3-0.1
			l0.4-0.1l0.4-0.1l0.4-0.1l0.4-0.1l0.5-0.1l0.5-0.1l0.6-0.1l0.5-0.1l0.6-0.1l0.5-0.1l0.7-0.1l0.6-0.1l0.7-0.1l0.6-0.1l0.8-0.1
			l0.6-0.1l0.9-0.1l0.7-0.1l1-0.1h0.6l1.1,0h0.6h1.8l0,0h1.8h0.6l1.1,0h0.7l1,0.1l0.7,0.1l0.9,0.1l0.6,0.1l0.8,0.1l0.6,0.1l0.7,0.1
			l0.6,0.1l0.7,0.1l0.5,0.1l0.6,0.1l0.5,0.1l0.5,0.1l0.5,0.1l0.5,0.1l0.4,0.1l0.4,0.1l0.4,0.1l0.4,0.1l0.3,0.1l0.3,0.1l0.2,0.1
			l0.2,0.1l0.2,0.1l0.2,0.1l0.1,0.1l0.1,0.1c-1.7,1.6-8.2,3.4-17.1,3.4S340.5,501.3,338.8,499.6L338.8,499.6L338.8,499.6z
			 M373,533.5c-1.7,1.6-8.2,3.3-17.1,3.3s-15.4-1.7-17.1-3.4c0,0-0.1-0.1-0.1-0.1v-30.7c3.4,1.8,9.9,2.9,17.2,2.9s13.8-1.1,17.2-2.9
			v30.7L373,533.5z"/>
		<g class="st3">
			<path class="st4" d="M126.6,562.3v-10.9h4c1.2,0,2.2,0.3,2.9,0.9c0.7,0.6,1.1,1.4,1.1,2.4c0,0.9-0.2,1.6-0.7,2.1
				c-0.5,0.5-1,0.9-1.7,1.1l2.9,4.4h-1.8l-2.6-4.2h-2.5v4.2H126.6z M128.1,556.7h2.4c0.9,0,1.6-0.2,1.9-0.6c0.3-0.4,0.5-0.8,0.5-1.4
				c0-1.3-0.8-2-2.5-2h-2.4V556.7z"/>
			<path class="st4" d="M137,562.3v-10.9h3.5c1.7,0,3,0.5,3.8,1.4c0.9,0.9,1.3,2.3,1.3,4.1s-0.4,3.2-1.3,4.1
				c-0.9,0.9-2.1,1.4-3.8,1.4H137z M138.5,561h1.7c1.3,0,2.3-0.3,2.9-1c0.6-0.7,0.9-1.7,0.9-3.1c0-1.4-0.3-2.5-0.9-3.1
				c-0.6-0.7-1.6-1-2.9-1h-1.7V561z"/>
			<path class="st4" d="M148,562.3v-10.9h3.8c0.7,0,1.4,0.1,1.9,0.3c0.5,0.2,0.9,0.5,1.1,0.8s0.4,0.6,0.5,0.9c0.1,0.3,0.1,0.6,0.1,1
				c0,0.3,0,0.6-0.1,0.9c-0.1,0.3-0.2,0.5-0.3,0.6c-0.1,0.2-0.3,0.3-0.4,0.4s-0.2,0.2-0.3,0.2l-0.1,0.1l0.2,0.1
				c0.1,0,0.2,0.1,0.5,0.3c0.2,0.1,0.4,0.3,0.6,0.5s0.3,0.4,0.5,0.7s0.2,0.7,0.2,1c0,0.4,0,0.7-0.1,1c-0.1,0.3-0.3,0.6-0.5,1
				c-0.3,0.3-0.7,0.6-1.2,0.8c-0.6,0.2-1.2,0.3-2,0.3H148z M149.5,556h2.2c0.7,0,1.2-0.1,1.5-0.3c0.4-0.2,0.5-0.6,0.5-1.3
				c0-0.6-0.2-1.1-0.6-1.3s-0.9-0.4-1.7-0.4h-2.1V556z M149.5,561l2.5,0c0.8,0,1.5-0.1,1.9-0.4c0.4-0.3,0.6-0.8,0.6-1.4
				c0-0.7-0.2-1.1-0.7-1.4c-0.4-0.2-1.1-0.4-1.9-0.4h-2.4V561z"/>
			<path class="st4" d="M158.2,562.3v-10.9h1.7l3.6,4.7l3.6-4.7h1.7v10.9h-1.5v-8.6l-3.7,4.9l-3.7-4.9v8.6H158.2z"/>
			<path class="st4" d="M171.2,554.3c0-0.9,0.3-1.6,0.9-2.2s1.6-0.9,2.9-0.9c1,0,1.9,0.2,2.8,0.7v1.5c-0.8-0.5-1.7-0.7-2.6-0.7
				c-1.7,0-2.5,0.6-2.5,1.7c0,0.3,0.1,0.6,0.4,0.8c0.3,0.2,0.6,0.4,1.1,0.5c0.4,0.1,0.9,0.3,1.4,0.5c0.5,0.2,1,0.4,1.4,0.7
				s0.8,0.6,1.1,1c0.3,0.5,0.4,1,0.4,1.6c0,0.9-0.4,1.7-1,2.2c-0.7,0.5-1.7,0.8-2.9,0.8c-1.1,0-2.2-0.3-3.3-0.8v-1.6
				c1,0.6,2.1,0.9,3.1,0.9c1.7,0,2.6-0.5,2.6-1.6c0-0.4-0.1-0.8-0.4-1.1s-0.6-0.5-1.1-0.7l-1.4-0.5c-0.5-0.2-1-0.4-1.4-0.5
				c-0.4-0.2-0.8-0.5-1.1-0.9C171.3,555.4,171.2,554.9,171.2,554.3z"/>
		</g>
		<path class="st7" d="M152.3,494.3c-9.5,0-19.3,2.1-19.3,5.7v33c0,0.4,0.1,0.9,0.4,1.2c0.1,0.2,0.3,0.4,0.5,0.5
			c2.4,2.4,9.8,4,18.4,4s15.9-1.6,18.4-4c0.2-0.2,0.3-0.4,0.5-0.5c0.3-0.4,0.4-0.8,0.4-1.2v-33C171.6,496.5,161.8,494.3,152.3,494.3
			z"/>
		<path class="st0" d="M171.1,497.7c-1.7-1.3-3.7-2.1-5.8-2.5l-0.4-0.1l-1.2-0.3l-0.3-0.1c-0.4-0.1-0.9-0.2-1.4-0.2
			s-1.2-0.2-1.8-0.3l-0.9-0.1c-2.4-0.3-4.8-0.4-7.2-0.4l0,0c-9.7,0-19.8,2.2-19.8,5.9l0,0v33.8c0,0.5,0.2,0.9,0.4,1.3
			c0.1,0.2,0.3,0.4,0.5,0.5c2.5,2.4,10.1,4.1,18.9,4.1s16.4-1.6,18.9-4c0.2-0.2,0.3-0.4,0.5-0.6c0.3-0.4,0.4-0.8,0.4-1.3v-33.9
			C172,498.9,171.7,498.2,171.1,497.7z M135.2,499.6l0.1-0.1c0.1,0,0.1-0.1,0.2-0.1l0.2-0.1l0.2-0.1l0.2-0.1l0.3-0.1l0.3-0.1
			l0.4-0.1l0.4-0.1l0.4-0.1l0.4-0.1l0.5-0.1l0.4-0.1l0.6-0.1l0.5-0.1l0.6-0.1l0.5-0.1l0.7-0.1l0.6-0.1l0.7-0.1l0.6-0.1l0.8-0.1
			l0.6-0.1l0.9-0.1l0.7-0.1l1-0.1h0.7l1.1,0h0.6h1.8l0,0h1.8h0.6l1.1,0h0.7l1,0.1l0.7,0.1l0.9,0.1l0.6,0.1l0.8,0.1l0.6,0.1l0.7,0.1
			l0.6,0.1l0.7,0.1l0.6,0.1l0.6,0.1l0.5,0.1l0.6,0.1l0.4,0.1l0.5,0.1l0.4,0.1l0.4,0.1l0.4,0.1l0.4,0.1l0.3,0.1l0.3,0.1l0.2,0.1
			l0.2,0.1l0.2,0.1l0.2,0.1l0.1,0.1l0.1,0.1c-1.7,1.6-8.2,3.4-17.1,3.4S136.9,501.3,135.2,499.6L135.2,499.6L135.2,499.6z
			 M169.4,533.5c-1.7,1.6-8.2,3.3-17.1,3.3s-15.4-1.7-17.1-3.4c0,0-0.1-0.1-0.1-0.1v-30.7c3.4,1.8,9.9,2.9,17.2,2.9
			s13.8-1.1,17.2-2.9v30.7L169.4,533.5z"/>
		<g class="st3">
			<path class="st4" d="M229.2,562.3v-10.9h4c1.2,0,2.2,0.3,2.9,0.9c0.7,0.6,1.1,1.4,1.1,2.4c0,0.9-0.2,1.6-0.7,2.1
				c-0.5,0.5-1,0.9-1.7,1.1l2.9,4.4h-1.8l-2.6-4.2h-2.5v4.2H229.2z M230.8,556.7h2.4c0.9,0,1.6-0.2,1.9-0.6c0.3-0.4,0.5-0.8,0.5-1.4
				c0-1.3-0.8-2-2.5-2h-2.4V556.7z"/>
			<path class="st4" d="M239.6,562.3v-10.9h3.5c1.7,0,3,0.5,3.8,1.4c0.9,0.9,1.3,2.3,1.3,4.1s-0.4,3.2-1.3,4.1
				c-0.9,0.9-2.1,1.4-3.8,1.4H239.6z M241.1,561h1.7c1.3,0,2.3-0.3,2.9-1c0.6-0.7,0.9-1.7,0.9-3.1c0-1.4-0.3-2.5-0.9-3.1
				c-0.6-0.7-1.6-1-2.9-1h-1.7V561z"/>
			<path class="st4" d="M250.7,562.3v-10.9h3.8c0.7,0,1.4,0.1,1.9,0.3c0.5,0.2,0.9,0.5,1.1,0.8s0.4,0.6,0.5,0.9
				c0.1,0.3,0.1,0.6,0.1,1c0,0.3,0,0.6-0.1,0.9c-0.1,0.3-0.2,0.5-0.3,0.6c-0.1,0.2-0.3,0.3-0.4,0.4s-0.2,0.2-0.3,0.2l-0.1,0.1
				l0.2,0.1c0.1,0,0.2,0.1,0.5,0.3c0.2,0.1,0.4,0.3,0.6,0.5s0.3,0.4,0.5,0.7s0.2,0.7,0.2,1c0,0.4,0,0.7-0.1,1
				c-0.1,0.3-0.3,0.6-0.5,1c-0.3,0.3-0.7,0.6-1.2,0.8c-0.6,0.2-1.2,0.3-2,0.3H250.7z M252.2,556h2.2c0.7,0,1.2-0.1,1.5-0.3
				c0.4-0.2,0.5-0.6,0.5-1.3c0-0.6-0.2-1.1-0.6-1.3s-0.9-0.4-1.7-0.4h-2.1V556z M252.2,561l2.5,0c0.8,0,1.5-0.1,1.9-0.4
				c0.4-0.3,0.6-0.8,0.6-1.4c0-0.7-0.2-1.1-0.7-1.4c-0.4-0.2-1.1-0.4-1.9-0.4h-2.4V561z"/>
			<path class="st4" d="M260.9,562.3v-10.9h1.7l3.6,4.7l3.6-4.7h1.7v10.9h-1.5v-8.6l-3.7,4.9l-3.7-4.9v8.6H260.9z"/>
			<path class="st4" d="M273.8,554.3c0-0.9,0.3-1.6,0.9-2.2s1.6-0.9,2.9-0.9c1,0,1.9,0.2,2.8,0.7v1.5c-0.8-0.5-1.7-0.7-2.6-0.7
				c-1.7,0-2.5,0.6-2.5,1.7c0,0.3,0.1,0.6,0.4,0.8c0.3,0.2,0.6,0.4,1.1,0.5c0.4,0.1,0.9,0.3,1.4,0.5c0.5,0.2,1,0.4,1.4,0.7
				s0.8,0.6,1.1,1c0.3,0.5,0.4,1,0.4,1.6c0,0.9-0.4,1.7-1,2.2c-0.7,0.5-1.7,0.8-2.9,0.8c-1.1,0-2.2-0.3-3.3-0.8v-1.6
				c1,0.6,2.1,0.9,3.1,0.9c1.7,0,2.6-0.5,2.6-1.6c0-0.4-0.1-0.8-0.4-1.1s-0.6-0.5-1.1-0.7l-1.4-0.5c-0.5-0.2-1-0.4-1.4-0.5
				c-0.4-0.2-0.8-0.5-1.1-0.9C273.9,555.4,273.8,554.9,273.8,554.3z"/>
		</g>
		<path class="st7" d="M254.9,494.3c-9.5,0-19.3,2.1-19.3,5.7v33c0,0.4,0.1,0.9,0.4,1.2c0.1,0.2,0.3,0.4,0.5,0.5
			c2.4,2.4,9.8,4,18.4,4c8.6,0,16-1.6,18.4-4c0.2-0.2,0.3-0.3,0.5-0.5c0.3-0.4,0.4-0.8,0.4-1.2v-33
			C274.2,496.5,264.4,494.3,254.9,494.3z"/>
		<path class="st0" d="M273.7,497.7c-1.7-1.3-3.7-2.1-5.8-2.5l-0.4-0.1l-1.2-0.3l-0.3-0.1c-0.4-0.1-0.9-0.2-1.4-0.2
			s-1.2-0.2-1.8-0.3l-0.9-0.1c-2.4-0.3-4.8-0.4-7.2-0.4l0,0c-9.7,0-19.8,2.2-19.8,5.9l0,0v33.8c0,0.5,0.2,0.9,0.4,1.3
			c0.1,0.2,0.3,0.4,0.5,0.5c2.5,2.4,10.1,4.1,18.9,4.1c8.8,0,16.4-1.6,18.9-4c0.2-0.2,0.3-0.4,0.5-0.6c0.3-0.4,0.4-0.8,0.4-1.3
			v-33.9C274.7,498.9,274.3,498.2,273.7,497.7z M237.9,499.6l0.1-0.1c0.1,0,0.1-0.1,0.2-0.1l0.2-0.1l0.2-0.1l0.2-0.1l0.3-0.1
			l0.3-0.1l0.4-0.1l0.4-0.1l0.4-0.1l0.4-0.1l0.5-0.1l0.4-0.1l0.6-0.1l0.5-0.1l0.6-0.1l0.5-0.1l0.7-0.1l0.6-0.1l0.7-0.1l0.6-0.1
			l0.8-0.1l0.6-0.1l0.9-0.1l0.7-0.1l1-0.1h0.7l1.1,0h0.6h1.8l0,0h1.8h0.6l1.1,0h0.7l1,0.1l0.7,0.1l0.9,0.1l0.6,0.1l0.8,0.1l0.6,0.1
			l0.7,0.1l0.6,0.1l0.7,0.1l0.5,0.1l0.6,0.1l0.5,0.1l0.5,0.1l0.5,0.1l0.5,0.1l0.4,0.1l0.4,0.1l0.4,0.1l0.4,0.1l0.3,0.1l0.3,0.1
			l0.2,0.1l0.2,0.1l0.2,0.1l0.2,0.1l0.1,0.1l0.1,0.1c-1.7,1.6-8.2,3.4-17.1,3.4S239.5,501.3,237.9,499.6L237.9,499.6L237.9,499.6z
			 M272,533.5c-1.7,1.6-8.2,3.3-17.1,3.3s-15.4-1.7-17.1-3.4c0,0-0.1-0.1-0.1-0.1v-30.7c3.4,1.8,9.9,2.9,17.2,2.9s13.8-1.1,17.2-2.9
			v30.7L272,533.5z"/>
		<g class="st3">
			<path class="st4" d="M274.5,636.3v-10.9h3.5c1.7,0,3,0.5,3.8,1.4c0.9,0.9,1.3,2.3,1.3,4.1s-0.4,3.2-1.3,4.1
				c-0.9,0.9-2.1,1.4-3.8,1.4H274.5z M276,635h1.7c1.3,0,2.3-0.3,2.9-1c0.6-0.7,0.9-1.7,0.9-3.1c0-1.4-0.3-2.5-0.9-3.1
				c-0.6-0.7-1.6-1-2.9-1H276V635z"/>
		</g>
		<g class="st3">
			<path class="st4" d="M285.4,626.9v-1.6h1.6v1.6H285.4z M285.4,636.3v-8.2h1.5v8.2H285.4z"/>
		</g>
		<g class="st3">
			<path class="st4" d="M289.1,630.5c0-0.7,0.2-1.3,0.7-1.7s1.2-0.7,2.2-0.7c0.7,0,1.5,0.2,2.2,0.5v1.3c-0.7-0.3-1.4-0.5-2-0.5
				c-1.1,0-1.6,0.3-1.6,1c0,0.2,0.1,0.4,0.4,0.6c0.3,0.2,0.6,0.3,1,0.4c0.4,0.1,0.8,0.3,1.2,0.4s0.8,0.4,1,0.8
				c0.3,0.4,0.4,0.9,0.4,1.4c0,0.7-0.2,1.2-0.7,1.7c-0.5,0.5-1.3,0.7-2.3,0.7c-0.9,0-1.7-0.2-2.4-0.6v-1.4c0.7,0.4,1.5,0.6,2.3,0.6
				c0,0,0,0,0,0c0.5,0,0.9-0.1,1.2-0.3c0.3-0.2,0.4-0.4,0.4-0.7c0-0.3-0.1-0.6-0.4-0.8c-0.3-0.2-0.6-0.4-1-0.5s-0.8-0.2-1.2-0.4
				c-0.4-0.1-0.8-0.4-1-0.7C289.2,631.4,289.1,631,289.1,630.5z"/>
		</g>
		<g class="st3">
			<path class="st4" d="M296.6,636.3v-11.3h1.5v6.5l3.5-3.4h2l-3.6,3.4l4,4.8h-2l-3-3.8l-1,1v2.8H296.6z"/>
		</g>
		<g class="st3">
			<path class="st4" d="M310.5,626.8v-1.4h8.9v1.4h-3.7v9.5h-1.5v-9.5H310.5z"/>
		</g>
		<g class="st3">
			<path class="st4" d="M320.7,626.9v-1.6h1.6v1.6H320.7z M320.8,636.3v-8.2h1.5v8.2H320.8z"/>
		</g>
		<g class="st3">
			<path class="st4" d="M324.5,632.4c0-2.9,1.2-4.3,3.6-4.3c0,0,0,0,0,0c1.1,0,2,0.4,2.6,1.1s1,1.7,1,2.9c0,0.4,0,0.8,0,1.1h-5.7
				c0.2,1.4,1,2.1,2.3,2.1c1.1,0,2-0.2,2.8-0.6v1.4c-0.8,0.4-1.8,0.5-2.9,0.5c0,0,0,0,0,0c-0.5,0-0.9-0.1-1.3-0.2s-0.8-0.3-1.2-0.6
				c-0.4-0.3-0.7-0.7-0.9-1.3C324.6,633.9,324.5,633.2,324.5,632.4z M326,631.8h4.2c0-0.3-0.1-0.5-0.1-0.8c-0.1-0.2-0.2-0.5-0.3-0.8
				c-0.1-0.3-0.4-0.5-0.6-0.6s-0.6-0.2-1-0.2c-0.7,0-1.2,0.2-1.5,0.5C326.3,630.3,326.1,630.9,326,631.8z"/>
		</g>
		<g class="st3">
			<path class="st4" d="M333.7,636.3v-7.5c1.4-0.5,2.7-0.8,4-0.8v1.4c-0.8,0-1.6,0.1-2.5,0.3v6.6H333.7z"/>
		</g>
		<path class="st2" d="M304.7,561.9V615c0,0.4,0.4,0.8,0.8,0.8c0.4,0,0.8-0.4,0.8-0.8v-53.1c0-0.4-0.4-0.8-0.8-0.8
			C305.1,561.1,304.7,561.5,304.7,561.9z"/>
		<path class="st2" d="M121.2,298h368.6c3.1,0,5.6,2.5,5.6,5.6V377c0,3.1-2.5,5.6-5.6,5.6H121.2c-3.1,0-5.6-2.5-5.6-5.6v-73.4
			C115.6,300.5,118.1,298,121.2,298z"/>
		<g class="st3">
			<path class="st4" d="M528.4,336.6v-10.9h1.5v10.9H528.4z"/>
		</g>
		<g class="st3">
			<path class="st4" d="M532.4,336.6v-7.5c1.1-0.6,2.3-0.8,3.5-0.8c1,0,1.8,0.3,2.4,0.8c0.6,0.5,0.9,1.3,0.9,2.2v5.3h-1.5v-5.4
				c0-0.5-0.1-0.9-0.4-1.1s-0.7-0.4-1.5-0.4c-0.7,0-1.3,0.1-1.9,0.3v6.6H532.4z"/>
			<path class="st4" d="M542,332.3v-1.3h5v1.3H542z"/>
		</g>
		<g class="st3">
			<path class="st4" d="M549.7,336.6v-10.9h1.7l3.6,4.7l3.6-4.7h1.7v10.9h-1.5V328l-3.7,4.9l-3.7-4.9v8.6H549.7z"/>
		</g>
		<g class="st3">
			<path class="st4" d="M562.4,332.6c0-2.9,1.2-4.3,3.6-4.3c0,0,0,0,0,0c1.1,0,2,0.4,2.6,1.1s1,1.7,1,2.9c0,0.4,0,0.8,0,1.1h-5.7
				c0.2,1.4,1,2.1,2.3,2.1c1.1,0,2-0.2,2.8-0.6v1.4c-0.8,0.4-1.8,0.5-2.9,0.5c0,0,0,0,0,0c-0.5,0-0.9-0.1-1.3-0.2s-0.8-0.3-1.2-0.6
				c-0.4-0.3-0.7-0.7-0.9-1.3C562.5,334.1,562.4,333.4,562.4,332.6z M563.9,332h4.2c0-0.3-0.1-0.5-0.1-0.8c-0.1-0.2-0.2-0.5-0.3-0.8
				c-0.1-0.3-0.4-0.5-0.6-0.6s-0.6-0.2-1-0.2c-0.7,0-1.2,0.2-1.5,0.5C564.2,330.5,564,331.1,563.9,332z"/>
		</g>
		<g class="st3">
			<path class="st4" d="M571.6,336.6v-7.5c1.1-0.5,2.2-0.8,3.4-0.8c0.9,0,1.6,0.2,2.2,0.6c1-0.4,2-0.6,3-0.6c1,0,1.8,0.3,2.4,0.8
				s0.9,1.3,0.9,2.3v5.3H582v-5.4c0-0.5-0.1-0.8-0.3-1.1c-0.2-0.3-0.7-0.4-1.3-0.4c-0.7,0-1.5,0.2-2.2,0.5c0.1,0.3,0.2,0.7,0.2,1.2
				c0,0,0,0,0,0v5.3h-1.5v-5.3c0-0.5-0.1-0.9-0.4-1.1s-0.8-0.4-1.5-0.4c-0.6,0-1.2,0.1-1.8,0.2v6.7H571.6z"/>
		</g>
		<g class="st3">
			<path class="st4" d="M585.8,334.6c-0.2-0.6-0.3-1.3-0.3-2.1c0-0.8,0.1-1.5,0.3-2.1s0.5-1,0.9-1.3c0.4-0.3,0.8-0.5,1.2-0.6
				s0.9-0.2,1.4-0.2c0.5,0,0.9,0.1,1.4,0.2s0.8,0.3,1.2,0.6c0.4,0.3,0.7,0.7,0.9,1.3s0.3,1.3,0.3,2.1c0,0.8-0.1,1.5-0.3,2.1
				s-0.5,1-0.9,1.3s-0.8,0.5-1.2,0.6s-0.9,0.2-1.4,0.2c-0.5,0-0.9-0.1-1.4-0.2s-0.8-0.3-1.2-0.6S586,335.2,585.8,334.6z M587.1,331
				c-0.1,0.4-0.2,0.9-0.2,1.5c0,0.6,0.1,1.1,0.2,1.5c0.1,0.4,0.3,0.7,0.5,0.9c0.2,0.2,0.5,0.3,0.7,0.4c0.2,0.1,0.5,0.1,0.9,0.1
				c0.3,0,0.6,0,0.9-0.1c0.2-0.1,0.5-0.2,0.7-0.4c0.2-0.2,0.4-0.5,0.5-0.9c0.1-0.4,0.2-0.9,0.2-1.5c0-0.6-0.1-1.1-0.2-1.5
				c-0.1-0.4-0.3-0.7-0.5-0.9c-0.2-0.2-0.5-0.3-0.7-0.4c-0.2-0.1-0.5-0.1-0.9-0.1c-0.3,0-0.6,0-0.9,0.1c-0.2,0.1-0.5,0.2-0.7,0.4
				C587.4,330.3,587.2,330.6,587.1,331z"/>
		</g>
		<g class="st3">
			<path class="st4" d="M595.1,336.6v-7.5c1.4-0.5,2.7-0.8,4-0.8v1.4c-0.8,0-1.6,0.1-2.5,0.3v6.6H595.1z"/>
		</g>
		<g class="st3">
			<path class="st4" d="M600.4,328.4h1.6l2.2,6.1l2.2-6.1h1.6l-3.4,9.1c-0.6,1.6-1.4,2.4-2.5,2.4h0c-0.4,0-0.7,0-1.1-0.1v-1.4
				c0.3,0.1,0.6,0.1,0.9,0.1c0.7,0,1.2-0.6,1.6-1.9L600.4,328.4z"/>
		</g>
		<g class="st3">
			<path class="st4" d="M527.2,344.7v-1.4h8.9v1.4h-3.7v9.5h-1.5v-9.5H527.2z"/>
		</g>
		<g class="st3">
			<path class="st4" d="M537.4,344.8v-1.6h1.6v1.6H537.4z M537.4,354.2V346h1.5v8.2H537.4z"/>
		</g>
		<g class="st3">
			<path class="st4" d="M541.2,350.2c0-2.9,1.2-4.3,3.6-4.3c0,0,0,0,0,0c1.1,0,2,0.4,2.6,1.1c0.7,0.7,1,1.7,1,2.9c0,0.4,0,0.8,0,1.1
				h-5.6c0.2,1.4,0.9,2.1,2.3,2.1c1.1,0,2-0.2,2.8-0.6v1.4c-0.8,0.4-1.8,0.5-2.9,0.5c0,0,0,0,0,0c-0.5,0-0.9-0.1-1.3-0.2
				c-0.4-0.1-0.8-0.3-1.2-0.6c-0.4-0.3-0.7-0.7-0.9-1.3S541.2,351,541.2,350.2z M542.7,349.6h4.2c0-0.3-0.1-0.5-0.1-0.8
				s-0.2-0.5-0.3-0.8s-0.4-0.5-0.6-0.6c-0.3-0.2-0.6-0.2-1-0.2c-0.7,0-1.2,0.2-1.5,0.5C543,348.1,542.8,348.7,542.7,349.6z"/>
		</g>
		<g class="st3">
			<path class="st4" d="M550.4,354.2v-7.5c1.4-0.5,2.7-0.8,4-0.8v1.4c-0.8,0-1.6,0.1-2.5,0.3v6.6H550.4z"/>
		</g>
		<path class="st2" d="M455.9,341.1H524c0.4,0,0.8-0.4,0.8-0.8c0-0.4-0.4-0.8-0.8-0.8c0,0,0,0,0,0h-68.1c-0.4,0-0.8,0.4-0.8,0.8
			S455.4,341.1,455.9,341.1C455.9,341.1,455.9,341.1,455.9,341.1z"/>
		<g class="st3">
			<path class="st4" d="M110.5,162.9l4.4-10.9h1.5l4.3,10.9H119l-1.2-3.1h-4.6l-1.2,3.1H110.5z M113.9,158.4h3.5l-1.7-4.5
				L113.9,158.4z"/>
		</g>
		<g class="st3">
			<path class="st4" d="M122.4,166v-8.8c0-0.2,0-0.4,0-0.5c0-0.2,0.1-0.4,0.2-0.7s0.3-0.5,0.5-0.7c0.2-0.2,0.6-0.4,1-0.5
				s1-0.2,1.6-0.2c0.3,0,0.6,0,0.9,0.1c0.3,0.1,0.6,0.2,1,0.4c0.3,0.2,0.6,0.4,0.9,0.7c0.3,0.3,0.5,0.7,0.6,1.3
				c0.2,0.5,0.3,1.2,0.3,1.9c0,0.8-0.1,1.5-0.3,2.1s-0.5,1-0.9,1.3s-0.8,0.5-1.2,0.6s-0.8,0.2-1.3,0.2c-0.6,0-1.2-0.1-1.7-0.2v3.2
				H122.4z M123.9,161.3c0.6,0.2,1.1,0.3,1.7,0.3c0.3,0,0.6,0,0.9-0.1c0.2-0.1,0.5-0.2,0.7-0.4c0.2-0.2,0.4-0.5,0.5-0.9
				c0.1-0.4,0.2-0.9,0.2-1.5c0-0.6-0.1-1.2-0.2-1.6c-0.1-0.4-0.3-0.7-0.5-0.9c-0.2-0.2-0.4-0.3-0.7-0.4s-0.5-0.1-0.8-0.1
				c-1.3,0-1.9,0.4-1.9,1.2V161.3z"/>
		</g>
		<g class="st3">
			<path class="st4" d="M131.3,166v-8.8c0-0.2,0-0.4,0-0.5c0-0.2,0.1-0.4,0.2-0.7s0.3-0.5,0.5-0.7c0.2-0.2,0.6-0.4,1-0.5
				s1-0.2,1.6-0.2c0.3,0,0.6,0,0.9,0.1c0.3,0.1,0.6,0.2,1,0.4c0.3,0.2,0.6,0.4,0.9,0.7c0.3,0.3,0.5,0.7,0.6,1.3
				c0.2,0.5,0.3,1.2,0.3,1.9c0,0.8-0.1,1.5-0.3,2.1s-0.5,1-0.9,1.3s-0.8,0.5-1.2,0.6s-0.8,0.2-1.3,0.2c-0.6,0-1.2-0.1-1.7-0.2v3.2
				H131.3z M132.8,161.3c0.6,0.2,1.1,0.3,1.7,0.3c0.3,0,0.6,0,0.9-0.1c0.2-0.1,0.5-0.2,0.7-0.4c0.2-0.2,0.4-0.5,0.5-0.9
				c0.1-0.4,0.2-0.9,0.2-1.5c0-0.6-0.1-1.2-0.2-1.6c-0.1-0.4-0.3-0.7-0.5-0.9c-0.2-0.2-0.4-0.3-0.7-0.4s-0.5-0.1-0.8-0.1
				c-1.3,0-1.9,0.4-1.9,1.2V161.3z"/>
		</g>
		<g class="st3">
			<path class="st4" d="M140.6,162.9v-11.3h1.5v11.3H140.6z"/>
		</g>
		<g class="st3">
			<path class="st4" d="M144.8,153.4v-1.6h1.6v1.6H144.8z M144.9,162.9v-8.2h1.5v8.2H144.9z"/>
		</g>
		<g class="st3">
			<path class="st4" d="M149.5,161.9c-0.6-0.7-1-1.8-1-3.1c0-1.4,0.3-2.4,1-3.1c0.6-0.7,1.6-1.1,2.8-1.1c0.8,0,1.6,0.2,2.4,0.5v1.4
				c-0.7-0.4-1.5-0.5-2.2-0.5c0,0,0,0,0,0c-0.8,0-1.3,0.2-1.8,0.6s-0.6,1.2-0.6,2.3c0,0.6,0.1,1.1,0.2,1.5s0.3,0.7,0.6,0.9
				c0.2,0.2,0.5,0.3,0.8,0.4s0.6,0.1,0.9,0.1c0.8,0,1.5-0.2,2.3-0.5v1.4c-0.8,0.3-1.6,0.5-2.4,0.5
				C151.1,163,150.1,162.6,149.5,161.9z"/>
		</g>
		<g class="st3">
			<path class="st4" d="M156.2,160.3c0-0.8,0.3-1.4,1-1.9c0.7-0.5,1.6-0.7,2.8-0.7c0.5,0,1,0,1.5,0.1c0-0.7-0.2-1.2-0.6-1.5
				c-0.3-0.3-0.9-0.4-1.7-0.4c-0.7,0-1.5,0.1-2.3,0.4V155c0.8-0.3,1.6-0.4,2.5-0.4c1.1,0,2,0.3,2.6,0.9c0.6,0.6,0.9,1.4,0.9,2.5v2.4
				c0,0.2,0,0.4-0.1,0.5c0,0.2-0.1,0.4-0.2,0.7c-0.1,0.3-0.3,0.5-0.5,0.7c-0.2,0.2-0.6,0.4-1,0.5s-1,0.2-1.6,0.2
				c-0.6,0-1.1-0.1-1.6-0.2c-0.5-0.2-0.8-0.3-1-0.5s-0.4-0.4-0.5-0.7s-0.2-0.5-0.3-0.7C156.3,160.7,156.2,160.5,156.2,160.3z
				 M157.7,160.3c0,0.9,0.7,1.4,2,1.4c0,0,0,0,0,0c1.2,0,1.9-0.4,1.9-1.3V159c-0.4-0.1-0.9-0.1-1.4-0.1c-0.2,0-0.4,0-0.7,0.1
				c-0.2,0-0.5,0.1-0.8,0.2s-0.5,0.2-0.7,0.4S157.7,160,157.7,160.3z"/>
		</g>
		<g class="st3">
			<path class="st4" d="M164.3,156v-1.3h1.4v-2.4h1.5v2.4h2.2v1.3h-2.2v4.7c0,0.6,0.4,1,1.2,1c0,0,0,0,0,0c0.4,0,0.7-0.1,1-0.2v1.4
				c-0.4,0.2-0.7,0.2-1.1,0.2c0,0,0,0,0,0c-0.2,0-0.4,0-0.6-0.1c-0.2,0-0.5-0.1-0.8-0.3c-0.3-0.1-0.6-0.4-0.8-0.7s-0.3-0.8-0.3-1.3
				V156H164.3z"/>
		</g>
		<g class="st3">
			<path class="st4" d="M171.4,153.4v-1.6h1.6v1.6H171.4z M171.4,162.9v-8.2h1.5v8.2H171.4z"/>
		</g>
		<g class="st3">
			<path class="st4" d="M175.4,160.9c-0.2-0.6-0.3-1.3-0.3-2.1c0-0.8,0.1-1.5,0.3-2.1c0.2-0.6,0.5-1,0.9-1.3
				c0.4-0.3,0.8-0.5,1.2-0.6s0.9-0.2,1.4-0.2c0.5,0,0.9,0.1,1.4,0.2c0.4,0.1,0.8,0.3,1.2,0.6c0.4,0.3,0.7,0.7,0.9,1.3
				s0.3,1.3,0.3,2.1c0,0.8-0.1,1.5-0.3,2.1s-0.5,1-0.9,1.3s-0.8,0.5-1.2,0.6c-0.4,0.1-0.9,0.2-1.4,0.2c-0.5,0-0.9-0.1-1.4-0.2
				s-0.8-0.3-1.2-0.6S175.6,161.5,175.4,160.9z M176.8,157.3c-0.1,0.4-0.2,0.9-0.2,1.5c0,0.6,0.1,1.1,0.2,1.5s0.3,0.7,0.5,0.9
				c0.2,0.2,0.5,0.3,0.7,0.4c0.2,0.1,0.5,0.1,0.9,0.1s0.6,0,0.9-0.1c0.2-0.1,0.5-0.2,0.7-0.4c0.2-0.2,0.4-0.5,0.5-0.9
				c0.1-0.4,0.2-0.9,0.2-1.5c0-0.6-0.1-1.1-0.2-1.5c-0.1-0.4-0.3-0.7-0.5-0.9c-0.2-0.2-0.5-0.3-0.7-0.4c-0.2-0.1-0.5-0.1-0.9-0.1
				s-0.6,0-0.9,0.1c-0.2,0.1-0.5,0.2-0.7,0.4C177.1,156.6,176.9,156.9,176.8,157.3z"/>
			<path class="st4" d="M184.5,162.9v-7.5c1.1-0.6,2.3-0.8,3.5-0.8c1,0,1.8,0.3,2.4,0.8c0.6,0.5,0.9,1.3,0.9,2.2v5.3h-1.5v-5.4
				c0-0.5-0.1-0.9-0.4-1.1s-0.7-0.4-1.5-0.4c-0.7,0-1.3,0.1-1.9,0.3v6.6H184.5z"/>
		</g>
		<g class="st3">
			<path class="st4" d="M193.5,157c0-0.7,0.2-1.3,0.7-1.7s1.2-0.7,2.2-0.7c0.7,0,1.5,0.2,2.2,0.5v1.3c-0.7-0.3-1.4-0.5-2-0.5
				c-1.1,0-1.6,0.3-1.6,1c0,0.2,0.1,0.4,0.4,0.6c0.3,0.2,0.6,0.3,1,0.4c0.4,0.1,0.8,0.3,1.2,0.4s0.8,0.4,1,0.8
				c0.3,0.4,0.4,0.9,0.4,1.4c0,0.7-0.2,1.2-0.7,1.7c-0.5,0.5-1.3,0.7-2.3,0.7c-0.9,0-1.7-0.2-2.4-0.6v-1.4c0.7,0.4,1.5,0.6,2.3,0.6
				c0,0,0,0,0,0c0.5,0,0.9-0.1,1.2-0.3c0.3-0.2,0.4-0.4,0.4-0.7c0-0.3-0.1-0.6-0.4-0.8c-0.3-0.2-0.6-0.4-1-0.5s-0.8-0.2-1.2-0.4
				c-0.4-0.1-0.8-0.4-1-0.7C193.7,158,193.5,157.5,193.5,157z"/>
		</g>
		<path class="st7" d="M155,143.3c-0.2,0-0.5-0.1-0.6-0.2l-19.2-4.6c-0.4-0.2-0.6-0.7-0.6-1.1V105c0-0.5,0.2-0.9,0.6-1.1l19.2-4.2
			c0.4-0.2,0.9-0.2,1.3,0l19.2,4.2c0.4,0.2,0.7,0.7,0.6,1.1v32.5c0,0.5-0.2,0.9-0.6,1.1l-19.2,4.6
			C155.4,143.3,155.2,143.3,155,143.3z"/>
		<path class="st0" d="M155,144.2c-0.2,0-20.1-4.7-20.1-4.7c-0.4-0.2-0.7-0.7-0.7-1.1V104c0-0.5,0.3-0.9,0.7-1.1
			c0,0,19.9-4.3,20.1-4.3s20.1,4.3,20.1,4.3c0.4,0.2,0.7,0.7,0.7,1.1v34.4c0,0.5-0.3,0.9-0.7,1.1C175.1,139.5,155.2,144.2,155,144.2
			z M136.9,137.6l18.1,3.8l18.1-3.8v-32.9l-18.1-3.9l-18.1,3.9V137.6z"/>
		<path class="st0" d="M155,110.1c-0.2,0-0.5-0.1-0.7-0.2l-19.4-4.1c-0.6-0.4-0.8-1.2-0.5-1.8c0,0,0,0,0,0c0.4-0.6,1.2-0.8,1.8-0.5
			l18.8,3.7l18.8-3.7c0.6-0.4,1.4-0.2,1.8,0.4c0.4,0.6,0.2,1.4-0.4,1.8c0,0-0.1,0.1-0.1,0.1l-19.5,4.1
			C155.5,110,155.2,110.1,155,110.1z"/>
		<path class="st0" d="M155,143.2c-0.7,0-1.3-0.6-1.3-1.3v-32.7c-0.1-0.7,0.5-1.4,1.2-1.4c0.7-0.1,1.4,0.5,1.4,1.2
			c0,0.1,0,0.2,0,0.2v32.7C156.3,142.6,155.7,143.2,155,143.2L155,143.2z"/>
		<g class="st3">
			<path class="st4" d="M234.1,154.9c0-0.9,0.3-1.6,0.9-2.2s1.6-0.9,2.9-0.9c1,0,1.9,0.2,2.8,0.7v1.5c-0.8-0.5-1.7-0.7-2.6-0.7
				c-1.7,0-2.5,0.6-2.5,1.7c0,0.3,0.1,0.6,0.4,0.8c0.3,0.2,0.6,0.4,1.1,0.5c0.4,0.1,0.9,0.3,1.4,0.5c0.5,0.2,1,0.4,1.4,0.7
				s0.8,0.6,1.1,1c0.3,0.5,0.4,1,0.4,1.6c0,0.9-0.4,1.7-1,2.2c-0.7,0.5-1.7,0.8-2.9,0.8c-1.1,0-2.2-0.3-3.3-0.8v-1.6
				c1,0.6,2.1,0.9,3.1,0.9c1.7,0,2.6-0.5,2.6-1.6c0-0.4-0.1-0.8-0.4-1.1s-0.6-0.5-1.1-0.7l-1.4-0.5c-0.5-0.2-1-0.4-1.4-0.5
				c-0.4-0.2-0.8-0.5-1.1-0.9C234.3,155.9,234.1,155.5,234.1,154.9z"/>
		</g>
		<g class="st3">
			<path class="st4" d="M243.2,158.9c0-2.9,1.2-4.3,3.6-4.3c0,0,0,0,0,0c1.1,0,2,0.4,2.6,1.1c0.7,0.7,1,1.7,1,2.9c0,0.4,0,0.8,0,1.1
				h-5.6c0.2,1.4,0.9,2.1,2.3,2.1c1.1,0,2-0.2,2.8-0.6v1.4c-0.8,0.4-1.8,0.5-2.9,0.5c0,0,0,0,0,0c-0.5,0-0.9-0.1-1.3-0.2
				c-0.4-0.1-0.8-0.3-1.2-0.6c-0.4-0.3-0.7-0.7-0.9-1.3C243.3,160.4,243.2,159.7,243.2,158.9z M244.7,158.3h4.2
				c0-0.3-0.1-0.5-0.1-0.8c-0.1-0.2-0.2-0.5-0.3-0.8c-0.1-0.3-0.4-0.5-0.6-0.6c-0.3-0.2-0.6-0.2-1-0.2c-0.7,0-1.2,0.2-1.5,0.5
				C245,156.8,244.8,157.4,244.7,158.3z"/>
		</g>
		<g class="st3">
			<path class="st4" d="M252.4,162.9v-7.5c1.4-0.5,2.7-0.8,4-0.8v1.4c-0.8,0-1.6,0.1-2.5,0.3v6.6H252.4z"/>
		</g>
		<g class="st3">
			<path class="st4" d="M257.6,154.7h1.6l2.3,6.4l2.3-6.4h1.6l-3.1,8.2h-1.5L257.6,154.7z"/>
		</g>
		<g class="st3">
			<path class="st4" d="M267.3,153.4v-1.6h1.6v1.6H267.3z M267.3,162.9v-8.2h1.5v8.2H267.3z"/>
		</g>
		<g class="st3">
			<path class="st4" d="M271.9,161.9c-0.6-0.7-1-1.8-1-3.1c0-1.4,0.3-2.4,1-3.1c0.6-0.7,1.6-1.1,2.8-1.1c0.8,0,1.6,0.2,2.4,0.5v1.4
				c-0.7-0.4-1.5-0.5-2.2-0.5c0,0,0,0,0,0c-0.8,0-1.3,0.2-1.8,0.6s-0.6,1.2-0.6,2.3c0,0.6,0.1,1.1,0.2,1.5s0.3,0.7,0.6,0.9
				c0.2,0.2,0.5,0.3,0.8,0.4s0.6,0.1,0.9,0.1c0.8,0,1.5-0.2,2.3-0.5v1.4c-0.8,0.3-1.6,0.5-2.4,0.5
				C273.5,163,272.6,162.6,271.9,161.9z"/>
		</g>
		<g class="st3">
			<path class="st4" d="M278.7,158.9c0-2.9,1.2-4.3,3.6-4.3c0,0,0,0,0,0c1.1,0,2,0.4,2.6,1.1c0.7,0.7,1,1.7,1,2.9c0,0.4,0,0.8,0,1.1
				h-5.6c0.2,1.4,0.9,2.1,2.3,2.1c1.1,0,2-0.2,2.8-0.6v1.4c-0.8,0.4-1.8,0.5-2.9,0.5c0,0,0,0,0,0c-0.5,0-0.9-0.1-1.3-0.2
				c-0.4-0.1-0.8-0.3-1.2-0.6c-0.4-0.3-0.7-0.7-0.9-1.3C278.8,160.4,278.7,159.7,278.7,158.9z M280.2,158.3h4.2
				c0-0.3-0.1-0.5-0.1-0.8c-0.1-0.2-0.2-0.5-0.3-0.8c-0.1-0.3-0.4-0.5-0.6-0.6c-0.3-0.2-0.6-0.2-1-0.2c-0.7,0-1.2,0.2-1.5,0.5
				C280.4,156.8,280.2,157.4,280.2,158.3z"/>
		</g>
		<g class="st3">
			<path class="st4" d="M287.4,157c0-0.7,0.2-1.3,0.7-1.7s1.2-0.7,2.2-0.7c0.7,0,1.5,0.2,2.2,0.5v1.3c-0.7-0.3-1.4-0.5-2-0.5
				c-1.1,0-1.6,0.3-1.6,1c0,0.2,0.1,0.4,0.4,0.6c0.3,0.2,0.6,0.3,1,0.4c0.4,0.1,0.8,0.3,1.2,0.4s0.8,0.4,1,0.8
				c0.3,0.4,0.4,0.9,0.4,1.4c0,0.7-0.2,1.2-0.7,1.7c-0.5,0.5-1.3,0.7-2.3,0.7c-0.9,0-1.7-0.2-2.4-0.6v-1.4c0.7,0.4,1.5,0.6,2.3,0.6
				c0,0,0,0,0,0c0.5,0,0.9-0.1,1.2-0.3c0.3-0.2,0.4-0.4,0.4-0.7c0-0.3-0.1-0.6-0.4-0.8c-0.3-0.2-0.6-0.4-1-0.5s-0.8-0.2-1.2-0.4
				c-0.4-0.1-0.8-0.4-1-0.7C287.6,158,287.4,157.5,287.4,157z"/>
		</g>
		<path class="st7" d="M263.5,143c-0.2,0-0.5-0.1-0.6-0.2l-19.2-4.6c-0.4-0.2-0.6-0.7-0.6-1.1v-32.5c0-0.5,0.2-0.9,0.6-1.1l19.2-4.2
			c0.4-0.2,0.9-0.2,1.3,0l19.2,4.2c0.4,0.2,0.6,0.7,0.6,1.1v32.5c0,0.5-0.2,0.9-0.6,1.1l-19.2,4.6C263.9,143,263.7,143,263.5,143z"
			/>
		<path class="st0" d="M263.5,143.9c-0.2,0-20.1-4.7-20.1-4.7c-0.4-0.2-0.7-0.7-0.7-1.1v-34.4c0-0.5,0.3-0.9,0.7-1.1
			c0,0,19.9-4.3,20.1-4.3s20.1,4.3,20.1,4.3c0.4,0.2,0.7,0.7,0.7,1.1V138c0,0.5-0.3,0.9-0.7,1.1
			C283.6,139.1,263.7,143.9,263.5,143.9z M245.3,137.3l18.1,3.8l18.1-3.8v-32.8l-18.1-3.9l-18.1,3.9V137.3z"/>
		<path class="st0" d="M263.5,109.8c-0.2,0-0.5-0.1-0.7-0.2l-19.5-4.1c-0.6-0.4-0.8-1.2-0.5-1.8c0.4-0.6,1.2-0.8,1.8-0.5l18.8,3.7
			l18.8-3.7c0.6-0.4,1.4-0.1,1.8,0.5c0.4,0.6,0.1,1.4-0.5,1.8l0,0l-19.5,4.1C263.9,109.7,263.7,109.8,263.5,109.8z"/>
		<path class="st0" d="M263.5,142.9c-0.7,0-1.3-0.6-1.3-1.3v0v-32.7c-0.1-0.7,0.5-1.4,1.2-1.4s1.4,0.5,1.4,1.2c0,0.1,0,0.2,0,0.2
			v32.7C264.8,142.3,264.2,142.9,263.5,142.9z"/>
		<g class="st3">
			<path class="st4" d="M332.1,162.9l4.4-10.9h1.5l4.3,10.9h-1.6l-1.2-3.1h-4.6l-1.2,3.1H332.1z M335.4,158.4h3.5l-1.7-4.5
				L335.4,158.4z"/>
		</g>
		<g class="st3">
			<path class="st4" d="M344.1,162.9v-10.9h3.9c1.2,0,2.2,0.3,2.8,0.9c0.7,0.6,1,1.4,1,2.5c0,1.1-0.3,1.9-1,2.5
				c-0.7,0.6-1.6,0.9-2.8,0.9h-2.4v4H344.1z M345.7,157.5h2.3c1,0,1.6-0.2,1.9-0.6s0.5-0.9,0.5-1.5s-0.2-1.1-0.5-1.5
				c-0.3-0.4-1-0.6-2-0.6h-2.3V157.5z"/>
		</g>
		<g class="st3">
			<path class="st4" d="M353.9,162.9v-10.9h1.5v10.9H353.9z"/>
			<path class="st4" d="M357.7,157c0-0.7,0.2-1.3,0.7-1.7c0.5-0.5,1.2-0.7,2.2-0.7c0.7,0,1.5,0.2,2.2,0.5v1.3
				c-0.7-0.3-1.4-0.5-2-0.5c-1.1,0-1.6,0.3-1.6,1c0,0.2,0.1,0.4,0.4,0.6c0.3,0.2,0.6,0.3,1,0.4s0.8,0.3,1.2,0.4
				c0.4,0.2,0.8,0.4,1,0.8c0.3,0.4,0.4,0.9,0.4,1.4c0,0.7-0.2,1.2-0.7,1.7c-0.5,0.5-1.3,0.7-2.3,0.7c-0.9,0-1.7-0.2-2.4-0.6v-1.4
				c0.7,0.4,1.5,0.6,2.3,0.6c0,0,0,0,0,0c0.5,0,0.9-0.1,1.2-0.3c0.3-0.2,0.4-0.4,0.4-0.7c0-0.3-0.1-0.6-0.4-0.8
				c-0.3-0.2-0.6-0.4-1-0.5c-0.4-0.1-0.8-0.2-1.2-0.4c-0.4-0.1-0.8-0.4-1-0.7S357.7,157.5,357.7,157z"/>
		</g>
		<path class="st7" d="M347.9,142.7c-0.2,0-0.5-0.1-0.6-0.2l-19.2-4.6c-0.4-0.2-0.6-0.7-0.6-1.1v-32.5c0-0.5,0.2-0.9,0.6-1.1
			l19.2-4.2c0.4-0.2,0.9-0.2,1.3,0l19.2,4.2c0.4,0.2,0.6,0.7,0.6,1.1v32.5c0,0.5-0.2,0.9-0.6,1.1l-19.2,4.6
			C348.3,142.6,348.1,142.7,347.9,142.7z"/>
		<path class="st0" d="M347.9,143.6c-0.2,0-20.1-4.7-20.1-4.7c-0.4-0.2-0.7-0.7-0.7-1.1v-34.4c0-0.5,0.3-0.9,0.7-1.1
			c0,0,19.9-4.2,20.1-4.2s20.1,4.2,20.1,4.2c0.4,0.2,0.7,0.7,0.7,1.1v34.4c0,0.5-0.3,0.9-0.7,1.1C368,138.9,348.1,143.6,347.9,143.6
			z M329.7,137l18.1,3.8L366,137v-32.9l-18.1-3.9l-18.1,3.9L329.7,137z"/>
		<path class="st0" d="M347.9,109.5c-0.2,0-0.5-0.1-0.7-0.2l-19.5-4.1c-0.7-0.3-0.9-1.1-0.6-1.8c0.3-0.7,1.1-0.9,1.8-0.6
			c0.1,0,0.1,0.1,0.1,0.1l18.8,3.7l18.8-3.7c0.7-0.3,1.4-0.1,1.8,0.6c0.3,0.6,0.1,1.3-0.4,1.7l-19.5,4.1
			C348.3,109.4,348.1,109.5,347.9,109.5z"/>
		<path class="st0" d="M347.9,142.6c-0.7,0-1.3-0.6-1.3-1.3v0v-32.7c0.1-0.7,0.7-1.3,1.4-1.2c0.6,0.1,1.1,0.6,1.2,1.2v32.7
			C349.2,142,348.6,142.6,347.9,142.6z"/>
		<g class="st3">
			<path class="st4" d="M403.3,162.9V152h3.5c1.7,0,3,0.5,3.8,1.4c0.9,0.9,1.3,2.3,1.3,4.1s-0.4,3.2-1.3,4.1
				c-0.9,0.9-2.1,1.4-3.8,1.4H403.3z M404.9,161.5h1.7c1.3,0,2.3-0.3,2.9-1c0.6-0.7,0.9-1.7,0.9-3.1c0-1.4-0.3-2.5-0.9-3.1
				c-0.6-0.7-1.6-1-2.9-1h-1.7V161.5z"/>
		</g>
		<g class="st3">
			<path class="st4" d="M413.6,160.3c0-0.8,0.3-1.4,1-1.9c0.7-0.5,1.6-0.7,2.8-0.7c0.5,0,1,0,1.5,0.1c0-0.7-0.2-1.2-0.6-1.5
				c-0.3-0.3-0.9-0.4-1.7-0.4c-0.7,0-1.5,0.1-2.3,0.4V155c0.8-0.3,1.6-0.4,2.5-0.4c1.1,0,2,0.3,2.6,0.9c0.6,0.6,0.9,1.4,0.9,2.5v2.4
				c0,0.2,0,0.4-0.1,0.5c0,0.2-0.1,0.4-0.2,0.7c-0.1,0.3-0.3,0.5-0.5,0.7c-0.2,0.2-0.6,0.4-1,0.5c-0.4,0.1-1,0.2-1.6,0.2
				c-0.6,0-1.1-0.1-1.6-0.2c-0.5-0.2-0.8-0.3-1-0.5s-0.4-0.4-0.5-0.7c-0.1-0.3-0.2-0.5-0.3-0.7C413.6,160.7,413.6,160.5,413.6,160.3
				z M415.1,160.3c0,0.9,0.7,1.4,2,1.4c0,0,0,0,0,0c1.2,0,1.9-0.4,1.9-1.3V159c-0.4-0.1-0.9-0.1-1.4-0.1c-0.2,0-0.4,0-0.7,0.1
				c-0.2,0-0.5,0.1-0.8,0.2c-0.3,0.1-0.5,0.2-0.7,0.4C415.2,159.8,415.1,160,415.1,160.3z"/>
		</g>
		<g class="st3">
			<path class="st4" d="M421.6,156v-1.3h1.4v-2.4h1.5v2.4h2.2v1.3h-2.2v4.7c0,0.6,0.4,1,1.2,1c0,0,0,0,0,0c0.4,0,0.7-0.1,1-0.2v1.4
				c-0.4,0.2-0.7,0.2-1.1,0.2c0,0,0,0,0,0c-0.2,0-0.4,0-0.6-0.1c-0.2,0-0.5-0.1-0.8-0.3c-0.3-0.1-0.6-0.4-0.8-0.7
				c-0.2-0.3-0.3-0.8-0.3-1.3V156H421.6z"/>
		</g>
		<g class="st3">
			<path class="st4" d="M428.2,160.3c0-0.8,0.3-1.4,1-1.9c0.7-0.5,1.6-0.7,2.8-0.7c0.5,0,1,0,1.5,0.1c0-0.7-0.2-1.2-0.6-1.5
				c-0.3-0.3-0.9-0.4-1.7-0.4c-0.7,0-1.5,0.1-2.3,0.4V155c0.8-0.3,1.6-0.4,2.5-0.4c1.1,0,2,0.3,2.6,0.9c0.6,0.6,0.9,1.4,0.9,2.5v2.4
				c0,0.2,0,0.4-0.1,0.5c0,0.2-0.1,0.4-0.2,0.7c-0.1,0.3-0.3,0.5-0.5,0.7s-0.6,0.4-1,0.5c-0.5,0.1-1,0.2-1.6,0.2
				c-0.6,0-1.1-0.1-1.6-0.2s-0.8-0.3-1-0.5s-0.4-0.4-0.5-0.7c-0.1-0.3-0.2-0.5-0.3-0.7C428.3,160.7,428.2,160.5,428.2,160.3z
				 M429.7,160.3c0,0.9,0.7,1.4,2,1.4c0,0,0,0,0,0c1.2,0,1.9-0.4,1.9-1.3V159c-0.4-0.1-0.9-0.1-1.4-0.1c-0.2,0-0.4,0-0.7,0.1
				c-0.2,0-0.5,0.1-0.8,0.2c-0.3,0.1-0.5,0.2-0.7,0.4C429.8,159.8,429.7,160,429.7,160.3z"/>
		</g>
		<g class="st3">
			<path class="st4" d="M442.6,154.9c0-0.9,0.3-1.6,0.9-2.2s1.6-0.9,2.9-0.9c1,0,1.9,0.2,2.8,0.7v1.5c-0.8-0.5-1.7-0.7-2.6-0.7
				c-1.7,0-2.5,0.6-2.5,1.7c0,0.3,0.1,0.6,0.4,0.8c0.3,0.2,0.6,0.4,1.1,0.5s0.9,0.3,1.4,0.5c0.5,0.2,1,0.4,1.4,0.7
				c0.4,0.2,0.8,0.6,1.1,1c0.3,0.5,0.4,1,0.4,1.6c0,0.9-0.4,1.7-1,2.2c-0.7,0.5-1.7,0.8-2.9,0.8c-1.1,0-2.2-0.3-3.3-0.8v-1.6
				c1,0.6,2.1,0.9,3.1,0.9c1.7,0,2.6-0.5,2.6-1.6c0-0.4-0.1-0.8-0.4-1.1c-0.3-0.3-0.6-0.5-1.1-0.7l-1.4-0.5c-0.5-0.2-1-0.4-1.4-0.5
				c-0.4-0.2-0.8-0.5-1.1-0.9C442.7,155.9,442.6,155.5,442.6,154.9z"/>
		</g>
		<g class="st3">
			<path class="st4" d="M450.8,156v-1.3h1.4v-2.4h1.5v2.4h2.2v1.3h-2.2v4.7c0,0.6,0.4,1,1.2,1c0,0,0,0,0,0c0.4,0,0.7-0.1,1-0.2v1.4
				c-0.4,0.2-0.7,0.2-1.1,0.2c0,0,0,0,0,0c-0.2,0-0.4,0-0.6-0.1c-0.2,0-0.5-0.1-0.8-0.3c-0.3-0.1-0.6-0.4-0.8-0.7
				c-0.2-0.3-0.3-0.8-0.3-1.3V156H450.8z"/>
		</g>
		<g class="st3">
			<path class="st4" d="M457.7,162.9v-7.5c1.4-0.5,2.7-0.8,4-0.8v1.4c-0.8,0-1.6,0.1-2.5,0.3v6.6H457.7z"/>
		</g>
		<g class="st3">
			<path class="st4" d="M462.8,158.9c0-2.9,1.2-4.3,3.6-4.3c0,0,0,0,0,0c1.1,0,2,0.4,2.6,1.1c0.7,0.7,1,1.7,1,2.9c0,0.4,0,0.8,0,1.1
				h-5.6c0.2,1.4,0.9,2.1,2.3,2.1c1.1,0,2-0.2,2.8-0.6v1.4c-0.8,0.4-1.8,0.5-2.9,0.5c0,0,0,0,0,0c-0.5,0-0.9-0.1-1.3-0.2
				c-0.4-0.1-0.8-0.3-1.2-0.6c-0.4-0.3-0.7-0.7-0.9-1.3S462.8,159.7,462.8,158.9z M464.3,158.3h4.2c0-0.3-0.1-0.5-0.1-0.8
				s-0.2-0.5-0.3-0.8s-0.4-0.5-0.6-0.6c-0.3-0.2-0.6-0.2-1-0.2c-0.7,0-1.2,0.2-1.5,0.5C464.6,156.8,464.4,157.4,464.3,158.3z"/>
		</g>
		<g class="st3">
			<path class="st4" d="M471.6,160.3c0-0.8,0.3-1.4,1-1.9c0.7-0.5,1.6-0.7,2.8-0.7c0.5,0,1,0,1.5,0.1c0-0.7-0.2-1.2-0.6-1.5
				c-0.3-0.3-0.9-0.4-1.7-0.4c-0.7,0-1.5,0.1-2.3,0.4V155c0.8-0.3,1.6-0.4,2.5-0.4c1.1,0,2,0.3,2.6,0.9c0.6,0.6,0.9,1.4,0.9,2.5v2.4
				c0,0.2,0,0.4-0.1,0.5c0,0.2-0.1,0.4-0.2,0.7c-0.1,0.3-0.3,0.5-0.5,0.7s-0.6,0.4-1,0.5c-0.5,0.1-1,0.2-1.6,0.2
				c-0.6,0-1.1-0.1-1.6-0.2s-0.8-0.3-1-0.5s-0.4-0.4-0.5-0.7c-0.1-0.3-0.2-0.5-0.3-0.7C471.6,160.7,471.6,160.5,471.6,160.3z
				 M473.1,160.3c0,0.9,0.7,1.4,2,1.4c0,0,0,0,0,0c1.2,0,1.9-0.4,1.9-1.3V159c-0.4-0.1-0.9-0.1-1.4-0.1c-0.2,0-0.4,0-0.7,0.1
				c-0.2,0-0.5,0.1-0.8,0.2c-0.3,0.1-0.5,0.2-0.7,0.4C473.2,159.8,473.1,160,473.1,160.3z"/>
		</g>
		<g class="st3">
			<path class="st4" d="M480.6,162.9v-7.5c1.1-0.5,2.2-0.8,3.4-0.8c0.9,0,1.6,0.2,2.2,0.6c1-0.4,2-0.6,3-0.6c1,0,1.8,0.3,2.4,0.8
				s0.9,1.3,0.9,2.3v5.3h-1.5v-5.4c0-0.5-0.1-0.8-0.3-1.1c-0.2-0.3-0.7-0.4-1.3-0.4c-0.7,0-1.5,0.2-2.2,0.5c0.1,0.3,0.2,0.7,0.2,1.2
				c0,0,0,0,0,0v5.3h-1.5v-5.3c0-0.5-0.1-0.9-0.4-1.1s-0.8-0.4-1.5-0.4c-0.6,0-1.2,0.1-1.8,0.2v6.7H480.6z"/>
		</g>
		<g class="st3">
			<path class="st4" d="M494.5,157c0-0.7,0.2-1.3,0.7-1.7c0.5-0.5,1.2-0.7,2.2-0.7c0.7,0,1.5,0.2,2.2,0.5v1.3
				c-0.7-0.3-1.4-0.5-2-0.5c-1.1,0-1.6,0.3-1.6,1c0,0.2,0.1,0.4,0.4,0.6c0.3,0.2,0.6,0.3,1,0.4c0.4,0.1,0.8,0.3,1.2,0.4
				c0.4,0.2,0.8,0.4,1,0.8c0.3,0.4,0.4,0.9,0.4,1.4c0,0.7-0.2,1.2-0.7,1.7s-1.3,0.7-2.3,0.7c-0.9,0-1.7-0.2-2.4-0.6v-1.4
				c0.7,0.4,1.5,0.6,2.3,0.6c0,0,0,0,0,0c0.5,0,0.9-0.1,1.2-0.3c0.3-0.2,0.4-0.4,0.4-0.7c0-0.3-0.1-0.6-0.4-0.8
				c-0.3-0.2-0.6-0.4-1-0.5c-0.4-0.1-0.8-0.2-1.2-0.4c-0.4-0.1-0.8-0.4-1-0.7C494.7,158,494.5,157.5,494.5,157z"/>
		</g>
		<path class="st7" d="M451.4,142.4c-0.2,0-0.5-0.1-0.6-0.2l-19.2-4.6c-0.4-0.2-0.6-0.7-0.6-1.1V104c0-0.5,0.2-0.9,0.6-1.1l19.2-4.2
			c0.4-0.2,0.9-0.2,1.3,0l19.2,4.2c0.4,0.2,0.7,0.7,0.6,1.1v32.5c0,0.5-0.2,0.9-0.6,1.1l-19.2,4.6
			C451.8,142.3,451.6,142.4,451.4,142.4z"/>
		<path class="st0" d="M451.4,143.3c-0.2,0-20.1-4.7-20.1-4.7c-0.4-0.2-0.7-0.7-0.7-1.1v-34.4c0-0.5,0.3-0.9,0.7-1.1
			c0,0,19.9-4.3,20.1-4.3s20.1,4.3,20.1,4.3c0.4,0.2,0.7,0.7,0.7,1.1v34.4c0,0.5-0.2,0.9-0.7,1.1
			C471.5,138.6,451.6,143.3,451.4,143.3z M433.2,136.7l18.1,3.8l18.1-3.8v-32.8l-18.1-3.9l-18.1,3.9V136.7z"/>
		<path class="st0" d="M451.4,109.2c-0.2,0-0.5-0.1-0.7-0.2l-19.5-4.1c-0.6-0.4-0.8-1.2-0.5-1.8c0.4-0.6,1.2-0.8,1.8-0.5l18.8,3.7
			l18.8-3.7c0.6-0.4,1.4-0.1,1.8,0.5c0.4,0.6,0.1,1.4-0.5,1.8l0,0L452,109C451.8,109.1,451.6,109.2,451.4,109.2z"/>
		<path class="st0" d="M451.4,142.3c-0.7,0-1.3-0.6-1.3-1.3v-32.7c0-0.7,0.6-1.3,1.3-1.3s1.3,0.6,1.3,1.3V141
			C452.7,141.7,452.1,142.3,451.4,142.3z"/>
		<path class="st8" d="M428.5,313.7c-21.1,0-43,4.8-43,12.8v27.2c0,1,0.3,2,0.9,2.8c0.3,0.4,0.6,0.9,1,1.2c5.5,5.3,22,8.8,41,8.8
			s35.6-3.5,41-8.8c0.4-0.4,0.7-0.8,1.1-1.2c0.6-0.8,0.9-1.8,0.9-2.8v-27.2C471.5,318.5,449.6,313.7,428.5,313.7z"/>
		<path class="st9" d="M428.5,367.6c-19.4,0-36.1-3.6-41.7-9c-0.4-0.4-0.8-0.8-1.1-1.2c-0.6-0.8-0.9-1.8-0.9-2.8V327
			c-0.1-0.5,0.3-0.9,0.8-1c0.5-0.1,0.9,0.3,1,0.8c0,0.1,0,0.1,0,0.2c0,0.6,0.2,1.3,0.6,1.8c3.6,5.4,21.4,9.5,41.3,9.5
			s37.7-4.1,41.3-9.5c0.4-0.5,0.6-1.2,0.6-1.8c-0.1-0.5,0.3-0.9,0.8-1c0.5-0.1,0.9,0.3,1,0.8c0,0.1,0,0.1,0,0.2v27.6
			c0,1-0.3,2-0.9,2.8c-0.3,0.5-0.7,0.9-1.1,1.2C464.6,364,447.9,367.6,428.5,367.6z M386.5,330.8v23.8c0,0.7,0.2,1.3,0.6,1.8
			c0.2,0.4,0.5,0.7,0.8,1c5.2,5,21.8,8.5,40.5,8.5s35.3-3.5,40.5-8.5c0.3-0.3,0.6-0.6,0.9-1c0.4-0.5,0.6-1.2,0.6-1.8v-23.8
			c-5.3,5.5-22,9.2-41.9,9.2S391.8,336.3,386.5,330.8z"/>
		<path class="st9" d="M428.5,340.1c-19.4,0-36.2-3.6-41.7-9c-0.4-0.4-0.7-0.8-1-1.3c-0.6-0.8-0.9-1.8-0.9-2.8
			c0-8.1,22.2-13,43.6-13s43.7,4.9,43.7,13c0,1-0.3,1.9-0.9,2.8c-0.3,0.4-0.7,0.9-1,1.2C464.7,336.5,447.9,340.1,428.5,340.1z
			 M428.5,315.8c-25.1,0-41.9,5.8-41.9,11.3c0,0.6,0.2,1.3,0.6,1.8c0.2,0.4,0.5,0.7,0.8,1c5.1,5,21.8,8.5,40.5,8.5
			s35.4-3.5,40.5-8.5c0.3-0.3,0.6-0.6,0.8-1c0.4-0.5,0.6-1.2,0.6-1.8C470.4,321.6,453.6,315.8,428.5,315.8z"/>
		<g class="st3">
			<path class="st0" d="M413.8,356.4v-9.3h3.7c1.1,0,2,0.3,2.7,0.8c0.7,0.5,1,1.3,1,2.2c0,0.7-0.2,1.4-0.5,1.8
				c-0.3,0.5-0.8,0.8-1.4,1l2.3,3.5H419l-1.7-3.1h-1v3.1H413.8z M416.2,351.5h1.4c0.3,0,0.6-0.1,0.8-0.3c0.2-0.2,0.4-0.5,0.4-0.9
				c0-0.4-0.1-0.7-0.4-0.9c-0.2-0.2-0.5-0.3-0.8-0.3h-1.4V351.5z"/>
		</g>
		<g class="st3">
			<path class="st0" d="M422.9,356.4l3.7-9.3h2.3l3.7,9.3h-2.6l-0.7-2.2h-3.1l-0.7,2.2H422.9z M426.7,352.4h1.9l-0.9-2.9
				L426.7,352.4z"/>
		</g>
		<g class="st3">
			<path class="st0" d="M434,356.4v-9.3h2.4l2.2,3.2l2.2-3.2h2.4v9.3h-2.4v-5.8l-2.2,3.1l-2.2-3.1v5.8H434z"/>
		</g>
		<path class="st8" d="M332.3,313.7c-21.1,0-43,4.8-43,12.8v27.2c0,1,0.3,2,0.9,2.8c0.3,0.4,0.6,0.9,1,1.2c5.5,5.3,22,8.8,41,8.8
			s35.6-3.5,41-8.8c0.4-0.4,0.7-0.8,1.1-1.2c0.6-0.8,0.9-1.8,0.9-2.8v-27.2C375.3,318.5,353.4,313.7,332.3,313.7z"/>
		<path class="st9" d="M332.3,367.6c-19.4,0-36.1-3.6-41.7-9c-0.4-0.4-0.8-0.8-1.1-1.2c-0.6-0.8-0.9-1.8-0.9-2.8V327
			c-0.1-0.5,0.3-0.9,0.8-1c0.5-0.1,0.9,0.3,1,0.8c0,0.1,0,0.1,0,0.2c0,0.6,0.2,1.3,0.6,1.8c3.6,5.4,21.4,9.5,41.3,9.5
			s37.7-4.1,41.3-9.5c0.4-0.5,0.6-1.2,0.6-1.8c-0.1-0.5,0.3-0.9,0.8-1c0.5-0.1,0.9,0.3,1,0.8c0,0.1,0,0.1,0,0.2v27.6
			c0,1-0.3,2-0.9,2.8c-0.3,0.5-0.7,0.9-1.1,1.2C368.4,364,351.6,367.6,332.3,367.6z M290.3,330.8v23.8c0,0.7,0.2,1.3,0.6,1.8
			c0.2,0.4,0.5,0.7,0.8,1c5.2,5,21.8,8.5,40.5,8.5s35.3-3.5,40.5-8.5c0.3-0.3,0.6-0.6,0.9-1c0.4-0.5,0.6-1.2,0.6-1.8v-23.8
			c-5.3,5.5-22,9.2-41.9,9.2S295.6,336.3,290.3,330.8L290.3,330.8z"/>
		<path class="st9" d="M332.3,340.1c-19.4,0-36.2-3.6-41.7-9c-0.4-0.4-0.7-0.8-1-1.3c-0.6-0.8-0.9-1.8-0.9-2.8
			c0-8.1,22.2-13,43.6-13s43.7,4.9,43.7,13c0,1-0.3,1.9-0.9,2.8c-0.3,0.4-0.7,0.9-1,1.2C368.5,336.5,351.7,340.1,332.3,340.1z
			 M332.3,315.8c-25.1,0-41.9,5.8-41.9,11.3c0,0.6,0.2,1.3,0.6,1.8c0.2,0.4,0.5,0.7,0.8,1c5.1,5,21.8,8.5,40.5,8.5
			s35.4-3.5,40.5-8.5c0.3-0.3,0.6-0.6,0.8-1c0.4-0.5,0.6-1.2,0.6-1.8C374.2,321.6,357.4,315.8,332.3,315.8z"/>
		<g class="st3">
			<path class="st0" d="M317.6,356.4v-9.3h3.7c1.1,0,2,0.3,2.7,0.8c0.7,0.5,1,1.3,1,2.2c0,0.7-0.2,1.4-0.5,1.8
				c-0.3,0.5-0.8,0.8-1.4,1l2.3,3.5h-2.7l-1.7-3.1h-1v3.1H317.6z M320,351.5h1.4c0.3,0,0.6-0.1,0.8-0.3c0.2-0.2,0.4-0.5,0.4-0.9
				c0-0.4-0.1-0.7-0.4-0.9c-0.2-0.2-0.5-0.3-0.8-0.3H320V351.5z"/>
		</g>
		<g class="st3">
			<path class="st0" d="M326.6,356.4l3.7-9.3h2.3l3.7,9.3h-2.6l-0.7-2.2H330l-0.7,2.2H326.6z M330.5,352.4h1.9l-0.9-2.9L330.5,352.4
				z"/>
		</g>
		<g class="st3">
			<path class="st0" d="M337.8,356.4v-9.3h2.4l2.2,3.2l2.2-3.2h2.4v9.3h-2.4v-5.8l-2.2,3.1l-2.2-3.1v5.8H337.8z"/>
		</g>
		<path class="st8" d="M236.1,313.7c-21.1,0-43,4.8-43,12.8v27.2c0,1,0.3,2,0.9,2.8c0.3,0.4,0.6,0.8,1,1.2c5.5,5.3,22,8.8,41,8.8
			s35.6-3.5,41-8.8c0.4-0.4,0.7-0.8,1-1.2c0.6-0.8,0.9-1.8,0.9-2.8v-27.2C279.1,318.5,257.2,313.7,236.1,313.7z"/>
		<path class="st9" d="M236.1,367.6c-19.4,0-36.1-3.6-41.7-9c-0.4-0.4-0.8-0.8-1.1-1.2c-0.6-0.8-0.9-1.8-0.9-2.8V327
			c0-0.5,0.4-0.9,0.9-0.9c0.5,0,0.9,0.4,0.9,0.9c0,0.6,0.2,1.3,0.6,1.8c3.6,5.4,21.4,9.5,41.3,9.5s37.7-4.1,41.3-9.5
			c0.4-0.5,0.6-1.2,0.6-1.8c-0.1-0.5,0.3-0.9,0.8-1c0.5-0.1,0.9,0.3,1,0.8c0,0.1,0,0.1,0,0.2v27.6c0,1-0.3,2-0.9,2.8
			c-0.3,0.5-0.7,0.9-1.1,1.2C272.2,364,255.4,367.6,236.1,367.6z M194.1,330.8v23.8c0,0.7,0.2,1.3,0.6,1.8c0.2,0.4,0.5,0.7,0.8,1
			c5.2,5,21.8,8.5,40.5,8.5s35.3-3.5,40.5-8.5c0.3-0.3,0.6-0.6,0.9-1c0.4-0.5,0.6-1.2,0.6-1.8v-23.8c-5.3,5.5-22,9.2-41.9,9.2
			S199.4,336.3,194.1,330.8z"/>
		<path class="st9" d="M236.1,340.1c-19.4,0-36.2-3.6-41.7-9c-0.4-0.4-0.7-0.8-1.1-1.3c-0.6-0.8-0.9-1.8-0.9-2.8
			c0-8.1,22.2-13,43.7-13s43.7,4.9,43.7,13c0,1-0.3,2-0.9,2.8c-0.3,0.4-0.6,0.9-1,1.2C272.3,336.5,255.5,340.1,236.1,340.1z
			 M236.1,315.8c-25.1,0-41.9,5.8-41.9,11.3c0,0.6,0.2,1.3,0.6,1.8c0.2,0.4,0.5,0.7,0.8,1c5.1,5,21.8,8.5,40.5,8.5
			s35.4-3.5,40.5-8.5c0.3-0.3,0.6-0.6,0.8-1c0.4-0.5,0.6-1.2,0.6-1.8C278,321.6,261.1,315.8,236.1,315.8z"/>
		<g class="st3">
			<path class="st0" d="M221.4,356.4v-9.3h3.7c1.1,0,2,0.3,2.7,0.8c0.7,0.5,1,1.3,1,2.2c0,0.7-0.2,1.4-0.5,1.8
				c-0.3,0.5-0.8,0.8-1.4,1l2.3,3.5h-2.7l-1.7-3.1h-1v3.1H221.4z M223.8,351.5h1.4c0.3,0,0.6-0.1,0.8-0.3s0.4-0.5,0.4-0.9
				c0-0.4-0.1-0.7-0.4-0.9s-0.5-0.3-0.8-0.3h-1.4V351.5z"/>
		</g>
		<g class="st3">
			<path class="st0" d="M230.4,356.4l3.7-9.3h2.3l3.7,9.3h-2.6l-0.7-2.2h-3.1l-0.7,2.2H230.4z M234.3,352.4h1.9l-0.9-2.9
				L234.3,352.4z"/>
		</g>
		<g class="st3">
			<path class="st0" d="M241.6,356.4v-9.3h2.4l2.2,3.2l2.2-3.2h2.4v9.3h-2.4v-5.8l-2.2,3.1l-2.2-3.1v5.8H241.6z"/>
		</g>
		<path class="st6" d="M141.6,350.2c0,0-8.5,12.9,8.2,15.5c1.6,0.2,13.7,1.5,16.9,5.4c0,0-0.3-6.8-10.1-10.9
			S142.7,355.2,141.6,350.2z"/>
		<path class="st6" d="M149.9,322.5c0,0-23.8,14.5-1.4,28.9c4.3,2.8,19.9,10.6,19.5,17.8c0,0,9.5-14-4.4-22.8
			C149.4,337.4,145.8,327.7,149.9,322.5z"/>
		<path class="st6" d="M174.4,336.7c-10.2-10.7-13-17.3-8.7-25.8c0,0-30.4,11.7-0.4,32.5c10.8,7.4,9,15,9,15.3
			C176,356.9,184.6,347.4,174.4,336.7z"/>
	</g>
</g>
</svg>
