<svg id="Capa_1" data-name="Capa 1" xmlns="http://www.w3.org/2000/svg" viewBox="0 0 324.21 341.58"><defs><style>.cls-1{fill:#f8f7f7;}.cls-2{fill:#e52529;}.cls-3{fill:#777;}.cls-4{fill:#e5282a;}.cls-5{fill:#efeeed;}.cls-6{fill:#fff;}</style></defs><title>Diagrams-Webiste</title><rect class="cls-1" x="8.9" y="10.08" width="102.67" height="321.42" rx="4.77"/><circle class="cls-1" cx="268.49" cy="190.84" r="46.82"/><path class="cls-2" d="M236.17,182.69s-15.68,23.76,15.14,28.6c3,.38,25.34,2.7,31.11,10,0,0-.53-12.62-18.67-20.06S238.19,192,236.17,182.69Z"/><path class="cls-2" d="M251.44,131.54s-43.87,26.75-2.53,53.36c8,5.15,36.81,19.6,36,32.86,0,0,17.47-25.91-8.06-42.14C250.56,158.92,244,141.15,251.44,131.54Z"/><path class="cls-2" d="M296.76,157.71c-18.79-19.7-24-31.87-16-47.63,0,0-56.15,21.6-.72,59.92,19.85,13.73,16.53,27.73,16.54,28.24C299.74,195,315.55,177.41,296.76,157.71Z"/><path class="cls-3" d="M126.19,40.27a2.15,2.15,0,0,0-1.39.51l-9.19,7.85a2.17,2.17,0,0,0,0,3.26l9.19,7.85a2.14,2.14,0,0,0,2.78-3.26l-7.28-6.22L127.58,44a2.14,2.14,0,0,0-1.39-3.76Z"/><path class="cls-3" d="M191.12,48.07H118a2.14,2.14,0,1,0,0,4.28h73.11a2.14,2.14,0,1,0,0-4.28Z"/><path class="cls-3" d="M211.45,73.54,189.63,51.72a2.14,2.14,0,1,1,3-3l21.82,21.83a2.14,2.14,0,0,1-3,3Z"/><path class="cls-3" d="M202.68,75.17a2.13,2.13,0,0,0,1.35.62l12.05.95a2.15,2.15,0,0,0,2.3-2.3l-.95-12a2.14,2.14,0,1,0-4.27.33l.75,9.55-9.55-.75a2.14,2.14,0,0,0-1.68,3.65Z"/><circle class="cls-4" cx="153.71" cy="50.26" r="5.81"/><path class="cls-5" d="M153.71,46.44a3.82,3.82,0,1,1-3.81,3.82,3.83,3.83,0,0,1,3.81-3.82m0-4a7.82,7.82,0,1,0,7.82,7.82,7.82,7.82,0,0,0-7.82-7.82Z"/><path class="cls-3" d="M126.19,295a2.15,2.15,0,0,1-1.39-.51l-9.19-7.85a2.17,2.17,0,0,1,0-3.26l9.19-7.85a2.14,2.14,0,1,1,2.78,3.26L120.3,285l7.28,6.22a2.14,2.14,0,0,1-1.39,3.77Z"/><path class="cls-3" d="M191.12,287.22H118a2.14,2.14,0,1,1,0-4.28h73.11a2.14,2.14,0,1,1,0,4.28Z"/><path class="cls-3" d="M211.45,261.75l-21.82,21.82a2.14,2.14,0,1,0,3,3l21.82-21.83a2.14,2.14,0,0,0-3-3Z"/><path class="cls-3" d="M202.68,260.12a2.13,2.13,0,0,1,1.35-.62l12.05-.95a2.14,2.14,0,0,1,2.3,2.3l-.95,12a2.14,2.14,0,1,1-4.27-.33l.75-9.55-9.55.75a2.14,2.14,0,0,1-1.68-3.65Z"/><circle class="cls-4" cx="153.71" cy="285.03" r="5.81"/><path class="cls-5" d="M153.71,281.22A3.81,3.81,0,1,1,149.9,285a3.82,3.82,0,0,1,3.81-3.81m0-4a7.81,7.81,0,1,0,7.82,7.81,7.81,7.81,0,0,0-7.82-7.81Z"/><path class="cls-3" d="M185,157.41a2.11,2.11,0,0,1,1.39.52l9.19,7.85a2.14,2.14,0,0,1,0,3.25l-9.19,7.85a2.14,2.14,0,1,1-2.78-3.25l7.28-6.23-7.28-6.22a2.14,2.14,0,0,1-.24-3A2.17,2.17,0,0,1,185,157.41Z"/><path class="cls-3" d="M120,165.26h73.11a2.14,2.14,0,1,1,0,4.28H120a2.14,2.14,0,0,1,0-4.28Z"/><path class="cls-3" d="M127.19,177.39a2.1,2.1,0,0,1-1.39-.51L116.61,169a2.16,2.16,0,0,1-.74-1.63,2.12,2.12,0,0,1,.74-1.62l9.19-7.86a2.14,2.14,0,0,1,2.78,3.26l-7.28,6.22,7.28,6.23a2.14,2.14,0,0,1-1.39,3.76Z"/><circle class="cls-4" cx="162.16" cy="167.4" r="5.81"/><path class="cls-5" d="M162.16,163.59a3.82,3.82,0,1,1-3.82,3.81,3.82,3.82,0,0,1,3.82-3.81m0-4A7.82,7.82,0,1,0,170,167.4a7.82,7.82,0,0,0-7.81-7.81Z"/><path class="cls-6" d="M60.24,86.17a1.33,1.33,0,0,1-.69-.19L39.24,81.09a1.37,1.37,0,0,1-.69-1.19V45.51a1.38,1.38,0,0,1,.69-1.2l20.31-4.4a1.41,1.41,0,0,1,1.38,0l20.31,4.4a1.38,1.38,0,0,1,.69,1.2V79.9a1.37,1.37,0,0,1-.69,1.19L60.93,86A1.33,1.33,0,0,1,60.24,86.17Z"/><path class="cls-3" d="M60.24,87.09c-.24,0-21.31-5-21.31-5a1.37,1.37,0,0,1-.7-1.2V44.48a1.4,1.4,0,0,1,.7-1.21S60,38.76,60.24,38.76s21.31,4.51,21.31,4.51a1.4,1.4,0,0,1,.7,1.21V80.9a1.37,1.37,0,0,1-.7,1.2S60.48,87.09,60.24,87.09ZM41,80.09l19.22,4,19.22-4V45.29L60.24,41.12,41,45.29Z"/><path class="cls-3" d="M60.24,51a1.46,1.46,0,0,1-.7-.18L38.93,46.46A1.4,1.4,0,0,1,40.32,44L60.24,48,80.16,44a1.38,1.38,0,0,1,1.9.51,1.39,1.39,0,0,1-.51,1.91L60.94,50.79A1.46,1.46,0,0,1,60.24,51Z"/><path class="cls-3" d="M60.24,86.08a1.4,1.4,0,0,1-1.4-1.4V50a1.4,1.4,0,0,1,2.8,0V84.68A1.4,1.4,0,0,1,60.24,86.08Z"/><path class="cls-6" d="M60.24,158.08a1.33,1.33,0,0,1-.69-.19L39.24,153a1.37,1.37,0,0,1-.69-1.19v-34.4a1.37,1.37,0,0,1,.69-1.19l20.31-4.4a1.41,1.41,0,0,1,1.38,0l20.31,4.4a1.37,1.37,0,0,1,.69,1.19v34.4a1.37,1.37,0,0,1-.69,1.19l-20.31,4.89A1.33,1.33,0,0,1,60.24,158.08Z"/><path class="cls-3" d="M60.24,159c-.24,0-21.31-5-21.31-5a1.37,1.37,0,0,1-.7-1.2V116.39a1.4,1.4,0,0,1,.7-1.21s21.07-4.51,21.31-4.51,21.31,4.51,21.31,4.51a1.4,1.4,0,0,1,.7,1.21v36.42a1.37,1.37,0,0,1-.7,1.2S60.48,159,60.24,159ZM41,152l19.22,4,19.22-4V117.2L60.24,113,41,117.2Z"/><path class="cls-3" d="M60.24,122.88a1.46,1.46,0,0,1-.7-.18l-20.61-4.33A1.4,1.4,0,0,1,40.32,116l19.92,3.93L80.16,116a1.38,1.38,0,0,1,1.9.51,1.39,1.39,0,0,1-.51,1.91L60.94,122.7A1.46,1.46,0,0,1,60.24,122.88Z"/><path class="cls-3" d="M60.24,158a1.4,1.4,0,0,1-1.4-1.4V121.92a1.4,1.4,0,0,1,2.8,0v34.67A1.4,1.4,0,0,1,60.24,158Z"/><path class="cls-6" d="M60.24,230a1.33,1.33,0,0,1-.69-.19l-20.31-4.89a1.37,1.37,0,0,1-.69-1.19v-34.4a1.37,1.37,0,0,1,.69-1.19l20.31-4.4a1.41,1.41,0,0,1,1.38,0l20.31,4.4a1.37,1.37,0,0,1,.69,1.19v34.4a1.37,1.37,0,0,1-.69,1.19L60.93,229.8A1.33,1.33,0,0,1,60.24,230Z"/><path class="cls-3" d="M60.24,230.91c-.24,0-21.31-5-21.31-5a1.37,1.37,0,0,1-.7-1.2V188.3a1.4,1.4,0,0,1,.7-1.21s21.07-4.51,21.31-4.51,21.31,4.51,21.31,4.51a1.4,1.4,0,0,1,.7,1.21v36.42a1.37,1.37,0,0,1-.7,1.2S60.48,230.91,60.24,230.91Zm-19.22-7,19.22,4,19.22-4v-34.8l-19.22-4.17L41,189.11Z"/><path class="cls-3" d="M60.24,194.79a1.46,1.46,0,0,1-.7-.18l-20.61-4.34a1.39,1.39,0,0,1,1.39-2.41l19.92,3.93,19.92-3.93a1.39,1.39,0,1,1,1.39,2.41l-20.61,4.34A1.46,1.46,0,0,1,60.24,194.79Z"/><path class="cls-3" d="M60.24,229.9a1.4,1.4,0,0,1-1.4-1.4V193.83a1.4,1.4,0,0,1,2.8,0V228.5A1.4,1.4,0,0,1,60.24,229.9Z"/><path class="cls-6" d="M60.24,301.9a1.33,1.33,0,0,1-.69-.19l-20.31-4.89a1.37,1.37,0,0,1-.69-1.19v-34.4a1.37,1.37,0,0,1,.69-1.19l20.31-4.4a1.41,1.41,0,0,1,1.38,0L81.24,260a1.37,1.37,0,0,1,.69,1.19v34.4a1.37,1.37,0,0,1-.69,1.19l-20.31,4.89A1.33,1.33,0,0,1,60.24,301.9Z"/><path class="cls-3" d="M60.24,302.82c-.24,0-21.31-5-21.31-5a1.39,1.39,0,0,1-.7-1.2V260.21a1.4,1.4,0,0,1,.7-1.21s21.07-4.51,21.31-4.51S81.55,259,81.55,259a1.4,1.4,0,0,1,.7,1.21v36.42a1.39,1.39,0,0,1-.7,1.2S60.48,302.82,60.24,302.82Zm-19.22-7,19.22,4,19.22-4V261l-19.22-4.17L41,261Z"/><path class="cls-3" d="M60.24,266.7a1.46,1.46,0,0,1-.7-.18l-20.61-4.34a1.39,1.39,0,1,1,1.39-2.41l19.92,3.92,19.92-3.92a1.39,1.39,0,1,1,1.39,2.41l-20.61,4.34A1.46,1.46,0,0,1,60.24,266.7Z"/><path class="cls-3" d="M60.24,301.8a1.4,1.4,0,0,1-1.4-1.39V265.74a1.4,1.4,0,1,1,2.8,0v34.67A1.4,1.4,0,0,1,60.24,301.8Z"/></svg>