<svg xmlns="http://www.w3.org/2000/svg" viewBox="0 0 1264 1110"><defs><style>.cls-1{isolation:isolate;}.cls-2,.cls-5{fill:#efeeed;}.cls-2{mix-blend-mode:multiply;}.cls-3{fill:#020202;}.cls-4{fill:#010101;}.cls-6{fill:#fff;}.cls-7{fill:#45a1da;}.cls-8{fill:#ffe006;}.cls-9{fill:#777;}.cls-10{fill:#e5282a;}.cls-11,.cls-12{fill:#1d1d1b;}.cls-12{font-size:16.37px;font-family:MavenProMedium, Maven Pro;letter-spacing:0em;}.cls-13{letter-spacing:-0.01em;}.cls-14{letter-spacing:-0.01em;}.cls-15{letter-spacing:0em;}</style></defs><g class="cls-1"><g id="Capa_1" data-name="Capa 1"><rect class="cls-2" x="407.45" y="335.55" width="473.27" height="216.12" rx="11.13"/><rect class="cls-3" x="430.66" y="356.77" width="426.86" height="174.59"/><path class="cls-4" d="M585.91,258.56l5.84-14.65h2l5.82,14.65h-2.2l-1.57-4.11h-6.12l-1.57,4.11Zm4.5-6h4.66l-2.33-6.08Z"/><path class="cls-4" d="M601.82,262.73V251a3.26,3.26,0,0,1,.07-.7,3.61,3.61,0,0,1,.32-.89,3.14,3.14,0,0,1,.72-.94,3.75,3.75,0,0,1,1.35-.71,7.21,7.21,0,0,1,3.28-.18,4.28,4.28,0,0,1,1.27.48,4.2,4.2,0,0,1,1.2,1,5.05,5.05,0,0,1,.84,1.68,8.75,8.75,0,0,1,.33,2.52,7.65,7.65,0,0,1-.44,2.78,3.58,3.58,0,0,1-1.23,1.71,5.4,5.4,0,0,1-1.59.8,6.23,6.23,0,0,1-1.78.24,8.51,8.51,0,0,1-2.33-.32v4.32Zm2-6.24a6.46,6.46,0,0,0,2.33.44,4.24,4.24,0,0,0,1.15-.13,2.5,2.5,0,0,0,.94-.49,2.31,2.31,0,0,0,.71-1.14,6.83,6.83,0,0,0,.24-2,7.88,7.88,0,0,0-.24-2.12,2.42,2.42,0,0,0-.7-1.23,2.58,2.58,0,0,0-.89-.52,3.12,3.12,0,0,0-1-.14c-1.69,0-2.53.54-2.53,1.64Z"/><path class="cls-4" d="M613.85,262.73V251a3.26,3.26,0,0,1,.07-.7,3.61,3.61,0,0,1,.32-.89,3.14,3.14,0,0,1,.72-.94,3.84,3.84,0,0,1,1.35-.71,6.87,6.87,0,0,1,2.08-.29,6.78,6.78,0,0,1,1.2.11,4.28,4.28,0,0,1,1.27.48,4.2,4.2,0,0,1,1.2,1,5.05,5.05,0,0,1,.84,1.68,8.73,8.73,0,0,1,.34,2.52,7.64,7.64,0,0,1-.45,2.78,3.58,3.58,0,0,1-1.23,1.71,5.4,5.4,0,0,1-1.59.8,6.23,6.23,0,0,1-1.78.24,8.51,8.51,0,0,1-2.33-.32v4.32Zm2-6.24a6.46,6.46,0,0,0,2.33.44,4.24,4.24,0,0,0,1.15-.13,2.5,2.5,0,0,0,.94-.49,2.31,2.31,0,0,0,.71-1.14,6.83,6.83,0,0,0,.24-2,7.88,7.88,0,0,0-.24-2.12,2.49,2.49,0,0,0-.69-1.23,2.71,2.71,0,0,0-.9-.52,3.12,3.12,0,0,0-1-.14c-1.69,0-2.53.54-2.53,1.64Z"/><path class="cls-4" d="M626.28,258.56V243.43h2v15.13Z"/><path class="cls-4" d="M631.9,245.91v-2.13H634v2.13Zm.06,12.65v-11h2v11Z"/><path class="cls-4" d="M638.16,257.28a7.39,7.39,0,0,1,0-8.4,4.83,4.83,0,0,1,3.8-1.45,8.74,8.74,0,0,1,3.23.61V250a6.9,6.9,0,0,0-3-.72h0a3.39,3.39,0,0,0-2.37.78c-.57.52-.86,1.54-.86,3.07a7.17,7.17,0,0,0,.25,2,2.4,2.4,0,0,0,.75,1.19,2.83,2.83,0,0,0,1,.51,4.85,4.85,0,0,0,1.22.13,7.05,7.05,0,0,0,3.06-.7v1.9a8.94,8.94,0,0,1-3.23.6A4.83,4.83,0,0,1,638.16,257.28Z"/><path class="cls-4" d="M647.21,255.1a2.88,2.88,0,0,1,1.38-2.54,6.73,6.73,0,0,1,3.78-.92,16,16,0,0,1,2,.13,2.66,2.66,0,0,0-.75-2,3.44,3.44,0,0,0-2.26-.6,9.57,9.57,0,0,0-3,.54V248a9.34,9.34,0,0,1,3.31-.59,4.93,4.93,0,0,1,3.54,1.18,4.46,4.46,0,0,1,1.25,3.41v3.16a3.26,3.26,0,0,1-.07.7,3.75,3.75,0,0,1-.33.9,3.19,3.19,0,0,1-.72,1,3.68,3.68,0,0,1-1.35.71,7,7,0,0,1-2.09.29,6.84,6.84,0,0,1-2.13-.3,4.23,4.23,0,0,1-1.37-.72,3.21,3.21,0,0,1-.74-1,3.58,3.58,0,0,1-.33-.92A3.65,3.65,0,0,1,647.21,255.1Zm2,0c0,1.24.87,1.86,2.63,1.86h0c1.66,0,2.48-.59,2.48-1.78v-1.77a14,14,0,0,0-1.9-.14,6,6,0,0,0-.92.08,8.17,8.17,0,0,0-1,.25,2,2,0,0,0-.92.57A1.32,1.32,0,0,0,649.22,255.07Z"/><path class="cls-4" d="M658,249.32V247.6h1.91v-3.25h2v3.25h2.92v1.72h-2.92v6.33c0,.85.54,1.28,1.62,1.28h0a2.45,2.45,0,0,0,1.28-.32v1.82a4,4,0,0,1-1.5.3h-.06a4.3,4.3,0,0,1-.84-.09,6.78,6.78,0,0,1-1.08-.38,2.35,2.35,0,0,1-1-1,3.45,3.45,0,0,1-.4-1.74v-6.21Z"/><path class="cls-4" d="M667.46,245.91v-2.13h2.13v2.13Zm.06,12.65v-11h2v11Z"/><path class="cls-4" d="M672.88,255.92a8.94,8.94,0,0,1,0-5.66,3.87,3.87,0,0,1,1.26-1.75,5.37,5.37,0,0,1,1.64-.82,7,7,0,0,1,3.64,0,5.48,5.48,0,0,1,1.64.82,3.87,3.87,0,0,1,1.26,1.75,8.94,8.94,0,0,1,0,5.66,3.87,3.87,0,0,1-1.26,1.75,5.48,5.48,0,0,1-1.64.82,7,7,0,0,1-3.64,0,5.37,5.37,0,0,1-1.64-.82A3.87,3.87,0,0,1,672.88,255.92Zm1.83-4.85a8.62,8.62,0,0,0,0,4,2.34,2.34,0,0,0,.72,1.18,2.5,2.5,0,0,0,1,.51,4.5,4.5,0,0,0,1.19.13,4.55,4.55,0,0,0,1.19-.13,2.5,2.5,0,0,0,1-.51,2.34,2.34,0,0,0,.72-1.18,8.62,8.62,0,0,0,0-4,2.34,2.34,0,0,0-.72-1.18,2.8,2.8,0,0,0-1-.51,5,5,0,0,0-1.19-.13,5,5,0,0,0-1.19.13,2.8,2.8,0,0,0-1,.51A2.34,2.34,0,0,0,674.71,251.07Z"/><path class="cls-4" d="M685.31,258.56v-10a10.45,10.45,0,0,1,4.67-1.12,4.63,4.63,0,0,1,3.26,1.08,3.85,3.85,0,0,1,1.18,3v7.07h-2v-7.22a2.22,2.22,0,0,0-.5-1.53,2.65,2.65,0,0,0-2-.56,8.59,8.59,0,0,0-2.58.4v8.91Z"/><path class="cls-4" d="M697.16,250.7a3.13,3.13,0,0,1,1-2.32,4.1,4.1,0,0,1,3-.95,6.5,6.5,0,0,1,2.93.72v1.73a6.48,6.48,0,0,0-2.68-.65c-1.45,0-2.18.47-2.18,1.4,0,.31.2.56.58.77a7.21,7.21,0,0,0,1.4.53,15.74,15.74,0,0,1,1.63.56,3.25,3.25,0,0,1,1.4,1.09,3.25,3.25,0,0,1-.41,4.19,4.31,4.31,0,0,1-3.08,1,6.52,6.52,0,0,1-3.17-.77v-1.83a6.14,6.14,0,0,0,3,.8h0a2.84,2.84,0,0,0,1.6-.38,1.13,1.13,0,0,0,.55-1,1.26,1.26,0,0,0-.57-1.08,4.21,4.21,0,0,0-1.4-.64c-.55-.16-1.1-.33-1.64-.52a3.19,3.19,0,0,1-1.4-.94A2.51,2.51,0,0,1,697.16,250.7Z"/><path class="cls-5" d="M644.45,273.41v71.1a1.09,1.09,0,1,0,2.18,0v-71.1a1.09,1.09,0,1,0-2.18,0Z"/><path class="cls-6" d="M474,393.48h2.82l.29,2.57h.12a10.72,10.72,0,0,1,7-3.07c5.43,0,8.33,4,8.33,10.28,0,6.83-4.31,10.85-9.16,10.85a9.52,9.52,0,0,1-6-2.61h-.09l.17,3.81v6.8H474Zm15,9.78c0-4.44-1.66-7.38-5.68-7.38-1.78,0-3.85.92-5.88,3v10a8.4,8.4,0,0,0,5.34,2.32C486.3,411.21,489,408.23,489,403.26Z"/><path class="cls-6" d="M498.14,406V393.48h3.44v12.06c0,3.77,1.33,5.59,4.64,5.59,2.32,0,4-1.08,6.26-3.69v-14h3.44v20.13h-2.86l-.29-3.52h-.17c-2,2.36-4.39,4-7.5,4C500.34,414.11,498.14,411.29,498.14,406Z"/><path class="cls-6" d="M528.34,405.78v-9.52h-5.71v-2.57l5.84-.21.45-6.46h2.86v6.46h9.86v2.78h-9.86v9.57c0,3.6,1.2,5.46,5.1,5.46a13.19,13.19,0,0,0,4.8-.91l.75,2.53a17.62,17.62,0,0,1-6.3,1.2C530.25,414.11,528.34,410.76,528.34,405.78Z"/><path class="cls-6" d="M553.28,402.1a23.05,23.05,0,0,1,9.28-18.81l1.91,1.74c-5.55,4.68-8.12,10.11-8.12,17.07s2.57,12.38,8.12,17.07l-1.91,1.74A23.08,23.08,0,0,1,553.28,402.1Z"/><path class="cls-7" d="M573.87,384.12h3.44v19.93h.17l10.81-10.57h3.93l-14.91,14.67v5.46h-3.44Zm7.75,18.81,2.07-2.24,9.61,12.92h-3.81Z"/><path class="cls-7" d="M597.19,403.51A10.13,10.13,0,0,1,607.47,393c5.8,0,9.19,3.77,9.19,9.45a14.42,14.42,0,0,1-.16,2.07h-17v-2.65h15l-.87.95c0-4.76-2.36-7.12-6.05-7.12s-7,2.81-7,7.83c0,5.22,3.4,7.87,7.87,7.87a11,11,0,0,0,6.13-1.91l1.25,2.24a13.85,13.85,0,0,1-7.79,2.4C602,414.11,597.19,410.22,597.19,403.51Z"/><path class="cls-7" d="M622,421.86l.7-2.74a6.3,6.3,0,0,0,1.82.29c2.82,0,4.52-1.78,5.51-4.26l.58-1.49-9.36-20.18h3.48l4.89,11.1c.79,1.78,1.66,3.9,2.49,5.85h.16c.71-1.91,1.49-4,2.16-5.85l4.35-11.1h3.31l-8.91,21.79c-1.49,4-3.93,7-8.53,7A8.43,8.43,0,0,1,622,421.86Z"/><path class="cls-7" d="M648.11,410.76h7.62V391.37H649.8v-2.24a18.83,18.83,0,0,0,6.8-1.95h2.57v23.58H666v2.85H648.11Z"/><path class="cls-6" d="M677.06,420.28c3.52-1.57,5.26-3.81,5.22-7.25l-.74-3.81,2.32,3.28a3.25,3.25,0,0,1-5.55-2.16,3.09,3.09,0,0,1,3.31-3.15c2.44,0,3.73,2,3.73,5.31,0,4.84-2.74,8.24-7.29,9.94Z"/><path class="cls-8" d="M695.87,393.48h3.52L704,404.87c.79,2,1.53,4,2.24,6h.16c.71-1.95,1.37-3.94,2.2-6l4.64-11.39h3.31l-8.36,20.13h-3.86Z"/><path class="cls-8" d="M722,408.39c0-4.51,4.22-6.71,14.62-7.54-.12-2.73-1.45-5.05-5.34-5.05a14,14,0,0,0-7,2.4l-1.37-2.32a17.7,17.7,0,0,1,9-2.9c5.51,0,8.2,3.28,8.2,8.29v12.34h-2.86l-.29-2.73h-.12c-2.2,1.74-5.1,3.23-7.91,3.23C725.08,414.11,722,412,722,408.39Zm14.62,0v-5.22c-8.61.67-11.22,2.36-11.22,5,0,2.28,2.07,3.19,4.39,3.19S734.27,410.26,736.59,408.35Z"/><path class="cls-8" d="M753.7,406.86v-20h-7.12v-2.77h10.56v23c0,2.9,1.57,4.14,4,4.14a9.12,9.12,0,0,0,3.77-.91l.87,2.57a12.21,12.21,0,0,1-5.39,1.2C756.06,414.11,753.7,411.63,753.7,406.86Z"/><path class="cls-8" d="M772.38,410.76H780V391.37h-5.93v-2.24a18.83,18.83,0,0,0,6.8-1.95h2.56v23.58h6.88v2.85H772.38Z"/><path class="cls-6" d="M798.28,419.17c5.55-4.69,8.11-10.11,8.11-17.07s-2.56-12.39-8.11-17.07l1.9-1.74a23.7,23.7,0,0,1,0,37.62Z"/><path class="cls-6" d="M474,479.89h2.82l.29,2.56h.12a10.71,10.71,0,0,1,7-3.06c5.43,0,8.33,4,8.33,10.27,0,6.84-4.31,10.86-9.16,10.86a9.58,9.58,0,0,1-6-2.61h-.09l.17,3.81v6.79H474Zm15,9.77c0-4.43-1.66-7.37-5.68-7.37-1.78,0-3.85.91-5.88,3v10a8.45,8.45,0,0,0,5.34,2.32C486.3,497.62,489,494.63,489,489.66Z"/><path class="cls-6" d="M498.14,492.4V479.89h3.44v12.05c0,3.77,1.33,5.59,4.64,5.59,2.32,0,4-1.07,6.26-3.68v-14h3.44V500h-2.86l-.29-3.52h-.17c-2,2.36-4.39,4-7.5,4C500.34,500.52,498.14,497.7,498.14,492.4Z"/><path class="cls-6" d="M528.34,492.19v-9.53h-5.71v-2.57l5.84-.2.45-6.47h2.86v6.47h9.86v2.77h-9.86v9.57c0,3.6,1.2,5.47,5.1,5.47a13.19,13.19,0,0,0,4.8-.91l.75,2.52a17.4,17.4,0,0,1-6.3,1.21C530.25,500.52,528.34,497.16,528.34,492.19Z"/><path class="cls-6" d="M553.28,488.5a23.08,23.08,0,0,1,9.28-18.81l1.91,1.74c-5.55,4.69-8.12,10.11-8.12,17.07s2.57,12.39,8.12,17.07l-1.91,1.74A23.05,23.05,0,0,1,553.28,488.5Z"/><path class="cls-7" d="M573.87,470.52h3.44v19.93h.17l10.81-10.56h3.93l-14.91,14.66V500h-3.44Zm7.75,18.81,2.07-2.24L593.3,500h-3.81Z"/><path class="cls-7" d="M597.19,489.91a10.12,10.12,0,0,1,10.28-10.52c5.8,0,9.19,3.77,9.19,9.44a14.3,14.3,0,0,1-.16,2.07h-17v-2.65h15l-.87,1c0-4.77-2.36-7.13-6.05-7.13s-7,2.82-7,7.83c0,5.22,3.4,7.87,7.87,7.87a11,11,0,0,0,6.13-1.9l1.25,2.23a13.78,13.78,0,0,1-7.79,2.41C602,500.52,597.19,496.62,597.19,489.91Z"/><path class="cls-7" d="M622,508.26l.7-2.73a6.67,6.67,0,0,0,1.82.29c2.82,0,4.52-1.78,5.51-4.27l.58-1.49-9.36-20.17h3.48l4.89,11.1c.79,1.78,1.66,3.89,2.49,5.84h.16l2.16-5.84,4.35-11.1h3.31l-8.91,21.79c-1.49,4-3.93,7-8.53,7A8.41,8.41,0,0,1,622,508.26Z"/><path class="cls-7" d="M648.11,497.16h7.62V477.77H649.8v-2.23a19.25,19.25,0,0,0,6.8-2h2.57v23.57H666V500H648.11Z"/><path class="cls-6" d="M677.06,506.69c3.52-1.58,5.26-3.81,5.22-7.25l-.74-3.81,2.32,3.27a2.91,2.91,0,0,1-2.32,1,3,3,0,0,1-3.23-3.1,3.09,3.09,0,0,1,3.31-3.15c2.44,0,3.73,2,3.73,5.3,0,4.85-2.74,8.24-7.29,9.94Z"/><path class="cls-8" d="M695.87,479.89h3.52L704,491.28c.79,2,1.53,4,2.24,6h.16c.71-1.94,1.37-3.93,2.2-6l4.64-11.39h3.31L708.22,500h-3.86Z"/><path class="cls-8" d="M722,494.8c0-4.52,4.22-6.71,14.62-7.54-.12-2.74-1.45-5.05-5.34-5.05a14,14,0,0,0-7,2.4l-1.37-2.32a17.61,17.61,0,0,1,9-2.9c5.51,0,8.2,3.27,8.2,8.28V500h-2.86l-.29-2.74h-.12c-2.2,1.74-5.1,3.24-7.91,3.24C725.08,500.52,722,498.4,722,494.8Zm14.62,0v-5.22c-8.61.66-11.22,2.36-11.22,5,0,2.28,2.07,3.19,4.39,3.19S734.27,496.66,736.59,494.76Z"/><path class="cls-8" d="M753.7,493.27v-20h-7.12v-2.78h10.56v23c0,2.9,1.57,4.15,4,4.15a9.12,9.12,0,0,0,3.77-.91l.87,2.56a12.22,12.22,0,0,1-5.39,1.21C756.06,500.52,753.7,498,753.7,493.27Z"/><path class="cls-8" d="M771.39,498c9-7.91,13.84-12.55,13.84-16.94,0-3-1.83-5.14-5.72-5.14a9.11,9.11,0,0,0-6.34,3.15l-2-1.95c2.41-2.4,5-4,8.74-4,5.31,0,8.62,3.11,8.62,7.79,0,5-5,9.9-12.14,16.4,1.66-.12,3.36-.2,4.93-.2H790V500h-18.6Z"/><path class="cls-6" d="M798.28,505.57c5.55-4.68,8.11-10.11,8.11-17.07s-2.56-12.38-8.11-17.07l1.9-1.74a23.7,23.7,0,0,1,0,37.62Z"/><path class="cls-9" d="M825.84,575.54V641a4.54,4.54,0,0,1-9.07,0V575.54a4.54,4.54,0,0,1,9.07,0Z"/><path class="cls-9" d="M743.61,636.43h77.16a4.54,4.54,0,1,1,0,9.07H743.61a4.54,4.54,0,1,1,0-9.07Z"/><path class="cls-9" d="M842.48,592.6a4.5,4.5,0,0,0-1.09-3l-16.64-19.46a4.53,4.53,0,0,0-6.89,0l-16.65,19.46a4.54,4.54,0,0,0,6.9,5.91l13.19-15.44,13.2,15.44a4.54,4.54,0,0,0,8-2.95Z"/><path class="cls-9" d="M748.15,641v93a4.54,4.54,0,0,1-9.08,0V641a4.54,4.54,0,1,1,9.08,0Z"/><path class="cls-9" d="M806,941.85H876.4a4.54,4.54,0,1,0,0-9.07H806a4.54,4.54,0,1,0,0,9.07Z"/><path class="cls-9" d="M823,958.5a4.55,4.55,0,0,1-2.95-1.09l-19.47-16.65a4.55,4.55,0,0,1,0-6.89l19.47-16.64a4.54,4.54,0,1,1,5.9,6.89l-15.43,13.2L826,950.51a4.54,4.54,0,0,1-3,8Z"/><path class="cls-9" d="M465.73,575.54V641a4.54,4.54,0,0,0,9.08,0V575.54a4.54,4.54,0,0,0-9.08,0Z"/><path class="cls-9" d="M548,636.43H470.8a4.54,4.54,0,0,0,0,9.07H548a4.54,4.54,0,1,0,0-9.07Z"/><path class="cls-9" d="M449.09,592.6a4.56,4.56,0,0,1,1.09-3l16.64-19.46a4.54,4.54,0,0,1,6.9,0l16.64,19.46a4.54,4.54,0,0,1-6.89,5.91l-13.2-15.44-13.19,15.44a4.54,4.54,0,0,1-8-2.95Z"/><path class="cls-9" d="M543.43,641v90.71a4.54,4.54,0,1,0,9.07,0V641a4.54,4.54,0,1,0-9.07,0Z"/><path class="cls-9" d="M484,879.83H416.36a4.54,4.54,0,0,1,0-9.08H484a4.54,4.54,0,0,1,0,9.08Z"/><path class="cls-9" d="M467,896.47a4.56,4.56,0,0,0,3-1.09l19.46-16.64a4.54,4.54,0,0,0,0-6.9L469.94,855.2a4.54,4.54,0,0,0-5.91,6.89l15.44,13.2L464,888.48a4.54,4.54,0,0,0,3,8Z"/><rect class="cls-3" x="360.13" y="667.03" width="153.92" height="40.67" rx="7.1"/><path class="cls-6" d="M372.1,687.15a11.51,11.51,0,0,1,4.64-9.4l.95.87a11,11,0,0,0,0,17.06l-.95.87A11.52,11.52,0,0,1,372.1,687.15Z"/><path class="cls-7" d="M382.39,678.16h1.72v10h.08l5.41-5.28h2l-7.46,7.33v2.74h-1.72Zm3.88,9.4,1-1.11,4.8,6.46h-1.9Z"/><path class="cls-7" d="M394.05,687.85a5.07,5.07,0,0,1,5.14-5.26c2.9,0,4.6,1.89,4.6,4.72a7.07,7.07,0,0,1-.09,1h-8.51V687h7.5l-.44.48c0-2.38-1.18-3.56-3-3.56s-3.48,1.41-3.48,3.91a3.66,3.66,0,0,0,3.94,3.94,5.54,5.54,0,0,0,3.06-.95l.62,1.11a6.83,6.83,0,0,1-3.89,1.2A5.1,5.1,0,0,1,394.05,687.85Z"/><path class="cls-7" d="M406.46,697l.35-1.37a3.33,3.33,0,0,0,.91.14,2.92,2.92,0,0,0,2.76-2.13l.29-.74-4.68-10.09h1.74l2.44,5.55c.39.89.83,2,1.24,2.92h.09l1.07-2.92,2.18-5.55h1.65l-4.45,10.89c-.74,2-2,3.5-4.26,3.5A4.38,4.38,0,0,1,406.46,697Z"/><path class="cls-7" d="M419.51,691.48h3.81v-9.69h-3v-1.12a9.54,9.54,0,0,0,3.4-1H425v11.79h3.44v1.43h-9Z"/><path class="cls-6" d="M434,696.24c1.76-.79,2.63-1.91,2.61-3.62l-.37-1.91,1.15,1.64a1.45,1.45,0,0,1-1.15.47,1.48,1.48,0,0,1-1.62-1.55,1.55,1.55,0,0,1,1.66-1.57c1.22,0,1.86,1,1.86,2.65a5.1,5.1,0,0,1-3.65,5Z"/><path class="cls-8" d="M443.39,682.84h1.76l2.32,5.7c.4,1,.77,2,1.12,3h.08c.36-1,.69-2,1.1-3l2.32-5.7h1.66l-4.19,10.07h-1.92Z"/><path class="cls-8" d="M456.44,690.3c0-2.26,2.11-3.36,7.31-3.77a2.39,2.39,0,0,0-2.67-2.53,7,7,0,0,0-3.52,1.2l-.68-1.16a8.81,8.81,0,0,1,4.49-1.45c2.75,0,4.1,1.64,4.1,4.14v6.18H464l-.14-1.37h-.07a6.72,6.72,0,0,1-3.95,1.61C458,693.15,456.44,692.1,456.44,690.3Zm7.31,0v-2.61c-4.31.33-5.61,1.18-5.61,2.5,0,1.14,1,1.6,2.19,1.6A5.51,5.51,0,0,0,463.75,690.28Z"/><path class="cls-8" d="M472.31,689.53v-10h-3.56v-1.39H474v11.49a1.81,1.81,0,0,0,2,2.07,4.59,4.59,0,0,0,1.89-.45l.43,1.28a6,6,0,0,1-2.69.6C473.49,693.15,472.31,691.91,472.31,689.53Z"/><path class="cls-8" d="M481.65,691.48h3.81v-9.69h-3v-1.12a9.41,9.41,0,0,0,3.39-1h1.29v11.79h3.43v1.43h-9Z"/><path class="cls-6" d="M494.6,695.68a11,11,0,0,0,0-17.06l.95-.87a11.84,11.84,0,0,1,0,18.8Z"/><rect class="cls-3" x="779.83" y="667.03" width="153.92" height="40.67" rx="7.1"/><path class="cls-6" d="M792.75,688.88a11.52,11.52,0,0,1,4.64-9.4l1,.87a11,11,0,0,0,0,17.06l-1,.87A11.52,11.52,0,0,1,792.75,688.88Z"/><path class="cls-7" d="M803,679.89h1.72v10h.09l5.4-5.28h2l-7.46,7.33v2.74H803Zm3.88,9.4,1-1.11,4.81,6.46h-1.91Z"/><path class="cls-7" d="M814.71,689.58a5.06,5.06,0,0,1,5.13-5.26c2.9,0,4.6,1.89,4.6,4.73a5.88,5.88,0,0,1-.09,1h-8.51v-1.32h7.5l-.44.47c0-2.38-1.18-3.56-3-3.56s-3.48,1.41-3.48,3.91a3.66,3.66,0,0,0,3.94,3.94,5.54,5.54,0,0,0,3.06-.95l.62,1.11a6.81,6.81,0,0,1-3.89,1.2A5.09,5.09,0,0,1,814.71,689.58Z"/><path class="cls-7" d="M827.11,698.76l.35-1.37a3.41,3.41,0,0,0,.92.14,2.92,2.92,0,0,0,2.75-2.13l.29-.74-4.68-10.09h1.74l2.44,5.55c.4.89.83,2,1.24,2.92h.09l1.07-2.92,2.18-5.55h1.65l-4.45,10.89c-.74,2-2,3.5-4.26,3.5A4.38,4.38,0,0,1,827.11,698.76Z"/><path class="cls-7" d="M839.67,693.62c4.47-4,6.91-6.27,6.91-8.47,0-1.51-.91-2.56-2.86-2.56a4.52,4.52,0,0,0-3.16,1.57l-1-1a5.87,5.87,0,0,1,4.37-2c2.65,0,4.31,1.55,4.31,3.89s-2.49,4.95-6.07,8.2c.83-.06,1.68-.1,2.46-.1H849v1.47h-9.29Z"/><path class="cls-6" d="M854.64,698c1.76-.79,2.63-1.91,2.61-3.62l-.37-1.91,1.16,1.64a1.63,1.63,0,0,1-2.78-1.08,1.55,1.55,0,0,1,1.66-1.57c1.22,0,1.86,1,1.86,2.65a5.1,5.1,0,0,1-3.64,5Z"/><path class="cls-8" d="M864,684.57h1.76l2.32,5.7c.4,1,.77,2,1.12,3h.08c.36-1,.69-2,1.1-3l2.32-5.7h1.66l-4.19,10.07h-1.92Z"/><path class="cls-8" d="M877.09,692c0-2.26,2.12-3.36,7.31-3.77a2.39,2.39,0,0,0-2.67-2.53,7,7,0,0,0-3.52,1.2l-.68-1.16a8.81,8.81,0,0,1,4.49-1.45c2.76,0,4.1,1.64,4.1,4.15v6.17h-1.43l-.14-1.37h-.06a6.77,6.77,0,0,1-4,1.61C878.65,694.88,877.09,693.83,877.09,692Zm7.31,0V689.4c-4.3.33-5.61,1.18-5.61,2.5,0,1.14,1,1.6,2.2,1.6A5.5,5.5,0,0,0,884.4,692Z"/><path class="cls-8" d="M893,691.26v-10H889.4v-1.39h5.28v11.5a1.81,1.81,0,0,0,2,2.07,4.58,4.58,0,0,0,1.89-.46l.43,1.28a6,6,0,0,1-2.69.6C894.14,694.88,893,693.64,893,691.26Z"/><path class="cls-8" d="M901.8,693.62c4.48-4,6.92-6.27,6.92-8.47,0-1.51-.91-2.56-2.86-2.56a4.56,4.56,0,0,0-3.17,1.57l-1-1a5.87,5.87,0,0,1,4.37-2c2.65,0,4.31,1.55,4.31,3.89s-2.49,4.95-6.07,8.2c.83-.06,1.68-.1,2.46-.1h4.33v1.47h-9.3Z"/><path class="cls-6" d="M915.25,697.41a11,11,0,0,0,0-17.06l1-.87a11.84,11.84,0,0,1,0,18.8Z"/><path class="cls-9" d="M744.51,729.91H876.19a4.54,4.54,0,0,1,0,9.07H744.51a4.54,4.54,0,1,1,0-9.07Z"/><path class="cls-9" d="M416.29,727.79H548a4.54,4.54,0,1,1,0,9.07H416.29a4.54,4.54,0,1,1,0-9.07Z"/><path class="cls-9" d="M411.82,732.45v142.2a4.54,4.54,0,1,0,9.08,0V732.45a4.54,4.54,0,1,0-9.08,0Z"/><path class="cls-9" d="M871.65,736V935.05a4.54,4.54,0,1,0,9.07,0V736a4.54,4.54,0,1,0-9.07,0Z"/><path class="cls-6" d="M736.7,837.91c-25.75,0-52.39,5.83-52.39,15.6V977.14a5.86,5.86,0,0,0,1.12,3.37,9.81,9.81,0,0,0,1.28,1.48c6.66,6.43,26.75,10.76,50,10.76s43.36-4.33,50-10.75a10,10,0,0,0,1.28-1.5,5.74,5.74,0,0,0,1.12-3.36V853.51C789.11,843.74,762.46,837.91,736.7,837.91Z"/><path class="cls-10" d="M772.61,840.71c-9.73-2.63-22.82-4.15-35.91-4.15s-26.17,1.52-35.89,4.15c-11.39,3.09-17.41,7.48-17.41,12.69v41.42a7.12,7.12,0,0,0,1.36,4.12,10.38,10.38,0,0,0,1.45,1.68c6.82,6.6,27.12,11,50.49,11s43.69-4.44,50.52-11a11.42,11.42,0,0,0,1.44-1.68,7.12,7.12,0,0,0,1.36-4.12V853.4C790,848.19,784,843.8,772.61,840.71Zm12.13,55.48a6,6,0,0,1-.83,1c-5.83,5.64-25.68,9.72-47.21,9.72s-41.36-4.09-47.19-9.72a6.51,6.51,0,0,1-.83-1,2.44,2.44,0,0,1-.49-1.37v-34a26.73,26.73,0,0,0,3.56,2l.06,0q1,.46,2,.9l.18.08c.69.28,1.4.55,2.15.82l.27.09c.64.22,1.29.44,2,.64l.61.2c.63.19,1.29.37,2,.55l.9.24c.64.17,1.3.33,2,.48l1.14.27,2,.41,1.31.25,1.57.29,1.8.3,1.48.22,1.93.27,1.68.21,1.52.18,2.28.22,1.15.11,2.77.22,1,.06,3,.17.75,0,3.34.11H733c1.23,0,2.46,0,3.7,0s2.47,0,3.69,0h.46l3.33-.11.76,0,3-.17,1-.07q1.39-.09,2.76-.21l1.18-.11,2.21-.22,1.58-.18,1.65-.21,2-.27,1.45-.22,1.83-.31,1.55-.28,1.32-.25c.66-.13,1.32-.27,2-.42l1.14-.26q1-.23,2-.48l.86-.23c.7-.19,1.39-.39,2.05-.59l.5-.15c.71-.22,1.39-.44,2-.68l.21-.07c.77-.27,1.5-.55,2.21-.84l.12-.05c.73-.3,1.43-.61,2.09-.92h0a25.38,25.38,0,0,0,3.58-2v34A2.44,2.44,0,0,1,784.74,896.19Zm-48-54.84c30.07,0,48.53,7,48.53,12a2.54,2.54,0,0,1-.5,1.39c-2.1,3.11-9.62,6.28-20.72,8.34l-.1,0-1.26.22-1.31.22h0a154.39,154.39,0,0,1-20.47,1.8l-.69,0-1.32,0h-4.3l-1.31,0-.7,0a154,154,0,0,1-20.43-1.79l-.08,0-1.24-.2-1.34-.24h0c-11.1-2.06-18.62-5.23-20.74-8.34a2.57,2.57,0,0,1-.5-1.39C688.19,848.37,706.65,841.35,736.7,841.35Z"/><path class="cls-10" d="M787.77,892.41a2.22,2.22,0,0,0-2.21,2.22,2.77,2.77,0,0,1-.52,1.49c-1.91,2.82-8,5.58-16.67,7.57a157.74,157.74,0,0,1-63.32,0c-8.68-2-14.75-4.75-16.66-7.56a2.74,2.74,0,0,1-.52-1.5,2.22,2.22,0,1,0-4.43,0v82.76a6.91,6.91,0,0,0,1.33,4,10.82,10.82,0,0,0,1.41,1.64c3.41,3.29,10.06,6.08,19.24,8.05a165.76,165.76,0,0,0,62.58,0c9.18-2,15.83-4.75,19.23-8a10.55,10.55,0,0,0,1.43-1.66,6.93,6.93,0,0,0,1.33-4V894.63A2.23,2.23,0,0,0,787.77,892.41Zm-2.21,85a2.61,2.61,0,0,1-.52,1.47,6.53,6.53,0,0,1-.86,1h0c-2.82,2.73-9,5.21-17.53,7a161.42,161.42,0,0,1-59.87,0c-8.47-1.78-14.7-4.26-17.53-7h0a6.17,6.17,0,0,1-.84-1,2.64,2.64,0,0,1-.52-1.49V901.71c3.63,2.63,9.43,4.87,17,6.54a165.86,165.86,0,0,0,63.63,0c7.59-1.67,13.4-3.91,17-6.54Z"/><path class="cls-11" d="M701.23,890.42V878.88l2.28.52q1.65,2.79,3.3,5.53l3.32-4.19c.76.13,1.53.27,2.3.39v11.54l-2.07-.35v-8.53q-1.79,2.24-3.55,4.43-1.77-2.91-3.53-5.86v8.54Z"/><path class="cls-11" d="M715.34,893.12V881.58q3.84.55,7.69.91v1.86c-1.87-.17-3.75-.38-5.61-.62v2.92c1.62.21,3.24.4,4.86.56v2c-1.62-.16-3.24-.35-4.86-.56v2.93c1.86.24,3.74.45,5.61.62V894Q719.18,893.67,715.34,893.12Z"/><path class="cls-11" d="M725.42,894.23V882.69l2.32.16q1.66,2.52,3.35,5,1.68-2.34,3.36-4.73c.78,0,1.55,0,2.33,0v11.54l-2.1,0v-8.53q-1.78,2.52-3.59,5c-1.19-1.75-2.39-3.52-3.58-5.29v8.53C726.81,894.34,726.11,894.29,725.42,894.23Z"/><path class="cls-11" d="M739.31,888.91a8.49,8.49,0,0,1,.33-2.49,5.08,5.08,0,0,1,.86-1.73,4.65,4.65,0,0,1,1.26-1.07,5.56,5.56,0,0,1,1.45-.58,8.87,8.87,0,0,1,1.52-.2,7.52,7.52,0,0,1,1.52.06,5,5,0,0,1,1.45.44,4,4,0,0,1,1.27.95,4.51,4.51,0,0,1,.86,1.64,8.23,8.23,0,0,1,.33,2.46,8.84,8.84,0,0,1-.33,2.52,5.37,5.37,0,0,1-.86,1.78,4.85,4.85,0,0,1-1.27,1.12,5.32,5.32,0,0,1-1.45.63,7.85,7.85,0,0,1-1.52.21,6.84,6.84,0,0,1-1.52-.07,4.84,4.84,0,0,1-1.45-.48,4.13,4.13,0,0,1-1.26-1,4.91,4.91,0,0,1-.86-1.7A8.42,8.42,0,0,1,739.31,888.91Zm2.1-.06a7.64,7.64,0,0,0,.25,2.15,2.42,2.42,0,0,0,.77,1.23,2.77,2.77,0,0,0,1,.5,4.1,4.1,0,0,0,1.26.09,5.65,5.65,0,0,0,1-.13,2.91,2.91,0,0,0,.89-.37,2.31,2.31,0,0,0,.75-.74,4.45,4.45,0,0,0,.48-1.24,7.39,7.39,0,0,0,.19-1.81,7.3,7.3,0,0,0-.26-2.11,2.19,2.19,0,0,0-.77-1.2,2.78,2.78,0,0,0-1-.48,5.47,5.47,0,0,0-1.27-.07,6.67,6.67,0,0,0-1,.12,3.36,3.36,0,0,0-.9.37,2.13,2.13,0,0,0-.75.71,3.83,3.83,0,0,0-.47,1.19A7.22,7.22,0,0,0,741.41,888.85Z"/><path class="cls-11" d="M752.66,893.94V882.39c1.49-.15,3-.31,4.44-.5a4.37,4.37,0,0,1,3.16.52,2.94,2.94,0,0,1,1.12,2.58,3.91,3.91,0,0,1-2.53,3.79l3,4-2.51.38-2.75-3.7-1.87.22v4.07Zm2.09-6.2,2.3-.28a3.36,3.36,0,0,0,1.66-.6,1.78,1.78,0,0,0,.6-1.51q0-1.07-.6-1.35a3,3,0,0,0-1.66-.15l-2.3.28Z"/><path class="cls-11" d="M762.44,881.1c.84-.13,1.67-.28,2.5-.43l3,4.11c1-1.77,2-3.54,3-5.33l2.47-.57q-2.22,3.82-4.46,7.59v4.95l-2.06.42v-5Q764.7,884,762.44,881.1Z"/><path class="cls-11" d="M718.81,951.2V939.66c1.31.31,2.63.59,4,.84a6.67,6.67,0,0,1,4.06,2.11,6.78,6.78,0,0,1,1.39,4.48,5.43,5.43,0,0,1-1.39,4.13,4.51,4.51,0,0,1-4.06.82C721.44,951.8,720.12,951.52,718.81,951.2Zm2.06-1.4c.63.13,1.25.26,1.89.37a2.79,2.79,0,0,0,2.58-.47,4.14,4.14,0,0,0,.79-2.87,5.23,5.23,0,0,0-.79-3.12,4.06,4.06,0,0,0-2.58-1.35c-.64-.11-1.26-.24-1.89-.37Z"/><path class="cls-11" d="M730.77,953.11V941.56c.69.06,1.39.11,2.09.15v11.54Z"/><path class="cls-11" d="M735.35,945.05a2.86,2.86,0,0,1,1.18-2.51,5.16,5.16,0,0,1,3-.89,7,7,0,0,1,3.12.65v2a5.28,5.28,0,0,0-2.87-.73,3.77,3.77,0,0,0-1.63.37,1.1,1.1,0,0,0-.67,1,1,1,0,0,0,.61.9,6.13,6.13,0,0,0,1.47.52,16.18,16.18,0,0,1,1.74.49,3.1,3.1,0,0,1,1.48,1.07,3.41,3.41,0,0,1,.6,2.11,3,3,0,0,1-1.16,2.35,4.53,4.53,0,0,1-2.84,1,6.86,6.86,0,0,1-3.84-1v-2.1a5.25,5.25,0,0,0,3.35,1.1c1.6,0,2.4-.54,2.4-1.42a1.21,1.21,0,0,0-.43-1,2.78,2.78,0,0,0-1.1-.55c-.44-.11-.91-.25-1.42-.41a13.11,13.11,0,0,1-1.42-.55,2.74,2.74,0,0,1-1.1-1A2.87,2.87,0,0,1,735.35,945.05Z"/><path class="cls-11" d="M745.71,952.89V941.35l2.08-.26V946q2.18-2.75,4.35-5.61c.92-.18,1.84-.38,2.76-.59q-2.31,3.08-4.62,6,2.55,2.81,5.09,5.43c-.85.21-1.71.4-2.56.57-1.29-1.4-2.57-2.84-3.86-4.31l-1.16,1.44v3.73C747.1,952.73,746.4,952.81,745.71,952.89Z"/><path class="cls-10" d="M703.77,1015.89s-3.43,5.21,3.32,6.27c.66.08,5.55.59,6.81,2.19,0,0-.11-2.77-4.09-4.39S704.21,1017.92,703.77,1015.89Z"/><path class="cls-10" d="M707.12,1004.69s-9.61,5.86-.56,11.69c1.75,1.13,8.06,4.29,7.88,7.19,0,0,3.83-5.67-1.76-9.23C706.92,1010.69,705.48,1006.8,707.12,1004.69Z"/><path class="cls-10" d="M717,1010.42c-4.11-4.31-5.26-7-3.5-10.43,0,0-12.3,4.73-.16,13.12,4.35,3,3.62,6.08,3.63,6.19C717.69,1018.59,721.16,1014.74,717,1010.42Z"/><text class="cls-12" transform="translate(726.31 1018.49)">N<tspan class="cls-13" x="12.03" y="0">O</tspan><tspan class="cls-14" x="24.06" y="0">D</tspan><tspan class="cls-15" x="34.95" y="0">E</tspan></text><path class="cls-6" d="M555.71,837.91c-25.75,0-52.39,5.83-52.39,15.6V977.14a5.86,5.86,0,0,0,1.12,3.37,9.81,9.81,0,0,0,1.28,1.48c6.66,6.43,26.75,10.76,50,10.76s43.36-4.33,50-10.75a10,10,0,0,0,1.28-1.5,5.74,5.74,0,0,0,1.12-3.36V853.51C608.12,843.74,581.47,837.91,555.71,837.91Z"/><path class="cls-10" d="M591.62,840.71c-9.73-2.63-22.82-4.15-35.91-4.15s-26.17,1.52-35.89,4.15c-11.39,3.09-17.4,7.48-17.4,12.69v41.42a7.11,7.11,0,0,0,1.35,4.12,10.38,10.38,0,0,0,1.45,1.68c6.82,6.6,27.12,11,50.49,11s43.69-4.44,50.52-11a11.42,11.42,0,0,0,1.44-1.68,7.12,7.12,0,0,0,1.36-4.12V853.4C609,848.19,603,843.8,591.62,840.71Zm12.13,55.48a6,6,0,0,1-.83,1c-5.83,5.64-25.68,9.72-47.21,9.72s-41.36-4.09-47.19-9.72a6.51,6.51,0,0,1-.83-1,2.42,2.42,0,0,1-.48-1.37v-34a26,26,0,0,0,3.55,2l.06,0q1,.46,2,.9l.18.08c.69.28,1.4.55,2.15.82l.27.09c.64.22,1.29.44,2,.64l.61.2c.63.19,1.29.37,2,.55l.9.24c.64.17,1.3.33,2,.48l1.14.27,2,.41,1.31.25,1.57.29,1.8.3,1.48.22,1.93.27,1.68.21,1.52.18,2.28.22,1.15.11,2.77.22,1,.06,3,.17.75,0,3.34.11H552c1.23,0,2.46,0,3.7,0s2.47,0,3.69,0h.46l3.33-.11.76,0,3-.17,1-.07q1.39-.09,2.76-.21l1.18-.11,2.21-.22,1.58-.18,1.65-.21,2-.27,1.45-.22,1.83-.31,1.55-.28,1.32-.25c.66-.13,1.32-.27,2-.42l1.14-.26q1-.23,2-.48l.86-.23c.7-.19,1.39-.39,2.05-.59l.5-.15c.71-.22,1.39-.44,2-.68l.21-.07c.77-.27,1.5-.55,2.21-.84l.12-.05c.73-.3,1.43-.61,2.09-.92h0a25.38,25.38,0,0,0,3.58-2v34A2.44,2.44,0,0,1,603.75,896.19Zm-48-54.84c30.07,0,48.53,7,48.53,12a2.54,2.54,0,0,1-.5,1.39c-2.1,3.11-9.62,6.28-20.72,8.34l-.1,0-1.26.22-1.31.22h0a154.39,154.39,0,0,1-20.47,1.8l-.69,0-1.32,0h-4.3l-1.31,0-.7,0a154,154,0,0,1-20.43-1.79l-.08,0-1.24-.2-1.34-.24h0c-11.1-2.06-18.62-5.23-20.74-8.34a2.55,2.55,0,0,1-.49-1.39C507.21,848.37,525.66,841.35,555.71,841.35Z"/><path class="cls-10" d="M606.78,892.41a2.22,2.22,0,0,0-2.21,2.22,2.77,2.77,0,0,1-.52,1.49c-1.91,2.82-8,5.58-16.67,7.57a157.74,157.74,0,0,1-63.32,0c-8.68-2-14.75-4.75-16.66-7.56a2.74,2.74,0,0,1-.52-1.5,2.22,2.22,0,1,0-4.43,0v82.76a6.91,6.91,0,0,0,1.33,4,10.82,10.82,0,0,0,1.41,1.64c3.41,3.29,10.06,6.08,19.24,8.05a165.76,165.76,0,0,0,62.58,0c9.18-2,15.83-4.75,19.23-8a11.15,11.15,0,0,0,1.44-1.66,7,7,0,0,0,1.32-4V894.63A2.23,2.23,0,0,0,606.78,892.41Zm-2.21,85a2.61,2.61,0,0,1-.52,1.47,6.53,6.53,0,0,1-.86,1h0c-2.82,2.73-9,5.21-17.53,7a161.42,161.42,0,0,1-59.87,0c-8.47-1.78-14.7-4.26-17.53-7h0a6.17,6.17,0,0,1-.84-1,2.64,2.64,0,0,1-.52-1.49V901.71c3.63,2.63,9.43,4.87,17,6.54a165.86,165.86,0,0,0,63.63,0c7.59-1.67,13.4-3.91,17-6.54Z"/><path class="cls-11" d="M520.24,890.42V878.88l2.28.52q1.65,2.79,3.3,5.53l3.32-4.19c.76.13,1.53.27,2.3.39v11.54l-2.08-.35v-8.53q-1.77,2.24-3.54,4.43-1.77-2.91-3.53-5.86v8.54Z"/><path class="cls-11" d="M534.35,893.12V881.58c2.55.37,5.12.67,7.69.91v1.86c-1.87-.17-3.75-.38-5.62-.62v2.92c1.63.21,3.25.4,4.87.56v2c-1.62-.16-3.24-.35-4.87-.56v2.93c1.87.24,3.75.45,5.62.62V894C539.47,893.79,536.9,893.49,534.35,893.12Z"/><path class="cls-11" d="M544.43,894.23V882.69l2.31.16q1.68,2.52,3.36,5,1.68-2.34,3.36-4.73c.78,0,1.55,0,2.33,0v11.54l-2.1,0v-8.53q-1.79,2.52-3.59,5c-1.19-1.75-2.39-3.52-3.58-5.29v8.53C545.82,894.34,545.12,894.29,544.43,894.23Z"/><path class="cls-11" d="M558.32,888.91a8.49,8.49,0,0,1,.33-2.49,5.08,5.08,0,0,1,.86-1.73,4.65,4.65,0,0,1,1.26-1.07,5.56,5.56,0,0,1,1.45-.58,8.87,8.87,0,0,1,1.52-.2,7.49,7.49,0,0,1,1.52.06,5,5,0,0,1,1.45.44,4,4,0,0,1,1.27.95,4.51,4.51,0,0,1,.86,1.64,8.23,8.23,0,0,1,.33,2.46,8.84,8.84,0,0,1-.33,2.52,5.37,5.37,0,0,1-.86,1.78,4.85,4.85,0,0,1-1.27,1.12,5.46,5.46,0,0,1-1.45.63,7.85,7.85,0,0,1-1.52.21,6.84,6.84,0,0,1-1.52-.07,4.75,4.75,0,0,1-1.45-.48,4.13,4.13,0,0,1-1.26-1,4.91,4.91,0,0,1-.86-1.7A8.42,8.42,0,0,1,558.32,888.91Zm2.09-.06a7.6,7.6,0,0,0,.26,2.15,2.42,2.42,0,0,0,.77,1.23,2.77,2.77,0,0,0,1,.5,4.1,4.1,0,0,0,1.26.09,5.65,5.65,0,0,0,1-.13,2.91,2.91,0,0,0,.89-.37,2.31,2.31,0,0,0,.75-.74,4.45,4.45,0,0,0,.48-1.24,7.39,7.39,0,0,0,.19-1.81,7.3,7.3,0,0,0-.26-2.11,2.19,2.19,0,0,0-.77-1.2,2.78,2.78,0,0,0-1-.48,5.47,5.47,0,0,0-1.27-.07,6.83,6.83,0,0,0-1,.12,3.36,3.36,0,0,0-.9.37,2.13,2.13,0,0,0-.75.71,3.83,3.83,0,0,0-.47,1.19A7.19,7.19,0,0,0,560.41,888.85Z"/><path class="cls-11" d="M571.67,893.94V882.39c1.48-.15,3-.31,4.44-.5a4.37,4.37,0,0,1,3.16.52,2.94,2.94,0,0,1,1.12,2.58,3.91,3.91,0,0,1-2.53,3.79l3,4-2.51.38-2.75-3.7-1.87.22v4.07Zm2.09-6.2,2.3-.28a3.39,3.39,0,0,0,1.66-.6,1.78,1.78,0,0,0,.6-1.51c0-.71-.21-1.16-.6-1.35a3,3,0,0,0-1.66-.15l-2.3.28Z"/><path class="cls-11" d="M581.45,881.1c.84-.13,1.67-.28,2.5-.43l3,4.11c1-1.77,2-3.54,3-5.33l2.47-.57q-2.22,3.82-4.46,7.59v4.95l-2.06.42v-5Q583.71,884,581.45,881.1Z"/><path class="cls-11" d="M537.82,951.2V939.66c1.31.31,2.63.59,3.95.84a6.69,6.69,0,0,1,4.06,2.11,6.78,6.78,0,0,1,1.39,4.48,5.47,5.47,0,0,1-1.39,4.13,4.51,4.51,0,0,1-4.06.82C540.45,951.8,539.13,951.52,537.82,951.2Zm2.06-1.4c.63.13,1.25.26,1.88.37a2.8,2.8,0,0,0,2.59-.47,4.09,4.09,0,0,0,.78-2.87,5.16,5.16,0,0,0-.78-3.12,4.06,4.06,0,0,0-2.59-1.35c-.63-.11-1.25-.24-1.88-.37Z"/><path class="cls-11" d="M549.78,953.11V941.56c.69.06,1.39.11,2.09.15v11.54Z"/><path class="cls-11" d="M554.36,945.05a2.86,2.86,0,0,1,1.18-2.51,5.16,5.16,0,0,1,3-.89,7,7,0,0,1,3.12.65v2a5.28,5.28,0,0,0-2.87-.73,3.77,3.77,0,0,0-1.63.37,1.1,1.1,0,0,0-.67,1,1,1,0,0,0,.61.9,6.3,6.3,0,0,0,1.47.52,16.18,16.18,0,0,1,1.74.49,3.1,3.1,0,0,1,1.48,1.07,3.41,3.41,0,0,1,.6,2.11,3,3,0,0,1-1.16,2.35,4.53,4.53,0,0,1-2.84,1,6.86,6.86,0,0,1-3.84-1v-2.1a5.25,5.25,0,0,0,3.35,1.1c1.6,0,2.4-.54,2.4-1.42a1.21,1.21,0,0,0-.43-1,2.78,2.78,0,0,0-1.1-.55c-.44-.11-.91-.25-1.42-.41a13.11,13.11,0,0,1-1.42-.55,2.74,2.74,0,0,1-1.1-1A2.87,2.87,0,0,1,554.36,945.05Z"/><path class="cls-11" d="M564.72,952.89V941.35l2.08-.26V946q2.18-2.75,4.35-5.61c.92-.18,1.84-.38,2.76-.59q-2.31,3.08-4.62,6,2.55,2.81,5.09,5.43c-.85.21-1.71.4-2.56.57-1.29-1.4-2.57-2.84-3.86-4.31l-1.16,1.44v3.73C566.11,952.73,565.41,952.81,564.72,952.89Z"/><path class="cls-10" d="M522.78,1015.89s-3.43,5.21,3.32,6.27c.66.08,5.55.59,6.81,2.19,0,0-.11-2.77-4.09-4.39S523.22,1017.92,522.78,1015.89Z"/><path class="cls-10" d="M526.13,1004.69s-9.61,5.86-.56,11.69c1.75,1.13,8.07,4.29,7.88,7.19,0,0,3.83-5.67-1.76-9.23C525.93,1010.69,524.49,1006.8,526.13,1004.69Z"/><path class="cls-10" d="M536.05,1010.42c-4.11-4.31-5.26-7-3.5-10.43,0,0-12.3,4.73-.16,13.12,4.35,3,3.62,6.08,3.63,6.19C536.7,1018.59,540.17,1014.74,536.05,1010.42Z"/><text class="cls-12" transform="translate(545.32 1018.49)">N<tspan class="cls-13" x="12.03" y="0">O</tspan><tspan class="cls-14" x="24.06" y="0">D</tspan><tspan class="cls-15" x="34.95" y="0">E</tspan></text><path class="cls-6" d="M646.2,866.65c-25.75,0-52.38,5.84-52.38,15.61v123.62a5.79,5.79,0,0,0,1.12,3.37,9.36,9.36,0,0,0,1.27,1.48c6.66,6.44,26.75,10.76,50,10.76s43.36-4.32,50-10.75a9,9,0,0,0,1.29-1.49,5.86,5.86,0,0,0,1.12-3.37V882.26C698.62,872.49,672,866.65,646.2,866.65Z"/><path class="cls-10" d="M682.12,869.46c-9.73-2.64-22.82-4.15-35.92-4.15s-26.17,1.51-35.89,4.15c-11.38,3.09-17.4,7.48-17.4,12.68v41.43a7.12,7.12,0,0,0,1.36,4.12,11.34,11.34,0,0,0,1.44,1.68c6.83,6.59,27.13,11,50.49,11s43.69-4.43,50.52-11a10.36,10.36,0,0,0,1.45-1.67,7.11,7.11,0,0,0,1.35-4.12V882.14C699.52,876.94,693.5,872.55,682.12,869.46Zm12.13,55.48a6.51,6.51,0,0,1-.83,1c-5.83,5.63-25.68,9.71-47.22,9.71s-41.36-4.08-47.18-9.71a5.9,5.9,0,0,1-.83-1,2.47,2.47,0,0,1-.49-1.37v-34a27.2,27.2,0,0,0,3.56,2l.06,0c.64.31,1.32.62,2,.91l.18.07c.69.28,1.41.56,2.16.82l.27.1c.63.22,1.29.43,2,.64l.61.19c.64.19,1.29.38,2,.56l.9.24,2,.48,1.15.26,2,.42,1.3.25,1.57.28c.6.11,1.2.2,1.81.3l1.47.23,1.94.27,1.68.21,1.52.17,2.27.23,1.16.11q1.37.12,2.76.21l1,.07c1,.06,2,.12,3,.16l.75,0c1.11,0,2.22.09,3.34.11h.45c1.22,0,2.45,0,3.69,0s2.47,0,3.7,0h.45c1.12,0,2.23-.06,3.33-.11l.77,0c1,0,2-.1,3-.16l1-.07q1.39-.09,2.76-.21l1.18-.11,2.21-.22,1.59-.19,1.65-.2,2-.28,1.45-.22,1.83-.3,1.56-.28,1.31-.26c.67-.13,1.32-.27,2-.41l1.14-.26c.67-.16,1.34-.32,2-.49l.87-.23c.69-.19,1.38-.38,2.05-.58l.5-.16c.7-.21,1.38-.44,2-.67l.22-.07c.77-.27,1.5-.56,2.21-.84l.12-.05c.73-.3,1.42-.61,2.08-.93h0a26.86,26.86,0,0,0,3.58-2v34A2.45,2.45,0,0,1,694.25,924.94Zm-48-54.84c30.07,0,48.53,7,48.53,12a2.5,2.5,0,0,1-.49,1.39c-2.11,3.11-9.63,6.28-20.73,8.35h-.09l-1.26.23-1.32.22h0a156.1,156.1,0,0,1-20.48,1.8h-.69l-1.31,0h-4.31l-1.31,0h-.69a155.46,155.46,0,0,1-20.43-1.8h-.09l-1.24-.21c-.45-.08-.9-.15-1.34-.24h0c-11.1-2.06-18.62-5.23-20.73-8.34a2.6,2.6,0,0,1-.5-1.4C597.7,877.12,616.15,870.1,646.2,870.1Z"/><path class="cls-10" d="M697.28,921.16a2.22,2.22,0,0,0-2.22,2.22,2.63,2.63,0,0,1-.52,1.48c-1.91,2.83-8,5.59-16.66,7.58a158.27,158.27,0,0,1-63.33,0c-8.68-2-14.75-4.75-16.65-7.57a2.71,2.71,0,0,1-.53-1.49,2.22,2.22,0,1,0-4.43,0v82.75a7,7,0,0,0,1.33,4,10.82,10.82,0,0,0,1.41,1.64c3.42,3.29,10.07,6.07,19.24,8.05a166.31,166.31,0,0,0,62.58,0c9.18-2,15.83-4.75,19.24-8a11.1,11.1,0,0,0,1.43-1.66,7,7,0,0,0,1.32-4V923.38A2.21,2.21,0,0,0,697.28,921.16Zm-2.22,85a2.54,2.54,0,0,1-.52,1.48,6,6,0,0,1-.86,1h0c-2.82,2.73-9,5.21-17.52,7a161.42,161.42,0,0,1-59.87,0c-8.48-1.78-14.7-4.26-17.53-7h0a6.75,6.75,0,0,1-.84-1,2.61,2.61,0,0,1-.53-1.49V930.46c3.63,2.62,9.44,4.86,17,6.54A166.34,166.34,0,0,0,678,937c7.6-1.68,13.41-3.92,17-6.54Z"/><path class="cls-11" d="M610.73,919.16V907.62l2.28.53c1.1,1.85,2.2,3.7,3.31,5.53,1.1-1.39,2.21-2.79,3.31-4.2l2.3.4v11.54l-2.07-.35v-8.54L616.32,917c-1.18-1.94-2.36-3.9-3.53-5.86v8.53C612.1,919.49,611.42,919.33,610.73,919.16Z"/><path class="cls-11" d="M624.84,921.87V910.32q3.84.55,7.7.91v1.87q-2.82-.26-5.62-.63v2.93c1.62.21,3.25.39,4.87.55v2c-1.62-.16-3.25-.34-4.87-.55v2.92c1.87.25,3.74.45,5.62.63v1.87C630,922.54,627.4,922.23,624.84,921.87Z"/><path class="cls-11" d="M634.92,923V911.44l2.32.16c1.12,1.68,2.24,3.34,3.36,5,1.12-1.57,2.24-3.14,3.36-4.73l2.32,0v11.54l-2.09,0v-8.54c-1.2,1.68-2.39,3.35-3.59,5-1.2-1.75-2.39-3.51-3.59-5.29v8.54Z"/><path class="cls-11" d="M648.82,917.66a8.56,8.56,0,0,1,.33-2.5,5.21,5.21,0,0,1,.85-1.72,4.39,4.39,0,0,1,1.27-1.07,5.06,5.06,0,0,1,1.44-.58,8.08,8.08,0,0,1,1.53-.2,8.37,8.37,0,0,1,1.52,0,4.6,4.6,0,0,1,1.44.45,3.86,3.86,0,0,1,1.27.94,4.44,4.44,0,0,1,.86,1.64,7.93,7.93,0,0,1,.34,2.47,8.47,8.47,0,0,1-.34,2.51,5.09,5.09,0,0,1-.86,1.78,4.59,4.59,0,0,1-1.27,1.13,4.94,4.94,0,0,1-1.44.62,8,8,0,0,1-1.52.22,7.6,7.6,0,0,1-1.53-.07,5,5,0,0,1-1.44-.49,4,4,0,0,1-1.27-1,4.9,4.9,0,0,1-.85-1.7A8.51,8.51,0,0,1,648.82,917.66Zm2.09-.06a7.53,7.53,0,0,0,.26,2.14,2.32,2.32,0,0,0,.77,1.23,2.76,2.76,0,0,0,1,.51,5,5,0,0,0,1.27.09,6.86,6.86,0,0,0,1-.13,3.5,3.5,0,0,0,.89-.38,2.3,2.3,0,0,0,.75-.74,4.5,4.5,0,0,0,.48-1.23,8,8,0,0,0,.19-1.81,7.43,7.43,0,0,0-.26-2.12,2.22,2.22,0,0,0-.78-1.2,2.72,2.72,0,0,0-1-.47,5.47,5.47,0,0,0-1.27-.07,6.51,6.51,0,0,0-1,.12,3,3,0,0,0-.9.36,2.22,2.22,0,0,0-.75.71,4,4,0,0,0-.48,1.2A7.22,7.22,0,0,0,650.91,917.6Z"/><path class="cls-11" d="M662.17,922.68V911.14q2.22-.23,4.44-.51a4.41,4.41,0,0,1,3.15.52,2.94,2.94,0,0,1,1.13,2.58,3.89,3.89,0,0,1-2.53,3.79l3,4-2.51.39c-.92-1.23-1.84-2.46-2.76-3.71l-1.87.23v4.07Zm2.08-6.2,2.31-.27a3.46,3.46,0,0,0,1.65-.6,1.8,1.8,0,0,0,.6-1.51c0-.71-.2-1.17-.6-1.35a2.91,2.91,0,0,0-1.65-.15l-2.31.28Z"/><path class="cls-11" d="M672,909.85l2.5-.43c1,1.38,2,2.75,3,4.1,1-1.76,2-3.54,3-5.33.83-.18,1.65-.37,2.48-.57q-2.22,3.82-4.46,7.59v5l-2.06.41v-5Q674.21,912.78,672,909.85Z"/><path class="cls-11" d="M628.32,980V968.4c1.31.32,2.62.6,3.94.84a6,6,0,0,1,5.45,6.6,5.4,5.4,0,0,1-1.38,4.12,4.5,4.5,0,0,1-4.07.83C630.94,980.54,629.63,980.26,628.32,980Zm2-1.41c.63.14,1.26.26,1.89.38a2.78,2.78,0,0,0,2.58-.48,4,4,0,0,0,.79-2.86,5.07,5.07,0,0,0-.79-3.12,4,4,0,0,0-2.58-1.35l-1.89-.37Z"/><path class="cls-11" d="M640.27,981.86V970.31c.7.06,1.39.11,2.09.14V982Z"/><path class="cls-11" d="M644.85,973.79a2.88,2.88,0,0,1,1.19-2.51,5.21,5.21,0,0,1,3-.88,7,7,0,0,1,3.12.64v2a5.14,5.14,0,0,0-2.88-.73,3.72,3.72,0,0,0-1.62.37,1.09,1.09,0,0,0-.67,1,1,1,0,0,0,.61.9,6,6,0,0,0,1.47.51c.57.13,1.15.3,1.73.49a3.07,3.07,0,0,1,1.48,1.08,3.35,3.35,0,0,1,.61,2.11,2.94,2.94,0,0,1-1.17,2.35,4.5,4.5,0,0,1-2.84,1,6.69,6.69,0,0,1-3.83-1v-2.1a5.24,5.24,0,0,0,3.35,1.11c1.6,0,2.4-.54,2.4-1.42a1.24,1.24,0,0,0-.44-1,2.54,2.54,0,0,0-1.09-.54c-.44-.11-.92-.25-1.42-.41a12.35,12.35,0,0,1-1.42-.56,2.54,2.54,0,0,1-1.1-1A2.83,2.83,0,0,1,644.85,973.79Z"/><path class="cls-11" d="M655.21,981.64V970.09c.7-.07,1.39-.16,2.09-.26v4.89q2.18-2.75,4.34-5.61c.92-.18,1.84-.38,2.76-.59-1.53,2-3.07,4.05-4.62,6q2.57,2.81,5.1,5.43c-.85.2-1.71.39-2.57.57-1.28-1.41-2.57-2.84-3.86-4.31l-1.15,1.43v3.74Z"/><path class="cls-10" d="M613.28,1044.64s-3.44,5.2,3.31,6.26c.66.09,5.55.59,6.82,2.19,0,0-.12-2.76-4.09-4.39S613.72,1046.67,613.28,1044.64Z"/><path class="cls-10" d="M616.62,1033.44s-9.61,5.85-.55,11.68c1.74,1.13,8.06,4.3,7.87,7.2,0,0,3.83-5.68-1.76-9.23C616.43,1039.43,615,1035.54,616.62,1033.44Z"/><path class="cls-10" d="M626.55,1039.17c-4.12-4.32-5.26-7-3.5-10.43,0,0-12.3,4.73-.16,13.12,4.35,3,3.62,6.07,3.62,6.18C627.2,1047.34,630.66,1043.48,626.55,1039.17Z"/><text class="cls-12" transform="translate(635.82 1047.23)">N<tspan class="cls-13" x="12.03" y="0">O</tspan><tspan class="cls-14" x="24.06" y="0">D</tspan><tspan class="cls-15" x="34.95" y="0">E</tspan></text></g></g></svg>