<svg xmlns="http://www.w3.org/2000/svg" viewBox="0 0 963 843.91"><defs><style>.cls-1{isolation:isolate;}.cls-2,.cls-34{fill:#efeeed;}.cls-2{mix-blend-mode:multiply;}.cls-3{font-size:32px;}.cls-15,.cls-24,.cls-3{fill:#020202;}.cls-15,.cls-24,.cls-3,.cls-37{font-family:MavenProMedium, Maven Pro;}.cls-4{letter-spacing:-0.01em;}.cls-5{letter-spacing:-0.01em;}.cls-6{letter-spacing:-0.02em;}.cls-7{letter-spacing:-0.02em;}.cls-8{letter-spacing:-0.02em;}.cls-9{letter-spacing:-0.02em;}.cls-10{letter-spacing:-0.02em;}.cls-11{letter-spacing:-0.01em;}.cls-12{letter-spacing:-0.01em;}.cls-13{letter-spacing:0em;}.cls-14{letter-spacing:-0.03em;}.cls-15{font-size:36px;}.cls-16{letter-spacing:-0.06em;}.cls-17{letter-spacing:-0.01em;}.cls-18{letter-spacing:-0.03em;}.cls-19{letter-spacing:-0.02em;}.cls-20{letter-spacing:-0.02em;}.cls-21{letter-spacing:-0.03em;}.cls-22{fill:#fff;}.cls-23{fill:#777;}.cls-24{font-size:33.85px;}.cls-25{letter-spacing:-0.02em;}.cls-26{letter-spacing:-0.02em;}.cls-27{letter-spacing:-0.03em;}.cls-28{letter-spacing:-0.02em;}.cls-29{letter-spacing:0em;}.cls-30{letter-spacing:-0.01em;}.cls-31{letter-spacing:-0.01em;}.cls-32{letter-spacing:-0.02em;}.cls-33{fill:#e5282a;}.cls-35{fill:#e52529;}.cls-36,.cls-37{fill:#1d1d1b;}.cls-37{font-size:19.39px;}.cls-38{letter-spacing:0em;}.cls-39{letter-spacing:-0.01em;}.cls-40{letter-spacing:-0.01em;}</style></defs><g class="cls-1"><g id="Capa_1" data-name="Capa 1"><rect class="cls-2" x="349.19" y="281.21" width="257.67" height="147.95" rx="9.41"/><text class="cls-3" transform="translate(406.28 346.16)"><tspan class="cls-4">C</tspan><tspan class="cls-5" x="19.73" y="0">o</tspan><tspan class="cls-6" x="37.45" y="0">n</tspan><tspan class="cls-5" x="55.41" y="0">t</tspan><tspan class="cls-7" x="66.94" y="0">i</tspan><tspan class="cls-8" x="75.59" y="0">n</tspan><tspan class="cls-9" x="93.73" y="0">o</tspan><tspan class="cls-10" x="111.39" y="0">u</tspan><tspan x="129.66" y="0">s</tspan><tspan class="cls-11" x="10.19" y="38">L</tspan><tspan class="cls-9" x="26.75" y="38">e</tspan><tspan class="cls-12" x="44.02" y="38">a</tspan><tspan class="cls-13" x="60.7" y="38">r</tspan><tspan class="cls-14" x="71.61" y="38">n</tspan><tspan class="cls-7" x="89.38" y="38">in</tspan><tspan x="116.2" y="38">g</tspan></text><text class="cls-15" transform="translate(41.32 325.91)"><tspan class="cls-16">T</tspan><tspan class="cls-17" x="18.11" y="0">r</tspan><tspan class="cls-7" x="30.09" y="0">ai</tspan><tspan x="58.43" y="0">n</tspan><tspan x="28.1" y="38">&amp;</tspan><tspan x="-18.89" y="76">U</tspan><tspan class="cls-7" x="7.02" y="76">p</tspan><tspan class="cls-9" x="26.92" y="76">d</tspan><tspan class="cls-4" x="46.59" y="76">a</tspan><tspan class="cls-12" x="65.4" y="76">t</tspan><tspan x="78.41" y="76">e</tspan></text><text class="cls-15" transform="translate(801.62 365.91)"><tspan class="cls-5">E</tspan><tspan class="cls-18" x="20.39" y="0">v</tspan><tspan class="cls-19" x="38.81" y="0">a</tspan><tspan class="cls-20" x="57.2" y="0">l</tspan><tspan class="cls-21" x="66.88" y="0">u</tspan><tspan class="cls-4" x="87.15" y="0">a</tspan><tspan class="cls-12" x="105.96" y="0">t</tspan><tspan x="118.97" y="0">e</tspan></text><rect class="cls-2" x="358.26" y="25.06" width="240.9" height="150.64" rx="6.63"/><path class="cls-22" d="M478.71,118.73a3.61,3.61,0,0,1-1.77-.47l-52.27-12.6a3.52,3.52,0,0,1-1.77-3.06V69.49a3.52,3.52,0,0,1,1.77-3.06l52.27-11.32a3.55,3.55,0,0,1,3.54,0l52.28,11.32a3.54,3.54,0,0,1,1.77,3.06V102.6a3.54,3.54,0,0,1-1.77,3.06l-52.28,12.6A3.61,3.61,0,0,1,478.71,118.73Z"/><path class="cls-23" d="M478.71,121.1c-.62,0-54.83-12.82-54.83-12.82a3.58,3.58,0,0,1-1.8-3.11V66.86a3.55,3.55,0,0,1,1.8-3.1s54.21-11.61,54.83-11.61,54.84,11.61,54.84,11.61a3.57,3.57,0,0,1,1.8,3.1v38.31a3.6,3.6,0,0,1-1.8,3.11S479.33,121.1,478.71,121.1Zm-49.45-18,49.45,10.26,49.45-10.26V68.94L478.71,58.2,429.26,68.94Z"/><path class="cls-23" d="M478.71,83.56a3.56,3.56,0,0,1-1.79-.48L423.87,71.94a3.59,3.59,0,0,1,3.59-6.22l51.25,10.11L530,65.72a3.59,3.59,0,0,1,3.59,6.22l-53,11.14A3.62,3.62,0,0,1,478.71,83.56Z"/><path class="cls-23" d="M478.71,118.49a3.59,3.59,0,0,1-3.59-3.59V81.09a3.59,3.59,0,0,1,7.18,0V114.9A3.58,3.58,0,0,1,478.71,118.49Z"/><text class="cls-24" transform="translate(393.23 153.55)">A<tspan class="cls-25" x="22.46" y="0">p</tspan><tspan class="cls-26" x="41.01" y="0">p</tspan><tspan class="cls-27" x="59.52" y="0">l</tspan><tspan class="cls-28" x="68.38" y="0">i</tspan><tspan class="cls-29" x="77.28" y="0">c</tspan><tspan class="cls-30" x="93.31" y="0">a</tspan><tspan class="cls-31" x="111" y="0">t</tspan><tspan class="cls-32" x="123.2" y="0">i</tspan><tspan class="cls-31" x="132.42" y="0">o</tspan><tspan x="151.17" y="0">n</tspan></text><path class="cls-23" d="M680.41,662.08l55-55a5,5,0,0,0-7.09-7.09l-55,55a5,5,0,1,0,7.09,7.09Z"/><path class="cls-23" d="M706.73,661.75a5,5,0,0,1-3.16,1.46l-28.21,2.21A5,5,0,0,1,670,660l2.2-28.21a5,5,0,0,1,10,.77L680.43,655l22.37-1.75a5,5,0,0,1,3.93,8.54Z"/><path class="cls-23" d="M657.75,86.49h74.13a5,5,0,1,1,0,10H657.75a5,5,0,0,1,0-10Z"/><path class="cls-23" d="M726.87,91.51V603.65a5,5,0,0,0,10,0V91.51a5,5,0,1,0-10,0Z"/><path class="cls-23" d="M277,662.08l-55-55a5,5,0,0,1,7.09-7.09l55,55a5,5,0,1,1-7.09,7.09Z"/><path class="cls-23" d="M250.69,661.75a5,5,0,0,0,3.16,1.46l28.21,2.21a5,5,0,0,0,5.39-5.39l-2.21-28.21a5,5,0,0,0-10,.77L277,655l-22.36-1.75a5,5,0,0,0-3.94,8.54Z"/><path class="cls-23" d="M299.67,86.49H225.54a5,5,0,0,0,0,10h74.13a5,5,0,1,0,0-10Z"/><path class="cls-23" d="M230.55,91.51V603.65a5,5,0,0,1-10,0V91.51a5,5,0,1,1,10,0Z"/><path class="cls-33" d="M731.67,365.5A10.32,10.32,0,1,1,742,355.18,10.33,10.33,0,0,1,731.67,365.5Z"/><path class="cls-34" d="M731.68,348.41a6.77,6.77,0,1,1-6.77,6.77,6.77,6.77,0,0,1,6.77-6.77m0-7.09a13.87,13.87,0,1,0,13.86,13.86,13.86,13.86,0,0,0-13.86-13.86Z"/><path class="cls-35" d="M796,353.74H730.28a1.45,1.45,0,0,0,0,2.89H796a1.45,1.45,0,0,0,0-2.89Z"/><path class="cls-33" d="M223.73,365.5A10.32,10.32,0,1,1,234,355.18,10.33,10.33,0,0,1,223.73,365.5Z"/><path class="cls-34" d="M223.73,348.41a6.77,6.77,0,1,1-6.77,6.77,6.77,6.77,0,0,1,6.77-6.77m0-7.09a13.87,13.87,0,1,0,13.86,13.86,13.86,13.86,0,0,0-13.86-13.86Z"/><path class="cls-35" d="M159.36,356.63h65.76a1.45,1.45,0,1,0,0-2.89H159.36a1.45,1.45,0,0,0,0,2.89Z"/><path class="cls-22" d="M586.55,563.84c-30.51,0-62.08,6.92-62.08,18.5V728.83a6.89,6.89,0,0,0,1.33,4,11.42,11.42,0,0,0,1.51,1.76c7.89,7.62,31.7,12.75,59.24,12.75s51.38-5.13,59.26-12.74a11.48,11.48,0,0,0,1.52-1.77,6.89,6.89,0,0,0,1.33-4V582.34C648.66,570.76,617.08,563.84,586.55,563.84Z"/><path class="cls-33" d="M629.11,567.17c-11.53-3.12-27-4.92-42.56-4.92s-31,1.8-42.53,4.92c-13.49,3.66-20.62,8.86-20.62,15v49.09a8.4,8.4,0,0,0,1.61,4.88,12.39,12.39,0,0,0,1.71,2c8.09,7.82,32.14,13.08,59.83,13.08s51.77-5.26,59.87-13.08a13.49,13.49,0,0,0,1.71-2,8.46,8.46,0,0,0,1.6-4.88V582.2C649.73,576,642.6,570.83,629.11,567.17Zm14.37,65.74a7.82,7.82,0,0,1-1,1.14c-6.91,6.68-30.43,11.51-56,11.51s-49-4.84-55.92-11.51a7.82,7.82,0,0,1-1-1.14,2.89,2.89,0,0,1-.58-1.62V591a31.11,31.11,0,0,0,4.22,2.4l.07,0c.76.37,1.57.73,2.41,1.08l.21.08c.82.34,1.67.66,2.56,1l.32.11c.75.26,1.53.51,2.32.76l.73.23c.75.22,1.53.44,2.32.65l1.06.29c.76.2,1.54.39,2.33.57l1.36.31,2.32.49,1.55.3,1.86.34,2.14.35,1.75.27,2.29.32,2,.25,1.8.2,2.69.28,1.37.12c1.08.1,2.18.18,3.28.26l1.18.07c1.19.08,2.38.14,3.59.2l.9,0c1.3,0,2.62.1,3.95.13h.53c1.45,0,2.91,0,4.38,0s2.93,0,4.38,0h.53c1.33,0,2.65-.08,3.95-.13l.91,0c1.21-.06,2.4-.12,3.59-.2l1.18-.07c1.1-.08,2.19-.16,3.27-.26l1.4-.13,2.61-.26,1.88-.22c.66-.07,1.31-.16,2-.24s1.56-.21,2.33-.33l1.72-.26c.73-.11,1.45-.23,2.17-.36s1.23-.22,1.84-.33l1.56-.3,2.32-.49,1.35-.31,2.35-.58,1-.27q1.25-.33,2.43-.69l.59-.19c.84-.25,1.65-.52,2.43-.79l.25-.09c.91-.32,1.78-.65,2.62-1l.14,0c.87-.36,1.69-.73,2.47-1.1h0a32,32,0,0,0,4.24-2.41v40.3A2.89,2.89,0,0,1,643.48,632.91Zm-56.93-65c35.63,0,57.51,8.31,57.51,14.27a3,3,0,0,1-.59,1.65c-2.49,3.68-11.4,7.44-24.56,9.88l-.11,0-1.49.26-1.56.26h0a183.24,183.24,0,0,1-24.26,2.14h-.82l-1.56,0-2.55,0-2.55,0-1.55,0h-.83a184.06,184.06,0,0,1-24.2-2.13l-.11,0-1.46-.24-1.59-.29h0c-13.15-2.45-22.06-6.2-24.57-9.88a3.11,3.11,0,0,1-.59-1.66C529.07,576.24,550.94,567.93,586.55,567.93Z"/><path class="cls-33" d="M647.07,628.44a2.62,2.62,0,0,0-2.62,2.62,3.19,3.19,0,0,1-.62,1.76c-2.26,3.35-9.46,6.62-19.75,9a187.13,187.13,0,0,1-75,0c-10.28-2.36-17.48-5.63-19.73-9a3.18,3.18,0,0,1-.63-1.77,2.63,2.63,0,0,0-5.25,0v98.07a8.26,8.26,0,0,0,1.58,4.78,12.73,12.73,0,0,0,1.68,1.94c4,3.9,11.92,7.2,22.79,9.54a196.51,196.51,0,0,0,74.16,0c10.87-2.34,18.76-5.63,22.79-9.52a12.71,12.71,0,0,0,1.7-2,8.21,8.21,0,0,0,1.57-4.76V631.06A2.62,2.62,0,0,0,647.07,628.44Zm-2.62,100.69a3.09,3.09,0,0,1-.62,1.75,7.87,7.87,0,0,1-1,1.18h0c-3.34,3.24-10.72,6.17-20.77,8.28a191.14,191.14,0,0,1-70.94,0c-10-2.11-17.42-5.05-20.77-8.29h0a8.14,8.14,0,0,1-1-1.16,3.06,3.06,0,0,1-.63-1.76V639.45c4.31,3.11,11.19,5.77,20.18,7.75a196.52,196.52,0,0,0,75.4,0c9-2,15.88-4.63,20.19-7.75Z"/><path class="cls-36" d="M544.52,626.07V612.39q1.35.33,2.7.63c1.3,2.2,2.61,4.38,3.91,6.55q2-2.46,3.93-5c.91.16,1.82.32,2.73.46v13.68l-2.46-.41V618.21q-2.1,2.65-4.2,5.26c-1.39-2.3-2.79-4.61-4.18-7v10.12Z"/><path class="cls-36" d="M561.24,629.27V615.59q4.54.66,9.11,1.08v2.22q-3.33-.32-6.65-.74v3.46q2.88.38,5.77.66v2.32q-2.9-.29-5.77-.66v3.47c2.21.29,4.43.53,6.65.74v2.21Q565.79,629.93,561.24,629.27Z"/><path class="cls-36" d="M573.18,630.59V616.91l2.75.2c1.32,2,2.65,4,4,5.92l4-5.6,2.75,0v13.68l-2.48,0V621c-1.42,2-2.83,4-4.25,5.92q-2.13-3.1-4.25-6.27v10.12Z"/><path class="cls-36" d="M589.65,624.28a10.14,10.14,0,0,1,.39-2.95,6.07,6.07,0,0,1,1-2,5.39,5.39,0,0,1,1.5-1.27,6.32,6.32,0,0,1,1.71-.69,10,10,0,0,1,1.81-.24,9.58,9.58,0,0,1,1.8.07,5.77,5.77,0,0,1,1.71.52,4.72,4.72,0,0,1,1.51,1.13,5.28,5.28,0,0,1,1,1.94,9.74,9.74,0,0,1,.39,2.92,10.5,10.5,0,0,1-.39,3,6.2,6.2,0,0,1-1,2.11,5.67,5.67,0,0,1-1.51,1.33,6.33,6.33,0,0,1-1.71.75,9.19,9.19,0,0,1-1.8.25,9.62,9.62,0,0,1-1.81-.08,5.87,5.87,0,0,1-1.71-.58,5,5,0,0,1-1.5-1.19,5.72,5.72,0,0,1-1-2A10.14,10.14,0,0,1,589.65,624.28Zm2.48-.06a8.67,8.67,0,0,0,.31,2.54,2.75,2.75,0,0,0,.9,1.45,3.06,3.06,0,0,0,1.23.6,5.33,5.33,0,0,0,1.5.11,9,9,0,0,0,1.22-.15,3.78,3.78,0,0,0,1.06-.45,2.71,2.71,0,0,0,.88-.87,5.12,5.12,0,0,0,.57-1.47,8.93,8.93,0,0,0,.23-2.14,8.8,8.8,0,0,0-.31-2.51,2.64,2.64,0,0,0-.92-1.42,3.09,3.09,0,0,0-1.23-.56,5.75,5.75,0,0,0-1.5-.09,6.53,6.53,0,0,0-1.2.15,3.33,3.33,0,0,0-1.06.43,2.48,2.48,0,0,0-.89.84,4.73,4.73,0,0,0-.57,1.41A8.88,8.88,0,0,0,592.13,624.22Z"/><path class="cls-36" d="M605.47,630.24V616.56c1.75-.18,3.51-.38,5.26-.6a5.18,5.18,0,0,1,3.74.62,3.48,3.48,0,0,1,1.33,3.06,4.63,4.63,0,0,1-3,4.49c1.2,1.57,2.39,3.14,3.59,4.69l-3,.45-3.27-4.38-2.21.26V630Zm2.47-7.34,2.73-.33a4.08,4.08,0,0,0,2-.71,2.13,2.13,0,0,0,.71-1.79c0-.84-.24-1.38-.71-1.6a3.49,3.49,0,0,0-2-.18l-2.73.33Z"/><path class="cls-36" d="M617.06,615c1-.16,2-.33,3-.51q1.8,2.46,3.6,4.87,1.78-3.14,3.57-6.32c1-.22,2-.44,2.94-.68q-2.64,4.54-5.29,9v5.87l-2.44.49v-5.87Q619.73,618.51,617.06,615Z"/><path class="cls-36" d="M565.36,698.1V684.42c1.55.37,3.11.7,4.67,1a7.15,7.15,0,0,1,6.46,7.82c0,2.23-.55,3.87-1.64,4.89s-2.71,1.37-4.82,1C568.47,698.8,566.91,698.47,565.36,698.1Zm2.43-1.67c.75.16,1.49.31,2.24.45a3.33,3.33,0,0,0,3.06-.56,4.82,4.82,0,0,0,.93-3.4,6.09,6.09,0,0,0-.93-3.7,4.8,4.8,0,0,0-3.06-1.59c-.75-.14-1.49-.29-2.24-.45Z"/><path class="cls-36" d="M579.52,700.36V686.68c.83.07,1.65.12,2.48.17v13.68C581.17,700.48,580.35,700.43,579.52,700.36Z"/><path class="cls-36" d="M585,690.81a3.41,3.41,0,0,1,1.4-3,6.21,6.21,0,0,1,3.51-1.05,8.18,8.18,0,0,1,3.7.77V690a6.23,6.23,0,0,0-3.41-.87,4.62,4.62,0,0,0-1.93.44,1.31,1.31,0,0,0-.79,1.24,1.18,1.18,0,0,0,.72,1.06,7.42,7.42,0,0,0,1.75.61A20.39,20.39,0,0,1,592,693a3.59,3.59,0,0,1,1.75,1.28,4,4,0,0,1,.72,2.49,3.5,3.5,0,0,1-1.37,2.79,5.34,5.34,0,0,1-3.37,1.2,8.07,8.07,0,0,1-4.55-1.12v-2.49a6.17,6.17,0,0,0,4,1.3c1.9,0,2.85-.63,2.85-1.67a1.44,1.44,0,0,0-.52-1.16,3,3,0,0,0-1.3-.64c-.52-.14-1.08-.3-1.68-.49a16.34,16.34,0,0,1-1.68-.66,3.11,3.11,0,0,1-1.31-1.14A3.37,3.37,0,0,1,585,690.81Z"/><path class="cls-36" d="M597.23,700.1V686.42c.82-.09,1.64-.2,2.46-.31v5.79c1.73-2.17,3.44-4.38,5.15-6.65,1.1-.21,2.19-.44,3.28-.7q-2.73,3.65-5.48,7.12,3,3.32,6,6.43c-1,.24-2,.47-3,.67-1.52-1.66-3-3.36-4.57-5.11l-1.38,1.7v4.43C598.87,699.91,598.05,700,597.23,700.1Z"/><path class="cls-33" d="M547.53,774.76s-4.07,6.16,3.93,7.42c.78.1,6.58.7,8.07,2.6,0,0-.13-3.28-4.84-5.21S548.05,777.16,547.53,774.76Z"/><path class="cls-33" d="M551.5,761.48s-11.39,6.94-.66,13.85c2.07,1.34,9.55,5.09,9.33,8.53,0,0,4.54-6.73-2.09-10.94C551.27,768.59,549.56,764,551.5,761.48Z"/><path class="cls-33" d="M563.26,768.27c-4.88-5.11-6.24-8.27-4.15-12.36,0,0-14.57,5.61-.19,15.55,5.15,3.57,4.29,7.2,4.3,7.33C564,778,568.13,773.39,563.26,768.27Z"/><text class="cls-37" transform="translate(574.24 777.83)"><tspan class="cls-38">N</tspan><tspan class="cls-39" x="14.25" y="0">O</tspan><tspan class="cls-40" x="28.51" y="0">D</tspan><tspan x="41.41" y="0">E</tspan></text><path class="cls-22" d="M372.08,563.84c-30.52,0-62.08,6.92-62.08,18.5V728.83a6.89,6.89,0,0,0,1.33,4,11.42,11.42,0,0,0,1.51,1.76c7.89,7.62,31.7,12.75,59.24,12.75s51.38-5.13,59.26-12.74a11.48,11.48,0,0,0,1.52-1.77,6.89,6.89,0,0,0,1.33-4V582.34C434.19,570.76,402.61,563.84,372.08,563.84Z"/><path class="cls-33" d="M414.63,567.17c-11.52-3.12-27-4.92-42.55-4.92s-31,1.8-42.54,4.92c-13.48,3.66-20.61,8.86-20.61,15v49.09a8.46,8.46,0,0,0,1.6,4.88,13,13,0,0,0,1.72,2c8.09,7.82,32.14,13.08,59.83,13.08s51.77-5.26,59.86-13.08a12.39,12.39,0,0,0,1.71-2,8.4,8.4,0,0,0,1.61-4.88V582.2C435.26,576,428.13,570.83,414.63,567.17ZM429,632.91a7.82,7.82,0,0,1-1,1.14c-6.91,6.68-30.44,11.51-55.95,11.51s-49-4.84-55.92-11.51a7.25,7.25,0,0,1-1-1.14,2.89,2.89,0,0,1-.58-1.62V591a31.11,31.11,0,0,0,4.22,2.4l.07,0c.76.37,1.57.73,2.41,1.08l.21.08c.82.34,1.67.66,2.56,1l.32.11c.75.26,1.53.51,2.32.76l.73.23c.75.22,1.53.44,2.32.65l1.06.29c.76.2,1.54.39,2.33.57l1.35.31,2.33.49,1.55.3,1.86.34,2.13.35,1.76.27,2.29.32,2,.25,1.8.2,2.69.28,1.37.12c1.08.1,2.18.18,3.28.26l1.18.07c1.19.08,2.38.14,3.59.2l.89,0c1.31,0,2.63.1,4,.13h.53c1.45,0,2.91,0,4.38,0s2.93,0,4.37,0H377c1.33,0,2.65-.08,3.95-.13l.91,0c1.2-.06,2.4-.12,3.59-.2l1.18-.07c1.1-.08,2.19-.16,3.27-.26l1.4-.13,2.61-.26,1.88-.22c.66-.07,1.31-.16,2-.24s1.56-.21,2.33-.33l1.72-.26q1.09-.16,2.16-.36c.62-.1,1.24-.22,1.85-.33l1.56-.3,2.32-.49,1.35-.31,2.35-.58,1-.27q1.25-.33,2.43-.69l.59-.19c.83-.25,1.64-.52,2.43-.79l.25-.09c.91-.32,1.78-.65,2.62-1l.14,0c.87-.36,1.69-.73,2.47-1.1h0a31.55,31.55,0,0,0,4.25-2.41v40.3A2.89,2.89,0,0,1,429,632.91Zm-56.93-65c35.63,0,57.51,8.31,57.51,14.27a3,3,0,0,1-.59,1.65c-2.5,3.68-11.4,7.44-24.56,9.88l-.11,0-1.5.26-1.55.26h0A183.24,183.24,0,0,1,377,596.42h-.82l-1.56,0-2.55,0-2.55,0-1.56,0h-.82a184.06,184.06,0,0,1-24.2-2.13l-.11,0-1.47-.24-1.58-.29h0c-13.15-2.45-22.06-6.2-24.57-9.88a3.11,3.11,0,0,1-.59-1.66C314.6,576.24,336.47,567.93,372.08,567.93Z"/><path class="cls-33" d="M432.6,628.44a2.62,2.62,0,0,0-2.62,2.62,3.19,3.19,0,0,1-.62,1.76c-2.26,3.35-9.46,6.62-19.75,9a187.13,187.13,0,0,1-75,0c-10.28-2.36-17.48-5.63-19.73-9a3.18,3.18,0,0,1-.63-1.77,2.63,2.63,0,0,0-5.25,0v98.07a8.26,8.26,0,0,0,1.58,4.78,13.26,13.26,0,0,0,1.67,1.94c4.05,3.9,11.93,7.2,22.8,9.54a196.51,196.51,0,0,0,74.16,0c10.87-2.34,18.75-5.63,22.79-9.52a13.27,13.27,0,0,0,1.7-2,8.21,8.21,0,0,0,1.57-4.76V631.06A2.62,2.62,0,0,0,432.6,628.44ZM430,729.13a3.09,3.09,0,0,1-.62,1.75,7.87,7.87,0,0,1-1,1.18h0c-3.35,3.24-10.72,6.17-20.77,8.28a191.14,191.14,0,0,1-70.94,0c-10.05-2.11-17.42-5.05-20.77-8.29h0a7.55,7.55,0,0,1-1-1.16,3.06,3.06,0,0,1-.63-1.76V639.45c4.31,3.11,11.19,5.77,20.18,7.75a196.52,196.52,0,0,0,75.4,0c9-2,15.88-4.63,20.19-7.75Z"/><path class="cls-36" d="M330.05,626.07V612.39q1.33.33,2.7.63,2,3.3,3.91,6.55,2-2.46,3.93-5c.91.16,1.82.32,2.73.46v13.68l-2.46-.41V618.21q-2.1,2.65-4.2,5.26c-1.39-2.3-2.79-4.61-4.18-7v10.12Z"/><path class="cls-36" d="M346.77,629.27V615.59q4.55.66,9.11,1.08v2.22q-3.33-.32-6.65-.74v3.46q2.88.38,5.77.66v2.32q-2.89-.29-5.77-.66v3.47c2.21.29,4.43.53,6.65.74v2.21Q351.32,629.93,346.77,629.27Z"/><path class="cls-36" d="M358.71,630.59V616.91l2.75.2c1.32,2,2.65,4,4,5.92l4-5.6,2.75,0v13.68l-2.48,0V621c-1.42,2-2.84,4-4.25,5.92q-2.13-3.1-4.25-6.27v10.12C360.36,630.71,359.53,630.66,358.71,630.59Z"/><path class="cls-36" d="M375.18,624.28a10.14,10.14,0,0,1,.39-2.95,6.07,6.07,0,0,1,1-2,5.39,5.39,0,0,1,1.5-1.27,6.32,6.32,0,0,1,1.71-.69,10,10,0,0,1,1.81-.24,9.58,9.58,0,0,1,1.8.07,5.77,5.77,0,0,1,1.71.52,4.72,4.72,0,0,1,1.51,1.13,5.28,5.28,0,0,1,1,1.94,9.74,9.74,0,0,1,.39,2.92,10.5,10.5,0,0,1-.39,3,6.2,6.2,0,0,1-1,2.11,5.67,5.67,0,0,1-1.51,1.33,6.33,6.33,0,0,1-1.71.75,9.19,9.19,0,0,1-1.8.25,9.62,9.62,0,0,1-1.81-.08,5.77,5.77,0,0,1-1.71-.58,5,5,0,0,1-1.5-1.19,5.72,5.72,0,0,1-1-2A10.14,10.14,0,0,1,375.18,624.28Zm2.48-.06a9.06,9.06,0,0,0,.3,2.54,2.82,2.82,0,0,0,.91,1.45,3.06,3.06,0,0,0,1.23.6,5.33,5.33,0,0,0,1.5.11,9.23,9.23,0,0,0,1.22-.15,3.62,3.62,0,0,0,1.05-.45,2.65,2.65,0,0,0,.89-.87,5.12,5.12,0,0,0,.57-1.47,8.93,8.93,0,0,0,.23-2.14,8.8,8.8,0,0,0-.31-2.51,2.64,2.64,0,0,0-.92-1.42,3.09,3.09,0,0,0-1.23-.56,5.75,5.75,0,0,0-1.5-.09,6.53,6.53,0,0,0-1.2.15,3.33,3.33,0,0,0-1.06.43,2.48,2.48,0,0,0-.89.84,4.48,4.48,0,0,0-.57,1.41A8.88,8.88,0,0,0,377.66,624.22Z"/><path class="cls-36" d="M391,630.24V616.56c1.75-.18,3.51-.38,5.26-.6a5.19,5.19,0,0,1,3.74.62,3.48,3.48,0,0,1,1.33,3.06,4.63,4.63,0,0,1-3,4.49c1.2,1.57,2.39,3.14,3.59,4.69l-3,.45q-1.63-2.17-3.27-4.38l-2.21.26V630Zm2.47-7.34,2.72-.33a4.13,4.13,0,0,0,2-.71,2.13,2.13,0,0,0,.71-1.79c0-.84-.24-1.38-.71-1.6a3.53,3.53,0,0,0-2-.18c-.9.12-1.81.23-2.72.33Z"/><path class="cls-36" d="M402.59,615c1-.16,2-.33,3-.51q1.8,2.46,3.6,4.87,1.78-3.14,3.57-6.32c1-.22,2-.44,2.94-.68q-2.64,4.54-5.29,9v5.87l-2.44.49v-5.87Q405.26,618.51,402.59,615Z"/><path class="cls-36" d="M350.88,698.1V684.42q2.34.55,4.68,1a7.91,7.91,0,0,1,4.81,2.51,8,8,0,0,1,1.64,5.31c0,2.23-.54,3.87-1.64,4.89s-2.7,1.37-4.81,1Q353.22,698.66,350.88,698.1Zm2.44-1.67c.74.16,1.49.31,2.24.45a3.31,3.31,0,0,0,3.05-.56,4.77,4.77,0,0,0,.94-3.4,6,6,0,0,0-.94-3.7,4.74,4.74,0,0,0-3.05-1.59c-.75-.14-1.5-.29-2.24-.45Z"/><path class="cls-36" d="M365.05,700.36V686.68c.82.07,1.65.12,2.48.17v13.68C366.7,700.48,365.87,700.43,365.05,700.36Z"/><path class="cls-36" d="M370.48,690.81a3.41,3.41,0,0,1,1.4-3,6.16,6.16,0,0,1,3.51-1.05,8.18,8.18,0,0,1,3.7.77V690a6.23,6.23,0,0,0-3.41-.87,4.62,4.62,0,0,0-1.93.44,1.31,1.31,0,0,0-.79,1.24,1.18,1.18,0,0,0,.72,1.06,7.5,7.5,0,0,0,1.74.61,19.84,19.84,0,0,1,2.06.58,3.59,3.59,0,0,1,1.75,1.28,4,4,0,0,1,.72,2.49,3.48,3.48,0,0,1-1.38,2.79,5.31,5.31,0,0,1-3.36,1.2,8,8,0,0,1-4.55-1.12v-2.49a6.17,6.17,0,0,0,4,1.3c1.9,0,2.84-.63,2.85-1.67a1.51,1.51,0,0,0-.52-1.16,3,3,0,0,0-1.3-.64c-.52-.14-1.08-.3-1.68-.49a17.5,17.5,0,0,1-1.69-.66,3.15,3.15,0,0,1-1.3-1.14A3.37,3.37,0,0,1,370.48,690.81Z"/><path class="cls-36" d="M382.76,700.1V686.42c.82-.09,1.64-.2,2.46-.31v5.79c1.72-2.17,3.44-4.38,5.15-6.65,1.1-.21,2.19-.44,3.27-.7q-2.72,3.65-5.47,7.12,3,3.32,6,6.43c-1,.24-2,.47-3,.67q-2.28-2.49-4.58-5.11c-.45.57-.91,1.14-1.37,1.7v4.43C384.4,699.91,383.58,700,382.76,700.1Z"/><path class="cls-33" d="M333.06,774.76s-4.07,6.16,3.93,7.42c.78.1,6.58.7,8.07,2.6,0,0-.13-3.28-4.84-5.21S333.58,777.16,333.06,774.76Z"/><path class="cls-33" d="M337,761.48s-11.38,6.94-.65,13.85c2.07,1.34,9.55,5.09,9.33,8.53,0,0,4.54-6.73-2.09-10.94C336.8,768.59,335.09,764,337,761.48Z"/><path class="cls-33" d="M348.79,768.27c-4.88-5.11-6.24-8.27-4.15-12.36,0,0-14.57,5.61-.19,15.55,5.15,3.57,4.29,7.2,4.29,7.33C349.56,778,353.66,773.39,348.79,768.27Z"/><text class="cls-37" transform="translate(359.77 777.83)"><tspan class="cls-38">N</tspan><tspan class="cls-39" x="14.25" y="0">O</tspan><tspan class="cls-40" x="28.51" y="0">D</tspan><tspan x="41.41" y="0">E</tspan></text><path class="cls-22" d="M479.32,597.91c-30.52,0-62.08,6.91-62.08,18.49V762.9a6.87,6.87,0,0,0,1.33,4,11.36,11.36,0,0,0,1.5,1.75c7.9,7.63,31.71,12.75,59.25,12.75s51.37-5.12,59.25-12.74a11.14,11.14,0,0,0,1.53-1.77,6.87,6.87,0,0,0,1.32-4V616.4C541.42,604.82,509.84,597.91,479.32,597.91Z"/><path class="cls-33" d="M521.87,601.24c-11.53-3.13-27-4.92-42.55-4.92s-31,1.79-42.54,4.92c-13.49,3.66-20.62,8.85-20.62,15v49.08a8.38,8.38,0,0,0,1.61,4.88,12.39,12.39,0,0,0,1.71,2c8.09,7.82,32.14,13.08,59.84,13.08s51.76-5.26,59.86-13.08a12.83,12.83,0,0,0,1.71-2,8.46,8.46,0,0,0,1.61-4.89V616.27C542.5,610.09,535.36,604.9,521.87,601.24ZM536.24,667a7.17,7.17,0,0,1-1,1.13c-6.91,6.68-30.43,11.52-55.94,11.52s-49-4.85-55.92-11.51a7.33,7.33,0,0,1-1-1.15,2.77,2.77,0,0,1-.58-1.62v-40.3a32.72,32.72,0,0,0,4.21,2.41l.07,0c.77.37,1.57.72,2.42,1.07l.21.09c.82.33,1.67.66,2.56,1l.32.11c.75.26,1.52.52,2.32.76l.73.23c.75.23,1.52.44,2.31.66l1.07.28c.75.2,1.53.39,2.32.57l1.36.31,2.32.5,1.55.29,1.86.34,2.14.36,1.75.26,2.29.32,2,.25,1.8.21,2.7.27,1.37.13,3.27.25,1.18.08c1.19.07,2.39.14,3.6.19l.89,0c1.31.06,2.63.1,4,.13h.53c1.44,0,2.9.05,4.38.05s2.92,0,4.37-.05h.54c1.33,0,2.64-.07,3.95-.13l.9,0c1.21,0,2.41-.12,3.59-.19l1.18-.08,3.27-.25,1.4-.13c.88-.08,1.75-.17,2.62-.27l1.88-.21,2-.25,2.33-.32L509,634l2.17-.36,1.84-.34q.79-.14,1.56-.3c.79-.15,1.56-.32,2.32-.49l1.35-.31c.8-.18,1.59-.37,2.35-.57l1-.28c.83-.22,1.65-.45,2.43-.69l.6-.18c.83-.26,1.64-.53,2.42-.8l.25-.08c.91-.33,1.78-.66,2.62-1l.15-.06c.86-.36,1.69-.72,2.47-1.1h0a30.8,30.8,0,0,0,4.24-2.42v40.3A2.85,2.85,0,0,1,536.24,667Zm-56.92-65c35.62,0,57.5,8.32,57.5,14.28a3.05,3.05,0,0,1-.58,1.64c-2.5,3.68-11.41,7.44-24.56,9.89l-.12,0-1.49.26-1.56.26h0a184.86,184.86,0,0,1-24.26,2.13l-.82,0-1.55,0-2.55,0-2.55,0-1.56,0-.82,0a184.37,184.37,0,0,1-24.21-2.13h-.1l-1.47-.25-1.59-.28h0c-13.15-2.44-22.06-6.2-24.57-9.88a3,3,0,0,1-.59-1.65C421.84,610.31,443.7,602,479.32,602Z"/><path class="cls-33" d="M539.84,662.5a2.63,2.63,0,0,0-2.63,2.62,3.28,3.28,0,0,1-.61,1.77c-2.27,3.34-9.46,6.62-19.75,9a187.13,187.13,0,0,1-75,0c-10.29-2.35-17.48-5.62-19.74-9a3.27,3.27,0,0,1-.62-1.78,2.63,2.63,0,0,0-5.25,0v98.07a8.3,8.3,0,0,0,1.57,4.78,13.41,13.41,0,0,0,1.68,1.95c4,3.9,11.92,7.19,22.8,9.53a196.73,196.73,0,0,0,74.15,0c10.88-2.34,18.76-5.64,22.8-9.53a13.13,13.13,0,0,0,1.69-2,8.24,8.24,0,0,0,1.57-4.77V665.12A2.63,2.63,0,0,0,539.84,662.5Zm-2.63,100.69a3.09,3.09,0,0,1-.61,1.75,7.4,7.4,0,0,1-1,1.18v0c-3.35,3.23-10.73,6.17-20.77,8.27a191.19,191.19,0,0,1-70.95,0c-10-2.1-17.42-5-20.77-8.28v0a7.59,7.59,0,0,1-1-1.16,3.09,3.09,0,0,1-.62-1.76V673.52c4.3,3.11,11.18,5.76,20.17,7.75a197.05,197.05,0,0,0,75.4,0c9-2,15.89-4.64,20.19-7.76Z"/><path class="cls-36" d="M437.28,660.14V646.46l2.7.62q1.95,3.3,3.92,6.55,2-2.46,3.93-5l2.72.47v13.68l-2.45-.42V652.28l-4.2,5.25c-1.4-2.3-2.79-4.61-4.19-6.94V660.7Z"/><path class="cls-36" d="M454,663.34V649.66q4.54.65,9.12,1.08V653c-2.22-.21-4.44-.45-6.66-.74v3.46c1.93.25,3.85.47,5.78.66v2.32c-1.93-.19-3.85-.4-5.78-.65v3.46q3.33.43,6.66.74v2.21Q458.54,664,454,663.34Z"/><path class="cls-36" d="M466,664.66V651l2.74.19q2,3,4,5.92,2-2.77,4-5.6l2.76,0V665.2c-.83,0-1.66,0-2.48,0V655.06q-2.13,3-4.26,5.93l-4.25-6.27v10.11Z"/><path class="cls-36" d="M482.41,658.35a9.82,9.82,0,0,1,.4-3,6.07,6.07,0,0,1,1-2,5.12,5.12,0,0,1,1.5-1.27,6.39,6.39,0,0,1,1.71-.69,10,10,0,0,1,1.8-.24,9.65,9.65,0,0,1,1.81.07,5.69,5.69,0,0,1,1.71.53,4.61,4.61,0,0,1,1.5,1.12,5.28,5.28,0,0,1,1,1.94,9.46,9.46,0,0,1,.4,2.92,10.09,10.09,0,0,1-.4,3,6.1,6.1,0,0,1-1,2.11,5.78,5.78,0,0,1-1.5,1.33,6.29,6.29,0,0,1-1.71.75,9.19,9.19,0,0,1-1.81.25,8.78,8.78,0,0,1-1.8-.08,5.41,5.41,0,0,1-1.71-.58,4.74,4.74,0,0,1-1.5-1.19,5.72,5.72,0,0,1-1-2A9.72,9.72,0,0,1,482.41,658.35Zm2.48-.07a9,9,0,0,0,.31,2.54,2.85,2.85,0,0,0,.91,1.46,3.34,3.34,0,0,0,1.23.6,5.72,5.72,0,0,0,1.49.1,6.66,6.66,0,0,0,1.22-.15,3.55,3.55,0,0,0,1.06-.45,2.64,2.64,0,0,0,.89-.87,5.69,5.69,0,0,0,.57-1.46,9.12,9.12,0,0,0,.22-2.15,8.83,8.83,0,0,0-.3-2.51,2.73,2.73,0,0,0-.92-1.42,3.21,3.21,0,0,0-1.23-.56,6.36,6.36,0,0,0-1.51-.08,7.93,7.93,0,0,0-1.2.14,3.69,3.69,0,0,0-1.06.43,2.56,2.56,0,0,0-.89.84,4.86,4.86,0,0,0-.56,1.41A8.84,8.84,0,0,0,484.89,658.28Z"/><path class="cls-36" d="M498.23,664.3V650.62c1.76-.17,3.51-.37,5.27-.6a5.2,5.2,0,0,1,3.73.62,3.49,3.49,0,0,1,1.34,3.06,4.63,4.63,0,0,1-3,4.49l3.59,4.69c-1,.16-2,.31-3,.45L502.92,659l-2.22.26V664ZM500.7,657l2.73-.33a4,4,0,0,0,2-.71,2.11,2.11,0,0,0,.71-1.79c0-.84-.23-1.38-.71-1.6a3.57,3.57,0,0,0-2-.18q-1.37.18-2.73.33Z"/><path class="cls-36" d="M509.82,649.1l3-.52q1.8,2.46,3.6,4.87c1.19-2.09,2.38-4.2,3.57-6.31l2.93-.68c-1.75,3-3.52,6-5.28,9v5.87l-2.45.5V656Q512.51,652.56,509.82,649.1Z"/><path class="cls-36" d="M458.12,732.16V718.48c1.55.38,3.11.71,4.68,1a7.89,7.89,0,0,1,4.81,2.51,8,8,0,0,1,1.64,5.31q0,3.35-1.64,4.88c-1.09,1-2.7,1.37-4.81,1C461.23,732.87,459.67,732.54,458.12,732.16Zm2.44-1.66c.74.16,1.49.31,2.23.44a3.26,3.26,0,0,0,3.06-.56,4.8,4.8,0,0,0,.94-3.4,6.06,6.06,0,0,0-.94-3.69,4.75,4.75,0,0,0-3.06-1.6l-2.23-.44Z"/><path class="cls-36" d="M472.29,734.42V720.74c.82.07,1.65.13,2.47.17v13.68C473.94,734.55,473.11,734.49,472.29,734.42Z"/><path class="cls-36" d="M477.72,724.87a3.41,3.41,0,0,1,1.4-3,6.31,6.31,0,0,1,3.51-1,8.42,8.42,0,0,1,3.69.77V724a6.19,6.19,0,0,0-3.4-.86,4.47,4.47,0,0,0-1.93.43,1.31,1.31,0,0,0-.79,1.24,1.16,1.16,0,0,0,.72,1.06,7.48,7.48,0,0,0,1.74.62c.68.15,1.37.35,2.06.57a3.72,3.72,0,0,1,1.75,1.28,4,4,0,0,1,.72,2.49,3.51,3.51,0,0,1-1.38,2.8,5.44,5.44,0,0,1-3.37,1.2,8,8,0,0,1-4.54-1.13v-2.49a6.16,6.16,0,0,0,4,1.31c1.9,0,2.84-.64,2.84-1.68a1.48,1.48,0,0,0-.51-1.16,3.17,3.17,0,0,0-1.3-.64c-.53-.13-1.09-.29-1.69-.49s-1.15-.41-1.68-.65a3.23,3.23,0,0,1-1.3-1.14A3.42,3.42,0,0,1,477.72,724.87Z"/><path class="cls-36" d="M490,734.16V720.48c.83-.09,1.65-.19,2.47-.3V726c1.72-2.16,3.44-4.38,5.15-6.64,1.09-.22,2.18-.45,3.27-.7q-2.72,3.63-5.47,7.11,3,3.32,6,6.43c-1,.25-2,.47-3,.68q-2.28-2.51-4.57-5.11c-.46.57-.91,1.14-1.37,1.7v4.43C491.64,734,490.82,734.07,490,734.16Z"/><path class="cls-33" d="M440.3,808.82s-4.07,6.17,3.93,7.42c.78.1,6.57.7,8.07,2.6,0,0-.14-3.28-4.84-5.21S440.82,811.22,440.3,808.82Z"/><path class="cls-33" d="M444.26,795.54s-11.39,7-.66,13.85c2.07,1.34,9.56,5.09,9.34,8.53,0,0,4.53-6.72-2.09-10.94C444,802.65,442.32,798,444.26,795.54Z"/><path class="cls-33" d="M456,802.34c-4.88-5.12-6.23-8.27-4.15-12.37,0,0-14.57,5.61-.18,15.56,5.15,3.56,4.29,7.19,4.29,7.33C456.79,812,460.9,807.45,456,802.34Z"/><text class="cls-37" transform="translate(467.01 811.9)"><tspan class="cls-38">N</tspan><tspan class="cls-39" x="14.25" y="0">O</tspan><tspan class="cls-40" x="28.51" y="0">D</tspan><tspan x="41.41" y="0">E</tspan></text></g></g></svg>