<svg xmlns="http://www.w3.org/2000/svg" viewBox="0 0 2027.16 795.03"><defs><style>.cls-1{isolation:isolate;}.cls-2{fill:#fff;}.cls-11,.cls-26,.cls-3,.cls-5{fill:#1d1d1b;}.cls-4{fill:#e5282a;}.cls-11,.cls-5{font-size:36.83px;}.cls-11,.cls-26,.cls-5{font-family:MavenProMedium, Maven Pro;}.cls-6{letter-spacing:-0.02em;}.cls-7{letter-spacing:-0.02em;}.cls-8{letter-spacing:-0.01em;}.cls-9{letter-spacing:-0.01em;}.cls-10{letter-spacing:0em;}.cls-11{letter-spacing:-0.05em;}.cls-12{letter-spacing:0em;}.cls-13{letter-spacing:-0.02em;}.cls-14{letter-spacing:-0.01em;}.cls-15{letter-spacing:0.01em;}.cls-16{letter-spacing:0.01em;}.cls-17{letter-spacing:-0.01em;}.cls-18{letter-spacing:-0.01em;}.cls-19{letter-spacing:-0.01em;}.cls-20{letter-spacing:-0.02em;}.cls-21{letter-spacing:-0.01em;}.cls-22{letter-spacing:-0.02em;}.cls-23{letter-spacing:-0.02em;}.cls-24{letter-spacing:-0.01em;}.cls-25{fill:#efeeed;mix-blend-mode:multiply;}.cls-26{font-size:38.15px;}.cls-27{letter-spacing:-0.01em;}.cls-28{letter-spacing:-0.01em;}.cls-29{letter-spacing:-0.01em;}.cls-30{letter-spacing:-0.02em;}.cls-31{letter-spacing:0em;}.cls-32{letter-spacing:-0.01em;}.cls-33{fill:#965a58;}.cls-34{fill:#d17776;}.cls-35{fill:#ed6a69;}.cls-36{fill:#f4a3a3;}.cls-37{letter-spacing:-0.02em;}.cls-38{letter-spacing:-0.01em;}.cls-39{letter-spacing:0.03em;}.cls-40{letter-spacing:-0.01em;}.cls-41{letter-spacing:-0.02em;}.cls-42{letter-spacing:-0.01em;}.cls-43{letter-spacing:-0.03em;}.cls-44{letter-spacing:-0.02em;}</style></defs><g class="cls-1"><g id="Capa_1" data-name="Capa 1"><path class="cls-2" d="M726.48,60.52c-98.59,0-200.56,22.35-200.56,59.75V674.75a22.3,22.3,0,0,0,4.29,12.9,37,37,0,0,0,4.87,5.67c25.5,24.63,102.42,41.19,191.4,41.19s166-16.56,191.45-41.16a36.92,36.92,0,0,0,4.93-5.71,22.31,22.31,0,0,0,4.28-12.89V120.27C927.14,82.87,825.11,60.52,726.48,60.52Z"/><path class="cls-3" d="M624.48,472.81V405.92q12.66,3,25.45,5.31c7.8,1.39,13.9,4.12,18.24,8.43s6.53,9.86,6.53,16.77c0,10.18-4.92,16.26-14.69,17.76q8.78,14.16,17.58,27.95c-4.85-.55-9.71-1.18-14.55-1.89q-8-13-15.91-26.24-5.39-1-10.74-2.12v23.6Q630.42,474.23,624.48,472.81Zm11.91-31.94q6.6,1.39,13.22,2.58c4.06.72,7.25.51,9.57-.59s3.47-3.69,3.47-7.74-1.16-7.06-3.47-8.84a21.73,21.73,0,0,0-9.57-3.74Q643,421.36,636.39,420Z"/><path class="cls-3" d="M686.09,483q13.35-32.2,26.73-65.24,6.66.21,13.31.22,13.39,33.45,26.77,66.09-6.51.39-13,.59-3.07-8-6.16-16-14.25.22-28.5-.46-3.08,7.94-6.15,15.82Q692.57,483.62,686.09,483Zm23.28-25.45q10.05.39,20.12.33-5-13.09-10-26.3Q714.43,444.64,709.37,457.56Z"/><path class="cls-3" d="M763.23,483.33V416.44q6.72-.57,13.41-1.34Q786.33,428,796,440.38q9.64-15.54,19.23-31.5,6.63-1.38,13.22-3v66.89q-5.94,1.43-11.91,2.68V426q-10.23,17-20.54,33.4-10.31-13.12-20.66-26.75v49.46Q769.27,482.81,763.23,483.33Z"/><path class="cls-4" d="M864,70.29c-37.24-10.1-87.36-15.9-137.49-15.9s-100.2,5.8-137.42,15.9c-43.58,11.82-66.62,28.62-66.62,48.56V676.17a27.22,27.22,0,0,0,5.2,15.78,42.11,42.11,0,0,0,5.52,6.43c26.15,25.25,103.85,42.25,193.32,42.25s167.25-17,193.41-42.26a41.65,41.65,0,0,0,5.53-6.41,27.28,27.28,0,0,0,5.19-15.79V118.85C930.61,98.91,907.57,82.11,864,70.29ZM910.4,681.43a24.14,24.14,0,0,1-3.16,3.67c-22.33,21.57-98.33,37.19-180.76,37.19s-158.35-15.63-180.66-37.18a24.29,24.29,0,0,1-3.17-3.69,9.2,9.2,0,0,1-1.87-5.25V147.24A102.17,102.17,0,0,0,554.4,155l.22.1q3.72,1.78,7.81,3.47l.68.28c2.65,1.07,5.39,2.13,8.26,3.14l1,.36c2.43.84,4.94,1.66,7.51,2.46l2.35.73c2.43.74,4.94,1.44,7.48,2.13,1.14.31,2.27.62,3.44.92,2.45.64,5,1.25,7.52,1.85l4.38,1q3.69.83,7.5,1.59c1.66.33,3.33.65,5,1,2,.38,4,.74,6,1.09,2.28.39,4.58.78,6.91,1.15l5.65.86c2.45.35,4.91.7,7.41,1,2.12.28,4.27.54,6.43.8,1.93.23,3.86.46,5.82.67q4.3.48,8.7.88l4.42.41q5.25.45,10.59.82l3.81.25q5.76.36,11.62.64l2.88.12c4.23.17,8.49.32,12.79.41.56,0,1.13,0,1.7,0q7,.15,14.15.16t14.13-.16c.58,0,1.17,0,1.74,0,4.29-.09,8.54-.24,12.76-.41l2.93-.12q5.85-.27,11.59-.64l3.82-.25c3.55-.25,7.08-.52,10.56-.82l4.52-.41c2.84-.27,5.66-.55,8.45-.86,2-.22,4.06-.45,6.07-.69s4.24-.52,6.33-.8c2.54-.33,5-.68,7.52-1.05q2.8-.4,5.56-.84,3.54-.55,7-1.16c2-.35,4-.71,5.95-1.08,1.7-.31,3.38-.64,5-1q3.81-.77,7.5-1.58l4.36-1c2.58-.6,5.12-1.22,7.59-1.86,1.12-.29,2.21-.59,3.3-.89,2.68-.72,5.31-1.46,7.85-2.23.65-.19,1.28-.4,1.92-.6,2.69-.83,5.31-1.69,7.84-2.57.26-.1.54-.18.81-.28,2.94-1,5.75-2.12,8.46-3.22l.46-.19q4.2-1.72,8-3.55h0a103.21,103.21,0,0,0,13.7-7.8V676.17A9.2,9.2,0,0,1,910.4,681.43ZM726.48,72.73c115.11,0,185.79,26.86,185.79,46.12a9.79,9.79,0,0,1-1.89,5.32c-8.06,11.89-36.85,24-79.34,31.94l-.37.06c-1.58.3-3.21.58-4.83.86s-3.33.57-5,.84h0a594.4,594.4,0,0,1-78.39,6.9l-2.65,0c-1.67,0-3.35.07-5,.09-2.73,0-5.47.06-8.24.06s-5.51,0-8.24-.06c-1.68,0-3.35,0-5-.09l-2.66,0a593.77,593.77,0,0,1-78.2-6.87l-.34-.06c-1.6-.25-3.17-.52-4.74-.79-1.73-.3-3.45-.6-5.14-.91l-.08,0c-42.49-7.9-71.27-20-79.37-31.93a9.78,9.78,0,0,1-1.91-5.34C540.78,99.59,611.43,72.73,726.48,72.73Z"/><path class="cls-4" d="M430,218.59H79a5.72,5.72,0,1,1,0-11.43H430a5.72,5.72,0,1,1,0,11.43Z"/><path class="cls-4" d="M408.76,186.18a5.66,5.66,0,0,1,3.71,1.38l24.54,21a5.72,5.72,0,0,1,0,8.69l-24.54,21A5.72,5.72,0,1,1,405,229.5l19.45-16.62L405,196.25a5.72,5.72,0,0,1,3.72-10.07Z"/><text class="cls-5" transform="translate(164.39 183.65)">1. U<tspan class="cls-6" x="68.4" y="0">p</tspan><tspan class="cls-7" x="88.76" y="0">d</tspan><tspan class="cls-8" x="108.88" y="0">a</tspan><tspan class="cls-9" x="128.13" y="0">t</tspan><tspan class="cls-10" x="141.43" y="0">e</tspan></text><path class="cls-4" d="M64.28,440.4H431.63a5.72,5.72,0,1,1,0,11.43H64.28a5.72,5.72,0,1,1,0-11.43Z"/><path class="cls-4" d="M85.51,472.81a5.67,5.67,0,0,1-3.72-1.38l-24.54-21a5.72,5.72,0,0,1,0-8.69l24.54-21a5.72,5.72,0,1,1,7.43,8.69L69.77,446.11l19.45,16.63a5.72,5.72,0,0,1-3.71,10.07Z"/><text class="cls-11" transform="translate(164.39 416.34)">3<tspan class="cls-12" x="19.66" y="0">. A</tspan><tspan class="cls-7" x="69.35" y="0">c</tspan><tspan class="cls-12" x="86.17" y="0">k</tspan></text><path class="cls-4" d="M1415.39,221.13h-351a5.72,5.72,0,1,1,0-11.44h351a5.72,5.72,0,0,1,0,11.44Z"/><path class="cls-4" d="M1394.17,188.72a5.71,5.71,0,0,1,3.72,1.37l24.54,21a5.74,5.74,0,0,1,0,8.69l-24.54,21a5.72,5.72,0,0,1-7.44-8.69l19.46-16.63-19.46-16.63a5.72,5.72,0,0,1,3.72-10.06Z"/><text class="cls-5" transform="translate(1065.07 186.18)">2. <tspan class="cls-13" x="46.64" y="0">P</tspan><tspan class="cls-14" x="67.98" y="0">e</tspan><tspan class="cls-15" x="87.89" y="0">r</tspan><tspan class="cls-7" x="100.77" y="0">si</tspan><tspan class="cls-16" x="126.29" y="0">s</tspan><tspan x="142.59" y="0">t</tspan></text><path class="cls-4" d="M1413.74,575.63H1046.38a5.72,5.72,0,0,1,0-11.44h367.36a5.72,5.72,0,0,1,0,11.44Z"/><path class="cls-4" d="M1392.51,543.22a5.67,5.67,0,0,1,3.72,1.38l24.54,21a5.72,5.72,0,0,1,0,8.69l-24.54,21a5.72,5.72,0,1,1-7.43-8.69l19.45-16.63-19.45-16.63a5.72,5.72,0,0,1,3.71-10.06Z"/><text class="cls-5" transform="translate(1065.07 540.14)">4. <tspan class="cls-17" x="47.01" y="0">C</tspan><tspan class="cls-18" x="69.62" y="0">h</tspan><tspan class="cls-19" x="90.48" y="0">e</tspan><tspan class="cls-20" x="110.55" y="0">c</tspan><tspan x="127.37" y="0">k</tspan><tspan class="cls-21" x="149.02" y="0">p</tspan><tspan class="cls-22" x="169.8" y="0">o</tspan><tspan class="cls-6" x="190.01" y="0">i</tspan><tspan class="cls-23" x="199.98" y="0">n</tspan><tspan class="cls-24" x="220.64" y="0">t</tspan><tspan class="cls-6" x="233.91" y="0">in</tspan><tspan x="264.79" y="0">g</tspan></text><rect class="cls-25" x="1467.85" y="158.19" width="504.05" height="114.44" rx="7.55"/><text class="cls-26" transform="translate(1574.1 227.71)"><tspan class="cls-27">Wr</tspan><tspan class="cls-28" x="48.67" y="0">i</tspan><tspan class="cls-27" x="59.27" y="0">t</tspan><tspan x="73.06" y="0">e-A</tspan><tspan class="cls-29" x="137.23" y="0">h</tspan><tspan class="cls-30" x="158.84" y="0">ea</tspan><tspan class="cls-31" x="199.2" y="0">d L</tspan><tspan class="cls-32" x="253.8" y="0">o</tspan><tspan x="275.09" y="0">g</tspan></text><rect class="cls-25" x="1464.23" y="609.04" width="504.05" height="114.44" rx="7.55"/><rect class="cls-25" x="1464.23" y="416.34" width="504.05" height="114.44" rx="7.55"/><circle class="cls-33" cx="1657.61" cy="569.91" r="10.56"/><circle class="cls-34" cx="1697.79" cy="569.91" r="10.56"/><circle class="cls-35" cx="1734.73" cy="569.91" r="10.56"/><circle class="cls-36" cx="1774.91" cy="569.91" r="10.56"/><text class="cls-26" transform="translate(1592.21 486.75)"><tspan class="cls-37">P</tspan><tspan class="cls-38" x="22.07" y="0">a</tspan><tspan class="cls-39" x="41.97" y="0">r</tspan><tspan class="cls-29" x="56.31" y="0">t</tspan><tspan class="cls-40" x="70.06" y="0">i</tspan><tspan class="cls-29" x="80.66" y="0">t</tspan><tspan class="cls-41" x="94.4" y="0">i</tspan><tspan class="cls-42" x="104.8" y="0">o</tspan><tspan x="125.92" y="0">n </tspan><tspan class="cls-30" x="161.13" y="0">F</tspan><tspan class="cls-43" x="181.49" y="0">i</tspan><tspan class="cls-44" x="191.32" y="0">l</tspan><tspan x="201.66" y="0">e 1</tspan></text><text class="cls-26" transform="translate(1588.27 678.57)"><tspan class="cls-37">P</tspan><tspan class="cls-38" x="22.07" y="0">a</tspan><tspan class="cls-39" x="41.97" y="0">r</tspan><tspan class="cls-29" x="56.31" y="0">t</tspan><tspan class="cls-40" x="70.06" y="0">i</tspan><tspan class="cls-29" x="80.66" y="0">t</tspan><tspan class="cls-41" x="94.4" y="0">i</tspan><tspan class="cls-42" x="104.8" y="0">o</tspan><tspan x="125.92" y="0">n </tspan><tspan class="cls-30" x="161.13" y="0">F</tspan><tspan class="cls-43" x="181.49" y="0">i</tspan><tspan class="cls-44" x="191.32" y="0">l</tspan><tspan x="201.66" y="0">e N</tspan></text></g></g></svg>