<svg id="Capa_1" data-name="Capa 1" xmlns="http://www.w3.org/2000/svg" viewBox="0 0 1006.75 884.09"><defs><style>.cls-1{fill:#fff;}.cls-2{fill:#e5282a;}.cls-3,.cls-4{fill:#1d1d1b;}.cls-4{font-size:62.81px;font-family:MavenProMedium, Maven Pro;}.cls-5{letter-spacing:0em;}.cls-6{letter-spacing:-0.01em;}.cls-7{letter-spacing:-0.01em;}</style></defs><path class="cls-1" d="M503.33,86.89c-98.82,0-201,22.41-201,59.89v474.4a22.33,22.33,0,0,0,4.3,12.93,37.11,37.11,0,0,0,4.88,5.68c25.57,24.69,102.66,41.28,191.85,41.28s166.37-16.59,191.89-41.25a36.68,36.68,0,0,0,4.94-5.73,22.28,22.28,0,0,0,4.29-12.91V146.78C704.45,109.3,602.19,86.89,503.33,86.89Z"/><path class="cls-2" d="M641.13,97.67c-37.32-10.12-87.55-15.93-137.8-15.93S402.89,87.55,365.59,97.67c-43.69,11.86-66.77,28.69-66.77,48.68v159a27.31,27.31,0,0,0,5.2,15.81,41.35,41.35,0,0,0,5.54,6.44c26.21,25.32,104.09,42.36,193.77,42.36s167.64-17,193.86-42.37a41.27,41.27,0,0,0,5.53-6.42,27.25,27.25,0,0,0,5.21-15.82v-159C707.93,126.36,684.83,109.53,641.13,97.67Zm46.55,212.89a23.85,23.85,0,0,1-3.18,3.68c-22.37,21.63-98.55,37.29-181.17,37.29s-158.72-15.68-181.08-37.28a23.42,23.42,0,0,1-3.18-3.7,9.22,9.22,0,0,1-1.87-5.25V174.8a100.91,100.91,0,0,0,13.65,7.78l.22.11q3.72,1.78,7.83,3.48l.68.27c2.65,1.08,5.4,2.13,8.28,3.15l1,.36c2.43.84,4.95,1.67,7.53,2.47l2.35.73c2.43.73,5,1.44,7.51,2.13,1.14.31,2.27.63,3.43.93,2.46.63,5,1.25,7.54,1.85,1.45.34,2.92.67,4.4,1q3.69.83,7.52,1.59c1.65.33,3.33.65,5,1,2,.37,4,.74,6,1.09,2.28.39,4.59.78,6.92,1.15l5.67.86q3.68.54,7.42,1,3.19.42,6.45.81c1.93.23,3.87.46,5.83.67,2.88.32,5.79.61,8.72.89l4.44.4c3.5.3,7,.58,10.61.82l3.82.26q5.76.36,11.64.63c1,.05,1.92.08,2.89.12q6.36.27,12.82.42l1.7,0c4.7.1,9.42.15,14.19.15s9.48,0,14.16-.15l1.75,0q6.45-.15,12.79-.42l2.93-.12q5.87-.27,11.62-.63l3.82-.26q5.36-.36,10.59-.82l4.53-.41c2.85-.27,5.68-.55,8.48-.86,2-.22,4.06-.45,6.08-.7s4.24-.52,6.34-.79q3.81-.51,7.54-1l5.57-.85c2.37-.37,4.7-.76,7-1.16q3-.52,6-1.08c1.7-.32,3.39-.64,5-1,2.55-.52,5.05-1.05,7.52-1.59,1.47-.33,2.93-.66,4.37-1,2.58-.6,5.13-1.22,7.61-1.87l3.31-.88c2.68-.73,5.31-1.47,7.86-2.24l1.93-.6q4.05-1.26,7.85-2.58c.27-.1.55-.18.81-.28,3-1,5.77-2.12,8.49-3.23l.46-.18c2.81-1.16,5.47-2.35,8-3.56l0,0a102.71,102.71,0,0,0,13.74-7.82V305.3A9.28,9.28,0,0,1,687.68,310.56ZM503.33,100.13c115.38,0,186.22,26.92,186.22,46.22a9.79,9.79,0,0,1-1.9,5.33c-8.08,11.92-36.93,24.09-79.53,32l-.36.07-4.84.86c-1.67.28-3.34.57-5,.84h0a595.09,595.09,0,0,1-78.56,6.92l-2.66.05-5,.09q-4.11,0-8.26,0c-2.78,0-5.52,0-8.26,0l-5-.09-2.66-.05A596.33,596.33,0,0,1,409,185.49l-.34-.06c-1.6-.25-3.18-.52-4.76-.79s-3.45-.6-5.14-.92h-.08c-42.59-7.92-71.44-20.08-79.56-32a9.81,9.81,0,0,1-1.91-5.35C317.2,127.05,388,100.13,503.33,100.13Z"/><path class="cls-2" d="M699.32,296.07a8.51,8.51,0,0,0-8.5,8.5,10.37,10.37,0,0,1-2,5.7c-7.32,10.84-30.63,21.44-64,29.08-34.61,7.93-77.77,12.29-121.54,12.29s-86.88-4.36-121.47-12.29c-33.3-7.63-56.6-18.23-63.9-29a10.44,10.44,0,0,1-2-5.74,8.5,8.5,0,0,0-17,0V622.14A26.71,26.71,0,0,0,304,637.61a42,42,0,0,0,5.42,6.31c13.09,12.63,38.62,23.31,73.83,30.88,34.71,7.47,76.22,11.42,120,11.42s85.37-3.94,120.1-11.41c35.22-7.57,60.74-18.24,73.81-30.85a42.14,42.14,0,0,0,5.5-6.39,26.63,26.63,0,0,0,5.08-15.43V304.57A8.51,8.51,0,0,0,699.32,296.07Zm-8.5,326.07a10,10,0,0,1-2,5.66,25.51,25.51,0,0,1-3.3,3.83l0,0c-10.83,10.46-34.72,20-67.25,26.8-33.07,6.93-73.88,10.74-114.9,10.74s-81.79-3.82-114.84-10.75c-32.53-6.82-56.42-16.35-67.27-26.83l0,0a24.74,24.74,0,0,1-3.22-3.75,10,10,0,0,1-2-5.71V331.74c13.94,10.08,36.22,18.67,65.34,25.1,35,7.72,77.18,11.8,122.06,11.8s87.11-4.08,122.1-11.8c29.13-6.43,51.44-15,65.39-25.1Z"/><path class="cls-3" d="M367.2,288.41v-44.3c2.91.7,5.83,1.37,8.74,2q6.35,10.68,12.69,21.21,6.36-8,12.73-16.1,4.39.8,8.82,1.51v44.3c-2.66-.43-5.3-.88-7.95-1.35V263q-6.81,8.6-13.6,17-6.79-11.16-13.55-22.48v32.75Q371.14,289.35,367.2,288.41Z"/><path class="cls-3" d="M421.34,298.77V254.48q14.73,2.11,29.53,3.49v7.16q-10.78-1-21.55-2.4V274q9.33,1.21,18.69,2.13v7.52q-9.36-.92-18.69-2.12V292.7q10.76,1.4,21.55,2.4v7.17Q436.08,300.89,421.34,298.77Z"/><path class="cls-3" d="M460,303V258.75c3,.23,5.93.43,8.9.62q6.45,9.66,12.89,19.18,6.45-9,12.89-18.14c3,.06,5.95.09,8.92.1v44.3q-4,0-8-.08V272q-6.88,9.67-13.77,19.19-6.88-10.07-13.77-20.3v32.75C465.37,303.44,462.69,303.25,460,303Z"/><path class="cls-3" d="M513.35,282.62a32.48,32.48,0,0,1,1.27-9.57,19.86,19.86,0,0,1,3.28-6.62,17,17,0,0,1,4.85-4.1,20.39,20.39,0,0,1,5.55-2.24,33.79,33.79,0,0,1,5.84-.77,32.53,32.53,0,0,1,5.84.21,18.61,18.61,0,0,1,5.55,1.71,15.15,15.15,0,0,1,4.87,3.64,17.27,17.27,0,0,1,3.31,6.3,31.6,31.6,0,0,1,1.27,9.45,34,34,0,0,1-1.27,9.65,20.23,20.23,0,0,1-3.31,6.83,18.26,18.26,0,0,1-4.87,4.31,19.78,19.78,0,0,1-5.55,2.41,30,30,0,0,1-5.84.83,29.1,29.1,0,0,1-5.84-.27,18.5,18.5,0,0,1-5.55-1.88,15.86,15.86,0,0,1-4.85-3.84,18.65,18.65,0,0,1-3.28-6.52A32.44,32.44,0,0,1,513.35,282.62Zm8-.22a28.27,28.27,0,0,0,1,8.22,9,9,0,0,0,2.94,4.72,10.43,10.43,0,0,0,4,1.94,18,18,0,0,0,4.84.34,22.84,22.84,0,0,0,4-.49,12,12,0,0,0,3.43-1.45,8.41,8.41,0,0,0,2.86-2.83,16.47,16.47,0,0,0,1.85-4.73,29.13,29.13,0,0,0,.73-6.95,28,28,0,0,0-1-8.12,8.63,8.63,0,0,0-3-4.61,10.43,10.43,0,0,0-4-1.82,20.32,20.32,0,0,0-4.88-.26,23.89,23.89,0,0,0-3.88.46,11.82,11.82,0,0,0-3.44,1.4,8.41,8.41,0,0,0-2.88,2.71,15.41,15.41,0,0,0-1.82,4.59A28.19,28.19,0,0,0,521.38,282.4Z"/><path class="cls-3" d="M564.58,301.9V257.6q8.53-.84,17-1.94c5.2-.67,9.24,0,12.11,2S598,263,598,267.57c0,6.74-3.23,11.64-9.72,14.53q5.82,7.66,11.63,15.21-4.8.76-9.62,1.46-5.28-7-10.57-14.21c-2.39.3-4.79.59-7.18.86v15.63C569.91,301.35,567.25,301.63,564.58,301.9Zm8-23.78q4.42-.5,8.83-1.07a12.92,12.92,0,0,0,6.36-2.3c1.54-1.17,2.3-3.11,2.3-5.8s-.76-4.45-2.3-5.18a11.56,11.56,0,0,0-6.36-.56q-4.41.57-8.83,1.06Z"/><path class="cls-3" d="M602.11,252.66q4.8-.79,9.6-1.66,5.84,7.94,11.66,15.76,5.79-10.17,11.56-20.45,4.77-1.06,9.51-2.2-8.54,14.7-17.12,29.14v19q-3.95.83-7.91,1.6v-19Q610.79,263.88,602.11,252.66Z"/><path class="cls-3" d="M434.69,521.66v-44.3q7.55,1.81,15.14,3.22c6.82,1.27,12,3.89,15.57,8.13s5.33,9.92,5.33,17.19-1.77,12.52-5.31,15.82-8.75,4.43-15.59,3.16Q442.23,523.47,434.69,521.66Zm7.88-5.39q3.62.76,7.25,1.44c4.57.85,7.88.2,9.9-1.82s3-5.71,3-11-1-9.32-3-12-5.33-4.32-9.9-5.17q-3.63-.67-7.25-1.44Z"/><path class="cls-3" d="M480.56,529v-44.3q4,.33,8,.54v44.3C485.9,529.38,483.23,529.19,480.56,529Z"/><path class="cls-3" d="M498.14,498c0-4.29,1.51-7.48,4.54-9.64A20.21,20.21,0,0,1,514,485a27.2,27.2,0,0,1,12,2.48v7.81a20.19,20.19,0,0,0-11-2.8,14.85,14.85,0,0,0-6.25,1.42,4.23,4.23,0,0,0-2.57,4,3.76,3.76,0,0,0,2.34,3.43,23.81,23.81,0,0,0,5.65,2c2.21.5,4.42,1.13,6.65,1.87a11.85,11.85,0,0,1,5.68,4.14,12.88,12.88,0,0,1,2.33,8.07,11.32,11.32,0,0,1-4.47,9.05,17.48,17.48,0,0,1-10.9,3.88,26,26,0,0,1-14.72-3.65v-8.05a20,20,0,0,0,12.86,4.23c6.14-.15,9.21-2.06,9.21-5.44a4.71,4.71,0,0,0-1.67-3.74,10,10,0,0,0-4.21-2.09c-1.69-.43-3.51-.95-5.45-1.58a50.28,50.28,0,0,1-5.45-2.12,10.14,10.14,0,0,1-4.21-3.69A10.89,10.89,0,0,1,498.14,498Z"/><path class="cls-3" d="M537.9,528.14v-44.3c2.66-.3,5.33-.63,8-1v18.75q8.37-10.53,16.68-21.53,5.31-1,10.6-2.27-8.82,11.79-17.73,23,9.83,10.74,19.55,20.83-4.9,1.17-9.85,2.19-7.38-8.08-14.81-16.55c-1.48,1.85-3,3.68-4.44,5.51v14.33C543.23,527.51,540.56,527.84,537.9,528.14Z"/><path class="cls-2" d="M377,769.9s-13.18,20,12.72,24c2.54.33,21.31,2.27,26.15,8.42,0,0-.44-10.61-15.69-16.86S378.66,777.68,377,769.9Z"/><path class="cls-2" d="M389.81,726.91s-36.88,22.48-2.13,44.84c6.71,4.34,30.94,16.48,30.23,27.62,0,0,14.68-21.77-6.77-35.42C389.07,749.92,383.54,735,389.81,726.91Z"/><path class="cls-2" d="M427.89,748.9c-15.79-16.56-20.18-26.78-13.43-40,0,0-47.19,18.16-.6,50.37,16.68,11.53,13.89,23.29,13.9,23.73C430.4,780.25,443.69,765.46,427.89,748.9Z"/><text class="cls-4" transform="translate(463.47 779.86)"><tspan class="cls-5">N</tspan><tspan class="cls-6" x="46.15" y="0">O</tspan><tspan class="cls-7" x="92.34" y="0">D</tspan><tspan x="134.1" y="0">E</tspan></text></svg>