<svg id="Capa_1" data-name="Capa 1" xmlns="http://www.w3.org/2000/svg" viewBox="0 0 461.23 781.39"><defs><style>.cls-1{fill:#fff;}.cls-2{fill:#e5282a;}.cls-3,.cls-4{fill:#1d1d1b;}.cls-4{font-size:62.81px;font-family:MavenProMedium, Maven Pro;}.cls-5{letter-spacing:0em;}.cls-6{letter-spacing:-0.01em;}.cls-7{letter-spacing:-0.01em;}</style></defs><path class="cls-1" d="M235,42.76c-98.82,0-201,22.41-201,59.89v474.4A22.33,22.33,0,0,0,38.28,590a37.67,37.67,0,0,0,4.88,5.68C68.73,620.35,145.83,636.94,235,636.94s166.37-16.59,191.89-41.25a36.15,36.15,0,0,0,4.94-5.73,22.28,22.28,0,0,0,4.29-12.91V102.65C436.13,65.17,333.87,42.76,235,42.76Z"/><path class="cls-2" d="M372.81,53.54C335.49,43.42,285.26,37.61,235,37.61S134.58,43.42,97.27,53.54C53.59,65.4,30.5,82.23,30.5,102.22v159A27.25,27.25,0,0,0,35.71,277a40.83,40.83,0,0,0,5.54,6.44c26.2,25.32,104.09,42.36,193.76,42.36s167.64-17,193.86-42.36a41.88,41.88,0,0,0,5.54-6.43,27.31,27.31,0,0,0,5.2-15.82v-159C439.61,82.23,416.51,65.4,372.81,53.54Zm46.55,212.89a24.36,24.36,0,0,1-3.17,3.68C393.81,291.74,317.63,307.4,235,307.4S76.29,291.72,53.93,270.12a24,24,0,0,1-3.18-3.7,9.22,9.22,0,0,1-1.87-5.25V130.67a101.53,101.53,0,0,0,13.65,7.78l.22.11c2.49,1.19,5.09,2.35,7.83,3.48l.68.27c2.65,1.08,5.4,2.13,8.28,3.15l1,.36c2.44.84,5,1.67,7.53,2.47l2.35.73c2.44.73,5,1.44,7.51,2.14,1.14.31,2.27.62,3.44.92,2.46.63,5,1.25,7.54,1.85l4.39,1c2.47.55,5,1.08,7.52,1.59,1.65.33,3.33.65,5,1,2,.38,4,.74,6,1.09q3.42.6,6.93,1.15l5.66.86c2.45.36,4.92.7,7.43,1,2.13.28,4.27.55,6.44.81,1.93.23,3.87.46,5.83.67,2.88.32,5.79.61,8.73.89l4.43.4c3.5.3,7,.58,10.61.82l3.82.26q5.78.36,11.64.63c1,.05,1.93.09,2.89.12q6.36.27,12.82.42l1.7,0c4.7.1,9.42.16,14.19.16s9.48-.06,14.17-.16l1.74,0q6.45-.15,12.79-.41l2.93-.13q5.87-.27,11.62-.63l3.83-.26q5.34-.36,10.58-.82l4.53-.41c2.85-.27,5.68-.55,8.48-.86,2-.22,4.06-.45,6.08-.7s4.25-.52,6.34-.79q3.81-.51,7.54-1l5.57-.85q3.56-.55,7-1.16,3-.52,6-1.08c1.69-.32,3.38-.64,5-1q3.83-.78,7.52-1.59c1.48-.33,2.93-.66,4.37-1q3.89-.9,7.61-1.87l3.31-.88c2.68-.73,5.32-1.47,7.86-2.24l1.93-.6q4.05-1.26,7.85-2.58l.82-.28c2.95-1,5.76-2.12,8.48-3.23l.46-.18c2.81-1.16,5.47-2.34,8-3.56l0,0a102.56,102.56,0,0,0,13.73-7.82v130.5A9.28,9.28,0,0,1,419.36,266.43ZM235,56c115.38,0,186.22,26.92,186.22,46.22a9.82,9.82,0,0,1-1.89,5.33c-8.09,11.92-36.94,24.09-79.53,32l-.37.07-4.84.86c-1.67.28-3.34.57-5,.84h0A596.86,596.86,0,0,1,251,148.25l-2.66.05c-1.68,0-3.36.07-5,.09q-4.11,0-8.26.05c-2.78,0-5.52,0-8.26-.05-1.68,0-3.36-.06-5-.09l-2.66-.05a596.33,596.33,0,0,1-78.39-6.89l-.34-.06c-1.6-.25-3.18-.52-4.75-.79-1.73-.3-3.46-.6-5.15-.92h-.08c-42.59-7.92-71.44-20.08-79.56-32a9.81,9.81,0,0,1-1.91-5.35C48.88,82.92,119.69,56,235,56Z"/><path class="cls-2" d="M431,251.94a8.51,8.51,0,0,0-8.5,8.5,10.37,10.37,0,0,1-2,5.7c-7.32,10.84-30.63,21.44-63.95,29.08-34.61,7.93-77.77,12.29-121.54,12.29s-86.88-4.36-121.47-12.29c-33.3-7.63-56.59-18.23-63.9-29a10.5,10.5,0,0,1-2-5.74,8.51,8.51,0,0,0-17,0V578a26.71,26.71,0,0,0,5.11,15.47,41.49,41.49,0,0,0,5.43,6.31C54.23,612.42,79.76,623.1,115,630.67c34.71,7.47,76.22,11.42,120,11.42s85.37-3.94,120.1-11.41c35.22-7.57,60.74-18.24,73.81-30.85a42.14,42.14,0,0,0,5.5-6.39A26.63,26.63,0,0,0,439.5,578V260.44A8.51,8.51,0,0,0,431,251.94ZM422.5,578a10,10,0,0,1-2,5.66,24.42,24.42,0,0,1-3.3,3.83l0,0c-10.83,10.46-34.71,20-67.25,26.8C316.84,621.28,276,625.09,235,625.09s-81.79-3.82-114.84-10.75C87.65,607.52,63.76,598,52.9,587.51l0,0a24.24,24.24,0,0,1-3.23-3.75,10.06,10.06,0,0,1-2-5.71V287.61c13.93,10.08,36.22,18.67,65.33,25.1,35,7.72,77.18,11.8,122.06,11.8s87.12-4.08,122.1-11.8c29.14-6.43,51.44-15,65.39-25.1Z"/><path class="cls-3" d="M98.89,244.28V200c2.9.7,5.82,1.37,8.74,2q6.33,10.68,12.68,21.21,6.36-8,12.73-16.1,4.41.8,8.82,1.51v44.3q-4-.65-8-1.35V218.82q-6.81,8.6-13.6,17-6.78-11.16-13.55-22.48v32.75Q102.82,245.23,98.89,244.28Z"/><path class="cls-3" d="M153,254.64V210.35q14.73,2.11,29.52,3.49V221q-10.78-1-21.55-2.4v11.22q9.33,1.22,18.69,2.13v7.53q-9.36-.91-18.69-2.13v11.22q10.77,1.4,21.55,2.4v7.17Q167.76,256.76,153,254.64Z"/><path class="cls-3" d="M191.71,258.92v-44.3c3,.23,5.93.43,8.89.62q6.45,9.66,12.89,19.18,6.45-9,12.9-18.14,4.46.09,8.91.1v44.3q-4,0-8-.08V227.84q-6.9,9.67-13.78,19.19-6.88-10.07-13.77-20.3v32.75Q195.72,259.23,191.71,258.92Z"/><path class="cls-3" d="M245,238.49a32.82,32.82,0,0,1,1.27-9.57,19.68,19.68,0,0,1,3.29-6.62,16.82,16.82,0,0,1,4.84-4.1A20.52,20.52,0,0,1,260,216a33.79,33.79,0,0,1,5.84-.77,32.53,32.53,0,0,1,5.84.21,18.61,18.61,0,0,1,5.55,1.71,15.15,15.15,0,0,1,4.87,3.64,17.27,17.27,0,0,1,3.31,6.3,31.6,31.6,0,0,1,1.27,9.45,34,34,0,0,1-1.27,9.65,20.23,20.23,0,0,1-3.31,6.83,18.26,18.26,0,0,1-4.87,4.31,19.78,19.78,0,0,1-5.55,2.41,30,30,0,0,1-5.84.83,29.1,29.1,0,0,1-5.84-.27,18.5,18.5,0,0,1-5.55-1.88,15.71,15.71,0,0,1-4.84-3.84A18.48,18.48,0,0,1,246.3,248,32.78,32.78,0,0,1,245,238.49Zm8-.22a28.27,28.27,0,0,0,1,8.22,9,9,0,0,0,2.94,4.72,10.43,10.43,0,0,0,4,1.94,18,18,0,0,0,4.84.34,22.84,22.84,0,0,0,3.95-.49,12,12,0,0,0,3.43-1.45,8.53,8.53,0,0,0,2.87-2.83,16.48,16.48,0,0,0,1.84-4.73,29.13,29.13,0,0,0,.73-7,28,28,0,0,0-1-8.12,8.58,8.58,0,0,0-3-4.61,10.43,10.43,0,0,0-4-1.82,20.28,20.28,0,0,0-4.88-.26,24,24,0,0,0-3.88.46,11.82,11.82,0,0,0-3.44,1.4,8.29,8.29,0,0,0-2.87,2.71,15.39,15.39,0,0,0-1.83,4.59A28.19,28.19,0,0,0,253.06,238.27Z"/><path class="cls-3" d="M296.26,257.77v-44.3q8.53-.84,17.05-1.94c5.19-.67,9.23,0,12.1,2s4.31,5.32,4.31,9.9c0,6.74-3.23,11.64-9.72,14.53q5.82,7.67,11.63,15.21c-3.2.51-6.41,1-9.61,1.46q-5.29-7-10.58-14.21-3.58.45-7.18.86v15.63Q300.27,257.37,296.26,257.77Zm8-23.78c2.95-.33,5.89-.69,8.83-1.06a13,13,0,0,0,6.36-2.3c1.54-1.18,2.3-3.12,2.3-5.8s-.76-4.46-2.3-5.19a11.56,11.56,0,0,0-6.36-.56c-2.94.38-5.88.73-8.83,1.07Z"/><path class="cls-3" d="M333.8,208.53c3.2-.53,6.39-1.08,9.59-1.66q5.83,7.94,11.66,15.76,5.79-10.17,11.56-20.45,4.77-1.06,9.51-2.2-8.53,14.7-17.12,29.14v19q-3.94.82-7.91,1.6v-19Q342.47,219.75,333.8,208.53Z"/><path class="cls-3" d="M166.37,477.53v-44.3q7.55,1.81,15.14,3.22c6.82,1.27,12,3.89,15.57,8.13s5.33,9.92,5.33,17.19-1.77,12.52-5.31,15.82-8.75,4.43-15.59,3.16Q173.92,479.34,166.37,477.53Zm7.89-5.39q3.62.76,7.24,1.44c4.58.85,7.88.2,9.9-1.82s3-5.71,3-11-1-9.32-3-12-5.32-4.32-9.9-5.17q-3.63-.67-7.24-1.44Z"/><path class="cls-3" d="M212.24,484.85v-44.3c2.67.22,5.35.4,8,.54v44.3C217.59,485.25,214.91,485.06,212.24,484.85Z"/><path class="cls-3" d="M229.82,453.91c0-4.29,1.51-7.48,4.54-9.64a20.26,20.26,0,0,1,11.36-3.4,27.2,27.2,0,0,1,12,2.48v7.81a20.19,20.19,0,0,0-11-2.8,14.89,14.89,0,0,0-6.25,1.42,4.22,4.22,0,0,0-2.56,4,3.75,3.75,0,0,0,2.33,3.43,23.53,23.53,0,0,0,5.65,2c2.21.5,4.43,1.13,6.66,1.87a11.78,11.78,0,0,1,5.67,4.14,12.9,12.9,0,0,1,2.33,8.07,11.34,11.34,0,0,1-4.46,9,17.57,17.57,0,0,1-10.9,3.89,26.11,26.11,0,0,1-14.73-3.66v-8.05a20,20,0,0,0,12.87,4.23c6.13-.15,9.2-2.06,9.2-5.44a4.73,4.73,0,0,0-1.66-3.74,10.05,10.05,0,0,0-4.21-2.09q-2.55-.63-5.46-1.58a51.1,51.1,0,0,1-5.45-2.12,10.14,10.14,0,0,1-4.21-3.69A11,11,0,0,1,229.82,453.91Z"/><path class="cls-3" d="M269.58,484v-44.3c2.66-.3,5.33-.63,8-1v18.75q8.35-10.53,16.67-21.53,5.31-1,10.6-2.27-8.82,11.79-17.73,23,9.83,10.74,19.55,20.83-4.91,1.17-9.84,2.19-7.38-8.09-14.82-16.55c-1.47,1.85-2.95,3.68-4.43,5.51V483C274.91,483.38,272.24,483.71,269.58,484Z"/><path class="cls-2" d="M108.66,725.77s-13.19,20,12.72,24c2.53.33,21.3,2.27,26.14,8.42,0,0-.44-10.61-15.68-16.86S110.35,733.55,108.66,725.77Z"/><path class="cls-2" d="M121.49,682.78s-36.87,22.48-2.13,44.84c6.71,4.34,30.94,16.48,30.23,27.62,0,0,14.68-21.77-6.77-35.42C120.75,705.79,115.22,690.86,121.49,682.78Z"/><path class="cls-2" d="M159.57,704.77c-15.79-16.56-20.18-26.78-13.43-40,0,0-47.19,18.16-.6,50.37,16.68,11.53,13.89,23.29,13.9,23.73C162.08,736.12,175.37,721.33,159.57,704.77Z"/><text class="cls-4" transform="translate(195.15 735.73)"><tspan class="cls-5">N</tspan><tspan class="cls-6" x="46.15" y="0">O</tspan><tspan class="cls-7" x="92.34" y="0">D</tspan><tspan x="134.1" y="0">E</tspan></text></svg>