<svg xmlns="http://www.w3.org/2000/svg" viewBox="0 0 1264 1110"><defs><style>.cls-1{isolation:isolate;}.cls-2{fill:#575656;}.cls-3{fill:#777;}.cls-10,.cls-4{fill:#1d1d1b;}.cls-5{fill:none;stroke:#575756;stroke-miterlimit:10;}.cls-6{fill:#efeeed;mix-blend-mode:multiply;}.cls-7{fill:#ea5e12;}.cls-8{fill:#fff;}.cls-9{fill:#e5282a;}.cls-10{font-size:21.57px;font-family:MavenProMedium, Maven Pro;}.cls-11{letter-spacing:0em;}.cls-12{letter-spacing:-0.01em;}.cls-13{letter-spacing:-0.01em;}</style></defs><g class="cls-1"><g id="Capa_1" data-name="Capa 1"><path class="cls-2" d="M976.93,987.33V970.61h2.33v16.72Z"/><path class="cls-2" d="M983.08,987.33V975.88a12,12,0,0,1,5.34-1.28,5.28,5.28,0,0,1,3.72,1.24,4.4,4.4,0,0,1,1.35,3.43v8.06h-2.34v-8.24a2.54,2.54,0,0,0-.56-1.74,3,3,0,0,0-2.27-.64,9.67,9.67,0,0,0-3,.45v10.17Z"/><path class="cls-2" d="M997.68,980.85v-2h7.64v2Z"/><path class="cls-2" d="M1009.38,992.1V978.65a5.4,5.4,0,0,1,.07-.8,4.37,4.37,0,0,1,.38-1,3.56,3.56,0,0,1,.81-1.08,4.39,4.39,0,0,1,1.54-.8,7.84,7.84,0,0,1,2.39-.33,7.73,7.73,0,0,1,1.36.12,4.93,4.93,0,0,1,1.46.55,4.84,4.84,0,0,1,1.36,1.11,5.69,5.69,0,0,1,1,1.93,9.64,9.64,0,0,1,.38,2.87,9.07,9.07,0,0,1-.5,3.18,4.14,4.14,0,0,1-1.4,2,6.09,6.09,0,0,1-1.82.91,6.94,6.94,0,0,1-2,.28,9.39,9.39,0,0,1-2.66-.37v4.94Zm2.29-7.13a7.25,7.25,0,0,0,2.66.5,5.5,5.5,0,0,0,1.32-.14,3.06,3.06,0,0,0,1.08-.57,2.64,2.64,0,0,0,.8-1.3,7.86,7.86,0,0,0,.27-2.25,9.18,9.18,0,0,0-.27-2.42,2.92,2.92,0,0,0-.79-1.4,3.23,3.23,0,0,0-1-.6,4,4,0,0,0-1.15-.16c-1.93,0-2.9.63-2.9,1.88Z"/><path class="cls-2" d="M1023.57,987.33V970.06h2.29v17.27Z"/><path class="cls-2" d="M1029.09,983.38a3.29,3.29,0,0,1,1.57-2.9,7.73,7.73,0,0,1,4.33-1,18.7,18.7,0,0,1,2.27.14,3.09,3.09,0,0,0-.86-2.26,3.92,3.92,0,0,0-2.59-.69,10.67,10.67,0,0,0-3.46.63v-2a10.52,10.52,0,0,1,3.78-.67,5.65,5.65,0,0,1,4,1.35,5.11,5.11,0,0,1,1.43,3.89v3.61a4.34,4.34,0,0,1-.08.8,4.94,4.94,0,0,1-.38,1,3.52,3.52,0,0,1-.82,1.09,4.29,4.29,0,0,1-1.55.8,7.51,7.51,0,0,1-2.38.34,7.69,7.69,0,0,1-2.43-.35,4.57,4.57,0,0,1-1.57-.82,3.62,3.62,0,0,1-.84-1.1,3.82,3.82,0,0,1-.38-1.06A4.65,4.65,0,0,1,1029.09,983.38Zm2.29,0c0,1.42,1,2.12,3,2.12h0c1.89,0,2.84-.67,2.84-2v-2a14.77,14.77,0,0,0-2.18-.16,6.57,6.57,0,0,0-1,.09,9.16,9.16,0,0,0-1.18.29,2.25,2.25,0,0,0-1,.64A1.52,1.52,0,0,0,1031.38,983.35Z"/><path class="cls-2" d="M1043.61,985.87a8.46,8.46,0,0,1,0-9.59,5.53,5.53,0,0,1,4.34-1.65,10.06,10.06,0,0,1,3.68.69v2.18a7.93,7.93,0,0,0-3.44-.82h0a3.87,3.87,0,0,0-2.7.89c-.66.6-1,1.76-1,3.51a7.89,7.89,0,0,0,.28,2.3,2.76,2.76,0,0,0,.86,1.36,3.23,3.23,0,0,0,1.15.59,6.21,6.21,0,0,0,1.39.14,8,8,0,0,0,3.49-.8v2.17a10.06,10.06,0,0,1-3.68.69A5.5,5.5,0,0,1,1043.61,985.87Z"/><path class="cls-2" d="M1053.87,981.23q0-6.6,5.52-6.6h0a5.15,5.15,0,0,1,4,1.64,6.24,6.24,0,0,1,1.5,4.39c0,.59,0,1.17-.08,1.72h-8.64c.28,2.14,1.45,3.22,3.52,3.22a9.2,9.2,0,0,0,4.33-1v2.09a11.23,11.23,0,0,1-4.37.81h-.08a7.27,7.27,0,0,1-2-.27,6.08,6.08,0,0,1-1.81-.92,4.13,4.13,0,0,1-1.39-2A8.83,8.83,0,0,1,1053.87,981.23Zm2.3-.91h6.43a5.79,5.79,0,0,0-.21-1.2,5.2,5.2,0,0,0-.51-1.15,2.44,2.44,0,0,0-1-.94,3.13,3.13,0,0,0-1.52-.35,3,3,0,0,0-2.32.82A4.82,4.82,0,0,0,1056.17,980.32Z"/><path class="cls-2" d="M1076.25,981.23q0-6.6,5.52-6.6h0a5.15,5.15,0,0,1,4,1.64,6.24,6.24,0,0,1,1.5,4.39c0,.59,0,1.17-.08,1.72h-8.64c.28,2.14,1.45,3.22,3.52,3.22a9.2,9.2,0,0,0,4.33-1v2.09a11.23,11.23,0,0,1-4.37.81H1082a7.27,7.27,0,0,1-2-.27,6.08,6.08,0,0,1-1.81-.92,4.13,4.13,0,0,1-1.39-2A8.83,8.83,0,0,1,1076.25,981.23Zm2.3-.91H1085a5.79,5.79,0,0,0-.21-1.2,5.2,5.2,0,0,0-.51-1.15,2.44,2.44,0,0,0-1-.94,3.13,3.13,0,0,0-1.52-.35,3,3,0,0,0-2.32.82A4.82,4.82,0,0,0,1078.55,980.32Z"/><path class="cls-2" d="M1089,987.33l4.52-6.24-4.41-6.27h2.8l3,4.19,3-4.19h2.81l-4.42,6.1,4.52,6.41h-2.81l-3.05-4.33-3.06,4.33Z"/><path class="cls-2" d="M1102.68,981.23q0-6.6,5.52-6.6h0a5.15,5.15,0,0,1,4,1.64,6.24,6.24,0,0,1,1.5,4.39c0,.59,0,1.17-.08,1.72H1105c.28,2.14,1.45,3.22,3.53,3.22a9.13,9.13,0,0,0,4.32-1v2.09a11.23,11.23,0,0,1-4.37.81h-.07a7.3,7.3,0,0,1-2-.27,6.08,6.08,0,0,1-1.81-.92,4.13,4.13,0,0,1-1.39-2A8.83,8.83,0,0,1,1102.68,981.23Zm2.3-.91h6.43a5.79,5.79,0,0,0-.21-1.2,5.65,5.65,0,0,0-.5-1.15,2.47,2.47,0,0,0-1-.94,3.13,3.13,0,0,0-1.52-.35,2.94,2.94,0,0,0-2.31.82A4.74,4.74,0,0,0,1105,980.32Z"/><path class="cls-2" d="M1117.71,985.87a8.46,8.46,0,0,1,0-9.59,5.54,5.54,0,0,1,4.34-1.65,10.15,10.15,0,0,1,3.69.69v2.18a8,8,0,0,0-3.44-.82h0a3.9,3.9,0,0,0-2.71.89c-.65.6-1,1.76-1,3.51a7.86,7.86,0,0,0,.29,2.3,2.69,2.69,0,0,0,.86,1.36,3.23,3.23,0,0,0,1.15.59,6.21,6.21,0,0,0,1.39.14,8,8,0,0,0,3.49-.8v2.17a10.15,10.15,0,0,1-3.69.69A5.51,5.51,0,0,1,1117.71,985.87Z"/><path class="cls-2" d="M1128.53,982.07v-7.25h2.29v7.43a3.64,3.64,0,0,0,.72,2.5,3.65,3.65,0,0,0,4.55,0,3.67,3.67,0,0,0,.71-2.51v-7.43h2.29v7.25a5.62,5.62,0,0,1-1.38,4,6,6,0,0,1-7.79,0A5.58,5.58,0,0,1,1128.53,982.07Z"/><path class="cls-2" d="M1141.55,976.78v-2h2.18v-3.71H1146v3.71h3.33v2H1146V984c0,1,.62,1.46,1.85,1.46h0a2.76,2.76,0,0,0,1.45-.36v2.07a4.55,4.55,0,0,1-1.71.35h-.06a4.81,4.81,0,0,1-1-.11,6.53,6.53,0,0,1-1.23-.43,2.67,2.67,0,0,1-1.18-1.13,3.87,3.87,0,0,1-.47-2v-7.1Z"/><path class="cls-2" d="M1152.38,972.89v-2.43h2.43v2.43Zm.07,14.44V974.82h2.29v12.51Z"/><path class="cls-2" d="M1158.57,984.32a10.29,10.29,0,0,1,0-6.46,4.55,4.55,0,0,1,1.44-2,6,6,0,0,1,1.86-.93,7.9,7.9,0,0,1,4.17,0,5.8,5.8,0,0,1,1.86.93,4.4,4.4,0,0,1,1.44,2,10.11,10.11,0,0,1,0,6.46,4.31,4.31,0,0,1-1.44,2,5.63,5.63,0,0,1-1.86.94,7.9,7.9,0,0,1-4.17,0,5.83,5.83,0,0,1-1.86-.94A4.46,4.46,0,0,1,1158.57,984.32Zm2.09-5.54a9.67,9.67,0,0,0,0,4.62,2.65,2.65,0,0,0,.82,1.34,3.12,3.12,0,0,0,1.12.59,5.8,5.8,0,0,0,1.36.14,5.86,5.86,0,0,0,1.36-.14,3,3,0,0,0,1.11-.59,2.66,2.66,0,0,0,.83-1.34,10,10,0,0,0,0-4.62,2.66,2.66,0,0,0-.83-1.34,2.86,2.86,0,0,0-1.11-.59,5.86,5.86,0,0,0-1.36-.14,5.8,5.8,0,0,0-1.36.14,3,3,0,0,0-1.12.59A2.65,2.65,0,0,0,1160.66,978.78Z"/><path class="cls-2" d="M1172.76,987.33V975.88a12,12,0,0,1,5.33-1.28,5.28,5.28,0,0,1,3.73,1.24,4.4,4.4,0,0,1,1.35,3.43v8.06h-2.34v-8.24a2.5,2.5,0,0,0-.57-1.74,3,3,0,0,0-2.27-.64,9.61,9.61,0,0,0-2.94.45v10.17Z"/><path class="cls-2" d="M976.5,1015.9a10.11,10.11,0,0,1,0-6.46,4.34,4.34,0,0,1,1.44-2,6.16,6.16,0,0,1,1.86-.94,8.19,8.19,0,0,1,4.17,0,6.27,6.27,0,0,1,1.86.94,4.34,4.34,0,0,1,1.44,2,10.11,10.11,0,0,1,0,6.46,4.31,4.31,0,0,1-1.44,2,6,6,0,0,1-1.86.94,7.9,7.9,0,0,1-4.17,0,5.94,5.94,0,0,1-1.86-.94A4.31,4.31,0,0,1,976.5,1015.9Zm2.08-5.54a10,10,0,0,0,0,4.61,2.65,2.65,0,0,0,.83,1.35,3,3,0,0,0,1.11.58,6.29,6.29,0,0,0,2.73,0,3,3,0,0,0,1.11-.58,2.58,2.58,0,0,0,.82-1.35,9.63,9.63,0,0,0,0-4.61,2.66,2.66,0,0,0-.82-1.35,3.13,3.13,0,0,0-1.11-.58,6.29,6.29,0,0,0-2.73,0,3.13,3.13,0,0,0-1.11.58A2.74,2.74,0,0,0,978.58,1010.36Z"/><path class="cls-2" d="M989.34,1008.41v-2h1.75v-.6q0-4.66,4.16-4.67a5.13,5.13,0,0,1,1.36.18v2a4.47,4.47,0,0,0-.93-.1,6.15,6.15,0,0,0-.87,0,2,2,0,0,0-.7.28,1.3,1.3,0,0,0-.56.79,5.4,5.4,0,0,0-.17,1.49v.6h3.23v2h-3.23v10.5h-2.29v-10.5Z"/><path class="cls-2" d="M1006.6,1006.7a4.46,4.46,0,0,1,1.43-3.33,6.15,6.15,0,0,1,4.42-1.38,9.58,9.58,0,0,1,4.31,1v2.27a7.67,7.67,0,0,0-4-1.11c-2.53,0-3.79.85-3.79,2.53a1.46,1.46,0,0,0,.67,1.19,5.13,5.13,0,0,0,1.64.81,26.1,26.1,0,0,1,4.29,1.81,4.56,4.56,0,0,1,1.64,1.6,4.48,4.48,0,0,1,.66,2.44,3.94,3.94,0,0,1-1.6,3.35,7.27,7.27,0,0,1-4.44,1.21,11.29,11.29,0,0,1-5-1.2v-2.4a9.16,9.16,0,0,0,4.77,1.42q3.9,0,3.91-2.38a2.48,2.48,0,0,0-.66-1.73,3.91,3.91,0,0,0-1.63-1l-2.16-.72c-.78-.28-1.49-.55-2.15-.84a4,4,0,0,1-1.63-1.33A3.54,3.54,0,0,1,1006.6,1006.7Z"/><path class="cls-2" d="M1020.52,1010.54a12.26,12.26,0,0,1,.48-3.6,7.18,7.18,0,0,1,1.23-2.48,6.17,6.17,0,0,1,1.82-1.5,7.46,7.46,0,0,1,2.08-.77,11.51,11.51,0,0,1,2.17-.2,11.68,11.68,0,0,1,2.2.2,7.19,7.19,0,0,1,2.07.77,6.13,6.13,0,0,1,1.81,1.5,7,7,0,0,1,1.24,2.48,13.73,13.73,0,0,1-.08,7.48,6.31,6.31,0,0,1-1.52,2.6,6.87,6.87,0,0,1-2,1.4,8.06,8.06,0,0,1-2.39.61,2.49,2.49,0,0,0,.67,1.73,2.33,2.33,0,0,0,1.83.73v1.83a4.85,4.85,0,0,1-3.43-1.24,3.91,3.91,0,0,1-1.36-3,8.59,8.59,0,0,1-2.47-.57,6.91,6.91,0,0,1-2.13-1.36,6.1,6.1,0,0,1-1.59-2.61A12.15,12.15,0,0,1,1020.52,1010.54Zm2.68-2.86a10.48,10.48,0,0,0-.34,2.86,10.61,10.61,0,0,0,.34,2.87,6,6,0,0,0,.84,1.89,3.79,3.79,0,0,0,1.27,1.08,4.59,4.59,0,0,0,1.45.51,10.83,10.83,0,0,0,3.08,0,4.51,4.51,0,0,0,1.45-.51,3.83,3.83,0,0,0,1.28-1.08,5.56,5.56,0,0,0,.85-1.89,11,11,0,0,0,.34-2.87,10.88,10.88,0,0,0-.34-2.86,5.5,5.5,0,0,0-.84-1.88,3.7,3.7,0,0,0-1.27-1.08,4.73,4.73,0,0,0-1.46-.51,11,11,0,0,0-3.11,0,4.67,4.67,0,0,0-1.43.51,3.79,3.79,0,0,0-1.27,1.08A5.91,5.91,0,0,0,1023.2,1007.68Z"/><path class="cls-2" d="M1039.56,1018.91v-16.72h2.34v14.54h8.3v2.18Z"/><path class="cls-2" d="M1060.59,1012.79a9.58,9.58,0,0,1,.39-2.87,5.69,5.69,0,0,1,1-1.93,4.39,4.39,0,0,1,1.35-1.11,5.28,5.28,0,0,1,1.46-.56,7.76,7.76,0,0,1,1.37-.12,7.51,7.51,0,0,1,2.38.34,4.18,4.18,0,0,1,1.53.8,3.44,3.44,0,0,1,.82,1.08,4.62,4.62,0,0,1,.37,1,4.22,4.22,0,0,1,.07.79v13.44H1069v-4.93a9.69,9.69,0,0,1-2.65.37,7.27,7.27,0,0,1-2-.27,5.51,5.51,0,0,1-1.81-.91,4.27,4.27,0,0,1-1.39-2A8.61,8.61,0,0,1,1060.59,1012.79Zm2.29,0a7.58,7.58,0,0,0,.28,2.25,2.57,2.57,0,0,0,.8,1.3,2.8,2.8,0,0,0,1.06.56,5,5,0,0,0,1.32.15,7.25,7.25,0,0,0,2.65-.5v-6.47c0-1.25-1-1.87-2.88-1.87a3.67,3.67,0,0,0-1.15.16,3.23,3.23,0,0,0-1,.6,2.78,2.78,0,0,0-.78,1.41A8.67,8.67,0,0,0,1062.88,1012.79Z"/><path class="cls-2" d="M1074.83,1013.65v-7.25h2.29v7.43a3.61,3.61,0,0,0,.73,2.5,2.93,2.93,0,0,0,2.28.79,2.89,2.89,0,0,0,2.26-.79,3.62,3.62,0,0,0,.72-2.5v-7.43h2.29v7.25a5.57,5.57,0,0,1-1.39,4,5.12,5.12,0,0,1-3.88,1.44,5.18,5.18,0,0,1-3.9-1.44A5.57,5.57,0,0,1,1074.83,1013.65Z"/><path class="cls-2" d="M1088.66,1012.8q0-6.6,5.53-6.6h0a5.19,5.19,0,0,1,4,1.64,6.27,6.27,0,0,1,1.5,4.39c0,.6,0,1.17-.07,1.72H1091q.42,3.22,3.53,3.22a9.13,9.13,0,0,0,4.32-.94v2.09a11.23,11.23,0,0,1-4.37.81h-.07a6.94,6.94,0,0,1-2-.28,5.82,5.82,0,0,1-1.81-.91,4.25,4.25,0,0,1-1.39-2A8.85,8.85,0,0,1,1088.66,1012.8Zm2.31-.9h6.42a5.79,5.79,0,0,0-.21-1.2,5.42,5.42,0,0,0-.5-1.15,2.4,2.4,0,0,0-1-.94,3.12,3.12,0,0,0-1.51-.35,3,3,0,0,0-2.32.81A4.74,4.74,0,0,0,1091,1011.9Z"/><path class="cls-2" d="M1102.67,1018.91v-11.46a16.47,16.47,0,0,1,6.1-1.25v2.11a15.87,15.87,0,0,0-3.81.52v10.08Z"/><path class="cls-2" d="M1111.32,1004.46V1002h2.43v2.42Zm.07,14.45V1006.4h2.29v12.51Z"/><path class="cls-2" d="M1117.14,1012.8q0-6.6,5.52-6.6h0a5.19,5.19,0,0,1,4,1.64,6.27,6.27,0,0,1,1.5,4.39c0,.6,0,1.17-.08,1.72h-8.64c.28,2.15,1.45,3.22,3.53,3.22a9.16,9.16,0,0,0,4.32-.94v2.09a11.23,11.23,0,0,1-4.37.81h-.08a6.92,6.92,0,0,1-2-.28,5.82,5.82,0,0,1-1.81-.91,4.18,4.18,0,0,1-1.39-2A8.85,8.85,0,0,1,1117.14,1012.8Zm2.3-.9h6.43a5.79,5.79,0,0,0-.21-1.2,5,5,0,0,0-.51-1.15,2.32,2.32,0,0,0-1-.94,3.13,3.13,0,0,0-1.52-.35,3,3,0,0,0-2.32.81A4.88,4.88,0,0,0,1119.44,1011.9Z"/><path class="cls-2" d="M1130.6,1009.93a3.6,3.6,0,0,1,1.1-2.64,4.7,4.7,0,0,1,3.39-1.09,7.55,7.55,0,0,1,3.35.82v2a7.51,7.51,0,0,0-3.07-.74c-1.66,0-2.48.53-2.48,1.6a1,1,0,0,0,.66.87,8,8,0,0,0,1.59.61,19.5,19.5,0,0,1,1.86.64,3.7,3.7,0,0,1,1.6,1.25,3.68,3.68,0,0,1-.47,4.78,4.92,4.92,0,0,1-3.52,1.1,7.45,7.45,0,0,1-3.61-.88v-2.1a7,7,0,0,0,3.47.92h0a3.27,3.27,0,0,0,1.84-.43,1.3,1.3,0,0,0,.63-1.11,1.47,1.47,0,0,0-.66-1.24,5,5,0,0,0-1.6-.73c-.63-.18-1.25-.37-1.88-.59a3.65,3.65,0,0,1-1.59-1.07A2.89,2.89,0,0,1,1130.6,1009.93Z"/><path class="cls-3" d="M908.68,1023.61a32.43,32.43,0,0,0,42.72-10,2.49,2.49,0,0,0-.83-3.57h0a2.5,2.5,0,0,0-3.29.77,27.41,27.41,0,1,1-13-41.06l-8.13,5.46a2.49,2.49,0,0,0-.67,3.46h0a2.49,2.49,0,0,0,3.46.68l11.8-7.94a2.56,2.56,0,0,0,.77-.84,2.48,2.48,0,0,0,.15-2.16l-5-12.5a2.5,2.5,0,0,0-3.24-1.38h0a2.49,2.49,0,0,0-1.39,3.24l2.74,6.84a32.39,32.39,0,0,0-26.09,59Z"/><path class="cls-4" d="M903,991.45a4.94,4.94,0,0,1,2-4.27,8.27,8.27,0,0,1,5-1.43,11.32,11.32,0,0,1,5.24,1.35v3.44a8.63,8.63,0,0,0-4.83-1.48,6.12,6.12,0,0,0-2.73.55,1.86,1.86,0,0,0-1.12,1.76,1.69,1.69,0,0,0,1,1.52,11.52,11.52,0,0,0,2.47.92,25.3,25.3,0,0,1,2.91,1,5.49,5.49,0,0,1,2.48,2,6,6,0,0,1,1,3.63,4.61,4.61,0,0,1-1.95,3.83,7.65,7.65,0,0,1-4.77,1.49,12.27,12.27,0,0,1-6.43-1.64v-3.54a9.18,9.18,0,0,0,5.62,1.87q4,0,4-2.24a2.18,2.18,0,0,0-.72-1.68,4.6,4.6,0,0,0-1.84-1c-.75-.21-1.54-.46-2.39-.75s-1.64-.61-2.38-1a4.43,4.43,0,0,1-1.84-1.61A4.77,4.77,0,0,1,903,991.45Z"/><path class="cls-4" d="M919.71,995.71a14,14,0,0,1,.56-4.2,8.24,8.24,0,0,1,1.43-2.88,6.93,6.93,0,0,1,2.12-1.75,8.58,8.58,0,0,1,2.44-.91,15,15,0,0,1,5.12,0,8.69,8.69,0,0,1,2.42.91,7.09,7.09,0,0,1,2.13,1.75,8.26,8.26,0,0,1,1.45,2.88,16.1,16.1,0,0,1,.1,8,8.82,8.82,0,0,1-1.2,2.76,6.81,6.81,0,0,1-1.79,1.8,7.79,7.79,0,0,1-2.12,1.06,11.47,11.47,0,0,1-2.29.45,2.1,2.1,0,0,0,1,1.94,4.48,4.48,0,0,0,2.36.61v2.73c-4.16,0-6.25-1.77-6.25-5.31a9.85,9.85,0,0,1-2.75-.75,8,8,0,0,1-2.35-1.65,7,7,0,0,1-1.74-3A14.31,14.31,0,0,1,919.71,995.71Zm3.94-3.61a15.37,15.37,0,0,0,0,7.22,4.23,4.23,0,0,0,1.3,2.12,4.87,4.87,0,0,0,1.74.91,9.93,9.93,0,0,0,4.25,0,4.79,4.79,0,0,0,1.76-.91,4.22,4.22,0,0,0,1.29-2.12,15,15,0,0,0,0-7.22A4.19,4.19,0,0,0,932.7,990a4.67,4.67,0,0,0-1.76-.92,9.93,9.93,0,0,0-4.25,0A4.75,4.75,0,0,0,925,990,4.2,4.2,0,0,0,923.65,992.1Z"/><path class="cls-4" d="M941.89,1005.46V986h3.51v16.18h9.37v3.31Z"/><rect class="cls-5" x="874.52" y="935.36" width="334.33" height="118.48" rx="12"/><rect class="cls-6" x="310.14" y="204.67" width="630.18" height="86.1" rx="5.74"/><path class="cls-4" d="M481.37,244.78a5.34,5.34,0,0,1,1.72-4q1.71-1.65,5.31-1.65a11.63,11.63,0,0,1,5.18,1.22v2.73a9.22,9.22,0,0,0-4.85-1.33q-4.55,0-4.55,3a1.78,1.78,0,0,0,.8,1.43,6.42,6.42,0,0,0,2,1c.78.24,1.64.56,2.57.94a25.84,25.84,0,0,1,2.58,1.24,5.48,5.48,0,0,1,2.77,4.85,4.78,4.78,0,0,1-1.93,4,8.74,8.74,0,0,1-5.33,1.44,13.55,13.55,0,0,1-6-1.44v-2.88a10.82,10.82,0,0,0,5.73,1.7q4.68,0,4.7-2.85a3,3,0,0,0-.8-2.08,4.46,4.46,0,0,0-2-1.24l-2.59-.88c-.94-.33-1.8-.66-2.58-1a4.83,4.83,0,0,1-2-1.6A4.32,4.32,0,0,1,481.37,244.78Z"/><path class="cls-4" d="M499.11,259.45v-20.1h7.26a7.48,7.48,0,0,1,5.18,1.66,6.82,6.82,0,0,1,0,9.34,7.52,7.52,0,0,1-5.19,1.65h-4.44v7.45Zm2.81-9.92h4.18c1.78,0,3-.34,3.58-1a4.75,4.75,0,0,0,0-5.58c-.6-.69-1.8-1-3.59-1h-4.18Z"/><path class="cls-4" d="M514,259.45l8-20.1h2.74l8,20.1h-3l-2.16-5.64h-8.39L517,259.45Zm6.17-8.26h6.39l-3.19-8.34Z"/><path class="cls-4" d="M535.78,259.45v-20.1h7.42a8.17,8.17,0,0,1,5.3,1.58,5.47,5.47,0,0,1,1.94,4.5,5.7,5.7,0,0,1-1.29,3.92,6.57,6.57,0,0,1-3.22,2l5.34,8.1H548l-4.85-7.65h-4.52v7.65Zm2.81-10.27h4.49c1.75,0,2.94-.34,3.58-1a3.7,3.7,0,0,0,1-2.64c0-2.46-1.56-3.7-4.67-3.7h-4.37Z"/><path class="cls-4" d="M554.73,259.45v-20.1h2.81v9.73l9.21-9.73h3.53l-8.53,9.09,9.28,11h-3.46l-7.66-9L557.54,253v6.5Z"/><path class="cls-4" d="M583.23,259.45l8-20.1H594l8,20.1h-3l-2.16-5.64H588.4l-2.16,5.64Zm6.17-8.26h6.39l-3.2-8.34Z"/><path class="cls-4" d="M605.38,259.45v-20.1h7.25a7.52,7.52,0,0,1,5.19,1.66,6.85,6.85,0,0,1,0,9.34,7.52,7.52,0,0,1-5.19,1.65h-4.44v7.45Zm2.81-9.92h4.18c1.78,0,3-.34,3.58-1a4.77,4.77,0,0,0,0-5.58c-.59-.69-1.79-1-3.58-1h-4.18Z"/><path class="cls-4" d="M623.32,259.45v-20.1h7.26a7.52,7.52,0,0,1,5.19,1.66,6.83,6.83,0,0,1,0,9.34,7.49,7.49,0,0,1-5.19,1.65h-4.44v7.45Zm2.81-9.92h4.18c1.79,0,3-.34,3.58-1a4.75,4.75,0,0,0,0-5.58c-.6-.69-1.79-1-3.59-1h-4.18Z"/><path class="cls-4" d="M641.21,259.45v-20.1H644v17.48h10v2.62Z"/><path class="cls-4" d="M657.92,259.45v-20.1h2.81v20.1Z"/><path class="cls-4" d="M665.61,253.72a17.36,17.36,0,0,1,0-8.67,8.71,8.71,0,0,1,1.44-3,6.86,6.86,0,0,1,2.15-1.81,8.7,8.7,0,0,1,2.51-.94,14.29,14.29,0,0,1,2.6-.23,16.69,16.69,0,0,1,6.15,1.19v2.6a14.24,14.24,0,0,0-5.83-1.26q-3.55,0-5.16,1.83t-1.6,5.94q0,4.05,1.6,5.91t5.16,1.85a14.24,14.24,0,0,0,5.83-1.26v2.59a16.5,16.5,0,0,1-6.15,1.2,14.29,14.29,0,0,1-2.6-.23,8.7,8.7,0,0,1-2.51-.94,6.86,6.86,0,0,1-2.15-1.81A8.71,8.71,0,0,1,665.61,253.72Z"/><path class="cls-4" d="M683.17,259.45l8-20.1h2.74l8,20.1h-3l-2.16-5.64h-8.39l-2.16,5.64Zm6.17-8.26h6.39l-3.2-8.34Z"/><path class="cls-4" d="M700.85,242v-2.62h16.32V242h-6.78v17.48h-2.81V242Z"/><path class="cls-4" d="M720.44,259.45v-20.1h2.81v20.1Z"/><path class="cls-4" d="M728.15,253.72a16.49,16.49,0,0,1,0-8.67,8.73,8.73,0,0,1,1.48-3,7.12,7.12,0,0,1,2.19-1.81,8.54,8.54,0,0,1,2.5-.94,14.81,14.81,0,0,1,5.2,0,8.54,8.54,0,0,1,2.5.94,7.24,7.24,0,0,1,2.19,1.81,8.73,8.73,0,0,1,1.47,3,16.49,16.49,0,0,1,0,8.67,8.73,8.73,0,0,1-1.47,3,7.24,7.24,0,0,1-2.19,1.81,8.54,8.54,0,0,1-2.5.94,14.81,14.81,0,0,1-5.2,0,8.54,8.54,0,0,1-2.5-.94,7.12,7.12,0,0,1-2.19-1.81A8.73,8.73,0,0,1,728.15,253.72Zm2.65-7.78a14.38,14.38,0,0,0,0,6.9,7,7,0,0,0,1,2.27,4.42,4.42,0,0,0,1.52,1.29,5.58,5.58,0,0,0,1.73.62,13.37,13.37,0,0,0,3.72,0,5.58,5.58,0,0,0,1.73-.62,4.45,4.45,0,0,0,1.53-1.29,7,7,0,0,0,1-2.27,14.72,14.72,0,0,0,0-6.9,7,7,0,0,0-1-2.28,4.45,4.45,0,0,0-1.53-1.29,5.85,5.85,0,0,0-1.73-.62,13.37,13.37,0,0,0-3.72,0,5.85,5.85,0,0,0-1.73.62,4.42,4.42,0,0,0-1.52,1.29A7,7,0,0,0,730.8,245.94Z"/><path class="cls-4" d="M750.45,259.45v-20.1h3.19l11.24,16v-16h2.81v20.1h-3.11l-11.32-16.1v16.1Z"/><rect class="cls-6" x="309.73" y="538.34" width="630.98" height="86.99" rx="5.74"/><path class="cls-4" d="M413.56,576.57a5.35,5.35,0,0,1,1.71-4q1.73-1.66,5.31-1.66a11.47,11.47,0,0,1,5.18,1.23v2.73a9.17,9.17,0,0,0-4.84-1.34q-4.55,0-4.55,3.05a1.76,1.76,0,0,0,.8,1.42,6.15,6.15,0,0,0,2,1c.79.25,1.64.56,2.58.95a22.77,22.77,0,0,1,2.57,1.23,5.46,5.46,0,0,1,2.77,4.86,4.73,4.73,0,0,1-1.93,4,8.72,8.72,0,0,1-5.33,1.45,13.58,13.58,0,0,1-6-1.44v-2.89a10.89,10.89,0,0,0,5.73,1.71c3.13,0,4.69-1,4.7-2.85a3,3,0,0,0-.79-2.08,4.51,4.51,0,0,0-2-1.25l-2.58-.88c-.94-.32-1.8-.66-2.58-1a4.74,4.74,0,0,1-2-1.59A4.28,4.28,0,0,1,413.56,576.57Z"/><path class="cls-4" d="M431,591.23V571.14h2.81v8.74h9.62v-8.74h2.75v20.09h-2.75V582.5h-9.62v8.73Z"/><path class="cls-4" d="M449.64,591.23l8-20.09h2.74l8,20.09h-3l-2.17-5.63h-8.38l-2.16,5.63Zm6.18-8.25h6.38L459,574.64Z"/><path class="cls-4" d="M471.47,591.23V571.14h7.42a8.17,8.17,0,0,1,5.3,1.58,5.46,5.46,0,0,1,1.93,4.49,5.76,5.76,0,0,1-1.28,3.93,6.55,6.55,0,0,1-3.22,2l5.34,8.1h-3.31l-4.85-7.65h-4.52v7.65ZM474.28,581h4.49c1.74,0,2.94-.34,3.58-1a3.72,3.72,0,0,0,1-2.65q0-3.69-4.66-3.69h-4.37Z"/><path class="cls-4" d="M490.57,591.23V571.14h13.1v2.62H493.38v6.12h9.06v2.62h-9.06v6.11h10.29v2.62Z"/><path class="cls-4" d="M507.82,591.23V571.14h6.41c3.08,0,5.43.85,7,2.56s2.4,4.21,2.4,7.5-.8,5.79-2.39,7.49-3.94,2.54-7,2.54Zm2.81-2.47h3.16q3.68,0,5.39-1.82t1.72-5.74q0-3.94-1.72-5.77t-5.39-1.82h-3.16Z"/><path class="cls-4" d="M538.3,591.23V571.14h7.41a8.18,8.18,0,0,1,5.31,1.58,5.46,5.46,0,0,1,1.93,4.49,5.71,5.71,0,0,1-1.29,3.93,6.52,6.52,0,0,1-3.21,2l5.34,8.1h-3.31l-4.85-7.65h-4.52v7.65ZM541.11,581h4.49c1.74,0,2.94-.34,3.58-1a3.72,3.72,0,0,0,1-2.65q0-3.69-4.66-3.69h-4.37Z"/><path class="cls-4" d="M557.39,591.23V571.14h6.41q4.63,0,7,2.56c1.59,1.7,2.39,4.21,2.39,7.5s-.79,5.79-2.39,7.49-3.93,2.54-7,2.54Zm2.81-2.47h3.17c2.45,0,4.24-.61,5.39-1.82s1.71-3.13,1.71-5.74-.57-4.55-1.71-5.77-2.94-1.82-5.39-1.82H560.2Z"/><path class="cls-4" d="M577.69,591.23V571.14h6.41q4.64,0,7,2.56c1.59,1.7,2.39,4.21,2.39,7.5s-.79,5.79-2.39,7.49-3.93,2.54-7,2.54Zm2.81-2.47h3.17c2.45,0,4.24-.61,5.39-1.82s1.71-3.13,1.71-5.74-.57-4.55-1.71-5.77-2.94-1.82-5.39-1.82H580.5Z"/><path class="cls-4" d="M596.88,580.44a4.27,4.27,0,0,1,1.33-3.17,5.58,5.58,0,0,1,4.06-1.31,9,9,0,0,1,4,1v2.38a8.84,8.84,0,0,0-3.69-.89c-2,0-3,.64-3,1.92a1.22,1.22,0,0,0,.79,1,10.62,10.62,0,0,0,1.91.73,21.9,21.9,0,0,1,2.24.76,4.47,4.47,0,0,1,1.92,1.5,4.25,4.25,0,0,1,.8,2.62,4.2,4.2,0,0,1-1.36,3.13,5.89,5.89,0,0,1-4.23,1.32,8.8,8.8,0,0,1-4.34-1.06V587.9a8.38,8.38,0,0,0,4.16,1.1h.06a3.93,3.93,0,0,0,2.2-.52,1.55,1.55,0,0,0,.76-1.33,1.74,1.74,0,0,0-.79-1.49,5.87,5.87,0,0,0-1.92-.88c-.75-.21-1.51-.45-2.26-.7a4.38,4.38,0,0,1-1.91-1.3A3.44,3.44,0,0,1,596.88,580.44Z"/><path class="cls-4" d="M620.31,585.55a6.36,6.36,0,0,1,.84-3.18,8.16,8.16,0,0,1,3.26-2.83,6.84,6.84,0,0,1-1.88-4,4.69,4.69,0,0,1,4.71-4.68,4.64,4.64,0,0,1,3.35,1.32,4.31,4.31,0,0,1,1.37,3.23,4.36,4.36,0,0,1-.83,2.7,9.29,9.29,0,0,1-2.71,2.19l3.92,4.7a12,12,0,0,0,.78-2.6h2.75a12.14,12.14,0,0,1-1.8,4.61l3.51,4.21h-3.35l-1.76-2.09a7.71,7.71,0,0,1-5.61,2.33h-.05a7.42,7.42,0,0,1-3-.58,5.31,5.31,0,0,1-2-1.52,7.23,7.23,0,0,1-1.1-1.92A5.21,5.21,0,0,1,620.31,585.55Zm2.75.09a3.06,3.06,0,0,0,.16,1,4.67,4.67,0,0,0,.56,1.12,3.06,3.06,0,0,0,1.23,1,4.54,4.54,0,0,0,2,.39,5.25,5.25,0,0,0,4-1.81l-4.83-5.83a9.41,9.41,0,0,0-1.76,1.17,3.3,3.3,0,0,0-.94,1.19,4.6,4.6,0,0,0-.31.95A5.17,5.17,0,0,0,623.06,585.64Zm2.61-11.91a2.18,2.18,0,0,0-.67,1.63c0,.64.56,1.64,1.69,3a9.29,9.29,0,0,0,2.29-1.63,2.21,2.21,0,0,0,.54-1.48,2.12,2.12,0,0,0-.64-1.55,2.33,2.33,0,0,0-3.21,0Z"/><path class="cls-4" d="M651,591.23V571.14h6.41q4.64,0,7,2.56c1.59,1.7,2.39,4.21,2.39,7.5s-.79,5.79-2.39,7.49-3.93,2.54-7,2.54Zm2.81-2.47h3.17c2.45,0,4.24-.61,5.39-1.82s1.71-3.13,1.71-5.74-.57-4.55-1.71-5.77-2.94-1.82-5.39-1.82h-3.17Z"/><path class="cls-4" d="M668.82,591.23l8-20.09h2.74l8,20.09h-3l-2.17-5.63H674l-2.16,5.63ZM675,583h6.38l-3.19-8.34Z"/><path class="cls-4" d="M686.5,573.76v-2.62h16.33v2.62h-6.78v17.47h-2.81V573.76Z"/><path class="cls-4" d="M702.35,591.23l8-20.09h2.74l8,20.09h-3l-2.16-5.63h-8.39l-2.16,5.63Zm6.17-8.25h6.39l-3.19-8.34Z"/><path class="cls-4" d="M724.12,591.23V571.14h12.65v2.62h-9.84v6.12h8.66v2.62h-8.66v8.73Z"/><path class="cls-4" d="M740.47,591.23V571.14h7.42a8.17,8.17,0,0,1,5.3,1.58,5.47,5.47,0,0,1,1.94,4.49,5.71,5.71,0,0,1-1.29,3.93,6.55,6.55,0,0,1-3.22,2l5.34,8.1h-3.31l-4.85-7.65h-4.52v7.65ZM743.28,581h4.49c1.75,0,2.94-.34,3.58-1a3.73,3.73,0,0,0,1-2.65q0-3.69-4.67-3.69h-4.37Z"/><path class="cls-4" d="M758.48,591.23l8-20.09h2.73l8,20.09h-3L772,585.6h-8.38l-2.16,5.63Zm6.18-8.25H771l-3.19-8.34Z"/><path class="cls-4" d="M780.31,591.23V571.14h3l6.59,8.68,6.62-8.68h3.05v20.09H796.8V575.39l-6.86,9-6.82-9v15.84Z"/><path class="cls-4" d="M804.6,591.23V571.14h13.1v2.62H807.41v6.12h9.06v2.62h-9.06v6.11H817.7v2.62Z"/><path class="cls-4" d="M821.19,576.57a5.35,5.35,0,0,1,1.71-4q1.73-1.66,5.31-1.66a11.47,11.47,0,0,1,5.18,1.23v2.73a9.17,9.17,0,0,0-4.84-1.34q-4.54,0-4.55,3.05a1.74,1.74,0,0,0,.8,1.42,6.15,6.15,0,0,0,2,1c.79.25,1.64.56,2.58.95a22.77,22.77,0,0,1,2.57,1.23,5.46,5.46,0,0,1,2.77,4.86,4.73,4.73,0,0,1-1.93,4,8.72,8.72,0,0,1-5.33,1.45,13.58,13.58,0,0,1-6-1.44v-2.89a10.89,10.89,0,0,0,5.73,1.71c3.13,0,4.69-1,4.7-2.85a3,3,0,0,0-.79-2.08,4.56,4.56,0,0,0-2-1.25l-2.58-.88c-.94-.32-1.8-.66-2.58-1a4.74,4.74,0,0,1-2-1.59A4.28,4.28,0,0,1,821.19,576.57Z"/><rect class="cls-6" x="756.86" y="312.02" width="183.86" height="140.92" rx="8.1"/><path class="cls-3" d="M855.61,507.84a2,2,0,0,1-.48,1.31l-7.35,8.59a2,2,0,0,1-3,0l-7.35-8.59a2,2,0,0,1,3.05-2.61l5.82,6.82,5.83-6.82a2,2,0,0,1,3.52,1.3Z"/><path class="cls-3" d="M848.26,468.89V515.5a2,2,0,1,1-4,0V468.89a2,2,0,0,1,4,0Z"/><path class="cls-3" d="M836.91,476.33a2,2,0,0,1,.48-1.3l7.35-8.6a2,2,0,0,1,3,0l7.35,8.6a2,2,0,0,1-3,2.6l-5.83-6.81-5.82,6.81a2,2,0,0,1-3.53-1.3Z"/><path class="cls-4" d="M799.67,417.78h2.48l3.16,10.38,3.34-10.38h2.16l3.23,10,3.07-10h2.48l-4.41,13.78h-2.35l-3.09-9.63-3.1,9.63h-2.55Z"/><path class="cls-4" d="M821.31,424.67a10.18,10.18,0,0,1,.39-3,5.9,5.9,0,0,1,1-2,5,5,0,0,1,1.49-1.24,6,6,0,0,1,1.72-.64,10.26,10.26,0,0,1,3.61,0,5.89,5.89,0,0,1,1.71.64,5,5,0,0,1,1.51,1.24,6.08,6.08,0,0,1,1,2,11.5,11.5,0,0,1,0,5.94,6,6,0,0,1-1,2.05,5.17,5.17,0,0,1-1.51,1.23,5.89,5.89,0,0,1-1.71.64,10.26,10.26,0,0,1-3.61,0,6,6,0,0,1-1.72-.64,5.08,5.08,0,0,1-1.49-1.23,5.86,5.86,0,0,1-1-2.05A10.28,10.28,0,0,1,821.31,424.67Zm2.48,0a8.89,8.89,0,0,0,.31,2.57,2.88,2.88,0,0,0,.91,1.49,3.34,3.34,0,0,0,1.23.65,5.5,5.5,0,0,0,1.49.17,7.28,7.28,0,0,0,1.23-.09,3.38,3.38,0,0,0,1-.39,2.34,2.34,0,0,0,.89-.82,4.68,4.68,0,0,0,.57-1.44,10.37,10.37,0,0,0-.08-4.69,2.87,2.87,0,0,0-.92-1.49,3.31,3.31,0,0,0-1.23-.64,5.92,5.92,0,0,0-1.51-.16,7.16,7.16,0,0,0-1.2.09,3.53,3.53,0,0,0-1.06.39,2.5,2.5,0,0,0-.89.82,4.74,4.74,0,0,0-.56,1.41A8.79,8.79,0,0,0,823.79,424.65Z"/><path class="cls-4" d="M837.16,431.56V417.78h5.29a5.58,5.58,0,0,1,3.76,1.15,4.08,4.08,0,0,1,1.35,3.29,3.9,3.9,0,0,1-3,4.07l3.62,5.27h-3l-3.28-4.86h-2.23v4.86Zm2.48-7.13h2.74a3.72,3.72,0,0,0,2-.45,2.41,2.41,0,0,0,0-3.42,3.82,3.82,0,0,0-2-.44h-2.74Z"/><path class="cls-4" d="M850.54,431.56V417.78H853v5.83l5.21-5.83h3.33L856,423.83l6.13,7.73H859l-4.63-6L853,427.1v4.46Z"/><path class="cls-4" d="M864.34,431.56V417.78h9.17V420h-6.69v3.49h5.8v2.34h-5.8v3.49h6.69v2.23Z"/><path class="cls-4" d="M876.36,431.56V417.78h5.29a5.61,5.61,0,0,1,3.77,1.15,4.11,4.11,0,0,1,1.34,3.29,3.91,3.91,0,0,1-3,4.07l3.62,5.27h-3l-3.29-4.86h-2.23v4.86Zm2.48-7.13h2.75a3.72,3.72,0,0,0,2-.45,2.41,2.41,0,0,0,0-3.42,3.82,3.82,0,0,0-2-.44h-2.75Z"/><path class="cls-7" d="M919.63,341.05a7,7,0,0,1-1.62,2.66c-1.72,2.05-3.44,4.09-5.19,6.13-1.07,1.27-2.14,2.5-3.24,3.73l-1.4,1.62.3.72c.09.19.16.38.26.58l1.78,3.34c.91,1.69,1.78,3.34,2.66,5l.29.48c.39.78.81,1.56,1.14,2.34a3.51,3.51,0,0,1-.2,3.37,3.67,3.67,0,0,1-3,1.56,8,8,0,0,1-1.94-.2c-2.34-.68-4.64-1.39-6.94-2.11l-2-.64-.78-4.61c1.4.32,2.73.71,4,1.1s2.76.78,4.16,1.14l.51.13.33-.46a1.45,1.45,0,0,0-.07-1.75l-2.46-4.6-2.66-5a.49.49,0,0,0-.1-.16,2.26,2.26,0,0,0,.13-.2l8.37-9.85a1.8,1.8,0,0,0,.32-.52l.55-1.3-1.49.1a2.58,2.58,0,0,0-.48,0L899,346.83c-.17.06-.23.06-.26.09a1,1,0,0,1-.17-.26l-5.22-8.59c-.13-.26-.29-.52-.45-.81l-.81-1.36-.75.71a2.85,2.85,0,0,0-.74,1.85c0,.1,0,.23,0,.32q-1,5.5-1.94,11l.78.13h-.94l-8.76,2.72-3,1a3.48,3.48,0,0,0-.55.2l-2.43.87,1.91.81c2,.81,3.9,1.59,5.78,2.31l3,1.16c-1.27.94-3.57,2.44-5.12,3.34l-6.1-2.69c-.58-.26-1.14-.48-1.69-.78a5.57,5.57,0,0,1-2.91-2.82,2.85,2.85,0,0,1,.84-3.3,8.32,8.32,0,0,1,3.4-1.66l2.47-.81c2.88-.91,5.77-1.82,8.66-2.69a2.14,2.14,0,0,0,1.62-1.88c.23-1.4.48-2.76.71-4.15l.62-3.37c.19-1.27.42-2.53.68-3.8a6.75,6.75,0,0,1,2-3.86,2.59,2.59,0,0,1,3.6-.1,10,10,0,0,1,2,2.63l.13.23c1.24,2,2.4,4,3.6,6l1.27,2.17a1.57,1.57,0,0,0,2.17.78l3-.81c3.47-.91,7-1.85,10.47-2.76a3.87,3.87,0,0,1,2.73.19A1.73,1.73,0,0,1,919.63,341.05Z"/><path class="cls-3" d="M829.38,377.57a10.66,10.66,0,0,0-5.83-7.49,13.27,13.27,0,0,0-8.18-1,14,14,0,0,0-7.42,3.51,12.78,12.78,0,0,0-4.16,6.83c-.41,1.45-.9,5.68-1,6.2-.19,1.33-.35,2.66-.52,4L801,399.1c-.1.71-.2,1.46-.29,2.17-.07.49-.1,1-.16,1.43h4.31l1.69-11.19a7.89,7.89,0,0,0,2.19,1.9,14.09,14.09,0,0,0,7.32,1.58c5.76-.22,9.88-2.93,12.2-7.53A16.47,16.47,0,0,0,829.38,377.57Zm-4.47,5.48c-.79,4.05-3,6.72-7.54,7.62-5.72,1.11-9.84-3-9.65-7.39s2.21-8.18,7.23-9.64a8.06,8.06,0,0,1,7,1C824.65,376.5,825.55,379.74,824.91,383.05Z"/><path class="cls-3" d="M798.22,379.77a7.64,7.64,0,0,1,1.14,4.51A11.42,11.42,0,0,1,795.5,392a11.93,11.93,0,0,1-6.75,3.11,13.3,13.3,0,0,1-4.57-.09,7.86,7.86,0,0,1-5.84-5c-.19-.39-.32-.81-.48-1.23l5-2.69.2.35c.26.52.55,1,.84,1.56a5.41,5.41,0,0,0,7.3,1.75A4.81,4.81,0,0,0,794,386.1a4.34,4.34,0,0,0-.85-3.18,21.38,21.38,0,0,0-2-2.34l-.68-.71a64.34,64.34,0,0,1-4.67-5.19,12.51,12.51,0,0,1-1.72-2.88,7.57,7.57,0,0,1,.65-6.59,11.68,11.68,0,0,1,8.24-5.77,9.78,9.78,0,0,1,4.34.2,8.42,8.42,0,0,1,4.25,2.82c.39.45.75.94,1.14,1.42l.09.17-4.6,3.43c-.2-.29-.39-.58-.58-.87a5.79,5.79,0,0,0-3.6-2.4,4.84,4.84,0,0,0-4.71,2,3.07,3.07,0,0,0,.2,3.6c.61.81,1.26,1.59,1.88,2.27s1.3,1.36,2,2l2,2.14.19.2A16.65,16.65,0,0,1,798.22,379.77Z"/><path class="cls-3" d="M859.8,382.89c-.06.38-.13.74-.16,1.13-.07.71-.16,1.43-.26,2.11l-.42,2.95c-.23,1.75-.46,3.5-.72,5.38H854c0-.45.1-.87.17-1.26l.39-3.08c.32-2.37.64-4.7.9-7a10.83,10.83,0,0,0-.87-5.77,6.53,6.53,0,0,0-4.64-3.76,9.59,9.59,0,0,0-7.23,1.29,10,10,0,0,0-4.44,6.26,7.61,7.61,0,0,0,1,6.1,7.29,7.29,0,0,0,6.07,3.4,9.38,9.38,0,0,0,6-1.75c-.09.81-.19,1.66-.29,2.43,0,.26-.06.49-.1.72a11.85,11.85,0,0,0-.16,1.46c0,.32-.09.48-.52.65a14.52,14.52,0,0,1-4.31,1,11.42,11.42,0,0,1-7.43-1.85,10.52,10.52,0,0,1-4.76-7.69,13.62,13.62,0,0,1,3.14-10.76,15.44,15.44,0,0,1,7.95-5.35,14.18,14.18,0,0,1,3.92-.59,11.71,11.71,0,0,1,5,1.14,10.76,10.76,0,0,1,6.22,8.69A15,15,0,0,1,859.8,382.89Z"/><path class="cls-3" d="M901.28,394.43c-1.62.1-4.25.1-6,0l-10.61-16-.29,2.14c-.19,1.62-.39,3.21-.58,4.77-.42,3.14-.78,6.09-1.23,9.11h-5c.07-.45.1-.88.16-1.3q.59-4.51,1.17-9c.13-.84.26-1.69.36-2.53l.32-2.27c.1-.68.2-1.36.26-2l1.14-8.85c.16-1.17.32-2.34.45-3.51a.42.42,0,0,1,.2-.42l5.31-3.4-2.17,16.73,11.55-12.71.77,4.41-7.26,7.68-.39.59Z"/><path class="cls-3" d="M876.31,369.53c-.07.68-.16,1.39-.29,2.1s-.23,1.62-.33,2.47h-2.88a2.9,2.9,0,0,0-3.12,2.59c-.16.81-.29,1.66-.39,2.5l-.35,2.46c-.17,1.24-.36,2.47-.52,3.73-.23,1.66-.42,3.34-.62,5l-.42,3.37c0,.23-.06.42-.1.62h-4.54l0-.07c.06-.68.13-1.33.22-2s.2-1.49.33-2.27.22-1.55.32-2.33c.23-1.75.49-3.54.68-5.32l.52-4c.13-.84.23-1.69.36-2.5a7.91,7.91,0,0,1,6.81-6.35,10.52,10.52,0,0,1,1.78,0c.29,0,.59,0,.91,0Z"/><rect class="cls-6" x="308.88" y="312.02" width="183.86" height="140.92" rx="8.1"/><path class="cls-3" d="M407.63,507.84a2,2,0,0,1-.48,1.31l-7.35,8.59a2,2,0,0,1-3,0l-7.35-8.59a2,2,0,1,1,3-2.61l5.82,6.82,5.83-6.82a2,2,0,0,1,3.52,1.3Z"/><path class="cls-3" d="M400.29,468.89V515.5a2,2,0,1,1-4,0V468.89a2,2,0,0,1,4,0Z"/><path class="cls-3" d="M388.93,476.33a2,2,0,0,1,.48-1.3l7.35-8.6a2,2,0,0,1,1.52-.7,2,2,0,0,1,1.52.7l7.35,8.6a2,2,0,0,1-3,2.6l-5.83-6.81-5.82,6.81a2,2,0,0,1-3.53-1.3Z"/><path class="cls-4" d="M351.69,417.78h2.48l3.16,10.38,3.34-10.38h2.16l3.23,10,3.07-10h2.48l-4.41,13.78h-2.35l-3.09-9.63-3.1,9.63h-2.55Z"/><path class="cls-4" d="M373.33,424.67a10.18,10.18,0,0,1,.39-3,6.08,6.08,0,0,1,1-2,5,5,0,0,1,1.49-1.24,6,6,0,0,1,1.72-.64,10.26,10.26,0,0,1,3.61,0,6,6,0,0,1,1.72.64,5.13,5.13,0,0,1,1.5,1.24,6.08,6.08,0,0,1,1,2,11.5,11.5,0,0,1,0,5.94,6,6,0,0,1-1,2.05,5.26,5.26,0,0,1-1.5,1.23,6,6,0,0,1-1.72.64,10.26,10.26,0,0,1-3.61,0,6,6,0,0,1-1.72-.64,5.08,5.08,0,0,1-1.49-1.23,6,6,0,0,1-1-2.05A10.28,10.28,0,0,1,373.33,424.67Zm2.48,0a8.89,8.89,0,0,0,.31,2.57,2.88,2.88,0,0,0,.91,1.49,3.34,3.34,0,0,0,1.23.65,5.5,5.5,0,0,0,1.49.17,7.28,7.28,0,0,0,1.23-.09,3.38,3.38,0,0,0,1-.39,2.34,2.34,0,0,0,.89-.82,4.68,4.68,0,0,0,.57-1.44,10.37,10.37,0,0,0-.08-4.69,2.87,2.87,0,0,0-.92-1.49,3.31,3.31,0,0,0-1.23-.64,5.92,5.92,0,0,0-1.51-.16,7.16,7.16,0,0,0-1.2.09,3.53,3.53,0,0,0-1.06.39,2.5,2.5,0,0,0-.89.82,4.74,4.74,0,0,0-.56,1.41A8.79,8.79,0,0,0,375.81,424.65Z"/><path class="cls-4" d="M389.18,431.56V417.78h5.29a5.58,5.58,0,0,1,3.76,1.15,4.08,4.08,0,0,1,1.35,3.29,3.9,3.9,0,0,1-3,4.07l3.62,5.27h-3l-3.29-4.86h-2.23v4.86Zm2.48-7.13h2.74a3.72,3.72,0,0,0,2-.45,2.41,2.41,0,0,0,0-3.42,3.82,3.82,0,0,0-2-.44h-2.74Z"/><path class="cls-4" d="M402.56,431.56V417.78H405v5.83l5.21-5.83h3.33L408,423.83l6.13,7.73h-3.1l-4.63-6L405,427.1v4.46Z"/><path class="cls-4" d="M416.36,431.56V417.78h9.17V420h-6.69v3.49h5.8v2.34h-5.8v3.49h6.69v2.23Z"/><path class="cls-4" d="M428.38,431.56V417.78h5.29a5.59,5.59,0,0,1,3.77,1.15,4.08,4.08,0,0,1,1.34,3.29,3.91,3.91,0,0,1-3,4.07l3.62,5.27h-3l-3.29-4.86h-2.22v4.86Zm2.49-7.13h2.74a3.72,3.72,0,0,0,2-.45,2.41,2.41,0,0,0,0-3.42,3.82,3.82,0,0,0-2-.44h-2.74Z"/><path class="cls-7" d="M471.65,341.05a6.88,6.88,0,0,1-1.62,2.66c-1.72,2.05-3.44,4.09-5.19,6.13-1.07,1.27-2.14,2.5-3.24,3.73l-1.39,1.62.29.72c.1.19.16.38.26.58l1.78,3.34c.91,1.69,1.78,3.34,2.66,5l.29.48c.39.78.81,1.56,1.14,2.34a3.51,3.51,0,0,1-.2,3.37,3.65,3.65,0,0,1-3,1.56,8.08,8.08,0,0,1-1.95-.2c-2.33-.68-4.64-1.39-6.94-2.11l-2-.64-.78-4.61c1.4.32,2.73.71,4.05,1.1s2.76.78,4.16,1.14l.52.13.32-.46a1.47,1.47,0,0,0-.06-1.75c-.82-1.52-1.66-3.08-2.47-4.6l-2.66-5a.49.49,0,0,0-.1-.16,2.26,2.26,0,0,0,.13-.2l8.37-9.85a1.8,1.8,0,0,0,.32-.52l.56-1.3-1.5.1a2.58,2.58,0,0,0-.48,0L451,346.83c-.17.06-.23.06-.26.09a1,1,0,0,1-.17-.26l-5.22-8.59c-.13-.26-.29-.52-.45-.81l-.81-1.36-.75.71a2.85,2.85,0,0,0-.74,1.85c0,.1,0,.23,0,.32-.69,3.67-1.33,7.33-1.95,11l.78.13h-.94l-8.76,2.72-3,1a3.22,3.22,0,0,0-.56.2l-2.43.87,1.91.81c2,.81,3.9,1.59,5.78,2.31l3,1.16c-1.26.94-3.57,2.44-5.12,3.34l-6.1-2.69c-.58-.26-1.13-.48-1.69-.78a5.57,5.57,0,0,1-2.91-2.82,2.85,2.85,0,0,1,.84-3.3,8.32,8.32,0,0,1,3.4-1.66l2.47-.81c2.88-.91,5.77-1.82,8.66-2.69a2.14,2.14,0,0,0,1.62-1.88c.23-1.4.49-2.76.71-4.15l.62-3.37c.19-1.27.42-2.53.68-3.8a6.75,6.75,0,0,1,2-3.86,2.59,2.59,0,0,1,3.6-.1,10,10,0,0,1,2,2.63l.13.23c1.24,2,2.4,4,3.6,6l1.27,2.17a1.57,1.57,0,0,0,2.17.78l3.05-.81c3.47-.91,7-1.85,10.47-2.76a3.87,3.87,0,0,1,2.73.19A1.73,1.73,0,0,1,471.65,341.05Z"/><path class="cls-3" d="M381.4,377.57a10.66,10.66,0,0,0-5.83-7.49,13.27,13.27,0,0,0-8.18-1,14,14,0,0,0-7.42,3.51,12.78,12.78,0,0,0-4.16,6.83c-.41,1.45-.9,5.68-1,6.2-.19,1.33-.35,2.66-.51,4L353,399.1c-.1.71-.19,1.46-.29,2.17-.07.49-.1,1-.16,1.43h4.31l1.69-11.19a7.89,7.89,0,0,0,2.19,1.9,14.11,14.11,0,0,0,7.32,1.58c5.76-.22,9.88-2.93,12.2-7.53A16.47,16.47,0,0,0,381.4,377.57Zm-4.47,5.48c-.79,4.05-3,6.72-7.54,7.62-5.72,1.11-9.84-3-9.65-7.39s2.21-8.18,7.24-9.64a8,8,0,0,1,7,1C376.67,376.5,377.57,379.74,376.93,383.05Z"/><path class="cls-3" d="M350.24,379.77a7.64,7.64,0,0,1,1.14,4.51,11.42,11.42,0,0,1-3.86,7.75,11.93,11.93,0,0,1-6.75,3.11,13.3,13.3,0,0,1-4.57-.09,7.86,7.86,0,0,1-5.84-5c-.19-.39-.32-.81-.48-1.23l5-2.69.2.35c.26.52.55,1,.84,1.56a5.41,5.41,0,0,0,7.3,1.75A4.81,4.81,0,0,0,346,386.1a4.34,4.34,0,0,0-.85-3.18,21.38,21.38,0,0,0-2-2.34l-.68-.71a64.34,64.34,0,0,1-4.67-5.19,12.51,12.51,0,0,1-1.72-2.88,7.57,7.57,0,0,1,.65-6.59,11.68,11.68,0,0,1,8.24-5.77,9.78,9.78,0,0,1,4.34.2,8.42,8.42,0,0,1,4.25,2.82c.39.45.75.94,1.14,1.42l.09.17-4.6,3.43-.58-.87a5.74,5.74,0,0,0-3.6-2.4,4.85,4.85,0,0,0-4.71,2,3.08,3.08,0,0,0,.2,3.6c.62.81,1.26,1.59,1.88,2.27s1.3,1.36,2,2l2,2.14.2.2A17,17,0,0,1,350.24,379.77Z"/><path class="cls-3" d="M411.82,382.89c-.06.38-.13.74-.16,1.13-.06.71-.16,1.43-.26,2.11l-.42,2.95c-.23,1.75-.45,3.5-.71,5.38H406a11.38,11.38,0,0,1,.16-1.26l.39-3.08c.32-2.37.65-4.7.91-7a10.94,10.94,0,0,0-.88-5.77,6.53,6.53,0,0,0-4.64-3.76,9.59,9.59,0,0,0-7.23,1.29,10,10,0,0,0-4.44,6.26,7.61,7.61,0,0,0,1,6.1,7.3,7.3,0,0,0,6.07,3.4,9.36,9.36,0,0,0,6-1.75c-.09.81-.19,1.66-.29,2.43,0,.26-.06.49-.09.72a10.2,10.2,0,0,0-.17,1.46c0,.32-.09.48-.52.65a14.52,14.52,0,0,1-4.31,1,11.39,11.39,0,0,1-7.42-1.85,10.5,10.5,0,0,1-4.77-7.69,13.62,13.62,0,0,1,3.14-10.76,15.44,15.44,0,0,1,7.95-5.35,14.18,14.18,0,0,1,3.92-.59,11.71,11.71,0,0,1,5,1.14,10.76,10.76,0,0,1,6.22,8.69A15,15,0,0,1,411.82,382.89Z"/><path class="cls-3" d="M453.3,394.43c-1.62.1-4.25.1-6,0l-10.6-16-.3,2.14c-.19,1.62-.39,3.21-.58,4.77-.42,3.14-.78,6.09-1.23,9.11h-5c.07-.45.1-.88.17-1.3q.57-4.51,1.16-9c.13-.84.26-1.69.36-2.53l.32-2.27c.1-.68.2-1.36.26-2l1.14-8.85c.16-1.17.32-2.34.45-3.51a.42.42,0,0,1,.2-.42l5.31-3.4-2.17,16.73,11.55-12.71.78,4.41-7.27,7.68-.39.59Z"/><path class="cls-3" d="M428.33,369.53c-.07.68-.16,1.39-.29,2.1s-.23,1.62-.33,2.47h-2.88a2.9,2.9,0,0,0-3.12,2.59c-.16.81-.29,1.66-.39,2.5l-.35,2.46c-.17,1.24-.36,2.47-.52,3.73-.23,1.66-.42,3.34-.62,5l-.42,3.37c0,.23-.06.42-.1.62h-4.54l0-.07c.06-.68.13-1.33.22-2s.2-1.49.33-2.27.22-1.55.32-2.33c.23-1.75.49-3.54.68-5.32l.52-4c.13-.84.23-1.69.36-2.5a7.91,7.91,0,0,1,6.81-6.35,10.52,10.52,0,0,1,1.78,0c.29,0,.59,0,.91,0Z"/><rect class="cls-6" x="532.87" y="312.02" width="183.86" height="140.92" rx="8.1"/><path class="cls-3" d="M631.62,507.84a2,2,0,0,1-.48,1.31l-7.35,8.59a2,2,0,0,1-3,0l-7.35-8.59a2,2,0,0,1,3.05-2.61l5.82,6.82,5.83-6.82a2,2,0,0,1,3.52,1.3Z"/><path class="cls-3" d="M624.28,468.89V515.5a2,2,0,1,1-4,0V468.89a2,2,0,0,1,4,0Z"/><path class="cls-3" d="M612.92,476.33a2,2,0,0,1,.48-1.3l7.35-8.6a2,2,0,0,1,3,0l7.35,8.6a2,2,0,0,1-3,2.6l-5.83-6.81-5.82,6.81a2,2,0,0,1-3.53-1.3Z"/><path class="cls-4" d="M575.68,417.78h2.48l3.16,10.38,3.34-10.38h2.16l3.23,10,3.07-10h2.49l-4.42,13.78h-2.35l-3.09-9.63-3.1,9.63H580.1Z"/><path class="cls-4" d="M597.32,424.67a10.18,10.18,0,0,1,.39-3,6.08,6.08,0,0,1,1-2,5,5,0,0,1,1.49-1.24,6,6,0,0,1,1.72-.64,10.26,10.26,0,0,1,3.61,0,6,6,0,0,1,1.72.64,5.13,5.13,0,0,1,1.5,1.24,5.9,5.9,0,0,1,1,2,11.5,11.5,0,0,1,0,5.94,5.87,5.87,0,0,1-1,2.05,5.26,5.26,0,0,1-1.5,1.23,6,6,0,0,1-1.72.64,10.26,10.26,0,0,1-3.61,0,6,6,0,0,1-1.72-.64,5.08,5.08,0,0,1-1.49-1.23,6,6,0,0,1-1-2.05A10.28,10.28,0,0,1,597.32,424.67Zm2.48,0a8.89,8.89,0,0,0,.31,2.57,2.88,2.88,0,0,0,.91,1.49,3.34,3.34,0,0,0,1.23.65,5.53,5.53,0,0,0,1.5.17,7.24,7.24,0,0,0,1.22-.09,3.38,3.38,0,0,0,1-.39,2.34,2.34,0,0,0,.89-.82,4.68,4.68,0,0,0,.57-1.44,10.37,10.37,0,0,0-.08-4.69,2.87,2.87,0,0,0-.92-1.49,3.31,3.31,0,0,0-1.23-.64,5.89,5.89,0,0,0-1.5-.16,7.2,7.2,0,0,0-1.21.09,3.53,3.53,0,0,0-1.06.39,2.5,2.5,0,0,0-.89.82,4.74,4.74,0,0,0-.56,1.41A8.79,8.79,0,0,0,599.8,424.65Z"/><path class="cls-4" d="M613.17,431.56V417.78h5.29a5.58,5.58,0,0,1,3.76,1.15,4.08,4.08,0,0,1,1.35,3.29,3.9,3.9,0,0,1-3,4.07l3.62,5.27h-3l-3.29-4.86h-2.23v4.86Zm2.48-7.13h2.74a3.72,3.72,0,0,0,2-.45,2.41,2.41,0,0,0,0-3.42,3.82,3.82,0,0,0-2-.44h-2.74Z"/><path class="cls-4" d="M626.55,431.56V417.78H629v5.83l5.21-5.83h3.33L632,423.83l6.13,7.73H635l-4.63-6L629,427.1v4.46Z"/><path class="cls-4" d="M640.35,431.56V417.78h9.17V420h-6.69v3.49h5.8v2.34h-5.8v3.49h6.69v2.23Z"/><path class="cls-4" d="M652.37,431.56V417.78h5.29a5.59,5.59,0,0,1,3.77,1.15,4.08,4.08,0,0,1,1.34,3.29,3.91,3.91,0,0,1-3,4.07l3.62,5.27h-3l-3.29-4.86h-2.22v4.86Zm2.49-7.13h2.74a3.72,3.72,0,0,0,2-.45,2.41,2.41,0,0,0,0-3.42,3.82,3.82,0,0,0-2-.44h-2.74Z"/><path class="cls-7" d="M695.64,341.05a6.88,6.88,0,0,1-1.62,2.66c-1.72,2.05-3.44,4.09-5.19,6.13-1.07,1.27-2.14,2.5-3.24,3.73l-1.39,1.62.29.72c.09.19.16.38.26.58l1.78,3.34c.91,1.69,1.78,3.34,2.66,5l.29.48c.39.78.81,1.56,1.14,2.34a3.51,3.51,0,0,1-.2,3.37,3.65,3.65,0,0,1-3,1.56,8,8,0,0,1-1.94-.2c-2.34-.68-4.64-1.39-6.94-2.11l-2-.64-.78-4.61c1.4.32,2.73.71,4,1.1s2.76.78,4.16,1.14l.52.13.32-.46a1.45,1.45,0,0,0-.07-1.75l-2.46-4.6-2.66-5a.49.49,0,0,0-.1-.16,2.26,2.26,0,0,0,.13-.2l8.37-9.85a1.8,1.8,0,0,0,.32-.52l.55-1.3-1.49.1a2.58,2.58,0,0,0-.48,0L675,346.83c-.17.06-.23.06-.26.09a1,1,0,0,1-.17-.26l-5.22-8.59c-.13-.26-.29-.52-.45-.81l-.81-1.36-.75.71a2.85,2.85,0,0,0-.74,1.85c0,.1,0,.23,0,.32q-1,5.5-1.94,11l.78.13h-.94l-8.76,2.72-3,1a3.48,3.48,0,0,0-.55.2l-2.43.87,1.91.81c2,.81,3.9,1.59,5.78,2.31l3,1.16c-1.26.94-3.57,2.44-5.12,3.34l-6.1-2.69c-.58-.26-1.13-.48-1.69-.78a5.57,5.57,0,0,1-2.91-2.82,2.85,2.85,0,0,1,.84-3.3,8.32,8.32,0,0,1,3.4-1.66l2.47-.81c2.88-.91,5.77-1.82,8.66-2.69a2.14,2.14,0,0,0,1.62-1.88c.23-1.4.49-2.76.71-4.15l.62-3.37c.19-1.27.42-2.53.68-3.8a6.75,6.75,0,0,1,2-3.86,2.59,2.59,0,0,1,3.6-.1,10,10,0,0,1,2,2.63l.13.23c1.24,2,2.4,4,3.6,6l1.27,2.17a1.57,1.57,0,0,0,2.17.78l3.05-.81c3.47-.91,7-1.85,10.47-2.76a3.87,3.87,0,0,1,2.73.19A1.73,1.73,0,0,1,695.64,341.05Z"/><path class="cls-3" d="M605.39,377.57a10.66,10.66,0,0,0-5.83-7.49,13.27,13.27,0,0,0-8.18-1,14,14,0,0,0-7.42,3.51,12.78,12.78,0,0,0-4.16,6.83c-.41,1.45-.9,5.68-1,6.2-.19,1.33-.35,2.66-.51,4L577,399.1c-.1.71-.19,1.46-.29,2.17-.07.49-.1,1-.16,1.43h4.31l1.69-11.19a7.89,7.89,0,0,0,2.19,1.9,14.09,14.09,0,0,0,7.32,1.58c5.76-.22,9.88-2.93,12.2-7.53A16.47,16.47,0,0,0,605.39,377.57Zm-4.47,5.48c-.79,4.05-3,6.72-7.54,7.62-5.72,1.11-9.84-3-9.65-7.39s2.21-8.18,7.23-9.64a8.06,8.06,0,0,1,7,1C600.66,376.5,601.56,379.74,600.92,383.05Z"/><path class="cls-3" d="M574.23,379.77a7.64,7.64,0,0,1,1.14,4.51,11.42,11.42,0,0,1-3.86,7.75,11.93,11.93,0,0,1-6.75,3.11,13.3,13.3,0,0,1-4.57-.09,7.86,7.86,0,0,1-5.84-5c-.19-.39-.32-.81-.48-1.23l5-2.69.2.35c.26.52.55,1,.84,1.56a5.41,5.41,0,0,0,7.3,1.75A4.81,4.81,0,0,0,570,386.1a4.34,4.34,0,0,0-.85-3.18,21.38,21.38,0,0,0-2-2.34l-.68-.71a64.34,64.34,0,0,1-4.67-5.19,12.51,12.51,0,0,1-1.72-2.88,7.57,7.57,0,0,1,.65-6.59,11.68,11.68,0,0,1,8.24-5.77,9.78,9.78,0,0,1,4.34.2,8.42,8.42,0,0,1,4.25,2.82c.39.45.75.94,1.14,1.42l.09.17-4.6,3.43-.58-.87a5.76,5.76,0,0,0-3.6-2.4,4.84,4.84,0,0,0-4.71,2,3.07,3.07,0,0,0,.2,3.6c.61.81,1.26,1.59,1.88,2.27s1.3,1.36,2,2l2,2.14.19.2A16.65,16.65,0,0,1,574.23,379.77Z"/><path class="cls-3" d="M635.81,382.89c-.06.38-.13.74-.16,1.13-.06.71-.16,1.43-.26,2.11l-.42,2.95c-.23,1.75-.46,3.5-.71,5.38H630a11.38,11.38,0,0,1,.16-1.26l.39-3.08c.32-2.37.65-4.7.9-7a10.83,10.83,0,0,0-.87-5.77,6.53,6.53,0,0,0-4.64-3.76,9.59,9.59,0,0,0-7.23,1.29,10,10,0,0,0-4.44,6.26,7.61,7.61,0,0,0,1,6.1,7.3,7.3,0,0,0,6.07,3.4,9.36,9.36,0,0,0,6-1.75c-.09.81-.19,1.66-.29,2.43,0,.26-.06.49-.09.72a10.2,10.2,0,0,0-.17,1.46c0,.32-.09.48-.52.65a14.52,14.52,0,0,1-4.31,1,11.37,11.37,0,0,1-7.42-1.85,10.5,10.5,0,0,1-4.77-7.69,13.62,13.62,0,0,1,3.14-10.76,15.44,15.44,0,0,1,7.95-5.35,14.18,14.18,0,0,1,3.92-.59,11.71,11.71,0,0,1,5,1.14,10.76,10.76,0,0,1,6.22,8.69A15,15,0,0,1,635.81,382.89Z"/><path class="cls-3" d="M677.29,394.43c-1.62.1-4.25.1-6,0l-10.6-16-.3,2.14c-.19,1.62-.39,3.21-.58,4.77-.42,3.14-.78,6.09-1.23,9.11h-5c.07-.45.1-.88.17-1.3q.57-4.51,1.16-9c.13-.84.26-1.69.36-2.53l.32-2.27c.1-.68.2-1.36.26-2l1.14-8.85c.16-1.17.32-2.34.45-3.51a.42.42,0,0,1,.2-.42l5.31-3.4-2.17,16.73,11.55-12.71.78,4.41-7.27,7.68-.39.59Z"/><path class="cls-3" d="M652.32,369.53c-.07.68-.16,1.39-.29,2.1s-.23,1.62-.33,2.47h-2.88a2.9,2.9,0,0,0-3.12,2.59c-.16.81-.29,1.66-.39,2.5l-.35,2.46c-.17,1.24-.36,2.47-.52,3.73-.23,1.66-.42,3.34-.62,5l-.42,3.37c0,.23-.06.42-.1.62h-4.54l0-.07c.06-.68.13-1.33.22-2s.2-1.49.33-2.27.22-1.55.32-2.33c.23-1.75.49-3.54.68-5.32l.52-4c.13-.84.23-1.69.36-2.5a7.91,7.91,0,0,1,6.81-6.35,10.52,10.52,0,0,1,1.78,0c.29,0,.59,0,.91,0Z"/><path class="cls-8" d="M485.77,676c-34.75,0-70.69,7.87-70.69,21v162.8a7.83,7.83,0,0,0,1.52,4.55,13.59,13.59,0,0,0,1.71,2c9,8.68,36.1,14.51,67.46,14.51s58.5-5.83,67.48-14.5a13.33,13.33,0,0,0,1.74-2,7.83,7.83,0,0,0,1.5-4.54V697C556.49,683.86,520.53,676,485.77,676Z"/><path class="cls-9" d="M534.23,678.79c-13.13-3.56-30.79-5.6-48.46-5.6s-35.31,2-48.43,5.6C422,683,413.86,688.87,413.86,695.9v55.89a9.68,9.68,0,0,0,1.83,5.57,14.42,14.42,0,0,0,1.95,2.26c9.21,8.9,36.6,14.89,68.13,14.89s59-6,68.17-14.89a15,15,0,0,0,1.95-2.26,9.68,9.68,0,0,0,1.83-5.57V695.9C557.72,688.87,549.6,683,534.23,678.79Zm16.37,74.86a9.43,9.43,0,0,1-1.12,1.29c-7.87,7.6-34.65,13.11-63.71,13.11S430,762.54,422.1,754.94a8.39,8.39,0,0,1-1.12-1.3,3.29,3.29,0,0,1-.66-1.85V705.91a36.17,36.17,0,0,0,4.8,2.73l.08,0c.87.42,1.79.83,2.75,1.22l.24.1c.94.38,1.9.75,2.91,1.11l.37.12c.85.3,1.74.59,2.64.87l.83.26q1.29.39,2.64.75l1.21.32c.86.23,1.75.44,2.65.66l1.55.35c.86.19,1.74.38,2.64.56l1.77.34,2.11.38,2.44.4,2,.31c.86.12,1.73.25,2.61.36l2.27.29,2.05.23,3.07.31,1.55.14c1.23.11,2.48.21,3.74.29l1.34.09c1.35.09,2.71.16,4.09.23l1,0c1.49.06,3,.11,4.51.15h.59c1.65,0,3.32,0,5,0s3.34,0,5,0h.62c1.51,0,3-.09,4.49-.15l1,0c1.38-.07,2.74-.14,4.09-.23l1.35-.09c1.25-.08,2.49-.18,3.72-.28l1.59-.15c1-.09,2-.19,3-.3l2.14-.25,2.23-.28c.89-.11,1.78-.24,2.65-.37l2-.29,2.47-.41,2.1-.38,1.77-.34c.9-.18,1.78-.37,2.64-.56l1.54-.35c.91-.22,1.8-.43,2.68-.66l1.16-.31c.94-.26,1.87-.52,2.77-.79l.67-.21c1-.29,1.87-.6,2.76-.91l.29-.09c1-.37,2-.75,3-1.14l.17-.07c1-.4,1.92-.82,2.81-1.25h0a35.37,35.37,0,0,0,4.83-2.75v45.88A3.33,3.33,0,0,1,550.6,753.65Zm-64.83-74c40.57,0,65.48,9.47,65.48,16.25a3.48,3.48,0,0,1-.66,1.88c-2.85,4.19-13,8.47-28,11.25l-.13,0-1.7.3-1.77.3h0a211.23,211.23,0,0,1-27.63,2.43l-.93,0-1.77,0-2.91,0-2.9,0-1.77,0-.94,0a210.34,210.34,0,0,1-27.56-2.42l-.12,0-1.67-.28-1.81-.32h0c-15-2.78-25.12-7.06-28-11.25a3.5,3.5,0,0,1-.68-1.89C420.32,689.12,445.22,679.65,485.77,679.65Z"/><path class="cls-9" d="M554.69,748.55a3,3,0,0,0-3,3,3.67,3.67,0,0,1-.7,2c-2.58,3.81-10.77,7.54-22.49,10.22-12.17,2.79-27.35,4.33-42.74,4.33s-30.55-1.54-42.71-4.33c-11.71-2.68-19.9-6.41-22.47-10.21a3.67,3.67,0,0,1-.71-2,3,3,0,0,0-6,0v55.07a9.35,9.35,0,0,0,1.8,5.44,14.3,14.3,0,0,0,1.9,2.22c4.61,4.44,13.58,8.2,26,10.86a223.72,223.72,0,0,0,84.44,0c12.39-2.66,21.36-6.41,26-10.85a14.16,14.16,0,0,0,1.93-2.24,9.35,9.35,0,0,0,1.79-5.43V751.54A3,3,0,0,0,554.69,748.55Zm-3,58.06a3.49,3.49,0,0,1-.7,2,8.13,8.13,0,0,1-1.16,1.35l0,0c-3.8,3.68-12.2,7-23.65,9.42a217.68,217.68,0,0,1-80.78,0C434,817,425.55,813.64,421.74,810h0a8.66,8.66,0,0,1-1.14-1.32,3.54,3.54,0,0,1-.71-2V761.1c4.9,3.54,12.74,6.56,23,8.82,12.3,2.72,27.14,4.15,42.92,4.15s30.64-1.43,42.94-4.15c10.24-2.26,18.08-5.28,23-8.82Z"/><path class="cls-9" d="M554.69,803.68a3,3,0,0,0-3,3,3.67,3.67,0,0,1-.7,2c-2.58,3.81-10.77,7.54-22.49,10.22-12.17,2.79-27.35,4.33-42.74,4.33s-30.55-1.54-42.71-4.32c-11.71-2.69-19.9-6.41-22.47-10.21a3.72,3.72,0,0,1-.71-2,3,3,0,0,0-6,0v55.07a9.35,9.35,0,0,0,1.8,5.44,14.21,14.21,0,0,0,1.9,2.21c4.61,4.44,13.58,8.2,26,10.86a224,224,0,0,0,84.44,0c12.39-2.67,21.36-6.42,26-10.85a14.24,14.24,0,0,0,1.93-2.25,9.32,9.32,0,0,0,1.79-5.42V806.67A3,3,0,0,0,554.69,803.68Zm-3,58.06a3.54,3.54,0,0,1-.7,2,8.47,8.47,0,0,1-1.16,1.34l0,0c-3.81,3.68-12.2,7-23.65,9.42a217.68,217.68,0,0,1-80.78,0c-11.44-2.4-19.84-5.75-23.65-9.43l0,0a8.69,8.69,0,0,1-1.13-1.32,3.54,3.54,0,0,1-.71-2V816.22c4.9,3.55,12.73,6.56,23,8.83,12.3,2.71,27.14,4.15,42.92,4.15s30.64-1.44,42.94-4.15c10.24-2.26,18.08-5.28,23-8.83Z"/><circle class="cls-8" cx="485.79" cy="795.82" r="51.84"/><path class="cls-3" d="M468.84,828.34A33.76,33.76,0,0,0,513.29,818a2.6,2.6,0,0,0-.87-3.71h0a2.58,2.58,0,0,0-3.42.8,28.52,28.52,0,1,1-13.52-42.73L487,778a2.59,2.59,0,0,0-.71,3.6h0a2.59,2.59,0,0,0,3.6.71l12.28-8.27a2.69,2.69,0,0,0,.81-.87,2.62,2.62,0,0,0,.15-2.24L498,758a2.61,2.61,0,0,0-3.38-1.44h0a2.6,2.6,0,0,0-1.44,3.37L496,767a33.7,33.7,0,0,0-27.14,61.34Z"/><path class="cls-4" d="M462.93,794.87a5.15,5.15,0,0,1,2.06-4.44,8.64,8.64,0,0,1,5.17-1.49,11.7,11.7,0,0,1,5.44,1.41v3.57a9,9,0,0,0-5-1.54,6.25,6.25,0,0,0-2.84.58,1.92,1.92,0,0,0-1.17,1.83,1.74,1.74,0,0,0,1.06,1.58,11.72,11.72,0,0,0,2.57,1,26.72,26.72,0,0,1,3,1,5.76,5.76,0,0,1,2.58,2,6.28,6.28,0,0,1,1.06,3.78,4.8,4.8,0,0,1-2,4,8,8,0,0,1-5,1.55,12.79,12.79,0,0,1-6.69-1.7V804.3a9.59,9.59,0,0,0,5.85,1.94c2.79,0,4.18-.77,4.18-2.33a2.27,2.27,0,0,0-.76-1.75,4.68,4.68,0,0,0-1.91-1c-.77-.22-1.6-.48-2.48-.79s-1.71-.63-2.48-1a4.64,4.64,0,0,1-1.91-1.67A5,5,0,0,1,462.93,794.87Z"/><path class="cls-4" d="M480.31,799.3a14.78,14.78,0,0,1,.58-4.37,8.61,8.61,0,0,1,1.49-3,7.17,7.17,0,0,1,2.2-1.82,8.8,8.8,0,0,1,2.54-1,15,15,0,0,1,2.67-.23,14.81,14.81,0,0,1,2.66.23,8.8,8.8,0,0,1,2.52,1,7.37,7.37,0,0,1,2.22,1.82,8.59,8.59,0,0,1,1.51,3,16.75,16.75,0,0,1,.1,8.35,9.43,9.43,0,0,1-1.25,2.87,7.12,7.12,0,0,1-1.87,1.88,8.24,8.24,0,0,1-2.2,1.1,11.67,11.67,0,0,1-2.38.46,2.18,2.18,0,0,0,1,2,4.64,4.64,0,0,0,2.46.63v2.85q-6.51,0-6.5-5.53a9.85,9.85,0,0,1-2.87-.78,8.44,8.44,0,0,1-2.45-1.71A7.66,7.66,0,0,1,481,804,15.16,15.16,0,0,1,480.31,799.3Zm4.1-3.75a15.89,15.89,0,0,0,0,7.51,4.32,4.32,0,0,0,1.35,2.2,5,5,0,0,0,1.81,1,10.78,10.78,0,0,0,4.43,0,5,5,0,0,0,1.82-1,4.32,4.32,0,0,0,1.35-2.2,15.89,15.89,0,0,0,0-7.51,4.32,4.32,0,0,0-1.35-2.2,4.77,4.77,0,0,0-1.82-1,10.34,10.34,0,0,0-4.43,0,4.81,4.81,0,0,0-1.81,1A4.32,4.32,0,0,0,484.41,795.55Z"/><path class="cls-4" d="M503.39,809.45V789.18H507V806h9.75v3.45Z"/><path class="cls-9" d="M444.91,914.31s-4.23,6.39,4.07,7.7c.81.1,6.83.73,8.38,2.69,0,0-.14-3.4-5-5.4S445.45,916.8,444.91,914.31Z"/><path class="cls-9" d="M449,900.53s-11.82,7.2-.68,14.37c2.15,1.39,9.91,5.28,9.68,8.85,0,0,4.71-7-2.16-11.35C448.78,907.9,447,903.12,449,900.53Z"/><path class="cls-9" d="M461.22,907.58c-5.06-5.31-6.46-8.59-4.3-12.83,0,0-15.12,5.82-.19,16.14,5.34,3.7,4.45,7.46,4.45,7.6C462,917.62,466.29,912.88,461.22,907.58Z"/><text class="cls-10" transform="translate(469.46 918.06)"><tspan class="cls-11">N</tspan><tspan class="cls-12" x="15.85" y="0">O</tspan><tspan class="cls-13" x="31.71" y="0">D</tspan><tspan x="46.06" y="0">E</tspan></text><path class="cls-8" d="M742.94,676c-34.75,0-70.69,7.87-70.69,21v162.8a7.89,7.89,0,0,0,1.51,4.55,13.63,13.63,0,0,0,1.72,2c9,8.68,36.1,14.51,67.46,14.51s58.5-5.83,67.47-14.5a12.79,12.79,0,0,0,1.74-2,7.84,7.84,0,0,0,1.51-4.54V697C813.66,683.86,777.7,676,742.94,676Z"/><path class="cls-9" d="M791.39,678.79c-13.12-3.56-30.78-5.6-48.45-5.6s-35.32,2-48.44,5.6C679.14,683,671,688.87,671,695.9v55.89a9.68,9.68,0,0,0,1.83,5.57,15,15,0,0,0,1.95,2.26c9.22,8.9,36.6,14.89,68.14,14.89s58.94-6,68.16-14.89a15,15,0,0,0,1.95-2.26,9.6,9.6,0,0,0,1.83-5.57V695.9C814.88,688.87,806.76,683,791.39,678.79Zm16.37,74.86a8.24,8.24,0,0,1-1.12,1.29c-7.87,7.6-34.65,13.11-63.7,13.11s-55.81-5.51-63.68-13.11a8.39,8.39,0,0,1-1.12-1.3,3.27,3.27,0,0,1-.65-1.85V705.91a34.94,34.94,0,0,0,4.8,2.73l.08,0c.87.42,1.78.83,2.75,1.22a1.73,1.73,0,0,0,.24.1c.93.38,1.89.75,2.91,1.11l.36.12c.86.3,1.74.59,2.65.87.27.09.54.18.83.26.85.26,1.74.51,2.63.75l1.21.32c.87.23,1.75.44,2.65.66l1.55.35,2.64.56,1.77.34,2.12.38,2.43.4,2,.31c.87.12,1.73.25,2.61.36l2.27.29,2,.23,3.07.31,1.56.14c1.23.11,2.47.21,3.73.29l1.34.09c1.35.09,2.72.16,4.1.23l1,0c1.49.06,3,.11,4.51.15h.6c1.65,0,3.31,0,5,0s3.33,0,5,0h.61q2.26-.06,4.5-.15l1,0c1.37-.07,2.73-.14,4.08-.23l1.35-.09c1.25-.08,2.49-.18,3.72-.28l1.6-.15c1-.09,2-.19,3-.3l2.13-.25,2.23-.28c.9-.11,1.78-.24,2.65-.37l2-.29,2.47-.41,2.1-.38,1.77-.34c.9-.18,1.78-.37,2.65-.56l1.54-.35c.9-.22,1.8-.43,2.67-.66l1.16-.31c1-.26,1.87-.52,2.77-.79l.68-.21c.94-.29,1.87-.6,2.76-.91l.28-.09c1-.37,2-.75,3-1.14l.16-.07c1-.4,1.92-.82,2.82-1.25h0a36.62,36.62,0,0,0,4.83-2.75v45.88A3.27,3.27,0,0,1,807.76,753.65Zm-64.82-74c40.57,0,65.48,9.47,65.48,16.25a3.5,3.5,0,0,1-.67,1.88c-2.84,4.19-13,8.47-28,11.25l-.13,0-1.7.3-1.78.3h0a210.91,210.91,0,0,1-27.62,2.43l-.94,0-1.77,0-2.9,0-2.91,0-1.77,0-.93,0a210.34,210.34,0,0,1-27.57-2.42l-.11,0-1.68-.28-1.81-.32h0c-15-2.78-25.12-7.06-28-11.25a3.48,3.48,0,0,1-.67-1.89C677.49,689.12,702.39,679.65,742.94,679.65Z"/><path class="cls-9" d="M811.85,748.55a3,3,0,0,0-3,3,3.6,3.6,0,0,1-.7,2c-2.57,3.81-10.77,7.54-22.49,10.22-12.16,2.79-27.34,4.33-42.73,4.33s-30.55-1.54-42.72-4.33c-11.7-2.68-19.9-6.41-22.47-10.21a3.67,3.67,0,0,1-.71-2,3,3,0,0,0-6,0v55.07a9.42,9.42,0,0,0,1.8,5.44,14.35,14.35,0,0,0,1.91,2.22c4.6,4.44,13.58,8.2,26,10.86a223.72,223.72,0,0,0,84.44,0c12.38-2.66,21.36-6.41,26-10.85a14.74,14.74,0,0,0,1.94-2.24,9.41,9.41,0,0,0,1.78-5.43V751.54A3,3,0,0,0,811.85,748.55Zm-3,58.06a3.42,3.42,0,0,1-.7,2A8.13,8.13,0,0,1,807,810v0c-3.81,3.68-12.21,7-23.65,9.42a217.68,217.68,0,0,1-80.78,0c-11.44-2.4-19.84-5.75-23.66-9.44h0a9.26,9.26,0,0,1-1.14-1.32,3.54,3.54,0,0,1-.71-2V761.1c4.9,3.54,12.74,6.56,23,8.82,12.29,2.72,27.14,4.15,42.92,4.15s30.63-1.43,42.93-4.15c10.25-2.26,18.09-5.28,23-8.82Z"/><path class="cls-9" d="M811.85,803.68a3,3,0,0,0-3,3,3.59,3.59,0,0,1-.7,2c-2.57,3.81-10.77,7.54-22.49,10.22-12.16,2.79-27.34,4.33-42.73,4.33s-30.55-1.54-42.72-4.32c-11.7-2.69-19.9-6.41-22.47-10.21a3.72,3.72,0,0,1-.71-2,3,3,0,1,0-6,0v55.07a9.42,9.42,0,0,0,1.8,5.44,14.26,14.26,0,0,0,1.91,2.21c4.6,4.44,13.58,8.2,26,10.86a224,224,0,0,0,84.44,0c12.38-2.67,21.36-6.42,26-10.85a14.83,14.83,0,0,0,1.94-2.25,9.38,9.38,0,0,0,1.78-5.42V806.67A3,3,0,0,0,811.85,803.68Zm-3,58.06a3.47,3.47,0,0,1-.7,2,8.47,8.47,0,0,1-1.16,1.34v0c-3.81,3.68-12.21,7-23.65,9.42a217.68,217.68,0,0,1-80.78,0c-11.44-2.4-19.84-5.75-23.66-9.43v0a8.74,8.74,0,0,1-1.14-1.32,3.54,3.54,0,0,1-.71-2V816.22c4.9,3.55,12.74,6.56,23,8.83,12.29,2.71,27.14,4.15,42.92,4.15s30.63-1.44,42.93-4.15c10.25-2.26,18.09-5.28,23-8.83Z"/><circle class="cls-8" cx="742.95" cy="795.82" r="51.84"/><path class="cls-3" d="M726,828.34A33.76,33.76,0,0,0,770.45,818a2.59,2.59,0,0,0-.87-3.71h0a2.58,2.58,0,0,0-3.42.8,28.52,28.52,0,1,1-13.52-42.73L744.19,778a2.59,2.59,0,0,0-.7,3.6h0a2.59,2.59,0,0,0,3.6.71l12.27-8.27a2.49,2.49,0,0,0,.81-.87,2.58,2.58,0,0,0,.15-2.24l-5.21-13a2.6,2.6,0,0,0-3.37-1.44h0a2.59,2.59,0,0,0-1.44,3.37l2.85,7.12A33.7,33.7,0,0,0,726,828.34Z"/><path class="cls-4" d="M720.09,794.87a5.13,5.13,0,0,1,2.07-4.44,8.59,8.59,0,0,1,5.16-1.49,11.74,11.74,0,0,1,5.45,1.41v3.57a9,9,0,0,0-5-1.54,6.28,6.28,0,0,0-2.84.58,1.91,1.91,0,0,0-1.16,1.83,1.74,1.74,0,0,0,1.06,1.58,11.44,11.44,0,0,0,2.56,1,25.47,25.47,0,0,1,3,1,5.66,5.66,0,0,1,2.58,2,6.28,6.28,0,0,1,1.06,3.78,4.78,4.78,0,0,1-2,4,8,8,0,0,1-5,1.55,12.79,12.79,0,0,1-6.69-1.7V804.3a9.59,9.59,0,0,0,5.85,1.94c2.79,0,4.18-.77,4.18-2.33a2.3,2.3,0,0,0-.75-1.75,4.79,4.79,0,0,0-1.92-1c-.77-.22-1.6-.48-2.48-.79s-1.7-.63-2.47-1a4.67,4.67,0,0,1-1.92-1.67A5,5,0,0,1,720.09,794.87Z"/><path class="cls-4" d="M737.47,799.3a15.12,15.12,0,0,1,.58-4.37,9,9,0,0,1,1.49-3,7.21,7.21,0,0,1,2.21-1.82,8.74,8.74,0,0,1,2.53-1,15.2,15.2,0,0,1,2.68-.23,14.69,14.69,0,0,1,2.65.23,9,9,0,0,1,2.53,1,7.21,7.21,0,0,1,2.21,1.82,8.59,8.59,0,0,1,1.51,3,14.73,14.73,0,0,1,.58,4.37,15,15,0,0,1-.48,4,9.43,9.43,0,0,1-1.24,2.87,7.43,7.43,0,0,1-1.87,1.88,8.29,8.29,0,0,1-2.21,1.1,11.54,11.54,0,0,1-2.38.46,2.2,2.2,0,0,0,1,2,4.64,4.64,0,0,0,2.46.63v2.85q-6.5,0-6.5-5.53a9.79,9.79,0,0,1-2.86-.78,8.31,8.31,0,0,1-2.45-1.71,7.45,7.45,0,0,1-1.81-3.12A14.84,14.84,0,0,1,737.47,799.3Zm4.11-3.75a15.56,15.56,0,0,0,0,7.51,4.32,4.32,0,0,0,1.35,2.2,4.91,4.91,0,0,0,1.81,1,10.73,10.73,0,0,0,4.42,0,4.91,4.91,0,0,0,1.83-1,4.46,4.46,0,0,0,1.35-2.2,15.89,15.89,0,0,0,0-7.51,4.46,4.46,0,0,0-1.35-2.2,4.74,4.74,0,0,0-1.83-1,10.3,10.3,0,0,0-4.42,0,4.74,4.74,0,0,0-1.81,1A4.32,4.32,0,0,0,741.58,795.55Z"/><path class="cls-4" d="M760.55,809.45V789.18h3.65V806H774v3.45Z"/><path class="cls-9" d="M702.07,914.31s-4.22,6.39,4.08,7.7c.81.1,6.82.73,8.38,2.69,0,0-.15-3.4-5-5.4S702.61,916.8,702.07,914.31Z"/><path class="cls-9" d="M706.18,900.53s-11.81,7.2-.68,14.37c2.15,1.39,9.92,5.28,9.69,8.85,0,0,4.7-7-2.17-11.35C706,907.9,704.17,903.12,706.18,900.53Z"/><path class="cls-9" d="M718.39,907.58c-5.06-5.31-6.47-8.59-4.31-12.83,0,0-15.12,5.82-.19,16.14,5.35,3.7,4.45,7.46,4.46,7.6C719.19,917.62,723.45,912.88,718.39,907.58Z"/><text class="cls-10" transform="translate(726.62 918.06)"><tspan class="cls-11">N</tspan><tspan class="cls-12" x="15.85" y="0">O</tspan><tspan class="cls-13" x="31.71" y="0">D</tspan><tspan x="46.06" y="0">E</tspan></text><path class="cls-8" d="M613.9,713.83c-34.75,0-70.69,7.88-70.69,21.06v162.8a7.83,7.83,0,0,0,1.52,4.55,12.46,12.46,0,0,0,1.71,2c9,8.69,36.1,14.52,67.46,14.52s58.5-5.83,67.48-14.5a13.28,13.28,0,0,0,1.73-2,7.84,7.84,0,0,0,1.51-4.54V734.89C684.62,721.71,648.66,713.83,613.9,713.83Z"/><path class="cls-9" d="M662.36,716.64c-13.13-3.56-30.79-5.61-48.46-5.61s-35.32,2.05-48.43,5.61C550.11,720.8,542,726.72,542,733.75v55.89a9.55,9.55,0,0,0,1.83,5.56,14.51,14.51,0,0,0,1.95,2.27c9.21,8.9,36.6,14.89,68.13,14.89s59-6,68.17-14.89a14.92,14.92,0,0,0,1.94-2.26,9.62,9.62,0,0,0,1.84-5.57V733.75C685.85,726.72,677.72,720.8,662.36,716.64Zm16.36,74.85a8.34,8.34,0,0,1-1.11,1.3c-7.87,7.6-34.66,13.11-63.71,13.11s-55.81-5.51-63.67-13.11a8.88,8.88,0,0,1-1.12-1.3,3.22,3.22,0,0,1-.66-1.85V743.76a37.32,37.32,0,0,0,4.8,2.73l.08,0c.87.42,1.79.83,2.75,1.22l.24.1q1.39.57,2.91,1.11l.37.12q1.27.45,2.64.87l.83.26q1.29.39,2.64.75l1.21.32c.86.23,1.75.44,2.65.65l1.54.36c.87.19,1.75.38,2.65.56l1.76.34,2.12.38,2.44.4,2,.31,2.61.36,2.26.28c.68.09,1.36.17,2.06.24l3.06.31,1.56.14c1.23.11,2.48.21,3.73.29l1.35.09c1.35.09,2.71.16,4.09.23l1,0c1.5.06,3,.11,4.51.14l.6,0c1.65,0,3.31.05,5,.05s3.33,0,5-.05l.61,0c1.52,0,3-.08,4.5-.14l1,0c1.38-.06,2.74-.13,4.09-.22l1.34-.09c1.26-.08,2.5-.18,3.73-.29l1.59-.14,3-.3,2.14-.25,2.23-.28,2.65-.37c.66-.09,1.31-.19,2-.3l2.46-.4,2.1-.38,1.78-.35c.89-.18,1.78-.36,2.64-.55l1.54-.36c.91-.21,1.8-.43,2.67-.65l1.17-.31c.94-.26,1.87-.52,2.76-.79l.68-.21c1-.3,1.87-.6,2.76-.91l.29-.1c1-.36,2-.74,3-1.13l.16-.07c1-.4,1.93-.82,2.82-1.25h0a36.46,36.46,0,0,0,4.83-2.75v45.88A3.22,3.22,0,0,1,678.72,791.49Zm-64.82-74c40.57,0,65.48,9.46,65.48,16.25a3.48,3.48,0,0,1-.66,1.88c-2.85,4.19-13,8.47-28,11.25l-.13,0-1.7.3-1.77.29h0a211.23,211.23,0,0,1-27.63,2.43l-.93,0-1.78,0-2.9,0-2.9,0-1.77,0-.94,0a208.56,208.56,0,0,1-27.56-2.43l-.12,0-1.67-.27-1.81-.33h0c-15-2.79-25.12-7.06-28-11.26a3.42,3.42,0,0,1-.67-1.88C548.45,727,573.35,717.5,613.9,717.5Z"/><path class="cls-9" d="M682.82,786.4a3,3,0,0,0-3,3,3.7,3.7,0,0,1-.7,2c-2.58,3.81-10.78,7.54-22.49,10.22-12.17,2.79-27.35,4.32-42.74,4.32s-30.55-1.53-42.71-4.32c-11.71-2.68-19.9-6.41-22.47-10.21a3.72,3.72,0,0,1-.71-2,3,3,0,1,0-6,0v55.07a9.41,9.41,0,0,0,1.79,5.44,14.91,14.91,0,0,0,1.91,2.22c4.6,4.44,13.58,8.19,26,10.86a224.27,224.27,0,0,0,84.44,0c12.39-2.66,21.36-6.41,26-10.85a14.14,14.14,0,0,0,1.94-2.24,9.43,9.43,0,0,0,1.79-5.43V789.39A3,3,0,0,0,682.82,786.4Zm-3,58.06a3.49,3.49,0,0,1-.7,2A9.19,9.19,0,0,1,678,847.8h0c-3.81,3.68-12.21,7-23.65,9.43a217.68,217.68,0,0,1-80.78,0c-11.44-2.4-19.84-5.75-23.65-9.44h0a8.61,8.61,0,0,1-1.13-1.32,3.54,3.54,0,0,1-.71-2V799c4.9,3.54,12.73,6.56,23,8.82,12.3,2.72,27.14,4.15,42.92,4.15s30.63-1.43,42.94-4.15c10.24-2.26,18.08-5.28,23-8.83Z"/><path class="cls-9" d="M682.82,841.52a3,3,0,0,0-3,3,3.67,3.67,0,0,1-.7,2c-2.58,3.81-10.78,7.54-22.49,10.22-12.17,2.79-27.35,4.33-42.74,4.33s-30.55-1.54-42.71-4.33c-11.71-2.68-19.9-6.4-22.47-10.21a3.67,3.67,0,0,1-.71-2,3,3,0,0,0-6,0v55.07a9.38,9.38,0,0,0,1.79,5.44,14.91,14.91,0,0,0,1.91,2.22c4.6,4.44,13.58,8.2,26,10.86a223.72,223.72,0,0,0,84.44,0c12.39-2.66,21.36-6.41,26-10.84A14.22,14.22,0,0,0,684,905a9.39,9.39,0,0,0,1.78-5.43V844.51A3,3,0,0,0,682.82,841.52Zm-3,58.06a3.54,3.54,0,0,1-.7,2,9.64,9.64,0,0,1-1.16,1.34l0,0c-3.81,3.68-12.21,7-23.65,9.42a217.68,217.68,0,0,1-80.78,0c-11.44-2.4-19.84-5.75-23.65-9.44h0a8.61,8.61,0,0,1-1.13-1.32,3.54,3.54,0,0,1-.71-2V854.07c4.9,3.54,12.73,6.56,23,8.82,12.3,2.72,27.14,4.16,42.92,4.16s30.63-1.44,42.94-4.15c10.24-2.27,18.08-5.29,23-8.83Z"/><circle class="cls-8" cx="613.92" cy="833.67" r="51.84"/><path class="cls-3" d="M597,866.19a33.76,33.76,0,0,0,44.45-10.36,2.58,2.58,0,0,0-.87-3.71h0a2.58,2.58,0,0,0-3.42.8,28.52,28.52,0,1,1-13.51-42.73l-8.46,5.69a2.6,2.6,0,0,0-.7,3.6h0a2.59,2.59,0,0,0,3.6.7l12.28-8.26a2.55,2.55,0,0,0,.8-.87,2.62,2.62,0,0,0,.16-2.24l-5.22-13a2.59,2.59,0,0,0-3.37-1.44h0a2.59,2.59,0,0,0-1.44,3.37l2.85,7.12A33.7,33.7,0,0,0,597,866.19Z"/><path class="cls-4" d="M591.06,832.72a5.15,5.15,0,0,1,2.06-4.44,8.64,8.64,0,0,1,5.17-1.49,11.7,11.7,0,0,1,5.44,1.41v3.57a8.92,8.92,0,0,0-5-1.54,6.32,6.32,0,0,0-2.85.58,1.91,1.91,0,0,0-1.16,1.82,1.73,1.73,0,0,0,1.06,1.58,11.05,11.05,0,0,0,2.57,1,26.72,26.72,0,0,1,3,1,5.76,5.76,0,0,1,2.58,2.05A6.35,6.35,0,0,1,605,842a4.8,4.8,0,0,1-2,4,8,8,0,0,1-5,1.54,12.7,12.7,0,0,1-6.69-1.7v-3.68a9.58,9.58,0,0,0,5.84,1.94q4.19,0,4.19-2.33a2.26,2.26,0,0,0-.76-1.75,4.57,4.57,0,0,0-1.91-1c-.78-.22-1.6-.49-2.48-.79a24.63,24.63,0,0,1-2.48-1,4.54,4.54,0,0,1-1.91-1.66A5,5,0,0,1,591.06,832.72Z"/><path class="cls-4" d="M608.44,837.15a14.78,14.78,0,0,1,.58-4.37,8.76,8.76,0,0,1,1.49-3,7.47,7.47,0,0,1,2.2-1.82,8.76,8.76,0,0,1,2.54-.94,15,15,0,0,1,2.67-.23,14.81,14.81,0,0,1,2.66.23,9.06,9.06,0,0,1,2.52.94,7.55,7.55,0,0,1,2.22,1.83,8.42,8.42,0,0,1,1.5,3,14.71,14.71,0,0,1,.58,4.36,15.49,15.49,0,0,1-.47,4,9.43,9.43,0,0,1-1.25,2.87,7.23,7.23,0,0,1-1.87,1.87,8.13,8.13,0,0,1-2.2,1.11,11.67,11.67,0,0,1-2.38.46,2.18,2.18,0,0,0,1,2,4.58,4.58,0,0,0,2.45.63V853q-6.5,0-6.5-5.53a10.11,10.11,0,0,1-2.86-.78,8.64,8.64,0,0,1-2.45-1.71,7.73,7.73,0,0,1-1.81-3.12A14.86,14.86,0,0,1,608.44,837.15Zm4.1-3.75a15.89,15.89,0,0,0,0,7.51,4.32,4.32,0,0,0,1.35,2.2,4.74,4.74,0,0,0,1.81.95,10.3,10.3,0,0,0,4.42,0,4.74,4.74,0,0,0,1.83-.95,4.32,4.32,0,0,0,1.35-2.2,15.89,15.89,0,0,0,0-7.51,4.32,4.32,0,0,0-1.35-2.2,4.91,4.91,0,0,0-1.83-1,10.73,10.73,0,0,0-4.42,0,4.91,4.91,0,0,0-1.81,1A4.32,4.32,0,0,0,612.54,833.4Z"/><path class="cls-4" d="M631.51,847.3V827h3.65v16.83h9.76v3.45Z"/><path class="cls-9" d="M573,952.15s-4.22,6.4,4.08,7.71c.81.1,6.83.72,8.38,2.69,0,0-.14-3.4-5-5.4S573.58,954.65,573,952.15Z"/><path class="cls-9" d="M577.15,938.38s-11.82,7.2-.68,14.37c2.14,1.39,9.91,5.28,9.68,8.85,0,0,4.71-7-2.17-11.35C576.91,945.75,575.14,941,577.15,938.38Z"/><path class="cls-9" d="M589.35,945.42c-5.06-5.3-6.47-8.58-4.3-12.82,0,0-15.13,5.81-.2,16.14,5.35,3.69,4.46,7.46,4.46,7.6C590.15,955.47,594.41,950.73,589.35,945.42Z"/><text class="cls-10" transform="translate(597.58 955.91)"><tspan class="cls-11">N</tspan><tspan class="cls-12" x="15.85" y="0">O</tspan><tspan class="cls-13" x="31.71" y="0">D</tspan><tspan x="46.06" y="0">E</tspan></text></g></g></svg>