<svg xmlns="http://www.w3.org/2000/svg" viewBox="0 0 701.31 1014.03"><defs><style>.cls-1{isolation:isolate;}.cls-2{fill:#575656;}.cls-3{fill:#777;}.cls-10,.cls-4{fill:#1d1d1b;}.cls-5{fill:none;stroke:#575756;stroke-miterlimit:10;}.cls-6{fill:#efeeed;mix-blend-mode:multiply;}.cls-7{fill:#ea5e12;}.cls-8{fill:#fff;}.cls-9{fill:#e5282a;}.cls-10{font-size:21.57px;font-family:MavenProMedium, Maven Pro;}.cls-11{letter-spacing:0em;}.cls-12{letter-spacing:-0.01em;}.cls-13{letter-spacing:-0.01em;}</style></defs><g class="cls-1"><g id="Capa_1" data-name="Capa 1"><path class="cls-2" d="M285.89,897.26V880.54h2.34v16.72Z"/><path class="cls-2" d="M292.05,897.26V885.81a12,12,0,0,1,5.33-1.28,5.28,5.28,0,0,1,3.73,1.24,4.39,4.39,0,0,1,1.35,3.42v8.07h-2.34V889a2.59,2.59,0,0,0-.56-1.75,3.06,3.06,0,0,0-2.27-.63,9.63,9.63,0,0,0-3,.45v10.17Z"/><path class="cls-2" d="M306.64,890.77v-1.95h7.64v1.95Z"/><path class="cls-2" d="M318.35,902V888.58a4.33,4.33,0,0,1,.07-.8,4.37,4.37,0,0,1,.38-1,3.56,3.56,0,0,1,.81-1.08,4.31,4.31,0,0,1,1.54-.8,8,8,0,0,1,3.75-.21,4.78,4.78,0,0,1,1.45.55,4.59,4.59,0,0,1,1.37,1.11,5.69,5.69,0,0,1,1,1.93,10,10,0,0,1,.38,2.87,8.83,8.83,0,0,1-.51,3.18,4,4,0,0,1-1.4,1.95,5.92,5.92,0,0,1-1.81.91,6.94,6.94,0,0,1-2,.28,9.39,9.39,0,0,1-2.66-.37V902Zm2.29-7.13a7.42,7.42,0,0,0,2.66.5,5,5,0,0,0,1.32-.15,2.84,2.84,0,0,0,1.07-.56,2.65,2.65,0,0,0,.81-1.3,7.86,7.86,0,0,0,.27-2.25,9.13,9.13,0,0,0-.27-2.42,2.85,2.85,0,0,0-.8-1.4,3.09,3.09,0,0,0-1-.6,4.06,4.06,0,0,0-1.16-.16c-1.93,0-2.89.63-2.89,1.88Z"/><path class="cls-2" d="M332.54,897.26V880h2.29v17.27Z"/><path class="cls-2" d="M338.06,893.31a3.29,3.29,0,0,1,1.57-2.9,7.69,7.69,0,0,1,4.32-1,18.86,18.86,0,0,1,2.28.14,3,3,0,0,0-.87-2.26,3.87,3.87,0,0,0-2.58-.69,10.73,10.73,0,0,0-3.47.63v-2a10.61,10.61,0,0,1,3.79-.68,5.66,5.66,0,0,1,4,1.36,5.1,5.1,0,0,1,1.42,3.88v3.62a3.62,3.62,0,0,1-.08.8,4.59,4.59,0,0,1-.38,1,3.49,3.49,0,0,1-.81,1.09,4.29,4.29,0,0,1-1.55.8,7.53,7.53,0,0,1-2.39.34,7.67,7.67,0,0,1-2.42-.35,4.65,4.65,0,0,1-1.57-.82,3.62,3.62,0,0,1-.84-1.1,4.27,4.27,0,0,1-.39-1.06A4.62,4.62,0,0,1,338.06,893.31Zm2.29,0c0,1.42,1,2.12,3,2.12h0c1.89,0,2.84-.68,2.84-2v-2a14.77,14.77,0,0,0-2.18-.16,6.57,6.57,0,0,0-1.05.09,9.28,9.28,0,0,0-1.19.29,2.35,2.35,0,0,0-1.05.64A1.56,1.56,0,0,0,340.35,893.28Z"/><path class="cls-2" d="M352.57,895.8a8.51,8.51,0,0,1,0-9.59,5.56,5.56,0,0,1,4.34-1.66,10.08,10.08,0,0,1,3.69.7v2.18a8,8,0,0,0-3.44-.82h-.05a3.92,3.92,0,0,0-2.71.89c-.65.59-1,1.76-1,3.51a7.86,7.86,0,0,0,.29,2.3,2.69,2.69,0,0,0,.86,1.36,3,3,0,0,0,1.15.58,5.63,5.63,0,0,0,1.39.15,8,8,0,0,0,3.49-.8v2.17a10.07,10.07,0,0,1-3.69.69A5.53,5.53,0,0,1,352.57,895.8Z"/><path class="cls-2" d="M362.84,891.16q0-6.61,5.52-6.61h0a5.17,5.17,0,0,1,4,1.64,6.28,6.28,0,0,1,1.5,4.4c0,.59,0,1.17-.07,1.71h-8.64c.27,2.15,1.45,3.22,3.52,3.22a9.13,9.13,0,0,0,4.32-.94v2.09a11.2,11.2,0,0,1-4.37.81h-.07a7.27,7.27,0,0,1-2-.27,6,6,0,0,1-1.81-.92,4.13,4.13,0,0,1-1.39-1.95A8.83,8.83,0,0,1,362.84,891.16Zm2.3-.91h6.43a6.53,6.53,0,0,0-.22-1.2,5,5,0,0,0-.5-1.15,2.38,2.38,0,0,0-1-.94,3.16,3.16,0,0,0-1.52-.35,3,3,0,0,0-2.32.82A4.82,4.82,0,0,0,365.14,890.25Z"/><path class="cls-2" d="M385.22,891.16q0-6.61,5.52-6.61h0a5.17,5.17,0,0,1,4,1.64,6.28,6.28,0,0,1,1.5,4.4c0,.59,0,1.17-.07,1.71h-8.64c.27,2.15,1.45,3.22,3.52,3.22a9.13,9.13,0,0,0,4.32-.94v2.09a11.2,11.2,0,0,1-4.37.81H391a7.27,7.27,0,0,1-2-.27,6,6,0,0,1-1.81-.92,4.13,4.13,0,0,1-1.39-1.95A8.83,8.83,0,0,1,385.22,891.16Zm2.3-.91H394a6.53,6.53,0,0,0-.22-1.2,5,5,0,0,0-.5-1.15,2.38,2.38,0,0,0-1-.94,3.16,3.16,0,0,0-1.52-.35,3,3,0,0,0-2.32.82A4.82,4.82,0,0,0,387.52,890.25Z"/><path class="cls-2" d="M397.94,897.26l4.52-6.24-4.41-6.27h2.8l3,4.19,2.95-4.19h2.82l-4.42,6.1,4.52,6.41h-2.82l-3.05-4.33-3.06,4.33Z"/><path class="cls-2" d="M411.65,891.16q0-6.61,5.52-6.61h0a5.19,5.19,0,0,1,4,1.64,6.28,6.28,0,0,1,1.5,4.4c0,.59,0,1.17-.08,1.71H414q.42,3.23,3.52,3.22a9.2,9.2,0,0,0,4.33-.94v2.09a11.23,11.23,0,0,1-4.37.81h-.08a7.27,7.27,0,0,1-2-.27,6.08,6.08,0,0,1-1.81-.92,4.13,4.13,0,0,1-1.39-1.95A8.83,8.83,0,0,1,411.65,891.16Zm2.3-.91h6.43a5.79,5.79,0,0,0-.21-1.2,5,5,0,0,0-.51-1.15,2.38,2.38,0,0,0-1-.94,3.13,3.13,0,0,0-1.52-.35,3,3,0,0,0-2.32.82A4.82,4.82,0,0,0,414,890.25Z"/><path class="cls-2" d="M426.68,895.8a8.46,8.46,0,0,1,0-9.59,5.55,5.55,0,0,1,4.34-1.66,10.07,10.07,0,0,1,3.68.7v2.18a7.93,7.93,0,0,0-3.44-.82h0a3.88,3.88,0,0,0-2.71.89c-.65.59-1,1.76-1,3.51a7.86,7.86,0,0,0,.29,2.3,2.75,2.75,0,0,0,.85,1.36,3.09,3.09,0,0,0,1.16.58,5.58,5.58,0,0,0,1.39.15,7.94,7.94,0,0,0,3.48-.8v2.17a10.06,10.06,0,0,1-3.68.69A5.51,5.51,0,0,1,426.68,895.8Z"/><path class="cls-2" d="M437.49,892v-7.25h2.29v7.43a3.66,3.66,0,0,0,.73,2.5,3,3,0,0,0,2.28.8,2.93,2.93,0,0,0,2.27-.8,3.68,3.68,0,0,0,.71-2.5v-7.43h2.29V892a5.58,5.58,0,0,1-1.38,4,6,6,0,0,1-7.79,0A5.54,5.54,0,0,1,437.49,892Z"/><path class="cls-2" d="M450.52,886.71v-2h2.18V881H455v3.71h3.33v2H455v7.23c0,1,.62,1.46,1.85,1.46h0a2.8,2.8,0,0,0,1.46-.36v2.07a4.55,4.55,0,0,1-1.71.35h-.07a4.79,4.79,0,0,1-1-.11,6.08,6.08,0,0,1-1.23-.43,2.67,2.67,0,0,1-1.18-1.13,3.77,3.77,0,0,1-.47-2v-7.1Z"/><path class="cls-2" d="M461.34,882.82v-2.43h2.44v2.43Zm.08,14.44V884.75h2.29v12.51Z"/><path class="cls-2" d="M467.54,894.25a10.11,10.11,0,0,1,0-6.46,4.4,4.4,0,0,1,1.44-2,6,6,0,0,1,1.86-.93,7.9,7.9,0,0,1,4.17,0,6,6,0,0,1,1.86.93,4.4,4.4,0,0,1,1.44,2,10.11,10.11,0,0,1,0,6.46,4.31,4.31,0,0,1-1.44,2,5.83,5.83,0,0,1-1.86.94,7.9,7.9,0,0,1-4.17,0,5.83,5.83,0,0,1-1.86-.94A4.31,4.31,0,0,1,467.54,894.25Zm2.09-5.54a9.67,9.67,0,0,0,0,4.62,2.59,2.59,0,0,0,.82,1.34,3.16,3.16,0,0,0,1.11.59,6.72,6.72,0,0,0,2.73,0,3.16,3.16,0,0,0,1.11-.59,2.66,2.66,0,0,0,.83-1.34,10,10,0,0,0,0-4.62,2.66,2.66,0,0,0-.83-1.34,3,3,0,0,0-1.11-.59,6.72,6.72,0,0,0-2.73,0,3,3,0,0,0-1.11.59A2.59,2.59,0,0,0,469.63,888.71Z"/><path class="cls-2" d="M481.73,897.26V885.81a12,12,0,0,1,5.33-1.28,5.3,5.3,0,0,1,3.73,1.24,4.42,4.42,0,0,1,1.34,3.42v8.07H489.8V889a2.54,2.54,0,0,0-.57-1.75,3,3,0,0,0-2.27-.63,9.61,9.61,0,0,0-2.94.45v10.17Z"/><path class="cls-2" d="M285.47,925.83a10.11,10.11,0,0,1,0-6.46,4.34,4.34,0,0,1,1.44-2,6,6,0,0,1,1.86-.94,8.15,8.15,0,0,1,4.16,0,6.2,6.2,0,0,1,1.87.94,4.49,4.49,0,0,1,1.44,2,10.29,10.29,0,0,1,0,6.46,4.51,4.51,0,0,1-1.44,2,6,6,0,0,1-1.87.94,7.87,7.87,0,0,1-4.16,0,5.83,5.83,0,0,1-1.86-.94A4.36,4.36,0,0,1,285.47,925.83Zm2.08-5.54a10,10,0,0,0,0,4.61,2.59,2.59,0,0,0,.83,1.35,2.83,2.83,0,0,0,1.11.58,5.32,5.32,0,0,0,1.36.15,5.27,5.27,0,0,0,1.36-.15,2.94,2.94,0,0,0,1.12-.58,2.64,2.64,0,0,0,.82-1.35,9.63,9.63,0,0,0,0-4.61,2.68,2.68,0,0,0-.82-1.35,3.09,3.09,0,0,0-1.12-.58,5.27,5.27,0,0,0-1.36-.15,5.32,5.32,0,0,0-1.36.15,3,3,0,0,0-1.11.58A2.63,2.63,0,0,0,287.55,920.29Z"/><path class="cls-2" d="M298.31,918.34v-2h1.75v-.6q0-4.66,4.16-4.67a5.57,5.57,0,0,1,1.36.17v2a4.54,4.54,0,0,0-.93-.1,6.31,6.31,0,0,0-.88,0,2,2,0,0,0-.69.27,1.32,1.32,0,0,0-.56.79,5.16,5.16,0,0,0-.17,1.5v.6h3.23v2h-3.23v10.5h-2.29v-10.5Z"/><path class="cls-2" d="M315.57,916.63A4.46,4.46,0,0,1,317,913.3a6.15,6.15,0,0,1,4.42-1.38,9.61,9.61,0,0,1,4.31,1v2.27a7.67,7.67,0,0,0-4-1.11q-3.79,0-3.79,2.53a1.47,1.47,0,0,0,.66,1.19,5.3,5.3,0,0,0,1.65.81,22.49,22.49,0,0,1,2.14.79,20.35,20.35,0,0,1,2.14,1,4.43,4.43,0,0,1,1.65,1.6,4.48,4.48,0,0,1,.66,2.44,4,4,0,0,1-1.61,3.35,7.26,7.26,0,0,1-4.43,1.21,11.26,11.26,0,0,1-5-1.2v-2.41a9,9,0,0,0,4.77,1.43q3.9,0,3.91-2.38a2.48,2.48,0,0,0-.66-1.73,3.85,3.85,0,0,0-1.64-1L320,921c-.78-.27-1.5-.55-2.15-.83a4,4,0,0,1-1.64-1.33A3.6,3.6,0,0,1,315.57,916.63Z"/><path class="cls-2" d="M329.49,920.47a12.26,12.26,0,0,1,.48-3.6,7.18,7.18,0,0,1,1.23-2.48,6.17,6.17,0,0,1,1.82-1.5,7.35,7.35,0,0,1,2.08-.77,11.51,11.51,0,0,1,2.17-.2,11.68,11.68,0,0,1,2.2.2,7.29,7.29,0,0,1,2.07.77,6.26,6.26,0,0,1,1.81,1.5,7.18,7.18,0,0,1,1.23,2.48,13.85,13.85,0,0,1-.07,7.48A6.31,6.31,0,0,1,343,927a7,7,0,0,1-2.05,1.4,8.47,8.47,0,0,1-2.39.61,2.49,2.49,0,0,0,.66,1.72,2.34,2.34,0,0,0,1.84.74v1.83a4.92,4.92,0,0,1-3.44-1.24,3.93,3.93,0,0,1-1.35-3,8.52,8.52,0,0,1-2.47-.57,6.86,6.86,0,0,1-2.13-1.36,6.21,6.21,0,0,1-1.6-2.61A12.44,12.44,0,0,1,329.49,920.47Zm2.68-2.86a10.43,10.43,0,0,0-.34,2.86,10.66,10.66,0,0,0,.34,2.87,6,6,0,0,0,.84,1.89,3.79,3.79,0,0,0,1.27,1.08,4.63,4.63,0,0,0,1.44.51,10.22,10.22,0,0,0,1.54.11,10.36,10.36,0,0,0,1.55-.11,4.59,4.59,0,0,0,1.45-.51,3.83,3.83,0,0,0,1.28-1.08,5.76,5.76,0,0,0,.85-1.89,11.1,11.1,0,0,0,.33-2.87,10.86,10.86,0,0,0-.33-2.86,5.7,5.7,0,0,0-.84-1.88,3.64,3.64,0,0,0-1.28-1.08,4.68,4.68,0,0,0-1.45-.51,11,11,0,0,0-3.11,0,4.58,4.58,0,0,0-1.43.51,3.79,3.79,0,0,0-1.27,1.08A5.91,5.91,0,0,0,332.17,917.61Z"/><path class="cls-2" d="M348.53,928.84V912.12h2.34v14.54h8.3v2.18Z"/><path class="cls-2" d="M369.56,922.72a9.58,9.58,0,0,1,.39-2.87,5.51,5.51,0,0,1,.95-1.93,4.28,4.28,0,0,1,1.35-1.11,5.16,5.16,0,0,1,1.46-.56,7.67,7.67,0,0,1,1.37-.12,7.4,7.4,0,0,1,2.37.34,4.15,4.15,0,0,1,1.54.8,3.56,3.56,0,0,1,.81,1.08,4.21,4.21,0,0,1,.38,1,5.52,5.52,0,0,1,.07.8V933.6H378v-4.93a9.69,9.69,0,0,1-2.65.37,7.3,7.3,0,0,1-2-.27,5.46,5.46,0,0,1-1.8-.91,4.27,4.27,0,0,1-1.39-2A8.61,8.61,0,0,1,369.56,922.72Zm2.29,0a7.46,7.46,0,0,0,.28,2.24,2.49,2.49,0,0,0,.8,1.31,3,3,0,0,0,1.06.56,5,5,0,0,0,1.32.15,7.25,7.25,0,0,0,2.65-.5V920c0-1.25-1-1.87-2.88-1.87a3.63,3.63,0,0,0-1.15.16,3,3,0,0,0-1,.6,2.78,2.78,0,0,0-.78,1.41A8.67,8.67,0,0,0,371.85,922.72Z"/><path class="cls-2" d="M383.8,923.58v-7.25h2.29v7.42a3.69,3.69,0,0,0,.72,2.51,3,3,0,0,0,2.28.79,2.91,2.91,0,0,0,2.27-.79,3.64,3.64,0,0,0,.71-2.51v-7.42h2.29v7.25a5.61,5.61,0,0,1-1.38,4,6,6,0,0,1-7.79,0A5.57,5.57,0,0,1,383.8,923.58Z"/><path class="cls-2" d="M397.63,922.73q0-6.6,5.52-6.6h0a5.19,5.19,0,0,1,4,1.64,6.25,6.25,0,0,1,1.5,4.39c0,.6,0,1.17-.08,1.72H400c.28,2.15,1.45,3.22,3.53,3.22a9.13,9.13,0,0,0,4.32-.94v2.09a11.23,11.23,0,0,1-4.37.81h-.08a6.92,6.92,0,0,1-2-.28,5.82,5.82,0,0,1-1.81-.91,4.18,4.18,0,0,1-1.39-2A8.89,8.89,0,0,1,397.63,922.73Zm2.3-.9h6.43a5.79,5.79,0,0,0-.21-1.2,5.27,5.27,0,0,0-.51-1.16,2.36,2.36,0,0,0-1-.93,3.63,3.63,0,0,0-3.84.46A4.88,4.88,0,0,0,399.93,921.83Z"/><path class="cls-2" d="M411.64,928.84V917.38a16.46,16.46,0,0,1,6.09-1.25v2.11a15.86,15.86,0,0,0-3.8.52v10.08Z"/><path class="cls-2" d="M420.28,914.39V912h2.44v2.42Zm.08,14.45V916.33h2.28v12.51Z"/><path class="cls-2" d="M426.11,922.73q0-6.6,5.52-6.6h0a5.17,5.17,0,0,1,4,1.64,6.25,6.25,0,0,1,1.5,4.39c0,.6,0,1.17-.07,1.72h-8.64c.27,2.15,1.45,3.22,3.52,3.22a9.2,9.2,0,0,0,4.33-.94v2.09a11.25,11.25,0,0,1-4.38.81h-.07a6.92,6.92,0,0,1-2-.28,5.71,5.71,0,0,1-1.81-.91,4.18,4.18,0,0,1-1.39-2A8.89,8.89,0,0,1,426.11,922.73Zm2.3-.9h6.43a5.79,5.79,0,0,0-.22-1.2,5.21,5.21,0,0,0-.5-1.16,2.42,2.42,0,0,0-1-.93,3,3,0,0,0-1.52-.35,3,3,0,0,0-2.32.81A4.88,4.88,0,0,0,428.41,921.83Z"/><path class="cls-2" d="M439.56,919.86a3.57,3.57,0,0,1,1.11-2.64,4.7,4.7,0,0,1,3.39-1.09,7.48,7.48,0,0,1,3.34.82v2a7.44,7.44,0,0,0-3.06-.74c-1.66,0-2.49.53-2.49,1.6a1,1,0,0,0,.66.87,8.37,8.37,0,0,0,1.6.61,19.5,19.5,0,0,1,1.86.64,3.68,3.68,0,0,1,1.6,1.25,3.71,3.71,0,0,1-.47,4.78,4.92,4.92,0,0,1-3.52,1.1,7.45,7.45,0,0,1-3.61-.88v-2.1a7,7,0,0,0,3.46.92h.05a3.3,3.3,0,0,0,1.83-.43,1.3,1.3,0,0,0,.63-1.11,1.47,1.47,0,0,0-.65-1.24,5,5,0,0,0-1.6-.73c-.63-.18-1.25-.37-1.88-.59a3.65,3.65,0,0,1-1.59-1.07A2.84,2.84,0,0,1,439.56,919.86Z"/><path class="cls-3" d="M217.65,933.54a32.43,32.43,0,0,0,42.72-9.95,2.5,2.5,0,0,0-.83-3.57h0a2.5,2.5,0,0,0-3.29.77,27.41,27.41,0,1,1-13-41.07l-8.12,5.47a2.5,2.5,0,0,0-.68,3.46h0a2.5,2.5,0,0,0,3.46.68l11.8-7.94a2.59,2.59,0,0,0,.78-.84,2.55,2.55,0,0,0,.15-2.16l-5-12.5a2.5,2.5,0,0,0-3.24-1.38h0a2.49,2.49,0,0,0-1.39,3.24l2.74,6.83a32.39,32.39,0,0,0-26.09,59Z"/><path class="cls-4" d="M212,901.38a4.94,4.94,0,0,1,2-4.27,8.26,8.26,0,0,1,5-1.44,11.3,11.3,0,0,1,5.23,1.36v3.44a8.61,8.61,0,0,0-4.82-1.49,6.12,6.12,0,0,0-2.73.56,1.84,1.84,0,0,0-1.12,1.76,1.67,1.67,0,0,0,1,1.51,10.82,10.82,0,0,0,2.47.93,26.63,26.63,0,0,1,2.91,1,5.54,5.54,0,0,1,2.48,2,6,6,0,0,1,1,3.63,4.61,4.61,0,0,1-1.95,3.83,7.67,7.67,0,0,1-4.77,1.49,12.27,12.27,0,0,1-6.43-1.64v-3.54a9.22,9.22,0,0,0,5.62,1.87q4,0,4-2.24a2.19,2.19,0,0,0-.73-1.69,4.57,4.57,0,0,0-1.84-1c-.74-.21-1.53-.46-2.38-.75s-1.64-.61-2.38-.95a4.37,4.37,0,0,1-1.84-1.61A4.69,4.69,0,0,1,212,901.38Z"/><path class="cls-4" d="M228.68,905.64a14.31,14.31,0,0,1,.55-4.2,8.25,8.25,0,0,1,1.44-2.88,7,7,0,0,1,2.11-1.75,8.39,8.39,0,0,1,2.44-.91,14,14,0,0,1,2.57-.23,13.58,13.58,0,0,1,2.55.23,8.44,8.44,0,0,1,2.43.91,7.09,7.09,0,0,1,2.13,1.75,8.17,8.17,0,0,1,1.45,2.88,14.38,14.38,0,0,1,.56,4.2,14.73,14.73,0,0,1-.46,3.83,9,9,0,0,1-1.2,2.75,6.6,6.6,0,0,1-1.8,1.81,8,8,0,0,1-2.11,1.06,11.61,11.61,0,0,1-2.29.45,2.1,2.1,0,0,0,1,1.94,4.48,4.48,0,0,0,2.36.6v2.74q-6.26,0-6.25-5.31a9.66,9.66,0,0,1-2.75-.75,8.16,8.16,0,0,1-2.36-1.65,7.26,7.26,0,0,1-1.74-3A14.67,14.67,0,0,1,228.68,905.64Zm3.94-3.61a15,15,0,0,0,0,7.22,4.13,4.13,0,0,0,1.3,2.11,4.6,4.6,0,0,0,1.74.92,8.61,8.61,0,0,0,2.13.23,8.76,8.76,0,0,0,2.12-.23,4.64,4.64,0,0,0,1.75-.92,4.13,4.13,0,0,0,1.3-2.11,15,15,0,0,0,0-7.22,4.13,4.13,0,0,0-1.3-2.11,4.64,4.64,0,0,0-1.75-.92,8.76,8.76,0,0,0-2.12-.23,8.61,8.61,0,0,0-2.13.23,4.6,4.6,0,0,0-1.74.92A4.13,4.13,0,0,0,232.62,902Z"/><path class="cls-4" d="M250.86,915.39V895.9h3.51v16.18h9.37v3.31Z"/><rect class="cls-5" x="183.49" y="845.29" width="334.33" height="118.48" rx="12"/><rect class="cls-6" x="35.57" y="50.26" width="630.18" height="86.1" rx="5.74"/><path class="cls-4" d="M206.8,90.37a5.34,5.34,0,0,1,1.72-4q1.71-1.65,5.31-1.65A11.63,11.63,0,0,1,219,85.93v2.73a9.22,9.22,0,0,0-4.85-1.33q-4.54,0-4.55,3a1.78,1.78,0,0,0,.8,1.43,6.42,6.42,0,0,0,2,1c.78.24,1.64.56,2.57.94A25.84,25.84,0,0,1,217.54,95a5.48,5.48,0,0,1,2.77,4.85,4.75,4.75,0,0,1-1.93,4,8.68,8.68,0,0,1-5.33,1.45,13.52,13.52,0,0,1-6-1.44V101a10.91,10.91,0,0,0,5.73,1.7q4.68,0,4.7-2.85a3,3,0,0,0-.8-2.08,4.62,4.62,0,0,0-2-1.25l-2.59-.87c-.94-.33-1.8-.66-2.58-1a4.91,4.91,0,0,1-2-1.6A4.32,4.32,0,0,1,206.8,90.37Z"/><path class="cls-4" d="M224.54,105V84.94h7.26A7.43,7.43,0,0,1,237,86.6a6.82,6.82,0,0,1,0,9.34,7.52,7.52,0,0,1-5.19,1.65h-4.44V105Zm2.81-9.92h4.18c1.78,0,3-.34,3.58-1a4.75,4.75,0,0,0,0-5.58c-.6-.69-1.8-1-3.59-1h-4.18Z"/><path class="cls-4" d="M239.38,105l8-20.1h2.74l8,20.1h-3L253,99.4h-8.39L242.4,105Zm6.18-8.26H252l-3.19-8.34Z"/><path class="cls-4" d="M261.21,105V84.94h7.42a8.17,8.17,0,0,1,5.3,1.58,5.47,5.47,0,0,1,1.94,4.5,5.7,5.7,0,0,1-1.29,3.92,6.64,6.64,0,0,1-3.22,2l5.34,8.1h-3.31l-4.85-7.65H264V105ZM264,94.77h4.49c1.75,0,2.94-.34,3.58-1a3.7,3.7,0,0,0,1-2.64q0-3.7-4.67-3.7H264Z"/><path class="cls-4" d="M280.16,105V84.94H283v9.73l9.21-9.73h3.53L287.18,94l9.28,11H293l-7.66-9L283,98.54V105Z"/><path class="cls-4" d="M308.65,105l8-20.1h2.74l8,20.1h-3l-2.16-5.64h-8.39L311.67,105Zm6.18-8.26h6.39L318,88.44Z"/><path class="cls-4" d="M330.81,105V84.94h7.25a7.47,7.47,0,0,1,5.19,1.66,6.85,6.85,0,0,1,0,9.34,7.52,7.52,0,0,1-5.19,1.65h-4.44V105Zm2.81-9.92h4.18c1.78,0,3-.34,3.58-1a4.77,4.77,0,0,0,0-5.58c-.59-.69-1.79-1-3.58-1h-4.18Z"/><path class="cls-4" d="M348.75,105V84.94H356a7.43,7.43,0,0,1,5.18,1.66,6.82,6.82,0,0,1,0,9.34A7.49,7.49,0,0,1,356,97.59h-4.44V105Zm2.81-9.92h4.18c1.79,0,3-.34,3.58-1a4.75,4.75,0,0,0,0-5.58c-.6-.69-1.79-1-3.59-1h-4.18Z"/><path class="cls-4" d="M366.64,105V84.94h2.81v17.48h10V105Z"/><path class="cls-4" d="M383.35,105V84.94h2.81V105Z"/><path class="cls-4" d="M391,99.31a17.36,17.36,0,0,1,0-8.67,8.71,8.71,0,0,1,1.44-3,6.86,6.86,0,0,1,2.15-1.81,8.7,8.7,0,0,1,2.51-.94,14.29,14.29,0,0,1,2.6-.23,16.69,16.69,0,0,1,6.15,1.19v2.6a14.24,14.24,0,0,0-5.83-1.26q-3.56,0-5.16,1.83T393.3,95q0,4,1.6,5.91t5.16,1.85a14.24,14.24,0,0,0,5.83-1.26v2.59a16.5,16.5,0,0,1-6.15,1.2,14.29,14.29,0,0,1-2.6-.23,8.7,8.7,0,0,1-2.51-.94,6.86,6.86,0,0,1-2.15-1.81A8.71,8.71,0,0,1,391,99.31Z"/><path class="cls-4" d="M408.59,105l8-20.1h2.74l8,20.1h-3l-2.16-5.64h-8.39L411.61,105Zm6.18-8.26h6.39L418,88.44Z"/><path class="cls-4" d="M426.28,87.56V84.94H442.6v2.62h-6.78V105H433V87.56Z"/><path class="cls-4" d="M445.87,105V84.94h2.81V105Z"/><path class="cls-4" d="M453.58,99.31a16.49,16.49,0,0,1,0-8.67,8.55,8.55,0,0,1,1.48-3,7.12,7.12,0,0,1,2.19-1.81,8.54,8.54,0,0,1,2.5-.94,14.81,14.81,0,0,1,5.2,0,8.54,8.54,0,0,1,2.5.94,7.24,7.24,0,0,1,2.19,1.81,8.73,8.73,0,0,1,1.47,3,16.49,16.49,0,0,1,0,8.67,8.73,8.73,0,0,1-1.47,3,7.24,7.24,0,0,1-2.19,1.81,8.54,8.54,0,0,1-2.5.94,14.81,14.81,0,0,1-5.2,0,8.54,8.54,0,0,1-2.5-.94,7.12,7.12,0,0,1-2.19-1.81A8.55,8.55,0,0,1,453.58,99.31Zm2.65-7.78a14.34,14.34,0,0,0,0,6.89,7,7,0,0,0,1,2.28,4.42,4.42,0,0,0,1.52,1.29,5.58,5.58,0,0,0,1.73.62,11.29,11.29,0,0,0,1.86.13,11.46,11.46,0,0,0,1.86-.13,5.58,5.58,0,0,0,1.73-.62,4.45,4.45,0,0,0,1.53-1.29,7,7,0,0,0,1-2.28,14.68,14.68,0,0,0,0-6.89,7,7,0,0,0-1-2.28A4.45,4.45,0,0,0,465.94,88a5.85,5.85,0,0,0-1.73-.62,11.46,11.46,0,0,0-1.86-.13,11.29,11.29,0,0,0-1.86.13,5.85,5.85,0,0,0-1.73.62,4.42,4.42,0,0,0-1.52,1.29A7,7,0,0,0,456.23,91.53Z"/><path class="cls-4" d="M475.88,105V84.94h3.19l11.24,16v-16h2.81V105H490l-11.32-16.1V105Z"/><rect class="cls-6" x="35.16" y="383.93" width="630.98" height="86.99" rx="5.74"/><path class="cls-4" d="M139,422.16a5.35,5.35,0,0,1,1.71-4q1.73-1.66,5.31-1.66a11.47,11.47,0,0,1,5.18,1.23v2.73a9.17,9.17,0,0,0-4.84-1.34q-4.54,0-4.55,3.05a1.74,1.74,0,0,0,.8,1.42,6.15,6.15,0,0,0,2,1c.79.25,1.64.56,2.58.95a22.77,22.77,0,0,1,2.57,1.23,5.46,5.46,0,0,1,2.77,4.86,4.75,4.75,0,0,1-1.93,4,8.72,8.72,0,0,1-5.33,1.45,13.58,13.58,0,0,1-6-1.44v-2.89a10.89,10.89,0,0,0,5.73,1.71c3.13,0,4.69-.95,4.7-2.85a3,3,0,0,0-.79-2.08,4.51,4.51,0,0,0-2-1.25l-2.58-.88c-.94-.32-1.8-.66-2.58-1a4.69,4.69,0,0,1-2-1.6A4.23,4.23,0,0,1,139,422.16Z"/><path class="cls-4" d="M156.46,436.82V416.73h2.81v8.74h9.62v-8.74h2.75v20.09h-2.75v-8.74h-9.62v8.74Z"/><path class="cls-4" d="M175.07,436.82l8-20.09h2.74l8,20.09h-3l-2.17-5.63h-8.38l-2.16,5.63Zm6.18-8.25h6.38l-3.19-8.34Z"/><path class="cls-4" d="M196.9,436.82V416.73h7.42a8.11,8.11,0,0,1,5.3,1.58,5.46,5.46,0,0,1,1.93,4.49,5.73,5.73,0,0,1-1.28,3.92,6.57,6.57,0,0,1-3.22,2l5.34,8.1h-3.31l-4.85-7.65h-4.52v7.65Zm2.81-10.27h4.49c1.74,0,2.94-.33,3.58-1a3.72,3.72,0,0,0,1-2.65q0-3.69-4.66-3.69h-4.37Z"/><path class="cls-4" d="M216,436.82V416.73h13.1v2.62H218.81v6.12h9.06v2.61h-9.06v6.12H229.1v2.62Z"/><path class="cls-4" d="M233.25,436.82V416.73h6.41c3.08,0,5.43.85,7,2.56s2.4,4.21,2.4,7.5-.8,5.79-2.39,7.49-3.94,2.54-7,2.54Zm2.81-2.47h3.16q3.67,0,5.39-1.82t1.72-5.74q0-3.94-1.72-5.77t-5.39-1.82h-3.16Z"/><path class="cls-4" d="M263.73,436.82V416.73h7.41a8.12,8.12,0,0,1,5.31,1.58,5.46,5.46,0,0,1,1.93,4.49,5.68,5.68,0,0,1-1.29,3.92,6.54,6.54,0,0,1-3.21,2l5.34,8.1h-3.31l-4.85-7.65h-4.52v7.65Zm2.81-10.27H271c1.74,0,2.94-.33,3.58-1a3.72,3.72,0,0,0,1-2.65q0-3.69-4.66-3.69h-4.37Z"/><path class="cls-4" d="M282.82,436.82V416.73h6.41q4.63,0,7,2.56c1.59,1.7,2.39,4.21,2.39,7.5s-.79,5.79-2.39,7.49-3.93,2.54-7,2.54Zm2.81-2.47h3.17c2.45,0,4.24-.61,5.39-1.82s1.71-3.13,1.71-5.74-.57-4.55-1.71-5.77-2.94-1.82-5.39-1.82h-3.17Z"/><path class="cls-4" d="M303.12,436.82V416.73h6.41q4.64,0,7,2.56c1.59,1.7,2.39,4.21,2.39,7.5s-.79,5.79-2.39,7.49-3.93,2.54-7,2.54Zm2.81-2.47h3.17c2.45,0,4.24-.61,5.39-1.82s1.71-3.13,1.71-5.74-.57-4.55-1.71-5.77-2.94-1.82-5.39-1.82h-3.17Z"/><path class="cls-4" d="M322.3,426a4.28,4.28,0,0,1,1.34-3.17,5.58,5.58,0,0,1,4.06-1.31,9,9,0,0,1,4,1v2.38A8.86,8.86,0,0,0,328,424c-2,0-3,.65-3,1.93a1.22,1.22,0,0,0,.79,1.05,10.62,10.62,0,0,0,1.91.73,21.9,21.9,0,0,1,2.24.76,4.47,4.47,0,0,1,1.92,1.5,4.45,4.45,0,0,1-.56,5.75,5.89,5.89,0,0,1-4.23,1.32,8.8,8.8,0,0,1-4.34-1.06v-2.51a8.38,8.38,0,0,0,4.16,1.1H327a3.93,3.93,0,0,0,2.2-.52,1.55,1.55,0,0,0,.76-1.33,1.74,1.74,0,0,0-.79-1.49,5.87,5.87,0,0,0-1.92-.88c-.75-.21-1.51-.45-2.26-.71a4.28,4.28,0,0,1-1.91-1.29A3.45,3.45,0,0,1,322.3,426Z"/><path class="cls-4" d="M345.74,431.14a6.36,6.36,0,0,1,.84-3.18,8.16,8.16,0,0,1,3.26-2.83,6.84,6.84,0,0,1-1.88-4,4.69,4.69,0,0,1,4.71-4.68,4.64,4.64,0,0,1,3.35,1.32,4.31,4.31,0,0,1,1.37,3.23,4.36,4.36,0,0,1-.83,2.7,9.29,9.29,0,0,1-2.71,2.19l3.92,4.7a12,12,0,0,0,.78-2.6h2.75a12.14,12.14,0,0,1-1.8,4.61l3.51,4.21h-3.35l-1.76-2.09a7.71,7.71,0,0,1-5.61,2.33h-.05a7.42,7.42,0,0,1-3-.58,5.31,5.31,0,0,1-2-1.52,7.23,7.23,0,0,1-1.1-1.92A5.21,5.21,0,0,1,345.74,431.14Zm2.75.09a3.06,3.06,0,0,0,.16,1,4.44,4.44,0,0,0,.56,1.11,3,3,0,0,0,1.23,1,4.54,4.54,0,0,0,2,.39,5.25,5.25,0,0,0,4-1.81l-4.83-5.83a9.41,9.41,0,0,0-1.76,1.17,3.3,3.3,0,0,0-.94,1.19,4.6,4.6,0,0,0-.31.95A5.17,5.17,0,0,0,348.49,431.23Zm2.61-11.91a2.17,2.17,0,0,0-.67,1.62c0,.65.56,1.65,1.69,3a9.29,9.29,0,0,0,2.29-1.63,2.23,2.23,0,0,0,.54-1.48,2.12,2.12,0,0,0-.64-1.55,2.33,2.33,0,0,0-3.21,0Z"/><path class="cls-4" d="M376.39,436.82V416.73h6.41q4.63,0,7,2.56c1.59,1.7,2.39,4.21,2.39,7.5s-.79,5.79-2.39,7.49-3.93,2.54-7,2.54Zm2.81-2.47h3.17c2.45,0,4.24-.61,5.39-1.82s1.71-3.13,1.71-5.74-.57-4.55-1.71-5.77-2.94-1.82-5.39-1.82H379.2Z"/><path class="cls-4" d="M394.25,436.82l8-20.09H405l8,20.09h-3l-2.17-5.63h-8.38l-2.16,5.63Zm6.18-8.25h6.38l-3.19-8.34Z"/><path class="cls-4" d="M411.93,419.35v-2.62h16.33v2.62h-6.78v17.47h-2.81V419.35Z"/><path class="cls-4" d="M427.78,436.82l8-20.09h2.74l8,20.09h-3l-2.16-5.63H433l-2.16,5.63Zm6.17-8.25h6.39l-3.19-8.34Z"/><path class="cls-4" d="M449.55,436.82V416.73H462.2v2.62h-9.84v6.12H461v2.61h-8.66v8.74Z"/><path class="cls-4" d="M465.9,436.82V416.73h7.42a8.11,8.11,0,0,1,5.3,1.58,5.47,5.47,0,0,1,1.94,4.49,5.68,5.68,0,0,1-1.29,3.92,6.57,6.57,0,0,1-3.22,2l5.34,8.1h-3.31l-4.85-7.65h-4.52v7.65Zm2.81-10.27h4.49c1.75,0,2.94-.33,3.58-1a3.73,3.73,0,0,0,1-2.65q0-3.69-4.67-3.69h-4.37Z"/><path class="cls-4" d="M483.91,436.82l8-20.09h2.73l8,20.09h-3l-2.16-5.63h-8.38l-2.16,5.63Zm6.18-8.25h6.38l-3.19-8.34Z"/><path class="cls-4" d="M505.74,436.82V416.73h3l6.59,8.68,6.62-8.68h3v20.09h-2.81V421l-6.86,9-6.82-9v15.84Z"/><path class="cls-4" d="M530,436.82V416.73h13.1v2.62H532.84v6.12h9.06v2.61h-9.06v6.12h10.29v2.62Z"/><path class="cls-4" d="M546.62,422.16a5.35,5.35,0,0,1,1.71-4q1.73-1.66,5.31-1.66a11.47,11.47,0,0,1,5.18,1.23v2.73a9.17,9.17,0,0,0-4.84-1.34q-4.54,0-4.55,3.05a1.74,1.74,0,0,0,.8,1.42,6.15,6.15,0,0,0,2,1c.79.25,1.64.56,2.58.95a22.77,22.77,0,0,1,2.57,1.23,5.46,5.46,0,0,1,2.77,4.86,4.75,4.75,0,0,1-1.93,4,8.72,8.72,0,0,1-5.33,1.45,13.58,13.58,0,0,1-6-1.44v-2.89a10.89,10.89,0,0,0,5.73,1.71c3.13,0,4.69-.95,4.7-2.85a3,3,0,0,0-.79-2.08,4.56,4.56,0,0,0-2-1.25l-2.58-.88c-.94-.32-1.8-.66-2.58-1a4.78,4.78,0,0,1-2-1.6A4.29,4.29,0,0,1,546.62,422.16Z"/><rect class="cls-6" x="482.72" y="157.61" width="183.86" height="140.92" rx="8.1"/><path class="cls-3" d="M581.47,353.43a2,2,0,0,1-.48,1.31l-7.35,8.59a2,2,0,0,1-3,0l-7.35-8.59a2,2,0,1,1,3-2.61l5.82,6.82,5.83-6.82a2,2,0,0,1,3.52,1.3Z"/><path class="cls-3" d="M574.12,314.48v46.61a2,2,0,1,1-4,0V314.48a2,2,0,0,1,4,0Z"/><path class="cls-3" d="M562.77,321.92a2,2,0,0,1,.48-1.3l7.35-8.6a2,2,0,0,1,3,0l7.35,8.6a2,2,0,1,1-3,2.6l-5.83-6.81-5.82,6.81a2,2,0,0,1-3.53-1.3Z"/><path class="cls-4" d="M525.53,263.37H528l3.16,10.38,3.34-10.38h2.16l3.23,10,3.07-10h2.48L541,277.15h-2.35l-3.09-9.63-3.1,9.63H530Z"/><path class="cls-4" d="M547.17,270.26a10.18,10.18,0,0,1,.39-3,6.08,6.08,0,0,1,1-2,5,5,0,0,1,1.49-1.24,6,6,0,0,1,1.72-.64,10.26,10.26,0,0,1,3.61,0,6,6,0,0,1,1.72.64,5.13,5.13,0,0,1,1.5,1.24,6.08,6.08,0,0,1,1,2,11.5,11.5,0,0,1,0,5.94,6,6,0,0,1-1,2,5.26,5.26,0,0,1-1.5,1.23,6,6,0,0,1-1.72.64,10.26,10.26,0,0,1-3.61,0,6,6,0,0,1-1.72-.64,5.08,5.08,0,0,1-1.49-1.23,6,6,0,0,1-1-2A10.28,10.28,0,0,1,547.17,270.26Zm2.48,0a8.89,8.89,0,0,0,.31,2.57,2.92,2.92,0,0,0,.91,1.49,3.34,3.34,0,0,0,1.23.65,5.93,5.93,0,0,0,1.49.17,7.28,7.28,0,0,0,1.23-.09,3.38,3.38,0,0,0,1-.39,2.34,2.34,0,0,0,.89-.82,4.68,4.68,0,0,0,.57-1.44,10.37,10.37,0,0,0-.08-4.69,2.87,2.87,0,0,0-.92-1.49,3.31,3.31,0,0,0-1.23-.64,5.92,5.92,0,0,0-1.51-.16,7.16,7.16,0,0,0-1.2.09,3.53,3.53,0,0,0-1.06.39,2.42,2.42,0,0,0-.89.82,4.74,4.74,0,0,0-.56,1.41A8.73,8.73,0,0,0,549.65,270.24Z"/><path class="cls-4" d="M563,277.15V263.37h5.29a5.58,5.58,0,0,1,3.76,1.15,4.08,4.08,0,0,1,1.35,3.28,3.91,3.91,0,0,1-3,4.08l3.62,5.27h-3l-3.28-4.86H565.5v4.86ZM565.5,270h2.74a3.72,3.72,0,0,0,2-.45,2.41,2.41,0,0,0,0-3.42,3.82,3.82,0,0,0-2-.44H565.5Z"/><path class="cls-4" d="M576.4,277.15V263.37h2.48v5.83l5.21-5.83h3.33l-5.56,6.05,6.13,7.73h-3.1l-4.63-6-1.38,1.51v4.46Z"/><path class="cls-4" d="M590.2,277.15V263.37h9.17v2.23h-6.69v3.49h5.8v2.34h-5.8v3.49h6.69v2.23Z"/><path class="cls-4" d="M602.22,277.15V263.37h5.29a5.61,5.61,0,0,1,3.77,1.15,4.07,4.07,0,0,1,1.34,3.28,3.91,3.91,0,0,1-3,4.08l3.62,5.27h-3l-3.29-4.86H604.7v4.86ZM604.7,270h2.75a3.72,3.72,0,0,0,2-.45,2.41,2.41,0,0,0,0-3.42,3.82,3.82,0,0,0-2-.44H604.7Z"/><path class="cls-7" d="M645.49,186.64a6.88,6.88,0,0,1-1.62,2.66c-1.72,2-3.44,4.09-5.19,6.13-1.07,1.27-2.14,2.5-3.24,3.73l-1.39,1.62.29.72c.09.19.16.38.26.58l1.78,3.34c.91,1.69,1.78,3.34,2.66,5l.29.48c.39.78.81,1.56,1.14,2.34a3.51,3.51,0,0,1-.2,3.37,3.67,3.67,0,0,1-3,1.56,8,8,0,0,1-1.94-.2c-2.34-.68-4.64-1.39-6.94-2.11l-2-.65-.78-4.6c1.4.32,2.73.71,4,1.1s2.76.78,4.16,1.14l.51.13.33-.46a1.45,1.45,0,0,0-.07-1.75l-2.46-4.6-2.66-5a.49.49,0,0,0-.1-.16,2.26,2.26,0,0,0,.13-.2l8.37-9.85a1.8,1.8,0,0,0,.32-.52l.55-1.3-1.49.1a2.58,2.58,0,0,0-.48,0l-11.9,3.15c-.17.06-.23.06-.26.09a1,1,0,0,1-.17-.26l-5.22-8.59c-.13-.26-.29-.52-.45-.81l-.81-1.36-.75.71a2.85,2.85,0,0,0-.74,1.85c0,.1,0,.23,0,.32q-1,5.5-1.94,11l.78.13h-.94l-8.76,2.72-3,1a3.48,3.48,0,0,0-.55.2l-2.43.87,1.91.81c2,.81,3.9,1.59,5.78,2.31l3,1.16c-1.26.94-3.57,2.44-5.12,3.34l-6.1-2.69c-.58-.26-1.13-.48-1.69-.78a5.57,5.57,0,0,1-2.91-2.82,2.87,2.87,0,0,1,.84-3.31,8.43,8.43,0,0,1,3.4-1.65l2.47-.81c2.88-.91,5.77-1.82,8.66-2.69a2.14,2.14,0,0,0,1.62-1.88c.23-1.4.48-2.76.71-4.15l.62-3.38c.19-1.26.42-2.52.68-3.79a6.75,6.75,0,0,1,2-3.86,2.59,2.59,0,0,1,3.6-.1,10,10,0,0,1,2,2.63l.13.23c1.24,2,2.4,4,3.6,6l1.27,2.18a1.57,1.57,0,0,0,2.17.78l3-.81c3.47-.91,7-1.85,10.47-2.76a3.87,3.87,0,0,1,2.73.19A1.73,1.73,0,0,1,645.49,186.64Z"/><path class="cls-3" d="M555.24,223.16a10.66,10.66,0,0,0-5.83-7.49,13.27,13.27,0,0,0-8.18-1,14,14,0,0,0-7.42,3.51,12.78,12.78,0,0,0-4.16,6.83c-.41,1.45-.9,5.68-1,6.2-.19,1.33-.35,2.66-.52,4l-1.26,9.53c-.1.71-.19,1.46-.29,2.17-.07.49-.1,1-.16,1.43h4.31l1.69-11.19a7.89,7.89,0,0,0,2.19,1.9,14.09,14.09,0,0,0,7.32,1.58c5.76-.22,9.88-2.93,12.2-7.53A16.47,16.47,0,0,0,555.24,223.16Zm-4.47,5.48c-.79,4.05-3,6.72-7.54,7.61-5.72,1.12-9.84-3-9.65-7.38s2.21-8.18,7.23-9.64a8.06,8.06,0,0,1,7,1C550.51,222.09,551.41,225.33,550.77,228.64Z"/><path class="cls-3" d="M524.08,225.36a7.64,7.64,0,0,1,1.14,4.51,11.42,11.42,0,0,1-3.86,7.75,11.93,11.93,0,0,1-6.75,3.11,13.3,13.3,0,0,1-4.57-.09,7.88,7.88,0,0,1-5.84-5c-.19-.39-.32-.81-.48-1.23l5-2.69.2.35c.26.52.55,1,.84,1.56a5.41,5.41,0,0,0,7.3,1.75,4.83,4.83,0,0,0,2.79-3.66,4.34,4.34,0,0,0-.85-3.18,21.38,21.38,0,0,0-2-2.34l-.68-.71a64.34,64.34,0,0,1-4.67-5.19,12.34,12.34,0,0,1-1.72-2.89,7.55,7.55,0,0,1,.65-6.58,11.68,11.68,0,0,1,8.24-5.77,9.93,9.93,0,0,1,4.34.19,8.5,8.5,0,0,1,4.25,2.83c.39.45.75.94,1.14,1.42l.09.16-4.6,3.44-.58-.87a5.79,5.79,0,0,0-3.6-2.4,4.84,4.84,0,0,0-4.71,2,3.07,3.07,0,0,0,.2,3.6c.61.81,1.26,1.59,1.88,2.27s1.3,1.36,2,2l2,2.14.19.19A16.71,16.71,0,0,1,524.08,225.36Z"/><path class="cls-3" d="M585.66,228.48c-.06.38-.13.74-.16,1.13-.07.71-.16,1.43-.26,2.11l-.42,2.95c-.23,1.75-.46,3.5-.72,5.38h-4.28c0-.45.1-.87.17-1.26l.39-3.08c.32-2.37.65-4.71.9-7a10.83,10.83,0,0,0-.87-5.77,6.51,6.51,0,0,0-4.64-3.76,9.55,9.55,0,0,0-7.23,1.29,10,10,0,0,0-4.44,6.26,7.61,7.61,0,0,0,1,6.1,7.29,7.29,0,0,0,6.07,3.4,9.36,9.36,0,0,0,6-1.75c-.09.81-.19,1.66-.29,2.43,0,.26-.06.49-.09.72a10.2,10.2,0,0,0-.17,1.46c0,.32-.09.48-.52.65a14.52,14.52,0,0,1-4.31,1,11.37,11.37,0,0,1-7.42-1.85,10.5,10.5,0,0,1-4.77-7.69,13.62,13.62,0,0,1,3.14-10.76,15.44,15.44,0,0,1,7.95-5.35,14.18,14.18,0,0,1,3.92-.59,11.71,11.71,0,0,1,5,1.14,10.76,10.76,0,0,1,6.22,8.69A15,15,0,0,1,585.66,228.48Z"/><path class="cls-3" d="M627.14,240c-1.62.1-4.25.1-6,0l-10.61-16-.29,2.14c-.19,1.62-.39,3.21-.58,4.77-.42,3.14-.78,6.09-1.23,9.11h-5c.07-.45.1-.88.16-1.3q.58-4.51,1.17-9c.13-.84.26-1.69.36-2.53l.32-2.27c.1-.68.2-1.36.26-2l1.14-8.86c.16-1.16.32-2.33.45-3.5a.42.42,0,0,1,.2-.42l5.31-3.4-2.17,16.73,11.55-12.71.78,4.41-7.27,7.68-.39.59Z"/><path class="cls-3" d="M602.17,215.11c-.07.69-.16,1.4-.29,2.11s-.23,1.62-.33,2.47h-2.88a2.9,2.9,0,0,0-3.12,2.59c-.16.81-.29,1.66-.39,2.5l-.35,2.46c-.17,1.24-.36,2.47-.52,3.73-.23,1.66-.42,3.34-.62,5l-.42,3.37c0,.23-.06.42-.1.62h-4.54l0-.07c.06-.68.13-1.33.22-2s.2-1.49.33-2.27.22-1.55.32-2.33c.23-1.75.49-3.54.68-5.32l.52-4c.13-.85.23-1.69.36-2.5a7.93,7.93,0,0,1,6.81-6.36,11.69,11.69,0,0,1,1.78,0c.29,0,.59,0,.91,0Z"/><rect class="cls-6" x="34.74" y="157.61" width="183.86" height="140.92" rx="8.1"/><path class="cls-3" d="M133.49,353.43a2,2,0,0,1-.48,1.31l-7.35,8.59a2,2,0,0,1-3,0l-7.35-8.59a2,2,0,1,1,3-2.61l5.82,6.82,5.83-6.82a2,2,0,0,1,3.52,1.3Z"/><path class="cls-3" d="M126.15,314.48v46.61a2,2,0,1,1-4,0V314.48a2,2,0,0,1,4,0Z"/><path class="cls-3" d="M114.79,321.92a2,2,0,0,1,.48-1.3l7.35-8.6a2,2,0,0,1,1.52-.7,2,2,0,0,1,1.52.7l7.35,8.6a2,2,0,0,1-3,2.6l-5.83-6.81-5.82,6.81a2,2,0,0,1-3.53-1.3Z"/><path class="cls-4" d="M77.55,263.37H80l3.16,10.38,3.34-10.38h2.16l3.23,10,3.07-10h2.49l-4.42,13.78H90.71l-3.09-9.63-3.1,9.63H82Z"/><path class="cls-4" d="M99.19,270.26a10.18,10.18,0,0,1,.39-3,6.08,6.08,0,0,1,1-2,5,5,0,0,1,1.49-1.24,6,6,0,0,1,1.72-.64,10.26,10.26,0,0,1,3.61,0,6,6,0,0,1,1.72.64,5.13,5.13,0,0,1,1.5,1.24,5.9,5.9,0,0,1,1,2,11.5,11.5,0,0,1,0,5.94,5.87,5.87,0,0,1-1,2,5.26,5.26,0,0,1-1.5,1.23,6,6,0,0,1-1.72.64,10.26,10.26,0,0,1-3.61,0,6,6,0,0,1-1.72-.64,5.08,5.08,0,0,1-1.49-1.23,6,6,0,0,1-1-2A10.28,10.28,0,0,1,99.19,270.26Zm2.48,0a8.89,8.89,0,0,0,.31,2.57,2.92,2.92,0,0,0,.91,1.49,3.34,3.34,0,0,0,1.23.65,6,6,0,0,0,1.5.17,7.24,7.24,0,0,0,1.22-.09,3.38,3.38,0,0,0,1-.39,2.34,2.34,0,0,0,.89-.82,4.68,4.68,0,0,0,.57-1.44,10.37,10.37,0,0,0-.08-4.69,2.87,2.87,0,0,0-.92-1.49,3.31,3.31,0,0,0-1.23-.64,5.89,5.89,0,0,0-1.5-.16,7.2,7.2,0,0,0-1.21.09,3.53,3.53,0,0,0-1.06.39,2.42,2.42,0,0,0-.89.82,4.74,4.74,0,0,0-.56,1.41A8.73,8.73,0,0,0,101.67,270.24Z"/><path class="cls-4" d="M115,277.15V263.37h5.29a5.58,5.58,0,0,1,3.76,1.15,4.08,4.08,0,0,1,1.35,3.28,3.91,3.91,0,0,1-3,4.08l3.62,5.27h-3l-3.29-4.86h-2.23v4.86Zm2.48-7.13h2.74a3.72,3.72,0,0,0,2-.45,2.41,2.41,0,0,0,0-3.42,3.82,3.82,0,0,0-2-.44h-2.74Z"/><path class="cls-4" d="M128.42,277.15V263.37h2.48v5.83l5.21-5.83h3.33l-5.56,6.05,6.13,7.73h-3.1l-4.63-6-1.38,1.51v4.46Z"/><path class="cls-4" d="M142.22,277.15V263.37h9.17v2.23H144.7v3.49h5.8v2.34h-5.8v3.49h6.69v2.23Z"/><path class="cls-4" d="M154.24,277.15V263.37h5.29a5.59,5.59,0,0,1,3.77,1.15,4.07,4.07,0,0,1,1.34,3.28,3.91,3.91,0,0,1-3,4.08l3.62,5.27h-3L159,272.29h-2.22v4.86Zm2.49-7.13h2.74a3.72,3.72,0,0,0,2-.45,2.41,2.41,0,0,0,0-3.42,3.82,3.82,0,0,0-2-.44h-2.74Z"/><path class="cls-7" d="M197.51,186.64a6.76,6.76,0,0,1-1.62,2.66c-1.72,2-3.44,4.09-5.19,6.13-1.07,1.27-2.14,2.5-3.24,3.73l-1.39,1.62.29.72c.1.19.16.38.26.58l1.78,3.34c.91,1.69,1.78,3.34,2.66,5l.29.48c.39.78.81,1.56,1.14,2.34a3.51,3.51,0,0,1-.2,3.37,3.65,3.65,0,0,1-3,1.56,8.08,8.08,0,0,1-1.95-.2c-2.33-.68-4.64-1.39-6.94-2.11l-2-.65-.78-4.6c1.4.32,2.73.71,4.05,1.1s2.76.78,4.16,1.14l.52.13.32-.46a1.47,1.47,0,0,0-.06-1.75c-.82-1.52-1.66-3.08-2.47-4.6l-2.66-5a.49.49,0,0,0-.1-.16,2.26,2.26,0,0,0,.13-.2l8.37-9.85a1.8,1.8,0,0,0,.32-.52l.56-1.3-1.5.1a2.58,2.58,0,0,0-.48,0l-11.9,3.15c-.17.06-.23.06-.26.09a1,1,0,0,1-.17-.26l-5.22-8.59c-.13-.26-.29-.52-.45-.81l-.81-1.36-.75.71a2.85,2.85,0,0,0-.74,1.85c0,.1,0,.23,0,.32-.69,3.67-1.33,7.33-2,11l.78.13h-.94l-8.76,2.72-3,1a3.22,3.22,0,0,0-.56.2l-2.43.87,1.91.81c2,.81,3.9,1.59,5.78,2.31l3,1.16c-1.26.94-3.57,2.44-5.12,3.34l-6.1-2.69c-.58-.26-1.13-.48-1.69-.78a5.57,5.57,0,0,1-2.91-2.82,2.87,2.87,0,0,1,.84-3.31,8.43,8.43,0,0,1,3.4-1.65l2.47-.81c2.89-.91,5.77-1.82,8.66-2.69a2.14,2.14,0,0,0,1.62-1.88c.23-1.4.49-2.76.71-4.15l.62-3.38c.19-1.26.42-2.52.68-3.79a6.75,6.75,0,0,1,2-3.86,2.59,2.59,0,0,1,3.6-.1,10,10,0,0,1,2,2.63l.13.23c1.24,2,2.4,4,3.6,6l1.27,2.18a1.57,1.57,0,0,0,2.17.78l3.05-.81c3.47-.91,7-1.85,10.47-2.76a3.87,3.87,0,0,1,2.73.19A1.73,1.73,0,0,1,197.51,186.64Z"/><path class="cls-3" d="M107.27,223.16a10.7,10.7,0,0,0-5.84-7.49,13.27,13.27,0,0,0-8.18-1,14,14,0,0,0-7.42,3.51A12.78,12.78,0,0,0,81.67,225c-.41,1.45-.9,5.68-1,6.2-.2,1.33-.36,2.66-.52,4l-1.27,9.53c-.1.71-.19,1.46-.29,2.17-.07.49-.1,1-.16,1.43h4.31l1.69-11.19a7.89,7.89,0,0,0,2.19,1.9A14.11,14.11,0,0,0,94,240.58c5.76-.22,9.88-2.93,12.2-7.53A16.55,16.55,0,0,0,107.27,223.16Zm-4.48,5.48c-.79,4.05-3,6.72-7.54,7.61-5.72,1.12-9.84-3-9.65-7.38s2.21-8.18,7.24-9.64a8,8,0,0,1,7,1C102.53,222.09,103.43,225.33,102.79,228.64Z"/><path class="cls-3" d="M76.1,225.36a7.64,7.64,0,0,1,1.14,4.51,11.42,11.42,0,0,1-3.86,7.75,11.93,11.93,0,0,1-6.75,3.11,13.3,13.3,0,0,1-4.57-.09,7.88,7.88,0,0,1-5.84-5c-.19-.39-.32-.81-.48-1.23l5-2.69.2.35c.26.52.55,1,.84,1.56a5.41,5.41,0,0,0,7.3,1.75,4.83,4.83,0,0,0,2.79-3.66,4.34,4.34,0,0,0-.85-3.18,21.38,21.38,0,0,0-2-2.34l-.68-.71a64.34,64.34,0,0,1-4.67-5.19A12.34,12.34,0,0,1,62,217.38a7.55,7.55,0,0,1,.65-6.58A11.68,11.68,0,0,1,70.85,205a9.93,9.93,0,0,1,4.34.19,8.5,8.5,0,0,1,4.25,2.83c.39.45.75.94,1.14,1.42l.1.16-4.61,3.44-.58-.87a5.74,5.74,0,0,0-3.6-2.4,4.85,4.85,0,0,0-4.71,2,3.08,3.08,0,0,0,.2,3.6c.62.81,1.26,1.59,1.88,2.27s1.3,1.36,2,2l2,2.14.2.19A17,17,0,0,1,76.1,225.36Z"/><path class="cls-3" d="M137.68,228.48c-.06.38-.13.74-.16,1.13-.06.71-.16,1.43-.26,2.11l-.42,2.95c-.23,1.75-.45,3.5-.71,5.38h-4.28a11.38,11.38,0,0,1,.16-1.26l.39-3.08c.32-2.37.65-4.71.91-7a10.94,10.94,0,0,0-.88-5.77,6.51,6.51,0,0,0-4.64-3.76,9.55,9.55,0,0,0-7.23,1.29,10,10,0,0,0-4.44,6.26,7.61,7.61,0,0,0,1,6.1,7.3,7.3,0,0,0,6.07,3.4,9.36,9.36,0,0,0,6-1.75c-.09.81-.19,1.66-.29,2.43,0,.26-.06.49-.09.72a10.2,10.2,0,0,0-.17,1.46c0,.32-.09.48-.51.65a14.65,14.65,0,0,1-4.32,1,11.39,11.39,0,0,1-7.42-1.85,10.5,10.5,0,0,1-4.77-7.69,13.62,13.62,0,0,1,3.14-10.76,15.44,15.44,0,0,1,8-5.35,14.18,14.18,0,0,1,3.92-.59,11.71,11.71,0,0,1,5,1.14,10.79,10.79,0,0,1,6.23,8.69A15.44,15.44,0,0,1,137.68,228.48Z"/><path class="cls-3" d="M179.16,240c-1.62.1-4.25.1-6,0l-10.6-16-.3,2.14c-.19,1.62-.39,3.21-.58,4.77-.42,3.14-.78,6.09-1.23,9.11h-5c.07-.45.1-.88.17-1.3.39-3,.77-6,1.16-9,.13-.84.26-1.69.36-2.53l.32-2.27c.1-.68.2-1.36.26-2l1.14-8.86c.16-1.16.32-2.33.45-3.5a.42.42,0,0,1,.2-.42l5.31-3.4-2.17,16.73,11.55-12.71.78,4.41-7.27,7.68-.39.59Z"/><path class="cls-3" d="M154.19,215.11c-.07.69-.16,1.4-.29,2.11s-.23,1.62-.33,2.47h-2.88a2.9,2.9,0,0,0-3.12,2.59c-.16.81-.29,1.66-.39,2.5l-.35,2.46c-.17,1.24-.36,2.47-.52,3.73-.23,1.66-.42,3.34-.62,5l-.42,3.37c0,.23-.06.42-.1.62h-4.54l0-.07c.06-.68.13-1.33.22-2s.2-1.49.33-2.27.22-1.55.32-2.33c.23-1.75.49-3.54.68-5.32l.52-4c.13-.85.23-1.69.36-2.5a7.93,7.93,0,0,1,6.81-6.36,11.69,11.69,0,0,1,1.78,0c.29,0,.59,0,.91,0Z"/><rect class="cls-6" x="258.73" y="157.61" width="183.86" height="140.92" rx="8.1"/><path class="cls-3" d="M357.48,353.43a2,2,0,0,1-.48,1.31l-7.35,8.59a2,2,0,0,1-3,0l-7.35-8.59a2,2,0,1,1,3.05-2.61l5.82,6.82,5.83-6.82a2,2,0,0,1,3.52,1.3Z"/><path class="cls-3" d="M350.14,314.48v46.61a2,2,0,1,1-4,0V314.48a2,2,0,0,1,4,0Z"/><path class="cls-3" d="M338.78,321.92a2,2,0,0,1,.48-1.3l7.35-8.6a2,2,0,0,1,1.52-.7,2,2,0,0,1,1.52.7l7.35,8.6a2,2,0,0,1-3,2.6l-5.83-6.81-5.82,6.81a2,2,0,0,1-3.53-1.3Z"/><path class="cls-4" d="M301.54,263.37H304l3.15,10.38,3.34-10.38h2.16l3.23,10,3.07-10h2.49l-4.42,13.78H314.7l-3.09-9.63-3.1,9.63H306Z"/><path class="cls-4" d="M323.18,270.26a10.18,10.18,0,0,1,.39-3,6.08,6.08,0,0,1,1-2,4.88,4.88,0,0,1,1.5-1.24,5.89,5.89,0,0,1,1.71-.64,10.26,10.26,0,0,1,3.61,0,6,6,0,0,1,1.72.64,5.13,5.13,0,0,1,1.5,1.24,5.9,5.9,0,0,1,1,2,11.5,11.5,0,0,1,0,5.94,5.87,5.87,0,0,1-1,2,5.26,5.26,0,0,1-1.5,1.23,6,6,0,0,1-1.72.64,10.26,10.26,0,0,1-3.61,0,5.89,5.89,0,0,1-1.71-.64,5,5,0,0,1-1.5-1.23,6,6,0,0,1-1-2A10.28,10.28,0,0,1,323.18,270.26Zm2.48,0a8.89,8.89,0,0,0,.31,2.57,2.92,2.92,0,0,0,.91,1.49,3.34,3.34,0,0,0,1.23.65,6,6,0,0,0,1.5.17,7.24,7.24,0,0,0,1.22-.09,3.53,3.53,0,0,0,1.06-.39,2.38,2.38,0,0,0,.88-.82,4.68,4.68,0,0,0,.57-1.44,10.37,10.37,0,0,0-.08-4.69,2.87,2.87,0,0,0-.92-1.49,3.31,3.31,0,0,0-1.23-.64,5.89,5.89,0,0,0-1.5-.16,7,7,0,0,0-1.2.09,3.48,3.48,0,0,0-1.07.39,2.42,2.42,0,0,0-.89.82,4.74,4.74,0,0,0-.56,1.41A8.73,8.73,0,0,0,325.66,270.24Z"/><path class="cls-4" d="M339,277.15V263.37h5.29a5.58,5.58,0,0,1,3.76,1.15,4.08,4.08,0,0,1,1.35,3.28,3.91,3.91,0,0,1-3,4.08l3.62,5.27h-3l-3.29-4.86h-2.23v4.86Zm2.48-7.13h2.74a3.72,3.72,0,0,0,2-.45,2.41,2.41,0,0,0,0-3.42,3.82,3.82,0,0,0-2-.44h-2.74Z"/><path class="cls-4" d="M352.41,277.15V263.37h2.48v5.83l5.21-5.83h3.33l-5.56,6.05,6.13,7.73h-3.1l-4.62-6-1.39,1.51v4.46Z"/><path class="cls-4" d="M366.21,277.15V263.37h9.17v2.23h-6.69v3.49h5.8v2.34h-5.8v3.49h6.69v2.23Z"/><path class="cls-4" d="M378.23,277.15V263.37h5.29a5.59,5.59,0,0,1,3.77,1.15,4.07,4.07,0,0,1,1.34,3.28,3.9,3.9,0,0,1-3,4.08l3.62,5.27h-3l-3.29-4.86h-2.22v4.86Zm2.49-7.13h2.74a3.72,3.72,0,0,0,2-.45,2.41,2.41,0,0,0,0-3.42,3.82,3.82,0,0,0-2-.44h-2.74Z"/><path class="cls-7" d="M421.5,186.64a6.88,6.88,0,0,1-1.62,2.66c-1.72,2-3.44,4.09-5.19,6.13-1.07,1.27-2.14,2.5-3.24,3.73l-1.39,1.62.29.72c.1.19.16.38.26.58l1.78,3.34c.91,1.69,1.78,3.34,2.66,5l.29.48c.39.78.81,1.56,1.14,2.34a3.51,3.51,0,0,1-.2,3.37,3.65,3.65,0,0,1-3,1.56,8.08,8.08,0,0,1-1.95-.2c-2.33-.68-4.64-1.39-6.94-2.11l-2-.65-.78-4.6c1.4.32,2.73.71,4.05,1.1s2.76.78,4.16,1.14l.52.13.32-.46a1.45,1.45,0,0,0-.07-1.75l-2.46-4.6-2.66-5a.49.49,0,0,0-.1-.16,2.26,2.26,0,0,0,.13-.2l8.37-9.85a1.8,1.8,0,0,0,.32-.52l.55-1.3-1.49.1a2.58,2.58,0,0,0-.48,0l-11.9,3.15c-.17.06-.23.06-.26.09a1,1,0,0,1-.17-.26l-5.22-8.59c-.13-.26-.29-.52-.45-.81l-.81-1.36-.75.71a2.85,2.85,0,0,0-.74,1.85c0,.1,0,.23,0,.32q-1,5.5-1.94,11l.78.13h-.94l-8.76,2.72-3,1a3.48,3.48,0,0,0-.55.2l-2.43.87,1.91.81c2,.81,3.9,1.59,5.78,2.31l3,1.16c-1.26.94-3.57,2.44-5.12,3.34l-6.1-2.69c-.58-.26-1.13-.48-1.69-.78a5.57,5.57,0,0,1-2.91-2.82,2.87,2.87,0,0,1,.84-3.31,8.43,8.43,0,0,1,3.4-1.65l2.47-.81c2.88-.91,5.77-1.82,8.66-2.69a2.14,2.14,0,0,0,1.62-1.88c.23-1.4.49-2.76.71-4.15l.62-3.38c.19-1.26.42-2.52.68-3.79a6.75,6.75,0,0,1,2-3.86,2.59,2.59,0,0,1,3.6-.1,10,10,0,0,1,2,2.63l.13.23c1.24,2,2.4,4,3.6,6l1.27,2.18a1.57,1.57,0,0,0,2.17.78l3.05-.81c3.47-.91,7-1.85,10.47-2.76a3.87,3.87,0,0,1,2.73.19A1.73,1.73,0,0,1,421.5,186.64Z"/><path class="cls-3" d="M331.25,223.16a10.66,10.66,0,0,0-5.83-7.49,13.27,13.27,0,0,0-8.18-1,14,14,0,0,0-7.42,3.51,12.78,12.78,0,0,0-4.16,6.83c-.41,1.45-.9,5.68-1,6.2-.19,1.33-.35,2.66-.51,4l-1.27,9.53c-.1.71-.19,1.46-.29,2.17-.07.49-.1,1-.16,1.43h4.31l1.69-11.19a7.89,7.89,0,0,0,2.19,1.9,14.09,14.09,0,0,0,7.32,1.58c5.76-.22,9.88-2.93,12.2-7.53A16.47,16.47,0,0,0,331.25,223.16Zm-4.47,5.48c-.79,4.05-3,6.72-7.54,7.61-5.72,1.12-9.84-3-9.65-7.38s2.21-8.18,7.24-9.64a8,8,0,0,1,7,1C326.52,222.09,327.42,225.33,326.78,228.64Z"/><path class="cls-3" d="M300.09,225.36a7.64,7.64,0,0,1,1.14,4.51,11.42,11.42,0,0,1-3.86,7.75,11.93,11.93,0,0,1-6.75,3.11,13.3,13.3,0,0,1-4.57-.09,7.88,7.88,0,0,1-5.84-5c-.19-.39-.32-.81-.48-1.23l5-2.69.2.35c.26.52.55,1,.84,1.56a5.41,5.41,0,0,0,7.3,1.75,4.83,4.83,0,0,0,2.79-3.66,4.34,4.34,0,0,0-.85-3.18,21.38,21.38,0,0,0-2-2.34l-.68-.71a64.34,64.34,0,0,1-4.67-5.19,12.34,12.34,0,0,1-1.72-2.89,7.55,7.55,0,0,1,.65-6.58,11.68,11.68,0,0,1,8.24-5.77,9.93,9.93,0,0,1,4.34.19,8.5,8.5,0,0,1,4.25,2.83c.39.45.75.94,1.14,1.42l.09.16-4.6,3.44-.58-.87a5.74,5.74,0,0,0-3.6-2.4,4.84,4.84,0,0,0-4.71,2,3.07,3.07,0,0,0,.2,3.6c.61.81,1.26,1.59,1.88,2.27s1.3,1.36,2,2l2,2.14.19.19A16.71,16.71,0,0,1,300.09,225.36Z"/><path class="cls-3" d="M361.67,228.48c-.06.38-.13.74-.16,1.13-.06.71-.16,1.43-.26,2.11l-.42,2.95c-.23,1.75-.46,3.5-.71,5.38h-4.28a11.38,11.38,0,0,1,.16-1.26l.39-3.08c.32-2.37.65-4.71.91-7a10.94,10.94,0,0,0-.88-5.77,6.51,6.51,0,0,0-4.64-3.76,9.55,9.55,0,0,0-7.23,1.29,10,10,0,0,0-4.44,6.26,7.61,7.61,0,0,0,1,6.1,7.3,7.3,0,0,0,6.07,3.4,9.36,9.36,0,0,0,6-1.75c-.09.81-.19,1.66-.29,2.43,0,.26-.06.49-.09.72a10.2,10.2,0,0,0-.17,1.46c0,.32-.09.48-.52.65a14.52,14.52,0,0,1-4.31,1,11.39,11.39,0,0,1-7.42-1.85,10.5,10.5,0,0,1-4.77-7.69,13.62,13.62,0,0,1,3.14-10.76,15.44,15.44,0,0,1,8-5.35,14.18,14.18,0,0,1,3.92-.59,11.71,11.71,0,0,1,5,1.14,10.76,10.76,0,0,1,6.22,8.69A15,15,0,0,1,361.67,228.48Z"/><path class="cls-3" d="M403.15,240c-1.62.1-4.25.1-6,0l-10.6-16-.3,2.14c-.19,1.62-.39,3.21-.58,4.77-.42,3.14-.78,6.09-1.23,9.11h-5c.07-.45.1-.88.17-1.3q.57-4.51,1.16-9c.13-.84.26-1.69.36-2.53l.32-2.27c.1-.68.2-1.36.26-2l1.14-8.86c.16-1.16.32-2.33.45-3.5a.42.42,0,0,1,.2-.42l5.31-3.4-2.17,16.73,11.55-12.71.78,4.41-7.27,7.68-.39.59Z"/><path class="cls-3" d="M378.18,215.11c-.07.69-.16,1.4-.29,2.11s-.23,1.62-.33,2.47h-2.88a2.9,2.9,0,0,0-3.12,2.59c-.16.81-.29,1.66-.39,2.5l-.35,2.46c-.17,1.24-.36,2.47-.52,3.73-.23,1.66-.42,3.34-.62,5l-.42,3.37c0,.23-.06.42-.1.62h-4.54l0-.07c.06-.68.13-1.33.22-2s.2-1.49.33-2.27.22-1.55.32-2.33c.23-1.75.49-3.54.68-5.32l.52-4c.13-.85.23-1.69.36-2.5a7.93,7.93,0,0,1,6.81-6.36,11.69,11.69,0,0,1,1.78,0c.29,0,.59,0,.91,0Z"/><path class="cls-8" d="M222.06,521.58c-34.75,0-70.69,7.87-70.69,21v162.8a7.89,7.89,0,0,0,1.51,4.55,13,13,0,0,0,1.72,2c9,8.69,36.1,14.52,67.46,14.52s58.5-5.83,67.47-14.5a12.79,12.79,0,0,0,1.74-2,7.84,7.84,0,0,0,1.51-4.54V542.63C292.78,529.45,256.82,521.58,222.06,521.58Z"/><path class="cls-9" d="M270.51,524.38c-13.12-3.56-30.78-5.6-48.45-5.6s-35.32,2-48.44,5.6c-15.36,4.17-23.48,10.08-23.48,17.11v55.89A9.62,9.62,0,0,0,152,603a14.38,14.38,0,0,0,1.94,2.26c9.22,8.9,36.61,14.89,68.14,14.89s58.94-6,68.16-14.89a15,15,0,0,0,1.95-2.26,9.6,9.6,0,0,0,1.83-5.57V541.49C294,534.46,285.88,528.54,270.51,524.38Zm16.37,74.86a8.24,8.24,0,0,1-1.12,1.29c-7.86,7.6-34.65,13.11-63.7,13.11s-55.81-5.51-63.68-13.11a8.88,8.88,0,0,1-1.12-1.3,3.27,3.27,0,0,1-.65-1.85V551.5a35.54,35.54,0,0,0,4.8,2.73l.08,0c.87.42,1.78.83,2.75,1.22l.24.1q1.4.57,2.91,1.11l.36.12c.86.3,1.74.59,2.65.87l.83.26c.85.26,1.74.51,2.63.75l1.21.32c.87.23,1.76.44,2.66.66l1.54.35,2.64.56,1.77.34,2.12.38,2.43.4,2,.31,2.61.36,2.26.29,2.05.23,3.07.31,1.56.14c1.23.11,2.47.21,3.73.29l1.34.09c1.36.09,2.72.16,4.1.23l1,0c1.49.06,3,.11,4.51.15h.6c1.65,0,3.31.05,5,.05s3.33,0,5-.05h.61q2.26-.06,4.5-.15l1,0c1.37-.07,2.74-.14,4.08-.23l1.35-.09c1.25-.08,2.49-.18,3.72-.28l1.6-.15c1-.1,2-.19,3-.3l2.14-.25,2.23-.28,2.65-.37,1.95-.29,2.47-.41,2.1-.38,1.78-.34,2.64-.56,1.54-.35c.9-.22,1.8-.43,2.67-.66l1.16-.31c.95-.26,1.87-.52,2.77-.79l.68-.21c.95-.3,1.87-.6,2.76-.91l.28-.1c1-.36,2-.74,3-1.13l.16-.07c1-.4,1.92-.82,2.82-1.25h0a37.11,37.11,0,0,0,4.83-2.75v45.88A3.27,3.27,0,0,1,286.88,599.24Zm-64.82-74c40.57,0,65.48,9.47,65.48,16.25a3.5,3.5,0,0,1-.67,1.88c-2.84,4.19-13,8.47-28,11.25l-.13,0-1.7.3-1.78.3h0a210.91,210.91,0,0,1-27.62,2.43l-.94,0-1.77,0-2.9,0-2.91,0-1.77,0-.93,0a208.57,208.57,0,0,1-27.57-2.43h-.11l-1.68-.28-1.81-.33h0c-15-2.79-25.13-7.06-28-11.25a3.48,3.48,0,0,1-.67-1.89C156.61,534.71,181.51,525.24,222.06,525.24Z"/><path class="cls-9" d="M291,594.14a3,3,0,0,0-3,3,3.6,3.6,0,0,1-.7,2c-2.57,3.81-10.77,7.54-22.48,10.22-12.17,2.79-27.35,4.33-42.74,4.33s-30.55-1.54-42.72-4.33c-11.7-2.68-19.9-6.41-22.47-10.21a3.67,3.67,0,0,1-.71-2,3,3,0,1,0-6,0V652.2a9.41,9.41,0,0,0,1.79,5.44,14.35,14.35,0,0,0,1.91,2.22c4.6,4.44,13.58,8.2,26,10.86a205.05,205.05,0,0,0,42.21,4,205.32,205.32,0,0,0,42.23-4c12.38-2.66,21.36-6.41,25.95-10.85a15.24,15.24,0,0,0,1.94-2.24A9.41,9.41,0,0,0,294,652.2V597.13A3,3,0,0,0,291,594.14Zm-3,58.06a3.42,3.42,0,0,1-.7,2,8.13,8.13,0,0,1-1.16,1.35v0c-3.81,3.68-12.21,7-23.65,9.42a204.13,204.13,0,0,1-40.4,3.78A204.6,204.6,0,0,1,181.68,665c-11.44-2.4-19.84-5.75-23.66-9.44h0a9.26,9.26,0,0,1-1.14-1.32,3.54,3.54,0,0,1-.71-2V606.69c4.9,3.54,12.74,6.56,23,8.82,12.29,2.72,27.14,4.15,42.92,4.15s30.63-1.43,42.93-4.15c10.25-2.26,18.09-5.28,23-8.82Z"/><path class="cls-9" d="M291,649.27a3,3,0,0,0-3,3,3.6,3.6,0,0,1-.7,2c-2.57,3.81-10.77,7.54-22.48,10.22-12.17,2.79-27.35,4.33-42.74,4.33s-30.55-1.54-42.72-4.33c-11.7-2.68-19.9-6.4-22.47-10.21a3.67,3.67,0,0,1-.71-2,3,3,0,0,0-6,0v55.07a9.43,9.43,0,0,0,1.8,5.45,14.26,14.26,0,0,0,1.91,2.21c4.6,4.44,13.58,8.2,26,10.86a205.05,205.05,0,0,0,42.21,4,205.32,205.32,0,0,0,42.23-4c12.38-2.66,21.36-6.41,25.95-10.84a14.83,14.83,0,0,0,1.94-2.25,9.39,9.39,0,0,0,1.78-5.43V652.25A3,3,0,0,0,291,649.27Zm-3,58.05a3.47,3.47,0,0,1-.7,2,8.47,8.47,0,0,1-1.16,1.34v0c-3.81,3.68-12.21,7-23.65,9.42a204.13,204.13,0,0,1-40.4,3.78,203.84,203.84,0,0,1-40.38-3.78c-11.44-2.4-19.84-5.75-23.66-9.44h0a8.74,8.74,0,0,1-1.14-1.32,3.54,3.54,0,0,1-.71-2V661.81c4.9,3.54,12.74,6.56,23,8.82,12.29,2.72,27.14,4.16,42.92,4.16s30.63-1.44,42.93-4.15c10.25-2.26,18.09-5.28,23-8.83Z"/><circle class="cls-8" cx="222.07" cy="641.41" r="51.84"/><path class="cls-3" d="M205.12,673.93a33.76,33.76,0,0,0,44.45-10.36,2.59,2.59,0,0,0-.87-3.71h0a2.58,2.58,0,0,0-3.42.8,28.52,28.52,0,1,1-13.52-42.73l-8.45,5.69a2.59,2.59,0,0,0-.7,3.6h0a2.59,2.59,0,0,0,3.6.7l12.27-8.26a2.49,2.49,0,0,0,.81-.87,2.58,2.58,0,0,0,.15-2.24l-5.21-13a2.59,2.59,0,0,0-3.37-1.44h0a2.59,2.59,0,0,0-1.44,3.37l2.85,7.12a33.7,33.7,0,0,0-27.15,61.34Z"/><path class="cls-4" d="M199.22,640.46a5.12,5.12,0,0,1,2.06-4.44,8.59,8.59,0,0,1,5.16-1.49,11.74,11.74,0,0,1,5.45,1.41v3.57a9,9,0,0,0-5-1.54,6.31,6.31,0,0,0-2.84.58,1.9,1.9,0,0,0-1.16,1.82,1.73,1.73,0,0,0,1.06,1.58,10.88,10.88,0,0,0,2.57,1,25.94,25.94,0,0,1,3,1A5.66,5.66,0,0,1,212.1,646a6.29,6.29,0,0,1,1.07,3.78,4.79,4.79,0,0,1-2,4,7.94,7.94,0,0,1-4.95,1.54,12.8,12.8,0,0,1-6.7-1.69v-3.69a9.59,9.59,0,0,0,5.85,1.94c2.79,0,4.18-.77,4.18-2.33a2.3,2.3,0,0,0-.75-1.75,4.72,4.72,0,0,0-1.92-1c-.77-.22-1.59-.49-2.47-.79a26.16,26.16,0,0,1-2.48-1,4.73,4.73,0,0,1-1.92-1.67A5,5,0,0,1,199.22,640.46Z"/><path class="cls-4" d="M216.59,644.89a15.12,15.12,0,0,1,.58-4.37,9,9,0,0,1,1.49-3,7.39,7.39,0,0,1,2.21-1.83,9,9,0,0,1,2.54-.94,15,15,0,0,1,2.67-.23,14.69,14.69,0,0,1,2.65.23,9.12,9.12,0,0,1,2.53.94,7.39,7.39,0,0,1,2.21,1.83,8.42,8.42,0,0,1,1.51,3,14.71,14.71,0,0,1,.58,4.36,15.49,15.49,0,0,1-.47,4,9.68,9.68,0,0,1-1.25,2.87,7.43,7.43,0,0,1-1.87,1.88,8.29,8.29,0,0,1-2.21,1.1,11.54,11.54,0,0,1-2.38.46,2.2,2.2,0,0,0,1,2,4.64,4.64,0,0,0,2.46.63v2.85q-6.5,0-6.5-5.53a10.11,10.11,0,0,1-2.86-.78,8.64,8.64,0,0,1-2.45-1.71,7.62,7.62,0,0,1-1.81-3.12A14.84,14.84,0,0,1,216.59,644.89Zm4.11-3.75a15.56,15.56,0,0,0,0,7.51,4.32,4.32,0,0,0,1.35,2.2,4.74,4.74,0,0,0,1.81.95,10.3,10.3,0,0,0,4.42,0,4.74,4.74,0,0,0,1.83-.95,4.46,4.46,0,0,0,1.35-2.2,15.89,15.89,0,0,0,0-7.51,4.46,4.46,0,0,0-1.35-2.2,4.91,4.91,0,0,0-1.83-1,10.73,10.73,0,0,0-4.42,0,4.91,4.91,0,0,0-1.81,1A4.32,4.32,0,0,0,220.7,641.14Z"/><path class="cls-4" d="M239.67,655V634.77h3.65v16.82h9.75V655Z"/><path class="cls-9" d="M181.19,759.9s-4.22,6.39,4.08,7.7c.81.1,6.82.72,8.38,2.69,0,0-.15-3.4-5-5.4S181.73,762.39,181.19,759.9Z"/><path class="cls-9" d="M185.3,746.12s-11.81,7.2-.68,14.37c2.15,1.39,9.92,5.28,9.69,8.85,0,0,4.7-7-2.17-11.35C185.07,753.49,183.29,748.71,185.3,746.12Z"/><path class="cls-9" d="M197.51,753.17c-5.06-5.31-6.47-8.59-4.3-12.83,0,0-15.13,5.81-.2,16.14,5.35,3.69,4.45,7.46,4.46,7.6C198.31,763.21,202.57,758.47,197.51,753.17Z"/><text class="cls-10" transform="translate(205.74 763.65)"><tspan class="cls-11">N</tspan><tspan class="cls-12" x="15.85" y="0">O</tspan><tspan class="cls-13" x="31.71" y="0">D</tspan><tspan x="46.06" y="0">E</tspan></text><path class="cls-8" d="M479.22,521.58c-34.75,0-70.69,7.87-70.69,21v162.8a7.83,7.83,0,0,0,1.52,4.55,12.46,12.46,0,0,0,1.71,2c9,8.69,36.1,14.52,67.46,14.52s58.5-5.83,67.48-14.5a13.28,13.28,0,0,0,1.73-2,7.84,7.84,0,0,0,1.51-4.54V542.63C549.94,529.45,514,521.58,479.22,521.58Z"/><path class="cls-9" d="M527.68,524.38c-13.13-3.56-30.79-5.6-48.46-5.6s-35.31,2-48.43,5.6c-15.36,4.17-23.48,10.08-23.48,17.11v55.89a9.6,9.6,0,0,0,1.83,5.57,14.42,14.42,0,0,0,1.95,2.26c9.21,8.9,36.6,14.89,68.13,14.89s58.95-6,68.17-14.89a14.92,14.92,0,0,0,1.94-2.26,9.62,9.62,0,0,0,1.84-5.57V541.49C551.17,534.46,543,528.54,527.68,524.38ZM544,599.24a8.74,8.74,0,0,1-1.11,1.29c-7.87,7.6-34.66,13.11-63.71,13.11s-55.81-5.51-63.67-13.11a8.88,8.88,0,0,1-1.12-1.3,3.22,3.22,0,0,1-.66-1.85V551.5a36.17,36.17,0,0,0,4.8,2.73l.08,0c.87.42,1.79.83,2.75,1.22l.24.1q1.39.57,2.91,1.11l.37.12c.85.3,1.74.59,2.64.87l.83.26q1.29.39,2.64.75l1.21.32c.86.23,1.75.44,2.65.66l1.54.35c.87.19,1.75.38,2.65.56l1.76.34,2.12.38,2.44.4,2,.31,2.61.36,2.26.29,2.06.23,3.06.31,1.56.14c1.23.11,2.48.21,3.73.29l1.35.09c1.35.09,2.71.16,4.09.23l1,0q2.24.09,4.5.15h.6c1.65,0,3.31.05,5,.05s3.33,0,5-.05h.62c1.51,0,3-.09,4.49-.15l1,0c1.38-.07,2.74-.14,4.09-.23l1.34-.09c1.26-.08,2.5-.18,3.73-.28l1.59-.15c1-.1,2-.19,3-.3l2.14-.25,2.23-.28,2.65-.37,2-.29,2.47-.41,2.09-.38,1.78-.34c.9-.18,1.78-.37,2.64-.56l1.54-.35c.91-.22,1.8-.43,2.67-.66l1.17-.31c.94-.26,1.87-.52,2.76-.79l.68-.21c.95-.3,1.87-.6,2.76-.91l.29-.1c1-.36,2-.74,3-1.13l.16-.07c1-.4,1.93-.82,2.82-1.25h0a36.46,36.46,0,0,0,4.83-2.75v45.88A3.27,3.27,0,0,1,544,599.24Zm-64.82-74c40.57,0,65.48,9.47,65.48,16.25a3.48,3.48,0,0,1-.66,1.88c-2.85,4.19-13,8.47-28,11.25l-.13,0-1.7.3-1.77.3h0a211.23,211.23,0,0,1-27.63,2.43l-.93,0-1.78,0-2.9,0-2.9,0-1.77,0-.94,0a208.56,208.56,0,0,1-27.56-2.43h-.12l-1.67-.28-1.81-.33h0c-15-2.79-25.12-7.06-28-11.25a3.48,3.48,0,0,1-.67-1.89C413.77,534.71,438.67,525.24,479.22,525.24Z"/><path class="cls-9" d="M548.14,594.14a3,3,0,0,0-3,3,3.67,3.67,0,0,1-.7,2c-2.58,3.81-10.78,7.54-22.49,10.22-12.17,2.79-27.35,4.33-42.74,4.33s-30.55-1.54-42.71-4.33c-11.71-2.68-19.9-6.41-22.47-10.21a3.67,3.67,0,0,1-.71-2,3,3,0,1,0-6,0V652.2a9.41,9.41,0,0,0,1.79,5.44,14.91,14.91,0,0,0,1.91,2.22c4.6,4.44,13.58,8.2,26,10.86a223.72,223.72,0,0,0,84.44,0c12.39-2.66,21.36-6.41,26-10.85a14.62,14.62,0,0,0,1.93-2.24,9.43,9.43,0,0,0,1.79-5.43V597.13A3,3,0,0,0,548.14,594.14Zm-3,58.06a3.49,3.49,0,0,1-.7,2,8.13,8.13,0,0,1-1.16,1.35l0,0c-3.81,3.68-12.21,7-23.65,9.42a217.68,217.68,0,0,1-80.78,0c-11.44-2.4-19.84-5.75-23.65-9.44h0a8.61,8.61,0,0,1-1.13-1.32,3.54,3.54,0,0,1-.71-2V606.69c4.9,3.54,12.73,6.56,23,8.82,12.3,2.72,27.14,4.15,42.92,4.15s30.63-1.43,42.94-4.15c10.24-2.26,18.08-5.28,23-8.82Z"/><path class="cls-9" d="M548.14,649.27a3,3,0,0,0-3,3,3.67,3.67,0,0,1-.7,2c-2.58,3.81-10.78,7.54-22.49,10.22-12.17,2.79-27.35,4.33-42.74,4.33s-30.55-1.54-42.71-4.33c-11.71-2.68-19.9-6.4-22.47-10.21a3.67,3.67,0,0,1-.71-2,3,3,0,0,0-6,0v55.07a9.41,9.41,0,0,0,1.79,5.45,14.82,14.82,0,0,0,1.91,2.21c4.6,4.44,13.58,8.2,26,10.86a223.72,223.72,0,0,0,84.44,0c12.39-2.66,21.36-6.41,26-10.84a14.24,14.24,0,0,0,1.93-2.25,9.4,9.4,0,0,0,1.79-5.43V652.25A3,3,0,0,0,548.14,649.27Zm-3,58.05a3.54,3.54,0,0,1-.7,2,8.47,8.47,0,0,1-1.16,1.34l0,0c-3.81,3.68-12.21,7-23.65,9.42a217.68,217.68,0,0,1-80.78,0c-11.44-2.4-19.84-5.75-23.65-9.44h0a8.16,8.16,0,0,1-1.13-1.32,3.54,3.54,0,0,1-.71-2V661.81c4.9,3.54,12.73,6.56,23,8.82,12.3,2.72,27.14,4.16,42.92,4.16s30.63-1.44,42.94-4.15c10.24-2.26,18.08-5.28,23-8.83Z"/><circle class="cls-8" cx="479.24" cy="641.41" r="51.84"/><path class="cls-3" d="M462.28,673.93a33.76,33.76,0,0,0,44.45-10.36,2.58,2.58,0,0,0-.87-3.71h0a2.58,2.58,0,0,0-3.42.8,28.52,28.52,0,1,1-13.51-42.73l-8.46,5.69a2.6,2.6,0,0,0-.7,3.6h0a2.59,2.59,0,0,0,3.6.7l12.28-8.26a2.69,2.69,0,0,0,.81-.87,2.62,2.62,0,0,0,.15-2.24l-5.22-13A2.59,2.59,0,0,0,488,602.1h0a2.59,2.59,0,0,0-1.44,3.37l2.85,7.12a33.7,33.7,0,0,0-27.15,61.34Z"/><path class="cls-4" d="M456.38,640.46a5.15,5.15,0,0,1,2.06-4.44,8.64,8.64,0,0,1,5.17-1.49,11.7,11.7,0,0,1,5.44,1.41v3.57a9,9,0,0,0-5-1.54,6.25,6.25,0,0,0-2.84.58,1.91,1.91,0,0,0-1.17,1.82,1.73,1.73,0,0,0,1.06,1.58,11.05,11.05,0,0,0,2.57,1,26.72,26.72,0,0,1,3,1,5.76,5.76,0,0,1,2.58,2.05,6.28,6.28,0,0,1,1.06,3.78,4.8,4.8,0,0,1-2,4,8,8,0,0,1-5,1.54,12.79,12.79,0,0,1-6.69-1.69v-3.69a9.58,9.58,0,0,0,5.84,1.94c2.79,0,4.19-.77,4.19-2.33a2.27,2.27,0,0,0-.76-1.75,4.68,4.68,0,0,0-1.91-1c-.77-.22-1.6-.49-2.48-.79s-1.71-.63-2.48-1a4.64,4.64,0,0,1-1.91-1.67A5,5,0,0,1,456.38,640.46Z"/><path class="cls-4" d="M473.76,644.89a14.78,14.78,0,0,1,.58-4.37,8.61,8.61,0,0,1,1.49-3,7.35,7.35,0,0,1,2.2-1.83,9.06,9.06,0,0,1,2.54-.94,15,15,0,0,1,2.67-.23,14.81,14.81,0,0,1,2.66.23,9.06,9.06,0,0,1,2.52.94,7.55,7.55,0,0,1,2.22,1.83,8.59,8.59,0,0,1,1.51,3,17.06,17.06,0,0,1,.1,8.35,9.43,9.43,0,0,1-1.25,2.87,7.27,7.27,0,0,1-1.87,1.88,8.24,8.24,0,0,1-2.2,1.1,11.67,11.67,0,0,1-2.38.46,2.18,2.18,0,0,0,1,2,4.6,4.6,0,0,0,2.45.63v2.85q-6.5,0-6.5-5.53a10.2,10.2,0,0,1-2.86-.78,8.64,8.64,0,0,1-2.45-1.71,7.73,7.73,0,0,1-1.81-3.12A15.16,15.16,0,0,1,473.76,644.89Zm4.1-3.75a15.89,15.89,0,0,0,0,7.51,4.32,4.32,0,0,0,1.35,2.2,4.74,4.74,0,0,0,1.81.95,10.3,10.3,0,0,0,4.42,0,4.74,4.74,0,0,0,1.83-.95,4.32,4.32,0,0,0,1.35-2.2,15.89,15.89,0,0,0,0-7.51,4.32,4.32,0,0,0-1.35-2.2,4.91,4.91,0,0,0-1.83-1,10.73,10.73,0,0,0-4.42,0,4.91,4.91,0,0,0-1.81,1A4.32,4.32,0,0,0,477.86,641.14Z"/><path class="cls-4" d="M496.83,655V634.77h3.66v16.82h9.75V655Z"/><path class="cls-9" d="M438.35,759.9s-4.22,6.39,4.08,7.7c.81.1,6.83.72,8.38,2.69,0,0-.14-3.4-5-5.4S438.9,762.39,438.35,759.9Z"/><path class="cls-9" d="M442.47,746.12s-11.82,7.2-.68,14.37c2.14,1.39,9.91,5.28,9.68,8.85,0,0,4.71-7-2.17-11.35C442.23,753.49,440.46,748.71,442.47,746.12Z"/><path class="cls-9" d="M454.67,753.17c-5.06-5.31-6.47-8.59-4.3-12.83,0,0-15.12,5.81-.2,16.14,5.35,3.69,4.46,7.46,4.46,7.6C455.48,763.21,459.73,758.47,454.67,753.17Z"/><text class="cls-10" transform="translate(462.91 763.65)"><tspan class="cls-11">N</tspan><tspan class="cls-12" x="15.85" y="0">O</tspan><tspan class="cls-13" x="31.71" y="0">D</tspan><tspan x="46.06" y="0">E</tspan></text><path class="cls-8" d="M350.18,559.42c-34.74,0-70.68,7.88-70.68,21.06v162.8a7.82,7.82,0,0,0,1.51,4.55,12.51,12.51,0,0,0,1.72,2c9,8.69,36.09,14.52,67.45,14.52s58.51-5.83,67.48-14.5a13.33,13.33,0,0,0,1.74-2,7.84,7.84,0,0,0,1.51-4.54V580.48C420.91,567.3,385,559.42,350.18,559.42Z"/><path class="cls-9" d="M398.64,562.23c-13.12-3.56-30.79-5.61-48.46-5.61s-35.31,2-48.43,5.61c-15.36,4.16-23.48,10.08-23.48,17.11v55.89a9.62,9.62,0,0,0,1.83,5.56,15.06,15.06,0,0,0,1.95,2.27c9.22,8.9,36.6,14.89,68.13,14.89s58.95-6,68.17-14.89a15,15,0,0,0,1.95-2.26,9.6,9.6,0,0,0,1.83-5.57V579.34C422.13,572.31,414,566.39,398.64,562.23ZM415,637.08a8.39,8.39,0,0,1-1.12,1.3c-7.87,7.6-34.65,13.11-63.71,13.11s-55.81-5.51-63.67-13.11a8.88,8.88,0,0,1-1.12-1.3,3.27,3.27,0,0,1-.65-1.85V589.35a36,36,0,0,0,4.8,2.73l.07,0c.88.42,1.79.83,2.76,1.22l.23.1c.94.38,1.9.75,2.92,1.11l.36.12c.86.3,1.74.59,2.65.87l.82.26c.86.26,1.74.5,2.64.75l1.21.32c.87.23,1.75.44,2.65.65l1.55.36,2.64.56,1.77.34,2.12.38,2.43.4,2,.31,2.61.36,2.27.28c.68.08,1.36.17,2,.24l3.07.31,1.56.14c1.23.11,2.47.2,3.73.29l1.34.09c1.35.09,2.72.16,4.09.22l1,.05c1.49.06,3,.11,4.51.14h.6q2.48.06,5,.06c1.68,0,3.34,0,5-.06h.61c1.51,0,3-.08,4.5-.14l1-.05c1.37-.06,2.73-.13,4.08-.22l1.35-.09c1.25-.09,2.49-.18,3.72-.29l1.59-.14,3-.3,2.14-.25,2.23-.28,2.65-.37c.66-.09,1.32-.19,2-.3.84-.13,1.66-.26,2.47-.41l2.1-.37,1.77-.35,2.65-.55,1.53-.36c.91-.21,1.81-.43,2.68-.65l1.16-.31c.94-.26,1.87-.52,2.77-.79l.68-.21c.94-.3,1.87-.6,2.76-.91l.28-.1c1-.36,2-.74,3-1.13l.16-.07c1-.4,1.92-.82,2.81-1.25h0a37.79,37.79,0,0,0,4.83-2.75v45.88A3.22,3.22,0,0,1,415,637.08Zm-64.83-74c40.58,0,65.49,9.46,65.49,16.25a3.5,3.5,0,0,1-.67,1.88c-2.84,4.19-13,8.47-28,11.25l-.12,0-1.71.3-1.77.29h0a211.07,211.07,0,0,1-27.62,2.43h-.94l-1.77,0h-5.81l-1.77,0h-.94A208.56,208.56,0,0,1,317,593.1l-.12,0-1.67-.28-1.81-.32h0c-15-2.79-25.12-7.06-28-11.26a3.42,3.42,0,0,1-.67-1.88C284.74,572.55,309.63,563.09,350.18,563.09Z"/><path class="cls-9" d="M419.1,632a3,3,0,0,0-3,3,3.7,3.7,0,0,1-.7,2c-2.58,3.81-10.77,7.54-22.49,10.22-12.17,2.79-27.34,4.32-42.74,4.32s-30.54-1.53-42.71-4.32c-11.71-2.68-19.9-6.41-22.47-10.21a3.72,3.72,0,0,1-.71-2,3,3,0,0,0-6,0v55.07a9.42,9.42,0,0,0,1.8,5.44,14.35,14.35,0,0,0,1.91,2.22c4.6,4.44,13.57,8.19,26,10.86a205.06,205.06,0,0,0,42.2,4,205.46,205.46,0,0,0,42.24-4c12.38-2.66,21.35-6.41,25.95-10.85a14.62,14.62,0,0,0,1.93-2.24,9.35,9.35,0,0,0,1.79-5.43V635A3,3,0,0,0,419.1,632Zm-3,58.06a3.51,3.51,0,0,1-.7,2,8.13,8.13,0,0,1-1.16,1.35h0c-3.81,3.68-12.21,7-23.65,9.43a217.68,217.68,0,0,1-80.78,0c-11.44-2.4-19.84-5.75-23.66-9.44h0a8.66,8.66,0,0,1-1.14-1.32,3.56,3.56,0,0,1-.71-2V644.54c4.9,3.54,12.74,6.56,23,8.82,12.3,2.72,27.14,4.15,42.92,4.15s30.64-1.43,42.94-4.15c10.24-2.26,18.09-5.28,23-8.83Z"/><path class="cls-9" d="M419.1,687.11a3,3,0,0,0-3,3,3.67,3.67,0,0,1-.7,2c-2.58,3.81-10.77,7.54-22.49,10.22-12.17,2.79-27.34,4.33-42.74,4.33s-30.54-1.54-42.71-4.33c-11.71-2.68-19.9-6.4-22.47-10.21a3.67,3.67,0,0,1-.71-2,3,3,0,0,0-6,0v55.07a9.4,9.4,0,0,0,1.8,5.44,14.35,14.35,0,0,0,1.91,2.22c4.6,4.44,13.57,8.2,26,10.86a205,205,0,0,0,42.2,4,205.43,205.43,0,0,0,42.24-4c12.38-2.66,21.35-6.41,25.95-10.84a14.71,14.71,0,0,0,1.93-2.25,9.33,9.33,0,0,0,1.79-5.43V690.1A3,3,0,0,0,419.1,687.11Zm-3,58.06a3.49,3.49,0,0,1-.7,2,8.13,8.13,0,0,1-1.16,1.35v0c-3.81,3.68-12.21,7-23.65,9.42a217.68,217.68,0,0,1-80.78,0c-11.44-2.4-19.84-5.75-23.66-9.44h0a8.66,8.66,0,0,1-1.14-1.32,3.54,3.54,0,0,1-.71-2V699.66c4.9,3.54,12.74,6.56,23,8.82,12.3,2.72,27.14,4.16,42.92,4.16s30.64-1.44,42.94-4.16c10.24-2.26,18.09-5.28,23-8.82Z"/><circle class="cls-8" cx="350.2" cy="679.26" r="51.84"/><path class="cls-3" d="M333.25,711.77a33.75,33.75,0,0,0,44.45-10.35,2.6,2.6,0,0,0-.87-3.72h0a2.59,2.59,0,0,0-3.42.81,28.52,28.52,0,1,1-13.52-42.73l-8.45,5.69a2.6,2.6,0,0,0-.71,3.6h0a2.59,2.59,0,0,0,3.6.7l12.28-8.26a2.58,2.58,0,0,0,1-3.11l-5.21-13A2.59,2.59,0,0,0,359,640h0a2.6,2.6,0,0,0-1.45,3.37l2.85,7.11a33.7,33.7,0,0,0-27.14,61.34Z"/><path class="cls-4" d="M327.34,678.31a5.13,5.13,0,0,1,2.07-4.44,8.52,8.52,0,0,1,5.16-1.49,11.74,11.74,0,0,1,5.45,1.41v3.57a9,9,0,0,0-5-1.54,6.28,6.28,0,0,0-2.84.58,1.9,1.9,0,0,0-1.17,1.82,1.75,1.75,0,0,0,1.06,1.58,11.23,11.23,0,0,0,2.57,1,25.47,25.47,0,0,1,3,1,5.76,5.76,0,0,1,2.58,2,6.26,6.26,0,0,1,1.06,3.78,4.78,4.78,0,0,1-2,4,8,8,0,0,1-5,1.54,12.7,12.7,0,0,1-6.69-1.7v-3.68a9.59,9.59,0,0,0,5.85,1.94q4.19,0,4.18-2.33a2.28,2.28,0,0,0-.75-1.75,4.67,4.67,0,0,0-1.92-1c-.77-.23-1.6-.49-2.48-.79a25.62,25.62,0,0,1-2.48-1,4.54,4.54,0,0,1-1.91-1.66A5,5,0,0,1,327.34,678.31Z"/><path class="cls-4" d="M344.72,682.74a14.78,14.78,0,0,1,.58-4.37,8.94,8.94,0,0,1,1.49-3,7.38,7.38,0,0,1,2.21-1.82,8.71,8.71,0,0,1,2.53-.94,15,15,0,0,1,2.67-.23,14.81,14.81,0,0,1,2.66.23,9.06,9.06,0,0,1,2.52.94,7.55,7.55,0,0,1,2.22,1.83,8.62,8.62,0,0,1,1.51,3,16.79,16.79,0,0,1,.1,8.36,9.26,9.26,0,0,1-1.24,2.86,7.27,7.27,0,0,1-1.87,1.88,8.48,8.48,0,0,1-2.21,1.11,11.54,11.54,0,0,1-2.38.46,2.18,2.18,0,0,0,1,2,4.64,4.64,0,0,0,2.46.63v2.85q-6.51,0-6.5-5.53a10.52,10.52,0,0,1-2.87-.78,8.78,8.78,0,0,1-2.45-1.71,7.7,7.7,0,0,1-1.81-3.13A15,15,0,0,1,344.72,682.74Zm4.11-3.75a15.56,15.56,0,0,0,0,7.51,4.32,4.32,0,0,0,1.35,2.2,4.67,4.67,0,0,0,1.81.95,8.72,8.72,0,0,0,2.21.24,8.89,8.89,0,0,0,2.21-.24,4.7,4.7,0,0,0,1.82-.95,4.32,4.32,0,0,0,1.35-2.2,15.56,15.56,0,0,0,0-7.51,4.32,4.32,0,0,0-1.35-2.2,4.87,4.87,0,0,0-1.82-1,9.44,9.44,0,0,0-2.21-.23,9.26,9.26,0,0,0-2.21.23,4.83,4.83,0,0,0-1.81,1A4.32,4.32,0,0,0,348.83,679Z"/><path class="cls-4" d="M367.8,692.89V672.61h3.65v16.83h9.75v3.45Z"/><path class="cls-9" d="M309.32,797.74s-4.23,6.4,4.08,7.71c.81.1,6.82.72,8.37,2.69,0,0-.14-3.4-5-5.4S309.86,800.24,309.32,797.74Z"/><path class="cls-9" d="M313.43,784s-11.82,7.2-.68,14.37c2.15,1.39,9.92,5.28,9.69,8.85,0,0,4.7-7-2.17-11.35C313.19,791.34,311.42,786.56,313.43,784Z"/><path class="cls-9" d="M325.64,791c-5.06-5.3-6.47-8.58-4.31-12.83,0,0-15.12,5.82-.19,16.15,5.35,3.69,4.45,7.46,4.45,7.6C326.44,801.06,330.7,796.32,325.64,791Z"/><text class="cls-10" transform="translate(333.87 801.5)"><tspan class="cls-11">N</tspan><tspan class="cls-12" x="15.85" y="0">O</tspan><tspan class="cls-13" x="31.71" y="0">D</tspan><tspan x="46.06" y="0">E</tspan></text></g></g></svg>