<svg width="620" height="371" fill="none" xmlns="http://www.w3.org/2000/svg"><rect width="620" height="371" rx="10" fill="#F6F6F6"/><path d="M24 112.519c0-10.009 8.114-18.123 18.123-18.123h537.754c10.009 0 18.123 8.114 18.123 18.123s-8.114 18.123-18.123 18.123H42.123c-10.01 0-18.123-8.114-18.123-18.123Z" fill="#EBEBEB"/><path d="m93.25 103.599 21.52 5.695v-30.95l-21.52-5.695-21.142 6.58v30.823l21.142-6.453Z" fill="#fff"/><path fill-rule="evenodd" clip-rule="evenodd" d="M71.449 110.942V78.745l21.786-6.782 22.194 5.874v32.313l-22.166-5.866-21.814 6.658Zm1.318-1.781 20.47-6.247 20.874 5.524V78.851l-20.846-5.516-20.498 6.38v29.446Z" fill="#2D2D2D"/><path d="m93.628 85.16-21.52-5.695v37.741l21.52 5.695 21.142-6.581V78.707L93.628 85.16Z" fill="#fff"/><path fill-rule="evenodd" clip-rule="evenodd" d="M115.429 77.817v38.988l-21.787 6.781-22.193-5.873V78.609l22.166 5.866 21.814-6.658Zm-1.318 1.78-20.47 6.248-20.874-5.524v36.378l20.846 5.516 20.498-6.38V79.598Z" fill="#2D2D2D"/><path fill-rule="evenodd" clip-rule="evenodd" d="M92.654 122.27V85.099h1.318v37.171h-1.318Z" fill="#2D2D2D"/><path d="m238.233 103.599 21.52 5.695v-30.95l-21.52-5.695-21.142 6.58v30.823l21.142-6.453Z" fill="#fff"/><path fill-rule="evenodd" clip-rule="evenodd" d="M216.432 110.942V78.745l21.786-6.782 22.194 5.874v32.313l-22.166-5.866-21.814 6.658Zm1.318-1.781 20.47-6.247 20.874 5.524V78.851l-20.846-5.516-20.498 6.38v29.446Z" fill="#2D2D2D"/><path d="m238.61 85.16-21.519-5.695v37.741l21.519 5.695 21.143-6.581V78.707L238.61 85.16Z" fill="#fff"/><path fill-rule="evenodd" clip-rule="evenodd" d="M260.412 77.817v38.988l-21.787 6.781-22.193-5.873V78.609l22.166 5.866 21.814-6.658Zm-1.318 1.78-20.471 6.248-20.873-5.524v36.378l20.846 5.516 20.498-6.38V79.598Z" fill="#2D2D2D"/><path fill-rule="evenodd" clip-rule="evenodd" d="M237.636 122.27V85.099h1.319v37.171h-1.319Z" fill="#2D2D2D"/><path d="m383.216 103.599 21.519 5.695v-30.95l-21.519-5.695-21.143 6.58v30.823l21.143-6.453Z" fill="#fff"/><path fill-rule="evenodd" clip-rule="evenodd" d="M361.414 110.942V78.745l21.787-6.782 22.193 5.874v32.313l-22.165-5.866-21.815 6.658Zm1.318-1.781 20.471-6.247 20.873 5.524V78.851l-20.846-5.516-20.498 6.38v29.446Z" fill="#2D2D2D"/><path d="m383.593 85.16-21.52-5.695.001 37.741 21.519 5.695 21.142-6.581V78.707l-21.142 6.453Z" fill="#fff"/><path fill-rule="evenodd" clip-rule="evenodd" d="M405.394 77.817v38.988l-21.786 6.781-22.194-5.873V78.609l22.166 5.866 21.814-6.658Zm-1.318 1.78-20.47 6.248-20.874-5.524v36.378l20.846 5.516 20.498-6.38V79.598Z" fill="#2D2D2D"/><path fill-rule="evenodd" clip-rule="evenodd" d="M382.619 122.27V85.099h1.318v37.171h-1.318Z" fill="#2D2D2D"/><path d="m528.198 103.599 21.52 5.695v-30.95l-21.52-5.695-21.142 6.58v30.823l21.142-6.453Z" fill="#fff"/><path fill-rule="evenodd" clip-rule="evenodd" d="M506.397 110.942V78.745l21.787-6.782 22.193 5.874v32.313l-22.166-5.866-21.814 6.658Zm1.318-1.781 20.471-6.247 20.873 5.524V78.851l-20.846-5.516-20.498 6.38v29.446Z" fill="#2D2D2D"/><path d="m528.576 85.16-21.52-5.695v37.741l21.52 5.695 21.142-6.581V78.707l-21.142 6.453Z" fill="#fff"/><path fill-rule="evenodd" clip-rule="evenodd" d="M550.377 77.817v38.988l-21.786 6.781-22.194-5.873V78.609l22.166 5.866 21.814-6.658Zm-1.318 1.78-20.47 6.248-20.874-5.524v36.378l20.846 5.516 20.498-6.38V79.598Z" fill="#2D2D2D"/><path fill-rule="evenodd" clip-rule="evenodd" d="M527.602 122.27V85.099h1.318v37.171h-1.318Z" fill="#2D2D2D"/><path d="m486.604 55.515 4.348-11.322h1.614l4.633 11.322h-1.706l-1.321-3.43h-4.734l-1.243 3.43h-1.591Zm3.267-4.65h3.838l-1.182-3.135a31.13 31.13 0 0 1-.803-2.348 14.478 14.478 0 0 1-.61 2.163l-1.243 3.32Zm8.48 7.793V47.313h1.266v1.066c.299-.417.636-.729 1.012-.935.376-.21.831-.316 1.367-.316.7 0 1.318.18 1.853.54.536.36.94.87 1.213 1.53.273.653.409 1.372.409 2.154 0 .84-.152 1.596-.456 2.27-.298.67-.736 1.185-1.312 1.545a3.371 3.371 0 0 1-1.808.533 2.64 2.64 0 0 1-1.251-.293 2.857 2.857 0 0 1-.903-.742v3.993h-1.39Zm1.258-7.198c0 1.056.214 1.836.641 2.34.428.505.945.757 1.553.757.618 0 1.145-.26 1.583-.78.443-.525.664-1.336.664-2.433 0-1.045-.216-1.827-.649-2.347-.427-.52-.939-.78-1.536-.78-.593 0-1.118.278-1.576.834-.453.55-.68 1.354-.68 2.41Zm7.677 7.198V47.313h1.267v1.066c.299-.417.636-.729 1.012-.935.376-.21.831-.316 1.367-.316.7 0 1.318.18 1.853.54.536.36.94.87 1.213 1.53.272.653.409 1.372.409 2.154 0 .84-.152 1.596-.456 2.27-.298.67-.736 1.185-1.313 1.545a3.368 3.368 0 0 1-1.807.533 2.64 2.64 0 0 1-1.251-.293 2.846 2.846 0 0 1-.903-.742v3.993h-1.391Zm1.259-7.198c0 1.056.214 1.836.641 2.34.428.505.945.757 1.553.757.617 0 1.145-.26 1.583-.78.443-.525.664-1.336.664-2.433 0-1.045-.216-1.827-.649-2.347-.427-.52-.939-.78-1.537-.78-.592 0-1.117.278-1.575.834-.453.55-.68 1.354-.68 2.41Zm7.646 4.055V44.193h1.39v11.322h-1.39Zm3.692-9.723v-1.599h1.39v1.599h-1.39Zm0 9.723v-8.202h1.39v8.202h-1.39Zm8.998-3.005 1.367.178c-.149.942-.533 1.681-1.151 2.217-.612.53-1.367.795-2.263.795-1.122 0-2.026-.366-2.71-1.097-.68-.736-1.02-1.789-1.02-3.158 0-.886.147-1.66.441-2.325.293-.664.738-1.16 1.336-1.49a3.97 3.97 0 0 1 1.961-.502c.891 0 1.619.226 2.186.68.566.447.929 1.086 1.089 1.915l-1.352.208c-.129-.55-.358-.965-.687-1.243-.325-.278-.718-.417-1.182-.417-.7 0-1.269.252-1.707.757-.437.499-.656 1.292-.656 2.378 0 1.102.211 1.903.633 2.402.422.5.973.75 1.653.75.546 0 1.001-.168 1.367-.503.365-.334.597-.85.695-1.544Zm8.04 1.993c-.515.438-1.012.747-1.491.927a4.26 4.26 0 0 1-1.529.27c-.901 0-1.593-.219-2.077-.656-.484-.443-.726-1.007-.726-1.692 0-.401.09-.767.27-1.096a2.32 2.32 0 0 1 .718-.803 3.44 3.44 0 0 1 1.004-.456 9.951 9.951 0 0 1 1.236-.209c1.122-.133 1.949-.293 2.479-.478.005-.19.008-.312.008-.363 0-.567-.131-.966-.394-1.197-.355-.315-.883-.471-1.583-.471-.654 0-1.138.115-1.452.347-.309.227-.538.63-.687 1.213l-1.36-.186c.124-.582.327-1.05.61-1.405.284-.36.693-.636 1.228-.827.536-.195 1.156-.293 1.862-.293.7 0 1.269.082 1.706.247.438.165.76.373.966.626.206.247.35.56.432.942.046.236.07.664.07 1.282v1.853c0 1.292.028 2.111.085 2.456.061.34.18.667.355.98h-1.452a2.946 2.946 0 0 1-.278-1.01Zm-.116-3.105c-.504.206-1.261.381-2.27.526-.572.082-.976.175-1.213.278a1.194 1.194 0 0 0-.741 1.112c0 .37.139.68.417.926.283.248.695.371 1.235.371.536 0 1.012-.116 1.429-.347.417-.237.723-.559.919-.966.149-.314.224-.777.224-1.39v-.51Zm6.735 2.873.201 1.228a5.166 5.166 0 0 1-1.051.124c-.504 0-.895-.08-1.173-.24a1.339 1.339 0 0 1-.587-.625c-.114-.263-.17-.811-.17-1.645v-4.719h-1.02v-1.08h1.02v-2.032l1.382-.834v2.865h1.398v1.081h-1.398v4.796c0 .397.023.652.07.765a.605.605 0 0 0 .239.27c.113.067.273.1.479.1.154 0 .358-.018.61-.054Zm1.506-8.479v-1.599h1.39v1.599h-1.39Zm0 9.723v-8.202h1.39v8.202h-1.39Zm3.129-4.101c0-1.519.422-2.644 1.266-3.375.705-.608 1.565-.911 2.58-.911 1.127 0 2.049.37 2.764 1.112.716.736 1.074 1.755 1.074 3.058 0 1.055-.16 1.887-.479 2.495a3.34 3.34 0 0 1-1.382 1.405 4.006 4.006 0 0 1-1.977.502c-1.149 0-2.078-.368-2.788-1.104-.706-.736-1.058-1.797-1.058-3.182Zm1.428 0c0 1.05.229 1.838.688 2.363.458.52 1.034.78 1.73.78.689 0 1.264-.263 1.722-.788.458-.525.687-1.325.687-2.401 0-1.015-.232-1.782-.695-2.302-.458-.525-1.03-.788-1.714-.788-.696 0-1.272.26-1.73.78-.459.52-.688 1.306-.688 2.356Zm8.025 4.101v-8.202h1.251v1.166c.602-.9 1.472-1.351 2.61-1.351.494 0 .948.09 1.359.27.417.175.729.407.935.695.206.288.35.63.432 1.027.052.258.078.708.078 1.352v5.043h-1.391v-4.99c0-.566-.054-.988-.162-1.266a1.31 1.31 0 0 0-.579-.672 1.79 1.79 0 0 0-.965-.255c-.592 0-1.105.188-1.537.564-.427.376-.641 1.09-.641 2.14v4.479h-1.39Zm8.38-2.448 1.374-.217c.077.551.291.974.641 1.267.355.293.85.44 1.483.44.638 0 1.112-.129 1.421-.386.309-.263.463-.569.463-.919a.844.844 0 0 0-.409-.741c-.19-.124-.664-.281-1.421-.472-1.019-.257-1.727-.478-2.124-.664a2.12 2.12 0 0 1-.896-.78 2.113 2.113 0 0 1-.301-1.104c0-.366.083-.703.247-1.012.17-.314.399-.574.688-.78.216-.16.509-.293.88-.401.376-.114.778-.17 1.205-.17.643 0 1.207.093 1.691.278.489.185.85.437 1.081.757.232.314.392.736.479 1.266l-1.359.185c-.062-.422-.242-.751-.541-.988-.293-.237-.71-.355-1.251-.355-.638 0-1.094.105-1.367.316-.273.211-.409.459-.409.742 0 .18.057.342.17.486.113.15.291.273.533.371.139.051.548.17 1.228.355.983.263 1.668.48 2.054.649.391.165.698.407.919.726.221.32.332.716.332 1.19 0 .463-.136.9-.409 1.312-.268.407-.657.724-1.166.95-.51.221-1.087.332-1.73.332-1.066 0-1.879-.221-2.441-.664-.556-.443-.911-1.1-1.065-1.97Zm-217.063-1.19 1.413-.123c.067.566.221 1.032.463 1.398.248.36.628.653 1.143.88.515.221 1.094.332 1.738.332.571 0 1.076-.085 1.514-.255.437-.17.762-.401.973-.695.216-.299.324-.623.324-.973a1.46 1.46 0 0 0-.309-.927c-.206-.267-.546-.491-1.019-.672-.304-.118-.976-.3-2.016-.548-1.04-.252-1.768-.489-2.185-.71-.541-.284-.945-.634-1.213-1.05a2.618 2.618 0 0 1-.394-1.414c0-.572.162-1.104.487-1.599.324-.499.798-.877 1.421-1.135.623-.257 1.315-.386 2.077-.386.839 0 1.578.136 2.217.41.643.267 1.137.664 1.482 1.189a3.42 3.42 0 0 1 .556 1.784l-1.436.108c-.077-.716-.34-1.257-.788-1.622-.442-.366-1.099-.548-1.969-.548-.906 0-1.568.167-1.985.502-.412.33-.618.728-.618 1.197 0 .406.147.741.441 1.004.288.262 1.04.532 2.255.81 1.22.273 2.056.513 2.51.719.659.303 1.145.69 1.459 1.158.314.464.471.999.471 1.607 0 .602-.172 1.17-.517 1.706-.345.53-.842.945-1.491 1.244-.643.293-1.369.44-2.178.44-1.024 0-1.884-.15-2.579-.448a3.639 3.639 0 0 1-1.629-1.344 3.85 3.85 0 0 1-.618-2.039Zm16.627.996 1.437.178c-.227.84-.646 1.49-1.259 1.954-.613.463-1.395.695-2.348.695-1.199 0-2.152-.368-2.857-1.104-.7-.742-1.05-1.78-1.05-3.113 0-1.38.355-2.45 1.065-3.212.711-.762 1.632-1.143 2.765-1.143 1.097 0 1.993.373 2.688 1.12.695.746 1.042 1.796 1.042 3.15 0 .083-.002.206-.007.371h-6.117c.052.901.306 1.591.765 2.07.458.479 1.029.718 1.714.718.51 0 .945-.134 1.305-.401.361-.268.646-.696.857-1.282Zm-4.564-2.247h4.58c-.062-.69-.237-1.207-.525-1.552-.443-.536-1.017-.803-1.722-.803-.639 0-1.177.213-1.615.64-.432.428-.671 1-.718 1.715Zm7.87 4.889v-8.202h1.251v1.243c.32-.581.613-.965.881-1.15a1.56 1.56 0 0 1 .896-.278c.468 0 .944.149 1.428.448l-.478 1.29a1.99 1.99 0 0 0-1.02-.302 1.31 1.31 0 0 0-.818.278c-.242.18-.415.433-.518.757a5.43 5.43 0 0 0-.232 1.622v4.294h-1.39Zm7.693 0-3.12-8.202h1.467l1.761 4.912c.19.53.365 1.081.525 1.652.124-.432.296-.952.517-1.56l1.823-5.004h1.429l-3.105 8.202h-1.297Zm5.769-9.723v-1.599h1.39v1.599h-1.39Zm0 9.723v-8.202h1.39v8.202h-1.39Zm8.998-3.005 1.367.178c-.15.942-.533 1.681-1.151 2.217-.613.53-1.367.795-2.263.795-1.122 0-2.026-.366-2.71-1.097-.68-.736-1.02-1.789-1.02-3.158 0-.886.147-1.66.44-2.325.294-.664.739-1.16 1.336-1.49a3.978 3.978 0 0 1 1.962-.502c.891 0 1.619.226 2.186.68.566.447.929 1.086 1.088 1.915l-1.351.208c-.129-.55-.358-.965-.687-1.243-.325-.278-.719-.417-1.182-.417-.7 0-1.269.252-1.707.757-.437.499-.656 1.292-.656 2.378 0 1.102.211 1.903.633 2.402.422.5.973.75 1.653.75.546 0 1.001-.168 1.367-.503.365-.335.597-.85.695-1.544Zm8.302.363 1.437.178c-.227.84-.646 1.49-1.259 1.954-.613.463-1.395.695-2.348.695-1.199 0-2.152-.368-2.857-1.104-.7-.742-1.051-1.78-1.051-3.113 0-1.38.356-2.45 1.066-3.212.711-.762 1.632-1.143 2.765-1.143 1.097 0 1.992.373 2.688 1.12.695.746 1.042 1.796 1.042 3.15 0 .083-.002.206-.008.371h-6.116c.051.901.306 1.591.764 2.07.459.479 1.03.718 1.715.718.51 0 .945-.134 1.305-.401.36-.268.646-.696.857-1.282Zm-4.564-2.247h4.58c-.062-.69-.237-1.207-.525-1.552-.443-.536-1.017-.803-1.723-.803-.638 0-1.176.213-1.614.64-.432.428-.672 1-.718 1.715Zm7.33 2.441 1.374-.217c.077.551.291.973.641 1.267.355.293.85.44 1.483.44.638 0 1.112-.129 1.421-.386.309-.263.463-.569.463-.92a.844.844 0 0 0-.409-.74c-.19-.124-.664-.281-1.421-.472-1.019-.257-1.727-.478-2.124-.664a2.12 2.12 0 0 1-.896-.78 2.114 2.114 0 0 1-.301-1.104c0-.366.083-.703.247-1.012.17-.314.399-.574.688-.78.216-.16.509-.293.88-.401.376-.114.778-.17 1.205-.17.643 0 1.207.092 1.691.278.489.185.85.437 1.081.757.232.314.392.736.479 1.266l-1.359.185c-.062-.422-.242-.751-.541-.988-.293-.237-.71-.355-1.251-.355-.638 0-1.094.105-1.367.316-.273.211-.409.459-.409.742 0 .18.057.342.17.486.113.15.291.273.533.371.139.051.548.17 1.228.355.983.263 1.668.479 2.054.649.391.165.698.407.919.726.221.32.332.716.332 1.19 0 .463-.136.9-.409 1.312-.268.407-.657.723-1.166.95-.51.221-1.087.332-1.73.332-1.066 0-1.879-.221-2.441-.664-.556-.443-.911-1.1-1.065-1.97ZM46.968 55.515V44.193h3.9c.88 0 1.552.054 2.015.162.649.15 1.203.42 1.66.811.598.505 1.043 1.15 1.337 1.939.298.782.448 1.678.448 2.687 0 .86-.1 1.622-.302 2.286-.2.664-.458 1.215-.772 1.653a4.159 4.159 0 0 1-1.035 1.027c-.37.247-.82.435-1.351.564a7.664 7.664 0 0 1-1.815.193h-4.085Zm1.498-1.336h2.417c.747 0 1.331-.07 1.753-.209.427-.139.767-.334 1.02-.587.355-.355.63-.831.826-1.428.2-.603.301-1.331.301-2.186 0-1.184-.196-2.093-.587-2.726-.386-.639-.857-1.066-1.413-1.282-.402-.155-1.048-.232-1.939-.232h-2.378v8.65Zm15.237.324c-.514.438-1.011.747-1.49.927a4.27 4.27 0 0 1-1.53.27c-.9 0-1.593-.219-2.077-.656-.484-.443-.726-1.007-.726-1.692 0-.401.09-.767.27-1.096.186-.335.425-.603.719-.803a3.427 3.427 0 0 1 1.004-.456 9.951 9.951 0 0 1 1.236-.209c1.122-.133 1.948-.293 2.479-.478.005-.191.007-.312.007-.363 0-.567-.131-.966-.393-1.198-.356-.314-.883-.47-1.584-.47-.654 0-1.138.115-1.452.347-.308.227-.538.63-.687 1.212l-1.36-.185c.124-.582.328-1.05.611-1.405.283-.36.692-.636 1.228-.827.535-.195 1.156-.293 1.861-.293.7 0 1.27.082 1.707.247.438.165.76.373.965.625.206.248.35.562.433.943.046.236.07.664.07 1.282v1.853c0 1.292.028 2.111.084 2.456.062.34.18.667.355.98h-1.452a2.944 2.944 0 0 1-.278-1.011Zm-.115-3.105c-.505.206-1.262.381-2.27.526-.572.082-.976.175-1.213.278a1.2 1.2 0 0 0-.742 1.112c0 .37.14.68.417.926.283.248.695.371 1.236.371.535 0 1.012-.116 1.429-.347.417-.237.723-.559.919-.966.149-.314.224-.777.224-1.39v-.51Zm6.734 2.873.201 1.228a5.161 5.161 0 0 1-1.05.124c-.505 0-.896-.08-1.174-.24a1.345 1.345 0 0 1-.587-.625c-.113-.263-.17-.811-.17-1.645v-4.719h-1.02v-1.08h1.02v-2.032l1.383-.834v2.865h1.397v1.081h-1.397v4.796c0 .397.023.651.07.765a.608.608 0 0 0 .239.27c.113.067.272.1.478.1.155 0 .358-.018.61-.054Zm6.851.232c-.515.438-1.012.747-1.49.927-.474.18-.984.27-1.53.27-.9 0-1.593-.219-2.077-.656-.484-.443-.726-1.007-.726-1.692 0-.401.09-.767.27-1.096.186-.335.425-.603.719-.803a3.416 3.416 0 0 1 1.004-.456c.272-.072.684-.142 1.235-.209 1.123-.133 1.949-.293 2.48-.478l.007-.363c0-.567-.131-.966-.394-1.198-.355-.314-.883-.47-1.583-.47-.654 0-1.138.115-1.452.347-.309.227-.538.63-.687 1.212l-1.36-.185c.124-.582.327-1.05.61-1.405.284-.36.693-.636 1.228-.827.536-.195 1.156-.293 1.862-.293.7 0 1.269.082 1.706.247.438.165.76.373.966.625.206.248.35.562.432.943.047.236.07.664.07 1.282v1.853c0 1.292.028 2.111.085 2.456.061.34.18.667.355.98h-1.452a2.944 2.944 0 0 1-.278-1.011Zm-.116-3.105c-.504.206-1.261.381-2.27.526-.572.082-.976.175-1.213.278a1.2 1.2 0 0 0-.741 1.112c0 .37.139.68.417.926.283.248.695.371 1.236.371.535 0 1.011-.116 1.428-.347a2.19 2.19 0 0 0 .92-.966c.149-.314.223-.777.223-1.39v-.51Zm7.902.479 1.413-.123c.067.566.221 1.032.463 1.398.247.36.628.653 1.143.88.515.221 1.094.332 1.738.332.571 0 1.076-.085 1.514-.255.437-.17.762-.401.973-.695.216-.299.324-.623.324-.973a1.46 1.46 0 0 0-.309-.927c-.206-.267-.546-.491-1.02-.672-.303-.118-.975-.3-2.015-.548-1.04-.252-1.769-.489-2.186-.71-.54-.284-.944-.634-1.212-1.05a2.622 2.622 0 0 1-.394-1.414c0-.572.162-1.104.487-1.599.324-.499.798-.877 1.42-1.135.624-.257 1.316-.386 2.078-.386.84 0 1.578.136 2.217.41.643.267 1.137.664 1.482 1.189s.53 1.12.556 1.784l-1.436.108c-.077-.716-.34-1.257-.788-1.622-.443-.366-1.099-.548-1.97-.548-.905 0-1.567.167-1.984.502-.412.33-.618.728-.618 1.197 0 .406.147.741.44 1.004.289.262 1.04.532 2.256.81 1.22.273 2.056.513 2.51.719.659.303 1.145.69 1.46 1.158.313.464.47.999.47 1.607 0 .602-.172 1.17-.517 1.706-.345.53-.842.945-1.49 1.244-.644.293-1.37.44-2.179.44-1.024 0-1.884-.15-2.579-.448a3.643 3.643 0 0 1-1.63-1.344 3.86 3.86 0 0 1-.617-2.039Zm14.048 2.394.2 1.228a5.161 5.161 0 0 1-1.05.124c-.504 0-.895-.08-1.173-.24a1.344 1.344 0 0 1-.587-.625c-.114-.263-.17-.811-.17-1.645v-4.719h-1.02v-1.08h1.02v-2.032l1.382-.834v2.865h1.398v1.081h-1.398v4.796c0 .397.023.651.07.765a.608.608 0 0 0 .24.27c.112.067.272.1.478.1.154 0 .358-.018.61-.054Zm1.483 1.244v-8.202h1.251v1.243c.32-.581.613-.965.881-1.15a1.56 1.56 0 0 1 .896-.278c.468 0 .944.149 1.428.448l-.478 1.29a1.99 1.99 0 0 0-1.02-.302c-.304 0-.577.093-.819.278-.242.18-.414.433-.517.757a5.43 5.43 0 0 0-.232 1.622v4.294h-1.39Zm11.029-2.642 1.436.178c-.226.84-.646 1.49-1.258 1.954-.613.463-1.396.695-2.348.695-1.2 0-2.152-.368-2.858-1.104-.7-.742-1.05-1.78-1.05-3.113 0-1.38.355-2.45 1.066-3.212.71-.762 1.632-1.143 2.765-1.143 1.096 0 1.992.373 2.687 1.12.695.746 1.043 1.796 1.043 3.15 0 .083-.003.206-.008.371h-6.116c.051.901.306 1.591.764 2.07.458.479 1.03.718 1.715.718.509 0 .944-.134 1.305-.401.36-.268.646-.696.857-1.282Zm-4.564-2.247h4.579c-.061-.69-.236-1.207-.525-1.552-.443-.536-1.017-.803-1.722-.803-.638 0-1.176.213-1.614.64-.432.428-.672 1-.718 1.715Zm13.237 3.877c-.515.438-1.012.747-1.49.927a4.27 4.27 0 0 1-1.529.27c-.901 0-1.594-.219-2.078-.656-.484-.443-.726-1.007-.726-1.692 0-.401.09-.767.27-1.096.186-.335.425-.603.719-.803a3.416 3.416 0 0 1 1.004-.456 9.928 9.928 0 0 1 1.235-.209c1.123-.133 1.949-.293 2.479-.478.005-.191.008-.312.008-.363 0-.567-.131-.966-.394-1.198-.355-.314-.883-.47-1.583-.47-.654 0-1.138.115-1.452.347-.309.227-.538.63-.687 1.212l-1.359-.185c.123-.582.327-1.05.61-1.405.283-.36.692-.636 1.228-.827.535-.195 1.155-.293 1.861-.293.7 0 1.269.082 1.707.247.437.165.759.373.965.625.206.248.35.562.432.943.047.236.07.664.07 1.282v1.853c0 1.292.028 2.111.085 2.456.062.34.18.667.355.98h-1.452a2.946 2.946 0 0 1-.278-1.011Zm-.116-3.105c-.504.206-1.261.381-2.27.526-.572.082-.976.175-1.213.278a1.205 1.205 0 0 0-.741 1.112c0 .37.139.68.417.926.283.248.695.371 1.236.371a2.89 2.89 0 0 0 1.428-.347c.417-.237.724-.559.919-.966.15-.314.224-.777.224-1.39v-.51Zm3.7 4.117v-8.202h1.243v1.15c.258-.4.6-.723 1.028-.965a2.86 2.86 0 0 1 1.459-.37c.608 0 1.105.126 1.491.378.391.252.666.605.826 1.058.649-.958 1.493-1.436 2.533-1.436.814 0 1.439.226 1.877.68.437.447.656 1.14.656 2.077v5.63h-1.382v-5.167c0-.556-.047-.955-.139-1.197a1.144 1.144 0 0 0-.487-.595 1.53 1.53 0 0 0-.834-.223c-.576 0-1.055.193-1.436.579-.381.38-.572.993-.572 1.838v4.765h-1.39v-5.329c0-.618-.113-1.081-.34-1.39-.226-.31-.597-.463-1.112-.463a2.04 2.04 0 0 0-1.089.308 1.759 1.759 0 0 0-.718.904c-.149.396-.224.968-.224 1.714v4.256h-1.39Zm12.751-2.448 1.375-.217c.077.551.29.973.641 1.267.355.293.849.44 1.482.44.639 0 1.112-.129 1.421-.386.309-.263.464-.569.464-.92 0-.313-.137-.56-.41-.74-.19-.124-.664-.281-1.421-.472-1.019-.257-1.727-.478-2.123-.664-.392-.19-.69-.45-.896-.78a2.104 2.104 0 0 1-.301-1.104c0-.366.082-.703.247-1.012.17-.314.399-.574.687-.78.216-.16.51-.293.88-.401.376-.114.778-.17 1.205-.17.644 0 1.208.092 1.692.278.489.185.849.437 1.081.757.231.314.391.736.479 1.266l-1.36.185c-.061-.422-.242-.751-.54-.988-.294-.237-.711-.355-1.251-.355-.639 0-1.094.105-1.367.316-.273.211-.41.459-.41.742 0 .18.057.342.17.486.114.15.291.273.533.371.139.051.548.17 1.228.355.983.263 1.668.479 2.054.649.392.165.698.407.919.726.222.32.332.716.332 1.19 0 .463-.136.9-.409 1.312-.268.407-.656.723-1.166.95-.51.221-1.086.332-1.73.332-1.066 0-1.879-.221-2.44-.664-.556-.443-.912-1.1-1.066-1.97Zm87.79 2.448 4.348-11.322h1.614l4.633 11.322h-1.706l-1.321-3.43h-4.734l-1.243 3.43h-1.591Zm3.266-4.65h3.839l-1.182-3.135a31.13 31.13 0 0 1-.803-2.348 14.478 14.478 0 0 1-.61 2.163l-1.244 3.32Zm8.658 4.65V44.193h4.271c.752 0 1.326.036 1.722.108.556.093 1.022.27 1.398.533.376.258.677.62.903 1.089.232.468.348.983.348 1.545 0 .962-.306 1.778-.919 2.448-.613.664-1.72.996-3.321.996h-2.904v4.603h-1.498Zm1.498-5.94h2.927c.968 0 1.656-.18 2.062-.54.407-.36.61-.867.61-1.521 0-.474-.121-.878-.363-1.213a1.65 1.65 0 0 0-.942-.671c-.252-.067-.718-.1-1.398-.1h-2.896v4.046Zm9.438 5.94V44.193h1.498v11.322h-1.498Zm3.545-2.448 1.375-.217c.077.551.291.974.641 1.267.355.293.85.44 1.483.44.638 0 1.112-.129 1.421-.386.309-.263.463-.569.463-.919a.844.844 0 0 0-.409-.741c-.191-.124-.664-.281-1.421-.472-1.019-.257-1.727-.478-2.124-.664a2.12 2.12 0 0 1-.896-.78 2.113 2.113 0 0 1-.301-1.104c0-.366.083-.703.247-1.012.17-.314.399-.574.688-.78.216-.16.509-.293.88-.401a4.13 4.13 0 0 1 1.205-.17c.643 0 1.207.093 1.691.278.489.185.85.437 1.081.757.232.314.392.736.479 1.266l-1.359.185c-.062-.422-.242-.751-.541-.988-.293-.237-.71-.355-1.251-.355-.638 0-1.094.105-1.367.316-.273.211-.409.459-.409.742 0 .18.057.342.17.486.113.15.291.273.533.371.139.051.548.17 1.228.355.983.263 1.668.48 2.054.649.391.165.698.407.919.726.221.32.332.716.332 1.19 0 .463-.136.9-.409 1.312-.268.407-.657.724-1.166.95-.51.221-1.087.332-1.73.332-1.066 0-1.88-.221-2.441-.664-.556-.443-.911-1.1-1.066-1.97Z" fill="#2D2D2D"/><path d="m298.082 163.857 1.178-.103c.056.472.185.86.386 1.165.206.3.524.544.953.733a3.62 3.62 0 0 0 1.448.277c.476 0 .896-.071 1.261-.212.365-.142.635-.335.811-.58.18-.248.27-.519.27-.81 0-.297-.086-.554-.257-.773-.172-.223-.455-.41-.85-.56-.253-.098-.813-.251-1.679-.457-.867-.21-1.474-.407-1.822-.592-.45-.236-.787-.527-1.01-.875a2.183 2.183 0 0 1-.328-1.178c0-.476.135-.92.405-1.332.27-.416.665-.731 1.184-.946a4.506 4.506 0 0 1 1.732-.322c.699 0 1.315.114 1.847.341.536.224.948.554 1.235.992.288.437.442.933.464 1.486l-1.197.09c-.065-.596-.284-1.047-.657-1.351-.369-.305-.916-.457-1.641-.457-.755 0-1.306.139-1.654.418-.343.275-.515.607-.515.998 0 .339.122.617.367.836.24.219.867.444 1.879.676 1.017.227 1.714.427 2.092.599.549.253.954.574 1.216.965.262.386.393.832.393 1.339 0 .502-.144.976-.431 1.422-.288.442-.702.787-1.243 1.036-.536.245-1.141.367-1.814.367-.854 0-1.571-.125-2.15-.373a3.045 3.045 0 0 1-1.358-1.12 3.218 3.218 0 0 1-.515-1.699Zm16.498 2.021c.579.399 1.113.69 1.603.875l-.367.869c-.678-.245-1.354-.631-2.028-1.159a4.662 4.662 0 0 1-2.316.586 4.472 4.472 0 0 1-2.324-.618 4.149 4.149 0 0 1-1.609-1.738c-.373-.746-.559-1.587-.559-2.522 0-.931.188-1.779.566-2.543.377-.763.914-1.345 1.609-1.744.699-.399 1.48-.598 2.342-.598.871 0 1.656.208 2.356.624a4.016 4.016 0 0 1 1.596 1.738c.369.742.553 1.581.553 2.516 0 .777-.118 1.476-.354 2.098a4.407 4.407 0 0 1-1.068 1.616Zm-2.748-1.597c.721.202 1.315.502 1.783.901.733-.669 1.1-1.675 1.1-3.018 0-.764-.131-1.431-.392-2.001a2.955 2.955 0 0 0-1.139-1.326 3.054 3.054 0 0 0-1.68-.476c-.931 0-1.704.319-2.317.959-.614.635-.92 1.585-.92 2.851 0 1.227.302 2.168.907 2.825.609.656 1.386.984 2.33.984.446 0 .866-.083 1.261-.251a4.039 4.039 0 0 0-1.235-.54l.302-.908Zm5.937 2.607v-9.435h1.248v8.322h4.647v1.113h-5.895Z" fill="#9C9C9C"/><path d="M228.709 251.515v-39.836s7.684 6.681 30.27 6.681c22.587 0 30.223-7.301 30.223-7.301v40.456c-9.423 13.843-56.204 9.706-60.493 0Z" fill="#E0454C"/><path d="M228.05 279.649v-41.276s7.814 7.984 30.401 7.984c22.586 0 30.092-7.984 30.092-7.984l.638 41.276c-9.605 12.051-55.285 9.791-61.131 0Z" fill="#0070CC"/><path d="M289.912 209.164c0 5.46-13.852 9.886-31.303 9.886-17.452 0-31.304-4.426-31.304-9.886 0-5.459 13.852-9.885 31.304-9.885 17.451 0 31.303 4.426 31.303 9.885Z" fill="#E0454C"/><path fill-rule="evenodd" clip-rule="evenodd" d="M286.682 211.959c1.427-1.074 1.912-2.032 1.912-2.795 0-.762-.485-1.72-1.912-2.794-1.406-1.058-3.527-2.068-6.276-2.939-5.482-1.738-13.167-2.834-21.797-2.834-8.631 0-16.316 1.096-21.798 2.834-2.749.871-4.87 1.881-6.276 2.939-1.427 1.074-1.912 2.032-1.912 2.794 0 .763.485 1.721 1.912 2.795 1.406 1.058 3.527 2.068 6.276 2.939 5.482 1.737 13.167 2.834 21.798 2.834 8.63 0 16.315-1.097 21.797-2.834 2.749-.871 4.87-1.881 6.276-2.939Zm-28.073 7.091c17.451 0 31.303-4.426 31.303-9.886 0-5.459-13.852-9.885-31.303-9.885-17.452 0-31.304 4.426-31.304 9.885 0 5.46 13.852 9.886 31.304 9.886Z" fill="#2D2D2D"/><path fill-rule="evenodd" clip-rule="evenodd" d="m227.536 279.196-.231-70.688 1.318-.006.231 70.688-1.318.006Zm61.058.483v-71.174h1.318v71.174h-1.318Z" fill="#2D2D2D"/><path fill-rule="evenodd" clip-rule="evenodd" d="M237.341 284.736c5.451 1.694 13.021 2.751 21.412 2.751 8.391 0 15.962-1.057 21.412-2.751 2.73-.848 4.89-1.844 6.354-2.919 1.478-1.086 2.133-2.163 2.133-3.165h1.318c0 1.62-1.055 3.041-2.67 4.227-1.629 1.196-3.943 2.246-6.744 3.116-5.609 1.742-13.317 2.81-21.803 2.81-8.485 0-16.194-1.068-21.803-2.81-2.8-.87-5.115-1.92-6.743-3.116-1.615-1.186-2.671-2.607-2.671-4.227h1.318c0 1.002.655 2.079 2.133 3.165 1.464 1.075 3.625 2.071 6.354 2.919Zm0-42.177c5.451 1.694 13.021 2.751 21.412 2.751 8.391 0 15.962-1.057 21.412-2.751 2.73-.848 4.89-1.844 6.354-2.919 1.478-1.085 2.133-2.162 2.133-3.164h1.318c0 1.62-1.055 3.04-2.67 4.226-1.629 1.196-3.943 2.246-6.744 3.116-5.609 1.743-13.317 2.81-21.803 2.81-8.485 0-16.194-1.067-21.803-2.81-2.8-.87-5.115-1.92-6.743-3.116-1.615-1.186-2.671-2.606-2.671-4.226h1.318c0 1.002.655 2.079 2.133 3.164 1.464 1.075 3.625 2.071 6.354 2.919Z" fill="#2D2D2D"/><path d="M235.996 234.866v-7.548h1.503l1.787 5.344c.165.498.285.87.36 1.117.086-.274.22-.677.402-1.209l1.807-5.252h1.344v7.548h-.963v-6.317l-2.193 6.317h-.901l-2.183-6.426v6.426h-.963Zm8.967 0v-7.548h5.457v.891h-4.458v2.311h4.175v.886h-4.175v2.569h4.633v.891h-5.632Zm7.113 0v-7.548h1.503l1.787 5.344c.165.498.285.87.36 1.117.086-.274.22-.677.402-1.209l1.807-5.252h1.344v7.548h-.963v-6.317l-2.193 6.317h-.901l-2.183-6.426v6.426h-.963Zm8.642-3.676c0-1.253.337-2.233 1.009-2.94.673-.711 1.542-1.066 2.606-1.066.696 0 1.325.167 1.884.5.559.333.985.798 1.277 1.395.295.594.443 1.268.443 2.023 0 .766-.155 1.45-.464 2.055a3.173 3.173 0 0 1-1.313 1.374 3.765 3.765 0 0 1-1.833.464c-.71 0-1.345-.172-1.904-.515a3.313 3.313 0 0 1-1.272-1.406 4.265 4.265 0 0 1-.433-1.884Zm1.03.015c0 .91.244 1.627.731 2.152.491.522 1.105.783 1.843.783.752 0 1.37-.264 1.854-.793.487-.529.731-1.279.731-2.25 0-.614-.105-1.15-.314-1.606a2.36 2.36 0 0 0-.911-1.066 2.45 2.45 0 0 0-1.344-.381 2.56 2.56 0 0 0-1.828.731c-.508.484-.762 1.294-.762 2.43Zm7.628 3.661v-7.548h3.347c.672 0 1.184.069 1.534.206.35.134.63.372.839.716.21.343.314.722.314 1.137 0 .536-.173.987-.52 1.355-.346.367-.882.6-1.606.7.264.127.465.252.602.376.292.267.568.602.829 1.004l1.313 2.054h-1.256l-.999-1.57a14.05 14.05 0 0 0-.721-1.04c-.189-.241-.358-.409-.51-.505a1.465 1.465 0 0 0-.453-.201 2.997 2.997 0 0 0-.556-.036h-1.158v3.352h-.999Zm.999-4.217h2.147c.456 0 .813-.046 1.071-.139.257-.096.453-.247.587-.453.134-.209.201-.436.201-.68 0-.356-.131-.65-.392-.88-.257-.23-.666-.345-1.225-.345h-2.389v2.497Zm8.668 4.217v-3.197l-2.909-4.351h1.215l1.488 2.276c.275.425.53.851.767 1.277.227-.395.501-.84.824-1.334l1.462-2.219h1.164l-3.012 4.351v3.197h-.999Zm-32.472 41.518v-7.548h2.6c.587 0 1.035.036 1.344.108.432.1.801.28 1.107.541.398.336.695.767.891 1.292.199.522.298 1.119.298 1.792a5.27 5.27 0 0 1-.201 1.524c-.133.442-.305.81-.514 1.101-.21.289-.44.517-.69.685-.247.165-.548.29-.901.376-.35.086-.754.129-1.21.129h-2.724Zm.999-.891h1.612c.497 0 .887-.046 1.168-.139a1.68 1.68 0 0 0 .68-.391c.237-.237.42-.555.551-.953.134-.401.201-.887.201-1.457 0-.789-.131-1.395-.392-1.817-.257-.426-.571-.711-.942-.855-.268-.103-.698-.154-1.292-.154h-1.586v5.766Zm6.923.891v-7.548h.999v7.548h-.999Zm2.557-2.425.942-.083c.044.378.147.688.309.932.164.24.418.436.762.587.343.148.729.221 1.158.221.381 0 .717-.056 1.009-.169.292-.114.508-.268.649-.464.144-.199.216-.415.216-.648a.973.973 0 0 0-.206-.618c-.137-.179-.364-.328-.679-.448-.203-.079-.651-.201-1.344-.366-.694-.168-1.179-.326-1.457-.473-.361-.189-.63-.423-.809-.701a1.745 1.745 0 0 1-.262-.942c0-.381.108-.736.324-1.066.216-.333.532-.585.948-.756a3.584 3.584 0 0 1 1.384-.258c.56 0 1.053.091 1.478.273.429.179.759.443.989.793.23.35.353.746.37 1.189l-.957.072c-.052-.477-.227-.837-.525-1.081-.296-.244-.733-.365-1.313-.365-.604 0-1.045.111-1.323.334-.275.22-.412.486-.412.798a.86.86 0 0 0 .293.67c.192.175.693.355 1.503.54.814.182 1.372.342 1.674.479.439.202.763.46.973.772.209.309.314.666.314 1.071 0 .402-.115.781-.345 1.138-.23.353-.561.63-.994.829a3.456 3.456 0 0 1-1.452.293c-.683 0-1.256-.099-1.719-.298a2.435 2.435 0 0 1-1.087-.896 2.576 2.576 0 0 1-.411-1.359Zm7.463 2.425v-7.548h.999v3.743l3.748-3.743h1.354l-3.166 3.058 3.305 4.49h-1.318l-2.688-3.821-1.235 1.205v2.616h-.999Z" fill="#fff"/><path d="M333.718 251.515v-39.836s7.683 6.681 30.269 6.681c22.587 0 30.223-7.301 30.223-7.301v40.456c-9.423 13.843-56.204 9.706-60.492 0Z" fill="#E0454C"/><path d="M333.059 279.649v-41.276s7.813 7.984 30.4 7.984c22.586 0 30.092-7.984 30.092-7.984l.638 41.276c-9.605 12.051-55.285 9.791-61.13 0Z" fill="#0070CC"/><path d="M394.92 209.164c0 5.46-13.852 9.886-31.303 9.886-17.452 0-31.303-4.426-31.303-9.886 0-5.459 13.851-9.885 31.303-9.885 17.451 0 31.303 4.426 31.303 9.885Z" fill="#E0454C"/><path fill-rule="evenodd" clip-rule="evenodd" d="M391.69 211.959c1.427-1.074 1.912-2.032 1.912-2.795 0-.762-.485-1.72-1.912-2.794-1.406-1.058-3.527-2.068-6.276-2.939-5.482-1.738-13.167-2.834-21.797-2.834-8.631 0-16.315 1.096-21.798 2.834-2.749.871-4.87 1.881-6.276 2.939-1.427 1.074-1.911 2.032-1.911 2.794 0 .763.484 1.721 1.911 2.795 1.406 1.058 3.527 2.068 6.276 2.939 5.483 1.737 13.167 2.834 21.798 2.834 8.63 0 16.315-1.097 21.797-2.834 2.749-.871 4.87-1.881 6.276-2.939Zm-28.073 7.091c17.451 0 31.303-4.426 31.303-9.886 0-5.459-13.852-9.885-31.303-9.885-17.452 0-31.303 4.426-31.303 9.885 0 5.46 13.851 9.886 31.303 9.886Z" fill="#2D2D2D"/><path fill-rule="evenodd" clip-rule="evenodd" d="m332.545 279.196-.231-70.688 1.318-.006.231 70.688-1.318.006Zm61.057.483v-71.174h1.318v71.174h-1.318Z" fill="#2D2D2D"/><path fill-rule="evenodd" clip-rule="evenodd" d="M342.349 284.736c5.451 1.694 13.022 2.751 21.412 2.751 8.391 0 15.962-1.057 21.413-2.751 2.729-.848 4.89-1.844 6.354-2.919 1.477-1.086 2.132-2.163 2.132-3.165h1.318c0 1.62-1.055 3.041-2.67 4.227-1.629 1.196-3.943 2.246-6.743 3.116-5.609 1.742-13.318 2.81-21.804 2.81-8.485 0-16.194-1.068-21.803-2.81-2.8-.87-5.115-1.92-6.743-3.116-1.615-1.186-2.67-2.607-2.67-4.227h1.318c0 1.002.655 2.079 2.132 3.165 1.464 1.075 3.625 2.071 6.354 2.919Zm0-42.177c5.451 1.694 13.022 2.751 21.412 2.751 8.391 0 15.962-1.057 21.413-2.751 2.729-.848 4.89-1.844 6.354-2.919 1.477-1.085 2.132-2.162 2.132-3.164h1.318c0 1.62-1.055 3.04-2.67 4.226-1.629 1.196-3.943 2.246-6.743 3.116-5.609 1.743-13.318 2.81-21.804 2.81-8.485 0-16.194-1.067-21.803-2.81-2.8-.87-5.114-1.92-6.743-3.116-1.615-1.186-2.67-2.606-2.67-4.226h1.318c0 1.002.655 2.079 2.132 3.164 1.464 1.075 3.625 2.071 6.354 2.919Z" fill="#2D2D2D"/><path d="M341.004 234.866v-7.548h1.504l1.786 5.344c.165.498.285.87.361 1.117.086-.274.219-.677.401-1.209l1.807-5.252h1.344v7.548h-.963v-6.317l-2.193 6.317h-.901l-2.183-6.426v6.426h-.963Zm8.967 0v-7.548h5.458v.891h-4.459v2.311h4.175v.886h-4.175v2.569h4.634v.891h-5.633Zm7.113 0v-7.548h1.504l1.786 5.344c.165.498.285.87.361 1.117.085-.274.219-.677.401-1.209l1.807-5.252h1.344v7.548h-.963v-6.317l-2.193 6.317h-.901l-2.183-6.426v6.426h-.963Zm8.643-3.676c0-1.253.336-2.233 1.009-2.94.672-.711 1.541-1.066 2.605-1.066a3.61 3.61 0 0 1 1.884.5c.56.333.985.798 1.277 1.395.295.594.443 1.268.443 2.023 0 .766-.155 1.45-.463 2.055a3.179 3.179 0 0 1-1.313 1.374 3.771 3.771 0 0 1-1.833.464c-.711 0-1.346-.172-1.905-.515a3.313 3.313 0 0 1-1.272-1.406 4.264 4.264 0 0 1-.432-1.884Zm1.029.015c0 .91.244 1.627.731 2.152.491.522 1.106.783 1.844.783.751 0 1.369-.264 1.853-.793.487-.529.731-1.279.731-2.25 0-.614-.105-1.15-.314-1.606a2.36 2.36 0 0 0-.911-1.066 2.445 2.445 0 0 0-1.344-.381c-.707 0-1.316.244-1.828.731-.508.484-.762 1.294-.762 2.43Zm7.628 3.661v-7.548h3.347c.673 0 1.184.069 1.534.206.35.134.63.372.839.716.21.343.314.722.314 1.137 0 .536-.173.987-.52 1.355-.346.367-.882.6-1.606.7.264.127.465.252.603.376.291.267.568.602.828 1.004l1.313 2.054h-1.256l-.999-1.57a13.75 13.75 0 0 0-.721-1.04c-.188-.241-.358-.409-.509-.505a1.486 1.486 0 0 0-.453-.201 3.012 3.012 0 0 0-.556-.036h-1.159v3.352h-.999Zm.999-4.217h2.147c.457 0 .814-.046 1.071-.139.257-.096.453-.247.587-.453.134-.209.201-.436.201-.68 0-.356-.131-.65-.391-.88-.258-.23-.666-.345-1.226-.345h-2.389v2.497Zm8.668 4.217v-3.197l-2.909-4.351h1.215l1.488 2.276c.275.425.531.851.767 1.277.227-.395.502-.84.824-1.334l1.462-2.219h1.164l-3.012 4.351v3.197h-.999Zm-32.472 41.518v-7.548h2.601c.586 0 1.034.036 1.343.108.433.1.802.28 1.107.541.398.336.695.767.891 1.292.199.522.299 1.119.299 1.792a5.27 5.27 0 0 1-.201 1.524c-.134.442-.306.81-.515 1.101a2.746 2.746 0 0 1-.69.685c-.247.165-.547.29-.901.376-.35.086-.753.129-1.21.129h-2.724Zm.999-.891h1.612c.497 0 .887-.046 1.169-.139.284-.093.511-.223.679-.391.237-.237.421-.555.551-.953.134-.401.201-.887.201-1.457 0-.789-.131-1.395-.391-1.817-.258-.426-.572-.711-.943-.855-.267-.103-.698-.154-1.292-.154h-1.586v5.766Zm6.923.891v-7.548h.999v7.548h-.999Zm2.557-2.425.942-.083c.045.378.148.688.309.932.165.24.419.436.762.587.343.148.729.221 1.158.221.381 0 .718-.056 1.009-.169.292-.114.508-.268.649-.464.144-.199.216-.415.216-.648a.968.968 0 0 0-.206-.618c-.137-.179-.363-.328-.679-.448-.203-.079-.651-.201-1.344-.366-.693-.168-1.179-.326-1.457-.473-.36-.189-.63-.423-.808-.701a1.746 1.746 0 0 1-.263-.942c0-.381.108-.736.324-1.066.217-.333.532-.585.948-.756a3.586 3.586 0 0 1 1.385-.258c.559 0 1.052.091 1.477.273.429.179.759.443.989.793.23.35.353.746.371 1.189l-.958.072c-.052-.477-.227-.837-.525-1.081-.295-.244-.733-.365-1.313-.365-.604 0-1.045.111-1.323.334-.275.22-.412.486-.412.798 0 .271.098.494.293.67.193.175.694.355 1.504.54.813.182 1.371.342 1.673.479.439.202.764.46.973.772.209.309.314.666.314 1.071 0 .402-.115.781-.345 1.138-.23.353-.561.63-.993.829-.43.196-.913.293-1.452.293-.683 0-1.257-.099-1.72-.298a2.427 2.427 0 0 1-1.086-.896 2.577 2.577 0 0 1-.412-1.359Zm7.463 2.425v-7.548h.999v3.743l3.748-3.743h1.354l-3.166 3.058 3.305 4.49h-1.318l-2.687-3.821-1.236 1.205v2.616h-.999Z" fill="#fff"/><path d="M352.138 296.194s-6.919 4.284-.398 8.537c1.255.828 5.804 3.132 5.675 5.263 0 0 2.758-4.142-1.274-6.748-4.142-2.667-5.177-5.516-4.003-7.052Z" fill="#ED1C24"/><path d="M349.729 304.377s-2.469 3.799 2.39 4.577c.478.06 3.992.434 4.908 1.606 0 0-.08-2.021-2.947-3.213-2.857-1.192-4.032-1.485-4.351-2.97Zm9.558-3.99c-2.967-3.152-3.793-5.102-2.519-7.628 0 0-8.85 3.455-.109 9.588 3.126 2.192 2.608 4.435 2.608 4.515.488-.515 2.987-3.323.02-6.475Z" fill="#ED1C24"/><path d="M364.195 307.986v-7.548h1.024l3.965 5.926v-5.926h.957v7.548h-1.024l-3.965-5.931v5.931h-.957Zm7.458-3.676c0-1.253.336-2.233 1.009-2.94.673-.71 1.541-1.066 2.605-1.066a3.61 3.61 0 0 1 1.884.5c.56.333.986.798 1.277 1.395.295.594.443 1.268.443 2.023 0 .766-.154 1.451-.463 2.055a3.179 3.179 0 0 1-1.313 1.374 3.768 3.768 0 0 1-1.833.464c-.711 0-1.346-.172-1.905-.515a3.32 3.32 0 0 1-1.272-1.406 4.26 4.26 0 0 1-.432-1.884Zm1.03.015c0 .91.243 1.627.731 2.153.49.521 1.105.782 1.843.782.751 0 1.369-.264 1.853-.793.488-.528.731-1.278.731-2.25 0-.614-.104-1.15-.314-1.606a2.354 2.354 0 0 0-.911-1.066 2.445 2.445 0 0 0-1.344-.381c-.707 0-1.316.244-1.827.731-.508.484-.762 1.294-.762 2.43Zm7.612 3.661v-7.548h2.6c.587 0 1.035.036 1.344.108.432.1.801.28 1.107.541.398.336.695.767.891 1.292.199.522.298 1.119.298 1.792a5.27 5.27 0 0 1-.201 1.524c-.133.443-.305.81-.514 1.102-.21.288-.44.516-.69.685-.248.164-.548.29-.901.375-.35.086-.754.129-1.21.129h-2.724Zm.999-.891h1.611c.498 0 .888-.046 1.169-.139.285-.092.512-.223.68-.391.237-.237.42-.554.551-.952.134-.402.2-.888.2-1.457 0-.79-.13-1.396-.391-1.818-.257-.425-.571-.71-.942-.855-.268-.103-.698-.154-1.292-.154h-1.586v5.766Zm6.773.891v-7.548h5.458v.891h-4.459v2.312h4.176v.885h-4.176v2.569h4.634v.891h-5.633Z" fill="#2D2D2D"/><path d="M230.832 296.194s-6.92 4.284-.399 8.537c1.255.828 5.805 3.132 5.675 5.263 0 0 2.758-4.142-1.274-6.748-4.142-2.667-5.177-5.516-4.002-7.052Z" fill="#ED1C24"/><path d="M228.422 304.377s-2.469 3.799 2.39 4.577c.478.06 3.992.434 4.908 1.606 0 0-.08-2.021-2.947-3.213-2.857-1.192-4.032-1.485-4.351-2.97Zm9.558-3.99c-2.967-3.152-3.793-5.102-2.519-7.628 0 0-8.85 3.455-.109 9.588 3.126 2.192 2.608 4.435 2.608 4.515.488-.515 2.987-3.323.02-6.475Z" fill="#ED1C24"/><path d="M242.888 307.986v-7.548h1.024l3.965 5.926v-5.926h.957v7.548h-1.024l-3.965-5.931v5.931h-.957Zm7.458-3.676c0-1.253.336-2.233 1.009-2.94.673-.71 1.541-1.066 2.605-1.066.697 0 1.325.167 1.885.5a3.24 3.24 0 0 1 1.276 1.395c.296.594.443 1.268.443 2.023 0 .766-.154 1.451-.463 2.055a3.179 3.179 0 0 1-1.313 1.374 3.765 3.765 0 0 1-1.833.464c-.71 0-1.345-.172-1.905-.515a3.32 3.32 0 0 1-1.272-1.406 4.26 4.26 0 0 1-.432-1.884Zm1.03.015c0 .91.243 1.627.731 2.153.491.521 1.105.782 1.843.782.752 0 1.369-.264 1.853-.793.488-.528.731-1.278.731-2.25 0-.614-.104-1.15-.314-1.606a2.354 2.354 0 0 0-.911-1.066 2.445 2.445 0 0 0-1.344-.381c-.707 0-1.316.244-1.827.731-.508.484-.762 1.294-.762 2.43Zm7.612 3.661v-7.548h2.6c.587 0 1.035.036 1.344.108.433.1.801.28 1.107.541.398.336.695.767.891 1.292.199.522.298 1.119.298 1.792a5.27 5.27 0 0 1-.201 1.524c-.133.443-.305.81-.514 1.102-.21.288-.44.516-.69.685-.247.164-.548.29-.901.375-.35.086-.754.129-1.21.129h-2.724Zm.999-.891h1.612c.497 0 .887-.046 1.168-.139.285-.092.512-.223.68-.391.237-.237.42-.554.551-.952.134-.402.201-.888.201-1.457 0-.79-.131-1.396-.392-1.818-.257-.425-.571-.71-.942-.855-.268-.103-.698-.154-1.292-.154h-1.586v5.766Zm6.773.891v-7.548h5.458v.891h-4.459v2.312h4.176v.885h-4.176v2.569h4.634v.891h-5.633Z" fill="#2D2D2D"/><path d="M291.461 315.964s-6.919 4.284-.398 8.537c1.254.829 5.804 3.132 5.674 5.264 0 0 2.758-4.143-1.274-6.749-4.142-2.667-5.177-5.516-4.002-7.052Z" fill="#ED1C24"/><path d="M289.052 324.148s-2.469 3.798 2.389 4.576c.478.061 3.992.434 4.908 1.606 0 0-.08-2.02-2.947-3.212-2.857-1.192-4.032-1.485-4.35-2.97Zm9.557-3.991c-2.967-3.152-3.793-5.102-2.519-7.627 0 0-8.85 3.455-.109 9.587 3.126 2.192 2.608 4.435 2.608 4.516.488-.515 2.987-3.324.02-6.476Z" fill="#ED1C24"/><path d="M303.517 327.756v-7.547h1.024l3.965 5.926v-5.926h.957v7.547h-1.024l-3.964-5.931v5.931h-.958Zm7.458-3.676c0-1.252.336-2.232 1.009-2.939.673-.711 1.541-1.066 2.605-1.066.697 0 1.325.166 1.885.499.559.333.985.798 1.277 1.395.295.594.442 1.269.442 2.024 0 .765-.154 1.45-.463 2.054a3.187 3.187 0 0 1-1.313 1.375 3.765 3.765 0 0 1-1.833.463c-.71 0-1.345-.171-1.905-.515a3.309 3.309 0 0 1-1.271-1.405 4.252 4.252 0 0 1-.433-1.885Zm1.03.016c0 .909.243 1.627.731 2.152.491.522 1.105.783 1.843.783.752 0 1.37-.265 1.853-.793.488-.529.732-1.279.732-2.25 0-.615-.105-1.15-.314-1.607a2.349 2.349 0 0 0-.912-1.065 2.445 2.445 0 0 0-1.344-.381c-.707 0-1.316.243-1.827.731-.508.484-.762 1.294-.762 2.43Zm7.612 3.66v-7.547h2.6c.587 0 1.035.036 1.344.108.433.099.802.28 1.107.54.398.337.695.768.891 1.293.199.521.298 1.119.298 1.791 0 .574-.067 1.082-.2 1.524a3.75 3.75 0 0 1-.515 1.102c-.21.288-.44.517-.69.685-.247.165-.548.29-.901.376-.35.086-.754.128-1.21.128h-2.724Zm.999-.89h1.612c.497 0 .887-.047 1.168-.139a1.67 1.67 0 0 0 .68-.392c.237-.236.42-.554.551-.952.134-.402.201-.887.201-1.457 0-.79-.131-1.395-.392-1.817-.257-.426-.571-.711-.942-.855-.267-.103-.698-.155-1.292-.155h-1.586v5.767Zm6.774.89v-7.547h5.457v.89h-4.459v2.312h4.176v.886h-4.176v2.569h4.634v.89h-5.632Z" fill="#2D2D2D"/><path fill-rule="evenodd" clip-rule="evenodd" d="M141.963 146.459v-26.361h1.318v26.361c0 32.392 26.26 58.652 58.652 58.652h11.59l-3.069-3.069a.658.658 0 1 1 .932-.932l4.194 4.194a.66.66 0 0 1 0 .932l-4.194 4.194a.66.66 0 0 1-.932-.932l3.069-3.069h-11.59c-33.12 0-59.97-26.85-59.97-59.97Zm341.369 0v-26.361h-1.318v26.361c0 32.392-26.26 58.652-58.652 58.652h-11.59l3.069-3.069a.658.658 0 1 0-.932-.932l-4.194 4.194a.66.66 0 0 0 0 .932l4.194 4.194a.66.66 0 0 0 .932-.932l-3.069-3.069h11.59c33.12 0 59.97-26.85 59.97-59.97Zm-173.321 48.493v-18.838h1.319v18.838l3.068-3.069a.66.66 0 0 1 .932.932l-4.193 4.194a.658.658 0 0 1-.932 0l-4.194-4.194a.658.658 0 1 1 .932-.932l3.068 3.069Zm.001-49.152v-25.702h1.318V145.8h-1.318Z" fill="#2D2D2D"/><path d="M43.77 145.799h134.44v34.269H43.77v-34.269Zm409.906 0h134.439v34.269H453.676v-34.269Z" fill="#F6F6F6"/><path d="m51.519 162.921 1.248.315c-.261 1.026-.733 1.809-1.415 2.349-.678.537-1.508.805-2.491.805-1.017 0-1.845-.206-2.484-.618-.635-.416-1.12-1.017-1.455-1.802a6.452 6.452 0 0 1-.495-2.529c0-.983.187-1.839.56-2.568a3.86 3.86 0 0 1 1.602-1.667 4.678 4.678 0 0 1 2.291-.573c.944 0 1.738.241 2.381.721.644.481 1.092 1.156 1.346 2.027l-1.23.29c-.219-.687-.536-1.186-.952-1.5-.416-.313-.94-.469-1.57-.469-.725 0-1.333.173-1.822.521a2.755 2.755 0 0 0-1.023 1.403 5.601 5.601 0 0 0-.296 1.808c0 .803.116 1.504.348 2.105.236.596.6 1.042 1.094 1.338a3.06 3.06 0 0 0 1.602.444c.7 0 1.291-.201 1.776-.604.485-.404.813-1.002.985-1.796Zm2.346-.109c0-1.266.351-2.204 1.055-2.813.588-.506 1.304-.759 2.15-.759.94 0 1.707.309 2.303.926.597.614.895 1.464.895 2.549 0 .88-.133 1.572-.399 2.079a2.781 2.781 0 0 1-1.152 1.171 3.334 3.334 0 0 1-1.647.418c-.957 0-1.732-.306-2.324-.92-.588-.613-.881-1.497-.881-2.651Zm1.19 0c0 .875.191 1.531.573 1.969.382.433.862.65 1.442.65.575 0 1.053-.219 1.435-.657.382-.437.572-1.104.572-2.001 0-.845-.193-1.485-.579-1.918a1.817 1.817 0 0 0-1.428-.656c-.58 0-1.06.216-1.442.65-.382.433-.573 1.087-.573 1.963Zm6.709 3.417v-6.835H62.8v.959c.215-.335.5-.603.856-.804a2.385 2.385 0 0 1 1.217-.309c.506 0 .92.105 1.242.315.326.21.555.504.688.882.541-.798 1.245-1.197 2.111-1.197.678 0 1.2.189 1.564.566.365.373.547.95.547 1.731v4.692h-1.152v-4.306c0-.463-.038-.795-.116-.997a.954.954 0 0 0-.405-.496 1.279 1.279 0 0 0-.695-.186c-.48 0-.88.161-1.197.482-.318.318-.476.828-.476 1.532v3.971h-1.159v-4.441c0-.515-.094-.901-.283-1.158-.189-.258-.498-.386-.927-.386-.326 0-.628.086-.907.257a1.468 1.468 0 0 0-.599.753c-.124.33-.186.807-.186 1.429v3.546h-1.159Zm11.111 2.619v-9.454h1.056v.888c.249-.347.53-.607.843-.778.313-.176.693-.264 1.139-.264.584 0 1.098.15 1.544.45.447.301.784.725 1.01 1.275a4.6 4.6 0 0 1 .342 1.795c0 .699-.127 1.33-.38 1.892-.249.558-.613.987-1.094 1.287a2.808 2.808 0 0 1-1.506.444c-.386 0-.733-.081-1.042-.244a2.376 2.376 0 0 1-.753-.618v3.327h-1.159Zm1.05-5.998c0 .88.177 1.53.534 1.95.356.421.787.631 1.293.631.515 0 .955-.217 1.32-.65.368-.438.553-1.114.553-2.027 0-.871-.18-1.523-.54-1.957-.357-.433-.784-.65-1.281-.65-.494 0-.931.232-1.313.695-.378.459-.567 1.129-.567 2.008Zm10.898 3.379v-1.004c-.532.772-1.255 1.158-2.169 1.158-.403 0-.78-.077-1.132-.231-.348-.155-.608-.348-.78-.58a2.24 2.24 0 0 1-.353-.862c-.047-.227-.071-.588-.071-1.081v-4.235h1.159v3.791c0 .605.023 1.012.07 1.223.073.304.228.544.464.72.236.172.527.258.875.258.347 0 .674-.088.978-.264.305-.18.52-.423.644-.727.128-.309.193-.755.193-1.339v-3.662h1.158v6.835h-1.036Zm5.518-1.036.168 1.023a4.272 4.272 0 0 1-.876.103c-.42 0-.746-.067-.978-.2a1.118 1.118 0 0 1-.489-.521c-.094-.219-.141-.676-.141-1.371v-3.932h-.85v-.901h.85v-1.692l1.152-.695v2.387h1.164v.901h-1.164v3.997c0 .33.019.542.057.637a.51.51 0 0 0 .2.225.787.787 0 0 0 .399.084c.129 0 .298-.015.508-.045Zm5.95-1.165 1.197.148c-.189.699-.538 1.242-1.049 1.628-.51.386-1.163.579-1.956.579-1 0-1.794-.306-2.382-.92-.583-.618-.875-1.482-.875-2.594 0-1.149.296-2.042.888-2.677.592-.635 1.36-.952 2.304-.952.914 0 1.66.311 2.24.933.58.622.869 1.497.869 2.626 0 .068-.002.171-.007.309h-5.097c.043.75.256 1.325.637 1.724.382.399.858.599 1.43.599.424 0 .786-.112 1.087-.335.3-.223.538-.579.714-1.068Zm-3.803-1.873h3.816c-.052-.575-.197-1.006-.438-1.293a1.774 1.774 0 0 0-1.435-.67c-.532 0-.98.178-1.345.534-.36.356-.56.833-.598 1.429Zm15.786 2.961a4.001 4.001 0 0 1-1.248.958 3.404 3.404 0 0 1-1.461.316c-.966 0-1.732-.326-2.298-.978-.459-.532-.688-1.127-.688-1.783 0-.584.186-1.109.559-1.577.378-.472.94-.886 1.687-1.242-.425-.489-.708-.886-.85-1.191a2.077 2.077 0 0 1-.212-.881c0-.567.221-1.058.663-1.474.446-.42 1.006-.631 1.679-.631.644 0 1.169.198 1.577.592a1.9 1.9 0 0 1 .618 1.423c0 .896-.594 1.662-1.783 2.297l1.693 2.156c.193-.377.343-.815.45-1.313l1.204.258c-.206.823-.485 1.501-.837 2.033a6.711 6.711 0 0 0 1.474 1.448l-.779.921c-.468-.301-.95-.745-1.448-1.332Zm-2.355-4.917c.502-.296.826-.556.971-.779.151-.223.226-.47.226-.74 0-.322-.103-.584-.309-.785a1.02 1.02 0 0 0-.76-.309c-.313 0-.575.101-.785.302a.997.997 0 0 0-.309.74c0 .146.037.301.11.464.077.158.191.328.341.508l.515.599Zm1.628 4.003-2.124-2.633c-.626.374-1.049.721-1.268 1.043-.219.318-.328.633-.328.946 0 .382.152.779.457 1.191.305.412.736.618 1.294.618.347 0 .705-.108 1.074-.322.374-.219.672-.5.895-.843Zm8.166 2.027v-9.435h1.88l2.233 6.68c.206.623.356 1.088.45 1.397.108-.343.275-.847.502-1.512l2.259-6.565h1.68v9.435h-1.204v-7.897l-2.741 7.897h-1.126l-2.729-8.032v8.032h-1.204Zm15.462-.843c-.429.365-.843.622-1.242.772a3.56 3.56 0 0 1-1.274.225c-.751 0-1.328-.182-1.732-.547-.403-.369-.604-.838-.604-1.409 0-.335.075-.639.225-.914a1.92 1.92 0 0 1 .598-.669 2.85 2.85 0 0 1 .837-.38 8.32 8.32 0 0 1 1.03-.174c.935-.111 1.624-.244 2.065-.399.005-.159.007-.259.007-.302 0-.472-.109-.805-.328-.998-.296-.261-.736-.392-1.32-.392-.544 0-.948.096-1.21.289-.257.189-.448.526-.572 1.011l-1.133-.155c.103-.485.272-.875.508-1.171.236-.3.578-.53 1.024-.689.446-.163.963-.244 1.551-.244.583 0 1.057.068 1.422.206.365.137.633.311.804.521a1.8 1.8 0 0 1 .361.785c.038.197.058.554.058 1.068v1.545c0 1.077.023 1.759.071 2.047.051.283.15.555.296.817h-1.21a2.448 2.448 0 0 1-.232-.843Zm-.097-2.587c-.42.171-1.051.317-1.892.437-.476.069-.813.146-1.01.232a.999.999 0 0 0-.618.927.99.99 0 0 0 .348.772c.236.206.579.309 1.029.309.447 0 .843-.097 1.191-.29.348-.197.603-.465.766-.804.124-.262.186-.648.186-1.159v-.424Zm7.565.926 1.14.148c-.125.786-.444 1.401-.959 1.847-.511.442-1.139.663-1.886.663-.935 0-1.688-.304-2.259-.914-.566-.613-.849-1.49-.849-2.632 0-.738.122-1.383.366-1.937.245-.553.616-.967 1.114-1.242a3.309 3.309 0 0 1 1.634-.418c.743 0 1.35.189 1.822.566.472.373.774.905.907 1.596l-1.126.174c-.107-.459-.298-.805-.573-1.036a1.458 1.458 0 0 0-.984-.348c-.584 0-1.058.21-1.423.631-.364.416-.547 1.077-.547 1.982 0 .918.176 1.585.528 2.002.352.416.811.624 1.377.624.455 0 .835-.14 1.139-.418.305-.279.498-.708.579-1.288Zm2.263 2.504v-9.435h1.158v3.385c.541-.626 1.223-.939 2.046-.939.507 0 .947.101 1.32.302.373.198.639.472.798.824.163.352.244.862.244 1.532v4.331h-1.158v-4.331c0-.58-.127-1-.38-1.262-.249-.266-.603-.399-1.062-.399-.343 0-.667.09-.971.271a1.492 1.492 0 0 0-.644.72c-.129.305-.193.725-.193 1.262v3.739h-1.158Zm7.474-8.103v-1.332h1.159v1.332h-1.159Zm0 8.103v-6.835h1.159v6.835h-1.159Zm3.06 0v-6.835h1.043v.972c.502-.751 1.227-1.126 2.175-1.126.412 0 .79.075 1.133.225.347.146.607.339.779.579.171.24.291.526.36.856.043.215.064.59.064 1.126v4.203h-1.158v-4.158c0-.472-.045-.823-.135-1.055a1.09 1.09 0 0 0-.483-.56 1.493 1.493 0 0 0-.804-.212c-.494 0-.921.156-1.281.47-.356.313-.534.907-.534 1.782v3.733h-1.159Zm12.148-2.201 1.197.148c-.189.699-.539 1.242-1.049 1.628-.511.386-1.163.579-1.957.579-.999 0-1.793-.306-2.381-.92-.583-.618-.875-1.482-.875-2.594 0-1.149.296-2.042.888-2.677.592-.635 1.36-.952 2.304-.952.914 0 1.66.311 2.239.933.58.622.869 1.497.869 2.626 0 .068-.002.171-.006.309h-5.097c.043.75.255 1.325.637 1.724s.858.599 1.429.599c.424 0 .787-.112 1.087-.335.301-.223.539-.579.715-1.068Zm-3.804-1.873h3.817c-.052-.575-.198-1.006-.438-1.293a1.773 1.773 0 0 0-1.435-.67 1.85 1.85 0 0 0-1.345.534c-.361.356-.56.833-.599 1.429ZM44.736 181.386v-9.435h1.248v8.322h4.647v1.113h-5.895Zm12.05-2.201 1.197.148c-.188.7-.538 1.242-1.049 1.628-.51.387-1.162.58-1.956.58-1 0-1.793-.307-2.381-.921-.584-.617-.876-1.482-.876-2.593 0-1.15.297-2.042.889-2.677.592-.635 1.36-.953 2.304-.953.913 0 1.66.311 2.24.933.578.622.868 1.498.868 2.626 0 .069-.002.172-.006.309h-5.097c.043.751.255 1.326.637 1.725s.858.598 1.428.598c.425 0 .788-.111 1.088-.335.3-.223.538-.579.714-1.068Zm-3.803-1.873h3.816c-.051-.575-.197-1.006-.437-1.293a1.776 1.776 0 0 0-1.436-.669c-.532 0-.98.178-1.345.534-.36.356-.56.832-.598 1.428Zm11.053 3.231c-.429.365-.843.622-1.242.772-.395.151-.82.226-1.274.226-.751 0-1.328-.183-1.732-.547-.403-.369-.604-.839-.604-1.41 0-.334.075-.639.225-.914a1.92 1.92 0 0 1 .598-.669c.25-.167.528-.294.837-.38.227-.06.57-.118 1.03-.173.935-.112 1.624-.245 2.066-.399l.006-.303c0-.472-.11-.804-.328-.997-.296-.262-.736-.393-1.32-.393-.544 0-.948.096-1.21.29-.257.188-.448.525-.572 1.01l-1.133-.154c.103-.485.273-.876.508-1.172.236-.3.578-.53 1.024-.688.446-.163.963-.245 1.55-.245.584 0 1.058.069 1.423.206.365.137.633.311.804.521a1.8 1.8 0 0 1 .36.785c.04.198.059.554.059 1.069v1.544c0 1.077.023 1.759.07 2.047.052.283.15.555.297.817h-1.21a2.455 2.455 0 0 1-.232-.843Zm-.096-2.587c-.42.172-1.052.317-1.893.438-.476.068-.813.145-1.01.231a1.004 1.004 0 0 0-.618.927.99.99 0 0 0 .348.772c.236.206.579.309 1.03.309a2.41 2.41 0 0 0 1.19-.289c.348-.198.603-.466.766-.805.124-.262.187-.648.187-1.158v-.425Zm3.092 3.43v-6.835h1.042v1.037c.266-.485.51-.805.734-.959.227-.155.476-.232.746-.232.39 0 .788.124 1.191.373l-.399 1.075a1.66 1.66 0 0 0-.85-.251c-.252 0-.48.077-.682.232-.201.15-.345.36-.43.63a4.517 4.517 0 0 0-.194 1.352v3.578h-1.158Zm4.534 0v-6.835h1.042v.972c.502-.751 1.227-1.126 2.175-1.126.412 0 .79.075 1.133.225.348.146.607.339.779.579.171.241.292.526.36.856.043.215.064.59.064 1.127v4.202h-1.158v-4.157c0-.472-.045-.824-.135-1.056a1.096 1.096 0 0 0-.483-.56 1.496 1.496 0 0 0-.804-.212c-.494 0-.92.157-1.28.47-.357.313-.535.907-.535 1.782v3.733h-1.159Zm7.474-8.102v-1.333h1.16v1.333h-1.16Zm0 8.102v-6.835h1.16v6.835h-1.16Zm3.06 0v-6.835h1.043v.972c.502-.751 1.227-1.126 2.175-1.126.412 0 .79.075 1.133.225.348.146.607.339.779.579.171.241.291.526.36.856.043.215.064.59.064 1.127v4.202h-1.158v-4.157c0-.472-.045-.824-.135-1.056a1.096 1.096 0 0 0-.483-.56 1.496 1.496 0 0 0-.804-.212c-.494 0-.92.157-1.281.47-.356.313-.534.907-.534 1.782v3.733H82.1Zm7.257.567 1.126.167c.047.347.178.601.392.759.288.215.68.322 1.178.322.536 0 .95-.107 1.242-.322.292-.214.49-.515.592-.901.06-.236.088-.731.084-1.486-.506.596-1.137.894-1.892.894-.94 0-1.667-.339-2.182-1.017-.515-.678-.772-1.491-.772-2.439 0-.652.118-1.253.354-1.802.236-.553.577-.98 1.023-1.28.45-.301.978-.451 1.583-.451.807 0 1.472.326 1.995.978v-.824h1.069v5.908c0 1.064-.11 1.817-.329 2.259-.214.447-.557.798-1.03 1.056-.467.257-1.044.386-1.73.386-.816 0-1.474-.185-1.976-.554-.502-.364-.745-.916-.727-1.653Zm.959-4.106c0 .896.177 1.551.534 1.962.356.412.802.618 1.338.618a1.72 1.72 0 0 0 1.339-.611c.36-.412.54-1.056.54-1.931 0-.836-.186-1.467-.56-1.892-.368-.425-.815-.637-1.338-.637-.515 0-.953.21-1.313.631-.36.416-.54 1.036-.54 1.86Zm379.816-10.959 3.624-9.435h1.345l3.861 9.435h-1.422l-1.101-2.858h-3.945l-1.036 2.858h-1.326Zm2.723-3.874h3.198l-.985-2.613c-.3-.794-.523-1.446-.669-1.957-.12.605-.289 1.206-.508 1.802l-1.036 2.768Zm13.968.566 1.249.315c-.262 1.026-.734 1.809-1.416 2.349-.678.537-1.508.805-2.491.805-1.017 0-1.845-.206-2.484-.618-.635-.416-1.12-1.017-1.455-1.802a6.459 6.459 0 0 1-.495-2.529c0-.983.187-1.839.56-2.568a3.86 3.86 0 0 1 1.602-1.667 4.678 4.678 0 0 1 2.291-.573c.944 0 1.738.241 2.382.721.643.481 1.092 1.156 1.345 2.027l-1.23.29c-.218-.687-.536-1.186-.952-1.5-.416-.313-.94-.469-1.57-.469-.725 0-1.333.173-1.822.521a2.758 2.758 0 0 0-1.023 1.403 5.612 5.612 0 0 0-.296 1.808c0 .803.116 1.504.348 2.105.236.596.6 1.042 1.094 1.338a3.057 3.057 0 0 0 1.602.444c.699 0 1.292-.201 1.776-.605.485-.403.813-1.001.985-1.795Zm3.137 3.308v-9.435h1.249v9.435h-1.249Zm3.588 0v-9.435h3.25c.734 0 1.294.045 1.68.135a3.2 3.2 0 0 1 1.383.676c.498.42.869.959 1.114 1.615.249.653.373 1.399.373 2.24 0 .716-.084 1.351-.251 1.905-.167.553-.382 1.012-.643 1.377-.262.361-.55.646-.863.856a3.498 3.498 0 0 1-1.126.47 6.403 6.403 0 0 1-1.512.161h-3.405Zm1.249-1.114h2.014c.622 0 1.109-.057 1.461-.173.356-.116.639-.279.849-.489.296-.296.526-.693.689-1.191.167-.502.251-1.109.251-1.821 0-.987-.163-1.744-.489-2.272-.322-.532-.715-.888-1.178-1.068-.335-.129-.873-.194-1.615-.194h-1.982v7.208Zm14.364 1.114v-8.322h-3.109v-1.113h7.479v1.113h-3.122v8.322h-1.248Zm5.138 0v-6.835h1.043v1.036c.266-.485.511-.804.734-.959.227-.154.476-.231.746-.231.391 0 .788.124 1.191.373l-.399 1.075a1.65 1.65 0 0 0-.85-.251c-.253 0-.48.077-.682.231a1.23 1.23 0 0 0-.431.631 4.503 4.503 0 0 0-.193 1.352v3.578h-1.159Zm8.994-.843c-.429.364-.843.622-1.242.772-.395.15-.819.225-1.274.225-.751 0-1.328-.182-1.731-.547-.404-.369-.605-.839-.605-1.409 0-.335.075-.639.225-.914a1.92 1.92 0 0 1 .598-.669 2.85 2.85 0 0 1 .837-.38c.228-.06.571-.118 1.03-.174.935-.111 1.624-.244 2.066-.399l.006-.302c0-.472-.109-.805-.328-.998-.296-.262-.736-.392-1.319-.392-.545 0-.949.096-1.21.289-.258.189-.449.526-.573 1.011l-1.133-.155c.103-.485.273-.875.509-1.171.236-.3.577-.53 1.023-.689.446-.163.963-.244 1.551-.244.583 0 1.058.068 1.422.206.365.137.633.311.805.521.171.206.291.468.36.785.039.197.058.554.058 1.068v1.545c0 1.077.024 1.759.071 2.046.051.284.15.556.296.818h-1.21a2.47 2.47 0 0 1-.232-.843Zm-.096-2.587c-.421.171-1.051.317-1.892.437-.477.069-.813.146-1.011.232a1.004 1.004 0 0 0-.618.927.99.99 0 0 0 .348.772c.236.206.579.309 1.03.309.446 0 .843-.097 1.19-.29.348-.197.603-.465.766-.804.124-.262.187-.648.187-1.159v-.424Zm3.105 3.43v-6.835h1.042v.972c.502-.751 1.227-1.126 2.176-1.126.411 0 .789.075 1.132.225.348.146.607.339.779.579.172.24.292.526.36.856.043.215.065.59.065 1.126v4.203h-1.159v-4.158c0-.472-.045-.823-.135-1.055a1.09 1.09 0 0 0-.483-.56 1.484 1.484 0 0 0-.804-.212c-.493 0-.92.156-1.281.469-.356.314-.534.908-.534 1.783v3.733h-1.158Zm7.005-2.04 1.145-.18c.065.459.243.81.535 1.055.296.245.707.367 1.235.367.532 0 .927-.107 1.184-.322.258-.219.387-.474.387-.766a.704.704 0 0 0-.342-.618c-.158-.103-.553-.233-1.184-.392-.849-.215-1.439-.399-1.77-.554a1.757 1.757 0 0 1-.746-.65 1.757 1.757 0 0 1-.251-.92c0-.305.069-.586.206-.843.141-.262.332-.478.573-.65.18-.133.424-.245.733-.335a3.48 3.48 0 0 1 1.004-.141c.537 0 1.006.077 1.41.231.407.155.708.365.901.631.193.262.326.614.399 1.056l-1.133.154c-.051-.352-.202-.626-.45-.824-.245-.197-.593-.296-1.043-.296-.532 0-.912.088-1.139.264-.228.176-.341.382-.341.618 0 .15.047.285.141.405.095.125.243.228.444.309.116.043.457.142 1.024.296.819.219 1.39.399 1.712.541.326.137.581.339.765.605.185.266.277.596.277.991 0 .386-.114.751-.341 1.094-.223.339-.547.603-.972.792a3.592 3.592 0 0 1-1.441.276c-.888 0-1.566-.184-2.034-.553-.463-.369-.759-.916-.888-1.641Zm11.645 1.197c-.429.364-.843.622-1.242.772-.395.15-.819.225-1.274.225-.751 0-1.328-.182-1.731-.547-.404-.369-.605-.839-.605-1.409 0-.335.075-.639.225-.914a1.92 1.92 0 0 1 .598-.669 2.85 2.85 0 0 1 .837-.38 8.32 8.32 0 0 1 1.03-.174c.935-.111 1.624-.244 2.066-.399l.006-.302c0-.472-.109-.805-.328-.998-.296-.262-.736-.392-1.32-.392-.544 0-.948.096-1.209.289-.258.189-.449.526-.573 1.011l-1.133-.155c.103-.485.273-.875.509-1.171.235-.3.577-.53 1.023-.689.446-.163.963-.244 1.551-.244.583 0 1.057.068 1.422.206.365.137.633.311.805.521.171.206.291.468.36.785.039.197.058.554.058 1.068v1.545c0 1.077.023 1.759.071 2.046.051.284.15.556.296.818h-1.21a2.448 2.448 0 0 1-.232-.843Zm-.096-2.587c-.421.171-1.052.317-1.893.437-.476.069-.813.146-1.01.232a.999.999 0 0 0-.618.927.99.99 0 0 0 .348.772c.236.206.579.309 1.029.309a2.41 2.41 0 0 0 1.191-.29c.348-.197.603-.465.766-.804.124-.262.187-.648.187-1.159v-.424Zm7.565.926 1.139.148c-.125.786-.444 1.401-.959 1.847-.511.442-1.139.663-1.886.663-.935 0-1.688-.304-2.259-.914-.566-.613-.849-1.491-.849-2.632 0-.738.122-1.383.366-1.937.245-.553.616-.967 1.114-1.242a3.31 3.31 0 0 1 1.635-.418c.742 0 1.349.188 1.821.566.472.373.774.905.907 1.596l-1.126.174c-.107-.459-.298-.805-.573-1.036a1.458 1.458 0 0 0-.984-.348c-.584 0-1.058.21-1.423.631-.364.416-.547 1.077-.547 1.982 0 .918.176 1.585.528 2.002.352.416.811.624 1.377.624.455 0 .835-.14 1.139-.419.305-.278.498-.707.58-1.287Zm4.791 1.468.167 1.023a4.273 4.273 0 0 1-.875.103c-.421 0-.747-.067-.978-.2a1.114 1.114 0 0 1-.489-.521c-.095-.219-.142-.676-.142-1.371v-3.932h-.85v-.901h.85v-1.692l1.152-.695v2.387h1.165v.901h-1.165v3.997c0 .33.019.542.058.637a.51.51 0 0 0 .199.225.79.79 0 0 0 .399.084c.129 0 .299-.015.509-.045Zm1.277-7.067v-1.332h1.159v1.332h-1.159Zm0 8.103v-6.835h1.159v6.835h-1.159Zm2.629-3.418c0-1.265.352-2.203 1.055-2.812.588-.506 1.305-.759 2.15-.759.94 0 1.708.309 2.304.926.596.614.894 1.463.894 2.549 0 .879-.133 1.572-.399 2.079a2.773 2.773 0 0 1-1.152 1.171 3.333 3.333 0 0 1-1.647.418c-.957 0-1.731-.306-2.323-.92-.588-.614-.882-1.497-.882-2.652Zm1.191 0c0 .876.19 1.532.572 1.97.382.433.863.65 1.442.65.575 0 1.053-.219 1.435-.657.382-.437.573-1.104.573-2.001 0-.845-.193-1.485-.579-1.918a1.817 1.817 0 0 0-1.429-.656 1.84 1.84 0 0 0-1.442.65c-.382.433-.572 1.087-.572 1.962Zm6.709 3.418v-6.835h1.042v.972c.502-.751 1.227-1.126 2.175-1.126.412 0 .79.075 1.133.225.348.146.607.339.779.579.171.24.292.526.36.856.043.215.065.59.065 1.126v4.203h-1.159v-4.158c0-.472-.045-.823-.135-1.055a1.09 1.09 0 0 0-.483-.56 1.484 1.484 0 0 0-.804-.212c-.494 0-.92.156-1.281.469-.356.314-.534.908-.534 1.783v3.733h-1.158Zm7.005-2.04 1.145-.18c.065.459.243.81.534 1.055.296.245.708.367 1.236.367.532 0 .927-.107 1.184-.322.258-.219.386-.474.386-.766a.703.703 0 0 0-.341-.618c-.158-.103-.553-.233-1.184-.392-.849-.215-1.439-.399-1.77-.554a1.751 1.751 0 0 1-.746-.65 1.747 1.747 0 0 1-.251-.92c0-.305.068-.586.206-.843.141-.262.332-.478.573-.65.18-.133.424-.245.733-.335a3.476 3.476 0 0 1 1.004-.141c.536 0 1.006.077 1.41.231.407.155.707.365.901.631.193.262.326.614.399 1.056l-1.133.154c-.052-.352-.202-.626-.451-.824-.244-.197-.592-.296-1.042-.296-.532 0-.912.088-1.139.264-.228.176-.341.382-.341.618 0 .15.047.285.141.405.095.125.243.228.444.309.116.043.457.142 1.024.296.819.219 1.39.399 1.711.541.326.137.582.339.766.605.185.266.277.596.277.991 0 .386-.114.751-.341 1.094-.223.339-.547.603-.972.792a3.592 3.592 0 0 1-1.441.276c-.889 0-1.566-.184-2.034-.553-.464-.369-.76-.916-.888-1.641Z" fill="#9C9C9C"/><path d="M281.213 274.184v-39.836s7.684 6.681 30.27 6.681c22.587 0 30.223-7.301 30.223-7.301v40.456c-9.423 13.843-56.204 9.706-60.493 0Z" fill="#E0454C"/><path d="M280.554 302.317v-41.275s7.814 7.984 30.401 7.984c22.586 0 30.092-7.984 30.092-7.984l.638 41.275c-9.605 12.052-55.285 9.792-61.131 0Z" fill="#0070CC"/><path d="M342.416 231.833c0 5.46-13.852 9.885-31.303 9.885-17.452 0-31.303-4.425-31.303-9.885 0-5.459 13.851-9.885 31.303-9.885 17.451 0 31.303 4.426 31.303 9.885Z" fill="#E0454C"/><path fill-rule="evenodd" clip-rule="evenodd" d="M339.186 234.628c1.427-1.074 1.912-2.032 1.912-2.795 0-.762-.485-1.72-1.912-2.795-1.406-1.058-3.527-2.067-6.276-2.938-5.482-1.738-13.167-2.834-21.797-2.834-8.631 0-16.316 1.096-21.798 2.834-2.749.871-4.87 1.88-6.276 2.938-1.427 1.075-1.911 2.033-1.911 2.795 0 .763.484 1.721 1.911 2.795 1.406 1.058 3.527 2.067 6.276 2.939 5.482 1.737 13.167 2.833 21.798 2.833 8.63 0 16.315-1.096 21.797-2.833 2.749-.872 4.87-1.881 6.276-2.939Zm-28.073 7.09c17.451 0 31.303-4.425 31.303-9.885 0-5.459-13.852-9.885-31.303-9.885-17.452 0-31.303 4.426-31.303 9.885 0 5.46 13.851 9.885 31.303 9.885Z" fill="#2D2D2D"/><path fill-rule="evenodd" clip-rule="evenodd" d="m280.041 301.865-.231-70.688 1.318-.006.231 70.688-1.318.006Zm61.057.482v-71.173h1.318v71.173h-1.318Z" fill="#2D2D2D"/><path fill-rule="evenodd" clip-rule="evenodd" d="M289.845 307.405c5.451 1.693 13.021 2.751 21.412 2.751 8.391 0 15.962-1.058 21.412-2.751 2.73-.848 4.89-1.844 6.355-2.919 1.477-1.086 2.132-2.163 2.132-3.165h1.318c0 1.62-1.055 3.041-2.67 4.227-1.629 1.196-3.943 2.246-6.744 3.116-5.609 1.742-13.317 2.81-21.803 2.81-8.485 0-16.194-1.068-21.803-2.81-2.8-.87-5.115-1.92-6.743-3.116-1.615-1.186-2.67-2.607-2.67-4.227h1.318c0 1.002.655 2.079 2.132 3.165 1.464 1.075 3.625 2.071 6.354 2.919Zm0-42.177c5.451 1.694 13.021 2.751 21.412 2.751 8.391 0 15.962-1.057 21.412-2.751 2.73-.848 4.891-1.844 6.355-2.919 1.477-1.086 2.132-2.163 2.132-3.164h1.318c0 1.619-1.055 3.04-2.67 4.226-1.629 1.196-3.943 2.246-6.744 3.116-5.609 1.743-13.317 2.81-21.803 2.81-8.485 0-16.194-1.067-21.803-2.81-2.8-.87-5.115-1.92-6.743-3.116-1.615-1.186-2.67-2.607-2.67-4.226h1.318c0 1.001.655 2.078 2.132 3.164 1.464 1.075 3.625 2.071 6.354 2.919Z" fill="#2D2D2D"/><path d="M288.5 257.535v-7.548h1.504l1.786 5.344c.165.498.285.87.361 1.117.085-.274.219-.678.401-1.21l1.807-5.251h1.344v7.548h-.963v-6.318l-2.193 6.318h-.901l-2.183-6.426v6.426h-.963Zm8.967 0v-7.548h5.457v.891h-4.458v2.311h4.175v.886h-4.175v2.569h4.633v.891h-5.632Zm7.113 0v-7.548h1.504l1.786 5.344c.165.498.285.87.36 1.117.086-.274.22-.678.402-1.21l1.807-5.251h1.344v7.548h-.963v-6.318l-2.193 6.318h-.901l-2.183-6.426v6.426h-.963Zm8.642-3.676c0-1.253.337-2.233 1.01-2.94.672-.711 1.541-1.066 2.605-1.066a3.61 3.61 0 0 1 1.884.499c.56.333.985.798 1.277 1.396.295.593.443 1.268.443 2.023 0 .765-.155 1.45-.464 2.054a3.176 3.176 0 0 1-1.313 1.375 3.764 3.764 0 0 1-1.832.463c-.711 0-1.346-.171-1.905-.514a3.313 3.313 0 0 1-1.272-1.406 4.265 4.265 0 0 1-.433-1.884Zm1.03.015c0 .91.244 1.627.731 2.152.491.522 1.106.783 1.843.783.752 0 1.37-.265 1.854-.793.487-.529.731-1.279.731-2.25 0-.614-.105-1.15-.314-1.606a2.355 2.355 0 0 0-.911-1.066 2.445 2.445 0 0 0-1.344-.381c-.707 0-1.316.244-1.828.731-.508.484-.762 1.294-.762 2.43Zm7.628 3.661v-7.548h3.347c.673 0 1.184.069 1.534.206.35.134.63.372.839.715.21.344.314.723.314 1.138 0 .536-.173.987-.52 1.354-.346.368-.882.601-1.606.701.264.127.465.252.602.375.292.268.568.603.829 1.004l1.313 2.055h-1.256l-.999-1.571a14.497 14.497 0 0 0-.721-1.04c-.188-.24-.358-.408-.509-.504a1.486 1.486 0 0 0-.453-.201 3.017 3.017 0 0 0-.557-.036h-1.158v3.352h-.999Zm.999-4.217h2.147c.457 0 .813-.046 1.071-.139.257-.096.453-.247.587-.453.134-.209.201-.436.201-.68 0-.357-.131-.65-.392-.88-.257-.23-.666-.345-1.225-.345h-2.389v2.497Zm8.668 4.217v-3.198l-2.909-4.35h1.215l1.488 2.276c.275.425.531.851.767 1.276.227-.394.501-.839.824-1.333l1.462-2.219h1.164l-3.012 4.35v3.198h-.999Zm-32.472 41.517v-7.547h2.6c.587 0 1.035.036 1.344.108.433.099.802.28 1.107.54.398.337.695.768.891 1.293.199.521.298 1.119.298 1.791 0 .574-.067 1.082-.2 1.524a3.75 3.75 0 0 1-.515 1.102c-.21.288-.44.517-.69.685-.247.165-.548.29-.901.376-.35.086-.754.128-1.21.128h-2.724Zm.999-.89h1.612c.497 0 .887-.047 1.168-.139a1.67 1.67 0 0 0 .68-.392c.237-.236.42-.554.551-.952.134-.402.201-.887.201-1.457 0-.79-.131-1.395-.392-1.818-.257-.425-.571-.71-.942-.854-.268-.103-.698-.155-1.292-.155h-1.586v5.767Zm6.923.89v-7.547h.999v7.547h-.999Zm2.557-2.425.942-.082c.044.378.147.688.309.932.164.24.418.436.762.587.343.148.729.221 1.158.221.381 0 .718-.056 1.009-.17.292-.113.508-.267.649-.463.144-.199.216-.415.216-.649a.965.965 0 0 0-.206-.617c-.137-.179-.364-.328-.679-.448-.203-.079-.651-.201-1.344-.366-.693-.168-1.179-.326-1.457-.474-.361-.188-.63-.422-.808-.7a1.737 1.737 0 0 1-.263-.942c0-.381.108-.736.324-1.066.217-.333.532-.585.948-.757a3.604 3.604 0 0 1 1.385-.257c.559 0 1.052.091 1.477.273.429.178.759.443.989.793.23.35.353.746.37 1.189l-.957.072c-.052-.477-.227-.837-.525-1.081-.296-.244-.733-.366-1.313-.366-.604 0-1.045.112-1.323.335-.275.22-.412.486-.412.798a.86.86 0 0 0 .293.669c.192.175.694.356 1.504.541.813.182 1.371.341 1.673.479.439.202.764.46.973.772.209.309.314.666.314 1.071 0 .402-.115.781-.345 1.138-.23.353-.561.63-.994.829a3.471 3.471 0 0 1-1.452.293c-.683 0-1.256-.099-1.719-.298-.46-.2-.822-.498-1.086-.896a2.569 2.569 0 0 1-.412-1.36Zm7.463 2.425v-7.547h.999v3.743l3.748-3.743h1.354l-3.166 3.058 3.305 4.489h-1.318l-2.688-3.82-1.235 1.205v2.615h-.999Z" fill="#fff"/></svg>