<svg id="Capa_1" data-name="Capa 1" xmlns="http://www.w3.org/2000/svg" viewBox="0 0 300 300"><defs><style>.cls-1{fill:#fff;}</style></defs><title>Icons-Set</title><path class="cls-1" d="M138.74,124.53a18.71,18.71,0,0,0-8.23-8.23,4.72,4.72,0,0,1-2.55-4.22V98a4.72,4.72,0,0,1,2.55-4.22,18.71,18.71,0,0,0,8.23-8.23A4.71,4.71,0,0,1,143,83H157a4.71,4.71,0,0,1,4.22,2.54,18.71,18.71,0,0,0,8.23,8.23A4.72,4.72,0,0,1,172,98v14.09a4.72,4.72,0,0,1-2.55,4.22,18.71,18.71,0,0,0-8.23,8.23,4.71,4.71,0,0,1-4.22,2.54H143A4.71,4.71,0,0,1,138.74,124.53Z"/><path class="cls-1" d="M105.44,105.05a44.56,44.56,0,1,1,76.07,31.5h0a44.56,44.56,0,0,1-76.07-31.5Zm78.75,0a34.19,34.19,0,1,0-10,24.17A34,34,0,0,0,184.19,105.05Z"/><path class="cls-1" d="M170.9,189.06a29.55,29.55,0,1,0,0,41.79A29.54,29.54,0,0,0,170.9,189.06Zm-4.53,16.78-16.92,16.92a3.72,3.72,0,0,1-5.26,0l-9.9-9.9a3.72,3.72,0,0,1,5.26-5.27l7.27,7.28,14.29-14.29a3.72,3.72,0,0,1,5.26,0h0A3.72,3.72,0,0,1,166.37,205.84Z"/><path class="cls-1" d="M131.89,175.19a3.73,3.73,0,0,1-3.74-3.74V157.54a3.75,3.75,0,0,1,7.49,0v13.91A3.74,3.74,0,0,1,131.89,175.19Z"/><path class="cls-1" d="M150.33,175.19a3.74,3.74,0,0,1-3.75-3.74V157.54a3.75,3.75,0,0,1,7.5,0v13.91A3.74,3.74,0,0,1,150.33,175.19Z"/><path class="cls-1" d="M168,175.19a3.74,3.74,0,0,1-3.75-3.74V157.54a3.75,3.75,0,0,1,7.49,0v13.91A3.73,3.73,0,0,1,168,175.19Z"/></svg>