<svg id="Capa_1" data-name="Capa 1" xmlns="http://www.w3.org/2000/svg" viewBox="0 0 300 300"><defs><style>.cls-1{fill:#fff;}</style></defs><title>Icons-Set</title><path class="cls-1" d="M161.49,78.26a2.79,2.79,0,0,0-2-2.28l-2.33-.5a4.84,4.84,0,0,0-3.68.7,10.63,10.63,0,0,1-2.21,1.15,4.55,4.55,0,0,1-3.21,0,10.63,10.63,0,0,1-2.21-1.15,4.85,4.85,0,0,0-3.69-.7l-2.32.5a2.79,2.79,0,0,0-2,2.28l-1,4.67,5.67,4,7.11,1.3,7.5-1.46,5.29-3.89Z"/><path class="cls-1" d="M155.35,68a5.68,5.68,0,1,1-5.67-6.14A5.91,5.91,0,0,1,155.35,68Z"/><path class="cls-1" d="M149.68,89.61a18.78,18.78,0,1,1,18.79-18.78A18.8,18.8,0,0,1,149.68,89.61Zm0-35a16.24,16.24,0,1,0,16.24,16.24A16.26,16.26,0,0,0,149.68,54.59Z"/><path class="cls-1" d="M169.07,162.48a4.55,4.55,0,0,0-3.22-3.7l-5.06-1.1a4.76,4.76,0,0,0-3.85.82,17.64,17.64,0,0,1-5.93,2.92,4.88,4.88,0,0,1-2.28,0,17.54,17.54,0,0,1-5.93-2.92,4.76,4.76,0,0,0-3.85-.82l-5.06,1.1a4.55,4.55,0,0,0-3.22,3.7l-1.59,7.59,9.22,6.58,11.57,2.11,12.19-2.37,8.6-6.32Z"/><path class="cls-1" d="M159.08,145.71c0,5.51-4.12,10-9.21,10s-9.21-4.47-9.21-10,4.12-10,9.21-10S159.08,140.2,159.08,145.71Z"/><path class="cls-1" d="M149.87,180.92A30.53,30.53,0,1,1,180.4,150.4,30.56,30.56,0,0,1,149.87,180.92Zm0-56.91a26.39,26.39,0,1,0,26.39,26.39A26.42,26.42,0,0,0,149.87,124Z"/><path class="cls-1" d="M145.79,110v-9.21a3.9,3.9,0,1,1,7.79,0V110a3.9,3.9,0,1,1-7.79,0Z"/><path class="cls-1" d="M145.79,200.17V191a3.9,3.9,0,1,1,7.79,0v9.21a3.9,3.9,0,1,1-7.79,0Z"/><path class="cls-1" d="M82,157.69a2.8,2.8,0,0,0-2-2.28l-2.33-.51a4.83,4.83,0,0,0-3.68.71,11.79,11.79,0,0,1-2.22,1.15,4.66,4.66,0,0,1-3.21,0,11.68,11.68,0,0,1-2.21-1.15,4.84,4.84,0,0,0-3.68-.71l-2.33.51a2.79,2.79,0,0,0-2,2.28l-1,4.66,5.67,4.06,7.12,1.29,7.49-1.45,5.3-3.9Z"/><path class="cls-1" d="M75.86,147.37a5.69,5.69,0,1,1-5.67-6.14A5.92,5.92,0,0,1,75.86,147.37Z"/><path class="cls-1" d="M70.19,169A18.78,18.78,0,1,1,89,150.25,18.8,18.8,0,0,1,70.19,169Zm0-35a16.24,16.24,0,1,0,16.23,16.23A16.25,16.25,0,0,0,70.19,134Z"/><path class="cls-1" d="M190.37,146.35h9.21a3.9,3.9,0,0,1,0,7.8h-9.21a3.9,3.9,0,0,1,0-7.8Z"/><path class="cls-1" d="M100.16,146.35h9.21a3.9,3.9,0,0,1,0,7.8h-9.21a3.9,3.9,0,1,1,0-7.8Z"/><path class="cls-1" d="M241.62,157.69a2.8,2.8,0,0,0-2-2.28l-2.33-.51a4.84,4.84,0,0,0-3.68.71,11.68,11.68,0,0,1-2.21,1.15,4.66,4.66,0,0,1-3.21,0,11.79,11.79,0,0,1-2.22-1.15,4.83,4.83,0,0,0-3.68-.71l-2.33.51a2.8,2.8,0,0,0-2,2.28l-1,4.66,5.67,4.06,7.12,1.29,7.5-1.45,5.29-3.9Z"/><path class="cls-1" d="M235.48,147.37a5.69,5.69,0,1,1-5.67-6.14A5.92,5.92,0,0,1,235.48,147.37Z"/><path class="cls-1" d="M229.81,169a18.78,18.78,0,1,1,18.78-18.78A18.8,18.8,0,0,1,229.81,169Zm0-35a16.24,16.24,0,1,0,16.24,16.23A16.25,16.25,0,0,0,229.81,134Z"/><path class="cls-1" d="M161.49,236.6a2.79,2.79,0,0,0-2-2.27l-2.33-.51a4.8,4.8,0,0,0-3.68.71,11.12,11.12,0,0,1-2.21,1.14,4.55,4.55,0,0,1-3.21,0,11.12,11.12,0,0,1-2.21-1.14,4.81,4.81,0,0,0-3.69-.71l-2.32.51a2.79,2.79,0,0,0-2,2.27l-1,4.67,5.67,4,7.11,1.3,7.5-1.46,5.29-3.89Z"/><path class="cls-1" d="M155.35,226.29a5.68,5.68,0,1,1-5.67-6.14A5.91,5.91,0,0,1,155.35,226.29Z"/><path class="cls-1" d="M149.68,248a18.78,18.78,0,1,1,18.79-18.78A18.8,18.8,0,0,1,149.68,248Zm0-35a16.24,16.24,0,1,0,16.24,16.24A16.26,16.26,0,0,0,149.68,212.93Z"/></svg>