<svg id="Capa_1" data-name="Capa 1" xmlns="http://www.w3.org/2000/svg" viewBox="0 0 300 300"><defs><style>.cls-1{fill:#fff;}</style></defs><title>Icons-Set</title><path class="cls-1" d="M192.31,253.3H107.69a3.5,3.5,0,0,1-3.5-3.5V84.4a3.5,3.5,0,0,1,3.5-3.5h84.62a3.5,3.5,0,0,1,3.5,3.5V249.8A3.5,3.5,0,0,1,192.31,253.3Zm-81.12-7h77.62V87.9H111.19Z"/><path class="cls-1" d="M176.27,87.9H123.73a3.49,3.49,0,0,1-3.5-3.5V50.2a3.5,3.5,0,0,1,3.5-3.5h52.54a3.5,3.5,0,0,1,3.5,3.5V84.4A3.5,3.5,0,0,1,176.27,87.9Zm-49-7h45.54V53.7H127.23Z"/><path class="cls-1" d="M142.11,120.89H130.64a3.5,3.5,0,1,1,0-7h11.47a3.5,3.5,0,0,1,0,7Z"/><path class="cls-1" d="M169.36,120.89H157.89a3.5,3.5,0,0,1,0-7h11.47a3.5,3.5,0,0,1,0,7Z"/><path class="cls-1" d="M142.11,145.74H130.64a3.5,3.5,0,1,1,0-7h11.47a3.5,3.5,0,0,1,0,7Z"/><path class="cls-1" d="M169.36,145.74H157.89a3.5,3.5,0,0,1,0-7h11.47a3.5,3.5,0,0,1,0,7Z"/><path class="cls-1" d="M142.11,170.6H130.64a3.5,3.5,0,1,1,0-7h11.47a3.5,3.5,0,0,1,0,7Z"/><path class="cls-1" d="M169.36,170.6H157.89a3.5,3.5,0,0,1,0-7h11.47a3.5,3.5,0,0,1,0,7Z"/><path class="cls-1" d="M142.11,195.46H130.64a3.5,3.5,0,1,1,0-7h11.47a3.5,3.5,0,0,1,0,7Z"/><path class="cls-1" d="M169.36,195.46H157.89a3.5,3.5,0,0,1,0-7h11.47a3.5,3.5,0,0,1,0,7Z"/><path class="cls-1" d="M142.11,220.32H130.64a3.5,3.5,0,1,1,0-7h11.47a3.5,3.5,0,0,1,0,7Z"/><path class="cls-1" d="M169.36,220.32H157.89a3.5,3.5,0,0,1,0-7h11.47a3.5,3.5,0,0,1,0,7Z"/><path class="cls-1" d="M107.69,253.3H61.39a3.5,3.5,0,0,1-3.5-3.5V115.9a3.5,3.5,0,0,1,3.5-3.5h46.3a3.5,3.5,0,0,1,3.5,3.5V249.8A3.5,3.5,0,0,1,107.69,253.3Zm-42.8-7h39.3V119.4H64.89Z"/><rect class="cls-1" x="76.84" y="129.95" width="15.4" height="15.4"/><rect class="cls-1" x="76.84" y="159.46" width="15.4" height="15.4"/><rect class="cls-1" x="76.84" y="188.97" width="15.4" height="15.4"/><rect class="cls-1" x="76.84" y="218.48" width="15.4" height="15.4"/><path class="cls-1" d="M238.61,253.3h-46.3a3.5,3.5,0,0,1-3.5-3.5V142.24a3.5,3.5,0,0,1,3.5-3.5h46.3a3.5,3.5,0,0,1,3.5,3.5V249.8A3.5,3.5,0,0,1,238.61,253.3Zm-42.8-7h39.3V145.74h-39.3Z"/><path class="cls-1" d="M221.2,175.43H209.72a3.5,3.5,0,1,1,0-7H221.2a3.5,3.5,0,0,1,0,7Z"/><path class="cls-1" d="M221.2,200.29H209.72a3.5,3.5,0,0,1,0-7H221.2a3.5,3.5,0,0,1,0,7Z"/><path class="cls-1" d="M221.2,225.15H209.72a3.5,3.5,0,0,1,0-7H221.2a3.5,3.5,0,0,1,0,7Z"/></svg>