<svg id="Capa_1" data-name="Capa 1" xmlns="http://www.w3.org/2000/svg" viewBox="0 0 300 300"><defs><style>.cls-1{fill:#fff;}</style></defs><title>Icons-Set</title><path class="cls-1" d="M142.21,248.22a12.88,12.88,0,0,0-5.7-5.7,3.26,3.26,0,0,1-1.76-2.92v-9.74a3.26,3.26,0,0,1,1.76-2.92,12.93,12.93,0,0,0,5.7-5.7,3.26,3.26,0,0,1,2.92-1.76h9.74a3.26,3.26,0,0,1,2.92,1.76,12.93,12.93,0,0,0,5.7,5.7,3.26,3.26,0,0,1,1.76,2.92v9.74a3.26,3.26,0,0,1-1.76,2.92,12.88,12.88,0,0,0-5.7,5.7,3.25,3.25,0,0,1-2.92,1.75h-9.74A3.25,3.25,0,0,1,142.21,248.22Z"/><path class="cls-1" d="M150,118.09a4.68,4.68,0,0,1-4.68-4.68V102.27a4.68,4.68,0,0,1,9.36,0v11.14A4.68,4.68,0,0,1,150,118.09Z"/><path class="cls-1" d="M150,202.68a4.67,4.67,0,0,1-4.68-4.68V186.86a4.68,4.68,0,0,1,9.36,0V198A4.67,4.67,0,0,1,150,202.68Z"/><path class="cls-1" d="M142.21,163.62a12.91,12.91,0,0,0-5.7-5.69,3.28,3.28,0,0,1-1.76-2.92v-9.75a3.28,3.28,0,0,1,1.76-2.92,12.91,12.91,0,0,0,5.7-5.69,3.26,3.26,0,0,1,2.92-1.76h9.74a3.26,3.26,0,0,1,2.92,1.76,12.91,12.91,0,0,0,5.7,5.69,3.28,3.28,0,0,1,1.76,2.92V155a3.28,3.28,0,0,1-1.76,2.92,12.91,12.91,0,0,0-5.7,5.69,3.26,3.26,0,0,1-2.92,1.76h-9.74A3.26,3.26,0,0,1,142.21,163.62Z"/><path class="cls-1" d="M142.21,79a12.88,12.88,0,0,0-5.7-5.7,3.26,3.26,0,0,1-1.76-2.92V60.67a3.26,3.26,0,0,1,1.76-2.92,12.88,12.88,0,0,0,5.7-5.7,3.26,3.26,0,0,1,2.92-1.76h9.74a3.26,3.26,0,0,1,2.92,1.76,12.88,12.88,0,0,0,5.7,5.7,3.26,3.26,0,0,1,1.76,2.92v9.74a3.26,3.26,0,0,1-1.76,2.92,12.93,12.93,0,0,0-5.7,5.7,3.26,3.26,0,0,1-2.92,1.76h-9.74A3.26,3.26,0,0,1,142.21,79Z"/><path class="cls-1" d="M182,149.87a4.69,4.69,0,0,1,4.69-4.69h11.14a4.69,4.69,0,0,1,0,9.37H186.73A4.69,4.69,0,0,1,182,149.87Z"/><path class="cls-1" d="M97.45,149.87a4.69,4.69,0,0,1,4.68-4.69h11.14a4.69,4.69,0,1,1,0,9.37H102.13A4.69,4.69,0,0,1,97.45,149.87Z"/><path class="cls-1" d="M51.92,142.07a12.93,12.93,0,0,0,5.69-5.69,3.28,3.28,0,0,1,2.92-1.76h9.75a3.28,3.28,0,0,1,2.92,1.76,12.93,12.93,0,0,0,5.69,5.69A3.26,3.26,0,0,1,80.65,145v9.75a3.26,3.26,0,0,1-1.76,2.92,12.93,12.93,0,0,0-5.69,5.69,3.28,3.28,0,0,1-2.92,1.76H60.53a3.28,3.28,0,0,1-2.92-1.76,12.93,12.93,0,0,0-5.69-5.69,3.28,3.28,0,0,1-1.76-2.92V145A3.28,3.28,0,0,1,51.92,142.07Z"/><path class="cls-1" d="M221.11,142.07a12.93,12.93,0,0,0,5.69-5.69,3.28,3.28,0,0,1,2.92-1.76h9.75a3.28,3.28,0,0,1,2.92,1.76,12.93,12.93,0,0,0,5.69,5.69,3.28,3.28,0,0,1,1.76,2.92v9.75a3.28,3.28,0,0,1-1.76,2.92,12.93,12.93,0,0,0-5.69,5.69,3.28,3.28,0,0,1-2.92,1.76h-9.75a3.28,3.28,0,0,1-2.92-1.76,12.93,12.93,0,0,0-5.69-5.69,3.26,3.26,0,0,1-1.76-2.92V145A3.26,3.26,0,0,1,221.11,142.07Z"/><path class="cls-1" d="M234.6,118.09a4.69,4.69,0,0,1-4.69-4.68V102.27a4.69,4.69,0,0,1,9.37,0v11.14A4.69,4.69,0,0,1,234.6,118.09Z"/><path class="cls-1" d="M234.6,202.68a4.68,4.68,0,0,1-4.69-4.68V186.86a4.69,4.69,0,0,1,9.37,0V198A4.68,4.68,0,0,1,234.6,202.68Z"/><path class="cls-1" d="M65.4,117.82a4.69,4.69,0,0,1-4.68-4.68V102a4.69,4.69,0,0,1,9.37,0v11.14A4.69,4.69,0,0,1,65.4,117.82Z"/><path class="cls-1" d="M65.4,202.41a4.68,4.68,0,0,1-4.68-4.68V186.59a4.69,4.69,0,0,1,9.37,0v11.14A4.68,4.68,0,0,1,65.4,202.41Z"/><path class="cls-1" d="M51.92,57.48a12.91,12.91,0,0,0,5.69-5.7A3.27,3.27,0,0,1,60.53,50h9.75a3.27,3.27,0,0,1,2.92,1.75,12.91,12.91,0,0,0,5.69,5.7,3.24,3.24,0,0,1,1.76,2.92v9.74a3.24,3.24,0,0,1-1.76,2.92,13,13,0,0,0-5.69,5.7,3.28,3.28,0,0,1-2.92,1.76H60.53a3.28,3.28,0,0,1-2.92-1.76,13,13,0,0,0-5.69-5.7,3.26,3.26,0,0,1-1.76-2.92V60.4A3.26,3.26,0,0,1,51.92,57.48Z"/><path class="cls-1" d="M221.11,57.48a12.91,12.91,0,0,0,5.69-5.7A3.27,3.27,0,0,1,229.72,50h9.75a3.27,3.27,0,0,1,2.92,1.75,12.91,12.91,0,0,0,5.69,5.7,3.26,3.26,0,0,1,1.76,2.92v9.74a3.26,3.26,0,0,1-1.76,2.92,13,13,0,0,0-5.69,5.7,3.28,3.28,0,0,1-2.92,1.76h-9.75a3.28,3.28,0,0,1-2.92-1.76,13,13,0,0,0-5.69-5.7,3.24,3.24,0,0,1-1.76-2.92V60.4A3.24,3.24,0,0,1,221.11,57.48Z"/><path class="cls-1" d="M51.92,226.8a12.93,12.93,0,0,0,5.69-5.69,3.28,3.28,0,0,1,2.92-1.76h9.75a3.28,3.28,0,0,1,2.92,1.76,12.93,12.93,0,0,0,5.69,5.69,3.26,3.26,0,0,1,1.76,2.92v9.75a3.26,3.26,0,0,1-1.76,2.92,12.93,12.93,0,0,0-5.69,5.69,3.26,3.26,0,0,1-2.92,1.76H60.53a3.26,3.26,0,0,1-2.92-1.76,12.93,12.93,0,0,0-5.69-5.69,3.28,3.28,0,0,1-1.76-2.92v-9.75A3.28,3.28,0,0,1,51.92,226.8Z"/><path class="cls-1" d="M221.11,226.8a12.93,12.93,0,0,0,5.69-5.69,3.28,3.28,0,0,1,2.92-1.76h9.75a3.28,3.28,0,0,1,2.92,1.76,12.93,12.93,0,0,0,5.69,5.69,3.28,3.28,0,0,1,1.76,2.92v9.75a3.28,3.28,0,0,1-1.76,2.92,12.93,12.93,0,0,0-5.69,5.69,3.26,3.26,0,0,1-2.92,1.76h-9.75a3.26,3.26,0,0,1-2.92-1.76,12.93,12.93,0,0,0-5.69-5.69,3.26,3.26,0,0,1-1.76-2.92v-9.75A3.26,3.26,0,0,1,221.11,226.8Z"/><path class="cls-1" d="M182,65.27a4.69,4.69,0,0,1,4.69-4.68h11.14a4.68,4.68,0,1,1,0,9.36H186.73A4.68,4.68,0,0,1,182,65.27Z"/><path class="cls-1" d="M97.45,65.27a4.69,4.69,0,0,1,4.68-4.68h11.14a4.68,4.68,0,1,1,0,9.36H102.13A4.68,4.68,0,0,1,97.45,65.27Z"/><path class="cls-1" d="M182,234.6a4.69,4.69,0,0,1,4.69-4.69h11.14a4.69,4.69,0,0,1,0,9.37H186.73A4.69,4.69,0,0,1,182,234.6Z"/><path class="cls-1" d="M97.45,234.6a4.69,4.69,0,0,1,4.68-4.69h11.14a4.69,4.69,0,1,1,0,9.37H102.13A4.69,4.69,0,0,1,97.45,234.6Z"/></svg>