<svg id="Capa_1" data-name="Capa 1" xmlns="http://www.w3.org/2000/svg" viewBox="0 0 300 300"><defs><style>.cls-1{fill:#fff;}</style></defs><title>AI-Icons</title><path class="cls-1" d="M219.45,123.84a14.47,14.47,0,0,0,10.3-4.26l22.79-22.79a10.85,10.85,0,1,0-4.9-4.9l-22.78,22.79a7.64,7.64,0,0,1-5.41,2.24H209v-7.65A18.3,18.3,0,0,0,190.73,91h-7.65V60.33a10.87,10.87,0,1,0-6.92,0V91h-7.89V76a3.46,3.46,0,1,0-6.92,0V91h-22.7V76a3.46,3.46,0,1,0-6.92,0V91h-7.89V80.55a14.47,14.47,0,0,0-4.26-10.3l-22.8-22.8a10.87,10.87,0,1,0-4.89,4.9l22.79,22.79a7.64,7.64,0,0,1,2.24,5.41V91H91.57L91,116.92H60.33a10.87,10.87,0,1,0,0,6.92H91v7.89H76a3.46,3.46,0,1,0,0,6.92H91v22.7H76a3.46,3.46,0,1,0,0,6.92H91v7.89H80.55a14.51,14.51,0,0,0-10.31,4.26L47.46,203.21a10.85,10.85,0,1,0,4.9,4.9l22.78-22.79a7.64,7.64,0,0,1,5.41-2.24H91v7.65A18.3,18.3,0,0,0,109.27,209h7.65v30.67a10.87,10.87,0,1,0,6.92,0V209h7.89v15.05a3.46,3.46,0,1,0,6.92,0V209h22.7v15.05a3.46,3.46,0,1,0,6.92,0V209h7.89v10.45a14.47,14.47,0,0,0,4.26,10.3l22.8,22.8a10.86,10.86,0,1,0,4.89-4.9l-22.79-22.79a7.64,7.64,0,0,1-2.24-5.41V209H209v-6.93h0v-19h30.67a10.87,10.87,0,1,0,0-6.92H209v-7.89h15.05a3.46,3.46,0,1,0,0-6.92H209v-22.7h15.05a3.46,3.46,0,1,0,0-6.92H209v-7.89Zm35.14-39.57a3.92,3.92,0,1,1-1.16,2.79A3.87,3.87,0,0,1,254.59,84.27ZM89.84,45.41a3.94,3.94,0,1,1,0-5.57A3.94,3.94,0,0,1,89.84,45.41ZM50,124.32A3.94,3.94,0,1,1,54,120.38,3.95,3.95,0,0,1,50,124.32Zm-4.62,91.41a3.92,3.92,0,1,1,1.16-2.79A3.88,3.88,0,0,1,45.41,215.73Zm164.75,38.86a3.94,3.94,0,1,1,0,5.57A3.91,3.91,0,0,1,210.16,254.59ZM175.68,50A3.94,3.94,0,1,1,179.62,54,3.95,3.95,0,0,1,175.68,50ZM124.32,250a3.94,3.94,0,1,1-3.94-3.94A3.95,3.95,0,0,1,124.32,250Zm-15-47.9a11.35,11.35,0,0,1-11.34-11.34l.33-92.8h92.47a11.36,11.36,0,0,1,11.34,11.34v92.8ZM250,175.68a3.94,3.94,0,1,1-3.94,3.94A3.95,3.95,0,0,1,250,175.68Z"/><path class="cls-1" d="M174,125a11.84,11.84,0,0,0,.34-2.79c0-7-6.22-12.72-13.88-12.72A14.42,14.42,0,0,0,150,113.84a14.42,14.42,0,0,0-10.41-4.33c-7.66,0-13.88,5.71-13.88,12.72a11.84,11.84,0,0,0,.34,2.79c-7.42,2-12.84,8.31-12.84,15.72a15.21,15.21,0,0,0,3.65,9.86,17.18,17.18,0,0,0-3.65,10.51,17.85,17.85,0,0,0,8.33,14.8h0c0,8,7.16,14.57,16,14.57A16.54,16.54,0,0,0,150,185a16.54,16.54,0,0,0,12.5,5.52c8.47,0,15.41-6.05,15.92-13.67A16.2,16.2,0,0,0,186.79,163,15.63,15.63,0,0,0,182,151.85a15.59,15.59,0,0,0,4.82-11.11C186.79,133.34,181.37,127.06,174,125Zm.58,29.89c3.33,1.77,5.33,4.77,5.33,8.05a8.88,8.88,0,0,1-3.05,6.51,15.59,15.59,0,0,0-9.11-7.33,3.46,3.46,0,0,0-2.08,6.61c3.53,1.11,5.91,4,5.91,7.17,0,4.21-4.06,7.64-9,7.64s-9-3.43-9-7.64V137.27a3.47,3.47,0,0,0-6.93,0v38.65c0,4.21-4.05,7.64-9,7.64s-9-3.43-9-7.64a7,7,0,0,1,2.16-4.95,3.46,3.46,0,0,0-4.89-4.91,15.08,15.08,0,0,0-2.14,2.68,10.57,10.57,0,0,1-3.46-7.63c0-5.13,4-9.64,9.79-11a3.46,3.46,0,1,0-1.54-6.75A21,21,0,0,0,122,146a8.35,8.35,0,0,1-1.89-5.24c0-5.21,4.94-9.45,11-9.49h.09A3.46,3.46,0,0,0,134.2,126l-.08-.13,0-.06-.17-.22h0a5.17,5.17,0,0,1-1.26-3.32c0-3.19,3.11-5.79,7-5.79s6.94,2.6,6.94,5.79a3.47,3.47,0,0,0,6.93,0c0-3.19,3.12-5.79,6.95-5.79s7,2.6,7,5.79a4.84,4.84,0,0,1-.52,2.18,19.12,19.12,0,0,0-5.68,1.43,3.46,3.46,0,1,0,2.69,6.38,12.49,12.49,0,0,1,4.79-1h.19c6.09,0,11,4.28,11,9.49,0,3.28-2,6.29-5.33,8a3.46,3.46,0,0,0,0,6.12Z"/></svg>