<svg id="Capa_1" data-name="Capa 1" xmlns="http://www.w3.org/2000/svg" viewBox="0 0 300 300"><defs><style>.cls-1{fill:#fff;}</style></defs><title>Icons-Set</title><path class="cls-1" d="M234.5,120.32H216a5,5,0,1,1,0-10H234.5a5,5,0,0,1,0,10Z"/><path class="cls-1" d="M234.5,155H216a5,5,0,0,1,0-10H234.5a5,5,0,0,1,0,10Z"/><path class="cls-1" d="M234.5,189.68H216a5,5,0,1,1,0-10H234.5a5,5,0,0,1,0,10Z"/><path class="cls-1" d="M84,120.32H65.5a5,5,0,0,1,0-10H84a5,5,0,1,1,0,10Z"/><path class="cls-1" d="M84,155H65.5a5,5,0,0,1,0-10H84a5,5,0,1,1,0,10Z"/><path class="cls-1" d="M84,189.68H65.5a5,5,0,0,1,0-10H84a5,5,0,1,1,0,10Z"/><path class="cls-1" d="M115.32,89a5,5,0,0,1-5-5V65.5a5,5,0,0,1,10,0V84A5,5,0,0,1,115.32,89Z"/><path class="cls-1" d="M150,89a5,5,0,0,1-5-5V65.5a5,5,0,0,1,10,0V84A5,5,0,0,1,150,89Z"/><path class="cls-1" d="M184.68,89a5,5,0,0,1-5-5V65.5a5,5,0,0,1,10,0V84A5,5,0,0,1,184.68,89Z"/><path class="cls-1" d="M115.32,239.5a5,5,0,0,1-5-5V216a5,5,0,1,1,10,0V234.5A5,5,0,0,1,115.32,239.5Z"/><path class="cls-1" d="M150,239.5a5,5,0,0,1-5-5V216a5,5,0,0,1,10,0V234.5A5,5,0,0,1,150,239.5Z"/><path class="cls-1" d="M184.68,239.5a5,5,0,0,1-5-5V216a5,5,0,1,1,10,0V234.5A5,5,0,0,1,184.68,239.5Z"/><path class="cls-1" d="M130.09,181.72a31.87,31.87,0,0,0-11.81-11.81,11.52,11.52,0,0,1-5.75-10V140.12a11.52,11.52,0,0,1,5.75-10,31.87,31.87,0,0,0,11.81-11.81,11.52,11.52,0,0,1,10-5.75h19.76a11.52,11.52,0,0,1,10,5.75,31.87,31.87,0,0,0,11.81,11.81,11.52,11.52,0,0,1,5.75,10v19.76a11.52,11.52,0,0,1-5.75,10,31.87,31.87,0,0,0-11.81,11.81,11.52,11.52,0,0,1-10,5.75H140.12A11.52,11.52,0,0,1,130.09,181.72Z"/></svg>