<svg id="Capa_1" data-name="Capa 1" xmlns="http://www.w3.org/2000/svg" viewBox="0 0 300 300"><defs><style>.cls-1{fill:#fff;}</style></defs><title>Icons-Set</title><path class="cls-1" d="M238,140.89a27.15,27.15,0,0,0-45.86,13.92H128.69a1.7,1.7,0,0,0-1.2,2.9,1.67,1.67,0,0,0,1.2.5H139v17.52a1.7,1.7,0,0,0,3.4,0V158.21H151v12.72a1.7,1.7,0,0,0,3.4,0V158.21H163v17.52a1.69,1.69,0,0,0,1.7,1.7,1.7,1.7,0,0,0,1.69-1.7V158.21H191.7A27.17,27.17,0,1,0,238,140.89Zm-36,36a23.78,23.78,0,1,1,33.63,0A23.79,23.79,0,0,1,202,176.93Z"/><path class="cls-1" d="M218.78,188.78a28.58,28.58,0,0,1-28.64-29.07H167.92v16a3.2,3.2,0,1,1-6.39,0v-16h-5.62v11.22a3.2,3.2,0,0,1-6.4,0V159.71H143.9v16a3.21,3.21,0,0,1-3.2,3.2,3.21,3.21,0,0,1-3.2-3.2v-16h-8.81a3.21,3.21,0,0,1-3.2-3.2,3.2,3.2,0,0,1,3.2-3.2h62.24a28.68,28.68,0,0,1,48.13-13.48h0a28.67,28.67,0,0,1-20.28,48.95Zm-53.86-32.07h28.39l-.11,1.6A25.67,25.67,0,1,0,236.94,142h0a25.66,25.66,0,0,0-43.33,13.15l-.24,1.21H128.69a.2.2,0,0,0-.2.2.23.23,0,0,0,0,.14.21.21,0,0,0,.15.06H140.5v19a.18.18,0,0,0,.06.14c.07.07.34,0,.34-.14v-19h11.61v14.22a.26.26,0,0,0,.06.14c.07.07.34,0,.34-.14V156.71h11.62v19a.17.17,0,0,0,.06.14c.06.07.33,0,.33-.14Zm53.86,28.68a25.28,25.28,0,1,1,17.88-7.4A25.12,25.12,0,0,1,218.78,185.39Zm0-47.55a22.28,22.28,0,1,0,15.76,6.52A22.18,22.18,0,0,0,218.78,137.84Z"/><path class="cls-1" d="M82.79,128.64a2.87,2.87,0,0,1-2.87-2.87v-5.19a2.87,2.87,0,1,1,5.74,0v5.19A2.87,2.87,0,0,1,82.79,128.64Z"/><path class="cls-1" d="M104.23,128.64a2.88,2.88,0,0,1-2.87-2.87v-5.19a2.88,2.88,0,0,1,5.75,0v5.19A2.88,2.88,0,0,1,104.23,128.64Z"/><path class="cls-1" d="M93.51,115.69a2.88,2.88,0,0,1-2.87-2.88v-5.18a2.88,2.88,0,0,1,5.75,0v5.18A2.88,2.88,0,0,1,93.51,115.69Z"/><path class="cls-1" d="M82.79,102.73a2.86,2.86,0,0,1-2.87-2.87V94.68a2.87,2.87,0,1,1,5.74,0v5.18A2.86,2.86,0,0,1,82.79,102.73Z"/><path class="cls-1" d="M104.23,102.73a2.87,2.87,0,0,1-2.87-2.87V94.68a2.88,2.88,0,1,1,5.75,0v5.18A2.87,2.87,0,0,1,104.23,102.73Z"/><path class="cls-1" d="M128.84,244.24H63.72a11.18,11.18,0,0,1-11.17-11.17V66.93A11.18,11.18,0,0,1,63.72,55.76h65.12v56.81H123.1V61.5H63.72a5.44,5.44,0,0,0-5.43,5.43V233.07a5.44,5.44,0,0,0,5.43,5.43H123.1V202.6h5.74Z"/><path class="cls-1" d="M104.33,215.42H82.69a2.88,2.88,0,0,1,0-5.75h21.64a2.88,2.88,0,0,1,0,5.75Z"/><path class="cls-1" d="M104.33,201.25H82.69a2.88,2.88,0,0,1,0-5.75h21.64a2.88,2.88,0,0,1,0,5.75Z"/><path class="cls-1" d="M104.33,187.08H82.69a2.88,2.88,0,0,1,0-5.75h21.64a2.88,2.88,0,0,1,0,5.75Z"/></svg>