<svg id="Capa_1" data-name="Capa 1" xmlns="http://www.w3.org/2000/svg" viewBox="0 0 300 300"><defs><style>.cls-1{fill:#fff;}</style></defs><title>Icons-Set</title><path class="cls-1" d="M150.43,154.33h0l-11.39,0a4.79,4.79,0,0,1,0-9.58h0l11.4,0a4.79,4.79,0,0,1,0,9.58Z"/><path class="cls-1" d="M121.86,177.82h0l-11.39,0a4.79,4.79,0,0,1,0-9.58h0l11.39,0a4.79,4.79,0,0,1,0,9.58Z"/><path class="cls-1" d="M122,130.65h0l-11.39,0a4.79,4.79,0,1,1,0-9.57h0l11.39,0a4.79,4.79,0,0,1,0,9.57Z"/><rect class="cls-1" x="74.91" y="95.91" width="5.59" height="108.18"/><rect class="cls-1" x="219.19" y="95.91" width="5.59" height="108.18"/><path class="cls-1" d="M247.49,220.46h-195a16.74,16.74,0,0,1-16.72-16.71V96.25A16.74,16.74,0,0,1,52.51,79.54h195a16.74,16.74,0,0,1,16.72,16.71v107.5A16.74,16.74,0,0,1,247.49,220.46ZM52.51,85.12A11.15,11.15,0,0,0,41.38,96.25v107.5a11.15,11.15,0,0,0,11.13,11.13h195a11.15,11.15,0,0,0,11.13-11.13V96.25a11.15,11.15,0,0,0-11.13-11.13Z"/><path class="cls-1" d="M57.94,121.25A10.25,10.25,0,1,1,68.19,111,10.26,10.26,0,0,1,57.94,121.25Zm0-14.91A4.66,4.66,0,1,0,62.6,111,4.66,4.66,0,0,0,57.94,106.34Z"/><path class="cls-1" d="M58.38,160.37a2.8,2.8,0,0,1-2.79-2.8V130.75a2.79,2.79,0,1,1,5.58,0v26.82A2.8,2.8,0,0,1,58.38,160.37Z"/><path class="cls-1" d="M58.21,200a2.8,2.8,0,0,1-2.8-2.79V170.41a2.8,2.8,0,1,1,5.59,0v26.82A2.79,2.79,0,0,1,58.21,200Z"/><path class="cls-1" d="M242.29,199.62a10.25,10.25,0,1,1,10.25-10.24A10.25,10.25,0,0,1,242.29,199.62Zm0-14.9a4.66,4.66,0,1,0,4.66,4.66A4.66,4.66,0,0,0,242.29,184.72Z"/><path class="cls-1" d="M241.86,172.42a2.79,2.79,0,0,1-2.8-2.79V142.81a2.8,2.8,0,1,1,5.59,0v26.82A2.79,2.79,0,0,1,241.86,172.42Z"/><path class="cls-1" d="M242,132.77a2.81,2.81,0,0,1-2.8-2.8V103.15a2.8,2.8,0,1,1,5.59,0V130A2.8,2.8,0,0,1,242,132.77Z"/><path class="cls-1" d="M170.18,183.79a3,3,0,0,1-2.09-5l29.39-29.39L168.09,120a3,3,0,1,1,4.18-4.17l33.56,33.56-33.56,33.56A2.94,2.94,0,0,1,170.18,183.79Z"/></svg>