<svg width="48" height="48" viewBox="0 0 48 48" fill="none" xmlns="http://www.w3.org/2000/svg">
<rect x="1.14347" width="11.1144" height="11.1144" rx="2.25" transform="matrix(0.762311 -0.647211 0.762311 0.647211 15.0187 40.576)" fill="white" stroke="black" stroke-width="1.5"/>
<rect x="1.14347" width="11.1144" height="11.1144" rx="2.25" transform="matrix(0.762311 -0.647211 0.762311 0.647211 14.9011 37.2512)" fill="white" stroke="black" stroke-width="1.5"/>
<rect x="1.14347" width="11.1144" height="11.1144" rx="2.25" transform="matrix(0.762311 -0.647211 0.762311 0.647211 14.9011 33.796)" fill="white" stroke="black" stroke-width="1.5"/>
<rect x="1.14347" width="11.1144" height="11.1144" rx="2.25" transform="matrix(0.762311 -0.647211 0.762311 0.647211 15.1527 15.6842)" fill="white" stroke="black" stroke-width="1.5"/>
<rect x="1.14347" width="11.1144" height="11.1144" rx="2.25" transform="matrix(0.762311 -0.647211 0.762311 0.647211 15.0351 12.3593)" fill="white" stroke="black" stroke-width="1.5"/>
<rect x="1.14347" width="11.1144" height="11.1144" rx="2.25" transform="matrix(0.762311 -0.647211 0.762311 0.647211 15.0351 8.90425)" fill="white" stroke="black" stroke-width="1.5"/>
<rect x="1.14347" width="11.1144" height="11.1144" rx="2.25" transform="matrix(0.762311 -0.647211 0.762311 0.647211 0.389404 28.3106)" fill="white" stroke="black" stroke-width="1.5"/>
<rect x="1.14347" width="11.1144" height="11.1144" rx="2.25" transform="matrix(0.762311 -0.647211 0.762311 0.647211 0.271789 24.9859)" fill="white" stroke="black" stroke-width="1.5"/>
<rect x="1.14347" width="11.1144" height="11.1144" rx="2.25" transform="matrix(0.762311 -0.647211 0.762311 0.647211 0.271789 21.5306)" fill="white" stroke="black" stroke-width="1.5"/>
<rect x="1.14347" width="11.1144" height="11.1144" rx="2.25" transform="matrix(0.762311 -0.647211 0.762311 0.647211 29.0397 28.0777)" fill="white" stroke="black" stroke-width="1.5"/>
<rect x="1.14347" width="11.1144" height="11.1144" rx="2.25" transform="matrix(0.762311 -0.647211 0.762311 0.647211 28.9221 24.753)" fill="white" stroke="black" stroke-width="1.5"/>
<rect x="1.14347" width="11.1144" height="11.1144" rx="2.25" transform="matrix(0.762311 -0.647211 0.762311 0.647211 28.9221 21.2978)" fill="white" stroke="black" stroke-width="1.5"/>
</svg>
