<svg width="49" height="48" viewBox="0 0 49 48" fill="none" xmlns="http://www.w3.org/2000/svg">
<g clip-path="url(#clip0)">
<path d="M8.03549 33.876C5.94041 32.1563 5.94041 29.3681 8.03549 27.6484L21.2033 16.84C23.2984 15.1203 26.6952 15.1203 28.7903 16.84L41.9581 27.6484C44.0532 29.3681 44.0532 32.1563 41.9581 33.876L28.7903 44.6845C26.6952 46.4041 23.2984 46.4041 21.2033 44.6845L8.03549 33.876Z" fill="#F41921"/>
<path fill-rule="evenodd" clip-rule="evenodd" d="M22.7207 18.0855L9.55289 28.8939C8.29584 29.9258 8.29584 31.5987 9.55289 32.6305L22.7207 43.4389C23.9778 44.4708 26.0159 44.4708 27.2729 43.4389L40.4407 32.6305C41.6978 31.5987 41.6978 29.9258 40.4407 28.8939L27.2729 18.0855C26.0159 17.0537 23.9778 17.0537 22.7207 18.0855ZM8.03549 27.6484C5.94041 29.3681 5.94041 32.1563 8.03549 33.876L21.2033 44.6845C23.2984 46.4041 26.6952 46.4041 28.7903 44.6845L41.9581 33.876C44.0532 32.1563 44.0532 29.3681 41.9581 27.6484L28.7903 16.84C26.6952 15.1203 23.2984 15.1203 21.2033 16.84L8.03549 27.6484Z" fill="black"/>
<path d="M8.03549 26.6666C5.94041 24.9469 5.94041 22.1588 8.03549 20.4391L21.2033 9.63061C23.2984 7.91092 26.6952 7.91092 28.7903 9.63061L41.9581 20.4391C44.0532 22.1588 44.0532 24.9469 41.9581 26.6666L28.7903 37.4751C26.6952 39.1948 23.2984 39.1948 21.2033 37.4751L8.03549 26.6666Z" fill="white"/>
<path fill-rule="evenodd" clip-rule="evenodd" d="M22.7207 10.8761L9.55289 21.6846C8.29584 22.7164 8.29584 24.3893 9.55289 25.4211L22.7207 36.2296C23.9778 37.2614 26.0159 37.2614 27.2729 36.2296L40.4407 25.4211C41.6978 24.3893 41.6978 22.7164 40.4407 21.6846L27.2729 10.8761C26.0159 9.84431 23.9778 9.84431 22.7207 10.8761ZM8.03549 20.4391C5.94041 22.1588 5.94041 24.9469 8.03549 26.6666L21.2033 37.4751C23.2984 39.1948 26.6952 39.1948 28.7903 37.4751L41.9581 26.6666C44.0532 24.9469 44.0532 22.1588 41.9581 20.4391L28.7903 9.63061C26.6952 7.91092 23.2984 7.91092 21.2033 9.63061L8.03549 20.4391Z" fill="black"/>
<path d="M8.03549 20.1498C5.94041 18.4301 5.94041 15.6419 8.03549 13.9222L21.2033 3.11377C23.2984 1.39407 26.6952 1.39407 28.7903 3.11376L41.9581 13.9222C44.0532 15.6419 44.0532 18.4301 41.9581 20.1498L28.7903 30.9583C26.6952 32.6779 23.2984 32.678 21.2033 30.9583L8.03549 20.1498Z" fill="white"/>
<path fill-rule="evenodd" clip-rule="evenodd" d="M22.7207 4.35928L9.55289 15.1677C8.29584 16.1996 8.29584 17.8725 9.55289 18.9043L22.7207 29.7127C23.9778 30.7446 26.0159 30.7446 27.2729 29.7127L40.4407 18.9043C41.6978 17.8725 41.6978 16.1996 40.4407 15.1677L27.2729 4.35928C26.0159 3.32746 23.9778 3.32746 22.7207 4.35928ZM8.03549 13.9222C5.94041 15.6419 5.94041 18.4301 8.03549 20.1498L21.2033 30.9583C23.2984 32.678 26.6952 32.6779 28.7903 30.9583L41.9581 20.1498C44.0532 18.4301 44.0532 15.6419 41.9581 13.9222L28.7903 3.11376C26.6952 1.39407 23.2984 1.39407 21.2033 3.11377L8.03549 13.9222Z" fill="black"/>
</g>
<defs>
<clipPath id="clip0">
<rect width="48" height="48" fill="white" transform="translate(0.996826)"/>
</clipPath>
</defs>
</svg>
