<svg width="49" height="48" viewBox="0 0 49 48" fill="none" xmlns="http://www.w3.org/2000/svg">
<path fill-rule="evenodd" clip-rule="evenodd" d="M3.51895 33.9815L31.9649 4.9187L33.3079 6.29083L4.86196 35.3536L3.51895 33.9815Z" fill="black"/>
<path fill-rule="evenodd" clip-rule="evenodd" d="M9.01416 39.5958L37.4601 10.533L38.8031 11.9051L10.3572 40.9679L9.01416 39.5958Z" fill="black"/>
<path fill-rule="evenodd" clip-rule="evenodd" d="M14.5093 45.2103L42.9552 16.1475L44.2982 17.5196L15.8523 46.5824L14.5093 45.2103Z" fill="black"/>
<path d="M28.7259 33.8315C28.7259 41.6566 22.5171 48 14.8582 48C7.19927 48 0.990479 41.6566 0.990479 33.8315C0.990479 26.0065 7.19927 19.6631 14.8582 19.6631C22.5171 19.6631 28.7259 26.0065 28.7259 33.8315Z" fill="white"/>
<path fill-rule="evenodd" clip-rule="evenodd" d="M14.8582 46.08C21.4181 46.08 26.8059 40.6352 26.8059 33.8315C26.8059 27.0279 21.4181 21.5831 14.8582 21.5831C8.29828 21.5831 2.91048 27.0279 2.91048 33.8315C2.91048 40.6352 8.29828 46.08 14.8582 46.08ZM14.8582 48C22.5171 48 28.7259 41.6566 28.7259 33.8315C28.7259 26.0065 22.5171 19.6631 14.8582 19.6631C7.19927 19.6631 0.990479 26.0065 0.990479 33.8315C0.990479 41.6566 7.19927 48 14.8582 48Z" fill="black"/>
<path d="M23.8508 33.7931C23.8508 38.8885 19.8078 43.0191 14.8206 43.0191C9.83342 43.0191 5.79048 38.8885 5.79048 33.7931C5.79048 28.6977 9.83342 24.5671 14.8206 24.5671C19.8078 24.5671 23.8508 28.6977 23.8508 33.7931Z" fill="white"/>
<path fill-rule="evenodd" clip-rule="evenodd" d="M14.8206 41.0991C18.7088 41.0991 21.9308 37.8671 21.9308 33.7931C21.9308 29.7191 18.7088 26.4871 14.8206 26.4871C10.9324 26.4871 7.71048 29.7191 7.71048 33.7931C7.71048 37.8671 10.9324 41.0991 14.8206 41.0991ZM14.8206 43.0191C19.8078 43.0191 23.8508 38.8885 23.8508 33.7931C23.8508 28.6977 19.8078 24.5671 14.8206 24.5671C9.83342 24.5671 5.79048 28.6977 5.79048 33.7931C5.79048 38.8885 9.83342 43.0191 14.8206 43.0191Z" fill="black"/>
<path d="M48.9905 11.4429C48.9905 17.7626 43.9761 22.8858 37.7905 22.8858C31.6049 22.8858 26.5905 17.7626 26.5905 11.4429C26.5905 5.12316 31.6049 0 37.7905 0C43.9761 0 48.9905 5.12316 48.9905 11.4429Z" fill="white"/>
<path fill-rule="evenodd" clip-rule="evenodd" d="M37.7905 20.9658C42.8771 20.9658 47.0705 16.7413 47.0705 11.4429C47.0705 6.14451 42.8771 1.92 37.7905 1.92C32.7039 1.92 28.5105 6.14451 28.5105 11.4429C28.5105 16.7413 32.7039 20.9658 37.7905 20.9658ZM37.7905 22.8858C43.9761 22.8858 48.9905 17.7626 48.9905 11.4429C48.9905 5.12316 43.9761 0 37.7905 0C31.6049 0 26.5905 5.12316 26.5905 11.4429C26.5905 17.7626 31.6049 22.8858 37.7905 22.8858Z" fill="#ED1C24"/>
<path fill-rule="evenodd" clip-rule="evenodd" d="M44.1363 7.47029L37.4678 15.6967L32.1054 10.8308L33.3956 9.4089L37.2546 12.9106L42.6448 6.26123L44.1363 7.47029Z" fill="#ED1C24"/>
</svg>
