<svg width="49" height="48" viewBox="0 0 49 48" fill="none" xmlns="http://www.w3.org/2000/svg">
<rect width="48" height="48" transform="translate(0.987305)" fill="#F6F6F6"/>
<path d="M0.987305 2.88C0.987305 1.28942 2.27672 0 3.8673 0H15.7625C17.3531 0 18.6425 1.28942 18.6425 2.88V11.3018C18.6425 12.8924 17.3531 14.1818 15.7625 14.1818H3.86731C2.27673 14.1818 0.987305 12.8924 0.987305 11.3018V2.88Z" fill="white"/>
<path fill-rule="evenodd" clip-rule="evenodd" d="M15.7625 1.92H3.8673C3.33711 1.92 2.9073 2.34981 2.9073 2.88V11.3018C2.9073 11.832 3.33711 12.2618 3.86731 12.2618H15.7625C16.2927 12.2618 16.7225 11.832 16.7225 11.3018V2.88C16.7225 2.34981 16.2927 1.92 15.7625 1.92ZM3.8673 0C2.27672 0 0.987305 1.28942 0.987305 2.88V11.3018C0.987305 12.8924 2.27673 14.1818 3.86731 14.1818H15.7625C17.3531 14.1818 18.6425 12.8924 18.6425 11.3018V2.88C18.6425 1.28942 17.3531 0 15.7625 0H3.8673Z" fill="black"/>
<path d="M20.8494 2.88C20.8494 1.28942 22.1388 0 23.7294 0H46.1073C47.6979 0 48.9873 1.28942 48.9873 2.88V11.3018C48.9873 12.8924 47.6979 14.1818 46.1073 14.1818H23.7294C22.1388 14.1818 20.8494 12.8924 20.8494 11.3018V7.09091V2.88Z" fill="white"/>
<path fill-rule="evenodd" clip-rule="evenodd" d="M46.1073 1.92H23.7294C23.1992 1.92 22.7694 2.34981 22.7694 2.88V11.3018C22.7694 11.832 23.1992 12.2618 23.7294 12.2618H46.1073C46.6375 12.2618 47.0673 11.832 47.0673 11.3018V2.88C47.0673 2.3498 46.6375 1.92 46.1073 1.92ZM23.7294 0C22.1388 0 20.8494 1.28942 20.8494 2.88V11.3018C20.8494 12.8924 22.1388 14.1818 23.7294 14.1818H46.1073C47.6979 14.1818 48.9873 12.8924 48.9873 11.3018V2.88C48.9873 1.28942 47.6979 0 46.1073 0H23.7294Z" fill="black"/>
<path d="M0.987305 19.7891C0.987305 18.1985 2.27672 16.9091 3.8673 16.9091H15.7625C17.3531 16.9091 18.6425 18.1985 18.6425 19.7891V28.2109C18.6425 29.8015 17.3531 31.0909 15.7625 31.0909H3.86731C2.27673 31.0909 0.987305 29.8015 0.987305 28.2109V19.7891Z" fill="white"/>
<path fill-rule="evenodd" clip-rule="evenodd" d="M15.7625 18.8291H3.8673C3.33711 18.8291 2.9073 19.2589 2.9073 19.7891V28.2109C2.9073 28.7411 3.33711 29.1709 3.86731 29.1709H15.7625C16.2927 29.1709 16.7225 28.7411 16.7225 28.2109V19.7891C16.7225 19.2589 16.2927 18.8291 15.7625 18.8291ZM3.8673 16.9091C2.27672 16.9091 0.987305 18.1985 0.987305 19.7891V28.2109C0.987305 29.8015 2.27673 31.0909 3.86731 31.0909H15.7625C17.3531 31.0909 18.6425 29.8015 18.6425 28.2109V19.7891C18.6425 18.1985 17.3531 16.9091 15.7625 16.9091H3.8673Z" fill="black"/>
<path d="M20.8494 19.7889C20.8494 18.1984 22.1388 16.9089 23.7294 16.9089H46.1073C47.6979 16.9089 48.9873 18.1984 48.9873 19.7889V28.2108C48.9873 29.8013 47.6979 31.0908 46.1073 31.0908H23.7294C22.1388 31.0908 20.8494 29.8013 20.8494 28.2108V19.7889Z" fill="white"/>
<path fill-rule="evenodd" clip-rule="evenodd" d="M46.1073 18.8289H23.7294C23.1992 18.8289 22.7694 19.2587 22.7694 19.7889V28.2108C22.7694 28.7409 23.1992 29.1708 23.7294 29.1708H46.1073C46.6375 29.1708 47.0673 28.7409 47.0673 28.2108V19.7889C47.0673 19.2587 46.6375 18.8289 46.1073 18.8289ZM23.7294 16.9089C22.1388 16.9089 20.8494 18.1984 20.8494 19.7889V28.2108C20.8494 29.8013 22.1388 31.0908 23.7294 31.0908H46.1073C47.6979 31.0908 48.9873 29.8013 48.9873 28.2108V19.7889C48.9873 18.1984 47.6979 16.9089 46.1073 16.9089H23.7294Z" fill="black"/>
<path d="M0.987305 36.6982C0.987305 35.1077 2.27672 33.8182 3.8673 33.8182H15.7625C17.3531 33.8182 18.6425 35.1077 18.6425 36.6982V45.1201C18.6425 46.7106 17.3531 48.0001 15.7625 48.0001H3.86731C2.27673 48.0001 0.987305 46.7106 0.987305 45.1201V36.6982Z" fill="white"/>
<path fill-rule="evenodd" clip-rule="evenodd" d="M15.7625 35.7382H3.8673C3.33711 35.7382 2.9073 36.168 2.9073 36.6982V45.1201C2.9073 45.6503 3.33711 46.0801 3.86731 46.0801H15.7625C16.2927 46.0801 16.7225 45.6503 16.7225 45.1201V36.6982C16.7225 36.168 16.2927 35.7382 15.7625 35.7382ZM3.8673 33.8182C2.27672 33.8182 0.987305 35.1077 0.987305 36.6982V45.1201C0.987305 46.7106 2.27673 48.0001 3.86731 48.0001H15.7625C17.3531 48.0001 18.6425 46.7106 18.6425 45.1201V36.6982C18.6425 35.1077 17.3531 33.8182 15.7625 33.8182H3.8673Z" fill="black"/>
<path fill-rule="evenodd" clip-rule="evenodd" d="M11.8287 4.69104H32.6287V9.49104H11.8287V4.69104Z" fill="#FDFDFD"/>
<path fill-rule="evenodd" clip-rule="evenodd" d="M12.1652 6.13098H30.0852V8.05098H12.1652V6.13098Z" fill="#F41921"/>
<path fill-rule="evenodd" clip-rule="evenodd" d="M28.4823 2.47314L31.9854 7.09091L28.4823 11.7087L26.9526 10.5482L29.5754 7.09091L26.9526 3.63357L28.4823 2.47314Z" fill="#F41921"/>
<path fill-rule="evenodd" clip-rule="evenodd" d="M11.8287 21.6001H32.6287V26.4001H11.8287V21.6001Z" fill="#FDFDFD"/>
<path fill-rule="evenodd" clip-rule="evenodd" d="M12.1652 23.04H30.0852V24.96H12.1652V23.04Z" fill="#F41921"/>
<path fill-rule="evenodd" clip-rule="evenodd" d="M28.4823 19.3823L31.9854 24.0001L28.4823 28.6178L26.9526 27.4574L29.5754 24.0001L26.9526 20.5427L28.4823 19.3823Z" fill="#F41921"/>
<path d="M20.8494 36.6982C20.8494 35.1077 22.1388 33.8182 23.7294 33.8182H46.1073C47.6979 33.8182 48.9873 35.1077 48.9873 36.6982V45.1201C48.9873 46.7106 47.6979 48.0001 46.1073 48.0001H23.7294C22.1388 48.0001 20.8494 46.7106 20.8494 45.1201V36.6982Z" fill="white"/>
<path fill-rule="evenodd" clip-rule="evenodd" d="M46.1073 35.7382H23.7294C23.1992 35.7382 22.7694 36.168 22.7694 36.6982V45.1201C22.7694 45.6503 23.1992 46.0801 23.7294 46.0801H46.1073C46.6375 46.0801 47.0673 45.6503 47.0673 45.1201V36.6982C47.0673 36.168 46.6375 35.7382 46.1073 35.7382ZM23.7294 33.8182C22.1388 33.8182 20.8494 35.1077 20.8494 36.6982V45.1201C20.8494 46.7106 22.1388 48.0001 23.7294 48.0001H46.1073C47.6979 48.0001 48.9873 46.7106 48.9873 45.1201V36.6982C48.9873 35.1077 47.6979 33.8182 46.1073 33.8182H23.7294Z" fill="black"/>
<path fill-rule="evenodd" clip-rule="evenodd" d="M11.8287 38.5092H32.6287V43.3092H11.8287V38.5092Z" fill="#FDFDFD"/>
<path fill-rule="evenodd" clip-rule="evenodd" d="M12.1652 39.9491H30.0852V41.8691H12.1652V39.9491Z" fill="#F41921"/>
<path fill-rule="evenodd" clip-rule="evenodd" d="M28.4823 36.2914L31.9854 40.9091L28.4823 45.5269L26.9526 44.3665L29.5754 40.9091L26.9526 37.4518L28.4823 36.2914Z" fill="#F41921"/>
</svg>
