<svg width="49" height="48" viewBox="0 0 49 48" fill="none" xmlns="http://www.w3.org/2000/svg">
<path fill-rule="evenodd" clip-rule="evenodd" d="M32.0683 45.4688C31.6006 45.4688 31.2214 45.0867 31.2214 44.6152L31.2214 36.0899C31.2214 35.6185 31.6006 35.2363 32.0683 35.2363C32.536 35.2363 32.9151 35.6185 32.9151 36.0899V44.6152C32.9151 45.0867 32.536 45.4688 32.0683 45.4688Z" fill="black"/>
<path fill-rule="evenodd" clip-rule="evenodd" d="M24.7038 45.469C24.2361 45.469 23.8569 45.0868 23.8569 44.6153L23.8569 36.0901C23.8569 35.6186 24.2361 35.2364 24.7038 35.2364C25.1715 35.2364 25.5506 35.6186 25.5506 36.0901V44.6153C25.5506 45.0868 25.1715 45.469 24.7038 45.469Z" fill="black"/>
<path fill-rule="evenodd" clip-rule="evenodd" d="M17.3393 45.469C16.8716 45.469 16.4925 45.0868 16.4925 44.6153L16.4925 36.0901C16.4925 35.6186 16.8716 35.2364 17.3393 35.2364C17.807 35.2364 18.1861 35.6186 18.1861 36.0901L18.1861 44.6153C18.1861 45.0868 17.807 45.469 17.3393 45.469Z" fill="black"/>
<path fill-rule="evenodd" clip-rule="evenodd" d="M31.031 36.0899C31.031 35.5125 31.4954 35.0443 32.0683 35.0443C32.6412 35.0443 33.1056 35.5125 33.1056 36.0899V44.6152C33.1056 45.1927 32.6412 45.6608 32.0683 45.6608C31.4954 45.6608 31.031 45.1927 31.031 44.6152L31.031 36.0899ZM32.0683 35.4283C31.7058 35.4283 31.4119 35.7245 31.4119 36.0899L31.4119 44.6152C31.4119 44.9806 31.7058 45.2768 32.0683 45.2768C32.4308 45.2768 32.7247 44.9806 32.7247 44.6152V36.0899C32.7247 35.7245 32.4308 35.4283 32.0683 35.4283ZM16.302 36.0901C16.302 35.5126 16.7664 35.0444 17.3393 35.0444C17.9122 35.0444 18.3766 35.5126 18.3766 36.0901L18.3766 44.6153C18.3766 45.1928 17.9122 45.6609 17.3393 45.6609C16.7664 45.6609 16.302 45.1928 16.302 44.6153L16.302 36.0901ZM17.3393 35.4284C16.9768 35.4284 16.6829 35.7246 16.6829 36.0901L16.6829 44.6153C16.6829 44.9807 16.9768 45.2769 17.3393 45.2769C17.7018 45.2769 17.9957 44.9807 17.9957 44.6153L17.9957 36.0901C17.9957 35.7246 17.7018 35.4284 17.3393 35.4284ZM23.6665 36.0901C23.6665 35.5126 24.1309 35.0444 24.7038 35.0444C25.2767 35.0444 25.7411 35.5126 25.7411 36.0901V44.6153C25.7411 45.1928 25.2767 45.6609 24.7038 45.6609C24.1309 45.6609 23.6665 45.1928 23.6665 44.6153L23.6665 36.0901ZM24.7038 35.4284C24.3413 35.4284 24.0474 35.7246 24.0474 36.0901L24.0474 44.6153C24.0474 44.9807 24.3413 45.2769 24.7038 45.2769C25.0663 45.2769 25.3602 44.9807 25.3602 44.6153V36.0901C25.3602 35.7246 25.0663 35.4284 24.7038 35.4284Z" fill="black"/>
<path fill-rule="evenodd" clip-rule="evenodd" d="M39.8888 22.241C39.6549 21.8327 39.7937 21.3107 40.1987 21.0749L47.5232 16.8123C47.9283 16.5766 48.4462 16.7165 48.68 17.1247C48.9139 17.533 48.7751 18.0551 48.3701 18.2908L41.0456 22.5534C40.6405 22.7892 40.1226 22.6493 39.8888 22.241Z" fill="black"/>
<path fill-rule="evenodd" clip-rule="evenodd" d="M36.2065 15.8121C35.9727 15.4038 36.1115 14.8818 36.5165 14.6461L43.841 10.3834C44.246 10.1477 44.764 10.2876 44.9978 10.6959C45.2317 11.1042 45.0929 11.6262 44.6878 11.8619L37.3633 16.1246C36.9583 16.3603 36.4404 16.2204 36.2065 15.8121Z" fill="black"/>
<path fill-rule="evenodd" clip-rule="evenodd" d="M32.5243 9.38318C32.2904 8.9749 32.4292 8.45283 32.8343 8.21711L40.1588 3.95447C40.5638 3.71875 41.0817 3.85864 41.3156 4.26692C41.5494 4.6752 41.4106 5.19727 41.0056 5.43299L33.6811 9.69562C33.2761 9.93134 32.7581 9.79146 32.5243 9.38318Z" fill="black"/>
<path fill-rule="evenodd" clip-rule="evenodd" d="M40.0635 3.78821C40.5597 3.49947 41.1941 3.67082 41.4805 4.17093C41.767 4.67105 41.597 5.31054 41.1008 5.59928L33.7763 9.86192C33.2802 10.1507 32.6458 9.97931 32.3593 9.47919C32.0729 8.97908 32.2429 8.33959 32.739 8.05085L40.0635 3.78821ZM41.1506 4.36293C40.9694 4.04649 40.5679 3.93806 40.254 4.12076L32.9295 8.3834C32.6156 8.5661 32.508 8.97074 32.6892 9.28719C32.8705 9.60364 33.2719 9.71206 33.5859 9.52936L40.9104 5.26673C41.2243 5.08402 41.3319 4.67938 41.1506 4.36293ZM43.7458 10.2172C44.2419 9.92842 44.8763 10.0998 45.1628 10.5999C45.4492 11.1 45.2792 11.7395 44.7831 12.0282L37.4586 16.2909C36.9624 16.5796 36.328 16.4083 36.0416 15.9081C35.7551 15.408 35.9251 14.7685 36.4213 14.4798L43.7458 10.2172ZM44.8328 10.7919C44.6516 10.4754 44.2502 10.367 43.9362 10.5497L36.6117 14.8124C36.2978 14.9951 36.1902 15.3997 36.3715 15.7161C36.5527 16.0326 36.9542 16.141 37.2681 15.9583L44.5926 11.6957C44.9065 11.513 45.0141 11.1083 44.8328 10.7919ZM47.428 16.646C47.9241 16.3573 48.5585 16.5286 48.845 17.0288C49.1314 17.5289 48.9614 18.1684 48.4653 18.4571L41.1408 22.7197C40.6447 23.0085 40.0102 22.8371 39.7238 22.337C39.4373 21.8369 39.6073 21.1974 40.1035 20.9087L47.428 16.646ZM48.5151 17.2208C48.3338 16.9043 47.9324 16.7959 47.6184 16.9786L40.294 21.2412C39.98 21.4239 39.8725 21.8286 40.0537 22.145C40.235 22.4615 40.6364 22.5699 40.9503 22.3872L48.2748 18.1245C48.5888 17.9418 48.6963 17.5372 48.5151 17.2208Z" fill="black"/>
<path fill-rule="evenodd" clip-rule="evenodd" d="M17.4407 9.58996C17.2074 9.99857 16.6902 10.1383 16.2855 9.90198L8.96271 5.62684C8.55799 5.39056 8.41902 4.86778 8.65232 4.45918C8.88561 4.05058 9.40282 3.91088 9.80754 4.14716L17.1303 8.4223C17.5351 8.65858 17.674 9.18136 17.4407 9.58996Z" fill="black"/>
<path fill-rule="evenodd" clip-rule="evenodd" d="M13.7585 16.0393C13.5252 16.4479 13.008 16.5876 12.6033 16.3513L5.28047 12.0762C4.87575 11.8399 4.73678 11.3171 4.97008 10.9085C5.20337 10.4999 5.72058 10.3602 6.1253 10.5965L13.4481 14.8716C13.8528 15.1079 13.9918 15.6307 13.7585 16.0393Z" fill="black"/>
<path fill-rule="evenodd" clip-rule="evenodd" d="M10.0762 22.4884C9.84293 22.897 9.32572 23.0367 8.921 22.8004L1.5982 18.5253C1.19348 18.289 1.05452 17.7662 1.28781 17.3576C1.52111 16.949 2.03832 16.8093 2.44304 17.0456L9.76584 21.3207C10.1706 21.557 10.3095 22.0798 10.0762 22.4884Z" fill="black"/>
<path fill-rule="evenodd" clip-rule="evenodd" d="M8.48723 4.36342C8.7731 3.86274 9.40708 3.6915 9.90301 3.98103L17.2258 8.25617C17.7214 8.54549 17.8915 9.18542 17.6058 9.68575C17.3199 10.1864 16.686 10.3577 16.19 10.0681L8.86724 5.793C8.37167 5.50368 8.20156 4.86375 8.48723 4.36342ZM9.71208 4.31332C9.39857 4.13029 8.99812 4.23845 8.8174 4.55497C8.63648 4.87184 8.74431 5.27747 9.05817 5.46071L16.381 9.73585C16.6945 9.91888 17.0949 9.81073 17.2756 9.49421C17.4566 9.17733 17.3487 8.7717 17.0349 8.58846L9.71208 4.31332ZM4.80499 10.8128C5.09086 10.3121 5.72484 10.1408 6.22077 10.4304L13.5436 14.7055C14.0391 14.9948 14.2092 15.6348 13.9236 16.1351C13.6377 16.6358 13.0037 16.807 12.5078 16.5175L5.185 12.2423C4.68943 11.953 4.51932 11.3131 4.80499 10.8128ZM6.02984 10.7627C5.71633 10.5796 5.31588 10.6878 5.13516 11.0043C4.95424 11.3212 5.06207 11.7268 5.37593 11.91L12.6987 16.1852C13.0122 16.3682 13.4127 16.2601 13.5934 15.9435C13.7743 15.6267 13.6665 15.221 13.3526 15.0378L6.02984 10.7627ZM1.12272 17.2619C1.4086 16.7612 2.04258 16.5899 2.5385 16.8795L9.8613 21.1546C10.3569 21.4439 10.527 22.0839 10.2413 22.5842C9.95545 23.0849 9.32146 23.2561 8.82554 22.9666L1.50274 18.6914C1.00716 18.4021 0.837057 17.7622 1.12272 17.2619ZM2.34758 17.2118C2.03406 17.0287 1.63362 17.1369 1.4529 17.4534C1.27198 17.7703 1.3798 18.1759 1.69367 18.3592L9.01647 22.6343C9.32998 22.8173 9.73042 22.7092 9.91114 22.3927C10.0921 22.0758 9.98424 21.6701 9.67037 21.4869L2.34758 17.2118Z" fill="black"/>
<path d="M15.354 9.93517C16.1106 8.61228 17.5105 7.79754 19.0253 7.79858L30.8324 7.80673C32.3441 7.80778 33.7406 8.62113 34.4964 9.94079L40.4128 20.2701C41.1686 21.5898 41.1692 23.2155 40.4142 24.5357L34.5177 34.8468C33.7612 36.1697 32.3612 36.9844 30.8464 36.9834L19.0394 36.9752C17.5276 36.9742 16.1312 36.1608 15.3753 34.8412L9.45898 24.5118C8.70313 23.1922 8.70258 21.5664 9.45753 20.2463L15.354 9.93517Z" fill="white"/>
<path fill-rule="evenodd" clip-rule="evenodd" d="M30.8312 9.51398L19.0242 9.50583C18.1153 9.5052 17.2753 9.99405 16.8214 10.7878L10.9249 21.0989C10.4719 21.891 10.4722 22.8664 10.9258 23.6582L16.8421 33.9876C17.2956 34.7794 18.1335 35.2674 19.0405 35.268L30.8475 35.2761C31.7564 35.2768 32.5964 34.7879 33.0503 33.9942L38.9468 23.6831C39.3998 22.891 39.3995 21.9156 38.946 21.1238L33.0297 10.7944C32.5761 10.0026 31.7382 9.5146 30.8312 9.51398ZM19.0253 7.79858C17.5105 7.79754 16.1106 8.61228 15.354 9.93517L9.45753 20.2463C8.70258 21.5664 8.70313 23.1922 9.45898 24.5118L15.3753 34.8412C16.1312 36.1608 17.5276 36.9742 19.0394 36.9752L30.8464 36.9834C32.3612 36.9844 33.7612 36.1697 34.5177 34.8468L40.4142 24.5357C41.1692 23.2155 41.1686 21.5898 40.4128 20.2701L34.4964 9.94079C33.7406 8.62113 32.3441 7.80778 30.8324 7.80673L19.0253 7.79858Z" fill="black"/>
<path fill-rule="evenodd" clip-rule="evenodd" d="M19.0252 7.99069C17.5785 7.98969 16.2416 8.76778 15.5191 10.0312L9.62256 20.3422C8.90156 21.603 8.90209 23.1556 9.62394 24.4159L15.5403 34.7453C16.2621 36.0056 17.5958 36.7823 19.0395 36.7833L30.8465 36.7915C32.2932 36.7925 33.6302 36.0144 34.3527 34.751L40.2492 24.4399C40.9702 23.1792 40.9697 21.6265 40.2478 20.3663L34.3315 10.0369C33.6096 8.7766 32.276 7.99984 30.8323 7.99884L19.0252 7.99069ZM15.189 9.83939C15.9796 8.45699 17.4425 7.6056 19.0255 7.60669L30.8325 7.61484C32.4122 7.61593 33.8715 8.46588 34.6614 9.84489L40.5777 20.1743C41.3676 21.5533 41.3681 23.2522 40.5792 24.6317L34.6827 34.9428C33.8922 36.3252 32.4292 37.1766 30.8463 37.1755L19.0392 37.1673C17.4595 37.1663 16.0002 36.3163 15.2103 34.9373L9.29403 24.6079C8.50417 23.2289 8.5036 21.53 9.29251 20.1505L15.189 9.83939ZM19.0241 9.69793C18.1833 9.69735 17.4063 10.1495 16.9864 10.8838L11.0899 21.1949C10.6709 21.9276 10.6712 22.8299 11.0907 23.5623L17.007 33.8917C17.4266 34.6241 18.2016 35.0755 19.0406 35.0761L30.8477 35.0843C31.6884 35.0848 32.4654 34.6326 32.8853 33.8984L38.7818 23.5873C39.2008 22.8546 39.2005 21.9523 38.781 21.2199L32.8647 10.8905C32.4452 10.1581 31.6701 9.70666 30.8311 9.70608L19.0241 9.69793ZM16.6564 10.692C17.1443 9.83876 18.0473 9.31326 19.0243 9.31393L30.8314 9.32208C31.8064 9.32276 32.7071 9.84736 33.1946 10.6985L39.1109 21.0279C39.5985 21.879 39.5988 22.9276 39.1119 23.7791L33.2154 34.0902C32.7274 34.9434 31.8245 35.4689 30.8474 35.4683L19.0404 35.4601C18.0654 35.4594 17.1646 34.9348 16.6771 34.0837L10.7608 23.7543C10.2733 22.9032 10.2729 21.8546 10.7599 21.0031L16.6564 10.692Z" fill="black"/>
<path fill-rule="evenodd" clip-rule="evenodd" d="M27.4476 15.3388L22.2732 15.3388C21.3654 15.3388 20.5261 15.8288 20.0722 16.6238L17.485 21.1551C17.0321 21.9484 17.0317 22.925 17.4842 23.7174L20.0771 28.2589C20.5296 29.0513 21.3661 29.5393 22.2721 29.5393H27.4464C28.3542 29.5393 29.1936 29.0493 29.6475 28.2543L32.2346 23.723C32.6876 22.9296 32.6879 21.953 32.2355 21.1606L29.6425 16.6192C29.1901 15.8268 28.3535 15.3388 27.4476 15.3388ZM22.2756 13.6295C20.7625 13.6295 19.3637 14.4462 18.6072 15.7712L16.02 20.3025C15.265 21.6247 15.2645 23.2524 16.0185 24.5731L18.6115 29.1145C19.3656 30.4352 20.7599 31.2485 22.2698 31.2485H27.4441C28.9571 31.2485 30.356 30.4319 31.1125 29.1069L33.6997 24.5756C34.4546 23.2533 34.4552 21.6257 33.7011 20.305L31.1082 15.7636C30.3541 14.4429 28.9598 13.6295 27.4499 13.6295L22.2756 13.6295Z" fill="#ED1C24"/>
<path fill-rule="evenodd" clip-rule="evenodd" d="M27.4499 13.8215L22.2756 13.8215C20.8309 13.8215 19.4949 14.6013 18.7723 15.8669L16.1851 20.3982C15.4639 21.6613 15.4635 23.216 16.1836 24.4773L18.7766 29.0187C19.4967 30.28 20.8281 31.0565 22.2698 31.0565H27.4441C28.8888 31.0565 30.2248 30.2767 30.9474 29.0111L33.5346 24.4798C34.2557 23.2168 34.2562 21.6621 33.536 20.4007L30.9431 15.8593C30.2229 14.5981 28.8916 13.8215 27.4499 13.8215ZM22.2756 13.4375L27.4499 13.4375C29.0281 13.4375 30.4852 14.2876 31.2732 15.6678L33.8662 20.2092C34.6542 21.5893 34.6535 23.2899 33.8648 24.6714L31.2776 29.2026C30.4872 30.587 29.0255 31.4405 27.4441 31.4405H22.2698C20.6916 31.4405 19.2344 30.5904 18.4464 29.2103L15.8535 24.6688C15.0655 23.2888 15.0661 21.5881 15.8549 20.2067L18.4421 15.6754C19.2325 14.291 20.6942 13.4375 22.2756 13.4375ZM27.4476 15.5308H22.2732C21.4338 15.5308 20.6573 15.9839 20.2373 16.7195L17.6501 21.2508C17.2309 21.985 17.2307 22.8886 17.6492 23.6216L20.2422 28.1631C20.6607 28.896 21.4344 29.3473 22.2721 29.3473H27.4464C28.2859 29.3473 29.0624 28.8941 29.4824 28.1585L32.0696 23.6272C32.4887 22.8931 32.489 21.9894 32.0704 21.2564L29.4775 16.715C29.059 15.982 28.2853 15.5308 27.4476 15.5308ZM22.2732 15.1468L27.4476 15.1468C28.4218 15.1468 29.3212 15.6716 29.8076 16.5234L32.4006 21.0648C32.8869 21.9166 32.8865 22.9662 32.3997 23.8188L29.8126 28.35C29.3248 29.2044 28.4226 29.7313 27.4464 29.7313H22.2721C21.2979 29.7313 20.3984 29.2065 19.912 28.3546L17.3191 23.8132C16.8327 22.9614 16.8332 21.9118 17.3199 21.0593L19.9071 16.528C20.3949 15.6736 21.2971 15.1468 22.2732 15.1468Z" fill="#ED1C24"/>
</svg>
