<svg width="49" height="48" viewBox="0 0 49 48" fill="none" xmlns="http://www.w3.org/2000/svg">
<path fill-rule="evenodd" clip-rule="evenodd" d="M8.59127 7.90243C8.59127 3.53804 12.1293 0 16.4937 0C20.8581 0 24.3961 3.53804 24.3961 7.90243V40.0976C24.3961 44.4619 20.8581 48 16.4937 48C12.1293 48 8.59127 44.4619 8.59127 40.0976V38.0206C4.36221 37.867 0.980957 34.3901 0.980957 30.1235V29.7206C0.980957 27.4701 1.92172 25.4393 3.43144 24C1.92172 22.5608 0.980957 20.53 0.980957 18.2794V17.8765C0.980957 13.6099 4.36221 10.1331 8.59127 9.97939V7.90243Z" fill="white"/>
<path fill-rule="evenodd" clip-rule="evenodd" d="M8.6639 36.022C9.73949 36.061 10.5913 36.9443 10.5913 38.0206V40.0976C10.5913 43.3574 13.2339 46 16.4937 46C19.7535 46 22.3961 43.3574 22.3961 40.0976V7.90243C22.3961 4.64261 19.7535 2 16.4937 2C13.2339 2 10.5913 4.64261 10.5913 7.90243V9.97939C10.5913 11.0557 9.73949 11.939 8.6639 11.9781C5.50649 12.0928 2.98096 14.6902 2.98096 17.8765V18.2794C2.98096 19.9606 3.68121 21.4749 4.81147 22.5524C5.20739 22.9299 5.43144 23.453 5.43144 24C5.43144 24.547 5.20739 25.0702 4.81147 25.4476C3.68121 26.5251 2.98096 28.0394 2.98096 29.7206V30.1235C2.98096 33.3099 5.50649 35.9072 8.6639 36.022ZM2.90735 24.5498C1.70714 25.9357 0.980957 27.7433 0.980957 29.7206V30.1235C0.980957 34.3901 4.36221 37.867 8.59127 38.0206V40.0976C8.59127 44.4619 12.1293 48 16.4937 48C20.8581 48 24.3961 44.4619 24.3961 40.0976V7.90243C24.3961 3.53804 20.8581 0 16.4937 0C12.1293 0 8.59127 3.53804 8.59127 7.90243V9.97939C4.36221 10.1331 0.980957 13.6099 0.980957 17.8765V18.2794C0.980957 20.2567 1.70714 22.0644 2.90735 23.4503C3.07322 23.6418 3.24814 23.8253 3.43144 24C3.24813 24.1748 3.07322 24.3582 2.90735 24.5498Z" fill="black"/>
<path fill-rule="evenodd" clip-rule="evenodd" d="M41.3707 40.0976C41.3707 44.462 37.8326 48 33.4682 48C29.1038 48 25.5658 44.462 25.5658 40.0976L25.5658 7.90244C25.5658 3.53805 29.1038 1.34082e-05 33.4682 1.38146e-05C37.8326 1.42209e-05 41.3707 3.53805 41.3707 7.90245L41.3707 9.97935C45.5997 10.133 48.981 13.6099 48.981 17.8765L48.981 18.2794C48.981 20.5299 48.0402 22.5607 46.5305 24C48.0402 25.4392 48.981 27.47 48.981 29.7206L48.981 30.1235C48.981 34.3901 45.5997 37.8669 41.3707 38.0206L41.3707 40.0976Z" fill="white"/>
<path fill-rule="evenodd" clip-rule="evenodd" d="M41.298 11.978C40.2224 11.9389 39.3707 11.0557 39.3707 9.97935L39.3707 7.90245C39.3707 4.64262 36.728 2.00001 33.4682 2.00001C30.2084 2.00001 27.5658 4.64262 27.5658 7.90244L27.5658 40.0976C27.5658 43.3574 30.2084 46 33.4682 46C36.728 46 39.3706 43.3574 39.3706 40.0976L39.3707 38.0206C39.3707 36.9443 40.2224 36.061 41.298 36.0219C44.4554 35.9072 46.981 33.3098 46.981 30.1235L46.981 29.7206C46.981 28.0394 46.2807 26.5251 45.1504 25.4476C44.7545 25.0701 44.5305 24.547 44.5305 24C44.5305 23.453 44.7545 22.9298 45.1504 22.5524C46.2807 21.4749 46.981 19.9606 46.981 18.2794L46.981 17.8765C46.981 14.6901 44.4554 12.0928 41.298 11.978ZM47.0546 23.4502C48.2548 22.0643 48.981 20.2567 48.981 18.2794L48.981 17.8765C48.981 13.6099 45.5997 10.133 41.3707 9.97935L41.3707 7.90245C41.3707 3.53805 37.8326 1.42209e-05 33.4682 1.38146e-05C29.1038 1.34082e-05 25.5658 3.53805 25.5658 7.90244L25.5658 40.0976C25.5658 44.462 29.1038 48 33.4682 48C37.8326 48 41.3707 44.462 41.3707 40.0976L41.3707 38.0206C45.5997 37.8669 48.981 34.3901 48.981 30.1235L48.981 29.7206C48.981 27.7433 48.2548 25.9356 47.0546 24.5497C46.8887 24.3582 46.7138 24.1747 46.5305 24C46.7138 23.8252 46.8887 23.6418 47.0546 23.4502Z" fill="black"/>
<path fill-rule="evenodd" clip-rule="evenodd" d="M33.0746 14.1722C33.8537 14.1722 34.4853 13.5406 34.4853 12.7615C34.4853 11.9823 33.8537 11.3507 33.0746 11.3507C32.2955 11.3507 31.6639 11.9823 31.6639 12.7615C31.6639 13.5406 32.2955 14.1722 33.0746 14.1722ZM33.0746 16.1722C34.9583 16.1722 36.4853 14.6452 36.4853 12.7615C36.4853 10.8778 34.9583 9.35071 33.0746 9.35071C31.1909 9.35071 29.6639 10.8778 29.6639 12.7615C29.6639 14.6452 31.1909 16.1722 33.0746 16.1722Z" fill="#ED1C24"/>
<path fill-rule="evenodd" clip-rule="evenodd" d="M38.9287 24.7695C39.7078 24.7695 40.3394 24.1379 40.3394 23.3587C40.3394 22.5796 39.7078 21.948 38.9287 21.948C38.1496 21.948 37.518 22.5796 37.518 23.3587C37.518 24.1379 38.1496 24.7695 38.9287 24.7695ZM38.9287 26.7695C40.8124 26.7695 42.3394 25.2424 42.3394 23.3587C42.3394 21.475 40.8124 19.948 38.9287 19.948C37.045 19.948 35.518 21.475 35.518 23.3587C35.518 25.2424 37.045 26.7695 38.9287 26.7695Z" fill="#ED1C24"/>
<path fill-rule="evenodd" clip-rule="evenodd" d="M33.0746 36.6137C33.8537 36.6137 34.4854 35.9821 34.4854 35.203C34.4854 34.4238 33.8537 33.7922 33.0746 33.7922C32.2955 33.7922 31.6639 34.4238 31.6639 35.203C31.6639 35.9821 32.2955 36.6137 33.0746 36.6137ZM33.0746 38.6137C34.9583 38.6137 36.4854 37.0867 36.4854 35.203C36.4854 33.3193 34.9583 31.7922 33.0746 31.7922C31.1909 31.7922 29.6639 33.3193 29.6639 35.203C29.6639 37.0867 31.1909 38.6137 33.0746 38.6137Z" fill="#ED1C24"/>
<path fill-rule="evenodd" clip-rule="evenodd" d="M27.5686 23L36.9919 23L36.9919 25L27.5686 25L27.5686 23Z" fill="#ED1C24"/>
<path fill-rule="evenodd" clip-rule="evenodd" d="M27.5686 12.3333L31.6586 12.3333L31.6586 14.3333L27.5686 14.3333L27.5686 12.3333Z" fill="#ED1C24"/>
<path fill-rule="evenodd" clip-rule="evenodd" d="M27.5686 34.3334L31.6586 34.3334L31.6586 36.3334L27.5686 36.3334L27.5686 34.3334Z" fill="#ED1C24"/>
</svg>
