<svg width="49" height="48" viewBox="0 0 49 48" fill="none" xmlns="http://www.w3.org/2000/svg">
<path fill-rule="evenodd" clip-rule="evenodd" d="M19.6791 2C19.6791 0.895432 20.5745 0 21.6791 0H27.6531C28.7577 0 29.6531 0.895431 29.6531 2V3.6423C31.8999 4.15617 34.0086 5.03241 35.9144 6.20627L36.9661 5.15449C37.7472 4.37344 39.0135 4.37344 39.7946 5.15449L43.6754 9.03535C44.4565 9.8164 44.4565 11.0827 43.6754 11.8638L42.658 12.8812C43.778 14.6584 44.6375 16.6164 45.1828 18.7014H46.9778C48.0824 18.7014 48.9778 19.5968 48.9778 20.7014V26.6754C48.9778 27.78 48.0824 28.6754 46.9778 28.6754H45.3355C44.8217 30.9222 43.9454 33.0309 42.7715 34.9367L43.8233 35.9884C44.6043 36.7695 44.6043 38.0358 43.8233 38.8169L39.9424 42.6977C39.1614 43.4788 37.895 43.4788 37.114 42.6977L36.0966 41.6803C34.1433 42.9113 31.9717 43.8275 29.6531 44.3578V46C29.6531 47.1046 28.7577 48 27.6531 48H21.6791C20.5745 48 19.6791 47.1046 19.6791 46V44.205C17.5941 43.6598 15.6362 42.8003 13.859 41.6803L12.5627 42.9765C11.7817 43.7575 10.5154 43.7575 9.73431 42.9765L5.85344 39.0956C5.07239 38.3146 5.07239 37.0482 5.85344 36.2672L7.18402 34.9366C6.01017 33.0308 5.13393 30.9222 4.62006 28.6754H2.97778C1.87321 28.6754 0.977783 27.78 0.977783 26.6754V20.7014C0.977783 19.5968 1.87321 18.7014 2.97778 18.7014H4.77281C5.31808 16.6164 6.17754 14.6585 7.29756 12.8813L6.00131 11.585C5.22026 10.804 5.22026 9.53763 6.00131 8.75659L9.88217 4.87572C10.6632 4.09467 11.9295 4.09467 12.7106 4.87572L14.0412 6.20631C15.7697 5.14163 17.6651 4.32177 19.6791 3.79506V2Z" fill="white"/>
<path fill-rule="evenodd" clip-rule="evenodd" d="M27.6531 5.23652L27.6531 2L21.6791 2V5.33928L20.1851 5.72999C18.3658 6.20579 16.653 6.94653 15.0901 7.9092L13.7445 8.73802L11.2964 6.28993L7.41552 10.1708L9.84111 12.5964L8.98958 13.9476C7.97682 15.5546 7.2003 17.324 6.70773 19.2074L6.31702 20.7014H2.97778L2.97778 26.6754H6.21428L6.56972 28.2295C7.03393 30.2591 7.82556 32.1646 8.88692 33.8877L9.71572 35.2333L7.26766 37.6814L11.1485 41.5623L13.5741 39.1367L14.9253 39.9882C16.5323 41.001 18.3017 41.7775 20.1851 42.2701L21.6791 42.6608L21.6791 46H27.6531V42.7636L29.2072 42.4081C31.3018 41.9291 33.2641 41.1013 35.0303 39.9883L36.3815 39.1367L38.5282 41.2835L42.4091 37.4026L40.2398 35.2334L41.0687 33.8878C42.13 32.1646 42.9217 30.2592 43.3859 28.2295L43.7413 26.6754H46.9778V20.7014H43.6386L43.2479 19.2074C42.7553 17.324 41.9788 15.5546 40.966 13.9475L40.1144 12.5963L42.2612 10.4496L38.3804 6.5687L36.2111 8.73797L34.8655 7.90916C33.1423 6.8478 31.2369 6.05617 29.2072 5.59196L27.6531 5.23652ZM29.6531 3.6423V2C29.6531 0.895431 28.7577 0 27.6531 0H21.6791C20.5745 0 19.6791 0.895432 19.6791 2V3.79506C17.6651 4.32177 15.7697 5.14163 14.0412 6.20631L12.7106 4.87572C11.9295 4.09467 10.6632 4.09467 9.88217 4.87572L6.00131 8.75659C5.22026 9.53763 5.22026 10.804 6.00131 11.585L7.29756 12.8813C6.17754 14.6585 5.31808 16.6164 4.77281 18.7014H2.97778C1.87321 18.7014 0.977783 19.5968 0.977783 20.7014V26.6754C0.977783 27.78 1.87321 28.6754 2.97778 28.6754H4.62006C5.13393 30.9222 6.01017 33.0308 7.18402 34.9366L5.85344 36.2672C5.07239 37.0482 5.07239 38.3146 5.85344 39.0956L9.73431 42.9765C10.5154 43.7575 11.7817 43.7575 12.5627 42.9765L13.859 41.6803C15.6362 42.8003 17.5941 43.6598 19.6791 44.205V46C19.6791 47.1046 20.5745 48 21.6791 48H27.6531C28.7577 48 29.6531 47.1046 29.6531 46V44.3578C31.9717 43.8275 34.1433 42.9113 36.0966 41.6803L37.114 42.6977C37.895 43.4788 39.1614 43.4788 39.9424 42.6977L43.8233 38.8169C44.6043 38.0358 44.6043 36.7695 43.8233 35.9884L42.7715 34.9367C43.9454 33.0309 44.8217 30.9222 45.3355 28.6754H46.9778C48.0824 28.6754 48.9778 27.78 48.9778 26.6754V20.7014C48.9778 19.5968 48.0824 18.7014 46.9778 18.7014H45.1828C44.6375 16.6164 43.778 14.6584 42.658 12.8812L43.6754 11.8638C44.4565 11.0827 44.4565 9.8164 43.6754 9.03535L39.7946 5.15449C39.0135 4.37344 37.7472 4.37344 36.9661 5.15449L35.9144 6.20627C34.0086 5.03241 31.8999 4.15617 29.6531 3.6423Z" fill="black"/>
<path fill-rule="evenodd" clip-rule="evenodd" d="M24.9778 35.753C31.7665 35.753 37.2699 30.2496 37.2699 23.4608C37.2699 16.6721 31.7665 11.1687 24.9778 11.1687C18.189 11.1687 12.6856 16.6721 12.6856 23.4608C12.6856 30.2496 18.189 35.753 24.9778 35.753ZM24.9778 37.753C32.8711 37.753 39.2699 31.3542 39.2699 23.4608C39.2699 15.5675 32.8711 9.1687 24.9778 9.1687C17.0844 9.1687 10.6856 15.5675 10.6856 23.4608C10.6856 31.3542 17.0844 37.753 24.9778 37.753Z" fill="black"/>
</svg>
