<svg width="49" height="48" viewBox="0 0 49 48" fill="none" xmlns="http://www.w3.org/2000/svg">
<g clip-path="url(#clip0)">
<path fill-rule="evenodd" clip-rule="evenodd" d="M26.4449 17.5175C28.8188 13.6474 32.4912 12.1409 36.6924 12.1409C43.4987 12.1409 49.0244 17.5805 49.0244 24.3007C49.0244 31.0208 43.4987 36.4605 36.6924 36.4605C32.7856 36.4605 29.3016 34.6678 27.0434 31.8736L26.8552 31.6408L28.6636 30.2192L28.8468 30.4459C30.6843 32.7194 33.5148 34.1748 36.6924 34.1748C42.2322 34.1748 46.715 29.7496 46.715 24.3007C46.715 18.8518 42.2322 14.4266 36.6924 14.4266C33.1186 14.4266 30.2887 15.6555 28.419 18.7037C28.3859 18.7577 28.2821 18.9716 28.1229 19.3738C27.9748 19.748 27.8028 20.2232 27.6297 20.7475C27.2803 21.8057 26.9447 23.0082 26.7857 23.9485C26.2374 27.1913 24.5239 30.0987 23.7084 31.1897L23.5339 31.4231L23.5115 31.4069C21.2731 34.4668 17.6239 36.4605 13.5034 36.4605C6.69716 36.4605 1.17145 31.0208 1.17145 24.3007C1.17145 17.5806 6.69716 12.1409 13.5034 12.1409C17.4102 12.1409 20.8943 13.9336 23.1524 16.7277L23.3406 16.9606L21.5322 18.3821L21.349 18.1555C19.5115 15.882 16.681 14.4266 13.5034 14.4266C7.96363 14.4266 3.48085 18.8518 3.48085 24.3007C3.48085 29.7496 7.96363 34.1748 13.5034 34.1748C16.9905 34.1748 20.0608 32.4215 21.8574 29.7583L22.0205 29.5165L22.0572 29.5406C22.794 28.4547 24.0807 26.0986 24.508 23.5712C24.6943 22.4697 25.0689 21.1448 25.4345 20.0375C25.6189 19.4791 25.8057 18.9619 25.9725 18.5402C26.1286 18.1459 26.2958 17.7606 26.4449 17.5175Z" fill="black"/>
<path fill-rule="evenodd" clip-rule="evenodd" d="M22.5042 12.6729C22.5042 12.0378 23.0251 11.53 23.6589 11.53C24.2927 11.53 24.8136 12.0378 24.8136 12.6729V18.6051C24.8136 19.2401 24.2927 19.7479 23.6589 19.7479H16.7844C16.1506 19.7479 15.6297 19.2401 15.6297 18.6051C15.6297 17.9701 16.1506 17.4622 16.7844 17.4622H22.5042V12.6729Z" fill="#FF1019"/>
</g>
<defs>
<clipPath id="clip0">
<rect width="48" height="48" fill="white" transform="translate(0.971436)"/>
</clipPath>
</defs>
</svg>
