<svg width="49" height="48" viewBox="0 0 49 48" fill="none" xmlns="http://www.w3.org/2000/svg">
<path d="M12.3896 20.8024C12.3896 25.0439 15.8281 28.4824 20.0696 28.4824L39.1043 28.4824C40.5958 28.4824 42.0551 28.9167 43.3039 29.7323L48.9221 33.4017V7.67988C48.9221 3.43833 45.4837 -0.000133514 41.2421 -0.000133514L20.0696 -0.000133514C15.8281 -0.000133514 12.3896 3.43832 12.3896 7.67987L12.3896 20.8024Z" fill="white"/>
<path fill-rule="evenodd" clip-rule="evenodd" d="M48.9221 33.4017L43.3039 29.7323C42.0551 28.9167 40.5958 28.4824 39.1043 28.4824L20.0696 28.4824C15.8281 28.4824 12.3896 25.0439 12.3896 20.8024L12.3896 7.67987C12.3896 3.43832 15.8281 -0.000133514 20.0696 -0.000133514L41.2421 -0.000133514C45.4837 -0.000133514 48.9221 3.43833 48.9221 7.67988V33.4017ZM47.0021 29.8545L44.3538 28.1248C42.7928 27.1053 40.9687 26.5624 39.1043 26.5624L20.0696 26.5624C16.8885 26.5624 14.3096 23.9836 14.3096 20.8024L14.3096 7.67987C14.3096 4.49871 16.8885 1.91987 20.0696 1.91987L41.2421 1.91987C44.4233 1.91987 47.0021 4.49871 47.0021 7.67988V29.8545Z" fill="black"/>
<path d="M36.315 28.086C36.315 23.8445 32.8765 20.406 28.635 20.406L10.505 20.406C9.01348 20.406 7.55421 19.9717 6.30541 19.1561L0.922131 15.6401V40.32C0.922131 44.5616 4.36058 48 8.60213 48H28.635C32.8765 48 36.315 44.5616 36.315 40.32V28.086Z" fill="white"/>
<path fill-rule="evenodd" clip-rule="evenodd" d="M0.922131 15.6401L6.30541 19.1561C7.55421 19.9717 9.01348 20.406 10.505 20.406L28.635 20.406C32.8765 20.406 36.315 23.8445 36.315 28.086V40.32C36.315 44.5616 32.8765 48 28.635 48H8.60213C4.36058 48 0.922131 44.5616 0.922131 40.32V15.6401ZM2.84213 19.1874L5.25551 20.7636C6.8165 21.7831 8.64059 22.326 10.505 22.326L28.635 22.326C31.8162 22.326 34.395 24.9049 34.395 28.086V40.32C34.395 43.5012 31.8162 46.08 28.635 46.08H8.60213C5.42097 46.08 2.84213 43.5012 2.84213 40.32V19.1874Z" fill="#F41921"/>
<path d="M14.0814 34.2101C14.0814 35.3312 13.1859 36.2401 12.0813 36.2401C10.9767 36.2401 10.0812 35.3312 10.0812 34.2101C10.0812 33.0889 10.9767 32.1801 12.0813 32.1801C13.1859 32.1801 14.0814 33.0889 14.0814 34.2101Z" fill="#F41921"/>
<path d="M26.5379 14.671C26.5379 15.7922 25.6424 16.7011 24.5378 16.7011C23.4332 16.7011 22.5378 15.7922 22.5378 14.671C22.5378 13.5499 23.4332 12.641 24.5378 12.641C25.6424 12.641 26.5379 13.5499 26.5379 14.671Z" fill="black"/>
<path d="M20.6187 34.2101C20.6187 35.3312 19.7233 36.2401 18.6187 36.2401C17.514 36.2401 16.6186 35.3312 16.6186 34.2101C16.6186 33.0889 17.514 32.1801 18.6187 32.1801C19.7233 32.1801 20.6187 33.0889 20.6187 34.2101Z" fill="#F41921"/>
<path d="M33.0751 14.671C33.0751 15.7922 32.1797 16.7011 31.0751 16.7011C29.9705 16.7011 29.075 15.7922 29.075 14.671C29.075 13.5499 29.9705 12.641 31.0751 12.641C32.1797 12.641 33.0751 13.5499 33.0751 14.671Z" fill="black"/>
<path d="M27.1561 34.2101C27.1561 35.3312 26.2607 36.2401 25.1561 36.2401C24.0515 36.2401 23.156 35.3312 23.156 34.2101C23.156 33.0889 24.0515 32.1801 25.1561 32.1801C26.2607 32.1801 27.1561 33.0889 27.1561 34.2101Z" fill="#F41921"/>
<path d="M39.6126 14.671C39.6126 15.7922 38.7172 16.7011 37.6125 16.7011C36.5079 16.7011 35.6125 15.7922 35.6125 14.671C35.6125 13.5499 36.5079 12.641 37.6125 12.641C38.7172 12.641 39.6126 13.5499 39.6126 14.671Z" fill="black"/>
</svg>
