<svg width="604" height="747" viewBox="0 0 604 747" fill="none" xmlns="http://www.w3.org/2000/svg">
<path d="M243.512 46.5439L524.935 208.641L524.935 605.239L243.512 443.141L243.512 46.5439Z" fill="#0070CC" stroke="#F6F6F6"/>
<rect width="90.2134" height="396.597" transform="matrix(0.866274 -0.49957 2.20558e-08 1 524.85 208.788)" fill="#0070CC" stroke="#F6F6F6"/>
<path d="M321.661 1.47704L602.835 164.008L524.731 209.156L243.558 46.6246L321.661 1.47704Z" fill="#0070CC" stroke="#F6F6F6"/>
<path d="M122.256 116.85L403.679 278.948L403.679 675.545L122.256 513.448L122.256 116.85Z" fill="#0070CC" stroke="#F6F6F6"/>
<rect width="90.2134" height="396.597" transform="matrix(0.866274 -0.49957 2.20558e-08 1 403.594 279.096)" fill="#0070CC" stroke="#F6F6F6"/>
<path d="M200.406 71.7832L481.579 234.315L403.475 279.462L122.302 116.931L200.406 71.7832Z" fill="#0070CC" stroke="#F6F6F6"/>
<path d="M1 187.158L282.423 349.256L282.423 745.853L0.999992 583.756L1 187.158Z" fill="#0070CC" stroke="#F6F6F6"/>
<rect width="90.2134" height="396.597" transform="matrix(0.866274 -0.49957 2.20558e-08 1 282.339 349.402)" fill="#0070CC" stroke="#F6F6F6"/>
<path d="M79.1494 142.091L360.322 304.623L282.219 349.77L1.0458 187.239L79.1494 142.091Z" fill="#0070CC" stroke="#F6F6F6"/>
<path fill-rule="evenodd" clip-rule="evenodd" d="M35.6267 262.065C35.6267 261.513 36.0144 261.289 36.4927 261.565L166.014 336.344C166.493 336.621 166.88 337.292 166.88 337.844V364.688C166.88 365.24 166.493 365.464 166.014 365.188L36.4927 290.409C36.0144 290.132 35.6267 289.461 35.6267 288.909L35.6267 262.065ZM35.6267 312.545C35.6267 311.993 36.0147 311.768 36.4932 312.044L106.679 352.471C107.158 352.746 107.546 353.418 107.546 353.97V380.813C107.546 381.366 107.158 381.59 106.679 381.314L36.4932 340.887C36.0147 340.612 35.6267 339.941 35.6267 339.388L35.6267 312.545ZM36.4932 362.521C36.0147 362.245 35.6267 362.469 35.6267 363.022L35.6267 389.865C35.6267 390.417 36.0147 391.089 36.4932 391.364L209.868 491.227C210.346 491.502 210.734 491.278 210.734 490.726V463.882C210.734 463.33 210.346 462.659 209.868 462.383L36.4932 362.521Z" fill="#0070CC"/>
<path d="M36.4927 261.565L36.2427 261.998V261.998L36.4927 261.565ZM35.6267 262.065L36.1267 262.065L35.6267 262.065ZM166.014 336.344L166.264 335.911L166.264 335.911L166.014 336.344ZM166.014 365.188L165.764 365.621L166.014 365.188ZM36.4927 290.409L36.7427 289.976L36.7427 289.976L36.4927 290.409ZM35.6267 288.909H35.1267H35.6267ZM36.4932 312.044L36.7428 311.611H36.7428L36.4932 312.044ZM35.6267 312.545H35.1267H35.6267ZM106.679 352.471L106.929 352.037H106.929L106.679 352.471ZM106.679 381.314L106.929 380.881L106.679 381.314ZM36.4932 340.887L36.7428 340.454H36.7428L36.4932 340.887ZM35.6267 339.388H35.1267H35.6267ZM35.6267 363.022H36.1267H35.6267ZM36.4932 362.521L36.2437 362.954H36.2437L36.4932 362.521ZM35.6267 389.865H35.1267H35.6267ZM36.4932 391.364L36.7428 390.931L36.7428 390.931L36.4932 391.364ZM209.868 491.227L209.618 491.66H209.618L209.868 491.227ZM209.868 462.383L209.618 462.816H209.618L209.868 462.383ZM36.7427 261.132C36.4125 260.941 35.9963 260.86 35.6304 261.071C35.2644 261.283 35.1267 261.684 35.1267 262.065L36.1267 262.065C36.1267 261.984 36.1412 261.941 36.1482 261.926C36.154 261.913 36.1513 261.925 36.1304 261.937C36.1094 261.95 36.0977 261.946 36.1113 261.947C36.1279 261.949 36.1722 261.957 36.2427 261.998L36.7427 261.132ZM166.264 335.911L36.7427 261.132L36.2427 261.998L165.764 336.777L166.264 335.911ZM167.38 337.844C167.38 337.46 167.249 337.068 167.06 336.741C166.871 336.414 166.597 336.104 166.264 335.911L165.764 336.777C165.91 336.861 166.069 337.025 166.194 337.241C166.318 337.456 166.38 337.677 166.38 337.844H167.38ZM167.38 364.688V337.844H166.38V364.688H167.38ZM165.764 365.621C166.095 365.812 166.511 365.893 166.877 365.682C167.243 365.47 167.38 365.069 167.38 364.688H166.38C166.38 364.769 166.366 364.812 166.359 364.827C166.353 364.84 166.356 364.828 166.377 364.816C166.398 364.803 166.409 364.807 166.396 364.806C166.379 364.804 166.335 364.796 166.264 364.755L165.764 365.621ZM36.2427 290.842L165.764 365.621L166.264 364.755L36.7427 289.976L36.2427 290.842ZM35.1267 288.909C35.1267 289.293 35.2584 289.685 35.4474 290.012C35.6363 290.339 35.9097 290.649 36.2427 290.842L36.7427 289.976C36.5975 289.892 36.4378 289.728 36.3134 289.512C36.1889 289.296 36.1267 289.076 36.1267 288.909H35.1267ZM35.1267 262.065L35.1267 288.909H36.1267L36.1267 262.065L35.1267 262.065ZM36.7428 311.611C36.4122 311.42 35.996 311.34 35.6303 311.551C35.2646 311.763 35.1267 312.163 35.1267 312.545H36.1267C36.1267 312.463 36.1412 312.421 36.1483 312.406C36.1541 312.393 36.1515 312.405 36.1307 312.417C36.11 312.429 36.0985 312.425 36.1122 312.426C36.1288 312.428 36.1731 312.437 36.2437 312.477L36.7428 311.611ZM106.929 352.037L36.7428 311.611L36.2437 312.477L106.43 352.904L106.929 352.037ZM108.046 353.97C108.046 353.585 107.914 353.194 107.725 352.866C107.536 352.539 107.262 352.229 106.929 352.037L106.43 352.904C106.575 352.988 106.735 353.151 106.859 353.367C106.984 353.582 107.046 353.802 107.046 353.97H108.046ZM108.046 380.813V353.97H107.046V380.813H108.046ZM106.43 381.747C106.76 381.938 107.177 382.018 107.542 381.807C107.908 381.596 108.046 381.195 108.046 380.813H107.046C107.046 380.895 107.031 380.937 107.024 380.953C107.019 380.965 107.021 380.953 107.042 380.941C107.063 380.929 107.074 380.933 107.06 380.932C107.044 380.93 106.999 380.922 106.929 380.881L106.43 381.747ZM36.2437 341.321L106.43 381.747L106.929 380.881L36.7428 340.454L36.2437 341.321ZM35.1267 339.388C35.1267 339.773 35.2585 340.165 35.4476 340.492C35.6368 340.819 35.9104 341.129 36.2437 341.321L36.7428 340.454C36.5975 340.371 36.4379 340.207 36.3134 339.991C36.1889 339.776 36.1267 339.556 36.1267 339.388H35.1267ZM35.1267 312.545L35.1267 339.388H36.1267L36.1267 312.545H35.1267ZM36.1267 363.022C36.1267 362.94 36.1412 362.897 36.1483 362.882C36.1541 362.87 36.1515 362.882 36.1307 362.894C36.11 362.906 36.0985 362.902 36.1122 362.903C36.1288 362.905 36.1731 362.913 36.2437 362.954L36.7428 362.087C36.4122 361.897 35.996 361.816 35.6303 362.028C35.2646 362.239 35.1267 362.64 35.1267 363.022H36.1267ZM36.1267 389.865L36.1267 363.022H35.1267L35.1267 389.865H36.1267ZM36.7428 390.931C36.5975 390.847 36.4379 390.684 36.3134 390.468C36.1889 390.253 36.1267 390.033 36.1267 389.865H35.1267C35.1267 390.25 35.2585 390.641 35.4476 390.969C35.6368 391.296 35.9104 391.605 36.2437 391.797L36.7428 390.931ZM210.117 490.793L36.7428 390.931L36.2437 391.797L209.618 491.66L210.117 490.793ZM210.234 490.726C210.234 490.807 210.22 490.85 210.213 490.865C210.207 490.878 210.21 490.866 210.23 490.854C210.251 490.842 210.263 490.845 210.249 490.844C210.232 490.843 210.188 490.834 210.117 490.793L209.618 491.66C209.949 491.85 210.365 491.931 210.731 491.72C211.097 491.508 211.234 491.107 211.234 490.726H210.234ZM210.234 463.882V490.726H211.234V463.882H210.234ZM209.618 462.816C209.764 462.9 209.923 463.064 210.048 463.279C210.172 463.495 210.234 463.715 210.234 463.882H211.234C211.234 463.498 211.103 463.106 210.913 462.779C210.724 462.452 210.451 462.142 210.117 461.95L209.618 462.816ZM36.2437 362.954L209.618 462.816L210.117 461.95L36.7428 362.087L36.2437 362.954Z" fill="#F6F6F6"/>
</svg>
