<svg width="32" height="32" viewBox="0 0 32 32" fill="none" xmlns="http://www.w3.org/2000/svg">
<path d="M32 16C32 24.8366 24.8366 32 16 32C7.16344 32 0 24.8366 0 16C0 7.16344 7.16344 0 16 0C24.8366 0 32 7.16344 32 16Z" fill="#ED1C24"/>
<path fill-rule="evenodd" clip-rule="evenodd" d="M16 29.5C23.4558 29.5 29.5 23.4558 29.5 16C29.5 8.54416 23.4558 2.5 16 2.5C8.54416 2.5 2.5 8.54416 2.5 16C2.5 23.4558 8.54416 29.5 16 29.5ZM16 32C24.8366 32 32 24.8366 32 16C32 7.16344 24.8366 0 16 0C7.16344 0 0 7.16344 0 16C0 24.8366 7.16344 32 16 32Z" fill="#ED1C24"/>
<path fill-rule="evenodd" clip-rule="evenodd" d="M22.2411 10.5393C22.7293 11.0274 22.7293 11.8189 22.2411 12.307L12.3071 22.241C11.819 22.7292 11.0275 22.7292 10.5394 22.241C10.0512 21.7529 10.0512 20.9614 10.5394 20.4733L20.4734 10.5393C20.9615 10.0511 21.753 10.0511 22.2411 10.5393Z" fill="white"/>
<path fill-rule="evenodd" clip-rule="evenodd" d="M22.2411 22.2412C21.753 22.7293 20.9615 22.7293 20.4734 22.2412L10.5394 12.3072C10.0512 11.819 10.0512 11.0276 10.5394 10.5394C11.0275 10.0513 11.819 10.0513 12.3071 10.5394L22.2411 20.4734C22.7293 20.9616 22.7293 21.753 22.2411 22.2412Z" fill="white"/>
</svg>
