<svg width="301" height="280" viewBox="0 0 301 280" fill="none" xmlns="http://www.w3.org/2000/svg">
<rect width="2.99479" height="139.98" transform="matrix(0.784262 0.62043 -0.550991 0.834511 269.296 72.6152)" fill="url(#paint0_linear_84:36)"/>
<circle cx="270.5" cy="73.5" r="1.5" fill="white"/>
<rect width="2.99479" height="98.1995" transform="matrix(0.784262 0.62043 -0.550991 0.834511 222.374 87.6152)" fill="url(#paint1_linear_84:36)"/>
<circle cx="223.578" cy="88.5" r="1.5" fill="white"/>
<rect width="2.99479" height="234.803" transform="matrix(0.784262 0.62043 -0.550991 0.834511 249.374 0.615234)" fill="url(#paint2_linear_84:36)"/>
<circle cx="250.578" cy="1.5" r="1.5" fill="white"/>
<rect width="2.99479" height="130.535" transform="matrix(0.784262 0.62043 -0.550991 0.834511 192.374 39.6152)" fill="url(#paint3_linear_84:36)"/>
<circle cx="193.578" cy="40.5" r="1.5" fill="white"/>
<circle cx="119.555" cy="284.555" r="153.405" transform="rotate(30 119.555 284.555)" fill="url(#paint4_linear_84:36)"/>
<path d="M254.998 238.907C321.523 310.534 317.348 350.374 286.812 378.734C256.277 407.095 177.594 372.021 111.069 300.395C44.5432 228.769 7.00002 137 35 117.5C49.5 107.402 76 116 96.5 132" stroke="url(#paint5_linear_84:36)"/>
<defs>
<linearGradient id="paint0_linear_84:36" x1="1.49739" y1="0" x2="1.49739" y2="139.98" gradientUnits="userSpaceOnUse">
<stop stop-color="white" stop-opacity="0.48"/>
<stop offset="1" stop-color="white" stop-opacity="0"/>
</linearGradient>
<linearGradient id="paint1_linear_84:36" x1="1.49739" y1="0" x2="1.49739" y2="98.1995" gradientUnits="userSpaceOnUse">
<stop stop-color="white" stop-opacity="0.48"/>
<stop offset="1" stop-color="white" stop-opacity="0"/>
</linearGradient>
<linearGradient id="paint2_linear_84:36" x1="1.49739" y1="0" x2="1.49739" y2="234.803" gradientUnits="userSpaceOnUse">
<stop stop-color="white" stop-opacity="0.48"/>
<stop offset="1" stop-color="white" stop-opacity="0"/>
</linearGradient>
<linearGradient id="paint3_linear_84:36" x1="1.49739" y1="0" x2="1.49739" y2="130.535" gradientUnits="userSpaceOnUse">
<stop stop-color="white" stop-opacity="0.48"/>
<stop offset="1" stop-color="white" stop-opacity="0"/>
</linearGradient>
<linearGradient id="paint4_linear_84:36" x1="119.555" y1="131.15" x2="119.555" y2="437.96" gradientUnits="userSpaceOnUse">
<stop stop-color="white" stop-opacity="0.39"/>
<stop offset="0.361637" stop-color="white" stop-opacity="0"/>
</linearGradient>
<linearGradient id="paint5_linear_84:36" x1="35.0494" y1="215.416" x2="202.403" y2="150.446" gradientUnits="userSpaceOnUse">
<stop stop-color="white" stop-opacity="0.47"/>
<stop offset="1" stop-color="white" stop-opacity="0"/>
</linearGradient>
</defs>
</svg>
