<svg width="276" height="307" viewBox="0 0 276 307" fill="none" xmlns="http://www.w3.org/2000/svg">
<mask id="mask0_86:14" style="mask-type:alpha" maskUnits="userSpaceOnUse" x="0" y="0" width="276" height="307">
<rect width="276" height="307" rx="10" fill="#CE2034"/>
</mask>
<g mask="url(#mask0_86:14)">
<path d="M40 157.781C40 154.752 42.2586 152.197 45.2655 151.826L206 132V356H40V157.781Z" fill="url(#paint0_linear_86:14)"/>
<path d="M58 170.27C58 167.467 59.9417 165.037 62.6763 164.418L206 132V356L58 369V170.27Z" fill="url(#paint1_linear_86:14)"/>
<path d="M354 170.27C354 167.467 352.058 165.037 349.324 164.418L206 132V356L354 369V170.27Z" fill="url(#paint2_linear_86:14)"/>
<path d="M361 361L206 361L206 132L355 132C358.314 132 361 134.686 361 138L361 361Z" fill="url(#paint3_linear_86:14)"/>
<path d="M94.9717 182.611L84.3063 196.593C83.5785 197.547 83.5843 198.779 84.3194 199.374L94.9717 208.005" stroke="white" stroke-opacity="0.3"/>
<path d="M114.426 203.334L125.091 189.353C125.819 188.399 125.813 187.167 125.078 186.571L114.426 177.941" stroke="white" stroke-opacity="0.3"/>
<circle r="1.15424" transform="matrix(0.97237 -0.233445 0 1 97.5905 193.91)" fill="white"/>
<circle r="1.15424" transform="matrix(0.97237 -0.233445 0 1 105.073 192.114)" fill="white"/>
<circle r="1.15424" transform="matrix(0.97237 -0.233445 0 1 112.555 190.317)" fill="white"/>
<path d="M89.5 231L177 208.5" stroke="white" stroke-opacity="0.2"/>
<path d="M90 253.5L177.5 231" stroke="white" stroke-opacity="0.2"/>
<path d="M90 276.5L177.5 254" stroke="white" stroke-opacity="0.2"/>
</g>
<defs>
<linearGradient id="paint0_linear_86:14" x1="206" y1="226.66" x2="27.3889" y2="225.324" gradientUnits="userSpaceOnUse">
<stop stop-color="white" stop-opacity="0.1"/>
<stop offset="0.505208" stop-color="white" stop-opacity="0.27"/>
<stop offset="1" stop-color="white" stop-opacity="0.31"/>
</linearGradient>
<linearGradient id="paint1_linear_86:14" x1="206" y1="226.66" x2="27.3889" y2="225.324" gradientUnits="userSpaceOnUse">
<stop stop-color="white" stop-opacity="0.1"/>
<stop offset="0.505208" stop-color="white" stop-opacity="0.27"/>
<stop offset="1" stop-color="white" stop-opacity="0.31"/>
</linearGradient>
<linearGradient id="paint2_linear_86:14" x1="206" y1="226.66" x2="384.611" y2="225.324" gradientUnits="userSpaceOnUse">
<stop stop-color="white" stop-opacity="0.1"/>
<stop offset="0.505208" stop-color="white" stop-opacity="0.27"/>
<stop offset="1" stop-color="white" stop-opacity="0.31"/>
</linearGradient>
<linearGradient id="paint3_linear_86:14" x1="206" y1="264.82" x2="372.777" y2="265.954" gradientUnits="userSpaceOnUse">
<stop stop-color="white" stop-opacity="0.29"/>
<stop offset="0.39232" stop-color="white" stop-opacity="0.31"/>
<stop offset="1" stop-color="white" stop-opacity="0"/>
</linearGradient>
</defs>
</svg>
