<svg width="493" height="453" viewBox="0 0 493 453" fill="none" xmlns="http://www.w3.org/2000/svg">
<path d="M1.09604 302.65L246.298 444.218L246.298 452.083L1.09604 310.515L1.09604 302.65Z" fill="#0070CC" stroke="white"/>
<rect width="283.135" height="7.86486" transform="matrix(0.866025 -0.5 2.20305e-08 1 246.298 444.218)" fill="#0070CC" stroke="white"/>
<path d="M246.298 161.083L491.5 302.65L246.298 444.218L1.0956 302.65L246.298 161.083Z" fill="#0070CC" stroke="white"/>
<path d="M1.09604 223.65L246.298 365.218L246.298 373.083L1.09604 231.515L1.09604 223.65Z" fill="#0070CC" stroke="white"/>
<rect width="283.135" height="7.86486" transform="matrix(0.866025 -0.5 2.20305e-08 1 246.298 365.218)" fill="#0070CC" stroke="white"/>
<path d="M246.298 82.0826L491.5 223.65L246.298 365.218L1.0956 223.65L246.298 82.0826Z" fill="#0070CC" stroke="white"/>
<path d="M1.09604 142.65L246.298 284.218L246.298 292.083L1.09604 150.515L1.09604 142.65Z" fill="#0070CC" stroke="white"/>
<rect width="283.135" height="7.86486" transform="matrix(0.866025 -0.5 2.20305e-08 1 246.298 284.218)" fill="#0070CC" stroke="white"/>
<path d="M246.298 1.08262L491.5 142.65L246.298 284.218L1.0956 142.65L246.298 1.08262Z" fill="#0070CC" stroke="white"/>
</svg>
