<svg width="26" height="26" viewBox="0 0 26 26" fill="none" xmlns="http://www.w3.org/2000/svg">
<path d="M19.2078 9.76733C17.5699 9.76733 16.2375 8.4354 16.2375 6.79747C16.2375 5.15955 17.5699 3.82861 19.2078 3.82861C20.8457 3.82861 22.1782 5.16055 22.1782 6.79797C22.1782 8.4354 20.8457 9.76733 19.2078 9.76733ZM19.2078 4.81807C18.6829 4.8186 18.1796 5.02736 17.8084 5.39855C17.4372 5.76974 17.2284 6.27303 17.2279 6.79797C17.2284 7.32291 17.4372 7.8262 17.8084 8.19739C18.1796 8.56858 18.6829 8.77735 19.2078 8.77788C19.7328 8.77735 20.236 8.56858 20.6072 8.19739C20.9784 7.8262 21.1872 7.32291 21.1877 6.79797C21.1872 6.27303 20.9784 5.76974 20.6072 5.39855C20.236 5.02736 19.7328 4.8186 19.2078 4.81807Z" fill="white" stroke="white" stroke-width="0.5"/>
<path d="M5.33247 17.5535C4.48647 17.9122 3.71712 18.4299 3.06607 19.0784C1.48715 20.6603 0.740183 22.8582 1.08117 24.9221C3.14507 25.2601 5.34197 24.5121 6.92239 22.9337C7.57141 22.283 8.08958 21.5138 8.44882 20.6678" stroke="white" stroke-width="1.7" stroke-miterlimit="10" stroke-linecap="round" stroke-linejoin="round"/>
<path d="M2.46759 12.8967C2.12261 13.2217 1.79412 13.5617 1.48264 13.9156C3.23831 14.3917 4.89223 15.1845 6.3629 16.255C6.4764 16.048 6.61789 15.8581 6.78488 15.6911C7.13237 15.3443 7.57448 15.1077 8.05582 15.0111C8.16082 12.9862 8.72379 10.9663 9.70175 9.10438L9.70475 9.09888C8.37648 9.38528 7.09203 9.84644 5.88493 10.4703C4.64038 11.1193 3.49059 11.9357 2.46759 12.8967ZM2.46759 12.8967V12.8967V12.8967Z" stroke="white" stroke-width="1.7" stroke-miterlimit="10" stroke-linecap="round" stroke-linejoin="round"/>
<path d="M10.9922 17.9415C10.8961 18.4244 10.6592 18.868 10.3112 19.2164C10.1418 19.3851 9.949 19.5286 9.73874 19.6424C10.8116 21.1108 11.6071 22.7628 12.0861 24.5172C12.4411 24.2072 12.7816 23.8782 13.1071 23.5332C14.0678 22.5107 14.884 21.3614 15.533 20.1174C16.1569 18.911 16.6183 17.6272 16.9049 16.2996C15.0405 17.277 13.0191 17.838 10.9922 17.9415V17.9415Z" stroke="white" stroke-width="1.7" stroke-miterlimit="10" stroke-linecap="round" stroke-linejoin="round"/>
<path d="M10.9207 16.6945C11.0557 17.1374 11.0457 17.5404 10.9892 17.9569C14.527 17.7759 17.9854 16.205 20.6102 13.5861C23.9651 10.2258 25.552 5.55498 24.8275 1.16969C20.4423 0.45172 15.774 2.04065 12.4166 5.39499C9.80076 8.02036 8.23283 11.4767 8.05484 15.0115C8.51847 14.919 8.99884 14.9605 9.43977 15.131" stroke="white" stroke-width="1.7" stroke-miterlimit="10" stroke-linecap="round" stroke-linejoin="round"/>
</svg>
