<svg width="123" height="138" fill="none" xmlns="http://www.w3.org/2000/svg"><g clip-path="url(#a)"><path d="M121.435 103.5c.965-1.667 1.565-3.545 1.565-5.231V39.73c0-1.687-.599-3.564-1.564-5.23L61.5 69l59.935 34.5Z" fill="#00599C"/><path d="m66.826 136.735 50.848-29.269c1.465-.843 2.796-2.299 3.761-3.966L61.5 69 1.565 103.5c.965 1.667 2.297 3.123 3.761 3.966l50.848 29.269c2.93 1.686 7.723 1.686 10.652 0Z" fill="#004482"/><path d="M121.436 34.5c-.966-1.667-2.298-3.123-3.762-3.966L66.826 1.264c-2.93-1.686-7.723-1.686-10.652 0L5.326 30.535C2.396 32.219 0 36.359 0 39.73v58.538c0 1.686.6 3.564 1.565 5.231L61.5 69l59.936-34.5Z" fill="#659AD2"/><path d="M61.5 109.877c-22.608 0-41-18.337-41-40.877 0-22.54 18.392-40.877 41-40.877 14.588 0 28.193 7.827 35.506 20.426L79.262 58.786c-3.66-6.307-10.466-10.224-17.762-10.224C50.196 48.562 41 57.73 41 69s9.196 20.44 20.5 20.44c7.296 0 14.103-3.918 17.763-10.226L97.007 89.45c-7.313 12.6-20.918 20.427-35.507 20.427Z" fill="#fff"/><path d="M102.5 66.729h-4.556v-4.542H93.39v4.542h-4.556v4.542h4.556v4.542h4.555V71.27h4.556v-4.542Zm17.083 0h-4.556v-4.542h-4.555v4.542h-4.555v4.542h4.555v4.542h4.555V71.27h4.556v-4.542Z" fill="#fff"/></g><defs><clipPath id="a"><path fill="#fff" d="M0 0h123v138H0z"/></clipPath></defs></svg>