<svg width="523" height="369" fill="none" xmlns="http://www.w3.org/2000/svg"><rect x=".452" y="77.32" width="510" height="291.367" rx="10" fill="#2D2D2D"/><mask id="a" style="mask-type:alpha" maskUnits="userSpaceOnUse" x="0" y="77" width="307" height="292"><rect x=".452" y="77.32" width="305.839" height="291.367" rx="10" fill="#2D2D2D"/></mask><g mask="url(#a)"><path d="m127.601 253.591.13.015.129.016.129.018.129.02.128.021.128.023.127.025.127.026.126.028.125.03.125.031.124.033.124.035.122.036.122.038.121.04.12.041.119.043.118.044.118.046.116.048.115.05.114.051.113.052.111.054.111.056.109.058.108.058.107.061.105.062.104.064.102.065.101.067.1.068.098.07.096.072.095.073.093.074.091.076.09.077.088.079.087.081.084.081.083.084.081.084.078.086.077.088.075.089.074.09.071.092.069.093.066.094.065.096.063.097.06.098.059.1.056.1.054.102.051.104.05.104.046.106.045.107.042.108.04.109.037.111.035.111.033.113.03.113.027.115.025.116.022.116.02.118.017.119.014.12.012.12.009.122.006.122.003.124.001.124-.002.125-.005.126-.007.127-.011.127-.013.128-.016.129-.019.13-.022.13-.024.132-.028.131-.031.132-.033.133-.037.134-.04.134-.042.134-.046.135-.048.136-.052.136-.054.136-.058.137-.061.137-.064.138-.067.138-.07.138-.073.138-.076.139-.079.139-.083.139-.085.139-.089.14-.091.139-.095.14-.098.14-.102.139-.104.14-.108.14-.11.14-.114.139-.117.14-.12.139-.123.139-.127.14-.129.138-.133.139-.136.139-.139.138-.142.138-.145.137-.149.137-.151.137-.155.136-.157.136-.161.135-.164.135-.167.135-.17.133-.174.134-.176.132-.179.132-.182.131-.186.131-.188.13-.191.129-.195.128-.197.127-.2.127-.204.126-.206.125-.209.124-.212.122-.215.122-.217.121-.221.12-.223.119-.227.118-.229.117-.231.115-.235.114-.237.114-.24.111-.243.111-.245.11-.248.108-.25.106-.254.106-.255.104-.259.102-.26.101-.264.1-.265.098-.268.097-.271.095-.273.093-.275.092-.278.091-.28.088-.282.087-.284.085-.287.084-.289.082-.291.08-.293.078-.295.077-.297.074-.299.073-.301.071-.303.069-.305.067-.307.065-.308.063-.311.061-.312.059-.314.057-.315.055-.318.052-.318.051-.321.049-.322.046-.323.044-.325.042-.326.04-.328.038-.328.035-.331.033-.331.031-.333.028-.333.026-.335.024-.336.022-.337.019-.338.016-.339.014-.34.012-.34.01-.342.006-.342.005-.343.002-.343-.001-.344-.003-.345-.006-.345-.008-.346-.011-.346-.013-.347-.016-.347-.019-.347-.021-.347-.024-.347-.027-.348-.029-.348-.032-.348-.035-.347-.037-.348-.04-.348-.043-.347-.045-.347-.048-.347-.051-.347-.054-.346-.056-.346-.059-.345-.062-.345-.065-.344-.068-.344-.07-.343-.073-.342-.076-.342-.079-.34-.081-.34-.085-.339-.087-.337-.09-.337-.093-.336-.096-.334-.098-.334-.101-.332-.105-.33-.107-.33-.11-.328-.112-.326-.116-.325-.119-.324-.121-.322-.124-.32-.127-.318-.13-.317-.132-.315-.136-.313-.138-.31-.141-.31-.144-.306-.147-.305-.15-.303-.152-.3-.156-.299-.158-.296-.16-.293-.164-.291-.166-.289-.17-.286-.171-.284-.175-.28-.178-.28-.18-.275-.183-.273-.185-.27-.189-.267-.191-.264-.193-.262-.197-.258-.199-.255-.201-.252-.205-.25-.207-.245-.209-.242-.212-.24-.215-.235-.217-.233-.22-.229-.223-.225-.225-.222-.227-.218-.23-.215-.232-.21-.235-.208-.237-.203-.24-.2-.242-.196-.244-.192-.247-.188-.249-.183-.252-.18-.253-.176-.256-.172-.259-.167-.26-.163-.263-.16-.265-.154-.267-.15-.269-.146-.271-.142-.273-.137-.276-.133-.277-.128-.28-.123-.281-.12-.283-.113-.286-.11-.287-.105-.289-.1-.291-.095-.293-.09-.295-.086-.296-.08-.298-.077-.3-.07-.301-.066-.304-.061-.304-.056-.307-.05-.308-.046-.309-.04-.311-.036-.313-.03-.313-.025-.316-.02-.316-.014-.318-.009-.32-.004-.32.002-.322.007-.323.013-.324.018-.325.023-.326.029-.328.034-.328.04-.33.045-.33.051-.331.057-.333.062-.333.067-.333.074-.335.079-.335.084-.336.09-.337.096-.337.102-.338.107-.339.114-.339.118-.339.125-.34.13-.34.136-.34.142-.341.148-.341.153-.342.16-.341.164-.342.171-.342.177-.341.182-.342.188-.342.194-.342.2-.341.206-.342.211-.341.218-.341.223-.341.229-.341.234-.34.241-.34.246-.339.253-.339.258-.338.263-.338.27-.337.275-.336.281-.336.287-.335.292-.335.299-.333.304-.333.31-.331.315-.331.32-.33.328-.328.332-.328.338-.327.344-.325.349-.324.355-.323.36-.321.366-.321.371-.318.377-.318.382-.316.388-.314.394-.313.398-.311.404-.31.41-.308.414-.306.42-.304.426-.303.43-.301.436-.299.44-.297.447-.294.451-.293.456-.291.462-.289.466-.286.471-.285.476-.282.481-.28.486-.277.491-.275.496-.273.5-.271.505-.267.51-.266.515-.262.519-.261.523-.257.528-.255.533-.252.537-.249.541-.247.546-.244.55-.24.554-.238.558-.235.563-.232.566-.229.571-.226.574-.222.579-.22.582-.216.587-.213.59-.21.593-.207.598-.203.601-.2.604-.196.608-.193.612-.19.615-.186.618-.183.621-.179.625-.175.628-.172.631-.168.634-.164.637-.16.64-.157.642-.153.646-.149.648-.146.651-.141.653-.137.656-.134.658-.13.661-.125.663-.121.666-.118.667-.113.67-.109.672-.105.673-.101.676-.097.677-.092.68-.088.681-.084.682-.08.684-.075.686-.071.687-.066.688-.062.69-.058.691-.053.692-.049.693-.044.694-.04.695-.035.695-.031.697-.026.697-.022.697-.017.699-.012.698-.008.699-.003.7.002.699.006.7.012.699.015.7.021.7.025.699.03.699.035.699.039.698.045.698.049.697.054.697.059.696.063.695.069.694.073.693.078.692.084.691.088.69.092.688.098.687.103.686.107.684.113.682.117.681.122.679.127.677.132.675.137.673.142.671.147.668.152.666.156.664.162.662.166.659.172.656.176.654.181.651.186.648.191.645.196.642.201.639.206.636.21.633.215.629.221.626.225.622.229.619.235.615.24.611.244.608.249.603.254.6.258.596.264.591.268.587.273.583.277.579.282.574.287.57.292.565.296.56.301.555.305.551.31.546.315.541.319.536.323.53.329.526.332.52.337.515.342.509.345.504.351.498.354.493.359.487.363.481.368.475.372.47.376.463.38.458.384.451.388.445.393.439.397.432.4.426.405.42.409.413.412.406.417.4.42.393.424.386.428.379.432.373.436.365.439.359.443.351.446.345.451.337.453.329.457.323.461.315.464.308.468.3.47.292.474.285.478.278.48.269.484.262.487.254.49.246.493.239.496.23.499.222.502.215.505.206.508.198.51.19.513.181.516.173.518.165.521.157.524.148.526.14.528.131.531.123.533.114.536.106.537.097.54.088.542.08.544.071.546.062.548.053.55.045.551.036.554.026.555.018.557.009.559v.56l-.009.562-.018.563-.027.564-.036.566-.046.567-.054.569-.063.569-.073.571-.082.572-.091.573-.1.573-.109.575-.119.575-.127.577-.137.577-.146.577-.156.578-.165.579-.174.579-.183.58-.193.579-.202.581-.211.58-.22.58-.23.581-.239.581-.248.58-.258.581-.267.58-.276.58-.286.58-.295.579-.304.579-.313.579-.323.578-.331.577-.342.577-.35.576-.359.576-.369.574-.378.573-.387.573-.396.571-.405.571-.415.569-.423.568-.433.566-.441.566-.451.563-.46.563-.468.561-.478.559-.486.557-.495.556-.505.554-.513.552-.521.55-.531.548-.539.546-.548.543-.557.542-.565.539-.573.537-.583.535-.591.532-.599.53-.608.527-.616.524-.624.522-.633.519-.64.516-.649.514-.658.51-.665.507-.673.504-.681.501-.69.498-.697.495-.705.491-.712.488-.721.484-.728.481-.736.477-.743.474-.75.47-.758.466-.766.463-.773.459-.78.454-.787.451-.794.447-.801.442-.808.439-.815.434-.822.43-.829.426-.835.421-.842.417-.848.412-.855.408-.862.403-.867.398-.874.394-.88.389-.886.385-.892.379-.898.374-.904.37-.909.364-.916.36-.921.354-.926.349-.932.344-.937.339-.942.333-.947.328-.953.323-.957.317-.963.311-.967.306-.972.301-.976.295-.981.289-.986.283-.99.278-.994.271-.998.266-1.002.26-1.006.254-1.01.248-1.014.242-1.018.236-1.021.23-1.024.224-1.028.217-1.031.211-1.035.205-1.037.199-1.04.193-1.044.186-1.045.179-1.049.173-1.051.167-1.054.16-1.055.154-1.059.147-1.06.141-1.062.133-1.064.128-1.066.12-1.068.114-1.069.107-1.07.1-1.072.094-1.074.087-1.074.08-1.076.073-1.076.066-1.077.059-1.078.052-1.078.045-1.079.039-1.079.031-1.08.024-1.08.018-1.079.01-1.08.003-1.079-.004-1.079-.011-1.078-.018-1.078-.025-1.078-.033-1.076-.039-1.076-.047-1.074-.054-1.074-.061-1.072-.069-1.071-.075-1.07-.083-1.067-.09-1.066-.097-1.064-.105-1.063-.111-1.06-.119-1.058-.127-1.056-.133-1.053-.141-1.051-.148-1.049-.155-1.045-.163-1.043-.169-1.04-.177-1.036-.185-1.033-.191-1.03-.199-1.026-.206-1.023-.213-1.02-.221-1.015-.227-1.012-.235-1.007-.242-1.004-.25-.999-.256-.994-.264-.99-.271-.986-.278-.981-.285-.977-.292-.97-.3-.967-.306-.96-.313-.957-.321-.95-.328-.945-.334-.94-.342-.933-.348-.927-.356-.922-.362-.916-.37-.91-.376-.903-.383-.897-.39-.89-.397-.884-.404-.877-.41-.87-.417-.864-.424-.856-.43-.85-.437-.842-.444-.834-.45-.828-.457-.82-.463-.812-.47-.804-.476-.797-.483-.789-.488-.78-.496-.773-.501-.764-.508-.756-.514-.748-.52-.739-.526-.73-.533-.722-.538-.713-.545-.704-.55-.695-.556-.686-.562-.677-.568-.667-.574-.658-.579-.65-.585-.638-.591-.63-.596-.62-.602-.61-.607-.6-.613-.59-.618-.581-.623-.57-.629-.56-.634-.55-.639-.54-.644-.528-.649-.519-.654-.508-.659-.497-.663-.487-.669-.475-.673-.465-.678-.454-.683-.443-.687-.432-.692-.42-.696-.41-.7-.398-.705-.387-.709-.376-.713-.364-.718-.352-.721-.34-.725-.33-.729-.318-.733-.305-.737-.294-.741-.282-.744-.27-.747-.259-.752-.246-.754-.234-.758-.222-.761-.21-.765-.197-.767-.185-.771-.173-.773-.16-.777-.15-.779-.135-.782-.123-.785-.111-.787-.098-.79-.086-.792-.073-.795-.06-.797-.048-.799-.035-.801-.023-.803-.01-.806.004-.807.016-.809.03-.81.04-.813.055-.814.068-.815.08-.817.094-.818.106-.82.12-.82.132-.822.145-.823.158-.823.172-.825.184-.825.197-.826.21-.826.224-.827.236-.827.25-.828.262-.827.275-.828.289-.828.301-.828.315-.828.328-.828.34-.827.354-.827.366-.827.38-.826.392-.826.405-.824.418-.824.432-.823.444-.822.456-.821.47-.82.483-.819.495-.817.508-.816.52-.814.534-.813.546-.811.559-.809.571-.808.584-.805.596-.804.61-.801.62-.799.634-.797.646-.795.659-.792.67-.79.683-.786.695-.785.707-.781.72-.779.731-.775.743-.773.755-.769.768-.766.778-.763.79-.759.803-.756.814-.752.826-.749.836-.745.849-.741.86-.737.87-.733.883-.729.893-.725.905-.721.915-.716.927-.712.937-.708.948-.703.959-.698.969-.694.98-.688.99-.684 1.001-.679 1.011-.674 1.022-.668 1.03-.664 1.042-.658 1.052-.653 1.06-.647 1.072-.642 1.08-.636 1.09-.631 1.1-.625 1.11-.619 1.118-.613 1.127-.607 1.137-.601 1.145-.595 1.155-.589 1.163-.582 1.172-.577 1.18-.569 1.19-.564 1.197-.557 1.205-.55 1.214-.543 1.222-.537 1.23-.53 1.237-.523 1.244-.516 1.253-.509 1.26-.502 1.268-.495 1.274-.488 1.282-.48 1.289-.473 1.295-.466 1.303-.458 1.309-.451 1.315-.443 1.322-.435 1.328-.428 1.334-.42 1.34-.412 1.346-.405 1.352-.396 1.357-.388 1.363-.381 1.368-.372 1.373-.364 1.379-.356 1.383-.348 1.388-.34 1.393-.331 1.397-.323 1.402-.314 1.406-.306 1.41-.297 1.414-.289 1.418-.28 1.422-.272 1.425-.262 1.429-.254 1.432-.246 1.435-.236 1.438-.228 1.441-.218 1.444-.21 1.446-.201 1.449-.191 1.451-.183 1.453-.174 1.455-.164 1.457-.155 1.458-.146 1.461-.137 1.461-.128 1.463-.118 1.464-.109 1.465-.1 1.466-.09 1.466-.081 1.467-.072 1.467-.062 1.468-.053 1.467-.043 1.468-.034 1.467-.024 1.467-.015 1.466-.005 1.465.004 1.465.014 1.464.024 1.462.033 1.461.043 1.46.053 1.458.062 1.456.071 1.455.082 1.452.091 1.45.101 1.448.11 1.445.12 1.443.13 1.439.139 1.437.15 1.434.159 1.43.168 1.427.178 1.423.188 1.419.198 1.416.208 1.411.217 1.407.226 1.403.237 1.399.246 1.393.255 1.389.266 1.384.275 1.379.284 1.373.295 1.368.303 1.363.314 1.357.323 1.351.332 1.345.342 1.338.351 1.333.361 1.326.371 1.319.379 1.313.39 1.306.398 1.298.408 1.292.418 1.284.426 1.277.436 1.269.445 1.261.455 1.254.463 1.245.473 1.237.482 1.229.491 1.221.5 1.211.509 1.203.518 1.195.526 1.185.536 1.176.545 1.166.553 1.158.562 1.147.571 1.139.58 1.128.588 1.118.597 1.108.605 1.098.614 1.088.623 1.077.63 1.066.639 1.056.648 1.045.655 1.034.664 1.023.672 1.012.68 1 .688.989.696.977.704.965.712.954.719.942.727.93.735.917.743.905.749.893.758.881.765.867.772.855.779.843.787.829.794.816.8.803.808.79.815.776.821.763.829.75.834.736.842.722.848.708.855.694.861.68.867.666.873.652.88.638.886.623.891.609.898.594.903.58.91.564.914.55.921.535.926.521.931.505.936.49.942.475.947.459.952.444.957.429.962.413.966.398.971.382.976.367.981.351.984.335.989.319.993.303.998.288 1.001" stroke="url(#b)" stroke-width="3"/><path d="m117.268 252.601-.129-.015-.13-.016-.129-.018-.128-.02-.129-.022-.127-.023-.128-.024-.126-.027-.126-.028-.126-.029-.125-.032-.124-.033-.123-.034-.123-.037-.122-.038-.121-.039-.12-.041-.119-.043-.118-.045-.117-.046-.116-.048-.116-.049-.114-.051-.112-.052-.112-.055-.111-.055-.109-.058-.108-.059-.106-.06-.106-.063-.103-.063-.103-.066-.101-.066-.099-.069-.098-.07-.097-.071-.094-.073-.094-.074-.091-.076-.09-.078-.088-.079-.086-.08-.085-.082-.082-.083-.081-.085-.079-.086-.077-.087-.075-.089-.073-.09-.071-.092-.069-.093-.067-.094-.065-.096-.063-.097-.06-.098-.058-.1-.057-.101-.053-.102-.052-.103-.049-.105-.047-.105-.045-.107-.042-.108-.04-.11-.037-.11-.035-.111-.032-.113-.03-.114-.028-.114-.024-.116-.023-.117-.019-.118-.017-.118-.015-.12-.011-.121-.009-.121-.007-.123-.003-.123-.001-.124.002-.125.005-.126.007-.127.011-.128.013-.128.016-.129.019-.129.022-.131.025-.131.028-.132.03-.132.034-.133.036-.133.04-.134.042-.135.046-.135.049-.135.051-.136.055-.137.057-.136.061-.138.064-.137.067-.138.07-.138.073-.139.076-.138.079-.139.083-.139.085-.14.089-.139.092-.14.095-.139.098-.14.101-.14.104-.139.108-.14.111-.14.113-.14.117-.139.12-.14.124-.139.126-.139.13-.139.132-.139.136-.138.139-.138.142-.138.146-.137.148-.138.151-.136.155-.137.158-.135.161-.136.164-.135.167-.134.17-.134.173-.133.176-.133.179-.131.183-.132.185-.13.188-.13.192-.129.194-.128.197-.128.201-.126.203-.126.206-.125.209-.124.212-.123.215-.122.218-.121.22-.12.224-.119.226-.117.229-.117.232-.115.234-.115.237-.113.24-.112.243-.11.245-.11.248-.108.251-.107.253-.105.256-.104.258-.103.261-.101.263-.099.266-.098.268-.097.27-.095.273-.094.276-.092.277-.09.28-.089.282-.087.285-.085.286-.083.289-.082.291-.08.293-.078.295-.077.297-.074.299-.073.301-.071.303-.069.305-.067.307-.065.309-.063.31-.061.312-.059.314-.057.316-.055.317-.053.319-.05.32-.049.322-.046.323-.045.325-.042.326-.039.328-.038.329-.035.33-.033.331-.031.333-.029.334-.026.335-.024.336-.021.337-.019.337-.017.339-.014.34-.012.341-.009.341-.007.342-.004.343-.002.344.001.344.003.344.006.346.008.345.011.347.013.346.016.347.019.347.021.347.024.348.027.347.029.348.032.348.034.348.038.347.04.348.042.347.046.348.048.347.051.346.053.346.057.346.059.346.062.344.065.345.067.343.071.343.073.342.076.342.078.341.082.339.084.339.088.338.09.337.092.335.096.335.099.333.101.332.104.331.107.329.11.328.113.327.116.325.118.323.121.322.125.32.127.319.129.316.133.315.136.313.138.311.141.309.144.307.147.305.149.302.153.301.155.298.158.296.161.293.164.292.166.288.169.287.172.283.175.281.177.279.18.275.183.273.186.27.188.267.191.265.194.261.196.258.199.255.202.253.204.248.207.246.21.243.212.239.215.236.217.232.22.229.222.225.225.222.228.219.23.214.232.211.235.207.237.204.24.199.242.196.244.192.247.188.249.184.251.18.254.175.256.172.258.167.261.164.262.159.265.154.267.151.269.146.272.141.273.137.275.133.278.128.279.124.282.118.283.115.285.109.288.105.289.1.291.095.293.091.294.086.297.08.298.076.3.071.301.066.303.061.305.055.306.051.308.046.31.04.311.035.312.03.314.025.315.02.317.014.318.009.319.004.321-.002.321-.007.323-.012.325-.018.325-.024.326-.028.328-.035.328-.04.329-.045.331-.051.331-.056.332-.062.333-.068.334-.073.335-.079.335-.085.336-.09.337-.096.337-.102.338-.107.338-.113.339-.119.34-.125.339-.13.341-.136.34-.142.341-.147.341-.154.341-.159.342-.165.342-.171.341-.176.342-.183.342-.188.342-.194.341-.2.342-.206.342-.211.341-.217.341-.223.341-.229.34-.235.341-.241.339-.246.34-.252.338-.258.339-.264.338-.27.337-.275.336-.281.336-.287.335-.292.334-.298.334-.304.332-.31.332-.316.331-.321.329-.326.329-.333.328-.338.326-.343.326-.35.324-.354.323-.361.321-.366.32-.371.319-.377.317-.382.316-.388.315-.393.313-.399.311-.404.31-.409.307-.415.307-.42.304-.425.303-.431.3-.436.299-.44.297-.447.295-.451.293-.456.291-.461.289-.467.286-.471.284-.476.283-.481.279-.486.278-.491.275-.496.273-.5.27-.505.268-.51.265-.514.263-.519.26-.524.258-.528.255-.533.252-.537.249-.541.247-.545.243-.55.241-.555.238-.558.235-.562.232-.567.229-.571.225-.574.223-.579.22-.582.216-.586.213-.59.21-.594.206-.597.204-.601.2-.605.196-.608.193-.611.19-.615.186-.619.182-.621.179-.625.175-.628.172-.631.168-.634.164-.636.161-.64.157-.643.153-.645.149-.649.145-.65.142-.654.137-.656.134-.658.129-.661.126-.663.121-.665.118-.668.113-.67.109-.671.105-.674.101-.676.096-.677.093-.679.088-.681.084-.683.079-.684.076-.686.071-.687.066-.688.062-.69.058-.69.053-.692.049-.693.044-.694.04-.695.035-.696.031-.696.026-.697.021-.698.017-.698.013-.699.007-.699.003-.699-.001-.7-.007-.7-.011-.7-.016-.699-.02-.7-.025-.699-.03-.699-.035-.699-.04-.698-.044-.698-.049-.697-.054-.697-.059-.695-.064-.696-.068-.694-.074-.693-.078-.692-.083-.69-.088-.69-.093-.689-.097-.687-.103-.686-.108-.684-.112-.682-.117-.68-.123-.68-.127-.676-.132-.675-.137-.673-.142-.671-.146-.669-.152-.666-.157-.664-.161-.662-.167-.659-.171-.656-.176-.654-.182-.65-.186-.649-.191-.645-.196-.642-.2-.64-.206-.635-.21-.632-.216-.63-.22-.626-.225-.622-.23-.619-.234-.615-.24-.611-.244-.608-.249-.603-.254-.6-.259-.595-.263-.592-.268-.587-.273-.583-.278-.578-.282-.575-.287-.57-.291-.564-.296-.56-.301-.556-.306-.55-.31-.547-.314-.54-.319-.536-.324-.53-.328-.526-.332-.52-.337-.515-.342-.51-.346-.504-.35-.498-.355-.493-.358-.486-.364-.482-.367-.475-.372-.47-.376-.463-.38-.457-.384-.451-.389-.445-.392-.44-.397-.432-.401-.426-.404-.42-.409-.412-.413-.407-.416-.4-.42-.393-.425-.386-.428-.38-.432-.372-.435-.365-.439-.359-.443-.351-.447-.344-.45-.337-.454-.33-.457-.323-.46-.315-.464-.307-.468-.3-.471-.293-.474-.285-.477-.277-.481-.27-.484-.262-.487-.254-.49-.246-.493-.238-.496-.23-.499-.223-.502-.214-.504-.206-.508-.198-.51-.19-.513-.182-.516-.173-.519-.165-.521-.157-.523-.148-.526-.14-.529-.131-.53-.123-.533-.114-.536-.106-.537-.097-.54-.088-.542-.08-.544-.07-.546-.063-.548-.053-.55-.044-.552-.036-.553-.027-.556-.018-.556-.009-.559v-.56l.01-.562.017-.563.028-.565.036-.566.045-.567.054-.568.064-.57.072-.57.082-.572.09-.573.101-.574.11-.574.118-.576.128-.576.137-.577.146-.577.155-.579.165-.578.174-.579.183-.58.193-.58.202-.58.211-.58.22-.581.23-.58.24-.581.248-.58.257-.581.267-.58.277-.58.285-.58.295-.58.304-.579.313-.578.323-.578.332-.578.34-.577.351-.576.36-.575.368-.574.378-.574.387-.572.396-.572.406-.57.414-.569.424-.568.432-.567.442-.565.45-.564.46-.562.468-.561.478-.559.486-.557.496-.556.504-.554.513-.552.522-.55.53-.548.54-.546.547-.544.557-.541.565-.54.574-.537.582-.534.59-.533.6-.529.608-.527.616-.525.624-.522.633-.518.64-.517.65-.513.657-.51.665-.507.674-.505.68-.501.69-.497.697-.495.705-.491.713-.488.72-.485.728-.48.736-.478.743-.474.75-.47.759-.466.765-.462.773-.459.78-.455.787-.45.794-.447.801-.443.808-.438.816-.434.822-.43.828-.426.835-.421.842-.417.849-.412.855-.408.861-.403.868-.399.873-.394.88-.389.886-.384.892-.379.899-.375.903-.369.91-.365.915-.359.92-.355.927-.349.932-.344.937-.338.942-.334.948-.328.952-.322.958-.317.962-.312.967-.306.972-.3.977-.295.981-.289.985-.283.99-.278.994-.272.998-.265 1.003-.26 1.006-.254 1.01-.249 1.014-.242 1.017-.235 1.021-.23 1.025-.224 1.028-.217 1.031-.212 1.034-.205 1.037-.198 1.041-.193 1.043-.186 1.046-.179 1.048-.174 1.051-.166 1.054-.161 1.056-.153 1.058-.147 1.06-.141 1.062-.134 1.064-.127 1.066-.121 1.068-.113 1.069-.107 1.071-.101 1.072-.093 1.073-.087 1.074-.08 1.076-.073 1.076-.066 1.077-.059 1.078-.052 1.079-.046 1.078-.038 1.08-.031 1.079-.025 1.08-.017 1.079-.01 1.08-.003 1.079.004 1.079.011 1.079.018 1.078.025 1.077.033 1.077.039 1.075.047 1.075.054 1.073.061 1.072.068 1.071.076 1.07.083 1.068.09 1.066.097 1.064.104 1.062.112 1.06.119 1.059.126 1.055.134 1.054.141 1.051.148 1.048.155 1.045.162 1.043.17 1.039.177 1.037.184 1.033.192 1.03.199 1.027.206 1.023.213 1.019.22 1.015.228 1.012.235 1.007.242 1.004.249.999.257.995.264.99.27.986.278.981.286.976.292.971.299.966.307.961.313.956.321.95.327.945.335.939.342.934.348.928.356.921.362.916.37.91.376.903.383.897.39.89.397.884.403.877.411.871.417.863.423.857.431.849.437.842.443.835.451.827.456.82.464.812.469.805.477.796.482.789.489.781.495.772.502.764.508.756.514.748.52.739.526.73.532.722.539.713.544.704.551.695.556.686.562.677.568.667.574.659.579.648.585.64.591.629.596.62.602.61.607.601.613.59.618.58.623.571.629.56.633.549.639.54.644.529.649.518.654.508.659.497.664.487.669.476.673.465.678.454.683.442.687.432.691.421.697.409.7.399.705.386.709.376.713.364.717.352.722.341.725.329.729.318.733.306.737.294.74.282.744.27.748.258.751.246.755.234.758.222.761.21.764.197.768.186.77.173.774.16.776.148.78.136.782.124.784.11.788.099.789.085.793.073.794.061.797.048.799.035.802.022.803.009.805-.003.807-.016.809-.029.811-.042.813-.054.813-.068.816-.08.817-.094.818-.106.819-.119.821-.132.822-.146.822-.158.824-.171.824-.184.825-.198.826-.21.827-.223.826-.237.828-.249.827-.263.828-.275.828-.289.828-.301.828-.315.828-.327.828-.341.827-.353.827-.367.827-.379.826-.393.825-.405.825-.418.824-.431.823-.444.822-.457.821-.47.82-.482.818-.496.818-.508.815-.52.815-.534.812-.546.812-.558.809-.572.807-.584.806-.596.803-.609.802-.621.799-.634.797-.646.795-.658.792-.671.789-.683.787-.695.784-.707.782-.719.778-.732.776-.743.772-.755.77-.767.766-.779.762-.791.76-.802.756-.814.752-.825.749-.837.745-.848.741-.86.737-.871.733-.882.729-.894.725-.904.721-.916.716-.926.712-.938.707-.948.703-.958.699-.97.693-.98.689-.99.684-1.001.679-1.011.673-1.021.669-1.032.663-1.041.659-1.051.652-1.062.648-1.07.642-1.081.636-1.09.63-1.1.625-1.109.619-1.118.613-1.128.608-1.136.601-1.146.595-1.155.589-1.163.582-1.172.576-1.18.57-1.189.563-1.197.557-1.206.55-1.214.544-1.221.537-1.23.53-1.237.523-1.245.516-1.253.509-1.26.502-1.267.495-1.275.487-1.282.481-1.288.473-1.296.465-1.302.459-1.309.45-1.316.443-1.321.436-1.328.428-1.334.42-1.341.412-1.346.404-1.351.397-1.358.388-1.362.381-1.368.372-1.374.364-1.378.356-1.384.348-1.388.339-1.392.332-1.398.322-1.402.315-1.406.306-1.41.297-1.414.289-1.418.28-1.422.271-1.425.263-1.428.254-1.432.245-1.436.237-1.438.227-1.441.219-1.443.21-1.447.2-1.448.192-1.451.183-1.453.173-1.456.165-1.457.155-1.458.146-1.46.137-1.462.128-1.463.118-1.464.109-1.465.1-1.465.09-1.467.081-1.467.072-1.467.062-1.467.052-1.468.044-1.467.033-1.467.025-1.467.014-1.466.006-1.466-.005-1.465-.014-1.463-.023-1.463-.034-1.46-.042-1.46-.053-1.459-.062-1.456-.072-1.454-.081-1.453-.091-1.45-.101-1.448-.11-1.445-.12-1.442-.13-1.44-.14-1.437-.149-1.433-.159-1.43-.169-1.427-.178-1.423-.188-1.42-.198-1.415-.207-1.412-.217-1.407-.227-1.403-.236-1.398-.246-1.394-.256-1.389-.265-1.384-.275-1.379-.285-1.373-.294-1.368-.304-1.363-.313-1.356-.323-1.351-.332-1.345-.342-1.34-.352-1.332-.361-1.326-.37-1.319-.38-1.313-.389-1.305-.399-1.3-.408-1.29-.417-1.285-.427-1.277-.436-1.269-.445-1.261-.454-1.253-.464-1.246-.472-1.237-.482-1.229-.491-1.22-.5-1.212-.509-1.203-.518-1.194-.527-1.185-.536-1.177-.544-1.166-.554-1.157-.562-1.148-.571-1.138-.579-1.128-.589-1.119-.596-1.108-.606-1.098-.614-1.087-.622-1.077-.631-1.067-.639-1.056-.647-1.045-.656-1.034-.664-1.023-.671-1.011-.68-1-.688-.99-.696-.977-.704-.965-.712-.954-.719-.942-.728-.93-.734-.917-.743-.905-.75-.893-.757-.88-.765-.868-.772-.855-.78-.842-.786-.83-.794-.816-.801-.803-.807-.79-.815-.776-.822-.763-.828-.75-.835-.735-.841-.722-.849-.709-.854-.694-.861-.68-.867-.666-.874-.652-.879-.638-.886-.623-.892-.608-.897-.595-.904-.58-.909-.564-.915-.55-.92-.535-.926-.52-.931-.505-.937-.49-.942-.475-.946-.46-.952-.444-.957-.429-.962-.413-.967-.398-.971-.382-.976-.367-.98-.35-.985-.336-.989-.319-.993-.303-.997-.287-1.001" stroke="url(#c)" stroke-width="3"/><ellipse cx="123.505" cy="253.912" rx="25.913" ry="17.241" transform="rotate(-7.994 123.505 253.912)" fill="#fff"/></g><path fill-rule="evenodd" clip-rule="evenodd" d="M163.159 254.767v.003a6.425 6.425 0 0 0-6.245 6.292h-.002a6.424 6.424 0 0 0-6.341-6.294v-.003a6.422 6.422 0 0 0 6.245-6.291h.003a6.422 6.422 0 0 0 6.34 6.293Zm-33.099-57.65v.002a4.75 4.75 0 0 0-4.618 4.652h-.002a4.75 4.75 0 0 0-4.689-4.654v-.002a4.75 4.75 0 0 0 4.618-4.652h.002a4.75 4.75 0 0 0 4.689 4.654Zm-52.367 79.34v.001a3.053 3.053 0 0 0-1.992 3.713 3.054 3.054 0 0 0-3.743-2.008v-.001a3.053 3.053 0 0 0 1.992-3.713h.001a3.054 3.054 0 0 0 3.742 2.008Zm127.002-20.579v.001a3.054 3.054 0 0 0-1.992 3.713h-.001a3.054 3.054 0 0 0-3.742-2.008v-.001a3.053 3.053 0 0 0 1.992-3.713h.001a3.054 3.054 0 0 0 3.742 2.008ZM30.602 336.276v.001a3.053 3.053 0 0 0-1.992 3.713h-.001a3.052 3.052 0 0 0-3.742-2.007v-.002a3.053 3.053 0 0 0 1.992-3.713h.001a3.053 3.053 0 0 0 3.742 2.008Z" fill="#fff"/><path fill-rule="evenodd" clip-rule="evenodd" d="m157.718 326.269.001.001a3.053 3.053 0 0 0-1.992 3.713l-.002.001a3.051 3.051 0 0 0-3.741-2.008l-.001-.002a3.053 3.053 0 0 0 1.993-3.712l.001-.001a3.052 3.052 0 0 0 3.741 2.008Z" fill="#ED1C24"/><path fill-rule="evenodd" clip-rule="evenodd" d="m106.72 317.581.001.003c-2.846.94-4.394 4.189-3.508 7.377h-.002c-1.009-3.183-4.13-5.063-7.05-4.237l-.001-.003c2.846-.94 4.394-4.189 3.508-7.377h.002c1.009 3.183 4.13 5.063 7.05 4.237Zm-76.412-142.84v.003a6.424 6.424 0 0 0-6.245 6.292h-.002a6.423 6.423 0 0 0-6.34-6.294v-.003a6.422 6.422 0 0 0 6.244-6.291h.003a6.423 6.423 0 0 0 6.34 6.293Zm157.144-22.294v.003a6.425 6.425 0 0 0-6.245 6.292h-.002a6.424 6.424 0 0 0-6.341-6.294v-.003a6.422 6.422 0 0 0 6.245-6.291h.003a6.422 6.422 0 0 0 6.34 6.293Z" fill="#fff"/><path fill-rule="evenodd" clip-rule="evenodd" d="M50.575 237.04v.002a5.317 5.317 0 0 0-5.17 5.209h-.002a5.318 5.318 0 0 0-5.25-5.211v-.002a5.318 5.318 0 0 0 5.17-5.209h.002a5.319 5.319 0 0 0 5.25 5.211Z" fill="#ED1C24"/><path fill-rule="evenodd" clip-rule="evenodd" d="M342.033 311.761v.002a3.69 3.69 0 0 0-3.588 3.615h-.002a3.691 3.691 0 0 0-3.643-3.617v-.001a3.69 3.69 0 0 0 3.588-3.615h.002a3.69 3.69 0 0 0 3.643 3.616ZM93.155 119.466v.002a3.69 3.69 0 0 0-3.588 3.615h-.001a3.69 3.69 0 0 0-3.644-3.616v-.002a3.69 3.69 0 0 0 3.588-3.615h.002a3.69 3.69 0 0 0 3.643 3.616Z" fill="#fff"/><path fill-rule="evenodd" clip-rule="evenodd" d="M68.532 231.657v.002a4.727 4.727 0 0 0-4.596 4.63h-.002a4.728 4.728 0 0 0-4.666-4.632v-.002a4.727 4.727 0 0 0 4.596-4.63h.002a4.728 4.728 0 0 0 4.666 4.632Z" fill="#2D2D2D"/><path d="m480.275 310.222.027.016.026.016.026.016.026.017.025.017.025.018.025.017.025.018.024.019.024.018.024.019.023.019.023.02.023.02.023.02.022.02.021.021.022.02.021.021.021.022.02.021.02.022.019.022.019.023.019.022.018.023.018.023.017.023.017.024.017.023.016.024.016.024.015.024.014.025.015.024.013.025.014.025.012.025.013.025.011.025.011.026.011.026.01.025.01.026.009.026.009.027.008.026.007.026.007.027.006.026.006.027.005.027.005.027.004.027.003.027.003.027.002.027.002.027.001.027v.055l-.001.027-.002.027-.002.028-.003.027-.003.027-.004.028-.005.027-.005.027-.006.028-.007.027-.007.027-.008.027-.008.027-.01.027-.01.027-.01.027-.012.027-.012.027-.012.026-.013.027-.014.026-.015.027-.016.026-.016.026-.016.026-.018.026-.018.026-.019.025-.019.026-.02.025-.021.025-.022.025-.022.025-.023.024-.024.024-.024.025-.025.024-.026.023-.026.024-.027.023-.028.023-.029.023-.029.023-.03.022-.03.022-.032.022-.032.021-.032.022-.034.021-.034.02-.034.021-.036.02-.036.02-.036.019-.038.019-.038.019-.039.019-.039.018-.04.018-.041.017-.041.017-.042.017-.043.017-.043.016-.044.015-.045.016-.045.015-.046.014-.046.014-.047.014-.048.014-.048.013-.049.012-.05.012-.05.012-.051.011-.051.011-.052.01-.053.01-.053.01-.054.009-.054.008-.055.008-.055.008-.056.007-.056.007-.057.006-.058.006-.058.005-.058.005-.059.004-.06.003-.06.004-.061.002-.061.003-.061.001-.062.001-.062.001h-.063l-.064-.001-.063-.001-.065-.001-.064-.002-.065-.003-.066-.003-.066-.004-.066-.004-.066-.005-.067-.005-.068-.006-.067-.007-.069-.007-.068-.008-.069-.008-.069-.009-.069-.01-.07-.01-.07-.01-.07-.011-.071-.012-.07-.013-.071-.013-.072-.013-.071-.014-.072-.015-.072-.016-.072-.016-.073-.016-.072-.017-.073-.018-.073-.019-.073-.019-.073-.019-.074-.021-.073-.02-.074-.022-.073-.022-.074-.023-.074-.023-.074-.024-.074-.024-.074-.025-.074-.026-.075-.027-.074-.027-.074-.027-.074-.028-.074-.029-.074-.03-.075-.03-.074-.03-.074-.032-.074-.031-.074-.033-.073-.033-.074-.034-.074-.034-.073-.035-.073-.035-.073-.036-.073-.037-.073-.037-.073-.038-.072-.039-.072-.039-.072-.039-.072-.041-.072-.04-.071-.042-.071-.042-.071-.042-.07-.043-.07-.044-.07-.044-.07-.045-.069-.045-.069-.046-.068-.047-.068-.047-.068-.047-.067-.048-.067-.049-.066-.049-.066-.05-.066-.05-.065-.051-.065-.051-.064-.052-.064-.052-.063-.053-.063-.053-.062-.054-.062-.055-.061-.054-.06-.056-.06-.055-.06-.057-.058-.056-.059-.057-.057-.058-.057-.058-.056-.059-.056-.059-.055-.059-.054-.06-.054-.06-.053-.061-.052-.061-.052-.061-.051-.062-.05-.062-.049-.063-.049-.063-.047-.063-.048-.064-.046-.064-.045-.065-.045-.065-.044-.065-.043-.065-.042-.066-.041-.066-.041-.067-.039-.067-.039-.067-.038-.067-.037-.068-.036-.068-.035-.068-.034-.068-.033-.069-.032-.069-.032-.069-.03-.07-.029-.069-.029-.07-.027-.07-.027-.071-.025-.07-.025-.071-.023-.071-.022-.071-.022-.071-.02-.071-.019-.072-.018-.071-.017-.072-.016-.072-.015-.072-.014-.072-.013-.072-.011-.072-.011-.072-.009-.072-.009-.073-.007-.072-.006-.073-.005-.072-.003-.073-.003-.072-.001-.073v-.072l.001-.073.002-.072.003-.072.005-.073.005-.072.007-.072.008-.072.01-.072.01-.072.012-.072.013-.072.014-.072.016-.071.016-.072.018-.071.019-.071.021-.071.022-.07.023-.071.024-.07.025-.07.027-.07.028-.07.029-.069.031-.069.031-.069.033-.069.035-.068.035-.068.037-.068.038-.068.04-.067.04-.067.042-.066.044-.066.044-.066.046-.065.047-.065.049-.065.049-.064.051-.064.053-.064.053-.063.055-.062.056-.062.057-.062.059-.061.06-.061.061-.06.062-.06.064-.06.065-.058.066-.059.068-.057.069-.058.07-.056.071-.056.073-.056.073-.055.075-.054.077-.054.077-.053.079-.053.08-.052.081-.051.082-.051.084-.05.085-.05.086-.048.087-.049.088-.047.09-.047.091-.046.092-.045.093-.045.094-.044.095-.043.097-.042.098-.042.099-.041.1-.04.101-.04.102-.038.103-.038.105-.037.105-.036.107-.036.107-.035.109-.033.11-.033.111-.033.112-.031.113-.03.114-.03.114-.029.116-.028.117-.027.118-.026.119-.025.12-.024.121-.024.122-.022.122-.022.124-.021.125-.019.125-.019.126-.018.127-.017.129-.016.128-.015.13-.014.131-.013.131-.012.132-.011.133-.011.134-.009.135-.008.135-.007.136-.006.137-.005.138-.005.138-.003.139-.002.139-.001h.141l.14.001.142.002.142.003.143.004.143.005.144.006.145.008.145.008.145.009.147.011.146.011.147.013.148.013.148.015.148.016.149.017.15.018.15.019.15.02.15.021.151.022.151.024.152.024.152.026.152.026.152.028.153.029.153.03.153.031.153.032.154.033.153.034.154.036.154.036.154.038.154.038.155.04.154.041.154.042.155.043.154.044.155.045.154.047.154.047.155.048.154.05.154.051.154.051.154.053.154.054.154.055.153.056.154.057.153.058.152.059.153.061.152.061.152.062.152.064.151.064.152.066.15.066.151.068.15.069.149.069.149.071.149.072.148.072.148.074.147.075.146.076.147.076.145.078.145.079.145.079.143.081.143.082.143.082.142.084.141.084.14.086.14.086.139.087.138.088.138.089.136.09.136.091.135.092.134.093.134.093.132.095.132.095.13.096.13.097.129.098.127.099.127.099.126.101.124.101.124.102.123.102.121.104.121.104.119.105.118.106.117.106.116.108.115.108.114.108.112.11.111.11.11.111.109.111.107.112.106.113.105.113.103.114.103.115.1.115.1.116.098.117.096.117.096.117.093.119.093.118.091.12.089.119.088.121.086.121.085.121.084.122.082.122.08.122.079.124.077.123.075.124.074.124.073.125.07.125.07.126.067.126.066.126.064.126.062.127.061.127.059.128.057.128.055.128.054.128.052.128.05.129.048.129.047.129.045.129.043.13.041.129.039.13.038.13.035.13.034.13.032.13.03.13.028.13.026.131.024.13.022.13.021.131.018.13.017.13.014.131.013.13.011.13.008.13.007.13.005.13.002.13.001.129-.001.13-.004.129-.005.129-.007.129-.01.129-.011.128-.013.128-.016.128-.017.128-.02.127-.021.127-.024.127-.026.127-.027.126-.03.125-.032.126-.034.125-.036.124-.038.124-.04.124-.043.123-.044.123-.046.122-.049.122-.05.121-.053.121-.055.12-.056.12-.059.119-.061.119-.063.118-.065.117-.067.117-.07.116-.071.115-.073.115-.076.114-.077.113-.08.113-.081.112-.084.111-.086.111-.088.109-.089.109-.092.108-.094.108-.096.106-.098.106-.1.105-.102.103-.104.104-.106.102-.108.101-.11.1-.112.1-.114.098-.116.098-.118.096-.12.096-.121.095-.124.093-.126.093-.127.091-.13.091-.131.089-.134.089-.135.087-.137.086-.139.085-.141.084-.142.083-.145.082-.146.08-.148.08-.15.078-.152.077-.154.076-.155.074-.157.074-.159.072-.161.071-.162.07-.164.068-.166.067-.167.066-.169.064-.171.064-.172.062-.174.06-.176.059-.177.058-.178.057-.181.055-.182.054-.183.052-.185.051-.187.05-.187.048-.19.047-.191.045-.192.044-.194.043-.195.041-.197.039-.197.038-.2.037-.2.035-.202.034-.203.032-.205.031-.206.029-.207.027-.208.026-.209.025-.211.023-.212.021-.213.02-.214.019-.215.016-.216.016-.218.013-.218.012-.219.011-.221.009-.221.007-.223.006-.223.004-.224.002-.225.001-.226-.001-.227-.002-.228-.004-.228-.006-.23-.007-.23-.009-.231-.011-.231-.012-.232-.014-.233-.015-.234-.017-.234-.019-.235-.021-.235-.022-.236-.024-.237-.025-.237-.027-.237-.029-.238-.03-.238-.032-.239-.034-.239-.035-.24-.037-.24-.039-.24-.041-.241-.042-.24-.043-.241-.046-.242-.047-.241-.048-.242-.051-.241-.052-.242-.053-.242-.056-.242-.057-.242-.058-.242-.061-.242-.062-.242-.063-.242-.065-.242-.067-.242-.069-.242-.07-.241-.071-.241-.074-.241-.075-.241-.076-.241-.079-.24-.079-.24-.082-.24-.083-.239-.084-.239-.087-.238-.087-.238-.09-.238-.09-.237-.093-.236-.094-.236-.095-.235-.098-.235-.098-.234-.1-.233-.102-.233-.103-.232-.105-.231-.106-.231-.108-.23-.109-.229-.111-.228-.112-.227-.114-.226-.115-.225-.116-.225-.118-.223-.119-.223-.121-.221-.122-.221-.124-.219-.125-.218-.126-.217-.128-.216-.129-.215-.13-.214-.132-.212-.133-.211-.134-.21-.136-.209-.137-.207-.138-.206-.14-.204-.141-.203-.142-.202-.143-.2-.144-.199-.146-.197-.147-.196-.148-.194-.149-.193-.15-.191-.152-.189-.152-.188-.154-.186-.155-.184-.156-.183-.157-.181-.158-.179-.159-.178-.16-.175-.161-.174-.162-.172-.163-.17-.164-.169-.165-.166-.166-.164-.167-.163-.168-.16-.169-.159-.169-.156-.171-.155-.171-.152-.172-.15-.173-.149-.174-.146-.174-.144-.175-.142-.176-.139-.177-.138-.177-.135-.179-.133-.178-.131-.18-.128-.18-.126-.181-.124-.181-.122-.182-.119-.183-.117-.183-.114-.183-.112-.184-.11-.185-.107-.185-.105-.186-.102-.186-.1-.186-.098-.187-.094-.187-.093-.188-.09-.188-.087-.188-.085-.189-.082-.189-.079-.189-.077-.189-.075-.19-.071-.19-.069-.19-.067-.19-.063-.191-.061-.19-.059-.191-.055-.191-.053-.191-.05-.191-.048-.191-.045-.191-.041-.191-.04-.191-.036-.191-.034-.191-.03-.191-.028-.19-.025-.191-.023-.19-.019-.191-.017-.19-.014-.19-.011-.19-.008-.189-.005-.189-.002-.189v-.189l.003-.188.007-.188.009-.188.012-.187.015-.187.018-.186.021-.186.024-.186.026-.185.03-.184.032-.185.036-.183.038-.183.042-.182.044-.182.047-.181.05-.181.053-.179.056-.179.059-.179.062-.178.065-.177.068-.176.071-.175.073-.175.077-.174.079-.172.083-.173.085-.171.088-.17.091-.169.095-.169.097-.167.1-.167.102-.165.106-.165.109-.163.111-.163.115-.161.117-.16.12-.159.123-.158.126-.157.128-.156.132-.154.134-.154.137-.152.14-.15.143-.15.146-.148.148-.147.151-.146.154-.144.157-.143.159-.142.162-.14.165-.139.167-.138.171-.136.172-.134.176-.133.178-.132.181-.13.184-.129.186-.127.188-.125.192-.124.193-.122.197-.121.199-.119.201-.118.204-.116.207-.114.209-.113.211-.111.214-.109.216-.107.219-.106.221-.104.223-.102.226-.101.228-.098.23-.097.233-.095.235-.093.237-.092.24-.089.241-.088.244-.086.246-.084.248-.082.25-.08.253-.078.254-.076.257-.075.258-.072.261-.07.262-.069.265-.066.266-.064.269-.063.27-.06.272-.059.274-.056.276-.054.277-.052.28-.05.281-.048.283-.046.284-.044.286-.042.288-.039.289-.038.291-.035.293-.033.294-.031.296-.029.297-.027.298-.025.3-.022.301-.02.303-.018.304-.016.305-.014.307-.011.307-.01.309-.007.311-.005.311-.002.312-.001.314.002.315.004.315.007.317.008.318.011.318.013.32.015.32.018.321.02.322.022.323.024.324.026.324.029.325.031.325.034.327.035.326.038.328.04.328.042.328.045.329.047.329.049.33.051.33.054.33.056.331.058.331.061.331.062.331.065.331.067.332.07.332.071.331.074.332.076.332.079.331.08.332.083.331.085.332.087.331.089.331.092.33.094.331.096.33.098.329.1.33.102.328.105.329.107.328.109.327.111.327.113.326.115.326.118.324.119.325.122.323.123.323.126.322.128.321.13.32.132.319.134.318.136.317.138.317.14.315.142.314.144.313.146.312.148.311.15.309.152.308.154.307.155.306.158.304.159.303.162.301.163.3.165.299.167.297.168.295.171.294.172.292.174.29.176.289.178.287.179.286.181.283.183.282.184.28.186.278.188.276.189.274.191.273.193.27.194.268.195.266.198.264.198.262.201.26.202.257.203.255.204.253.207.251.207.249.209.246.21.244.212.241.213.239.215.236.215.234.217.232.218.229.22.226.221.224.221.221.223.218.225.216.225.213.226.211.228.208.229.204.229.202.231.2.232.196.232.194.234.19.235.188.235.185.237.181.237.179.238.176.239.173.24.169.24.167.242.163.242.16.242.158.244.153.244.151.245.148.245.144.246.141.246.138.247.134.248.131.248.128.248.125.249.121.25.118.249.114.25.111.251.107.251.104.251.101.251.097.252.093.251.09.252.087.253.082.252.08.252.076.253.072.252.068.253.065.252.062.253.057.252.054.253.051.252.046.252.043.253.04.251.035.252.032.252.029.251.024.251.021.251.017.25.013.25.009.249.006.25.002.248-.002.249-.005.247-.01.248-.013.247-.017.246-.021.245-.025.245-.028.245-.032.243-.036.243" stroke="url(#d)"/><path d="m478.154 309.001-.026-.016-.026-.016-.026-.017-.026-.016-.025-.018-.025-.017-.025-.018-.025-.018-.024-.018-.024-.019-.024-.019-.024-.019-.023-.019-.022-.02-.023-.02-.022-.02-.022-.021-.021-.021-.021-.021-.021-.021-.02-.022-.02-.022-.019-.022-.02-.022-.018-.023-.018-.022-.018-.023-.018-.023-.017-.024-.016-.023-.016-.024-.016-.024-.015-.024-.015-.025-.014-.024-.014-.025-.013-.025-.013-.025-.012-.025-.012-.026-.011-.025-.01-.026-.011-.026-.009-.026-.009-.026-.009-.026-.008-.026-.007-.027-.007-.026-.006-.027-.006-.027-.005-.026-.005-.027-.004-.027-.003-.027-.003-.027-.002-.027-.002-.027-.001-.028v-.054l.001-.027.001-.028.003-.027.002-.027.004-.028.004-.027.004-.027.006-.028.006-.027.006-.027.008-.027.008-.028.008-.027.01-.027.009-.027.011-.027.011-.026.012-.027.013-.027.013-.026.014-.027.015-.026.015-.026.016-.026.017-.026.018-.026.018-.026.018-.026.02-.025.02-.025.021-.025.022-.025.022-.025.023-.024.023-.025.025-.024.025-.024.026-.024.026-.023.027-.023.028-.023.028-.023.03-.023.03-.022.03-.022.031-.022.032-.022.033-.021.033-.021.034-.021.035-.02.035-.02.036-.02.037-.019.038-.02.038-.018.038-.019.04-.018.04-.018.04-.018.042-.017.042-.017.043-.016.043-.016.044-.016.044-.015.046-.015.046-.015.046-.014.047-.014.048-.013.048-.013.049-.012.05-.013.05-.011.051-.011.051-.011.052-.011.053-.01.053-.009.053-.009.055-.009.054-.008.056-.007.056-.007.056-.007.057-.006.058-.006.058-.005.058-.005.059-.004.06-.004.06-.003.06-.003.061-.002.062-.002.062-.001h.188l.064.001.064.002.065.002.065.003.065.003.066.003.067.005.066.005.067.005.068.006.067.007.068.007.069.008.068.008.069.009.07.009.07.01.07.011.07.011.07.012.071.012.071.013.071.014.072.014.072.015.072.015.072.016.072.017.073.017.073.018.073.018.073.019.073.02.073.02.074.021.073.021.074.023.074.022.074.024.074.023.074.025.074.025.074.026.074.026.075.027.074.028.074.028.074.029.074.029.074.03.074.031.074.031.074.032.074.033.074.033.074.033.073.035.074.034.073.036.073.036.073.037.073.037.073.038.072.038.072.039.072.04.072.04.071.041.072.041.071.042.07.043.071.043.07.044.07.044.069.045.07.045.068.046.069.046.068.047.068.048.067.048.067.049.066.049.066.05.066.05.065.051.065.051.064.052.064.052.063.053.063.053.062.054.061.054.061.055.061.055.06.056.059.056.059.057.058.057.058.058.057.058.056.058.056.059.055.06.054.059.054.061.053.06.052.061.052.062.05.062.051.062.049.063.048.063.048.063.047.064.047.064.045.065.045.064.043.066.043.065.043.066.041.066.04.067.04.066.039.067.037.068.037.067.036.068.035.069.035.068.033.069.032.069.031.069.031.069.029.07.029.07.027.07.027.07.025.071.024.07.024.071.022.071.021.071.021.072.019.071.018.072.017.071.016.072.015.072.014.072.013.072.011.072.011.073.009.072.008.072.008.073.006.072.004.073.004.072.003.073.001.072v.073l-.001.072-.002.073-.003.072-.005.072-.005.073-.007.072-.009.072-.009.072-.01.072-.012.072-.013.072-.014.071-.016.072-.017.071-.018.071-.019.071-.02.071-.022.071-.023.071-.024.07-.025.07-.027.07-.028.069-.029.07-.031.069-.032.069-.033.069-.034.068-.036.068-.036.068-.039.067-.039.067-.041.067-.042.067-.043.066-.045.066-.045.065-.047.065-.049.065-.05.064-.051.064-.052.063-.053.063-.055.063-.056.062-.058.062-.058.061-.06.061-.061.06-.063.06-.063.059-.065.059-.067.058-.067.058-.069.057-.07.057-.071.056-.073.056-.074.055-.075.054-.076.054-.077.053-.079.053-.08.052-.081.051-.083.051-.083.05-.085.049-.086.049-.087.048-.089.048-.089.046-.091.046-.092.046-.093.044-.094.044-.096.044-.096.042-.098.042-.099.041-.1.04-.101.039-.102.039-.103.038-.105.037-.105.036-.107.036-.108.034-.108.034-.11.033-.111.032-.112.032-.113.03-.114.03-.115.028-.116.028-.117.027-.118.027-.118.025-.12.024-.121.024-.122.022-.123.022-.123.02-.125.02-.125.019-.126.018-.128.017-.128.016-.129.015-.129.014-.131.013-.131.012-.133.011-.133.01-.133.009-.135.009-.135.007-.136.006-.137.005-.138.004-.138.003-.139.003-.139.001h-.141l-.141-.001-.141-.002-.142-.003-.143-.004-.143-.006-.144-.006-.145-.007-.145-.008-.146-.01-.146-.01-.146-.012-.148-.012-.147-.014-.148-.014-.149-.016-.149-.017-.149-.018-.15-.019-.15-.02-.15-.021-.151-.023-.152-.023-.151-.024-.152-.026-.152-.026-.152-.028-.153-.029-.153-.03-.153-.031-.153-.032-.154-.033-.153-.035-.154-.035-.154-.036-.154-.038-.155-.039-.154-.039-.154-.041-.155-.042-.154-.043-.154-.044-.155-.046-.154-.046-.155-.047-.154-.049-.154-.049-.154-.051-.155-.052-.154-.052-.153-.054-.154-.055-.153-.056-.154-.057-.153-.059-.153-.059-.152-.06-.153-.061-.152-.063-.151-.063-.152-.065-.151-.065-.15-.067-.151-.067-.15-.069-.149-.07-.149-.07-.149-.072-.148-.073-.148-.073-.147-.075-.147-.076-.146-.077-.145-.077-.145-.079-.145-.08-.144-.08-.143-.082-.142-.082-.142-.084-.141-.084-.141-.086-.139-.086-.139-.087-.139-.089-.137-.089-.137-.09-.135-.091-.135-.091-.135-.093-.133-.094-.132-.094-.132-.095-.13-.097-.13-.097-.129-.097-.128-.099-.126-.1-.126-.1-.125-.101-.123-.102-.123-.103-.122-.103-.12-.104-.119-.105-.119-.106-.117-.107-.116-.107-.114-.108-.114-.109-.112-.109-.111-.11-.11-.111-.109-.111-.107-.113-.106-.112-.105-.114-.104-.114-.102-.114-.101-.116-.099-.116-.098-.116-.097-.117-.095-.118-.094-.118-.092-.119-.091-.119-.089-.12-.088-.12-.087-.121-.085-.121-.083-.122-.082-.122-.08-.123-.079-.123-.077-.123-.076-.124-.074-.125-.072-.125-.071-.125-.069-.125-.067-.126-.066-.126-.064-.127-.062-.127-.061-.127-.059-.127-.057-.128-.056-.128-.053-.128-.052-.129-.05-.128-.049-.129-.046-.129-.045-.129-.043-.13-.041-.129-.039-.13-.038-.13-.035-.13-.034-.13-.032-.13-.03-.13-.028-.131-.026-.13-.024-.13-.023-.131-.02-.13-.018-.131-.017-.13-.015-.13-.012-.13-.011-.131-.008-.13-.007-.13-.005-.129-.003-.13v-.13l.001-.129.003-.129.006-.13.007-.128.009-.129.012-.129.013-.128.016-.128.017-.127.02-.128.021-.127.024-.127.025-.126.028-.126.03-.126.032-.125.034-.125.036-.125.038-.124.04-.123.042-.124.045-.122.046-.123.049-.121.05-.122.053-.12.054-.121.057-.119.059-.119.061-.119.063-.118.065-.117.067-.117.069-.116.072-.115.073-.115.076-.114.077-.114.08-.112.081-.112.084-.111.086-.111.087-.11.09-.108.092-.109.094-.107.096-.106.098-.106.1-.105.102-.104.104-.103.106-.102.108-.101.11-.101.112-.099.114-.099.116-.097.118-.097.119-.095.122-.095.124-.094.126-.092.127-.092.13-.09.131-.09.133-.088.136-.087.137-.087.139-.085.141-.084.142-.082.145-.082.146-.081.148-.079.15-.078.152-.077.154-.076.155-.075.157-.073.159-.072.16-.071.163-.07.164-.068.165-.067.168-.066.169-.065.17-.063.173-.062.174-.061.175-.059.178-.058.178-.056.181-.055.182-.054.183-.053.185-.051.186-.049.188-.049.19-.046.191-.046.192-.044.194-.042.195-.041.196-.04.198-.038.199-.036.201-.036.202-.033.203-.032.205-.031.206-.029.207-.028.208-.026.209-.024.211-.023.212-.022.213-.02.214-.018.215-.017.216-.015.217-.014.219-.012.219-.01.221-.009.221-.007.222-.006.224-.004.224-.002.225-.001.226.001.227.002.228.004.228.006.229.007.231.009.23.01.232.013.232.013.233.016.234.017.234.019.235.02.235.022.236.024.236.026.237.027.238.028.238.031.238.032.239.034.239.035.24.037.24.039.24.04.24.042.241.044.241.045.241.047.242.049.241.05.242.052.242.054.242.055.242.057.242.059.242.06.242.062.242.064.242.065.242.067.242.068.241.07.242.072.241.073.241.075.241.077.241.078.24.08.24.081.239.083.24.085.238.086.239.088.238.089.237.091.237.093.237.094.236.095.235.097.235.099.234.1.233.102.233.103.232.105.231.106.231.108.229.109.229.11.228.113.228.113.226.115.225.117.225.118.223.119.223.121.221.122.221.124.219.125.218.126.217.128.216.129.215.13.214.132.212.133.211.134.21.136.208.137.208.138.205.139.205.141.203.142.202.143.2.145.199.145.197.147.196.148.194.15.192.15.191.151.19.153.188.154.186.154.184.156.183.157.181.158.179.159.178.161.175.161.174.162.172.163.17.164.168.165.167.166.164.167.163.168.16.168.159.17.156.17.155.172.152.172.15.173.148.173.147.175.144.175.141.176.14.177.137.177.136.178.133.179.13.18.129.18.126.18.124.182.121.182.12.182.116.183.115.184.112.184.11.185.107.185.105.185.102.186.1.187.097.187.095.187.093.188.089.188.088.188.084.188.083.189.079.19.077.189.074.19.072.19.069.19.066.19.064.19.061.191.058.191.056.191.053.19.05.191.048.191.044.191.042.191.039.192.037.19.033.191.031.191.028.191.025.191.023.19.019.19.017.191.014.189.011.19.008.19.005.189.002.189v.189l-.004.188-.006.188-.009.187-.012.188-.015.187-.018.186-.021.186-.024.186-.027.185-.029.184-.033.184-.035.184-.039.183-.041.182-.044.182-.047.181-.05.18-.054.18-.056.179-.059.179-.061.177-.065.177-.068.176-.071.176-.073.174-.077.174-.079.173-.083.172-.085.171-.088.171-.092.169-.094.168-.097.168-.1.166-.103.166-.105.164-.109.164-.111.162-.115.162-.117.16-.12.159-.123.158-.126.157-.129.155-.131.155-.134.153-.138.152-.14.151-.142.15-.146.148-.148.147-.151.146-.154.144-.157.143-.159.142-.162.14-.165.139-.168.137-.17.136-.173.135-.175.133-.178.131-.181.131-.184.128-.186.127-.189.126-.191.124-.194.122-.196.121-.199.119-.201.118-.204.115-.207.115-.209.112-.211.111-.214.109-.216.108-.219.106-.221.104-.223.102-.226.1-.228.099-.231.097-.232.095-.235.093-.237.092-.24.089-.241.088-.244.086-.246.083-.248.082-.251.081-.252.078-.254.076-.257.074-.258.073-.261.07-.263.068-.264.067-.267.064-.268.063-.27.06-.272.058-.274.056-.276.055-.278.052-.279.05-.281.048-.283.046-.284.044-.286.041-.288.04-.29.037-.291.036-.292.033-.294.031-.296.029-.297.027-.298.024-.3.023-.301.02-.303.018-.304.016-.305.014-.307.011-.308.009-.309.007-.31.005-.311.003h-.313l-.313-.002-.315-.004-.316-.006-.316-.009-.318-.01-.318-.013-.32-.016-.32-.017-.321-.02-.322-.022-.323-.024-.324-.027-.324-.029-.325-.031-.326-.033-.326-.035-.327-.038-.327-.04-.328-.043-.328-.044-.329-.047-.329-.049-.33-.052-.33-.053-.33-.056-.331-.058-.331-.061-.331-.063-.331-.064-.332-.068-.331-.069-.332-.072-.332-.073-.331-.077-.332-.078-.332-.08-.331-.083-.332-.085-.331-.087-.331-.09-.331-.091-.331-.094-.33-.096-.33-.098-.33-.1-.329-.103-.329-.104-.328-.107-.328-.109-.327-.111-.327-.113-.326-.116-.326-.117-.325-.119-.324-.122-.323-.124-.323-.126-.322-.127-.321-.13-.32-.132-.319-.134-.318-.136-.318-.138-.316-.14-.315-.142-.314-.144-.313-.146-.312-.148-.311-.15-.309-.152-.308-.154-.307-.156-.306-.157-.304-.16-.303-.161-.301-.163-.3-.165-.299-.167-.297-.169-.295-.17-.294-.173-.292-.174-.291-.175-.289-.178-.287-.179-.285-.181-.284-.183-.281-.184-.28-.186-.278-.188-.276-.19-.275-.19-.272-.193-.27-.194-.268-.196-.266-.197-.264-.199-.262-.2-.26-.202-.257-.203-.256-.205-.253-.206-.25-.208-.249-.208-.246-.211-.244-.212-.241-.213-.239-.214-.236-.216-.234-.217-.232-.218-.229-.219-.226-.221-.224-.222-.221-.223-.219-.224-.216-.225-.213-.227-.21-.227-.208-.229-.205-.23-.202-.23-.199-.232-.196-.233-.194-.233-.19-.235-.188-.236-.185-.236-.182-.237-.178-.238-.176-.239-.173-.24-.169-.241-.167-.241-.163-.242-.161-.243-.157-.243-.154-.244-.15-.245-.148-.245-.144-.246-.141-.247-.138-.247-.135-.247-.131-.248-.128-.249-.124-.249-.121-.249-.118-.25-.114-.25-.111-.25-.107-.251-.104-.251-.101-.251-.097-.252-.093-.252-.09-.252-.087-.252-.083-.252-.079-.253-.076-.252-.072-.253-.069-.252-.065-.253-.061-.252-.058-.253-.054-.252-.05-.253-.047-.252-.043-.252-.039-.252-.036-.252-.032-.251-.028-.251-.024-.251-.021-.251-.017-.25-.013-.25-.01-.25-.005-.249-.002-.249.002-.248.005-.248.01-.247.013-.247.017-.246.021-.246.024-.245.029-.244.032-.244.036-.243" stroke="url(#e)"/><ellipse cx="479.365" cy="309.891" rx="6.11" ry="4.066" transform="rotate(16.465 479.365 309.891)" fill="#fff"/><path d="M363.23 40.178c31.129 35.72 24.882 32.927 62.73 49.752 1.768.786 1.534 3.388-.359 3.794l-73.935 15.862a1.999 1.999 0 0 1-2.133-.925l-32.88-54.65a2 2 0 0 1 1.2-2.963l43.335-11.513c.736-.196 1.542.07 2.042.643Z" fill="#fff" stroke="#000"/><path d="M282.047 124.476s9.725-24.645 26.833-5.955c3.324 3.59 13.155 16.994 19.839 15.41 0 0-11.593 11.155-22.097-.414-10.757-11.89-20.362-13.668-24.575-9.041Z" fill="#ED1C24"/><path d="M306.641 112.233s10.664-10.036 15.833 5.197c.458 1.507 3.599 12.63 7.822 14.94 0 0-6.448.849-11.821-7.74-5.368-8.557-6.95-12.183-11.834-12.397Zm-7.329 32.988c-11.641-7.838-18.28-9.434-25.575-3.945 0 0 6.025-30.416 30.324-5.599 8.687 8.876 15.507 5.98 15.763 5.936-1.361 1.854-8.872 11.445-20.512 3.608Zm14.236-58.154s5.987-9.79 11.892-.539c1.151 1.78 4.345 8.232 7.315 8.055 0 0-5.778 3.894-9.397-1.826-3.702-5.875-7.668-7.35-9.81-5.69Z" fill="#ED1C24"/><path d="M324.953 83.678s5.299-3.486 6.368 3.399c.083.677.593 5.657 2.223 6.958 0 0-2.814-.12-4.466-4.185-1.652-4.05-2.057-5.716-4.125-6.172Zm-5.587 13.528c-4.382-4.212-7.095-5.389-10.617-3.59 0 0 4.839-12.529 13.355-.128 3.045 4.435 6.17 3.709 6.283 3.709-.719.69-4.639 4.221-9.021.009Zm-4.164-26.51s4.457-7.287 8.853-.401c.856 1.325 3.234 6.127 5.444 5.995 0 0-4.301 2.9-6.994-1.358-2.756-4.373-5.708-5.471-7.303-4.236Z" fill="#ED1C24"/><path d="M323.693 68.174s3.944-2.595 4.739 2.53c.062.503.442 4.21 1.655 5.178 0 0-2.095-.088-3.325-3.114-1.229-3.016-1.53-4.255-3.069-4.594Zm-4.16 10.069c-3.262-3.135-5.281-4.01-7.903-2.673 0 0 3.602-9.325 9.941-.094 2.266 3.301 4.593 2.76 4.677 2.76-.536.514-3.453 3.142-6.715.007Z" fill="#ED1C24"/><path d="m363.178 47.947-5.71 1.517-6.962-6.714 5.988-1.591 6.684 6.788Zm-10.065 2.674-5.71 1.517-6.961-6.714 5.988-1.591 6.683 6.788Zm-10.064 2.674-5.71 1.517-6.962-6.715 5.988-1.59 6.684 6.788Zm-10.065 2.673-5.71 1.517-6.961-6.714 5.988-1.59 6.683 6.788Z" fill="#C4C4C4"/><path fill-rule="evenodd" clip-rule="evenodd" d="M370.8 120.518h-.003a8.078 8.078 0 0 0-9.664-5.558v-.003a8.077 8.077 0 0 0 5.601-9.739l.004-.001a8.077 8.077 0 0 0 9.663 5.559l.001.003a8.078 8.078 0 0 0-5.602 9.739Z" fill="#fff"/><path d="M323.943 66.428c10.427-4.662 22.581-7.417 35.907-5.67 0 0 7.104.773 7.431 2.005.328 1.233-5.384 5.7-5.384 5.7-10.541 8.13-22.818 11.872-33.986 12.9-3.632-1.33-6.169-12.102-3.968-14.935Z" fill="#fff" stroke="#000"/><path d="M326.024 79.381c15.097-6.75 32.694-10.739 51.987-8.209 0 0 10.284 1.119 10.758 2.903.475 1.785-7.794 8.253-7.794 8.253-15.263 11.771-33.037 17.188-49.206 18.675-5.258-1.925-8.932-17.52-5.745-21.622Zm2.848 58.7c-6.409-8.77-10.485-21.958-9.174-34.63.222-2.146 1.833-3.849 3.919-4.403a5.592 5.592 0 0 1 6.84 3.968l7.962 29.973a5.646 5.646 0 0 1-4.007 6.907c-2.061.548-4.282-.093-5.54-1.815Z" fill="#fff" stroke="#000"/><path d="M333.289 134.225c-6.664-8.33-10.624-20.919-8.808-33.245.343-2.328 2.149-4.119 4.423-4.723a6.447 6.447 0 0 1 7.886 4.575l7.24 27.254a6.515 6.515 0 0 1-4.624 7.969c-2.242.596-4.667-.018-6.117-1.83Z" fill="#fff" stroke="#000"/><path d="m340.574 221.204 2.397-3.982 43.717-10.675-3.724 4.664-42.39 9.993Z" fill="#fff" stroke="#000" stroke-linejoin="round"/><path d="M335.404 87.18c38.814-17.356 84.054-27.61 133.657-21.105 0 0 26.441 2.876 27.66 7.463 1.219 4.588-20.04 21.219-20.04 21.219-39.239 30.262-84.937 44.188-126.508 48.013-13.516-4.95-22.962-45.044-14.769-55.59Z" fill="#fff" stroke="#000"/><path d="m451.189 73.16-34.124 8.239a19.997 19.997 0 0 0-9.905 5.771l-39.053 41.709m82.605-60.946-36.048 8.815a19.997 19.997 0 0 1-9.284.052l-22.372-5.207" stroke="#C4C4C4" stroke-linecap="round" stroke-linejoin="round"/><path d="M463.766 70.986c1.761 4.197.688 12.854-.755 15.678-.296.579-.899.87-1.527 1.036l-11.415 3.033c1.693-1.282 4.272-12.12 1.522-18.816-2.823-6.875-9.813-7.78-11.609-7.844l14.69.534c.053.002.105.008.157.018 2.404.445 6.167-.243 8.937 6.36Z" fill="#fff"/><path d="m463.011 86.664-.446-.227.446.227Zm.755-15.678.461-.194-.461.194Zm-8.937-6.361.091-.492-.091.492Zm-4.76 26.108-.302-.399a.5.5 0 0 0 .431.882l-.129-.483Zm1.522-18.816.463-.19-.463.19Zm3.081-7.31.018-.5-.018.5Zm8.784 22.285c.768-1.503 1.402-4.454 1.632-7.515.23-3.061.067-6.373-.861-8.585l-.922.387c.833 1.986 1.013 5.1.786 8.123-.227 3.023-.85 5.813-1.526 7.135l.891.455Zm.771-16.1c-1.421-3.388-3.132-4.98-4.863-5.753-.854-.381-1.688-.552-2.445-.657-.377-.051-.742-.088-1.075-.124a12.637 12.637 0 0 1-.924-.125l-.182.983c.321.06.659.1.998.136.344.037.688.072 1.046.121.711.098 1.441.252 2.174.58 1.445.644 3 2.01 4.349 5.226l.922-.387Zm-13.856 20.34c.302-.23.569-.62.805-1.069.243-.462.482-1.043.706-1.71.448-1.335.849-3.05 1.109-4.93.518-3.743.486-8.23-.937-11.696l-.925.38c1.325 3.229 1.379 7.51.872 11.18-.253 1.827-.642 3.48-1.067 4.747a10.908 10.908 0 0 1-.643 1.564c-.219.416-.403.645-.524.736l.604.797Zm1.683-19.405c-2.942-7.163-10.212-8.087-12.054-8.154l-.036 1c1.751.063 8.46.948 11.165 7.534l.925-.38Zm-12.09-7.155 14.689.534.037-.999-14.69-.534-.036 1Zm21.392 22.645-11.415 3.032.257.967 11.414-3.033-.256-.966Zm-6.436-23.084a1.566 1.566 0 0 0-.23-.026l-.037 1a.581.581 0 0 1 .085.01l.182-.984Zm7.645 22.304c-.196.383-.621.624-1.209.78l.256.966c.667-.177 1.449-.518 1.844-1.291l-.891-.455Z" fill="#000"/><path d="M385.024 88.676c.605 2.055.039 4.285-1.446 6.246-1.484 1.96-3.868 3.62-6.809 4.487-2.941.865-5.844.761-8.154-.083-2.31-.844-3.994-2.412-4.599-4.466-.605-2.055-.038-4.285 1.446-6.246 1.484-1.961 3.868-3.621 6.809-4.487 2.941-.865 5.844-.761 8.154.083 2.31.844 3.995 2.412 4.599 4.466Z" fill="#fff" stroke="#000"/><path d="M381.053 89.845c.366 1.244.028 2.61-.894 3.827-.922 1.218-2.41 2.257-4.254 2.8-1.844.543-3.658.476-5.092-.049-1.435-.524-2.459-1.489-2.825-2.732-.366-1.244-.028-2.61.894-3.828.922-1.217 2.41-2.257 4.254-2.8 1.844-.542 3.657-.475 5.092.05 1.435.524 2.459 1.489 2.825 2.732Z" fill="#fff" stroke="#000"/><path d="M341.395 134.551c17.657-3.309 43.158-8.749 76.626-23.46-17.288 45.711-24.747 62.737-31 95.374l-44.08 11.034-1.546-82.948Z" fill="#fff" stroke="#000" stroke-linejoin="round"/><path d="M318.923 146.623s6.694-10.943 13.294-.602c1.286 1.989 4.857 9.201 8.177 9.003 0 0-6.459 4.354-10.504-2.04-4.139-6.567-8.572-8.216-10.967-6.361Z" fill="#ED1C24"/><path d="M331.673 142.835s5.924-3.897 7.118 3.799c.093.757.663 6.323 2.485 7.778 0 0-3.146-.133-4.992-4.677-1.847-4.529-2.299-6.39-4.611-6.9Zm-6.245 15.122c-4.898-4.709-7.932-6.024-11.869-4.014 0 0 5.41-14.004 14.929-.142 3.403 4.958 6.897 4.145 7.023 4.145-.804.771-5.185 4.719-10.083.011Zm-9.126 12.341s6.705-10.963 13.318-.603c1.288 1.993 4.866 9.218 8.192 9.02 0 0-6.471 4.361-10.524-2.044-4.146-6.579-8.587-8.231-10.986-6.373Z" fill="#ED1C24"/><path d="M329.075 166.504s5.934-3.905 7.131 3.805c.093.759.665 6.335 2.49 7.792 0 0-3.152-.133-5.002-4.686-1.85-4.536-2.303-6.401-4.619-6.911Zm-6.258 15.149c-4.907-4.717-7.946-6.035-11.89-4.021 0 0 5.42-14.03 14.957-.142 3.409 4.966 6.909 4.153 7.035 4.153-.805.772-5.195 4.727-10.102.01Z" fill="#ED1C24"/><path d="M333.03 133.788c16.894-7.554 36.585-12.017 58.175-9.185 0 0 11.509 1.251 12.04 3.248.53 1.997-8.723 9.235-8.723 9.235-17.079 13.172-36.969 19.234-55.063 20.899-5.884-2.155-9.995-19.606-6.429-24.197Z" fill="#fff" stroke="#000"/><path d="M333.91 159.452c13.585-6.074 29.419-9.663 46.779-7.386 0 0 9.254 1.006 9.681 2.612.427 1.606-7.014 7.426-7.014 7.426-13.733 10.592-29.727 15.466-44.277 16.805-4.731-1.733-8.037-15.765-5.169-19.457Z" fill="#fff" stroke="#000"/><path d="m385.9 194.588-5.71 1.517-1.997 11.973 5.988-1.591 1.719-11.899Zm-10.064 2.674-5.71 1.517-1.997 11.973 5.988-1.591 1.719-11.899Zm-10.065 2.674-5.71 1.517-1.997 11.972 5.988-1.59 1.719-11.899Zm-10.064 2.673-5.71 1.517L348 216.099l5.988-1.591 1.719-11.899Z" fill="#C4C4C4"/><path d="m218.458 228.239 119.729-31.912" stroke="url(#f)"/><path d="m201.446 135.016 119.728-31.912" stroke="url(#g)"/><path d="m207.496 140.555 119.728-31.912" stroke="url(#h)"/><path d="m207.27 221.699 119.728-31.911" stroke="url(#i)"/><defs><radialGradient id="f" cx="0" cy="0" r="1" gradientUnits="userSpaceOnUse" gradientTransform="rotate(40.153 -151.252 486.899) scale(35.4665 50.7979)"><stop stop-color="#ED1C24" stop-opacity=".78"/><stop offset="1" stop-color="#ED1C24" stop-opacity="0"/></radialGradient><radialGradient id="g" cx="0" cy="0" r="1" gradientUnits="userSpaceOnUse" gradientTransform="matrix(27.10786 22.87 -32.7562 38.826 261.31 119.06)"><stop stop-color="#ED1C24" stop-opacity=".78"/><stop offset="1" stop-color="#ED1C24" stop-opacity="0"/></radialGradient><radialGradient id="h" cx="0" cy="0" r="1" gradientUnits="userSpaceOnUse" gradientTransform="rotate(40.153 -36.777 428.06) scale(35.4665 50.7979)"><stop stop-color="#ED1C24" stop-opacity=".78"/><stop offset="1" stop-color="#ED1C24" stop-opacity="0"/></radialGradient><radialGradient id="i" cx="0" cy="0" r="1" gradientUnits="userSpaceOnUse" gradientTransform="rotate(40.153 -147.899 468.323) scale(35.4665 50.7979)"><stop stop-color="#ED1C24" stop-opacity=".78"/><stop offset="1" stop-color="#ED1C24" stop-opacity="0"/></radialGradient><linearGradient id="b" x1="95.127" y1="254.197" x2="281.368" y2="289.86" gradientUnits="userSpaceOnUse"><stop stop-color="#fff"/><stop offset="1" stop-color="#fff" stop-opacity="0"/></linearGradient><linearGradient id="c" x1="136.734" y1="252.216" x2="43.613" y2="123.432" gradientUnits="userSpaceOnUse"><stop stop-color="#fff"/><stop offset="1" stop-color="#fff" stop-opacity="0"/></linearGradient><linearGradient id="d" x1="473.246" y1="307.182" x2="509.739" y2="333.019" gradientUnits="userSpaceOnUse"><stop stop-color="#fff"/><stop offset="1" stop-color="#fff" stop-opacity="0"/></linearGradient><linearGradient id="e" x1="482.37" y1="310.819" x2="474.956" y2="274.085" gradientUnits="userSpaceOnUse"><stop stop-color="#fff"/><stop offset="1" stop-color="#fff" stop-opacity="0"/></linearGradient></defs></svg>