<svg width="614" height="518" fill="none" xmlns="http://www.w3.org/2000/svg"><path d="M305.091 373.105v74.152c0 5.523 4.477 10 10 10H495.39m-343.168-94.582h57.003c5.523 0 10-4.478 10-10v-20.399c0-5.523 4.477-10 10-10H247.8m38.428-153.196v62.068c0 5.523 4.477 10 10 10h45.142c5.523 0 10 4.477 10 10v41.09" stroke="#2D2D2D"/><path d="M612.665 516.778H474.064V282.955c0-38.273 31.027-69.3 69.301-69.3 38.273 0 69.3 31.027 69.3 69.3v233.823Z" stroke="#000"/><path d="M428.566 348.804c1.244-5.741 1.668-1.577 3.105 7.692 1.105 7.132 1.471 11.305-.337 13.338l6.182 20.554-14.378 1.549-5.109-16.731c-3.433-.026-11.79-18.569-15.784-27.738-.299-3.233 5.614 3.902 8.418 8.079-2.046-4.203-6.801-14.468-5.767-16.059 1.034-1.591 7.241 9.457 9.446 14.574-2.028-5.888-5.875-18.082-5.043-19.759.832-1.677 6.231 11.455 8.827 18.231-1.727-6.009-5.532-19.726-3.101-17.857 3.039 2.336 9.213 22.096 11.06 24.074 1.847 1.979 1.236-4.205 2.481-9.947Z" fill="#fff"/><path d="M427.785 371.267c.068-.07 3.477-1.352 3.549-1.433m0 0c1.808-2.033 1.442-6.206.337-13.338-1.437-9.269-1.861-13.433-3.105-7.692-1.245 5.742-.634 11.926-2.481 9.947-1.847-1.978-8.021-21.738-11.06-24.074-2.431-1.869 1.374 11.848 3.101 17.857-2.596-6.776-7.995-19.908-8.827-18.231-.832 1.677 3.015 13.871 5.043 19.759-2.205-5.117-8.412-16.165-9.446-14.574-1.034 1.591 3.721 11.856 5.767 16.059-2.804-4.177-8.717-11.312-8.418-8.079 3.994 9.169 12.351 27.712 15.784 27.738l5.109 16.731 14.378-1.549-6.182-20.554Z" stroke="#2D2D2D" stroke-linejoin="round"/><path d="M446.501 401.215c16.992 32.955 18.674 26.512 34 1.238 0 0 12.549-26.713 21.241-33.341 8.693-6.628 7.594 35.113 7.594 35.113-5.349 13.112 1.548 12.747-28.835 43.667-26.892 27.368-59.959-40.077-63.019-70.765.609.001 18.586-5.442 18.586-5.442s3.758 16.585 10.433 29.53Z" fill="#D4E4F3" stroke="#000" stroke-linejoin="round"/><path d="M489.434 450.077v53.335h-87.466v-66.81l87.466 13.475Z" fill="#EBEBEB" stroke="#2D2D2D"/><path d="M540.515 356.307c-11.835-2.052-28.574 4.076-40.082 13.109-4.931 3.869-6.905 10.18-6.641 16.442l5.532 131.179h70.867l10-134.059c.793-21.342-21.443-23.509-39.676-26.671Z" fill="#D4E4F3" stroke="#2D2D2D"/><path d="m550.594 307.077-14.638-4.085-20.441 33.176.948 33.18 27.046-12.727-2.445-34.31 6.889-2.97 2.641-12.264Z" fill="#fff" stroke="#2D2D2D"/><rect x="505.776" y="284.509" width="31.352" height="59.889" rx="9.5" fill="#fff" stroke="#2D2D2D"/><path d="M151.017 386.171H.24v-170.59h150.777v170.59Z" fill="#fff"/><path d="M393.82 171.085H243.042V.495H393.82v170.59Z" fill="#D4E5F3"/><path d="M307.752 103.829c-35.301 5.088-36.284 46.461-34.826 67.133h123.97v-38.419c-5.897-30.635-37.336-27.27-56.294-28.714h-32.85Z" fill="#fff" stroke="#000"/><path d="M240.244 62.072c-.499-2.384-4.426-9.245-5.828-9.245-2.015 0 1.465 7.005 3.058 13.271 1.196 4.706 1.669 9.39 2.77 10.554l-2.567 14.176 13.384-1.48c0-1.663-.987-13.047 1.408-13.313 2.995-.332 7.409-10.316 7.409-13.31 0-2.396-1.885-.998-2.828 0-1.698 1.797-4.83 7.148-6.827 3.82-1.996-3.326 1.757-11.215 4.772-11.183 3.016.031 2.494 5.424 3.885 5.366 1.391-.057 1.807-1.918-.455-6.709-2.262-4.79-11.184.075-12.526 5.064 1.001-3.721 6.493-15.731 5.162-16.929-1.331-1.198-5.864 11.05-7.805 16.929-.222-5.157-.627-17.922-3.012-16.929-1.597.666-.665 14.04 0 19.918Z" fill="#fff"/><path d="m240.244 62.072-.489.102a.5.5 0 0 0 .986-.158l-.497.056Zm0-19.918.193.462-.193-.462Zm3.012 16.929-.5.021a.501.501 0 0 0 .975.135l-.475-.156Zm7.805-16.929.335-.372-.335.372Zm-5.645 16.799a.5.5 0 1 0 .966.26l-.966-.26Zm13.009-4.934.452-.213-.452.214Zm-1.375 8.706-.364-.344.364.344Zm-4.581 13.31.055.497-.055-.497Zm-1.408 13.313.055.497.445-.049v-.448h-.5Zm-13.384 1.48-.492-.09-.12.66.667-.073-.055-.497Zm2.567-14.176.492.089a.496.496 0 0 0-.129-.433l-.363.344Zm-2.77-10.554.485-.123-.485.123Zm-3.058-12.771c-.004 0 .096.011.322.19.206.164.452.413.728.74.55.654 1.173 1.562 1.775 2.557a33.7 33.7 0 0 1 1.627 3.02c.457.972.775 1.804.887 2.34l.979-.204c-.138-.656-.498-1.576-.961-2.561a34.688 34.688 0 0 0-1.676-3.113c-.617-1.018-1.27-1.974-1.866-2.682a6.351 6.351 0 0 0-.872-.88c-.258-.205-.588-.407-.943-.407v1Zm6.325 8.689c-.331-2.928-.729-7.727-.845-11.871-.058-2.075-.045-3.97.079-5.38.063-.709.151-1.272.264-1.668a1.83 1.83 0 0 1 .165-.419c.053-.09.073-.079.033-.062l-.385-.923c-.24.1-.4.293-.508.475a2.789 2.789 0 0 0-.266.654c-.139.486-.235 1.123-.299 1.855-.129 1.468-.141 3.409-.083 5.495.117 4.179.518 9.006.852 11.956l.993-.112Zm-.304-19.4c.053-.023.076-.017.088-.013.022.006.075.03.154.118.168.184.353.54.536 1.091.36 1.086.636 2.706.849 4.557.425 3.69.581 8.148.692 10.735l.999-.043c-.11-2.57-.268-7.072-.697-10.806-.214-1.861-.5-3.568-.894-4.757-.194-.587-.433-1.106-.745-1.45-.16-.176-.36-.33-.607-.403a1.115 1.115 0 0 0-.76.048l.385.923Zm3.294 16.623c.968-2.93 2.581-7.449 4.117-11.08.769-1.819 1.51-3.394 2.134-4.435.316-.527.579-.877.777-1.057.102-.092.145-.101.132-.098a.203.203 0 0 1-.164-.043l.669-.744a.8.8 0 0 0-.736-.186 1.34 1.34 0 0 0-.573.33c-.312.284-.637.74-.963 1.284-.661 1.103-1.424 2.732-2.197 4.56-1.55 3.664-3.173 8.21-4.146 11.156l.95.313Zm6.996-16.713c-.026-.023-.004-.022.017.078.02.096.03.24.019.441-.022.403-.122.948-.291 1.613-.336 1.326-.922 3.035-1.587 4.841-.665 1.806-1.4 3.685-2.037 5.36-.633 1.661-1.174 3.134-1.432 4.094l.966.26c.242-.902.763-2.325 1.4-3.999.633-1.661 1.375-3.557 2.042-5.37.666-1.81 1.267-3.56 1.617-4.94.175-.687.293-1.305.321-1.804a2.77 2.77 0 0 0-.039-.703c-.045-.21-.135-.442-.327-.614l-.669.743Zm-4.345 16.686c.306-1.139 1.058-2.306 2.079-3.349a12.403 12.403 0 0 1 3.566-2.526c1.291-.597 2.564-.878 3.616-.753 1.024.122 1.846.624 2.33 1.649l.904-.427c-.647-1.37-1.789-2.057-3.116-2.215-1.299-.154-2.764.196-4.154.839a13.398 13.398 0 0 0-3.86 2.733c-1.099 1.123-1.966 2.434-2.331 3.79l.966.26Zm11.591-4.979c1.124 2.38 1.545 3.961 1.549 4.918.003.474-.098.736-.204.872-.092.12-.229.196-.459.206l.041.999c.467-.02.903-.197 1.209-.592.293-.379.416-.893.413-1.49-.005-1.184-.507-2.93-1.645-5.34l-.904.427Zm.886 5.996c-.003 0-.002 0 0 0h.003a.191.191 0 0 1-.049-.043c-.067-.076-.147-.217-.237-.449-.187-.481-.325-1.08-.552-1.808-.213-.682-.495-1.43-.951-2.015-.472-.606-1.14-1.043-2.072-1.052l-.011 1c.575.006.973.255 1.295.667.338.434.577 1.035.785 1.698.193.618.374 1.358.574 1.873.104.266.235.537.418.745.195.223.475.398.838.383l-.041-1Zm-3.858-5.367c-.965-.01-1.891.602-2.668 1.422-.792.838-1.51 1.976-2.06 3.206-.55 1.232-.944 2.581-1.068 3.851-.124 1.262.013 2.502.59 3.462l.857-.514c-.422-.704-.565-1.698-.452-2.85.112-1.144.471-2.388.986-3.54.516-1.154 1.177-2.19 1.874-2.928.713-.753 1.387-1.115 1.93-1.11l.011-1Zm-5.206 11.941c.278.463.598.813.967 1.036.377.227.779.305 1.183.263.771-.079 1.505-.59 2.142-1.177.653-.601 1.287-1.361 1.851-2.064.577-.72 1.069-1.363 1.475-1.793l-.727-.687c-.442.47-.978 1.169-1.528 1.854-.563.701-1.156 1.409-1.748 1.954-.608.56-1.137.874-1.568.919a.877.877 0 0 1-.564-.126c-.19-.114-.405-.325-.626-.694l-.857.515Zm7.618-3.735a6.58 6.58 0 0 1 .778-.703c.29-.219.558-.371.769-.434.208-.061.249-.01.256-.003.045.045.162.233.162.797h1c0-.634-.119-1.17-.457-1.506-.376-.373-.865-.36-1.246-.246-.378.112-.758.346-1.087.595a7.473 7.473 0 0 0-.902.813l.727.687Zm1.965-.343c0 .661-.252 1.78-.71 3.136a33.615 33.615 0 0 1-1.817 4.29c-.73 1.439-1.545 2.778-2.349 3.77-.403.496-.793.893-1.158 1.172-.369.282-.681.418-.93.445l.11.994c.5-.055.981-.304 1.427-.644.449-.343.895-.804 1.327-1.337.866-1.067 1.716-2.473 2.464-3.947a34.41 34.41 0 0 0 1.873-4.423c.463-1.37.763-2.62.763-3.456h-1Zm-6.964 12.813c-.52.058-.881.415-1.123.822s-.414.941-.541 1.528c-.255 1.18-.357 2.72-.383 4.271a76.017 76.017 0 0 0 .078 4.466c.056 1.327.116 2.321.116 2.723h1c0-.43-.063-1.481-.117-2.765a76.113 76.113 0 0 1-.077-4.407c.026-1.535.127-2.995.36-4.077.118-.543.262-.956.424-1.228.162-.273.294-.33.373-.339l-.11-.994Zm-1.408 13.314-13.384 1.479.11.994 13.384-1.48-.11-.993Zm-12.837 2.065 2.567-14.176-.984-.179-2.567 14.177.984.178Zm2.438-14.61c-.192-.202-.4-.618-.616-1.287-.209-.65-.405-1.471-.607-2.42-.401-1.882-.824-4.26-1.425-6.625l-.969.247c.595 2.34 1.006 4.658 1.416 6.586.203.955.407 1.817.633 2.519.221.683.484 1.29.842 1.668l.726-.687Zm-2.648-10.332c-.801-3.152-2.086-6.52-2.891-9.016-.41-1.271-.688-2.293-.75-2.985-.032-.354.002-.543.039-.624.014-.03.02-.026.008-.019-.01.006-.001-.005.051-.005v-1c-.199 0-.4.044-.579.156a1.025 1.025 0 0 0-.387.447c-.151.327-.164.735-.128 1.135.073.817.387 1.939.794 3.202.83 2.573 2.082 5.84 2.874 8.956l.969-.247Z" fill="#000"/><path d="M249.295 102.836c-9.633 27.144-.36 41.797 20.327 23.112 0 0 18.19-16.716 29.624-19.983 11.434-3.266-1.583 32.507-1.583 32.507-10.617 11.161-6.533 8.167-48.367 21.779-39.691 12.915-24.993-49.57-13.135-79.853 6.512 4.341 10.743 4.663 18.808 3.346 0 0-5.214 17.799-5.674 19.092Z" fill="#fff" stroke="#000" stroke-linejoin="round"/><path d="m323.227 116.717-1.6-25.27 15.354-5.118 14.5 23.137c-5.174 9.832-17.545 16.374-28.254 7.251Z" fill="#fff" stroke="#000"/><mask id="a" fill="#fff"><path fill-rule="evenodd" clip-rule="evenodd" d="M325.447 39.705c10.255-.595 19.229 6.833 20.56 17.02l.865 6.62a4.506 4.506 0 0 1 1.163 8.908l.385 2.945c1.533 11.732-7.181 22.313-18.989 23.06-11.478.725-21.297-8.153-21.727-19.646l-.698-18.617c-.399-10.655 7.797-19.672 18.441-20.29Z"/></mask><path fill-rule="evenodd" clip-rule="evenodd" d="M325.447 39.705c10.255-.595 19.229 6.833 20.56 17.02l.865 6.62a4.506 4.506 0 0 1 1.163 8.908l.385 2.945c1.533 11.732-7.181 22.313-18.989 23.06-11.478.725-21.297-8.153-21.727-19.646l-.698-18.617c-.399-10.655 7.797-19.672 18.441-20.29Z" fill="#fff"/><path d="m346.007 56.724-.992.13.992-.13Zm-20.56-17.019-.058-.998.058.998Zm21.425 23.64.047 1-.92.043-.119-.913.992-.13Zm1.14.093-.206.978.206-.978Zm3.485 5.335.979.205-.979-.205Zm-3.462 3.48-.991.13-.119-.912.899-.195.211.978Zm.385 2.945.991-.13-.991.13Zm-40.716 3.414.999-.037-.999.037Zm-.698-18.617-.999.037.999-.037Zm38.009-3.141c-1.263-9.667-9.778-16.716-19.51-16.15l-.116-1.997c10.779-.626 20.211 7.181 21.609 17.887l-1.983.26Zm.865 6.621-.865-6.621 1.983-.26.865 6.622-1.983.26Zm.945-1.128a5.49 5.49 0 0 1 1.392.112l-.411 1.957a3.508 3.508 0 0 0-.887-.072l-.094-1.997Zm1.392.112a5.507 5.507 0 0 1 4.259 6.519l-1.958-.41a3.505 3.505 0 0 0-2.712-4.152l.411-1.957Zm4.259 6.519a5.508 5.508 0 0 1-4.23 4.253l-.422-1.955a3.507 3.507 0 0 0 2.694-2.709l1.958.411Zm-5.048 6.349-.384-2.944 1.983-.259.384 2.944-1.983.259Zm-18.06 21.932c11.231-.71 19.518-10.773 18.06-21.932l1.983-.259c1.608 12.306-7.531 23.405-19.917 24.187l-.126-1.996Zm-20.665-18.684c.41 10.93 9.748 19.374 20.665 18.684l.126 1.996c-12.039.761-22.338-8.55-22.789-20.605l1.998-.075Zm-.697-18.617.697 18.617-1.998.075-.698-18.618 1.999-.074Zm17.499-19.255c-10.101.587-17.878 9.144-17.499 19.255l-1.999.074c-.419-11.198 8.194-20.676 19.382-21.325l.116 1.996Z" fill="#000" mask="url(#a)"/><path d="M300.298 49.79c-1.215-7.18 9.637-12.252 19.519-13.781 0 0 5.252-1.255 10.911-.484 5.658.772 8.435 5.372 8.435 5.372 1.028-.939 4.015-1.769 6.763 2.113 3.496 4.939 3.924 13.802 2.854 21.107 0 0-2.019-1.07-5.091.366-2.364 1.104-3.835 4.83-6.49 4.272-2.859-.6 1.661-12.54-3.126-15.483-3.458-2.127-9.509-4.35-14.865-.484-6.695 4.831-17.55 5.048-18.91-2.998Z" fill="#C4C4C4" stroke="#000"/><path d="M310.529 151.649c3.998-4.443 23.204-1.852 28.758 0l-2.374 9.163c-1.737 0-5.624-.133-7.277-.666-1.653-.534-8.443 10.511-11.278 9.343l3.731-8.677-10.043 9.608 4.652-9.608c-2.336 3.342-12.545 10.686-13.408 9.608-.862-1.078 7.252-7.165 8.756-9.608-1.944 2.036-13.076 6.655-15.964 7.988-3.61 1.666 9.448-11.598 14.447-17.151Z" fill="#fff" stroke="#000"/><path d="m245.129 170.959-12.916-56.898c-.245-1.077.452-1.95 1.557-1.95h75.568c1.105 0 2.199.873 2.443 1.95l12.917 56.898h-79.569Z" fill="#C4C4C4" stroke="#2D2D2D" stroke-linejoin="round"/><path d="M415.299 171.765c0-6.245-14.987-47.401-30.597-59.033a.896.896 0 0 0-.262-.136c-7.983-2.587-24.383 5.136-16.788 24.081.024.06.055.12.09.174l19.059 29.221c.56.858-.38 1.929-1.301 1.48-8.699-4.237-32.395-15.307-47.631-17.924a.976.976 0 0 0-1.083.647l-4.011 11.233c-.177.496.051 1.04.531 1.258 13.058 5.939 39.2 23.961 55.543 28.532 11.972 3.347 26.45 1.627 26.45-19.533Z" fill="#fff" stroke="#000"/><circle cx="74.187" cy="277.917" r="18.919" fill="#0070CC" stroke="#000"/><path d="m83.429 291.202-2.2-29.43 17.906-4.585 8.549 28.784-24.255 5.231Z" fill="#fff" stroke="#2D2D2D" stroke-linejoin="round"/><mask id="b" fill="#fff"><path fill-rule="evenodd" clip-rule="evenodd" d="M62.232 232.076s17.024-26.051 33.19-22.71c8.61 1.78 14.427 14.852 17.26 27.938.533.18 1.039.461 1.483.849 1.914 1.673 1.786 4.535-.256 6.072 1.235 8.914.99 16.852-.801 19.945-4.803 8.297-32.785 1.835-38.867-3.931-6.082-5.766-12.009-28.163-12.009-28.163Z"/></mask><path fill-rule="evenodd" clip-rule="evenodd" d="M62.232 232.076s17.024-26.051 33.19-22.71c8.61 1.78 14.427 14.852 17.26 27.938.533.18 1.039.461 1.483.849 1.914 1.673 1.786 4.535-.256 6.072 1.235 8.914.99 16.852-.801 19.945-4.803 8.297-32.785 1.835-38.867-3.931-6.082-5.766-12.009-28.163-12.009-28.163Z" fill="#fff"/><path d="m95.423 209.366-.203.98.203-.98Zm-33.19 22.71-.967.256-.114-.431.243-.372.837.547Zm50.449 5.228-.319.948-.538-.181-.121-.555.978-.212Zm1.483.849-.658.753.658-.753Zm-.256 6.072-.991.137-.081-.583.47-.354.602.8Zm-.801 19.945-.865-.501.865.501ZM95.22 210.346c-3.744-.774-7.602.14-11.35 2.05-3.747 1.91-7.309 4.78-10.408 7.79-3.095 3.004-5.696 6.118-7.526 8.484a80.198 80.198 0 0 0-2.123 2.869 52.292 52.292 0 0 0-.699 1.016l-.034.052-.008.013a.012.012 0 0 0-.002.003l-.838-.547c-.837-.547-.837-.547-.836-.548v-.001l.004-.005a82.404 82.404 0 0 1 2.954-4.076c1.867-2.415 4.532-5.605 7.715-8.695 3.177-3.086 6.902-6.102 10.893-8.137 3.992-2.034 8.325-3.124 12.663-2.227l-.404 1.959Zm16.484 27.17c-1.403-6.485-3.538-12.921-6.357-17.93-2.84-5.047-6.254-8.44-10.126-9.24l.404-1.959c4.737.979 8.536 5.012 11.465 10.218 2.95 5.242 5.14 11.886 6.569 18.488l-1.955.423Zm1.803 1.39a3.37 3.37 0 0 0-1.144-.654l.638-1.896c.653.22 1.274.566 1.822 1.044l-1.316 1.506Zm-.2 4.519c1.546-1.163 1.626-3.273.2-4.519l1.316-1.506c2.403 2.1 2.226 5.713-.313 7.624l-1.203-1.599Zm-1.064 20.244c.763-1.318 1.271-3.859 1.401-7.326.128-3.415-.114-7.568-.726-11.981l1.981-.275c.624 4.501.877 8.774.744 12.331-.132 3.503-.641 6.478-1.669 8.253l-1.731-1.002Zm-37.314-4.155c1.364 1.292 4.088 2.721 7.616 3.999 3.491 1.264 7.646 2.337 11.763 2.977 4.125.642 8.157.839 11.419.387 3.316-.461 5.556-1.55 6.516-3.208l1.731 1.002c-1.442 2.491-4.501 3.705-7.972 4.187-3.526.489-7.77.266-12.001-.391-4.24-.659-8.52-1.764-12.137-3.074-3.58-1.296-6.633-2.837-8.311-4.428l1.376-1.451Zm-12.697-27.438.967-.256v.001l.001.002.003.012.012.047.05.185c.045.163.11.404.197.714a170.56 170.56 0 0 0 3.436 10.88c1.115 3.142 2.412 6.444 3.8 9.309 1.403 2.892 2.85 5.234 4.231 6.544l-1.376 1.451c-1.66-1.573-3.234-4.194-4.654-7.123-1.433-2.956-2.758-6.334-3.886-9.512a172.39 172.39 0 0 1-3.678-11.739l-.051-.192-.014-.05-.003-.013-.001-.003v-.001l.966-.256Z" fill="#2D2D2D" mask="url(#b)"/><path d="M79.411 256.095c-7.532-1.927-11.032-12.882-2.33-12.882 2.33 0 6.141.048 7.642 1.964l11.805-12.69c8.216-11.64 5.249-38.34-24.56-17.555-10.856 7.57-13.131 16.525-11.33 26.529 1.445 8.032 12.498 20.456 20.591 21.84l-1.818-7.206Z" fill="#0070CC" stroke="#2D2D2D" stroke-linejoin="round"/><path fill-rule="evenodd" clip-rule="evenodd" d="m150.425 325.532-16.916-15.288-7.896 44.4 7.07 31.652H72.154c-3.144 2.315-5.967 4.119-8.301 5.212-19.419 9.086-12.796-60.41-11.216-71.471 1.264-8.849 18.952-24.296 29.861-28.869V277.11l21.774-2.572 2.144 7.53c9.345-.274 23.622-.242 26.267 1.549 1.875 1.27 3.026 3.044 3.674 4.545l20.894 23.616c1.913 2.162 5.417 1.648 6.627-.973l18.673-40.432 9.761.001c-4.756 21.275-10.691 43.415-18.017 53.821-6.315 8.968-10.312 12.603-23.87 1.337Zm-80.002 4.828c-.35.623-.536 1.127-.536 1.491 0 4.231-.49 13.274-.934 21.458-.367 6.764-.702 12.94-.702 15.328l6.966-5.837c.234-11.358-1.272-23.139-4.108-29.568-.385-.874-.608-1.835-.685-2.872Z" fill="#2D2D2D"/><path d="m133.509 310.244.335-.371-.669-.605-.158.889.492.087Zm16.916 15.288-.335.371.008.007.008.006.319-.384Zm-24.812 29.112-.492-.088-.018.099.022.098.488-.109Zm7.07 31.652v.5h.624l-.136-.609-.488.109Zm-60.529 0v-.5h-.164l-.132.098.296.402Zm-8.301 5.212.212.453-.212-.453Zm-11.216-71.471.495.071-.495-.071Zm29.861-28.869.194.462.306-.129v-.333h-.5Zm0-14.058-.059-.496-.44.052v.444h.5Zm21.774-2.572.481-.137-.117-.409-.423.05.059.496Zm2.144 7.53-.481.137.106.375.389-.012-.014-.5Zm26.267 1.549-.281.414.281-.414Zm3.674 4.545-.459.198.032.074.053.059.374-.331Zm20.894 23.616-.375.331.375-.331Zm6.627-.973.454.209-.454-.209Zm18.673-40.432v-.5h-.32l-.134.29.454.21Zm9.761.001.488.109.136-.609h-.624v.5Zm-18.017 53.821-.409-.288.409.288ZM70.424 330.36l.498-.037-.123-1.652-.812 1.444.437.245Zm-1.471 22.949.499.027-.5-.027Zm-.702 15.328h-.5v1.071l.821-.688-.321-.383Zm6.966-5.837.321.384.175-.146.004-.227-.5-.011Zm-4.108-29.568.458-.202-.458.202Zm62.065-22.617 16.916 15.288.671-.742-16.917-15.288-.67.742Zm-7.069 44.116 7.896-44.399-.984-.175-7.896 44.399.984.175Zm7.066 31.456-7.07-31.652-.976.218 7.07 31.652.976-.218Zm-61.017.609h60.529v-1H72.154v1Zm-.296-.902c-3.135 2.307-5.926 4.089-8.217 5.161l.424.906c2.378-1.113 5.23-2.94 8.386-5.262l-.593-.805Zm-8.217 5.161c-2.309 1.08-4.144.963-5.644.021-1.54-.968-2.817-2.86-3.844-5.527-2.053-5.326-2.996-13.434-3.283-22.238-.573-17.583 1.475-37.692 2.262-43.203l-.99-.142c-.793 5.55-2.847 25.72-2.271 43.378.287 8.817 1.23 17.07 3.348 22.565 1.058 2.743 2.436 4.876 4.246 6.013 1.848 1.162 4.054 1.23 6.6.039l-.424-.906Zm-10.509-70.947c.299-2.091 1.584-4.635 3.575-7.378 1.982-2.731 4.629-5.611 7.585-8.365 5.918-5.516 13.018-10.48 18.4-12.735l-.387-.923c-5.528 2.317-12.726 7.363-18.695 12.926-2.988 2.785-5.682 5.712-7.712 8.509-2.022 2.785-3.422 5.49-3.756 7.824l.99.142Zm29.866-28.94V277.11h-1v14.058h1Zm-.441-13.561 21.773-2.572-.117-.993-21.773 2.572.117.993Zm21.234-2.932 2.144 7.53.962-.273-2.144-7.531-.962.274Zm29.172 8.528c-.403-.273-.982-.486-1.659-.662-.688-.179-1.521-.329-2.46-.456-1.879-.253-4.222-.417-6.762-.516-5.084-.198-11.003-.138-15.681 0l.029.999c4.667-.137 10.56-.197 15.613 0 2.527.099 4.833.261 6.667.508.917.124 1.707.268 2.342.433.646.167 1.092.347 1.35.522l.561-.828Zm3.853 4.761c-.674-1.562-1.877-3.424-3.853-4.761l-.561.828c1.776 1.202 2.874 2.889 3.496 4.329l.918-.396Zm20.809 23.483-20.893-23.616-.749.662 20.893 23.616.749-.662Zm5.799-.852c-1.059 2.293-4.125 2.744-5.799.852l-.749.662c2.152 2.433 6.094 1.854 7.456-1.095l-.908-.419Zm18.673-40.432-18.673 40.432.908.419 18.673-40.432-.908-.419Zm10.215-.289-9.761-.001v1l9.761.001v-1Zm-17.609 54.609c3.711-5.27 7.045-13.469 10.041-22.972 3.001-9.516 5.677-20.386 8.056-31.028l-.976-.218c-2.377 10.632-5.046 21.47-8.033 30.945-2.992 9.487-6.289 17.561-9.905 22.697l.817.576Zm-24.597 1.433c3.404 2.829 6.234 4.745 8.67 5.874 2.441 1.132 4.515 1.487 6.388 1.153 1.873-.334 3.474-1.345 4.991-2.812 1.512-1.462 2.97-3.406 4.548-5.648l-.817-.576c-1.579 2.242-2.989 4.115-4.426 5.505-1.432 1.385-2.861 2.259-4.471 2.547-1.611.287-3.473-.001-5.792-1.076-2.324-1.077-5.078-2.932-8.452-5.736l-.639.769Zm-80.118 4.199c-.356.633-.601 1.234-.601 1.736h1c0-.226.128-.633.472-1.246l-.871-.49Zm-.601 1.736c0 4.213-.49 13.239-.934 21.431l.999.054c.443-8.175.935-17.237.935-21.485h-1Zm-.934 21.431c-.366 6.753-.702 12.949-.702 15.355h1c0-2.37.334-8.527.701-15.301l-.999-.054Zm.12 15.738 6.965-5.836-.642-.767-6.966 5.837.642.766Zm2.079-35.586c2.792 6.328 4.298 18.022 4.065 29.356l1 .021c.234-11.383-1.27-23.252-4.15-29.781l-.915.404Zm-.727-3.037c.08 1.085.315 2.104.727 3.037l.915-.404c-.36-.814-.571-1.719-.645-2.707l-.997.074Z" fill="#000"/><path d="M68.637 388.727c18.8-12.249 50.357-45.444 56.998-52.521l-4.638-10.892-51.619 42.326" stroke="#000"/><path d="M121.292 325.388c4.436-8.658 13.34-28.31 15.884-27.905 2.279.363-2.576 9.516-5.152 15.24 1.574-2.933 5.152-8.414 6.869-6.868.551.496-.793 3.668-2.31 6.35 1.74-2.376 4.002-4.67 5.313-3.241.858.937-3.35 6.388-4.72 8.135 1.324-1.524 5.384-7.691 6.414-5.287 1.031 2.404-11.637 18.155-18.005 24.094l-4.293-10.518Z" fill="#FFFDFD"/><path d="m121.292 325.388-.445-.228-.105.204.087.213.463-.189Zm15.884-27.905-.079.494.079-.494Zm-5.152 15.24-.456-.205a.501.501 0 0 0 .897.442l-.441-.237Zm6.869-6.868.334-.372-.334.372Zm-4.183 9.23-.434-.248a.5.5 0 0 0 .825.559l-.391-.311Zm7.186-6.121.368-.337-.368.337Zm-4.72 8.135-.394-.308a.5.5 0 0 0 .771.636l-.377-.328Zm6.414-5.287.46-.197-.46.197Zm-18.005 24.094-.463.189.274.671.53-.495-.341-.365Zm-3.849-10.29c1.112-2.169 2.503-5.027 4-8.077 1.499-3.054 3.105-6.305 4.651-9.271 1.548-2.969 3.028-5.64 4.276-7.539.625-.951 1.179-1.689 1.642-2.172.233-.242.426-.402.58-.494.159-.096.22-.085.212-.086l.158-.988c-.326-.051-.633.065-.885.217a4.019 4.019 0 0 0-.785.658c-.528.549-1.122 1.347-1.758 2.316-1.276 1.943-2.776 4.651-4.327 7.626-1.552 2.978-3.163 6.238-4.662 9.292-1.499 3.057-2.885 5.903-3.991 8.062l.889.456Zm15.361-27.639c.05.008.065.022.073.029a.307.307 0 0 1 .062.132c.051.189.054.511-.03.989-.165.941-.62 2.255-1.244 3.776-1.248 3.043-3.087 6.72-4.39 9.615l.912.411c1.273-2.829 3.15-6.591 4.403-9.646.627-1.528 1.119-2.928 1.304-3.984.091-.521.12-1.018.01-1.422a1.267 1.267 0 0 0-.323-.58 1.114 1.114 0 0 0-.619-.308l-.158.988Zm-4.632 14.983c.778-1.451 2.047-3.521 3.322-5.028.642-.759 1.253-1.336 1.777-1.634.259-.148.465-.208.62-.212a.5.5 0 0 1 .374.14l.669-.743a1.503 1.503 0 0 0-1.072-.397c-.376.011-.744.148-1.086.343-.679.386-1.382 1.073-2.046 1.858-1.337 1.58-2.644 3.718-3.439 5.2l.881.473Zm6.093-6.734c-.067-.06-.05-.107-.042-.02.007.077.002.203-.031.386-.064.363-.214.855-.438 1.439-.446 1.161-1.149 2.601-1.899 3.927l.87.493c.767-1.356 1.494-2.842 1.962-4.062.233-.607.41-1.168.49-1.623.04-.226.061-.451.042-.653-.018-.191-.079-.445-.285-.63l-.669.743Zm-2.41 5.732c-.63 1.113-1.282 2.126-1.83 2.816l.783.622c.594-.748 1.275-1.81 1.917-2.945l-.87-.493Zm-1.004 3.375a31.16 31.16 0 0 1 1.842-2.833l-.807-.591a32.205 32.205 0 0 0-1.903 2.928l.868.496Zm1.842-2.833c.863-1.178 1.827-2.294 2.709-2.939.444-.323.821-.495 1.122-.531.268-.032.494.036.71.272l.737-.675c-.439-.479-.987-.66-1.567-.59-.546.066-1.088.349-1.592.717-1.011.739-2.048 1.958-2.926 3.155l.807.591Zm4.541-3.198c-.048-.053.003-.06-.026.137-.026.177-.105.426-.245.744-.279.632-.749 1.428-1.302 2.27-1.104 1.68-2.487 3.465-3.172 4.338l.787.617c.686-.874 2.092-2.688 3.22-4.405.563-.856 1.069-1.708 1.382-2.416.155-.352.274-.696.319-1.003.043-.288.037-.67-.226-.957l-.737.675Zm-3.974 8.125c.344-.395.863-1.088 1.435-1.829.582-.754 1.235-1.579 1.875-2.278.653-.714 1.242-1.242 1.694-1.46.224-.109.339-.104.384-.092.021.006.1.031.19.241l.919-.394c-.168-.392-.44-.7-.844-.811-.38-.105-.761-.001-1.084.155-.64.31-1.341.968-1.997 1.686-.67.733-1.345 1.585-1.929 2.342-.594.769-1.079 1.418-1.398 1.785l.755.655Zm5.578-5.418c.011.027.034.121.003.329-.031.2-.104.458-.226.775-.246.634-.665 1.442-1.23 2.386-1.128 1.883-2.8 4.246-4.712 6.729-3.825 4.969-8.566 10.368-11.722 13.312l.682.731c3.211-2.995 7.989-8.44 11.832-13.433 1.922-2.497 3.622-4.894 4.778-6.826.577-.964 1.029-1.827 1.304-2.538.138-.355.237-.688.282-.986.044-.29.045-.6-.072-.873l-.919.394Zm-17.083 23.708-4.294-10.518-.925.378 4.293 10.518.926-.378Z" fill="#000"/><path d="M220.351 273.778h-89.849a1.89 1.89 0 0 1-1.89-1.89l24.544-13.543h80.649v1.249c0 .509-.194.999-.543 1.369l-11.454 12.185a2 2 0 0 1-1.457.63Z" fill="#A9A9A9" stroke="#2D2D2D"/><path d="M152.756 258.499v-50.103a2 2 0 0 1 2-2h77.049a2 2 0 0 1 2 2v50.103h-81.049Z" fill="#fff" stroke="#2D2D2D" stroke-linejoin="round"/><path d="m128.612 271.656 24.009-13.157h80.9l-12.8 13.157h-92.109Z" fill="#C4C4C4" stroke="#2D2D2D" stroke-linejoin="round"/><path d="M529.396 327.534c2.007 5.426 4.949-22.205 4.843-34.928l4.417 9.087c.004 10.553-.391 30.722-.73 36.599-.162 2.802-.77 5.645-4.413 6.041-8.245.828-25.005 2.233-26.083 1.221-1.347-1.265-1.993-9.06-1.537-14.151.455-5.09 4.337-8.335 11.269-9.492s9.762-1.061 12.234 5.623Z" fill="#2D2D2D" stroke="#2D2D2D"/><path d="M524.606 299.283c4.742.431 9.161-4.131 10.778-6.466l1.347 16.975c1.347-1.527 5.012-3.665 8.892 0 3.88 3.664 0 9.728-4.85 11.586l2.329 14.764c5.82-.863 12.221-5.464 12.221-17.458 5.119-1.887 10.239-5.928 8.892-13.473-1.078-6.035-6.377-6.466-8.892-5.928l1.078-8.352c-2.587-10.347-10.239-10.239-13.742-8.892-7.329-11.64-15.089-7.365-18.053-3.772-8.623-4.527-17.199-3.318-21.247 3.772-6.603 7.97-1.919 16.138 2.655 17.244 5.655 0 13.85-.431 18.592 0Z" fill="#2D2D2D" stroke="#2D2D2D"/><path d="M512.217 460.346c16.867-3.279 22.018-31.943 26.794-47.976 2.554-8.573 4.781-28.023 8.529-34.115 4.685-7.613 16.297-13.044 23.245-8.689 11.21 7.026 5.644 22.87 3.457 34.504-3.457 10.578-7.224 29.67-17.832 51.625-16.922 35.018-66.254 36.083-90.462 31.007v-22.256l46.269-4.1Z" fill="#D4E4F3" stroke="#2D2D2D"/><path fill-rule="evenodd" clip-rule="evenodd" d="M447.681 411.914c5.667 0 10.262-4.594 10.262-10.261 0-5.668-4.595-10.262-10.262-10.262-5.441 0-9.893 4.235-10.24 9.588l-26.694 21.364 1.653 2.442-3.793 2.567 1.937 2.863 3.793-2.567 1.737 2.567 29.462-18.525c.692.147 1.41.224 2.145.224Z" fill="#2D2D2D"/><path fill-rule="evenodd" clip-rule="evenodd" d="M428.641 425.778v23.837l-3.524-.839V425.97l-8.394-12.778 7.419-4.873 9.368 14.26-4.869 3.199Z" fill="#C4C4C4"/><path d="m428.641 425.778-.275-.418-.225.148v.27h.5Zm0 23.837-.116.486.616.147v-.633h-.5Zm-3.524-.839h-.5v.394l.384.092.116-.486Zm0-22.806h.5v-.15l-.083-.125-.417.275Zm-8.394-12.778-.274-.418-.418.275.274.418.418-.275Zm7.419-4.873.418-.275-.274-.418-.418.275.274.418Zm9.368 14.26.274.418.418-.274-.274-.418-.418.274Zm-5.369 3.199v23.837h1v-23.837h-1Zm.615 23.35-3.524-.839-.231.973 3.524.839.231-.973Zm-3.139-.352V425.97h-1v22.806h1Zm-.083-23.081-8.393-12.777-.836.549 8.394 12.777.835-.549Zm-8.536-12.085 7.419-4.873-.549-.836-7.419 4.873.549.836Zm6.726-5.017 9.368 14.261.836-.549-9.368-14.261-.836.549Zm9.511 13.568-4.869 3.199.549.836 4.869-3.199-.549-.836Z" fill="#2D2D2D"/><path d="M526.301 461.188v55.818H420.45v-69.939l105.851 14.121Zm-124.392-24.396 18.156 9.835v70.151l-18.156-13.241v-66.745Z" fill="#EBEBEB" stroke="#2D2D2D"/><circle cx="308.57" cy="345.402" r="76.099" fill="#fff" stroke="#000"/><path d="M328.119 314.624s31.959 33.479-10.216 46.917c-8.128 2.641-36.588 8.413-38.973 20.173 0 0-9.197-26.557 16.847-34.74 26.736-8.349 36.593-22.279 32.342-32.35Z" fill="#ED1C24"/><path d="M329.517 362.597s8.103 24.266-19.843 21.303c-2.725-.378-22.665-3.546-29.424 1.459 0 0 3.378-10.847 20.936-13.077 17.503-2.244 24.413-2.096 28.331-9.685Zm-46.946-35.791c20.958-12.718 28.353-22.078 24.993-37.669 0 0 43.823 31.839-13.337 52.192-20.441 7.275-20.845 20.212-20.963 20.65-1.943-3.517-11.65-22.454 9.307-35.173Z" fill="#ED1C24"/><rect x="132.471" y="120.014" width="52.425" height="43.042" rx="7" fill="#0070CC"/><path d="m168.065 134.975 6.597 6.597-6.597 6.597m-18.764-.115-6.597-6.598 6.597-6.597m6.267 15.387 6.561-17.421" stroke="#fff" stroke-linecap="round" stroke-linejoin="round"/><circle cx="172.366" cy="416.497" r="2.296" transform="rotate(90 172.366 416.497)" fill="#fff"/><circle cx="161.599" cy="416.497" r="2.296" transform="rotate(90 161.599 416.497)" fill="#fff"/><circle cx="150.831" cy="416.497" r="2.296" transform="rotate(90 150.831 416.497)" fill="#fff"/><circle cx="140.064" cy="416.497" r="2.296" transform="rotate(90 140.064 416.497)" fill="#fff"/><circle cx="172.366" cy="427.265" r="2.296" transform="rotate(90 172.366 427.265)" fill="#fff"/><circle cx="161.599" cy="427.265" r="2.296" transform="rotate(90 161.599 427.265)" fill="#fff"/><circle cx="150.831" cy="427.265" r="2.296" transform="rotate(90 150.831 427.265)" fill="#fff"/><circle cx="140.064" cy="427.265" r="2.296" transform="rotate(90 140.064 427.265)" fill="#fff"/><circle cx="172.366" cy="438.032" r="2.296" transform="rotate(90 172.366 438.032)" fill="#fff"/><circle cx="161.599" cy="438.032" r="2.296" transform="rotate(90 161.599 438.032)" fill="#fff"/><circle cx="150.831" cy="438.032" r="2.296" transform="rotate(90 150.831 438.032)" fill="#fff"/><circle cx="140.064" cy="438.032" r="2.296" transform="rotate(90 140.064 438.032)" fill="#fff"/><circle cx="172.366" cy="448.799" r="2.296" transform="rotate(90 172.366 448.799)" fill="#fff"/><circle cx="161.599" cy="448.799" r="2.296" transform="rotate(90 161.599 448.799)" fill="#fff"/><circle cx="150.831" cy="448.799" r="2.296" transform="rotate(90 150.831 448.799)" fill="#fff"/><circle cx="140.064" cy="448.799" r="2.296" transform="rotate(90 140.064 448.799)" fill="#fff"/><circle cx="172.366" cy="459.567" r="2.296" transform="rotate(90 172.366 459.567)" fill="#fff"/><circle cx="161.599" cy="459.567" r="2.296" transform="rotate(90 161.599 459.567)" fill="#fff"/><circle cx="150.831" cy="459.567" r="2.296" transform="rotate(90 150.831 459.567)" fill="#fff"/><circle cx="140.064" cy="459.567" r="2.296" transform="rotate(90 140.064 459.567)" fill="#fff"/><rect x="169.528" y="422.501" width="75.191" height="86.615" rx="9.5" fill="#91C2EA" stroke="#000"/><path d="M183.95 441.022h45.821m-45.821 10.42h45.821m-45.821 10.421h45.821m-45.821 10.42h45.821m-45.821 10.42h45.821m-45.821 10.421h45.821" stroke="#2D2D2D" stroke-linecap="round" stroke-linejoin="round"/><path d="M166.004 252.296v-33.648h50.24v33.648h-50.24Z" fill="#EFEFEF" stroke="#2D2D2D"/><path d="M170.004 248.296v-33.648h50.24v33.648h-50.24Z" fill="#EFEFEF" stroke="#2D2D2D"/><path fill="#2D2D2D" d="M169.512 211.894h51.218v5.304h-51.218z"/><circle cx="173.963" cy="214.648" r="1.079" fill="#fff"/><circle cx="178.121" cy="214.648" r="1.079" fill="#fff"/><path d="M176.209 223.226h38.504m-38.504 6.252h38.504m-38.504 6.253h38.504m-38.504 6.253h15.854" stroke="#2D2D2D"/><circle cx="182.278" cy="214.648" r="1.079" fill="#fff"/><path d="M485.12 229.58a9.5 9.5 0 0 0-9.5-9.5h-66.777a9.5 9.5 0 0 0-9.5 9.5v21.466a9.5 9.5 0 0 0 9.5 9.5h76.277V229.58Z" fill="#fff" stroke="#000"/><circle cx="424.408" cy="240.313" r="3.596" fill="#2D2D2D"/><circle cx="442.231" cy="240.313" r="3.596" fill="#2D2D2D"/><circle cx="460.055" cy="240.313" r="3.596" fill="#2D2D2D"/></svg>