<svg width="48" height="48" fill="none" xmlns="http://www.w3.org/2000/svg"><path d="M38.966 9.877H28.66a.843.843 0 0 0-.844.843v25.055H45a2 2 0 0 0 2-2v-8.61a2 2 0 0 0-.179-.826L40.787 11.05a2 2 0 0 0-1.821-1.173Z" fill="#fff" stroke="#000" stroke-width="1.8" stroke-linecap="round" stroke-linejoin="round"/><rect x=".9" y="31.88" width="36.567" height="4.914" rx="2.1" fill="#fff" stroke="#000" stroke-width="1.8"/><circle cx="35.49" cy="36.735" r="4.855" fill="#fff" stroke="#000" stroke-width="1.8"/><circle cx="35.49" cy="36.735" r="1.918" fill="#000"/><path d="M33.571 10.357v13.827a2 2 0 0 0 2 2h10.95m-.001 2.877h-3.357m3.357 2.878h-3.357" stroke="#000" stroke-width="1.8" stroke-linecap="round" stroke-linejoin="round"/><rect x="1.859" y="7.9" width="26.016" height="24.098" rx="2.1" fill="#fff" stroke="#ED1C24" stroke-width="1.8"/><circle cx="8.633" cy="36.735" r="4.855" fill="#fff" stroke="#000" stroke-width="1.8"/><circle cx="8.633" cy="36.735" r="1.918" fill="#000"/></svg>