<svg width="663" height="538" viewBox="0 0 663 538" fill="none" xmlns="http://www.w3.org/2000/svg">
<path d="M518.86 392.48L353.334 294.516C342.334 288.006 342.184 272.14 353.059 265.423L404.364 233.735" stroke="white"/>
<path d="M584.893 53.7026H391V226.32H391.047C390.448 241.078 399.902 255.947 419.409 267.21C457.261 289.063 518.632 289.063 556.484 267.209C575.991 255.947 585.445 241.078 584.846 226.32H584.893V53.7026Z" fill="#0070CC" stroke="white"/>
<path d="M419.409 17.3905C457.261 -4.46348 518.631 -4.46349 556.484 17.3905C594.336 39.2444 594.336 74.6766 556.484 96.5306C518.631 118.384 457.261 118.385 419.409 96.5306C381.557 74.6766 381.557 39.2444 419.409 17.3905Z" fill="#0070CC" stroke="white"/>
<path d="M95.7233 422.984L268.642 323.368C278.213 317.854 293.731 317.854 303.302 323.368L476.221 422.984" stroke="white"/>
<path d="M701.966 359.4H339.4V461.568L339.494 461.567C339.494 479.522 364.52 493.971 414.571 522.868C464.623 551.765 489.649 566.214 520.747 566.214C551.845 566.214 576.871 551.765 626.922 522.868C676.974 493.971 702 479.522 702 461.567C702 461.188 701.989 460.811 701.966 460.435V359.4Z" fill="#0070CC" stroke="white"/>
<path d="M414.571 298.1C464.623 269.202 489.649 254.754 520.747 254.754C551.845 254.754 576.871 269.202 626.922 298.1C676.974 326.997 702 341.446 702 359.4C702 377.355 676.974 391.803 626.922 420.701C576.871 449.598 551.845 464.047 520.747 464.047C489.649 464.047 464.623 449.598 414.571 420.701C364.52 391.803 339.494 377.355 339.494 359.4C339.494 341.446 364.52 326.997 414.571 298.1Z" fill="#0070CC" stroke="white"/>
<path d="M1.00003 289.324L44.8748 314.656L132.624 365.318L132.624 567.967L44.8748 517.305L1.00003 491.974L1.00003 289.324Z" fill="#0070CC" stroke="white"/>
<rect width="202.649" height="202.649" transform="matrix(0.866025 -0.5 2.20305e-08 1 132.624 365.318)" fill="#0070CC" stroke="white"/>
<path d="M176.499 188L220.374 213.331L308.124 263.993L132.624 365.318L44.8748 314.656L1.00004 289.324L176.499 188Z" fill="#0070CC" stroke="white"/>
<path fill-rule="evenodd" clip-rule="evenodd" d="M18.078 324.275C17.5997 323.999 17.212 324.222 17.212 324.775V355.199C17.212 355.751 17.5997 356.422 18.078 356.699L24.2319 360.252L37.4058 367.858C37.8841 368.134 38.2719 367.91 38.2719 367.358L38.2719 336.934C38.2719 336.381 37.8841 335.71 37.4058 335.434L24.2319 327.828L18.078 324.275ZM18.078 403.308C17.5997 403.032 17.212 403.256 17.212 403.808L17.212 418.02C17.212 418.572 17.5997 419.244 18.078 419.52L114.626 475.262C115.104 475.538 115.492 475.314 115.492 474.762V460.55C115.492 459.997 115.104 459.326 114.626 459.05L18.078 403.308ZM18.078 431.679C17.5997 431.402 17.212 431.626 17.212 432.179L17.212 446.391C17.212 446.943 17.5997 447.614 18.078 447.891L114.626 503.632C115.104 503.908 115.492 503.685 115.492 503.132V488.92C115.492 488.368 115.104 487.696 114.626 487.42L18.078 431.679ZM17.212 460.55C17.212 459.997 17.5997 459.773 18.078 460.05L114.626 515.791C115.104 516.067 115.492 516.739 115.492 517.291V531.503C115.492 532.056 115.104 532.279 114.626 532.003L18.078 476.262C17.5997 475.985 17.212 475.314 17.212 474.762L17.212 460.55Z" fill="#0070CC"/>
<path d="M18.078 324.275L17.828 324.708L18.078 324.275ZM18.078 356.699L18.328 356.266L18.078 356.699ZM24.2319 360.252L24.4819 359.819L24.2319 360.252ZM37.4058 367.858L37.1558 368.291L37.4058 367.858ZM38.2719 367.358H37.7719H38.2719ZM38.2719 336.934H38.7719H38.2719ZM37.4058 335.434L37.1558 335.867V335.867L37.4058 335.434ZM24.2319 327.828L24.4819 327.395L24.2319 327.828ZM17.212 403.808H16.712H17.212ZM18.078 403.308L17.828 403.741H17.828L18.078 403.308ZM17.212 418.02H16.712H17.212ZM18.078 419.52L17.828 419.953H17.828L18.078 419.52ZM114.626 475.262L114.876 474.829H114.876L114.626 475.262ZM114.626 459.05L114.376 459.483L114.626 459.05ZM17.212 432.179H16.712H17.212ZM18.078 431.679L17.828 432.112H17.828L18.078 431.679ZM17.212 446.391H16.712H17.212ZM18.078 447.891L17.828 448.324H17.828L18.078 447.891ZM114.626 503.632L114.376 504.065L114.626 503.632ZM114.626 487.42L114.376 487.853L114.626 487.42ZM18.078 460.05L18.328 459.617H18.328L18.078 460.05ZM17.212 460.55H16.712H17.212ZM114.626 515.791L114.876 515.358H114.876L114.626 515.791ZM114.626 532.003L114.376 532.436L114.626 532.003ZM18.078 476.262L17.828 476.695H17.828L18.078 476.262ZM17.212 474.762H16.712H17.212ZM17.712 324.775C17.712 324.693 17.7265 324.651 17.7335 324.635C17.7392 324.623 17.7366 324.635 17.7156 324.647C17.6946 324.659 17.683 324.656 17.6966 324.657C17.7132 324.658 17.7574 324.667 17.828 324.708L18.328 323.842C17.9977 323.651 17.5816 323.57 17.2156 323.781C16.8497 323.992 16.712 324.393 16.712 324.775H17.712ZM17.712 355.199V324.775H16.712V355.199H17.712ZM18.328 356.266C18.1827 356.182 18.0231 356.018 17.8986 355.802C17.7742 355.587 17.712 355.366 17.712 355.199H16.712C16.712 355.583 16.8436 355.975 17.0326 356.302C17.2216 356.629 17.4949 356.939 17.828 357.132L18.328 356.266ZM24.4819 359.819L18.328 356.266L17.828 357.132L23.9819 360.685L24.4819 359.819ZM37.6558 367.425L24.4819 359.819L23.9819 360.685L37.1558 368.291L37.6558 367.425ZM37.7719 367.358C37.7719 367.439 37.7574 367.482 37.7504 367.497C37.7446 367.509 37.7472 367.497 37.7682 367.485C37.7892 367.473 37.8008 367.477 37.7872 367.476C37.7707 367.474 37.7264 367.465 37.6558 367.425L37.1558 368.291C37.4861 368.481 37.9023 368.563 38.2682 368.351C38.6342 368.14 38.7719 367.739 38.7719 367.358H37.7719ZM37.7719 336.934L37.7719 367.358H38.7719L38.7719 336.934H37.7719ZM37.1558 335.867C37.3011 335.951 37.4607 336.115 37.5852 336.33C37.7097 336.546 37.7719 336.766 37.7719 336.934H38.7719C38.7719 336.549 38.6402 336.157 38.4512 335.83C38.2623 335.503 37.9889 335.193 37.6558 335.001L37.1558 335.867ZM23.9819 328.261L37.1558 335.867L37.6558 335.001L24.4819 327.395L23.9819 328.261ZM17.828 324.708L23.9819 328.261L24.4819 327.395L18.328 323.842L17.828 324.708ZM17.712 403.808C17.712 403.726 17.7265 403.684 17.7335 403.669C17.7392 403.656 17.7366 403.668 17.7156 403.68C17.6947 403.692 17.683 403.689 17.6966 403.69C17.7132 403.691 17.7574 403.7 17.828 403.741L18.328 402.875C17.9978 402.684 17.5816 402.603 17.2156 402.814C16.8497 403.025 16.712 403.427 16.712 403.808H17.712ZM17.712 418.02L17.712 403.808H16.712L16.712 418.02H17.712ZM18.328 419.087C18.1827 419.003 18.0231 418.839 17.8986 418.623C17.7742 418.408 17.712 418.188 17.712 418.02H16.712C16.712 418.404 16.8436 418.796 17.0326 419.123C17.2216 419.451 17.4949 419.761 17.828 419.953L18.328 419.087ZM114.876 474.829L18.328 419.087L17.828 419.953L114.376 475.695L114.876 474.829ZM114.992 474.762C114.992 474.843 114.977 474.886 114.97 474.901C114.964 474.913 114.967 474.901 114.988 474.889C115.009 474.877 115.021 474.881 115.007 474.88C114.99 474.878 114.946 474.869 114.876 474.829L114.375 475.695C114.706 475.885 115.122 475.966 115.488 475.755C115.854 475.544 115.992 475.143 115.992 474.762H114.992ZM114.992 460.55V474.762H115.992V460.55H114.992ZM114.376 459.483C114.521 459.566 114.68 459.73 114.805 459.946C114.929 460.162 114.992 460.382 114.992 460.55H115.992C115.992 460.165 115.86 459.773 115.671 459.446C115.482 459.119 115.209 458.809 114.876 458.617L114.376 459.483ZM17.828 403.741L114.376 459.483L114.876 458.617L18.328 402.875L17.828 403.741ZM17.712 432.179C17.712 432.097 17.7265 432.054 17.7335 432.039C17.7392 432.027 17.7366 432.039 17.7156 432.051C17.6947 432.063 17.683 432.059 17.6966 432.061C17.7132 432.062 17.7574 432.071 17.828 432.112L18.328 431.246C17.9978 431.055 17.5816 430.974 17.2156 431.185C16.8497 431.396 16.712 431.797 16.712 432.179H17.712ZM17.712 446.391L17.712 432.179H16.712L16.712 446.391H17.712ZM18.328 447.458C18.1827 447.374 18.0231 447.21 17.8986 446.994C17.7742 446.778 17.712 446.558 17.712 446.391H16.712C16.712 446.775 16.8436 447.167 17.0326 447.494C17.2216 447.821 17.4949 448.131 17.828 448.324L18.328 447.458ZM114.876 503.199L18.328 447.458L17.828 448.324L114.376 504.065L114.876 503.199ZM114.992 503.132C114.992 503.214 114.977 503.256 114.97 503.272C114.964 503.284 114.967 503.272 114.988 503.26C115.009 503.248 115.021 503.251 115.007 503.25C114.99 503.249 114.946 503.24 114.876 503.199L114.376 504.065C114.706 504.256 115.122 504.337 115.488 504.126C115.854 503.915 115.992 503.514 115.992 503.132H114.992ZM114.992 488.92V503.132H115.992V488.92H114.992ZM114.376 487.853C114.521 487.937 114.68 488.101 114.805 488.317C114.929 488.532 114.992 488.753 114.992 488.92H115.992C115.992 488.536 115.86 488.144 115.671 487.817C115.482 487.489 115.209 487.18 114.876 486.987L114.376 487.853ZM17.828 432.112L114.376 487.853L114.876 486.987L18.328 431.246L17.828 432.112ZM18.328 459.617C17.9978 459.426 17.5816 459.345 17.2156 459.556C16.8497 459.767 16.712 460.168 16.712 460.55H17.712C17.712 460.468 17.7265 460.425 17.7335 460.41C17.7392 460.398 17.7366 460.41 17.7156 460.422C17.6947 460.434 17.683 460.43 17.6966 460.432C17.7132 460.433 17.7574 460.442 17.828 460.483L18.328 459.617ZM114.876 515.358L18.328 459.617L17.828 460.483L114.376 516.224L114.876 515.358ZM115.992 517.291C115.992 516.907 115.86 516.515 115.671 516.188C115.482 515.86 115.209 515.551 114.876 515.358L114.375 516.224C114.521 516.308 114.68 516.472 114.805 516.688C114.929 516.903 114.992 517.124 114.992 517.291H115.992ZM115.992 531.503V517.291H114.992V531.503H115.992ZM114.376 532.436C114.706 532.627 115.122 532.708 115.488 532.497C115.854 532.286 115.992 531.885 115.992 531.503H114.992C114.992 531.585 114.977 531.627 114.97 531.643C114.964 531.655 114.967 531.643 114.988 531.631C115.009 531.619 115.021 531.622 115.007 531.621C114.99 531.62 114.946 531.611 114.876 531.57L114.376 532.436ZM17.828 476.695L114.376 532.436L114.876 531.57L18.328 475.829L17.828 476.695ZM16.712 474.762C16.712 475.146 16.8436 475.538 17.0326 475.865C17.2216 476.192 17.4949 476.502 17.828 476.695L18.328 475.829C18.1827 475.745 18.0231 475.581 17.8986 475.365C17.7742 475.149 17.712 474.929 17.712 474.762H16.712ZM16.712 460.55L16.712 474.762H17.712L17.712 460.55H16.712Z" fill="white"/>
<path d="M615.733 365.546C609.742 371.537 597.407 373.505 582.008 371.607C566.666 369.715 548.522 364.005 531.232 354.909C513.943 345.812 500.826 335.074 493.583 325.084C486.313 315.056 485.062 305.94 491.053 299.949C497.044 293.958 509.379 291.99 524.778 293.889C540.119 295.781 558.264 301.491 575.554 310.587C592.843 319.684 605.96 330.421 613.203 340.412C620.473 350.44 621.724 359.556 615.733 365.546Z" stroke="white"/>
<path d="M584.142 386.607C578.152 392.598 565.817 394.566 550.418 392.667C535.076 390.775 516.931 385.065 499.642 375.969C482.353 366.873 469.235 356.135 461.992 346.144C454.723 336.116 453.472 327 459.463 321.01C465.453 315.019 477.789 313.051 493.187 314.949C508.529 316.841 526.674 322.551 543.963 331.648C561.252 340.744 574.37 351.482 581.613 361.472C588.882 371.5 590.133 380.616 584.142 386.607Z" stroke="white"/>
<path d="M539.013 410.676C533.022 416.667 520.687 418.635 505.289 416.736C489.947 414.844 471.802 409.134 454.513 400.038C437.223 390.941 424.106 380.204 416.863 370.213C409.594 360.185 408.343 351.069 414.333 345.079C420.324 339.088 432.659 337.12 448.058 339.018C463.4 340.91 481.545 346.62 498.834 355.716C516.123 364.813 529.241 375.551 536.483 385.541C543.753 395.569 545.004 404.685 539.013 410.676Z" stroke="white"/>
</svg>
