<svg width="69" height="69" fill="none" xmlns="http://www.w3.org/2000/svg"><circle cx="34.5" cy="34.5" r="34.5" fill="#2D2D2D"/><path d="M34.083 20.116c.348-.803 1.486-.803 1.834 0l3.193 7.362a1 1 0 0 0 .823.598l7.988.761c.871.083 1.223 1.166.567 1.745l-6.015 5.312a1 1 0 0 0-.314.967l1.744 7.832c.19.855-.73 1.524-1.484 1.079l-6.91-4.08a1 1 0 0 0-1.017 0l-6.91 4.08c-.754.445-1.675-.224-1.485-1.079l1.744-7.832a1 1 0 0 0-.314-.967l-6.015-5.312c-.656-.58-.304-1.662.567-1.745l7.988-.761a1 1 0 0 0 .823-.598l3.193-7.362Z" fill="#fff"/></svg>