<svg width="451" height="552" viewBox="0 0 451 552" fill="none" xmlns="http://www.w3.org/2000/svg">
<rect x="102.824" y="25.7153" width="267.951" height="500.353" rx="9.5" stroke="#2D2D2D"/>
<path d="M102.324 53.2349H371.037" stroke="#2D2D2D"/>
<ellipse cx="119.337" cy="40.226" rx="4.00318" ry="4.00282" fill="#2D2D2D"/>
<ellipse cx="133.349" cy="40.226" rx="4.00318" ry="4.00282" fill="#2D2D2D"/>
<ellipse cx="147.36" cy="40.226" rx="4.00318" ry="4.00282" fill="#2D2D2D"/>
<path d="M163.372 394.684L151.363 407.193L162.372 419.702" stroke="#2D2D2D"/>
<path d="M181.387 419.702L193.396 407.193L182.387 394.684" stroke="#2D2D2D"/>
<ellipse cx="167.376" cy="407.693" rx="1.50119" ry="1.50106" fill="#2D2D2D"/>
<ellipse cx="173.38" cy="407.693" rx="1.50119" ry="1.50106" fill="#2D2D2D"/>
<ellipse cx="179.385" cy="407.693" rx="1.50119" ry="1.50106" fill="#2D2D2D"/>
<rect x="78.9857" y="66.9521" width="49.8596" height="48.2223" rx="9.5" fill="white" stroke="#2D2D2D"/>
<path d="M99.1409 83.1063C99.1409 81.8401 99.6439 80.6257 100.539 79.7304C101.435 78.835 102.649 78.332 103.916 78.332C105.182 78.332 106.396 78.835 107.292 79.7304C108.187 80.6257 108.69 81.8401 108.69 83.1063V91.0635C108.69 92.3297 108.187 93.544 107.292 94.4394C106.396 95.3347 105.182 95.8377 103.916 95.8377C102.649 95.8377 101.435 95.3347 100.539 94.4394C99.6439 93.544 99.1409 92.3297 99.1409 91.0635V83.1063Z" fill="#ED1C24"/>
<path d="M96.7535 88.6758C96.9646 88.6758 97.167 88.7596 97.3163 88.9088C97.4655 89.0581 97.5493 89.2605 97.5493 89.4715V91.0629C97.5493 92.7512 98.2201 94.3704 99.414 95.5642C100.608 96.758 102.227 97.4286 103.916 97.4286C105.604 97.4286 107.223 96.758 108.417 95.5642C109.611 94.3704 110.282 92.7512 110.282 91.0629V89.4715C110.282 89.2605 110.366 89.0581 110.515 88.9088C110.664 88.7596 110.867 88.6758 111.078 88.6758C111.289 88.6758 111.491 88.7596 111.64 88.9088C111.79 89.0581 111.873 89.2605 111.873 89.4715V91.0629C111.873 93.0355 111.141 94.9379 109.817 96.4008C108.494 97.8637 106.674 98.783 104.711 98.9803V102.203H109.486C109.697 102.203 109.9 102.287 110.049 102.436C110.198 102.585 110.282 102.788 110.282 102.999C110.282 103.21 110.198 103.412 110.049 103.561C109.9 103.711 109.697 103.794 109.486 103.794H98.3451C98.1341 103.794 97.9317 103.711 97.7824 103.561C97.6332 103.412 97.5493 103.21 97.5493 102.999C97.5493 102.788 97.6332 102.585 97.7824 102.436C97.9317 102.287 98.1341 102.203 98.3451 102.203H103.12V98.9803C101.157 98.783 99.3373 97.8637 98.0139 96.4008C96.6905 94.9379 95.9577 93.0355 95.9578 91.0629V89.4715C95.9578 89.2605 96.0416 89.0581 96.1908 88.9088C96.3401 88.7596 96.5425 88.6758 96.7535 88.6758Z" fill="#ED1C24"/>
<rect x="154.218" y="448.219" width="159.127" height="41.0296" rx="4.5" fill="#F6F6F6" stroke="#2D2D2D"/>
<path d="M180.239 463.23C180.239 466.546 177.551 469.234 174.234 469.234C170.918 469.234 168.229 466.546 168.229 463.23C168.229 459.913 170.918 457.225 174.234 457.225C177.551 457.225 180.239 459.913 180.239 463.23Z" fill="#F6F6F6" stroke="#2D2D2D"/>
<path d="M186.233 480.242H162.436C162.706 474.132 167.915 469.234 174.334 469.234C180.753 469.234 185.962 474.132 186.233 480.242Z" fill="#F6F6F6" stroke="#2D2D2D"/>
<rect x="199.316" y="459.003" width="101.355" height="6.94149" rx="3" fill="white"/>
<rect x="199.316" y="471.523" width="44.3025" height="6.94149" rx="3" fill="white"/>
<rect x="281.594" y="375.252" width="126.472" height="93.5705" rx="9.5" fill="white" stroke="#2D2D2D"/>
<path d="M282.295 393.987H407.362" stroke="#2D2D2D"/>
<rect x="326.811" y="411.619" width="35.2667" height="35.2636" rx="17.6318" fill="#2D2D2D"/>
<path d="M353.353 429.251L338.734 437.065L338.734 421.437L353.353 429.251Z" fill="white"/>
<ellipse cx="294.273" cy="385.678" rx="3.2478" ry="3.24751" fill="#2D2D2D"/>
<ellipse cx="303.008" cy="385.678" rx="3.2478" ry="3.24751" fill="#2D2D2D"/>
<ellipse cx="311.743" cy="385.678" rx="3.2478" ry="3.24751" fill="#2D2D2D"/>
<rect x="153.456" y="137.065" width="172.855" height="224.121" rx="4.5" fill="white" stroke="#2D2D2D"/>
<path d="M273.632 210.436C273.632 210.436 320.939 260.022 258.51 279.926C246.478 283.837 204.35 292.386 200.819 309.804C200.819 309.804 187.205 270.469 225.756 258.35C265.332 245.984 279.924 225.352 273.632 210.436Z" fill="#ED1C24"/>
<path d="M275.7 281.488C275.7 281.488 287.694 317.429 246.329 313.041C242.294 312.481 212.778 307.788 202.773 315.202C202.773 315.202 207.773 299.135 233.763 295.833C259.672 292.509 269.9 292.727 275.7 281.488Z" fill="#ED1C24"/>
<path d="M206.208 228.478C237.231 209.641 248.178 195.778 243.204 172.686C243.204 172.686 308.073 219.844 223.462 249.989C193.204 260.763 192.606 279.925 192.432 280.574C189.555 275.364 175.186 247.316 206.208 228.478Z" fill="#ED1C24"/>
<path d="M196.564 222.595C196.263 221.768 193.34 219.71 192.463 219.021L190.124 221.439C191.377 222.097 194.604 222.745 194.604 223.421C194.604 224.267 194.497 226.165 195.061 226.823C195.624 227.48 196.94 223.628 196.564 222.595Z" fill="white" stroke="#2D2D2D" stroke-linecap="round" stroke-linejoin="round"/>
<path d="M195.036 224.869C195.091 223.991 193.233 220.938 192.704 219.956L189.594 221.238C190.48 222.341 193.179 224.224 192.909 224.845C192.571 225.62 191.714 227.317 191.968 228.145C192.222 228.973 194.967 225.967 195.036 224.869Z" fill="white" stroke="#2D2D2D" stroke-linecap="round" stroke-linejoin="round"/>
<path d="M126.487 280.459C135.568 280.459 165.655 251.548 178.573 237.588L184.25 231.066C187.579 231.563 198.213 229.102 197.401 226.896C196.735 225.086 192.524 226.186 190.495 226.896C189.08 227.391 187.816 226.32 187.579 225.07C187.342 223.821 189.968 222.499 189.968 222.499C195.492 217.528 201.887 214.997 201.054 214.216C199.43 212.694 194.155 216.143 187.579 220.139C183.238 223.306 177.651 226.79 175.05 229.102L128.053 257.366L93.9728 230.092L65.9853 238.579C72.3788 246.537 117.406 280.459 126.487 280.459Z" fill="#FFFDFD"/>
<path d="M178.573 237.588L178.94 237.927L178.945 237.922L178.95 237.916L178.573 237.588ZM65.9853 238.579L65.8402 238.1L65.1321 238.315L65.5955 238.892L65.9853 238.579ZM93.9728 230.092L94.2852 229.702L94.0796 229.538L93.8277 229.614L93.9728 230.092ZM128.053 257.366L127.74 257.756L128.012 257.974L128.31 257.794L128.053 257.366ZM175.05 229.102L175.308 229.53L175.347 229.506L175.382 229.475L175.05 229.102ZM184.25 231.066L184.324 230.571L184.053 230.531L183.873 230.738L184.25 231.066ZM187.579 225.07L187.088 225.163V225.163L187.579 225.07ZM190.495 226.896L190.33 226.424L190.495 226.896ZM197.401 226.896L197.871 226.723L197.401 226.896ZM187.579 220.139L187.32 219.712L187.302 219.723L187.285 219.735L187.579 220.139ZM201.054 214.216L201.396 213.851V213.851L201.054 214.216ZM189.968 222.499L190.193 222.946L190.253 222.916L190.303 222.871L189.968 222.499ZM178.206 237.248C171.758 244.217 161.019 254.922 150.762 263.882C145.633 268.362 140.634 272.398 136.359 275.31C134.22 276.767 132.273 277.935 130.588 278.738C128.89 279.546 127.509 279.959 126.487 279.959L126.487 280.959C127.736 280.959 129.281 280.468 131.018 279.641C132.766 278.808 134.76 277.609 136.922 276.137C141.245 273.192 146.278 269.127 151.42 264.635C161.707 255.649 172.471 244.919 178.94 237.927L178.206 237.248ZM126.487 279.959C125.468 279.959 123.856 279.471 121.746 278.529C119.657 277.597 117.147 276.251 114.356 274.604C108.775 271.31 102.109 266.83 95.5199 262.097C88.9319 257.365 82.4287 252.385 77.1752 248.093C71.906 243.788 67.9352 240.207 66.3751 238.265L65.5955 238.892C67.2322 240.929 71.2873 244.574 76.5425 248.867C81.8136 253.174 88.3334 258.166 94.9365 262.909C101.538 267.651 108.231 272.15 113.847 275.465C116.655 277.122 119.201 278.488 121.338 279.442C123.454 280.386 125.236 280.959 126.487 280.959L126.487 279.959ZM66.1304 239.057L94.1178 230.571L93.8277 229.614L65.8402 238.1L66.1304 239.057ZM93.6603 230.483L127.74 257.756L128.365 256.976L94.2852 229.702L93.6603 230.483ZM128.31 257.794L175.308 229.53L174.792 228.673L127.795 256.938L128.31 257.794ZM183.873 230.738L178.196 237.26L178.95 237.916L184.627 231.394L183.873 230.738ZM187.088 225.163C187.365 226.627 188.88 227.991 190.66 227.368L190.33 226.424C189.281 226.791 188.267 226.012 188.071 224.977L187.088 225.163ZM190.66 227.368C191.659 227.019 193.176 226.58 194.509 226.448C195.178 226.382 195.761 226.398 196.196 226.515C196.623 226.63 196.841 226.821 196.932 227.069L197.871 226.723C197.629 226.066 197.07 225.715 196.457 225.55C195.852 225.386 195.13 225.382 194.41 225.453C192.963 225.597 191.36 226.064 190.33 226.424L190.66 227.368ZM196.932 227.069C196.953 227.127 196.967 227.225 196.814 227.419C196.652 227.623 196.354 227.86 195.909 228.114C195.027 228.617 193.715 229.103 192.244 229.513C190.78 229.921 189.186 230.246 187.757 230.439C186.315 230.632 185.084 230.685 184.324 230.571L184.176 231.56C185.081 231.695 186.428 231.626 187.89 231.43C189.366 231.231 191.004 230.897 192.513 230.476C194.015 230.057 195.417 229.545 196.405 228.982C196.894 228.703 197.32 228.39 197.598 228.039C197.884 227.678 198.052 227.217 197.871 226.723L196.932 227.069ZM175.382 229.475C176.655 228.344 178.676 226.912 180.945 225.353C183.203 223.802 185.696 222.132 187.874 220.543L187.285 219.735C185.122 221.313 182.651 222.968 180.379 224.529C178.12 226.081 176.046 227.548 174.718 228.728L175.382 229.475ZM187.839 220.567C191.141 218.56 194.077 216.715 196.397 215.556C197.558 214.975 198.529 214.585 199.29 214.427C200.069 214.265 200.489 214.372 200.712 214.581L201.396 213.851C200.807 213.299 199.959 213.266 199.086 213.448C198.196 213.633 197.133 214.07 195.95 214.661C193.582 215.845 190.593 217.723 187.32 219.712L187.839 220.567ZM200.712 214.581C200.67 214.542 200.624 214.462 200.628 214.364C200.63 214.293 200.658 214.27 200.631 214.308C200.576 214.389 200.431 214.53 200.151 214.74C199.605 215.148 198.737 215.678 197.632 216.361C195.445 217.714 192.432 219.609 189.634 222.127L190.303 222.871C193.028 220.418 195.974 218.563 198.158 217.212C199.238 216.543 200.158 215.983 200.749 215.541C201.037 215.326 201.299 215.102 201.455 214.876C201.534 214.761 201.619 214.598 201.627 214.402C201.635 214.179 201.541 213.987 201.396 213.851L200.712 214.581ZM189.968 222.499C189.743 222.052 189.743 222.053 189.743 222.053C189.743 222.053 189.743 222.053 189.743 222.053C189.743 222.053 189.742 222.053 189.742 222.053C189.742 222.053 189.741 222.054 189.74 222.054C189.738 222.055 189.736 222.056 189.733 222.058C189.727 222.061 189.718 222.065 189.708 222.071C189.686 222.082 189.656 222.098 189.618 222.119C189.542 222.16 189.435 222.219 189.307 222.295C189.053 222.445 188.714 222.661 188.378 222.921C188.047 223.178 187.698 223.495 187.445 223.852C187.195 224.203 186.993 224.66 187.088 225.163L188.071 224.977C188.048 224.856 188.084 224.679 188.26 224.431C188.433 224.188 188.696 223.94 188.991 223.711C189.283 223.485 189.585 223.292 189.816 223.155C189.931 223.087 190.027 223.034 190.094 222.998C190.127 222.98 190.153 222.967 190.17 222.958C190.178 222.953 190.184 222.95 190.188 222.948C190.19 222.947 190.192 222.946 190.192 222.946C190.193 222.946 190.193 222.946 190.193 222.946C190.193 222.946 190.193 222.946 190.193 222.946C190.193 222.946 190.193 222.946 190.193 222.946C190.193 222.946 190.193 222.946 189.968 222.499Z" fill="#2D2D2D"/>
<path d="M62.0387 215.946C53.7624 223.954 63.0399 236.857 68.7132 242.308L101.045 268.335L117.597 245.637L94.0762 224.288C86.8456 218.17 70.3151 207.937 62.0387 215.946Z" fill="#9C9C9C" stroke="#2D2D2D"/>
<path d="M19.9974 541.622V525.731L15.0474 520.521L1.5 545.269L16.6105 551H40.8395C38.3384 541.205 25.9026 540.667 19.9974 541.622Z" fill="#2D2D2D" stroke="#2D2D2D"/>
<path d="M106.233 531.36V523.756H114.715V539.061C114.715 540.023 115.4 540.848 116.344 541.026L122.249 542.141C122.896 542.263 123.56 542.271 124.214 542.203C134.957 541.08 139.31 547.548 140.162 550.955H99.8169C99.1084 550.955 98.6246 550.239 98.8894 549.581L106.233 531.36Z" fill="#2D2D2D" stroke="#2D2D2D" stroke-linecap="round"/>
<path d="M78.5104 448.28C80.6253 444.473 85.7367 373.379 88.028 338.308L41.1791 328.157C44.8526 353.625 52.372 405.768 53.0611 410.591C53.9226 416.621 48.1829 422.728 45.7275 424.589C42.1371 427.31 45.0776 431.1 45.7275 435.172L7.65683 526.529L25.6346 533.931C42.3787 506.967 76.3955 452.087 78.5104 448.28Z" fill="#2D2D2D" stroke="#2D2D2D" stroke-linecap="round"/>
<path d="M122.133 455.949C122.133 450.874 111.09 371.432 105.979 334.775L101.574 322.413L98.8274 305.541L53.9228 325.886C63.4405 359.019 82.8988 426.553 84.5909 431.629C86.2829 436.704 97.2811 502.828 102.569 535.256H122.133C122.133 510.935 122.133 461.025 122.133 455.949Z" fill="#2D2D2D" stroke="#2D2D2D" stroke-linecap="round"/>
<path d="M83.821 217.626L80.2506 182.724L69.0373 179.449L60.3596 199.22C64.6932 206.951 76.8678 225.717 83.821 217.626Z" fill="white" stroke="#2D2D2D"/>
<path d="M91.8718 188.889C83.1182 195.293 71.2377 183.707 64.7575 180.99C62.2491 177.123 61.3512 169.06 61.1003 164.797C60.7868 159.467 77.4051 150.061 80.5406 149.747C83.0491 149.497 90.8265 146.5 91.8718 150.889C94.2757 157.891 98.1699 184.281 91.8718 188.889Z" fill="white" stroke="#2D2D2D"/>
<path d="M99.1853 142.015C99.3058 135.633 90.0158 130.794 81.6379 135.128C81.5882 135.154 81.5371 135.175 81.4843 135.194C80.7927 135.435 75.7057 137.323 73.7736 141.293C73.5727 141.705 73.1473 141.974 72.6881 141.975C68.3265 141.98 57.9775 145.021 54.5321 156.252C51.8291 165.064 59.8488 180.497 66.3336 182.239C66.6879 182.334 67.0518 182.175 67.2699 181.88L75.7198 170.452C78.6381 166.25 71.5907 170.331 71.5421 166.115C71.4964 162.153 74.2577 161.052 79.194 163.012C79.7263 163.223 80.3249 162.972 80.4484 162.413C81.2876 158.614 81.8914 149.268 86.8657 150.931C93.7512 153.232 99.1318 144.852 99.1853 142.015Z" fill="#C4C4C4" stroke="#2D2D2D"/>
<path d="M109.776 334.703L84.7687 211.351C83.516 205.172 79.4229 199.945 73.7241 197.248L63.1171 192.227C62.6428 192.003 62.0778 192.177 61.8389 192.644C58.3882 199.391 53.362 215.923 51.5703 221.042C49.7015 226.381 40.3338 301.4 38.3315 336.327C68.5001 344.602 100.178 339.315 109.776 334.703Z" fill="#9C9C9C" stroke="#2D2D2D"/>
<rect x="0.662224" y="0.247978" width="69.0243" height="48.5328" rx="4.5" transform="matrix(0.910185 -0.414202 0.414263 0.910157 45.7544 306.825)" fill="#EEEEEE" stroke="#2D2D2D"/>
<path d="M87.9671 330.479C94.5241 331.985 105.038 333.752 105.196 335.525C105.339 337.114 102.552 336.281 98.2772 335.525C100.511 336.082 104.792 337.551 104.047 338.963C103.807 339.417 101.452 339.054 99.3971 338.491C101.285 339.255 103.206 340.382 102.47 341.502C101.987 342.237 97.6189 340.34 96.2151 339.718C97.4614 340.348 102.285 342.023 100.847 343.12C99.4096 344.218 85.6627 339.234 80.6019 335.973C63.9015 326.871 28.498 304.786 26.2731 295.982C24.0483 287.179 45.9077 235.217 52.058 227.07L67.143 252.123L49.0477 291.843L87.9671 330.479Z" fill="#FFFDFD"/>
<path d="M87.9671 330.479L87.6149 330.834L87.7161 330.934L87.8552 330.966L87.9671 330.479ZM105.196 335.525L105.694 335.48L105.694 335.48L105.196 335.525ZM98.2772 335.525L98.3643 335.032C98.0991 334.986 97.8443 335.157 97.7882 335.421C97.7321 335.684 97.8948 335.945 98.1561 336.01L98.2772 335.525ZM104.047 338.963L104.489 339.197L104.489 339.197L104.047 338.963ZM97.1487 337.724L97.2826 337.243C97.0308 337.173 96.7675 337.308 96.6785 337.554C96.5895 337.8 96.7049 338.073 96.9433 338.18L97.1487 337.724ZM102.47 341.502L102.887 341.777L102.887 341.777L102.47 341.502ZM96.2151 339.718L96.4176 339.261C96.1696 339.151 95.8793 339.259 95.7632 339.504C95.6471 339.749 95.7476 340.042 95.9897 340.165L96.2151 339.718ZM100.847 343.12L100.544 342.723L100.544 342.723L100.847 343.12ZM80.6019 335.973L80.8727 335.553L80.8573 335.543L80.8412 335.534L80.6019 335.973ZM52.058 227.07L52.4863 226.812L52.1047 226.178L51.6589 226.768L52.058 227.07ZM67.143 252.123L67.598 252.33L67.7072 252.09L67.5714 251.865L67.143 252.123ZM49.0477 291.843L48.5927 291.635L48.4484 291.952L48.6955 292.198L49.0477 291.843ZM87.8552 330.966C91.1724 331.728 95.3869 332.534 98.8618 333.387C100.592 333.812 102.098 334.24 103.176 334.665C103.717 334.879 104.124 335.082 104.393 335.27C104.687 335.476 104.7 335.583 104.698 335.569L105.694 335.48C105.654 335.023 105.303 334.687 104.966 334.451C104.604 334.197 104.112 333.96 103.543 333.735C102.4 333.284 100.838 332.843 99.1003 332.416C95.6396 331.566 91.3188 330.736 88.079 329.992L87.8552 330.966ZM104.698 335.569C104.71 335.699 104.687 335.753 104.678 335.769C104.671 335.782 104.653 335.81 104.578 335.843C104.394 335.922 104.037 335.958 103.436 335.906C102.252 335.804 100.543 335.418 98.3643 335.032L98.1902 336.017C100.287 336.388 102.108 336.796 103.351 336.902C103.963 336.955 104.543 336.948 104.975 336.76C105.208 336.659 105.418 336.498 105.553 336.255C105.685 336.016 105.718 335.747 105.694 335.48L104.698 335.569ZM98.1561 336.01C99.2558 336.284 100.847 336.781 102.06 337.373C102.673 337.672 103.144 337.975 103.413 338.255C103.546 338.393 103.603 338.499 103.623 338.57C103.639 338.624 103.637 338.669 103.604 338.73L104.489 339.197C104.643 338.905 104.67 338.595 104.585 338.297C104.505 338.014 104.333 337.769 104.134 337.562C103.741 337.153 103.142 336.788 102.499 336.474C101.198 335.839 99.5324 335.323 98.3983 335.04L98.1561 336.01ZM103.604 338.73C103.66 338.624 103.737 338.61 103.695 338.625C103.663 338.636 103.593 338.652 103.472 338.661C103.232 338.679 102.887 338.663 102.462 338.612C101.618 338.511 100.54 338.286 99.529 338.009L99.2651 338.974C100.309 339.259 101.437 339.497 102.344 339.605C102.794 339.658 103.211 339.683 103.545 339.659C103.71 339.647 103.879 339.621 104.029 339.568C104.17 339.518 104.373 339.416 104.489 339.197L103.604 338.73ZM99.529 338.009C98.68 337.777 97.899 337.514 97.354 337.268L96.9433 338.18C97.5551 338.456 98.3915 338.735 99.2651 338.974L99.529 338.009ZM97.0147 338.206C97.5874 338.365 98.396 338.626 99.2096 338.955L99.5846 338.028C98.7316 337.683 97.8869 337.411 97.2826 337.243L97.0147 338.206ZM99.2096 338.955C100.142 339.332 101.036 339.782 101.599 340.248C101.882 340.483 102.038 340.687 102.099 340.846C102.149 340.975 102.145 341.085 102.052 341.228L102.887 341.777C103.162 341.359 103.195 340.909 103.032 340.487C102.882 340.096 102.578 339.761 102.237 339.478C101.551 338.91 100.54 338.414 99.5846 338.028L99.2096 338.955ZM102.052 341.228C102.118 341.127 102.192 341.152 102.069 341.165C101.966 341.175 101.801 341.167 101.569 341.128C101.112 341.051 100.508 340.874 99.8514 340.646C98.5451 340.194 97.1187 339.572 96.4176 339.261L96.0126 340.175C96.7152 340.487 98.1748 341.124 99.5241 341.591C100.195 341.824 100.862 342.023 101.403 342.114C101.671 342.159 101.937 342.183 102.171 342.159C102.385 342.138 102.7 342.061 102.887 341.777L102.052 341.228ZM95.9897 340.165C96.3186 340.331 96.8791 340.564 97.4677 340.82C98.0712 341.082 98.7298 341.377 99.3012 341.684C99.8902 342.001 100.32 342.295 100.522 342.536C100.622 342.654 100.612 342.696 100.612 342.674C100.613 342.628 100.645 342.646 100.544 342.723L101.151 343.518C101.409 343.321 101.605 343.046 101.612 342.696C101.619 342.37 101.459 342.096 101.288 341.893C100.952 341.491 100.367 341.122 99.7742 340.803C99.1637 340.475 98.4725 340.166 97.866 339.902C97.2446 339.633 96.7348 339.421 96.4405 339.272L95.9897 340.165ZM100.544 342.723C100.557 342.713 100.522 342.742 100.376 342.761C100.239 342.778 100.051 342.781 99.808 342.764C99.322 342.729 98.676 342.618 97.902 342.438C96.3578 342.08 94.3663 341.465 92.2513 340.71C88.0125 339.198 83.354 337.152 80.8727 335.553L80.3311 336.394C82.9106 338.056 87.6559 340.132 91.9152 341.652C94.0493 342.414 96.0804 343.043 97.6762 343.412C98.4723 343.597 99.1756 343.721 99.7364 343.761C100.016 343.781 100.276 343.782 100.502 343.753C100.717 343.726 100.958 343.665 101.151 343.518L100.544 342.723ZM80.8412 335.534C72.5046 330.991 59.4939 323.203 48.2936 315.455C42.6926 311.58 37.5552 307.723 33.6838 304.291C31.7477 302.575 30.1375 300.973 28.9463 299.536C27.7465 298.089 27.0082 296.85 26.7579 295.86L25.7884 296.105C26.0943 297.315 26.949 298.693 28.1764 300.174C29.4124 301.665 31.0636 303.305 33.0205 305.039C36.9349 308.509 42.1092 312.392 47.7247 316.277C58.9575 324.048 71.9988 331.854 80.3627 336.412L80.8412 335.534ZM26.7579 295.86C26.5082 294.872 26.5863 293.19 26.9826 290.914C27.3749 288.66 28.0646 285.897 28.9782 282.787C30.805 276.571 33.5152 269.011 36.49 261.463C39.4644 253.917 42.6998 246.393 45.5745 240.248C48.4577 234.085 50.9564 229.359 52.4571 227.371L51.6589 226.768C50.0845 228.854 47.5443 233.678 44.6687 239.825C41.7844 245.99 38.5409 253.533 35.5597 261.097C32.579 268.659 29.8571 276.249 28.0188 282.506C27.0998 285.633 26.3988 288.437 25.9974 290.742C25.6002 293.024 25.4819 294.892 25.7884 296.105L26.7579 295.86ZM51.6296 227.327L66.7147 252.38L67.5714 251.865L52.4863 226.812L51.6296 227.327ZM66.688 251.915L48.5927 291.635L49.5027 292.05L67.598 252.33L66.688 251.915ZM48.6955 292.198L87.6149 330.834L88.3194 330.124L49.4 291.488L48.6955 292.198Z" fill="#2D2D2D"/>
<path d="M73.0362 217.699C63.2432 211.637 53.0054 223.792 49.1106 230.628L31.7951 268.348L57.8583 278.833L72.7963 250.801C76.9567 242.292 82.8291 223.76 73.0362 217.699Z" fill="#9C9C9C" stroke="#2D2D2D"/>
<ellipse rx="3.2133" ry="3.21304" transform="matrix(0.972588 0.232536 -0.232575 0.972578 87.9251 314.568)" fill="#2D2D2D"/>
<path d="M297.371 0.5C291.572 0.5 286.871 5.20102 286.871 11V152.113C286.871 157.912 291.572 162.613 297.371 162.613H309.508C311.401 162.613 312.951 164.118 313.006 166.011L313.333 177.122C313.37 178.363 314.812 179.025 315.776 178.244L332.472 164.729C334.163 163.36 336.273 162.613 338.449 162.613H439.5C445.299 162.613 450 157.912 450 152.113V11C450 5.20101 445.299 0.5 439.5 0.5H297.371Z" fill="#F6F6F6" stroke="#2D2D2D"/>
<mask id="mask0_79:4" style="mask-type:alpha" maskUnits="userSpaceOnUse" x="287" y="1" width="163" height="181">
<path d="M439.492 1C445.019 1 449.5 5.48031 449.5 11.007V152.106C449.5 157.633 445.019 162.113 439.492 162.113H336.41L312.892 181.127L317.395 167.117L308.202 162.113H297.379C291.852 162.113 287.371 157.633 287.371 152.106V11.007C287.371 5.48031 291.852 1 297.379 1H439.492Z" fill="#C4C4C4"/>
</mask>
<g mask="url(#mask0_79:4)">
<path d="M428.415 85.5363C428.415 94.782 435.905 102.277 445.145 102.277C454.384 102.277 461.875 94.782 461.875 85.5363C461.875 76.2905 454.384 68.7959 445.145 68.7959C435.905 68.7959 428.415 76.2905 428.415 85.5363Z" fill="#ED1C24" stroke="#2D2D2D"/>
<path d="M437.256 97.6509L439.199 71.6307L423.378 67.5767L415.824 93.0256L437.256 97.6509Z" fill="white" stroke="#2D2D2D" stroke-linejoin="round"/>
<mask id="path-52-inside-1_79:4" fill="white">
<path fill-rule="evenodd" clip-rule="evenodd" d="M455.985 45.3676C455.985 45.3676 440.945 22.3415 426.658 25.2974C419.049 26.8717 413.906 38.4308 411.401 50.0007C410.932 50.1594 410.488 50.4078 410.098 50.7491C408.408 52.2261 408.519 54.752 410.317 56.1118C409.224 63.9932 409.439 71.0117 411.021 73.746C415.265 81.0802 439.993 75.3638 445.369 70.2657C450.744 65.1676 455.985 45.3676 455.985 45.3676Z"/>
</mask>
<path fill-rule="evenodd" clip-rule="evenodd" d="M455.985 45.3676C455.985 45.3676 440.945 22.3415 426.658 25.2974C419.049 26.8717 413.906 38.4308 411.401 50.0007C410.932 50.1594 410.488 50.4078 410.098 50.7491C408.408 52.2261 408.519 54.752 410.317 56.1118C409.224 63.9932 409.439 71.0117 411.021 73.746C415.265 81.0802 439.993 75.3638 445.369 70.2657C450.744 65.1676 455.985 45.3676 455.985 45.3676Z" fill="white"/>
<path d="M426.658 25.2974L426.86 26.2767L426.86 26.2767L426.658 25.2974ZM455.985 45.3676L456.951 45.6233L457.065 45.1932L456.822 44.8207L455.985 45.3676ZM411.401 50.0007L411.722 50.9479L412.259 50.7661L412.379 50.2122L411.401 50.0007ZM410.098 50.7491L409.439 49.9963L409.439 49.9963L410.098 50.7491ZM410.317 56.1118L411.308 56.2491L411.388 55.668L410.92 55.3142L410.317 56.1118ZM411.021 73.746L410.155 74.2468L411.021 73.746ZM445.369 70.2657L444.68 69.5402L445.369 70.2657ZM426.86 26.2767C430.135 25.5992 433.516 26.3966 436.813 28.0772C440.11 29.758 443.248 32.2857 445.982 34.9413C448.711 37.5921 451.006 40.3395 452.62 42.4276C453.427 43.4705 454.061 44.3462 454.493 44.9596C454.709 45.2662 454.874 45.507 454.984 45.6702C455.039 45.7517 455.081 45.8139 455.108 45.8551C455.122 45.8757 455.132 45.8911 455.139 45.901C455.142 45.906 455.144 45.9096 455.146 45.9118C455.147 45.913 455.147 45.9137 455.147 45.9142C455.147 45.9144 455.148 45.9145 455.148 45.9146C455.148 45.9145 455.147 45.9144 455.985 45.3676C456.822 44.8207 456.822 44.8204 456.822 44.82C456.821 44.8198 456.821 44.8193 456.821 44.8188C456.82 44.8179 456.819 44.8165 456.818 44.8149C456.816 44.8115 456.813 44.8068 456.809 44.8007C456.801 44.7886 456.789 44.771 456.774 44.7481C456.744 44.7024 456.699 44.6356 456.641 44.5492C456.524 44.3765 456.352 44.1255 456.128 43.8083C455.682 43.1739 455.03 42.2739 454.203 41.2043C452.551 39.0674 450.193 36.2429 447.376 33.5067C444.564 30.7753 441.263 28.1008 437.722 26.2955C434.18 24.4901 430.324 23.5177 426.455 24.3182L426.86 26.2767ZM412.379 50.2122C413.618 44.4854 415.502 38.8073 417.987 34.3909C420.492 29.9372 423.488 26.9744 426.86 26.2767L426.455 24.3182C422.219 25.1947 418.838 28.7985 416.244 33.4104C413.628 38.0597 411.689 43.946 410.424 49.7892L412.379 50.2122ZM410.756 51.502C411.043 51.2505 411.372 51.0663 411.722 50.9479L411.081 49.0535C410.493 49.2525 409.933 49.5651 409.439 49.9963L410.756 51.502ZM410.92 55.3142C409.617 54.3285 409.554 52.5526 410.756 51.502L409.439 49.9963C407.262 51.8996 407.421 55.1754 409.714 56.9094L410.92 55.3142ZM411.887 73.2451C411.228 72.1066 410.779 69.8855 410.665 66.8217C410.553 63.8109 410.767 60.1457 411.308 56.2491L409.327 55.9744C408.774 59.9592 408.549 63.744 408.666 66.8963C408.782 69.9957 409.232 72.651 410.155 74.2468L411.887 73.2451ZM444.68 69.5402C443.494 70.6658 441.105 71.9225 437.99 73.0515C434.912 74.167 431.247 75.1147 427.617 75.6799C423.977 76.2464 420.426 76.4202 417.56 76.0227C414.638 75.6177 412.706 74.6619 411.887 73.2451L410.155 74.2468C411.457 76.4971 414.208 77.5772 417.285 78.0037C420.416 78.4379 424.179 78.2391 427.924 77.6561C431.678 77.0717 435.468 76.0927 438.671 74.9318C441.837 73.7843 444.556 72.4147 446.057 70.9913L444.68 69.5402ZM455.985 45.3676C455.018 45.1118 455.018 45.1118 455.018 45.1118C455.018 45.1119 455.018 45.1121 455.018 45.1123C455.018 45.1128 455.018 45.1136 455.017 45.1147C455.017 45.1168 455.016 45.1202 455.015 45.1247C455.012 45.1337 455.009 45.1475 455.004 45.1658C454.994 45.2024 454.979 45.2573 454.959 45.3293C454.92 45.4735 454.862 45.6864 454.786 45.9597C454.633 46.5063 454.409 47.2943 454.123 48.2562C453.551 50.181 452.734 52.7979 451.75 55.5706C450.765 58.3463 449.62 61.2613 448.395 63.7885C447.157 66.3433 445.886 68.3971 444.68 69.5402L446.057 70.9913C447.539 69.5852 448.939 67.2523 450.195 64.6607C451.465 62.0416 452.638 59.0507 453.635 56.2391C454.634 53.4245 455.462 50.7728 456.041 48.8258C456.33 47.8518 456.557 47.053 456.712 46.4969C456.79 46.2188 456.849 46.0014 456.89 45.853C456.91 45.7788 456.925 45.7219 456.936 45.6832C456.941 45.6639 456.945 45.6492 456.947 45.6392C456.949 45.6342 456.95 45.6303 456.95 45.6277C456.951 45.6264 456.951 45.6253 456.951 45.6246C456.951 45.6242 456.951 45.6239 456.951 45.6237C456.951 45.6235 456.951 45.6233 455.985 45.3676Z" fill="#2D2D2D" mask="url(#path-52-inside-1_79:4)"/>
<path d="M439.31 66.6186C446.401 64.8989 449.695 55.1195 441.504 55.1195C439.31 55.1195 435.723 55.1627 434.31 56.8729L423.197 45.5447C415.463 35.1552 418.255 11.3209 446.317 29.875C456.537 36.6321 458.679 44.6261 456.984 53.5557C455.622 60.7256 445.158 72.3066 437.54 73.5413L439.31 66.6186Z" fill="#ED1C24" stroke="#2D2D2D" stroke-linejoin="round"/>
<path fill-rule="evenodd" clip-rule="evenodd" d="M378.058 128.002L393.005 114.486L399.982 153.74L393.735 181.724H447.219C449.997 183.77 452.49 185.365 454.553 186.331C471.711 194.364 465.859 132.923 464.463 123.143C463.346 115.32 447.717 101.663 438.078 97.6206V85.1917L418.839 82.9179L416.944 89.5759C408.687 89.3335 396.072 89.3619 393.735 90.9446C392.079 92.0671 391.062 93.6352 390.489 94.9623L372.5 115.307C370.587 117.471 367.083 116.957 365.873 114.335L349.673 79.2354L341.048 79.2366C345.25 98.0456 350.494 117.62 356.967 126.82C362.546 134.749 366.078 137.962 378.058 128.002ZM448.747 132.27C449.056 132.821 449.221 133.267 449.221 133.588C449.221 137.329 449.654 145.324 450.046 152.56C450.37 158.539 450.666 163.999 450.666 166.111L444.511 160.951C444.305 150.909 445.635 140.493 448.141 134.81C448.481 134.037 448.679 133.187 448.747 132.27Z" fill="#F0F0F0"/>
<path d="M393.005 114.486L392.67 114.115L393.34 113.509L393.498 114.398L393.005 114.486ZM378.058 128.002L378.393 128.373L378.385 128.38L378.378 128.386L378.058 128.002ZM399.982 153.74L400.474 153.652L400.492 153.751L400.47 153.849L399.982 153.74ZM393.735 181.724V182.224H393.112L393.247 181.615L393.735 181.724ZM447.219 181.724V181.224H447.383L447.515 181.321L447.219 181.724ZM454.553 186.331L454.341 186.784L454.553 186.331ZM464.463 123.143L463.968 123.214L464.463 123.143ZM438.078 97.6206L437.884 98.0817L437.578 97.9531V97.6206H438.078ZM438.078 85.1917L438.136 84.6951L438.578 84.7473V85.1917H438.078ZM418.839 82.9179L418.358 82.7811L418.475 82.3714L418.898 82.4214L418.839 82.9179ZM416.944 89.5759L417.425 89.7128L417.319 90.0871L416.93 90.0757L416.944 89.5759ZM393.735 90.9446L394.016 91.3586L393.735 90.9446ZM390.489 94.9623L390.948 95.1605L390.916 95.2337L390.864 95.2935L390.489 94.9623ZM372.5 115.307L372.126 114.976L372.5 115.307ZM365.873 114.335L365.419 114.544L365.873 114.335ZM349.673 79.2354L349.672 78.7354L349.992 78.7353L350.127 79.0258L349.673 79.2354ZM341.048 79.2366L340.56 79.3456L340.424 78.7367L341.048 78.7366L341.048 79.2366ZM356.967 126.82L356.559 127.108V127.108L356.967 126.82ZM448.747 132.27L448.248 132.233L448.372 130.58L449.183 132.025L448.747 132.27ZM450.046 152.56L449.547 152.587L450.046 152.56ZM450.666 166.111H451.166V167.182L450.345 166.494L450.666 166.111ZM444.511 160.951L444.19 161.334L444.016 161.188L444.011 160.961L444.511 160.951ZM448.141 134.81L448.598 135.011L448.141 134.81ZM393.341 114.857L378.393 128.373L377.722 127.631L392.67 114.115L393.341 114.857ZM399.49 153.827L392.513 114.573L393.498 114.398L400.474 153.652L399.49 153.827ZM393.247 181.615L399.494 153.631L400.47 153.849L394.223 181.833L393.247 181.615ZM447.219 182.224H393.735V181.224H447.219V182.224ZM447.515 181.321C450.283 183.36 452.746 184.933 454.765 185.878L454.341 186.784C452.234 185.798 449.71 184.18 446.922 182.127L447.515 181.321ZM454.765 185.878C456.791 186.827 458.391 186.721 459.696 185.9C461.04 185.055 462.163 183.396 463.069 181.042C464.879 176.343 465.712 169.183 465.966 161.4C466.472 145.859 464.663 128.084 463.968 123.214L464.958 123.073C465.658 127.982 467.474 145.817 466.965 161.433C466.711 169.229 465.877 176.534 464.002 181.402C463.067 183.832 461.843 185.731 460.228 186.746C458.574 187.786 456.604 187.843 454.341 186.784L454.765 185.878ZM463.968 123.214C463.706 121.38 462.577 119.139 460.82 116.717C459.071 114.306 456.735 111.763 454.125 109.33C448.899 104.456 442.631 100.072 437.884 98.0817L438.271 97.1595C443.164 99.2115 449.53 103.677 454.807 108.598C457.449 111.062 459.832 113.653 461.629 116.13C463.417 118.595 464.661 120.995 464.958 123.073L463.968 123.214ZM437.578 97.6206V85.1917H438.578V97.6206H437.578ZM438.019 85.6882L418.78 83.4145L418.898 82.4214L438.136 84.6951L438.019 85.6882ZM419.32 83.0548L417.425 89.7128L416.464 89.4391L418.358 82.7811L419.32 83.0548ZM393.455 90.5307C393.819 90.2841 394.339 90.0934 394.939 89.9375C395.55 89.7789 396.288 89.6457 397.119 89.5335C398.782 89.309 400.854 89.1638 403.1 89.0762C407.594 88.901 412.825 88.9548 416.959 89.0761L416.93 90.0757C412.807 89.9547 407.601 89.9015 403.139 90.0755C400.907 90.1625 398.871 90.3061 397.253 90.5245C396.444 90.6337 395.749 90.7605 395.19 90.9054C394.622 91.053 394.236 91.2095 394.016 91.3586L393.455 90.5307ZM390.03 94.7641C390.629 93.3764 391.698 91.7209 393.455 90.5307L394.016 91.3586C392.459 92.4132 391.495 93.8939 390.948 95.1605L390.03 94.7641ZM372.126 114.976L390.115 94.6311L390.864 95.2935L372.875 115.638L372.126 114.976ZM366.327 114.125C367.386 116.419 370.452 116.869 372.126 114.976L372.875 115.638C370.723 118.072 366.78 117.494 365.419 114.544L366.327 114.125ZM350.127 79.0258L366.327 114.125L365.419 114.544L349.219 79.4449L350.127 79.0258ZM341.048 78.7366L349.672 78.7354L349.673 79.7354L341.048 79.7366L341.048 78.7366ZM356.559 127.108C353.275 122.441 350.327 115.185 347.679 106.782C345.027 98.3671 342.662 88.7551 340.56 79.3456L341.536 79.1276C343.636 88.527 345.993 98.1068 348.633 106.481C351.275 114.868 354.186 121.999 357.376 126.532L356.559 127.108ZM378.378 128.386C375.368 130.889 372.863 132.586 370.704 133.588C368.54 134.591 366.695 134.91 365.025 134.611C363.355 134.313 361.93 133.411 360.584 132.11C359.244 130.813 357.953 129.09 356.559 127.108L357.376 126.532C358.771 128.514 360.014 130.166 361.279 131.391C362.54 132.61 363.793 133.376 365.2 133.627C366.608 133.878 368.241 133.628 370.283 132.681C372.329 131.731 374.758 130.095 377.738 127.617L378.378 128.386ZM449.183 132.025C449.498 132.586 449.721 133.129 449.721 133.588H448.721C448.721 133.404 448.615 133.056 448.311 132.515L449.183 132.025ZM449.721 133.588C449.721 137.311 450.153 145.288 450.546 152.533L449.547 152.587C449.155 145.36 448.721 137.346 448.721 133.588H449.721ZM450.546 152.533C450.869 158.502 451.166 163.982 451.166 166.111H450.166C450.166 164.017 449.872 158.577 449.547 152.587L450.546 152.533ZM450.345 166.494L444.19 161.334L444.832 160.568L450.988 165.728L450.345 166.494ZM448.598 135.011C446.137 140.595 444.805 150.923 445.011 160.94L444.011 160.961C443.805 150.895 445.133 140.392 447.683 134.608L448.598 135.011ZM449.246 132.307C449.174 133.272 448.965 134.179 448.598 135.011L447.683 134.608C447.998 133.895 448.184 133.101 448.248 132.233L449.246 132.307Z" fill="#2D2D2D"/>
<path d="M450.326 183.873C433.714 173.043 405.831 143.695 399.963 137.439L404.061 127.809L449.67 165.229" stroke="#2D2D2D"/>
<path d="M403.8 127.874C399.881 120.22 392.013 102.845 389.765 103.203C387.751 103.524 392.041 111.617 394.317 116.677C392.926 114.084 389.765 109.238 388.248 110.605C387.761 111.043 388.948 113.848 390.289 116.219C388.752 114.119 386.753 112.09 385.595 113.354C384.836 114.182 388.555 119.001 389.765 120.546C388.595 119.199 385.008 113.746 384.097 115.871C383.187 117.997 394.38 131.923 400.007 137.173L403.8 127.874Z" fill="#FFFDFD"/>
<path d="M403.8 127.874L404.246 127.646L404.35 127.851L404.263 128.063L403.8 127.874ZM389.765 103.203L389.687 102.709L389.765 103.203ZM394.317 116.677L394.773 116.472C394.884 116.718 394.78 117.007 394.538 117.126C394.296 117.245 394.004 117.151 393.877 116.914L394.317 116.677ZM388.248 110.605L388.583 110.976L388.583 110.976L388.248 110.605ZM391.944 118.765L392.379 118.517C392.508 118.744 392.441 119.033 392.225 119.179C392.008 119.326 391.715 119.281 391.553 119.076L391.944 118.765ZM385.595 113.354L385.226 113.016L385.595 113.354ZM389.765 120.546L390.159 120.238C390.326 120.452 390.293 120.759 390.083 120.932C389.874 121.105 389.566 121.079 389.388 120.874L389.765 120.546ZM384.097 115.871L383.638 115.674L384.097 115.871ZM400.007 137.173L400.47 137.362L400.196 138.034L399.666 137.539L400.007 137.173ZM403.355 128.102C402.373 126.184 401.143 123.657 399.821 120.96C398.497 118.26 397.078 115.387 395.712 112.765C394.345 110.14 393.038 107.781 391.937 106.105C391.385 105.264 390.898 104.615 390.492 104.193C390.289 103.981 390.122 103.843 389.993 103.766C389.857 103.684 389.818 103.701 389.844 103.697L389.687 102.709C389.994 102.66 390.279 102.771 390.508 102.909C390.743 103.05 390.979 103.256 391.213 103.5C391.683 103.989 392.21 104.699 392.773 105.556C393.903 107.276 395.229 109.672 396.599 112.303C397.971 114.937 399.395 117.82 400.719 120.52C402.044 123.223 403.268 125.738 404.246 127.646L403.355 128.102ZM389.844 103.697C389.825 103.7 389.816 103.704 389.814 103.705C389.813 103.706 389.812 103.706 389.812 103.707C389.811 103.708 389.791 103.728 389.772 103.798C389.73 103.952 389.726 104.226 389.799 104.646C389.944 105.472 390.344 106.629 390.895 107.973C391.998 110.663 393.62 113.909 394.773 116.472L393.861 116.883C392.738 114.385 391.078 111.055 389.97 108.353C389.416 107.001 388.979 105.759 388.814 104.819C388.733 104.356 388.706 103.906 388.807 103.536C388.859 103.344 388.951 103.152 389.107 102.997C389.268 102.838 389.468 102.744 389.687 102.709L389.844 103.697ZM393.877 116.914C393.19 115.633 392.071 113.806 390.948 112.479C390.382 111.809 389.847 111.305 389.393 111.047C389.169 110.919 388.997 110.87 388.873 110.867C388.765 110.864 388.675 110.893 388.583 110.976L387.913 110.233C388.2 109.975 388.541 109.857 388.902 109.867C389.247 109.877 389.581 110.003 389.888 110.178C390.498 110.525 391.124 111.138 391.712 111.833C392.897 113.235 394.054 115.129 394.758 116.441L393.877 116.914ZM388.583 110.976C388.658 110.908 388.645 110.85 388.639 110.921C388.633 110.982 388.637 111.087 388.665 111.247C388.721 111.562 388.853 111.993 389.05 112.508C389.442 113.531 390.062 114.802 390.725 115.973L389.854 116.465C389.175 115.265 388.531 113.948 388.116 112.866C387.91 112.328 387.753 111.828 387.681 111.42C387.645 111.218 387.626 111.014 387.643 110.828C387.66 110.653 387.716 110.411 387.913 110.233L388.583 110.976ZM390.725 115.973C391.28 116.955 391.855 117.848 392.336 118.454L391.553 119.076C391.026 118.412 390.422 117.47 389.854 116.465L390.725 115.973ZM391.51 119.013C391.131 118.349 390.552 117.424 389.886 116.514L390.693 115.923C391.384 116.868 391.983 117.825 392.379 118.517L391.51 119.013ZM389.886 116.514C389.124 115.474 388.277 114.493 387.505 113.928C387.116 113.645 386.792 113.5 386.541 113.469C386.323 113.443 386.142 113.497 385.964 113.692L385.226 113.016C385.627 112.579 386.13 112.412 386.661 112.477C387.157 112.537 387.646 112.793 388.095 113.121C388.996 113.78 389.917 114.863 390.693 115.923L389.886 116.514ZM385.964 113.692C386.024 113.625 385.977 113.596 386.001 113.765C386.023 113.914 386.091 114.129 386.214 114.408C386.458 114.962 386.871 115.663 387.359 116.407C388.333 117.889 389.554 119.466 390.159 120.238L389.372 120.855C388.766 120.082 387.522 118.476 386.524 116.956C386.026 116.199 385.576 115.443 385.299 114.811C385.161 114.498 385.053 114.189 385.012 113.91C384.974 113.651 384.976 113.29 385.226 113.016L385.964 113.692ZM389.388 120.874C389.082 120.523 388.622 119.907 388.118 119.254C387.604 118.588 387.028 117.86 386.465 117.244C385.888 116.612 385.373 116.154 384.985 115.966C384.793 115.873 384.707 115.883 384.687 115.889C384.681 115.89 384.67 115.894 384.652 115.912C384.63 115.934 384.595 115.979 384.557 116.068L383.638 115.674C383.79 115.318 384.043 115.029 384.421 114.925C384.777 114.827 385.129 114.925 385.42 115.065C385.997 115.344 386.623 115.935 387.203 116.569C387.796 117.219 388.394 117.974 388.91 118.643C389.436 119.325 389.863 119.896 390.143 120.219L389.388 120.874ZM384.557 116.068C384.553 116.078 384.531 116.149 384.559 116.328C384.584 116.499 384.647 116.723 384.755 117.001C384.97 117.557 385.338 118.268 385.837 119.101C386.832 120.764 388.308 122.851 389.997 125.046C393.376 129.437 397.562 134.208 400.348 136.808L399.666 137.539C396.825 134.888 392.602 130.071 389.205 125.655C387.505 123.447 386.002 121.325 384.979 119.615C384.468 118.762 384.067 117.995 383.822 117.362C383.7 117.046 383.611 116.747 383.57 116.478C383.53 116.217 383.528 115.931 383.638 115.674L384.557 116.068ZM399.544 136.984L403.338 127.686L404.263 128.063L400.47 137.362L399.544 136.984Z" fill="#2D2D2D"/>
<path d="M316.374 82.2455H395.661C396.584 82.2455 397.332 81.4974 397.332 80.5745L375.645 68.6008L304.385 68.6006V69.6133C304.385 70.1221 304.579 70.6118 304.927 70.9827L314.916 81.6149C315.294 82.0173 315.821 82.2455 316.374 82.2455Z" fill="#A9A9A9" stroke="#2D2D2D"/>
<path d="M375.999 68.7375V24.6733C375.999 23.5688 375.103 22.6733 373.999 22.6733H306.385C305.28 22.6733 304.385 23.5688 304.385 24.6733V68.7375H375.999Z" fill="white" stroke="#2D2D2D" stroke-linejoin="round"/>
<path d="M397.332 80.3703L376.118 68.7378H304.636L315.946 80.3703H397.332Z" fill="#C4C4C4" stroke="#2D2D2D" stroke-linejoin="round"/>
<path d="M364.293 63.2537V33.5049H319.902V63.2537H364.293Z" fill="#EFEFEF" stroke="#2D2D2D"/>
<path d="M361.564 59.3911V29.6294H316.134V59.3911H361.564Z" fill="#EFEFEF" stroke="#2D2D2D"/>
<path d="M362.083 27.2798H315.625V31.979H362.083V27.2798Z" fill="#2D2D2D"/>
<ellipse rx="0.883588" ry="0.884123" transform="matrix(-1 0 0 1 317.716 29.4955)" fill="white"/>
<ellipse rx="0.883588" ry="0.884123" transform="matrix(-1 0 0 1 312.18 29.4955)" fill="white"/>
<path d="M355.276 37.5522H321.255" stroke="#2D2D2D"/>
<path d="M355.276 43.0801H321.255" stroke="#2D2D2D"/>
<path d="M355.276 48.6094H321.255" stroke="#2D2D2D"/>
<path d="M355.276 54.1372H341.267" stroke="#2D2D2D"/>
<ellipse rx="0.883588" ry="0.884123" transform="matrix(-1 0 0 1 308.646 29.4955)" fill="white"/>
</g>
</svg>
