<svg width="499" height="499" viewBox="0 0 499 499" fill="none" xmlns="http://www.w3.org/2000/svg">
<path d="M249.393 488.742L249.243 488.66C188.797 454.301 139.731 319.125 140.017 187.329V186.852H140.467C263.594 170.293 412.904 184.74 473.322 219.058L473.581 219.208V219.508C473.336 351.358 372.793 472.142 249.57 488.715L249.393 488.742ZM141.094 187.779C140.971 318.989 189.614 453.388 249.651 487.624C372.315 471.038 472.219 350.936 472.6 219.726C412.222 185.694 263.758 171.356 141.094 187.779Z" fill="white"/>
<path d="M361.889 440.889C331.55 423.648 256.452 416.357 194.507 424.725L194.371 423.716C256.507 415.362 331.891 422.667 362.393 439.99L361.889 440.889Z" fill="white"/>
<path d="M442.084 344.421C390.088 314.886 261.454 302.456 155.336 316.726L155.2 315.718C261.509 301.42 390.429 313.905 442.588 343.535L442.084 344.421Z" fill="white"/>
<path d="M249.692 488.687L249.297 487.747C324.913 456.222 386.626 323.65 386.872 192.208H387.894C387.649 324.031 325.649 457.026 249.692 488.687Z" fill="white"/>
<path d="M249.992 488.347L248.997 488.088C259.001 450.171 267.329 312.269 267.574 180.665H268.596C268.351 312.338 260.01 450.362 249.992 488.347Z" fill="white"/>
<path d="M221.507 490.623C174.731 490.623 131.063 474.54 96.2943 444.079C74.1472 424.566 56.6388 400.352 45.048 373.206C32.5771 344.585 26.2668 313.087 26.294 279.723C7.59457 269.024 -1.07369 257.112 1.21604 245.254C6.16349 220.121 59.4678 197.756 140.467 186.852L141.039 186.771V187.357C140.794 318.825 189.56 453.606 249.747 487.802L251.11 488.551L249.611 488.742C240.295 489.995 230.906 490.623 221.507 490.623ZM140.004 187.915C59.7813 198.819 7.00851 220.83 2.22461 245.513C0.00302851 256.962 8.58951 268.56 27.0573 279.041L27.3162 279.191V279.532C27.2481 312.869 33.5312 344.285 45.9748 372.906C57.5251 399.89 74.9484 423.958 96.9757 443.356C138.014 479.311 191.577 495.148 247.934 487.938C188.156 452.406 139.922 318.58 140.017 187.915H140.004Z" fill="white"/>
<path d="M136.773 471.146C127.151 465.695 122.694 459.548 123.88 453.428C126.361 440.617 153.347 429.236 194.316 423.73L194.453 424.739C153.933 430.19 127.287 441.257 124.943 453.633C123.839 459.289 128.132 465.041 137.332 470.274L136.773 471.146Z" fill="white"/>
<path d="M56.851 396.226C40.4958 386.958 32.9451 376.6 34.9486 366.241C39.1737 344.434 85.2409 325.094 155.2 315.69L155.337 316.699C85.8269 326.048 40.0869 345.102 35.9436 366.432C34.0355 376.286 41.3953 386.277 57.3553 395.313L56.851 396.226Z" fill="white"/>
<path d="M249.406 488.715C134.92 467.426 42.104 342.881 42.3493 210.962H43.3715C43.1262 342.363 135.629 466.512 249.583 487.706L249.406 488.715Z" fill="white"/>
<path d="M249.488 488.728C112.472 485.703 1.29787 375.932 1.5432 244.014H2.5654C2.32007 375.36 113.099 484.68 249.502 487.693L249.488 488.728Z" fill="white"/>
<path d="M277.087 496.674C267.324 496.48 257.779 493.746 249.393 488.742C192.258 496.388 137.905 480.564 96.3079 444.079C74.1609 424.566 56.6524 400.352 45.0616 373.206C32.5499 344.462 26.2395 312.896 26.3077 279.423V278.55L27.0709 278.973C87.3126 313.21 236.349 327.602 359.272 311.07L359.858 310.988V311.574C359.695 400.574 337.002 468.979 300.653 490.118C293.526 494.375 285.388 496.639 277.087 496.674ZM249.597 487.679L249.747 487.774C267.465 497.86 284.474 498.378 300.175 489.273C336.143 468.393 358.618 400.574 358.877 312.228C236.377 328.584 88.1712 314.314 27.3708 280.363C27.3708 313.373 33.6948 344.489 46.0293 372.865C57.5796 399.849 75.0029 423.916 97.0303 443.315C138.436 479.597 192.572 495.366 249.474 487.706L249.597 487.679Z" fill="white"/>
<path d="M250.565 490.882C203.843 490.882 158.717 483.617 136.773 471.146L137.278 470.26C167.616 487.502 242.714 494.793 304.659 486.411L304.796 487.433C286.814 489.775 268.698 490.926 250.565 490.882Z" fill="white"/>
<path d="M251.41 429.972C171.501 429.972 94.3453 417.529 56.851 396.226L57.3553 395.34C109.351 424.889 237.971 437.305 344.103 423.035L344.226 424.044C313.452 428.064 282.445 430.045 251.41 429.972Z" fill="white"/>
<path d="M244.5 498.473H244.268C235.068 497.274 231.116 407.157 231.279 318.307H232.301C232.083 434.838 238.23 496.633 244.404 497.437C245.058 497.56 246.721 496.756 248.997 488.088L249.992 488.347C248.18 495.229 246.421 498.473 244.5 498.473Z" fill="white"/>
<path d="M277.087 496.674C268.01 496.674 258.633 493.948 249.243 488.66L247.88 487.911L249.392 487.706C276.15 484.01 302.046 475.627 325.894 462.942C346.556 430.531 358.673 376.613 358.795 311.656V311.206H359.231C403.922 305.196 440.135 295.723 464.341 284.247C469.705 263.097 472.451 241.369 472.518 219.549V218.677L473.282 219.099C492.158 229.826 500.908 241.806 498.605 253.718C496.438 264.907 484.703 275.525 465.227 284.888C445.737 361.662 393.604 428.405 326.589 463.8C319.011 475.631 310.234 484.599 300.612 490.228C293.487 494.439 285.364 496.665 277.087 496.674ZM251.083 488.497C268.365 497.874 284.87 498.133 300.148 489.26C309.293 483.958 317.566 475.631 324.817 464.659C301.762 476.717 276.831 484.781 251.083 488.51V488.497ZM359.858 312.079C359.681 376.027 347.878 429.291 327.72 462.001C393.495 426.66 444.646 360.94 464.014 285.379C439.794 296.759 403.936 306.136 359.858 312.092V312.079ZM473.568 220.353C473.435 241.677 470.749 262.908 465.567 283.593C484.294 274.53 495.552 264.24 497.637 253.445C499.832 242.174 491.504 230.739 473.568 220.367V220.353Z" fill="white"/>
<path d="M304.796 487.433L304.66 486.411C345.18 480.96 371.838 469.906 374.237 457.531C375.328 451.875 371.034 446.123 361.835 440.889L362.339 439.99C371.961 445.441 376.418 451.588 375.232 457.708C372.793 470.533 345.766 481.914 304.796 487.433Z" fill="white"/>
<path d="M344.171 424.003L344.048 422.994C413.558 413.644 459.284 394.591 463.428 373.261C465.336 363.407 457.976 353.416 442.03 344.38L442.534 343.494C458.889 352.776 466.426 363.134 464.436 373.479C460.266 395.272 414.185 414.639 344.171 424.003Z" fill="white"/>
<path d="M282.444 491.808C271.359 491.794 260.3 490.758 249.406 488.715L249.583 487.706C299.835 497.056 348.328 484.98 386.136 453.633C430.731 416.629 456.381 356.292 456.517 288.063H457.54C457.403 356.592 431.644 417.229 386.79 454.341C357.515 478.745 320.556 492.016 282.444 491.808Z" fill="white"/>
<path d="M255.335 488.783C253.386 488.783 251.437 488.783 249.488 488.783V487.761C317.294 489.246 380.561 464.686 427.773 418.578C472.491 374.964 497.188 316.835 497.283 255.026H498.305C498.196 317.121 473.391 375.469 428.482 419.328C382.456 464.223 321.151 488.783 255.335 488.783Z" fill="white"/>
<path d="M473.568 220.353L472.805 219.931C412.563 185.694 263.54 171.301 140.603 187.834L140.017 187.915V187.329C140.181 98.3162 162.874 29.9106 199.237 8.78513C214.965 -0.346519 232.683 0.144137 250.483 10.1481C307.604 2.51564 361.971 18.3257 403.568 54.8114C425.711 74.328 443.218 98.5408 454.814 125.684C467.326 154.428 473.636 185.98 473.582 219.467L473.568 220.353ZM247.975 179.956C340.001 179.956 428.85 194.199 472.559 218.609C472.559 185.585 466.222 154.469 453.887 126.106C442.337 99.1189 424.914 75.0468 402.886 55.6428C361.48 19.3615 307.372 3.60599 250.456 11.2521H250.279L250.129 11.1703C232.411 1.07093 215.401 0.566646 199.7 9.65741C163.787 30.5648 141.312 98.3844 141.094 186.743C176.534 182.142 212.238 179.875 247.975 179.956Z" fill="white"/>
<path d="M442.534 103.632C390.511 74.0832 261.891 61.6669 155.786 75.9368L155.65 74.9146C261.959 60.6175 390.865 73.1019 443.038 102.732L442.534 103.632Z" fill="white"/>
<path d="M362.598 28.7519C332.259 11.5108 257.175 4.21911 195.216 12.6011L195.08 11.5926C257.216 3.2378 332.6 10.5295 363.102 27.866L362.598 28.7519Z" fill="white"/>
<path d="M387.894 192.209H386.872C387.022 109.479 362.979 43.9623 322.555 16.9626C301.007 2.55642 276.12 0.607424 250.578 11.2247L250.183 10.2706C276.079 -0.510177 301.266 1.52059 323.127 16.104C363.838 43.3081 388.044 109.165 387.894 192.209Z" fill="white"/>
<path d="M268.596 180.664H267.574C267.847 64.1882 261.645 2.32467 255.471 1.49328C254.858 1.39787 253.168 2.16111 250.878 10.843L249.883 10.584C251.778 3.42864 253.618 0.225748 255.608 0.471076C264.807 1.69772 268.76 91.8558 268.596 180.664Z" fill="white"/>
<path d="M27.3298 280.363L26.5666 279.941C7.67632 269.214 -1.07372 257.234 1.22964 245.322C3.41034 234.132 15.1316 223.515 34.6079 214.152C54.0978 137.364 106.23 70.6212 173.259 35.2259C180.837 23.3956 189.614 14.4275 199.237 8.79859C215.006 -0.360323 232.778 0.157589 250.633 10.2978L251.996 11.0474L250.497 11.2519C223.72 14.9419 197.805 23.3251 173.941 36.0164C153.279 68.4269 141.23 122.345 141.039 187.302V187.752H140.603C95.9126 193.762 59.7131 203.235 35.5074 214.711C30.1433 235.861 27.3969 257.589 27.3298 279.409V280.363ZM34.308 215.365C15.595 224.428 4.3235 234.718 2.23821 245.513C0.0438871 256.798 8.37142 268.233 26.3076 278.605C26.4408 257.281 29.1267 236.05 34.308 215.365ZM172.169 36.9295C106.38 72.3658 55.2291 138.018 35.8073 213.593C60.0811 202.212 95.9399 192.835 140.017 186.879C140.194 122.917 151.997 69.6399 172.169 36.9295ZM222.87 3.22419C214.708 3.25315 206.704 5.48004 199.7 9.67086C190.555 14.9863 182.282 23.3002 175.031 34.2037C198.096 22.1892 223.025 14.1576 248.766 10.4477C239.897 5.64112 231.266 3.23328 222.87 3.22419Z" fill="white"/>
<path d="M57.2872 155.505C40.932 146.223 33.395 135.865 35.3985 125.52C39.6099 103.713 85.6907 84.3732 155.65 74.969L155.786 75.9912C86.2768 85.3273 40.5367 104.395 36.3934 125.725C34.4853 135.579 41.8452 145.555 57.7915 154.592L57.2872 155.505Z" fill="white"/>
<path d="M137.537 58.9682C127.914 53.5165 123.458 47.3696 124.643 41.2501C127.124 28.4385 154.124 17.058 195.08 11.5518L195.216 12.5603C154.696 18.0121 128.051 29.0791 125.706 41.4409C124.602 47.0971 128.896 52.8623 138.095 58.0959L137.537 58.9682Z" fill="white"/>
<path d="M43.3717 210.963H42.3495C42.4721 142.421 68.2452 81.7837 113.099 44.6029C151.139 13.0373 199.932 0.839093 250.469 10.2433L250.292 11.2519C200.041 1.90219 151.548 13.9778 113.74 45.3252C69.1447 82.3834 43.4943 142.734 43.3717 210.963Z" fill="white"/>
<path d="M2.56529 244.095H1.54309C1.66576 182 26.4575 123.639 71.3798 79.7801C118.796 33.4403 182.363 8.81213 250.387 10.2705V11.2927C182.622 9.79344 119.328 34.3671 72.1158 80.4752C27.3707 124.157 2.68796 182.191 2.56529 244.095Z" fill="white"/>
<path d="M251.9 319.057C159.344 319.057 69.9897 304.61 26.6076 279.941L26.3486 279.791V279.532C26.6076 147.6 127.042 26.8167 250.319 10.2434H250.483L250.633 10.3252C311.106 44.6847 360.104 179.874 359.858 311.67V312.12H359.409C323.765 316.802 287.85 319.119 251.9 319.057ZM27.3299 279.191C87.667 313.264 236.159 327.616 358.836 311.193C358.972 179.983 310.329 45.5706 250.279 11.3474C127.669 27.8661 27.7115 147.968 27.3299 279.191Z" fill="white"/>
<path d="M251.859 189.169C171.951 189.169 94.795 176.739 57.2871 155.437L57.7914 154.537C109.746 184.126 238.421 196.515 344.539 182.232L344.675 183.254C313.901 187.27 282.895 189.246 251.859 189.169Z" fill="white"/>
<path d="M251.328 78.7035C204.607 78.7035 159.48 71.4254 137.537 58.9682L138.041 58.0823C168.393 75.3098 243.477 82.6151 305.436 74.233L305.573 75.2416C287.587 77.5935 269.466 78.75 251.328 78.7035Z" fill="white"/>
<path d="M232.301 318.307H231.279C231.525 186.634 239.879 48.61 249.883 10.625L250.878 10.884C240.874 48.7871 232.547 186.702 232.301 318.307Z" fill="white"/>
<path d="M358.836 312.242V311.656C359.081 180.174 310.316 45.3935 250.129 11.2111L248.766 10.4615L250.278 10.2571C307.522 2.57012 361.889 18.4347 403.527 54.8931C425.67 74.4097 443.177 98.6225 454.773 125.766C467.244 154.387 473.554 185.885 473.541 219.249C492.24 229.935 500.908 241.86 498.605 253.718C493.712 278.918 440.367 301.325 359.368 312.215L358.836 312.242ZM251.941 11.0339C311.72 46.4702 359.954 180.365 359.858 311.029C440.081 300.126 492.853 278.114 497.637 253.432C499.859 241.983 491.272 230.384 472.805 219.903L472.559 219.754V219.454C472.559 186.116 466.331 154.701 453.887 126.079C442.337 99.0916 424.914 75.0195 402.886 55.6155C361.889 19.6886 308.299 3.87853 251.941 11.0339Z" fill="white"/>
<path d="M344.675 183.254L344.539 182.232C414.049 172.896 459.789 153.828 463.932 132.498C465.84 122.658 458.48 112.668 442.534 103.631L443.038 102.732C459.393 112.014 466.93 122.372 464.927 132.716C460.715 154.469 414.635 173.85 344.675 183.254Z" fill="white"/>
<path d="M305.573 75.2416L305.436 74.233C345.943 68.7813 372.602 57.7143 374.946 45.3388C376.036 39.6827 371.757 33.9311 362.543 28.6974L363.047 27.8115C372.67 33.2633 377.14 39.4101 375.941 45.5297C373.515 58.3549 346.529 69.7354 305.573 75.2416Z" fill="white"/>
<path d="M457.54 288.009H456.518C456.763 156.609 364.247 32.4456 250.292 11.252L250.469 10.2434C364.888 31.4779 457.785 156.132 457.54 288.009Z" fill="white"/>
<path d="M498.332 254.999H497.31C497.555 123.639 386.776 14.3185 250.374 11.3064V10.2842C387.349 13.2554 498.578 123.04 498.332 254.999Z" fill="white"/>
<path d="M249.079 498.528H248.03L244.309 498.46H242.646C241.133 498.46 239.007 498.351 237.194 498.242C226.92 497.713 216.687 496.553 206.556 494.766C188.06 491.498 169.998 486.13 152.72 478.765C144.015 474.996 135.508 470.783 127.233 466.145C119.613 461.902 112.258 457.2 105.208 452.066C104.008 451.152 102.714 450.185 101.364 449.19C96.7985 445.783 91.6194 441.925 87.8577 438.464C86.6038 437.319 85.2272 436.065 83.7689 434.77C80.5387 431.867 77.1859 428.855 74.5418 426.197C69.9078 421.536 64.0472 415.212 59.972 410.469C54.2068 403.763 46.9969 393.841 37.9062 380.157C34.0978 374.103 30.5952 367.862 27.4116 361.458C24.141 355.193 21.2243 348.75 18.6752 342.159C14.1753 329.959 10.2906 317.54 7.03572 304.951C4.56881 294.524 2.83789 280.5 1.58399 269.446C1.01156 264.267 0.916151 257.711 0.848005 251.932V249.125C0.710085 241.723 1.05153 234.321 1.8702 226.964C2.11553 225.096 2.36085 223.025 2.61981 220.871C3.17861 216.115 3.76468 211.194 4.4734 207.146C5.6319 200.55 7.48548 192.032 9.09374 185.953C10.6475 180.079 12.9509 172.569 14.8317 167.281C16.4263 162.769 18.7433 157.195 20.7877 152.288L22.8594 147.246C25.7789 140.418 29.1435 133.788 32.9315 127.401C38.2196 118.474 46.4245 106.221 53.8252 96.1765C58.4206 90.0275 63.4297 84.1989 68.8175 78.7309L72.5247 74.9965C75.4959 71.9844 78.8759 68.5498 81.7381 66.0011C87.0672 61.2581 94.7541 54.9068 101.323 49.8095C106.012 46.1704 112.609 41.8499 115.225 40.1599C119.069 37.6794 124.234 34.7082 128.391 32.2549L129.618 31.5462C137.916 26.8192 146.532 22.6749 155.405 19.1435C163.01 16.1859 168.775 14.0733 173 12.6968C178.534 10.9113 186.043 8.86694 191.223 7.5449C197.737 5.89575 206.215 4.36926 208.614 3.93312C214.065 2.97907 218.563 2.44752 223.306 1.90235C225.037 1.69791 231.729 1.07096 235.341 0.893782C240.274 0.648454 244.527 0.430383 251.791 0.471271C263.28 0.591097 274.747 1.50187 286.11 3.19714C291.63 3.98764 298.036 5.21428 300.993 5.84123C305.232 6.7544 311.474 8.29451 317.73 9.93003C321.274 10.8841 326.235 12.4378 330.065 13.7871C335.748 15.8043 342.413 18.353 347.074 20.302C355.252 23.7093 365.637 29.2564 372.547 32.9227C374.128 33.8222 375.696 34.749 377.249 35.6486C382.101 38.5244 387.73 41.9862 391.914 45.0937C393.141 46.0069 394.504 47.0018 395.921 48.024C399.165 50.3955 402.845 53.0805 405.653 55.3702C411.306 59.8297 416.729 64.5743 421.899 69.5856C423.112 70.8395 424.461 72.2025 425.879 73.6744C428.973 76.7819 432.176 79.9848 434.683 82.7924C439.372 88.0397 444.715 94.4864 448.313 99.1476C451.911 103.809 456.272 110.051 459.148 114.576C460.729 117.043 466.194 125.684 469.874 132.798C476.221 144.68 481.586 157.06 485.916 169.816C490.441 183.104 494.094 200.891 495.456 207.91C496.724 214.438 497.61 223.297 498.182 229.58C498.55 234.078 498.7 239.748 498.823 244.763C498.823 246.563 498.918 248.293 498.973 249.874C499.117 258.194 498.689 266.514 497.692 274.775C496.847 281.767 495.92 288.991 494.87 294.538C493.644 301.094 491.695 309.598 490.018 315.677C488.424 321.51 486.039 328.965 484.103 334.254C482.4 338.86 480.014 344.544 477.82 349.559L475.844 354.207C473.239 360.034 470.323 365.717 467.108 371.23C464.518 375.769 460.961 381.329 457.826 386.222L455.523 389.929C451.154 396.47 446.403 402.746 441.294 408.724C433.498 418.006 425.068 426.736 416.066 434.852C410.614 439.595 402.818 445.919 396.112 450.989C392.391 453.797 387.28 457.108 383.178 459.766L382.21 460.393C373.19 466.036 363.831 471.12 354.188 475.617C350.795 477.116 342.154 480.892 335.435 483.372C330.405 485.226 323.168 487.57 317.307 489.206C308.697 491.623 299.967 493.593 291.153 495.107C284.556 496.225 280.835 496.647 276.515 497.138C273.993 497.424 267.819 497.969 264.48 498.133C259.737 498.378 256.671 498.528 253.4 498.542H249.079V498.528ZM250.129 1.49347C243.914 1.49347 239.975 1.68428 235.463 1.91598C231.865 2.09316 225.214 2.70648 223.497 2.91092C218.754 3.46973 214.283 3.98764 208.859 4.94169C202.385 6.08656 195.911 7.42223 191.55 8.53983C186.384 9.90277 178.902 11.8927 173.382 13.6781C169.17 15.041 163.432 17.1399 155.841 20.0975C147.019 23.5815 138.452 27.6804 130.204 32.3639L128.977 33.0726C124.889 35.485 119.669 38.5244 115.839 40.9504C113.235 42.6268 106.68 46.9337 102.019 50.4909C95.4628 55.5747 87.8031 61.9123 82.4877 66.6417C79.6528 69.1631 76.2864 72.5841 73.3152 75.5962L69.608 79.3306C64.2384 84.7574 59.2518 90.5502 54.6839 96.6671C47.2831 106.685 39.1055 118.897 33.831 127.81C30.0839 134.177 26.7602 140.783 23.8816 147.586C23.241 149.154 22.5186 150.857 21.7963 152.629C19.7655 157.536 17.4485 163.096 15.8539 167.621C13.9867 172.896 11.7651 180.351 10.1432 186.212C8.52132 192.072 6.70862 200.754 5.55013 207.324C4.84141 211.344 4.25534 216.251 3.69654 220.953C3.45121 223.106 3.20587 225.178 2.96054 227.059C2.14135 234.366 1.7999 241.719 1.93836 249.07V251.878C2.02013 257.63 2.11553 264.144 2.68796 269.283C3.9146 280.322 5.6319 294.306 8.1397 304.719C11.3809 317.274 15.2566 329.656 19.7519 341.818C22.2853 348.372 25.1838 354.778 28.4338 361.008C31.5941 367.376 35.074 373.581 38.8602 379.598C45.5995 390.089 52.9445 400.179 60.858 409.815C64.9468 414.544 70.7529 420.854 75.3732 425.502C78.0037 428.133 81.3292 431.131 84.5594 434.034C86.0041 435.329 87.3943 436.569 88.6482 437.714C92.3826 441.148 97.5481 444.992 102.087 448.386C103.45 449.381 104.731 450.348 105.93 451.261C112.942 456.364 120.256 461.039 127.833 465.259C136.077 469.881 144.552 474.08 153.224 477.839C179.915 489.201 208.4 495.766 237.371 497.233C239.13 497.342 241.242 497.424 242.755 497.451H244.404L248.111 497.519C249.229 497.519 250.592 497.519 251.859 497.519H253.481C256.725 497.519 259.792 497.356 264.385 497.124C267.792 496.947 273.925 496.402 276.447 496.116C280.74 495.625 284.461 495.202 291.017 494.098C299.8 492.597 308.498 490.636 317.076 488.224C322.868 486.602 330.119 484.258 335.121 482.418C341.827 479.951 350.427 476.19 353.82 474.677C363.409 470.203 372.717 465.151 381.692 459.548L382.66 458.908C386.749 456.263 391.846 452.952 395.54 450.171C402.232 445.115 410.041 438.804 415.439 434.089C424.402 426 432.794 417.302 440.558 408.056C445.641 402.115 450.365 395.875 454.705 389.371L457.049 385.691C460.17 380.811 463.714 375.278 466.303 370.699C469.504 365.228 472.411 359.591 475.013 353.812L476.989 349.151C479.129 344.149 481.555 338.479 483.245 333.899C485.18 328.638 487.551 321.21 489.146 315.404C490.809 309.339 492.758 300.889 493.985 294.361C495.007 288.827 495.934 281.617 496.779 274.653C497.775 266.446 498.203 258.181 498.06 249.915C498.06 248.321 497.964 246.59 497.91 244.777C497.787 239.789 497.651 234.133 497.283 229.662C496.765 223.406 495.92 214.588 494.557 208.114C493.194 201.095 489.5 183.377 485.016 170.143C480.71 157.422 475.373 145.073 469.056 133.221C465.39 126.147 459.952 117.547 458.371 115.08C455.509 110.61 451.27 104.586 447.577 99.7337C443.883 94.8817 438.69 88.6122 433.947 83.3785C431.453 80.6526 428.264 77.3952 425.184 74.3014C423.821 72.9384 422.458 71.5755 421.19 70.2126C416.05 65.2211 410.654 60.4991 405.026 56.0653L404.685 55.7791C447.631 93.9412 472.682 151.103 473.513 215.638C473.513 216.728 473.513 217.832 473.513 218.936V219.413C473.336 351.358 372.793 472.142 249.57 488.715L249.433 487.706C372.22 471.188 472.287 350.868 472.559 219.481V219.004C472.559 140.731 436.891 72.9657 376.786 36.4936L372.111 33.7677C365.228 30.1151 354.802 24.5816 346.733 21.1879C342.099 19.2525 335.448 16.7038 329.778 14.7003C325.976 13.3374 321.042 11.8109 317.512 10.8704C311.283 9.19404 305.055 7.65393 300.83 6.78165C297.886 6.14107 291.521 4.92806 286.028 4.13756C274.707 2.48046 263.287 1.59705 251.846 1.49347H250.129Z" fill="white"/>
<g clip-path="url(#clip0_202:5)">
<path d="M57.2088 94.458C53.1913 91.047 49.4674 87.3075 46.076 83.2787C40.9868 77.2284 34.9432 68.2178 34.9432 59.6315C34.941 55.2464 36.2458 50.9592 38.6924 47.3125C41.139 43.6657 44.6175 40.8234 48.6877 39.1452C52.7578 37.467 57.2366 37.0284 61.5573 37.8848C65.878 38.7412 69.8463 40.8542 72.9601 43.9564C75.0332 46.0107 76.6764 48.4538 77.7946 51.1445C78.9127 53.8351 79.4837 56.7197 79.4744 59.6315C79.4744 68.2178 73.4309 77.2284 68.3416 83.2787C64.9502 87.3075 61.2263 91.047 57.2088 94.458ZM57.2088 50.1333C54.678 50.1333 52.2509 51.134 50.4613 52.9153C48.6718 54.6965 47.6664 57.1124 47.6664 59.6315C47.6664 62.1505 48.6718 64.5664 50.4613 66.3477C52.2509 68.1289 54.678 69.1296 57.2088 69.1296C59.7396 69.1296 62.1668 68.1289 63.9563 66.3477C65.7458 64.5664 66.7512 62.1505 66.7512 59.6315C66.7512 57.1124 65.7458 54.6965 63.9563 52.9153C62.1668 51.134 59.7396 50.1333 57.2088 50.1333Z" fill="#ED1C24"/>
</g>
<g clip-path="url(#clip1_202:5)">
<path d="M458.209 222.458C454.191 219.047 450.467 215.308 447.076 211.279C441.987 205.228 435.943 196.218 435.943 187.631C435.941 183.246 437.246 178.959 439.692 175.312C442.139 171.666 445.618 168.823 449.688 167.145C453.758 165.467 458.237 165.028 462.557 165.885C466.878 166.741 470.846 168.854 473.96 171.956C476.033 174.011 477.676 176.454 478.795 179.144C479.913 181.835 480.484 184.72 480.474 187.631C480.474 196.218 474.431 205.228 469.342 211.279C465.95 215.308 462.226 219.047 458.209 222.458ZM458.209 178.133C455.678 178.133 453.251 179.134 451.461 180.915C449.672 182.697 448.666 185.112 448.666 187.631C448.666 190.151 449.672 192.566 451.461 194.348C453.251 196.129 455.678 197.13 458.209 197.13C460.74 197.13 463.167 196.129 464.956 194.348C466.746 192.566 467.751 190.151 467.751 187.631C467.751 185.112 466.746 182.697 464.956 180.915C463.167 179.134 460.74 178.133 458.209 178.133Z" fill="#ED1C24"/>
</g>
<g clip-path="url(#clip2_202:5)">
<path d="M222.209 301.458C218.191 298.047 214.467 294.308 211.076 290.279C205.987 284.228 199.943 275.218 199.943 266.631C199.941 262.246 201.246 257.959 203.692 254.312C206.139 250.666 209.618 247.823 213.688 246.145C217.758 244.467 222.237 244.028 226.557 244.885C230.878 245.741 234.846 247.854 237.96 250.956C240.033 253.011 241.676 255.454 242.795 258.144C243.913 260.835 244.484 263.72 244.474 266.631C244.474 275.218 238.431 284.228 233.342 290.279C229.95 294.308 226.226 298.047 222.209 301.458ZM222.209 257.133C219.678 257.133 217.251 258.134 215.461 259.915C213.672 261.697 212.666 264.112 212.666 266.631C212.666 269.151 213.672 271.566 215.461 273.348C217.251 275.129 219.678 276.13 222.209 276.13C224.74 276.13 227.167 275.129 228.956 273.348C230.746 271.566 231.751 269.151 231.751 266.631C231.751 264.112 230.746 261.697 228.956 259.915C227.167 258.134 224.74 257.133 222.209 257.133Z" fill="#ED1C24"/>
</g>
<g clip-path="url(#clip3_202:5)">
<path d="M332.209 122.458C328.191 119.047 324.467 115.308 321.076 111.279C315.987 105.228 309.943 96.2178 309.943 87.6315C309.941 83.2464 311.246 78.9592 313.692 75.3125C316.139 71.6657 319.618 68.8234 323.688 67.1452C327.758 65.467 332.237 65.0284 336.557 65.8848C340.878 66.7412 344.846 68.8542 347.96 71.9564C350.033 74.0107 351.676 76.4538 352.795 79.1445C353.913 81.8351 354.484 84.7197 354.474 87.6315C354.474 96.2178 348.431 105.228 343.342 111.279C339.95 115.308 336.226 119.047 332.209 122.458ZM332.209 78.1333C329.678 78.1333 327.251 79.134 325.461 80.9153C323.672 82.6965 322.666 85.1124 322.666 87.6315C322.666 90.1505 323.672 92.5664 325.461 94.3477C327.251 96.1289 329.678 97.1296 332.209 97.1296C334.74 97.1296 337.167 96.1289 338.956 94.3477C340.746 92.5664 341.751 90.1505 341.751 87.6315C341.751 85.1124 340.746 82.6965 338.956 80.9153C337.167 79.134 334.74 78.1333 332.209 78.1333Z" fill="#ED1C24"/>
</g>
<defs>
<clipPath id="clip0_202:5">
<rect width="57" height="57" fill="white" transform="translate(27.8182 37.458)"/>
</clipPath>
<clipPath id="clip1_202:5">
<rect width="57" height="57" fill="white" transform="translate(428.818 165.458)"/>
</clipPath>
<clipPath id="clip2_202:5">
<rect width="57" height="57" fill="white" transform="translate(192.818 244.458)"/>
</clipPath>
<clipPath id="clip3_202:5">
<rect width="57" height="57" fill="white" transform="translate(302.818 65.458)"/>
</clipPath>
</defs>
</svg>
