<svg width="505" height="200" viewBox="0 0 505 200" fill="none" xmlns="http://www.w3.org/2000/svg">
<g opacity="0.5">
<mask id="mask0_80:110" style="mask-type:alpha" maskUnits="userSpaceOnUse" x="0" y="0" width="505" height="200">
<rect width="505" height="200" rx="10" fill="#E8F2FA"/>
</mask>
<g mask="url(#mask0_80:110)">
<rect x="45.5" y="123.5" width="126.472" height="93.5705" rx="9.5" fill="#E8F2FA" stroke="#91C2EA"/>
<path d="M46.2012 142.235L172 142" stroke="#91C2EA"/>
<rect x="91.2173" y="160.366" width="34.2667" height="34.2636" rx="17.1318" fill="#91C2EA" stroke="#91C2EA"/>
<path d="M103.14 170.518L116.198 177.498L103.14 184.478L103.14 170.518Z" fill="#E8F2FA" stroke="#91C2EA"/>
<path d="M60.9264 133.925C60.9264 135.443 59.6962 136.673 58.1786 136.673C56.661 136.673 55.4308 135.443 55.4308 133.925C55.4308 132.408 56.661 131.178 58.1786 131.178C59.6962 131.178 60.9264 132.408 60.9264 133.925Z" fill="#91C2EA" stroke="#91C2EA"/>
<path d="M69.6618 133.925C69.6618 135.443 68.4316 136.673 66.914 136.673C65.3964 136.673 64.1662 135.443 64.1662 133.925C64.1662 132.408 65.3964 131.178 66.914 131.178C68.4316 131.178 69.6618 132.408 69.6618 133.925Z" fill="#91C2EA" stroke="#91C2EA"/>
<path d="M78.3971 133.925C78.3971 135.443 77.1669 136.673 75.6493 136.673C74.1316 136.673 72.9015 135.443 72.9015 133.925C72.9015 132.408 74.1316 131.178 75.6493 131.178C77.1669 131.178 78.3971 132.408 78.3971 133.925Z" fill="#91C2EA" stroke="#91C2EA"/>
<rect x="40.5" y="117.5" width="126.472" height="93.5705" rx="9.5" fill="#E8F2FA" stroke="#91C2EA"/>
<path d="M41.2012 136.235L167 136" stroke="#91C2EA"/>
<rect x="86.2173" y="154.366" width="34.2667" height="34.2636" rx="17.1318" fill="#91C2EA" stroke="#91C2EA"/>
<path d="M98.1401 164.518L111.198 171.498L98.1401 178.478L98.1401 164.518Z" fill="#E8F2FA" stroke="#91C2EA"/>
<path d="M55.9264 127.925C55.9264 129.443 54.6962 130.673 53.1786 130.673C51.661 130.673 50.4308 129.443 50.4308 127.925C50.4308 126.408 51.661 125.178 53.1786 125.178C54.6962 125.178 55.9264 126.408 55.9264 127.925Z" fill="#91C2EA" stroke="#91C2EA"/>
<path d="M64.6618 127.925C64.6618 129.443 63.4316 130.673 61.914 130.673C60.3964 130.673 59.1662 129.443 59.1662 127.925C59.1662 126.408 60.3964 125.178 61.914 125.178C63.4316 125.178 64.6618 126.408 64.6618 127.925Z" fill="#91C2EA" stroke="#91C2EA"/>
<path d="M73.3971 127.925C73.3971 129.443 72.1669 130.673 70.6493 130.673C69.1316 130.673 67.9015 129.443 67.9015 127.925C67.9015 126.408 69.1316 125.178 70.6493 125.178C72.1669 125.178 73.3971 126.408 73.3971 127.925Z" fill="#91C2EA" stroke="#91C2EA"/>
<rect x="35.5" y="113.5" width="126.472" height="93.5705" rx="9.5" fill="#E8F2FA" stroke="#91C2EA"/>
<path d="M36.2012 132.235L162 132" stroke="#91C2EA"/>
<rect x="81.2173" y="150.366" width="34.2667" height="34.2636" rx="17.1318" fill="#91C2EA" stroke="#91C2EA"/>
<path d="M93.1401 160.518L106.198 167.498L93.1401 174.478L93.1401 160.518Z" fill="#E8F2FA" stroke="#91C2EA"/>
<path d="M50.9264 123.925C50.9264 125.443 49.6962 126.673 48.1786 126.673C46.661 126.673 45.4308 125.443 45.4308 123.925C45.4308 122.408 46.661 121.178 48.1786 121.178C49.6962 121.178 50.9264 122.408 50.9264 123.925Z" fill="#91C2EA" stroke="#91C2EA"/>
<path d="M59.6618 123.925C59.6618 125.443 58.4316 126.673 56.914 126.673C55.3964 126.673 54.1662 125.443 54.1662 123.925C54.1662 122.408 55.3964 121.178 56.914 121.178C58.4316 121.178 59.6618 122.408 59.6618 123.925Z" fill="#91C2EA" stroke="#91C2EA"/>
<path d="M68.3971 123.925C68.3971 125.443 67.1669 126.673 65.6493 126.673C64.1316 126.673 62.9015 125.443 62.9015 123.925C62.9015 122.408 64.1316 121.178 65.6493 121.178C67.1669 121.178 68.3971 122.408 68.3971 123.925Z" fill="#91C2EA" stroke="#91C2EA"/>
<rect x="420" y="85" width="127.472" height="95.5705" rx="10" fill="#E8F2FA"/>
<rect x="420.5" y="85.5" width="126.472" height="94.5705" rx="9.5" stroke="#91C2EA" stroke-opacity="0.4"/>
<path d="M421.201 104.438H546.268" stroke="#91C2EA" stroke-opacity="0.4"/>
<rect x="465.717" y="122.256" width="35.2667" height="35.6365" rx="17.6334" fill="#91C2EA"/>
<rect x="466.217" y="122.756" width="34.2667" height="34.6365" rx="17.1334" stroke="#91C2EA" stroke-opacity="0.4"/>
<path d="M492.259 140.074L477.64 147.971L477.64 132.178L492.259 140.074Z" fill="#E8F2FA"/>
<path d="M478.14 133.016L491.207 140.074L478.14 147.133L478.14 133.016Z" stroke="#91C2EA" stroke-opacity="0.4"/>
<ellipse cx="433.179" cy="96.0409" rx="3.2478" ry="3.28185" fill="#91C2EA"/>
<path d="M435.926 96.0409C435.926 97.5822 434.691 98.8227 433.179 98.8227C431.666 98.8227 430.431 97.5822 430.431 96.0409C430.431 94.4996 431.666 93.259 433.179 93.259C434.691 93.259 435.926 94.4996 435.926 96.0409Z" stroke="#91C2EA" stroke-opacity="0.4"/>
<ellipse cx="441.914" cy="96.0409" rx="3.2478" ry="3.28185" fill="#91C2EA"/>
<path d="M444.662 96.0409C444.662 97.5822 443.427 98.8227 441.914 98.8227C440.401 98.8227 439.166 97.5822 439.166 96.0409C439.166 94.4996 440.401 93.259 441.914 93.259C443.427 93.259 444.662 94.4996 444.662 96.0409Z" stroke="#91C2EA" stroke-opacity="0.4"/>
<ellipse cx="450.649" cy="96.0409" rx="3.2478" ry="3.28185" fill="#91C2EA"/>
<path d="M453.397 96.0409C453.397 97.5822 452.162 98.8227 450.649 98.8227C449.137 98.8227 447.901 97.5822 447.901 96.0409C447.901 94.4996 449.137 93.259 450.649 93.259C452.162 93.259 453.397 94.4996 453.397 96.0409Z" stroke="#91C2EA" stroke-opacity="0.4"/>
<rect x="427" y="79" width="127.472" height="95.5705" rx="10" fill="#E8F2FA"/>
<rect x="427.5" y="79.5" width="126.472" height="94.5705" rx="9.5" stroke="#91C2EA" stroke-opacity="0.8"/>
<path d="M428.201 98.4382H553.268" stroke="#91C2EA" stroke-opacity="0.8"/>
<rect x="472.717" y="116.256" width="35.2667" height="35.6365" rx="17.6334" fill="#91C2EA"/>
<rect x="473.217" y="116.756" width="34.2667" height="34.6365" rx="17.1334" stroke="#91C2EA" stroke-opacity="0.8"/>
<path d="M499.259 134.074L484.64 141.971L484.64 126.178L499.259 134.074Z" fill="#E8F2FA"/>
<path d="M485.14 127.016L498.207 134.074L485.14 141.133L485.14 127.016Z" stroke="#91C2EA" stroke-opacity="0.8"/>
<ellipse cx="440.179" cy="90.0409" rx="3.2478" ry="3.28185" fill="#91C2EA"/>
<path d="M442.926 90.0409C442.926 91.5822 441.691 92.8227 440.179 92.8227C438.666 92.8227 437.431 91.5822 437.431 90.0409C437.431 88.4996 438.666 87.259 440.179 87.259C441.691 87.259 442.926 88.4996 442.926 90.0409Z" stroke="#91C2EA" stroke-opacity="0.8"/>
<ellipse cx="448.914" cy="90.0409" rx="3.2478" ry="3.28185" fill="#91C2EA"/>
<path d="M451.662 90.0409C451.662 91.5822 450.427 92.8227 448.914 92.8227C447.401 92.8227 446.166 91.5822 446.166 90.0409C446.166 88.4996 447.401 87.259 448.914 87.259C450.427 87.259 451.662 88.4996 451.662 90.0409Z" stroke="#91C2EA" stroke-opacity="0.8"/>
<ellipse cx="457.649" cy="90.0409" rx="3.2478" ry="3.28185" fill="#91C2EA"/>
<path d="M460.397 90.0409C460.397 91.5822 459.162 92.8227 457.649 92.8227C456.137 92.8227 454.901 91.5822 454.901 90.0409C454.901 88.4996 456.137 87.259 457.649 87.259C459.162 87.259 460.397 88.4996 460.397 90.0409Z" stroke="#91C2EA" stroke-opacity="0.8"/>
<rect x="434.5" y="73.5" width="126.472" height="93.5705" rx="9.5" fill="#E8F2FA" stroke="#91C2EA"/>
<path d="M435.201 88.2349H560.268" stroke="#91C2EA"/>
<rect x="480.217" y="110.366" width="34.2667" height="34.2636" rx="17.1318" fill="#E8F2FA" stroke="#91C2EA"/>
<path d="M492.14 120.518L505.198 127.498L492.14 134.478L492.14 120.518Z" fill="#91C2EA" stroke="#91C2EA"/>
<path d="M449.926 80.9252C449.926 82.4426 448.696 83.6728 447.179 83.6728C445.661 83.6728 444.431 82.4426 444.431 80.9252C444.431 79.4079 445.661 78.1777 447.179 78.1777C448.696 78.1777 449.926 79.4079 449.926 80.9252Z" fill="#91C2EA" stroke="#91C2EA"/>
<path d="M458.662 80.9252C458.662 82.4426 457.432 83.6728 455.914 83.6728C454.396 83.6728 453.166 82.4426 453.166 80.9252C453.166 79.4079 454.396 78.1777 455.914 78.1777C457.432 78.1777 458.662 79.4079 458.662 80.9252Z" fill="#91C2EA" stroke="#91C2EA"/>
<path d="M467.397 80.9252C467.397 82.4426 466.167 83.6728 464.649 83.6728C463.132 83.6728 461.901 82.4426 461.901 80.9252C461.901 79.4079 463.132 78.1777 464.649 78.1777C466.167 78.1777 467.397 79.4079 467.397 80.9252Z" fill="#91C2EA" stroke="#91C2EA"/>
<path d="M79 113V73C79 61.9543 87.9543 53 99 53H239.614C250.66 53 259.614 44.0457 259.614 33V31C259.614 19.9543 268.568 11 279.614 11H505" stroke="#91C2EA"/>
<rect x="411.5" y="-8.5" width="49.8596" height="48.2223" rx="9.5" fill="#E8F2FA" stroke="#91C2EA"/>
<path d="M431.655 7.65392C431.655 6.3877 432.158 5.17335 433.054 4.27799C433.949 3.38264 435.164 2.87964 436.43 2.87964C437.696 2.87964 438.911 3.38264 439.806 4.27799C440.702 5.17335 441.205 6.3877 441.205 7.65392V15.6111C441.205 16.8773 440.702 18.0916 439.806 18.987C438.911 19.8823 437.696 20.3853 436.43 20.3853C435.164 20.3853 433.949 19.8823 433.054 18.987C432.158 18.0916 431.655 16.8773 431.655 15.6111V7.65392Z" fill="#91C2EA"/>
<path d="M429.268 13.2236C429.479 13.2236 429.681 13.3075 429.831 13.4567C429.98 13.6059 430.064 13.8083 430.064 14.0193V15.6108C430.064 17.2991 430.734 18.9182 431.928 20.112C433.122 21.3058 434.742 21.9765 436.43 21.9765C438.118 21.9765 439.738 21.3058 440.932 20.112C442.126 18.9182 442.796 17.2991 442.796 15.6108V14.0193C442.796 13.8083 442.88 13.6059 443.029 13.4567C443.179 13.3075 443.381 13.2236 443.592 13.2236C443.803 13.2236 444.005 13.3075 444.155 13.4567C444.304 13.6059 444.388 13.8083 444.388 14.0193V15.6108C444.388 17.5834 443.655 19.4857 442.332 20.9487C441.008 22.4116 439.189 23.3309 437.226 23.5281V26.7508H442C442.212 26.7508 442.414 26.8346 442.563 26.9838C442.712 27.1331 442.796 27.3355 442.796 27.5465C442.796 27.7575 442.712 27.9599 442.563 28.1091C442.414 28.2584 442.212 28.3422 442 28.3422H430.859C430.648 28.3422 430.446 28.2584 430.297 28.1091C430.148 27.9599 430.064 27.7575 430.064 27.5465C430.064 27.3355 430.148 27.1331 430.297 26.9838C430.446 26.8346 430.648 26.7508 430.859 26.7508H435.634V23.5281C433.671 23.3309 431.852 22.4116 430.528 20.9487C429.205 19.4857 428.472 17.5834 428.472 15.6108V14.0193C428.472 13.8083 428.556 13.6059 428.705 13.4567C428.854 13.3075 429.057 13.2236 429.268 13.2236Z" fill="#91C2EA"/>
<circle cx="170.5" cy="55.5" r="27" fill="#E8F2FA" stroke="#91C2EA"/>
<path d="M172.5 190.5H262" stroke="#91C2EA"/>
<circle cx="125" cy="53" r="12.5" fill="#E8F2FA" stroke="#91C2EA"/>
<path d="M118.356 52.7112H132.222" stroke="#91C2EA"/>
<path d="M125.289 45.7778L125.289 59.6445" stroke="#91C2EA"/>
<path d="M253 177L253 100" stroke="#91C2EA"/>
<path d="M385 100L385 130C385 141.046 393.954 150 405 150L420 150" stroke="#91C2EA" stroke-opacity="0.4"/>
<path d="M176.516 49.5046C176.516 52.8208 173.827 55.5092 170.511 55.5092C167.194 55.5092 164.506 52.8208 164.506 49.5046C164.506 46.1884 167.194 43.5 170.511 43.5C173.827 43.5 176.516 46.1884 176.516 49.5046Z" fill="#E8F2FA" stroke="#91C2EA"/>
<path d="M182.51 66.517H158.712C158.983 60.407 164.192 55.5085 170.611 55.5085C177.03 55.5085 182.239 60.407 182.51 66.517Z" fill="#E8F2FA" stroke="#91C2EA"/>
<circle cx="315.5" cy="192.5" r="27" fill="#E8F2FA" stroke="#91C2EA"/>
<path d="M321.516 186.505C321.516 189.821 318.827 192.509 315.511 192.509C312.194 192.509 309.506 189.821 309.506 186.505C309.506 183.188 312.194 180.5 315.511 180.5C318.827 180.5 321.516 183.188 321.516 186.505Z" fill="#E8F2FA" stroke="#91C2EA"/>
<path d="M327.51 203.517H303.712C303.983 197.407 309.192 192.509 315.611 192.509C322.03 192.509 327.239 197.407 327.51 203.517Z" fill="#E8F2FA" stroke="#91C2EA"/>
<circle cx="253.5" cy="192.5" r="27" fill="#E8F2FA" stroke="#91C2EA"/>
<path d="M259.516 186.505C259.516 189.821 256.827 192.509 253.511 192.509C250.194 192.509 247.506 189.821 247.506 186.505C247.506 183.188 250.194 180.5 253.511 180.5C256.827 180.5 259.516 183.188 259.516 186.505Z" fill="#E8F2FA" stroke="#91C2EA"/>
<path d="M265.51 203.517H241.712C241.983 197.407 247.192 192.509 253.611 192.509C260.03 192.509 265.239 197.407 265.51 203.517Z" fill="#E8F2FA" stroke="#91C2EA"/>
</g>
</g>
</svg>
