<svg width="32" height="32" viewBox="0 0 32 32" fill="none" xmlns="http://www.w3.org/2000/svg">
<mask id="mask0_37:230" style="mask-type:alpha" maskUnits="userSpaceOnUse" x="0" y="0" width="32" height="32">
<path d="M32 16C32 24.8366 24.8366 32 16 32C7.16344 32 0 24.8366 0 16C0 7.16344 7.16344 0 16 0C24.8366 0 32 7.16344 32 16Z" fill="#C4C4C4"/>
</mask>
<g mask="url(#mask0_37:230)">
<path d="M47 32L47 5.72205e-06L-14 3.89256e-07L-14 32L47 32Z" fill="#012169"/>
<path d="M47 32L-14 3.89256e-07L47 32ZM-14 32L47 5.72205e-06L-14 32Z" fill="black"/>
<path fill-rule="evenodd" clip-rule="evenodd" d="M24.7608 16L49 28.2955L45.6957 35L16.5 20.1903L-12.6957 35L-16 28.2954L8.23918 16L-16 3.70455L-12.6957 -3L16.5 11.8097L45.6957 -3L49 3.70456L24.7608 16Z" fill="white"/>
<path d="M47 32L-14 3.89256e-07L47 32ZM-14 32L47 5.72205e-06L-14 32Z" fill="black"/>
<path fill-rule="evenodd" clip-rule="evenodd" d="M21.516 16.5L48 29.6259L45.7936 34L16 19.2338L-13.7936 34L-16 29.6259L10.484 16.5L-16 3.37408L-13.7936 -1L16 13.7662L45.7936 -0.999996L48 3.37408L21.516 16.5Z" fill="#C8102E"/>
<path d="M16.5 32L16.5 3.05565e-06L16.5 32ZM47 16L-14 16L47 16Z" fill="black"/>
<path fill-rule="evenodd" clip-rule="evenodd" d="M10.4122 9.61278L10.4122 2.52344e-06L22.5878 3.58787e-06L22.5878 9.61278L47 9.61278L47 22.3872L22.5878 22.3872L22.5878 32L10.4122 32L10.4122 22.3872L-14 22.3872L-14 9.61277L10.4122 9.61278Z" fill="white"/>
<path d="M16.5 32L16.5 3.05565e-06L16.5 32ZM47 16L-14 16L47 16Z" fill="black"/>
<path fill-rule="evenodd" clip-rule="evenodd" d="M12.8473 12.1677L12.8473 2.73632e-06L20.1527 3.37498e-06L20.1527 12.1677L47 12.1677L47 19.8323L20.1527 19.8323L20.1527 32L12.8473 32L12.8473 19.8323L-14 19.8323L-14 12.1677L12.8473 12.1677Z" fill="#C8102E"/>
</g>
</svg>
