<svg width="32" height="32" viewBox="0 0 32 32" fill="none" xmlns="http://www.w3.org/2000/svg">
<path d="M16.5 32C14.2445 30.085 12.1539 27.9857 10.25 25.7239C7.39285 22.3272 4 17.2687 4 12.4483C3.99876 9.98645 4.73126 7.5796 6.10481 5.53232C7.47835 3.48504 9.43118 1.88935 11.7162 0.947206C14.0012 0.00505985 16.5156 -0.241197 18.9412 0.239601C21.3669 0.720399 23.5947 1.90664 25.3428 3.6482C26.5066 4.8015 27.4291 6.1731 28.0569 7.68363C28.6846 9.19415 29.0052 10.8136 28.9999 12.4483C28.9999 17.2687 25.6071 22.3272 22.75 25.7239C20.846 27.9857 18.7554 30.085 16.5 32ZM16.5 7.11596C15.0792 7.11596 13.7166 7.67776 12.7119 8.67776C11.7072 9.67776 11.1428 11.034 11.1428 12.4483C11.1428 13.8625 11.7072 15.2188 12.7119 16.2188C13.7166 17.2188 15.0792 17.7806 16.5 17.7806C17.9208 17.7806 19.2834 17.2188 20.288 16.2188C21.2927 15.2188 21.8571 13.8625 21.8571 12.4483C21.8571 11.034 21.2927 9.67776 20.288 8.67776C19.2834 7.67776 17.9208 7.11596 16.5 7.11596Z" fill="#2D2D2D"/>
</svg>
