<svg width="14" height="13" viewBox="0 0 14 13" fill="none" xmlns="http://www.w3.org/2000/svg">
<path fill-rule="evenodd" clip-rule="evenodd" d="M13.1923 6.5C13.1923 6.92864 12.8448 7.27612 12.4162 7.27612L0.968441 7.27612C0.539802 7.27612 0.192322 6.92863 0.192322 6.5C0.192322 6.07136 0.539802 5.72388 0.968441 5.72388L12.4162 5.72388C12.8448 5.72388 13.1923 6.07136 13.1923 6.5Z" fill="#0070CC"/>
<path fill-rule="evenodd" clip-rule="evenodd" d="M6.69233 13C6.26369 13 5.91621 12.6525 5.91621 12.2239L5.91621 0.776119C5.91621 0.34748 6.26369 -1.05323e-07 6.69233 -6.78505e-08C7.12097 -3.03777e-08 7.46845 0.34748 7.46845 0.776119L7.46844 12.2239C7.46844 12.6525 7.12096 13 6.69233 13Z" fill="#0070CC"/>
</svg>
