<svg xmlns="http://www.w3.org/2000/svg" width="155" height="53" fill="none"><path d="M15.68 50.542c2.394 0 4.335-11.061 4.335-24.706S18.074 1.129 15.679 1.129c-2.394 0-4.335 11.062-4.335 24.707 0 13.645 1.941 24.706 4.335 24.706Z" fill="#38D430"/><path d="M10.215 46.681c1.509 0 2.732-9.333 2.732-20.846 0-11.514-1.223-20.847-2.732-20.847-1.509 0-2.732 9.334-2.732 20.847 0 11.513 1.223 20.846 2.732 20.846Z" fill="#38D430"/><path d="M6.77 41.694c1.149 0 2.08-7.1 2.08-15.858 0-8.758-.931-15.857-2.08-15.857-1.147 0-2.078 7.1-2.078 15.857 0 8.758.93 15.858 2.079 15.858Zm-5.226-3.92c.853 0 1.544-5.345 1.544-11.938 0-6.593-.691-11.938-1.544-11.938C.691 13.898 0 19.243 0 25.836c0 6.593.691 11.938 1.544 11.938ZM28.686 1.129c-1.129 6.295-2.138 11.819-3.148 17.877.356 2.197.772 4.454 1.188 6.83-.416 2.375-.772 4.632-1.188 6.83 1.01 5.998 2.02 11.581 3.148 17.877a464.377 464.377 0 0 0 1.782-10.038v-29.28A462.695 462.695 0 0 0 28.686 1.13Z" fill="#38D430"/><path d="M25.538 19.005C24.41 12.591 23.4 6.652 22.153 0c-1.604 8.968-2.97 16.51-4.514 25.835 1.544 9.325 2.91 16.867 4.514 25.835 1.188-6.71 2.257-12.59 3.385-19.005.356-2.197.772-4.454 1.188-6.83-.416-2.375-.772-4.632-1.188-6.83Z" fill="#38D430"/><path d="M33.022 6.176h5.345v3.563h.179c.415-.653.89-1.188 1.366-1.722.475-.535 1.069-.95 1.663-1.366.593-.357 1.306-.654 2.138-.891.772-.238 1.722-.297 2.732-.297 1.544 0 3.029.356 4.335 1.069 1.366.713 2.316 1.782 2.851 3.207.95-1.307 2.079-2.376 3.326-3.148 1.247-.772 2.85-1.128 4.692-1.128 2.732 0 4.81.653 6.355 1.96 1.484 1.306 2.257 3.563 2.257 6.652v17.698h-5.643V16.807c0-1.01-.059-1.96-.118-2.792-.06-.831-.238-1.544-.594-2.197-.297-.594-.772-1.07-1.426-1.426-.653-.356-1.484-.475-2.553-.475-1.901 0-3.326.594-4.158 1.782-.831 1.188-1.306 2.85-1.306 5.048v15.026H48.82v-16.51c0-1.782-.297-3.148-.95-4.04-.653-.89-1.841-1.365-3.563-1.365-.713 0-1.426.178-2.139.475a5.308 5.308 0 0 0-1.781 1.307c-.535.534-.95 1.247-1.248 2.078a8.431 8.431 0 0 0-.475 2.851v15.264h-5.642V6.176Z" fill="#000"/><path d="M75.665 20.49c0 1.01.119 1.96.416 2.85a7.88 7.88 0 0 0 1.247 2.436c.535.712 1.247 1.247 2.138 1.663.832.415 1.9.593 3.089.593 1.662 0 2.97-.356 3.979-1.069 1.01-.712 1.781-1.781 2.257-3.207h5.345a11.587 11.587 0 0 1-1.544 3.742c-.713 1.069-1.604 2.02-2.614 2.732-1.01.772-2.197 1.306-3.444 1.663-1.248.356-2.614.594-3.98.594-2.019 0-3.8-.357-5.345-1.01a10.988 10.988 0 0 1-3.92-2.791 11.663 11.663 0 0 1-2.435-4.276 17.86 17.86 0 0 1-.831-5.464c0-1.842.297-3.564.89-5.168a13.58 13.58 0 0 1 2.495-4.335c1.07-1.247 2.376-2.198 3.92-2.97 1.544-.712 3.267-1.069 5.167-1.069 2.02 0 3.801.416 5.464 1.248 1.604.831 2.91 1.96 3.98 3.325 1.068 1.366 1.84 2.97 2.316 4.811a14.64 14.64 0 0 1 .356 5.583H75.665v.119Zm13.185-3.742c-.06-.89-.238-1.782-.594-2.554-.297-.831-.772-1.544-1.306-2.138-.535-.594-1.188-1.128-1.96-1.485a6.254 6.254 0 0 0-2.614-.594c-1.01 0-1.9.179-2.732.535a6.47 6.47 0 0 0-2.078 1.425 5.744 5.744 0 0 0-1.366 2.139c-.357.83-.535 1.722-.594 2.672H88.85Z" fill="#000"/><path d="M93.898 6.177h5.286v4.989h.119a5.704 5.704 0 0 1 .95-2.02c.475-.653 1.069-1.247 1.723-1.84.653-.535 1.425-1.01 2.257-1.307.831-.357 1.662-.476 2.553-.476.654 0 1.129 0 1.366.06.238.06.475.06.772.119v5.464c-.415-.06-.831-.12-1.187-.179-.416-.059-.832-.059-1.188-.059-.95 0-1.841.178-2.732.594a5.999 5.999 0 0 0-2.198 1.663c-.653.772-1.128 1.663-1.484 2.732-.357 1.069-.535 2.376-.535 3.801v12.235h-5.642l-.06-25.776Z" fill="#000"/><path d="M130.127 30.467c0 3.86-1.069 6.771-3.266 8.672-2.198 1.9-5.286 2.85-9.384 2.85-1.307 0-2.613-.118-3.92-.415a10.351 10.351 0 0 1-3.564-1.366c-1.069-.654-1.959-1.485-2.731-2.495-.713-1.01-1.188-2.257-1.307-3.8h5.642c.178.771.475 1.425.832 1.96.415.474.89.89 1.425 1.187.534.297 1.128.475 1.841.534.653.06 1.366.12 2.079.12 2.257 0 3.979-.535 4.989-1.664 1.069-1.128 1.603-2.732 1.603-4.87v-3.92h-.119a8.38 8.38 0 0 1-3.266 3.326 8.927 8.927 0 0 1-4.454 1.188c-2.079 0-3.802-.356-5.227-1.069-1.425-.713-2.613-1.663-3.563-2.91-.951-1.247-1.604-2.673-2.079-4.276a20.98 20.98 0 0 1-.653-5.227c0-1.722.237-3.385.772-4.93a13.679 13.679 0 0 1 2.257-4.097c1.009-1.188 2.197-2.138 3.622-2.792 1.426-.712 3.089-1.069 4.871-1.069 1.603 0 3.088.357 4.454 1.01 1.366.653 2.376 1.722 3.148 3.207h.118V6.117h5.643v24.35h.237Zm-12.591-3.088c1.247 0 2.316-.238 3.207-.772s1.604-1.188 2.138-2.02a8.74 8.74 0 0 0 1.188-2.85 14.86 14.86 0 0 0 .357-3.267c0-1.128-.119-2.138-.416-3.147-.238-1.01-.653-1.96-1.188-2.732a6.026 6.026 0 0 0-2.138-1.9c-.891-.476-1.901-.714-3.148-.714s-2.316.238-3.148.772c-.831.535-1.544 1.188-2.078 2.08-.535.83-.891 1.781-1.129 2.85a14.779 14.779 0 0 0-.356 3.207c0 1.07.119 2.079.416 3.088.237 1.01.653 1.901 1.188 2.732.534.773 1.247 1.426 2.078 1.96.832.535 1.841.713 3.029.713Z" fill="#000"/><path d="M135.294 20.49c0 1.01.119 1.96.416 2.85.297.95.712 1.723 1.247 2.436.534.712 1.247 1.247 2.138 1.663.832.415 1.901.593 3.088.593 1.663 0 2.97-.356 3.98-1.069 1.009-.712 1.781-1.781 2.257-3.207h5.345a11.604 11.604 0 0 1-1.544 3.742c-.713 1.069-1.604 2.02-2.614 2.732-1.009.772-2.197 1.306-3.444 1.663-1.248.356-2.614.594-3.98.594-2.019 0-3.801-.357-5.345-1.01a10.99 10.99 0 0 1-3.92-2.791 11.67 11.67 0 0 1-2.435-4.276 17.874 17.874 0 0 1-.831-5.464c0-1.842.297-3.564.891-5.168a13.583 13.583 0 0 1 2.494-4.335c1.069-1.247 2.376-2.198 3.92-2.97 1.544-.712 3.267-1.069 5.167-1.069 2.019 0 3.801.416 5.464 1.248 1.604.831 2.91 1.96 3.979 3.325 1.069 1.366 1.841 2.97 2.316 4.811.476 1.782.594 3.682.357 5.583h-18.946v.119Zm13.185-3.742c-.06-.89-.238-1.782-.594-2.554-.297-.831-.772-1.544-1.307-2.138-.534-.594-1.187-1.128-1.96-1.485a6.253 6.253 0 0 0-2.613-.594c-1.009 0-1.9.179-2.732.535a6.463 6.463 0 0 0-2.078 1.425 5.745 5.745 0 0 0-1.366 2.139c-.357.83-.535 1.722-.594 2.672h13.244ZM33.794 42.88h-.772v-5.702h.772v5.701Zm5.406-1.13v-4.572h.771v5.701h-1.01l-3.028-4.692v4.692h-.773v-5.701h1.07l2.97 4.573Zm6.235 0v-4.572h.772v5.701h-1.01l-3.029-4.692v4.692h-.772v-5.701h1.07l2.969 4.573Zm7.958-1.721c0 .416-.059.831-.237 1.188-.178.356-.356.712-.654.95-.297.238-.593.475-.95.594-.356.119-.772.237-1.188.237-.415 0-.831-.059-1.187-.237a2.588 2.588 0 0 1-.95-.594c-.238-.238-.476-.594-.654-.95-.178-.356-.238-.772-.238-1.188 0-.475.06-.832.238-1.247.178-.357.356-.713.653-.95.297-.238.594-.476.95-.594.357-.12.773-.238 1.188-.238.416 0 .832.06 1.188.238.357.118.713.356.95.593.297.238.476.594.654.95.178.416.237.832.237 1.248Zm-.831 0c0-.297-.06-.594-.178-.89-.12-.298-.238-.535-.416-.714a2.638 2.638 0 0 0-.653-.475c-.238-.119-.594-.178-.891-.178-.356 0-.654.06-.891.178a2.638 2.638 0 0 0-.653.475c-.178.238-.357.476-.416.713a2.383 2.383 0 0 0-.178.891c0 .297.06.594.178.89.119.298.238.535.416.714.178.178.415.356.653.475.237.119.535.178.89.178.357 0 .654-.06.892-.178.297-.12.475-.297.712-.475.238-.179.357-.476.416-.713.06-.238.119-.535.119-.891Zm1.96-2.851h1.723c.297 0 .594.06.831.119.238.059.475.178.653.297.178.118.297.296.416.475.119.178.119.415.119.712s-.06.535-.178.713c-.12.178-.238.356-.416.475a2.196 2.196 0 0 1-.653.297c-.238.06-.535.119-.832.119h-.89v2.494h-.773v-5.701Zm.772 2.554h.832c.178 0 .356 0 .534-.06.179-.06.297-.06.416-.178.119-.119.238-.178.297-.297a.859.859 0 0 0 .119-.416.858.858 0 0 0-.119-.415.716.716 0 0 0-.297-.297 2.89 2.89 0 0 0-.416-.179c-.178 0-.356-.059-.534-.059h-.891l.06 1.9Zm9.799.297c0 .416-.06.831-.237 1.188-.178.356-.357.712-.653.95-.297.238-.595.475-.95.594-.357.119-.773.237-1.189.237-.415 0-.831-.059-1.188-.237a2.587 2.587 0 0 1-.95-.594c-.237-.238-.475-.594-.653-.95-.178-.356-.238-.772-.238-1.188 0-.475.06-.832.238-1.247.178-.357.356-.713.653-.95.297-.238.594-.476.95-.594.357-.12.773-.238 1.188-.238.416 0 .832.06 1.188.238.356.118.713.356.95.593.297.238.476.594.654.95.119.416.237.832.237 1.248Zm-.89 0c0-.297-.06-.594-.179-.89-.118-.298-.237-.535-.416-.714a2.635 2.635 0 0 0-.653-.475c-.237-.119-.594-.178-.89-.178-.357 0-.654.06-.892.178a2.636 2.636 0 0 0-.653.475c-.178.238-.356.476-.416.713a2.385 2.385 0 0 0-.178.891c0 .297.06.594.178.89.12.298.238.535.416.714.178.178.416.356.653.475.238.119.535.178.891.178.357 0 .654-.06.891-.178.297-.12.475-.297.713-.475.238-.179.356-.476.416-.713.06-.238.118-.535.118-.891Zm2.732 2.198h2.554v.713h-3.326v-5.702h.772v4.99Zm4.157.653h-.772v-5.702h.772v5.701Zm4.218-4.634c-.12-.178-.238-.297-.476-.356a1.197 1.197 0 0 0-.653-.178c-.119 0-.238 0-.416.06l-.356.178c-.12.059-.178.178-.238.296a.858.858 0 0 0-.119.416c0 .178.06.297.12.416a.457.457 0 0 0 .237.237l.356.179c.119.059.297.118.475.178s.416.119.594.178c.178.06.356.178.535.297.178.119.296.297.415.475.12.178.178.416.178.713s-.059.534-.178.772c-.119.237-.237.416-.415.534a2.199 2.199 0 0 1-.654.297c-.237.06-.475.12-.712.12a2.33 2.33 0 0 1-1.07-.239c-.356-.118-.593-.356-.83-.593l.593-.535a1.4 1.4 0 0 0 .535.475c.237.119.475.178.712.178.119 0 .297 0 .416-.059l.356-.178c.12-.06.178-.178.297-.297.06-.119.119-.297.119-.416s-.06-.297-.119-.416a.715.715 0 0 0-.297-.297c-.118-.059-.297-.178-.416-.178-.118 0-.356-.118-.534-.178l-.534-.178a1.294 1.294 0 0 1-.476-.297 3.302 3.302 0 0 1-.356-.475 2.134 2.134 0 0 1-.119-.654c0-.296.06-.534.178-.712.12-.178.238-.356.475-.535.238-.178.416-.237.654-.297.237-.059.475-.118.712-.118.357 0 .654.059.95.178.298.118.535.297.714.475l-.654.534Zm-38.546 13.84h-3.742v-.712l2.257-2.257c.178-.178.297-.357.416-.535.119-.178.178-.416.178-.653 0-.178 0-.297-.06-.416-.059-.119-.118-.237-.237-.297s-.178-.178-.297-.178c-.119-.06-.238-.06-.416-.06a.984.984 0 0 0-.712.298 1.356 1.356 0 0 0-.357.712l-.772-.118c.06-.238.119-.416.178-.594.12-.179.238-.357.416-.476.178-.118.356-.237.535-.296.237-.06.415-.12.653-.12.237 0 .475.06.653.12.238.059.416.178.594.297.178.118.297.296.416.534.119.178.178.416.178.713 0 .178 0 .356-.06.534a2.9 2.9 0 0 1-.178.416 1.812 1.812 0 0 1-.296.416c-.12.118-.238.237-.357.356l-1.84 1.782h2.79l.06.534Zm2.969-5.82c.357 0 .654.059.891.237.238.178.475.356.594.654.178.297.297.593.356.95.06.356.12.772.12 1.188 0 .415-.06.831-.12 1.187-.06.357-.178.654-.356.95a2.118 2.118 0 0 1-.594.654c-.238.178-.534.238-.89.238-.357 0-.654-.06-.892-.238-.237-.178-.475-.356-.594-.653a2.625 2.625 0 0 1-.356-.95 7.31 7.31 0 0 1-.119-1.188c0-.416.06-.832.12-1.188.059-.357.177-.713.355-.95.179-.297.357-.476.594-.654.238-.178.535-.237.891-.237Zm0 .653a.763.763 0 0 0-.594.238 1.232 1.232 0 0 0-.356.593c-.06.238-.119.475-.178.773-.06.296-.06.534-.06.772 0 .237 0 .475.06.772.06.297.119.534.178.772.06.237.178.416.356.594a.763.763 0 0 0 .594.237c.238 0 .416-.06.594-.237.119-.178.238-.357.357-.594.059-.238.118-.475.178-.772.06-.297.059-.535.059-.772 0-.238 0-.476-.06-.773-.059-.297-.118-.534-.177-.772a1.232 1.232 0 0 0-.357-.593.762.762 0 0 0-.594-.238Zm6.593 5.167h-3.742v-.712l2.257-2.257c.178-.178.297-.357.416-.535.119-.178.178-.416.178-.653 0-.178 0-.297-.06-.416-.059-.119-.118-.237-.237-.297-.118-.06-.178-.178-.297-.178-.118-.06-.237-.06-.415-.06a.984.984 0 0 0-.713.298 1.354 1.354 0 0 0-.356.712l-.773-.118a7.49 7.49 0 0 1 .179-.594c.118-.179.237-.357.415-.476.179-.118.357-.237.535-.296.237-.06.416-.12.653-.12.238 0 .475.06.654.12.237.059.415.178.593.297.179.118.297.296.416.534.119.178.178.416.178.713 0 .178 0 .356-.059.534a2.9 2.9 0 0 1-.178.416c-.06.119-.178.297-.297.416l-.357.356-1.84 1.782h2.79l.06.534Zm3.682 0h-.772v-4.751l-1.069.89-.475-.534 1.604-1.306h.712v5.701Z" fill="#000"/></svg>