<svg width="300" height="200" fill="none" xmlns="http://www.w3.org/2000/svg"><rect width="300" height="200" rx="10" fill="#F0F0F0"/><path d="M261.5 47c0 1.99-1.21 3.966-3.582 5.835-2.366 1.865-5.821 3.566-10.135 5.004C239.16 60.714 227.216 62.5 214 62.5c-13.216 0-25.16-1.786-33.783-4.66-4.314-1.439-7.769-3.14-10.135-5.005-2.372-1.87-3.582-3.845-3.582-5.835 0-1.99 1.21-3.966 3.582-5.835 2.366-1.865 5.821-3.566 10.135-5.004C188.84 33.286 200.784 31.5 214 31.5c13.216 0 25.16 1.786 33.783 4.66 4.314 1.439 7.769 3.14 10.135 5.005 2.372 1.87 3.582 3.845 3.582 5.835Z" stroke="#000"/><path d="M261.5 72c0 1.99-1.21 3.966-3.582 5.835-2.366 1.865-5.821 3.566-10.135 5.004C239.16 85.714 227.216 87.5 214 87.5c-13.216 0-25.16-1.786-33.783-4.66-4.314-1.439-7.769-3.14-10.135-5.005-2.372-1.87-3.582-3.845-3.582-5.835 0-1.99 1.21-3.966 3.582-5.835 2.366-1.865 5.821-3.566 10.135-5.004C188.84 58.286 200.784 56.5 214 56.5c13.216 0 25.16 1.786 33.783 4.66 4.314 1.439 7.769 3.14 10.135 5.005 2.372 1.87 3.582 3.845 3.582 5.835Z" stroke="#000"/><path d="M261.5 97c0 1.99-1.21 3.966-3.582 5.835-2.366 1.865-5.821 3.566-10.135 5.004-8.623 2.875-20.567 4.661-33.783 4.661-13.216 0-25.16-1.786-33.783-4.661-4.314-1.438-7.769-3.139-10.135-5.004-2.372-1.869-3.582-3.845-3.582-5.835 0-1.99 1.21-3.966 3.582-5.835 2.366-1.865 5.821-3.566 10.135-5.004C188.84 83.286 200.784 81.5 214 81.5c13.216 0 25.16 1.786 33.783 4.66 4.314 1.439 7.769 3.14 10.135 5.005 2.372 1.87 3.582 3.845 3.582 5.835Z" stroke="#000"/><path d="M261.5 123c0 1.99-1.21 3.966-3.582 5.835-2.366 1.865-5.821 3.566-10.135 5.004-8.623 2.875-20.567 4.661-33.783 4.661-13.216 0-25.16-1.786-33.783-4.661-4.314-1.438-7.769-3.139-10.135-5.004-2.372-1.869-3.582-3.845-3.582-5.835 0-1.99 1.21-3.966 3.582-5.835 2.366-1.865 5.821-3.566 10.135-5.004 8.623-2.875 20.567-4.661 33.783-4.661 13.216 0 25.16 1.786 33.783 4.661 4.314 1.438 7.769 3.139 10.135 5.004 2.372 1.869 3.582 3.845 3.582 5.835Z" stroke="#000"/><rect x="146.5" y="53.5" width="60" height="111" rx="9.5" fill="#2D2D2D" stroke="#000"/><path d="M191.985 53.938v.631a5 5 0 0 1-5 5h-20.031a5 5 0 0 1-5-5v-.63" stroke="#F6F6F6"/><rect x="50.5" y="77.5" width="94" height="70" rx="4.5" fill="#fff" stroke="#000"/><path d="M51 85h93" stroke="#000"/><circle cx="57.5" cy="81.5" r="1.5" fill="#2D2D2D"/><circle cx="63.5" cy="81.5" r="1.5" fill="#2D2D2D"/><circle cx="69.5" cy="81.5" r="1.5" fill="#2D2D2D"/><rect x="57.5" y="72.5" width="94" height="70" rx="4.5" fill="#fff" stroke="#000"/><path d="M58 80h93" stroke="#000"/><circle cx="64.5" cy="76.5" r="1.5" fill="#2D2D2D"/><circle cx="70.5" cy="76.5" r="1.5" fill="#2D2D2D"/><circle cx="76.5" cy="76.5" r="1.5" fill="#2D2D2D"/><rect x="65.5" y="68.5" width="94" height="70" rx="4.5" fill="#fff" stroke="#000"/><path d="M66 76h93" stroke="#000"/><circle cx="72.5" cy="72.5" r="1.5" fill="#2D2D2D"/><circle cx="78.5" cy="72.5" r="1.5" fill="#2D2D2D"/><circle cx="84.5" cy="72.5" r="1.5" fill="#2D2D2D"/><rect x="87" y="89" width="19" height="10" rx="5" fill="#ED1C24"/><rect x="91" y="114" width="19" height="10" rx="5" fill="#ED1C24"/><path d="M100 98.5a5.5 5.5 0 0 0 5.5 5.5H122a5.5 5.5 0 0 0 5.5-5.5m-12.5 6v7.5a6 6 0 0 1-6 6" stroke="#2D2D2D"/><rect x="116" y="89" width="19" height="10" rx="5" fill="#ED1C24"/></svg>