<svg width="34" height="34" viewBox="0 0 34 34" fill="none" xmlns="http://www.w3.org/2000/svg">
<path d="M25.2771 12.6898C23.0932 12.6898 21.3166 10.9139 21.3166 8.72996C21.3166 6.54607 23.0932 4.77148 25.2771 4.77148C27.461 4.77148 29.2375 6.5474 29.2375 8.73063C29.2375 10.9139 27.461 12.6898 25.2771 12.6898ZM25.2771 6.09076C24.5771 6.09146 23.9061 6.36982 23.4112 6.86474C22.9163 7.35966 22.6379 8.03071 22.6372 8.73063C22.6379 9.43055 22.9163 10.1016 23.4112 10.5965C23.9061 11.0914 24.5771 11.3698 25.2771 11.3705C25.977 11.3698 26.648 11.0914 27.143 10.5965C27.6379 10.1016 27.9162 9.43055 27.9169 8.73063C27.9162 8.03071 27.6379 7.35966 27.143 6.86474C26.648 6.36982 25.977 6.09146 25.2771 6.09076Z" fill="white" stroke="white" stroke-width="0.5"/>
<path d="M6.77662 23.0713C5.64863 23.5496 4.62283 24.2399 3.75476 25.1045C1.64953 27.2138 0.653577 30.1443 1.10822 32.8962C3.86009 33.3468 6.78929 32.3495 8.89652 30.245C9.76188 29.3773 10.4528 28.3517 10.9318 27.2238" stroke="white" stroke-width="1.7" stroke-miterlimit="10" stroke-linecap="round" stroke-linejoin="round"/>
<path d="M2.95683 16.8621C2.49685 17.2954 2.05887 17.7487 1.64355 18.2207C3.98446 18.8554 6.18968 19.9125 8.15058 21.3399C8.30191 21.0639 8.49056 20.8106 8.71322 20.5879C9.17653 20.1255 9.76602 19.8101 10.4078 19.6813C10.5478 16.9814 11.2984 14.2882 12.6024 11.8057L12.6064 11.7983C10.8354 12.1802 9.12275 12.7951 7.51328 13.6269C5.85388 14.4922 4.32082 15.5807 2.95683 16.8621ZM2.95683 16.8621V16.8621V16.8621Z" stroke="white" stroke-width="1.7" stroke-miterlimit="10" stroke-linecap="round" stroke-linejoin="round"/>
<path d="M14.3229 23.5886C14.1948 24.2325 13.8789 24.824 13.415 25.2886C13.1891 25.5135 12.932 25.7048 12.6517 25.8565C14.0822 27.8144 15.1429 30.0171 15.7815 32.3562C16.2548 31.9429 16.7088 31.5043 17.1428 31.0443C18.4238 29.6809 19.5121 28.1485 20.3773 26.4898C21.2093 24.8813 21.8244 23.1696 22.2066 21.3994C19.7207 22.7027 17.0255 23.4507 14.3229 23.5886V23.5886Z" stroke="white" stroke-width="1.7" stroke-miterlimit="10" stroke-linecap="round" stroke-linejoin="round"/>
<path d="M14.2276 21.9259C14.4076 22.5166 14.3943 23.0539 14.319 23.6092C19.0361 23.3679 23.6472 21.2733 27.147 17.7815C31.6202 13.301 33.7361 7.07331 32.7701 1.22625C26.923 0.26896 20.6987 2.38753 16.2222 6.85998C12.7344 10.3605 10.6438 14.9689 10.4065 19.682C11.0247 19.5587 11.6652 19.614 12.2531 19.8414" stroke="white" stroke-width="1.7" stroke-miterlimit="10" stroke-linecap="round" stroke-linejoin="round"/>
</svg>
