<svg width="756" height="574" viewBox="0 0 756 574" fill="none" xmlns="http://www.w3.org/2000/svg">
<path d="M0.684204 231.096V190.433L33.1362 169.591L8.62835 151.908L22.8988 117.783L47.7169 106.304L38.4101 94.5158L63.8486 68.4568L91.4588 55.1171L90.2179 53.1006L199.728 4.08485L206.279 3.12762V13.6265L235.479 0.174805L268.944 5.42425V33.968L189.546 76.6197L172.485 109.757C122.353 154.902 138.255 224.588 152.472 253.788C183.181 311.269 231.729 325.83 252.165 325.925L282.954 394.426L280.243 391.715L257.201 410.014L221.959 420.518L216.199 403.914L192.817 420.518L154.526 414.419V385.955L123.351 403.914L87.0933 382.905L100.309 352.747L87.0933 342.242L67.4394 360.201L38.6364 329.026L56.9348 309.373L47.4468 290.396L22.71 295.479L9.15568 256.511L32.1981 245.328L29.8261 231.096H0.684204Z" fill="#0070CC"/>
<path d="M322.779 62.7778L332.84 71.7823" stroke="white" stroke-linejoin="round"/>
<path d="M309.441 369.435L382.704 325.607L377.716 317.96" stroke="white" stroke-linejoin="round"/>
<path d="M282.053 393.45L354.458 348.255L382.909 325.632" stroke="white" stroke-linejoin="round"/>
<path d="M280.302 391.925L257.99 409.864" stroke="white" stroke-linejoin="round"/>
<path d="M215.46 405.738L192.518 420.035" stroke="white" stroke-linejoin="round"/>
<path d="M155.279 385.456L124.357 404.075" stroke="white" stroke-linejoin="round"/>
<path d="M426.211 189.378L426.211 228.112L351.003 274.694" stroke="white" stroke-linejoin="round"/>
<path d="M345.555 274.656L313.215 295.313" stroke="white" stroke-linejoin="round"/>
<path d="M389.598 250.547L412.76 266.391L340.121 311.286" stroke="white" stroke-linejoin="round"/>
<path d="M413.204 266.295L400.987 303.72L327.929 346.671" stroke="white" stroke-linejoin="round"/>
<path d="M100.252 84.0864L90.6992 52.7738L127.319 43.2209L135.28 73.472H150.671V38.9751L189.413 43.2209V77.187L209.581 84.0864L223.91 54.8967L257.876 77.187L246.358 105.799L261.061 117.522L281.759 99.4773L309.356 129.198L287.597 152.549L300.865 169.532L330.054 165.287L344.813 203.799L314.663 211.459V235.342H350.752V274.615H314.663L312.786 295.871L340.387 311.6L327.922 346.324L300.865 329.279L288.153 344.247L309.356 369.614L281.759 393.497L261.061 369.614L244.078 380.229L257.876 409.949L221.787 420.564L209.581 389.251H192.067V420.564L154.386 415.787V382.882L135.607 375.705L123.604 404.642L87.5148 382.882L100.752 352.494L87.5148 342.017L67.3474 360.592L38.1578 329.279L57.2637 309.643L48.2415 290.006L22.7669 296.375L8.43741 257.101L33.3813 251.003L30.7277 231.096H1.00731V190.761H30.7277L33.3813 169.532L8.43741 152.549L22.7669 117.522L48.2415 135.044L58.8559 119.114L38.1578 94.7008L62.5709 68.6955L84.8612 94.7008L100.252 84.0864Z" stroke="white" stroke-linejoin="round"/>
<path d="M0.976468 190.766L33.3445 169.745" stroke="white" stroke-linejoin="round"/>
<path d="M22.7093 117.562L47.4188 105.931" stroke="white" stroke-linejoin="round"/>
<path d="M62.5362 68.7391L91.0196 54.683" stroke="white" stroke-linejoin="round"/>
<path d="M91.0196 52.7872L200.559 3.81966L206.949 3.07092L126.86 43.464" stroke="white" stroke-linejoin="round"/>
<path d="M150.528 39.1388L235.24 0.623413L268.414 5.21786L189.168 43.1866" stroke="white" stroke-linejoin="round"/>
<path d="M268.403 5.30029V34.1945L223.844 54.927" stroke="white" stroke-linejoin="round"/>
<path d="M189.536 76.7269L220.147 62.059" stroke="white" stroke-linejoin="round"/>
<path d="M268.403 34.2111L301.14 17.2047L332.176 35.6992L257.986 76.9396" stroke="white" stroke-linejoin="round"/>
<path d="M332.176 35.6991L322.824 62.7011L246.496 105.525" stroke="white" stroke-linejoin="round"/>
<path d="M281.556 99.6111L358.88 58.2081L385.613 88.1402L309.755 129.268" stroke="white" stroke-linejoin="round"/>
<path d="M385.999 87.9083L365.963 109.39L288.277 152.802" stroke="white" stroke-linejoin="round"/>
<path d="M365.963 109.618L377.387 127.897L300.854 169.371" stroke="white" stroke-linejoin="round"/>
<path d="M376.818 128.003L403.799 124.54L330.057 165.315" stroke="white" stroke-linejoin="round"/>
<path d="M403.207 124.241L418.059 161.028L345.171 203.755" stroke="white" stroke-linejoin="round"/>
<path d="M392.239 176.565V188.675L315.01 235.287" stroke="white" stroke-linejoin="round"/>
<path d="M350.426 235.287L425.827 189.589L392.468 188.447" stroke="white" stroke-linejoin="round"/>
<path d="M8.2194 257.151L32.3628 245.829" stroke="white" stroke-linejoin="round"/>
<path d="M206.783 3.32532V13.3721" stroke="white"/>
<path d="M283.31 229.735C289.954 296.535 247.389 350.576 188.38 350.576C129.372 350.576 76.0569 296.535 69.4129 229.735C62.7689 162.935 105.334 108.893 164.342 108.893C223.351 108.893 276.666 162.935 283.31 229.735Z" stroke="white"/>
<path d="M170.669 109.61C147.964 131.832 135.398 166.25 139.24 204.886C145.599 268.815 194.589 321.198 250.605 325.884" stroke="white"/>
<path d="M329.789 383.626V342.963L362.241 322.12L337.733 304.438L352.003 270.313L376.821 258.834L367.515 247.046L392.953 220.987L420.563 207.647L419.322 205.631L528.832 156.615L535.383 155.658V166.156L564.583 152.705L598.048 157.954V186.498L518.651 229.15L501.59 262.287C451.458 307.432 467.359 377.118 481.577 406.318C512.286 463.799 560.834 478.36 581.269 478.455L612.058 546.956L609.347 544.245L586.305 562.544L551.064 573.048L545.303 556.444L521.922 573.048L483.631 566.949V538.485L452.456 556.444L416.198 535.435L429.413 505.276L416.198 494.772L396.544 512.731L367.741 481.556L386.039 461.902L376.551 442.926L351.815 448.009L338.26 409.04L361.303 397.858L358.931 383.626H329.789Z" fill="#0070CC"/>
<path d="M651.883 215.308L661.944 224.312" stroke="white" stroke-linejoin="round"/>
<path d="M638.546 521.965L711.808 478.137L706.821 470.49" stroke="white" stroke-linejoin="round"/>
<path d="M611.157 545.98L683.562 500.785L712.014 478.162" stroke="white" stroke-linejoin="round"/>
<path d="M609.406 544.455L587.095 562.394" stroke="white" stroke-linejoin="round"/>
<path d="M544.565 558.268L521.623 572.565" stroke="white" stroke-linejoin="round"/>
<path d="M484.383 537.986L453.462 556.605" stroke="white" stroke-linejoin="round"/>
<path d="M755.316 341.908L755.316 380.642L680.107 427.224" stroke="white" stroke-linejoin="round"/>
<path d="M674.66 427.186L642.319 447.843" stroke="white" stroke-linejoin="round"/>
<path d="M718.702 403.077L741.865 418.921L669.225 463.816" stroke="white" stroke-linejoin="round"/>
<path d="M742.308 418.825L730.092 456.25L657.034 499.201" stroke="white" stroke-linejoin="round"/>
<path d="M429.357 236.616L419.804 205.304L456.423 195.751L464.384 226.002H479.775V191.505L518.518 195.751V229.717L538.685 236.616L553.015 207.427L586.981 229.717L575.463 258.329L590.165 270.052L610.863 252.007L638.461 281.728L616.701 305.079L629.969 322.062L659.159 317.817L673.917 356.329L643.768 363.989V387.872H679.857V427.145H643.768L641.891 448.401L669.492 464.13L657.027 498.854L629.969 481.809L617.258 496.776L638.461 522.144L610.863 546.027L590.165 522.144L573.182 532.759L586.981 562.479L550.892 573.093L538.685 541.781H521.171V573.093L483.49 568.317V535.412L464.712 528.235L452.708 557.172L416.619 535.412L429.857 505.024L416.619 494.547L396.452 513.122L367.262 481.809L386.368 462.173L377.346 442.536L351.871 448.905L337.542 409.631L362.486 403.533L359.832 383.626H330.112V343.291H359.832L362.486 322.062L337.542 305.079L351.871 270.052L377.346 287.574L387.96 271.644L367.262 247.231L391.675 221.225L413.966 247.231L429.357 236.616Z" stroke="white" stroke-linejoin="round"/>
<path d="M330.081 343.296L362.449 322.275" stroke="white" stroke-linejoin="round"/>
<path d="M351.814 270.091L376.523 258.461" stroke="white" stroke-linejoin="round"/>
<path d="M391.641 221.269L420.124 207.213" stroke="white" stroke-linejoin="round"/>
<path d="M420.124 205.317L529.664 156.349L536.054 155.601L455.965 195.994" stroke="white" stroke-linejoin="round"/>
<path d="M479.633 191.669L564.345 153.153L597.519 157.748L518.273 195.716" stroke="white" stroke-linejoin="round"/>
<path d="M597.507 157.83V186.724L552.948 207.457" stroke="white" stroke-linejoin="round"/>
<path d="M518.64 229.257L549.252 214.589" stroke="white" stroke-linejoin="round"/>
<path d="M597.507 186.741L630.244 169.735L661.281 188.229L587.091 229.47" stroke="white" stroke-linejoin="round"/>
<path d="M661.281 188.229L651.929 215.231L575.6 258.055" stroke="white" stroke-linejoin="round"/>
<path d="M610.661 252.141L687.985 210.738L714.718 240.67L638.859 281.798" stroke="white" stroke-linejoin="round"/>
<path d="M715.104 240.438L695.068 261.919L617.381 305.332" stroke="white" stroke-linejoin="round"/>
<path d="M695.067 262.148L706.492 280.427L629.958 321.901" stroke="white" stroke-linejoin="round"/>
<path d="M705.922 280.533L732.904 277.069L659.161 317.845" stroke="white" stroke-linejoin="round"/>
<path d="M732.312 276.771L747.163 313.558L674.275 356.285" stroke="white" stroke-linejoin="round"/>
<path d="M721.344 329.095V341.205L644.115 387.817" stroke="white" stroke-linejoin="round"/>
<path d="M679.531 387.817L754.932 342.119L721.572 340.977" stroke="white" stroke-linejoin="round"/>
<path d="M337.324 409.681L361.467 398.358" stroke="white" stroke-linejoin="round"/>
<path d="M535.887 155.855V165.902" stroke="white"/>
<path d="M612.414 382.264C619.058 449.064 576.493 503.106 517.485 503.106C458.476 503.106 405.161 449.064 398.517 382.264C391.873 315.464 434.438 261.423 493.447 261.423C552.455 261.423 605.77 315.464 612.414 382.264Z" stroke="white"/>
<path d="M499.773 262.14C477.069 284.362 464.502 318.78 468.345 357.416C474.704 421.345 523.694 473.727 579.71 478.414" stroke="white"/>
</svg>
