<svg width="48" height="48" viewBox="0 0 48 48" fill="none" xmlns="http://www.w3.org/2000/svg">
<path d="M17.6863 11.1356C17.6863 11.1356 1.04937 21.2811 16.7287 31.3549C19.7449 33.317 30.6846 38.7726 30.3734 43.8215C30.3734 43.8215 37.0042 34.0109 27.3093 27.8375C17.3511 21.5204 14.8616 14.7727 17.6863 11.1356Z" fill="#ED1C24"/>
<path d="M11.8933 30.5174C11.8933 30.5174 5.95672 39.5144 17.6384 41.3569C18.7875 41.5005 27.2376 42.3858 29.4399 45.1615C29.4399 45.1615 29.2484 40.3758 22.3542 37.5523C15.484 34.7288 12.6593 34.0349 11.8933 30.5174Z" fill="#ED1C24"/>
<path d="M34.8739 21.0658C27.7404 13.6002 25.7535 8.98205 28.8176 3C28.8176 3 7.53675 11.1834 28.5543 25.7079C36.0708 30.9003 34.826 36.2123 34.826 36.4038C35.999 35.1834 42.0074 28.5314 34.8739 21.0658Z" fill="#ED1C24"/>
</svg>
