<svg width="48" height="48" viewBox="0 0 48 48" fill="none" xmlns="http://www.w3.org/2000/svg">
<path fill-rule="evenodd" clip-rule="evenodd" d="M40.0186 0L36.7859 1.78876L33.8202 3.57751C32.9257 4.11414 32.0297 4.64182 31.0808 5.18739L28.536 6.69888C28.6084 7.09242 28.6793 7.49488 28.7427 7.91523C28.886 8.80961 28.9931 9.77554 29.073 10.7146C29.073 11.0432 29.1062 11.379 29.1394 11.7197C29.1575 11.9168 29.1771 12.1156 29.1907 12.3156C31.1879 11.3139 33.2123 10.339 35.2367 9.38202C37.6639 8.23722 40.1001 7.11031 42.5453 6.01916C42.1682 4.89224 41.7564 3.79217 41.2903 2.70102C40.9056 1.80664 40.4757 0.912266 40.0186 0.0178876V0ZM25.151 8.73436L25.16 8.72912H25.151V8.73436ZM25.151 8.73436L23.0104 10.0707L20.986 11.3675C19.7385 12.1725 18.5016 12.9864 17.2782 13.8092C17.2782 14.1848 17.2782 14.5605 17.1967 14.954C17.1454 15.2025 17.1304 15.4615 17.1153 15.7269V15.727C17.1062 15.8819 17.0972 16.039 17.0806 16.1972C16.9735 17.0916 16.8573 18.0486 16.714 18.9787C18.0566 18.2006 19.4006 17.4315 20.7703 16.6891C22.2939 15.8364 23.8311 15.0106 25.3833 14.2117V12.6554C25.3833 12.1635 25.3833 11.6895 25.338 11.2334C25.338 10.4621 25.2566 9.69837 25.1736 8.93526V8.93521L25.151 8.73436ZM8.78663 19.8373C10.7691 18.3646 12.7754 16.9246 14.8058 15.5175L14.8148 15.5084C14.7696 15.8751 14.7243 16.2419 14.6806 16.6354L14.67 16.7185C14.6293 17.0868 14.5855 17.4693 14.5192 17.8517C14.4468 18.2632 14.3759 18.6925 14.3035 19.1576C14.2326 19.6227 14.1511 20.0877 14.0531 20.5706L12.3334 21.635L10.6944 22.6635C9.67331 23.3164 8.65222 23.9872 7.64018 24.6669C7.76554 24.2287 7.88199 23.7636 7.98939 23.3345L7.98954 23.3343C8.09695 22.9051 8.19546 22.4938 8.29396 22.0824V22.0821C8.47317 21.3398 8.63443 20.5886 8.78663 19.8373ZM11.8944 24.3718L13.6865 23.3701L13.6774 23.3969C13.5522 23.9157 13.418 24.4522 13.2747 24.9979C12.9609 26.1784 12.6381 27.3589 12.2972 28.5306C12.1192 29.1657 11.9306 29.8096 11.733 30.4714C10.5153 31.0081 9.1986 31.6162 8.09696 32.1439C6.99531 32.6715 5.91145 33.226 4.82776 33.7896C5.04272 33.1634 5.24878 32.5732 5.45469 32.0009C5.66075 31.4284 5.85776 30.8739 6.03697 30.3284C6.38618 29.3088 6.72664 28.2891 7.04901 27.2695C8.64936 26.2679 10.2645 25.302 11.8944 24.3718ZM10.7751 33.888C9.53001 34.353 8.29396 34.8539 7.07586 35.3726C5.85776 35.8914 4.85461 36.3476 3.76187 36.8752C2.86628 39.3078 1.97054 41.7227 1.0748 44.1375C0.85818 44.7068 0.634323 45.276 0.403223 45.8637L0.403074 45.8638C0.271081 46.1995 0.13682 46.5411 0 46.8922C0.546373 46.7223 1.09276 46.5703 1.64803 46.4182C2.83928 46.1052 4.03053 45.8279 5.23083 45.5953C5.87571 45.4701 6.52948 45.3538 7.20136 45.2466C7.55963 44.1912 7.90884 43.1359 8.24931 42.0804C8.58057 41.0788 8.89418 40.1038 9.1897 39.1469C9.48521 38.1899 9.76292 37.3045 10.0316 36.4637C10.263 35.7398 10.4811 34.9961 10.6915 34.2781L10.6917 34.2778V34.2776L10.7929 33.9326L10.7751 33.888ZM24.4435 29.6933L24.4224 29.6983L24.4254 29.6844L24.4435 29.6933ZM24.4224 29.6983C24.2715 30.7223 24.1116 31.7465 23.9321 32.8595C23.7843 33.7884 23.6229 34.7113 23.4494 35.7049L23.3408 36.3207C23.1266 37.555 22.9018 38.7892 22.6424 40.1307C22.3829 41.4723 22.1053 42.8675 21.8097 44.2985C21.419 44.2985 21.0313 44.2965 20.6482 44.2944C19.8969 44.2905 19.1653 44.2867 18.4774 44.2985C17.4396 44.3164 16.3731 44.3433 15.4771 44.3879C14.581 44.4327 13.6412 44.4863 12.7905 44.5579C11.9397 44.6294 11.116 44.7009 10.3093 44.7993C11.002 42.6529 11.647 40.5004 12.2444 38.3419C12.7724 36.4995 13.2747 34.6571 13.7664 32.8058C14.5282 32.5374 15.281 32.287 16.1046 32.0277C16.9282 31.7682 17.7519 31.5089 18.6479 31.2585C20.5637 30.6999 22.4885 30.1798 24.4224 29.6983ZM35.6576 12.1456C38.2431 11.0485 40.8422 9.98125 43.458 8.94378H43.4942C43.9603 10.6431 44.3811 12.3514 44.7296 14.0775C45.1776 16.2419 45.5638 18.4153 45.8851 20.5975C44.1217 20.9821 42.3839 21.3846 40.8422 21.7423C39.3021 22.1001 37.8328 22.4579 36.4179 22.8066C33.9289 23.4327 31.4504 24.0975 28.984 24.801C29.0338 24.1439 29.0745 23.4479 29.1138 22.7967V22.7959V22.7947C29.1304 22.5074 29.147 22.2287 29.1635 21.966L29.1786 21.7315V21.7314V21.7312C29.2284 20.9429 29.2797 20.1221 29.2797 19.3901V17.0558V14.945C30.1908 14.5264 31.0582 14.1441 32.0055 13.7262L32.3253 13.5856C33.2485 13.1785 34.1974 12.7714 35.1734 12.353L35.6576 12.1456ZM41.1213 26.3842C42.8138 26.098 44.6044 25.8207 46.4945 25.5435H46.5126C46.674 26.9387 46.8173 28.2624 46.9697 29.908C47.1221 31.5536 47.2563 33.1993 47.3815 34.845C47.5128 36.7113 47.6289 38.5804 47.7315 40.4527C47.8265 42.4919 47.9155 44.6234 48 46.8475C45.5985 46.4897 43.2437 46.1587 41.2465 45.8994C39.2493 45.6401 37.2686 45.4164 35.5671 45.2377C33.8655 45.0588 32.182 44.8978 30.7128 44.7815C29.2435 44.6652 27.8466 44.5668 26.5026 44.4953C26.9687 41.6244 27.3986 38.7355 27.7833 35.8466C28.094 33.4974 28.3716 31.1303 28.6175 28.7452C29.7986 28.4859 30.9632 28.2444 32.2891 27.9761C33.6151 27.7079 34.932 27.4574 36.4269 27.1891C37.6639 26.9672 38.9084 26.7575 40.2585 26.5296C40.5405 26.4821 40.8287 26.4336 41.1213 26.3842Z" fill="#BF0811"/>
</svg>
