<svg width="48" height="48" viewBox="0 0 48 48" fill="none" xmlns="http://www.w3.org/2000/svg">
<g clip-path="url(#clip0_1:331)">
<path fill-rule="evenodd" clip-rule="evenodd" d="M38.8659 33.2333L34.734 30.5416L31.2871 36.228L27.2782 35.0704L23.7484 40.3913L23.9293 42.0662L43.1213 38.5737L42.0066 26.7307L38.8659 33.2333ZM20.9679 28.1272L24.0471 27.709C24.5453 27.9301 24.8921 28.0143 25.4895 28.1644C26.4198 28.4039 27.4969 28.6336 29.0919 27.8396C29.4631 27.6581 30.2362 26.9598 30.5488 26.5617L43.1648 24.3013L44.4518 39.685L22.8384 43.5321L20.9679 28.1272ZM44.4031 22.584L43.1578 22.8183L40.7654 -1.59424L0 3.07426L5.02216 43.3253L9.79376 42.6413C9.4127 42.104 8.81937 41.4539 7.80612 40.6216C6.4008 39.4685 6.89785 37.51 7.72666 36.2733C8.82343 34.1836 14.4743 31.528 14.1541 28.1879C14.0393 26.9735 13.8438 25.3925 12.7024 24.3093C12.6595 24.759 12.7366 25.1921 12.7366 25.1921C12.7366 25.1921 12.268 24.6015 12.0343 23.7961C11.8023 23.4873 11.6202 23.3888 11.3737 22.9764C11.1979 23.4535 11.2211 24.0069 11.2211 24.0069C11.2211 24.0069 10.8377 23.1121 10.7757 22.3572C10.5483 22.6951 10.4909 23.3373 10.4909 23.3373C10.4909 23.3373 9.99269 21.927 10.1064 21.1674C9.87902 20.5064 9.20506 19.1946 9.39588 16.2131C10.64 17.074 13.3787 16.8695 14.4459 15.316C14.8003 14.8016 15.0427 13.3971 14.269 10.6298C13.7719 8.85518 12.5412 6.21275 12.0615 5.21031L12.0041 5.25098C12.257 6.05866 12.7784 7.75192 12.9785 8.57277C13.584 11.0628 13.7464 11.9295 13.4622 13.0774C13.2204 14.0753 12.6404 14.7283 11.1701 15.4581C9.6998 16.1902 7.7487 14.4087 7.62516 14.3102C6.19664 13.1863 5.09176 11.3527 4.96822 10.4619C4.84004 9.487 5.53719 8.90158 5.88867 8.10421C5.38581 8.24627 4.82496 8.49831 4.82496 8.49831C4.82496 8.49831 5.49427 7.81436 6.3196 7.22263C6.66122 6.99923 6.86189 6.85717 7.22207 6.5616C6.70066 6.55301 6.27726 6.5679 6.27726 6.5679C6.27726 6.5679 7.14667 6.10391 8.04798 5.76595C7.38853 5.73731 6.7575 5.76137 6.7575 5.76137C6.7575 5.76137 8.69757 4.90443 10.2299 4.27547C11.2838 3.84871 12.3132 3.97474 12.8915 4.80074C13.6507 5.8828 14.4482 6.47052 16.1383 6.83483C17.1759 6.38059 17.4914 6.14687 18.7952 5.79631C19.9431 4.54985 20.8444 4.38831 20.8444 4.38831C20.8444 4.38831 20.3972 4.7933 20.2777 5.4297C20.9285 4.92333 21.6418 4.50059 21.6418 4.50059C21.6418 4.50059 21.3658 4.83741 21.1083 5.37242L21.168 5.46006C21.9272 5.0104 22.8198 4.65582 22.8198 4.65582C22.8198 4.65582 22.5646 4.97431 22.2653 5.38674C22.8378 5.38216 23.9989 5.4108 24.4496 5.46121C27.11 5.51906 27.6622 2.65495 28.683 2.29579C29.9613 1.84498 30.5326 1.57232 32.711 3.68546C34.5803 5.49959 36.0407 8.74691 35.3158 9.4744C34.7079 10.0782 33.5085 9.23897 32.1792 7.60242C31.4768 6.73574 30.9455 5.71153 30.6967 4.40951C30.4867 3.31083 29.6695 2.67328 29.6695 2.67328C29.6695 2.67328 30.144 3.71467 30.144 4.63463C30.144 5.13699 30.2078 7.01527 31.0232 8.06927C30.9426 8.22335 30.9049 8.83169 30.8156 8.94797C29.8667 7.81551 27.8292 7.00496 27.4969 6.7661C28.6215 7.67631 31.2065 9.76711 32.1995 11.7708C33.1385 13.6657 32.5852 15.4025 33.0602 15.8522C33.1953 15.9811 35.0797 18.2999 35.4422 19.465C36.0744 21.4956 35.4799 23.6294 34.6522 24.9532L32.341 25.3089C32.0028 25.2161 31.7749 25.1697 31.4716 24.9962C31.6386 24.704 31.9709 23.9754 31.9744 23.8253L31.8439 23.599C31.1247 24.6055 29.9195 25.5827 28.9184 26.1441C27.6082 26.8773 26.0979 26.7645 25.1148 26.4637C22.3245 25.6137 19.6861 23.7514 19.0499 23.2622C19.0499 23.2622 19.0301 23.6529 19.1502 23.7405C19.8537 24.5241 21.4655 25.9419 23.0234 26.93L19.7024 27.2909L21.2724 39.3648C20.5764 39.4633 20.4679 39.5115 19.7058 39.6186C19.0342 37.2752 17.7495 35.7451 16.3454 34.8538C15.1071 34.0679 13.399 33.8909 11.764 34.2106L11.659 34.3309C12.7958 34.214 14.1379 34.3767 15.5165 35.2388C16.8697 36.0837 17.9601 38.2661 18.3614 39.5802C18.8753 41.2597 19.2308 43.0561 17.8475 44.9601C16.8633 46.3137 13.99 47.0618 11.6689 45.4436C12.2889 46.4283 13.127 47.2337 14.2551 47.3855C15.9301 47.61 17.5198 47.323 18.6143 46.2135C19.5487 45.2649 20.044 43.2812 19.9135 41.1921L21.3919 40.9802L21.9255 44.7299L46.4 41.8194L44.4031 22.584ZM29.5129 12.4009C29.4445 12.555 29.3372 12.6559 29.4984 13.1571L29.5083 13.1857L29.5338 13.2504L29.6011 13.4005C29.8917 13.9871 30.2107 14.5404 30.7437 14.8228C30.8817 14.7999 31.0244 14.7845 31.1723 14.777C31.6728 14.7552 31.9889 14.8337 32.1896 14.9403C32.2076 14.8417 32.2116 14.6974 32.2006 14.4849C32.1618 13.7419 32.3497 12.4783 30.9037 11.8132C30.358 11.5629 29.5924 11.6402 29.3372 11.9524C29.3836 11.9582 29.4254 11.9679 29.4578 11.9788C29.8435 12.1122 29.5819 12.2434 29.5129 12.4009ZM33.5653 19.3332C33.3757 19.2301 32.4895 19.2708 31.8665 19.3441C30.6799 19.4822 29.3987 19.8889 29.118 20.1054C28.6076 20.4949 28.8396 21.1743 29.2166 21.4532C30.2739 22.2334 31.2007 22.7564 32.1792 22.6292C32.78 22.5513 33.3096 21.6119 33.6848 20.7596C33.9418 20.1724 33.9418 19.5389 33.5653 19.3332ZM23.0594 13.3209C23.394 13.007 21.3925 12.5946 19.8392 13.6405C18.6937 14.4121 18.6572 16.0664 19.754 17.0041C19.8636 17.0969 19.9541 17.1628 20.0387 17.2167C20.3589 17.0677 20.7237 16.9171 21.1436 16.7825C21.853 16.555 22.4428 16.4376 22.9277 16.3752C23.1597 16.1191 23.4294 15.6683 23.3621 14.852C23.2705 13.7448 22.4208 13.9206 23.0594 13.3209Z" fill="#632CA6"/>
</g>
<defs>
<clipPath id="clip0_1:331">
<rect width="48" height="48" fill="white"/>
</clipPath>
</defs>
</svg>
