<svg width="31" height="30" fill="none" xmlns="http://www.w3.org/2000/svg"><path d="M28.44 7.9a14.935 14.935 0 0 0-5.459-5.46C20.683 1.1 18.174.43 15.452.43c-2.721 0-5.231.67-7.529 2.01A14.933 14.933 0 0 0 2.464 7.9C1.123 10.198.452 12.708.452 15.429c0 3.268.954 6.207 2.862 8.818 1.907 2.61 4.371 4.417 7.392 5.42.351.065.612.019.781-.137a.764.764 0 0 0 .254-.586l-.01-1.054c-.007-.665-.01-1.244-.01-1.738l-.449.077a5.728 5.728 0 0 1-1.084.069 8.245 8.245 0 0 1-1.357-.137 3.033 3.033 0 0 1-1.309-.585 2.478 2.478 0 0 1-.86-1.201l-.194-.45a4.904 4.904 0 0 0-.616-.996c-.28-.364-.563-.612-.85-.742l-.136-.098a1.438 1.438 0 0 1-.254-.234 1.073 1.073 0 0 1-.175-.274c-.04-.091-.007-.166.097-.225.104-.059.293-.087.567-.087l.39.058c.26.052.583.208.967.469.384.26.7.599.947 1.015.3.534.66.941 1.084 1.221.423.28.85.42 1.28.42.429 0 .8-.033 1.113-.097.312-.066.605-.163.878-.294.117-.872.437-1.543.957-2.011a13.385 13.385 0 0 1-2.002-.352 7.971 7.971 0 0 1-1.835-.762 5.258 5.258 0 0 1-1.573-1.308c-.416-.521-.758-1.205-1.025-2.051-.267-.847-.4-1.823-.4-2.93 0-1.576.514-2.917 1.543-4.024-.482-1.184-.437-2.512.136-3.984.378-.117.938-.029 1.68.264.742.293 1.286.544 1.63.752.346.208.623.384.831.527a13.87 13.87 0 0 1 3.75-.507c1.289 0 2.54.169 3.75.507l.742-.468a10.51 10.51 0 0 1 1.797-.86c.69-.26 1.218-.332 1.583-.214.585 1.471.637 2.8.155 3.984 1.029 1.107 1.544 2.448 1.544 4.023 0 1.107-.134 2.086-.4 2.94-.268.853-.612 1.536-1.035 2.05a5.46 5.46 0 0 1-1.583 1.3 7.989 7.989 0 0 1-1.836.76c-.592.157-1.26.275-2.002.353.677.586 1.016 1.51 1.016 2.773v4.12c0 .235.081.43.244.586.163.156.42.202.771.137 3.021-1.002 5.486-2.809 7.393-5.42 1.907-2.61 2.861-5.55 2.861-8.818 0-2.72-.671-5.23-2.012-7.528Z" fill="#000"/></svg>