<svg width="354" height="197" viewBox="0 0 354 197" fill="none" xmlns="http://www.w3.org/2000/svg">
<mask id="mask0_3:372" style="mask-type:alpha" maskUnits="userSpaceOnUse" x="0" y="0" width="354" height="197">
<rect width="354" height="197" rx="10" fill="#E8F2FA"/>
</mask>
<g mask="url(#mask0_3:372)">
<path d="M211 29H226.578C232.101 29 236.578 33.4772 236.578 39V158C236.578 163.523 241.055 168 246.578 168H324C329.523 168 334 163.523 334 158V97.7527" stroke="url(#paint0_linear_3:372)"/>
<circle cx="182" cy="23" r="30.5" fill="#E8F2FA" stroke="white"/>
<circle cx="173" cy="24" r="30.5" fill="#E8F2FA" stroke="white"/>
<circle cx="159" cy="25" r="30.5" fill="#E8F2FA" stroke="white"/>
<circle cx="47" cy="157" r="42" fill="url(#paint1_linear_3:372)"/>
<circle cx="46.644" cy="143.831" r="9.61017" fill="url(#paint2_linear_3:372)"/>
<path d="M47 157C35.5986 157 26.356 166.243 26.356 177.644H67.6441C67.6441 166.243 58.4014 157 47 157Z" fill="url(#paint3_linear_3:372)"/>
<path d="M79 129V73.3488C79 67.826 74.5228 63.3488 69 63.3488H48C42.4772 63.3488 38 58.8717 38 53.3488V35C38 29.4771 42.4772 25 48 25H79" stroke="white"/>
<circle cx="335" cy="70" r="42" fill="url(#paint4_linear_3:372)"/>
<circle cx="334.644" cy="56.8305" r="9.61017" fill="url(#paint5_linear_3:372)"/>
<path d="M335 70C323.599 70 314.356 79.2427 314.356 90.6441H355.644C355.644 79.2427 346.401 70 335 70Z" fill="url(#paint6_linear_3:372)"/>
<circle cx="140" cy="25" r="30.5" fill="#E8F2FA" stroke="white"/>
<circle cx="139.737" cy="15.2797" r="6.59322" fill="#E8F2FA" stroke="white"/>
<path d="M154.729 39.7373H125.271C125.535 31.8296 132.028 25.5 140 25.5C147.972 25.5 154.465 31.8296 154.729 39.7373Z" fill="#E8F2FA" stroke="white"/>
<circle cx="109" cy="26" r="30.5" fill="#E8F2FA" stroke="white"/>
<circle cx="108.737" cy="16.2797" r="6.59322" fill="#E8F2FA" stroke="white"/>
<path d="M123.729 40.7373H94.2711C94.5347 32.8296 101.028 26.5 109 26.5C116.972 26.5 123.465 32.8296 123.729 40.7373Z" fill="#E8F2FA" stroke="white"/>
</g>
<defs>
<linearGradient id="paint0_linear_3:372" x1="253.248" y1="103.233" x2="340.368" y2="97.4958" gradientUnits="userSpaceOnUse">
<stop stop-color="white"/>
<stop offset="1" stop-color="white" stop-opacity="0.36"/>
</linearGradient>
<linearGradient id="paint1_linear_3:372" x1="47" y1="115" x2="47" y2="199" gradientUnits="userSpaceOnUse">
<stop stop-color="#F4898D"/>
<stop offset="1" stop-color="#E8F2FA" stop-opacity="0"/>
</linearGradient>
<linearGradient id="paint2_linear_3:372" x1="46.644" y1="134.22" x2="46.644" y2="153.441" gradientUnits="userSpaceOnUse">
<stop stop-color="white"/>
<stop offset="1" stop-color="white" stop-opacity="0.42"/>
</linearGradient>
<linearGradient id="paint3_linear_3:372" x1="47" y1="157" x2="47" y2="177.644" gradientUnits="userSpaceOnUse">
<stop stop-color="white"/>
<stop offset="1" stop-color="white" stop-opacity="0"/>
</linearGradient>
<linearGradient id="paint4_linear_3:372" x1="335" y1="28" x2="335" y2="112" gradientUnits="userSpaceOnUse">
<stop stop-color="#67B1ED"/>
<stop offset="1" stop-color="#E8F2FA" stop-opacity="0.62"/>
</linearGradient>
<linearGradient id="paint5_linear_3:372" x1="334.644" y1="47.2203" x2="334.644" y2="66.4407" gradientUnits="userSpaceOnUse">
<stop stop-color="white"/>
<stop offset="1" stop-color="white" stop-opacity="0.42"/>
</linearGradient>
<linearGradient id="paint6_linear_3:372" x1="335" y1="70" x2="335" y2="90.6441" gradientUnits="userSpaceOnUse">
<stop stop-color="white"/>
<stop offset="1" stop-color="white" stop-opacity="0"/>
</linearGradient>
</defs>
</svg>
