<svg width="542" height="335" fill="none" xmlns="http://www.w3.org/2000/svg"><path fill="#0070CC" d="M0 0h542v335H0z"/><mask id="a" style="mask-type:alpha" maskUnits="userSpaceOnUse" x="252" y="47" width="290" height="288"><path fill="#0070CC" d="M252 47h290v288H252z"/></mask><g mask="url(#a)"><path d="M293 335v-77" stroke="url(#b)"/><path d="M274 354v-77" stroke="url(#c)"/><path d="M255 385v-77" stroke="url(#d)"/><path d="M312 335v-77" stroke="url(#e)"/><path d="M330 335v-87" stroke="url(#f)"/><path d="M349 335v-97" stroke="url(#g)"/><path d="M368 335V228" stroke="url(#h)"/><path d="M386 335V198" stroke="url(#i)"/><path d="M405 335V148" stroke="url(#j)"/><path d="M423 335V118" stroke="url(#k)"/><path d="M442 335V98" stroke="url(#l)"/><path d="M460 335V88" stroke="url(#m)"/><path d="M479 335V68" stroke="url(#n)"/><path d="M497 335V68" stroke="url(#o)"/><path d="M516 335V48" stroke="url(#p)"/><g filter="url(#q)"><path d="M351.91 296.128C313.488 303.08 268.077 331.338 266 354h288V77s-19.586 0-31.159 22.475c-26.655 51.762-40.507 173.055-170.931 196.653Z" fill="#fff" fill-opacity=".119"/></g></g><path d="M69.297 294.463v-1.005c-.698 1.094-1.647 1.794-2.847 2.063-1.2.27-2.38.18-3.544-.287-1.182-.466-2.184-1.346-3.026-2.62-.84-1.274-1.27-2.943-1.27-5.025 0-2.44.554-4.397 1.664-5.922 1.11-1.507 2.9-2.261 5.37-2.261 1.88 0 3.617.502 5.228 1.525 1.611 1.023 2.399 2.907 2.399 5.653v8.291c0 2.746-.806 4.613-2.399 5.618-1.611 1.005-3.348 1.507-5.227 1.507-3.598 0-5.836-1.687-6.695-5.061h4.278c.304.557.788.969 1.432 1.274.645.288 1.29.377 1.934.234.644-.144 1.235-.521 1.754-1.149.555-.646.86-1.579.949-2.835Zm-6.695-6.766c0 2.71.787 4.217 2.345 4.504 1.557.288 2.72-.071 3.455-1.094.358-.431.608-1.113.77-2.028a8.83 8.83 0 0 0 .035-2.746 5.597 5.597 0 0 0-.966-2.405c-.502-.7-1.254-1.059-2.238-1.059-1.325 0-2.238.485-2.703 1.472-.466.969-.698 2.1-.698 3.356Zm25.008 7.699h-2.06c-.59 0-1.074-.18-1.432-.556-.376-.377-.555-.862-.555-1.436V285.4c0-.933-.286-1.633-.86-2.064a3.084 3.084 0 0 0-1.915-.646c-.698 0-1.325.215-1.88.646-.554.431-.823 1.113-.823 2.064v10.014H73.97v-9.189c0-2.674.698-4.45 2.076-5.348 1.397-.897 2.918-1.399 4.601-1.471 1.719 0 3.312.448 4.762 1.346 1.45.897 2.166 2.728 2.166 5.473v9.171h.036Zm1.002-14.285h4.118v14.303h-4.118v-14.303Zm11.672 14.285a33.365 33.365 0 0 1-4.189-.054c-1.503-.126-2.255-1.077-2.255-2.89v-15.308h2.112c.501 0 .967.198 1.343.592.394.395.59.862.59 1.418v.539h2.399v.825c0 .592-.197 1.077-.59 1.436-.394.377-.86.556-1.415.556h-.411v8.812c0 .664.394 1.005 1.181 1.005h1.235v3.069Z" fill="#fff"/><path d="M111.49 290.568h2.936c-.429 1.651-1.253 2.907-2.47 3.769-1.217.897-2.739 1.346-4.583 1.346-2.238 0-3.974-.718-5.227-2.172-1.253-1.417-1.88-3.427-1.88-6.066 0-2.512.609-4.468 1.826-5.886 1.253-1.454 2.99-2.171 5.227-2.171 2.346 0 4.171.699 5.46 2.117 1.253 1.454 1.88 3.464 1.88 6.066v.646c0 .198-.018.341-.054.413h-10.15c.036 1.22.34 2.118.877 2.71.502.628 1.271.933 2.292.933.662 0 1.235-.144 1.7-.413a.643.643 0 0 0 .323-.215l.322-.323c.036-.126.179-.269.447-.467.251-.179.609-.287 1.074-.287Zm-7.035-4.576h5.997c-.071-1.059-.358-1.849-.823-2.351-.502-.556-1.235-.826-2.166-.826-.86 0-1.558.27-2.113.826-.573.538-.859 1.328-.895 2.351Zm-50.841-12.078h2.112c.555 0 1.02.198 1.414.593.394.394.591.861.591 1.417v19.49h-4.117v-21.5Zm34.998 3.231h2.113c.555 0 1.02.197 1.414.592.394.395.59.861.59 1.418v1.238h-4.117v-3.248Zm-24.597.215h-.644v-.466c-.322.358-.77.538-1.325.538-.519 0-.966-.18-1.342-.521-.394-.376-.591-.843-.591-1.417 0-.592.215-1.077.626-1.454.376-.359.842-.52 1.36-.52.538 0 .968.179 1.29.556v-.467h.644v3.751h-.018Zm-.662-1.866a1.38 1.38 0 0 0-.358-.933 1.2 1.2 0 0 0-.895-.377c-.376 0-.68.125-.949.394-.25.252-.376.521-.376.808 0 .377.108.7.34.969.233.287.537.413.913.413.358 0 .663-.126.931-.377.269-.233.394-.538.394-.897Zm5.317-.108c0 .592-.18 1.077-.537 1.454-.376.395-.842.592-1.432.592-.537 0-.95-.18-1.271-.521v1.687h-.68v-5.007h.644v.449c.16-.179.358-.305.555-.395.215-.089.43-.125.68-.125.52 0 .984.179 1.378.52.448.359.663.808.663 1.346Zm-.698.09c0-.359-.126-.664-.376-.915a1.279 1.279 0 0 0-.931-.377c-.376 0-.68.143-.931.412a1.28 1.28 0 0 0-.34.898c0 .323.09.592.286.843.233.287.573.431 1.02.431.359 0 .663-.126.913-.377.251-.233.359-.538.359-.915Zm5.192 1.884h-.645v-.466c-.322.358-.77.538-1.325.538-.519 0-.966-.18-1.342-.521-.394-.376-.59-.843-.59-1.417 0-.592.214-1.077.626-1.454.376-.359.841-.52 1.36-.52.537 0 .967.179 1.29.556v-.467h.644v3.751h-.018Zm-.645-1.866a1.38 1.38 0 0 0-.358-.933 1.199 1.199 0 0 0-.895-.377c-.376 0-.68.125-.949.394-.25.252-.376.521-.376.808 0 .377.108.7.34.969.233.287.537.413.913.413.358 0 .663-.126.931-.377.25-.233.394-.538.394-.897Zm5.137.628c-.215.431-.466.754-.752.969a1.913 1.913 0 0 1-1.163.359c-.52 0-.985-.18-1.379-.556-.412-.395-.626-.862-.626-1.436h.035s0 .018-.018.036c0-.592.197-1.077.61-1.454a1.81 1.81 0 0 1 1.288-.52c.465 0 .86.125 1.217.359.34.233.609.574.77 1.005h-.752c-.25-.449-.662-.682-1.217-.682-.358 0-.645.125-.877.376a1.309 1.309 0 0 0-.358.916c0 .359.125.682.376.933.25.251.555.377.913.377.232 0 .465-.054.68-.18a1.44 1.44 0 0 0 .501-.484h.752v-.018Zm3.885 1.238h-.68v-2.154c0-.287-.09-.538-.287-.717a.997.997 0 0 0-.716-.288c-.286 0-.519.09-.698.252a.905.905 0 0 0-.268.682v2.225h-.68v-5.007h.68v1.561a1.32 1.32 0 0 1 .984-.395c.43 0 .806.144 1.128.449.34.323.52.736.52 1.238v2.154h.017Zm4.439-1.615h-3.168c.054.323.215.574.466.772.232.161.483.251.751.251.251 0 .484-.072.717-.216.232-.143.393-.341.483-.574h.698c-.179.503-.465.862-.841 1.113-.323.215-.68.323-1.074.323-.502 0-.931-.18-1.29-.539a1.991 1.991 0 0 1-.572-1.435c0-.592.197-1.077.608-1.436a1.866 1.866 0 0 1 1.307-.502c.502 0 .95.161 1.307.502.412.377.627.897.627 1.543v.198h-.018Zm-.697-.628a1.208 1.208 0 0 0-.466-.682 1.217 1.217 0 0 0-.77-.269c-.358 0-.662.125-.895.359a1.224 1.224 0 0 0-.34.592h2.47Zm-49.535-3.015s-12.441 7.609-.716 15.164c2.256 1.472 10.437 5.564 10.204 9.35 0 0 4.959-7.358-2.291-11.988-7.448-4.738-9.31-9.798-7.197-12.526Zm-4.332 14.536s-4.44 6.748 4.296 8.13c.86.108 7.179.772 8.826 2.853 0 0-.143-3.589-5.299-5.706-5.138-2.118-7.25-2.639-7.823-5.277Z" fill="#fff"/><path d="M48.601 279.549c-5.334-5.599-6.82-9.062-4.529-13.549 0 0-15.914 6.138-.197 17.031 5.621 3.894 4.69 7.878 4.69 8.022.878-.915 5.371-5.904.036-11.504Zm149.853 6v-4.613c0-.883-.393-1.423-1.18-1.423-.983 0-1.671 1.08-1.671 2.503v3.533h-1.622v-5.251c0-.589-.049-1.423-.098-1.914h1.327c.147 0 .197.049.197.197v.883h.049c.196-.344.688-1.227 2.212-1.227 1.572 0 2.408 1.031 2.408 2.257v5.055h-1.622Zm-12.73-1.57c.049 0 .098.049.098.147.049.343.049.883.049 1.08-.344.147-1.032.49-1.867.49-2.163 0-3.49-1.276-3.49-3.729 0-2.307 1.179-3.73 3.49-3.73.786 0 1.474.245 1.867.491 0 .245 0 .834-.049 1.079 0 .099-.049.148-.098.148s-.098 0-.148-.049c-.54-.246-1.032-.393-1.474-.393-1.376 0-1.966.883-1.966 2.405 0 1.374.442 2.404 1.966 2.404.59 0 1.081-.196 1.425-.343.148.049.148 0 .197 0Zm5.603 1.57c-.147 0-.246-.049-.246-.245 0-.246-.049-.687-.049-.687-.098.147-.688 1.03-2.162 1.03-1.426 0-2.212-1.079-2.212-2.306 0-1.669 1.622-2.503 4.03-2.503h.295v-.245c0-.737-.541-1.129-1.524-1.129-.884 0-1.622.294-1.917.442 0 0-.049.049-.098.049s-.098-.049-.098-.148c0-.245-.049-.785-.049-1.128.295-.098 1.278-.491 2.359-.491 2.113 0 3.047.981 3.047 2.552v2.797c0 1.031.099 1.669.148 1.963-.148.049-1.376.049-1.524.049Zm-.344-3.582h-.295c-2.064 0-2.457.687-2.457 1.423 0 .589.393 1.129 1.13 1.129 1.032 0 1.573-.982 1.573-2.013v-.539h.049Zm-20.398 2.012c.099 0 .099.098.099.147.049.294.049.981.049 1.178-.197.049-1.032.392-2.212.392-2.261 0-3.637-1.177-3.637-3.729 0-2.16 1.179-3.73 3.293-3.73 2.064 0 3.047 1.374 3.047 3.092 0 .196 0 .54-.049.981h-4.571c0 1.227.787 2.11 2.212 2.11.786 0 1.425-.294 1.671-.392 0 0 .049-.049.098-.049Zm-3.981-2.699h2.998c.049-1.129-.54-1.816-1.474-1.816-.934 0-1.524.687-1.524 1.816Zm-4.522 4.269v-4.564c0-.834-.344-1.472-1.179-1.472-.934 0-1.475 1.031-1.475 2.503v3.533h-1.622v-4.564c0-.736-.295-1.423-1.18-1.423-.983 0-1.474 1.031-1.474 2.552v3.484h-1.622v-5.202c0-.687-.049-1.619-.098-1.963h1.278c.147 0 .196.049.196.197v.883h.049c.099-.196.639-1.227 2.114-1.227 1.376 0 1.917.982 2.064 1.325.148-.245.737-1.325 2.163-1.325 1.474 0 2.457.785 2.457 2.356v4.956h-1.671v-.049Zm11.993-3.484v3.484h-1.622v-5.3c0-.491-.049-1.472-.098-1.816h1.327c.147 0 .196.049.196.197v.883h.05c.147-.294.589-1.227 1.916-1.227.443 0 .787.147.836.147 0 .295-.049.982-.049 1.178 0 .098-.049.147-.098.147h-.099c-.098-.049-.344-.098-.688-.098-.835-.049-1.671.589-1.671 2.405Zm3.49 3.484v-7.116h1.622v7.165h-1.622v-.049Zm0-8.146v-1.571h1.671v1.571h-1.671Zm-26.542 8.146-.737-2.11h-3.981l-.738 2.11h-1.72l3.588-9.373h1.868l3.49 9.373h-1.77Zm-2.752-7.655-1.573 4.269h3.096l-1.523-4.269Zm48.659 19.531c2.114 0 3.146-.883 3.146-2.159 0-1.276-.885-1.816-1.868-2.11-.295-.099-.54-.197-.786-.246-.639-.196-.983-.491-.983-.932 0-.442.393-.736 1.229-.736.737 0 1.376.294 1.622.441.049 0 .098.049.147.049.049 0 .098-.049.098-.147 0-.245.049-.687.049-1.079-.196-.099-.884-.442-2.064-.442-1.72 0-2.802.932-2.802 2.11s.787 1.669 1.672 1.963c.196.049.589.196.786.245.934.295 1.18.589 1.18.982 0 .54-.59.834-1.622.834a3.558 3.558 0 0 1-1.622-.392c-.049 0-.049-.05-.148-.05-.098 0-.098.148-.098.197 0 .098-.049.834-.049 1.079.196 0 .983.393 2.113.393Zm-3.784-1.718c.098 0 .098.099.147.148.049.294.049.981.049 1.177-.196.049-1.032.393-2.212.393-2.26 0-3.637-1.178-3.637-3.73 0-2.159 1.18-3.729 3.293-3.729 2.065 0 3.048 1.374 3.048 3.091 0 .197 0 .54-.049.982h-4.571c0 1.227.786 2.11 2.211 2.11.787 0 1.426-.294 1.672-.393-.05-.049-.05-.049.049-.049Zm-4.031-2.748h2.998c.05-1.128-.54-1.815-1.474-1.815-.934.049-1.475.736-1.524 1.815Zm-4.472 4.319v-4.613c0-.884-.394-1.423-1.18-1.423-.983 0-1.671 1.079-1.671 2.502v3.534h-1.622v-5.251c0-.589-.049-1.423-.099-1.914h1.328c.147 0 .196.049.196.196v.884h.049c.197-.344.688-1.227 2.212-1.227 1.524 0 2.409 1.03 2.409 2.257v5.055h-1.622Zm-14.795-3.484v3.484h-1.622v-5.3c0-.491-.049-1.472-.098-1.816h1.327c.147 0 .196.049.196.196v.884h.05c.147-.295.589-1.227 1.917-1.227.442 0 .786.147.835.147 0 .294-.049.982-.049 1.178 0 .098-.049.147-.098.147h-.099c-.098-.049-.344-.098-.688-.098-.885-.049-1.671.589-1.671 2.405Zm5.161 3.484v-9.766h-1.622v9.766h1.622Zm-10.174 0v-7.165h1.622v7.165h-1.622Zm-.049-8.196v-1.57h1.671v1.57h-1.671Zm11.992 8.196v-7.165h1.622v7.165h-1.622Zm0-8.196v-1.57h1.672v1.57h-1.672Zm-14.401 8.196-.737-2.11h-3.981l-.787 2.11h-1.72l3.539-9.373h1.917l3.539 9.373h-1.77Zm-2.752-7.656-1.524 4.27h3.096l-1.572-4.27Z" fill="#fff"/><path d="M219.589 299.928c2.015 3.337 5.259 3.239 6.144 3.239h10.42l-12.288-14.87c-5.652.246-8.651 3.877-8.061 5.398l3.785 6.233Z" fill="url(#r)"/><path d="M215.804 293.646c0-.049-.344-.785-.344-1.668 0-3.386 2.998-5.349 6.439-6.036l1.917 2.355c-5.603.197-8.602 3.828-8.012 5.349Z" fill="url(#s)"/><path d="M220.523 282.605c-5.161 0-9.044.834-9.044 2.895 0 .736.246 1.374.885 2.503l3.44 5.643c0-.049-.344-.785-.344-1.668 0-3.386 2.998-5.349 6.439-6.036a15.466 15.466 0 0 1 2.998-.295c.836 0 1.622.049 2.212.246-.295-1.325-1.229-3.288-6.586-3.288Z" fill="url(#t)"/><path d="M206.908 279.071c1.425 2.307 1.966 2.896 5.357 2.896h6.488l-8.945-11.238c-1.966-2.454-3.097-2.896-4.915-2.896h-4.817l6.832 11.238Z" fill="url(#u)"/><defs><linearGradient id="b" x1="293.5" y1="208" x2="293.5" y2="335" gradientUnits="userSpaceOnUse"><stop stop-color="#fff"/><stop offset="1" stop-color="#fff" stop-opacity="0"/></linearGradient><linearGradient id="c" x1="274.5" y1="227" x2="274.5" y2="354" gradientUnits="userSpaceOnUse"><stop stop-color="#fff"/><stop offset="1" stop-color="#fff" stop-opacity="0"/></linearGradient><linearGradient id="d" x1="255.5" y1="258" x2="255.5" y2="385" gradientUnits="userSpaceOnUse"><stop stop-color="#fff"/><stop offset="1" stop-color="#fff" stop-opacity="0"/></linearGradient><linearGradient id="e" x1="312.5" y1="208" x2="312.5" y2="335" gradientUnits="userSpaceOnUse"><stop stop-color="#fff"/><stop offset="1" stop-color="#fff" stop-opacity="0"/></linearGradient><linearGradient id="f" x1="330.5" y1="208" x2="330.5" y2="335" gradientUnits="userSpaceOnUse"><stop stop-color="#fff"/><stop offset="1" stop-color="#fff" stop-opacity="0"/></linearGradient><linearGradient id="g" x1="349.5" y1="208" x2="349.5" y2="335" gradientUnits="userSpaceOnUse"><stop stop-color="#fff"/><stop offset="1" stop-color="#fff" stop-opacity="0"/></linearGradient><linearGradient id="h" x1="368.5" y1="208" x2="368.5" y2="335" gradientUnits="userSpaceOnUse"><stop stop-color="#fff"/><stop offset="1" stop-color="#fff" stop-opacity="0"/></linearGradient><linearGradient id="i" x1="386.5" y1="208" x2="386.5" y2="335" gradientUnits="userSpaceOnUse"><stop stop-color="#fff"/><stop offset="1" stop-color="#fff" stop-opacity="0"/></linearGradient><linearGradient id="j" x1="405.5" y1="208" x2="405.5" y2="335" gradientUnits="userSpaceOnUse"><stop stop-color="#fff"/><stop offset="1" stop-color="#fff" stop-opacity="0"/></linearGradient><linearGradient id="k" x1="423.5" y1="208" x2="423.5" y2="335" gradientUnits="userSpaceOnUse"><stop stop-color="#fff"/><stop offset="1" stop-color="#fff" stop-opacity="0"/></linearGradient><linearGradient id="l" x1="442.5" y1="208" x2="442.5" y2="335" gradientUnits="userSpaceOnUse"><stop stop-color="#fff"/><stop offset="1" stop-color="#fff" stop-opacity="0"/></linearGradient><linearGradient id="m" x1="460.5" y1="208" x2="460.5" y2="335" gradientUnits="userSpaceOnUse"><stop stop-color="#fff"/><stop offset="1" stop-color="#fff" stop-opacity="0"/></linearGradient><linearGradient id="n" x1="479.5" y1="208" x2="479.5" y2="335" gradientUnits="userSpaceOnUse"><stop stop-color="#fff"/><stop offset="1" stop-color="#fff" stop-opacity="0"/></linearGradient><linearGradient id="o" x1="497.5" y1="208" x2="497.5" y2="335" gradientUnits="userSpaceOnUse"><stop stop-color="#fff"/><stop offset="1" stop-color="#fff" stop-opacity="0"/></linearGradient><linearGradient id="p" x1="516.5" y1="208" x2="516.5" y2="335" gradientUnits="userSpaceOnUse"><stop stop-color="#fff"/><stop offset="1" stop-color="#fff" stop-opacity="0"/></linearGradient><linearGradient id="r" x1="225.932" y1="287.887" x2="225.932" y2="310.827" gradientUnits="userSpaceOnUse"><stop stop-color="#E30613"/><stop offset=".147" stop-color="#DF0813"/><stop offset=".3" stop-color="#D30D13"/><stop offset=".455" stop-color="#BF1213"/><stop offset=".611" stop-color="#A51511"/><stop offset=".768" stop-color="#86160D"/><stop offset=".81" stop-color="#7C150C"/></linearGradient><linearGradient id="s" x1="215.47" y1="289.795" x2="223.856" y2="289.795" gradientUnits="userSpaceOnUse"><stop stop-color="#6F251A"/><stop offset=".141" stop-color="#7F271B"/><stop offset=".517" stop-color="#A92B1E"/><stop offset=".816" stop-color="#C52B1E"/><stop offset="1" stop-color="#CF2B1E"/></linearGradient><linearGradient id="t" x1="214.549" y1="288.572" x2="223.885" y2="282.954" gradientUnits="userSpaceOnUse"><stop offset=".1" stop-color="#F5F7FA"/><stop offset=".364" stop-color="#E1E6EB"/><stop offset=".893" stop-color="#B0BCC3"/><stop offset="1" stop-color="#A5B3BA"/></linearGradient><linearGradient id="u" x1="209.398" y1="283.851" x2="209.398" y2="268.002" gradientUnits="userSpaceOnUse"><stop stop-color="#212B6C"/><stop offset=".139" stop-color="#0E4584"/><stop offset=".298" stop-color="#00629F"/><stop offset=".454" stop-color="#007AB8"/><stop offset=".606" stop-color="#008ECC"/><stop offset=".75" stop-color="#009CDA"/><stop offset=".885" stop-color="#00A4E3"/><stop offset="1" stop-color="#00A7E5"/></linearGradient><filter id="q" x="257.16" y="68.16" width="305.68" height="294.68" filterUnits="userSpaceOnUse" color-interpolation-filters="sRGB"><feFlood flood-opacity="0" result="BackgroundImageFix"/><feGaussianBlur in="BackgroundImage" stdDeviation="4.42"/><feComposite in2="SourceAlpha" operator="in" result="effect1_backgroundBlur_101:46"/><feBlend in="SourceGraphic" in2="effect1_backgroundBlur_101:46" result="shape"/><feColorMatrix in="SourceAlpha" values="0 0 0 0 0 0 0 0 0 0 0 0 0 0 0 0 0 0 127 0" result="hardAlpha"/><feOffset dx="-3.4" dy="3.4"/><feGaussianBlur stdDeviation="1.7"/><feComposite in2="hardAlpha" operator="arithmetic" k2="-1" k3="1"/><feColorMatrix values="0 0 0 0 1 0 0 0 0 1 0 0 0 0 1 0 0 0 0.458 0"/><feBlend in2="shape" result="effect2_innerShadow_101:46"/><feColorMatrix in="SourceAlpha" values="0 0 0 0 0 0 0 0 0 0 0 0 0 0 0 0 0 0 127 0" result="hardAlpha"/><feOffset dx="3.4" dy="-3.4"/><feGaussianBlur stdDeviation="1.7"/><feComposite in2="hardAlpha" operator="arithmetic" k2="-1" k3="1"/><feColorMatrix values="0 0 0 0 0.84 0 0 0 0 0.84 0 0 0 0 0.84 0 0 0 0.458 0"/><feBlend in2="effect2_innerShadow_101:46" result="effect3_innerShadow_101:46"/></filter></defs></svg>