<svg width="542" height="335" fill="none" xmlns="http://www.w3.org/2000/svg"><path fill="#0070CC" d="M0 0h542v335H0z"/><mask id="a" style="mask-type:alpha" maskUnits="userSpaceOnUse" x="286" y="92" width="256" height="243"><path fill="#0070CC" d="M286 92h256v243H286z"/></mask><g mask="url(#a)" stroke-miterlimit="10"><path d="M384.903 99v125.813" stroke="#fff" stroke-opacity=".2"/><path d="M400.042 105.913v118.9" stroke="#fff" stroke-opacity=".2" stroke-width="1.636"/><path d="M415.181 112.826v111.987" stroke="#fff" stroke-opacity=".2" stroke-width="2.273"/><path d="M430.32 119.669v105.144" stroke="#fff" stroke-opacity=".2" stroke-width="2.909"/><path d="M445.528 126.582v98.231" stroke="#fff" stroke-opacity=".2" stroke-width="3.546"/><path d="M460.667 133.495v91.318" stroke="#fff" stroke-opacity=".2" stroke-width="4.182"/><path d="M475.806 140.408v84.405" stroke="#fff" stroke-opacity=".2" stroke-width="4.818"/><path d="M490.945 147.32v77.493" stroke="#fff" stroke-opacity=".2" stroke-width="5.455"/><path d="M506.084 154.233v70.58" stroke="#fff" stroke-opacity=".2" stroke-width="6.091"/><path d="M521.223 161.146v63.667" stroke="#fff" stroke-opacity=".2" stroke-width="6.727"/><path d="M536.362 167.99v56.823" stroke="#fff" stroke-opacity=".2" stroke-width="7.364"/><path d="M482.512 389.89V237.117" stroke="#fff" stroke-opacity=".2"/><path d="M465.368 381.595V237.117" stroke="#fff" stroke-opacity=".2" stroke-width="1.636"/><path d="M448.224 373.368V237.117" stroke="#fff" stroke-opacity=".2" stroke-width="2.273"/><path d="M431.081 365.073V237.117" stroke="#fff" stroke-opacity=".2" stroke-width="2.909"/><path d="M413.937 356.778V237.117" stroke="#fff" stroke-opacity=".2" stroke-width="3.546"/><path d="M396.793 348.482V237.117" stroke="#fff" stroke-opacity=".2" stroke-width="4.182"/><path d="M379.649 340.256V237.117" stroke="#fff" stroke-opacity=".2" stroke-width="4.818"/><path d="M362.575 331.961v-94.844" stroke="#fff" stroke-opacity=".2" stroke-width="5.455"/><path d="M345.431 323.665v-86.548" stroke="#fff" stroke-opacity=".2" stroke-width="6.091"/><path d="M328.287 315.37v-78.253" stroke="#fff" stroke-opacity=".2" stroke-width="6.727"/><path d="M311.144 307.075v-69.958" stroke="#fff" stroke-opacity=".2" stroke-width="7.364"/><path d="M294 298.849v-61.732" stroke="#fff" stroke-opacity=".2" stroke-width="8"/><path d="M360.017 156.238v157.266" stroke="#F6F6F6"/><path d="M377.506 164.395v152.703" stroke="#F6F6F6" stroke-width="1.778"/><path d="M394.927 172.483v148.279" stroke="#F6F6F6" stroke-width="2.556"/><path d="M412.347 180.64v143.717" stroke="#F6F6F6" stroke-width="3.333"/><path d="M429.767 188.728v139.293" stroke="#F6F6F6" stroke-width="4.111"/><path d="M447.187 196.885v134.73" stroke="#F6F6F6" stroke-width="4.889"/><path d="M464.607 204.973v130.306" stroke="#F6F6F6" stroke-width="5.667"/><path d="M482.028 213.13v125.744" stroke="#F6F6F6" stroke-width="6.444"/><path d="M499.448 221.218v121.25" stroke="#F6F6F6" stroke-width="7.222"/><path d="M516.937 229.375v116.757" stroke="#F6F6F6" stroke-width="8"/></g><path d="M63.297 297.463v-1.005c-.698 1.094-1.647 1.794-2.847 2.063-1.2.27-2.38.18-3.544-.287-1.182-.466-2.184-1.346-3.026-2.62-.84-1.274-1.27-2.943-1.27-5.025 0-2.44.554-4.397 1.664-5.922 1.11-1.507 2.9-2.261 5.37-2.261 1.88 0 3.617.502 5.228 1.525 1.611 1.023 2.399 2.907 2.399 5.653v8.291c0 2.746-.806 4.613-2.399 5.618-1.611 1.005-3.348 1.507-5.227 1.507-3.599 0-5.836-1.687-6.695-5.061h4.278c.304.557.788.969 1.432 1.274.645.288 1.29.377 1.934.234.644-.144 1.235-.521 1.754-1.149.555-.646.86-1.579.949-2.835Zm-6.695-6.766c0 2.71.787 4.217 2.345 4.504 1.557.288 2.72-.071 3.455-1.094.358-.431.608-1.113.77-2.028a8.83 8.83 0 0 0 .035-2.746 5.597 5.597 0 0 0-.967-2.405c-.5-.7-1.253-1.059-2.237-1.059-1.325 0-2.238.485-2.703 1.472-.466.969-.698 2.1-.698 3.356Zm25.008 7.699h-2.06c-.59 0-1.074-.18-1.432-.556-.376-.377-.555-.862-.555-1.436V288.4c0-.933-.286-1.633-.86-2.064a3.084 3.084 0 0 0-1.915-.646c-.698 0-1.325.215-1.88.646-.554.431-.823 1.113-.823 2.064v10.014H67.97v-9.189c0-2.674.698-4.45 2.076-5.348 1.397-.897 2.918-1.399 4.601-1.471 1.719 0 3.312.448 4.762 1.346 1.45.897 2.166 2.728 2.166 5.473v9.171h.036Zm1.002-14.285h4.118v14.303h-4.118v-14.303Zm11.672 14.285a33.37 33.37 0 0 1-4.189-.054c-1.503-.126-2.255-1.077-2.255-2.89v-15.308h2.112c.501 0 .967.198 1.343.592.394.395.59.862.59 1.418v.539h2.4v.825c0 .592-.198 1.077-.591 1.436-.394.377-.86.556-1.415.556h-.411v8.812c0 .664.394 1.005 1.181 1.005h1.235v3.069Z" fill="#fff"/><path d="M105.49 293.568h2.936c-.429 1.651-1.253 2.907-2.47 3.769-1.217.897-2.739 1.346-4.583 1.346-2.238 0-3.974-.718-5.227-2.172-1.253-1.417-1.88-3.427-1.88-6.066 0-2.512.609-4.468 1.826-5.886 1.253-1.454 2.99-2.171 5.227-2.171 2.346 0 4.171.699 5.46 2.117 1.253 1.454 1.88 3.464 1.88 6.066v.646c0 .198-.018.341-.054.413h-10.15c.036 1.22.34 2.118.877 2.71.502.628 1.271.933 2.292.933.662 0 1.235-.144 1.7-.413a.643.643 0 0 0 .323-.215l.322-.323c.036-.126.179-.269.447-.467.251-.179.609-.287 1.074-.287Zm-7.035-4.576h5.997c-.071-1.059-.358-1.849-.823-2.351-.502-.556-1.235-.826-2.166-.826-.86 0-1.558.27-2.113.826-.573.538-.859 1.328-.895 2.351Zm-50.841-12.078h2.112c.555 0 1.02.198 1.414.593.394.394.591.861.591 1.417v19.49h-4.117v-21.5Zm34.998 3.231h2.113c.555 0 1.02.197 1.414.592.394.395.59.861.59 1.418v1.238h-4.117v-3.248Zm-24.597.215h-.644v-.466c-.322.358-.77.538-1.325.538-.519 0-.966-.18-1.342-.521-.394-.376-.591-.843-.591-1.417 0-.592.215-1.077.626-1.454.376-.359.842-.52 1.36-.52.538 0 .968.179 1.29.556v-.467h.644v3.751h-.018Zm-.662-1.866a1.38 1.38 0 0 0-.358-.933 1.2 1.2 0 0 0-.895-.377c-.376 0-.68.125-.949.394-.25.252-.376.521-.376.808 0 .377.108.7.34.969.233.287.537.413.913.413.358 0 .663-.126.931-.377.269-.233.394-.538.394-.897Zm5.317-.108c0 .592-.18 1.077-.537 1.454-.376.395-.842.592-1.432.592-.538 0-.95-.18-1.271-.521v1.687h-.68v-5.007h.644v.449c.16-.179.358-.305.555-.395.215-.089.43-.125.68-.125.52 0 .985.179 1.378.52.448.359.663.808.663 1.346Zm-.698.09c0-.359-.126-.664-.376-.915a1.279 1.279 0 0 0-.931-.377c-.376 0-.68.143-.931.412a1.28 1.28 0 0 0-.34.898c0 .323.09.592.286.843.233.287.573.431 1.02.431.359 0 .663-.126.913-.377.251-.233.359-.538.359-.915Zm5.192 1.884h-.645v-.466c-.322.358-.77.538-1.325.538-.519 0-.966-.18-1.342-.521-.394-.376-.59-.843-.59-1.417 0-.592.214-1.077.626-1.454.376-.359.841-.52 1.36-.52.537 0 .967.179 1.29.556v-.467h.644v3.751h-.018Zm-.645-1.866a1.38 1.38 0 0 0-.358-.933 1.199 1.199 0 0 0-.895-.377c-.376 0-.68.125-.949.394-.25.252-.376.521-.376.808 0 .377.108.7.34.969.233.287.537.413.913.413.358 0 .663-.126.931-.377.25-.233.394-.538.394-.897Zm5.137.628c-.215.431-.466.754-.752.969a1.913 1.913 0 0 1-1.163.359c-.52 0-.985-.18-1.379-.556-.412-.395-.626-.862-.626-1.436h.035s0 .018-.018.036c0-.592.197-1.077.61-1.454a1.81 1.81 0 0 1 1.288-.52c.465 0 .86.125 1.217.359.34.233.609.574.77 1.005h-.752c-.25-.449-.662-.682-1.217-.682-.358 0-.645.125-.877.376a1.309 1.309 0 0 0-.358.916c0 .359.125.682.376.933.25.251.555.377.913.377.232 0 .465-.054.68-.18a1.44 1.44 0 0 0 .501-.484h.752v-.018Zm3.885 1.238h-.68v-2.154c0-.287-.09-.538-.287-.717a.997.997 0 0 0-.716-.288c-.286 0-.519.09-.698.252a.905.905 0 0 0-.268.682v2.225h-.68v-5.007h.68v1.561a1.32 1.32 0 0 1 .984-.395c.43 0 .806.144 1.128.449.34.323.52.736.52 1.238v2.154h.017Zm4.439-1.615h-3.168c.054.323.215.574.466.772.232.161.483.251.751.251.251 0 .484-.072.717-.216.232-.143.393-.341.483-.574h.698c-.179.503-.465.862-.841 1.113-.323.215-.68.323-1.074.323-.502 0-.931-.18-1.29-.539a1.991 1.991 0 0 1-.572-1.435c0-.592.197-1.077.608-1.436a1.866 1.866 0 0 1 1.307-.502c.502 0 .95.161 1.307.502.412.377.627.897.627 1.543v.198h-.018Zm-.697-.628a1.208 1.208 0 0 0-.466-.682 1.216 1.216 0 0 0-.77-.269c-.358 0-.662.125-.895.359a1.224 1.224 0 0 0-.34.592h2.47Zm-49.535-3.015s-12.442 7.609-.716 15.164c2.256 1.472 10.437 5.564 10.204 9.35 0 0 4.959-7.358-2.291-11.988-7.448-4.738-9.31-9.798-7.197-12.526Zm-4.332 14.536s-4.44 6.748 4.296 8.13c.86.108 7.179.772 8.826 2.853 0 0-.143-3.589-5.299-5.706-5.138-2.118-7.25-2.639-7.823-5.277Z" fill="#fff"/><path d="M42.601 282.549c-5.334-5.599-6.82-9.062-4.529-13.549 0 0-15.914 6.138-.197 17.031 5.621 3.894 4.69 7.878 4.69 8.022.878-.915 5.371-5.904.036-11.504Z" fill="#fff"/><path fill-rule="evenodd" clip-rule="evenodd" d="M180.499 292.245v4.498c-1.303 1.019-4.37 2.145-7.72 2.145-5.166 0-10.131-3.508-10.131-9.625 0-5.88 5.023-9.72 10.017-9.72 3.182 0 4.796 1.1 5.932 1.1.599 0 .995-.725 1.02-.951h.516c0 2.145.191 4.61.421 5.945l-.541.026c-1.021-3.28-4.484-4.875-7.121-4.818-4.25.06-6.583 3.828-6.583 8.13 0 4.632 2.519 8.552 6.754 8.552 1.5 0 3.486-.382 4.199-1.22v-4.064c0-2.261-1.192-2.815-2.099-2.815v-.543h7.487v.543c-.907.002-2.151.555-2.151 2.817Zm-22.925-6.722V299h-.77l-12.709-15.617c.062.192.088.607.088 1.149v9.455c0 3.306.761 4.265 2.438 4.265v.495h-6.355v-.495c1.729 0 2.469-.957 2.469-4.265v-11.309c0-1.591-1.337-2.438-2.947-2.438v-.548h5.469l10.844 13.101c-.031-.55-.031-.66-.031-1.148v-6.123c0-2.269 0-5.282-2.328-5.282v-.548h6.046v.548c-2.329.002-2.214 3.015-2.214 5.283Zm-23.183-2.55V295c0 1.107-.254 3.252 2.072 3.252v.495h-7.399v-.495c2.322 0 2.093-2.145 2.093-3.252v-12.027c0-2.268-1.27-2.731-2.157-2.731v-.549h7.605v.549c-.965 0-2.214.463-2.214 2.731Zm63.071 9.507c-.078-.153-.453-.387-1.12-.687-.447-.228-1.189-.455-1.49-.455h-.6a5.604 5.604 0 0 0-.447.537c0-.007.895.075 1.348.147.292.071.516.306.812.533-.071.225.975.922.975.922 0 .15-.151.45-.151.45-.369-.3-1.266-.759-2.016-.984-.223-.085-.743-.085-1.187 0 0 .147-.15.375-.15.375.37.16 1.192.379 1.562.687.447.228.746.53 1.041.84 0 .303-.144 1.295-.144 1.295-.225-.533-.448-.993-.672-1.152a4.283 4.283 0 0 0-.746-.378c-.297-.147-.447-.147-1.041-.303-.151 0-.448.156-.448.075 0 0-.15.378 0 .686.522.379.75.612.968.915.225.465.372.762.297 1.14-.072.465-.37.919-.515 1.38a.524.524 0 0 1-.302.297h-.6c0-.68.447-1.367.297-2.128-.072-.154-.219-.31-.37-.31-.078 0-.299.088-.449.761-.078.534 0 1.152 0 1.677h-.821c-.074-.983-.074-2.053.223-2.965.078-.228.375-.687.453-.915a4.05 4.05 0 0 0-.676-.16c-.297-.068-.516-.068-.589 0-.15.228-.228.31-.375.618-.072.229-.152.455-.152.53 0 .075.447 0 .527.075.37.31.073.99.073.99-.153-.153.067-.68-.678-.303 0 .232 0 .533-.069.837 0 .235 0 .378.069.611 0 .225.078.452.156.68h-.823s-.369-1.058-.297-1.751c.074-.599.145-1.215.225-1.67-.447-.075-.897-.075-1.043.303-.079.303.296.53.296.837-.15.075-.671.228-.821.605-.219.693.071.996.225 1.676h-.746c-.223-.228-.745-1.291-.593-1.898.147-.31.372-.69.745-.837-.073-.31 0-.618.219-.918.118-.228.288-.423.496-.569.208-.147.447-.239.697-.271.374-.075.672.075.9.157.219-.615.669-.837 1.261-.837.375 0 .745.15 1.12.378l.225-.686c.447-1.14.672-2.129 1.265-3.2.225 0 .746-.075.969 0 .895.303 1.49.611 1.865.908.302.163.224.458 1.042.768-.075.157-.148.459-.22.687Zm-3.064-13.027c-.743.38-1.04.767-1.187.91-.225.304-.672.767-.822.997l-.073-.92c-.078-.218-.078-.218-.078-.683.373-.234.526-.387.895-.607.15-.153.672-.313 1.417-.537 0 .307-.073.537-.152.84Zm-1.337 4.722c-.073.153-.225.223-.225.223a1.058 1.058 0 0 0-.15-.451c-.073-.229-.073-.457-.145-.687 0-.228-.073-1.07-.073-1.215v-.383c.298-.149.667-.382.97-.532-.078.383-.152.532-.152 1.14 0 .155.152.613.225 1.147-.153.301-.228.53-.45.758Zm1.337-8.38c-.218.155-.29.075-.368.23-.375.31-.522.458-.819.682-.15.153-.15.153-.297.383 0 0-.078-.837-.15-1.295.297-.153.447-.308.746-.537-.072-.453-.15-.756-.15-1.133 0-.23 0-.458.15-.693.146-.304.521-.304.818-.229-.073.532-.147.692-.147 1.299 0 .07.147.458.219.601.085.141.136.299.152.464-.002.075-.075.155-.154.228Zm.23 1.673c-.076.16-.151.08-.301.23-.074.08-.891.692-.969.76-.166.103-.315.23-.444.379-.078-.224-.078-.449-.15-.682 0-.07 0-.607.072-.837 0-.155.672-.376 1.047-.456.147 0 .745-.154.817 0 .073.153-.072.153-.072.606Zm-1.27 8.08c0 .149-.225.31-.225.31 0-.31-.072-.696-.072-.846-.073-.15-.147-.23-.147-.384.072-.073.219-.143.371-.23.073-.146.453-.376.521-.451.225.23.304.305.447.681-.073.084-.515.464-.895.92Zm.672 1.599c-.147.155-.292.228-.444.305a6.186 6.186 0 0 0-.525-1.22s1.12-.452 1.416-.452c.073.143.151.378.296.533-.145.147-.593.61-.743.834Zm.968 1.143c-.071.228 0 .383-.071.605 0 .157-.971.687-.971.687.074-.304 0-.53 0-.759a1.32 1.32 0 0 0-.15-.693c-.068-.15-.068-.297-.15-.452 0-.078.525-.078.744-.078.23 0 .527-.15.672-.072-.074.225-.074.604-.074.762Zm9.838-16.453c-.225 0-.373-.08-.598-.157-.147-.148-.813-.383-1.189-.383-.447 0-.745.613-1.27.911-.219.084-.672.154-1.116.314-.297.143-.447.23-.447.073-.073-.303-.073-.607-.073-.917-.223-.073-.527-.073-.745-.223-.15.533-.303.752-.447.985-.303-.15-.6-.233-.902-.452-.37-.235-1.26-.761-1.337-.921-.292.308-1.189.84-1.714 1.14a6.03 6.03 0 0 1-.521.765l-.739-.31c.145-.304.292-.457.442-.757.297-.452.745-.84 1.042-1.14.815-.308.815-.457 1.785-.612.375.452 1.417 1.139 1.417 1.139 0 .16.079-.069.375-.984.225.15.375.15.6.299.069 0 .297.08.297.08.069 0 .52-.229.594-.304.15-.073.817-.228.817-.228.078.073-.225.612-.225.682v.616c.078 0 .153 0 .303-.08.375-.148.447-.835.594-1.373.225.075.375.075.6.075 0 .308-.15.762.071.762.225 0 .525-.299.976-.682.74.303 1.488.767 2.155 1.218-.223.159-.442.464-.745.464Zm1.265 9.9c-1.046-.607-2.082-.687-2.604-.84v.616c.297.075.449.224.741.304.151.075 1.27.681 1.64.916 0 .149 0 .459-.152.459-1.04-.694-1.707-.922-2.53-1.299-.147.154-.221.377-.449.532-.072.073-.593-.38-.895-.532-.219-.155-.667-.23-.97-.303-.072 0-.072-.155-.072-.23-.072-.23-.145-.463-.072-.537.369-.155.519-.458.519-.693 0-.223.225.09.443 0 .152-.143.23-.297.152-.453 0-.154-.073-.309-.219-.309a3.101 3.101 0 0 0-2.312 0c-.223.085-.223.387-.145.617.073.303.37.143.589 0 .078 0-.069.235.078.453.15.314.447.384.447.457 0 .233 0 .233-.072.383 0 .154 0 .31-.152.382-.446.075-.815.23-1.265.383-.223.074-.447.3-.672.3-.147 0-.297-.3-.37-.38-.152 0-.152-.073-.448 0-.741.304-1.788.837-2.538 1.294-.145-.149-.071-.379-.145-.527a15.743 15.743 0 0 1 2.611-1.373c.072-.08 0-.31-.078-.464 0 0-.521-.073-1.491.234-.598.15-1.27.531-1.342.531 0 0-.073-.228-.073-.531.448-.234.97-.464 1.417-.612.527-.155 1.043-.155 1.568-.23-.078 0-.078-.16-.078-.223-.218-.464-.588-.842-.963-1.23-.157-.292-.302-.682-.302-.835.143-.144.302.085.525.085a2.718 2.718 0 0 1-.157-.847c-.068-.297-.068-.297-.068-.682 0-.456.147-.686.068-.761a1.22 1.22 0 0 0-.442-.229c-.151-.08-.223-.08-.296-.23-.229-.376-.454-.68-.454-1.063 0-.38.152-.688.304-1.072.071-.303.446-.451.665-.606.225-.154.448-.074.673-.074.526 0 .969.297 1.338.527.269.208.456.509.526.847h.672c.369.07.744.15 1.19.38.521-.464 1.413-.539 1.866-.539 0-.835.595-1.293 1.042-1.293.37-.08.6-.15 1.115.08.374.23.895.985.895 1.063.152.31.074.689.074 1.14-.074.304-.074.534-.074.614-.073.303-.441.533-.671.613 0 .532-.152.837-.224 1.287 0 .23-.073.458-.147.688.219-.07.297-.228.521-.228-.15.995-.374.846-.599 1.298a2.505 2.505 0 0 1-.443.91c-.079.08-.15.16-.369.313-.152.07 0 .144 0 .219.74 0 1.631.228 2.826.84.078.083-.072.236-.152.46Zm-10.281 17.061h-1.12c-.073-.071 0-.228.072-.296.151-.384 0-1.23.522-1.23.303.16.525.543.6.696 0 .15-.074.83-.074.83Zm-.151-13.1c-.146-.073-.297-.148-.297-.233a4.189 4.189 0 0 1-.15-.91c0-.303.15-.608.301-.608.146.075.372.155.442.305.147.233 0 .531.072.761.073.382.303 1.07.303 1.07-.228-.161-.446-.225-.671-.385Zm1.12 3.814c-.077.071-.302.143-.447.228-.147 0-.375.147-.6.075.152-.383.223-.458.37-.762 0-.068.083-.228.15-.458 0-.462.157-1.065.157-1.065h.442c.078-.078.225-.155.296 0 0 .225-.071.53 0 .687v.533c-.07.147-.295.68-.368.762Zm.522-16.154c-.224-.155-.371-.155-.522-.155-.302.075-.822.229-.969.692 0 .07-.078.38.145.677.147.303.454.533.605.686.219 0 .292-.383.667-.6.147-.155.594-.463.594-.463.072 0 .072-.07.072-.15-.146-.537-.296-.537-.592-.687Zm.223 13.257c-.15-.23-.223-.533-.297-.757-.078-.235-.23-.393-.375-.613.078-.085.145-.692.145-.692.079-.07.23.074.302.074.223.155.297.31.37.463.078.153.152.532.152.532 0 .535-.224.69-.297.993Zm1.49-10.28h-.975c-.37 0-.665 0-1.042.063.152.31.525.617.672.765.152.155.302.305.599.305.298-.07.298 0 .448-.07 0 .15.072.38 0 .529 0 .073.072.686-.225.766-.225.074-.522.229-.672.457-.151.218-.225.607 0 .757.15.08.297-.15.52-.23.225-.074.225-.224.297-.452.15-.153.447-.228.525-.388v-.224c.074-.686.074-.835.145-1.295 0-.08.079-.53.079-.611.004-.15-.146-.309-.371-.372Zm-.15 12.792c-.146.303-.296.383-.521.526-.147 0-.819.16-.819.16.073-.16.225-.303.298-.533.055-.27.156-.527.297-.762.15 0 .297-.075.449-.075.15 0 .375 0 .375.075.071.307-.002.379-.079.609Zm-.521-8.374c-.225 0-.521.07-.521.07s.072.309.15.457c.225-.075.297-.15.444-.23 0 0 .303-.153.375-.228-.152-.069-.298-.069-.448-.069Zm3.952 2.965c0 .08-.15.384-.301.534-.225-.305-.672-.609-.672-.609.072.304 0 .379-.074.755 0 .087-.518.087-.518.087-.449-.233-.522-.538-.522-.538 0 .075-.073.608-.375.608-.297 0-.522 0-.522-.225-.072-.228-.072-.383-.072-.612v-.303c-.225.073-.375.303-.521.452-.079 0-.15-.15-.225-.15a3.477 3.477 0 0 1-.297-.835c.747-.537 1.49-.614 2.162-.614.74 0 1.486.075 2.084.464-.002.3-.002.683-.147.986Zm-2.906-8.843c-.15 0-.375.153-.6.313-.223.23-.375.299-.375.532h.375c.375 0 .449.15.6-.08.219-.303.442-.452.442-.767 0-.148-.296-.068-.442.002Zm-.15 12.803s-.746-.755-.746-1.065c0-.23-.297-.606.073-.606 0-.149.375.073.52.073a.386.386 0 0 1 .37.23c.079.228 0 .455.079.68 0 .228.218.608 0 .843-.146-.155-.146-.08-.296-.155Zm9.463 8.992c-.073-.078-.073-.153-.073-.222-.15-.31-.15-.54-.229-.843-.071-.082-.218-.16-.296-.228-.225-.16-.442-.232-.6-.31-.146 0-.442-.15-.588-.15 0 .15.442.3.666.99.078.075.151.683.151.836-.151 0-.229.157-.375.229-.296-.612-.812-1.292-.89-1.449-.225-.221-.527-.915-.897-.915-.442 0-.593.082-1.047.235-.145 0-.145.144-.368.304 0 0-.219-.16-.297-.16-.073 0-.372-.069-.75-.144-.142-.085-.372-.153-.515-.085-.074 0-.299.229-.374.31-.073.079-.151.235-.225.379 0 0 .447.16.599.16.218.075.515.303.515.303.156 0 .307-.228.453-.303.145 0 .447 0 .594.075.447.075.89.228.89.68 0 .31-.14.383 0 .911 0 .315.672.235.975.469-.151.143-.303.378-.522.446-.151 0-.453.157-.671-.068-.079.383-.225.68-.225.68h-.896a.548.548 0 0 0 .152-.297c.15-.383.223-.761.297-1.146.072-.235.072-.455.072-.687-.292-.078-.444-.078-.667.075a.582.582 0 0 0-.145.378c-.079.235 0 .384-.079.694-.072.371-.15.303-.15.983h-.593s-.074-.297-.074-.68v-.378c.074-.235.074-.31.074-.694 0-.228 0-.378-.224-.53-.15-.068-.303-.068-.448-.156-.095.242-.146.5-.152.761-.078.15.074 1.677.074 1.677h-.596c-.296-.612-.593-1.752-.593-1.98.073-.458.073-.755.372-1.065 0 0 0-.075-.075-.075-.222 0-.297-.075-.447.075-.224.078-.449.228-.449.228-.071.609-.223 1.289-.145 1.674.145.461.297.846.37 1.143h-.821c-.292-.455-.516-.68-.594-1.292-.073-1.058.525-2.203.525-2.288a1.265 1.265 0 0 1 1.04-.608c.299 0 .521.081.817.31.225-.455.375-.612.522-.765.375-.379 1.719-.15 2.016-.072 0 0 .073-.157.073-.235 0-.153.37-1.068.37-1.223.225-.602.449-1.209.817-1.745.302-.15.302-.075.672-.225.375-.085.828.075 1.048.15.297.156.521.221.817.303.112.059.212.137.297.232 0 .228.225.611 0 .611-.375-.156-.52-.235-.817-.303h-1.192a3.07 3.07 0 0 0-.447.53c-.073.075-.146.15-.146.228.442 0 .442-.078.667-.078.605.078.75.153 1.12.297.225.091.52.156.817.318.078.147.15.602.15.602-.072 0-.297 0-.525-.229-.219 0-.666-.15-1.484-.228-.228 0-.975 0-1.042.153-.152.235-.073.605 0 .84.442-.235 1.192-.235 1.64-.306.22 0 1.636.686 1.783.758.375.225.75.533.9 1.22-.154.383-.379.455-.602.915Zm-8.344-6.553c-.223.078-.375.228-.603.303a1.378 1.378 0 0 1-.366.31c-.078 0-.375-.075-.375-.075 0-.378.375-.537.521-.768.071-.304.071-.53.071-.759.147-.143.447-.143.527-.143.073-.088.52-.16.52-.16s-.15 1.217-.295 1.292Zm-.448 2.438c-.224-.378-.304-.605-.304-.908.147-.082.225 0 .375-.082h.6c.072.455 0 .687.147 1.148.072.144.072.3.144.375 0 0-.739-.075-.962-.533Zm.818-5.18c-.073.155-.448.305-.522.46-.073-.235 0-.383 0-.533 0-.235 0-.379-.073-.534 0-.153-.078-.381 0-.611 0-.235.595-.299.892-.379.072.379.15.762.072.989-.072.225-.225.38-.369.608Zm1.114-12.5c-.37-.07-1.114-.303-.817 0 0 .153.222.153.369.313.156 0 .156.299.156.452.37 0 .744.08.89-.073.824-.377-.446-.692-.598-.692Zm-.073 1.46c-.219.063-.447.297-.447.373 0 0 .151.84.151.92 0 .527.079.527.079 1.065.218.144.292.144.442.304.071.153.15.303.225.456.301.149.671.304.89.532.078 0 .307-.383.307-.532.29 0-.376-.303-.679-.533-.072 0-.145-.085-.145-.085-.152-.143-.223-.448-.527-.527 0 0-.071 0-.071-.075 0-.235-.074-1.145-.074-1.145.145.309.449.309.599.309.292 0 .52-.08.667-.309 0-.075.078-.23.15-.23.15-.073.296-.153.37-.303.078 0 .151-.16.151-.16-.671-.06-2.088-.06-2.088-.06Zm.6 11.117c-.304-.15-.375-.15-.6-.232-.079-.073-.079-.228-.079-.452 0-.153-.068-.455-.068-.76 0-.148.145-.228.37-.383.072 0 .15-.075.447-.16v1.225c.078.303.225.99.225.99s-.295-.152-.295-.228Zm.223 5.028c-.298-.228-.598-.387-.823-.687-.079-.228-.079-.378-.146-.605.146-.081.297 0 .442 0 .229 0 .454.15.454.15.073.31.146.684.218.99 0 0-.072.152-.145.152Zm.824-2.285c-.307 0-.679-.078-.751-.232-.296-.451-.296-.533-.6-.836-.145-.075-.145-.232-.223-.379.223-.075.375-.075.598-.075.152-.081.297-.081.449-.081.15.156.076.39.218.533.229.228.599.687.829.837-.151.123-.33.203-.52.233Zm-1.351-9.528c-.071.085-.071.085-.071.31.375 0 .598.228.895.303 0 0 .076-.383.076-.457-.228-.07-.446-.23-.9-.156Zm2.611-7.235c-.152-.154-.223-.229-.595-.304a.812.812 0 0 0-.817.23c-.157.229-.375.537-.299.837.521.153.892.463 1.261.91a.539.539 0 0 0 .52-.38c.08-.377.158-.988-.07-1.293Zm-.52 13.715c-.074 0-.449 0-.522-.08-.147-.075-.525-.755-.525-.985a2.07 2.07 0 0 1 0-.92s.453.16.598.233c.375 0 .079.527.23.687 0 .075.072.533.37.985 0 0-.079 0-.151.08Zm.748 2.058c-.525-.382-.598-.612-.748-.99h.973c.292.303.442.378.662.533.15.147.229.304.53.53-.53.077-1.125.152-1.417-.073Zm-.078-3.427c-.078 0-.225-.155-.303-.313a5.01 5.01 0 0 1-.219-.752c.074 0 .219 0 .297.07.225 0 .225 0 .375.08 0 .15.297.687.52.917v.143a1.724 1.724 0 0 1-.67-.145Zm2.09 2.665-.673-.383c-.302-.153-.373-.307-.45-.382a1.683 1.683 0 0 1-.294-.458c.15-.228.442-.228.594-.382.15-.07.23-.148.375-.148.15.148.223.303.297.457.151.305.297.453.593.531.224.157.375.304.521.452 0 0-.521.388-.963.313Zm-1.048-8.92c-.219-.223-.219-.526-.297-.83-.15-.235.078-.383.22-.608 0-.085.077-.228.15-.308.15.223.302.378.38.68.147.463.37 1.448.37 1.448-.303-.228-.6-.148-.823-.382Zm.453-5.175a2.128 2.128 0 0 1-.15-.683c0-.308-.23-.913-.378-1.303-.142-.23-.142-.682-.142-.682.372.157.672.23.969.38v.303c.073.614.298 1.147.442 1.684 0 .23.151.456.073.68 0 0-.444-.155-.814-.379Zm1.183 11.047h-.739c-.147 0-.375 0-.444-.148a6.77 6.77 0 0 1-.672-.762c.142-.087.219-.155.372-.233.072 0 .15-.075.302-.075.225.223.443.38.74.536.297.15.672.3.969.449-.153.16-.299.16-.528.233Zm.975-8.077c-.079 0-.15-.08-.297-.155-.375-.303-.52-.68-.824-.99-.223-.148-.37-.223-.52-.378-.147-.073-.292-.073-.37-.228-.147-.08.15-.23.223-.379.147-.085.297-.313.522-.313.219.23.369.463.594.693.072 0 .297.229.522.457.15.075.223.148.223.228.152.304.375.762.375 1.374-.08-.079-.377-.309-.448-.309Zm.593 2.05c-.072-.07-.593-.676-.745-.676-.147-.149-.595-.235-.667-.235a1.522 1.522 0 0 0-.527-.149c-.073-.155-.073-.383-.073-.451-.072-.16-.297-.389-.37-.619h.37c.297.08.52.16.6.16.145.07.594.3.74.459.304.143.447.07.672.143.078 0 .297.835.604 1.3 0 .07.141.303 0 .303-.151.074-.376-.08-.604-.235Zm-1.267 4.96c-.145-.078-.145-.153-.225-.308-.078 0-.223-.533-.368-.687.145-.075.218-.075.368-.075.152 0 .447-.068.522 0 .078.075.15.229.225.384.072.075.223.378.302.531.073.075.371.075.218.31-.368-.155-.667-.085-1.042-.155Zm.224-1.983a.587.587 0 0 1-.297-.3 4.422 4.422 0 0 1-.375-.84c0-.228-.072-.612-.072-.842 0 0 .297.075.52.075.072.08.152.08.224.08.073.149.073.304.073.532.078.23.225.463.297.842.078.226.15.376.15.606-.149 0-.295-.153-.52-.153Zm.896 4.722c-.375.153-.821.308-1.046.08-.375-.38-.521-.762-.521-.762.146-.153.6-.303.672-.378.299.451.747.606 1.272.76.145 0 .145.3 0 .3h-.377Zm-.598 11.731h-.823c0-.146.156-.455.303-.758 0-.452.447-.225.672-.3.15.447.071.762-.152 1.058Zm2.015-12.876h-.598c-.219.085-.298.085-.375 0-.219-.144-.297-.224-.52-.374.078-.155.151-.228.303-.228.219-.23.219-.23.447-.23.147.23 1.042.767 1.042.767-.002.15-.149.065-.299.065Zm-1.113 8.231c0-.306-.229-1.373-.229-1.53 0-.143-.073-.218-.073-.53v-.3c.147.082.303.157.375.229.145.071.375.533.375.601 0 1.152.142 2.067.142 2.067-.222-.155-.222-.458-.59-.537Zm.217-10.818c-.079-.223 0-.452 0-.682-.079-.915-.297-1.676-.447-2.29 0 0 .15-.073.368-.143.157 0 .23 0 .375-.09.229.388.302.693.449 1.607.15 1.065.301 1.98.301 1.98l-1.046-.382Zm1.497 4.572s-.079-.379-.376-.687c.146-.228.376-.68.376-.68.29.298.441.298.441.99-.151.148-.151.07-.441.377Zm3.122-2.895s.147.381.225.536c0 .149.072.31.15.459 0 0-.15.073-.447.073-.068.075-.15.075-.296.075-.075-.235-.075-.378-.225-.607 0-.155-.225-.303-.225-.303-.15.075-.375 0-.447 0-.375 0-.594-.308-.672-.308.078.153.297.611.375.76 0 .08.223.458.223.841 0-.006-.373-.08-.598.075-.147-.458-.297-.533-.372-.835-.078-.533-.15-.84-.301-.996-.372-.384-.372-.155-.819-.532 0 0-.072-.305 0-.453 1.042.453 1.787.6 2.531.6.528 0 1.272-.07 1.943-.297.224.15.297.453.297.682l-1.342.23Zm-2.832 7.468c-.072-.153 0-.833-.072-.997-.075-.221-.448-.605-.448-.605 0-.31.23-.458.296-.683.154.15.375.375.375.533.074.459.152 1.065.225 1.147-.001.302-.151.377-.376.605Zm.75-2.285s-.225-.31-.225-.382c-.15-.231-.224-.383-.375-.608.151-.31.151-.222.225-.382.072-.15.15-.533.15-.465.225.085.298.315.372.465 0 .072.15.382.15.382v.225c0 .153-.297.765-.297.765Zm10.808 5.638c-.23 0-.375 0-.599-.078.15-.912.297-2.06.297-3.275 0-2.667-.97-6.398-2.829-8.378-.75-.842-1.641-1.219-2.537-1.219-.447 0-.746.534-.746 1.14.297.08.817-.153 1.042-.153.371 0 .599.078.896.617.071.143.225.228.296.298-.15.08-2.01.155-2.01.155 0 .223.073.457.218.687.232 0 .449.073.674.073.23 0 .526-.073.823 0 .297.08.672 0 1.041.08.225.452.078.988.078.988-.15 0-.605-.308-.745-.381-.449-.074-1.641.075-1.641.075 0 .155.297.23.297.308.072.157-.152.38-.078.533.223 0 .453.074.676 0 .442-.081.596-.235 1.339.074.15.076.52.531.744.531.147.225.298.844.298.844-.225 0-.745-.459-.892-.534-.447-.156-.672-.085-1.047-.085-.223 0-.598.085-.821.16.078.304.156.384.453.694.37.221.812.143 1.337.296.375.15.517.304.672.459.147.146.225.378.225.68 0 0-1.266-.455-1.562-.379-.15 0-.304-.078-.304.075.074.304.154.537.154.762.221.082.368.147.665.228.15.082.375.31.525.54.142.147.142.304.073.53-.448-.156-.745-.156-1.192-.461-.071-.15-.225-.15-.296-.069 0 0-.224.375-.224.53 0 0 .817.304.969.304.448.3.147.378.448.761 0 .452 0 .534-.303.684 0 .078-.072-.079-.072-.079-.225-.153-.522-.371-.818-.53-.297-.15-.371-.228-.525-.15-.069 0-.146.225-.146.379 0 .15 0 .231.079.303.068.157.296.157.442.307.296.153.665.455.665.455.23.15.078.536.156.836v.079c-.296-.307-.6-.455-.895-.605-.225-.075-.301-.075-.526-.16-.074 0-.297-.15-.371-.225 0 .225-.071.683-.296.683-.299 0-.371-.072-.594-.072-.15 0-.527-.078-.969.232 0 0-.223.53-.15.762.079.221.521.153.521.378 0 .303-.297.687-.297.687s-.375-.459-.375-.304c-.069.222-.069.455-.069.687 0 .382.147.755 0 1.212h-.603c-.219-.375-.298-.984-.37-1.367 0-.612.297-1.22.52-1.598 0 0-.745-.154-1.042.306a1.058 1.058 0 0 0-.303.984c.078.31.303 1.448.375 1.676h-.744c-.375-.68-.593-1.211-.593-2.206 0-.912.743-1.749 1.635-1.674.222 0 .369.15.599.15.146-.458.442-.986 1.192-.986.296 0 .671.071.745.15.52-.99 1.343-2.815 1.265-3.812 0-.378-.078-.68-.297-1.065-.671-1.52-1.713-3.273-1.713-6.02 0-.682.671-1.368 1.562-1.368 1.047 0 2.089.606 3.057 1.596 1.641 1.832 2.979 5.112 2.979 8.992.004 1.135-.22 2.358-.438 3.273Zm-10.141-2.745s.151-.683.151-.761c-.073-.235-.375-.307-.375-.452-.071-.31.079-.537-.218-.915.072-.082.593-.458.593-.458.049.147.074.302.072.458.078.147.152.378.225.523 0 .232 0 .997-.448 1.605Zm1.415-2.586c-.072.068.225 1.215 0 1.291 0 0-.665-2.281-.738-2.513-.23-.605-.599-1.22-1.047-1.83l.89-.15c.078.228.078.605.23.758.145.232.443.69.527.837 0 .157.068.458.138.687a.895.895 0 0 1 .225.611c-.145.084-.145.152-.225.309Zm.97-2.442s-.743-.685-1.04-.993c-.068-.144-.593-.452-.448-.527.153 0 1.122.383 1.122.383.145.144.368.224.446.452l-.08.685Zm.23 2.51c0-.527-.298-1.058-.38-1.14-.071-.15-.218-.912-.296-1.072.223-.068.296.315.446.315.152 0 .304.15.527.15.072.16.219.605.145.83-.073.232-.145.692-.442.917Zm3.051 6.477s-.525-.599-1.047-.599c0 0-.448.372-.37.674.297 0 .449.15.667.31.078 0 .302.156.302.225 0 .228-.145.53-.224.686-.151-.156-.448-.526-.593-.601-.152 0-.303 0-.303.143-.147.303-.147.687-.297.915l-.674-.072c-.073-.303 0-.758.072-1.295.303-1.448.75-1.908 1.125-1.908.442 0 1.264.232 1.714 1.068-.147.152-.225.379-.372.454Zm12.6-7.162c-.156 0-.531-.072-.531-.072s-.069.382-.146.755c.146.16.376.235.522.39 0 .304-.146.755-.297 1.062-.146-.072-.296-.228-.521-.307-.15.235-.224.537-.374.765.079.235.224.235.599.609-.074.386-.304.686-.52.993-.154-.157-.527-.455-.527-.455l-.594.68c.147.303.375.537.52.84-.145.378-.52.762-.52.762-.071-.229-.442-.462-.593-.69 0 0-.297.085-.822.306.147.459.375.925.375 1.295a2.694 2.694 0 0 1-.747.537c-.297-.537-.525-.908-.597-1.147-.375 0-.818.307-.818.307 0 .153.37.84.37 1.452-.297.15-.819.218-.819.218-.223-.755-.442-1.595-.89-2.122 1.485-.156 2.901-.996 3.651-1.981 1.339-1.755 2.011-3.737 1.934-5.792 0-1.523-.372-3.13-1.044-4.573-.665-1.529-2.832-4.419-4.769-5.634-.147-.158-.297-.228-.594-.308-.073-.08-.223 0-.303.08a3.221 3.221 0 0 1-1.484.298c-.672 0-2.017-.526-2.314-.686.147-.07.375 0 .6-.07.072 0 .369-.08.594-.16 0 0 .448-.075.593 0-.145-.224-.745-.755-.745-.755.375-.085.822-.149 1.272-.085.143 0 .297.085.442.085-.225-.23-.372-.532-.674-.762-.218-.153-.665-.08-1.04 0-.145.15-.52.073-.52.073-.522 0 .223.602.223.602s0 .233-.975.39a1.064 1.064 0 0 0-.29.227c-.375-.532-.897-1.219-1.272-1.597-.073-.16-.37-.39-.667-.762 1.265-.31 2.754-1.15 3.058-.921.145.16.213.23.368.538.073.153.147.228.298.452h.521c.296 0 .296 0 .296-.069a15.128 15.128 0 0 0-.593-.921c1.642.23 2.307 1.453 2.834 2.29.145.228.303.458.598.606.294.23.447.384.812.607 0 .08-.218.23-.218.23s.297.16.52.388c.152 0 .225 0 .372-.08.375.224.893.835.893.835s-.296.08-.296.224c0 .085.296.313.296.313.079 0 .225-.153.375-.153.304.303.517.526.747.836 0 0-.375.387-.145.387.072.07.219.298.219.298.15-.08.303-.08.453-.08.219.154.292.384.515.692-.071.075-.223.15-.296.303-.079 0 .151.304.223.304.147.08.297 0 .447 0 .145.155.296.381.375.608-.079.08-.23.153-.302.227 0 .161.072.31.145.458h.527c.145.228.218.383.373.767-.156.07-.301.07-.451.148.078.23.15.383.223.538.15 0 .375 0 .525.07l.225.995c-.156 0-.303 0-.522.075.074.155.147.384.147.607.219.08.447.153.594.228.078.23.156.687.156 1.142 0 .078-.303 0-.453 0-.078.307 0 .615 0 .843.15 0 .375.075.525.232.01.406-.014.813-.072 1.215Zm-12.006-15.457-.667.377.589.453.453-.296h.375l-.75-.534Zm1.048 23.915c-.083.16-.083.384-.151.455h-.746c-.071 0-.229 0-.296-.071.142-.152.244-.338.296-.54a.575.575 0 0 1 .205-.268.551.551 0 0 1 .317-.104h.447c0 .225-.072.372-.072.528Zm.817-2.738c-.071-.082-.297-.687-.37-.762-.152-.085-.23-.085-.302-.235-.073-.146.072-.228.072-.378.078-.15.078-.228.078-.307.152 0 .152.079.297.157.078.072.152.382.152.452.072 0 .297.156.297.225-.152.311-.152.766-.224.848Zm.447-1.91c-.143-.15-.297-.68-.518-.752-.074-.085.223-.228.223-.386 0-.229-.078-.379 0-.605.073.071.152.303.218.378.154 0 .154.615.154.687.076.15.148.986-.077.678Zm.448 5.103h-.896c.151-.228.151-.611.37-.83.078-.085.153-.085.303 0h.372c.15.072.15.219.15.307-.002.295-.152.377-.299.523Zm.819-23.77-.819.23.297.384.891.693-.369-1.307Zm.969 23.315c-.297 0-.372.082-.6-.068 0-.235.078-.39.228-.768.073-.15.147-.384.147-.384.225.31.521.997.6.997 0 .068.15.225 0 .307-.079-.002-.225-.084-.375-.084Z" fill="#fff"/></svg>