<svg width="542" height="335" viewBox="0 0 542 335" fill="none" xmlns="http://www.w3.org/2000/svg">
<rect width="542" height="335" fill="#C4C4C4"/>
<rect width="542" height="335" fill="#91C2EA"/>
<mask id="mask0_101:43" style="mask-type:alpha" maskUnits="userSpaceOnUse" x="0" y="0" width="542" height="335">
<rect width="542" height="335" fill="#ED1C24"/>
</mask>
<g mask="url(#mask0_101:43)">
<path fill-rule="evenodd" clip-rule="evenodd" d="M834.86 29.7958L13.4601 360.04L12.8725 358.504L834.272 28.2602L834.86 29.7958Z" fill="url(#paint0_linear_101:43)"/>
<path fill-rule="evenodd" clip-rule="evenodd" d="M791.762 25.9923L56.5005 363.813L55.8423 362.308L791.104 24.487L791.762 25.9923Z" fill="url(#paint1_linear_101:43)"/>
<path fill-rule="evenodd" clip-rule="evenodd" d="M753.812 19.6598L94.6603 370.103L93.9193 368.639L753.071 18.1954L753.812 19.6598Z" fill="url(#paint2_linear_101:43)"/>
<path fill-rule="evenodd" clip-rule="evenodd" d="M720.365 10.805L128.073 378.907L127.238 377.496L719.531 9.39441L720.365 10.805Z" fill="url(#paint3_linear_101:43)"/>
<path fill-rule="evenodd" clip-rule="evenodd" d="M691.028 -0.705246L157.513 390.483L156.576 389.141L690.092 -2.04691L691.028 -0.705246Z" fill="url(#paint4_linear_101:43)"/>
<path fill-rule="evenodd" clip-rule="evenodd" d="M665.406 -15.2739L183.237 404.831L182.195 403.574L664.364 -16.5307L665.406 -15.2739Z" fill="url(#paint5_linear_101:43)"/>
<path fill-rule="evenodd" clip-rule="evenodd" d="M643.11 -32.8951L205.64 422.354L204.493 421.197L641.964 -34.0527L643.11 -32.8951Z" fill="url(#paint6_linear_101:43)"/>
<path fill-rule="evenodd" clip-rule="evenodd" d="M623.872 -53.838L224.976 443.323L223.733 442.275L622.63 -54.8859L623.872 -53.838Z" fill="url(#paint7_linear_101:43)"/>
<path fill-rule="evenodd" clip-rule="evenodd" d="M607.426 -78.5041L241.633 467.872L240.306 466.939L606.099 -79.4375L607.426 -78.5041Z" fill="url(#paint8_linear_101:43)"/>
<path fill-rule="evenodd" clip-rule="evenodd" d="M593.508 -107.432L255.621 496.551L254.225 495.731L592.112 -108.253L593.508 -107.432Z" fill="url(#paint9_linear_101:43)"/>
<path fill-rule="evenodd" clip-rule="evenodd" d="M581.853 -140.753L267.198 529.768L265.748 529.053L580.402 -141.468L581.853 -140.753Z" fill="url(#paint10_linear_101:43)"/>
</g>
<path fill-rule="evenodd" clip-rule="evenodd" d="M134.954 265.907H169.846V300.331H134.954V265.907Z" fill="black"/>
<path fill-rule="evenodd" clip-rule="evenodd" d="M135.963 266.902H168.836V299.336H135.963V266.902Z" fill="#FFF200"/>
<path fill-rule="evenodd" clip-rule="evenodd" d="M137.708 292.783L141.996 297.095L152.043 287.038L162.426 297.303L166.777 293.052L156.498 282.912L158.474 281.025V277.002L159.715 275.965V279.117L161.312 280.402L166.083 275.695L167.617 276.856C168.521 273.559 163.287 266.073 158.958 270.221L153.913 275.156L154.943 276.38L152.378 278.847L149.899 276.441L151.202 275.279L145.674 270.013C141.512 266.632 137.245 271.776 137.098 276.794L138.611 275.55L143.256 280.486L144.916 279.118V276.09L145.946 276.856V280.818L147.963 282.808L137.708 292.783Z" fill="black"/>
<path fill-rule="evenodd" clip-rule="evenodd" d="M178.758 270.034V273.02H180.061C181.847 272.688 181.364 270.158 180.061 270.034H178.758ZM175.058 267.068V280.589H178.758V276.193L181.91 280.589H186.283L182.395 275.177C186.893 273.021 185.211 267.131 180.482 267.069H175.058V267.068ZM192.168 273.828C193.387 273.828 194.374 274.741 194.374 275.861C194.374 276.98 193.386 277.893 192.168 277.893C190.97 277.893 189.982 276.98 189.982 275.861C189.982 274.741 190.97 273.828 192.168 273.828ZM191.39 270.842C192.399 270.842 193.344 271.174 194.122 271.713V271.195H197.737L197.758 280.589H194.101L194.122 280.008C193.344 280.547 192.399 280.859 191.39 280.859C188.699 280.859 186.493 278.619 186.493 275.861C186.493 273.103 188.7 270.842 191.39 270.842ZM199.671 271.195H203.518V280.589H199.671V271.195ZM201.604 265.824C202.719 265.824 203.623 266.736 203.623 267.835C203.623 268.934 202.719 269.847 201.604 269.847C200.47 269.847 199.566 268.934 199.566 267.835C199.566 266.737 200.47 265.824 201.604 265.824ZM230.8 271.195H234.647V280.589H230.8V271.195ZM232.713 265.824C233.848 265.824 234.752 266.736 234.752 267.835C234.752 268.934 233.848 269.847 232.713 269.847C231.599 269.847 230.695 268.934 230.695 267.835C230.695 266.737 231.599 265.824 232.713 265.824ZM204.232 271.195V274.181H205.557V280.589H209.278V274.181H212.767V280.589H216.613V274.14H219.009V271.236H216.507V269.142C216.444 268.375 218.273 268.064 218.904 268.686V265.616C215.373 264.517 212.514 266.488 212.535 269.536V271.195H209.256V269.142C209.213 268.375 210.812 268.064 211.735 268.686V265.616C208.666 264.725 205.388 266.197 205.409 269.515V271.174L204.232 271.195ZM224.494 280.859C227.795 280.838 229.013 279.49 229.728 277.52H226.387C224.873 279.428 222.666 278.038 222.771 276.483H229.834C229.834 272.667 227.774 270.863 224.495 270.863C221.217 270.863 219.157 273.144 219.157 275.923C219.157 278.702 221.552 280.879 224.494 280.859ZM223.254 274.264C223.296 273.123 225.819 273.123 225.986 274.264H223.254ZM250.684 280.859C254.005 280.838 255.224 279.49 255.938 277.52H252.575C251.062 279.428 248.855 278.038 248.961 276.483H256.024C256.024 272.667 253.985 270.863 250.685 270.863C247.406 270.863 245.346 273.144 245.346 275.923C245.346 278.702 247.741 280.879 250.684 280.859ZM249.444 274.264C249.486 273.123 252.008 273.123 252.176 274.264H249.444ZM244.337 271.382L243.201 273.663C241.772 273.227 240.384 273.311 240.427 273.704C240.469 273.953 240.238 274.388 242.465 274.7C245.786 275.218 245.513 281.315 239.943 280.859C238.409 280.755 237.169 280.361 236.139 279.759L237.38 277.312C239.124 278.162 240.805 278.66 240.931 277.81C241.079 276.752 239.103 277.126 237.905 276.233C235.761 274.927 236.979 270.883 240.49 270.841C241.73 270.76 243.012 270.967 244.337 271.382ZM257.494 271.195V280.589H261.089V274.844C261.194 273.413 264.052 273.164 264.074 274.844V280.589H267.709V274.7C267.625 271.403 264.115 269.806 260.941 271.9V271.195H257.494ZM177.181 286.333L174.785 300.269H181.574C186.178 300.269 188.069 294.629 184.79 292.7C187.586 290.149 186.156 286.313 183.151 286.271L177.181 286.333ZM179.934 294.649L179.451 296.951H181.027C182.814 297.034 182.604 294.649 181.574 294.649H179.934ZM180.733 289.651L180.334 291.518L180.817 291.538C182.268 291.621 183.108 289.651 181.364 289.651H180.733ZM186.324 300.29H190.444L191.684 297.842H196.35L197.044 300.331H200.848L197.548 286.416H193.659L186.324 300.29ZM193.029 294.919H195.594L194.774 291.247L193.029 294.919ZM202.151 300.331H205.956L206.922 291.601L212.366 300.29H216.444L218.146 286.332H214.342L213.27 295.063L207.826 286.291H203.895L202.151 300.331ZM220.879 286.291L218.21 300.29H222.225L223.296 295.063L226.89 300.29H232.166L227.017 292.948L233.596 286.271H228.488L223.99 291.206L224.704 286.271L220.879 286.291Z" fill="black"/>
<path d="M69.2967 297.463V296.458C68.5985 297.552 67.6497 298.252 66.4503 298.521C65.2509 298.791 64.0694 298.701 62.9058 298.234C61.7243 297.768 60.7218 296.888 59.8804 295.614C59.0391 294.34 58.6094 292.671 58.6094 290.589C58.6094 288.149 59.1644 286.192 60.2743 284.667C61.3842 283.159 63.1743 282.406 65.6447 282.406C67.5244 282.406 69.2609 282.908 70.872 283.931C72.4831 284.954 73.2708 286.838 73.2708 289.584V297.875C73.2708 300.621 72.4652 302.488 70.872 303.493C69.2609 304.498 67.5244 305 65.6447 305C62.0465 305 59.8088 303.313 58.9496 299.939H63.228C63.5324 300.496 64.0157 300.908 64.6602 301.213C65.3046 301.501 65.9491 301.59 66.5935 301.447C67.238 301.303 67.8287 300.926 68.3479 300.298C68.9028 299.652 69.2072 298.719 69.2967 297.463ZM62.6015 290.697C62.6015 293.407 63.3891 294.914 64.9466 295.201C66.504 295.489 67.6676 295.13 68.4016 294.107C68.7596 293.676 69.0102 292.994 69.1713 292.079C69.3325 291.163 69.3325 290.248 69.2072 289.333C69.0639 288.436 68.7417 287.628 68.2405 286.928C67.7392 286.228 66.9874 285.869 66.0028 285.869C64.6781 285.869 63.7651 286.354 63.2996 287.341C62.8342 288.31 62.6015 289.441 62.6015 290.697Z" fill="white"/>
<path d="M87.6097 298.396H85.551C84.9603 298.396 84.477 298.216 84.1189 297.839C83.743 297.463 83.564 296.978 83.564 296.404V288.4C83.564 287.467 83.2776 286.767 82.7047 286.336C82.1319 285.905 81.5053 285.69 80.7892 285.69C80.0911 285.69 79.4645 285.905 78.9096 286.336C78.3546 286.767 78.0861 287.449 78.0861 288.4V298.414H73.9688V289.225C73.9688 286.551 74.6669 284.775 76.0453 283.877C77.4417 282.98 78.9633 282.477 80.646 282.406C82.3646 282.406 83.9578 282.854 85.4078 283.752C86.8579 284.649 87.5739 286.48 87.5739 289.225V298.396H87.6097Z" fill="white"/>
<path d="M88.6124 284.111H92.7298C92.7298 286.3 92.7298 285.564 92.7298 286.121V298.414H88.6124V284.111Z" fill="white"/>
<path d="M100.284 298.396C98.9954 298.467 97.5991 298.449 96.0954 298.342C94.5916 298.216 93.8398 297.265 93.8398 295.452V280.144H95.9522C96.4534 280.144 96.9188 280.342 97.2948 280.736C97.6886 281.131 97.8855 281.598 97.8855 282.154V282.693H100.284V283.518C100.284 284.11 100.087 284.595 99.6936 284.954C99.2998 285.331 98.8343 285.51 98.2794 285.51H97.8676V294.322C97.8676 294.986 98.2615 295.327 99.0491 295.327H100.284V298.396Z" fill="white"/>
<path d="M111.49 293.568H114.426C113.997 295.219 113.173 296.475 111.956 297.337C110.739 298.234 109.217 298.683 107.373 298.683C105.135 298.683 103.399 297.965 102.146 296.511C100.893 295.094 100.266 293.084 100.266 290.445C100.266 287.933 100.875 285.977 102.092 284.559C103.345 283.105 105.082 282.388 107.319 282.388C109.665 282.388 111.49 283.088 112.779 284.505C114.032 285.959 114.659 287.969 114.659 290.571C114.659 290.733 114.659 290.858 114.659 290.984C114.659 291.109 114.659 291.181 114.659 291.217C114.659 291.415 114.641 291.558 114.605 291.63H104.455C104.491 292.85 104.795 293.748 105.332 294.34C105.834 294.968 106.603 295.273 107.624 295.273C108.286 295.273 108.859 295.129 109.324 294.86C109.45 294.824 109.557 294.753 109.647 294.645C109.736 294.555 109.844 294.447 109.969 294.322C110.005 294.196 110.148 294.053 110.416 293.855C110.667 293.676 111.025 293.568 111.49 293.568ZM104.455 288.992H110.452C110.381 287.933 110.094 287.143 109.629 286.641C109.127 286.085 108.394 285.815 107.463 285.815C106.603 285.815 105.905 286.085 105.35 286.641C104.777 287.179 104.491 287.969 104.455 288.992Z" fill="white"/>
<path d="M53.6138 276.914H55.7262C56.2812 276.914 56.7466 277.112 57.1404 277.507C57.5343 277.901 57.7312 278.368 57.7312 278.924V298.414H53.6138V276.914Z" fill="white"/>
<path d="M88.6122 280.145H90.7246C91.2795 280.145 91.745 280.342 92.1388 280.737C92.5326 281.132 92.7295 281.598 92.7295 282.155V283.393H88.6122V280.145Z" fill="white"/>
<path d="M64.0154 280.36H63.3709V279.894C63.0487 280.253 62.6011 280.432 62.0462 280.432C61.527 280.432 61.0795 280.253 60.7036 279.912C60.3097 279.535 60.1128 279.068 60.1128 278.494C60.1128 277.902 60.3276 277.417 60.7394 277.04C61.1153 276.681 61.5808 276.52 62.0999 276.52C62.6369 276.52 63.0666 276.699 63.3888 277.076V276.609H64.0333V280.36H64.0154ZM63.353 278.494C63.353 278.135 63.2277 277.83 62.995 277.561C62.7444 277.309 62.4579 277.184 62.0999 277.184C61.724 277.184 61.4196 277.309 61.1511 277.579C60.9005 277.83 60.7752 278.099 60.7752 278.386C60.7752 278.763 60.8826 279.086 61.1153 279.355C61.348 279.642 61.6524 279.768 62.0283 279.768C62.3863 279.768 62.6906 279.642 62.9592 279.391C63.2277 279.158 63.353 278.853 63.353 278.494Z" fill="white"/>
<path d="M68.6697 278.386C68.6697 278.978 68.4907 279.463 68.1327 279.84C67.7568 280.235 67.2913 280.432 66.7006 280.432C66.1635 280.432 65.7518 280.253 65.4296 279.912V281.598H64.7493V276.591H65.3938V277.04C65.5549 276.861 65.7518 276.735 65.9487 276.645C66.1635 276.556 66.3783 276.52 66.629 276.52C67.1481 276.52 67.6135 276.699 68.0074 277.04C68.4549 277.399 68.6697 277.848 68.6697 278.386ZM67.9716 278.476C67.9716 278.117 67.8463 277.812 67.5956 277.561C67.345 277.309 67.0228 277.184 66.6648 277.184C66.2888 277.184 65.9845 277.327 65.7339 277.596C65.5012 277.848 65.3938 278.153 65.3938 278.494C65.3938 278.817 65.4833 279.086 65.6802 279.337C65.9129 279.624 66.253 279.768 66.7006 279.768C67.0586 279.768 67.3629 279.642 67.6135 279.391C67.8642 279.158 67.9716 278.853 67.9716 278.476Z" fill="white"/>
<path d="M73.1636 280.36H72.5192V279.894C72.1969 280.253 71.7494 280.432 71.1944 280.432C70.6753 280.432 70.2278 280.253 69.8518 279.912C69.458 279.535 69.2611 279.068 69.2611 278.494C69.2611 277.902 69.4759 277.417 69.8876 277.04C70.2636 276.681 70.729 276.52 71.2481 276.52C71.7852 276.52 72.2148 276.699 72.5371 277.076V276.609H73.1815V280.36H73.1636ZM72.5192 278.494C72.5192 278.135 72.3938 277.83 72.1611 277.561C71.9105 277.309 71.6241 277.184 71.2661 277.184C70.8901 277.184 70.5858 277.309 70.3173 277.579C70.0666 277.83 69.9413 278.099 69.9413 278.386C69.9413 278.763 70.0487 279.086 70.2815 279.355C70.5142 279.642 70.8185 279.768 71.1944 279.768C71.5525 279.768 71.8568 279.642 72.1253 279.391C72.3759 279.158 72.5192 278.853 72.5192 278.494Z" fill="white"/>
<path d="M77.656 279.122C77.4412 279.553 77.1905 279.876 76.9041 280.091C76.5819 280.324 76.2059 280.45 75.7405 280.45C75.2214 280.45 74.7559 280.27 74.3621 279.894C73.9504 279.499 73.7355 279.032 73.7355 278.458H73.7713C73.7713 278.458 73.7713 278.476 73.7534 278.494C73.7534 277.902 73.9504 277.417 74.3621 277.04C74.7201 276.699 75.1498 276.52 75.651 276.52C76.1164 276.52 76.5103 276.645 76.8683 276.879C77.2084 277.112 77.477 277.453 77.6381 277.884H76.8862C76.6356 277.435 76.2238 277.202 75.6689 277.202C75.3109 277.202 75.0244 277.327 74.7917 277.579C74.559 277.83 74.4337 278.135 74.4337 278.494C74.4337 278.853 74.559 279.176 74.8096 279.427C75.0602 279.678 75.3646 279.804 75.7226 279.804C75.9553 279.804 76.188 279.75 76.4029 279.624C76.6177 279.499 76.7788 279.337 76.9041 279.14H77.656V279.122Z" fill="white"/>
<path d="M81.5411 280.36H80.8609V278.206C80.8609 277.919 80.7713 277.668 80.5744 277.489C80.3954 277.309 80.1448 277.201 79.8584 277.201C79.5719 277.201 79.3392 277.291 79.1602 277.453C78.9812 277.632 78.8917 277.847 78.8917 278.135V280.36H78.2114V275.353H78.8917V276.914C79.1602 276.645 79.4824 276.519 79.8763 276.519C80.3059 276.519 80.6818 276.663 81.0041 276.968C81.3442 277.291 81.5232 277.704 81.5232 278.206V280.36H81.5411Z" fill="white"/>
<path d="M85.9808 278.745H82.8122C82.8659 279.068 83.027 279.319 83.2776 279.517C83.5104 279.678 83.761 279.768 84.0295 279.768C84.2801 279.768 84.5128 279.696 84.7456 279.552C84.9783 279.409 85.1394 279.211 85.2289 278.978H85.9271C85.7481 279.481 85.4616 279.84 85.0857 280.091C84.7635 280.306 84.4054 280.414 84.0116 280.414C83.5104 280.414 83.0807 280.234 82.7227 279.875C82.3468 279.481 82.1498 279.014 82.1498 278.44C82.1498 277.848 82.3468 277.363 82.7585 277.004C83.1344 276.663 83.5641 276.502 84.0653 276.502C84.5666 276.502 85.0141 276.663 85.3721 277.004C85.7839 277.381 85.9987 277.901 85.9987 278.547V278.745H85.9808ZM85.2826 278.117C85.211 277.83 85.0499 277.614 84.8172 277.435C84.5845 277.255 84.3338 277.166 84.0474 277.166C83.6894 277.166 83.385 277.291 83.1523 277.525C82.9912 277.686 82.8659 277.883 82.8122 278.117H85.2826Z" fill="white"/>
<path d="M35.7481 275.102C35.7481 275.102 23.3065 282.711 35.032 290.266C37.2876 291.738 45.4686 295.83 45.2359 299.616C45.2359 299.616 50.1946 292.258 42.9445 287.628C35.4974 282.89 33.6357 277.83 35.7481 275.102Z" fill="white"/>
<path d="M31.416 289.638C31.416 289.638 26.9764 296.386 35.7124 297.768C36.5717 297.876 42.8909 298.54 44.5378 300.621C44.5378 300.621 44.3946 297.032 39.239 294.914C34.1012 292.797 31.9889 292.276 31.416 289.638Z" fill="white"/>
<path d="M48.6014 282.549C43.2667 276.95 41.7809 273.487 44.0723 269C44.0723 269 28.1578 275.138 43.8754 286.031C49.4964 289.925 48.5656 293.909 48.5656 294.053C49.4427 293.138 53.936 288.149 48.6014 282.549Z" fill="white"/>
<defs>
<linearGradient id="paint0_linear_101:43" x1="419.552" y1="-138.945" x2="428.479" y2="527.239" gradientUnits="userSpaceOnUse">
<stop stop-color="#0070CC"/>
<stop offset="1" stop-color="#B1C9DC"/>
</linearGradient>
<linearGradient id="paint1_linear_101:43" x1="419.552" y1="-138.945" x2="428.479" y2="527.239" gradientUnits="userSpaceOnUse">
<stop stop-color="#0070CC"/>
<stop offset="1" stop-color="#B1C9DC"/>
</linearGradient>
<linearGradient id="paint2_linear_101:43" x1="419.552" y1="-138.945" x2="428.479" y2="527.239" gradientUnits="userSpaceOnUse">
<stop stop-color="#0070CC"/>
<stop offset="1" stop-color="#B1C9DC"/>
</linearGradient>
<linearGradient id="paint3_linear_101:43" x1="419.552" y1="-138.945" x2="428.479" y2="527.239" gradientUnits="userSpaceOnUse">
<stop stop-color="#0070CC"/>
<stop offset="1" stop-color="#B1C9DC"/>
</linearGradient>
<linearGradient id="paint4_linear_101:43" x1="419.552" y1="-138.945" x2="428.479" y2="527.239" gradientUnits="userSpaceOnUse">
<stop stop-color="#0070CC"/>
<stop offset="1" stop-color="#B1C9DC"/>
</linearGradient>
<linearGradient id="paint5_linear_101:43" x1="419.552" y1="-138.945" x2="428.479" y2="527.239" gradientUnits="userSpaceOnUse">
<stop stop-color="#0070CC"/>
<stop offset="1" stop-color="#B1C9DC"/>
</linearGradient>
<linearGradient id="paint6_linear_101:43" x1="419.552" y1="-138.945" x2="428.479" y2="527.239" gradientUnits="userSpaceOnUse">
<stop stop-color="#0070CC"/>
<stop offset="1" stop-color="#B1C9DC"/>
</linearGradient>
<linearGradient id="paint7_linear_101:43" x1="419.552" y1="-138.945" x2="428.479" y2="527.239" gradientUnits="userSpaceOnUse">
<stop stop-color="#0070CC"/>
<stop offset="1" stop-color="#B1C9DC"/>
</linearGradient>
<linearGradient id="paint8_linear_101:43" x1="419.552" y1="-138.945" x2="428.479" y2="527.239" gradientUnits="userSpaceOnUse">
<stop stop-color="#0070CC"/>
<stop offset="1" stop-color="#B1C9DC"/>
</linearGradient>
<linearGradient id="paint9_linear_101:43" x1="419.552" y1="-138.945" x2="428.479" y2="527.239" gradientUnits="userSpaceOnUse">
<stop stop-color="#0070CC"/>
<stop offset="1" stop-color="#B1C9DC"/>
</linearGradient>
<linearGradient id="paint10_linear_101:43" x1="419.552" y1="-138.945" x2="428.479" y2="527.239" gradientUnits="userSpaceOnUse">
<stop stop-color="#0070CC"/>
<stop offset="1" stop-color="#B1C9DC"/>
</linearGradient>
</defs>
</svg>
