<svg width="542" height="335" viewBox="0 0 542 335" fill="none" xmlns="http://www.w3.org/2000/svg">
<rect width="542" height="335" fill="#0070CC"/>
<mask id="mask0_101:46" style="mask-type:alpha" maskUnits="userSpaceOnUse" x="252" y="47" width="290" height="288">
<rect x="252" y="47" width="290" height="288" fill="#0070CC"/>
</mask>
<g mask="url(#mask0_101:46)">
<path d="M293 335V258" stroke="url(#paint0_linear_101:46)"/>
<path d="M274 354V277" stroke="url(#paint1_linear_101:46)"/>
<path d="M255 385V308" stroke="url(#paint2_linear_101:46)"/>
<path d="M312 335V258" stroke="url(#paint3_linear_101:46)"/>
<path d="M330 335V248" stroke="url(#paint4_linear_101:46)"/>
<path d="M349 335V238" stroke="url(#paint5_linear_101:46)"/>
<path d="M368 335V228" stroke="url(#paint6_linear_101:46)"/>
<path d="M386 335V198" stroke="url(#paint7_linear_101:46)"/>
<path d="M405 335V148" stroke="url(#paint8_linear_101:46)"/>
<path d="M423 335V118" stroke="url(#paint9_linear_101:46)"/>
<path d="M442 335V98" stroke="url(#paint10_linear_101:46)"/>
<path d="M460 335V88" stroke="url(#paint11_linear_101:46)"/>
<path d="M479 335V68" stroke="url(#paint12_linear_101:46)"/>
<path d="M497 335V68" stroke="url(#paint13_linear_101:46)"/>
<path d="M516 335V48" stroke="url(#paint14_linear_101:46)"/>
<g filter="url(#filter0_bii_101:46)">
<path d="M351.91 296.128C313.488 303.08 268.077 331.338 266 354H554V77C554 77 534.414 77 522.841 99.4747C496.186 151.237 482.334 272.53 351.91 296.128Z" fill="white" fill-opacity="0.119"/>
</g>
</g>
<path d="M69.2967 294.463V293.458C68.5985 294.552 67.6497 295.252 66.4503 295.521C65.2509 295.791 64.0694 295.701 62.9058 295.234C61.7243 294.768 60.7218 293.888 59.8804 292.614C59.0391 291.34 58.6094 289.671 58.6094 287.589C58.6094 285.149 59.1644 283.192 60.2743 281.667C61.3842 280.16 63.1743 279.406 65.6447 279.406C67.5244 279.406 69.2609 279.908 70.872 280.931C72.4831 281.954 73.2708 283.838 73.2708 286.584V294.875C73.2708 297.621 72.4652 299.488 70.872 300.493C69.2609 301.498 67.5244 302 65.6447 302C62.0465 302 59.8088 300.313 58.9496 296.939H63.228C63.5324 297.496 64.0157 297.908 64.6602 298.213C65.3046 298.501 65.9491 298.59 66.5935 298.447C67.238 298.303 67.8287 297.926 68.3479 297.298C68.9028 296.652 69.2072 295.719 69.2967 294.463ZM62.6015 287.697C62.6015 290.407 63.3891 291.914 64.9466 292.201C66.504 292.489 67.6676 292.13 68.4016 291.107C68.7596 290.676 69.0102 289.994 69.1713 289.079C69.3325 288.164 69.3325 287.248 69.2072 286.333C69.0639 285.436 68.7417 284.628 68.2405 283.928C67.7392 283.228 66.9874 282.869 66.0028 282.869C64.6781 282.869 63.7651 283.354 63.2996 284.341C62.8342 285.31 62.6015 286.441 62.6015 287.697Z" fill="white"/>
<path d="M87.6097 295.396H85.551C84.9603 295.396 84.477 295.216 84.1189 294.84C83.743 294.463 83.564 293.978 83.564 293.404V285.4C83.564 284.467 83.2776 283.767 82.7047 283.336C82.1319 282.905 81.5053 282.69 80.7892 282.69C80.0911 282.69 79.4645 282.905 78.9096 283.336C78.3546 283.767 78.0861 284.449 78.0861 285.4V295.414H73.9688V286.225C73.9688 283.551 74.6669 281.775 76.0453 280.877C77.4417 279.98 78.9633 279.478 80.646 279.406C82.3646 279.406 83.9578 279.854 85.4078 280.752C86.8579 281.649 87.5739 283.48 87.5739 286.225V295.396H87.6097Z" fill="white"/>
<path d="M88.6124 281.111H92.7298C92.7298 283.3 92.7298 282.564 92.7298 283.121V295.414H88.6124V281.111Z" fill="white"/>
<path d="M100.284 295.396C98.9954 295.467 97.5991 295.449 96.0954 295.342C94.5916 295.216 93.8398 294.265 93.8398 292.452V277.144H95.9522C96.4534 277.144 96.9188 277.342 97.2948 277.736C97.6886 278.131 97.8855 278.598 97.8855 279.154V279.693H100.284V280.518C100.284 281.11 100.087 281.595 99.6936 281.954C99.2998 282.331 98.8343 282.51 98.2794 282.51H97.8676V291.322C97.8676 291.986 98.2615 292.327 99.0491 292.327H100.284V295.396Z" fill="white"/>
<path d="M111.49 290.568H114.426C113.997 292.219 113.173 293.475 111.956 294.337C110.739 295.234 109.217 295.683 107.373 295.683C105.135 295.683 103.399 294.965 102.146 293.511C100.893 292.094 100.266 290.084 100.266 287.445C100.266 284.933 100.875 282.977 102.092 281.559C103.345 280.105 105.082 279.388 107.319 279.388C109.665 279.388 111.49 280.087 112.779 281.505C114.032 282.959 114.659 284.969 114.659 287.571C114.659 287.733 114.659 287.858 114.659 287.984C114.659 288.109 114.659 288.181 114.659 288.217C114.659 288.415 114.641 288.558 114.605 288.63H104.455C104.491 289.85 104.795 290.748 105.332 291.34C105.834 291.968 106.603 292.273 107.624 292.273C108.286 292.273 108.859 292.129 109.324 291.86C109.45 291.824 109.557 291.753 109.647 291.645C109.736 291.555 109.844 291.447 109.969 291.322C110.005 291.196 110.148 291.053 110.416 290.855C110.667 290.676 111.025 290.568 111.49 290.568ZM104.455 285.992H110.452C110.381 284.933 110.094 284.143 109.629 283.641C109.127 283.085 108.394 282.815 107.463 282.815C106.603 282.815 105.905 283.085 105.35 283.641C104.777 284.179 104.491 284.969 104.455 285.992Z" fill="white"/>
<path d="M53.6138 273.914H55.7262C56.2812 273.914 56.7466 274.112 57.1404 274.507C57.5343 274.901 57.7312 275.368 57.7312 275.924V295.414H53.6138V273.914Z" fill="white"/>
<path d="M88.6122 277.145H90.7246C91.2795 277.145 91.7449 277.342 92.1388 277.737C92.5326 278.132 92.7295 278.598 92.7295 279.155V280.393H88.6122V277.145Z" fill="white"/>
<path d="M64.0154 277.36H63.3709V276.894C63.0487 277.252 62.6011 277.432 62.0462 277.432C61.527 277.432 61.0795 277.252 60.7036 276.911C60.3097 276.535 60.1128 276.068 60.1128 275.494C60.1128 274.902 60.3276 274.417 60.7394 274.04C61.1153 273.681 61.5808 273.52 62.0999 273.52C62.6369 273.52 63.0666 273.699 63.3888 274.076V273.609H64.0333V277.36H64.0154ZM63.353 275.494C63.353 275.135 63.2277 274.83 62.995 274.561C62.7444 274.309 62.4579 274.184 62.0999 274.184C61.724 274.184 61.4196 274.309 61.1511 274.578C60.9005 274.83 60.7752 275.099 60.7752 275.386C60.7752 275.763 60.8826 276.086 61.1153 276.355C61.348 276.642 61.6524 276.768 62.0283 276.768C62.3863 276.768 62.6906 276.642 62.9592 276.391C63.2277 276.158 63.353 275.853 63.353 275.494Z" fill="white"/>
<path d="M68.6697 275.386C68.6697 275.978 68.4907 276.463 68.1327 276.84C67.7568 277.235 67.2913 277.432 66.7006 277.432C66.1635 277.432 65.7518 277.252 65.4296 276.911V278.598H64.7493V273.591H65.3938V274.04C65.5549 273.861 65.7518 273.735 65.9487 273.645C66.1635 273.556 66.3783 273.52 66.629 273.52C67.1481 273.52 67.6135 273.699 68.0074 274.04C68.4549 274.399 68.6697 274.848 68.6697 275.386ZM67.9716 275.476C67.9716 275.117 67.8463 274.812 67.5956 274.561C67.345 274.309 67.0228 274.184 66.6648 274.184C66.2888 274.184 65.9845 274.327 65.7339 274.596C65.5012 274.848 65.3938 275.153 65.3938 275.494C65.3938 275.817 65.4833 276.086 65.6802 276.337C65.9129 276.624 66.253 276.768 66.7006 276.768C67.0586 276.768 67.3629 276.642 67.6135 276.391C67.8642 276.158 67.9716 275.853 67.9716 275.476Z" fill="white"/>
<path d="M73.1636 277.36H72.5192V276.894C72.1969 277.252 71.7494 277.432 71.1944 277.432C70.6753 277.432 70.2278 277.252 69.8518 276.911C69.458 276.535 69.2611 276.068 69.2611 275.494C69.2611 274.902 69.4759 274.417 69.8876 274.04C70.2636 273.681 70.729 273.52 71.2481 273.52C71.7852 273.52 72.2148 273.699 72.5371 274.076V273.609H73.1815V277.36H73.1636ZM72.5192 275.494C72.5192 275.135 72.3938 274.83 72.1611 274.561C71.9105 274.309 71.6241 274.184 71.2661 274.184C70.8901 274.184 70.5858 274.309 70.3173 274.578C70.0666 274.83 69.9413 275.099 69.9413 275.386C69.9413 275.763 70.0487 276.086 70.2815 276.355C70.5142 276.642 70.8185 276.768 71.1944 276.768C71.5525 276.768 71.8568 276.642 72.1253 276.391C72.3759 276.158 72.5192 275.853 72.5192 275.494Z" fill="white"/>
<path d="M77.656 276.122C77.4412 276.553 77.1905 276.876 76.9041 277.091C76.5819 277.324 76.2059 277.45 75.7405 277.45C75.2214 277.45 74.7559 277.27 74.3621 276.894C73.9504 276.499 73.7355 276.032 73.7355 275.458H73.7713C73.7713 275.458 73.7713 275.476 73.7534 275.494C73.7534 274.902 73.9504 274.417 74.3621 274.04C74.7201 273.699 75.1498 273.52 75.651 273.52C76.1164 273.52 76.5103 273.645 76.8683 273.879C77.2084 274.112 77.477 274.453 77.6381 274.884H76.8862C76.6356 274.435 76.2238 274.202 75.6689 274.202C75.3109 274.202 75.0244 274.327 74.7917 274.578C74.559 274.83 74.4337 275.135 74.4337 275.494C74.4337 275.853 74.559 276.176 74.8096 276.427C75.0602 276.678 75.3646 276.804 75.7226 276.804C75.9553 276.804 76.188 276.75 76.4029 276.624C76.6177 276.499 76.7788 276.337 76.9041 276.14H77.656V276.122Z" fill="white"/>
<path d="M81.5411 277.36H80.8609V275.206C80.8609 274.919 80.7713 274.668 80.5744 274.489C80.3954 274.309 80.1448 274.201 79.8584 274.201C79.5719 274.201 79.3392 274.291 79.1602 274.453C78.9812 274.632 78.8917 274.847 78.8917 275.135V277.36H78.2114V272.353H78.8917V273.914C79.1602 273.645 79.4824 273.519 79.8763 273.519C80.3059 273.519 80.6818 273.663 81.0041 273.968C81.3442 274.291 81.5232 274.704 81.5232 275.206V277.36H81.5411Z" fill="white"/>
<path d="M85.9808 275.745H82.8122C82.8659 276.068 83.027 276.319 83.2776 276.517C83.5103 276.678 83.761 276.768 84.0295 276.768C84.2801 276.768 84.5128 276.696 84.7456 276.552C84.9783 276.409 85.1394 276.211 85.2289 275.978H85.9271C85.748 276.481 85.4616 276.84 85.0857 277.091C84.7635 277.306 84.4054 277.414 84.0116 277.414C83.5103 277.414 83.0807 277.234 82.7227 276.875C82.3467 276.481 82.1498 276.014 82.1498 275.44C82.1498 274.848 82.3467 274.363 82.7585 274.004C83.1344 273.663 83.5641 273.502 84.0653 273.502C84.5665 273.502 85.0141 273.663 85.3721 274.004C85.7838 274.381 85.9987 274.901 85.9987 275.547V275.745H85.9808ZM85.2826 275.117C85.211 274.83 85.0499 274.614 84.8172 274.435C84.5844 274.255 84.3338 274.166 84.0474 274.166C83.6894 274.166 83.385 274.291 83.1523 274.525C82.9912 274.686 82.8659 274.883 82.8122 275.117H85.2826Z" fill="white"/>
<path d="M35.7481 272.102C35.7481 272.102 23.3065 279.711 35.032 287.266C37.2876 288.738 45.4686 292.83 45.2359 296.616C45.2359 296.616 50.1946 289.258 42.9445 284.628C35.4974 279.89 33.6357 274.83 35.7481 272.102Z" fill="white"/>
<path d="M31.416 286.638C31.416 286.638 26.9764 293.386 35.7124 294.768C36.5717 294.876 42.8909 295.54 44.5378 297.621C44.5378 297.621 44.3946 294.032 39.239 291.915C34.1012 289.797 31.9889 289.276 31.416 286.638Z" fill="white"/>
<path d="M48.6014 279.549C43.2667 273.95 41.7809 270.487 44.0723 266C44.0723 266 28.1578 272.138 43.8754 283.031C49.4964 286.925 48.5656 290.909 48.5656 291.053C49.4427 290.138 53.936 285.149 48.6014 279.549Z" fill="white"/>
<path d="M198.454 285.549V280.936C198.454 280.053 198.061 279.513 197.274 279.513C196.291 279.513 195.603 280.593 195.603 282.016V285.549H193.981C193.981 285.549 193.981 280.445 193.981 280.298C193.981 279.709 193.932 278.875 193.883 278.384C193.883 278.384 194.62 278.384 195.21 278.384C195.357 278.384 195.407 278.433 195.407 278.581C195.407 278.728 195.407 279.464 195.407 279.464H195.456C195.652 279.12 196.144 278.237 197.668 278.237C199.24 278.237 200.076 279.268 200.076 280.494V285.549H198.454ZM185.724 283.979C185.773 283.979 185.822 284.028 185.822 284.126C185.871 284.469 185.871 285.009 185.871 285.206C185.527 285.353 184.839 285.696 184.004 285.696C181.841 285.696 180.514 284.42 180.514 281.967C180.514 279.66 181.693 278.237 184.004 278.237C184.79 278.237 185.478 278.482 185.871 278.728C185.871 278.973 185.871 279.562 185.822 279.807C185.822 279.906 185.773 279.955 185.724 279.955C185.675 279.955 185.626 279.955 185.576 279.906C185.036 279.66 184.544 279.513 184.102 279.513C182.726 279.513 182.136 280.396 182.136 281.918C182.136 283.292 182.578 284.322 184.102 284.322C184.692 284.322 185.183 284.126 185.527 283.979C185.675 284.028 185.675 283.979 185.724 283.979ZM191.327 285.549C191.18 285.549 191.081 285.5 191.081 285.304C191.081 285.058 191.032 284.617 191.032 284.617C190.934 284.764 190.344 285.647 188.87 285.647C187.444 285.647 186.658 284.568 186.658 283.341C186.658 281.672 188.28 280.838 190.688 280.838H190.983V280.593C190.983 279.856 190.442 279.464 189.459 279.464C188.575 279.464 187.837 279.758 187.542 279.906C187.542 279.906 187.493 279.955 187.444 279.955C187.395 279.955 187.346 279.906 187.346 279.807C187.346 279.562 187.297 279.022 187.297 278.679C187.592 278.581 188.575 278.188 189.656 278.188C191.769 278.188 192.703 279.169 192.703 280.74V283.537C192.703 284.568 192.802 285.206 192.851 285.5C192.703 285.549 191.475 285.549 191.327 285.549ZM190.983 281.967C190.983 281.967 190.737 281.967 190.688 281.967C188.624 281.967 188.231 282.654 188.231 283.39C188.231 283.979 188.624 284.519 189.361 284.519C190.393 284.519 190.934 283.537 190.934 282.506V281.967H190.983ZM170.585 283.979C170.684 283.979 170.684 284.077 170.684 284.126C170.733 284.42 170.733 285.107 170.733 285.304C170.536 285.353 169.701 285.696 168.521 285.696C166.26 285.696 164.884 284.519 164.884 281.967C164.884 279.807 166.063 278.237 168.177 278.237C170.241 278.237 171.224 279.611 171.224 281.329C171.224 281.525 171.224 281.869 171.175 282.31H166.604C166.604 283.537 167.391 284.42 168.816 284.42C169.602 284.42 170.241 284.126 170.487 284.028C170.487 284.028 170.536 283.979 170.585 283.979ZM166.604 281.28H169.602C169.651 280.151 169.062 279.464 168.128 279.464C167.194 279.464 166.604 280.151 166.604 281.28ZM162.082 285.549V280.985C162.082 280.151 161.738 279.513 160.903 279.513C159.969 279.513 159.428 280.544 159.428 282.016V285.549H157.806V280.985C157.806 280.249 157.511 279.562 156.626 279.562C155.643 279.562 155.152 280.593 155.152 282.114V285.598H153.53C153.53 285.598 153.53 281.083 153.53 280.396C153.53 279.709 153.481 278.777 153.432 278.433C153.432 278.433 154.267 278.433 154.71 278.433C154.857 278.433 154.906 278.482 154.906 278.63C154.906 278.826 154.906 279.513 154.906 279.513H154.955C155.054 279.317 155.594 278.286 157.069 278.286C158.445 278.286 158.986 279.268 159.133 279.611C159.281 279.366 159.87 278.286 161.296 278.286C162.77 278.286 163.753 279.071 163.753 280.642V285.598H162.082V285.549ZM174.075 282.065V285.549H172.453C172.453 285.549 172.453 280.74 172.453 280.249C172.453 279.758 172.404 278.777 172.355 278.433C172.355 278.433 173.092 278.433 173.682 278.433C173.829 278.433 173.878 278.482 173.878 278.63C173.878 278.826 173.878 279.513 173.878 279.513H173.928C174.075 279.219 174.517 278.286 175.844 278.286C176.287 278.286 176.631 278.433 176.68 278.433C176.68 278.728 176.631 279.415 176.631 279.611C176.631 279.709 176.582 279.758 176.533 279.758C176.483 279.758 176.434 279.758 176.434 279.758C176.336 279.709 176.09 279.66 175.746 279.66C174.911 279.611 174.075 280.249 174.075 282.065ZM177.565 285.549V278.433H179.187V285.598H177.565V285.549ZM177.565 277.403V275.832H179.236V277.403H177.565ZM151.023 285.549L150.286 283.439H146.305L145.567 285.549H143.847L147.435 276.176H149.303L152.793 285.549H151.023ZM148.271 277.894L146.698 282.163H149.794L148.271 277.894ZM196.93 297.425C199.044 297.425 200.076 296.542 200.076 295.266C200.076 293.99 199.191 293.45 198.208 293.156C197.913 293.057 197.668 292.959 197.422 292.91C196.783 292.714 196.439 292.419 196.439 291.978C196.439 291.536 196.832 291.242 197.668 291.242C198.405 291.242 199.044 291.536 199.29 291.683C199.339 291.683 199.388 291.732 199.437 291.732C199.486 291.732 199.535 291.683 199.535 291.585C199.535 291.34 199.584 290.898 199.584 290.506C199.388 290.407 198.7 290.064 197.52 290.064C195.8 290.064 194.718 290.996 194.718 292.174C194.718 293.352 195.505 293.843 196.39 294.137C196.586 294.186 196.979 294.333 197.176 294.382C198.11 294.677 198.356 294.971 198.356 295.364C198.356 295.904 197.766 296.198 196.734 296.198C195.898 296.198 195.308 295.904 195.112 295.806C195.063 295.806 195.063 295.756 194.964 295.756C194.866 295.756 194.866 295.904 194.866 295.953C194.866 296.051 194.817 296.787 194.817 297.032C195.013 297.032 195.8 297.425 196.93 297.425ZM193.146 295.707C193.244 295.707 193.244 295.806 193.293 295.855C193.342 296.149 193.342 296.836 193.342 297.032C193.146 297.081 192.31 297.425 191.13 297.425C188.87 297.425 187.493 296.247 187.493 293.695C187.493 291.536 188.673 289.966 190.786 289.966C192.851 289.966 193.834 291.34 193.834 293.057C193.834 293.254 193.834 293.597 193.785 294.039H189.214C189.214 295.266 190 296.149 191.425 296.149C192.212 296.149 192.851 295.855 193.097 295.756C193.047 295.707 193.047 295.707 193.146 295.707ZM189.115 292.959H192.113C192.163 291.831 191.573 291.144 190.639 291.144C189.705 291.193 189.164 291.88 189.115 292.959ZM184.643 297.278V292.665C184.643 291.781 184.249 291.242 183.463 291.242C182.48 291.242 181.792 292.321 181.792 293.744V297.278H180.17C180.17 297.278 180.17 292.174 180.17 292.027C180.17 291.438 180.121 290.604 180.071 290.113C180.071 290.113 180.858 290.113 181.399 290.113C181.546 290.113 181.595 290.162 181.595 290.309C181.595 290.456 181.595 291.193 181.595 291.193H181.644C181.841 290.849 182.332 289.966 183.856 289.966C185.38 289.966 186.265 290.996 186.265 292.223V297.278H184.643ZM169.848 293.794V297.278H168.226C168.226 297.278 168.226 292.469 168.226 291.978C168.226 291.487 168.177 290.506 168.128 290.162C168.128 290.162 168.816 290.162 169.455 290.162C169.602 290.162 169.651 290.211 169.651 290.358C169.651 290.555 169.651 291.242 169.651 291.242H169.701C169.848 290.947 170.29 290.015 171.618 290.015C172.06 290.015 172.404 290.162 172.453 290.162C172.453 290.456 172.404 291.144 172.404 291.34C172.404 291.438 172.355 291.487 172.306 291.487C172.256 291.487 172.207 291.487 172.207 291.487C172.109 291.438 171.863 291.389 171.519 291.389C170.634 291.34 169.848 291.978 169.848 293.794ZM175.009 297.278V287.512H173.387V297.278H175.009ZM164.835 297.278V290.113H166.457V297.278H164.835ZM164.786 289.082V287.512H166.457V289.082H164.786ZM176.778 297.278V290.113H178.4V297.278H176.778ZM176.778 289.082V287.512H178.45V289.082H176.778ZM162.377 297.278L161.64 295.168H157.659L156.872 297.278H155.152L158.691 287.905H160.608L164.147 297.278H162.377ZM159.625 289.622L158.101 293.892H161.197L159.625 289.622Z" fill="white"/>
<path d="M219.589 299.928C221.604 303.265 224.848 303.167 225.733 303.167H236.153L223.865 288.297C218.213 288.543 215.214 292.174 215.804 293.695L219.589 299.928Z" fill="url(#paint15_linear_101:46)"/>
<path d="M215.804 293.646C215.804 293.597 215.46 292.861 215.46 291.978C215.46 288.592 218.458 286.629 221.899 285.942L223.816 288.297C218.213 288.494 215.214 292.125 215.804 293.646Z" fill="url(#paint16_linear_101:46)"/>
<path d="M220.523 282.605C215.362 282.605 211.479 283.439 211.479 285.5C211.479 286.236 211.725 286.874 212.364 288.003L215.804 293.646C215.804 293.597 215.46 292.861 215.46 291.978C215.46 288.592 218.458 286.629 221.899 285.942C222.882 285.745 223.914 285.647 224.897 285.647C225.733 285.647 226.519 285.696 227.109 285.893C226.814 284.568 225.88 282.605 220.523 282.605Z" fill="url(#paint17_linear_101:46)"/>
<path d="M206.908 279.071C208.333 281.378 208.874 281.967 212.265 281.967C214.772 281.967 218.753 281.967 218.753 281.967L209.808 270.729C207.842 268.275 206.711 267.833 204.893 267.833H200.076L206.908 279.071Z" fill="url(#paint18_linear_101:46)"/>
<defs>
<filter id="filter0_bii_101:46" x="257.16" y="68.16" width="305.68" height="294.68" filterUnits="userSpaceOnUse" color-interpolation-filters="sRGB">
<feFlood flood-opacity="0" result="BackgroundImageFix"/>
<feGaussianBlur in="BackgroundImage" stdDeviation="4.42"/>
<feComposite in2="SourceAlpha" operator="in" result="effect1_backgroundBlur_101:46"/>
<feBlend mode="normal" in="SourceGraphic" in2="effect1_backgroundBlur_101:46" result="shape"/>
<feColorMatrix in="SourceAlpha" type="matrix" values="0 0 0 0 0 0 0 0 0 0 0 0 0 0 0 0 0 0 127 0" result="hardAlpha"/>
<feOffset dx="-3.4" dy="3.4"/>
<feGaussianBlur stdDeviation="1.7"/>
<feComposite in2="hardAlpha" operator="arithmetic" k2="-1" k3="1"/>
<feColorMatrix type="matrix" values="0 0 0 0 1 0 0 0 0 1 0 0 0 0 1 0 0 0 0.458 0"/>
<feBlend mode="normal" in2="shape" result="effect2_innerShadow_101:46"/>
<feColorMatrix in="SourceAlpha" type="matrix" values="0 0 0 0 0 0 0 0 0 0 0 0 0 0 0 0 0 0 127 0" result="hardAlpha"/>
<feOffset dx="3.4" dy="-3.4"/>
<feGaussianBlur stdDeviation="1.7"/>
<feComposite in2="hardAlpha" operator="arithmetic" k2="-1" k3="1"/>
<feColorMatrix type="matrix" values="0 0 0 0 0.84 0 0 0 0 0.84 0 0 0 0 0.84 0 0 0 0.458 0"/>
<feBlend mode="normal" in2="effect2_innerShadow_101:46" result="effect3_innerShadow_101:46"/>
</filter>
<linearGradient id="paint0_linear_101:46" x1="293.5" y1="208" x2="293.5" y2="335" gradientUnits="userSpaceOnUse">
<stop stop-color="white"/>
<stop offset="1" stop-color="white" stop-opacity="0"/>
</linearGradient>
<linearGradient id="paint1_linear_101:46" x1="274.5" y1="227" x2="274.5" y2="354" gradientUnits="userSpaceOnUse">
<stop stop-color="white"/>
<stop offset="1" stop-color="white" stop-opacity="0"/>
</linearGradient>
<linearGradient id="paint2_linear_101:46" x1="255.5" y1="258" x2="255.5" y2="385" gradientUnits="userSpaceOnUse">
<stop stop-color="white"/>
<stop offset="1" stop-color="white" stop-opacity="0"/>
</linearGradient>
<linearGradient id="paint3_linear_101:46" x1="312.5" y1="208" x2="312.5" y2="335" gradientUnits="userSpaceOnUse">
<stop stop-color="white"/>
<stop offset="1" stop-color="white" stop-opacity="0"/>
</linearGradient>
<linearGradient id="paint4_linear_101:46" x1="330.5" y1="208" x2="330.5" y2="335" gradientUnits="userSpaceOnUse">
<stop stop-color="white"/>
<stop offset="1" stop-color="white" stop-opacity="0"/>
</linearGradient>
<linearGradient id="paint5_linear_101:46" x1="349.5" y1="208" x2="349.5" y2="335" gradientUnits="userSpaceOnUse">
<stop stop-color="white"/>
<stop offset="1" stop-color="white" stop-opacity="0"/>
</linearGradient>
<linearGradient id="paint6_linear_101:46" x1="368.5" y1="208" x2="368.5" y2="335" gradientUnits="userSpaceOnUse">
<stop stop-color="white"/>
<stop offset="1" stop-color="white" stop-opacity="0"/>
</linearGradient>
<linearGradient id="paint7_linear_101:46" x1="386.5" y1="208" x2="386.5" y2="335" gradientUnits="userSpaceOnUse">
<stop stop-color="white"/>
<stop offset="1" stop-color="white" stop-opacity="0"/>
</linearGradient>
<linearGradient id="paint8_linear_101:46" x1="405.5" y1="208" x2="405.5" y2="335" gradientUnits="userSpaceOnUse">
<stop stop-color="white"/>
<stop offset="1" stop-color="white" stop-opacity="0"/>
</linearGradient>
<linearGradient id="paint9_linear_101:46" x1="423.5" y1="208" x2="423.5" y2="335" gradientUnits="userSpaceOnUse">
<stop stop-color="white"/>
<stop offset="1" stop-color="white" stop-opacity="0"/>
</linearGradient>
<linearGradient id="paint10_linear_101:46" x1="442.5" y1="208" x2="442.5" y2="335" gradientUnits="userSpaceOnUse">
<stop stop-color="white"/>
<stop offset="1" stop-color="white" stop-opacity="0"/>
</linearGradient>
<linearGradient id="paint11_linear_101:46" x1="460.5" y1="208" x2="460.5" y2="335" gradientUnits="userSpaceOnUse">
<stop stop-color="white"/>
<stop offset="1" stop-color="white" stop-opacity="0"/>
</linearGradient>
<linearGradient id="paint12_linear_101:46" x1="479.5" y1="208" x2="479.5" y2="335" gradientUnits="userSpaceOnUse">
<stop stop-color="white"/>
<stop offset="1" stop-color="white" stop-opacity="0"/>
</linearGradient>
<linearGradient id="paint13_linear_101:46" x1="497.5" y1="208" x2="497.5" y2="335" gradientUnits="userSpaceOnUse">
<stop stop-color="white"/>
<stop offset="1" stop-color="white" stop-opacity="0"/>
</linearGradient>
<linearGradient id="paint14_linear_101:46" x1="516.5" y1="208" x2="516.5" y2="335" gradientUnits="userSpaceOnUse">
<stop stop-color="white"/>
<stop offset="1" stop-color="white" stop-opacity="0"/>
</linearGradient>
<linearGradient id="paint15_linear_101:46" x1="225.932" y1="287.887" x2="225.932" y2="310.827" gradientUnits="userSpaceOnUse">
<stop stop-color="#E30613"/>
<stop offset="0.1471" stop-color="#DF0813"/>
<stop offset="0.2996" stop-color="#D30D13"/>
<stop offset="0.4545" stop-color="#BF1213"/>
<stop offset="0.6112" stop-color="#A51511"/>
<stop offset="0.7677" stop-color="#86160D"/>
<stop offset="0.81" stop-color="#7C150C"/>
</linearGradient>
<linearGradient id="paint16_linear_101:46" x1="215.47" y1="289.795" x2="223.856" y2="289.795" gradientUnits="userSpaceOnUse">
<stop stop-color="#6F251A"/>
<stop offset="0.1406" stop-color="#7F271B"/>
<stop offset="0.5166" stop-color="#A92B1E"/>
<stop offset="0.8162" stop-color="#C52B1E"/>
<stop offset="1" stop-color="#CF2B1E"/>
</linearGradient>
<linearGradient id="paint17_linear_101:46" x1="214.549" y1="288.572" x2="223.885" y2="282.954" gradientUnits="userSpaceOnUse">
<stop offset="0.1" stop-color="#F5F7FA"/>
<stop offset="0.3638" stop-color="#E1E6EB"/>
<stop offset="0.8932" stop-color="#B0BCC3"/>
<stop offset="1" stop-color="#A5B3BA"/>
</linearGradient>
<linearGradient id="paint18_linear_101:46" x1="209.398" y1="283.851" x2="209.398" y2="268.002" gradientUnits="userSpaceOnUse">
<stop stop-color="#212B6C"/>
<stop offset="0.1391" stop-color="#0E4584"/>
<stop offset="0.2977" stop-color="#00629F"/>
<stop offset="0.4543" stop-color="#007AB8"/>
<stop offset="0.6056" stop-color="#008ECC"/>
<stop offset="0.75" stop-color="#009CDA"/>
<stop offset="0.8847" stop-color="#00A4E3"/>
<stop offset="1" stop-color="#00A7E5"/>
</linearGradient>
</defs>
</svg>
