<svg width="542" height="335" viewBox="0 0 542 335" fill="none" xmlns="http://www.w3.org/2000/svg">
<rect width="542" height="335" fill="#0070CC"/>
<mask id="mask0_101:35" style="mask-type:alpha" maskUnits="userSpaceOnUse" x="300" y="126" width="242" height="209">
<rect x="300" y="126" width="242" height="209" fill="#0070CC"/>
</mask>
<g mask="url(#mask0_101:35)">
<rect x="345" y="249.134" width="10.1437" height="241" transform="rotate(-30.7424 345 249.134)" fill="url(#paint0_linear_101:35)"/>
<rect x="345" y="179.185" width="10.1437" height="241" transform="rotate(-30.7424 345 179.185)" fill="url(#paint1_linear_101:35)"/>
<rect x="417" y="213.186" width="10.1437" height="241" transform="rotate(-30.7424 417 213.186)" fill="url(#paint2_linear_101:35)"/>
<rect x="426" y="138.185" width="10.1437" height="241" transform="rotate(-30.7424 426 138.185)" fill="url(#paint3_linear_101:35)"/>
<circle cx="348" cy="244" r="6" fill="#BDDAF2"/>
<circle cx="350" cy="177" r="6" fill="#BDDAF2"/>
<circle cx="422" cy="210" r="6" fill="#BDDAF2"/>
<circle cx="432" cy="137" r="6" fill="#BDDAF2"/>
<path d="M509.722 142.556C510.643 143.953 510.909 145.792 510.492 148.078C510.074 150.367 508.979 153.062 507.236 156.107C503.751 162.198 497.737 169.597 489.649 177.82C473.479 194.26 449.099 213.919 420.339 232.888C391.579 251.858 363.91 266.532 342.432 274.924C331.689 279.121 322.52 281.737 315.55 282.543C312.064 282.946 309.155 282.893 306.887 282.375C304.621 281.859 303.035 280.89 302.114 279.494C301.193 278.097 300.927 276.258 301.344 273.972C301.761 271.683 302.857 268.988 304.6 265.943C308.085 259.852 314.099 252.453 322.187 244.23C338.356 227.79 362.737 208.131 391.497 189.162C420.257 170.192 447.925 155.518 469.404 147.126C480.147 142.929 489.316 140.313 496.286 139.507C499.772 139.104 502.68 139.157 504.949 139.675C507.215 140.191 508.801 141.16 509.722 142.556Z" stroke="url(#paint4_linear_101:35)"/>
<path d="M526.722 166.556C527.643 167.953 527.909 169.792 527.492 172.078C527.074 174.367 525.979 177.062 524.236 180.107C520.751 186.198 514.737 193.597 506.649 201.82C490.479 218.26 466.099 237.919 437.339 256.888C408.579 275.858 380.91 290.532 359.432 298.924C348.689 303.121 339.52 305.737 332.55 306.543C329.064 306.946 326.155 306.893 323.887 306.375C321.621 305.859 320.035 304.89 319.114 303.494C318.193 302.097 317.927 300.258 318.344 297.972C318.761 295.683 319.857 292.988 321.6 289.943C325.085 283.852 331.099 276.453 339.187 268.23C355.356 251.79 379.737 232.131 408.497 213.162C437.257 194.192 464.925 179.518 486.404 171.126C497.147 166.929 506.316 164.313 513.286 163.507C516.772 163.104 519.68 163.157 521.949 163.675C524.215 164.191 525.801 165.16 526.722 166.556Z" stroke="url(#paint5_linear_101:35)"/>
<path d="M543.722 190.556C544.643 191.953 544.909 193.792 544.492 196.078C544.074 198.367 542.979 201.062 541.236 204.107C537.751 210.198 531.737 217.597 523.649 225.82C507.479 242.26 483.099 261.919 454.339 280.888C425.579 299.858 397.91 314.532 376.432 322.924C365.689 327.121 356.52 329.737 349.55 330.543C346.064 330.946 343.155 330.893 340.887 330.375C338.621 329.859 337.035 328.89 336.114 327.494C335.193 326.097 334.927 324.258 335.344 321.972C335.761 319.683 336.857 316.988 338.6 313.943C342.085 307.852 348.099 300.453 356.187 292.23C372.356 275.79 396.737 256.131 425.497 237.162C454.257 218.192 481.925 203.518 503.404 195.126C514.147 190.929 523.316 188.313 530.286 187.507C533.772 187.104 536.68 187.157 538.949 187.675C541.215 188.191 542.801 189.16 543.722 190.556Z" stroke="url(#paint6_linear_101:35)"/>
</g>
<path d="M72.2967 294.463V293.458C71.5985 294.552 70.6497 295.252 69.4503 295.521C68.2509 295.791 67.0694 295.701 65.9058 295.234C64.7243 294.768 63.7218 293.888 62.8804 292.614C62.0391 291.34 61.6094 289.671 61.6094 287.589C61.6094 285.149 62.1644 283.192 63.2743 281.667C64.3842 280.16 66.1743 279.406 68.6447 279.406C70.5244 279.406 72.2609 279.908 73.872 280.931C75.4831 281.954 76.2708 283.838 76.2708 286.584V294.875C76.2708 297.621 75.4652 299.488 73.872 300.493C72.2609 301.498 70.5244 302 68.6447 302C65.0465 302 62.8088 300.313 61.9496 296.939H66.228C66.5324 297.496 67.0157 297.908 67.6602 298.213C68.3046 298.501 68.9491 298.59 69.5935 298.447C70.238 298.303 70.8287 297.926 71.3479 297.298C71.9028 296.652 72.2072 295.719 72.2967 294.463ZM65.6015 287.697C65.6015 290.407 66.3891 291.914 67.9466 292.201C69.504 292.489 70.6676 292.13 71.4016 291.107C71.7596 290.676 72.0102 289.994 72.1713 289.079C72.3325 288.164 72.3325 287.248 72.2072 286.333C72.0639 285.436 71.7417 284.628 71.2405 283.928C70.7392 283.228 69.9874 282.869 69.0028 282.869C67.6781 282.869 66.7651 283.354 66.2996 284.341C65.8342 285.31 65.6015 286.441 65.6015 287.697Z" fill="white"/>
<path d="M90.6097 295.396H88.551C87.9603 295.396 87.477 295.216 87.1189 294.84C86.743 294.463 86.564 293.978 86.564 293.404V285.4C86.564 284.467 86.2776 283.767 85.7047 283.336C85.1319 282.905 84.5053 282.69 83.7892 282.69C83.0911 282.69 82.4645 282.905 81.9096 283.336C81.3546 283.767 81.0861 284.449 81.0861 285.4V295.414H76.9688V286.225C76.9688 283.551 77.6669 281.775 79.0453 280.877C80.4417 279.98 81.9633 279.478 83.646 279.406C85.3646 279.406 86.9578 279.854 88.4078 280.752C89.8579 281.649 90.5739 283.48 90.5739 286.225V295.396H90.6097Z" fill="white"/>
<path d="M91.6124 281.111H95.7298C95.7298 283.3 95.7298 282.564 95.7298 283.121V295.414H91.6124V281.111Z" fill="white"/>
<path d="M103.284 295.396C101.995 295.467 100.599 295.449 99.0954 295.342C97.5916 295.216 96.8398 294.265 96.8398 292.452V277.144H98.9522C99.4534 277.144 99.9188 277.342 100.295 277.736C100.689 278.131 100.886 278.598 100.886 279.154V279.693H103.284V280.518C103.284 281.11 103.087 281.595 102.694 281.954C102.3 282.331 101.834 282.51 101.279 282.51H100.868V291.322C100.868 291.986 101.261 292.327 102.049 292.327H103.284V295.396Z" fill="white"/>
<path d="M114.49 290.568H117.426C116.997 292.219 116.173 293.475 114.956 294.337C113.739 295.234 112.217 295.683 110.373 295.683C108.135 295.683 106.399 294.965 105.146 293.511C103.893 292.094 103.266 290.084 103.266 287.445C103.266 284.933 103.875 282.977 105.092 281.559C106.345 280.105 108.082 279.388 110.319 279.388C112.665 279.388 114.49 280.087 115.779 281.505C117.032 282.959 117.659 284.969 117.659 287.571C117.659 287.733 117.659 287.858 117.659 287.984C117.659 288.109 117.659 288.181 117.659 288.217C117.659 288.415 117.641 288.558 117.605 288.63H107.455C107.491 289.85 107.795 290.748 108.332 291.34C108.834 291.968 109.603 292.273 110.624 292.273C111.286 292.273 111.859 292.129 112.324 291.86C112.45 291.824 112.557 291.753 112.647 291.645C112.736 291.555 112.844 291.447 112.969 291.322C113.005 291.196 113.148 291.053 113.416 290.855C113.667 290.676 114.025 290.568 114.49 290.568ZM107.455 285.992H113.452C113.381 284.933 113.094 284.143 112.629 283.641C112.127 283.085 111.394 282.815 110.463 282.815C109.603 282.815 108.905 283.085 108.35 283.641C107.777 284.179 107.491 284.969 107.455 285.992Z" fill="white"/>
<path d="M56.6138 273.914H58.7262C59.2812 273.914 59.7466 274.112 60.1404 274.507C60.5343 274.901 60.7312 275.368 60.7312 275.924V295.414H56.6138V273.914Z" fill="white"/>
<path d="M91.6122 277.145H93.7246C94.2795 277.145 94.745 277.342 95.1388 277.737C95.5326 278.132 95.7295 278.598 95.7295 279.155V280.393H91.6122V277.145Z" fill="white"/>
<path d="M67.0154 277.36H66.3709V276.894C66.0487 277.252 65.6011 277.432 65.0462 277.432C64.527 277.432 64.0795 277.252 63.7036 276.911C63.3097 276.535 63.1128 276.068 63.1128 275.494C63.1128 274.902 63.3276 274.417 63.7394 274.04C64.1153 273.681 64.5808 273.52 65.0999 273.52C65.6369 273.52 66.0666 273.699 66.3888 274.076V273.609H67.0333V277.36H67.0154ZM66.353 275.494C66.353 275.135 66.2277 274.83 65.995 274.561C65.7444 274.309 65.4579 274.184 65.0999 274.184C64.724 274.184 64.4196 274.309 64.1511 274.578C63.9005 274.83 63.7752 275.099 63.7752 275.386C63.7752 275.763 63.8826 276.086 64.1153 276.355C64.348 276.642 64.6524 276.768 65.0283 276.768C65.3863 276.768 65.6906 276.642 65.9592 276.391C66.2277 276.158 66.353 275.853 66.353 275.494Z" fill="white"/>
<path d="M71.6697 275.386C71.6697 275.978 71.4907 276.463 71.1327 276.84C70.7568 277.235 70.2913 277.432 69.7006 277.432C69.1635 277.432 68.7518 277.252 68.4296 276.911V278.598H67.7493V273.591H68.3938V274.04C68.5549 273.861 68.7518 273.735 68.9487 273.645C69.1635 273.556 69.3783 273.52 69.629 273.52C70.1481 273.52 70.6135 273.699 71.0074 274.04C71.4549 274.399 71.6697 274.848 71.6697 275.386ZM70.9716 275.476C70.9716 275.117 70.8463 274.812 70.5956 274.561C70.345 274.309 70.0228 274.184 69.6648 274.184C69.2888 274.184 68.9845 274.327 68.7339 274.596C68.5012 274.848 68.3938 275.153 68.3938 275.494C68.3938 275.817 68.4833 276.086 68.6802 276.337C68.9129 276.624 69.253 276.768 69.7006 276.768C70.0586 276.768 70.3629 276.642 70.6135 276.391C70.8642 276.158 70.9716 275.853 70.9716 275.476Z" fill="white"/>
<path d="M76.1636 277.36H75.5192V276.894C75.1969 277.252 74.7494 277.432 74.1944 277.432C73.6753 277.432 73.2278 277.252 72.8518 276.911C72.458 276.535 72.2611 276.068 72.2611 275.494C72.2611 274.902 72.4759 274.417 72.8876 274.04C73.2636 273.681 73.729 273.52 74.2481 273.52C74.7852 273.52 75.2148 273.699 75.5371 274.076V273.609H76.1815V277.36H76.1636ZM75.5192 275.494C75.5192 275.135 75.3938 274.83 75.1611 274.561C74.9105 274.309 74.6241 274.184 74.2661 274.184C73.8901 274.184 73.5858 274.309 73.3173 274.578C73.0666 274.83 72.9413 275.099 72.9413 275.386C72.9413 275.763 73.0487 276.086 73.2815 276.355C73.5142 276.642 73.8185 276.768 74.1944 276.768C74.5525 276.768 74.8568 276.642 75.1253 276.391C75.3759 276.158 75.5192 275.853 75.5192 275.494Z" fill="white"/>
<path d="M80.656 276.122C80.4412 276.553 80.1905 276.876 79.9041 277.091C79.5819 277.324 79.2059 277.45 78.7405 277.45C78.2214 277.45 77.7559 277.27 77.3621 276.894C76.9504 276.499 76.7355 276.032 76.7355 275.458H76.7713C76.7713 275.458 76.7713 275.476 76.7534 275.494C76.7534 274.902 76.9504 274.417 77.3621 274.04C77.7201 273.699 78.1498 273.52 78.651 273.52C79.1164 273.52 79.5103 273.645 79.8683 273.879C80.2084 274.112 80.477 274.453 80.6381 274.884H79.8862C79.6356 274.435 79.2238 274.202 78.6689 274.202C78.3109 274.202 78.0244 274.327 77.7917 274.578C77.559 274.83 77.4337 275.135 77.4337 275.494C77.4337 275.853 77.559 276.176 77.8096 276.427C78.0602 276.678 78.3646 276.804 78.7226 276.804C78.9553 276.804 79.188 276.75 79.4029 276.624C79.6177 276.499 79.7788 276.337 79.9041 276.14H80.656V276.122Z" fill="white"/>
<path d="M84.5411 277.36H83.8609V275.206C83.8609 274.919 83.7713 274.668 83.5744 274.489C83.3954 274.309 83.1448 274.201 82.8584 274.201C82.5719 274.201 82.3392 274.291 82.1602 274.453C81.9812 274.632 81.8917 274.847 81.8917 275.135V277.36H81.2114V272.353H81.8917V273.914C82.1602 273.645 82.4824 273.519 82.8763 273.519C83.3059 273.519 83.6818 273.663 84.0041 273.968C84.3442 274.291 84.5232 274.704 84.5232 275.206V277.36H84.5411Z" fill="white"/>
<path d="M88.9808 275.745H85.8122C85.8659 276.068 86.027 276.319 86.2776 276.517C86.5104 276.678 86.761 276.768 87.0295 276.768C87.2801 276.768 87.5128 276.696 87.7456 276.552C87.9783 276.409 88.1394 276.211 88.2289 275.978H88.9271C88.7481 276.481 88.4616 276.84 88.0857 277.091C87.7635 277.306 87.4054 277.414 87.0116 277.414C86.5104 277.414 86.0807 277.234 85.7227 276.875C85.3468 276.481 85.1498 276.014 85.1498 275.44C85.1498 274.848 85.3468 274.363 85.7585 274.004C86.1344 273.663 86.5641 273.502 87.0653 273.502C87.5666 273.502 88.0141 273.663 88.3721 274.004C88.7839 274.381 88.9987 274.901 88.9987 275.547V275.745H88.9808ZM88.2826 275.117C88.211 274.83 88.0499 274.614 87.8172 274.435C87.5845 274.255 87.3338 274.166 87.0474 274.166C86.6894 274.166 86.385 274.291 86.1523 274.525C85.9912 274.686 85.8659 274.883 85.8122 275.117H88.2826Z" fill="white"/>
<path d="M38.7481 272.102C38.7481 272.102 26.3065 279.711 38.032 287.266C40.2876 288.738 48.4686 292.83 48.2359 296.616C48.2359 296.616 53.1946 289.258 45.9445 284.628C38.4974 279.89 36.6357 274.83 38.7481 272.102Z" fill="white"/>
<path d="M34.416 286.638C34.416 286.638 29.9764 293.386 38.7124 294.768C39.5717 294.876 45.8909 295.54 47.5378 297.621C47.5378 297.621 47.3946 294.032 42.239 291.915C37.1012 289.797 34.9889 289.276 34.416 286.638Z" fill="white"/>
<path d="M51.6014 279.549C46.2667 273.95 44.7809 270.487 47.0723 266C47.0723 266 31.1578 272.138 46.8754 283.031C52.4964 286.925 51.5656 290.909 51.5656 291.053C52.4427 290.138 56.936 285.149 51.6014 279.549Z" fill="white"/>
<path fill-rule="evenodd" clip-rule="evenodd" d="M179.971 278.915C173.736 278.915 172.305 279.628 171.18 282.891L168.216 290.844H171.589L173.429 286.052H180.584L181.504 283.707H174.247L174.553 282.993C175.064 281.566 175.882 281.26 177.927 281.26H183.139L184.059 278.915H179.971ZM185.592 278.915L181.095 290.844H184.571L188.966 278.915H185.592ZM202.253 278.915H190.295L189.477 281.26H193.668L190.09 290.844H193.565L197.143 281.26H201.334L202.253 278.915ZM208.591 281.26C210.328 281.26 211.555 281.158 211.044 282.687C210.84 283.197 209.919 285.848 209.919 285.848L208.08 290.844H211.453C211.453 290.844 214.212 283.401 214.519 282.687C215.439 279.934 213.19 278.813 209.511 278.813H209.408C205.729 278.813 203.275 279.628 202.049 282.075C201.742 282.687 198.778 290.844 198.778 290.844H202.151L203.991 285.848C203.991 285.848 205.013 283.197 205.32 282.687C205.933 281.566 206.853 281.26 208.591 281.26ZM224.536 278.915C218.404 278.915 216.87 280.444 216.053 282.789L214.519 286.868C214.11 287.887 214.11 288.703 214.621 289.315C215.337 290.232 217.177 290.844 219.835 290.844H224.127L224.945 288.499H220.039C218.915 288.499 218.097 288.295 217.892 287.989C217.79 287.785 217.79 287.683 217.79 287.479C217.79 287.275 217.79 287.072 217.892 286.765C217.892 286.765 218.097 286.256 218.199 286.052C218.608 286.052 225.865 286.052 225.865 286.052L226.785 283.707H219.119L219.426 282.993C219.937 281.566 221.367 281.26 224.23 281.26H227.705L228.523 278.915H224.536ZM233.122 278.915C230.976 278.915 229.647 280.444 228.931 281.973L228.523 282.993C228.216 283.809 228.318 284.726 228.727 285.338C229.136 285.95 229.851 286.052 230.669 286.052H235.678C236.393 286.052 236.7 286.154 236.597 286.664C236.393 287.275 235.984 288.397 234.758 288.499H226.479L225.558 290.844H234.86C236.597 290.844 238.335 290.13 239.153 287.989L239.562 286.97C239.868 286.154 239.868 285.236 239.46 284.624C238.949 284.012 238.029 283.707 237.211 283.707H233.122C232.1 283.707 231.18 283.911 231.896 282.381C232.304 281.668 232.815 281.26 233.735 281.26H240.788L241.708 278.915H233.122ZM246.615 278.915C244.468 278.915 243.139 280.444 242.423 281.973L242.014 282.993C241.708 283.809 241.708 284.726 242.22 285.338C242.628 285.95 243.344 286.052 244.161 286.052H249.17C249.885 286.052 250.192 286.154 250.09 286.664C249.885 287.275 249.476 288.397 248.25 288.499H239.971L239.051 290.844H248.352C250.09 290.844 251.827 290.13 252.645 287.989L253.054 286.97C253.361 286.154 253.361 285.236 252.85 284.624C252.44 284.012 251.521 283.707 250.703 283.707H246.615C245.592 283.707 244.672 283.911 245.388 282.381C245.797 281.668 246.308 281.26 247.228 281.26H254.281L255.2 278.915H246.615Z" fill="white"/>
<path fill-rule="evenodd" clip-rule="evenodd" d="M140.107 284.012C138.267 287.683 138.165 291.557 139.698 294.413C141.13 297.064 143.787 298.797 147.262 299.307C154.724 300.326 163.617 295.228 167.092 287.887C168.829 284.217 168.932 280.444 167.399 277.487C165.967 274.836 163.31 273.103 159.835 272.695C152.475 271.676 143.582 276.672 140.107 284.012Z" fill="white"/>
<path fill-rule="evenodd" clip-rule="evenodd" d="M143.582 285.848C142.458 289.111 142.663 292.169 144.298 294.413C145.831 296.554 148.285 297.675 151.351 297.675C157.79 297.675 164.945 292.374 167.194 285.95C168.318 282.687 168.114 279.628 166.478 277.385C164.945 275.244 162.492 274.123 159.426 274.123C152.986 274.123 145.831 279.424 143.582 285.848Z" fill="#0070CC"/>
<path fill-rule="evenodd" clip-rule="evenodd" d="M154.52 288.295L153.804 290.13C153.804 290.232 153.702 290.436 153.497 290.436H152.578C152.578 290.436 152.578 290.436 152.475 290.334V290.232L153.191 288.295H152.578L151.862 290.232C151.862 290.334 151.862 290.538 151.964 290.64C152.066 290.844 152.169 290.844 152.475 290.844H153.395C153.906 290.844 154.315 290.538 154.417 290.334L155.133 288.295H154.52Z" fill="white"/>
<path fill-rule="evenodd" clip-rule="evenodd" d="M150.022 288.295C149.613 288.295 149.205 288.601 149.102 288.805L148.489 290.232C148.489 290.334 148.489 290.538 148.591 290.64C148.694 290.844 148.898 290.844 149.102 290.844H150.124C150.533 290.844 150.942 290.64 151.044 290.334L151.555 288.907C151.657 288.805 151.657 288.601 151.555 288.499C151.453 288.397 151.249 288.295 151.044 288.295H150.533H150.022ZM150.022 288.805H150.84H150.942V288.907L150.431 290.13C150.431 290.232 150.329 290.436 150.124 290.436H149.307H149.205C149.102 290.334 149.102 290.334 149.205 290.232L149.307 289.926L149.613 289.009C149.716 289.009 149.716 288.805 150.022 288.805Z" fill="white"/>
<path fill-rule="evenodd" clip-rule="evenodd" d="M156.87 288.295C156.462 288.295 155.951 288.397 155.951 288.703L155.031 290.844H155.746C155.746 290.844 156.053 290.13 156.053 290.028H156.768C156.87 290.028 157.177 290.028 157.381 290.232L157.79 290.844H158.608L158.404 290.64C158.404 290.64 158.199 290.13 157.994 290.028L157.892 289.926C158.199 289.926 158.505 289.722 158.505 289.62L158.915 288.703C158.915 288.703 158.915 288.601 158.813 288.499C158.711 288.397 158.403 288.295 158.097 288.295H157.586H156.87ZM156.87 288.703H157.892C158.199 288.703 158.199 288.805 158.199 288.805L157.892 289.416C157.892 289.416 157.79 289.518 157.586 289.518H156.462C156.257 289.518 156.257 289.416 156.257 289.416L156.462 288.907C156.564 288.805 156.666 288.703 156.87 288.703Z" fill="white"/>
<path fill-rule="evenodd" clip-rule="evenodd" d="M147.773 288.295L147.364 289.314H145.933L146.24 288.295H145.627L144.605 290.844H145.32L145.729 289.824H147.16L146.853 290.844H147.467L148.489 288.295H147.773Z" fill="white"/>
<path fill-rule="evenodd" clip-rule="evenodd" d="M155.235 286.664L155.644 285.644H148.898C147.875 285.644 148.693 283.911 149.716 283.911H153.191C153.804 283.911 154.417 283.911 155.031 283.503C155.644 282.993 156.155 282.381 156.462 281.77L156.666 281.056C157.177 279.934 156.666 278.915 155.133 278.915H149.818L149.102 280.546H153.906C155.235 280.546 154.724 281.158 154.622 281.566C154.417 282.177 153.804 282.279 153.089 282.279H149.92C149.307 282.279 148.693 282.483 147.978 282.993C147.365 283.401 146.853 284.012 146.649 284.624L146.342 285.338C146.138 285.95 146.138 286.358 146.24 286.664H155.235ZM146.24 286.664C146.444 287.173 147.058 287.377 147.773 287.377H154.928L155.235 286.664H146.24Z" fill="white"/>
<path fill-rule="evenodd" clip-rule="evenodd" d="M163.208 286.664V286.562H165.865L166.376 284.828H163.923L164.945 282.177H162.901L161.879 284.828H159.835C158.71 284.828 158.915 284.114 158.915 284.114L161.163 278.915H159.017L156.666 284.522C156.462 284.93 156.564 285.44 156.87 285.746C157.177 286.256 157.893 286.562 158.813 286.562H161.163V286.664H163.208ZM161.163 286.664L159.528 290.844H161.572L163.208 286.664H161.163Z" fill="white"/>
<defs>
<linearGradient id="paint0_linear_101:35" x1="350.072" y1="249.134" x2="350.072" y2="490.134" gradientUnits="userSpaceOnUse">
<stop stop-color="white" stop-opacity="0.36"/>
<stop offset="1" stop-color="white" stop-opacity="0"/>
</linearGradient>
<linearGradient id="paint1_linear_101:35" x1="350.072" y1="179.185" x2="350.072" y2="420.185" gradientUnits="userSpaceOnUse">
<stop stop-color="white" stop-opacity="0.36"/>
<stop offset="1" stop-color="white" stop-opacity="0"/>
</linearGradient>
<linearGradient id="paint2_linear_101:35" x1="422.072" y1="213.186" x2="422.072" y2="454.186" gradientUnits="userSpaceOnUse">
<stop stop-color="white" stop-opacity="0.36"/>
<stop offset="1" stop-color="white" stop-opacity="0"/>
</linearGradient>
<linearGradient id="paint3_linear_101:35" x1="431.072" y1="138.185" x2="431.072" y2="379.185" gradientUnits="userSpaceOnUse">
<stop stop-color="white" stop-opacity="0.36"/>
<stop offset="1" stop-color="white" stop-opacity="0"/>
</linearGradient>
<linearGradient id="paint4_linear_101:35" x1="391.222" y1="188.744" x2="420.614" y2="233.306" gradientUnits="userSpaceOnUse">
<stop stop-color="white" stop-opacity="0"/>
<stop offset="1" stop-color="white"/>
</linearGradient>
<linearGradient id="paint5_linear_101:35" x1="408.222" y1="212.744" x2="437.614" y2="257.306" gradientUnits="userSpaceOnUse">
<stop stop-color="white" stop-opacity="0"/>
<stop offset="1" stop-color="white"/>
</linearGradient>
<linearGradient id="paint6_linear_101:35" x1="425.222" y1="236.744" x2="454.614" y2="281.306" gradientUnits="userSpaceOnUse">
<stop stop-color="white" stop-opacity="0"/>
<stop offset="1" stop-color="white"/>
</linearGradient>
</defs>
</svg>
