<svg width="542" height="335" viewBox="0 0 542 335" fill="none" xmlns="http://www.w3.org/2000/svg">
<rect width="542" height="335" fill="#91C2EA"/>
<mask id="mask0_101:37" style="mask-type:alpha" maskUnits="userSpaceOnUse" x="275" y="116" width="265" height="219">
<rect x="275" y="116" width="265" height="219" fill="#91C2EA"/>
</mask>
<g mask="url(#mask0_101:37)">
<path d="M367.737 231L523.211 321L523.211 351L367.737 261L367.737 231Z" fill="#BDDAF2" stroke="white"/>
<rect width="89.8222" height="30" transform="matrix(0.865453 -0.50099 2.19725e-08 1 523.211 321)" fill="#BDDAF2" stroke="white"/>
<path d="M445.474 186L600.948 276L523.211 321L367.737 231L445.474 186Z" fill="#BDDAF2" stroke="white"/>
<path d="M367.737 201L445.474 246L445.474 276L367.737 231L367.737 201Z" fill="#BDDAF2" stroke="white"/>
<rect width="89.8222" height="30" transform="matrix(0.865453 -0.50099 2.19725e-08 1 445.474 246)" fill="#BDDAF2" stroke="white"/>
<path d="M445.474 156L523.211 201L445.474 246L367.737 201L445.474 156Z" fill="#BDDAF2" stroke="white"/>
<path d="M367.737 171L445.474 216L445.474 246L367.737 201L367.737 171Z" fill="#BDDAF2" stroke="white"/>
<rect width="89.8222" height="30" transform="matrix(0.865453 -0.50099 2.19725e-08 1 445.474 216)" fill="#BDDAF2" stroke="white"/>
<path d="M445.474 126L523.211 171L445.474 216L367.737 171L445.474 126Z" fill="#BDDAF2" stroke="white"/>
<path d="M290 276L367.737 321L367.737 351L290 306L290 276Z" fill="#BDDAF2" stroke="white"/>
<rect width="89.8222" height="30" transform="matrix(0.865453 -0.50099 2.19725e-08 1 367.737 321)" fill="#BDDAF2" stroke="white"/>
<path d="M367.737 231L445.474 276L367.737 321L290 276L367.737 231Z" fill="#BDDAF2" stroke="white"/>
<path d="M290 246L367.737 291L367.737 321L290 276L290 246Z" fill="#BDDAF2" stroke="white"/>
<rect width="89.8222" height="30" transform="matrix(0.865453 -0.50099 2.19725e-08 1 367.737 291)" fill="#BDDAF2" stroke="white"/>
<path d="M367.737 201L445.474 246L367.737 291L290 246L367.737 201Z" fill="#BDDAF2" stroke="white"/>
<path d="M445.474 246L523.211 291L523.211 321L445.474 276L445.474 246Z" fill="#BDDAF2" stroke="white"/>
<rect width="89.8222" height="30" transform="matrix(0.865453 -0.50099 2.19725e-08 1 523.211 291)" fill="#BDDAF2" stroke="white"/>
<path d="M523.211 201L600.948 246L523.211 291L445.474 246L523.211 201Z" fill="#BDDAF2" stroke="white"/>
<path d="M367.737 321L445.474 366L445.474 396L367.737 351L367.737 321Z" fill="#BDDAF2" stroke="white"/>
<rect width="89.8222" height="30" transform="matrix(0.865453 -0.50099 2.19725e-08 1 445.474 366)" fill="#BDDAF2" stroke="white"/>
<path d="M445.474 276L523.211 321L445.474 366L367.737 321L445.474 276Z" fill="#BDDAF2" stroke="white"/>
</g>
<path d="M154.895 289.062V288.032C154.187 289.154 153.226 289.871 152.01 290.147C150.794 290.423 149.597 290.331 148.417 289.853C147.22 289.375 146.204 288.473 145.351 287.167C144.498 285.861 144.063 284.15 144.063 282.017C144.063 279.515 144.625 277.51 145.75 275.946C146.875 274.401 148.689 273.628 151.193 273.628C153.099 273.628 154.858 274.143 156.491 275.192C158.124 276.241 158.923 278.172 158.923 280.986V289.485C158.923 292.3 158.106 294.213 156.491 295.243C154.858 296.273 153.099 296.788 151.193 296.788C147.546 296.788 145.278 295.059 144.407 291.601H148.744C149.052 292.171 149.542 292.594 150.195 292.907C150.849 293.201 151.502 293.293 152.155 293.146C152.808 292.999 153.407 292.612 153.933 291.968C154.496 291.306 154.804 290.35 154.895 289.062ZM148.109 282.127C148.109 284.905 148.907 286.45 150.486 286.744C152.064 287.039 153.244 286.671 153.988 285.622C154.35 285.181 154.604 284.482 154.768 283.543C154.931 282.605 154.931 281.667 154.804 280.729C154.659 279.809 154.332 278.981 153.824 278.264C153.316 277.547 152.554 277.179 151.556 277.179C150.214 277.179 149.288 277.675 148.817 278.687C148.345 279.68 148.109 280.839 148.109 282.127Z" fill="white"/>
<path d="M173.457 290.019H171.371C170.772 290.019 170.282 289.835 169.919 289.448C169.538 289.062 169.357 288.565 169.357 287.977V279.772C169.357 278.816 169.066 278.098 168.486 277.657C167.905 277.215 167.27 276.995 166.544 276.995C165.837 276.995 165.202 277.215 164.639 277.657C164.077 278.098 163.805 278.797 163.805 279.772V290.037H159.631V280.619C159.631 277.878 160.339 276.057 161.736 275.137C163.151 274.217 164.694 273.702 166.399 273.628C168.141 273.628 169.756 274.088 171.226 275.008C172.695 275.928 173.421 277.804 173.421 280.619V290.019H173.457Z" fill="white"/>
<path d="M174.473 275.376H178.646C178.646 277.621 178.646 276.866 178.646 277.437V290.037H174.473V275.376Z" fill="white"/>
<path d="M186.304 290.019C184.997 290.093 183.582 290.075 182.058 289.964C180.534 289.835 179.772 288.861 179.772 287.003V271.312H181.913C182.421 271.312 182.893 271.514 183.274 271.919C183.673 272.323 183.872 272.802 183.872 273.372V273.924H186.304V274.77C186.304 275.377 186.104 275.874 185.705 276.241C185.306 276.628 184.834 276.812 184.272 276.812H183.854V285.844C183.854 286.524 184.253 286.874 185.052 286.874H186.304V290.019Z" fill="white"/>
<path d="M197.661 285.07H200.637C200.201 286.763 199.367 288.05 198.133 288.933C196.899 289.853 195.357 290.313 193.488 290.313C191.22 290.313 189.46 289.577 188.19 288.087C186.92 286.634 186.285 284.574 186.285 281.87C186.285 279.294 186.902 277.289 188.135 275.836C189.406 274.346 191.165 273.61 193.434 273.61C195.81 273.61 197.661 274.328 198.967 275.781C200.238 277.271 200.873 279.331 200.873 281.998C200.873 282.164 200.873 282.293 200.873 282.421C200.873 282.55 200.873 282.624 200.873 282.661C200.873 282.863 200.854 283.01 200.818 283.084H190.53C190.567 284.335 190.875 285.254 191.42 285.861C191.928 286.505 192.708 286.818 193.742 286.818C194.413 286.818 194.994 286.671 195.466 286.395C195.593 286.358 195.702 286.284 195.792 286.174C195.883 286.082 195.992 285.972 196.119 285.843C196.155 285.714 196.3 285.567 196.572 285.365C196.826 285.181 197.189 285.07 197.661 285.07ZM190.53 280.38H196.609C196.536 279.294 196.246 278.485 195.774 277.97C195.266 277.4 194.522 277.124 193.579 277.124C192.708 277.124 192 277.4 191.438 277.97C190.857 278.522 190.567 279.331 190.53 280.38Z" fill="white"/>
<path d="M139 268H141.141C141.703 268 142.175 268.202 142.574 268.607C142.974 269.012 143.173 269.49 143.173 270.06V290.037H139V268Z" fill="white"/>
<path d="M174.472 271.312H176.613C177.176 271.312 177.647 271.514 178.046 271.919C178.446 272.324 178.645 272.802 178.645 273.372V274.642H174.472V271.312Z" fill="white"/>
<path d="M167.037 298.785V298.463L172.189 295.273L172.605 295.962L168.262 298.574L172.616 301.142L172.2 301.809L167.037 298.785Z" fill="white"/>
<path d="M177.677 300.675C177.677 300.438 177.586 300.256 177.403 300.13C177.221 299.997 176.995 299.893 176.725 299.819C176.455 299.737 176.16 299.663 175.839 299.597C175.525 299.53 175.234 299.441 174.964 299.33C174.694 299.219 174.468 299.071 174.285 298.885C174.103 298.693 174.012 298.426 174.012 298.085C174.012 297.803 174.07 297.563 174.187 297.363C174.311 297.162 174.471 296.999 174.668 296.873C174.865 296.74 175.095 296.644 175.358 296.584C175.62 296.518 175.894 296.484 176.178 296.484C176.688 296.484 177.126 296.551 177.491 296.685C177.863 296.81 178.158 296.944 178.377 297.085L178.027 297.785C177.786 297.652 177.524 297.526 177.239 297.407C176.962 297.281 176.612 297.218 176.189 297.218C176.028 297.218 175.868 297.237 175.708 297.274C175.554 297.303 175.412 297.351 175.281 297.418C175.157 297.485 175.055 297.574 174.975 297.685C174.902 297.789 174.865 297.918 174.865 298.074C174.865 298.267 174.956 298.415 175.139 298.519C175.321 298.622 175.547 298.711 175.817 298.785C176.087 298.852 176.379 298.919 176.692 298.985C177.013 299.045 177.308 299.134 177.578 299.252C177.848 299.371 178.074 299.53 178.256 299.73C178.439 299.93 178.53 300.201 178.53 300.541C178.53 301.053 178.329 301.475 177.928 301.809C177.534 302.142 176.94 302.309 176.145 302.309C175.904 302.309 175.667 302.287 175.434 302.242C175.201 302.198 174.982 302.138 174.778 302.064C174.574 301.99 174.388 301.909 174.22 301.82C174.052 301.723 173.914 301.627 173.804 301.531L174.242 300.808C174.329 300.897 174.446 300.99 174.592 301.086C174.738 301.175 174.898 301.257 175.073 301.331C175.248 301.405 175.434 301.464 175.631 301.508C175.835 301.553 176.039 301.575 176.244 301.575C176.441 301.575 176.623 301.56 176.791 301.531C176.966 301.494 177.119 301.442 177.25 301.375C177.381 301.301 177.483 301.208 177.556 301.097C177.637 300.979 177.677 300.838 177.677 300.675Z" fill="white"/>
<path d="M183.197 296.618H184.75V300.408C184.75 300.771 184.772 301.119 184.816 301.453H185.549V302.175H184.094L184.061 301.231H184.017C183.828 301.549 183.576 301.809 183.262 302.009C182.949 302.209 182.57 302.309 182.125 302.309C181.789 302.309 181.501 302.268 181.261 302.186C181.027 302.112 180.834 301.979 180.681 301.786C180.528 301.594 180.415 301.338 180.342 301.019C180.269 300.693 180.232 300.29 180.232 299.808V297.363H179.499V296.618H181.085V299.63C181.085 299.934 181.096 300.208 181.118 300.453C181.147 300.69 181.202 300.893 181.282 301.064C181.363 301.227 181.479 301.353 181.632 301.442C181.793 301.523 182.004 301.564 182.267 301.564C182.646 301.564 182.974 301.438 183.251 301.186C183.536 300.934 183.751 300.619 183.897 300.241V297.363H183.197V296.618Z" fill="white"/>
<path d="M188.432 302.175V298.474C188.432 298.318 188.425 298.17 188.411 298.029C188.403 297.881 188.378 297.752 188.334 297.64C188.298 297.522 188.239 297.429 188.159 297.363C188.086 297.296 187.988 297.263 187.864 297.263C187.616 297.263 187.404 297.366 187.229 297.574C187.061 297.781 186.934 298.041 186.846 298.352V302.175H186.015V296.618H186.584L186.748 297.296H186.792C186.865 297.185 186.934 297.081 186.999 296.985C187.072 296.881 187.153 296.792 187.24 296.718C187.335 296.644 187.444 296.588 187.568 296.551C187.692 296.507 187.849 296.484 188.039 296.484C188.148 296.484 188.261 296.503 188.378 296.54C188.494 296.57 188.6 296.622 188.695 296.696C188.797 296.762 188.885 296.855 188.958 296.974C189.031 297.092 189.078 297.237 189.1 297.407C189.268 297.118 189.453 296.892 189.658 296.729C189.869 296.566 190.157 296.484 190.522 296.484C190.763 296.484 190.956 296.525 191.102 296.607C191.255 296.688 191.372 296.807 191.452 296.962C191.539 297.111 191.598 297.292 191.627 297.507C191.663 297.715 191.681 297.948 191.681 298.207V302.175H190.85V298.396C190.85 298.241 190.843 298.096 190.828 297.963C190.814 297.822 190.784 297.7 190.741 297.596C190.704 297.492 190.65 297.411 190.577 297.351C190.511 297.292 190.42 297.263 190.303 297.263C190.048 297.263 189.833 297.366 189.658 297.574C189.483 297.781 189.351 298.078 189.264 298.463V302.175H188.432Z" fill="white"/>
<path d="M194.773 302.175V298.474C194.773 298.318 194.766 298.17 194.751 298.029C194.744 297.881 194.718 297.752 194.675 297.64C194.638 297.522 194.58 297.429 194.5 297.363C194.427 297.296 194.328 297.263 194.204 297.263C193.956 297.263 193.745 297.366 193.57 297.574C193.402 297.781 193.274 298.041 193.187 298.352V302.175H192.355V296.618H192.924L193.088 297.296H193.132C193.205 297.185 193.274 297.081 193.34 296.985C193.413 296.881 193.493 296.792 193.581 296.718C193.675 296.644 193.785 296.588 193.909 296.551C194.033 296.507 194.19 296.484 194.379 296.484C194.489 296.484 194.602 296.503 194.718 296.54C194.835 296.57 194.941 296.622 195.036 296.696C195.138 296.762 195.225 296.855 195.298 296.974C195.371 297.092 195.418 297.237 195.44 297.407C195.608 297.118 195.794 296.892 195.998 296.729C196.21 296.566 196.498 296.484 196.862 296.484C197.103 296.484 197.296 296.525 197.442 296.607C197.595 296.688 197.712 296.807 197.792 296.962C197.88 297.111 197.938 297.292 197.967 297.507C198.004 297.715 198.022 297.948 198.022 298.207V302.175H197.191V298.396C197.191 298.241 197.183 298.096 197.169 297.963C197.154 297.822 197.125 297.7 197.081 297.596C197.045 297.492 196.99 297.411 196.917 297.351C196.852 297.292 196.76 297.263 196.644 297.263C196.388 297.263 196.173 297.366 195.998 297.574C195.823 297.781 195.692 298.078 195.604 298.463V302.175H194.773Z" fill="white"/>
<path d="M199.396 302.175V301.431H201.3V297.363H199.396V296.618H202.175V301.431H204.034V302.175H199.396ZM201.004 295.04C201.004 294.839 201.07 294.669 201.201 294.528C201.332 294.38 201.5 294.306 201.704 294.306C201.916 294.306 202.091 294.38 202.229 294.528C202.375 294.669 202.448 294.839 202.448 295.04C202.448 295.232 202.375 295.395 202.229 295.529C202.091 295.662 201.916 295.729 201.704 295.729C201.5 295.729 201.332 295.662 201.201 295.529C201.07 295.395 201.004 295.232 201.004 295.04Z" fill="white"/>
<path d="M204.927 296.618H206.229V295.517L207.082 295.273V296.618H210.003V297.363H207.082V299.986C207.082 300.527 207.21 300.927 207.465 301.186C207.728 301.445 208.1 301.575 208.581 301.575C208.909 301.575 209.194 301.512 209.434 301.386C209.682 301.26 209.905 301.123 210.102 300.975L210.386 301.631C210.131 301.838 209.824 302.005 209.467 302.131C209.117 302.257 208.756 302.32 208.384 302.32C208.092 302.32 207.815 302.275 207.553 302.186C207.297 302.105 207.071 301.975 206.874 301.797C206.678 301.62 206.521 301.394 206.404 301.119C206.287 300.838 206.229 300.504 206.229 300.119V297.363H204.927V296.618Z" fill="white"/>
<path d="M211.837 301.809L211.421 301.142L215.775 298.574L211.432 295.962L211.848 295.273L217 298.463V298.785L211.837 301.809Z" fill="white"/>
<path d="M70.2967 287.462V286.457C69.5985 287.552 68.6497 288.252 67.4503 288.521C66.2509 288.79 65.0694 288.701 63.9058 288.234C62.7243 287.768 61.7218 286.888 60.8804 285.614C60.0391 284.34 59.6094 282.671 59.6094 280.589C59.6094 278.148 60.1644 276.192 61.2743 274.667C62.3842 273.159 64.1743 272.406 66.6447 272.406C68.5244 272.406 70.2609 272.908 71.872 273.931C73.4831 274.954 74.2708 276.838 74.2708 279.584V287.875C74.2708 290.621 73.4652 292.487 71.872 293.492C70.2609 294.497 68.5244 295 66.6447 295C63.0465 295 60.8088 293.313 59.9496 289.939H64.228C64.5324 290.495 65.0157 290.908 65.6602 291.213C66.3046 291.5 66.9491 291.59 67.5935 291.446C68.238 291.303 68.8287 290.926 69.3479 290.298C69.9028 289.652 70.2072 288.719 70.2967 287.462ZM63.6015 280.697C63.6015 283.407 64.3891 284.914 65.9466 285.201C67.504 285.488 68.6676 285.129 69.4016 284.106C69.7596 283.676 70.0102 282.994 70.1713 282.079C70.3325 281.163 70.3325 280.248 70.2072 279.333C70.0639 278.435 69.7417 277.628 69.2405 276.928C68.7392 276.228 67.9874 275.869 67.0028 275.869C65.6781 275.869 64.7651 276.354 64.2996 277.341C63.8342 278.31 63.6015 279.44 63.6015 280.697Z" fill="white"/>
<path d="M88.6097 288.396H86.551C85.9603 288.396 85.477 288.216 85.1189 287.839C84.743 287.462 84.564 286.978 84.564 286.404V278.4C84.564 277.466 84.2776 276.766 83.7047 276.336C83.1319 275.905 82.5053 275.69 81.7892 275.69C81.0911 275.69 80.4645 275.905 79.9096 276.336C79.3546 276.766 79.0861 277.448 79.0861 278.4V288.414H74.9688V279.225C74.9688 276.551 75.6669 274.774 77.0453 273.877C78.4417 272.98 79.9633 272.477 81.646 272.406C83.3646 272.406 84.9578 272.854 86.4078 273.751C87.8579 274.649 88.5739 276.479 88.5739 279.225V288.396H88.6097Z" fill="white"/>
<path d="M89.6124 274.111H93.7298C93.7298 276.3 93.7298 275.564 93.7298 276.121V288.414H89.6124V274.111Z" fill="white"/>
<path d="M101.284 288.395C99.9954 288.467 98.5991 288.449 97.0954 288.342C95.5916 288.216 94.8398 287.265 94.8398 285.452V270.144H96.9522C97.4534 270.144 97.9188 270.341 98.2948 270.736C98.6886 271.131 98.8855 271.598 98.8855 272.154V272.692H101.284V273.518C101.284 274.11 101.087 274.595 100.694 274.954C100.3 275.331 99.8343 275.51 99.2794 275.51H98.8676V284.322C98.8676 284.986 99.2615 285.327 100.049 285.327H101.284V288.395Z" fill="white"/>
<path d="M112.49 283.568H115.426C114.997 285.219 114.173 286.475 112.956 287.337C111.739 288.234 110.217 288.683 108.373 288.683C106.135 288.683 104.399 287.965 103.146 286.511C101.893 285.093 101.266 283.083 101.266 280.445C101.266 277.933 101.875 275.977 103.092 274.559C104.345 273.105 106.082 272.387 108.319 272.387C110.665 272.387 112.49 273.087 113.779 274.505C115.032 275.959 115.659 277.969 115.659 280.571C115.659 280.732 115.659 280.858 115.659 280.984C115.659 281.109 115.659 281.181 115.659 281.217C115.659 281.414 115.641 281.558 115.605 281.63H105.455C105.491 282.85 105.795 283.747 106.332 284.34C106.834 284.968 107.603 285.273 108.624 285.273C109.286 285.273 109.859 285.129 110.324 284.86C110.45 284.824 110.557 284.752 110.647 284.645C110.736 284.555 110.844 284.447 110.969 284.322C111.005 284.196 111.148 284.053 111.416 283.855C111.667 283.676 112.025 283.568 112.49 283.568ZM105.455 278.992H111.452C111.381 277.933 111.094 277.143 110.629 276.641C110.127 276.084 109.394 275.815 108.463 275.815C107.603 275.815 106.905 276.084 106.35 276.641C105.777 277.179 105.491 277.969 105.455 278.992Z" fill="white"/>
<path d="M54.6138 266.914H56.7262C57.2812 266.914 57.7466 267.112 58.1404 267.507C58.5343 267.901 58.7312 268.368 58.7312 268.924V288.414H54.6138V266.914Z" fill="white"/>
<path d="M89.6122 270.145H91.7246C92.2795 270.145 92.745 270.342 93.1388 270.737C93.5326 271.132 93.7295 271.598 93.7295 272.155V273.393H89.6122V270.145Z" fill="white"/>
<path d="M65.0154 270.36H64.3709V269.893C64.0487 270.252 63.6011 270.432 63.0462 270.432C62.527 270.432 62.0795 270.252 61.7036 269.911C61.3097 269.535 61.1128 269.068 61.1128 268.494C61.1128 267.901 61.3276 267.417 61.7394 267.04C62.1153 266.681 62.5808 266.52 63.0999 266.52C63.6369 266.52 64.0666 266.699 64.3888 267.076V266.609H65.0333V270.36H65.0154ZM64.353 268.494C64.353 268.135 64.2277 267.83 63.995 267.56C63.7444 267.309 63.4579 267.184 63.0999 267.184C62.724 267.184 62.4196 267.309 62.1511 267.578C61.9005 267.83 61.7752 268.099 61.7752 268.386C61.7752 268.763 61.8826 269.086 62.1153 269.355C62.348 269.642 62.6524 269.768 63.0283 269.768C63.3863 269.768 63.6906 269.642 63.9592 269.391C64.2277 269.158 64.353 268.853 64.353 268.494Z" fill="white"/>
<path d="M69.6697 268.386C69.6697 268.978 69.4907 269.463 69.1327 269.84C68.7568 270.234 68.2913 270.432 67.7006 270.432C67.1635 270.432 66.7518 270.252 66.4296 269.911V271.598H65.7493V266.591H66.3938V267.04C66.5549 266.861 66.7518 266.735 66.9487 266.645C67.1635 266.555 67.3783 266.52 67.629 266.52C68.1481 266.52 68.6135 266.699 69.0074 267.04C69.4549 267.399 69.6697 267.848 69.6697 268.386ZM68.9716 268.476C68.9716 268.117 68.8463 267.812 68.5956 267.56C68.345 267.309 68.0228 267.184 67.6648 267.184C67.2888 267.184 66.9845 267.327 66.7339 267.596C66.5012 267.848 66.3938 268.153 66.3938 268.494C66.3938 268.817 66.4833 269.086 66.6802 269.337C66.9129 269.624 67.253 269.768 67.7006 269.768C68.0586 269.768 68.3629 269.642 68.6135 269.391C68.8642 269.158 68.9716 268.853 68.9716 268.476Z" fill="white"/>
<path d="M74.1636 270.36H73.5192V269.893C73.1969 270.252 72.7494 270.432 72.1944 270.432C71.6753 270.432 71.2278 270.252 70.8518 269.911C70.458 269.535 70.2611 269.068 70.2611 268.494C70.2611 267.901 70.4759 267.417 70.8876 267.04C71.2636 266.681 71.729 266.52 72.2481 266.52C72.7852 266.52 73.2148 266.699 73.5371 267.076V266.609H74.1815V270.36H74.1636ZM73.5192 268.494C73.5192 268.135 73.3938 267.83 73.1611 267.56C72.9105 267.309 72.6241 267.184 72.2661 267.184C71.8901 267.184 71.5858 267.309 71.3173 267.578C71.0666 267.83 70.9413 268.099 70.9413 268.386C70.9413 268.763 71.0487 269.086 71.2815 269.355C71.5142 269.642 71.8185 269.768 72.1944 269.768C72.5525 269.768 72.8568 269.642 73.1253 269.391C73.3759 269.158 73.5192 268.853 73.5192 268.494Z" fill="white"/>
<path d="M78.656 269.122C78.4412 269.552 78.1905 269.875 77.9041 270.091C77.5819 270.324 77.2059 270.45 76.7405 270.45C76.2214 270.45 75.7559 270.27 75.3621 269.893C74.9504 269.499 74.7355 269.032 74.7355 268.458H74.7713C74.7713 268.458 74.7713 268.476 74.7534 268.494C74.7534 267.901 74.9504 267.417 75.3621 267.04C75.7201 266.699 76.1498 266.52 76.651 266.52C77.1164 266.52 77.5103 266.645 77.8683 266.878C78.2084 267.112 78.477 267.453 78.6381 267.883H77.8862C77.6356 267.435 77.2238 267.201 76.6689 267.201C76.3109 267.201 76.0244 267.327 75.7917 267.578C75.559 267.83 75.4337 268.135 75.4337 268.494C75.4337 268.853 75.559 269.176 75.8096 269.427C76.0602 269.678 76.3646 269.804 76.7226 269.804C76.9553 269.804 77.188 269.75 77.4029 269.624C77.6177 269.499 77.7788 269.337 77.9041 269.14H78.656V269.122Z" fill="white"/>
<path d="M82.5411 270.36H81.8609V268.206C81.8609 267.919 81.7713 267.668 81.5744 267.488C81.3954 267.309 81.1448 267.201 80.8584 267.201C80.5719 267.201 80.3392 267.291 80.1602 267.452C79.9812 267.632 79.8917 267.847 79.8917 268.134V270.36H79.2114V265.353H79.8917V266.914C80.1602 266.645 80.4824 266.519 80.8763 266.519C81.3059 266.519 81.6818 266.663 82.0041 266.968C82.3442 267.291 82.5232 267.704 82.5232 268.206V270.36H82.5411Z" fill="white"/>
<path d="M86.9808 268.745H83.8122C83.8659 269.068 84.027 269.319 84.2776 269.516C84.5104 269.678 84.761 269.768 85.0295 269.768C85.2801 269.768 85.5128 269.696 85.7456 269.552C85.9783 269.409 86.1394 269.211 86.2289 268.978H86.9271C86.7481 269.481 86.4616 269.839 86.0857 270.091C85.7635 270.306 85.4054 270.414 85.0116 270.414C84.5104 270.414 84.0807 270.234 83.7227 269.875C83.3468 269.481 83.1498 269.014 83.1498 268.44C83.1498 267.847 83.3468 267.363 83.7585 267.004C84.1344 266.663 84.5641 266.501 85.0653 266.501C85.5666 266.501 86.0141 266.663 86.3721 267.004C86.7839 267.381 86.9987 267.901 86.9987 268.547V268.745H86.9808ZM86.2826 268.117C86.211 267.829 86.0499 267.614 85.8172 267.435C85.5845 267.255 85.3338 267.165 85.0474 267.165C84.6894 267.165 84.385 267.291 84.1523 267.524C83.9912 267.686 83.8659 267.883 83.8122 268.117H86.2826Z" fill="white"/>
<path d="M36.7481 265.102C36.7481 265.102 24.3065 272.711 36.032 280.266C38.2876 281.738 46.4686 285.83 46.2359 289.616C46.2359 289.616 51.1946 282.258 43.9445 277.628C36.4974 272.89 34.6357 267.83 36.7481 265.102Z" fill="white"/>
<path d="M32.416 279.638C32.416 279.638 27.9764 286.386 36.7124 287.768C37.5717 287.876 43.8909 288.54 45.5378 290.621C45.5378 290.621 45.3946 287.032 40.239 284.914C35.1012 282.797 32.9889 282.276 32.416 279.638Z" fill="white"/>
<path d="M49.6014 272.549C44.2667 266.95 42.7809 263.487 45.0723 259C45.0723 259 29.1578 265.138 44.8754 276.031C50.4964 279.925 49.5656 283.909 49.5656 284.053C50.4427 283.138 54.936 278.149 49.6014 272.549Z" fill="white"/>
</svg>
