<svg width="542" height="335" viewBox="0 0 542 335" fill="none" xmlns="http://www.w3.org/2000/svg">
<rect width="542" height="335" fill="#91C2EA"/>
<mask id="mask0_101:40" style="mask-type:alpha" maskUnits="userSpaceOnUse" x="251" y="57" width="290" height="276">
<rect x="251" y="57.7266" width="290" height="275.273" fill="#0070CC"/>
</mask>
<g mask="url(#mask0_101:40)">
<path d="M363.039 65.6562V208.178" stroke="white" stroke-opacity="0.2" stroke-miterlimit="10"/>
<path d="M380.188 73.4873V208.179" stroke="white" stroke-opacity="0.2" stroke-width="1.6364" stroke-miterlimit="10"/>
<path d="M397.338 81.3181V208.179" stroke="white" stroke-opacity="0.2" stroke-width="2.2727" stroke-miterlimit="10"/>
<path d="M414.488 89.0706V208.178" stroke="white" stroke-opacity="0.2" stroke-width="2.9091" stroke-miterlimit="10"/>
<path d="M431.716 96.9016V208.179" stroke="white" stroke-opacity="0.2" stroke-width="3.5455" stroke-miterlimit="10"/>
<path d="M448.865 104.732V208.178" stroke="white" stroke-opacity="0.2" stroke-width="4.1818" stroke-miterlimit="10"/>
<path d="M466.015 112.563V208.179" stroke="white" stroke-opacity="0.2" stroke-width="4.8182" stroke-miterlimit="10"/>
<path d="M483.165 120.394V208.178" stroke="white" stroke-opacity="0.2" stroke-width="5.4545" stroke-miterlimit="10"/>
<path d="M500.314 128.225V208.178" stroke="white" stroke-opacity="0.2" stroke-width="6.0909" stroke-miterlimit="10"/>
<path d="M517.464 136.056V208.178" stroke="white" stroke-opacity="0.2" stroke-width="6.7273" stroke-miterlimit="10"/>
<path d="M534.613 143.808V208.178" stroke="white" stroke-opacity="0.2" stroke-width="7.3636" stroke-miterlimit="10"/>
<path d="M473.611 395.18V222.117" stroke="white" stroke-opacity="0.2" stroke-miterlimit="10"/>
<path d="M454.19 385.783V222.117" stroke="white" stroke-opacity="0.2" stroke-width="1.6364" stroke-miterlimit="10"/>
<path d="M434.77 376.464V222.117" stroke="white" stroke-opacity="0.2" stroke-width="2.2727" stroke-miterlimit="10"/>
<path d="M415.349 367.067V222.117" stroke="white" stroke-opacity="0.2" stroke-width="2.9091" stroke-miterlimit="10"/>
<path d="M395.928 357.67V222.117" stroke="white" stroke-opacity="0.2" stroke-width="3.5455" stroke-miterlimit="10"/>
<path d="M376.508 348.273V222.117" stroke="white" stroke-opacity="0.2" stroke-width="4.1818" stroke-miterlimit="10"/>
<path d="M357.087 338.954V222.117" stroke="white" stroke-opacity="0.2" stroke-width="4.8182" stroke-miterlimit="10"/>
<path d="M337.745 329.557V222.117" stroke="white" stroke-opacity="0.2" stroke-width="5.4545" stroke-miterlimit="10"/>
<path d="M318.324 320.16V222.117" stroke="white" stroke-opacity="0.2" stroke-width="6.0909" stroke-miterlimit="10"/>
<path d="M298.904 310.763V222.117" stroke="white" stroke-opacity="0.2" stroke-width="6.7273" stroke-miterlimit="10"/>
<path d="M279.483 301.366V222.117" stroke="white" stroke-opacity="0.2" stroke-width="7.3636" stroke-miterlimit="10"/>
<path d="M260.062 292.047V222.117" stroke="white" stroke-opacity="0.2" stroke-width="8" stroke-miterlimit="10"/>
<path d="M334.847 130.496V308.649" stroke="#0070CC" stroke-miterlimit="10"/>
<path d="M354.66 139.737V312.721" stroke="#0070CC" stroke-width="1.7778" stroke-miterlimit="10"/>
<path d="M374.393 148.899V316.871" stroke="#0070CC" stroke-width="2.5556" stroke-miterlimit="10"/>
<path d="M394.127 158.139V320.943" stroke="#0070CC" stroke-width="3.3333" stroke-miterlimit="10"/>
<path d="M413.861 167.301V325.094" stroke="#0070CC" stroke-width="4.1111" stroke-miterlimit="10"/>
<path d="M433.595 176.542V329.166" stroke="#0070CC" stroke-width="4.8889" stroke-miterlimit="10"/>
<path d="M453.329 185.704V333.316" stroke="#0070CC" stroke-width="5.6667" stroke-miterlimit="10"/>
<path d="M473.063 194.944V337.388" stroke="#0070CC" stroke-width="6.4444" stroke-miterlimit="10"/>
<path d="M492.797 204.106V341.46" stroke="#0070CC" stroke-width="7.2222" stroke-miterlimit="10"/>
<path d="M512.609 213.347V345.611" stroke="#0070CC" stroke-width="8" stroke-miterlimit="10"/>
</g>
<path d="M69.2967 297.462V296.457C68.5985 297.552 67.6497 298.252 66.4503 298.521C65.2509 298.79 64.0694 298.701 62.9058 298.234C61.7243 297.768 60.7218 296.888 59.8804 295.614C59.0391 294.34 58.6094 292.671 58.6094 290.589C58.6094 288.148 59.1644 286.192 60.2743 284.667C61.3842 283.159 63.1743 282.406 65.6447 282.406C67.5244 282.406 69.2609 282.908 70.872 283.931C72.4831 284.954 73.2708 286.838 73.2708 289.584V297.875C73.2708 300.621 72.4652 302.487 70.872 303.492C69.2609 304.497 67.5244 305 65.6447 305C62.0465 305 59.8088 303.313 58.9496 299.939H63.228C63.5324 300.495 64.0157 300.908 64.6602 301.213C65.3046 301.5 65.9491 301.59 66.5935 301.446C67.238 301.303 67.8287 300.926 68.3479 300.298C68.9028 299.652 69.2072 298.719 69.2967 297.462ZM62.6015 290.697C62.6015 293.407 63.3891 294.914 64.9466 295.201C66.504 295.488 67.6676 295.129 68.4016 294.106C68.7596 293.676 69.0102 292.994 69.1713 292.079C69.3325 291.163 69.3325 290.248 69.2072 289.333C69.0639 288.435 68.7417 287.628 68.2405 286.928C67.7392 286.228 66.9874 285.869 66.0028 285.869C64.6781 285.869 63.7651 286.354 63.2996 287.341C62.8342 288.31 62.6015 289.44 62.6015 290.697Z" fill="white"/>
<path d="M87.6097 298.396H85.551C84.9603 298.396 84.477 298.216 84.1189 297.839C83.743 297.462 83.564 296.978 83.564 296.404V288.4C83.564 287.466 83.2776 286.766 82.7047 286.336C82.1319 285.905 81.5053 285.69 80.7892 285.69C80.0911 285.69 79.4645 285.905 78.9096 286.336C78.3546 286.766 78.0861 287.448 78.0861 288.4V298.414H73.9688V289.225C73.9688 286.551 74.6669 284.774 76.0453 283.877C77.4417 282.98 78.9633 282.477 80.646 282.406C82.3646 282.406 83.9578 282.854 85.4078 283.751C86.8579 284.649 87.5739 286.479 87.5739 289.225V298.396H87.6097Z" fill="white"/>
<path d="M88.6124 284.111H92.7298C92.7298 286.3 92.7298 285.564 92.7298 286.121V298.414H88.6124V284.111Z" fill="white"/>
<path d="M100.284 298.395C98.9954 298.467 97.5991 298.449 96.0954 298.342C94.5916 298.216 93.8398 297.265 93.8398 295.452V280.144H95.9522C96.4534 280.144 96.9188 280.341 97.2948 280.736C97.6886 281.131 97.8855 281.598 97.8855 282.154V282.692H100.284V283.518C100.284 284.11 100.087 284.595 99.6936 284.954C99.2998 285.331 98.8343 285.51 98.2794 285.51H97.8676V294.322C97.8676 294.986 98.2615 295.327 99.0491 295.327H100.284V298.395Z" fill="white"/>
<path d="M111.49 293.568H114.426C113.997 295.219 113.173 296.475 111.956 297.337C110.739 298.234 109.217 298.683 107.373 298.683C105.135 298.683 103.399 297.965 102.146 296.511C100.893 295.093 100.266 293.083 100.266 290.445C100.266 287.933 100.875 285.977 102.092 284.559C103.345 283.105 105.082 282.387 107.319 282.387C109.665 282.387 111.49 283.087 112.779 284.505C114.032 285.959 114.659 287.969 114.659 290.571C114.659 290.732 114.659 290.858 114.659 290.984C114.659 291.109 114.659 291.181 114.659 291.217C114.659 291.414 114.641 291.558 114.605 291.63H104.455C104.491 292.85 104.795 293.747 105.332 294.34C105.834 294.968 106.603 295.273 107.624 295.273C108.286 295.273 108.859 295.129 109.324 294.86C109.45 294.824 109.557 294.752 109.647 294.645C109.736 294.555 109.844 294.447 109.969 294.322C110.005 294.196 110.148 294.053 110.416 293.855C110.667 293.676 111.025 293.568 111.49 293.568ZM104.455 288.992H110.452C110.381 287.933 110.094 287.143 109.629 286.641C109.127 286.084 108.394 285.815 107.463 285.815C106.603 285.815 105.905 286.084 105.35 286.641C104.777 287.179 104.491 287.969 104.455 288.992Z" fill="white"/>
<path d="M53.6138 276.914H55.7262C56.2812 276.914 56.7466 277.112 57.1404 277.507C57.5343 277.901 57.7312 278.368 57.7312 278.924V298.414H53.6138V276.914Z" fill="white"/>
<path d="M88.6122 280.145H90.7246C91.2795 280.145 91.7449 280.342 92.1388 280.737C92.5326 281.132 92.7295 281.598 92.7295 282.155V283.393H88.6122V280.145Z" fill="white"/>
<path d="M64.0154 280.36H63.3709V279.893C63.0487 280.252 62.6011 280.432 62.0462 280.432C61.527 280.432 61.0795 280.252 60.7036 279.911C60.3097 279.535 60.1128 279.068 60.1128 278.494C60.1128 277.901 60.3276 277.417 60.7394 277.04C61.1153 276.681 61.5808 276.52 62.0999 276.52C62.6369 276.52 63.0666 276.699 63.3888 277.076V276.609H64.0333V280.36H64.0154ZM63.353 278.494C63.353 278.135 63.2277 277.83 62.995 277.56C62.7444 277.309 62.4579 277.184 62.0999 277.184C61.724 277.184 61.4196 277.309 61.1511 277.578C60.9005 277.83 60.7752 278.099 60.7752 278.386C60.7752 278.763 60.8826 279.086 61.1153 279.355C61.348 279.642 61.6524 279.768 62.0283 279.768C62.3863 279.768 62.6906 279.642 62.9592 279.391C63.2277 279.158 63.353 278.853 63.353 278.494Z" fill="white"/>
<path d="M68.6697 278.386C68.6697 278.978 68.4907 279.463 68.1327 279.84C67.7568 280.234 67.2913 280.432 66.7006 280.432C66.1635 280.432 65.7518 280.252 65.4296 279.911V281.598H64.7493V276.591H65.3938V277.04C65.5549 276.861 65.7518 276.735 65.9487 276.645C66.1635 276.555 66.3783 276.52 66.629 276.52C67.1481 276.52 67.6135 276.699 68.0074 277.04C68.4549 277.399 68.6697 277.848 68.6697 278.386ZM67.9716 278.476C67.9716 278.117 67.8463 277.812 67.5956 277.56C67.345 277.309 67.0228 277.184 66.6648 277.184C66.2888 277.184 65.9845 277.327 65.7339 277.596C65.5012 277.848 65.3938 278.153 65.3938 278.494C65.3938 278.817 65.4833 279.086 65.6802 279.337C65.9129 279.624 66.253 279.768 66.7006 279.768C67.0586 279.768 67.3629 279.642 67.6135 279.391C67.8642 279.158 67.9716 278.853 67.9716 278.476Z" fill="white"/>
<path d="M73.1636 280.36H72.5192V279.893C72.1969 280.252 71.7494 280.432 71.1944 280.432C70.6753 280.432 70.2278 280.252 69.8518 279.911C69.458 279.535 69.2611 279.068 69.2611 278.494C69.2611 277.901 69.4759 277.417 69.8876 277.04C70.2636 276.681 70.729 276.52 71.2481 276.52C71.7852 276.52 72.2148 276.699 72.5371 277.076V276.609H73.1815V280.36H73.1636ZM72.5192 278.494C72.5192 278.135 72.3938 277.83 72.1611 277.56C71.9105 277.309 71.6241 277.184 71.2661 277.184C70.8901 277.184 70.5858 277.309 70.3173 277.578C70.0666 277.83 69.9413 278.099 69.9413 278.386C69.9413 278.763 70.0487 279.086 70.2815 279.355C70.5142 279.642 70.8185 279.768 71.1944 279.768C71.5525 279.768 71.8568 279.642 72.1253 279.391C72.3759 279.158 72.5192 278.853 72.5192 278.494Z" fill="white"/>
<path d="M77.656 279.122C77.4412 279.552 77.1905 279.875 76.9041 280.091C76.5819 280.324 76.2059 280.45 75.7405 280.45C75.2214 280.45 74.7559 280.27 74.3621 279.893C73.9504 279.499 73.7355 279.032 73.7355 278.458H73.7713C73.7713 278.458 73.7713 278.476 73.7534 278.494C73.7534 277.901 73.9504 277.417 74.3621 277.04C74.7201 276.699 75.1498 276.52 75.651 276.52C76.1164 276.52 76.5103 276.645 76.8683 276.878C77.2084 277.112 77.477 277.453 77.6381 277.883H76.8862C76.6356 277.435 76.2238 277.201 75.6689 277.201C75.3109 277.201 75.0244 277.327 74.7917 277.578C74.559 277.83 74.4337 278.135 74.4337 278.494C74.4337 278.853 74.559 279.176 74.8096 279.427C75.0602 279.678 75.3646 279.804 75.7226 279.804C75.9553 279.804 76.188 279.75 76.4029 279.624C76.6177 279.499 76.7788 279.337 76.9041 279.14H77.656V279.122Z" fill="white"/>
<path d="M81.5411 280.36H80.8609V278.206C80.8609 277.919 80.7713 277.668 80.5744 277.488C80.3954 277.309 80.1448 277.201 79.8584 277.201C79.5719 277.201 79.3392 277.291 79.1602 277.452C78.9812 277.632 78.8917 277.847 78.8917 278.134V280.36H78.2114V275.353H78.8917V276.914C79.1602 276.645 79.4824 276.519 79.8763 276.519C80.3059 276.519 80.6818 276.663 81.0041 276.968C81.3442 277.291 81.5232 277.704 81.5232 278.206V280.36H81.5411Z" fill="white"/>
<path d="M85.9808 278.745H82.8122C82.8659 279.068 83.027 279.319 83.2776 279.516C83.5103 279.678 83.761 279.768 84.0295 279.768C84.2801 279.768 84.5128 279.696 84.7456 279.552C84.9783 279.409 85.1394 279.211 85.2289 278.978H85.9271C85.748 279.481 85.4616 279.839 85.0857 280.091C84.7635 280.306 84.4054 280.414 84.0116 280.414C83.5103 280.414 83.0807 280.234 82.7227 279.875C82.3467 279.481 82.1498 279.014 82.1498 278.44C82.1498 277.847 82.3467 277.363 82.7585 277.004C83.1344 276.663 83.5641 276.501 84.0653 276.501C84.5665 276.501 85.0141 276.663 85.3721 277.004C85.7838 277.381 85.9987 277.901 85.9987 278.547V278.745H85.9808ZM85.2826 278.117C85.211 277.829 85.0499 277.614 84.8172 277.435C84.5844 277.255 84.3338 277.165 84.0474 277.165C83.6894 277.165 83.385 277.291 83.1523 277.524C82.9912 277.686 82.8659 277.883 82.8122 278.117H85.2826Z" fill="white"/>
<path d="M35.7481 275.102C35.7481 275.102 23.3065 282.711 35.032 290.266C37.2876 291.738 45.4686 295.83 45.2359 299.616C45.2359 299.616 50.1946 292.258 42.9445 287.628C35.4974 282.89 33.6357 277.83 35.7481 275.102Z" fill="white"/>
<path d="M31.416 289.638C31.416 289.638 26.9764 296.386 35.7124 297.768C36.5717 297.876 42.8909 298.54 44.5378 300.621C44.5378 300.621 44.3946 297.032 39.239 294.914C34.1012 292.797 31.9889 292.276 31.416 289.638Z" fill="white"/>
<path d="M48.6014 282.549C43.2667 276.95 41.7809 273.487 44.0723 269C44.0723 269 28.1578 275.138 43.8754 286.031C49.4964 289.925 48.5656 293.909 48.5656 294.053C49.4427 293.138 53.936 288.149 48.6014 282.549Z" fill="white"/>
</svg>
