<svg width="542" height="335" viewBox="0 0 542 335" fill="none" xmlns="http://www.w3.org/2000/svg">
<rect width="542" height="335" fill="#91C2EA"/>
<mask id="mask0_101:41" style="mask-type:alpha" maskUnits="userSpaceOnUse" x="282" y="0" width="260" height="335">
<rect x="282" width="260" height="335" fill="#91C2EA"/>
</mask>
<g mask="url(#mask0_101:41)">
<path d="M376.923 321.819C415.798 364.246 417.922 383.996 413.257 390.17C454.995 376.564 427.967 345.107 404.931 318.296L404.843 318.194C399.342 311.792 349.677 254.602 342.514 233.074C338.369 234.455 331.697 243.538 328.418 253.531C325.14 263.523 359.389 303.22 376.923 321.819Z" fill="url(#paint0_linear_101:41)"/>
<path d="M459.783 175.343C498.963 217.935 501.126 237.713 496.445 243.871C538.607 230.422 514.152 200.182 490.921 173.259C485.379 166.836 432.247 107.98 425 86.4098C420.838 87.7826 411.408 99.6625 413.123 110.04C416.328 129.427 441.614 156.146 459.257 174.787L459.783 175.343Z" fill="url(#paint1_linear_101:41)"/>
<path d="M345.793 371.704C403.828 377.056 431.108 369.885 435.459 362.666C438.666 413.463 399.034 398.463 325 392.577C265.774 387.869 248.971 404.327 247.973 413.145C230.552 359.346 273.248 365.014 345.793 371.704Z" fill="url(#paint2_linear_101:41)"/>
<path d="M428.957 224.557C503.998 231.244 514.435 222.414 518.821 215.127C521.847 266.28 482.198 251.316 408.05 245.658C348.732 241.131 331.838 257.77 330.807 266.656C313.55 212.53 356.303 218.083 428.957 224.557Z" fill="url(#paint3_linear_101:41)"/>
<path d="M512.618 73.2518C587.66 79.939 598.097 71.1084 602.482 63.8213C605.509 114.975 565.859 100.01 491.712 94.3523C432.394 89.8257 415.5 106.465 414.468 115.35C397.212 61.2245 439.965 66.7775 512.618 73.2518Z" fill="url(#paint4_linear_101:41)"/>
<g opacity="0.21">
<path d="M383.36 325.055C326.118 319.173 309.001 329.254 306.831 336.68C292.844 295.069 334.216 297.988 369.476 300.477L369.61 300.486C378.03 301.081 453.559 306.812 475.108 299.715C476.473 303.865 473.165 314.64 467.102 323.233C461.04 331.826 408.748 328.028 383.36 325.055Z" fill="url(#paint5_linear_101:41)"/>
<path d="M451.464 171.163C393.907 165.134 376.745 175.2 374.596 182.631C360.232 140.772 399.09 142.353 434.557 144.931C443.018 145.546 521.951 153.065 543.586 146.011C544.967 150.169 541.061 164.825 531.709 169.641C514.239 178.638 477.711 174.288 452.224 171.253L451.464 171.163Z" fill="url(#paint6_linear_101:41)"/>
<path d="M361.904 379.801C322.98 336.423 312.457 310.252 315.654 302.453C272.978 330.189 308.663 353.043 357.56 408.941C396.677 453.66 393.495 476.964 387.015 483.027C440.582 464.906 410.558 434.025 361.904 379.801Z" fill="url(#paint7_linear_101:41)"/>
<path d="M430.364 225.265C380.222 169.035 381.081 155.391 384.312 147.523C341.456 175.617 377.123 198.506 425.906 254.632C464.932 299.533 461.659 323.018 455.145 329.147C508.876 310.7 478.91 279.704 430.364 225.265Z" fill="url(#paint8_linear_101:41)"/>
</g>
<path d="M214 451.5L342.5 185" stroke="url(#paint9_linear_101:41)"/>
<path d="M439 451.5L567.5 185" stroke="url(#paint10_linear_101:41)"/>
<path d="M322 254.5L450.5 -12" stroke="url(#paint11_linear_101:41)"/>
<path d="M367 133.5L495.5 -133" stroke="url(#paint12_linear_101:41)"/>
<path d="M286 269.5L414.5 3" stroke="url(#paint13_linear_101:41)"/>
</g>
<path d="M81.2967 294.462V293.457C80.5985 294.552 79.6497 295.252 78.4503 295.521C77.2509 295.79 76.0694 295.701 74.9058 295.234C73.7243 294.768 72.7218 293.888 71.8804 292.614C71.0391 291.34 70.6094 289.671 70.6094 287.589C70.6094 285.148 71.1644 283.192 72.2743 281.667C73.3842 280.159 75.1743 279.406 77.6447 279.406C79.5244 279.406 81.2609 279.908 82.872 280.931C84.4831 281.954 85.2708 283.838 85.2708 286.584V294.875C85.2708 297.621 84.4652 299.487 82.872 300.492C81.2609 301.497 79.5244 302 77.6447 302C74.0465 302 71.8088 300.313 70.9496 296.939H75.228C75.5324 297.495 76.0157 297.908 76.6602 298.213C77.3046 298.5 77.9491 298.59 78.5935 298.446C79.238 298.303 79.8287 297.926 80.3479 297.298C80.9028 296.652 81.2072 295.719 81.2967 294.462ZM74.6015 287.697C74.6015 290.407 75.3891 291.914 76.9466 292.201C78.504 292.488 79.6676 292.129 80.4016 291.106C80.7596 290.676 81.0102 289.994 81.1713 289.079C81.3325 288.163 81.3325 287.248 81.2072 286.333C81.0639 285.435 80.7417 284.628 80.2405 283.928C79.7392 283.228 78.9874 282.869 78.0028 282.869C76.6781 282.869 75.7651 283.354 75.2996 284.341C74.8342 285.31 74.6015 286.44 74.6015 287.697Z" fill="white"/>
<path d="M99.6097 295.396H97.551C96.9603 295.396 96.477 295.216 96.1189 294.839C95.743 294.462 95.564 293.978 95.564 293.404V285.4C95.564 284.466 95.2776 283.766 94.7047 283.336C94.1319 282.905 93.5053 282.69 92.7892 282.69C92.0911 282.69 91.4645 282.905 90.9096 283.336C90.3546 283.766 90.0861 284.448 90.0861 285.4V295.414H85.9688V286.225C85.9688 283.551 86.6669 281.774 88.0453 280.877C89.4417 279.98 90.9633 279.477 92.646 279.406C94.3646 279.406 95.9578 279.854 97.4078 280.751C98.8579 281.649 99.5739 283.479 99.5739 286.225V295.396H99.6097Z" fill="white"/>
<path d="M100.612 281.111H104.73C104.73 283.3 104.73 282.564 104.73 283.121V295.414H100.612V281.111Z" fill="white"/>
<path d="M112.284 295.395C110.995 295.467 109.599 295.449 108.095 295.342C106.592 295.216 105.84 294.265 105.84 292.452V277.144H107.952C108.453 277.144 108.919 277.341 109.295 277.736C109.689 278.131 109.886 278.598 109.886 279.154V279.692H112.284V280.518C112.284 281.11 112.087 281.595 111.694 281.954C111.3 282.331 110.834 282.51 110.279 282.51H109.868V291.322C109.868 291.986 110.261 292.327 111.049 292.327H112.284V295.395Z" fill="white"/>
<path d="M123.49 290.568H126.426C125.997 292.219 125.173 293.475 123.956 294.337C122.739 295.234 121.217 295.683 119.373 295.683C117.135 295.683 115.399 294.965 114.146 293.511C112.893 292.093 112.266 290.083 112.266 287.445C112.266 284.933 112.875 282.977 114.092 281.559C115.345 280.105 117.082 279.387 119.319 279.387C121.665 279.387 123.49 280.087 124.779 281.505C126.032 282.959 126.659 284.969 126.659 287.571C126.659 287.732 126.659 287.858 126.659 287.984C126.659 288.109 126.659 288.181 126.659 288.217C126.659 288.414 126.641 288.558 126.605 288.63H116.455C116.491 289.85 116.795 290.747 117.332 291.34C117.834 291.968 118.603 292.273 119.624 292.273C120.286 292.273 120.859 292.129 121.324 291.86C121.45 291.824 121.557 291.752 121.647 291.645C121.736 291.555 121.844 291.447 121.969 291.322C122.005 291.196 122.148 291.053 122.416 290.855C122.667 290.676 123.025 290.568 123.49 290.568ZM116.455 285.992H122.452C122.381 284.933 122.094 284.143 121.629 283.641C121.127 283.084 120.394 282.815 119.463 282.815C118.603 282.815 117.905 283.084 117.35 283.641C116.777 284.179 116.491 284.969 116.455 285.992Z" fill="white"/>
<path d="M65.6138 273.914H67.7262C68.2812 273.914 68.7466 274.112 69.1404 274.507C69.5343 274.901 69.7312 275.368 69.7312 275.924V295.414H65.6138V273.914Z" fill="white"/>
<path d="M100.612 277.145H102.725C103.28 277.145 103.745 277.342 104.139 277.737C104.533 278.132 104.73 278.598 104.73 279.155V280.393H100.612V277.145Z" fill="white"/>
<path d="M76.0154 277.36H75.3709V276.893C75.0487 277.252 74.6011 277.432 74.0462 277.432C73.527 277.432 73.0795 277.252 72.7036 276.911C72.3097 276.535 72.1128 276.068 72.1128 275.494C72.1128 274.901 72.3276 274.417 72.7394 274.04C73.1153 273.681 73.5808 273.52 74.0999 273.52C74.6369 273.52 75.0666 273.699 75.3888 274.076V273.609H76.0333V277.36H76.0154ZM75.353 275.494C75.353 275.135 75.2277 274.83 74.995 274.56C74.7444 274.309 74.4579 274.184 74.0999 274.184C73.724 274.184 73.4196 274.309 73.1511 274.578C72.9005 274.83 72.7752 275.099 72.7752 275.386C72.7752 275.763 72.8826 276.086 73.1153 276.355C73.348 276.642 73.6524 276.768 74.0283 276.768C74.3863 276.768 74.6906 276.642 74.9592 276.391C75.2277 276.158 75.353 275.853 75.353 275.494Z" fill="white"/>
<path d="M80.6697 275.386C80.6697 275.978 80.4907 276.463 80.1327 276.84C79.7568 277.234 79.2913 277.432 78.7006 277.432C78.1635 277.432 77.7518 277.252 77.4296 276.911V278.598H76.7493V273.591H77.3938V274.04C77.5549 273.861 77.7518 273.735 77.9487 273.645C78.1635 273.555 78.3783 273.52 78.629 273.52C79.1481 273.52 79.6135 273.699 80.0074 274.04C80.4549 274.399 80.6697 274.848 80.6697 275.386ZM79.9716 275.476C79.9716 275.117 79.8463 274.812 79.5956 274.56C79.345 274.309 79.0228 274.184 78.6648 274.184C78.2888 274.184 77.9845 274.327 77.7339 274.596C77.5012 274.848 77.3938 275.153 77.3938 275.494C77.3938 275.817 77.4833 276.086 77.6802 276.337C77.9129 276.624 78.253 276.768 78.7006 276.768C79.0586 276.768 79.3629 276.642 79.6135 276.391C79.8642 276.158 79.9716 275.853 79.9716 275.476Z" fill="white"/>
<path d="M85.1636 277.36H84.5192V276.893C84.1969 277.252 83.7494 277.432 83.1944 277.432C82.6753 277.432 82.2278 277.252 81.8518 276.911C81.458 276.535 81.2611 276.068 81.2611 275.494C81.2611 274.901 81.4759 274.417 81.8876 274.04C82.2636 273.681 82.729 273.52 83.2481 273.52C83.7852 273.52 84.2148 273.699 84.5371 274.076V273.609H85.1815V277.36H85.1636ZM84.5192 275.494C84.5192 275.135 84.3938 274.83 84.1611 274.56C83.9105 274.309 83.6241 274.184 83.2661 274.184C82.8901 274.184 82.5858 274.309 82.3173 274.578C82.0666 274.83 81.9413 275.099 81.9413 275.386C81.9413 275.763 82.0487 276.086 82.2815 276.355C82.5142 276.642 82.8185 276.768 83.1944 276.768C83.5525 276.768 83.8568 276.642 84.1253 276.391C84.3759 276.158 84.5192 275.853 84.5192 275.494Z" fill="white"/>
<path d="M89.656 276.122C89.4412 276.552 89.1905 276.875 88.9041 277.091C88.5819 277.324 88.2059 277.45 87.7405 277.45C87.2214 277.45 86.7559 277.27 86.3621 276.893C85.9504 276.499 85.7355 276.032 85.7355 275.458H85.7713C85.7713 275.458 85.7713 275.476 85.7534 275.494C85.7534 274.901 85.9504 274.417 86.3621 274.04C86.7201 273.699 87.1498 273.52 87.651 273.52C88.1164 273.52 88.5103 273.645 88.8683 273.878C89.2084 274.112 89.477 274.453 89.6381 274.883H88.8862C88.6356 274.435 88.2238 274.201 87.6689 274.201C87.3109 274.201 87.0244 274.327 86.7917 274.578C86.559 274.83 86.4337 275.135 86.4337 275.494C86.4337 275.853 86.559 276.176 86.8096 276.427C87.0602 276.678 87.3646 276.804 87.7226 276.804C87.9553 276.804 88.188 276.75 88.4029 276.624C88.6177 276.499 88.7788 276.337 88.9041 276.14H89.656V276.122Z" fill="white"/>
<path d="M93.5411 277.36H92.8609V275.206C92.8609 274.919 92.7713 274.668 92.5744 274.488C92.3954 274.309 92.1448 274.201 91.8584 274.201C91.5719 274.201 91.3392 274.291 91.1602 274.452C90.9812 274.632 90.8917 274.847 90.8917 275.134V277.36H90.2114V272.353H90.8917V273.914C91.1602 273.645 91.4824 273.519 91.8763 273.519C92.3059 273.519 92.6818 273.663 93.0041 273.968C93.3442 274.291 93.5232 274.704 93.5232 275.206V277.36H93.5411Z" fill="white"/>
<path d="M97.9808 275.745H94.8122C94.8659 276.068 95.027 276.319 95.2776 276.516C95.5104 276.678 95.761 276.768 96.0295 276.768C96.2801 276.768 96.5128 276.696 96.7456 276.552C96.9783 276.409 97.1394 276.211 97.2289 275.978H97.9271C97.7481 276.481 97.4616 276.839 97.0857 277.091C96.7635 277.306 96.4054 277.414 96.0116 277.414C95.5104 277.414 95.0807 277.234 94.7227 276.875C94.3468 276.481 94.1498 276.014 94.1498 275.44C94.1498 274.847 94.3468 274.363 94.7585 274.004C95.1344 273.663 95.5641 273.501 96.0653 273.501C96.5666 273.501 97.0141 273.663 97.3721 274.004C97.7839 274.381 97.9987 274.901 97.9987 275.547V275.745H97.9808ZM97.2826 275.117C97.211 274.829 97.0499 274.614 96.8172 274.435C96.5845 274.255 96.3338 274.165 96.0474 274.165C95.6894 274.165 95.385 274.291 95.1523 274.524C94.9912 274.686 94.8659 274.883 94.8122 275.117H97.2826Z" fill="white"/>
<path d="M47.7481 272.102C47.7481 272.102 35.3065 279.711 47.032 287.266C49.2876 288.738 57.4686 292.83 57.2359 296.616C57.2359 296.616 62.1946 289.258 54.9445 284.628C47.4974 279.89 45.6357 274.83 47.7481 272.102Z" fill="white"/>
<path d="M43.416 286.638C43.416 286.638 38.9764 293.386 47.7124 294.768C48.5717 294.876 54.8909 295.54 56.5378 297.621C56.5378 297.621 56.3946 294.032 51.239 291.914C46.1012 289.797 43.9889 289.276 43.416 286.638Z" fill="white"/>
<path d="M60.6014 279.549C55.2667 273.95 53.7809 270.487 56.0723 266C56.0723 266 40.1578 272.138 55.8754 283.031C61.4964 286.925 60.5656 290.909 60.5656 291.053C61.4427 290.138 65.936 285.149 60.6014 279.549Z" fill="white"/>
<defs>
<linearGradient id="paint0_linear_101:41" x1="405.977" y1="264.97" x2="355.832" y2="364.743" gradientUnits="userSpaceOnUse">
<stop stop-color="#0070CC"/>
<stop offset="1" stop-color="#0070CC" stop-opacity="0"/>
</linearGradient>
<linearGradient id="paint1_linear_101:41" x1="488.839" y1="118.495" x2="438.694" y2="218.268" gradientUnits="userSpaceOnUse">
<stop stop-color="#0070CC"/>
<stop offset="1" stop-color="#0070CC" stop-opacity="0"/>
</linearGradient>
<linearGradient id="paint2_linear_101:41" x1="367.155" y1="328.337" x2="309.092" y2="443.863" gradientUnits="userSpaceOnUse">
<stop stop-color="white"/>
<stop offset="1" stop-color="white" stop-opacity="0"/>
</linearGradient>
<linearGradient id="paint3_linear_101:41" x1="450.516" y1="180.797" x2="391.925" y2="297.374" gradientUnits="userSpaceOnUse">
<stop stop-color="white"/>
<stop offset="1" stop-color="#91C2EA"/>
</linearGradient>
<linearGradient id="paint4_linear_101:41" x1="534.178" y1="29.4918" x2="475.587" y2="146.068" gradientUnits="userSpaceOnUse">
<stop stop-color="white"/>
<stop offset="1" stop-color="#91C2EA"/>
</linearGradient>
<linearGradient id="paint5_linear_101:41" x1="411.645" y1="267.819" x2="361.5" y2="367.592" gradientUnits="userSpaceOnUse">
<stop stop-color="#0070CC"/>
<stop offset="1" stop-color="#0070CC" stop-opacity="0"/>
</linearGradient>
<linearGradient id="paint6_linear_101:41" x1="479.746" y1="113.925" x2="429.601" y2="213.698" gradientUnits="userSpaceOnUse">
<stop stop-color="#0070CC"/>
<stop offset="1" stop-color="#0070CC" stop-opacity="0"/>
</linearGradient>
<linearGradient id="paint7_linear_101:41" x1="383.959" y1="336.782" x2="325.896" y2="452.309" gradientUnits="userSpaceOnUse">
<stop stop-color="white"/>
<stop offset="1" stop-color="white" stop-opacity="0"/>
</linearGradient>
<linearGradient id="paint8_linear_101:41" x1="452.617" y1="181.853" x2="394.026" y2="298.429" gradientUnits="userSpaceOnUse">
<stop stop-color="white"/>
<stop offset="1" stop-color="#91C2EA"/>
</linearGradient>
<linearGradient id="paint9_linear_101:41" x1="278.25" y1="185" x2="278.25" y2="451.5" gradientUnits="userSpaceOnUse">
<stop stop-color="white"/>
<stop offset="1" stop-color="white" stop-opacity="0"/>
</linearGradient>
<linearGradient id="paint10_linear_101:41" x1="503.25" y1="185" x2="503.25" y2="451.5" gradientUnits="userSpaceOnUse">
<stop stop-color="white"/>
<stop offset="1" stop-color="white" stop-opacity="0"/>
</linearGradient>
<linearGradient id="paint11_linear_101:41" x1="386.25" y1="-12" x2="386.25" y2="254.5" gradientUnits="userSpaceOnUse">
<stop stop-color="white"/>
<stop offset="1" stop-color="white" stop-opacity="0"/>
</linearGradient>
<linearGradient id="paint12_linear_101:41" x1="431.25" y1="-133" x2="431.25" y2="133.5" gradientUnits="userSpaceOnUse">
<stop stop-color="white"/>
<stop offset="1" stop-color="white" stop-opacity="0"/>
</linearGradient>
<linearGradient id="paint13_linear_101:41" x1="350.25" y1="3" x2="350.25" y2="269.5" gradientUnits="userSpaceOnUse">
<stop stop-color="white"/>
<stop offset="1" stop-color="white" stop-opacity="0"/>
</linearGradient>
</defs>
</svg>
