<svg width="542" height="335" viewBox="0 0 542 335" fill="none" xmlns="http://www.w3.org/2000/svg">
<rect width="542" height="335" fill="#91C2EA"/>
<mask id="mask0_101:48" style="mask-type:alpha" maskUnits="userSpaceOnUse" x="172" y="0" width="370" height="335">
<rect x="172" width="370" height="335" fill="#91C2EA"/>
</mask>
<g mask="url(#mask0_101:48)">
<path d="M442.359 471.733C457.224 433.736 503.132 438.165 530.394 410.818C558.452 382.698 547.499 365.868 584.894 327.191C608.508 302.638 720.991 305.216 751.346 289.884C787.809 271.406 790.423 235.711 830.418 225.113C854.274 218.754 878.13 212.395 902.049 206.14" fill="url(#paint0_linear_101:48)"/>
<path d="M435.037 459.713C444.99 434.451 468.719 427.883 491.408 418.222C502.67 413.37 513.652 407.829 522.701 398.88C550.681 371.095 540.344 353.889 577.862 316.571C585.316 309.165 600.931 304.529 619.898 301.004C659.855 293.581 713.271 289.999 738.162 280.717C740.201 279.905 742.241 279.093 743.844 278.26C773.432 262.822 780.879 236.22 804.549 221.234C809.722 217.941 815.751 215.129 822.994 213.154C846.889 206.628 870.706 200.436 894.664 194.015" fill="url(#paint1_linear_101:48)"/>
<path d="M427.654 447.587C437.504 422.388 461.066 415.778 483.755 406.116C494.914 401.327 505.897 395.786 514.945 386.837C542.847 359.386 533.23 341.743 570.767 305.845C578.349 298.649 594.092 294.221 613.019 290.863C653.373 283.629 705.717 278.98 730.661 269.092C732.701 268.281 734.573 267.427 736.28 266.531C765.408 250.8 773.418 224.429 797.126 209.275C802.402 205.919 808.328 203.17 815.571 201.196C839.402 194.565 863.322 188.311 887.344 181.994" fill="url(#paint2_linear_101:48)"/>
<path d="M420.27 435.461C430.081 410.429 453.515 403.61 476 394.074C487.159 389.285 497.975 383.702 506.984 374.92C534.808 347.803 525.807 329.784 563.468 295.244C571.216 288.09 587.047 284.039 605.871 280.743C646.519 273.76 697.894 267.982 722.93 257.321C724.97 256.51 726.842 255.656 728.485 254.655C757.256 238.569 765.662 212.386 789.37 197.232C794.646 193.877 800.675 191.065 807.752 189.049C831.622 182.251 855.605 176.101 879.73 169.721" fill="url(#paint3_linear_101:48)"/>
<path d="M412.886 423.335C422.658 398.47 445.926 391.609 468.347 381.969C479.403 377.242 490.219 371.659 499.292 362.982C527.038 336.199 518.756 317.742 556.398 284.79C564.376 277.782 580.231 274.002 599.017 270.874C640.022 264.246 690.325 257.402 715.454 245.968C717.43 245.052 719.303 244.198 720.945 243.198C749.358 226.756 758.161 200.761 781.909 185.441C787.184 182.085 793.15 179.169 800.329 177.09C824.136 170.188 848.285 164.08 872.41 157.7" fill="url(#paint4_linear_101:48)"/>
<path d="M405.566 411.314C415.235 386.511 438.44 379.546 460.758 369.968C471.814 365.241 482.566 359.553 491.6 351.043C519.102 324.552 511.768 305.805 549.367 274.168C557.575 267.307 573.455 263.799 592.099 260.9C633.5 254.461 682.731 246.55 708.017 234.448C709.992 233.532 711.802 232.573 713.508 231.677C741.461 214.942 750.826 189.178 774.51 173.753C779.889 170.335 785.854 167.419 792.931 165.402C816.776 158.333 840.926 152.225 865.153 145.783" fill="url(#paint5_linear_101:48)"/>
<path d="M398.182 399.188C407.812 374.553 430.787 367.44 453.105 357.862C464.059 353.198 474.811 347.511 483.845 339C511.269 312.844 504.717 293.763 542.273 263.443C550.711 256.728 566.718 253.429 585.221 250.76C626.979 244.676 675.177 235.531 700.452 222.719C702.364 221.698 704.237 220.844 705.88 219.844C733.539 202.858 743.237 177.178 766.921 161.753C772.236 158.23 778.265 155.418 785.381 153.235C809.265 145.998 833.376 140.057 857.706 133.553" fill="url(#paint6_linear_101:48)"/>
<path d="M390.798 387.062C400.389 362.594 423.237 355.273 445.286 345.715C456.176 340.947 466.889 335.426 475.923 326.916C503.333 301.198 497.499 281.679 535.012 252.675C543.617 246.002 559.776 243.184 578.176 240.577C620.228 234.745 667.354 224.532 692.785 211.052C694.697 210.032 696.506 209.073 698.149 208.073C725.451 190.731 735.546 165.24 759.332 149.752C764.647 146.229 770.779 143.355 777.792 141.234C801.613 133.893 825.826 127.89 850.322 121.427" fill="url(#paint7_linear_101:48)"/>
<path d="M383.414 374.937C392.903 350.531 415.648 343.272 437.633 333.61C448.42 328.904 459.07 323.279 468.168 314.873C495.499 289.489 490.448 269.638 527.982 242.054C536.816 235.528 553 232.981 571.361 230.541C613.873 225.002 659.927 213.723 685.451 199.47C687.363 198.449 689.108 197.386 690.751 196.386C717.593 178.751 728.25 153.49 751.973 137.898C757.39 134.313 763.42 131.501 770.471 129.213C794.331 121.705 818.608 115.806 843.041 109.239" fill="url(#paint8_linear_101:48)"/>
<path d="M376.094 362.916C385.646 338.615 408.161 331.209 430.044 321.61C440.831 316.904 451.378 311.341 460.476 302.935C487.729 277.886 483.524 257.806 520.848 231.495C529.913 225.116 546.121 222.84 564.443 220.568C607.248 215.28 652.231 202.934 677.847 187.908C679.695 186.783 681.504 185.825 683.084 184.72C709.632 166.834 720.519 141.719 744.447 126.002C749.865 122.417 755.933 119.438 762.882 117.213C786.781 109.538 811.058 103.639 835.657 97.1137" fill="url(#paint9_linear_101:48)"/>
<path d="M368.71 350.79C378.223 326.655 400.611 319.041 422.391 309.504C433.076 304.861 443.662 299.131 452.72 290.892C479.895 266.176 476.64 245.805 513.754 220.769C523.048 214.536 539.281 212.532 557.564 210.427C600.727 205.494 644.74 192.019 670.346 176.283C672.194 175.158 673.94 174.095 675.519 172.99C701.71 154.748 712.994 129.823 736.922 114.106C742.339 110.52 748.407 107.541 755.357 105.316C779.192 97.5365 803.635 91.6796 828.234 85.1545" fill="url(#paint10_linear_101:48)"/>
<path d="M361.327 338.664C370.737 314.592 393.022 307.041 414.636 297.462C425.32 292.818 435.804 287.151 444.862 278.912C471.959 254.531 469.652 233.868 506.557 210.106C516.081 204.02 532.339 202.287 550.582 200.349C594.142 195.605 637.044 181.23 662.782 164.554C664.63 163.429 666.375 162.366 667.891 161.157C693.686 142.727 705.404 117.822 729.435 102.043C734.853 98.4573 741.024 95.416 747.909 93.086C771.784 85.1394 796.227 79.2826 820.992 72.7995" fill="url(#paint11_linear_101:48)"/>
<path d="M353.943 326.538C363.314 302.634 385.472 294.873 406.983 285.356C417.501 280.671 428.048 275.108 437.067 267.037C464.023 242.884 462.689 222.203 499.487 199.652C509.242 193.712 525.588 192.356 543.728 190.48C587.645 186.091 629.514 170.483 655.305 153.201C657.09 151.971 658.835 150.908 660.415 149.804C685.852 131.018 698.031 106.407 721.998 90.5225C727.518 86.8746 733.586 83.8959 740.472 81.5658C764.385 73.4522 788.789 67.7624 813.594 61.1122" fill="url(#paint12_linear_101:48)"/>
<path d="M346.623 314.517C355.955 290.78 377.883 282.872 399.394 273.356C409.912 268.67 420.293 263.066 429.376 255.099C456.15 231.343 455.932 210.412 492.354 189.093C502.441 183.237 518.709 182.216 536.811 180.507C581.084 176.474 621.882 159.798 647.868 141.682C649.653 140.452 651.335 139.284 652.914 138.179C677.955 119.205 690.569 94.6154 714.473 78.6266C719.993 74.9787 725.997 71.8954 732.985 69.5029C756.835 61.2848 781.342 55.5324 806.313 48.9242" fill="url(#paint13_linear_101:48)"/>
<path d="M339.239 302.391C348.468 278.716 370.333 270.704 391.741 261.25C402.259 256.565 412.537 251.022 421.62 243.055C448.317 219.634 449.111 198.517 485.26 178.367C495.577 172.658 511.869 171.907 529.829 170.428C574.46 166.751 614.289 148.946 640.201 130.015C641.986 128.785 643.667 127.617 645.183 126.408C669.867 107.078 682.877 82.6767 706.884 66.6255C712.404 62.9775 718.511 59.8318 725.333 57.3972C749.222 49.012 773.792 43.3642 798.763 36.756" fill="url(#paint14_linear_101:48)"/>
<path d="M331.855 290.266C341.046 266.758 362.743 258.704 383.985 249.208C394.401 244.585 404.718 238.876 413.762 231.076C440.381 207.989 442.251 186.789 478.063 167.704C488.61 162.142 504.927 161.663 522.848 160.351C567.875 156.862 606.593 138.157 632.598 118.453C634.318 117.118 636 115.951 637.516 114.742C661.906 95.1607 675.313 70.9481 699.255 54.7923C704.814 50.9773 710.883 47.9986 717.807 45.5015C741.735 36.9493 766.306 31.3014 791.379 24.6308" fill="url(#paint15_linear_101:48)"/>
<path d="M324.535 278.245C333.687 254.904 355.257 246.641 376.396 237.207C386.812 232.584 397.026 226.938 406.07 219.138C432.611 196.385 435.39 175.061 471.096 157.188C481.873 151.771 498.278 151.669 516.096 150.419C561.481 147.286 599.127 127.514 625.263 106.87C626.984 105.536 628.666 104.368 630.118 103.054C654.048 83.1804 667.954 59.094 691.999 42.8757C697.558 39.0607 703.665 35.9149 710.487 33.4803C734.351 24.8235 759.088 19.2177 784.162 12.547" fill="url(#paint16_linear_101:48)"/>
<path d="M317.151 266.119C326.303 242.778 347.604 234.535 368.743 225.102C378.993 220.437 389.207 214.79 398.315 207.095C424.777 184.676 428.633 163.27 463.899 146.524C474.906 141.254 491.336 141.423 509.115 140.341C554.857 137.563 591.534 116.662 617.659 95.3081C619.38 93.9736 620.998 92.7016 622.45 91.3876C646.087 71.2625 660.325 47.26 684.371 31.0417C689.93 27.2267 696.037 24.0809 702.795 21.5418C726.698 12.718 751.333 7.1747 776.675 0.483507" fill="url(#paint17_linear_101:48)"/>
<path d="M309.767 253.993C318.88 230.819 340.117 222.472 361.027 212.892C371.276 208.227 381.388 202.642 390.495 194.947C416.88 172.862 421.875 151.479 456.74 135.693C468.08 130.508 484.432 131.011 502.172 130.095C548.272 127.673 583.876 105.706 610.095 83.5787C611.752 82.1397 613.37 80.8677 614.822 79.5537C638.165 59.1775 652.8 35.3636 676.884 18.9782C682.546 15.1007 688.653 11.955 695.411 9.41584C719.354 0.424938 744.051 -5.01385 769.394 -11.705" fill="url(#paint18_linear_101:48)"/>
<path d="M302.384 241.868C311.457 218.861 332.568 210.304 353.271 200.85C363.418 196.247 373.466 190.558 382.637 182.967C408.841 161.279 415.015 139.751 449.544 125.031C461.177 120.096 477.554 120.871 495.191 120.018C541.75 117.889 576.347 94.9588 602.53 71.8502C604.188 70.4111 605.806 69.1391 607.258 67.8251C630.141 47.1559 645.274 23.468 669.359 7.08261C675.02 3.2051 681.128 0.0593421 687.822 -2.5843C711.701 -11.6797 736.501 -17.181 761.947 -23.9347" fill="url(#paint19_linear_101:48)"/>
<path d="M295.063 229.846C304.034 206.901 324.978 198.303 345.682 188.848C355.829 184.246 365.877 178.557 374.843 171.091C400.968 149.737 408.282 128.232 442.474 114.576C454.337 109.788 470.738 110.834 488.337 110.148C535.19 108.27 568.778 84.378 595.054 60.4966C596.711 59.0576 598.266 57.681 599.718 56.367C622.307 35.4467 637.773 11.8428 661.858 -4.54252C667.519 -8.42002 673.666 -11.7329 680.424 -14.272C704.341 -23.5345 729.206 -28.9312 754.651 -35.6849" fill="url(#paint20_linear_101:48)"/>
<path d="M287.68 217.72C296.611 194.943 317.428 186.136 338.029 176.743C348.073 172.204 358.058 166.41 367.151 159.154C393.135 138.029 401.549 116.713 435.443 103.955C447.6 99.4181 463.962 100.631 481.522 100.113C528.732 98.5902 561.415 73.6732 587.656 48.8099C589.147 47.3289 590.804 45.8899 592.256 44.5759C614.552 23.4045 630.414 -0.0108787 654.538 -16.5633C660.302 -20.5033 666.346 -23.7536 673.04 -26.3973C696.933 -35.9313 721.861 -41.2236 747.473 -47.9353" fill="url(#paint21_linear_101:48)"/>
<path d="M280.296 205.595C289.188 182.985 309.839 174.135 330.377 164.638C340.42 160.099 350.302 154.368 359.395 147.111C385.301 126.321 394.855 105.027 428.246 93.2921C440.633 88.9017 457.084 90.491 474.54 90.0347C522.108 88.868 553.719 62.8842 580.052 37.2482C581.543 35.7671 583.2 34.3281 584.589 32.9095C606.488 11.5496 622.786 -11.8442 646.909 -28.3967C652.674 -32.3367 658.82 -35.6495 665.451 -38.3977C689.28 -48.0363 714.272 -53.224 739.922 -60.1028" fill="url(#paint22_linear_101:48)"/>
<path d="M272.912 193.469C281.702 170.921 302.289 161.968 322.621 152.596C332.499 148.014 342.38 142.283 351.537 135.131C377.365 114.674 388.059 93.4035 421.049 82.6287C433.73 78.4893 450.141 80.2458 467.559 79.9565C515.484 79.1454 546.189 52.1367 572.449 25.686C573.939 24.2049 575.533 22.6613 576.921 21.2428C598.527 -0.368169 615.158 -23.678 639.32 -40.3975C645.085 -44.3375 651.231 -47.6504 657.862 -50.3986C681.73 -60.2042 706.722 -65.3919 732.539 -72.2287" fill="url(#paint23_linear_101:48)"/>
<path d="M265.592 181.448C274.343 159.067 294.7 149.967 315.032 140.595C324.91 136.013 334.689 130.345 343.846 123.192C369.596 103.07 381.39 81.9887 414.082 72.1117C427.056 68.2234 443.429 70.1469 460.705 70.0872C508.987 69.6317 538.787 41.5983 565.012 14.1657C566.439 12.5801 568.096 11.141 569.421 9.61798C590.669 -12.3486 607.76 -35.3654 631.859 -52.1894C637.559 -56.234 643.808 -59.6093 650.336 -62.295C674.244 -72.2677 699.299 -77.3508 725.116 -84.1876" fill="url(#paint24_linear_101:48)"/>
<path d="M258.208 169.323C266.92 147.109 287.15 137.8 307.379 128.49C317.257 123.908 326.869 118.198 336.09 111.15C361.659 91.4248 374.593 70.3658 406.988 61.3865C420.358 57.6868 436.653 59.9444 453.826 59.9473C502.466 59.8474 531.257 30.8516 557.511 2.54174C558.938 0.956155 560.531 -0.587405 561.92 -2.00592C582.772 -24.1611 600.195 -47.0939 624.397 -63.9804C630.2 -68.0875 636.346 -71.4003 642.977 -74.1485C666.821 -84.2257 692.042 -89.2669 717.859 -96.1036" fill="url(#paint25_linear_101:48)"/>
<path d="M250.824 157.196C259.536 134.983 279.56 125.798 299.726 116.385C309.501 111.865 319.217 106.092 328.335 99.1072C353.826 79.7158 367.963 58.7838 399.791 50.7229C413.455 47.2742 429.71 49.6989 446.781 49.7643C495.841 50.1245 523.664 19.9994 549.78 -9.22978C551.207 -10.8154 552.634 -12.4009 554.125 -13.882C574.684 -36.2882 592.44 -59.1369 616.744 -76.086C622.547 -80.1931 628.693 -83.5059 635.261 -86.3586C659.143 -96.603 684.365 -101.644 710.285 -108.543" fill="url(#paint26_linear_101:48)"/>
<path d="M243.44 145.071C252.113 123.024 272.01 113.631 291.971 104.342C301.746 99.8226 311.295 94.0078 320.476 87.1272C345.826 67.9653 361.127 47.3274 392.594 40.0598C406.449 36.9247 422.768 39.4539 439.8 39.6863C489.217 40.4022 516.07 9.14777 542.279 -20.8542C543.706 -22.4398 545.133 -24.0253 546.561 -25.6109C566.826 -48.2682 584.978 -70.9284 609.218 -87.982C615.022 -92.0891 621.207 -95.569 627.774 -98.4217C651.696 -108.833 676.878 -113.707 702.901 -120.669" fill="url(#paint27_linear_101:48)"/>
<path d="M236.12 133.049C244.754 111.17 264.421 101.63 284.382 92.341C293.99 87.7796 303.603 82.0693 312.785 75.1887C338.056 56.361 354.458 35.9126 385.627 29.5428C399.775 26.6588 416.119 29.4595 433.048 29.7545C482.823 30.8259 508.834 -1.34876 534.905 -32.27C536.269 -33.9601 537.696 -35.5457 539.123 -37.1313C558.992 -59.9771 577.58 -82.6158 601.923 -99.7319C607.829 -103.902 613.911 -107.319 620.479 -110.172C644.337 -120.688 669.622 -125.624 695.811 -132.544" fill="url(#paint28_linear_101:48)"/>
<path d="M228.736 120.924C237.268 99.1069 256.935 89.5669 276.729 80.2361C286.337 75.6747 295.784 69.9224 304.926 63.2088C330.12 44.7152 347.623 24.4564 378.43 18.8798C392.872 16.2469 409.177 19.2147 426.067 19.6767C476.199 21.1037 501.305 -12.0957 527.341 -43.9988C528.704 -45.6889 530.132 -47.2745 531.495 -48.9646C551.07 -72.0615 569.991 -94.6162 594.334 -111.732C600.24 -115.902 606.425 -119.382 612.929 -122.339C636.762 -133.127 662.175 -137.854 688.363 -144.774" fill="url(#paint29_linear_101:48)"/>
<path d="M221.352 108.798C229.845 87.1481 249.384 77.3991 269.012 68.0262C278.518 63.5273 287.965 57.7751 297.171 51.166C322.286 33.0065 340.89 12.9372 371.233 8.21644C386.032 5.93912 402.298 9.074 419.085 9.59853C469.575 11.3812 493.775 -22.8431 519.737 -55.5609C521.101 -57.251 522.464 -58.9412 523.828 -60.6313C543.109 -83.9792 562.426 -106.345 586.808 -123.629C592.714 -127.798 598.899 -131.278 605.403 -134.235C629.275 -145.19 654.688 -149.917 680.979 -156.9" fill="url(#paint30_linear_101:48)"/>
<path d="M214.032 96.7767C222.422 75.1892 241.795 65.3982 261.32 56.0879C270.826 51.589 280.209 45.7322 289.376 39.2902C314.311 21.5274 334.079 1.75208 364.099 -2.34244C379.193 -4.3687 395.419 -1.06675 412.168 -0.375161C463.014 1.76308 486.309 -33.486 512.133 -67.1231C513.497 -68.8133 514.861 -70.5034 516.161 -72.298C535.149 -95.8971 554.798 -118.179 579.18 -135.462C585.189 -139.695 591.31 -143.279 597.814 -146.236C621.623 -157.295 647.201 -161.981 673.493 -168.963" fill="url(#paint31_linear_101:48)"/>
<path d="M206.649 84.6513C214.999 63.2309 234.245 53.2308 253.668 43.983C263.071 39.5467 272.454 33.6898 281.621 27.2479C306.414 9.71458 327.346 -9.76668 357.069 -12.9634C372.417 -14.5715 388.707 -11.165 405.353 -10.4109C456.62 -7.81252 478.946 -44.1909 504.799 -78.7054C506.099 -80.5 507.463 -82.1901 508.826 -83.8802C527.418 -107.668 547.502 -129.928 571.821 -147.316C577.83 -151.548 583.951 -155.133 590.391 -158.194C614.239 -169.421 639.715 -174.044 666.275 -181.047" fill="url(#paint32_linear_101:48)"/>
<path d="M199.265 72.5254C207.576 51.272 226.656 41.23 246.015 31.8776C255.354 27.3367 264.634 21.5424 273.865 15.205C298.58 -1.9942 320.51 -21.2234 349.974 -23.6894C365.616 -25.0464 381.867 -21.4728 398.371 -20.4891C449.996 -17.5351 471.48 -54.8338 497.195 -90.2676C498.495 -92.0622 499.795 -93.8569 501.159 -95.547C519.457 -119.586 539.938 -141.658 564.295 -159.213C570.24 -163.549 576.528 -167.092 582.865 -170.091C606.752 -181.484 632.292 -186.003 658.789 -193.11" fill="url(#paint33_linear_101:48)"/>
<path d="M191.881 60.3998C200.154 39.3135 219.106 29.0624 238.362 19.7725C247.599 15.2942 256.879 9.49994 266.11 3.16248C290.747 -13.7026 313.739 -32.5752 342.777 -34.3525C358.674 -35.2914 374.822 -31.6553 391.39 -30.5671C443.372 -27.2575 463.95 -65.581 489.528 -101.934C490.828 -103.729 492.128 -105.523 493.428 -107.318C511.432 -131.608 532.246 -153.596 556.603 -171.151C562.548 -175.487 568.773 -179.134 575.213 -182.196C599.036 -193.694 624.678 -198.275 651.341 -205.34" fill="url(#paint34_linear_101:48)"/>
<path d="M184.561 48.3783C192.833 27.292 211.517 17.0614 230.67 7.83408C239.907 3.35574 249.021 -2.48054 258.315 -8.71346C282.874 -25.2444 306.864 -43.8649 335.644 -44.9114C351.795 -45.4322 368.007 -41.6916 384.472 -40.5409C436.772 -36.7086 456.484 -76.224 482.091 -113.454C483.327 -115.353 484.627 -117.148 485.927 -118.943C503.638 -143.484 524.784 -165.388 549.244 -183.005C555.292 -187.404 561.516 -191.051 567.854 -194.05C591.716 -205.715 617.422 -210.192 644.085 -217.257" fill="url(#paint35_linear_101:48)"/>
<path d="M177.177 36.253C185.41 15.3338 204.03 4.99864 223.017 -4.27066C256.488 -20.4968 289.258 -55.2106 328.613 -55.5323C345.019 -55.6349 361.231 -51.8943 377.657 -50.5765C430.315 -46.3887 449.184 -86.8243 474.59 -125.078C492.617 -152.105 515.435 -175.886 541.719 -194.901C570.647 -215.812 602.834 -220.51 636.637 -229.487" fill="url(#paint36_linear_101:48)"/>
</g>
<path d="M72.2967 297.462V296.457C71.5985 297.552 70.6497 298.252 69.4503 298.521C68.2509 298.79 67.0694 298.701 65.9058 298.234C64.7243 297.768 63.7218 296.888 62.8804 295.614C62.0391 294.34 61.6094 292.671 61.6094 290.589C61.6094 288.148 62.1644 286.192 63.2743 284.667C64.3842 283.159 66.1743 282.406 68.6447 282.406C70.5244 282.406 72.2609 282.908 73.872 283.931C75.4831 284.954 76.2708 286.838 76.2708 289.584V297.875C76.2708 300.621 75.4652 302.487 73.872 303.492C72.2609 304.497 70.5244 305 68.6447 305C65.0465 305 62.8088 303.313 61.9496 299.939H66.228C66.5324 300.495 67.0157 300.908 67.6602 301.213C68.3046 301.5 68.9491 301.59 69.5935 301.446C70.238 301.303 70.8287 300.926 71.3479 300.298C71.9028 299.652 72.2072 298.719 72.2967 297.462ZM65.6015 290.697C65.6015 293.407 66.3891 294.914 67.9466 295.201C69.504 295.488 70.6676 295.129 71.4016 294.106C71.7596 293.676 72.0102 292.994 72.1713 292.079C72.3325 291.163 72.3325 290.248 72.2072 289.333C72.0639 288.435 71.7417 287.628 71.2405 286.928C70.7392 286.228 69.9874 285.869 69.0028 285.869C67.6781 285.869 66.7651 286.354 66.2996 287.341C65.8342 288.31 65.6015 289.44 65.6015 290.697Z" fill="white"/>
<path d="M90.6097 298.396H88.551C87.9603 298.396 87.477 298.216 87.1189 297.839C86.743 297.462 86.564 296.978 86.564 296.404V288.4C86.564 287.466 86.2776 286.766 85.7047 286.336C85.1319 285.905 84.5053 285.69 83.7892 285.69C83.0911 285.69 82.4645 285.905 81.9096 286.336C81.3546 286.766 81.0861 287.448 81.0861 288.4V298.414H76.9688V289.225C76.9688 286.551 77.6669 284.774 79.0453 283.877C80.4417 282.98 81.9633 282.477 83.646 282.406C85.3646 282.406 86.9578 282.854 88.4078 283.751C89.8579 284.649 90.5739 286.479 90.5739 289.225V298.396H90.6097Z" fill="white"/>
<path d="M91.6124 284.111H95.7298C95.7298 286.3 95.7298 285.564 95.7298 286.121V298.414H91.6124V284.111Z" fill="white"/>
<path d="M103.284 298.395C101.995 298.467 100.599 298.449 99.0954 298.342C97.5916 298.216 96.8398 297.265 96.8398 295.452V280.144H98.9522C99.4534 280.144 99.9188 280.341 100.295 280.736C100.689 281.131 100.886 281.598 100.886 282.154V282.692H103.284V283.518C103.284 284.11 103.087 284.595 102.694 284.954C102.3 285.331 101.834 285.51 101.279 285.51H100.868V294.322C100.868 294.986 101.261 295.327 102.049 295.327H103.284V298.395Z" fill="white"/>
<path d="M114.49 293.568H117.426C116.997 295.219 116.173 296.475 114.956 297.337C113.739 298.234 112.217 298.683 110.373 298.683C108.135 298.683 106.399 297.965 105.146 296.511C103.893 295.093 103.266 293.083 103.266 290.445C103.266 287.933 103.875 285.977 105.092 284.559C106.345 283.105 108.082 282.387 110.319 282.387C112.665 282.387 114.49 283.087 115.779 284.505C117.032 285.959 117.659 287.969 117.659 290.571C117.659 290.732 117.659 290.858 117.659 290.984C117.659 291.109 117.659 291.181 117.659 291.217C117.659 291.414 117.641 291.558 117.605 291.63H107.455C107.491 292.85 107.795 293.747 108.332 294.34C108.834 294.968 109.603 295.273 110.624 295.273C111.286 295.273 111.859 295.129 112.324 294.86C112.45 294.824 112.557 294.752 112.647 294.645C112.736 294.555 112.844 294.447 112.969 294.322C113.005 294.196 113.148 294.053 113.416 293.855C113.667 293.676 114.025 293.568 114.49 293.568ZM107.455 288.992H113.452C113.381 287.933 113.094 287.143 112.629 286.641C112.127 286.084 111.394 285.815 110.463 285.815C109.603 285.815 108.905 286.084 108.35 286.641C107.777 287.179 107.491 287.969 107.455 288.992Z" fill="white"/>
<path d="M56.6138 276.914H58.7262C59.2812 276.914 59.7466 277.112 60.1404 277.507C60.5343 277.901 60.7312 278.368 60.7312 278.924V298.414H56.6138V276.914Z" fill="white"/>
<path d="M91.6122 280.145H93.7246C94.2795 280.145 94.7449 280.342 95.1388 280.737C95.5326 281.132 95.7295 281.598 95.7295 282.155V283.393H91.6122V280.145Z" fill="white"/>
<path d="M67.0154 280.36H66.3709V279.893C66.0487 280.252 65.6011 280.432 65.0462 280.432C64.527 280.432 64.0795 280.252 63.7036 279.911C63.3097 279.535 63.1128 279.068 63.1128 278.494C63.1128 277.901 63.3276 277.417 63.7394 277.04C64.1153 276.681 64.5808 276.52 65.0999 276.52C65.6369 276.52 66.0666 276.699 66.3888 277.076V276.609H67.0333V280.36H67.0154ZM66.353 278.494C66.353 278.135 66.2277 277.83 65.995 277.56C65.7444 277.309 65.4579 277.184 65.0999 277.184C64.724 277.184 64.4196 277.309 64.1511 277.578C63.9005 277.83 63.7752 278.099 63.7752 278.386C63.7752 278.763 63.8826 279.086 64.1153 279.355C64.348 279.642 64.6524 279.768 65.0283 279.768C65.3863 279.768 65.6906 279.642 65.9592 279.391C66.2277 279.158 66.353 278.853 66.353 278.494Z" fill="white"/>
<path d="M71.6697 278.386C71.6697 278.978 71.4907 279.463 71.1327 279.84C70.7568 280.234 70.2913 280.432 69.7006 280.432C69.1635 280.432 68.7518 280.252 68.4296 279.911V281.598H67.7493V276.591H68.3938V277.04C68.5549 276.861 68.7518 276.735 68.9487 276.645C69.1635 276.555 69.3783 276.52 69.629 276.52C70.1481 276.52 70.6135 276.699 71.0074 277.04C71.4549 277.399 71.6697 277.848 71.6697 278.386ZM70.9716 278.476C70.9716 278.117 70.8463 277.812 70.5956 277.56C70.345 277.309 70.0228 277.184 69.6648 277.184C69.2888 277.184 68.9845 277.327 68.7339 277.596C68.5012 277.848 68.3938 278.153 68.3938 278.494C68.3938 278.817 68.4833 279.086 68.6802 279.337C68.9129 279.624 69.253 279.768 69.7006 279.768C70.0586 279.768 70.3629 279.642 70.6135 279.391C70.8642 279.158 70.9716 278.853 70.9716 278.476Z" fill="white"/>
<path d="M76.1636 280.36H75.5192V279.893C75.1969 280.252 74.7494 280.432 74.1944 280.432C73.6753 280.432 73.2278 280.252 72.8518 279.911C72.458 279.535 72.2611 279.068 72.2611 278.494C72.2611 277.901 72.4759 277.417 72.8876 277.04C73.2636 276.681 73.729 276.52 74.2481 276.52C74.7852 276.52 75.2148 276.699 75.5371 277.076V276.609H76.1815V280.36H76.1636ZM75.5192 278.494C75.5192 278.135 75.3938 277.83 75.1611 277.56C74.9105 277.309 74.6241 277.184 74.2661 277.184C73.8901 277.184 73.5858 277.309 73.3173 277.578C73.0666 277.83 72.9413 278.099 72.9413 278.386C72.9413 278.763 73.0487 279.086 73.2815 279.355C73.5142 279.642 73.8185 279.768 74.1944 279.768C74.5525 279.768 74.8568 279.642 75.1253 279.391C75.3759 279.158 75.5192 278.853 75.5192 278.494Z" fill="white"/>
<path d="M80.656 279.122C80.4412 279.552 80.1905 279.875 79.9041 280.091C79.5819 280.324 79.2059 280.45 78.7405 280.45C78.2214 280.45 77.7559 280.27 77.3621 279.893C76.9504 279.499 76.7355 279.032 76.7355 278.458H76.7713C76.7713 278.458 76.7713 278.476 76.7534 278.494C76.7534 277.901 76.9504 277.417 77.3621 277.04C77.7201 276.699 78.1498 276.52 78.651 276.52C79.1164 276.52 79.5103 276.645 79.8683 276.878C80.2084 277.112 80.477 277.453 80.6381 277.883H79.8862C79.6356 277.435 79.2238 277.201 78.6689 277.201C78.3109 277.201 78.0244 277.327 77.7917 277.578C77.559 277.83 77.4337 278.135 77.4337 278.494C77.4337 278.853 77.559 279.176 77.8096 279.427C78.0602 279.678 78.3646 279.804 78.7226 279.804C78.9553 279.804 79.188 279.75 79.4029 279.624C79.6177 279.499 79.7788 279.337 79.9041 279.14H80.656V279.122Z" fill="white"/>
<path d="M84.5411 280.36H83.8609V278.206C83.8609 277.919 83.7713 277.668 83.5744 277.488C83.3954 277.309 83.1448 277.201 82.8584 277.201C82.5719 277.201 82.3392 277.291 82.1602 277.452C81.9812 277.632 81.8917 277.847 81.8917 278.134V280.36H81.2114V275.353H81.8917V276.914C82.1602 276.645 82.4824 276.519 82.8763 276.519C83.3059 276.519 83.6818 276.663 84.0041 276.968C84.3442 277.291 84.5232 277.704 84.5232 278.206V280.36H84.5411Z" fill="white"/>
<path d="M88.9808 278.745H85.8122C85.8659 279.068 86.027 279.319 86.2776 279.516C86.5103 279.678 86.761 279.768 87.0295 279.768C87.2801 279.768 87.5128 279.696 87.7456 279.552C87.9783 279.409 88.1394 279.211 88.2289 278.978H88.9271C88.748 279.481 88.4616 279.839 88.0857 280.091C87.7635 280.306 87.4054 280.414 87.0116 280.414C86.5103 280.414 86.0807 280.234 85.7227 279.875C85.3467 279.481 85.1498 279.014 85.1498 278.44C85.1498 277.847 85.3467 277.363 85.7585 277.004C86.1344 276.663 86.5641 276.501 87.0653 276.501C87.5665 276.501 88.0141 276.663 88.3721 277.004C88.7838 277.381 88.9987 277.901 88.9987 278.547V278.745H88.9808ZM88.2826 278.117C88.211 277.829 88.0499 277.614 87.8172 277.435C87.5844 277.255 87.3338 277.165 87.0474 277.165C86.6894 277.165 86.385 277.291 86.1523 277.524C85.9912 277.686 85.8659 277.883 85.8122 278.117H88.2826Z" fill="white"/>
<path d="M38.7481 275.102C38.7481 275.102 26.3065 282.711 38.032 290.266C40.2876 291.738 48.4686 295.83 48.2359 299.616C48.2359 299.616 53.1946 292.258 45.9445 287.628C38.4974 282.89 36.6357 277.83 38.7481 275.102Z" fill="white"/>
<path d="M34.416 289.638C34.416 289.638 29.9764 296.386 38.7124 297.768C39.5717 297.876 45.8909 298.54 47.5378 300.621C47.5378 300.621 47.3946 297.032 42.239 294.914C37.1012 292.797 34.9889 292.276 34.416 289.638Z" fill="white"/>
<path d="M51.6014 282.549C46.2667 276.95 44.7809 273.487 47.0723 269C47.0723 269 31.1578 275.138 46.8754 286.031C52.4964 289.925 51.5656 293.909 51.5656 294.053C52.4427 293.138 56.936 288.149 51.6014 282.549Z" fill="white"/>
<defs>
<linearGradient id="paint0_linear_101:48" x1="675.336" y1="344.11" x2="642.922" y2="290.88" gradientUnits="userSpaceOnUse">
<stop stop-color="#0070CC"/>
<stop offset="1" stop-color="white" stop-opacity="0"/>
</linearGradient>
<linearGradient id="paint1_linear_101:48" x1="667.952" y1="331.986" x2="636.376" y2="280.131" gradientUnits="userSpaceOnUse">
<stop stop-color="#0070CC"/>
<stop offset="1" stop-color="white" stop-opacity="0"/>
</linearGradient>
<linearGradient id="paint2_linear_101:48" x1="660.633" y1="319.967" x2="629.763" y2="269.271" gradientUnits="userSpaceOnUse">
<stop stop-color="#0070CC"/>
<stop offset="1" stop-color="white" stop-opacity="0"/>
</linearGradient>
<linearGradient id="paint3_linear_101:48" x1="653.071" y1="307.665" x2="623.069" y2="258.394" gradientUnits="userSpaceOnUse">
<stop stop-color="#0070CC"/>
<stop offset="1" stop-color="white" stop-opacity="0"/>
</linearGradient>
<linearGradient id="paint4_linear_101:48" x1="645.752" y1="295.645" x2="616.569" y2="247.721" gradientUnits="userSpaceOnUse">
<stop stop-color="#0070CC"/>
<stop offset="1" stop-color="white" stop-opacity="0"/>
</linearGradient>
<linearGradient id="paint5_linear_101:48" x1="638.496" y1="283.729" x2="609.999" y2="236.931" gradientUnits="userSpaceOnUse">
<stop stop-color="#0070CC"/>
<stop offset="1" stop-color="white" stop-opacity="0"/>
</linearGradient>
<linearGradient id="paint6_linear_101:48" x1="631.05" y1="271.501" x2="603.358" y2="226.025" gradientUnits="userSpaceOnUse">
<stop stop-color="#0070CC"/>
<stop offset="1" stop-color="white" stop-opacity="0"/>
</linearGradient>
<linearGradient id="paint7_linear_101:48" x1="623.667" y1="259.376" x2="596.633" y2="214.981" gradientUnits="userSpaceOnUse">
<stop stop-color="#0070CC"/>
<stop offset="1" stop-color="white" stop-opacity="0"/>
</linearGradient>
<linearGradient id="paint8_linear_101:48" x1="616.336" y1="247.221" x2="590.095" y2="204.128" gradientUnits="userSpaceOnUse">
<stop stop-color="#0070CC"/>
<stop offset="1" stop-color="white" stop-opacity="0"/>
</linearGradient>
<linearGradient id="paint9_linear_101:48" x1="608.952" y1="235.097" x2="583.498" y2="193.295" gradientUnits="userSpaceOnUse">
<stop stop-color="#0070CC"/>
<stop offset="1" stop-color="white" stop-opacity="0"/>
</linearGradient>
<linearGradient id="paint10_linear_101:48" x1="601.582" y1="223.108" x2="576.779" y2="182.376" gradientUnits="userSpaceOnUse">
<stop stop-color="#0070CC"/>
<stop offset="1" stop-color="white" stop-opacity="0"/>
</linearGradient>
<linearGradient id="paint11_linear_101:48" x1="594.238" y1="210.817" x2="570.208" y2="171.354" gradientUnits="userSpaceOnUse">
<stop stop-color="#0070CC"/>
<stop offset="1" stop-color="white" stop-opacity="0"/>
</linearGradient>
<linearGradient id="paint12_linear_101:48" x1="586.943" y1="199.068" x2="563.552" y2="160.655" gradientUnits="userSpaceOnUse">
<stop stop-color="#0070CC"/>
<stop offset="1" stop-color="white" stop-opacity="0"/>
</linearGradient>
<linearGradient id="paint13_linear_101:48" x1="579.611" y1="186.913" x2="556.972" y2="149.733" gradientUnits="userSpaceOnUse">
<stop stop-color="#0070CC"/>
<stop offset="1" stop-color="white" stop-opacity="0"/>
</linearGradient>
<linearGradient id="paint14_linear_101:48" x1="572.114" y1="174.715" x2="550.195" y2="138.72" gradientUnits="userSpaceOnUse">
<stop stop-color="#0070CC"/>
<stop offset="1" stop-color="white" stop-opacity="0"/>
</linearGradient>
<linearGradient id="paint15_linear_101:48" x1="564.731" y1="162.591" x2="543.452" y2="127.647" gradientUnits="userSpaceOnUse">
<stop stop-color="#0070CC"/>
<stop offset="1" stop-color="white" stop-opacity="0"/>
</linearGradient>
<linearGradient id="paint16_linear_101:48" x1="557.462" y1="150.539" x2="536.837" y2="116.668" gradientUnits="userSpaceOnUse">
<stop stop-color="#0070CC"/>
<stop offset="1" stop-color="white" stop-opacity="0"/>
</linearGradient>
<linearGradient id="paint17_linear_101:48" x1="550.288" y1="138.873" x2="529.993" y2="105.543" gradientUnits="userSpaceOnUse">
<stop stop-color="#0070CC"/>
<stop offset="1" stop-color="white" stop-opacity="0"/>
</linearGradient>
<linearGradient id="paint18_linear_101:48" x1="543.468" y1="127.558" x2="523.185" y2="94.2478" gradientUnits="userSpaceOnUse">
<stop stop-color="#0070CC"/>
<stop offset="1" stop-color="white" stop-opacity="0"/>
</linearGradient>
<linearGradient id="paint19_linear_101:48" x1="536.728" y1="116.489" x2="516.352" y2="83.0267" gradientUnits="userSpaceOnUse">
<stop stop-color="#0070CC"/>
<stop offset="1" stop-color="white" stop-opacity="0"/>
</linearGradient>
<linearGradient id="paint20_linear_101:48" x1="530.083" y1="105.693" x2="509.568" y2="72.0019" gradientUnits="userSpaceOnUse">
<stop stop-color="#0070CC"/>
<stop offset="1" stop-color="white" stop-opacity="0"/>
</linearGradient>
<linearGradient id="paint21_linear_101:48" x1="523.605" y1="94.8226" x2="502.876" y2="60.7807" gradientUnits="userSpaceOnUse">
<stop stop-color="#0070CC"/>
<stop offset="1" stop-color="white" stop-opacity="0"/>
</linearGradient>
<linearGradient id="paint22_linear_101:48" x1="516.932" y1="83.9803" x2="495.951" y2="49.5253" gradientUnits="userSpaceOnUse">
<stop stop-color="#0070CC"/>
<stop offset="1" stop-color="white" stop-opacity="0"/>
</linearGradient>
<linearGradient id="paint23_linear_101:48" x1="510.368" y1="73.2001" x2="489.059" y2="38.2067" gradientUnits="userSpaceOnUse">
<stop stop-color="#0070CC"/>
<stop offset="1" stop-color="white" stop-opacity="0"/>
</linearGradient>
<linearGradient id="paint24_linear_101:48" x1="503.899" y1="62.6916" x2="482.213" y2="27.0789" gradientUnits="userSpaceOnUse">
<stop stop-color="#0070CC"/>
<stop offset="1" stop-color="white" stop-opacity="0"/>
</linearGradient>
<linearGradient id="paint25_linear_101:48" x1="497.384" y1="51.9945" x2="475.279" y2="15.6924" gradientUnits="userSpaceOnUse">
<stop stop-color="#0070CC"/>
<stop offset="1" stop-color="white" stop-opacity="0"/>
</linearGradient>
<linearGradient id="paint26_linear_101:48" x1="490.846" y1="41.2575" x2="468.352" y2="4.31636" gradientUnits="userSpaceOnUse">
<stop stop-color="#0070CC"/>
<stop offset="1" stop-color="white" stop-opacity="0"/>
</linearGradient>
<linearGradient id="paint27_linear_101:48" x1="484.35" y1="30.5886" x2="461.389" y2="-7.11651" gradientUnits="userSpaceOnUse">
<stop stop-color="#0070CC"/>
<stop offset="1" stop-color="white" stop-opacity="0"/>
</linearGradient>
<linearGradient id="paint28_linear_101:48" x1="478.087" y1="20.1876" x2="454.549" y2="-18.4657" gradientUnits="userSpaceOnUse">
<stop stop-color="#0070CC"/>
<stop offset="1" stop-color="white" stop-opacity="0"/>
</linearGradient>
<linearGradient id="paint29_linear_101:48" x1="471.633" y1="9.5904" x2="447.55" y2="-29.9588" gradientUnits="userSpaceOnUse">
<stop stop-color="#0070CC"/>
<stop offset="1" stop-color="white" stop-opacity="0"/>
</linearGradient>
<linearGradient id="paint30_linear_101:48" x1="465.196" y1="-0.981021" x2="440.526" y2="-41.4944" gradientUnits="userSpaceOnUse">
<stop stop-color="#0070CC"/>
<stop offset="1" stop-color="white" stop-opacity="0"/>
</linearGradient>
<linearGradient id="paint31_linear_101:48" x1="458.777" y1="-11.4062" x2="433.513" y2="-52.896" gradientUnits="userSpaceOnUse">
<stop stop-color="#0070CC"/>
<stop offset="1" stop-color="white" stop-opacity="0"/>
</linearGradient>
<linearGradient id="paint32_linear_101:48" x1="452.502" y1="-21.8269" x2="426.468" y2="-64.5804" gradientUnits="userSpaceOnUse">
<stop stop-color="#0070CC"/>
<stop offset="1" stop-color="white" stop-opacity="0"/>
</linearGradient>
<linearGradient id="paint33_linear_101:48" x1="446.057" y1="-32.2962" x2="419.3" y2="-76.2365" gradientUnits="userSpaceOnUse">
<stop stop-color="#0070CC"/>
<stop offset="1" stop-color="white" stop-opacity="0"/>
</linearGradient>
<linearGradient id="paint34_linear_101:48" x1="439.65" y1="-42.8171" x2="412.171" y2="-87.9439" gradientUnits="userSpaceOnUse">
<stop stop-color="#0070CC"/>
<stop offset="1" stop-color="white" stop-opacity="0"/>
</linearGradient>
<linearGradient id="paint35_linear_101:48" x1="433.345" y1="-53.1723" x2="404.997" y2="-99.7241" gradientUnits="userSpaceOnUse">
<stop stop-color="#0070CC"/>
<stop offset="1" stop-color="white" stop-opacity="0"/>
</linearGradient>
<linearGradient id="paint36_linear_101:48" x1="427.028" y1="-63.5442" x2="397.606" y2="-111.861" gradientUnits="userSpaceOnUse">
<stop stop-color="#0070CC"/>
<stop offset="1" stop-color="white" stop-opacity="0"/>
</linearGradient>
</defs>
</svg>
