<svg width="542" height="335" viewBox="0 0 542 335" fill="none" xmlns="http://www.w3.org/2000/svg">
<rect width="542" height="335" fill="#0070CC"/>
<path d="M69.2967 297.463V296.458C68.5985 297.552 67.6497 298.252 66.4503 298.521C65.2509 298.791 64.0694 298.701 62.9058 298.234C61.7243 297.768 60.7218 296.888 59.8804 295.614C59.0391 294.34 58.6094 292.671 58.6094 290.589C58.6094 288.149 59.1644 286.192 60.2743 284.667C61.3842 283.16 63.1743 282.406 65.6447 282.406C67.5244 282.406 69.2609 282.908 70.872 283.931C72.4831 284.954 73.2708 286.838 73.2708 289.584V297.875C73.2708 300.621 72.4652 302.488 70.872 303.493C69.2609 304.498 67.5244 305 65.6447 305C62.0465 305 59.8088 303.313 58.9496 299.939H63.228C63.5324 300.496 64.0157 300.908 64.6602 301.213C65.3046 301.501 65.9491 301.59 66.5935 301.447C67.238 301.303 67.8287 300.926 68.3479 300.298C68.9028 299.652 69.2072 298.719 69.2967 297.463ZM62.6015 290.697C62.6015 293.407 63.3891 294.914 64.9466 295.201C66.504 295.489 67.6676 295.13 68.4016 294.107C68.7596 293.676 69.0102 292.994 69.1713 292.079C69.3325 291.164 69.3325 290.248 69.2072 289.333C69.0639 288.436 68.7417 287.628 68.2405 286.928C67.7392 286.228 66.9874 285.869 66.0028 285.869C64.6781 285.869 63.7651 286.354 63.2996 287.341C62.8342 288.31 62.6015 289.441 62.6015 290.697Z" fill="white"/>
<path d="M87.6097 298.396H85.551C84.9603 298.396 84.477 298.216 84.1189 297.84C83.743 297.463 83.564 296.978 83.564 296.404V288.4C83.564 287.467 83.2776 286.767 82.7047 286.336C82.1319 285.905 81.5053 285.69 80.7892 285.69C80.0911 285.69 79.4645 285.905 78.9096 286.336C78.3546 286.767 78.0861 287.449 78.0861 288.4V298.414H73.9688V289.225C73.9688 286.551 74.6669 284.775 76.0453 283.877C77.4417 282.98 78.9633 282.478 80.646 282.406C82.3646 282.406 83.9578 282.854 85.4078 283.752C86.8579 284.649 87.5739 286.48 87.5739 289.225V298.396H87.6097Z" fill="white"/>
<path d="M88.6124 284.11H92.7298C92.7298 286.3 92.7298 285.564 92.7298 286.12V298.414H88.6124V284.11Z" fill="white"/>
<path d="M100.284 298.395C98.9954 298.467 97.5991 298.449 96.0954 298.342C94.5916 298.216 93.8398 297.265 93.8398 295.452V280.144H95.9522C96.4534 280.144 96.9188 280.341 97.2948 280.736C97.6886 281.131 97.8855 281.598 97.8855 282.154V282.692H100.284V283.518C100.284 284.11 100.087 284.595 99.6936 284.954C99.2998 285.331 98.8343 285.51 98.2794 285.51H97.8676V294.322C97.8676 294.986 98.2615 295.327 99.0491 295.327H100.284V298.395Z" fill="white"/>
<path d="M111.49 293.568H114.426C113.997 295.219 113.173 296.476 111.956 297.337C110.739 298.234 109.217 298.683 107.373 298.683C105.135 298.683 103.399 297.965 102.146 296.511C100.893 295.094 100.266 293.084 100.266 290.446C100.266 287.933 100.875 285.977 102.092 284.559C103.345 283.106 105.082 282.388 107.319 282.388C109.665 282.388 111.49 283.088 112.779 284.505C114.032 285.959 114.659 287.969 114.659 290.571C114.659 290.733 114.659 290.858 114.659 290.984C114.659 291.11 114.659 291.181 114.659 291.217C114.659 291.415 114.641 291.558 114.605 291.63H104.455C104.491 292.85 104.795 293.748 105.332 294.34C105.834 294.968 106.603 295.273 107.624 295.273C108.286 295.273 108.859 295.13 109.324 294.86C109.45 294.824 109.557 294.753 109.647 294.645C109.736 294.555 109.844 294.448 109.969 294.322C110.005 294.196 110.148 294.053 110.416 293.855C110.667 293.676 111.025 293.568 111.49 293.568ZM104.455 288.992H110.452C110.381 287.933 110.094 287.143 109.629 286.641C109.127 286.085 108.394 285.815 107.463 285.815C106.603 285.815 105.905 286.085 105.35 286.641C104.777 287.179 104.491 287.969 104.455 288.992Z" fill="white"/>
<path d="M53.6138 276.915H55.7262C56.2812 276.915 56.7466 277.112 57.1404 277.507C57.5343 277.902 57.7312 278.368 57.7312 278.925V298.414H53.6138V276.915Z" fill="white"/>
<path d="M88.6122 280.145H90.7246C91.2795 280.145 91.7449 280.342 92.1388 280.737C92.5326 281.132 92.7295 281.598 92.7295 282.155V283.393H88.6122V280.145Z" fill="white"/>
<path d="M64.0154 280.361H63.3709V279.894C63.0487 280.253 62.6011 280.432 62.0462 280.432C61.527 280.432 61.0795 280.253 60.7036 279.912C60.3097 279.535 60.1128 279.068 60.1128 278.494C60.1128 277.902 60.3276 277.417 60.7394 277.04C61.1153 276.682 61.5808 276.52 62.0999 276.52C62.6369 276.52 63.0666 276.699 63.3888 277.076V276.61H64.0333V280.361H64.0154ZM63.353 278.494C63.353 278.135 63.2277 277.83 62.995 277.561C62.7444 277.31 62.4579 277.184 62.0999 277.184C61.724 277.184 61.4196 277.31 61.1511 277.579C60.9005 277.83 60.7752 278.099 60.7752 278.386C60.7752 278.763 60.8826 279.086 61.1153 279.356C61.348 279.643 61.6524 279.768 62.0283 279.768C62.3863 279.768 62.6906 279.643 62.9592 279.391C63.2277 279.158 63.353 278.853 63.353 278.494Z" fill="white"/>
<path d="M68.6697 278.386C68.6697 278.979 68.4907 279.463 68.1327 279.84C67.7568 280.235 67.2913 280.432 66.7006 280.432C66.1635 280.432 65.7518 280.253 65.4296 279.912V281.599H64.7493V276.592H65.3938V277.04C65.5549 276.861 65.7518 276.735 65.9487 276.646C66.1635 276.556 66.3783 276.52 66.629 276.52C67.1481 276.52 67.6135 276.699 68.0074 277.04C68.4549 277.399 68.6697 277.848 68.6697 278.386ZM67.9716 278.476C67.9716 278.117 67.8463 277.812 67.5956 277.561C67.345 277.31 67.0228 277.184 66.6648 277.184C66.2888 277.184 65.9845 277.328 65.7339 277.597C65.5012 277.848 65.3938 278.153 65.3938 278.494C65.3938 278.817 65.4833 279.086 65.6802 279.338C65.9129 279.625 66.253 279.768 66.7006 279.768C67.0586 279.768 67.3629 279.643 67.6135 279.391C67.8642 279.158 67.9716 278.853 67.9716 278.476Z" fill="white"/>
<path d="M73.1636 280.361H72.5192V279.894C72.1969 280.253 71.7494 280.432 71.1944 280.432C70.6753 280.432 70.2278 280.253 69.8518 279.912C69.458 279.535 69.2611 279.068 69.2611 278.494C69.2611 277.902 69.4759 277.417 69.8876 277.04C70.2636 276.682 70.729 276.52 71.2481 276.52C71.7852 276.52 72.2148 276.699 72.5371 277.076V276.61H73.1815V280.361H73.1636ZM72.5192 278.494C72.5192 278.135 72.3938 277.83 72.1611 277.561C71.9105 277.31 71.6241 277.184 71.2661 277.184C70.8901 277.184 70.5858 277.31 70.3173 277.579C70.0666 277.83 69.9413 278.099 69.9413 278.386C69.9413 278.763 70.0487 279.086 70.2815 279.356C70.5142 279.643 70.8185 279.768 71.1944 279.768C71.5525 279.768 71.8568 279.643 72.1253 279.391C72.3759 279.158 72.5192 278.853 72.5192 278.494Z" fill="white"/>
<path d="M77.656 279.122C77.4412 279.553 77.1905 279.876 76.9041 280.091C76.5819 280.325 76.2059 280.45 75.7405 280.45C75.2214 280.45 74.7559 280.271 74.3621 279.894C73.9504 279.499 73.7355 279.032 73.7355 278.458H73.7713C73.7713 278.458 73.7713 278.476 73.7534 278.494C73.7534 277.902 73.9504 277.417 74.3621 277.04C74.7201 276.699 75.1498 276.52 75.651 276.52C76.1164 276.52 76.5103 276.646 76.8683 276.879C77.2084 277.112 77.477 277.453 77.6381 277.884H76.8862C76.6356 277.435 76.2238 277.202 75.6689 277.202C75.3109 277.202 75.0244 277.328 74.7917 277.579C74.559 277.83 74.4337 278.135 74.4337 278.494C74.4337 278.853 74.559 279.176 74.8096 279.427C75.0602 279.679 75.3646 279.804 75.7226 279.804C75.9553 279.804 76.188 279.75 76.4029 279.625C76.6177 279.499 76.7788 279.338 76.9041 279.14H77.656V279.122Z" fill="white"/>
<path d="M81.5411 280.36H80.8609V278.206C80.8609 277.919 80.7713 277.668 80.5744 277.489C80.3954 277.309 80.1448 277.201 79.8584 277.201C79.5719 277.201 79.3392 277.291 79.1602 277.453C78.9812 277.632 78.8917 277.848 78.8917 278.135V280.36H78.2114V275.353H78.8917V276.914C79.1602 276.645 79.4824 276.52 79.8763 276.52C80.3059 276.52 80.6818 276.663 81.0041 276.968C81.3442 277.291 81.5232 277.704 81.5232 278.206V280.36H81.5411Z" fill="white"/>
<path d="M85.9808 278.745H82.8122C82.8659 279.068 83.027 279.319 83.2776 279.516C83.5103 279.678 83.761 279.768 84.0295 279.768C84.2801 279.768 84.5128 279.696 84.7456 279.552C84.9783 279.409 85.1394 279.211 85.2289 278.978H85.9271C85.748 279.481 85.4616 279.839 85.0857 280.091C84.7635 280.306 84.4054 280.414 84.0116 280.414C83.5103 280.414 83.0807 280.234 82.7227 279.875C82.3467 279.481 82.1498 279.014 82.1498 278.44C82.1498 277.847 82.3467 277.363 82.7585 277.004C83.1344 276.663 83.5641 276.501 84.0653 276.501C84.5665 276.501 85.0141 276.663 85.3721 277.004C85.7838 277.381 85.9987 277.901 85.9987 278.547V278.745H85.9808ZM85.2826 278.117C85.211 277.829 85.0499 277.614 84.8172 277.435C84.5844 277.255 84.3338 277.165 84.0474 277.165C83.6894 277.165 83.385 277.291 83.1523 277.524C82.9912 277.686 82.8659 277.883 82.8122 278.117H85.2826Z" fill="white"/>
<path d="M35.7481 275.102C35.7481 275.102 23.3065 282.711 35.032 290.267C37.2876 291.738 45.4686 295.83 45.2359 299.617C45.2359 299.617 50.1946 292.259 42.9445 287.629C35.4974 282.891 33.6357 277.83 35.7481 275.102Z" fill="white"/>
<path d="M31.416 289.638C31.416 289.638 26.9764 296.386 35.7124 297.768C36.5717 297.876 42.8909 298.54 44.5378 300.621C44.5378 300.621 44.3946 297.032 39.239 294.914C34.1012 292.797 31.9889 292.276 31.416 289.638Z" fill="white"/>
<path d="M48.6014 282.549C43.2667 276.95 41.7809 273.487 44.0723 269C44.0723 269 28.1578 275.138 43.8754 286.031C49.4964 289.925 48.5656 293.909 48.5656 294.053C49.4427 293.138 53.936 288.149 48.6014 282.549Z" fill="white"/>
<rect x="340.513" y="197.859" width="130.822" height="106.641" rx="10.5" stroke="white"/>
<rect x="444.748" y="224.764" width="67.252" height="59.4374" rx="8" fill="#BDDAF2"/>
<path d="M490.455 246.193L499.009 254.725L490.455 263.256" stroke="white" stroke-linecap="round" stroke-linejoin="round"/>
<path d="M466.128 263.106L457.574 254.575L466.128 246.043" stroke="white" stroke-linecap="round" stroke-linejoin="round"/>
<path d="M474.252 265.941L482.759 243.412" stroke="white" stroke-linecap="round" stroke-linejoin="round"/>
<path d="M368.051 144.97H440.748C442.957 144.97 444.748 146.761 444.748 148.97V197.209" stroke="white" stroke-linecap="round" stroke-linejoin="round"/>
<mask id="path-24-inside-1_101:50" fill="white">
<path fill-rule="evenodd" clip-rule="evenodd" d="M418.403 212.809H418.517V211.816C418.517 211.81 418.517 211.803 418.517 211.797C418.517 211.79 418.517 211.784 418.517 211.777V175.545H386.885V212.809H386.999C387.943 216.954 394.613 220.166 402.701 220.166C410.789 220.166 417.459 216.954 418.403 212.809Z"/>
</mask>
<path fill-rule="evenodd" clip-rule="evenodd" d="M418.403 212.809H418.517V211.816C418.517 211.81 418.517 211.803 418.517 211.797C418.517 211.79 418.517 211.784 418.517 211.777V175.545H386.885V212.809H386.999C387.943 216.954 394.613 220.166 402.701 220.166C410.789 220.166 417.459 216.954 418.403 212.809Z" fill="#0070CC"/>
<path d="M418.517 212.809V213.809H419.517V212.809H418.517ZM418.403 212.809V211.809H417.605L417.428 212.586L418.403 212.809ZM418.517 211.816L417.517 211.812V211.816H418.517ZM418.517 211.777H417.517L417.517 211.782L418.517 211.777ZM418.517 175.545H419.517V174.545H418.517V175.545ZM386.885 175.545V174.545H385.885V175.545H386.885ZM386.885 212.809H385.885V213.809H386.885V212.809ZM386.999 212.809L387.974 212.586L387.797 211.809H386.999V212.809ZM418.517 211.809H418.403V213.809H418.517V211.809ZM417.517 211.816V212.809H419.517V211.816H417.517ZM417.517 211.797C417.517 211.802 417.517 211.807 417.517 211.812L419.517 211.821C419.517 211.813 419.517 211.805 419.517 211.797H417.517ZM417.517 211.782C417.517 211.787 417.517 211.792 417.517 211.797H419.517C419.517 211.789 419.517 211.781 419.517 211.773L417.517 211.782ZM417.517 175.545V211.777H419.517V175.545H417.517ZM386.885 176.545H418.517V174.545H386.885V176.545ZM387.885 212.809V175.545H385.885V212.809H387.885ZM386.999 211.809H386.885V213.809H386.999V211.809ZM402.701 219.166C398.78 219.166 395.24 218.386 392.598 217.138C389.917 215.871 388.346 214.22 387.974 212.586L386.024 213.031C386.596 215.542 388.832 217.57 391.744 218.946C394.695 220.34 398.534 221.166 402.701 221.166V219.166ZM417.428 212.586C417.056 214.22 415.484 215.871 412.803 217.138C410.161 218.386 406.622 219.166 402.701 219.166V221.166C406.867 221.166 410.707 220.34 413.658 218.946C416.57 217.57 418.806 215.542 419.378 213.031L417.428 212.586Z" fill="white" mask="url(#path-24-inside-1_101:50)"/>
<path d="M417.929 200.335C417.929 204.428 411.128 207.746 402.738 207.746C394.348 207.746 387.547 204.428 387.547 200.335" stroke="white"/>
<path d="M417.892 188.227C417.892 192.32 411.09 195.638 402.701 195.638C394.311 195.638 387.51 192.32 387.51 188.227" stroke="white"/>
<path d="M418.017 175.87C418.017 177.822 416.461 179.717 413.657 181.153C410.878 182.576 407.006 183.471 402.701 183.471C398.396 183.471 394.523 182.576 391.745 181.153C388.94 179.717 387.385 177.822 387.385 175.87C387.385 173.918 388.94 172.023 391.745 170.587C394.523 169.164 398.396 168.269 402.701 168.269C407.006 168.269 410.878 169.164 413.657 170.587C416.461 172.023 418.017 173.918 418.017 175.87Z" fill="#0070CC" stroke="white"/>
<ellipse cx="437.413" cy="122.816" rx="3.36601" ry="3.35737" fill="#BDDAF2"/>
<ellipse cx="437.413" cy="157.732" rx="3.36601" ry="3.35737" fill="#BDDAF2"/>
<ellipse cx="437.413" cy="105.357" rx="3.36601" ry="3.35737" fill="#BDDAF2"/>
<ellipse cx="437.413" cy="140.274" rx="3.36601" ry="3.35737" fill="#BDDAF2"/>
<ellipse cx="454.917" cy="122.816" rx="3.36601" ry="3.35737" fill="#BDDAF2"/>
<ellipse cx="454.917" cy="157.732" rx="3.36601" ry="3.35737" fill="#BDDAF2"/>
<ellipse cx="454.917" cy="105.357" rx="3.36601" ry="3.35737" fill="#BDDAF2"/>
<ellipse cx="454.917" cy="140.274" rx="3.36601" ry="3.35737" fill="#BDDAF2"/>
<ellipse cx="472.42" cy="122.816" rx="3.36601" ry="3.35737" fill="#BDDAF2"/>
<ellipse cx="472.42" cy="157.732" rx="3.36601" ry="3.35737" fill="#BDDAF2"/>
<ellipse cx="472.42" cy="105.357" rx="3.36601" ry="3.35737" fill="#BDDAF2"/>
<ellipse cx="472.42" cy="140.274" rx="3.36601" ry="3.35737" fill="#BDDAF2"/>
<ellipse cx="489.923" cy="122.816" rx="3.36601" ry="3.35737" fill="#BDDAF2"/>
<ellipse cx="489.923" cy="157.732" rx="3.36601" ry="3.35737" fill="#BDDAF2"/>
<ellipse cx="489.923" cy="105.357" rx="3.36601" ry="3.35737" fill="#BDDAF2"/>
<ellipse cx="489.923" cy="140.274" rx="3.36601" ry="3.35737" fill="#BDDAF2"/>
<ellipse cx="362.151" cy="144.426" rx="5.8998" ry="5.88465" fill="#BDDAF2"/>
<rect x="297.5" y="215.493" width="70.0508" height="68.589" rx="5.5" fill="#0070CC" stroke="white"/>
<path d="M308.118 233.681H357.854" stroke="white" stroke-linecap="round" stroke-linejoin="round"/>
<path d="M308.34 245.395H358.076" stroke="white" stroke-linecap="round" stroke-linejoin="round"/>
<path d="M308.34 257.109H358.076" stroke="white" stroke-linecap="round" stroke-linejoin="round"/>
<path d="M308.34 268.823H358.076" stroke="white" stroke-linecap="round" stroke-linejoin="round"/>
</svg>
