<svg width="542" height="335" viewBox="0 0 542 335" fill="none" xmlns="http://www.w3.org/2000/svg">
<rect width="542" height="335" fill="#0070CC"/>
<mask id="mask0_53:36" style="mask-type:alpha" maskUnits="userSpaceOnUse" x="237" y="116" width="305" height="219">
<rect x="237" y="116" width="305" height="219" fill="#0070CC"/>
</mask>
<g mask="url(#mask0_53:36)">
<path d="M441 289V146" stroke="white" stroke-opacity="0.2" stroke-width="2"/>
<path d="M441 289V146" stroke="white" stroke-opacity="0.1" stroke-width="2"/>
<path d="M437 290L422 147" stroke="white" stroke-opacity="0.2" stroke-width="2"/>
<path d="M437 290L422 147" stroke="white" stroke-opacity="0.1" stroke-width="2"/>
<path d="M433 290L403 150" stroke="white" stroke-opacity="0.2" stroke-width="2"/>
<path d="M433 290L403 150" stroke="white" stroke-opacity="0.1" stroke-width="2"/>
<path d="M429 291L385 155" stroke="white" stroke-opacity="0.2" stroke-width="2"/>
<path d="M429 291L385 155" stroke="white" stroke-opacity="0.1" stroke-width="2"/>
<path d="M425 293L367 162" stroke="white" stroke-opacity="0.2" stroke-width="2"/>
<path d="M425 293L367 162" stroke="white" stroke-opacity="0.1" stroke-width="2"/>
<path d="M422 294L350 170" stroke="white" stroke-opacity="0.2" stroke-width="2"/>
<path d="M422 294L350 170" stroke="white" stroke-opacity="0.1" stroke-width="2"/>
<path d="M419 296L335 181" stroke="white" stroke-opacity="0.2" stroke-width="2"/>
<path d="M419 296L335 181" stroke="white" stroke-opacity="0.1" stroke-width="2"/>
<path d="M416 299L320 193" stroke="white" stroke-opacity="0.2" stroke-width="2"/>
<path d="M416 299L320 193" stroke="white" stroke-opacity="0.1" stroke-width="2"/>
<path d="M413 302L307 206" stroke="white" stroke-opacity="0.2" stroke-width="2"/>
<path d="M413 302L307 206" stroke="white" stroke-opacity="0.1" stroke-width="2"/>
<path d="M410 305L295 221" stroke="white" stroke-opacity="0.2" stroke-width="2"/>
<path d="M410 305L295 221" stroke="white" stroke-opacity="0.1" stroke-width="2"/>
<path d="M408 308L284 236" stroke="white" stroke-opacity="0.2" stroke-width="2"/>
<path d="M408 308L284 236" stroke="white" stroke-opacity="0.1" stroke-width="2"/>
<path d="M407 311L276 253" stroke="white" stroke-opacity="0.2" stroke-width="2"/>
<path d="M407 311L276 253" stroke="white" stroke-opacity="0.1" stroke-width="2"/>
<path d="M405 315L269 271" stroke="white" stroke-opacity="0.2" stroke-width="2"/>
<path d="M405 315L269 271" stroke="white" stroke-opacity="0.1" stroke-width="2"/>
<path d="M404 319L264 289" stroke="white" stroke-opacity="0.2" stroke-width="2"/>
<path d="M404 319L264 289" stroke="white" stroke-opacity="0.1" stroke-width="2"/>
<path d="M404 323L261 308" stroke="white" stroke-opacity="0.2" stroke-width="2"/>
<path d="M404 323L261 308" stroke="white" stroke-opacity="0.1" stroke-width="2"/>
<path d="M403 327H260" stroke="white" stroke-opacity="0.2" stroke-width="2"/>
<path d="M403 327H260" stroke="white" stroke-opacity="0.1" stroke-width="2"/>
<path d="M404 331L261 346" stroke="white" stroke-opacity="0.2" stroke-width="2"/>
<path d="M404 331L261 346" stroke="white" stroke-opacity="0.1" stroke-width="2"/>
<path d="M404 334L264 364" stroke="white" stroke-opacity="0.2" stroke-width="2"/>
<path d="M404 334L264 364" stroke="white" stroke-opacity="0.1" stroke-width="2"/>
<path d="M477 334L617 364" stroke="white" stroke-opacity="0.2" stroke-width="2"/>
<path d="M477 334L617 364" stroke="white" stroke-opacity="0.1" stroke-width="2"/>
<path d="M478 331L620 346" stroke="white" stroke-opacity="0.2" stroke-width="2"/>
<path d="M478 331L620 346" stroke="white" stroke-opacity="0.1" stroke-width="2"/>
<path d="M478 327H621" stroke="white" stroke-opacity="0.2" stroke-width="2"/>
<path d="M478 327H621" stroke="white" stroke-opacity="0.1" stroke-width="2"/>
<path d="M478 323L620 308" stroke="white" stroke-opacity="0.2" stroke-width="2"/>
<path d="M478 323L620 308" stroke="white" stroke-opacity="0.1" stroke-width="2"/>
<path d="M477 319L617 289" stroke="white" stroke-opacity="0.2" stroke-width="2"/>
<path d="M477 319L617 289" stroke="white" stroke-opacity="0.1" stroke-width="2"/>
<path d="M476 315L612 271" stroke="white" stroke-opacity="0.2" stroke-width="2"/>
<path d="M476 315L612 271" stroke="white" stroke-opacity="0.1" stroke-width="2"/>
<path d="M475 311L605 253" stroke="white" stroke-opacity="0.2" stroke-width="2"/>
<path d="M475 311L605 253" stroke="white" stroke-opacity="0.1" stroke-width="2"/>
<path d="M473 308L597 236" stroke="white" stroke-opacity="0.2" stroke-width="2"/>
<path d="M473 308L597 236" stroke="white" stroke-opacity="0.1" stroke-width="2"/>
<path d="M471 305L587 221" stroke="white" stroke-opacity="0.2" stroke-width="2"/>
<path d="M471 305L587 221" stroke="white" stroke-opacity="0.1" stroke-width="2"/>
<path d="M468 302L575 206" stroke="white" stroke-opacity="0.2" stroke-width="2"/>
<path d="M468 302L575 206" stroke="white" stroke-opacity="0.1" stroke-width="2"/>
<path d="M466 299L561 193" stroke="white" stroke-opacity="0.2" stroke-width="2"/>
<path d="M466 299L561 193" stroke="white" stroke-opacity="0.1" stroke-width="2"/>
<path d="M463 296L547 181" stroke="white" stroke-opacity="0.2" stroke-width="2"/>
<path d="M463 296L547 181" stroke="white" stroke-opacity="0.1" stroke-width="2"/>
<path d="M459 294L531 170" stroke="white" stroke-opacity="0.2" stroke-width="2"/>
<path d="M459 294L531 170" stroke="white" stroke-opacity="0.1" stroke-width="2"/>
<path d="M456 293L514 162" stroke="white" stroke-opacity="0.2" stroke-width="2"/>
<path d="M456 293L514 162" stroke="white" stroke-opacity="0.1" stroke-width="2"/>
<path d="M452 291L496 155" stroke="white" stroke-opacity="0.2" stroke-width="2"/>
<path d="M452 291L496 155" stroke="white" stroke-opacity="0.1" stroke-width="2"/>
<path d="M448 290L478 150" stroke="white" stroke-opacity="0.2" stroke-width="2"/>
<path d="M448 290L478 150" stroke="white" stroke-opacity="0.1" stroke-width="2"/>
<path d="M445 290L459 147" stroke="white" stroke-opacity="0.2" stroke-width="2"/>
<path d="M445 290L459 147" stroke="white" stroke-opacity="0.1" stroke-width="2"/>
<path d="M450.255 290.974L487.266 152.846" stroke="white" stroke-opacity="0.5" stroke-width="2"/>
<path d="M446.133 290.904L468.655 148.895" stroke="white" stroke-opacity="0.5" stroke-width="2"/>
<path d="M442.269 289.869L449.526 146.875" stroke="white" stroke-opacity="0.5" stroke-width="2"/>
<path d="M438.146 289.8L430.845 147.046" stroke="white" stroke-opacity="0.5" stroke-width="2"/>
<path d="M433.765 290.696L411.647 149.148" stroke="white" stroke-opacity="0.5" stroke-width="2"/>
<path d="M430.608 290.886L393.155 152.476" stroke="white" stroke-opacity="0.5" stroke-width="2"/>
<path d="M427.193 292.041L375.819 159.219" stroke="white" stroke-opacity="0.5" stroke-width="2"/>
<path d="M423.519 294.162L358.225 166.928" stroke="white" stroke-opacity="0.5" stroke-width="2"/>
<path d="M419.845 296.284L342.303 176.12" stroke="white" stroke-opacity="0.5" stroke-width="2"/>
<path d="M416.17 298.405L326.83 187.503" stroke="white" stroke-opacity="0.5" stroke-width="2"/>
<path d="M413.462 300.785L312.322 199.145" stroke="white" stroke-opacity="0.5" stroke-width="2"/>
<path d="M411.72 303.424L300.195 213.495" stroke="white" stroke-opacity="0.5" stroke-width="2"/>
<path d="M408.752 306.77L288.775 229.07" stroke="white" stroke-opacity="0.5" stroke-width="2"/>
<path d="M406.751 310.375L279.286 245.163" stroke="white" stroke-opacity="0.5" stroke-width="2"/>
<path d="M405.716 314.239L271.471 262.739" stroke="white" stroke-opacity="0.5" stroke-width="2"/>
<path d="M403.715 317.844L265.587 280.833" stroke="white" stroke-opacity="0.5" stroke-width="2"/>
<path d="M403.645 321.966L261.636 299.444" stroke="white" stroke-opacity="0.5" stroke-width="2"/>
<path d="M402.869 324.864L259.875 317.607" stroke="white" stroke-opacity="0.5" stroke-width="2"/>
<path d="M402.8 328.986L260.046 336.288" stroke="white" stroke-opacity="0.5" stroke-width="2"/>
<path d="M403.696 333.368L262.148 355.486" stroke="white" stroke-opacity="0.5" stroke-width="2"/>
<path d="M403.886 336.524L265.476 373.977" stroke="white" stroke-opacity="0.5" stroke-width="2"/>
<path d="M404.782 340.906L271.96 392.279" stroke="white" stroke-opacity="0.5" stroke-width="2"/>
<path d="M406.904 344.58L279.928 408.908" stroke="white" stroke-opacity="0.5" stroke-width="2"/>
<path d="M409.284 347.289L288.861 425.796" stroke="white" stroke-opacity="0.5" stroke-width="2"/>
<path d="M411.405 350.962L300.244 441.269" stroke="white" stroke-opacity="0.5" stroke-width="2"/>
<path d="M413.785 353.671L312.145 454.811" stroke="white" stroke-opacity="0.5" stroke-width="2"/>
<path d="M477.195 333.391L618.238 355.655" stroke="white" stroke-opacity="0.5" stroke-width="2"/>
<path d="M477.264 329.269L620.258 336.526" stroke="white" stroke-opacity="0.5" stroke-width="2"/>
<path d="M477.333 325.146L620.087 317.845" stroke="white" stroke-opacity="0.5" stroke-width="2"/>
<path d="M477.403 321.024L617.984 298.646" stroke="white" stroke-opacity="0.5" stroke-width="2"/>
<path d="M476.247 317.609L614.657 280.156" stroke="white" stroke-opacity="0.5" stroke-width="2"/>
<path d="M475.092 314.193L608.88 263.078" stroke="white" stroke-opacity="0.5" stroke-width="2"/>
<path d="M472.97 310.519L601.171 245.484" stroke="white" stroke-opacity="0.5" stroke-width="2"/>
<path d="M471.815 307.103L591.013 229.303" stroke="white" stroke-opacity="0.5" stroke-width="2"/>
<path d="M469.694 303.429L580.596 214.088" stroke="white" stroke-opacity="0.5" stroke-width="2"/>
<path d="M466.348 300.462L567.988 199.322" stroke="white" stroke-opacity="0.5" stroke-width="2"/>
<path d="M463.709 298.719L553.638 187.195" stroke="white" stroke-opacity="0.5" stroke-width="2"/>
<path d="M460.363 295.753L538.063 175.775" stroke="white" stroke-opacity="0.5" stroke-width="2"/>
<path d="M456.758 293.751L521.97 166.286" stroke="white" stroke-opacity="0.5" stroke-width="2"/>
<path d="M453.86 292.975L504.394 158.471" stroke="white" stroke-opacity="0.5" stroke-width="2"/>
</g>
</svg>
