<svg width="542" height="335" viewBox="0 0 542 335" fill="none" xmlns="http://www.w3.org/2000/svg">
<rect width="542" height="335" fill="#91C2EA"/>
<mask id="mask0_26:29" style="mask-type:alpha" maskUnits="userSpaceOnUse" x="274" y="116" width="268" height="219">
<rect x="274.598" y="116" width="267.402" height="219" fill="#91C2EA"/>
</mask>
<g mask="url(#mask0_26:29)">
<path d="M459.421 311.399L459.421 311.399L459.418 311.394C458.677 309.91 458.638 308.851 458.876 308.069C459.12 307.267 459.708 306.579 460.563 305.955C461.42 305.329 462.46 304.829 463.489 304.369C463.648 304.298 463.811 304.226 463.974 304.155C464.795 303.793 465.632 303.424 466.196 303.042L466.202 303.038L466.208 303.034C467.766 301.944 469.561 301.711 471.616 301.444C471.649 301.44 471.681 301.436 471.713 301.432C473.727 301.17 476.019 300.859 477.923 299.258L477.93 299.252L477.937 299.246C479.071 298.256 480.727 297.977 482.497 298.548C482.894 298.744 483.222 298.922 483.481 299.204C483.845 299.634 484.024 300.262 484.006 300.939C483.988 301.619 483.777 302.178 483.564 302.451C483.286 302.741 482.925 302.953 482.418 303.209C482.357 303.24 482.293 303.272 482.226 303.306C481.772 303.532 481.205 303.815 480.701 304.216L480.701 304.216L480.695 304.221C479.814 304.934 479.217 305.968 478.757 307C478.393 307.817 478.079 308.721 477.784 309.572C477.705 309.799 477.628 310.021 477.552 310.238C477.173 311.306 476.809 312.229 476.365 312.927C475.928 313.615 475.487 313.968 474.996 314.086L474.984 314.088L474.973 314.091C474.254 314.281 473.353 313.993 472.075 313.408C471.916 313.335 471.75 313.258 471.58 313.178C471.13 312.967 470.65 312.743 470.187 312.556C469.54 312.296 468.828 312.067 468.098 312.015L468.096 312.015C467.02 311.941 466.084 312.251 465.296 312.566C465.068 312.657 464.857 312.746 464.657 312.83C464.117 313.057 463.655 313.251 463.14 313.372L463.116 313.378L463.092 313.384C461.993 313.7 460.347 313.279 459.421 311.399Z" stroke="#0070CC" stroke-width="2" stroke-miterlimit="10"/>
<path d="M482.254 311.007L482.254 311.007L482.251 311.018C482.079 311.635 481.921 312.268 481.761 312.909C481.495 313.974 481.223 315.062 480.868 316.145C480.305 317.859 479.623 319.224 478.707 319.989C477.91 320.643 476.978 320.804 475.781 320.676C474.821 320.561 473.792 320.169 472.627 319.613C472.097 319.361 471.559 319.084 470.995 318.794C470.941 318.767 470.888 318.74 470.834 318.712C470.22 318.397 469.577 318.069 468.917 317.762C467.745 317.187 466.524 316.717 465.276 316.63C463.86 316.466 462.577 316.746 461.381 317.132C460.838 317.308 460.294 317.512 459.765 317.71C459.712 317.73 459.659 317.749 459.607 317.769C459.02 317.989 458.443 318.201 457.847 318.384L457.847 318.384L457.838 318.387C454.872 319.33 451.638 317.641 449.876 313.901C449.275 312.623 448.851 311.382 448.599 310.176C448.261 308.33 448.124 306.294 448.392 304.5C448.662 302.691 449.32 301.269 450.438 300.443C450.564 300.35 450.788 300.263 451.181 300.22C451.571 300.178 452.027 300.189 452.556 300.214C452.64 300.218 452.727 300.222 452.816 300.227C453.252 300.249 453.733 300.273 454.179 300.262C454.71 300.248 455.32 300.183 455.863 299.932L455.87 299.928L455.877 299.925C456.791 299.483 457.639 299.046 458.442 298.632C459.888 297.887 461.193 297.215 462.494 296.716L462.503 296.712L462.513 296.708C464.372 295.95 466.057 294.905 467.64 293.922C467.823 293.809 468.005 293.696 468.185 293.585C469.958 292.49 471.626 291.519 473.452 290.975C474.146 290.769 475.01 290.866 476.15 291.039C476.217 291.049 476.285 291.06 476.354 291.07C477.334 291.221 478.524 291.404 479.617 291.192C480.089 291.144 480.465 291.01 480.869 290.749L480.883 290.739L480.897 290.73C482.993 289.272 485.641 289.225 488.268 290.395L488.282 290.401L488.295 290.407C488.963 290.68 489.608 291.1 490.23 291.843L490.366 292.006L490.391 292.018C491.16 293.114 491.543 294.587 491.575 296.026C491.607 297.534 491.252 298.792 490.784 299.417L490.773 299.432L490.762 299.447C490.341 300.054 489.778 300.449 489.068 300.845C488.912 300.931 488.742 301.021 488.562 301.117C487.98 301.424 487.299 301.784 486.715 302.241C486.28 302.573 485.885 302.909 485.512 303.349C484.59 304.407 483.966 305.705 483.481 307.018C483.1 308.051 482.786 309.152 482.489 310.193C482.41 310.469 482.332 310.741 482.254 311.007Z" stroke="#0070CC" stroke-width="2" stroke-miterlimit="10"/>
<path d="M481.23 326.808L481.224 326.812L481.218 326.816C479.818 327.778 478.228 327.737 476.433 327.285C475.041 326.927 473.623 326.239 472.102 325.397C471.578 325.107 471.032 324.793 470.474 324.471C469.462 323.889 468.407 323.282 467.352 322.744C465.769 321.9 464.21 321.411 462.732 321.172L462.719 321.17L462.706 321.168C460.868 320.92 459.182 321.246 457.575 321.739C456.775 321.984 455.977 322.277 455.19 322.566L455.152 322.58C454.371 322.868 453.597 323.152 452.796 323.405C447.666 325.005 442.983 321.955 440.437 316.457C439.572 314.429 438.821 312.456 438.489 310.536L438.49 310.536L438.487 310.523C437.978 307.779 437.548 304.475 437.746 301.495C437.946 298.482 438.77 296.053 440.51 294.735C440.681 294.615 441.038 294.513 441.717 294.543C442.377 294.573 443.153 294.714 444.016 294.884C444.106 294.902 444.197 294.92 444.288 294.938C445.044 295.089 445.855 295.25 446.596 295.325C447.402 295.407 448.322 295.412 449.086 295.053L449.086 295.053L449.096 295.048C450.299 294.464 451.465 293.844 452.583 293.249C453.169 292.937 453.741 292.633 454.3 292.344C455.95 291.489 457.53 290.743 459.168 290.224C462.136 289.302 464.545 287.282 466.762 285.386C466.833 285.326 466.904 285.265 466.974 285.205C469.17 283.326 471.192 281.596 473.569 280.706L473.574 280.704C473.875 280.589 474.308 280.57 474.925 280.697C475.536 280.823 476.222 281.068 476.98 281.368C477.195 281.453 477.418 281.543 477.646 281.635C478.189 281.856 478.757 282.086 479.296 282.275C480.062 282.545 480.885 282.776 481.674 282.804C482.219 282.831 482.848 282.769 483.436 282.426L483.469 282.407L483.5 282.386C486.622 280.238 490.474 280.429 494.092 282.14C495.135 282.652 496.122 283.31 497.08 284.529L497.41 284.948C498.507 286.62 499.074 288.806 499.162 290.916C499.257 293.194 498.786 295.153 498.062 296.159L498.054 296.17L498.047 296.18C497.368 297.177 496.489 297.787 495.443 298.385C495.239 298.501 495.023 298.619 494.8 298.742C493.926 299.222 492.934 299.766 492.057 300.52L492.048 300.528L492.039 300.536C491.547 300.98 490.977 301.555 490.509 302.208C488.415 305.089 487.464 309.051 486.652 312.434C486.563 312.808 486.475 313.175 486.387 313.533L486.385 313.54C486.198 314.327 486.026 315.163 485.847 316.027C485.508 317.67 485.148 319.413 484.632 321.106C483.845 323.686 482.791 325.767 481.23 326.808Z" stroke="#0070CC" stroke-width="2" stroke-miterlimit="10"/>
<path d="M490.581 316.181L490.581 316.182C490.343 317.196 490.123 318.296 489.893 319.445C489.463 321.588 489 323.901 488.324 326.142C487.287 329.578 485.856 332.415 483.652 333.771C481.744 334.926 479.388 334.675 477.022 333.89C475.217 333.279 473.425 332.297 471.557 331.188C471.116 330.926 470.668 330.656 470.216 330.383C468.79 329.521 467.315 328.63 465.817 327.869C463.805 326.75 461.93 326.1 460.065 325.809L460.062 325.808C456.285 325.229 452.844 326.52 449.31 327.845C448.779 328.044 448.246 328.244 447.709 328.438L447.708 328.439C444.125 329.744 440.834 329.19 438.007 327.44C435.151 325.67 432.744 322.655 431.088 319.036L431.088 319.036L431.083 319.026C429.848 316.402 428.923 313.69 428.426 311.016C427.764 307.434 427.04 302.881 427.16 298.727C427.281 294.517 428.26 291.048 430.666 289.257L430.668 289.255C430.936 289.055 431.473 288.934 432.442 289.035C433.372 289.131 434.464 289.403 435.647 289.714C435.768 289.746 435.891 289.778 436.015 289.811C437.057 290.087 438.153 290.377 439.147 290.538C440.218 290.711 441.41 290.781 442.36 290.33L442.36 290.33L442.366 290.327C444.04 289.519 445.634 288.644 447.165 287.804C447.899 287.401 448.618 287.007 449.324 286.631C451.532 285.457 453.674 284.435 455.979 283.771C459.784 282.703 462.742 279.886 465.452 277.187C465.633 277.006 465.814 276.825 465.993 276.646C468.569 274.072 470.96 271.682 473.832 270.471C474.181 270.331 474.708 270.332 475.496 270.575C476.273 270.816 477.152 271.244 478.114 271.76C478.441 271.935 478.782 272.123 479.129 272.315C479.764 272.665 480.419 273.026 481.038 273.337C482.001 273.82 483.015 274.257 483.974 274.419L484.02 274.427L484.066 274.43L484.097 274.433C484.387 274.455 484.763 274.483 485.125 274.456C485.499 274.427 485.967 274.334 486.383 274.025C490.467 271.219 495.42 271.615 500.118 273.919C501.463 274.579 502.859 275.496 504.061 277.166C504.103 277.24 504.146 277.296 504.178 277.334C504.205 277.367 504.23 277.394 504.248 277.414C505.862 279.788 506.697 282.96 506.844 285.977C506.994 289.026 506.433 291.698 505.487 293.124L505.482 293.132C504.563 294.545 503.357 295.374 501.968 296.164C501.713 296.309 501.448 296.454 501.176 296.603C500.006 297.245 498.707 297.957 497.573 298.993L497.554 299.011L497.536 299.029L497.507 299.058C496.886 299.689 496.189 300.397 495.624 301.255C494.096 303.396 493.12 305.962 492.386 308.545C491.886 310.304 491.484 312.132 491.103 313.862C490.927 314.662 490.755 315.44 490.581 316.181Z" stroke="#0070CC" stroke-width="2" stroke-miterlimit="10"/>
<path d="M494.721 318.68C494.455 319.875 494.208 321.194 493.947 322.584C493.443 325.271 492.888 328.225 492.053 331.071C490.784 335.393 488.978 339.006 486.117 340.637L486.114 340.639C483.554 342.112 480.505 341.607 477.583 340.49C475.375 339.624 473.216 338.35 470.975 336.953C470.58 336.706 470.182 336.456 469.781 336.204C467.933 335.041 466.021 333.838 464.039 332.811C461.625 331.495 459.435 330.686 457.191 330.344L457.189 330.343C452.499 329.637 448.212 331.262 443.592 333.013C443.221 333.154 442.847 333.296 442.471 333.437L442.47 333.437C437.872 335.172 433.685 334.452 430.116 332.203C426.515 329.933 423.516 326.082 421.461 321.555C419.972 318.203 418.738 314.825 418.16 311.421L418.16 311.421L418.159 311.415C417.369 306.943 416.344 301.126 416.369 295.794C416.395 290.394 417.501 285.882 420.578 283.606C420.965 283.325 421.711 283.207 422.966 283.39C424.173 283.566 425.586 283.978 427.091 284.435C427.229 284.477 427.368 284.52 427.508 284.562C428.853 284.973 430.253 285.399 431.513 285.649C432.853 285.914 434.3 286.041 435.422 285.507C437.554 284.503 439.573 283.374 441.524 282.283C442.368 281.81 443.2 281.345 444.024 280.9C446.78 279.41 449.505 278.104 452.531 277.319C457.174 276.151 460.654 272.553 463.841 269.044C464.111 268.747 464.378 268.451 464.645 268.156C467.612 264.871 470.397 261.788 473.834 260.238L473.837 260.237C474.237 260.055 474.869 260.066 475.85 260.434C476.805 260.793 477.894 261.416 479.075 262.156C479.501 262.423 479.945 262.709 480.395 262.999C481.149 263.485 481.919 263.982 482.648 264.415C483.816 265.11 485.027 265.739 486.152 266.009L486.18 266.016L486.209 266.021C487.036 266.17 488.023 266.306 488.951 265.705L488.962 265.698L488.973 265.69C494.113 262.166 500.262 262.753 505.953 265.669L505.961 265.673L505.968 265.677C507.614 266.484 509.345 267.625 510.886 269.772C510.91 269.822 510.937 269.868 510.964 269.911C511.012 269.987 511.06 270.047 511.093 270.086L511.117 270.121C513.18 273.172 514.254 277.177 514.465 280.951C514.677 284.759 514.003 288.116 512.803 289.929L512.799 289.935C511.626 291.736 510.083 292.768 508.341 293.757C508.071 293.91 507.793 294.063 507.51 294.219C506.012 295.047 504.371 295.953 502.961 297.336C502.072 298.185 501.273 299.105 500.606 300.176C498.83 302.834 497.681 306.019 496.816 309.231C496.201 311.52 495.716 313.878 495.261 316.097C495.079 316.985 494.901 317.851 494.721 318.68ZM494.721 318.68C494.722 318.679 494.722 318.678 494.722 318.677L495.698 318.894L494.721 318.682C494.721 318.682 494.721 318.681 494.721 318.68Z" stroke="#0070CC" stroke-width="2" stroke-miterlimit="10"/>
<path d="M498.813 321.273L498.812 321.278C498.533 322.617 498.271 324.1 497.993 325.669C497.415 328.946 496.77 332.599 495.761 336.093C494.267 341.266 492.081 345.65 488.522 347.614C485.428 349.28 481.702 348.585 478.131 347.088C475.521 345.964 473.003 344.417 470.421 342.748C469.942 342.438 469.46 342.124 468.975 341.808C466.868 340.433 464.705 339.022 462.459 337.787C459.693 336.232 457.114 335.298 454.593 334.88L454.593 334.88L454.582 334.878C448.81 333.984 443.606 335.989 437.767 338.237C437.642 338.285 437.517 338.334 437.392 338.382L437.391 338.382C431.776 340.548 426.712 339.655 422.422 336.909C418.096 334.141 414.53 329.464 412.089 324.065C410.287 320.047 408.81 315.965 408.071 311.828L408.07 311.822C408.046 311.694 408.022 311.566 407.998 311.436C407.028 306.204 405.758 299.353 405.696 293.025C405.633 286.47 406.876 280.888 410.624 278.082C411.14 277.718 412.1 277.609 413.635 277.876C415.119 278.133 416.853 278.686 418.679 279.289C418.834 279.34 418.99 279.392 419.147 279.444C420.795 279.989 422.497 280.553 424.022 280.891C425.634 281.248 427.333 281.427 428.619 280.811L428.624 280.809C431.068 279.624 433.384 278.304 435.626 277.025C436.748 276.386 437.852 275.756 438.944 275.16C442.258 273.35 445.559 271.783 449.277 270.889L449.284 270.888C454.677 269.554 458.651 265.198 462.309 260.893C462.641 260.501 462.972 260.11 463.3 259.721C466.677 255.72 469.886 251.919 473.908 249.981L473.915 249.978C474.382 249.748 475.131 249.773 476.298 250.262C477.43 250.737 478.723 251.55 480.115 252.51C480.677 252.898 481.269 253.32 481.867 253.746C482.692 254.333 483.527 254.929 484.308 255.452C485.666 256.361 487.049 257.186 488.309 257.589C489.446 257.995 490.565 258.059 491.562 257.45L491.585 257.436L491.607 257.421C497.719 253.221 505.161 254.046 511.824 257.502C513.83 258.547 515.91 259.928 517.796 262.579C517.797 262.58 517.797 262.581 517.798 262.582C517.823 262.627 517.847 262.664 517.866 262.692C517.89 262.728 517.916 262.762 517.934 262.787L517.938 262.799L518.013 262.91C520.509 266.592 521.803 271.432 522.072 275.98C522.343 280.563 521.561 284.629 520.141 286.82C518.686 289.063 516.788 290.324 514.693 291.509C514.371 291.691 514.042 291.872 513.707 292.056C511.908 293.047 509.969 294.115 508.313 295.77C507.274 296.771 506.383 297.899 505.611 299.063L505.609 299.066C503.493 302.279 502.172 306.117 501.192 309.98C500.557 312.487 500.05 315.07 499.571 317.518C499.316 318.819 499.068 320.081 498.813 321.273Z" stroke="#0070CC" stroke-width="2" stroke-miterlimit="10"/>
<path d="M527.584 283.759L527.588 283.753C529.263 281.174 530.151 276.404 529.823 271.046C529.496 265.725 527.981 260.047 525.088 255.716L525.015 255.608L524.999 255.56C524.961 255.511 524.895 255.419 524.833 255.293C522.611 252.167 520.197 250.556 517.848 249.28C510.114 245.237 501.564 244.197 494.481 249.068C493.351 249.87 491.929 249.607 490.786 249.182C489.361 248.661 487.779 247.647 486.208 246.522C485.301 245.873 484.34 245.143 483.388 244.421C482.704 243.902 482.025 243.386 481.374 242.907C479.771 241.726 478.271 240.711 476.961 240.101C475.608 239.47 474.733 239.402 474.194 239.654C471.7 240.896 469.462 242.828 467.308 245.127C465.58 246.973 463.943 249.012 462.279 251.086C461.861 251.607 461.442 252.13 461.018 252.653C456.872 257.771 452.366 262.897 446.157 264.327L446.154 264.328C441.745 265.331 437.854 267.183 433.98 269.315C432.756 269.988 431.525 270.694 430.279 271.41C427.616 272.938 424.881 274.508 421.99 275.883C421.243 276.241 420.385 276.344 419.517 276.316C418.642 276.288 417.69 276.124 416.712 275.889C414.952 275.465 412.983 274.777 411.063 274.105C410.857 274.033 410.652 273.962 410.448 273.89C408.302 273.142 406.251 272.454 404.499 272.129C402.685 271.792 401.522 271.914 400.892 272.389L400.886 272.394L400.886 272.394C398.677 274.033 397.218 276.508 396.332 279.583C395.444 282.662 395.147 286.284 395.223 290.116C395.365 297.277 396.798 304.981 397.906 310.937C397.985 311.362 398.063 311.778 398.138 312.184L527.584 283.759ZM527.584 283.759C525.912 286.377 523.701 287.853 521.262 289.242C520.889 289.454 520.51 289.665 520.125 289.879C518.027 291.043 515.78 292.29 513.851 294.224C512.682 295.357 511.609 296.723 510.731 298.104C508.326 301.847 506.803 306.291 505.679 310.779C504.881 313.965 504.271 317.229 503.697 320.305C503.464 321.549 503.238 322.762 503.007 323.926C502.703 325.423 502.416 327.093 502.111 328.867C501.453 332.698 500.712 337.017 499.531 341.133C497.8 347.171 495.231 352.326 491 354.566M527.584 283.759L491 354.566M491 354.566C487.25 356.548 482.805 355.518 478.665 353.68M491 354.566L478.665 353.68M478.665 353.68C475.68 352.341 472.822 350.501 469.908 348.532C469.415 348.198 468.919 347.86 468.421 347.521C466.002 345.873 463.526 344.187 460.951 342.733C457.837 340.941 454.863 339.88 451.978 339.413C445.325 338.321 439.322 340.672 432.42 343.377C425.774 345.937 419.823 344.851 414.808 341.599C409.755 338.322 405.623 332.822 402.799 326.555C400.782 321.913 399.039 317.052 398.138 312.184L478.665 353.68Z" stroke="#0070CC" stroke-width="2" stroke-miterlimit="10"/>
<path d="M493.373 361.468L493.363 361.473C489.107 363.713 483.889 362.443 479.198 360.271C475.817 358.676 472.598 356.545 469.316 354.298C468.921 354.027 468.524 353.755 468.127 353.482C465.243 351.499 462.293 349.472 459.193 347.749C455.676 345.761 452.393 344.544 449.138 344.027C441.736 342.759 435.037 345.344 427.214 348.363L427.196 348.37L427.187 348.374C419.536 351.405 412.687 350.152 406.925 346.398C401.124 342.618 396.401 336.276 393.193 329.14L393.191 329.136C390.758 323.781 388.777 318.225 387.793 312.611L387.792 312.607C387.643 311.773 387.484 310.901 387.319 309.998C386.114 303.388 384.6 295.089 384.388 287.322C384.268 282.914 384.569 278.735 385.56 275.175C386.549 271.62 388.207 268.745 390.755 266.841L390.759 266.838C391.102 266.579 391.604 266.407 392.324 266.363C393.043 266.32 393.913 266.411 394.918 266.616C396.933 267.029 399.301 267.862 401.768 268.756C401.965 268.827 402.162 268.898 402.359 268.97C404.608 269.786 406.912 270.622 408.964 271.138C410.084 271.419 411.167 271.616 412.157 271.657C413.139 271.697 414.1 271.587 414.926 271.19C418.262 269.602 421.397 267.781 424.45 266.009C425.864 265.188 427.261 264.378 428.651 263.605C433.082 261.143 437.543 259.01 442.645 257.898L442.651 257.896C449.653 256.33 454.669 250.45 459.297 244.53C459.779 243.914 460.256 243.296 460.732 242.681C462.579 240.295 464.399 237.943 466.326 235.814C468.743 233.144 471.268 230.896 474.103 229.454C474.744 229.134 475.758 229.229 477.295 229.988C478.783 230.723 480.482 231.94 482.295 233.348C483.015 233.908 483.761 234.505 484.513 235.107C485.607 235.981 486.711 236.864 487.761 237.655C489.534 238.989 491.313 240.184 492.92 240.801C494.276 241.389 495.729 241.578 496.981 240.768L496.992 240.76L497.003 240.753C505.142 235.17 514.915 236.479 523.622 241.065C526.306 242.507 529.177 244.413 531.649 248.023L531.704 248.103L531.758 248.156C531.763 248.164 531.774 248.18 531.792 248.208C531.824 248.256 531.895 248.37 532.001 248.492C535.3 253.447 537.041 259.925 537.433 265.988C537.828 272.114 536.834 277.59 534.905 280.557L534.901 280.564L534.897 280.57C532.982 283.613 530.438 285.311 527.654 286.893C527.229 287.135 526.796 287.375 526.358 287.618C523.964 288.944 521.421 290.353 519.249 292.559C517.917 293.911 516.714 295.404 515.722 297.012C513.026 301.288 511.328 306.354 510.073 311.469C509.211 314.983 508.546 318.577 507.918 321.976C507.634 323.511 507.357 325.006 507.073 326.435C506.717 328.201 506.386 330.182 506.034 332.291C505.312 336.618 504.5 341.48 503.194 346.116C501.248 353.017 498.317 358.936 493.373 361.468Z" stroke="#0070CC" stroke-width="2" stroke-miterlimit="10"/>
<path d="M479.7 366.784L479.706 366.787C484.954 369.36 490.86 370.838 495.819 368.346C501.43 365.496 504.743 358.8 506.925 351.039C508.42 345.72 509.333 340.116 510.137 335.179C510.504 332.926 510.849 330.812 511.215 328.926M479.7 366.784L512.197 329.117M479.7 366.784C475.937 364.97 472.37 362.588 468.749 360.078C468.242 359.726 467.734 359.372 467.223 359.016C464.113 356.849 460.941 354.639 457.612 352.725C453.717 350.419 450.039 349.076 446.503 348.484L446.498 348.483C438.292 347.144 430.798 349.915 422.119 353.314L422.116 353.315C413.432 356.744 405.693 355.298 399.205 351.035C392.676 346.746 387.388 339.578 383.796 331.574L383.793 331.568C381.045 325.543 378.824 319.287 377.678 312.943C377.49 311.899 377.288 310.802 377.077 309.661C375.713 302.273 374.007 293.028 373.723 284.365C373.56 279.369 373.872 274.626 374.972 270.587C376.07 266.552 377.934 263.286 380.825 261.135C381.235 260.831 381.828 260.638 382.658 260.598C383.488 260.559 384.485 260.675 385.627 260.922C387.918 261.417 390.607 262.393 393.395 263.431C393.609 263.511 393.823 263.591 394.037 263.671C396.589 264.623 399.195 265.596 401.511 266.2C402.77 266.529 403.982 266.759 405.085 266.813C406.179 266.866 407.239 266.749 408.144 266.314C411.801 264.565 415.256 262.553 418.634 260.586C420.276 259.63 421.899 258.685 423.518 257.786C428.513 255.012 433.573 252.609 439.372 251.388L439.373 251.387C447.144 249.738 452.677 243.123 457.786 236.402C458.351 235.659 458.911 234.915 459.469 234.172C461.473 231.506 463.452 228.872 465.547 226.481C468.219 223.432 471.017 220.855 474.168 219.2L474.169 219.199C474.871 218.83 475.999 218.948 477.718 219.836C479.376 220.693 481.276 222.106 483.3 223.736C484.117 224.394 484.965 225.096 485.817 225.802C487.026 226.804 488.246 227.814 489.409 228.723C491.4 230.281 493.384 231.672 495.162 232.404L495.172 232.408C496.581 232.969 498.251 233.384 499.62 232.4M479.7 366.784L495.542 231.479M511.215 328.926L512.197 329.117M511.215 328.926C511.215 328.927 511.215 328.928 511.215 328.929L512.197 329.117M511.215 328.926C511.526 327.311 511.827 325.617 512.137 323.877C512.812 320.081 513.527 316.059 514.464 312.12C515.834 306.357 517.702 300.646 520.693 295.833L520.698 295.824C521.846 294.02 523.069 292.339 524.552 290.833M512.197 329.117C512.513 327.474 512.817 325.765 513.128 324.015C514.784 314.703 516.646 304.239 521.542 296.361C522.67 294.589 523.85 292.971 525.266 291.534M524.552 290.833C524.552 290.834 524.551 290.835 524.55 290.835L525.266 291.534M524.552 290.833C524.553 290.833 524.553 290.832 524.553 290.832L525.266 291.534M524.552 290.833C526.988 288.337 529.849 286.749 532.559 285.245C533.023 284.987 533.484 284.732 533.936 284.475C537.068 282.697 539.954 280.794 542.138 277.398M525.266 291.534C527.591 289.15 530.31 287.639 533.023 286.132C536.676 284.102 540.32 282.078 542.982 277.934M542.982 277.934L542.136 277.4C542.137 277.399 542.137 277.398 542.138 277.398M542.982 277.934C547.594 270.635 547.375 252.246 539.658 240.581M542.982 277.934L542.14 277.394C542.139 277.395 542.139 277.396 542.138 277.398M542.138 277.398C544.279 274.008 545.383 267.838 544.945 260.958C544.512 254.14 542.577 246.839 538.868 241.199M539.658 240.581L538.957 241.293C538.925 241.262 538.896 241.23 538.868 241.199M539.658 240.581C539.593 240.516 539.547 240.445 539.501 240.374C539.455 240.303 539.409 240.232 539.344 240.168C536.406 235.885 533.042 233.654 529.942 231.94M539.658 240.581L538.824 241.132C538.839 241.155 538.854 241.177 538.868 241.199M538.868 241.199C538.771 241.087 538.704 240.983 538.669 240.929L538.662 240.918C538.643 240.89 538.633 240.874 538.627 240.866M538.627 240.866L538.642 240.881C538.631 240.87 538.623 240.859 538.623 240.859C538.623 240.86 538.624 240.861 538.627 240.866ZM538.627 240.866L538.574 240.813L538.519 240.734C535.706 236.632 532.494 234.494 529.464 232.818M529.464 232.818C529.466 232.819 529.468 232.82 529.469 232.821L529.942 231.94M529.464 232.818C529.462 232.817 529.46 232.816 529.458 232.815L529.942 231.94M529.464 232.818C519.775 227.625 508.813 226.117 499.62 232.4M529.942 231.94C520.07 226.646 508.67 224.996 499.045 231.582M499.045 231.582L499.633 232.391C499.628 232.394 499.624 232.397 499.62 232.4M499.045 231.582C498.142 232.237 496.947 232.039 495.542 231.479M499.045 231.582L499.61 232.407C499.613 232.405 499.617 232.402 499.62 232.4M495.542 231.479C492.947 230.411 489.721 227.738 486.479 225.051C481.53 220.951 476.544 216.819 473.703 218.314C467.805 221.413 463.225 227.509 458.656 233.589C452.978 241.146 447.317 248.679 439.166 250.409L495.542 231.479Z" stroke="#0070CC" stroke-width="2" stroke-miterlimit="10"/>
<path d="M480.229 373.374L480.232 373.375C486.031 376.282 492.712 378.005 498.181 375.253L498.186 375.251C504.516 372.11 508.212 364.637 510.62 356.018C512.272 350.105 513.267 343.873 514.141 338.406C514.538 335.917 514.91 333.586 515.308 331.516L515.308 331.516C515.67 329.637 516.02 327.664 516.38 325.634C517.111 321.511 517.883 317.155 518.885 312.886C520.386 306.494 522.43 300.158 525.714 294.812L525.717 294.808C526.984 292.768 528.411 290.943 529.966 289.257L529.974 289.248L529.983 289.239C532.659 286.475 535.813 284.727 538.817 283.062C539.335 282.775 539.849 282.49 540.356 282.203C543.832 280.231 547.053 278.106 549.48 274.28C551.877 270.502 553.087 263.625 552.585 255.985C552.088 248.406 549.919 240.295 545.79 234.061C545.734 233.996 545.691 233.934 545.658 233.886C545.611 233.814 545.57 233.743 545.546 233.702C545.527 233.668 545.515 233.649 545.507 233.636L545.47 233.6L545.416 233.521C542.257 228.922 538.674 226.477 535.343 224.654C524.579 218.867 512.42 217.166 502.326 224.107C500.896 225.1 499.103 224.772 497.486 224.048C495.544 223.199 493.37 221.62 491.178 219.851C489.911 218.828 488.582 217.695 487.264 216.571C486.312 215.759 485.365 214.952 484.451 214.194C482.222 212.347 480.124 210.739 478.292 209.757C476.395 208.741 475.127 208.58 474.326 209.002C470.836 210.859 467.753 213.753 464.819 217.17C462.524 219.846 460.358 222.793 458.17 225.773C457.556 226.609 456.941 227.447 456.32 228.282C450.729 235.805 444.687 243.168 436.13 244.953L436.127 244.954C429.593 246.298 423.96 248.983 418.419 252.084C416.636 253.081 414.852 254.129 413.048 255.188C409.287 257.397 405.44 259.656 401.339 261.618M480.229 373.374L400.906 260.716M480.229 373.374C476.072 371.303 472.143 368.63 468.182 365.856C467.746 365.551 467.31 365.244 466.873 364.937C463.357 362.467 459.793 359.963 456.064 357.843M480.229 373.374L455.566 358.71M401.339 261.618C401.339 261.618 401.338 261.618 401.338 261.619L400.906 260.716M401.339 261.618C401.34 261.618 401.34 261.617 401.341 261.617L400.906 260.716M401.339 261.618C400.357 262.091 399.197 262.216 397.99 262.15C396.775 262.083 395.434 261.82 394.036 261.445C391.472 260.758 388.584 259.66 385.747 258.581C385.499 258.487 385.251 258.392 385.004 258.299C381.897 257.12 378.891 256.01 376.329 255.442C375.051 255.16 373.931 255.023 372.996 255.066C372.06 255.108 371.38 255.326 370.904 255.683L370.9 255.686L370.9 255.686C367.663 258.085 365.598 261.741 364.398 266.251C363.196 270.766 362.881 276.067 363.096 281.642C363.46 291.094 365.336 301.156 366.846 309.252C367.118 310.715 367.379 312.114 367.617 313.433M400.906 260.716C397.94 262.147 392.038 259.903 386.092 257.642C379.658 255.196 373.173 252.73 370.304 254.883C357.464 264.397 362.575 291.809 365.865 309.452C366.137 310.911 366.397 312.303 366.633 313.613M367.617 313.433C367.617 313.432 367.617 313.432 367.616 313.431L366.633 313.613M367.617 313.433C367.617 313.434 367.617 313.435 367.617 313.436L366.633 313.613M367.617 313.433C368.924 320.505 371.386 327.462 374.375 334.19M366.633 313.613C367.959 320.788 370.452 327.824 373.462 334.597M373.462 334.597L374.374 334.189C374.374 334.189 374.375 334.19 374.375 334.19M373.462 334.597C381.538 352.641 397.293 367.279 417.465 359.341M373.462 334.597L374.375 334.191C374.375 334.191 374.375 334.19 374.375 334.19M374.375 334.19C378.364 343.101 384.217 351.092 391.478 355.877C398.697 360.635 407.338 362.251 417.097 358.411M417.465 359.341L417.097 358.412C417.097 358.412 417.097 358.411 417.097 358.411M417.465 359.341C427.085 355.532 435.053 352.721 443.702 354.184C447.468 354.804 451.344 356.252 455.566 358.71M417.465 359.341L417.099 358.411C417.098 358.411 417.098 358.411 417.097 358.411M417.097 358.411C426.692 354.612 434.908 351.682 443.868 353.198M455.566 358.71L456.06 357.841C456.061 357.841 456.062 357.842 456.064 357.843M455.566 358.71L456.069 357.846C456.067 357.845 456.065 357.844 456.064 357.843M443.868 353.198C443.867 353.198 443.866 353.198 443.864 353.198L443.702 354.184L443.869 353.198C443.869 353.198 443.868 353.198 443.868 353.198ZM443.868 353.198C447.774 353.841 451.762 355.339 456.064 357.843" stroke="#0070CC" stroke-width="2" stroke-miterlimit="10"/>
<path d="M480.757 379.964L480.763 379.967C487.122 383.277 494.487 385.206 500.658 382.207L480.757 379.964ZM480.757 379.964C476.207 377.638 471.938 374.669 467.626 371.601C467.257 371.339 466.888 371.076 466.519 370.813C462.584 368.008 458.59 365.161 454.361 362.758C449.643 360.051 445.269 358.428 441.083 357.71C431.337 355.937 422.417 359.109 411.918 363.305L411.917 363.305C401.191 367.603 391.67 365.814 383.714 360.55C375.715 355.258 369.271 346.427 364.899 336.65L364.899 336.649C361.618 329.322 358.843 321.696 357.426 313.801L357.426 313.8C357.151 312.278 356.847 310.658 356.529 308.958C354.872 300.118 352.815 289.141 352.387 278.811C352.132 272.659 352.459 266.798 353.769 261.801C355.077 256.808 357.345 252.748 360.922 250.083C361.466 249.68 362.237 249.444 363.283 249.405C364.328 249.367 365.575 249.529 366.991 249.854C369.829 250.504 373.155 251.756 376.583 253.08C376.847 253.183 377.112 253.285 377.378 253.388C380.518 254.603 383.708 255.838 386.535 256.613C388.072 257.035 389.542 257.332 390.869 257.411C392.187 257.489 393.445 257.358 394.504 256.848C399.074 254.688 403.354 252.174 407.547 249.711C409.481 248.575 411.397 247.449 413.314 246.375C419.427 242.948 425.652 239.975 432.882 238.522L432.685 237.541L432.882 238.522C442.242 236.64 448.792 228.528 454.862 220.193C455.545 219.255 456.223 218.314 456.898 217.375C459.264 214.086 461.607 210.829 464.095 207.873C467.288 204.079 470.655 200.863 474.486 198.805L474.491 198.802C475.382 198.316 476.789 198.509 478.875 199.656C480.889 200.763 483.197 202.572 485.643 204.643C486.653 205.498 487.697 206.407 488.746 207.321C490.188 208.576 491.638 209.84 493.023 210.982C495.428 212.966 497.801 214.729 499.906 215.675C501.721 216.497 503.607 216.881 505.193 215.854L505.205 215.847L505.216 215.839C516.367 208.189 529.746 210.162 541.479 216.488C545.119 218.462 549.043 221.138 552.545 226.23L552.559 226.25M480.757 379.964L552.559 226.25M552.559 226.25L552.574 226.269M552.559 226.25L552.574 226.269M552.574 226.269C552.611 226.318 552.636 226.359 552.688 226.45L552.693 226.458C552.742 226.543 552.814 226.667 552.919 226.807C557.459 233.693 559.857 242.658 560.413 251.024C560.973 259.437 559.657 267.019 557.005 271.187C554.322 275.405 550.764 277.754 546.944 279.93C546.396 280.242 545.839 280.552 545.278 280.865C541.978 282.703 538.529 284.625 535.606 287.659C533.79 289.451 532.256 291.498 530.895 293.735C527.263 299.592 525.023 306.559 523.394 313.591C522.298 318.321 521.467 323.142 520.683 327.694C520.304 329.89 519.937 332.023 519.555 334.053M552.574 226.269L519.555 334.053M519.555 334.053C519.104 336.369 518.683 338.994 518.232 341.804C517.275 347.768 516.185 354.564 514.387 361.016C511.739 370.521 507.667 378.788 500.659 382.207L519.555 334.053Z" stroke="#0070CC" stroke-width="2" stroke-miterlimit="10"/>
<path d="M481.286 386.554L481.282 386.552C476.34 383.969 471.71 380.712 467.047 377.342C466.57 376.998 466.093 376.652 465.615 376.306C461.435 373.278 457.2 370.211 452.724 367.576L452.719 367.574C447.661 364.634 442.969 362.855 438.412 362.087C427.79 360.272 418.256 363.652 406.823 368.167L406.819 368.168C395.02 372.877 384.589 370.9 375.897 365.131C367.162 359.333 360.153 349.677 355.398 339.032L355.397 339.029C351.803 331.04 348.864 322.685 347.285 314.058C346.973 312.339 346.627 310.503 346.263 308.574C344.446 298.95 342.193 287.015 341.696 275.777C341.397 269.038 341.735 262.613 343.153 257.136C344.57 251.665 347.044 247.212 350.966 244.299C351.579 243.85 352.442 243.595 353.596 243.558C354.751 243.522 356.124 243.709 357.677 244.072C360.788 244.799 364.432 246.186 368.178 247.651C368.479 247.769 368.781 247.887 369.083 248.005C372.506 249.346 375.974 250.704 379.048 251.566C380.724 252.035 382.322 252.369 383.763 252.466C385.195 252.563 386.552 252.432 387.691 251.896L387.697 251.893C392.567 249.556 397.136 246.854 401.614 244.206C403.81 242.908 405.984 241.622 408.162 240.399C414.825 236.655 421.63 233.418 429.559 231.855L429.56 231.855C439.664 229.851 446.729 221.013 453.285 211.886C454.04 210.834 454.789 209.777 455.537 208.723C458.072 205.147 460.585 201.601 463.253 198.379C466.702 194.213 470.343 190.673 474.49 188.399C475.481 187.86 477.032 188.102 479.298 189.384C481.489 190.624 483.999 192.637 486.653 194.935C487.756 195.891 488.895 196.905 490.038 197.923C491.596 199.311 493.162 200.706 494.661 201.972C497.267 204.173 499.831 206.127 502.101 207.191C504.044 208.142 506.143 208.579 507.801 207.411C520.009 199.056 534.581 201.229 547.298 208.165C551.26 210.36 555.498 213.248 559.324 218.768C559.462 219.091 559.664 219.355 559.787 219.515L559.791 219.521C564.763 227.038 567.38 236.836 567.994 245.972C568.611 255.158 567.19 263.449 564.32 267.994L564.319 267.995C561.392 272.642 557.519 275.206 553.366 277.571C552.76 277.916 552.145 278.258 551.526 278.603C547.942 280.598 544.201 282.679 541.01 285.988C539.013 288.016 537.38 290.27 535.898 292.624L535.894 292.631L535.89 292.637C531.978 299.065 529.569 306.675 527.812 314.347C526.654 319.404 525.768 324.552 524.929 329.423C524.499 331.919 524.082 334.342 523.647 336.644C523.184 339.082 522.748 341.841 522.282 344.796C521.244 351.367 520.054 358.905 518.067 366.043C515.182 376.409 510.727 385.457 503.048 389.192L503.047 389.192C496.368 392.45 488.204 390.203 481.286 386.554Z" stroke="#0070CC" stroke-width="2" stroke-miterlimit="10"/>
<path d="M481.807 393.141L481.807 393.141C476.47 390.3 471.486 386.771 466.462 383.144C466.08 382.868 465.697 382.591 465.314 382.314C460.681 378.965 455.988 375.572 450.994 372.671L450.99 372.668C445.513 369.523 440.541 367.674 435.607 366.779L435.601 366.778C424.224 364.786 413.967 368.326 401.62 373.24L401.614 373.242C388.809 378.423 377.498 376.272 368.08 369.994C358.617 363.687 351.037 353.185 345.899 341.673L345.897 341.67C341.958 332.925 338.705 323.902 337.043 314.531L337.043 314.531C336.674 312.452 336.255 310.213 335.812 307.851C333.886 297.567 331.523 284.949 330.964 273.04C330.621 265.725 330.964 258.743 332.484 252.786C334.003 246.832 336.676 241.977 340.941 238.796C341.609 238.299 342.551 238.02 343.808 237.983C345.064 237.946 346.557 238.153 348.244 238.553C351.623 239.354 355.586 240.876 359.657 242.479C359.979 242.606 360.302 242.733 360.625 242.861C364.35 244.331 368.123 245.82 371.462 246.765C373.28 247.279 375.009 247.645 376.564 247.754C378.11 247.862 379.566 247.723 380.781 247.15L380.783 247.149C386.121 244.614 391.122 241.658 396.032 238.756C398.36 237.38 400.666 236.017 402.979 234.716C410.214 230.646 417.612 227.121 426.237 225.449C431.708 224.395 436.326 221.462 440.443 217.576C444.552 213.698 448.209 208.825 451.748 203.825C452.565 202.671 453.374 201.511 454.182 200.354C456.895 196.469 459.588 192.613 462.449 189.109C466.157 184.568 470.082 180.705 474.569 178.229C475.097 177.941 475.771 177.857 476.652 178.038C477.544 178.22 478.587 178.663 479.767 179.346C482.129 180.713 484.839 182.921 487.702 185.435C488.897 186.484 490.128 187.595 491.364 188.711C493.043 190.226 494.731 191.749 496.348 193.135C499.167 195.551 501.93 197.692 504.368 198.871L504.377 198.876L504.387 198.88C506.479 199.84 508.602 200.361 510.418 199.154L510.429 199.146C523.693 190.079 539.411 192.549 553.18 200.003C557.55 202.399 562.157 205.594 566.298 211.531C566.437 211.853 566.638 212.116 566.761 212.276L566.764 212.28C572.144 220.483 574.975 231.097 575.64 240.985C576.309 250.921 574.777 259.902 571.661 264.88C568.517 269.902 564.31 272.689 559.803 275.262C559.151 275.634 558.49 276.003 557.825 276.374C553.931 278.548 549.878 280.811 546.44 284.395L546.432 284.403C544.347 286.628 542.587 289.004 540.995 291.58L540.994 291.583C536.734 298.522 534.128 306.764 532.243 315.077C530.991 320.597 530.046 326.211 529.153 331.514C528.705 334.174 528.27 336.757 527.817 339.209C527.323 341.831 526.86 344.804 526.363 347.993C525.257 355.094 523.984 363.263 521.841 370.995C518.729 382.218 513.892 392.044 505.492 396.071L505.487 396.073C498.14 399.646 489.275 397.123 481.807 393.141Z" stroke="#0070CC" stroke-width="2" stroke-miterlimit="10"/>
<path d="M482.334 399.731L482.33 399.729C476.6 396.631 471.257 392.813 465.855 388.911C465.632 388.75 465.408 388.588 465.184 388.426C460.02 384.694 454.785 380.911 449.165 377.717C443.312 374.257 437.872 372.311 432.663 371.343L432.656 371.342C420.524 369.172 409.565 372.952 396.313 378.263L396.311 378.264C382.511 383.829 370.31 381.485 360.154 374.7C349.954 367.886 341.791 356.565 336.269 344.188C332.09 334.741 328.597 325.018 326.773 314.919L326.773 314.917C326.379 312.751 325.934 310.421 325.465 307.963C323.34 296.842 320.718 283.112 320.077 270.161C319.685 262.261 320.036 254.716 321.663 248.28C323.289 241.848 326.168 236.599 330.778 233.17C331.516 232.627 332.55 232.33 333.916 232.297C335.282 232.265 336.902 232.499 338.727 232.94C342.382 233.824 346.665 235.488 351.056 237.237C351.395 237.372 351.736 237.507 352.076 237.643C356.105 239.25 360.178 240.875 363.781 241.908C365.738 242.47 367.596 242.869 369.264 242.99C370.922 243.111 372.476 242.964 373.767 242.353L373.769 242.353C379.51 239.621 384.873 236.433 390.142 233.3C392.64 231.814 395.116 230.342 397.602 228.936C405.375 224.542 413.347 220.734 422.709 218.94C428.571 217.818 433.518 214.669 437.927 210.485C442.329 206.309 446.243 201.054 450.03 195.654C450.926 194.377 451.815 193.092 452.701 191.811C455.581 187.646 458.44 183.511 461.477 179.748C465.441 174.835 469.641 170.645 474.444 167.954C475.033 167.627 475.775 167.535 476.732 167.731C477.701 167.93 478.829 168.415 480.101 169.16C482.648 170.651 485.565 173.061 488.641 175.8C489.936 176.953 491.27 178.176 492.609 179.402C494.4 181.042 496.198 182.689 497.921 184.189C500.944 186.82 503.901 189.146 506.503 190.422C508.776 191.537 511.032 191.979 512.911 190.763L512.922 190.756L512.934 190.748C527.1 181.027 544.089 183.668 558.846 191.736L558.849 191.737C563.658 194.349 568.625 197.794 573.047 204.303L573.062 204.326L573.079 204.348C573.141 204.43 573.214 204.534 573.302 204.661L573.308 204.67C573.383 204.776 573.47 204.902 573.555 205.015C579.368 213.85 582.421 225.3 583.144 235.96C583.87 246.668 582.233 256.358 578.898 261.714L578.898 261.714C575.511 267.165 570.969 270.174 566.118 272.94C565.412 273.343 564.698 273.741 563.979 274.142C559.792 276.475 555.447 278.897 551.769 282.747L551.763 282.753C549.549 285.109 547.608 287.722 545.912 290.511L545.909 290.516C541.41 298.013 538.654 306.89 536.652 315.837C535.348 321.659 534.352 327.576 533.409 333.178C532.907 336.161 532.42 339.054 531.909 341.797L531.909 341.798C531.403 344.543 530.925 347.65 530.412 350.983C529.226 358.689 527.854 367.601 525.521 376.022C522.173 388.105 516.953 398.711 507.883 403.055C499.99 406.82 490.366 404.118 482.334 399.731Z" stroke="#0070CC" stroke-width="2" stroke-miterlimit="10"/>
<path d="M482.854 406.317L482.853 406.316C476.732 402.963 471.049 398.849 465.326 394.637C464.948 394.359 464.569 394.079 464.19 393.8C458.854 389.869 453.457 385.892 447.678 382.48L447.674 382.478C441.409 378.815 435.655 376.713 430.074 375.694L430.07 375.694C417.108 373.375 405.351 377.34 391.263 383.024L391.262 383.024C376.401 389.039 363.304 386.544 352.42 379.273C341.491 371.972 332.763 359.827 326.845 346.543C322.377 336.504 318.617 326.003 316.633 315.177C316.202 312.81 315.713 310.256 315.196 307.559C312.922 295.688 310.115 281.031 309.409 267.198C308.976 258.716 309.338 250.609 311.074 243.694C312.808 236.782 315.894 231.139 320.852 227.462L320.852 227.462C321.657 226.864 322.78 226.542 324.254 226.509C325.727 226.476 327.471 226.733 329.433 227.214C333.361 228.177 337.965 229.987 342.678 231.885C343.051 232.035 343.424 232.186 343.798 232.337C348.115 234.079 352.475 235.838 356.329 236.961C358.426 237.572 360.414 238.007 362.195 238.143C363.966 238.278 365.618 238.125 366.986 237.477L366.987 237.476C373.094 234.566 378.807 231.172 384.426 227.833C387.14 226.22 389.833 224.62 392.537 223.094C400.884 218.385 409.457 214.306 419.518 212.402L419.519 212.402C425.752 211.219 431.008 207.86 435.693 203.383C440.37 198.914 444.527 193.283 448.553 187.488C449.509 186.111 450.458 184.726 451.404 183.344C454.462 178.878 457.501 174.439 460.731 170.397C464.954 165.111 469.436 160.594 474.575 157.68C475.203 157.33 475.997 157.237 477.022 157.457C478.059 157.679 479.265 158.21 480.623 159.019C483.341 160.637 486.458 163.242 489.743 166.197C491.129 167.443 492.555 168.762 493.986 170.085C495.898 171.854 497.818 173.63 499.661 175.249C502.893 178.092 506.047 180.604 508.816 181.996L508.824 182C511.159 183.145 513.662 183.733 515.621 182.373C530.845 171.945 549.027 174.786 564.771 183.465L564.779 183.469C569.896 186.232 575.201 189.906 579.962 196.901C580.061 197.054 580.153 197.187 580.236 197.305C580.322 197.429 580.398 197.539 580.48 197.665L580.483 197.67C586.704 207.155 590.002 219.448 590.802 230.884C591.605 242.358 589.882 252.747 586.293 258.491L586.292 258.492C582.649 264.333 577.767 267.546 572.568 270.507C571.847 270.918 571.117 271.326 570.383 271.735C565.867 274.254 561.191 276.863 557.25 281.05L557.244 281.057C554.858 283.64 552.788 286.382 550.984 289.387C546.153 297.431 543.201 306.939 541.066 316.517C539.659 322.832 538.596 329.24 537.592 335.297C537.076 338.405 536.576 341.421 536.052 344.284L536.052 344.286C535.526 347.19 535.029 350.478 534.495 354.006C533.243 362.291 531.791 371.898 529.291 380.965C525.719 393.916 520.116 405.3 510.325 409.935L510.322 409.937C501.76 414.016 491.436 411.038 482.854 406.317Z" stroke="#0070CC" stroke-width="2" stroke-miterlimit="10"/>
<path d="M540.172 346.948L540.171 346.952C539.621 350.002 539.1 353.457 538.54 357.166C537.206 366.007 535.654 376.294 532.974 386C529.163 399.802 523.177 411.967 512.715 416.919C503.609 421.188 492.607 418.007 483.375 412.903C476.861 409.293 470.819 404.889 464.737 400.428L464.263 400.08C458.356 395.745 452.398 391.374 445.999 387.728C439.398 383.837 433.332 381.581 427.384 380.513L427.381 380.512C413.696 378.097 401.217 382.22 386.22 388.302C370.324 394.714 356.337 392.025 344.726 384.245C333.069 376.434 323.777 363.463 317.476 349.312L317.476 349.311C312.691 338.601 308.694 327.404 306.625 315.828L306.625 315.827C306.139 313.117 305.579 310.179 304.986 307.068C302.591 294.499 299.659 279.113 298.889 264.572C298.41 255.51 298.776 246.843 300.613 239.447C302.449 232.054 305.733 226.008 311.032 222.062L311.035 222.06C311.896 221.414 313.098 221.07 314.671 221.036C316.243 221.003 318.105 221.282 320.197 221.801C324.385 222.841 329.299 224.788 334.326 226.828C334.718 226.987 335.111 227.146 335.504 227.306C340.116 229.181 344.772 231.075 348.886 232.284C351.122 232.941 353.237 233.409 355.13 233.558C357.014 233.706 358.763 233.544 360.206 232.859L360.208 232.858C366.718 229.752 372.802 226.122 378.788 222.549C381.677 220.826 384.543 219.115 387.424 217.484C396.319 212.446 405.466 208.085 416.225 206.072C422.856 204.84 428.438 201.271 433.409 196.496C438.372 191.728 442.776 185.708 447.042 179.506C448.058 178.028 449.066 176.541 450.072 175.056C453.309 170.28 456.528 165.53 459.952 161.206C464.435 155.544 469.202 150.702 474.682 147.586L474.683 147.585C475.361 147.199 476.213 147.099 477.305 147.336C478.409 147.575 479.69 148.147 481.132 149.018C484.015 150.761 487.323 153.565 490.81 156.745C492.26 158.066 493.749 159.461 495.244 160.862C497.298 162.786 499.363 164.72 501.35 166.487C504.787 169.544 508.141 172.243 511.096 173.746C513.634 175.122 516.19 175.661 518.292 174.269L518.298 174.265L518.304 174.261C534.585 163.123 553.912 166.262 570.704 175.457C576.167 178.453 581.814 182.361 586.918 189.852L586.932 189.874L586.949 189.895C587.077 190.064 587.238 190.311 587.429 190.607L587.431 190.61C594.047 200.742 597.565 213.87 598.424 226.078C599.285 238.324 597.456 249.419 593.612 255.553L593.609 255.557C589.723 261.828 584.525 265.256 578.992 268.408C578.213 268.851 577.425 269.29 576.633 269.732C571.836 272.406 566.871 275.173 562.664 279.629C560.109 282.279 557.935 285.236 556.034 288.442C550.895 296.982 547.767 307.114 545.505 317.33C544.039 323.952 542.925 330.677 541.87 337.042C541.302 340.472 540.751 343.799 540.172 346.948Z" stroke="#0070CC" stroke-width="2" stroke-miterlimit="10"/>
<path d="M545.299 349.614C544.729 352.79 544.184 356.421 543.597 360.337C540.189 383.067 535.335 415.436 515.581 424.705C505.346 429.505 493.255 425.837 483.408 420.362C476.136 416.324 469.425 411.359 462.71 406.393C456.578 401.857 450.443 397.319 443.876 393.482C421.024 380.144 404.328 384.813 381.495 394.094L545.299 349.614ZM545.299 349.614C545.911 346.252 546.489 342.725 547.083 339.098C550.526 318.089 554.521 293.713 568.848 278.538M545.299 349.614L568.848 278.538M381.119 393.167C392.538 388.526 402.552 384.98 412.612 384.308C422.717 383.633 432.801 385.86 444.38 392.619L444.38 392.619C450.995 396.484 457.17 401.051 463.291 405.579C463.587 405.798 463.883 406.017 464.179 406.235C470.608 410.988 477.002 415.661 483.893 419.488L483.894 419.488C493.676 424.927 505.38 428.385 515.156 423.8C526.301 418.571 532.663 405.607 536.705 390.924C539.548 380.596 541.189 369.648 542.596 360.262C543.186 356.325 543.735 352.663 544.315 349.437L544.315 349.435C544.921 346.107 545.495 342.601 546.088 338.986C547.515 330.278 549.046 320.936 551.363 311.937C554.647 299.185 559.549 286.931 568.12 277.853C568.121 277.853 568.121 277.852 568.121 277.852L568.848 278.538M381.119 393.167L577.086 166.233C582.948 169.431 589.103 173.741 594.665 181.895C609.567 203.673 610.384 239.023 601.827 252.785C596.944 260.638 590.188 264.417 583.408 268.21C578.306 271.065 573.19 273.927 568.848 278.538M381.119 393.167C364.204 400.013 349.329 397.132 336.977 388.835C324.58 380.508 314.697 366.697 307.974 351.692L307.061 352.101L307.974 351.692C302.874 340.313 298.61 328.338 296.354 315.957C295.831 313.036 295.224 309.859 294.581 306.488C292.044 293.201 288.935 276.914 288.1 261.509C287.578 251.86 287.953 242.624 289.896 234.743C291.839 226.865 295.328 220.42 300.973 216.227L300.976 216.225C301.896 215.537 303.181 215.177 304.86 215.15C306.536 215.123 308.522 215.43 310.75 215.991C315.211 217.115 320.447 219.204 325.8 221.387C326.196 221.549 326.593 221.711 326.99 221.873C331.924 223.889 336.904 225.924 341.299 227.223C343.677 227.926 345.923 228.426 347.931 228.587C349.928 228.746 351.776 228.576 353.294 227.854L353.296 227.853C360.171 224.568 366.606 220.732 372.943 216.954C376.048 215.102 379.129 213.265 382.228 211.513C391.698 206.16 401.445 201.528 412.903 199.405L381.119 393.167Z" stroke="#0070CC" stroke-width="2" stroke-miterlimit="10"/>
</g>
</svg>
