<svg width="542" height="335" viewBox="0 0 542 335" fill="none" xmlns="http://www.w3.org/2000/svg">
<rect width="542" height="335" fill="#0070CC"/>
<mask id="mask0_53:37" style="mask-type:alpha" maskUnits="userSpaceOnUse" x="269" y="68" width="273" height="267">
<rect x="269" y="68" width="273" height="267" fill="#0070CC"/>
</mask>
<g mask="url(#mask0_53:37)">
<path d="M266 370.401L558.1 71" stroke="url(#paint0_linear_53:37)" stroke-miterlimit="10"/>
<path d="M315.279 356.788C332.709 356.788 346.839 342.658 346.839 325.228C346.839 307.798 332.709 293.668 315.279 293.668C297.849 293.668 283.719 307.798 283.719 325.228C283.719 342.658 297.849 356.788 315.279 356.788Z" stroke="white" stroke-miterlimit="10"/>
<path d="M335.888 344.011C358.022 344.011 375.965 326.068 375.965 303.934C375.965 281.8 358.022 263.857 335.888 263.857C313.754 263.857 295.811 281.8 295.811 303.934C295.811 326.068 313.754 344.011 335.888 344.011Z" stroke="white" stroke-miterlimit="10"/>
<path d="M356.497 331.312C383.377 331.312 405.168 309.521 405.168 282.641C405.168 255.761 383.377 233.97 356.497 233.97C329.617 233.97 307.826 255.761 307.826 282.641C307.826 309.521 329.617 331.312 356.497 331.312Z" stroke="white" stroke-miterlimit="10"/>
<path d="M377.182 318.536C408.766 318.536 434.37 292.932 434.37 261.348C434.37 229.764 408.766 204.16 377.182 204.16C345.598 204.16 319.994 229.764 319.994 261.348C319.994 292.932 345.598 318.536 377.182 318.536Z" stroke="white" stroke-miterlimit="10"/>
<path d="M397.791 305.836C434.121 305.836 463.572 276.384 463.572 240.054C463.572 203.724 434.121 174.273 397.791 174.273C361.461 174.273 332.01 203.724 332.01 240.054C332.01 276.384 361.461 305.836 397.791 305.836Z" stroke="white" stroke-miterlimit="10"/>
<path d="M418.476 293.06C459.51 293.06 492.775 259.795 492.775 218.761C492.775 177.727 459.51 144.462 418.476 144.462C377.442 144.462 344.177 177.727 344.177 218.761C344.177 259.795 377.442 293.06 418.476 293.06Z" stroke="white" stroke-miterlimit="10"/>
<path d="M439.085 280.36C484.865 280.36 521.977 243.248 521.977 197.467C521.977 151.687 484.865 114.575 439.085 114.575C393.305 114.575 356.193 151.687 356.193 197.467C356.193 243.248 393.305 280.36 439.085 280.36Z" stroke="white" stroke-miterlimit="10"/>
<path d="M459.694 267.584C510.178 267.584 551.104 226.658 551.104 176.174C551.104 125.69 510.178 84.7646 459.694 84.7646C409.21 84.7646 368.284 125.69 368.284 176.174C368.284 226.658 409.21 267.584 459.694 267.584Z" stroke="white" stroke-miterlimit="10"/>
</g>
<defs>
<linearGradient id="paint0_linear_53:37" x1="412.05" y1="71" x2="412.05" y2="370.401" gradientUnits="userSpaceOnUse">
<stop stop-color="white"/>
<stop offset="1" stop-color="white" stop-opacity="0"/>
</linearGradient>
</defs>
</svg>
