<svg width="542" height="335" viewBox="0 0 542 335" fill="none" xmlns="http://www.w3.org/2000/svg">
<rect width="542" height="335" fill="#91C2EA"/>
<mask id="mask0_26:33" style="mask-type:alpha" maskUnits="userSpaceOnUse" x="253" y="0" width="289" height="335">
<rect x="253" width="289" height="335" fill="#91C2EA"/>
</mask>
<g mask="url(#mask0_26:33)">
<path d="M331.288 148.182C330.66 145.03 333.124 142.112 336.337 142.205L438.901 145.18C441.23 145.247 443.204 146.914 443.659 149.199L462.924 245.752C463.552 248.904 461.088 251.822 457.875 251.729L355.311 248.754C352.982 248.687 351.008 247.02 350.553 244.735L331.288 148.182Z" fill="url(#paint0_linear_26:33)"/>
<path d="M373.632 186.64C373.003 183.488 375.468 180.57 378.68 180.663L481.244 183.638C483.573 183.705 485.547 185.372 486.003 187.657L505.267 284.21C505.896 287.362 503.431 290.28 500.219 290.187L397.654 287.212C395.325 287.145 393.352 285.478 392.896 283.193L373.632 186.64Z" fill="url(#paint1_linear_26:33)"/>
<path d="M436.762 227.069C436.134 223.918 438.598 221 441.811 221.093L544.375 224.067C546.704 224.135 548.678 225.802 549.133 228.087L568.398 324.64C569.026 327.792 566.562 330.709 563.349 330.616L460.785 327.642C458.456 327.575 456.482 325.907 456.027 323.623L436.762 227.069Z" fill="url(#paint2_linear_26:33)"/>
<path d="M485.386 256.117C484.757 252.966 487.222 250.048 490.434 250.141L592.998 253.115C595.327 253.183 597.301 254.85 597.757 257.135L617.021 353.688C617.65 356.839 615.185 359.757 611.973 359.664L509.408 356.69C507.079 356.622 505.106 354.955 504.65 352.67L485.386 256.117Z" fill="url(#paint3_linear_26:33)"/>
<path d="M286.979 120.313C286.35 117.161 288.815 114.243 292.027 114.336L394.592 117.31C396.921 117.378 398.894 119.045 399.35 121.33L418.614 217.883C419.243 221.035 416.778 223.953 413.566 223.859L311.002 220.885C308.673 220.818 306.699 219.151 306.243 216.866L286.979 120.313Z" fill="url(#paint4_linear_26:33)"/>
<path d="M286 198.5L466 378.5" stroke="url(#paint5_linear_26:33)"/>
<path d="M271 159L451 339" stroke="url(#paint6_linear_26:33)"/>
<path d="M480 121L660 301" stroke="url(#paint7_linear_26:33)"/>
<path d="M439 68L619 248" stroke="url(#paint8_linear_26:33)"/>
<path d="M472 145L652 325" stroke="url(#paint9_linear_26:33)"/>
</g>
<defs>
<linearGradient id="paint0_linear_26:33" x1="383.997" y1="131.262" x2="410.215" y2="262.672" gradientUnits="userSpaceOnUse">
<stop stop-color="white"/>
<stop offset="1" stop-color="white" stop-opacity="0"/>
</linearGradient>
<linearGradient id="paint1_linear_26:33" x1="426.34" y1="169.72" x2="452.559" y2="301.13" gradientUnits="userSpaceOnUse">
<stop stop-color="white"/>
<stop offset="1" stop-color="white" stop-opacity="0"/>
</linearGradient>
<linearGradient id="paint2_linear_26:33" x1="489.471" y1="210.15" x2="515.689" y2="341.56" gradientUnits="userSpaceOnUse">
<stop stop-color="white"/>
<stop offset="1" stop-color="white" stop-opacity="0"/>
</linearGradient>
<linearGradient id="paint3_linear_26:33" x1="538.094" y1="239.198" x2="564.313" y2="370.608" gradientUnits="userSpaceOnUse">
<stop stop-color="white"/>
<stop offset="1" stop-color="white" stop-opacity="0"/>
</linearGradient>
<linearGradient id="paint4_linear_26:33" x1="339.687" y1="103.393" x2="365.906" y2="234.803" gradientUnits="userSpaceOnUse">
<stop stop-color="white"/>
<stop offset="1" stop-color="white" stop-opacity="0"/>
</linearGradient>
<linearGradient id="paint5_linear_26:33" x1="376" y1="198.5" x2="376" y2="378.5" gradientUnits="userSpaceOnUse">
<stop stop-color="white"/>
<stop offset="1" stop-color="white" stop-opacity="0"/>
</linearGradient>
<linearGradient id="paint6_linear_26:33" x1="361" y1="159" x2="361" y2="339" gradientUnits="userSpaceOnUse">
<stop stop-color="white"/>
<stop offset="1" stop-color="white" stop-opacity="0"/>
</linearGradient>
<linearGradient id="paint7_linear_26:33" x1="570" y1="121" x2="570" y2="301" gradientUnits="userSpaceOnUse">
<stop stop-color="white"/>
<stop offset="1" stop-color="white" stop-opacity="0"/>
</linearGradient>
<linearGradient id="paint8_linear_26:33" x1="529" y1="68" x2="529" y2="248" gradientUnits="userSpaceOnUse">
<stop stop-color="white"/>
<stop offset="1" stop-color="white" stop-opacity="0"/>
</linearGradient>
<linearGradient id="paint9_linear_26:33" x1="562" y1="145" x2="562" y2="325" gradientUnits="userSpaceOnUse">
<stop stop-color="white"/>
<stop offset="1" stop-color="white" stop-opacity="0"/>
</linearGradient>
</defs>
</svg>
