<svg width="542" height="335" viewBox="0 0 542 335" fill="none" xmlns="http://www.w3.org/2000/svg">
<rect width="542" height="335" fill="#91C2EA"/>
<mask id="mask0_26:37" style="mask-type:alpha" maskUnits="userSpaceOnUse" x="258" y="0" width="284" height="335">
<rect x="258" width="284" height="335" fill="#91C2EA"/>
</mask>
<g mask="url(#mask0_26:37)">
<path d="M702.994 -0.199219C703.209 28.1885 697.725 56.5762 686.972 82.8133C676.219 109.158 660.197 133.244 640.089 153.46C620.089 173.675 595.895 189.805 569.658 200.773C543.421 211.741 514.925 217.332 486.43 217.44C457.935 217.44 429.44 211.741 403.202 200.773C376.965 189.805 352.771 173.675 332.771 153.46C312.77 133.244 296.641 109.158 285.888 82.8133C275.135 56.4687 269.759 28.081 269.866 -0.199219C270.081 28.1885 275.78 56.3611 286.856 82.4907C297.716 108.62 313.846 132.384 333.954 152.277C353.954 172.17 377.826 188.192 403.955 198.945C429.977 209.698 458.257 215.289 486.43 215.182C514.603 215.182 542.883 209.698 568.905 198.945C595.035 188.192 618.906 172.17 638.907 152.277C658.907 132.384 675.036 108.513 686.004 82.4907C697.08 56.4687 702.779 28.1885 702.994 -0.199219Z" fill="#0070CC"/>
<path d="M690.521 -0.199219C690.736 26.468 685.574 53.3503 675.466 78.082C665.359 102.921 650.197 125.61 631.272 144.643C612.347 163.675 589.658 178.944 564.819 189.267C540.087 199.59 513.205 204.859 486.323 204.966C459.44 204.966 432.666 199.59 407.826 189.267C383.095 178.944 360.298 163.783 341.373 144.643C322.448 125.61 307.394 102.814 297.179 78.082C287.071 53.2428 282.017 26.468 282.125 -0.199219C282.34 26.468 287.716 53.1352 298.147 77.6519C308.469 102.276 323.631 124.75 342.556 143.46C361.481 162.17 383.955 177.224 408.579 187.439C433.096 197.654 459.763 202.816 486.323 202.816C512.882 202.816 539.442 197.654 564.066 187.439C588.69 177.331 611.164 162.17 630.089 143.46C649.014 124.75 664.176 102.169 674.499 77.6519C684.929 53.1352 690.413 26.5755 690.521 -0.199219Z" fill="#0070CC"/>
<path d="M678.155 -0.199219C678.37 24.8551 673.531 50.0169 664.068 73.3507C654.498 96.6846 640.304 117.975 622.562 135.933C604.82 153.89 583.421 168.191 560.195 177.869C536.861 187.547 511.7 192.601 486.43 192.601C461.161 192.601 435.999 187.547 412.665 177.869C389.331 168.191 368.041 153.89 350.298 135.933C332.556 118.083 318.362 96.6846 308.792 73.3507C299.329 50.0169 294.491 24.8551 294.706 -0.199219C294.921 24.8551 299.975 49.9094 309.76 72.9206C319.437 96.0394 333.739 117.115 351.481 134.75C369.223 152.277 390.407 166.471 413.418 176.041C436.537 185.611 461.483 190.45 486.43 190.45C511.377 190.45 536.324 185.611 559.443 176.041C582.561 166.579 603.637 152.385 621.379 134.75C639.122 117.115 653.423 96.0394 663.101 72.9206C672.886 49.9094 677.94 24.9626 678.155 -0.199219Z" fill="#0070CC"/>
<path d="M665.789 -0.199219C666.004 23.2421 661.488 46.791 652.67 68.6195C643.745 90.4479 630.519 110.448 613.852 127.115C597.293 143.89 577.292 157.224 555.464 166.363C533.635 175.503 510.087 180.127 486.43 180.127C462.774 180.127 439.225 175.396 417.396 166.363C395.568 157.331 375.568 143.89 359.008 127.115C342.449 110.341 329.115 90.3403 320.19 68.6195C311.265 46.791 306.856 23.2421 307.071 -0.199219C307.286 23.2421 312.018 46.6835 321.158 68.1893C330.19 89.8027 343.524 109.481 360.191 125.933C376.75 142.384 396.536 155.611 418.149 164.535C439.762 173.46 463.096 177.977 486.43 177.977C509.764 177.977 533.098 173.46 554.711 164.535C576.325 155.611 596.002 142.384 612.669 125.933C629.229 109.481 642.562 89.6952 651.702 68.1893C660.842 46.6835 665.574 23.2421 665.789 -0.199219Z" fill="#0070CC"/>
<path d="M653.423 -0.199219C653.638 21.6292 649.444 43.5651 641.272 63.8882C632.992 84.2112 620.627 102.814 605.142 118.405C589.658 133.997 571.056 146.471 550.84 154.965C530.517 163.46 508.581 167.761 486.538 167.869C464.602 167.869 442.558 163.46 422.235 154.965C401.912 146.471 383.31 134.105 367.933 118.405C352.449 102.814 340.083 84.2112 331.803 63.8882C323.523 43.5651 319.437 21.6292 319.652 -0.199219C319.868 21.6292 324.276 43.4576 332.878 63.458C341.266 83.566 353.739 101.953 369.223 117.223C384.708 132.492 403.095 144.858 423.203 153.137C443.311 161.417 465.032 165.718 486.753 165.611C508.474 165.611 530.195 161.417 550.303 153.137C570.411 144.858 588.798 132.492 604.282 117.223C619.766 101.953 632.132 83.566 640.627 63.458C648.692 43.4576 653.208 21.6292 653.423 -0.199219Z" fill="#0070CC"/>
<path d="M640.949 -0.199219C641.165 20.0163 637.293 40.3393 629.659 59.1569C622.024 77.9745 610.519 95.1792 596.217 109.696C581.916 124.212 564.711 135.718 545.894 143.567C527.076 151.417 506.753 155.396 486.43 155.503C466.107 155.503 445.677 151.417 426.966 143.567C408.149 135.718 390.944 124.212 376.643 109.696C362.341 95.2867 350.943 77.9745 343.201 59.1569C335.567 40.3393 331.803 20.0163 331.911 -0.199219C332.126 20.0163 336.212 40.2318 344.169 58.7268C352.019 77.3293 363.524 94.3189 377.826 108.513C392.127 122.599 409.117 134.105 427.719 141.739C446.322 149.374 466.43 153.352 486.43 153.352C506.538 153.352 526.646 149.481 545.141 141.739C563.744 134.105 580.733 122.707 595.035 108.513C609.336 94.3189 620.842 77.3293 628.691 58.7268C636.648 40.2318 640.842 20.0163 640.949 -0.199219Z" fill="#0070CC"/>
<path d="M628.584 -0.199219C628.799 18.4033 625.25 37.1134 618.261 54.4256C611.271 71.7378 600.734 87.6521 587.508 100.878C574.389 114.212 558.475 124.857 541.163 132.062C523.85 139.266 505.14 143.03 486.43 143.03C467.72 143.03 448.902 139.266 431.698 132.062C414.386 124.857 398.579 114.212 385.353 100.878C372.234 87.5446 361.696 71.7378 354.599 54.4256C347.61 37.1134 344.062 18.4033 344.277 -0.199219C344.492 18.4033 348.255 36.8983 355.567 53.9955C362.772 71.0926 373.309 86.6843 386.536 99.6954C399.654 112.706 415.353 123.137 432.451 130.234C449.548 137.331 468.043 140.879 486.43 140.879C504.925 140.879 523.42 137.331 540.41 130.234C557.507 123.244 573.099 112.706 586.325 99.6954C599.443 86.6843 610.089 71.0926 617.293 53.9955C624.605 36.8983 628.369 18.4033 628.584 -0.199219Z" fill="#0070CC"/>
<path d="M616.218 -0.199219C616.433 16.7904 613.207 33.8875 606.863 49.6943C600.411 65.5011 590.841 80.0175 578.798 92.1683C566.754 104.319 552.345 113.997 536.539 120.664C520.732 127.223 503.635 130.664 486.538 130.664C469.44 130.664 452.343 127.223 436.537 120.664C420.73 114.104 406.213 104.427 394.278 92.1683C382.234 80.0175 372.664 65.5011 366.212 49.6943C359.868 33.8875 356.642 16.7904 356.857 -0.199219C357.073 16.7904 360.513 33.6725 367.18 49.2642C373.739 64.8559 383.417 79.0498 395.46 90.9855C407.504 102.814 421.698 112.384 437.289 118.836C452.881 125.287 469.763 128.513 486.538 128.513C503.42 128.513 520.194 125.287 535.786 118.836C551.378 112.384 565.679 102.814 577.615 90.9855C589.658 79.1573 599.228 64.8559 605.895 49.2642C612.562 33.6725 616.003 16.7904 616.218 -0.199219Z" fill="#0070CC"/>
<path d="M603.852 -0.199219C604.067 15.1775 601.164 30.5541 595.465 44.8555C589.658 59.1569 580.948 72.2754 570.088 83.3509C559.227 94.4265 546.109 103.136 531.807 109.158C517.506 115.18 502.022 118.19 486.538 118.298C471.053 118.298 455.569 115.18 441.268 109.158C426.966 103.244 413.848 94.4265 402.987 83.3509C392.127 72.383 383.417 59.1569 377.611 44.8555C371.804 30.5541 368.901 15.0699 369.223 -0.199219C369.438 15.1775 372.557 30.4466 378.578 44.5329C384.492 58.6192 393.31 71.5227 404.17 82.1681C415.031 92.8135 427.934 101.523 442.02 107.33C456.107 113.137 471.376 116.147 486.538 116.04C501.807 116.04 516.968 113.137 531.055 107.33C545.141 101.523 558.044 92.921 568.905 82.1681C579.765 71.4152 588.475 58.6192 594.497 44.5329C600.411 30.4466 603.529 15.1775 603.852 -0.199219Z" fill="#0070CC"/>
<path d="M591.378 -0.199219C591.594 13.5645 589.013 27.3283 583.851 40.1242C578.69 52.9202 570.948 64.6409 561.163 74.5336C551.485 84.4262 539.657 92.2759 526.861 97.6523C514.065 103.029 500.194 105.717 486.323 105.825C472.451 105.825 458.58 103.029 445.784 97.6523C432.988 92.2759 421.267 84.4262 411.482 74.5336C401.805 64.6409 393.955 52.9202 388.793 40.1242C383.632 27.3283 381.051 13.457 381.266 -0.199219C381.589 27.3283 393.095 54.3181 412.558 73.4583C422.235 83.0284 433.741 90.7705 446.429 95.9319C459.01 101.093 472.666 103.781 486.215 103.781C499.764 103.781 513.42 101.201 526.001 95.9319C538.582 90.7705 550.087 83.0284 559.873 73.4583C579.658 54.3181 591.056 27.3283 591.378 -0.199219Z" fill="#0070CC"/>
<path d="M579.013 -0.199219C579.228 11.9516 576.97 24.1024 572.453 35.3929C567.937 46.6835 561.055 57.1138 552.453 65.8237C543.851 74.5336 533.528 81.5229 522.237 86.2542C510.947 90.9855 498.688 93.4587 486.43 93.4587C474.172 93.4587 461.913 90.9855 450.623 86.2542C439.332 81.5229 428.902 74.6411 420.407 65.8237C411.805 57.1138 405.031 46.6835 400.407 35.3929C395.891 24.1024 393.632 11.844 393.848 -0.199219C394.17 24.1024 404.385 47.8663 421.59 64.6409C430.192 73.0282 440.3 79.8025 451.376 84.4262C462.451 89.05 474.494 91.3081 486.43 91.3081C498.366 91.3081 510.409 89.05 521.485 84.4262C532.56 79.91 542.668 73.0282 551.27 64.6409C568.582 47.8663 578.69 24.1024 579.013 -0.199219Z" fill="#0070CC"/>
<path d="M566.647 -0.199219C566.862 10.3386 564.926 20.8765 561.055 30.6617C557.077 40.4468 551.163 49.4793 543.743 57.0063C536.324 64.6409 527.291 70.555 517.506 74.7486C507.721 78.8347 497.075 80.9853 486.43 80.9853C475.785 80.9853 465.139 78.8347 455.354 74.7486C445.569 70.6625 436.537 64.6409 429.117 57.0063C421.697 49.4793 415.783 40.4468 411.805 30.6617C407.934 20.8765 405.998 10.2311 406.213 -0.199219C406.536 20.769 415.353 41.4146 430.3 55.931C437.719 63.1355 446.537 69.0496 456.107 73.0281C465.677 77.0067 476 78.9422 486.43 78.9422C496.753 78.9422 507.183 77.0067 516.753 73.0281C526.323 69.1571 535.141 63.243 542.56 55.931C557.507 41.4146 566.324 20.8765 566.647 -0.199219Z" fill="#0070CC"/>
<path d="M554.281 -0.199219C554.496 8.7257 552.883 17.6506 549.657 25.9304C546.324 34.2101 541.377 41.8447 535.033 48.2964C528.797 54.7482 521.162 59.8021 512.882 63.3505C504.602 66.7915 495.57 68.6195 486.538 68.6195C477.505 68.6195 468.58 66.7915 460.193 63.3505C451.913 59.9096 444.279 54.7482 438.042 48.2964C431.805 41.8447 426.751 34.2101 423.418 25.9304C420.192 17.6506 418.472 8.61817 418.794 -0.199219C419.117 17.5431 426.644 34.8553 439.225 47.1136C445.461 53.2428 452.881 58.1891 460.946 61.5225C469.01 64.8559 477.72 66.5764 486.538 66.4689C495.247 66.4689 503.957 64.8559 512.13 61.5225C520.194 58.1891 527.614 53.2428 533.85 47.1136C546.431 34.8553 553.851 17.5431 554.281 -0.199219Z" fill="#0070CC"/>
<path d="M541.808 -0.199219C542.023 7.00524 540.732 14.3172 538.044 21.1991C535.356 27.9734 531.27 34.3176 526.108 39.5866C515.893 50.232 501.162 56.2536 486.323 56.2536C471.591 56.2536 456.86 50.1244 446.537 39.5866C441.375 34.3176 437.289 28.0809 434.601 21.1991C431.913 14.4247 430.622 7.11277 430.838 -0.199219C431.268 14.3172 437.397 28.4035 447.612 38.4037C452.773 43.3501 458.795 47.4362 465.354 50.1244C471.914 52.8127 479.011 54.2105 486.215 54.2105C493.312 54.2105 500.409 52.8127 507.076 50.1244C513.635 47.4362 519.657 43.3501 524.818 38.4037C535.356 28.4035 541.485 14.3172 541.808 -0.199219Z" fill="#0070CC"/>
<path d="M529.442 -0.199219C529.657 5.3923 528.689 11.0913 526.646 16.4678C524.603 21.7367 521.485 26.6831 517.399 30.7692C513.42 34.8553 508.581 38.1887 503.205 40.4468C497.936 42.7049 492.129 43.7802 486.323 43.8877C480.516 43.8877 474.817 42.7049 469.44 40.4468C464.172 38.1887 459.333 34.9628 455.247 30.7692C451.268 26.6831 448.15 21.7367 445.999 16.4678C443.956 11.1989 442.988 5.49983 443.203 -0.199219C443.634 11.0913 448.472 21.9518 456.429 29.5864C464.387 37.3285 475.247 41.7372 486.215 41.7372C497.183 41.7372 508.151 37.3285 516.001 29.5864C524.173 21.9518 529.119 11.0913 529.442 -0.199219Z" fill="#0070CC"/>
<path d="M517.076 -0.199219C517.291 3.77936 516.646 7.86547 515.248 11.7365C513.85 15.5 511.592 19.0485 508.689 22.0593C505.893 25.0701 502.344 27.4358 498.581 29.0487C494.817 30.6617 490.624 31.5219 486.538 31.5219C482.344 31.5219 478.258 30.6617 474.494 29.0487C470.731 27.4358 467.182 25.0701 464.387 22.0593C461.483 19.0485 459.333 15.6076 457.827 11.7365C456.429 7.86547 455.784 3.88689 455.999 -0.199219C456.429 7.86547 459.978 15.3925 465.569 20.8765C471.161 26.2529 478.903 29.3713 486.645 29.3713C494.387 29.3713 502.022 26.2529 507.721 20.8765C513.097 15.5 516.646 7.86547 517.076 -0.199219Z" fill="#0070CC"/>
<path d="M504.71 -0.199219C505.14 4.53206 503.42 9.58594 499.979 13.2419C498.258 15.0699 496.215 16.4678 493.85 17.5431C491.592 18.5109 489.011 19.0485 486.538 19.0485C484.064 19.0485 481.484 18.5109 479.226 17.5431C476.968 16.5753 474.817 15.0699 473.096 13.2419C469.656 9.58594 467.935 4.53206 468.365 -0.199219C468.795 4.53206 470.946 8.94075 474.279 12.0591C477.613 15.1774 482.021 16.8979 486.538 16.8979C491.054 16.8979 495.463 15.1774 498.796 12.0591C502.129 8.94075 504.28 4.53206 504.71 -0.199219Z" fill="#0070CC"/>
<path d="M269.006 345.4C268.791 317.012 274.275 288.624 285.028 262.387C295.781 236.043 311.803 211.956 331.911 191.741C351.911 171.525 376.105 155.396 402.342 144.428C428.579 133.46 457.075 127.868 485.57 127.761C514.065 127.761 542.56 133.46 568.797 144.428C595.034 155.396 619.229 171.525 639.229 191.741C659.229 211.956 675.359 236.043 686.112 262.387C696.865 288.732 702.241 317.12 702.134 345.4C701.918 317.012 696.22 288.839 685.144 262.71C674.284 236.58 658.154 212.816 638.046 192.923C618.046 173.031 594.174 157.009 568.045 146.256C542.023 135.503 513.742 129.911 485.57 130.019C457.397 130.019 429.117 135.503 403.095 146.256C376.965 157.009 353.094 173.031 333.093 192.923C313.093 212.816 296.964 236.688 285.996 262.71C274.92 288.839 269.221 317.012 269.006 345.4Z" fill="white"/>
<path d="M281.372 345.4C281.157 318.733 286.318 291.851 296.426 267.119C306.534 242.28 321.695 219.591 340.62 200.558C359.546 181.526 382.234 166.256 407.073 155.934C431.805 145.611 458.687 140.342 485.57 140.234C512.452 140.234 539.227 145.611 564.066 155.934C588.798 166.256 611.594 181.418 630.519 200.558C649.444 219.591 664.498 242.387 674.714 267.119C684.821 291.958 689.875 318.733 689.768 345.4C689.553 318.733 684.176 292.066 673.746 267.549C663.423 242.925 648.261 220.451 629.336 201.741C610.411 183.031 587.938 167.977 563.313 157.762C538.797 147.546 512.129 142.385 485.57 142.385C459.01 142.385 432.45 147.546 407.826 157.762C383.202 167.869 360.728 183.031 341.803 201.741C322.878 220.451 307.716 243.032 297.394 267.549C286.963 292.066 281.587 318.625 281.372 345.4Z" fill="white"/>
<path d="M293.845 345.4C293.63 320.346 298.469 295.184 307.932 271.85C317.502 248.516 331.696 227.225 349.438 209.268C367.18 191.311 388.578 177.009 411.805 167.332C435.139 157.654 460.3 152.6 485.57 152.6C510.839 152.6 536.001 157.654 559.335 167.332C582.669 177.009 603.959 191.311 621.702 209.268C639.444 227.118 653.638 248.516 663.208 271.85C672.671 295.184 677.509 320.346 677.294 345.4C677.079 320.346 672.025 295.291 662.24 272.28C652.563 249.161 638.261 228.086 620.519 210.451C602.777 192.924 581.593 178.73 558.582 169.16C535.463 159.589 510.517 154.751 485.57 154.751C460.623 154.751 435.676 159.589 412.558 169.16C389.439 178.622 368.363 192.816 350.621 210.451C332.878 228.086 318.577 249.161 308.899 272.28C299.114 295.291 293.953 320.346 293.845 345.4Z" fill="white"/>
<path d="M306.211 345.4C305.996 321.959 310.512 298.41 319.33 276.581C328.254 254.753 341.481 234.753 358.148 218.086C374.707 201.311 394.708 187.977 416.536 178.837C438.364 169.697 461.913 165.074 485.57 165.074C509.226 165.074 532.775 169.805 554.603 178.837C576.432 187.87 596.432 201.311 612.992 218.086C629.551 234.86 642.885 254.861 651.81 276.581C660.735 298.41 665.143 321.959 664.928 345.4C664.713 321.959 659.982 298.517 650.842 277.012C641.81 255.398 628.476 235.72 611.809 219.268C595.249 202.816 575.464 189.59 553.851 180.665C532.237 171.741 508.903 167.224 485.57 167.224C462.236 167.224 438.902 171.741 417.289 180.665C395.675 189.59 375.998 202.816 359.331 219.268C342.771 235.72 329.437 255.506 320.297 277.012C311.157 298.517 306.319 321.959 306.211 345.4Z" fill="white"/>
<path d="M318.577 345.4C318.362 323.572 322.555 301.636 330.728 281.313C339.007 260.99 351.373 242.387 366.858 226.795C382.342 211.204 400.944 198.73 421.16 190.236C441.483 181.741 463.419 177.44 485.462 177.332C507.398 177.332 529.442 181.741 549.765 190.236C570.088 198.73 588.69 211.096 604.067 226.795C619.551 242.387 631.917 260.99 640.197 281.313C648.476 301.636 652.563 323.572 652.348 345.4C652.133 323.572 647.724 301.743 639.121 281.743C630.734 261.635 618.261 243.247 602.776 227.978C587.292 212.709 568.905 200.343 548.797 192.064C528.689 183.784 506.968 179.483 485.247 179.59C463.526 179.59 441.805 183.784 421.697 192.064C401.59 200.343 383.202 212.709 367.718 227.978C352.234 243.247 339.868 261.635 331.373 281.743C323.201 301.743 318.792 323.572 318.577 345.4Z" fill="white"/>
<path d="M330.943 345.4C330.728 325.185 334.599 304.862 342.233 286.044C349.868 267.226 361.373 250.022 375.675 235.505C389.976 220.989 407.181 209.483 425.999 201.633C444.816 193.784 465.139 189.805 485.462 189.698C505.785 189.698 526.216 193.784 544.926 201.633C563.743 209.483 580.948 220.989 595.249 235.505C609.551 249.914 620.949 267.226 628.691 286.044C636.326 304.862 640.089 325.185 639.982 345.4C639.767 325.185 635.68 304.969 627.723 286.474C619.874 267.871 608.368 250.882 594.067 236.688C579.765 222.602 562.776 211.096 544.173 203.462C525.57 195.827 505.463 191.848 485.462 191.848C465.354 191.848 445.246 195.719 426.751 203.462C408.149 211.096 391.159 222.494 376.858 236.688C362.556 250.882 351.051 267.871 343.201 286.474C335.351 304.969 331.158 325.185 330.943 345.4Z" fill="white"/>
<path d="M343.309 345.4C343.094 326.798 346.642 308.088 353.631 290.775C360.621 273.463 371.159 257.549 384.385 244.323C397.503 230.989 413.418 220.344 430.73 213.139C448.042 205.935 466.752 202.171 485.462 202.171C504.172 202.171 522.99 205.935 540.195 213.139C557.507 220.344 573.314 230.989 586.54 244.323C599.658 257.656 610.196 273.463 617.293 290.775C624.282 308.088 627.831 326.798 627.616 345.4C627.401 326.798 623.637 308.303 616.325 291.206C609.121 274.108 598.583 258.517 585.357 245.506C572.238 232.495 556.539 222.064 539.442 214.967C522.345 207.87 503.85 204.322 485.462 204.322C466.967 204.322 448.472 207.87 431.483 214.967C414.386 221.957 398.794 232.495 385.568 245.506C372.449 258.517 361.804 274.108 354.599 291.206C347.395 308.303 343.631 326.798 343.309 345.4Z" fill="white"/>
<path d="M355.782 345.4C355.567 328.411 358.793 311.313 365.137 295.507C371.589 279.7 381.159 265.183 393.202 253.033C405.245 240.882 419.654 231.204 435.461 224.537C451.268 217.978 468.365 214.537 485.462 214.537C502.559 214.537 519.656 217.978 535.463 224.537C551.27 231.097 565.787 240.774 577.722 253.033C589.766 265.183 599.336 279.7 605.787 295.507C612.132 311.313 615.357 328.411 615.142 345.4C614.927 328.411 611.486 311.528 604.82 295.937C598.26 280.345 588.583 266.151 576.539 254.215C564.496 242.387 550.302 232.817 534.711 226.365C519.119 219.914 502.237 216.688 485.462 216.688C468.58 216.688 451.806 219.914 436.214 226.365C420.622 232.817 406.321 242.387 394.385 254.215C382.342 266.044 372.772 280.345 366.105 295.937C359.438 311.528 355.997 328.411 355.782 345.4Z" fill="white"/>
<path d="M368.148 345.4C367.933 330.023 370.836 314.647 376.535 300.345C382.342 286.044 391.052 272.925 401.912 261.85C412.772 250.774 425.891 242.064 440.192 236.043C454.494 230.021 469.978 227.01 485.462 226.903C500.946 226.903 516.431 230.021 530.732 236.043C545.033 241.957 558.152 250.774 569.012 261.85C579.873 272.818 588.583 286.044 594.389 300.345C600.196 314.647 603.099 330.131 602.776 345.4C602.561 330.023 599.443 314.754 593.421 300.668C587.507 286.582 578.69 273.678 567.829 263.033C556.969 252.387 544.066 243.677 529.979 237.871C515.893 232.064 500.624 229.053 485.462 229.161C470.193 229.161 455.031 232.064 440.945 237.871C426.859 243.677 413.955 252.28 403.095 263.033C392.234 273.786 383.524 286.582 377.503 300.668C371.481 314.754 368.363 330.023 368.148 345.4Z" fill="white"/>
<path d="M380.514 345.4C380.299 331.636 382.879 317.872 388.041 305.076C393.202 292.28 400.944 280.56 410.729 270.667C420.407 260.774 432.235 252.925 445.031 247.548C457.827 242.172 471.698 239.484 485.57 239.376C499.441 239.376 513.312 242.172 526.108 247.548C538.904 252.925 550.625 260.774 560.41 270.667C570.088 280.56 577.937 292.28 583.099 305.076C588.26 317.872 590.841 331.744 590.626 345.4C590.303 317.872 578.798 290.882 559.335 271.742C549.657 262.172 538.152 254.43 525.463 249.269C512.882 244.107 499.226 241.419 485.677 241.419C472.129 241.419 458.472 244 445.891 249.269C433.311 254.43 421.805 262.172 412.02 271.742C392.342 290.882 380.836 317.872 380.514 345.4Z" fill="white"/>
<path d="M392.88 345.4C392.665 333.249 394.923 321.098 399.439 309.807C403.955 298.517 410.837 288.087 419.439 279.377C428.042 270.667 438.364 263.677 449.655 258.946C460.946 254.215 473.204 251.742 485.462 251.742C497.721 251.742 509.979 254.215 521.269 258.946C532.56 263.677 542.99 270.559 551.485 279.377C560.087 288.087 566.862 298.517 571.486 309.807C576.002 321.098 578.26 333.356 578.045 345.4C577.722 321.098 567.507 297.334 550.302 280.56C541.7 272.172 531.592 265.398 520.517 260.774C509.441 256.15 497.398 253.892 485.462 253.892C473.526 253.892 461.483 256.15 450.408 260.774C439.332 265.29 429.224 272.172 420.622 280.56C403.417 297.334 393.31 321.098 392.88 345.4Z" fill="white"/>
<path d="M405.353 345.4C405.138 334.862 407.073 324.324 410.945 314.539C414.923 304.754 420.837 295.721 428.257 288.194C435.676 280.56 444.709 274.646 454.494 270.452C464.279 266.366 474.924 264.215 485.57 264.215C496.215 264.215 506.86 266.366 516.646 270.452C526.431 274.538 535.463 280.56 542.883 288.194C550.302 295.721 556.216 304.754 560.195 314.539C564.066 324.324 566.002 334.97 565.787 345.4C565.464 324.432 556.647 303.786 541.7 289.27C534.28 282.065 525.463 276.151 515.893 272.172C506.323 268.194 496 266.258 485.57 266.258C475.247 266.258 464.817 268.194 455.247 272.172C445.676 276.044 436.859 281.958 429.44 289.27C414.493 303.786 405.676 324.432 405.353 345.4Z" fill="white"/>
<path d="M417.719 345.4C417.504 336.475 419.117 327.55 422.343 319.27C425.676 310.99 430.622 303.356 436.967 296.904C443.203 290.452 450.838 285.398 459.118 281.85C467.397 278.409 476.43 276.581 485.462 276.581C494.495 276.581 503.42 278.409 511.807 281.85C520.087 285.291 527.721 290.452 533.958 296.904C540.194 303.356 545.248 310.99 548.582 319.27C551.808 327.55 553.528 336.582 553.206 345.4C552.883 327.657 545.356 310.345 532.775 298.087C526.538 291.958 519.119 287.011 511.054 283.678C502.989 280.345 494.28 278.624 485.462 278.732C476.752 278.732 468.043 280.345 459.87 283.678C451.806 287.011 444.386 291.958 438.149 298.087C425.568 310.345 418.041 327.657 417.719 345.4Z" fill="white"/>
<path d="M430.085 345.4C429.87 338.196 431.16 330.884 433.848 324.002C436.536 317.227 440.622 310.883 445.784 305.614C455.999 294.969 470.731 288.947 485.57 288.947C500.301 288.947 515.033 295.076 525.355 305.614C530.517 310.883 534.603 317.12 537.291 324.002C539.98 330.776 541.27 338.088 541.055 345.4C540.625 330.884 534.495 316.797 524.28 306.797C519.119 301.851 513.097 297.765 506.538 295.076C499.979 292.388 492.882 290.99 485.677 290.99C478.58 290.99 471.483 292.388 464.817 295.076C458.257 297.765 452.236 301.851 447.074 306.797C436.644 316.797 430.515 330.884 430.085 345.4Z" fill="white"/>
<path d="M442.451 345.4C442.235 339.808 443.203 334.109 445.246 328.733C447.289 323.464 450.408 318.518 454.494 314.432C458.472 310.345 463.311 307.012 468.688 304.754C473.957 302.496 479.763 301.421 485.57 301.313C491.376 301.313 497.075 302.496 502.452 304.754C507.721 307.012 512.56 310.238 516.646 314.432C520.624 318.518 523.743 323.464 525.893 328.733C527.936 334.002 528.904 339.701 528.689 345.4C528.259 334.109 523.42 323.249 515.463 315.614C507.506 307.872 496.645 303.464 485.677 303.464C474.709 303.464 463.741 307.872 455.892 315.614C447.719 323.249 442.881 334.109 442.451 345.4Z" fill="white"/>
<path d="M454.924 345.4C454.709 341.421 455.354 337.335 456.752 333.464C458.15 329.701 460.408 326.152 463.311 323.141C466.107 320.13 469.655 317.765 473.419 316.152C477.182 314.539 481.376 313.679 485.462 313.679C489.656 313.679 493.742 314.539 497.505 316.152C501.269 317.765 504.817 320.13 507.613 323.141C510.516 326.152 512.667 329.593 514.173 333.464C515.57 337.335 516.216 341.314 516 345.4C515.57 337.335 512.022 329.808 506.43 324.324C500.839 318.948 493.097 315.829 485.355 315.829C477.613 315.829 469.978 318.948 464.279 324.324C458.795 329.808 455.246 337.335 454.924 345.4Z" fill="white"/>
<path d="M467.29 345.4C466.86 340.669 468.58 335.615 472.021 331.959C473.741 330.131 475.785 328.733 478.15 327.658C480.408 326.69 482.989 326.152 485.462 326.152C487.935 326.152 490.516 326.69 492.774 327.658C495.032 328.626 497.183 330.131 498.903 331.959C502.344 335.615 504.065 340.669 503.635 345.4C503.204 340.669 501.054 336.26 497.72 333.142C494.387 330.023 489.978 328.303 485.462 328.303C480.946 328.303 476.537 330.023 473.204 333.142C469.87 336.26 467.72 340.669 467.29 345.4Z" fill="white"/>
</g>
</svg>
