<svg width="48" height="48" viewBox="0 0 48 48" fill="none" xmlns="http://www.w3.org/2000/svg">
<rect x="12.85" y="9.85" width="31.3" height="34.3" rx="3.15" fill="white" stroke="black" stroke-width="1.7"/>
<path d="M20.7619 23.176L16.8887 27.2686C16.5238 27.6542 16.5238 28.2577 16.8887 28.6433L20.7619 32.7359" stroke="#ED1C24" stroke-width="2" stroke-linecap="round" stroke-linejoin="round"/>
<path d="M35.2381 32.7358L39.1113 28.6433C39.4762 28.2577 39.4762 27.6541 39.1113 27.2685L35.2381 23.176" stroke="#ED1C24" stroke-width="2" stroke-linecap="round" stroke-linejoin="round"/>
<circle cx="23.5" cy="27.5" r="1.5" fill="#ED1C24"/>
<circle cx="28.5" cy="27.5" r="1.5" fill="#ED1C24"/>
<circle cx="32.5" cy="27.5" r="1.5" fill="#ED1C24"/>
<rect x="4.85" y="3.85" width="21.3" height="15.3" rx="3.15" fill="white" stroke="black" stroke-width="1.7"/>
<path d="M25.822 11.6276C25.7272 11.5689 25.7272 11.4311 25.822 11.3724L33.4211 6.6717C33.521 6.60988 33.65 6.68176 33.65 6.79926L33.65 16.2007C33.65 16.3182 33.521 16.3901 33.4211 16.3283L25.822 11.6276Z" fill="white" stroke="black" stroke-width="1.7"/>
</svg>
