<svg width="48" height="48" viewBox="0 0 48 48" fill="none" xmlns="http://www.w3.org/2000/svg">
<path d="M3.57312 19.8652C3.57312 19.1463 3.93242 18.475 4.5306 18.0762L22.8071 5.89182C23.5294 5.41033 24.4703 5.41033 25.1925 5.89182L43.4691 18.0762C44.0672 18.475 44.4265 19.1463 44.4265 19.8652V42.3665C44.4265 43.554 43.4639 44.5167 42.2764 44.5167H5.7233C4.53579 44.5167 3.57312 43.554 3.57312 42.3665V19.8652Z" fill="white"/>
<path fill-rule="evenodd" clip-rule="evenodd" d="M43.3515 42.3665V19.8652C43.3515 19.5058 43.1718 19.1701 42.8727 18.9707L24.5962 6.78635C24.2351 6.5456 23.7646 6.5456 23.4035 6.78635L5.12695 18.9707C4.82786 19.1701 4.64821 19.5058 4.64821 19.8652V42.3665C4.64821 42.9602 5.12954 43.4416 5.7233 43.4416H42.2764C42.8701 43.4416 43.3515 42.9602 43.3515 42.3665ZM4.5306 18.0762C3.93242 18.475 3.57312 19.1463 3.57312 19.8652V42.3665C3.57312 43.554 4.53579 44.5167 5.7233 44.5167H42.2764C43.4639 44.5167 44.4265 43.554 44.4265 42.3665V19.8652C44.4265 19.1463 44.0672 18.475 43.4691 18.0762L25.1925 5.89182C24.4703 5.41033 23.5294 5.41033 22.8071 5.89182L4.5306 18.0762Z" fill="black"/>
<path fill-rule="evenodd" clip-rule="evenodd" d="M25.0716 6.07327C24.4227 5.64065 23.5773 5.64065 22.9284 6.07327L4.65182 18.2576C4.11436 18.6159 3.79154 19.2191 3.79154 19.8651V42.3663C3.79154 43.4333 4.65648 44.2982 5.72344 44.2982H42.2765C43.3435 44.2982 44.2084 43.4333 44.2084 42.3663V19.8651C44.2084 19.2191 43.8856 18.6159 43.3481 18.2576L25.0716 6.07327ZM22.6862 5.71003C23.4818 5.17965 24.5182 5.17965 25.3138 5.71003L43.5903 17.8944C44.2492 18.3337 44.645 19.0732 44.645 19.8651V42.3663C44.645 43.6744 43.5846 44.7348 42.2765 44.7348H5.72344C4.41538 44.7348 3.35498 43.6744 3.35498 42.3663V19.8651C3.35498 19.0732 3.75075 18.3337 4.40966 17.8944L22.6862 5.71003ZM24.4753 6.9678C24.1875 6.77593 23.8125 6.77593 23.5247 6.9678L5.24817 19.1522C5.00981 19.3111 4.86663 19.5786 4.86663 19.8651V42.3663C4.86663 42.8395 5.25024 43.2231 5.72344 43.2231H42.2765C42.7497 43.2231 43.1333 42.8395 43.1333 42.3663V19.8651C43.1333 19.5786 42.9902 19.3111 42.7518 19.1522L24.4753 6.9678ZM23.2825 6.60456C23.717 6.31493 24.283 6.31493 24.7174 6.60456L42.9939 18.7889C43.3538 19.0288 43.5699 19.4326 43.5699 19.8651V42.3663C43.5699 43.0806 42.9908 43.6597 42.2765 43.6597H5.72344C5.00913 43.6597 4.43007 43.0806 4.43007 42.3663V19.8651C4.43007 19.4326 4.6462 19.0288 5.00601 18.7889L23.2825 6.60456Z" fill="black"/>
<path d="M9.30701 8.32161V24.448V35.9156C9.30701 37.301 10.4301 38.4241 11.8156 38.4241H34.7508C37.1258 38.4241 39.0512 36.4988 39.0512 34.1238V24.448V8.32161C39.0512 5.94659 37.1258 4.02125 34.7508 4.02125H13.6074C11.2323 4.02125 9.30701 5.94658 9.30701 8.32161Z" fill="white" stroke="black" stroke-width="0.5"/>
<path fill-rule="evenodd" clip-rule="evenodd" d="M13.6074 4.55906C11.5293 4.55906 9.84462 6.24373 9.84462 8.32187V35.9158C9.84462 37.0044 10.7271 37.8868 11.8156 37.8868H34.7509C36.829 37.8868 38.5137 36.2022 38.5137 34.124V8.32187C38.5137 6.24373 36.829 4.55906 34.7509 4.55906H13.6074ZM8.76953 8.32187C8.76953 5.64997 10.9355 3.48397 13.6074 3.48397H34.7509C37.4228 3.48397 39.5888 5.64997 39.5888 8.32187V34.124C39.5888 36.7959 37.4228 38.9619 34.7509 38.9619H11.8156C10.1333 38.9619 8.76953 37.5982 8.76953 35.9158V8.32187Z" fill="black"/>
<path fill-rule="evenodd" clip-rule="evenodd" d="M8.55121 8.32169C8.55121 5.52923 10.8149 3.2655 13.6074 3.2655H34.7508C37.5433 3.2655 39.807 5.52924 39.807 8.32169V34.1239C39.807 36.9163 37.5433 39.18 34.7508 39.18H11.8156C10.0127 39.18 8.55121 37.7185 8.55121 35.9157V8.32169ZM13.6074 3.70206C11.056 3.70206 8.98777 5.77034 8.98777 8.32169V35.9157C8.98777 37.4774 10.2538 38.7435 11.8156 38.7435H34.7508C37.3022 38.7435 39.3705 36.6752 39.3705 34.1239V8.32169C39.3705 5.77034 37.3022 3.70206 34.7508 3.70206H13.6074ZM13.6074 4.77716C11.6498 4.77716 10.0629 6.3641 10.0629 8.32169V35.9157C10.0629 36.8837 10.8476 37.6684 11.8156 37.6684H34.7508C36.7084 37.6684 38.2954 36.0815 38.2954 34.1239V8.32169C38.2954 6.3641 36.7084 4.77716 34.7508 4.77716H13.6074ZM9.6263 8.32169C9.6263 6.12299 11.4087 4.34059 13.6074 4.34059H34.7508C36.9495 4.34059 38.7319 6.12299 38.7319 8.32169V34.1239C38.7319 36.3226 36.9495 38.105 34.7508 38.105H11.8156C10.6065 38.105 9.6263 37.1248 9.6263 35.9157V8.32169Z" fill="black"/>
<path d="M30.8089 32.3322L43.71 23.7315V41.5529C43.71 42.1606 43.0012 42.4925 42.5344 42.1035L30.8089 32.3322Z" fill="white" stroke="black" stroke-width="0.5"/>
<path fill-rule="evenodd" clip-rule="evenodd" d="M44.2477 22.727L29.9119 32.2842L42.1904 42.5164C43.0074 43.1972 44.2477 42.6162 44.2477 41.5528V22.727ZM43.1726 24.7359V41.5528C43.1726 41.7047 42.9954 41.7877 42.8787 41.6905L31.7062 32.3801L43.1726 24.7359Z" fill="black"/>
<path fill-rule="evenodd" clip-rule="evenodd" d="M44.4658 22.3192L29.5474 32.2648L42.0506 42.6841C43.0097 43.4833 44.4658 42.8013 44.4658 41.5528V22.3192ZM44.0293 23.1349V41.5528C44.0293 42.4312 43.0048 42.911 42.33 42.3487L30.276 32.3037L44.0293 23.1349ZM43.3907 24.328L31.3418 32.3606L42.5711 41.7184L42.3667 41.9637L42.7021 42.2432L42.9476 41.9486C43.1681 41.9735 43.3907 41.8065 43.3907 41.5528V24.328ZM42.9542 25.1437V41.4694L32.0704 32.3996L42.9542 25.1437Z" fill="black"/>
<path d="M21.4102 28.9183L5.09207 42.5326C4.5775 42.9619 4.88108 43.7997 5.55123 43.7997H42.477C43.1439 43.7997 43.4493 42.9688 42.9412 42.5369L26.9503 28.9438C25.3558 27.5884 23.0171 27.5776 21.4102 28.9183Z" fill="white" stroke="black" stroke-width="0.5"/>
<path fill-rule="evenodd" clip-rule="evenodd" d="M26.602 29.3533C25.2068 28.1673 23.1604 28.1579 21.7543 29.331L5.43624 42.9453C5.30759 43.0526 5.38349 43.2621 5.55102 43.2621H42.4768C42.6435 43.2621 42.7199 43.0543 42.5929 42.9464L26.602 29.3533ZM21.0656 28.5055C22.8734 26.9972 25.5044 27.0093 27.2983 28.5342L43.2892 42.1272C44.1783 42.8831 43.6438 44.3371 42.4768 44.3371H5.55102C4.37827 44.3371 3.847 42.8711 4.7475 42.1198L21.0656 28.5055Z" fill="black"/>
<path fill-rule="evenodd" clip-rule="evenodd" d="M20.9259 28.3378C22.8152 26.7615 25.565 26.7741 27.4397 28.3678L43.4306 41.9608C44.4746 42.8482 43.847 44.5554 42.4769 44.5554H5.55111C4.17426 44.5554 3.55053 42.8342 4.60776 41.9521L20.9259 28.3378ZM27.157 28.7004C25.4441 27.2444 22.9317 27.2328 21.2055 28.673L4.88743 42.2873C4.14364 42.9079 4.58245 44.1188 5.55111 44.1188H42.4769C43.4408 44.1188 43.8823 42.9178 43.1479 42.2935L27.157 28.7004ZM26.4607 29.5195C25.1464 28.4024 23.2187 28.3935 21.8943 29.4985L5.65901 43.0437H42.3705L26.4607 29.5195ZM21.6146 29.1633C23.1022 27.9222 25.2673 27.9321 26.7434 29.1869L42.7343 42.78C43.0161 43.0195 42.8467 43.4803 42.4769 43.4803H5.55111C5.17948 43.4803 5.01113 43.0157 5.29649 42.7776L21.6146 29.1633Z" fill="black"/>
<path d="M17.1911 32.3322L4.28998 23.7315V41.5529C4.28998 42.1606 4.99872 42.4925 5.46554 42.1035L17.1911 32.3322Z" fill="white" stroke="black" stroke-width="0.5"/>
<path fill-rule="evenodd" clip-rule="evenodd" d="M3.75232 22.727L18.0881 32.2842L5.80956 42.5164C4.99262 43.1972 3.75232 42.6162 3.75232 41.5528V22.727ZM4.82741 24.7359V41.5528C4.82741 41.7047 5.00459 41.7877 5.1213 41.6905L16.2938 32.3801L4.82741 24.7359Z" fill="black"/>
<path fill-rule="evenodd" clip-rule="evenodd" d="M3.53418 22.3192L18.4526 32.2648L5.94944 42.6841C4.99033 43.4833 3.53418 42.8013 3.53418 41.5528V22.3192ZM3.97074 23.1349V41.5528C3.97074 42.4312 4.99519 42.911 5.66996 42.3487L17.724 32.3037L3.97074 23.1349ZM4.60927 24.328L16.6582 32.3606L5.42887 41.7184L5.63326 41.9637L5.29788 42.2432L5.05241 41.9486C4.8319 41.9735 4.60927 41.8065 4.60927 41.5528V24.328ZM5.04583 25.1437V41.4694L15.9296 32.3996L5.04583 25.1437Z" fill="black"/>
<path d="M24.2252 12.8807C23.4614 12.8807 22.8219 13.2103 22.3068 13.8696C21.7857 14.5228 21.5252 15.3333 21.5252 16.301C21.5252 17.2929 21.7769 18.1004 22.2801 18.7234C22.7775 19.3464 23.4258 19.6578 24.2252 19.6578C24.9771 19.6578 25.5781 19.3403 26.0281 18.7052C26.484 18.0702 26.7119 17.2294 26.7119 16.1831C26.7119 15.167 26.4899 14.3625 26.0458 13.7698C25.6018 13.1771 24.9949 12.8807 24.2252 12.8807ZM24.4561 8.68012C26.5402 8.68012 28.2395 9.31822 29.554 10.5944C30.8684 11.8767 31.5256 13.5309 31.5256 15.5571C31.5256 16.9966 31.2918 18.1125 30.824 18.9048C30.3563 19.6972 29.699 20.0933 28.8523 20.0933C28.2425 20.0933 27.7481 19.9209 27.3692 19.5762C26.9843 19.2314 26.7682 18.7566 26.7208 18.1518H26.6853C26.2057 19.428 25.3827 20.0661 24.2163 20.0661C23.2985 20.0661 22.5495 19.7153 21.9693 19.0137C21.389 18.3121 21.0989 17.4048 21.0989 16.2919C21.0989 15.173 21.389 14.2567 21.9693 13.543C22.5555 12.8293 23.3045 12.4724 24.2163 12.4724C24.7788 12.4724 25.288 12.6388 25.7439 12.9714C26.1998 13.3101 26.5106 13.7486 26.6764 14.2869H26.7119V12.672H27.1382V17.671C27.1382 19.0197 27.7155 19.6941 28.8701 19.6941C29.5806 19.6941 30.1313 19.3343 30.522 18.6145C30.9128 17.8948 31.1082 16.8726 31.1082 15.548C31.1082 13.6428 30.4865 12.0884 29.2431 10.8847C28.0057 9.68112 26.404 9.07931 24.4383 9.07931C22.4726 9.07931 20.8413 9.74766 19.5447 11.0843C18.2539 12.415 17.6085 14.0994 17.6085 16.1377C17.6085 18.2667 18.2421 19.9996 19.5091 21.3363C20.7762 22.6669 22.4104 23.3322 24.4117 23.3322C25.6669 23.3322 26.632 23.2264 27.307 23.0147V23.432C26.6794 23.6316 25.7143 23.7314 24.4117 23.7314C22.2861 23.7314 20.5512 23.0268 19.2072 21.6175C17.8631 20.2082 17.1911 18.3816 17.1911 16.1377C17.1911 13.9724 17.875 12.1882 19.2427 10.7849C20.6104 9.38173 22.3482 8.68012 24.4561 8.68012Z" fill="#ED1C24"/>
<path fill-rule="evenodd" clip-rule="evenodd" d="M26.3536 13.0337V12.3137H27.4966V17.671C27.4966 18.3026 27.633 18.7094 27.8435 18.9553C28.0448 19.1905 28.3639 19.3358 28.8701 19.3358C29.4266 19.3358 29.8675 19.0691 30.2071 18.4435C30.557 17.7991 30.7499 16.8458 30.7499 15.548C30.7499 13.729 30.1601 12.2712 28.9939 11.1422C27.8327 10.0128 26.3248 9.43767 24.4383 9.43767C22.5635 9.43767 21.027 10.0709 19.8019 11.3339C18.5827 12.5907 17.9669 14.1824 17.9669 16.1377C17.9669 18.1903 18.575 19.8298 19.7691 21.0895C20.962 22.3421 22.499 22.9738 24.4117 22.9738C25.6541 22.9738 26.5764 22.8682 27.1998 22.6727L27.6654 22.5267V23.6941L27.4156 23.7735C26.7333 23.9905 25.7225 24.0898 24.4117 24.0898C22.198 24.0898 20.3661 23.3519 18.9479 21.8648C17.5305 20.3787 16.8328 18.4587 16.8328 16.1377C16.8328 13.8897 17.546 12.0122 18.9861 10.5348C20.4267 9.05678 22.2597 8.32176 24.4561 8.32176C26.6196 8.32176 28.413 8.9871 29.8036 10.3373C31.1947 11.6943 31.884 13.4453 31.884 15.5571C31.884 17.0277 31.6464 18.2167 31.1326 19.087C30.6072 19.9771 29.8386 20.4517 28.8524 20.4517C28.1718 20.4517 27.586 20.2574 27.129 19.8422C26.9016 19.6382 26.7262 19.3983 26.6001 19.1269C26.4089 19.4213 26.1857 19.6709 25.9279 19.8707C25.4461 20.2443 24.8689 20.4245 24.2163 20.4245C23.1927 20.4245 22.3421 20.0268 21.6931 19.2421C21.0487 18.4628 20.7406 17.469 20.7406 16.2919C20.7406 15.1091 21.0485 14.1075 21.6912 13.3169L21.6924 13.3155C22.3456 12.5202 23.1956 12.1141 24.2163 12.1141C24.855 12.1141 25.4381 12.3047 25.9551 12.6819L25.9576 12.6837C26.1022 12.7912 26.2343 12.9079 26.3536 13.0337ZM24.2252 13.239C23.5832 13.239 23.0438 13.5084 22.5892 14.0902L22.587 14.0931C22.1244 14.673 21.8836 15.401 21.8836 16.301C21.8836 17.2311 22.1185 17.953 22.5589 18.4982L22.5602 18.4998C22.9894 19.0373 23.5345 19.2995 24.2252 19.2995C24.8562 19.2995 25.3501 19.0422 25.7357 18.498L25.737 18.4962C26.1365 17.9397 26.3536 17.1795 26.3536 16.1831C26.3536 15.2161 26.1422 14.496 25.7591 13.9847C25.3857 13.4863 24.8872 13.239 24.2252 13.239Z" fill="#ED1C24"/>
<path d="M24.2252 12.8807C23.4614 12.8807 22.8219 13.2103 22.3068 13.8696C21.7857 14.5228 21.5252 15.3333 21.5252 16.301C21.5252 17.2929 21.7769 18.1004 22.2801 18.7234C22.7775 19.3464 23.4258 19.6578 24.2252 19.6578C24.9771 19.6578 25.5781 19.3403 26.0281 18.7052C26.484 18.0702 26.7119 17.2294 26.7119 16.1831C26.7119 15.167 26.4899 14.3625 26.0458 13.7698C25.6018 13.1771 24.9949 12.8807 24.2252 12.8807ZM24.4561 8.68012C26.5402 8.68012 28.2395 9.31822 29.554 10.5944C30.8684 11.8767 31.5256 13.5309 31.5256 15.5571C31.5256 16.9966 31.2918 18.1125 30.824 18.9048C30.3563 19.6972 29.699 20.0933 28.8523 20.0933C28.2425 20.0933 27.7481 19.9209 27.3692 19.5762C26.9843 19.2314 26.7682 18.7566 26.7208 18.1518H26.6853C26.2057 19.428 25.3827 20.0661 24.2163 20.0661C23.2985 20.0661 22.5495 19.7153 21.9693 19.0137C21.389 18.3121 21.0989 17.4048 21.0989 16.2919C21.0989 15.173 21.389 14.2567 21.9693 13.543C22.5555 12.8293 23.3045 12.4724 24.2163 12.4724C24.7788 12.4724 25.288 12.6388 25.7439 12.9714C26.1998 13.3101 26.5106 13.7486 26.6764 14.2869H26.7119V12.672H27.1382V17.671C27.1382 19.0197 27.7155 19.6941 28.8701 19.6941C29.5806 19.6941 30.1313 19.3343 30.522 18.6145C30.9128 17.8948 31.1082 16.8726 31.1082 15.548C31.1082 13.6428 30.4865 12.0884 29.2431 10.8847C28.0057 9.68112 26.404 9.07931 24.4383 9.07931C22.4726 9.07931 20.8413 9.74766 19.5447 11.0843C18.2539 12.415 17.6085 14.0994 17.6085 16.1377C17.6085 18.2667 18.2421 19.9996 19.5091 21.3363C20.7762 22.6669 22.4104 23.3322 24.4117 23.3322C25.6669 23.3322 26.632 23.2264 27.307 23.0147V23.432C26.6794 23.6316 25.7143 23.7314 24.4117 23.7314C22.2861 23.7314 20.5512 23.0268 19.2072 21.6175C17.8631 20.2082 17.1911 18.3816 17.1911 16.1377C17.1911 13.9724 17.875 12.1882 19.2427 10.7849C20.6104 9.38173 22.3482 8.68012 24.4561 8.68012Z" stroke="#ED1C24" stroke-width="0.5"/>
<path fill-rule="evenodd" clip-rule="evenodd" d="M26.3536 13.0337V12.3137H27.4966V17.671C27.4966 18.3026 27.633 18.7094 27.8435 18.9553C28.0448 19.1905 28.3639 19.3358 28.8701 19.3358C29.4266 19.3358 29.8675 19.0691 30.2071 18.4435C30.557 17.7991 30.7499 16.8458 30.7499 15.548C30.7499 13.729 30.1601 12.2712 28.9939 11.1422C27.8327 10.0128 26.3248 9.43767 24.4383 9.43767C22.5635 9.43767 21.027 10.0709 19.8019 11.3339C18.5827 12.5907 17.9669 14.1824 17.9669 16.1377C17.9669 18.1903 18.575 19.8298 19.7691 21.0895C20.962 22.3421 22.499 22.9738 24.4117 22.9738C25.6541 22.9738 26.5764 22.8682 27.1998 22.6727L27.6654 22.5267V23.6941L27.4156 23.7735C26.7333 23.9905 25.7225 24.0898 24.4117 24.0898C22.198 24.0898 20.3661 23.3519 18.9479 21.8648C17.5305 20.3787 16.8328 18.4587 16.8328 16.1377C16.8328 13.8897 17.546 12.0122 18.9861 10.5348C20.4267 9.05678 22.2597 8.32176 24.4561 8.32176C26.6196 8.32176 28.413 8.9871 29.8036 10.3373C31.1947 11.6943 31.884 13.4453 31.884 15.5571C31.884 17.0277 31.6464 18.2167 31.1326 19.087C30.6072 19.9771 29.8386 20.4517 28.8524 20.4517C28.1718 20.4517 27.586 20.2574 27.129 19.8422C26.9016 19.6382 26.7262 19.3983 26.6001 19.1269C26.4089 19.4213 26.1857 19.6709 25.9279 19.8707C25.4461 20.2443 24.8689 20.4245 24.2163 20.4245C23.1927 20.4245 22.3421 20.0268 21.6931 19.2421C21.0487 18.4628 20.7406 17.469 20.7406 16.2919C20.7406 15.1091 21.0485 14.1075 21.6912 13.3169L21.6924 13.3155C22.3456 12.5202 23.1956 12.1141 24.2163 12.1141C24.855 12.1141 25.4381 12.3047 25.9551 12.6819L25.9576 12.6837C26.1022 12.7912 26.2343 12.9079 26.3536 13.0337ZM24.2252 13.239C23.5832 13.239 23.0438 13.5084 22.5892 14.0902L22.587 14.0931C22.1244 14.673 21.8836 15.401 21.8836 16.301C21.8836 17.2311 22.1185 17.953 22.5589 18.4982L22.5602 18.4998C22.9894 19.0373 23.5345 19.2995 24.2252 19.2995C24.8562 19.2995 25.3501 19.0422 25.7357 18.498L25.737 18.4962C26.1365 17.9397 26.3536 17.1795 26.3536 16.1831C26.3536 15.2161 26.1422 14.496 25.7591 13.9847C25.3857 13.4863 24.8872 13.239 24.2252 13.239Z" stroke="#ED1C24" stroke-width="0.5"/>
</svg>
