<svg width="32" height="23" viewBox="0 0 32 23" fill="none" xmlns="http://www.w3.org/2000/svg">
<g clip-path="url(#clip0_15:347)">
<path d="M31.2931 3.58736C31.1096 2.89398 30.7515 2.26185 30.2546 1.75391C29.7578 1.24598 29.1394 0.879956 28.4611 0.6923C25.9778 0 15.9836 0 15.9836 0C15.9836 0 5.98884 0.0209555 3.50559 0.713256C2.82728 0.900923 2.2089 1.26696 1.71202 1.77492C1.21515 2.28288 0.857119 2.91504 0.673591 3.60844C-0.0775341 8.11874 -0.368909 14.9914 0.694216 19.3213C0.877763 20.0147 1.2358 20.6468 1.73267 21.1547C2.22955 21.6627 2.84792 22.0287 3.52622 22.2163C6.00947 22.9086 16.004 22.9086 16.004 22.9086C16.004 22.9086 25.9983 22.9086 28.4815 22.2163C29.1598 22.0287 29.7782 21.6627 30.2751 21.1548C30.772 20.6468 31.13 20.0147 31.3136 19.3213C32.1059 14.8046 32.35 7.93628 31.2931 3.58749V3.58736Z" fill="#FF0000"/>
<path d="M12.8025 16.3632L21.0936 11.4543L12.8026 6.54529L12.8025 16.3632Z" fill="white"/>
</g>
<defs>
<clipPath id="clip0_15:347">
<rect width="32" height="23" fill="white"/>
</clipPath>
</defs>
</svg>
