<svg width="48" height="48" viewBox="0 0 48 48" fill="none" xmlns="http://www.w3.org/2000/svg">
<rect x="5.85" y="5.85" width="31.3" height="38.3" rx="2.15" fill="white" stroke="black" stroke-width="1.7" stroke-linecap="round"/>
<path d="M19.5931 14.0391C19.5931 14.0391 14.7226 17.0092 19.3128 19.9583C20.1958 20.5327 23.3984 22.1299 23.3073 23.6079C23.3073 23.6079 25.2485 20.7359 22.4103 18.9286C19.495 17.0793 18.7662 15.1038 19.5931 14.0391Z" fill="#ED1C24"/>
<path d="M17.8971 19.7129C17.8971 19.7129 16.1591 22.3468 19.579 22.8862C19.9154 22.9282 22.3892 23.1874 23.0339 24C23.0339 24 22.9778 22.599 20.9595 21.7724C18.9483 20.9458 18.1213 20.7426 17.8971 19.7129Z" fill="#ED1C24"/>
<path d="M24.6247 16.946C22.5364 14.7605 21.9547 13.4085 22.8517 11.6572C22.8517 11.6572 16.6217 14.053 22.7747 18.305C24.9751 19.8251 24.6107 21.3802 24.6107 21.4363C24.9541 21.079 26.7131 19.1316 24.6247 16.946Z" fill="#ED1C24"/>
<path d="M11.1713 28.1143H31.7428" stroke="black" stroke-width="1.7" stroke-linecap="round"/>
<path d="M11.1713 32.2285H31.7428" stroke="black" stroke-width="1.7" stroke-linecap="round"/>
<path d="M11.1713 36.3428H31.7428" stroke="black" stroke-width="1.7" stroke-linecap="round"/>
<rect x="9.85" y="2.85" width="31.3" height="38.3" rx="2.15" fill="white" stroke="black" stroke-width="1.7" stroke-linecap="round"/>
<path d="M15.2571 29.1431H35.8285" stroke="black" stroke-width="1.7" stroke-linecap="round"/>
<path d="M15.2571 33.2573H35.8285" stroke="black" stroke-width="1.7" stroke-linecap="round"/>
<path d="M18.5788 21.4227C18.4137 21.6853 18.2283 21.9901 18.0709 22.2329C17.9299 22.4652 18.0056 22.7649 18.241 22.9068L21.5425 24.8889C21.6583 24.9587 21.7981 24.9802 21.9304 24.9485C22.0626 24.9168 22.1763 24.8346 22.2459 24.7204C22.378 24.5048 22.5481 24.2249 22.7335 23.9251C24.0414 21.8191 25.3569 22.0768 27.7288 23.1818L31.0023 24.7006C31.1263 24.7581 31.2689 24.7643 31.3976 24.7176C31.5263 24.6709 31.6302 24.5754 31.6855 24.4528L33.2575 20.9841C33.3685 20.7364 33.2555 20.4475 33.0035 20.335C32.3127 20.0179 30.9388 19.3861 29.7021 18.8038C25.2528 16.6954 21.4713 16.8316 18.5788 21.4227Z" fill="#2684FF"/>
<path d="M33.3822 13.5507C33.5473 13.2881 33.7327 12.9834 33.8901 12.7405C34.031 12.5082 33.9554 12.2085 33.72 12.0666L30.4185 10.0845C30.3017 10.0078 30.1574 9.98177 30.0202 10.0128C29.883 10.0438 29.7651 10.129 29.6947 10.2481C29.5627 10.4636 29.3925 10.7436 29.2072 11.0434C27.8993 13.1494 26.5838 12.8917 24.2118 11.7867L20.9485 10.2753C20.8245 10.2177 20.6819 10.2116 20.5532 10.2583C20.4245 10.3049 20.3207 10.4005 20.2653 10.5231L18.6934 13.9917C18.5823 14.2395 18.6953 14.5283 18.9473 14.6409C19.6381 14.958 21.012 15.5898 22.2487 16.1721C26.7082 18.278 30.4896 18.1368 33.3822 13.5507Z" fill="#2684FF"/>
</svg>
