<svg width="300" height="200" viewBox="0 0 300 200" fill="none" xmlns="http://www.w3.org/2000/svg">
<rect width="300" height="200" rx="10" fill="#F0F0F0"/>
<rect x="50.5" y="10.5" width="64" height="62" rx="9.5" fill="white" stroke="#2D2D2D"/>
<rect x="60.5" y="17.5" width="64" height="62" rx="9.5" fill="#F0F0F0" stroke="#2D2D2D"/>
<rect x="71.5" y="22.5" width="64" height="62" rx="9.5" fill="#2D2D2D" stroke="#2D2D2D"/>
<rect x="85.5" y="25.5" width="64" height="62" rx="9.5" fill="white" stroke="#2D2D2D"/>
<rect x="97.5" y="30.5" width="64" height="62" rx="9.5" fill="white" stroke="#2D2D2D"/>
<rect x="112.5" y="35.5" width="64" height="62" rx="9.5" fill="#E6E6E6" stroke="#2D2D2D"/>
<rect x="129.5" y="39.5" width="64" height="62" rx="9.5" fill="white" stroke="#2D2D2D"/>
<rect x="146.5" y="45.5" width="64" height="62" rx="9.5" fill="white" stroke="#2D2D2D"/>
<rect x="164.5" y="51.5" width="64" height="62" rx="9.5" fill="#2D2D2D" stroke="#2D2D2D"/>
<rect x="185.5" y="57.5" width="64" height="62" rx="9.5" fill="#E6E6E6" stroke="#2D2D2D"/>
<rect x="177.5" y="68.5" width="64" height="62" rx="9.5" fill="white" stroke="#2D2D2D"/>
<rect x="164.5" y="77.5" width="64" height="62" rx="9.5" fill="white" stroke="#2D2D2D"/>
<rect x="153.5" y="88.5" width="64" height="62" rx="9.5" fill="#E6E6E6" stroke="#2D2D2D"/>
<rect x="140.5" y="100.5" width="64" height="62" rx="9.5" fill="white" stroke="#2D2D2D"/>
<rect x="115.5" y="119.5" width="64" height="62" rx="9.5" fill="white" stroke="#2D2D2D"/>
<path d="M171 194L161 157L199.5 167L187 176L196 185.5L190 191.5L180 182L171 194Z" fill="#ED1C24"/>
<path fill-rule="evenodd" clip-rule="evenodd" d="M66 142.5L65.9982 142.5L65.9928 142.5L65.9838 142.5L65.9712 142.501L65.9551 142.502L65.9353 142.503L65.9121 142.504L65.8852 142.506L65.8549 142.509L65.821 142.512L65.7837 142.516L65.743 142.521L65.6988 142.527L65.6512 142.534L65.6003 142.542L65.546 142.551L65.4885 142.56L65.4277 142.572L65.3637 142.584L65.2966 142.598L65.2264 142.613L65.1531 142.63L65.0767 142.648L64.9975 142.668L64.9153 142.689L64.8302 142.712L64.7424 142.737L64.6519 142.764L64.5587 142.792L64.4629 142.823L64.3645 142.855L64.2637 142.889L64.1604 142.925L64.0549 142.964L63.9471 143.004L63.8371 143.046L63.7249 143.091L63.6108 143.138L63.4946 143.187L63.3766 143.238L63.2568 143.292L63.1352 143.347L63.012 143.406L62.8873 143.466L62.761 143.529L62.6334 143.594L62.5044 143.661L62.3742 143.731L62.2429 143.803L62.1104 143.877L61.977 143.954L61.8428 144.033L61.7076 144.115L61.5718 144.199L61.4354 144.285L61.2983 144.373L61.1608 144.464L61.023 144.557L60.8848 144.653L60.7464 144.75L60.6079 144.85L60.4693 144.952L60.3308 145.056L60.1924 145.162L60.0542 145.271L59.9163 145.381L59.7787 145.493L59.6416 145.608L59.505 145.724L59.369 145.842L59.2337 145.962L59.0991 146.084L58.9654 146.207L58.8325 146.332L58.7007 146.459L58.5698 146.587L58.4401 146.717L58.3115 146.848L58.1842 146.981L58.0582 147.114L57.9335 147.249L57.8103 147.386L57.6885 147.523L57.5683 147.661L57.4497 147.8L57.3327 147.941L57.2174 148.081L57.1039 148.223L56.9922 148.365L56.8823 148.508L56.7742 148.651L56.6681 148.795L56.564 148.939L56.4619 149.083L56.3618 149.227L56.2637 149.372L56.1678 149.516L56.0739 149.66L55.9822 149.804L55.8927 149.948L55.8054 150.091L55.7203 150.234L55.6373 150.376L55.5567 150.518L55.4782 150.658L55.402 150.798L55.3281 150.937L55.2564 151.075L55.187 151.212L55.1199 151.348L55.055 151.482L54.9924 151.616L54.932 151.747L54.8738 151.877L54.8179 152.006L54.7642 152.132L54.7126 152.257L54.6633 152.381L54.616 152.502L54.5709 152.621L54.5279 152.738L54.487 152.852L54.448 152.965L54.4111 153.075L54.3762 153.183L54.3432 153.288L54.3121 153.391L54.2828 153.491L54.2554 153.588L54.2297 153.683L54.2057 153.774L54.1834 153.863L54.1627 153.949L54.1436 154.032L54.126 154.112L54.1099 154.188L54.0952 154.262L54.0818 154.332L54.0697 154.399L54.0589 154.462L54.0492 154.522L54.0407 154.579L54.0331 154.633L54.0266 154.682L54.021 154.729L54.0162 154.771L54.0122 154.811L54.0089 154.846L54.0063 154.878L54.0042 154.906L54.0027 154.931L54.0015 154.952L54.0008 154.969L54.0003 154.982L54.0001 154.992L54 154.998L54 155L54 154.998L53.9999 154.993L53.9997 154.984L53.9993 154.971L53.9985 154.955L53.9975 154.934L53.996 154.91L53.994 154.883L53.9915 154.852L53.9883 154.817L53.9844 154.778L53.9798 154.736L53.9743 154.69L53.9679 154.641L53.9606 154.588L53.9522 154.532L53.9427 154.472L53.932 154.409L53.9201 154.343L53.907 154.273L53.8925 154.2L53.8766 154.124L53.8592 154.045L53.8404 153.962L53.82 153.877L53.7979 153.789L53.7742 153.697L53.7488 153.603L53.7216 153.506L53.6927 153.407L53.6618 153.305L53.6291 153.2L53.5945 153.092L53.5579 152.983L53.5193 152.871L53.4787 152.756L53.436 152.64L53.3912 152.521L53.3444 152.4L53.2953 152.277L53.2441 152.153L53.1907 152.026L53.1352 151.898L53.0774 151.768L53.0173 151.637L52.9551 151.504L52.8905 151.37L52.8238 151.234L52.7547 151.097L52.6834 150.959L52.6098 150.821L52.534 150.681L52.4559 150.54L52.3756 150.399L52.2931 150.256L52.2083 150.114L52.1213 149.971L52.0321 149.827L51.9408 149.683L51.8473 149.539L51.7517 149.395L51.6539 149.25L51.5542 149.106L51.4523 148.962L51.3485 148.818L51.2427 148.674L51.135 148.531L51.0254 148.388L50.914 148.246L50.8007 148.104L50.6857 147.963L50.569 147.823L50.4507 147.683L50.3307 147.545L50.2092 147.407L50.0862 147.271L49.9617 147.136L49.8359 147.002L49.7088 146.869L49.5804 146.738L49.4509 146.608L49.3202 146.479L49.1885 146.352L49.0558 146.227L48.9222 146.103L48.7877 145.981L48.6525 145.861L48.5166 145.743L48.3801 145.626L48.2431 145.511L48.1056 145.399L47.9677 145.288L47.8296 145.179L47.6912 145.073L47.5527 144.968L47.4141 144.866L47.2756 144.766L47.1372 144.668L46.999 144.572L46.8611 144.479L46.7235 144.388L46.5864 144.299L46.4498 144.212L46.3139 144.128L46.1787 144.046L46.0442 143.967L45.9107 143.889L45.7781 143.815L45.6466 143.742L45.5162 143.672L45.387 143.604L45.2592 143.539L45.1327 143.476L45.0077 143.415L44.8842 143.357L44.7624 143.3L44.6423 143.247L44.524 143.195L44.4076 143.146L44.2931 143.098L44.1806 143.053L44.0703 143.011L43.9621 142.97L43.8562 142.931L43.7526 142.895L43.6513 142.86L43.5526 142.828L43.4564 142.797L43.3627 142.768L43.2718 142.741L43.1835 142.716L43.098 142.693L43.0154 142.671L42.9356 142.651L42.8589 142.633L42.7851 142.616L42.7143 142.6L42.6467 142.586L42.5822 142.574L42.5209 142.562L42.4629 142.552L42.4081 142.543L42.3566 142.535L42.3085 142.528L42.2638 142.522L42.2225 142.517L42.1846 142.513L42.1502 142.51L42.1193 142.507L42.0919 142.505L42.0681 142.503L42.0478 142.502L42.0311 142.501L42.0179 142.5L42.0083 142.5L42.0024 142.5L42 142.5L42.0012 142.5L42.0061 142.5L42.0145 142.5L42.0265 142.499L42.0421 142.499L42.0612 142.497L42.084 142.496L42.1102 142.494L42.14 142.491L42.1733 142.488L42.21 142.484L42.2503 142.479L42.2939 142.474L42.3409 142.467L42.3913 142.46L42.4451 142.451L42.5021 142.441L42.5623 142.43L42.6258 142.418L42.6924 142.404L42.7622 142.389L42.835 142.373L42.9109 142.355L42.9897 142.335L43.0714 142.314L43.156 142.291L43.2434 142.267L43.3335 142.24L43.4263 142.212L43.5217 142.182L43.6196 142.15L43.7201 142.116L43.8229 142.081L43.9281 142.043L44.0356 142.003L44.1452 141.96L44.257 141.916L44.3709 141.87L44.4867 141.821L44.6044 141.77L44.724 141.717L44.8452 141.662L44.9682 141.604L45.0927 141.544L45.2187 141.481L45.3461 141.417L45.4749 141.35L45.6049 141.28L45.7361 141.209L45.8683 141.135L46.0016 141.058L46.1358 140.979L46.2707 140.898L46.4065 140.815L46.5428 140.729L46.6798 140.641L46.8172 140.55L46.955 140.458L47.0931 140.363L47.2315 140.265L47.37 140.166L47.5086 140.064L47.6471 139.961L47.7855 139.855L47.9238 139.747L48.0617 139.637L48.1993 139.525L48.3365 139.411L48.4732 139.295L48.6093 139.177L48.7447 139.057L48.8794 138.936L49.0133 138.813L49.1463 138.688L49.2784 138.561L49.4094 138.433L49.5393 138.304L49.668 138.173L49.7956 138.041L49.9218 137.907L50.0467 137.772L50.1702 137.636L50.2922 137.499L50.4126 137.361L50.5315 137.222L50.6487 137.082L50.7643 136.941L50.8781 136.799L50.9901 136.657L51.1003 136.515L51.2086 136.371L51.315 136.228L51.4195 136.084L51.5219 135.94L51.6224 135.796L51.7208 135.651L51.817 135.507L51.9112 135.363L52.0032 135.219L52.0931 135.075L52.1808 134.932L52.2663 134.789L52.3496 134.646L52.4306 134.505L52.5094 134.364L52.5859 134.224L52.6602 134.085L52.7322 133.946L52.802 133.809L52.8695 133.673L52.9347 133.539L52.9977 133.405L53.0585 133.274L53.117 133.143L53.1733 133.015L53.2274 132.887L53.2793 132.762L53.329 132.639L53.3765 132.517L53.422 132.398L53.4653 132.281L53.5066 132.166L53.5458 132.053L53.5831 131.942L53.6183 131.834L53.6516 131.728L53.683 131.625L53.7126 131.525L53.7403 131.427L53.7663 131.332L53.7906 131.24L53.8131 131.151L53.834 131.064L53.8534 130.981L53.8712 130.901L53.8876 130.824L53.9025 130.75L53.9161 130.679L53.9284 130.612L53.9394 130.548L53.9493 130.487L53.958 130.429L53.9657 130.376L53.9724 130.325L53.9781 130.278L53.983 130.235L53.9872 130.195L53.9906 130.159L53.9933 130.127L53.9954 130.098L53.9971 130.073L53.9983 130.051L53.9991 130.034L53.9996 130.02L53.9998 130.009L54 130.003L54 130L54 130.001L54 130.006L54.0002 130.014L54.0006 130.026L54.0013 130.042L54.0023 130.062L54.0037 130.085L54.0056 130.112L54.008 130.143L54.0111 130.178L54.0148 130.216L54.0194 130.257L54.0247 130.302L54.031 130.351L54.0382 130.403L54.0464 130.459L54.0557 130.518L54.0662 130.581L54.0778 130.646L54.0908 130.716L54.1051 130.788L54.1207 130.864L54.1379 130.942L54.1565 131.024L54.1766 131.109L54.1984 131.197L54.2219 131.288L54.247 131.381L54.2739 131.478L54.3026 131.577L54.3331 131.679L54.3655 131.783L54.3998 131.89L54.4361 132L54.4743 132.111L54.5146 132.225L54.557 132.342L54.6014 132.46L54.648 132.581L54.6967 132.703L54.7475 132.827L54.8006 132.954L54.8558 133.082L54.9132 133.211L54.9729 133.342L55.0348 133.475L55.099 133.609L55.1654 133.744L55.2341 133.881L55.305 134.018L55.3782 134.157L55.4537 134.297L55.5314 134.437L55.6114 134.579L55.6936 134.721L55.778 134.863L55.8647 135.006L55.9535 135.15L56.0445 135.294L56.1377 135.438L56.2329 135.582L56.3303 135.727L56.4298 135.871L56.5313 136.015L56.6348 136.159L56.7402 136.303L56.8476 136.446L56.9569 136.589L57.0681 136.732L57.1811 136.873L57.2958 137.015L57.4122 137.155L57.5303 137.294L57.65 137.433L57.7713 137.571L57.8941 137.707L58.0183 137.843L58.1439 137.977L58.2708 138.11L58.399 138.241L58.5284 138.372L58.6589 138.5L58.7904 138.628L58.923 138.753L59.0564 138.877L59.1908 138.999L59.3258 139.12L59.4616 139.239L59.598 139.355L59.735 139.47L59.8724 139.583L60.0102 139.694L60.1484 139.803L60.2867 139.91L60.4252 140.015L60.5638 140.118L60.7023 140.218L60.8407 140.316L60.979 140.412L61.117 140.506L61.2546 140.598L61.3918 140.687L61.5284 140.774L61.6645 140.859L61.7998 140.941L61.9344 141.021L62.0681 141.098L62.2008 141.174L62.3325 141.246L62.4631 141.317L62.5924 141.385L62.7205 141.451L62.8472 141.514L62.9725 141.575L63.0962 141.634L63.2183 141.691L63.3386 141.745L63.4572 141.797L63.574 141.847L63.6888 141.894L63.8016 141.94L63.9123 141.983L64.0208 142.024L64.1271 142.063L64.2311 142.1L64.3326 142.134L64.4318 142.167L64.5284 142.198L64.6225 142.227L64.7139 142.254L64.8026 142.28L64.8885 142.303L64.9716 142.325L65.0518 142.346L65.1291 142.364L65.2033 142.382L65.2746 142.397L65.3427 142.411L65.4077 142.424L65.4695 142.436L65.5281 142.446L65.5834 142.456L65.6353 142.464L65.684 142.471L65.7293 142.477L65.7711 142.482L65.8095 142.486L65.8445 142.49L65.8759 142.493L65.9039 142.495L65.9283 142.497L65.9492 142.498L65.9665 142.499L65.9802 142.499L65.9903 142.5L65.9969 142.5L65.9998 142.5L66 142.5Z" fill="#2D2D2D"/>
<path fill-rule="evenodd" clip-rule="evenodd" d="M271 35.5L270.998 35.5L270.993 35.5001L270.984 35.5003L270.971 35.5008L270.955 35.5015L270.935 35.5026L270.912 35.5042L270.885 35.5063L270.855 35.509L270.821 35.5124L270.784 35.5165L270.743 35.5214L270.699 35.5272L270.651 35.5339L270.6 35.5417L270.546 35.5505L270.488 35.5605L270.428 35.5717L270.364 35.5842L270.297 35.598L270.226 35.6132L270.153 35.6299L270.077 35.6481L269.997 35.6678L269.915 35.6892L269.83 35.7123L269.742 35.7372L269.652 35.7638L269.559 35.7922L269.463 35.8226L269.365 35.8548L269.264 35.889L269.16 35.9253L269.055 35.9636L268.947 36.0039L268.837 36.0464L268.725 36.091L268.611 36.1379L268.495 36.1869L268.377 36.2381L268.257 36.2916L268.135 36.3474L268.012 36.4055L267.887 36.4659L267.761 36.5286L267.633 36.5937L267.504 36.6611L267.374 36.7308L267.243 36.8029L267.11 36.8774L266.977 36.9542L266.843 37.0334L266.708 37.1149L266.572 37.1988L266.435 37.285L266.298 37.3734L266.161 37.4642L266.023 37.5573L265.885 37.6526L265.746 37.7502L265.608 37.85L265.469 37.9519L265.331 38.0561L265.192 38.1623L265.054 38.2706L264.916 38.3809L264.779 38.4933L264.642 38.6076L264.505 38.7239L264.369 38.842L264.234 38.9619L264.099 39.0836L263.965 39.2071L263.833 39.3322L263.701 39.4589L263.57 39.5871L263.44 39.7169L263.312 39.848L263.184 39.9805L263.058 40.1144L262.934 40.2494L262.81 40.3856L262.689 40.5229L262.568 40.6612L262.45 40.8005L262.333 40.9406L262.217 41.0815L262.104 41.2231L261.992 41.3653L261.882 41.5081L261.774 41.6514L261.668 41.795L261.564 41.9389L261.462 42.0831L261.362 42.2274L261.264 42.3717L261.168 42.516L261.074 42.6602L260.982 42.8041L260.893 42.9478L260.805 43.091L260.72 43.2338L260.637 43.376L260.557 43.5176L260.478 43.6584L260.402 43.7983L260.328 43.9374L260.256 44.0754L260.187 44.2123L260.12 44.348L260.055 44.4825L259.992 44.6155L259.932 44.7472L259.874 44.8773L259.818 45.0057L259.764 45.1325L259.713 45.2574L259.663 45.3805L259.616 45.5017L259.571 45.6207L259.528 45.7377L259.487 45.8525L259.448 45.965L259.411 46.0751L259.376 46.1829L259.343 46.2881L259.312 46.3908L259.283 46.4908L259.255 46.5881L259.23 46.6826L259.206 46.7743L259.183 46.8631L259.163 46.949L259.144 47.0318L259.126 47.1116L259.11 47.1882L259.095 47.2616L259.082 47.3318L259.07 47.3987L259.059 47.4623L259.049 47.5225L259.041 47.5793L259.033 47.6326L259.027 47.6824L259.021 47.7287L259.016 47.7715L259.012 47.8106L259.009 47.8462L259.006 47.8781L259.004 47.9063L259.003 47.9309L259.002 47.9517L259.001 47.9688L259 47.9822L259 47.9919L259 47.9978L259 48L259 47.9984L259 47.9931L259 47.984L258.999 47.9712L258.999 47.9547L258.997 47.9344L258.996 47.9105L258.994 47.8828L258.991 47.8515L258.988 47.8165L258.984 47.778L258.98 47.7358L258.974 47.69L258.968 47.6408L258.961 47.588L258.952 47.5317L258.943 47.4721L258.932 47.409L258.92 47.3427L258.907 47.273L258.892 47.2001L258.877 47.124L258.859 47.0447L258.84 46.9624L258.82 46.877L258.798 46.7887L258.774 46.6974L258.749 46.6033L258.722 46.5065L258.693 46.4069L258.662 46.3046L258.629 46.1998L258.595 46.0925L258.558 45.9827L258.519 45.8706L258.479 45.7561L258.436 45.6395L258.391 45.5208L258.344 45.4L258.295 45.2772L258.244 45.1525L258.191 45.026L258.135 44.8978L258.077 44.768L258.017 44.6366L257.955 44.5038L257.891 44.3695L257.824 44.234L257.755 44.0973L257.683 43.9594L257.61 43.8205L257.534 43.6807L257.456 43.54L257.376 43.3986L257.293 43.2565L257.208 43.1138L257.121 42.9706L257.032 42.827L256.941 42.6831L256.847 42.539L256.752 42.3947L256.654 42.2504L256.554 42.1061L256.452 41.9619L256.349 41.8179L256.243 41.6742L256.135 41.5309L256.025 41.388L255.914 41.2457L255.801 41.104L255.686 40.963L255.569 40.8227L255.451 40.6833L255.331 40.5449L255.209 40.4074L255.086 40.271L254.962 40.1358L254.836 40.0018L254.709 39.869L254.58 39.7376L254.451 39.6077L254.32 39.4792L254.188 39.3522L254.056 39.2269L253.922 39.1032L253.788 38.9812L253.653 38.861L253.517 38.7426L253.38 38.626L253.243 38.5114L253.106 38.3987L252.968 38.288L252.83 38.1794L252.691 38.0728L252.553 37.9684L252.414 37.8661L252.276 37.766L252.137 37.668L251.999 37.5723L251.861 37.4789L251.723 37.3878L251.586 37.2989L251.45 37.2123L251.314 37.1281L251.179 37.0462L251.044 36.9667L250.911 36.8895L250.778 36.8146L250.647 36.7422L250.516 36.672L250.387 36.6043L250.259 36.5388L250.133 36.4757L250.008 36.415L249.884 36.3565L249.762 36.3004L249.642 36.2465L249.524 36.1949L249.408 36.1455L249.293 36.0984L249.181 36.0534L249.07 36.0105L248.962 35.9698L248.856 35.9312L248.753 35.8947L248.651 35.8601L248.553 35.8276L248.456 35.7969L248.363 35.7682L248.272 35.7413L248.184 35.7162L248.098 35.6928L248.015 35.6711L247.936 35.6511L247.859 35.6327L247.785 35.6157L247.714 35.6003L247.647 35.5863L247.582 35.5736L247.521 35.5622L247.463 35.552L247.408 35.543L247.357 35.5351L247.309 35.5282L247.264 35.5223L247.222 35.5172L247.185 35.513L247.15 35.5095L247.119 35.5067L247.092 35.5045L247.068 35.5029L247.048 35.5017L247.031 35.5009L247.018 35.5003L247.008 35.5001L247.002 35.5L247 35.5L247.001 35.4999L247.006 35.4999L247.014 35.4997L247.026 35.4992L247.042 35.4985L247.061 35.4975L247.084 35.496L247.11 35.4939L247.14 35.4913L247.173 35.4881L247.21 35.4841L247.25 35.4793L247.294 35.4737L247.341 35.4671L247.391 35.4595L247.445 35.4509L247.502 35.4411L247.562 35.4301L247.626 35.4178L247.692 35.4042L247.762 35.3892L247.835 35.3728L247.911 35.3548L247.99 35.3353L248.071 35.3142L248.156 35.2914L248.243 35.2668L248.333 35.2405L248.426 35.2123L248.522 35.1823L248.62 35.1504L248.72 35.1164L248.823 35.0805L248.928 35.0426L249.036 35.0026L249.145 34.9604L249.257 34.9161L249.371 34.8697L249.487 34.821L249.604 34.7701L249.724 34.7169L249.845 34.6615L249.968 34.6038L250.093 34.5438L250.219 34.4814L250.346 34.4167L250.475 34.3497L250.605 34.2803L250.736 34.2086L250.868 34.1345L251.002 34.0581L251.136 33.9793L251.271 33.8981L251.406 33.8146L251.543 33.7288L251.68 33.6407L251.817 33.5503L251.955 33.4576L252.093 33.3626L252.231 33.2654L252.37 33.166L252.509 33.0643L252.647 32.9606L252.786 32.8547L252.924 32.7467L253.062 32.6367L253.199 32.5246L253.337 32.4106L253.473 32.2947L253.609 32.1769L253.745 32.0572L253.879 31.9358L254.013 31.8126L254.146 31.6878L254.278 31.5613L254.409 31.4333L254.539 31.3038L254.668 31.1729L254.796 31.0406L254.922 30.9069L255.047 30.7721L255.17 30.6361L255.292 30.4989L255.413 30.3608L255.531 30.2217L255.649 30.0817L255.764 29.9409L255.878 29.7994L255.99 29.6573L256.1 29.5146L256.209 29.3714L256.315 29.2278L256.419 29.0839L256.522 28.9398L256.622 28.7955L256.721 28.6512L256.817 28.5069L256.911 28.3627L257.003 28.2187L257.093 28.075L257.181 27.9317L257.266 27.7888L257.35 27.6465L257.431 27.5048L257.509 27.3639L257.586 27.2238L257.66 27.0846L257.732 26.9464L257.802 26.8093L257.87 26.6734L257.935 26.5388L257.998 26.4055L258.058 26.2736L258.117 26.1433L258.173 26.0145L258.227 25.8875L258.279 25.7622L258.329 25.6389L258.377 25.5174L258.422 25.398L258.465 25.2807L258.507 25.1655L258.546 25.0527L258.583 24.9422L258.618 24.834L258.652 24.7284L258.683 24.6253L258.713 24.5249L258.74 24.4271L258.766 24.3321L258.791 24.24L258.813 24.1507L258.834 24.0644L258.853 23.9811L258.871 23.9008L258.888 23.8237L258.903 23.7498L258.916 23.6791L258.928 23.6116L258.939 23.5475L258.949 23.4868L258.958 23.4295L258.966 23.3756L258.972 23.3252L258.978 23.2783L258.983 23.235L258.987 23.1953L258.991 23.1591L258.993 23.1267L258.995 23.0978L258.997 23.0727L258.998 23.0513L258.999 23.0335L259 23.0196L259 23.0093L259 23.0028L259 23L259 23.001L259 23.0057L259 23.0142L259.001 23.0264L259.001 23.0423L259.002 23.062L259.004 23.0854L259.006 23.1124L259.008 23.1432L259.011 23.1776L259.015 23.2156L259.019 23.2572L259.025 23.3023L259.031 23.3511L259.038 23.4033L259.046 23.459L259.056 23.5181L259.066 23.5806L259.078 23.6464L259.091 23.7156L259.105 23.788L259.121 23.8636L259.138 23.9424L259.156 24.0242L259.177 24.1091L259.198 24.197L259.222 24.2878L259.247 24.3814L259.274 24.4778L259.303 24.577L259.333 24.6788L259.365 24.7832L259.4 24.8902L259.436 24.9996L259.474 25.1113L259.515 25.2254L259.557 25.3417L259.601 25.4601L259.648 25.5806L259.697 25.703L259.748 25.8274L259.801 25.9536L259.856 26.0815L259.913 26.2111L259.973 26.3423L260.035 26.4749L260.099 26.6089L260.165 26.7442L260.234 26.8808L260.305 27.0185L260.378 27.1572L260.454 27.2969L260.531 27.4374L260.611 27.5787L260.694 27.7207L260.778 27.8633L260.865 28.0064L260.953 28.15L261.044 28.2938L261.138 28.438L261.233 28.5822L261.33 28.7265L261.43 28.8709L261.531 29.0151L261.635 29.1591L261.74 29.3028L261.848 29.4462L261.957 29.5892L262.068 29.7316L262.181 29.8734L262.296 30.0145L262.412 30.1549L262.53 30.2944L262.65 30.433L262.771 30.5707L262.894 30.7072L263.018 30.8427L263.144 30.9769L263.271 31.1098L263.399 31.2414L263.528 31.3716L263.659 31.5004L263.79 31.6276L263.923 31.7532L264.056 31.8771L264.191 31.9994L264.326 32.1199L264.462 32.2386L264.598 32.3555L264.735 32.4704L264.872 32.5834L265.01 32.6944L265.148 32.8033L265.287 32.9102L265.425 33.015L265.564 33.1177L265.702 33.2181L265.841 33.3164L265.979 33.4125L266.117 33.5063L266.255 33.5978L266.392 33.687L266.528 33.7739L266.664 33.8585L266.8 33.9408L266.934 34.0207L267.068 34.0983L267.201 34.1735L267.333 34.2464L267.463 34.3169L267.592 34.385L267.721 34.4508L267.847 34.5143L267.972 34.5754L268.096 34.6342L268.218 34.6907L268.339 34.745L268.457 34.7969L268.574 34.8467L268.689 34.8942L268.802 34.9395L268.912 34.9827L269.021 35.0237L269.127 35.0627L269.231 35.0995L269.333 35.1344L269.432 35.1673L269.528 35.1982L269.622 35.2273L269.714 35.2545L269.803 35.2799L269.888 35.3035L269.972 35.3254L270.052 35.3457L270.129 35.3644L270.203 35.3816L270.275 35.3972L270.343 35.4115L270.408 35.4244L270.469 35.436L270.528 35.4464L270.583 35.4555L270.635 35.4636L270.684 35.4707L270.729 35.4768L270.771 35.4819L270.81 35.4863L270.844 35.4899L270.876 35.4928L270.904 35.4951L270.928 35.4968L270.949 35.4981L270.966 35.4989L270.98 35.4995L270.99 35.4998L270.997 35.4999L271 35.5L271 35.5Z" fill="#2D2D2D"/>
</svg>
