<svg width="300" height="200" viewBox="0 0 300 200" fill="none" xmlns="http://www.w3.org/2000/svg">
<rect width="300" height="200" rx="10" fill="#F0F0F0"/>
<path d="M90.342 95.25L109.592 128.592L90.342 161.934L51.842 161.934L32.592 128.592L51.842 95.25L90.342 95.25Z" fill="#2D2D2D"/>
<circle cx="71.5" cy="128.5" r="18.5" stroke="white" stroke-width="2"/>
<mask id="path-4-outside-1_101:59" maskUnits="userSpaceOnUse" x="66.9999" y="103" width="9" height="23" fill="black">
<rect fill="white" x="66.9999" y="103" width="9" height="23"/>
<path fill-rule="evenodd" clip-rule="evenodd" d="M69.9999 122.5V106H72.9999V122.5H69.9999Z"/>
</mask>
<path fill-rule="evenodd" clip-rule="evenodd" d="M69.9999 122.5V106H72.9999V122.5H69.9999Z" fill="white"/>
<path d="M69.9999 106V103H66.9999V106H69.9999ZM69.9999 122.5H66.9999V125.5H69.9999V122.5ZM72.9999 106H75.9999V103H72.9999V106ZM72.9999 122.5V125.5H75.9999V122.5H72.9999ZM66.9999 106V122.5H72.9999V106H66.9999ZM72.9999 103H69.9999V109H72.9999V103ZM75.9999 122.5V106H69.9999V122.5H75.9999ZM69.9999 125.5H72.9999V119.5H69.9999V125.5Z" fill="#2D2D2D" mask="url(#path-4-outside-1_101:59)"/>
<path d="M70 94.5V70C70 66.6863 72.6863 64 76 64H123.996C127.31 64 129.996 66.6863 129.996 70V139C129.996 142.314 132.682 145 135.996 145H163.076C166.389 145 169.076 142.314 169.076 139V84C169.076 80.6863 171.762 78 175.076 78H201" stroke="#2D2D2D"/>
<path d="M199.77 102.315V40.0292C199.77 40.0292 207.233 46.2905 230.431 46.2905C253.628 46.2905 261.899 39.3136 261.899 39.3136V102.315C261.899 102.315 258.558 109.965 230.431 110.26C202.303 110.554 199.77 102.315 199.77 102.315Z" fill="white"/>
<path d="M262.122 38.0636C262.122 39.225 261.386 40.4189 259.844 41.5816C258.31 42.7382 256.055 43.8013 253.215 44.7031C247.541 46.5047 239.642 47.6272 230.811 47.6272C221.98 47.6272 214.081 46.5047 208.406 44.7031C205.566 43.8013 203.312 42.7382 201.778 41.5816C200.236 40.4189 199.5 39.225 199.5 38.0636C199.5 36.9022 200.236 35.7083 201.778 34.5456C203.312 33.389 205.566 32.3258 208.406 31.4241C214.081 29.6225 221.98 28.5 230.811 28.5C239.642 28.5 247.541 29.6225 253.215 31.4241C256.055 32.3258 258.31 33.389 259.844 34.5456C261.386 35.7083 262.122 36.9022 262.122 38.0636Z" fill="white" stroke="#ED1C24"/>
<path d="M199.607 38.6027L199.607 100.749" stroke="#ED1C24"/>
<path d="M262.093 37.6913L262.021 100.814" stroke="#ED1C24"/>
<path d="M262.01 100.749C262.01 106.087 248.041 110.414 230.809 110.414C213.577 110.414 199.607 106.087 199.607 100.749" stroke="#ED1C24"/>
<path d="M262.01 58.5646C262.01 63.9024 248.041 68.2296 230.809 68.2296C213.577 68.2296 199.607 63.9024 199.607 58.5646" stroke="#ED1C24"/>
<path d="M262.01 79.8021C262.01 85.14 248.041 89.4671 230.809 89.4671C213.577 89.4671 199.607 85.14 199.607 79.8021" stroke="#ED1C24"/>
<path d="M197.5 120L186 131.5" stroke="#6E6E6E"/>
<path d="M205.5 120L194 131.5" stroke="#6E6E6E"/>
<path d="M213.5 120L202 131.5" stroke="#6E6E6E"/>
<path d="M221.5 120L210 131.5" stroke="#6E6E6E"/>
<path d="M229.5 120L218 131.5" stroke="#6E6E6E"/>
<path d="M237.5 120L226 131.5" stroke="#6E6E6E"/>
<path d="M245.5 120L234 131.5" stroke="#6E6E6E"/>
<path d="M253.5 120L242 131.5" stroke="#6E6E6E"/>
<path d="M261.5 120L250 131.5" stroke="#6E6E6E"/>
<path d="M269.5 120L258 131.5" stroke="#6E6E6E"/>
</svg>
