<svg width="494" height="645" fill="none" xmlns="http://www.w3.org/2000/svg"><path d="m493 322.344-70.286 40.58-140.571 81.159v324.636l140.571-81.159L493 646.98V322.344Z" fill="#0070CC" stroke="#fff"/><path transform="matrix(-.86603 -.5 0 1 282.143 444.083)" fill="#0070CC" stroke="#fff" d="M0 0h324.636v324.636H0z"/><path d="m211.857 160.026-70.286 40.58-140.57 81.159 281.142 162.318 140.571-81.159L493 322.344 211.857 160.026Z" fill="#0070CC" stroke="#fff"/><path fill-rule="evenodd" clip-rule="evenodd" d="M466.163 378.032c.478-.276.866-.052.866.5v49.942c0 .552-.388 1.224-.866 1.5l-10.38 5.993-21.625 12.485c-.478.276-.866.053-.866-.5v-49.941c0-.553.388-1.224.866-1.5l21.625-12.486 10.38-5.993Zm0 126.608c.478-.276.866-.052.866.5v23.971c0 .552-.388 1.224-.866 1.5l-155.708 89.898c-.478.276-.866.052-.866-.5v-23.971c0-.552.388-1.224.866-1.5l155.708-89.898Zm0 45.449c.478-.276.866-.052.866.5v23.971c0 .552-.388 1.224-.866 1.5l-155.708 89.898c-.478.276-.866.052-.866-.5v-23.971c0-.552.388-1.224.866-1.5l155.708-89.898Zm.866 45.949c0-.552-.388-.776-.866-.5l-155.708 89.898c-.478.276-.866.948-.866 1.5v23.971c0 .552.388.776.866.5l155.708-89.898c.478-.276.866-.948.866-1.5v-23.971Z" fill="#0070CC"/><path d="M467.029 378.532h.5-.5Zm-.866-.5.25.433-.25-.433Zm.866 50.442h-.5.5Zm-.866 1.5-.25-.433.25.433Zm-10.38 5.993-.25-.433.25.433Zm-21.625 12.485.25.433-.25-.433Zm-.866-.5h.5-.5Zm0-49.941h-.5.5Zm.866-1.5.25.433-.25-.433Zm21.625-12.486-.25-.433.25.433Zm11.246 121.115h.5-.5Zm-.866-.5-.25-.433.25.433Zm.866 24.471h.5-.5Zm-.866 1.5-.25-.433.25.433Zm-155.708 89.898.25.433-.25-.433Zm0-25.971-.25-.433.25.433Zm156.574-43.949h.5-.5Zm-.866-.5-.25-.433.25.433Zm.866 24.471h.5-.5Zm-.866 1.5-.25-.433.25.433Zm-155.708 89.898-.25-.433.25.433Zm0-25.971.25.433-.25-.433Zm155.708-44.449-.25-.433.25.433Zm.866.5h.5-.5Zm-156.574 89.398-.25-.433.25.433Zm0 25.971-.25-.433.25.433Zm155.708-89.898-.25-.433.25.433Zm.866-1.5h.5-.5Zm-.5-241.477a.35.35 0 0 0-.021-.139c-.006-.012-.003 0 .018.012.02.012.032.008.019.009a.373.373 0 0 0-.132.051l-.5-.866c.33-.19.747-.271 1.113-.06.365.211.503.612.503.993h-1Zm0 49.942v-49.942h1v49.942h-1Zm-.616 1.067a1.29 1.29 0 0 0 .43-.463c.124-.216.186-.436.186-.604h1c0 .385-.131.776-.32 1.104-.189.327-.463.637-.796.829l-.5-.866Zm-10.38 5.993 10.38-5.993.5.866-10.38 5.993-.5-.866Zm-21.625 12.485 21.625-12.485.5.866-21.625 12.485-.5-.866Zm-.116-.067c0 .082.015.125.022.14.005.012.003 0-.018-.012-.021-.012-.033-.008-.019-.01a.338.338 0 0 0 .131-.051l.5.866c-.33.191-.746.272-1.112.061-.366-.211-.504-.612-.504-.994h1Zm0-49.941v49.941h-1v-49.941h1Zm.616-1.067a1.263 1.263 0 0 0-.429.463 1.274 1.274 0 0 0-.187.604h-1c0-.385.132-.777.321-1.104.189-.327.462-.637.795-.829l.5.866Zm21.625-12.486-21.625 12.486-.5-.866 21.625-12.486.5.866Zm10.38-5.993-10.38 5.993-.5-.866 10.38-5.993.5.866Zm.116 126.675a.35.35 0 0 0-.021-.139c-.006-.012-.003-.001.018.012.02.012.032.008.019.009a.373.373 0 0 0-.132.051l-.5-.866c.33-.19.747-.272 1.113-.06.365.211.503.612.503.993h-1Zm0 23.971V505.14h1v23.971h-1Zm-.616 1.067a1.29 1.29 0 0 0 .43-.463c.124-.216.186-.436.186-.604h1c0 .385-.131.776-.32 1.104-.189.327-.463.637-.796.829l-.5-.866Zm-155.708 89.898 155.708-89.898.5.866-155.708 89.898-.5-.866Zm-.116-.067c0 .082.015.124.022.139.005.013.003.001-.018-.011-.021-.012-.033-.009-.019-.01a.332.332 0 0 0 .131-.051l.5.866c-.33.191-.746.272-1.112.061-.366-.212-.504-.613-.504-.994h1Zm0-23.971v23.971h-1v-23.971h1Zm.616-1.067a1.275 1.275 0 0 0-.429.464 1.271 1.271 0 0 0-.187.603h-1c0-.384.132-.776.321-1.103.189-.328.462-.637.795-.83l.5.866Zm155.708-89.898-155.708 89.898-.5-.866 155.708-89.898.5.866Zm.116 45.516a.35.35 0 0 0-.021-.139c-.006-.013-.003-.001.018.011.02.013.032.009.019.01a.353.353 0 0 0-.132.051l-.5-.866c.33-.191.747-.272 1.113-.061.365.212.503.613.503.994h-1Zm0 23.971v-23.971h1v23.971h-1Zm-.616 1.067a1.29 1.29 0 0 0 .43-.463c.124-.216.186-.436.186-.604h1c0 .385-.131.776-.32 1.104-.189.327-.463.637-.796.829l-.5-.866Zm-155.708 89.898 155.708-89.898.5.866-155.708 89.898-.5-.866Zm-.116-.067c0 .081.015.124.022.139.005.013.003.001-.018-.011-.021-.012-.033-.009-.019-.01a.332.332 0 0 0 .131-.051l.5.866c-.33.191-.746.272-1.112.061-.366-.212-.504-.613-.504-.994h1Zm0-23.971v23.971h-1v-23.971h1Zm.616-1.067a1.275 1.275 0 0 0-.429.464 1.268 1.268 0 0 0-.187.603h-1c0-.384.132-.776.321-1.103.189-.328.462-.638.795-.83l.5.866Zm155.708-89.898L310.705 640.42l-.5-.866 155.708-89.898.5.866Zm-.5 44.583c.33-.191.747-.272 1.113-.061.365.212.503.613.503.994h-1a.35.35 0 0 0-.021-.139c-.006-.013-.003-.001.018.011.02.013.032.009.019.01a.353.353 0 0 0-.132.051l-.5-.866Zm-155.708 89.898 155.708-89.898.5.866-155.708 89.898-.5-.866Zm-1.116 1.933c0-.384.132-.776.321-1.103.189-.328.462-.638.795-.83l.5.866a1.275 1.275 0 0 0-.429.464 1.268 1.268 0 0 0-.187.603h-1Zm0 23.971v-23.971h1v23.971h-1Zm1.616.933c-.33.191-.746.272-1.112.061-.366-.212-.504-.613-.504-.994h1c0 .081.015.124.022.139.005.013.003.001-.018-.011-.021-.012-.033-.009-.019-.01a.332.332 0 0 0 .131-.051l.5.866Zm155.708-89.898L310.705 711.84l-.5-.866 155.708-89.898.5.866Zm1.116-1.933c0 .385-.131.776-.32 1.104-.189.327-.463.637-.796.829l-.5-.866a1.29 1.29 0 0 0 .43-.463c.124-.216.186-.436.186-.604h1Zm0-23.971v23.971h-1v-23.971h1Z" fill="#fff"/><path d="m182.392 266.004 84.953 49.048-3.634-143.942 47.451 27.396-80.477-143.407-93.524 54.172 46.686 26.954-1.455 129.779Z" fill="#0070CC" stroke="#fff" stroke-linejoin="round"/><path d="m307.042 286.948-40.051 27.899-3.527-144.047 42.727 24.668.851 91.48Z" fill="#0070CC" stroke="#fff" stroke-linejoin="round"/><path d="m311.163 198.506 38.576-22.628-82.33-142.436L226.18 57.6" stroke="#fff" stroke-linecap="round" stroke-linejoin="round"/></svg>