<svg width="217" height="206" fill="none" xmlns="http://www.w3.org/2000/svg"><rect width="217" height="206" rx="10" fill="#E8F2FA"/><path d="M58.771 111.162v-1.569c-1.09 1.709-2.572 2.802-4.445 3.222a9.157 9.157 0 0 1-5.535-.448c-1.846-.729-3.411-2.102-4.725-4.091-1.314-1.99-1.985-4.595-1.985-7.846 0-3.81.867-6.865 2.6-9.247 1.733-2.353 4.529-3.53 8.387-3.53 2.935 0 5.647.784 8.163 2.382 2.516 1.597 3.746 4.539 3.746 8.826v12.946c0 4.287-1.258 7.201-3.746 8.77-2.516 1.569-5.228 2.354-8.163 2.354-5.62 0-9.114-2.634-10.456-7.902h6.682c.475.869 1.23 1.513 2.236 1.989 1.007.449 2.013.589 3.02.365 1.006-.225 1.928-.813 2.74-1.794.866-1.008 1.341-2.465 1.481-4.427Zm-10.456-10.564c0 4.231 1.23 6.585 3.663 7.033 2.432.449 4.249-.112 5.395-1.709.56-.672.95-1.737 1.202-3.166.252-1.429.252-2.858.056-4.287-.224-1.401-.727-2.662-1.51-3.755-.782-1.093-1.956-1.653-3.494-1.653-2.069 0-3.495.756-4.221 2.297-.727 1.514-1.09 3.279-1.09 5.24Zm39.559 12.32H84.62c-.933 0-1.697-.284-2.262-.879-.594-.595-.877-1.361-.877-2.268V97.124c0-1.475-.452-2.58-1.357-3.261-.905-.68-1.895-1.021-3.026-1.021-1.103 0-2.093.34-2.97 1.02-.876.681-1.3 1.759-1.3 3.262v15.822h-6.505V98.428c0-4.225 1.103-7.032 3.28-8.45 2.206-1.418 4.61-2.212 7.269-2.325 2.715 0 5.231.709 7.522 2.126 2.29 1.418 3.422 4.31 3.422 8.65v14.489h.057Zm2.02-22.603h6.06v22.631h-6.06V90.315Zm18.182 22.564c-2.02.112-4.209.084-6.566-.084-2.357-.197-3.535-1.685-3.535-4.521v-23.95h3.311c.786 0 1.515.31 2.104.927.618.618.926 1.348.926 2.218v.843h3.76v1.291c0 .927-.308 1.685-.926 2.246-.617.59-1.347.87-2.216.87h-.646v13.787c0 1.038.618 1.572 1.852 1.572h1.936v4.801Z" fill="#000"/><path d="M125.932 105.007h4.67c-.683 2.563-1.993 4.513-3.93 5.85-1.936 1.393-4.357 2.089-7.29 2.089-3.56 0-6.322-1.114-8.316-3.37-1.993-2.201-2.99-5.321-2.99-9.416 0-3.9.968-6.936 2.905-9.137 1.993-2.256 4.756-3.37 8.315-3.37 3.731 0 6.636 1.086 8.686 3.287 1.994 2.256 2.99 5.376 2.99 9.415v1.003c0 .307-.028.529-.085.641H114.74c.057 1.894.541 3.287 1.395 4.206.798.975 2.022 1.449 3.646 1.449 1.053 0 1.965-.223 2.705-.641.199-.056.37-.167.513-.334l.512-.502c.057-.195.285-.418.712-.724.399-.279.968-.446 1.709-.446Zm-11.192-7.103h9.54c-.114-1.644-.569-2.87-1.31-3.65-.797-.863-1.965-1.28-3.446-1.28-1.367 0-2.477.417-3.36 1.28-.911.837-1.367 2.062-1.424 3.65ZM34 79h3.455c.908 0 1.669.312 2.313.935.644.623.966 1.36.966 2.239v30.773H34V79Zm55.894 5.325h3.11c.816 0 1.501.323 2.081.97.58.648.87 1.413.87 2.325v2.03h-6.061v-5.325Z" fill="#000"/><path d="M77.938 128.195v-.621l10.433-6.141.842 1.327-8.794 5.028 8.816 4.944-.842 1.284-10.456-5.821Zm21.544 3.638c0-.457-.184-.806-.553-1.049-.37-.256-.828-.456-1.374-.599a22.118 22.118 0 0 0-1.794-.428 10.592 10.592 0 0 1-1.772-.513 4.11 4.11 0 0 1-1.374-.856c-.369-.371-.553-.885-.553-1.541 0-.542.118-1.006.354-1.391a3.03 3.03 0 0 1 .975-.942 4.182 4.182 0 0 1 1.395-.556 7.073 7.073 0 0 1 1.662-.193c1.033 0 1.92.129 2.658.386.753.242 1.351.499 1.794.77l-.709 1.348a16.195 16.195 0 0 0-1.595-.727c-.561-.243-1.27-.364-2.126-.364-.325 0-.65.035-.975.107-.31.057-.598.15-.864.278a1.78 1.78 0 0 0-.62.514c-.148.199-.222.449-.222.749 0 .37.185.656.554.855.37.2.827.371 1.373.514.547.128 1.138.257 1.773.385a8.43 8.43 0 0 1 1.794.514 4.013 4.013 0 0 1 1.373.92c.369.385.554.906.554 1.562 0 .984-.406 1.798-1.218 2.44-.798.641-2.001.962-3.61.962-.488 0-.968-.042-1.44-.128a9.115 9.115 0 0 1-2.46-.813 5.263 5.263 0 0 1-.841-.556l.886-1.391c.177.171.413.349.709.535.295.171.62.328.974.47.355.143.731.257 1.13.343.413.085.827.128 1.24.128.4 0 .768-.028 1.108-.085.354-.072.665-.172.93-.3a1.73 1.73 0 0 0 .62-.535 1.36 1.36 0 0 0 .244-.813Zm11.178-7.811h3.146v7.297c0 .699.044 1.37.133 2.012h1.484v1.391h-2.946l-.067-1.819h-.088a4.575 4.575 0 0 1-1.529 1.498c-.635.385-1.403.577-2.304.577-.679 0-1.262-.078-1.75-.235a2.403 2.403 0 0 1-1.174-.77c-.31-.371-.539-.863-.686-1.477-.148-.628-.222-1.405-.222-2.332v-4.708h-1.484v-1.434h3.212v5.799c0 .585.022 1.113.066 1.584.059.456.17.849.333 1.177.162.314.398.556.708.727.325.157.754.236 1.285.236.768 0 1.433-.243 1.994-.728a4.598 4.598 0 0 0 1.307-1.819v-5.542h-1.418v-1.434Zm10.602 10.7v-7.126c0-.3-.015-.585-.044-.856a2.28 2.28 0 0 0-.155-.749 1.084 1.084 0 0 0-.355-.535c-.147-.128-.347-.193-.598-.193-.502 0-.93.2-1.285.6-.339.399-.598.898-.775 1.497v7.362h-1.683v-10.7h1.151l.333 1.306h.088c.148-.214.288-.414.421-.6.148-.199.31-.371.488-.513a2.02 2.02 0 0 1 .664-.321c.251-.086.569-.129.953-.129.221 0 .45.036.686.107.237.058.451.157.643.3.206.128.384.307.531.535a2 2 0 0 1 .288.835c.34-.557.717-.992 1.13-1.306.428-.314 1.012-.471 1.75-.471.487 0 .879.079 1.174.236.31.157.546.385.709.685.177.285.295.634.354 1.048.074.4.111.849.111 1.348v7.64h-1.683v-7.276c0-.3-.015-.578-.045-.834a2.346 2.346 0 0 0-.177-.707 1.035 1.035 0 0 0-.332-.47c-.133-.115-.318-.172-.554-.172-.517 0-.953.2-1.307.6-.354.399-.62.97-.797 1.711v7.148h-1.684Zm12.839 0v-7.126c0-.3-.014-.585-.044-.856a2.255 2.255 0 0 0-.155-.749 1.09 1.09 0 0 0-.354-.535c-.148-.128-.348-.193-.599-.193-.502 0-.93.2-1.284.6-.34.399-.598.898-.776 1.497v7.362h-1.683v-10.7h1.152l.332 1.306h.089c.147-.214.288-.414.42-.6.148-.199.311-.371.488-.513a2.02 2.02 0 0 1 .664-.321c.251-.086.569-.129.953-.129.221 0 .45.036.687.107.236.058.45.157.642.3.207.128.384.307.532.535.147.228.243.506.288.835.339-.557.716-.992 1.129-1.306.429-.314 1.012-.471 1.75-.471.488 0 .879.079 1.174.236.31.157.547.385.709.685.177.285.295.634.355 1.048.073.4.11.849.11 1.348v7.64h-1.683v-7.276c0-.3-.015-.578-.045-.834a2.346 2.346 0 0 0-.177-.707 1.028 1.028 0 0 0-.332-.47c-.133-.115-.318-.172-.554-.172-.517 0-.952.2-1.307.6-.354.399-.62.97-.797 1.711v7.148h-1.684Zm9.362 0v-1.434h3.854v-7.832h-3.854v-1.434h5.626v9.266h3.766v1.434h-9.392Zm3.256-13.738c0-.386.133-.714.399-.985a1.332 1.332 0 0 1 1.019-.428c.428 0 .782.143 1.063.428.295.271.443.599.443.985 0 .371-.148.684-.443.941-.281.257-.635.385-1.063.385-.414 0-.753-.128-1.019-.385a1.258 1.258 0 0 1-.399-.941Zm7.944 3.038h2.636v-2.118l1.728-.471v2.589h5.914v1.434h-5.914v5.05c0 1.042.258 1.812.775 2.311.532.499 1.285.749 2.259.749.665 0 1.241-.121 1.728-.364a9.12 9.12 0 0 0 1.351-.791l.576 1.262c-.517.4-1.137.721-1.86.963a6.717 6.717 0 0 1-2.193.364 5.468 5.468 0 0 1-1.684-.257 3.757 3.757 0 0 1-1.373-.749 3.65 3.65 0 0 1-.953-1.305c-.236-.542-.354-1.184-.354-1.926v-5.307h-2.636v-1.434Zm13.991 9.994-.842-1.284 8.816-4.944-8.794-5.028.842-1.327 10.433 6.141v.621l-10.455 5.821Z" fill="#ED1C24"/><path d="M150.162 87.768a15.332 15.332 0 0 1 9.869-3.625c7.387 0 13.519 5.403 14.187 12.37 4.371.607 7.782 4.208 7.782 8.627 0 4.852-4.114 8.717-9.098 8.717h-24.457c-5.692 0-10.383-4.414-10.383-9.946 0-4.762 3.477-8.706 8.08-9.706.392-2.33 1.916-4.654 4.02-6.437Z" fill="#0061B0"/><path d="m153.593 98.007.477.122c-.1.397-.28.7-.541.909-.26.208-.577.311-.953.311-.39 0-.706-.08-.951-.239a1.516 1.516 0 0 1-.557-.697 2.53 2.53 0 0 1-.189-.979c0-.38.071-.711.214-.994.144-.284.349-.498.613-.645.266-.147.558-.221.877-.221.361 0 .665.093.911.279.246.186.418.447.515.784l-.47.112c-.084-.265-.206-.459-.365-.58a.964.964 0 0 0-.601-.182c-.277 0-.51.067-.697.202a1.074 1.074 0 0 0-.392.543 2.207 2.207 0 0 0-.113.7c0 .31.045.582.133.814.09.23.23.404.419.518.189.115.393.172.613.172.268 0 .494-.078.68-.234.185-.156.311-.388.377-.695Zm1.049 1.28v-3.651h.478v3.22h1.778v.431h-2.256Zm2.682-1.778c0-.606.161-1.08.483-1.422.322-.344.737-.516 1.246-.516.333 0 .634.08.901.242.268.16.472.386.611.675.141.287.212.613.212.978 0 .37-.074.702-.222.994a1.531 1.531 0 0 1-.628.665 1.78 1.78 0 0 1-.877.224c-.339 0-.643-.083-.911-.249a1.6 1.6 0 0 1-.608-.68 2.078 2.078 0 0 1-.207-.911Zm.493.007c0 .44.116.787.349 1.041.235.253.529.379.882.379.36 0 .655-.128.887-.384.233-.255.349-.618.349-1.088 0-.297-.05-.556-.15-.777a1.16 1.16 0 0 0-1.079-.7c-.338 0-.629.118-.874.354-.243.234-.364.626-.364 1.175Zm5.947-1.88h.478v2.11c0 .366-.041.658-.123.874a1.068 1.068 0 0 1-.446.527c-.213.135-.494.202-.842.202-.338 0-.615-.059-.83-.177a1.007 1.007 0 0 1-.461-.51c-.092-.224-.138-.53-.138-.917v-2.109h.478v2.107c0 .317.029.551.086.702.06.15.16.265.301.346.143.082.317.122.522.122.351 0 .602-.08.751-.241.15-.161.224-.47.224-.93v-2.106Zm1.276 3.651v-3.651h1.244c.281 0 .495.017.643.052.207.049.383.136.529.262.191.162.333.37.426.625.096.252.143.541.143.867 0 .277-.032.523-.096.737a1.819 1.819 0 0 1-.246.533c-.1.14-.21.25-.33.33-.118.08-.262.141-.431.183a2.42 2.42 0 0 1-.579.062h-1.303Zm.478-.43h.771c.238 0 .424-.023.559-.068a.797.797 0 0 0 .325-.19c.113-.114.201-.267.264-.46.064-.194.096-.43.096-.705 0-.382-.063-.675-.188-.879-.123-.206-.273-.344-.45-.413-.128-.05-.334-.075-.618-.075h-.759v2.79Zm-15.893 8.081v-3.651h2.611v.43h-2.133v1.119h1.997v.428h-1.997v1.243h2.216v.431h-2.694Zm3.354 0v-3.651h1.244c.281 0 .495.017.643.052.207.048.383.135.53.261.19.163.332.372.426.626.095.252.142.541.142.866 0 .277-.032.523-.096.737a1.807 1.807 0 0 1-.246.533c-.1.14-.21.25-.33.332-.118.079-.262.14-.431.181-.167.042-.36.063-.579.063h-1.303Zm.478-.431h.771c.238 0 .425-.023.559-.067a.793.793 0 0 0 .325-.19 1.14 1.14 0 0 0 .264-.46c.064-.195.096-.43.096-.705 0-.382-.063-.675-.187-.879-.123-.206-.274-.344-.451-.414-.128-.05-.334-.075-.618-.075h-.759v2.79Zm3.249.431v-3.651h.478v3.651h-.478Zm2.241 0v-3.221h-1.19v-.43h2.862v.43h-1.194v3.221h-.478Zm2.246 0v-3.651h.478v3.651h-.478Zm1.177-1.779c0-.606.161-1.08.483-1.422.322-.343.737-.515 1.246-.515.334 0 .634.08.902.241.267.162.471.386.611.675.141.288.211.614.211.979 0 .37-.074.702-.221.994a1.532 1.532 0 0 1-.628.665 1.794 1.794 0 0 1-.877.224 1.69 1.69 0 0 1-.911-.249 1.598 1.598 0 0 1-.609-.68 2.078 2.078 0 0 1-.207-.912Zm.493.008c0 .44.117.787.35 1.041.235.252.528.378.881.378.36 0 .656-.127.887-.383.233-.256.35-.619.35-1.088 0-.298-.05-.557-.15-.777a1.161 1.161 0 0 0-1.079-.7c-.338 0-.63.118-.875.353-.243.235-.364.626-.364 1.176Zm3.574 1.771v-3.651h.49l1.896 2.866v-2.866h.458v3.651h-.49l-1.896-2.869v2.869h-.458Z" fill="#fff"/></svg>