<svg width="499" height="499" fill="none" xmlns="http://www.w3.org/2000/svg"><path d="m249.393 488.742-.15-.082c-60.446-34.359-109.512-169.535-109.226-301.331v-.477h.45c123.127-16.559 272.437-2.112 332.855 32.206l.259.15v.3c-.245 131.85-100.788 252.634-224.011 269.207l-.177.027ZM141.094 187.779c-.123 131.21 48.52 265.609 108.557 299.845C372.315 471.038 472.219 350.936 472.6 219.726c-60.378-34.032-208.842-48.37-331.506-31.947Z" fill="#fff"/><path d="M361.889 440.889c-30.339-17.241-105.437-24.532-167.382-16.164l-.136-1.009c62.136-8.354 137.52-1.049 168.022 16.274l-.504.899Zm80.195-96.468c-51.996-29.535-180.63-41.965-286.748-27.695l-.136-1.008c106.309-14.298 235.229-1.813 287.388 27.817l-.504.886Z" fill="#fff"/><path d="m249.692 488.687-.395-.94c75.616-31.525 137.329-164.097 137.575-295.539h1.022c-.245 131.823-62.245 264.818-138.202 296.479Z" fill="#fff"/><path d="m249.992 488.347-.995-.259c10.004-37.917 18.332-175.819 18.577-307.423h1.022c-.245 131.673-8.586 269.697-18.604 307.682Z" fill="#fff"/><path d="M221.507 490.623c-46.776 0-90.444-16.083-125.213-46.544a198.171 198.171 0 0 1-51.246-70.873c-12.47-28.621-18.781-60.119-18.754-93.483-18.7-10.699-27.368-22.611-25.078-34.469 4.947-25.133 58.252-47.498 139.251-58.402l.572-.081v.586c-.245 131.468 48.521 266.249 108.708 300.445l1.363.749-1.499.191a210.834 210.834 0 0 1-28.104 1.881Zm-81.503-302.708C59.781 198.819 7.009 220.83 2.224 245.513c-2.22 11.449 6.366 23.047 24.834 33.528l.26.15v.341c-.069 33.337 6.214 64.753 18.658 93.374a197.356 197.356 0 0 0 51 70.45c41.039 35.955 94.602 51.792 150.959 44.582-59.778-35.532-108.012-169.358-107.917-300.023h-.013Z" fill="#fff"/><path d="M136.773 471.146c-9.622-5.451-14.079-11.598-12.893-17.718 2.481-12.811 29.467-24.192 70.436-29.698l.137 1.009c-40.52 5.451-67.166 16.518-69.51 28.894-1.104 5.656 3.189 11.408 12.389 16.641l-.559.872Zm-79.922-74.92c-16.355-9.268-23.906-19.626-21.902-29.985 4.225-21.807 50.292-41.147 120.251-50.551l.137 1.009c-69.51 9.349-115.25 28.403-119.393 49.733-1.909 9.854 5.451 19.845 21.411 28.881l-.504.913Z" fill="#fff"/><path d="M249.406 488.715C134.92 467.426 42.104 342.881 42.349 210.962h1.023c-.246 131.401 92.257 255.55 206.211 276.744l-.177 1.009Z" fill="#fff"/><path d="M249.488 488.728C112.472 485.703 1.298 375.932 1.543 244.014h1.022C2.32 375.36 113.1 484.68 249.502 487.693l-.014 1.035Z" fill="#fff"/><path d="M277.087 496.674a56.227 56.227 0 0 1-27.694-7.932c-57.135 7.646-111.488-8.178-153.085-44.663a198.172 198.172 0 0 1-51.246-70.873c-12.512-28.744-18.822-60.31-18.754-93.783v-.873l.763.423c60.242 34.237 209.278 48.629 332.201 32.097l.586-.082v.586c-.163 89-22.856 157.405-59.205 178.544a46.335 46.335 0 0 1-23.566 6.556Zm-27.49-8.995.15.095c17.718 10.086 34.727 10.604 50.428 1.499 35.968-20.88 58.443-88.699 58.702-177.045-122.5 16.356-270.706 2.086-331.506-31.865 0 33.01 6.324 64.126 18.658 92.502a197.364 197.364 0 0 0 51.001 70.45c41.406 36.282 95.542 52.051 152.444 44.391l.123-.027Z" fill="#fff"/><path d="M250.565 490.882c-46.722 0-91.848-7.265-113.792-19.736l.505-.886c30.338 17.242 105.436 24.533 167.381 16.151l.137 1.022a412.156 412.156 0 0 1-54.231 3.449Zm.845-60.91c-79.909 0-157.065-12.443-194.559-33.746l.504-.886c51.996 29.549 180.616 41.965 286.748 27.695l.123 1.009a703.792 703.792 0 0 1-92.816 5.928Z" fill="#fff"/><path d="M244.5 498.473h-.232c-9.2-1.199-13.152-91.316-12.989-180.166h1.022c-.218 116.531 5.929 178.326 12.103 179.13.654.123 2.317-.681 4.593-9.349l.995.259c-1.812 6.882-3.571 10.126-5.492 10.126Z" fill="#fff"/><path d="M277.087 496.674c-9.077 0-18.454-2.726-27.844-8.014l-1.363-.749 1.512-.205a229.884 229.884 0 0 0 76.502-24.764c20.662-32.411 32.779-86.329 32.901-151.286v-.45h.436c44.691-6.01 80.904-15.483 105.11-26.959a266.502 266.502 0 0 0 8.177-64.698v-.872l.764.422c18.876 10.727 27.626 22.707 25.323 34.619-2.167 11.189-13.902 21.807-33.378 31.17-19.49 76.774-71.623 143.517-138.638 178.912-7.578 11.831-16.355 20.799-25.977 26.428a46.335 46.335 0 0 1-23.525 6.446Zm-26.004-8.177c17.282 9.377 33.787 9.636 49.065.763 9.145-5.302 17.418-13.629 24.669-24.601a230.332 230.332 0 0 1-73.734 23.851v-.013Zm108.775-176.418c-.177 63.948-11.98 117.212-32.138 149.922 65.775-35.341 116.926-101.061 136.294-176.622-24.22 11.38-60.078 20.757-104.156 26.713v-.013Zm113.71-91.726a267.09 267.09 0 0 1-8.001 63.24c18.727-9.063 29.985-19.353 32.07-30.148 2.195-11.271-6.133-22.706-24.069-33.078v-.014Z" fill="#fff"/><path d="m304.796 487.433-.136-1.022c40.52-5.451 67.178-16.505 69.577-28.88 1.091-5.656-3.203-11.408-12.402-16.642l.504-.899c9.622 5.451 14.079 11.598 12.893 17.718-2.439 12.825-29.466 24.206-70.436 29.725Zm39.375-63.43-.123-1.009c69.51-9.35 115.236-28.403 119.38-49.733 1.908-9.854-5.452-19.845-21.398-28.881l.504-.886c16.355 9.282 23.892 19.64 21.902 29.985-4.17 21.793-50.251 41.16-120.265 50.524Z" fill="#fff"/><path d="M282.444 491.808a180.476 180.476 0 0 1-33.038-3.093l.177-1.009c50.252 9.35 98.745-2.726 136.553-34.073 44.595-37.004 70.245-97.341 70.381-165.57h1.023c-.137 68.529-25.896 129.166-70.75 166.278a161.585 161.585 0 0 1-104.346 37.467Z" fill="#fff"/><path d="M255.335 488.783h-5.847v-1.022c67.806 1.485 131.073-23.075 178.285-69.183 44.718-43.614 69.415-101.743 69.51-163.552h1.022c-.109 62.095-24.914 120.443-69.823 164.302-46.026 44.895-107.331 69.455-173.147 69.455Zm218.233-268.43-.763-.422c-60.242-34.237-209.265-48.63-332.202-32.097l-.586.081v-.586c.164-89.013 22.857-157.418 59.22-178.544 15.728-9.132 33.446-8.64 51.246 1.363 57.121-7.632 111.488 8.178 153.085 44.663a198.336 198.336 0 0 1 51.246 70.873c12.512 28.744 18.822 60.296 18.768 93.783l-.014.886Zm-225.593-40.397c92.026 0 180.875 14.243 224.584 38.653 0-33.024-6.337-64.14-18.672-92.503a197.417 197.417 0 0 0-51.001-70.463c-41.406-36.282-95.514-52.037-152.43-44.39h-.177l-.15-.083C232.411 1.07 215.401.567 199.7 9.657c-35.913 20.908-58.388 88.727-58.606 177.086a815.817 815.817 0 0 1 106.881-6.787Z" fill="#fff"/><path d="M442.534 103.632c-52.023-29.549-180.643-41.965-286.748-27.695l-.136-1.022c106.309-14.298 235.215-1.813 287.388 27.817l-.504.9Zm-79.936-74.88C332.259 11.51 257.175 4.219 195.216 12.602l-.136-1.01c62.136-8.354 137.52-1.063 168.022 16.274l-.504.886Z" fill="#fff"/><path d="M387.894 192.209h-1.022c.15-82.73-23.893-148.247-64.317-175.246C301.007 2.556 276.12.607 250.578 11.225l-.395-.954c25.896-10.781 51.083-8.75 72.944 5.833 40.711 27.204 64.917 93.061 64.767 176.105Z" fill="#fff"/><path d="M268.596 180.664h-1.022c.273-116.476-5.929-178.34-12.103-179.17-.613-.096-2.303.667-4.593 9.349l-.995-.259c1.895-7.155 3.735-10.358 5.725-10.113 9.199 1.227 13.152 91.385 12.988 180.193Z" fill="#fff"/><path d="m27.33 280.363-.763-.422c-18.89-10.727-27.64-22.707-25.337-34.619 2.18-11.19 13.902-21.807 33.378-31.17 19.49-76.788 71.622-143.53 138.651-178.926 7.578-11.83 16.355-20.798 25.978-26.427 15.769-9.16 33.541-8.641 51.396 1.499l1.363.75-1.499.204a229.874 229.874 0 0 0-76.556 24.764c-20.662 32.41-32.711 86.329-32.902 151.286v.45h-.436c-44.69 6.01-80.89 15.483-105.096 26.959a266.503 266.503 0 0 0-8.177 64.698v.954Zm6.978-64.998c-18.713 9.063-29.985 19.353-32.07 30.148-2.194 11.285 6.133 22.72 24.07 33.092a267.136 267.136 0 0 1 8-63.24ZM172.169 36.929C106.38 72.366 55.229 138.018 35.807 213.593c24.274-11.381 60.133-20.758 104.21-26.714.177-63.962 11.98-117.24 32.152-149.95ZM222.87 3.224a45.44 45.44 0 0 0-23.17 6.447c-9.145 5.315-17.418 13.63-24.669 24.533a230.905 230.905 0 0 1 73.735-23.756c-8.869-4.807-17.5-7.215-25.896-7.224Z" fill="#fff"/><path d="M57.287 155.505c-16.355-9.282-23.892-19.64-21.889-29.985 4.212-21.807 50.293-41.147 120.252-50.551l.136 1.022c-69.51 9.336-115.25 28.404-119.393 49.734-1.908 9.854 5.452 19.83 21.398 28.867l-.504.913Zm80.25-96.537c-9.623-5.452-14.079-11.598-12.894-17.718 2.481-12.811 29.481-24.192 70.437-29.698l.136 1.008c-40.52 5.452-67.165 16.52-69.51 28.88-1.104 5.657 3.19 11.422 12.389 16.656l-.558.872Z" fill="#fff"/><path d="M43.372 210.963h-1.023c.123-68.542 25.896-129.18 70.75-166.36 38.04-31.566 86.833-43.764 137.37-34.36l-.177 1.009c-50.251-9.35-98.744 2.726-136.552 34.073-44.595 37.058-70.246 97.409-70.368 165.638Z" fill="#fff"/><path d="M2.565 244.095H1.543C1.666 182 26.458 123.639 71.38 79.78c47.416-46.34 110.983-70.968 179.007-69.51v1.023c-67.765-1.5-131.059 23.074-178.271 69.182-44.745 43.682-69.428 101.716-69.55 163.62Z" fill="#fff"/><path d="M251.9 319.057c-92.556 0-181.91-14.447-225.292-39.116l-.26-.15v-.259C26.609 147.6 127.043 26.817 250.32 10.243h.164l.15.082c60.473 34.36 109.471 169.549 109.225 301.345v.45h-.449a814.708 814.708 0 0 1-107.509 6.937ZM27.33 279.191c60.337 34.073 208.829 48.425 331.506 32.002.136-131.21-48.507-265.622-108.557-299.846-122.61 16.52-222.567 136.621-222.95 267.844Z" fill="#fff"/><path d="M251.859 189.169c-79.908 0-157.064-12.43-194.572-33.732l.504-.9c51.955 29.589 180.63 41.978 286.748 27.695l.136 1.022a703.768 703.768 0 0 1-92.816 5.915Zm-.531-110.465c-46.721 0-91.848-7.279-113.791-19.736l.504-.886c30.352 17.228 105.436 24.533 167.395 16.151l.137 1.009a410.25 410.25 0 0 1-54.245 3.462Z" fill="#fff"/><path d="M232.301 318.307h-1.022c.246-131.673 8.6-269.697 18.604-307.682l.995.259c-10.004 37.903-18.331 175.818-18.577 307.423Z" fill="#fff"/><path d="M358.836 312.242v-.586c.245-131.482-48.52-266.262-108.707-300.445l-1.363-.75 1.512-.204c57.244-7.687 111.611 8.178 153.249 44.636a198.335 198.335 0 0 1 51.246 70.873c12.471 28.621 18.781 60.119 18.768 93.483 18.699 10.686 27.367 22.611 25.064 34.469-4.893 25.2-58.238 47.607-139.237 58.497l-.532.027ZM251.941 11.034C311.72 46.47 359.954 180.365 359.858 311.029c80.223-10.903 132.995-32.915 137.779-57.597 2.222-11.449-6.365-23.048-24.832-33.529l-.246-.149v-.3c0-33.338-6.228-64.753-18.672-93.375a197.416 197.416 0 0 0-51.001-70.463c-40.997-35.927-94.587-51.737-150.945-44.582Z" fill="#fff"/><path d="m344.675 183.254-.136-1.022c69.51-9.336 115.25-28.404 119.393-49.734 1.908-9.84-5.452-19.83-21.398-28.867l.504-.899c16.355 9.282 23.892 19.64 21.889 29.984-4.212 21.753-50.292 41.134-120.252 50.538ZM305.573 75.242l-.137-1.009c40.507-5.452 67.166-16.519 69.51-28.894 1.09-5.656-3.189-11.408-12.403-16.642l.504-.886c9.623 5.452 14.093 11.6 12.894 17.719-2.426 12.825-29.412 24.205-70.368 29.712Z" fill="#fff"/><path d="M457.54 288.009h-1.022c.245-131.4-92.271-255.563-206.226-276.757l.177-1.009C364.888 31.478 457.785 156.132 457.54 288.01Z" fill="#fff"/><path d="M498.332 254.999h-1.022c.245-131.36-110.534-240.68-246.936-243.693v-1.022C387.349 13.255 498.578 123.04 498.332 255Z" fill="#fff"/><path d="M249.079 498.528h-1.049l-3.721-.068h-1.663c-1.513 0-3.639-.109-5.452-.218a250.552 250.552 0 0 1-30.638-3.476 246.8 246.8 0 0 1-53.836-16.001 278.262 278.262 0 0 1-25.487-12.62 215.54 215.54 0 0 1-22.025-14.079c-1.2-.914-2.494-1.881-3.844-2.876-4.566-3.407-9.745-7.265-13.506-10.726a393.04 393.04 0 0 0-4.09-3.694c-3.23-2.903-6.582-5.915-9.226-8.573-4.634-4.661-10.495-10.985-14.57-15.728-5.765-6.706-12.975-16.628-22.066-30.312a214.143 214.143 0 0 1-10.494-18.699 189.091 189.091 0 0 1-8.737-19.299 388.658 388.658 0 0 1-11.64-37.208c-2.465-10.427-4.196-24.451-5.45-35.505-.572-5.179-.668-11.735-.736-17.514v-2.807a171.486 171.486 0 0 1 1.022-22.161c.246-1.868.49-3.939.75-6.093.559-4.756 1.145-9.677 1.853-13.725 1.159-6.596 3.012-15.114 4.62-21.193 1.555-5.874 3.858-13.384 5.739-18.672 1.594-4.512 3.911-10.086 5.956-14.993l2.071-5.042a169.671 169.671 0 0 1 10.072-19.845c5.289-8.927 13.494-21.18 20.894-31.224A169.002 169.002 0 0 1 68.817 78.73l3.708-3.734c2.97-3.013 6.35-6.447 9.213-8.996 5.33-4.743 13.016-11.094 19.585-16.192 4.689-3.639 11.286-7.96 13.902-9.65 3.844-2.48 9.009-5.45 13.166-7.904l1.227-.709a205.974 205.974 0 0 1 25.787-12.402c7.605-2.958 13.37-5.07 17.595-6.447 5.534-1.786 13.043-3.83 18.223-5.152 6.514-1.65 14.992-3.176 17.391-3.612 5.451-.954 9.949-1.485 14.692-2.03 1.731-.205 8.423-.832 12.035-1.01 4.933-.245 9.186-.463 16.45-.422 11.489.12 22.956 1.03 34.319 2.726 5.52.79 11.926 2.017 14.883 2.644 4.239.913 10.481 2.454 16.737 4.089 3.544.954 8.505 2.508 12.335 3.857 5.683 2.017 12.348 4.566 17.009 6.515 8.178 3.407 18.563 8.954 25.473 12.62 1.581.9 3.149 1.827 4.702 2.727 4.852 2.875 10.481 6.337 14.665 9.445a339.46 339.46 0 0 0 4.007 2.93c3.244 2.371 6.924 5.056 9.732 7.346a211.961 211.961 0 0 1 16.246 14.216c1.213 1.254 2.562 2.617 3.98 4.088 3.094 3.108 6.297 6.31 8.804 9.118 4.689 5.248 10.032 11.694 13.63 16.356 3.598 4.661 7.959 10.903 10.835 15.428 1.581 2.467 7.046 11.108 10.726 18.222a247.23 247.23 0 0 1 16.042 37.018c4.525 13.288 8.178 31.075 9.54 38.094 1.268 6.528 2.154 15.387 2.726 21.67.368 4.498.518 10.168.641 15.183 0 1.8.095 3.53.15 5.111.144 8.32-.284 16.64-1.281 24.901-.845 6.992-1.772 14.216-2.822 19.763-1.226 6.556-3.175 15.06-4.852 21.139-1.594 5.833-3.979 13.288-5.915 18.577-1.703 4.606-4.089 10.29-6.283 15.305l-1.976 4.648a178.001 178.001 0 0 1-8.736 17.023c-2.59 4.539-6.147 10.099-9.282 14.992l-2.303 3.707a199.395 199.395 0 0 1-14.229 18.795 262.436 262.436 0 0 1-25.228 26.128c-5.452 4.743-13.248 11.067-19.954 16.137-3.721 2.808-8.832 6.119-12.934 8.777l-.968.627a260.136 260.136 0 0 1-28.022 15.224c-3.393 1.499-12.034 5.275-18.753 7.755-5.03 1.854-12.267 4.198-18.128 5.834a259.008 259.008 0 0 1-26.154 5.901c-6.597 1.118-10.318 1.54-14.638 2.031-2.522.286-8.696.831-12.035.995-4.743.245-7.809.395-11.08.409h-4.321v-.014Zm1.05-497.035c-6.215 0-10.154.191-14.666.423-3.598.177-10.249.79-11.966.995-4.743.559-9.214 1.077-14.638 2.03-6.474 1.146-12.948 2.481-17.309 3.599-5.166 1.363-12.648 3.353-18.168 5.138-4.212 1.363-9.95 3.462-17.541 6.42a202.721 202.721 0 0 0-25.637 12.266l-1.227.709c-4.088 2.412-9.308 5.451-13.138 7.877-2.604 1.677-9.159 5.984-13.82 9.54-6.556 5.085-14.216 11.422-19.531 16.152-2.835 2.521-6.202 5.942-9.173 8.954l-3.707 3.735a165.093 165.093 0 0 0-14.924 17.336c-7.4 10.018-15.578 22.23-20.853 31.143a168.284 168.284 0 0 0-9.95 19.776c-.64 1.568-1.362 3.271-2.085 5.043-2.03 4.907-4.348 10.467-5.942 14.992-1.867 5.275-4.089 12.73-5.71 18.591-1.623 5.86-3.435 14.542-4.594 21.112-.709 4.02-1.295 8.927-1.853 13.629a399.104 399.104 0 0 1-.736 6.106 168.94 168.94 0 0 0-1.023 22.011v2.808c.082 5.752.178 12.266.75 17.405 1.227 11.039 2.944 25.023 5.452 35.436a383.531 383.531 0 0 0 11.612 37.099 188.18 188.18 0 0 0 8.682 19.19 211.16 211.16 0 0 0 10.426 18.59 320.861 320.861 0 0 0 21.998 30.217c4.089 4.729 9.895 11.039 14.515 15.687 2.63 2.631 5.956 5.629 9.186 8.532 1.445 1.295 2.835 2.535 4.09 3.68 3.734 3.434 8.9 7.278 13.438 10.672 1.363.995 2.644 1.962 3.843 2.875a215.05 215.05 0 0 0 21.903 13.998 278.03 278.03 0 0 0 25.391 12.58 246.689 246.689 0 0 0 84.147 19.394c1.759.109 3.871.191 5.384.218h1.649l3.707.068h5.37c3.244 0 6.311-.163 10.904-.395 3.407-.177 9.54-.722 12.062-1.008 4.293-.491 8.014-.914 14.57-2.018a254.901 254.901 0 0 0 26.059-5.874c5.792-1.622 13.043-3.966 18.045-5.806 6.706-2.467 15.306-6.228 18.699-7.741a261.1 261.1 0 0 0 27.872-15.129l.968-.64c4.089-2.645 9.186-5.956 12.88-8.737 6.692-5.056 14.501-11.367 19.899-16.082a262.12 262.12 0 0 0 25.119-26.033 196.578 196.578 0 0 0 14.147-18.685l2.344-3.68c3.121-4.88 6.665-10.413 9.254-14.992a178.8 178.8 0 0 0 8.71-16.887l1.976-4.661c2.14-5.002 4.566-10.672 6.256-15.252 1.935-5.261 4.306-12.689 5.901-18.495 1.663-6.065 3.612-14.515 4.839-21.043 1.022-5.534 1.949-12.744 2.794-19.708a179.549 179.549 0 0 0 1.281-24.738c0-1.594-.096-3.325-.15-5.138-.123-4.988-.259-10.644-.627-15.115-.518-6.256-1.363-15.074-2.726-21.548-1.363-7.019-5.057-24.737-9.541-37.971a246.593 246.593 0 0 0-15.96-36.922c-3.666-7.074-9.104-15.674-10.685-18.141-2.862-4.47-7.101-10.494-10.794-15.346-3.694-4.852-8.887-11.122-13.63-16.355-2.494-2.726-5.683-5.984-8.763-9.078-1.363-1.363-2.726-2.725-3.994-4.088a207.688 207.688 0 0 0-16.164-14.148l-.341-.286c42.946 38.162 67.997 95.324 68.828 159.859v3.775c-.177 131.945-100.72 252.729-223.943 269.302l-.137-1.009c122.787-16.518 222.854-136.838 223.126-268.225v-.477c0-78.273-35.668-146.038-95.773-182.51l-4.675-2.726c-6.883-3.653-17.309-9.186-25.378-12.58-4.634-1.935-11.285-4.484-16.955-6.488-3.802-1.363-8.736-2.89-12.266-3.83-6.229-1.676-12.457-3.216-16.682-4.088-2.944-.64-9.309-1.854-14.802-2.644a251.745 251.745 0 0 0-34.182-2.645h-1.717Z" fill="#fff"/><g clip-path="url(#a)"><path d="M57.209 94.458a94.496 94.496 0 0 1-11.133-11.18c-5.09-6.05-11.133-15.06-11.133-23.647a22.09 22.09 0 0 1 3.75-12.319 22.243 22.243 0 0 1 9.995-8.167 22.362 22.362 0 0 1 12.87-1.26c4.32.856 8.288 2.97 11.402 6.071a22.013 22.013 0 0 1 4.835 7.188 21.932 21.932 0 0 1 1.68 8.488c0 8.586-6.044 17.596-11.133 23.647a94.496 94.496 0 0 1-11.133 11.179Zm0-44.325a9.568 9.568 0 0 0-6.748 2.782 9.476 9.476 0 0 0-2.795 6.717 9.476 9.476 0 0 0 2.795 6.716 9.565 9.565 0 0 0 6.748 2.782 9.565 9.565 0 0 0 6.747-2.782 9.476 9.476 0 0 0 2.795-6.716 9.476 9.476 0 0 0-2.795-6.717 9.565 9.565 0 0 0-6.747-2.782Z" fill="#ED1C24"/></g><g clip-path="url(#b)"><path d="M458.209 222.458a94.412 94.412 0 0 1-11.133-11.179c-5.089-6.051-11.133-15.061-11.133-23.648a22.096 22.096 0 0 1 3.749-12.319 22.251 22.251 0 0 1 9.996-8.167 22.357 22.357 0 0 1 12.869-1.26 22.295 22.295 0 0 1 11.403 6.071 22.043 22.043 0 0 1 4.835 7.188 21.925 21.925 0 0 1 1.679 8.487c0 8.587-6.043 17.597-11.132 23.648a94.564 94.564 0 0 1-11.133 11.179Zm0-44.325a9.568 9.568 0 0 0-6.748 2.782 9.48 9.48 0 0 0-2.795 6.716 9.48 9.48 0 0 0 2.795 6.717 9.568 9.568 0 0 0 6.748 2.782 9.564 9.564 0 0 0 6.747-2.782 9.476 9.476 0 0 0 2.795-6.717 9.475 9.475 0 0 0-2.795-6.716 9.564 9.564 0 0 0-6.747-2.782Z" fill="#ED1C24"/></g><g clip-path="url(#c)"><path d="M222.209 301.458a94.412 94.412 0 0 1-11.133-11.179c-5.089-6.051-11.133-15.061-11.133-23.648a22.096 22.096 0 0 1 3.749-12.319 22.251 22.251 0 0 1 9.996-8.167 22.357 22.357 0 0 1 12.869-1.26 22.295 22.295 0 0 1 11.403 6.071 22.043 22.043 0 0 1 4.835 7.188 21.925 21.925 0 0 1 1.679 8.487c0 8.587-6.043 17.597-11.132 23.648a94.564 94.564 0 0 1-11.133 11.179Zm0-44.325a9.568 9.568 0 0 0-6.748 2.782 9.48 9.48 0 0 0-2.795 6.716 9.48 9.48 0 0 0 2.795 6.717 9.568 9.568 0 0 0 6.748 2.782 9.564 9.564 0 0 0 6.747-2.782 9.476 9.476 0 0 0 2.795-6.717 9.475 9.475 0 0 0-2.795-6.716 9.564 9.564 0 0 0-6.747-2.782Z" fill="#ED1C24"/></g><g clip-path="url(#d)"><path d="M332.209 122.458a94.412 94.412 0 0 1-11.133-11.179c-5.089-6.051-11.133-15.061-11.133-23.647a22.096 22.096 0 0 1 3.749-12.32 22.248 22.248 0 0 1 9.996-8.167 22.36 22.36 0 0 1 12.869-1.26 22.298 22.298 0 0 1 11.403 6.071 22.029 22.029 0 0 1 4.835 7.188 21.92 21.92 0 0 1 1.679 8.487c0 8.587-6.043 17.597-11.132 23.648a94.564 94.564 0 0 1-11.133 11.179Zm0-44.325a9.568 9.568 0 0 0-6.748 2.782 9.478 9.478 0 0 0-2.795 6.716 9.478 9.478 0 0 0 2.795 6.717 9.567 9.567 0 0 0 6.748 2.782 9.564 9.564 0 0 0 6.747-2.782 9.474 9.474 0 0 0 2.795-6.716 9.474 9.474 0 0 0-2.795-6.717 9.562 9.562 0 0 0-6.747-2.782Z" fill="#ED1C24"/></g><defs><clipPath id="a"><path fill="#fff" transform="translate(27.818 37.458)" d="M0 0h57v57H0z"/></clipPath><clipPath id="b"><path fill="#fff" transform="translate(428.818 165.458)" d="M0 0h57v57H0z"/></clipPath><clipPath id="c"><path fill="#fff" transform="translate(192.818 244.458)" d="M0 0h57v57H0z"/></clipPath><clipPath id="d"><path fill="#fff" transform="translate(302.818 65.458)" d="M0 0h57v57H0z"/></clipPath></defs></svg>