<svg width="32" height="32" fill="none" xmlns="http://www.w3.org/2000/svg"><mask id="a" style="mask-type:alpha" maskUnits="userSpaceOnUse" x="0" y="0" width="32" height="32"><path d="M32 16c0 8.837-7.163 16-16 16S0 24.837 0 16 7.163 0 16 0s16 7.163 16 16Z" fill="#C4C4C4"/></mask><g mask="url(#a)"><path d="M47 32V0h-61v32h61Z" fill="#012169"/><path d="M47 32-14 0l61 32Zm-61 0L47 0l-61 32Z" fill="#000"/><path fill-rule="evenodd" clip-rule="evenodd" d="M24.76 16 49 28.296 45.696 35 16.5 20.19-12.696 35-16 28.295 8.24 16-16 3.705-12.696-3 16.5 11.81 45.696-3 49 3.705 24.76 16Z" fill="#fff"/><path d="M47 32-14 0l61 32Zm-61 0L47 0l-61 32Z" fill="#000"/><path fill-rule="evenodd" clip-rule="evenodd" d="M21.516 16.5 48 29.626 45.794 34 16 19.234-13.794 34-16 29.626 10.484 16.5-16 3.374-13.794-1 16 13.766 45.794-1 48 3.374 21.516 16.5Z" fill="#C8102E"/><path d="M16.5 32V0v32ZM47 16h-61 61Z" fill="#000"/><path fill-rule="evenodd" clip-rule="evenodd" d="M10.412 9.613V0h12.176v9.613H47v12.774H22.588V32H10.412v-9.613H-14V9.613h24.412Z" fill="#fff"/><path d="M16.5 32V0v32ZM47 16h-61 61Z" fill="#000"/><path fill-rule="evenodd" clip-rule="evenodd" d="M12.847 12.168V0h7.306v12.168H47v7.664H20.153V32h-7.306V19.832H-14v-7.664h26.847Z" fill="#C8102E"/></g></svg>