<svg width="32" height="32" fill="none" xmlns="http://www.w3.org/2000/svg"><path d="M16.5 32a53.045 53.045 0 0 1-6.25-6.276C7.393 22.327 4 17.269 4 12.448a12.401 12.401 0 0 1 2.105-6.916A12.487 12.487 0 0 1 11.716.947 12.554 12.554 0 0 1 18.941.24a12.518 12.518 0 0 1 6.402 3.408 12.36 12.36 0 0 1 2.714 4.036c.628 1.51.948 3.13.943 4.764 0 4.82-3.393 9.88-6.25 13.276A53.06 53.06 0 0 1 16.5 32Zm0-24.884a5.37 5.37 0 0 0-3.788 1.562 5.32 5.32 0 0 0-1.57 3.77 5.32 5.32 0 0 0 1.57 3.77 5.37 5.37 0 0 0 3.788 1.563 5.37 5.37 0 0 0 3.788-1.562 5.32 5.32 0 0 0 1.57-3.77 5.32 5.32 0 0 0-1.57-3.771A5.37 5.37 0 0 0 16.5 7.116Z" fill="#2D2D2D"/></svg>