<svg width="326" height="188" fill="none" xmlns="http://www.w3.org/2000/svg"><path fill-rule="evenodd" clip-rule="evenodd" d="M59.644 187.993a56.187 56.187 0 0 0 1.837 0H264.52a56.016 56.016 0 0 0 1.837 0h.819v-.017c32.644-.898 58.825-27.029 58.825-59.133 0-32.672-27.115-59.157-60.563-59.157-3.67 0-7.264.318-10.754.93.005-.31.007-.62.007-.93 0-32.671-27.115-59.157-60.562-59.157-10.708 0-20.766 2.714-29.494 7.477C153.625 6.902 138.201 0 121.126 0 87.678 0 60.563 26.486 60.563 59.157a58.1 58.1 0 0 0 .958 10.536 62.31 62.31 0 0 0-.958-.007C27.115 69.686 0 96.17 0 128.843c0 31.67 25.478 57.527 57.505 59.083v.067h2.139Z" fill="#fff"/><rect x="85.669" y="118.908" width="39.184" height="48.472" rx="10" fill="#fff"/><rect x="85.669" y="118.908" width="39.184" height="48.472" rx="10" fill="#2D2D2D"/><path d="M93.599 70.868H213.75c11.045 0 20 8.954 20 20v36.551c0 11.046-8.955 20-20 20H93.599c-11.046 0-20-8.954-20-20V90.868c0-11.046 8.954-20 20-20Z" stroke="#2D2D2D" stroke-width="2"/><path fill-rule="evenodd" clip-rule="evenodd" d="M107.224 129.445a2 2 0 0 1 2-2h.995a2 2 0 0 1 2 2v.047c.473.149.928.338 1.36.565l.033-.033a1.997 1.997 0 0 1 2.827 0l.705.705a2.002 2.002 0 0 1 0 2.83l-.033.033c.226.433.415.888.563 1.361h.046a2 2 0 0 1 2 2v1a2 2 0 0 1-2 2h-.046a8.293 8.293 0 0 1-.563 1.361l.033.034a2.002 2.002 0 0 1 0 2.83l-.705.705a1.997 1.997 0 0 1-2.827 0l-.033-.033a8.374 8.374 0 0 1-1.36.564v.048a2 2 0 0 1-2 2h-.995a2 2 0 0 1-2-2v-.048a8.364 8.364 0 0 1-1.359-.564l-.034.033a1.997 1.997 0 0 1-2.827 0l-.704-.705a2.002 2.002 0 0 1 0-2.83l.033-.034a8.312 8.312 0 0 1-.564-1.361h-.046a2 2 0 0 1-2-2v-1a2 2 0 0 1 2-2h.046c.148-.473.338-.928.564-1.361l-.034-.033a2.004 2.004 0 0 1 0-2.83l.705-.706a1.998 1.998 0 0 1 2.827 0l.034.034a8.28 8.28 0 0 1 1.359-.565v-.047Z" fill="#fff"/><ellipse cx="109.722" cy="137.463" rx="4.825" ry="4.83" fill="#2D2D2D"/><path fill-rule="evenodd" clip-rule="evenodd" d="M93.276 152.284c.015.407.069.809.159 1.2a1.934 1.934 0 0 0 1.899 3.293c.293.273.614.52.959.737a1.934 1.934 0 0 0 3.67.985 6.393 6.393 0 0 0 1.198-.159 1.931 1.931 0 0 0 2.432.414 1.937 1.937 0 0 0 .858-2.315 6.44 6.44 0 0 0 .737-.961 1.933 1.933 0 0 0 2.01-1.428 1.937 1.937 0 0 0-1.027-2.244 6.402 6.402 0 0 0-.159-1.201 1.936 1.936 0 0 0-1.9-3.293 6.342 6.342 0 0 0-.958-.736 1.935 1.935 0 0 0-3.67-.985 6.376 6.376 0 0 0-1.198.159 1.93 1.93 0 0 0-2.432-.413 1.935 1.935 0 0 0-.858 2.314 6.41 6.41 0 0 0-.736.96 1.937 1.937 0 0 0-.983 3.673Z" fill="#fff"/><ellipse rx="3.734" ry="3.738" transform="rotate(15.015 -527.041 454.381) skewX(.029)" fill="#2D2D2D"/><rect x="75.684" y="109.292" width="28.611" height="28.64" rx="14.306" fill="#ED1C24"/><path d="M87.426 118.535s-6.558 3.997-.377 7.965c1.188.772 5.5 2.921 5.378 4.91 0 0 2.614-3.864-1.208-6.296-3.925-2.488-4.906-5.146-3.793-6.579Z" fill="#fff"/><path d="M85.142 126.169s-2.34 3.544 2.265 4.27c.453.056 3.784.405 4.652 1.498 0 0-.075-1.885-2.793-2.997-2.708-1.112-3.822-1.385-4.124-2.771Zm9.059-3.723c-2.812-2.94-3.595-4.759-2.387-7.116 0 0-8.389 3.224-.104 8.945 2.963 2.045 2.472 4.138 2.472 4.213.463-.481 2.831-3.101.02-6.042Z" fill="#fff"/><rect x="182.812" y="118.908" width="39.184" height="48.472" rx="10" fill="#fff"/><rect x="182.812" y="118.908" width="39.184" height="48.472" rx="10" fill="#2D2D2D"/><rect x="172.827" y="109.292" width="28.611" height="28.64" rx="14.306" fill="#ED1C24"/><path d="M184.569 118.535s-6.558 3.997-.378 7.965c1.189.772 5.502 2.921 5.379 4.91 0 0 2.614-3.864-1.208-6.296-3.925-2.488-4.907-5.146-3.793-6.579Z" fill="#fff"/><path d="M182.285 126.169s-2.34 3.544 2.265 4.27c.453.056 3.784.405 4.652 1.498 0 0-.076-1.885-2.793-2.997-2.708-1.112-3.822-1.385-4.124-2.771Zm9.059-3.723c-2.812-2.94-3.595-4.759-2.387-7.116 0 0-8.389 3.224-.104 8.945 2.963 2.045 2.472 4.138 2.472 4.213.463-.481 2.831-3.101.019-6.042Z" fill="#fff"/><rect x="87.362" y="45.528" width="39.184" height="48.472" rx="10" fill="#fff"/><rect x="87.362" y="45.528" width="39.184" height="48.472" rx="10" fill="#2D2D2D"/><rect x="77.377" y="35.912" width="28.611" height="28.64" rx="14.306" fill="#ED1C24"/><path d="M89.12 45.154s-6.559 3.996-.378 7.964c1.189.773 5.501 2.922 5.378 4.911 0 0 2.614-3.864-1.208-6.296-3.925-2.488-4.906-5.146-3.793-6.579Z" fill="#fff"/><path d="M86.835 52.788s-2.34 3.544 2.265 4.27c.453.056 3.784.405 4.652 1.498 0 0-.075-1.885-2.793-2.997-2.708-1.112-3.822-1.385-4.124-2.77Zm9.059-3.723c-2.812-2.94-3.595-4.76-2.387-7.116 0 0-8.389 3.224-.104 8.945 2.963 2.045 2.472 4.138 2.472 4.213.463-.48 2.831-3.101.02-6.042Z" fill="#fff"/><rect x="182.812" y="45.528" width="39.184" height="48.472" rx="10" fill="#fff"/><rect x="182.812" y="45.528" width="39.184" height="48.472" rx="10" fill="#2D2D2D"/><rect x="172.827" y="35.912" width="28.611" height="28.64" rx="14.306" fill="#ED1C24"/><path d="M184.569 45.154s-6.558 3.996-.377 7.964c1.189.773 5.501 2.922 5.378 4.911 0 0 2.614-3.864-1.208-6.296-3.925-2.488-4.906-5.146-3.793-6.579Z" fill="#fff"/><path d="M182.285 52.788s-2.34 3.544 2.265 4.27c.453.056 3.784.405 4.652 1.498 0 0-.075-1.885-2.793-2.997-2.708-1.112-3.822-1.385-4.124-2.77Zm9.059-3.723c-2.812-2.94-3.595-4.76-2.387-7.116 0 0-8.389 3.224-.104 8.945 2.963 2.045 2.472 4.138 2.472 4.213.463-.48 2.831-3.101.019-6.042Z" fill="#fff"/></svg>