<svg width="314" height="181" fill="none" xmlns="http://www.w3.org/2000/svg"><path fill-rule="evenodd" clip-rule="evenodd" d="M57.451 180.994a64.722 64.722 0 0 0 1.764 0h195.57a64.612 64.612 0 0 0 1.764 0h.791v-.017c31.443-.865 56.66-26.023 56.66-56.932 0-31.455-26.117-56.954-58.333-56.954-3.535 0-6.997.307-10.359.895.005-.297.007-.596.007-.894 0-31.455-26.117-56.955-58.333-56.955-10.313 0-20.002 2.613-28.408 7.198C147.97 6.645 133.113 0 116.667 0 84.451 0 58.334 25.5 58.334 56.955c0 3.462.316 6.851.922 10.143a60.28 60.28 0 0 0-.923-.007C26.117 67.09 0 92.59 0 124.045c0 30.491 24.54 55.386 55.388 56.884v.065h2.063Z" fill="#fff"/><rect x="82.804" y="114.845" width="37.713" height="45.938" rx="10" fill="#fff"/><rect x="82.804" y="114.845" width="37.713" height="45.938" rx="10" fill="#2D2D2D"/><path d="M90.507 68.087h114.95c11.046 0 20 8.954 20 20v33.828c0 11.046-8.954 20-20 20H90.507c-11.046 0-20-8.954-20-20V88.087c0-11.046 8.954-20 20-20Z" stroke="#2D2D2D" stroke-width="2"/><path fill-rule="evenodd" clip-rule="evenodd" d="M98.024 134.742c.142.454.324.89.54 1.305a2 2 0 0 0 .019 2.81l.574.574a2 2 0 0 0 2.806.022c.418.219.858.403 1.315.546a2 2 0 0 0 1.999 1.972h.811a2 2 0 0 0 2-1.971 7.943 7.943 0 0 0 1.31-.544 1.998 1.998 0 0 0 2.807-.02l.575-.574c.773-.775.78-2.026.02-2.809a7.99 7.99 0 0 0 .544-1.311 2 2 0 0 0 1.969-2v-.814a2 2 0 0 0-1.969-1.999 8.01 8.01 0 0 0-.544-1.313 2 2 0 0 0-.02-2.808l-.574-.574a2 2 0 0 0-2.808-.02 7.979 7.979 0 0 0-1.31-.544 2 2 0 0 0-2-1.97h-.811a2 2 0 0 0-1.999 1.971 7.943 7.943 0 0 0-1.31.544 1.999 1.999 0 0 0-2.808.019l-.574.575a2 2 0 0 0-.02 2.809c-.217.417-.4.855-.542 1.311a2 2 0 0 0-1.971 1.999v.814a2 2 0 0 0 1.97 2Z" fill="#fff"/><ellipse cx="105.683" cy="132.344" rx="4.647" ry="4.65" fill="#2D2D2D"/><path fill-rule="evenodd" clip-rule="evenodd" d="M89.842 146.613c.015.393.066.779.153 1.156a1.861 1.861 0 0 0 1.83 3.17c.281.263.59.5.921.709a1.863 1.863 0 0 0 3.535.947 6.167 6.167 0 0 0 1.155-.152 1.862 1.862 0 0 0 3.17-1.831c.262-.282.5-.591.708-.923a1.864 1.864 0 0 0 .949-3.536 6.192 6.192 0 0 0-.152-1.156 1.862 1.862 0 0 0-1.829-3.171 6.225 6.225 0 0 0-.925-.71 1.862 1.862 0 0 0-3.535-.946 6.165 6.165 0 0 0-1.154.152 1.862 1.862 0 0 0-3.17 1.831 6.23 6.23 0 0 0-.708.924 1.863 1.863 0 0 0-.948 3.536Z" fill="#fff"/><ellipse rx="3.597" ry="3.599" transform="rotate(15.008 -507.632 437.779) skewX(.017)" fill="#2D2D2D"/><rect x="72.898" y="105.223" width="27.558" height="27.574" rx="13.779" fill="#ED1C24"/><path d="M84.208 114.122s-6.317 3.847-.364 7.668c1.145.744 5.299 2.813 5.18 4.727 0 0 2.519-3.72-1.162-6.061-3.781-2.396-4.727-4.955-3.654-6.334Z" fill="#fff"/><path d="M82.008 121.471s-2.254 3.412 2.181 4.111c.437.054 3.645.39 4.481 1.443 0 0-.072-1.815-2.69-2.886-2.609-1.071-3.68-1.334-3.972-2.668Zm8.726-3.584c-2.709-2.831-3.463-4.582-2.3-6.851 0 0-8.08 3.103-.1 8.612 2.854 1.969 2.382 3.983 2.382 4.056.445-.463 2.726-2.986.018-5.817Z" fill="#fff"/><rect x="176.082" y="114.481" width="37.742" height="46.668" rx="10" fill="#fff"/><rect x="176.082" y="114.481" width="37.742" height="46.668" rx="10" fill="#2D2D2D"/><path fill-rule="evenodd" clip-rule="evenodd" d="M191.591 134.742c.142.454.324.89.54 1.305a2 2 0 0 0 .019 2.81l.574.574a2 2 0 0 0 2.806.022c.418.219.857.403 1.315.546a1.999 1.999 0 0 0 1.999 1.972h.811a2 2 0 0 0 2-1.971 7.943 7.943 0 0 0 1.31-.544 1.998 1.998 0 0 0 2.807-.02l.575-.574c.773-.775.78-2.026.02-2.809a7.99 7.99 0 0 0 .544-1.311 2 2 0 0 0 1.969-2v-.813a2 2 0 0 0-1.969-2 8.01 8.01 0 0 0-.544-1.313 2 2 0 0 0-.02-2.808l-.574-.574a2 2 0 0 0-2.808-.02 8.015 8.015 0 0 0-1.31-.544 2 2 0 0 0-2-1.97h-.811c-1.095 0-1.984.88-1.999 1.971a7.943 7.943 0 0 0-1.31.544 2 2 0 0 0-2.808.019l-.574.575a2 2 0 0 0-.019 2.809c-.218.417-.4.855-.543 1.311a2 2 0 0 0-1.971 2v.813a2 2 0 0 0 1.971 2Z" fill="#fff"/><ellipse cx="199.25" cy="132.344" rx="4.647" ry="4.65" fill="#2D2D2D"/><path fill-rule="evenodd" clip-rule="evenodd" d="M183.409 146.613c.015.393.066.78.153 1.156a1.863 1.863 0 0 0 1.829 3.171c.283.262.591.5.922.708a1.864 1.864 0 0 0 3.535.948 6.183 6.183 0 0 0 1.155-.153 1.861 1.861 0 0 0 3.17-1.831c.262-.282.5-.591.708-.923a1.862 1.862 0 0 0 .949-3.535 6.192 6.192 0 0 0-.152-1.157 1.862 1.862 0 0 0-1.829-3.17 6.139 6.139 0 0 0-.925-.711 1.861 1.861 0 0 0-3.535-.946 6.08 6.08 0 0 0-1.154.153 1.862 1.862 0 0 0-3.169 1.831 6.11 6.11 0 0 0-.709.923 1.863 1.863 0 0 0-.948 3.536Z" fill="#fff"/><ellipse rx="3.597" ry="3.599" transform="rotate(15.008 -460.849 792.935) skewX(.017)" fill="#2D2D2D"/><rect x="166.465" y="105.223" width="27.558" height="27.574" rx="13.779" fill="#ED1C24"/><path d="M177.775 114.122s-6.317 3.847-.364 7.668c1.145.744 5.299 2.813 5.181 4.727 0 0 2.518-3.72-1.163-6.061-3.781-2.396-4.727-4.955-3.654-6.334Zm-2.2 7.349s-2.254 3.412 2.182 4.111c.436.055 3.644.39 4.48 1.443 0 0-.072-1.815-2.69-2.886-2.608-1.07-3.681-1.334-3.972-2.668Z" fill="#fff"/><path d="M184.301 117.887c-2.709-2.831-3.463-4.582-2.3-6.851 0 0-8.08 3.104-.1 8.612 2.854 1.969 2.381 3.983 2.381 4.056.446-.463 2.727-2.986.019-5.817Z" fill="#fff"/><rect x="84.146" y="43.833" width="37.742" height="46.668" rx="10" fill="#fff"/><rect x="84.146" y="43.833" width="37.742" height="46.668" rx="10" fill="#2D2D2D"/><path fill-rule="evenodd" clip-rule="evenodd" d="M99.655 64.093c.142.454.323.89.54 1.305a2 2 0 0 0 .018 2.81l.575.575a2 2 0 0 0 2.806.021c.418.22.857.403 1.314.546a2 2 0 0 0 2 1.973h.811a2 2 0 0 0 2-1.972 7.977 7.977 0 0 0 1.31-.543 2 2 0 0 0 2.807-.02l.574-.575a2.001 2.001 0 0 0 .021-2.808c.218-.417.4-.856.543-1.312a2 2 0 0 0 1.97-2v-.813a2 2 0 0 0-1.969-2 8 8 0 0 0-.544-1.312 2 2 0 0 0-.02-2.809l-.574-.574a2 2 0 0 0-2.808-.02 8.012 8.012 0 0 0-1.31-.543 2 2 0 0 0-2-1.97h-.811a2 2 0 0 0-2 1.97 7.958 7.958 0 0 0-1.309.544 2 2 0 0 0-2.808.02l-.574.574a2.002 2.002 0 0 0-.02 2.81 8.02 8.02 0 0 0-.542 1.31 2 2 0 0 0-1.972 2v.813a2 2 0 0 0 1.972 2Z" fill="#fff"/><ellipse cx="107.314" cy="61.696" rx="4.647" ry="4.65" fill="#2D2D2D"/><path fill-rule="evenodd" clip-rule="evenodd" d="M91.473 75.964c.014.393.066.78.153 1.156a1.864 1.864 0 0 0 1.83 3.17c.281.263.59.5.921.709a1.863 1.863 0 0 0 3.535.948 6.176 6.176 0 0 0 1.154-.153 1.861 1.861 0 0 0 3.17-1.83c.263-.283.501-.592.709-.924a1.862 1.862 0 0 0 .949-3.536 6.272 6.272 0 0 0-.152-1.156 1.864 1.864 0 0 0-1.83-3.17 6.158 6.158 0 0 0-.924-.71 1.863 1.863 0 0 0-3.535-.947 6.182 6.182 0 0 0-1.154.153 1.861 1.861 0 0 0-3.17 1.83 6.23 6.23 0 0 0-.708.924 1.863 1.863 0 0 0-.948 3.536Z" fill="#fff"/><ellipse rx="3.597" ry="3.599" transform="rotate(15.008 -238.653 408.645) skewX(.017)" fill="#2D2D2D"/><rect x="74.529" y="34.575" width="27.558" height="27.574" rx="13.779" fill="#ED1C24"/><path d="M85.839 43.473s-6.317 3.848-.364 7.668c1.145.744 5.299 2.813 5.18 4.727 0 0 2.518-3.72-1.163-6.061-3.78-2.396-4.726-4.955-3.653-6.334Z" fill="#fff"/><path d="M83.64 50.823s-2.255 3.412 2.18 4.11c.437.055 3.645.39 4.481 1.443 0 0-.073-1.815-2.69-2.886-2.609-1.07-3.681-1.333-3.972-2.667Zm8.725-3.585c-2.709-2.83-3.463-4.582-2.3-6.85 0 0-8.08 3.103-.1 8.61 2.854 1.97 2.381 3.984 2.381 4.057.446-.463 2.727-2.985.019-5.817Z" fill="#fff"/><rect x="176.083" y="43.833" width="37.742" height="46.668" rx="10" fill="#fff"/><rect x="176.083" y="43.833" width="37.742" height="46.668" rx="10" fill="#2D2D2D"/><path fill-rule="evenodd" clip-rule="evenodd" d="M191.591 64.093c.142.454.324.89.54 1.305a2 2 0 0 0 .019 2.81l.574.575a2 2 0 0 0 2.806.021c.418.22.858.403 1.315.546a2 2 0 0 0 2 1.973h.811a2 2 0 0 0 1.999-1.972 7.987 7.987 0 0 0 1.311-.543 2 2 0 0 0 2.807-.02l.574-.575a2 2 0 0 0 .02-2.808 8 8 0 0 0 .544-1.312 2 2 0 0 0 1.969-2v-.813a2 2 0 0 0-1.969-2 8 8 0 0 0-.544-1.312 2 2 0 0 0-.02-2.809l-.574-.574a2 2 0 0 0-2.808-.02 7.94 7.94 0 0 0-1.31-.543 2 2 0 0 0-1.999-1.97h-.811a2 2 0 0 0-2 1.97 7.933 7.933 0 0 0-1.31.544 1.998 1.998 0 0 0-2.807.02l-.575.574a2.002 2.002 0 0 0-.019 2.81c-.218.416-.4.854-.543 1.31a2 2 0 0 0-1.971 2v.813a2 2 0 0 0 1.971 2Z" fill="#fff"/><ellipse cx="199.25" cy="61.696" rx="4.647" ry="4.65" fill="#2D2D2D"/><path fill-rule="evenodd" clip-rule="evenodd" d="M183.41 75.964c.014.393.066.78.152 1.156a1.864 1.864 0 0 0 1.83 3.17c.282.263.59.5.922.709a1.862 1.862 0 0 0 3.534.948 6.18 6.18 0 0 0 1.155-.153 1.862 1.862 0 0 0 3.17-1.83c.262-.283.5-.592.709-.924a1.864 1.864 0 0 0 .948-3.536 6.186 6.186 0 0 0-.152-1.156 1.862 1.862 0 0 0-1.829-3.17 6.16 6.16 0 0 0-.925-.71 1.862 1.862 0 0 0-3.535-.947 6.178 6.178 0 0 0-1.154.153 1.862 1.862 0 0 0-3.169 1.83c-.263.283-.5.592-.709.924a1.864 1.864 0 0 0-.947 3.536Z" fill="#fff"/><ellipse rx="3.597" ry="3.599" transform="rotate(15.008 -192.685 757.61) skewX(.017)" fill="#2D2D2D"/><rect x="166.466" y="34.575" width="27.558" height="27.574" rx="13.779" fill="#ED1C24"/><path d="M177.775 43.473s-6.317 3.848-.364 7.668c1.146.744 5.299 2.813 5.181 4.727 0 0 2.518-3.72-1.163-6.061-3.781-2.396-4.726-4.955-3.654-6.334Zm-2.2 7.35s-2.254 3.412 2.182 4.11c.436.055 3.644.39 4.481 1.443 0 0-.073-1.815-2.691-2.886-2.608-1.07-3.681-1.333-3.972-2.667Z" fill="#fff"/><path d="M184.301 47.238c-2.709-2.83-3.463-4.582-2.3-6.85 0 0-8.08 3.103-.1 8.61 2.854 1.97 2.382 3.984 2.382 4.057.445-.463 2.726-2.985.018-5.817Z" fill="#fff"/></svg>