<svg width="669" height="476" viewBox="0 0 669 476" fill="none" xmlns="http://www.w3.org/2000/svg">
<path d="M273.821 53.5903C273.821 38.9383 284.179 33.0319 296.961 40.389L616.167 224.835C628.866 232.109 639.224 249.932 639.224 264.584L638.603 484.074C638.603 498.726 628.245 504.612 615.462 497.255L296.236 312.809C283.495 305.452 273.22 287.65 273.261 272.998L273.821 53.5903Z" stroke="white" stroke-miterlimit="10"/>
<path d="M275.312 11.3129C266.259 6.0697 258.904 10.2767 258.863 20.6803L258.034 288.624C258.034 298.986 265.306 311.69 274.359 316.933L636.904 526.352C645.937 531.574 653.312 527.388 653.333 516.984L654.099 249.041C654.099 238.678 646.807 225.954 637.753 220.731L275.312 11.3129Z" fill="#0070CC" stroke="white" stroke-linejoin="round"/>
<path d="M263.648 10.1524L277.508 2.11142C280.491 0.370587 284.614 0.619278 289.171 3.25126L651.654 212.67C660.708 217.892 668.021 230.575 668 240.979L667.233 508.923C667.233 514.083 665.39 517.73 662.448 519.43L648.609 527.491C651.551 525.771 653.374 522.145 653.374 516.984L654.14 249.041C654.14 238.679 646.848 225.954 637.795 220.731L275.25 11.313C272.899 9.81754 270.163 9.03977 267.377 9.07477C266.045 9.12375 264.745 9.49343 263.586 10.1524H263.648Z" fill="#0070CC" stroke="white" stroke-linejoin="round"/>
<path d="M272.018 315.669C262.965 310.446 248.339 310.426 239.348 315.669L7.77502 450.376C-1.23676 455.599 -1.17468 464.096 7.8786 469.318L370.423 678.633C379.477 683.856 394.124 683.856 403.115 678.633L634.688 543.926C643.7 538.682 643.637 530.206 634.688 524.984L272.018 315.669Z" fill="#0070CC" stroke="white" stroke-linejoin="round"/>
<path d="M121.717 419.124L264.664 335.999C267.197 334.703 270.001 334.026 272.847 334.026C275.692 334.026 278.497 334.703 281.03 335.999L599.531 519.906C604.047 522.518 604.068 526.766 599.531 529.377L456.584 612.523C454.049 613.81 451.245 614.481 448.401 614.481C445.558 614.481 442.754 613.81 440.218 612.523L121.8 428.616C117.263 425.984 117.222 421.756 121.8 419.124" stroke="white" stroke-linejoin="round"/>
<path d="M145.956 565.044L7.81586 485.255C3.27887 482.623 1 479.183 1 475.722V459.702C1 463.143 3.25818 466.604 7.81586 469.236L370.361 678.55C379.414 683.773 394.061 683.773 403.052 678.55L634.625 543.843C636.599 542.757 638.316 541.258 639.659 539.449C640.721 537.99 641.307 536.239 641.337 534.434V550.475C641.337 553.873 639.1 557.272 634.625 559.863L403.052 694.57C394.061 699.813 379.414 699.813 370.361 694.57L208.314 601.042" fill="#0070CC"/>
<path d="M145.956 565.044L7.81586 485.255C3.27887 482.623 1 479.183 1 475.722V459.702C1 463.143 3.25816 466.604 7.81586 469.236L370.361 678.55C379.414 683.773 394.061 683.773 403.052 678.55L634.625 543.843C636.599 542.757 638.316 541.258 639.659 539.449C640.721 537.99 641.307 536.239 641.337 534.434V534.434V550.475C641.337 553.873 639.1 557.272 634.625 559.863L403.052 694.57C394.061 699.813 379.414 699.813 370.361 694.57L208.314 601.042" stroke="white" stroke-linejoin="round"/>
<path d="M651.924 212.297L638.168 220.172" stroke="white" stroke-linejoin="round"/>
<path d="M667.648 241.787L653.892 249.662" stroke="white" stroke-linejoin="round"/>
<path d="M559.799 232.714L570.486 226.544L570.486 447.924L559.799 454.094L559.799 232.714Z" fill="#0070CC" stroke="white"/>
<path d="M305.372 73.48L570.486 226.544L559.799 232.714L294.685 79.6499L305.372 73.48Z" fill="#0070CC" stroke="white"/>
<path d="M294.685 79.6506L559.799 232.714L559.799 454.094L294.685 301.031L294.685 79.6506Z" fill="#0070CC" stroke="white"/>
<path d="M308.418 121.41C308.418 120.306 309.194 119.858 310.15 120.41L541.793 254.149C542.75 254.702 543.525 256.045 543.525 257.149L543.525 425.908C543.525 427.013 542.75 427.46 541.793 426.908L310.15 293.169C309.194 292.617 308.418 291.274 308.418 290.169L308.418 121.41Z" fill="#0070CC" stroke="white"/>
<mask id="path-14-inside-1_4:2" fill="white">
<path fill-rule="evenodd" clip-rule="evenodd" d="M316.968 108.613C316.968 111.339 315.054 112.444 312.693 111.081C310.332 109.717 308.418 106.403 308.418 103.677C308.418 100.951 310.332 99.8455 312.693 101.209C315.054 102.572 316.968 105.886 316.968 108.613ZM329.616 116.017C329.616 118.743 327.702 119.848 325.341 118.485C322.981 117.121 321.067 113.807 321.067 111.081C321.067 108.354 322.981 107.25 325.341 108.613C327.702 109.976 329.616 113.29 329.616 116.017ZM337.836 125.889C340.196 127.252 342.11 126.147 342.11 123.421C342.11 120.694 340.196 117.38 337.836 116.017C335.475 114.654 333.561 115.758 333.561 118.485C333.561 121.211 335.475 124.525 337.836 125.889Z"/>
</mask>
<path fill-rule="evenodd" clip-rule="evenodd" d="M316.968 108.613C316.968 111.339 315.054 112.444 312.693 111.081C310.332 109.717 308.418 106.403 308.418 103.677C308.418 100.951 310.332 99.8455 312.693 101.209C315.054 102.572 316.968 105.886 316.968 108.613ZM329.616 116.017C329.616 118.743 327.702 119.848 325.341 118.485C322.981 117.121 321.067 113.807 321.067 111.081C321.067 108.354 322.981 107.25 325.341 108.613C327.702 109.976 329.616 113.29 329.616 116.017ZM337.836 125.889C340.196 127.252 342.11 126.147 342.11 123.421C342.11 120.694 340.196 117.38 337.836 116.017C335.475 114.654 333.561 115.758 333.561 118.485C333.561 121.211 335.475 124.525 337.836 125.889Z" fill="#0070CC"/>
<path d="M312.693 111.081L312.193 111.947H312.193L312.693 111.081ZM312.693 101.209L313.193 100.343V100.343L312.693 101.209ZM325.341 108.613L325.841 107.747L325.341 108.613ZM337.836 116.017L338.336 115.151L337.836 116.017ZM312.193 111.947C313.556 112.733 315.024 112.934 316.216 112.246C317.408 111.558 317.968 110.186 317.968 108.613H315.968C315.968 109.765 315.571 110.309 315.216 110.514C314.861 110.719 314.191 110.791 313.193 110.214L312.193 111.947ZM307.418 103.677C307.418 105.256 307.966 106.938 308.804 108.39C309.642 109.841 310.825 111.157 312.193 111.947L313.193 110.214C312.2 109.641 311.245 108.618 310.536 107.39C309.827 106.162 309.418 104.823 309.418 103.677H307.418ZM313.193 100.343C311.83 99.5559 310.362 99.3549 309.17 100.043C307.978 100.731 307.418 102.103 307.418 103.677H309.418C309.418 102.524 309.815 101.98 310.17 101.775C310.525 101.57 311.195 101.498 312.193 102.075L313.193 100.343ZM317.968 108.613C317.968 107.033 317.42 105.351 316.582 103.899C315.744 102.448 314.561 101.132 313.193 100.343L312.193 102.075C313.186 102.648 314.141 103.671 314.85 104.899C315.559 106.128 315.968 107.466 315.968 108.613H317.968ZM324.841 119.351C326.204 120.137 327.672 120.338 328.864 119.65C330.056 118.962 330.616 117.59 330.616 116.017H328.616C328.616 117.169 328.219 117.713 327.864 117.918C327.509 118.123 326.84 118.195 325.841 117.618L324.841 119.351ZM320.067 111.081C320.067 112.66 320.615 114.342 321.453 115.794C322.291 117.245 323.473 118.561 324.841 119.351L325.841 117.618C324.849 117.045 323.894 116.022 323.185 114.794C322.476 113.566 322.067 112.227 322.067 111.081H320.067ZM325.841 107.747C324.479 106.96 323.011 106.759 321.819 107.447C320.627 108.135 320.067 109.507 320.067 111.081H322.067C322.067 109.928 322.464 109.384 322.819 109.179C323.174 108.974 323.843 108.902 324.841 109.479L325.841 107.747ZM330.616 116.017C330.616 114.437 330.068 112.755 329.23 111.303C328.392 109.852 327.21 108.536 325.841 107.747L324.841 109.479C325.834 110.052 326.789 111.075 327.498 112.303C328.207 113.532 328.616 114.87 328.616 116.017H330.616ZM341.11 123.421C341.11 124.573 340.713 125.117 340.358 125.322C340.003 125.527 339.334 125.599 338.336 125.022L337.336 126.755C338.698 127.541 340.166 127.742 341.358 127.054C342.55 126.366 343.11 124.994 343.11 123.421H341.11ZM337.336 116.883C338.328 117.456 339.283 118.479 339.992 119.707C340.701 120.936 341.11 122.274 341.11 123.421H343.11C343.11 121.841 342.562 120.159 341.724 118.707C340.886 117.256 339.704 115.94 338.336 115.151L337.336 116.883ZM334.561 118.485C334.561 117.332 334.958 116.788 335.313 116.583C335.668 116.378 336.337 116.306 337.336 116.883L338.336 115.151C336.973 114.364 335.505 114.163 334.313 114.851C333.121 115.539 332.561 116.911 332.561 118.485H334.561ZM338.336 125.022C337.343 124.449 336.388 123.426 335.679 122.198C334.97 120.97 334.561 119.631 334.561 118.485H332.561C332.561 120.064 333.109 121.746 333.947 123.198C334.785 124.649 335.967 125.965 337.336 126.755L338.336 125.022Z" fill="white" mask="url(#path-14-inside-1_4:2)"/>
<rect width="43.4535" height="7.26381" transform="matrix(-0.866025 -0.5 -2.20305e-08 1 436.335 292.597)" fill="#0070CC" stroke="white"/>
<rect width="43.4535" height="7.26382" transform="matrix(-0.866025 -0.5 -2.20305e-08 1 364.207 250.954)" fill="#0070CC" stroke="white"/>
<rect width="28.969" height="7.26382" transform="matrix(-0.866025 -0.5 -2.20305e-08 1 470.831 312.513)" fill="#0070CC" stroke="white"/>
<rect width="18.1056" height="7.26379" transform="matrix(-0.866025 -0.499998 -2.20306e-08 1 389.295 265.439)" fill="#0070CC" stroke="white"/>
<rect width="28.969" height="7.26381" transform="matrix(0.866025 0.499999 -2.20305e-08 1 326.575 200.172)" fill="#0070CC" stroke="white"/>
<rect width="25.3479" height="7.26382" transform="matrix(-0.866025 -0.5 -2.20305e-08 1 348.527 256.429)" fill="#0070CC" stroke="white"/>
<rect width="28.969" height="7.26382" transform="matrix(-0.866025 -0.5 -2.20305e-08 1 486.511 336.094)" fill="#0070CC" stroke="white"/>
<rect width="65.1803" height="7.26382" transform="matrix(-0.866025 -0.5 -2.20305e-08 1 452.015 316.178)" fill="#0070CC" stroke="white"/>
<rect width="32.5901" height="7.26382" transform="matrix(-0.866025 -0.5 -2.20305e-08 1 386.159 278.156)" fill="#0070CC" stroke="white"/>
<rect width="25.3479" height="7.26382" transform="matrix(0.866025 0.500001 -2.20305e-08 1 430.063 274.448)" fill="#0070CC" stroke="white"/>
<rect width="65.1802" height="7.26381" transform="matrix(0.866025 0.5 -2.20305e-08 1 326.575 214.7)" fill="#0070CC" stroke="white"/>
<rect width="32.5901" height="7.26381" transform="matrix(0.866025 0.5 -2.20305e-08 1 392.431 252.721)" fill="#0070CC" stroke="white"/>
<rect width="43.4535" height="7.26381" transform="matrix(0.866025 0.5 -2.20305e-08 1 361.071 173.014)" fill="#0070CC" stroke="white"/>
<rect width="28.969" height="7.26381" transform="matrix(0.866025 0.5 -2.20305e-08 1 326.576 153.098)" fill="#0070CC" stroke="white"/>
<rect width="33.3178" height="7.26381" transform="matrix(0.866025 0.5 -2.20305e-08 1 408.111 200.172)" fill="#0070CC" stroke="white"/>
<rect width="65.1802" height="7.26381" transform="matrix(0.866025 0.5 -2.20305e-08 1 326.575 167.625)" fill="#0070CC" stroke="white"/>
<rect width="32.5901" height="7.26381" transform="matrix(0.866025 0.5 -2.20305e-08 1 392.431 205.646)" fill="#0070CC" stroke="white"/>
</svg>
