<svg width="123" height="138" viewBox="0 0 123 138" fill="none" xmlns="http://www.w3.org/2000/svg">
<g clip-path="url(#clip0_1:345)">
<path d="M121.435 103.5C122.4 101.833 123 99.9552 123 98.2688V39.7309C123 38.0445 122.401 36.167 121.436 34.5002L61.5 69L121.435 103.5Z" fill="#00599C"/>
<path d="M66.826 136.735L117.674 107.466C119.139 106.623 120.47 105.167 121.435 103.5L61.5 69L1.56483 103.5C2.52994 105.167 3.86164 106.623 5.32598 107.466L56.174 136.735C59.1031 138.421 63.8969 138.421 66.826 136.735Z" fill="#004482"/>
<path d="M121.436 34.4998C120.47 32.8327 119.138 31.3767 117.674 30.5335L66.826 1.26478C63.8969 -0.421594 59.1031 -0.421594 56.174 1.26478L5.32598 30.5335C2.39649 32.2195 0 36.3585 0 39.7309V98.2687C0 99.9551 0.599323 101.833 1.56483 103.5L61.5 69L121.436 34.4998Z" fill="#659AD2"/>
<path d="M61.5 109.877C38.8925 109.877 20.5 91.5397 20.5 69.0001C20.5 46.4604 38.8925 28.123 61.5 28.123C76.088 28.123 89.6931 35.9498 97.0056 48.5487L79.2618 58.7856C75.602 52.4793 68.7956 48.5616 61.5 48.5616C50.1961 48.5616 41 57.73 41 69.0001C41 80.2697 50.1961 89.4386 61.5 89.4386C68.7964 89.4386 75.6028 85.5208 79.263 79.2133L97.0068 89.4498C89.6943 102.05 76.0888 109.877 61.5 109.877Z" fill="white"/>
<path d="M102.5 66.7289H97.9442V62.1871H93.3892V66.7289H88.8333V71.2706H93.3892V75.8128H97.9442V71.2706H102.5V66.7289Z" fill="white"/>
<path d="M119.583 66.7289H115.027V62.1871H110.472V66.7289H105.917V71.2706H110.472V75.8128H115.027V71.2706H119.583V66.7289Z" fill="white"/>
</g>
<defs>
<clipPath id="clip0_1:345">
<rect width="123" height="138" fill="white"/>
</clipPath>
</defs>
</svg>
