<svg width="126" height="119" viewBox="0 0 126 119" fill="none" xmlns="http://www.w3.org/2000/svg">
<path d="M105.461 62.4288C105.461 62.2195 105.403 62.0698 105.283 61.972C105.151 61.8667 104.923 61.8105 104.605 61.8105H104.148V63.0551H104.7C105.209 63.0551 105.461 62.8458 105.461 62.4288ZM106.173 65.0238H105.545L105.145 64.1481C104.941 63.7093 104.724 63.4899 104.486 63.4899H104.148V65.0238H103.631V61.3736H104.667C105.129 61.3736 105.475 61.4726 105.712 61.6789C105.914 61.8563 106.014 62.0838 106.014 62.3671C106.014 62.6184 105.932 62.8298 105.767 63.0052C105.605 63.1828 105.374 63.3025 105.078 63.3644V63.3802C105.283 63.4281 105.489 63.6515 105.688 64.0543L106.173 65.0258V65.0238ZM107.32 63.2346C107.32 62.5166 107.073 61.9103 106.58 61.4295C106.085 60.9489 105.481 60.7076 104.768 60.7076C104.033 60.7076 103.422 60.9489 102.936 61.4337C102.451 61.9203 102.21 62.5225 102.21 63.2346C102.21 63.9627 102.461 64.571 102.961 65.0557C103.454 65.5403 104.058 65.7797 104.768 65.7797C105.475 65.7797 106.078 65.5384 106.576 65.0476C107.073 64.5649 107.32 63.9587 107.32 63.2346ZM107.669 63.2188C107.669 64.0248 107.389 64.7008 106.827 65.2453C106.266 65.7939 105.577 66.067 104.754 66.067C103.925 66.067 103.236 65.7978 102.689 65.2692C102.141 64.7328 101.87 64.0586 101.87 63.2409C101.87 62.441 102.147 61.7689 102.703 61.2165C103.258 60.666 103.951 60.3907 104.778 60.3907C105.589 60.3907 106.27 60.654 106.821 61.1785C107.387 61.717 107.669 62.3952 107.669 63.2188Z" fill="black"/>
<path d="M28.9402 73.3969H27.1549V63.2726C27.1549 62.4729 27.208 61.4996 27.3031 60.3507H27.2628C27.0956 61.0228 26.9427 61.5095 26.8079 61.8108L21.6187 73.3969H20.7492L15.5498 61.8945C15.4033 61.5733 15.25 61.0567 15.0949 60.3507H15.0563C15.111 60.955 15.1416 61.9344 15.1416 63.2926V73.3969H13.4206V58.3203H15.7756L20.4435 68.8334C20.7957 69.6253 21.0232 70.2277 21.1339 70.6385H21.2079C21.5118 69.8148 21.7533 69.1964 21.9366 68.7895L26.705 58.3203H28.9393V73.3969H28.9402Z" fill="black"/>
<path d="M34.4322 73.3964H32.6972V62.6299H34.4322V73.3964ZM34.7322 58.7704C34.7322 59.0876 34.6194 59.3528 34.3959 59.5703C34.1766 59.7876 33.905 59.8974 33.5868 59.8974C33.2768 59.8974 33.007 59.7921 32.7858 59.5823C32.5644 59.3709 32.4555 59.1015 32.4555 58.7704C32.4555 58.4593 32.565 58.1941 32.7858 57.9787C33.007 57.7633 33.2768 57.6595 33.5868 57.6595C33.9048 57.6595 34.1766 57.7633 34.3959 57.9787C34.6194 58.1941 34.7322 58.4593 34.7322 58.7704Z" fill="black"/>
<path d="M45.2752 72.8982C44.4419 73.4048 43.4475 73.6561 42.2981 73.6561C40.7403 73.6561 39.4862 73.1436 38.5281 72.1203C37.5981 71.127 37.1292 69.8447 37.1292 68.2729C37.1292 66.5096 37.6384 65.0817 38.665 63.9967C39.6856 62.9096 41.0584 62.3671 42.7854 62.3671C43.7294 62.3671 44.5667 62.5506 45.2994 62.9136V64.6828C44.4883 64.1183 43.6308 63.839 42.7108 63.839C41.6038 63.839 40.7041 64.222 40.0055 64.986C39.2788 65.7678 38.9105 66.813 38.9105 68.1174C38.9105 69.3699 39.2468 70.3612 39.915 71.0932C40.5853 71.8212 41.477 72.1862 42.6021 72.1862C43.5522 72.1862 44.4419 71.877 45.2752 71.2608V72.8982Z" fill="black"/>
<path d="M53.5743 64.3766C53.2684 64.1433 52.8277 64.0295 52.2459 64.0295C51.5394 64.0295 50.9456 64.3428 50.4646 64.9749C49.919 65.681 49.6473 66.6584 49.6473 67.9069V73.3959H47.9082V62.6294H49.6473V64.8494H49.6892C49.9449 64.0635 50.3395 63.4591 50.8668 63.0304C51.3599 62.6394 51.9175 62.4419 52.5314 62.4419C52.9943 62.4419 53.3386 62.4914 53.574 62.5887V64.3758L53.5743 64.3766Z" fill="black"/>
<path d="M63.2672 68.0327C63.2672 66.6546 62.9532 65.6015 62.3252 64.8794C61.7154 64.1853 60.8638 63.8383 59.7669 63.8383C58.6859 63.8383 57.8185 64.1893 57.1702 64.8914C56.4838 65.6413 56.1417 66.7004 56.1417 68.0747C56.1417 69.3631 56.4678 70.3743 57.126 71.0963C57.7801 71.8223 58.6618 72.1853 59.7669 72.1853C60.9102 72.1853 61.7858 71.8164 62.3856 71.0824C62.9733 70.3644 63.2672 69.3491 63.2672 68.0327ZM65.0506 67.9721C65.0506 69.6874 64.5616 71.0657 63.5873 72.0988C62.6091 73.136 61.2927 73.6546 59.6381 73.6546C58.0077 73.6546 56.7093 73.136 55.7573 72.0988C54.8253 71.0995 54.3563 69.7791 54.3563 68.1377C54.3563 66.2648 54.8856 64.8207 55.9484 63.7955C56.9307 62.8442 58.245 62.3655 59.8917 62.3655C61.512 62.3655 62.7782 62.866 63.6899 63.8574C64.5938 64.8547 65.0506 66.2269 65.0506 67.9721Z" fill="black"/>
<path d="M73.6755 70.516C73.6755 71.3976 73.3435 72.1276 72.6771 72.71C71.9506 73.3403 70.9522 73.6554 69.6962 73.6554C68.6675 73.6554 67.7657 73.442 67.0008 73.0072V71.1542C67.8524 71.8404 68.7923 72.1855 69.825 72.1855C71.2018 72.1855 71.8921 71.6829 71.8921 70.6816C71.8921 70.2607 71.7408 69.9117 71.4353 69.6424C71.1293 69.3672 70.5354 69.0381 69.6519 68.6531C68.742 68.2582 68.0939 67.8534 67.7115 67.4325C67.2525 66.9338 67.021 66.2857 67.021 65.4878C67.021 64.5943 67.3814 63.8503 68.0939 63.258C68.8084 62.6636 69.7263 62.3663 70.8535 62.3663C71.7171 62.3663 72.49 62.5339 73.1763 62.871V64.6062C72.4598 64.0936 71.6406 63.8383 70.7106 63.8383C70.135 63.8383 69.672 63.9803 69.3277 64.2571C68.9796 64.5403 68.8044 64.9015 68.8044 65.3422C68.8044 65.8189 68.9509 66.1899 69.2413 66.4551C69.4989 66.7005 70.0464 66.9997 70.8717 67.3487C71.7995 67.7337 72.4699 68.1326 72.8784 68.5414C73.4079 69.0581 73.6755 69.7163 73.6755 70.516Z" fill="black"/>
<path d="M84.3041 68.0327C84.3041 66.6546 83.9901 65.6015 83.3602 64.8794C82.7523 64.1853 81.8988 63.8383 80.8038 63.8383C79.7228 63.8383 78.8553 64.1893 78.2032 64.8914C77.5188 65.6413 77.1785 66.7004 77.1785 68.0747C77.1785 69.3631 77.5046 70.3743 78.1568 71.0963C78.8191 71.8223 79.7008 72.1853 80.8038 72.1853C81.949 72.1853 82.8226 71.8164 83.4225 71.0824C84.0102 70.3644 84.3041 69.3491 84.3041 68.0327ZM86.0915 67.9721C86.0915 69.6874 85.5984 71.0657 84.6221 72.0988C83.6479 73.136 82.3315 73.6546 80.6769 73.6546C79.0446 73.6546 77.7462 73.136 76.7942 72.0988C75.8622 71.0995 75.3932 69.7791 75.3932 68.1377C75.3932 66.2648 75.9266 64.8207 76.9834 63.7955C77.9657 62.8442 79.2821 62.3655 80.9305 62.3655C82.551 62.3655 83.8151 62.866 84.7249 63.8574C85.6307 64.8547 86.0915 66.2269 86.0915 67.9721Z" fill="black"/>
<path d="M93.7551 58.9716C93.4129 58.7841 93.0326 58.6884 92.5997 58.6884C91.3819 58.6884 90.778 59.4482 90.778 60.9702V62.6296H93.3243V64.0896H90.778V73.3961H89.0369V64.0896H87.1891V62.6296H89.0369V60.8845C89.0369 59.6996 89.4033 58.7701 90.148 58.1C90.7862 57.5175 91.567 57.2284 92.495 57.2284C93.0326 57.2284 93.4512 57.2922 93.7551 57.4159V58.9716Z" fill="black"/>
<path d="M100.619 73.288C100.209 73.5214 99.6612 73.6371 98.9848 73.6371C97.0887 73.6371 96.1407 72.5779 96.1407 70.4597V64.0912H94.2768V62.6292H96.1407V60.0024C96.6963 59.8288 97.2739 59.6394 97.8839 59.444V62.6292H100.619V64.0912H97.8839V70.1666C97.8839 70.8886 98.003 71.4051 98.2522 71.7043C98.5038 72.0135 98.9145 72.1651 99.4942 72.1651C99.9269 72.1651 100.301 72.0502 100.619 71.8181V73.288Z" fill="black"/>
<path d="M6.6024 115.417C6.6024 116.26 6.29853 116.99 5.68453 117.607C5.07261 118.221 4.32979 118.53 3.45829 118.53C2.60677 118.53 1.88214 118.221 1.28842 117.607C0.694548 116.99 0.398735 116.26 0.398735 115.417C0.398735 114.549 0.694548 113.817 1.28842 113.211C1.88214 112.602 2.60677 112.301 3.45829 112.301C4.32979 112.301 5.07261 112.607 5.68453 113.223C6.29853 113.839 6.6024 114.571 6.6024 115.417Z" fill="black"/>
<path d="M45.5427 117.896H39.8704L19.2809 86.3886C18.7997 85.6307 18.3851 84.8069 18.0329 83.9074H17.8637C18.0102 84.751 18.0852 86.562 18.0852 89.3365V117.896H13.4093V78.3666H19.4781L39.4518 109.378C40.2469 110.608 40.7902 111.49 41.0661 112.02H41.1772C40.992 110.883 40.8956 108.945 40.8956 106.208V78.3666H45.5432V117.896H45.5427Z" fill="black"/>
<path d="M75.5193 117.896H54.3761V78.3666H74.6014V82.5551H59.0481V95.705H73.4602V99.8956H59.0481V113.706H75.5193V117.896Z" fill="black"/>
<path d="M107.59 82.5555H96.0984V117.897H91.4245V82.5555H79.9109V78.3651H107.59V82.5555Z" fill="black"/>
<path d="M43.9571 10.0899C48.4679 23.7583 50.1768 48.1416 63.3671 48.1416C64.3715 48.1416 65.386 48.0443 66.4046 47.8523C54.4139 45.082 52.9928 20.9639 45.676 8.47412C45.1023 8.99076 44.5327 9.52928 43.9571 10.0899Z" fill="url(#paint0_linear_1:369)"/>
<path d="M45.6761 8.47415C52.9928 20.9639 54.4139 45.082 66.4046 47.8523C67.3466 47.6808 68.2906 47.4215 69.2367 47.0944C58.4739 41.8687 55.4988 18.4489 47.1897 7.17371C46.6865 7.58872 46.1813 8.02353 45.6761 8.47415Z" fill="url(#paint1_linear_1:369)"/>
<path d="M56.2183 1.04626C55.2159 1.04626 54.1993 1.14358 53.1789 1.33556C50.5098 1.83418 47.7986 2.97298 45.0651 4.69626C45.8118 5.42626 46.5223 6.2619 47.1905 7.17348C49.9704 4.88773 52.732 3.19843 55.4837 2.18313C56.5162 1.80419 57.5449 1.51904 58.5774 1.33157C57.8326 1.14389 57.0476 1.04626 56.2183 1.04626Z" fill="#14559A"/>
<path d="M77.6384 42.2776C78.7394 41.4101 79.8425 40.4506 80.9475 39.4036C76.3642 25.7988 74.7238 1.06653 61.4408 1.06653C60.4907 1.06653 59.5326 1.15428 58.5765 1.32979C70.6759 4.3117 72.2258 30.3962 77.6384 42.2776Z" fill="url(#paint2_linear_1:369)"/>
<path d="M58.5769 1.33064C57.8322 1.14316 57.0472 1.04553 56.2178 1.04553L61.4412 1.0645C60.4911 1.0645 59.533 1.15225 58.5769 1.32985" fill="#3092C4"/>
<path d="M77.4064 45.1677C76.8871 44.677 76.394 44.1385 75.9088 43.5641C73.6745 45.1318 71.4483 46.3205 69.2363 47.0944C70.0232 47.4754 70.8485 47.7587 71.7242 47.9342C72.4024 48.0714 73.105 48.1416 73.8436 48.1416C76.3256 48.1416 78.2881 47.8504 79.9587 47.0566C79.0389 46.5639 78.1955 45.9256 77.4064 45.1677Z" fill="#1969BC"/>
<path d="M55.4827 2.18547C66.32 7.80205 67.2621 33.2364 75.9093 43.5641C76.489 43.1593 77.0627 42.7304 77.6364 42.2775C72.2238 30.3962 70.6759 4.30954 58.5785 1.32971C57.5459 1.52118 56.5153 1.80459 55.4827 2.18547Z" fill="url(#paint3_linear_1:369)"/>
<path d="M47.1897 7.1738C55.4988 18.449 58.4739 41.8688 69.2367 47.0945C71.4488 46.3206 73.675 45.1319 75.9093 43.5642C67.262 33.2365 66.32 7.80213 55.4827 2.18555C52.7311 3.19875 49.9695 4.88805 47.1897 7.1738Z" fill="url(#paint4_linear_1:369)"/>
<path d="M38.6409 9.76065C37.3385 12.6788 36.008 16.5141 34.3997 21.5205C37.5982 17.0546 40.7866 13.2072 43.9568 10.0899C43.5201 8.75942 43.0511 7.53283 42.5458 6.4397C41.2495 7.42307 39.9432 8.53011 38.6409 9.76065Z" fill="url(#paint5_linear_1:369)"/>
<path d="M43.7007 5.59839C43.3182 5.86963 42.9338 6.14695 42.5474 6.44008C43.0526 7.53309 43.5195 8.7598 43.9564 10.0901C44.5319 9.5316 45.1036 8.99114 45.6752 8.4745C45.0614 7.42933 44.4092 6.46398 43.7007 5.59839Z" fill="#2B74B1"/>
<path d="M45.0651 4.69629C44.6102 4.98159 44.1574 5.28266 43.7004 5.5978C44.4089 6.46343 45.0611 7.42878 45.677 8.476C46.1823 8.02317 46.6875 7.58643 47.1907 7.1735C46.5224 6.26208 45.812 5.42628 45.0651 4.69629Z" fill="#125A9E"/>
<path d="M118.985 0.00549193C112.856 23.4273 100.054 42.2397 89.3211 46.9827H89.3007C89.1055 47.0705 88.9122 47.1503 88.7211 47.228C88.6947 47.2438 88.6708 47.2458 88.6505 47.2552C88.5941 47.2778 88.5418 47.2951 88.4854 47.3175C88.4591 47.3333 88.4352 47.3384 88.4111 47.3479C88.3206 47.3799 88.2319 47.407 88.1434 47.442C88.1051 47.4578 88.069 47.4677 88.0326 47.4804C87.9923 47.4962 87.9459 47.5108 87.8997 47.5235C87.8595 47.5393 87.8173 47.5507 87.7709 47.5681C87.7326 47.5839 87.6923 47.5906 87.6562 47.6064C87.5776 47.629 87.5054 47.6479 87.4268 47.675C87.3945 47.675 87.3644 47.6924 87.3301 47.7007C87.2818 47.7165 87.2274 47.728 87.1751 47.7422C87.1388 47.758 87.1087 47.7631 87.0704 47.771C87.016 47.7868 86.9556 47.8015 86.9013 47.8141C86.8289 47.8299 86.7645 47.8446 86.696 47.8588C87.1811 48.0364 87.6863 48.1261 88.2318 48.1261C98.4089 48.1261 108.67 30.0537 125.649 0H118.982L118.985 0.00549193Z" fill="url(#paint6_linear_1:369)"/>
<path d="M32.1896 1.99687C32.196 1.99687 32.204 1.98107 32.208 1.98107C32.216 1.98107 32.2283 1.98107 32.2323 1.96526H32.2451C32.3014 1.9463 32.3538 1.92378 32.4101 1.90303C32.4245 1.90303 32.432 1.90303 32.4424 1.88723C32.4567 1.88723 32.4707 1.87143 32.4847 1.86945C32.5451 1.85049 32.6055 1.82797 32.6619 1.80722H32.6715C32.8064 1.76736 32.9311 1.71789 33.0619 1.67162C33.0803 1.67162 33.0982 1.65582 33.1202 1.65582C33.1747 1.63843 33.2311 1.61907 33.2873 1.60635C33.3136 1.59055 33.3397 1.59055 33.3638 1.58225C33.4221 1.56487 33.4786 1.54551 33.5329 1.53278C33.5572 1.53278 33.5793 1.51698 33.5973 1.5154C33.7845 1.46435 33.9697 1.41647 34.1569 1.37178C34.1832 1.37178 34.2052 1.35598 34.2333 1.3544C34.2876 1.33859 34.3381 1.33029 34.3964 1.32239C34.4207 1.30659 34.4487 1.30659 34.4769 1.29829C34.5312 1.28249 34.5835 1.28091 34.642 1.26787H34.6802C34.793 1.24535 34.9077 1.22638 35.0204 1.20564H35.0889C35.1431 1.18983 35.1915 1.18825 35.2459 1.17838C35.2758 1.17838 35.3063 1.16257 35.3345 1.16257C35.3847 1.16257 35.4351 1.14677 35.4853 1.14005C35.5116 1.14005 35.5376 1.14005 35.568 1.12425C35.6866 1.10844 35.8095 1.10212 35.9343 1.09224C35.582 1.05866 35.2197 1.03638 34.8513 1.03638C23.3901 1.03638 7.59913 22.1086 0.485657 49.3978H1.85642C4.13297 45.3749 6.17805 41.5693 8.048 37.9971C13.0299 18.6681 23.1767 5.4861 32.1904 1.99375" fill="url(#paint7_linear_1:369)"/>
<path d="M38.641 9.76069C39.9434 8.53015 41.2497 7.42311 42.546 6.43989C42.2501 5.79765 41.9442 5.20326 41.616 4.65869C40.5674 5.91923 39.6092 7.58269 38.641 9.76069Z" fill="#0D82CA"/>
<path d="M39.5825 2.15661C40.3313 2.7789 41.0015 3.63461 41.6155 4.65982C41.8087 4.42446 42.0041 4.207 42.2073 4.00356C41.3559 3.21576 40.436 2.56953 39.4376 2.08289C39.4779 2.10501 39.5181 2.12279 39.56 2.14033C39.56 2.14033 39.5759 2.15614 39.5827 2.15614" fill="#0D82CA"/>
<path d="M8.04749 37.9994C18.4983 18.044 23.45 5.4146 32.1898 1.99597C23.1782 5.49054 13.0293 18.6723 8.04749 37.9994Z" fill="url(#paint8_linear_1:369)"/>
<path d="M42.2066 4.00305C42.0035 4.20858 41.8102 4.42399 41.6149 4.65936C41.943 5.20377 42.2489 5.79623 42.5469 6.4404C42.9334 6.14727 43.3178 5.86995 43.7002 5.59871C43.2273 5.02028 42.7281 4.48381 42.2066 4.00305Z" fill="#127BCA"/>
<path d="M12.7918 49.3105C12.7274 49.3263 12.663 49.3263 12.6026 49.333H12.5664C12.5119 49.333 12.4556 49.3488 12.4053 49.3488H12.3791C12.2483 49.3646 12.1194 49.3646 11.9946 49.3745H11.9544C22.532 49.0812 27.3669 43.8335 29.7662 36.2223C31.5899 30.4522 33.0875 25.5915 34.3999 21.5127C29.9696 27.6918 25.5191 35.0575 21.0445 43.309C18.8867 47.2861 15.6057 48.9474 12.7917 49.3026" fill="url(#paint9_linear_1:369)"/>
<path d="M12.7918 49.3065C15.6058 48.9513 18.8868 47.2918 21.0446 43.3128C25.5192 35.0634 29.9716 27.6956 34.3979 21.5165C36.0082 16.5082 37.3367 12.6748 38.6411 9.75671C29.8187 18.0779 20.962 31.9141 12.7918 49.3025" fill="url(#paint10_linear_1:369)"/>
<path d="M8.04699 37.9999C6.17712 41.5722 4.13204 45.3777 1.85541 49.4006H5.84298C6.37035 45.4055 7.11914 41.5959 8.04699 38.0018" fill="#05A1E6"/>
<path d="M35.5674 1.13448C35.5351 1.13448 35.511 1.15028 35.4829 1.15028C35.4346 1.16609 35.3842 1.16609 35.3339 1.17122C35.304 1.17122 35.2756 1.17122 35.2454 1.18703C35.1909 1.20283 35.1407 1.20441 35.0883 1.21429C35.064 1.21429 35.0401 1.21429 35.0199 1.23009C34.9051 1.24906 34.7925 1.27 34.6797 1.28912H34.6414C34.5832 1.30493 34.5307 1.31322 34.4764 1.32113C34.4481 1.33693 34.42 1.33693 34.3938 1.34325C34.3395 1.35906 34.2851 1.36577 34.2328 1.37526C34.2045 1.39106 34.1825 1.39106 34.1563 1.39264C33.9691 1.43733 33.7839 1.48521 33.5967 1.53626C33.5768 1.53626 33.5565 1.55206 33.5323 1.55522C33.476 1.57103 33.4215 1.58723 33.3632 1.60469C33.3389 1.6205 33.3109 1.6205 33.2867 1.62682C33.2304 1.64262 33.174 1.65882 33.1196 1.67628C33.0977 1.67628 33.0794 1.69209 33.0593 1.69209C32.9304 1.73994 32.8036 1.78782 32.6708 1.82773C32.6144 1.84511 32.554 1.86759 32.4937 1.88834C32.4693 1.90414 32.4473 1.9077 32.4193 1.91876C32.3629 1.93614 32.3065 1.95866 32.2542 1.97941C32.2343 1.99521 32.214 1.99679 32.1999 2.00509C23.4601 5.42372 18.5084 18.0531 8.0576 38.0085C7.12966 41.6027 6.37886 45.4123 5.85351 49.4073H6.41308C7.98916 49.4073 8.434 49.3915 10.2476 49.3915H10.3402H10.6099H10.7025H10.7287H10.8213H10.8737H10.9099H10.9824H11.2078H11.4333H11.6225H11.6727H12.0048C12.1296 49.3757 12.2585 49.3757 12.3893 49.3658H12.4135C12.4679 49.3658 12.5221 49.35 12.5745 49.35H12.6126C12.6709 49.35 12.7374 49.3342 12.8018 49.3275C20.9721 31.9391 29.8287 18.1029 38.6511 9.7817C39.6213 7.60369 40.5774 5.94023 41.6241 4.68175C41.0122 3.65658 40.3419 2.79893 39.5931 2.17648C39.5931 2.17648 39.5728 2.17648 39.5712 2.16068C39.5289 2.1433 39.4888 2.12236 39.4464 2.10165C39.404 2.07913 39.3678 2.06175 39.3237 2.03942C39.2854 2.02362 39.2411 2.00268 39.2029 1.98198C39.1506 1.96617 39.1083 1.94365 39.0621 1.92291C39.0238 1.9071 38.9896 1.8909 38.9512 1.87506C38.8727 1.84464 38.7943 1.81283 38.7198 1.77933C38.6855 1.76352 38.6534 1.75523 38.6211 1.74258C38.5668 1.72322 38.5043 1.6979 38.448 1.67395C38.4197 1.65815 38.3876 1.65499 38.3554 1.64353C38.2729 1.61627 38.1923 1.5877 38.1158 1.56214H38.0959C38.0033 1.53172 37.9127 1.50951 37.8181 1.48395C37.7962 1.46814 37.7778 1.46814 37.7558 1.46498C37.6731 1.44246 37.6007 1.4203 37.5223 1.39955C37.5023 1.39955 37.484 1.38375 37.468 1.38375C37.2788 1.33428 37.0835 1.29442 36.8863 1.25771C36.8659 1.25771 36.846 1.24191 36.8259 1.24191C36.7414 1.2261 36.6588 1.21149 36.5743 1.202C36.554 1.1862 36.542 1.1862 36.5241 1.1862C36.4234 1.17039 36.3248 1.15894 36.2261 1.14787H36.1738C36.0933 1.13207 36.0189 1.13049 35.9444 1.12219C35.8175 1.138 35.6968 1.14471 35.578 1.15578" fill="url(#paint11_linear_1:369)"/>
<path d="M95.0437 12.9719C93.0328 19.3545 91.4044 24.62 89.9874 28.9522C95.5046 21.4288 100.939 11.9646 106.115 1.04272C100.078 2.9214 96.8573 7.22178 95.0437 12.9719Z" fill="url(#paint12_linear_1:369)"/>
<path d="M90.1624 46.5838C89.8806 46.7258 89.5988 46.861 89.321 46.9827C100.054 42.2397 112.855 23.4273 118.985 0.00549316H117.743C103.661 24.9311 99.1318 41.6174 90.1624 46.5838Z" fill="url(#paint13_linear_1:369)"/>
<path d="M83.1542 44.4897C85.4891 41.6655 87.3912 36.8647 89.9879 28.9523C86.9927 33.0291 83.9775 36.5336 80.9602 39.3917C80.9602 39.4075 80.9602 39.4075 80.9442 39.4174C81.6025 41.372 82.325 43.0972 83.1484 44.4894" fill="#079AE1"/>
<path d="M83.1542 44.4897C82.359 45.4511 81.5178 46.1832 80.5817 46.7257C80.3764 46.8438 80.1692 46.955 79.9577 47.0568C80.9462 47.5853 82.0249 47.9384 83.2326 48.0799C83.4096 48.0973 83.5848 48.1135 83.768 48.1262H83.8003C83.8825 48.1262 83.9694 48.1262 84.058 48.142H84.0935H84.3573H84.6412H84.7298H84.931C84.9633 48.142 84.997 48.142 85.0292 48.1262C85.092 48.1262 85.1581 48.1262 85.2225 48.1104H85.2452H85.3176C85.3837 48.1104 85.4561 48.0946 85.527 48.0879H85.5429C85.5641 48.0879 85.5864 48.0721 85.6073 48.0721C85.6814 48.0563 85.7587 48.0495 85.8308 48.0385H85.8969C85.979 48.0227 86.0639 48.0128 86.1484 47.997H86.1644H86.1887C86.3578 47.965 86.5228 47.9332 86.6898 47.8917C85.305 47.389 84.1456 46.2043 83.1472 44.5169" fill="#1969BC"/>
<path d="M63.3674 48.1419C64.3719 48.1419 65.3864 48.0446 66.4049 47.8508C67.3469 47.6813 68.2909 47.4218 69.2369 47.0947C70.024 47.4758 70.8493 47.759 71.7228 47.9345C72.4011 48.0717 73.1056 48.1419 73.8444 48.1419H63.3674Z" fill="#1E5CB3"/>
<path d="M73.8446 48.142C76.3244 48.142 78.289 47.8508 79.9577 47.057C80.946 47.5855 82.0249 47.9386 83.2326 48.0803C83.4097 48.0977 83.585 48.1139 83.7681 48.1266H83.8003C83.8825 48.1266 83.9695 48.1266 84.058 48.1424H84.0951H84.3589H73.8375L73.8446 48.142Z" fill="#1E5CB3"/>
<path d="M84.3651 48.1419H84.651H84.7395H84.9389C84.9728 48.1419 85.0049 48.1419 85.0371 48.1261C85.0999 48.1261 85.1659 48.1261 85.2324 48.1103H85.2536H85.3277C85.3936 48.1103 85.4661 48.0945 85.535 48.0882H85.5526C85.5737 48.0882 85.5944 48.0724 85.6154 48.0724C85.6895 48.0566 85.7668 48.0503 85.8388 48.0388C85.8631 48.0388 85.8822 48.0388 85.908 48.023C85.9901 48.0072 86.0751 47.9989 86.1597 47.9831H86.1756H86.2C86.3691 47.9511 86.5341 47.9193 86.7011 47.8778C87.1861 48.0552 87.6914 48.1451 88.2368 48.1451L84.3681 48.1609L84.3651 48.1419Z" fill="#1D60B5"/>
<path d="M80.9507 39.4178V39.402C79.8456 40.449 78.7426 41.4085 77.6415 42.276C77.0658 42.7289 76.4922 43.1576 75.9125 43.5626C76.3976 44.137 76.8908 44.6755 77.4101 45.1662C78.1992 45.924 79.0424 46.5624 79.9624 47.055C80.1717 46.9528 80.3811 46.8414 80.5843 46.7239C81.5223 46.1813 82.3637 45.4494 83.1589 44.4881C82.3355 43.0959 81.613 41.3705 80.9547 39.4159" fill="#175FAB"/>
<path d="M113.81 0.00549316H108.588H108.069H107.578H107.559C107.22 0.0212973 106.892 0.0327553 106.568 0.0533796C106.415 0.378589 106.258 0.703758 106.107 1.03086C100.932 11.9528 95.4975 21.4169 89.9803 28.9403C87.3857 36.8526 85.4815 41.6535 83.1466 44.4778C84.145 46.1651 85.3064 47.3518 86.6872 47.8544C86.7275 47.8386 86.7597 47.8386 86.7959 47.8303H86.8182C86.8426 47.8303 86.8685 47.8145 86.8948 47.8145C86.9511 47.7987 87.0115 47.7889 87.0678 47.7715C87.1041 47.7557 87.1342 47.7541 87.1706 47.7426C87.2229 47.7268 87.2772 47.7154 87.3255 47.7027C87.3578 47.6869 87.3899 47.6818 87.4221 47.6755C87.5026 47.6498 87.5751 47.6308 87.6516 47.6068C87.6879 47.591 87.7262 47.578 87.7664 47.5685C87.8107 47.5527 87.8549 47.5413 87.8952 47.5222C87.9416 47.5064 87.9878 47.4981 88.0281 47.4808C88.0644 47.465 88.1025 47.4551 88.1368 47.4409C88.2272 47.4089 88.3159 47.3818 88.4065 47.3467C88.4308 47.3467 88.4548 47.3246 88.481 47.3194C88.5353 47.2969 88.5917 47.2795 88.6461 47.2556C88.6661 47.2398 88.6904 47.2382 88.7165 47.2299C88.9057 47.1517 89.1009 47.0719 89.2962 46.9847H89.3165C89.5943 46.8634 89.8761 46.7273 90.1559 46.5858C99.1272 41.6194 103.656 24.9331 117.738 0.00742917H113.805L113.81 0.00549316Z" fill="url(#paint14_linear_1:369)"/>
<path d="M35.9342 1.10078C35.9565 1.10078 35.9765 1.10078 35.9986 1.11659C36.0528 1.11659 36.1073 1.11659 36.1616 1.13397H36.216C36.3146 1.14977 36.4133 1.15807 36.5139 1.1723C36.5323 1.1723 36.5482 1.1723 36.5642 1.1881C36.6466 1.2039 36.7312 1.21694 36.8158 1.22959C36.8341 1.22959 36.8582 1.24539 36.8783 1.24539C37.0715 1.28371 37.2688 1.32358 37.458 1.37305C37.4759 1.37305 37.4943 1.38885 37.5103 1.38885C37.5908 1.40782 37.6633 1.43192 37.7438 1.45424C37.7681 1.45424 37.786 1.47004 37.8082 1.4736C37.9029 1.4977 37.9914 1.52149 38.084 1.55179C38.088 1.55179 38.0936 1.55179 38.1043 1.5676C38.1827 1.5913 38.2633 1.62184 38.3458 1.64895C38.3781 1.66475 38.4082 1.67147 38.4384 1.67937C38.4948 1.70347 38.5573 1.72722 38.6116 1.74958C38.6439 1.74958 38.676 1.77171 38.7101 1.78316C38.7845 1.81675 38.8631 1.84697 38.9396 1.8789C38.9798 1.8947 39.014 1.91248 39.0523 1.92674C39.0966 1.94926 39.1428 1.96985 39.1911 1.98581C39.2313 2.00478 39.2756 2.02568 39.3138 2.04322C39.3562 2.06574 39.3963 2.08313 39.4367 2.10545C40.4351 2.59214 41.3549 3.24042 42.2064 4.02628C42.5204 3.69918 42.8485 3.40589 43.1887 3.14263C41.3267 1.83421 39.2173 1.08826 36.7837 1.08826C36.5019 1.08826 36.2201 1.10406 35.9343 1.125" fill="#7DCBEC"/>
<path d="M42.2067 4.00303C42.728 4.48363 43.2272 5.02026 43.7002 5.59869C44.1571 5.28356 44.6101 4.98036 45.065 4.69715C44.4691 4.10675 43.8411 3.5762 43.1869 3.11938C42.8468 3.38075 42.5207 3.67593 42.2067 4.00303Z" fill="#5EC5ED"/>
<path d="M35.9337 1.10043C36.2195 1.07649 36.5013 1.06652 36.7831 1.06652C39.2167 1.06652 41.3262 1.81248 43.1881 3.1189C45.1526 1.5831 47.5278 1.04657 50.8269 1.04657H34.8508C35.2191 1.04657 35.5794 1.06851 35.9337 1.10043Z" fill="url(#paint15_linear_1:369)"/>
<path d="M50.8269 1.04653C47.5278 1.04653 45.1526 1.58306 43.1881 3.11886C43.8402 3.5756 44.4683 4.10615 45.0641 4.69653C47.7996 2.97325 50.5089 1.83238 53.18 1.33375C54.1985 1.14426 55.215 1.04653 56.2174 1.04653H50.8269Z" fill="url(#paint16_linear_1:369)"/>
<path d="M89.9873 28.9561C91.4064 24.62 93.0308 19.3565 95.0456 12.9719C96.8613 7.21967 100.076 2.91945 106.112 1.04267C106.272 0.721451 106.422 0.390355 106.577 0.0651855C96.7365 0.649661 92.1371 5.60998 89.8223 12.956C85.7744 25.7808 83.3227 34.094 80.9616 39.3915C83.9769 36.5353 86.9922 33.029 89.9873 28.9561Z" fill="url(#paint17_linear_1:369)"/>
<path d="M104.425 44.7255H103.31V48.1601H102.855V44.7255H101.736V44.3168H104.425V44.7255Z" fill="black"/>
<path d="M108.991 48.1595H108.538V45.5786C108.538 45.3752 108.554 45.1259 108.575 44.8326C108.529 45.0082 108.49 45.1299 108.454 45.2076L107.134 48.1595H106.913L105.588 45.2296C105.549 45.1482 105.511 45.0162 105.469 44.8326H105.453C105.469 44.9874 105.474 45.2376 105.474 45.5847V48.1595H105.039V44.3162H105.639L106.829 46.9987C106.919 47.2003 106.975 47.3558 107.004 47.4595H107.022C107.1 47.2481 107.165 47.0905 107.209 46.9867L108.422 44.3162H108.994V48.1595H108.991Z" fill="black"/>
<defs>
<linearGradient id="paint0_linear_1:369" x1="55.1802" y1="0.732597" x2="55.1802" y2="59.8931" gradientUnits="userSpaceOnUse">
<stop stop-color="#0994DC"/>
<stop offset="0.350006" stop-color="#66CEF5"/>
<stop offset="0.846161" stop-color="#127BCA"/>
<stop offset="1" stop-color="#127BCA"/>
</linearGradient>
<linearGradient id="paint1_linear_1:369" x1="57.4565" y1="-0.765211" x2="57.4565" y2="59.903" gradientUnits="userSpaceOnUse">
<stop stop-color="#0E76BC"/>
<stop offset="0.360001" stop-color="#36AEE8"/>
<stop offset="0.846161" stop-color="#00ADEF"/>
<stop offset="1" stop-color="#00ADEF"/>
</linearGradient>
<linearGradient id="paint2_linear_1:369" x1="69.7618" y1="46.7786" x2="69.7618" y2="-1.49431" gradientUnits="userSpaceOnUse">
<stop stop-color="#1C63B7"/>
<stop offset="0.5" stop-color="#33BDF2"/>
<stop offset="1" stop-color="#33BDF2" stop-opacity="0.419608"/>
</linearGradient>
<linearGradient id="paint3_linear_1:369" x1="66.5598" y1="-6.91233" x2="66.5598" y2="56.077" gradientUnits="userSpaceOnUse">
<stop stop-color="#166AB8"/>
<stop offset="0.399994" stop-color="#36AEE8"/>
<stop offset="0.846161" stop-color="#0798DD"/>
<stop offset="1" stop-color="#0798DD"/>
</linearGradient>
<linearGradient id="paint4_linear_1:369" x1="61.5491" y1="-6.58119" x2="61.5491" y2="60.3996" gradientUnits="userSpaceOnUse">
<stop stop-color="#124379"/>
<stop offset="0.389999" stop-color="#1487CB"/>
<stop offset="0.780228" stop-color="#165197"/>
<stop offset="1" stop-color="#165197"/>
</linearGradient>
<linearGradient id="paint5_linear_1:369" x1="34.3998" y1="13.9802" x2="43.9569" y2="13.9802" gradientUnits="userSpaceOnUse">
<stop stop-color="#33BDF2" stop-opacity="0.698039"/>
<stop offset="1" stop-color="#1DACD8"/>
</linearGradient>
<linearGradient id="paint6_linear_1:369" x1="106.176" y1="45.5689" x2="106.176" y2="-1.45561" gradientUnits="userSpaceOnUse">
<stop stop-color="#136AB4"/>
<stop offset="0.6" stop-color="#59CAF5" stop-opacity="0.54902"/>
<stop offset="1" stop-color="#59CAF5" stop-opacity="0.235294"/>
</linearGradient>
<linearGradient id="paint7_linear_1:369" x1="0.485387" y1="25.217" x2="35.934" y2="25.217" gradientUnits="userSpaceOnUse">
<stop stop-color="#05A1E6" stop-opacity="0.247059"/>
<stop offset="1" stop-color="#05A1E6"/>
</linearGradient>
<linearGradient id="paint8_linear_1:369" x1="20.1183" y1="46.7532" x2="20.1183" y2="-1.39605" gradientUnits="userSpaceOnUse">
<stop stop-color="#318ED5"/>
<stop offset="1" stop-color="#38A7E4"/>
</linearGradient>
<linearGradient id="paint9_linear_1:369" x1="23.1768" y1="46.9226" x2="23.1768" y2="0.11892" gradientUnits="userSpaceOnUse">
<stop stop-color="#05A1E6"/>
<stop offset="1" stop-color="#05A1E6" stop-opacity="0.54902"/>
</linearGradient>
<linearGradient id="paint10_linear_1:369" x1="25.7165" y1="49.3106" x2="25.7165" y2="9.76074" gradientUnits="userSpaceOnUse">
<stop stop-color="#1959A6"/>
<stop offset="0.5" stop-color="#05A1E6"/>
<stop offset="0.917587" stop-color="#7EC5EA"/>
<stop offset="1" stop-color="#7EC5EA"/>
</linearGradient>
<linearGradient id="paint11_linear_1:369" x1="27.2458" y1="46.7843" x2="13.9382" y2="5.74165" gradientUnits="userSpaceOnUse">
<stop stop-color="#165096"/>
<stop offset="1" stop-color="#0D82CA"/>
</linearGradient>
<linearGradient id="paint12_linear_1:369" x1="98.0501" y1="22.5325" x2="98.0501" y2="0.122009" gradientUnits="userSpaceOnUse">
<stop stop-color="#05A1E6"/>
<stop offset="0.873627" stop-color="#0495D6"/>
<stop offset="1" stop-color="#0495D6"/>
</linearGradient>
<linearGradient id="paint13_linear_1:369" x1="108.681" y1="-1.94944" x2="87.9207" y2="44.567" gradientUnits="userSpaceOnUse">
<stop stop-color="#38A7E4" stop-opacity="0.329412"/>
<stop offset="0.961533" stop-color="#0E88D3"/>
<stop offset="1" stop-color="#0E88D3"/>
</linearGradient>
<linearGradient id="paint14_linear_1:369" x1="100.448" y1="-0.136033" x2="100.448" y2="48.7549" gradientUnits="userSpaceOnUse">
<stop stop-color="#168CD4"/>
<stop offset="0.5" stop-color="#1C87CC"/>
<stop offset="1" stop-color="#154B8D"/>
</linearGradient>
<linearGradient id="paint15_linear_1:369" x1="37.5146" y1="-1.14107" x2="37.7245" y2="3.98665" gradientUnits="userSpaceOnUse">
<stop stop-color="#97D6EE"/>
<stop offset="0.703293" stop-color="#55C1EA"/>
<stop offset="1" stop-color="#55C1EA"/>
</linearGradient>
<linearGradient id="paint16_linear_1:369" x1="44.0858" y1="4.46657" x2="45.0352" y2="-0.967906" gradientUnits="userSpaceOnUse">
<stop stop-color="#7ACCEC"/>
<stop offset="1" stop-color="#3FB7ED"/>
</linearGradient>
<linearGradient id="paint17_linear_1:369" x1="93.7687" y1="2.56745" x2="93.7687" y2="50.3877" gradientUnits="userSpaceOnUse">
<stop stop-color="#1DA7E7"/>
<stop offset="1" stop-color="#37ABE7" stop-opacity="0"/>
</linearGradient>
</defs>
</svg>
