<svg width="102" height="187" viewBox="0 0 102 187" fill="none" xmlns="http://www.w3.org/2000/svg">
<path d="M96.9353 146.521H96.2424V146.134H98.1077V146.521H97.4195V148.455H96.9353V146.521ZM100.656 146.622H100.645L99.9583 148.456H99.6441L98.9621 146.622H98.9536V148.456H98.4973V146.134H99.1688L99.8012 147.778L100.432 146.134H101.101V148.456H100.655V146.622H100.656Z" fill="#E76F00"/>
<path d="M34.9115 99.0502C34.9115 99.0502 30.091 101.853 38.3421 102.802C48.3381 103.942 53.447 103.779 64.4626 101.694C64.4626 101.694 67.3587 103.51 71.4034 105.083C46.7092 115.666 15.5156 104.47 34.9115 99.0502Z" fill="#5382A1"/>
<path d="M31.894 85.2394C31.894 85.2394 26.4874 89.2415 34.7446 90.0956C45.4226 91.1972 53.8553 91.2873 68.4471 88.4775C68.4471 88.4775 70.4653 90.5237 73.6389 91.6426C43.7821 100.373 10.5271 92.3311 31.894 85.2394Z" fill="#5382A1"/>
<path d="M57.3325 61.8116C63.4171 68.817 55.7338 75.1209 55.7338 75.1209C55.7338 75.1209 71.1838 67.1452 64.0883 57.1577C57.4614 47.8437 52.3794 43.216 79.8912 27.2601C79.8912 27.2601 36.7067 38.0456 57.3325 61.8116Z" fill="#E76F00"/>
<path d="M89.9926 109.265C89.9926 109.265 93.5599 112.205 86.0639 114.479C71.8101 118.797 26.7379 120.101 14.2171 114.651C9.71619 112.693 18.1567 109.975 20.8117 109.405C23.5807 108.805 25.1631 108.917 25.1631 108.917C20.1576 105.39 -7.19031 115.84 11.2717 118.833C61.6203 126.998 103.052 115.156 89.9926 109.265Z" fill="#5382A1"/>
<path d="M37.2297 70.9297C37.2297 70.9297 14.3031 76.3752 29.1108 78.3526C35.3631 79.1897 47.8268 79.0003 59.4364 78.0276C68.9245 77.2272 78.4516 75.5255 78.4516 75.5255C78.4516 75.5255 75.106 76.9583 72.6856 78.611C49.404 84.7341 4.4285 81.8855 17.3764 75.6224C28.3264 70.3293 37.2297 70.9297 37.2297 70.9297Z" fill="#5382A1"/>
<path d="M78.3571 93.9185C102.024 81.6204 91.0813 69.802 83.4435 71.3942C81.5715 71.7838 80.7368 72.1215 80.7368 72.1215C80.7368 72.1215 81.4317 71.0328 82.7591 70.5615C97.869 65.2494 109.49 86.2291 77.8814 94.5383C77.8814 94.5387 78.2476 94.2113 78.3571 93.9185Z" fill="#5382A1"/>
<path d="M64.0883 1.49573C64.0883 1.49573 77.1953 14.6071 51.6569 34.7688C31.1777 50.9419 46.987 60.1634 51.6484 70.6993C39.6943 59.9138 30.9217 50.4193 36.8071 41.5827C45.4454 28.6114 69.3767 22.3224 64.0883 1.49573Z" fill="#E76F00"/>
<path d="M39.5553 127.244C62.2724 128.698 97.1571 126.437 97.9832 115.688C97.9832 115.688 96.3951 119.763 79.2088 122.999C59.8193 126.648 35.905 126.222 21.7213 123.883C21.7216 123.883 24.6249 126.286 39.5553 127.244Z" fill="#5382A1"/>
<path d="M35.8323 168.316C33.6892 170.175 31.4259 171.219 29.3947 171.219C26.4955 171.219 24.9291 169.48 24.9291 166.692C24.9291 163.676 26.6074 161.47 33.3404 161.47H35.8319V168.316H35.8323ZM41.7455 174.988V154.336C41.7455 149.06 38.7365 145.579 31.4816 145.579C27.2462 145.579 23.5362 146.625 20.5207 147.959L21.3911 151.614C23.7653 150.743 26.8386 149.932 29.8551 149.932C34.0343 149.932 35.8323 151.614 35.8323 155.093V157.703H33.7464C23.5923 157.703 19.0118 161.645 19.0118 167.561C19.0118 172.667 22.0303 175.569 27.7137 175.569C31.367 175.569 34.0942 174.061 36.6435 171.854L37.1062 174.988H41.7455V174.988Z" fill="#E76F00"/>
<path d="M61.4805 174.988H54.1052L45.2292 146.102H51.6698L57.1775 163.85L58.4018 169.187C61.1881 161.47 63.1588 153.641 64.1444 146.102H70.4096C68.731 155.614 65.7105 166.055 61.4805 174.988Z" fill="#E76F00"/>
<path d="M89.7729 168.316C87.6258 170.175 85.3584 171.219 83.3272 171.219C80.4331 171.219 78.8627 169.48 78.8627 166.692C78.8627 163.676 80.545 161.47 87.2773 161.47H89.7729V168.316ZM95.6855 174.988V154.336C95.6855 149.06 92.6691 145.579 85.4226 145.579C81.1842 145.579 77.4728 146.625 74.4587 147.959L75.3277 151.614C77.7029 150.743 80.782 149.932 83.7961 149.932C87.9723 149.932 89.7729 151.614 89.7729 155.093V157.703H87.6836C77.5265 157.703 72.948 161.645 72.948 167.561C72.948 172.667 75.9642 175.569 81.6466 175.569C85.3019 175.569 88.0281 174.061 90.5818 171.854L91.0462 174.988H95.6855V174.988Z" fill="#E76F00"/>
<path d="M12.528 179.894C10.8423 182.355 8.11954 184.302 5.13876 185.404L2.21918 181.968C4.488 180.804 6.43382 178.924 7.33788 177.172C8.11988 175.615 8.44356 173.607 8.44356 168.807V135.829H14.7261V168.355C14.7257 174.773 14.2127 177.365 12.528 179.894Z" fill="#E76F00"/>
</svg>
