<svg width="542" height="335" fill="none" xmlns="http://www.w3.org/2000/svg"><path fill="#0070CC" d="M0 0h542v335H0z"/><path d="M69.297 297.463v-1.005c-.698 1.094-1.647 1.794-2.847 2.063-1.2.27-2.38.18-3.544-.287-1.182-.466-2.184-1.346-3.026-2.62-.84-1.274-1.27-2.943-1.27-5.025 0-2.44.554-4.397 1.664-5.922 1.11-1.507 2.9-2.261 5.37-2.261 1.88 0 3.617.502 5.228 1.525 1.611 1.023 2.399 2.907 2.399 5.653v8.291c0 2.746-.806 4.613-2.399 5.618-1.611 1.005-3.348 1.507-5.227 1.507-3.598 0-5.836-1.687-6.695-5.061h4.278c.304.557.788.969 1.432 1.274.645.288 1.29.377 1.934.234.644-.144 1.235-.521 1.754-1.149.555-.646.86-1.579.949-2.835Zm-6.695-6.766c0 2.71.787 4.217 2.345 4.504 1.557.288 2.72-.071 3.455-1.094.358-.431.608-1.113.77-2.028a8.83 8.83 0 0 0 .035-2.746 5.597 5.597 0 0 0-.966-2.405c-.502-.7-1.254-1.059-2.238-1.059-1.325 0-2.238.485-2.703 1.472-.466.969-.698 2.1-.698 3.356Zm25.008 7.699h-2.06c-.59 0-1.074-.18-1.432-.556-.376-.377-.555-.862-.555-1.436V288.4c0-.933-.286-1.633-.86-2.064a3.084 3.084 0 0 0-1.915-.646c-.698 0-1.325.215-1.88.646-.554.431-.823 1.113-.823 2.064v10.014H73.97v-9.189c0-2.674.698-4.45 2.076-5.348 1.397-.897 2.918-1.399 4.601-1.471 1.719 0 3.312.448 4.762 1.346 1.45.897 2.166 2.728 2.166 5.473v9.171h.036Zm1.002-14.286h4.118v14.304h-4.118V284.11Zm11.672 14.285a33.166 33.166 0 0 1-4.189-.053c-1.503-.126-2.255-1.077-2.255-2.89v-15.308h2.112c.501 0 .967.197 1.343.592.394.395.59.862.59 1.418v.538h2.399v.826c0 .592-.197 1.077-.59 1.436-.394.377-.86.556-1.415.556h-.411v8.812c0 .664.394 1.005 1.181 1.005h1.235v3.068Z" fill="#fff"/><path d="M111.49 293.568h2.936c-.429 1.651-1.253 2.908-2.47 3.769-1.217.897-2.739 1.346-4.583 1.346-2.238 0-3.974-.718-5.227-2.172-1.253-1.417-1.88-3.427-1.88-6.065 0-2.513.609-4.469 1.826-5.887 1.253-1.453 2.99-2.171 5.227-2.171 2.346 0 4.171.7 5.46 2.117 1.253 1.454 1.88 3.464 1.88 6.066v.646c0 .198-.018.341-.054.413h-10.15c.036 1.22.34 2.118.877 2.71.502.628 1.271.933 2.292.933.662 0 1.235-.143 1.7-.413a.643.643 0 0 0 .323-.215l.322-.323c.036-.126.179-.269.447-.467.251-.179.609-.287 1.074-.287Zm-7.035-4.576h5.997c-.071-1.059-.358-1.849-.823-2.351-.502-.556-1.235-.826-2.166-.826-.86 0-1.558.27-2.113.826-.573.538-.859 1.328-.895 2.351Zm-50.841-12.077h2.112c.555 0 1.02.197 1.414.592.394.395.591.861.591 1.418v19.489h-4.117v-21.499Zm34.998 3.23h2.113c.555 0 1.02.197 1.414.592.394.395.59.861.59 1.418v1.238h-4.117v-3.248Zm-24.597.216h-.644v-.467c-.322.359-.77.538-1.325.538-.519 0-.966-.179-1.342-.52-.394-.377-.591-.844-.591-1.418 0-.592.215-1.077.626-1.454.376-.358.842-.52 1.36-.52.538 0 .968.179 1.29.556v-.466h.644v3.751h-.018Zm-.662-1.867a1.38 1.38 0 0 0-.358-.933 1.203 1.203 0 0 0-.895-.377c-.376 0-.68.126-.949.395-.25.251-.376.52-.376.807 0 .377.108.7.34.97.233.287.537.412.913.412.358 0 .663-.125.931-.377.269-.233.394-.538.394-.897Zm5.317-.108c0 .593-.18 1.077-.537 1.454-.376.395-.842.592-1.432.592-.537 0-.95-.179-1.271-.52v1.687h-.68v-5.007h.644v.448c.16-.179.358-.305.555-.394.215-.09.43-.126.68-.126.52 0 .984.179 1.378.52.448.359.663.808.663 1.346Zm-.698.09c0-.359-.126-.664-.376-.915a1.283 1.283 0 0 0-.931-.377c-.376 0-.68.144-.931.413-.233.251-.34.556-.34.897 0 .323.09.592.286.844.233.287.573.43 1.02.43.359 0 .663-.125.913-.377.251-.233.359-.538.359-.915Zm5.192 1.885h-.645v-.467c-.322.359-.77.538-1.325.538-.519 0-.966-.179-1.342-.52-.394-.377-.59-.844-.59-1.418 0-.592.214-1.077.626-1.454.376-.358.841-.52 1.36-.52.537 0 .967.179 1.29.556v-.466h.644v3.751h-.018Zm-.645-1.867a1.38 1.38 0 0 0-.358-.933 1.203 1.203 0 0 0-.895-.377c-.376 0-.68.126-.949.395-.25.251-.376.52-.376.807 0 .377.108.7.34.97.233.287.537.412.913.412.358 0 .663-.125.931-.377.25-.233.394-.538.394-.897Zm5.137.628c-.215.431-.466.754-.752.969-.322.234-.698.359-1.163.359-.52 0-.985-.179-1.379-.556-.412-.395-.626-.862-.626-1.436h.035s0 .018-.018.036c0-.592.197-1.077.61-1.454a1.81 1.81 0 0 1 1.288-.52c.465 0 .86.126 1.217.359.34.233.609.574.77 1.005h-.752c-.25-.449-.662-.682-1.217-.682-.358 0-.645.126-.877.377a1.305 1.305 0 0 0-.358.915c0 .359.125.682.376.933.25.252.555.377.913.377.232 0 .465-.054.68-.179.215-.126.376-.287.501-.485h.752v-.018Zm3.885 1.238h-.68v-2.154c0-.287-.09-.538-.287-.717a.997.997 0 0 0-.716-.288c-.286 0-.519.09-.698.252a.906.906 0 0 0-.268.682v2.225h-.68v-5.007h.68v1.561c.268-.269.59-.394.984-.394.43 0 .806.143 1.128.448.34.323.52.736.52 1.238v2.154h.017Zm4.439-1.615h-3.168a1.2 1.2 0 0 0 .466.771c.232.162.483.252.751.252.251 0 .484-.072.717-.216.232-.143.393-.341.483-.574h.698c-.179.503-.465.861-.841 1.113-.323.215-.68.323-1.074.323-.502 0-.931-.18-1.29-.539a1.991 1.991 0 0 1-.572-1.435c0-.593.197-1.077.608-1.436a1.867 1.867 0 0 1 1.307-.503c.502 0 .95.162 1.307.503.412.377.627.897.627 1.543v.198h-.018Zm-.697-.628a1.205 1.205 0 0 0-.466-.682 1.218 1.218 0 0 0-.77-.27c-.358 0-.662.126-.895.359a1.232 1.232 0 0 0-.34.593h2.47Zm-49.535-3.015s-12.441 7.609-.716 15.165c2.256 1.471 10.437 5.563 10.204 9.35 0 0 4.959-7.358-2.291-11.988-7.448-4.738-9.31-9.799-7.197-12.527Zm-4.332 14.536s-4.44 6.748 4.296 8.13c.86.108 7.179.772 8.826 2.853 0 0-.143-3.589-5.299-5.707-5.138-2.117-7.25-2.638-7.823-5.276Z" fill="#fff"/><path d="M48.601 282.549c-5.334-5.599-6.82-9.062-4.529-13.549 0 0-15.914 6.138-.197 17.031 5.621 3.894 4.69 7.878 4.69 8.022.878-.915 5.371-5.904.036-11.504Z" fill="#fff"/><rect x="340.513" y="197.859" width="130.822" height="106.641" rx="10.5" stroke="#fff"/><rect x="444.748" y="224.764" width="67.252" height="59.437" rx="8" fill="#BDDAF2"/><path d="m490.455 246.193 8.554 8.532-8.554 8.531m-24.327-.15-8.554-8.531 8.554-8.532m8.124 19.898 8.507-22.529M368.051 144.97h72.697a4 4 0 0 1 4 4v48.239" stroke="#fff" stroke-linecap="round" stroke-linejoin="round"/><mask id="a" fill="#fff"><path fill-rule="evenodd" clip-rule="evenodd" d="M418.403 212.809h.114v-37.264h-31.632v37.264h.114c.944 4.145 7.614 7.357 15.702 7.357 8.088 0 14.758-3.212 15.702-7.357Z"/></mask><path fill-rule="evenodd" clip-rule="evenodd" d="M418.403 212.809h.114v-37.264h-31.632v37.264h.114c.944 4.145 7.614 7.357 15.702 7.357 8.088 0 14.758-3.212 15.702-7.357Z" fill="#0070CC"/><path d="M418.517 212.809v1h1v-1h-1Zm-.114 0v-1h-.798l-.177.777.975.223Zm.114-.993-1-.004v.004h1Zm0-.039h-1v.005l1-.005Zm0-36.232h1v-1h-1v1Zm-31.632 0v-1h-1v1h1Zm0 37.264h-1v1h1v-1Zm.114 0 .975-.223-.177-.777h-.798v1Zm31.518-1h-.114v2h.114v-2Zm-1 .007v.993h2v-.993h-2Zm0-.019v.015l2 .009v-.024h-2Zm0-.015v.015h2v-.024l-2 .009Zm0-36.237v36.232h2v-36.232h-2Zm-30.632 1h31.632v-2h-31.632v2Zm1 36.264v-37.264h-2v37.264h2Zm-.886-1h-.114v2h.114v-2Zm15.702 7.357c-3.921 0-7.461-.78-10.103-2.028-2.681-1.267-4.252-2.918-4.624-4.552l-1.95.445c.572 2.511 2.808 4.539 5.72 5.915 2.951 1.394 6.79 2.22 10.957 2.22v-2Zm14.727-6.58c-.372 1.634-1.944 3.285-4.625 4.552-2.642 1.248-6.181 2.028-10.102 2.028v2c4.166 0 8.006-.826 10.957-2.22 2.912-1.376 5.148-3.404 5.72-5.915l-1.95-.445Z" fill="#fff" mask="url(#a)"/><path d="M417.929 200.335c0 4.093-6.801 7.411-15.191 7.411s-15.191-3.318-15.191-7.411m30.345-12.108c0 4.093-6.802 7.411-15.191 7.411-8.39 0-15.191-3.318-15.191-7.411" stroke="#fff"/><path d="M418.017 175.87c0 1.952-1.556 3.847-4.36 5.283-2.779 1.423-6.651 2.318-10.956 2.318s-8.178-.895-10.956-2.318c-2.805-1.436-4.36-3.331-4.36-5.283 0-1.952 1.555-3.847 4.36-5.283 2.778-1.423 6.651-2.318 10.956-2.318s8.177.895 10.956 2.318c2.804 1.436 4.36 3.331 4.36 5.283Z" fill="#0070CC" stroke="#fff"/><ellipse cx="437.413" cy="122.816" rx="3.366" ry="3.357" fill="#BDDAF2"/><ellipse cx="437.413" cy="157.732" rx="3.366" ry="3.357" fill="#BDDAF2"/><ellipse cx="437.413" cy="105.357" rx="3.366" ry="3.357" fill="#BDDAF2"/><ellipse cx="437.413" cy="140.274" rx="3.366" ry="3.357" fill="#BDDAF2"/><ellipse cx="454.917" cy="122.816" rx="3.366" ry="3.357" fill="#BDDAF2"/><ellipse cx="454.917" cy="157.732" rx="3.366" ry="3.357" fill="#BDDAF2"/><ellipse cx="454.917" cy="105.357" rx="3.366" ry="3.357" fill="#BDDAF2"/><ellipse cx="454.917" cy="140.274" rx="3.366" ry="3.357" fill="#BDDAF2"/><ellipse cx="472.42" cy="122.816" rx="3.366" ry="3.357" fill="#BDDAF2"/><ellipse cx="472.42" cy="157.732" rx="3.366" ry="3.357" fill="#BDDAF2"/><ellipse cx="472.42" cy="105.357" rx="3.366" ry="3.357" fill="#BDDAF2"/><ellipse cx="472.42" cy="140.274" rx="3.366" ry="3.357" fill="#BDDAF2"/><ellipse cx="489.923" cy="122.816" rx="3.366" ry="3.357" fill="#BDDAF2"/><ellipse cx="489.923" cy="157.732" rx="3.366" ry="3.357" fill="#BDDAF2"/><ellipse cx="489.923" cy="105.357" rx="3.366" ry="3.357" fill="#BDDAF2"/><ellipse cx="489.923" cy="140.274" rx="3.366" ry="3.357" fill="#BDDAF2"/><ellipse cx="362.151" cy="144.426" rx="5.9" ry="5.885" fill="#BDDAF2"/><rect x="297.5" y="215.493" width="70.051" height="68.589" rx="5.5" fill="#0070CC" stroke="#fff"/><path d="M308.118 233.681h49.736m-49.514 11.714h49.736m-49.736 11.714h49.736m-49.736 11.714h49.736" stroke="#fff" stroke-linecap="round" stroke-linejoin="round"/></svg>