<svg width="790" height="430" fill="none" xmlns="http://www.w3.org/2000/svg"><path d="M110.732 428.585c-30.221 0-57.706-23.75-77.666-62.433-19.947-38.657-32.3-92.095-32.3-151.149s12.353-112.493 32.3-151.15C53.026 25.171 80.51 1.421 110.731 1.421c30.221 0 57.707 23.75 77.667 62.432 19.947 38.657 32.299 92.096 32.299 151.15s-12.352 112.492-32.299 151.149c-19.96 38.683-47.446 62.433-77.667 62.433Z" stroke="#F6F6F6"/><path d="M228.583 428.576c-30.222 0-57.707-23.75-77.667-62.432-19.947-38.657-32.299-92.096-32.299-151.15s12.352-112.492 32.299-151.149c19.96-38.682 47.445-62.432 77.667-62.432 30.221 0 57.706 23.75 77.666 62.432 19.947 38.657 32.299 92.095 32.299 151.149s-12.352 112.493-32.299 151.15c-19.96 38.682-47.445 62.432-77.666 62.432Z" stroke="#F6F6F6"/><path d="M278.636 428.587c-30.221 0-57.706-23.75-77.666-62.432-19.947-38.657-32.299-92.096-32.299-151.15s12.352-112.493 32.299-151.15c19.96-38.682 47.445-62.432 77.666-62.432 30.221 0 57.707 23.75 77.667 62.433 19.947 38.656 32.299 92.095 32.299 151.149s-12.352 112.493-32.299 151.15c-19.96 38.682-47.446 62.432-77.667 62.432Z" stroke="#F6F6F6"/><path d="M328.718 428.584c-30.221 0-57.706-23.75-77.666-62.433-19.947-38.657-32.299-92.095-32.299-151.149s12.352-112.493 32.299-151.15C271.012 25.17 298.497 1.42 328.718 1.42c30.221 0 57.707 23.75 77.667 62.432 19.947 38.657 32.299 92.096 32.299 151.15s-12.352 112.492-32.299 151.149c-19.96 38.683-47.446 62.433-77.667 62.433Z" stroke="#F6F6F6"/><path d="M378.808 428.581c-30.221 0-57.707-23.75-77.667-62.432-19.946-38.657-32.299-92.096-32.299-151.15s12.353-112.492 32.299-151.15c19.96-38.681 47.446-62.432 77.667-62.432 30.221 0 57.707 23.75 77.667 62.433 19.947 38.657 32.299 92.095 32.299 151.149s-12.352 112.493-32.299 151.15c-19.96 38.682-47.446 62.432-77.667 62.432Z" stroke="#F6F6F6"/><path d="M428.868 428.585c-30.221 0-57.706-23.75-77.666-62.432-19.947-38.657-32.299-92.095-32.299-151.149s12.352-112.493 32.299-151.15c19.96-38.682 47.445-62.432 77.667-62.432 30.221 0 57.706 23.75 77.666 62.432 19.947 38.657 32.299 92.096 32.299 151.15s-12.352 112.492-32.299 151.149c-19.96 38.682-47.445 62.432-77.667 62.432Z" stroke="#F6F6F6"/><path d="M478.958 428.583c-30.221 0-57.706-23.75-77.666-62.432-19.947-38.657-32.299-92.096-32.299-151.15s12.352-112.492 32.299-151.15C421.252 25.17 448.737 1.42 478.958 1.42c30.221 0 57.707 23.75 77.667 62.433 19.947 38.657 32.299 92.095 32.299 151.149s-12.352 112.493-32.299 151.15c-19.96 38.682-47.446 62.432-77.667 62.432Z" stroke="#F6F6F6"/><path d="M529.038 428.581c-30.221 0-57.707-23.75-77.667-62.432-19.947-38.657-32.299-92.096-32.299-151.15s12.352-112.492 32.299-151.15c19.96-38.681 47.446-62.432 77.667-62.432 30.221 0 57.706 23.75 77.666 62.433 19.947 38.657 32.299 92.095 32.299 151.149s-12.352 112.493-32.299 151.15c-19.96 38.682-47.445 62.432-77.666 62.432Z" stroke="#F6F6F6"/><path d="M579.115 428.581c-30.221 0-57.707-23.75-77.667-62.432-19.947-38.657-32.299-92.096-32.299-151.15s12.352-112.492 32.299-151.15c19.96-38.681 47.446-62.432 77.667-62.432 30.221 0 57.706 23.75 77.666 62.433 19.947 38.657 32.299 92.095 32.299 151.149s-12.352 112.493-32.299 151.15c-19.96 38.682-47.445 62.432-77.666 62.432Z" stroke="#F6F6F6"/><path d="M629.191 428.582c-30.221 0-57.706-23.75-77.666-62.433-19.947-38.657-32.299-92.095-32.299-151.149s12.352-112.493 32.299-151.15c19.96-38.682 47.445-62.432 77.666-62.432 30.221 0 57.707 23.75 77.667 62.432 19.947 38.657 32.299 92.096 32.299 151.15s-12.352 112.492-32.299 151.149c-19.96 38.683-47.446 62.433-77.667 62.433Z" stroke="#F6F6F6"/><path d="M679.268 428.583c-30.221 0-57.707-23.75-77.667-62.432-19.947-38.657-32.299-92.096-32.299-151.15s12.352-112.492 32.299-151.15C621.561 25.17 649.047 1.42 679.268 1.42c30.221 0 57.707 23.75 77.667 62.433 19.946 38.657 32.299 92.095 32.299 151.149s-12.353 112.493-32.299 151.15c-19.96 38.682-47.446 62.432-77.667 62.432Zm-509.621.002c-30.222 0-57.707-23.75-77.667-62.433-19.947-38.657-32.3-92.095-32.3-151.149s12.353-112.493 32.3-151.15c19.96-38.682 47.445-62.432 77.667-62.432 30.221 0 57.706 23.75 77.666 62.432 19.947 38.657 32.299 92.096 32.299 151.15s-12.352 112.492-32.299 151.149c-19.96 38.683-47.445 62.433-77.666 62.433Z" stroke="#F6F6F6"/></svg>