<svg width="397" height="448" fill="none" xmlns="http://www.w3.org/2000/svg"><path d="M149 61H67c-6.075 0-11 4.925-11 11v106" stroke="#2D2D2D" stroke-width="2"/><path d="M81.707 329.707a1 1 0 0 0 0-1.414l-6.364-6.364a1 1 0 1 0-1.414 1.414L79.586 329l-5.657 5.657a1 1 0 1 0 1.414 1.414l6.364-6.364ZM55 203v116h2V203h-2Zm11 127h15v-2H66v2Zm-11-11c0 6.075 4.925 11 11 11v-2a9 9 0 0 1-9-9h-2Z" fill="#000"/><path d="M211.115 65.438 255 77.11V13.672L211.115 2 168 15.488v63.174l43.115-13.224Z" fill="#fff" stroke="#2D2D2D" stroke-width="2"/><path d="M211.885 27.643 168 15.971v77.356L211.885 105 255 91.512V14.419l-43.115 13.224Z" fill="#fff" stroke="#2D2D2D" stroke-width="2"/><path d="M211.243 27.518v76.188" stroke="#2D2D2D" stroke-width="2"/><path d="m162.971 129 5.498-14.316h2.041L176.369 129h-2.158l-1.67-4.336h-5.986L164.982 129h-2.011Zm4.131-5.879h4.853l-1.494-3.965c-.456-1.204-.794-2.194-1.016-2.968a18.246 18.246 0 0 1-.771 2.734l-1.572 4.199Zm10.756 9.854v-14.346h1.602v1.348c.377-.528.804-.922 1.279-1.182.475-.267 1.051-.4 1.729-.4.885 0 1.666.227 2.343.683.677.456 1.188 1.1 1.534 1.934.345.827.517 1.735.517 2.724 0 1.062-.192 2.019-.576 2.871-.378.847-.931 1.498-1.66 1.954-.723.449-1.485.673-2.285.673a3.327 3.327 0 0 1-1.582-.371 3.597 3.597 0 0 1-1.143-.937v5.049h-1.758Zm1.592-9.102c0 1.335.27 2.321.811 2.959.54.638 1.194.957 1.962.957.782 0 1.449-.329 2.002-.986.56-.664.84-1.69.84-3.076 0-1.322-.273-2.312-.82-2.969-.54-.658-1.188-.987-1.943-.987-.749 0-1.413.352-1.993 1.055-.573.697-.859 1.712-.859 3.047Zm9.741 9.102v-14.346h1.602v1.348c.377-.528.804-.922 1.279-1.182.475-.267 1.051-.4 1.728-.4.886 0 1.667.227 2.344.683.677.456 1.188 1.1 1.533 1.934.345.827.518 1.735.518 2.724 0 1.062-.192 2.019-.576 2.871-.378.847-.931 1.498-1.66 1.954-.723.449-1.485.673-2.286.673a3.33 3.33 0 0 1-1.582-.371 3.604 3.604 0 0 1-1.142-.937v5.049h-1.758Zm1.592-9.102c0 1.335.27 2.321.81 2.959.541.638 1.195.957 1.963.957.781 0 1.449-.329 2.002-.986.56-.664.84-1.69.84-3.076 0-1.322-.273-2.312-.82-2.969-.541-.658-1.188-.987-1.944-.987-.748 0-1.412.352-1.992 1.055-.573.697-.859 1.712-.859 3.047Zm9.702 5.127v-14.316h1.758V129h-1.758Zm4.702-12.295v-2.021h1.758v2.021h-1.758Zm0 12.295v-10.371h1.758V129h-1.758Zm11.411-3.799 1.728.225c-.189 1.191-.674 2.125-1.455 2.803-.775.67-1.728 1.005-2.861 1.005-1.42 0-2.562-.462-3.428-1.386-.859-.931-1.289-2.263-1.289-3.994 0-1.12.186-2.1.557-2.94.371-.84.934-1.468 1.689-1.885a5.028 5.028 0 0 1 2.481-.634c1.126 0 2.047.286 2.763.859.716.566 1.175 1.374 1.377 2.422l-1.709.263c-.163-.696-.452-1.22-.869-1.572-.41-.351-.908-.527-1.494-.527-.886 0-1.605.319-2.158.957-.554.631-.83 1.634-.83 3.008 0 1.393.267 2.405.8 3.037.534.631 1.231.947 2.09.947.69 0 1.267-.212 1.729-.635.462-.423.755-1.074.879-1.953Zm10.2 2.52c-.651.553-1.28.944-1.885 1.172a5.414 5.414 0 0 1-1.934.341c-1.139 0-2.015-.276-2.627-.83-.612-.56-.918-1.272-.918-2.138 0-.508.114-.97.342-1.387a2.93 2.93 0 0 1 .908-1.016 4.334 4.334 0 0 1 1.27-.576c.345-.091.866-.179 1.562-.264 1.42-.169 2.465-.371 3.135-.605.007-.241.01-.394.01-.459 0-.716-.166-1.221-.498-1.514-.449-.397-1.117-.595-2.002-.595-.827 0-1.439.146-1.836.439-.391.287-.68.798-.869 1.533l-1.719-.234c.156-.736.414-1.328.772-1.777.358-.456.875-.804 1.552-1.045.677-.248 1.462-.371 2.354-.371.885 0 1.605.104 2.158.312.553.208.96.472 1.221.791.26.313.442.71.547 1.191.058.3.088.84.088 1.622v2.343c0 1.634.035 2.67.107 3.106.078.429.228.843.449 1.24h-1.836a3.734 3.734 0 0 1-.351-1.279Zm-.147-3.926c-.638.26-1.595.482-2.871.664-.723.104-1.234.221-1.533.352-.3.13-.531.322-.693.576a1.475 1.475 0 0 0-.245.83c0 .469.176.859.528 1.172.358.312.879.468 1.562.468.677 0 1.28-.146 1.807-.439.527-.3.915-.706 1.162-1.221.189-.397.283-.983.283-1.758v-.644Zm8.55 3.633.254 1.552a6.473 6.473 0 0 1-1.328.157c-.638 0-1.133-.101-1.485-.303-.351-.202-.599-.466-.742-.791-.143-.332-.215-1.025-.215-2.08v-5.967h-1.289v-1.367h1.289v-2.568l1.748-1.055v3.623h1.768v1.367h-1.768v6.065c0 .501.03.823.088.966a.76.76 0 0 0 .303.342c.143.085.345.127.605.127a5.8 5.8 0 0 0 .772-.068Zm1.938-10.723v-2.021h1.758v2.021h-1.758Zm0 12.295v-10.371h1.758V129h-1.758Zm3.989-5.186c0-1.92.534-3.343 1.602-4.267.892-.768 1.979-1.152 3.261-1.152 1.426 0 2.592.468 3.497 1.406.904.931 1.357 2.22 1.357 3.867 0 1.335-.202 2.386-.606 3.154a4.22 4.22 0 0 1-1.748 1.778 5.061 5.061 0 0 1-2.5.634c-1.451 0-2.627-.465-3.525-1.396-.892-.931-1.338-2.272-1.338-4.024Zm1.807 0c0 1.329.289 2.325.869 2.989.579.657 1.309.986 2.187.986.873 0 1.599-.332 2.178-.996.58-.664.869-1.676.869-3.037 0-1.283-.293-2.253-.879-2.91-.579-.664-1.302-.996-2.168-.996-.878 0-1.608.328-2.187.986-.58.657-.869 1.65-.869 2.978Zm10.18 5.186v-10.371h1.582v1.475c.762-1.14 1.862-1.709 3.301-1.709.625 0 1.198.113 1.719.341.527.222.921.515 1.181.879.261.365.443.798.547 1.299.065.326.098.895.098 1.709V129h-1.758v-6.309c0-.716-.068-1.25-.205-1.601a1.665 1.665 0 0 0-.732-.85c-.345-.215-.752-.322-1.221-.322-.749 0-1.397.238-1.943.713-.541.475-.811 1.377-.811 2.705V129h-1.758Z" fill="#2D2D2D"/><path d="M4.148 196v-10.102H.375v-1.351h9.078v1.351H5.664V196H4.148Zm6.279 0v-8.297h1.265v1.258c.323-.589.62-.977.89-1.164a1.58 1.58 0 0 1 .907-.281c.474 0 .956.151 1.445.453l-.484 1.304a2.012 2.012 0 0 0-1.031-.304 1.32 1.32 0 0 0-.828.281 1.48 1.48 0 0 0-.524.766 5.47 5.47 0 0 0-.234 1.64V196h-1.406Zm10.957-1.023c-.52.442-1.023.755-1.507.937a4.32 4.32 0 0 1-1.547.274c-.912 0-1.612-.222-2.102-.665-.49-.447-.734-1.018-.734-1.711 0-.406.09-.776.273-1.109a2.34 2.34 0 0 1 .727-.812 3.47 3.47 0 0 1 1.015-.461c.276-.073.693-.144 1.25-.211 1.136-.136 1.972-.297 2.508-.485.005-.192.008-.315.008-.367 0-.573-.133-.976-.398-1.211-.36-.317-.894-.476-1.602-.476-.662 0-1.151.117-1.469.351-.312.229-.544.638-.695 1.227l-1.375-.188c.125-.588.33-1.062.617-1.422.287-.364.7-.643 1.242-.836.542-.197 1.17-.296 1.883-.296.708 0 1.284.083 1.727.25.442.166.768.377.976.632.209.25.354.568.438.954.047.239.07.671.07 1.296v1.875c0 1.308.029 2.136.086 2.485.063.344.182.674.36.992h-1.47a2.984 2.984 0 0 1-.28-1.023Zm-.117-3.141c-.51.208-1.276.385-2.297.531-.578.084-.987.177-1.226.281a1.22 1.22 0 0 0-.75 1.125c0 .375.14.688.422.938.286.25.703.375 1.25.375.541 0 1.023-.117 1.445-.352a2.21 2.21 0 0 0 .93-.976c.15-.318.226-.787.226-1.406v-.516Zm3.817-5.672v-1.617h1.407v1.617h-1.407Zm0 9.836v-8.297h1.407V196h-1.407Zm3.755 0v-8.297h1.266v1.18c.61-.912 1.49-1.367 2.64-1.367.5 0 .959.091 1.375.273.422.177.737.412.946.703.208.292.354.638.437 1.039.052.261.078.716.078 1.367V196h-1.406v-5.047c0-.573-.055-1-.164-1.281a1.326 1.326 0 0 0-.586-.68 1.809 1.809 0 0 0-.977-.258 2.29 2.29 0 0 0-1.554.571c-.432.38-.649 1.101-.649 2.164V196H28.84Zm20.306-1.352c-.463.516-.968.904-1.515 1.164a4.13 4.13 0 0 1-1.774.383c-1.172 0-2.101-.396-2.789-1.187-.557-.646-.836-1.367-.836-2.164 0-.709.227-1.347.68-1.914.458-.573 1.14-1.076 2.047-1.508-.516-.594-.86-1.076-1.031-1.445a2.537 2.537 0 0 1-.258-1.071c0-.687.268-1.284.804-1.789.542-.51 1.222-.765 2.04-.765.78 0 1.419.239 1.914.718.5.479.75 1.055.75 1.727 0 1.088-.722 2.018-2.164 2.789l2.054 2.617c.235-.458.417-.989.547-1.594l1.461.313c-.25 1-.589 1.823-1.016 2.469a8.16 8.16 0 0 0 1.79 1.757l-.946 1.118c-.568-.365-1.154-.904-1.758-1.618Zm-2.86-5.968c.61-.36 1.004-.675 1.18-.946.183-.27.274-.57.274-.898 0-.391-.125-.708-.375-.953a1.237 1.237 0 0 0-.922-.375c-.38 0-.698.122-.953.367-.25.245-.375.544-.375.898 0 .178.044.365.133.563.094.193.232.398.414.617l.625.727Zm1.978 4.859-2.579-3.195c-.76.453-1.273.875-1.539 1.265-.265.386-.398.769-.398 1.149 0 .463.185.945.555 1.445.37.5.893.75 1.57.75.422 0 .857-.13 1.305-.391a3.192 3.192 0 0 0 1.086-1.023ZM63.56 196v-1.219c-.646.938-1.523 1.407-2.633 1.407-.49 0-.948-.094-1.375-.282-.422-.187-.737-.422-.945-.703a2.716 2.716 0 0 1-.43-1.047c-.057-.276-.086-.713-.086-1.312v-5.141h1.406v4.602c0 .734.03 1.229.086 1.484.089.37.276.662.563.875.286.208.64.313 1.062.313.422 0 .818-.107 1.188-.321a1.8 1.8 0 0 0 .781-.883c.156-.375.235-.916.235-1.625v-4.445h1.406V196H63.56Zm3.669 3.18v-11.477h1.28v1.078c.303-.422.644-.737 1.024-.945.38-.214.841-.32 1.383-.32.709 0 1.334.182 1.875.546.542.365.95.881 1.227 1.547.276.662.414 1.388.414 2.18 0 .849-.154 1.615-.461 2.297-.302.677-.745 1.198-1.328 1.562-.578.36-1.188.54-1.828.54-.47 0-.891-.099-1.266-.297a2.888 2.888 0 0 1-.914-.75v4.039H67.23Zm1.273-7.282c0 1.068.216 1.857.649 2.368.432.51.955.765 1.57.765.625 0 1.159-.263 1.601-.789.448-.531.672-1.351.672-2.461 0-1.057-.218-1.849-.656-2.375-.432-.526-.95-.789-1.555-.789-.599 0-1.13.281-1.593.844-.459.557-.688 1.37-.688 2.437ZM81.72 196v-1.047c-.526.823-1.3 1.235-2.32 1.235a3.28 3.28 0 0 1-1.829-.547c-.552-.365-.981-.873-1.289-1.524-.302-.656-.453-1.409-.453-2.258 0-.828.138-1.578.414-2.25.276-.677.69-1.195 1.242-1.554a3.316 3.316 0 0 1 1.852-.539c.5 0 .945.106 1.336.32.39.208.708.482.953.82v-4.109h1.398V196H81.72Zm-4.446-4.141c0 1.063.224 1.857.672 2.383.448.526.977.789 1.586.789.615 0 1.136-.25 1.563-.75.432-.505.648-1.273.648-2.304 0-1.136-.219-1.969-.656-2.5-.438-.532-.977-.797-1.617-.797-.625 0-1.149.255-1.57.765-.417.511-.626 1.315-.626 2.414Zm13.583 3.118c-.52.442-1.023.755-1.508.937a4.32 4.32 0 0 1-1.546.274c-.912 0-1.612-.222-2.102-.665-.49-.447-.734-1.018-.734-1.711 0-.406.09-.776.273-1.109.188-.338.43-.609.727-.812.302-.203.64-.357 1.015-.461a9.903 9.903 0 0 1 1.25-.211c1.136-.136 1.972-.297 2.508-.485.005-.192.008-.315.008-.367 0-.573-.133-.976-.399-1.211-.359-.317-.893-.476-1.601-.476-.662 0-1.151.117-1.469.351-.312.229-.544.638-.695 1.227l-1.375-.188c.125-.588.33-1.062.617-1.422.287-.364.7-.643 1.242-.836.542-.197 1.17-.296 1.883-.296.708 0 1.284.083 1.727.25.442.166.768.377.976.632.209.25.354.568.438.954.047.239.07.671.07 1.296v1.875c0 1.308.029 2.136.086 2.485.062.344.182.674.36.992h-1.47a2.987 2.987 0 0 1-.28-1.023Zm-.117-3.141c-.51.208-1.276.385-2.297.531-.578.084-.987.177-1.226.281a1.22 1.22 0 0 0-.75 1.125c0 .375.14.688.422.938.286.25.703.375 1.25.375.541 0 1.023-.117 1.445-.352a2.21 2.21 0 0 0 .93-.976c.15-.318.226-.787.226-1.406v-.516Zm6.88 2.906.203 1.242a5.17 5.17 0 0 1-1.063.125c-.51 0-.906-.08-1.187-.242a1.356 1.356 0 0 1-.594-.633c-.114-.265-.172-.82-.172-1.664v-4.773h-1.031v-1.094h1.031v-2.055l1.399-.843v2.898h1.414v1.094h-1.414v4.851c0 .401.023.659.07.774a.613.613 0 0 0 .242.273c.115.068.276.102.485.102.156 0 .362-.018.617-.055Zm7.262-1.414 1.453.18c-.229.849-.653 1.508-1.273 1.976-.62.469-1.412.704-2.375.704-1.214 0-2.177-.373-2.89-1.118-.709-.75-1.063-1.799-1.063-3.148 0-1.396.36-2.479 1.078-3.25.719-.771 1.651-1.156 2.797-1.156 1.109 0 2.015.377 2.719 1.132.703.756 1.054 1.818 1.054 3.188 0 .083-.002.208-.008.375h-6.187c.052.911.31 1.609.773 2.094.464.484 1.042.726 1.735.726.515 0 .955-.135 1.32-.406.365-.271.654-.703.867-1.297Zm-4.617-2.273h4.633c-.063-.698-.24-1.222-.531-1.571-.448-.541-1.029-.812-1.743-.812-.645 0-1.19.216-1.632.648-.438.433-.68 1.011-.727 1.735Z" fill="#6E6E6E"/><path d="M273 61h82c6.075 0 11 4.925 11 11v106" stroke="#2D2D2D" stroke-width="2"/><path d="M335.293 329.707a.999.999 0 0 1 0-1.414l6.364-6.364a.999.999 0 1 1 1.414 1.414L337.414 329l5.657 5.657a.999.999 0 1 1-1.414 1.414l-6.364-6.364ZM367 203v116h-2V203h2Zm-11 127h-20v-2h20v2Zm11-11c0 6.075-4.925 11-11 11v-2a9 9 0 0 0 9-9h2Z" fill="#000"/><path d="M332.266 196v-11.453h8.281v1.351h-6.766v3.508h6.336v1.344h-6.336v3.898h7.031V196h-8.546Zm12.965 0-3.156-8.297h1.484l1.782 4.969c.192.536.369 1.094.531 1.672.125-.438.299-.964.523-1.578l1.844-5.063h1.445l-3.14 8.297h-1.313Zm11.31-1.023c-.521.442-1.024.755-1.508.937a4.321 4.321 0 0 1-1.547.274c-.912 0-1.612-.222-2.102-.665-.489-.447-.734-1.018-.734-1.711 0-.406.091-.776.273-1.109.188-.338.43-.609.727-.812a3.47 3.47 0 0 1 1.016-.461c.276-.073.692-.144 1.25-.211 1.135-.136 1.971-.297 2.507-.485.006-.192.008-.315.008-.367 0-.573-.133-.976-.398-1.211-.36-.317-.893-.476-1.602-.476-.661 0-1.151.117-1.469.351-.312.229-.544.638-.695 1.227l-1.375-.188c.125-.588.331-1.062.617-1.422.287-.364.701-.643 1.243-.836.541-.197 1.169-.296 1.882-.296.709 0 1.284.083 1.727.25.443.166.768.377.976.632.209.25.355.568.438.954.047.239.07.671.07 1.296v1.875c0 1.308.029 2.136.086 2.485.063.344.183.674.36.992h-1.469a2.967 2.967 0 0 1-.281-1.023Zm-.118-3.141c-.51.208-1.276.385-2.296.531-.579.084-.987.177-1.227.281-.24.105-.424.258-.555.461-.13.198-.195.42-.195.664 0 .375.141.688.422.938.286.25.703.375 1.25.375.542 0 1.023-.117 1.445-.352a2.21 2.21 0 0 0 .93-.976c.151-.318.226-.787.226-1.406v-.516Zm3.779 4.164v-11.453h1.406V196h-1.406Zm9.231 0v-1.219c-.646.938-1.524 1.407-2.633 1.407-.49 0-.948-.094-1.375-.282-.422-.187-.737-.422-.945-.703a2.712 2.712 0 0 1-.43-1.047c-.057-.276-.086-.713-.086-1.312v-5.141h1.406v4.602c0 .734.029 1.229.086 1.484.089.37.276.662.563.875.286.208.64.313 1.062.313.422 0 .818-.107 1.188-.321.37-.218.63-.513.781-.883.156-.375.234-.916.234-1.625v-4.445h1.407V196h-1.258Zm9.083-1.023c-.521.442-1.024.755-1.508.937a4.321 4.321 0 0 1-1.547.274c-.912 0-1.612-.222-2.102-.665-.489-.447-.734-1.018-.734-1.711 0-.406.091-.776.273-1.109.188-.338.43-.609.727-.812a3.47 3.47 0 0 1 1.016-.461c.276-.073.692-.144 1.25-.211 1.135-.136 1.971-.297 2.507-.485.006-.192.008-.315.008-.367 0-.573-.133-.976-.398-1.211-.36-.317-.893-.476-1.602-.476-.661 0-1.151.117-1.468.351-.313.229-.545.638-.696 1.227l-1.375-.188c.125-.588.331-1.062.617-1.422.287-.364.701-.643 1.243-.836.541-.197 1.169-.296 1.882-.296.709 0 1.284.083 1.727.25.443.166.768.377.976.632.209.25.355.568.438.954.047.239.07.671.07 1.296v1.875c0 1.308.029 2.136.086 2.485.063.344.183.674.36.992h-1.469a2.967 2.967 0 0 1-.281-1.023Zm-.118-3.141c-.51.208-1.276.385-2.296.531-.579.084-.987.177-1.227.281-.24.105-.424.258-.555.461-.13.198-.195.42-.195.664 0 .375.141.688.422.938.286.25.703.375 1.25.375.542 0 1.023-.117 1.445-.352a2.21 2.21 0 0 0 .93-.976c.151-.318.226-.787.226-1.406v-.516Zm6.88 2.906.203 1.242a5.17 5.17 0 0 1-1.062.125c-.511 0-.906-.08-1.188-.242a1.352 1.352 0 0 1-.593-.633c-.115-.265-.172-.82-.172-1.664v-4.773h-1.032v-1.094h1.032v-2.055l1.398-.843v2.898h1.414v1.094h-1.414v4.851c0 .401.024.659.07.774a.611.611 0 0 0 .243.273c.114.068.276.102.484.102.156 0 .362-.018.617-.055Zm7.263-1.414 1.453.18c-.229.849-.654 1.508-1.274 1.976-.619.469-1.411.704-2.375.704-1.213 0-2.177-.373-2.89-1.118-.709-.75-1.063-1.799-1.063-3.148 0-1.396.36-2.479 1.078-3.25.719-.771 1.651-1.156 2.797-1.156 1.11 0 2.016.377 2.719 1.132.703.756 1.055 1.818 1.055 3.188 0 .083-.003.208-.008.375h-6.188c.052.911.31 1.609.774 2.094.463.484 1.041.726 1.734.726.516 0 .956-.135 1.32-.406.365-.271.654-.703.868-1.297Zm-4.618-2.273h4.633c-.062-.698-.239-1.222-.531-1.571-.448-.541-1.029-.812-1.742-.812-.646 0-1.19.216-1.633.648-.437.433-.68 1.011-.727 1.735Z" fill="#6E6E6E"/><path d="M83.782 327.767V267.32s11.659 10.138 45.932 10.138 45.86-11.079 45.86-11.079v61.388c-14.298 21.006-85.284 14.729-91.792 0Z" fill="#E0454C"/><path d="M82.782 370.458v-62.632s11.857 12.115 46.13 12.115 45.662-12.115 45.662-12.115l.969 62.632c-14.575 18.287-83.89 14.858-92.761 0Z" fill="#0070CC"/><path d="M175.652 263.504c0 1.614-1.025 3.327-3.3 5.04-2.258 1.7-5.595 3.274-9.822 4.613-8.442 2.676-20.21 4.347-33.378 4.347-13.169 0-24.937-1.671-33.379-4.347-4.226-1.339-7.563-2.913-9.822-4.613-2.275-1.713-3.3-3.426-3.3-5.04 0-1.614 1.025-3.327 3.3-5.04 2.259-1.7 5.596-3.274 9.822-4.613 8.442-2.676 20.21-4.347 33.379-4.347 13.168 0 24.936 1.671 33.378 4.347 4.227 1.339 7.564 2.913 9.822 4.613 2.275 1.713 3.3 3.426 3.3 5.04Z" fill="#E0454C" stroke="#2D2D2D" stroke-width="2"/><path d="m82.652 262.504.35 107.263m92.65-107.263v108m.088-1.557c0 7.956-20.76 14.406-46.369 14.406-25.609 0-46.369-6.45-46.369-14.406m92.738-64c0 7.956-20.76 14.406-46.369 14.406-25.609 0-46.369-6.45-46.369-14.406" stroke="#2D2D2D" stroke-width="2"/><path d="M94.84 302.504v-11.453h2.28l2.711 8.109c.25.755.433 1.32.547 1.695.13-.416.334-1.028.61-1.835l2.742-7.969h2.039v11.453h-1.461v-9.586l-3.328 9.586h-1.368l-3.312-9.75v9.75h-1.46Zm13.605 0v-11.453h8.282v1.351h-6.766v3.508h6.336v1.344h-6.336v3.898h7.031v1.352h-8.547Zm10.794 0v-11.453h2.281l2.711 8.109c.25.755.433 1.32.547 1.695.13-.416.334-1.028.61-1.835l2.742-7.969h2.039v11.453h-1.461v-9.586l-3.328 9.586h-1.367l-3.313-9.75v9.75h-1.461Zm13.114-5.578c0-1.901.511-3.388 1.531-4.461 1.021-1.078 2.339-1.617 3.954-1.617 1.057 0 2.01.252 2.859.757a4.916 4.916 0 0 1 1.937 2.118c.448.901.672 1.924.672 3.07 0 1.161-.234 2.2-.703 3.117-.469.917-1.133 1.612-1.992 2.086a5.711 5.711 0 0 1-2.781.703c-1.078 0-2.042-.26-2.891-.781a5.033 5.033 0 0 1-1.93-2.133 6.47 6.47 0 0 1-.656-2.859Zm1.563.023c0 1.38.369 2.469 1.109 3.266.745.792 1.677 1.187 2.797 1.187 1.141 0 2.078-.401 2.812-1.203.74-.802 1.11-1.94 1.11-3.414 0-.932-.159-1.745-.477-2.437-.312-.698-.773-1.237-1.383-1.618a3.712 3.712 0 0 0-2.039-.578 3.88 3.88 0 0 0-2.773 1.11c-.771.734-1.156 1.963-1.156 3.687Zm11.575 5.555v-11.453h5.078c1.021 0 1.797.104 2.328.312.531.203.956.565 1.273 1.086.318.521.477 1.097.477 1.727 0 .812-.263 1.497-.789 2.054-.526.558-1.339.912-2.438 1.063.401.193.706.383.914.57a7.88 7.88 0 0 1 1.258 1.524l1.992 3.117h-1.906l-1.515-2.383a22.156 22.156 0 0 0-1.094-1.578c-.287-.365-.544-.62-.774-.766a2.24 2.24 0 0 0-.687-.304c-.172-.037-.453-.055-.844-.055h-1.758v5.086h-1.515Zm1.515-6.399h3.258c.693 0 1.234-.07 1.625-.21.391-.146.688-.375.891-.688.203-.318.304-.661.304-1.031 0-.542-.197-.987-.593-1.336-.391-.349-1.011-.524-1.86-.524h-3.625v3.789Zm13.153 6.399v-4.852l-4.414-6.601h1.844l2.258 3.453c.417.646.805 1.292 1.164 1.937a41.88 41.88 0 0 1 1.25-2.023l2.219-3.367h1.765l-4.57 6.601v4.852h-1.516Zm-49.273 63v-11.453h3.945c.891 0 1.571.054 2.039.164.657.151 1.217.424 1.68.82.604.511 1.055 1.164 1.352 1.961.302.792.453 1.698.453 2.719 0 .87-.102 1.64-.305 2.312-.203.672-.463 1.23-.781 1.672a4.203 4.203 0 0 1-1.047 1.039c-.375.25-.831.44-1.367.571-.532.13-1.143.195-1.836.195h-4.133Zm1.516-1.352h2.445c.755 0 1.346-.07 1.773-.211.433-.14.776-.338 1.032-.593.359-.36.638-.841.836-1.446.203-.609.304-1.346.304-2.211 0-1.198-.198-2.117-.594-2.757-.39-.646-.867-1.079-1.429-1.297-.406-.157-1.06-.235-1.961-.235h-2.406v8.75Zm10.504 1.352v-11.453h1.516v11.453h-1.516Zm3.88-3.68 1.43-.125c.067.573.224 1.044.468 1.414.25.365.636.662 1.157.891.521.224 1.106.336 1.757.336.579 0 1.089-.086 1.532-.258.442-.172.771-.406.984-.703.219-.302.328-.63.328-.984 0-.36-.104-.672-.312-.938-.209-.271-.552-.497-1.032-.68-.307-.119-.986-.304-2.039-.554-1.052-.256-1.789-.495-2.211-.719-.546-.287-.955-.641-1.226-1.063a2.647 2.647 0 0 1-.399-1.429c0-.578.165-1.117.493-1.617.328-.506.807-.888 1.437-1.149.63-.26 1.331-.391 2.102-.391.849 0 1.596.138 2.242.415.651.27 1.151.671 1.5 1.203.349.531.536 1.132.562 1.804l-1.453.11c-.078-.724-.343-1.271-.797-1.641-.447-.37-1.112-.555-1.992-.555-.916 0-1.586.17-2.008.508-.416.334-.625.737-.625 1.211 0 .412.149.75.446 1.016.291.265 1.052.539 2.281.82 1.234.276 2.081.518 2.539.727.667.307 1.159.698 1.477 1.172.317.468.476 1.01.476 1.625 0 .609-.174 1.184-.523 1.726-.349.537-.852.956-1.508 1.258-.651.297-1.385.445-2.203.445-1.037 0-1.906-.151-2.61-.453a3.688 3.688 0 0 1-1.648-1.359 3.908 3.908 0 0 1-.625-2.063Zm11.325 3.68v-11.453h1.516v5.679l5.687-5.679h2.055l-4.805 4.64 5.016 6.813h-2l-4.078-5.797-1.875 1.828v3.969h-1.516Z" fill="#fff"/><path d="M243.124 327.767V267.32s11.659 10.138 45.932 10.138 45.86-11.079 45.86-11.079v61.388c-14.298 21.006-85.284 14.729-91.792 0Z" fill="#E0454C"/><path d="M242.124 370.458v-62.632s11.857 12.115 46.13 12.115 45.662-12.115 45.662-12.115l.969 62.632c-14.575 18.287-83.891 14.858-92.761 0Z" fill="#0070CC"/><path d="M334.993 263.504c0 1.614-1.024 3.327-3.299 5.04-2.259 1.7-5.596 3.274-9.822 4.613-8.442 2.676-20.21 4.347-33.379 4.347-13.168 0-24.936-1.671-33.378-4.347-4.227-1.339-7.563-2.913-9.822-4.613-2.275-1.713-3.3-3.426-3.3-5.04 0-1.614 1.025-3.327 3.3-5.04 2.259-1.7 5.595-3.274 9.822-4.613 8.442-2.676 20.21-4.347 33.378-4.347 13.169 0 24.937 1.671 33.379 4.347 4.226 1.339 7.563 2.913 9.822 4.613 2.275 1.713 3.299 3.426 3.299 5.04Z" fill="#E0454C" stroke="#000" stroke-width="2"/><path d="m241.993 262.504.351 107.263m92.649-107.263v108m.089-1.557c0 7.956-20.76 14.406-46.369 14.406-25.609 0-46.369-6.45-46.369-14.406m92.738-64c0 7.956-20.76 14.406-46.369 14.406-25.609 0-46.369-6.45-46.369-14.406" stroke="#000" stroke-width="2"/><path d="M254.181 302.504v-11.453h2.281l2.711 8.109c.25.755.432 1.32.547 1.695.13-.416.333-1.028.609-1.835l2.743-7.969h2.039v11.453h-1.461v-9.586l-3.328 9.586h-1.368l-3.312-9.75v9.75h-1.461Zm13.606 0v-11.453h8.281v1.351h-6.765v3.508h6.336v1.344h-6.336v3.898h7.031v1.352h-8.547Zm10.794 0v-11.453h2.281l2.711 8.109c.25.755.432 1.32.547 1.695.13-.416.333-1.028.609-1.835l2.743-7.969h2.039v11.453h-1.461v-9.586l-3.328 9.586h-1.368l-3.312-9.75v9.75h-1.461Zm13.114-5.578c0-1.901.51-3.388 1.531-4.461 1.021-1.078 2.339-1.617 3.953-1.617 1.058 0 2.011.252 2.86.757a4.916 4.916 0 0 1 1.937 2.118c.448.901.672 1.924.672 3.07 0 1.161-.234 2.2-.703 3.117-.469.917-1.133 1.612-1.992 2.086a5.717 5.717 0 0 1-2.781.703c-1.079 0-2.042-.26-2.891-.781a5.033 5.033 0 0 1-1.93-2.133 6.47 6.47 0 0 1-.656-2.859Zm1.562.023c0 1.38.37 2.469 1.11 3.266.745.792 1.677 1.187 2.797 1.187 1.14 0 2.078-.401 2.812-1.203.74-.802 1.11-1.94 1.11-3.414 0-.932-.159-1.745-.477-2.437-.312-.698-.773-1.237-1.383-1.618a3.714 3.714 0 0 0-2.039-.578 3.88 3.88 0 0 0-2.773 1.11c-.771.734-1.157 1.963-1.157 3.687Zm11.575 5.555v-11.453h5.079c1.02 0 1.796.104 2.328.312.531.203.955.565 1.273 1.086.318.521.477 1.097.477 1.727 0 .812-.263 1.497-.789 2.054-.526.558-1.339.912-2.438 1.063.401.193.706.383.914.57a7.88 7.88 0 0 1 1.258 1.524l1.992 3.117h-1.906l-1.516-2.383a21.875 21.875 0 0 0-1.093-1.578c-.287-.365-.545-.62-.774-.766a2.24 2.24 0 0 0-.687-.304c-.172-.037-.453-.055-.844-.055h-1.758v5.086h-1.516Zm1.516-6.399h3.258c.693 0 1.234-.07 1.625-.21.391-.146.687-.375.891-.688.203-.318.304-.661.304-1.031 0-.542-.198-.987-.594-1.336-.39-.349-1.01-.524-1.859-.524h-3.625v3.789Zm13.153 6.399v-4.852l-4.414-6.601h1.844l2.258 3.453c.416.646.804 1.292 1.164 1.937a41.88 41.88 0 0 1 1.25-2.023l2.219-3.367h1.765l-4.57 6.601v4.852h-1.516Zm-49.273 63v-11.453h3.945c.891 0 1.57.054 2.039.164.656.151 1.216.424 1.68.82.604.511 1.055 1.164 1.351 1.961.302.792.454 1.698.454 2.719 0 .87-.102 1.64-.305 2.312-.203.672-.464 1.23-.781 1.672a4.203 4.203 0 0 1-1.047 1.039c-.375.25-.831.44-1.367.571-.532.13-1.144.195-1.836.195h-4.133Zm1.515-1.352h2.446c.755 0 1.346-.07 1.773-.211.432-.14.776-.338 1.031-.593.36-.36.638-.841.836-1.446.203-.609.305-1.346.305-2.211 0-1.198-.198-2.117-.594-2.757-.39-.646-.867-1.079-1.429-1.297-.407-.157-1.06-.235-1.961-.235h-2.407v8.75Zm10.505 1.352v-11.453h1.516v11.453h-1.516Zm3.88-3.68 1.429-.125c.068.573.224 1.044.469 1.414.25.365.636.662 1.156.891.521.224 1.107.336 1.758.336.578 0 1.089-.086 1.532-.258.442-.172.77-.406.984-.703.219-.302.328-.63.328-.984 0-.36-.104-.672-.312-.938-.209-.271-.553-.497-1.032-.68-.307-.119-.987-.304-2.039-.554-1.052-.256-1.789-.495-2.211-.719-.547-.287-.955-.641-1.226-1.063a2.647 2.647 0 0 1-.399-1.429c0-.578.164-1.117.492-1.617.329-.506.808-.888 1.438-1.149.63-.26 1.331-.391 2.102-.391.848 0 1.596.138 2.242.415.651.27 1.151.671 1.5 1.203.349.531.536 1.132.562 1.804l-1.453.11c-.078-.724-.344-1.271-.797-1.641-.448-.37-1.112-.555-1.992-.555-.917 0-1.586.17-2.008.508-.416.334-.625.737-.625 1.211 0 .412.149.75.446 1.016.291.265 1.052.539 2.281.82 1.234.276 2.081.518 2.539.727.667.307 1.159.698 1.476 1.172.318.468.477 1.01.477 1.625 0 .609-.175 1.184-.523 1.726-.349.537-.852.956-1.508 1.258-.651.297-1.386.445-2.203.445-1.037 0-1.907-.151-2.61-.453a3.683 3.683 0 0 1-1.648-1.359 3.908 3.908 0 0 1-.625-2.063Zm11.325 3.68v-11.453h1.515v5.679l5.688-5.679h2.055l-4.805 4.64 5.016 6.813h-2l-4.079-5.797-1.875 1.828v3.969h-1.515Z" fill="#fff"/><path d="M271.076 395.565s-10.499 6.499-.604 12.953c1.903 1.257 8.807 4.753 8.611 7.987 0 0 4.184-6.285-1.934-10.24-6.284-4.047-7.856-8.37-6.073-10.7Z" fill="#ED1C24"/><path d="M267.42 407.982s-3.746 5.764 3.626 6.944c.725.092 6.058.659 7.448 2.438 0 0-.121-3.066-4.472-4.875-4.336-1.809-6.118-2.254-6.602-4.507Zm14.503-6.055c-4.502-4.783-5.756-7.742-3.822-11.574 0 0-13.43 5.242-.166 14.548 4.744 3.326 3.958 6.729 3.958 6.852.74-.782 4.532-5.044.03-9.826Z" fill="#ED1C24"/><path d="M289.37 413.458v-11.453h1.555l6.016 8.992v-8.992h1.453v11.453h-1.555l-6.016-9v9h-1.453Zm11.317-5.578c0-1.901.511-3.388 1.532-4.461 1.021-1.078 2.338-1.617 3.953-1.617 1.057 0 2.01.252 2.859.758a4.922 4.922 0 0 1 1.938 2.117c.448.901.672 1.924.672 3.07 0 1.162-.235 2.201-.704 3.117-.468.917-1.132 1.612-1.992 2.086a5.711 5.711 0 0 1-2.781.703c-1.078 0-2.042-.26-2.891-.781a5.024 5.024 0 0 1-1.929-2.133 6.457 6.457 0 0 1-.657-2.859Zm1.563.023c0 1.381.37 2.469 1.109 3.266.745.792 1.677 1.187 2.797 1.187 1.141 0 2.078-.401 2.813-1.203.739-.802 1.109-1.94 1.109-3.414 0-.932-.159-1.745-.476-2.437-.313-.698-.774-1.237-1.383-1.617a3.707 3.707 0 0 0-2.039-.579c-1.073 0-1.998.37-2.774 1.11-.771.734-1.156 1.963-1.156 3.687Zm11.552 5.555v-11.453h3.945c.89 0 1.57.055 2.039.164.656.151 1.216.424 1.68.82.604.511 1.054 1.164 1.351 1.961.302.792.453 1.698.453 2.719 0 .87-.101 1.641-.304 2.312-.204.672-.464 1.23-.782 1.672a4.17 4.17 0 0 1-1.047 1.039c-.375.25-.83.44-1.367.571-.531.13-1.143.195-1.836.195h-4.132Zm1.515-1.352h2.445c.756 0 1.347-.07 1.774-.21.432-.141.776-.339 1.031-.594.36-.36.638-.841.836-1.446.203-.609.305-1.346.305-2.21 0-1.198-.198-2.118-.594-2.758-.391-.646-.867-1.078-1.43-1.297-.406-.156-1.06-.235-1.961-.235h-2.406v8.75Zm10.278 1.352v-11.453h8.282v1.351h-6.766v3.508h6.336v1.344h-6.336v3.898h7.031v1.352h-8.547Z" fill="#2D2D2D"/><path d="M87.002 395.565s-10.499 6.499-.604 12.953c1.904 1.257 8.807 4.753 8.611 7.987 0 0 4.185-6.285-1.934-10.24-6.284-4.047-7.855-8.37-6.073-10.7Z" fill="#ED1C24"/><path d="M83.347 407.982s-3.747 5.764 3.625 6.944c.725.092 6.058.659 7.448 2.438 0 0-.12-3.066-4.472-4.875-4.335-1.809-6.118-2.254-6.601-4.507Zm14.503-6.055c-4.502-4.783-5.756-7.742-3.823-11.574 0 0-13.43 5.242-.166 14.548 4.744 3.326 3.958 6.729 3.958 6.852.74-.782 4.532-5.044.03-9.826Z" fill="#ED1C24"/><path d="M105.297 413.458v-11.453h1.554l6.016 8.992v-8.992h1.453v11.453h-1.555l-6.015-9v9h-1.453Zm11.317-5.578c0-1.901.51-3.388 1.531-4.461 1.021-1.078 2.339-1.617 3.953-1.617 1.057 0 2.011.252 2.86.758a4.926 4.926 0 0 1 1.937 2.117c.448.901.672 1.924.672 3.07 0 1.162-.234 2.201-.703 3.117-.469.917-1.133 1.612-1.992 2.086a5.718 5.718 0 0 1-2.782.703c-1.078 0-2.041-.26-2.89-.781a5.033 5.033 0 0 1-1.93-2.133 6.47 6.47 0 0 1-.656-2.859Zm1.562.023c0 1.381.37 2.469 1.11 3.266.744.792 1.677 1.187 2.797 1.187 1.14 0 2.078-.401 2.812-1.203.74-.802 1.109-1.94 1.109-3.414 0-.932-.158-1.745-.476-2.437-.313-.698-.774-1.237-1.383-1.617a3.707 3.707 0 0 0-2.039-.579 3.88 3.88 0 0 0-2.773 1.11c-.771.734-1.157 1.963-1.157 3.687Zm11.552 5.555v-11.453h3.945c.891 0 1.57.055 2.039.164.656.151 1.216.424 1.68.82.604.511 1.055 1.164 1.351 1.961.303.792.454 1.698.454 2.719 0 .87-.102 1.641-.305 2.312-.203.672-.464 1.23-.781 1.672a4.203 4.203 0 0 1-1.047 1.039c-.375.25-.831.44-1.367.571-.532.13-1.144.195-1.836.195h-4.133Zm1.515-1.352h2.446c.755 0 1.346-.07 1.773-.21.432-.141.776-.339 1.031-.594.36-.36.638-.841.836-1.446.204-.609.305-1.346.305-2.21 0-1.198-.198-2.118-.594-2.758-.39-.646-.867-1.078-1.429-1.297-.407-.156-1.06-.235-1.961-.235h-2.407v8.75Zm10.279 1.352v-11.453h8.281v1.351h-6.766v3.508h6.336v1.344h-6.336v3.898h7.031v1.352h-8.546Z" fill="#2D2D2D"/><path d="M179.002 425.565s-10.499 6.499-.604 12.953c1.904 1.257 8.807 4.753 8.611 7.987 0 0 4.185-6.285-1.934-10.24-6.284-4.047-7.855-8.37-6.073-10.7Z" fill="#ED1C24"/><path d="M175.347 437.982s-3.747 5.764 3.625 6.944c.725.092 6.058.659 7.448 2.438 0 0-.121-3.066-4.472-4.875-4.335-1.809-6.118-2.254-6.601-4.507Zm14.503-6.055c-4.502-4.783-5.756-7.742-3.823-11.574 0 0-13.43 5.242-.166 14.548 4.744 3.326 3.958 6.729 3.958 6.852.741-.782 4.532-5.044.031-9.826Z" fill="#ED1C24"/><path d="M197.297 443.458v-11.453h1.554l6.016 8.992v-8.992h1.453v11.453h-1.555l-6.015-9v9h-1.453Zm11.317-5.578c0-1.901.51-3.388 1.531-4.461 1.021-1.078 2.339-1.617 3.953-1.617 1.057 0 2.011.252 2.86.758a4.926 4.926 0 0 1 1.937 2.117c.448.901.672 1.924.672 3.07 0 1.162-.234 2.201-.703 3.117-.469.917-1.133 1.612-1.992 2.086a5.718 5.718 0 0 1-2.782.703c-1.078 0-2.041-.26-2.89-.781a5.033 5.033 0 0 1-1.93-2.133 6.47 6.47 0 0 1-.656-2.859Zm1.562.023c0 1.381.37 2.469 1.11 3.266.744.792 1.677 1.187 2.797 1.187 1.14 0 2.078-.401 2.812-1.203.74-.802 1.109-1.94 1.109-3.414 0-.932-.158-1.745-.476-2.437-.313-.698-.774-1.237-1.383-1.617a3.707 3.707 0 0 0-2.039-.579 3.88 3.88 0 0 0-2.773 1.11c-.771.734-1.157 1.963-1.157 3.687Zm11.552 5.555v-11.453h3.945c.891 0 1.57.055 2.039.164.656.151 1.216.424 1.68.82.604.511 1.055 1.164 1.351 1.961.303.792.454 1.698.454 2.719 0 .87-.102 1.641-.305 2.312-.203.672-.464 1.23-.781 1.672a4.203 4.203 0 0 1-1.047 1.039c-.375.25-.831.44-1.367.571-.532.13-1.144.195-1.836.195h-4.133Zm1.515-1.352h2.446c.755 0 1.346-.07 1.773-.21.432-.141.776-.339 1.031-.594.36-.36.638-.841.836-1.446.204-.609.305-1.346.305-2.21 0-1.198-.198-2.118-.594-2.758-.39-.646-.867-1.078-1.429-1.297-.407-.156-1.06-.235-1.961-.235h-2.407v8.75Zm10.279 1.352v-11.453h8.281v1.351h-6.766v3.508h6.336v1.344h-6.336v3.898h7.031v1.352h-8.546Z" fill="#2D2D2D"/><path d="M163.453 362.166v-60.447s11.659 10.137 45.932 10.137 45.86-11.078 45.86-11.078v61.388c-14.298 21.006-85.284 14.728-91.792 0Z" fill="#E0454C"/><path d="M162.453 404.857v-62.633s11.857 12.115 46.13 12.115 45.662-12.115 45.662-12.115l.969 62.633c-14.575 18.286-83.891 14.858-92.761 0Z" fill="#0070CC"/><path d="M255.323 297.902c0 1.614-1.025 3.328-3.3 5.04-2.259 1.7-5.595 3.274-9.822 4.614-8.442 2.675-20.21 4.346-33.378 4.346-13.169 0-24.937-1.671-33.379-4.346-4.227-1.34-7.563-2.914-9.822-4.614-2.275-1.712-3.299-3.426-3.299-5.04 0-1.614 1.024-3.327 3.299-5.039 2.259-1.7 5.595-3.274 9.822-4.614 8.442-2.676 20.21-4.347 33.379-4.347 13.168 0 24.936 1.671 33.378 4.347 4.227 1.34 7.563 2.914 9.822 4.614 2.275 1.712 3.3 3.425 3.3 5.039Z" fill="#E0454C" stroke="#2D2D2D" stroke-width="2"/><path d="m162.323 296.902.35 107.264m92.65-107.264v108m.088-1.557c0 7.956-20.76 14.406-46.369 14.406-25.609 0-46.369-6.45-46.369-14.406m92.738-64c0 7.956-20.76 14.406-46.369 14.406-25.609 0-46.369-6.45-46.369-14.406" stroke="#2D2D2D" stroke-width="2"/><path d="M174.51 336.902v-11.453h2.281l2.711 8.11c.25.755.432 1.32.547 1.695.13-.417.333-1.029.609-1.836l2.743-7.969h2.039v11.453h-1.461v-9.586l-3.328 9.586h-1.368l-3.312-9.75v9.75h-1.461Zm13.606 0v-11.453h8.282v1.352h-6.766v3.508h6.336v1.343h-6.336v3.899h7.031v1.351h-8.547Zm10.794 0v-11.453h2.281l2.711 8.11c.25.755.432 1.32.547 1.695.13-.417.333-1.029.609-1.836l2.743-7.969h2.039v11.453h-1.461v-9.586l-3.328 9.586h-1.368l-3.312-9.75v9.75h-1.461Zm13.114-5.578c0-1.901.51-3.388 1.531-4.461 1.021-1.078 2.339-1.617 3.953-1.617 1.058 0 2.011.253 2.86.758a4.914 4.914 0 0 1 1.937 2.117c.448.901.672 1.925.672 3.07 0 1.162-.234 2.201-.703 3.118-.469.916-1.133 1.612-1.992 2.086a5.725 5.725 0 0 1-2.781.703c-1.078 0-2.042-.261-2.891-.782a5.024 5.024 0 0 1-1.93-2.132 6.473 6.473 0 0 1-.656-2.86Zm1.563.024c0 1.38.369 2.468 1.109 3.265.745.792 1.677 1.188 2.797 1.188 1.14 0 2.078-.401 2.812-1.203.74-.802 1.11-1.94 1.11-3.414 0-.933-.159-1.745-.477-2.438-.312-.698-.773-1.237-1.383-1.617a3.706 3.706 0 0 0-2.039-.578c-1.073 0-1.997.37-2.773 1.109-.771.735-1.156 1.964-1.156 3.688Zm11.575 5.554v-11.453h5.078c1.021 0 1.797.104 2.328.313.531.203.956.565 1.273 1.086.318.52.477 1.096.477 1.726 0 .813-.263 1.498-.789 2.055-.526.557-1.339.911-2.438 1.062.401.193.706.383.914.571.443.406.862.914 1.258 1.523l1.992 3.117h-1.906l-1.516-2.382a21.709 21.709 0 0 0-1.093-1.579c-.287-.364-.545-.619-.774-.765a2.22 2.22 0 0 0-.687-.305c-.172-.036-.453-.055-.844-.055h-1.758v5.086h-1.515Zm1.515-6.398h3.258c.693 0 1.234-.07 1.625-.211.391-.146.688-.375.891-.688.203-.317.304-.661.304-1.031 0-.541-.198-.987-.593-1.336-.391-.349-1.011-.523-1.86-.523h-3.625v3.789Zm13.153 6.398v-4.851l-4.414-6.602h1.844l2.258 3.453a34.87 34.87 0 0 1 1.164 1.938c.344-.599.76-1.274 1.25-2.024l2.219-3.367h1.765l-4.57 6.602v4.851h-1.516Zm-49.273 63v-11.453h3.945c.891 0 1.571.055 2.039.164a3.878 3.878 0 0 1 1.68.821c.604.51 1.055 1.164 1.352 1.961.302.791.453 1.697.453 2.718 0 .87-.102 1.641-.305 2.313-.203.672-.464 1.229-.781 1.672a4.22 4.22 0 0 1-1.047 1.039c-.375.25-.831.44-1.367.57-.532.13-1.144.195-1.836.195h-4.133Zm1.516-1.351h2.445c.755 0 1.346-.071 1.773-.211.433-.141.776-.339 1.032-.594.359-.359.638-.841.835-1.445.204-.61.305-1.347.305-2.211 0-1.198-.198-2.117-.594-2.758-.39-.646-.867-1.078-1.429-1.297-.407-.156-1.06-.234-1.961-.234h-2.406v8.75Zm10.504 1.351v-11.453h1.516v11.453h-1.516Zm3.88-3.679 1.43-.125c.067.573.224 1.044.468 1.414.25.364.636.661 1.157.89.52.224 1.106.336 1.757.336.579 0 1.089-.086 1.532-.258.442-.171.77-.406.984-.703.219-.302.328-.63.328-.984 0-.359-.104-.672-.312-.938-.209-.27-.552-.497-1.032-.679-.307-.12-.987-.305-2.039-.555-1.052-.255-1.789-.495-2.211-.719-.546-.286-.955-.64-1.226-1.062a2.65 2.65 0 0 1-.399-1.43c0-.578.164-1.117.493-1.617.328-.505.807-.888 1.437-1.148.63-.261 1.331-.391 2.102-.391.849 0 1.596.138 2.242.414.651.271 1.151.672 1.5 1.203s.536 1.133.562 1.805l-1.453.109c-.078-.724-.344-1.271-.797-1.64-.448-.37-1.112-.555-1.992-.555-.917 0-1.586.169-2.008.508-.416.333-.625.737-.625 1.211 0 .411.149.75.446 1.015.291.266 1.052.539 2.281.821 1.234.276 2.081.518 2.539.726.667.307 1.159.698 1.477 1.172.317.469.476 1.01.476 1.625 0 .609-.174 1.185-.523 1.727-.349.536-.852.955-1.508 1.257-.651.297-1.386.446-2.203.446-1.037 0-1.907-.151-2.61-.453a3.692 3.692 0 0 1-1.648-1.36 3.904 3.904 0 0 1-.625-2.062Zm11.325 3.679v-11.453h1.516v5.68l5.687-5.68h2.055l-4.805 4.641 5.016 6.812h-2l-4.078-5.797-1.875 1.829v3.968h-1.516Z" fill="#fff"/><path fill-rule="evenodd" clip-rule="evenodd" d="M163.062 163.857c-14.732 0-27.187 13.716-27.187 27.143 0 13.427 12.455 27.143 27.187 27.143 7.374 0 14.602-3.308 22.2-9.069 6.453-4.908 12.745-11.248 19.249-18.074-6.504-6.826-12.796-13.173-19.249-18.074-7.598-5.761-14.826-9.069-22.2-9.069ZM212 183.11c-6.431-6.753-13.144-13.499-20.155-18.819-8.497-6.463-18.031-11.291-28.783-11.291C141.987 153 125 171.928 125 191s16.987 38 38.062 38c10.752 0 20.286-4.835 28.783-11.291 7.011-5.32 13.724-12.066 20.155-18.819 6.431 6.753 13.144 13.499 20.155 18.819 8.497 6.456 18.031 11.291 28.783 11.291C282.013 229 299 210.072 299 191s-16.987-38-38.062-38c-10.752 0-20.286 4.835-28.783 11.291-7.011 5.32-13.724 12.066-20.155 18.819Zm7.489 7.89c6.504 6.826 12.796 13.173 19.249 18.074 7.598 5.761 14.826 9.069 22.2 9.069 14.731 0 27.187-13.716 27.187-27.143 0-13.427-12.456-27.143-27.187-27.143-7.374 0-14.602 3.308-22.2 9.069-6.453 4.908-12.745 11.248-19.249 18.074Z" fill="#E6E6E6" fill-opacity=".7"/><path d="m185.952 180.984 1.515.383c-.318 1.245-.89 2.195-1.719 2.852-.822.651-1.83.976-3.023.976-1.234 0-2.24-.25-3.016-.75-.77-.505-1.359-1.234-1.765-2.187a7.837 7.837 0 0 1-.602-3.07c0-1.193.227-2.232.68-3.118.458-.89 1.107-1.565 1.945-2.023a5.676 5.676 0 0 1 2.781-.695c1.146 0 2.11.291 2.891.875.781.583 1.326 1.403 1.633 2.461l-1.492.351c-.266-.833-.651-1.44-1.157-1.82-.505-.38-1.14-.571-1.906-.571-.88 0-1.617.211-2.211.633a3.356 3.356 0 0 0-1.242 1.703 6.798 6.798 0 0 0-.359 2.196c0 .974.14 1.825.422 2.554.286.724.729 1.266 1.328 1.625.599.36 1.247.539 1.945.539.849 0 1.568-.244 2.156-.734.589-.49.987-1.216 1.196-2.18Zm2.887-.132c0-1.537.427-2.675 1.281-3.414.714-.615 1.584-.922 2.61-.922 1.14 0 2.073.375 2.797 1.125.724.744 1.085 1.776 1.085 3.093 0 1.068-.161 1.909-.484 2.524a3.386 3.386 0 0 1-1.398 1.422 4.057 4.057 0 0 1-2 .508c-1.162 0-2.102-.373-2.821-1.118-.713-.744-1.07-1.817-1.07-3.218Zm1.445 0c0 1.062.232 1.859.696 2.39a2.233 2.233 0 0 0 1.75.789c.698 0 1.278-.265 1.742-.797.463-.531.695-1.341.695-2.429 0-1.026-.234-1.802-.703-2.328-.463-.532-1.042-.797-1.734-.797-.703 0-1.287.263-1.75.789-.464.526-.696 1.32-.696 2.383Zm8.185 4.148v-8.297h1.265v1.18c.61-.912 1.49-1.367 2.641-1.367.5 0 .958.091 1.375.273.422.177.737.412.945.703.209.292.354.638.438 1.039.052.261.078.716.078 1.367V185h-1.406v-5.047c0-.573-.055-1-.164-1.281a1.33 1.33 0 0 0-.586-.68 1.81 1.81 0 0 0-.977-.258c-.599 0-1.117.19-1.555.571-.432.38-.648 1.101-.648 2.164V185h-1.406Zm12.176-1.258.203 1.242c-.395.084-.75.125-1.062.125-.51 0-.906-.08-1.188-.242a1.352 1.352 0 0 1-.593-.633c-.115-.265-.172-.82-.172-1.664v-4.773h-1.031v-1.094h1.031v-2.055l1.398-.843v2.898h1.414v1.094h-1.414v4.851c0 .401.024.659.071.774a.609.609 0 0 0 .242.273c.114.068.276.102.484.102.156 0 .362-.018.617-.055Zm1.591-8.578v-1.617h1.406v1.617h-1.406Zm0 9.836v-8.297h1.406V185h-1.406Zm3.755 0v-8.297h1.265v1.18c.61-.912 1.49-1.367 2.641-1.367.5 0 .958.091 1.375.273.422.177.737.412.945.703.209.292.354.638.438 1.039.052.261.078.716.078 1.367V185h-1.406v-5.047c0-.573-.055-1-.165-1.281a1.324 1.324 0 0 0-.585-.68 1.81 1.81 0 0 0-.977-.258c-.599 0-1.117.19-1.555.571-.432.38-.648 1.101-.648 2.164V185h-1.406Zm8.582-4.148c0-1.537.428-2.675 1.282-3.414.713-.615 1.583-.922 2.609-.922 1.141 0 2.073.375 2.797 1.125.724.744 1.086 1.776 1.086 3.093 0 1.068-.162 1.909-.485 2.524a3.374 3.374 0 0 1-1.398 1.422 4.054 4.054 0 0 1-2 .508c-1.161 0-2.102-.373-2.82-1.118-.714-.744-1.071-1.817-1.071-3.218Zm1.446 0c0 1.062.232 1.859.695 2.39a2.234 2.234 0 0 0 1.75.789c.698 0 1.279-.265 1.742-.797.464-.531.696-1.341.696-2.429 0-1.026-.235-1.802-.704-2.328-.463-.532-1.041-.797-1.734-.797-.703 0-1.286.263-1.75.789-.463.526-.695 1.32-.695 2.383ZM239.641 185v-1.219c-.646.938-1.524 1.407-2.633 1.407-.49 0-.948-.094-1.375-.282-.422-.187-.737-.422-.945-.703a2.697 2.697 0 0 1-.43-1.047c-.057-.276-.086-.713-.086-1.312v-5.141h1.406v4.602c0 .734.029 1.229.086 1.484.089.37.276.662.563.875.286.208.64.313 1.062.313.422 0 .818-.107 1.188-.321.369-.218.63-.513.781-.883.156-.375.234-.916.234-1.625v-4.445h1.406V185h-1.257Zm3.106-2.477 1.39-.218c.079.557.295.984.649 1.281.359.297.859.445 1.5.445.646 0 1.125-.13 1.437-.39.313-.266.469-.576.469-.93a.853.853 0 0 0-.414-.75c-.193-.125-.672-.284-1.437-.477-1.032-.26-1.748-.484-2.149-.672a2.128 2.128 0 0 1-.906-.789 2.13 2.13 0 0 1-.305-1.117c0-.37.084-.711.25-1.023.172-.318.404-.581.696-.789.218-.162.515-.297.89-.406.38-.115.787-.172 1.219-.172.651 0 1.221.093 1.711.281.495.187.859.443 1.094.765.234.318.395.745.484 1.282l-1.375.187c-.063-.427-.245-.76-.547-1-.297-.239-.719-.359-1.266-.359-.645 0-1.106.107-1.382.32-.276.214-.414.464-.414.75 0 .182.057.347.171.492.115.151.295.276.54.375.14.052.554.172 1.242.36.995.265 1.687.484 2.078.656.396.167.706.411.93.734.224.323.335.724.335 1.203 0 .469-.138.912-.414 1.329-.27.411-.664.731-1.179.961-.516.224-1.099.336-1.75.336-1.078 0-1.901-.224-2.469-.672-.563-.448-.922-1.112-1.078-1.993ZM185.331 203v-11.453h1.406V203h-1.406Zm9.474-2.672 1.453.18c-.229.849-.654 1.508-1.274 1.976-.619.469-1.411.704-2.375.704-1.213 0-2.177-.373-2.89-1.118-.709-.75-1.063-1.799-1.063-3.148 0-1.396.36-2.479 1.078-3.25.719-.771 1.651-1.156 2.797-1.156 1.11 0 2.016.377 2.719 1.132.703.756 1.055 1.818 1.055 3.188 0 .083-.003.208-.008.375h-6.188c.052.911.31 1.609.774 2.094.463.484 1.041.726 1.734.726.516 0 .956-.135 1.321-.406.364-.271.653-.703.867-1.297Zm-4.617-2.273h4.632c-.062-.698-.239-1.222-.531-1.571-.448-.541-1.029-.812-1.742-.812-.646 0-1.19.216-1.633.648-.437.433-.68 1.011-.726 1.735Zm13.457 3.922c-.521.442-1.023.755-1.508.937a4.315 4.315 0 0 1-1.546.274c-.912 0-1.612-.222-2.102-.665-.49-.447-.734-1.018-.734-1.711 0-.406.091-.776.273-1.109.188-.338.43-.609.727-.812.302-.203.64-.357 1.015-.461.276-.073.693-.144 1.25-.211 1.136-.136 1.972-.297 2.508-.485.005-.192.008-.315.008-.367 0-.573-.133-.976-.399-1.211-.359-.317-.893-.476-1.601-.476-.662 0-1.151.117-1.469.351-.312.229-.544.638-.695 1.227l-1.375-.188c.125-.588.331-1.062.617-1.422.287-.364.701-.643 1.242-.836.542-.197 1.17-.296 1.883-.296.708 0 1.284.083 1.727.25.442.166.768.377.976.632.209.25.354.568.438.954.047.239.07.671.07 1.296v1.875c0 1.308.029 2.136.086 2.485.062.344.182.674.359.992h-1.468a2.989 2.989 0 0 1-.282-1.023Zm-.117-3.141c-.51.208-1.276.385-2.297.531-.578.084-.987.177-1.226.281a1.218 1.218 0 0 0-.75 1.125c0 .375.14.688.422.938.286.25.703.375 1.25.375.541 0 1.023-.117 1.445-.352a2.21 2.21 0 0 0 .93-.976c.151-.318.226-.787.226-1.406v-.516Zm3.794 4.164v-8.297h1.266v1.258c.322-.589.619-.977.89-1.164.276-.188.578-.281.906-.281.474 0 .956.151 1.446.453l-.485 1.304a2.009 2.009 0 0 0-1.031-.304c-.307 0-.583.093-.828.281a1.478 1.478 0 0 0-.523.766 5.448 5.448 0 0 0-.235 1.64V203h-1.406Zm5.544 0v-8.297h1.265v1.18c.61-.912 1.49-1.367 2.641-1.367.5 0 .958.091 1.375.273.422.177.737.412.945.703.209.292.354.638.438 1.039.052.261.078.716.078 1.367V203h-1.406v-5.047c0-.573-.055-1-.165-1.281a1.324 1.324 0 0 0-.585-.68 1.81 1.81 0 0 0-.977-.258c-.599 0-1.117.19-1.555.571-.432.38-.648 1.101-.648 2.164V203h-1.406Zm9.114-9.836v-1.617h1.406v1.617h-1.406Zm0 9.836v-8.297h1.406V203h-1.406Zm3.754 0v-8.297H227v1.18c.609-.912 1.49-1.367 2.641-1.367.5 0 .958.091 1.375.273.422.177.737.412.945.703.208.292.354.638.437 1.039.053.261.079.716.079 1.367V203h-1.407v-5.047c0-.573-.054-1-.164-1.281a1.322 1.322 0 0 0-.586-.68 1.807 1.807 0 0 0-.976-.258c-.599 0-1.117.19-1.555.571-.432.38-.648 1.101-.648 2.164V203h-1.407Zm8.849.688 1.367.203c.057.421.216.729.477.921.349.261.825.391 1.429.391.651 0 1.154-.13 1.508-.391.354-.26.594-.624.719-1.093.073-.287.107-.888.101-1.805-.614.724-1.38 1.086-2.296 1.086-1.141 0-2.024-.411-2.649-1.234s-.937-1.81-.937-2.961c0-.792.143-1.521.429-2.188.287-.672.701-1.19 1.242-1.555.547-.364 1.188-.546 1.922-.546.979 0 1.787.395 2.422 1.187v-1h1.297v7.172c0 1.292-.133 2.206-.398 2.742-.261.542-.677.969-1.25 1.281-.568.313-1.269.469-2.102.469-.99 0-1.789-.224-2.398-.672-.61-.442-.904-1.112-.883-2.007Zm1.164-4.985c0 1.089.216 1.883.648 2.383.433.5.974.75 1.625.75.646 0 1.188-.247 1.625-.742.438-.5.657-1.282.657-2.344 0-1.016-.227-1.781-.68-2.297-.448-.515-.99-.773-1.625-.773-.625 0-1.156.255-1.594.765-.437.506-.656 1.258-.656 2.258Z" fill="#6E6E6E"/></svg>