<svg width="577" height="653" fill="none" xmlns="http://www.w3.org/2000/svg"><path d="m450 196.706 197.475 114.012V424.73L450 310.718V196.706Z" fill="#0070CC" stroke="#fff"/><path d="M647.475 82.694 844.95 196.706 647.475 310.718 450 196.706 647.475 82.694Z" fill="#0070CC" stroke="#fff"/><mask id="a" fill="#fff"><path fill-rule="evenodd" clip-rule="evenodd" d="M489.659 276.514c0 7.556-5.305 10.619-11.849 6.841-6.544-3.778-11.848-12.966-11.848-20.522 0-7.556 5.304-10.619 11.848-6.841 6.544 3.778 11.849 12.966 11.849 20.522Zm31.923 18.242c0 7.556-5.305 10.619-11.848 6.841-6.544-3.778-11.849-12.966-11.849-20.522 0-7.556 5.305-10.619 11.849-6.841 6.543 3.778 11.848 12.966 11.848 20.522Zm32.087 11.402c-4.362-2.519-7.899-.477-7.899 4.56s3.537 11.163 7.899 13.681l67.142 38.765c4.362 2.518 7.899.476 7.899-4.561s-3.537-11.163-7.899-13.681l-67.142-38.764Z"/></mask><path fill-rule="evenodd" clip-rule="evenodd" d="M489.659 276.514c0 7.556-5.305 10.619-11.849 6.841-6.544-3.778-11.848-12.966-11.848-20.522 0-7.556 5.304-10.619 11.848-6.841 6.544 3.778 11.849 12.966 11.849 20.522Zm31.923 18.242c0 7.556-5.305 10.619-11.848 6.841-6.544-3.778-11.849-12.966-11.849-20.522 0-7.556 5.305-10.619 11.849-6.841 6.543 3.778 11.848 12.966 11.848 20.522Zm32.087 11.402c-4.362-2.519-7.899-.477-7.899 4.56s3.537 11.163 7.899 13.681l67.142 38.765c4.362 2.518 7.899.476 7.899-4.561s-3.537-11.163-7.899-13.681l-67.142-38.764Z" fill="#0070CC"/><path d="m477.81 283.355.5-.866-.5.866Zm11.849-6.841h1-1Zm-23.697-13.681h1-1Zm11.848-6.841-.5.866.5-.866Zm31.924 45.605.5-.866-.5.866Zm0-27.363-.5.866.5-.866Zm43.935 31.924-.5.866.5-.866Zm0 18.241-.5.866.5-.866Zm67.142 38.765.5-.866-.5.866Zm0-18.242.5-.866-.5.866ZM477.31 284.221c3.454 1.994 6.816 2.31 9.378.83 2.563-1.48 3.971-4.548 3.971-8.537h-2c0 3.568-1.245 5.809-2.971 6.805-1.725.996-4.288.954-7.378-.83l-1 1.732Zm-12.348-21.388c0 3.995 1.395 8.352 3.604 12.178 2.209 3.825 5.285 7.213 8.744 9.21l1-1.732c-3.084-1.781-5.932-4.876-8.012-8.478-2.08-3.602-3.336-7.617-3.336-11.178h-2Zm13.348-7.707c-3.454-1.994-6.815-2.309-9.378-.83-2.563 1.48-3.97 4.548-3.97 8.537h2c0-3.568 1.244-5.808 2.97-6.805 1.726-.996 4.289-.954 7.378.83l1-1.732Zm12.349 21.388c0-3.995-1.396-8.352-3.605-12.178-2.208-3.825-5.284-7.212-8.744-9.21l-1 1.732c3.084 1.781 5.933 4.876 8.012 8.478 2.08 3.603 3.337 7.617 3.337 11.178h2Zm18.575 25.949c3.454 1.994 6.815 2.31 9.378.83 2.562-1.48 3.97-4.548 3.97-8.537h-2c0 3.568-1.245 5.809-2.97 6.805-1.726.996-4.289.954-7.378-.83l-1 1.732Zm-12.349-21.388c0 3.995 1.396 8.352 3.604 12.178 2.209 3.825 5.285 7.213 8.745 9.21l1-1.732c-3.084-1.781-5.933-4.876-8.012-8.478-2.08-3.602-3.337-7.617-3.337-11.178h-2Zm13.349-7.707c-3.454-1.994-6.816-2.309-9.379-.83-2.562 1.48-3.97 4.548-3.97 8.537h2c0-3.568 1.245-5.808 2.97-6.805 1.726-.996 4.289-.954 7.379.83l1-1.732Zm12.348 21.388c0-3.995-1.396-8.352-3.604-12.178-2.209-3.825-5.285-7.212-8.744-9.21l-1 1.732c3.084 1.781 5.932 4.876 8.012 8.478 2.079 3.602 3.336 7.617 3.336 11.178h2Zm24.188 15.962c0-2.308.803-3.664 1.814-4.248 1.011-.583 2.586-.601 4.585.554l1-1.733c-2.363-1.364-4.737-1.62-6.585-.553-1.848 1.067-2.814 3.251-2.814 5.98h2Zm7.399 12.815c-1.993-1.15-3.854-3.166-5.219-5.53-1.365-2.364-2.18-4.983-2.18-7.285h-2c0 2.736.954 5.698 2.448 8.285 1.494 2.588 3.582 4.895 5.951 6.262l1-1.732Zm67.142 38.765-67.142-38.765-1 1.732 67.142 38.765 1-1.732Zm6.399-3.695c0 2.308-.803 3.664-1.814 4.248-1.011.584-2.586.601-4.585-.553l-1 1.732c2.363 1.364 4.737 1.62 6.585.553 1.848-1.067 2.814-3.251 2.814-5.98h-2Zm-7.399-12.815c1.993 1.151 3.854 3.166 5.219 5.53 1.365 2.364 2.18 4.983 2.18 7.285h2c0-2.735-.954-5.698-2.448-8.285-1.494-2.588-3.582-4.895-5.951-6.262l-1 1.732Zm-67.142-38.764 67.142 38.764 1-1.732-67.142-38.765-1 1.733Z" fill="#fff" mask="url(#a)"/><path d="m450 69.012 197.475 114.012v114.013L450 183.024V69.012Z" fill="#0070CC" stroke="#fff"/><path d="M647.475-45 844.95 69.012 647.475 183.024 450 69.012 647.475-45Z" fill="#0070CC" stroke="#fff"/><mask id="b" fill="#fff"><path fill-rule="evenodd" clip-rule="evenodd" d="M489.659 153.381c0 7.556-5.305 10.619-11.849 6.841-6.544-3.778-11.848-12.966-11.848-20.522 0-7.556 5.304-10.619 11.848-6.841 6.544 3.778 11.849 12.966 11.849 20.522Zm31.923 18.242c0 7.556-5.305 10.619-11.848 6.841-6.544-3.778-11.849-12.966-11.849-20.522 0-7.556 5.305-10.619 11.849-6.841 6.543 3.778 11.848 12.966 11.848 20.522Zm32.087 9.121c-4.362-2.518-7.899-.477-7.899 4.561 0 5.037 3.537 11.163 7.899 13.681l67.142 38.764c4.362 2.519 7.899.477 7.899-4.56s-3.537-11.163-7.899-13.682l-67.142-38.764Z"/></mask><path fill-rule="evenodd" clip-rule="evenodd" d="M489.659 153.381c0 7.556-5.305 10.619-11.849 6.841-6.544-3.778-11.848-12.966-11.848-20.522 0-7.556 5.304-10.619 11.848-6.841 6.544 3.778 11.849 12.966 11.849 20.522Zm31.923 18.242c0 7.556-5.305 10.619-11.848 6.841-6.544-3.778-11.849-12.966-11.849-20.522 0-7.556 5.305-10.619 11.849-6.841 6.543 3.778 11.848 12.966 11.848 20.522Zm32.087 9.121c-4.362-2.518-7.899-.477-7.899 4.561 0 5.037 3.537 11.163 7.899 13.681l67.142 38.764c4.362 2.519 7.899.477 7.899-4.56s-3.537-11.163-7.899-13.682l-67.142-38.764Z" fill="#0070CC"/><path d="M489.659 153.381h1-1ZM465.962 139.7h1-1Zm11.848-6.841-.5.866.5-.866Zm31.924 45.605-.5.866.5-.866Zm0-27.363-.5.866.5-.866Zm43.935 29.643-.5.866.5-.866Zm0 18.242.5-.866-.5.866Zm67.142 38.764-.5.866.5-.866Zm0-18.242-.5.867.5-.867Zm-143.501-58.42c3.454 1.994 6.816 2.31 9.378.83 2.563-1.479 3.971-4.548 3.971-8.537h-2c0 3.568-1.245 5.809-2.971 6.805-1.725.996-4.288.954-7.378-.83l-1 1.732ZM464.962 139.7c0 3.995 1.395 8.352 3.604 12.178 2.209 3.825 5.285 7.213 8.744 9.21l1-1.732c-3.084-1.781-5.932-4.876-8.012-8.478-2.08-3.602-3.336-7.617-3.336-11.178h-2Zm13.348-7.707c-3.454-1.994-6.815-2.309-9.378-.83-2.563 1.48-3.97 4.549-3.97 8.537h2c0-3.568 1.244-5.808 2.97-6.805 1.726-.996 4.289-.954 7.378.83l1-1.732Zm12.349 21.388c0-3.994-1.396-8.352-3.605-12.177-2.208-3.826-5.284-7.213-8.744-9.211l-1 1.732c3.084 1.781 5.933 4.876 8.012 8.479 2.08 3.602 3.337 7.616 3.337 11.177h2Zm18.575 25.949c3.454 1.994 6.815 2.31 9.378.83 2.562-1.479 3.97-4.548 3.97-8.537h-2c0 3.568-1.245 5.809-2.97 6.805-1.726.996-4.289.954-7.378-.83l-1 1.732Zm-12.349-21.388c0 3.995 1.396 8.352 3.604 12.178 2.209 3.825 5.285 7.213 8.745 9.21l1-1.732c-3.084-1.781-5.933-4.876-8.012-8.478-2.08-3.602-3.337-7.617-3.337-11.178h-2Zm13.349-7.707c-3.454-1.994-6.816-2.309-9.379-.83-2.562 1.48-3.97 4.548-3.97 8.537h2c0-3.568 1.245-5.808 2.97-6.805 1.726-.996 4.289-.954 7.379.83l1-1.732Zm12.348 21.388c0-3.995-1.396-8.352-3.604-12.178-2.209-3.825-5.285-7.212-8.744-9.21l-1 1.732c3.084 1.781 5.932 4.876 8.012 8.478 2.079 3.603 3.336 7.617 3.336 11.178h2Zm24.188 13.682c0-2.309.803-3.664 1.814-4.248 1.011-.584 2.586-.601 4.585.553l1-1.732c-2.363-1.364-4.737-1.62-6.585-.553-1.848 1.067-2.814 3.251-2.814 5.98h2Zm7.399 12.815c-1.993-1.151-3.854-3.166-5.219-5.53-1.365-2.364-2.18-4.983-2.18-7.285h-2c0 2.735.954 5.697 2.448 8.285s3.582 4.895 5.951 6.262l1-1.732Zm67.142 38.764-67.142-38.764-1 1.732 67.142 38.764 1-1.732Zm6.399-3.694c0 2.308-.803 3.664-1.814 4.248-1.011.583-2.586.601-4.585-.554l-1 1.732c2.363 1.365 4.737 1.621 6.585.554 1.848-1.067 2.814-3.251 2.814-5.98h-2Zm-7.399-12.815c1.993 1.15 3.854 3.166 5.219 5.53 1.365 2.364 2.18 4.983 2.18 7.285h2c0-2.736-.954-5.698-2.448-8.285-1.494-2.588-3.582-4.895-5.951-6.263l-1 1.733Zm-67.142-38.765 67.142 38.765 1-1.733-67.142-38.764-1 1.732Z" fill="#fff" mask="url(#b)"/><path d="m226 317.706 197.475 114.012V545.73L226 431.718V317.706Zm197.475 114.012L620.95 317.706v114.012L423.475 545.73V431.718Z" fill="#0070CC" stroke="#fff"/><path d="M423.475 203.694 620.95 317.706 423.475 431.718 226 317.706l197.475-114.012Z" fill="#0070CC" stroke="#fff"/><mask id="c" fill="#fff"><path fill-rule="evenodd" clip-rule="evenodd" d="M265.659 397.514c0 7.556-5.305 10.619-11.849 6.841-6.544-3.778-11.848-12.966-11.848-20.522 0-7.556 5.304-10.619 11.848-6.841 6.544 3.778 11.849 12.966 11.849 20.522Zm31.923 18.242c0 7.556-5.305 10.619-11.848 6.841-6.544-3.778-11.849-12.966-11.849-20.522 0-7.556 5.305-10.619 11.849-6.841 6.543 3.778 11.848 12.966 11.848 20.522Zm32.087 11.402c-4.362-2.519-7.899-.477-7.899 4.56s3.537 11.163 7.899 13.681l67.142 38.765c4.362 2.518 7.899.476 7.899-4.561s-3.537-11.163-7.899-13.681l-67.142-38.764Z"/></mask><path fill-rule="evenodd" clip-rule="evenodd" d="M265.659 397.514c0 7.556-5.305 10.619-11.849 6.841-6.544-3.778-11.848-12.966-11.848-20.522 0-7.556 5.304-10.619 11.848-6.841 6.544 3.778 11.849 12.966 11.849 20.522Zm31.923 18.242c0 7.556-5.305 10.619-11.848 6.841-6.544-3.778-11.849-12.966-11.849-20.522 0-7.556 5.305-10.619 11.849-6.841 6.543 3.778 11.848 12.966 11.848 20.522Zm32.087 11.402c-4.362-2.519-7.899-.477-7.899 4.56s3.537 11.163 7.899 13.681l67.142 38.765c4.362 2.518 7.899.476 7.899-4.561s-3.537-11.163-7.899-13.681l-67.142-38.764Z" fill="#0070CC"/><path d="m253.81 404.355.5-.866-.5.866Zm11.849-6.841h1-1Zm-23.697-13.681h1-1Zm11.848-6.841-.5.866.5-.866Zm31.924 45.605.5-.866-.5.866Zm0-27.363-.5.866.5-.866Zm43.935 31.924-.5.866.5-.866Zm0 18.241-.5.866.5-.866Zm67.142 38.765.5-.866-.5.866Zm0-18.242.5-.866-.5.866ZM253.31 405.221c3.454 1.994 6.816 2.31 9.378.83 2.563-1.48 3.971-4.548 3.971-8.537h-2c0 3.568-1.245 5.809-2.971 6.805-1.725.996-4.288.954-7.378-.83l-1 1.732Zm-12.348-21.388c0 3.995 1.395 8.352 3.604 12.178 2.209 3.825 5.285 7.213 8.744 9.21l1-1.732c-3.084-1.781-5.932-4.876-8.012-8.478-2.08-3.602-3.336-7.617-3.336-11.178h-2Zm13.348-7.707c-3.454-1.994-6.815-2.309-9.378-.83-2.563 1.48-3.97 4.548-3.97 8.537h2c0-3.568 1.244-5.808 2.97-6.805 1.726-.996 4.289-.954 7.378.83l1-1.732Zm12.349 21.388c0-3.995-1.396-8.352-3.605-12.178-2.208-3.825-5.284-7.212-8.744-9.21l-1 1.732c3.084 1.781 5.933 4.876 8.012 8.478 2.08 3.603 3.337 7.617 3.337 11.178h2Zm18.575 25.949c3.454 1.994 6.815 2.31 9.378.83 2.562-1.48 3.97-4.548 3.97-8.537h-2c0 3.568-1.245 5.809-2.97 6.805-1.726.996-4.289.954-7.378-.83l-1 1.732Zm-12.349-21.388c0 3.995 1.396 8.352 3.604 12.178 2.209 3.825 5.285 7.213 8.745 9.21l1-1.732c-3.084-1.781-5.933-4.876-8.013-8.478-2.079-3.602-3.336-7.617-3.336-11.178h-2Zm13.349-7.707c-3.454-1.994-6.816-2.309-9.379-.83-2.562 1.48-3.97 4.548-3.97 8.537h2c0-3.568 1.245-5.808 2.97-6.805 1.726-.996 4.289-.954 7.379.83l1-1.732Zm12.348 21.388c0-3.995-1.396-8.352-3.604-12.178-2.209-3.825-5.285-7.212-8.744-9.21l-1 1.732c3.084 1.781 5.932 4.876 8.012 8.478 2.079 3.602 3.336 7.617 3.336 11.178h2Zm24.188 15.962c0-2.308.803-3.664 1.814-4.248 1.011-.583 2.586-.601 4.585.554l1-1.733c-2.363-1.364-4.737-1.62-6.585-.553-1.848 1.067-2.814 3.251-2.814 5.98h2Zm7.399 12.815c-1.993-1.15-3.854-3.166-5.219-5.53-1.365-2.364-2.18-4.983-2.18-7.285h-2c0 2.736.954 5.698 2.448 8.285 1.494 2.588 3.582 4.895 5.951 6.262l1-1.732Zm67.142 38.765-67.142-38.765-1 1.732 67.142 38.765 1-1.732Zm6.399-3.695c0 2.308-.803 3.664-1.814 4.248-1.011.584-2.586.601-4.585-.553l-1 1.732c2.363 1.364 4.737 1.62 6.585.553 1.848-1.067 2.814-3.251 2.814-5.98h-2Zm-7.399-12.815c1.993 1.151 3.854 3.166 5.219 5.53 1.365 2.364 2.18 4.983 2.18 7.285h2c0-2.735-.954-5.698-2.448-8.285-1.494-2.588-3.582-4.895-5.951-6.262l-1 1.732Zm-67.142-38.764 67.142 38.764 1-1.732-67.142-38.765-1 1.733Z" fill="#fff" mask="url(#c)"/><path d="m226 190.012 197.475 114.012v114.013L226 304.024V190.012Zm197.475 114.012L620.95 190.012v114.012L423.475 418.037V304.024Z" fill="#0070CC" stroke="#fff"/><path d="M423.475 76 620.95 190.012 423.475 304.024 226 190.012 423.475 76Z" fill="#0070CC" stroke="#fff"/><mask id="d" fill="#fff"><path fill-rule="evenodd" clip-rule="evenodd" d="M265.659 274.381c0 7.556-5.305 10.619-11.849 6.841-6.544-3.778-11.848-12.966-11.848-20.522 0-7.556 5.304-10.619 11.848-6.841 6.544 3.778 11.849 12.966 11.849 20.522Zm31.923 18.242c0 7.556-5.305 10.619-11.848 6.841-6.544-3.778-11.849-12.966-11.849-20.522 0-7.556 5.305-10.619 11.849-6.841 6.543 3.778 11.848 12.966 11.848 20.522Zm32.087 9.121c-4.362-2.518-7.899-.477-7.899 4.561 0 5.037 3.537 11.163 7.899 13.681l67.142 38.764c4.362 2.519 7.899.477 7.899-4.56s-3.537-11.163-7.899-13.682l-67.142-38.764Z"/></mask><path fill-rule="evenodd" clip-rule="evenodd" d="M265.659 274.381c0 7.556-5.305 10.619-11.849 6.841-6.544-3.778-11.848-12.966-11.848-20.522 0-7.556 5.304-10.619 11.848-6.841 6.544 3.778 11.849 12.966 11.849 20.522Zm31.923 18.242c0 7.556-5.305 10.619-11.848 6.841-6.544-3.778-11.849-12.966-11.849-20.522 0-7.556 5.305-10.619 11.849-6.841 6.543 3.778 11.848 12.966 11.848 20.522Zm32.087 9.121c-4.362-2.518-7.899-.477-7.899 4.561 0 5.037 3.537 11.163 7.899 13.681l67.142 38.764c4.362 2.519 7.899.477 7.899-4.56s-3.537-11.163-7.899-13.682l-67.142-38.764Z" fill="#0070CC"/><path d="M265.659 274.381h1-1ZM241.962 260.7h1-1Zm11.848-6.841-.5.866.5-.866Zm31.924 45.605-.5.866.5-.866Zm0-27.363-.5.866.5-.866Zm43.935 29.643-.5.866.5-.866Zm0 18.242.5-.866-.5.866Zm67.142 38.764-.5.866.5-.866Zm0-18.242-.5.867.5-.867Zm-143.501-58.42c3.454 1.994 6.816 2.31 9.378.83 2.563-1.479 3.971-4.548 3.971-8.537h-2c0 3.568-1.245 5.809-2.971 6.805-1.725.996-4.288.954-7.378-.83l-1 1.732ZM240.962 260.7c0 3.995 1.395 8.352 3.604 12.178 2.209 3.825 5.285 7.213 8.744 9.21l1-1.732c-3.084-1.781-5.932-4.876-8.012-8.478-2.08-3.602-3.336-7.617-3.336-11.178h-2Zm13.348-7.707c-3.454-1.994-6.815-2.309-9.378-.83-2.563 1.48-3.97 4.549-3.97 8.537h2c0-3.568 1.244-5.808 2.97-6.805 1.726-.996 4.289-.954 7.378.83l1-1.732Zm12.349 21.388c0-3.994-1.396-8.352-3.605-12.177-2.208-3.826-5.284-7.213-8.744-9.211l-1 1.732c3.084 1.781 5.933 4.876 8.012 8.479 2.08 3.602 3.337 7.616 3.337 11.177h2Zm18.575 25.949c3.454 1.994 6.815 2.31 9.378.83 2.562-1.479 3.97-4.548 3.97-8.537h-2c0 3.568-1.245 5.809-2.97 6.805-1.726.996-4.289.954-7.378-.83l-1 1.732Zm-12.349-21.388c0 3.995 1.396 8.352 3.604 12.178 2.209 3.825 5.285 7.213 8.745 9.21l1-1.732c-3.084-1.781-5.933-4.876-8.013-8.478-2.079-3.602-3.336-7.617-3.336-11.178h-2Zm13.349-7.707c-3.454-1.994-6.816-2.309-9.379-.83-2.562 1.48-3.97 4.548-3.97 8.537h2c0-3.568 1.245-5.808 2.97-6.805 1.726-.996 4.289-.954 7.379.83l1-1.732Zm12.348 21.388c0-3.995-1.396-8.352-3.604-12.178-2.209-3.825-5.285-7.212-8.744-9.21l-1 1.732c3.084 1.781 5.932 4.876 8.012 8.478 2.079 3.603 3.336 7.617 3.336 11.178h2Zm24.188 13.682c0-2.309.803-3.664 1.814-4.248 1.011-.584 2.586-.601 4.585.553l1-1.732c-2.363-1.364-4.737-1.62-6.585-.553-1.848 1.067-2.814 3.251-2.814 5.98h2Zm7.399 12.815c-1.993-1.151-3.854-3.166-5.219-5.53-1.365-2.364-2.18-4.983-2.18-7.285h-2c0 2.735.954 5.697 2.448 8.285s3.582 4.895 5.951 6.262l1-1.732Zm67.142 38.764-67.142-38.764-1 1.732 67.142 38.764 1-1.732Zm6.399-3.694c0 2.308-.803 3.664-1.814 4.248-1.011.583-2.586.601-4.585-.554l-1 1.732c2.363 1.365 4.737 1.621 6.585.554 1.848-1.067 2.814-3.251 2.814-5.98h-2Zm-7.399-12.815c1.993 1.15 3.854 3.166 5.219 5.53 1.365 2.364 2.18 4.983 2.18 7.285h2c0-2.736-.954-5.698-2.448-8.285-1.494-2.588-3.582-4.895-5.951-6.263l-1 1.733Zm-67.142-38.765 67.142 38.765 1-1.733-67.142-38.764-1 1.732Z" fill="#fff" mask="url(#d)"/><path d="m1 464.706 197.475 114.012V692.73L1 578.718V464.706Zm197.475 114.012L395.95 464.706v114.012L198.475 692.73V578.718Z" fill="#0070CC" stroke="#fff"/><path d="M198.475 350.694 395.95 464.706 198.475 578.718 1 464.706l197.475-114.012Z" fill="#0070CC" stroke="#fff"/><mask id="e" fill="#fff"><path fill-rule="evenodd" clip-rule="evenodd" d="M40.659 544.514c0 7.556-5.305 10.619-11.849 6.841-6.543-3.778-11.848-12.966-11.848-20.522 0-7.556 5.305-10.619 11.848-6.841 6.544 3.778 11.849 12.966 11.849 20.522Zm31.923 18.242c0 7.556-5.305 10.619-11.848 6.841-6.544-3.778-11.849-12.966-11.849-20.522 0-7.556 5.305-10.619 11.849-6.841 6.543 3.778 11.848 12.966 11.848 20.522Zm32.087 11.402c-4.362-2.519-7.899-.477-7.899 4.56s3.537 11.163 7.899 13.681l67.142 38.765c4.362 2.518 7.899.476 7.899-4.561s-3.537-11.163-7.899-13.681l-67.142-38.764Z"/></mask><path fill-rule="evenodd" clip-rule="evenodd" d="M40.659 544.514c0 7.556-5.305 10.619-11.849 6.841-6.543-3.778-11.848-12.966-11.848-20.522 0-7.556 5.305-10.619 11.848-6.841 6.544 3.778 11.849 12.966 11.849 20.522Zm31.923 18.242c0 7.556-5.305 10.619-11.848 6.841-6.544-3.778-11.849-12.966-11.849-20.522 0-7.556 5.305-10.619 11.849-6.841 6.543 3.778 11.848 12.966 11.848 20.522Zm32.087 11.402c-4.362-2.519-7.899-.477-7.899 4.56s3.537 11.163 7.899 13.681l67.142 38.765c4.362 2.518 7.899.476 7.899-4.561s-3.537-11.163-7.899-13.681l-67.142-38.764Z" fill="#0070CC"/><path d="m28.81 551.355.5-.866-.5.866Zm11.849-6.841h1-1Zm-23.697-13.681h1-1Zm11.848-6.841-.5.866.5-.866Zm31.924 45.605.5-.866-.5.866Zm0-27.363-.5.866.5-.866Zm43.935 31.924-.5.866.5-.866Zm0 18.241-.5.866.5-.866Zm67.142 38.765.5-.866-.5.866Zm0-18.242.5-.866-.5.866Zm-143.5-60.701c3.453 1.994 6.815 2.31 9.377.83 2.563-1.48 3.97-4.548 3.97-8.537h-2c0 3.568-1.244 5.809-2.97 6.805-1.725.996-4.288.954-7.378-.83l-1 1.732Zm-12.35-21.388c0 3.995 1.396 8.352 3.605 12.178 2.209 3.825 5.285 7.213 8.744 9.21l1-1.732c-3.084-1.781-5.932-4.876-8.012-8.478-2.08-3.602-3.336-7.617-3.336-11.178h-2Zm13.35-7.707c-3.455-1.994-6.816-2.309-9.379-.83-2.563 1.48-3.97 4.548-3.97 8.537h2c0-3.568 1.244-5.808 2.97-6.805 1.726-.996 4.289-.954 7.378.83l1-1.732Zm12.348 21.388c0-3.995-1.396-8.352-3.605-12.178-2.208-3.825-5.284-7.212-8.744-9.21l-1 1.732c3.084 1.781 5.933 4.876 8.012 8.478 2.08 3.603 3.337 7.617 3.337 11.178h2Zm18.575 25.949c3.454 1.994 6.815 2.31 9.378.83 2.562-1.48 3.97-4.548 3.97-8.537h-2c0 3.568-1.245 5.809-2.97 6.805-1.726.996-4.289.954-7.378-.83l-1 1.732Zm-12.349-21.388c0 3.995 1.396 8.352 3.604 12.178 2.21 3.825 5.285 7.213 8.745 9.21l1-1.732c-3.084-1.781-5.933-4.876-8.013-8.478-2.08-3.602-3.336-7.617-3.336-11.178h-2Zm13.349-7.707c-3.455-1.994-6.816-2.309-9.379-.83-2.562 1.48-3.97 4.548-3.97 8.537h2c0-3.568 1.245-5.808 2.97-6.805 1.726-.996 4.289-.954 7.379.83l1-1.732Zm12.348 21.388c0-3.995-1.396-8.352-3.604-12.178-2.209-3.825-5.285-7.212-8.744-9.21l-1 1.732c3.084 1.781 5.932 4.876 8.012 8.478 2.08 3.602 3.336 7.617 3.336 11.178h2Zm24.188 15.962c0-2.308.803-3.664 1.814-4.248 1.011-.583 2.586-.601 4.585.554l1-1.733c-2.363-1.364-4.737-1.62-6.585-.553-1.848 1.067-2.814 3.251-2.814 5.98h2Zm7.399 12.815c-1.993-1.15-3.854-3.166-5.22-5.53-1.364-2.364-2.179-4.983-2.179-7.285h-2c0 2.736.954 5.698 2.448 8.285 1.494 2.588 3.582 4.895 5.951 6.262l1-1.732Zm67.142 38.765-67.142-38.765-1 1.732 67.142 38.765 1-1.732Zm6.399-3.695c0 2.308-.803 3.664-1.814 4.248-1.011.584-2.586.601-4.585-.553l-1 1.732c2.363 1.364 4.737 1.62 6.585.553 1.848-1.067 2.814-3.251 2.814-5.98h-2Zm-7.399-12.815c1.993 1.151 3.854 3.166 5.219 5.53 1.365 2.364 2.18 4.983 2.18 7.285h2c0-2.735-.954-5.698-2.448-8.285-1.494-2.588-3.582-4.895-5.951-6.262l-1 1.732Zm-67.142-38.764 67.142 38.764 1-1.732-67.142-38.765-1 1.733Z" fill="#fff" mask="url(#e)"/><path d="m1 337.012 197.475 114.012v114.013L1 451.024V337.012Zm197.475 114.012L395.95 337.012v114.012L198.475 565.037V451.024Z" fill="#0070CC" stroke="#fff"/><path d="M198.475 223 395.95 337.012 198.475 451.024 1 337.012 198.475 223Z" fill="#0070CC" stroke="#fff"/><mask id="f" fill="#fff"><path fill-rule="evenodd" clip-rule="evenodd" d="M40.659 421.381c0 7.556-5.305 10.619-11.849 6.841-6.543-3.778-11.848-12.966-11.848-20.522 0-7.556 5.305-10.619 11.848-6.841 6.544 3.778 11.849 12.966 11.849 20.522Zm31.923 18.242c0 7.556-5.305 10.619-11.848 6.841-6.544-3.778-11.849-12.966-11.849-20.522 0-7.556 5.305-10.619 11.849-6.841 6.543 3.778 11.848 12.966 11.848 20.522Zm32.087 9.121c-4.362-2.518-7.899-.477-7.899 4.561 0 5.037 3.537 11.163 7.899 13.681l67.142 38.764c4.362 2.519 7.899.477 7.899-4.56s-3.537-11.163-7.899-13.682l-67.142-38.764Z"/></mask><path fill-rule="evenodd" clip-rule="evenodd" d="M40.659 421.381c0 7.556-5.305 10.619-11.849 6.841-6.543-3.778-11.848-12.966-11.848-20.522 0-7.556 5.305-10.619 11.848-6.841 6.544 3.778 11.849 12.966 11.849 20.522Zm31.923 18.242c0 7.556-5.305 10.619-11.848 6.841-6.544-3.778-11.849-12.966-11.849-20.522 0-7.556 5.305-10.619 11.849-6.841 6.543 3.778 11.848 12.966 11.848 20.522Zm32.087 9.121c-4.362-2.518-7.899-.477-7.899 4.561 0 5.037 3.537 11.163 7.899 13.681l67.142 38.764c4.362 2.519 7.899.477 7.899-4.56s-3.537-11.163-7.899-13.682l-67.142-38.764Z" fill="#0070CC"/><path d="M40.659 421.381h1-1ZM16.962 407.7h1-1Zm11.848-6.841-.5.866.5-.866Zm31.924 45.605-.5.866.5-.866Zm0-27.363-.5.866.5-.866Zm43.935 29.643-.5.866.5-.866Zm0 18.242.5-.866-.5.866Zm67.142 38.764-.5.866.5-.866Zm0-18.242-.5.867.5-.867Zm-143.5-58.42c3.453 1.994 6.815 2.31 9.377.83 2.563-1.479 3.97-4.548 3.97-8.537h-2c0 3.568-1.244 5.809-2.97 6.805-1.725.996-4.288.954-7.378-.83l-1 1.732ZM15.96 407.7c0 3.995 1.396 8.352 3.605 12.178 2.209 3.825 5.285 7.213 8.744 9.21l1-1.732c-3.084-1.781-5.932-4.876-8.012-8.478-2.08-3.602-3.336-7.617-3.336-11.178h-2Zm13.35-7.707c-3.455-1.994-6.816-2.309-9.379-.83-2.563 1.48-3.97 4.549-3.97 8.537h2c0-3.568 1.244-5.808 2.97-6.805 1.726-.996 4.289-.954 7.378.83l1-1.732Zm12.348 21.388c0-3.994-1.396-8.352-3.605-12.177-2.208-3.826-5.284-7.213-8.744-9.211l-1 1.732c3.084 1.781 5.933 4.876 8.012 8.479 2.08 3.602 3.337 7.616 3.337 11.177h2Zm18.575 25.949c3.454 1.994 6.815 2.31 9.378.83 2.562-1.479 3.97-4.548 3.97-8.537h-2c0 3.568-1.245 5.809-2.97 6.805-1.726.996-4.289.954-7.378-.83l-1 1.732Zm-12.349-21.388c0 3.995 1.396 8.352 3.604 12.178 2.21 3.825 5.285 7.213 8.745 9.21l1-1.732c-3.084-1.781-5.933-4.876-8.013-8.478-2.08-3.602-3.336-7.617-3.336-11.178h-2Zm13.349-7.707c-3.455-1.994-6.816-2.309-9.379-.83-2.562 1.48-3.97 4.548-3.97 8.537h2c0-3.568 1.245-5.808 2.97-6.805 1.726-.996 4.289-.954 7.379.83l1-1.732Zm12.348 21.388c0-3.995-1.396-8.352-3.604-12.178-2.209-3.825-5.285-7.212-8.744-9.21l-1 1.732c3.084 1.781 5.932 4.876 8.012 8.478 2.08 3.603 3.336 7.617 3.336 11.178h2Zm24.188 13.682c0-2.309.803-3.664 1.814-4.248 1.011-.584 2.586-.601 4.585.553l1-1.732c-2.363-1.364-4.737-1.62-6.585-.553-1.848 1.067-2.814 3.251-2.814 5.98h2Zm7.399 12.815c-1.993-1.151-3.854-3.166-5.22-5.53-1.364-2.364-2.179-4.983-2.179-7.285h-2c0 2.735.954 5.697 2.448 8.285s3.582 4.895 5.951 6.262l1-1.732Zm67.142 38.764-67.142-38.764-1 1.732 67.142 38.764 1-1.732Zm6.399-3.694c0 2.308-.803 3.664-1.814 4.248-1.011.583-2.586.601-4.585-.554l-1 1.732c2.363 1.365 4.737 1.621 6.585.554 1.848-1.067 2.814-3.251 2.814-5.98h-2Zm-7.399-12.815c1.993 1.15 3.854 3.166 5.219 5.53 1.365 2.364 2.18 4.983 2.18 7.285h2c0-2.736-.954-5.698-2.448-8.285-1.494-2.588-3.582-4.895-5.951-6.263l-1 1.733Zm-67.142-38.765 67.142 38.765 1-1.733-67.142-38.764-1 1.732Z" fill="#fff" mask="url(#f)"/><path d="m447 447.706 197.475 114.012V675.73L447 561.718V447.706Zm197.475-114.012L841.95 447.706 644.475 561.718 447 447.706l197.475-114.012Z" fill="#0070CC" stroke="#fff"/><mask id="g" fill="#fff"><path fill-rule="evenodd" clip-rule="evenodd" d="M486.659 527.514c0 7.556-5.305 10.619-11.849 6.841-6.544-3.778-11.848-12.966-11.848-20.522 0-7.556 5.304-10.619 11.848-6.841 6.544 3.778 11.849 12.966 11.849 20.522Zm31.923 18.242c0 7.556-5.305 10.619-11.848 6.841-6.544-3.778-11.849-12.966-11.849-20.522 0-7.556 5.305-10.619 11.849-6.841 6.543 3.778 11.848 12.966 11.848 20.522Zm32.087 11.402c-4.362-2.519-7.899-.477-7.899 4.56s3.537 11.163 7.899 13.681l67.142 38.765c4.362 2.518 7.899.476 7.899-4.561s-3.537-11.163-7.899-13.681l-67.142-38.764Z"/></mask><path fill-rule="evenodd" clip-rule="evenodd" d="M486.659 527.514c0 7.556-5.305 10.619-11.849 6.841-6.544-3.778-11.848-12.966-11.848-20.522 0-7.556 5.304-10.619 11.848-6.841 6.544 3.778 11.849 12.966 11.849 20.522Zm31.923 18.242c0 7.556-5.305 10.619-11.848 6.841-6.544-3.778-11.849-12.966-11.849-20.522 0-7.556 5.305-10.619 11.849-6.841 6.543 3.778 11.848 12.966 11.848 20.522Zm32.087 11.402c-4.362-2.519-7.899-.477-7.899 4.56s3.537 11.163 7.899 13.681l67.142 38.765c4.362 2.518 7.899.476 7.899-4.561s-3.537-11.163-7.899-13.681l-67.142-38.764Z" fill="#0070CC"/><path d="m474.81 534.355.5-.866-.5.866Zm11.849-6.841h1-1Zm-23.697-13.681h1-1Zm11.848-6.841-.5.866.5-.866Zm31.924 45.605.5-.866-.5.866Zm0-27.363-.5.866.5-.866Zm43.935 31.924-.5.866.5-.866Zm0 18.241-.5.866.5-.866Zm67.142 38.765.5-.866-.5.866Zm0-18.242.5-.866-.5.866ZM474.31 535.221c3.454 1.994 6.816 2.31 9.378.83 2.563-1.48 3.971-4.548 3.971-8.537h-2c0 3.568-1.245 5.809-2.971 6.805-1.725.996-4.288.954-7.378-.83l-1 1.732Zm-12.348-21.388c0 3.995 1.395 8.352 3.604 12.178 2.209 3.825 5.285 7.213 8.744 9.21l1-1.732c-3.084-1.781-5.932-4.876-8.012-8.478-2.08-3.602-3.336-7.617-3.336-11.178h-2Zm13.348-7.707c-3.454-1.994-6.815-2.309-9.378-.83-2.563 1.48-3.97 4.548-3.97 8.537h2c0-3.568 1.244-5.808 2.97-6.805 1.726-.996 4.289-.954 7.378.83l1-1.732Zm12.349 21.388c0-3.995-1.396-8.352-3.605-12.178-2.208-3.825-5.284-7.212-8.744-9.21l-1 1.732c3.084 1.781 5.933 4.876 8.012 8.478 2.08 3.603 3.337 7.617 3.337 11.178h2Zm18.575 25.949c3.454 1.994 6.815 2.31 9.378.83 2.562-1.48 3.97-4.548 3.97-8.537h-2c0 3.568-1.245 5.809-2.97 6.805-1.726.996-4.289.954-7.378-.83l-1 1.732Zm-12.349-21.388c0 3.995 1.396 8.352 3.604 12.178 2.209 3.825 5.285 7.213 8.745 9.21l1-1.732c-3.084-1.781-5.933-4.876-8.012-8.478-2.08-3.602-3.337-7.617-3.337-11.178h-2Zm13.349-7.707c-3.454-1.994-6.816-2.309-9.379-.83-2.562 1.48-3.97 4.548-3.97 8.537h2c0-3.568 1.245-5.808 2.97-6.805 1.726-.996 4.289-.954 7.379.83l1-1.732Zm12.348 21.388c0-3.995-1.396-8.352-3.604-12.178-2.209-3.825-5.285-7.212-8.744-9.21l-1 1.732c3.084 1.781 5.932 4.876 8.012 8.478 2.079 3.602 3.336 7.617 3.336 11.178h2Zm24.188 15.962c0-2.308.803-3.664 1.814-4.248 1.011-.583 2.586-.601 4.585.554l1-1.733c-2.363-1.364-4.737-1.62-6.585-.553-1.848 1.067-2.814 3.251-2.814 5.98h2Zm7.399 12.815c-1.993-1.15-3.854-3.166-5.219-5.53-1.365-2.364-2.18-4.983-2.18-7.285h-2c0 2.736.954 5.698 2.448 8.285 1.494 2.588 3.582 4.895 5.951 6.262l1-1.732Zm67.142 38.765-67.142-38.765-1 1.732 67.142 38.765 1-1.732Zm6.399-3.695c0 2.308-.803 3.664-1.814 4.248-1.011.584-2.586.601-4.585-.553l-1 1.732c2.363 1.364 4.737 1.62 6.585.553 1.848-1.067 2.814-3.251 2.814-5.98h-2Zm-7.399-12.815c1.993 1.151 3.854 3.166 5.219 5.53 1.365 2.364 2.18 4.983 2.18 7.285h2c0-2.735-.954-5.698-2.448-8.285-1.494-2.588-3.582-4.895-5.951-6.262l-1 1.732Zm-67.142-38.764 67.142 38.764 1-1.732-67.142-38.765-1 1.733Z" fill="#fff" mask="url(#g)"/><path d="m447 320.012 197.475 114.012v114.013L447 434.024V320.012Z" fill="#0070CC" stroke="#fff"/><path d="M644.475 206 841.95 320.012 644.475 434.024 447 320.012 644.475 206Z" fill="#0070CC" stroke="#fff"/><mask id="h" fill="#fff"><path fill-rule="evenodd" clip-rule="evenodd" d="M486.659 404.381c0 7.556-5.305 10.619-11.849 6.841-6.544-3.778-11.848-12.966-11.848-20.522 0-7.556 5.304-10.619 11.848-6.841 6.544 3.778 11.849 12.966 11.849 20.522Zm31.923 18.242c0 7.556-5.305 10.619-11.848 6.841-6.544-3.778-11.849-12.966-11.849-20.522 0-7.556 5.305-10.619 11.849-6.841 6.543 3.778 11.848 12.966 11.848 20.522Zm32.087 9.121c-4.362-2.518-7.899-.477-7.899 4.561 0 5.037 3.537 11.163 7.899 13.681l67.142 38.764c4.362 2.519 7.899.477 7.899-4.56s-3.537-11.163-7.899-13.682l-67.142-38.764Z"/></mask><path fill-rule="evenodd" clip-rule="evenodd" d="M486.659 404.381c0 7.556-5.305 10.619-11.849 6.841-6.544-3.778-11.848-12.966-11.848-20.522 0-7.556 5.304-10.619 11.848-6.841 6.544 3.778 11.849 12.966 11.849 20.522Zm31.923 18.242c0 7.556-5.305 10.619-11.848 6.841-6.544-3.778-11.849-12.966-11.849-20.522 0-7.556 5.305-10.619 11.849-6.841 6.543 3.778 11.848 12.966 11.848 20.522Zm32.087 9.121c-4.362-2.518-7.899-.477-7.899 4.561 0 5.037 3.537 11.163 7.899 13.681l67.142 38.764c4.362 2.519 7.899.477 7.899-4.56s-3.537-11.163-7.899-13.682l-67.142-38.764Z" fill="#0070CC"/><path d="M486.659 404.381h1-1ZM462.962 390.7h1-1Zm11.848-6.841-.5.866.5-.866Zm31.924 45.605-.5.866.5-.866Zm0-27.363-.5.866.5-.866Zm43.935 29.643-.5.866.5-.866Zm0 18.242.5-.866-.5.866Zm67.142 38.764-.5.866.5-.866Zm0-18.242-.5.867.5-.867Zm-143.501-58.42c3.454 1.994 6.816 2.31 9.378.83 2.563-1.479 3.971-4.548 3.971-8.537h-2c0 3.568-1.245 5.809-2.971 6.805-1.725.996-4.288.954-7.378-.83l-1 1.732ZM461.962 390.7c0 3.995 1.395 8.352 3.604 12.178 2.209 3.825 5.285 7.213 8.744 9.21l1-1.732c-3.084-1.781-5.932-4.876-8.012-8.478-2.08-3.602-3.336-7.617-3.336-11.178h-2Zm13.348-7.707c-3.454-1.994-6.815-2.309-9.378-.83-2.563 1.48-3.97 4.549-3.97 8.537h2c0-3.568 1.244-5.808 2.97-6.805 1.726-.996 4.289-.954 7.378.83l1-1.732Zm12.349 21.388c0-3.994-1.396-8.352-3.605-12.177-2.208-3.826-5.284-7.213-8.744-9.211l-1 1.732c3.084 1.781 5.933 4.876 8.012 8.479 2.08 3.602 3.337 7.616 3.337 11.177h2Zm18.575 25.949c3.454 1.994 6.815 2.31 9.378.83 2.562-1.479 3.97-4.548 3.97-8.537h-2c0 3.568-1.245 5.809-2.97 6.805-1.726.996-4.289.954-7.378-.83l-1 1.732Zm-12.349-21.388c0 3.995 1.396 8.352 3.604 12.178 2.209 3.825 5.285 7.213 8.745 9.21l1-1.732c-3.084-1.781-5.933-4.876-8.012-8.478-2.08-3.602-3.337-7.617-3.337-11.178h-2Zm13.349-7.707c-3.454-1.994-6.816-2.309-9.379-.83-2.562 1.48-3.97 4.548-3.97 8.537h2c0-3.568 1.245-5.808 2.97-6.805 1.726-.996 4.289-.954 7.379.83l1-1.732Zm12.348 21.388c0-3.995-1.396-8.352-3.604-12.178-2.209-3.825-5.285-7.212-8.744-9.21l-1 1.732c3.084 1.781 5.932 4.876 8.012 8.478 2.079 3.603 3.336 7.617 3.336 11.178h2Zm24.188 13.682c0-2.309.803-3.664 1.814-4.248 1.011-.584 2.586-.601 4.585.553l1-1.732c-2.363-1.364-4.737-1.62-6.585-.553-1.848 1.067-2.814 3.251-2.814 5.98h2Zm7.399 12.815c-1.993-1.151-3.854-3.166-5.219-5.53-1.365-2.364-2.18-4.983-2.18-7.285h-2c0 2.735.954 5.697 2.448 8.285s3.582 4.895 5.951 6.262l1-1.732Zm67.142 38.764-67.142-38.764-1 1.732 67.142 38.764 1-1.732Zm6.399-3.694c0 2.308-.803 3.664-1.814 4.248-1.011.583-2.586.601-4.585-.554l-1 1.732c2.363 1.365 4.737 1.621 6.585.554 1.848-1.067 2.814-3.251 2.814-5.98h-2Zm-7.399-12.815c1.993 1.15 3.854 3.166 5.219 5.53 1.365 2.364 2.18 4.983 2.18 7.285h2c0-2.736-.954-5.698-2.448-8.285-1.494-2.588-3.582-4.895-5.951-6.263l-1 1.733Zm-67.142-38.765 67.142 38.765 1-1.733-67.142-38.764-1 1.732Z" fill="#fff" mask="url(#h)"/></svg>