<svg width="329" height="499" fill="none" xmlns="http://www.w3.org/2000/svg"><path d="M25.207 8.656A8.656 8.656 0 0 1 33.862 0H317.63a8.656 8.656 0 0 1 8.656 8.656v129.457a8.655 8.655 0 0 1-8.656 8.656H33.862a8.656 8.656 0 0 1-8.655-8.656V8.656Z" fill="#fff"/><path fill-rule="evenodd" clip-rule="evenodd" d="M317.63 1.731H33.862a6.925 6.925 0 0 0-6.924 6.925v129.457c0 3.824 3.1 6.925 6.924 6.925H317.63a6.925 6.925 0 0 0 6.925-6.925V8.656c0-3.825-3.1-6.925-6.925-6.925ZM33.862 0a8.656 8.656 0 0 0-8.655 8.656v129.457a8.656 8.656 0 0 0 8.655 8.656H317.63a8.655 8.655 0 0 0 8.656-8.656V8.656A8.656 8.656 0 0 0 317.63 0H33.862Z" fill="#000"/><path d="M14.265 21.298a8.656 8.656 0 0 1 8.656-8.656H305.5a8.656 8.656 0 0 1 8.656 8.656v137.324a8.656 8.656 0 0 1-8.656 8.656H22.921a8.656 8.656 0 0 1-8.656-8.656V21.298Z" fill="#2D2D2D"/><path d="M33.595 45.233h1.648v-1.371l1.08-.305v1.676h3.698v.928h-3.698v3.268c0 .674.162 1.173.485 1.496.332.323.803.485 1.412.485.416 0 .776-.079 1.08-.236.315-.157.596-.328.845-.512l.36.817a3.88 3.88 0 0 1-1.163.623c-.443.157-.9.235-1.37.235-.37 0-.721-.055-1.053-.166a2.328 2.328 0 0 1-.86-.484 2.37 2.37 0 0 1-.595-.845c-.147-.351-.221-.767-.221-1.247v-3.434h-1.648v-.928Zm11.898 3.379-2.673-3.38h1.385l1.994 2.605 2.05-2.604h1.246l-2.673 3.324 2.84 3.6h-1.33l-2.202-2.839-2.244 2.84h-1.26l2.867-3.546Zm8.547 2.784c0-.296.082-.522.248-.679.167-.166.388-.25.665-.25.296 0 .526.084.693.25.166.157.249.383.249.679a.924.924 0 0 1-.25.664c-.166.176-.396.264-.692.264-.277 0-.498-.088-.665-.264a.928.928 0 0 1-.249-.664Zm11.662-1.108a.77.77 0 0 0-.347-.679 2.632 2.632 0 0 0-.858-.388 13.303 13.303 0 0 0-1.122-.277 6.478 6.478 0 0 1-1.108-.332 2.552 2.552 0 0 1-.859-.554c-.23-.24-.346-.572-.346-.997 0-.35.074-.651.222-.9.157-.25.36-.453.61-.61.248-.166.54-.286.872-.36a4.267 4.267 0 0 1 1.038-.124c.647 0 1.2.083 1.662.249.471.157.845.323 1.122.498l-.443.873a10.068 10.068 0 0 0-.997-.47c-.351-.158-.794-.236-1.33-.236-.203 0-.406.023-.61.069a2.068 2.068 0 0 0-.54.18 1.128 1.128 0 0 0-.387.332.813.813 0 0 0-.139.485c0 .24.116.425.347.554.23.13.517.24.858.332.342.084.711.167 1.108.25.406.074.78.184 1.122.332.342.148.628.346.859.596.23.249.346.586.346 1.01 0 .638-.254 1.164-.762 1.58-.498.415-1.25.623-2.257.623-.305 0-.605-.028-.9-.084a5.462 5.462 0 0 1-1.538-.526 3.24 3.24 0 0 1-.526-.36l.554-.9c.11.11.258.226.443.346.185.111.388.213.61.305.221.092.457.166.706.222.258.055.517.083.775.083.25 0 .48-.019.693-.056a2.39 2.39 0 0 0 .582-.194 1.08 1.08 0 0 0 .387-.346.906.906 0 0 0 .153-.526Zm3.186-5.055h1.648v-1.371l1.08-.305v1.676h3.698v.928h-3.697v3.268c0 .674.161 1.173.484 1.496.333.323.804.485 1.413.485.416 0 .776-.079 1.08-.236.314-.157.596-.328.845-.512l.36.817a3.88 3.88 0 0 1-1.163.623c-.443.157-.9.235-1.371.235-.37 0-.72-.055-1.053-.166a2.328 2.328 0 0 1-.858-.484 2.367 2.367 0 0 1-.596-.845c-.148-.351-.221-.767-.221-1.247v-3.434h-1.649v-.928Zm9.89.54c.397-.23.845-.397 1.344-.499a7.34 7.34 0 0 1 1.468-.152c.47 0 .854.074 1.15.222.304.147.54.341.705.581.176.231.291.499.347.803.064.296.097.596.097.9 0 .352-.01.725-.028 1.123a51.49 51.49 0 0 0-.042 1.19c0 .462.028.9.083 1.316h.928v.9h-1.842l-.124-1.038h-.07a3.4 3.4 0 0 1-.249.318 2.37 2.37 0 0 1-.443.388 2.72 2.72 0 0 1-1.565.457c-.683 0-1.223-.175-1.62-.526-.397-.351-.596-.831-.596-1.44 0-.471.102-.864.305-1.178a2.01 2.01 0 0 1 .9-.72c.388-.166.854-.263 1.399-.29a9.486 9.486 0 0 1 1.856.11 4.51 4.51 0 0 0 .013-1.052c-.027-.287-.101-.513-.221-.679a.861.861 0 0 0-.485-.346 2.252 2.252 0 0 0-.761-.111c-.416 0-.813.06-1.192.18-.378.11-.715.226-1.01.346l-.347-.803Zm2.036 5.581c.259 0 .499-.041.72-.124a2.197 2.197 0 0 0 .997-.734c.111-.157.194-.305.25-.444v-.97a7.834 7.834 0 0 0-1.33-.124 3.52 3.52 0 0 0-1.052.139c-.296.083-.527.217-.693.401-.166.185-.25.425-.25.72 0 .305.102.573.305.804.213.221.564.332 1.053.332Zm6.206.803v-.927h1.87v-5.07h-1.87v-.927h2.59l.221.9h.07c.314-.286.664-.53 1.052-.734.388-.203.85-.305 1.385-.305.314 0 .563.06.748.18.194.12.341.296.443.527.11.23.185.512.222.844.037.324.055.693.055 1.108l-.97.014c0-.59-.06-1.025-.18-1.302-.11-.277-.318-.415-.623-.415-.286 0-.544.042-.775.125a2.693 2.693 0 0 0-.61.304c-.166.12-.309.24-.429.36s-.208.222-.263.305v4.086h2.659v.927H87.02Zm8.339-6.924h1.648v-1.371l1.08-.305v1.676h3.698v.928h-3.698v3.268c0 .674.162 1.173.485 1.496.332.323.803.485 1.412.485.416 0 .776-.079 1.081-.236.313-.157.595-.328.844-.512l.36.817a3.88 3.88 0 0 1-1.163.623c-.443.157-.9.235-1.371.235-.37 0-.72-.055-1.052-.166a2.328 2.328 0 0 1-.86-.484 2.367 2.367 0 0 1-.595-.845c-.147-.351-.221-.767-.221-1.247v-3.434h-1.648v-.928Zm14.377 9.86a6.834 6.834 0 0 1-1.745-.706 5 5 0 0 1-1.413-1.205c-.397-.498-.716-1.108-.956-1.828-.23-.72-.346-1.574-.346-2.562 0-.979.12-1.833.36-2.562.24-.739.563-1.362.97-1.87a4.828 4.828 0 0 1 1.412-1.232 5.916 5.916 0 0 1 1.718-.665l.346.873a6.804 6.804 0 0 0-1.496.623 3.84 3.84 0 0 0-1.177 1.01c-.323.416-.577.938-.762 1.566-.175.618-.263 1.37-.263 2.257 0 .896.106 1.662.319 2.299.221.628.507 1.15.858 1.565.36.425.757.752 1.191.983.443.24.887.406 1.33.499l-.346.955Zm4.821-.955a4.69 4.69 0 0 0 1.315-.499c.443-.23.84-.558 1.191-.983.36-.416.647-.937.859-1.565.222-.637.332-1.403.332-2.299 0-.886-.092-1.639-.277-2.257-.175-.628-.429-1.15-.761-1.565a3.692 3.692 0 0 0-1.164-1.011 6.796 6.796 0 0 0-1.495-.623l.346-.873c.6.13 1.168.35 1.703.665a4.77 4.77 0 0 1 1.427 1.232c.406.508.729 1.131.969 1.87.24.73.36 1.583.36 2.562 0 .988-.12 1.842-.36 2.562-.231.72-.549 1.33-.955 1.828-.397.499-.868.9-1.413 1.205a6.64 6.64 0 0 1-1.731.706l-.346-.955Zm10.014-2.742c0-.277.088-.499.263-.665a.984.984 0 0 1 .706-.263c.351 0 .624.124.818.374.193.24.29.581.29 1.025a2.285 2.285 0 0 1-.637 1.634 2.08 2.08 0 0 1-.581.457c-.203.12-.393.208-.568.263l-.346-.54a2.47 2.47 0 0 0 .858-.554c.24-.24.36-.531.36-.873-.129.028-.23.042-.304.042-.268 0-.48-.074-.637-.222-.148-.157-.222-.383-.222-.678Zm.125-5.443c0-.296.083-.522.249-.679.166-.166.388-.249.665-.249.295 0 .526.083.692.25.166.156.249.383.249.678 0 .268-.083.49-.249.665-.166.175-.397.263-.692.263-.277 0-.499-.088-.665-.263a.929.929 0 0 1-.249-.665Zm-90.201 25.64c0-.083-.005-.19-.014-.318a6.267 6.267 0 0 0-.055-.845 3.26 3.26 0 0 0-.042-.36h-.928v-.9h1.842l.139.969h.069c.25-.323.563-.59.942-.803.388-.222.858-.333 1.412-.333.988 0 1.732.273 2.23.817.499.545.748 1.436.748 2.673 0 .582-.088 1.108-.263 1.58a3.238 3.238 0 0 1-.72 1.176 3.205 3.205 0 0 1-1.136.748 3.956 3.956 0 0 1-1.468.263c-.194 0-.37-.009-.526-.027a2.832 2.832 0 0 1-.416-.056 2.54 2.54 0 0 1-.36-.083 5.067 5.067 0 0 1-.388-.138v2.908h-1.066v-7.27Zm3.185-1.579c-.277 0-.54.051-.79.153-.24.101-.456.235-.65.401a2.347 2.347 0 0 0-.457.554 1.63 1.63 0 0 0-.222.61v3.157c.203.139.43.25.679.333.258.074.596.11 1.011.11.739 0 1.33-.24 1.773-.72.443-.489.664-1.2.664-2.132 0-.785-.157-1.39-.47-1.815-.305-.434-.818-.65-1.538-.65Zm9.336-.844h1.967v4.722c0 .453.027.886.083 1.302h.928v.9h-1.842l-.042-1.177h-.055c-.24.397-.559.72-.956.97-.397.249-.877.373-1.44.373-.425 0-.79-.05-1.094-.152a1.497 1.497 0 0 1-.734-.499c-.194-.24-.337-.558-.43-.955-.092-.406-.138-.91-.138-1.51v-3.047h-.928v-.927h2.008v3.753c0 .378.014.72.042 1.025.037.295.106.549.208.761.101.203.249.36.443.471.203.102.47.152.803.152.48 0 .895-.156 1.246-.47.36-.314.633-.707.818-1.178v-3.587h-.887v-.927Zm4.226 0h1.648v-1.371l1.08-.305v1.676h3.698v.927H53.97v3.269c0 .674.162 1.172.485 1.496.332.323.803.484 1.412.484.416 0 .776-.078 1.08-.235.314-.157.596-.328.845-.513l.36.818a3.881 3.881 0 0 1-1.163.623c-.443.157-.9.235-1.371.235-.37 0-.72-.055-1.053-.166a2.328 2.328 0 0 1-.858-.485 2.367 2.367 0 0 1-.596-.845c-.147-.35-.221-.766-.221-1.246v-3.434h-1.648v-.928Zm23.2 9.86a6.854 6.854 0 0 1-1.745-.706 5.008 5.008 0 0 1-1.413-1.205c-.397-.499-.715-1.108-.955-1.828-.231-.72-.346-1.574-.346-2.562 0-.979.12-1.833.36-2.562.24-.739.563-1.362.97-1.87a4.827 4.827 0 0 1 1.412-1.233 5.914 5.914 0 0 1 1.717-.664l.346.872a6.79 6.79 0 0 0-1.495.623 3.86 3.86 0 0 0-1.178 1.011c-.323.416-.577.938-.761 1.565-.176.619-.263 1.371-.263 2.258 0 .895.106 1.662.318 2.299.222.628.508 1.15.859 1.565.36.424.757.752 1.19.983.444.24.887.406 1.33.499l-.346.955Zm4.336-9.32a4.4 4.4 0 0 1 1.344-.499 7.347 7.347 0 0 1 1.468-.152c.47 0 .854.074 1.15.221.304.148.54.342.705.582.176.23.291.499.347.803.064.296.097.596.097.9 0 .351-.01.725-.028 1.122a51.49 51.49 0 0 0-.042 1.191c0 .462.028.9.083 1.316h.928v.9h-1.842l-.124-1.038h-.07a3.4 3.4 0 0 1-.249.318c-.11.13-.258.258-.443.388a2.72 2.72 0 0 1-1.565.457c-.683 0-1.223-.176-1.62-.526-.397-.351-.596-.831-.596-1.44 0-.472.102-.864.305-1.178a2.01 2.01 0 0 1 .9-.72c.388-.166.854-.263 1.399-.29a9.487 9.487 0 0 1 1.856.11c.046-.425.05-.776.013-1.053-.027-.286-.101-.512-.221-.678a.86.86 0 0 0-.485-.347 2.25 2.25 0 0 0-.761-.11c-.416 0-.813.06-1.192.18-.378.11-.715.226-1.01.346l-.347-.803Zm2.036 5.58c.259 0 .499-.04.72-.124a2.195 2.195 0 0 0 .997-.734c.111-.157.194-.304.25-.443v-.97a7.837 7.837 0 0 0-1.33-.124 3.52 3.52 0 0 0-1.052.139c-.296.083-.527.216-.693.401-.166.185-.25.425-.25.72 0 .305.102.573.305.803.213.222.564.333 1.053.333Zm11.372-5.054a4.73 4.73 0 0 0-.693-.18 3.194 3.194 0 0 0-.72-.083c-.905 0-1.579.212-2.022.637-.443.425-.665 1.099-.665 2.022 0 .406.065.77.194 1.094.13.314.314.582.554.803.24.222.526.393.859.513.341.12.715.18 1.122.18a3.66 3.66 0 0 0 1.26-.222 3.206 3.206 0 0 0 1.039-.582l.484.804c-.129.11-.29.226-.484.346a5.15 5.15 0 0 1-.679.346 4.81 4.81 0 0 1-.845.25 4.81 4.81 0 0 1-.997.096c-.6 0-1.13-.083-1.593-.249a3.138 3.138 0 0 1-1.135-.734 3.22 3.22 0 0 1-.693-1.15 4.54 4.54 0 0 1-.235-1.495c0-.582.078-1.099.235-1.551.166-.453.402-.831.707-1.136a2.972 2.972 0 0 1 1.108-.692 4.04 4.04 0 0 1 1.454-.25c.683 0 1.237.06 1.662.18.434.12.798.254 1.094.402l-.014.042v1.925h-.997v-1.316Zm8.823 0a4.72 4.72 0 0 0-.692-.18 3.196 3.196 0 0 0-.72-.083c-.905 0-1.58.212-2.022.637-.444.425-.665 1.099-.665 2.022 0 .406.064.77.194 1.094.129.314.314.582.554.803.24.222.526.393.858.513.342.12.716.18 1.122.18a3.65 3.65 0 0 0 1.26-.222 3.203 3.203 0 0 0 1.039-.582l.485.804a3.97 3.97 0 0 1-.485.346 5.15 5.15 0 0 1-.679.346 4.79 4.79 0 0 1-.844.25 4.815 4.815 0 0 1-.998.096c-.6 0-1.13-.083-1.592-.249a3.138 3.138 0 0 1-1.136-.734 3.219 3.219 0 0 1-.692-1.15 4.537 4.537 0 0 1-.236-1.495c0-.582.079-1.099.236-1.551.166-.453.401-.831.706-1.136a2.972 2.972 0 0 1 1.108-.692c.434-.166.919-.25 1.454-.25.683 0 1.237.06 1.662.18.434.12.799.254 1.094.402l-.014.042v1.925h-.997v-1.316Zm3.533 2.396c0-1.117.291-1.999.873-2.645.581-.656 1.412-.984 2.493-.984.581 0 1.08.097 1.495.291.425.185.776.439 1.053.762.277.323.48.706.609 1.15.139.443.208.918.208 1.426 0 .554-.074 1.057-.222 1.51a3.109 3.109 0 0 1-.651 1.135 2.93 2.93 0 0 1-1.066.734c-.415.166-.891.25-1.426.25-.573 0-1.071-.093-1.496-.278a3.006 3.006 0 0 1-1.053-.775 3.223 3.223 0 0 1-.623-1.15 5.082 5.082 0 0 1-.194-1.426Zm1.15 0c0 .323.037.646.11.97.084.322.213.613.388.872.176.258.402.466.679.623.286.157.632.236 1.039.236.738 0 1.292-.227 1.661-.68.379-.46.568-1.135.568-2.021 0-.333-.041-.656-.124-.97a2.422 2.422 0 0 0-.388-.872 1.962 1.962 0 0 0-.693-.623c-.277-.157-.618-.236-1.024-.236-.739 0-1.293.227-1.662.679-.37.452-.554 1.126-.554 2.022Zm11.911-3.462h1.967v4.722c0 .453.028.886.083 1.302h.928v.9h-1.842l-.041-1.177h-.056c-.24.397-.558.72-.955.97-.397.249-.878.373-1.441.373-.425 0-.789-.05-1.094-.152a1.5 1.5 0 0 1-.734-.499c-.194-.24-.337-.558-.429-.955-.093-.406-.139-.91-.139-1.51v-3.047h-.928v-.927h2.009v3.753c0 .378.013.72.041 1.025.037.295.106.549.208.761.101.203.249.36.443.471.203.102.471.152.803.152.48 0 .896-.156 1.247-.47a2.98 2.98 0 0 0 .817-1.178v-3.587h-.887v-.927Zm5.085 2.423c0-.083-.005-.19-.014-.318a6.407 6.407 0 0 0-.056-.845 3.322 3.322 0 0 0-.041-.36h-.928v-.9h1.856l.124 1.121h.07c.092-.157.212-.309.36-.457.157-.157.337-.295.54-.415.203-.13.429-.23.678-.305.25-.074.513-.11.79-.11.424 0 .798.046 1.122.138.332.092.604.258.817.499.221.23.387.549.498.955.111.397.166.905.166 1.523v3.975h-1.08v-3.767c0-.766-.124-1.343-.374-1.73-.249-.389-.701-.583-1.357-.583-.24 0-.475.051-.706.153a2.307 2.307 0 0 0-.61.374 2.55 2.55 0 0 0-.484.554c-.139.203-.24.42-.305.65v4.35h-1.066v-4.502Zm7.964-2.423h1.648v-1.371l1.081-.305v1.676h3.697v.927h-3.697v3.269c0 .674.161 1.172.484 1.496.333.323.804.484 1.413.484.415 0 .775-.078 1.08-.235.314-.157.596-.328.845-.513l.36.818a3.882 3.882 0 0 1-1.163.623c-.443.157-.9.235-1.371.235-.37 0-.721-.055-1.053-.166a2.336 2.336 0 0 1-.859-.485 2.373 2.373 0 0 1-.595-.845c-.148-.35-.222-.766-.222-1.246v-3.434h-1.648v-.928Zm10.153 5.927h2.175v-7.285l-2.216 1.552-.54-.79 3.046-2.174h.776v8.697h2.133v.997h-5.374v-.997Zm10.236.235c0-.276.088-.498.263-.664a.987.987 0 0 1 .707-.263c.351 0 .623.124.817.373.194.24.291.582.291 1.025a2.286 2.286 0 0 1-.637 1.635c-.176.193-.37.346-.582.456-.203.12-.392.208-.568.264l-.346-.54c.332-.13.618-.314.859-.554.24-.24.36-.531.36-.873a1.56 1.56 0 0 1-.305.042c-.268 0-.48-.074-.637-.222-.148-.157-.222-.383-.222-.678Zm14.503-8.932h2.216v3.559h.069c.241-.305.55-.54.928-.706a3.04 3.04 0 0 1 1.233-.25c2.031 0 3.047 1.173 3.047 3.518 0 1.191-.328 2.105-.984 2.742-.655.628-1.588.942-2.797.942a6.65 6.65 0 0 1-1.551-.166c-.462-.111-.799-.24-1.011-.388v-8.323h-1.15V66.4Zm4.307 3.531c-.554 0-1.001.157-1.343.471-.342.314-.591.757-.748 1.33v3.185c.213.11.466.198.762.263.295.065.605.097.928.097.369 0 .701-.05.997-.152a2 2 0 0 0 .775-.499c.213-.23.374-.522.485-.872.12-.351.18-.767.18-1.247 0-.35-.037-.683-.111-.997a2.244 2.244 0 0 0-.36-.817 1.567 1.567 0 0 0-.623-.554c-.258-.138-.572-.208-.942-.208Zm5.985-.221a4.41 4.41 0 0 1 1.343-.499 7.351 7.351 0 0 1 1.468-.152c.471 0 .854.074 1.15.221.304.148.54.342.706.582.175.23.291.499.346.803.065.296.097.596.097.9 0 .351-.009.725-.028 1.122-.018.397-.032.794-.041 1.191 0 .462.028.9.083 1.316h.928v.9h-1.842l-.125-1.038h-.069a3.4 3.4 0 0 1-.249.318 2.4 2.4 0 0 1-.443.388 2.725 2.725 0 0 1-1.565.457c-.684 0-1.224-.176-1.621-.526-.397-.351-.595-.831-.595-1.44 0-.472.101-.864.304-1.178.213-.314.513-.554.901-.72.387-.166.854-.263 1.398-.29a9.488 9.488 0 0 1 1.856.11c.046-.425.051-.776.014-1.053-.028-.286-.102-.512-.222-.678a.857.857 0 0 0-.484-.347 2.25 2.25 0 0 0-.762-.11c-.415 0-.812.06-1.191.18-.379.11-.716.226-1.011.346l-.346-.803Zm2.036 5.58c.258 0 .498-.04.72-.124a2.197 2.197 0 0 0 .997-.734c.111-.157.194-.304.249-.443v-.97a7.83 7.83 0 0 0-1.329-.124 3.55 3.55 0 0 0-1.053.139c-.295.083-.526.216-.692.401-.167.185-.25.425-.25.72 0 .305.102.573.305.803.212.222.563.333 1.053.333Zm6.94-8.89h2.298v7.367c0 .564.093.96.277 1.192.194.23.476.346.845.346.259 0 .503-.046.734-.139.24-.092.503-.249.79-.47l.498.761a3.01 3.01 0 0 1-.484.346c-.176.102-.356.19-.541.264a4.084 4.084 0 0 1-.554.152 2.796 2.796 0 0 1-1.426-.083 1.558 1.558 0 0 1-.679-.416 1.927 1.927 0 0 1-.401-.761c-.093-.324-.139-.72-.139-1.192v-6.44h-1.218V66.4Zm8.671 3.31a4.4 4.4 0 0 1 1.343-.499 7.351 7.351 0 0 1 1.468-.152c.471 0 .854.074 1.149.221.305.148.541.342.707.582.175.23.291.499.346.803.065.296.097.596.097.9 0 .351-.009.725-.028 1.122-.018.397-.032.794-.041 1.191 0 .462.027.9.083 1.316h.928v.9h-1.842l-.125-1.038h-.069a3.78 3.78 0 0 1-.249.318c-.111.13-.259.258-.444.388a2.717 2.717 0 0 1-1.565.457c-.683 0-1.223-.176-1.62-.526-.397-.351-.595-.831-.595-1.44 0-.472.101-.864.304-1.178.213-.314.513-.554.9-.72.388-.166.854-.263 1.399-.29a9.488 9.488 0 0 1 1.856.11c.046-.425.051-.776.014-1.053-.028-.286-.102-.512-.222-.678a.86.86 0 0 0-.484-.347 2.258 2.258 0 0 0-.762-.11c-.416 0-.813.06-1.191.18-.379.11-.716.226-1.011.346l-.346-.803Zm2.035 5.58c.259 0 .499-.04.721-.124a2.197 2.197 0 0 0 .997-.734c.11-.157.194-.304.249-.443v-.97a7.833 7.833 0 0 0-1.33-.124 3.52 3.52 0 0 0-1.052.139c-.296.083-.526.216-.693.401-.166.185-.249.425-.249.72 0 .305.102.573.305.803.212.222.563.333 1.052.333Zm6.58-3.697c0-.083-.004-.19-.014-.318a6.405 6.405 0 0 0-.055-.845 3.07 3.07 0 0 0-.042-.36h-.927v-.9h1.855l.125 1.121h.069c.093-.157.213-.309.36-.457.157-.157.337-.295.54-.415a2.76 2.76 0 0 1 1.468-.415c.425 0 .799.046 1.122.138.333.092.605.258.817.499.222.23.388.549.499.955.111.397.166.905.166 1.523v3.975h-1.08v-3.767c0-.766-.125-1.343-.374-1.73-.249-.389-.702-.583-1.357-.583-.24 0-.476.051-.707.153a2.318 2.318 0 0 0-.609.374 2.554 2.554 0 0 0-.485.554c-.138.203-.24.42-.304.65v4.35h-1.067v-4.502Zm13.615-1.357a4.72 4.72 0 0 0-.692-.18 3.192 3.192 0 0 0-.72-.083c-.905 0-1.579.212-2.022.637-.443.425-.665 1.099-.665 2.022 0 .406.065.77.194 1.094.129.314.314.582.554.803.24.222.526.393.859.513.341.12.715.18 1.121.18a3.66 3.66 0 0 0 1.261-.222 3.208 3.208 0 0 0 1.038-.582l.485.804a3.98 3.98 0 0 1-.485.346c-.194.12-.42.235-.678.346-.25.102-.531.185-.845.25a4.81 4.81 0 0 1-.997.096c-.6 0-1.131-.083-1.593-.249a3.132 3.132 0 0 1-1.135-.734 3.217 3.217 0 0 1-.693-1.15 4.537 4.537 0 0 1-.235-1.495c0-.582.078-1.099.235-1.551.166-.453.402-.831.706-1.136a2.974 2.974 0 0 1 1.108-.692 4.04 4.04 0 0 1 1.454-.25c.684 0 1.238.06 1.662.18.434.12.799.254 1.094.402l-.013.042v1.925h-.998v-1.316Zm10.07 4.986a3.355 3.355 0 0 1-.595.415c-.222.13-.466.24-.734.332-.268.093-.55.162-.845.208a4.58 4.58 0 0 1-.873.083c-.553 0-1.043-.083-1.468-.249a2.94 2.94 0 0 1-1.066-.734 3.278 3.278 0 0 1-.651-1.15 4.708 4.708 0 0 1-.221-1.495c0-.582.078-1.099.235-1.551.166-.453.402-.831.706-1.136a2.974 2.974 0 0 1 1.108-.692 4.04 4.04 0 0 1 1.454-.25c.388 0 .771.051 1.15.153.378.101.711.295.997.581.295.277.522.665.679 1.164.157.49.212 1.126.166 1.91h-5.36c0 .832.222 1.455.665 1.87.452.407 1.053.61 1.8.61.25 0 .494-.028.734-.083.25-.065.485-.139.707-.222a3.42 3.42 0 0 0 .581-.277 2.39 2.39 0 0 0 .402-.277l.429.79Zm-2.922-5.305c-.305 0-.595.033-.872.097a1.985 1.985 0 0 0-.721.333 1.81 1.81 0 0 0-.512.595c-.129.24-.212.54-.249.9h4.307c-.046-.609-.245-1.08-.596-1.412-.341-.342-.794-.513-1.357-.513Zm6.178 5.18h2.175v-7.285l-2.216 1.552-.54-.79 3.047-2.174h.775v8.697h2.133v.997h-5.374v-.997Zm8.851-3.504h4.737v1.025h-4.737v-1.025Zm8.796 3.504h2.174v-7.285l-2.215 1.552-.54-.79 3.046-2.174h.776v8.697h2.133v.997h-5.374v-.997Zm7.826-3.85a9.7 9.7 0 0 1 .208-2.105c.139-.628.346-1.154.623-1.579a2.748 2.748 0 0 1 1.053-.983c.425-.231.928-.346 1.509-.346.619 0 1.141.11 1.565.332.434.221.785.545 1.053.97.268.424.462.95.582 1.578.12.619.18 1.33.18 2.133a9.9 9.9 0 0 1-.208 2.119c-.139.618-.346 1.145-.623 1.579a2.896 2.896 0 0 1-1.053.983c-.425.222-.928.332-1.509.332-.61 0-1.131-.12-1.565-.36a3.058 3.058 0 0 1-1.053-1.038c-.268-.444-.462-.97-.582-1.58-.12-.618-.18-1.296-.18-2.035Zm5.637 0c0-.49-.028-.956-.083-1.399l-4.113 3.753c.157.527.392.947.706 1.26.314.314.725.471 1.233.471.812 0 1.389-.336 1.731-1.01.351-.675.526-1.7.526-3.075Zm-4.487 0c0 .23.005.452.014.665l.055.623 4.127-3.74c-.157-.498-.392-.895-.706-1.19-.305-.296-.72-.444-1.247-.444-.821 0-1.403.342-1.745 1.025-.332.674-.498 1.694-.498 3.061Zm7.674 0c0-.785.069-1.487.208-2.105.138-.628.346-1.154.623-1.579a2.752 2.752 0 0 1 1.052-.983c.425-.231.928-.346 1.51-.346.618 0 1.14.11 1.565.332.434.221.785.545 1.052.97.268.424.462.95.582 1.578.12.619.18 1.33.18 2.133 0 .785-.069 1.491-.208 2.119-.138.618-.346 1.145-.623 1.579a2.9 2.9 0 0 1-1.052.983c-.425.222-.928.332-1.51.332-.609 0-1.131-.12-1.565-.36a3.056 3.056 0 0 1-1.052-1.038c-.268-.444-.462-.97-.582-1.58-.12-.618-.18-1.296-.18-2.035Zm5.636 0c0-.49-.027-.956-.083-1.399l-4.113 3.753c.157.527.393.947.706 1.26.314.314.725.471 1.233.471.813 0 1.39-.336 1.731-1.01.351-.675.526-1.7.526-3.075Zm-4.487 0c0 .23.005.452.014.665l.056.623 4.127-3.74c-.157-.498-.393-.895-.707-1.19-.304-.296-.72-.444-1.246-.444-.822 0-1.403.342-1.745 1.025-.332.674-.499 1.694-.499 3.061Zm8.893 6.828a4.693 4.693 0 0 0 1.316-.499c.443-.23.84-.559 1.191-.983.36-.416.646-.937.858-1.565.222-.637.333-1.404.333-2.3 0-.885-.093-1.638-.277-2.257-.176-.627-.43-1.15-.762-1.565a3.688 3.688 0 0 0-1.163-1.01 6.799 6.799 0 0 0-1.496-.624l.346-.872c.6.129 1.168.35 1.704.664.544.305 1.02.716 1.426 1.233.406.508.73 1.131.97 1.87.24.73.36 1.583.36 2.562 0 .988-.12 1.842-.36 2.562-.231.72-.55 1.33-.956 1.828-.397.499-.868.9-1.413 1.205a6.615 6.615 0 0 1-1.731.706l-.346-.955Zm10.014-2.743c0-.276.088-.498.264-.664a.983.983 0 0 1 .706-.263c.351 0 .623.124.817.373.194.24.291.582.291 1.025a2.286 2.286 0 0 1-.637 1.635c-.176.193-.37.346-.582.456-.203.12-.392.208-.568.264l-.346-.54c.332-.13.619-.314.859-.554.24-.24.36-.531.36-.873a1.56 1.56 0 0 1-.305.042c-.268 0-.48-.074-.637-.222-.148-.157-.222-.383-.222-.678Zm.125-5.442c0-.296.083-.522.249-.679.167-.166.388-.25.665-.25.296 0 .526.084.693.25.166.157.249.383.249.679a.93.93 0 0 1-.249.665c-.167.175-.397.263-.693.263-.277 0-.498-.088-.665-.263a.929.929 0 0 1-.249-.665ZM34.495 95.528a4.79 4.79 0 0 0-.014-.318 6.267 6.267 0 0 0-.055-.845 3.26 3.26 0 0 0-.042-.36h-.928v-.9h1.842l.139.97h.069c.25-.324.563-.592.942-.804.388-.222.858-.332 1.412-.332.988 0 1.732.272 2.23.817.499.544.748 1.435.748 2.672 0 .582-.088 1.108-.263 1.58a3.237 3.237 0 0 1-.72 1.176 3.204 3.204 0 0 1-1.136.748 3.95 3.95 0 0 1-1.468.263c-.194 0-.37-.009-.526-.027a2.885 2.885 0 0 1-.416-.056 2.459 2.459 0 0 1-.36-.083 4.935 4.935 0 0 1-.388-.138v2.908h-1.066v-7.27Zm3.185-1.579c-.277 0-.54.051-.79.153-.24.101-.456.235-.65.401a2.367 2.367 0 0 0-.457.554 1.63 1.63 0 0 0-.222.61v3.157c.203.139.43.25.679.333.258.074.596.11 1.011.11.739 0 1.33-.24 1.773-.72.443-.489.664-1.2.664-2.132 0-.785-.157-1.39-.47-1.815-.305-.434-.818-.65-1.538-.65Zm9.336-.844h1.967v4.722c0 .453.027.887.083 1.302h.928v.9h-1.842l-.042-1.177h-.055c-.24.397-.559.72-.956.97-.397.249-.877.373-1.44.373-.425 0-.79-.05-1.094-.152a1.497 1.497 0 0 1-.734-.499c-.194-.24-.337-.558-.43-.955-.092-.406-.138-.91-.138-1.51v-3.046h-.928v-.928h2.008v3.753c0 .378.014.72.042 1.025.037.295.106.549.208.761.101.203.249.36.443.471.203.102.47.153.803.153.48 0 .895-.157 1.246-.471.36-.314.633-.707.818-1.177v-3.588h-.887v-.927Zm4.226 0h1.648v-1.371l1.08-.305v1.676h3.698v.927H53.97v3.269c0 .674.162 1.172.485 1.496.332.323.803.484 1.412.484.416 0 .776-.078 1.08-.235.314-.157.596-.328.845-.513l.36.818a3.88 3.88 0 0 1-1.163.623 4.07 4.07 0 0 1-1.371.235c-.37 0-.72-.055-1.053-.166a2.327 2.327 0 0 1-.858-.485 2.365 2.365 0 0 1-.596-.844c-.147-.351-.221-.767-.221-1.247v-3.434h-1.648v-.928Zm23.2 9.86a6.85 6.85 0 0 1-1.745-.706 5.007 5.007 0 0 1-1.413-1.205c-.397-.499-.715-1.108-.955-1.828-.231-.72-.346-1.574-.346-2.562 0-.979.12-1.833.36-2.562.24-.739.563-1.362.97-1.87A4.826 4.826 0 0 1 72.724 91a5.917 5.917 0 0 1 1.717-.665l.346.872a6.795 6.795 0 0 0-1.495.624 3.844 3.844 0 0 0-1.178 1.01c-.323.416-.577.938-.761 1.566-.176.618-.263 1.37-.263 2.257 0 .895.106 1.662.318 2.299.222.628.508 1.149.859 1.565.36.424.757.752 1.19.983.444.24.887.406 1.33.499l-.346.955Zm4.336-9.32a4.4 4.4 0 0 1 1.344-.499 7.34 7.34 0 0 1 1.468-.152c.47 0 .854.074 1.15.221.304.148.54.342.705.582.176.23.291.499.347.803.064.296.097.596.097.9 0 .351-.01.725-.028 1.122-.019.397-.032.794-.042 1.191 0 .462.028.9.083 1.316h.928v.9h-1.842l-.124-1.038h-.07a3.54 3.54 0 0 1-.249.318c-.11.13-.258.259-.443.388a2.702 2.702 0 0 1-1.565.457c-.683 0-1.223-.176-1.62-.526-.397-.351-.596-.831-.596-1.44 0-.472.102-.864.305-1.178a2.01 2.01 0 0 1 .9-.72c.388-.166.854-.263 1.399-.29a9.495 9.495 0 0 1 1.856.11c.046-.425.05-.776.013-1.053-.027-.286-.101-.512-.221-.678a.861.861 0 0 0-.485-.347 2.253 2.253 0 0 0-.761-.11c-.416 0-.813.06-1.192.18-.378.11-.715.226-1.01.346l-.347-.803Zm2.036 5.581c.259 0 .499-.042.72-.125a2.195 2.195 0 0 0 .997-.734c.111-.157.194-.304.25-.443v-.97a7.836 7.836 0 0 0-1.33-.124 3.52 3.52 0 0 0-1.052.139c-.296.083-.527.217-.693.401-.166.185-.25.425-.25.72 0 .305.102.573.305.804.213.221.564.332 1.053.332Zm11.372-5.055a4.742 4.742 0 0 0-.693-.18 3.194 3.194 0 0 0-.72-.083c-.905 0-1.579.212-2.022.637-.443.425-.665 1.099-.665 2.022 0 .406.065.77.194 1.094.13.314.314.582.554.803.24.222.526.393.859.513.341.12.715.18 1.122.18a3.65 3.65 0 0 0 1.26-.222 3.208 3.208 0 0 0 1.039-.582l.484.804c-.129.11-.29.226-.484.346a5.15 5.15 0 0 1-.679.346 4.72 4.72 0 0 1-.845.249 4.783 4.783 0 0 1-.997.097c-.6 0-1.13-.083-1.593-.249a3.136 3.136 0 0 1-1.135-.734 3.22 3.22 0 0 1-.693-1.15 4.54 4.54 0 0 1-.235-1.495c0-.582.078-1.099.235-1.551.166-.453.402-.831.707-1.136a2.97 2.97 0 0 1 1.108-.692 4.04 4.04 0 0 1 1.454-.25c.683 0 1.237.06 1.662.18.434.12.798.254 1.094.402l-.014.042v1.925h-.997V94.17Zm8.823 0a4.733 4.733 0 0 0-.692-.18 3.196 3.196 0 0 0-.72-.083c-.905 0-1.58.212-2.022.637-.444.425-.665 1.099-.665 2.022 0 .406.064.77.194 1.094.129.314.314.582.554.803.24.222.526.393.858.513.342.12.716.18 1.122.18a3.65 3.65 0 0 0 1.26-.222 3.204 3.204 0 0 0 1.039-.582l.485.804a4.06 4.06 0 0 1-.485.346 5.15 5.15 0 0 1-.679.346 4.75 4.75 0 0 1-.844.249 4.788 4.788 0 0 1-.998.097c-.6 0-1.13-.083-1.592-.249a3.136 3.136 0 0 1-1.136-.734 3.218 3.218 0 0 1-.692-1.15 4.536 4.536 0 0 1-.236-1.495c0-.582.079-1.099.236-1.551.166-.453.401-.831.706-1.136a2.97 2.97 0 0 1 1.108-.692c.434-.166.919-.25 1.454-.25.683 0 1.237.06 1.662.18.434.12.799.254 1.094.402l-.014.042v1.925h-.997V94.17Zm3.533 2.396c0-1.117.291-1.999.873-2.645.581-.656 1.412-.983 2.493-.983.581 0 1.08.096 1.495.29.425.185.776.439 1.053.762.277.323.48.706.609 1.15.139.443.208.918.208 1.426 0 .554-.074 1.057-.222 1.51a3.108 3.108 0 0 1-.651 1.135 2.93 2.93 0 0 1-1.066.734c-.415.166-.891.249-1.426.249-.573 0-1.071-.092-1.496-.277a3.007 3.007 0 0 1-1.053-.775 3.224 3.224 0 0 1-.623-1.15 5.083 5.083 0 0 1-.194-1.426Zm1.15 0c0 .323.037.646.11.97.084.322.213.613.388.872.176.258.402.466.679.623.286.157.632.236 1.039.236.738 0 1.292-.227 1.661-.68.379-.46.568-1.135.568-2.021 0-.332-.041-.656-.124-.97a2.421 2.421 0 0 0-.388-.872 1.961 1.961 0 0 0-.693-.623c-.277-.157-.618-.236-1.024-.236-.739 0-1.293.227-1.662.679-.37.452-.554 1.126-.554 2.022Zm11.911-3.462h1.967v4.722c0 .453.028.887.083 1.302h.928v.9h-1.842l-.041-1.177h-.056c-.24.397-.558.72-.955.97-.397.249-.878.373-1.441.373-.425 0-.789-.05-1.094-.152a1.5 1.5 0 0 1-.734-.499c-.194-.24-.337-.558-.429-.955-.093-.406-.139-.91-.139-1.51v-3.046h-.928v-.928h2.009v3.753c0 .378.013.72.041 1.025.037.295.106.549.208.761.101.203.249.36.443.471.203.102.471.153.803.153.48 0 .896-.157 1.247-.471.36-.314.632-.707.817-1.177v-3.588h-.887v-.927Zm5.085 2.423a4.79 4.79 0 0 0-.014-.318 6.407 6.407 0 0 0-.056-.845 3.322 3.322 0 0 0-.041-.36h-.928v-.9h1.856l.124 1.121h.07c.092-.156.212-.309.36-.457.157-.157.337-.295.54-.415.203-.13.429-.23.678-.305.25-.074.513-.11.79-.11.424 0 .798.046 1.122.138.332.092.604.258.817.499.221.23.387.549.498.955.111.397.166.905.166 1.523v3.975h-1.08v-3.767c0-.766-.124-1.343-.374-1.73-.249-.389-.701-.582-1.357-.582-.24 0-.475.05-.706.152a2.307 2.307 0 0 0-.61.374 2.55 2.55 0 0 0-.484.554c-.139.203-.24.42-.305.65v4.349h-1.066v-4.5Zm7.964-2.423h1.648v-1.371l1.081-.305v1.676h3.697v.927h-3.697v3.269c0 .674.161 1.172.484 1.496.333.323.804.484 1.413.484.415 0 .775-.078 1.08-.235a5.67 5.67 0 0 0 .845-.513l.36.818a3.88 3.88 0 0 1-1.163.623 4.07 4.07 0 0 1-1.371.235c-.37 0-.721-.055-1.053-.166a2.335 2.335 0 0 1-.859-.485 2.372 2.372 0 0 1-.595-.844c-.148-.351-.222-.767-.222-1.247v-3.434h-1.648v-.928Zm15.319-.319c0 .85-.402 1.796-1.205 2.84-.803 1.042-1.925 2.178-3.365 3.406h4.875v.997h-6.149v-.997c.175-.166.415-.383.72-.65.304-.269.632-.564.983-.887.351-.333.706-.688 1.066-1.067.37-.378.702-.766.998-1.163a6.87 6.87 0 0 0 .72-1.19 2.73 2.73 0 0 0 .277-1.15c0-.554-.148-.988-.443-1.302-.287-.323-.721-.485-1.302-.485-.499 0-.919.055-1.261.166a3.07 3.07 0 0 0-.927.485l-.471-.762a4.484 4.484 0 0 1 1.315-.65 5.434 5.434 0 0 1 1.538-.208c.868 0 1.523.235 1.966.706.443.47.665 1.108.665 1.911Zm5.07 6.481c0-.276.088-.498.263-.664a.986.986 0 0 1 .707-.263c.351 0 .623.124.817.374.194.24.291.581.291 1.024a2.287 2.287 0 0 1-.637 1.635 2.12 2.12 0 0 1-.582.457c-.203.12-.392.207-.568.263l-.346-.54c.332-.13.618-.314.859-.554.24-.24.36-.531.36-.873-.13.028-.231.042-.305.042-.268 0-.48-.074-.637-.222-.148-.157-.222-.383-.222-.678Zm14.503-8.932h2.216v3.56h.069a2.37 2.37 0 0 1 .928-.707 3.04 3.04 0 0 1 1.233-.25c2.031 0 3.047 1.173 3.047 3.518 0 1.191-.328 2.105-.984 2.742-.655.628-1.588.942-2.797.942a6.64 6.64 0 0 1-1.551-.166c-.462-.111-.799-.24-1.011-.388v-8.323h-1.15v-.928Zm4.307 3.531c-.554 0-1.001.157-1.343.471-.342.314-.591.757-.748 1.33v3.185c.213.11.466.198.762.263.295.065.605.097.928.097.369 0 .701-.05.997-.152a2 2 0 0 0 .775-.499c.213-.23.374-.521.485-.872.12-.351.18-.767.18-1.247 0-.35-.037-.683-.111-.997a2.243 2.243 0 0 0-.36-.817 1.567 1.567 0 0 0-.623-.554c-.258-.138-.572-.208-.942-.208Zm5.985-.221a4.41 4.41 0 0 1 1.343-.499 7.344 7.344 0 0 1 1.468-.152c.471 0 .854.074 1.15.221.304.148.54.342.706.582.175.23.291.499.346.803.065.296.097.596.097.9 0 .351-.009.725-.028 1.122a52.64 52.64 0 0 0-.041 1.191c0 .462.028.9.083 1.316h.928v.9h-1.842l-.125-1.038h-.069a3.42 3.42 0 0 1-.249.318 2.4 2.4 0 0 1-.443.388 2.707 2.707 0 0 1-1.565.457c-.684 0-1.224-.176-1.621-.526-.397-.351-.595-.831-.595-1.44 0-.472.101-.864.304-1.178.213-.314.513-.554.901-.72.387-.166.854-.263 1.398-.29a9.495 9.495 0 0 1 1.856.11c.046-.425.051-.776.014-1.053-.028-.286-.102-.512-.222-.678a.858.858 0 0 0-.484-.347 2.253 2.253 0 0 0-.762-.11c-.415 0-.812.06-1.191.18-.379.11-.716.226-1.011.346l-.346-.803Zm2.036 5.581c.258 0 .498-.042.72-.125a2.196 2.196 0 0 0 .997-.734c.111-.157.194-.304.249-.443v-.97a7.83 7.83 0 0 0-1.329-.124c-.407 0-.757.046-1.053.139-.295.083-.526.217-.692.401-.167.185-.25.425-.25.72 0 .305.102.573.305.804.212.221.563.332 1.053.332Zm6.94-8.891h2.298v7.368c0 .563.093.96.277 1.19.194.231.476.347.845.347.259 0 .503-.046.734-.139.24-.092.503-.249.79-.47l.498.761a3.1 3.1 0 0 1-.484.346c-.176.102-.356.19-.541.264a4.187 4.187 0 0 1-.554.152 2.805 2.805 0 0 1-1.426-.083 1.56 1.56 0 0 1-.679-.416 1.927 1.927 0 0 1-.401-.761c-.093-.324-.139-.72-.139-1.191v-6.44h-1.218v-.928Zm8.671 3.31a4.4 4.4 0 0 1 1.343-.499 7.344 7.344 0 0 1 1.468-.152c.471 0 .854.074 1.149.221.305.148.541.342.707.582.175.23.291.499.346.803.065.296.097.596.097.9 0 .351-.009.725-.028 1.122a52.64 52.64 0 0 0-.041 1.191c0 .462.027.9.083 1.316h.928v.9h-1.842l-.125-1.038h-.069a3.78 3.78 0 0 1-.249.318c-.111.13-.259.259-.444.388a2.699 2.699 0 0 1-1.565.457c-.683 0-1.223-.176-1.62-.526-.397-.351-.595-.831-.595-1.44 0-.472.101-.864.304-1.178.213-.314.513-.554.9-.72.388-.166.854-.263 1.399-.29a9.495 9.495 0 0 1 1.856.11c.046-.425.051-.776.014-1.053-.028-.286-.102-.512-.222-.678a.861.861 0 0 0-.484-.347 2.26 2.26 0 0 0-.762-.11c-.416 0-.813.06-1.191.18-.379.11-.716.226-1.011.346l-.346-.803Zm2.035 5.581c.259 0 .499-.042.721-.125a2.196 2.196 0 0 0 .997-.734c.11-.157.194-.304.249-.443v-.97a7.832 7.832 0 0 0-1.33-.124 3.54 3.54 0 0 0-1.052.139c-.296.083-.526.217-.693.401-.166.185-.249.425-.249.72 0 .305.102.573.305.804.212.221.563.332 1.052.332Zm6.58-3.698a4.19 4.19 0 0 0-.014-.318 6.405 6.405 0 0 0-.055-.845 3.07 3.07 0 0 0-.042-.36h-.927v-.9h1.855l.125 1.121h.069c.093-.156.213-.309.36-.457.157-.157.337-.295.54-.415a2.76 2.76 0 0 1 1.468-.415c.425 0 .799.046 1.122.138.333.092.605.258.817.499.222.23.388.549.499.955.111.397.166.905.166 1.523v3.975h-1.08v-3.767c0-.766-.125-1.343-.374-1.73-.249-.389-.702-.582-1.357-.582-.24 0-.476.05-.707.152a2.318 2.318 0 0 0-.609.374 2.555 2.555 0 0 0-.485.554c-.138.203-.24.42-.304.65v4.349h-1.067v-4.5Zm13.615-1.357a4.733 4.733 0 0 0-.692-.18 3.192 3.192 0 0 0-.72-.083c-.905 0-1.579.212-2.022.637-.443.425-.665 1.099-.665 2.022 0 .406.065.77.194 1.094.129.314.314.582.554.803.24.222.526.393.859.513.341.12.715.18 1.121.18a3.66 3.66 0 0 0 1.261-.222 3.21 3.21 0 0 0 1.038-.582l.485.804a3.98 3.98 0 0 1-.485.346c-.194.12-.42.235-.678.346-.25.102-.531.185-.845.249a4.784 4.784 0 0 1-.997.097c-.6 0-1.131-.083-1.593-.249a3.131 3.131 0 0 1-1.135-.734 3.216 3.216 0 0 1-.693-1.15 4.537 4.537 0 0 1-.235-1.495c0-.582.078-1.099.235-1.551.166-.453.402-.831.706-1.136a2.973 2.973 0 0 1 1.108-.692 4.04 4.04 0 0 1 1.454-.25c.684 0 1.238.06 1.662.18.434.12.799.254 1.094.402l-.013.042v1.925h-.998V94.17Zm10.07 4.986a3.36 3.36 0 0 1-.595.415c-.222.13-.466.24-.734.333-.268.092-.55.161-.845.207a4.532 4.532 0 0 1-.873.083c-.553 0-1.043-.083-1.468-.249a2.938 2.938 0 0 1-1.066-.734 3.277 3.277 0 0 1-.651-1.15 4.707 4.707 0 0 1-.221-1.495c0-.582.078-1.099.235-1.551.166-.453.402-.831.706-1.136a2.973 2.973 0 0 1 1.108-.692 4.04 4.04 0 0 1 1.454-.25c.388 0 .771.051 1.15.153.378.101.711.295.997.582.295.276.522.664.679 1.163.157.49.212 1.126.166 1.911h-5.36c0 .83.222 1.454.665 1.87.452.406 1.053.609 1.8.609.25 0 .494-.028.734-.083.25-.065.485-.139.707-.222a3.42 3.42 0 0 0 .581-.277 2.42 2.42 0 0 0 .402-.277l.429.79Zm-2.922-5.304c-.305 0-.595.032-.872.097a1.986 1.986 0 0 0-.721.332 1.813 1.813 0 0 0-.512.595c-.129.24-.212.54-.249.9h4.307c-.046-.609-.245-1.08-.596-1.412-.341-.342-.794-.512-1.357-.512Zm6.178 5.179h2.175v-7.285l-2.216 1.552-.54-.79 3.047-2.174h.775v8.697h2.133v.997h-5.374v-.997Zm7.73-4.182h2.991v-3.061h.997v3.06h2.992v.998h-2.992v3.06h-.997v-3.06h-2.991v-.997Zm9.917 4.182h2.174v-7.285l-2.215 1.552-.54-.79 3.046-2.174h.776v8.697h2.133v.997h-5.374v-.997Zm7.826-3.85c0-.785.07-1.486.208-2.105.139-.628.346-1.154.623-1.579a2.747 2.747 0 0 1 1.053-.983c.425-.231.928-.346 1.509-.346.619 0 1.141.11 1.565.332.434.222.785.545 1.053.97.268.424.462.95.582 1.578.12.619.18 1.33.18 2.133a9.9 9.9 0 0 1-.208 2.119c-.139.618-.346 1.145-.623 1.579a2.896 2.896 0 0 1-1.053.983c-.425.222-.928.332-1.509.332-.61 0-1.131-.12-1.565-.36a3.058 3.058 0 0 1-1.053-1.038c-.268-.444-.462-.97-.582-1.58-.12-.618-.18-1.296-.18-2.035Zm5.637 0c0-.49-.028-.956-.083-1.399l-4.113 3.753c.157.527.392.947.706 1.26.314.315.725.471 1.233.471.812 0 1.389-.337 1.731-1.01.351-.675.526-1.7.526-3.075Zm-4.487 0c0 .23.005.452.014.665l.055.623 4.127-3.74c-.157-.498-.392-.895-.706-1.19-.305-.296-.72-.444-1.247-.444-.821 0-1.403.342-1.745 1.025-.332.674-.498 1.695-.498 3.061Zm7.674 0c0-.785.069-1.486.208-2.105.138-.628.346-1.154.623-1.579a2.752 2.752 0 0 1 1.052-.983c.425-.231.928-.346 1.51-.346.618 0 1.14.11 1.565.332a2.65 2.65 0 0 1 1.052.97c.268.424.462.95.582 1.578.12.619.18 1.33.18 2.133 0 .785-.069 1.491-.208 2.119-.138.618-.346 1.145-.623 1.579a2.9 2.9 0 0 1-1.052.983c-.425.222-.928.332-1.51.332-.609 0-1.131-.12-1.565-.36a3.056 3.056 0 0 1-1.052-1.038c-.268-.444-.462-.97-.582-1.58-.12-.618-.18-1.296-.18-2.035Zm5.636 0c0-.49-.027-.956-.083-1.399l-4.113 3.753c.157.527.393.947.706 1.26.314.315.725.471 1.233.471.813 0 1.39-.337 1.731-1.01.351-.675.526-1.7.526-3.075Zm-4.487 0c0 .23.005.452.014.665l.056.623 4.127-3.74c-.157-.498-.393-.895-.707-1.19-.304-.296-.72-.444-1.246-.444-.822 0-1.403.342-1.745 1.025-.332.674-.499 1.695-.499 3.061Zm8.893 6.828a4.719 4.719 0 0 0 1.316-.499 3.87 3.87 0 0 0 1.191-.983c.36-.416.646-.937.858-1.565.222-.637.333-1.403.333-2.3 0-.885-.093-1.638-.277-2.257-.176-.627-.43-1.149-.762-1.565a3.688 3.688 0 0 0-1.163-1.01 6.804 6.804 0 0 0-1.496-.624l.346-.872c.6.13 1.168.35 1.704.665.544.304 1.02.715 1.426 1.232.406.508.73 1.131.97 1.87.24.73.36 1.583.36 2.562 0 .988-.12 1.842-.36 2.562-.231.72-.55 1.329-.956 1.828-.397.499-.868.9-1.413 1.205a6.61 6.61 0 0 1-1.731.706l-.346-.955Zm10.014-2.743c0-.276.088-.498.264-.664a.982.982 0 0 1 .706-.263c.351 0 .623.124.817.374.194.24.291.581.291 1.024a2.287 2.287 0 0 1-.637 1.635 2.12 2.12 0 0 1-.582.457c-.203.12-.392.207-.568.263l-.346-.54c.332-.13.619-.314.859-.554.24-.24.36-.531.36-.873-.13.028-.231.042-.305.042-.268 0-.48-.074-.637-.222-.148-.157-.222-.383-.222-.678Zm.125-5.442c0-.296.083-.522.249-.679.167-.166.388-.25.665-.25.296 0 .526.084.693.25.166.157.249.383.249.679 0 .268-.083.49-.249.665-.167.175-.397.263-.693.263-.277 0-.498-.088-.665-.263a.929.929 0 0 1-.249-.665ZM33.595 117.041h1.648v-1.371l1.08-.304v1.675h3.698v.928h-3.698v3.269c0 .674.162 1.172.485 1.495.332.324.803.485 1.412.485.416 0 .776-.078 1.08-.235.315-.157.596-.328.845-.513l.36.817a3.87 3.87 0 0 1-1.163.624c-.443.157-.9.235-1.37.235a3.3 3.3 0 0 1-1.053-.166 2.328 2.328 0 0 1-.86-.485 2.37 2.37 0 0 1-.595-.845c-.147-.351-.221-.766-.221-1.246v-3.435h-1.648v-.928Zm11.898 3.38-2.673-3.38h1.385l1.994 2.604 2.05-2.604h1.246l-2.673 3.324 2.84 3.601h-1.33l-2.202-2.839-2.244 2.839h-1.26l2.867-3.545Zm8.547 2.783c0-.295.082-.521.248-.678.167-.167.388-.25.665-.25.296 0 .526.083.693.25.166.157.249.383.249.678 0 .268-.083.49-.25.665-.166.175-.396.263-.692.263-.277 0-.498-.088-.665-.263a.928.928 0 0 1-.249-.665Zm11.676-5.096a4.693 4.693 0 0 0-.693-.18 3.159 3.159 0 0 0-.72-.083c-.905 0-1.579.212-2.022.637-.443.424-.665 1.098-.665 2.022 0 .406.065.771.194 1.094.13.314.314.581.554.803.24.222.526.392.859.512.341.12.715.18 1.121.18a3.65 3.65 0 0 0 1.26-.221 3.214 3.214 0 0 0 1.04-.582l.484.803c-.13.111-.29.227-.485.347a5.17 5.17 0 0 1-.678.346c-.25.101-.531.185-.845.249a4.783 4.783 0 0 1-.997.097c-.6 0-1.131-.083-1.593-.249a3.142 3.142 0 0 1-1.135-.734 3.212 3.212 0 0 1-.693-1.15 4.534 4.534 0 0 1-.235-1.495c0-.582.078-1.099.235-1.551a3.08 3.08 0 0 1 .706-1.136 2.97 2.97 0 0 1 1.108-.693 4.043 4.043 0 0 1 1.455-.249c.683 0 1.237.06 1.661.18.434.12.799.254 1.094.402l-.013.041v1.925h-.997v-1.315Zm3.533 2.396c0-1.117.29-1.999.872-2.646.582-.655 1.413-.983 2.493-.983.581 0 1.08.097 1.496.291.424.185.775.439 1.052.762s.48.706.61 1.149c.138.443.207.919.207 1.427a4.84 4.84 0 0 1-.221 1.509 3.133 3.133 0 0 1-.651 1.136 2.941 2.941 0 0 1-1.067.734c-.415.166-.89.249-1.426.249-.573 0-1.071-.092-1.496-.277a3.008 3.008 0 0 1-1.052-.775 3.227 3.227 0 0 1-.624-1.15 5.075 5.075 0 0 1-.193-1.426Zm1.149 0c0 .323.037.646.11.969.084.323.213.614.389.873.175.258.401.466.678.623.286.157.633.235 1.039.235.739 0 1.292-.226 1.662-.678.378-.462.568-1.136.568-2.022 0-.333-.042-.656-.125-.97a2.402 2.402 0 0 0-.388-.872 1.948 1.948 0 0 0-.692-.623c-.277-.157-.619-.236-1.025-.236-.739 0-1.293.226-1.662.679-.37.452-.554 1.126-.554 2.022Zm10.513 3.462v-4.612c0-.194-.01-.378-.028-.554a1.5 1.5 0 0 0-.097-.484.706.706 0 0 0-.221-.347.539.539 0 0 0-.374-.124c-.314 0-.582.129-.803.387a2.66 2.66 0 0 0-.485.97v4.764H77.85v-6.925h.72l.208.845h.056c.092-.138.18-.268.263-.388a1.76 1.76 0 0 1 .304-.332 1.26 1.26 0 0 1 .416-.208c.157-.055.355-.083.595-.083.139 0 .282.023.43.069.148.037.281.102.401.194.13.083.24.199.333.347.092.147.152.327.18.54.212-.36.448-.642.706-.845.268-.203.632-.305 1.094-.305.305 0 .55.051.734.153.194.101.342.249.443.443.111.184.185.411.222.678.046.259.07.55.07.873v4.944h-1.053v-4.709c0-.194-.01-.374-.028-.54a1.582 1.582 0 0 0-.11-.457.669.669 0 0 0-.209-.305.507.507 0 0 0-.346-.11c-.323 0-.595.129-.817.387-.222.259-.388.628-.499 1.108v4.626h-1.052Zm8.823 0v-4.612a5.44 5.44 0 0 0-.027-.554 1.5 1.5 0 0 0-.097-.484.706.706 0 0 0-.222-.347.538.538 0 0 0-.374-.124c-.314 0-.581.129-.803.387a2.662 2.662 0 0 0-.485.97v4.764h-1.052v-6.925h.72l.208.845h.055c.092-.138.18-.268.263-.388.093-.129.194-.24.305-.332.12-.092.258-.162.415-.208.157-.055.356-.083.596-.083.138 0 .281.023.43.069.147.037.28.102.4.194.13.083.24.199.333.347.093.147.153.327.18.54.213-.36.448-.642.707-.845.267-.203.632-.305 1.094-.305.304 0 .549.051.734.153.194.101.341.249.443.443.11.184.184.411.221.678.046.259.07.55.07.873v4.944h-1.053v-4.709c0-.194-.01-.374-.028-.54a1.582 1.582 0 0 0-.11-.457.669.669 0 0 0-.208-.305.507.507 0 0 0-.346-.11c-.323 0-.596.129-.817.387-.222.259-.388.628-.5 1.108v4.626h-1.052Zm6.649 0v-.928h2.41v-5.069h-2.41v-.928h3.518v5.997h2.355v.928h-5.873Zm2.036-8.891a.89.89 0 0 1 .25-.637.818.818 0 0 1 .637-.277c.267 0 .489.092.664.277a.846.846 0 0 1 .277.637c0 .24-.092.443-.277.609a.929.929 0 0 1-.664.249.863.863 0 0 1-.637-.249.828.828 0 0 1-.25-.609Zm5.763 1.966h1.648v-1.371l1.08-.304v1.675h3.698v.928h-3.698v3.269c0 .674.162 1.172.485 1.495.332.324.803.485 1.413.485.415 0 .775-.078 1.08-.235.314-.157.595-.328.845-.513l.36.817a3.865 3.865 0 0 1-1.164.624c-.443.157-.9.235-1.371.235-.369 0-.72-.055-1.052-.166a2.337 2.337 0 0 1-.859-.485 2.361 2.361 0 0 1-.595-.845c-.148-.351-.222-.766-.222-1.246v-3.435h-1.648v-.928Zm14.377 9.861a6.848 6.848 0 0 1-1.745-.706 5.042 5.042 0 0 1-1.413-1.205c-.397-.499-.715-1.108-.955-1.828-.231-.72-.346-1.574-.346-2.562 0-.979.12-1.833.36-2.562.24-.739.563-1.362.969-1.87a4.825 4.825 0 0 1 1.413-1.233 5.897 5.897 0 0 1 1.717-.664l.346.872a6.8 6.8 0 0 0-1.495.623 3.86 3.86 0 0 0-1.178 1.011c-.323.416-.577.937-.761 1.565-.176.619-.263 1.371-.263 2.258 0 .895.106 1.662.318 2.299.222.627.508 1.149.859 1.565.36.424.757.752 1.191.983.443.24.886.406 1.329.498l-.346.956Zm4.821-.956a4.685 4.685 0 0 0 1.316-.498 3.87 3.87 0 0 0 1.191-.983c.36-.416.646-.938.858-1.565.222-.637.333-1.404.333-2.299 0-.887-.093-1.639-.277-2.258-.176-.628-.43-1.149-.762-1.565a3.706 3.706 0 0 0-1.163-1.011 6.828 6.828 0 0 0-1.496-.623l.346-.872c.6.129 1.168.35 1.704.664.544.305 1.02.716 1.426 1.233.406.508.73 1.131.97 1.87.24.729.36 1.583.36 2.562 0 .988-.12 1.842-.36 2.562-.231.72-.55 1.329-.956 1.828-.397.498-.868.9-1.413 1.205a6.61 6.61 0 0 1-1.731.706l-.346-.956Zm10.014-2.742c0-.277.088-.498.264-.665a.984.984 0 0 1 .706-.263c.351 0 .623.125.817.374.194.24.291.582.291 1.025a2.288 2.288 0 0 1-.637 1.634c-.176.194-.37.347-.582.457a2.74 2.74 0 0 1-.568.263l-.346-.54a2.46 2.46 0 0 0 .859-.554c.24-.24.36-.53.36-.872a1.519 1.519 0 0 1-.305.041c-.268 0-.48-.073-.637-.221-.148-.157-.222-.383-.222-.679Zm.125-5.442c0-.296.083-.522.249-.679.167-.166.388-.249.665-.249.296 0 .526.083.693.249.166.157.249.383.249.679a.927.927 0 0 1-.249.664c-.167.176-.397.263-.693.263-.277 0-.498-.087-.665-.263a.927.927 0 0 1-.249-.664Zm-35.182 60.107 21.624 5.722-.001-31.099-21.623-5.722-21.244 6.612v30.97l21.244-6.483Z" fill="#fff"/><path fill-rule="evenodd" clip-rule="evenodd" d="M76.228 185.522v-32.777l22.09-6.875 22.508 5.956v32.89l-22.472-5.947-22.126 6.753Zm1.73-2.339 20.362-6.214 20.775 5.498v-29.308l-20.738-5.488-20.398 6.348v29.164Z" fill="#2D2D2D"/><path d="m98.717 159.341-21.624-5.722v37.923l21.624 5.722 21.244-6.612v-37.794l-21.244 6.483Z" fill="#fff"/><path fill-rule="evenodd" clip-rule="evenodd" d="M120.826 151.689v39.6l-22.09 6.875-22.508-5.956v-39.713l22.472 5.946 22.126-6.752Zm-1.731 2.338-20.361 6.214-20.775-5.498v36.132l20.738 5.488 20.398-6.349v-35.987Z" fill="#2D2D2D"/><path fill-rule="evenodd" clip-rule="evenodd" d="M97.534 196.63v-37.35h1.732v37.35h-1.732Z" fill="#2D2D2D"/><path d="m131.952 187.406 4.759-12.392h1.766l5.072 12.392h-1.868l-1.446-3.753h-5.181l-1.361 3.753h-1.741Zm3.575-5.088h4.201l-1.293-3.432c-.394-1.043-.688-1.899-.879-2.57a15.73 15.73 0 0 1-.668 2.367l-1.361 3.635Zm9.311 8.528v-12.417h1.386v1.167c.327-.457.696-.798 1.107-1.023.412-.231.911-.347 1.497-.347.766 0 1.442.198 2.028.592.586.395 1.029.952 1.327 1.674.299.715.448 1.502.448 2.358 0 .919-.166 1.747-.498 2.485-.327.733-.806 1.296-1.437 1.691a3.688 3.688 0 0 1-1.978.583c-.507 0-.964-.107-1.37-.321a3.13 3.13 0 0 1-.989-.812v4.37h-1.521Zm1.378-7.878c0 1.156.234 2.009.701 2.562.468.552 1.034.828 1.699.828.676 0 1.254-.285 1.733-.854.485-.575.727-1.462.727-2.662 0-1.144-.237-2.001-.71-2.57-.468-.569-1.028-.854-1.682-.854-.648 0-1.223.305-1.724.913-.496.603-.744 1.482-.744 2.637Zm8.431 7.878v-12.417h1.386v1.167c.327-.457.696-.798 1.108-1.023.411-.231.91-.347 1.496-.347.766 0 1.443.198 2.029.592.586.395 1.028.952 1.327 1.674.298.715.448 1.502.448 2.358 0 .919-.167 1.747-.499 2.485-.327.733-.806 1.296-1.437 1.691a3.688 3.688 0 0 1-1.978.583c-.507 0-.964-.107-1.369-.321-.4-.214-.73-.485-.989-.812v4.37h-1.522Zm1.378-7.878c0 1.156.234 2.009.702 2.562.467.552 1.034.828 1.699.828.676 0 1.253-.285 1.732-.854.485-.575.727-1.462.727-2.662 0-1.144-.236-2.001-.71-2.57-.467-.569-1.028-.854-1.682-.854-.648 0-1.223.305-1.724.913-.496.603-.744 1.482-.744 2.637Zm8.398 4.438v-12.392h1.521v12.392h-1.521Zm4.07-10.642v-1.75h1.521v1.75h-1.521Zm0 10.642v-8.977h1.521v8.977h-1.521Zm9.877-3.288 1.496.194c-.164 1.032-.584 1.84-1.26 2.426-.67.581-1.496.871-2.476.871-1.229 0-2.218-.4-2.967-1.2-.744-.806-1.116-1.959-1.116-3.458 0-.969.16-1.817.482-2.544.321-.727.808-1.271 1.462-1.631a4.351 4.351 0 0 1 2.147-.55c.975 0 1.772.248 2.392.744.62.49 1.017 1.189 1.192 2.097l-1.479.228c-.141-.603-.392-1.057-.753-1.361-.355-.304-.786-.457-1.293-.457-.766 0-1.389.277-1.868.829-.479.546-.718 1.414-.718 2.603 0 1.206.231 2.082.693 2.629.462.547 1.065.82 1.809.82.597 0 1.096-.183 1.496-.549.4-.367.654-.93.761-1.691Zm8.828 2.181c-.563.479-1.107.817-1.631 1.014a4.67 4.67 0 0 1-1.674.296c-.986 0-1.744-.239-2.273-.718-.53-.485-.795-1.102-.795-1.852 0-.439.099-.839.296-1.2.203-.366.465-.659.786-.879.327-.22.693-.386 1.099-.499.298-.079.749-.155 1.352-.228 1.229-.147 2.133-.321 2.714-.524.005-.209.008-.341.008-.397 0-.62-.144-1.057-.431-1.311-.389-.343-.966-.515-1.733-.515-.716 0-1.245.127-1.589.38-.338.248-.589.691-.752 1.327l-1.488-.203c.135-.636.358-1.149.668-1.538.31-.394.758-.696 1.344-.904.586-.215 1.265-.322 2.037-.322.766 0 1.389.091 1.868.271.479.18.831.408 1.057.685.225.27.383.614.473 1.031.051.259.076.727.076 1.403v2.029c0 1.414.031 2.31.093 2.688.068.372.197.729.389 1.073h-1.589a3.218 3.218 0 0 1-.305-1.107Zm-.126-3.398c-.553.225-1.381.417-2.486.575-.625.09-1.067.191-1.327.304a1.316 1.316 0 0 0-.811 1.217c0 .406.152.744.456 1.014.31.271.761.406 1.353.406.586 0 1.107-.127 1.564-.38a2.392 2.392 0 0 0 1.005-1.057c.164-.344.246-.851.246-1.521v-.558Zm7.4 3.144.22 1.344c-.429.09-.812.135-1.15.135-.552 0-.98-.087-1.285-.262a1.467 1.467 0 0 1-.642-.684c-.124-.288-.186-.888-.186-1.801v-5.164h-1.116v-1.184h1.116v-2.223l1.513-.913v3.136h1.53v1.184h-1.53v5.249c0 .434.025.713.076.837a.67.67 0 0 0 .262.296c.124.073.299.109.524.109.169 0 .392-.019.668-.059Zm1.678-9.281v-1.75h1.521v1.75h-1.521Zm0 10.642v-8.977h1.521v8.977h-1.521Zm3.452-4.488c0-1.663.463-2.894 1.387-3.694.772-.665 1.713-.998 2.823-.998 1.234 0 2.243.406 3.026 1.218.783.805 1.175 1.921 1.175 3.347 0 1.155-.175 2.065-.524 2.73a3.662 3.662 0 0 1-1.513 1.539 4.384 4.384 0 0 1-2.164.549c-1.257 0-2.274-.403-3.052-1.209-.772-.806-1.158-1.966-1.158-3.482Zm1.564 0c0 1.149.251 2.011.753 2.586a2.415 2.415 0 0 0 1.893.854c.755 0 1.383-.287 1.885-.862.501-.575.752-1.451.752-2.629 0-1.11-.253-1.95-.761-2.519-.501-.575-1.127-.862-1.876-.862-.761 0-1.392.284-1.893.854-.502.569-.753 1.428-.753 2.578Zm8.812 4.488v-8.977h1.369v1.277c.66-.987 1.612-1.48 2.858-1.48.541 0 1.036.099 1.487.296.457.192.798.445 1.023.761.225.316.383.69.473 1.124.057.282.085.775.085 1.479v5.52h-1.522v-5.46c0-.62-.059-1.082-.177-1.387a1.433 1.433 0 0 0-.634-.735c-.299-.186-.651-.279-1.057-.279-.648 0-1.208.206-1.682.617-.468.411-.701 1.192-.701 2.341v4.903h-1.522Z" fill="#2D2D2D"/><path d="M123.374 233.941v1.17h-6.553a2.171 2.171 0 0 1 .142-.846c.167-.446.433-.886.798-1.318.37-.433.902-.934 1.596-1.502 1.078-.883 1.806-1.582 2.184-2.096.379-.518.568-1.007.568-1.467a1.61 1.61 0 0 0-.52-1.217c-.343-.334-.792-.501-1.346-.501-.586 0-1.055.176-1.407.528-.351.351-.529.838-.534 1.46l-1.251-.128c.086-.933.408-1.643.967-2.13.559-.492 1.31-.737 2.252-.737.951 0 1.704.263 2.259.791.554.527.831 1.181.831 1.961 0 .397-.081.786-.243 1.17-.162.383-.433.786-.812 1.21-.374.424-.998 1.005-1.873 1.745-.73.613-1.199 1.03-1.406 1.251a3.83 3.83 0 0 0-.514.656h4.862Zm5.377-1.806v-1.224h3.74v1.224h-3.74Zm9.442 2.976v-9.914h3.739c.658 0 1.161.032 1.508.095.487.081.895.236 1.224.466.329.226.593.544.791.954.203.41.305.861.305 1.352 0 .843-.269 1.558-.805 2.144-.536.582-1.506.872-2.908.872h-2.542v4.031h-1.312Zm1.312-5.201h2.562c.848 0 1.45-.157 1.806-.473.356-.316.534-.76.534-1.332 0-.415-.106-.769-.318-1.062a1.451 1.451 0 0 0-.825-.588c-.22-.059-.628-.088-1.224-.088h-2.535v3.543Zm7.943 5.201v-9.914h1.217v3.557c.568-.658 1.285-.987 2.15-.987.532 0 .994.106 1.386.318.393.207.672.496.839.865.171.37.257.906.257 1.61v4.551h-1.217v-4.551c0-.609-.133-1.051-.399-1.326-.262-.279-.634-.419-1.116-.419-.361 0-.701.095-1.021.284a1.568 1.568 0 0 0-.676.757c-.136.32-.203.762-.203 1.326v3.929h-1.217Zm12.568-.886c-.451.383-.886.653-1.305.811a3.73 3.73 0 0 1-1.339.237c-.789 0-1.395-.192-1.819-.575-.424-.388-.636-.881-.636-1.481 0-.351.079-.672.237-.96.162-.293.372-.528.629-.703.261-.176.554-.309.879-.399a8.76 8.76 0 0 1 1.082-.183c.983-.117 1.706-.257 2.17-.419.005-.167.007-.273.007-.318 0-.496-.115-.845-.345-1.048-.311-.275-.773-.413-1.386-.413-.572 0-.996.102-1.271.305-.271.198-.471.552-.602 1.061l-1.19-.162c.108-.509.286-.92.534-1.231.248-.315.606-.556 1.075-.723.469-.172 1.012-.257 1.63-.257.613 0 1.111.072 1.494.216.384.144.665.327.846.548.18.216.306.491.378.825.041.207.061.581.061 1.122v1.623c0 1.132.025 1.849.075 2.151.054.297.157.584.311.859h-1.272a2.59 2.59 0 0 1-.243-.886Zm-.102-2.719c-.441.181-1.104.334-1.988.46-.5.072-.854.153-1.061.244-.208.09-.368.223-.48.399a1.017 1.017 0 0 0-.169.574c0 .325.121.595.365.812.248.216.608.324 1.082.324a2.53 2.53 0 0 0 1.251-.304 1.91 1.91 0 0 0 .804-.845c.131-.275.196-.681.196-1.217v-.447Zm2.811 1.461 1.204-.189c.067.482.254.852.561 1.109.311.257.744.385 1.298.385.559 0 .974-.113 1.244-.338.271-.23.406-.498.406-.805a.739.739 0 0 0-.358-.649c-.167-.108-.582-.246-1.244-.412-.893-.226-1.513-.42-1.86-.582a1.855 1.855 0 0 1-.785-.683 1.85 1.85 0 0 1-.263-.967c0-.32.072-.615.216-.886.149-.275.35-.502.602-.683.189-.14.446-.257.771-.351.329-.1.681-.149 1.055-.149.563 0 1.057.081 1.481.243.428.163.744.383.946.663.203.275.343.645.42 1.109l-1.19.162c-.055-.369-.212-.658-.474-.865-.257-.208-.622-.311-1.095-.311-.559 0-.958.092-1.197.277-.239.185-.359.401-.359.649 0 .158.05.3.149.426.099.131.255.239.467.325.121.045.48.148 1.075.311.861.23 1.461.419 1.799.568a1.8 1.8 0 0 1 .804.635c.194.28.291.627.291 1.042 0 .406-.119.789-.358 1.149-.235.357-.575.634-1.021.832a3.77 3.77 0 0 1-1.515.291c-.933 0-1.646-.194-2.137-.582-.487-.387-.798-.962-.933-1.724Zm12.501-.169 1.257.155c-.198.735-.565 1.306-1.102 1.711-.536.406-1.222.609-2.056.609-1.05 0-1.884-.322-2.502-.967-.613-.649-.919-1.558-.919-2.725 0-1.208.311-2.146.933-2.813.622-.668 1.429-1.001 2.421-1.001.96 0 1.744.327 2.353.98.609.654.913 1.574.913 2.759 0 .072-.002.181-.007.325h-5.356c.046.789.269 1.393.67 1.812.401.419.902.629 1.501.629.446 0 .827-.117 1.143-.352.316-.234.566-.608.751-1.122Zm-3.997-1.968h4.01c-.054-.604-.207-1.057-.46-1.359-.387-.469-.89-.703-1.508-.703-.559 0-1.03.187-1.413.561-.379.374-.588.874-.629 1.501Zm15.676 1.65 1.197.156c-.13.825-.466 1.472-1.007 1.94-.537.465-1.197.697-1.982.697-.982 0-1.774-.32-2.373-.96-.595-.645-.893-1.567-.893-2.766 0-.776.129-1.454.386-2.036.257-.581.647-1.016 1.17-1.305a3.477 3.477 0 0 1 1.717-.439c.78 0 1.418.198 1.914.595.496.392.814.951.953 1.677l-1.183.182c-.113-.482-.313-.845-.602-1.088a1.532 1.532 0 0 0-1.034-.365c-.614 0-1.112.221-1.495.662-.383.438-.575 1.132-.575 2.083 0 .965.185 1.666.555 2.103.369.437.852.656 1.447.656.478 0 .877-.146 1.197-.439.32-.293.523-.744.608-1.353Zm1.959-.96c0-1.33.369-2.315 1.109-2.955.617-.532 1.37-.798 2.258-.798.988 0 1.795.324 2.421.974.627.644.94 1.537.94 2.677 0 .925-.14 1.653-.419 2.185a2.928 2.928 0 0 1-1.21 1.23 3.51 3.51 0 0 1-1.732.44c-1.005 0-1.819-.322-2.441-.967-.617-.645-.926-1.573-.926-2.786Zm1.251 0c0 .92.2 1.609.602 2.069.401.455.906.683 1.514.683.604 0 1.107-.23 1.508-.69.402-.459.602-1.161.602-2.103 0-.888-.203-1.56-.608-2.015-.402-.46-.902-.69-1.502-.69-.608 0-1.113.228-1.514.683-.402.456-.602 1.143-.602 2.063Zm7.084 3.591v-7.182h1.089v1.008c.225-.352.525-.634.899-.846.374-.216.8-.324 1.278-.324.532 0 .967.11 1.305.331.343.221.584.53.724.927.568-.839 1.307-1.258 2.218-1.258.712 0 1.26.198 1.643.595.383.392.575.998.575 1.819v4.93h-1.211v-4.524c0-.487-.04-.837-.121-1.048a1.002 1.002 0 0 0-.426-.521 1.34 1.34 0 0 0-.731-.196c-.505 0-.924.169-1.257.507-.334.333-.501.87-.501 1.609v4.173h-1.217v-4.666c0-.541-.099-.947-.298-1.218-.198-.27-.523-.405-.973-.405-.343 0-.661.09-.954.27a1.547 1.547 0 0 0-.629.791c-.13.348-.196.848-.196 1.502v3.726h-1.217Zm11.709 0v-7.182h1.089v1.008a2.53 2.53 0 0 1 .9-.846c.374-.216.8-.324 1.278-.324.532 0 .967.11 1.305.331.342.221.584.53.723.927.568-.839 1.308-1.258 2.218-1.258.713 0 1.26.198 1.644.595.383.392.574.998.574 1.819v4.93h-1.21v-4.524c0-.487-.041-.837-.122-1.048a.993.993 0 0 0-.426-.521 1.337 1.337 0 0 0-.73-.196c-.505 0-.924.169-1.258.507-.334.333-.5.87-.5 1.609v4.173h-1.218v-4.666c0-.541-.099-.947-.297-1.218-.198-.27-.523-.405-.974-.405-.342 0-.66.09-.953.27a1.542 1.542 0 0 0-.629.791c-.131.348-.196.848-.196 1.502v3.726h-1.218Zm11.717-8.514v-1.4h1.217v1.4h-1.217Zm0 8.514v-7.182h1.217v7.182h-1.217Zm5.907-1.089.176 1.075a4.517 4.517 0 0 1-.92.108c-.441 0-.784-.07-1.027-.209a1.177 1.177 0 0 1-.514-.548c-.1-.23-.149-.71-.149-1.44v-4.132h-.893v-.947h.893v-1.778l1.21-.731v2.509h1.224v.947h-1.224v4.199c0 .347.021.57.061.67a.527.527 0 0 0 .21.236c.099.059.239.088.419.088.135 0 .313-.016.534-.047Z" fill="#6E6E6E"/><path fill-rule="evenodd" clip-rule="evenodd" d="M175.627 219.205v-14.973h1.731v14.973h-1.731Z" fill="#2D2D2D"/><path d="M2.576 440.888v-76.924s8.255 7.808 33.91 7.808c25.656 0 34.803-8.701 34.803-8.701v77.817c-10.142 15.543-65.438 11.361-68.713 0Z" fill="#fff"/><path d="M72.19 360.88c0 6.202-15.829 11.267-35.652 11.267-19.822 0-35.556-5.027-35.556-11.228s15.734-11.229 35.556-11.229c19.823 0 35.653 4.989 35.653 11.19Z" fill="#fff"/><path fill-rule="evenodd" clip-rule="evenodd" d="M68.368 363.873c1.607-1.207 2.092-2.237 2.092-2.993 0-.754-.482-1.778-2.088-2.977-1.576-1.178-3.97-2.31-7.093-3.292-6.224-1.955-14.953-3.189-24.74-3.189-9.787 0-18.49 1.243-24.69 3.207-3.109.986-5.49 2.123-7.058 3.302-1.596 1.201-2.078 2.229-2.078 2.988 0 .759.482 1.786 2.078 2.987 1.567 1.18 3.95 2.317 7.059 3.302 6.198 1.965 14.902 3.208 24.688 3.208 9.785 0 18.513-1.253 24.737-3.227 3.121-.99 5.516-2.132 7.093-3.316Zm-31.83 8.274c19.823 0 35.653-5.065 35.653-11.267 0-6.201-15.83-11.19-35.653-11.19-19.822 0-35.556 5.028-35.556 11.229s15.734 11.228 35.556 11.228Z" fill="#ED1C24"/><path fill-rule="evenodd" clip-rule="evenodd" d="m1.127 440.467-.262-80.293 1.731-.008.262 80.293-1.73.008Zm69.353.548v-79.979h1.732v79.979h-1.731Z" fill="#ED1C24"/><path fill-rule="evenodd" clip-rule="evenodd" d="M12.416 446.648c6.177 1.919 14.764 3.119 24.287 3.119 9.522 0 18.11-1.2 24.287-3.119 3.093-.961 5.534-2.088 7.183-3.299 1.666-1.224 2.374-2.417 2.374-3.5h1.731c0 1.895-1.234 3.539-3.08 4.895-1.865 1.37-4.507 2.567-7.695 3.557-6.385 1.984-15.153 3.197-24.8 3.197s-18.416-1.213-24.8-3.197c-3.188-.99-5.83-2.187-7.695-3.557-1.847-1.356-3.08-3-3.08-4.895h1.73c0 1.083.709 2.276 2.375 3.5 1.648 1.211 4.09 2.338 7.183 3.299Z" fill="#ED1C24"/><path d="M134.323 441.637v-77.673s8.254 7.808 33.91 7.808c25.655 0 34.802-8.701 34.802-8.701v78.566s-3.694 9.541-34.802 9.908c-31.108.366-33.91-9.908-33.91-9.908Z" fill="#fff"/><path d="M203.841 360.919c0 6.201-15.733 11.228-35.556 11.228-19.823 0-35.557-5.027-35.557-11.228s15.734-11.229 35.557-11.229 35.556 5.028 35.556 11.229Z" fill="#fff"/><path fill-rule="evenodd" clip-rule="evenodd" d="M200.032 363.906c1.596-1.201 2.078-2.228 2.078-2.987 0-.759-.482-1.787-2.078-2.988-1.567-1.179-3.949-2.316-7.058-3.302-6.199-1.964-14.903-3.207-24.689-3.207s-18.49 1.243-24.689 3.207c-3.109.986-5.491 2.123-7.058 3.302-1.596 1.201-2.079 2.229-2.079 2.988 0 .759.483 1.786 2.079 2.987 1.567 1.18 3.949 2.317 7.058 3.302 6.199 1.965 14.903 3.208 24.689 3.208s18.49-1.243 24.689-3.208c3.109-.985 5.491-2.122 7.058-3.302Zm-31.747 8.241c19.823 0 35.556-5.027 35.556-11.228s-15.733-11.229-35.556-11.229c-19.823 0-35.557 5.028-35.557 11.229s15.734 11.228 35.557 11.228Z" fill="#ED1C24"/><path fill-rule="evenodd" clip-rule="evenodd" d="m132.874 440.467-.263-80.293 1.731-.008.263 80.293-1.731.008Zm69.353.548V360.17h1.731v80.845h-1.731Z" fill="#ED1C24"/><path fill-rule="evenodd" clip-rule="evenodd" d="M144.162 447.396c6.178 1.919 14.765 3.12 24.287 3.12 9.523 0 18.11-1.201 24.287-3.12 3.094-.961 5.535-2.088 7.183-3.298 1.666-1.224 2.375-2.417 2.375-3.5h1.731c0 1.894-1.234 3.538-3.081 4.895-1.864 1.369-4.507 2.566-7.694 3.556-6.385 1.984-15.154 3.198-24.801 3.198-9.647 0-18.415-1.214-24.8-3.198-3.188-.99-5.83-2.187-7.694-3.556-1.847-1.357-3.081-3.001-3.081-4.895h1.731c0 1.083.708 2.276 2.374 3.5 1.649 1.21 4.09 2.337 7.183 3.298Z" fill="#ED1C24"/><path d="M68.699 463.554V386.16s8.231 6.385 33.815 6.385c25.584 0 34.706-7.115 34.706-7.115v77.696c-10.242 14.113-62.249 12.295-68.521.428Z" fill="#fff"/><path d="M138.162 383.376c0 6.201-15.777 11.228-35.654 11.228-19.876 0-35.653-5.027-35.653-11.228 0-6.202 15.777-11.229 35.653-11.229 19.877 0 35.654 5.027 35.654 11.229Z" fill="#fff"/><path fill-rule="evenodd" clip-rule="evenodd" d="M134.347 386.362c1.601-1.202 2.084-2.229 2.084-2.986 0-.758-.483-1.785-2.084-2.986-1.572-1.181-3.962-2.318-7.08-3.303-6.216-1.965-14.945-3.209-24.759-3.209-9.813 0-18.542 1.244-24.758 3.209-3.119.985-5.508 2.122-7.08 3.303-1.601 1.201-2.084 2.228-2.084 2.986 0 .757.483 1.784 2.084 2.986 1.572 1.18 3.961 2.317 7.08 3.303 6.216 1.965 14.945 3.208 24.758 3.208 9.814 0 18.543-1.243 24.759-3.208 3.118-.986 5.508-2.123 7.08-3.303Zm-31.839 8.242c19.877 0 35.654-5.027 35.654-11.228 0-6.202-15.777-11.229-35.654-11.229-19.876 0-35.653 5.027-35.653 11.229 0 6.201 15.777 11.228 35.653 11.228Z" fill="#ED1C24"/><path fill-rule="evenodd" clip-rule="evenodd" d="m67 462.924-.262-80.293 1.731-.008.263 80.293-1.731.008Zm69.354.548v-80.845h1.731v80.845h-1.731Z" fill="#ED1C24"/><path fill-rule="evenodd" clip-rule="evenodd" d="M78.29 469.105c6.176 1.919 14.763 3.119 24.286 3.119 9.523 0 18.11-1.2 24.287-3.119 3.094-.962 5.534-2.088 7.183-3.299 1.666-1.224 2.374-2.417 2.374-3.5h1.732c0 1.895-1.235 3.539-3.081 4.895-1.865 1.369-4.507 2.566-7.695 3.557-6.385 1.983-15.153 3.197-24.8 3.197s-18.415-1.214-24.8-3.197c-3.188-.991-5.83-2.188-7.695-3.557-1.846-1.356-3.08-3-3.08-4.895h1.73c0 1.083.71 2.276 2.375 3.5 1.649 1.211 4.09 2.337 7.183 3.299Z" fill="#ED1C24"/><path d="M148.158 459.139s-7.86 4.865-.453 9.697c1.425.941 6.593 3.557 6.446 5.978 0 0 3.132-4.705-1.447-7.665-4.705-3.03-5.881-6.266-4.546-8.01Z" fill="#ED1C24"/><path d="M145.421 468.434s-2.804 4.315 2.714 5.198c.543.069 4.535.494 5.575 1.825 0 0-.09-2.295-3.347-3.649-3.246-1.354-4.58-1.687-4.942-3.374Zm10.856-4.533c-3.37-3.58-4.308-5.795-2.861-8.664 0 0-10.053 3.925-.124 10.89 3.551 2.491 2.963 5.038 2.963 5.13.554-.585 3.392-3.776.022-7.356Z" fill="#ED1C24"/><path d="M161.994 473.189v-9.914h1.346l5.207 7.784v-7.784h1.258v9.914h-1.346l-5.207-7.79v7.79h-1.258Zm9.796-4.828c0-1.646.442-2.933 1.326-3.862.883-.933 2.024-1.4 3.421-1.4.916 0 1.741.219 2.475.656a4.263 4.263 0 0 1 1.677 1.833c.388.78.582 1.666.582 2.658 0 1.005-.203 1.904-.609 2.698-.405.793-.98 1.395-1.724 1.805a4.945 4.945 0 0 1-2.407.609c-.934 0-1.768-.226-2.502-.676a4.357 4.357 0 0 1-1.671-1.847 5.597 5.597 0 0 1-.568-2.474Zm1.353.02c0 1.194.32 2.137.96 2.826.645.686 1.452 1.028 2.421 1.028.987 0 1.799-.347 2.434-1.041.64-.694.961-1.679.961-2.955 0-.807-.138-1.51-.413-2.11a3.087 3.087 0 0 0-1.197-1.4 3.216 3.216 0 0 0-1.765-.5c-.929 0-1.729.32-2.4.96-.668.636-1.001 1.7-1.001 3.192Zm9.998 4.808v-9.914h3.415c.771 0 1.36.048 1.765.142a3.367 3.367 0 0 1 1.454.71 4.006 4.006 0 0 1 1.17 1.698c.262.685.392 1.469.392 2.353 0 .753-.088 1.42-.263 2.002-.176.581-.402 1.063-.677 1.447a3.654 3.654 0 0 1-.906.899 3.695 3.695 0 0 1-1.183.494c-.46.112-.99.169-1.589.169h-3.578Zm1.312-1.17h2.117c.654 0 1.165-.061 1.535-.183.374-.121.672-.293.893-.514.311-.311.552-.728.723-1.251.176-.527.264-1.165.264-1.913 0-1.037-.171-1.833-.514-2.387-.338-.559-.751-.934-1.238-1.123-.351-.135-.917-.203-1.697-.203h-2.083v7.574Zm8.897 1.17v-9.914h7.168v1.17h-5.856v3.036h5.484v1.164h-5.484v3.374h6.086v1.17h-7.398Z" fill="#2D2D2D"/><path d="M7.373 459.139s-7.86 4.865-.452 9.697c1.425.941 6.593 3.557 6.446 5.978 0 0 3.132-4.705-1.448-7.665-4.704-3.03-5.88-6.266-4.546-8.01Z" fill="#ED1C24"/><path d="M4.637 468.434s-2.805 4.315 2.714 5.198c.542.069 4.534.494 5.575 1.825 0 0-.09-2.295-3.348-3.649-3.245-1.354-4.58-1.687-4.941-3.374Zm10.856-4.533c-3.37-3.58-4.309-5.795-2.861-8.664 0 0-10.053 3.925-.125 10.89 3.551 2.491 2.963 5.038 2.963 5.13.554-.585 3.393-3.776.023-7.356Z" fill="#ED1C24"/><path d="M21.21 473.189v-9.914h1.346l5.207 7.784v-7.784h1.257v9.914h-1.345l-5.207-7.79v7.79H21.21Zm9.796-4.828c0-1.646.442-2.933 1.325-3.862.884-.933 2.024-1.4 3.422-1.4.915 0 1.74.219 2.475.656a4.266 4.266 0 0 1 1.677 1.833c.388.78.582 1.666.582 2.658 0 1.005-.203 1.904-.609 2.698-.406.793-.98 1.395-1.724 1.805a4.946 4.946 0 0 1-2.408.609c-.933 0-1.767-.226-2.502-.676a4.354 4.354 0 0 1-1.67-1.847 5.588 5.588 0 0 1-.568-2.474Zm1.352.02c0 1.194.32 2.137.96 2.826.645.686 1.452 1.028 2.422 1.028.987 0 1.798-.347 2.434-1.041.64-.694.96-1.679.96-2.955 0-.807-.137-1.51-.412-2.11a3.093 3.093 0 0 0-1.197-1.4 3.217 3.217 0 0 0-1.765-.5 3.36 3.36 0 0 0-2.4.96c-.668.636-1.002 1.7-1.002 3.192Zm9.999 4.808v-9.914h3.415c.77 0 1.36.048 1.765.142a3.368 3.368 0 0 1 1.454.71 4.007 4.007 0 0 1 1.17 1.698c.261.685.392 1.469.392 2.353 0 .753-.088 1.42-.264 2.002-.176.581-.401 1.063-.676 1.447a3.653 3.653 0 0 1-.906.899 3.7 3.7 0 0 1-1.184.494c-.46.112-.99.169-1.589.169h-3.577Zm1.312-1.17h2.117c.653 0 1.165-.061 1.535-.183.374-.121.671-.293.892-.514.311-.311.552-.728.724-1.251.175-.527.263-1.165.263-1.913 0-1.037-.17-1.833-.514-2.387-.338-.559-.75-.934-1.237-1.123-.352-.135-.917-.203-1.697-.203h-2.083v7.574Zm8.896 1.17v-9.914h7.168v1.17h-5.856v3.036h5.484v1.164h-5.484v3.374h6.086v1.17h-7.398Z" fill="#2D2D2D"/><path d="M76.99 482.344s-7.86 4.866-.453 9.697c1.425.941 6.593 3.557 6.446 5.978 0 0 3.132-4.704-1.448-7.665-4.704-3.029-5.88-6.265-4.546-8.01Z" fill="#ED1C24"/><path d="M74.253 491.639s-2.805 4.315 2.714 5.199c.542.068 4.534.493 5.575 1.824 0 0-.09-2.295-3.348-3.649-3.245-1.354-4.58-1.687-4.941-3.374Zm10.856-4.532c-3.37-3.581-4.309-5.795-2.861-8.664 0 0-10.053 3.924-.124 10.89 3.55 2.49 2.962 5.037 2.962 5.129.554-.585 3.393-3.775.023-7.355Z" fill="#ED1C24"/><path d="M90.826 496.394v-9.913h1.346l5.207 7.783v-7.783h1.257v9.913h-1.345l-5.207-7.79v7.79h-1.258Zm9.796-4.828c0-1.646.442-2.933 1.325-3.861.884-.934 2.024-1.4 3.422-1.4.915 0 1.74.218 2.475.656a4.255 4.255 0 0 1 1.677 1.832c.388.78.582 1.666.582 2.658 0 1.005-.203 1.905-.609 2.698-.406.793-.981 1.395-1.724 1.806a4.959 4.959 0 0 1-2.408.608c-.933 0-1.767-.225-2.502-.676a4.352 4.352 0 0 1-1.67-1.846 5.591 5.591 0 0 1-.568-2.475Zm1.352.02c0 1.195.32 2.137.961 2.827.644.685 1.451 1.028 2.42 1.028.988 0 1.799-.348 2.435-1.042.64-.694.96-1.679.96-2.955 0-.807-.137-1.51-.412-2.11a3.104 3.104 0 0 0-1.197-1.4 3.219 3.219 0 0 0-1.765-.5c-.929 0-1.729.32-2.401.96-.667.636-1.001 1.7-1.001 3.192Zm9.999 4.808v-9.913h3.415c.771 0 1.359.047 1.765.142.568.13 1.053.367 1.454.71a3.996 3.996 0 0 1 1.17 1.697c.261.685.392 1.47.392 2.353 0 .753-.088 1.42-.264 2.002-.176.581-.401 1.064-.676 1.447a3.637 3.637 0 0 1-.906.899 3.679 3.679 0 0 1-1.184.494 6.687 6.687 0 0 1-1.589.169h-3.577Zm1.312-1.17h2.116c.654 0 1.166-.061 1.536-.182.374-.122.671-.293.892-.514.311-.311.552-.728.724-1.251.176-.528.263-1.166.263-1.914 0-1.037-.171-1.833-.513-2.387-.339-.559-.751-.933-1.238-1.123-.352-.135-.917-.203-1.697-.203h-2.083v7.574Zm8.896 1.17v-9.913h7.168v1.169h-5.856v3.037h5.484v1.163h-5.484v3.374h6.086v1.17h-7.398Z" fill="#2D2D2D"/><path d="M257.849 442.832v-77.769s8.343 7.818 34.272 7.818 35.173-8.711 35.173-8.711v78.662s-3.733 9.552-35.173 9.92c-31.44.367-34.272-9.92-34.272-9.92Z" fill="#fff"/><path d="M328.102 362.609c0 6.939-15.734 12.565-35.556 12.565-19.823 0-35.557-5.626-35.557-12.565 0-6.94 15.734-12.565 35.557-12.565 19.822 0 35.556 5.625 35.556 12.565Z" fill="#fff"/><path fill-rule="evenodd" clip-rule="evenodd" d="M324.219 366.176c1.575-1.327 2.152-2.54 2.152-3.567 0-1.028-.577-2.24-2.152-3.567-1.568-1.32-3.943-2.588-7.04-3.687-6.18-2.191-14.863-3.58-24.633-3.58s-18.454 1.389-24.633 3.58c-3.098 1.099-5.473 2.367-7.04 3.687-1.576 1.327-2.153 2.539-2.153 3.567 0 1.027.577 2.24 2.153 3.567 1.567 1.32 3.942 2.588 7.04 3.686 6.179 2.192 14.863 3.581 24.633 3.581s18.453-1.389 24.633-3.581c3.097-1.098 5.472-2.366 7.04-3.686Zm-31.673 8.998c19.822 0 35.556-5.626 35.556-12.565 0-6.94-15.734-12.565-35.556-12.565-19.823 0-35.557 5.625-35.557 12.565 0 6.939 15.734 12.565 35.557 12.565Z" fill="#ED1C24"/><path fill-rule="evenodd" clip-rule="evenodd" d="M256.802 440.876v-77.594h1.732v77.594h-1.732Zm69.764.08.08-78.814 1.731.002-.08 78.814-1.731-.002Z" fill="#ED1C24"/><path fill-rule="evenodd" clip-rule="evenodd" d="M268.166 448.592c6.198 2.144 14.817 3.487 24.377 3.487 9.561 0 18.18-1.343 24.378-3.487 3.103-1.074 5.553-2.333 7.209-3.688 1.663-1.36 2.423-2.726 2.423-4.027h1.731c0 2.031-1.191 3.84-3.058 5.367-1.873 1.532-4.531 2.874-7.739 3.984-6.424 2.223-15.243 3.582-24.944 3.582-9.7 0-18.519-1.359-24.943-3.582-3.208-1.11-5.866-2.452-7.739-3.984-1.867-1.527-3.059-3.336-3.059-5.367h1.732c0 1.301.76 2.667 2.423 4.027 1.656 1.355 4.106 2.614 7.209 3.688Zm0-52.671c6.198 2.145 14.817 3.487 24.377 3.487 9.561 0 18.18-1.342 24.378-3.487 3.103-1.073 5.553-2.332 7.209-3.687 1.663-1.361 2.423-2.727 2.423-4.028h1.731c0 2.031-1.191 3.84-3.058 5.367-1.873 1.533-4.531 2.874-7.739 3.984-6.424 2.223-15.243 3.582-24.944 3.582-9.7 0-18.519-1.359-24.943-3.582-3.208-1.11-5.866-2.451-7.739-3.984-1.867-1.527-3.059-3.336-3.059-5.367h1.732c0 1.301.76 2.667 2.423 4.028 1.656 1.355 4.106 2.614 7.209 3.687Zm0 26.516c6.198 2.145 14.817 3.487 24.377 3.487 9.561 0 18.18-1.342 24.378-3.487 3.103-1.073 5.553-2.332 7.209-3.687 1.663-1.361 2.423-2.727 2.423-4.028h1.731c0 2.032-1.191 3.84-3.058 5.368-1.873 1.532-4.531 2.873-7.739 3.983-6.424 2.223-15.243 3.582-24.944 3.582-9.7 0-18.519-1.359-24.943-3.582-3.208-1.11-5.866-2.451-7.739-3.983-1.867-1.528-3.059-3.336-3.059-5.368h1.732c0 1.301.76 2.667 2.423 4.028 1.656 1.355 4.106 2.614 7.209 3.687Z" fill="#ED1C24"/><path fill-rule="evenodd" clip-rule="evenodd" d="M175.102 273.742v-27.16h1.731v27.16c0 10.039 8.138 18.177 18.177 18.177h81.784c10.995 0 19.908 8.913 19.908 19.908v32.67h-1.731v-32.67c0-10.039-8.138-18.177-18.177-18.177H195.01c-10.995 0-19.908-8.913-19.908-19.908Z" fill="#2D2D2D"/><path fill-rule="evenodd" clip-rule="evenodd" d="M175.102 273.741v-30.472h1.731v30.472c0 10.995-8.913 19.909-19.908 19.909h-37.253c-10.039 0-18.177 8.138-18.177 18.177v31.805h-1.732v-31.805c0-10.995 8.914-19.909 19.909-19.909h37.253c10.038 0 18.177-8.138 18.177-18.177Z" fill="#2D2D2D"/><path fill-rule="evenodd" clip-rule="evenodd" d="m99.986 344.905-5.393-5.882 1.276-1.17 4.761 5.193 4.797-5.129 1.264 1.183-5.435 5.811a.864.864 0 0 1-1.27-.006Zm195.197.187-5.73-6.059 1.258-1.19 5.107 5.401 5.144-5.334 1.246 1.201-5.773 5.987a.863.863 0 0 1-1.252-.006Z" fill="#2D2D2D"/></svg>