<svg width="443" height="123" fill="none" xmlns="http://www.w3.org/2000/svg"><path d="M349.51 85.906V17.638s8.234 6.862 33.826 6.862 34.716-7.647 34.716-7.647v69.052s-3.685 8.386-34.716 8.708c-31.031.323-33.826-8.707-33.826-8.707Z" fill="#fff"/><path d="M418.848 15.483c0 6.092-15.529 11.03-35.094 11.03s-35.094-4.938-35.094-11.03c0-6.091 15.529-11.03 35.094-11.03s35.094 4.939 35.094 11.03Z" fill="#fff"/><path fill-rule="evenodd" clip-rule="evenodd" d="M415.246 18.627c1.603-1.2 2.156-2.278 2.156-3.143 0-.866-.553-1.943-2.156-3.144-1.58-1.184-3.962-2.312-7.045-3.284-6.15-1.94-14.769-3.164-24.447-3.164-9.678 0-18.296 1.224-24.446 3.164-3.084.972-5.466 2.1-7.045 3.284-1.604 1.2-2.156 2.278-2.156 3.143 0 .866.552 1.943 2.156 3.144 1.579 1.184 3.961 2.312 7.045 3.284 6.15 1.94 14.768 3.164 24.446 3.164s18.297-1.224 24.447-3.164c3.083-.972 5.465-2.1 7.045-3.284Zm-31.492 7.887c19.565 0 35.094-4.939 35.094-11.03 0-6.092-15.529-11.03-35.094-11.03s-35.094 4.938-35.094 11.03c0 6.091 15.529 11.03 35.094 11.03Z" fill="#ED1C24"/><path fill-rule="evenodd" clip-rule="evenodd" d="M348.607 84.189V16.074h1.447V84.19h-1.447Zm68.856.071.079-69.186 1.447.002-.079 69.185-1.447-.001Z" fill="#ED1C24"/><path fill-rule="evenodd" clip-rule="evenodd" d="M359.626 90.993c6.143 1.89 14.673 3.07 24.126 3.07 9.454 0 17.984-1.18 24.127-3.07 3.075-.947 5.512-2.06 7.163-3.261 1.667-1.213 2.409-2.419 2.409-3.543h1.447c0 1.802-1.185 3.383-3.001 4.705-1.833 1.332-4.437 2.503-7.591 3.473-6.315 1.944-14.996 3.135-24.554 3.135-9.557 0-18.238-1.191-24.553-3.135-3.154-.97-5.759-2.14-7.591-3.474-1.817-1.321-3.001-2.902-3.001-4.704h1.447c0 1.124.742 2.33 2.409 3.543 1.651 1.202 4.088 2.314 7.163 3.26Zm0-46.236c6.143 1.89 14.673 3.07 24.126 3.07 9.454 0 17.984-1.18 24.127-3.07 3.075-.947 5.512-2.06 7.163-3.261 1.667-1.213 2.409-2.419 2.409-3.543h1.447c0 1.802-1.185 3.383-3.001 4.704-1.833 1.334-4.437 2.504-7.591 3.474-6.315 1.944-14.996 3.135-24.554 3.135-9.557 0-18.238-1.191-24.553-3.135-3.154-.97-5.759-2.14-7.591-3.474-1.817-1.321-3.001-2.902-3.001-4.704h1.447c0 1.124.742 2.33 2.409 3.543 1.651 1.202 4.088 2.314 7.163 3.26Zm0 23.277c6.143 1.89 14.673 3.07 24.126 3.07 9.454 0 17.984-1.18 24.127-3.07 3.075-.947 5.512-2.059 7.163-3.26 1.667-1.213 2.409-2.42 2.409-3.543h1.447c0 1.801-1.185 3.382-3.001 4.704-1.833 1.333-4.437 2.503-7.591 3.474-6.315 1.943-14.996 3.134-24.554 3.134-9.557 0-18.238-1.19-24.553-3.134-3.154-.97-5.759-2.141-7.591-3.474-1.817-1.322-3.001-2.903-3.001-4.704h1.447c0 1.124.742 2.33 2.409 3.542 1.651 1.202 4.088 2.314 7.163 3.26Z" fill="#ED1C24"/><path d="M42.519 61.535 85.06 72.72V11.933L42.519.748.723 13.673v60.535L42.52 61.536Z" fill="#fff"/><path fill-rule="evenodd" clip-rule="evenodd" d="M0 75.18V13.142L42.503 0l43.281 11.38v62.275L42.533 62.283 0 75.18Zm1.447-1.944 41.058-12.448 41.832 10.998V12.487L42.535 1.497 1.447 14.203v59.033Z" fill="#2D2D2D"/><path d="M43.265 25.32.724 14.135v74.124l42.541 11.185 41.796-12.925V12.648L43.265 25.32Z" fill="#fff"/><path fill-rule="evenodd" clip-rule="evenodd" d="M85.784 11.676v75.373l-42.502 13.144L0 88.813V13.201l43.251 11.37 42.533-12.895Zm-1.447 1.943L43.28 26.068 1.447 15.069v72.636l41.802 10.99L84.337 85.99V13.62Z" fill="#2D2D2D"/><path fill-rule="evenodd" clip-rule="evenodd" d="M41.92 98.204V25.2h1.446v73.005H41.92Z" fill="#2D2D2D"/><rect x="168.245" y="3.261" width="96.802" height="96.173" rx="48.087" fill="#ED1C24"/><path d="M207.973 34.296s-22.189 13.42-1.277 26.744c4.022 2.595 18.613 9.811 18.198 16.49 0 0 8.843-12.977-4.087-21.143-13.281-8.355-16.602-17.28-12.834-22.091Z" fill="#fff"/><path d="M200.246 59.932s-7.918 11.9 7.662 14.337c1.532.19 12.802 1.361 15.74 5.033 0 0-.256-6.33-9.451-10.065-9.162-3.735-12.93-4.652-13.951-9.305Zm30.65-12.502c-9.514-9.874-12.164-15.983-8.078-23.895 0 0-28.382 10.824-.351 30.036 10.025 6.867 8.365 13.894 8.365 14.147 1.564-1.614 9.578-10.413.064-20.288Z" fill="#fff"/><path fill-rule="evenodd" clip-rule="evenodd" d="m153.017 42.74 4.604 4.579a.716.716 0 0 1 0 1.017l-4.604 4.58a.726.726 0 0 1-1.023 0 .716.716 0 0 1 0-1.018l3.369-3.35h-54.795a.721.721 0 0 1-.724-.72c0-.398.324-.72.724-.72h54.795l-3.369-3.35a.716.716 0 0 1 0-1.018.726.726 0 0 1 1.023 0ZM104.66 69.502l-4.604-4.579a.717.717 0 0 1 0-1.017l4.604-4.58a.726.726 0 0 1 1.023 0 .716.716 0 0 1 0 1.018l-3.369 3.35h54.796c.399 0 .723.323.723.72 0 .398-.324.72-.723.72h-54.796l3.369 3.35a.716.716 0 0 1 0 1.018.726.726 0 0 1-1.023 0ZM323.897 43.71l4.604 4.578a.718.718 0 0 1 0 1.018l-4.604 4.579a.727.727 0 0 1-1.024 0 .718.718 0 0 1 0-1.018l3.369-3.35h-45.687a.722.722 0 0 1-.724-.72c0-.397.324-.72.724-.72h45.687l-3.369-3.35a.718.718 0 0 1 0-1.018.727.727 0 0 1 1.024 0Zm-39.25 26.425-4.605-4.579a.718.718 0 0 1 0-1.018l4.605-4.579a.726.726 0 0 1 1.023 0 .718.718 0 0 1 0 1.018l-3.369 3.35h45.688c.399 0 .723.323.723.72 0 .398-.324.72-.723.72h-45.688l3.369 3.35a.718.718 0 0 1 0 1.018.726.726 0 0 1-1.023 0Z" fill="#000"/><path d="m7.93 120.14 3.977-10.301h1.476l4.24 10.301H16.06l-1.208-3.12h-4.331l-1.137 3.12H7.929Zm2.988-4.23h3.511l-1.081-2.853a27.89 27.89 0 0 1-.735-2.136 13.099 13.099 0 0 1-.558 1.968l-1.137 3.021ZM18.7 123v-10.322h1.158v.969c.273-.379.582-.662.926-.85.344-.192.76-.288 1.25-.288.64 0 1.206.164 1.696.492.49.328.86.792 1.11 1.391.249.595.374 1.249.374 1.961 0 .763-.14 1.452-.417 2.066-.273.609-.674 1.077-1.201 1.405a3.097 3.097 0 0 1-1.654.485c-.423 0-.805-.089-1.144-.267a2.604 2.604 0 0 1-.827-.675V123H18.7Zm1.151-6.549c0 .96.196 1.67.587 2.129.39.459.864.689 1.42.689.565 0 1.048-.237 1.448-.71.405-.478.608-1.215.608-2.213 0-.951-.198-1.663-.594-2.136-.39-.474-.86-.71-1.406-.71-.541 0-1.022.253-1.441.759-.415.501-.622 1.232-.622 2.192ZM26.898 123v-10.322h1.16v.969c.272-.379.58-.662.925-.85.343-.192.76-.288 1.25-.288.64 0 1.206.164 1.696.492.49.328.86.792 1.109 1.391.25.595.374 1.249.374 1.961 0 .763-.139 1.452-.416 2.066-.274.609-.674 1.077-1.202 1.405a3.097 3.097 0 0 1-1.653.485c-.424 0-.805-.089-1.144-.267a2.604 2.604 0 0 1-.827-.675V123h-1.272Zm1.152-6.549c0 .96.195 1.67.586 2.129.391.459.865.689 1.42.689.566 0 1.049-.237 1.449-.71.405-.478.607-1.215.607-2.213 0-.951-.197-1.663-.593-2.136-.391-.474-.86-.71-1.406-.71-.542 0-1.022.253-1.441.759-.415.501-.622 1.232-.622 2.192Zm7.019 3.689v-10.301h1.272v10.301h-1.272Zm3.401-8.846v-1.455h1.272v1.455h-1.271Zm0 8.846v-7.462h1.272v7.462h-1.271Zm8.256-2.733 1.25.161c-.136.858-.487 1.53-1.052 2.017-.56.483-1.25.724-2.07.724-1.027 0-1.854-.333-2.48-.998-.622-.67-.933-1.628-.933-2.874 0-.806.135-1.511.403-2.115.268-.604.676-1.056 1.222-1.356a3.645 3.645 0 0 1 1.795-.457c.815 0 1.481.206 2 .619.517.407.85.988.995 1.742l-1.236.19c-.118-.501-.327-.878-.629-1.131a1.61 1.61 0 0 0-1.08-.38c-.641 0-1.162.23-1.562.689-.4.454-.6 1.176-.6 2.164 0 1.002.192 1.731.579 2.185.386.455.89.682 1.512.682.499 0 .916-.152 1.25-.457.334-.304.546-.773.636-1.405Zm7.379 1.813c-.47.398-.925.679-1.363.843a3.92 3.92 0 0 1-1.4.246c-.823 0-1.457-.199-1.9-.597-.442-.403-.664-.916-.664-1.539 0-.366.083-.698.248-.998a2.1 2.1 0 0 1 .656-.731 3.12 3.12 0 0 1 .919-.414 9.06 9.06 0 0 1 1.13-.19c1.027-.122 1.783-.267 2.268-.436.005-.173.007-.283.007-.33 0-.515-.12-.878-.36-1.089-.325-.286-.808-.429-1.448-.429-.599 0-1.041.106-1.328.316-.283.206-.493.574-.63 1.104l-1.243-.169c.113-.529.3-.956.558-1.279.26-.328.634-.579 1.124-.752.49-.178 1.057-.267 1.702-.267.64 0 1.161.075 1.562.225.4.15.695.34.883.569.188.225.32.511.395.857.043.216.064.605.064 1.167v1.686c0 1.176.026 1.921.078 2.235.056.309.165.606.325.892H54.36a2.668 2.668 0 0 1-.255-.92ZM54 116.395c-.461.187-1.154.347-2.077.478-.523.075-.892.159-1.11.253a1.096 1.096 0 0 0-.677 1.012c0 .337.127.618.381.843.26.225.636.337 1.13.337.49 0 .926-.105 1.308-.316.381-.216.661-.508.84-.878.137-.286.205-.708.205-1.265v-.464Zm6.184 2.614.184 1.117a4.742 4.742 0 0 1-.96.113c-.462 0-.82-.073-1.075-.218a1.226 1.226 0 0 1-.536-.569c-.104-.239-.156-.738-.156-1.497v-4.293h-.932v-.984h.932v-1.848l1.265-.759v2.607h1.279v.984h-1.28v4.363c0 .361.022.593.064.696a.55.55 0 0 0 .22.246c.103.061.249.091.437.091.142 0 .328-.016.559-.049Zm1.403-7.715v-1.455h1.271v1.455h-1.271Zm0 8.846v-7.462h1.271v7.462h-1.271Zm2.886-3.731c0-1.382.386-2.405 1.158-3.071.646-.552 1.432-.829 2.36-.829 1.032 0 1.875.337 2.53 1.012.654.67.981 1.597.981 2.783 0 .96-.146 1.716-.438 2.269a3.043 3.043 0 0 1-1.264 1.279 3.672 3.672 0 0 1-1.809.457c-1.05 0-1.9-.335-2.55-1.005-.646-.67-.968-1.635-.968-2.895Zm1.307 0c0 .956.21 1.672.629 2.15.419.473.946.71 1.582.71a2.01 2.01 0 0 0 1.576-.717c.419-.478.628-1.206.628-2.185 0-.923-.212-1.621-.635-2.094a2 2 0 0 0-1.569-.717c-.636 0-1.163.237-1.582.71-.42.473-.63 1.187-.63 2.143Zm7.365 3.731v-7.462h1.144v1.061c.552-.82 1.347-1.23 2.388-1.23.452 0 .867.082 1.244.246.381.159.666.37.855.632.188.263.32.574.395.935.047.234.071.644.071 1.23v4.588H77.97v-4.539c0-.515-.05-.9-.148-1.152a1.195 1.195 0 0 0-.53-.612 1.648 1.648 0 0 0-.883-.232 2.08 2.08 0 0 0-1.406.513c-.391.342-.586.991-.586 1.947v4.075h-1.272Zm251.429-2.962v-10.339h7.434v1.22h-6.073v3.167h5.687v1.213h-5.687v3.519h6.311v1.22h-7.672Zm8.669 0 2.721-3.893-2.518-3.597h1.578l1.143 1.756c.215.334.388.614.519.84.206-.311.395-.586.568-.826l1.255-1.77h1.508l-2.574 3.527 2.77 3.963h-1.55l-1.528-2.327-.407-.628-1.957 2.955h-1.528Zm10.898-1.135.182 1.121a4.669 4.669 0 0 1-.953.113c-.459 0-.814-.073-1.066-.219a1.215 1.215 0 0 1-.533-.571c-.103-.24-.155-.74-.155-1.502v-4.309h-.925v-.988h.925v-1.855l1.256-.761v2.616h1.269v.988h-1.269v4.379c0 .362.021.595.063.699a.557.557 0 0 0 .217.247c.103.061.248.091.435.091.14 0 .325-.016.554-.049Zm6.459-1.277 1.305.162c-.206.767-.587 1.362-1.144 1.785-.556.423-1.267.635-2.131.635-1.09 0-1.955-.337-2.595-1.009-.636-.677-.954-1.624-.954-2.842 0-1.26.323-2.238.968-2.934.645-.696 1.482-1.044 2.51-1.044.996 0 1.81.341 2.441 1.023.631.681.947 1.641.947 2.877 0 .075-.003.188-.007.339h-5.555c.047.823.279 1.453.695 1.89.416.437.935.656 1.557.656.462 0 .857-.122 1.185-.367.327-.244.586-.635.778-1.171Zm-4.144-2.052h4.158c-.056-.63-.215-1.103-.477-1.418-.402-.489-.923-.733-1.564-.733-.579 0-1.068.195-1.465.585-.393.39-.61.912-.652 1.566Zm7.146 4.464v-7.49h1.136v1.136c.29-.532.557-.882.8-1.051.247-.169.519-.254.813-.254.426 0 .858.136 1.298.409l-.435 1.178a1.794 1.794 0 0 0-.926-.275 1.18 1.18 0 0 0-.743.254 1.33 1.33 0 0 0-.47.691c-.14.451-.211.945-.211 1.481v3.921h-1.262Zm4.917 0v-7.49h1.136v1.065c.547-.823 1.337-1.234 2.37-1.234.449 0 .86.082 1.234.247.379.16.662.371.849.635.187.263.318.576.392.938.047.235.071.646.071 1.234v4.605h-1.263v-4.556c0-.517-.049-.903-.147-1.156a1.19 1.19 0 0 0-.526-.614 1.62 1.62 0 0 0-.877-.233c-.537 0-1.002.172-1.395.515-.388.343-.582.995-.582 1.954v4.09h-1.262Zm12.974-.924c-.468.4-.919.682-1.354.847-.43.164-.893.247-1.388.247-.818 0-1.447-.2-1.887-.6-.439-.404-.659-.919-.659-1.544a2.089 2.089 0 0 1 .898-1.735c.271-.184.575-.323.911-.417a9.14 9.14 0 0 1 1.122-.19c1.02-.122 1.77-.268 2.252-.437l.007-.332c0-.517-.12-.881-.358-1.093-.323-.287-.802-.43-1.438-.43-.593 0-1.033.106-1.318.317-.281.207-.489.576-.624 1.107l-1.235-.169c.113-.531.297-.959.554-1.283.258-.33.629-.581 1.116-.755.486-.179 1.049-.268 1.69-.268.635 0 1.152.075 1.549.226.398.15.69.341.877.571.187.226.318.512.393.86.042.217.063.607.063 1.171v1.693c0 1.18.026 1.928.077 2.243.056.31.164.609.323.895h-1.319a2.689 2.689 0 0 1-.252-.924Zm-.105-2.835c-.459.188-1.146.348-2.062.48-.519.075-.886.16-1.101.254a1.088 1.088 0 0 0-.673 1.015c0 .339.126.621.378.847.257.225.631.338 1.122.338.486 0 .919-.106 1.298-.317.378-.217.657-.51.834-.882.136-.287.204-.71.204-1.269v-.466Zm3.331 3.759v-10.339h1.262v10.339h-1.262Zm7.624 0v-10.339h3.541c.8 0 1.41.049 1.831.148a3.47 3.47 0 0 1 1.508.741c.542.46.946 1.05 1.213 1.77.271.714.406 1.533.406 2.454 0 .785-.091 1.481-.273 2.088-.182.606-.416 1.109-.701 1.509a3.782 3.782 0 0 1-.94.938 3.82 3.82 0 0 1-1.227.515 6.899 6.899 0 0 1-1.648.176h-3.71Zm1.36-1.22h2.195c.678 0 1.209-.063 1.592-.19.388-.127.697-.306.926-.536.323-.325.573-.76.75-1.305.183-.55.274-1.215.274-1.996 0-1.081-.178-1.911-.533-2.49-.351-.583-.778-.973-1.283-1.17-.365-.141-.952-.212-1.761-.212h-2.16v7.899Zm13.837.296c-.467.4-.919.682-1.353.847-.43.164-.893.247-1.389.247-.818 0-1.447-.2-1.886-.6-.44-.404-.659-.919-.659-1.544 0-.367.081-.701.245-1.002.168-.306.386-.55.652-.733.271-.184.575-.323.912-.417a9.14 9.14 0 0 1 1.122-.19c1.019-.122 1.769-.268 2.251-.437.005-.174.007-.285.007-.332 0-.517-.119-.881-.358-1.093-.322-.287-.801-.43-1.437-.43-.594 0-1.034.106-1.319.317-.28.207-.488.576-.624 1.107l-1.234-.169c.112-.531.297-.959.554-1.283.257-.33.629-.581 1.115-.755.486-.179 1.05-.268 1.69-.268.636 0 1.152.075 1.55.226.397.15.689.341.876.571.187.226.318.512.393.86.042.217.063.607.063 1.171v1.693c0 1.18.026 1.928.077 2.243.057.31.164.609.323.895h-1.318a2.711 2.711 0 0 1-.253-.924Zm-.105-2.835c-.458.188-1.145.348-2.062.48-.519.075-.886.16-1.101.254a1.088 1.088 0 0 0-.673 1.015c0 .339.126.621.379.847.257.225.631.338 1.122.338a2.62 2.62 0 0 0 1.297-.317c.379-.217.657-.51.835-.882.135-.287.203-.71.203-1.269v-.466Zm6.116 2.624.182 1.121a4.67 4.67 0 0 1-.954.113c-.458 0-.813-.073-1.066-.219a1.225 1.225 0 0 1-.533-.571c-.103-.24-.154-.74-.154-1.502v-4.309h-.926v-.988h.926v-1.855l1.255-.761v2.616h1.27v.988h-1.27v4.379c0 .362.021.595.063.699.047.103.12.185.218.247.103.061.248.091.435.091.14 0 .325-.016.554-.049Zm6.22.211c-.467.4-.918.682-1.353.847-.43.164-.893.247-1.389.247-.818 0-1.447-.2-1.886-.6-.439-.404-.659-.919-.659-1.544 0-.367.082-.701.245-1.002.169-.306.386-.55.652-.733.272-.184.575-.323.912-.417a9.14 9.14 0 0 1 1.122-.19c1.019-.122 1.77-.268 2.251-.437.005-.174.007-.285.007-.332 0-.517-.119-.881-.357-1.093-.323-.287-.802-.43-1.438-.43-.594 0-1.033.106-1.318.317-.281.207-.489.576-.625 1.107l-1.234-.169c.112-.531.297-.959.554-1.283.257-.33.629-.581 1.115-.755.486-.179 1.05-.268 1.69-.268.636 0 1.153.075 1.55.226.398.15.69.341.877.571.187.226.318.512.392.86.043.217.064.607.064 1.171v1.693c0 1.18.025 1.928.077 2.243.056.31.163.609.322.895h-1.318a2.711 2.711 0 0 1-.253-.924Zm-.105-2.835c-.458.188-1.145.348-2.062.48-.518.075-.885.16-1.101.254a1.08 1.08 0 0 0-.497.416 1.068 1.068 0 0 0-.176.599c0 .339.126.621.379.847.257.225.631.338 1.122.338.486 0 .919-.106 1.297-.317.379-.217.657-.51.835-.882.135-.287.203-.71.203-1.269v-.466Zm4.524 3.759h-1.171v-10.339h1.262v3.689c.533-.673 1.213-1.009 2.041-1.009.458 0 .89.094 1.297.282a2.57 2.57 0 0 1 1.01.783c.267.334.475.738.624 1.213.15.475.225.983.225 1.523 0 1.284-.316 2.276-.947 2.977-.631.7-1.389 1.051-2.272 1.051-.879 0-1.569-.369-2.069-1.108v.938Zm-.014-3.801c0 .898.122 1.547.365 1.946.397.654.935.981 1.613.981.551 0 1.028-.24 1.43-.72.402-.484.603-1.203.603-2.158 0-.978-.194-1.7-.582-2.165-.383-.465-.848-.698-1.395-.698-.552 0-1.029.242-1.431.726-.402.48-.603 1.176-.603 2.088ZM426 116.254c-.468.4-.919.682-1.353.847a3.87 3.87 0 0 1-1.389.247c-.818 0-1.447-.2-1.886-.6-.44-.404-.66-.919-.66-1.544a2.098 2.098 0 0 1 .898-1.735c.271-.184.575-.323.912-.417a9.07 9.07 0 0 1 1.122-.19c1.019-.122 1.769-.268 2.251-.437l.007-.332c0-.517-.119-.881-.358-1.093-.322-.287-.802-.43-1.437-.43-.594 0-1.034.106-1.319.317-.28.207-.488.576-.624 1.107l-1.234-.169c.112-.531.297-.959.554-1.283.257-.33.629-.581 1.115-.755.486-.179 1.049-.268 1.69-.268.636 0 1.152.075 1.55.226.397.15.689.341.876.571.187.226.318.512.393.86.042.217.063.607.063 1.171v1.693c0 1.18.026 1.928.077 2.243.056.31.164.609.323.895h-1.319a2.711 2.711 0 0 1-.252-.924Zm-.105-2.835c-.458.188-1.146.348-2.062.48-.519.075-.886.16-1.101.254a1.088 1.088 0 0 0-.673 1.015c0 .339.126.621.379.847.257.225.631.338 1.122.338a2.62 2.62 0 0 0 1.297-.317c.379-.217.657-.51.834-.882.136-.287.204-.71.204-1.269v-.466Zm2.854 1.524 1.249-.198c.07.503.264.889.582 1.157.322.268.771.402 1.346.402.58 0 1.01-.118 1.291-.353.28-.24.42-.519.42-.839a.77.77 0 0 0-.371-.677c-.173-.113-.603-.256-1.291-.43-.925-.236-1.568-.438-1.928-.607a1.928 1.928 0 0 1-.814-.712 1.937 1.937 0 0 1-.273-1.009c0-.334.075-.642.224-.924.155-.287.363-.524.624-.712.197-.146.463-.268.8-.367a3.767 3.767 0 0 1 1.094-.155c.584 0 1.096.085 1.536.254.444.169.771.4.981.691.211.287.356.672.435 1.157l-1.234.169c-.056-.386-.22-.687-.491-.903-.266-.216-.645-.324-1.136-.324-.58 0-.993.096-1.241.289-.248.193-.372.418-.372.677 0 .165.052.313.154.444.103.137.265.25.484.339.126.047.498.155 1.115.324.893.24 1.515.438 1.866.593.355.15.633.371.834.663.201.291.302.653.302 1.086 0 .423-.124.823-.372 1.199-.243.371-.596.66-1.059.867-.463.203-.986.304-1.571.304-.967 0-1.706-.203-2.216-.607-.505-.404-.827-1.004-.968-1.798Zm12.905-.177 1.304.162c-.206.767-.587 1.362-1.143 1.785-.557.423-1.267.635-2.132.635-1.089 0-1.954-.337-2.595-1.009-.636-.677-.954-1.624-.954-2.842 0-1.26.323-2.238.968-2.934.645-.696 1.482-1.044 2.511-1.044.996 0 1.809.341 2.44 1.023.631.681.947 1.641.947 2.877 0 .075-.002.188-.007.339h-5.554c.047.823.278 1.453.694 1.89.416.437.935.656 1.557.656.463 0 .858-.122 1.185-.367.327-.244.587-.635.779-1.171Zm-4.145-2.052h4.159c-.057-.63-.216-1.103-.477-1.418-.402-.489-.924-.733-1.564-.733-.58 0-1.068.195-1.466.585-.393.39-.61.912-.652 1.566Z" fill="#2D2D2D"/></svg>