<svg width="350" height="220" viewBox="0 0 350 220" fill="none" xmlns="http://www.w3.org/2000/svg">
<rect width="350" height="220" fill="#91C2EA"/>
<mask id="mask0" style="mask-type:alpha" maskUnits="userSpaceOnUse" x="0" y="0" width="350" height="220">
<rect width="350" height="220" fill="#ED1C24"/>
</mask>
<g mask="url(#mask0)">
<path fill-rule="evenodd" clip-rule="evenodd" d="M539.116 19.5674L8.69195 236.444L8.3125 235.436L538.737 18.5589L539.116 19.5674Z" fill="url(#paint0_linear)"/>
<path fill-rule="evenodd" clip-rule="evenodd" d="M511.285 17.0696L36.4856 238.922L36.0605 237.934L510.86 16.081L511.285 17.0696Z" fill="url(#paint1_linear)"/>
<path fill-rule="evenodd" clip-rule="evenodd" d="M486.779 12.9109L61.1275 243.053L60.649 242.091L486.3 11.9493L486.779 12.9109Z" fill="url(#paint2_linear)"/>
<path fill-rule="evenodd" clip-rule="evenodd" d="M465.18 7.09582L82.7037 248.834L82.1649 247.908L464.641 6.16948L465.18 7.09582Z" fill="url(#paint3_linear)"/>
<path fill-rule="evenodd" clip-rule="evenodd" d="M446.236 -0.463127L101.715 256.437L101.11 255.556L445.631 -1.34422L446.236 -0.463127Z" fill="url(#paint4_linear)"/>
<path fill-rule="evenodd" clip-rule="evenodd" d="M429.69 -10.0306L118.327 265.859L117.654 265.034L429.017 -10.856L429.69 -10.0306Z" fill="url(#paint5_linear)"/>
<path fill-rule="evenodd" clip-rule="evenodd" d="M415.292 -21.6027L132.793 277.367L132.053 276.607L414.552 -22.363L415.292 -21.6027Z" fill="url(#paint6_linear)"/>
<path fill-rule="evenodd" clip-rule="evenodd" d="M402.87 -35.3563L145.28 291.137L144.477 290.449L402.067 -36.0444L402.87 -35.3563Z" fill="url(#paint7_linear)"/>
<path fill-rule="evenodd" clip-rule="evenodd" d="M392.249 -51.5549L156.036 307.259L155.179 306.646L391.392 -52.1679L392.249 -51.5549Z" fill="url(#paint8_linear)"/>
<path fill-rule="evenodd" clip-rule="evenodd" d="M383.262 -70.5524L165.069 326.093L164.167 325.554L382.36 -71.0913L383.262 -70.5524Z" fill="url(#paint9_linear)"/>
<path fill-rule="evenodd" clip-rule="evenodd" d="M375.735 -92.4345L172.545 347.907L171.608 347.438L374.799 -92.9041L375.735 -92.4345Z" fill="url(#paint10_linear)"/>
</g>
<defs>
<linearGradient id="paint0_linear" x1="270.928" y1="-91.2474" x2="276.891" y2="346.244" gradientUnits="userSpaceOnUse">
<stop stop-color="#0070CC"/>
<stop offset="1" stop-color="#B1C9DC"/>
</linearGradient>
<linearGradient id="paint1_linear" x1="270.928" y1="-91.2474" x2="276.891" y2="346.244" gradientUnits="userSpaceOnUse">
<stop stop-color="#0070CC"/>
<stop offset="1" stop-color="#B1C9DC"/>
</linearGradient>
<linearGradient id="paint2_linear" x1="270.928" y1="-91.2474" x2="276.891" y2="346.244" gradientUnits="userSpaceOnUse">
<stop stop-color="#0070CC"/>
<stop offset="1" stop-color="#B1C9DC"/>
</linearGradient>
<linearGradient id="paint3_linear" x1="270.928" y1="-91.2474" x2="276.891" y2="346.244" gradientUnits="userSpaceOnUse">
<stop stop-color="#0070CC"/>
<stop offset="1" stop-color="#B1C9DC"/>
</linearGradient>
<linearGradient id="paint4_linear" x1="270.928" y1="-91.2474" x2="276.891" y2="346.244" gradientUnits="userSpaceOnUse">
<stop stop-color="#0070CC"/>
<stop offset="1" stop-color="#B1C9DC"/>
</linearGradient>
<linearGradient id="paint5_linear" x1="270.928" y1="-91.2474" x2="276.891" y2="346.244" gradientUnits="userSpaceOnUse">
<stop stop-color="#0070CC"/>
<stop offset="1" stop-color="#B1C9DC"/>
</linearGradient>
<linearGradient id="paint6_linear" x1="270.928" y1="-91.2474" x2="276.891" y2="346.244" gradientUnits="userSpaceOnUse">
<stop stop-color="#0070CC"/>
<stop offset="1" stop-color="#B1C9DC"/>
</linearGradient>
<linearGradient id="paint7_linear" x1="270.928" y1="-91.2474" x2="276.891" y2="346.244" gradientUnits="userSpaceOnUse">
<stop stop-color="#0070CC"/>
<stop offset="1" stop-color="#B1C9DC"/>
</linearGradient>
<linearGradient id="paint8_linear" x1="270.928" y1="-91.2474" x2="276.891" y2="346.244" gradientUnits="userSpaceOnUse">
<stop stop-color="#0070CC"/>
<stop offset="1" stop-color="#B1C9DC"/>
</linearGradient>
<linearGradient id="paint9_linear" x1="270.928" y1="-91.2474" x2="276.891" y2="346.244" gradientUnits="userSpaceOnUse">
<stop stop-color="#0070CC"/>
<stop offset="1" stop-color="#B1C9DC"/>
</linearGradient>
<linearGradient id="paint10_linear" x1="270.928" y1="-91.2474" x2="276.891" y2="346.244" gradientUnits="userSpaceOnUse">
<stop stop-color="#0070CC"/>
<stop offset="1" stop-color="#B1C9DC"/>
</linearGradient>
</defs>
</svg>
