<svg width="577" height="412" viewBox="0 0 577 412" fill="none" xmlns="http://www.w3.org/2000/svg">
<rect y="344" width="577" height="39" rx="19.5" fill="#E6E6E6"/>
<path d="M334.485 359.448V320.101C334.485 320.101 340.132 324.867 357.685 324.867C375.238 324.867 381.496 319.557 381.496 319.557V359.448C381.496 359.448 382.676 365.864 358.581 365.864C334.485 365.864 334.485 359.448 334.485 359.448Z" fill="white"/>
<path d="M381 318.55C381 319.12 380.623 319.852 379.486 320.681C378.371 321.493 376.693 322.266 374.53 322.933C370.215 324.263 364.194 325.1 357.5 325.1C350.806 325.1 344.785 324.263 340.47 322.933C338.307 322.266 336.629 321.493 335.514 320.681C334.377 319.852 334 319.12 334 318.55C334 317.98 334.377 317.248 335.514 316.419C336.629 315.607 338.307 314.834 340.47 314.167C344.785 312.837 350.806 312 357.5 312C364.194 312 370.215 312.837 374.53 314.167C376.693 314.834 378.371 315.607 379.486 316.419C380.623 317.248 381 317.98 381 318.55Z" fill="white" stroke="#2D2D2D" stroke-width="2"/>
<path d="M333.99 318.55L333.99 358.817" stroke="#2D2D2D" stroke-width="2"/>
<path d="M381.505 318.047L381.505 358.817" stroke="#2D2D2D" stroke-width="2"/>
<path d="M381.695 358.554C381.695 362.667 370.973 366 357.748 366C344.522 366 333.8 362.667 333.8 358.554" stroke="#2D2D2D" stroke-width="2"/>
<path d="M483.485 359.448V320.101C483.485 320.101 489.132 324.867 506.685 324.867C524.238 324.867 530.496 319.557 530.496 319.557V359.448C530.496 359.448 531.676 365.864 507.581 365.864C483.485 365.864 483.485 359.448 483.485 359.448Z" fill="white"/>
<path d="M530 318.55C530 319.12 529.623 319.852 528.486 320.681C527.371 321.493 525.693 322.266 523.53 322.933C519.215 324.263 513.194 325.1 506.5 325.1C499.806 325.1 493.785 324.263 489.47 322.933C487.307 322.266 485.629 321.493 484.514 320.681C483.377 319.852 483 319.12 483 318.55C483 317.98 483.377 317.248 484.514 316.419C485.629 315.607 487.307 314.834 489.47 314.167C493.785 312.837 499.806 312 506.5 312C513.194 312 519.215 312.837 523.53 314.167C525.693 314.834 527.371 315.607 528.486 316.419C529.623 317.248 530 317.98 530 318.55Z" fill="white" stroke="#2D2D2D" stroke-width="2"/>
<path d="M482.99 318.55L482.99 358.817" stroke="#2D2D2D" stroke-width="2"/>
<path d="M530.505 318.047L530.505 358.817" stroke="#2D2D2D" stroke-width="2"/>
<path d="M530.695 358.554C530.695 362.667 519.973 366 506.748 366C493.522 366 482.8 362.667 482.8 358.554" stroke="#2D2D2D" stroke-width="2"/>
<path d="M185.485 359.448V320.101C185.485 320.101 191.132 324.867 208.685 324.867C226.238 324.867 232.496 319.557 232.496 319.557V359.448C232.496 359.448 233.676 365.864 209.581 365.864C185.485 365.864 185.485 359.448 185.485 359.448Z" fill="white"/>
<path d="M232 318.55C232 319.12 231.623 319.852 230.486 320.681C229.371 321.493 227.693 322.266 225.53 322.933C221.215 324.263 215.194 325.1 208.5 325.1C201.806 325.1 195.785 324.263 191.47 322.933C189.307 322.266 187.629 321.493 186.514 320.681C185.377 319.852 185 319.12 185 318.55C185 317.98 185.377 317.248 186.514 316.419C187.629 315.607 189.307 314.834 191.47 314.167C195.785 312.837 201.806 312 208.5 312C215.194 312 221.215 312.837 225.53 314.167C227.693 314.834 229.371 315.607 230.486 316.419C231.623 317.248 232 317.98 232 318.55Z" fill="white" stroke="#2D2D2D" stroke-width="2"/>
<path d="M184.99 318.55L184.99 358.817" stroke="#2D2D2D" stroke-width="2"/>
<path d="M232.505 318.047L232.505 358.817" stroke="#2D2D2D" stroke-width="2"/>
<path d="M232.695 358.554C232.695 362.667 221.973 366 208.748 366C195.522 366 184.8 362.667 184.8 358.554" stroke="#2D2D2D" stroke-width="2"/>
<path d="M36.4849 359.448V320.101C36.4849 320.101 42.1323 324.867 59.685 324.867C77.2377 324.867 83.4957 319.557 83.4957 319.557V359.448C83.4957 359.448 84.6762 365.864 60.5805 365.864C36.4849 365.864 36.4849 359.448 36.4849 359.448Z" fill="white"/>
<path d="M83 318.55C83 319.12 82.6226 319.852 81.4858 320.681C80.3707 321.493 78.6929 322.266 76.5296 322.933C72.2153 324.263 66.1942 325.1 59.5 325.1C52.8058 325.1 46.7847 324.263 42.4704 322.933C40.3071 322.266 38.6293 321.493 37.5142 320.681C36.3774 319.852 36 319.12 36 318.55C36 317.98 36.3774 317.248 37.5142 316.419C38.6293 315.607 40.3071 314.834 42.4704 314.167C46.7847 312.837 52.8058 312 59.5 312C66.1942 312 72.2153 312.837 76.5296 314.167C78.6929 314.834 80.3707 315.607 81.4858 316.419C82.6226 317.248 83 317.98 83 318.55Z" fill="white" stroke="#2D2D2D" stroke-width="2"/>
<path d="M35.9899 318.55L35.9899 358.817" stroke="#2D2D2D" stroke-width="2"/>
<path d="M83.505 318.047L83.505 358.817" stroke="#2D2D2D" stroke-width="2"/>
<path d="M83.695 358.554C83.695 362.667 72.9733 366 59.7475 366C46.5217 366 35.8 362.667 35.8 358.554" stroke="#2D2D2D" stroke-width="2"/>
<path d="M458.967 399.027C458.967 396.651 459.605 394.792 460.881 393.451C462.157 392.104 463.804 391.43 465.822 391.43C467.144 391.43 468.335 391.745 469.396 392.377C470.458 393.008 471.265 393.891 471.818 395.023C472.378 396.15 472.658 397.429 472.658 398.861C472.658 400.313 472.365 401.612 471.779 402.758C471.193 403.904 470.363 404.773 469.289 405.365C468.215 405.951 467.056 406.244 465.812 406.244C464.465 406.244 463.26 405.919 462.199 405.268C461.138 404.617 460.334 403.728 459.787 402.602C459.24 401.475 458.967 400.284 458.967 399.027ZM460.92 399.057C460.92 400.782 461.382 402.143 462.307 403.139C463.238 404.128 464.403 404.623 465.803 404.623C467.229 404.623 468.4 404.122 469.318 403.119C470.243 402.117 470.705 400.694 470.705 398.852C470.705 397.686 470.507 396.671 470.109 395.805C469.719 394.932 469.143 394.258 468.381 393.783C467.626 393.301 466.776 393.061 465.832 393.061C464.491 393.061 463.335 393.523 462.365 394.447C461.402 395.365 460.92 396.902 460.92 399.057ZM478.923 404.428L479.177 405.98C478.682 406.085 478.239 406.137 477.848 406.137C477.21 406.137 476.716 406.036 476.364 405.834C476.012 405.632 475.765 405.368 475.622 405.043C475.479 404.711 475.407 404.018 475.407 402.963V396.996H474.118V395.629H475.407V393.061L477.155 392.006V395.629H478.923V396.996H477.155V403.061C477.155 403.562 477.184 403.884 477.243 404.027C477.308 404.171 477.409 404.285 477.546 404.369C477.689 404.454 477.891 404.496 478.151 404.496C478.346 404.496 478.604 404.473 478.923 404.428ZM480.851 406V391.684H482.609V396.82C483.429 395.87 484.464 395.395 485.714 395.395C486.483 395.395 487.15 395.548 487.716 395.854C488.283 396.153 488.686 396.57 488.927 397.104C489.175 397.637 489.298 398.412 489.298 399.428V406H487.541V399.428C487.541 398.549 487.349 397.911 486.964 397.514C486.587 397.11 486.05 396.908 485.353 396.908C484.832 396.908 484.341 397.045 483.879 397.318C483.423 397.585 483.097 397.95 482.902 398.412C482.707 398.874 482.609 399.512 482.609 400.326V406H480.851ZM499.284 402.66L501.1 402.885C500.814 403.946 500.283 404.77 499.508 405.355C498.733 405.941 497.744 406.234 496.539 406.234C495.023 406.234 493.818 405.769 492.926 404.838C492.041 403.9 491.598 402.589 491.598 400.902C491.598 399.158 492.047 397.803 492.946 396.84C493.844 395.876 495.01 395.395 496.442 395.395C497.829 395.395 498.961 395.867 499.84 396.811C500.719 397.755 501.159 399.083 501.159 400.795C501.159 400.899 501.155 401.055 501.149 401.264H493.414C493.48 402.403 493.802 403.275 494.381 403.881C494.961 404.486 495.683 404.789 496.549 404.789C497.194 404.789 497.744 404.62 498.2 404.281C498.655 403.943 499.017 403.402 499.284 402.66ZM493.512 399.818H499.303C499.225 398.946 499.004 398.292 498.639 397.855C498.079 397.178 497.353 396.84 496.461 396.84C495.654 396.84 494.974 397.11 494.42 397.65C493.873 398.191 493.571 398.913 493.512 399.818ZM503.497 406V395.629H505.079V397.201C505.483 396.465 505.854 395.98 506.193 395.746C506.538 395.512 506.915 395.395 507.325 395.395C507.918 395.395 508.52 395.583 509.132 395.961L508.527 397.592C508.097 397.338 507.667 397.211 507.237 397.211C506.853 397.211 506.508 397.328 506.202 397.562C505.896 397.79 505.678 398.109 505.548 398.52C505.353 399.145 505.255 399.828 505.255 400.57V406H503.497ZM515.44 402.904L517.179 402.631C517.276 403.327 517.546 403.861 517.989 404.232C518.438 404.604 519.063 404.789 519.864 404.789C520.671 404.789 521.27 404.626 521.661 404.301C522.052 403.969 522.247 403.581 522.247 403.139C522.247 402.742 522.074 402.429 521.729 402.201C521.488 402.045 520.889 401.846 519.932 401.605C518.643 401.28 517.748 401 517.247 400.766C516.752 400.525 516.374 400.196 516.114 399.779C515.86 399.356 515.733 398.891 515.733 398.383C515.733 397.921 515.837 397.494 516.046 397.104C516.261 396.706 516.55 396.378 516.915 396.117C517.188 395.915 517.559 395.746 518.028 395.609C518.503 395.466 519.011 395.395 519.552 395.395C520.365 395.395 521.078 395.512 521.69 395.746C522.309 395.98 522.764 396.299 523.057 396.703C523.35 397.1 523.552 397.634 523.663 398.305L521.944 398.539C521.866 398.005 521.638 397.589 521.261 397.289C520.889 396.99 520.362 396.84 519.679 396.84C518.871 396.84 518.295 396.973 517.95 397.24C517.605 397.507 517.432 397.82 517.432 398.178C517.432 398.406 517.504 398.611 517.647 398.793C517.79 398.982 518.015 399.138 518.321 399.262C518.497 399.327 519.014 399.477 519.874 399.711C521.117 400.043 521.983 400.316 522.471 400.531C522.966 400.74 523.354 401.046 523.634 401.449C523.914 401.853 524.054 402.354 524.054 402.953C524.054 403.539 523.881 404.092 523.536 404.613C523.197 405.128 522.706 405.528 522.061 405.814C521.417 406.094 520.688 406.234 519.874 406.234C518.526 406.234 517.498 405.954 516.788 405.395C516.085 404.835 515.636 404.005 515.44 402.904ZM530.181 404.428L530.435 405.98C529.94 406.085 529.498 406.137 529.107 406.137C528.469 406.137 527.974 406.036 527.623 405.834C527.271 405.632 527.024 405.368 526.88 405.043C526.737 404.711 526.666 404.018 526.666 402.963V396.996H525.377V395.629H526.666V393.061L528.414 392.006V395.629H530.181V396.996H528.414V403.061C528.414 403.562 528.443 403.884 528.502 404.027C528.567 404.171 528.668 404.285 528.804 404.369C528.948 404.454 529.149 404.496 529.41 404.496C529.605 404.496 529.862 404.473 530.181 404.428ZM531.455 400.814C531.455 398.894 531.989 397.471 533.057 396.547C533.949 395.779 535.036 395.395 536.319 395.395C537.745 395.395 538.91 395.863 539.815 396.801C540.72 397.732 541.172 399.021 541.172 400.668C541.172 402.003 540.97 403.054 540.567 403.822C540.17 404.584 539.587 405.176 538.819 405.6C538.057 406.023 537.224 406.234 536.319 406.234C534.867 406.234 533.692 405.769 532.793 404.838C531.901 403.907 531.455 402.566 531.455 400.814ZM533.262 400.814C533.262 402.143 533.552 403.139 534.131 403.803C534.711 404.46 535.44 404.789 536.319 404.789C537.191 404.789 537.917 404.457 538.496 403.793C539.076 403.129 539.366 402.117 539.366 400.756C539.366 399.473 539.073 398.503 538.487 397.846C537.907 397.182 537.185 396.85 536.319 396.85C535.44 396.85 534.711 397.178 534.131 397.836C533.552 398.493 533.262 399.486 533.262 400.814ZM543.423 406V395.629H545.005V397.201C545.409 396.465 545.78 395.98 546.118 395.746C546.463 395.512 546.841 395.395 547.251 395.395C547.844 395.395 548.446 395.583 549.058 395.961L548.452 397.592C548.023 397.338 547.593 397.211 547.163 397.211C546.779 397.211 546.434 397.328 546.128 397.562C545.822 397.79 545.604 398.109 545.474 398.52C545.279 399.145 545.181 399.828 545.181 400.57V406H543.423ZM557.402 402.66L559.219 402.885C558.932 403.946 558.402 404.77 557.627 405.355C556.852 405.941 555.863 406.234 554.658 406.234C553.141 406.234 551.937 405.769 551.045 404.838C550.16 403.9 549.717 402.589 549.717 400.902C549.717 399.158 550.166 397.803 551.064 396.84C551.963 395.876 553.128 395.395 554.561 395.395C555.947 395.395 557.08 395.867 557.959 396.811C558.838 397.755 559.277 399.083 559.277 400.795C559.277 400.899 559.274 401.055 559.268 401.264H551.533C551.598 402.403 551.921 403.275 552.5 403.881C553.079 404.486 553.802 404.789 554.668 404.789C555.312 404.789 555.863 404.62 556.318 404.281C556.774 403.943 557.135 403.402 557.402 402.66ZM551.631 399.818H557.422C557.344 398.946 557.122 398.292 556.758 397.855C556.198 397.178 555.472 396.84 554.58 396.84C553.773 396.84 553.092 397.11 552.539 397.65C551.992 398.191 551.689 398.913 551.631 399.818Z" fill="#2D2D2D"/>
<path d="M326.523 407V392.684H328.467L335.986 403.924V392.684H337.803V407H335.859L328.34 395.75V407H326.523ZM340.317 401.814C340.317 399.894 340.851 398.471 341.919 397.547C342.811 396.779 343.898 396.395 345.18 396.395C346.606 396.395 347.772 396.863 348.677 397.801C349.582 398.732 350.034 400.021 350.034 401.668C350.034 403.003 349.832 404.054 349.429 404.822C349.031 405.584 348.449 406.176 347.68 406.6C346.919 407.023 346.085 407.234 345.18 407.234C343.729 407.234 342.554 406.769 341.655 405.838C340.763 404.907 340.317 403.566 340.317 401.814ZM342.124 401.814C342.124 403.143 342.414 404.139 342.993 404.803C343.572 405.46 344.302 405.789 345.18 405.789C346.053 405.789 346.779 405.457 347.358 404.793C347.938 404.129 348.227 403.117 348.227 401.756C348.227 400.473 347.934 399.503 347.348 398.846C346.769 398.182 346.046 397.85 345.18 397.85C344.302 397.85 343.572 398.178 342.993 398.836C342.414 399.493 342.124 400.486 342.124 401.814ZM351.884 402.4L353.671 402.244C353.756 402.96 353.951 403.549 354.257 404.012C354.57 404.467 355.052 404.839 355.703 405.125C356.354 405.405 357.086 405.545 357.9 405.545C358.623 405.545 359.261 405.438 359.814 405.223C360.367 405.008 360.778 404.715 361.045 404.344C361.318 403.966 361.455 403.556 361.455 403.113C361.455 402.664 361.324 402.273 361.064 401.941C360.804 401.603 360.374 401.32 359.775 401.092C359.391 400.942 358.541 400.711 357.226 400.398C355.911 400.079 354.99 399.78 354.462 399.5C353.779 399.142 353.268 398.699 352.929 398.172C352.597 397.638 352.431 397.042 352.431 396.385C352.431 395.662 352.636 394.988 353.046 394.363C353.457 393.732 354.056 393.253 354.843 392.928C355.631 392.602 356.507 392.439 357.47 392.439C358.532 392.439 359.466 392.612 360.273 392.957C361.087 393.296 361.712 393.797 362.148 394.461C362.584 395.125 362.819 395.877 362.851 396.717L361.035 396.854C360.937 395.949 360.605 395.265 360.039 394.803C359.479 394.34 358.649 394.109 357.548 394.109C356.403 394.109 355.566 394.321 355.039 394.744C354.518 395.161 354.257 395.665 354.257 396.258C354.257 396.772 354.443 397.195 354.814 397.527C355.179 397.859 356.129 398.201 357.666 398.553C359.209 398.898 360.267 399.201 360.839 399.461C361.673 399.845 362.288 400.333 362.685 400.926C363.082 401.512 363.281 402.189 363.281 402.957C363.281 403.719 363.063 404.438 362.627 405.115C362.19 405.786 361.562 406.31 360.742 406.688C359.928 407.059 359.01 407.244 357.988 407.244C356.692 407.244 355.605 407.055 354.726 406.678C353.854 406.3 353.167 405.734 352.666 404.979C352.171 404.217 351.91 403.357 351.884 402.4ZM376.918 405.467C377.797 406.072 378.608 406.515 379.35 406.795L378.793 408.113C377.765 407.742 376.739 407.156 375.717 406.355C374.656 406.948 373.484 407.244 372.202 407.244C370.906 407.244 369.731 406.932 368.676 406.307C367.621 405.682 366.808 404.803 366.235 403.67C365.668 402.537 365.385 401.261 365.385 399.842C365.385 398.429 365.672 397.143 366.245 395.984C366.817 394.826 367.631 393.943 368.686 393.338C369.747 392.732 370.932 392.43 372.241 392.43C373.562 392.43 374.754 392.745 375.815 393.377C376.876 394.002 377.683 394.881 378.237 396.014C378.797 397.14 379.077 398.413 379.077 399.832C379.077 401.01 378.898 402.072 378.539 403.016C378.181 403.953 377.641 404.77 376.918 405.467ZM372.748 403.045C373.842 403.351 374.744 403.807 375.454 404.412C376.567 403.396 377.123 401.87 377.123 399.832C377.123 398.673 376.925 397.661 376.528 396.795C376.137 395.929 375.561 395.258 374.799 394.783C374.044 394.301 373.194 394.061 372.25 394.061C370.838 394.061 369.666 394.546 368.735 395.516C367.804 396.479 367.338 397.921 367.338 399.842C367.338 401.704 367.797 403.133 368.715 404.129C369.64 405.125 370.818 405.623 372.25 405.623C372.927 405.623 373.565 405.496 374.164 405.242C373.572 404.858 372.947 404.585 372.289 404.422L372.748 403.045ZM381.757 407V392.684H383.652V405.311H390.702V407H381.757Z" fill="#2D2D2D"/>
<path d="M172.602 407V392.684H174.496V398.562H181.938V392.684H183.832V407H181.938V400.252H174.496V407H172.602ZM193.739 405.721C193.088 406.274 192.46 406.665 191.854 406.893C191.255 407.12 190.611 407.234 189.921 407.234C188.781 407.234 187.906 406.958 187.294 406.404C186.682 405.844 186.376 405.132 186.376 404.266C186.376 403.758 186.49 403.296 186.718 402.879C186.952 402.456 187.255 402.117 187.626 401.863C188.003 401.609 188.427 401.417 188.895 401.287C189.24 401.196 189.761 401.108 190.458 401.023C191.877 400.854 192.922 400.652 193.593 400.418C193.599 400.177 193.602 400.024 193.602 399.959C193.602 399.243 193.436 398.738 193.104 398.445C192.655 398.048 191.988 397.85 191.102 397.85C190.276 397.85 189.664 397.996 189.266 398.289C188.876 398.576 188.586 399.087 188.397 399.822L186.679 399.588C186.835 398.852 187.092 398.26 187.45 397.811C187.808 397.355 188.326 397.007 189.003 396.766C189.68 396.518 190.464 396.395 191.356 396.395C192.242 396.395 192.961 396.499 193.514 396.707C194.068 396.915 194.475 397.179 194.735 397.498C194.996 397.811 195.178 398.208 195.282 398.689C195.341 398.989 195.37 399.529 195.37 400.311V402.654C195.37 404.288 195.406 405.324 195.477 405.76C195.555 406.189 195.705 406.603 195.927 407H194.091C193.908 406.635 193.791 406.209 193.739 405.721ZM193.593 401.795C192.955 402.055 191.998 402.277 190.721 402.459C189.999 402.563 189.488 402.68 189.188 402.811C188.889 402.941 188.658 403.133 188.495 403.387C188.332 403.634 188.251 403.911 188.251 404.217C188.251 404.686 188.427 405.076 188.778 405.389C189.136 405.701 189.657 405.857 190.341 405.857C191.018 405.857 191.62 405.711 192.147 405.418C192.675 405.118 193.062 404.712 193.309 404.197C193.498 403.8 193.593 403.214 193.593 402.439V401.795ZM205.033 407V405.691C204.375 406.72 203.408 407.234 202.132 407.234C201.306 407.234 200.544 407.007 199.847 406.551C199.157 406.095 198.62 405.46 198.236 404.646C197.858 403.826 197.67 402.885 197.67 401.824C197.67 400.789 197.842 399.852 198.187 399.012C198.532 398.165 199.05 397.518 199.74 397.068C200.43 396.619 201.201 396.395 202.054 396.395C202.679 396.395 203.236 396.528 203.724 396.795C204.212 397.055 204.61 397.397 204.916 397.82V392.684H206.664V407H205.033ZM199.476 401.824C199.476 403.152 199.756 404.145 200.316 404.803C200.876 405.46 201.537 405.789 202.298 405.789C203.067 405.789 203.718 405.477 204.252 404.852C204.792 404.22 205.062 403.26 205.062 401.971C205.062 400.551 204.789 399.51 204.242 398.846C203.695 398.182 203.021 397.85 202.22 397.85C201.439 397.85 200.785 398.169 200.257 398.807C199.737 399.445 199.476 400.451 199.476 401.824ZM208.983 401.814C208.983 399.894 209.517 398.471 210.584 397.547C211.476 396.779 212.564 396.395 213.846 396.395C215.272 396.395 216.437 396.863 217.342 397.801C218.247 398.732 218.7 400.021 218.7 401.668C218.7 403.003 218.498 404.054 218.094 404.822C217.697 405.584 217.114 406.176 216.346 406.6C215.584 407.023 214.751 407.234 213.846 407.234C212.394 407.234 211.219 406.769 210.321 405.838C209.429 404.907 208.983 403.566 208.983 401.814ZM210.789 401.814C210.789 403.143 211.079 404.139 211.659 404.803C212.238 405.46 212.967 405.789 213.846 405.789C214.718 405.789 215.444 405.457 216.024 404.793C216.603 404.129 216.893 403.117 216.893 401.756C216.893 400.473 216.6 399.503 216.014 398.846C215.435 398.182 214.712 397.85 213.846 397.85C212.967 397.85 212.238 398.178 211.659 398.836C211.079 399.493 210.789 400.486 210.789 401.814ZM220.316 401.814C220.316 399.894 220.849 398.471 221.917 397.547C222.809 396.779 223.896 396.395 225.179 396.395C226.605 396.395 227.77 396.863 228.675 397.801C229.58 398.732 230.032 400.021 230.032 401.668C230.032 403.003 229.831 404.054 229.427 404.822C229.03 405.584 228.447 406.176 227.679 406.6C226.917 407.023 226.084 407.234 225.179 407.234C223.727 407.234 222.552 406.769 221.654 405.838C220.762 404.907 220.316 403.566 220.316 401.814ZM222.122 401.814C222.122 403.143 222.412 404.139 222.991 404.803C223.571 405.46 224.3 405.789 225.179 405.789C226.051 405.789 226.777 405.457 227.357 404.793C227.936 404.129 228.226 403.117 228.226 401.756C228.226 400.473 227.933 399.503 227.347 398.846C226.767 398.182 226.045 397.85 225.179 397.85C224.3 397.85 223.571 398.178 222.991 398.836C222.412 399.493 222.122 400.486 222.122 401.814ZM232.303 410.975V396.629H233.904V397.977C234.282 397.449 234.708 397.055 235.184 396.795C235.659 396.528 236.235 396.395 236.912 396.395C237.798 396.395 238.579 396.622 239.256 397.078C239.933 397.534 240.444 398.178 240.789 399.012C241.134 399.839 241.307 400.747 241.307 401.736C241.307 402.798 241.115 403.755 240.73 404.607C240.353 405.454 239.799 406.105 239.07 406.561C238.348 407.01 237.586 407.234 236.785 407.234C236.199 407.234 235.672 407.111 235.203 406.863C234.741 406.616 234.36 406.303 234.061 405.926V410.975H232.303ZM233.895 401.873C233.895 403.208 234.165 404.194 234.705 404.832C235.245 405.47 235.9 405.789 236.668 405.789C237.449 405.789 238.117 405.46 238.67 404.803C239.23 404.139 239.51 403.113 239.51 401.727C239.51 400.405 239.236 399.415 238.689 398.758C238.149 398.1 237.501 397.771 236.746 397.771C235.997 397.771 235.333 398.123 234.754 398.826C234.181 399.523 233.895 400.538 233.895 401.873Z" fill="#2D2D2D"/>
<path d="M25.5723 407V392.684H31.9199C33.196 392.684 34.166 392.814 34.8301 393.074C35.4941 393.328 36.0247 393.781 36.4219 394.432C36.819 395.083 37.0176 395.802 37.0176 396.59C37.0176 397.605 36.6888 398.462 36.0312 399.158C35.3737 399.855 34.3581 400.298 32.9844 400.486C33.4857 400.727 33.8665 400.965 34.127 401.199C34.6803 401.707 35.2044 402.342 35.6992 403.104L38.1895 407H35.8066L33.9121 404.021C33.3587 403.162 32.903 402.505 32.5449 402.049C32.1868 401.593 31.8646 401.274 31.5781 401.092C31.2982 400.91 31.0117 400.783 30.7188 400.711C30.5039 400.665 30.1523 400.643 29.6641 400.643H27.4668V407H25.5723ZM27.4668 399.002H31.5391C32.4049 399.002 33.082 398.914 33.5703 398.738C34.0586 398.556 34.4297 398.27 34.6836 397.879C34.9375 397.482 35.0645 397.052 35.0645 396.59C35.0645 395.913 34.8171 395.356 34.3223 394.92C33.834 394.484 33.0592 394.266 31.998 394.266H27.4668V399.002ZM40.1961 407V392.684H45.1277C46.241 392.684 47.0906 392.752 47.6766 392.889C48.4969 393.077 49.1967 393.419 49.7762 393.914C50.5314 394.552 51.0945 395.369 51.4656 396.365C51.8432 397.355 52.032 398.488 52.032 399.764C52.032 400.851 51.9051 401.814 51.6512 402.654C51.3973 403.494 51.0717 404.191 50.6746 404.744C50.2775 405.291 49.8413 405.724 49.366 406.043C48.8973 406.355 48.3276 406.593 47.657 406.756C46.993 406.919 46.228 407 45.3621 407H40.1961ZM42.0906 405.311H45.1473C46.0913 405.311 46.8302 405.223 47.3641 405.047C47.9044 404.871 48.3341 404.624 48.6531 404.305C49.1023 403.855 49.4507 403.253 49.698 402.498C49.952 401.736 50.0789 400.815 50.0789 399.734C50.0789 398.237 49.8315 397.088 49.3367 396.287C48.8484 395.48 48.2527 394.939 47.5496 394.666C47.0418 394.471 46.2247 394.373 45.0984 394.373H42.0906V405.311ZM54.7711 407V392.684H60.1422C61.2359 392.684 62.1116 392.83 62.7691 393.123C63.4332 393.41 63.9508 393.855 64.3219 394.461C64.6995 395.06 64.8883 395.688 64.8883 396.346C64.8883 396.958 64.7223 397.534 64.3902 398.074C64.0582 398.615 63.5569 399.051 62.8863 399.383C63.7522 399.637 64.4163 400.07 64.8785 400.682C65.3473 401.294 65.5816 402.016 65.5816 402.85C65.5816 403.52 65.4384 404.145 65.152 404.725C64.872 405.298 64.5237 405.74 64.107 406.053C63.6904 406.365 63.1663 406.603 62.5348 406.766C61.9098 406.922 61.1415 407 60.2301 407H54.7711ZM56.6656 398.699H59.7613C60.6012 398.699 61.2034 398.644 61.568 398.533C62.0497 398.39 62.4111 398.152 62.652 397.82C62.8993 397.488 63.023 397.072 63.023 396.57C63.023 396.095 62.9091 395.678 62.6812 395.32C62.4534 394.956 62.1279 394.708 61.7047 394.578C61.2815 394.441 60.5556 394.373 59.527 394.373H56.6656V398.699ZM56.6656 405.311H60.2301C60.8421 405.311 61.2717 405.288 61.5191 405.242C61.9553 405.164 62.3199 405.034 62.6129 404.852C62.9059 404.669 63.1467 404.406 63.3355 404.061C63.5243 403.709 63.6187 403.305 63.6187 402.85C63.6187 402.316 63.482 401.854 63.2086 401.463C62.9352 401.066 62.5543 400.789 62.066 400.633C61.5842 400.47 60.8876 400.389 59.9762 400.389H56.6656V405.311ZM68.3305 407V392.684H71.182L74.5707 402.82C74.8832 403.764 75.1111 404.471 75.2543 404.939C75.4171 404.419 75.671 403.654 76.016 402.645L79.4437 392.684H81.9926V407H80.1664V395.018L76.0062 407H74.2973L70.1566 394.812V407H68.3305ZM84.6047 402.4L86.3918 402.244C86.4764 402.96 86.6717 403.549 86.9777 404.012C87.2902 404.467 87.772 404.839 88.423 405.125C89.0741 405.405 89.8065 405.545 90.6203 405.545C91.343 405.545 91.981 405.438 92.5344 405.223C93.0878 405.008 93.4979 404.715 93.7648 404.344C94.0383 403.966 94.175 403.556 94.175 403.113C94.175 402.664 94.0448 402.273 93.7844 401.941C93.524 401.603 93.0943 401.32 92.4953 401.092C92.1112 400.942 91.2616 400.711 89.9465 400.398C88.6314 400.079 87.7102 399.78 87.1828 399.5C86.4992 399.142 85.9882 398.699 85.6496 398.172C85.3176 397.638 85.1516 397.042 85.1516 396.385C85.1516 395.662 85.3566 394.988 85.7668 394.363C86.177 393.732 86.7759 393.253 87.5637 392.928C88.3514 392.602 89.2271 392.439 90.1906 392.439C91.2518 392.439 92.1861 392.612 92.9934 392.957C93.8072 393.296 94.4322 393.797 94.8684 394.461C95.3046 395.125 95.5389 395.877 95.5715 396.717L93.7551 396.854C93.6574 395.949 93.3254 395.265 92.759 394.803C92.1991 394.34 91.369 394.109 90.2687 394.109C89.1229 394.109 88.2863 394.321 87.759 394.744C87.2382 395.161 86.9777 395.665 86.9777 396.258C86.9777 396.772 87.1633 397.195 87.5344 397.527C87.899 397.859 88.8495 398.201 90.3859 398.553C91.9289 398.898 92.9868 399.201 93.5598 399.461C94.3931 399.845 95.0083 400.333 95.4055 400.926C95.8026 401.512 96.0012 402.189 96.0012 402.957C96.0012 403.719 95.7831 404.438 95.3469 405.115C94.9107 405.786 94.2824 406.31 93.4621 406.688C92.6483 407.059 91.7303 407.244 90.7082 407.244C89.4126 407.244 88.3254 407.055 87.4465 406.678C86.5741 406.3 85.8872 405.734 85.3859 404.979C84.8911 404.217 84.6307 403.357 84.6047 402.4Z" fill="#2D2D2D"/>
<path d="M37.7071 292.132C37.3166 292.522 36.6834 292.522 36.2929 292.132L29.9289 285.768C29.5384 285.377 29.5384 284.744 29.9289 284.354C30.3195 283.963 30.9526 283.963 31.3431 284.354L37 290.011L42.6569 284.354C43.0474 283.963 43.6805 283.963 44.0711 284.354C44.4616 284.744 44.4616 285.377 44.0711 285.768L37.7071 292.132ZM36 291.425V164.425H38V291.425H36ZM36 164.425C36 134.601 60.1766 110.425 90 110.425V112.425C61.2812 112.425 38 135.706 38 164.425H36Z" fill="#2D2D2D"/>
<path d="M541 291.425V164.425H539V291.425H541ZM541 164.425C541 134.601 516.823 110.425 487 110.425V112.425C515.719 112.425 539 135.706 539 164.425H541Z" fill="#2D2D2D"/>
<path d="M493.5 120L487 112L493.5 105" stroke="#2D2D2D" stroke-width="2"/>
<path d="M338.256 164.324V24.7773C338.256 24.7773 353.133 40.1004 399.373 40.1004C445.612 40.1004 462.098 24.6304 462.098 24.6304V164.324C462.098 164.324 455.439 181.288 399.373 181.94C343.306 182.593 338.256 164.324 338.256 164.324Z" fill="#E0454C"/>
<path d="M462 20.8032C462 23.1046 460.546 25.471 457.495 27.7765C454.46 30.0701 449.998 32.1787 444.377 33.9674C433.146 37.5411 417.511 39.7678 400.032 39.7678C382.552 39.7678 366.918 37.5411 355.687 33.9674C350.066 32.1787 345.604 30.0701 342.569 27.7765C339.518 25.471 338.064 23.1046 338.064 20.8032C338.064 18.5018 339.518 16.1353 342.569 13.8298C345.604 11.5362 350.066 9.4276 355.687 7.63893C366.918 4.06525 382.552 1.8385 400.032 1.8385C417.511 1.8385 433.146 4.06525 444.377 7.63893C449.998 9.4276 454.46 11.5362 457.495 13.8298C460.546 16.1353 462 18.5018 462 20.8032Z" fill="#E0454C" stroke="#2D2D2D" stroke-width="2"/>
<path d="M337.904 21.1675L338.373 162.26" stroke="#2D2D2D" stroke-width="2"/>
<path d="M462.098 21.1856L462.098 163.258" stroke="#2D2D2D" stroke-width="2"/>
<path d="M462.098 162.476C462.098 173.066 434.375 181.65 400.177 181.65C365.979 181.65 338.256 173.066 338.256 162.476" stroke="#2D2D2D" stroke-width="2"/>
<path d="M356.671 88.9492V73.9776H359.669L363.23 84.5783C363.559 85.5655 363.798 86.3042 363.949 86.7944C364.12 86.2497 364.387 85.4497 364.75 84.3944L368.353 73.9776H371.032V88.9492H369.112V76.4184L364.739 88.9492H362.943L358.591 76.204V88.9492H356.671Z" fill="white"/>
<path d="M374.454 88.9492V73.9776H385.335V75.7444H376.445V80.3298H384.77V82.0864H376.445V87.1825H385.684V88.9492H374.454Z" fill="white"/>
<path d="M388.541 88.9492V73.9776H391.538L395.1 84.5783C395.429 85.5655 395.668 86.3042 395.819 86.7944C395.99 86.2497 396.257 85.4497 396.619 84.3944L400.222 73.9776H402.902V88.9492H400.982V76.4184L396.609 88.9492H394.813L390.461 76.204V88.9492H388.541Z" fill="white"/>
<path d="M405.677 81.6575C405.677 79.1724 406.348 77.2286 407.689 75.8261C409.03 74.4168 410.761 73.7121 412.883 73.7121C414.272 73.7121 415.524 74.0423 416.64 74.7027C417.755 75.3631 418.604 76.2857 419.185 77.4703C419.774 78.6482 420.068 79.986 420.068 81.4839C420.068 83.0021 419.76 84.3604 419.144 85.5587C418.529 86.7569 417.656 87.6659 416.527 88.2854C415.398 88.8982 414.18 89.2046 412.873 89.2046C411.456 89.2046 410.19 88.8641 409.075 88.1833C407.959 87.5025 407.114 86.5731 406.539 85.3953C405.964 84.2174 405.677 82.9715 405.677 81.6575ZM407.73 81.6881C407.73 83.4923 408.216 84.9153 409.188 85.957C410.166 86.9918 411.391 87.5093 412.862 87.5093C414.361 87.5093 415.593 86.985 416.558 85.9365C417.529 84.888 418.015 83.4004 418.015 81.4736C418.015 80.2549 417.807 79.1928 417.389 78.2873C416.979 77.375 416.373 76.6703 415.572 76.1733C414.778 75.6695 413.885 75.4176 412.893 75.4176C411.483 75.4176 410.269 75.901 409.249 76.8678C408.236 77.8278 407.73 79.4345 407.73 81.6881Z" fill="white"/>
<path d="M422.844 88.9492V73.9776H429.516C430.857 73.9776 431.877 74.1138 432.575 74.3861C433.273 74.6517 433.83 75.1248 434.248 75.8057C434.665 76.4865 434.874 77.2388 434.874 78.0627C434.874 79.1248 434.528 80.0201 433.837 80.7486C433.146 81.4771 432.079 81.94 430.635 82.1375C431.162 82.3894 431.562 82.6379 431.836 82.883C432.417 83.414 432.968 84.0779 433.488 84.8744L436.106 88.9492H433.601L431.61 85.8344C431.028 84.9357 430.549 84.2481 430.173 83.7715C429.796 83.2949 429.458 82.9613 429.157 82.7706C428.862 82.58 428.561 82.4472 428.253 82.3724C428.027 82.3247 427.658 82.3009 427.145 82.3009H424.835V88.9492H422.844ZM424.835 80.5852H429.115C430.026 80.5852 430.737 80.4932 431.251 80.3094C431.764 80.1188 432.154 79.8192 432.421 79.4107C432.688 78.9954 432.821 78.546 432.821 78.0627C432.821 77.3546 432.561 76.7725 432.041 76.3163C431.528 75.8601 430.713 75.6321 429.598 75.6321H424.835V80.5852Z" fill="white"/>
<path d="M442.022 88.9492V82.6072L436.223 73.9776H438.645L441.612 78.4916C442.159 79.3358 442.669 80.1801 443.141 81.0243C443.593 80.2413 444.14 79.3596 444.784 78.3792L447.699 73.9776H450.019L444.014 82.6072V88.9492H442.022Z" fill="white"/>
<path d="M116.34 163.567V22.7635C116.34 22.7635 130.573 39.1778 176.732 39.1778C222.891 39.1778 239.966 22.8497 239.966 22.8497V163.567C239.966 163.567 233.32 180.453 177.35 181.102C121.381 181.751 116.34 163.567 116.34 163.567Z" fill="#E0454C"/>
<path d="M239.936 19.8729C239.936 22.1595 238.484 24.5137 235.433 26.8091C232.398 29.0922 227.936 31.1912 222.314 32.9718C211.083 36.5292 195.448 38.7457 177.968 38.7457C160.488 38.7457 144.853 36.5292 133.622 32.9718C128 31.1912 123.539 29.0922 120.503 26.8091C117.452 24.5137 116 22.1595 116 19.8729C116 17.5862 117.452 15.232 120.503 12.9366C123.539 10.6535 128 8.55447 133.622 6.77395C144.853 3.21655 160.488 1 177.968 1C195.448 1 211.083 3.21655 222.314 6.77395C227.936 8.55447 232.398 10.6535 235.433 12.9366C238.484 15.232 239.936 17.5862 239.936 19.8729Z" fill="#E0454C" stroke="#2D2D2D" stroke-width="2"/>
<path d="M115.872 19.3808L116.34 162.322" stroke="#2D2D2D" stroke-width="2"/>
<path d="M240.07 19.3807L240.07 162.465" stroke="#2D2D2D" stroke-width="2"/>
<path d="M240.188 161.727C240.188 172.268 212.464 180.813 178.264 180.813C144.064 180.813 116.34 172.268 116.34 161.727" stroke="#2D2D2D" stroke-width="2"/>
<path d="M130.389 88.5383V73.6355H133.381L136.937 84.1874C137.264 85.1701 137.504 85.9054 137.654 86.3934C137.825 85.8512 138.091 85.0549 138.453 84.0044L142.05 73.6355H144.724V88.5383H142.808V76.0651L138.443 88.5383H136.65L132.305 75.8516V88.5383H130.389Z" fill="white"/>
<path d="M148.14 88.5383V73.6355H159.002V75.3942H150.128V79.9585H158.439V81.707H150.128V86.7797H159.351V88.5383H148.14Z" fill="white"/>
<path d="M162.203 88.5383V73.6355H165.195L168.751 84.1874C169.079 85.1701 169.318 85.9054 169.468 86.3934C169.639 85.8512 169.906 85.0549 170.268 84.0044L173.864 73.6355H176.539V88.5383H174.623V76.0651L170.257 88.5383H168.464L164.119 75.8516V88.5383H162.203Z" fill="white"/>
<path d="M179.309 81.2801C179.309 78.8064 179.979 76.8716 181.318 75.4755C182.657 74.0726 184.385 73.3712 186.503 73.3712C187.89 73.3712 189.14 73.6999 190.253 74.3573C191.367 75.0147 192.214 75.9329 192.794 77.1122C193.382 78.2846 193.676 79.6163 193.676 81.1072C193.676 82.6185 193.368 83.9706 192.753 85.1633C192.139 86.3561 191.268 87.2608 190.141 87.8775C189.013 88.4875 187.797 88.7924 186.493 88.7924C185.078 88.7924 183.815 88.4536 182.701 87.7759C181.588 87.0982 180.744 86.1731 180.17 85.0007C179.596 83.8282 179.309 82.588 179.309 81.2801ZM181.359 81.3106C181.359 83.1065 181.844 84.5229 182.814 85.5598C183.791 86.5899 185.014 87.105 186.482 87.105C187.978 87.105 189.208 86.5831 190.171 85.5394C191.141 84.4958 191.626 83.015 191.626 81.0971C191.626 79.884 191.418 78.8268 191.001 77.9254C190.591 77.0173 189.987 76.3159 189.188 75.8211C188.395 75.3196 187.504 75.0689 186.513 75.0689C185.106 75.0689 183.893 75.55 182.875 76.5124C181.864 77.468 181.359 79.0673 181.359 81.3106Z" fill="white"/>
<path d="M196.446 88.5383V73.6355H203.107C204.446 73.6355 205.464 73.7711 206.161 74.0421C206.857 74.3065 207.414 74.7775 207.831 75.4552C208.247 76.1329 208.456 76.8817 208.456 77.7018C208.456 78.759 208.111 79.6502 207.421 80.3753C206.731 81.1005 205.665 81.5613 204.224 81.7578C204.75 82.0086 205.149 82.256 205.423 82.4999C206.003 83.0285 206.553 83.6893 207.073 84.4822L209.685 88.5383H207.185L205.197 85.4378C204.617 84.5432 204.138 83.8587 203.763 83.3843C203.387 82.9099 203.049 82.5779 202.748 82.3881C202.455 82.1984 202.154 82.0662 201.847 81.9917C201.621 81.9442 201.252 81.9205 200.74 81.9205H198.434V88.5383H196.446ZM198.434 80.2127H202.707C203.616 80.2127 204.326 80.1212 204.839 79.9382C205.351 79.7484 205.74 79.4502 206.007 79.0436C206.273 78.6302 206.406 78.1829 206.406 77.7018C206.406 76.9969 206.147 76.4175 205.628 75.9634C205.115 75.5094 204.302 75.2823 203.189 75.2823H198.434V80.2127Z" fill="white"/>
<path d="M215.592 88.5383V82.2255L209.802 73.6355H212.22L215.182 78.1287C215.728 78.9691 216.237 79.8094 216.709 80.6498C217.159 79.8704 217.706 78.9928 218.348 78.0169L221.258 73.6355H223.574L217.58 82.2255V88.5383H215.592Z" fill="white"/>
<path d="M256.102 237.855C256.102 237.855 244.94 244.756 255.459 251.608C257.483 252.943 264.822 256.654 264.613 260.088C264.613 260.088 269.062 253.415 262.558 249.216C255.877 244.919 254.207 240.329 256.102 237.855Z" fill="#ED1C24"/>
<path d="M252.215 251.039C252.215 251.039 248.232 257.159 256.07 258.412C256.841 258.51 262.51 259.112 263.987 261C263.987 261 263.859 257.745 259.233 255.824C254.624 253.904 252.729 253.432 252.215 251.039Z" fill="#ED1C24"/>
<path d="M267.633 244.61C262.847 239.532 261.514 236.39 263.57 232.321C263.57 232.321 249.293 237.888 263.393 247.767C268.436 251.299 267.601 254.913 267.601 255.043C268.388 254.213 272.419 249.688 267.633 244.61Z" fill="#ED1C24"/>
<path d="M276.297 256.398V243.5H278.05L284.833 253.627V243.5H286.472V256.398H284.719L277.935 246.262V256.398H276.297Z" fill="#2D2D2D"/>
<path d="M288.966 250.116C288.966 247.975 289.542 246.301 290.693 245.092C291.844 243.878 293.33 243.271 295.151 243.271C296.343 243.271 297.417 243.555 298.375 244.124C299.332 244.693 300.06 245.488 300.56 246.509C301.065 247.523 301.317 248.676 301.317 249.967C301.317 251.275 301.053 252.445 300.524 253.477C299.996 254.509 299.247 255.292 298.278 255.826C297.309 256.354 296.263 256.618 295.142 256.618C293.926 256.618 292.839 256.325 291.882 255.738C290.925 255.152 290.2 254.351 289.706 253.336C289.213 252.322 288.966 251.248 288.966 250.116ZM290.728 250.142C290.728 251.697 291.145 252.923 291.979 253.82C292.819 254.712 293.87 255.158 295.133 255.158C296.419 255.158 297.476 254.706 298.304 253.803C299.138 252.899 299.555 251.618 299.555 249.958C299.555 248.908 299.376 247.993 299.018 247.213C298.666 246.427 298.146 245.82 297.459 245.391C296.777 244.957 296.011 244.74 295.159 244.74C293.949 244.74 292.907 245.157 292.032 245.99C291.163 246.817 290.728 248.201 290.728 250.142Z" fill="#2D2D2D"/>
<path d="M303.662 256.398V243.5H308.111C309.115 243.5 309.882 243.561 310.41 243.684C311.15 243.855 311.781 244.163 312.304 244.608C312.985 245.183 313.493 245.919 313.828 246.817C314.169 247.708 314.339 248.729 314.339 249.879C314.339 250.858 314.225 251.726 313.996 252.483C313.767 253.24 313.473 253.867 313.115 254.366C312.756 254.858 312.363 255.248 311.934 255.536C311.511 255.817 310.997 256.032 310.392 256.178C309.793 256.325 309.103 256.398 308.322 256.398H303.662ZM305.371 254.876H308.128C308.98 254.876 309.647 254.797 310.128 254.638C310.616 254.48 311.003 254.257 311.291 253.97C311.696 253.565 312.01 253.022 312.234 252.342C312.463 251.656 312.577 250.826 312.577 249.852C312.577 248.503 312.354 247.468 311.908 246.746C311.467 246.019 310.93 245.532 310.296 245.286C309.837 245.11 309.1 245.022 308.084 245.022H305.371V254.876Z" fill="#2D2D2D"/>
<path d="M316.869 256.398V243.5H326.207V245.022H318.578V248.972H325.723V250.486H318.578V254.876H326.507V256.398H316.869Z" fill="#2D2D2D"/>
<path d="M376.161 195.975C376.161 195.975 364.999 202.877 375.518 209.729C377.542 211.063 384.881 214.774 384.672 218.209C384.672 218.209 389.121 211.535 382.617 207.336C375.936 203.039 374.266 198.449 376.161 195.975Z" fill="#ED1C24"/>
<path d="M372.275 209.159C372.275 209.159 368.292 215.279 376.129 216.533C376.9 216.63 382.569 217.232 384.046 219.12C384.046 219.12 383.918 215.865 379.293 213.945C374.684 212.024 372.788 211.552 372.275 209.159Z" fill="#ED1C24"/>
<path d="M387.692 202.73C382.906 197.652 381.573 194.511 383.629 190.442C383.629 190.442 369.352 196.008 383.452 205.888C388.495 209.42 387.66 213.033 387.66 213.163C388.447 212.333 392.478 207.808 387.692 202.73Z" fill="#ED1C24"/>
<path d="M396.356 214.519V201.62H398.109L404.892 211.747V201.62H406.531V214.519H404.778L397.994 204.383V214.519H396.356Z" fill="#2D2D2D"/>
<path d="M409.025 208.237C409.025 206.096 409.601 204.421 410.752 203.213C411.903 201.998 413.389 201.391 415.21 201.391C416.402 201.391 417.477 201.676 418.434 202.245C419.391 202.814 420.12 203.609 420.619 204.629C421.124 205.644 421.376 206.797 421.376 208.087C421.376 209.395 421.112 210.565 420.584 211.597C420.055 212.63 419.306 213.413 418.337 213.947C417.368 214.475 416.323 214.739 415.201 214.739C413.985 214.739 412.899 214.445 411.941 213.859C410.984 213.272 410.259 212.471 409.765 211.457C409.272 210.442 409.025 209.369 409.025 208.237ZM410.787 208.263C410.787 209.817 411.204 211.043 412.038 211.941C412.878 212.832 413.929 213.278 415.192 213.278C416.478 213.278 417.535 212.826 418.364 211.923C419.197 211.02 419.614 209.738 419.614 208.078C419.614 207.028 419.435 206.113 419.077 205.333C418.725 204.547 418.205 203.94 417.518 203.512C416.837 203.078 416.07 202.861 415.219 202.861C414.009 202.861 412.966 203.277 412.091 204.11C411.222 204.937 410.787 206.321 410.787 208.263Z" fill="#2D2D2D"/>
<path d="M423.721 214.519V201.62H428.17C429.174 201.62 429.941 201.682 430.469 201.805C431.209 201.975 431.841 202.283 432.363 202.729C433.045 203.304 433.553 204.04 433.887 204.937C434.228 205.829 434.398 206.849 434.398 207.999C434.398 208.979 434.284 209.847 434.055 210.603C433.826 211.36 433.532 211.988 433.174 212.486C432.816 212.979 432.422 213.369 431.993 213.656C431.57 213.938 431.057 214.152 430.452 214.299C429.853 214.445 429.163 214.519 428.381 214.519H423.721ZM425.43 212.996H428.188C429.039 212.996 429.706 212.917 430.187 212.759C430.675 212.601 431.062 212.378 431.35 212.09C431.755 211.685 432.07 211.143 432.293 210.462C432.522 209.776 432.636 208.946 432.636 207.973C432.636 206.623 432.413 205.588 431.967 204.867C431.526 204.139 430.989 203.653 430.355 203.406C429.897 203.23 429.16 203.142 428.144 203.142H425.43V212.996Z" fill="#2D2D2D"/>
<path d="M436.928 214.519V201.62H446.266V203.142H438.637V207.093H445.782V208.606H438.637V212.996H446.566V214.519H436.928Z" fill="#2D2D2D"/>
<path d="M136.042 196.814C136.042 196.814 124.881 203.715 135.4 210.567C137.424 211.902 144.763 215.613 144.554 219.047C144.554 219.047 149.003 212.374 142.498 208.175C135.818 203.878 134.147 199.288 136.042 196.814Z" fill="#ED1C24"/>
<path d="M132.156 209.998C132.156 209.998 128.173 216.118 136.011 217.371C136.781 217.469 142.451 218.071 143.928 219.959C143.928 219.959 143.8 216.704 139.174 214.783C134.565 212.863 132.67 212.391 132.156 209.998Z" fill="#ED1C24"/>
<path d="M147.574 203.569C142.788 198.491 141.455 195.349 143.511 191.28C143.511 191.28 129.233 196.847 143.334 206.726C148.377 210.258 147.542 213.872 147.542 214.002C148.328 213.172 152.36 208.647 147.574 203.569Z" fill="#ED1C24"/>
<path d="M156.238 215.357V202.459H157.991L164.774 212.586V202.459H166.413V215.357H164.659L157.876 205.221V215.357H156.238Z" fill="#2D2D2D"/>
<path d="M168.907 209.075C168.907 206.934 169.483 205.259 170.634 204.051C171.785 202.837 173.271 202.23 175.091 202.23C176.284 202.23 177.358 202.514 178.316 203.083C179.273 203.652 180.001 204.447 180.5 205.468C181.006 206.482 181.258 207.635 181.258 208.925C181.258 210.233 180.994 211.404 180.465 212.436C179.937 213.468 179.188 214.251 178.219 214.785C177.25 215.313 176.204 215.577 175.083 215.577C173.867 215.577 172.78 215.284 171.823 214.697C170.866 214.111 170.14 213.31 169.647 212.295C169.154 211.28 168.907 210.207 168.907 209.075ZM170.669 209.101C170.669 210.656 171.086 211.882 171.92 212.779C172.76 213.671 173.811 214.116 175.074 214.116C176.36 214.116 177.417 213.665 178.245 212.762C179.079 211.858 179.496 210.577 179.496 208.917C179.496 207.867 179.317 206.952 178.959 206.172C178.606 205.386 178.087 204.778 177.4 204.35C176.718 203.916 175.952 203.699 175.1 203.699C173.89 203.699 172.848 204.116 171.973 204.949C171.104 205.776 170.669 207.16 170.669 209.101Z" fill="#2D2D2D"/>
<path d="M183.603 215.357V202.459H188.052C189.056 202.459 189.822 202.52 190.351 202.643C191.091 202.813 191.722 203.121 192.245 203.567C192.926 204.142 193.434 204.878 193.769 205.776C194.11 206.667 194.28 207.688 194.28 208.837C194.28 209.817 194.166 210.685 193.936 211.442C193.707 212.198 193.414 212.826 193.056 213.325C192.697 213.817 192.304 214.207 191.875 214.495C191.452 214.776 190.938 214.99 190.333 215.137C189.734 215.284 189.044 215.357 188.263 215.357H183.603ZM185.312 213.835H188.069C188.921 213.835 189.588 213.756 190.069 213.597C190.557 213.439 190.944 213.216 191.232 212.929C191.637 212.524 191.951 211.981 192.175 211.301C192.404 210.615 192.518 209.785 192.518 208.811C192.518 207.462 192.295 206.427 191.849 205.705C191.408 204.978 190.871 204.491 190.236 204.245C189.778 204.069 189.041 203.981 188.025 203.981H185.312V213.835Z" fill="#2D2D2D"/>
<path d="M196.81 215.357V202.459H206.148V203.981H198.519V207.931H205.663V209.445H198.519V213.835H206.448V215.357H196.81Z" fill="#2D2D2D"/>
<path d="M227.146 204.825V66.7178C227.146 66.7178 241.98 80.6011 288.083 80.6011C334.187 80.6011 350.623 65.1311 350.623 65.1311V204.825C350.623 204.825 343.985 221.789 288.083 222.441C232.181 223.094 227.146 204.825 227.146 204.825Z" fill="#E0454C"/>
<path d="M350.694 61.3039C350.694 63.6053 349.239 65.9717 346.189 68.2772C343.154 70.5709 338.692 72.6795 333.071 74.4681C321.84 78.0418 306.205 80.2685 288.726 80.2685C271.246 80.2685 255.611 78.0418 244.381 74.4681C238.76 72.6795 234.298 70.5709 231.263 68.2772C228.212 65.9717 226.758 63.6053 226.758 61.3039C226.758 59.0025 228.212 56.6361 231.263 54.3306C234.298 52.0369 238.76 49.9283 244.381 48.1397C255.611 44.566 271.246 42.3392 288.726 42.3392C306.205 42.3392 321.84 44.566 333.071 48.1397C338.692 49.9283 343.154 52.0369 346.189 54.3306C349.239 56.6361 350.694 59.0025 350.694 61.3039Z" fill="#E0454C" stroke="#2D2D2D" stroke-width="2"/>
<path d="M226.679 62.4827L227.146 203.575" stroke="#2D2D2D" stroke-width="2"/>
<path d="M350.727 62.7357L350.727 203.246" stroke="#2D2D2D" stroke-width="2"/>
<path d="M350.727 202.977C350.727 213.566 323.062 222.151 288.937 222.151C254.811 222.151 227.146 213.566 227.146 202.977" stroke="#2D2D2D" stroke-width="2"/>
<path d="M242.812 129.919V114.947H245.8L249.351 125.548C249.679 126.535 249.918 127.274 250.068 127.764C250.238 127.219 250.505 126.419 250.866 125.364L254.459 114.947H257.13V129.919H255.216V117.388L250.856 129.919H249.065L244.725 117.173V129.919H242.812Z" fill="white"/>
<path d="M260.542 129.919V114.947H271.39V116.714H262.527V121.299H270.828V123.056H262.527V128.152H271.738V129.919H260.542Z" fill="white"/>
<path d="M274.588 129.919V114.947H277.576L281.128 125.548C281.455 126.535 281.694 127.274 281.844 127.764C282.015 127.219 282.281 126.419 282.642 125.364L286.235 114.947H288.906V129.919H286.992V117.388L282.632 129.919H280.841L276.501 117.173V129.919H274.588Z" fill="white"/>
<path d="M291.673 122.627C291.673 120.142 292.342 118.198 293.679 116.795C295.016 115.386 296.743 114.681 298.858 114.681C300.243 114.681 301.492 115.012 302.604 115.672C303.716 116.332 304.562 117.255 305.142 118.44C305.729 119.618 306.022 120.955 306.022 122.453C306.022 123.971 305.715 125.33 305.101 126.528C304.487 127.726 303.617 128.635 302.491 129.255C301.365 129.868 300.151 130.174 298.848 130.174C297.435 130.174 296.173 129.834 295.061 129.153C293.949 128.472 293.106 127.542 292.533 126.365C291.96 125.187 291.673 123.941 291.673 122.627ZM293.72 122.657C293.72 124.462 294.204 125.885 295.173 126.926C296.149 127.961 297.37 128.479 298.837 128.479C300.332 128.479 301.56 127.954 302.522 126.906C303.491 125.857 303.975 124.37 303.975 122.443C303.975 121.224 303.767 120.162 303.351 119.257C302.941 118.344 302.338 117.64 301.539 117.143C300.748 116.639 299.857 116.387 298.868 116.387C297.462 116.387 296.251 116.87 295.235 117.837C294.225 118.797 293.72 120.404 293.72 122.657Z" fill="white"/>
<path d="M308.789 129.919V114.947H315.442C316.779 114.947 317.796 115.083 318.492 115.355C319.188 115.621 319.744 116.094 320.16 116.775C320.576 117.456 320.784 118.208 320.784 119.032C320.784 120.094 320.44 120.989 319.751 121.718C319.061 122.446 317.997 122.909 316.557 123.107C317.083 123.359 317.482 123.607 317.755 123.852C318.335 124.383 318.884 125.047 319.403 125.844L322.012 129.919H319.515L317.53 126.804C316.95 125.905 316.472 125.217 316.097 124.741C315.722 124.264 315.384 123.931 315.084 123.74C314.79 123.549 314.49 123.417 314.183 123.342C313.958 123.294 313.589 123.27 313.078 123.27H310.775V129.919H308.789ZM310.775 121.555H315.043C315.95 121.555 316.66 121.463 317.171 121.279C317.683 121.088 318.072 120.789 318.338 120.38C318.604 119.965 318.737 119.515 318.737 119.032C318.737 118.324 318.478 117.742 317.96 117.286C317.448 116.83 316.636 116.601 315.524 116.601H310.775V121.555Z" fill="white"/>
<path d="M327.911 129.919V123.577L322.129 114.947H324.544L327.502 119.461C328.048 120.305 328.556 121.149 329.027 121.994C329.477 121.211 330.023 120.329 330.665 119.349L333.571 114.947H335.884L329.897 123.577V129.919H327.911Z" fill="white"/>
</svg>
