<svg width="350" height="220" viewBox="0 0 350 220" fill="none" xmlns="http://www.w3.org/2000/svg">
<rect width="350" height="220" fill="#0070CC"/>
<mask id="mask0" style="mask-type:alpha" maskUnits="userSpaceOnUse" x="146" y="60" width="204" height="160">
<rect x="146" y="60" width="204" height="160" fill="white" fill-opacity="0.7"/>
</mask>
<g mask="url(#mask0)">
<path fill-rule="evenodd" clip-rule="evenodd" d="M237.808 126.044L279.766 95.0773L321.725 126.044L279.766 157.011L237.808 126.044ZM279.766 93.9883L323.2 126.044L279.766 158.1L236.333 126.044L279.766 93.9883Z" fill="#B6DCFA"/>
<path fill-rule="evenodd" clip-rule="evenodd" d="M238.386 133.1L280.345 102.133L322.303 133.1L280.345 164.067L238.386 133.1ZM280.345 101.045L323.779 133.1L280.345 165.156L236.911 133.1L280.345 101.045Z" fill="#B6DCFA"/>
<path fill-rule="evenodd" clip-rule="evenodd" d="M238.386 140.775L280.345 109.808L322.303 140.775L280.345 171.742L238.386 140.775ZM280.345 108.719L323.779 140.775L280.345 172.831L236.911 140.775L280.345 108.719Z" fill="#B6DCFA"/>
<path fill-rule="evenodd" clip-rule="evenodd" d="M238.386 148.452L280.345 117.485L322.303 148.452L280.345 179.419L238.386 148.452ZM280.345 116.396L323.779 148.452L280.345 180.508L236.911 148.452L280.345 116.396Z" fill="#B6DCFA"/>
<path fill-rule="evenodd" clip-rule="evenodd" d="M238.386 156.129L280.345 125.162L322.303 156.129L280.345 187.096L238.386 156.129ZM280.345 124.073L323.779 156.129L280.345 188.185L236.911 156.129L280.345 124.073Z" fill="#B6DCFA"/>
<path fill-rule="evenodd" clip-rule="evenodd" d="M238.378 163.81L280.337 132.844L322.295 163.81L280.337 194.777L238.378 163.81ZM280.337 131.755L323.771 163.81L280.337 195.866L236.903 163.81L280.337 131.755Z" fill="#B6DCFA"/>
<path fill-rule="evenodd" clip-rule="evenodd" d="M238.378 171.486L280.337 140.519L322.295 171.486L280.337 202.453L238.378 171.486ZM280.337 139.43L323.771 171.486L280.337 203.542L236.903 171.486L280.337 139.43Z" fill="#B6DCFA"/>
<path d="M279.908 86.3988L236.474 118.455L279.908 150.51L323.342 118.455L279.908 86.3988Z" fill="#B6DCFA"/>
<path fill-rule="evenodd" clip-rule="evenodd" d="M167.545 175.104L209.503 144.137L251.462 175.104L209.503 206.071L167.545 175.104ZM209.503 143.048L252.937 175.104L209.503 207.16L166.069 175.104L209.503 143.048Z" fill="#B6DCFA"/>
<path fill-rule="evenodd" clip-rule="evenodd" d="M168.123 182.16L210.082 151.194L252.04 182.16L210.082 213.127L168.123 182.16ZM210.082 150.105L253.516 182.16L210.082 214.216L166.648 182.16L210.082 150.105Z" fill="#B6DCFA"/>
<path fill-rule="evenodd" clip-rule="evenodd" d="M168.123 189.835L210.082 158.868L252.04 189.835L210.082 220.802L168.123 189.835ZM210.082 157.779L253.516 189.835L210.082 221.891L166.648 189.835L210.082 157.779Z" fill="#B6DCFA"/>
<path fill-rule="evenodd" clip-rule="evenodd" d="M168.123 197.512L210.082 166.545L252.04 197.512L210.082 228.479L168.123 197.512ZM210.082 165.456L253.516 197.512L210.082 229.568L166.648 197.512L210.082 165.456Z" fill="#B6DCFA"/>
<path fill-rule="evenodd" clip-rule="evenodd" d="M168.123 205.189L210.082 174.222L252.04 205.189L210.082 236.156L168.123 205.189ZM210.082 173.133L253.516 205.189L210.082 237.245L166.648 205.189L210.082 173.133Z" fill="#B6DCFA"/>
<path fill-rule="evenodd" clip-rule="evenodd" d="M168.115 212.87L210.074 181.904L252.032 212.87L210.074 243.837L168.115 212.87ZM210.074 180.815L253.508 212.87L210.074 244.926L166.64 212.87L210.074 180.815Z" fill="#B6DCFA"/>
<path fill-rule="evenodd" clip-rule="evenodd" d="M168.115 220.546L210.074 189.579L252.032 220.546L210.074 251.513L168.115 220.546ZM210.074 188.49L253.508 220.546L210.074 252.602L166.64 220.546L210.074 188.49Z" fill="#B6DCFA"/>
<path d="M209.645 135.459L166.211 167.515L209.645 199.57L253.079 167.515L209.645 135.459Z" fill="#B6DCFA"/>
<path fill-rule="evenodd" clip-rule="evenodd" d="M307.809 178.795L349.768 147.828L391.726 178.795L349.768 209.762L307.809 178.795ZM349.768 146.739L393.202 178.795L349.768 210.851L306.334 178.795L349.768 146.739Z" fill="#B6DCFA"/>
<path fill-rule="evenodd" clip-rule="evenodd" d="M308.388 185.851L350.346 154.884L392.305 185.851L350.346 216.818L308.388 185.851ZM350.346 153.795L393.78 185.851L350.346 217.907L306.912 185.851L350.346 153.795Z" fill="#B6DCFA"/>
<path fill-rule="evenodd" clip-rule="evenodd" d="M308.388 193.526L350.346 162.559L392.305 193.526L350.346 224.493L308.388 193.526ZM350.346 161.47L393.78 193.526L350.346 225.582L306.912 193.526L350.346 161.47Z" fill="#B6DCFA"/>
<path fill-rule="evenodd" clip-rule="evenodd" d="M308.388 201.203L350.346 170.236L392.305 201.203L350.346 232.17L308.388 201.203ZM350.346 169.147L393.78 201.203L350.346 233.259L306.912 201.203L350.346 169.147Z" fill="#B6DCFA"/>
<path fill-rule="evenodd" clip-rule="evenodd" d="M308.388 208.88L350.346 177.913L392.305 208.88L350.346 239.847L308.388 208.88ZM350.346 176.824L393.78 208.88L350.346 240.936L306.912 208.88L350.346 176.824Z" fill="#B6DCFA"/>
<path fill-rule="evenodd" clip-rule="evenodd" d="M308.38 216.561L350.338 185.594L392.297 216.561L350.338 247.528L308.38 216.561ZM350.338 184.506L393.772 216.561L350.338 248.617L306.904 216.561L350.338 184.506Z" fill="#B6DCFA"/>
<path fill-rule="evenodd" clip-rule="evenodd" d="M308.38 224.237L350.338 193.27L392.297 224.237L350.338 255.204L308.38 224.237ZM350.338 192.181L393.772 224.237L350.338 256.293L306.904 224.237L350.338 192.181Z" fill="#B6DCFA"/>
<path d="M349.909 139.15L306.475 171.206L349.909 203.261L393.343 171.206L349.909 139.15Z" fill="#B6DCFA"/>
</g>
</svg>
