<svg width="349" height="274" viewBox="0 0 349 274" fill="none" xmlns="http://www.w3.org/2000/svg">
<path d="M2.62549 108.06V24.0669C2.62549 24.0669 19.3534 40.2939 66.1165 40.2939C112.88 40.2939 128.867 24.3696 128.867 24.3696V108.06C109.358 136.698 11.5052 128.14 2.62549 108.06Z" fill="#E0454C"/>
<path d="M2.25879 166.261V80.8744C2.25879 80.8744 18.4367 97.3909 65.1998 97.3909C111.963 97.3909 128.825 79.7928 128.825 79.7928V166.261C108.938 191.192 14.3622 186.518 2.25879 166.261Z" fill="#0070CC"/>
<path d="M128.971 20.4496C128.971 22.8181 127.475 25.2483 124.348 27.6118C121.237 29.9634 116.665 32.1243 110.907 33.9568C99.4023 37.6182 83.3882 39.8993 65.4857 39.8993C47.5831 39.8993 31.5691 37.6182 20.0647 33.9568C14.3068 32.1243 9.73466 29.9634 6.62333 27.6118C3.49634 25.2483 2 22.8181 2 20.4496C2 18.0812 3.49634 15.651 6.62333 13.2875C9.73466 10.9358 14.3068 8.775 20.0647 6.94246C31.5691 3.28103 47.5831 1 65.4857 1C83.3882 1 99.4023 3.28103 110.907 6.94246C116.665 8.775 121.237 10.9358 124.348 13.2875C127.475 15.651 128.971 18.0812 128.971 20.4496Z" fill="#E0454C" stroke="#2D2D2D" stroke-width="2"/>
<path d="M1.88013 20.4497L2.55383 164.201" stroke="#2D2D2D" stroke-width="2"/>
<path d="M128.972 20.0834L128.972 164.201" stroke="#2D2D2D" stroke-width="2"/>
<path d="M128.972 164.201C128.972 175.048 100.674 183.841 65.7657 183.841C30.8577 183.841 2.55908 175.048 2.55908 164.201" stroke="#2D2D2D" stroke-width="2"/>
<path d="M128.976 76.9491C128.976 87.7958 100.582 96.5888 65.5563 96.5888C30.5307 96.5888 2.13696 87.7958 2.13696 76.9491" stroke="#2D2D2D" stroke-width="2"/>
<path d="M22.2131 72.7467V58.473H25.0585L28.4399 68.5795C28.7517 69.5207 28.979 70.225 29.122 70.6923C29.2844 70.173 29.5377 69.4103 29.882 68.4042L33.3023 58.473H35.8456V72.7467H34.0234V60.8L29.8723 72.7467H28.167L24.0354 60.5956V72.7467H22.2131Z" fill="white"/>
<path d="M39.1342 72.7467V58.473H49.4634V60.1574H41.0246V64.5291H48.9274V66.2038H41.0246V71.0623H49.7947V72.7467H39.1342Z" fill="white"/>
<path d="M52.5473 72.7467V58.473H55.3927L58.774 68.5795C59.0858 69.5207 59.3132 70.225 59.4561 70.6923C59.6185 70.173 59.8719 69.4103 60.2162 68.4042L63.6365 58.473H66.1798V72.7467H64.3576V60.8L60.2064 72.7467H58.5012L54.3695 60.5956V72.7467H52.5473Z" fill="white"/>
<path d="M68.8545 65.7948C68.8545 63.4256 69.4911 61.5724 70.7644 60.2353C72.0377 58.8917 73.6812 58.2198 75.6951 58.2198C77.0138 58.2198 78.2027 58.5347 79.2616 59.1643C80.3204 59.7939 81.126 60.6734 81.6782 61.8029C82.2369 62.9258 82.5162 64.2013 82.5162 65.6293C82.5162 67.0768 82.2239 68.3718 81.6392 69.5142C81.0545 70.6566 80.2263 71.5232 79.1544 72.1138C78.0825 72.698 76.9261 72.9901 75.6853 72.9901C74.3406 72.9901 73.1388 72.6656 72.0799 72.0165C71.021 71.3674 70.2187 70.4813 69.673 69.3584C69.1273 68.2355 68.8545 67.0476 68.8545 65.7948ZM70.8034 65.8241C70.8034 67.5442 71.2646 68.9008 72.1871 69.8939C73.116 70.8805 74.2789 71.3739 75.6756 71.3739C77.0983 71.3739 78.2676 70.8741 79.1836 69.8744C80.1061 68.8748 80.5673 67.4565 80.5673 65.6196C80.5673 64.4577 80.3692 63.4451 79.9729 62.5818C79.5831 61.712 79.0082 61.0402 78.2481 60.5663C77.4946 60.086 76.6468 59.8458 75.7048 59.8458C74.3666 59.8458 73.2135 60.3067 72.2455 61.2284C71.2841 62.1437 70.8034 63.6755 70.8034 65.8241Z" fill="white"/>
<path d="M85.1909 72.7467V58.473H91.5248C92.7981 58.473 93.766 58.6028 94.4286 58.8625C95.0913 59.1156 95.6207 59.5667 96.017 60.2158C96.4133 60.8649 96.6114 61.5822 96.6114 62.3676C96.6114 63.3802 96.2833 64.2338 95.6272 64.9283C94.9711 65.6228 93.9576 66.0642 92.5869 66.2525C93.0871 66.4926 93.4672 66.7295 93.727 66.9632C94.2792 67.4695 94.8022 68.1024 95.2959 68.8618L97.7807 72.7467H95.4031L93.5126 69.7771C92.9605 68.9203 92.5057 68.2647 92.1484 67.8103C91.7911 67.3559 91.4696 67.0379 91.1837 66.8561C90.9044 66.6744 90.6185 66.5478 90.3262 66.4764C90.1118 66.431 89.761 66.4082 89.2738 66.4082H87.0813V72.7467H85.1909ZM87.0813 64.7725H91.1447C92.0088 64.7725 92.6844 64.6849 93.1716 64.5096C93.6588 64.3279 94.0291 64.0423 94.2825 63.6528C94.5358 63.2569 94.6625 62.8285 94.6625 62.3676C94.6625 61.6925 94.4156 61.1376 93.9219 60.7027C93.4347 60.2678 92.6616 60.0503 91.6027 60.0503H87.0813V64.7725Z" fill="white"/>
<path d="M103.437 72.7467V66.7003L97.9316 58.473H100.231L103.047 62.7765C103.567 63.5814 104.051 64.3863 104.499 65.1912C104.928 64.4447 105.448 63.6041 106.058 62.6694L108.826 58.473H111.028L105.328 66.7003V72.7467H103.437Z" fill="white"/>
<path d="M41.2305 158.49V144.217H46.1514C47.2623 144.217 48.1101 144.285 48.6947 144.421C49.5133 144.609 50.2116 144.95 50.7898 145.443C51.5434 146.079 52.1053 146.894 52.4756 147.887C52.8524 148.874 53.0408 150.003 53.0408 151.276C53.0408 152.36 52.9141 153.32 52.6607 154.158C52.4074 154.995 52.0826 155.689 51.6863 156.241C51.29 156.786 50.8548 157.218 50.3805 157.536C49.9128 157.848 49.3444 158.085 48.6752 158.247C48.0126 158.409 47.2493 158.49 46.3853 158.49H41.2305ZM43.1209 156.806H46.1709C47.1129 156.806 47.8502 156.718 48.3829 156.543C48.9221 156.368 49.3509 156.121 49.6692 155.803C50.1174 155.355 50.465 154.755 50.7118 154.002C50.9652 153.242 51.0919 152.324 51.0919 151.246C51.0919 149.753 50.845 148.608 50.3513 147.809C49.8641 147.004 49.2697 146.466 48.5681 146.193C48.0613 145.998 47.2461 145.901 46.1222 145.901H43.1209V156.806Z" fill="white"/>
<path d="M56.1734 158.49V144.217H58.0638V158.49H56.1734Z" fill="white"/>
<path d="M60.9626 153.904L62.7459 153.749C62.8303 154.463 63.0252 155.05 63.3305 155.511C63.6424 155.965 64.1231 156.335 64.7727 156.621C65.4224 156.9 66.1532 157.04 66.9652 157.04C67.6863 157.04 68.323 156.932 68.8751 156.718C69.4273 156.504 69.8366 156.212 70.1029 155.842C70.3758 155.465 70.5122 155.057 70.5122 154.615C70.5122 154.167 70.3823 153.778 70.1224 153.447C69.8626 153.109 69.4338 152.827 68.8362 152.6C68.4529 152.45 67.6051 152.22 66.2929 151.908C64.9806 151.59 64.0614 151.292 63.5352 151.013C62.8531 150.656 62.3431 150.214 62.0053 149.688C61.674 149.156 61.5083 148.562 61.5083 147.907C61.5083 147.186 61.713 146.514 62.1222 145.891C62.5315 145.262 63.1292 144.785 63.9152 144.46C64.7013 144.135 65.575 143.973 66.5365 143.973C67.5954 143.973 68.5276 144.145 69.3331 144.489C70.1452 144.827 70.7688 145.327 71.2041 145.989C71.6393 146.651 71.8732 147.4 71.9057 148.238L70.0932 148.374C69.9958 147.472 69.6644 146.79 69.0993 146.329C68.5406 145.869 67.7123 145.638 66.6144 145.638C65.4711 145.638 64.6363 145.849 64.1101 146.271C63.5904 146.686 63.3305 147.189 63.3305 147.78C63.3305 148.293 63.5157 148.715 63.886 149.046C64.2498 149.377 65.1982 149.718 66.7314 150.068C68.271 150.412 69.3266 150.714 69.8983 150.974C70.7298 151.357 71.3437 151.843 71.74 152.434C72.1363 153.018 72.3344 153.693 72.3344 154.459C72.3344 155.219 72.1168 155.936 71.6816 156.611C71.2463 157.28 70.6194 157.802 69.8009 158.179C68.9888 158.549 68.0728 158.734 67.0529 158.734C65.7602 158.734 64.6753 158.545 63.7983 158.169C62.9278 157.792 62.2424 157.228 61.7422 156.475C61.2485 155.715 60.9886 154.859 60.9626 153.904Z" fill="white"/>
<path d="M75.0383 158.49V144.217H76.9287V151.295L84.0227 144.217H86.5855L80.5927 150L86.8486 158.49H84.354L79.2674 151.266L76.9287 153.544V158.49H75.0383Z" fill="white"/>
<path d="M220.654 108.06V24.0669C220.654 24.0669 237.382 40.2939 284.145 40.2939C330.908 40.2939 346.896 24.3696 346.896 24.3696V108.06C327.387 136.698 229.534 128.14 220.654 108.06Z" fill="#E0454C"/>
<path d="M220.287 166.261V80.8744C220.287 80.8744 236.465 97.3909 283.228 97.3909C329.991 97.3909 346.853 79.7928 346.853 79.7928V166.261C326.967 191.192 232.391 186.518 220.287 166.261Z" fill="#0070CC"/>
<path d="M347 20.4496C347 22.8181 345.504 25.2483 342.377 27.6118C339.265 29.9634 334.693 32.1243 328.935 33.9568C317.431 37.6182 301.417 39.8993 283.514 39.8993C265.612 39.8993 249.598 37.6182 238.093 33.9568C232.335 32.1243 227.763 29.9634 224.652 27.6118C221.525 25.2483 220.029 22.8181 220.029 20.4496C220.029 18.0812 221.525 15.651 224.652 13.2875C227.763 10.9358 232.335 8.775 238.093 6.94246C249.598 3.28103 265.612 1 283.514 1C301.417 1 317.431 3.28103 328.935 6.94246C334.693 8.775 339.265 10.9358 342.377 13.2875C345.504 15.651 347 18.0812 347 20.4496Z" fill="#E0454C" stroke="#2D2D2D" stroke-width="2"/>
<path d="M219.909 20.4497L220.583 164.201" stroke="#2D2D2D" stroke-width="2"/>
<path d="M347.001 20.0834L347.001 164.201" stroke="#2D2D2D" stroke-width="2"/>
<path d="M347.001 164.201C347.001 175.048 318.703 183.841 283.794 183.841C248.886 183.841 220.588 175.048 220.588 164.201" stroke="#2D2D2D" stroke-width="2"/>
<path d="M347.004 76.9491C347.004 87.7958 318.61 96.5888 283.585 96.5888C248.559 96.5888 220.166 87.7958 220.166 76.9491" stroke="#2D2D2D" stroke-width="2"/>
<path d="M240.242 72.7467V58.473H243.087L246.469 68.5795C246.78 69.5207 247.008 70.225 247.151 70.6923C247.313 70.173 247.567 69.4103 247.911 68.4042L251.331 58.473H253.874V72.7467H252.052V60.8L247.901 72.7467H246.196L242.064 60.5956V72.7467H240.242Z" fill="white"/>
<path d="M257.163 72.7467V58.473H267.492V60.1574H259.053V64.5291H266.956V66.2038H259.053V71.0623H267.823V72.7467H257.163Z" fill="white"/>
<path d="M270.576 72.7467V58.473H273.421L276.803 68.5795C277.115 69.5207 277.342 70.225 277.485 70.6923C277.647 70.173 277.901 69.4103 278.245 68.4042L281.665 58.473H284.209V72.7467H282.386V60.8L278.235 72.7467H276.53L272.398 60.5956V72.7467H270.576Z" fill="white"/>
<path d="M286.883 65.7948C286.883 63.4256 287.52 61.5724 288.793 60.2353C290.066 58.8917 291.71 58.2198 293.724 58.2198C295.043 58.2198 296.231 58.5347 297.29 59.1643C298.349 59.7939 299.155 60.6734 299.707 61.8029C300.266 62.9258 300.545 64.2013 300.545 65.6293C300.545 67.0768 300.253 68.3718 299.668 69.5142C299.083 70.6566 298.255 71.5232 297.183 72.1138C296.111 72.698 294.955 72.9901 293.714 72.9901C292.369 72.9901 291.168 72.6656 290.109 72.0165C289.05 71.3674 288.247 70.4813 287.702 69.3584C287.156 68.2355 286.883 67.0476 286.883 65.7948ZM288.832 65.8241C288.832 67.5442 289.293 68.9008 290.216 69.8939C291.145 70.8805 292.308 71.3739 293.704 71.3739C295.127 71.3739 296.296 70.8741 297.212 69.8744C298.135 68.8748 298.596 67.4565 298.596 65.6196C298.596 64.4577 298.398 63.4451 298.002 62.5818C297.612 61.712 297.037 61.0402 296.277 60.5663C295.523 60.086 294.676 59.8458 293.734 59.8458C292.395 59.8458 291.242 60.3067 290.274 61.2284C289.313 62.1437 288.832 63.6755 288.832 65.8241Z" fill="white"/>
<path d="M303.22 72.7467V58.473H309.554C310.827 58.473 311.795 58.6028 312.457 58.8625C313.12 59.1156 313.65 59.5667 314.046 60.2158C314.442 60.8649 314.64 61.5822 314.64 62.3676C314.64 63.3802 314.312 64.2338 313.656 64.9283C313 65.6228 311.986 66.0642 310.616 66.2525C311.116 66.4926 311.496 66.7295 311.756 66.9632C312.308 67.4695 312.831 68.1024 313.325 68.8618L315.81 72.7467H313.432L311.541 69.7771C310.989 68.9203 310.535 68.2647 310.177 67.8103C309.82 67.3559 309.498 67.0379 309.213 66.8561C308.933 66.6744 308.647 66.5478 308.355 66.4764C308.141 66.431 307.79 66.4082 307.303 66.4082H305.11V72.7467H303.22ZM305.11 64.7725H309.174C310.038 64.7725 310.713 64.6849 311.2 64.5096C311.688 64.3279 312.058 64.0423 312.311 63.6528C312.565 63.2569 312.691 62.8285 312.691 62.3676C312.691 61.6925 312.444 61.1376 311.951 60.7027C311.464 60.2678 310.69 60.0503 309.632 60.0503H305.11V64.7725Z" fill="white"/>
<path d="M321.466 72.7467V66.7003L315.96 58.473H318.26L321.076 62.7765C321.596 63.5814 322.08 64.3863 322.528 65.1912C322.957 64.4447 323.477 63.6041 324.087 62.6694L326.855 58.473H329.057L323.356 66.7003V72.7467H321.466Z" fill="white"/>
<path d="M261.259 158.49V144.217H266.18C267.291 144.217 268.139 144.285 268.724 144.421C269.542 144.609 270.24 144.95 270.819 145.443C271.572 146.079 272.134 146.894 272.504 147.887C272.881 148.874 273.07 150.003 273.07 151.276C273.07 152.36 272.943 153.32 272.69 154.158C272.436 154.995 272.111 155.689 271.715 156.241C271.319 156.786 270.884 157.218 270.409 157.536C269.942 157.848 269.373 158.085 268.704 158.247C268.041 158.409 267.278 158.49 266.414 158.49H261.259ZM263.15 156.806H266.2C267.142 156.806 267.879 156.718 268.412 156.543C268.951 156.368 269.38 156.121 269.698 155.803C270.146 155.355 270.494 154.755 270.741 154.002C270.994 153.242 271.121 152.324 271.121 151.246C271.121 149.753 270.874 148.608 270.38 147.809C269.893 147.004 269.298 146.466 268.597 146.193C268.09 145.998 267.275 145.901 266.151 145.901H263.15V156.806Z" fill="white"/>
<path d="M276.202 158.49V144.217H278.093V158.49H276.202Z" fill="white"/>
<path d="M280.991 153.904L282.775 153.749C282.859 154.463 283.054 155.05 283.359 155.511C283.671 155.965 284.152 156.335 284.802 156.621C285.451 156.9 286.182 157.04 286.994 157.04C287.715 157.04 288.352 156.932 288.904 156.718C289.456 156.504 289.865 156.212 290.132 155.842C290.405 155.465 290.541 155.057 290.541 154.615C290.541 154.167 290.411 153.778 290.151 153.447C289.891 153.109 289.463 152.827 288.865 152.6C288.482 152.45 287.634 152.22 286.322 151.908C285.009 151.59 284.09 151.292 283.564 151.013C282.882 150.656 282.372 150.214 282.034 149.688C281.703 149.156 281.537 148.562 281.537 147.907C281.537 147.186 281.742 146.514 282.151 145.891C282.56 145.262 283.158 144.785 283.944 144.46C284.73 144.135 285.604 143.973 286.565 143.973C287.624 143.973 288.556 144.145 289.362 144.489C290.174 144.827 290.798 145.327 291.233 145.989C291.668 146.651 291.902 147.4 291.934 148.238L290.122 148.374C290.025 147.472 289.693 146.79 289.128 146.329C288.569 145.869 287.741 145.638 286.643 145.638C285.5 145.638 284.665 145.849 284.139 146.271C283.619 146.686 283.359 147.189 283.359 147.78C283.359 148.293 283.544 148.715 283.915 149.046C284.279 149.377 285.227 149.718 286.76 150.068C288.3 150.412 289.355 150.714 289.927 150.974C290.759 151.357 291.373 151.843 291.769 152.434C292.165 153.018 292.363 153.693 292.363 154.459C292.363 155.219 292.146 155.936 291.71 156.611C291.275 157.28 290.648 157.802 289.83 158.179C289.018 158.549 288.102 158.734 287.082 158.734C285.789 158.734 284.704 158.545 283.827 158.169C282.957 157.792 282.271 157.228 281.771 156.475C281.277 155.715 281.017 154.859 280.991 153.904Z" fill="white"/>
<path d="M295.067 158.49V144.217H296.958V151.295L304.052 144.217H306.614L300.621 150L306.877 158.49H304.383L299.296 151.266L296.958 153.544V158.49H295.067Z" fill="white"/>
<path d="M139.475 244.281C139.475 244.281 125.149 253.143 138.65 261.941C141.247 263.655 150.667 268.42 150.399 272.83C150.399 272.83 156.109 264.261 147.761 258.869C139.186 253.352 137.042 247.458 139.475 244.281Z" fill="#ED1C24"/>
<path d="M134.487 261.21C134.487 261.21 129.375 269.068 139.434 270.677C140.424 270.802 147.7 271.576 149.596 274C149.596 274 149.431 269.82 143.495 267.354C137.579 264.888 135.147 264.282 134.487 261.21Z" fill="#ED1C24"/>
<path d="M154.275 252.954C148.132 246.434 146.421 242.4 149.06 237.176C149.06 237.176 130.735 244.323 148.833 257.009C155.305 261.544 154.233 266.184 154.233 266.351C155.243 265.285 160.417 259.475 154.275 252.954Z" fill="#ED1C24"/>
<path d="M163.989 265.215V251.952H165.791L172.763 262.365V251.952H174.447V265.215H172.645L165.673 254.793V265.215H163.989Z" fill="#2D2D2D"/>
<path d="M177.105 258.755C177.105 256.554 177.697 254.832 178.88 253.59C180.063 252.341 181.59 251.717 183.461 251.717C184.686 251.717 185.791 252.009 186.775 252.594C187.759 253.179 188.507 253.997 189.02 255.046C189.54 256.089 189.799 257.275 189.799 258.602C189.799 259.946 189.528 261.15 188.984 262.211C188.441 263.273 187.671 264.078 186.675 264.627C185.679 265.17 184.605 265.441 183.452 265.441C182.203 265.441 181.086 265.139 180.102 264.536C179.118 263.933 178.373 263.11 177.866 262.066C177.359 261.023 177.105 259.919 177.105 258.755ZM178.916 258.782C178.916 260.381 179.344 261.641 180.202 262.564C181.065 263.481 182.145 263.939 183.443 263.939C184.765 263.939 185.851 263.475 186.703 262.546C187.56 261.617 187.988 260.299 187.988 258.592C187.988 257.513 187.804 256.572 187.436 255.77C187.074 254.962 186.54 254.337 185.833 253.897C185.133 253.451 184.345 253.228 183.47 253.228C182.227 253.228 181.155 253.656 180.256 254.512C179.363 255.363 178.916 256.786 178.916 258.782Z" fill="#2D2D2D"/>
<path d="M192.304 265.215V251.952H196.876C197.908 251.952 198.696 252.015 199.239 252.142C200 252.317 200.649 252.634 201.186 253.092C201.886 253.683 202.408 254.44 202.752 255.363C203.102 256.279 203.277 257.329 203.277 258.511C203.277 259.518 203.16 260.411 202.924 261.189C202.689 261.967 202.387 262.612 202.019 263.125C201.651 263.632 201.246 264.033 200.806 264.328C200.371 264.618 199.843 264.838 199.221 264.989C198.605 265.139 197.896 265.215 197.093 265.215H192.304ZM194.06 263.65H196.894C197.769 263.65 198.455 263.568 198.949 263.405C199.45 263.243 199.849 263.013 200.145 262.718C200.561 262.302 200.884 261.744 201.113 261.044C201.349 260.339 201.467 259.485 201.467 258.484C201.467 257.097 201.237 256.032 200.778 255.29C200.326 254.542 199.773 254.042 199.122 253.789C198.651 253.608 197.893 253.517 196.849 253.517H194.06V263.65Z" fill="#2D2D2D"/>
<path d="M205.972 265.215V251.952H215.57V253.517H207.729V257.579H215.072V259.135H207.729V263.65H215.877V265.215H205.972Z" fill="#2D2D2D"/>
<path d="M18.3313 198.412C18.3313 198.412 4.00575 207.273 17.5068 216.071C20.104 217.785 29.5238 222.55 29.2559 226.96C29.2559 226.96 34.9655 218.391 26.6175 212.999C18.0427 207.482 15.8991 201.588 18.3313 198.412Z" fill="#ED1C24"/>
<path d="M13.344 215.34C13.344 215.34 8.23214 223.198 18.291 224.807C19.2803 224.933 26.5565 225.706 28.4528 228.13C28.4528 228.13 28.2879 223.951 22.3516 221.484C16.4358 219.018 14.0036 218.412 13.344 215.34Z" fill="#ED1C24"/>
<path d="M33.1315 207.085C26.989 200.564 25.2782 196.531 27.9166 191.306C27.9166 191.306 9.59223 198.453 27.6899 211.139C34.1621 215.674 33.0903 220.314 33.0903 220.481C34.1003 219.415 39.274 213.605 33.1315 207.085Z" fill="#ED1C24"/>
<path d="M42.8457 219.345V206.082H44.6475L51.6194 216.495V206.082H53.3035V219.345H51.5016L44.5298 208.923V219.345H42.8457Z" fill="#2D2D2D"/>
<path d="M55.9618 212.886C55.9618 210.684 56.5534 208.962 57.7365 207.72C58.9196 206.471 60.4467 205.847 62.3179 205.847C63.5433 205.847 64.6479 206.14 65.6318 206.725C66.6157 207.31 67.3642 208.127 67.8773 209.176C68.3964 210.22 68.656 211.405 68.656 212.732C68.656 214.077 68.3843 215.28 67.8411 216.342C67.2978 217.403 66.5282 218.208 65.5322 218.757C64.5363 219.3 63.4618 219.571 62.3089 219.571C61.0594 219.571 59.9427 219.27 58.9588 218.667C57.9749 218.064 57.2294 217.24 56.7224 216.197C56.2153 215.153 55.9618 214.05 55.9618 212.886ZM57.7727 212.913C57.7727 214.511 58.2012 215.772 59.0584 216.694C59.9216 217.611 61.0021 218.07 62.2998 218.07C63.6218 218.07 64.7083 217.605 65.5594 216.676C66.4165 215.748 66.8451 214.43 66.8451 212.723C66.8451 211.643 66.661 210.702 66.2928 209.9C65.9306 209.092 65.3964 208.468 64.6902 208.027C63.99 207.581 63.2023 207.358 62.327 207.358C61.0835 207.358 60.0121 207.786 59.1127 208.643C58.2194 209.493 57.7727 210.916 57.7727 212.913Z" fill="#2D2D2D"/>
<path d="M71.1604 219.345V206.082H75.7328C76.765 206.082 77.5528 206.146 78.096 206.272C78.8566 206.447 79.5055 206.764 80.0427 207.222C80.7429 207.813 81.265 208.57 81.6091 209.493C81.9592 210.41 82.1343 211.459 82.1343 212.641C82.1343 213.649 82.0166 214.541 81.7811 215.319C81.5457 216.097 81.2439 216.743 80.8757 217.255C80.5075 217.762 80.1031 218.163 79.6624 218.459C79.2278 218.748 78.6996 218.968 78.0779 219.119C77.4622 219.27 76.753 219.345 75.9501 219.345H71.1604ZM72.9169 217.78H75.751C76.6262 217.78 77.3113 217.699 77.8063 217.536C78.3073 217.373 78.7057 217.144 79.0015 216.848C79.418 216.432 79.7409 215.874 79.9703 215.175C80.2057 214.469 80.3234 213.615 80.3234 212.614C80.3234 211.227 80.094 210.163 79.6353 209.421C79.1825 208.673 78.6302 208.172 77.9783 207.919C77.5075 207.738 76.7499 207.648 75.7057 207.648H72.9169V217.78Z" fill="#2D2D2D"/>
<path d="M84.8288 219.345V206.082H94.4264V207.648H86.5854V211.71H93.9284V213.266H86.5854V217.78H94.7343V219.345H84.8288Z" fill="#2D2D2D"/>
<path d="M260.618 198.412C260.618 198.412 246.292 207.273 259.793 216.071C262.39 217.785 271.81 222.55 271.542 226.96C271.542 226.96 277.252 218.391 268.904 212.999C260.329 207.482 258.186 201.588 260.618 198.412Z" fill="#ED1C24"/>
<path d="M255.63 215.34C255.63 215.34 250.519 223.198 260.577 224.807C261.567 224.933 268.843 225.706 270.739 228.13C270.739 228.13 270.574 223.951 264.638 221.484C258.722 219.018 256.29 218.412 255.63 215.34Z" fill="#ED1C24"/>
<path d="M275.418 207.085C269.276 200.564 267.565 196.531 270.203 191.306C270.203 191.306 251.879 198.453 269.976 211.139C276.449 215.674 275.377 220.314 275.377 220.481C276.387 219.415 281.56 213.605 275.418 207.085Z" fill="#ED1C24"/>
<path d="M285.132 219.345V206.082H286.934L293.906 216.495V206.082H295.59V219.345H293.788L286.816 208.923V219.345H285.132Z" fill="#2D2D2D"/>
<path d="M298.248 212.886C298.248 210.684 298.84 208.962 300.023 207.72C301.206 206.471 302.733 205.847 304.604 205.847C305.83 205.847 306.934 206.14 307.918 206.725C308.902 207.31 309.651 208.127 310.164 209.176C310.683 210.22 310.942 211.405 310.942 212.732C310.942 214.077 310.671 215.28 310.128 216.342C309.584 217.403 308.815 218.208 307.819 218.757C306.823 219.3 305.748 219.571 304.595 219.571C303.346 219.571 302.229 219.27 301.245 218.667C300.261 218.064 299.516 217.24 299.009 216.197C298.502 215.153 298.248 214.05 298.248 212.886ZM300.059 212.913C300.059 214.511 300.488 215.772 301.345 216.694C302.208 217.611 303.289 218.07 304.586 218.07C305.908 218.07 306.995 217.605 307.846 216.676C308.703 215.748 309.132 214.43 309.132 212.723C309.132 211.643 308.948 210.702 308.579 209.9C308.217 209.092 307.683 208.468 306.977 208.027C306.276 207.581 305.489 207.358 304.614 207.358C303.37 207.358 302.299 207.786 301.399 208.643C300.506 209.493 300.059 210.916 300.059 212.913Z" fill="#2D2D2D"/>
<path d="M313.447 219.345V206.082H318.019C319.052 206.082 319.839 206.146 320.383 206.272C321.143 206.447 321.792 206.764 322.329 207.222C323.029 207.813 323.552 208.57 323.896 209.493C324.246 210.41 324.421 211.459 324.421 212.641C324.421 213.649 324.303 214.541 324.068 215.319C323.832 216.097 323.53 216.743 323.162 217.255C322.794 217.762 322.39 218.163 321.949 218.459C321.514 218.748 320.986 218.968 320.364 219.119C319.749 219.27 319.039 219.345 318.237 219.345H313.447ZM315.203 217.78H318.037C318.913 217.78 319.598 217.699 320.093 217.536C320.594 217.373 320.992 217.144 321.288 216.848C321.704 216.432 322.027 215.874 322.257 215.175C322.492 214.469 322.61 213.615 322.61 212.614C322.61 211.227 322.381 210.163 321.922 209.421C321.469 208.673 320.917 208.172 320.265 207.919C319.794 207.738 319.036 207.648 317.992 207.648H315.203V217.78Z" fill="#2D2D2D"/>
<path d="M327.115 219.345V206.082H336.713V207.648H328.872V211.71H336.215V213.266H328.872V217.78H337.021V219.345H327.115Z" fill="#2D2D2D"/>
<path d="M112.375 151.866V67.8726C112.375 67.8726 129.102 84.0997 175.866 84.0997C222.629 84.0997 238.616 68.1754 238.616 68.1754V151.866C219.107 180.504 121.254 171.946 112.375 151.866Z" fill="#E0454C"/>
<path d="M112.008 210.067V124.68C112.008 124.68 128.186 141.197 174.949 141.197C221.712 141.197 238.574 123.598 238.574 123.598V210.067C218.687 234.998 124.111 230.323 112.008 210.067Z" fill="#0070CC"/>
<path d="M238.72 64.2553C238.72 66.6237 237.224 69.054 234.097 71.4175C230.986 73.7691 226.414 75.9299 220.656 77.7625C209.151 81.4239 193.137 83.7049 175.235 83.7049C157.332 83.7049 141.318 81.4239 129.814 77.7625C124.056 75.9299 119.484 73.7691 116.372 71.4175C113.245 69.054 111.749 66.6237 111.749 64.2553C111.749 61.8869 113.245 59.4566 116.372 57.0931C119.484 54.7415 124.056 52.5807 129.814 50.7481C141.318 47.0867 157.332 44.8057 175.235 44.8057C193.137 44.8057 209.151 47.0867 220.656 50.7481C226.414 52.5807 230.986 54.7415 234.097 57.0931C237.224 59.4566 238.72 61.8869 238.72 64.2553Z" fill="#E0454C" stroke="#2D2D2D" stroke-width="2"/>
<path d="M111.629 64.2554L112.303 208.007" stroke="#2D2D2D" stroke-width="2"/>
<path d="M238.721 63.889L238.721 208.007" stroke="#2D2D2D" stroke-width="2"/>
<path d="M238.721 208.007C238.721 218.853 210.423 227.646 175.515 227.646C140.607 227.646 112.308 218.853 112.308 208.007" stroke="#2D2D2D" stroke-width="2"/>
<path d="M238.725 120.755C238.725 131.602 210.331 140.395 175.305 140.395C140.28 140.395 111.886 131.602 111.886 120.755" stroke="#2D2D2D" stroke-width="2"/>
<path d="M131.962 116.552V102.279H134.808L138.189 112.385C138.501 113.326 138.728 114.031 138.871 114.498C139.033 113.979 139.287 113.216 139.631 112.21L143.051 102.279H145.595V116.552H143.772V104.606L139.621 116.552H137.916L133.784 104.401V116.552H131.962Z" fill="white"/>
<path d="M148.883 116.552V102.279H159.212V103.963H150.774V108.335H158.676V110.01H150.774V114.868H159.544V116.552H148.883Z" fill="white"/>
<path d="M162.296 116.552V102.279H165.142L168.523 112.385C168.835 113.326 169.062 114.031 169.205 114.498C169.368 113.979 169.621 113.216 169.965 112.21L173.386 102.279H175.929V116.552H174.107V104.606L169.955 116.552H168.25L164.119 104.401V116.552H162.296Z" fill="white"/>
<path d="M178.603 109.601C178.603 107.231 179.24 105.378 180.513 104.041C181.787 102.697 183.43 102.026 185.444 102.026C186.763 102.026 187.952 102.34 189.011 102.97C190.069 103.6 190.875 104.479 191.427 105.609C191.986 106.732 192.265 108.007 192.265 109.435C192.265 110.883 191.973 112.178 191.388 113.32C190.804 114.462 189.975 115.329 188.903 115.92C187.831 116.504 186.675 116.796 185.434 116.796C184.09 116.796 182.888 116.471 181.829 115.822C180.77 115.173 179.968 114.287 179.422 113.164C178.876 112.041 178.603 110.853 178.603 109.601ZM180.552 109.63C180.552 111.35 181.014 112.707 181.936 113.7C182.865 114.686 184.028 115.18 185.425 115.18C186.847 115.18 188.017 114.68 188.933 113.68C189.855 112.681 190.316 111.262 190.316 109.425C190.316 108.263 190.118 107.251 189.722 106.388C189.332 105.518 188.757 104.846 187.997 104.372C187.244 103.892 186.396 103.652 185.454 103.652C184.116 103.652 182.963 104.112 181.995 105.034C181.033 105.949 180.552 107.481 180.552 109.63Z" fill="white"/>
<path d="M194.94 116.552V102.279H201.274C202.547 102.279 203.515 102.409 204.178 102.668C204.84 102.921 205.37 103.373 205.766 104.022C206.162 104.671 206.36 105.388 206.36 106.173C206.36 107.186 206.032 108.04 205.376 108.734C204.72 109.429 203.707 109.87 202.336 110.058C202.836 110.298 203.216 110.535 203.476 110.769C204.028 111.275 204.551 111.908 205.045 112.668L207.53 116.552H205.152L203.262 113.583C202.709 112.726 202.255 112.07 201.897 111.616C201.54 111.162 201.219 110.844 200.933 110.662C200.653 110.48 200.368 110.354 200.075 110.282C199.861 110.237 199.51 110.214 199.023 110.214H196.83V116.552H194.94ZM196.83 108.578H200.894C201.758 108.578 202.433 108.491 202.921 108.315C203.408 108.134 203.778 107.848 204.031 107.459C204.285 107.063 204.412 106.634 204.412 106.173C204.412 105.498 204.165 104.943 203.671 104.508C203.184 104.074 202.411 103.856 201.352 103.856H196.83V108.578Z" fill="white"/>
<path d="M213.186 116.552V110.506L207.681 102.279H209.98L212.796 106.582C213.316 107.387 213.8 108.192 214.248 108.997C214.677 108.251 215.197 107.41 215.807 106.475L218.575 102.279H220.777L215.077 110.506V116.552H213.186Z" fill="white"/>
<path d="M151.98 202.296V188.022H156.901C158.012 188.022 158.859 188.09 159.444 188.227C160.263 188.415 160.961 188.756 161.539 189.249C162.293 189.885 162.855 190.7 163.225 191.693C163.602 192.68 163.79 193.809 163.79 195.081C163.79 196.165 163.663 197.126 163.41 197.963C163.157 198.801 162.832 199.495 162.436 200.047C162.039 200.592 161.604 201.024 161.13 201.342C160.662 201.653 160.094 201.89 159.425 202.053C158.762 202.215 157.999 202.296 157.135 202.296H151.98ZM153.87 200.612H156.92C157.862 200.612 158.599 200.524 159.132 200.349C159.671 200.173 160.1 199.927 160.418 199.609C160.867 199.161 161.214 198.56 161.461 197.807C161.714 197.048 161.841 196.129 161.841 195.052C161.841 193.559 161.594 192.413 161.101 191.615C160.613 190.81 160.019 190.271 159.317 189.999C158.811 189.804 157.995 189.707 156.871 189.707H153.87V200.612Z" fill="white"/>
<path d="M166.923 202.296V188.022H168.813V202.296H166.923Z" fill="white"/>
<path d="M171.712 197.71L173.495 197.554C173.58 198.268 173.774 198.856 174.08 199.317C174.392 199.771 174.872 200.141 175.522 200.427C176.172 200.706 176.902 200.845 177.714 200.845C178.436 200.845 179.072 200.738 179.624 200.524C180.177 200.31 180.586 200.018 180.852 199.648C181.125 199.271 181.261 198.862 181.261 198.421C181.261 197.973 181.132 197.583 180.872 197.252C180.612 196.915 180.183 196.633 179.585 196.405C179.202 196.256 178.354 196.026 177.042 195.714C175.73 195.396 174.811 195.097 174.284 194.818C173.602 194.461 173.092 194.02 172.755 193.494C172.423 192.962 172.258 192.368 172.258 191.712C172.258 190.992 172.462 190.32 172.871 189.697C173.281 189.067 173.878 188.59 174.664 188.266C175.451 187.941 176.324 187.779 177.286 187.779C178.345 187.779 179.277 187.951 180.082 188.295C180.894 188.632 181.518 189.132 181.953 189.794C182.389 190.456 182.622 191.206 182.655 192.043L180.842 192.18C180.745 191.277 180.414 190.596 179.849 190.135C179.29 189.674 178.462 189.444 177.364 189.444C176.22 189.444 175.386 189.655 174.859 190.077C174.34 190.492 174.08 190.995 174.08 191.586C174.08 192.099 174.265 192.52 174.635 192.852C174.999 193.183 175.947 193.523 177.481 193.874C179.02 194.218 180.076 194.52 180.648 194.779C181.479 195.162 182.093 195.649 182.489 196.24C182.886 196.824 183.084 197.499 183.084 198.265C183.084 199.024 182.866 199.742 182.431 200.417C181.996 201.085 181.369 201.608 180.55 201.984C179.738 202.354 178.822 202.539 177.802 202.539C176.509 202.539 175.425 202.351 174.548 201.975C173.677 201.598 172.992 201.033 172.491 200.28C171.998 199.521 171.738 198.664 171.712 197.71Z" fill="white"/>
<path d="M185.788 202.296V188.022H187.678V195.101L194.772 188.022H197.335L191.342 193.806L197.598 202.296H195.103L190.017 195.071L187.678 197.35V202.296H185.788Z" fill="white"/>
</svg>
