<svg width="350" height="220" viewBox="0 0 350 220" fill="none" xmlns="http://www.w3.org/2000/svg">
<rect width="350" height="220" fill="#0070CC"/>
<mask id="mask0" style="mask-type:alpha" maskUnits="userSpaceOnUse" x="0" y="0" width="350" height="220">
<rect y="0.00012207" width="350" height="220" fill="#0070CC"/>
</mask>
<g mask="url(#mask0)">
<path fill-rule="evenodd" clip-rule="evenodd" d="M82.9151 310.302L485.88 -121.42L486.077 -121.237L83.1113 310.486L82.9151 310.302Z" fill="white"/>
<path fill-rule="evenodd" clip-rule="evenodd" d="M232.322 -204.242C232.32 -204.243 232.319 -204.243 232.373 -204.366C232.426 -204.489 232.427 -204.489 232.428 -204.488L232.436 -204.485L232.467 -204.471C232.494 -204.46 232.535 -204.442 232.589 -204.418C232.697 -204.371 232.857 -204.299 233.067 -204.204C233.488 -204.015 234.108 -203.73 234.909 -203.35C236.512 -202.591 238.836 -201.45 241.726 -199.928C247.507 -196.882 255.552 -192.306 264.609 -186.184C282.721 -173.939 304.889 -155.505 321.093 -130.748C337.299 -105.99 347.54 -74.9077 341.794 -37.378C336.049 0.148849 314.321 44.1066 266.62 94.6247C171.242 195.635 120.871 249.6 94.3456 278.313C81.0828 292.669 73.7814 300.711 69.796 305.165C67.8032 307.391 66.6397 308.72 65.9746 309.492C65.6421 309.879 65.4342 310.125 65.3097 310.275C65.2475 310.35 65.2062 310.401 65.1805 310.433C65.1677 310.448 65.1588 310.46 65.1531 310.467L65.1458 310.476L65.0395 310.394C64.9334 310.312 64.9337 310.312 64.9337 310.312L64.9342 310.311L64.9359 310.309L64.9428 310.3C64.949 310.292 64.9584 310.281 64.9717 310.264C64.9982 310.231 65.0404 310.179 65.1033 310.104C65.2291 309.952 65.438 309.704 65.7713 309.317C66.4379 308.544 67.6026 307.213 69.596 304.986C73.5828 300.531 80.8852 292.487 94.1485 278.13C120.675 249.417 171.046 195.451 266.425 94.4404C314.102 43.9476 335.794 0.0375977 341.529 -37.4186C347.263 -74.872 337.045 -105.888 320.869 -130.602C304.691 -155.317 282.554 -173.728 264.458 -185.961C255.411 -192.078 247.375 -196.649 241.601 -199.69C238.715 -201.211 236.393 -202.35 234.794 -203.108C233.995 -203.487 233.376 -203.771 232.957 -203.96C232.747 -204.054 232.588 -204.125 232.481 -204.172C232.427 -204.196 232.387 -204.214 232.36 -204.225L232.329 -204.239L232.322 -204.242Z" fill="white"/>
<path fill-rule="evenodd" clip-rule="evenodd" d="M214.348 -204.242C214.347 -204.243 214.346 -204.243 214.399 -204.366C214.452 -204.489 214.453 -204.489 214.455 -204.488L214.462 -204.485L214.493 -204.471C214.521 -204.46 214.561 -204.442 214.615 -204.418C214.723 -204.371 214.883 -204.299 215.093 -204.204C215.514 -204.015 216.134 -203.73 216.936 -203.35C218.538 -202.591 220.862 -201.45 223.753 -199.928C229.533 -196.882 237.578 -192.306 246.635 -186.184C264.748 -173.939 286.915 -155.505 303.12 -130.748C319.325 -105.99 329.567 -74.9077 323.821 -37.378C318.075 0.148849 296.347 44.1066 248.646 94.6247C153.268 195.635 102.897 249.6 76.3719 278.313C63.1091 292.669 55.8077 300.711 51.8223 305.165C49.8295 307.391 48.666 308.72 48.0009 309.492C47.6683 309.879 47.4605 310.125 47.336 310.275C47.2738 310.35 47.2324 310.401 47.2068 310.433C47.1939 310.448 47.185 310.46 47.1794 310.467L47.1721 310.476L47.0658 310.394C46.9597 310.312 46.9599 310.312 46.9599 310.312L46.9604 310.311L46.9622 310.309L46.9691 310.3C46.9753 310.292 46.9847 310.281 46.9979 310.264C47.0245 310.231 47.0667 310.179 47.1296 310.104C47.2553 309.952 47.4642 309.704 47.7976 309.317C48.4642 308.544 49.6289 307.213 51.6223 304.986C55.6091 300.531 62.9115 292.487 76.1748 278.13C102.701 249.417 153.072 195.451 248.451 94.4404C296.128 43.9476 317.821 0.0375977 323.555 -37.4186C329.29 -74.872 319.071 -105.888 302.895 -130.602C286.717 -155.317 264.581 -173.728 246.485 -185.961C237.437 -192.078 229.401 -196.649 223.628 -199.69C220.741 -201.211 218.42 -202.35 216.821 -203.108C216.021 -203.487 215.402 -203.771 214.983 -203.96C214.773 -204.054 214.614 -204.125 214.507 -204.172C214.453 -204.196 214.413 -204.214 214.386 -204.225L214.356 -204.239L214.348 -204.242Z" fill="white"/>
<path fill-rule="evenodd" clip-rule="evenodd" d="M196.378 -204.242C196.376 -204.243 196.376 -204.243 196.429 -204.366C196.482 -204.489 196.483 -204.489 196.484 -204.488L196.492 -204.485L196.523 -204.471C196.55 -204.46 196.591 -204.442 196.645 -204.418C196.753 -204.371 196.913 -204.299 197.123 -204.204C197.544 -204.015 198.164 -203.73 198.965 -203.35C200.568 -202.591 202.892 -201.45 205.783 -199.928C211.563 -196.882 219.608 -192.306 228.665 -186.184C246.777 -173.939 268.945 -155.505 285.149 -130.748C301.355 -105.99 311.596 -74.9077 305.85 -37.378C300.105 0.148849 278.377 44.1066 230.676 94.6247C135.298 195.635 84.9273 249.6 58.4017 278.313C45.1389 292.669 37.8375 300.711 33.8521 305.165C31.8593 307.391 30.6958 308.72 30.0307 309.492C29.6981 309.879 29.4903 310.125 29.3658 310.275C29.3036 310.35 29.2622 310.401 29.2366 310.433C29.2237 310.448 29.2148 310.46 29.2092 310.467L29.2019 310.476L29.0956 310.394C28.9895 310.312 28.9897 310.312 28.9897 310.312L28.9902 310.311L28.992 310.309L28.9989 310.3C29.0051 310.292 29.0145 310.281 29.0277 310.264C29.0543 310.231 29.0965 310.179 29.1594 310.104C29.2851 309.952 29.494 309.704 29.8273 309.317C30.4939 308.544 31.6587 307.213 33.6521 304.986C37.6389 300.531 44.9413 292.487 58.2046 278.13C84.7312 249.417 135.102 195.451 230.481 94.4404C278.158 43.9476 299.85 0.0375977 305.585 -37.4186C311.319 -74.872 301.101 -105.888 284.925 -130.602C268.747 -155.317 246.611 -173.728 228.514 -185.961C219.467 -192.078 211.431 -196.649 205.657 -199.69C202.771 -201.211 200.449 -202.35 198.85 -203.108C198.051 -203.487 197.432 -203.771 197.013 -203.96C196.803 -204.054 196.644 -204.125 196.537 -204.172C196.483 -204.196 196.443 -204.214 196.416 -204.225L196.386 -204.239L196.378 -204.242Z" fill="white"/>
<path fill-rule="evenodd" clip-rule="evenodd" d="M174.807 -204.242C174.806 -204.243 174.805 -204.243 174.858 -204.366C174.911 -204.489 174.912 -204.489 174.914 -204.488L174.922 -204.485L174.953 -204.471C174.98 -204.46 175.021 -204.442 175.074 -204.418C175.182 -204.371 175.342 -204.299 175.553 -204.204C175.973 -204.015 176.594 -203.73 177.395 -203.35C178.997 -202.591 181.322 -201.45 184.212 -199.928C189.993 -196.882 198.037 -192.306 207.094 -186.184C225.207 -173.939 247.375 -155.505 263.579 -130.748C279.785 -105.99 290.026 -74.9077 284.28 -37.378C278.534 0.148849 256.806 44.1066 209.105 94.6247C113.727 195.635 63.3567 249.6 36.8312 278.313C23.5683 292.669 16.267 300.711 12.2815 305.165C10.2888 307.391 9.12525 308.72 8.46013 309.492C8.12758 309.879 7.91976 310.125 7.79527 310.275C7.73303 310.35 7.69167 310.401 7.66601 310.433C7.65318 310.448 7.64428 310.46 7.63867 310.467L7.63133 310.476L7.52501 310.394C7.41894 310.312 7.41919 310.312 7.41919 310.312L7.41969 310.311L7.42146 310.309L7.42835 310.3C7.4345 310.292 7.4439 310.281 7.45718 310.264C7.48375 310.231 7.52591 310.179 7.5888 310.104C7.71458 309.952 7.92348 309.704 8.25679 309.317C8.92339 308.544 10.0881 307.213 12.0815 304.986C16.0683 300.531 23.3708 292.487 36.634 278.13C63.1606 249.417 113.532 195.451 208.91 94.4404C256.587 43.9476 278.28 0.0375977 284.015 -37.4186C289.749 -74.872 279.53 -105.888 263.354 -130.602C247.177 -155.317 225.04 -173.728 206.944 -185.961C197.896 -192.078 189.861 -196.649 184.087 -199.69C181.2 -201.211 178.879 -202.35 177.28 -203.108C176.48 -203.487 175.861 -203.771 175.442 -203.96C175.233 -204.054 175.073 -204.125 174.966 -204.172C174.913 -204.196 174.872 -204.214 174.845 -204.225L174.815 -204.239L174.807 -204.242Z" fill="white"/>
<path fill-rule="evenodd" clip-rule="evenodd" d="M95.1353 313.897L498.1 -117.826L498.297 -117.642L95.3314 314.08L95.1353 313.897Z" fill="white"/>
<path fill-rule="evenodd" clip-rule="evenodd" d="M107.359 317.492L510.324 -114.231L510.52 -114.048L107.555 317.675L107.359 317.492Z" fill="white"/>
<path fill-rule="evenodd" clip-rule="evenodd" d="M119.583 321.086L522.548 -110.637L522.744 -110.453L119.779 321.269L119.583 321.086Z" fill="white"/>
<path fill-rule="evenodd" clip-rule="evenodd" d="M131.806 324.681L534.772 -107.042L534.968 -106.859L132.002 324.864L131.806 324.681Z" fill="white"/>
<path fill-rule="evenodd" clip-rule="evenodd" d="M144.03 328.276L546.995 -103.447L547.191 -103.264L144.226 328.459L144.03 328.276Z" fill="white"/>
<path fill-rule="evenodd" clip-rule="evenodd" d="M156.247 331.87L559.212 -99.8524L559.408 -99.6692L156.443 332.054L156.247 331.87Z" fill="white"/>
<path fill-rule="evenodd" clip-rule="evenodd" d="M168.47 335.465L571.435 -96.2575L571.632 -96.0744L168.666 335.648L168.47 335.465Z" fill="white"/>
<path fill-rule="evenodd" clip-rule="evenodd" d="M180.694 339.06L583.659 -92.6627L583.855 -92.4795L180.89 339.243L180.694 339.06Z" fill="white"/>
<path fill-rule="evenodd" clip-rule="evenodd" d="M192.911 342.655L595.876 -89.0682L596.072 -88.885L193.107 342.838L192.911 342.655Z" fill="white"/>
<path fill-rule="evenodd" clip-rule="evenodd" d="M205.134 346.25L608.099 -85.4733L608.296 -85.2902L205.33 346.433L205.134 346.25Z" fill="white"/>
<path d="M189.379 111.881L192.925 114.972L193.816 110.437L189.379 111.881Z" fill="white"/>
<path d="M243.699 96.8367L247.486 99.6273L248.004 95.0354L243.699 96.8367Z" fill="white"/>
<path d="M278.293 114.162L281.835 117.257L282.732 112.724L278.293 114.162Z" fill="white"/>
<path d="M282.976 192.505L286.49 195.633L287.429 191.108L282.976 192.505Z" fill="white"/>
<path d="M272.814 260.423L269.217 257.391L268.402 261.94L272.814 260.423Z" fill="white"/>
<path d="M366.635 109.805L363.037 106.773L362.222 111.322L366.635 109.805Z" fill="white"/>
<path d="M266.135 47.9542L270.211 50.3032L270.211 45.6822L266.135 47.9542Z" fill="white"/>
</g>
</svg>
