<svg width="86" height="24" viewBox="0 0 86 24" fill="none" xmlns="http://www.w3.org/2000/svg">
<path fill-rule="evenodd" clip-rule="evenodd" d="M0 1.28229H22.5313V23.8893H0V1.28229Z" fill="black"/>
<path fill-rule="evenodd" clip-rule="evenodd" d="M0.651611 1.93567H21.8795V23.2354H0.651611V1.93567Z" fill="#FFF200"/>
<path fill-rule="evenodd" clip-rule="evenodd" d="M1.77792 18.9319L4.54708 21.7642L11.0351 15.1594L17.7402 21.9003L20.5498 19.1086L13.9121 12.4495L15.1881 11.2103V8.56836L15.9891 7.88757V9.95734L17.0207 10.8016L20.1016 7.7104L21.0923 8.47292C21.6761 6.30771 18.2963 1.39144 15.5003 4.11508L12.2424 7.35605L12.9077 8.15969L11.2517 9.78017L9.65029 8.20031L10.4917 7.4373L6.9221 3.97854C4.23489 1.75851 1.4794 5.13651 1.38428 8.43181L2.36131 7.61496L5.3607 10.8564L6.43285 9.95783V7.9693L7.09771 8.47292V11.0742L8.40058 12.3815L1.77792 18.9319Z" fill="black"/>
<path fill-rule="evenodd" clip-rule="evenodd" d="M28.2862 3.99223V5.95336H29.1276C30.2813 5.73556 29.9691 4.07397 29.1276 3.99223H28.2862ZM25.8975 2.04482V10.9244H28.2862V8.03732L30.3222 10.9244H33.1455L30.6349 7.37024C33.5397 5.95385 32.4538 2.08593 29.3998 2.0453H25.8975V2.04482ZM36.9459 6.48438C37.7331 6.48438 38.3707 7.08344 38.3707 7.81904C38.3707 8.55416 37.7327 9.1537 36.9459 9.1537C36.1722 9.1537 35.5342 8.55416 35.5342 7.81904C35.5342 7.08344 36.1722 6.48438 36.9459 6.48438ZM36.4434 4.52326C37.0951 4.52326 37.7058 4.74105 38.2078 5.09491V4.75476H40.5423L40.556 10.9239H38.1941L38.2078 10.5427C37.7058 10.8965 37.0951 11.1011 36.4434 11.1011C34.706 11.1011 33.2811 9.6304 33.2811 7.81904C33.2811 6.00768 34.7064 4.52326 36.4434 4.52326ZM41.7915 4.75476H44.2753V10.9239H41.7915V4.75476ZM43.0398 1.22748C43.7597 1.22748 44.3431 1.82653 44.3431 2.54843C44.3431 3.27033 43.7597 3.86939 43.0398 3.86939C42.3071 3.86939 41.7232 3.26984 41.7232 2.54843C41.7237 1.82702 42.3071 1.22748 43.0398 1.22748ZM61.8932 4.75476H64.377V10.9239H61.8932V4.75476ZM63.1282 1.22748C63.8614 1.22748 64.4448 1.82653 64.4448 2.54843C64.4448 3.27033 63.8614 3.86939 63.1282 3.86939C62.4087 3.86939 61.8253 3.26984 61.8253 2.54843C61.8253 1.82702 62.4087 1.22748 63.1282 1.22748ZM44.7368 4.75476V6.71588H45.5919V10.9239H47.9947V6.71588H50.2478V10.9239H52.7316V6.68896H54.2788V4.78216H52.6633V3.40688C52.6228 2.90327 53.8037 2.69869 54.211 3.10736V1.09142C51.9306 0.369516 50.0848 1.66355 50.098 3.6653V4.75476H47.9805V3.40688C47.9532 2.90327 48.9854 2.69869 49.5819 3.10736V1.09142C47.6001 0.506065 45.4831 1.47268 45.4967 3.65159V4.74105L44.7368 4.75476ZM57.8211 11.1011C59.9523 11.0874 60.7391 10.2025 61.201 8.9085H59.043C58.0655 10.1614 56.6402 9.24914 56.7085 8.22771H61.2693C61.2693 5.72186 59.9386 4.53696 57.8216 4.53696C55.7046 4.53696 54.3744 6.03509 54.3744 7.86015C54.3744 9.68522 55.9212 11.1148 57.8211 11.1011ZM57.0202 6.7707C57.0475 6.02139 58.6762 6.02139 58.7845 6.7707H57.0202ZM74.7331 11.1011C76.8774 11.0874 77.6652 10.2025 78.1262 8.9085H75.9545C74.9775 10.1614 73.5522 9.24914 73.6205 8.22771H78.1813C78.1813 5.72186 76.8647 4.53696 74.7336 4.53696C72.6161 4.53696 71.2864 6.03509 71.2864 7.86015C71.2864 9.68522 72.8327 11.1148 74.7331 11.1011ZM73.9322 6.7707C73.9595 6.02139 75.5882 6.02139 75.6965 6.7707H73.9322ZM70.6343 4.8776L69.9011 6.37573C68.9782 6.08942 68.0822 6.14423 68.1095 6.40265C68.1368 6.56612 67.9875 6.85194 69.426 7.05652C71.5703 7.39667 71.3942 11.4006 67.7973 11.1011C66.8066 11.0331 66.0057 10.7742 65.3408 10.3792L66.1418 8.77195C67.2685 9.33038 68.3539 9.65732 68.4353 9.09889C68.5305 8.40439 67.2544 8.64959 66.4808 8.06375C65.0964 7.20579 65.8832 4.55018 68.1505 4.52277C68.9509 4.46893 69.7792 4.60499 70.6343 4.8776ZM79.131 4.75476V10.9239H81.4524V7.15147C81.5202 6.21177 83.3659 6.04831 83.3796 7.15147V10.9239H85.7273V7.05652C85.6732 4.89131 83.4064 3.84247 81.3568 5.21775V4.75476H79.131ZM27.2682 14.6964L25.7209 23.8482H30.1052C33.0777 23.8482 34.2991 20.1442 32.1817 18.8776C33.987 17.2023 33.0641 14.6832 31.1232 14.6558L27.2682 14.6964ZM29.0462 20.1574L28.734 21.6693H29.752C30.9056 21.7236 30.77 20.1574 30.1052 20.1574H29.0462ZM29.5618 16.8753L29.3042 18.1014L29.6164 18.1146C30.5529 18.1689 31.0959 16.8753 29.9691 16.8753H29.5618ZM33.1724 23.8619H35.8327L36.6337 22.2546H39.6467L40.0945 23.8893H42.551L40.4204 14.7508H37.9092L33.1724 23.8619ZM37.5024 20.3346H39.1585L38.6292 17.9237L37.5024 20.3346ZM43.3929 23.8893H45.8499L46.4738 18.1557L49.9892 23.8619H52.6223L53.7218 14.6959H51.2653L50.5731 20.4295L47.0572 14.6685H44.5192L43.3929 23.8893ZM55.4866 14.669L53.7627 23.8619H56.3553L57.0475 20.4295L59.3684 23.8619H62.7751L59.4498 19.0406L63.6985 14.6553H60.4L57.4953 17.8963L57.9567 14.6553L55.4866 14.669Z" fill="black"/>
</svg>
