<svg width="50" height="22" viewBox="0 0 50 22" fill="none" xmlns="http://www.w3.org/2000/svg">
<path d="M10.189 13.5012V12.8409C9.73538 13.5602 9.11895 14.0201 8.33968 14.197C7.56041 14.3738 6.79277 14.3149 6.03677 14.0083C5.26913 13.7017 4.6178 13.1239 4.07115 12.2867C3.5245 11.4495 3.24536 10.3528 3.24536 8.98498C3.24536 7.38129 3.60592 6.09598 4.32703 5.09368C5.04815 4.10317 6.21123 3.60791 7.81629 3.60791C9.03753 3.60791 10.1657 3.93808 11.2125 4.61021C12.2593 5.28235 12.771 6.52049 12.771 8.32464V13.7725C12.771 15.5766 12.2476 16.8029 11.2125 17.4633C10.1657 18.1236 9.03753 18.4538 7.81629 18.4538C5.47849 18.4538 4.02463 17.3454 3.46635 15.1285H6.24612C6.44385 15.4941 6.75788 15.7653 7.17659 15.9657C7.5953 16.1544 8.01401 16.2134 8.43272 16.119C8.85144 16.0247 9.23525 15.7771 9.57255 15.3643C9.93311 14.9398 10.1308 14.3267 10.189 13.5012ZM5.83904 9.05573C5.83904 10.8363 6.3508 11.8268 7.36269 12.0155C8.37457 12.2041 9.13058 11.9683 9.60744 11.2962C9.84006 11.0132 10.0029 10.5651 10.1076 9.9637C10.2122 9.36231 10.2122 8.76093 10.1308 8.15955C10.0378 7.56996 9.82843 7.03933 9.50277 6.57945C9.1771 6.11957 8.6886 5.88373 8.04891 5.88373C7.18822 5.88373 6.59505 6.20211 6.29265 6.85066C5.99024 7.48742 5.83904 8.2303 5.83904 9.05573Z" fill="white"/>
<path d="M22.0881 14.1144H20.7505C20.3667 14.1144 20.0527 13.9965 19.82 13.7489C19.5758 13.5012 19.4595 13.1829 19.4595 12.8055V7.54638C19.4595 6.9332 19.2734 6.47332 18.9012 6.19032C18.529 5.90731 18.1219 5.76581 17.6567 5.76581C17.2031 5.76581 16.796 5.90731 16.4355 6.19032C16.0749 6.47332 15.9004 6.92141 15.9004 7.54638V14.1262H13.2253V8.0888C13.2253 6.33182 13.6789 5.16443 14.5745 4.57484C15.4817 3.98525 16.4703 3.65508 17.5637 3.60791C18.6802 3.60791 19.7154 3.90271 20.6575 4.4923C21.5996 5.08189 22.0648 6.28465 22.0648 8.0888V14.1144H22.0881Z" fill="white"/>
<path d="M22.739 4.72864H25.4141C25.4141 6.16724 25.4141 5.68377 25.4141 6.04932V14.1267H22.739V4.72864Z" fill="white"/>
<path d="M30.3229 14.1152C29.4854 14.1624 28.5782 14.1506 27.6012 14.0798C26.6242 13.9973 26.1357 13.3723 26.1357 12.1813V2.12292H27.5082C27.8338 2.12292 28.1363 2.25263 28.3805 2.51205C28.6364 2.77147 28.7643 3.07806 28.7643 3.44361V3.79736H30.3229V4.33979C30.3229 4.72892 30.1949 5.04729 29.939 5.28313C29.6832 5.53076 29.3808 5.64868 29.0202 5.64868H28.7527V11.4385C28.7527 11.8748 29.0086 12.0988 29.5203 12.0988H30.3229V14.1152Z" fill="white"/>
<path d="M37.6033 10.9426H39.5108C39.2317 12.0275 38.6966 12.8529 37.9057 13.4189C37.1148 14.0085 36.1262 14.3033 34.9282 14.3033C33.4744 14.3033 32.3462 13.8316 31.532 12.8765C30.7179 11.9449 30.3108 10.6242 30.3108 8.89084C30.3108 7.23998 30.7062 5.95468 31.4971 5.02312C32.3113 4.06799 33.4395 3.59631 34.8933 3.59631C36.417 3.59631 37.6033 4.05619 38.4408 4.98775C39.2549 5.94288 39.662 7.26357 39.662 8.97338C39.662 9.07951 39.662 9.16205 39.662 9.24459C39.662 9.32713 39.662 9.3743 39.662 9.39789C39.662 9.5276 39.6504 9.62193 39.6271 9.6691H33.0324C33.0557 10.4709 33.2534 11.0605 33.6023 11.4497C33.928 11.8624 34.4281 12.0628 35.0911 12.0628C35.5214 12.0628 35.8936 11.9685 36.196 11.7916C36.2774 11.768 36.3472 11.7209 36.4054 11.6501C36.4635 11.5912 36.5333 11.5204 36.6147 11.4379C36.638 11.3553 36.731 11.261 36.9055 11.1313C37.0683 11.0134 37.3009 10.9426 37.6033 10.9426ZM33.0324 7.9357H36.9287C36.8822 7.23998 36.6961 6.72114 36.3937 6.39097C36.0681 6.02543 35.5912 5.84855 34.9864 5.84855C34.4281 5.84855 33.9745 6.02543 33.614 6.39097C33.2418 6.74473 33.0557 7.26357 33.0324 7.9357Z" fill="white"/>
<path d="M0 0.00012207H1.37244C1.733 0.00012207 2.0354 0.129832 2.29128 0.389252C2.54716 0.648672 2.6751 0.955259 2.6751 1.32081V14.1267H0V0.00012207Z" fill="white"/>
<path d="M22.7385 2.12305H24.111C24.4715 2.12305 24.7739 2.25276 25.0298 2.51218C25.2857 2.7716 25.4136 3.07818 25.4136 3.44373V4.25736H22.7385V2.12305Z" fill="white"/>
<path d="M17.9724 19.7344V19.5278L21.2753 17.4829L21.5417 17.9247L18.7578 19.599L21.5488 21.2449L21.2823 21.6724L17.9724 19.7344Z" fill="white"/>
<path d="M24.7928 20.9457C24.7928 20.7937 24.7343 20.6773 24.6175 20.5966C24.5006 20.5111 24.3557 20.4446 24.1827 20.3971C24.0097 20.3448 23.8204 20.2973 23.6147 20.2546C23.4137 20.2118 23.2267 20.1548 23.0537 20.0836C22.8807 20.0123 22.7358 19.9173 22.6189 19.7985C22.502 19.675 22.4436 19.504 22.4436 19.2855C22.4436 19.105 22.481 18.9507 22.5558 18.8224C22.6353 18.6942 22.7381 18.5897 22.8644 18.5089C22.9906 18.4234 23.1378 18.3617 23.3061 18.3237C23.4744 18.2809 23.6497 18.2595 23.8321 18.2595C24.1593 18.2595 24.4398 18.3023 24.6736 18.3878C24.912 18.4685 25.1013 18.554 25.2416 18.6443L25.0172 19.0932C24.8629 19.0077 24.6946 18.9269 24.5123 18.8509C24.3346 18.7702 24.1102 18.7298 23.8391 18.7298C23.7362 18.7298 23.6334 18.7417 23.5305 18.7654C23.4324 18.7844 23.3412 18.8153 23.2571 18.858C23.1776 18.9008 23.1121 18.9578 23.0607 19.029C23.014 19.0955 22.9906 19.1787 22.9906 19.2784C22.9906 19.4019 23.049 19.4969 23.1659 19.5634C23.2828 19.6299 23.4277 19.6869 23.6007 19.7344C23.7736 19.7772 23.9606 19.8199 24.1617 19.8627C24.3674 19.9007 24.5567 19.9577 24.7297 20.0337C24.9026 20.1097 25.0476 20.2118 25.1644 20.3401C25.2813 20.4683 25.3397 20.6417 25.3397 20.8602C25.3397 21.1879 25.2112 21.4587 24.9541 21.6724C24.7016 21.8862 24.3206 21.9931 23.811 21.9931C23.6568 21.9931 23.5048 21.9788 23.3552 21.9503C23.2056 21.9218 23.0654 21.8838 22.9345 21.8363C22.8036 21.7888 22.6844 21.7366 22.5768 21.6796C22.4693 21.6178 22.3805 21.5561 22.3104 21.4943L22.5909 21.0312C22.647 21.0882 22.7218 21.1476 22.8153 21.2093C22.9088 21.2663 23.0116 21.3186 23.1238 21.3661C23.236 21.4136 23.3552 21.4516 23.4814 21.4801C23.6123 21.5086 23.7432 21.5228 23.8741 21.5228C24.0004 21.5228 24.1172 21.5133 24.2248 21.4943C24.337 21.4706 24.4351 21.4373 24.5193 21.3946C24.6034 21.3471 24.6689 21.2877 24.7156 21.2164C24.7671 21.1404 24.7928 21.0502 24.7928 20.9457Z" fill="white"/>
<path d="M28.3313 18.345H29.3271V20.7747C29.3271 21.0074 29.3411 21.2307 29.3692 21.4444H29.839V21.9076H28.9063L28.8853 21.3019H28.8573C28.7357 21.5062 28.5744 21.6724 28.3734 21.8007C28.1724 21.9289 27.9293 21.9931 27.6441 21.9931C27.429 21.9931 27.2444 21.9669 27.0901 21.9147C26.9405 21.8672 26.8166 21.7817 26.7185 21.6582C26.6203 21.5347 26.5478 21.3708 26.5011 21.1666C26.4543 20.9576 26.4309 20.6987 26.4309 20.3899V18.8224H25.9611V18.345H26.9779V20.2759C26.9779 20.4707 26.9849 20.6464 26.999 20.8032C27.0177 20.9552 27.0527 21.0858 27.1041 21.1951C27.1556 21.2996 27.2304 21.3803 27.3285 21.4373C27.4314 21.4896 27.567 21.5157 27.7353 21.5157C27.9784 21.5157 28.1887 21.4349 28.3664 21.2734C28.5487 21.1119 28.6866 20.9101 28.7801 20.6678V18.8224H28.3313V18.345Z" fill="white"/>
<path d="M31.6875 21.9076V19.5349C31.6875 19.4352 31.6829 19.3402 31.6735 19.2499C31.6688 19.1549 31.6525 19.0718 31.6244 19.0005C31.601 18.9245 31.5636 18.8652 31.5122 18.8224C31.4655 18.7797 31.4024 18.7583 31.3229 18.7583C31.1639 18.7583 31.0284 18.8248 30.9162 18.9578C30.8086 19.0908 30.7268 19.257 30.6707 19.4565V21.9076H30.1378V18.345H30.5024L30.6076 18.7797H30.6357C30.6824 18.7084 30.7268 18.6419 30.7689 18.5802C30.8157 18.5137 30.8671 18.4567 30.9232 18.4092C30.984 18.3617 31.0541 18.326 31.1336 18.3023C31.213 18.2738 31.3135 18.2595 31.4351 18.2595C31.5052 18.2595 31.5777 18.2714 31.6525 18.2952C31.7273 18.3142 31.7951 18.3474 31.8558 18.3949C31.9213 18.4377 31.9774 18.497 32.0241 18.573C32.0709 18.649 32.1013 18.7417 32.1153 18.8509C32.2228 18.6657 32.342 18.5208 32.4729 18.4163C32.6085 18.3118 32.7932 18.2595 33.0269 18.2595C33.1812 18.2595 33.3051 18.2857 33.3986 18.3379C33.4967 18.3902 33.5715 18.4662 33.623 18.5659C33.6791 18.6609 33.7165 18.7773 33.7352 18.915C33.7585 19.048 33.7702 19.1977 33.7702 19.3639V21.9076H33.2373V19.485C33.2373 19.3853 33.2326 19.2927 33.2233 19.2072C33.2139 19.1169 33.1952 19.0385 33.1672 18.972C33.1438 18.9055 33.1087 18.8533 33.062 18.8153C33.0199 18.7773 32.9615 18.7583 32.8867 18.7583C32.723 18.7583 32.5851 18.8248 32.4729 18.9578C32.3607 19.0908 32.2766 19.2808 32.2205 19.5278V21.9076H31.6875Z" fill="white"/>
<path d="M35.752 21.9076V19.5349C35.752 19.4352 35.7473 19.3402 35.738 19.2499C35.7333 19.1549 35.7169 19.0718 35.6889 19.0005C35.6655 18.9245 35.6281 18.8652 35.5767 18.8224C35.5299 18.7797 35.4668 18.7583 35.3874 18.7583C35.2284 18.7583 35.0928 18.8248 34.9806 18.9578C34.8731 19.0908 34.7913 19.257 34.7352 19.4565V21.9076H34.2023V18.345H34.5669L34.6721 18.7797H34.7001C34.7469 18.7084 34.7913 18.6419 34.8334 18.5802C34.8801 18.5137 34.9316 18.4567 34.9877 18.4092C35.0484 18.3617 35.1186 18.326 35.198 18.3023C35.2775 18.2738 35.378 18.2595 35.4996 18.2595C35.5697 18.2595 35.6421 18.2714 35.7169 18.2952C35.7917 18.3142 35.8595 18.3474 35.9203 18.3949C35.9858 18.4377 36.0419 18.497 36.0886 18.573C36.1354 18.649 36.1657 18.7417 36.1798 18.8509C36.2873 18.6657 36.4065 18.5208 36.5374 18.4163C36.673 18.3118 36.8576 18.2595 37.0914 18.2595C37.2457 18.2595 37.3695 18.2857 37.463 18.3379C37.5612 18.3902 37.636 18.4662 37.6874 18.5659C37.7435 18.6609 37.7809 18.7773 37.7996 18.915C37.823 19.048 37.8347 19.1977 37.8347 19.3639V21.9076H37.3018V19.485C37.3018 19.3853 37.2971 19.2927 37.2877 19.2072C37.2784 19.1169 37.2597 19.0385 37.2316 18.972C37.2083 18.9055 37.1732 18.8533 37.1264 18.8153C37.0844 18.7773 37.0259 18.7583 36.9511 18.7583C36.7875 18.7583 36.6496 18.8248 36.5374 18.9578C36.4252 19.0908 36.3411 19.2808 36.285 19.5278V21.9076H35.752Z" fill="white"/>
<path d="M38.7155 21.9076V21.4302H39.9357V18.8224H38.7155V18.345H40.4967V21.4302H41.6888V21.9076H38.7155ZM39.7464 17.3333C39.7464 17.205 39.7884 17.0958 39.8726 17.0055C39.9567 16.9105 40.0643 16.863 40.1952 16.863C40.3307 16.863 40.4429 16.9105 40.5318 17.0055C40.6253 17.0958 40.672 17.205 40.672 17.3333C40.672 17.4568 40.6253 17.5613 40.5318 17.6468C40.4429 17.7323 40.3307 17.775 40.1952 17.775C40.0643 17.775 39.9567 17.7323 39.8726 17.6468C39.7884 17.5613 39.7464 17.4568 39.7464 17.3333Z" fill="white"/>
<path d="M42.2611 18.345H43.0956V17.6397L43.6425 17.4829V18.345H45.5149V18.8224H43.6425V20.5039C43.6425 20.8507 43.7243 21.1072 43.888 21.2734C44.0563 21.4397 44.2947 21.5228 44.6032 21.5228C44.8136 21.5228 44.9959 21.4824 45.1502 21.4017C45.3092 21.3209 45.4517 21.2331 45.578 21.1381L45.7603 21.5584C45.5967 21.6914 45.4003 21.7983 45.1712 21.8791C44.9469 21.9598 44.7154 22.0002 44.477 22.0002C44.29 22.0002 44.1124 21.9717 43.9441 21.9147C43.7804 21.8624 43.6355 21.7793 43.5093 21.6653C43.3831 21.5513 43.2826 21.4064 43.2078 21.2307C43.133 21.0502 43.0956 20.8364 43.0956 20.5894V18.8224H42.2611V18.345Z" fill="white"/>
<path d="M46.6902 21.6724L46.4237 21.2449L49.2147 19.599L46.4307 17.9247L46.6972 17.4829L50.0001 19.5278V19.7344L46.6902 21.6724Z" fill="white"/>
</svg>
