<svg width="53" height="24" viewBox="0 0 53 24" fill="none" xmlns="http://www.w3.org/2000/svg">
<path d="M24.6013 19.0737V18.4316C24.1642 19.131 23.5702 19.5781 22.8194 19.7501C22.0685 19.9221 21.3288 19.8648 20.6003 19.5667C19.8607 19.2686 19.2331 18.7068 18.7063 17.8927C18.1796 17.0786 17.9106 16.0123 17.9106 14.6823C17.9106 13.123 18.2581 11.8732 18.9529 10.8986C19.6477 9.93552 20.7685 9.45396 22.315 9.45396C23.4918 9.45396 24.5789 9.775 25.5875 10.4285C26.5961 11.0821 27.0893 12.286 27.0893 14.0402V19.3374C27.0893 21.0916 26.5849 22.284 25.5875 22.9261C24.5789 23.5682 23.4918 23.8892 22.315 23.8892C20.0624 23.8892 18.6615 22.8115 18.1236 20.6559H20.8021C20.9926 21.0114 21.2952 21.2751 21.6986 21.47C22.1021 21.6534 22.5056 21.7108 22.909 21.619C23.3125 21.5273 23.6823 21.2865 24.0073 20.8852C24.3547 20.4725 24.5452 19.8763 24.6013 19.0737ZM20.4098 14.7511C20.4098 16.4824 20.9029 17.4455 21.878 17.629C22.853 17.8124 23.5814 17.5831 24.0409 16.9296C24.2651 16.6544 24.422 16.2187 24.5228 15.634C24.6237 15.0492 24.6237 14.4645 24.5452 13.8797C24.4556 13.3064 24.2539 12.7905 23.9401 12.3433C23.6263 11.8961 23.1556 11.6668 22.5392 11.6668C21.7099 11.6668 21.1383 11.9764 20.8469 12.607C20.5555 13.2262 20.4098 13.9485 20.4098 14.7511Z" fill="white"/>
<path d="M36.0659 19.6699H34.7771C34.4073 19.6699 34.1047 19.5552 33.8805 19.3144C33.6452 19.0737 33.5331 18.7641 33.5331 18.3972V13.2835C33.5331 12.6873 33.3538 12.2401 32.9952 11.9649C32.6366 11.6898 32.2443 11.5522 31.796 11.5522C31.359 11.5522 30.9667 11.6898 30.6193 11.9649C30.2719 12.2401 30.1038 12.6758 30.1038 13.2835V19.6813H27.5261V13.8109C27.5261 12.1025 27.9632 10.9674 28.8261 10.3941C29.7003 9.82087 30.6529 9.49983 31.7064 9.45396C32.7823 9.45396 33.7797 9.74061 34.6875 10.3139C35.5952 10.8872 36.0435 12.0567 36.0435 13.8109V19.6699H36.0659Z" fill="white"/>
<path d="M36.6937 10.5432H39.2714C39.2714 11.942 39.2714 11.4719 39.2714 11.8274V19.6814H36.6937V10.5432Z" fill="white"/>
<path d="M44.0009 19.6697C43.194 19.7156 42.3198 19.7041 41.3784 19.6353C40.437 19.555 39.9663 18.9474 39.9663 17.7893V8.00911H41.2887C41.6025 8.00911 41.8939 8.13523 42.1293 8.38748C42.3758 8.63972 42.4991 8.93783 42.4991 9.29326V9.63723H44.0009V10.1647C44.0009 10.543 43.8776 10.8526 43.631 11.0819C43.3845 11.3227 43.0931 11.4373 42.7457 11.4373H42.4879V17.067C42.4879 17.4912 42.7345 17.7091 43.2276 17.7091H44.0009V19.6697Z" fill="white"/>
<path d="M51.0165 16.5855H52.8544C52.5855 17.6403 52.0699 18.4429 51.3079 18.9933C50.5458 19.5666 49.5932 19.8532 48.4388 19.8532C47.038 19.8532 45.9509 19.3946 45.1664 18.4659C44.3819 17.5601 43.9896 16.2759 43.9896 14.5905C43.9896 12.9853 44.3707 11.7355 45.1327 10.8297C45.9172 9.90102 47.0043 9.4424 48.4052 9.4424C49.8734 9.4424 51.0165 9.88956 51.8234 10.7953C52.6079 11.7241 53.0001 13.0082 53.0001 14.6707C53.0001 14.7739 53.0001 14.8542 53.0001 14.9344C53.0001 15.0147 53.0001 15.0606 53.0001 15.0835C53.0001 15.2096 52.9889 15.3014 52.9665 15.3472H46.6121C46.6345 16.1269 46.825 16.7002 47.1612 17.0785C47.475 17.4798 47.9569 17.6747 48.5957 17.6747C49.0104 17.6747 49.369 17.583 49.6604 17.411C49.7389 17.3881 49.8061 17.3422 49.8621 17.2734C49.9182 17.2161 49.9854 17.1473 50.0639 17.0671C50.0863 16.9868 50.1759 16.8951 50.3441 16.769C50.501 16.6543 50.7251 16.5855 51.0165 16.5855ZM46.6121 13.6618H50.3665C50.3216 12.9853 50.1423 12.4808 49.8509 12.1598C49.5371 11.8043 49.0776 11.6323 48.4949 11.6323C47.9569 11.6323 47.5199 11.8043 47.1724 12.1598C46.8138 12.5037 46.6345 13.0082 46.6121 13.6618Z" fill="white"/>
<path d="M14.7832 5.94569H16.1056C16.4531 5.94569 16.7444 6.07182 16.991 6.32406C17.2376 6.57631 17.3608 6.87441 17.3608 7.22985V19.6816H14.7832V5.94569Z" fill="white"/>
<path d="M36.6936 8.0094H38.016C38.3635 8.0094 38.6548 8.13552 38.9014 8.38777C39.148 8.64001 39.2712 8.93812 39.2712 9.29355V10.0847H36.6936V8.0094Z" fill="white"/>
<path d="M21.2951 8.14718H20.8916V7.84907C20.6899 8.07839 20.4097 8.19304 20.0623 8.19304C19.7373 8.19304 19.4571 8.07839 19.2218 7.86054C18.9752 7.61976 18.8519 7.32165 18.8519 6.95475C18.8519 6.57638 18.9864 6.26681 19.2442 6.02603C19.4795 5.79672 19.7709 5.69353 20.0959 5.69353C20.4321 5.69353 20.7011 5.80818 20.9028 6.04896V5.75086H21.3063V8.14718H21.2951ZM20.8804 6.95475C20.8804 6.72544 20.802 6.53052 20.6563 6.35854C20.4994 6.19802 20.3201 6.11776 20.0959 6.11776C19.8606 6.11776 19.67 6.19802 19.5019 6.37C19.345 6.53052 19.2666 6.70251 19.2666 6.88596C19.2666 7.12674 19.3338 7.33312 19.4795 7.5051C19.6252 7.68855 19.8157 7.76881 20.0511 7.76881C20.2752 7.76881 20.4658 7.68855 20.6339 7.52803C20.802 7.37898 20.8804 7.18406 20.8804 6.95475Z" fill="white"/>
<path d="M24.2089 6.88596C24.2089 7.26432 24.0968 7.5739 23.8727 7.81467C23.6373 8.06692 23.3459 8.19304 22.9761 8.19304C22.6399 8.19304 22.3821 8.07838 22.1804 7.86054V8.93831H21.7545V5.73939H22.158V6.02603C22.2588 5.91137 22.3821 5.83112 22.5054 5.77379C22.6399 5.71646 22.7744 5.69353 22.9313 5.69353C23.2563 5.69353 23.5477 5.80818 23.7942 6.02603C24.0744 6.25534 24.2089 6.54199 24.2089 6.88596ZM23.7718 6.94328C23.7718 6.71397 23.6933 6.51906 23.5364 6.35854C23.3795 6.19802 23.1778 6.11776 22.9537 6.11776C22.7183 6.11776 22.5278 6.20948 22.3709 6.38147C22.2252 6.54199 22.158 6.7369 22.158 6.95475C22.158 7.16113 22.214 7.33312 22.3373 7.49364C22.483 7.67709 22.6959 7.76881 22.9761 7.76881C23.2002 7.76881 23.3908 7.68855 23.5477 7.52803C23.7046 7.37898 23.7718 7.18406 23.7718 6.94328Z" fill="white"/>
<path d="M27.0222 8.14718H26.6188V7.84907C26.4171 8.07839 26.1369 8.19304 25.7895 8.19304C25.4645 8.19304 25.1843 8.07839 24.9489 7.86054C24.7024 7.61976 24.5791 7.32165 24.5791 6.95475C24.5791 6.57638 24.7136 6.26681 24.9714 6.02603C25.2067 5.79672 25.4981 5.69353 25.8231 5.69353C26.1593 5.69353 26.4283 5.80818 26.63 6.04896V5.75086H27.0335V8.14718H27.0222ZM26.6188 6.95475C26.6188 6.72544 26.5403 6.53052 26.3947 6.35854C26.2378 6.19802 26.0584 6.11776 25.8343 6.11776C25.5989 6.11776 25.4084 6.19802 25.2403 6.37C25.0834 6.53052 25.005 6.70251 25.005 6.88596C25.005 7.12674 25.0722 7.33312 25.2179 7.5051C25.3636 7.68855 25.5541 7.76881 25.7895 7.76881C26.0136 7.76881 26.2041 7.68855 26.3722 7.52803C26.5291 7.37898 26.6188 7.18406 26.6188 6.95475Z" fill="white"/>
<path d="M29.8346 7.35605C29.7001 7.63122 29.5432 7.83761 29.3639 7.97519C29.1622 8.12425 28.9268 8.20451 28.6354 8.20451C28.3104 8.20451 28.0191 8.08985 27.7725 7.84907C27.5147 7.59683 27.3802 7.29872 27.3802 6.93182H27.4027C27.4027 6.93182 27.4027 6.94328 27.3915 6.95475C27.3915 6.57638 27.5147 6.26681 27.7725 6.02603C27.9966 5.80818 28.2656 5.69353 28.5794 5.69353C28.8708 5.69353 29.1173 5.77379 29.3415 5.92284C29.5544 6.07189 29.7225 6.28974 29.8234 6.56492H29.3527C29.1958 6.27828 28.938 6.12922 28.5906 6.12922C28.3665 6.12922 28.1872 6.20948 28.0415 6.37C27.8958 6.53052 27.8173 6.72544 27.8173 6.95475C27.8173 7.18406 27.8958 7.39045 28.0527 7.55096C28.2096 7.71148 28.4001 7.79174 28.6242 7.79174C28.7699 7.79174 28.9156 7.75735 29.0501 7.67709C29.1846 7.59683 29.2855 7.49364 29.3639 7.36751H29.8346V7.35605Z" fill="white"/>
<path d="M32.2669 8.14699H31.841V6.77111C31.841 6.58766 31.785 6.42714 31.6617 6.31249C31.5496 6.19783 31.3927 6.12904 31.2134 6.12904C31.0341 6.12904 30.8884 6.18637 30.7764 6.28956C30.6643 6.40421 30.6082 6.5418 30.6082 6.72525V8.14699H30.1824V4.94807H30.6082V5.94559C30.7764 5.7736 30.9781 5.69334 31.2246 5.69334C31.4936 5.69334 31.729 5.78507 31.9307 5.97998C32.1436 6.18637 32.2557 6.45008 32.2557 6.77111V8.14699H32.2669Z" fill="white"/>
<path d="M35.0463 7.11518H33.0626C33.0962 7.32157 33.1971 7.48208 33.354 7.60821C33.4997 7.7114 33.6566 7.76873 33.8247 7.76873C33.9816 7.76873 34.1273 7.72286 34.273 7.63114C34.4187 7.53941 34.5195 7.41329 34.5756 7.26424H35.0126C34.9006 7.58528 34.7213 7.81459 34.4859 7.97511C34.2842 8.1127 34.06 8.18149 33.8135 8.18149C33.4997 8.18149 33.2307 8.06683 33.0066 7.83752C32.7712 7.58528 32.6479 7.28717 32.6479 6.92027C32.6479 6.5419 32.7712 6.23233 33.029 6.00301C33.2643 5.78517 33.5333 5.68198 33.8471 5.68198C34.1609 5.68198 34.4411 5.78517 34.6652 6.00301C34.923 6.24379 35.0575 6.5763 35.0575 6.98906V7.11518H35.0463ZM34.6092 6.71389C34.5644 6.53044 34.4635 6.39285 34.3178 6.27819C34.1721 6.16353 34.0152 6.10621 33.8359 6.10621C33.6118 6.10621 33.4212 6.18647 33.2755 6.33552C33.1747 6.43871 33.0962 6.56483 33.0626 6.71389H34.6092Z" fill="white"/>
<path d="M3.5985 4.78767C3.5985 4.78767 -4.19044 9.64911 3.15021 14.4762C4.56231 15.4163 9.68395 18.0305 9.53826 20.4498C9.53826 20.4498 12.6426 15.7488 8.10375 12.7907C3.4416 9.76377 2.27606 6.53045 3.5985 4.78767Z" fill="white"/>
<path d="M0.886604 14.0749C0.886604 14.0749 -1.89276 18.3859 3.57631 19.2688C4.11425 19.3376 8.07035 19.7618 9.10141 21.0918C9.10141 21.0918 9.01175 18.7987 5.78411 17.4458C2.56767 16.0928 1.24523 15.7603 0.886604 14.0749Z" fill="white"/>
<path d="M11.6452 9.54586C8.30545 5.96857 7.37527 3.7557 8.80977 0.889282C8.80977 0.889282 -1.15334 4.81054 8.6865 11.7702C12.2055 14.2582 11.6228 16.8036 11.6228 16.8953C12.1719 16.3106 14.9849 13.1231 11.6452 9.54586Z" fill="white"/>
</svg>
