<svg width="790" height="430" viewBox="0 0 790 430" fill="none" xmlns="http://www.w3.org/2000/svg">
<path d="M110.732 428.585C80.511 428.585 53.0255 404.835 33.0655 366.152C13.1187 327.495 0.766481 274.057 0.766483 215.003C0.766486 155.949 13.1187 102.51 33.0655 63.8533C53.0255 25.1709 80.5111 1.42089 110.732 1.42089C140.953 1.42089 168.439 25.1709 188.399 63.8533C208.346 102.51 220.698 155.949 220.698 215.003C220.698 274.057 208.346 327.495 188.399 366.152C168.439 404.835 140.953 428.585 110.732 428.585Z" stroke="#F6F6F6"/>
<path d="M228.583 428.576C198.361 428.576 170.876 404.826 150.916 366.144C130.969 327.487 118.617 274.048 118.617 214.994C118.617 155.94 130.969 102.502 150.916 63.845C170.876 25.1626 198.361 1.41259 228.583 1.41259C258.804 1.41259 286.289 25.1626 306.249 63.845C326.196 102.502 338.548 155.94 338.548 214.994C338.548 274.048 326.196 327.487 306.249 366.144C286.289 404.826 258.804 428.576 228.583 428.576Z" stroke="#F6F6F6"/>
<path d="M278.636 428.587C248.415 428.587 220.93 404.837 200.97 366.155C181.023 327.498 168.671 274.059 168.671 215.005C168.671 155.951 181.023 102.512 200.97 63.8557C220.93 25.1733 248.415 1.42333 278.636 1.42333C308.857 1.42334 336.343 25.1733 356.303 63.8557C376.25 102.512 388.602 155.951 388.602 215.005C388.602 274.059 376.25 327.498 356.303 366.155C336.343 404.837 308.857 428.587 278.636 428.587Z" stroke="#F6F6F6"/>
<path d="M328.718 428.584C298.497 428.584 271.012 404.834 251.052 366.151C231.105 327.494 218.753 274.056 218.753 215.002C218.753 155.948 231.105 102.509 251.052 63.8523C271.012 25.1699 298.497 1.41992 328.718 1.41992C358.939 1.41992 386.425 25.1699 406.385 63.8523C426.332 102.509 438.684 155.948 438.684 215.002C438.684 274.056 426.332 327.494 406.385 366.151C386.425 404.834 358.939 428.584 328.718 428.584Z" stroke="#F6F6F6"/>
<path d="M378.808 428.581C348.587 428.581 321.101 404.831 301.141 366.149C281.195 327.492 268.842 274.053 268.842 214.999C268.842 155.945 281.195 102.507 301.141 63.8499C321.101 25.1675 348.587 1.41747 378.808 1.41748C409.029 1.41748 436.515 25.1675 456.475 63.8499C476.422 102.507 488.774 155.945 488.774 214.999C488.774 274.053 476.422 327.492 456.475 366.149C436.515 404.831 409.029 428.581 378.808 428.581Z" stroke="#F6F6F6"/>
<path d="M428.868 428.585C398.647 428.585 371.162 404.835 351.202 366.153C331.255 327.496 318.903 274.058 318.903 215.004C318.903 155.95 331.255 102.511 351.202 63.8543C371.162 25.1719 398.647 1.42187 428.869 1.42187C459.09 1.42187 486.575 25.1719 506.535 63.8543C526.482 102.511 538.834 155.95 538.834 215.004C538.834 274.058 526.482 327.496 506.535 366.153C486.575 404.835 459.09 428.585 428.868 428.585Z" stroke="#F6F6F6"/>
<path d="M478.958 428.583C448.737 428.583 421.252 404.833 401.292 366.151C381.345 327.494 368.993 274.055 368.993 215.001C368.993 155.947 381.345 102.509 401.292 63.8518C421.252 25.1694 448.737 1.41943 478.958 1.41943C509.179 1.41943 536.665 25.1694 556.625 63.8518C576.572 102.509 588.924 155.947 588.924 215.001C588.924 274.055 576.572 327.494 556.625 366.151C536.665 404.833 509.179 428.583 478.958 428.583Z" stroke="#F6F6F6"/>
<path d="M529.038 428.581C498.817 428.581 471.331 404.831 451.371 366.149C431.424 327.492 419.072 274.053 419.072 214.999C419.072 155.945 431.424 102.507 451.371 63.8499C471.331 25.1675 498.817 1.41747 529.038 1.41748C559.259 1.41748 586.744 25.1675 606.704 63.8499C626.651 102.507 639.003 155.945 639.003 214.999C639.003 274.053 626.651 327.492 606.704 366.149C586.744 404.831 559.259 428.581 529.038 428.581Z" stroke="#F6F6F6"/>
<path d="M579.115 428.581C548.894 428.581 521.408 404.831 501.448 366.149C481.501 327.492 469.149 274.053 469.149 214.999C469.149 155.945 481.501 102.507 501.448 63.8499C521.408 25.1675 548.894 1.41747 579.115 1.41748C609.336 1.41748 636.821 25.1675 656.781 63.8499C676.728 102.507 689.08 155.945 689.08 214.999C689.08 274.053 676.728 327.492 656.781 366.149C636.821 404.831 609.336 428.581 579.115 428.581Z" stroke="#F6F6F6"/>
<path d="M629.191 428.582C598.97 428.582 571.485 404.832 551.525 366.149C531.578 327.492 519.226 274.054 519.226 215C519.226 155.946 531.578 102.507 551.525 63.8503C571.485 25.168 598.97 1.41796 629.191 1.41796C659.412 1.41797 686.898 25.168 706.858 63.8504C726.805 102.507 739.157 155.946 739.157 215C739.157 274.054 726.805 327.492 706.858 366.149C686.898 404.832 659.412 428.582 629.191 428.582Z" stroke="#F6F6F6"/>
<path d="M679.268 428.583C649.047 428.583 621.561 404.833 601.601 366.151C581.654 327.494 569.302 274.055 569.302 215.001C569.302 155.947 581.654 102.509 601.601 63.8518C621.561 25.1694 649.047 1.41943 679.268 1.41943C709.489 1.41943 736.975 25.1694 756.935 63.8518C776.881 102.509 789.234 155.947 789.234 215.001C789.234 274.055 776.881 327.494 756.935 366.151C736.975 404.833 709.489 428.583 679.268 428.583Z" stroke="#F6F6F6"/>
<path d="M169.647 428.585C139.425 428.585 111.94 404.835 91.9798 366.152C72.033 327.495 59.6808 274.057 59.6809 215.003C59.6809 155.949 72.033 102.51 91.9798 63.8533C111.94 25.1709 139.425 1.42089 169.647 1.42089C199.868 1.42089 227.353 25.1709 247.313 63.8533C267.26 102.51 279.612 155.949 279.612 215.003C279.612 274.057 267.26 327.495 247.313 366.152C227.353 404.835 199.868 428.585 169.647 428.585Z" stroke="#F6F6F6"/>
</svg>
