<svg width="572" height="660" viewBox="0 0 572 660" fill="none" xmlns="http://www.w3.org/2000/svg">
<path d="M555.102 237.796L571 228.624L571 557.731L555.102 566.903L555.102 237.796Z" fill="#0070CC" stroke="white"/>
<path d="M176.614 1.07811L570.934 228.739L555.039 237.916L160.719 10.2551L176.614 1.07811Z" fill="#0070CC" stroke="white"/>
<path d="M160.716 10.2505L555.103 237.797L555.103 566.904L160.716 339.357L160.716 10.2505Z" fill="#0070CC" stroke="white"/>
<path d="M181.146 71.3589C181.146 70.2543 181.921 69.8064 182.878 70.3584L529.161 270.151C530.118 270.703 530.893 272.046 530.893 273.151L530.893 525.977C530.893 527.081 530.118 527.529 529.161 526.977L182.878 327.184C181.921 326.632 181.146 325.289 181.146 324.185L181.146 71.3589Z" fill="#0070CC" stroke="white"/>
<path d="M193.428 53.0608C193.428 56.837 190.776 58.3673 187.503 56.4779C184.231 54.5885 181.579 49.9955 181.579 46.2192C181.579 42.443 184.231 40.9128 187.503 42.8021C190.776 44.6915 193.428 49.2846 193.428 53.0608Z" fill="#0070CC" stroke="white"/>
<path d="M212.246 64.0631C212.246 67.8393 209.594 69.3703 206.32 67.4819C203.047 65.5935 200.394 61.0012 200.394 57.225C200.394 53.4487 203.047 51.9177 206.32 53.8061C209.594 55.6946 212.246 60.2869 212.246 64.0631Z" fill="#0070CC" stroke="white"/>
<path d="M230.833 75.0694C230.833 78.8457 228.18 80.3767 224.907 78.4883C221.634 76.5998 218.981 72.0075 218.981 68.2313C218.981 64.4551 221.634 62.9241 224.907 64.8125C228.18 66.7009 230.833 71.2932 230.833 75.0694Z" fill="#0070CC" stroke="white"/>
<path d="M475.244 283.089L491.142 273.917L491.142 603.024L475.244 612.196L475.244 283.089Z" fill="#0070CC" stroke="white"/>
<path d="M96.7557 46.3701L491.076 274.031L475.181 283.208L80.8607 55.5471L96.7557 46.3701Z" fill="#0070CC" stroke="white"/>
<path d="M80.858 55.5425L475.244 283.089L475.244 612.196L80.858 384.649L80.858 55.5425Z" fill="#0070CC" stroke="white"/>
<path d="M101.287 116.651C101.287 115.546 102.063 115.098 103.02 115.65L449.303 315.443C450.26 315.995 451.035 317.338 451.035 318.443L451.035 571.269C451.035 572.373 450.26 572.821 449.303 572.269L103.02 372.476C102.063 371.924 101.287 370.581 101.287 369.477L101.287 116.651Z" fill="#0070CC" stroke="white"/>
<path d="M113.57 98.3528C113.57 102.129 110.918 103.659 107.645 101.77C104.373 99.8805 101.72 95.2874 101.72 91.5112C101.72 87.735 104.373 86.2048 107.645 88.0941C110.918 89.9835 113.57 94.5766 113.57 98.3528Z" fill="#0070CC" stroke="white"/>
<path d="M132.388 109.355C132.388 113.131 129.735 114.662 126.462 112.774C123.189 110.885 120.536 106.293 120.536 102.517C120.536 98.7407 123.189 97.2097 126.462 99.0981C129.735 100.987 132.388 105.579 132.388 109.355Z" fill="#0070CC" stroke="white"/>
<path d="M150.975 120.362C150.975 124.138 148.322 125.669 145.049 123.781C141.776 121.892 139.123 117.3 139.123 113.524C139.123 109.748 141.776 108.217 145.049 110.105C148.322 111.993 150.975 116.586 150.975 120.362Z" fill="#0070CC" stroke="white"/>
<path d="M395.386 329.813L411.284 320.641L411.284 649.748L395.386 658.92L395.386 329.813Z" fill="#0070CC" stroke="white"/>
<path d="M16.8977 93.0947L411.218 320.756L395.323 329.933L1.00271 102.272L16.8977 93.0947Z" fill="#0070CC" stroke="white"/>
<path d="M1 102.268L395.386 329.815L395.386 658.922L0.999994 431.375L1 102.268Z" fill="#0070CC" stroke="white"/>
<path d="M21.4294 163.375C21.4294 162.271 22.205 161.823 23.1618 162.375L369.445 362.168C370.402 362.72 371.177 364.063 371.177 365.167L371.177 617.993C371.177 619.098 370.402 619.546 369.445 618.994L23.1618 419.201C22.205 418.649 21.4294 417.306 21.4294 416.201L21.4294 163.375Z" fill="#0070CC" stroke="white"/>
<path d="M33.7124 145.077C33.7124 148.854 31.0599 150.384 27.7874 148.494C24.515 146.605 21.8625 142.012 21.8625 138.236C21.8625 134.46 24.515 132.929 27.7874 134.819C31.0599 136.708 33.7124 141.301 33.7124 145.077Z" fill="#0070CC" stroke="white"/>
<path d="M52.5304 156.081C52.5304 159.857 49.8774 161.388 46.6044 159.5C43.3314 157.612 40.6784 153.019 40.6784 149.243C40.6784 145.467 43.3314 143.936 46.6044 145.824C49.8774 147.713 52.5304 152.305 52.5304 156.081Z" fill="#0070CC" stroke="white"/>
<path d="M71.1169 167.088C71.1169 170.864 68.4639 172.395 65.1909 170.507C61.9179 168.618 59.2649 164.026 59.2649 160.25C59.2649 156.474 61.9179 154.943 65.1909 156.831C68.4639 158.719 71.1169 163.312 71.1169 167.088Z" fill="#0070CC" stroke="white"/>
<g clip-path="url(#clip0_53:167)">
<rect x="0.433085" y="0.749874" width="146.89" height="33.2309" rx="1.65366" transform="matrix(0.86617 0.499749 -2.20453e-08 1 45.9552 310.684)" fill="#0070CC"/>
<path d="M45.8973 310.901L49.362 312.9L49.362 355.9L45.8973 353.901L45.8973 310.901Z" fill="#0070CC"/>
</g>
<rect x="0.433085" y="0.749874" width="146.89" height="33.2309" rx="1.65366" transform="matrix(0.86617 0.499749 -2.20453e-08 1 45.9552 310.684)" stroke="white" stroke-linecap="round"/>
<g clip-path="url(#clip1_53:167)">
<rect x="0.433085" y="0.749874" width="147.847" height="33.4525" rx="1.65366" transform="matrix(0.86617 0.499749 -2.20453e-08 1 193.635 395.318)" fill="#0070CC"/>
<path d="M193.577 395.535L197.042 397.534L197.042 440.534L193.577 438.535L193.577 395.535Z" fill="#0070CC"/>
</g>
<rect x="0.433085" y="0.749874" width="147.847" height="33.4525" rx="1.65366" transform="matrix(0.86617 0.499749 -2.20453e-08 1 193.635 395.318)" stroke="white" stroke-linecap="round"/>
<rect x="0.433085" y="0.749874" width="146.89" height="33.2309" rx="1.65366" transform="matrix(0.86617 0.499749 -2.20453e-08 1 45.9552 264.214)" fill="#0070CC"/>
<rect x="0.433085" y="0.749874" width="146.89" height="33.2309" rx="1.65366" transform="matrix(0.86617 0.499749 -2.20453e-08 1 45.9552 264.214)" stroke="white" stroke-linecap="round"/>
<rect x="0.433085" y="0.749874" width="147.847" height="33.4526" rx="1.65366" transform="matrix(0.86617 0.499749 -2.20453e-08 1 193.635 348.547)" fill="#0070CC"/>
<rect x="0.433085" y="0.749874" width="147.847" height="33.4526" rx="1.65366" transform="matrix(0.86617 0.499749 -2.20453e-08 1 193.635 348.547)" stroke="white" stroke-linecap="round"/>
<path d="M242.17 453.053L242.17 485.329L247.802 482.267L251.74 495.303L258.036 495.842L254.368 483.507L262.414 488.149L242.17 453.053Z" fill="#0070CC" stroke="white"/>
<defs>
<clipPath id="clip0_53:167">
</clipPath>
<clipPath id="clip1_53:167">
</clipPath>
</defs>
</svg>
