<svg width="505" height="200" fill="none" xmlns="http://www.w3.org/2000/svg"><g opacity=".5"><mask id="a" style="mask-type:alpha" maskUnits="userSpaceOnUse" x="0" y="0" width="505" height="200"><rect width="505" height="200" rx="10" fill="#E8F2FA"/></mask><g mask="url(#a)"><rect x="45.5" y="123.5" width="126.472" height="93.57" rx="9.5" fill="#E8F2FA" stroke="#91C2EA"/><path d="M46.201 142.235 172 142" stroke="#91C2EA"/><rect x="91.217" y="160.366" width="34.267" height="34.264" rx="17.132" fill="#91C2EA" stroke="#91C2EA"/><path d="m103.14 170.518 13.058 6.98-13.058 6.98v-13.96Z" fill="#E8F2FA" stroke="#91C2EA"/><path d="M60.926 133.925a2.748 2.748 0 1 1-5.495 0 2.748 2.748 0 0 1 5.495 0Zm8.736 0a2.748 2.748 0 1 1-5.496 0 2.748 2.748 0 0 1 5.496 0Zm8.735 0a2.748 2.748 0 1 1-5.495 0 2.748 2.748 0 0 1 5.495 0Z" fill="#91C2EA" stroke="#91C2EA"/><rect x="40.5" y="117.5" width="126.472" height="93.57" rx="9.5" fill="#E8F2FA" stroke="#91C2EA"/><path d="M41.201 136.235 167 136" stroke="#91C2EA"/><rect x="86.217" y="154.366" width="34.267" height="34.264" rx="17.132" fill="#91C2EA" stroke="#91C2EA"/><path d="m98.14 164.518 13.058 6.98-13.058 6.98v-13.96Z" fill="#E8F2FA" stroke="#91C2EA"/><path d="M55.926 127.925a2.748 2.748 0 1 1-5.495 0 2.748 2.748 0 0 1 5.495 0Zm8.736 0a2.748 2.748 0 1 1-5.496 0 2.748 2.748 0 0 1 5.496 0Zm8.735 0a2.748 2.748 0 1 1-5.495 0 2.748 2.748 0 0 1 5.495 0Z" fill="#91C2EA" stroke="#91C2EA"/><rect x="35.5" y="113.5" width="126.472" height="93.57" rx="9.5" fill="#E8F2FA" stroke="#91C2EA"/><path d="M36.201 132.235 162 132" stroke="#91C2EA"/><rect x="81.217" y="150.366" width="34.267" height="34.264" rx="17.132" fill="#91C2EA" stroke="#91C2EA"/><path d="m93.14 160.518 13.058 6.98-13.058 6.98v-13.96Z" fill="#E8F2FA" stroke="#91C2EA"/><path d="M50.926 123.925a2.748 2.748 0 1 1-5.495 0 2.748 2.748 0 0 1 5.495 0Zm8.736 0a2.748 2.748 0 1 1-5.496 0 2.748 2.748 0 0 1 5.496 0Zm8.735 0a2.748 2.748 0 1 1-5.495 0 2.748 2.748 0 0 1 5.495 0Z" fill="#91C2EA" stroke="#91C2EA"/><rect x="420" y="85" width="127.472" height="95.57" rx="10" fill="#E8F2FA"/><rect x="420.5" y="85.5" width="126.472" height="94.57" rx="9.5" stroke="#91C2EA" stroke-opacity=".4"/><path d="M421.201 104.438h125.067" stroke="#91C2EA" stroke-opacity=".4"/><rect x="465.717" y="122.256" width="35.267" height="35.636" rx="17.633" fill="#91C2EA"/><rect x="466.217" y="122.756" width="34.267" height="34.636" rx="17.133" stroke="#91C2EA" stroke-opacity=".4"/><path d="m492.259 140.074-14.619 7.897v-15.793l14.619 7.896Z" fill="#E8F2FA"/><path d="m478.14 133.016 13.067 7.058-13.067 7.059v-14.117Z" stroke="#91C2EA" stroke-opacity=".4"/><ellipse cx="433.179" cy="96.041" rx="3.248" ry="3.282" fill="#91C2EA"/><path d="M435.926 96.04c0 1.542-1.235 2.783-2.747 2.783-1.513 0-2.748-1.24-2.748-2.782 0-1.541 1.235-2.782 2.748-2.782 1.512 0 2.747 1.24 2.747 2.782Z" stroke="#91C2EA" stroke-opacity=".4"/><ellipse cx="441.914" cy="96.041" rx="3.248" ry="3.282" fill="#91C2EA"/><path d="M444.662 96.04c0 1.542-1.235 2.783-2.748 2.783-1.513 0-2.748-1.24-2.748-2.782 0-1.541 1.235-2.782 2.748-2.782 1.513 0 2.748 1.24 2.748 2.782Z" stroke="#91C2EA" stroke-opacity=".4"/><ellipse cx="450.649" cy="96.041" rx="3.248" ry="3.282" fill="#91C2EA"/><path d="M453.397 96.04c0 1.542-1.235 2.783-2.748 2.783-1.512 0-2.748-1.24-2.748-2.782 0-1.541 1.236-2.782 2.748-2.782 1.513 0 2.748 1.24 2.748 2.782Z" stroke="#91C2EA" stroke-opacity=".4"/><rect x="427" y="79" width="127.472" height="95.57" rx="10" fill="#E8F2FA"/><rect x="427.5" y="79.5" width="126.472" height="94.57" rx="9.5" stroke="#91C2EA" stroke-opacity=".8"/><path d="M428.201 98.438h125.067" stroke="#91C2EA" stroke-opacity=".8"/><rect x="472.717" y="116.256" width="35.267" height="35.636" rx="17.633" fill="#91C2EA"/><rect x="473.217" y="116.756" width="34.267" height="34.636" rx="17.133" stroke="#91C2EA" stroke-opacity=".8"/><path d="m499.259 134.074-14.619 7.897v-15.793l14.619 7.896Z" fill="#E8F2FA"/><path d="m485.14 127.016 13.067 7.058-13.067 7.059v-14.117Z" stroke="#91C2EA" stroke-opacity=".8"/><ellipse cx="440.179" cy="90.041" rx="3.248" ry="3.282" fill="#91C2EA"/><path d="M442.926 90.04c0 1.542-1.235 2.783-2.747 2.783-1.513 0-2.748-1.24-2.748-2.782 0-1.541 1.235-2.782 2.748-2.782 1.512 0 2.747 1.24 2.747 2.782Z" stroke="#91C2EA" stroke-opacity=".8"/><ellipse cx="448.914" cy="90.041" rx="3.248" ry="3.282" fill="#91C2EA"/><path d="M451.662 90.04c0 1.542-1.235 2.783-2.748 2.783-1.513 0-2.748-1.24-2.748-2.782 0-1.541 1.235-2.782 2.748-2.782 1.513 0 2.748 1.24 2.748 2.782Z" stroke="#91C2EA" stroke-opacity=".8"/><ellipse cx="457.649" cy="90.041" rx="3.248" ry="3.282" fill="#91C2EA"/><path d="M460.397 90.04c0 1.542-1.235 2.783-2.748 2.783-1.512 0-2.748-1.24-2.748-2.782 0-1.541 1.236-2.782 2.748-2.782 1.513 0 2.748 1.24 2.748 2.782Z" stroke="#91C2EA" stroke-opacity=".8"/><rect x="434.5" y="73.5" width="126.472" height="93.57" rx="9.5" fill="#E8F2FA" stroke="#91C2EA"/><path d="M435.201 88.235h125.067" stroke="#91C2EA"/><rect x="480.217" y="110.366" width="34.267" height="34.264" rx="17.132" fill="#E8F2FA" stroke="#91C2EA"/><path d="m492.14 120.518 13.058 6.98-13.058 6.98v-13.96Zm-42.214-39.593a2.747 2.747 0 1 1-5.495 0 2.747 2.747 0 0 1 5.495 0Zm8.736 0a2.748 2.748 0 1 1-5.495 0 2.748 2.748 0 0 1 5.495 0Zm8.735 0a2.748 2.748 0 1 1-5.495 0 2.748 2.748 0 0 1 5.495 0Z" fill="#91C2EA" stroke="#91C2EA"/><path d="M79 113V73c0-11.046 8.954-20 20-20h140.614c11.046 0 20-8.954 20-20v-2c0-11.046 8.954-20 20-20H505" stroke="#91C2EA"/><rect x="411.5" y="-8.5" width="49.86" height="48.222" rx="9.5" fill="#E8F2FA" stroke="#91C2EA"/><path d="M431.655 7.654a4.772 4.772 0 0 1 4.775-4.774 4.774 4.774 0 0 1 4.775 4.774v7.957a4.772 4.772 0 0 1-4.775 4.774 4.774 4.774 0 0 1-4.775-4.774V7.654Z" fill="#91C2EA"/><path d="M429.268 13.224a.798.798 0 0 1 .796.795v1.592a6.364 6.364 0 0 0 10.868 4.501 6.364 6.364 0 0 0 1.864-4.501v-1.592a.796.796 0 0 1 1.592 0v1.592a7.959 7.959 0 0 1-7.162 7.917v3.223H442a.794.794 0 1 1 0 1.591h-11.141a.794.794 0 0 1-.795-.795.797.797 0 0 1 .795-.796h4.775v-3.223a7.96 7.96 0 0 1-7.162-7.917v-1.592a.796.796 0 0 1 .796-.795Z" fill="#91C2EA"/><circle cx="170.5" cy="55.5" r="27" fill="#E8F2FA" stroke="#91C2EA"/><path d="M172.5 190.5H262" stroke="#91C2EA"/><circle cx="125" cy="53" r="12.5" fill="#E8F2FA" stroke="#91C2EA"/><path d="M118.356 52.711h13.866m-6.933-6.933v13.867M253 177v-77" stroke="#91C2EA"/><path d="M385 100v30c0 11.046 8.954 20 20 20h15" stroke="#91C2EA" stroke-opacity=".4"/><path d="M176.516 49.505a6.005 6.005 0 1 1-12.01-.001 6.005 6.005 0 0 1 12.01 0Z" fill="#E8F2FA" stroke="#91C2EA"/><path d="M182.51 66.517h-23.798c.271-6.11 5.48-11.008 11.899-11.008 6.419 0 11.628 4.898 11.899 11.008Z" fill="#E8F2FA" stroke="#91C2EA"/><circle cx="315.5" cy="192.5" r="27" fill="#E8F2FA" stroke="#91C2EA"/><path d="M321.516 186.505a6.005 6.005 0 1 1-12.01-.001 6.005 6.005 0 0 1 12.01.001Z" fill="#E8F2FA" stroke="#91C2EA"/><path d="M327.51 203.517h-23.798c.271-6.11 5.48-11.008 11.899-11.008 6.419 0 11.628 4.898 11.899 11.008Z" fill="#E8F2FA" stroke="#91C2EA"/><circle cx="253.5" cy="192.5" r="27" fill="#E8F2FA" stroke="#91C2EA"/><path d="M259.516 186.505a6.005 6.005 0 1 1-12.01-.001 6.005 6.005 0 0 1 12.01.001Z" fill="#E8F2FA" stroke="#91C2EA"/><path d="M265.51 203.517h-23.798c.271-6.11 5.48-11.008 11.899-11.008 6.419 0 11.628 4.898 11.899 11.008Z" fill="#E8F2FA" stroke="#91C2EA"/></g></g></svg>