<svg xmlns="http://www.w3.org/2000/svg" xmlns:xlink="http://www.w3.org/1999/xlink"><symbol id="api-icons--icon-ignite" viewBox="0 0 320 320" xmlns="http://www.w3.org/2000/svg"><defs></defs><path  d="M60 207.62s-44.84 67.92 43.28 81.75c8.61 1.11 72.46 7.73 88.94 28.63 0 0-1.51-36.08-53.36-57.36S65.74 234.08 60 207.62z"/><path  d="M103.64 61.36s-125.44 76.48-7.23 152.57c22.81 14.73 105.25 56 102.82 93.95 0 0 50-74.08-23-120.49-75.11-47.75-93.91-98.54-72.59-126.03z"/><path  d="M233.2 136.19C179.48 79.86 164.54 45.07 187.51 0c0 0-160.54 61.77-2.06 171.34 56.76 39.25 47.26 79.26 47.3 80.74 8.97-9.26 54.18-59.56.45-115.89z"/></symbol><symbol id="api-icons--icon-java" viewBox="0 0 320 320" xml:space="preserve" xmlns="http://www.w3.org/2000/svg"><path  d="M118.3 246.9s-12.2 7.1 8.7 9.5c25.2 2.9 38.1 2.5 65.9-2.8 5.6 3.3 11.4 6.2 17.5 8.5-62.4 26.7-141-1.5-92.1-15.2M110.7 212.1s-13.7 10.1 7.2 12.2c26.9 2.8 48.2 3 85-4.1 3.8 3.5 8.2 6.3 13.1 8-75.3 22.1-159.2 1.8-105.3-16.1M174.8 153.1c15.3 17.7-4 33.6-4 33.6s38.9-20.1 21.1-45.3c-16.7-23.5-29.5-35.2 39.8-75.4 0 0-108.9 27.1-56.9 87.1"/><path  d="M257.1 272.7s9 7.4-9.9 13.1c-35.9 10.9-149.5 14.2-181.1.4-11.3-4.9 9.9-11.8 16.6-13.2 3.6-.9 7.3-1.3 11-1.2-12.6-8.9-81.6 17.5-35 25 126.9 20.6 231.3-9.3 198.4-24.1M124.1 176s-57.8 13.7-20.5 18.7c15.8 2.1 47.2 1.6 76.4-.8 23.9-2 47.9-6.3 47.9-6.3-5 2.2-9.9 4.8-14.5 7.8-58.7 15.4-172.1 8.3-139.4-7.5 27.7-13.4 50.1-11.9 50.1-11.9M227.8 234c59.7-31 32.1-60.8 12.8-56.8-2.3.4-4.6 1-6.8 1.8 1.3-1.8 3-3.2 5.1-3.9 38.1-13.4 67.4 39.5-12.3 60.4.5-.4.9-1 1.2-1.5M191.8 1s33.1 33-31.3 83.9c-51.6 40.8-11.8 64 0 90.6-30.1-27.2-52.2-51.1-37.4-73.4 21.7-32.8 82-48.6 68.7-101.1"/><path  d="M130 318c57.3 3.7 145.2-2 147.3-29.1 0 0-4 10.3-47.3 18.4-48.9 9.2-109.2 8.1-144.9 2.2-.1 0 7.3 6.1 44.9 8.5"/></symbol><symbol id="api-icons--icon-python" viewBox="0 0 320 320" xmlns="http://www.w3.org/2000/svg"><defs></defs><g id="layer1"><g id="g1894"><path id="path8615"  d="M158.83 2C78.18 2 83.22 37 83.22 37l.09 36.22h77v10.85H52.75S1.13 78.23 1.13 159.6s45.06 78.49 45.06 78.49h26.87v-37.75s-1.44-45.06 44.34-45.06h76.34s42.9.69 42.9-41.46V44.13S243.11 2 158.83 2zm-42.44 24.35a13.84 13.84 0 11-13.84 13.84 13.83 13.83 0 0113.82-13.84z"/><path id="path8620"  d="M161.14 318c80.65 0 75.61-35 75.61-35l-.08-36.22h-77v-10.85h107.58s51.62 5.84 51.62-75.53-45.06-78.49-45.06-78.49h-26.87v37.75s1.44 45.06-44.34 45.06h-76.34s-42.9-.69-42.9 41.46v69.69S76.83 318 161.14 318zm42.44-24.34a13.84 13.84 0 1113.84-13.84 13.83 13.83 0 01-13.8 13.86z"/></g></g></symbol><symbol id="api-icons--icon-scala" viewBox="0 0 320 320" xmlns="http://www.w3.org/2000/svg"><defs></defs><path  d="M63 147.87v72.79c0-6.07 194.1-18.2 194.1-48.53V99.34c0 30.33-194.1 42.46-194.1 48.53M63 50.81v72.79c0-6.06 194.1-18.19 194.1-48.52V2.29C257.05 32.62 63 44.75 63 50.81M63 244.92v72.79c0-6.06 194.1-18.2 194.1-48.52V196.4c0 30.32-194.1 42.46-194.1 48.52"/></symbol><symbol id="api-icons--icon_cplus" viewBox="0 0 320 320" xmlns="http://www.w3.org/2000/svg"><defs></defs><path  d="M285.66 67.08l-108-62.36a35.34 35.34 0 00-35.28 0l-108 62.36a35.27 35.27 0 00-17.67 30.56v124.72a35.28 35.28 0 0017.63 30.55l108 62.37a35.34 35.34 0 0035.28 0l108-62.37a35.24 35.24 0 0017.63-30.55V97.64a35.27 35.27 0 00-17.59-30.56zM160 255.86a95.86 95.86 0 1183-143.81l-41.48 24a47.93 47.93 0 100 47.91L243 208a96.19 96.19 0 01-83 47.86zm95.86-90.53h-10.65V176h-10.65v-10.67h-10.65v-10.66h10.65V144h10.65v10.65h10.65zm39.94 0h-10.65V176H274.5v-10.67h-10.65v-10.66h10.65V144h10.65v10.65h10.65z"/></symbol><symbol id="api-icons--icon_net" viewBox="0 0 320 320" xmlns="http://www.w3.org/2000/svg"><defs></defs><path  d="M111.57 122.65c11.42 34.94 15.76 97.27 49.18 97.27a42.26 42.26 0 007.69-.73c-30.37-7.09-34-68.74-52.52-100.67q-2.16 2-4.35 4.13M142.63 99.53a42.37 42.37 0 00-7.7.73 59 59 0 00-20.55 8.6 52.53 52.53 0 015.39 6.33 72.8 72.8 0 0121-12.76 47.6 47.6 0 017.85-2.18 24.75 24.75 0 00-6-.72"/><path  d="M196.89 204.94c2.8-2.22 5.59-4.68 8.38-7.35-11.61-34.78-15.77-98-49.41-98a39.23 39.23 0 00-7.26.67c30.66 7.62 34.58 74.3 48.29 104.69"/><path  d="M148.6 100.25a24.27 24.27 0 00-6-.72h13.23a38.39 38.39 0 00-7.26.67M196.31 212.32a47.55 47.55 0 01-3.79-4.11 69.55 69.55 0 01-16.91 9 26.49 26.49 0 006.3 2.15 26.94 26.94 0 005.37.53c6.28 0 11.26-.75 15.49-2.77a29.37 29.37 0 01-6.46-4.83"/><path  d="M119.77 115.19c21 28.83 28.58 88.7 55.84 102.05a69 69 0 0016.91-9c-21.91-26.39-24.29-91.41-51.75-105.78a72.8 72.8 0 00-21 12.76M98.11 121.8c-3.31 7.45-6.67 17.27-10.75 30.06a224.3 224.3 0 0124.21-29.23 86.83 86.83 0 00-3.57-9.32 121.23 121.23 0 00-9.89 8.49"/><path  d="M110.93 111.16c-1 .7-2 1.4-2.92 2.16a84.1 84.1 0 013.56 9.33c1.46-1.44 2.91-2.81 4.35-4.13a56.39 56.39 0 00-5-7.36M301.64 96.86c-15.52 59.87-47.95 108-75.15 120.09h-.05c-.5.23-1 .43-1.47.63l-.17.07c-.14.07-.28.1-.43.17l-.18.07-.68.24-.28.1-.34.11-.32.11-.29.1-.59.18c-.08 0-.16.05-.25.06l-.4.11a1.11 1.11 0 01-.26.07l-.42.12-.53.11a11 11 0 003.89.68c25.79 0 51.79-46.2 94.79-123h-16.87zM81.76 102h.06l.43-.16h.2l.44-.16c.34-.1.67-.22 1-.35H84a3.06 3.06 0 01.43-.13.66.66 0 01.2-.06l.42-.13a.43.43 0 00.16-.05l1.42-.36h.2a3.1 3.1 0 01.42-.08l.19-.07.43-.07H88l.86-.16H89a.7.7 0 00.4-.08c.13-.08.15 0 .23 0a2.32 2.32 0 00.38-.06.41.41 0 00.22 0l.92-.08c-.91-.09-1.83-.14-2.75-.14-29 0-69 53.87-87 123.63H5q8.65-15.42 15.69-29.15c12.56-49.38 38.27-83.08 61.1-92M100.49 102.36a25 25 0 015.15 6.4c.48-.6 1-1.16 1.49-1.69a29.15 29.15 0 00-7-4.91 1.77 1.77 0 00.31.15h.06M32.62 222.91a1.08 1.08 0 00-.47.07h-.56a4.81 4.81 0 00-1 .07h-.1c26.79-.75 39-14.17 45.12-33.63 4.63-14.75 8.42-27.18 11.73-37.6-11.22 15.79-22.49 34.62-33.82 55.72-5.43 10.19-13.75 14.46-20.88 15.35"/><path  d="M90.32 99.75h-.22a2.29 2.29 0 01-.37 0 .45.45 0 00-.23 0 2.66 2.66 0 01-.39.07.28.28 0 00-.18 0l-.86.15H88l-.42.09a.27.27 0 00-.21.06l-.42.09-.2.05-1.42.36h-.16l-.42.12a.23.23 0 00-.2.07l-.43.12H84c-.32.12-.64.25-1 .35l-.45.15-.19.07-.42.15a.35.35 0 01-.14.06c-22.14 8.74-34.68 41-61.15 92A243.34 243.34 0 0015 223.15h15.59a5.88 5.88 0 001-.06h.57a3.55 3.55 0 00.47-.06c20.7-44.45 43.13-79.82 65.49-101.1a55 55 0 017.53-13 24.92 24.92 0 00-5.15-6.41l-.31-.15-.31-.16-.32-.15c-.13 0-.23-.1-.36-.15l-.28-.13a6.14 6.14 0 01-.59-.25l-.25-.1-.44-.17a.88.88 0 00-.23-.07l-.61-.19-.7-.2H96l-.58-.16h-.14c-.47-.13-1-.22-1.47-.32h-.15c-.21 0-.42-.08-.64-.1a.13.13 0 00-.12 0l-.76-.1H92a5.7 5.7 0 00-.58-.06l-.93.09M210.87 210.58a24.07 24.07 0 01-6.52 5.71 16.87 16.87 0 01-1.58.85 22.65 22.65 0 008.29 2.62c.45.05.89.09 1.36.11h.08a3.53 3.53 0 01.65 0h2.22a.53.53 0 00.25 0 2 2 0 00.49 0h.25a4.52 4.52 0 00.53-.06h.16l.56-.09h.16a2.77 2.77 0 00.64-.11h.1c.42-.09.85-.17 1.27-.28-3.5-1.28-6.44-4.31-9-8.63M160.75 219.92a39.7 39.7 0 007.69-.75 46.85 46.85 0 007.17-1.93 26.49 26.49 0 006.3 2.15 26.94 26.94 0 005.37.53z"/><path  d="M187.28 219.92c6.28 0 11.26-.75 15.49-2.77a22.65 22.65 0 008.29 2.62c.45 0 .89.09 1.36.11h.08a3.53 3.53 0 01.65 0h-25.87zM213.94 219.92h1.46a.53.53 0 00.25 0 4 4 0 00.49 0h.24a4.6 4.6 0 00.52-.06h.17l.56-.09a.25.25 0 00.17 0l.64-.1h.1c.42-.08.85-.16 1.27-.27a11 11 0 003.89.68h-9.8z"/><path  d="M205.28 197.62q-4.2 4-8.37 7.34-2.19 1.74-4.38 3.29a50.82 50.82 0 003.79 4.11 29.3 29.3 0 006.47 4.82c.54-.26 1.06-.55 1.57-.85a23.61 23.61 0 006.52-5.71 70.82 70.82 0 01-5.6-13"/><path  d="M288.52 96.86h-15.84l-2.51.13c-.39.83-.79 1.65-1.17 2.49-13.11 27.92-26.88 52.12-40.86 71.35-6.57 20.23-11.4 32.51-17.31 39.73 2.53 4.31 5.48 7.34 9 8.63a.38.38 0 00.27-.07h.26a1.45 1.45 0 00.44-.12l.26-.07.39-.1a1 1 0 01.25-.07l.58-.18.29-.1.32-.11.34-.11.28-.1c.22-.09.44-.15.68-.24.06 0 .13-.06.19-.07.14-.07.27-.1.42-.17a.64.64 0 01.18-.06l1.47-.62h.05c.7-.31 1.42-.66 2.13-1 22.73-12.69 34.2-55.35 69.87-119.08h-10zM107.13 107.08a39.45 39.45 0 013.78 4.08c1.16-.81 2.31-1.58 3.46-2.3a36.49 36.49 0 00-4.77-4 25.16 25.16 0 00-2.47 2.26M91.25 99.67c.72-.07 1.43-.09 2.16-.09a27.39 27.39 0 0116.22 5.25c5-3.93 11-5.3 19.35-5.3H88.51a17.78 17.78 0 012.74.14"/><path  d="M228.18 170.87c3.59-11.08 7.7-24.54 12.81-40.86 4.6-14.7 12.75-25.69 28-30.49.4-.83.79-1.67 1.17-2.5-24.92 1.5-36.58 14.18-42.44 33-10.25 32.79-16.47 54-22.44 67.57a198.46 198.46 0 0022.87-26.68"/></symbol><symbol id="api-icons--icon_nodejs" viewBox="0 0 320 320" xmlns="http://www.w3.org/2000/svg"><defs></defs><path  d="M160.06 319.38a24.55 24.55 0 01-12.26-3.28l-39-23.1c-5.83-3.25-3-4.4-1.07-5.07 7.77-2.72 9.34-3.33 17.63-8.05a3 3 0 012.9.21l30 17.78a4 4 0 003.62 0l116.8-67.43a3.66 3.66 0 001.78-3.15V92.52a3.75 3.75 0 00-1.81-3.22L161.89 22a3.57 3.57 0 00-3.6 0L41.55 89.3a3.75 3.75 0 00-1.84 3.19v134.78a3.61 3.61 0 001.81 3.13l32 18.47c17.37 8.69 28-1.54 28-11.84V104a3.33 3.33 0 013.3-3.36h14.89A3.35 3.35 0 01123 104v133.1c0 23.15-12.63 36.46-34.59 36.46-6.75 0-12.07 0-26.93-7.31l-30.6-17.66a24.7 24.7 0 01-12.26-21.31V92.49a24.53 24.53 0 0112.26-21.28L147.79 3.76a25.64 25.64 0 0124.57 0l116.76 67.48a24.65 24.65 0 0112.26 21.28V227.3a24.72 24.72 0 01-12.26 21.29L172.35 316a24.65 24.65 0 01-12.35 3.31"/><path  d="M196.13 226.5c-51.11 0-61.82-23.46-61.82-43.14a3.35 3.35 0 013.34-3.36h15.13a3.37 3.37 0 013.33 2.85c2.28 15.37 9.06 23.13 40 23.13 24.61 0 35.08-5.56 35.08-18.62 0-7.51-3-13.1-41.22-16.84-32-3.16-51.76-10.2-51.76-35.79 0-23.56 19.88-37.6 53.18-37.6 37.4 0 55.94 13 58.27 40.88a3.45 3.45 0 01-.9 2.6 3.5 3.5 0 01-2.49 1.08h-15.2a3.36 3.36 0 01-3.28-2.63c-3.65-16.17-12.48-21.34-36.48-21.34-26.87 0-30 9.36-30 16.38 0 8.51 3.68 11 39.94 15.78 35.9 4.77 52.94 11.49 52.94 36.72 0 25.44-21.23 40-58.23 40"/></symbol><symbol id="api-icons--icon_php" viewBox="0 0 320 320" xmlns="http://www.w3.org/2000/svg"><defs></defs><path  d="M239.83 137.34h-14l-5.4 32.37h13c9.71-1.08 18.34-4.32 19.42-22.66-.07-6.47-5.47-9.71-13.02-9.71zM95.27 137.34h-14l-5.4 32.37h13c9.71-1.08 18.34-4.32 19.42-22.66-.07-6.47-5.47-9.71-13.02-9.71z"/><path  d="M160 78C73 78 2.49 114.72 2.49 160S73 242 160 242s157.51-36.71 157.51-82S247 78 160 78zM91 185.89H71.54l-4.32 22.66h-20.5L64 121.16h39.9c17.26 1.08 25.89 9.71 25.89 24.82 0 25.89-20.49 41.02-38.79 39.91zm81.21-48.55H156l-9.71 48.55h-20.5L143 98.51h20.5l-4.32 22.65h19.42c17.26 1.08 23.74 9.71 21.58 20.5l-7.55 44.23h-21.54l7.55-39.89c1.08-5.42 1.08-8.66-6.47-8.66zm63.35 48.55H216.1l-4.32 22.66h-20.49l17.26-87.39h39.91c17.26 1.08 25.89 9.71 25.89 24.82 0 25.89-20.49 41-38.83 39.91z"/></symbol><symbol id="index-icons--ACID" viewBox="0 0 300 300" xmlns="http://www.w3.org/2000/svg"><defs></defs><path  d="M138.74 124.53a18.71 18.71 0 00-8.23-8.23 4.72 4.72 0 01-2.55-4.22V98a4.72 4.72 0 012.55-4.22 18.71 18.71 0 008.23-8.23A4.71 4.71 0 01143 83h14a4.71 4.71 0 014.22 2.54 18.71 18.71 0 008.23 8.23A4.72 4.72 0 01172 98v14.09a4.72 4.72 0 01-2.55 4.22 18.71 18.71 0 00-8.23 8.23 4.71 4.71 0 01-4.22 2.54h-14a4.71 4.71 0 01-4.26-2.55z"/><path  d="M105.44 105.05a44.56 44.56 0 1176.07 31.5 44.56 44.56 0 01-76.07-31.5zm78.75 0a34.19 34.19 0 10-10 24.17 34 34 0 0010-24.17zM170.9 189.06a29.55 29.55 0 100 41.79 29.54 29.54 0 000-41.79zm-4.53 16.78l-16.92 16.92a3.72 3.72 0 01-5.26 0l-9.9-9.9a3.72 3.72 0 015.26-5.27l7.27 7.28 14.29-14.29a3.72 3.72 0 015.26 0 3.72 3.72 0 010 5.26zM131.89 175.19a3.73 3.73 0 01-3.74-3.74v-13.91a3.75 3.75 0 017.49 0v13.91a3.74 3.74 0 01-3.75 3.74zM150.33 175.19a3.74 3.74 0 01-3.75-3.74v-13.91a3.75 3.75 0 017.5 0v13.91a3.74 3.74 0 01-3.75 3.74zM168 175.19a3.74 3.74 0 01-3.75-3.74v-13.91a3.75 3.75 0 017.49 0v13.91a3.73 3.73 0 01-3.74 3.74z"/></symbol><symbol id="index-icons--API" viewBox="0 0 300 300" xmlns="http://www.w3.org/2000/svg"><defs></defs><path  d="M74.9 82.07H64.27a8 8 0 00-8 8v26.58a2.66 2.66 0 105.32 0v-8h16v8a2.66 2.66 0 105.31 0V90a8 8 0 00-8-7.93zm2.66 21.26h-16V90a2.67 2.67 0 012.66-2.66H74.9A2.67 2.67 0 0177.56 90zM109.46 82.07H98.82a2.65 2.65 0 00-2.65 2.65v31.9a2.66 2.66 0 105.31 0v-8h8a13.29 13.29 0 000-26.58zm0 21.26h-8v-16h8a8 8 0 010 16zM154.65 114h-8V87.38h8a2.66 2.66 0 100-5.31h-21.27a2.66 2.66 0 100 5.31h8V114h-8a2.66 2.66 0 100 5.31h21.27a2.66 2.66 0 100-5.31zM148.55 193.36h-42.08a10.24 10.24 0 01-10.23-10.24v-52.8a2.32 2.32 0 014.63 0v52.8a5.61 5.61 0 005.6 5.6h42.08a2.32 2.32 0 110 4.64zM198.07 220.43a46.5 46.5 0 01-6.73-.52 3 3 0 01-2.48-2.32l-2-8.91a37.58 37.58 0 01-6.63-2.74l-7.69 4.9a3 3 0 01-3.42-.12 48.7 48.7 0 01-9.49-9.48 3 3 0 01-.12-3.43l4.9-7.68a37.65 37.65 0 01-2.73-6.64l-8.92-2a3 3 0 01-2.33-2.49 43.64 43.64 0 010-13.45 3 3 0 012.31-2.49l8.93-2a37.55 37.55 0 012.73-6.63l-4.9-7.69a3 3 0 01.13-3.43 48.27 48.27 0 019.47-9.47 3 3 0 013.44-.12l7.68 4.89a37.24 37.24 0 016.63-2.73l2-8.92a3 3 0 012.49-2.32 43.33 43.33 0 0113.45 0 3 3 0 012.49 2.31l2 8.93a37.55 37.55 0 016.63 2.73l7.69-4.9a3 3 0 013.44.14 48 48 0 019.46 9.47 3 3 0 01.13 3.42l-4.9 7.69a37.55 37.55 0 012.73 6.63l8.92 2a3 3 0 012.32 2.49 43.4 43.4 0 010 13.46 3 3 0 01-2.32 2.48l-8.92 2a38 38 0 01-2.73 6.64l4.9 7.68a3 3 0 01-.11 3.4 48.36 48.36 0 01-9.5 9.51 3 3 0 01-3.41.13l-7.7-4.91a37.58 37.58 0 01-6.63 2.74l-2 8.91a3 3 0 01-2.49 2.32 46.29 46.29 0 01-6.72.52zm-4.33-3.92zm-.3-1.36a37.83 37.83 0 009.27 0l1.85-8.35a3.59 3.59 0 012.54-2.7 32.75 32.75 0 007.08-2.92 3.61 3.61 0 013.71.11l7.19 4.58a42.77 42.77 0 006.56-6.55l-4.59-7.2a3.62 3.62 0 01-.1-3.7 32.84 32.84 0 002.92-7.09 3.61 3.61 0 012.7-2.54l8.35-1.85a37.83 37.83 0 000-9.27l-8.36-1.85a3.6 3.6 0 01-2.69-2.53 32.63 32.63 0 00-2.87-7.09 3.61 3.61 0 01.1-3.7l4.59-7.21a43.22 43.22 0 00-6.56-6.55l-7.19 4.59a3.61 3.61 0 01-3.7.11 32.78 32.78 0 00-7.09-2.93 3.6 3.6 0 01-2.54-2.69l-1.85-8.35a36.87 36.87 0 00-9.27 0l-1.85 8.35a3.6 3.6 0 01-2.54 2.69 32.55 32.55 0 00-7.08 2.92 3.6 3.6 0 01-3.72-.11l-7.19-4.58a42.77 42.77 0 00-6.55 6.56l4.58 7.19a3.61 3.61 0 01.12 3.7 32.57 32.57 0 00-2.93 7.09 3.59 3.59 0 01-2.7 2.54l-8.35 1.85a36.87 36.87 0 000 9.27l8.35 1.85a3.61 3.61 0 012.7 2.54 32.84 32.84 0 002.92 7.09 3.59 3.59 0 01-.1 3.69l-4.59 7.21a43.16 43.16 0 006.55 6.55l7.2-4.58a3.59 3.59 0 013.7-.11 33 33 0 007.09 2.92 3.61 3.61 0 012.54 2.7zm10.64-.18zm-17.37-7.09zm22.73 0zm5.76-2.37zm-34.25 0zm-17.19-5zm68.62 0zm-1.07-9.62zm-68.81-7.19zm71.15 0zm7.08-5.36zm-85.32 0zm86.87-1.67zm-1.55-10.34zm-85.32 0zm7.09-5.36zm71.14 0zm-18.44-21.86zm-34.26 0zm45.34-1.11zm-56.4 0zm54.11-.1zm-37.28-1.15zm17.37-7.09zm-12 0zm1.67-1.55z"/><path  d="M198.07 197.87a25.57 25.57 0 1125.57-25.56 25.59 25.59 0 01-25.57 25.56zm0-46.13a20.57 20.57 0 1020.57 20.57 20.58 20.58 0 00-20.57-20.57z"/></symbol><symbol id="index-icons--Community" viewBox="0 0 300 300" xmlns="http://www.w3.org/2000/svg"><defs></defs><path  d="M161.49 78.26a2.79 2.79 0 00-2-2.28l-2.33-.5a4.84 4.84 0 00-3.68.7 10.63 10.63 0 01-2.21 1.15 4.55 4.55 0 01-3.21 0 10.63 10.63 0 01-2.21-1.15 4.85 4.85 0 00-3.69-.7l-2.32.5a2.79 2.79 0 00-2 2.28l-1 4.67 5.67 4 7.11 1.3 7.5-1.46 5.29-3.89zM155.35 68a5.68 5.68 0 11-5.67-6.14 5.91 5.91 0 015.67 6.14z"/><path  d="M149.68 89.61a18.78 18.78 0 1118.79-18.78 18.8 18.8 0 01-18.79 18.78zm0-35a16.24 16.24 0 1016.24 16.24 16.26 16.26 0 00-16.24-16.26zM169.07 162.48a4.55 4.55 0 00-3.22-3.7l-5.06-1.1a4.76 4.76 0 00-3.85.82 17.64 17.64 0 01-5.93 2.92 4.88 4.88 0 01-2.28 0 17.54 17.54 0 01-5.93-2.92 4.76 4.76 0 00-3.85-.82l-5.06 1.1a4.55 4.55 0 00-3.22 3.7l-1.59 7.59 9.22 6.58 11.57 2.11 12.19-2.37 8.6-6.32zM159.08 145.71c0 5.51-4.12 10-9.21 10s-9.21-4.47-9.21-10 4.12-10 9.21-10 9.21 4.49 9.21 10z"/><path  d="M149.87 180.92a30.53 30.53 0 1130.53-30.52 30.56 30.56 0 01-30.53 30.52zm0-56.91a26.39 26.39 0 1026.39 26.39 26.42 26.42 0 00-26.39-26.4zM145.79 110v-9.21a3.9 3.9 0 117.79 0V110a3.9 3.9 0 11-7.79 0zM145.79 200.17V191a3.9 3.9 0 117.79 0v9.21a3.9 3.9 0 11-7.79 0zM82 157.69a2.8 2.8 0 00-2-2.28l-2.33-.51a4.83 4.83 0 00-3.68.71 11.79 11.79 0 01-2.22 1.15 4.66 4.66 0 01-3.21 0 11.68 11.68 0 01-2.21-1.15 4.84 4.84 0 00-3.68-.71l-2.33.51a2.79 2.79 0 00-2 2.28l-1 4.66 5.67 4.06 7.12 1.29 7.49-1.45 5.3-3.9zM75.86 147.37a5.69 5.69 0 11-5.67-6.14 5.92 5.92 0 015.67 6.14z"/><path  d="M70.19 169A18.78 18.78 0 1189 150.25 18.8 18.8 0 0170.19 169zm0-35a16.24 16.24 0 1016.23 16.23A16.25 16.25 0 0070.19 134zM190.37 146.35h9.21a3.9 3.9 0 010 7.8h-9.21a3.9 3.9 0 010-7.8zM100.16 146.35h9.21a3.9 3.9 0 010 7.8h-9.21a3.9 3.9 0 110-7.8zM241.62 157.69a2.8 2.8 0 00-2-2.28l-2.33-.51a4.84 4.84 0 00-3.68.71 11.68 11.68 0 01-2.21 1.15 4.66 4.66 0 01-3.21 0 11.79 11.79 0 01-2.22-1.15 4.83 4.83 0 00-3.68-.71l-2.33.51a2.8 2.8 0 00-2 2.28l-1 4.66 5.67 4.06 7.12 1.29 7.5-1.45 5.29-3.9zM235.48 147.37a5.69 5.69 0 11-5.67-6.14 5.92 5.92 0 015.67 6.14z"/><path  d="M229.81 169a18.78 18.78 0 1118.78-18.78A18.8 18.8 0 01229.81 169zm0-35a16.24 16.24 0 1016.24 16.23A16.25 16.25 0 00229.81 134zM161.49 236.6a2.79 2.79 0 00-2-2.27l-2.33-.51a4.8 4.8 0 00-3.68.71 11.12 11.12 0 01-2.21 1.14 4.55 4.55 0 01-3.21 0 11.12 11.12 0 01-2.21-1.14 4.81 4.81 0 00-3.69-.71l-2.32.51a2.79 2.79 0 00-2 2.27l-1 4.67 5.67 4 7.11 1.3 7.5-1.46 5.29-3.89zM155.35 226.29a5.68 5.68 0 11-5.67-6.14 5.91 5.91 0 015.67 6.14z"/><path  d="M149.68 248a18.78 18.78 0 1118.79-18.78A18.8 18.8 0 01149.68 248zm0-35a16.24 16.24 0 1016.24 16.24 16.26 16.26 0 00-16.24-16.31z"/></symbol><symbol id="index-icons--Company" viewBox="0 0 300 300" xmlns="http://www.w3.org/2000/svg"><defs></defs><path  d="M192.31 253.3h-84.62a3.5 3.5 0 01-3.5-3.5V84.4a3.5 3.5 0 013.5-3.5h84.62a3.5 3.5 0 013.5 3.5v165.4a3.5 3.5 0 01-3.5 3.5zm-81.12-7h77.62V87.9h-77.62z"/><path  d="M176.27 87.9h-52.54a3.49 3.49 0 01-3.5-3.5V50.2a3.5 3.5 0 013.5-3.5h52.54a3.5 3.5 0 013.5 3.5v34.2a3.5 3.5 0 01-3.5 3.5zm-49-7h45.54V53.7h-45.58zM142.11 120.89h-11.47a3.5 3.5 0 110-7h11.47a3.5 3.5 0 010 7zM169.36 120.89h-11.47a3.5 3.5 0 010-7h11.47a3.5 3.5 0 010 7zM142.11 145.74h-11.47a3.5 3.5 0 110-7h11.47a3.5 3.5 0 010 7zM169.36 145.74h-11.47a3.5 3.5 0 010-7h11.47a3.5 3.5 0 010 7zM142.11 170.6h-11.47a3.5 3.5 0 110-7h11.47a3.5 3.5 0 010 7zM169.36 170.6h-11.47a3.5 3.5 0 010-7h11.47a3.5 3.5 0 010 7zM142.11 195.46h-11.47a3.5 3.5 0 110-7h11.47a3.5 3.5 0 010 7zM169.36 195.46h-11.47a3.5 3.5 0 010-7h11.47a3.5 3.5 0 010 7zM142.11 220.32h-11.47a3.5 3.5 0 110-7h11.47a3.5 3.5 0 010 7zM169.36 220.32h-11.47a3.5 3.5 0 010-7h11.47a3.5 3.5 0 010 7zM107.69 253.3h-46.3a3.5 3.5 0 01-3.5-3.5V115.9a3.5 3.5 0 013.5-3.5h46.3a3.5 3.5 0 013.5 3.5v133.9a3.5 3.5 0 01-3.5 3.5zm-42.8-7h39.3V119.4h-39.3z"/><path  d="M76.84 129.95h15.4v15.4h-15.4zM76.84 159.46h15.4v15.4h-15.4zM76.84 188.97h15.4v15.4h-15.4zM76.84 218.48h15.4v15.4h-15.4zM238.61 253.3h-46.3a3.5 3.5 0 01-3.5-3.5V142.24a3.5 3.5 0 013.5-3.5h46.3a3.5 3.5 0 013.5 3.5V249.8a3.5 3.5 0 01-3.5 3.5zm-42.8-7h39.3V145.74h-39.3z"/><path  d="M221.2 175.43h-11.48a3.5 3.5 0 110-7h11.48a3.5 3.5 0 010 7zM221.2 200.29h-11.48a3.5 3.5 0 010-7h11.48a3.5 3.5 0 010 7zM221.2 225.15h-11.48a3.5 3.5 0 010-7h11.48a3.5 3.5 0 010 7z"/></symbol><symbol id="index-icons--Database" viewBox="0 0 300 300" xmlns="http://www.w3.org/2000/svg"><defs></defs><path  d="M209.61 47.7c-16.15-4.39-37.89-6.9-59.63-6.9s-43.46 2.51-59.6 6.9c-18.91 5.12-28.9 12.41-28.9 21.06v54.53a11.82 11.82 0 002.26 6.85 17.68 17.68 0 002.39 2.78c11.34 11 45.05 18.33 83.85 18.33s72.54-7.37 83.89-18.33a18.29 18.29 0 002.39-2.78 11.82 11.82 0 002.26-6.85V68.76c0-8.65-10-15.94-28.91-21.06zm20.14 77.87a9.69 9.69 0 01-1.37 1.59c-9.68 9.36-42.65 16.14-78.4 16.14s-68.68-6.79-78.36-16.13a10.68 10.68 0 01-1.37-1.6 4 4 0 01-.81-2.28V81.07a43.53 43.53 0 005.9 3.37h.1c1.07.52 2.2 1 3.39 1.51l.29.12c1.15.46 2.34.92 3.58 1.36l.45.15c1 .37 2.14.73 3.26 1.07l1 .32c1 .32 2.14.62 3.24.92l1.49.4c1.07.28 2.16.54 3.26.8l1.91.44 3.25.69 2.17.42 2.61.47 3 .49 2.46.38 3.21.44 2.79.35 2.52.29q1.88.21 3.78.39l1.91.17c1.52.13 3 .25 4.6.36l1.65.11q2.49.15 5 .27h1.25c1.83.08 3.68.14 5.54.18h.74q3 .06 6.14.06t6.13-.06h.75c1.87 0 3.71-.1 5.54-.18h1.27c1.69-.08 3.36-.17 5-.27l1.66-.11c1.54-.11 3.07-.23 4.58-.36.66 0 1.31-.12 2-.18 1.24-.11 2.46-.24 3.67-.37.89-.09 1.76-.2 2.63-.3l2.75-.34 3.29-.43 2.41-.36c1-.17 2-.33 3-.51l2.59-.46 2.18-.43 3.26-.68 1.89-.44 3.29-.8 1.43-.39c1.16-.31 2.3-.63 3.4-1l.84-.27c1.16-.36 2.3-.73 3.39-1.11l.36-.12c1.27-.45 2.49-.92 3.67-1.4l.2-.08c1.21-.5 2.37-1 3.46-1.54a44.12 44.12 0 005.94-3.38v42.22a4 4 0 01-.76 2.32zM150 48.76c49.93 0 80.58 11.65 80.58 20a4.22 4.22 0 01-.82 2.31c-3.5 5.15-16 10.42-34.41 13.85h-.16l-2.09.37-2.19.36a258.15 258.15 0 01-34 3H143.1a258.83 258.83 0 01-33.92-3h-.15l-2.03-.32-2.22-.4c-18.52-3.43-31-8.69-34.51-13.86a4.19 4.19 0 01-.83-2.31c0-8.35 30.64-20 80.56-20z"/><path  d="M230.56 123a4.17 4.17 0 01-.82 2.31c-3.5 5.16-16 10.42-34.41 13.85h-.16l-2.09.37-2.19.37a256.52 256.52 0 01-34 3h-13.81a257.18 257.18 0 01-33.92-3h-.15l-2.06-.35-2.22-.39c-18.43-3.43-30.91-8.69-34.42-13.85a4.19 4.19 0 01-.83-2.32h-8v54.54a11.76 11.76 0 002.26 6.84 18.23 18.23 0 002.39 2.79c11.34 11 45.05 18.33 83.85 18.33s72.54-7.37 83.89-18.33a18.89 18.89 0 002.39-2.79 11.76 11.76 0 002.26-6.84V123zm-.81 56.82a10.12 10.12 0 01-1.37 1.59c-9.68 9.36-42.65 16.13-78.4 16.13s-68.68-6.78-78.36-16.13a9.77 9.77 0 01-1.37-1.6 3.94 3.94 0 01-.81-2.27v-42.25a43.52 43.52 0 005.9 3.36h.1c1.07.51 2.2 1 3.39 1.5l.29.12c1.15.47 2.34.93 3.58 1.37l.45.15c1 .37 2.14.72 3.26 1.07l1 .32c1 .31 2.14.62 3.24.92l1.49.4 3.26.8 1.91.43c1.06.24 2.15.47 3.25.69.72.15 1.44.28 2.17.42l2.61.47 3 .5 2.46.37q1.59.24 3.21.45l2.79.35 2.52.29c1.25.14 2.51.26 3.78.38l1.91.18c1.52.13 3 .25 4.6.35l1.65.11c1.66.11 3.34.2 5 .28h1.25c1.83.08 3.68.14 5.54.18h.74q3 .07 6.14.07t6.13-.07h.75c1.87 0 3.71-.1 5.54-.18h1.27c1.69-.08 3.36-.17 5-.28l1.66-.11c1.54-.1 3.07-.22 4.58-.35l2-.18 3.67-.37 2.63-.3 2.75-.35c1.1-.14 2.18-.29 3.26-.45l2.41-.37 3-.5 2.59-.47 2.18-.42c1.1-.22 2.19-.45 3.26-.69l1.89-.43c1.11-.26 2.21-.53 3.29-.81l1.43-.38c1.16-.32 2.3-.64 3.4-1l.84-.26c1.16-.36 2.3-.73 3.39-1.12.12 0 .24-.07.36-.12 1.27-.45 2.49-.92 3.67-1.39l.2-.08c1.21-.5 2.37-1 3.46-1.54a44.12 44.12 0 005.94-3.38v42.22a4 4 0 01-.73 2.35z"/><path  d="M230.56 176.71a4.16 4.16 0 01-.82 2.3c-3.5 5.16-16 10.43-34.41 13.86h-.16l-2.09.38-2.19.36a256.52 256.52 0 01-34 3h-13.81a257.18 257.18 0 01-33.92-3h-.15l-2.06-.35q-1.12-.18-2.22-.39c-18.43-3.42-30.91-8.69-34.42-13.85a4.19 4.19 0 01-.83-2.31h-8v54.53a11.76 11.76 0 002.26 6.84 17.77 17.77 0 002.39 2.79c11.34 11 45.05 18.33 83.85 18.33s72.54-7.37 83.89-18.33a18.79 18.79 0 002.39-2.78 11.82 11.82 0 002.26-6.85v-54.53zm-.81 56.81a10.12 10.12 0 01-1.37 1.59c-9.68 9.36-42.65 16.13-78.4 16.13s-68.68-6.78-78.36-16.12a10.29 10.29 0 01-1.37-1.61 3.94 3.94 0 01-.81-2.27V189a44.62 44.62 0 005.9 3.37h.1c1.07.52 2.2 1 3.39 1.51l.29.11c1.15.47 2.34.93 3.58 1.37l.45.15c1 .37 2.14.72 3.26 1.07l1 .32c1 .32 2.14.62 3.24.92l1.49.4c1.07.28 2.16.54 3.26.8l1.91.44c1.06.23 2.15.46 3.25.68.72.15 1.44.29 2.17.42s1.73.32 2.61.47 2 .34 3 .5l2.46.37q1.59.24 3.21.45l2.79.35 2.52.29c1.25.14 2.51.26 3.78.38l1.91.18c1.52.13 3 .25 4.6.36l1.65.11q2.49.15 5 .27l1.25.05c1.83.08 3.68.14 5.54.18h.74q3 .06 6.14.06t6.13-.06h.75c1.87 0 3.71-.1 5.54-.18l1.27-.05c1.69-.08 3.36-.17 5-.27l1.66-.11c1.54-.11 3.07-.23 4.58-.36l2-.18c1.24-.11 2.46-.24 3.67-.37l2.63-.3 2.75-.35c1.1-.14 2.18-.29 3.26-.45l2.41-.37 3-.5 2.59-.47c.73-.13 1.46-.27 2.18-.42 1.1-.22 2.19-.45 3.26-.69l1.89-.43 3.29-.8 1.43-.39c1.16-.31 2.3-.63 3.4-1l.84-.26c1.16-.36 2.3-.73 3.39-1.11l.36-.12c1.27-.45 2.49-.92 3.67-1.4l.2-.08c1.21-.5 2.37-1 3.46-1.54a44.12 44.12 0 005.94-3.38v42.22a4 4 0 01-.73 2.36z"/></symbol><symbol id="index-icons--DistriCompute" viewBox="0 0 300 300" xmlns="http://www.w3.org/2000/svg"><defs></defs><path  d="M230.62 172.48a22.48 22.48 0 010-45 22.48 22.48 0 0115.89 38.38 22.3 22.3 0 01-15.89 6.62zm0-5.23a17.24 17.24 0 10-12.2-5.05 17.09 17.09 0 0012.2 5.05z"/><circle  cx="230.62" cy="150.01" r="11.42"/><path  d="M230.62 92.92a22.49 22.49 0 1115.9-38.38 22.49 22.49 0 01-15.9 38.38zm0-39.73a17.25 17.25 0 1012.2 29.44 17.25 17.25 0 00-12.2-29.44z"/><circle  cx="230.62" cy="70.44" r="11.42"/><path  d="M230.62 252a22.47 22.47 0 01-15.9-38.37 22.48 22.48 0 1115.9 38.37zm-12.2-34.68a17.26 17.26 0 1024.39 0 17.13 17.13 0 00-24.39 0z"/><circle  cx="230.62" cy="229.56" r="11.42"/><path  d="M230.62 120.47a4.67 4.67 0 01-4.68-4.68v-11.14a4.68 4.68 0 119.36 0v11.14a4.68 4.68 0 01-4.68 4.68zM230.61 200a4.68 4.68 0 01-4.68-4.68v-11.1a4.68 4.68 0 119.36 0v11.14a4.67 4.67 0 01-4.68 4.64zM69.39 172.48a22.48 22.48 0 010-45 22.48 22.48 0 110 45zm0-5.23a17.24 17.24 0 10-12.2-5.05 17.13 17.13 0 0012.2 5.05z"/><circle  cx="69.38" cy="150.01" r="11.42"/><path  d="M69.39 92.92a22.49 22.49 0 1115.9-38.38 22.49 22.49 0 01-15.9 38.38zm0-39.73a17.25 17.25 0 1012.2 5.05 17.13 17.13 0 00-12.2-5.05z"/><circle  cx="69.39" cy="70.44" r="11.42"/><path  d="M69.38 252a22.47 22.47 0 01-15.89-38.37A22.48 22.48 0 1169.38 252zm-12.19-34.64a17.25 17.25 0 1024.39 0 17.14 17.14 0 00-24.39 0z"/><circle  cx="69.38" cy="229.56" r="11.42"/><path  d="M69.39 120.47a4.68 4.68 0 01-4.68-4.68v-11.14a4.68 4.68 0 119.36 0v11.14a4.67 4.67 0 01-4.68 4.68zM69.39 200a4.67 4.67 0 01-4.68-4.68v-11.1a4.68 4.68 0 119.36 0v11.14a4.68 4.68 0 01-4.68 4.64zM150 172.49a22.48 22.48 0 110-45 22.48 22.48 0 110 45zm0-5.23a17.26 17.26 0 10-12.2-5.06 17.14 17.14 0 0012.2 5.06z"/><circle  cx="150" cy="150.01" r="11.42"/><path  d="M150 92.92a22.48 22.48 0 1115.9-38.38A22.48 22.48 0 01150 92.92zm0-39.73a17.25 17.25 0 1012.19 5.05A17.13 17.13 0 00150 53.19z"/><circle  cx="150.01" cy="70.44" r="11.42"/><path  d="M150 252.05a22.49 22.49 0 01-15.9-38.38 22.48 22.48 0 1115.9 38.38zm-12.2-34.68a17.25 17.25 0 1024.4 0 17.17 17.17 0 00-24.4 0z"/><circle  cx="150" cy="229.56" r="11.42"/><path  d="M150 120.48a4.69 4.69 0 01-4.69-4.68v-11.15a4.69 4.69 0 019.37 0v11.15a4.69 4.69 0 01-4.68 4.68zM150 200a4.67 4.67 0 01-4.68-4.68v-11.1a4.68 4.68 0 019.36 0v11.14A4.67 4.67 0 01150 200zM179.53 150a4.69 4.69 0 014.68-4.68h11.14a4.69 4.69 0 110 9.37h-11.14a4.69 4.69 0 01-4.68-4.69zM100 150a4.68 4.68 0 014.69-4.68h11.14a4.68 4.68 0 010 9.36h-11.18A4.69 4.69 0 01100 150zM179.54 70.44a4.67 4.67 0 014.68-4.68h11.14a4.68 4.68 0 010 9.36h-11.14a4.68 4.68 0 01-4.68-4.68zM100 70.43a4.68 4.68 0 014.68-4.68h11.14a4.68 4.68 0 010 9.36h-11.17a4.67 4.67 0 01-4.65-4.68zM179.53 229.56a4.69 4.69 0 014.68-4.68h11.14a4.69 4.69 0 110 9.37h-11.14a4.69 4.69 0 01-4.68-4.69zM100 229.56a4.68 4.68 0 014.68-4.68h11.15a4.68 4.68 0 010 9.36h-11.19a4.69 4.69 0 01-4.64-4.68z"/></symbol><symbol id="index-icons--Distributed-IMDataStore" viewBox="0 0 300 300" xmlns="http://www.w3.org/2000/svg"><defs></defs><path  d="M142.21 248.22a12.88 12.88 0 00-5.7-5.7 3.26 3.26 0 01-1.76-2.92v-9.74a3.26 3.26 0 011.76-2.92 12.93 12.93 0 005.7-5.7 3.26 3.26 0 012.92-1.76h9.74a3.26 3.26 0 012.92 1.76 12.93 12.93 0 005.7 5.7 3.26 3.26 0 011.76 2.92v9.74a3.26 3.26 0 01-1.76 2.92 12.88 12.88 0 00-5.7 5.7 3.25 3.25 0 01-2.92 1.75h-9.74a3.25 3.25 0 01-2.92-1.75zM150 118.09a4.68 4.68 0 01-4.68-4.68v-11.14a4.68 4.68 0 019.36 0v11.14a4.68 4.68 0 01-4.68 4.68zM150 202.68a4.67 4.67 0 01-4.68-4.68v-11.14a4.68 4.68 0 019.36 0V198a4.67 4.67 0 01-4.68 4.68zM142.21 163.62a12.91 12.91 0 00-5.7-5.69 3.28 3.28 0 01-1.76-2.92v-9.75a3.28 3.28 0 011.76-2.92 12.91 12.91 0 005.7-5.69 3.26 3.26 0 012.92-1.76h9.74a3.26 3.26 0 012.92 1.76 12.91 12.91 0 005.7 5.69 3.28 3.28 0 011.76 2.92V155a3.28 3.28 0 01-1.76 2.92 12.91 12.91 0 00-5.7 5.69 3.26 3.26 0 01-2.92 1.76h-9.74a3.26 3.26 0 01-2.92-1.75zM142.21 79a12.88 12.88 0 00-5.7-5.7 3.26 3.26 0 01-1.76-2.92v-9.71a3.26 3.26 0 011.76-2.92 12.88 12.88 0 005.7-5.7 3.26 3.26 0 012.92-1.76h9.74a3.26 3.26 0 012.92 1.76 12.88 12.88 0 005.7 5.7 3.26 3.26 0 011.76 2.92v9.74a3.26 3.26 0 01-1.76 2.92 12.93 12.93 0 00-5.7 5.7 3.26 3.26 0 01-2.92 1.76h-9.74a3.26 3.26 0 01-2.92-1.79zM182 149.87a4.69 4.69 0 014.69-4.69h11.14a4.69 4.69 0 010 9.37h-11.1a4.69 4.69 0 01-4.73-4.68zM97.45 149.87a4.69 4.69 0 014.68-4.69h11.14a4.69 4.69 0 110 9.37h-11.14a4.69 4.69 0 01-4.68-4.68zM51.92 142.07a12.93 12.93 0 005.69-5.69 3.28 3.28 0 012.92-1.76h9.75a3.28 3.28 0 012.92 1.76 12.93 12.93 0 005.69 5.69 3.26 3.26 0 011.76 2.93v9.75a3.26 3.26 0 01-1.76 2.92 12.93 12.93 0 00-5.69 5.69 3.28 3.28 0 01-2.92 1.76h-9.75a3.28 3.28 0 01-2.92-1.76 12.93 12.93 0 00-5.69-5.69 3.28 3.28 0 01-1.76-2.92V145a3.28 3.28 0 011.76-2.93zM221.11 142.07a12.93 12.93 0 005.69-5.69 3.28 3.28 0 012.92-1.76h9.75a3.28 3.28 0 012.92 1.76 12.93 12.93 0 005.69 5.69 3.28 3.28 0 011.76 2.92v9.75a3.28 3.28 0 01-1.76 2.92 12.93 12.93 0 00-5.69 5.69 3.28 3.28 0 01-2.92 1.76h-9.75a3.28 3.28 0 01-2.92-1.76 12.93 12.93 0 00-5.69-5.69 3.26 3.26 0 01-1.76-2.92V145a3.26 3.26 0 011.76-2.93zM234.6 118.09a4.69 4.69 0 01-4.69-4.68v-11.14a4.69 4.69 0 019.37 0v11.14a4.69 4.69 0 01-4.68 4.68zM234.6 202.68a4.68 4.68 0 01-4.69-4.68v-11.14a4.69 4.69 0 019.37 0V198a4.68 4.68 0 01-4.68 4.68zM65.4 117.82a4.69 4.69 0 01-4.68-4.68V102a4.69 4.69 0 019.37 0v11.14a4.69 4.69 0 01-4.69 4.68zM65.4 202.41a4.68 4.68 0 01-4.68-4.68v-11.14a4.69 4.69 0 019.37 0v11.14a4.68 4.68 0 01-4.69 4.68zM51.92 57.48a12.91 12.91 0 005.69-5.7A3.27 3.27 0 0160.53 50h9.75a3.27 3.27 0 012.92 1.75 12.91 12.91 0 005.69 5.7 3.24 3.24 0 011.76 2.92v9.74a3.24 3.24 0 01-1.76 2.92 13 13 0 00-5.69 5.7 3.28 3.28 0 01-2.92 1.76h-9.75a3.28 3.28 0 01-2.92-1.76 13 13 0 00-5.69-5.7 3.26 3.26 0 01-1.76-2.92V60.4a3.26 3.26 0 011.76-2.92zM221.11 57.48a12.91 12.91 0 005.69-5.7 3.27 3.27 0 012.92-1.78h9.75a3.27 3.27 0 012.92 1.75 12.91 12.91 0 005.69 5.7 3.26 3.26 0 011.76 2.92v9.74a3.26 3.26 0 01-1.76 2.92 13 13 0 00-5.69 5.7 3.28 3.28 0 01-2.92 1.76h-9.75a3.28 3.28 0 01-2.92-1.76 13 13 0 00-5.69-5.7 3.24 3.24 0 01-1.76-2.92V60.4a3.24 3.24 0 011.76-2.92zM51.92 226.8a12.93 12.93 0 005.69-5.69 3.28 3.28 0 012.92-1.76h9.75a3.28 3.28 0 012.92 1.76 12.93 12.93 0 005.69 5.69 3.26 3.26 0 011.76 2.92v9.75a3.26 3.26 0 01-1.76 2.92 12.93 12.93 0 00-5.69 5.69 3.26 3.26 0 01-2.92 1.76h-9.75a3.26 3.26 0 01-2.92-1.76 12.93 12.93 0 00-5.69-5.69 3.28 3.28 0 01-1.76-2.92v-9.75a3.28 3.28 0 011.76-2.92zM221.11 226.8a12.93 12.93 0 005.69-5.69 3.28 3.28 0 012.92-1.76h9.75a3.28 3.28 0 012.92 1.76 12.93 12.93 0 005.69 5.69 3.28 3.28 0 011.76 2.92v9.75a3.28 3.28 0 01-1.76 2.92 12.93 12.93 0 00-5.69 5.69 3.26 3.26 0 01-2.92 1.76h-9.75a3.26 3.26 0 01-2.92-1.76 12.93 12.93 0 00-5.69-5.69 3.26 3.26 0 01-1.76-2.92v-9.75a3.26 3.26 0 011.76-2.92zM182 65.27a4.69 4.69 0 014.69-4.68h11.14a4.68 4.68 0 110 9.36h-11.1a4.68 4.68 0 01-4.73-4.68zM97.45 65.27a4.69 4.69 0 014.68-4.68h11.14a4.68 4.68 0 110 9.36h-11.14a4.68 4.68 0 01-4.68-4.68zM182 234.6a4.69 4.69 0 014.69-4.69h11.14a4.69 4.69 0 010 9.37h-11.1a4.69 4.69 0 01-4.73-4.68zM97.45 234.6a4.69 4.69 0 014.68-4.69h11.14a4.69 4.69 0 110 9.37h-11.14a4.69 4.69 0 01-4.68-4.68z"/></symbol><symbol id="index-icons--Docs" viewBox="0 0 300 300" xmlns="http://www.w3.org/2000/svg"><defs></defs><path  d="M66.78 254.25V45.75a6 6 0 016-6h121.03a4.36 4.36 0 013.08 1.28l34.51 34.55a6.21 6.21 0 011.82 4.4v174.27a6 6 0 01-5.95 6H72.74a6 6 0 01-5.96-6zM227.06 79.12l-33.25-33.28a1.57 1.57 0 00-1.11-.46h-120a.37.37 0 00-.38.37v208.5a.37.37 0 00.38.37h154.57a.37.37 0 00.37-.37V80.51a2 2 0 00-.58-1.39z"/><path  d="M195.72 195.52l-21.63-21.63a2.79 2.79 0 00-4 0 2.79 2.79 0 000 4l17.71 17.71-17.71 17.71a2.78 2.78 0 000 3.94 2.79 2.79 0 004 0l21.63-21.63zM104.28 195.57l21.63 21.63a2.79 2.79 0 004 0 2.78 2.78 0 000-3.94l-17.71-17.71 17.71-17.71a2.79 2.79 0 000-4 2.79 2.79 0 00-4 0l-21.63 21.63zM140.5 224a2.79 2.79 0 01-1.76-3.53L156 168.89a2.79 2.79 0 013.53-1.76 2.79 2.79 0 011.76 3.53L144 222.2a2.79 2.79 0 01-3.5 1.8z"/><rect  x="90.41" y="96.65" width="119.18" height="5.59" rx="2.79"/><rect  x="90.41" y="118.7" width="119.18" height="5.59" rx="2.79"/><rect  x="90.41" y="141.74" width="119.18" height="5.59" rx="2.79"/></symbol><symbol id="index-icons--Machine-Learning" viewBox="0 0 300 300" xmlns="http://www.w3.org/2000/svg"><defs></defs><path  d="M219.45 123.84a14.47 14.47 0 0010.3-4.26l22.79-22.79a10.85 10.85 0 10-4.9-4.9l-22.78 22.79a7.64 7.64 0 01-5.41 2.24H209v-7.65A18.3 18.3 0 00190.73 91h-7.65V60.33a10.87 10.87 0 10-6.92 0V91h-7.89V76a3.46 3.46 0 10-6.92 0v15h-22.7V76a3.46 3.46 0 10-6.92 0v15h-7.89V80.55a14.47 14.47 0 00-4.26-10.3l-22.8-22.8a10.87 10.87 0 10-4.89 4.9l22.79 22.79a7.64 7.64 0 012.24 5.41V91H91.57L91 116.92H60.33a10.87 10.87 0 100 6.92H91v7.89H76a3.46 3.46 0 100 6.92h15v22.7H76a3.46 3.46 0 100 6.92h15v7.89H80.55a14.51 14.51 0 00-10.31 4.26l-22.78 22.79a10.85 10.85 0 104.9 4.9l22.78-22.79a7.64 7.64 0 015.41-2.24H91v7.65A18.3 18.3 0 00109.27 209h7.65v30.67a10.87 10.87 0 106.92 0V209h7.89v15.05a3.46 3.46 0 106.92 0V209h22.7v15.05a3.46 3.46 0 106.92 0V209h7.89v10.45a14.47 14.47 0 004.26 10.3l22.8 22.8a10.86 10.86 0 104.89-4.9l-22.79-22.79a7.64 7.64 0 01-2.24-5.41V209H209v-25.93h30.67a10.87 10.87 0 100-6.92H209v-7.89h15.05a3.46 3.46 0 100-6.92H209v-22.7h15.05a3.46 3.46 0 100-6.92H209v-7.89zm35.14-39.57a3.92 3.92 0 11-1.16 2.79 3.87 3.87 0 011.16-2.79zM89.84 45.41a3.94 3.94 0 110-5.57 3.94 3.94 0 010 5.57zM50 124.32a3.94 3.94 0 114-3.94 3.95 3.95 0 01-4 3.94zm-4.62 91.41a3.92 3.92 0 111.16-2.79 3.88 3.88 0 01-1.13 2.79zm164.75 38.86a3.94 3.94 0 110 5.57 3.91 3.91 0 01.03-5.57zM175.68 50a3.94 3.94 0 113.94 4 3.95 3.95 0 01-3.94-4zm-51.36 200a3.94 3.94 0 11-3.94-3.94 3.95 3.95 0 013.94 3.94zm-15-47.9a11.35 11.35 0 01-11.34-11.34l.33-92.8h92.47a11.36 11.36 0 0111.34 11.34v92.8zM250 175.68a3.94 3.94 0 11-3.94 3.94 3.95 3.95 0 013.94-3.94z"/><path  d="M174 125a11.84 11.84 0 00.34-2.79c0-7-6.22-12.72-13.88-12.72a14.42 14.42 0 00-10.46 4.35 14.42 14.42 0 00-10.41-4.33c-7.66 0-13.88 5.71-13.88 12.72a11.84 11.84 0 00.34 2.79c-7.42 2-12.84 8.31-12.84 15.72a15.21 15.21 0 003.65 9.86 17.18 17.18 0 00-3.65 10.51 17.85 17.85 0 008.33 14.8c0 8 7.16 14.57 16 14.57A16.54 16.54 0 00150 185a16.54 16.54 0 0012.5 5.52c8.47 0 15.41-6.05 15.92-13.67a16.2 16.2 0 008.37-13.85 15.63 15.63 0 00-4.79-11.15 15.59 15.59 0 004.82-11.11c-.03-7.4-5.45-13.68-12.82-15.74zm.58 29.89c3.33 1.77 5.33 4.77 5.33 8.05a8.88 8.88 0 01-3.05 6.51 15.59 15.59 0 00-9.11-7.33 3.46 3.46 0 00-2.08 6.61c3.53 1.11 5.91 4 5.91 7.17 0 4.21-4.06 7.64-9 7.64s-9-3.43-9-7.64v-38.63a3.47 3.47 0 00-6.93 0v38.65c0 4.21-4.05 7.64-9 7.64s-9-3.43-9-7.64a7 7 0 012.16-4.95 3.46 3.46 0 00-4.89-4.91 15.08 15.08 0 00-2.14 2.68 10.57 10.57 0 01-3.46-7.63c0-5.13 4-9.64 9.79-11a3.46 3.46 0 10-1.54-6.75A21 21 0 00122 146a8.35 8.35 0 01-1.89-5.24c0-5.21 4.94-9.45 11-9.49h.09a3.46 3.46 0 003-5.27l-.08-.13v-.06l-.17-.22a5.17 5.17 0 01-1.26-3.32c0-3.19 3.11-5.79 7-5.79s6.94 2.6 6.94 5.79a3.47 3.47 0 006.93 0c0-3.19 3.12-5.79 6.95-5.79s7 2.6 7 5.79a4.84 4.84 0 01-.52 2.18 19.12 19.12 0 00-5.68 1.43 3.46 3.46 0 102.69 6.38 12.49 12.49 0 014.79-1h.19c6.09 0 11 4.28 11 9.49 0 3.28-2 6.29-5.33 8a3.46 3.46 0 000 6.12z"/></symbol><symbol id="index-icons--Memory-Centric" viewBox="0 0 300 300" xmlns="http://www.w3.org/2000/svg"><defs></defs><path  d="M234.5 120.32H216a5 5 0 110-10h18.5a5 5 0 010 10zM234.5 155H216a5 5 0 010-10h18.5a5 5 0 010 10zM234.5 189.68H216a5 5 0 110-10h18.5a5 5 0 010 10zM84 120.32H65.5a5 5 0 010-10H84a5 5 0 110 10zM84 155H65.5a5 5 0 010-10H84a5 5 0 110 10zM84 189.68H65.5a5 5 0 010-10H84a5 5 0 110 10zM115.32 89a5 5 0 01-5-5V65.5a5 5 0 0110 0V84a5 5 0 01-5 5zM150 89a5 5 0 01-5-5V65.5a5 5 0 0110 0V84a5 5 0 01-5 5zM184.68 89a5 5 0 01-5-5V65.5a5 5 0 0110 0V84a5 5 0 01-5 5zM115.32 239.5a5 5 0 01-5-5V216a5 5 0 1110 0v18.5a5 5 0 01-5 5zM150 239.5a5 5 0 01-5-5V216a5 5 0 0110 0v18.5a5 5 0 01-5 5zM184.68 239.5a5 5 0 01-5-5V216a5 5 0 1110 0v18.5a5 5 0 01-5 5zM130.09 181.72a31.87 31.87 0 00-11.81-11.81 11.52 11.52 0 01-5.75-10v-19.79a11.52 11.52 0 015.75-10 31.87 31.87 0 0011.81-11.81 11.52 11.52 0 0110-5.75h19.76a11.52 11.52 0 0110 5.75 31.87 31.87 0 0011.81 11.81 11.52 11.52 0 015.75 10v19.76a11.52 11.52 0 01-5.75 10 31.87 31.87 0 00-11.81 11.81 11.52 11.52 0 01-10 5.75h-19.73a11.52 11.52 0 01-10.03-5.72z"/></symbol><symbol id="index-icons--Multi-Model" viewBox="0 0 300 300" xmlns="http://www.w3.org/2000/svg"><defs></defs><path  d="M238 140.89a27.15 27.15 0 00-45.86 13.92h-63.45a1.7 1.7 0 00-1.2 2.9 1.67 1.67 0 001.2.5H139v17.52a1.7 1.7 0 003.4 0v-17.52h8.6v12.72a1.7 1.7 0 003.4 0v-12.72h8.6v17.52a1.69 1.69 0 001.7 1.7 1.7 1.7 0 001.69-1.7v-17.52h25.31a27.17 27.17 0 1046.3-17.32zm-36 36a23.78 23.78 0 1133.63 0 23.79 23.79 0 01-33.63.04z"/><path  d="M218.78 188.78a28.58 28.58 0 01-28.64-29.07h-22.22v16a3.2 3.2 0 11-6.39 0v-16h-5.62v11.22a3.2 3.2 0 01-6.4 0v-11.22h-5.61v16a3.21 3.21 0 01-3.2 3.2 3.21 3.21 0 01-3.2-3.2v-16h-8.81a3.21 3.21 0 01-3.2-3.2 3.2 3.2 0 013.2-3.2h62.24a28.68 28.68 0 0148.13-13.48 28.67 28.67 0 01-20.28 48.95zm-53.86-32.07h28.39l-.11 1.6A25.67 25.67 0 10236.94 142a25.66 25.66 0 00-43.33 13.15l-.24 1.21h-64.68a.2.2 0 00-.2.2.23.23 0 000 .14.21.21 0 00.15.06h11.86v19a.18.18 0 00.06.14c.07.07.34 0 .34-.14v-19h11.61v14.22a.26.26 0 00.06.14c.07.07.34 0 .34-.14v-14.27h11.62v19a.17.17 0 00.06.14c.06.07.33 0 .33-.14zm53.86 28.68a25.28 25.28 0 1117.88-7.4 25.12 25.12 0 01-17.88 7.4zm0-47.55a22.28 22.28 0 1015.76 6.52 22.18 22.18 0 00-15.76-6.52zM82.79 128.64a2.87 2.87 0 01-2.87-2.87v-5.19a2.87 2.87 0 115.74 0v5.19a2.87 2.87 0 01-2.87 2.87zM104.23 128.64a2.88 2.88 0 01-2.87-2.87v-5.19a2.88 2.88 0 015.75 0v5.19a2.88 2.88 0 01-2.88 2.87zM93.51 115.69a2.88 2.88 0 01-2.87-2.88v-5.18a2.88 2.88 0 015.75 0v5.18a2.88 2.88 0 01-2.88 2.88zM82.79 102.73a2.86 2.86 0 01-2.87-2.87v-5.18a2.87 2.87 0 115.74 0v5.18a2.86 2.86 0 01-2.87 2.87zM104.23 102.73a2.87 2.87 0 01-2.87-2.87v-5.18a2.88 2.88 0 115.75 0v5.18a2.87 2.87 0 01-2.88 2.87z"/><path  d="M128.84 244.24H63.72a11.18 11.18 0 01-11.17-11.17V66.93a11.18 11.18 0 0111.17-11.17h65.12v56.81h-5.74V61.5H63.72a5.44 5.44 0 00-5.43 5.43v166.14a5.44 5.44 0 005.43 5.43h59.38v-35.9h5.74z"/><path  d="M104.33 215.42H82.69a2.88 2.88 0 010-5.75h21.64a2.88 2.88 0 010 5.75zM104.33 201.25H82.69a2.88 2.88 0 010-5.75h21.64a2.88 2.88 0 010 5.75zM104.33 187.08H82.69a2.88 2.88 0 010-5.75h21.64a2.88 2.88 0 010 5.75z"/></symbol><symbol id="index-icons--Streaming-Analytics" viewBox="0 0 300 300" xmlns="http://www.w3.org/2000/svg"><defs></defs><path  d="M150.43 154.33h-11.39a4.79 4.79 0 010-9.58h11.4a4.79 4.79 0 010 9.58zM121.86 177.82h-11.39a4.79 4.79 0 010-9.58h11.39a4.79 4.79 0 010 9.58zM122 130.65h-11.39a4.79 4.79 0 110-9.57H122a4.79 4.79 0 010 9.57zM74.91 95.91h5.59v108.18h-5.59zM219.19 95.91h5.59v108.18h-5.59z"/><path  d="M247.49 220.46h-195a16.74 16.74 0 01-16.72-16.71V96.25a16.74 16.74 0 0116.74-16.71h195a16.74 16.74 0 0116.72 16.71v107.5a16.74 16.74 0 01-16.74 16.71zM52.51 85.12a11.15 11.15 0 00-11.13 11.13v107.5a11.15 11.15 0 0011.13 11.13h195a11.15 11.15 0 0011.13-11.13V96.25a11.15 11.15 0 00-11.13-11.13z"/><path  d="M57.94 121.25A10.25 10.25 0 1168.19 111a10.26 10.26 0 01-10.25 10.25zm0-14.91A4.66 4.66 0 1062.6 111a4.66 4.66 0 00-4.66-4.66zM58.38 160.37a2.8 2.8 0 01-2.79-2.8v-26.82a2.79 2.79 0 115.58 0v26.82a2.8 2.8 0 01-2.79 2.8zM58.21 200a2.8 2.8 0 01-2.8-2.79v-26.8a2.8 2.8 0 115.59 0v26.82a2.79 2.79 0 01-2.79 2.77zM242.29 199.62a10.25 10.25 0 1110.25-10.24 10.25 10.25 0 01-10.25 10.24zm0-14.9a4.66 4.66 0 104.66 4.66 4.66 4.66 0 00-4.66-4.66zM241.86 172.42a2.79 2.79 0 01-2.8-2.79v-26.82a2.8 2.8 0 115.59 0v26.82a2.79 2.79 0 01-2.79 2.79zM242 132.77a2.81 2.81 0 01-2.8-2.8v-26.82a2.8 2.8 0 115.59 0V130a2.8 2.8 0 01-2.79 2.77zM170.18 183.79a3 3 0 01-2.09-5l29.39-29.39-29.39-29.4a3 3 0 114.18-4.17l33.56 33.56-33.56 33.56a2.94 2.94 0 01-2.09.84z"/></symbol></svg>