<svg width="397" height="448" viewBox="0 0 397 448" fill="none" xmlns="http://www.w3.org/2000/svg">
<path d="M149 61L67 61C60.9249 61 56 65.9249 56 72L56 178" stroke="#2D2D2D" stroke-width="2"/>
<path d="M81.7071 329.707C82.0976 329.317 82.0976 328.683 81.7071 328.293L75.3431 321.929C74.9526 321.538 74.3195 321.538 73.9289 321.929C73.5384 322.319 73.5384 322.953 73.9289 323.343L79.5858 329L73.9289 334.657C73.5384 335.047 73.5384 335.681 73.9289 336.071C74.3195 336.462 74.9526 336.462 75.3431 336.071L81.7071 329.707ZM55 203V319H57V203H55ZM66 330H81V328H66V330ZM55 319C55 325.075 59.9249 330 66 330V328C61.0294 328 57 323.971 57 319H55Z" fill="black"/>
<path d="M211.115 65.4377L255 77.1102L255 13.6725L211.115 1.99997L168 15.4882L168 78.6625L211.115 65.4377Z" fill="white" stroke="#2D2D2D" stroke-width="2"/>
<path d="M211.885 27.6435L168 15.971L168 93.3275L211.885 105L255 91.5118L255 14.4187L211.885 27.6435Z" fill="white" stroke="#2D2D2D" stroke-width="2"/>
<path d="M211.243 27.5184L211.243 103.706" stroke="#2D2D2D" stroke-width="2"/>
<path d="M162.971 129L168.469 114.684H170.51L176.369 129H174.211L172.541 124.664H166.555L164.982 129H162.971ZM167.102 123.121H171.955L170.461 119.156C170.005 117.952 169.667 116.962 169.445 116.188C169.263 117.105 169.006 118.017 168.674 118.922L167.102 123.121ZM177.858 132.975V118.629H179.46V119.977C179.837 119.449 180.264 119.055 180.739 118.795C181.214 118.528 181.79 118.395 182.468 118.395C183.353 118.395 184.134 118.622 184.811 119.078C185.488 119.534 185.999 120.178 186.345 121.012C186.69 121.839 186.862 122.747 186.862 123.736C186.862 124.798 186.67 125.755 186.286 126.607C185.908 127.454 185.355 128.105 184.626 128.561C183.903 129.01 183.141 129.234 182.341 129.234C181.755 129.234 181.227 129.111 180.759 128.863C180.296 128.616 179.915 128.303 179.616 127.926V132.975H177.858ZM179.45 123.873C179.45 125.208 179.72 126.194 180.261 126.832C180.801 127.47 181.455 127.789 182.223 127.789C183.005 127.789 183.672 127.46 184.225 126.803C184.785 126.139 185.065 125.113 185.065 123.727C185.065 122.405 184.792 121.415 184.245 120.758C183.705 120.1 183.057 119.771 182.302 119.771C181.553 119.771 180.889 120.123 180.309 120.826C179.736 121.523 179.45 122.538 179.45 123.873ZM189.191 132.975V118.629H190.793V119.977C191.17 119.449 191.597 119.055 192.072 118.795C192.547 118.528 193.123 118.395 193.8 118.395C194.686 118.395 195.467 118.622 196.144 119.078C196.821 119.534 197.332 120.178 197.677 121.012C198.022 121.839 198.195 122.747 198.195 123.736C198.195 124.798 198.003 125.755 197.619 126.607C197.241 127.454 196.688 128.105 195.959 128.561C195.236 129.01 194.474 129.234 193.673 129.234C193.087 129.234 192.56 129.111 192.091 128.863C191.629 128.616 191.248 128.303 190.949 127.926V132.975H189.191ZM190.783 123.873C190.783 125.208 191.053 126.194 191.593 126.832C192.134 127.47 192.788 127.789 193.556 127.789C194.337 127.789 195.005 127.46 195.558 126.803C196.118 126.139 196.398 125.113 196.398 123.727C196.398 122.405 196.125 121.415 195.578 120.758C195.037 120.1 194.39 119.771 193.634 119.771C192.886 119.771 192.222 120.123 191.642 120.826C191.069 121.523 190.783 122.538 190.783 123.873ZM200.485 129V114.684H202.243V129H200.485ZM205.187 116.705V114.684H206.945V116.705H205.187ZM205.187 129V118.629H206.945V129H205.187ZM216.598 125.201L218.326 125.426C218.137 126.617 217.652 127.551 216.871 128.229C216.096 128.899 215.143 129.234 214.01 129.234C212.59 129.234 211.448 128.772 210.582 127.848C209.723 126.917 209.293 125.585 209.293 123.854C209.293 122.734 209.479 121.754 209.85 120.914C210.221 120.074 210.784 119.446 211.539 119.029C212.301 118.606 213.128 118.395 214.02 118.395C215.146 118.395 216.067 118.681 216.783 119.254C217.499 119.82 217.958 120.628 218.16 121.676L216.451 121.939C216.288 121.243 215.999 120.719 215.582 120.367C215.172 120.016 214.674 119.84 214.088 119.84C213.202 119.84 212.483 120.159 211.93 120.797C211.376 121.428 211.1 122.431 211.1 123.805C211.1 125.198 211.367 126.21 211.9 126.842C212.434 127.473 213.131 127.789 213.99 127.789C214.68 127.789 215.257 127.577 215.719 127.154C216.181 126.731 216.474 126.08 216.598 125.201ZM226.798 127.721C226.147 128.274 225.518 128.665 224.913 128.893C224.314 129.12 223.669 129.234 222.979 129.234C221.84 129.234 220.964 128.958 220.352 128.404C219.74 127.844 219.434 127.132 219.434 126.266C219.434 125.758 219.548 125.296 219.776 124.879C220.011 124.456 220.313 124.117 220.684 123.863C221.062 123.609 221.485 123.417 221.954 123.287C222.299 123.196 222.82 123.108 223.516 123.023C224.936 122.854 225.981 122.652 226.651 122.418C226.658 122.177 226.661 122.024 226.661 121.959C226.661 121.243 226.495 120.738 226.163 120.445C225.714 120.048 225.046 119.85 224.161 119.85C223.334 119.85 222.722 119.996 222.325 120.289C221.934 120.576 221.645 121.087 221.456 121.822L219.737 121.588C219.893 120.852 220.151 120.26 220.509 119.811C220.867 119.355 221.384 119.007 222.061 118.766C222.738 118.518 223.523 118.395 224.415 118.395C225.3 118.395 226.02 118.499 226.573 118.707C227.126 118.915 227.533 119.179 227.794 119.498C228.054 119.811 228.236 120.208 228.341 120.689C228.399 120.989 228.429 121.529 228.429 122.311V124.654C228.429 126.288 228.464 127.324 228.536 127.76C228.614 128.189 228.764 128.603 228.985 129H227.149C226.967 128.635 226.85 128.209 226.798 127.721ZM226.651 123.795C226.013 124.055 225.056 124.277 223.78 124.459C223.057 124.563 222.546 124.68 222.247 124.811C221.947 124.941 221.716 125.133 221.554 125.387C221.391 125.634 221.309 125.911 221.309 126.217C221.309 126.686 221.485 127.076 221.837 127.389C222.195 127.701 222.716 127.857 223.399 127.857C224.076 127.857 224.679 127.711 225.206 127.418C225.733 127.118 226.121 126.712 226.368 126.197C226.557 125.8 226.651 125.214 226.651 124.439V123.795ZM235.201 127.428L235.455 128.98C234.96 129.085 234.517 129.137 234.127 129.137C233.489 129.137 232.994 129.036 232.642 128.834C232.291 128.632 232.043 128.368 231.9 128.043C231.757 127.711 231.685 127.018 231.685 125.963V119.996H230.396V118.629H231.685V116.061L233.433 115.006V118.629H235.201V119.996H233.433V126.061C233.433 126.562 233.463 126.884 233.521 127.027C233.586 127.171 233.687 127.285 233.824 127.369C233.967 127.454 234.169 127.496 234.429 127.496C234.625 127.496 234.882 127.473 235.201 127.428ZM237.139 116.705V114.684H238.897V116.705H237.139ZM237.139 129V118.629H238.897V129H237.139ZM241.128 123.814C241.128 121.894 241.662 120.471 242.73 119.547C243.622 118.779 244.709 118.395 245.991 118.395C247.417 118.395 248.583 118.863 249.488 119.801C250.392 120.732 250.845 122.021 250.845 123.668C250.845 125.003 250.643 126.054 250.239 126.822C249.842 127.584 249.26 128.176 248.491 128.6C247.73 129.023 246.896 129.234 245.991 129.234C244.54 129.234 243.364 128.769 242.466 127.838C241.574 126.907 241.128 125.566 241.128 123.814ZM242.935 123.814C242.935 125.143 243.224 126.139 243.804 126.803C244.383 127.46 245.113 127.789 245.991 127.789C246.864 127.789 247.59 127.457 248.169 126.793C248.749 126.129 249.038 125.117 249.038 123.756C249.038 122.473 248.745 121.503 248.159 120.846C247.58 120.182 246.857 119.85 245.991 119.85C245.113 119.85 244.383 120.178 243.804 120.836C243.224 121.493 242.935 122.486 242.935 123.814ZM253.115 129V118.629H254.697V120.104C255.459 118.964 256.559 118.395 257.998 118.395C258.623 118.395 259.196 118.508 259.717 118.736C260.244 118.958 260.638 119.251 260.898 119.615C261.159 119.98 261.341 120.413 261.445 120.914C261.51 121.24 261.543 121.809 261.543 122.623V129H259.785V122.691C259.785 121.975 259.717 121.441 259.58 121.09C259.443 120.732 259.199 120.449 258.848 120.24C258.503 120.025 258.096 119.918 257.627 119.918C256.878 119.918 256.23 120.156 255.684 120.631C255.143 121.106 254.873 122.008 254.873 123.336V129H253.115Z" fill="#2D2D2D"/>
<path d="M4.14844 196V185.898H0.375V184.547H9.45312V185.898H5.66406V196H4.14844ZM10.4266 196V187.703H11.6922V188.961C12.0151 188.372 12.312 187.984 12.5828 187.797C12.8589 187.609 13.1609 187.516 13.4891 187.516C13.963 187.516 14.4448 187.667 14.9344 187.969L14.45 189.273C14.1062 189.07 13.7625 188.969 13.4187 188.969C13.1115 188.969 12.8354 189.062 12.5906 189.25C12.3458 189.432 12.1714 189.688 12.0672 190.016C11.9109 190.516 11.8328 191.062 11.8328 191.656V196H10.4266ZM21.3844 194.977C20.8635 195.419 20.3609 195.732 19.8766 195.914C19.3974 196.096 18.8818 196.188 18.3297 196.188C17.4182 196.188 16.7177 195.966 16.2281 195.523C15.7385 195.076 15.4937 194.505 15.4937 193.812C15.4937 193.406 15.5849 193.036 15.7672 192.703C15.9547 192.365 16.1969 192.094 16.4937 191.891C16.7958 191.688 17.1344 191.534 17.5094 191.43C17.7854 191.357 18.2021 191.286 18.7594 191.219C19.8948 191.083 20.7307 190.922 21.2672 190.734C21.2724 190.542 21.275 190.419 21.275 190.367C21.275 189.794 21.1422 189.391 20.8766 189.156C20.5172 188.839 19.9833 188.68 19.275 188.68C18.6135 188.68 18.124 188.797 17.8062 189.031C17.4937 189.26 17.262 189.669 17.1109 190.258L15.7359 190.07C15.8609 189.482 16.0667 189.008 16.3531 188.648C16.6396 188.284 17.0536 188.005 17.5953 187.812C18.137 187.615 18.7646 187.516 19.4781 187.516C20.1865 187.516 20.762 187.599 21.2047 187.766C21.6474 187.932 21.9729 188.143 22.1812 188.398C22.3896 188.648 22.5354 188.966 22.6187 189.352C22.6656 189.591 22.6891 190.023 22.6891 190.648V192.523C22.6891 193.831 22.7177 194.659 22.775 195.008C22.8375 195.352 22.9573 195.682 23.1344 196H21.6656C21.5198 195.708 21.426 195.367 21.3844 194.977ZM21.2672 191.836C20.7568 192.044 19.9911 192.221 18.9703 192.367C18.3922 192.451 17.9833 192.544 17.7437 192.648C17.5042 192.753 17.3193 192.906 17.1891 193.109C17.0589 193.307 16.9937 193.529 16.9937 193.773C16.9937 194.148 17.1344 194.461 17.4156 194.711C17.7021 194.961 18.1187 195.086 18.6656 195.086C19.2073 195.086 19.6891 194.969 20.1109 194.734C20.5328 194.495 20.8427 194.169 21.0406 193.758C21.1917 193.44 21.2672 192.971 21.2672 192.352V191.836ZM25.0844 186.164V184.547H26.4906V186.164H25.0844ZM25.0844 196V187.703H26.4906V196H25.0844ZM28.8391 196V187.703H30.1047V188.883C30.7141 187.971 31.5943 187.516 32.7453 187.516C33.2453 187.516 33.7036 187.607 34.1203 187.789C34.5422 187.966 34.8573 188.201 35.0656 188.492C35.274 188.784 35.4198 189.13 35.5031 189.531C35.5552 189.792 35.5812 190.247 35.5812 190.898V196H34.175V190.953C34.175 190.38 34.1203 189.953 34.0109 189.672C33.9016 189.385 33.7062 189.159 33.425 188.992C33.149 188.82 32.8234 188.734 32.4484 188.734C31.8495 188.734 31.3312 188.924 30.8937 189.305C30.4615 189.685 30.2453 190.406 30.2453 191.469V196H28.8391ZM49.1453 194.648C48.6818 195.164 48.1766 195.552 47.6297 195.812C47.0828 196.068 46.4917 196.195 45.8563 196.195C44.6844 196.195 43.7547 195.799 43.0672 195.008C42.5099 194.362 42.2313 193.641 42.2313 192.844C42.2313 192.135 42.4578 191.497 42.9109 190.93C43.3693 190.357 44.0516 189.854 44.9578 189.422C44.4422 188.828 44.0984 188.346 43.9266 187.977C43.7547 187.607 43.6688 187.25 43.6688 186.906C43.6688 186.219 43.937 185.622 44.4734 185.117C45.0151 184.607 45.6948 184.352 46.5125 184.352C47.2938 184.352 47.9318 184.591 48.4266 185.07C48.9266 185.549 49.1766 186.125 49.1766 186.797C49.1766 187.885 48.4552 188.815 47.0125 189.586L49.0672 192.203C49.3016 191.745 49.4839 191.214 49.6141 190.609L51.075 190.922C50.825 191.922 50.4865 192.745 50.0594 193.391C50.5854 194.089 51.1818 194.674 51.8484 195.148L50.9031 196.266C50.3354 195.901 49.7495 195.362 49.1453 194.648ZM46.2859 188.68C46.8953 188.32 47.2885 188.005 47.4656 187.734C47.6479 187.464 47.7391 187.164 47.7391 186.836C47.7391 186.445 47.6141 186.128 47.3641 185.883C47.1193 185.633 46.812 185.508 46.4422 185.508C46.062 185.508 45.7443 185.63 45.4891 185.875C45.2391 186.12 45.1141 186.419 45.1141 186.773C45.1141 186.951 45.1583 187.138 45.2469 187.336C45.3406 187.529 45.4786 187.734 45.6609 187.953L46.2859 188.68ZM48.2625 193.539L45.6844 190.344C44.924 190.797 44.4109 191.219 44.1453 191.609C43.8797 191.995 43.7469 192.378 43.7469 192.758C43.7469 193.221 43.9318 193.703 44.3016 194.203C44.6714 194.703 45.1948 194.953 45.8719 194.953C46.2938 194.953 46.7286 194.823 47.1766 194.562C47.6297 194.297 47.9917 193.956 48.2625 193.539ZM63.5609 196V194.781C62.9151 195.719 62.0375 196.188 60.9281 196.188C60.4385 196.188 59.9802 196.094 59.5531 195.906C59.1312 195.719 58.8161 195.484 58.6078 195.203C58.4047 194.917 58.2615 194.568 58.1781 194.156C58.1208 193.88 58.0922 193.443 58.0922 192.844V187.703H59.4984V192.305C59.4984 193.039 59.5271 193.534 59.5844 193.789C59.6729 194.159 59.8604 194.451 60.1469 194.664C60.4333 194.872 60.7875 194.977 61.2094 194.977C61.6312 194.977 62.0271 194.87 62.3969 194.656C62.7667 194.438 63.0271 194.143 63.1781 193.773C63.3344 193.398 63.4125 192.857 63.4125 192.148V187.703H64.8187V196H63.5609ZM67.2297 199.18V187.703H68.5109V188.781C68.813 188.359 69.1542 188.044 69.5344 187.836C69.9146 187.622 70.3755 187.516 70.9172 187.516C71.6255 187.516 72.2505 187.698 72.7922 188.062C73.3339 188.427 73.7427 188.943 74.0188 189.609C74.2948 190.271 74.4328 190.997 74.4328 191.789C74.4328 192.638 74.2792 193.404 73.9719 194.086C73.6698 194.763 73.2271 195.284 72.6438 195.648C72.0656 196.008 71.4563 196.188 70.8156 196.188C70.3469 196.188 69.925 196.089 69.55 195.891C69.1802 195.693 68.8755 195.443 68.6359 195.141V199.18H67.2297ZM68.5031 191.898C68.5031 192.966 68.7193 193.755 69.1516 194.266C69.5839 194.776 70.1073 195.031 70.7219 195.031C71.3469 195.031 71.8807 194.768 72.3234 194.242C72.7714 193.711 72.9953 192.891 72.9953 191.781C72.9953 190.724 72.7766 189.932 72.3391 189.406C71.9068 188.88 71.3885 188.617 70.7844 188.617C70.1854 188.617 69.6542 188.898 69.1906 189.461C68.7323 190.018 68.5031 190.831 68.5031 191.898ZM81.7188 196V194.953C81.1927 195.776 80.4193 196.188 79.3984 196.188C78.737 196.188 78.1276 196.005 77.5703 195.641C77.0182 195.276 76.5885 194.768 76.2812 194.117C75.9792 193.461 75.8281 192.708 75.8281 191.859C75.8281 191.031 75.9661 190.281 76.2422 189.609C76.5182 188.932 76.9323 188.414 77.4844 188.055C78.0365 187.695 78.6536 187.516 79.3359 187.516C79.8359 187.516 80.2812 187.622 80.6719 187.836C81.0625 188.044 81.3802 188.318 81.625 188.656V184.547H83.0234V196H81.7188ZM77.2734 191.859C77.2734 192.922 77.4974 193.716 77.9453 194.242C78.3932 194.768 78.9219 195.031 79.5312 195.031C80.1458 195.031 80.6667 194.781 81.0938 194.281C81.526 193.776 81.7422 193.008 81.7422 191.977C81.7422 190.841 81.5234 190.008 81.0859 189.477C80.6484 188.945 80.1094 188.68 79.4688 188.68C78.8438 188.68 78.3203 188.935 77.8984 189.445C77.4818 189.956 77.2734 190.76 77.2734 191.859ZM90.8562 194.977C90.3354 195.419 89.8328 195.732 89.3484 195.914C88.8693 196.096 88.3536 196.188 87.8016 196.188C86.8901 196.188 86.1896 195.966 85.7 195.523C85.2104 195.076 84.9656 194.505 84.9656 193.812C84.9656 193.406 85.0568 193.036 85.2391 192.703C85.4266 192.365 85.6687 192.094 85.9656 191.891C86.2677 191.688 86.6062 191.534 86.9812 191.43C87.2573 191.357 87.674 191.286 88.2312 191.219C89.3667 191.083 90.2026 190.922 90.7391 190.734C90.7443 190.542 90.7469 190.419 90.7469 190.367C90.7469 189.794 90.6141 189.391 90.3484 189.156C89.9891 188.839 89.4552 188.68 88.7469 188.68C88.0854 188.68 87.5958 188.797 87.2781 189.031C86.9656 189.26 86.7339 189.669 86.5828 190.258L85.2078 190.07C85.3328 189.482 85.5385 189.008 85.825 188.648C86.1115 188.284 86.5255 188.005 87.0672 187.812C87.6089 187.615 88.2365 187.516 88.95 187.516C89.6583 187.516 90.2339 187.599 90.6766 187.766C91.1193 187.932 91.4448 188.143 91.6531 188.398C91.8615 188.648 92.0073 188.966 92.0906 189.352C92.1375 189.591 92.1609 190.023 92.1609 190.648V192.523C92.1609 193.831 92.1896 194.659 92.2469 195.008C92.3094 195.352 92.4292 195.682 92.6062 196H91.1375C90.9917 195.708 90.8979 195.367 90.8562 194.977ZM90.7391 191.836C90.2286 192.044 89.463 192.221 88.4422 192.367C87.8641 192.451 87.4552 192.544 87.2156 192.648C86.976 192.753 86.7911 192.906 86.6609 193.109C86.5307 193.307 86.4656 193.529 86.4656 193.773C86.4656 194.148 86.6062 194.461 86.8875 194.711C87.174 194.961 87.5906 195.086 88.1375 195.086C88.6792 195.086 89.1609 194.969 89.5828 194.734C90.0047 194.495 90.3146 194.169 90.5125 193.758C90.6635 193.44 90.7391 192.971 90.7391 192.352V191.836ZM97.6188 194.742L97.8219 195.984C97.426 196.068 97.0719 196.109 96.7594 196.109C96.249 196.109 95.8531 196.029 95.5719 195.867C95.2906 195.706 95.0927 195.495 94.9781 195.234C94.8635 194.969 94.8063 194.414 94.8063 193.57V188.797H93.775V187.703H94.8063V185.648L96.2047 184.805V187.703H97.6188V188.797H96.2047V193.648C96.2047 194.049 96.2281 194.307 96.275 194.422C96.3271 194.536 96.4078 194.628 96.5172 194.695C96.6318 194.763 96.7932 194.797 97.0016 194.797C97.1578 194.797 97.3635 194.779 97.6188 194.742ZM104.881 193.328L106.334 193.508C106.105 194.357 105.681 195.016 105.061 195.484C104.441 195.953 103.649 196.188 102.686 196.188C101.472 196.188 100.509 195.815 99.7953 195.07C99.087 194.32 98.7328 193.271 98.7328 191.922C98.7328 190.526 99.0922 189.443 99.8109 188.672C100.53 187.901 101.462 187.516 102.608 187.516C103.717 187.516 104.623 187.893 105.327 188.648C106.03 189.404 106.381 190.466 106.381 191.836C106.381 191.919 106.379 192.044 106.373 192.211H100.186C100.238 193.122 100.496 193.82 100.959 194.305C101.423 194.789 102.001 195.031 102.694 195.031C103.209 195.031 103.649 194.896 104.014 194.625C104.379 194.354 104.668 193.922 104.881 193.328ZM100.264 191.055H104.897C104.834 190.357 104.657 189.833 104.366 189.484C103.918 188.943 103.337 188.672 102.623 188.672C101.978 188.672 101.433 188.888 100.991 189.32C100.553 189.753 100.311 190.331 100.264 191.055Z" fill="#6E6E6E"/>
<path d="M273 61L355 61C361.075 61 366 65.9249 366 72L366 178" stroke="#2D2D2D" stroke-width="2"/>
<path d="M335.293 329.707C334.902 329.317 334.902 328.683 335.293 328.293L341.657 321.929C342.047 321.538 342.681 321.538 343.071 321.929C343.462 322.319 343.462 322.953 343.071 323.343L337.414 329L343.071 334.657C343.462 335.047 343.462 335.681 343.071 336.071C342.681 336.462 342.047 336.462 341.657 336.071L335.293 329.707ZM367 203V319H365V203H367ZM356 330H336V328H356V330ZM367 319C367 325.075 362.075 330 356 330V328C360.971 328 365 323.971 365 319H367Z" fill="black"/>
<path d="M332.266 196V184.547H340.547V185.898H333.781V189.406H340.117V190.75H333.781V194.648H340.812V196H332.266ZM345.231 196L342.075 187.703H343.559L345.341 192.672C345.533 193.208 345.71 193.766 345.872 194.344C345.997 193.906 346.171 193.38 346.395 192.766L348.239 187.703H349.684L346.544 196H345.231ZM356.541 194.977C356.02 195.419 355.517 195.732 355.033 195.914C354.554 196.096 354.038 196.188 353.486 196.188C352.574 196.188 351.874 195.966 351.384 195.523C350.895 195.076 350.65 194.505 350.65 193.812C350.65 193.406 350.741 193.036 350.923 192.703C351.111 192.365 351.353 192.094 351.65 191.891C351.952 191.688 352.291 191.534 352.666 191.43C352.942 191.357 353.358 191.286 353.916 191.219C355.051 191.083 355.887 190.922 356.423 190.734C356.429 190.542 356.431 190.419 356.431 190.367C356.431 189.794 356.298 189.391 356.033 189.156C355.673 188.839 355.14 188.68 354.431 188.68C353.77 188.68 353.28 188.797 352.962 189.031C352.65 189.26 352.418 189.669 352.267 190.258L350.892 190.07C351.017 189.482 351.223 189.008 351.509 188.648C351.796 188.284 352.21 188.005 352.752 187.812C353.293 187.615 353.921 187.516 354.634 187.516C355.343 187.516 355.918 187.599 356.361 187.766C356.804 187.932 357.129 188.143 357.337 188.398C357.546 188.648 357.692 188.966 357.775 189.352C357.822 189.591 357.845 190.023 357.845 190.648V192.523C357.845 193.831 357.874 194.659 357.931 195.008C357.994 195.352 358.114 195.682 358.291 196H356.822C356.676 195.708 356.582 195.367 356.541 194.977ZM356.423 191.836C355.913 192.044 355.147 192.221 354.127 192.367C353.548 192.451 353.14 192.544 352.9 192.648C352.66 192.753 352.476 192.906 352.345 193.109C352.215 193.307 352.15 193.529 352.15 193.773C352.15 194.148 352.291 194.461 352.572 194.711C352.858 194.961 353.275 195.086 353.822 195.086C354.364 195.086 354.845 194.969 355.267 194.734C355.689 194.495 355.999 194.169 356.197 193.758C356.348 193.44 356.423 192.971 356.423 192.352V191.836ZM360.202 196V184.547H361.608V196H360.202ZM369.433 196V194.781C368.787 195.719 367.909 196.188 366.8 196.188C366.31 196.188 365.852 196.094 365.425 195.906C365.003 195.719 364.688 195.484 364.48 195.203C364.277 194.917 364.133 194.568 364.05 194.156C363.993 193.88 363.964 193.443 363.964 192.844V187.703H365.37V192.305C365.37 193.039 365.399 193.534 365.456 193.789C365.545 194.159 365.732 194.451 366.019 194.664C366.305 194.872 366.659 194.977 367.081 194.977C367.503 194.977 367.899 194.87 368.269 194.656C368.639 194.438 368.899 194.143 369.05 193.773C369.206 193.398 369.284 192.857 369.284 192.148V187.703H370.691V196H369.433ZM378.516 194.977C377.995 195.419 377.492 195.732 377.008 195.914C376.529 196.096 376.013 196.188 375.461 196.188C374.549 196.188 373.849 195.966 373.359 195.523C372.87 195.076 372.625 194.505 372.625 193.812C372.625 193.406 372.716 193.036 372.898 192.703C373.086 192.365 373.328 192.094 373.625 191.891C373.927 191.688 374.266 191.534 374.641 191.43C374.917 191.357 375.333 191.286 375.891 191.219C377.026 191.083 377.862 190.922 378.398 190.734C378.404 190.542 378.406 190.419 378.406 190.367C378.406 189.794 378.273 189.391 378.008 189.156C377.648 188.839 377.115 188.68 376.406 188.68C375.745 188.68 375.255 188.797 374.938 189.031C374.625 189.26 374.393 189.669 374.242 190.258L372.867 190.07C372.992 189.482 373.198 189.008 373.484 188.648C373.771 188.284 374.185 188.005 374.727 187.812C375.268 187.615 375.896 187.516 376.609 187.516C377.318 187.516 377.893 187.599 378.336 187.766C378.779 187.932 379.104 188.143 379.312 188.398C379.521 188.648 379.667 188.966 379.75 189.352C379.797 189.591 379.82 190.023 379.82 190.648V192.523C379.82 193.831 379.849 194.659 379.906 195.008C379.969 195.352 380.089 195.682 380.266 196H378.797C378.651 195.708 378.557 195.367 378.516 194.977ZM378.398 191.836C377.888 192.044 377.122 192.221 376.102 192.367C375.523 192.451 375.115 192.544 374.875 192.648C374.635 192.753 374.451 192.906 374.32 193.109C374.19 193.307 374.125 193.529 374.125 193.773C374.125 194.148 374.266 194.461 374.547 194.711C374.833 194.961 375.25 195.086 375.797 195.086C376.339 195.086 376.82 194.969 377.242 194.734C377.664 194.495 377.974 194.169 378.172 193.758C378.323 193.44 378.398 192.971 378.398 192.352V191.836ZM385.278 194.742L385.481 195.984C385.085 196.068 384.731 196.109 384.419 196.109C383.908 196.109 383.513 196.029 383.231 195.867C382.95 195.706 382.752 195.495 382.638 195.234C382.523 194.969 382.466 194.414 382.466 193.57V188.797H381.434V187.703H382.466V185.648L383.864 184.805V187.703H385.278V188.797H383.864V193.648C383.864 194.049 383.888 194.307 383.934 194.422C383.986 194.536 384.067 194.628 384.177 194.695C384.291 194.763 384.453 194.797 384.661 194.797C384.817 194.797 385.023 194.779 385.278 194.742ZM392.541 193.328L393.994 193.508C393.765 194.357 393.34 195.016 392.72 195.484C392.101 195.953 391.309 196.188 390.345 196.188C389.132 196.188 388.168 195.815 387.455 195.07C386.746 194.32 386.392 193.271 386.392 191.922C386.392 190.526 386.752 189.443 387.47 188.672C388.189 187.901 389.121 187.516 390.267 187.516C391.377 187.516 392.283 187.893 392.986 188.648C393.689 189.404 394.041 190.466 394.041 191.836C394.041 191.919 394.038 192.044 394.033 192.211H387.845C387.897 193.122 388.155 193.82 388.619 194.305C389.082 194.789 389.66 195.031 390.353 195.031C390.869 195.031 391.309 194.896 391.673 194.625C392.038 194.354 392.327 193.922 392.541 193.328ZM387.923 191.055H392.556C392.494 190.357 392.317 189.833 392.025 189.484C391.577 188.943 390.996 188.672 390.283 188.672C389.637 188.672 389.093 188.888 388.65 189.32C388.213 189.753 387.97 190.331 387.923 191.055Z" fill="#6E6E6E"/>
<path d="M83.7819 327.767V267.32C83.7819 267.32 95.441 277.458 129.714 277.458C163.987 277.458 175.574 266.379 175.574 266.379V327.767C161.276 348.773 90.2899 342.496 83.7819 327.767Z" fill="#E0454C"/>
<path d="M82.7819 370.458V307.826C82.7819 307.826 94.6388 319.941 128.912 319.941C163.185 319.941 174.574 307.826 174.574 307.826L175.543 370.458C160.968 388.745 91.6526 385.316 82.7819 370.458Z" fill="#0070CC"/>
<path d="M175.652 263.504C175.652 265.118 174.627 266.831 172.352 268.544C170.094 270.244 166.757 271.818 162.53 273.157C154.088 275.833 142.32 277.504 129.152 277.504C115.983 277.504 104.215 275.833 95.7734 273.157C91.5466 271.818 88.2097 270.244 85.951 268.544C83.676 266.831 82.6516 265.118 82.6516 263.504C82.6516 261.89 83.676 260.177 85.951 258.464C88.2097 256.764 91.5466 255.19 95.7734 253.851C104.215 251.175 115.983 249.504 129.152 249.504C142.32 249.504 154.088 251.175 162.53 253.851C166.757 255.19 170.094 256.764 172.352 258.464C174.627 260.177 175.652 261.89 175.652 263.504Z" fill="#E0454C" stroke="#2D2D2D" stroke-width="2"/>
<path d="M82.6516 262.504L83.0022 369.767" stroke="#2D2D2D" stroke-width="2"/>
<path d="M175.652 262.504L175.652 370.504" stroke="#2D2D2D" stroke-width="2"/>
<path d="M175.74 368.947C175.74 376.903 154.98 383.353 129.371 383.353C103.762 383.353 83.0022 376.903 83.0022 368.947" stroke="#2D2D2D" stroke-width="2"/>
<path d="M175.74 304.947C175.74 312.903 154.98 319.353 129.371 319.353C103.762 319.353 83.0022 312.903 83.0022 304.947" stroke="#2D2D2D" stroke-width="2"/>
<path d="M94.8391 302.504V291.051H97.1204L99.8313 299.16C100.081 299.915 100.264 300.48 100.378 300.855C100.508 300.439 100.712 299.827 100.988 299.02L103.73 291.051H105.769V302.504H104.308V292.918L100.98 302.504H99.6125L96.3 292.754V302.504H94.8391ZM108.445 302.504V291.051H116.727V292.402H109.961V295.91H116.297V297.254H109.961V301.152H116.992V302.504H108.445ZM119.239 302.504V291.051H121.52L124.231 299.16C124.481 299.915 124.664 300.48 124.778 300.855C124.908 300.439 125.112 299.827 125.388 299.02L128.13 291.051H130.169V302.504H128.708V292.918L125.38 302.504H124.013L120.7 292.754V302.504H119.239ZM132.353 296.926C132.353 295.025 132.864 293.538 133.884 292.465C134.905 291.387 136.223 290.848 137.838 290.848C138.895 290.848 139.848 291.1 140.697 291.605C141.546 292.111 142.192 292.816 142.634 293.723C143.082 294.624 143.306 295.647 143.306 296.793C143.306 297.954 143.072 298.993 142.603 299.91C142.134 300.827 141.47 301.522 140.611 301.996C139.752 302.465 138.825 302.699 137.83 302.699C136.752 302.699 135.788 302.439 134.939 301.918C134.09 301.397 133.447 300.686 133.009 299.785C132.572 298.884 132.353 297.931 132.353 296.926ZM133.916 296.949C133.916 298.329 134.285 299.418 135.025 300.215C135.77 301.007 136.702 301.402 137.822 301.402C138.963 301.402 139.9 301.001 140.634 300.199C141.374 299.397 141.744 298.259 141.744 296.785C141.744 295.853 141.585 295.04 141.267 294.348C140.955 293.65 140.494 293.111 139.884 292.73C139.28 292.345 138.601 292.152 137.845 292.152C136.772 292.152 135.848 292.522 135.072 293.262C134.301 293.996 133.916 295.225 133.916 296.949ZM145.491 302.504V291.051H150.569C151.59 291.051 152.366 291.155 152.897 291.363C153.428 291.566 153.853 291.928 154.17 292.449C154.488 292.97 154.647 293.546 154.647 294.176C154.647 294.988 154.384 295.673 153.858 296.23C153.332 296.788 152.519 297.142 151.42 297.293C151.821 297.486 152.126 297.676 152.334 297.863C152.777 298.27 153.196 298.777 153.592 299.387L155.584 302.504H153.678L152.163 300.121C151.72 299.434 151.355 298.908 151.069 298.543C150.782 298.178 150.525 297.923 150.295 297.777C150.071 297.632 149.842 297.53 149.608 297.473C149.436 297.436 149.155 297.418 148.764 297.418H147.006V302.504H145.491ZM147.006 296.105H150.264C150.957 296.105 151.498 296.035 151.889 295.895C152.28 295.749 152.577 295.52 152.78 295.207C152.983 294.889 153.084 294.546 153.084 294.176C153.084 293.634 152.887 293.189 152.491 292.84C152.1 292.491 151.48 292.316 150.631 292.316H147.006V296.105ZM160.159 302.504V297.652L155.745 291.051H157.589L159.847 294.504C160.264 295.15 160.652 295.796 161.011 296.441C161.355 295.842 161.771 295.168 162.261 294.418L164.48 291.051H166.245L161.675 297.652V302.504H160.159Z" fill="white"/>
<path d="M110.886 365.504V354.051H114.831C115.722 354.051 116.402 354.105 116.87 354.215C117.527 354.366 118.087 354.639 118.55 355.035C119.154 355.546 119.605 356.199 119.902 356.996C120.204 357.788 120.355 358.694 120.355 359.715C120.355 360.585 120.253 361.355 120.05 362.027C119.847 362.699 119.587 363.257 119.269 363.699C118.951 364.137 118.602 364.483 118.222 364.738C117.847 364.988 117.391 365.178 116.855 365.309C116.323 365.439 115.712 365.504 115.019 365.504H110.886ZM112.402 364.152H114.847C115.602 364.152 116.193 364.082 116.62 363.941C117.053 363.801 117.396 363.603 117.652 363.348C118.011 362.988 118.29 362.507 118.488 361.902C118.691 361.293 118.792 360.556 118.792 359.691C118.792 358.493 118.594 357.574 118.198 356.934C117.808 356.288 117.331 355.855 116.769 355.637C116.363 355.48 115.709 355.402 114.808 355.402H112.402V364.152ZM122.906 365.504V354.051H124.422V365.504H122.906ZM126.786 361.824L128.216 361.699C128.283 362.272 128.44 362.743 128.684 363.113C128.934 363.478 129.32 363.775 129.841 364.004C130.362 364.228 130.947 364.34 131.598 364.34C132.177 364.34 132.687 364.254 133.13 364.082C133.572 363.91 133.901 363.676 134.114 363.379C134.333 363.077 134.442 362.749 134.442 362.395C134.442 362.035 134.338 361.723 134.13 361.457C133.921 361.186 133.578 360.96 133.098 360.777C132.791 360.658 132.112 360.473 131.059 360.223C130.007 359.967 129.27 359.728 128.848 359.504C128.302 359.217 127.893 358.863 127.622 358.441C127.356 358.014 127.223 357.538 127.223 357.012C127.223 356.434 127.388 355.895 127.716 355.395C128.044 354.889 128.523 354.507 129.153 354.246C129.783 353.986 130.484 353.855 131.255 353.855C132.104 353.855 132.851 353.993 133.497 354.27C134.148 354.54 134.648 354.941 134.997 355.473C135.346 356.004 135.533 356.605 135.559 357.277L134.106 357.387C134.028 356.663 133.763 356.116 133.309 355.746C132.862 355.376 132.197 355.191 131.317 355.191C130.401 355.191 129.731 355.361 129.309 355.699C128.893 356.033 128.684 356.436 128.684 356.91C128.684 357.322 128.833 357.66 129.13 357.926C129.421 358.191 130.182 358.465 131.411 358.746C132.645 359.022 133.492 359.264 133.95 359.473C134.617 359.78 135.109 360.171 135.427 360.645C135.744 361.113 135.903 361.655 135.903 362.27C135.903 362.879 135.729 363.454 135.38 363.996C135.031 364.533 134.528 364.952 133.872 365.254C133.221 365.551 132.487 365.699 131.669 365.699C130.632 365.699 129.763 365.548 129.059 365.246C128.362 364.944 127.812 364.491 127.411 363.887C127.015 363.277 126.807 362.59 126.786 361.824ZM138.111 365.504V354.051H139.627V359.73L145.314 354.051H147.369L142.564 358.691L147.58 365.504H145.58L141.502 359.707L139.627 361.535V365.504H138.111Z" fill="white"/>
<path d="M243.124 327.767V267.32C243.124 267.32 254.783 277.458 289.056 277.458C323.329 277.458 334.916 266.379 334.916 266.379V327.767C320.618 348.773 249.632 342.496 243.124 327.767Z" fill="#E0454C"/>
<path d="M242.124 370.458V307.826C242.124 307.826 253.981 319.941 288.254 319.941C322.527 319.941 333.916 307.826 333.916 307.826L334.885 370.458C320.31 388.745 250.994 385.316 242.124 370.458Z" fill="#0070CC"/>
<path d="M334.993 263.504C334.993 265.118 333.969 266.831 331.694 268.544C329.435 270.244 326.098 271.818 321.872 273.157C313.43 275.833 301.662 277.504 288.493 277.504C275.325 277.504 263.557 275.833 255.115 273.157C250.888 271.818 247.552 270.244 245.293 268.544C243.018 266.831 241.993 265.118 241.993 263.504C241.993 261.89 243.018 260.177 245.293 258.464C247.552 256.764 250.888 255.19 255.115 253.851C263.557 251.175 275.325 249.504 288.493 249.504C301.662 249.504 313.43 251.175 321.872 253.851C326.098 255.19 329.435 256.764 331.694 258.464C333.969 260.177 334.993 261.89 334.993 263.504Z" fill="#E0454C" stroke="black" stroke-width="2"/>
<path d="M241.993 262.504L242.344 369.767" stroke="black" stroke-width="2"/>
<path d="M334.993 262.504L334.993 370.504" stroke="black" stroke-width="2"/>
<path d="M335.082 368.947C335.082 376.903 314.322 383.353 288.713 383.353C263.104 383.353 242.344 376.903 242.344 368.947" stroke="black" stroke-width="2"/>
<path d="M335.082 304.947C335.082 312.903 314.322 319.353 288.713 319.353C263.104 319.353 242.344 312.903 242.344 304.947" stroke="black" stroke-width="2"/>
<path d="M254.181 302.504V291.051H256.462L259.173 299.16C259.423 299.915 259.605 300.48 259.72 300.855C259.85 300.439 260.053 299.827 260.329 299.02L263.072 291.051H265.111V302.504H263.65V292.918L260.322 302.504H258.954L255.642 292.754V302.504H254.181ZM267.787 302.504V291.051H276.068V292.402H269.303V295.91H275.639V297.254H269.303V301.152H276.334V302.504H267.787ZM278.581 302.504V291.051H280.862L283.573 299.16C283.823 299.915 284.005 300.48 284.12 300.855C284.25 300.439 284.453 299.827 284.729 299.02L287.472 291.051H289.511V302.504H288.05V292.918L284.722 302.504H283.354L280.042 292.754V302.504H278.581ZM291.695 296.926C291.695 295.025 292.205 293.538 293.226 292.465C294.247 291.387 295.565 290.848 297.179 290.848C298.237 290.848 299.19 291.1 300.039 291.605C300.888 292.111 301.534 292.816 301.976 293.723C302.424 294.624 302.648 295.647 302.648 296.793C302.648 297.954 302.414 298.993 301.945 299.91C301.476 300.827 300.812 301.522 299.953 301.996C299.093 302.465 298.166 302.699 297.172 302.699C296.093 302.699 295.13 302.439 294.281 301.918C293.432 301.397 292.789 300.686 292.351 299.785C291.914 298.884 291.695 297.931 291.695 296.926ZM293.257 296.949C293.257 298.329 293.627 299.418 294.367 300.215C295.112 301.007 296.044 301.402 297.164 301.402C298.304 301.402 299.242 301.001 299.976 300.199C300.716 299.397 301.086 298.259 301.086 296.785C301.086 295.853 300.927 295.04 300.609 294.348C300.297 293.65 299.836 293.111 299.226 292.73C298.622 292.345 297.942 292.152 297.187 292.152C296.114 292.152 295.19 292.522 294.414 293.262C293.643 293.996 293.257 295.225 293.257 296.949ZM304.832 302.504V291.051H309.911C310.931 291.051 311.707 291.155 312.239 291.363C312.77 291.566 313.194 291.928 313.512 292.449C313.83 292.97 313.989 293.546 313.989 294.176C313.989 294.988 313.726 295.673 313.2 296.23C312.674 296.788 311.861 297.142 310.762 297.293C311.163 297.486 311.468 297.676 311.676 297.863C312.119 298.27 312.538 298.777 312.934 299.387L314.926 302.504H313.02L311.504 300.121C311.062 299.434 310.697 298.908 310.411 298.543C310.124 298.178 309.866 297.923 309.637 297.777C309.413 297.632 309.184 297.53 308.95 297.473C308.778 297.436 308.497 297.418 308.106 297.418H306.348V302.504H304.832ZM306.348 296.105H309.606C310.299 296.105 310.84 296.035 311.231 295.895C311.622 295.749 311.918 295.52 312.122 295.207C312.325 294.889 312.426 294.546 312.426 294.176C312.426 293.634 312.228 293.189 311.832 292.84C311.442 292.491 310.822 292.316 309.973 292.316H306.348V296.105ZM319.501 302.504V297.652L315.087 291.051H316.931L319.189 294.504C319.605 295.15 319.993 295.796 320.353 296.441C320.697 295.842 321.113 295.168 321.603 294.418L323.822 291.051H325.587L321.017 297.652V302.504H319.501Z" fill="white"/>
<path d="M270.228 365.504V354.051H274.173C275.064 354.051 275.743 354.105 276.212 354.215C276.868 354.366 277.428 354.639 277.892 355.035C278.496 355.546 278.947 356.199 279.243 356.996C279.545 357.788 279.697 358.694 279.697 359.715C279.697 360.585 279.595 361.355 279.392 362.027C279.189 362.699 278.928 363.257 278.611 363.699C278.293 364.137 277.944 364.483 277.564 364.738C277.189 364.988 276.733 365.178 276.197 365.309C275.665 365.439 275.053 365.504 274.361 365.504H270.228ZM271.743 364.152H274.189C274.944 364.152 275.535 364.082 275.962 363.941C276.394 363.801 276.738 363.603 276.993 363.348C277.353 362.988 277.631 362.507 277.829 361.902C278.032 361.293 278.134 360.556 278.134 359.691C278.134 358.493 277.936 357.574 277.54 356.934C277.15 356.288 276.673 355.855 276.111 355.637C275.704 355.48 275.051 355.402 274.15 355.402H271.743V364.152ZM282.248 365.504V354.051H283.764V365.504H282.248ZM286.128 361.824L287.557 361.699C287.625 362.272 287.781 362.743 288.026 363.113C288.276 363.478 288.662 363.775 289.182 364.004C289.703 364.228 290.289 364.34 290.94 364.34C291.518 364.34 292.029 364.254 292.472 364.082C292.914 363.91 293.242 363.676 293.456 363.379C293.675 363.077 293.784 362.749 293.784 362.395C293.784 362.035 293.68 361.723 293.472 361.457C293.263 361.186 292.919 360.96 292.44 360.777C292.133 360.658 291.453 360.473 290.401 360.223C289.349 359.967 288.612 359.728 288.19 359.504C287.643 359.217 287.235 358.863 286.964 358.441C286.698 358.014 286.565 357.538 286.565 357.012C286.565 356.434 286.729 355.895 287.057 355.395C287.386 354.889 287.865 354.507 288.495 354.246C289.125 353.986 289.826 353.855 290.597 353.855C291.445 353.855 292.193 353.993 292.839 354.27C293.49 354.54 293.99 354.941 294.339 355.473C294.688 356.004 294.875 356.605 294.901 357.277L293.448 357.387C293.37 356.663 293.104 356.116 292.651 355.746C292.203 355.376 291.539 355.191 290.659 355.191C289.742 355.191 289.073 355.361 288.651 355.699C288.235 356.033 288.026 356.436 288.026 356.91C288.026 357.322 288.175 357.66 288.472 357.926C288.763 358.191 289.524 358.465 290.753 358.746C291.987 359.022 292.834 359.264 293.292 359.473C293.959 359.78 294.451 360.171 294.768 360.645C295.086 361.113 295.245 361.655 295.245 362.27C295.245 362.879 295.07 363.454 294.722 363.996C294.373 364.533 293.87 364.952 293.214 365.254C292.563 365.551 291.828 365.699 291.011 365.699C289.974 365.699 289.104 365.548 288.401 365.246C287.703 364.944 287.154 364.491 286.753 363.887C286.357 363.277 286.149 362.59 286.128 361.824ZM297.453 365.504V354.051H298.968V359.73L304.656 354.051H306.711L301.906 358.691L306.922 365.504H304.922L300.843 359.707L298.968 361.535V365.504H297.453Z" fill="white"/>
<path d="M271.076 395.565C271.076 395.565 260.577 402.064 270.472 408.518C272.375 409.775 279.279 413.271 279.083 416.505C279.083 416.505 283.267 410.22 277.149 406.265C270.865 402.218 269.293 397.895 271.076 395.565Z" fill="#ED1C24"/>
<path d="M267.42 407.982C267.42 407.982 263.674 413.746 271.046 414.926C271.771 415.018 277.104 415.585 278.494 417.364C278.494 417.364 278.373 414.298 274.022 412.489C269.686 410.68 267.904 410.235 267.42 407.982Z" fill="#ED1C24"/>
<path d="M281.923 401.927C277.421 397.144 276.167 394.185 278.101 390.353C278.101 390.353 264.671 395.595 277.935 404.901C282.679 408.227 281.893 411.63 281.893 411.753C282.633 410.971 286.425 406.709 281.923 401.927Z" fill="#ED1C24"/>
<path d="M289.37 413.458V402.005H290.925L296.941 410.997V402.005H298.394V413.458H296.839L290.823 404.458V413.458H289.37ZM300.687 407.88C300.687 405.979 301.198 404.492 302.219 403.419C303.24 402.341 304.557 401.802 306.172 401.802C307.229 401.802 308.182 402.054 309.031 402.56C309.88 403.065 310.526 403.771 310.969 404.677C311.417 405.578 311.641 406.601 311.641 407.747C311.641 408.909 311.406 409.948 310.937 410.864C310.469 411.781 309.805 412.476 308.945 412.95C308.086 413.419 307.159 413.653 306.164 413.653C305.086 413.653 304.122 413.393 303.273 412.872C302.424 412.351 301.781 411.64 301.344 410.739C300.906 409.838 300.687 408.885 300.687 407.88ZM302.25 407.903C302.25 409.284 302.62 410.372 303.359 411.169C304.104 411.961 305.036 412.356 306.156 412.356C307.297 412.356 308.234 411.955 308.969 411.153C309.708 410.351 310.078 409.213 310.078 407.739C310.078 406.807 309.919 405.994 309.602 405.302C309.289 404.604 308.828 404.065 308.219 403.685C307.615 403.299 306.935 403.106 306.18 403.106C305.107 403.106 304.182 403.476 303.406 404.216C302.635 404.95 302.25 406.179 302.25 407.903ZM313.802 413.458V402.005H317.747C318.637 402.005 319.317 402.06 319.786 402.169C320.442 402.32 321.002 402.593 321.466 402.989C322.07 403.5 322.52 404.153 322.817 404.95C323.119 405.742 323.27 406.648 323.27 407.669C323.27 408.539 323.169 409.31 322.966 409.981C322.762 410.653 322.502 411.211 322.184 411.653C321.867 412.091 321.518 412.437 321.137 412.692C320.762 412.942 320.307 413.132 319.77 413.263C319.239 413.393 318.627 413.458 317.934 413.458H313.802ZM315.317 412.106H317.762C318.518 412.106 319.109 412.036 319.536 411.896C319.968 411.755 320.312 411.557 320.567 411.302C320.927 410.942 321.205 410.461 321.403 409.856C321.606 409.247 321.708 408.51 321.708 407.646C321.708 406.448 321.51 405.528 321.114 404.888C320.723 404.242 320.247 403.81 319.684 403.591C319.278 403.435 318.624 403.356 317.723 403.356H315.317V412.106ZM325.595 413.458V402.005H333.877V403.356H327.111V406.864H333.447V408.208H327.111V412.106H334.142V413.458H325.595Z" fill="#2D2D2D"/>
<path d="M87.0023 395.565C87.0023 395.565 76.503 402.064 86.398 408.518C88.3015 409.775 95.2054 413.271 95.009 416.505C95.009 416.505 99.1936 410.22 93.0753 406.265C86.7908 402.218 85.2197 397.895 87.0023 395.565Z" fill="#ED1C24"/>
<path d="M83.3466 407.982C83.3466 407.982 79.6001 413.746 86.9723 414.926C87.6974 415.018 93.0302 415.585 94.42 417.364C94.42 417.364 94.2992 414.298 89.9484 412.489C85.6127 410.68 83.83 410.235 83.3466 407.982Z" fill="#ED1C24"/>
<path d="M97.8495 401.927C93.3476 397.144 92.0938 394.185 94.0274 390.353C94.0274 390.353 80.5973 395.595 93.8613 404.901C98.6049 408.227 97.8193 411.63 97.8193 411.753C98.5595 410.971 102.351 406.709 97.8495 401.927Z" fill="#ED1C24"/>
<path d="M105.297 413.458V402.005H106.851L112.867 410.997V402.005H114.32V413.458H112.765L106.75 404.458V413.458H105.297ZM116.614 407.88C116.614 405.979 117.124 404.492 118.145 403.419C119.166 402.341 120.484 401.802 122.098 401.802C123.155 401.802 124.109 402.054 124.958 402.56C125.806 403.065 126.452 403.771 126.895 404.677C127.343 405.578 127.567 406.601 127.567 407.747C127.567 408.909 127.333 409.948 126.864 410.864C126.395 411.781 125.731 412.476 124.872 412.95C124.012 413.419 123.085 413.653 122.09 413.653C121.012 413.653 120.049 413.393 119.2 412.872C118.351 412.351 117.708 411.64 117.27 410.739C116.833 409.838 116.614 408.885 116.614 407.88ZM118.176 407.903C118.176 409.284 118.546 410.372 119.286 411.169C120.03 411.961 120.963 412.356 122.083 412.356C123.223 412.356 124.161 411.955 124.895 411.153C125.635 410.351 126.004 409.213 126.004 407.739C126.004 406.807 125.846 405.994 125.528 405.302C125.215 404.604 124.754 404.065 124.145 403.685C123.541 403.299 122.861 403.106 122.106 403.106C121.033 403.106 120.109 403.476 119.333 404.216C118.562 404.95 118.176 406.179 118.176 407.903ZM129.728 413.458V402.005H133.673C134.564 402.005 135.243 402.06 135.712 402.169C136.368 402.32 136.928 402.593 137.392 402.989C137.996 403.5 138.447 404.153 138.743 404.95C139.046 405.742 139.197 406.648 139.197 407.669C139.197 408.539 139.095 409.31 138.892 409.981C138.689 410.653 138.428 411.211 138.111 411.653C137.793 412.091 137.444 412.437 137.064 412.692C136.689 412.942 136.233 413.132 135.697 413.263C135.165 413.393 134.553 413.458 133.861 413.458H129.728ZM131.243 412.106H133.689C134.444 412.106 135.035 412.036 135.462 411.896C135.894 411.755 136.238 411.557 136.493 411.302C136.853 410.942 137.131 410.461 137.329 409.856C137.533 409.247 137.634 408.51 137.634 407.646C137.634 406.448 137.436 405.528 137.04 404.888C136.65 404.242 136.173 403.81 135.611 403.591C135.204 403.435 134.551 403.356 133.65 403.356H131.243V412.106ZM141.522 413.458V402.005H149.803V403.356H143.037V406.864H149.373V408.208H143.037V412.106H150.068V413.458H141.522Z" fill="#2D2D2D"/>
<path d="M179.002 425.565C179.002 425.565 168.503 432.064 178.398 438.518C180.302 439.775 187.205 443.271 187.009 446.505C187.009 446.505 191.194 440.22 185.075 436.265C178.791 432.218 177.22 427.895 179.002 425.565Z" fill="#ED1C24"/>
<path d="M175.347 437.982C175.347 437.982 171.6 443.746 178.972 444.926C179.697 445.018 185.03 445.585 186.42 447.364C186.42 447.364 186.299 444.298 181.948 442.489C177.613 440.68 175.83 440.235 175.347 437.982Z" fill="#ED1C24"/>
<path d="M189.85 431.927C185.348 427.144 184.094 424.185 186.027 420.353C186.027 420.353 172.597 425.595 185.861 434.901C190.605 438.227 189.819 441.63 189.819 441.753C190.56 440.971 194.351 436.709 189.85 431.927Z" fill="#ED1C24"/>
<path d="M197.297 443.458V432.005H198.851L204.867 440.997V432.005H206.32V443.458H204.765L198.75 434.458V443.458H197.297ZM208.614 437.88C208.614 435.979 209.124 434.492 210.145 433.419C211.166 432.341 212.484 431.802 214.098 431.802C215.155 431.802 216.109 432.054 216.958 432.56C217.806 433.065 218.452 433.771 218.895 434.677C219.343 435.578 219.567 436.601 219.567 437.747C219.567 438.909 219.333 439.948 218.864 440.864C218.395 441.781 217.731 442.476 216.872 442.95C216.012 443.419 215.085 443.653 214.09 443.653C213.012 443.653 212.049 443.393 211.2 442.872C210.351 442.351 209.708 441.64 209.27 440.739C208.833 439.838 208.614 438.885 208.614 437.88ZM210.176 437.903C210.176 439.284 210.546 440.372 211.286 441.169C212.03 441.961 212.963 442.356 214.083 442.356C215.223 442.356 216.161 441.955 216.895 441.153C217.635 440.351 218.004 439.213 218.004 437.739C218.004 436.807 217.846 435.994 217.528 435.302C217.215 434.604 216.754 434.065 216.145 433.685C215.541 433.299 214.861 433.106 214.106 433.106C213.033 433.106 212.109 433.476 211.333 434.216C210.562 434.95 210.176 436.179 210.176 437.903ZM221.728 443.458V432.005H225.673C226.564 432.005 227.243 432.06 227.712 432.169C228.368 432.32 228.928 432.593 229.392 432.989C229.996 433.5 230.447 434.153 230.743 434.95C231.046 435.742 231.197 436.648 231.197 437.669C231.197 438.539 231.095 439.31 230.892 439.981C230.689 440.653 230.428 441.211 230.111 441.653C229.793 442.091 229.444 442.437 229.064 442.692C228.689 442.942 228.233 443.132 227.697 443.263C227.165 443.393 226.553 443.458 225.861 443.458H221.728ZM223.243 442.106H225.689C226.444 442.106 227.035 442.036 227.462 441.896C227.894 441.755 228.238 441.557 228.493 441.302C228.853 440.942 229.131 440.461 229.329 439.856C229.533 439.247 229.634 438.51 229.634 437.646C229.634 436.448 229.436 435.528 229.04 434.888C228.65 434.242 228.173 433.81 227.611 433.591C227.204 433.435 226.551 433.356 225.65 433.356H223.243V442.106ZM233.522 443.458V432.005H241.803V433.356H235.037V436.864H241.373V438.208H235.037V442.106H242.068V443.458H233.522Z" fill="#2D2D2D"/>
<path d="M163.453 362.166V301.719C163.453 301.719 175.112 311.856 209.385 311.856C243.658 311.856 255.245 300.778 255.245 300.778V362.166C240.947 383.172 169.961 376.894 163.453 362.166Z" fill="#E0454C"/>
<path d="M162.453 404.857V342.224C162.453 342.224 174.31 354.339 208.583 354.339C242.856 354.339 254.245 342.224 254.245 342.224L255.214 404.857C240.639 423.143 171.323 419.715 162.453 404.857Z" fill="#0070CC"/>
<path d="M255.323 297.902C255.323 299.516 254.298 301.23 252.023 302.942C249.764 304.642 246.428 306.216 242.201 307.556C233.759 310.231 221.991 311.902 208.823 311.902C195.654 311.902 183.886 310.231 175.444 307.556C171.217 306.216 167.881 304.642 165.622 302.942C163.347 301.23 162.323 299.516 162.323 297.902C162.323 296.288 163.347 294.575 165.622 292.863C167.881 291.163 171.217 289.589 175.444 288.249C183.886 285.573 195.654 283.902 208.823 283.902C221.991 283.902 233.759 285.573 242.201 288.249C246.428 289.589 249.764 291.163 252.023 292.863C254.298 294.575 255.323 296.288 255.323 297.902Z" fill="#E0454C" stroke="#2D2D2D" stroke-width="2"/>
<path d="M162.323 296.902L162.673 404.166" stroke="#2D2D2D" stroke-width="2"/>
<path d="M255.323 296.902L255.323 404.902" stroke="#2D2D2D" stroke-width="2"/>
<path d="M255.411 403.345C255.411 411.301 234.651 417.751 209.042 417.751C183.433 417.751 162.673 411.301 162.673 403.345" stroke="#2D2D2D" stroke-width="2"/>
<path d="M255.411 339.345C255.411 347.301 234.651 353.751 209.042 353.751C183.433 353.751 162.673 347.301 162.673 339.345" stroke="#2D2D2D" stroke-width="2"/>
<path d="M174.51 336.902V325.449H176.791L179.502 333.559C179.752 334.314 179.934 334.879 180.049 335.254C180.179 334.837 180.382 334.225 180.658 333.418L183.401 325.449H185.44V336.902H183.979V327.316L180.651 336.902H179.283L175.971 327.152V336.902H174.51ZM188.116 336.902V325.449H196.398V326.801H189.632V330.309H195.968V331.652H189.632V335.551H196.663V336.902H188.116ZM198.91 336.902V325.449H201.191L203.902 333.559C204.152 334.314 204.334 334.879 204.449 335.254C204.579 334.837 204.782 334.225 205.058 333.418L207.801 325.449H209.84V336.902H208.379V327.316L205.051 336.902H203.683L200.371 327.152V336.902H198.91ZM212.024 331.324C212.024 329.423 212.534 327.936 213.555 326.863C214.576 325.785 215.894 325.246 217.508 325.246C218.566 325.246 219.519 325.499 220.368 326.004C221.217 326.509 221.863 327.215 222.305 328.121C222.753 329.022 222.977 330.046 222.977 331.191C222.977 332.353 222.743 333.392 222.274 334.309C221.805 335.225 221.141 335.921 220.282 336.395C219.423 336.863 218.495 337.098 217.501 337.098C216.423 337.098 215.459 336.837 214.61 336.316C213.761 335.796 213.118 335.085 212.68 334.184C212.243 333.283 212.024 332.329 212.024 331.324ZM213.587 331.348C213.587 332.728 213.956 333.816 214.696 334.613C215.441 335.405 216.373 335.801 217.493 335.801C218.633 335.801 219.571 335.4 220.305 334.598C221.045 333.796 221.415 332.658 221.415 331.184C221.415 330.251 221.256 329.439 220.938 328.746C220.626 328.048 220.165 327.509 219.555 327.129C218.951 326.743 218.271 326.551 217.516 326.551C216.443 326.551 215.519 326.921 214.743 327.66C213.972 328.395 213.587 329.624 213.587 331.348ZM225.162 336.902V325.449H230.24C231.261 325.449 232.037 325.553 232.568 325.762C233.099 325.965 233.524 326.327 233.841 326.848C234.159 327.368 234.318 327.944 234.318 328.574C234.318 329.387 234.055 330.072 233.529 330.629C233.003 331.186 232.19 331.54 231.091 331.691C231.492 331.884 231.797 332.074 232.005 332.262C232.448 332.668 232.867 333.176 233.263 333.785L235.255 336.902H233.349L231.833 334.52C231.391 333.832 231.026 333.306 230.74 332.941C230.453 332.577 230.195 332.322 229.966 332.176C229.742 332.03 229.513 331.928 229.279 331.871C229.107 331.835 228.826 331.816 228.435 331.816H226.677V336.902H225.162ZM226.677 330.504H229.935C230.628 330.504 231.169 330.434 231.56 330.293C231.951 330.147 232.248 329.918 232.451 329.605C232.654 329.288 232.755 328.944 232.755 328.574C232.755 328.033 232.557 327.587 232.162 327.238C231.771 326.889 231.151 326.715 230.302 326.715H226.677V330.504ZM239.83 336.902V332.051L235.416 325.449H237.26L239.518 328.902C239.934 329.548 240.323 330.194 240.682 330.84C241.026 330.241 241.442 329.566 241.932 328.816L244.151 325.449H245.916L241.346 332.051V336.902H239.83Z" fill="white"/>
<path d="M190.557 399.902V388.449H194.502C195.393 388.449 196.073 388.504 196.541 388.613C197.198 388.764 197.757 389.038 198.221 389.434C198.825 389.944 199.276 390.598 199.573 391.395C199.875 392.186 200.026 393.092 200.026 394.113C200.026 394.983 199.924 395.754 199.721 396.426C199.518 397.098 199.257 397.655 198.94 398.098C198.622 398.535 198.273 398.882 197.893 399.137C197.518 399.387 197.062 399.577 196.526 399.707C195.994 399.837 195.382 399.902 194.69 399.902H190.557ZM192.073 398.551H194.518C195.273 398.551 195.864 398.48 196.291 398.34C196.724 398.199 197.067 398.001 197.323 397.746C197.682 397.387 197.961 396.905 198.158 396.301C198.362 395.691 198.463 394.954 198.463 394.09C198.463 392.892 198.265 391.973 197.869 391.332C197.479 390.686 197.002 390.254 196.44 390.035C196.033 389.879 195.38 389.801 194.479 389.801H192.073V398.551ZM202.577 399.902V388.449H204.093V399.902H202.577ZM206.457 396.223L207.887 396.098C207.954 396.671 208.111 397.142 208.355 397.512C208.605 397.876 208.991 398.173 209.512 398.402C210.032 398.626 210.618 398.738 211.269 398.738C211.848 398.738 212.358 398.652 212.801 398.48C213.243 398.309 213.571 398.074 213.785 397.777C214.004 397.475 214.113 397.147 214.113 396.793C214.113 396.434 214.009 396.121 213.801 395.855C213.592 395.585 213.249 395.358 212.769 395.176C212.462 395.056 211.782 394.871 210.73 394.621C209.678 394.366 208.941 394.126 208.519 393.902C207.973 393.616 207.564 393.262 207.293 392.84C207.027 392.413 206.894 391.936 206.894 391.41C206.894 390.832 207.058 390.293 207.387 389.793C207.715 389.288 208.194 388.905 208.824 388.645C209.454 388.384 210.155 388.254 210.926 388.254C211.775 388.254 212.522 388.392 213.168 388.668C213.819 388.939 214.319 389.34 214.668 389.871C215.017 390.402 215.204 391.004 215.23 391.676L213.777 391.785C213.699 391.061 213.433 390.514 212.98 390.145C212.532 389.775 211.868 389.59 210.988 389.59C210.071 389.59 209.402 389.759 208.98 390.098C208.564 390.431 208.355 390.835 208.355 391.309C208.355 391.72 208.504 392.059 208.801 392.324C209.092 392.59 209.853 392.863 211.082 393.145C212.316 393.421 213.163 393.663 213.621 393.871C214.288 394.178 214.78 394.569 215.098 395.043C215.415 395.512 215.574 396.053 215.574 396.668C215.574 397.277 215.4 397.853 215.051 398.395C214.702 398.931 214.199 399.35 213.543 399.652C212.892 399.949 212.157 400.098 211.34 400.098C210.303 400.098 209.433 399.947 208.73 399.645C208.032 399.342 207.483 398.889 207.082 398.285C206.686 397.676 206.478 396.988 206.457 396.223ZM217.782 399.902V388.449H219.298V394.129L224.985 388.449H227.04L222.235 393.09L227.251 399.902H225.251L221.173 394.105L219.298 395.934V399.902H217.782Z" fill="white"/>
<path fill-rule="evenodd" clip-rule="evenodd" d="M163.062 163.857C148.33 163.857 135.875 177.573 135.875 191C135.875 204.427 148.33 218.143 163.062 218.143C170.436 218.143 177.664 214.835 185.262 209.074C191.715 204.166 198.007 197.826 204.511 191C198.007 184.174 191.715 177.827 185.262 172.926C177.664 167.165 170.436 163.857 163.062 163.857ZM212 183.11C205.569 176.357 198.856 169.611 191.845 164.291C183.348 157.828 173.814 153 163.062 153C141.987 153 125 171.928 125 191C125 210.072 141.987 229 163.062 229C173.814 229 183.348 224.165 191.845 217.709C198.856 212.389 205.569 205.643 212 198.89C218.431 205.643 225.144 212.389 232.155 217.709C240.652 224.165 250.186 229 260.938 229C282.013 229 299 210.072 299 191C299 171.928 282.013 153 260.938 153C250.186 153 240.652 157.835 232.155 164.291C225.144 169.611 218.431 176.357 212 183.11ZM219.489 191C225.993 197.826 232.285 204.173 238.738 209.074C246.336 214.835 253.564 218.143 260.938 218.143C275.669 218.143 288.125 204.427 288.125 191C288.125 177.573 275.669 163.857 260.938 163.857C253.564 163.857 246.336 167.165 238.738 172.926C232.285 177.834 225.993 184.174 219.489 191Z" fill="#E6E6E6" fill-opacity="0.7"/>
<path d="M185.952 180.984L187.467 181.367C187.149 182.612 186.577 183.562 185.748 184.219C184.926 184.87 183.918 185.195 182.725 185.195C181.491 185.195 180.485 184.945 179.709 184.445C178.939 183.94 178.35 183.211 177.944 182.258C177.543 181.305 177.342 180.281 177.342 179.188C177.342 177.995 177.569 176.956 178.022 176.07C178.48 175.18 179.129 174.505 179.967 174.047C180.811 173.583 181.738 173.352 182.748 173.352C183.894 173.352 184.858 173.643 185.639 174.227C186.42 174.81 186.965 175.63 187.272 176.688L185.78 177.039C185.514 176.206 185.129 175.599 184.623 175.219C184.118 174.839 183.483 174.648 182.717 174.648C181.837 174.648 181.1 174.859 180.506 175.281C179.918 175.703 179.504 176.271 179.264 176.984C179.024 177.693 178.905 178.424 178.905 179.18C178.905 180.154 179.045 181.005 179.327 181.734C179.613 182.458 180.056 183 180.655 183.359C181.254 183.719 181.902 183.898 182.6 183.898C183.449 183.898 184.168 183.654 184.756 183.164C185.345 182.674 185.743 181.948 185.952 180.984ZM188.839 180.852C188.839 179.315 189.266 178.177 190.12 177.438C190.834 176.823 191.704 176.516 192.73 176.516C193.87 176.516 194.803 176.891 195.527 177.641C196.251 178.385 196.612 179.417 196.612 180.734C196.612 181.802 196.451 182.643 196.128 183.258C195.81 183.867 195.344 184.341 194.73 184.68C194.12 185.018 193.454 185.188 192.73 185.188C191.568 185.188 190.628 184.815 189.909 184.07C189.196 183.326 188.839 182.253 188.839 180.852ZM190.284 180.852C190.284 181.914 190.516 182.711 190.98 183.242C191.443 183.768 192.027 184.031 192.73 184.031C193.428 184.031 194.008 183.766 194.472 183.234C194.935 182.703 195.167 181.893 195.167 180.805C195.167 179.779 194.933 179.003 194.464 178.477C194.001 177.945 193.422 177.68 192.73 177.68C192.027 177.68 191.443 177.943 190.98 178.469C190.516 178.995 190.284 179.789 190.284 180.852ZM198.469 185V176.703H199.734V177.883C200.344 176.971 201.224 176.516 202.375 176.516C202.875 176.516 203.333 176.607 203.75 176.789C204.172 176.966 204.487 177.201 204.695 177.492C204.904 177.784 205.049 178.13 205.133 178.531C205.185 178.792 205.211 179.247 205.211 179.898V185H203.805V179.953C203.805 179.38 203.75 178.953 203.641 178.672C203.531 178.385 203.336 178.159 203.055 177.992C202.779 177.82 202.453 177.734 202.078 177.734C201.479 177.734 200.961 177.924 200.523 178.305C200.091 178.685 199.875 179.406 199.875 180.469V185H198.469ZM210.645 183.742L210.848 184.984C210.453 185.068 210.098 185.109 209.786 185.109C209.276 185.109 208.88 185.029 208.598 184.867C208.317 184.706 208.119 184.495 208.005 184.234C207.89 183.969 207.833 183.414 207.833 182.57V177.797H206.802V176.703H207.833V174.648L209.231 173.805V176.703H210.645V177.797H209.231V182.648C209.231 183.049 209.255 183.307 209.302 183.422C209.354 183.536 209.434 183.628 209.544 183.695C209.658 183.763 209.82 183.797 210.028 183.797C210.184 183.797 210.39 183.779 210.645 183.742ZM212.236 175.164V173.547H213.642V175.164H212.236ZM212.236 185V176.703H213.642V185H212.236ZM215.991 185V176.703H217.256V177.883C217.866 176.971 218.746 176.516 219.897 176.516C220.397 176.516 220.855 176.607 221.272 176.789C221.694 176.966 222.009 177.201 222.217 177.492C222.426 177.784 222.571 178.13 222.655 178.531C222.707 178.792 222.733 179.247 222.733 179.898V185H221.327V179.953C221.327 179.38 221.272 178.953 221.162 178.672C221.053 178.385 220.858 178.159 220.577 177.992C220.301 177.82 219.975 177.734 219.6 177.734C219.001 177.734 218.483 177.924 218.045 178.305C217.613 178.685 217.397 179.406 217.397 180.469V185H215.991ZM224.573 180.852C224.573 179.315 225.001 178.177 225.855 177.438C226.568 176.823 227.438 176.516 228.464 176.516C229.605 176.516 230.537 176.891 231.261 177.641C231.985 178.385 232.347 179.417 232.347 180.734C232.347 181.802 232.185 182.643 231.862 183.258C231.545 183.867 231.079 184.341 230.464 184.68C229.855 185.018 229.188 185.188 228.464 185.188C227.303 185.188 226.362 184.815 225.644 184.07C224.93 183.326 224.573 182.253 224.573 180.852ZM226.019 180.852C226.019 181.914 226.251 182.711 226.714 183.242C227.178 183.768 227.761 184.031 228.464 184.031C229.162 184.031 229.743 183.766 230.206 183.234C230.67 182.703 230.902 181.893 230.902 180.805C230.902 179.779 230.667 179.003 230.198 178.477C229.735 177.945 229.157 177.68 228.464 177.68C227.761 177.68 227.178 177.943 226.714 178.469C226.251 178.995 226.019 179.789 226.019 180.852ZM239.641 185V183.781C238.995 184.719 238.117 185.188 237.008 185.188C236.518 185.188 236.06 185.094 235.633 184.906C235.211 184.719 234.896 184.484 234.688 184.203C234.484 183.917 234.341 183.568 234.258 183.156C234.201 182.88 234.172 182.443 234.172 181.844V176.703H235.578V181.305C235.578 182.039 235.607 182.534 235.664 182.789C235.753 183.159 235.94 183.451 236.227 183.664C236.513 183.872 236.867 183.977 237.289 183.977C237.711 183.977 238.107 183.87 238.477 183.656C238.846 183.438 239.107 183.143 239.258 182.773C239.414 182.398 239.492 181.857 239.492 181.148V176.703H240.898V185H239.641ZM242.747 182.523L244.137 182.305C244.216 182.862 244.432 183.289 244.786 183.586C245.145 183.883 245.645 184.031 246.286 184.031C246.932 184.031 247.411 183.901 247.723 183.641C248.036 183.375 248.192 183.065 248.192 182.711C248.192 182.393 248.054 182.143 247.778 181.961C247.585 181.836 247.106 181.677 246.341 181.484C245.309 181.224 244.593 181 244.192 180.812C243.796 180.62 243.494 180.357 243.286 180.023C243.083 179.685 242.981 179.312 242.981 178.906C242.981 178.536 243.065 178.195 243.231 177.883C243.403 177.565 243.635 177.302 243.927 177.094C244.145 176.932 244.442 176.797 244.817 176.688C245.197 176.573 245.604 176.516 246.036 176.516C246.687 176.516 247.257 176.609 247.747 176.797C248.242 176.984 248.606 177.24 248.841 177.562C249.075 177.88 249.236 178.307 249.325 178.844L247.95 179.031C247.887 178.604 247.705 178.271 247.403 178.031C247.106 177.792 246.684 177.672 246.137 177.672C245.492 177.672 245.031 177.779 244.755 177.992C244.479 178.206 244.341 178.456 244.341 178.742C244.341 178.924 244.398 179.089 244.512 179.234C244.627 179.385 244.807 179.51 245.052 179.609C245.192 179.661 245.606 179.781 246.294 179.969C247.289 180.234 247.981 180.453 248.372 180.625C248.768 180.792 249.078 181.036 249.302 181.359C249.526 181.682 249.637 182.083 249.637 182.562C249.637 183.031 249.499 183.474 249.223 183.891C248.953 184.302 248.559 184.622 248.044 184.852C247.528 185.076 246.945 185.188 246.294 185.188C245.216 185.188 244.393 184.964 243.825 184.516C243.262 184.068 242.903 183.404 242.747 182.523ZM185.331 203V191.547H186.737V203H185.331ZM194.805 200.328L196.258 200.508C196.029 201.357 195.604 202.016 194.984 202.484C194.365 202.953 193.573 203.188 192.609 203.188C191.396 203.188 190.432 202.815 189.719 202.07C189.01 201.32 188.656 200.271 188.656 198.922C188.656 197.526 189.016 196.443 189.734 195.672C190.453 194.901 191.385 194.516 192.531 194.516C193.641 194.516 194.547 194.893 195.25 195.648C195.953 196.404 196.305 197.466 196.305 198.836C196.305 198.919 196.302 199.044 196.297 199.211H190.109C190.161 200.122 190.419 200.82 190.883 201.305C191.346 201.789 191.924 202.031 192.617 202.031C193.133 202.031 193.573 201.896 193.938 201.625C194.302 201.354 194.591 200.922 194.805 200.328ZM190.188 198.055H194.82C194.758 197.357 194.581 196.833 194.289 196.484C193.841 195.943 193.26 195.672 192.547 195.672C191.901 195.672 191.357 195.888 190.914 196.32C190.477 196.753 190.234 197.331 190.188 198.055ZM203.645 201.977C203.124 202.419 202.622 202.732 202.137 202.914C201.658 203.096 201.143 203.188 200.591 203.188C199.679 203.188 198.979 202.966 198.489 202.523C197.999 202.076 197.755 201.505 197.755 200.812C197.755 200.406 197.846 200.036 198.028 199.703C198.216 199.365 198.458 199.094 198.755 198.891C199.057 198.688 199.395 198.534 199.77 198.43C200.046 198.357 200.463 198.286 201.02 198.219C202.156 198.083 202.992 197.922 203.528 197.734C203.533 197.542 203.536 197.419 203.536 197.367C203.536 196.794 203.403 196.391 203.137 196.156C202.778 195.839 202.244 195.68 201.536 195.68C200.874 195.68 200.385 195.797 200.067 196.031C199.755 196.26 199.523 196.669 199.372 197.258L197.997 197.07C198.122 196.482 198.328 196.008 198.614 195.648C198.901 195.284 199.315 195.005 199.856 194.812C200.398 194.615 201.026 194.516 201.739 194.516C202.447 194.516 203.023 194.599 203.466 194.766C203.908 194.932 204.234 195.143 204.442 195.398C204.651 195.648 204.796 195.966 204.88 196.352C204.927 196.591 204.95 197.023 204.95 197.648V199.523C204.95 200.831 204.979 201.659 205.036 202.008C205.098 202.352 205.218 202.682 205.395 203H203.927C203.781 202.708 203.687 202.367 203.645 201.977ZM203.528 198.836C203.018 199.044 202.252 199.221 201.231 199.367C200.653 199.451 200.244 199.544 200.005 199.648C199.765 199.753 199.58 199.906 199.45 200.109C199.32 200.307 199.255 200.529 199.255 200.773C199.255 201.148 199.395 201.461 199.677 201.711C199.963 201.961 200.38 202.086 200.927 202.086C201.468 202.086 201.95 201.969 202.372 201.734C202.794 201.495 203.104 201.169 203.302 200.758C203.453 200.44 203.528 199.971 203.528 199.352V198.836ZM207.322 203V194.703H208.588V195.961C208.91 195.372 209.207 194.984 209.478 194.797C209.754 194.609 210.056 194.516 210.384 194.516C210.858 194.516 211.34 194.667 211.83 194.969L211.345 196.273C211.002 196.07 210.658 195.969 210.314 195.969C210.007 195.969 209.731 196.062 209.486 196.25C209.241 196.432 209.067 196.688 208.963 197.016C208.806 197.516 208.728 198.062 208.728 198.656V203H207.322ZM212.866 203V194.703H214.131V195.883C214.741 194.971 215.621 194.516 216.772 194.516C217.272 194.516 217.73 194.607 218.147 194.789C218.569 194.966 218.884 195.201 219.092 195.492C219.301 195.784 219.446 196.13 219.53 196.531C219.582 196.792 219.608 197.247 219.608 197.898V203H218.202V197.953C218.202 197.38 218.147 196.953 218.037 196.672C217.928 196.385 217.733 196.159 217.452 195.992C217.176 195.82 216.85 195.734 216.475 195.734C215.876 195.734 215.358 195.924 214.92 196.305C214.488 196.685 214.272 197.406 214.272 198.469V203H212.866ZM221.98 193.164V191.547H223.386V193.164H221.98ZM221.98 203V194.703H223.386V203H221.98ZM225.734 203V194.703H227V195.883C227.609 194.971 228.49 194.516 229.641 194.516C230.141 194.516 230.599 194.607 231.016 194.789C231.438 194.966 231.753 195.201 231.961 195.492C232.169 195.784 232.315 196.13 232.398 196.531C232.451 196.792 232.477 197.247 232.477 197.898V203H231.07V197.953C231.07 197.38 231.016 196.953 230.906 196.672C230.797 196.385 230.602 196.159 230.32 195.992C230.044 195.82 229.719 195.734 229.344 195.734C228.745 195.734 228.227 195.924 227.789 196.305C227.357 196.685 227.141 197.406 227.141 198.469V203H225.734ZM234.583 203.688L235.95 203.891C236.007 204.312 236.166 204.62 236.427 204.812C236.776 205.073 237.252 205.203 237.856 205.203C238.507 205.203 239.01 205.073 239.364 204.812C239.718 204.552 239.958 204.188 240.083 203.719C240.156 203.432 240.19 202.831 240.184 201.914C239.57 202.638 238.804 203 237.888 203C236.747 203 235.864 202.589 235.239 201.766C234.614 200.943 234.302 199.956 234.302 198.805C234.302 198.013 234.445 197.284 234.731 196.617C235.018 195.945 235.432 195.427 235.973 195.062C236.52 194.698 237.161 194.516 237.895 194.516C238.874 194.516 239.682 194.911 240.317 195.703V194.703H241.614V201.875C241.614 203.167 241.481 204.081 241.216 204.617C240.955 205.159 240.539 205.586 239.966 205.898C239.398 206.211 238.697 206.367 237.864 206.367C236.874 206.367 236.075 206.143 235.466 205.695C234.856 205.253 234.562 204.583 234.583 203.688ZM235.747 198.703C235.747 199.792 235.963 200.586 236.395 201.086C236.828 201.586 237.369 201.836 238.02 201.836C238.666 201.836 239.208 201.589 239.645 201.094C240.083 200.594 240.302 199.812 240.302 198.75C240.302 197.734 240.075 196.969 239.622 196.453C239.174 195.938 238.632 195.68 237.997 195.68C237.372 195.68 236.841 195.935 236.403 196.445C235.966 196.951 235.747 197.703 235.747 198.703Z" fill="#6E6E6E"/>
</svg>
