<svg width="577" height="653" viewBox="0 0 577 653" fill="none" xmlns="http://www.w3.org/2000/svg">
<path d="M450 196.706L647.475 310.718L647.475 424.73L450 310.718L450 196.706Z" fill="#0070CC" stroke="white"/>
<path d="M647.475 82.6936L844.95 196.706L647.475 310.718L450 196.706L647.475 82.6936Z" fill="#0070CC" stroke="white"/>
<mask id="path-3-inside-1_4:343" fill="white">
<path fill-rule="evenodd" clip-rule="evenodd" d="M489.659 276.514C489.659 284.07 484.354 287.133 477.81 283.355C471.266 279.577 465.962 270.389 465.962 262.833C465.962 255.277 471.266 252.214 477.81 255.992C484.354 259.77 489.659 268.958 489.659 276.514ZM521.582 294.756C521.582 302.312 516.277 305.375 509.734 301.597C503.19 297.819 497.885 288.631 497.885 281.075C497.885 273.519 503.19 270.456 509.734 274.234C516.277 278.012 521.582 287.2 521.582 294.756ZM553.669 306.158C549.307 303.639 545.77 305.681 545.77 310.718C545.77 315.755 549.307 321.881 553.669 324.399L620.811 363.164C625.173 365.682 628.71 363.64 628.71 358.603C628.71 353.566 625.173 347.44 620.811 344.922L553.669 306.158Z"/>
</mask>
<path fill-rule="evenodd" clip-rule="evenodd" d="M489.659 276.514C489.659 284.07 484.354 287.133 477.81 283.355C471.266 279.577 465.962 270.389 465.962 262.833C465.962 255.277 471.266 252.214 477.81 255.992C484.354 259.77 489.659 268.958 489.659 276.514ZM521.582 294.756C521.582 302.312 516.277 305.375 509.734 301.597C503.19 297.819 497.885 288.631 497.885 281.075C497.885 273.519 503.19 270.456 509.734 274.234C516.277 278.012 521.582 287.2 521.582 294.756ZM553.669 306.158C549.307 303.639 545.77 305.681 545.77 310.718C545.77 315.755 549.307 321.881 553.669 324.399L620.811 363.164C625.173 365.682 628.71 363.64 628.71 358.603C628.71 353.566 625.173 347.44 620.811 344.922L553.669 306.158Z" fill="#0070CC"/>
<path d="M477.81 283.355L478.31 282.489V282.489L477.81 283.355ZM489.659 276.514H490.659H489.659ZM465.962 262.833H466.962H465.962ZM477.81 255.992L477.31 256.858L477.81 255.992ZM509.734 301.597L510.234 300.731L509.734 301.597ZM509.734 274.234L509.234 275.1L509.734 274.234ZM553.669 306.158L553.169 307.024L553.669 306.158ZM553.669 324.399L553.169 325.265L553.669 324.399ZM620.811 363.164L621.311 362.298L620.811 363.164ZM620.811 344.922L621.311 344.056L620.811 344.922ZM477.31 284.221C480.764 286.215 484.126 286.531 486.688 285.051C489.251 283.571 490.659 280.503 490.659 276.514H488.659C488.659 280.082 487.414 282.323 485.688 283.319C483.963 284.315 481.4 284.273 478.31 282.489L477.31 284.221ZM464.962 262.833C464.962 266.828 466.357 271.185 468.566 275.011C470.775 278.836 473.851 282.224 477.31 284.221L478.31 282.489C475.226 280.708 472.378 277.613 470.298 274.011C468.218 270.409 466.962 266.394 466.962 262.833H464.962ZM478.31 255.126C474.856 253.132 471.495 252.817 468.932 254.296C466.369 255.776 464.962 258.844 464.962 262.833H466.962C466.962 259.265 468.206 257.025 469.932 256.028C471.658 255.032 474.221 255.074 477.31 256.858L478.31 255.126ZM490.659 276.514C490.659 272.519 489.263 268.162 487.054 264.336C484.846 260.511 481.77 257.124 478.31 255.126L477.31 256.858C480.394 258.639 483.243 261.734 485.322 265.336C487.402 268.939 488.659 272.953 488.659 276.514H490.659ZM509.234 302.463C512.688 304.457 516.049 304.773 518.612 303.293C521.174 301.813 522.582 298.745 522.582 294.756H520.582C520.582 298.324 519.337 300.565 517.612 301.561C515.886 302.557 513.323 302.515 510.234 300.731L509.234 302.463ZM496.885 281.075C496.885 285.07 498.281 289.427 500.489 293.253C502.698 297.078 505.774 300.466 509.234 302.463L510.234 300.731C507.15 298.95 504.301 295.855 502.222 292.253C500.142 288.651 498.885 284.636 498.885 281.075H496.885ZM510.234 273.368C506.78 271.374 503.418 271.059 500.855 272.538C498.293 274.018 496.885 277.086 496.885 281.075H498.885C498.885 277.507 500.13 275.267 501.855 274.27C503.581 273.274 506.144 273.316 509.234 275.1L510.234 273.368ZM522.582 294.756C522.582 290.761 521.186 286.404 518.978 282.578C516.769 278.753 513.693 275.366 510.234 273.368L509.234 275.1C512.318 276.881 515.166 279.976 517.246 283.578C519.325 287.18 520.582 291.195 520.582 294.756H522.582ZM546.77 310.718C546.77 308.41 547.573 307.054 548.584 306.47C549.595 305.887 551.17 305.869 553.169 307.024L554.169 305.291C551.806 303.927 549.432 303.671 547.584 304.738C545.736 305.805 544.77 307.989 544.77 310.718H546.77ZM554.169 323.533C552.176 322.383 550.315 320.367 548.95 318.003C547.585 315.639 546.77 313.02 546.77 310.718H544.77C544.77 313.454 545.724 316.416 547.218 319.003C548.712 321.591 550.8 323.898 553.169 325.265L554.169 323.533ZM621.311 362.298L554.169 323.533L553.169 325.265L620.311 364.03L621.311 362.298ZM627.71 358.603C627.71 360.911 626.907 362.267 625.896 362.851C624.885 363.435 623.31 363.452 621.311 362.298L620.311 364.03C622.674 365.394 625.048 365.65 626.896 364.583C628.744 363.516 629.71 361.332 629.71 358.603H627.71ZM620.311 345.788C622.304 346.939 624.165 348.954 625.53 351.318C626.895 353.682 627.71 356.301 627.71 358.603H629.71C629.71 355.868 628.756 352.905 627.262 350.318C625.768 347.73 623.68 345.423 621.311 344.056L620.311 345.788ZM553.169 307.024L620.311 345.788L621.311 344.056L554.169 305.291L553.169 307.024Z" fill="white" mask="url(#path-3-inside-1_4:343)"/>
<path d="M450 69.0122L647.475 183.024L647.475 297.037L450 183.024L450 69.0122Z" fill="#0070CC" stroke="white"/>
<path d="M647.475 -45L844.95 69.0122L647.475 183.024L450 69.0122L647.475 -45Z" fill="#0070CC" stroke="white"/>
<mask id="path-7-inside-2_4:343" fill="white">
<path fill-rule="evenodd" clip-rule="evenodd" d="M489.659 153.381C489.659 160.937 484.354 164 477.81 160.222C471.266 156.444 465.962 147.256 465.962 139.7C465.962 132.144 471.266 129.081 477.81 132.859C484.354 136.637 489.659 145.825 489.659 153.381ZM521.582 171.623C521.582 179.179 516.277 182.242 509.734 178.464C503.19 174.686 497.885 165.498 497.885 157.942C497.885 150.386 503.19 147.323 509.734 151.101C516.277 154.879 521.582 164.067 521.582 171.623ZM553.669 180.744C549.307 178.226 545.77 180.267 545.77 185.305C545.77 190.342 549.307 196.468 553.669 198.986L620.811 237.75C625.173 240.269 628.71 238.227 628.71 233.19C628.71 228.153 625.173 222.027 620.811 219.508L553.669 180.744Z"/>
</mask>
<path fill-rule="evenodd" clip-rule="evenodd" d="M489.659 153.381C489.659 160.937 484.354 164 477.81 160.222C471.266 156.444 465.962 147.256 465.962 139.7C465.962 132.144 471.266 129.081 477.81 132.859C484.354 136.637 489.659 145.825 489.659 153.381ZM521.582 171.623C521.582 179.179 516.277 182.242 509.734 178.464C503.19 174.686 497.885 165.498 497.885 157.942C497.885 150.386 503.19 147.323 509.734 151.101C516.277 154.879 521.582 164.067 521.582 171.623ZM553.669 180.744C549.307 178.226 545.77 180.267 545.77 185.305C545.77 190.342 549.307 196.468 553.669 198.986L620.811 237.75C625.173 240.269 628.71 238.227 628.71 233.19C628.71 228.153 625.173 222.027 620.811 219.508L553.669 180.744Z" fill="#0070CC"/>
<path d="M489.659 153.381H490.659H489.659ZM465.962 139.7H466.962H465.962ZM477.81 132.859L477.31 133.725L477.81 132.859ZM509.734 178.464L509.234 179.33L509.734 178.464ZM509.734 151.101L509.234 151.967L509.734 151.101ZM553.669 180.744L553.169 181.61L553.669 180.744ZM553.669 198.986L554.169 198.12L553.669 198.986ZM620.811 237.75L620.311 238.616L620.811 237.75ZM620.811 219.508L620.311 220.375L620.811 219.508ZM477.31 161.088C480.764 163.082 484.126 163.398 486.688 161.918C489.251 160.439 490.659 157.37 490.659 153.381H488.659C488.659 156.949 487.414 159.19 485.688 160.186C483.963 161.182 481.4 161.14 478.31 159.356L477.31 161.088ZM464.962 139.7C464.962 143.695 466.357 148.052 468.566 151.878C470.775 155.703 473.851 159.091 477.31 161.088L478.31 159.356C475.226 157.575 472.378 154.48 470.298 150.878C468.218 147.276 466.962 143.261 466.962 139.7H464.962ZM478.31 131.993C474.856 129.999 471.495 129.684 468.932 131.163C466.369 132.643 464.962 135.712 464.962 139.7H466.962C466.962 136.132 468.206 133.892 469.932 132.895C471.658 131.899 474.221 131.941 477.31 133.725L478.31 131.993ZM490.659 153.381C490.659 149.387 489.263 145.029 487.054 141.204C484.846 137.378 481.77 133.991 478.31 131.993L477.31 133.725C480.394 135.506 483.243 138.601 485.322 142.204C487.402 145.806 488.659 149.82 488.659 153.381H490.659ZM509.234 179.33C512.688 181.324 516.049 181.64 518.612 180.16C521.174 178.681 522.582 175.612 522.582 171.623H520.582C520.582 175.191 519.337 177.432 517.612 178.428C515.886 179.424 513.323 179.382 510.234 177.598L509.234 179.33ZM496.885 157.942C496.885 161.937 498.281 166.294 500.489 170.12C502.698 173.945 505.774 177.333 509.234 179.33L510.234 177.598C507.15 175.817 504.301 172.722 502.222 169.12C500.142 165.518 498.885 161.503 498.885 157.942H496.885ZM510.234 150.235C506.78 148.241 503.418 147.926 500.855 149.405C498.293 150.885 496.885 153.953 496.885 157.942H498.885C498.885 154.374 500.13 152.134 501.855 151.137C503.581 150.141 506.144 150.183 509.234 151.967L510.234 150.235ZM522.582 171.623C522.582 167.628 521.186 163.271 518.978 159.445C516.769 155.62 513.693 152.233 510.234 150.235L509.234 151.967C512.318 153.748 515.166 156.843 517.246 160.445C519.325 164.048 520.582 168.062 520.582 171.623H522.582ZM546.77 185.305C546.77 182.996 547.573 181.641 548.584 181.057C549.595 180.473 551.17 180.456 553.169 181.61L554.169 179.878C551.806 178.514 549.432 178.258 547.584 179.325C545.736 180.392 544.77 182.576 544.77 185.305H546.77ZM554.169 198.12C552.176 196.969 550.315 194.954 548.95 192.59C547.585 190.226 546.77 187.607 546.77 185.305H544.77C544.77 188.04 545.724 191.002 547.218 193.59C548.712 196.178 550.8 198.485 553.169 199.852L554.169 198.12ZM621.311 236.884L554.169 198.12L553.169 199.852L620.311 238.616L621.311 236.884ZM627.71 233.19C627.71 235.498 626.907 236.854 625.896 237.438C624.885 238.021 623.31 238.039 621.311 236.884L620.311 238.616C622.674 239.981 625.048 240.237 626.896 239.17C628.744 238.103 629.71 235.919 629.71 233.19H627.71ZM620.311 220.375C622.304 221.525 624.165 223.541 625.53 225.905C626.895 228.269 627.71 230.888 627.71 233.19H629.71C629.71 230.454 628.756 227.492 627.262 224.905C625.768 222.317 623.68 220.01 621.311 218.642L620.311 220.375ZM553.169 181.61L620.311 220.375L621.311 218.642L554.169 179.878L553.169 181.61Z" fill="white" mask="url(#path-7-inside-2_4:343)"/>
<path d="M226 317.706L423.475 431.718L423.475 545.73L226 431.718L226 317.706Z" fill="#0070CC" stroke="white"/>
<path d="M423.475 431.718L620.95 317.706L620.95 431.718L423.475 545.73L423.475 431.718Z" fill="#0070CC" stroke="white"/>
<path d="M423.475 203.694L620.95 317.706L423.475 431.718L226 317.706L423.475 203.694Z" fill="#0070CC" stroke="white"/>
<mask id="path-12-inside-3_4:343" fill="white">
<path fill-rule="evenodd" clip-rule="evenodd" d="M265.659 397.514C265.659 405.07 260.354 408.133 253.81 404.355C247.266 400.577 241.962 391.389 241.962 383.833C241.962 376.277 247.266 373.214 253.81 376.992C260.354 380.77 265.659 389.958 265.659 397.514ZM297.582 415.756C297.582 423.312 292.277 426.375 285.734 422.597C279.19 418.819 273.885 409.631 273.885 402.075C273.885 394.519 279.19 391.456 285.734 395.234C292.277 399.012 297.582 408.2 297.582 415.756ZM329.669 427.158C325.307 424.639 321.77 426.681 321.77 431.718C321.77 436.755 325.307 442.881 329.669 445.399L396.811 484.164C401.173 486.682 404.71 484.64 404.71 479.603C404.71 474.566 401.173 468.44 396.811 465.922L329.669 427.158Z"/>
</mask>
<path fill-rule="evenodd" clip-rule="evenodd" d="M265.659 397.514C265.659 405.07 260.354 408.133 253.81 404.355C247.266 400.577 241.962 391.389 241.962 383.833C241.962 376.277 247.266 373.214 253.81 376.992C260.354 380.77 265.659 389.958 265.659 397.514ZM297.582 415.756C297.582 423.312 292.277 426.375 285.734 422.597C279.19 418.819 273.885 409.631 273.885 402.075C273.885 394.519 279.19 391.456 285.734 395.234C292.277 399.012 297.582 408.2 297.582 415.756ZM329.669 427.158C325.307 424.639 321.77 426.681 321.77 431.718C321.77 436.755 325.307 442.881 329.669 445.399L396.811 484.164C401.173 486.682 404.71 484.64 404.71 479.603C404.71 474.566 401.173 468.44 396.811 465.922L329.669 427.158Z" fill="#0070CC"/>
<path d="M253.81 404.355L254.31 403.489V403.489L253.81 404.355ZM265.659 397.514H266.659H265.659ZM241.962 383.833H242.962H241.962ZM253.81 376.992L253.31 377.858L253.81 376.992ZM285.734 422.597L286.234 421.731L285.734 422.597ZM285.734 395.234L285.234 396.1L285.734 395.234ZM329.669 427.158L329.169 428.024L329.669 427.158ZM329.669 445.399L329.169 446.265L329.669 445.399ZM396.811 484.164L397.311 483.298L396.811 484.164ZM396.811 465.922L397.311 465.056L396.811 465.922ZM253.31 405.221C256.764 407.215 260.126 407.531 262.688 406.051C265.251 404.571 266.659 401.503 266.659 397.514H264.659C264.659 401.082 263.414 403.323 261.688 404.319C259.963 405.315 257.4 405.273 254.31 403.489L253.31 405.221ZM240.962 383.833C240.962 387.828 242.357 392.185 244.566 396.011C246.775 399.836 249.851 403.224 253.31 405.221L254.31 403.489C251.226 401.708 248.378 398.613 246.298 395.011C244.218 391.409 242.962 387.394 242.962 383.833H240.962ZM254.31 376.126C250.856 374.132 247.495 373.817 244.932 375.296C242.369 376.776 240.962 379.844 240.962 383.833H242.962C242.962 380.265 244.206 378.025 245.932 377.028C247.658 376.032 250.221 376.074 253.31 377.858L254.31 376.126ZM266.659 397.514C266.659 393.519 265.263 389.162 263.054 385.336C260.846 381.511 257.77 378.124 254.31 376.126L253.31 377.858C256.394 379.639 259.243 382.734 261.322 386.336C263.402 389.939 264.659 393.953 264.659 397.514H266.659ZM285.234 423.463C288.688 425.457 292.049 425.773 294.612 424.293C297.174 422.813 298.582 419.745 298.582 415.756H296.582C296.582 419.324 295.337 421.565 293.612 422.561C291.886 423.557 289.323 423.515 286.234 421.731L285.234 423.463ZM272.885 402.075C272.885 406.07 274.281 410.427 276.489 414.253C278.698 418.078 281.774 421.466 285.234 423.463L286.234 421.731C283.15 419.95 280.301 416.855 278.221 413.253C276.142 409.651 274.885 405.636 274.885 402.075H272.885ZM286.234 394.368C282.78 392.374 279.418 392.059 276.855 393.538C274.293 395.018 272.885 398.086 272.885 402.075H274.885C274.885 398.507 276.13 396.267 277.855 395.27C279.581 394.274 282.144 394.316 285.234 396.1L286.234 394.368ZM298.582 415.756C298.582 411.761 297.186 407.404 294.978 403.578C292.769 399.753 289.693 396.366 286.234 394.368L285.234 396.1C288.318 397.881 291.166 400.976 293.246 404.578C295.325 408.18 296.582 412.195 296.582 415.756H298.582ZM322.77 431.718C322.77 429.41 323.573 428.054 324.584 427.47C325.595 426.887 327.17 426.869 329.169 428.024L330.169 426.291C327.806 424.927 325.432 424.671 323.584 425.738C321.736 426.805 320.77 428.989 320.77 431.718H322.77ZM330.169 444.533C328.176 443.383 326.315 441.367 324.95 439.003C323.585 436.639 322.77 434.02 322.77 431.718H320.77C320.77 434.454 321.724 437.416 323.218 440.003C324.712 442.591 326.8 444.898 329.169 446.265L330.169 444.533ZM397.311 483.298L330.169 444.533L329.169 446.265L396.311 485.03L397.311 483.298ZM403.71 479.603C403.71 481.911 402.907 483.267 401.896 483.851C400.885 484.435 399.31 484.452 397.311 483.298L396.311 485.03C398.674 486.394 401.048 486.65 402.896 485.583C404.744 484.516 405.71 482.332 405.71 479.603H403.71ZM396.311 466.788C398.304 467.939 400.165 469.954 401.53 472.318C402.895 474.682 403.71 477.301 403.71 479.603H405.71C405.71 476.868 404.756 473.905 403.262 471.318C401.768 468.73 399.68 466.423 397.311 465.056L396.311 466.788ZM329.169 428.024L396.311 466.788L397.311 465.056L330.169 426.291L329.169 428.024Z" fill="white" mask="url(#path-12-inside-3_4:343)"/>
<path d="M226 190.012L423.475 304.024L423.475 418.037L226 304.024L226 190.012Z" fill="#0070CC" stroke="white"/>
<path d="M423.475 304.024L620.95 190.012L620.95 304.024L423.475 418.037L423.475 304.024Z" fill="#0070CC" stroke="white"/>
<path d="M423.475 76L620.95 190.012L423.475 304.024L226 190.012L423.475 76Z" fill="#0070CC" stroke="white"/>
<mask id="path-17-inside-4_4:343" fill="white">
<path fill-rule="evenodd" clip-rule="evenodd" d="M265.659 274.381C265.659 281.937 260.354 285 253.81 281.222C247.266 277.444 241.962 268.256 241.962 260.7C241.962 253.144 247.266 250.081 253.81 253.859C260.354 257.637 265.659 266.825 265.659 274.381ZM297.582 292.623C297.582 300.179 292.277 303.242 285.734 299.464C279.19 295.686 273.885 286.498 273.885 278.942C273.885 271.386 279.19 268.323 285.734 272.101C292.277 275.879 297.582 285.067 297.582 292.623ZM329.669 301.744C325.307 299.226 321.77 301.267 321.77 306.305C321.77 311.342 325.307 317.468 329.669 319.986L396.811 358.75C401.173 361.269 404.71 359.227 404.71 354.19C404.71 349.153 401.173 343.027 396.811 340.508L329.669 301.744Z"/>
</mask>
<path fill-rule="evenodd" clip-rule="evenodd" d="M265.659 274.381C265.659 281.937 260.354 285 253.81 281.222C247.266 277.444 241.962 268.256 241.962 260.7C241.962 253.144 247.266 250.081 253.81 253.859C260.354 257.637 265.659 266.825 265.659 274.381ZM297.582 292.623C297.582 300.179 292.277 303.242 285.734 299.464C279.19 295.686 273.885 286.498 273.885 278.942C273.885 271.386 279.19 268.323 285.734 272.101C292.277 275.879 297.582 285.067 297.582 292.623ZM329.669 301.744C325.307 299.226 321.77 301.267 321.77 306.305C321.77 311.342 325.307 317.468 329.669 319.986L396.811 358.75C401.173 361.269 404.71 359.227 404.71 354.19C404.71 349.153 401.173 343.027 396.811 340.508L329.669 301.744Z" fill="#0070CC"/>
<path d="M265.659 274.381H266.659H265.659ZM241.962 260.7H242.962H241.962ZM253.81 253.859L253.31 254.725L253.81 253.859ZM285.734 299.464L285.234 300.33L285.734 299.464ZM285.734 272.101L285.234 272.967L285.734 272.101ZM329.669 301.744L329.169 302.61L329.669 301.744ZM329.669 319.986L330.169 319.12L329.669 319.986ZM396.811 358.75L396.311 359.616L396.811 358.75ZM396.811 340.508L396.311 341.375L396.811 340.508ZM253.31 282.088C256.764 284.082 260.126 284.398 262.688 282.918C265.251 281.439 266.659 278.37 266.659 274.381H264.659C264.659 277.949 263.414 280.19 261.688 281.186C259.963 282.182 257.4 282.14 254.31 280.356L253.31 282.088ZM240.962 260.7C240.962 264.695 242.357 269.052 244.566 272.878C246.775 276.703 249.851 280.091 253.31 282.088L254.31 280.356C251.226 278.575 248.378 275.48 246.298 271.878C244.218 268.276 242.962 264.261 242.962 260.7H240.962ZM254.31 252.993C250.856 250.999 247.495 250.684 244.932 252.163C242.369 253.643 240.962 256.712 240.962 260.7H242.962C242.962 257.132 244.206 254.892 245.932 253.895C247.658 252.899 250.221 252.941 253.31 254.725L254.31 252.993ZM266.659 274.381C266.659 270.387 265.263 266.029 263.054 262.204C260.846 258.378 257.77 254.991 254.31 252.993L253.31 254.725C256.394 256.506 259.243 259.601 261.322 263.204C263.402 266.806 264.659 270.82 264.659 274.381H266.659ZM285.234 300.33C288.688 302.324 292.049 302.64 294.612 301.16C297.174 299.681 298.582 296.612 298.582 292.623H296.582C296.582 296.191 295.337 298.432 293.612 299.428C291.886 300.424 289.323 300.382 286.234 298.598L285.234 300.33ZM272.885 278.942C272.885 282.937 274.281 287.294 276.489 291.12C278.698 294.945 281.774 298.333 285.234 300.33L286.234 298.598C283.15 296.817 280.301 293.722 278.221 290.12C276.142 286.518 274.885 282.503 274.885 278.942H272.885ZM286.234 271.235C282.78 269.241 279.418 268.926 276.855 270.405C274.293 271.885 272.885 274.953 272.885 278.942H274.885C274.885 275.374 276.13 273.134 277.855 272.137C279.581 271.141 282.144 271.183 285.234 272.967L286.234 271.235ZM298.582 292.623C298.582 288.628 297.186 284.271 294.978 280.445C292.769 276.62 289.693 273.233 286.234 271.235L285.234 272.967C288.318 274.748 291.166 277.843 293.246 281.445C295.325 285.048 296.582 289.062 296.582 292.623H298.582ZM322.77 306.305C322.77 303.996 323.573 302.641 324.584 302.057C325.595 301.473 327.17 301.456 329.169 302.61L330.169 300.878C327.806 299.514 325.432 299.258 323.584 300.325C321.736 301.392 320.77 303.576 320.77 306.305H322.77ZM330.169 319.12C328.176 317.969 326.315 315.954 324.95 313.59C323.585 311.226 322.77 308.607 322.77 306.305H320.77C320.77 309.04 321.724 312.002 323.218 314.59C324.712 317.178 326.8 319.485 329.169 320.852L330.169 319.12ZM397.311 357.884L330.169 319.12L329.169 320.852L396.311 359.616L397.311 357.884ZM403.71 354.19C403.71 356.498 402.907 357.854 401.896 358.438C400.885 359.021 399.31 359.039 397.311 357.884L396.311 359.616C398.674 360.981 401.048 361.237 402.896 360.17C404.744 359.103 405.71 356.919 405.71 354.19H403.71ZM396.311 341.375C398.304 342.525 400.165 344.541 401.53 346.905C402.895 349.269 403.71 351.888 403.71 354.19H405.71C405.71 351.454 404.756 348.492 403.262 345.905C401.768 343.317 399.68 341.01 397.311 339.642L396.311 341.375ZM329.169 302.61L396.311 341.375L397.311 339.642L330.169 300.878L329.169 302.61Z" fill="white" mask="url(#path-17-inside-4_4:343)"/>
<path d="M1 464.706L198.475 578.718L198.475 692.73L0.999997 578.718L1 464.706Z" fill="#0070CC" stroke="white"/>
<path d="M198.475 578.718L395.95 464.706L395.95 578.718L198.475 692.73L198.475 578.718Z" fill="#0070CC" stroke="white"/>
<path d="M198.475 350.694L395.95 464.706L198.475 578.718L1.00005 464.706L198.475 350.694Z" fill="#0070CC" stroke="white"/>
<mask id="path-22-inside-5_4:343" fill="white">
<path fill-rule="evenodd" clip-rule="evenodd" d="M40.6587 544.514C40.6587 552.07 35.3539 555.133 28.8102 551.355C22.2665 547.577 16.9617 538.389 16.9617 530.833C16.9617 523.277 22.2665 520.214 28.8102 523.992C35.3539 527.77 40.6587 536.958 40.6587 544.514ZM72.5821 562.756C72.5821 570.312 67.2773 573.375 60.7336 569.597C54.1899 565.819 48.8851 556.631 48.8851 549.075C48.8851 541.519 54.1899 538.456 60.7336 542.234C67.2773 546.012 72.5821 555.2 72.5821 562.756ZM104.669 574.158C100.307 571.639 96.7702 573.681 96.7702 578.718C96.7702 583.755 100.307 589.881 104.669 592.399L171.811 631.164C176.173 633.682 179.71 631.64 179.71 626.603C179.71 621.566 176.173 615.44 171.811 612.922L104.669 574.158Z"/>
</mask>
<path fill-rule="evenodd" clip-rule="evenodd" d="M40.6587 544.514C40.6587 552.07 35.3539 555.133 28.8102 551.355C22.2665 547.577 16.9617 538.389 16.9617 530.833C16.9617 523.277 22.2665 520.214 28.8102 523.992C35.3539 527.77 40.6587 536.958 40.6587 544.514ZM72.5821 562.756C72.5821 570.312 67.2773 573.375 60.7336 569.597C54.1899 565.819 48.8851 556.631 48.8851 549.075C48.8851 541.519 54.1899 538.456 60.7336 542.234C67.2773 546.012 72.5821 555.2 72.5821 562.756ZM104.669 574.158C100.307 571.639 96.7702 573.681 96.7702 578.718C96.7702 583.755 100.307 589.881 104.669 592.399L171.811 631.164C176.173 633.682 179.71 631.64 179.71 626.603C179.71 621.566 176.173 615.44 171.811 612.922L104.669 574.158Z" fill="#0070CC"/>
<path d="M28.8102 551.355L29.3102 550.489V550.489L28.8102 551.355ZM40.6587 544.514H41.6587H40.6587ZM16.9617 530.833H17.9617H16.9617ZM28.8102 523.992L28.3102 524.858L28.8102 523.992ZM60.7336 569.597L61.2336 568.731L60.7336 569.597ZM60.7336 542.234L60.2336 543.1L60.7336 542.234ZM104.669 574.158L104.169 575.024L104.669 574.158ZM104.669 592.399L104.169 593.265L104.669 592.399ZM171.811 631.164L172.311 630.298L171.811 631.164ZM171.811 612.922L172.311 612.056L171.811 612.922ZM28.3102 552.221C31.7642 554.215 35.1257 554.531 37.6883 553.051C40.251 551.571 41.6587 548.503 41.6587 544.514H39.6587C39.6587 548.082 38.414 550.323 36.6883 551.319C34.9626 552.315 32.3999 552.273 29.3102 550.489L28.3102 552.221ZM15.9617 530.833C15.9617 534.828 17.3574 539.185 19.566 543.011C21.7747 546.836 24.8505 550.224 28.3102 552.221L29.3102 550.489C26.2261 548.708 23.3777 545.613 21.2981 542.011C19.2184 538.409 17.9617 534.394 17.9617 530.833H15.9617ZM29.3102 523.126C25.8561 521.132 22.4947 520.817 19.932 522.296C17.3694 523.776 15.9617 526.844 15.9617 530.833H17.9617C17.9617 527.265 19.2063 525.025 20.932 524.028C22.6577 523.032 25.2205 523.074 28.3102 524.858L29.3102 523.126ZM41.6587 544.514C41.6587 540.519 40.263 536.162 38.0544 532.336C35.8457 528.511 32.7699 525.124 29.3102 523.126L28.3102 524.858C31.3943 526.639 34.2427 529.734 36.3223 533.336C38.402 536.939 39.6587 540.953 39.6587 544.514H41.6587ZM60.2336 570.463C63.6876 572.457 67.0491 572.773 69.6117 571.293C72.1744 569.813 73.5821 566.745 73.5821 562.756H71.5821C71.5821 566.324 70.3374 568.565 68.6117 569.561C66.886 570.557 64.3233 570.515 61.2336 568.731L60.2336 570.463ZM47.8851 549.075C47.8851 553.07 49.2808 557.427 51.4894 561.253C53.6981 565.078 56.7739 568.466 60.2336 570.463L61.2336 568.731C58.1495 566.95 55.3011 563.855 53.2215 560.253C51.1418 556.651 49.8851 552.636 49.8851 549.075H47.8851ZM61.2336 541.368C57.7795 539.374 54.4181 539.059 51.8554 540.538C49.2928 542.018 47.8851 545.086 47.8851 549.075H49.8851C49.8851 545.507 51.1297 543.267 52.8554 542.27C54.5811 541.274 57.1439 541.316 60.2336 543.1L61.2336 541.368ZM73.5821 562.756C73.5821 558.761 72.1864 554.404 69.9778 550.578C67.7691 546.753 64.6933 543.366 61.2336 541.368L60.2336 543.1C63.3177 544.881 66.1661 547.976 68.2457 551.578C70.3254 555.18 71.5821 559.195 71.5821 562.756H73.5821ZM97.7702 578.718C97.7702 576.41 98.5728 575.054 99.5838 574.47C100.595 573.887 102.17 573.869 104.169 575.024L105.169 573.291C102.806 571.927 100.432 571.671 98.5838 572.738C96.7359 573.805 95.7702 575.989 95.7702 578.718H97.7702ZM105.169 591.533C103.176 590.383 101.315 588.367 99.9498 586.003C98.5849 583.639 97.7702 581.02 97.7702 578.718H95.7702C95.7702 581.454 96.7238 584.416 98.2178 587.003C99.7117 589.591 101.8 591.898 104.169 593.265L105.169 591.533ZM172.311 630.298L105.169 591.533L104.169 593.265L171.311 632.03L172.311 630.298ZM178.71 626.603C178.71 628.911 177.907 630.267 176.896 630.851C175.885 631.435 174.31 631.452 172.311 630.298L171.311 632.03C173.674 633.394 176.048 633.65 177.896 632.583C179.744 631.516 180.71 629.332 180.71 626.603H178.71ZM171.311 613.788C173.304 614.939 175.165 616.954 176.53 619.318C177.895 621.682 178.71 624.301 178.71 626.603H180.71C180.71 623.868 179.756 620.905 178.262 618.318C176.768 615.73 174.68 613.423 172.311 612.056L171.311 613.788ZM104.169 575.024L171.311 613.788L172.311 612.056L105.169 573.291L104.169 575.024Z" fill="white" mask="url(#path-22-inside-5_4:343)"/>
<path d="M1 337.012L198.475 451.024L198.475 565.037L0.999997 451.024L1 337.012Z" fill="#0070CC" stroke="white"/>
<path d="M198.475 451.024L395.95 337.012L395.95 451.024L198.475 565.037L198.475 451.024Z" fill="#0070CC" stroke="white"/>
<path d="M198.475 223L395.95 337.012L198.475 451.024L1.00005 337.012L198.475 223Z" fill="#0070CC" stroke="white"/>
<mask id="path-27-inside-6_4:343" fill="white">
<path fill-rule="evenodd" clip-rule="evenodd" d="M40.6587 421.381C40.6587 428.937 35.3539 432 28.8102 428.222C22.2665 424.444 16.9617 415.256 16.9617 407.7C16.9617 400.144 22.2665 397.081 28.8102 400.859C35.3539 404.637 40.6587 413.825 40.6587 421.381ZM72.5821 439.623C72.5821 447.179 67.2773 450.242 60.7336 446.464C54.1899 442.686 48.8851 433.498 48.8851 425.942C48.8851 418.386 54.1899 415.323 60.7336 419.101C67.2773 422.879 72.5821 432.067 72.5821 439.623ZM104.669 448.744C100.307 446.226 96.7702 448.267 96.7702 453.305C96.7702 458.342 100.307 464.468 104.669 466.986L171.811 505.75C176.173 508.269 179.71 506.227 179.71 501.19C179.71 496.153 176.173 490.027 171.811 487.508L104.669 448.744Z"/>
</mask>
<path fill-rule="evenodd" clip-rule="evenodd" d="M40.6587 421.381C40.6587 428.937 35.3539 432 28.8102 428.222C22.2665 424.444 16.9617 415.256 16.9617 407.7C16.9617 400.144 22.2665 397.081 28.8102 400.859C35.3539 404.637 40.6587 413.825 40.6587 421.381ZM72.5821 439.623C72.5821 447.179 67.2773 450.242 60.7336 446.464C54.1899 442.686 48.8851 433.498 48.8851 425.942C48.8851 418.386 54.1899 415.323 60.7336 419.101C67.2773 422.879 72.5821 432.067 72.5821 439.623ZM104.669 448.744C100.307 446.226 96.7702 448.267 96.7702 453.305C96.7702 458.342 100.307 464.468 104.669 466.986L171.811 505.75C176.173 508.269 179.71 506.227 179.71 501.19C179.71 496.153 176.173 490.027 171.811 487.508L104.669 448.744Z" fill="#0070CC"/>
<path d="M40.6587 421.381H41.6587H40.6587ZM16.9617 407.7H17.9617H16.9617ZM28.8102 400.859L28.3102 401.725L28.8102 400.859ZM60.7336 446.464L60.2336 447.33L60.7336 446.464ZM60.7336 419.101L60.2336 419.967L60.7336 419.101ZM104.669 448.744L104.169 449.61L104.669 448.744ZM104.669 466.986L105.169 466.12L104.669 466.986ZM171.811 505.75L171.311 506.616L171.811 505.75ZM171.811 487.508L171.311 488.375L171.811 487.508ZM28.3102 429.088C31.7642 431.082 35.1257 431.398 37.6883 429.918C40.251 428.439 41.6587 425.37 41.6587 421.381H39.6587C39.6587 424.949 38.414 427.19 36.6883 428.186C34.9626 429.182 32.3999 429.14 29.3102 427.356L28.3102 429.088ZM15.9617 407.7C15.9617 411.695 17.3574 416.052 19.566 419.878C21.7747 423.703 24.8505 427.091 28.3102 429.088L29.3102 427.356C26.2261 425.575 23.3777 422.48 21.2981 418.878C19.2184 415.276 17.9617 411.261 17.9617 407.7H15.9617ZM29.3102 399.993C25.8561 397.999 22.4947 397.684 19.932 399.163C17.3694 400.643 15.9617 403.712 15.9617 407.7H17.9617C17.9617 404.132 19.2063 401.892 20.932 400.895C22.6577 399.899 25.2205 399.941 28.3102 401.725L29.3102 399.993ZM41.6587 421.381C41.6587 417.387 40.263 413.029 38.0544 409.204C35.8457 405.378 32.7699 401.991 29.3102 399.993L28.3102 401.725C31.3943 403.506 34.2427 406.601 36.3223 410.204C38.402 413.806 39.6587 417.82 39.6587 421.381H41.6587ZM60.2336 447.33C63.6876 449.324 67.0491 449.64 69.6117 448.16C72.1744 446.681 73.5821 443.612 73.5821 439.623H71.5821C71.5821 443.191 70.3374 445.432 68.6117 446.428C66.886 447.424 64.3233 447.382 61.2336 445.598L60.2336 447.33ZM47.8851 425.942C47.8851 429.937 49.2808 434.294 51.4894 438.12C53.6981 441.945 56.7739 445.333 60.2336 447.33L61.2336 445.598C58.1495 443.817 55.3011 440.722 53.2215 437.12C51.1418 433.518 49.8851 429.503 49.8851 425.942H47.8851ZM61.2336 418.235C57.7795 416.241 54.4181 415.926 51.8554 417.405C49.2928 418.885 47.8851 421.953 47.8851 425.942H49.8851C49.8851 422.374 51.1297 420.134 52.8554 419.137C54.5811 418.141 57.1439 418.183 60.2336 419.967L61.2336 418.235ZM73.5821 439.623C73.5821 435.628 72.1864 431.271 69.9778 427.445C67.7691 423.62 64.6933 420.233 61.2336 418.235L60.2336 419.967C63.3177 421.748 66.1661 424.843 68.2457 428.445C70.3254 432.048 71.5821 436.062 71.5821 439.623H73.5821ZM97.7702 453.305C97.7702 450.996 98.5728 449.641 99.5838 449.057C100.595 448.473 102.17 448.456 104.169 449.61L105.169 447.878C102.806 446.514 100.432 446.258 98.5838 447.325C96.7359 448.392 95.7702 450.576 95.7702 453.305H97.7702ZM105.169 466.12C103.176 464.969 101.315 462.954 99.9498 460.59C98.5849 458.226 97.7702 455.607 97.7702 453.305H95.7702C95.7702 456.04 96.7238 459.002 98.2178 461.59C99.7117 464.178 101.8 466.485 104.169 467.852L105.169 466.12ZM172.311 504.884L105.169 466.12L104.169 467.852L171.311 506.616L172.311 504.884ZM178.71 501.19C178.71 503.498 177.907 504.854 176.896 505.438C175.885 506.021 174.31 506.039 172.311 504.884L171.311 506.616C173.674 507.981 176.048 508.237 177.896 507.17C179.744 506.103 180.71 503.919 180.71 501.19H178.71ZM171.311 488.375C173.304 489.525 175.165 491.541 176.53 493.905C177.895 496.269 178.71 498.888 178.71 501.19H180.71C180.71 498.454 179.756 495.492 178.262 492.905C176.768 490.317 174.68 488.01 172.311 486.642L171.311 488.375ZM104.169 449.61L171.311 488.375L172.311 486.642L105.169 447.878L104.169 449.61Z" fill="white" mask="url(#path-27-inside-6_4:343)"/>
<path d="M447 447.706L644.475 561.718L644.475 675.73L447 561.718L447 447.706Z" fill="#0070CC" stroke="white"/>
<path d="M644.475 333.694L841.95 447.706L644.475 561.718L447 447.706L644.475 333.694Z" fill="#0070CC" stroke="white"/>
<mask id="path-31-inside-7_4:343" fill="white">
<path fill-rule="evenodd" clip-rule="evenodd" d="M486.659 527.514C486.659 535.07 481.354 538.133 474.81 534.355C468.266 530.577 462.962 521.389 462.962 513.833C462.962 506.277 468.266 503.214 474.81 506.992C481.354 510.77 486.659 519.958 486.659 527.514ZM518.582 545.756C518.582 553.312 513.277 556.375 506.734 552.597C500.19 548.819 494.885 539.631 494.885 532.075C494.885 524.519 500.19 521.456 506.734 525.234C513.277 529.012 518.582 538.2 518.582 545.756ZM550.669 557.158C546.307 554.639 542.77 556.681 542.77 561.718C542.77 566.755 546.307 572.881 550.669 575.399L617.811 614.164C622.173 616.682 625.71 614.64 625.71 609.603C625.71 604.566 622.173 598.44 617.811 595.922L550.669 557.158Z"/>
</mask>
<path fill-rule="evenodd" clip-rule="evenodd" d="M486.659 527.514C486.659 535.07 481.354 538.133 474.81 534.355C468.266 530.577 462.962 521.389 462.962 513.833C462.962 506.277 468.266 503.214 474.81 506.992C481.354 510.77 486.659 519.958 486.659 527.514ZM518.582 545.756C518.582 553.312 513.277 556.375 506.734 552.597C500.19 548.819 494.885 539.631 494.885 532.075C494.885 524.519 500.19 521.456 506.734 525.234C513.277 529.012 518.582 538.2 518.582 545.756ZM550.669 557.158C546.307 554.639 542.77 556.681 542.77 561.718C542.77 566.755 546.307 572.881 550.669 575.399L617.811 614.164C622.173 616.682 625.71 614.64 625.71 609.603C625.71 604.566 622.173 598.44 617.811 595.922L550.669 557.158Z" fill="#0070CC"/>
<path d="M474.81 534.355L475.31 533.489V533.489L474.81 534.355ZM486.659 527.514H487.659H486.659ZM462.962 513.833H463.962H462.962ZM474.81 506.992L474.31 507.858L474.81 506.992ZM506.734 552.597L507.234 551.731L506.734 552.597ZM506.734 525.234L506.234 526.1L506.734 525.234ZM550.669 557.158L550.169 558.024L550.669 557.158ZM550.669 575.399L550.169 576.265L550.669 575.399ZM617.811 614.164L618.311 613.298L617.811 614.164ZM617.811 595.922L618.311 595.056L617.811 595.922ZM474.31 535.221C477.764 537.215 481.126 537.531 483.688 536.051C486.251 534.571 487.659 531.503 487.659 527.514H485.659C485.659 531.082 484.414 533.323 482.688 534.319C480.963 535.315 478.4 535.273 475.31 533.489L474.31 535.221ZM461.962 513.833C461.962 517.828 463.357 522.185 465.566 526.011C467.775 529.836 470.851 533.224 474.31 535.221L475.31 533.489C472.226 531.708 469.378 528.613 467.298 525.011C465.218 521.409 463.962 517.394 463.962 513.833H461.962ZM475.31 506.126C471.856 504.132 468.495 503.817 465.932 505.296C463.369 506.776 461.962 509.844 461.962 513.833H463.962C463.962 510.265 465.206 508.025 466.932 507.028C468.658 506.032 471.221 506.074 474.31 507.858L475.31 506.126ZM487.659 527.514C487.659 523.519 486.263 519.162 484.054 515.336C481.846 511.511 478.77 508.124 475.31 506.126L474.31 507.858C477.394 509.639 480.243 512.734 482.322 516.336C484.402 519.939 485.659 523.953 485.659 527.514H487.659ZM506.234 553.463C509.688 555.457 513.049 555.773 515.612 554.293C518.174 552.813 519.582 549.745 519.582 545.756H517.582C517.582 549.324 516.337 551.565 514.612 552.561C512.886 553.557 510.323 553.515 507.234 551.731L506.234 553.463ZM493.885 532.075C493.885 536.07 495.281 540.427 497.489 544.253C499.698 548.078 502.774 551.466 506.234 553.463L507.234 551.731C504.15 549.95 501.301 546.855 499.222 543.253C497.142 539.651 495.885 535.636 495.885 532.075H493.885ZM507.234 524.368C503.78 522.374 500.418 522.059 497.855 523.538C495.293 525.018 493.885 528.086 493.885 532.075H495.885C495.885 528.507 497.13 526.267 498.855 525.27C500.581 524.274 503.144 524.316 506.234 526.1L507.234 524.368ZM519.582 545.756C519.582 541.761 518.186 537.404 515.978 533.578C513.769 529.753 510.693 526.366 507.234 524.368L506.234 526.1C509.318 527.881 512.166 530.976 514.246 534.578C516.325 538.18 517.582 542.195 517.582 545.756H519.582ZM543.77 561.718C543.77 559.41 544.573 558.054 545.584 557.47C546.595 556.887 548.17 556.869 550.169 558.024L551.169 556.291C548.806 554.927 546.432 554.671 544.584 555.738C542.736 556.805 541.77 558.989 541.77 561.718H543.77ZM551.169 574.533C549.176 573.383 547.315 571.367 545.95 569.003C544.585 566.639 543.77 564.02 543.77 561.718H541.77C541.77 564.454 542.724 567.416 544.218 570.003C545.712 572.591 547.8 574.898 550.169 576.265L551.169 574.533ZM618.311 613.298L551.169 574.533L550.169 576.265L617.311 615.03L618.311 613.298ZM624.71 609.603C624.71 611.911 623.907 613.267 622.896 613.851C621.885 614.435 620.31 614.452 618.311 613.298L617.311 615.03C619.674 616.394 622.048 616.65 623.896 615.583C625.744 614.516 626.71 612.332 626.71 609.603H624.71ZM617.311 596.788C619.304 597.939 621.165 599.954 622.53 602.318C623.895 604.682 624.71 607.301 624.71 609.603H626.71C626.71 606.868 625.756 603.905 624.262 601.318C622.768 598.73 620.68 596.423 618.311 595.056L617.311 596.788ZM550.169 558.024L617.311 596.788L618.311 595.056L551.169 556.291L550.169 558.024Z" fill="white" mask="url(#path-31-inside-7_4:343)"/>
<path d="M447 320.012L644.475 434.024L644.475 548.037L447 434.024L447 320.012Z" fill="#0070CC" stroke="white"/>
<path d="M644.475 206L841.95 320.012L644.475 434.024L447 320.012L644.475 206Z" fill="#0070CC" stroke="white"/>
<mask id="path-35-inside-8_4:343" fill="white">
<path fill-rule="evenodd" clip-rule="evenodd" d="M486.659 404.381C486.659 411.937 481.354 415 474.81 411.222C468.266 407.444 462.962 398.256 462.962 390.7C462.962 383.144 468.266 380.081 474.81 383.859C481.354 387.637 486.659 396.825 486.659 404.381ZM518.582 422.623C518.582 430.179 513.277 433.242 506.734 429.464C500.19 425.686 494.885 416.498 494.885 408.942C494.885 401.386 500.19 398.323 506.734 402.101C513.277 405.879 518.582 415.067 518.582 422.623ZM550.669 431.744C546.307 429.226 542.77 431.267 542.77 436.305C542.77 441.342 546.307 447.468 550.669 449.986L617.811 488.75C622.173 491.269 625.71 489.227 625.71 484.19C625.71 479.153 622.173 473.027 617.811 470.508L550.669 431.744Z"/>
</mask>
<path fill-rule="evenodd" clip-rule="evenodd" d="M486.659 404.381C486.659 411.937 481.354 415 474.81 411.222C468.266 407.444 462.962 398.256 462.962 390.7C462.962 383.144 468.266 380.081 474.81 383.859C481.354 387.637 486.659 396.825 486.659 404.381ZM518.582 422.623C518.582 430.179 513.277 433.242 506.734 429.464C500.19 425.686 494.885 416.498 494.885 408.942C494.885 401.386 500.19 398.323 506.734 402.101C513.277 405.879 518.582 415.067 518.582 422.623ZM550.669 431.744C546.307 429.226 542.77 431.267 542.77 436.305C542.77 441.342 546.307 447.468 550.669 449.986L617.811 488.75C622.173 491.269 625.71 489.227 625.71 484.19C625.71 479.153 622.173 473.027 617.811 470.508L550.669 431.744Z" fill="#0070CC"/>
<path d="M486.659 404.381H487.659H486.659ZM462.962 390.7H463.962H462.962ZM474.81 383.859L474.31 384.725L474.81 383.859ZM506.734 429.464L506.234 430.33L506.734 429.464ZM506.734 402.101L506.234 402.967L506.734 402.101ZM550.669 431.744L550.169 432.61L550.669 431.744ZM550.669 449.986L551.169 449.12L550.669 449.986ZM617.811 488.75L617.311 489.616L617.811 488.75ZM617.811 470.508L617.311 471.375L617.811 470.508ZM474.31 412.088C477.764 414.082 481.126 414.398 483.688 412.918C486.251 411.439 487.659 408.37 487.659 404.381H485.659C485.659 407.949 484.414 410.19 482.688 411.186C480.963 412.182 478.4 412.14 475.31 410.356L474.31 412.088ZM461.962 390.7C461.962 394.695 463.357 399.052 465.566 402.878C467.775 406.703 470.851 410.091 474.31 412.088L475.31 410.356C472.226 408.575 469.378 405.48 467.298 401.878C465.218 398.276 463.962 394.261 463.962 390.7H461.962ZM475.31 382.993C471.856 380.999 468.495 380.684 465.932 382.163C463.369 383.643 461.962 386.712 461.962 390.7H463.962C463.962 387.132 465.206 384.892 466.932 383.895C468.658 382.899 471.221 382.941 474.31 384.725L475.31 382.993ZM487.659 404.381C487.659 400.387 486.263 396.029 484.054 392.204C481.846 388.378 478.77 384.991 475.31 382.993L474.31 384.725C477.394 386.506 480.243 389.601 482.322 393.204C484.402 396.806 485.659 400.82 485.659 404.381H487.659ZM506.234 430.33C509.688 432.324 513.049 432.64 515.612 431.16C518.174 429.681 519.582 426.612 519.582 422.623H517.582C517.582 426.191 516.337 428.432 514.612 429.428C512.886 430.424 510.323 430.382 507.234 428.598L506.234 430.33ZM493.885 408.942C493.885 412.937 495.281 417.294 497.489 421.12C499.698 424.945 502.774 428.333 506.234 430.33L507.234 428.598C504.15 426.817 501.301 423.722 499.222 420.12C497.142 416.518 495.885 412.503 495.885 408.942H493.885ZM507.234 401.235C503.78 399.241 500.418 398.926 497.855 400.405C495.293 401.885 493.885 404.953 493.885 408.942H495.885C495.885 405.374 497.13 403.134 498.855 402.137C500.581 401.141 503.144 401.183 506.234 402.967L507.234 401.235ZM519.582 422.623C519.582 418.628 518.186 414.271 515.978 410.445C513.769 406.62 510.693 403.233 507.234 401.235L506.234 402.967C509.318 404.748 512.166 407.843 514.246 411.445C516.325 415.048 517.582 419.062 517.582 422.623H519.582ZM543.77 436.305C543.77 433.996 544.573 432.641 545.584 432.057C546.595 431.473 548.17 431.456 550.169 432.61L551.169 430.878C548.806 429.514 546.432 429.258 544.584 430.325C542.736 431.392 541.77 433.576 541.77 436.305H543.77ZM551.169 449.12C549.176 447.969 547.315 445.954 545.95 443.59C544.585 441.226 543.77 438.607 543.77 436.305H541.77C541.77 439.04 542.724 442.002 544.218 444.59C545.712 447.178 547.8 449.485 550.169 450.852L551.169 449.12ZM618.311 487.884L551.169 449.12L550.169 450.852L617.311 489.616L618.311 487.884ZM624.71 484.19C624.71 486.498 623.907 487.854 622.896 488.438C621.885 489.021 620.31 489.039 618.311 487.884L617.311 489.616C619.674 490.981 622.048 491.237 623.896 490.17C625.744 489.103 626.71 486.919 626.71 484.19H624.71ZM617.311 471.375C619.304 472.525 621.165 474.541 622.53 476.905C623.895 479.269 624.71 481.888 624.71 484.19H626.71C626.71 481.454 625.756 478.492 624.262 475.905C622.768 473.317 620.68 471.01 618.311 469.642L617.311 471.375ZM550.169 432.61L617.311 471.375L618.311 469.642L551.169 430.878L550.169 432.61Z" fill="white" mask="url(#path-35-inside-8_4:343)"/>
</svg>
