<svg width="698" height="495" viewBox="0 0 698 495" fill="none" xmlns="http://www.w3.org/2000/svg">
<path d="M385.314 130.402L422.178 209.832L321.465 267.979L183.888 246.695L147.024 167.265L247.737 109.118L385.314 130.402Z" fill="#0070CC" stroke="white"/>
<path d="M147.32 167.13L183.976 246.192V308.005L147.32 228.942V167.13Z" fill="#0070CC" stroke="white"/>
<path d="M183.976 246.551L321.347 266.856V328.669L183.976 308.364V246.551Z" fill="#0070CC" stroke="white"/>
<path d="M196.978 287.61L270.114 298.42V310.246L196.978 299.436V287.61Z" fill="#0070CC" stroke="white"/>
<path d="M422.107 209.85L321.347 266.856V328.669L422.107 271.663V209.85Z" fill="#0070CC" stroke="white"/>
<path d="M414.022 257.202C414.022 252.555 410.759 250.671 406.734 252.995C402.709 255.319 399.446 260.97 399.446 265.618C399.446 270.265 402.709 272.149 406.734 269.825C410.759 267.501 414.022 261.85 414.022 257.202Z" fill="#0070CC" stroke="white"/>
<path d="M385.314 58.4784L422.178 137.909L321.465 196.055L183.888 174.772L147.024 95.3421L247.737 37.1952L385.314 58.4784Z" fill="#0070CC" stroke="white"/>
<path d="M147.32 95.2065L183.976 174.269V236.081L147.32 157.019V95.2065Z" fill="#0070CC" stroke="white"/>
<path d="M183.976 174.628L321.347 194.933V256.745L183.976 236.441V174.628Z" fill="#0070CC" stroke="white"/>
<path d="M196.978 214.932L270.114 225.742V237.567L196.978 226.757V214.932Z" fill="#0070CC" stroke="white"/>
<path d="M422.107 137.927L321.347 194.933V256.745L422.107 199.739V137.927Z" fill="#0070CC" stroke="white"/>
<path d="M414.022 185.827C414.022 181.179 410.759 179.296 406.734 181.619C402.709 183.943 399.446 189.595 399.446 194.242C399.446 198.89 402.709 200.774 406.734 198.45C410.759 196.126 414.022 190.475 414.022 185.827Z" fill="#0070CC" stroke="white"/>
<path d="M597.213 253.402L634.077 332.832L533.364 390.979L395.787 369.695L358.923 290.265L459.636 232.118L597.213 253.402Z" fill="#0070CC" stroke="white"/>
<path d="M359.219 290.13L395.875 369.192V431.005L359.219 351.942V290.13Z" fill="#0070CC" stroke="white"/>
<path d="M395.875 369.551L533.246 389.856V451.669L395.875 431.364V369.551Z" fill="#0070CC" stroke="white"/>
<path d="M408.877 410.61L482.013 421.42V433.246L408.877 422.435V410.61Z" fill="#0070CC" stroke="white"/>
<path d="M634.006 332.85L533.246 389.856V451.668L634.006 394.663V332.85Z" fill="#0070CC" stroke="white"/>
<path d="M625.921 380.202C625.921 375.555 622.658 373.671 618.633 375.995C614.608 378.319 611.345 383.97 611.345 388.618C611.345 393.265 614.608 395.149 618.633 392.825C622.658 390.501 625.921 384.85 625.921 380.202Z" fill="#0070CC" stroke="white"/>
<path d="M597.213 181.478L634.077 260.908L533.364 319.055L395.787 297.772L358.923 218.342L459.636 160.195L597.213 181.478Z" fill="#0070CC" stroke="white"/>
<path d="M359.219 218.207L395.875 297.269V359.081L359.219 280.019V218.207Z" fill="#0070CC" stroke="white"/>
<path d="M395.875 297.628L533.246 317.933V379.745L395.875 359.441V297.628Z" fill="#0070CC" stroke="white"/>
<path d="M408.877 337.932L482.013 348.742V360.567L408.877 349.757V337.932Z" fill="#0070CC" stroke="white"/>
<path d="M634.006 260.927L533.246 317.933V379.745L634.006 322.739V260.927Z" fill="#0070CC" stroke="white"/>
<path d="M625.921 308.827C625.921 304.179 622.658 302.296 618.633 304.619C614.608 306.943 611.345 312.595 611.345 317.242C611.345 321.89 614.608 323.774 618.633 321.45C622.658 319.126 625.921 313.475 625.921 308.827Z" fill="#0070CC" stroke="white"/>
<path d="M302.213 295.402L339.077 374.832L238.364 432.979L100.787 411.695L63.923 332.265L164.636 274.118L302.213 295.402Z" fill="#0070CC" stroke="white"/>
<path d="M64.2189 332.13L100.875 411.192V473.005L64.2189 393.942V332.13Z" fill="#0070CC" stroke="white"/>
<path d="M100.875 411.551L238.246 431.856V493.669L100.875 473.364V411.551Z" fill="#0070CC" stroke="white"/>
<path d="M113.876 452.61L187.013 463.42V475.246L113.876 464.435V452.61Z" fill="#0070CC" stroke="white"/>
<path d="M339.006 374.85L238.246 431.856V493.668L339.006 436.663V374.85Z" fill="#0070CC" stroke="white"/>
<path d="M330.921 422.202C330.921 417.555 327.658 415.671 323.633 417.995C319.608 420.319 316.345 425.97 316.345 430.618C316.345 435.265 319.608 437.149 323.633 434.825C327.658 432.501 330.921 426.85 330.921 422.202Z" fill="#0070CC" stroke="white"/>
<path d="M302.213 223.478L339.077 302.908L238.364 361.055L100.787 339.772L63.923 260.342L164.636 202.195L302.213 223.478Z" fill="#0070CC" stroke="white"/>
<path d="M64.2189 260.207L100.875 339.269V401.081L64.2189 322.019V260.207Z" fill="#0070CC" stroke="white"/>
<path d="M100.875 339.628L238.246 359.933V421.745L100.875 401.441V339.628Z" fill="#0070CC" stroke="white"/>
<path d="M113.876 379.932L187.013 390.742V402.567L113.876 391.757V379.932Z" fill="#0070CC" stroke="white"/>
<path d="M339.006 302.927L238.246 359.933V421.745L339.006 364.739V302.927Z" fill="#0070CC" stroke="white"/>
<path d="M330.921 350.827C330.921 346.179 327.658 344.296 323.633 346.619C319.608 348.943 316.345 354.595 316.345 359.242C316.345 363.89 319.608 365.774 323.633 363.45C327.658 361.126 330.921 355.475 330.921 350.827Z" fill="#0070CC" stroke="white"/>
</svg>
