<svg width="616" height="602" fill="none" xmlns="http://www.w3.org/2000/svg"><path d="M482.735 163.48H223v79.29h.063c-.802 19.769 11.862 39.687 37.993 54.774 50.706 29.275 132.916 29.275 183.622 0 26.131-15.087 38.796-35.005 37.994-54.774h.063v-79.29Z" fill="#0070CC" stroke="#fff"/><path d="M261.057 112.24c50.706-29.275 132.916-29.275 183.622 0 50.705 29.275 50.705 76.739 0 106.014-50.706 29.275-132.916 29.275-183.622 0-50.706-29.275-50.706-76.739 0-106.014Z" fill="#0070CC" stroke="#fff"/><path d="M482.735 74.196H223v79.29h.063c-.802 19.769 11.862 39.687 37.993 54.774 50.706 29.275 132.916 29.275 183.622 0 26.131-15.087 38.796-35.005 37.994-54.774h.063v-79.29Z" fill="#0070CC" stroke="#fff"/><path d="M261.057 22.956c50.706-29.275 132.916-29.275 183.622 0 50.705 29.275 50.705 76.74 0 106.014-50.706 29.275-132.916 29.275-183.622 0-50.706-29.275-50.706-76.739 0-106.014ZM614.735 445.48H355v79.29h.063c-.802 19.769 11.862 39.687 37.993 54.774 50.706 29.275 132.916 29.275 183.622 0 26.131-15.087 38.796-35.005 37.994-54.774h.063v-79.29Z" fill="#0070CC" stroke="#fff"/><path d="M393.057 394.24c50.706-29.275 132.916-29.275 183.622 0 50.705 29.275 50.705 76.739 0 106.014-50.706 29.275-132.916 29.275-183.622 0-50.706-29.275-50.706-76.739 0-106.014Z" fill="#0070CC" stroke="#fff"/><path d="M614.735 356.196H355v79.29h.063c-.802 19.769 11.862 39.687 37.993 54.774 50.706 29.275 132.916 29.275 183.622 0 26.131-15.087 38.796-35.005 37.994-54.774h.063v-79.29Z" fill="#0070CC" stroke="#fff"/><path d="M393.057 304.956c50.706-29.275 132.916-29.275 183.622 0 50.705 29.275 50.705 76.739 0 106.014-50.706 29.275-132.916 29.275-183.622 0-50.706-29.275-50.706-76.739 0-106.014ZM260.735 362.48H1v79.29h.063c-.802 19.769 11.862 39.687 37.993 54.774 50.706 29.275 132.916 29.275 183.622 0 26.131-15.087 38.796-35.005 37.994-54.774h.063v-79.29Z" fill="#0070CC" stroke="#fff"/><path d="M39.057 311.24c50.706-29.275 132.916-29.275 183.622 0 50.705 29.275 50.705 76.739 0 106.014-50.706 29.275-132.916 29.275-183.622 0-50.706-29.275-50.706-76.739 0-106.014Z" fill="#0070CC" stroke="#fff"/><path d="M260.735 273.196H1v79.29h.063c-.802 19.769 11.862 39.687 37.993 54.774 50.706 29.275 132.916 29.275 183.622 0 26.131-15.087 38.796-35.005 37.994-54.774h.063v-79.29Z" fill="#0070CC" stroke="#fff"/><path d="M39.057 221.956c50.706-29.275 132.916-29.275 183.622 0 50.705 29.275 50.705 76.739 0 106.014-50.706 29.275-132.916 29.275-183.622 0-50.706-29.275-50.706-76.739 0-106.014Z" fill="#0070CC" stroke="#fff"/></svg>