<svg width="32" height="23" fill="none" xmlns="http://www.w3.org/2000/svg"><g clip-path="url(#a)"><path d="M31.293 3.587a4.133 4.133 0 0 0-1.038-1.833A4.003 4.003 0 0 0 28.46.692C25.978 0 15.984 0 15.984 0S5.989.021 3.506.713a4.003 4.003 0 0 0-1.794 1.062A4.134 4.134 0 0 0 .674 3.608c-.752 4.51-1.043 11.383.02 15.713a4.133 4.133 0 0 0 1.039 1.834 4.002 4.002 0 0 0 1.793 1.061c2.483.693 12.478.693 12.478.693s9.994 0 12.477-.693a4.003 4.003 0 0 0 1.794-1.061 4.135 4.135 0 0 0 1.039-1.834c.792-4.516 1.036-11.385-.02-15.734Z" fill="red"/><path d="m12.803 16.363 8.29-4.909-8.29-4.909v9.818Z" fill="#fff"/></g><defs><clipPath id="a"><path fill="#fff" d="M0 0h32v23H0z"/></clipPath></defs></svg>