<svg xmlns="http://www.w3.org/2000/svg" width="1000" height="277.324" viewBox="0 0 264.583 73.375"><g transform="translate(260.955 41.214)"><path style="opacity:1;fill:#5f01d1;fill-opacity:1;stroke:none;stroke-width:.08756009;stroke-linecap:butt;stroke-linejoin:round;stroke-miterlimit:2.61310005;stroke-dasharray:none;stroke-opacity:1" d="M-260.955-23.352h15.74l9.166 23.45 9.285-23.45h15.326l-23.078 55.514h-15.423l6.317-14.71zm65.484-.933c-11.827 0-19.304 10.607-19.304 21.17 0 11.886 8.197 21.31 19.08 21.31 8.117 0 11.177-4.946 11.177-4.946V17.1h13.73v-40.45h-13.73v3.677s-3.414-4.611-10.953-4.611zm2.92 13c5.457 0 8.273 4.318 8.273 8.214 0 4.196-3.017 8.313-8.273 8.313-4.356 0-8.293-3.56-8.293-8.134 0-4.64 3.166-8.393 8.293-8.393zm26.491 28.386v-58.315h14.36v21.68s3.41-4.746 10.554-4.746c8.738 0 13.857 6.51 13.857 15.814V17.1h-14.254V-4.964c0-3.148-1.5-6.19-4.897-6.19-3.458 0-5.26 3.088-5.26 6.19v22.065Zm63.255-41.381c-13.545 0-21.61 10.299-21.61 21.333 0 12.557 9.765 21.142 21.66 21.142 11.53 0 21.62-8.195 21.62-20.931 0-13.936-10.564-21.544-21.67-21.544zm.129 13.114c4.784 0 8.094 3.985 8.094 8.234 0 3.624-3.084 8.094-8.094 8.094-4.59 0-8.036-3.682-8.036-8.134 0-4.288 2.864-8.194 8.036-8.194zm45.463-13.114c-13.544 0-21.609 10.299-21.609 21.333 0 12.557 9.765 21.142 21.66 21.142 11.53 0 21.619-8.195 21.619-20.931 0-13.936-10.563-21.544-21.67-21.544zm.13 13.114c4.784 0 8.094 3.985 8.094 8.234 0 3.624-3.085 8.094-8.095 8.094-4.59 0-8.035-3.682-8.035-8.134 0-4.288 2.864-8.194 8.035-8.194z"/><circle style="opacity:1;fill:#5f01d1;fill-opacity:1;stroke:none;stroke-width:.08829153;stroke-linecap:butt;stroke-linejoin:round;stroke-miterlimit:2.61310005;stroke-dasharray:none;stroke-opacity:1" cx="-24.212" cy="8.425" r="9.535"/><path style="opacity:1;fill:#5f01d1;fill-opacity:1;stroke:none;stroke-width:.08756009;stroke-linecap:butt;stroke-linejoin:round;stroke-miterlimit:2.61310005;stroke-dasharray:none;stroke-opacity:1" d="M-11.543-4.614H-28.71l15.236-36.6H3.628Z"/></g></svg>