<svg width="468" height="443" fill="none" xmlns="http://www.w3.org/2000/svg"><rect width="464" height="58" rx="20" fill="#E6E6E6"/><path d="m188.977 25 4.398-11.453h1.633L199.695 25h-1.726l-1.336-3.469h-4.789L190.586 25h-1.609Zm3.304-4.703h3.883l-1.195-3.172a31.154 31.154 0 0 1-.813-2.375 14.575 14.575 0 0 1-.617 2.188l-1.258 3.359Zm8.446 7.883V16.703h1.281v1.078c.302-.422.643-.737 1.023-.945.38-.214.841-.32 1.383-.32.708 0 1.333.182 1.875.547.542.364.951.88 1.227 1.546.276.662.414 1.388.414 2.18 0 .849-.154 1.615-.461 2.297-.302.677-.745 1.198-1.328 1.562-.579.36-1.188.54-1.829.54a2.67 2.67 0 0 1-1.265-.297 2.877 2.877 0 0 1-.914-.75v4.039h-1.406ZM202 20.898c0 1.068.216 1.857.648 2.368.433.51.956.765 1.571.765.625 0 1.159-.263 1.601-.789.448-.531.672-1.351.672-2.46 0-1.058-.219-1.85-.656-2.376-.432-.526-.951-.789-1.555-.789-.599 0-1.13.281-1.593.844-.459.557-.688 1.37-.688 2.437Zm7.633 7.282V16.703h1.281v1.078c.302-.422.643-.737 1.024-.945.38-.214.841-.32 1.382-.32.709 0 1.334.182 1.875.547.542.364.951.88 1.227 1.546.276.662.414 1.388.414 2.18 0 .849-.154 1.615-.461 2.297-.302.677-.745 1.198-1.328 1.562a3.41 3.41 0 0 1-1.828.54 2.67 2.67 0 0 1-1.266-.297 2.888 2.888 0 0 1-.914-.75v4.039h-1.406Zm1.273-7.282c0 1.068.216 1.857.649 2.368.432.51.955.765 1.57.765.625 0 1.159-.263 1.602-.789.447-.531.671-1.351.671-2.46 0-1.058-.218-1.85-.656-2.376-.432-.526-.95-.789-1.554-.789-.599 0-1.131.281-1.594.844-.459.557-.688 1.37-.688 2.437ZM218.508 25V13.547h1.406V25h-1.406Zm3.601-9.836v-1.617h1.407v1.617h-1.407Zm0 9.836v-8.297h1.407V25h-1.407Zm8.969-3.04 1.383.18c-.151.954-.539 1.701-1.164 2.243-.62.536-1.383.805-2.289.805-1.136 0-2.05-.37-2.742-1.11-.688-.745-1.032-1.81-1.032-3.195 0-.896.149-1.68.446-2.352.297-.672.747-1.174 1.351-1.508a4.022 4.022 0 0 1 1.985-.507c.901 0 1.638.229 2.211.687.572.453.94 1.1 1.101 1.938l-1.367.21c-.13-.557-.362-.976-.695-1.257-.328-.282-.727-.422-1.196-.422-.708 0-1.284.255-1.726.765-.443.506-.664 1.308-.664 2.407 0 1.114.213 1.924.64 2.43.427.505.985.757 1.672.757.552 0 1.013-.169 1.383-.508.37-.338.604-.859.703-1.562Zm8 2.017c-.521.442-1.023.755-1.508.937a4.31 4.31 0 0 1-1.547.273c-.911 0-1.612-.22-2.101-.664-.49-.447-.734-1.018-.734-1.71 0-.407.091-.776.273-1.11.187-.338.43-.61.727-.812.302-.203.64-.357 1.015-.461.276-.073.693-.143 1.25-.211 1.136-.136 1.971-.297 2.508-.485.005-.192.008-.315.008-.367 0-.573-.133-.976-.399-1.21-.359-.319-.893-.477-1.601-.477-.662 0-1.151.117-1.469.351-.312.23-.544.638-.695 1.227l-1.375-.188c.125-.588.33-1.062.617-1.422.286-.364.7-.643 1.242-.835.542-.198 1.169-.297 1.883-.297.708 0 1.284.083 1.726.25.443.166.769.377.977.632.208.25.354.568.437.954.047.24.071.671.071 1.296v1.875c0 1.308.028 2.136.086 2.485.062.344.182.674.359.992h-1.469a3.008 3.008 0 0 1-.281-1.023Zm-.117-3.141c-.51.208-1.276.385-2.297.531-.578.084-.987.177-1.226.281a1.212 1.212 0 0 0-.75 1.125c0 .375.14.688.421.938.287.25.703.375 1.25.375.542 0 1.024-.117 1.446-.352.422-.24.731-.565.929-.976.151-.318.227-.787.227-1.406v-.516Zm6.68 2.906.203 1.242a5.22 5.22 0 0 1-1.063.125c-.51 0-.906-.08-1.187-.242a1.36 1.36 0 0 1-.594-.633c-.115-.265-.172-.82-.172-1.664v-4.773h-1.031v-1.094h1.031v-2.055l1.399-.843v2.898h1.414v1.094h-1.414v4.851c0 .401.023.66.07.774a.616.616 0 0 0 .242.273c.115.068.276.102.484.102.157 0 .362-.018.618-.055Zm1.39-8.578v-1.617h1.407v1.617h-1.407Zm0 9.836v-8.297h1.407V25h-1.407Zm3.031-4.148c0-1.537.428-2.675 1.282-3.415.713-.614 1.583-.921 2.609-.921 1.141 0 2.073.375 2.797 1.125.724.744 1.086 1.776 1.086 3.093 0 1.068-.162 1.91-.484 2.524a3.378 3.378 0 0 1-1.399 1.422 4.049 4.049 0 0 1-2 .508c-1.161 0-2.101-.373-2.82-1.118-.714-.744-1.071-1.817-1.071-3.218Zm1.446 0c0 1.062.232 1.859.695 2.39a2.234 2.234 0 0 0 1.75.79c.698 0 1.279-.266 1.742-.798.464-.53.696-1.34.696-2.43 0-1.025-.235-1.801-.703-2.327-.464-.532-1.042-.797-1.735-.797-.703 0-1.286.263-1.75.789-.463.526-.695 1.32-.695 2.383ZM259.492 25v-8.297h1.266v1.18c.609-.912 1.489-1.367 2.64-1.367.5 0 .959.09 1.375.273.422.177.737.412.946.703.208.292.354.638.437 1.04.052.26.078.715.078 1.366V25h-1.406v-5.047c0-.573-.055-1-.164-1.281a1.326 1.326 0 0 0-.586-.68 1.807 1.807 0 0 0-.976-.258c-.599 0-1.118.19-1.555.57-.432.38-.649 1.102-.649 2.165V25h-1.406Zm8.344-2.477 1.391-.218c.078.557.294.984.648 1.28.359.298.859.446 1.5.446.646 0 1.125-.13 1.437-.39.313-.266.469-.576.469-.93a.853.853 0 0 0-.414-.75c-.193-.125-.672-.284-1.437-.477-1.032-.26-1.748-.484-2.149-.672a2.137 2.137 0 0 1-.906-.789 2.132 2.132 0 0 1-.305-1.117c0-.37.084-.71.25-1.023a2.32 2.32 0 0 1 .696-.79c.218-.16.515-.296.89-.405.38-.115.787-.172 1.219-.172.651 0 1.221.093 1.711.28.495.188.859.444 1.094.767.234.317.396.744.484 1.28l-1.375.188c-.062-.427-.245-.76-.547-1-.297-.24-.719-.36-1.265-.36-.646 0-1.107.108-1.383.321-.276.214-.414.464-.414.75 0 .182.057.346.172.492.114.151.294.276.539.375.14.052.554.172 1.242.36.995.265 1.687.484 2.078.656.396.167.706.412.93.734.224.323.336.724.336 1.203 0 .47-.138.912-.415 1.329-.27.411-.664.731-1.179.96-.516.225-1.099.337-1.75.337-1.078 0-1.901-.224-2.469-.672-.562-.448-.922-1.112-1.078-1.993ZM34.306 85V74.978h1.326V85h-1.326Zm3.288.602 1.196.177c.05.37.19.638.417.807.305.228.722.342 1.251.342.57 0 1.01-.114 1.32-.342.31-.228.519-.547.628-.957.064-.25.094-.777.09-1.58-.539.634-1.209.951-2.01.951-.999 0-1.771-.36-2.318-1.08-.547-.72-.82-1.584-.82-2.59 0-.694.125-1.332.376-1.915.25-.588.613-1.041 1.087-1.36.478-.32 1.039-.479 1.681-.479.857 0 1.563.347 2.12 1.04v-.876h1.134v6.276c0 1.13-.116 1.93-.349 2.399-.227.474-.592.848-1.093 1.121-.497.274-1.11.41-1.84.41-.865 0-1.565-.196-2.098-.588-.533-.387-.79-.973-.772-1.756Zm1.018-4.362c0 .953.19 1.648.568 2.085a1.8 1.8 0 0 0 1.422.656 1.82 1.82 0 0 0 1.421-.649c.383-.438.575-1.121.575-2.05 0-.89-.199-1.56-.595-2.01-.392-.452-.866-.677-1.422-.677-.547 0-1.012.223-1.395.67-.382.442-.574 1.1-.574 1.975Zm7 3.76v-7.26h1.108v1.032c.533-.797 1.303-1.196 2.31-1.196.438 0 .839.08 1.203.24.37.154.645.36.828.615.182.255.31.558.382.909.046.228.069.626.069 1.196V85h-1.23v-4.416c0-.501-.049-.875-.144-1.121a1.16 1.16 0 0 0-.513-.595 1.583 1.583 0 0 0-.855-.225c-.524 0-.977.166-1.36.499-.378.332-.567.964-.567 1.893V85h-1.23Zm7.8-8.606v-1.416h1.23v1.416h-1.23Zm0 8.606v-7.26h1.23V85h-1.23Zm5.797-1.1.178 1.086c-.347.073-.657.11-.93.11-.447 0-.793-.07-1.039-.212a1.19 1.19 0 0 1-.52-.554c-.1-.232-.15-.718-.15-1.456v-4.177h-.902v-.957h.902v-1.798l1.224-.738v2.536h1.237v.957h-1.237v4.245c0 .351.02.577.061.677.046.1.116.18.212.24.1.059.242.088.424.088.137 0 .317-.016.54-.048Zm6.18-1.238 1.271.157c-.2.743-.572 1.32-1.114 1.73-.542.41-1.235.615-2.078.615-1.062 0-1.905-.326-2.53-.978-.62-.656-.93-1.574-.93-2.754 0-1.222.315-2.17.944-2.844.63-.675 1.445-1.012 2.447-1.012.971 0 1.764.33 2.38.991.615.661.922 1.59.922 2.79 0 .072-.002.182-.007.328H61.28c.046.797.271 1.408.677 1.832.406.423.911.635 1.518.635.45 0 .836-.118 1.155-.355.319-.237.572-.615.759-1.135Zm-4.04-1.99h4.053c-.054-.61-.21-1.068-.465-1.373-.391-.474-.9-.711-1.524-.711-.565 0-1.041.189-1.429.567-.382.379-.594.884-.635 1.518ZM70.386 85l3.848-10.022h1.43L79.763 85h-1.51l-1.169-3.035h-4.19L71.793 85h-1.408Zm2.891-4.115h3.398l-1.046-2.776a27.396 27.396 0 0 1-.711-2.078c-.128.643-.308 1.28-.54 1.914l-1.1 2.94ZM80.824 85V74.978h3.78c.666 0 1.174.032 1.525.096.492.082.904.24 1.237.472.333.228.6.55.8.964.205.414.308.87.308 1.367 0 .852-.272 1.575-.814 2.167-.542.588-1.522.882-2.94.882h-2.57V85h-1.326Zm1.326-5.257h2.591c.857 0 1.465-.16 1.825-.478.36-.32.54-.768.54-1.347 0-.42-.107-.777-.32-1.073-.21-.301-.489-.5-.835-.595-.223-.06-.636-.089-1.237-.089H82.15v3.582ZM90.388 85V74.978h1.326V85h-1.326Zm113.241-3.22 1.251-.11c.059.502.196.915.41 1.238.219.32.556.579 1.012.78a3.87 3.87 0 0 0 1.538.293 3.69 3.69 0 0 0 1.34-.225c.387-.15.674-.356.861-.615a1.44 1.44 0 0 0 .287-.862 1.29 1.29 0 0 0-.273-.82c-.183-.237-.483-.435-.903-.595-.269-.105-.863-.266-1.784-.485-.92-.223-1.565-.433-1.934-.629-.479-.25-.837-.56-1.074-.93a2.324 2.324 0 0 1-.348-1.25c0-.506.143-.978.43-1.416.287-.442.707-.777 1.258-1.005a4.776 4.776 0 0 1 1.839-.341c.743 0 1.397.12 1.962.362.57.237 1.007.588 1.312 1.053.306.465.47.99.493 1.579l-1.272.095c-.068-.633-.301-1.112-.697-1.435-.392-.324-.973-.485-1.743-.485-.802 0-1.388.148-1.757.444-.365.292-.547.645-.547 1.06 0 .36.13.656.39.888.255.233.92.472 1.996.718 1.08.242 1.82.453 2.221.636.584.269 1.014.61 1.292 1.025.278.41.417.884.417 1.422 0 .533-.152 1.037-.458 1.51-.305.47-.745.837-1.319 1.101-.57.26-1.212.39-1.928.39-.907 0-1.668-.132-2.283-.397a3.222 3.222 0 0 1-1.442-1.189 3.41 3.41 0 0 1-.547-1.805Zm9.632 6.002V77.74h1.121v.944a2.73 2.73 0 0 1 .895-.828c.333-.186.736-.28 1.21-.28.62 0 1.167.16 1.641.479.474.319.832.77 1.073 1.353.242.579.362 1.215.362 1.907 0 .743-.134 1.413-.403 2.01-.264.593-.652 1.048-1.162 1.367a2.983 2.983 0 0 1-1.6.472c-.41 0-.779-.087-1.107-.26a2.525 2.525 0 0 1-.8-.656v3.534h-1.23Zm1.114-6.37c0 .933.189 1.624.567 2.07.379.447.837.67 1.374.67.547 0 1.014-.23 1.402-.69.392-.465.588-1.183.588-2.153 0-.925-.192-1.618-.575-2.078-.378-.46-.831-.691-1.36-.691-.524 0-.989.246-1.394.738-.401.488-.602 1.199-.602 2.133Zm11.416 2.692c-.456.388-.895.661-1.319.82-.42.16-.871.24-1.354.24-.797 0-1.41-.194-1.839-.581-.428-.392-.642-.89-.642-1.497 0-.355.079-.68.239-.97.164-.297.376-.534.636-.712a3.03 3.03 0 0 1 .888-.403 8.845 8.845 0 0 1 1.094-.185c.994-.118 1.725-.26 2.194-.423.005-.169.007-.276.007-.322 0-.501-.116-.854-.348-1.06-.315-.277-.782-.416-1.402-.416-.578 0-1.007.102-1.285.307-.273.2-.476.559-.608 1.074l-1.203-.165c.109-.515.289-.93.54-1.244.25-.319.613-.562 1.087-.731.474-.173 1.023-.26 1.647-.26.62 0 1.123.073 1.511.219.387.146.672.33.854.554.183.218.31.496.383.834.041.21.062.587.062 1.134v1.641c0 1.144.025 1.868.075 2.174.054.3.159.59.314.868h-1.285a2.612 2.612 0 0 1-.246-.895Zm-.103-2.748c-.446.183-1.116.338-2.009.465-.506.073-.864.155-1.074.246a1.065 1.065 0 0 0-.656.985c0 .328.123.601.369.82.251.219.616.328 1.094.328a2.56 2.56 0 0 0 1.265-.307c.369-.21.64-.495.813-.855.132-.278.198-.688.198-1.23v-.452ZM228.833 85v-7.26h1.107v1.1c.283-.514.543-.854.78-1.018a1.38 1.38 0 0 1 .793-.246c.414 0 .836.132 1.264.397l-.423 1.141a1.762 1.762 0 0 0-.903-.266c-.269 0-.51.082-.724.246a1.29 1.29 0 0 0-.458.67 4.783 4.783 0 0 0-.206 1.435V85h-1.23Zm4.683 0V74.978h1.23v5.715l2.912-2.953h1.593l-2.775 2.694L239.531 85h-1.517l-2.4-3.712-.868.834V85h-1.23Zm9.167 0 3.848-10.022h1.429L252.062 85h-1.511l-1.169-3.035h-4.191l-1.1 3.035h-1.408Zm2.891-4.115h3.398l-1.046-2.776a27.449 27.449 0 0 1-.711-2.078c-.128.643-.308 1.28-.54 1.914l-1.101 2.94ZM253.121 85V74.978h3.78c.666 0 1.174.032 1.525.096.492.082.904.24 1.237.472.333.228.599.55.8.964.205.414.308.87.308 1.367 0 .852-.272 1.575-.814 2.167-.542.588-1.522.882-2.939.882h-2.571V85h-1.326Zm1.326-5.257h2.591c.857 0 1.465-.16 1.825-.478.36-.32.54-.768.54-1.347 0-.42-.107-.777-.321-1.073-.21-.301-.488-.5-.834-.595-.223-.06-.636-.089-1.237-.089h-2.564v3.582ZM262.685 85V74.978h1.326V85h-1.326Zm-58.967 143.949c0 .414.335.75.75.75h6.75a.75.75 0 0 0 0-1.5h-6v-6a.75.75 0 0 0-1.5 0v6.75Zm28.218-126.761v86.116h1.5v-86.116h-1.5Zm-8.567 106.799-19.432 19.432 1.061 1.06 19.432-19.432-1.061-1.06Zm8.567-20.683a29.25 29.25 0 0 1-8.567 20.683l1.061 1.06a30.747 30.747 0 0 0 9.006-21.743h-1.5Zm33.913 40.645a.75.75 0 0 1-.75.75h-6.75a.75.75 0 0 1 0-1.5h6v-6a.75.75 0 0 1 1.5 0v6.75ZM237.63 102.188v86.116h-1.5v-86.116h1.5Zm8.567 106.799 19.433 19.432-1.061 1.06-19.432-19.432 1.06-1.06Zm-8.567-20.683a29.254 29.254 0 0 0 8.567 20.683l-1.06 1.06a30.748 30.748 0 0 1-9.007-21.743h1.5ZM363.121 85V74.978h1.326v4.116h5.209v-4.115h1.326V85h-1.326v-4.724h-5.209V85h-1.326Zm14.656-.895c-.455.387-.895.66-1.319.82-.419.16-.87.24-1.354.24-.797 0-1.41-.195-1.838-.582-.429-.392-.643-.89-.643-1.497 0-.355.08-.68.239-.97.164-.297.376-.534.636-.712a3.05 3.05 0 0 1 .889-.403 8.788 8.788 0 0 1 1.093-.185c.994-.118 1.725-.26 2.195-.423l.007-.322c0-.501-.117-.854-.349-1.06-.314-.277-.782-.416-1.401-.416-.579 0-1.008.102-1.286.307-.273.2-.476.559-.608 1.074l-1.203-.165c.109-.515.289-.93.54-1.244.251-.319.613-.562 1.087-.731.474-.173 1.023-.26 1.647-.26.62 0 1.124.073 1.511.219.387.146.672.33.855.554.182.218.31.496.382.834.041.21.062.587.062 1.134v1.641c0 1.144.025 1.868.075 2.174.055.3.16.59.315.868h-1.286a2.635 2.635 0 0 1-.246-.895Zm-.102-2.749c-.447.183-1.117.338-2.01.465-.506.073-.864.155-1.073.246a1.063 1.063 0 0 0-.656.985c0 .328.123.601.369.82.25.219.615.328 1.093.328a2.56 2.56 0 0 0 1.265-.307c.369-.21.64-.495.814-.855.132-.278.198-.688.198-1.23v-.452ZM385.543 85v-.916c-.46.72-1.137 1.08-2.03 1.08-.579 0-1.112-.16-1.6-.478a3.184 3.184 0 0 1-1.128-1.334c-.264-.574-.396-1.232-.396-1.975 0-.725.12-1.38.362-1.969.242-.592.604-1.046 1.087-1.36a2.905 2.905 0 0 1 1.62-.472c.438 0 .827.094 1.169.28.342.183.62.422.834.718v-3.596h1.224V85h-1.142Zm-3.89-3.623c0 .93.196 1.625.588 2.085.392.46.855.69 1.388.69.538 0 .993-.218 1.367-.656.378-.442.567-1.114.567-2.016 0-.994-.191-1.723-.574-2.188-.383-.465-.854-.697-1.415-.697-.547 0-1.005.223-1.374.67-.364.446-.547 1.15-.547 2.112Zm6.515-.007c0-1.344.374-2.34 1.121-2.987.624-.538 1.385-.807 2.283-.807.998 0 1.814.328 2.448.985.633.651.95 1.554.95 2.707 0 .934-.142 1.67-.424 2.208a2.954 2.954 0 0 1-1.224 1.244 3.54 3.54 0 0 1-1.75.444c-1.016 0-1.839-.326-2.468-.978-.624-.651-.936-1.59-.936-2.816Zm1.265 0c0 .93.202 1.627.608 2.092.406.46.916.69 1.531.69a1.94 1.94 0 0 0 1.525-.697c.405-.465.608-1.173.608-2.126 0-.898-.205-1.577-.615-2.037a1.933 1.933 0 0 0-1.518-.697c-.615 0-1.125.23-1.531.69-.406.46-.608 1.155-.608 2.085Zm6.528 0c0-1.344.374-2.34 1.121-2.987.624-.538 1.385-.807 2.283-.807.998 0 1.814.328 2.447.985.634.651.951 1.554.951 2.707 0 .934-.142 1.67-.424 2.208a2.954 2.954 0 0 1-1.224 1.244 3.54 3.54 0 0 1-1.75.444c-1.016 0-1.839-.326-2.468-.978-.624-.651-.936-1.59-.936-2.816Zm1.265 0c0 .93.202 1.627.608 2.092.406.46.916.69 1.531.69a1.94 1.94 0 0 0 1.525-.697c.405-.465.608-1.173.608-2.126 0-.898-.205-1.577-.615-2.037a1.933 1.933 0 0 0-1.518-.697c-.615 0-1.125.23-1.531.69-.406.46-.608 1.155-.608 2.085Zm6.986 6.412V77.74h1.121v.944c.264-.37.563-.645.896-.828.332-.186.736-.28 1.209-.28.62 0 1.167.16 1.641.479.474.319.832.77 1.073 1.353.242.579.363 1.215.363 1.907 0 .743-.135 1.413-.404 2.01-.264.593-.651 1.048-1.162 1.367a2.983 2.983 0 0 1-1.599.472c-.411 0-.78-.087-1.108-.26a2.536 2.536 0 0 1-.8-.656v3.534h-1.23Zm1.114-6.37c0 .933.189 1.624.568 2.07.378.447.836.67 1.374.67.546 0 1.014-.23 1.401-.69.392-.465.588-1.183.588-2.153 0-.925-.192-1.618-.574-2.078-.379-.46-.832-.691-1.361-.691-.524 0-.989.246-1.394.738-.401.488-.602 1.199-.602 2.133ZM414.179 85l3.848-10.022h1.429L423.558 85h-1.511l-1.169-3.035h-4.19L415.587 85h-1.408Zm2.891-4.115h3.398l-1.046-2.776a27.449 27.449 0 0 1-.711-2.078c-.128.643-.308 1.28-.54 1.914l-1.101 2.94ZM424.617 85V74.978h3.78c.666 0 1.174.032 1.525.096.492.082.904.24 1.237.472.333.228.599.55.8.964.205.414.308.87.308 1.367 0 .852-.272 1.575-.814 2.167-.542.588-1.522.882-2.939.882h-2.571V85h-1.326Zm1.326-5.257h2.591c.857 0 1.465-.16 1.825-.478.36-.32.54-.768.54-1.347 0-.42-.107-.777-.321-1.073-.21-.301-.488-.5-.834-.595-.223-.06-.636-.089-1.237-.089h-2.564v3.582ZM434.181 85V74.978h1.326V85h-1.326Z" fill="#000"/><path d="M28.027 336.624v-52.283s10.084 8.768 39.728 8.768c29.644 0 39.666-9.582 39.666-9.582v53.097c-12.367 18.168-73.765 12.739-79.394 0Z" fill="#E0454C"/><path d="M27.162 373.548v-54.172s10.256 10.478 39.9 10.478c29.643 0 39.494-10.478 39.494-10.478l.838 54.172c-12.606 15.817-72.56 12.851-80.232 0Z" fill="#0070CC"/><path d="M108.353 281.04c0 7.165-18.18 12.974-41.084 12.974-22.905 0-41.084-5.809-41.084-12.974s18.18-12.974 41.084-12.974c22.904 0 41.084 5.809 41.084 12.974Z" fill="#E0454C"/><path fill-rule="evenodd" clip-rule="evenodd" d="M104.114 284.708c1.873-1.41 2.509-2.667 2.509-3.668 0-1.001-.636-2.258-2.509-3.668-1.845-1.389-4.629-2.713-8.237-3.857-7.195-2.28-17.281-3.719-28.608-3.719-11.327 0-21.413 1.439-28.609 3.719-3.607 1.144-6.392 2.468-8.237 3.857-1.873 1.41-2.509 2.667-2.509 3.668 0 1.001.636 2.258 2.51 3.668 1.844 1.389 4.629 2.714 8.236 3.857 7.196 2.281 17.282 3.719 28.609 3.719 11.327 0 21.413-1.438 28.608-3.719 3.608-1.143 6.392-2.468 8.237-3.857Zm-36.845 9.306c22.904 0 41.084-5.809 41.084-12.974s-18.18-12.974-41.084-12.974c-22.905 0-41.084 5.809-41.084 12.974s18.18 12.974 41.084 12.974Z" fill="#2D2D2D"/><path fill-rule="evenodd" clip-rule="evenodd" d="m26.488 372.955-.303-92.776 1.73-.008.303 92.776-1.73.008Zm80.135.633v-93.413h1.73v93.413h-1.73Z" fill="#2D2D2D"/><path fill-rule="evenodd" clip-rule="evenodd" d="M39.356 380.226c7.154 2.222 17.09 3.61 28.103 3.61 11.013 0 20.948-1.388 28.102-3.61 3.582-1.113 6.418-2.421 8.34-3.832 1.939-1.425 2.799-2.838 2.799-4.153h1.73c0 2.126-1.385 3.99-3.505 5.547-2.137 1.57-5.175 2.948-8.85 4.09-7.362 2.287-17.48 3.688-28.616 3.688-11.138 0-21.255-1.401-28.616-3.688-3.676-1.142-6.713-2.52-8.85-4.09-2.12-1.557-3.505-3.421-3.505-5.547h1.73c0 1.315.86 2.728 2.799 4.153 1.921 1.411 4.757 2.719 8.34 3.832Zm0-55.356c7.154 2.223 17.09 3.611 28.103 3.611 11.013 0 20.948-1.388 28.102-3.611 3.582-1.113 6.418-2.42 8.34-3.832 1.939-1.424 2.799-2.838 2.799-4.153h1.73c0 2.126-1.385 3.99-3.505 5.548-2.137 1.569-5.175 2.947-8.85 4.089-7.362 2.287-17.48 3.688-28.616 3.688-11.137 0-21.255-1.401-28.616-3.688-3.676-1.142-6.713-2.52-8.85-4.089-2.12-1.558-3.505-3.422-3.505-5.548h1.73c0 1.315.86 2.729 2.799 4.153 1.921 1.412 4.757 2.719 8.34 3.832Z" fill="#2D2D2D"/><path d="M37.892 315.202v-9.907h1.973l2.345 7.014c.216.654.374 1.142.473 1.467.113-.361.288-.89.527-1.588l2.372-6.893h1.764v9.907h-1.264v-8.292l-2.879 8.292h-1.182l-2.865-8.434v8.434h-1.264Zm11.768 0v-9.907h7.163v1.169h-5.851v3.034h5.48v1.163h-5.48v3.372h6.081v1.169h-7.392Zm9.336 0v-9.907h1.974l2.344 7.014c.217.654.374 1.142.473 1.467.113-.361.289-.89.527-1.588l2.372-6.893h1.764v9.907h-1.264v-8.292l-2.878 8.292h-1.183l-2.865-8.434v8.434h-1.264Zm11.344-4.825c0-1.644.44-2.931 1.324-3.859.883-.932 2.022-1.398 3.419-1.398.914 0 1.739.218 2.473.655a4.254 4.254 0 0 1 1.676 1.831c.387.78.581 1.665.581 2.656 0 1.005-.203 1.903-.608 2.696-.406.793-.98 1.394-1.723 1.804a4.938 4.938 0 0 1-2.406.608c-.932 0-1.766-.225-2.5-.675a4.354 4.354 0 0 1-1.67-1.845 5.59 5.59 0 0 1-.567-2.473Zm1.35.02c0 1.194.32 2.135.96 2.825.644.684 1.45 1.027 2.42 1.027.986 0 1.797-.347 2.432-1.041.64-.694.96-1.678.96-2.953 0-.806-.138-1.509-.413-2.108a3.09 3.09 0 0 0-1.196-1.399 3.213 3.213 0 0 0-1.763-.5 3.36 3.36 0 0 0-2.4.96c-.666.635-1 1.698-1 3.189Zm10.012 4.805v-9.907h4.392c.884 0 1.555.09 2.014.271.46.175.827.488 1.102.939.274.45.412.948.412 1.493 0 .703-.228 1.295-.683 1.777-.455.482-1.157.789-2.108.919.347.167.61.332.79.494.384.351.746.79 1.089 1.317l1.723 2.697h-1.65l-1.31-2.061a18.65 18.65 0 0 0-.946-1.365c-.248-.316-.47-.537-.669-.663a1.915 1.915 0 0 0-.595-.263c-.148-.032-.392-.047-.73-.047h-1.52v4.399h-1.31Zm1.311-5.535h2.818c.6 0 1.068-.061 1.406-.182a1.52 1.52 0 0 0 .77-.595 1.63 1.63 0 0 0 .263-.892c0-.468-.17-.853-.513-1.155-.338-.302-.874-.453-1.608-.453h-3.136v3.277Zm11.377 5.535v-4.197l-3.818-5.71h1.595l1.952 2.987c.36.559.696 1.117 1.007 1.676.298-.518.658-1.102 1.081-1.75l1.92-2.913h1.527l-3.953 5.71v4.197H94.39Zm-42.618 54.49v-9.906h3.412c.77 0 1.358.047 1.764.142a3.363 3.363 0 0 1 1.453.709 4.002 4.002 0 0 1 1.168 1.697c.262.684.392 1.468.392 2.351 0 .752-.087 1.419-.263 2-.176.581-.401 1.063-.676 1.446a3.634 3.634 0 0 1-.905.899 3.672 3.672 0 0 1-1.183.493 6.69 6.69 0 0 1-1.588.169h-3.574Zm1.31-1.169h2.116c.653 0 1.164-.061 1.533-.182.374-.122.672-.293.892-.514.311-.311.552-.727.723-1.25.176-.527.264-1.164.264-1.912 0-1.036-.171-1.831-.514-2.386-.337-.558-.75-.932-1.236-1.121-.352-.135-.917-.203-1.696-.203h-2.081v7.568Zm9.086 1.169v-9.906h1.311v9.906h-1.31Zm3.356-3.182 1.237-.109c.058.496.193.904.405 1.223.216.316.55.573 1 .771.45.194.957.29 1.52.29.5 0 .942-.074 1.325-.223.383-.148.667-.351.851-.608a1.42 1.42 0 0 0 .284-.851c0-.311-.09-.581-.27-.811-.18-.234-.478-.43-.892-.588-.266-.104-.854-.263-1.764-.48-.91-.22-1.547-.428-1.912-.621-.473-.248-.827-.554-1.06-.919a2.297 2.297 0 0 1-.346-1.237c0-.5.142-.966.426-1.399.284-.437.698-.768 1.243-.993a4.722 4.722 0 0 1 1.818-.338c.735 0 1.38.119 1.94.358.563.234.995.581 1.297 1.041.302.459.464.98.486 1.561l-1.256.094c-.068-.626-.298-1.099-.69-1.419-.387-.319-.961-.479-1.723-.479-.793 0-1.371.146-1.736.439-.36.288-.541.637-.541 1.047 0 .356.128.649.385.879.252.229.91.466 1.973.709 1.068.239 1.8.448 2.196.629.577.265 1.003.603 1.278 1.013.274.406.412.874.412 1.406 0 .527-.151 1.025-.453 1.493-.302.464-.736.827-1.304 1.088-.563.257-1.198.385-1.906.385-.896 0-1.648-.131-2.257-.392a3.183 3.183 0 0 1-1.425-1.176 3.375 3.375 0 0 1-.541-1.783Zm9.796 3.182v-9.906h1.31v4.913l4.92-4.913h1.777L79.17 363.8l4.338 5.892h-1.73l-3.527-5.014-1.622 1.581v3.433h-1.31Z" fill="#fff"/><path d="M165.847 336.624v-52.283s10.084 8.768 39.728 8.768c29.644 0 39.666-9.582 39.666-9.582v53.097c-12.367 18.168-73.765 12.739-79.394 0Z" fill="#E0454C"/><path d="M164.982 373.548v-54.172s10.255 10.478 39.899 10.478 39.495-10.478 39.495-10.478l.838 54.172c-12.606 15.817-72.56 12.851-80.232 0Z" fill="#0070CC"/><path d="M246.173 281.04c0 7.165-18.18 12.974-41.085 12.974-22.904 0-41.084-5.809-41.084-12.974s18.18-12.974 41.084-12.974c22.905 0 41.085 5.809 41.085 12.974Z" fill="#E0454C"/><path fill-rule="evenodd" clip-rule="evenodd" d="M241.934 284.708c1.873-1.41 2.509-2.667 2.509-3.668 0-1.001-.636-2.258-2.509-3.668-1.845-1.389-4.629-2.713-8.237-3.857-7.196-2.28-17.282-3.719-28.609-3.719-11.327 0-21.413 1.439-28.608 3.719-3.608 1.144-6.392 2.468-8.237 3.857-1.873 1.41-2.509 2.667-2.509 3.668 0 1.001.636 2.258 2.509 3.668 1.845 1.389 4.629 2.714 8.237 3.857 7.195 2.281 17.281 3.719 28.608 3.719 11.327 0 21.413-1.438 28.609-3.719 3.608-1.143 6.392-2.468 8.237-3.857Zm-36.846 9.306c22.905 0 41.085-5.809 41.085-12.974s-18.18-12.974-41.085-12.974c-22.904 0-41.084 5.809-41.084 12.974s18.18 12.974 41.084 12.974Z" fill="#000"/><path fill-rule="evenodd" clip-rule="evenodd" d="m164.307 372.955-.303-92.776 1.73-.008.303 92.776-1.73.008Zm80.136.633v-93.413h1.73v93.413h-1.73Z" fill="#000"/><path fill-rule="evenodd" clip-rule="evenodd" d="M177.176 380.226c7.154 2.222 17.09 3.61 28.102 3.61 11.013 0 20.949-1.388 28.103-3.61 3.582-1.113 6.418-2.421 8.34-3.832 1.939-1.425 2.798-2.838 2.798-4.153h1.73c0 2.126-1.385 3.99-3.504 5.547-2.138 1.57-5.175 2.948-8.851 4.09-7.361 2.287-17.478 3.688-28.616 3.688-11.137 0-21.254-1.401-28.615-3.688-3.676-1.142-6.714-2.52-8.851-4.09-2.12-1.557-3.505-3.421-3.505-5.547h1.73c0 1.315.86 2.728 2.799 4.153 1.922 1.411 4.758 2.719 8.34 3.832Zm0-55.356c7.154 2.223 17.09 3.611 28.102 3.611 11.013 0 20.949-1.388 28.103-3.611 3.582-1.113 6.418-2.42 8.34-3.832 1.939-1.424 2.798-2.838 2.798-4.153h1.73c0 2.126-1.385 3.99-3.504 5.548-2.138 1.569-5.175 2.947-8.851 4.089-7.361 2.287-17.478 3.688-28.616 3.688-11.137 0-21.254-1.401-28.615-3.688-3.676-1.142-6.714-2.52-8.851-4.089-2.12-1.558-3.505-3.422-3.505-5.548h1.73c0 1.315.86 2.729 2.799 4.153 1.922 1.412 4.758 2.719 8.34 3.832Z" fill="#000"/><path d="M175.416 315.202v-9.907h1.973l2.345 7.014c.216.654.374 1.142.473 1.467.113-.361.288-.89.527-1.588l2.372-6.893h1.764v9.907h-1.264v-8.292l-2.879 8.292h-1.182l-2.865-8.434v8.434h-1.264Zm11.769 0v-9.907h7.162v1.169h-5.851v3.034h5.48v1.163h-5.48v3.372h6.081v1.169h-7.392Zm9.336 0v-9.907h1.973l2.344 7.014c.217.654.374 1.142.473 1.467.113-.361.289-.89.527-1.588l2.372-6.893h1.764v9.907h-1.264v-8.292l-2.878 8.292h-1.183l-2.865-8.434v8.434h-1.263Zm11.342-4.825c0-1.644.442-2.931 1.325-3.859.883-.932 2.022-1.398 3.419-1.398.914 0 1.739.218 2.473.655a4.257 4.257 0 0 1 1.676 1.831c.387.78.581 1.665.581 2.656 0 1.005-.203 1.903-.608 2.696-.406.793-.98 1.394-1.723 1.804a4.94 4.94 0 0 1-2.406.608c-.932 0-1.766-.225-2.5-.675a4.353 4.353 0 0 1-1.669-1.845 5.583 5.583 0 0 1-.568-2.473Zm1.352.02c0 1.194.32 2.135.959 2.825.644.684 1.451 1.027 2.419 1.027.987 0 1.798-.347 2.433-1.041.64-.694.96-1.678.96-2.953 0-.806-.138-1.509-.413-2.108a3.088 3.088 0 0 0-1.196-1.399 3.21 3.21 0 0 0-1.763-.5c-.928 0-1.728.32-2.399.96-.667.635-1 1.698-1 3.189Zm10.011 4.805v-9.907h4.393c.882 0 1.554.09 2.013.271.46.175.827.488 1.102.939.274.45.412.948.412 1.493 0 .703-.228 1.295-.683 1.777-.455.482-1.157.789-2.108.919.347.167.61.332.791.494.383.351.745.79 1.088 1.317l1.723 2.697h-1.649l-1.311-2.061a18.588 18.588 0 0 0-.946-1.365c-.248-.316-.471-.537-.669-.663a1.917 1.917 0 0 0-.595-.263c-.148-.032-.392-.047-.729-.047h-1.521v4.399h-1.311Zm1.311-5.535h2.818c.599 0 1.068-.061 1.406-.182a1.52 1.52 0 0 0 .77-.595c.176-.275.263-.572.263-.892 0-.468-.171-.853-.513-1.155-.338-.302-.874-.453-1.608-.453h-3.136v3.277Zm11.377 5.535v-4.197l-3.818-5.71h1.595l1.952 2.987c.361.559.696 1.117 1.007 1.676.298-.518.658-1.102 1.081-1.75l1.92-2.913h1.527l-3.953 5.71v4.197h-1.311Zm-42.618 54.49v-9.906h3.412c.77 0 1.358.047 1.764.142a3.367 3.367 0 0 1 1.453.709 4.01 4.01 0 0 1 1.169 1.697c.261.684.391 1.468.391 2.351 0 .752-.087 1.419-.263 2-.176.581-.401 1.063-.676 1.446a3.634 3.634 0 0 1-.905.899 3.681 3.681 0 0 1-1.183.493 6.684 6.684 0 0 1-1.588.169h-3.574Zm1.311-1.169h2.115c.653 0 1.164-.061 1.533-.182.374-.122.672-.293.892-.514.311-.311.552-.727.723-1.25.176-.527.264-1.164.264-1.912 0-1.036-.171-1.831-.514-2.386-.337-.558-.75-.932-1.236-1.121-.351-.135-.917-.203-1.696-.203h-2.081v7.568Zm9.085 1.169v-9.906h1.311v9.906h-1.311Zm3.356-3.182 1.237-.109c.058.496.193.904.405 1.223.216.316.55.573 1 .771.451.194.957.29 1.521.29.5 0 .941-.074 1.324-.223.383-.148.667-.351.851-.608.19-.261.284-.545.284-.851 0-.311-.09-.581-.27-.811-.18-.234-.478-.43-.892-.588-.266-.104-.854-.263-1.764-.48-.91-.22-1.547-.428-1.912-.621-.473-.248-.827-.554-1.061-.919a2.295 2.295 0 0 1-.345-1.237c0-.5.142-.966.426-1.399.284-.437.698-.768 1.244-.993a4.72 4.72 0 0 1 1.817-.338c.735 0 1.381.119 1.94.358.563.234.995.581 1.297 1.041.302.459.464.98.486 1.561l-1.256.094c-.068-.626-.298-1.099-.69-1.419-.387-.319-.961-.479-1.723-.479-.793 0-1.371.146-1.736.439-.361.288-.541.637-.541 1.047 0 .356.128.649.385.879.253.229.91.466 1.973.709 1.068.239 1.8.448 2.196.629.577.265 1.003.603 1.278 1.013.274.406.412.874.412 1.406 0 .527-.151 1.025-.453 1.493-.302.464-.736.827-1.304 1.088-.563.257-1.198.385-1.906.385-.896 0-1.648-.131-2.257-.392a3.185 3.185 0 0 1-1.425-1.176 3.37 3.37 0 0 1-.541-1.783Zm9.795 3.182v-9.906h1.311v4.913l4.92-4.913h1.777l-4.156 4.014 4.338 5.892h-1.73l-3.527-5.014-1.622 1.581v3.433h-1.311Z" fill="#fff"/><path d="M190.024 395.264s-9.082 5.621-.523 11.204c1.646 1.087 7.618 4.11 7.448 6.908 0 0 3.619-5.437-1.673-8.858-5.435-3.5-6.794-7.239-5.252-9.254Z" fill="#ED1C24"/><path d="M186.862 406.004s-3.241 4.985 3.136 6.006c.627.08 5.239.57 6.441 2.108 0 0-.104-2.652-3.867-4.216-3.75-1.565-5.292-1.949-5.71-3.898Zm12.544-5.238c-3.894-4.137-4.979-6.696-3.306-10.011 0 0-11.616 4.535-.144 12.583 4.103 2.878 3.424 5.821 3.424 5.927.64-.676 3.92-4.362.026-8.499Z" fill="#ED1C24"/><path d="M205.716 410.344v-9.906h1.345l5.203 7.777v-7.777h1.256v9.906h-1.344l-5.203-7.784v7.784h-1.257Zm9.788-4.825c0-1.644.442-2.93 1.325-3.858.883-.933 2.023-1.399 3.419-1.399.914 0 1.739.219 2.473.656a4.257 4.257 0 0 1 1.676 1.831c.387.779.581 1.664.581 2.655 0 1.005-.203 1.904-.608 2.697-.405.792-.98 1.394-1.723 1.804a4.948 4.948 0 0 1-2.406.608c-.932 0-1.766-.225-2.5-.676a4.342 4.342 0 0 1-1.669-1.845 5.593 5.593 0 0 1-.568-2.473Zm1.352.021c0 1.193.32 2.135.959 2.824.645.685 1.451 1.027 2.419 1.027.987 0 1.798-.347 2.433-1.04.64-.694.96-1.679.96-2.953 0-.807-.138-1.51-.413-2.109a3.086 3.086 0 0 0-1.196-1.398 3.201 3.201 0 0 0-1.763-.5c-.928 0-1.728.319-2.399.959-.667.635-1 1.698-1 3.19Zm9.991 4.804v-9.906h3.413c.77 0 1.358.047 1.763.142a3.35 3.35 0 0 1 1.453.709 4.003 4.003 0 0 1 1.169 1.696c.261.685.392 1.469.392 2.352 0 .752-.088 1.419-.264 2-.175.581-.4 1.063-.675 1.446a3.654 3.654 0 0 1-.906.899c-.324.216-.718.38-1.182.493a6.69 6.69 0 0 1-1.588.169h-3.575Zm1.311-1.169h2.115c.653 0 1.165-.061 1.534-.183.374-.121.671-.292.892-.513.311-.311.552-.728.723-1.25.176-.527.264-1.165.264-1.912 0-1.037-.172-1.832-.514-2.386-.338-.558-.75-.932-1.237-1.121-.351-.136-.916-.203-1.696-.203h-2.081v7.568Zm8.89 1.169v-9.906h7.163v1.169h-5.852v3.034h5.48v1.162h-5.48v3.372h6.081v1.169h-7.392Z" fill="#2D2D2D"/><path d="M30.813 395.264s-9.082 5.621-.523 11.204c1.646 1.087 7.618 4.11 7.448 6.908 0 0 3.62-5.437-1.673-8.858-5.435-3.5-6.794-7.239-5.252-9.254Z" fill="#ED1C24"/><path d="M27.65 406.004s-3.24 4.985 3.137 6.006c.627.08 5.24.57 6.441 2.108 0 0-.104-2.652-3.867-4.216-3.75-1.565-5.292-1.949-5.71-3.898Zm12.545-5.238c-3.894-4.137-4.979-6.696-3.306-10.011 0 0-11.616 4.535-.144 12.583 4.103 2.878 3.424 5.821 3.424 5.927.64-.676 3.92-4.362.026-8.499Z" fill="#ED1C24"/><path d="M46.569 410.344v-9.906h1.344l5.203 7.777v-7.777h1.257v9.906H53.03l-5.204-7.784v7.784h-1.257Zm9.788-4.825c0-1.644.442-2.93 1.325-3.858.883-.933 2.022-1.399 3.419-1.399.914 0 1.739.219 2.473.656a4.254 4.254 0 0 1 1.676 1.831c.387.779.58 1.664.58 2.655 0 1.005-.202 1.904-.607 2.697-.406.792-.98 1.394-1.724 1.804a4.95 4.95 0 0 1-2.405.608c-.933 0-1.766-.225-2.5-.676a4.342 4.342 0 0 1-1.67-1.845 5.587 5.587 0 0 1-.567-2.473Zm1.352.021c0 1.193.32 2.135.96 2.824.643.685 1.45 1.027 2.418 1.027.987 0 1.798-.347 2.433-1.04.64-.694.96-1.679.96-2.953 0-.807-.138-1.51-.413-2.109a3.086 3.086 0 0 0-1.196-1.398 3.204 3.204 0 0 0-1.764-.5c-.928 0-1.727.319-2.398.959-.667.635-1 1.698-1 3.19Zm9.991 4.804v-9.906h3.412c.77 0 1.359.047 1.764.142.567.13 1.052.367 1.453.709a4.004 4.004 0 0 1 1.169 1.696c.261.685.392 1.469.392 2.352 0 .752-.088 1.419-.264 2-.176.581-.4 1.063-.676 1.446a3.651 3.651 0 0 1-.905.899c-.324.216-.719.38-1.183.493-.46.113-.988.169-1.587.169H67.7Zm1.31-1.169h2.116c.653 0 1.164-.061 1.534-.183.374-.121.67-.292.892-.513.31-.311.551-.728.723-1.25.175-.527.263-1.165.263-1.912 0-1.037-.171-1.832-.513-2.386-.338-.558-.75-.932-1.237-1.121-.351-.136-.917-.203-1.696-.203h-2.081v7.568Zm8.89 1.169v-9.906h7.163v1.169h-5.852v3.034h5.48v1.162h-5.48v3.372h6.082v1.169h-7.392Z" fill="#2D2D2D"/><path d="M109.386 423.211s-9.081 5.622-.522 11.204c1.646 1.088 7.617 4.111 7.447 6.909 0 0 3.62-5.437-1.672-8.858-5.436-3.5-6.795-7.239-5.253-9.255Z" fill="#ED1C24"/><path d="M106.224 433.952s-3.24 4.985 3.136 6.006c.627.08 5.24.57 6.442 2.108 0 0-.105-2.652-3.868-4.216-3.75-1.565-5.292-1.949-5.71-3.898Zm12.544-5.238c-3.894-4.137-4.978-6.696-3.306-10.011 0 0-11.616 4.535-.143 12.583 4.103 2.878 3.423 5.821 3.423 5.927.64-.676 3.92-4.362.026-8.499Z" fill="#ED1C24"/><path d="M125.142 438.292v-9.906h1.345l5.203 7.777v-7.777h1.257v9.906h-1.345l-5.203-7.785v7.785h-1.257Zm9.789-4.825c0-1.644.441-2.93 1.324-3.858.883-.933 2.023-1.399 3.419-1.399.915 0 1.739.219 2.474.655a4.257 4.257 0 0 1 1.675 1.832c.388.779.581 1.664.581 2.655 0 1.005-.202 1.904-.608 2.696-.405.793-.98 1.395-1.723 1.805a4.947 4.947 0 0 1-2.405.608c-.933 0-1.766-.225-2.501-.676a4.348 4.348 0 0 1-1.669-1.845 5.592 5.592 0 0 1-.567-2.473Zm1.351.02c0 1.194.32 2.136.96 2.825.644.685 1.45 1.027 2.419 1.027.986 0 1.797-.347 2.432-1.041.64-.693.96-1.678.96-2.952 0-.807-.137-1.51-.412-2.109a3.086 3.086 0 0 0-1.196-1.398 3.208 3.208 0 0 0-1.764-.501c-.928 0-1.727.32-2.399.96-.666.635-1 1.698-1 3.189Zm9.992 4.805v-9.906h3.412c.77 0 1.358.047 1.764.142.567.13 1.051.367 1.452.709a3.995 3.995 0 0 1 1.169 1.696c.262.685.392 1.469.392 2.352 0 .752-.088 1.419-.263 2-.176.581-.401 1.063-.676 1.446a3.668 3.668 0 0 1-.905.899c-.325.216-.719.38-1.183.493a6.684 6.684 0 0 1-1.588.169h-3.574Zm1.31-1.169h2.115c.654 0 1.165-.061 1.534-.183.374-.121.672-.292.892-.513.311-.311.552-.728.723-1.25.176-.527.264-1.165.264-1.913 0-1.036-.171-1.831-.514-2.385-.338-.558-.75-.932-1.236-1.122-.352-.135-.917-.202-1.696-.202h-2.082v7.568Zm8.89 1.169v-9.906h7.163v1.169h-5.852v3.034h5.48v1.162h-5.48v3.372h6.082v1.169h-7.393Z" fill="#2D2D2D"/><path d="M96.937 366.376v-52.283s10.084 8.768 39.728 8.768c29.644 0 39.666-9.582 39.666-9.582v53.097c-12.367 18.169-73.765 12.739-79.394 0Z" fill="#E0454C"/><path d="M96.072 403.301v-54.173s10.255 10.479 39.899 10.479 39.495-10.479 39.495-10.479l.838 54.173c-12.606 15.816-72.559 12.851-80.232 0Z" fill="#0070CC"/><path d="M177.263 310.792c0 7.166-18.18 12.974-41.084 12.974-22.905 0-41.085-5.808-41.085-12.974 0-7.165 18.18-12.974 41.085-12.974 22.904 0 41.084 5.809 41.084 12.974Z" fill="#E0454C"/><path fill-rule="evenodd" clip-rule="evenodd" d="M173.024 314.46c1.873-1.41 2.509-2.667 2.509-3.668 0-1.001-.636-2.258-2.509-3.668-1.845-1.388-4.629-2.713-8.237-3.857-7.195-2.28-17.281-3.719-28.608-3.719-11.327 0-21.413 1.439-28.609 3.719-3.608 1.144-6.392 2.469-8.237 3.857-1.873 1.41-2.509 2.667-2.509 3.668 0 1.001.636 2.258 2.51 3.668 1.844 1.389 4.628 2.714 8.236 3.857 7.196 2.281 17.282 3.719 28.609 3.719 11.327 0 21.413-1.438 28.608-3.719 3.608-1.143 6.392-2.468 8.237-3.857Zm-36.845 9.306c22.904 0 41.084-5.808 41.084-12.974 0-7.165-18.18-12.974-41.084-12.974-22.905 0-41.085 5.809-41.085 12.974 0 7.166 18.18 12.974 41.085 12.974Z" fill="#2D2D2D"/><path fill-rule="evenodd" clip-rule="evenodd" d="m95.398 402.707-.304-92.775 1.73-.009.303 92.776-1.73.008Zm80.135.633v-93.413h1.73v93.413h-1.73Z" fill="#2D2D2D"/><path fill-rule="evenodd" clip-rule="evenodd" d="M108.266 409.978c7.154 2.222 17.09 3.61 28.103 3.61 11.012 0 20.948-1.388 28.102-3.61 3.582-1.113 6.418-2.42 8.34-3.832 1.939-1.424 2.799-2.838 2.799-4.153h1.729c0 2.126-1.384 3.99-3.504 5.547-2.138 1.57-5.175 2.948-8.851 4.09-7.361 2.287-17.478 3.688-28.615 3.688-11.138 0-21.255-1.401-28.616-3.688-3.676-1.142-6.713-2.52-8.85-4.09-2.12-1.557-3.505-3.421-3.505-5.547h1.73c0 1.315.86 2.729 2.798 4.153 1.922 1.412 4.758 2.719 8.34 3.832Zm0-55.356c7.154 2.223 17.09 3.611 28.103 3.611 11.012 0 20.948-1.388 28.102-3.611 3.582-1.113 6.418-2.42 8.34-3.831 1.939-1.425 2.799-2.839 2.799-4.153h1.729c0 2.126-1.384 3.99-3.504 5.547-2.138 1.57-5.175 2.947-8.851 4.089-7.361 2.287-17.478 3.689-28.615 3.689-11.138 0-21.255-1.402-28.616-3.689-3.676-1.142-6.713-2.519-8.85-4.089-2.12-1.557-3.505-3.421-3.505-5.547h1.73c0 1.314.86 2.728 2.798 4.153 1.922 1.411 4.758 2.718 8.34 3.831Z" fill="#2D2D2D"/><path d="M106.222 344.609v-9.906h1.973l2.345 7.014c.216.653.374 1.142.473 1.466.112-.36.288-.889.527-1.588l2.371-6.892h1.764v9.906h-1.263v-8.291l-2.879 8.291h-1.183l-2.865-8.433v8.433h-1.263Zm11.768 0v-9.906h7.163v1.169h-5.852v3.034h5.48v1.162h-5.48v3.372h6.082v1.169h-7.393Zm9.336 0v-9.906h1.973l2.345 7.014c.216.653.374 1.142.473 1.466.113-.36.288-.889.527-1.588l2.372-6.892h1.763v9.906h-1.263v-8.291l-2.879 8.291h-1.182l-2.865-8.433v8.433h-1.264Zm11.343-4.824c0-1.645.441-2.931 1.324-3.859.883-.932 2.023-1.399 3.419-1.399.915 0 1.739.219 2.474.656a4.254 4.254 0 0 1 1.675 1.831c.388.779.581 1.665.581 2.656 0 1.004-.202 1.903-.608 2.696-.405.793-.979 1.394-1.723 1.804a4.947 4.947 0 0 1-2.405.608c-.933 0-1.766-.225-2.501-.676a4.351 4.351 0 0 1-1.669-1.844 5.598 5.598 0 0 1-.567-2.473Zm1.351.02c0 1.194.32 2.135.96 2.824.644.685 1.45 1.027 2.419 1.027.986 0 1.797-.346 2.432-1.04.64-.694.96-1.678.96-2.953 0-.806-.137-1.509-.412-2.108a3.088 3.088 0 0 0-1.196-1.399 3.207 3.207 0 0 0-1.764-.5c-.928 0-1.727.32-2.399.959-.666.636-1 1.699-1 3.19Zm10.012 4.804v-9.906h4.392c.883 0 1.554.09 2.014.27.459.176.826.489 1.101.94.275.45.412.948.412 1.493 0 .703-.227 1.295-.682 1.777-.455.482-1.158.788-2.108.919.346.167.61.331.79.493.383.352.746.791 1.088 1.318l1.723 2.696h-1.649l-1.31-2.061a19.373 19.373 0 0 0-.946-1.365c-.248-.315-.471-.536-.669-.662a1.917 1.917 0 0 0-.595-.263c-.149-.032-.392-.048-.73-.048h-1.52v4.399h-1.311Zm1.311-5.534h2.818c.599 0 1.067-.061 1.405-.182.338-.127.595-.325.77-.595.176-.275.264-.572.264-.892a1.47 1.47 0 0 0-.514-1.156c-.338-.301-.874-.452-1.608-.452h-3.135v3.277Zm11.376 5.534v-4.196l-3.818-5.71h1.595l1.953 2.987c.36.558.696 1.117 1.007 1.676.297-.519.658-1.102 1.081-1.751l1.919-2.912h1.527l-3.953 5.71v4.196h-1.311ZM120.101 399.1v-9.906h3.413c.77 0 1.358.047 1.763.142a3.35 3.35 0 0 1 1.453.709 4.003 4.003 0 0 1 1.169 1.696c.261.685.392 1.469.392 2.352 0 .752-.088 1.419-.264 2-.175.581-.4 1.063-.675 1.446a3.654 3.654 0 0 1-.906.899c-.324.216-.718.38-1.182.493a6.69 6.69 0 0 1-1.588.169h-3.575Zm1.311-1.169h2.115c.653 0 1.165-.061 1.534-.183.374-.121.671-.292.892-.513.311-.311.552-.728.723-1.25.176-.527.264-1.165.264-1.913 0-1.036-.172-1.831-.514-2.385-.338-.559-.75-.932-1.237-1.122-.351-.135-.916-.202-1.696-.202h-2.081v7.568Zm9.086 1.169v-9.906h1.311v9.906h-1.311Zm3.356-3.183 1.236-.108c.059.496.194.903.406 1.223.216.315.549.572 1 .77.45.194.957.291 1.52.291.5 0 .942-.074 1.324-.223.383-.149.667-.351.852-.608.189-.261.284-.545.284-.852 0-.31-.09-.581-.271-.81-.18-.235-.477-.431-.892-.588-.265-.104-.853-.264-1.763-.48-.91-.221-1.548-.428-1.913-.622-.473-.248-.826-.554-1.06-.919a2.29 2.29 0 0 1-.345-1.236c0-.5.142-.967.426-1.399.283-.437.698-.768 1.243-.993a4.703 4.703 0 0 1 1.818-.338c.734 0 1.38.119 1.939.358.563.234.996.581 1.297 1.04.302.46.464.98.487 1.561l-1.257.095c-.067-.626-.297-1.099-.689-1.419-.388-.32-.962-.48-1.723-.48-.793 0-1.372.147-1.737.439-.36.289-.54.638-.54 1.048 0 .356.128.649.385.878.252.23.91.467 1.973.71 1.068.239 1.8.448 2.196.628.577.266 1.002.604 1.277 1.014.275.405.412.874.412 1.405a2.72 2.72 0 0 1-.452 1.494c-.302.464-.737.826-1.305 1.088-.563.256-1.198.385-1.905.385-.897 0-1.649-.131-2.257-.392a3.183 3.183 0 0 1-1.426-1.176 3.381 3.381 0 0 1-.54-1.784Zm9.795 3.183v-9.906h1.311v4.912l4.919-4.912h1.777l-4.155 4.013 4.338 5.893h-1.73l-3.527-5.014-1.622 1.581v3.433h-1.311Z" fill="#fff"/><path d="m365.344 376.385.365-86.996s9.358 8.821 38.441 8.821c29.083 0 39.452-9.829 39.452-9.829l-.578 88.226s-3.61 11.31-38.874 11.725c-35.264.414-38.806-11.947-38.806-11.947Z" fill="#E0454C"/><path d="M443.602 285.785c0 7.169-17.522 12.982-39.596 12.982-22.074 0-39.595-5.813-39.595-12.982 0-7.17 17.521-12.982 39.595-12.982 22.074 0 39.596 5.812 39.596 12.982Z" fill="#E0454C"/><path fill-rule="evenodd" clip-rule="evenodd" d="M439.493 289.455c1.815-1.411 2.431-2.669 2.431-3.67 0-1.002-.616-2.26-2.431-3.67-1.788-1.39-4.486-2.716-7.982-3.86-6.973-2.282-16.748-3.721-27.724-3.721-10.977 0-20.751 1.439-27.724 3.721-3.497 1.144-6.194 2.47-7.983 3.86-1.815 1.41-2.431 2.668-2.431 3.67 0 1.001.616 2.259 2.431 3.67 1.789 1.39 4.486 2.715 7.983 3.859 6.973 2.282 16.747 3.722 27.724 3.722 10.976 0 20.751-1.44 27.724-3.722 3.496-1.144 6.194-2.469 7.982-3.859Zm-35.706 9.312c22.196 0 39.813-5.812 39.813-12.982 0-7.17-17.617-12.982-39.813-12.982s-39.814 5.812-39.814 12.982c0 7.17 17.618 12.982 39.814 12.982Z" fill="#2D2D2D"/><path fill-rule="evenodd" clip-rule="evenodd" d="m364.264 375.566-.288-90.084 1.689-.008.287 90.084-1.688.008Zm77.691-.205v-89.61h1.647v89.61h-1.647Z" fill="#2D2D2D"/><path fill-rule="evenodd" clip-rule="evenodd" d="M376.728 383.14c6.926 2.165 16.546 3.517 27.208 3.517 10.662 0 20.281-1.352 27.207-3.517 3.468-1.084 6.214-2.358 8.074-3.733 1.878-1.388 2.71-2.765 2.71-4.046h1.675c0 2.071-1.341 3.887-3.393 5.404-2.07 1.53-5.01 2.872-8.569 3.984-7.127 2.228-16.922 3.594-27.704 3.594-10.783 0-20.577-1.366-27.705-3.594-3.558-1.112-6.499-2.454-8.568-3.984-2.052-1.517-3.393-3.333-3.393-5.404h1.675c0 1.281.832 2.658 2.709 4.046 1.861 1.375 4.606 2.649 8.074 3.733Z" fill="#2D2D2D"/><path fill-rule="evenodd" clip-rule="evenodd" d="m391.163 339.387-.473 1.275-1.171 1.148c-.427.419-.519.416-.419 1.008a3.732 3.732 0 0 0 1.078 2.03c.654.649 2.027 1.567 3.016 1.134a6.849 6.849 0 0 1-.369 1.011c-.663 1.438.952 1.719 2.082 2.022.939.251 3.245.921 3.577-.301.15-.549.173-.845.12-1.37.292-.646.385-.748.627-1.104.332-.487.309-.673.236-1.277a13.188 13.188 0 0 0-.051-.378c1.119.167 2.194.165 3.29.03-.333.192-.666.36-1.107.584-1.044.532-.06 2.1.39 2.787.945 1.441 1.793 2.433 3.389 1.578.536-.288.578-.594.912-1.088.185-.101 1.138-.903 1.705-1.356.214.255.625.302 1.249.347.313.022 1.544.015 1.87.017.978.006 1.565-.095 1.641-1.15.037-.5.015-.607-.234-1.044l-.045-1.656c-.017-.622-.136-1.003-.383-1.584-.224-.527-.35-.978-.611-1.489.036-.201.064-.408.083-.624l.998.951c.634.605 1.158 1.099 2.125 1.053 1.006-.047 2.159-.832 2.454-1.792l.295-.961c1.518.284 3.292.219 4.614-.479 1.944-1.027 2.854-3.092 3.077-5.276.181-1.767-.167-4.738-1.018-6.35-.25-.474-1.38-1.074-1.876-.577-.373.375-.629.945-1.032 1.286-.312.264-.699.394-1.038.533-.262-.701-.639-1.246-1.101-1.79-.367-.433-.712-.648-1.196-.948-.957-.593-1.699-1.342-2.569-2.052-2.634-2.149-4.895-2.083-8.176-.716-1.566.652-2.321 1.537-3.281 2.809-.58.03-.979.141-1.592.676-.453.396-.874.803-1.282 1.224-3.067.484-4.972 1.063-6.987 2.831a8.099 8.099 0 0 0-1.882 2.413c-.431.472-.86.956-1.43 1.174-.402.152-.394.152-.535-.222.477-.354.469-1.022.513-1.627.301.014.414.348.619.604.12-.535.19-1.365-.378-1.656.092-.245.197-.491.293-.761-.839.144-3.713 2.062-2.18 3.524.101.407.181.686.314.961.351.722 1.14.846 1.828.581-.188.855-.227 1.785-.113 3.091.027.314.073.63.134.946Z" fill="#000"/><path d="m391.345 339.453-.19.513-.364-.132.19-.513.364.132Zm-.19.513-.283.762-.364-.132.283-.762.364.132Zm-.283.762-.046.07-.136-.136.182.066Zm-.046.07-.62.608-.273-.272.62-.608.273.272Zm-.62.608-.551.54-.273-.272.551-.54.273.272Zm-.551.54a7.26 7.26 0 0 1-.138.133l-.268-.277.133-.128.273.272Zm-.138.133c-.248.237-.297.284-.226.707l-.382.063c-.106-.623-.032-.693.34-1.047l.268.277Zm-.226.707c.058.341.172.689.352 1.027l-.344.179a3.752 3.752 0 0 1-.39-1.143l.382-.063Zm.352 1.027c.167.314.389.618.672.9l-.274.27a4.085 4.085 0 0 1-.742-.991l.344-.179Zm.672.9c.363.359.955.805 1.57 1.037l-.136.359c-.673-.253-1.316-.737-1.708-1.126l.274-.27Zm1.57 1.037c.429.161.866.216 1.23.057l.157.351c-.471.206-1.008.145-1.523-.049l.136-.359Zm1.23.057.375-.165-.109.391-.187-.051-.079-.175Zm.266.226a7.455 7.455 0 0 1-.171.533l-.366-.131a6.82 6.82 0 0 0 .162-.504l.375.102Zm-.171.533a6.519 6.519 0 0 1-.209.506l-.353-.159a6.57 6.57 0 0 0 .196-.478l.366.131Zm-.209.506c-.328.713.016 1.088.549 1.328l-.161.351c-.729-.33-1.198-.847-.741-1.838l.353.159Zm.549 1.328c.341.154.753.26 1.137.359l-.097.371c-.403-.103-.836-.215-1.201-.379l.161-.351Zm1.137.359.269.07-.098.372-.268-.071.097-.371Zm.269.07c.463.124 1.261.351 1.979.396l-.024.384c-.752-.047-1.576-.281-2.053-.408l.098-.372Zm1.979.396c.649.041 1.228-.068 1.362-.559l.375.097c-.199.73-.94.898-1.761.846l.024-.384Zm1.362-.559c.071-.261.112-.462.129-.662l.388.032a4.037 4.037 0 0 1-.142.727l-.375-.097Zm.129-.662c.017-.2.01-.395-.015-.642l.386-.036c.028.278.036.494.017.71l-.388-.032Zm-.015-.642.015-.096.178.078-.193.018Zm.015-.096c.262-.577.369-.733.56-1.009l.32.216c-.176.255-.276.399-.525.949l-.355-.156Zm.56-1.009.085-.124.321.215-.086.125-.32-.216Zm.085-.124c.148-.218.216-.363.238-.514l.384.053c-.031.215-.117.406-.301.676l-.321-.215Zm.238-.514c.023-.158 0-.346-.035-.635l.386-.043c.038.316.063.523.033.731l-.384-.053Zm-.035-.635a5.967 5.967 0 0 0-.023-.181l.384-.048.025.186-.386.043Zm-.023-.181-.027-.19.384-.056.027.198-.384.048Zm-.027-.19-.038-.256.259.038-.029.19-.192.028Zm.221-.218a11.55 11.55 0 0 0 1.625.126l-.001.384a11.773 11.773 0 0 1-1.682-.13l.058-.38Zm1.625.126a12.48 12.48 0 0 0 1.613-.097l.046.382a12.87 12.87 0 0 1-1.66.099l.001-.384Zm1.613-.097.12.358-.097-.167-.023-.191Zm.12.358c-.313.181-.626.34-1.026.543l-.177-.342c.394-.201.703-.358 1.009-.535l.194.334Zm-1.026.543-.089.046-.177-.343.089-.045.177.342Zm-.089.046c-.41.208-.414.647-.269 1.106l-.37.114c-.199-.629-.173-1.24.462-1.563l.177.343Zm-.269 1.106c.164.521.514 1.07.733 1.404l-.325.209c-.231-.352-.599-.931-.778-1.499l.37-.114Zm.733 1.404c.459.7.891 1.29 1.388 1.591l-.201.328c-.562-.341-1.026-.969-1.512-1.71l.325-.209Zm1.388 1.591c.47.285 1.019.311 1.746-.078l.184.339c-.869.466-1.542.424-2.131.067l.201-.328Zm1.746-.078c.344-.184.459-.384.615-.654l.338.19c-.188.325-.327.567-.769.803l-.184-.339Zm.615-.654c.061-.107.129-.224.228-.371l.322.213a5.822 5.822 0 0 0-.212.348l-.338-.19Zm.228-.371.068-.062.093.169-.161-.107Zm.068-.062c.113-.062.598-.458 1.069-.844l.248.296c-.488.399-.989.809-1.13.886l-.187-.338Zm1.069-.844c.243-.198.482-.394.606-.493l.245.301c-.228.181-.415.334-.603.488l-.248-.296Zm.606-.493.149-.119.123.146-.149.123-.123-.15Zm.272.027c.078.092.2.149.367.188l-.09.375c-.248-.059-.439-.154-.576-.316l.299-.247Zm.367.188c.191.046.442.068.746.09l-.027.384a5.33 5.33 0 0 1-.809-.099l.09-.375Zm.746.09c.239.017 1.001.016 1.494.016v.385c-.503 0-1.282 0-1.521-.017l.027-.384Zm1.494.016.363.001-.001.384h-.362v-.385Zm.363.001c.459.002.823-.018 1.063-.153l.191.335c-.317.178-.736.205-1.255.202l.001-.384Zm1.063-.153c.219-.123.351-.365.384-.818l.389.027c-.044.601-.244.937-.582 1.126l-.191-.335Zm.384-.818c.017-.233.021-.372-.006-.491l.38-.083c.037.169.034.333.015.601l-.389-.027Zm-.006-.491c-.026-.119-.088-.243-.204-.446l.34-.188c.133.234.207.383.244.551l-.38.083Zm-.204-.446-.024-.09.194-.004-.17.094Zm-.024-.09-.022-.827.388-.01.022.828-.388.009Zm-.022-.827-.023-.828.389-.009.022.827-.388.01Zm-.023-.828a3.376 3.376 0 0 0-.099-.766l.376-.093c.067.26.103.524.112.85l-.389.009Zm-.099-.766a5.322 5.322 0 0 0-.269-.749l.358-.148c.126.297.221.546.287.804l-.376.093Zm-.269-.749c-.085-.2-.158-.394-.229-.585l.364-.132c.068.182.137.367.223.569l-.358.148Zm.135-.718v.001l-.182.066.182-.067Zm-.364.134a8.192 8.192 0 0 0-.377-.893l.347-.173c.166.325.278.624.394.932l-.364.134Zm-.377-.893-.018-.119.192.033-.174.086Zm-.018-.119c.019-.108.035-.207.048-.297l.384.048a7.221 7.221 0 0 1-.049.315l-.383-.066Zm.048-.297c.011-.082.022-.185.033-.31l.389.032a9.16 9.16 0 0 1-.038.326l-.384-.048Zm.033-.31.036-.402.293.279-.135.139-.194-.016Zm.329-.123.571.544-.269.278-.571-.544.269-.278Zm.571.544.426.407-.268.278-.427-.407.269-.278Zm.426.407c.308.294.59.561.902.744l-.197.332c-.35-.205-.648-.487-.973-.798l.268-.278Zm.902.744c.301.175.639.277 1.079.256l.019.385a2.254 2.254 0 0 1-1.295-.309l.197-.332Zm1.079.256c.475-.022.988-.224 1.415-.535l.23.309c-.485.355-1.075.585-1.626.611l-.019-.385Zm1.415-.535c.407-.297.731-.691.863-1.12l.372.111c-.158.512-.535.975-1.005 1.318l-.23-.309Zm.863-1.12.136-.445.372.112-.136.444-.372-.111Zm.136-.445.159-.517.372.112-.159.517-.372-.112Zm.159-.517.05-.165.171.032-.035.189-.186-.056Zm.221-.133a8.716 8.716 0 0 0 2.467.114l.038.381a9.108 9.108 0 0 1-2.576-.118l.071-.377Zm2.467.114c.724-.076 1.421-.257 2.021-.574l.182.34c-.644.34-1.391.535-2.165.615l-.038-.381Zm2.021-.574c.878-.464 1.538-1.149 2.013-1.964l.337.191c-.51.875-1.221 1.612-2.168 2.113l-.182-.34Zm2.013-1.964v-.001l.168.097-.168-.096Zm0-.001c.543-.93.847-2.028.963-3.159l.385.036c-.121 1.186-.441 2.338-1.011 3.316l-.337-.193Zm.963-3.159c.094-.922.042-2.179-.153-3.394l.382-.06c.2 1.246.253 2.539.156 3.49l-.385-.036Zm-.153-3.394c-.172-1.073-.455-2.11-.845-2.849l.344-.178c.41.776.705 1.855.883 2.967l-.382.06Zm-.845-2.849a.812.812 0 0 0-.147-.185l.272-.275c.093.091.169.188.219.282l-.344.178Zm-.147-.185a1.848 1.848 0 0 0-.67-.404l.126-.364c.311.106.612.294.816.493l-.272.275Zm-.67-.404c-.238-.081-.478-.103-.649-.015l-.179-.341c.276-.143.624-.12.954-.008l-.126.364Zm-.649-.015a.409.409 0 0 0-.099.073l-.278-.269a.788.788 0 0 1 .198-.145l.179.341Zm-.099.073c-.159.159-.298.36-.438.563l-.32-.217c.151-.218.302-.436.48-.615l.278.269Zm-.438.563c-.184.265-.368.532-.607.734l-.252-.293c.202-.171.371-.415.539-.658l.32.217Zm-.607.734c-.293.248-.632.382-.947.507l-.144-.357c.286-.114.595-.236.839-.443l.252.293Zm-.947.507-.143.058-.147-.356.146-.059.144.357Zm-.143.058-.186.075-.07-.187.182-.066.074.178Zm-.256-.112a4.978 4.978 0 0 0-.458-.918l.329-.204c.191.301.357.624.493.989l-.364.133Zm-.458-.918a7.316 7.316 0 0 0-.609-.815l.297-.246c.237.279.452.558.641.857l-.329.204Zm-.609-.815a3.2 3.2 0 0 0-.524-.495l.236-.305c.203.154.392.325.585.554l-.297.246Zm-.524-.495a8.495 8.495 0 0 0-.628-.413l.207-.326c.243.15.452.28.657.434l-.236.305Zm-.628-.413c-.677-.42-1.245-.913-1.824-1.416l.255-.29c.567.492 1.123.975 1.776 1.38l-.207.326Zm-1.824-1.416c-.244-.212-.49-.426-.765-.65l.247-.297c.255.207.515.433.773.657l-.255.29Zm-.765-.65c-1.283-1.047-2.471-1.554-3.734-1.633l.025-.385c1.347.084 2.606.619 3.956 1.721l-.247.297Zm-3.734-1.633c-1.271-.079-2.63.273-4.243.945l-.151-.354c1.668-.695 3.081-1.059 4.419-.976l-.025.385Zm-4.243.945a6.03 6.03 0 0 0-1.811 1.136l-.263-.282a6.381 6.381 0 0 1 1.923-1.208l.151.354Zm-1.811 1.136c-.492.451-.915.982-1.389 1.61l-.311-.229c.485-.644.92-1.19 1.437-1.663l.263.282Zm-1.389 1.61-.055.073-.091.005-.01-.192.156.114Zm-.146.078a2.2 2.2 0 0 0-.721.135l-.145-.357a2.56 2.56 0 0 1 .846-.163l.02.385Zm-.721.135c-.229.09-.464.242-.753.494l-.256-.289c.324-.283.595-.456.864-.562l.145.357Zm-.753.494c-.222.194-.438.392-.651.596l-.27-.277c.213-.204.434-.406.665-.608l.256.289Zm-.651.596-.001.001-.134-.139.135.138Zm-.001.001c-.21.201-.416.406-.618.615l-.281-.266c.206-.212.415-.421.631-.627l.268.278Zm-.618.615-.11.057-.03-.19.14.133Zm-.11.057c-1.519.239-2.749.502-3.848.923l-.14-.359c1.124-.43 2.379-.699 3.927-.943l.061.379Zm-3.848.923c-1.09.418-2.052.994-3.041 1.862l-.257-.288c1.026-.901 2.025-1.498 3.158-1.933l.14.359Zm-3.041 1.862a7.842 7.842 0 0 0-1.048 1.113l-.308-.233c.317-.412.68-.801 1.099-1.168l.257.288Zm-1.048 1.113a8.174 8.174 0 0 0-.788 1.243l-.347-.174a8.67 8.67 0 0 1 .827-1.302l.308.233Zm-.788 1.243-.029.042-.145-.129.174.087Zm-.029.042c-.221.241-.442.486-.678.697l-.26-.287c.229-.203.439-.437.649-.667l.289.257Zm-.678.697a2.683 2.683 0 0 1-.828.527l-.139-.359c.259-.099.49-.262.707-.455l.26.287Zm-.828.527-.069-.179.069.179Zm0 0c-.25.095-.371.142-.509.085l.15-.355c.006.003.069-.031.221-.089l.138.359Zm-.509.085-.001-.001.076-.177-.075.178Zm-.001-.001c-.146-.061-.187-.18-.277-.418l.365-.134c.051.136.05.193.064.199l-.152.353Zm-.277-.418-.05-.134.116-.087.117.154-.183.067Zm.066-.221c.357-.265.391-.794.424-1.303l.388.024c-.038.595-.077 1.214-.579 1.587l-.233-.308Zm.424-1.303.012-.184.389.027-.013.181-.388-.024Zm.012-.184.014-.187.189.009-.009.192-.194-.014Zm.203-.178c.321.015.467.239.624.48l-.326.207c-.101-.154-.194-.297-.316-.303l.018-.384Zm.624.48c.044.067.09.137.137.197l-.303.238a2.701 2.701 0 0 1-.16-.228l.326-.207Zm.175.357-.088.394-.253-.316.152-.119.189.041Zm-.379-.082c.066-.291.116-.672.045-.983l.378-.084c.087.38.031.819-.044 1.149l-.379-.082Zm.045-.983c-.045-.199-.142-.369-.322-.461l.178-.343c.297.153.453.417.522.72l-.378.084Zm-.322-.461-.153-.079.06-.159.182.067-.089.171Zm-.093-.238.113-.29.361.14c-.033.085-.067.17-.11.284l-.364-.134Zm.113-.29c.057-.145.116-.293.178-.467l.367.126c-.055.156-.12.32-.184.481l-.361-.14Zm.329-.593.326-.056-.11.308-.183-.063-.033-.189Zm.065.378c-.376.065-1.204.525-1.806 1.143l-.28-.266c.656-.674 1.588-1.181 2.021-1.255l.065.378Zm-1.806 1.143a2.75 2.75 0 0 0-.519.712l-.352-.161c.137-.29.347-.567.591-.817l.28.266Zm-.519.712c-.111.235-.162.476-.121.709l-.383.065c-.055-.317.009-.633.152-.935l.352.161Zm-.121.709c.037.212.152.426.369.632l-.269.278c-.281-.268-.432-.554-.483-.845l.383-.065Zm.369.632.054.094-.189.045.135-.139Zm.054.094c.049.198.093.366.141.518l-.37.114a9.272 9.272 0 0 1-.148-.541l.377-.091Zm.141.518c.046.145.097.276.16.405l-.351.166a3.342 3.342 0 0 1-.179-.457l.37-.114Zm.16.405c.139.288.36.463.615.544l-.118.367a1.395 1.395 0 0 1-.848-.745l.351-.166Zm.615.544c.297.095.643.066.966-.059l.142.357c-.404.156-.843.191-1.226.069l.118-.367Zm.966-.059.338-.13-.077.349-.19-.04-.071-.179Zm.261.219a7.47 7.47 0 0 0-.166 1.343l-.388-.013c.019-.514.078-.971.174-1.411l.38.081Zm-.166 1.343c-.018.492.001 1.044.057 1.693l-.388.031a13.896 13.896 0 0 1-.057-1.737l.388.013Zm.057 1.693c.014.165.032.317.051.456l-.384.051a8.89 8.89 0 0 1-.055-.476l.388-.031Zm.051.456c.022.153.049.31.08.469l-.381.072a9.44 9.44 0 0 1-.083-.49l.384-.051Zm.08.469-.009.102-.182-.066" fill="#000"/><path fill-rule="evenodd" clip-rule="evenodd" d="m401.073 327.835-2.557.411-2.335 1.013-1.982 1.234-1.886 2.278-1.066 1.118-1.031.376-.272-.66.476-.681.107-.96.32.013.348.315-.094-.978-.386-.257.011-.373-.915.513-.83.969-.173.865.355.693.331 1.178.673.315.707-.034.671-.386-.447 2.247.447 2.5-.492 1.154-1.614 1.721.287 1.028.764 1.192 1.442 1.004.764.104.85.028-.53 2.155 1.95.791 2.43.317.832-.538.064-1.456.927-1.519.064-1.203 2.238.159 2.078-.19-2.078 1.234.352 1.487 1.311 2.026 1.279.538 1.023-.412.415-.822 2.143-1.614.415.348 3.358.126.671-.538.064-.949-.224-.411-.16-2.564-1.119-2.215.192-.981.671.348 1.887 1.74.927.064 1.023-.412 1.023-.759.512-1.646 3.006.19 1.822-.696 1.471-1.361 1.055-1.962.256-2.31-.224-2.69-.576-2.405-.575-.76-.799-.253-1.407 1.519-1.279.443-1.119-1.835-1.119-1.013-.608-.38-2.43-1.994-1.95-1.044-1.951-.158-2.27.38-1.982.727-1.375 1.108-1.087 1.298-1.119.316-1.951 1.836Z" fill="#fff" stroke="#1F1917" stroke-width=".27" stroke-miterlimit="10"/><path fill-rule="evenodd" clip-rule="evenodd" d="M393.655 333.546c-2.191 2.53-1.705 5.597-1.097 8.603l-.973-2.431-.358-2.229.103-2.279.921-2.178 1.381-2.026 2.15-1.773 2.354-.962 2.763-.355-2.559 2.887c-2.054.66-3.266 1.104-4.685 2.743Z" fill="#fff"/><path fill-rule="evenodd" clip-rule="evenodd" d="M403.969 325.84c-1.523 1.47-2.355 2.58-3.324 4.302-.694 1.232-1.471 2.419-2.2 3.633-.369.615-.404 1.131-.514 1.84l-1.075-1.266.512-1.52 1.74-3.089 3.684-3.597 1.177-.303Zm7.523-3.647c-1.22.453-3.246.602-3.387 1.988-.1.984.075 1.478.675 2.52-1.481-1.517-1.847-1.282-4.708-.811l1.228-1.722 2.149-1.317 2.764-.608 1.279-.05Z" fill="#fff"/><path fill-rule="evenodd" clip-rule="evenodd" d="M414.858 340.939c.406.249.398.428.33.598l.961-.38.622-.828.463-1.179-.591-.439-2.581.326-.192.516.055.734.247.435.384.19.302.027Zm-.24-4.369c-1.294.37-1.284.472-1.666 1.742.504-.801.878-1.205 1.666-1.742Zm8.603-9.508c-.23.106-.454.156-.597.364-.31.449-.575.826-1.087 1.14a3.386 3.386 0 0 1-.798.346c-.227.07-.363.007-.556.145l.343.059h.758l.934-.571.549-.57.454-.913Zm-20.61 2.842c-.509 1.379-.954 2.561-1.725 3.809.988-1.054 1.587-1.949 2.153-3.141.22-.462.261-1.005.873-.803.028.462.127.924.154 1.386.331-2.348 1.264-3.329 3.433-4.24l-1.84.217-1.73.381-.851 1.223-.467 1.168Zm4.201-.054c.468 2.179 1.141 4.27 1.434 6.483.19 1.438.211 2.129-.521 3.37-.799-.051-1.295.038-2.067.289-3.077.998-4.842 2.466-6.915-.492l1.986.927 1.415-.276 2.499-1.44 1.949-.381.632-2.609-.467-3.452-.055-1.631.11-.788Zm5.3 13.481c-.258 1.77.595 2.722.242 3.211-.1.138-.236.38-.387.446-.541.236-1.285-.044-1.338.094h-1.785l-.714-.299 1.099-1.277 1.071-2.311.686-2.337h.357l.769 2.473Z" fill="#EAEAEA"/><path fill-rule="evenodd" clip-rule="evenodd" d="M409.112 338.185c.145.804.397.995.779 1.773-.254 1.269-.663 2.779-1.154 3.899-.208.472-.375.732-.74 1.097a18.858 18.858 0 0 1-1.941 1.688c-.504.385-.855.192-1.477.105-.264.474-.337.738-.823.978-.748.371-1.418-.427-2.005-.897l1.272 1.966.878.816.742.109.988-.598.522-.979 1.099-.815 1.345-1.142.851-1.196.769-1.413.989-2.936.082-1.114-1.235-.544c-.303-.28-.639-.516-.941-.797Zm-9.851 5.663c1.386 0 2.849-.076 4.119-.653.359-.533.713-.969 1.153-1.44-.4.748-.525 1.17-.632 2.011l-.412.598-3.13.082-1.016-.109-.11-.109.028-.38Zm-.193-.952-.107-.965c-.237 1.411-.18 2.356-.836 3.62-.49.562-1.093 1.073-1.784 1.347.058.347.075.563.041.817-.121.914-1.968.51-2.728.474l3.657.932.824-.327.274-1.576.769-1.413.137-.87-.247-2.039Zm-2.059-7.963c-.039.686-.083.972.222 1.577.389.771.866 1.494 1.288 2.255l.137-1.522-1.647-2.31Zm-5.637 5.181-.357.752c.327 1.09.618 1.781 1.241 2.734-.108.386-.19.555-.439.87a9.954 9.954 0 0 0-1.591-.106l1.84 1.413.906-.163.906-.897-1.29-1.984-1.216-2.619Zm31.853-13.413c.374 1.664.855 3.199.811 4.902-.055 2.09-.467 4.73-2.423 5.99-2.191 1.411-4.763.744-7.167.139l2.939 1.196 2.746.136 1.867-.544 1.455-1.195 1.099-2.284.412-2.636-.33-2.582-.604-2.555-.805-.567Zm-32.696 4.958c-.995.641-1.385.922-1.276 2.109l.297 1.067.421.283.521.171.942-.221.483-1.484-1.338.65h-.31a95.812 95.812 0 0 1-.347-.527l.421-.613.223-1.165.285.085.347.27-.049-.613-.236-.392-.235-.197-.149.577Zm22.315-9.358c.883.811 1.966 1.517 2.672 2.508.274.384.577.58-.004 1.123.614-.174.842-.155 1.334-.096.895.107 1.734 1.366 1.787 2.268-.011.084-.248.276-.94.465-.014.026-.391-.051-.381-.026.072.195.168.224.314.315.032.217.053.551.202.788a6.05 6.05 0 0 1 1.287.123c.143.235.121.47.109.706l.495-.081-.138-1.115.44-.734-.632-1.413-1.208-1.141-.116-.006-1.359-.826-2.216-1.794-1.646-1.064Zm1.487 6.697c-.046.081-.117.209-.207.299.368.344.549.574.68 1.061l-1.247.613-1.055 1.001c-.463-.246-.578-.436-.802-.906-.261.068-.508.134-.723.056.136.001.22-.033.357-.117l.671-.69 1.186-.889.776-.25c.099-.04.265-.138.364-.178Z" fill="#EAEAEA"/><path fill-rule="evenodd" clip-rule="evenodd" d="M415.478 330.226c-1.322.704-2.589 1.413-3.265 2.752 0-1.699 1.724-2.447 3.265-2.752Zm-3.527-3.342c-.982.662-1.676 2-1.589 3.303-.32-1.128-.207-2.195.775-2.974l.497-.24.317-.089Z" fill="#EAEAEA"/><path fill-rule="evenodd" clip-rule="evenodd" d="M413.828 336.944c.203-.109.571-.259.774-.369-.209.035-.583.111-.792.146-.557.093-.623.226-.71.769-.04.256-.097.574-.137.83.109-.29.24-.626.368-.902.135-.292.211-.319.497-.474Zm-10.347-13.995c.438-.651.691-.862 1.365-1.274-.916.218-1.09.386-1.365 1.274Zm-.144 1.433c.767-1.526 1.347-2.087 2.953-2.837-1.816.441-2.35.754-2.953 2.837Zm-16.422 7.942c.168-.764.325-1.052.801-1.679-.772.534-.873.753-.801 1.679Zm17.189 12.788-.07-.556a4.345 4.345 0 0 1-.013-.947l.078-.982c-.097.333-.289.665-.385.998-.039.133-.071.241-.089.34a11.419 11.419 0 0 1-4.301.055 25.629 25.629 0 0 0-.297-1.469c-.028.441-.01 1.659-.012 2.341-.002.529-.024.709-.3 1.159-.257.421-.367.516-.727 1.227.03.449.03.746-.09 1.172-.201.707-2.221.159-2.754.014-.656-.177-2.013-.442-1.672-1.308.3-.762.491-1.566.637-2.632-1.202-1.715-2.321-4.064-2.535-6.146-.167-1.617-.067-2.612.287-3.601.56-1.566 1.343-2.923 2.6-4.015 1.696-1.472 3.281-2.064 5.763-2.438-.597.662-1.187 1.361-1.831 2.111-.652.759-1.039 1.525-1.452 2.356-.572 1.146-.56 1.583.198 2.589.653.868 1.005 1.259 1.29 2.107-.235.481-.321.887-.4 1.543.8.864 1.394 1.457 2.17 1.64.761.179 1.397.144 2.078-.201 1.513-.765 2.913-1.754 4.619-1.794.79-1.922.71-3.527.331-5.385-.259-1.27-.363-2.472-.443-3.766-.32 1.333-.38 2.505-.143 3.832.286 1.6.509 3.368-.288 4.774-1.543.117-2.865 1.046-4.256 1.759-.559.287-1.141.314-1.76.146-.574-.156-.962-.532-1.58-1.238-.01-.709.152-1.037.481-1.679.528-1.031 1.112-1.991 1.752-3.006-.784.937-1.527 1.719-2.144 2.661-.236-.665-.573-1.003-1.132-1.752-.546-.731-.603-1.052-.195-1.898.411-.851.759-1.599 1.457-2.345 1.207-1.29 2.312-2.725 3.631-3.995.717-.69 1.008-.666 1.958-.809a32.962 32.962 0 0 0 2.574-.493c-.848.079-1.666.107-2.491.128h-.026c.812-1.026 1.283-1.597 2.601-2.164 3.244-1.395 5.306-1.546 7.855.575.661.55 1.238 1.083 1.908 1.557a2.434 2.434 0 0 0-.729.172c.336-.064.726-.001 1.075.062.098.063.199.125.303.185.472.276.741.428 1.06.869.338.466.62.932.869 1.445-.163-.057-.3-.106-.421-.142a.914.914 0 0 0-.854.053l-.019.009a4.01 4.01 0 0 1-.938.313c.138.047.444.065.588.009a.449.449 0 0 1 .059-.019.893.893 0 0 0-.023.869.506.506 0 0 0 .096.147c-.124.045-.25.097-.381.153a6.05 6.05 0 0 1 1.74-.03c.039.184.079.379.115.578l-.219.017-.018.001c-.279-.221-.59-.183-1.015-.087-1.293.291-.989 1.009-1.584 2.091.618-.747.572-1.529 1.578-1.765.234-.055.394-.123.553-.1-.286.143-.533.378-.631.652-.276.772-.105 1.422-.408 2.143.376-.644.398-1.273.734-1.951.121-.244.569-.634.844-.64l.226-.005c.067.429.107.855.081 1.209-.047.644-.216 1.601-.317 1.968.34-.434.495-1.351.645-1.997.155-.672.116-1.479-.02-2.201-.187-.991.844-.83 1.443-1.297.44-.344.743-.892 1.146-1.28.401-.386 1.031.18 1.188.557.683 1.635.994 4.206.814 5.854-.203 1.849-1.105 3.867-2.753 4.778-2.1 1.16-4.577.451-6.664-.245-.445-.148-.755-.365-1.146-.609.106.475.155.978.013 1.453-.225.752-.589 1.984.444 2.211.393.087.571.074 1.126-.209-.449.1-.675.076-.984.019a.638.638 0 0 1-.506-.434c.097.07.257.108.529.173.766.182 1.495-.182 1.638-.708.083-.307.069-.468.245-.886.159.048.322.092.49.132l-.284.919c-.246.794-1.205 1.435-2.051 1.42-.783-.014-1.279-.499-1.819-.975l-1.085-.951c-.974-.305-1.755-.66-2.658-1.322.643.748 1.079 1.162 1.976 1.534-.13 1.317-.593 2.278-.987 3.538-.178.57-1.587 2.854-1.978 3.077-.278.158-2.022 1.612-2.35 1.804-.244.321-.459.765-.826.957-1.119.586-1.838-.536-2.44-1.483-.275-.432-1.036-1.675-.372-2.023.627-.329.979-.564 1.619-.98.094.17.256.333.361.503Zm3.891 2.008c-.567.453-1.52 1.255-1.705 1.356-.334.494-.376.8-.912 1.088-1.596.855-2.444-.137-3.389-1.578-.45-.687-1.434-2.255-.39-2.787.441-.224.774-.392 1.107-.583a12.053 12.053 0 0 1-3.29-.031c.02.134.037.261.051.377.073.605.096.791-.236 1.278-.242.356-.335.458-.627 1.104.053.525.03.821-.12 1.37-.332 1.222-2.638.552-3.577.301-1.13-.302-2.745-.584-2.082-2.022.155-.337.277-.682.369-1.011-.989.433-2.362-.485-3.016-1.134a3.736 3.736 0 0 1-1.078-2.03c-.1-.592-.008-.589.419-1.008l1.171-1.148.473-1.274a9.178 9.178 0 0 1-.134-.947c-.114-1.306-.076-2.236.113-3.091-.688.266-1.477.141-1.828-.581-.133-.275-.213-.554-.313-.96-1.534-1.463 1.34-3.381 2.179-3.525-.096.269-.201.516-.294.761.569.291.499 1.121.379 1.656-.205-.256-.318-.59-.619-.604-.044.604-.036 1.272-.513 1.627.141.374.134.374.535.222.57-.218.999-.701 1.431-1.174a8.095 8.095 0 0 1 1.881-2.413c2.015-1.768 3.919-2.347 6.986-2.831.408-.421.83-.828 1.283-1.224.613-.535 1.012-.647 1.592-.677.96-1.271 1.715-2.156 3.281-2.808 3.281-1.367 5.542-1.433 8.176.716.87.71 1.612 1.459 2.569 2.052.484.3.83.515 1.196.948.462.544.839 1.088 1.101 1.789.339-.138.726-.268 1.038-.532.403-.341.659-.911 1.032-1.286.496-.497 1.626.103 1.876.577.851 1.612 1.199 4.583 1.018 6.35-.223 2.184-1.133 4.249-3.077 5.276-1.322.698-3.096.763-4.614.479l-.295.961c-.295.96-1.448 1.745-2.454 1.792-.967.046-1.491-.448-2.125-1.053l-.998-.951a7.013 7.013 0 0 1-.084.624c.262.512.388.962.612 1.489.247.581.367.962.383 1.584l.045 1.656c.249.437.271.544.234 1.044-.076 1.055-.663 1.156-1.641 1.15-.326-.002-1.557.005-1.87-.017-.624-.045-1.035-.092-1.249-.347Zm3.298-5.754c-.196.695-.461 1.352-.702 2.105-.229.712-1.401 2.781-2.091 3.282.134.099.381.138.82.176.311.026 1.535.032 1.843.037.677.012.933-.039 1.002-.802.033-.373.004-.443-.185-.77l-.05-1.752c-.016-.554-.123-.873-.343-1.389-.132-.308-.203-.597-.294-.887Zm-20.619-9.557c.152-.017.246.062.363.179-.021-.278-.073-.484-.27-.598a2.25 2.25 0 0 0-.093.419Zm.955 2.007c-.11.281-.211.569-.307.868l-.045.148c-.578.243-1.339.397-1.629-.204-.142-.292-.221-.579-.325-.947-.951-.977.472-2.265 1.247-2.727a4.16 4.16 0 0 0-.247.605c-.235.806.107 1.526-.632 2.11.347.694.331.97 1.139.65.312-.124.569-.297.799-.503Zm-.223 6.569c.438 1.5 1.184 2.974 2.012 4.213l-.001.021c-.051.213-.111.421-.237.587-.591.783-2.095-.366-2.531-.806-.476-.481-.794-1.05-.87-1.585-.055-.389-.002-.399.273-.674l1.111-1.113.243-.643Zm27.998-12.038a.92.92 0 0 1 .199.29.886.886 0 0 1 .082-.067c-.035-.077-.07-.153-.106-.228l-.175.005Zm-7.243 2.698a1.157 1.157 0 0 1-.115-.496c-.284.225-.592.437-.912.56.442-.391 1.042-1.312 1.477-1.603.494-.33 1.164-.266 1.74-.529-.197.176-.449.319-.705.454a1.176 1.176 0 0 1 .774.975 3.45 3.45 0 0 1 1.087-.18 6.778 6.778 0 0 0-3.21 2.051c.095-.257.227-.489.386-.697a1.181 1.181 0 0 1-.522-.535Zm-5.321-4.109c-.633.245-1.211.429-1.829.582-.564.733-.907 1.113-1.037 2.096-.152-.967-.184-1.146.251-1.868a2.104 2.104 0 0 0-.411.293c-.608.514-1.399 2.534-1.716 3.256.201-.87.83-3.042 1.477-3.675.426-.417.522-.407 1.122-.464.715-.067 1.429-.14 2.143-.22Zm13.226 2.108c.514.048.808.126 1.268-.099.858-.42 1.489-1.106 1.899-1.927-.251.979-.755 1.811-1.8 2.18-.513.181-.844-.006-1.367-.154Zm-9.865.095c.194-.848.537-1.666 1.869-2.299-1.765.437-2.096 1.171-1.869 2.299Zm-22.892 4.572c.152-1.698.485-2.43 1.704-3.708-1.529 1.066-1.91 1.55-1.704 3.708Z" fill="#000"/><path fill-rule="evenodd" clip-rule="evenodd" d="M412.392 331.318a.49.49 0 0 1 .235-.655.502.502 0 0 1 .69.303 3.103 3.103 0 0 0-.634.615.538.538 0 0 1-.291-.263Zm5.527-2.116a.364.364 0 0 1 .398-.332c.204.019.355.2.336.403a.37.37 0 0 1-.034.12 3.294 3.294 0 0 0-.567.156.482.482 0 0 1-.133-.347Z" fill="#fff"/><path d="M377.041 410v-9.306h1.231v3.822h4.837v-3.822h1.232V410h-1.232v-4.386h-4.837V410h-1.231Zm8.534 0 3.574-9.306h1.327l3.808 9.306h-1.402l-1.086-2.818h-3.891L386.883 410h-1.308Zm2.686-3.821h3.154l-.971-2.577a25.72 25.72 0 0 1-.66-1.93 11.998 11.998 0 0 1-.501 1.777l-1.022 2.73Zm7.207 3.821v-9.306h3.206c.724 0 1.276.045 1.657.134.533.122.988.345 1.364.666a3.77 3.77 0 0 1 1.099 1.593c.245.644.368 1.38.368 2.209 0 .707-.083 1.333-.248 1.879-.165.546-.376.999-.635 1.359a3.413 3.413 0 0 1-.85.844 3.446 3.446 0 0 1-1.111.463 6.291 6.291 0 0 1-1.492.159h-3.358Zm1.232-1.098h1.987c.613 0 1.094-.057 1.441-.172.351-.114.63-.275.837-.482.292-.292.519-.683.68-1.174.165-.495.247-1.094.247-1.797 0-.973-.161-1.72-.482-2.24-.318-.525-.705-.876-1.162-1.054-.33-.127-.861-.191-1.593-.191H396.7v7.11Zm7.988-3.434c0-1.545.415-2.753 1.245-3.625.829-.876 1.9-1.314 3.211-1.314.859 0 1.634.206 2.324.616a4.008 4.008 0 0 1 1.574 1.72c.364.732.546 1.564.546 2.495 0 .944-.191 1.788-.571 2.533a3.924 3.924 0 0 1-1.619 1.694 4.645 4.645 0 0 1-2.26.572c-.876 0-1.659-.212-2.349-.635a4.085 4.085 0 0 1-1.567-1.733 5.243 5.243 0 0 1-.534-2.323Zm1.27.019c0 1.121.3 2.006.901 2.653.605.643 1.363.965 2.273.965.926 0 1.688-.326 2.285-.978.601-.651.901-1.576.901-2.773 0-.758-.129-1.418-.387-1.981a2.904 2.904 0 0 0-1.123-1.314 3.02 3.02 0 0 0-1.657-.47c-.872 0-1.623.301-2.254.902-.626.596-.939 1.595-.939 2.996Zm9.049-.019c0-1.545.414-2.753 1.244-3.625.829-.876 1.9-1.314 3.212-1.314.859 0 1.633.206 2.323.616.69.411 1.214.984 1.574 1.72.364.732.546 1.564.546 2.495 0 .944-.19 1.788-.571 2.533a3.924 3.924 0 0 1-1.619 1.694 4.642 4.642 0 0 1-2.26.572c-.876 0-1.659-.212-2.348-.635a4.08 4.08 0 0 1-1.568-1.733 5.242 5.242 0 0 1-.533-2.323Zm1.269.019c0 1.121.301 2.006.901 2.653.606.643 1.363.965 2.273.965.927 0 1.688-.326 2.285-.978.601-.651.901-1.576.901-2.773 0-.758-.129-1.418-.387-1.981a2.904 2.904 0 0 0-1.123-1.314 3.017 3.017 0 0 0-1.657-.47c-.872 0-1.623.301-2.253.902-.627.596-.94 1.595-.94 2.996Zm9.423 4.513v-9.306h3.51c.618 0 1.09.03 1.416.089.457.076.84.222 1.149.438.309.212.556.51.743.895.19.385.285.808.285 1.27 0 .791-.252 1.462-.755 2.012-.504.546-1.414.819-2.73.819h-2.386V410h-1.232Zm1.232-4.881h2.405c.796 0 1.361-.148 1.695-.445.335-.296.502-.713.502-1.25 0-.389-.1-.722-.299-.997a1.358 1.358 0 0 0-.774-.552c-.207-.055-.59-.083-1.149-.083h-2.38v3.327Z" fill="#000"/><path d="m261.539 329.24 1.072-.094c.051.43.168.784.352 1.061.187.273.476.496.867.668.391.168.83.252 1.318.252a3.18 3.18 0 0 0 1.149-.193c.332-.129.578-.305.738-.528a1.23 1.23 0 0 0 .246-.738c0-.27-.078-.504-.234-.703-.156-.203-.414-.373-.774-.51-.23-.09-.74-.228-1.529-.416-.789-.191-1.342-.371-1.658-.539-.41-.215-.717-.48-.92-.797a1.99 1.99 0 0 1-.299-1.072c0-.434.123-.838.369-1.213.246-.379.606-.666 1.078-.861a4.08 4.08 0 0 1 1.577-.293c.636 0 1.197.103 1.681.31.489.203.864.504 1.125.903.262.398.403.849.422 1.353l-1.09.082c-.058-.543-.258-.953-.597-1.23-.336-.278-.834-.416-1.494-.416-.688 0-1.19.127-1.506.38-.313.25-.469.553-.469.909 0 .308.111.562.334.761.219.2.789.405 1.711.616.926.207 1.56.388 1.904.545.5.23.869.523 1.108.878.238.352.357.758.357 1.219 0 .457-.131.889-.393 1.295-.261.402-.638.717-1.13.943-.489.223-1.04.334-1.653.334-.777 0-1.43-.113-1.957-.339a2.771 2.771 0 0 1-1.236-1.02 2.932 2.932 0 0 1-.469-1.547Zm8.409 5.156-.117-.99c.23.063.431.094.603.094.235 0 .422-.039.563-.117a.97.97 0 0 0 .346-.328c.066-.106.173-.367.322-.785.019-.059.051-.145.094-.258l-2.362-6.235h1.137l1.295 3.604c.168.457.318.937.451 1.441.121-.484.266-.957.434-1.418l1.33-3.627h1.054l-2.367 6.328c-.254.684-.451 1.155-.592 1.413-.187.347-.402.601-.644.761a1.508 1.508 0 0 1-.867.246c-.203 0-.43-.043-.68-.129Zm6.247-2.396v-6.223h.949v.885c.457-.683 1.117-1.025 1.981-1.025.375 0 .718.068 1.031.205.316.133.553.308.709.527.156.219.265.479.328.779.039.196.059.538.059 1.026V332h-1.055v-3.785c0-.43-.041-.75-.123-.961a.996.996 0 0 0-.44-.51 1.355 1.355 0 0 0-.732-.193c-.449 0-.838.142-1.166.428-.324.285-.486.826-.486 1.623V332h-1.055Zm10.94-2.279 1.037.134c-.113.715-.404 1.276-.873 1.682-.465.402-1.037.604-1.717.604-.851 0-1.537-.278-2.056-.832-.516-.559-.774-1.358-.774-2.397 0-.672.112-1.26.334-1.764.223-.503.561-.88 1.014-1.13a3.013 3.013 0 0 1 1.488-.381c.676 0 1.229.172 1.658.515.43.34.706.825.827 1.453l-1.026.159c-.097-.418-.271-.733-.521-.944a1.33 1.33 0 0 0-.897-.316c-.531 0-.963.191-1.295.574-.332.379-.498.981-.498 1.805 0 .836.16 1.443.481 1.822.32.379.738.568 1.254.568.414 0 .759-.127 1.037-.38.277-.254.453-.645.527-1.172Zm2.14 2.279v-8.59h1.054v3.082a2.358 2.358 0 0 1 1.864-.855c.461 0 .861.092 1.201.275.34.18.582.43.726.75.149.32.223.785.223 1.395V332h-1.055v-3.943c0-.528-.115-.911-.345-1.149-.227-.242-.549-.363-.967-.363-.313 0-.608.082-.885.246-.273.16-.469.379-.586.656-.117.278-.176.66-.176 1.149V332h-1.054Zm6.868 0v-6.223h.949v.944c.242-.442.465-.733.668-.873a1.18 1.18 0 0 1 .679-.211c.356 0 .717.113 1.084.34l-.363.978a1.51 1.51 0 0 0-.773-.228.99.99 0 0 0-.621.211 1.105 1.105 0 0 0-.393.574 4.112 4.112 0 0 0-.176 1.23V332h-1.054Zm3.815-3.111c0-1.153.32-2.006.961-2.561.535-.461 1.187-.691 1.957-.691.855 0 1.554.281 2.097.843.543.559.815 1.332.815 2.321 0 .801-.121 1.431-.363 1.892a2.539 2.539 0 0 1-1.049 1.067 3.036 3.036 0 0 1-1.5.381c-.871 0-1.576-.28-2.115-.838-.536-.559-.803-1.364-.803-2.414Zm1.084 0c0 .797.174 1.394.521 1.793.348.394.785.591 1.313.591.523 0 .959-.199 1.306-.597.348-.399.522-1.006.522-1.822 0-.77-.176-1.352-.527-1.747a1.658 1.658 0 0 0-1.301-.597c-.528 0-.965.197-1.313.592-.347.394-.521.99-.521 1.787ZM307.23 332v-6.223h.949v.885c.457-.683 1.117-1.025 1.981-1.025.375 0 .719.068 1.031.205.316.133.553.308.709.527.156.219.266.479.328.779.039.196.059.538.059 1.026V332h-1.055v-3.785c0-.43-.041-.75-.123-.961a.998.998 0 0 0-.439-.51 1.359 1.359 0 0 0-.733-.193c-.449 0-.838.142-1.166.428-.324.285-.486.826-.486 1.623V332h-1.055Zm6.886-7.377v-1.213h1.054v1.213h-1.054Zm0 7.377v-6.223h1.054V332h-1.054Zm2.309 0v-.855l3.961-4.547c-.449.023-.846.035-1.19.035h-2.537v-.856h5.086v.698l-3.369 3.949-.65.721a17.53 17.53 0 0 1 1.33-.053h2.877V332h-5.508Zm10.817-.768c-.39.332-.767.567-1.131.704a3.25 3.25 0 0 1-1.16.205c-.683 0-1.209-.166-1.576-.498-.367-.336-.551-.764-.551-1.284 0-.304.069-.582.205-.832.141-.254.323-.457.545-.609.227-.152.481-.268.762-.346.207-.054.519-.107.937-.158.852-.102 1.479-.223 1.881-.363l.006-.276c0-.429-.099-.732-.299-.908-.269-.238-.67-.357-1.201-.357-.496 0-.863.088-1.101.263-.235.172-.409.479-.522.92l-1.031-.14c.094-.442.248-.797.463-1.067.215-.273.525-.482.931-.627.407-.148.877-.222 1.412-.222.532 0 .963.062 1.295.187.332.125.577.283.733.475.156.187.265.426.328.715.035.179.053.504.053.972v1.407c0 .98.021 1.601.064 1.863.047.258.137.506.27.744h-1.102a2.243 2.243 0 0 1-.211-.768Zm-.088-2.355c-.383.156-.957.289-1.722.398-.434.063-.741.133-.92.211a.908.908 0 0 0-.563.844c0 .281.106.516.317.703.214.188.527.281.937.281.406 0 .768-.087 1.084-.263.317-.18.549-.424.697-.733.114-.238.17-.589.17-1.054v-.387Zm5.21 2.18.152.931a3.867 3.867 0 0 1-.796.094c-.383 0-.68-.061-.891-.182a1.02 1.02 0 0 1-.445-.474c-.086-.199-.129-.615-.129-1.248v-3.58h-.774v-.821h.774v-1.541l1.049-.632v2.173h1.06v.821h-1.06v3.638c0 .301.017.494.052.58.039.086.1.155.182.205a.715.715 0 0 0 .363.077c.117 0 .272-.014.463-.041Zm1.243-6.434v-1.213h1.055v1.213h-1.055Zm0 7.377v-6.223h1.055V332h-1.055Zm2.473-3.111c0-1.153.321-2.006.961-2.561.536-.461 1.188-.691 1.957-.691.856 0 1.555.281 2.098.843.543.559.815 1.332.815 2.321 0 .801-.122 1.431-.364 1.892a2.533 2.533 0 0 1-1.049 1.067 3.036 3.036 0 0 1-1.5.381c-.871 0-1.576-.28-2.115-.838-.535-.559-.803-1.364-.803-2.414Zm1.084 0c0 .797.174 1.394.522 1.793.348.394.785.591 1.312.591.524 0 .959-.199 1.307-.597.348-.399.522-1.006.522-1.822 0-.77-.176-1.352-.528-1.747a1.655 1.655 0 0 0-1.301-.597c-.527 0-.964.197-1.312.592-.348.394-.522.99-.522 1.787Zm6.189 3.111v-6.223h.949v.885c.457-.683 1.117-1.025 1.98-1.025.375 0 .719.068 1.032.205.316.133.552.308.709.527.156.219.265.479.328.779.039.196.058.538.058 1.026V332h-1.054v-3.785c0-.43-.041-.75-.123-.961a.996.996 0 0 0-.44-.51 1.355 1.355 0 0 0-.732-.193c-.449 0-.838.142-1.166.428-.324.285-.487.826-.487 1.623V332h-1.054Z" fill="#9C9C9C"/><path d="M265.071 310.399a.75.75 0 0 0 1.061 0l4.773-4.773a.75.75 0 1 0-1.061-1.061l-4.242 4.243-4.243-4.243a.75.75 0 1 0-1.061 1.061l4.773 4.773Zm1.281-.531c0-15.998 16.931-29.276 38.25-29.276v-1.5c-21.76 0-39.75 13.608-39.75 30.776h1.5Zm38.25-29.276c21.319 0 38.25 13.278 38.25 29.276h1.5c0-17.168-17.991-30.776-39.75-30.776v1.5Zm39.53 62.802a.752.752 0 0 0-1.061 0l-4.773 4.773a.75.75 0 1 0 1.061 1.061l4.243-4.243 4.242 4.243a.75.75 0 1 0 1.061-1.061l-4.773-4.773Zm-1.28.531c0 15.998-16.931 29.277-38.25 29.277v1.5c21.759 0 39.75-13.609 39.75-30.777h-1.5Zm-38.25 29.277c-21.319 0-38.25-13.279-38.25-29.277h-1.5c0 17.168 17.99 30.777 39.75 30.777v-1.5Z" fill="#000"/><path d="m63.136 37.872-21.534 7.235v14.722l21.186 5.541 20.814-6.403V44.37l-20.466-6.498Z" fill="#fff"/><path d="M41.689 45.004 62.76 37.37l21.054 6.408" stroke="#2D2D2D" stroke-width="1.2" stroke-linejoin="round"/><path d="m63.238 50.8-21.55-5.796v14.78l21.55 5.7 20.501-6.569V43.748l-20.5 7.052Z" stroke="#2D2D2D" stroke-width="1.2" stroke-linejoin="round"/><path d="M62.963 50.73v14.264" stroke="#2D2D2D" stroke-width="1.5" stroke-linejoin="round"/><path d="M232.534 37.872 211 45.107v14.722l21.186 5.541L253 58.967V44.37l-20.466-6.498Z" fill="#fff"/><path d="m211.087 45.004 21.073-7.634 21.054 6.408" stroke="#2D2D2D" stroke-width="1.2" stroke-linejoin="round"/><path d="m232.636 50.8-21.549-5.796v14.78l21.549 5.7 20.501-6.569V43.748L232.636 50.8Zm-.275-.07v14.264" stroke="#2D2D2D" stroke-width="1.2" stroke-linejoin="round"/><path d="m402.029 37.872-21.534 7.235v14.722l21.186 5.541 20.814-6.403V44.37l-20.466-6.498Z" fill="#fff"/><path d="m380.582 45.004 21.073-7.634 21.053 6.408" stroke="#2D2D2D" stroke-width="1.2" stroke-linejoin="round"/><path d="m402.131 50.8-21.55-5.796v14.78l21.55 5.7 20.501-6.569V43.748L402.131 50.8Zm-.275-.07v14.264" stroke="#2D2D2D" stroke-width="1.2" stroke-linejoin="round"/><path fill="#F6F6F6" d="M165 138h136v40H165z"/><path d="M175.148 163v-10.021h6.761v1.182h-5.434v3.104h4.703v1.182h-4.703V163h-1.327Zm13.303-2.338 1.272.157c-.201.743-.572 1.32-1.115 1.73-.542.41-1.235.615-2.078.615-1.062 0-1.905-.326-2.529-.977-.62-.657-.93-1.575-.93-2.755 0-1.222.315-2.17.944-2.844.629-.675 1.444-1.012 2.447-1.012.971 0 1.764.331 2.379.991.615.661.923 1.591.923 2.789 0 .073-.003.183-.007.329h-5.414c.045.797.271 1.408.677 1.832.405.423.911.635 1.517.635.451 0 .836-.118 1.155-.355.319-.237.572-.615.759-1.135Zm-4.04-1.989h4.054c-.055-.611-.21-1.069-.465-1.374-.392-.474-.9-.711-1.524-.711-.566 0-1.042.189-1.429.567-.383.379-.595.884-.636 1.518ZM195.984 163v-.916c-.46.72-1.137 1.08-2.03 1.08a2.864 2.864 0 0 1-1.6-.478 3.179 3.179 0 0 1-1.127-1.333c-.265-.575-.397-1.233-.397-1.976 0-.725.121-1.381.362-1.969.242-.592.604-1.046 1.087-1.36a2.901 2.901 0 0 1 1.62-.472c.438 0 .828.094 1.169.28.342.183.62.422.834.718v-3.595h1.224V163h-1.142Zm-3.889-3.623c0 .93.196 1.625.588 2.085.392.46.854.69 1.387.69.538 0 .994-.218 1.368-.656.378-.442.567-1.114.567-2.017 0-.993-.192-1.722-.574-2.187-.383-.465-.855-.697-1.415-.697-.547 0-1.005.223-1.374.67-.365.446-.547 1.15-.547 2.112Zm11.942 1.285 1.272.157c-.201.743-.572 1.32-1.115 1.73-.542.41-1.235.615-2.078.615-1.062 0-1.905-.326-2.529-.977-.62-.657-.93-1.575-.93-2.755 0-1.222.315-2.17.944-2.844.628-.675 1.444-1.012 2.447-1.012.971 0 1.764.331 2.379.991.615.661.923 1.591.923 2.789 0 .073-.003.183-.007.329h-5.414c.045.797.271 1.408.676 1.832.406.423.912.635 1.518.635.451 0 .836-.118 1.155-.355.319-.237.572-.615.759-1.135Zm-4.04-1.989h4.054c-.055-.611-.21-1.069-.465-1.374-.392-.474-.9-.711-1.524-.711-.566 0-1.042.189-1.429.567-.383.379-.595.884-.636 1.518Zm6.85 4.327v-7.26h1.107v1.101c.283-.515.542-.855.779-1.019.242-.164.506-.246.793-.246.415 0 .837.132 1.265.397l-.424 1.141a1.766 1.766 0 0 0-.902-.266c-.269 0-.511.082-.725.246a1.295 1.295 0 0 0-.458.67 4.812 4.812 0 0 0-.205 1.435V163h-1.23Zm9.413-.896c-.456.388-.896.661-1.32.821-.419.159-.87.239-1.353.239-.798 0-1.411-.194-1.839-.581-.428-.392-.643-.891-.643-1.497 0-.356.08-.679.24-.971.164-.296.376-.533.635-.711.265-.177.561-.312.889-.403a8.892 8.892 0 0 1 1.094-.185c.993-.118 1.725-.259 2.194-.423.005-.169.007-.276.007-.322 0-.501-.116-.854-.349-1.059-.314-.278-.781-.417-1.401-.417-.579 0-1.007.102-1.285.307-.274.201-.476.559-.608 1.074l-1.204-.164c.11-.515.29-.93.54-1.245.251-.319.613-.562 1.087-.731.474-.173 1.023-.26 1.648-.26.62 0 1.123.073 1.511.219.387.146.672.33.854.554.182.218.31.496.383.834.041.209.061.588.061 1.134v1.641c0 1.144.025 1.868.076 2.174.054.301.159.59.314.868h-1.285a2.59 2.59 0 0 1-.246-.896Zm-.103-2.748c-.446.183-1.116.338-2.01.465-.505.073-.863.155-1.073.246a1.07 1.07 0 0 0-.656.985c0 .328.123.601.369.82.251.219.615.328 1.094.328.474 0 .895-.102 1.265-.307.369-.21.64-.495.813-.855.132-.278.198-.688.198-1.23v-.452Zm5.845 2.543.178 1.087c-.347.073-.657.11-.93.11-.447 0-.793-.071-1.039-.212a1.194 1.194 0 0 1-.52-.554c-.1-.232-.15-.718-.15-1.456v-4.177h-.902v-.957h.902v-1.798l1.224-.738v2.536h1.237v.957h-1.237v4.245c0 .351.02.577.061.677.046.1.116.18.212.239.1.06.242.089.424.089.137 0 .317-.016.54-.048Zm6.18-1.237 1.271.157c-.2.743-.572 1.32-1.114 1.73-.542.41-1.235.615-2.078.615-1.062 0-1.905-.326-2.53-.977-.619-.657-.929-1.575-.929-2.755 0-1.222.314-2.17.943-2.844.629-.675 1.445-1.012 2.447-1.012.971 0 1.764.331 2.379.991.616.661.923 1.591.923 2.789 0 .073-.002.183-.007.329h-5.414c.046.797.271 1.408.677 1.832.406.423.911.635 1.518.635.451 0 .836-.118 1.155-.355.319-.237.572-.615.759-1.135Zm-4.04-1.989h4.053c-.054-.611-.209-1.069-.465-1.374-.391-.474-.9-.711-1.524-.711-.565 0-1.041.189-1.429.567-.382.379-.594.884-.635 1.518ZM235.715 163v-.916c-.46.72-1.137 1.08-2.03 1.08a2.864 2.864 0 0 1-1.6-.478c-.483-.319-.859-.764-1.128-1.333-.264-.575-.396-1.233-.396-1.976 0-.725.12-1.381.362-1.969.241-.592.604-1.046 1.087-1.36a2.901 2.901 0 0 1 1.62-.472c.437 0 .827.094 1.169.28.342.183.62.422.834.718v-3.595h1.223V163h-1.141Zm-3.89-3.623c0 .93.196 1.625.588 2.085.392.46.855.69 1.388.69.538 0 .993-.218 1.367-.656.378-.442.567-1.114.567-2.017 0-.993-.191-1.722-.574-2.187-.383-.465-.854-.697-1.415-.697-.547 0-1.005.223-1.374.67-.365.446-.547 1.15-.547 2.112Zm18.621 2.55c.616.424 1.183.733 1.702.929l-.389.923c-.72-.259-1.438-.67-2.154-1.23a4.956 4.956 0 0 1-2.46.622c-.907 0-1.73-.219-2.468-.656a4.403 4.403 0 0 1-1.709-1.846c-.397-.793-.595-1.686-.595-2.68 0-.989.201-1.889.602-2.7.401-.811.97-1.429 1.709-1.852.742-.424 1.572-.636 2.488-.636.925 0 1.759.221 2.502.663a4.256 4.256 0 0 1 1.695 1.846c.392.788.588 1.679.588 2.672 0 .825-.125 1.568-.376 2.229a4.678 4.678 0 0 1-1.135 1.716Zm-2.919-1.696c.766.215 1.397.534 1.894.957.779-.71 1.169-1.779 1.169-3.206 0-.811-.139-1.519-.417-2.126a3.138 3.138 0 0 0-1.21-1.408 3.249 3.249 0 0 0-1.784-.506c-.989 0-1.81.34-2.461 1.019-.652.674-.978 1.684-.978 3.028 0 1.304.322 2.304.964 3.001.647.698 1.472 1.046 2.475 1.046.474 0 .92-.089 1.34-.266a4.309 4.309 0 0 0-1.313-.575l.321-.964ZM258.349 163v-1.066c-.565.82-1.333 1.23-2.304 1.23-.428 0-.83-.082-1.203-.246-.369-.164-.645-.369-.827-.615a2.38 2.38 0 0 1-.376-.916c-.05-.242-.076-.625-.076-1.149v-4.498h1.231v4.027c0 .642.025 1.075.075 1.298.078.324.242.579.492.766.251.182.561.273.93.273a2.04 2.04 0 0 0 1.039-.28c.324-.191.552-.449.684-.772.136-.328.205-.802.205-1.422v-3.89h1.23V163h-1.1Zm8.005-2.338 1.271.157c-.201.743-.572 1.32-1.114 1.73-.543.41-1.235.615-2.078.615-1.062 0-1.905-.326-2.53-.977-.619-.657-.929-1.575-.929-2.755 0-1.222.314-2.17.943-2.844.629-.675 1.445-1.012 2.447-1.012.971 0 1.764.331 2.379.991.615.661.923 1.591.923 2.789 0 .073-.002.183-.007.329h-5.414c.046.797.271 1.408.677 1.832.405.423.911.635 1.517.635.452 0 .837-.118 1.156-.355.319-.237.572-.615.759-1.135Zm-4.041-1.989h4.054c-.055-.611-.209-1.069-.465-1.374-.392-.474-.9-.711-1.524-.711-.565 0-1.041.189-1.429.567-.383.379-.595.884-.636 1.518Zm6.85 4.327v-7.26h1.108v1.101c.282-.515.542-.855.779-1.019.241-.164.506-.246.793-.246.414 0 .836.132 1.264.397l-.423 1.141a1.769 1.769 0 0 0-.903-.266c-.269 0-.51.082-.724.246a1.289 1.289 0 0 0-.458.67 4.78 4.78 0 0 0-.205 1.435V163h-1.231Zm4.683-8.606v-1.415h1.23v1.415h-1.23Zm0 8.606v-7.26h1.23V163h-1.23Zm8.08-2.338 1.271.157c-.2.743-.572 1.32-1.114 1.73-.542.41-1.235.615-2.078.615-1.062 0-1.905-.326-2.529-.977-.62-.657-.93-1.575-.93-2.755 0-1.222.314-2.17.943-2.844.629-.675 1.445-1.012 2.448-1.012.97 0 1.763.331 2.378.991.616.661.923 1.591.923 2.789 0 .073-.002.183-.007.329h-5.414c.046.797.272 1.408.677 1.832.406.423.912.635 1.518.635.451 0 .836-.118 1.155-.355.319-.237.572-.615.759-1.135Zm-4.04-1.989h4.053c-.054-.611-.209-1.069-.464-1.374-.392-.474-.9-.711-1.525-.711-.565 0-1.041.189-1.429.567-.382.379-.594.884-.635 1.518Zm6.371 2.16 1.217-.191c.068.487.257.861.567 1.121.314.259.752.389 1.313.389.565 0 .984-.114 1.257-.341.274-.233.41-.504.41-.814a.745.745 0 0 0-.362-.656c-.168-.11-.588-.249-1.258-.417-.902-.228-1.529-.424-1.88-.588a1.877 1.877 0 0 1-.792-.69 1.867 1.867 0 0 1-.267-.978c0-.324.073-.622.219-.896.15-.278.353-.508.608-.69.191-.141.451-.26.779-.355a3.66 3.66 0 0 1 1.067-.151c.569 0 1.068.082 1.497.246.433.164.752.388.957.67.205.278.346.652.424 1.121l-1.203.164c-.055-.373-.215-.665-.479-.875-.26-.209-.629-.314-1.107-.314-.565 0-.969.093-1.21.28-.242.187-.363.406-.363.656 0 .16.05.303.151.431.1.132.257.242.471.328.123.046.486.151 1.087.315.871.232 1.477.423 1.819.574.346.146.617.36.813.642.196.283.294.634.294 1.053 0 .41-.121.798-.362 1.162-.237.36-.581.641-1.032.841a3.813 3.813 0 0 1-1.532.294c-.943 0-1.663-.196-2.16-.588-.492-.392-.806-.973-.943-1.743ZM62.882 229.48a.752.752 0 0 0 1.06 0l4.774-4.773a.75.75 0 0 0-1.06-1.061l-4.244 4.243-4.242-4.243a.75.75 0 1 0-1.06 1.061l4.772 4.773Zm-.22-127.292v126.761h1.5V102.188h-1.5ZM402.49 229.48a.752.752 0 0 0 1.061 0l4.773-4.773a.75.75 0 1 0-1.061-1.061l-4.242 4.243-4.243-4.243a.75.75 0 1 0-1.061 1.061l4.773 4.773Zm-.219-127.292v126.761h1.5V102.188h-1.5Z" fill="#000"/></svg>