<svg width="489" height="503" viewBox="0 0 489 503" fill="none" xmlns="http://www.w3.org/2000/svg">
<rect x="3.05176e-05" y="310.621" width="192.779" height="192.379" rx="10" fill="#FAE1E2"/>
<path d="M77.6951 448.864V438.159H73.8718V435.979H84.1111V438.159H80.2966V448.864H77.6951ZM83.8738 444.065C83.8738 443.245 84.0759 442.451 84.4802 441.683C84.8845 440.916 85.4558 440.33 86.1941 439.925C86.9382 439.521 87.7673 439.319 88.6814 439.319C90.0935 439.319 91.2507 439.779 92.1531 440.699C93.0554 441.613 93.5066 442.77 93.5066 444.17C93.5066 445.583 93.0496 446.754 92.1355 447.686C91.2273 448.612 90.0818 449.075 88.699 449.075C87.8435 449.075 87.0261 448.881 86.2468 448.495C85.4734 448.108 84.8845 447.543 84.4802 446.798C84.0759 446.048 83.8738 445.137 83.8738 444.065ZM86.405 444.197C86.405 445.123 86.6247 445.832 87.0642 446.324C87.5037 446.816 88.0456 447.062 88.6902 447.062C89.3347 447.062 89.8738 446.816 90.3074 446.324C90.7468 445.832 90.9665 445.117 90.9665 444.179C90.9665 443.265 90.7468 442.562 90.3074 442.07C89.8738 441.578 89.3347 441.332 88.6902 441.332C88.0456 441.332 87.5037 441.578 87.0642 442.07C86.6247 442.562 86.405 443.271 86.405 444.197ZM95.3787 439.53H97.6814V440.901C97.9802 440.432 98.3845 440.051 98.8943 439.758C99.404 439.465 99.9695 439.319 100.591 439.319C101.675 439.319 102.594 439.744 103.35 440.593C104.106 441.443 104.484 442.627 104.484 444.144C104.484 445.703 104.103 446.916 103.342 447.783C102.58 448.644 101.657 449.075 100.573 449.075C100.057 449.075 99.5886 448.972 99.1667 448.767C98.7507 448.562 98.3113 448.211 97.8484 447.712V452.415H95.3787V439.53ZM97.822 444.039C97.822 445.087 98.03 445.864 98.446 446.368C98.8621 446.866 99.3689 447.115 99.9665 447.115C100.541 447.115 101.018 446.886 101.399 446.429C101.78 445.966 101.97 445.211 101.97 444.162C101.97 443.183 101.774 442.457 101.382 441.982C100.989 441.507 100.503 441.27 99.9226 441.27C99.3191 441.27 98.8181 441.504 98.4197 441.973C98.0212 442.436 97.822 443.125 97.822 444.039ZM106.172 445.427V442.958H111.023V445.427H106.172ZM111.955 445.55L114.416 445.295C114.486 445.852 114.694 446.294 115.04 446.623C115.385 446.945 115.784 447.106 116.235 447.106C116.751 447.106 117.187 446.898 117.545 446.482C117.902 446.06 118.081 445.427 118.081 444.584C118.081 443.793 117.902 443.201 117.545 442.808C117.193 442.41 116.733 442.211 116.165 442.211C115.456 442.211 114.82 442.524 114.258 443.151L112.254 442.861L113.519 436.155H120.05V438.466H115.391L115.005 440.655C115.555 440.379 116.118 440.242 116.692 440.242C117.788 440.242 118.717 440.64 119.478 441.437C120.24 442.234 120.621 443.268 120.621 444.54C120.621 445.6 120.313 446.546 119.698 447.378C118.86 448.515 117.697 449.084 116.209 449.084C115.019 449.084 114.05 448.764 113.3 448.126C112.55 447.487 112.101 446.628 111.955 445.55ZM16.0486 463.979H21.199C22.2185 463.979 22.9773 464.023 23.4753 464.111C23.9792 464.193 24.4275 464.369 24.8201 464.638C25.2185 464.908 25.5496 465.268 25.8132 465.719C26.0769 466.165 26.2087 466.666 26.2087 467.222C26.2087 467.826 26.0447 468.379 25.7165 468.883C25.3943 469.387 24.9548 469.765 24.3982 470.017C25.1833 470.246 25.7869 470.635 26.2087 471.186C26.6306 471.737 26.8415 472.384 26.8415 473.128C26.8415 473.714 26.7038 474.286 26.4285 474.842C26.1589 475.393 25.7869 475.836 25.3122 476.169C24.8435 476.498 24.2634 476.7 23.572 476.776C23.1384 476.823 22.0925 476.852 20.4343 476.864H16.0486V463.979ZM18.6501 466.124V469.103H20.3552C21.3689 469.103 21.9988 469.088 22.2449 469.059C22.6902 469.006 23.0388 468.854 23.2908 468.602C23.5486 468.344 23.6775 468.007 23.6775 467.591C23.6775 467.193 23.5662 466.871 23.3435 466.625C23.1267 466.373 22.8015 466.22 22.3679 466.168C22.1101 466.138 21.3689 466.124 20.1443 466.124H18.6501ZM18.6501 471.248V474.693H21.0583C21.9958 474.693 22.5906 474.667 22.8425 474.614C23.2292 474.544 23.5427 474.374 23.783 474.104C24.029 473.829 24.1521 473.462 24.1521 473.005C24.1521 472.619 24.0583 472.291 23.8708 472.021C23.6833 471.752 23.4109 471.555 23.0535 471.432C22.7019 471.309 21.9343 471.248 20.7507 471.248H18.6501ZM29.03 466.264V463.979H31.4997V466.264H29.03ZM29.03 476.864V467.53H31.4997V476.864H29.03ZM33.8113 477.479L36.6326 477.822C36.6794 478.15 36.7878 478.376 36.9578 478.499C37.1921 478.674 37.5613 478.762 38.0652 478.762C38.7097 478.762 39.1931 478.666 39.5154 478.472C39.7322 478.343 39.8962 478.135 40.0076 477.848C40.0837 477.643 40.1218 477.265 40.1218 476.714V475.352C39.3835 476.36 38.4519 476.864 37.3269 476.864C36.073 476.864 35.0798 476.334 34.3474 475.273C33.7732 474.435 33.4861 473.392 33.4861 472.144C33.4861 470.58 33.8611 469.384 34.6111 468.558C35.3669 467.732 36.3044 467.319 37.4236 467.319C38.5779 467.319 39.53 467.826 40.28 468.839V467.53H42.5915V475.906C42.5915 477.007 42.5007 477.831 42.3191 478.376C42.1374 478.92 41.8826 479.348 41.5544 479.659C41.2263 479.969 40.7869 480.212 40.2361 480.388C39.6912 480.564 38.9997 480.652 38.1619 480.652C36.5798 480.652 35.4578 480.379 34.7956 479.835C34.1335 479.295 33.8025 478.61 33.8025 477.778C33.8025 477.696 33.8054 477.596 33.8113 477.479ZM36.0173 472.003C36.0173 472.994 36.2078 473.72 36.5886 474.183C36.9753 474.64 37.4499 474.869 38.0124 474.869C38.616 474.869 39.1257 474.634 39.5417 474.166C39.9578 473.691 40.1658 472.991 40.1658 472.065C40.1658 471.098 39.9665 470.38 39.5681 469.912C39.1697 469.443 38.6658 469.209 38.0564 469.209C37.4646 469.209 36.9753 469.44 36.5886 469.903C36.2078 470.36 36.0173 471.06 36.0173 472.003ZM50.0622 463.979H54.8171C55.8894 463.979 56.7068 464.061 57.2693 464.225C58.0251 464.448 58.6726 464.843 59.2117 465.412C59.7507 465.98 60.1609 466.677 60.4421 467.503C60.7234 468.324 60.864 469.337 60.864 470.544C60.864 471.605 60.7322 472.519 60.4685 473.287C60.1462 474.224 59.6863 474.983 59.0886 475.563C58.6374 476.003 58.0281 476.345 57.2605 476.591C56.6863 476.773 55.9187 476.864 54.9578 476.864H50.0622V463.979ZM52.6638 466.159V474.693H54.6062C55.3328 474.693 55.8572 474.652 56.1794 474.57C56.6013 474.464 56.9499 474.286 57.2253 474.034C57.5066 473.782 57.7351 473.369 57.9109 472.794C58.0867 472.214 58.1746 471.426 58.1746 470.43C58.1746 469.434 58.0867 468.669 57.9109 468.136C57.7351 467.603 57.489 467.187 57.1726 466.888C56.8562 466.589 56.4548 466.387 55.9685 466.282C55.6052 466.2 54.8933 466.159 53.8328 466.159H52.6638ZM64.907 470.378L62.6658 469.973C62.9177 469.071 63.3513 468.403 63.9665 467.969C64.5818 467.536 65.4958 467.319 66.7087 467.319C67.8103 467.319 68.6306 467.451 69.1697 467.714C69.7087 467.972 70.0867 468.303 70.3035 468.708C70.5261 469.106 70.6374 469.841 70.6374 470.914L70.6111 473.796C70.6111 474.617 70.6492 475.223 70.7253 475.616C70.8074 476.003 70.9568 476.419 71.1736 476.864H68.7302C68.6658 476.7 68.5867 476.457 68.4929 476.134C68.4519 475.988 68.4226 475.891 68.405 475.844C67.9831 476.254 67.532 476.562 67.0515 476.767C66.571 476.972 66.0583 477.075 65.5134 477.075C64.5525 477.075 63.7937 476.814 63.2371 476.293C62.6863 475.771 62.4109 475.112 62.4109 474.315C62.4109 473.788 62.5369 473.319 62.7888 472.909C63.0408 472.493 63.3923 472.176 63.8435 471.96C64.3005 471.737 64.9568 471.544 65.8122 471.379C66.9665 471.163 67.7663 470.961 68.2117 470.773V470.527C68.2117 470.052 68.0945 469.715 67.8601 469.516C67.6257 469.311 67.1833 469.209 66.533 469.209C66.0935 469.209 65.7507 469.296 65.5046 469.472C65.2585 469.642 65.0593 469.944 64.907 470.378ZM68.2117 472.381C67.8953 472.487 67.3943 472.613 66.7087 472.759C66.0232 472.906 65.5749 473.049 65.364 473.19C65.0417 473.419 64.8806 473.709 64.8806 474.06C64.8806 474.406 65.0095 474.705 65.2673 474.957C65.5251 475.209 65.8533 475.335 66.2517 475.335C66.697 475.335 67.1218 475.188 67.5261 474.895C67.8249 474.672 68.0212 474.4 68.115 474.078C68.1794 473.867 68.2117 473.465 68.2117 472.874V472.381ZM77.3611 467.53V469.499H75.6736V473.26C75.6736 474.022 75.6882 474.467 75.7175 474.596C75.7527 474.719 75.8259 474.822 75.9372 474.904C76.0544 474.986 76.1951 475.027 76.3591 475.027C76.5876 475.027 76.9187 474.948 77.3523 474.79L77.5632 476.706C76.989 476.952 76.3386 477.075 75.6121 477.075C75.1667 477.075 74.7654 477.002 74.408 476.855C74.0505 476.703 73.7869 476.509 73.6169 476.275C73.4529 476.035 73.3386 475.712 73.2742 475.308C73.2214 475.021 73.1951 474.441 73.1951 473.568V469.499H72.0613V467.53H73.1951V465.675L75.6736 464.234V467.53H77.3611ZM80.9206 470.378L78.6794 469.973C78.9314 469.071 79.365 468.403 79.9802 467.969C80.5955 467.536 81.5095 467.319 82.7224 467.319C83.824 467.319 84.6443 467.451 85.1833 467.714C85.7224 467.972 86.1003 468.303 86.3171 468.708C86.5398 469.106 86.6511 469.841 86.6511 470.914L86.6247 473.796C86.6247 474.617 86.6628 475.223 86.739 475.616C86.821 476.003 86.9705 476.419 87.1872 476.864H84.7439C84.6794 476.7 84.6003 476.457 84.5066 476.134C84.4656 475.988 84.4363 475.891 84.4187 475.844C83.9968 476.254 83.5456 476.562 83.0652 476.767C82.5847 476.972 82.072 477.075 81.5271 477.075C80.5662 477.075 79.8074 476.814 79.2507 476.293C78.6999 475.771 78.4246 475.112 78.4246 474.315C78.4246 473.788 78.5505 473.319 78.8025 472.909C79.0544 472.493 79.406 472.176 79.8572 471.96C80.3142 471.737 80.9705 471.544 81.8259 471.379C82.9802 471.163 83.78 470.961 84.2253 470.773V470.527C84.2253 470.052 84.1081 469.715 83.8738 469.516C83.6394 469.311 83.197 469.209 82.5466 469.209C82.1072 469.209 81.7644 469.296 81.5183 469.472C81.2722 469.642 81.073 469.944 80.9206 470.378ZM84.2253 472.381C83.9089 472.487 83.408 472.613 82.7224 472.759C82.0369 472.906 81.5886 473.049 81.3777 473.19C81.0554 473.419 80.8943 473.709 80.8943 474.06C80.8943 474.406 81.0232 474.705 81.281 474.957C81.5388 475.209 81.8669 475.335 82.2654 475.335C82.7107 475.335 83.1355 475.188 83.5398 474.895C83.8386 474.672 84.0349 474.4 84.1287 474.078C84.1931 473.867 84.2253 473.465 84.2253 472.874V472.381ZM94.1042 463.979H96.7058V470.958C96.7058 472.065 96.738 472.783 96.8025 473.111C96.9138 473.638 97.1775 474.063 97.5935 474.385C98.0154 474.702 98.5896 474.86 99.3162 474.86C100.054 474.86 100.611 474.711 100.986 474.412C101.361 474.107 101.587 473.735 101.663 473.295C101.739 472.856 101.777 472.127 101.777 471.107V463.979H104.379V470.747C104.379 472.294 104.308 473.386 104.168 474.025C104.027 474.664 103.766 475.203 103.385 475.642C103.01 476.082 102.507 476.433 101.874 476.697C101.241 476.955 100.415 477.084 99.3953 477.084C98.1648 477.084 97.2302 476.943 96.5915 476.662C95.9587 476.375 95.4578 476.005 95.0886 475.554C94.7195 475.097 94.4763 474.62 94.3591 474.122C94.1892 473.383 94.1042 472.294 94.1042 470.852V463.979ZM106.242 474.201L108.72 473.823C108.826 474.303 109.04 474.669 109.362 474.921C109.684 475.168 110.135 475.291 110.716 475.291C111.354 475.291 111.835 475.173 112.157 474.939C112.374 474.775 112.482 474.555 112.482 474.28C112.482 474.092 112.424 473.937 112.306 473.814C112.183 473.697 111.908 473.588 111.48 473.489C109.488 473.049 108.225 472.648 107.692 472.285C106.954 471.781 106.585 471.081 106.585 470.184C106.585 469.376 106.904 468.696 107.543 468.145C108.181 467.594 109.172 467.319 110.513 467.319C111.791 467.319 112.74 467.527 113.361 467.943C113.982 468.359 114.41 468.974 114.644 469.789L112.315 470.219C112.216 469.856 112.025 469.578 111.744 469.384C111.468 469.191 111.073 469.094 110.557 469.094C109.907 469.094 109.441 469.185 109.16 469.367C108.972 469.496 108.879 469.663 108.879 469.868C108.879 470.044 108.961 470.193 109.125 470.316C109.347 470.48 110.115 470.711 111.427 471.01C112.746 471.309 113.666 471.675 114.187 472.109C114.703 472.548 114.961 473.161 114.961 473.946C114.961 474.801 114.603 475.537 113.888 476.152C113.174 476.767 112.116 477.075 110.716 477.075C109.444 477.075 108.436 476.817 107.692 476.301C106.954 475.786 106.47 475.086 106.242 474.201ZM122.537 473.893L124.998 474.306C124.681 475.209 124.18 475.897 123.495 476.372C122.815 476.84 121.963 477.075 120.937 477.075C119.314 477.075 118.113 476.544 117.334 475.484C116.718 474.634 116.411 473.562 116.411 472.267C116.411 470.72 116.815 469.51 117.624 468.637C118.432 467.758 119.455 467.319 120.691 467.319C122.08 467.319 123.176 467.779 123.978 468.699C124.781 469.613 125.165 471.016 125.13 472.909H118.942C118.96 473.641 119.159 474.212 119.54 474.623C119.921 475.027 120.395 475.229 120.964 475.229C121.35 475.229 121.676 475.124 121.939 474.913C122.203 474.702 122.402 474.362 122.537 473.893ZM122.677 471.397C122.66 470.682 122.475 470.14 122.124 469.771C121.772 469.396 121.344 469.209 120.841 469.209C120.302 469.209 119.856 469.405 119.505 469.797C119.153 470.19 118.98 470.723 118.986 471.397H122.677ZM129.515 476.864H127.046V467.53H129.34V468.857C129.732 468.23 130.084 467.817 130.394 467.618C130.711 467.419 131.068 467.319 131.467 467.319C132.029 467.319 132.571 467.474 133.093 467.785L132.328 469.938C131.912 469.669 131.525 469.534 131.168 469.534C130.822 469.534 130.529 469.63 130.289 469.824C130.049 470.011 129.858 470.354 129.718 470.852C129.583 471.35 129.515 472.393 129.515 473.981V476.864ZM139.262 476.864V464.085H141.864V474.693H148.333V476.864H139.262ZM150.178 466.264V463.979H152.648V466.264H150.178ZM150.178 476.864V467.53H152.648V476.864H150.178ZM154.318 474.201L156.797 473.823C156.902 474.303 157.116 474.669 157.438 474.921C157.76 475.168 158.212 475.291 158.792 475.291C159.43 475.291 159.911 475.173 160.233 474.939C160.45 474.775 160.558 474.555 160.558 474.28C160.558 474.092 160.5 473.937 160.383 473.814C160.26 473.697 159.984 473.588 159.556 473.489C157.564 473.049 156.302 472.648 155.768 472.285C155.03 471.781 154.661 471.081 154.661 470.184C154.661 469.376 154.98 468.696 155.619 468.145C156.258 467.594 157.248 467.319 158.59 467.319C159.867 467.319 160.816 467.527 161.437 467.943C162.058 468.359 162.486 468.974 162.72 469.789L160.391 470.219C160.292 469.856 160.101 469.578 159.82 469.384C159.545 469.191 159.149 469.094 158.634 469.094C157.983 469.094 157.517 469.185 157.236 469.367C157.049 469.496 156.955 469.663 156.955 469.868C156.955 470.044 157.037 470.193 157.201 470.316C157.424 470.48 158.191 470.711 159.504 471.01C160.822 471.309 161.742 471.675 162.263 472.109C162.779 472.548 163.037 473.161 163.037 473.946C163.037 474.801 162.679 475.537 161.965 476.152C161.25 476.767 160.192 477.075 158.792 477.075C157.52 477.075 156.512 476.817 155.768 476.301C155.03 475.786 154.547 475.086 154.318 474.201ZM169.488 467.53V469.499H167.801V473.26C167.801 474.022 167.815 474.467 167.844 474.596C167.88 474.719 167.953 474.822 168.064 474.904C168.181 474.986 168.322 475.027 168.486 475.027C168.715 475.027 169.046 474.948 169.479 474.79L169.69 476.706C169.116 476.952 168.466 477.075 167.739 477.075C167.294 477.075 166.892 477.002 166.535 476.855C166.177 476.703 165.914 476.509 165.744 476.275C165.58 476.035 165.466 475.712 165.401 475.308C165.348 475.021 165.322 474.441 165.322 473.568V469.499H164.188V467.53H165.322V465.675L167.801 464.234V467.53H169.488ZM170.332 474.201L172.81 473.823C172.916 474.303 173.13 474.669 173.452 474.921C173.774 475.168 174.225 475.291 174.805 475.291C175.444 475.291 175.925 475.173 176.247 474.939C176.464 474.775 176.572 474.555 176.572 474.28C176.572 474.092 176.513 473.937 176.396 473.814C176.273 473.697 175.998 473.588 175.57 473.489C173.578 473.049 172.315 472.648 171.782 472.285C171.044 471.781 170.675 471.081 170.675 470.184C170.675 469.376 170.994 468.696 171.633 468.145C172.271 467.594 173.261 467.319 174.603 467.319C175.881 467.319 176.83 467.527 177.451 467.943C178.072 468.359 178.5 468.974 178.734 469.789L176.405 470.219C176.305 469.856 176.115 469.578 175.834 469.384C175.558 469.191 175.163 469.094 174.647 469.094C173.997 469.094 173.531 469.185 173.25 469.367C173.062 469.496 172.969 469.663 172.969 469.868C172.969 470.044 173.051 470.193 173.215 470.316C173.437 470.48 174.205 470.711 175.517 471.01C176.836 471.309 177.756 471.675 178.277 472.109C178.793 472.548 179.051 473.161 179.051 473.946C179.051 474.801 178.693 475.537 177.978 476.152C177.263 476.767 176.206 477.075 174.805 477.075C173.534 477.075 172.526 476.817 171.782 476.301C171.044 475.786 170.56 475.086 170.332 474.201Z" fill="#2D2D2D"/>
<path d="M46.1363 307.55H64.0426V301.401H39.306C36.6601 315.567 37.903 343.899 64.0426 343.899V337.57C45.4348 337.57 44.3518 317.557 46.1363 307.55Z" fill="white" stroke="black" stroke-linejoin="round"/>
<path d="M150.285 307.55H132.378V301.401H157.115C159.761 315.567 158.518 343.899 132.378 343.899V337.57C150.986 337.57 152.069 317.557 150.285 307.55Z" fill="white" stroke="black" stroke-linejoin="round"/>
<path d="M54.6639 365.425L73.6354 354.456L87.2949 365.425L65.2879 380.555V370.342L54.6639 365.425Z" fill="#F94239"/>
<path d="M140.794 365.425L121.822 354.456L108.163 365.425L130.17 380.555V370.342L140.794 365.425Z" fill="#F94239"/>
<path d="M89.7377 384.068L93.0226 367.186H103.972L107.257 384.068H89.7377Z" fill="white" stroke="black"/>
<rect x="76.6712" y="384.319" width="44.1385" height="8.38433" rx="4.19216" fill="white" stroke="black"/>
<rect x="71.0288" y="391.827" width="55.4231" height="10.2612" rx="5.1306" fill="white" stroke="black"/>
<path d="M62.5654 290.476H134.915V331.191C134.915 351.17 118.719 367.366 98.7404 367.366C78.7615 367.366 62.5654 351.17 62.5654 331.191V290.476Z" fill="white" stroke="black"/>
<path d="M86.2338 320.613H99.0821" stroke="black" stroke-linejoin="round"/>
<path d="M86.2338 325.852H106.673" stroke="black" stroke-linejoin="round"/>
<path d="M86.2338 330.509H106.673" stroke="black" stroke-linejoin="round"/>
<path d="M86.2338 335.167H106.673" stroke="black" stroke-linejoin="round"/>
<rect x="80.4327" y="310.183" width="34.7346" height="33.722" rx="9.5" stroke="black"/>
<rect x="55.9827" y="282.03" width="84.575" height="12.1381" rx="6.06903" fill="white" stroke="black"/>
<ellipse cx="143.409" cy="274.492" rx="16.4567" ry="16.4226" fill="#F94239"/>
<path d="M148.72 280.42V283.414H137.04C137.167 282.282 137.546 281.211 138.178 280.202C138.811 279.185 140.06 277.839 141.926 276.165C143.428 274.812 144.349 273.894 144.689 273.412C145.147 272.747 145.376 272.09 145.376 271.44C145.376 270.721 145.175 270.17 144.772 269.788C144.376 269.398 143.827 269.203 143.123 269.203C142.428 269.203 141.874 269.406 141.463 269.811C141.052 270.216 140.815 270.889 140.752 271.83L137.431 271.508C137.629 269.735 138.25 268.461 139.293 267.689C140.337 266.917 141.641 266.531 143.206 266.531C144.922 266.531 146.27 266.978 147.25 267.873C148.23 268.767 148.72 269.88 148.72 271.21C148.72 271.967 148.578 272.69 148.293 273.378C148.017 274.058 147.574 274.773 146.965 275.523C146.562 276.02 145.835 276.735 144.783 277.667C143.732 278.6 143.064 279.22 142.779 279.525C142.503 279.831 142.277 280.13 142.104 280.42H148.72Z" fill="white"/>
<rect x="154.223" y="48.7985" width="192.779" height="192.379" rx="10" fill="#ECF6FF"/>
<path d="M227.686 191.733V181.028H223.863V178.848H234.102V181.028H230.288V191.733H227.686ZM233.865 186.934C233.865 186.114 234.067 185.32 234.472 184.553C234.876 183.785 235.447 183.199 236.185 182.795C236.93 182.39 237.759 182.188 238.673 182.188C240.085 182.188 241.242 182.648 242.144 183.568C243.047 184.482 243.498 185.639 243.498 187.04C243.498 188.452 243.041 189.624 242.127 190.555C241.219 191.481 240.073 191.944 238.69 191.944C237.835 191.944 237.017 191.751 236.238 191.364C235.465 190.977 234.876 190.412 234.472 189.668C234.067 188.918 233.865 188.007 233.865 186.934ZM236.396 187.066C236.396 187.992 236.616 188.701 237.056 189.193C237.495 189.685 238.037 189.931 238.682 189.931C239.326 189.931 239.865 189.685 240.299 189.193C240.738 188.701 240.958 187.986 240.958 187.049C240.958 186.135 240.738 185.431 240.299 184.939C239.865 184.447 239.326 184.201 238.682 184.201C238.037 184.201 237.495 184.447 237.056 184.939C236.616 185.431 236.396 186.14 236.396 187.066ZM245.37 182.399H247.673V183.77C247.972 183.302 248.376 182.921 248.886 182.628C249.395 182.335 249.961 182.188 250.582 182.188C251.666 182.188 252.586 182.613 253.342 183.463C254.098 184.312 254.475 185.496 254.475 187.014C254.475 188.572 254.095 189.785 253.333 190.652C252.571 191.514 251.648 191.944 250.564 191.944C250.049 191.944 249.58 191.842 249.158 191.637C248.742 191.431 248.303 191.08 247.84 190.582V195.284H245.37V182.399ZM247.813 186.908C247.813 187.957 248.021 188.733 248.437 189.237C248.853 189.735 249.36 189.984 249.958 189.984C250.532 189.984 251.01 189.756 251.391 189.299C251.771 188.836 251.962 188.08 251.962 187.031C251.962 186.053 251.766 185.326 251.373 184.851C250.98 184.377 250.494 184.139 249.914 184.139C249.31 184.139 248.809 184.374 248.411 184.843C248.013 185.305 247.813 185.994 247.813 186.908ZM256.163 188.297V185.827H261.015V188.297H256.163ZM261.946 188.42L264.407 188.165C264.477 188.722 264.685 189.164 265.031 189.492C265.377 189.814 265.775 189.975 266.226 189.975C266.742 189.975 267.179 189.767 267.536 189.351C267.893 188.93 268.072 188.297 268.072 187.453C268.072 186.662 267.893 186.07 267.536 185.678C267.184 185.279 266.725 185.08 266.156 185.08C265.447 185.08 264.811 185.393 264.249 186.02L262.245 185.73L263.511 179.024H270.041V181.336H265.383L264.996 183.524C265.547 183.249 266.109 183.111 266.683 183.111C267.779 183.111 268.708 183.51 269.47 184.306C270.231 185.103 270.612 186.138 270.612 187.409C270.612 188.47 270.305 189.416 269.689 190.248C268.851 191.385 267.688 191.953 266.2 191.953C265.011 191.953 264.041 191.634 263.291 190.995C262.541 190.356 262.093 189.498 261.946 188.42ZM205.055 206.848H207.656V213.827C207.656 214.934 207.688 215.652 207.753 215.98C207.864 216.508 208.128 216.932 208.544 217.255C208.966 217.571 209.54 217.729 210.266 217.729C211.005 217.729 211.561 217.58 211.936 217.281C212.311 216.976 212.537 216.604 212.613 216.165C212.689 215.725 212.727 214.996 212.727 213.976V206.848H215.329V213.616C215.329 215.163 215.259 216.256 215.118 216.894C214.977 217.533 214.717 218.072 214.336 218.512C213.961 218.951 213.457 219.303 212.824 219.566C212.191 219.824 211.365 219.953 210.346 219.953C209.115 219.953 208.181 219.812 207.542 219.531C206.909 219.244 206.408 218.875 206.039 218.424C205.67 217.967 205.427 217.489 205.309 216.991C205.14 216.253 205.055 215.163 205.055 213.722V206.848ZM217.192 217.07L219.671 216.692C219.776 217.173 219.99 217.539 220.312 217.791C220.635 218.037 221.086 218.16 221.666 218.16C222.305 218.16 222.785 218.043 223.107 217.808C223.324 217.644 223.433 217.425 223.433 217.149C223.433 216.962 223.374 216.806 223.257 216.683C223.134 216.566 222.858 216.458 222.431 216.358C220.438 215.919 219.176 215.517 218.642 215.154C217.904 214.65 217.535 213.95 217.535 213.054C217.535 212.245 217.854 211.565 218.493 211.014C219.132 210.464 220.122 210.188 221.464 210.188C222.741 210.188 223.69 210.396 224.311 210.812C224.933 211.228 225.36 211.844 225.595 212.658L223.266 213.089C223.166 212.725 222.975 212.447 222.694 212.254C222.419 212.06 222.023 211.964 221.508 211.964C220.857 211.964 220.391 212.055 220.11 212.236C219.923 212.365 219.829 212.532 219.829 212.737C219.829 212.913 219.911 213.062 220.075 213.185C220.298 213.349 221.065 213.581 222.378 213.88C223.696 214.179 224.616 214.545 225.138 214.978C225.653 215.418 225.911 216.03 225.911 216.815C225.911 217.671 225.554 218.406 224.839 219.021C224.124 219.637 223.066 219.944 221.666 219.944C220.394 219.944 219.387 219.686 218.642 219.171C217.904 218.655 217.421 217.955 217.192 217.07ZM233.487 216.763L235.948 217.176C235.632 218.078 235.131 218.766 234.445 219.241C233.766 219.71 232.913 219.944 231.888 219.944C230.265 219.944 229.063 219.414 228.284 218.353C227.669 217.504 227.361 216.431 227.361 215.137C227.361 213.59 227.766 212.38 228.574 211.507C229.383 210.628 230.405 210.188 231.641 210.188C233.03 210.188 234.126 210.648 234.929 211.568C235.731 212.482 236.115 213.886 236.08 215.778H229.892C229.91 216.511 230.109 217.082 230.49 217.492C230.871 217.896 231.346 218.098 231.914 218.098C232.301 218.098 232.626 217.993 232.89 217.782C233.153 217.571 233.352 217.231 233.487 216.763ZM233.628 214.266C233.61 213.552 233.426 213.01 233.074 212.64C232.723 212.265 232.295 212.078 231.791 212.078C231.252 212.078 230.807 212.274 230.455 212.667C230.103 213.059 229.931 213.593 229.936 214.266H233.628ZM240.466 219.733H237.996V210.399H240.29V211.726C240.683 211.099 241.034 210.686 241.345 210.487C241.661 210.288 242.018 210.188 242.417 210.188C242.979 210.188 243.521 210.344 244.043 210.654L243.278 212.807C242.862 212.538 242.475 212.403 242.118 212.403C241.772 212.403 241.479 212.5 241.239 212.693C240.999 212.881 240.808 213.223 240.668 213.722C240.533 214.22 240.466 215.263 240.466 216.85V219.733ZM250.213 219.733V206.954H252.814V217.562H259.283V219.733H250.213ZM261.129 209.134V206.848H263.599V209.134H261.129ZM261.129 219.733V210.399H263.599V219.733H261.129ZM265.268 217.07L267.747 216.692C267.852 217.173 268.066 217.539 268.389 217.791C268.711 218.037 269.162 218.16 269.742 218.16C270.381 218.16 270.861 218.043 271.183 217.808C271.4 217.644 271.509 217.425 271.509 217.149C271.509 216.962 271.45 216.806 271.333 216.683C271.21 216.566 270.934 216.458 270.507 216.358C268.515 215.919 267.252 215.517 266.719 215.154C265.98 214.65 265.611 213.95 265.611 213.054C265.611 212.245 265.931 211.565 266.569 211.014C267.208 210.464 268.198 210.188 269.54 210.188C270.817 210.188 271.766 210.396 272.388 210.812C273.009 211.228 273.436 211.844 273.671 212.658L271.342 213.089C271.242 212.725 271.052 212.447 270.77 212.254C270.495 212.06 270.1 211.964 269.584 211.964C268.933 211.964 268.468 212.055 268.186 212.236C267.999 212.365 267.905 212.532 267.905 212.737C267.905 212.913 267.987 213.062 268.151 213.185C268.374 213.349 269.141 213.581 270.454 213.88C271.772 214.179 272.692 214.545 273.214 214.978C273.729 215.418 273.987 216.03 273.987 216.815C273.987 217.671 273.63 218.406 272.915 219.021C272.2 219.637 271.142 219.944 269.742 219.944C268.471 219.944 267.463 219.686 266.719 219.171C265.98 218.655 265.497 217.955 265.268 217.07ZM280.438 210.399V212.368H278.751V216.13C278.751 216.891 278.766 217.337 278.795 217.466C278.83 217.589 278.903 217.691 279.015 217.773C279.132 217.855 279.272 217.896 279.436 217.896C279.665 217.896 279.996 217.817 280.43 217.659L280.641 219.575C280.066 219.821 279.416 219.944 278.689 219.944C278.244 219.944 277.843 219.871 277.485 219.724C277.128 219.572 276.864 219.379 276.694 219.144C276.53 218.904 276.416 218.582 276.351 218.178C276.299 217.89 276.272 217.31 276.272 216.437V212.368H275.139V210.399H276.272V208.545L278.751 207.103V210.399H280.438ZM281.282 217.07L283.761 216.692C283.866 217.173 284.08 217.539 284.402 217.791C284.725 218.037 285.176 218.16 285.756 218.16C286.394 218.16 286.875 218.043 287.197 217.808C287.414 217.644 287.522 217.425 287.522 217.149C287.522 216.962 287.464 216.806 287.347 216.683C287.224 216.566 286.948 216.458 286.52 216.358C284.528 215.919 283.266 215.517 282.732 215.154C281.994 214.65 281.625 213.95 281.625 213.054C281.625 212.245 281.944 211.565 282.583 211.014C283.222 210.464 284.212 210.188 285.554 210.188C286.831 210.188 287.78 210.396 288.401 210.812C289.022 211.228 289.45 211.844 289.684 212.658L287.355 213.089C287.256 212.725 287.065 212.447 286.784 212.254C286.509 212.06 286.113 211.964 285.598 211.964C284.947 211.964 284.481 212.055 284.2 212.236C284.013 212.365 283.919 212.532 283.919 212.737C283.919 212.913 284.001 213.062 284.165 213.185C284.388 213.349 285.155 213.581 286.468 213.88C287.786 214.179 288.706 214.545 289.227 214.978C289.743 215.418 290.001 216.03 290.001 216.815C290.001 217.671 289.643 218.406 288.929 219.021C288.214 219.637 287.156 219.944 285.756 219.944C284.484 219.944 283.476 219.686 282.732 219.171C281.994 218.655 281.511 217.955 281.282 217.07Z" fill="#2D2D2D"/>
<path d="M196.711 49.4305H214.712V43.2493H189.844C187.184 57.4904 188.434 85.9727 214.712 85.9727V79.6097C196.006 79.6097 194.917 59.4902 196.711 49.4305Z" fill="white" stroke="black" stroke-linejoin="round"/>
<path d="M301.412 49.4305H283.411V43.2493H308.279C310.939 57.4904 309.689 85.9727 283.411 85.9727V79.6097C302.118 79.6097 303.206 59.4902 301.412 49.4305Z" fill="white" stroke="black" stroke-linejoin="round"/>
<path d="M205.283 107.613L224.355 96.5855L238.087 107.613L215.963 122.823V112.556L205.283 107.613Z" fill="#F94239"/>
<path d="M291.871 107.613L272.799 96.5855L259.067 107.613L281.19 122.823V112.556L291.871 107.613Z" fill="#F94239"/>
<path d="M240.544 126.355L243.846 109.383H254.854L258.156 126.355H240.544Z" fill="white" stroke="black"/>
<rect x="227.133" y="126.25" width="45.0788" height="8.38433" rx="4.19216" fill="white" stroke="black"/>
<rect x="221.49" y="133.757" width="56.3635" height="10.2612" rx="5.1306" fill="white" stroke="black"/>
<path d="M213.027 32.4067H286.317V72.6515C286.317 92.89 269.911 109.297 249.672 109.297C229.434 109.297 213.027 92.8901 213.027 72.6515V32.4067Z" fill="white" stroke="black"/>
<path d="M237.021 62.5626H249.938" stroke="black" stroke-linejoin="round"/>
<path d="M237.021 67.8299H257.569" stroke="black" stroke-linejoin="round"/>
<path d="M237.021 72.5119H257.569" stroke="black" stroke-linejoin="round"/>
<path d="M237.021 77.1939H257.569" stroke="black" stroke-linejoin="round"/>
<rect x="231.835" y="52.1138" width="34.7346" height="33.722" rx="9.5" stroke="black"/>
<rect x="206.444" y="23.9608" width="85.5154" height="12.1381" rx="6.06903" fill="white" stroke="black"/>
<ellipse cx="294.811" cy="16.4226" rx="16.4567" ry="16.4226" fill="#F94239"/>
<path d="M299.84 22.1566V25.1659H288.097C288.225 24.0283 288.606 22.9521 289.242 21.9375C289.878 20.9151 291.133 19.5623 293.009 17.8789C294.519 16.5183 295.445 15.5959 295.786 15.1116C296.247 14.4429 296.478 13.7818 296.478 13.1285C296.478 12.4059 296.275 11.8525 295.87 11.4681C295.473 11.0761 294.92 10.8801 294.213 10.8801C293.514 10.8801 292.957 11.0838 292.544 11.4912C292.131 11.8986 291.892 12.575 291.829 13.5205L288.491 13.1976C288.689 11.4143 289.313 10.1345 290.362 9.35812C291.411 8.58175 292.723 8.19357 294.296 8.19357C296.021 8.19357 297.376 8.64325 298.361 9.5426C299.347 10.4419 299.84 11.5604 299.84 12.8979C299.84 13.6589 299.697 14.3852 299.41 15.0771C299.132 15.7612 298.687 16.4799 298.075 17.2332C297.67 17.7328 296.939 18.4515 295.882 19.3893C294.825 20.3271 294.153 20.9497 293.867 21.2572C293.589 21.5647 293.363 21.8645 293.188 22.1566H299.84Z" fill="white"/>
<rect x="296.221" y="309.683" width="192.779" height="192.379" rx="10" fill="#EAEAEA"/>
<path d="M372.506 449.802V439.097H368.682V436.917H378.922V439.097H375.107V449.802H372.506ZM378.684 445.003C378.684 444.183 378.887 443.389 379.291 442.622C379.695 441.854 380.266 441.268 381.005 440.864C381.749 440.459 382.578 440.257 383.492 440.257C384.904 440.257 386.061 440.717 386.964 441.637C387.866 442.551 388.317 443.709 388.317 445.109C388.317 446.521 387.86 447.693 386.946 448.625C386.038 449.55 384.892 450.013 383.51 450.013C382.654 450.013 381.837 449.82 381.057 449.433C380.284 449.046 379.695 448.481 379.291 447.737C378.887 446.987 378.684 446.076 378.684 445.003ZM381.216 445.135C381.216 446.061 381.435 446.77 381.875 447.262C382.314 447.754 382.856 448.001 383.501 448.001C384.145 448.001 384.684 447.754 385.118 447.262C385.557 446.77 385.777 446.055 385.777 445.118C385.777 444.204 385.557 443.501 385.118 443.008C384.684 442.516 384.145 442.27 383.501 442.27C382.856 442.27 382.314 442.516 381.875 443.008C381.435 443.501 381.216 444.209 381.216 445.135ZM390.189 440.468H392.492V441.839C392.791 441.371 393.195 440.99 393.705 440.697C394.215 440.404 394.78 440.257 395.401 440.257C396.485 440.257 397.405 440.682 398.161 441.532C398.917 442.381 399.295 443.565 399.295 445.083C399.295 446.641 398.914 447.854 398.152 448.721C397.39 449.583 396.468 450.013 395.384 450.013C394.868 450.013 394.399 449.911 393.977 449.706C393.561 449.501 393.122 449.149 392.659 448.651V453.353H390.189V440.468ZM392.633 444.977C392.633 446.026 392.841 446.802 393.257 447.306C393.673 447.804 394.18 448.053 394.777 448.053C395.351 448.053 395.829 447.825 396.21 447.368C396.591 446.905 396.781 446.149 396.781 445.1C396.781 444.122 396.585 443.395 396.192 442.92C395.8 442.446 395.313 442.209 394.733 442.209C394.13 442.209 393.629 442.443 393.23 442.912C392.832 443.375 392.633 444.063 392.633 444.977ZM400.982 446.366V443.896H405.834V446.366H400.982ZM406.765 446.489L409.226 446.234C409.297 446.791 409.505 447.233 409.85 447.561C410.196 447.883 410.595 448.044 411.046 448.044C411.561 448.044 411.998 447.836 412.355 447.42C412.713 446.999 412.891 446.366 412.891 445.522C412.891 444.731 412.713 444.139 412.355 443.747C412.004 443.348 411.544 443.149 410.975 443.149C410.266 443.149 409.631 443.462 409.068 444.089L407.064 443.799L408.33 437.093H414.86V439.405H410.202L409.815 441.593C410.366 441.318 410.929 441.18 411.503 441.18C412.598 441.18 413.527 441.579 414.289 442.376C415.051 443.172 415.431 444.207 415.431 445.478C415.431 446.539 415.124 447.485 414.509 448.317C413.671 449.454 412.508 450.022 411.019 450.022C409.83 450.022 408.86 449.703 408.11 449.064C407.36 448.425 406.912 447.567 406.765 446.489ZM314.366 464.917H319.516C320.536 464.917 321.295 464.961 321.793 465.049C322.297 465.131 322.745 465.307 323.138 465.577C323.536 465.846 323.867 466.207 324.131 466.658C324.394 467.103 324.526 467.604 324.526 468.161C324.526 468.764 324.362 469.318 324.034 469.822C323.712 470.326 323.272 470.704 322.716 470.956C323.501 471.184 324.104 471.574 324.526 472.125C324.948 472.675 325.159 473.323 325.159 474.067C325.159 474.653 325.021 475.224 324.746 475.781C324.476 476.332 324.104 476.774 323.63 477.108C323.161 477.436 322.581 477.638 321.889 477.714C321.456 477.761 320.41 477.791 318.752 477.802H314.366V464.917ZM316.968 467.062V470.042H318.673C319.686 470.042 320.316 470.027 320.562 469.998C321.008 469.945 321.356 469.792 321.608 469.541C321.866 469.283 321.995 468.946 321.995 468.53C321.995 468.131 321.884 467.809 321.661 467.563C321.444 467.311 321.119 467.159 320.685 467.106C320.428 467.077 319.686 467.062 318.462 467.062H316.968ZM316.968 472.186V475.631H319.376C320.313 475.631 320.908 475.605 321.16 475.552C321.547 475.482 321.86 475.312 322.1 475.042C322.347 474.767 322.47 474.401 322.47 473.944C322.47 473.557 322.376 473.229 322.188 472.959C322.001 472.69 321.728 472.494 321.371 472.371C321.019 472.248 320.252 472.186 319.068 472.186H316.968ZM327.347 467.203V464.917H329.817V467.203H327.347ZM327.347 477.802V468.468H329.817V477.802H327.347ZM332.129 478.417L334.95 478.76C334.997 479.088 335.105 479.314 335.275 479.437C335.51 479.613 335.879 479.701 336.383 479.701C337.027 479.701 337.511 479.604 337.833 479.411C338.05 479.282 338.214 479.074 338.325 478.787C338.401 478.582 338.439 478.204 338.439 477.653V476.291C337.701 477.298 336.769 477.802 335.644 477.802C334.39 477.802 333.397 477.272 332.665 476.211C332.091 475.374 331.804 474.331 331.804 473.083C331.804 471.518 332.179 470.323 332.929 469.497C333.684 468.67 334.622 468.257 335.741 468.257C336.895 468.257 337.847 468.764 338.597 469.778V468.468H340.909V476.844C340.909 477.946 340.818 478.769 340.637 479.314C340.455 479.859 340.2 480.287 339.872 480.597C339.544 480.908 339.104 481.151 338.554 481.327C338.009 481.502 337.317 481.59 336.479 481.59C334.897 481.59 333.775 481.318 333.113 480.773C332.451 480.234 332.12 479.548 332.12 478.716C332.12 478.634 332.123 478.535 332.129 478.417ZM334.335 472.942C334.335 473.932 334.525 474.659 334.906 475.122C335.293 475.579 335.767 475.807 336.33 475.807C336.933 475.807 337.443 475.573 337.859 475.104C338.275 474.629 338.483 473.929 338.483 473.003C338.483 472.037 338.284 471.319 337.886 470.85C337.487 470.381 336.983 470.147 336.374 470.147C335.782 470.147 335.293 470.378 334.906 470.841C334.525 471.298 334.335 471.999 334.335 472.942ZM348.38 464.917H353.135C354.207 464.917 355.024 465 355.587 465.164C356.343 465.386 356.99 465.782 357.529 466.35C358.068 466.918 358.478 467.616 358.76 468.442C359.041 469.262 359.181 470.276 359.181 471.483C359.181 472.543 359.05 473.458 358.786 474.225C358.464 475.163 358.004 475.921 357.406 476.501C356.955 476.941 356.346 477.284 355.578 477.53C355.004 477.711 354.236 477.802 353.275 477.802H348.38V464.917ZM350.981 467.097V475.631H352.924C353.65 475.631 354.175 475.59 354.497 475.508C354.919 475.403 355.267 475.224 355.543 474.972C355.824 474.72 356.053 474.307 356.228 473.733C356.404 473.153 356.492 472.365 356.492 471.369C356.492 470.373 356.404 469.608 356.228 469.075C356.053 468.542 355.806 468.126 355.49 467.827C355.174 467.528 354.772 467.326 354.286 467.22C353.923 467.138 353.211 467.097 352.15 467.097H350.981ZM363.224 471.316L360.983 470.912C361.235 470.009 361.669 469.341 362.284 468.908C362.899 468.474 363.813 468.257 365.026 468.257C366.128 468.257 366.948 468.389 367.487 468.653C368.026 468.911 368.404 469.242 368.621 469.646C368.844 470.044 368.955 470.78 368.955 471.852L368.929 474.735C368.929 475.555 368.967 476.162 369.043 476.554C369.125 476.941 369.274 477.357 369.491 477.802H367.048C366.983 477.638 366.904 477.395 366.81 477.073C366.769 476.926 366.74 476.83 366.722 476.783C366.301 477.193 365.849 477.501 365.369 477.706C364.889 477.911 364.376 478.013 363.831 478.013C362.87 478.013 362.111 477.752 361.555 477.231C361.004 476.709 360.728 476.05 360.728 475.253C360.728 474.726 360.854 474.257 361.106 473.847C361.358 473.431 361.71 473.115 362.161 472.898C362.618 472.675 363.274 472.482 364.13 472.318C365.284 472.101 366.084 471.899 366.529 471.711V471.465C366.529 470.991 366.412 470.654 366.178 470.455C365.943 470.25 365.501 470.147 364.85 470.147C364.411 470.147 364.068 470.235 363.822 470.411C363.576 470.581 363.377 470.882 363.224 471.316ZM366.529 473.32C366.213 473.425 365.712 473.551 365.026 473.698C364.341 473.844 363.892 473.988 363.681 474.128C363.359 474.357 363.198 474.647 363.198 474.999C363.198 475.344 363.327 475.643 363.585 475.895C363.843 476.147 364.171 476.273 364.569 476.273C365.014 476.273 365.439 476.126 365.844 475.834C366.142 475.611 366.339 475.338 366.432 475.016C366.497 474.805 366.529 474.404 366.529 473.812V473.32ZM375.679 468.468V470.437H373.991V474.199C373.991 474.96 374.006 475.406 374.035 475.535C374.07 475.658 374.143 475.76 374.255 475.842C374.372 475.924 374.513 475.965 374.677 475.965C374.905 475.965 375.236 475.886 375.67 475.728L375.881 477.644C375.306 477.89 374.656 478.013 373.93 478.013C373.484 478.013 373.083 477.94 372.725 477.793C372.368 477.641 372.104 477.448 371.934 477.213C371.77 476.973 371.656 476.651 371.592 476.247C371.539 475.959 371.513 475.379 371.513 474.506V470.437H370.379V468.468H371.513V466.614L373.991 465.172V468.468H375.679ZM379.238 471.316L376.997 470.912C377.249 470.009 377.682 469.341 378.298 468.908C378.913 468.474 379.827 468.257 381.04 468.257C382.141 468.257 382.962 468.389 383.501 468.653C384.04 468.911 384.418 469.242 384.635 469.646C384.857 470.044 384.969 470.78 384.969 471.852L384.942 474.735C384.942 475.555 384.98 476.162 385.056 476.554C385.139 476.941 385.288 477.357 385.505 477.802H383.061C382.997 477.638 382.918 477.395 382.824 477.073C382.783 476.926 382.754 476.83 382.736 476.783C382.314 477.193 381.863 477.501 381.383 477.706C380.902 477.911 380.389 478.013 379.845 478.013C378.884 478.013 378.125 477.752 377.568 477.231C377.017 476.709 376.742 476.05 376.742 475.253C376.742 474.726 376.868 474.257 377.12 473.847C377.372 473.431 377.723 473.115 378.175 472.898C378.632 472.675 379.288 472.482 380.143 472.318C381.298 472.101 382.097 471.899 382.543 471.711V471.465C382.543 470.991 382.426 470.654 382.191 470.455C381.957 470.25 381.514 470.147 380.864 470.147C380.425 470.147 380.082 470.235 379.836 470.411C379.59 470.581 379.39 470.882 379.238 471.316ZM382.543 473.32C382.226 473.425 381.725 473.551 381.04 473.698C380.354 473.844 379.906 473.988 379.695 474.128C379.373 474.357 379.212 474.647 379.212 474.999C379.212 475.344 379.341 475.643 379.598 475.895C379.856 476.147 380.184 476.273 380.583 476.273C381.028 476.273 381.453 476.126 381.857 475.834C382.156 475.611 382.352 475.338 382.446 475.016C382.511 474.805 382.543 474.404 382.543 473.812V473.32ZM392.431 464.917H397.185C398.258 464.917 399.075 465 399.638 465.164C400.393 465.386 401.041 465.782 401.58 466.35C402.119 466.918 402.529 467.616 402.81 468.442C403.092 469.262 403.232 470.276 403.232 471.483C403.232 472.543 403.1 473.458 402.837 474.225C402.514 475.163 402.055 475.921 401.457 476.501C401.006 476.941 400.396 477.284 399.629 477.53C399.055 477.711 398.287 477.802 397.326 477.802H392.431V464.917ZM395.032 467.097V475.631H396.974C397.701 475.631 398.225 475.59 398.548 475.508C398.97 475.403 399.318 475.224 399.594 474.972C399.875 474.72 400.103 474.307 400.279 473.733C400.455 473.153 400.543 472.365 400.543 471.369C400.543 470.373 400.455 469.608 400.279 469.075C400.103 468.542 399.857 468.126 399.541 467.827C399.224 467.528 398.823 467.326 398.337 467.22C397.973 467.138 397.262 467.097 396.201 467.097H395.032ZM410.835 474.832L413.296 475.245C412.979 476.147 412.478 476.835 411.793 477.31C411.113 477.779 410.261 478.013 409.235 478.013C407.612 478.013 406.411 477.483 405.632 476.422C405.016 475.573 404.709 474.501 404.709 473.206C404.709 471.659 405.113 470.449 405.922 469.576C406.73 468.697 407.753 468.257 408.989 468.257C410.378 468.257 411.473 468.717 412.276 469.637C413.079 470.551 413.463 471.955 413.428 473.847H407.24C407.258 474.58 407.457 475.151 407.838 475.561C408.219 475.965 408.693 476.167 409.262 476.167C409.648 476.167 409.973 476.062 410.237 475.851C410.501 475.64 410.7 475.3 410.835 474.832ZM410.975 472.335C410.958 471.621 410.773 471.079 410.422 470.709C410.07 470.334 409.642 470.147 409.139 470.147C408.599 470.147 408.154 470.343 407.803 470.736C407.451 471.128 407.278 471.662 407.284 472.335H410.975ZM418.015 477.802L414.254 468.468H416.847L418.604 473.232L419.114 474.823C419.249 474.418 419.334 474.152 419.369 474.023C419.451 473.759 419.539 473.496 419.633 473.232L421.408 468.468H423.948L420.239 477.802H418.015ZM430.566 477.802V465.023H433.168V475.631H439.637V477.802H430.566ZM441.482 467.203V464.917H443.952V467.203H441.482ZM441.482 477.802V468.468H443.952V477.802H441.482ZM445.622 475.139L448.1 474.761C448.206 475.242 448.42 475.608 448.742 475.86C449.064 476.106 449.515 476.229 450.096 476.229C450.734 476.229 451.215 476.112 451.537 475.877C451.754 475.713 451.862 475.494 451.862 475.218C451.862 475.031 451.804 474.876 451.686 474.752C451.563 474.635 451.288 474.527 450.86 474.427C448.868 473.988 447.605 473.586 447.072 473.223C446.334 472.719 445.965 472.019 445.965 471.123C445.965 470.314 446.284 469.634 446.923 469.084C447.561 468.533 448.552 468.257 449.893 468.257C451.171 468.257 452.12 468.465 452.741 468.881C453.362 469.297 453.79 469.913 454.024 470.727L451.695 471.158C451.596 470.794 451.405 470.516 451.124 470.323C450.848 470.129 450.453 470.033 449.937 470.033C449.287 470.033 448.821 470.124 448.54 470.305C448.352 470.434 448.259 470.601 448.259 470.806C448.259 470.982 448.341 471.131 448.505 471.254C448.727 471.418 449.495 471.65 450.807 471.949C452.126 472.248 453.046 472.614 453.567 473.047C454.083 473.487 454.341 474.099 454.341 474.884C454.341 475.74 453.983 476.475 453.268 477.09C452.554 477.706 451.496 478.013 450.096 478.013C448.824 478.013 447.816 477.755 447.072 477.24C446.334 476.724 445.85 476.024 445.622 475.139ZM460.792 468.468V470.437H459.104V474.199C459.104 474.96 459.119 475.406 459.148 475.535C459.183 475.658 459.257 475.76 459.368 475.842C459.485 475.924 459.626 475.965 459.79 475.965C460.018 475.965 460.349 475.886 460.783 475.728L460.994 477.644C460.42 477.89 459.769 478.013 459.043 478.013C458.598 478.013 458.196 477.94 457.839 477.793C457.481 477.641 457.218 477.448 457.048 477.213C456.884 476.973 456.769 476.651 456.705 476.247C456.652 475.959 456.626 475.379 456.626 474.506V470.437H455.492V468.468H456.626V466.614L459.104 465.172V468.468H460.792ZM461.636 475.139L464.114 474.761C464.22 475.242 464.433 475.608 464.756 475.86C465.078 476.106 465.529 476.229 466.109 476.229C466.748 476.229 467.228 476.112 467.551 475.877C467.767 475.713 467.876 475.494 467.876 475.218C467.876 475.031 467.817 474.876 467.7 474.752C467.577 474.635 467.302 474.527 466.874 474.427C464.882 473.988 463.619 473.586 463.086 473.223C462.348 472.719 461.978 472.019 461.978 471.123C461.978 470.314 462.298 469.634 462.936 469.084C463.575 468.533 464.565 468.257 465.907 468.257C467.184 468.257 468.134 468.465 468.755 468.881C469.376 469.297 469.804 469.913 470.038 470.727L467.709 471.158C467.609 470.794 467.419 470.516 467.138 470.323C466.862 470.129 466.467 470.033 465.951 470.033C465.301 470.033 464.835 470.124 464.554 470.305C464.366 470.434 464.272 470.601 464.272 470.806C464.272 470.982 464.354 471.131 464.518 471.254C464.741 471.418 465.509 471.65 466.821 471.949C468.139 472.248 469.059 472.614 469.581 473.047C470.097 473.487 470.354 474.099 470.354 474.884C470.354 475.74 469.997 476.475 469.282 477.09C468.567 477.706 467.51 478.013 466.109 478.013C464.838 478.013 463.83 477.755 463.086 477.24C462.348 476.724 461.864 476.024 461.636 475.139Z" fill="#2D2D2D"/>
<path d="M337.06 307.746H355.038V301.573H330.203C327.546 315.796 328.794 344.241 355.038 344.241V337.886C336.356 337.886 335.268 317.793 337.06 307.746Z" fill="white" stroke="black" stroke-linejoin="round"/>
<path d="M441.625 307.746H423.647V301.573H448.482C451.139 315.796 449.891 344.241 423.647 344.241V337.886C442.329 337.886 443.416 317.793 441.625 307.746Z" fill="white" stroke="black" stroke-linejoin="round"/>
<path d="M345.622 365.853L364.669 354.84L378.383 365.853L356.288 381.043V370.79L345.622 365.853Z" fill="#F94239"/>
<path d="M432.096 365.853L413.048 354.84L399.334 365.853L421.429 381.043V370.79L432.096 365.853Z" fill="#F94239"/>
<path d="M380.836 384.57L384.134 367.62H395.127L398.425 384.57H380.836Z" fill="white" stroke="black"/>
<rect x="367.25" y="384.319" width="45.0788" height="8.38433" rx="4.19216" fill="white" stroke="black"/>
<rect x="361.608" y="391.827" width="55.4231" height="10.2612" rx="5.1306" fill="white" stroke="black"/>
<path d="M353.144 291.414H426.435V331.659C426.435 351.898 410.028 368.304 389.789 368.304C369.551 368.304 353.144 351.898 353.144 331.659V291.414Z" fill="white" stroke="black"/>
<path d="M377.318 320.861H390.218" stroke="black" stroke-linejoin="round"/>
<path d="M377.318 326.122H397.839" stroke="black" stroke-linejoin="round"/>
<path d="M377.318 330.798H397.839" stroke="black" stroke-linejoin="round"/>
<path d="M377.318 335.474H397.839" stroke="black" stroke-linejoin="round"/>
<rect x="371.952" y="311.121" width="34.7346" height="33.722" rx="9.5" stroke="black"/>
<rect x="346.562" y="282.03" width="85.5154" height="12.1381" rx="6.06903" fill="white" stroke="black"/>
<ellipse cx="434.928" cy="274.492" rx="16.4567" ry="16.4226" fill="#F94239"/>
<path d="M429.254 279.145L432.38 278.748C432.48 279.582 432.748 280.221 433.185 280.662C433.621 281.104 434.15 281.324 434.77 281.324C435.437 281.324 435.996 281.059 436.448 280.53C436.908 280 437.138 279.286 437.138 278.386C437.138 277.536 436.919 276.861 436.483 276.364C436.046 275.866 435.514 275.617 434.885 275.617C434.472 275.617 433.977 275.701 433.403 275.87L433.759 273.113C434.633 273.137 435.299 272.94 435.759 272.523C436.218 272.097 436.448 271.536 436.448 270.837C436.448 270.243 436.28 269.77 435.943 269.416C435.606 269.063 435.157 268.887 434.598 268.887C434.046 268.887 433.575 269.087 433.185 269.489C432.794 269.89 432.556 270.476 432.472 271.247L429.495 270.717C429.702 269.649 430.013 268.798 430.426 268.164C430.848 267.522 431.43 267.02 432.173 266.659C432.924 266.29 433.763 266.105 434.69 266.105C436.276 266.105 437.548 266.635 438.505 267.695C439.295 268.562 439.689 269.541 439.689 270.632C439.689 272.182 438.881 273.418 437.264 274.341C438.23 274.558 439 275.043 439.574 275.798C440.156 276.552 440.448 277.463 440.448 278.531C440.448 280.08 439.907 281.401 438.827 282.492C437.747 283.584 436.402 284.13 434.793 284.13C433.269 284.13 432.005 283.672 431.001 282.757C429.997 281.834 429.415 280.63 429.254 279.145Z" fill="white"/>
<path fill-rule="evenodd" clip-rule="evenodd" d="M406.263 151.607V151.611C402.308 151.718 399.125 154.909 399.047 158.859H399.044C398.965 154.871 395.722 151.657 391.715 151.609V151.605C395.671 151.499 398.855 148.308 398.933 144.357H398.936C399.015 148.344 402.256 151.558 406.263 151.607Z" fill="#2D2D2D"/>
<path fill-rule="evenodd" clip-rule="evenodd" d="M261.876 377.463V377.469C254.522 377.668 248.604 383.601 248.459 390.945H248.454C248.307 383.532 242.279 377.556 234.829 377.465V377.459C242.184 377.261 248.103 371.327 248.248 363.982H248.254C248.4 371.395 254.427 377.37 261.876 377.463Z" fill="#2D2D2D"/>
<mask id="path-57-inside-1" fill="white">
<path fill-rule="evenodd" clip-rule="evenodd" d="M121.025 98.4677V98.4727C115.017 98.635 110.182 103.482 110.063 109.482H110.059C109.939 103.426 105.014 98.5442 98.9281 98.4694V98.4644C104.937 98.3028 109.772 93.4551 109.891 87.4545H109.895C110.015 93.5104 114.939 98.3922 121.025 98.4677Z"/>
</mask>
<path d="M121.025 98.4727H122.025V99.4461L121.052 99.4724L121.025 98.4727ZM121.025 98.4677L121.037 97.4677L122.025 97.48V98.4677H121.025ZM110.063 109.482L111.063 109.502L111.044 110.482H110.063V109.482ZM110.059 109.482V110.482H109.079L109.059 109.502L110.059 109.482ZM98.9281 98.4694L98.9158 99.4693L97.9281 99.4572V98.4694H98.9281ZM98.9281 98.4644H97.9281V97.4909L98.9013 97.4647L98.9281 98.4644ZM109.891 87.4545L108.891 87.4347L108.911 86.4545H109.891V87.4545ZM109.895 87.4545V86.4545H110.876L110.895 87.4347L109.895 87.4545ZM120.025 98.4727V98.4677H122.025V98.4727H120.025ZM121.052 99.4724C115.575 99.6203 111.171 104.039 111.063 109.502L109.064 109.463C109.193 102.925 114.459 97.6497 120.998 97.4731L121.052 99.4724ZM110.059 108.482H110.063V110.482H110.059V108.482ZM109.059 109.502C108.95 103.988 104.465 99.5375 98.9158 99.4693L98.9404 97.4695C105.564 97.5508 110.928 102.864 111.059 109.463L109.059 109.502ZM99.9281 98.4644V98.4694H97.9281V98.4644H99.9281ZM98.9013 97.4647C104.379 97.3175 108.783 92.8981 108.891 87.4347L110.891 87.4742C110.762 94.012 105.494 99.2882 98.955 99.464L98.9013 97.4647ZM109.895 88.4545H109.891V86.4545H109.895V88.4545ZM110.895 87.4347C111.004 92.9486 115.489 97.3989 121.037 97.4677L121.012 99.4676C114.39 99.3854 109.026 94.0723 108.896 87.4742L110.895 87.4347Z" fill="#2D2D2D" mask="url(#path-57-inside-1)"/>
</svg>
