<svg width="129" height="130" viewBox="0 0 129 130" fill="none" xmlns="http://www.w3.org/2000/svg">
<path d="M9.29775 28.5542H28.3403V21.995H2.03411C-0.779761 37.1069 0.542071 67.3306 28.3403 67.3306V60.5785C8.55175 60.5785 7.40003 39.2289 9.29775 28.5542Z" fill="white" stroke="black" stroke-linejoin="round"/>
<path d="M120.055 28.5542H101.013V21.995H127.319C130.133 37.1069 128.811 67.3306 101.013 67.3306V60.5785C120.801 60.5785 121.953 39.2289 120.055 28.5542Z" fill="white" stroke="black" stroke-linejoin="round"/>
<path d="M18.3655 90.294L38.5409 78.5923L53.0672 90.294L29.6637 106.434V95.5396L18.3655 90.294Z" fill="#F94239"/>
<path d="M109.962 90.294L89.7864 78.5923L75.2601 90.294L98.6636 106.434V95.5396L109.962 90.294Z" fill="#F94239"/>
<path d="M55.6659 110.182L59.1593 92.1721H70.8037L74.297 110.182H55.6659Z" fill="white" stroke="black"/>
<rect x="41.2611" y="110.061" width="47.4409" height="8.93659" rx="4.46829" fill="white" stroke="black"/>
<rect x="35.6717" y="118.135" width="59.2406" height="10.7997" rx="5.39985" fill="white" stroke="black"/>
<path d="M26.3562 10.6952H103.607V53.6678C103.607 75 86.3137 92.2931 64.9815 92.2931C43.6493 92.2931 26.3562 75 26.3562 53.6678V10.6952Z" fill="white" stroke="black"/>
<path d="M51.9397 42.4892H65.6025" stroke="black" stroke-linejoin="round"/>
<path d="M51.9397 48.0785H73.676" stroke="black" stroke-linejoin="round"/>
<path d="M51.9397 53.0468H73.676" stroke="black" stroke-linejoin="round"/>
<path d="M51.9397 58.0151H73.676" stroke="black" stroke-linejoin="round"/>
<rect x="46.2293" y="31.8105" width="36.8832" height="36.2622" rx="9.5" stroke="black"/>
<rect x="19.5247" y="1.31659" width="90.2924" height="12.6628" rx="6.3314" fill="white" stroke="black"/>
</svg>
