<svg width="48" height="49" viewBox="0 0 48 49" fill="none" xmlns="http://www.w3.org/2000/svg">
<path d="M37.4512 4.90625H9.37803C6.1384 4.90625 3.51216 7.20475 3.51216 10.0401V32.8476C3.51216 35.683 6.13839 37.9815 9.37802 37.9815H32.09C33.2386 37.9815 34.3492 38.3934 35.22 39.1424L41.4242 44.4787C41.4676 44.516 41.5137 44.5502 41.5649 44.5758C42.3346 44.9617 43.317 44.4782 43.317 43.6826V10.0401C43.317 7.20475 40.6908 4.90625 37.4512 4.90625Z" fill="white"/>
<path fill-rule="evenodd" clip-rule="evenodd" d="M2.55217 10.0401C2.55217 6.55839 5.73241 3.94629 9.37803 3.94629H37.4512C41.0968 3.94629 44.277 6.55839 44.277 10.0401V43.6827C44.277 44.5166 43.7558 45.1305 43.1613 45.4298C42.57 45.7275 41.8117 45.7734 41.1347 45.4341C40.9871 45.3601 40.8741 45.2719 40.7982 45.2066L34.594 39.8702C33.8973 39.271 33.0089 38.9415 32.09 38.9415H9.37803C5.7324 38.9415 2.55217 36.3294 2.55217 32.8477V10.0401ZM9.37803 5.86629C6.5444 5.86629 4.47217 7.85119 4.47217 10.0401V32.8477C4.47217 35.0366 6.5444 37.0215 9.37803 37.0215H32.09C33.4683 37.0215 34.801 37.5158 35.846 38.4146L42.0279 43.7317C42.1145 43.7629 42.2162 43.756 42.2979 43.7148C42.3317 43.6979 42.3495 43.681 42.357 43.6724V10.0401C42.357 7.85119 40.2848 5.86629 37.4512 5.86629H9.37803Z" fill="black"/>
<path fill-rule="evenodd" clip-rule="evenodd" d="M26.2081 19.3392C27.0236 18.5841 27.4806 17.4414 27.4613 16.0398C27.4467 14.9725 27.1098 14.0335 26.4485 13.3598C25.7943 12.6933 24.7185 12.1806 23.0158 12.1596C21.3243 12.1386 20.3372 12.6383 19.7502 13.3476C19.1346 14.0915 18.813 15.2394 18.8343 16.7874L16.915 16.8082C16.8905 15.0308 17.2476 13.356 18.2703 12.1202C19.3215 10.8499 20.9324 10.2132 23.0339 10.2392C25.1242 10.2651 26.7292 10.9088 27.8161 12.0162C28.896 13.1164 29.3607 14.5689 29.3806 16.019C29.4059 17.8539 28.8015 19.5584 27.5142 20.7505C26.4288 21.7555 24.9423 22.3185 23.1502 22.354L23.2148 27.0457L21.2955 27.0664L21.2025 20.3101L22.2583 20.4034C24.1127 20.5672 25.3971 20.0902 26.2081 19.3392Z" fill="#ED1C24"/>
<path d="M23.1921 30.1882C23.1921 31.0126 22.5352 31.681 21.725 31.681C20.9147 31.681 20.2578 31.0126 20.2578 30.1882C20.2578 29.3637 20.9147 28.6953 21.725 28.6953C22.5352 28.6953 23.1921 29.3637 23.1921 30.1882Z" fill="#F41820"/>
</svg>
