<svg width="242" height="283" viewBox="0 0 242 283" fill="none" xmlns="http://www.w3.org/2000/svg">
<mask id="mask0" style="mask-type:alpha" maskUnits="userSpaceOnUse" x="0" y="0" width="242" height="283">
<rect x="0.0695801" y="0.1875" width="241.383" height="282" rx="10" fill="#F6F6F6"/>
</mask>
<g mask="url(#mask0)">
<g opacity="0.3">
<path d="M464.777 199.501L230.959 69.6313C199.514 52.1657 159.874 63.0959 141.824 94.2091L2.96221 333.566" stroke="#F4888D" stroke-linecap="round" stroke-linejoin="round"/>
<path d="M469.222 216.231L227.682 82.0716C200.525 66.9877 166.29 76.4275 150.701 103.298L7.40737 350.295" stroke="#F4888D" stroke-linecap="round" stroke-linejoin="round"/>
<path d="M473.945 234.006L232.405 99.847C205.248 84.7631 171.013 94.2029 155.424 121.073L12.1303 368.07" stroke="#F4888D" stroke-linecap="round" stroke-linejoin="round"/>
<path d="M478.668 251.781L237.128 117.622C209.971 102.539 175.736 111.978 160.147 138.849L16.8533 385.846" stroke="#F4888D" stroke-linecap="round" stroke-linejoin="round"/>
<path d="M483.391 269.556L241.851 135.397C214.694 120.313 180.459 129.753 164.87 156.623L21.5763 403.62" stroke="#F4888D" stroke-linecap="round" stroke-linejoin="round"/>
<path d="M488.114 287.331L246.574 153.172C219.417 138.088 185.182 147.528 169.593 174.399L26.2993 421.396" stroke="#F4888D" stroke-linecap="round" stroke-linejoin="round"/>
<path d="M492.837 305.107L251.297 170.948C224.14 155.864 189.905 165.303 174.316 192.174L31.0223 439.171" stroke="#F4888D" stroke-linecap="round" stroke-linejoin="round"/>
<path d="M497.56 322.882L256.02 188.723C228.863 173.639 194.628 183.079 179.039 209.949L35.7453 456.946" stroke="#F4888D" stroke-linecap="round" stroke-linejoin="round"/>
<path d="M502.283 340.656L260.743 206.497C233.586 191.414 199.351 200.853 183.762 227.724L40.4683 474.721" stroke="#F4888D" stroke-linecap="round" stroke-linejoin="round"/>
</g>
</g>
</svg>
