<svg width="201" height="201" viewBox="0 0 201 201" fill="none" xmlns="http://www.w3.org/2000/svg">
<mask id="mask0" style="mask-type:alpha" maskUnits="userSpaceOnUse" x="0" y="0" width="201" height="201">
<rect x="1.28229" y="0.770508" width="198.492" height="199.081" rx="9.5" fill="white" stroke="#E5E5E5"/>
</mask>
<g mask="url(#mask0)">
<rect x="1.19209e-07" y="0.593822" width="66.5051" height="66.5051" transform="matrix(-0.804597 0.593822 0.804597 0.593822 165.758 20.5469)" stroke="#ED1C24"/>
<rect x="1.19209e-07" y="0.593822" width="66.5051" height="66.5051" transform="matrix(-0.804597 0.593822 0.804597 0.593822 166.481 29.3711)" stroke="#ED1C24"/>
<rect x="1.19209e-07" y="0.593822" width="66.5051" height="66.5051" transform="matrix(-0.804597 0.593822 0.804597 0.593822 166.481 38.9687)" stroke="#ED1C24"/>
<rect x="1.19209e-07" y="0.593822" width="66.5051" height="66.5051" transform="matrix(-0.804597 0.593822 0.804597 0.593822 166.481 48.5693)" stroke="#ED1C24"/>
<rect x="1.19209e-07" y="0.593822" width="66.5051" height="66.5051" transform="matrix(-0.804597 0.593822 0.804597 0.593822 166.481 58.1689)" stroke="#ED1C24"/>
<rect x="1.19209e-07" y="0.593822" width="66.5051" height="66.5051" transform="matrix(-0.804597 0.593822 0.804597 0.593822 166.471 67.7744)" stroke="#ED1C24"/>
<rect x="1.19209e-07" y="0.593822" width="66.5051" height="66.5051" transform="matrix(-0.804597 0.593822 0.804597 0.593822 166.471 77.373)" stroke="#ED1C24"/>
<rect x="1.19209e-07" y="0.593822" width="66.5051" height="66.5051" transform="matrix(-0.804597 0.593822 0.804597 0.593822 165.935 11.0566)" fill="white" stroke="#ED1C24"/>
<rect x="1.19209e-07" y="0.593822" width="66.5051" height="66.5051" transform="matrix(-0.804597 0.593822 0.804597 0.593822 59.4058 88.0303)" stroke="#ED1C24"/>
<rect x="1.19209e-07" y="0.593822" width="66.5051" height="66.5051" transform="matrix(-0.804597 0.593822 0.804597 0.593822 60.1292 96.8545)" stroke="#ED1C24"/>
<rect x="1.19209e-07" y="0.593822" width="66.5051" height="66.5051" transform="matrix(-0.804597 0.593822 0.804597 0.593822 60.1292 106.452)" stroke="#ED1C24"/>
<rect x="1.19209e-07" y="0.593822" width="66.5051" height="66.5051" transform="matrix(-0.804597 0.593822 0.804597 0.593822 60.1292 116.053)" stroke="#ED1C24"/>
<rect x="1.19209e-07" y="0.593822" width="66.5051" height="66.5051" transform="matrix(-0.804597 0.593822 0.804597 0.593822 60.1292 125.652)" stroke="#ED1C24"/>
<rect x="1.19209e-07" y="0.593822" width="66.5051" height="66.5051" transform="matrix(-0.804597 0.593822 0.804597 0.593822 60.1192 135.258)" stroke="#ED1C24"/>
<rect x="1.19209e-07" y="0.593822" width="66.5051" height="66.5051" transform="matrix(-0.804597 0.593822 0.804597 0.593822 60.1192 144.856)" stroke="#ED1C24"/>
<rect x="1.19209e-07" y="0.593822" width="66.5051" height="66.5051" transform="matrix(-0.804597 0.593822 0.804597 0.593822 59.5827 78.54)" fill="white" stroke="#ED1C24"/>
<rect x="1.19209e-07" y="0.593822" width="66.5051" height="66.5051" transform="matrix(-0.804597 0.593822 0.804597 0.593822 166.394 116.033)" stroke="#ED1C24"/>
<rect x="1.19209e-07" y="0.593822" width="66.5051" height="66.5051" transform="matrix(-0.804597 0.593822 0.804597 0.593822 167.117 124.857)" stroke="#ED1C24"/>
<rect x="1.19209e-07" y="0.593822" width="66.5051" height="66.5051" transform="matrix(-0.804597 0.593822 0.804597 0.593822 167.117 134.455)" stroke="#ED1C24"/>
<rect x="1.19209e-07" y="0.593822" width="66.5051" height="66.5051" transform="matrix(-0.804597 0.593822 0.804597 0.593822 167.117 144.056)" stroke="#ED1C24"/>
<rect x="1.19209e-07" y="0.593822" width="66.5051" height="66.5051" transform="matrix(-0.804597 0.593822 0.804597 0.593822 167.117 153.655)" stroke="#ED1C24"/>
<rect x="1.19209e-07" y="0.593822" width="66.5051" height="66.5051" transform="matrix(-0.804597 0.593822 0.804597 0.593822 167.107 163.261)" stroke="#ED1C24"/>
<rect x="1.19209e-07" y="0.593822" width="66.5051" height="66.5051" transform="matrix(-0.804597 0.593822 0.804597 0.593822 167.107 172.859)" stroke="#ED1C24"/>
<rect x="1.19209e-07" y="0.593822" width="66.5051" height="66.5051" transform="matrix(-0.804597 0.593822 0.804597 0.593822 166.571 106.543)" fill="white" stroke="#ED1C24"/>
</g>
</svg>
