<svg width="529" height="245" viewBox="0 0 529 245" fill="none" xmlns="http://www.w3.org/2000/svg">
<path d="M121.355 152.96V237.528C121.355 240.841 124.042 243.528 127.355 243.528H228.892C232.206 243.528 234.892 240.841 234.892 237.528V173.33V107.099C234.892 103.785 237.578 101.099 240.892 101.099H310.241" stroke="#ED1C24" stroke-linecap="round" stroke-linejoin="round"/>
<path d="M283.503 157.086C283.503 152.944 280.145 149.586 276.003 149.586H202.642C201.011 149.586 199.414 149.117 198.043 148.234L179.049 136.012V222.09C179.049 226.232 182.407 229.59 186.549 229.59H276.003C280.145 229.59 283.503 226.232 283.503 222.09V157.086Z" fill="white" stroke="#ED1C24" stroke-linejoin="round"/>
<circle cx="211.798" cy="189.609" r="5.95923" fill="#ED1C24"/>
<circle cx="231.276" cy="189.609" r="5.95923" fill="#ED1C24"/>
<circle cx="250.755" cy="189.609" r="5.95923" fill="#ED1C24"/>
<path d="M442.269 32.1308L463.76 37.8179L463.76 6.90944L442.269 1.22231L421.155 7.7941L421.155 38.5742L442.269 32.1308Z" fill="white" stroke="#2D2D2D"/>
<path d="M442.646 13.7149L421.155 8.02779L421.155 45.7179L442.646 51.405L463.76 44.8332L463.76 7.27148L442.646 13.7149Z" fill="white" stroke="#2D2D2D"/>
<path d="M442.331 13.6553L442.331 50.7759" stroke="#2D2D2D"/>
<path d="M433.252 49.4746V71.4677C433.252 74.7814 435.938 77.4677 439.252 77.4677H479.364C482.677 77.4677 485.364 80.154 485.364 83.4677V101.106" stroke="#2D2D2D" stroke-linecap="round" stroke-linejoin="round"/>
<rect x="0.5" y="36.2744" width="164.878" height="120.6" rx="6.5" fill="white" stroke="#ED1C24"/>
<path d="M28.654 77.2197H135.822" stroke="#2D2D2D" stroke-linecap="round" stroke-linejoin="round"/>
<path d="M28.654 97.2959H135.822" stroke="#2D2D2D" stroke-linecap="round" stroke-linejoin="round"/>
<path d="M28.654 118.343H135.822" stroke="#2D2D2D" stroke-linecap="round" stroke-linejoin="round"/>
<path d="M139.891 50.0732L151.006 61.1887" stroke="#2D2D2D" stroke-linecap="round" stroke-linejoin="round"/>
<path d="M151.006 50.0732L139.891 61.1887" stroke="#2D2D2D" stroke-linecap="round" stroke-linejoin="round"/>
<rect x="455.894" y="101.099" width="72.3379" height="72.3379" rx="10" fill="#2D2D2D"/>
<path d="M481.298 127.605C481.191 119.944 484.48 114.6 493.371 114.708C502.263 114.816 505.94 120.036 506.021 125.835C506.125 133.291 501.431 138.954 491.769 138.115L491.769 151.168" stroke="white"/>
<circle cx="491.325" cy="158.425" r="1.141" fill="white"/>
<path d="M485.364 173.33V230.562C485.364 233.875 482.677 236.562 479.364 236.562H429.553C426.24 236.562 423.553 233.875 423.553 230.562V107.099C423.553 103.785 420.867 101.099 417.553 101.099H366.897" stroke="#2D2D2D" stroke-linecap="round" stroke-linejoin="round"/>
<path d="M295.599 124.299C295.599 128.441 298.957 131.799 303.099 131.799H379.155C380.786 131.799 382.383 132.269 383.754 133.151L403.448 145.824V56.6877C403.448 52.5456 400.09 49.1877 395.948 49.1877L303.099 49.1877C298.957 49.1877 295.599 52.5456 295.599 56.6877V124.299Z" fill="white" stroke="black" stroke-linejoin="round"/>
<circle cx="331.295" cy="91.7542" r="5.95923" fill="black"/>
<circle cx="350.773" cy="91.7542" r="5.95923" fill="black"/>
<circle cx="370.252" cy="91.7542" r="5.95923" fill="black"/>
</svg>
