<svg width="49" height="48" viewBox="0 0 49 48" fill="none" xmlns="http://www.w3.org/2000/svg">
<path d="M38.4351 4.68262H10.3619C7.1223 4.68262 4.49606 6.98112 4.49606 9.81647V32.624C4.49606 35.4593 7.1223 37.7578 10.3619 37.7578H33.0739C34.2225 37.7578 35.3331 38.1697 36.2039 38.9188L42.4081 44.2551C42.4515 44.2924 42.4977 44.3266 42.5488 44.3522C43.3185 44.7381 44.3009 44.2546 44.3009 43.459V9.81647C44.3009 6.98112 41.6747 4.68262 38.4351 4.68262Z" fill="white"/>
<path fill-rule="evenodd" clip-rule="evenodd" d="M3.53604 9.8165C3.53604 6.33476 6.71628 3.72266 10.3619 3.72266H38.435C42.0807 3.72266 45.2609 6.33476 45.2609 9.8165V43.459C45.2609 44.2929 44.7397 44.9068 44.1452 45.2062C43.5539 45.5038 42.7956 45.5498 42.1185 45.2104C41.971 45.1365 41.858 45.0483 41.7821 44.9829L35.5779 39.6466C34.8812 39.0474 33.9928 38.7179 33.0738 38.7179H10.3619C6.71627 38.7179 3.53604 36.1058 3.53604 32.624V9.8165ZM10.3619 5.64266C7.52828 5.64266 5.45604 7.62756 5.45604 9.8165V32.624C5.45604 34.813 7.52827 36.7979 10.3619 36.7979H33.0738C34.4522 36.7979 35.7849 37.2922 36.8299 38.191L43.0117 43.5081C43.0983 43.5393 43.2 43.5324 43.2818 43.4912C43.3155 43.4742 43.3334 43.4574 43.3409 43.4488V9.8165C43.3409 7.62756 41.2687 5.64266 38.435 5.64266H10.3619Z" fill="black"/>
<path fill-rule="evenodd" clip-rule="evenodd" d="M27.192 19.1156C28.0075 18.3605 28.4645 17.2177 28.4452 15.8161C28.4305 14.7489 28.0936 13.8098 27.4324 13.1361C26.7782 12.4696 25.7024 11.957 23.9997 11.9359C22.3082 11.915 21.3211 12.4147 20.7341 13.124C20.1185 13.8678 19.7969 15.0157 19.8182 16.5638L17.8989 16.5846C17.8744 14.8072 18.2315 13.1323 19.2542 11.8966C20.3054 10.6263 21.9163 9.98954 24.0178 10.0156C26.1081 10.0415 27.7131 10.6852 28.8 11.7926C29.8799 12.8928 30.3446 14.3452 30.3645 15.7954C30.3897 17.6303 29.7854 19.3348 28.4981 20.5269C27.4127 21.5319 25.9262 22.0949 24.1341 22.1304L24.1987 26.822L22.2794 26.8428L22.1864 20.0865L23.2422 20.1798C25.0966 20.3435 26.381 19.8665 27.192 19.1156Z" fill="#ED1C24"/>
<path d="M24.176 29.9645C24.176 30.789 23.5191 31.4574 22.7088 31.4574C21.8986 31.4574 21.2417 30.789 21.2417 29.9645C21.2417 29.1401 21.8986 28.4717 22.7088 28.4717C23.5191 28.4717 24.176 29.1401 24.176 29.9645Z" fill="#F41820"/>
</svg>
