<svg width="49" height="48" viewBox="0 0 49 48" fill="none" xmlns="http://www.w3.org/2000/svg">
<path d="M7.00679 28.4379C4.55578 25.9869 4.55578 22.0131 7.0068 19.5621L20.5459 6.02293C22.9969 3.57192 26.9708 3.57192 29.4218 6.02293L42.9609 19.5621C45.4119 22.0131 45.4119 25.9869 42.9609 28.4379L29.4218 41.9771C26.9708 44.4281 22.9969 44.4281 20.5459 41.9771L7.00679 28.4379Z" fill="white"/>
<path fill-rule="evenodd" clip-rule="evenodd" d="M6.21432 29.2304C3.32563 26.3417 3.32563 21.6583 6.21433 18.7696L19.7534 5.23044C22.6421 2.34175 27.3256 2.34175 30.2143 5.23044L43.7535 18.7696C46.6421 21.6583 46.6421 26.3417 43.7534 29.2304L30.2143 42.7696C27.3256 45.6583 22.6421 45.6583 19.7534 42.7696L6.21432 29.2304ZM7.79931 20.3545C5.78598 22.3679 5.78598 25.6321 7.79931 27.6455L21.3384 41.1846C23.3518 43.1979 26.616 43.1979 28.6293 41.1846L42.1685 27.6455C44.1818 25.6321 44.1818 22.3679 42.1685 20.3545L28.6293 6.81542C26.616 4.80209 23.3518 4.80209 21.3384 6.81542L7.79931 20.3545Z" fill="black"/>
<path fill-rule="evenodd" clip-rule="evenodd" d="M24.9839 10.7549C25.6029 10.7549 26.1046 11.2567 26.1046 11.8756V26.8354C26.1046 27.4544 25.6029 27.9562 24.9839 27.9562C24.3649 27.9562 23.8631 27.4544 23.8631 26.8354V11.8756C23.8631 11.2567 24.3649 10.7549 24.9839 10.7549Z" fill="#ED1C24"/>
<path d="M26.2112 33.3928C26.2112 34.0412 25.6856 34.5669 25.0372 34.5669C24.3888 34.5669 23.8631 34.0412 23.8631 33.3928C23.8631 32.7444 24.3888 32.2188 25.0372 32.2188C25.6856 32.2188 26.2112 32.7444 26.2112 33.3928Z" fill="#ED1C24"/>
</svg>
