<svg width="333" height="312" viewBox="0 0 333 312" fill="none" xmlns="http://www.w3.org/2000/svg">
<path d="M201 270.115C201 293.247 169.436 312 130.5 312C91.564 312 60 293.247 60 270.115C60 246.982 91.564 228.229 130.5 228.229C169.436 228.229 201 246.982 201 270.115Z" fill="#E5E5E5"/>
<path fill-rule="evenodd" clip-rule="evenodd" d="M179.839 298.876C192.439 291.39 200 281.19 200 270.115C200 259.04 192.439 248.839 179.839 241.354C167.261 233.881 149.819 229.226 130.5 229.226C111.181 229.226 93.7391 233.881 81.1608 241.354C68.5615 248.839 61 259.04 61 270.115C61 281.19 68.5615 291.39 81.1608 298.876C93.7391 306.349 111.181 311.003 130.5 311.003C149.819 311.003 167.261 306.349 179.839 298.876ZM130.5 312C169.436 312 201 293.247 201 270.115C201 246.982 169.436 228.229 130.5 228.229C91.564 228.229 60 246.982 60 270.115C60 293.247 91.564 312 130.5 312Z" fill="black"/>
<path d="M114.057 245.5C114.057 245.5 92.8098 223.303 120.849 214.392C126.253 212.642 145.174 208.815 146.76 201.017C146.76 201.017 152.875 218.626 135.56 224.051C117.785 229.587 111.231 238.823 114.057 245.5Z" fill="#ED1C24"/>
<path d="M113.128 213.693C113.128 213.693 107.741 197.604 126.32 199.569C128.132 199.819 141.389 201.92 145.883 198.601C145.883 198.601 143.637 205.793 131.964 207.271C120.327 208.759 115.733 208.662 113.128 213.693Z" fill="#ED1C24"/>
<path d="M144.34 237.423C130.407 245.856 125.489 252.061 127.724 262.399C127.724 262.399 98.5882 241.288 136.591 227.794C150.181 222.971 150.449 214.393 150.528 214.102C151.819 216.435 158.273 228.99 144.34 237.423Z" fill="#ED1C24"/>
<path fill-rule="evenodd" clip-rule="evenodd" d="M52.7697 142.123L51.456 142.883V144.395L52.3471 143.93V143.366L52.8148 143.096L52.7697 142.123ZM51.456 201.852L52.3471 201.387V201.85L52.7245 201.632L52.7697 202.604L51.456 203.364V201.852ZM55.397 201.085L55.3518 200.113L57.9791 198.594L58.0243 199.566L55.397 201.085ZM60.6516 198.047L60.6065 197.074L63.2338 195.555L63.2789 196.528L60.6516 198.047ZM65.9062 195.008L65.8611 194.036L68.4884 192.517L68.5335 193.489L65.9062 195.008ZM71.1608 191.97L71.1157 190.998L73.743 189.478L73.7881 190.451L71.1608 191.97ZM76.4154 188.932L76.3703 187.959L78.9976 186.44L79.0428 187.412L76.4154 188.932ZM81.6701 185.893L81.6249 184.921L84.2522 183.402L84.2974 184.374L81.6701 185.893ZM86.9247 182.855L86.8795 181.882L89.5068 180.363L89.552 181.336L86.9247 182.855ZM92.1793 179.816L92.1341 178.844L94.7614 177.325L94.8066 178.297L92.1793 179.816ZM97.4339 176.778L97.3888 175.806L100.016 174.286L100.061 175.259L97.4339 176.778ZM104.002 114.011L103.111 114.476V114.013L102.734 114.231L102.689 113.259L104.002 112.499V114.011ZM100.061 114.778L100.106 115.75L97.4791 117.269L97.4339 116.297L100.061 114.778ZM94.8066 117.816L94.8518 118.789L92.2245 120.308L92.1793 119.335L94.8066 117.816ZM89.552 120.855L89.5971 121.827L86.9698 123.346L86.9247 122.374L89.552 120.855ZM84.2974 123.893L84.3425 124.865L81.7152 126.385L81.6701 125.412L84.2974 123.893ZM79.0428 126.931L79.0879 127.904L76.4606 129.423L76.4155 128.451L79.0428 126.931ZM73.7882 129.97L73.8333 130.942L71.206 132.461L71.1608 131.489L73.7882 129.97ZM68.5335 133.008L68.5787 133.981L65.9514 135.5L65.9062 134.527L68.5335 133.008ZM63.2789 136.047L63.3241 137.019L60.6968 138.538L60.6516 137.566L63.2789 136.047ZM58.0243 139.085L58.0695 140.057L55.4422 141.577L55.397 140.604L58.0243 139.085ZM104.002 117.035L103.111 117.5V120.524L104.002 120.059V117.035ZM104.002 123.083L103.111 123.548V126.572L104.002 126.107V123.083ZM104.002 129.131L103.111 129.596V132.62L104.002 132.155V129.131ZM104.002 135.179L103.111 135.644V138.668L104.002 138.203V135.179ZM104.002 141.227L103.111 141.692V144.716L104.002 144.252V141.227ZM104.002 147.276L103.111 147.74V150.764L104.002 150.3V147.276ZM104.002 153.324L103.111 153.788V156.812L104.002 156.348V153.324ZM104.002 159.372L103.111 159.836V162.86L104.002 162.396V159.372ZM104.002 165.42L103.111 165.885V168.909L104.002 168.444V165.42ZM104.002 171.468L103.111 171.933V172.497L102.643 172.767L102.689 173.74L104.002 172.98V171.468ZM51.456 198.828L52.3471 198.363V195.339L51.456 195.804V198.828ZM51.456 192.78L52.3471 192.315V189.291L51.456 189.756V192.78ZM51.456 186.732L52.3471 186.267V183.243L51.456 183.708V186.732ZM51.456 180.684L52.3471 180.219V177.195L51.456 177.66V180.684ZM51.456 174.635L52.3471 174.171V171.147L51.456 171.611V174.635ZM51.456 168.587L52.3471 168.123V165.099L51.456 165.563V168.587ZM51.456 162.539L52.3471 162.075V159.051L51.456 159.515V162.539ZM51.456 156.491L52.3471 156.026V153.002L51.456 153.467V156.491ZM51.456 150.443L52.3471 149.978V146.954L51.456 147.419V150.443Z" fill="black"/>
<path fill-rule="evenodd" clip-rule="evenodd" d="M52.7697 82.4457L51.456 83.2053V84.7173L52.3471 84.2526V83.6886L52.8148 83.4181L52.7697 82.4457ZM51.456 142.174L52.3471 141.71V142.172L52.7245 141.954L52.7697 142.927L51.456 143.686V142.174ZM55.397 141.408L55.3518 140.435L57.9791 138.916L58.0243 139.888L55.397 141.408ZM60.6516 138.369L60.6065 137.397L63.2338 135.877L63.2789 136.85L60.6516 138.369ZM65.9062 135.331L65.8611 134.358L68.4884 132.839L68.5335 133.812L65.9062 135.331ZM71.1608 132.292L71.1157 131.32L73.743 129.801L73.7881 130.773L71.1608 132.292ZM76.4154 129.254L76.3703 128.281L78.9976 126.762L79.0428 127.735L76.4154 129.254ZM81.6701 126.216L81.6249 125.243L84.2522 123.724L84.2974 124.696L81.6701 126.216ZM86.9247 123.177L86.8795 122.205L89.5068 120.685L89.552 121.658L86.9247 123.177ZM92.1793 120.139L92.1341 119.166L94.7614 117.647L94.8066 118.62L92.1793 120.139ZM97.4339 117.1L97.3888 116.128L100.016 114.609L100.061 115.581L97.4339 117.1ZM104.002 54.3334L103.111 54.798V54.3351L102.734 54.5534L102.689 53.5809L104.002 52.8213V54.3334ZM100.061 55.1001L100.106 56.0726L97.4791 57.5918L97.4339 56.6193L100.061 55.1001ZM94.8066 58.1385L94.8518 59.111L92.2245 60.6302L92.1793 59.6577L94.8066 58.1385ZM89.552 61.1769L89.5971 62.1494L86.9698 63.6686L86.9247 62.6961L89.552 61.1769ZM84.2974 64.2153L84.3425 65.1878L81.7152 66.707L81.6701 65.7345L84.2974 64.2153ZM79.0428 67.2537L79.0879 68.2262L76.4606 69.7453L76.4155 68.7729L79.0428 67.2537ZM73.7882 70.2921L73.8333 71.2645L71.206 72.7837L71.1608 71.8113L73.7882 70.2921ZM68.5335 73.3305L68.5787 74.3029L65.9514 75.8221L65.9062 74.8497L68.5335 73.3305ZM63.2789 76.3689L63.3241 77.3413L60.6968 78.8605L60.6516 77.8881L63.2789 76.3689ZM58.0243 79.4073L58.0695 80.3797L55.4422 81.8989L55.397 80.9265L58.0243 79.4073ZM104.002 57.3574L103.111 57.8221V60.8461L104.002 60.3815V57.3574ZM104.002 63.4055L103.111 63.8702V66.8942L104.002 66.4296V63.4055ZM104.002 69.4536L103.111 69.9183V72.9423L104.002 72.4777V69.4536ZM104.002 75.5017L103.111 75.9664V78.9904L104.002 78.5258V75.5017ZM104.002 81.5498L103.111 82.0145V85.0385L104.002 84.5739V81.5498ZM104.002 87.5979L103.111 88.0626V91.0866L104.002 90.622V87.5979ZM104.002 93.646L103.111 94.1107V97.1347L104.002 96.6701V93.646ZM104.002 99.6941L103.111 100.159V103.183L104.002 102.718V99.6941ZM104.002 105.742L103.111 106.207V109.231L104.002 108.766V105.742ZM104.002 111.79L103.111 112.255V112.819L102.643 113.09L102.689 114.062L104.002 113.302V111.79ZM51.456 139.15L52.3471 138.686V135.662L51.456 136.126V139.15ZM51.456 133.102L52.3471 132.637V129.613L51.456 130.078V133.102ZM51.456 127.054L52.3471 126.589V123.565L51.456 124.03V127.054ZM51.456 121.006L52.3471 120.541V117.517L51.456 117.982V121.006ZM51.456 114.958L52.3471 114.493V111.469L51.456 111.934V114.958ZM51.456 108.91L52.3471 108.445V105.421L51.456 105.886V108.91ZM51.456 102.862L52.3471 102.397V99.3729L51.456 99.8376V102.862ZM51.456 96.8135L52.3471 96.3489V93.3248L51.456 93.7895V96.8135ZM51.456 90.7654L52.3471 90.3007V87.2767L51.456 87.7413V90.7654Z" fill="black"/>
<path fill-rule="evenodd" clip-rule="evenodd" d="M1.31367 172.545L0 173.305V174.817L0.89108 174.352V173.788L1.35882 173.517L1.31367 172.545ZM0 232.274L0.89108 231.809V232.272L1.2685 232.054L1.31365 233.026L0 233.786V232.274ZM3.94096 231.507L3.89581 230.534L6.52312 229.015L6.56827 229.988L3.94096 231.507ZM9.19558 228.468L9.15042 227.496L11.7777 225.977L11.8229 226.949L9.19558 228.468ZM14.4502 225.43L14.405 224.458L17.0323 222.938L17.0775 223.911L14.4502 225.43ZM19.7048 222.392L19.6597 221.419L22.287 219.9L22.3321 220.872L19.7048 222.392ZM24.9594 219.353L24.9143 218.381L27.5416 216.862L27.5867 217.834L24.9594 219.353ZM30.214 216.315L30.1689 215.342L32.7962 213.823L32.8413 214.796L30.214 216.315ZM35.4687 213.276L35.4235 212.304L38.0508 210.785L38.096 211.757L35.4687 213.276ZM40.7233 210.238L40.6781 209.266L43.3054 207.746L43.3506 208.719L40.7233 210.238ZM45.9779 207.2L45.9327 206.227L48.56 204.708L48.6052 205.68L45.9779 207.2ZM52.5462 144.433L51.6551 144.897V144.434L51.2777 144.653L51.2325 143.68L52.5462 142.921V144.433ZM48.6052 145.199L48.6503 146.172L46.023 147.691L45.9779 146.719L48.6052 145.199ZM43.3506 148.238L43.3957 149.21L40.7684 150.729L40.7233 149.757L43.3506 148.238ZM38.096 151.276L38.1411 152.249L35.5138 153.768L35.4687 152.795L38.096 151.276ZM32.8413 154.315L32.8865 155.287L30.2592 156.806L30.214 155.834L32.8413 154.315ZM27.5867 157.353L27.6319 158.325L25.0046 159.845L24.9594 158.872L27.5867 157.353ZM22.3321 160.391L22.3773 161.364L19.75 162.883L19.7048 161.911L22.3321 160.391ZM17.0775 163.43L17.1227 164.402L14.4954 165.921L14.4502 164.949L17.0775 163.43ZM11.8229 166.468L11.868 167.441L9.24074 168.96L9.19559 167.987L11.8229 166.468ZM6.56828 169.507L6.61343 170.479L3.98613 171.998L3.94097 171.026L6.56828 169.507ZM52.5462 147.457L51.6551 147.921V150.945L52.5462 150.481V147.457ZM52.5462 153.505L51.6551 153.969V156.994L52.5462 156.529V153.505ZM52.5462 159.553L51.6551 160.018V163.042L52.5462 162.577V159.553ZM52.5462 165.601L51.6551 166.066V169.09L52.5462 168.625V165.601ZM52.5462 171.649L51.6551 172.114V175.138L52.5462 174.673V171.649ZM52.5462 177.697L51.6551 178.162V181.186L52.5462 180.721V177.697ZM52.5462 183.745L51.6551 184.21V187.234L52.5462 186.769V183.745ZM52.5462 189.793L51.6551 190.258V193.282L52.5462 192.817V189.793ZM52.5462 195.842L51.6551 196.306V199.33L52.5462 198.866V195.842ZM52.5462 201.89L51.6551 202.354V202.918L51.1873 203.189L51.2325 204.161L52.5462 203.402V201.89ZM0 229.25L0.89108 228.785V225.761L0 226.225V229.25ZM0 223.201L0.89108 222.737V219.713L0 220.177V223.201ZM0 217.153L0.89108 216.689V213.665L0 214.129V217.153ZM0 211.105L0.89108 210.641V207.617L0 208.081V211.105ZM0 205.057L0.89108 204.592V201.568L0 202.033V205.057ZM0 199.009L0.89108 198.544V195.52L0 195.985V199.009ZM0 192.961L0.89108 192.496V189.472L0 189.937V192.961ZM0 186.913L0.89108 186.448V183.424L0 183.889V186.913ZM0 180.865L0.89108 180.4V177.376L0 177.841V180.865Z" fill="black"/>
<path d="M211.094 105.316C211.094 99.442 215.204 92.4643 220.417 89.488L302.886 42.404C308.429 39.2397 313.053 41.8101 313.053 48.0551V143.362C313.053 149.236 308.943 156.214 303.73 159.19L221.261 206.274C215.719 209.438 211.094 206.868 211.094 200.623V105.316Z" fill="white"/>
<path fill-rule="evenodd" clip-rule="evenodd" d="M302.925 43.3803L220.456 90.4643C215.717 93.1701 211.98 99.5134 211.98 104.853V200.16C211.98 205.837 216.184 208.174 221.223 205.298L303.692 158.214C308.431 155.508 312.167 149.164 312.167 143.825V48.5177C312.167 42.8404 307.963 40.5037 302.925 43.3803ZM220.417 89.488C215.204 92.4643 211.094 99.442 211.094 105.316V200.623C211.094 206.868 215.719 209.438 221.261 206.274L303.73 159.19C308.943 156.214 313.053 149.236 313.053 143.362V48.0551C313.053 41.8101 308.429 39.2397 302.886 42.404L220.417 89.488Z" fill="black"/>
<path d="M231.041 112.278C231.041 106.404 235.151 99.4267 240.364 96.4503L322.833 49.3664C328.376 46.202 333 48.7725 333 55.0174V150.324C333 156.198 328.89 163.176 323.677 166.152L241.208 213.236C235.666 216.401 231.041 213.83 231.041 207.585V112.278Z" fill="white"/>
<path fill-rule="evenodd" clip-rule="evenodd" d="M322.871 50.3427L240.403 97.4267C235.664 100.132 231.927 106.476 231.927 111.816V207.123C231.927 212.8 236.131 215.137 241.17 212.26L323.638 165.176C328.378 162.47 332.114 156.127 332.114 150.787V55.48C332.114 49.8028 327.91 47.466 322.871 50.3427ZM240.364 96.4503C235.151 99.4267 231.041 106.404 231.041 112.278V207.585C231.041 213.83 235.666 216.401 241.208 213.236L323.677 166.152C328.89 163.176 333 156.198 333 150.324V55.0174C333 48.7725 328.376 46.202 322.833 49.3664L240.364 96.4503Z" fill="black"/>
<path d="M156 194.321C156 201.482 145.255 207.286 132 207.286C118.745 207.286 108 201.482 108 194.321C108 187.161 118.745 181.357 132 181.357C145.255 181.357 156 187.161 156 194.321Z" fill="white"/>
<path fill-rule="evenodd" clip-rule="evenodd" d="M148.494 202.612C152.704 200.338 155 197.362 155 194.321C155 191.281 152.704 188.305 148.494 186.031C144.324 183.778 138.494 182.354 132 182.354C125.506 182.354 119.676 183.778 115.506 186.031C111.296 188.305 109 191.281 109 194.321C109 197.362 111.296 200.338 115.506 202.612C119.676 204.865 125.506 206.289 132 206.289C138.494 206.289 144.324 204.865 148.494 202.612ZM132 207.286C145.255 207.286 156 201.482 156 194.321C156 187.161 145.255 181.357 132 181.357C118.745 181.357 108 187.161 108 194.321C108 201.482 118.745 207.286 132 207.286Z" fill="black"/>
<path fill-rule="evenodd" clip-rule="evenodd" d="M158.851 182.858H159.274V59.8201H102.328V182.858H102.751C102.473 183.633 102.328 184.43 102.328 185.243C102.328 192.873 115.076 199.058 130.801 199.058C146.526 199.058 159.274 192.873 159.274 185.243C159.274 184.43 159.129 183.633 158.851 182.858Z" fill="white"/>
<path fill-rule="evenodd" clip-rule="evenodd" d="M159.132 183.856C159.063 183.519 158.969 183.187 158.851 182.858H159.274V59.8201H102.328V182.858H102.751C102.633 183.187 102.539 183.519 102.47 183.856C102.376 184.312 102.328 184.775 102.328 185.243C102.328 192.873 115.076 199.058 130.801 199.058C146.526 199.058 159.274 192.873 159.274 185.243C159.274 184.775 159.226 184.312 159.132 183.856ZM103.328 181.861H104.17L103.692 183.194C103.451 183.867 103.328 184.55 103.328 185.243C103.328 188.462 106.048 191.662 111.105 194.115C116.094 196.536 123.056 198.061 130.801 198.061C138.546 198.061 145.508 196.536 150.497 194.115C155.554 191.662 158.274 188.462 158.274 185.243C158.274 184.55 158.151 183.867 157.91 183.194L157.432 181.861H158.274V60.8173H103.328V181.861Z" fill="black"/>
<path d="M159 60.1873C159 68.1736 146.24 74.6479 130.5 74.6479C114.76 74.6479 102 68.1736 102 60.1873C102 52.201 114.76 45.7267 130.5 45.7267C146.24 45.7267 159 52.201 159 60.1873Z" fill="white"/>
<path fill-rule="evenodd" clip-rule="evenodd" d="M150.199 69.5236C155.244 66.9639 158 63.6083 158 60.1873C158 56.7663 155.244 53.4107 150.199 50.851C145.209 48.3192 138.246 46.724 130.5 46.724C122.754 46.724 115.791 48.3192 110.801 50.851C105.756 53.4107 103 56.7663 103 60.1873C103 63.6083 105.756 66.9639 110.801 69.5236C115.791 72.0554 122.754 73.6506 130.5 73.6506C138.246 73.6506 145.209 72.0554 150.199 69.5236ZM130.5 74.6479C146.24 74.6479 159 68.1736 159 60.1873C159 52.201 146.24 45.7267 130.5 45.7267C114.76 45.7267 102 52.201 102 60.1873C102 68.1736 114.76 74.6479 130.5 74.6479Z" fill="black"/>
<path d="M128.902 15.893L109.275 46.6733C105.9 51.966 104.333 58.8838 109.092 62.9853C113.214 66.5383 120.218 69.5936 131.475 69.5936C143.737 69.5936 150.627 65.9684 154.208 62.0236C157.729 58.1447 156.11 52.4852 153.399 48.0053L134.002 15.9525C132.851 14.0509 130.097 14.0187 128.902 15.893Z" fill="white"/>
<path fill-rule="evenodd" clip-rule="evenodd" d="M133.574 16.2102C132.615 14.6255 130.32 14.5987 129.324 16.1606L109.697 46.9409C108.039 49.5414 106.843 52.5153 106.632 55.3134C106.422 58.0967 107.185 60.6827 109.419 62.608C113.431 66.066 120.31 69.095 131.475 69.095C143.638 69.095 150.376 65.5014 153.837 61.6889C155.477 59.8827 155.935 57.6552 155.644 55.3007C155.353 52.9347 154.306 50.4679 152.971 48.263L133.574 16.2102ZM128.48 15.6254C129.874 13.4388 133.087 13.4763 134.43 15.6948L153.827 47.7477C155.204 50.0226 156.322 52.6254 156.637 55.1789C156.953 57.7438 156.46 60.2856 154.578 62.3582C150.877 66.4354 143.835 70.0922 131.475 70.0922C120.126 70.0922 112.997 67.0105 108.765 63.3625C106.24 61.1864 105.407 58.2628 105.635 55.2386C105.862 52.2293 107.137 49.098 108.853 46.4057L128.48 15.6254Z" fill="black"/>
<path d="M83.7503 171.41L101.671 152.353C102.238 151.75 103.03 151.408 103.859 151.408L109.616 151.408C111.891 151.408 113.338 153.835 112.252 155.828L92.5858 191.918C92.2436 192.545 92.1381 193.275 92.2884 193.974L94.684 205.11C95.0847 206.972 93.6609 208.729 91.7507 208.729H91.1722H88.1804C87.1048 208.729 86.1114 208.155 85.577 207.224L80.5672 198.498C75.5458 189.751 76.8373 178.761 83.7503 171.41Z" fill="#C4C4C4"/>
<path fill-rule="evenodd" clip-rule="evenodd" d="M109.616 150.91L103.859 150.91C102.892 150.91 101.968 151.309 101.306 152.012L83.3856 171.069C76.3224 178.58 75.0028 189.809 80.1333 198.746L85.1431 207.472C85.7666 208.558 86.9255 209.228 88.1805 209.228H91.7507C93.9793 209.228 95.6403 207.178 95.1729 205.005L92.7773 193.869C92.6521 193.287 92.74 192.679 93.0251 192.156L112.691 156.067C113.958 153.741 112.27 150.91 109.616 150.91ZM103.859 151.907L109.616 151.907C111.512 151.907 112.718 153.929 111.812 155.591L92.1465 191.68C91.7473 192.412 91.6242 193.263 91.7996 194.078L94.1951 205.214C94.529 206.767 93.3426 208.231 91.7507 208.231H88.1805C87.2841 208.231 86.4563 207.752 86.0109 206.976L81.0011 198.25C76.0889 189.694 77.3523 178.943 84.115 171.751L102.035 152.695C102.508 152.192 103.168 151.907 103.859 151.907Z" fill="black"/>
<path d="M89.3025 172.21L108.238 152.266C110.102 150.302 113.416 151.618 113.416 154.323L113.416 171.482C113.416 172.254 113.117 172.996 112.581 173.553L98.6203 188.073C98.1157 188.597 97.8201 189.287 97.7885 190.014L97.0959 205.94C96.9716 208.797 93.2829 209.868 91.6398 207.524L87.1523 201.121C80.8974 192.197 81.7958 180.117 89.3025 172.21Z" fill="white"/>
<path fill-rule="evenodd" clip-rule="evenodd" d="M113.916 154.323C113.916 151.168 110.05 149.632 107.875 151.924L88.9394 171.867C81.2696 179.946 80.3517 192.289 86.7425 201.407L91.23 207.81C93.147 210.545 97.4505 209.295 97.5954 205.961L98.288 190.035C98.3143 189.43 98.5607 188.855 98.9812 188.418L112.942 173.898C113.567 173.248 113.916 172.383 113.916 171.482L113.916 154.323ZM108.601 152.609C110.155 150.972 112.916 152.069 112.916 154.323L112.916 171.482C112.916 172.125 112.667 172.744 112.22 173.208L98.2594 187.728C97.6708 188.34 97.3258 189.145 97.2889 189.992L96.5964 205.918C96.4928 208.299 93.4189 209.192 92.0496 207.238L87.5622 200.836C81.4432 192.105 82.3221 180.288 89.6655 172.553L108.601 152.609Z" fill="black"/>
<path d="M177.829 171.41L159.908 152.353C159.341 151.75 158.549 151.408 157.72 151.408L151.963 151.408C149.688 151.408 148.241 153.835 149.327 155.828L168.993 191.918C169.335 192.545 169.441 193.275 169.29 193.974L166.895 205.11C166.494 206.972 167.918 208.729 169.828 208.729H170.407H173.398C174.474 208.729 175.467 208.155 176.002 207.224L181.012 198.498C186.033 189.751 184.742 178.761 177.829 171.41Z" fill="#C4C4C4"/>
<path fill-rule="evenodd" clip-rule="evenodd" d="M151.963 150.91L157.72 150.91C158.687 150.91 159.611 151.309 160.273 152.012L178.193 171.069C185.257 178.58 186.576 189.809 181.446 198.746L176.436 207.472C175.812 208.558 174.653 209.228 173.398 209.228H169.828C167.6 209.228 165.939 207.178 166.406 205.005L168.802 193.869C168.927 193.287 168.839 192.679 168.554 192.156L148.888 156.067C147.621 153.741 149.309 150.91 151.963 150.91ZM157.72 151.907L151.963 151.907C150.067 151.907 148.861 153.929 149.767 155.591L169.432 191.68C169.832 192.412 169.955 193.263 169.779 194.078L167.384 205.214C167.05 206.767 168.236 208.231 169.828 208.231H173.398C174.295 208.231 175.123 207.752 175.568 206.976L180.578 198.25C185.49 189.694 184.227 178.943 177.464 171.751L159.544 152.695C159.071 152.192 158.411 151.907 157.72 151.907Z" fill="black"/>
<path d="M172.276 172.21L153.341 152.266C151.476 150.302 148.163 151.618 148.163 154.323L148.163 171.482C148.163 172.254 148.462 172.996 148.998 173.553L162.959 188.073C163.463 188.597 163.759 189.287 163.79 190.014L164.483 205.94C164.607 208.797 168.296 209.868 169.939 207.524L174.427 201.121C180.681 192.197 179.783 180.117 172.276 172.21Z" fill="white"/>
<path fill-rule="evenodd" clip-rule="evenodd" d="M147.663 154.323C147.663 151.168 151.529 149.632 153.704 151.924L172.639 171.867C180.309 179.946 181.227 192.289 174.836 201.407L170.349 207.81C168.432 210.545 164.128 209.295 163.983 205.961L163.291 190.035C163.265 189.43 163.018 188.855 162.598 188.418L148.637 173.898C148.012 173.248 147.663 172.383 147.663 171.482L147.663 154.323ZM152.978 152.609C151.424 150.972 148.663 152.069 148.663 154.323L148.663 171.482C148.663 172.125 148.912 172.744 149.358 173.208L163.319 187.728C163.908 188.34 164.253 189.145 164.29 189.992L164.983 205.918C165.086 208.299 168.16 209.192 169.529 207.238L174.017 200.836C180.136 192.105 179.257 180.288 171.913 172.553L152.978 152.609Z" fill="black"/>
<path fill-rule="evenodd" clip-rule="evenodd" d="M313.883 83.7357C314.159 83.7319 314.386 83.9521 314.39 84.2274C314.394 84.5652 314.398 84.9019 314.4 85.2376C314.401 85.513 314.179 85.7376 313.903 85.7392C313.627 85.7409 313.401 85.519 313.4 85.2436C313.398 84.9105 313.394 84.5763 313.39 84.2412C313.386 83.9658 313.607 83.7395 313.883 83.7357ZM313.901 86.7368C314.177 86.7394 314.399 86.9648 314.396 87.2402C314.39 87.9037 314.379 88.5633 314.362 89.2189C314.355 89.4942 314.126 89.7118 313.85 89.7048C313.574 89.6979 313.355 89.4692 313.362 89.1939C313.379 88.5435 313.39 87.8891 313.396 87.2307C313.399 86.9554 313.625 86.7342 313.901 86.7368ZM313.817 90.6979C314.093 90.7093 314.307 90.9415 314.296 91.2167C314.268 91.8862 314.235 92.5515 314.197 93.2125C314.181 93.4875 313.945 93.6975 313.669 93.6817C313.393 93.6658 313.183 93.4301 313.199 93.1552C313.236 92.4996 313.269 91.8397 313.297 91.1756C313.308 90.9004 313.541 90.6866 313.817 90.6979ZM313.605 94.649C313.88 94.6694 314.087 94.9086 314.067 95.1832C314.017 95.8549 313.961 96.5222 313.901 97.1851C313.876 97.4593 313.632 97.6613 313.357 97.6363C313.082 97.6113 312.88 97.3686 312.905 97.0944C312.965 96.4372 313.02 95.7755 313.069 95.1094C313.09 94.8348 313.33 94.6287 313.605 94.649ZM313.259 98.6176C313.533 98.6473 313.732 98.8934 313.702 99.1672C313.63 99.828 313.553 100.484 313.47 101.136C313.435 101.409 313.185 101.603 312.911 101.568C312.637 101.534 312.443 101.284 312.478 101.011C312.56 100.365 312.636 99.7145 312.708 99.0594C312.738 98.7856 312.984 98.5878 313.259 98.6176ZM312.777 102.56C313.05 102.6 313.239 102.853 313.2 103.125C313.104 103.783 313.004 104.437 312.898 105.086C312.853 105.358 312.596 105.542 312.324 105.498C312.051 105.453 311.866 105.197 311.911 104.925C312.016 104.282 312.116 103.635 312.21 102.982C312.25 102.71 312.503 102.521 312.777 102.56ZM312.155 106.475C312.426 106.525 312.607 106.784 312.557 107.055C312.437 107.714 312.311 108.368 312.18 109.016C312.126 109.286 311.862 109.461 311.592 109.407C311.321 109.353 311.146 109.09 311.2 108.82C311.33 108.177 311.454 107.529 311.573 106.877C311.623 106.606 311.883 106.426 312.155 106.475ZM311.39 110.36C311.66 110.42 311.83 110.686 311.77 110.955C311.625 111.612 311.474 112.264 311.317 112.911C311.253 113.179 310.983 113.344 310.714 113.279C310.446 113.215 310.281 112.945 310.345 112.678C310.5 112.037 310.65 111.391 310.794 110.74C310.853 110.471 311.12 110.301 311.39 110.36ZM310.475 114.228C310.742 114.298 310.902 114.57 310.832 114.837C310.662 115.485 310.487 116.129 310.306 116.767C310.231 117.032 309.955 117.186 309.689 117.111C309.423 117.036 309.269 116.76 309.344 116.495C309.523 115.864 309.696 115.227 309.865 114.585C309.935 114.318 310.208 114.159 310.475 114.228ZM309.41 118.059C309.674 118.139 309.823 118.417 309.743 118.681C309.549 119.318 309.349 119.951 309.144 120.577C309.058 120.839 308.776 120.982 308.514 120.897C308.251 120.812 308.108 120.53 308.193 120.268C308.396 119.648 308.594 119.022 308.786 118.391C308.867 118.127 309.146 117.979 309.41 118.059ZM308.195 121.84C308.455 121.931 308.593 122.215 308.502 122.475C308.283 123.102 308.059 123.723 307.83 124.339C307.733 124.597 307.446 124.729 307.187 124.633C306.928 124.537 306.796 124.25 306.892 123.992C307.119 123.383 307.341 122.768 307.558 122.147C307.649 121.887 307.934 121.75 308.195 121.84ZM306.828 125.567C307.085 125.669 307.211 125.958 307.109 126.214C306.864 126.834 306.613 127.448 306.358 128.055C306.251 128.309 305.958 128.429 305.704 128.323C305.449 128.216 305.329 127.924 305.436 127.67C305.688 127.068 305.936 126.461 306.179 125.848C306.281 125.592 306.571 125.466 306.828 125.567ZM305.309 129.234C305.562 129.346 305.676 129.641 305.564 129.892C305.292 130.503 305.016 131.107 304.734 131.706C304.617 131.955 304.319 132.062 304.069 131.945C303.819 131.828 303.712 131.532 303.829 131.282C304.107 130.69 304.381 130.092 304.65 129.488C304.762 129.236 305.057 129.123 305.309 129.234ZM303.639 132.835C303.887 132.957 303.988 133.256 303.866 133.503C303.568 134.103 303.266 134.696 302.959 135.283C302.832 135.528 302.53 135.622 302.285 135.495C302.04 135.368 301.945 135.067 302.073 134.823C302.376 134.241 302.675 133.654 302.97 133.061C303.092 132.814 303.392 132.713 303.639 132.835ZM301.82 136.363C302.062 136.495 302.15 136.798 302.018 137.04C301.695 137.627 301.367 138.208 301.035 138.783C300.897 139.021 300.592 139.103 300.352 138.966C300.113 138.828 300.031 138.524 300.169 138.285C300.497 137.716 300.821 137.142 301.141 136.56C301.274 136.319 301.577 136.23 301.82 136.363ZM299.852 139.811C300.088 139.954 300.164 140.26 300.021 140.496C299.673 141.07 299.321 141.637 298.964 142.198C298.816 142.43 298.507 142.499 298.274 142.352C298.041 142.204 297.972 141.896 298.12 141.663C298.472 141.109 298.821 140.548 299.165 139.98C299.308 139.744 299.616 139.669 299.852 139.811ZM297.739 143.174C297.969 143.326 298.032 143.636 297.879 143.865C297.507 144.424 297.13 144.976 296.75 145.521C296.593 145.748 296.281 145.803 296.054 145.646C295.828 145.489 295.772 145.178 295.929 144.952C296.305 144.413 296.678 143.866 297.046 143.314C297.199 143.084 297.509 143.022 297.739 143.174ZM295.485 146.445C295.708 146.607 295.757 146.919 295.595 147.142C295.199 147.684 294.8 148.22 294.397 148.749C294.23 148.968 293.916 149.011 293.696 148.844C293.476 148.677 293.434 148.364 293.601 148.145C294 147.622 294.395 147.092 294.786 146.555C294.949 146.332 295.261 146.283 295.485 146.445ZM293.093 149.618C293.309 149.79 293.346 150.103 293.174 150.319C292.756 150.844 292.334 151.363 291.909 151.874C291.733 152.086 291.418 152.115 291.205 151.939C290.992 151.764 290.963 151.449 291.139 151.237C291.559 150.732 291.977 150.219 292.391 149.699C292.562 149.483 292.877 149.447 293.093 149.618ZM290.569 152.689C290.778 152.869 290.8 153.184 290.62 153.392C290.18 153.899 289.737 154.399 289.292 154.891C289.107 155.096 288.79 155.112 288.585 154.928C288.38 154.743 288.364 154.428 288.549 154.223C288.99 153.736 289.428 153.242 289.864 152.74C290.044 152.531 290.36 152.509 290.569 152.689ZM287.917 155.651C288.118 155.84 288.128 156.155 287.938 156.356C287.478 156.844 287.015 157.324 286.55 157.797C286.356 157.993 286.04 157.996 285.843 157.803C285.646 157.61 285.643 157.295 285.836 157.098C286.296 156.63 286.754 156.155 287.21 155.672C287.399 155.472 287.716 155.462 287.917 155.651ZM285.143 158.5C285.336 158.697 285.332 159.013 285.135 159.205C284.655 159.673 284.173 160.133 283.69 160.585C283.488 160.773 283.172 160.763 282.983 160.562C282.794 160.361 282.804 160.045 283.006 159.857C283.484 159.41 283.961 158.955 284.436 158.492C284.633 158.3 284.95 158.303 285.143 158.5ZM282.252 161.232C282.436 161.436 282.42 161.752 282.214 161.936C281.716 162.382 281.217 162.82 280.717 163.251C280.508 163.43 280.193 163.407 280.012 163.199C279.832 162.99 279.855 162.675 280.064 162.495C280.559 162.07 281.053 161.636 281.546 161.194C281.751 161.01 282.067 161.027 282.252 161.232ZM279.25 163.841C279.426 164.053 279.396 164.367 279.183 164.543C278.668 164.968 278.151 165.384 277.635 165.793C277.418 165.964 277.104 165.927 276.932 165.712C276.761 165.496 276.797 165.182 277.014 165.011C277.525 164.607 278.036 164.195 278.546 163.774C278.759 163.599 279.074 163.628 279.25 163.841ZM276.144 166.322C276.311 166.541 276.268 166.854 276.048 167.02C275.512 167.425 274.977 167.822 274.443 168.209C274.219 168.371 273.907 168.321 273.744 168.099C273.582 167.876 273.632 167.564 273.855 167.402C274.384 167.019 274.913 166.627 275.443 166.226C275.663 166.059 275.977 166.102 276.144 166.322ZM272.939 168.669C273.097 168.895 273.041 169.206 272.814 169.363C272.26 169.748 271.706 170.123 271.154 170.488C270.924 170.64 270.613 170.578 270.461 170.348C270.308 170.119 270.371 169.81 270.601 169.657C271.147 169.296 271.695 168.925 272.244 168.544C272.47 168.387 272.782 168.443 272.939 168.669ZM269.636 170.882C269.784 171.114 269.715 171.422 269.481 171.57C268.91 171.931 268.341 172.281 267.775 172.622C267.539 172.764 267.231 172.688 267.089 172.453C266.946 172.217 267.022 171.91 267.259 171.768C267.819 171.431 268.381 171.084 268.946 170.727C269.18 170.58 269.488 170.649 269.636 170.882ZM266.232 172.955C266.37 173.194 266.287 173.499 266.047 173.636C265.464 173.97 264.884 174.293 264.308 174.605C264.065 174.737 263.761 174.647 263.63 174.405C263.498 174.163 263.587 173.861 263.83 173.729C264.399 173.42 264.973 173.101 265.55 172.771C265.789 172.634 266.095 172.716 266.232 172.955ZM262.749 174.87C262.876 175.115 262.779 175.415 262.533 175.541C261.929 175.851 261.33 176.149 260.737 176.435C260.488 176.555 260.189 176.451 260.069 176.204C259.949 175.956 260.053 175.657 260.301 175.537C260.887 175.255 261.479 174.96 262.076 174.654C262.322 174.528 262.623 174.625 262.749 174.87ZM259.175 176.621C259.289 176.872 259.178 177.167 258.926 177.281C258.31 177.56 257.702 177.825 257.102 178.077C256.847 178.184 256.554 178.066 256.447 177.812C256.339 177.558 256.459 177.266 256.713 177.159C257.305 176.91 257.905 176.648 258.514 176.373C258.765 176.259 259.061 176.37 259.175 176.621ZM255.52 178.187C255.62 178.443 255.492 178.732 255.235 178.832C254.594 179.08 253.965 179.313 253.349 179.53C253.088 179.622 252.803 179.486 252.711 179.226C252.619 178.967 252.755 178.682 253.016 178.59C253.622 178.376 254.241 178.147 254.872 177.903C255.13 177.803 255.42 177.93 255.52 178.187ZM251.769 179.541C251.852 179.803 251.706 180.083 251.443 180.166C251.125 180.266 250.81 180.362 250.5 180.453C250.235 180.531 249.957 180.38 249.879 180.116C249.801 179.852 249.952 179.575 250.217 179.497C250.521 179.407 250.83 179.313 251.142 179.215C251.406 179.132 251.686 179.278 251.769 179.541Z" fill="#C4C4C4"/>
<path fill-rule="evenodd" clip-rule="evenodd" d="M314.129 81.02C314.331 81.0082 314.521 81.1198 314.609 81.3023L317.487 87.2923C317.606 87.5406 317.501 87.8384 317.252 87.9574C317.003 88.0764 316.704 87.9715 316.585 87.7232L314.235 82.8316L311.17 91.7461C311.08 92.0066 310.796 92.1454 310.535 92.056C310.273 91.9667 310.134 91.6832 310.224 91.4227L313.685 81.3561C313.751 81.1646 313.926 81.0318 314.129 81.02Z" fill="#C4C4C4"/>
<path fill-rule="evenodd" clip-rule="evenodd" d="M284.704 100.669C284.83 100.914 284.733 101.215 284.488 101.34L247.221 120.412C246.976 120.538 246.674 120.441 246.548 120.196C246.422 119.951 246.519 119.65 246.765 119.525L284.031 100.453C284.277 100.327 284.578 100.424 284.704 100.669Z" fill="#C4C4C4"/>
<path fill-rule="evenodd" clip-rule="evenodd" d="M284.704 108.232C284.83 108.477 284.733 108.777 284.488 108.903L247.221 127.974C246.976 128.1 246.674 128.004 246.548 127.758C246.422 127.513 246.519 127.213 246.765 127.087L284.031 108.016C284.277 107.89 284.578 107.987 284.704 108.232Z" fill="#C4C4C4"/>
<path fill-rule="evenodd" clip-rule="evenodd" d="M284.704 115.928C284.83 116.173 284.733 116.474 284.488 116.6L247.221 135.671C246.976 135.797 246.674 135.7 246.548 135.455C246.422 135.21 246.519 134.91 246.765 134.784L284.031 115.712C284.277 115.587 284.578 115.683 284.704 115.928Z" fill="#C4C4C4"/>
<path fill-rule="evenodd" clip-rule="evenodd" d="M269.066 131.491C269.196 131.734 269.103 132.036 268.859 132.165L247.228 143.631C246.984 143.76 246.681 143.667 246.552 143.424C246.422 143.181 246.515 142.879 246.758 142.75L268.39 131.284C268.634 131.155 268.936 131.247 269.066 131.491Z" fill="#C4C4C4"/>
<path fill-rule="evenodd" clip-rule="evenodd" d="M131.5 117.531C138.956 117.531 145 111.503 145 104.068C145 96.632 138.956 90.6043 131.5 90.6043C124.044 90.6043 118 96.632 118 104.068C118 111.503 124.044 117.531 131.5 117.531ZM131.5 118.528C139.508 118.528 146 112.054 146 104.068C146 96.0813 139.508 89.6071 131.5 89.6071C123.492 89.6071 117 96.0813 117 104.068C117 112.054 123.492 118.528 131.5 118.528Z" fill="black"/>
<path fill-rule="evenodd" clip-rule="evenodd" d="M131 112.544C135.418 112.544 139 108.972 139 104.566C139 100.16 135.418 96.5876 131 96.5876C126.582 96.5876 123 100.16 123 104.566C123 108.972 126.582 112.544 131 112.544ZM131 113.541C135.971 113.541 140 109.523 140 104.566C140 99.6088 135.971 95.5903 131 95.5903C126.029 95.5903 122 99.6088 122 104.566C122 109.523 126.029 113.541 131 113.541Z" fill="black"/>
<path fill-rule="evenodd" clip-rule="evenodd" d="M152.979 248.985V267.147C152.979 269.858 154.45 272.356 156.823 273.678L212.204 304.518L211.717 305.389L156.335 274.549C153.646 273.051 151.979 270.219 151.979 267.147V248.985H152.979Z" fill="#ED1C24"/>
<path fill-rule="evenodd" clip-rule="evenodd" d="M104.774 248.985V267.533C104.774 270.243 103.303 272.742 100.93 274.063L45.5488 304.904L46.0364 305.774L101.418 274.934C104.107 273.436 105.774 270.605 105.774 267.533V248.985H104.774Z" fill="#ED1C24"/>
<path fill-rule="evenodd" clip-rule="evenodd" d="M115.911 258.766V278.695H114.911V258.766H115.911Z" fill="#ED1C24"/>
<path fill-rule="evenodd" clip-rule="evenodd" d="M129.044 268.749V288.678H128.044V268.749H129.044Z" fill="#ED1C24"/>
<path fill-rule="evenodd" clip-rule="evenodd" d="M142.016 258.766V278.695H141.016V258.766H142.016Z" fill="#ED1C24"/>
<path d="M120 143.959C120 142.582 121.119 141.466 122.5 141.466L138.5 141.467C139.881 141.468 141 142.584 141 143.961C141 145.338 139.88 146.454 138.5 146.454L122.5 146.452C121.119 146.452 120 145.336 120 143.959Z" fill="#C4C4C4"/>
<path d="M124 151.936C124 150.56 125.119 149.443 126.5 149.444L133.5 149.444C134.881 149.444 136 150.561 136 151.938C136 153.314 134.88 154.431 133.5 154.43L126.5 154.43C125.119 154.43 124 153.313 124 151.936Z" fill="#C4C4C4"/>
<path d="M128 158.917C128 157.54 129.119 156.424 130.5 156.424C131.881 156.424 133 157.541 133 158.917C133 160.294 131.88 161.41 130.5 161.41C129.119 161.41 128 160.294 128 158.917Z" fill="#C4C4C4"/>
</svg>
