<svg width="510" height="381" viewBox="0 0 510 381" fill="none" xmlns="http://www.w3.org/2000/svg">
<rect y="90.4091" width="509" height="290.591" rx="10" fill="#2D2D2D"/>
<path fill-rule="evenodd" clip-rule="evenodd" d="M129.671 333.228V333.232C125.273 333.351 121.735 336.909 121.648 341.314H121.645C121.557 336.868 117.953 333.285 113.499 333.23V333.226C117.896 333.107 121.435 329.549 121.522 325.144H121.525C121.612 329.59 125.217 333.173 129.671 333.228Z" fill="white"/>
<path fill-rule="evenodd" clip-rule="evenodd" d="M62.674 241.628V241.631C59.4022 241.719 56.7692 244.367 56.7047 247.644H56.7022C56.6371 244.337 53.9554 241.67 50.6414 241.629V241.626C53.9131 241.538 56.5462 238.89 56.6108 235.613H56.6132C56.6784 238.921 59.36 241.587 62.674 241.628Z" fill="white"/>
<path fill-rule="evenodd" clip-rule="evenodd" d="M106.537 247.644V247.647C103.265 247.735 100.632 250.383 100.567 253.66H100.565C100.5 250.352 97.8182 247.686 94.5041 247.645V247.642C97.7759 247.554 100.409 244.906 100.474 241.629H100.476C100.541 244.936 103.223 247.603 106.537 247.644Z" fill="white"/>
<path fill-rule="evenodd" clip-rule="evenodd" d="M229.898 142.387V142.39C226.626 142.479 223.993 145.126 223.929 148.403H223.926C223.861 145.096 221.179 142.429 217.865 142.388V142.386C221.137 142.297 223.77 139.649 223.835 136.372H223.837C223.902 139.68 226.584 142.346 229.898 142.387Z" fill="white"/>
<mask id="path-6-inside-1" fill="white">
<path fill-rule="evenodd" clip-rule="evenodd" d="M408.289 172.209V172.216C399.979 172.44 393.291 179.165 393.127 187.489H393.121C392.956 179.088 386.144 172.315 377.727 172.211V172.204C386.037 171.98 392.725 165.255 392.889 156.931H392.895C393.061 165.332 399.872 172.105 408.289 172.209Z"/>
</mask>
<path d="M408.289 172.216H409.289V173.189L408.316 173.215L408.289 172.216ZM408.289 172.209L408.302 171.209L409.289 171.221V172.209H408.289ZM393.127 187.489L394.127 187.509L394.108 188.489H393.127V187.489ZM393.121 187.489V188.489H392.141L392.121 187.509L393.121 187.489ZM377.727 172.211L377.715 173.211L376.727 173.199V172.211H377.727ZM377.727 172.204H376.727V171.231L377.7 171.205L377.727 172.204ZM392.889 156.931L391.889 156.911L391.908 155.931H392.889V156.931ZM392.895 156.931V155.931H393.875L393.895 156.911L392.895 156.931ZM407.289 172.216V172.209H409.289V172.216H407.289ZM408.316 173.215C400.54 173.426 394.281 179.719 394.127 187.509L392.128 187.47C392.302 178.611 399.419 171.455 408.262 171.216L408.316 173.215ZM393.121 186.489H393.127V188.489H393.121V186.489ZM392.121 187.509C391.966 179.647 385.592 173.309 377.715 173.211L377.739 171.211C386.697 171.322 393.945 178.529 394.121 187.47L392.121 187.509ZM378.727 172.204V172.211H376.727V172.204H378.727ZM377.7 171.205C385.477 170.994 391.736 164.701 391.889 156.911L393.889 156.95C393.714 165.809 386.597 172.965 377.754 173.204L377.7 171.205ZM392.895 157.931H392.889V155.931H392.895V157.931ZM393.895 156.911C394.05 164.773 400.424 171.111 408.302 171.209L408.277 173.209C399.319 173.098 392.071 165.891 391.895 156.95L393.895 156.911Z" fill="white" mask="url(#path-6-inside-1)"/>
<mask id="path-8-inside-2" fill="white">
<path fill-rule="evenodd" clip-rule="evenodd" d="M467.258 213.465V213.468C462.692 213.592 459.018 217.287 458.927 221.86H458.924C458.833 217.244 455.091 213.523 450.467 213.466V213.462C455.032 213.339 458.706 209.644 458.796 205.071H458.8C458.891 209.687 462.633 213.407 467.258 213.465Z"/>
</mask>
<path d="M467.258 213.468H468.258V214.442L467.285 214.468L467.258 213.468ZM467.258 213.465L467.27 212.465L468.258 212.477V213.465H467.258ZM458.927 221.86L459.927 221.88L459.908 222.86H458.927V221.86ZM458.924 221.86V222.86H457.944L457.924 221.88L458.924 221.86ZM450.467 213.466L450.454 214.466L449.467 214.454V213.466H450.467ZM450.467 213.462H449.467V212.489L450.44 212.462L450.467 213.462ZM458.796 205.071L457.797 205.051L457.816 204.071H458.796V205.071ZM458.8 205.071V204.071H459.78L459.8 205.051L458.8 205.071ZM466.258 213.468V213.465H468.258V213.468H466.258ZM467.285 214.468C463.252 214.577 460.007 217.841 459.927 221.88L457.928 221.84C458.028 216.732 462.131 212.607 467.23 212.469L467.285 214.468ZM458.924 220.86H458.927V222.86H458.924V220.86ZM457.924 221.88C457.844 217.803 454.539 214.516 450.454 214.466L450.479 212.466C455.644 212.53 459.822 216.685 459.924 221.84L457.924 221.88ZM451.467 213.462V213.466H449.467V213.462H451.467ZM450.44 212.462C454.472 212.353 457.717 209.09 457.797 205.051L459.796 205.091C459.696 210.198 455.592 214.324 450.494 214.462L450.44 212.462ZM458.8 206.071H458.796V204.071H458.8V206.071ZM459.8 205.051C459.88 209.128 463.185 212.414 467.27 212.465L467.245 214.465C462.081 214.401 457.902 210.246 457.8 205.091L459.8 205.051Z" fill="white" mask="url(#path-8-inside-2)"/>
<path fill-rule="evenodd" clip-rule="evenodd" d="M450.467 301.03V301.038C440.513 301.307 432.503 309.362 432.306 319.332H432.299C432.1 309.269 423.942 301.158 413.86 301.033V301.024C423.814 300.755 431.824 292.701 432.02 282.73H432.028C432.226 292.793 440.384 300.905 450.467 301.03Z" fill="white"/>
<mask id="mask0" style="mask-type:alpha" maskUnits="userSpaceOnUse" x="219" y="90" width="291" height="291">
<rect x="219" y="90.4091" width="291" height="290.591" rx="10" fill="#2D2D2D"/>
</mask>
<g mask="url(#mask0)">
<ellipse cx="399.5" cy="348.046" rx="134.5" ry="134.81" fill="#C4C4C4"/>
<mask id="mask1" style="mask-type:alpha" maskUnits="userSpaceOnUse" x="265" y="213" width="269" height="270">
<path d="M533.5 348.046C533.5 422.225 473.505 482.357 399.5 482.357C325.495 482.357 265.5 422.225 265.5 348.046C265.5 273.868 325.495 213.736 399.5 213.736C473.505 213.736 533.5 273.868 533.5 348.046Z" fill="white" stroke="black"/>
</mask>
<g mask="url(#mask1)">
<path d="M457.501 283.314C465.516 273.583 468.004 252.231 468.39 236.919C468.533 231.235 473.15 226.376 478.677 227.738C523.823 238.867 540.234 322.204 543.021 367.84C543.14 369.786 542.658 371.688 541.668 373.368L494.036 454.231C490.025 461.04 480.06 460.722 476.497 453.669C471.276 443.333 465.605 432.09 462.912 426.706C457.501 415.884 481.853 410.473 477.344 402.357C474.488 397.218 466.926 398.518 461.361 400.625C458.83 401.584 456.004 401.936 453.511 400.881C432.923 392.171 446.393 377.939 456.838 371.212C457.28 370.927 457.767 370.682 458.25 370.473C491.535 356.124 475.36 340.024 451.187 325.701C426.835 311.271 444.873 298.645 457.501 283.314Z" fill="#F8F8F8"/>
<path fill-rule="evenodd" clip-rule="evenodd" d="M471.858 230.05C470.096 231.709 468.958 234.216 468.89 236.931C468.697 244.605 467.976 253.801 466.297 262.306C464.621 270.793 461.976 278.666 457.887 283.631C455.972 285.956 453.92 288.234 451.918 290.455C450.62 291.896 449.344 293.312 448.141 294.702C445.058 298.263 442.424 301.682 440.934 305.047C439.452 308.394 439.117 311.653 440.581 314.943C442.057 318.259 445.394 321.687 451.442 325.271C457.497 328.858 463.067 332.567 467.494 336.341C471.913 340.109 475.236 343.978 476.733 347.899C478.244 351.86 477.88 355.845 474.989 359.736C472.125 363.591 466.8 367.331 458.448 370.932C457.983 371.132 457.522 371.366 457.109 371.632C454.521 373.298 451.75 375.427 449.37 377.813C446.986 380.204 445.019 382.828 444.004 385.481C442.994 388.121 442.932 390.768 444.314 393.276C445.708 395.803 448.612 398.266 453.706 400.421C456.035 401.407 458.717 401.093 461.184 400.159C463.994 399.094 467.344 398.219 470.378 398.275C473.417 398.33 476.233 399.329 477.781 402.114C478.403 403.234 478.536 404.333 478.283 405.404C478.034 406.458 477.419 407.449 476.609 408.389C475.209 410.016 473.123 411.605 471.024 413.203C470.714 413.439 470.403 413.676 470.094 413.913C467.663 415.779 465.333 417.678 463.933 419.756C463.239 420.787 462.788 421.843 462.66 422.943C462.533 424.038 462.723 425.209 463.36 426.483C466.051 431.866 471.722 443.108 476.944 453.444C480.328 460.144 489.795 460.447 493.605 453.977L541.237 373.115C542.179 371.516 542.635 369.712 542.522 367.87C541.13 345.083 536.337 312.89 526.263 285.018C521.227 271.083 514.878 258.249 506.992 248.215C499.106 238.182 489.704 230.971 478.557 228.223C475.978 227.587 473.612 228.397 471.858 230.05ZM471.171 229.323C473.143 227.466 475.849 226.527 478.797 227.254C490.224 230.07 499.802 237.45 507.778 247.598C515.753 257.745 522.146 270.685 527.204 284.679C537.319 312.667 542.125 344.96 543.521 367.809C543.646 369.859 543.137 371.859 542.099 373.622L494.467 454.484C490.256 461.633 479.792 461.3 476.051 453.893C470.83 443.558 465.158 432.314 462.465 426.929C461.749 425.498 461.516 424.133 461.667 422.828C461.818 421.529 462.346 420.324 463.104 419.199C464.607 416.965 467.069 414.975 469.485 413.121C469.8 412.88 470.113 412.641 470.424 412.404C472.536 410.795 474.525 409.279 475.851 407.738C476.606 406.861 477.112 406.012 477.31 405.175C477.504 404.354 477.412 403.509 476.906 402.599C475.599 400.245 473.206 399.325 470.359 399.273C467.507 399.221 464.293 400.049 461.539 401.092C458.942 402.075 455.973 402.465 453.316 401.341C448.116 399.141 444.983 396.559 443.438 393.758C441.883 390.937 441.98 387.973 443.07 385.125C444.154 382.291 446.226 379.551 448.662 377.109C451.102 374.662 453.931 372.49 456.567 370.792C457.038 370.489 457.551 370.231 458.052 370.015C466.342 366.441 471.477 362.787 474.186 359.141C476.869 355.529 477.191 351.904 475.798 348.255C474.39 344.567 471.217 340.829 466.845 337.101C462.48 333.379 456.964 329.704 450.932 326.13C444.804 322.499 441.264 318.938 439.667 315.349C438.059 311.734 438.457 308.173 440.019 304.644C441.574 301.132 444.295 297.618 447.384 294.049C448.617 292.625 449.904 291.198 451.204 289.754C453.189 287.552 455.207 285.313 457.115 282.997C461.04 278.231 463.647 270.563 465.316 262.113C466.981 253.681 467.698 244.545 467.89 236.906C467.965 233.937 469.207 231.173 471.171 229.323Z" fill="#2D2D2D"/>
<path d="M388.94 253.315C407.896 250.812 411.062 232.828 409.752 219.594C409.378 215.819 406.448 212.884 402.727 212.123C338.989 199.098 296.787 231.558 283.371 249.999C243.968 295.002 253.641 348.429 265.226 374.194C266.729 377.537 270.168 379.651 273.803 379.141C286.617 377.344 286.331 369.517 283.954 364.62C283.598 363.887 283.244 363.131 283.012 362.35C276.235 339.52 281.204 337.818 294.669 335.013C308.364 332.16 316.353 369.247 328.336 370.959C335.925 372.042 341.533 375.343 344.541 377.804C345.815 378.846 346.534 380.364 347.028 381.933C350.162 391.882 357.311 398.689 361.891 401.794C363.054 402.582 364.462 402.982 365.865 403.054C398.161 404.705 377.302 380.213 372.275 359.547C367.139 338.436 388.252 323.602 393.959 317.326C399.665 311.049 393.959 292.221 399.665 283.662C405.371 275.104 401.377 268.828 393.959 265.975C389.705 264.339 385.588 268.859 382.826 273.442C381.003 276.468 378.118 278.848 374.616 279.342C363.076 280.968 345.188 283.277 336.325 283.662C323.2 284.233 323.2 270.539 328.336 260.269C333.472 249.999 339.178 259.128 357.438 265.975C366.885 269.517 373.023 265.933 376.592 261.209C379.591 257.24 384.004 253.966 388.94 253.315Z" fill="#F8F8F8"/>
<path fill-rule="evenodd" clip-rule="evenodd" d="M402.626 212.612C339.111 199.633 297.096 231.983 283.775 250.293L283.762 250.311L283.747 250.328C244.521 295.128 254.142 348.324 265.682 373.989C267.103 377.151 270.341 379.122 273.733 378.646C280.049 377.76 282.982 375.414 284.118 372.841C285.267 370.238 284.661 367.221 283.504 364.837C283.149 364.105 282.777 363.316 282.533 362.492C280.835 356.772 279.863 352.347 279.582 348.882C279.301 345.417 279.706 342.861 280.816 340.924C281.93 338.978 283.713 337.729 286.026 336.794C288.328 335.864 291.208 335.224 294.567 334.524C298.253 333.756 301.488 335.702 304.389 338.847C307.296 341.997 309.978 346.468 312.579 351.027C313.009 351.781 313.436 352.537 313.863 353.291C316.028 357.119 318.156 360.882 320.352 363.927C321.664 365.747 322.985 367.288 324.333 368.424C325.681 369.559 327.032 370.268 328.407 370.464C336.1 371.563 341.791 374.909 344.858 377.418C346.244 378.552 347 380.18 347.505 381.783C350.596 391.593 357.654 398.318 362.172 401.381C363.245 402.109 364.561 402.487 365.891 402.555C373.944 402.967 378.506 401.731 380.853 399.497C383.165 397.296 383.47 393.976 382.577 389.773C381.691 385.603 379.662 380.735 377.512 375.578L377.474 375.487C375.319 370.319 373.057 364.876 371.789 359.665C369.171 348.906 373.255 339.767 378.651 332.574C381.349 328.977 384.384 325.853 387.094 323.242C388.088 322.285 389.031 321.402 389.898 320.591C391.412 319.174 392.69 317.978 393.589 316.99C394.909 315.537 395.606 313.311 395.959 310.558C396.311 307.814 396.312 304.639 396.312 301.35V301.333C396.312 298.064 396.312 294.688 396.672 291.593C397.032 288.495 397.758 285.622 399.249 283.386C402.04 279.199 402.403 275.665 401.27 272.866C400.128 270.045 397.414 267.839 393.779 266.441C391.884 265.712 389.978 266.326 388.142 267.769C386.304 269.213 384.622 271.431 383.255 273.7C381.377 276.816 378.376 279.316 374.686 279.836C363.152 281.461 345.238 283.775 336.347 284.161C332.978 284.308 330.392 283.54 328.511 282.087C326.632 280.635 325.512 278.54 324.994 276.136C323.963 271.35 325.291 265.24 327.889 260.046C329.194 257.435 330.596 255.931 332.333 255.389C334.056 254.851 335.966 255.308 338.162 256.244C339.756 256.923 341.572 257.889 343.654 258.995C344.444 259.415 345.272 259.855 346.141 260.308C349.315 261.961 353.075 263.806 357.614 265.507C362.248 267.245 366.026 267.22 369.063 266.218C372.105 265.213 374.454 263.21 376.193 260.908C379.244 256.87 383.766 253.494 388.874 252.82C398.169 251.593 403.561 246.589 406.492 240.269C409.438 233.917 409.905 226.212 409.254 219.643C408.904 216.109 406.157 213.334 402.626 212.612ZM282.979 249.687C296.506 231.112 338.887 198.568 402.827 211.634C406.739 212.434 409.852 215.529 410.25 219.545C410.91 226.21 410.449 234.114 407.399 240.688C404.336 247.294 398.666 252.534 389.005 253.81C384.243 254.438 379.938 257.61 376.992 261.509C375.162 263.931 372.657 266.082 369.376 267.166C366.09 268.251 362.076 268.247 357.262 266.442C352.671 264.721 348.87 262.856 345.678 261.193C344.784 260.727 343.941 260.279 343.143 259.855C341.08 258.759 339.321 257.824 337.769 257.162C335.614 256.244 333.993 255.917 332.631 256.342C331.283 256.763 330.045 257.968 328.783 260.492C326.245 265.569 325.005 271.44 325.972 275.926C326.452 278.158 327.472 280.022 329.123 281.297C330.774 282.572 333.109 283.302 336.303 283.164C345.137 282.779 363.001 280.474 374.546 278.847C377.86 278.381 380.629 276.12 382.398 273.185C383.792 270.871 385.549 268.537 387.524 266.984C389.5 265.43 391.78 264.602 394.138 265.509C397.922 266.964 400.914 269.322 402.197 272.492C403.489 275.684 402.996 279.567 400.081 283.939C398.719 285.982 398.018 288.672 397.665 291.708C397.312 294.741 397.312 298.063 397.312 301.35V301.372C397.312 304.636 397.312 307.872 396.951 310.685C396.591 313.495 395.861 315.976 394.329 317.661C393.405 318.677 392.075 319.922 390.535 321.364C389.674 322.17 388.747 323.037 387.788 323.961C385.094 326.557 382.103 329.638 379.451 333.173C374.147 340.244 370.242 349.077 372.761 359.429C374.006 364.551 376.236 369.919 378.397 375.104L378.463 375.261C380.591 380.366 382.65 385.304 383.555 389.566C384.468 393.862 384.247 397.647 381.543 400.22C378.876 402.759 373.935 403.966 365.84 403.552C364.363 403.477 362.862 403.056 361.61 402.207C356.968 399.06 349.729 392.17 346.551 382.083C346.068 380.547 345.386 379.141 344.224 378.19C341.275 375.777 335.749 372.522 328.265 371.453C326.644 371.221 325.124 370.396 323.688 369.187C322.252 367.978 320.876 366.364 319.54 364.51C317.309 361.416 315.148 357.594 312.984 353.767C312.559 353.017 312.135 352.266 311.71 351.521C309.103 346.951 306.472 342.578 303.654 339.524C300.831 336.464 297.932 334.843 294.771 335.502C291.397 336.205 288.606 336.829 286.401 337.72C284.208 338.606 282.647 339.736 281.684 341.42C280.715 343.112 280.306 345.438 280.579 348.801C280.852 352.164 281.801 356.512 283.491 362.208C283.71 362.945 284.048 363.668 284.404 364.402C285.624 366.916 286.35 370.261 285.033 373.244C283.702 376.258 280.37 378.724 273.872 379.635C269.995 380.179 266.355 377.924 264.769 374.398C253.141 348.537 243.417 294.889 282.979 249.687Z" fill="black"/>
</g>
</g>
<path d="M308.56 288.833C310.887 288.103 312.987 287.889 314.665 288.255L314.559 288.743C315.565 288.962 316.377 289.399 316.976 290.051C317.575 290.704 317.94 291.55 318.073 292.571L318.568 292.507C318.789 294.21 318.396 296.284 317.469 298.54L317.007 298.35C316.316 300.033 315.316 301.83 314.04 303.656L314.45 303.942C313.335 305.538 312.015 307.151 310.514 308.725L310.152 308.38C309.461 309.106 308.73 309.823 307.963 310.527C307.195 311.232 306.418 311.898 305.636 312.525L305.949 312.915C304.251 314.276 302.531 315.452 300.846 316.427L300.595 315.994C298.666 317.109 296.791 317.95 295.054 318.495L295.204 318.972C292.877 319.701 290.777 319.916 289.098 319.55L289.205 319.062C288.199 318.843 287.386 318.406 286.787 317.754C286.189 317.101 285.823 316.254 285.691 315.234L285.195 315.298C284.975 313.595 285.368 311.521 286.294 309.265L286.757 309.455C287.448 307.772 288.447 305.975 289.723 304.149L289.313 303.862C290.429 302.266 291.748 300.654 293.249 299.079L293.611 299.424C294.303 298.699 295.033 297.982 295.801 297.277C296.568 296.573 297.346 295.907 298.128 295.28L297.815 294.89C299.513 293.529 301.232 292.353 302.918 291.378L303.168 291.811C305.097 290.696 306.973 289.854 308.709 289.31L308.56 288.833Z" stroke="#C4C4C4" stroke-dasharray="7 7"/>
<path fill-rule="evenodd" clip-rule="evenodd" d="M335.366 238.632L334.495 239.121C333.999 238.239 333.411 237.423 332.728 236.679C332.046 235.935 331.283 235.28 330.446 234.711L331.008 233.884C331.908 234.496 332.729 235.202 333.465 236.004C334.201 236.806 334.834 237.684 335.366 238.632ZM325.045 231.394L324.828 232.37C322.943 231.952 320.862 231.774 318.613 231.835L318.587 230.836C320.903 230.773 323.067 230.956 325.045 231.394ZM312.129 231.563L312.315 232.544C310.33 232.921 308.262 233.442 306.127 234.106L305.83 233.152C307.998 232.478 310.103 231.947 312.129 231.563ZM299.713 235.364L300.092 236.288C298.175 237.074 296.221 237.961 294.241 238.945L293.797 238.05C295.797 237.056 297.773 236.16 299.713 235.364ZM288.064 241.127L288.563 241.993C286.742 243.042 284.907 244.168 283.066 245.368L282.521 244.531C284.376 243.322 286.227 242.186 288.064 241.127ZM277.168 248.219L277.755 249.027C276.042 250.271 274.329 251.577 272.624 252.943L271.999 252.163C273.717 250.788 275.442 249.472 277.168 248.219ZM267.017 256.342L267.676 257.093C266.872 257.799 266.071 258.518 265.273 259.251C264.475 259.983 263.689 260.72 262.917 261.46L262.225 260.739C263.003 259.993 263.794 259.252 264.597 258.514C265.4 257.777 266.207 257.053 267.017 256.342ZM257.634 265.345L258.358 266.034C256.851 267.616 255.403 269.21 254.017 270.81L253.262 270.156C254.658 268.544 256.117 266.938 257.634 265.345ZM249.129 275.173L249.916 275.789C248.563 277.52 247.284 279.251 246.082 280.976L245.262 280.405C246.475 278.664 247.765 276.918 249.129 275.173ZM241.706 285.851L242.559 286.371C241.409 288.26 240.359 290.13 239.411 291.973L238.522 291.516C239.481 289.651 240.544 287.759 241.706 285.851ZM235.795 297.42L236.72 297.797C235.876 299.867 235.179 301.883 234.634 303.829L233.672 303.559C234.228 301.573 234.938 299.522 235.795 297.42ZM232.395 309.93L233.388 310.042C233.135 312.277 233.134 314.365 233.389 316.279L232.399 316.411C232.131 314.404 232.134 312.233 232.395 309.93ZM234.369 322.566C234.902 323.514 235.535 324.392 236.271 325.194C237.007 325.996 237.828 326.702 238.727 327.313L239.289 326.487C238.452 325.918 237.69 325.262 237.007 324.518C236.324 323.774 235.736 322.959 235.241 322.076L234.369 322.566ZM244.691 329.803L244.907 328.828C246.793 329.246 248.873 329.424 251.122 329.363L251.149 330.362C248.832 330.424 246.669 330.242 244.691 329.803ZM257.606 329.635L257.42 328.653C259.406 328.277 261.474 327.755 263.609 327.092L263.905 328.046C261.738 328.72 259.633 329.251 257.606 329.635ZM270.022 325.834L269.643 324.91C271.56 324.123 273.514 323.237 275.494 322.253L275.939 323.148C273.938 324.142 271.963 325.038 270.022 325.834ZM281.671 320.071L281.172 319.205C282.993 318.155 284.828 317.029 286.669 315.829L287.215 316.666C285.359 317.876 283.509 319.012 281.671 320.071ZM292.568 312.979L291.98 312.171C293.694 310.926 295.406 309.621 297.112 308.255L297.736 309.035C296.019 310.41 294.294 311.726 292.568 312.979ZM302.718 304.855L302.059 304.105C302.863 303.399 303.665 302.679 304.463 301.947C305.261 301.215 306.046 300.478 306.818 299.737L307.51 300.458C306.732 301.204 305.942 301.946 305.138 302.683C304.335 303.42 303.528 304.145 302.718 304.855ZM312.101 295.853L311.377 295.164C312.884 293.582 314.332 291.988 315.719 290.387L316.474 291.041C315.077 292.654 313.619 294.26 312.101 295.853ZM320.606 286.024L319.819 285.409C321.172 283.678 322.451 281.947 323.653 280.222L324.473 280.793C323.261 282.533 321.971 284.279 320.606 286.024ZM328.03 275.346L327.176 274.827C328.326 272.938 329.377 271.068 330.325 269.225L331.213 269.682C330.254 271.547 329.191 273.438 328.03 275.346ZM333.941 263.777L333.015 263.4C333.859 261.33 334.556 259.315 335.101 257.369L336.063 257.638C335.507 259.624 334.798 261.676 333.941 263.777ZM337.341 251.268L336.348 251.156C336.6 248.92 336.601 246.833 336.346 244.918L337.337 244.786C337.604 246.794 337.601 248.965 337.341 251.268Z" fill="#C4C4C4"/>
<path fill-rule="evenodd" clip-rule="evenodd" d="M337.233 174.094L336.397 174.641C335.804 173.736 335.141 172.883 334.407 172.083C333.673 171.284 332.88 170.551 332.029 169.882L332.646 169.096C333.539 169.798 334.373 170.568 335.144 171.408C335.914 172.247 336.61 173.144 337.233 174.094ZM326.729 165.757L326.365 166.688C324.422 165.928 322.3 165.375 320.012 165.025L320.163 164.038C322.515 164.397 324.71 164.968 326.729 165.757ZM313.371 163.578L313.379 164.577C311.249 164.593 309.02 164.748 306.7 165.038L306.576 164.047C308.931 163.752 311.199 163.594 313.371 163.578ZM299.866 165.206L300.078 166.183C297.955 166.644 295.775 167.203 293.543 167.858L293.262 166.899C295.515 166.238 297.718 165.673 299.866 165.206ZM286.777 169.016L287.114 169.957C285.049 170.697 282.949 171.511 280.818 172.398L280.434 171.475C282.579 170.583 284.695 169.763 286.777 169.016ZM274.191 174.238L274.615 175.142C272.613 176.08 270.589 177.077 268.546 178.133L268.087 177.245C270.141 176.184 272.177 175.181 274.191 174.238ZM262.089 180.481C260.136 181.579 258.171 182.727 256.195 183.924L256.713 184.779C258.68 183.587 260.636 182.445 262.579 181.352L262.089 180.481ZM250.431 187.538L250.974 188.377C249.1 189.591 247.219 190.848 245.335 192.148L244.767 191.325C246.66 190.02 248.548 188.758 250.431 187.538ZM239.207 195.271L239.796 196.078C237.985 197.4 236.173 198.76 234.361 200.157L233.751 199.365C235.57 197.963 237.389 196.598 239.207 195.271ZM228.411 203.591L229.041 204.367C227.299 205.781 225.56 207.229 223.825 208.709L223.177 207.949C224.917 206.464 226.663 205.011 228.411 203.591ZM218.048 212.435L218.715 213.179C217.873 213.933 217.032 214.696 216.193 215.465C215.354 216.235 214.523 217.008 213.698 217.782L213.014 217.054C213.841 216.277 214.675 215.502 215.517 214.729C216.359 213.957 217.203 213.192 218.048 212.435ZM208.106 221.779L208.807 222.491C207.184 224.092 205.592 225.7 204.034 227.314L203.315 226.621C204.879 225.001 206.476 223.386 208.106 221.779ZM198.647 231.579L199.383 232.254C197.836 233.94 196.326 235.629 194.854 237.32L194.1 236.663C195.578 234.966 197.094 233.27 198.647 231.579ZM189.692 241.865L190.463 242.5C189.007 244.267 187.594 246.033 186.223 247.796L185.434 247.183C186.811 245.412 188.23 243.639 189.692 241.865ZM181.339 252.616L182.147 253.205C180.791 255.062 179.485 256.913 178.23 258.755L177.404 258.193C178.665 256.341 179.978 254.482 181.339 252.616ZM173.666 263.891L174.511 264.424C173.285 266.369 172.118 268.3 171.012 270.214L170.147 269.714C171.259 267.788 172.433 265.846 173.666 263.891ZM166.86 275.697L167.746 276.158C166.68 278.205 165.689 280.228 164.775 282.222L163.867 281.805C164.788 279.796 165.787 277.758 166.86 275.697ZM161.201 288.084L162.133 288.447C161.289 290.614 160.546 292.739 159.904 294.813L158.95 294.518C159.598 292.419 160.35 290.273 161.201 288.084ZM157.22 301.104L158.197 301.313C157.709 303.599 157.364 305.807 157.166 307.926L156.171 307.833C156.373 305.671 156.724 303.425 157.22 301.104ZM156.048 314.639L157.045 314.573C157.197 316.882 157.567 319.044 158.157 321.044L157.199 321.327C156.585 319.248 156.204 317.013 156.048 314.639ZM160.02 327.507C160.642 328.457 161.338 329.354 162.109 330.194C162.88 331.033 163.713 331.803 164.607 332.505L165.224 331.719C164.373 331.051 163.579 330.317 162.845 329.518C162.111 328.718 161.449 327.865 160.856 326.96L160.02 327.507ZM170.524 335.844L170.888 334.913C172.83 335.673 174.953 336.226 177.241 336.576L177.089 337.564C174.737 337.204 172.543 336.633 170.524 335.844ZM183.882 338.024C186.053 338.007 188.322 337.849 190.676 337.554L190.552 336.563C188.232 336.853 186.003 337.008 183.874 337.024L183.882 338.024ZM197.387 336.395L197.175 335.418C199.297 334.957 201.477 334.398 203.71 333.744L203.991 334.702C201.738 335.363 199.534 335.928 197.387 336.395ZM210.476 332.585L210.139 331.644C212.204 330.904 214.304 330.09 216.435 329.203L216.819 330.126C214.673 331.018 212.557 331.839 210.476 332.585ZM223.061 327.364L222.637 326.459C224.64 325.521 226.664 324.524 228.707 323.468L229.165 324.356C227.112 325.417 225.076 326.42 223.061 327.364ZM235.163 321.12L234.673 320.249C236.617 319.156 238.573 318.014 240.539 316.822L241.057 317.677C239.082 318.874 237.116 320.022 235.163 321.12ZM246.822 314.063L246.278 313.224C248.152 312.01 250.033 310.753 251.918 309.454L252.485 310.276C250.593 311.581 248.704 312.843 246.822 314.063ZM258.045 306.33L257.456 305.523C259.267 304.201 261.08 302.841 262.891 301.444L263.501 302.236C261.683 303.638 259.864 305.003 258.045 306.33ZM268.842 298.01L268.212 297.234C269.953 295.82 271.693 294.372 273.427 292.892L274.076 293.652C272.335 295.138 270.59 296.59 268.842 298.01ZM279.204 289.167L278.538 288.422C279.38 287.668 280.221 286.905 281.059 286.136C281.898 285.366 282.73 284.594 283.554 283.819L284.238 284.547C283.411 285.324 282.577 286.099 281.735 286.872C280.893 287.644 280.05 288.409 279.204 289.167ZM289.147 279.822L288.445 279.111C290.069 277.509 291.66 275.901 293.218 274.287L293.937 274.981C292.373 276.601 290.776 278.215 289.147 279.822ZM298.605 270.022L297.869 269.347C299.416 267.662 300.926 265.972 302.399 264.281L303.152 264.938C301.674 266.635 300.158 268.331 298.605 270.022ZM307.56 259.736L306.789 259.101C308.245 257.334 309.659 255.568 311.029 253.805L311.818 254.418C310.442 256.189 309.022 257.963 307.56 259.736ZM315.913 248.985L315.106 248.396C316.461 246.539 317.767 244.688 319.022 242.846L319.848 243.408C318.587 245.26 317.275 247.12 315.913 248.985ZM323.587 237.71L322.741 237.177C323.968 235.233 325.135 233.301 326.24 231.387L327.106 231.887C325.993 233.813 324.82 235.755 323.587 237.71ZM330.393 225.904L329.506 225.443C330.572 223.396 331.563 221.373 332.478 219.38L333.386 219.796C332.464 221.805 331.466 223.843 330.393 225.904ZM336.051 213.517L335.12 213.154C335.963 210.987 336.707 208.863 337.348 206.788L338.303 207.083C337.654 209.182 336.903 211.328 336.051 213.517ZM340.033 200.497L339.055 200.288C339.544 198.002 339.888 195.794 340.087 193.675L341.082 193.768C340.879 195.93 340.528 198.176 340.033 200.497ZM341.205 186.962L340.208 187.028C340.055 184.719 339.686 182.557 339.095 180.557L340.054 180.274C340.667 182.353 341.048 184.588 341.205 186.962Z" fill="#C4C4C4"/>
<path d="M316.639 317.521L187.738 177.159C187.517 176.918 187.316 176.66 187.138 176.386C184.368 172.118 177.843 173.154 176.535 178.07L174.37 186.203C173.69 188.755 174.509 191.472 176.487 193.226L316.639 317.521Z" fill="url(#paint0_linear)"/>
<path d="M173.347 196.226C173.347 196.226 147.242 194.306 159.836 172.674C162.243 168.484 171.992 155.269 168.532 149.432C168.532 149.432 182.463 157.082 174.643 170.391C166.595 184.034 167.744 193.615 173.347 196.226Z" fill="#ED1C24"/>
<path d="M154.564 176.636C154.564 176.636 141.961 169.531 154.807 160.175C156.093 159.3 165.659 153.066 166.596 148.404C166.596 148.404 169.294 154.234 162.774 161.829C156.284 169.408 153.329 171.967 154.564 176.636Z" fill="#ED1C24"/>
<path d="M187.833 173.842C183.866 187.125 184.314 193.855 191.637 199.12C191.637 199.12 161.178 202.387 177.434 172.171C183.25 161.367 178.512 155.788 178.395 155.559C180.544 156.298 191.799 160.559 187.833 173.842Z" fill="#ED1C24"/>
<path d="M100.074 175.522L166.208 110.46C168.94 107.773 167.756 103.139 164.071 102.093L72.4975 76.0982C68.7424 75.0322 65.2683 78.4912 66.3185 82.2503L91.7579 173.307C92.7814 176.971 97.3617 178.191 100.074 175.522Z" fill="white"/>
<path fill-rule="evenodd" clip-rule="evenodd" d="M164.208 101.612C168.261 102.763 169.564 107.86 166.559 110.816L100.425 175.878C97.4408 178.814 92.4025 177.472 91.2766 173.442L65.8373 82.3848C64.682 78.2498 68.5035 74.4449 72.6342 75.6175L164.208 101.612ZM165.858 110.104C168.316 107.685 167.251 103.515 163.934 102.574L72.3609 76.5787C68.9813 75.6194 65.8546 78.7324 66.7998 82.1157L92.2391 173.173C93.1603 176.47 97.2825 177.568 99.7239 175.166L165.858 110.104Z" fill="black"/>
<path d="M166.227 139.026C170.564 143.274 167.503 153.429 159.392 161.707C151.28 169.984 141.189 173.251 136.852 169.002C132.516 164.754 135.576 154.599 143.687 146.321C151.799 138.043 161.89 134.777 166.227 139.026Z" fill="white"/>
<path fill-rule="evenodd" clip-rule="evenodd" d="M166.521 148.567C167.718 144.595 167.297 141.473 165.528 139.739C163.758 138.006 160.628 137.649 156.681 138.927C152.784 140.188 148.367 142.973 144.401 147.021C140.435 151.068 137.74 155.54 136.559 159.461C135.362 163.433 135.782 166.555 137.552 168.288C139.321 170.022 142.451 170.379 146.398 169.101C150.295 167.84 154.712 165.055 158.678 161.007C162.644 156.96 165.339 152.488 166.521 148.567ZM159.392 161.707C167.503 153.429 170.564 143.274 166.227 139.026C161.89 134.777 151.799 138.043 143.687 146.321C135.576 154.599 132.516 164.754 136.852 169.002C141.189 173.251 151.28 169.984 159.392 161.707Z" fill="black"/>
<path fill-rule="evenodd" clip-rule="evenodd" d="M161.995 131.821L162.12 131.694L161.029 130.625C161.016 130.613 161.003 130.6 160.989 130.587C160.976 130.574 160.963 130.561 160.95 130.548L91.1957 62.2107L56.6576 97.4562L127.581 166.94L127.706 166.812C133.368 170.298 144.24 166.382 153.071 157.37C161.902 148.358 165.595 137.41 161.995 131.821Z" fill="white"/>
<path fill-rule="evenodd" clip-rule="evenodd" d="M161.029 130.625L162.12 131.694L161.995 131.821C165.595 137.41 161.902 148.358 153.071 157.37C144.24 166.382 133.368 170.298 127.706 166.812L127.581 166.94L56.6576 97.4562L91.1957 62.2107L160.95 130.548L160.989 130.587L161.029 130.625ZM91.2099 63.6237L58.0708 97.4415L127.639 165.597L128.231 165.961C130.679 167.469 134.446 167.465 138.855 165.84C143.224 164.23 148.028 161.089 152.357 156.671C156.687 152.253 159.729 147.386 161.25 142.986C162.785 138.545 162.712 134.78 161.155 132.363L160.78 131.781L160.324 131.334L160.29 131.301L160.256 131.268L160.25 131.262L91.2099 63.6237Z" fill="black"/>
<path d="M91.1935 62.1811C96.1215 67.009 92.4446 78.7517 82.9811 88.4091C73.5175 98.0665 61.8508 101.982 56.9229 97.1537C51.9949 92.3258 55.6717 80.5831 65.1353 70.9257C74.5989 61.2683 86.2655 57.3532 91.1935 62.1811Z" fill="white"/>
<path fill-rule="evenodd" clip-rule="evenodd" d="M91.5304 73.1855C92.9785 68.5608 92.5496 64.9086 90.4941 62.8949C88.4386 60.8811 84.778 60.5269 80.1833 62.0687C75.6462 63.5913 70.4939 66.8852 65.8491 71.6251C61.2044 76.365 58.0159 81.5827 56.586 86.1493C55.1379 90.774 55.5668 94.4262 57.6223 96.4399C59.6778 98.4537 63.3384 98.8079 67.9331 97.266C72.4702 95.7435 77.6225 92.4496 82.2672 87.7097C86.912 82.9698 90.1005 77.7521 91.5304 73.1855ZM82.9811 88.4091C92.4446 78.7517 96.1215 67.009 91.1935 62.1811C86.2655 57.3532 74.5989 61.2683 65.1353 70.9257C55.6717 80.5831 51.9949 92.3258 56.9229 97.1537C61.8508 101.982 73.5175 98.0665 82.9811 88.4091Z" fill="black"/>
<path d="M44.2477 53.544L51.0094 82.5243C52.4368 88.6423 56.389 94.6353 62.5966 93.6601C67.1127 92.9506 72.7693 90.3307 78.9934 83.9791C85.8728 76.9588 88.0387 70.8973 88.1059 66.3748C88.1838 61.1341 82.9542 58.2426 77.8535 57.0366L47.8582 49.9447C45.692 49.4325 43.742 51.3765 44.2477 53.544Z" fill="white"/>
<path fill-rule="evenodd" clip-rule="evenodd" d="M47.7431 50.431C45.9379 50.0042 44.3129 51.6241 44.7343 53.4304L51.496 82.4107C52.197 85.4155 53.5121 88.3568 55.3806 90.4164C57.2371 92.4628 59.618 93.6223 62.5192 93.1666C66.9073 92.4772 72.4706 89.9218 78.6366 83.6295C85.4526 76.6738 87.5415 70.7286 87.6063 66.3676C87.6423 63.9411 86.4589 62.0439 84.6118 60.5848C82.754 59.1173 80.2479 58.1162 77.7383 57.5229L47.7431 50.431ZM43.7611 53.6577C43.1711 51.1289 45.4461 48.861 47.9733 49.4586L77.9686 56.5505C80.5598 57.1631 83.2188 58.2108 85.2315 59.8007C87.255 61.3991 88.6474 63.5679 88.6055 66.3821C88.5359 71.0662 86.2929 77.2439 79.3503 84.3287C73.068 90.7397 67.3181 93.4241 62.674 94.1537C59.3676 94.6731 56.6686 93.3237 54.6403 91.0879C52.6239 88.8653 51.2491 85.7512 50.5227 82.638L43.7611 53.6577Z" fill="black"/>
<path d="M115.163 173.943L114.306 153.686C114.271 152.858 114.58 152.052 115.16 151.46L118.062 148.499C119.653 146.875 122.402 147.543 123.069 149.716L133.303 183.054C133.513 183.738 133.961 184.325 134.566 184.707L142.391 189.655C144.004 190.675 144.259 192.929 142.923 194.292L141.271 195.979C140.518 196.747 139.412 197.053 138.372 196.782L132.318 195.202C122.549 192.654 115.59 184.03 115.163 173.943Z" fill="#C4C4C4"/>
<path fill-rule="evenodd" clip-rule="evenodd" d="M117.705 148.15L114.803 151.111C114.126 151.801 113.766 152.741 113.806 153.707L114.664 173.965C115.1 184.27 122.211 193.082 132.192 195.686L138.245 197.265C139.459 197.582 140.749 197.224 141.627 196.328L143.28 194.642C144.837 193.052 144.541 190.424 142.658 189.233L134.833 184.285C134.329 183.966 133.955 183.478 133.78 182.907L123.547 149.57C122.768 147.035 119.561 146.255 117.705 148.15ZM115.517 151.81L118.419 148.849C119.745 147.495 122.035 148.052 122.591 149.863L132.825 183.201C133.07 183.999 133.593 184.683 134.299 185.13L142.123 190.077C143.466 190.926 143.681 192.805 142.566 193.943L140.914 195.629C140.287 196.269 139.365 196.524 138.498 196.298L132.444 194.719C122.888 192.226 116.079 183.789 115.662 173.922L114.805 153.664C114.776 152.975 115.033 152.303 115.517 151.81Z" fill="black"/>
<path d="M119.62 170.168L118.772 147.581C118.671 144.872 121.931 143.429 123.867 145.326L134.455 155.698C135.007 156.239 135.328 156.973 135.353 157.745L135.917 175.836C135.939 176.563 136.226 177.258 136.724 177.79L146.016 187.718C147.975 189.81 146.16 193.195 143.333 192.724L138.802 191.969C128.043 190.175 120.029 181.067 119.62 170.168Z" fill="white"/>
<path fill-rule="evenodd" clip-rule="evenodd" d="M124.217 144.968C121.958 142.755 118.154 144.439 118.273 147.599L119.121 170.187C119.538 181.323 127.727 190.629 138.72 192.461L143.251 193.216C146.549 193.766 148.666 189.817 146.381 187.376L137.089 177.448C136.674 177.005 136.435 176.426 136.416 175.819L135.852 157.729C135.824 156.828 135.448 155.972 134.804 155.341L124.217 144.968ZM119.272 147.561C119.187 145.304 121.904 144.102 123.517 145.682L134.105 156.055C134.565 156.505 134.833 157.117 134.853 157.761L135.417 175.851C135.444 176.7 135.778 177.51 136.359 178.131L145.651 188.059C147.283 189.803 145.771 192.623 143.415 192.23L138.884 191.475C128.359 189.721 120.519 180.811 120.119 170.149L119.272 147.561Z" fill="black"/>
<path d="M167.647 120.385L147.373 119.941C146.545 119.923 145.746 120.249 145.166 120.841L142.264 123.802C140.672 125.426 141.397 128.16 143.583 128.783L177.126 138.333C177.815 138.529 178.41 138.965 178.805 139.562L183.912 147.284C184.965 148.876 187.224 149.085 188.56 147.721L190.212 146.035C190.965 145.267 191.249 144.155 190.956 143.121L189.254 137.101C186.506 127.388 177.741 120.606 167.647 120.385Z" fill="#C4C4C4"/>
<path fill-rule="evenodd" clip-rule="evenodd" d="M141.907 123.452L144.809 120.491C145.485 119.801 146.418 119.421 147.384 119.442L167.658 119.886C177.971 120.111 186.927 127.04 189.734 136.965L191.437 142.985C191.778 144.191 191.447 145.489 190.569 146.385L188.917 148.071C187.359 149.66 184.725 149.418 183.495 147.559L178.389 139.838C178.059 139.34 177.563 138.977 176.989 138.814L143.446 129.263C140.895 128.537 140.05 125.347 141.907 123.452ZM145.522 121.19L142.621 124.152C141.294 125.505 141.898 127.784 143.72 128.302L177.263 137.853C178.067 138.081 178.761 138.59 179.222 139.287L184.329 147.008C185.205 148.333 187.088 148.509 188.203 147.372L189.855 145.685C190.483 145.045 190.719 144.119 190.475 143.257L188.773 137.237C186.085 127.735 177.51 121.101 167.635 120.885L147.362 120.441C146.672 120.426 146.006 120.697 145.522 121.19Z" fill="black"/>
<path d="M163.826 123.611L141.582 123.23C138.871 123.184 137.495 126.472 139.431 128.369L149.895 138.621C150.447 139.162 151.187 139.468 151.96 139.477L169.91 139.67C170.638 139.678 171.339 139.951 171.881 140.437L181.869 149.408C184.001 151.323 187.348 149.441 186.819 146.624L186.015 142.342C184.003 131.623 174.732 123.797 163.826 123.611Z" fill="white"/>
<path fill-rule="evenodd" clip-rule="evenodd" d="M139.08 128.726C136.822 126.513 138.428 122.677 141.59 122.731L163.834 123.111C174.978 123.302 184.45 131.298 186.506 142.25L187.31 146.531C187.927 149.818 184.022 152.014 181.534 149.78L171.546 140.809C171.095 140.403 170.511 140.176 169.904 140.17L151.954 139.976C151.052 139.966 150.189 139.609 149.544 138.977L139.08 128.726ZM141.572 123.73C139.314 123.691 138.167 126.432 139.78 128.012L150.244 138.264C150.704 138.714 151.321 138.97 151.965 138.977L169.915 139.17C170.765 139.18 171.582 139.498 172.214 140.065L182.202 149.036C183.979 150.632 186.768 149.063 186.328 146.716L185.524 142.434C183.555 131.948 174.486 124.293 163.817 124.11L141.572 123.73Z" fill="black"/>
<path d="M109.5 104.889C109.5 110.954 104.576 115.873 98.5 115.873C92.4242 115.873 87.5 110.954 87.5 104.889C87.5 98.8232 92.4242 93.9049 98.5 93.9049C104.576 93.9049 109.5 98.8232 109.5 104.889Z" fill="white" stroke="black"/>
<path d="M105.5 104.889C105.5 108.748 102.367 111.878 98.5 111.878C94.6333 111.878 91.5 108.748 91.5 104.889C91.5 101.029 94.6333 97.8993 98.5 97.8993C102.367 97.8993 105.5 101.029 105.5 104.889Z" fill="white" stroke="black"/>
<rect width="20.9852" height="4.99648" rx="2.49824" transform="matrix(0.70722 -0.706994 0.707079 0.707134 115 134.347)" fill="#C4C4C4"/>
<rect width="11.9916" height="4.99648" rx="2.49824" transform="matrix(0.70722 -0.706994 0.707079 0.707134 124 136.344)" fill="#C4C4C4"/>
<rect width="4.99648" height="4.99648" rx="2.49824" transform="matrix(0.70722 -0.706994 0.707079 0.707134 131 139.34)" fill="#C4C4C4"/>
<defs>
<linearGradient id="paint0_linear" x1="352.931" y1="282.119" x2="113.575" y2="70.5287" gradientUnits="userSpaceOnUse">
<stop stop-color="#ED1C24"/>
<stop offset="1" stop-color="#C4C4C4" stop-opacity="0"/>
</linearGradient>
</defs>
</svg>
