<svg width="518" height="377" viewBox="0 0 518 377" fill="none" xmlns="http://www.w3.org/2000/svg">
<path d="M8.98811 95.8288C8.98811 90.3158 13.4592 85.8467 18.9745 85.8467H507.307C512.823 85.8467 517.294 90.3158 517.294 95.8288V366.344C517.294 371.857 512.823 376.326 507.307 376.326H18.9745C13.4591 376.326 8.98811 371.857 8.98811 366.344V95.8288Z" fill="#2D2D2D"/>
<path fill-rule="evenodd" clip-rule="evenodd" d="M358.771 137.599V137.603C354.109 137.729 350.357 141.501 350.265 146.169H350.262C350.169 141.457 346.348 137.659 341.626 137.6V137.596C346.288 137.47 350.039 133.698 350.131 129.03H350.135C350.228 133.742 354.049 137.54 358.771 137.599Z" fill="#ED1C24"/>
<path fill-rule="evenodd" clip-rule="evenodd" d="M78.7875 234.79V234.794C74.1257 234.92 70.3739 238.692 70.2819 243.361H70.2785C70.1856 238.649 66.3645 234.85 61.6425 234.792V234.788C66.3043 234.662 70.0561 230.89 70.1481 226.221H70.1516C70.2445 230.933 74.0655 234.732 78.7875 234.79Z" fill="white"/>
<path fill-rule="evenodd" clip-rule="evenodd" d="M145.214 296.221V296.224C141.803 296.316 139.057 299.076 138.99 302.493H138.987C138.919 299.045 136.123 296.265 132.667 296.222V296.219C136.079 296.127 138.825 293.367 138.892 289.95H138.895C138.963 293.398 141.759 296.178 145.214 296.221Z" fill="white"/>
<path fill-rule="evenodd" clip-rule="evenodd" d="M429.571 152.665V152.668C426.159 152.76 423.414 155.52 423.346 158.937H423.344C423.276 155.489 420.479 152.709 417.024 152.666V152.663C420.435 152.571 423.181 149.811 423.248 146.394H423.251C423.319 149.842 426.115 152.622 429.571 152.665Z" fill="white"/>
<mask id="mask0" style="mask-type:alpha" maskUnits="userSpaceOnUse" x="121" y="150" width="397" height="227">
<path d="M121.834 180.677C121.834 164.138 135.247 150.73 151.793 150.73H487.335C503.88 150.73 517.294 164.138 517.294 180.677V346.38C517.294 362.919 503.88 376.326 487.335 376.326H151.793C135.247 376.326 121.834 362.919 121.834 346.38V180.677Z" fill="#2D2D2D"/>
</mask>
<g mask="url(#mask0)">
<path d="M422.774 272.837C425.388 304.705 401.662 332.658 369.78 335.271C337.899 337.885 309.934 314.169 307.32 282.301C304.706 250.432 328.432 222.48 360.314 219.866C392.196 217.253 420.16 240.968 422.774 272.837Z" fill="#F7F7F7"/>
<path fill-rule="evenodd" clip-rule="evenodd" d="M483.338 248.49C488.486 242.344 490.299 237.137 488.915 233.104C487.531 229.071 482.904 226.073 475.065 224.38C467.296 222.701 456.709 222.383 444.018 223.404C418.652 225.446 385.115 232.817 349.434 245.052C313.754 257.287 282.751 272.047 261.472 286C250.827 292.981 242.664 299.729 237.561 305.821C232.413 311.968 230.6 317.174 231.984 321.207C233.368 325.24 237.996 328.238 245.834 329.932C253.603 331.611 264.19 331.929 276.881 330.907C302.247 328.866 335.785 321.494 371.465 309.259C407.146 297.024 438.148 282.264 459.427 268.311C470.073 261.33 478.236 254.583 483.338 248.49ZM371.789 310.203C443.261 285.696 496.122 251.032 489.86 232.78C483.597 214.529 420.581 219.6 349.11 244.108C277.639 268.616 224.777 303.28 231.04 321.531C237.302 339.783 300.318 334.711 371.789 310.203Z" fill="white"/>
<path fill-rule="evenodd" clip-rule="evenodd" d="M544.195 217.052L543.226 217.291C543.154 216.999 543.069 216.71 542.971 216.424C542.873 216.139 542.763 215.859 542.64 215.584L543.552 215.177C543.687 215.48 543.808 215.787 543.915 216.101C544.023 216.414 544.116 216.731 544.195 217.052ZM542.592 213.445L541.762 214.001C541.429 213.504 541.048 213.023 540.619 212.557L541.353 211.881C541.815 212.382 542.228 212.903 542.592 213.445ZM539.922 210.522L539.281 211.287C538.82 210.901 538.322 210.528 537.785 210.169L538.342 209.34C538.906 209.718 539.432 210.112 539.922 210.522ZM536.632 208.303L536.151 209.178C535.611 208.881 535.041 208.595 534.442 208.32L534.858 207.413C535.478 207.697 536.069 207.994 536.632 208.303ZM533.04 206.645L532.678 207.576C532.084 207.345 531.466 207.124 530.825 206.912L531.138 205.964C531.794 206.181 532.429 206.408 533.04 206.645ZM529.272 205.393L528.999 206.353C528.377 206.176 527.736 206.008 527.077 205.848L527.313 204.878C527.984 205.041 528.637 205.213 529.272 205.393ZM525.412 204.449L525.207 205.426C524.569 205.292 523.915 205.165 523.246 205.045L523.422 204.062C524.1 204.184 524.764 204.313 525.412 204.449ZM521.5 203.743L521.348 204.73C520.705 204.631 520.049 204.538 519.38 204.452L519.509 203.462C520.185 203.55 520.848 203.643 521.5 203.743ZM517.552 203.228L517.444 204.221C516.801 204.15 516.148 204.085 515.484 204.026L515.574 203.031C516.243 203.092 516.903 203.157 517.552 203.228ZM513.575 202.869L513.503 203.864C512.864 203.818 512.216 203.776 511.559 203.738L511.617 202.742C512.278 202.78 512.931 202.822 513.575 202.869ZM509.606 202.642L509.563 203.639C508.919 203.612 508.266 203.589 507.606 203.57L507.635 202.572C508.3 202.591 508.957 202.614 509.606 202.642ZM505.655 202.527L505.639 203.525C504.975 203.514 504.304 203.507 503.626 203.504L503.631 202.506C504.313 202.509 504.988 202.516 505.655 202.527ZM501.677 202.507C501.021 202.512 500.358 202.519 499.69 202.53L499.706 203.528C500.372 203.517 501.031 203.51 501.683 203.506L501.677 202.507ZM497.669 202.574L497.695 203.572C497.053 203.589 496.405 203.609 495.751 203.632L495.716 202.635C496.372 202.611 497.023 202.591 497.669 202.574ZM493.73 202.714L493.774 203.712C493.11 203.741 492.44 203.774 491.764 203.809L491.712 202.813C492.39 202.777 493.063 202.744 493.73 202.714ZM489.757 202.924L489.818 203.92C489.165 203.96 488.508 204.002 487.847 204.047L487.779 203.051C488.443 203.006 489.102 202.963 489.757 202.924ZM485.772 203.196L485.847 204.191C485.198 204.24 484.544 204.292 483.885 204.347L483.803 203.352C484.464 203.297 485.12 203.245 485.772 203.196ZM481.835 203.521L481.924 204.515C481.266 204.574 480.604 204.635 479.938 204.699L479.843 203.705C480.511 203.641 481.175 203.58 481.835 203.521ZM477.853 203.902L477.955 204.895C477.309 204.961 476.659 205.029 476.006 205.1L475.899 204.108C476.554 204.037 477.206 203.968 477.853 203.902ZM473.922 204.327L474.035 205.319C473.374 205.394 472.71 205.471 472.042 205.551L471.924 204.56C472.593 204.48 473.259 204.402 473.922 204.327ZM469.966 204.799C469.316 204.88 468.662 204.964 468.006 205.049L468.135 206.039C468.79 205.954 469.441 205.871 470.09 205.79L469.966 204.799ZM466.027 205.312L466.161 206.301C465.502 206.39 464.84 206.481 464.175 206.575L464.036 205.586C464.702 205.493 465.366 205.401 466.027 205.312ZM462.092 205.864L462.236 206.852C461.587 206.946 460.935 207.042 460.28 207.14L460.132 206.153C460.788 206.055 461.442 205.958 462.092 205.864ZM458.154 206.454L458.307 207.44C457.652 207.542 456.995 207.645 456.336 207.749L456.179 206.764C456.84 206.659 457.499 206.555 458.154 206.454ZM454.236 207.077L454.397 208.062C453.749 208.168 453.098 208.276 452.444 208.385L452.279 207.401C452.934 207.291 453.586 207.183 454.236 207.077ZM450.306 207.736L450.476 208.72C449.824 208.832 449.169 208.946 448.513 209.061L448.339 208.078C448.997 207.962 449.653 207.848 450.306 207.736ZM446.401 208.424L446.578 209.406C445.93 209.523 445.281 209.641 444.629 209.761L444.448 208.779C445.101 208.659 445.752 208.54 446.401 208.424ZM442.483 209.145L442.667 210.126C442.016 210.248 441.362 210.372 440.707 210.498L440.518 209.518C441.175 209.392 441.83 209.267 442.483 209.145ZM438.585 209.892L438.777 210.872C438.132 210.998 437.484 211.126 436.835 211.255L436.64 210.276C437.29 210.147 437.939 210.019 438.585 209.892ZM434.683 210.67L434.882 211.648C434.229 211.78 433.575 211.914 432.919 212.05L432.717 211.072C433.374 210.936 434.03 210.802 434.683 210.67ZM430.79 211.473C430.146 211.608 429.501 211.745 428.853 211.883L429.062 212.86C429.708 212.722 430.353 212.585 430.996 212.45L430.79 211.473ZM426.906 212.302L427.117 213.278C426.468 213.419 425.816 213.561 425.163 213.705L424.948 212.73C425.602 212.586 426.255 212.443 426.906 212.302ZM423.015 213.159L423.233 214.133C422.593 214.276 421.951 214.421 421.308 214.567L421.087 213.593C421.731 213.447 422.374 213.302 423.015 213.159ZM419.15 214.036L419.373 215.009C418.727 215.157 418.079 215.308 417.43 215.459L417.203 214.487C417.853 214.335 418.502 214.185 419.15 214.036ZM415.26 214.943L415.49 215.915C414.852 216.065 414.214 216.218 413.573 216.371L413.341 215.4C413.982 215.247 414.621 215.094 415.26 214.943ZM411.413 215.865C410.769 216.021 410.124 216.179 409.478 216.338L409.716 217.307C410.362 217.148 411.006 216.991 411.649 216.835L411.413 215.865ZM407.534 216.818L407.775 217.787C407.137 217.946 406.498 218.106 405.857 218.267L405.613 217.299C406.255 217.138 406.895 216.977 407.534 216.818ZM403.696 217.785L403.943 218.752C403.303 218.915 402.663 219.079 402.021 219.245L401.771 218.278C402.414 218.112 403.056 217.948 403.696 217.785ZM399.839 218.779L400.091 219.745C399.448 219.912 398.804 220.081 398.159 220.251L397.905 219.286C398.551 219.116 399.196 218.947 399.839 218.779ZM395.997 219.791L396.255 220.756C395.619 220.925 394.981 221.096 394.343 221.268L394.084 220.304C394.723 220.132 395.361 219.961 395.997 219.791ZM392.163 220.824L392.426 221.787C391.785 221.962 391.144 222.137 390.501 222.314L390.236 221.351C390.88 221.174 391.522 220.999 392.163 220.824ZM388.317 221.882L388.584 222.844C387.952 223.019 387.318 223.196 386.684 223.374L386.414 222.413C387.049 222.235 387.684 222.058 388.317 221.882ZM384.505 222.952L384.777 223.912C384.14 224.092 383.503 224.274 382.864 224.456L382.59 223.497C383.229 223.314 383.867 223.132 384.505 222.952ZM380.669 224.049L380.947 225.008C380.312 225.191 379.677 225.375 379.041 225.561L378.762 224.603C379.399 224.417 380.034 224.232 380.669 224.049ZM376.863 225.159L377.145 226.116C376.513 226.302 375.879 226.49 375.244 226.678L374.96 225.721C375.595 225.533 376.23 225.345 376.863 225.159ZM373.052 226.291L373.338 227.247C372.702 227.438 372.065 227.629 371.427 227.822L371.138 226.867C371.777 226.674 372.415 226.482 373.052 226.291ZM369.24 227.443L369.531 228.398C368.902 228.59 368.272 228.783 367.641 228.977L367.347 228.023C367.979 227.829 368.61 227.635 369.24 227.443ZM365.45 228.609L365.746 229.563C365.114 229.759 364.481 229.956 363.848 230.154L363.549 229.202C364.184 229.003 364.817 228.806 365.45 228.609ZM361.644 229.801L361.944 230.752C361.315 230.951 360.686 231.151 360.055 231.351L359.753 230.4C360.384 230.199 361.014 229.999 361.644 229.801ZM357.866 231.003L358.172 231.953C357.543 232.155 356.914 232.357 356.284 232.561L355.977 231.611C356.607 231.407 357.237 231.205 357.866 231.003ZM354.083 232.226L354.393 233.175C353.762 233.381 353.13 233.588 352.498 233.796L352.186 232.847C352.819 232.639 353.451 232.432 354.083 232.226ZM350.3 233.47L350.615 234.417C349.989 234.624 349.364 234.832 348.737 235.041L348.421 234.094C349.048 233.885 349.675 233.677 350.3 233.47ZM346.539 234.725L346.857 235.671C346.23 235.882 345.602 236.094 344.974 236.307L344.653 235.362C345.282 235.149 345.911 234.937 346.539 234.725ZM342.765 236.005L343.088 236.949C342.773 237.057 342.458 237.165 342.143 237.273C341.829 237.38 341.514 237.489 341.2 237.597L340.874 236.653C341.189 236.545 341.504 236.436 341.819 236.328C342.135 236.22 342.45 236.112 342.765 236.005ZM338.989 237.304L339.316 238.247C338.689 238.465 338.064 238.683 337.439 238.901L337.109 237.959C337.735 237.74 338.361 237.522 338.989 237.304ZM335.236 238.616L335.568 239.557C334.945 239.776 334.323 239.996 333.703 240.216L333.369 239.275C333.99 239.055 334.613 238.835 335.236 238.616ZM331.498 239.941L331.834 240.881C331.208 241.105 330.582 241.329 329.958 241.554L329.619 240.615C330.245 240.39 330.871 240.165 331.498 239.941ZM327.747 241.292L328.087 242.23C327.465 242.456 326.844 242.682 326.224 242.908L325.881 241.971C326.502 241.744 327.124 241.517 327.747 241.292ZM324.022 242.652L324.367 243.589C323.746 243.817 323.127 244.046 322.508 244.275L322.161 243.339C322.78 243.11 323.4 242.881 324.022 242.652ZM320.289 244.036L320.638 244.971C320.016 245.203 319.396 245.436 318.776 245.669L318.424 244.735C319.045 244.501 319.666 244.268 320.289 244.036ZM316.567 245.436L316.921 246.369C316.304 246.603 315.688 246.837 315.073 247.072L314.717 246.14C315.332 245.905 315.949 245.67 316.567 245.436ZM312.864 246.849L313.222 247.781C312.601 248.02 311.98 248.26 311.361 248.499L311 247.569C311.62 247.328 312.241 247.089 312.864 246.849ZM309.144 248.29L309.507 249.22C308.89 249.461 308.275 249.702 307.661 249.943L307.296 249.014C307.91 248.772 308.526 248.531 309.144 248.29ZM305.456 249.74L305.823 250.668C305.207 250.912 304.593 251.156 303.98 251.4L303.61 250.473C304.224 250.228 304.839 249.984 305.456 249.74ZM301.755 251.216L302.127 252.142C301.511 252.389 300.896 252.637 300.283 252.885L299.908 251.96C300.522 251.712 301.138 251.463 301.755 251.216ZM298.07 252.707L298.448 253.631C297.837 253.88 297.228 254.129 296.621 254.378L296.242 253.455C296.85 253.205 297.459 252.956 298.07 252.707ZM294.4 254.214L294.782 255.136C294.167 255.391 293.553 255.646 292.94 255.901L292.556 254.98C293.169 254.724 293.784 254.469 294.4 254.214ZM290.721 255.748L291.107 256.668C290.498 256.924 289.89 257.18 289.284 257.437L288.895 256.518C289.502 256.261 290.11 256.004 290.721 255.748ZM287.079 257.289L287.47 258.207C286.857 258.469 286.245 258.731 285.634 258.993L285.24 258.076C285.851 257.813 286.464 257.551 287.079 257.289ZM283.407 258.866L283.804 259.782C283.196 260.045 282.589 260.309 281.984 260.572L281.585 259.657C282.191 259.393 282.798 259.129 283.407 258.866ZM279.773 260.45L280.175 261.364C279.57 261.63 278.967 261.896 278.366 262.162L277.962 261.249C278.564 260.983 279.168 260.716 279.773 260.45ZM276.132 262.063L276.539 262.974C275.932 263.245 275.327 263.516 274.724 263.787L274.314 262.877C274.918 262.605 275.524 262.334 276.132 262.063ZM272.507 263.693C271.906 263.965 271.308 264.237 270.711 264.51L271.126 265.418C271.722 265.146 272.32 264.874 272.919 264.602L272.507 263.693ZM268.897 265.342L269.315 266.248C268.709 266.527 268.106 266.806 267.504 267.086L267.083 266.18C267.686 265.901 268.291 265.621 268.897 265.342ZM265.282 267.02L265.705 267.924C265.108 268.203 264.513 268.483 263.919 268.763L263.493 267.86C264.087 267.58 264.684 267.3 265.282 267.02ZM261.704 268.707L262.133 269.609C261.529 269.896 260.927 270.184 260.328 270.471L259.896 269.571C260.496 269.283 261.099 268.995 261.704 268.707ZM258.101 270.435L258.536 271.334C257.941 271.622 257.348 271.909 256.758 272.197L256.32 271.3C256.911 271.012 257.505 270.723 258.101 270.435ZM254.553 272.166L254.994 273.061C254.393 273.357 253.794 273.653 253.197 273.949L252.753 273.054C253.351 272.758 253.951 272.462 254.553 272.166ZM250.967 273.945L251.414 274.837C250.822 275.133 250.233 275.43 249.646 275.726L249.196 274.835C249.784 274.538 250.374 274.241 250.967 273.945ZM247.44 275.726L247.893 276.615C247.298 276.918 246.706 277.221 246.116 277.524L245.66 276.637C246.25 276.333 246.844 276.029 247.44 275.726ZM243.883 277.554L244.344 278.44C243.755 278.745 243.17 279.05 242.587 279.355L242.124 278.471C242.708 278.166 243.294 277.86 243.883 277.554ZM240.381 279.388L240.848 280.271C240.259 280.582 239.672 280.894 239.089 281.206L238.618 280.325C239.203 280.013 239.791 279.701 240.381 279.388ZM236.856 281.271L237.33 282.149C236.746 282.464 236.166 282.778 235.589 283.093L235.111 282.216C235.689 281.901 236.271 281.586 236.856 281.271ZM233.385 283.161L233.867 284.035C233.281 284.357 232.7 284.679 232.121 285.001L231.636 284.128C232.216 283.806 232.799 283.484 233.385 283.161ZM229.89 285.104L230.379 285.974C229.802 286.299 229.228 286.623 228.658 286.947L228.164 286.079C228.736 285.754 229.311 285.429 229.89 285.104ZM226.46 287.052L226.957 287.918C226.375 288.252 225.796 288.587 225.221 288.92L224.719 288.057C225.296 287.723 225.876 287.388 226.46 287.052ZM222.996 289.064L223.502 289.925C222.932 290.26 222.367 290.594 221.805 290.928L221.295 290.07C221.858 289.735 222.425 289.4 222.996 289.064ZM219.602 291.082L220.117 291.937C219.541 292.284 218.969 292.631 218.402 292.977L217.882 292.124C218.451 291.777 219.025 291.43 219.602 291.082ZM216.187 293.164L216.711 294.014C216.152 294.359 215.597 294.704 215.047 295.048L214.517 294.202C215.069 293.856 215.626 293.51 216.187 293.164ZM212.826 295.267L213.361 296.11C212.796 296.468 212.235 296.826 211.68 297.184L211.14 296.344C211.697 295.986 212.259 295.627 212.826 295.267ZM209.482 297.418L210.028 298.254C209.475 298.615 208.927 298.975 208.384 299.335L207.832 298.503C208.377 298.142 208.927 297.78 209.482 297.418ZM206.159 299.62L206.717 300.448C206.167 300.819 205.622 301.188 205.083 301.557L204.519 300.734C205.06 300.363 205.607 299.992 206.159 299.62ZM202.908 301.845L203.478 302.664C202.923 303.051 202.374 303.436 201.831 303.82L201.254 303.006C201.799 302.62 202.35 302.233 202.908 301.845ZM199.637 304.162L200.222 304.971C199.692 305.354 199.168 305.735 198.65 306.116L198.058 305.312C198.578 304.93 199.105 304.546 199.637 304.162ZM196.436 306.518L197.036 307.316C196.504 307.715 195.979 308.114 195.461 308.511L194.853 307.719C195.374 307.32 195.901 306.919 196.436 306.518ZM193.309 308.917L193.926 309.702C193.393 310.12 192.867 310.538 192.35 310.953L191.725 310.175C192.245 309.757 192.773 309.338 193.309 308.917ZM190.189 311.426L190.825 312.196C190.315 312.616 189.814 313.035 189.322 313.452L188.676 312.69C189.172 312.27 189.676 311.849 190.189 311.426ZM187.15 314.003L187.807 314.755C187.312 315.187 186.826 315.618 186.351 316.047L185.682 315.305C186.162 314.873 186.651 314.439 187.15 314.003ZM184.204 316.66L184.885 317.39C184.398 317.844 183.922 318.296 183.458 318.746L182.763 318.029C183.232 317.575 183.712 317.119 184.204 316.66ZM181.362 319.414L182.071 320.117C181.597 320.596 181.136 321.071 180.688 321.544L179.963 320.858C180.416 320.38 180.882 319.898 181.362 319.414ZM178.641 322.29L179.384 322.957C178.929 323.462 178.491 323.964 178.069 324.461L177.307 323.816C177.736 323.311 178.181 322.802 178.641 322.29ZM176.07 325.321L176.852 325.942C176.43 326.473 176.027 326.999 175.645 327.521L174.84 326.93C175.23 326.398 175.641 325.861 176.07 325.321ZM173.718 328.525L174.547 329.082C174.171 329.642 173.819 330.196 173.491 330.743L172.634 330.231C172.971 329.668 173.332 329.1 173.718 328.525ZM171.67 331.952L172.556 332.413C172.252 332.997 171.978 333.573 171.733 334.139L170.816 333.744C171.071 333.154 171.356 332.557 171.67 331.952ZM170.103 335.611L171.051 335.924C170.849 336.537 170.684 337.137 170.558 337.724L169.581 337.514C169.716 336.89 169.89 336.255 170.103 335.611ZM169.286 339.465L170.281 339.548C170.228 340.179 170.223 340.793 170.265 341.39L169.269 341.46C169.223 340.809 169.229 340.144 169.286 339.465ZM169.574 343.417C169.654 343.738 169.747 344.055 169.854 344.368C169.962 344.682 170.083 344.989 170.218 345.292L171.13 344.885C171.007 344.61 170.897 344.33 170.799 344.044C170.701 343.759 170.616 343.47 170.544 343.178L169.574 343.417ZM171.178 347.024L172.008 346.468C172.341 346.965 172.722 347.446 173.151 347.911L172.417 348.588C171.955 348.087 171.542 347.566 171.178 347.024ZM173.848 349.947L174.489 349.182C174.95 349.568 175.448 349.94 175.984 350.3L175.428 351.129C174.864 350.751 174.337 350.357 173.848 349.947ZM177.138 352.166L177.619 351.291C178.159 351.588 178.729 351.874 179.328 352.149L178.911 353.056C178.292 352.772 177.701 352.475 177.138 352.166ZM180.73 353.824L181.091 352.893C181.686 353.124 182.304 353.345 182.945 353.557L182.632 354.505C181.975 354.288 181.341 354.061 180.73 353.824ZM184.498 355.076L184.77 354.116C185.393 354.292 186.034 354.461 186.693 354.621L186.457 355.591C185.786 355.428 185.133 355.256 184.498 355.076ZM188.358 356.02L188.562 355.043C189.201 355.177 189.855 355.304 190.524 355.424L190.348 356.406C189.67 356.285 189.006 356.156 188.358 356.02ZM192.27 356.726L192.422 355.739C193.065 355.838 193.721 355.93 194.39 356.017L194.261 357.007C193.585 356.919 192.921 356.826 192.27 356.726ZM196.218 357.241L196.326 356.248C196.969 356.318 197.622 356.383 198.286 356.443L198.196 357.437C197.526 357.377 196.867 357.311 196.218 357.241ZM200.194 357.6C200.839 357.647 201.492 357.689 202.153 357.727L202.21 356.73C201.554 356.693 200.906 356.651 200.267 356.604L200.194 357.6ZM204.164 357.827L204.206 356.83C204.851 356.857 205.503 356.88 206.164 356.899L206.135 357.897C205.47 357.878 204.813 357.855 204.164 357.827ZM208.115 357.942L208.131 356.944C208.795 356.955 209.465 356.962 210.143 356.965L210.139 357.963C209.457 357.96 208.782 357.953 208.115 357.942ZM212.093 357.961C212.749 357.957 213.411 357.95 214.08 357.939L214.064 356.941C213.398 356.952 212.739 356.959 212.086 356.963L212.093 357.961ZM216.101 357.895L216.074 356.897C216.717 356.88 217.365 356.86 218.018 356.837L218.054 357.834C217.397 357.858 216.746 357.878 216.101 357.895ZM220.04 357.755L219.996 356.757C220.66 356.728 221.33 356.695 222.005 356.659L222.058 357.656C221.38 357.692 220.707 357.725 220.04 357.755ZM224.012 357.545L223.952 356.549C224.604 356.509 225.261 356.467 225.923 356.422L225.991 357.418C225.327 357.463 224.667 357.505 224.012 357.545ZM227.998 357.273L227.923 356.278C228.572 356.228 229.226 356.177 229.884 356.122L229.967 357.117C229.306 357.172 228.65 357.224 227.998 357.273ZM231.934 356.948C232.594 356.889 233.259 356.828 233.927 356.764L233.832 355.77C233.166 355.834 232.503 355.895 231.846 355.954L231.934 356.948ZM235.916 356.567L235.815 355.574C236.461 355.508 237.111 355.439 237.764 355.369L237.871 356.361C237.216 356.432 236.564 356.501 235.916 356.567ZM239.848 356.142L239.735 355.15C240.396 355.075 241.06 354.998 241.728 354.918L241.846 355.909C241.176 355.989 240.51 356.067 239.848 356.142ZM243.804 355.67C244.454 355.589 245.107 355.505 245.764 355.42L245.635 354.43C244.98 354.515 244.328 354.598 243.68 354.679L243.804 355.67ZM247.743 355.157C248.404 355.068 249.067 354.976 249.734 354.883L249.595 353.894C248.93 353.987 248.268 354.079 247.609 354.168L247.743 355.157ZM251.678 354.605L251.534 353.617C252.183 353.523 252.835 353.427 253.49 353.329L253.638 354.316C252.982 354.414 252.328 354.511 251.678 354.605ZM255.615 354.015L255.463 353.028C256.117 352.927 256.774 352.824 257.434 352.719L257.591 353.705C256.93 353.81 256.271 353.914 255.615 354.015ZM259.533 353.392L259.372 352.407C260.021 352.301 260.672 352.193 261.326 352.083L261.491 353.068C260.836 353.178 260.183 353.286 259.533 353.392ZM263.463 352.733L263.294 351.749C263.946 351.637 264.6 351.523 265.257 351.407L265.43 352.391C264.772 352.506 264.117 352.621 263.463 352.733ZM267.369 352.045L267.192 351.063C267.839 350.946 268.489 350.828 269.141 350.708L269.321 351.69C268.668 351.81 268.018 351.928 267.369 352.045ZM271.287 351.324L271.102 350.343C271.754 350.221 272.407 350.096 273.063 349.971L273.251 350.951C272.594 351.077 271.939 351.201 271.287 351.324ZM275.184 350.577L274.993 349.597C275.638 349.471 276.285 349.343 276.934 349.214L277.13 350.193C276.479 350.322 275.831 350.45 275.184 350.577ZM279.087 349.799L278.888 348.821C279.54 348.689 280.195 348.555 280.851 348.419L281.053 349.397C280.396 349.532 279.74 349.667 279.087 349.799ZM282.979 348.996L282.774 348.019C283.417 347.884 284.062 347.747 284.708 347.609L284.916 348.586C284.269 348.724 283.623 348.86 282.979 348.996ZM286.864 348.167C287.515 348.025 288.167 347.883 288.822 347.739L288.607 346.764C287.954 346.908 287.302 347.05 286.652 347.191L286.864 348.167ZM290.754 347.31L290.536 346.336C291.177 346.193 291.818 346.048 292.462 345.902L292.683 346.876C292.038 347.022 291.396 347.166 290.754 347.31ZM294.62 346.433L294.396 345.46C295.043 345.311 295.691 345.161 296.34 345.01L296.567 345.982C295.917 346.134 295.268 346.284 294.62 346.433ZM298.51 345.526L298.28 344.554C298.917 344.403 299.556 344.251 300.196 344.098L300.429 345.069C299.788 345.222 299.148 345.375 298.51 345.526ZM302.357 344.604C303 344.448 303.646 344.29 304.292 344.131L304.054 343.162C303.408 343.321 302.764 343.478 302.121 343.634L302.357 344.604ZM306.236 343.651C306.875 343.492 307.515 343.331 308.156 343.17L307.913 342.202C307.272 342.363 306.633 342.523 305.995 342.682L306.236 343.651ZM310.074 342.684L309.827 341.717C310.467 341.554 311.107 341.39 311.749 341.224L311.998 342.191C311.356 342.357 310.714 342.521 310.074 342.684ZM313.93 341.69C314.574 341.522 315.219 341.353 315.865 341.183L315.611 340.218C314.965 340.388 314.321 340.557 313.678 340.724L313.93 341.69ZM317.772 340.677L317.515 339.713C318.151 339.543 318.788 339.373 319.426 339.201L319.686 340.165C319.047 340.337 318.409 340.508 317.772 340.677ZM321.607 339.645L321.344 338.682C321.985 338.507 322.626 338.332 323.268 338.155L323.533 339.118C322.89 339.295 322.248 339.47 321.607 339.645ZM325.453 338.587L325.185 337.625C325.818 337.45 326.452 337.273 327.086 337.095L327.356 338.056C326.721 338.234 326.086 338.411 325.453 338.587ZM329.265 337.517L328.993 336.557C329.629 336.377 330.267 336.195 330.905 336.012L331.18 336.972C330.541 337.155 329.903 337.337 329.265 337.517ZM333.1 336.42L332.823 335.461C333.457 335.278 334.092 335.094 334.728 334.908L335.008 335.866C334.371 336.052 333.735 336.237 333.1 336.42ZM336.906 335.31C337.54 335.124 338.174 334.936 338.81 334.748L338.525 333.791C337.891 333.979 337.257 334.166 336.624 334.353L336.906 335.31ZM340.718 334.178L340.431 333.222C341.068 333.031 341.705 332.84 342.342 332.647L342.631 333.602C341.993 333.795 341.355 333.987 340.718 334.178ZM344.53 333.026L344.238 332.071C344.868 331.879 345.498 331.686 346.129 331.492L346.422 332.446C345.791 332.64 345.16 332.833 344.53 333.026ZM348.319 331.86L348.023 330.906C348.656 330.71 349.289 330.513 349.922 330.315L350.221 331.267C349.586 331.466 348.952 331.663 348.319 331.86ZM352.126 330.668C352.756 330.47 353.386 330.27 354.017 330.069L353.714 329.118C353.084 329.318 352.454 329.518 351.825 329.716L352.126 330.668ZM355.903 329.466L355.598 328.516C356.227 328.314 356.856 328.111 357.486 327.908L357.793 328.857C357.163 329.061 356.533 329.264 355.903 329.466ZM359.687 328.243L359.377 327.294C359.757 327.17 360.137 327.045 360.517 326.921C360.769 326.839 361.02 326.756 361.272 326.673L361.584 327.621C360.951 327.83 360.319 328.037 359.687 328.243ZM363.469 326.999L363.155 326.052C363.78 325.845 364.406 325.637 365.032 325.428L365.349 326.374C364.722 326.584 364.095 326.792 363.469 326.999ZM367.231 325.744L366.912 324.798C367.54 324.586 368.168 324.374 368.796 324.161L369.117 325.107C368.487 325.32 367.859 325.532 367.231 325.744ZM371.005 324.464C371.32 324.357 371.635 324.249 371.95 324.141C372.265 324.033 372.58 323.924 372.895 323.816L372.57 322.872C372.256 322.98 371.941 323.088 371.626 323.196C371.311 323.304 370.997 323.412 370.682 323.52L371.005 324.464ZM374.781 323.164L374.453 322.221C375.08 322.004 375.706 321.786 376.331 321.568L376.66 322.51C376.035 322.729 375.408 322.947 374.781 323.164ZM378.534 321.853L378.202 320.912C378.825 320.692 379.447 320.473 380.067 320.253L380.401 321.193C379.78 321.414 379.157 321.634 378.534 321.853ZM382.271 320.528L381.935 319.588C382.562 319.364 383.188 319.139 383.812 318.915L384.15 319.854C383.525 320.079 382.899 320.303 382.271 320.528ZM386.023 319.177L385.682 318.239C386.305 318.013 386.926 317.787 387.546 317.561L387.889 318.498C387.268 318.725 386.646 318.951 386.023 319.177ZM389.748 317.817L389.403 316.88C390.024 316.652 390.643 316.423 391.262 316.194L391.609 317.129C390.99 317.359 390.369 317.588 389.748 317.817ZM393.481 316.433L393.131 315.498C393.753 315.266 394.374 315.033 394.994 314.8L395.345 315.734C394.725 315.968 394.104 316.2 393.481 316.433ZM397.203 315.033L396.849 314.1C397.212 313.962 397.575 313.824 397.938 313.686C398.191 313.59 398.444 313.493 398.697 313.397L399.053 314.329C398.438 314.564 397.821 314.799 397.203 315.033ZM400.906 313.62C401.528 313.38 402.15 313.14 402.77 312.9L402.409 311.97C401.79 312.209 401.169 312.449 400.547 312.688L400.906 313.62ZM404.626 312.179L404.263 311.249C404.88 311.008 405.495 310.767 406.109 310.526L406.474 311.455C405.859 311.697 405.243 311.938 404.626 312.179ZM408.314 310.729L407.947 309.801C408.562 309.557 409.177 309.313 409.79 309.069L410.16 309.996C409.546 310.241 408.931 310.485 408.314 310.729ZM412.015 309.253L411.643 308.327C412.259 308.08 412.874 307.832 413.487 307.583L413.862 308.509C413.248 308.757 412.632 309.005 412.015 309.253ZM415.699 307.762L415.322 306.838C415.932 306.589 416.541 306.34 417.149 306.091L417.528 307.014C416.92 307.264 416.31 307.513 415.699 307.762ZM419.369 306.255C419.986 306 420.601 305.745 421.214 305.489L420.83 304.568C420.217 304.823 419.603 305.078 418.987 305.333L419.369 306.255ZM423.049 304.721L422.662 303.801C423.272 303.545 423.88 303.289 424.486 303.032L424.875 303.951C424.268 304.208 423.659 304.465 423.049 304.721ZM426.691 303.18L426.299 302.262C426.913 302 427.525 301.738 428.136 301.476L428.53 302.393C427.919 302.656 427.306 302.918 426.691 303.18ZM430.363 301.603L429.966 300.687C430.574 300.424 431.181 300.16 431.786 299.897L432.185 300.812C431.579 301.076 430.972 301.34 430.363 301.603ZM433.997 300.019L433.595 299.105C434.199 298.839 434.802 298.573 435.403 298.307L435.808 299.22C435.206 299.486 434.602 299.752 433.997 300.019ZM437.637 298.406L437.23 297.495C437.838 297.224 438.443 296.953 439.046 296.681L439.456 297.592C438.852 297.864 438.245 298.135 437.637 298.406ZM441.263 296.776L440.851 295.867C441.45 295.595 442.048 295.323 442.643 295.051L443.058 295.959C442.462 296.232 441.863 296.504 441.263 296.776ZM444.872 295.127L444.455 294.22C445.06 293.942 445.664 293.662 446.266 293.383L446.686 294.289C446.084 294.568 445.479 294.848 444.872 295.127ZM448.488 293.449L448.064 292.545C448.662 292.266 449.257 291.986 449.85 291.706L450.277 292.609C449.682 292.889 449.086 293.169 448.488 293.449ZM452.066 291.761L451.637 290.86C452.241 290.573 452.843 290.285 453.442 289.998L453.874 290.898C453.273 291.186 452.671 291.474 452.066 291.761ZM455.669 290.034L455.234 289.135C455.829 288.847 456.422 288.559 457.012 288.272L457.45 289.169C456.858 289.457 456.265 289.745 455.669 290.034ZM459.217 288.303L458.776 287.408C459.377 287.112 459.976 286.816 460.572 286.52L461.016 287.414C460.419 287.711 459.819 288.007 459.217 288.303ZM462.803 286.524L462.356 285.632C462.948 285.335 463.537 285.039 464.124 284.743L464.574 285.634C463.986 285.931 463.396 286.228 462.803 286.524ZM466.33 284.743L465.877 283.854C466.472 283.551 467.064 283.248 467.654 282.945L468.11 283.832C467.52 284.136 466.926 284.44 466.33 284.743ZM469.886 282.915L469.426 282.029C470.014 281.724 470.6 281.419 471.182 281.113L471.646 281.998C471.062 282.303 470.476 282.609 469.886 282.915ZM473.388 281.081L472.921 280.198C473.511 279.887 474.097 279.575 474.681 279.263L475.151 280.144C474.567 280.456 473.979 280.768 473.388 281.081ZM476.914 279.198L476.44 278.319C477.024 278.005 477.604 277.69 478.181 277.376L478.659 278.253C478.08 278.568 477.499 278.883 476.914 279.198ZM480.384 277.308L479.903 276.434C480.488 276.112 481.07 275.79 481.649 275.468L482.134 276.34C481.554 276.663 480.971 276.985 480.384 277.308ZM483.88 275.365L483.391 274.495C483.968 274.17 484.542 273.846 485.112 273.522L485.605 274.39C485.034 274.715 484.459 275.04 483.88 275.365ZM487.31 273.416L486.813 272.551C487.395 272.216 487.974 271.882 488.549 271.548L489.05 272.411C488.474 272.746 487.894 273.081 487.31 273.416ZM490.774 271.404L490.268 270.544C490.837 270.209 491.403 269.875 491.965 269.541L492.475 270.399C491.912 270.734 491.345 271.069 490.774 271.404ZM494.167 269.387L493.652 268.531C494.229 268.185 494.801 267.838 495.368 267.492L495.888 268.344C495.319 268.691 494.745 269.039 494.167 269.387ZM497.583 267.305L497.058 266.455C497.618 266.11 498.172 265.765 498.723 265.421L499.253 266.267C498.7 266.613 498.144 266.958 497.583 267.305ZM500.944 265.202L500.409 264.359C500.974 264.001 501.534 263.643 502.09 263.285L502.63 264.125C502.073 264.483 501.511 264.842 500.944 265.202ZM504.288 263.051L503.742 262.215C504.295 261.854 504.843 261.494 505.386 261.134L505.937 261.966C505.392 262.327 504.842 262.689 504.288 263.051ZM507.61 260.849L507.053 260.021C507.603 259.65 508.148 259.281 508.687 258.912L509.251 259.735C508.71 260.106 508.163 260.477 507.61 260.849ZM510.862 258.624C511.419 258.236 511.971 257.849 512.516 257.463L511.938 256.648C511.396 257.033 510.847 257.418 510.292 257.805L510.862 258.624ZM514.132 256.307L513.548 255.498C514.078 255.115 514.602 254.733 515.12 254.353L515.711 255.157C515.191 255.539 514.665 255.923 514.132 256.307ZM517.334 253.951L516.734 253.153C517.266 252.754 517.791 252.355 518.309 251.958L518.917 252.75C518.396 253.149 517.868 253.55 517.334 253.951ZM520.46 251.552L519.844 250.767C520.377 250.348 520.902 249.931 521.419 249.516L522.045 250.294C521.525 250.712 520.997 251.131 520.46 251.552ZM523.581 249.043L522.945 248.273C523.455 247.853 523.955 247.434 524.448 247.017L525.093 247.778C524.598 248.198 524.094 248.62 523.581 249.043ZM526.619 246.466L525.962 245.714C526.458 245.281 526.943 244.851 527.419 244.422L528.088 245.163C527.608 245.596 527.119 246.03 526.619 246.466ZM529.566 243.809L528.884 243.079C529.372 242.625 529.847 242.172 530.312 241.723L531.007 242.439C530.538 242.894 530.057 243.35 529.566 243.809ZM532.408 241.055L531.699 240.352C532.173 239.873 532.634 239.397 533.081 238.925L533.807 239.611C533.354 240.089 532.888 240.571 532.408 241.055ZM535.128 238.179L534.386 237.512C534.841 237.006 535.279 236.505 535.701 236.008L536.463 236.653C536.034 237.158 535.589 237.667 535.128 238.179ZM537.699 235.148L536.917 234.527C537.34 233.996 537.742 233.47 538.125 232.948L538.93 233.539C538.539 234.071 538.129 234.607 537.699 235.148ZM540.052 231.943L539.223 231.387C539.599 230.827 539.951 230.273 540.279 229.726L541.136 230.238C540.799 230.801 540.437 231.369 540.052 231.943ZM542.1 228.517L541.214 228.056C541.518 227.472 541.792 226.896 542.037 226.33L542.953 226.725C542.699 227.315 542.414 227.912 542.1 228.517ZM543.667 224.858L542.718 224.545C542.921 223.932 543.085 223.332 543.212 222.744L544.188 222.955C544.054 223.579 543.879 224.213 543.667 224.858ZM544.483 221.004L543.488 220.921C543.541 220.29 543.547 219.676 543.505 219.079L544.501 219.009C544.546 219.66 544.54 220.325 544.483 221.004Z" fill="white" fill-opacity="0.47"/>
<path fill-rule="evenodd" clip-rule="evenodd" d="M572.904 219.211C574.609 215.049 574.898 211.346 573.791 208.117C572.683 204.889 570.181 202.144 566.279 199.903C562.37 197.659 557.107 195.955 550.605 194.81C537.6 192.519 519.841 192.495 498.555 194.648C455.998 198.952 399.566 211.928 339.362 232.573C279.157 253.217 226.639 277.6 190.4 300.316C172.274 311.678 158.268 322.594 149.409 332.382C144.978 337.277 141.87 341.851 140.162 346.021C138.457 350.184 138.168 353.887 139.275 357.115C140.383 360.343 142.885 363.089 146.787 365.329C150.696 367.574 155.959 369.277 162.461 370.423C175.466 372.714 193.225 372.737 214.511 370.585C257.068 366.281 313.5 353.304 373.704 332.66C433.909 312.015 486.427 287.633 522.666 264.917C540.792 253.554 554.797 242.639 563.657 232.851C568.088 227.956 571.196 223.382 572.904 219.211ZM374.028 333.604C494.538 292.281 584.398 235.953 574.735 207.794C565.073 179.634 459.547 190.305 339.038 231.629C218.528 272.952 128.668 329.279 138.331 357.439C147.993 385.599 253.518 374.928 374.028 333.604Z" fill="url(#paint0_linear)"/>
<path d="M360.328 219.952C328.582 222.555 304.958 250.391 307.561 282.126L422.521 272.702C419.918 240.967 392.073 217.35 360.328 219.952Z" fill="#F7F7F7"/>
<path d="M225.006 293.056C225.795 302.672 218.636 311.106 209.016 311.894C199.397 312.683 190.959 305.527 190.171 295.912C189.382 286.296 196.541 277.862 206.16 277.074C215.78 276.285 224.217 283.441 225.006 293.056Z" fill="#C4C4C4"/>
<mask id="mask1" style="mask-type:alpha" maskUnits="userSpaceOnUse" x="190" y="277" width="36" height="35">
<path d="M225.006 293.056C225.795 302.672 218.636 311.106 209.016 311.894C199.397 312.683 190.959 305.527 190.171 295.912C189.382 286.296 196.541 277.862 206.16 277.074C215.78 276.285 224.217 283.441 225.006 293.056Z" fill="#C4C4C4"/>
</mask>
<g mask="url(#mask1)">
<path fill-rule="evenodd" clip-rule="evenodd" d="M228.932 288.221L179.026 285.47L179.081 284.473L228.987 287.224L228.932 288.221Z" fill="#2D2D2D"/>
<path fill-rule="evenodd" clip-rule="evenodd" d="M188.878 296.588L233.192 292.956L233.273 293.95L188.96 297.583L188.878 296.588Z" fill="#2D2D2D"/>
<path fill-rule="evenodd" clip-rule="evenodd" d="M184.202 308.123L230.178 300.047L230.351 301.03L184.375 309.106L184.202 308.123Z" fill="#2D2D2D"/>
</g>
<path d="M231.622 368.755C232.185 375.623 227.072 381.647 220.201 382.21C213.33 382.774 207.303 377.662 206.739 370.794C206.176 363.926 211.289 357.902 218.16 357.339C225.032 356.775 231.058 361.886 231.622 368.755Z" fill="#C4C4C4"/>
<path d="M531.587 206.212C532.376 215.827 525.217 224.261 515.597 225.05C505.978 225.838 497.54 218.683 496.752 209.067C495.963 199.452 503.122 191.018 512.741 190.229C522.361 189.441 530.798 196.596 531.587 206.212Z" fill="#C4C4C4"/>
<path fill-rule="evenodd" clip-rule="evenodd" d="M539.427 206.848C539.427 206.848 539.426 206.85 539.423 206.854C539.425 206.85 539.426 206.848 539.427 206.848ZM539.295 206.989C539.289 206.985 539.284 206.981 539.278 206.977C539.044 206.817 538.639 206.629 538.024 206.437C536.806 206.057 534.997 205.734 532.702 205.498C528.128 205.026 521.801 204.915 514.814 205.285C507.827 205.654 501.547 206.432 497.048 207.383C494.791 207.86 493.027 208.372 491.855 208.878C491.264 209.133 490.881 209.363 490.665 209.548C490.66 209.552 490.655 209.556 490.65 209.561C490.655 209.565 490.661 209.568 490.667 209.572C490.901 209.733 491.306 209.921 491.921 210.113C493.139 210.493 494.947 210.816 497.242 211.052C501.817 211.524 508.144 211.635 515.131 211.265C522.118 210.896 528.397 210.118 532.896 209.167C535.154 208.69 536.918 208.178 538.09 207.672C538.681 207.416 539.064 207.186 539.279 207.002C539.285 206.998 539.29 206.993 539.295 206.989ZM490.504 209.434C490.504 209.434 490.506 209.436 490.508 209.44C490.505 209.436 490.504 209.434 490.504 209.434ZM490.518 209.702C490.518 209.702 490.519 209.7 490.522 209.696C490.52 209.7 490.518 209.702 490.518 209.702ZM539.436 207.11C539.44 207.114 539.441 207.116 539.441 207.116C539.441 207.116 539.439 207.114 539.436 207.11ZM515.183 212.262C529.228 211.52 540.519 209.133 540.402 206.931C540.286 204.728 528.806 203.545 514.761 204.288C500.717 205.03 489.426 207.417 489.543 209.619C489.659 211.821 501.139 213.005 515.183 212.262Z" fill="white"/>
<path d="M512.95 189.986C503.371 190.771 496.243 199.17 497.028 208.746L531.717 205.903C530.932 196.327 522.53 189.2 512.95 189.986Z" fill="#C4C4C4"/>
<path d="M273.227 306.117C273.588 310.513 270.315 314.369 265.918 314.729C261.52 315.09 257.663 311.818 257.303 307.423C256.942 303.027 260.215 299.172 264.612 298.811C269.01 298.451 272.867 301.722 273.227 306.117Z" fill="#8D8D8D"/>
<path d="M497.92 284.157C498.281 288.552 495.008 292.408 490.611 292.768C486.213 293.129 482.356 289.858 481.996 285.462C481.635 281.067 484.908 277.211 489.305 276.85C493.703 276.49 497.56 279.761 497.92 284.157Z" fill="#ED1C24"/>
</g>
<path d="M157.775 86.4235L98.7486 152.478C94.7356 156.969 87.299 154.621 86.5936 148.641L78.6532 81.3316C78.1569 77.1246 81.4893 73.4473 85.7261 73.5267L152.693 74.7816C158.67 74.8936 161.757 81.967 157.775 86.4235Z" fill="white"/>
<path fill-rule="evenodd" clip-rule="evenodd" d="M86.0977 148.699C86.8536 155.107 94.8213 157.622 99.1209 152.811L158.147 86.7561C162.414 81.9812 159.106 74.4026 152.702 74.2826L85.7354 73.0277C81.196 72.9427 77.6255 76.8826 78.1573 81.3902L86.0977 148.699ZM98.3762 152.146C94.6499 156.316 87.7445 154.136 87.0894 148.583L79.149 81.2732C78.6882 77.3667 81.7825 73.9521 85.7167 74.0258L152.683 75.2807C158.233 75.3847 161.1 81.9528 157.403 86.0911L98.3762 152.146Z" fill="black"/>
<path d="M199.392 213.615C199.392 213.615 157.926 214.987 174.128 178.779C177.217 171.771 190.354 149.305 183.917 140.691C183.917 140.691 207.163 150.399 197.08 172.688C186.695 195.54 190.121 210.444 199.392 213.615Z" fill="#ED1C24"/>
<path d="M166.488 185.91C166.488 185.91 145.427 176.838 164.096 159.932C165.976 158.336 180.002 146.902 180.692 139.397C180.692 139.397 185.927 148.13 176.932 161.195C167.979 174.232 163.754 178.761 166.488 185.91Z" fill="#ED1C24"/>
<path d="M218.449 175.903C214.436 197.502 216.276 208.032 228.706 215.094C228.706 215.094 181.251 225.373 201.78 175.022C209.124 157.019 200.717 149.026 200.494 148.685C204.006 149.487 222.462 154.305 218.449 175.903Z" fill="#ED1C24"/>
<path d="M179.886 137.014C175.255 148.643 164.977 161.056 152.059 168.109C150 169.233 147.478 168.826 145.728 167.263C143.289 165.085 143.078 161.343 145.257 158.905L169.864 131.369C172.063 128.907 175.842 128.694 178.304 130.893C180.035 132.439 180.744 134.858 179.886 137.014Z" fill="white"/>
<path fill-rule="evenodd" clip-rule="evenodd" d="M145.629 159.238C143.634 161.47 143.827 164.897 146.061 166.891C147.669 168.328 149.965 168.684 151.82 167.671C164.632 160.676 174.832 148.354 179.422 136.829C180.194 134.891 179.565 132.689 177.971 131.265C175.715 129.25 172.252 129.446 170.236 131.701L145.629 159.238ZM145.395 167.636C142.751 165.274 142.522 161.217 144.884 158.573L169.491 131.036C171.874 128.369 175.969 128.139 178.636 130.521C180.505 132.19 181.295 134.825 180.35 137.199C175.677 148.932 165.322 161.437 152.299 168.547C150.036 169.783 147.287 169.325 145.395 167.636Z" fill="black"/>
<path d="M176.05 131.016C170.842 144.095 159.283 158.056 144.755 165.988C142.439 167.253 139.602 166.794 137.634 165.037C134.891 162.587 134.654 158.379 137.104 155.637L164.779 124.667C167.252 121.899 171.502 121.659 174.271 124.132C176.218 125.871 177.016 128.591 176.05 131.016Z" fill="white"/>
<path fill-rule="evenodd" clip-rule="evenodd" d="M137.476 155.969C135.21 158.506 135.429 162.399 137.966 164.665C139.793 166.296 142.403 166.703 144.515 165.55C158.938 157.676 170.42 143.806 175.586 130.831C176.465 128.624 175.748 126.12 173.938 124.504C171.375 122.215 167.441 122.437 165.151 124.999L137.476 155.969ZM137.301 165.409C134.353 162.776 134.098 158.252 136.732 155.304L164.406 124.334C167.064 121.361 171.629 121.103 174.604 123.76C176.688 125.621 177.566 128.558 176.514 131.2C171.264 144.384 159.628 158.436 144.994 166.426C142.474 167.802 139.411 167.293 137.301 165.409Z" fill="black"/>
<path d="M102.466 176.598C108.811 158.177 113.484 149.399 124.996 133.165L139.694 146.291C133.232 157.002 126.821 167.146 124.348 196.14L102.466 176.598Z" fill="white"/>
<path fill-rule="evenodd" clip-rule="evenodd" d="M124.911 132.42L140.335 146.194L140.121 146.548C140.002 146.746 139.883 146.944 139.763 147.141C136.653 152.292 133.595 157.357 130.994 164.529C128.293 171.977 126.079 181.717 124.846 196.182L124.761 197.177L101.885 176.749L101.993 176.436C108.355 157.965 113.052 149.145 124.588 132.876L124.911 132.42ZM103.046 176.447L123.937 195.104C125.192 181.119 127.38 171.566 130.055 164.189C132.69 156.923 135.792 151.786 138.9 146.639C138.951 146.555 139.002 146.471 139.052 146.387L125.08 133.909C113.894 149.726 109.26 158.46 103.046 176.447Z" fill="black"/>
<path d="M141.804 223.348C141.804 223.348 125.044 223.902 131.593 209.267C132.841 206.435 138.151 197.355 135.549 193.873C135.549 193.873 144.945 197.797 140.87 206.806C136.672 216.042 138.057 222.066 141.804 223.348Z" fill="#ED1C24"/>
<path d="M128.505 212.15C128.505 212.15 119.993 208.483 127.539 201.65C128.298 201.005 133.967 196.384 134.246 193.35C134.246 193.35 136.362 196.88 132.726 202.161C129.108 207.43 127.401 209.261 128.505 212.15Z" fill="#ED1C24"/>
<path d="M149.507 208.105C147.885 216.835 148.629 221.091 153.652 223.945C153.652 223.945 134.472 228.1 142.769 207.749C145.738 200.473 142.34 197.242 142.25 197.104C143.669 197.428 151.129 199.376 149.507 208.105Z" fill="#ED1C24"/>
<path d="M121.711 208.093C109.032 199.999 97.2015 188.626 89.4766 172.705C89.4766 172.705 85.1837 164.333 86.3026 163.081C87.4216 161.829 96.4718 164.877 96.4718 164.877C113.048 170.587 126.053 181.381 135.269 192.92C136.435 197.877 126.421 208.463 121.711 208.093Z" fill="white"/>
<path fill-rule="evenodd" clip-rule="evenodd" d="M89.9209 172.477C89.9209 172.477 89.9209 172.477 89.7837 172.547L89.9209 172.477L89.9259 172.487C97.58 188.262 109.292 199.551 121.869 207.602C122.866 207.634 124.209 207.121 125.71 206.156C127.25 205.166 128.875 203.752 130.325 202.168C131.776 200.582 133.036 198.843 133.859 197.21C134.665 195.611 135.01 194.194 134.805 193.14C125.64 181.693 112.735 171.007 96.3109 165.349C96.3103 165.349 96.3097 165.349 96.3092 165.349L96.3065 165.348L96.2877 165.341L96.2131 165.317C96.1474 165.295 96.0506 165.263 95.9268 165.223C95.6792 165.143 95.3237 165.029 94.8935 164.897C94.0324 164.632 92.8749 164.293 91.6848 163.993C90.4907 163.692 89.2808 163.435 88.3095 163.329C87.822 163.276 87.4162 163.264 87.112 163.295C86.9604 163.311 86.8491 163.336 86.7719 163.364C86.6969 163.391 86.6749 163.414 86.6748 163.414C86.6749 163.414 86.6569 163.436 86.6404 163.508C86.6229 163.583 86.6124 163.692 86.6168 163.839C86.6255 164.135 86.6917 164.525 86.8103 164.99C87.0465 165.916 87.4674 167.053 87.9312 168.171C88.3933 169.285 88.891 170.362 89.2737 171.162C89.4649 171.561 89.6271 171.891 89.7413 172.12C89.7984 172.235 89.8435 172.325 89.8742 172.385L89.9092 172.454L89.9181 172.472L89.9209 172.477ZM96.4718 164.877L96.6312 164.404L96.6345 164.405C113.319 170.152 126.397 181.012 135.659 192.609L135.729 192.697L135.755 192.806C136.087 194.22 135.614 195.945 134.751 197.659C133.877 199.393 132.558 201.207 131.062 202.841C129.566 204.476 127.877 205.95 126.25 206.996C124.646 208.027 123.019 208.697 121.671 208.591L121.547 208.581L121.442 208.514C108.704 200.382 96.803 188.946 89.0297 172.927L89.0194 172.907L88.9831 172.836C88.9515 172.773 88.9054 172.682 88.8473 172.565C88.7312 172.332 88.5667 171.997 88.3729 171.593C87.9857 170.784 87.48 169.689 87.0088 168.554C86.5392 167.422 86.0967 166.232 85.8427 165.236C85.7161 164.74 85.6305 164.27 85.6186 163.869C85.6076 163.494 85.6557 163.056 85.9302 162.748C86.2021 162.444 86.6325 162.341 87.0097 162.302C87.4145 162.26 87.8994 162.281 88.4177 162.337C89.458 162.45 90.7205 162.721 91.9289 163.025C93.1412 163.331 94.3162 163.675 95.187 163.943C95.6227 164.077 95.983 164.192 96.2347 164.273C96.3606 164.314 96.4593 164.347 96.5268 164.369L96.604 164.395L96.6312 164.404C96.6313 164.404 96.6312 164.404 96.4718 164.877Z" fill="black"/>
<path d="M185.245 83.9623C167.647 92.3347 159.447 97.9635 144.604 111.222L159.302 124.348C169.223 116.725 178.586 109.218 207.127 103.504L185.245 83.9623Z" fill="white"/>
<path fill-rule="evenodd" clip-rule="evenodd" d="M143.854 111.222L159.278 124.995L159.606 124.743C159.789 124.602 159.972 124.462 160.155 124.321C164.926 120.653 169.617 117.046 176.454 113.657C183.553 110.137 192.985 106.844 207.225 103.993L208.205 103.797L185.33 83.3688L185.03 83.5114C167.386 91.9059 159.147 97.5622 144.271 110.849L143.854 111.222ZM185.16 84.5555L206.052 103.212C192.291 106.03 183.042 109.276 176.01 112.763C169.084 116.196 164.326 119.855 159.559 123.52C159.481 123.58 159.403 123.64 159.326 123.699L145.353 111.222C159.818 98.3332 167.979 92.7488 185.16 84.5555Z" fill="black"/>
<path d="M236.133 117.787C236.133 117.787 234.801 101.076 220.99 109.226C218.315 110.784 209.886 117.078 206.132 114.885C206.132 114.885 211.088 123.777 219.585 118.717C228.294 113.51 234.437 114.209 236.133 117.787Z" fill="#ED1C24"/>
<path d="M223.508 105.835C223.508 105.835 218.908 97.7907 212.963 106.054C212.407 106.881 208.451 113.032 205.467 113.65C205.467 113.65 209.213 115.355 214.053 111.15C218.884 106.964 220.512 105.062 223.508 105.835Z" fill="#ED1C24"/>
<path d="M221.847 127.151C230.342 124.559 234.656 124.82 238.058 129.489C238.058 129.489 240.032 109.97 220.736 120.498C213.837 124.264 210.244 121.252 210.097 121.178C210.579 122.551 213.352 129.743 221.847 127.151Z" fill="#ED1C24"/>
<path d="M218.713 99.5412C209.243 87.8559 196.609 77.3821 179.916 71.4972C179.916 71.4972 171.112 68.1733 169.993 69.4255C168.874 70.6777 172.92 79.3254 172.92 79.3254C180.458 95.1503 192.649 106.855 205.154 114.714C210.212 115.315 219.61 104.179 218.713 99.5412Z" fill="white"/>
<path fill-rule="evenodd" clip-rule="evenodd" d="M179.739 71.9641C179.739 71.9641 179.739 71.9641 179.794 71.8199L179.739 71.9641L179.749 71.968C196.29 77.799 208.827 88.1651 218.242 99.7538C218.386 100.74 218.027 102.133 217.236 103.732C216.425 105.373 215.203 107.145 213.79 108.764C212.377 110.383 210.79 111.83 209.259 112.831C207.76 113.811 206.391 114.314 205.321 114.229C192.913 106.41 180.841 94.7919 173.372 79.1123C173.372 79.1118 173.371 79.1113 173.371 79.1107L173.37 79.1081L173.362 79.0902L173.329 79.0188C173.3 78.956 173.257 78.8635 173.203 78.745C173.096 78.508 172.943 78.1677 172.763 77.7552C172.403 76.9295 171.936 75.8178 171.504 74.6693C171.071 73.517 170.68 72.3441 170.465 71.391C170.358 70.9128 170.3 70.5111 170.297 70.2054C170.295 70.0531 170.308 69.9396 170.327 69.8598C170.346 69.7822 170.365 69.7579 170.365 69.7578C170.365 69.7579 170.385 69.7375 170.455 69.713C170.528 69.6872 170.635 69.6646 170.782 69.6524C171.077 69.6278 171.472 69.6498 171.947 69.7153C172.894 69.8459 174.072 70.1362 175.236 70.4713C176.395 70.8053 177.521 71.1786 178.359 71.469C178.778 71.614 179.123 71.7381 179.364 71.8258C179.485 71.8696 179.579 71.9043 179.643 71.928L179.715 71.9551L179.733 71.9619L179.739 71.9641ZM172.92 79.3253L172.468 79.5368L172.47 79.5399C180.056 95.4675 192.321 107.239 204.889 115.136L204.984 115.196L205.095 115.209C206.538 115.381 208.199 114.717 209.806 113.667C211.432 112.604 213.086 111.09 214.543 109.42C216 107.75 217.275 105.907 218.131 104.174C218.977 102.465 219.459 100.773 219.203 99.4463L219.179 99.3238L219.101 99.2269C209.587 87.4872 196.882 76.9503 180.087 71.0282L180.065 71.0202L179.99 70.9922C179.925 70.9678 179.828 70.9324 179.706 70.8878C179.461 70.7986 179.11 70.6728 178.686 70.5258C177.838 70.232 176.694 69.8526 175.512 69.5121C174.334 69.1728 173.102 68.8669 172.084 68.7264C171.576 68.6565 171.099 68.6242 170.699 68.6575C170.325 68.6887 169.895 68.7857 169.621 69.0929C169.349 69.3972 169.294 69.8363 169.298 70.2153C169.302 70.6221 169.377 71.1015 169.491 71.6101C169.721 72.6307 170.131 73.8544 170.57 75.0205C171.01 76.1905 171.484 77.319 171.848 78.1539C172.03 78.5717 172.185 78.9167 172.294 79.1575C172.349 79.278 172.392 79.3724 172.422 79.4369L172.456 79.5108L172.468 79.5368C172.468 79.5369 172.468 79.5368 172.92 79.3253Z" fill="black"/>
<path d="M131.214 163.584C92.7495 139.1 56.8612 104.692 33.4309 56.5216C33.4309 56.5216 20.4097 31.1926 23.8053 27.4031C27.2008 23.6137 54.6586 32.832 54.6586 32.832C104.951 50.1014 144.401 82.7574 172.358 117.669C175.893 132.665 145.507 164.703 131.214 163.584Z" fill="white"/>
<path fill-rule="evenodd" clip-rule="evenodd" d="M33.8752 56.2937C33.8753 56.2939 33.8754 56.294 33.4304 56.5214L33.8752 56.2937L33.8804 56.3038C57.2405 104.33 93.0121 138.654 131.376 163.096C134.763 163.312 139.174 161.602 143.899 158.571C148.659 155.519 153.655 151.18 158.102 146.333C162.55 141.486 166.434 136.147 168.984 131.103C171.517 126.089 172.69 121.451 171.896 117.891C143.989 83.0707 104.638 50.5216 54.4968 33.3036C54.4962 33.3035 54.4957 33.3033 54.4952 33.3031L54.4937 33.3026L54.4791 33.2977L54.4208 33.2783C54.3691 33.2611 54.2923 33.2356 54.1918 33.2024C53.9907 33.1361 53.6951 33.0393 53.3174 32.9173C52.562 32.6733 51.4786 32.3288 50.1678 31.9271C47.5454 31.1236 44.0158 30.0923 40.3825 29.1797C36.7452 28.2661 33.021 27.4757 30.0038 27.1481C28.4934 26.9841 27.182 26.9386 26.1566 27.0441C25.1034 27.1523 24.4698 27.4089 24.1776 27.735C23.8881 28.0581 23.7129 28.6982 23.7433 29.7273C23.7728 30.73 23.9931 31.99 24.3608 33.4281C25.0951 36.3008 26.3936 39.7962 27.8061 43.1922C29.217 46.5842 30.7345 49.8602 31.8999 52.2893C32.4825 53.5036 32.9767 54.5054 33.3252 55.2035C33.4994 55.5525 33.6371 55.8255 33.7312 56.011C33.7783 56.1038 33.8144 56.1747 33.8387 56.2224L33.8662 56.2762L33.8752 56.2937ZM54.6581 32.8318L54.8178 32.3594L54.821 32.3605C105.221 49.667 144.745 82.3888 172.748 117.358L172.819 117.445L172.844 117.555C173.769 121.478 172.467 126.426 169.877 131.551C167.276 136.696 163.333 142.109 158.84 147.006C154.346 151.903 149.286 156.301 144.44 159.41C139.615 162.504 134.918 164.374 131.174 164.081L131.05 164.071L130.945 164.004C92.4208 139.482 56.4617 105.011 32.9829 56.7439L32.9757 56.7299L32.9476 56.6749C32.9228 56.6264 32.8863 56.5547 32.8388 56.461C32.7438 56.2737 32.6051 55.9988 32.4299 55.6478C32.0795 54.9459 31.583 53.9393 30.9979 52.7197C29.8279 50.2812 28.3024 46.9881 26.8824 43.5742C25.4641 40.1643 24.1439 36.6169 23.3918 33.6746C23.0162 32.2053 22.7764 30.8648 22.7437 29.7569C22.7119 28.6755 22.8726 27.6952 23.432 27.0709C23.9887 26.4497 24.9559 26.1654 26.0543 26.0524C27.1804 25.9367 28.5711 25.9897 30.1124 26.157C33.1986 26.4921 36.9755 27.2958 40.6271 28.213C44.2826 29.1312 47.8297 30.1677 50.4618 30.9742C51.7781 31.3776 52.8664 31.7236 53.6259 31.9689C54.0056 32.0916 54.3032 32.1891 54.506 32.256C54.6075 32.2894 54.6852 32.3152 54.7377 32.3327L54.8164 32.3589L54.8178 32.3594C54.818 32.3595 54.8178 32.3594 54.6581 32.8318Z" fill="black"/>
<path d="M73.4239 71.5882C67.1588 78.2724 61.2538 79.6911 58.1827 79.5517C57.3815 79.5153 56.6625 79.1136 56.0609 78.5834L49.0102 72.3691C48.2263 71.6781 48.9738 69.7842 49.9977 69.5747C53.2439 68.9105 57.7186 66.8547 62.3938 61.8667C67.5766 56.3372 69.0936 50.8522 69.2221 47.1408C69.2568 46.1375 70.7325 45.3272 71.4857 45.9911L79.8956 53.4034C80.75 56.2519 80.6517 63.8768 73.4239 71.5882Z" fill="white"/>
<path fill-rule="evenodd" clip-rule="evenodd" d="M80.3739 53.2599C81.2833 56.292 81.1279 64.0987 73.7882 71.9294C67.4396 78.7027 61.3992 80.1972 58.16 80.0501C57.2033 80.0067 56.3798 79.5297 55.7307 78.9576L48.68 72.7434C48.3629 72.4639 48.2244 72.0819 48.1924 71.7135C48.1605 71.3471 48.2295 70.9645 48.3578 70.618C48.6012 69.9602 49.1401 69.2405 49.8976 69.0856C53.0326 68.4441 57.4177 66.4456 62.0295 61.5253C67.1285 56.0851 68.5987 50.7157 68.7231 47.1234C68.7487 46.3838 69.2861 45.7955 69.8526 45.4986C70.4161 45.2032 71.2214 45.0926 71.8159 45.6166L80.2762 53.0732L80.0173 53.3667L80.3739 53.2599ZM79.4558 53.681L71.1555 46.3654C70.9968 46.2255 70.6877 46.1881 70.3163 46.3827C69.948 46.5758 69.7302 46.8942 69.7211 47.1579C69.5884 50.9885 68.0247 56.589 62.7582 62.2078C58.0196 67.2635 53.4552 69.3766 50.0979 70.0635C49.8314 70.1181 49.4846 70.4502 49.2943 70.9644C49.2056 71.204 49.1707 71.4375 49.1872 71.6271C49.2035 71.8147 49.2656 71.9286 49.3404 71.9946L56.3911 78.2089C56.9452 78.6972 57.5597 79.0236 58.2053 79.0529C61.1084 79.1847 66.8779 77.8419 73.0595 71.2468C80.0593 63.7787 80.2134 56.4548 79.4558 53.681Z" fill="black"/>
<path d="M76.1336 92.833C74.8997 91.7312 74.793 89.838 75.8952 88.6045L90.5309 72.2262C91.6331 70.9927 93.5269 70.886 94.7608 71.9879C95.9947 73.0898 96.1014 74.983 94.9992 76.2165L80.3635 92.5948C79.2613 93.8283 77.3675 93.9349 76.1336 92.833Z" fill="#C4C4C4"/>
<path d="M87.1186 94.8294C85.8847 93.7275 85.7779 91.8343 86.8802 90.6008L92.8675 83.9006C93.9697 82.6671 95.8635 82.5605 97.0974 83.6624C98.3313 84.7642 98.438 86.6574 97.3358 87.8909L91.3485 94.5911C90.2462 95.8246 88.3524 95.9313 87.1186 94.8294Z" fill="#C4C4C4"/>
<path d="M98.1036 97.824C96.8697 96.7221 96.763 94.8289 97.8652 93.5955C98.9674 92.362 100.861 92.2553 102.095 93.3572C103.329 94.4591 103.436 96.3523 102.333 97.5858C101.231 98.8192 99.3375 98.9259 98.1036 97.824Z" fill="#C4C4C4"/>
<path fill-rule="evenodd" clip-rule="evenodd" d="M273.382 262.764L193.695 203.506L194.291 202.705L273.978 261.963L273.382 262.764Z" fill="url(#paint1_radial)"/>
<path fill-rule="evenodd" clip-rule="evenodd" d="M238.848 271.519L134.255 205.747L134.787 204.902L239.38 270.674L238.848 271.519Z" fill="url(#paint2_radial)"/>
<path fill-rule="evenodd" clip-rule="evenodd" d="M294.686 216.359L220.653 127L221.422 126.363L295.455 215.722L294.686 216.359Z" fill="url(#paint3_radial)"/>
<path fill-rule="evenodd" clip-rule="evenodd" d="M296.647 256.642L203.154 167.597L203.843 166.875L297.336 255.919L296.647 256.642Z" fill="url(#paint4_radial)"/>
<defs>
<linearGradient id="paint0_linear" x1="339.038" y1="231.629" x2="374.008" y2="333.611" gradientUnits="userSpaceOnUse">
<stop stop-color="white"/>
<stop offset="1" stop-color="white" stop-opacity="0"/>
</linearGradient>
<radialGradient id="paint1_radial" cx="0" cy="0" r="1" gradientUnits="userSpaceOnUse" gradientTransform="translate(233.837 232.735) rotate(90) scale(29.6291 39.8437)">
<stop stop-color="#ED1C24" stop-opacity="0.78"/>
<stop offset="1" stop-color="#ED1C24" stop-opacity="0"/>
</radialGradient>
<radialGradient id="paint2_radial" cx="0" cy="0" r="1" gradientUnits="userSpaceOnUse" gradientTransform="translate(186.817 238.21) rotate(87.2485) scale(35.3571 50.6575)">
<stop stop-color="#ED1C24" stop-opacity="0.78"/>
<stop offset="1" stop-color="#ED1C24" stop-opacity="0"/>
</radialGradient>
<radialGradient id="paint3_radial" cx="0" cy="0" r="1" gradientUnits="userSpaceOnUse" gradientTransform="translate(258.054 171.361) rotate(115.31) scale(24.5788 52.5644)">
<stop stop-color="#ED1C24" stop-opacity="0.78"/>
<stop offset="1" stop-color="#ED1C24" stop-opacity="0"/>
</radialGradient>
<radialGradient id="paint4_radial" cx="0" cy="0" r="1" gradientUnits="userSpaceOnUse" gradientTransform="translate(250.245 211.758) rotate(90) scale(44.5224 46.7467)">
<stop stop-color="#ED1C24" stop-opacity="0.78"/>
<stop offset="1" stop-color="#ED1C24" stop-opacity="0"/>
</radialGradient>
</defs>
</svg>
