<svg width="614" height="518" viewBox="0 0 614 518" fill="none" xmlns="http://www.w3.org/2000/svg">
<path d="M305.091 373.105V447.257C305.091 452.78 309.568 457.257 315.091 457.257H495.39" stroke="#2D2D2D"/>
<path d="M152.222 362.675H209.225C214.748 362.675 219.225 358.197 219.225 352.675V332.276C219.225 326.753 223.702 322.276 229.225 322.276H247.8" stroke="#2D2D2D"/>
<path d="M286.228 169.08V231.148C286.228 236.671 290.705 241.148 296.228 241.148H341.37C346.893 241.148 351.37 245.625 351.37 251.148V292.238" stroke="#2D2D2D"/>
<path d="M612.665 516.778H474.064V282.955C474.064 244.682 505.091 213.655 543.365 213.655C581.638 213.655 612.665 244.682 612.665 282.955V516.778Z" stroke="black"/>
<path d="M428.566 348.804C429.81 343.063 430.234 347.227 431.671 356.496C432.776 363.628 433.142 367.801 431.334 369.834L437.516 390.388L423.138 391.937L418.029 375.206C414.596 375.18 406.239 356.637 402.245 347.468C401.946 344.235 407.859 351.37 410.663 355.547C408.617 351.344 403.862 341.079 404.896 339.488C405.93 337.897 412.137 348.945 414.342 354.062C412.314 348.174 408.467 335.98 409.299 334.303C410.131 332.626 415.53 345.758 418.126 352.534C416.399 346.525 412.594 332.808 415.025 334.677C418.064 337.013 424.238 356.773 426.085 358.751C427.932 360.73 427.321 354.546 428.566 348.804Z" fill="white"/>
<path d="M427.785 371.267C427.853 371.197 431.262 369.915 431.334 369.834M431.334 369.834C433.142 367.801 432.776 363.628 431.671 356.496C430.234 347.227 429.81 343.063 428.566 348.804C427.321 354.546 427.932 360.73 426.085 358.751C424.238 356.773 418.064 337.013 415.025 334.677C412.594 332.808 416.399 346.525 418.126 352.534C415.53 345.758 410.131 332.626 409.299 334.303C408.467 335.98 412.314 348.174 414.342 354.062C412.137 348.945 405.93 337.897 404.896 339.488C403.862 341.079 408.617 351.344 410.663 355.547C407.859 351.37 401.946 344.235 402.245 347.468C406.239 356.637 414.596 375.18 418.029 375.206L423.138 391.937L437.516 390.388L431.334 369.834Z" stroke="#2D2D2D" stroke-linejoin="round"/>
<path d="M446.501 401.215C463.493 434.17 465.175 427.727 480.501 402.453C480.501 402.453 493.05 375.74 501.742 369.112C510.435 362.484 509.336 404.225 509.336 404.225C503.987 417.337 510.884 416.972 480.501 447.892C453.609 475.26 420.542 407.815 417.482 377.127C418.091 377.128 436.068 371.685 436.068 371.685C436.068 371.685 439.826 388.27 446.501 401.215Z" fill="#D4E4F3" stroke="black" stroke-linejoin="round"/>
<path d="M489.434 450.077V503.412H401.968V436.602L489.434 450.077Z" fill="#EBEBEB" stroke="#2D2D2D"/>
<path d="M540.515 356.307C528.68 354.255 511.941 360.383 500.433 369.416C495.502 373.285 493.528 379.596 493.792 385.858L499.324 517.037H570.191L580.191 382.978C580.984 361.636 558.748 359.469 540.515 356.307Z" fill="#D4E4F3" stroke="#2D2D2D"/>
<path d="M550.594 307.077L535.956 302.992L515.515 336.168L516.463 369.348L543.509 356.621L541.064 322.311L547.953 319.341L550.594 307.077Z" fill="white" stroke="#2D2D2D"/>
<rect x="505.776" y="284.509" width="31.3525" height="59.889" rx="9.5" fill="white" stroke="#2D2D2D"/>
<path d="M151.017 386.171H0.239746V215.581H151.017V386.171Z" fill="white"/>
<path d="M393.82 171.085H243.042V0.494629H393.82V171.085Z" fill="#D4E5F3"/>
<path d="M307.752 103.829C272.451 108.917 271.468 150.29 272.926 170.962H396.896V132.543C390.999 101.908 359.56 105.273 340.602 103.829L307.752 103.829Z" fill="white" stroke="black"/>
<path d="M240.244 62.0721C239.745 59.6877 235.818 52.8265 234.416 52.8265C232.401 52.8265 235.881 59.8318 237.474 66.0984C238.67 70.8042 239.143 75.4885 240.244 76.6516L237.677 90.8277L251.061 89.3484C251.061 87.6849 250.074 76.3014 252.469 76.0352C255.464 75.7025 259.878 65.719 259.878 62.7247C259.878 60.3291 257.993 61.7265 257.05 62.7247C255.352 64.522 252.22 69.8728 250.223 66.5457C248.227 63.2186 251.98 55.33 254.995 55.3616C258.011 55.3932 257.489 60.7859 258.88 60.7283C260.271 60.6707 260.687 58.8105 258.425 54.0195C256.163 49.2284 247.241 54.094 245.899 59.0826C246.9 55.3616 252.392 43.352 251.061 42.1541C249.73 40.9563 245.197 53.2047 243.256 59.0826C243.034 53.9257 242.629 41.1607 240.244 42.1541C238.647 42.8196 239.579 56.1942 240.244 62.0721Z" fill="white"/>
<path d="M240.244 62.0721L239.755 62.1745C239.81 62.4359 240.06 62.6081 240.324 62.5657C240.587 62.5233 240.771 62.2812 240.741 62.0158L240.244 62.0721ZM240.244 42.1541L240.437 42.6157L240.244 42.1541ZM243.256 59.0826L242.756 59.1041C242.767 59.3453 242.948 59.5447 243.187 59.5779C243.426 59.6111 243.655 59.4686 243.731 59.2394L243.256 59.0826ZM251.061 42.1541L251.396 41.7825L251.396 41.7825L251.061 42.1541ZM245.416 58.9527C245.344 59.2194 245.502 59.4937 245.769 59.5654C246.036 59.6372 246.31 59.4792 246.382 59.2125L245.416 58.9527ZM258.425 54.0195L258.877 53.806L258.425 54.0195ZM257.05 62.7247L256.686 62.3813L257.05 62.7247ZM252.469 76.0352L252.524 76.5321L252.469 76.0352ZM251.061 89.3484L251.116 89.8454L251.561 89.7962V89.3484H251.061ZM237.677 90.8277L237.185 90.7386L237.065 91.3983L237.732 91.3246L237.677 90.8277ZM240.244 76.6516L240.736 76.7407C240.765 76.5841 240.717 76.4234 240.607 76.3078L240.244 76.6516ZM237.474 66.0984L237.959 65.9752L237.474 66.0984ZM234.416 53.3265C234.412 53.3265 234.512 53.3384 234.738 53.5178C234.944 53.6808 235.19 53.9302 235.466 54.2579C236.016 54.9109 236.639 55.8191 237.241 56.8142C237.842 57.8069 238.416 58.8727 238.868 59.8343C239.325 60.806 239.643 61.6383 239.755 62.1745L240.734 61.9697C240.596 61.3137 240.236 60.3941 239.773 59.4087C239.305 58.4133 238.715 57.3167 238.097 56.2961C237.48 55.2779 236.827 54.3217 236.231 53.6137C235.934 53.261 235.639 52.9556 235.359 52.7342C235.101 52.529 234.771 52.3265 234.416 52.3265V53.3265ZM240.741 62.0158C240.41 59.0881 240.012 54.2893 239.896 50.1445C239.838 48.0698 239.851 46.1746 239.975 44.7644C240.038 44.0565 240.126 43.4931 240.239 43.0974C240.296 42.899 240.353 42.7633 240.404 42.6782C240.457 42.5881 240.477 42.599 240.437 42.6157L240.052 41.6926C239.812 41.7925 239.652 41.9858 239.544 42.1676C239.433 42.3544 239.347 42.58 239.278 42.8225C239.139 43.3085 239.043 43.9452 238.979 44.6766C238.85 46.1449 238.838 48.0855 238.896 50.1724C239.013 54.3507 239.414 59.1782 239.748 62.1283L240.741 62.0158ZM240.437 42.6157C240.49 42.5934 240.513 42.5991 240.525 42.6028C240.547 42.6093 240.6 42.6337 240.679 42.7209C240.847 42.9054 241.032 43.2608 241.215 43.8121C241.575 44.8979 241.851 46.5184 242.064 48.3691C242.489 52.0586 242.645 56.5173 242.756 59.1041L243.755 59.0611C243.645 56.491 243.487 51.9887 243.058 48.2548C242.844 46.3938 242.558 44.687 242.164 43.4977C241.97 42.9114 241.731 42.3923 241.419 42.0487C241.259 41.8719 241.059 41.7188 240.812 41.6449C240.557 41.5683 240.297 41.5907 240.052 41.6926L240.437 42.6157ZM243.731 59.2394C244.699 56.3082 246.312 51.7902 247.848 48.1597C248.617 46.3404 249.358 44.7647 249.982 43.7244C250.298 43.1968 250.561 42.8467 250.759 42.6666C250.861 42.5747 250.904 42.5658 250.891 42.5688C250.844 42.58 250.77 42.5646 250.727 42.5258L251.396 41.7825C251.186 41.5939 250.921 41.5339 250.66 41.5958C250.434 41.6495 250.241 41.7866 250.087 41.9264C249.775 42.2099 249.45 42.6661 249.124 43.2102C248.463 44.3133 247.7 45.9424 246.927 47.7702C245.377 51.4339 243.754 55.9792 242.781 58.9258L243.731 59.2394ZM250.727 42.5258C250.701 42.5026 250.723 42.5043 250.744 42.604C250.764 42.6997 250.774 42.8439 250.763 43.0454C250.741 43.4476 250.641 43.993 250.472 44.6582C250.136 45.9837 249.55 47.6926 248.885 49.4994C248.22 51.3049 247.485 53.184 246.848 54.8583C246.215 56.5203 245.674 57.9934 245.416 58.9527L246.382 59.2125C246.624 58.3113 247.145 56.8878 247.782 55.214C248.415 53.5525 249.157 51.6567 249.824 49.8449C250.49 48.0345 251.091 46.2839 251.441 44.9043C251.616 44.2171 251.734 43.5986 251.762 43.1003C251.775 42.8514 251.768 42.6112 251.723 42.3975C251.678 42.1879 251.588 41.9554 251.396 41.7825L250.727 42.5258ZM246.382 59.2125C246.688 58.0734 247.44 56.9063 248.461 55.8631C249.48 54.8229 250.742 53.9322 252.027 53.3374C253.318 52.7397 254.591 52.4594 255.643 52.5844C256.667 52.706 257.489 53.2082 257.973 54.233L258.877 53.806C258.23 52.4353 257.088 51.749 255.761 51.5913C254.462 51.437 252.997 51.7866 251.607 52.43C250.211 53.0763 248.849 54.0379 247.747 55.1634C246.648 56.2857 245.781 57.5975 245.416 58.9527L246.382 59.2125ZM257.973 54.233C259.097 56.6136 259.518 58.194 259.522 59.1512C259.525 59.6255 259.424 59.8871 259.318 60.0233C259.226 60.143 259.089 60.2192 258.859 60.2287L258.9 61.2279C259.367 61.2086 259.803 61.0307 260.109 60.6357C260.402 60.2571 260.525 59.7435 260.522 59.1467C260.517 57.9616 260.015 56.2163 258.877 53.806L257.973 54.233ZM258.859 60.2287C258.856 60.2289 258.857 60.2286 258.859 60.2291C258.862 60.2296 258.863 60.2303 258.862 60.2299C258.86 60.2289 258.843 60.2198 258.813 60.1856C258.746 60.1099 258.666 59.9692 258.576 59.7372C258.389 59.2558 258.251 58.6568 258.024 57.9293C257.811 57.2474 257.529 56.4985 257.073 55.9142C256.601 55.3078 255.933 54.8714 255.001 54.8616L254.99 55.8615C255.565 55.8676 255.963 56.1171 256.285 56.529C256.623 56.9629 256.862 57.5645 257.07 58.2275C257.263 58.8449 257.444 59.5853 257.644 60.0998C257.748 60.3658 257.879 60.6371 258.062 60.8455C258.257 61.0682 258.537 61.2429 258.9 61.2279L258.859 60.2287ZM255.001 54.8616C254.036 54.8515 253.11 55.4637 252.333 56.2843C251.541 57.1216 250.823 58.2597 250.273 59.4901C249.723 60.7217 249.329 62.0712 249.205 63.3414C249.081 64.6027 249.218 65.8425 249.795 66.803L250.652 66.2885C250.23 65.5854 250.087 64.5915 250.2 63.4389C250.312 62.2952 250.671 61.0507 251.186 59.8982C251.702 58.7445 252.363 57.7084 253.06 56.9715C253.773 56.2178 254.447 55.8559 254.99 55.8615L255.001 54.8616ZM249.795 66.803C250.073 67.2664 250.393 67.6163 250.762 67.8389C251.139 68.066 251.541 68.1439 251.945 68.1024C252.716 68.0231 253.45 67.5115 254.087 66.9247C254.74 66.3236 255.374 65.564 255.938 64.8608C256.515 64.141 257.007 63.4978 257.413 63.068L256.686 62.3813C256.244 62.8502 255.708 63.5499 255.158 64.2349C254.595 64.9365 254.002 65.6437 253.41 66.1891C252.802 66.7488 252.273 67.0634 251.842 67.1077C251.644 67.1281 251.461 67.0922 251.278 66.9822C251.088 66.8676 250.873 66.6569 250.652 66.2885L249.795 66.803ZM257.413 63.068C257.634 62.8347 257.908 62.5797 258.191 62.3655C258.481 62.1462 258.749 61.9938 258.96 61.9314C259.168 61.8697 259.209 61.9212 259.216 61.9284C259.261 61.973 259.378 62.1609 259.378 62.7247H260.378C260.378 62.0907 260.259 61.5549 259.921 61.219C259.545 60.8456 259.056 60.8597 258.675 60.9727C258.297 61.0849 257.917 61.3194 257.588 61.5679C257.252 61.8216 256.937 62.1156 256.686 62.3813L257.413 63.068ZM259.378 62.7247C259.378 63.386 259.126 64.5055 258.668 65.8607C258.215 67.1992 257.579 68.7162 256.851 70.1518C256.121 71.59 255.306 72.929 254.502 73.9212C254.099 74.4174 253.709 74.8144 253.344 75.093C252.975 75.3748 252.663 75.5106 252.414 75.5383L252.524 76.5321C253.024 76.4767 253.505 76.2276 253.951 75.8881C254.4 75.5454 254.846 75.0844 255.278 74.5511C256.144 73.4842 256.994 72.0778 257.742 70.6044C258.492 69.1282 259.146 67.5671 259.615 66.1811C260.078 64.8119 260.378 63.5605 260.378 62.7247H259.378ZM252.414 75.5383C251.894 75.596 251.533 75.9532 251.291 76.3598C251.049 76.7674 250.877 77.301 250.75 77.8881C250.495 79.0681 250.393 80.6078 250.367 82.1593C250.34 83.7175 250.389 85.3161 250.445 86.625C250.501 87.9516 250.561 88.9462 250.561 89.3484H251.561C251.561 88.9189 251.498 87.8667 251.444 86.5828C251.389 85.281 251.341 83.7052 251.367 82.1763C251.393 80.6407 251.494 79.1806 251.727 78.0993C251.845 77.5558 251.989 77.1434 252.151 76.8711C252.313 76.5977 252.445 76.5409 252.524 76.5321L252.414 75.5383ZM251.006 88.8515L237.622 90.3307L237.732 91.3246L251.116 89.8454L251.006 88.8515ZM238.169 90.9168L240.736 76.7407L239.752 76.5624L237.185 90.7386L238.169 90.9168ZM240.607 76.3078C240.415 76.1049 240.207 75.6893 239.991 75.0204C239.782 74.3697 239.586 73.5489 239.384 72.5994C238.983 70.7178 238.56 68.3399 237.959 65.9752L236.99 66.2215C237.585 68.5627 237.996 70.8798 238.406 72.8076C238.609 73.7627 238.813 74.6252 239.039 75.327C239.26 76.0105 239.523 76.6166 239.881 76.9953L240.607 76.3078ZM237.959 65.9752C237.158 62.8234 235.873 59.4548 235.068 56.959C234.658 55.6877 234.38 54.666 234.318 53.9743C234.286 53.6196 234.32 53.431 234.357 53.3503C234.371 53.3209 234.377 53.3242 234.365 53.3311C234.355 53.3373 234.364 53.3265 234.416 53.3265V52.3265C234.217 52.3265 234.016 52.3704 233.837 52.4823C233.656 52.5949 233.531 52.7548 233.45 52.9292C233.299 53.2561 233.286 53.6637 233.322 54.0637C233.395 54.8813 233.709 56.0026 234.116 57.2659C234.946 59.8394 236.198 63.1068 236.99 66.2215L237.959 65.9752Z" fill="black"/>
<path d="M249.295 102.836C239.662 129.98 248.935 144.633 269.622 125.948C269.622 125.948 287.812 109.232 299.246 105.965C310.68 102.699 297.663 138.472 297.663 138.472C287.046 149.633 291.13 146.639 249.296 160.251C209.605 173.166 224.303 110.681 236.161 80.3984C242.673 84.7393 246.904 85.0605 254.969 83.7441C254.969 83.7441 249.755 101.543 249.295 102.836Z" fill="white" stroke="black" stroke-linejoin="round"/>
<path d="M323.227 116.717L321.627 91.4471L336.981 86.3291L351.481 109.466C346.307 119.298 333.936 125.84 323.227 116.717Z" fill="white" stroke="black"/>
<mask id="path-19-inside-1" fill="white">
<path fill-rule="evenodd" clip-rule="evenodd" d="M325.447 39.7051C335.702 39.1096 344.676 46.5377 346.007 56.7241L346.872 63.3456C347.246 63.328 347.628 63.3571 348.012 63.4375C350.447 63.9484 352.008 66.337 351.497 68.7727C351.12 70.5695 349.721 71.89 348.035 72.2539L348.42 75.1975C349.953 86.93 341.239 97.5111 329.431 98.2573C317.953 98.9826 308.134 90.1047 307.704 78.6123L307.006 59.9949C306.607 49.3403 314.803 40.3231 325.447 39.7051Z"/>
</mask>
<path fill-rule="evenodd" clip-rule="evenodd" d="M325.447 39.7051C335.702 39.1096 344.676 46.5377 346.007 56.7241L346.872 63.3456C347.246 63.328 347.628 63.3571 348.012 63.4375C350.447 63.9484 352.008 66.337 351.497 68.7727C351.12 70.5695 349.721 71.89 348.035 72.2539L348.42 75.1975C349.953 86.93 341.239 97.5111 329.431 98.2573C317.953 98.9826 308.134 90.1047 307.704 78.6123L307.006 59.9949C306.607 49.3403 314.803 40.3231 325.447 39.7051Z" fill="white"/>
<path d="M346.007 56.7241L345.015 56.8536L346.007 56.7241ZM325.447 39.7051L325.389 38.7067L325.447 39.7051ZM346.872 63.3456L346.919 64.3445L345.999 64.3878L345.88 63.4751L346.872 63.3456ZM348.012 63.4375L347.806 64.4162L347.806 64.4162L348.012 63.4375ZM351.497 68.7727L352.476 68.978L351.497 68.7727ZM348.035 72.2539L347.044 72.3834L346.925 71.4707L347.824 71.2764L348.035 72.2539ZM348.42 75.1975L349.411 75.068L348.42 75.1975ZM307.704 78.6123L308.703 78.5748L307.704 78.6123ZM307.006 59.9949L306.007 60.0324L306.007 60.0324L307.006 59.9949ZM345.015 56.8536C343.752 47.1872 335.237 40.1383 325.505 40.7034L325.389 38.7067C336.168 38.0809 345.6 45.8882 346.998 56.5945L345.015 56.8536ZM345.88 63.4751L345.015 56.8536L346.998 56.5945L347.863 63.2161L345.88 63.4751ZM346.825 62.3467C347.283 62.3251 347.75 62.3608 348.217 62.4588L347.806 64.4162C347.506 64.3533 347.209 64.3308 346.919 64.3445L346.825 62.3467ZM348.217 62.4588C351.193 63.0831 353.1 66.0018 352.476 68.978L350.518 68.5674C350.916 66.6723 349.702 64.8137 347.806 64.4162L348.217 62.4588ZM352.476 68.978C352.015 71.1751 350.304 72.7872 348.246 73.2314L347.824 71.2764C349.138 70.9928 350.225 69.964 350.518 68.5674L352.476 68.978ZM347.428 75.327L347.044 72.3834L349.027 72.1244L349.411 75.068L347.428 75.327ZM329.368 97.2593C340.599 96.5496 348.886 86.4858 347.428 75.327L349.411 75.068C351.019 87.3741 341.88 98.4726 329.494 99.2553L329.368 97.2593ZM308.703 78.5748C309.113 89.5053 318.451 97.9491 329.368 97.2593L329.494 99.2553C317.455 100.016 307.156 90.7041 306.705 78.6497L308.703 78.5748ZM308.006 59.9575L308.703 78.5748L306.705 78.6497L306.007 60.0324L308.006 59.9575ZM325.505 40.7034C315.404 41.2899 307.627 49.8468 308.006 59.9575L306.007 60.0324C305.588 48.8339 314.201 39.3563 325.389 38.7067L325.505 40.7034Z" fill="black" mask="url(#path-19-inside-1)"/>
<path d="M300.298 49.7904C299.083 42.6098 309.935 37.5384 319.817 36.0089C319.817 36.0089 325.069 34.7544 330.728 35.5254C336.386 36.2965 339.163 40.8973 339.163 40.8973C340.191 39.9583 343.178 39.1281 345.926 43.0096C349.422 47.9486 349.85 56.8121 348.78 64.117C348.78 64.117 346.761 63.0477 343.689 64.4826C341.325 65.5866 339.854 69.3122 337.199 68.7554C334.34 68.1556 338.86 56.2159 334.073 53.2718C330.615 51.145 324.564 48.9222 319.208 52.7876C312.513 57.6192 301.658 57.8361 300.298 49.7904Z" fill="#C4C4C4" stroke="black"/>
<path d="M310.529 151.649C314.527 147.206 333.733 149.797 339.287 151.649L336.913 160.812C335.176 160.812 331.289 160.679 329.636 160.146C327.983 159.612 321.193 170.657 318.358 169.489L322.089 160.812L312.046 170.42L316.698 160.812C314.362 164.154 304.153 171.498 303.29 170.42C302.428 169.342 310.542 163.255 312.046 160.812C310.102 162.848 298.97 167.467 296.082 168.8C292.472 170.466 305.53 157.202 310.529 151.649Z" fill="white" stroke="black"/>
<path d="M245.129 170.959L232.213 114.061C231.968 112.984 232.665 112.111 233.77 112.111H309.338C310.443 112.111 311.537 112.984 311.781 114.061L324.698 170.959H245.129Z" fill="#C4C4C4" stroke="#2D2D2D" stroke-linejoin="round"/>
<path d="M415.299 171.765C415.299 165.52 400.312 124.364 384.702 112.732C384.621 112.672 384.536 112.627 384.44 112.596C376.457 110.009 360.057 117.732 367.652 136.677C367.676 136.737 367.707 136.797 367.742 136.851L386.801 166.072C387.361 166.93 386.421 168.001 385.5 167.552C376.801 163.315 353.105 152.245 337.869 149.628C337.396 149.547 336.947 149.824 336.786 150.275L332.775 161.508C332.598 162.004 332.826 162.548 333.306 162.766C346.364 168.705 372.506 186.727 388.849 191.298C400.821 194.645 415.299 192.925 415.299 171.765Z" fill="white" stroke="black"/>
<circle cx="74.187" cy="277.917" r="18.9185" fill="#0070CC" stroke="black"/>
<path d="M83.4288 291.202L81.229 261.772L99.1345 257.187L107.684 285.971L83.4288 291.202Z" fill="white" stroke="#2D2D2D" stroke-linejoin="round"/>
<mask id="path-27-inside-2" fill="white">
<path fill-rule="evenodd" clip-rule="evenodd" d="M62.2324 232.076C62.2324 232.076 79.2563 206.025 95.4229 209.366C104.032 211.146 109.849 224.218 112.682 237.304C113.215 237.484 113.721 237.765 114.165 238.153C116.079 239.826 115.951 242.688 113.909 244.225C115.144 253.139 114.899 261.077 113.108 264.17C108.305 272.467 80.3234 266.005 74.241 260.239C68.1587 254.473 62.2324 232.076 62.2324 232.076Z"/>
</mask>
<path fill-rule="evenodd" clip-rule="evenodd" d="M62.2324 232.076C62.2324 232.076 79.2563 206.025 95.4229 209.366C104.032 211.146 109.849 224.218 112.682 237.304C113.215 237.484 113.721 237.765 114.165 238.153C116.079 239.826 115.951 242.688 113.909 244.225C115.144 253.139 114.899 261.077 113.108 264.17C108.305 272.467 80.3234 266.005 74.241 260.239C68.1587 254.473 62.2324 232.076 62.2324 232.076Z" fill="white"/>
<path d="M95.4229 209.366L95.2205 210.346L95.4229 209.366ZM62.2324 232.076L61.2657 232.332L61.1518 231.901L61.3953 231.529L62.2324 232.076ZM112.682 237.304L112.363 238.252L111.825 238.071L111.704 237.516L112.682 237.304ZM114.165 238.153L113.507 238.906L113.507 238.906L114.165 238.153ZM113.909 244.225L112.918 244.362L112.837 243.779L113.307 243.425L113.909 244.225ZM113.108 264.17L112.243 263.669L113.108 264.17ZM95.2205 210.346C91.4759 209.572 87.6179 210.486 83.8707 212.396C80.1234 214.306 76.5612 217.176 73.4618 220.186C70.3673 223.19 67.7657 226.304 65.936 228.67C65.022 229.851 64.3027 230.844 63.813 231.539C63.5683 231.886 63.381 232.16 63.2556 232.345C63.1929 232.437 63.1456 232.508 63.1144 232.555C63.0989 232.578 63.0873 232.596 63.0797 232.607C63.076 232.613 63.0732 232.617 63.0715 232.62C63.0707 232.621 63.0701 232.622 63.0697 232.623C63.0696 232.623 63.0695 232.623 63.0694 232.623C63.0694 232.623 63.0695 232.623 62.2324 232.076C61.3953 231.529 61.3955 231.529 61.3957 231.528C61.3959 231.528 61.3962 231.527 61.3966 231.527C61.3973 231.526 61.3982 231.524 61.3995 231.522C61.4019 231.519 61.4053 231.514 61.4098 231.507C61.4188 231.493 61.4319 231.473 61.449 231.448C61.4832 231.396 61.5335 231.321 61.5995 231.223C61.7313 231.029 61.9256 230.745 62.1779 230.387C62.6823 229.671 63.4194 228.654 64.354 227.446C66.2214 225.031 68.8862 221.841 72.0685 218.751C75.2459 215.665 78.9709 212.649 82.9624 210.614C86.9541 208.58 91.2865 207.49 95.6253 208.387L95.2205 210.346ZM111.704 237.516C110.301 231.031 108.166 224.595 105.347 219.586C102.507 214.539 99.0928 211.146 95.2205 210.346L95.6253 208.387C100.362 209.366 104.161 213.399 107.09 218.605C110.04 223.847 112.23 230.491 113.659 237.093L111.704 237.516ZM113.507 238.906C113.166 238.609 112.777 238.391 112.363 238.252L113.001 236.356C113.654 236.576 114.275 236.922 114.823 237.4L113.507 238.906ZM113.307 243.425C114.853 242.262 114.933 240.152 113.507 238.906L114.823 237.4C117.226 239.5 117.049 243.113 114.51 245.024L113.307 243.425ZM112.243 263.669C113.006 262.351 113.514 259.81 113.644 256.343C113.772 252.928 113.53 248.775 112.918 244.362L114.899 244.087C115.523 248.588 115.776 252.861 115.643 256.418C115.511 259.921 115.002 262.896 113.974 264.671L112.243 263.669ZM74.929 259.514C76.2925 260.806 79.0168 262.235 82.545 263.513C86.036 264.777 90.1913 265.85 94.3078 266.49C98.4328 267.132 102.465 267.329 105.727 266.877C109.043 266.416 111.283 265.327 112.243 263.669L113.974 264.671C112.532 267.162 109.473 268.376 106.002 268.858C102.476 269.347 98.2317 269.124 94.0006 268.467C89.761 267.808 85.4803 266.703 81.864 265.393C78.2849 264.097 75.2307 262.556 73.553 260.965L74.929 259.514ZM62.2324 232.076C63.1991 231.82 63.1991 231.82 63.1991 231.82C63.1992 231.82 63.1992 231.82 63.1993 231.821C63.1994 231.821 63.1997 231.822 63.2 231.823C63.2007 231.826 63.2017 231.83 63.203 231.835C63.2058 231.845 63.2099 231.861 63.2155 231.882C63.2266 231.923 63.2434 231.985 63.2655 232.067C63.3098 232.23 63.3759 232.471 63.4622 232.781C63.6348 233.4 63.8885 234.292 64.212 235.381C64.8593 237.559 65.7848 240.522 66.8983 243.661C68.0129 246.803 69.3099 250.105 70.6985 252.97C72.1005 255.862 73.5472 258.204 74.929 259.514L73.553 260.965C71.8937 259.392 70.3187 256.771 68.8988 253.842C67.4656 250.886 66.1407 247.508 65.0134 244.33C63.885 241.149 62.9488 238.151 62.2948 235.95C61.9677 234.849 61.7109 233.947 61.5357 233.318C61.448 233.004 61.3808 232.758 61.3353 232.591C61.3126 232.507 61.2953 232.443 61.2836 232.399C61.2778 232.377 61.2734 232.361 61.2704 232.349C61.2689 232.344 61.2677 232.339 61.2669 232.336C61.2665 232.335 61.2662 232.334 61.266 232.333C61.2659 232.333 61.2658 232.332 61.2658 232.332C61.2657 232.332 61.2657 232.332 62.2324 232.076Z" fill="#2D2D2D" mask="url(#path-27-inside-2)"/>
<path d="M79.4114 256.095C71.8786 254.168 68.3795 243.213 77.0805 243.213C79.4114 243.213 83.2224 243.261 84.7229 245.177L96.5279 232.487C104.744 220.847 101.777 194.147 71.9679 214.932C61.1118 222.502 58.8366 231.457 60.6374 241.461C62.0833 249.493 73.1359 261.917 81.2292 263.301L79.4114 256.095Z" fill="#0070CC" stroke="#2D2D2D" stroke-linejoin="round"/>
<path fill-rule="evenodd" clip-rule="evenodd" d="M150.425 325.532L133.509 310.244L125.613 354.644L132.683 386.296H72.1541C69.0096 388.611 66.1872 390.415 63.8528 391.508C44.4343 400.594 51.057 331.098 52.6372 320.037C53.9014 311.188 71.5889 295.741 82.4982 291.168V277.11L104.272 274.538L106.416 282.068C115.761 281.794 130.038 281.826 132.683 283.617C134.558 284.887 135.709 286.661 136.357 288.162L157.251 311.778C159.164 313.94 162.668 313.426 163.878 310.805L182.551 270.373L192.312 270.374C187.556 291.649 181.621 313.789 174.295 324.195C167.98 333.163 163.983 336.798 150.425 325.532ZM70.4235 330.36C70.0734 330.983 69.8869 331.487 69.8869 331.851C69.8869 336.082 69.3965 345.125 68.9527 353.309C68.5859 360.073 68.251 366.249 68.251 368.637L75.2172 362.8C75.4505 351.442 73.9454 339.661 71.1094 333.232C70.724 332.358 70.5009 331.397 70.4235 330.36Z" fill="#2D2D2D"/>
<path d="M133.509 310.244L133.844 309.873L133.175 309.268L133.017 310.157L133.509 310.244ZM150.425 325.532L150.09 325.903L150.098 325.91L150.106 325.916L150.425 325.532ZM125.613 354.644L125.121 354.556L125.103 354.655L125.125 354.753L125.613 354.644ZM132.683 386.296V386.796H133.307L133.171 386.187L132.683 386.296ZM72.1541 386.296V385.796H71.9899L71.8577 385.894L72.1541 386.296ZM63.8528 391.508L64.0647 391.961L63.8528 391.508ZM52.6372 320.037L53.1322 320.108L52.6372 320.037ZM82.4982 291.168L82.6915 291.63L82.9982 291.501V291.168H82.4982ZM82.4982 277.11L82.4395 276.614L81.9982 276.666V277.11H82.4982ZM104.272 274.538L104.753 274.401L104.636 273.992L104.213 274.042L104.272 274.538ZM106.416 282.068L105.935 282.205L106.041 282.58L106.43 282.568L106.416 282.068ZM132.683 283.617L132.402 284.031L132.683 283.617ZM136.357 288.162L135.898 288.36L135.93 288.434L135.983 288.493L136.357 288.162ZM157.251 311.778L156.876 312.109L157.251 311.778ZM163.878 310.805L164.332 311.014L163.878 310.805ZM182.551 270.373L182.551 269.873L182.231 269.873L182.097 270.163L182.551 270.373ZM192.312 270.374L192.8 270.483L192.936 269.874L192.312 269.874L192.312 270.374ZM174.295 324.195L173.886 323.907L174.295 324.195ZM70.4235 330.36L70.9221 330.323L70.7987 328.671L69.9875 330.115L70.4235 330.36ZM68.9527 353.309L69.452 353.336L68.9527 353.309ZM68.251 368.637H67.751V369.708L68.5721 369.02L68.251 368.637ZM75.2172 362.8L75.5384 363.184L75.7125 363.038L75.7171 362.811L75.2172 362.8ZM71.1094 333.232L71.5669 333.03L71.1094 333.232ZM133.174 310.615L150.09 325.903L150.761 325.161L133.844 309.873L133.174 310.615ZM126.105 354.731L134.001 310.332L133.017 310.157L125.121 354.556L126.105 354.731ZM133.171 386.187L126.101 354.535L125.125 354.753L132.195 386.405L133.171 386.187ZM72.1541 386.796H132.683V385.796H72.1541V386.796ZM71.8577 385.894C68.7234 388.201 65.9316 389.983 63.6409 391.055L64.0647 391.961C66.4428 390.848 69.2958 389.021 72.4505 386.699L71.8577 385.894ZM63.6409 391.055C61.3321 392.135 59.4969 392.018 57.9969 391.076C56.4579 390.108 55.1803 388.216 54.1525 385.549C52.0998 380.223 51.1571 372.115 50.8702 363.311C50.2974 345.728 52.3449 325.619 53.1322 320.108L52.1423 319.966C51.3494 325.516 49.2955 345.686 49.8708 363.344C50.158 372.161 51.1018 380.414 53.2194 385.909C54.2768 388.652 55.6554 390.785 57.4648 391.922C59.3132 393.084 61.5189 393.152 64.0647 391.961L63.6409 391.055ZM53.1322 320.108C53.4309 318.017 54.7158 315.473 56.7068 312.73C58.6893 309.999 61.336 307.119 64.2917 304.365C70.21 298.849 77.3101 293.885 82.6915 291.63L82.3049 290.707C76.777 293.024 69.5787 298.07 63.6099 303.633C60.622 306.418 57.928 309.345 55.8976 312.142C53.8758 314.927 52.4757 317.632 52.1423 319.966L53.1322 320.108ZM82.9982 291.168V277.11H81.9982V291.168H82.9982ZM82.5568 277.607L104.33 275.035L104.213 274.042L82.4395 276.614L82.5568 277.607ZM103.791 274.675L105.935 282.205L106.897 281.932L104.753 274.401L103.791 274.675ZM132.963 283.203C132.56 282.93 131.981 282.717 131.304 282.541C130.616 282.362 129.783 282.212 128.844 282.085C126.965 281.832 124.622 281.668 122.082 281.569C116.998 281.371 111.079 281.431 106.401 281.569L106.43 282.568C111.097 282.431 116.99 282.371 122.043 282.568C124.57 282.667 126.876 282.829 128.71 283.076C129.627 283.2 130.417 283.344 131.052 283.509C131.698 283.676 132.144 283.856 132.402 284.031L132.963 283.203ZM136.816 287.964C136.142 286.402 134.939 284.54 132.963 283.203L132.402 284.031C134.178 285.233 135.276 286.92 135.898 288.36L136.816 287.964ZM157.625 311.447L136.732 287.831L135.983 288.493L156.876 312.109L157.625 311.447ZM163.424 310.595C162.365 312.888 159.299 313.339 157.625 311.447L156.876 312.109C159.028 314.542 162.97 313.963 164.332 311.014L163.424 310.595ZM182.097 270.163L163.424 310.595L164.332 311.014L183.005 270.582L182.097 270.163ZM192.312 269.874L182.551 269.873L182.551 270.873L192.312 270.874L192.312 269.874ZM174.703 324.483C178.414 319.213 181.748 311.014 184.744 301.511C187.745 291.995 190.421 281.125 192.8 270.483L191.824 270.265C189.447 280.897 186.778 291.735 183.791 301.21C180.799 310.697 177.502 318.771 173.886 323.907L174.703 324.483ZM150.106 325.916C153.51 328.745 156.34 330.661 158.776 331.79C161.217 332.922 163.291 333.277 165.164 332.943C167.037 332.609 168.638 331.598 170.155 330.131C171.667 328.669 173.125 326.725 174.703 324.483L173.886 323.907C172.307 326.149 170.897 328.022 169.46 329.412C168.028 330.797 166.599 331.671 164.989 331.959C163.378 332.246 161.516 331.958 159.197 330.883C156.873 329.806 154.119 327.951 150.745 325.147L150.106 325.916ZM69.9875 330.115C69.6319 330.748 69.3869 331.349 69.3869 331.851H70.3869C70.3869 331.625 70.5149 331.218 70.8594 330.605L69.9875 330.115ZM69.3869 331.851C69.3869 336.064 68.8977 345.09 68.4534 353.282L69.452 353.336C69.8953 345.161 70.3869 336.099 70.3869 331.851H69.3869ZM68.4534 353.282C68.0872 360.035 67.751 366.231 67.751 368.637H68.751C68.751 366.267 69.0846 360.11 69.452 353.336L68.4534 353.282ZM68.5721 369.02L75.5384 363.184L74.8961 362.417L67.9299 368.254L68.5721 369.02ZM70.652 333.434C73.4436 339.762 74.9501 351.456 74.7174 362.79L75.7171 362.811C75.9509 351.428 74.4471 339.559 71.5669 333.03L70.652 333.434ZM69.9249 330.397C70.0059 331.482 70.2404 332.501 70.652 333.434L71.5669 333.03C71.2077 332.216 70.9959 331.311 70.9221 330.323L69.9249 330.397Z" fill="black"/>
<path d="M68.6369 388.727C87.4375 376.478 118.994 343.283 125.635 336.206L120.997 325.314L69.3784 367.64" stroke="black"/>
<path d="M121.292 325.388C125.728 316.73 134.632 297.078 137.176 297.483C139.455 297.846 134.6 306.999 132.024 312.723C133.598 309.79 137.176 304.309 138.893 305.855C139.444 306.351 138.1 309.523 136.583 312.205C138.323 309.829 140.585 307.535 141.896 308.964C142.754 309.901 138.546 315.352 137.176 317.099C138.5 315.575 142.56 309.408 143.59 311.812C144.621 314.216 131.953 329.967 125.585 335.906L121.292 325.388Z" fill="#FFFDFD"/>
<path d="M121.292 325.388L120.847 325.16L120.742 325.364L120.829 325.577L121.292 325.388ZM137.176 297.483L137.097 297.977L137.176 297.483ZM132.024 312.723L131.568 312.518C131.458 312.764 131.562 313.053 131.803 313.172C132.045 313.291 132.337 313.197 132.465 312.96L132.024 312.723ZM138.893 305.855L139.227 305.483L138.893 305.855ZM134.71 315.085L134.276 314.837C134.146 315.063 134.213 315.352 134.429 315.499C134.646 315.645 134.939 315.6 135.101 315.396L134.71 315.085ZM141.896 308.964L142.264 308.627V308.627L141.896 308.964ZM137.176 317.099L136.782 316.791C136.615 317.004 136.648 317.312 136.858 317.485C137.067 317.658 137.375 317.632 137.553 317.427L137.176 317.099ZM143.59 311.812L144.05 311.615L143.59 311.812ZM125.585 335.906L125.122 336.095L125.396 336.766L125.926 336.271L125.585 335.906ZM121.736 325.616C122.848 323.447 124.239 320.589 125.736 317.539C127.235 314.485 128.841 311.234 130.387 308.268C131.935 305.299 133.415 302.628 134.663 300.729C135.288 299.778 135.842 299.04 136.305 298.557C136.538 298.315 136.731 298.155 136.885 298.063C137.044 297.967 137.105 297.978 137.097 297.977L137.255 296.989C136.929 296.938 136.622 297.054 136.37 297.206C136.111 297.362 135.848 297.591 135.585 297.864C135.057 298.413 134.463 299.211 133.827 300.18C132.551 302.123 131.051 304.831 129.5 307.806C127.948 310.784 126.337 314.044 124.838 317.098C123.339 320.155 121.953 323.001 120.847 325.16L121.736 325.616ZM137.097 297.977C137.147 297.985 137.162 297.999 137.17 298.006C137.181 298.017 137.208 298.052 137.232 298.138C137.283 298.327 137.286 298.649 137.202 299.127C137.037 300.068 136.582 301.382 135.958 302.903C134.71 305.946 132.871 309.623 131.568 312.518L132.48 312.929C133.753 310.1 135.63 306.338 136.883 303.283C137.51 301.755 138.002 300.355 138.187 299.299C138.278 298.778 138.307 298.281 138.197 297.877C138.14 297.667 138.041 297.462 137.874 297.297C137.703 297.127 137.49 297.027 137.255 296.989L137.097 297.977ZM132.465 312.96C133.243 311.509 134.512 309.439 135.787 307.932C136.429 307.173 137.04 306.596 137.564 306.298C137.823 306.15 138.029 306.09 138.184 306.086C138.323 306.082 138.441 306.12 138.558 306.226L139.227 305.483C138.916 305.203 138.547 305.075 138.155 305.086C137.779 305.097 137.411 305.234 137.069 305.429C136.39 305.815 135.687 306.502 135.023 307.287C133.686 308.867 132.379 311.005 131.584 312.487L132.465 312.96ZM138.558 306.226C138.491 306.166 138.508 306.119 138.516 306.206C138.523 306.283 138.518 306.409 138.485 306.592C138.421 306.955 138.271 307.447 138.047 308.031C137.601 309.192 136.898 310.632 136.148 311.958L137.018 312.451C137.785 311.095 138.512 309.609 138.98 308.389C139.213 307.782 139.39 307.221 139.47 306.766C139.51 306.54 139.531 306.315 139.512 306.113C139.494 305.922 139.433 305.668 139.227 305.483L138.558 306.226ZM136.148 311.958C135.518 313.071 134.866 314.084 134.318 314.774L135.101 315.396C135.695 314.648 136.376 313.586 137.018 312.451L136.148 311.958ZM135.144 315.333C135.574 314.58 136.23 313.532 136.986 312.5L136.179 311.909C135.399 312.975 134.722 314.055 134.276 314.837L135.144 315.333ZM136.986 312.5C137.849 311.322 138.813 310.206 139.695 309.561C140.139 309.238 140.516 309.066 140.817 309.03C141.085 308.998 141.311 309.066 141.527 309.302L142.264 308.627C141.825 308.148 141.277 307.967 140.697 308.037C140.151 308.103 139.609 308.386 139.105 308.754C138.094 309.493 137.057 310.712 136.179 311.909L136.986 312.5ZM141.527 309.302C141.479 309.249 141.53 309.242 141.501 309.439C141.475 309.616 141.396 309.865 141.256 310.183C140.977 310.815 140.507 311.611 139.954 312.453C138.85 314.133 137.467 315.918 136.782 316.791L137.569 317.408C138.255 316.534 139.661 314.72 140.789 313.003C141.352 312.147 141.858 311.295 142.171 310.587C142.326 310.235 142.445 309.891 142.49 309.584C142.533 309.296 142.527 308.914 142.264 308.627L141.527 309.302ZM137.553 317.427C137.897 317.032 138.416 316.339 138.988 315.598C139.57 314.844 140.223 314.019 140.863 313.32C141.516 312.606 142.105 312.078 142.557 311.86C142.781 311.751 142.896 311.756 142.941 311.768C142.962 311.774 143.041 311.799 143.131 312.009L144.05 311.615C143.882 311.223 143.61 310.915 143.206 310.804C142.826 310.699 142.445 310.803 142.122 310.959C141.482 311.269 140.781 311.927 140.125 312.645C139.455 313.378 138.78 314.23 138.196 314.987C137.602 315.756 137.117 316.405 136.798 316.772L137.553 317.427ZM143.131 312.009C143.142 312.036 143.165 312.13 143.134 312.338C143.103 312.538 143.03 312.796 142.908 313.113C142.662 313.747 142.243 314.555 141.678 315.499C140.55 317.382 138.878 319.745 136.966 322.228C133.141 327.197 128.4 332.596 125.244 335.54L125.926 336.271C129.137 333.276 133.915 327.831 137.758 322.838C139.68 320.341 141.38 317.944 142.536 316.012C143.113 315.048 143.565 314.185 143.84 313.474C143.978 313.119 144.077 312.786 144.122 312.488C144.166 312.198 144.167 311.888 144.05 311.615L143.131 312.009ZM126.048 335.717L121.754 325.199L120.829 325.577L125.122 336.095L126.048 335.717Z" fill="black"/>
<path d="M220.351 273.778H130.502C129.458 273.778 128.612 272.932 128.612 271.888L153.156 258.345L233.805 258.345V259.594C233.805 260.103 233.611 260.593 233.262 260.963L221.808 273.148C221.43 273.55 220.903 273.778 220.351 273.778Z" fill="#A9A9A9" stroke="#2D2D2D"/>
<path d="M152.756 258.499V208.396C152.756 207.292 153.652 206.396 154.756 206.396H231.805C232.91 206.396 233.805 207.292 233.805 208.396V258.499H152.756Z" fill="white" stroke="#2D2D2D" stroke-linejoin="round"/>
<path d="M128.612 271.656L152.621 258.499H233.521L220.721 271.656H128.612Z" fill="#C4C4C4" stroke="#2D2D2D" stroke-linejoin="round"/>
<path d="M529.396 327.534C531.403 332.96 534.345 305.329 534.239 292.606L538.656 301.693C538.66 312.246 538.265 332.415 537.926 338.292C537.764 341.094 537.156 343.937 533.513 344.333C525.268 345.161 508.508 346.566 507.43 345.554C506.083 344.289 505.437 336.494 505.893 331.403C506.348 326.313 510.23 323.068 517.162 321.911C524.094 320.754 526.924 320.85 529.396 327.534Z" fill="#2D2D2D" stroke="#2D2D2D"/>
<path d="M524.606 299.283C529.348 299.714 533.767 295.152 535.384 292.817L536.731 309.792C538.078 308.265 541.743 306.127 545.623 309.792C549.503 313.456 545.623 319.52 540.773 321.378L543.102 336.142C548.922 335.279 555.323 330.678 555.323 318.684C560.442 316.797 565.562 312.756 564.215 305.211C563.137 299.176 557.838 298.745 555.323 299.283L556.401 290.931C553.814 280.584 546.162 280.692 542.659 282.039C535.33 270.399 527.57 274.674 524.606 278.267C515.983 273.74 507.407 274.949 503.359 282.039C496.756 290.009 501.44 298.177 506.014 299.283C511.669 299.283 519.864 298.852 524.606 299.283Z" fill="#2D2D2D" stroke="#2D2D2D"/>
<path d="M512.217 460.346C529.084 457.067 534.235 428.403 539.011 412.37C541.565 403.797 543.792 384.347 547.54 378.255C552.225 370.642 563.837 365.211 570.785 369.566C581.995 376.592 576.429 392.436 574.242 404.07C570.785 414.648 567.018 433.74 556.41 455.695C539.488 490.713 490.156 491.778 465.948 486.702V464.446L512.217 460.346Z" fill="#D4E4F3" stroke="#2D2D2D"/>
<path fill-rule="evenodd" clip-rule="evenodd" d="M447.681 411.914C453.348 411.914 457.943 407.32 457.943 401.653C457.943 395.985 453.348 391.391 447.681 391.391C442.24 391.391 437.788 395.626 437.441 400.979L410.747 422.343L412.4 424.785L408.607 427.352L410.544 430.215L414.337 427.648L416.074 430.215L445.536 411.69C446.228 411.837 446.946 411.914 447.681 411.914Z" fill="#2D2D2D"/>
<path fill-rule="evenodd" clip-rule="evenodd" d="M428.641 425.778V449.615L425.117 448.776V425.97L416.723 413.192L424.142 408.319L433.51 422.579L428.641 425.778Z" fill="#C4C4C4"/>
<path d="M428.641 425.778L428.366 425.36L428.141 425.508V425.778H428.641ZM428.641 449.615L428.525 450.101L429.141 450.248V449.615H428.641ZM425.117 448.776H424.617V449.17L425.001 449.262L425.117 448.776ZM425.117 425.97H425.617V425.82L425.534 425.695L425.117 425.97ZM416.723 413.192L416.449 412.774L416.031 413.049L416.305 413.467L416.723 413.192ZM424.142 408.319L424.56 408.044L424.286 407.626L423.868 407.901L424.142 408.319ZM433.51 422.579L433.784 422.997L434.202 422.723L433.928 422.305L433.51 422.579ZM428.141 425.778V449.615H429.141V425.778H428.141ZM428.756 449.128L425.232 448.289L425.001 449.262L428.525 450.101L428.756 449.128ZM425.617 448.776V425.97H424.617V448.776H425.617ZM425.534 425.695L417.141 412.918L416.305 413.467L424.699 426.244L425.534 425.695ZM416.998 413.61L424.417 408.737L423.868 407.901L416.449 412.774L416.998 413.61ZM423.724 408.593L433.092 422.854L433.928 422.305L424.56 408.044L423.724 408.593ZM433.235 422.161L428.366 425.36L428.915 426.196L433.784 422.997L433.235 422.161Z" fill="#2D2D2D"/>
<path d="M526.301 461.188V517.006H420.45V447.067L526.301 461.188Z" fill="#EBEBEB" stroke="#2D2D2D"/>
<path d="M401.909 436.792L420.065 446.627V516.778L401.909 503.537V436.792Z" fill="#EBEBEB" stroke="#2D2D2D"/>
<circle cx="308.57" cy="345.402" r="76.0987" fill="white" stroke="black"/>
<path d="M328.119 314.624C328.119 314.624 360.078 348.103 317.903 361.541C309.775 364.182 281.315 369.954 278.93 381.714C278.93 381.714 269.733 355.157 295.777 346.974C322.513 338.625 332.37 324.695 328.119 314.624Z" fill="#ED1C24"/>
<path d="M329.517 362.597C329.517 362.597 337.62 386.863 309.674 383.9C306.949 383.522 287.009 380.354 280.25 385.359C280.25 385.359 283.628 374.512 301.186 372.282C318.689 370.038 325.599 370.186 329.517 362.597Z" fill="#ED1C24"/>
<path d="M282.571 326.806C303.529 314.088 310.924 304.728 307.564 289.137C307.564 289.137 351.387 320.976 294.227 341.329C273.786 348.604 273.382 361.541 273.264 361.979C271.321 358.462 261.614 339.525 282.571 326.806Z" fill="#ED1C24"/>
<rect x="132.471" y="120.014" width="52.4254" height="43.0416" rx="7" fill="#0070CC"/>
<path d="M168.065 134.975L174.662 141.572L168.065 148.169" stroke="white" stroke-linecap="round" stroke-linejoin="round"/>
<path d="M149.301 148.054L142.704 141.456L149.301 134.859" stroke="white" stroke-linecap="round" stroke-linejoin="round"/>
<path d="M155.568 150.246L162.129 132.825" stroke="white" stroke-linecap="round" stroke-linejoin="round"/>
<circle cx="172.366" cy="416.497" r="2.29631" transform="rotate(90 172.366 416.497)" fill="white"/>
<circle cx="161.599" cy="416.497" r="2.29631" transform="rotate(90 161.599 416.497)" fill="white"/>
<circle cx="150.831" cy="416.497" r="2.29631" transform="rotate(90 150.831 416.497)" fill="white"/>
<circle cx="140.064" cy="416.497" r="2.29631" transform="rotate(90 140.064 416.497)" fill="white"/>
<circle cx="172.366" cy="427.265" r="2.29631" transform="rotate(90 172.366 427.265)" fill="white"/>
<circle cx="161.599" cy="427.265" r="2.29631" transform="rotate(90 161.599 427.265)" fill="white"/>
<circle cx="150.831" cy="427.265" r="2.29631" transform="rotate(90 150.831 427.265)" fill="white"/>
<circle cx="140.064" cy="427.265" r="2.29631" transform="rotate(90 140.064 427.265)" fill="white"/>
<circle cx="172.366" cy="438.032" r="2.29631" transform="rotate(90 172.366 438.032)" fill="white"/>
<circle cx="161.599" cy="438.032" r="2.29631" transform="rotate(90 161.599 438.032)" fill="white"/>
<circle cx="150.831" cy="438.032" r="2.29631" transform="rotate(90 150.831 438.032)" fill="white"/>
<circle cx="140.064" cy="438.032" r="2.29631" transform="rotate(90 140.064 438.032)" fill="white"/>
<circle cx="172.366" cy="448.799" r="2.29631" transform="rotate(90 172.366 448.799)" fill="white"/>
<circle cx="161.599" cy="448.799" r="2.29631" transform="rotate(90 161.599 448.799)" fill="white"/>
<circle cx="150.831" cy="448.799" r="2.29631" transform="rotate(90 150.831 448.799)" fill="white"/>
<circle cx="140.064" cy="448.799" r="2.29631" transform="rotate(90 140.064 448.799)" fill="white"/>
<circle cx="172.366" cy="459.567" r="2.29631" transform="rotate(90 172.366 459.567)" fill="white"/>
<circle cx="161.599" cy="459.567" r="2.29631" transform="rotate(90 161.599 459.567)" fill="white"/>
<circle cx="150.831" cy="459.567" r="2.29631" transform="rotate(90 150.831 459.567)" fill="white"/>
<circle cx="140.064" cy="459.567" r="2.29631" transform="rotate(90 140.064 459.567)" fill="white"/>
<rect x="169.528" y="422.501" width="75.1906" height="86.615" rx="9.5" fill="#91C2EA" stroke="black"/>
<path d="M183.95 441.022C183.651 441.022 214.373 441.022 229.771 441.022" stroke="#2D2D2D" stroke-linecap="round" stroke-linejoin="round"/>
<path d="M183.95 451.442C183.651 451.442 214.373 451.442 229.771 451.442" stroke="#2D2D2D" stroke-linecap="round" stroke-linejoin="round"/>
<path d="M183.95 461.863C183.651 461.863 214.373 461.863 229.771 461.863" stroke="#2D2D2D" stroke-linecap="round" stroke-linejoin="round"/>
<path d="M183.95 472.283C183.651 472.283 214.373 472.283 229.771 472.283" stroke="#2D2D2D" stroke-linecap="round" stroke-linejoin="round"/>
<path d="M183.95 482.703C183.651 482.703 214.373 482.703 229.771 482.703" stroke="#2D2D2D" stroke-linecap="round" stroke-linejoin="round"/>
<path d="M183.95 493.124C183.651 493.124 214.373 493.124 229.771 493.124" stroke="#2D2D2D" stroke-linecap="round" stroke-linejoin="round"/>
<path d="M166.004 252.296V218.648H216.244V252.296H166.004Z" fill="#EFEFEF" stroke="#2D2D2D"/>
<path d="M170.004 248.296V214.648H220.244V248.296H170.004Z" fill="#EFEFEF" stroke="#2D2D2D"/>
<rect x="169.512" y="211.894" width="51.2176" height="5.30369" fill="#2D2D2D"/>
<circle cx="173.963" cy="214.648" r="1.07875" fill="white"/>
<circle cx="178.121" cy="214.648" r="1.07875" fill="white"/>
<path d="M176.209 223.226H214.713" stroke="#2D2D2D"/>
<path d="M176.209 229.478H214.713" stroke="#2D2D2D"/>
<path d="M176.209 235.731H214.713" stroke="#2D2D2D"/>
<path d="M176.209 241.984H192.063" stroke="#2D2D2D"/>
<circle cx="182.278" cy="214.648" r="1.07875" fill="white"/>
<path d="M485.12 229.58C485.12 224.333 480.867 220.08 475.62 220.08H408.843C403.596 220.08 399.343 224.333 399.343 229.58V251.046C399.343 256.293 403.596 260.546 408.843 260.546H485.12V229.58Z" fill="white" stroke="black"/>
<circle cx="424.408" cy="240.313" r="3.59593" fill="#2D2D2D"/>
<circle cx="442.231" cy="240.313" r="3.59593" fill="#2D2D2D"/>
<circle cx="460.055" cy="240.313" r="3.59593" fill="#2D2D2D"/>
</svg>
