<svg width="33" height="40" viewBox="0 0 33 40" fill="none" xmlns="http://www.w3.org/2000/svg">
<path d="M20.6942 1.3877V9.97409C20.6942 11.6309 22.0373 12.9741 23.6942 12.9741H30.1888" stroke="black" stroke-width="2" stroke-linecap="round" stroke-linejoin="round"/>
<path d="M1.68309 5.20019C1.68309 2.99105 3.47395 1.2002 5.68309 1.2002H21.2072L30.0549 9.71017C30.839 10.4643 31.282 11.5052 31.282 12.5931V34.9365C31.282 37.1456 29.4912 38.9365 27.282 38.9365H5.68309C3.47395 38.9365 1.68309 37.1456 1.68309 34.9365V5.20019Z" stroke="black" stroke-width="2"/>
<path d="M17.2071 15.1886C16.8166 14.7981 16.1834 14.7981 15.7929 15.1886L9.42893 21.5526C9.03841 21.9431 9.03841 22.5763 9.42893 22.9668C9.81946 23.3573 10.4526 23.3573 10.8431 22.9668L16.5 17.31L22.1569 22.9668C22.5474 23.3573 23.1805 23.3573 23.5711 22.9668C23.9616 22.5763 23.9616 21.9431 23.5711 21.5526L17.2071 15.1886ZM15.5 30.7573C15.5 31.3096 15.9477 31.7573 16.5 31.7573C17.0523 31.7573 17.5 31.3096 17.5 30.7573L15.5 30.7573ZM15.5 15.8958L15.5 30.7573L17.5 30.7573L17.5 15.8958L15.5 15.8958Z" fill="#0070CC"/>
</svg>
