<svg width="271" height="278" viewBox="0 0 271 278" fill="none" xmlns="http://www.w3.org/2000/svg">
<mask id="mask0" style="mask-type:alpha" maskUnits="userSpaceOnUse" x="0" y="0" width="271" height="278">
<rect y="0.933594" width="271" height="277.066" rx="10" fill="#F6F6F6"/>
</mask>
<g mask="url(#mask0)">
<g opacity="0.3">
<path d="M494.777 201.296L259.325 79.7058C228.251 63.6588 190.583 73.3377 172.724 101.957L32.9624 325.943" stroke="#91C2EA" stroke-linecap="round" stroke-linejoin="round"/>
<path d="M499.223 216.851L256.271 91.3877C229.434 77.529 196.902 85.888 181.479 110.605L37.4075 341.498" stroke="#91C2EA" stroke-linecap="round" stroke-linejoin="round"/>
<path d="M503.946 233.377L260.994 107.914C234.158 94.0554 201.625 102.414 186.202 127.131L42.1306 358.024" stroke="#91C2EA" stroke-linecap="round" stroke-linejoin="round"/>
<path d="M508.669 249.904L265.717 124.44C238.88 110.582 206.348 118.941 190.925 143.658L46.8535 374.55" stroke="#91C2EA" stroke-linecap="round" stroke-linejoin="round"/>
<path d="M513.392 266.43L270.44 140.967C243.603 127.108 211.071 135.467 195.648 160.184L51.5766 391.077" stroke="#91C2EA" stroke-linecap="round" stroke-linejoin="round"/>
<path d="M518.115 282.956L275.163 157.493C248.326 143.634 215.794 151.993 200.371 176.711L56.2995 407.603" stroke="#91C2EA" stroke-linecap="round" stroke-linejoin="round"/>
<path d="M522.838 299.483L279.886 174.02C253.049 160.161 220.517 168.52 205.094 193.237L61.0225 424.13" stroke="#91C2EA" stroke-linecap="round" stroke-linejoin="round"/>
<path d="M527.561 316.01L284.609 190.546C257.772 176.688 225.24 185.047 209.817 209.764L65.7455 440.656" stroke="#91C2EA" stroke-linecap="round" stroke-linejoin="round"/>
<path d="M532.284 332.537L289.332 207.073C262.495 193.215 229.963 201.574 214.54 226.291L70.4685 457.183" stroke="#91C2EA" stroke-linecap="round" stroke-linejoin="round"/>
</g>
</g>
</svg>
