<svg width="333" height="520" viewBox="0 0 333 520" fill="none" xmlns="http://www.w3.org/2000/svg">
<rect x="1" y="1" width="315" height="174" rx="9" fill="white" stroke="black" stroke-width="2"/>
<rect x="51" y="15" width="282" height="172" rx="10" fill="#2D2D2D"/>
<path d="M80.024 58.232C79.7787 58.1467 79.512 58.0773 79.224 58.024C78.9467 57.96 78.6693 57.928 78.392 57.928C77.3467 57.928 76.568 58.1733 76.056 58.664C75.544 59.1547 75.288 59.9333 75.288 61C75.288 61.4693 75.3627 61.8907 75.512 62.264C75.6613 62.6267 75.8747 62.936 76.152 63.192C76.4293 63.448 76.76 63.6453 77.144 63.784C77.5387 63.9227 77.9707 63.992 78.44 63.992C78.9413 63.992 79.4267 63.9067 79.896 63.736C80.376 63.5653 80.776 63.3413 81.096 63.064L81.656 63.992C81.5067 64.12 81.32 64.2533 81.096 64.392C80.872 64.5307 80.6107 64.664 80.312 64.792C80.024 64.9093 79.6987 65.0053 79.336 65.08C78.984 65.1547 78.6 65.192 78.184 65.192C77.4907 65.192 76.8773 65.096 76.344 64.904C75.8213 64.7013 75.384 64.4187 75.032 64.056C74.68 63.6827 74.4133 63.24 74.232 62.728C74.0507 62.2053 73.96 61.6293 73.96 61C73.96 60.328 74.0507 59.7307 74.232 59.208C74.424 58.6853 74.696 58.248 75.048 57.896C75.4 57.544 75.8267 57.2773 76.328 57.096C76.8293 56.904 77.3893 56.808 78.008 56.808C78.7973 56.808 79.4373 56.8773 79.928 57.016C80.4293 57.1547 80.8507 57.3093 81.192 57.48L81.176 57.528V59.752H80.024V58.232ZM89.0018 57H91.2738V62.456C91.2738 62.9787 91.3058 63.48 91.3698 63.96H92.4418V65H90.3138L90.2658 63.64H90.2018C89.9244 64.0987 89.5564 64.472 89.0978 64.76C88.6391 65.048 88.0844 65.192 87.4338 65.192C86.9431 65.192 86.5218 65.1333 86.1698 65.016C85.8284 64.9093 85.5458 64.7173 85.3218 64.44C85.0978 64.1627 84.9324 63.7947 84.8258 63.336C84.7191 62.8667 84.6658 62.2853 84.6658 61.592V58.072H83.5938V57H85.9138V61.336C85.9138 61.7733 85.9298 62.168 85.9618 62.52C86.0044 62.8613 86.0844 63.1547 86.2018 63.4C86.3191 63.6347 86.4898 63.816 86.7138 63.944C86.9484 64.0613 87.2578 64.12 87.6418 64.12C88.1964 64.12 88.6764 63.9387 89.0818 63.576C89.4978 63.2133 89.8124 62.76 90.0258 62.216V58.072H89.0018V57ZM100.396 62.84C100.396 62.4987 100.262 62.2373 99.9955 62.056C99.7288 61.864 99.3982 61.7147 99.0035 61.608C98.6088 61.4907 98.1768 61.384 97.7075 61.288C97.2488 61.192 96.8222 61.064 96.4275 60.904C96.0328 60.744 95.7022 60.5307 95.4355 60.264C95.1688 59.9867 95.0355 59.6027 95.0355 59.112C95.0355 58.7067 95.1208 58.36 95.2915 58.072C95.4728 57.784 95.7075 57.5493 95.9955 57.368C96.2835 57.176 96.6195 57.0373 97.0035 56.952C97.3875 56.856 97.7875 56.808 98.2035 56.808C98.9502 56.808 99.5902 56.904 100.124 57.096C100.668 57.2773 101.1 57.4693 101.42 57.672L100.908 58.68C100.556 58.488 100.172 58.3067 99.7555 58.136C99.3502 57.9547 98.8382 57.864 98.2195 57.864C97.9848 57.864 97.7502 57.8907 97.5155 57.944C97.2915 57.9867 97.0835 58.056 96.8915 58.152C96.7102 58.248 96.5608 58.376 96.4435 58.536C96.3368 58.6853 96.2835 58.872 96.2835 59.096C96.2835 59.3733 96.4168 59.5867 96.6835 59.736C96.9502 59.8853 97.2808 60.0133 97.6755 60.12C98.0702 60.216 98.4968 60.312 98.9555 60.408C99.4248 60.4933 99.8568 60.6213 100.252 60.792C100.646 60.9627 100.977 61.192 101.244 61.48C101.51 61.768 101.644 62.1573 101.644 62.648C101.644 63.384 101.35 63.992 100.764 64.472C100.188 64.952 99.3182 65.192 98.1555 65.192C97.8035 65.192 97.4568 65.16 97.1155 65.096C96.7742 65.032 96.4542 64.9467 96.1555 64.84C95.8568 64.7333 95.5848 64.616 95.3395 64.488C95.0942 64.3493 94.8915 64.2107 94.7315 64.072L95.3715 63.032C95.4995 63.16 95.6702 63.2933 95.8835 63.432C96.0968 63.56 96.3315 63.6773 96.5875 63.784C96.8435 63.8907 97.1155 63.976 97.4035 64.04C97.7022 64.104 98.0008 64.136 98.2995 64.136C98.5875 64.136 98.8542 64.1147 99.0995 64.072C99.3555 64.0187 99.5795 63.944 99.7715 63.848C99.9635 63.7413 100.113 63.608 100.22 63.448C100.337 63.2773 100.396 63.0747 100.396 62.84ZM104.077 57H105.981V55.416L107.229 55.064V57H111.501V58.072H107.229V61.848C107.229 62.6267 107.416 63.2027 107.789 63.576C108.173 63.9493 108.717 64.136 109.421 64.136C109.901 64.136 110.317 64.0453 110.669 63.864C111.032 63.6827 111.357 63.4853 111.645 63.272L112.061 64.216C111.688 64.5147 111.24 64.7547 110.717 64.936C110.205 65.1173 109.677 65.208 109.133 65.208C108.707 65.208 108.301 65.144 107.917 65.016C107.544 64.8987 107.213 64.712 106.925 64.456C106.637 64.2 106.408 63.8747 106.237 63.48C106.067 63.0747 105.981 62.5947 105.981 62.04V58.072H104.077V57ZM114.687 61C114.687 59.7093 115.023 58.6907 115.695 57.944C116.367 57.1867 117.327 56.808 118.575 56.808C119.247 56.808 119.823 56.92 120.303 57.144C120.794 57.3573 121.199 57.6507 121.519 58.024C121.839 58.3973 122.074 58.84 122.223 59.352C122.383 59.864 122.463 60.4133 122.463 61C122.463 61.64 122.378 62.2213 122.207 62.744C122.036 63.256 121.786 63.6933 121.455 64.056C121.124 64.4187 120.714 64.7013 120.223 64.904C119.743 65.096 119.194 65.192 118.575 65.192C117.914 65.192 117.338 65.0853 116.847 64.872C116.356 64.648 115.951 64.3493 115.631 63.976C115.311 63.6027 115.071 63.16 114.911 62.648C114.762 62.136 114.687 61.5867 114.687 61ZM116.015 61C116.015 61.3733 116.058 61.7467 116.143 62.12C116.239 62.4933 116.388 62.8293 116.591 63.128C116.794 63.4267 117.055 63.6667 117.375 63.848C117.706 64.0293 118.106 64.12 118.575 64.12C119.428 64.12 120.068 63.8587 120.495 63.336C120.932 62.8027 121.151 62.024 121.151 61C121.151 60.616 121.103 60.2427 121.007 59.88C120.922 59.5067 120.772 59.1707 120.559 58.872C120.356 58.5733 120.09 58.3333 119.759 58.152C119.439 57.9707 119.044 57.88 118.575 57.88C117.722 57.88 117.082 58.1413 116.655 58.664C116.228 59.1867 116.015 59.9653 116.015 61ZM128.161 65V59.672C128.161 59.448 128.15 59.2347 128.129 59.032C128.118 58.8187 128.081 58.632 128.017 58.472C127.963 58.3013 127.878 58.168 127.761 58.072C127.654 57.976 127.51 57.928 127.329 57.928C126.966 57.928 126.657 58.0773 126.401 58.376C126.155 58.6747 125.969 59.048 125.841 59.496V65H124.625V57H125.457L125.697 57.976H125.761C125.867 57.816 125.969 57.6667 126.065 57.528C126.171 57.3787 126.289 57.2507 126.417 57.144C126.555 57.0373 126.715 56.9573 126.897 56.904C127.078 56.84 127.307 56.808 127.585 56.808C127.745 56.808 127.91 56.8347 128.081 56.888C128.251 56.9307 128.406 57.0053 128.545 57.112C128.694 57.208 128.822 57.3413 128.929 57.512C129.035 57.6827 129.105 57.8907 129.137 58.136C129.382 57.72 129.654 57.3947 129.953 57.16C130.262 56.9253 130.683 56.808 131.217 56.808C131.569 56.808 131.851 56.8667 132.065 56.984C132.289 57.1013 132.459 57.272 132.577 57.496C132.705 57.7093 132.79 57.9707 132.833 58.28C132.886 58.5787 132.913 58.9147 132.913 59.288V65H131.697V59.56C131.697 59.336 131.686 59.128 131.665 58.936C131.643 58.7333 131.601 58.5573 131.537 58.408C131.483 58.2587 131.403 58.1413 131.297 58.056C131.201 57.9707 131.067 57.928 130.897 57.928C130.523 57.928 130.209 58.0773 129.953 58.376C129.697 58.6747 129.505 59.1013 129.377 59.656V65H128.161ZM134.802 53.8H143.122V56.728H141.938V54.984H139.618V63.816H141.378V65H136.53V63.816H138.29V54.984H135.986V56.728H134.802V53.8ZM146.084 57.624C146.543 57.3573 147.06 57.1653 147.636 57.048C148.212 56.9307 148.778 56.872 149.332 56.872C149.876 56.872 150.319 56.9573 150.66 57.128C151.012 57.2987 151.284 57.5227 151.476 57.8C151.679 58.0667 151.812 58.376 151.876 58.728C151.951 59.0693 151.988 59.416 151.988 59.768C151.988 60.1733 151.978 60.6053 151.956 61.064C151.935 61.5227 151.919 61.9813 151.908 62.44C151.908 62.9733 151.94 63.48 152.004 63.96H153.076V65H150.948L150.804 63.8H150.724C150.66 63.896 150.564 64.0187 150.436 64.168C150.308 64.3173 150.138 64.4667 149.924 64.616C149.722 64.7547 149.471 64.8773 149.172 64.984C148.874 65.0907 148.522 65.144 148.116 65.144C147.327 65.144 146.703 64.9413 146.244 64.536C145.786 64.1307 145.556 63.576 145.556 62.872C145.556 62.328 145.674 61.8747 145.908 61.512C146.154 61.1493 146.5 60.872 146.948 60.68C147.396 60.488 147.935 60.376 148.564 60.344C149.204 60.312 149.919 60.3547 150.708 60.472C150.762 59.9813 150.767 59.576 150.724 59.256C150.692 58.9253 150.607 58.664 150.468 58.472C150.34 58.28 150.154 58.1467 149.908 58.072C149.674 57.9867 149.38 57.944 149.028 57.944C148.548 57.944 148.09 58.0133 147.652 58.152C147.215 58.28 146.826 58.4133 146.484 58.552L146.084 57.624ZM148.436 64.072C148.735 64.072 149.012 64.024 149.268 63.928C149.524 63.832 149.748 63.7093 149.94 63.56C150.132 63.4107 150.292 63.2507 150.42 63.08C150.548 62.8987 150.644 62.728 150.708 62.568V61.448C150.154 61.352 149.642 61.304 149.172 61.304C148.703 61.304 148.298 61.3573 147.956 61.464C147.615 61.56 147.348 61.7147 147.156 61.928C146.964 62.1413 146.868 62.4187 146.868 62.76C146.868 63.112 146.986 63.4213 147.22 63.688C147.466 63.944 147.871 64.072 148.436 64.072ZM161.558 62.84C161.558 62.4987 161.425 62.2373 161.158 62.056C160.891 61.864 160.561 61.7147 160.166 61.608C159.771 61.4907 159.339 61.384 158.87 61.288C158.411 61.192 157.985 61.064 157.59 60.904C157.195 60.744 156.865 60.5307 156.598 60.264C156.331 59.9867 156.198 59.6027 156.198 59.112C156.198 58.7067 156.283 58.36 156.454 58.072C156.635 57.784 156.87 57.5493 157.158 57.368C157.446 57.176 157.782 57.0373 158.166 56.952C158.55 56.856 158.95 56.808 159.366 56.808C160.113 56.808 160.753 56.904 161.286 57.096C161.83 57.2773 162.262 57.4693 162.582 57.672L162.07 58.68C161.718 58.488 161.334 58.3067 160.918 58.136C160.513 57.9547 160.001 57.864 159.382 57.864C159.147 57.864 158.913 57.8907 158.678 57.944C158.454 57.9867 158.246 58.056 158.054 58.152C157.873 58.248 157.723 58.376 157.606 58.536C157.499 58.6853 157.446 58.872 157.446 59.096C157.446 59.3733 157.579 59.5867 157.846 59.736C158.113 59.8853 158.443 60.0133 158.838 60.12C159.233 60.216 159.659 60.312 160.118 60.408C160.587 60.4933 161.019 60.6213 161.414 60.792C161.809 60.9627 162.139 61.192 162.406 61.48C162.673 61.768 162.806 62.1573 162.806 62.648C162.806 63.384 162.513 63.992 161.926 64.472C161.35 64.952 160.481 65.192 159.318 65.192C158.966 65.192 158.619 65.16 158.278 65.096C157.937 65.032 157.617 64.9467 157.318 64.84C157.019 64.7333 156.747 64.616 156.502 64.488C156.257 64.3493 156.054 64.2107 155.894 64.072L156.534 63.032C156.662 63.16 156.833 63.2933 157.046 63.432C157.259 63.56 157.494 63.6773 157.75 63.784C158.006 63.8907 158.278 63.976 158.566 64.04C158.865 64.104 159.163 64.136 159.462 64.136C159.75 64.136 160.017 64.1147 160.262 64.072C160.518 64.0187 160.742 63.944 160.934 63.848C161.126 63.7413 161.275 63.608 161.382 63.448C161.499 63.2773 161.558 63.0747 161.558 62.84ZM165.128 53.8H167.72V60.424H168.6L171.752 57H173.256L169.72 60.792L172.632 63.928H173.672V65H172.024L168.6 61.384H167.72V65H166.488V54.872H165.128V53.8ZM178.666 64.12C178.666 63.7787 178.762 63.5173 178.954 63.336C179.146 63.144 179.402 63.048 179.722 63.048C180.063 63.048 180.33 63.144 180.522 63.336C180.714 63.5173 180.81 63.7787 180.81 64.12C180.81 64.4293 180.714 64.6853 180.522 64.888C180.33 65.0907 180.063 65.192 179.722 65.192C179.402 65.192 179.146 65.0907 178.954 64.888C178.762 64.6853 178.666 64.4293 178.666 64.12ZM186.187 65V63.928H188.347V58.072H186.187V57H189.179L189.435 58.04H189.515C189.878 57.7093 190.283 57.4267 190.731 57.192C191.179 56.9573 191.713 56.84 192.331 56.84C192.694 56.84 192.982 56.9093 193.195 57.048C193.419 57.1867 193.59 57.3893 193.707 57.656C193.835 57.9227 193.921 58.248 193.963 58.632C194.006 59.0053 194.027 59.432 194.027 59.912L192.907 59.928C192.907 59.2453 192.838 58.744 192.699 58.424C192.571 58.104 192.331 57.944 191.979 57.944C191.649 57.944 191.35 57.992 191.083 58.088C190.817 58.184 190.582 58.3013 190.379 58.44C190.187 58.5787 190.022 58.7173 189.883 58.856C189.745 58.9947 189.643 59.112 189.579 59.208V63.928H192.651V65H186.187ZM201.133 57H203.405V62.456C203.405 62.9787 203.437 63.48 203.501 63.96H204.573V65H202.445L202.397 63.64H202.333C202.056 64.0987 201.688 64.472 201.229 64.76C200.77 65.048 200.216 65.192 199.565 65.192C199.074 65.192 198.653 65.1333 198.301 65.016C197.96 64.9093 197.677 64.7173 197.453 64.44C197.229 64.1627 197.064 63.7947 196.957 63.336C196.85 62.8667 196.797 62.2853 196.797 61.592V58.072H195.725V57H198.045V61.336C198.045 61.7733 198.061 62.168 198.093 62.52C198.136 62.8613 198.216 63.1547 198.333 63.4C198.45 63.6347 198.621 63.816 198.845 63.944C199.08 64.0613 199.389 64.12 199.773 64.12C200.328 64.12 200.808 63.9387 201.213 63.576C201.629 63.2133 201.944 62.76 202.157 62.216V58.072H201.133V57ZM207.007 59.8C207.007 59.704 207.001 59.5813 206.991 59.432C206.991 59.272 206.985 59.112 206.975 58.952C206.964 58.7813 206.948 58.616 206.927 58.456C206.916 58.296 206.9 58.1573 206.879 58.04H205.807V57H207.951L208.095 58.296H208.175C208.281 58.1147 208.42 57.9387 208.591 57.768C208.772 57.5867 208.98 57.4267 209.215 57.288C209.449 57.1387 209.711 57.0213 209.999 56.936C210.287 56.8507 210.591 56.808 210.911 56.808C211.401 56.808 211.833 56.8613 212.207 56.968C212.591 57.0747 212.905 57.2667 213.151 57.544C213.407 57.8107 213.599 58.1787 213.727 58.648C213.855 59.1067 213.919 59.6933 213.919 60.408V65H212.671V60.648C212.671 59.7627 212.527 59.096 212.239 58.648C211.951 58.2 211.428 57.976 210.671 57.976C210.393 57.976 210.121 58.0347 209.855 58.152C209.599 58.2587 209.364 58.4027 209.151 58.584C208.937 58.7653 208.751 58.9787 208.591 59.224C208.431 59.4587 208.313 59.7093 208.239 59.976V65H207.007V59.8ZM222.624 68.392C221.91 68.2107 221.238 67.9387 220.608 67.576C219.99 67.224 219.446 66.76 218.976 66.184C218.518 65.608 218.15 64.904 217.872 64.072C217.606 63.24 217.472 62.2533 217.472 61.112C217.472 59.9813 217.611 58.9947 217.888 58.152C218.166 57.2987 218.539 56.5787 219.008 55.992C219.478 55.3947 220.022 54.92 220.64 54.568C221.27 54.2053 221.931 53.9493 222.624 53.8L223.024 54.808C222.395 54.9893 221.819 55.2293 221.296 55.528C220.774 55.816 220.32 56.2053 219.936 56.696C219.563 57.176 219.27 57.7787 219.056 58.504C218.854 59.2187 218.752 60.088 218.752 61.112C218.752 62.1467 218.875 63.032 219.12 63.768C219.376 64.4933 219.707 65.096 220.112 65.576C220.528 66.0667 220.987 66.4453 221.488 66.712C222 66.9893 222.512 67.1813 223.024 67.288L222.624 68.392ZM229.634 64.12C229.634 63.7787 229.73 63.5173 229.922 63.336C230.114 63.144 230.37 63.048 230.69 63.048C231.032 63.048 231.298 63.144 231.49 63.336C231.682 63.5173 231.778 63.7787 231.778 64.12C231.778 64.4293 231.682 64.6853 231.49 64.888C231.298 65.0907 231.032 65.192 230.69 65.192C230.37 65.192 230.114 65.0907 229.922 64.888C229.73 64.6853 229.634 64.4293 229.634 64.12ZM239.828 64.12C239.828 63.7787 239.924 63.5173 240.116 63.336C240.308 63.144 240.564 63.048 240.884 63.048C241.225 63.048 241.492 63.144 241.684 63.336C241.876 63.5173 241.972 63.7787 241.972 64.12C241.972 64.4293 241.876 64.6853 241.684 64.888C241.492 65.0907 241.225 65.192 240.884 65.192C240.564 65.192 240.308 65.0907 240.116 64.888C239.924 64.6853 239.828 64.4293 239.828 64.12ZM250.022 64.12C250.022 63.7787 250.118 63.5173 250.31 63.336C250.502 63.144 250.758 63.048 251.078 63.048C251.419 63.048 251.686 63.144 251.878 63.336C252.07 63.5173 252.166 63.7787 252.166 64.12C252.166 64.4293 252.07 64.6853 251.878 64.888C251.686 65.0907 251.419 65.192 251.078 65.192C250.758 65.192 250.502 65.0907 250.31 64.888C250.118 64.6853 250.022 64.4293 250.022 64.12ZM258.776 67.288C259.288 67.1813 259.794 66.9893 260.296 66.712C260.808 66.4453 261.266 66.0667 261.672 65.576C262.088 65.096 262.418 64.4933 262.664 63.768C262.92 63.032 263.048 62.1467 263.048 61.112C263.048 60.088 262.941 59.2187 262.728 58.504C262.525 57.7787 262.232 57.176 261.848 56.696C261.474 56.2053 261.026 55.816 260.504 55.528C259.981 55.2293 259.405 54.9893 258.776 54.808L259.176 53.8C259.869 53.9493 260.525 54.2053 261.144 54.568C261.773 54.92 262.322 55.3947 262.792 55.992C263.261 56.5787 263.634 57.2987 263.912 58.152C264.189 58.9947 264.328 59.9813 264.328 61.112C264.328 62.2533 264.189 63.24 263.912 64.072C263.645 64.904 263.277 65.608 262.808 66.184C262.349 66.76 261.805 67.224 261.176 67.576C260.557 67.9387 259.89 68.2107 259.176 68.392L258.776 67.288Z" fill="white"/>
<path d="M80.024 106.232C79.7787 106.147 79.512 106.077 79.224 106.024C78.9467 105.96 78.6693 105.928 78.392 105.928C77.3467 105.928 76.568 106.173 76.056 106.664C75.544 107.155 75.288 107.933 75.288 109C75.288 109.469 75.3627 109.891 75.512 110.264C75.6613 110.627 75.8747 110.936 76.152 111.192C76.4293 111.448 76.76 111.645 77.144 111.784C77.5387 111.923 77.9707 111.992 78.44 111.992C78.9413 111.992 79.4267 111.907 79.896 111.736C80.376 111.565 80.776 111.341 81.096 111.064L81.656 111.992C81.5067 112.12 81.32 112.253 81.096 112.392C80.872 112.531 80.6107 112.664 80.312 112.792C80.024 112.909 79.6987 113.005 79.336 113.08C78.984 113.155 78.6 113.192 78.184 113.192C77.4907 113.192 76.8773 113.096 76.344 112.904C75.8213 112.701 75.384 112.419 75.032 112.056C74.68 111.683 74.4133 111.24 74.232 110.728C74.0507 110.205 73.96 109.629 73.96 109C73.96 108.328 74.0507 107.731 74.232 107.208C74.424 106.685 74.696 106.248 75.048 105.896C75.4 105.544 75.8267 105.277 76.328 105.096C76.8293 104.904 77.3893 104.808 78.008 104.808C78.7973 104.808 79.4373 104.877 79.928 105.016C80.4293 105.155 80.8507 105.309 81.192 105.48L81.176 105.528V107.752H80.024V106.232ZM89.0018 105H91.2738V110.456C91.2738 110.979 91.3058 111.48 91.3698 111.96H92.4418V113H90.3138L90.2658 111.64H90.2018C89.9244 112.099 89.5564 112.472 89.0978 112.76C88.6391 113.048 88.0844 113.192 87.4338 113.192C86.9431 113.192 86.5218 113.133 86.1698 113.016C85.8284 112.909 85.5458 112.717 85.3218 112.44C85.0978 112.163 84.9324 111.795 84.8258 111.336C84.7191 110.867 84.6658 110.285 84.6658 109.592V106.072H83.5938V105H85.9138V109.336C85.9138 109.773 85.9298 110.168 85.9618 110.52C86.0044 110.861 86.0844 111.155 86.2018 111.4C86.3191 111.635 86.4898 111.816 86.7138 111.944C86.9484 112.061 87.2578 112.12 87.6418 112.12C88.1964 112.12 88.6764 111.939 89.0818 111.576C89.4978 111.213 89.8124 110.76 90.0258 110.216V106.072H89.0018V105ZM100.396 110.84C100.396 110.499 100.262 110.237 99.9955 110.056C99.7288 109.864 99.3982 109.715 99.0035 109.608C98.6088 109.491 98.1768 109.384 97.7075 109.288C97.2488 109.192 96.8222 109.064 96.4275 108.904C96.0328 108.744 95.7022 108.531 95.4355 108.264C95.1688 107.987 95.0355 107.603 95.0355 107.112C95.0355 106.707 95.1208 106.36 95.2915 106.072C95.4728 105.784 95.7075 105.549 95.9955 105.368C96.2835 105.176 96.6195 105.037 97.0035 104.952C97.3875 104.856 97.7875 104.808 98.2035 104.808C98.9502 104.808 99.5902 104.904 100.124 105.096C100.668 105.277 101.1 105.469 101.42 105.672L100.908 106.68C100.556 106.488 100.172 106.307 99.7555 106.136C99.3502 105.955 98.8382 105.864 98.2195 105.864C97.9848 105.864 97.7502 105.891 97.5155 105.944C97.2915 105.987 97.0835 106.056 96.8915 106.152C96.7102 106.248 96.5608 106.376 96.4435 106.536C96.3368 106.685 96.2835 106.872 96.2835 107.096C96.2835 107.373 96.4168 107.587 96.6835 107.736C96.9502 107.885 97.2808 108.013 97.6755 108.12C98.0702 108.216 98.4968 108.312 98.9555 108.408C99.4248 108.493 99.8568 108.621 100.252 108.792C100.646 108.963 100.977 109.192 101.244 109.48C101.51 109.768 101.644 110.157 101.644 110.648C101.644 111.384 101.35 111.992 100.764 112.472C100.188 112.952 99.3182 113.192 98.1555 113.192C97.8035 113.192 97.4568 113.16 97.1155 113.096C96.7742 113.032 96.4542 112.947 96.1555 112.84C95.8568 112.733 95.5848 112.616 95.3395 112.488C95.0942 112.349 94.8915 112.211 94.7315 112.072L95.3715 111.032C95.4995 111.16 95.6702 111.293 95.8835 111.432C96.0968 111.56 96.3315 111.677 96.5875 111.784C96.8435 111.891 97.1155 111.976 97.4035 112.04C97.7022 112.104 98.0008 112.136 98.2995 112.136C98.5875 112.136 98.8542 112.115 99.0995 112.072C99.3555 112.019 99.5795 111.944 99.7715 111.848C99.9635 111.741 100.113 111.608 100.22 111.448C100.337 111.277 100.396 111.075 100.396 110.84ZM104.077 105H105.981V103.416L107.229 103.064V105H111.501V106.072H107.229V109.848C107.229 110.627 107.416 111.203 107.789 111.576C108.173 111.949 108.717 112.136 109.421 112.136C109.901 112.136 110.317 112.045 110.669 111.864C111.032 111.683 111.357 111.485 111.645 111.272L112.061 112.216C111.688 112.515 111.24 112.755 110.717 112.936C110.205 113.117 109.677 113.208 109.133 113.208C108.707 113.208 108.301 113.144 107.917 113.016C107.544 112.899 107.213 112.712 106.925 112.456C106.637 112.2 106.408 111.875 106.237 111.48C106.067 111.075 105.981 110.595 105.981 110.04V106.072H104.077V105ZM114.687 109C114.687 107.709 115.023 106.691 115.695 105.944C116.367 105.187 117.327 104.808 118.575 104.808C119.247 104.808 119.823 104.92 120.303 105.144C120.794 105.357 121.199 105.651 121.519 106.024C121.839 106.397 122.074 106.84 122.223 107.352C122.383 107.864 122.463 108.413 122.463 109C122.463 109.64 122.378 110.221 122.207 110.744C122.036 111.256 121.786 111.693 121.455 112.056C121.124 112.419 120.714 112.701 120.223 112.904C119.743 113.096 119.194 113.192 118.575 113.192C117.914 113.192 117.338 113.085 116.847 112.872C116.356 112.648 115.951 112.349 115.631 111.976C115.311 111.603 115.071 111.16 114.911 110.648C114.762 110.136 114.687 109.587 114.687 109ZM116.015 109C116.015 109.373 116.058 109.747 116.143 110.12C116.239 110.493 116.388 110.829 116.591 111.128C116.794 111.427 117.055 111.667 117.375 111.848C117.706 112.029 118.106 112.12 118.575 112.12C119.428 112.12 120.068 111.859 120.495 111.336C120.932 110.803 121.151 110.024 121.151 109C121.151 108.616 121.103 108.243 121.007 107.88C120.922 107.507 120.772 107.171 120.559 106.872C120.356 106.573 120.09 106.333 119.759 106.152C119.439 105.971 119.044 105.88 118.575 105.88C117.722 105.88 117.082 106.141 116.655 106.664C116.228 107.187 116.015 107.965 116.015 109ZM128.161 113V107.672C128.161 107.448 128.15 107.235 128.129 107.032C128.118 106.819 128.081 106.632 128.017 106.472C127.963 106.301 127.878 106.168 127.761 106.072C127.654 105.976 127.51 105.928 127.329 105.928C126.966 105.928 126.657 106.077 126.401 106.376C126.155 106.675 125.969 107.048 125.841 107.496V113H124.625V105H125.457L125.697 105.976H125.761C125.867 105.816 125.969 105.667 126.065 105.528C126.171 105.379 126.289 105.251 126.417 105.144C126.555 105.037 126.715 104.957 126.897 104.904C127.078 104.84 127.307 104.808 127.585 104.808C127.745 104.808 127.91 104.835 128.081 104.888C128.251 104.931 128.406 105.005 128.545 105.112C128.694 105.208 128.822 105.341 128.929 105.512C129.035 105.683 129.105 105.891 129.137 106.136C129.382 105.72 129.654 105.395 129.953 105.16C130.262 104.925 130.683 104.808 131.217 104.808C131.569 104.808 131.851 104.867 132.065 104.984C132.289 105.101 132.459 105.272 132.577 105.496C132.705 105.709 132.79 105.971 132.833 106.28C132.886 106.579 132.913 106.915 132.913 107.288V113H131.697V107.56C131.697 107.336 131.686 107.128 131.665 106.936C131.643 106.733 131.601 106.557 131.537 106.408C131.483 106.259 131.403 106.141 131.297 106.056C131.201 105.971 131.067 105.928 130.897 105.928C130.523 105.928 130.209 106.077 129.953 106.376C129.697 106.675 129.505 107.101 129.377 107.656V113H128.161ZM134.802 101.8H143.122V104.728H141.938V102.984H139.618V111.816H141.378V113H136.53V111.816H138.29V102.984H135.986V104.728H134.802V101.8ZM146.084 105.624C146.543 105.357 147.06 105.165 147.636 105.048C148.212 104.931 148.778 104.872 149.332 104.872C149.876 104.872 150.319 104.957 150.66 105.128C151.012 105.299 151.284 105.523 151.476 105.8C151.679 106.067 151.812 106.376 151.876 106.728C151.951 107.069 151.988 107.416 151.988 107.768C151.988 108.173 151.978 108.605 151.956 109.064C151.935 109.523 151.919 109.981 151.908 110.44C151.908 110.973 151.94 111.48 152.004 111.96H153.076V113H150.948L150.804 111.8H150.724C150.66 111.896 150.564 112.019 150.436 112.168C150.308 112.317 150.138 112.467 149.924 112.616C149.722 112.755 149.471 112.877 149.172 112.984C148.874 113.091 148.522 113.144 148.116 113.144C147.327 113.144 146.703 112.941 146.244 112.536C145.786 112.131 145.556 111.576 145.556 110.872C145.556 110.328 145.674 109.875 145.908 109.512C146.154 109.149 146.5 108.872 146.948 108.68C147.396 108.488 147.935 108.376 148.564 108.344C149.204 108.312 149.919 108.355 150.708 108.472C150.762 107.981 150.767 107.576 150.724 107.256C150.692 106.925 150.607 106.664 150.468 106.472C150.34 106.28 150.154 106.147 149.908 106.072C149.674 105.987 149.38 105.944 149.028 105.944C148.548 105.944 148.09 106.013 147.652 106.152C147.215 106.28 146.826 106.413 146.484 106.552L146.084 105.624ZM148.436 112.072C148.735 112.072 149.012 112.024 149.268 111.928C149.524 111.832 149.748 111.709 149.94 111.56C150.132 111.411 150.292 111.251 150.42 111.08C150.548 110.899 150.644 110.728 150.708 110.568V109.448C150.154 109.352 149.642 109.304 149.172 109.304C148.703 109.304 148.298 109.357 147.956 109.464C147.615 109.56 147.348 109.715 147.156 109.928C146.964 110.141 146.868 110.419 146.868 110.76C146.868 111.112 146.986 111.421 147.22 111.688C147.466 111.944 147.871 112.072 148.436 112.072ZM161.558 110.84C161.558 110.499 161.425 110.237 161.158 110.056C160.891 109.864 160.561 109.715 160.166 109.608C159.771 109.491 159.339 109.384 158.87 109.288C158.411 109.192 157.985 109.064 157.59 108.904C157.195 108.744 156.865 108.531 156.598 108.264C156.331 107.987 156.198 107.603 156.198 107.112C156.198 106.707 156.283 106.36 156.454 106.072C156.635 105.784 156.87 105.549 157.158 105.368C157.446 105.176 157.782 105.037 158.166 104.952C158.55 104.856 158.95 104.808 159.366 104.808C160.113 104.808 160.753 104.904 161.286 105.096C161.83 105.277 162.262 105.469 162.582 105.672L162.07 106.68C161.718 106.488 161.334 106.307 160.918 106.136C160.513 105.955 160.001 105.864 159.382 105.864C159.147 105.864 158.913 105.891 158.678 105.944C158.454 105.987 158.246 106.056 158.054 106.152C157.873 106.248 157.723 106.376 157.606 106.536C157.499 106.685 157.446 106.872 157.446 107.096C157.446 107.373 157.579 107.587 157.846 107.736C158.113 107.885 158.443 108.013 158.838 108.12C159.233 108.216 159.659 108.312 160.118 108.408C160.587 108.493 161.019 108.621 161.414 108.792C161.809 108.963 162.139 109.192 162.406 109.48C162.673 109.768 162.806 110.157 162.806 110.648C162.806 111.384 162.513 111.992 161.926 112.472C161.35 112.952 160.481 113.192 159.318 113.192C158.966 113.192 158.619 113.16 158.278 113.096C157.937 113.032 157.617 112.947 157.318 112.84C157.019 112.733 156.747 112.616 156.502 112.488C156.257 112.349 156.054 112.211 155.894 112.072L156.534 111.032C156.662 111.16 156.833 111.293 157.046 111.432C157.259 111.56 157.494 111.677 157.75 111.784C158.006 111.891 158.278 111.976 158.566 112.04C158.865 112.104 159.163 112.136 159.462 112.136C159.75 112.136 160.017 112.115 160.262 112.072C160.518 112.019 160.742 111.944 160.934 111.848C161.126 111.741 161.275 111.608 161.382 111.448C161.499 111.277 161.558 111.075 161.558 110.84ZM165.128 101.8H167.72V108.424H168.6L171.752 105H173.256L169.72 108.792L172.632 111.928H173.672V113H172.024L168.6 109.384H167.72V113H166.488V102.872H165.128V101.8ZM178.666 112.12C178.666 111.779 178.762 111.517 178.954 111.336C179.146 111.144 179.402 111.048 179.722 111.048C180.063 111.048 180.33 111.144 180.522 111.336C180.714 111.517 180.81 111.779 180.81 112.12C180.81 112.429 180.714 112.685 180.522 112.888C180.33 113.091 180.063 113.192 179.722 113.192C179.402 113.192 179.146 113.091 178.954 112.888C178.762 112.685 178.666 112.429 178.666 112.12ZM186.187 113V111.928H188.347V106.072H186.187V105H189.179L189.435 106.04H189.515C189.878 105.709 190.283 105.427 190.731 105.192C191.179 104.957 191.713 104.84 192.331 104.84C192.694 104.84 192.982 104.909 193.195 105.048C193.419 105.187 193.59 105.389 193.707 105.656C193.835 105.923 193.921 106.248 193.963 106.632C194.006 107.005 194.027 107.432 194.027 107.912L192.907 107.928C192.907 107.245 192.838 106.744 192.699 106.424C192.571 106.104 192.331 105.944 191.979 105.944C191.649 105.944 191.35 105.992 191.083 106.088C190.817 106.184 190.582 106.301 190.379 106.44C190.187 106.579 190.022 106.717 189.883 106.856C189.745 106.995 189.643 107.112 189.579 107.208V111.928H192.651V113H186.187ZM203.789 111.992C203.597 112.163 203.368 112.323 203.101 112.472C202.845 112.621 202.562 112.749 202.253 112.856C201.944 112.963 201.618 113.043 201.277 113.096C200.946 113.16 200.61 113.192 200.269 113.192C199.629 113.192 199.064 113.096 198.573 112.904C198.082 112.701 197.672 112.419 197.341 112.056C197.01 111.683 196.76 111.24 196.589 110.728C196.418 110.216 196.333 109.64 196.333 109C196.333 108.328 196.424 107.731 196.605 107.208C196.797 106.685 197.069 106.248 197.421 105.896C197.773 105.544 198.2 105.277 198.701 105.096C199.202 104.904 199.762 104.808 200.381 104.808C200.829 104.808 201.272 104.867 201.709 104.984C202.146 105.101 202.53 105.325 202.861 105.656C203.202 105.976 203.464 106.424 203.645 107C203.826 107.565 203.89 108.301 203.837 109.208H197.645C197.645 110.168 197.901 110.888 198.413 111.368C198.936 111.837 199.629 112.072 200.493 112.072C200.781 112.072 201.064 112.04 201.341 111.976C201.629 111.901 201.901 111.816 202.157 111.72C202.413 111.624 202.637 111.517 202.829 111.4C203.032 111.283 203.186 111.176 203.293 111.08L203.789 111.992ZM200.413 105.864C200.061 105.864 199.725 105.901 199.405 105.976C199.096 106.051 198.818 106.179 198.573 106.36C198.338 106.531 198.141 106.76 197.981 107.048C197.832 107.325 197.736 107.672 197.693 108.088H202.669C202.616 107.384 202.386 106.84 201.981 106.456C201.586 106.061 201.064 105.864 200.413 105.864ZM211.103 101.8H213.695V110.264C213.695 110.36 213.7 110.483 213.711 110.632C213.721 110.771 213.732 110.92 213.743 111.08C213.764 111.24 213.785 111.4 213.807 111.56C213.828 111.709 213.849 111.843 213.871 111.96H214.943V113H212.815L212.655 111.768H212.591C212.356 112.173 212.004 112.515 211.535 112.792C211.076 113.059 210.543 113.192 209.935 113.192C208.729 113.192 207.839 112.856 207.263 112.184C206.697 111.501 206.415 110.445 206.415 109.016C206.415 108.344 206.511 107.752 206.703 107.24C206.895 106.717 207.167 106.285 207.519 105.944C207.881 105.592 208.313 105.325 208.815 105.144C209.316 104.963 209.876 104.872 210.495 104.872C210.719 104.872 210.916 104.877 211.087 104.888C211.268 104.899 211.433 104.915 211.583 104.936C211.732 104.957 211.871 104.989 211.999 105.032C212.137 105.064 212.287 105.101 212.447 105.144V102.872H211.103V101.8ZM210.143 112.12C210.793 112.12 211.305 111.955 211.679 111.624C212.052 111.283 212.308 110.776 212.447 110.104V106.392C212.212 106.232 211.945 106.115 211.647 106.04C211.359 105.965 210.975 105.928 210.495 105.928C209.641 105.928 208.969 106.179 208.479 106.68C207.988 107.171 207.743 107.949 207.743 109.016C207.743 109.453 207.78 109.864 207.855 110.248C207.94 110.621 208.073 110.947 208.255 111.224C208.447 111.501 208.697 111.72 209.007 111.88C209.316 112.04 209.695 112.12 210.143 112.12ZM221.52 105H223.792V110.456C223.792 110.979 223.824 111.48 223.888 111.96H224.96V113H222.832L222.784 111.64H222.72C222.443 112.099 222.075 112.472 221.616 112.76C221.158 113.048 220.603 113.192 219.952 113.192C219.462 113.192 219.04 113.133 218.688 113.016C218.347 112.909 218.064 112.717 217.84 112.44C217.616 112.163 217.451 111.795 217.344 111.336C217.238 110.867 217.184 110.285 217.184 109.592V106.072H216.112V105H218.432V109.336C218.432 109.773 218.448 110.168 218.48 110.52C218.523 110.861 218.603 111.155 218.72 111.4C218.838 111.635 219.008 111.816 219.232 111.944C219.467 112.061 219.776 112.12 220.16 112.12C220.715 112.12 221.195 111.939 221.6 111.576C222.016 111.213 222.331 110.76 222.544 110.216V106.072H221.52V105ZM232.914 110.84C232.914 110.499 232.781 110.237 232.514 110.056C232.248 109.864 231.917 109.715 231.522 109.608C231.128 109.491 230.696 109.384 230.226 109.288C229.768 109.192 229.341 109.064 228.946 108.904C228.552 108.744 228.221 108.531 227.954 108.264C227.688 107.987 227.554 107.603 227.554 107.112C227.554 106.707 227.64 106.36 227.81 106.072C227.992 105.784 228.226 105.549 228.514 105.368C228.802 105.176 229.138 105.037 229.522 104.952C229.906 104.856 230.306 104.808 230.722 104.808C231.469 104.808 232.109 104.904 232.642 105.096C233.186 105.277 233.618 105.469 233.938 105.672L233.426 106.68C233.074 106.488 232.69 106.307 232.274 106.136C231.869 105.955 231.357 105.864 230.738 105.864C230.504 105.864 230.269 105.891 230.034 105.944C229.81 105.987 229.602 106.056 229.41 106.152C229.229 106.248 229.08 106.376 228.962 106.536C228.856 106.685 228.802 106.872 228.802 107.096C228.802 107.373 228.936 107.587 229.202 107.736C229.469 107.885 229.8 108.013 230.194 108.12C230.589 108.216 231.016 108.312 231.474 108.408C231.944 108.493 232.376 108.621 232.77 108.792C233.165 108.963 233.496 109.192 233.762 109.48C234.029 109.768 234.162 110.157 234.162 110.648C234.162 111.384 233.869 111.992 233.282 112.472C232.706 112.952 231.837 113.192 230.674 113.192C230.322 113.192 229.976 113.16 229.634 113.096C229.293 113.032 228.973 112.947 228.674 112.84C228.376 112.733 228.104 112.616 227.858 112.488C227.613 112.349 227.41 112.211 227.25 112.072L227.89 111.032C228.018 111.16 228.189 111.293 228.402 111.432C228.616 111.56 228.85 111.677 229.106 111.784C229.362 111.891 229.634 111.976 229.922 112.04C230.221 112.104 230.52 112.136 230.818 112.136C231.106 112.136 231.373 112.115 231.618 112.072C231.874 112.019 232.098 111.944 232.29 111.848C232.482 111.741 232.632 111.608 232.738 111.448C232.856 111.277 232.914 111.075 232.914 110.84ZM244.564 111.992C244.372 112.163 244.143 112.323 243.876 112.472C243.62 112.621 243.337 112.749 243.028 112.856C242.719 112.963 242.393 113.043 242.052 113.096C241.721 113.16 241.385 113.192 241.044 113.192C240.404 113.192 239.839 113.096 239.348 112.904C238.857 112.701 238.447 112.419 238.116 112.056C237.785 111.683 237.535 111.24 237.364 110.728C237.193 110.216 237.108 109.64 237.108 109C237.108 108.328 237.199 107.731 237.38 107.208C237.572 106.685 237.844 106.248 238.196 105.896C238.548 105.544 238.975 105.277 239.476 105.096C239.977 104.904 240.537 104.808 241.156 104.808C241.604 104.808 242.047 104.867 242.484 104.984C242.921 105.101 243.305 105.325 243.636 105.656C243.977 105.976 244.239 106.424 244.42 107C244.601 107.565 244.665 108.301 244.612 109.208H238.42C238.42 110.168 238.676 110.888 239.188 111.368C239.711 111.837 240.404 112.072 241.268 112.072C241.556 112.072 241.839 112.04 242.116 111.976C242.404 111.901 242.676 111.816 242.932 111.72C243.188 111.624 243.412 111.517 243.604 111.4C243.807 111.283 243.961 111.176 244.068 111.08L244.564 111.992ZM241.188 105.864C240.836 105.864 240.5 105.901 240.18 105.976C239.871 106.051 239.593 106.179 239.348 106.36C239.113 106.531 238.916 106.76 238.756 107.048C238.607 107.325 238.511 107.672 238.468 108.088H243.444C243.391 107.384 243.161 106.84 242.756 106.456C242.361 106.061 241.839 105.864 241.188 105.864ZM253.206 116.392C252.491 116.211 251.819 115.939 251.19 115.576C250.571 115.224 250.027 114.76 249.558 114.184C249.099 113.608 248.731 112.904 248.454 112.072C248.187 111.24 248.054 110.253 248.054 109.112C248.054 107.981 248.192 106.995 248.47 106.152C248.747 105.299 249.12 104.579 249.59 103.992C250.059 103.395 250.603 102.92 251.222 102.568C251.851 102.205 252.512 101.949 253.206 101.8L253.606 102.808C252.976 102.989 252.4 103.229 251.878 103.528C251.355 103.816 250.902 104.205 250.518 104.696C250.144 105.176 249.851 105.779 249.638 106.504C249.435 107.219 249.334 108.088 249.334 109.112C249.334 110.147 249.456 111.032 249.702 111.768C249.958 112.493 250.288 113.096 250.694 113.576C251.11 114.067 251.568 114.445 252.07 114.712C252.582 114.989 253.094 115.181 253.606 115.288L253.206 116.392ZM260.216 112.12C260.216 111.779 260.312 111.517 260.504 111.336C260.696 111.144 260.952 111.048 261.272 111.048C261.613 111.048 261.88 111.144 262.072 111.336C262.264 111.517 262.36 111.779 262.36 112.12C262.36 112.429 262.264 112.685 262.072 112.888C261.88 113.091 261.613 113.192 261.272 113.192C260.952 113.192 260.696 113.091 260.504 112.888C260.312 112.685 260.216 112.429 260.216 112.12ZM270.409 112.12C270.409 111.779 270.505 111.517 270.697 111.336C270.889 111.144 271.145 111.048 271.465 111.048C271.807 111.048 272.073 111.144 272.265 111.336C272.457 111.517 272.553 111.779 272.553 112.12C272.553 112.429 272.457 112.685 272.265 112.888C272.073 113.091 271.807 113.192 271.465 113.192C271.145 113.192 270.889 113.091 270.697 112.888C270.505 112.685 270.409 112.429 270.409 112.12ZM280.603 112.12C280.603 111.779 280.699 111.517 280.891 111.336C281.083 111.144 281.339 111.048 281.659 111.048C282 111.048 282.267 111.144 282.459 111.336C282.651 111.517 282.747 111.779 282.747 112.12C282.747 112.429 282.651 112.685 282.459 112.888C282.267 113.091 282 113.192 281.659 113.192C281.339 113.192 281.083 113.091 280.891 112.888C280.699 112.685 280.603 112.429 280.603 112.12ZM289.357 115.288C289.869 115.181 290.375 114.989 290.877 114.712C291.389 114.445 291.847 114.067 292.253 113.576C292.669 113.096 292.999 112.493 293.245 111.768C293.501 111.032 293.629 110.147 293.629 109.112C293.629 108.088 293.522 107.219 293.309 106.504C293.106 105.779 292.813 105.176 292.429 104.696C292.055 104.205 291.607 103.816 291.085 103.528C290.562 103.229 289.986 102.989 289.357 102.808L289.757 101.8C290.45 101.949 291.106 102.205 291.725 102.568C292.354 102.92 292.903 103.395 293.373 103.992C293.842 104.579 294.215 105.299 294.493 106.152C294.77 106.995 294.909 107.981 294.909 109.112C294.909 110.253 294.77 111.24 294.493 112.072C294.226 112.904 293.858 113.608 293.389 114.184C292.93 114.76 292.386 115.224 291.757 115.576C291.138 115.939 290.471 116.211 289.757 116.392L289.357 115.288Z" fill="white"/>
<path d="M165.048 341.112C165.438 341.503 166.072 341.503 166.462 341.112L172.826 334.748C173.217 334.358 173.217 333.725 172.826 333.334C172.436 332.944 171.802 332.944 171.412 333.334L165.755 338.991L160.098 333.334C159.708 332.944 159.074 332.944 158.684 333.334C158.293 333.725 158.293 334.358 158.684 334.748L165.048 341.112ZM97.8259 301.481L97.8259 302.481L97.8259 301.481ZM85.8259 231.065L85.8259 290.481L87.8259 290.481L87.8259 231.065L85.8259 231.065ZM97.8259 302.481L154.755 302.481L154.755 300.481L97.8259 300.481L97.8259 302.481ZM164.755 312.481L164.755 340.405L166.755 340.405L166.755 312.481L164.755 312.481ZM154.755 302.481C160.278 302.481 164.755 306.958 164.755 312.481L166.755 312.481C166.755 305.854 161.382 300.481 154.755 300.481L154.755 302.481ZM85.8259 290.481C85.8259 297.109 91.1985 302.481 97.8259 302.481L97.8259 300.481C92.3031 300.481 87.8259 296.004 87.8259 290.481L85.8259 290.481Z" fill="#2D2D2D"/>
<path d="M33.1302 441.6V338.836C33.1302 338.836 44.1572 349.267 78.4303 349.267C112.703 349.267 124.923 337.644 124.923 337.644V441.6C111.374 462.363 37.5046 456.776 33.1302 441.6Z" fill="white"/>
<path d="M125 334.769C125 336.383 123.976 338.096 121.701 339.808C119.442 341.508 116.105 343.082 111.878 344.422C103.436 347.097 91.6682 348.769 78.5 348.769C65.3318 348.769 53.5638 347.097 45.1217 344.422C40.8949 343.082 37.5581 341.508 35.2993 339.808C33.0244 338.096 32 336.383 32 334.769C32 333.154 33.0244 331.441 35.2993 329.729C37.5581 328.029 40.8949 326.455 45.1217 325.115C53.5638 322.44 65.3318 320.769 78.5 320.769C91.6682 320.769 103.436 322.44 111.878 325.115C116.105 326.455 119.442 328.029 121.701 329.729C123.976 331.441 125 333.154 125 334.769Z" fill="white" stroke="#ED1C24" stroke-width="2"/>
<path d="M32 333.769L32.3506 441.032" stroke="#ED1C24" stroke-width="2"/>
<path d="M125 333.769L125 441.769" stroke="#ED1C24" stroke-width="2"/>
<path d="M125.089 440.211C125.089 448.168 104.328 454.617 78.7196 454.617C53.1107 454.617 32.3506 448.168 32.3506 440.211" stroke="#ED1C24" stroke-width="2"/>
<path d="M82.6372 399.884V401.573H73.1743C73.1613 401.15 73.2297 400.743 73.3794 400.353C73.6203 399.708 74.0044 399.073 74.5317 398.448C75.0656 397.823 75.8338 397.101 76.8364 396.28C78.3924 395.004 79.4438 393.995 79.9907 393.253C80.5376 392.504 80.811 391.798 80.811 391.134C80.811 390.437 80.5604 389.851 80.0591 389.376C79.5643 388.894 78.9165 388.653 78.1157 388.653C77.2694 388.653 76.5923 388.907 76.0845 389.415C75.5767 389.923 75.3195 390.626 75.313 391.524L73.5063 391.339C73.63 389.991 74.0955 388.966 74.9028 388.263C75.7101 387.553 76.7941 387.198 78.1548 387.198C79.5285 387.198 80.6157 387.579 81.4165 388.341C82.2173 389.103 82.6177 390.047 82.6177 391.173C82.6177 391.746 82.5005 392.309 82.2661 392.862C82.0317 393.416 81.6411 393.998 81.0942 394.61C80.5539 395.222 79.6522 396.062 78.3892 397.13C77.3345 398.015 76.6574 398.618 76.3579 398.937C76.0584 399.249 75.811 399.565 75.6157 399.884H82.6372Z" fill="black"/>
<path d="M95.8356 394.486C95.8356 404.258 87.9141 412.18 78.1423 412.18C68.3705 412.18 60.449 404.258 60.449 394.486C60.449 384.715 68.3705 376.793 78.1423 376.793M73.2522 372.911L79.023 376.427L75.5071 382.198" stroke="#9C9C9C" stroke-width="2"/>
<path d="M209.13 442.6V338.836C209.13 338.836 220.157 349.267 254.43 349.267C288.703 349.267 300.923 337.644 300.923 337.644V442.6C300.923 442.6 295.987 455.345 254.43 455.835C212.873 456.326 209.13 442.6 209.13 442.6Z" fill="white"/>
<path d="M301 334.769C301 336.383 299.976 338.096 297.701 339.808C295.442 341.508 292.105 343.082 287.878 344.422C279.436 347.097 267.668 348.769 254.5 348.769C241.332 348.769 229.564 347.097 221.122 344.422C216.895 343.082 213.558 341.508 211.299 339.808C209.024 338.096 208 336.383 208 334.769C208 333.154 209.024 331.441 211.299 329.729C213.558 328.029 216.895 326.455 221.122 325.115C229.564 322.44 241.332 320.769 254.5 320.769C267.668 320.769 279.436 322.44 287.878 325.115C292.105 326.455 295.442 328.029 297.701 329.729C299.976 331.441 301 333.154 301 334.769Z" fill="white" stroke="#ED1C24" stroke-width="2"/>
<path d="M208 333.769L208.351 441.032" stroke="#ED1C24" stroke-width="2"/>
<path d="M301 333.769L301 441.769" stroke="#ED1C24" stroke-width="2"/>
<path d="M301.089 441.211C301.089 449.168 280.328 455.617 254.72 455.617C229.111 455.617 208.351 449.168 208.351 441.211" stroke="#ED1C24" stroke-width="2"/>
<path d="M258.637 399.884V401.573H249.174C249.161 401.15 249.23 400.743 249.379 400.353C249.62 399.708 250.004 399.073 250.532 398.448C251.066 397.823 251.834 397.101 252.836 396.28C254.392 395.004 255.444 393.995 255.991 393.253C256.538 392.504 256.811 391.798 256.811 391.134C256.811 390.437 256.56 389.851 256.059 389.376C255.564 388.894 254.917 388.653 254.116 388.653C253.269 388.653 252.592 388.907 252.084 389.415C251.577 389.923 251.319 390.626 251.313 391.524L249.506 391.339C249.63 389.991 250.096 388.966 250.903 388.263C251.71 387.553 252.794 387.198 254.155 387.198C255.528 387.198 256.616 387.579 257.417 388.341C258.217 389.103 258.618 390.047 258.618 391.173C258.618 391.746 258.5 392.309 258.266 392.862C258.032 393.416 257.641 393.998 257.094 394.61C256.554 395.222 255.652 396.062 254.389 397.13C253.334 398.015 252.657 398.618 252.358 398.937C252.058 399.249 251.811 399.565 251.616 399.884H258.637Z" fill="black"/>
<path d="M271.836 394.486C271.836 404.258 263.914 412.18 254.142 412.18C244.371 412.18 236.449 404.258 236.449 394.486C236.449 384.715 244.371 376.793 254.142 376.793M249.252 372.911L255.023 376.427L251.507 382.198" stroke="#9C9C9C" stroke-width="2"/>
<path d="M121.13 472.177V368.62C121.13 368.62 132.157 377.165 166.43 377.165C200.703 377.165 212.923 367.644 212.923 367.644V471.605C199.202 490.489 129.533 488.057 121.13 472.177Z" fill="white"/>
<path d="M213 364.769C213 366.383 211.976 368.096 209.701 369.808C207.442 371.508 204.105 373.082 199.878 374.422C191.436 377.097 179.668 378.769 166.5 378.769C153.332 378.769 141.564 377.097 133.122 374.422C128.895 373.082 125.558 371.508 123.299 369.808C121.024 368.096 120 366.383 120 364.769C120 363.154 121.024 361.441 123.299 359.729C125.558 358.029 128.895 356.455 133.122 355.115C141.564 352.44 153.332 350.769 166.5 350.769C179.668 350.769 191.436 352.44 199.878 355.115C204.105 356.455 207.442 358.029 209.701 359.729C211.976 361.441 213 363.154 213 364.769Z" fill="white" stroke="#ED1C24" stroke-width="2"/>
<path d="M120 363.769L120.351 471.032" stroke="#ED1C24" stroke-width="2"/>
<path d="M213 363.769L213 471.769" stroke="#ED1C24" stroke-width="2"/>
<path d="M213.089 470.211C213.089 478.168 192.328 484.617 166.72 484.617C141.111 484.617 120.351 478.168 120.351 470.211" stroke="#ED1C24" stroke-width="2"/>
<path d="M229.924 467.142C229.924 467.142 219.425 473.544 229.32 479.902C231.224 481.14 238.128 484.583 237.931 487.77C237.931 487.77 242.116 481.578 235.997 477.682C229.713 473.695 228.142 469.437 229.924 467.142Z" fill="#ED1C24"/>
<path d="M226.269 479.374C226.269 479.374 222.522 485.052 229.894 486.214C230.62 486.305 235.952 486.864 237.342 488.615C237.342 488.615 237.221 485.595 232.871 483.813C228.535 482.031 226.752 481.594 226.269 479.374Z" fill="#ED1C24"/>
<path d="M240.772 473.409C236.27 468.697 235.016 465.783 236.95 462.007C236.95 462.007 223.519 467.172 236.783 476.338C241.527 479.615 240.741 482.968 240.741 483.088C241.482 482.318 245.274 478.12 240.772 473.409Z" fill="#ED1C24"/>
<path d="M248.219 483.874V472.421H249.773L255.789 481.413V472.421H257.242V483.874H255.688L249.672 474.874V483.874H248.219ZM259.536 478.296C259.536 476.395 260.046 474.908 261.067 473.835C262.088 472.757 263.406 472.218 265.02 472.218C266.078 472.218 267.031 472.47 267.88 472.976C268.729 473.481 269.374 474.187 269.817 475.093C270.265 475.994 270.489 477.017 270.489 478.163C270.489 479.325 270.255 480.364 269.786 481.28C269.317 482.197 268.653 482.892 267.794 483.366C266.934 483.835 266.007 484.069 265.012 484.069C263.934 484.069 262.971 483.809 262.122 483.288C261.273 482.767 260.63 482.056 260.192 481.155C259.755 480.254 259.536 479.301 259.536 478.296ZM261.098 478.319C261.098 479.7 261.468 480.788 262.208 481.585C262.953 482.377 263.885 482.772 265.005 482.772C266.145 482.772 267.083 482.371 267.817 481.569C268.557 480.767 268.927 479.629 268.927 478.155C268.927 477.223 268.768 476.41 268.45 475.718C268.137 475.02 267.677 474.481 267.067 474.101C266.463 473.715 265.783 473.522 265.028 473.522C263.955 473.522 263.031 473.892 262.255 474.632C261.484 475.366 261.098 476.595 261.098 478.319ZM272.65 483.874V472.421H276.595C277.486 472.421 278.166 472.476 278.634 472.585C279.291 472.736 279.851 473.009 280.314 473.405C280.918 473.916 281.369 474.569 281.666 475.366C281.968 476.158 282.119 477.064 282.119 478.085C282.119 478.955 282.017 479.726 281.814 480.397C281.611 481.069 281.351 481.627 281.033 482.069C280.715 482.507 280.366 482.853 279.986 483.108C279.611 483.358 279.155 483.549 278.619 483.679C278.087 483.809 277.476 483.874 276.783 483.874H272.65ZM274.166 482.522H276.611C277.366 482.522 277.957 482.452 278.384 482.312C278.817 482.171 279.16 481.973 279.416 481.718C279.775 481.358 280.054 480.877 280.252 480.272C280.455 479.663 280.556 478.926 280.556 478.062C280.556 476.864 280.358 475.944 279.962 475.304C279.572 474.658 279.095 474.226 278.533 474.007C278.127 473.851 277.473 473.772 276.572 473.772H274.166V482.522ZM284.444 483.874V472.421H292.725V473.772H285.959V477.28H292.295V478.624H285.959V482.522H292.991V483.874H284.444Z" fill="#2D2D2D"/>
<path d="M41.8507 467.142C41.8507 467.142 31.3514 473.544 41.2464 479.902C43.1499 481.14 50.0538 484.583 49.8574 487.77C49.8574 487.77 54.042 481.578 47.9237 477.682C41.6392 473.695 40.0681 469.437 41.8507 467.142Z" fill="#ED1C24"/>
<path d="M38.195 479.374C38.195 479.374 34.4484 485.052 41.8207 486.214C42.5458 486.305 47.8786 486.864 49.2684 488.615C49.2684 488.615 49.1476 485.595 44.7967 483.813C40.461 482.031 38.6784 481.594 38.195 479.374Z" fill="#ED1C24"/>
<path d="M52.6979 473.409C48.196 468.697 46.9422 465.783 48.8759 462.007C48.8759 462.007 35.4457 467.172 48.7097 476.338C53.4533 479.615 52.6677 482.968 52.6677 483.088C53.408 482.318 57.1998 478.12 52.6979 473.409Z" fill="#ED1C24"/>
<path d="M60.145 483.874V472.421H61.6996L67.7153 481.413V472.421H69.1684V483.874H67.6137L61.5981 474.874V483.874H60.145ZM71.4621 478.296C71.4621 476.395 71.9726 474.908 72.9934 473.835C74.0142 472.757 75.3319 472.218 76.9465 472.218C78.0038 472.218 78.9569 472.47 79.8059 472.976C80.6549 473.481 81.3007 474.187 81.7434 475.093C82.1913 475.994 82.4153 477.017 82.4153 478.163C82.4153 479.325 82.1809 480.364 81.7121 481.28C81.2434 482.197 80.5793 482.892 79.72 483.366C78.8606 483.835 77.9335 484.069 76.9387 484.069C75.8606 484.069 74.897 483.809 74.0481 483.288C73.1991 482.767 72.5559 482.056 72.1184 481.155C71.6809 480.254 71.4621 479.301 71.4621 478.296ZM73.0246 478.319C73.0246 479.7 73.3944 480.788 74.134 481.585C74.8788 482.377 75.8111 482.772 76.9309 482.772C78.0715 482.772 79.009 482.371 79.7434 481.569C80.483 480.767 80.8528 479.629 80.8528 478.155C80.8528 477.223 80.6939 476.41 80.3762 475.718C80.0637 475.02 79.6028 474.481 78.9934 474.101C78.3892 473.715 77.7095 473.522 76.9543 473.522C75.8814 473.522 74.9569 473.892 74.1809 474.632C73.4101 475.366 73.0246 476.595 73.0246 478.319ZM84.5762 483.874V472.421H88.5215C89.4121 472.421 90.0918 472.476 90.5606 472.585C91.2168 472.736 91.7767 473.009 92.2403 473.405C92.8444 473.916 93.295 474.569 93.5918 475.366C93.8939 476.158 94.045 477.064 94.045 478.085C94.045 478.955 93.9434 479.726 93.7403 480.397C93.5371 481.069 93.2767 481.627 92.959 482.069C92.6413 482.507 92.2924 482.853 91.9121 483.108C91.5371 483.358 91.0814 483.549 90.545 483.679C90.0137 483.809 89.4017 483.874 88.709 483.874H84.5762ZM86.0918 482.522H88.5371C89.2924 482.522 89.8835 482.452 90.3106 482.312C90.7429 482.171 91.0866 481.973 91.3418 481.718C91.7012 481.358 91.9799 480.877 92.1778 480.272C92.3809 479.663 92.4825 478.926 92.4825 478.062C92.4825 476.864 92.2845 475.944 91.8887 475.304C91.4981 474.658 91.0215 474.226 90.459 474.007C90.0528 473.851 89.3991 473.772 88.4981 473.772H86.0918V482.522ZM96.37 483.874V472.421H104.651V473.772H97.8856V477.28H104.222V478.624H97.8856V482.522H104.917V483.874H96.37Z" fill="#2D2D2D"/>
<path d="M134.851 497.679C134.851 497.679 124.351 504.082 134.246 510.439C136.15 511.678 143.054 515.121 142.857 518.307C142.857 518.307 147.042 512.116 140.924 508.22C134.639 504.233 133.068 499.974 134.851 497.679Z" fill="#ED1C24"/>
<path d="M131.195 509.911C131.195 509.911 127.448 515.589 134.821 516.752C135.546 516.842 140.879 517.401 142.268 519.153C142.268 519.153 142.148 516.133 137.797 514.351C133.461 512.569 131.678 512.131 131.195 509.911Z" fill="#ED1C24"/>
<path d="M145.698 503.946C141.196 499.234 139.942 496.32 141.876 492.545C141.876 492.545 128.446 497.709 141.71 506.876C146.453 510.153 145.668 513.505 145.668 513.626C146.408 512.856 150.2 508.658 145.698 503.946Z" fill="#ED1C24"/>
<path d="M153.145 514.874V503.421H154.7L160.715 512.413V503.421H162.168V514.874H160.614L154.598 505.874V514.874H153.145ZM164.462 509.296C164.462 507.395 164.973 505.908 165.993 504.835C167.014 503.757 168.332 503.218 169.947 503.218C171.004 503.218 171.957 503.47 172.806 503.976C173.655 504.481 174.301 505.187 174.743 506.093C175.191 506.994 175.415 508.017 175.415 509.163C175.415 510.325 175.181 511.364 174.712 512.28C174.243 513.197 173.579 513.892 172.72 514.366C171.861 514.835 170.933 515.069 169.939 515.069C168.861 515.069 167.897 514.809 167.048 514.288C166.199 513.767 165.556 513.056 165.118 512.155C164.681 511.254 164.462 510.301 164.462 509.296ZM166.025 509.319C166.025 510.7 166.394 511.788 167.134 512.585C167.879 513.377 168.811 513.772 169.931 513.772C171.072 513.772 172.009 513.371 172.743 512.569C173.483 511.767 173.853 510.629 173.853 509.155C173.853 508.223 173.694 507.41 173.376 506.718C173.064 506.02 172.603 505.481 171.993 505.101C171.389 504.715 170.71 504.522 169.954 504.522C168.881 504.522 167.957 504.892 167.181 505.632C166.41 506.366 166.025 507.595 166.025 509.319ZM177.576 514.874V503.421H181.522C182.412 503.421 183.092 503.476 183.561 503.585C184.217 503.736 184.777 504.009 185.24 504.405C185.844 504.916 186.295 505.569 186.592 506.366C186.894 507.158 187.045 508.064 187.045 509.085C187.045 509.955 186.943 510.726 186.74 511.397C186.537 512.069 186.277 512.627 185.959 513.069C185.641 513.507 185.292 513.853 184.912 514.108C184.537 514.358 184.081 514.549 183.545 514.679C183.014 514.809 182.402 514.874 181.709 514.874H177.576ZM179.092 513.522H181.537C182.292 513.522 182.883 513.452 183.311 513.312C183.743 513.171 184.087 512.973 184.342 512.718C184.701 512.358 184.98 511.877 185.178 511.272C185.381 510.663 185.482 509.926 185.482 509.062C185.482 507.864 185.285 506.944 184.889 506.304C184.498 505.658 184.022 505.226 183.459 505.007C183.053 504.851 182.399 504.772 181.498 504.772H179.092V513.522ZM189.37 514.874V503.421H197.651V504.772H190.886V508.28H197.222V509.624H190.886V513.522H197.917V514.874H189.37Z" fill="#2D2D2D"/>
<path d="M170.637 431.884V433.573H161.174C161.161 433.15 161.23 432.743 161.379 432.353C161.62 431.708 162.004 431.073 162.532 430.448C163.066 429.823 163.834 429.101 164.836 428.28C166.392 427.004 167.444 425.995 167.991 425.253C168.538 424.504 168.811 423.798 168.811 423.134C168.811 422.437 168.56 421.851 168.059 421.376C167.564 420.894 166.917 420.653 166.116 420.653C165.269 420.653 164.592 420.907 164.084 421.415C163.577 421.923 163.319 422.626 163.313 423.524L161.506 423.339C161.63 421.991 162.096 420.966 162.903 420.263C163.71 419.553 164.794 419.198 166.155 419.198C167.528 419.198 168.616 419.579 169.417 420.341C170.217 421.103 170.618 422.047 170.618 423.173C170.618 423.746 170.5 424.309 170.266 424.862C170.032 425.416 169.641 425.998 169.094 426.61C168.554 427.222 167.652 428.062 166.389 429.13C165.334 430.015 164.657 430.618 164.358 430.937C164.058 431.249 163.811 431.565 163.616 431.884H170.637Z" fill="black"/>
<path d="M183.836 426.486C183.836 436.258 175.914 444.18 166.142 444.18C156.371 444.18 148.449 436.258 148.449 426.486C148.449 416.715 156.371 408.793 166.142 408.793M161.252 404.911L167.023 408.427L163.507 414.198" stroke="#9C9C9C" stroke-width="2"/>
<path d="M85.5334 207.675L110.515 214.286L110.515 178.357L85.5334 171.746L60.9901 179.385L60.9902 215.165L85.5334 207.675Z" fill="white" stroke="#2D2D2D" stroke-width="2"/>
<path d="M85.9716 186.27L60.9901 179.659L60.9901 223.471L85.9716 230.082L110.515 222.443L110.515 178.78L85.9716 186.27Z" fill="white" stroke="#2D2D2D" stroke-width="2"/>
<path d="M85.606 186.199L85.606 229.349" stroke="#2D2D2D" stroke-width="2"/>
<path d="M124.368 213.693L129.866 199.377H131.907L137.767 213.693H135.608L133.938 209.357H127.952L126.38 213.693H124.368ZM128.499 207.814H133.353L131.858 203.85C131.403 202.645 131.064 201.656 130.843 200.881C130.66 201.799 130.403 202.71 130.071 203.615L128.499 207.814ZM139.256 217.668V203.322H140.857V204.67C141.235 204.143 141.661 203.749 142.137 203.488C142.612 203.221 143.188 203.088 143.865 203.088C144.75 203.088 145.532 203.316 146.209 203.771C146.886 204.227 147.397 204.872 147.742 205.705C148.087 206.532 148.26 207.44 148.26 208.43C148.26 209.491 148.068 210.448 147.683 211.301C147.306 212.147 146.752 212.798 146.023 213.254C145.301 213.703 144.539 213.928 143.738 213.928C143.152 213.928 142.625 213.804 142.156 213.557C141.694 213.309 141.313 212.997 141.013 212.619V217.668H139.256ZM140.847 208.566C140.847 209.901 141.118 210.887 141.658 211.525C142.198 212.163 142.853 212.482 143.621 212.482C144.402 212.482 145.069 212.154 145.623 211.496C146.183 210.832 146.463 209.807 146.463 208.42C146.463 207.098 146.189 206.109 145.642 205.451C145.102 204.794 144.454 204.465 143.699 204.465C142.95 204.465 142.286 204.816 141.707 205.52C141.134 206.216 140.847 207.232 140.847 208.566ZM150.588 217.668V203.322H152.19V204.67C152.568 204.143 152.994 203.749 153.469 203.488C153.945 203.221 154.521 203.088 155.198 203.088C156.083 203.088 156.865 203.316 157.542 203.771C158.219 204.227 158.73 204.872 159.075 205.705C159.42 206.532 159.592 207.44 159.592 208.43C159.592 209.491 159.4 210.448 159.016 211.301C158.639 212.147 158.085 212.798 157.356 213.254C156.633 213.703 155.872 213.928 155.071 213.928C154.485 213.928 153.958 213.804 153.489 213.557C153.027 213.309 152.646 212.997 152.346 212.619V217.668H150.588ZM152.18 208.566C152.18 209.901 152.45 210.887 152.991 211.525C153.531 212.163 154.185 212.482 154.954 212.482C155.735 212.482 156.402 212.154 156.956 211.496C157.516 210.832 157.796 209.807 157.796 208.42C157.796 207.098 157.522 206.109 156.975 205.451C156.435 204.794 155.787 204.465 155.032 204.465C154.283 204.465 153.619 204.816 153.04 205.52C152.467 206.216 152.18 207.232 152.18 208.566ZM161.882 213.693V199.377H163.64V213.693H161.882ZM166.584 201.398V199.377H168.342V201.398H166.584ZM166.584 213.693V203.322H168.342V213.693H166.584ZM177.995 209.895L179.724 210.119C179.535 211.311 179.05 212.245 178.269 212.922C177.494 213.592 176.54 213.928 175.407 213.928C173.988 213.928 172.845 213.465 171.979 212.541C171.12 211.61 170.69 210.279 170.69 208.547C170.69 207.427 170.876 206.447 171.247 205.607C171.618 204.768 172.181 204.139 172.937 203.723C173.698 203.299 174.525 203.088 175.417 203.088C176.543 203.088 177.465 203.374 178.181 203.947C178.897 204.514 179.356 205.321 179.558 206.369L177.849 206.633C177.686 205.936 177.396 205.412 176.979 205.061C176.569 204.709 176.071 204.533 175.485 204.533C174.6 204.533 173.881 204.852 173.327 205.49C172.774 206.122 172.497 207.124 172.497 208.498C172.497 209.891 172.764 210.904 173.298 211.535C173.832 212.167 174.528 212.482 175.388 212.482C176.078 212.482 176.654 212.271 177.116 211.848C177.578 211.424 177.871 210.773 177.995 209.895ZM188.195 212.414C187.544 212.967 186.916 213.358 186.31 213.586C185.711 213.814 185.067 213.928 184.377 213.928C183.237 213.928 182.362 213.651 181.75 213.098C181.138 212.538 180.832 211.825 180.832 210.959C180.832 210.451 180.946 209.989 181.174 209.572C181.408 209.149 181.711 208.811 182.082 208.557C182.459 208.303 182.883 208.111 183.351 207.98C183.696 207.889 184.217 207.801 184.914 207.717C186.333 207.548 187.378 207.346 188.049 207.111C188.055 206.87 188.058 206.717 188.058 206.652C188.058 205.936 187.892 205.432 187.56 205.139C187.111 204.742 186.444 204.543 185.558 204.543C184.732 204.543 184.12 204.689 183.722 204.982C183.332 205.269 183.042 205.78 182.853 206.516L181.135 206.281C181.291 205.546 181.548 204.953 181.906 204.504C182.264 204.048 182.782 203.7 183.459 203.459C184.136 203.212 184.92 203.088 185.812 203.088C186.698 203.088 187.417 203.192 187.971 203.4C188.524 203.609 188.931 203.872 189.191 204.191C189.452 204.504 189.634 204.901 189.738 205.383C189.797 205.682 189.826 206.223 189.826 207.004V209.348C189.826 210.982 189.862 212.017 189.933 212.453C190.012 212.883 190.161 213.296 190.383 213.693H188.547C188.364 213.329 188.247 212.902 188.195 212.414ZM188.049 208.488C187.411 208.749 186.454 208.97 185.178 209.152C184.455 209.257 183.944 209.374 183.644 209.504C183.345 209.634 183.114 209.826 182.951 210.08C182.788 210.327 182.707 210.604 182.707 210.91C182.707 211.379 182.883 211.77 183.234 212.082C183.592 212.395 184.113 212.551 184.797 212.551C185.474 212.551 186.076 212.404 186.603 212.111C187.131 211.812 187.518 211.405 187.765 210.891C187.954 210.493 188.049 209.908 188.049 209.133V208.488ZM196.598 212.121L196.852 213.674C196.357 213.778 195.915 213.83 195.524 213.83C194.886 213.83 194.391 213.729 194.04 213.527C193.688 213.326 193.441 213.062 193.297 212.736C193.154 212.404 193.083 211.711 193.083 210.656V204.689H191.794V203.322H193.083V200.754L194.831 199.699V203.322H196.598V204.689H194.831V210.754C194.831 211.255 194.86 211.577 194.919 211.721C194.984 211.864 195.085 211.978 195.221 212.062C195.365 212.147 195.566 212.189 195.827 212.189C196.022 212.189 196.279 212.167 196.598 212.121ZM198.537 201.398V199.377H200.294V201.398H198.537ZM198.537 213.693V203.322H200.294V213.693H198.537ZM202.526 208.508C202.526 206.587 203.059 205.165 204.127 204.24C205.019 203.472 206.106 203.088 207.389 203.088C208.815 203.088 209.98 203.557 210.885 204.494C211.79 205.425 212.242 206.714 212.242 208.361C212.242 209.696 212.041 210.747 211.637 211.516C211.24 212.277 210.657 212.87 209.889 213.293C209.127 213.716 208.294 213.928 207.389 213.928C205.937 213.928 204.762 213.462 203.863 212.531C202.972 211.6 202.526 210.259 202.526 208.508ZM204.332 208.508C204.332 209.836 204.622 210.832 205.201 211.496C205.781 212.154 206.51 212.482 207.389 212.482C208.261 212.482 208.987 212.15 209.567 211.486C210.146 210.822 210.436 209.81 210.436 208.449C210.436 207.167 210.143 206.197 209.557 205.539C208.977 204.875 208.255 204.543 207.389 204.543C206.51 204.543 205.781 204.872 205.201 205.529C204.622 206.187 204.332 207.18 204.332 208.508ZM214.513 213.693V203.322H216.095V204.797C216.856 203.658 217.957 203.088 219.396 203.088C220.021 203.088 220.593 203.202 221.114 203.43C221.642 203.651 222.035 203.944 222.296 204.309C222.556 204.673 222.739 205.106 222.843 205.607C222.908 205.933 222.94 206.503 222.94 207.316V213.693H221.183V207.385C221.183 206.669 221.114 206.135 220.978 205.783C220.841 205.425 220.597 205.142 220.245 204.934C219.9 204.719 219.493 204.611 219.024 204.611C218.276 204.611 217.628 204.849 217.081 205.324C216.541 205.799 216.271 206.701 216.271 208.029V213.693H214.513Z" fill="#2D2D2D"/>
<path d="M27 67H25.6667V58.4287C25.3457 58.7375 24.9235 59.0464 24.4 59.3553C23.8815 59.6642 23.4148 59.8958 23 60.0503V58.75C23.7457 58.3963 24.3975 57.9678 24.9556 57.4647C25.5136 56.9615 25.9086 56.4733 26.1407 56H27V67Z" fill="black"/>
<path fill-rule="evenodd" clip-rule="evenodd" d="M24.5607 47.8898L21.948 46.2875L22.7273 45L27.6888 48.0427L24.666 53.0367L23.3869 52.2523L25.1417 49.3531C18.6373 49.797 13.4979 55.2484 13.4979 61.9081C13.4979 68.8582 19.0953 74.4923 26 74.4923C32.9047 74.4923 38.5021 68.8582 38.5021 61.9081H40C40 69.6908 33.732 76 26 76C18.268 76 12 69.6908 12 61.9081C12 54.6145 17.5049 48.6151 24.5607 47.8898Z" fill="#9C9C9C"/>
<path d="M23 112.967L24.3125 112.791C24.4632 113.54 24.7184 114.081 25.0781 114.414C25.4427 114.742 25.8851 114.906 26.4052 114.906C27.0226 114.906 27.5427 114.69 27.9656 114.26C28.3934 113.829 28.6073 113.295 28.6073 112.659C28.6073 112.052 28.4104 111.553 28.0167 111.161C27.6229 110.764 27.1222 110.566 26.5146 110.566C26.2667 110.566 25.958 110.615 25.5885 110.713L25.7344 109.553C25.8219 109.563 25.8924 109.567 25.9458 109.567C26.5049 109.567 27.008 109.421 27.4552 109.127C27.9024 108.833 28.126 108.38 28.126 107.768C28.126 107.284 27.9632 106.882 27.6375 106.564C27.3118 106.246 26.8913 106.087 26.376 106.087C25.8656 106.087 25.4403 106.248 25.1 106.571C24.7597 106.895 24.541 107.379 24.4438 108.025L23.1312 107.79C23.2917 106.904 23.6562 106.219 24.225 105.734C24.7938 105.245 25.501 105 26.3469 105C26.9302 105 27.4674 105.127 27.9583 105.382C28.4493 105.632 28.8236 105.974 29.0813 106.41C29.3438 106.846 29.475 107.308 29.475 107.798C29.475 108.263 29.351 108.686 29.1031 109.068C28.8552 109.45 28.4882 109.753 28.0021 109.979C28.634 110.126 29.125 110.431 29.475 110.897C29.825 111.357 30 111.934 30 112.63C30 113.569 29.6597 114.367 28.9792 115.023C28.2986 115.674 27.4382 116 26.3979 116C25.4597 116 24.6795 115.719 24.0573 115.156C23.4399 114.593 23.0875 113.863 23 112.967Z" fill="black"/>
<path fill-rule="evenodd" clip-rule="evenodd" d="M25.0093 95.983L22.3033 94.3291L23.1104 93L28.2491 96.1408L25.1184 101.296L23.7935 100.486L25.611 97.4935C18.8743 97.9518 13.5514 103.579 13.5514 110.454C13.5514 117.628 19.3487 123.444 26.5 123.444C33.6513 123.444 39.4486 117.628 39.4486 110.454H41C41 118.487 34.5081 125 26.5 125C18.4919 125 12 118.487 12 110.454C12 102.925 17.7015 96.7317 25.0093 95.983Z" fill="#9C9C9C"/>
</svg>
