<svg width="333" height="520" fill="none" xmlns="http://www.w3.org/2000/svg"><rect x="1" y="1" width="315" height="174" rx="9" fill="#fff" stroke="#000" stroke-width="2"/><rect x="51" y="15" width="282" height="172" rx="10" fill="#2D2D2D"/><path d="M80.024 58.232a5.463 5.463 0 0 0-.8-.208 3.69 3.69 0 0 0-.832-.096c-1.045 0-1.824.245-2.336.736-.512.49-.768 1.27-.768 2.336 0 .47.075.89.224 1.264.15.363.363.672.64.928s.608.453.992.592a3.88 3.88 0 0 0 1.296.208 4.22 4.22 0 0 0 1.456-.256 3.7 3.7 0 0 0 1.2-.672l.56.928a4.53 4.53 0 0 1-.56.4 5.93 5.93 0 0 1-.784.4 5.568 5.568 0 0 1-.976.288 5.552 5.552 0 0 1-1.152.112c-.693 0-1.307-.096-1.84-.288a3.623 3.623 0 0 1-1.312-.848 3.719 3.719 0 0 1-.8-1.328A5.244 5.244 0 0 1 73.96 61c0-.672.09-1.27.272-1.792a3.56 3.56 0 0 1 .816-1.312 3.433 3.433 0 0 1 1.28-.8 4.665 4.665 0 0 1 1.68-.288c.79 0 1.43.07 1.92.208.501.139.923.293 1.264.464l-.016.048v2.224h-1.152v-1.52ZM89.002 57h2.272v5.456c0 .523.032 1.024.096 1.504h1.072V65h-2.128l-.048-1.36h-.064a3.36 3.36 0 0 1-1.104 1.12c-.459.288-1.014.432-1.664.432-.49 0-.912-.059-1.264-.176a1.73 1.73 0 0 1-.848-.576c-.224-.277-.39-.645-.496-1.104-.107-.47-.16-1.05-.16-1.744v-3.52h-1.072V57h2.32v4.336c0 .437.016.832.048 1.184.042.341.122.635.24.88.117.235.288.416.512.544.234.117.544.176.928.176.554 0 1.034-.181 1.44-.544.416-.363.73-.816.944-1.36v-4.144h-1.024V57Zm11.394 5.84c0-.341-.134-.603-.4-.784a3.043 3.043 0 0 0-.992-.448 15.39 15.39 0 0 0-1.297-.32 7.48 7.48 0 0 1-1.28-.384 2.948 2.948 0 0 1-.992-.64c-.266-.277-.4-.661-.4-1.152 0-.405.086-.752.257-1.04.18-.288.415-.523.704-.704.288-.192.624-.33 1.008-.416a4.93 4.93 0 0 1 1.2-.144c.746 0 1.386.096 1.92.288.544.181.976.373 1.296.576l-.512 1.008a11.569 11.569 0 0 0-1.153-.544c-.405-.181-.917-.272-1.535-.272-.235 0-.47.027-.704.08a2.387 2.387 0 0 0-.625.208c-.18.096-.33.224-.448.384a.939.939 0 0 0-.16.56c0 .277.134.49.4.64.267.15.598.277.992.384.395.096.822.192 1.28.288.47.085.902.213 1.297.384.394.17.725.4.992.688.266.288.4.677.4 1.168 0 .736-.294 1.344-.88 1.824-.576.48-1.446.72-2.608.72a5.63 5.63 0 0 1-1.04-.096 6.306 6.306 0 0 1-1.776-.608 3.746 3.746 0 0 1-.609-.416l.64-1.04c.129.128.3.261.513.4.213.128.448.245.704.352.256.107.528.192.816.256.298.064.597.096.895.096.288 0 .555-.021.8-.064a2.73 2.73 0 0 0 .672-.224 1.27 1.27 0 0 0 .449-.4 1.05 1.05 0 0 0 .176-.608Zm3.681-5.84h1.904v-1.584l1.248-.352V57h4.272v1.072h-4.272v3.776c0 .779.187 1.355.56 1.728.384.373.928.56 1.632.56.48 0 .896-.09 1.248-.272.363-.181.688-.379.976-.592l.416.944a4.472 4.472 0 0 1-1.344.72 4.711 4.711 0 0 1-1.584.272c-.426 0-.832-.064-1.216-.192a2.691 2.691 0 0 1-.992-.56 2.738 2.738 0 0 1-.688-.976c-.17-.405-.256-.885-.256-1.44v-3.968h-1.904V57Zm10.61 4c0-1.29.336-2.31 1.008-3.056.672-.757 1.632-1.136 2.88-1.136.672 0 1.248.112 1.728.336.491.213.896.507 1.216.88.32.373.555.816.704 1.328.16.512.24 1.061.24 1.648a5.59 5.59 0 0 1-.256 1.744 3.61 3.61 0 0 1-.752 1.312 3.391 3.391 0 0 1-1.232.848c-.48.192-1.029.288-1.648.288-.661 0-1.237-.107-1.728-.32a3.47 3.47 0 0 1-1.216-.896 3.716 3.716 0 0 1-.72-1.328 5.873 5.873 0 0 1-.224-1.648Zm1.328 0c0 .373.043.747.128 1.12.096.373.245.71.448 1.008.203.299.464.539.784.72.331.181.731.272 1.2.272.853 0 1.493-.261 1.92-.784.437-.533.656-1.312.656-2.336a4.36 4.36 0 0 0-.144-1.12 2.781 2.781 0 0 0-.448-1.008 2.266 2.266 0 0 0-.8-.72c-.32-.181-.715-.272-1.184-.272-.853 0-1.493.261-1.92.784-.427.523-.64 1.301-.64 2.336Zm12.146 4v-5.328c0-.224-.011-.437-.032-.64a1.748 1.748 0 0 0-.112-.56.821.821 0 0 0-.256-.4.623.623 0 0 0-.432-.144c-.363 0-.672.15-.928.448-.246.299-.432.672-.56 1.12V65h-1.216v-8h.832l.24.976h.064c.106-.16.208-.31.304-.448.106-.15.224-.277.352-.384.138-.107.298-.187.48-.24a2.09 2.09 0 0 1 .688-.096c.16 0 .325.027.496.08.17.043.325.117.464.224.149.096.277.23.384.4.106.17.176.379.208.624.245-.416.517-.741.816-.976.309-.235.73-.352 1.264-.352.352 0 .634.059.848.176.224.117.394.288.512.512.128.213.213.475.256.784.053.299.08.635.08 1.008V65h-1.216v-5.44c0-.224-.011-.432-.032-.624a1.846 1.846 0 0 0-.128-.528.78.78 0 0 0-.24-.352c-.096-.085-.23-.128-.4-.128-.374 0-.688.15-.944.448-.256.299-.448.725-.576 1.28V65h-1.216Zm6.641-11.2h8.32v2.928h-1.184v-1.744h-2.32v8.832h1.76V65h-4.848v-1.184h1.76v-8.832h-2.304v1.744h-1.184V53.8Zm11.282 3.824a5.084 5.084 0 0 1 1.552-.576 8.49 8.49 0 0 1 1.696-.176c.544 0 .987.085 1.328.256.352.17.624.395.816.672.203.267.336.576.4.928.075.341.112.688.112 1.04 0 .405-.01.837-.032 1.296a63.23 63.23 0 0 0-.048 1.376c0 .533.032 1.04.096 1.52h1.072V65h-2.128l-.144-1.2h-.08a4.08 4.08 0 0 1-.288.368c-.128.15-.298.299-.512.448a3.135 3.135 0 0 1-1.808.528c-.789 0-1.413-.203-1.872-.608-.458-.405-.688-.96-.688-1.664 0-.544.118-.997.352-1.36.246-.363.592-.64 1.04-.832.448-.192.987-.304 1.616-.336.64-.032 1.355.01 2.144.128.054-.49.059-.896.016-1.216-.032-.33-.117-.592-.256-.784a.992.992 0 0 0-.56-.4c-.234-.085-.528-.128-.88-.128-.48 0-.938.07-1.376.208a12.31 12.31 0 0 0-1.168.4l-.4-.928Zm2.352 6.448c.299 0 .576-.048.832-.144a2.537 2.537 0 0 0 1.152-.848c.128-.181.224-.352.288-.512v-1.12a9.04 9.04 0 0 0-1.536-.144c-.469 0-.874.053-1.216.16-.341.096-.608.25-.8.464-.192.213-.288.49-.288.832 0 .352.118.661.352.928.246.256.651.384 1.216.384Zm13.122-1.232c0-.341-.133-.603-.4-.784a3.043 3.043 0 0 0-.992-.448 15.447 15.447 0 0 0-1.296-.32 7.48 7.48 0 0 1-1.28-.384 2.948 2.948 0 0 1-.992-.64c-.267-.277-.4-.661-.4-1.152 0-.405.085-.752.256-1.04.181-.288.416-.523.704-.704.288-.192.624-.33 1.008-.416a4.93 4.93 0 0 1 1.2-.144c.747 0 1.387.096 1.92.288.544.181.976.373 1.296.576l-.512 1.008a11.612 11.612 0 0 0-1.152-.544c-.405-.181-.917-.272-1.536-.272a3.17 3.17 0 0 0-.704.08 2.387 2.387 0 0 0-.624.208 1.303 1.303 0 0 0-.448.384.937.937 0 0 0-.16.56c0 .277.133.49.4.64.267.15.597.277.992.384.395.096.821.192 1.28.288.469.085.901.213 1.296.384.395.17.725.4.992.688.267.288.4.677.4 1.168 0 .736-.293 1.344-.88 1.824-.576.48-1.445.72-2.608.72-.352 0-.699-.032-1.04-.096a6.325 6.325 0 0 1-1.776-.608 3.759 3.759 0 0 1-.608-.416l.64-1.04c.128.128.299.261.512.4.213.128.448.245.704.352.256.107.528.192.816.256a4.64 4.64 0 0 0 1.696.032c.256-.053.48-.128.672-.224.192-.107.341-.24.448-.4a1.05 1.05 0 0 0 .176-.608Zm3.57-9.04h2.592v6.624h.88L171.752 57h1.504l-3.536 3.792 2.912 3.136h1.04V65h-1.648l-3.424-3.616h-.88V65h-1.232V54.872h-1.36V53.8Zm13.538 10.32c0-.341.096-.603.288-.784.192-.192.448-.288.768-.288.341 0 .608.096.8.288.192.181.288.443.288.784 0 .31-.096.565-.288.768-.192.203-.459.304-.8.304-.32 0-.576-.101-.768-.304a1.072 1.072 0 0 1-.288-.768Zm7.521.88v-1.072h2.16v-5.856h-2.16V57h2.992l.256 1.04h.08c.363-.33.768-.613 1.216-.848.448-.235.982-.352 1.6-.352.363 0 .651.07.864.208.224.139.395.341.512.608.128.267.214.592.256.976.043.373.064.8.064 1.28l-1.12.016c0-.683-.069-1.184-.208-1.504-.128-.32-.368-.48-.72-.48-.33 0-.629.048-.896.144a3.12 3.12 0 0 0-.704.352 4.099 4.099 0 0 0-.496.416c-.138.139-.24.256-.304.352v4.72h3.072V65h-6.464Zm14.946-8h2.272v5.456c0 .523.032 1.024.096 1.504h1.072V65h-2.128l-.048-1.36h-.064a3.352 3.352 0 0 1-1.104 1.12c-.459.288-1.013.432-1.664.432-.491 0-.912-.059-1.264-.176a1.732 1.732 0 0 1-.848-.576c-.224-.277-.389-.645-.496-1.104-.107-.47-.16-1.05-.16-1.744v-3.52h-1.072V57h2.32v4.336c0 .437.016.832.048 1.184.043.341.123.635.24.88.117.235.288.416.512.544.235.117.544.176.928.176.555 0 1.035-.181 1.44-.544.416-.363.731-.816.944-1.36v-4.144h-1.024V57Zm5.874 2.8c0-.096-.006-.219-.016-.368a7.695 7.695 0 0 0-.064-.976 3.923 3.923 0 0 0-.048-.416h-1.072V57h2.144l.144 1.296h.08c.106-.181.245-.357.416-.528a3.11 3.11 0 0 1 .624-.48c.234-.15.496-.267.784-.352.288-.085.592-.128.912-.128.49 0 .922.053 1.296.16.384.107.698.299.944.576.256.267.448.635.576 1.104.128.459.192 1.045.192 1.76V65h-1.248v-4.352c0-.885-.144-1.552-.432-2-.288-.448-.811-.672-1.568-.672-.278 0-.55.059-.816.176-.256.107-.491.25-.704.432-.214.181-.4.395-.56.64a2.53 2.53 0 0 0-.352.752V65h-1.232v-5.2Zm15.617 8.592a7.934 7.934 0 0 1-2.016-.816 5.805 5.805 0 0 1-1.632-1.392c-.458-.576-.826-1.28-1.104-2.112-.266-.832-.4-1.819-.4-2.96 0-1.13.139-2.117.416-2.96.278-.853.651-1.573 1.12-2.16a5.594 5.594 0 0 1 1.632-1.424 6.845 6.845 0 0 1 1.984-.768l.4 1.008a7.857 7.857 0 0 0-1.728.72 4.441 4.441 0 0 0-1.36 1.168c-.373.48-.666 1.083-.88 1.808-.202.715-.304 1.584-.304 2.608 0 1.035.123 1.92.368 2.656.256.725.587 1.328.992 1.808.416.49.875.87 1.376 1.136.512.277 1.024.47 1.536.576l-.4 1.104Zm7.01-4.272c0-.341.096-.603.288-.784.192-.192.448-.288.768-.288.342 0 .608.096.8.288.192.181.288.443.288.784 0 .31-.096.565-.288.768-.192.203-.458.304-.8.304-.32 0-.576-.101-.768-.304a1.072 1.072 0 0 1-.288-.768Zm10.194 0c0-.341.096-.603.288-.784.192-.192.448-.288.768-.288.341 0 .608.096.8.288.192.181.288.443.288.784 0 .31-.096.565-.288.768-.192.203-.459.304-.8.304-.32 0-.576-.101-.768-.304a1.072 1.072 0 0 1-.288-.768Zm10.194 0c0-.341.096-.603.288-.784.192-.192.448-.288.768-.288.341 0 .608.096.8.288.192.181.288.443.288.784 0 .31-.096.565-.288.768-.192.203-.459.304-.8.304-.32 0-.576-.101-.768-.304a1.072 1.072 0 0 1-.288-.768Zm8.754 3.168a5.428 5.428 0 0 0 1.52-.576 4.46 4.46 0 0 0 1.376-1.136c.416-.48.746-1.083.992-1.808.256-.736.384-1.621.384-2.656 0-1.024-.107-1.893-.32-2.608-.203-.725-.496-1.328-.88-1.808a4.273 4.273 0 0 0-1.344-1.168 7.857 7.857 0 0 0-1.728-.72l.4-1.008c.693.15 1.349.405 1.968.768a5.514 5.514 0 0 1 1.648 1.424c.469.587.842 1.307 1.12 2.16.277.843.416 1.83.416 2.96 0 1.141-.139 2.128-.416 2.96-.267.832-.635 1.536-1.104 2.112a5.515 5.515 0 0 1-1.632 1.392 7.668 7.668 0 0 1-2 .816l-.4-1.104ZM80.024 106.232a5.463 5.463 0 0 0-.8-.208 3.69 3.69 0 0 0-.832-.096c-1.045 0-1.824.245-2.336.736-.512.491-.768 1.269-.768 2.336 0 .469.075.891.224 1.264.15.363.363.672.64.928s.608.453.992.592a3.88 3.88 0 0 0 1.296.208 4.22 4.22 0 0 0 1.456-.256c.48-.171.88-.395 1.2-.672l.56.928c-.15.128-.336.261-.56.4a5.895 5.895 0 0 1-.784.4 5.62 5.62 0 0 1-.976.288 5.532 5.532 0 0 1-1.152.112c-.693 0-1.307-.096-1.84-.288a3.623 3.623 0 0 1-1.312-.848 3.716 3.716 0 0 1-.8-1.328A5.246 5.246 0 0 1 73.96 109c0-.672.09-1.269.272-1.792.192-.523.464-.96.816-1.312a3.43 3.43 0 0 1 1.28-.8 4.665 4.665 0 0 1 1.68-.288c.79 0 1.43.069 1.92.208.501.139.923.293 1.264.464l-.016.048v2.224h-1.152v-1.52ZM89.002 105h2.272v5.456c0 .523.032 1.024.096 1.504h1.072V113h-2.128l-.048-1.36h-.064a3.356 3.356 0 0 1-1.104 1.12c-.459.288-1.014.432-1.664.432-.49 0-.912-.059-1.264-.176a1.734 1.734 0 0 1-.848-.576c-.224-.277-.39-.645-.496-1.104-.107-.469-.16-1.051-.16-1.744v-3.52h-1.072V105h2.32v4.336c0 .437.016.832.048 1.184.042.341.122.635.24.88.117.235.288.416.512.544.234.117.544.176.928.176.554 0 1.034-.181 1.44-.544.416-.363.73-.816.944-1.36v-4.144h-1.024V105Zm11.394 5.84c0-.341-.134-.603-.4-.784a3.05 3.05 0 0 0-.992-.448 15.506 15.506 0 0 0-1.297-.32 7.48 7.48 0 0 1-1.28-.384 2.943 2.943 0 0 1-.992-.64c-.266-.277-.4-.661-.4-1.152 0-.405.086-.752.257-1.04.18-.288.415-.523.704-.704a2.947 2.947 0 0 1 1.008-.416 4.93 4.93 0 0 1 1.2-.144c.746 0 1.386.096 1.92.288.544.181.976.373 1.296.576l-.512 1.008a11.636 11.636 0 0 0-1.153-.544c-.405-.181-.917-.272-1.535-.272-.235 0-.47.027-.704.08a2.398 2.398 0 0 0-.625.208c-.18.096-.33.224-.448.384a.938.938 0 0 0-.16.56c0 .277.134.491.4.64.267.149.598.277.992.384.395.096.822.192 1.28.288.47.085.902.213 1.297.384.394.171.725.4.992.688.266.288.4.677.4 1.168 0 .736-.294 1.344-.88 1.824-.576.48-1.446.72-2.608.72a5.63 5.63 0 0 1-1.04-.096 6.51 6.51 0 0 1-1.776-.608 3.746 3.746 0 0 1-.609-.416l.64-1.04c.129.128.3.261.513.4.213.128.448.245.704.352.256.107.528.192.816.256.298.064.597.096.895.096.288 0 .555-.021.8-.064a2.73 2.73 0 0 0 .672-.224 1.27 1.27 0 0 0 .449-.4 1.05 1.05 0 0 0 .176-.608Zm3.681-5.84h1.904v-1.584l1.248-.352V105h4.272v1.072h-4.272v3.776c0 .779.187 1.355.56 1.728.384.373.928.56 1.632.56.48 0 .896-.091 1.248-.272.363-.181.688-.379.976-.592l.416.944a4.459 4.459 0 0 1-1.344.72 4.719 4.719 0 0 1-1.584.272c-.426 0-.832-.064-1.216-.192a2.687 2.687 0 0 1-.992-.56 2.736 2.736 0 0 1-.688-.976c-.17-.405-.256-.885-.256-1.44v-3.968h-1.904V105Zm10.61 4c0-1.291.336-2.309 1.008-3.056.672-.757 1.632-1.136 2.88-1.136.672 0 1.248.112 1.728.336.491.213.896.507 1.216.88.32.373.555.816.704 1.328.16.512.24 1.061.24 1.648a5.59 5.59 0 0 1-.256 1.744 3.618 3.618 0 0 1-.752 1.312 3.391 3.391 0 0 1-1.232.848c-.48.192-1.029.288-1.648.288-.661 0-1.237-.107-1.728-.32a3.475 3.475 0 0 1-1.216-.896 3.713 3.713 0 0 1-.72-1.328 5.871 5.871 0 0 1-.224-1.648Zm1.328 0c0 .373.043.747.128 1.12.096.373.245.709.448 1.008.203.299.464.539.784.72.331.181.731.272 1.2.272.853 0 1.493-.261 1.92-.784.437-.533.656-1.312.656-2.336a4.36 4.36 0 0 0-.144-1.12 2.786 2.786 0 0 0-.448-1.008 2.26 2.26 0 0 0-.8-.72c-.32-.181-.715-.272-1.184-.272-.853 0-1.493.261-1.92.784-.427.523-.64 1.301-.64 2.336Zm12.146 4v-5.328c0-.224-.011-.437-.032-.64a1.75 1.75 0 0 0-.112-.56.82.82 0 0 0-.256-.4.623.623 0 0 0-.432-.144c-.363 0-.672.149-.928.448-.246.299-.432.672-.56 1.12V113h-1.216v-8h.832l.24.976h.064c.106-.16.208-.309.304-.448.106-.149.224-.277.352-.384.138-.107.298-.187.48-.24a2.09 2.09 0 0 1 .688-.096c.16 0 .325.027.496.08.17.043.325.117.464.224.149.096.277.229.384.4.106.171.176.379.208.624.245-.416.517-.741.816-.976.309-.235.73-.352 1.264-.352.352 0 .634.059.848.176.224.117.394.288.512.512.128.213.213.475.256.784.053.299.08.635.08 1.008V113h-1.216v-5.44c0-.224-.011-.432-.032-.624a1.841 1.841 0 0 0-.128-.528.78.78 0 0 0-.24-.352c-.096-.085-.23-.128-.4-.128-.374 0-.688.149-.944.448-.256.299-.448.725-.576 1.28V113h-1.216Zm6.641-11.2h8.32v2.928h-1.184v-1.744h-2.32v8.832h1.76V113h-4.848v-1.184h1.76v-8.832h-2.304v1.744h-1.184V101.8Zm11.282 3.824a5.068 5.068 0 0 1 1.552-.576 8.513 8.513 0 0 1 1.696-.176c.544 0 .987.085 1.328.256.352.171.624.395.816.672.203.267.336.576.4.928.075.341.112.688.112 1.04 0 .405-.01.837-.032 1.296a63.23 63.23 0 0 0-.048 1.376c0 .533.032 1.04.096 1.52h1.072V113h-2.128l-.144-1.2h-.08c-.064.096-.16.219-.288.368a2.721 2.721 0 0 1-.512.448 3.128 3.128 0 0 1-1.808.528c-.789 0-1.413-.203-1.872-.608-.458-.405-.688-.96-.688-1.664 0-.544.118-.997.352-1.36.246-.363.592-.64 1.04-.832.448-.192.987-.304 1.616-.336.64-.032 1.355.011 2.144.128.054-.491.059-.896.016-1.216-.032-.331-.117-.592-.256-.784a.994.994 0 0 0-.56-.4c-.234-.085-.528-.128-.88-.128-.48 0-.938.069-1.376.208a12.31 12.31 0 0 0-1.168.4l-.4-.928Zm2.352 6.448c.299 0 .576-.048.832-.144a2.546 2.546 0 0 0 1.152-.848c.128-.181.224-.352.288-.512v-1.12a9.04 9.04 0 0 0-1.536-.144c-.469 0-.874.053-1.216.16-.341.096-.608.251-.8.464-.192.213-.288.491-.288.832 0 .352.118.661.352.928.246.256.651.384 1.216.384Zm13.122-1.232c0-.341-.133-.603-.4-.784a3.05 3.05 0 0 0-.992-.448 15.565 15.565 0 0 0-1.296-.32 7.48 7.48 0 0 1-1.28-.384 2.943 2.943 0 0 1-.992-.64c-.267-.277-.4-.661-.4-1.152 0-.405.085-.752.256-1.04.181-.288.416-.523.704-.704a2.947 2.947 0 0 1 1.008-.416 4.93 4.93 0 0 1 1.2-.144c.747 0 1.387.096 1.92.288.544.181.976.373 1.296.576l-.512 1.008a11.68 11.68 0 0 0-1.152-.544c-.405-.181-.917-.272-1.536-.272-.235 0-.469.027-.704.08a2.398 2.398 0 0 0-.624.208 1.303 1.303 0 0 0-.448.384.936.936 0 0 0-.16.56c0 .277.133.491.4.64.267.149.597.277.992.384.395.096.821.192 1.28.288.469.085.901.213 1.296.384s.725.4.992.688c.267.288.4.677.4 1.168 0 .736-.293 1.344-.88 1.824-.576.48-1.445.72-2.608.72-.352 0-.699-.032-1.04-.096a6.472 6.472 0 0 1-1.776-.608 3.759 3.759 0 0 1-.608-.416l.64-1.04c.128.128.299.261.512.4.213.128.448.245.704.352.256.107.528.192.816.256a4.64 4.64 0 0 0 1.696.032c.256-.053.48-.128.672-.224.192-.107.341-.24.448-.4a1.05 1.05 0 0 0 .176-.608Zm3.57-9.04h2.592v6.624h.88l3.152-3.424h1.504l-3.536 3.792 2.912 3.136h1.04V113h-1.648l-3.424-3.616h-.88V113h-1.232v-10.128h-1.36V101.8Zm13.538 10.32c0-.341.096-.603.288-.784.192-.192.448-.288.768-.288.341 0 .608.096.8.288.192.181.288.443.288.784 0 .309-.096.565-.288.768-.192.203-.459.304-.8.304-.32 0-.576-.101-.768-.304a1.073 1.073 0 0 1-.288-.768Zm7.521.88v-1.072h2.16v-5.856h-2.16V105h2.992l.256 1.04h.08a5.775 5.775 0 0 1 1.216-.848c.448-.235.982-.352 1.6-.352.363 0 .651.069.864.208.224.139.395.341.512.608.128.267.214.592.256.976.043.373.064.8.064 1.28l-1.12.016c0-.683-.069-1.184-.208-1.504-.128-.32-.368-.48-.72-.48-.33 0-.629.048-.896.144a3.108 3.108 0 0 0-.704.352 4.099 4.099 0 0 0-.496.416c-.138.139-.24.256-.304.352v4.72h3.072V113h-6.464Zm17.602-1.008a3.852 3.852 0 0 1-.688.48 4.813 4.813 0 0 1-.848.384 5.615 5.615 0 0 1-.976.24 5.298 5.298 0 0 1-1.008.096c-.64 0-1.205-.096-1.696-.288a3.391 3.391 0 0 1-1.232-.848 3.775 3.775 0 0 1-.752-1.328 5.438 5.438 0 0 1-.256-1.728c0-.672.091-1.269.272-1.792.192-.523.464-.96.816-1.312a3.432 3.432 0 0 1 1.28-.8 4.663 4.663 0 0 1 1.68-.288c.448 0 .891.059 1.328.176.437.117.821.341 1.152.672.341.32.603.768.784 1.344.181.565.245 1.301.192 2.208h-6.192c0 .96.256 1.68.768 2.16.523.469 1.216.704 2.08.704.288 0 .571-.032.848-.096.288-.075.56-.16.816-.256.256-.096.48-.203.672-.32.203-.117.357-.224.464-.32l.496.912Zm-3.376-6.128c-.352 0-.688.037-1.008.112a2.297 2.297 0 0 0-.832.384c-.235.171-.432.4-.592.688-.149.277-.245.624-.288 1.04h4.976c-.053-.704-.283-1.248-.688-1.632-.395-.395-.917-.592-1.568-.592Zm10.69-4.064h2.592v8.464c0 .096.005.219.016.368l.032.448.064.48c.021.149.042.283.064.4h1.072V113h-2.128l-.16-1.232h-.064c-.235.405-.587.747-1.056 1.024-.459.267-.992.4-1.6.4-1.206 0-2.096-.336-2.672-1.008-.566-.683-.848-1.739-.848-3.168 0-.672.096-1.264.288-1.776.192-.523.464-.955.816-1.296a3.57 3.57 0 0 1 1.296-.8 4.917 4.917 0 0 1 1.68-.272c.224 0 .421.005.592.016.181.011.346.027.496.048.149.021.288.053.416.096.138.032.288.069.448.112v-2.272h-1.344V101.8Zm-.96 10.32c.65 0 1.162-.165 1.536-.496.373-.341.629-.848.768-1.52v-3.712a2.486 2.486 0 0 0-.8-.352c-.288-.075-.672-.112-1.152-.112-.854 0-1.526.251-2.016.752-.491.491-.736 1.269-.736 2.336 0 .437.037.848.112 1.232.085.373.218.699.4.976.192.277.442.496.752.656.309.16.688.24 1.136.24ZM221.52 105h2.272v5.456c0 .523.032 1.024.096 1.504h1.072V113h-2.128l-.048-1.36h-.064a3.349 3.349 0 0 1-1.104 1.12c-.458.288-1.013.432-1.664.432-.49 0-.912-.059-1.264-.176a1.736 1.736 0 0 1-.848-.576c-.224-.277-.389-.645-.496-1.104-.106-.469-.16-1.051-.16-1.744v-3.52h-1.072V105h2.32v4.336c0 .437.016.832.048 1.184.043.341.123.635.24.88.118.235.288.416.512.544.235.117.544.176.928.176.555 0 1.035-.181 1.44-.544.416-.363.731-.816.944-1.36v-4.144h-1.024V105Zm11.394 5.84c0-.341-.133-.603-.4-.784a3.04 3.04 0 0 0-.992-.448 15.37 15.37 0 0 0-1.296-.32 7.508 7.508 0 0 1-1.28-.384 2.953 2.953 0 0 1-.992-.64c-.266-.277-.4-.661-.4-1.152 0-.405.086-.752.256-1.04.182-.288.416-.523.704-.704a2.947 2.947 0 0 1 1.008-.416 4.93 4.93 0 0 1 1.2-.144c.747 0 1.387.096 1.92.288.544.181.976.373 1.296.576l-.512 1.008a11.68 11.68 0 0 0-1.152-.544c-.405-.181-.917-.272-1.536-.272-.234 0-.469.027-.704.08a2.398 2.398 0 0 0-.624.208c-.181.096-.33.224-.448.384a.943.943 0 0 0-.16.56c0 .277.134.491.4.64.267.149.598.277.992.384.395.096.822.192 1.28.288.47.085.902.213 1.296.384.395.171.726.4.992.688.267.288.4.677.4 1.168 0 .736-.293 1.344-.88 1.824-.576.48-1.445.72-2.608.72-.352 0-.698-.032-1.04-.096a6.29 6.29 0 0 1-.96-.256 6.601 6.601 0 0 1-.816-.352 3.759 3.759 0 0 1-.608-.416l.64-1.04c.128.128.299.261.512.4a5.5 5.5 0 0 0 .704.352c.256.107.528.192.816.256a4.64 4.64 0 0 0 1.696.032c.256-.053.48-.128.672-.224.192-.107.342-.24.448-.4.118-.171.176-.373.176-.608Zm11.65 1.152a3.852 3.852 0 0 1-.688.48 4.813 4.813 0 0 1-.848.384 5.615 5.615 0 0 1-.976.24 5.298 5.298 0 0 1-1.008.096c-.64 0-1.205-.096-1.696-.288a3.391 3.391 0 0 1-1.232-.848 3.775 3.775 0 0 1-.752-1.328 5.438 5.438 0 0 1-.256-1.728c0-.672.091-1.269.272-1.792.192-.523.464-.96.816-1.312a3.432 3.432 0 0 1 1.28-.8 4.663 4.663 0 0 1 1.68-.288c.448 0 .891.059 1.328.176.437.117.821.341 1.152.672.341.32.603.768.784 1.344.181.565.245 1.301.192 2.208h-6.192c0 .96.256 1.68.768 2.16.523.469 1.216.704 2.08.704.288 0 .571-.032.848-.096.288-.075.56-.16.816-.256.256-.096.48-.203.672-.32.203-.117.357-.224.464-.32l.496.912Zm-3.376-6.128c-.352 0-.688.037-1.008.112a2.297 2.297 0 0 0-.832.384c-.235.171-.432.4-.592.688-.149.277-.245.624-.288 1.04h4.976c-.053-.704-.283-1.248-.688-1.632-.395-.395-.917-.592-1.568-.592Zm12.018 10.528a7.883 7.883 0 0 1-2.016-.816 5.777 5.777 0 0 1-1.632-1.392c-.459-.576-.827-1.28-1.104-2.112-.267-.832-.4-1.819-.4-2.96 0-1.131.138-2.117.416-2.96.277-.853.65-1.573 1.12-2.16a5.573 5.573 0 0 1 1.632-1.424 6.806 6.806 0 0 1 1.984-.768l.4 1.008a7.788 7.788 0 0 0-1.728.72 4.426 4.426 0 0 0-1.36 1.168c-.374.48-.667 1.083-.88 1.808-.203.715-.304 1.584-.304 2.608 0 1.035.122 1.92.368 2.656.256.725.586 1.328.992 1.808.416.491.874.869 1.376 1.136a5.661 5.661 0 0 0 1.536.576l-.4 1.104Zm7.01-4.272c0-.341.096-.603.288-.784.192-.192.448-.288.768-.288.341 0 .608.096.8.288.192.181.288.443.288.784 0 .309-.096.565-.288.768-.192.203-.459.304-.8.304-.32 0-.576-.101-.768-.304a1.073 1.073 0 0 1-.288-.768Zm10.193 0c0-.341.096-.603.288-.784.192-.192.448-.288.768-.288.342 0 .608.096.8.288.192.181.288.443.288.784 0 .309-.096.565-.288.768-.192.203-.458.304-.8.304-.32 0-.576-.101-.768-.304a1.073 1.073 0 0 1-.288-.768Zm10.194 0c0-.341.096-.603.288-.784.192-.192.448-.288.768-.288.341 0 .608.096.8.288.192.181.288.443.288.784 0 .309-.096.565-.288.768-.192.203-.459.304-.8.304-.32 0-.576-.101-.768-.304a1.073 1.073 0 0 1-.288-.768Zm8.754 3.168a5.447 5.447 0 0 0 1.52-.576 4.46 4.46 0 0 0 1.376-1.136c.416-.48.746-1.083.992-1.808.256-.736.384-1.621.384-2.656 0-1.024-.107-1.893-.32-2.608-.203-.725-.496-1.328-.88-1.808a4.269 4.269 0 0 0-1.344-1.168 7.828 7.828 0 0 0-1.728-.72l.4-1.008a6.617 6.617 0 0 1 1.968.768 5.518 5.518 0 0 1 1.648 1.424c.469.587.842 1.307 1.12 2.16.277.843.416 1.829.416 2.96 0 1.141-.139 2.128-.416 2.96-.267.832-.635 1.536-1.104 2.112a5.515 5.515 0 0 1-1.632 1.392 7.647 7.647 0 0 1-2 .816l-.4-1.104Z" fill="#fff"/><path d="M87.533 230.358a1 1 0 0 0-1.414 0l-6.364 6.364a1 1 0 0 0 1.414 1.415l5.657-5.657 5.657 5.657a1 1 0 0 0 1.414-1.415l-6.364-6.364Zm10.293 71.123v1-1Zm-12-70.416v59.416h2v-59.416h-2Zm12 71.416h56.929v-2h-56.93v2Zm66.929 10v27.924h2v-27.924h-2Zm-10-10c5.523 0 10 4.477 10 10h2c0-6.627-5.373-12-12-12v2Zm-68.93-12c0 6.628 5.373 12 12 12v-2c-5.522 0-10-4.477-10-10h-2Z" fill="#2D2D2D"/><path d="M33.13 441.6V338.836s11.027 10.431 45.3 10.431c34.273 0 46.493-11.623 46.493-11.623V441.6c-13.549 20.763-87.418 15.176-91.793 0Z" fill="#fff"/><path d="M125 334.769c0 1.614-1.024 3.327-3.299 5.039-2.259 1.7-5.596 3.274-9.823 4.614-8.442 2.675-20.21 4.347-33.378 4.347s-24.936-1.672-33.378-4.347c-4.227-1.34-7.564-2.914-9.823-4.614-2.275-1.712-3.299-3.425-3.299-5.039 0-1.615 1.024-3.328 3.3-5.04 2.258-1.7 5.595-3.274 9.822-4.614 8.442-2.675 20.21-4.346 33.378-4.346s24.936 1.671 33.378 4.346c4.227 1.34 7.564 2.914 9.823 4.614 2.275 1.712 3.299 3.425 3.299 5.04Z" fill="#fff" stroke="#ED1C24" stroke-width="2"/><path d="m32 333.769.35 107.263M125 333.769v108m.089-1.558c0 7.957-20.761 14.406-46.37 14.406-25.608 0-46.368-6.449-46.368-14.406" stroke="#ED1C24" stroke-width="2"/><path d="M82.637 399.884v1.689h-9.463c-.013-.423.056-.83.205-1.22.241-.645.625-1.28 1.153-1.905.534-.625 1.302-1.347 2.304-2.168 1.556-1.276 2.608-2.285 3.155-3.027.547-.749.82-1.455.82-2.119 0-.697-.25-1.283-.752-1.758-.495-.482-1.142-.723-1.943-.723-.847 0-1.524.254-2.031.762-.508.508-.765 1.211-.772 2.109l-1.807-.185c.124-1.348.59-2.373 1.397-3.076.807-.71 1.891-1.065 3.252-1.065 1.373 0 2.46.381 3.261 1.143.801.762 1.202 1.706 1.202 2.832 0 .573-.117 1.136-.352 1.689-.234.554-.625 1.136-1.172 1.748-.54.612-1.442 1.452-2.705 2.52-1.054.885-1.732 1.488-2.031 1.807-.3.312-.547.628-.742.947h7.021Z" fill="#000"/><path d="M95.836 394.486c0 9.772-7.922 17.694-17.694 17.694-9.771 0-17.693-7.922-17.693-17.694 0-9.771 7.922-17.693 17.693-17.693m-4.89-3.882 5.771 3.516-3.516 5.771" stroke="#9C9C9C" stroke-width="2"/><path d="M209.13 442.6V338.836s11.027 10.431 45.3 10.431c34.273 0 46.493-11.623 46.493-11.623V442.6s-4.936 12.745-46.493 13.235c-41.557.491-45.3-13.235-45.3-13.235Z" fill="#fff"/><path d="M301 334.769c0 1.614-1.024 3.327-3.299 5.039-2.259 1.7-5.596 3.274-9.823 4.614-8.442 2.675-20.21 4.347-33.378 4.347s-24.936-1.672-33.378-4.347c-4.227-1.34-7.564-2.914-9.823-4.614-2.275-1.712-3.299-3.425-3.299-5.039 0-1.615 1.024-3.328 3.299-5.04 2.259-1.7 5.596-3.274 9.823-4.614 8.442-2.675 20.21-4.346 33.378-4.346s24.936 1.671 33.378 4.346c4.227 1.34 7.564 2.914 9.823 4.614 2.275 1.712 3.299 3.425 3.299 5.04Z" fill="#fff" stroke="#ED1C24" stroke-width="2"/><path d="m208 333.769.351 107.263M301 333.769v108m.089-.558c0 7.957-20.761 14.406-46.369 14.406-25.609 0-46.369-6.449-46.369-14.406" stroke="#ED1C24" stroke-width="2"/><path d="M258.637 399.884v1.689h-9.463c-.013-.423.056-.83.205-1.22.241-.645.625-1.28 1.153-1.905.534-.625 1.302-1.347 2.304-2.168 1.556-1.276 2.608-2.285 3.155-3.027.547-.749.82-1.455.82-2.119 0-.697-.251-1.283-.752-1.758-.495-.482-1.142-.723-1.943-.723-.847 0-1.524.254-2.032.762-.507.508-.765 1.211-.771 2.109l-1.807-.185c.124-1.348.59-2.373 1.397-3.076.807-.71 1.891-1.065 3.252-1.065 1.373 0 2.461.381 3.262 1.143.8.762 1.201 1.706 1.201 2.832 0 .573-.118 1.136-.352 1.689-.234.554-.625 1.136-1.172 1.748-.54.612-1.442 1.452-2.705 2.52-1.055.885-1.732 1.488-2.031 1.807-.3.312-.547.628-.742.947h7.021Z" fill="#000"/><path d="M271.836 394.486c0 9.772-7.922 17.694-17.694 17.694-9.771 0-17.693-7.922-17.693-17.694 0-9.771 7.922-17.693 17.693-17.693m-4.89-3.882 5.771 3.516-3.516 5.771" stroke="#9C9C9C" stroke-width="2"/><path d="M121.13 472.177V368.62s11.027 8.545 45.3 8.545c34.273 0 46.493-9.521 46.493-9.521v103.961c-13.721 18.884-83.39 16.452-91.793.572Z" fill="#fff"/><path d="M213 364.769c0 1.614-1.024 3.327-3.299 5.039-2.259 1.7-5.596 3.274-9.823 4.614-8.442 2.675-20.21 4.347-33.378 4.347s-24.936-1.672-33.378-4.347c-4.227-1.34-7.564-2.914-9.823-4.614-2.275-1.712-3.299-3.425-3.299-5.039 0-1.615 1.024-3.328 3.299-5.04 2.259-1.7 5.596-3.274 9.823-4.614 8.442-2.675 20.21-4.346 33.378-4.346s24.936 1.671 33.378 4.346c4.227 1.34 7.564 2.914 9.823 4.614 2.275 1.712 3.299 3.425 3.299 5.04Z" fill="#fff" stroke="#ED1C24" stroke-width="2"/><path d="m120 363.769.351 107.263M213 363.769v108m.089-1.558c0 7.957-20.761 14.406-46.369 14.406-25.609 0-46.369-6.449-46.369-14.406" stroke="#ED1C24" stroke-width="2"/><path d="M229.924 467.142s-10.499 6.402-.604 12.76c1.904 1.238 8.808 4.681 8.611 7.868 0 0 4.185-6.192-1.934-10.088-6.284-3.987-7.855-8.245-6.073-10.54Z" fill="#ED1C24"/><path d="M226.269 479.374s-3.747 5.678 3.625 6.84c.726.091 6.058.65 7.448 2.401 0 0-.121-3.02-4.471-4.802-4.336-1.782-6.119-2.219-6.602-4.439Zm14.503-5.965c-4.502-4.712-5.756-7.626-3.822-11.402 0 0-13.431 5.165-.167 14.331 4.744 3.277 3.958 6.63 3.958 6.75.741-.77 4.533-4.968.031-9.679Z" fill="#ED1C24"/><path d="M248.219 483.874v-11.453h1.554l6.016 8.992v-8.992h1.453v11.453h-1.554l-6.016-9v9h-1.453Zm11.317-5.578c0-1.901.51-3.388 1.531-4.461 1.021-1.078 2.339-1.617 3.953-1.617 1.058 0 2.011.252 2.86.758a4.92 4.92 0 0 1 1.937 2.117c.448.901.672 1.924.672 3.07 0 1.162-.234 2.201-.703 3.117-.469.917-1.133 1.612-1.992 2.086a5.718 5.718 0 0 1-2.782.703c-1.078 0-2.041-.26-2.89-.781a5.033 5.033 0 0 1-1.93-2.133 6.47 6.47 0 0 1-.656-2.859Zm1.562.023c0 1.381.37 2.469 1.11 3.266.745.792 1.677 1.187 2.797 1.187 1.14 0 2.078-.401 2.812-1.203.74-.802 1.11-1.94 1.11-3.414 0-.932-.159-1.745-.477-2.437-.313-.698-.773-1.237-1.383-1.617a3.707 3.707 0 0 0-2.039-.579 3.88 3.88 0 0 0-2.773 1.11c-.771.734-1.157 1.963-1.157 3.687Zm11.552 5.555v-11.453h3.945c.891 0 1.571.055 2.039.164.657.151 1.217.424 1.68.82.604.511 1.055 1.164 1.352 1.961.302.792.453 1.698.453 2.719 0 .87-.102 1.641-.305 2.312-.203.672-.463 1.23-.781 1.672a4.203 4.203 0 0 1-1.047 1.039c-.375.25-.831.441-1.367.571-.532.13-1.143.195-1.836.195h-4.133Zm1.516-1.352h2.445c.755 0 1.346-.07 1.773-.21.433-.141.776-.339 1.032-.594.359-.36.638-.841.836-1.446.203-.609.304-1.346.304-2.21 0-1.198-.198-2.118-.594-2.758-.39-.646-.867-1.078-1.429-1.297-.406-.156-1.06-.235-1.961-.235h-2.406v8.75Zm10.278 1.352v-11.453h8.281v1.351h-6.766v3.508h6.336v1.344h-6.336v3.898h7.032v1.352h-8.547Z" fill="#2D2D2D"/><path d="M41.85 467.142s-10.499 6.402-.604 12.76c1.904 1.238 8.808 4.681 8.611 7.868 0 0 4.185-6.192-1.933-10.088-6.285-3.987-7.856-8.245-6.073-10.54Z" fill="#ED1C24"/><path d="M38.195 479.374s-3.747 5.678 3.626 6.84c.725.091 6.058.65 7.447 2.401 0 0-.12-3.02-4.471-4.802-4.336-1.782-6.119-2.219-6.602-4.439Zm14.503-5.965c-4.502-4.712-5.756-7.626-3.822-11.402 0 0-13.43 5.165-.166 14.331 4.743 3.277 3.958 6.63 3.958 6.75.74-.77 4.532-4.968.03-9.679Z" fill="#ED1C24"/><path d="M60.145 483.874v-11.453H61.7l6.015 8.992v-8.992h1.453v11.453h-1.554l-6.016-9v9h-1.453Zm11.317-5.578c0-1.901.51-3.388 1.531-4.461 1.021-1.078 2.339-1.617 3.954-1.617 1.057 0 2.01.252 2.859.758a4.92 4.92 0 0 1 1.937 2.117c.448.901.672 1.924.672 3.07 0 1.162-.234 2.201-.703 3.117-.469.917-1.133 1.612-1.992 2.086a5.714 5.714 0 0 1-2.781.703c-1.078 0-2.042-.26-2.89-.781a5.029 5.029 0 0 1-1.93-2.133 6.463 6.463 0 0 1-.657-2.859Zm1.563.023c0 1.381.37 2.469 1.109 3.266.745.792 1.677 1.187 2.797 1.187 1.14 0 2.078-.401 2.812-1.203.74-.802 1.11-1.94 1.11-3.414 0-.932-.16-1.745-.477-2.437-.312-.698-.773-1.237-1.383-1.617a3.707 3.707 0 0 0-2.039-.579 3.88 3.88 0 0 0-2.773 1.11c-.77.734-1.156 1.963-1.156 3.687Zm11.551 5.555v-11.453h3.946c.89 0 1.57.055 2.039.164.656.151 1.216.424 1.68.82.603.511 1.054 1.164 1.35 1.961.303.792.454 1.698.454 2.719 0 .87-.102 1.641-.305 2.312-.203.672-.463 1.23-.781 1.672a4.193 4.193 0 0 1-1.047 1.039c-.375.25-.83.441-1.367.571-.531.13-1.143.195-1.836.195h-4.133Zm1.516-1.352h2.445c.755 0 1.346-.07 1.774-.21.432-.141.776-.339 1.03-.594.36-.36.639-.841.837-1.446.203-.609.305-1.346.305-2.21 0-1.198-.199-2.118-.594-2.758-.39-.646-.867-1.078-1.43-1.297-.406-.156-1.06-.235-1.96-.235h-2.407v8.75Zm10.278 1.352v-11.453h8.281v1.351h-6.765v3.508h6.336v1.344h-6.336v3.898h7.031v1.352H96.37Z" fill="#2D2D2D"/><path d="M134.851 497.679s-10.5 6.403-.605 12.76c1.904 1.239 8.808 4.682 8.611 7.868 0 0 4.185-6.191-1.933-10.087-6.285-3.987-7.856-8.246-6.073-10.541Z" fill="#ED1C24"/><path d="M131.195 509.911s-3.747 5.678 3.626 6.841c.725.09 6.058.649 7.447 2.401 0 0-.12-3.02-4.471-4.802-4.336-1.782-6.119-2.22-6.602-4.44Zm14.503-5.965c-4.502-4.712-5.756-7.626-3.822-11.401 0 0-13.43 5.164-.166 14.331 4.743 3.277 3.958 6.629 3.958 6.75.74-.77 4.532-4.968.03-9.68Z" fill="#ED1C24"/><path d="M153.145 514.874v-11.453h1.555l6.015 8.992v-8.992h1.453v11.453h-1.554l-6.016-9v9h-1.453Zm11.317-5.578c0-1.901.511-3.388 1.531-4.461 1.021-1.078 2.339-1.617 3.954-1.617 1.057 0 2.01.252 2.859.758a4.914 4.914 0 0 1 1.937 2.117c.448.901.672 1.924.672 3.07 0 1.162-.234 2.201-.703 3.117-.469.917-1.133 1.612-1.992 2.086a5.714 5.714 0 0 1-2.781.703c-1.078 0-2.042-.26-2.891-.781a5.033 5.033 0 0 1-1.93-2.133 6.47 6.47 0 0 1-.656-2.859Zm1.563.023c0 1.381.369 2.469 1.109 3.266.745.792 1.677 1.187 2.797 1.187 1.141 0 2.078-.401 2.812-1.203.74-.802 1.11-1.94 1.11-3.414 0-.932-.159-1.745-.477-2.437-.312-.698-.773-1.237-1.383-1.617a3.704 3.704 0 0 0-2.039-.579 3.88 3.88 0 0 0-2.773 1.11c-.771.734-1.156 1.963-1.156 3.687Zm11.551 5.555v-11.453h3.946c.89 0 1.57.055 2.039.164.656.151 1.216.424 1.679.82.604.511 1.055 1.164 1.352 1.961.302.792.453 1.698.453 2.719 0 .87-.102 1.641-.305 2.312-.203.672-.463 1.23-.781 1.672a4.203 4.203 0 0 1-1.047 1.039c-.375.25-.831.441-1.367.571-.531.13-1.143.195-1.836.195h-4.133Zm1.516-1.352h2.445c.755 0 1.346-.07 1.774-.21.432-.141.776-.339 1.031-.594.359-.36.638-.841.836-1.446.203-.609.304-1.346.304-2.21 0-1.198-.197-2.118-.593-2.758-.391-.646-.867-1.078-1.43-1.297-.406-.156-1.06-.235-1.961-.235h-2.406v8.75Zm10.278 1.352v-11.453h8.281v1.351h-6.765v3.508h6.336v1.344h-6.336v3.898h7.031v1.352h-8.547Z" fill="#2D2D2D"/><path d="M170.637 431.884v1.689h-9.463c-.013-.423.056-.83.205-1.22.241-.645.625-1.28 1.153-1.905.534-.625 1.302-1.347 2.304-2.168 1.556-1.276 2.608-2.285 3.155-3.027.547-.749.82-1.455.82-2.119 0-.697-.251-1.283-.752-1.758-.495-.482-1.142-.723-1.943-.723-.847 0-1.524.254-2.032.762-.507.508-.765 1.211-.771 2.109l-1.807-.185c.124-1.348.59-2.373 1.397-3.076.807-.71 1.891-1.065 3.252-1.065 1.373 0 2.461.381 3.262 1.143.8.762 1.201 1.706 1.201 2.832 0 .573-.118 1.136-.352 1.689-.234.554-.625 1.136-1.172 1.748-.54.612-1.442 1.452-2.705 2.52-1.055.885-1.732 1.488-2.031 1.807-.3.312-.547.628-.742.947h7.021Z" fill="#000"/><path d="M183.836 426.486c0 9.772-7.922 17.694-17.694 17.694-9.771 0-17.693-7.922-17.693-17.694 0-9.771 7.922-17.693 17.693-17.693m-4.89-3.882 5.771 3.516-3.516 5.771" stroke="#9C9C9C" stroke-width="2"/><path d="m85.533 207.675 24.982 6.611v-35.929l-24.982-6.611-24.543 7.639v35.78l24.543-7.49Z" fill="#fff" stroke="#2D2D2D" stroke-width="2"/><path d="m85.972 186.27-24.982-6.611v43.812l24.982 6.611 24.543-7.639V178.78l-24.543 7.49Z" fill="#fff" stroke="#2D2D2D" stroke-width="2"/><path d="M85.606 186.199v43.15" stroke="#2D2D2D" stroke-width="2"/><path d="m124.368 213.693 5.498-14.316h2.041l5.86 14.316h-2.159l-1.67-4.336h-5.986l-1.572 4.336h-2.012Zm4.131-5.879h4.854l-1.495-3.964c-.455-1.205-.794-2.194-1.015-2.969-.183.918-.44 1.829-.772 2.734l-1.572 4.199Zm10.757 9.854v-14.346h1.601v1.348c.378-.527.804-.921 1.28-1.182.475-.267 1.051-.4 1.728-.4.885 0 1.667.228 2.344.683.677.456 1.188 1.101 1.533 1.934.345.827.518 1.735.518 2.725 0 1.061-.192 2.018-.577 2.871-.377.846-.931 1.497-1.66 1.953-.722.449-1.484.674-2.285.674a3.342 3.342 0 0 1-1.582-.371 3.622 3.622 0 0 1-1.143-.938v5.049h-1.757Zm1.591-9.102c0 1.335.271 2.321.811 2.959.54.638 1.195.957 1.963.957.781 0 1.448-.328 2.002-.986.56-.664.84-1.689.84-3.076 0-1.322-.274-2.311-.821-2.969-.54-.657-1.188-.986-1.943-.986-.749 0-1.413.351-1.992 1.055-.573.696-.86 1.712-.86 3.046Zm9.741 9.102v-14.346h1.602v1.348c.378-.527.804-.921 1.279-1.182.476-.267 1.052-.4 1.729-.4.885 0 1.667.228 2.344.683.677.456 1.188 1.101 1.533 1.934.345.827.517 1.735.517 2.725 0 1.061-.192 2.018-.576 2.871-.377.846-.931 1.497-1.66 1.953-.723.449-1.484.674-2.285.674a3.342 3.342 0 0 1-1.582-.371 3.622 3.622 0 0 1-1.143-.938v5.049h-1.758Zm1.592-9.102c0 1.335.27 2.321.811 2.959.54.638 1.194.957 1.963.957.781 0 1.448-.328 2.002-.986.56-.664.84-1.689.84-3.076 0-1.322-.274-2.311-.821-2.969-.54-.657-1.188-.986-1.943-.986-.749 0-1.413.351-1.992 1.055-.573.696-.86 1.712-.86 3.046Zm9.702 5.127v-14.316h1.758v14.316h-1.758Zm4.702-12.295v-2.021h1.758v2.021h-1.758Zm0 12.295v-10.371h1.758v10.371h-1.758Zm11.411-3.798 1.729.224c-.189 1.192-.674 2.126-1.455 2.803-.775.67-1.729 1.006-2.862 1.006-1.419 0-2.562-.463-3.428-1.387-.859-.931-1.289-2.262-1.289-3.994 0-1.12.186-2.1.557-2.94.371-.839.934-1.468 1.69-1.884a5.011 5.011 0 0 1 2.48-.635c1.126 0 2.048.286 2.764.859.716.567 1.175 1.374 1.377 2.422l-1.709.264c-.163-.697-.453-1.221-.87-1.572-.41-.352-.908-.528-1.494-.528-.885 0-1.604.319-2.158.957-.553.632-.83 1.634-.83 3.008 0 1.393.267 2.406.801 3.037.534.632 1.23.947 2.09.947.69 0 1.266-.211 1.728-.634.462-.424.755-1.075.879-1.953Zm10.2 2.519c-.651.553-1.279.944-1.885 1.172a5.387 5.387 0 0 1-1.933.342c-1.14 0-2.015-.277-2.627-.83-.612-.56-.918-1.273-.918-2.139 0-.508.114-.97.342-1.387.234-.423.537-.761.908-1.015a4.356 4.356 0 0 1 1.269-.577c.345-.091.866-.179 1.563-.263 1.419-.169 2.464-.371 3.135-.606.006-.241.009-.394.009-.459 0-.716-.166-1.22-.498-1.513-.449-.397-1.116-.596-2.002-.596-.826 0-1.438.146-1.836.439-.39.287-.68.798-.869 1.534l-1.718-.235c.156-.735.413-1.328.771-1.777.358-.456.876-.804 1.553-1.045.677-.247 1.461-.371 2.353-.371.886 0 1.605.104 2.159.312.553.209.96.472 1.22.791.261.313.443.71.547 1.192.059.299.088.84.088 1.621v2.344c0 1.634.036 2.669.107 3.105.079.43.228.843.45 1.24h-1.836a3.706 3.706 0 0 1-.352-1.279Zm-.146-3.926c-.638.261-1.595.482-2.871.664-.723.105-1.234.222-1.534.352a1.518 1.518 0 0 0-.937 1.406c0 .469.176.86.527 1.172.358.313.879.469 1.563.469.677 0 1.279-.147 1.806-.44a2.755 2.755 0 0 0 1.162-1.22c.189-.398.284-.983.284-1.758v-.645Zm8.549 3.633.254 1.553a6.528 6.528 0 0 1-1.328.156c-.638 0-1.133-.101-1.484-.303-.352-.201-.599-.465-.743-.791-.143-.332-.214-1.025-.214-2.08v-5.967h-1.289v-1.367h1.289v-2.568l1.748-1.055v3.623h1.767v1.367h-1.767v6.065c0 .501.029.823.088.967a.767.767 0 0 0 .302.341c.144.085.345.127.606.127.195 0 .452-.022.771-.068Zm1.939-10.723v-2.021h1.757v2.021h-1.757Zm0 12.295v-10.371h1.757v10.371h-1.757Zm3.989-5.185c0-1.921.533-3.343 1.601-4.268.892-.768 1.979-1.152 3.262-1.152 1.426 0 2.591.469 3.496 1.406.905.931 1.357 2.22 1.357 3.867 0 1.335-.201 2.386-.605 3.155a4.224 4.224 0 0 1-1.748 1.777 5.065 5.065 0 0 1-2.5.635c-1.452 0-2.627-.466-3.526-1.397-.891-.931-1.337-2.272-1.337-4.023Zm1.806 0c0 1.328.29 2.324.869 2.988.58.658 1.309.986 2.188.986.872 0 1.598-.332 2.178-.996.579-.664.869-1.676.869-3.037 0-1.282-.293-2.252-.879-2.91-.58-.664-1.302-.996-2.168-.996-.879 0-1.608.329-2.188.986-.579.658-.869 1.651-.869 2.979Zm10.181 5.185v-10.371h1.582v1.475c.761-1.139 1.862-1.709 3.301-1.709.625 0 1.197.114 1.718.342.528.221.921.514 1.182.879.26.364.443.797.547 1.298.065.326.097.896.097 1.709v6.377h-1.757v-6.308c0-.716-.069-1.25-.205-1.602a1.657 1.657 0 0 0-.733-.849c-.345-.215-.752-.323-1.221-.323-.748 0-1.396.238-1.943.713-.54.475-.81 1.377-.81 2.705v5.664h-1.758Z" fill="#2D2D2D"/><path d="M27 67h-1.333v-8.571c-.321.308-.744.617-1.267.926-.518.31-.985.54-1.4.695v-1.3a8.049 8.049 0 0 0 1.956-1.285c.558-.504.953-.992 1.185-1.465H27v11Z" fill="#000"/><path fill-rule="evenodd" clip-rule="evenodd" d="m24.56 47.89-2.612-1.602.78-1.288 4.96 3.043-3.022 4.994-1.28-.785 1.756-2.899c-6.505.444-11.644 5.895-11.644 12.555 0 6.95 5.597 12.584 12.502 12.584s12.502-5.634 12.502-12.584H40C40 69.691 33.732 76 26 76s-14-6.31-14-14.092c0-7.294 5.505-13.293 12.56-14.018Z" fill="#9C9C9C"/><path d="m23 112.967 1.313-.176c.15.749.405 1.29.765 1.623.365.328.807.492 1.327.492a2.1 2.1 0 0 0 1.56-.646c.428-.431.642-.965.642-1.601 0-.607-.197-1.106-.59-1.498-.394-.397-.895-.595-1.502-.595a3.75 3.75 0 0 0-.927.147l.146-1.16c.088.01.158.014.212.014a2.69 2.69 0 0 0 1.51-.44c.446-.294.67-.747.67-1.359 0-.484-.163-.886-.489-1.204-.325-.318-.746-.477-1.261-.477-.51 0-.936.161-1.276.484-.34.324-.559.808-.656 1.454l-1.313-.235c.16-.886.525-1.571 1.094-2.056.569-.489 1.276-.734 2.122-.734.583 0 1.12.127 1.611.382.491.25.866.592 1.123 1.028.263.436.394.898.394 1.388 0 .465-.124.888-.372 1.27s-.615.685-1.1.911c.631.147 1.122.452 1.472.918.35.46.525 1.037.525 1.733 0 .939-.34 1.737-1.02 2.393-.681.651-1.542.977-2.582.977-.938 0-1.718-.281-2.34-.844-.618-.563-.97-1.293-1.058-2.189Z" fill="#000"/><path fill-rule="evenodd" clip-rule="evenodd" d="m25.01 95.983-2.707-1.654L23.11 93l5.14 3.14-3.132 5.156-1.324-.81 1.817-2.993c-6.737.459-12.06 6.086-12.06 12.961 0 7.174 5.798 12.99 12.949 12.99s12.949-5.816 12.949-12.99H41C41 118.487 34.508 125 26.5 125S12 118.487 12 110.454c0-7.529 5.701-13.722 13.01-14.471Z" fill="#9C9C9C"/></svg>