<svg width="43" height="39" viewBox="0 0 43 39" fill="none" xmlns="http://www.w3.org/2000/svg">
<rect x="0.9" y="0.9" width="40.5285" height="37.0604" rx="4.1" fill="white" stroke="black" stroke-width="1.8"/>
<path d="M15.9857 23.176L15.2941 23.6701L15.7417 24.2965L16.4092 23.9129L15.9857 23.176ZM23.678 18.7556L24.3543 18.2407L23.9019 17.6465L23.2545 18.0186L23.678 18.7556ZM32.8859 31.8423C33.3511 31.9053 33.7793 31.5793 33.8423 31.1141L34.8695 23.5334C34.9326 23.0682 34.6066 22.64 34.1414 22.577C33.6762 22.5139 33.248 22.84 33.1849 23.3051L32.2718 30.0436L25.5334 29.1305C25.0682 29.0674 24.64 29.3934 24.577 29.8586C24.5139 30.3238 24.84 30.752 25.3051 30.8151L32.8859 31.8423ZM7.30841 12.4942L15.2941 23.6701L16.6772 22.6818L8.69159 11.5058L7.30841 12.4942ZM16.4092 23.9129L24.1015 19.4925L23.2545 18.0186L15.5622 22.439L16.4092 23.9129ZM23.0017 19.2704L32.3237 31.5149L33.6763 30.4851L24.3543 18.2407L23.0017 19.2704Z" fill="#ED1C24"/>
<path d="M0.5 7.5H41" stroke="black" stroke-width="1.7"/>
<circle cx="5.5" cy="4.5" r="1.5" fill="black"/>
<circle cx="9.5" cy="4.5" r="1.5" fill="black"/>
<circle cx="13.5" cy="4.5" r="1.5" fill="black"/>
</svg>
