<svg width="747" height="474" viewBox="0 0 747 474" fill="none" xmlns="http://www.w3.org/2000/svg">
<mask id="mask0_1:546" style="mask-type:alpha" maskUnits="userSpaceOnUse" x="0" y="0" width="747" height="474">
<rect width="747" height="474" fill="#0070CC"/>
</mask>
<g mask="url(#mask0_1:546)">
<path d="M655.833 486.212L384.934 329.808L384.934 17.0001L655.833 173.404L655.833 486.212Z" fill="#0070CC" stroke="white"/>
<rect width="312.808" height="312.808" transform="matrix(-0.866025 0.5 -2.20305e-08 -1 384.934 329.808)" fill="#0070CC" stroke="white"/>
<path d="M330.044 102.553L510.529 206.756L510.529 502.414L330.044 398.211L330.044 102.553Z" fill="#0070CC" stroke="white"/>
<rect x="0.433013" y="0.25" width="61.8219" height="295.659" transform="matrix(0.866026 -0.5 2.20305e-08 1 511.02 206.722)" fill="#0070CC" stroke="white"/>
<path d="M384.016 70.8918L564.501 175.095L510.961 206.006L330.476 101.803L384.016 70.8918Z" fill="#0070CC" stroke="white"/>
<path d="M204.4 175.845L384.885 280.048L384.885 575.707L204.4 471.504L204.4 175.845Z" fill="#0070CC" stroke="white"/>
<rect x="0.433013" y="0.25" width="61.8219" height="295.659" transform="matrix(0.866026 -0.5 2.20305e-08 1 385.376 280.014)" fill="#0070CC" stroke="white"/>
<path d="M258.372 144.184L438.857 248.387L385.318 279.298L204.833 175.095L258.372 144.184Z" fill="#0070CC" stroke="white"/>
<path d="M114.035 173.404L384.935 329.807L384.935 677.516L114.035 521.112L114.035 173.404Z" fill="#0070CC" stroke="white"/>
<path d="M384.934 329.808L655.834 173.404L655.834 521.113L384.934 677.517L384.934 329.808Z" fill="#0070CC" stroke="white"/>
<path d="M23.0006 315.731L293.9 472.135L384.934 329.807L114.034 173.404L23.0006 315.731Z" fill="#0070CC" stroke="white"/>
<path d="M746.867 315.731L475.968 472.135L384.934 329.807L655.833 173.404L746.867 315.731Z" fill="#0070CC" stroke="white"/>
</g>
</svg>
