<svg width="656" height="645" fill="none" xmlns="http://www.w3.org/2000/svg"><path d="m702.085 247.151-46.397 26.787-92.795 53.575v214.301l92.795-53.575 46.397-26.788v-214.3Z" fill="#0070CC" stroke="#fff"/><path transform="matrix(-.86603 -.5 0 1 562.798 327.459)" fill="#0070CC" stroke="#fff" d="M0 0h214.541v214.541H0z"/><path d="m516.495 140-46.397 26.788-92.795 53.575 185.59 107.15 92.795-53.575 46.397-26.788L516.495 140Z" fill="#0070CC" stroke="#fff"/><path fill-rule="evenodd" clip-rule="evenodd" d="M684.075 284.082c.478-.277.866-.053.866.5v32.288c0 .552-.388 1.224-.866 1.5l-6.558 3.786-13.981 8.072c-.478.276-.866.052-.866-.5V297.44c0-.553.388-1.224.866-1.5l13.981-8.072 6.558-3.786Zm0 83.577c.478-.276.866-.052.866.5v15.144c0 .552-.388 1.224-.866 1.5l-102.198 59.004c-.479.276-.866.052-.866-.5v-15.144c0-.552.387-1.224.866-1.5l102.198-59.004Zm0 30.002c.478-.276.866-.052.866.5v15.144c0 .552-.388 1.224-.866 1.5l-102.198 59.004c-.479.276-.866.052-.866-.5v-15.144c0-.552.387-1.224.866-1.5l102.198-59.004Zm.866 30.502c0-.552-.388-.776-.866-.5l-102.198 59.004c-.479.276-.866.948-.866 1.5v15.144c0 .553.387.776.866.5l102.198-59.004c.478-.276.866-.948.866-1.5v-15.144Z" fill="#0070CC"/><path d="m684.075 284.082.25.433-.25-.433Zm0 34.288-.25-.433.25.433Zm-6.558 3.786.25.433-.25-.433Zm-13.981 8.072-.25-.433.25.433Zm-.866-.5h.5-.5Zm0-32.288h-.5.5Zm.866-1.5.25.433-.25-.433Zm13.981-8.072.25.433-.25-.433Zm7.424 80.291h-.5.5Zm-.866-.5-.25-.433.25.433Zm.866 15.644h.5-.5Zm-.866 1.5.25.433-.25-.433Zm-102.198 59.004.25.433-.25-.433Zm0-17.144.25.433-.25-.433Zm103.064-28.502h-.5.5Zm-.866-.5-.25-.433.25.433Zm.866 15.644h.5-.5Zm-.866 1.5.25.433-.25-.433Zm-102.198 59.004.25.433-.25-.433Zm0-17.144-.25-.433.25.433Zm102.198-29.002-.25-.433.25.433Zm.866.5h-.5.5Zm-103.064 58.504-.25-.433.25.433Zm0 17.144.25.433-.25-.433Zm102.198-59.004.25.433-.25-.433Zm.866-1.5h.5-.5Zm-.5-158.725a.353.353 0 0 0-.021-.14c-.006-.012-.004 0 .017.012s.033.008.019.01a.338.338 0 0 0-.131.051l-.5-.866c.33-.191.747-.272 1.112-.061.366.211.504.612.504.994h-1Zm0 32.288v-32.288h1v32.288h-1Zm-.616 1.067c.145-.084.305-.248.429-.464.125-.215.187-.436.187-.603h1c0 .384-.132.776-.321 1.103-.189.328-.462.637-.795.83l-.5-.866Zm-6.558 3.786 6.558-3.786.5.866-6.558 3.786-.5-.866Zm-13.981 8.072 13.981-8.072.5.866-13.981 8.072-.5-.866Zm-.116-.067c0 .081.015.124.022.139.006.012.003 0-.018-.012-.021-.012-.033-.008-.019-.009a.365.365 0 0 0 .131-.051l.5.866c-.33.19-.746.272-1.112.06-.366-.211-.504-.612-.504-.993h1Zm0-32.288v32.288h-1V297.44h1Zm.616-1.067a1.263 1.263 0 0 0-.429.463 1.274 1.274 0 0 0-.187.604h-1c0-.385.132-.777.321-1.104.189-.327.462-.637.795-.829l.5.866Zm13.981-8.072-13.981 8.072-.5-.866 13.981-8.072.5.866Zm6.558-3.786-6.558 3.786-.5-.866 6.558-3.786.5.866Zm.116 83.644a.357.357 0 0 0-.021-.14c-.006-.012-.004 0 .017.012s.033.009.019.01a.338.338 0 0 0-.131.051l-.5-.866c.33-.191.746-.272 1.112-.061.366.211.504.612.504.994h-1Zm0 15.144v-15.144h1v15.144h-1Zm-.616 1.067c.145-.084.305-.248.429-.464.125-.215.187-.435.187-.603h1c0 .384-.132.776-.321 1.103-.189.328-.462.638-.795.83l-.5-.866Zm-102.198 59.004 102.198-59.004.5.866-102.198 59.004-.5-.866Zm-.116-.067c0 .082.014.124.021.139.006.013.003.001-.018-.011-.021-.012-.032-.009-.019-.01a.334.334 0 0 0 .132-.051l.5.866c-.331.191-.747.272-1.113.061-.366-.211-.503-.613-.503-.994h1Zm0-15.144v15.144h-1v-15.144h1Zm.616-1.067a1.281 1.281 0 0 0-.43.463 1.283 1.283 0 0 0-.186.604h-1c0-.385.131-.776.32-1.104.189-.327.463-.637.796-.829l.5.866Zm102.198-59.004-102.198 59.004-.5-.866 102.198-59.004.5.866Zm.116 30.069a.346.346 0 0 0-.021-.139c-.006-.013-.004-.001.017.011s.033.009.019.01a.338.338 0 0 0-.131.051l-.5-.866c.33-.191.746-.272 1.112-.061.366.211.504.612.504.994h-1Zm0 15.144v-15.144h1v15.144h-1Zm-.616 1.067c.145-.084.305-.248.429-.464.125-.215.187-.435.187-.603h1c0 .384-.132.776-.321 1.103-.189.328-.462.638-.795.83l-.5-.866Zm-102.198 59.004 102.198-59.004.5.866-102.198 59.004-.5-.866Zm-.116-.067c0 .082.014.124.021.139.006.013.003.001-.018-.011-.021-.012-.032-.009-.019-.01a.334.334 0 0 0 .132-.051l.5.866c-.331.191-.747.272-1.113.061-.366-.211-.503-.613-.503-.994h1Zm0-15.144v15.144h-1v-15.144h1Zm.616-1.067a1.277 1.277 0 0 0-.43.464 1.277 1.277 0 0 0-.186.603h-1c0-.384.131-.776.32-1.103.189-.328.463-.638.796-.83l.5.866Zm102.198-59.004-102.198 59.004-.5-.866 102.198-59.004.5.866Zm-.5 29.136c.33-.191.746-.272 1.112-.061.366.212.504.613.504.994h-1a.35.35 0 0 0-.021-.139c-.006-.013-.004-.001.017.011s.033.009.019.01a.338.338 0 0 0-.131.051l-.5-.866Zm-102.198 59.004 102.198-59.004.5.866L582.127 487.1l-.5-.866Zm-1.116 1.933c0-.384.131-.776.32-1.103a2.27 2.27 0 0 1 .796-.83l.5.866a1.277 1.277 0 0 0-.43.464 1.28 1.28 0 0 0-.186.603h-1Zm0 15.144v-15.144h1v15.144h-1Zm1.616.933c-.331.191-.747.272-1.113.061-.366-.211-.503-.612-.503-.994h1c0 .082.014.125.021.14.006.012.003 0-.018-.012-.021-.012-.032-.008-.019-.01a.334.334 0 0 0 .132-.051l.5.866Zm102.198-59.004-102.198 59.004-.5-.866 102.198-59.004.5.866Zm1.116-1.933c0 .385-.132.776-.321 1.104-.189.327-.462.637-.795.829l-.5-.866a1.28 1.28 0 0 0 .429-.463c.125-.216.187-.436.187-.604h1Zm0-15.144v15.144h-1v-15.144h1Z" fill="#fff"/><path d="m524.085 361.15-46.397 26.788-92.795 53.575v214.301l92.795-53.575 46.397-26.788V361.15Z" fill="#0070CC" stroke="#fff"/><path transform="matrix(-.86603 -.5 0 1 384.798 441.458)" fill="#0070CC" stroke="#fff" d="M0 0h214.541v214.541H0z"/><path d="m338.495 254-46.397 26.787-92.795 53.576 185.59 107.15 92.795-53.575 46.397-26.788L338.495 254Z" fill="#0070CC" stroke="#fff"/><path fill-rule="evenodd" clip-rule="evenodd" d="M506.075 398.081c.478-.276.866-.052.866.5v32.289c0 .552-.388 1.223-.866 1.5l-6.558 3.786-13.981 8.072c-.478.276-.866.052-.866-.5v-32.289c0-.552.388-1.223.866-1.5l13.981-8.072 6.558-3.786Zm0 83.578c.478-.276.866-.053.866.5v15.144c0 .552-.388 1.224-.866 1.5l-102.198 59.004c-.479.276-.866.052-.866-.5v-15.144c0-.552.387-1.224.866-1.5l102.198-59.004Zm0 30.002c.478-.276.866-.053.866.5v15.144c0 .552-.388 1.224-.866 1.5l-102.198 59.004c-.479.276-.866.052-.866-.5v-15.144c0-.552.387-1.224.866-1.5l102.198-59.004Zm.866 30.502c0-.552-.388-.776-.866-.5l-102.198 59.004c-.479.276-.866.948-.866 1.5v15.144c0 .552.387.776.866.5l102.198-59.004c.478-.276.866-.948.866-1.5v-15.144Z" fill="#0070CC"/><path d="m506.075 398.081.25.433-.25-.433Zm0 34.289-.25-.433.25.433Zm-6.558 3.786.25.433-.25-.433Zm-13.981 8.072-.25-.433.25.433Zm-.866-.5h.5-.5Zm0-32.289h-.5.5Zm.866-1.5.25.433-.25-.433Zm13.981-8.072.25.433-.25-.433Zm7.424 80.292h-.5.5Zm-.866-.5-.25-.433.25.433Zm.866 15.644h.5-.5Zm-.866 1.5.25.433-.25-.433Zm-102.198 59.004.25.433-.25-.433Zm0-17.144.25.433-.25-.433Zm103.064-28.502h-.5.5Zm-.866-.5-.25-.433.25.433Zm.866 15.644h.5-.5Zm-.866 1.5.25.433-.25-.433Zm-102.198 59.004.25.433-.25-.433Zm0-17.144-.25-.433.25.433Zm102.198-29.002-.25-.433.25.433Zm.866.5h-.5.5Zm-103.064 58.504-.25-.433.25.433Zm0 17.144.25.433-.25-.433Zm102.198-59.004.25.433-.25-.433Zm.866-1.5h.5-.5Zm-.5-158.726a.35.35 0 0 0-.021-.139c-.006-.012-.004 0 .017.012s.033.008.019.009a.379.379 0 0 0-.131.051l-.5-.866c.33-.19.747-.272 1.112-.06.366.211.504.612.504.993h-1Zm0 32.289v-32.289h1v32.289h-1Zm-.616 1.067c.145-.084.305-.248.429-.464.125-.215.187-.436.187-.603h1c0 .384-.132.776-.321 1.103-.189.327-.462.637-.795.83l-.5-.866Zm-6.558 3.786 6.558-3.786.5.866-6.558 3.786-.5-.866Zm-13.981 8.072 13.981-8.072.5.866-13.981 8.072-.5-.866Zm-.116-.067c0 .081.015.124.022.139.006.012.003 0-.018-.012-.021-.012-.033-.008-.019-.009a.365.365 0 0 0 .131-.051l.5.866c-.33.19-.746.272-1.112.06-.366-.211-.504-.612-.504-.993h1Zm0-32.289v32.289h-1v-32.289h1Zm.616-1.067a1.275 1.275 0 0 0-.429.464 1.271 1.271 0 0 0-.187.603h-1c0-.384.132-.776.321-1.103.189-.327.462-.637.795-.83l.5.866Zm13.981-8.072-13.981 8.072-.5-.866 13.981-8.072.5.866Zm6.558-3.786-6.558 3.786-.5-.866 6.558-3.786.5.866Zm.116 83.645a.353.353 0 0 0-.021-.14c-.006-.012-.004 0 .017.012s.033.008.019.01a.338.338 0 0 0-.131.051l-.5-.866c.33-.191.746-.272 1.112-.061.366.211.504.612.504.994h-1Zm0 15.144v-15.144h1v15.144h-1Zm-.616 1.067c.145-.084.305-.248.429-.464.125-.215.187-.436.187-.603h1c0 .384-.132.776-.321 1.103-.189.328-.462.637-.795.83l-.5-.866Zm-102.198 59.004 102.198-59.004.5.866-102.198 59.004-.5-.866Zm-.116-.067a.35.35 0 0 0 .021.139c.006.013.003.001-.018-.011-.021-.012-.032-.009-.019-.01a.334.334 0 0 0 .132-.051l.5.866c-.331.191-.747.272-1.113.061-.366-.212-.503-.613-.503-.994h1Zm0-15.144v15.144h-1v-15.144h1Zm.616-1.067a1.281 1.281 0 0 0-.43.463 1.283 1.283 0 0 0-.186.604h-1c0-.385.131-.776.32-1.104.189-.327.463-.637.796-.829l.5.866Zm102.198-59.004-102.198 59.004-.5-.866 102.198-59.004.5.866Zm.116 30.069a.353.353 0 0 0-.021-.14c-.006-.012-.004 0 .017.012s.033.008.019.01a.338.338 0 0 0-.131.051l-.5-.866c.33-.191.746-.272 1.112-.061.366.211.504.612.504.994h-1Zm0 15.144v-15.144h1v15.144h-1Zm-.616 1.067c.145-.084.305-.248.429-.464.125-.215.187-.436.187-.603h1c0 .384-.132.776-.321 1.103-.189.328-.462.638-.795.83l-.5-.866Zm-102.198 59.004 102.198-59.004.5.866-102.198 59.004-.5-.866Zm-.116-.067c0 .082.014.124.021.139.006.013.003.001-.018-.011-.021-.012-.032-.009-.019-.01a.334.334 0 0 0 .132-.051l.5.866c-.331.191-.747.272-1.113.061-.366-.212-.503-.613-.503-.994h1Zm0-15.144v15.144h-1v-15.144h1Zm.616-1.067a1.281 1.281 0 0 0-.43.463 1.283 1.283 0 0 0-.186.604h-1c0-.385.131-.776.32-1.104.189-.327.463-.637.796-.829l.5.866Zm102.198-59.004-102.198 59.004-.5-.866 102.198-59.004.5.866Zm-.5 29.136c.33-.191.746-.272 1.112-.061.366.211.504.613.504.994h-1a.346.346 0 0 0-.021-.139c-.006-.013-.004-.001.017.011s.033.009.019.01a.338.338 0 0 0-.131.051l-.5-.866Zm-102.198 59.004 102.198-59.004.5.866L404.127 601.1l-.5-.866Zm-1.116 1.933c0-.384.131-.776.32-1.103.189-.328.463-.638.796-.83l.5.866a1.277 1.277 0 0 0-.43.464 1.277 1.277 0 0 0-.186.603h-1Zm0 15.144v-15.144h1v15.144h-1Zm1.616.933c-.331.191-.747.272-1.113.061-.366-.211-.503-.612-.503-.994h1c0 .082.014.124.021.139.006.013.003.001-.018-.011-.021-.012-.032-.009-.019-.01a.334.334 0 0 0 .132-.051l.5.866Zm102.198-59.004-102.198 59.004-.5-.866 102.198-59.004.5.866Zm1.116-1.933c0 .385-.132.776-.321 1.103-.189.328-.462.638-.795.83l-.5-.866c.145-.084.305-.248.429-.464.125-.215.187-.435.187-.603h1Zm0-15.144v15.144h-1v-15.144h1Z" fill="#fff"/><path d="m326.627 474.15-46.398 26.788-92.795 53.575v214.301l92.795-53.575 46.398-26.788V474.15Z" fill="#0070CC" stroke="#fff"/><path transform="matrix(-.86603 -.5 0 1 187.34 554.458)" fill="#0070CC" stroke="#fff" d="M0 0h214.541v214.541H0z"/><path d="m141.037 367-46.398 26.787-92.795 53.576 185.59 107.15 92.795-53.575 46.398-26.788L141.037 367Z" fill="#0070CC" stroke="#fff"/><path fill-rule="evenodd" clip-rule="evenodd" d="M308.617 511.081c.478-.276.866-.052.866.5v32.288c0 .553-.388 1.224-.866 1.5l-6.558 3.786-13.981 8.072c-.478.277-.866.053-.866-.5v-32.288c0-.552.388-1.224.866-1.5l13.981-8.072 6.558-3.786Zm0 83.578c.478-.277.866-.053.866.5v15.144c0 .552-.388 1.223-.866 1.5l-102.199 59.004c-.478.276-.866.052-.866-.5v-15.144c0-.552.388-1.224.866-1.5l102.199-59.004Zm0 30.002c.478-.277.866-.053.866.5v15.144c0 .552-.388 1.224-.866 1.5l-102.199 59.004c-.478.276-.866.052-.866-.5v-15.144c0-.552.388-1.224.866-1.5l102.199-59.004Zm.866 30.502c0-.553-.388-.776-.866-.5l-102.199 59.004c-.478.276-.866.948-.866 1.5v15.144c0 .552.388.776.866.5l102.199-59.004c.478-.276.866-.948.866-1.5v-15.144Z" fill="#0070CC"/><path d="m308.617 511.081.25.433-.25-.433Zm0 34.288.25.433-.25-.433Zm-6.558 3.786-.25-.433.25.433Zm-13.981 8.072.25.433-.25-.433Zm-.866-.5h.5-.5Zm0-32.288h-.5.5Zm.866-1.5-.25-.433.25.433Zm13.981-8.072.25.433-.25-.433Zm7.424 80.292h-.5.5Zm-.866-.5-.25-.433.25.433Zm.866 15.644h.5-.5Zm-.866 1.5.25.433-.25-.433Zm-102.199 59.004.25.433-.25-.433Zm0-17.144.25.433-.25-.433Zm103.065-28.502h-.5.5Zm-.866-.5-.25-.433.25.433Zm.866 15.644h.5-.5Zm-.866 1.5-.25-.433.25.433Zm-102.199 59.004.25.433-.25-.433Zm0-17.144-.25-.433.25.433Zm102.199-29.002-.25-.433.25.433Zm.866.5h-.5.5Zm-103.065 58.504.25.433-.25-.433Zm0 17.144-.25-.433.25.433Zm102.199-59.004.25.433-.25-.433Zm.866-1.5h.5-.5Zm-.5-158.726a.342.342 0 0 0-.022-.139c-.006-.012-.003 0 .018.012.021.012.033.008.019.009a.371.371 0 0 0-.131.051l-.5-.866c.33-.19.746-.272 1.112-.06.366.211.504.612.504.993h-1Zm0 32.288v-32.288h1v32.288h-1Zm-.616 1.067c.145-.083.305-.247.429-.463.125-.216.187-.436.187-.604h1c0 .385-.132.777-.321 1.104-.189.327-.462.637-.795.829l-.5-.866Zm-6.558 3.786 6.558-3.786.5.866-6.558 3.786-.5-.866Zm-13.981 8.072 13.981-8.072.5.866-13.981 8.072-.5-.866Zm-.116-.067c0 .082.014.125.021.14.006.012.004 0-.017-.012s-.033-.008-.019-.01a.338.338 0 0 0 .131-.051l.5.866c-.33.191-.746.272-1.112.061-.366-.211-.504-.612-.504-.994h1Zm0-32.288v32.288h-1v-32.288h1Zm.616-1.067a1.275 1.275 0 0 0-.429.464 1.271 1.271 0 0 0-.187.603h-1c0-.384.132-.776.321-1.103.189-.328.462-.637.795-.83l.5.866Zm13.981-8.072-13.981 8.072-.5-.866 13.981-8.072.5.866Zm6.558-3.786-6.558 3.786-.5-.866 6.558-3.786.5.866Zm.116 83.645a.345.345 0 0 0-.022-.14c-.006-.012-.003 0 .018.012.021.012.033.008.019.01a.332.332 0 0 0-.131.051l-.5-.866c.33-.191.746-.272 1.112-.061.366.211.504.612.504.994h-1Zm0 15.144v-15.144h1v15.144h-1Zm-.616 1.067c.145-.084.305-.248.429-.464.125-.215.187-.436.187-.603h1c0 .384-.132.776-.321 1.103-.189.327-.462.637-.795.83l-.5-.866Zm-102.199 59.004 102.199-59.004.5.866-102.199 59.004-.5-.866Zm-.116-.067c0 .081.015.124.022.139.006.013.003.001-.018-.011-.021-.013-.033-.009-.019-.01a.345.345 0 0 0 .131-.051l.5.866c-.33.191-.746.272-1.112.061-.366-.212-.504-.613-.504-.994h1Zm0-15.144v15.144h-1v-15.144h1Zm.616-1.067a1.28 1.28 0 0 0-.429.463 1.286 1.286 0 0 0-.187.604h-1c0-.385.132-.776.321-1.104.189-.327.462-.637.795-.829l.5.866Zm102.199-59.004-102.199 59.004-.5-.866 102.199-59.004.5.866Zm.116 30.069a.345.345 0 0 0-.022-.14c-.006-.012-.003 0 .018.012.021.012.033.008.019.01a.332.332 0 0 0-.131.051l-.5-.866c.33-.191.746-.272 1.112-.061.366.211.504.612.504.994h-1Zm0 15.144v-15.144h1v15.144h-1Zm-.616 1.067c.145-.084.305-.248.429-.464.125-.215.187-.436.187-.603h1c0 .384-.132.776-.321 1.103-.189.328-.462.637-.795.83l-.5-.866Zm-102.199 59.004 102.199-59.004.5.866-102.199 59.004-.5-.866Zm-.116-.067c0 .081.015.124.022.139.006.013.003.001-.018-.011-.021-.013-.033-.009-.019-.01a.345.345 0 0 0 .131-.051l.5.866c-.33.191-.746.272-1.112.061-.366-.212-.504-.613-.504-.994h1Zm0-15.144v15.144h-1v-15.144h1Zm.616-1.067a1.28 1.28 0 0 0-.429.463 1.286 1.286 0 0 0-.187.604h-1c0-.385.132-.776.321-1.104.189-.327.462-.637.795-.829l.5.866Zm102.199-59.004-102.199 59.004-.5-.866 102.199-59.004.5.866Zm-.5 29.136c.33-.191.746-.272 1.112-.061.366.211.504.612.504.994h-1a.35.35 0 0 0-.022-.14c-.006-.012-.003 0 .018.012.021.012.033.009.019.01a.332.332 0 0 0-.131.051l-.5-.866Zm-102.199 59.004 102.199-59.004.5.866L206.668 714.1l-.5-.866Zm-1.116 1.933c0-.385.132-.776.321-1.104.189-.327.462-.637.795-.829l.5.866a1.28 1.28 0 0 0-.429.463 1.286 1.286 0 0 0-.187.604h-1Zm0 15.144v-15.144h1v15.144h-1Zm1.616.933c-.33.191-.746.272-1.112.061-.366-.212-.504-.613-.504-.994h1c0 .082.015.124.022.139.006.013.003.001-.018-.011-.021-.012-.033-.009-.019-.01a.327.327 0 0 0 .131-.051l.5.866Zm102.199-59.004-102.199 59.004-.5-.866 102.199-59.004.5.866Zm1.116-1.933c0 .384-.132.776-.321 1.103-.189.328-.462.638-.795.83l-.5-.866c.145-.084.305-.248.429-.464.125-.215.187-.435.187-.603h1Zm0-15.144v15.144h-1v-15.144h1Z" fill="#fff"/><path d="m258.791 261.004 84.953 49.047-3.634-143.942 47.451 27.397-80.477-143.408-93.524 54.173 46.686 26.954-1.455 129.779Z" fill="#0070CC" stroke="#fff" stroke-linejoin="round"/><path d="m383.441 281.947-40.052 27.9-3.527-144.047 42.727 24.668.852 91.479Z" fill="#0070CC" stroke="#fff" stroke-linejoin="round"/><path d="m387.561 193.506 38.576-22.629-82.329-142.436L302.579 52.6" stroke="#fff" stroke-linecap="round" stroke-linejoin="round"/></svg>