<svg width="300" height="200" fill="none" xmlns="http://www.w3.org/2000/svg"><rect width="300" height="200" rx="10" fill="#F0F0F0"/><path d="m90.342 95.25 19.25 33.342-19.25 33.342h-38.5l-19.25-33.342 19.25-33.342h38.5Z" fill="#2D2D2D"/><circle cx="71.5" cy="128.5" r="18.5" stroke="#fff" stroke-width="2"/><mask id="a" maskUnits="userSpaceOnUse" x="67" y="103" width="9" height="23" fill="#000"><path fill="#fff" d="M67 103h9v23h-9z"/><path fill-rule="evenodd" clip-rule="evenodd" d="M70 122.5V106h3v16.5h-3Z"/></mask><path fill-rule="evenodd" clip-rule="evenodd" d="M70 122.5V106h3v16.5h-3Z" fill="#fff"/><path d="M70 106v-3h-3v3h3Zm0 16.5h-3v3h3v-3Zm3-16.5h3v-3h-3v3Zm0 16.5v3h3v-3h-3ZM67 106v16.5h6V106h-6Zm6-3h-3v6h3v-6Zm3 19.5V106h-6v16.5h6Zm-6 3h3v-6h-3v6Z" fill="#2D2D2D" mask="url(#a)"/><path d="M70 94.5V70a6 6 0 0 1 6-6h47.996a6 6 0 0 1 6 6v69a6 6 0 0 0 6 6h27.08a6 6 0 0 0 6-6V84a6 6 0 0 1 6-6H201" stroke="#2D2D2D"/><path d="M199.77 102.315V40.029s7.463 6.261 30.661 6.261c23.197 0 31.468-6.976 31.468-6.976v63.001s-3.341 7.65-31.468 7.945c-28.128.294-30.661-7.945-30.661-7.945Z" fill="#fff"/><path d="M262.122 38.064c0 1.161-.736 2.355-2.278 3.518-1.534 1.156-3.789 2.22-6.629 3.121-5.674 1.802-13.573 2.924-22.404 2.924s-16.73-1.122-22.405-2.924c-2.84-.902-5.094-1.965-6.628-3.121-1.542-1.163-2.278-2.357-2.278-3.518 0-1.162.736-2.356 2.278-3.518 1.534-1.157 3.788-2.22 6.628-3.122 5.675-1.802 13.574-2.924 22.405-2.924 8.831 0 16.73 1.122 22.404 2.924 2.84.902 5.095 1.965 6.629 3.122 1.542 1.162 2.278 2.356 2.278 3.518Z" fill="#fff" stroke="#ED1C24"/><path d="M199.607 38.603v62.146m62.486-63.058-.072 63.123m-.011-.065c0 5.338-13.969 9.665-31.201 9.665s-31.202-4.327-31.202-9.665m62.403-42.184c0 5.337-13.969 9.665-31.201 9.665s-31.202-4.328-31.202-9.665m62.403 21.237c0 5.338-13.969 9.665-31.201 9.665s-31.202-4.327-31.202-9.665" stroke="#ED1C24"/><path d="M197.5 120 186 131.5m19.5-11.5L194 131.5m19.5-11.5L202 131.5m19.5-11.5L210 131.5m19.5-11.5L218 131.5m19.5-11.5L226 131.5m19.5-11.5L234 131.5m19.5-11.5L242 131.5m19.5-11.5L250 131.5m19.5-11.5L258 131.5" stroke="#6E6E6E"/></svg>