<svg width="153" height="50" fill="none" xmlns="http://www.w3.org/2000/svg"><rect width="153" height="50" rx="10" fill="#fff"/><g clip-path="url(#a)"><path d="M51.303 21.693h-7.406c-2.002-3.768-4.119-6.693-7-6.693-3.75 0-5.514 3.212-7.218 6.337l-.15.273H21v1.857h4.968c1.753 0 2.111.58 2.111.58-1.376 2.096-3.03 4.168-5.787 4.168H21v1.95h1.302c5.345 0 7.68-4.255 9.553-7.673 1.718-3.149 2.916-5.055 5.042-5.055 2.206 0 4.526 4.71 6.567 8.867.298.605.601 1.224.91 1.838-7.83.244-11.56 2.043-14.596 3.51-2.22 1.072-3.974 2.403-6.86 2.403H21v1.95h1.903c3.477 0 5.643-1.053 7.948-2.17 3.194-1.54 6.816-3.285 15.35-3.285h4.934V28.6h-2.787a1.517 1.517 0 0 1-.672-.102 1.491 1.491 0 0 1-.555-.385 87.059 87.059 0 0 1-1.431-2.876l-.646-1.297s.462-.487 1.744-.487h4.515v-1.76Z" fill="#188FFF"/><path d="M60.658 21.678h-5.162v1.823h5.047c2.087 0 3.284.931 3.284 2.599 0 1.579-1.321 2.598-3.363 2.598h-4.968v6.337h1.987V30.5h2.946c2.693 0 5.405-1.38 5.405-4.494-.015-2.632-2.042-4.329-5.176-4.329Zm16.632 7.736c0 2.589-1.322 4.017-3.716 4.017s-3.775-1.496-3.775-4.11v-7.643H67.81v7.736c0 3.603 2.186 5.85 5.708 5.85 3.522 0 5.743-2.228 5.743-5.962v-7.624h-1.987l.015 7.736Zm6.965-7.736h-1.972v13.376h9.369v-1.828h-7.397V21.678ZM98.84 27.43c-2.851-.6-3.373-1.233-3.373-2.31 0-1.078 1.043-1.833 2.534-1.833 1.338.001 2.63.48 3.636 1.345l.199.156 1.172-1.501-.184-.146a7.148 7.148 0 0 0-4.774-1.638c-2.643 0-4.56 1.58-4.56 3.797 0 2.467 1.843 3.369 4.605 3.958 2.762.59 3.224 1.19 3.224 2.253 0 1.15-1.103 1.95-2.688 1.95-1.674 0-2.93-.488-4.341-1.765l-.19-.166-1.236 1.438.179.156a7.987 7.987 0 0 0 5.534 2.125c2.787 0 4.729-1.599 4.729-3.9.005-2.086-1.331-3.25-4.466-3.919Zm11.674-5.844-6.209 13.468h2.056l1.56-3.412h6.836l1.54 3.412h2.131l-6.21-13.468h-1.704Zm-1.793 8.287 2.628-5.753 2.613 5.753h-5.241Zm19.176-.176c2.131-.487 3.388-1.95 3.388-3.953.01-.5-.08-.996-.266-1.462a3.794 3.794 0 0 0-.817-1.249 5.53 5.53 0 0 0-3.91-1.36h-5.897v13.381h1.987v-5.016h3.388l3.811 5.011h2.434l-4.118-5.352Zm-5.534-1.462V23.5h3.81c1.987 0 3.12.839 3.12 2.34 0 1.502-1.232 2.438-3.135 2.438l-3.795-.044Z" fill="#464E56"/></g><defs><clipPath id="a"><path fill="#fff" transform="translate(21 15)" d="M0 0h111v21H0z"/></clipPath></defs></svg>