<svg width="137" height="50" fill="none" xmlns="http://www.w3.org/2000/svg"><rect width="137" height="50" rx="10" fill="#fff"/><path d="M80.285 19.167H80V19h.768v.167h-.284V20h-.199v-.833Zm1.532.043h-.005l-.283.79H81.4l-.28-.79h-.004V20h-.188v-1h.277l.26.708.26-.708H82v1h-.183v-.79ZM23.03 33.99s-1.489.81 1.061 1.083c3.09.33 4.668.283 8.073-.32 0 0 .895.525 2.145.98-7.632 3.057-17.273-.178-11.278-1.743ZM22.099 30s-1.67 1.156.881 1.403c3.3.318 5.907.344 10.416-.468 0 0 .624.591 1.605.915-9.228 2.522-19.505.199-12.902-1.85Z" fill="#5382A1"/><path d="M29.785 22.829c1.946 2.195-.511 4.171-.511 4.171s4.941-2.5 2.672-5.63C29.826 18.451 28.2 17 37 12c0 0-13.812 3.38-7.215 10.829Z" fill="#E76F00"/><path d="M39.61 37.193s1.074.907-1.183 1.608c-4.292 1.33-17.865 1.732-21.636.053-1.355-.604 1.186-1.442 1.986-1.617.834-.186 1.31-.151 1.31-.151-1.507-1.087-9.743 2.134-4.183 3.057 15.162 2.517 27.64-1.134 23.706-2.95ZM23.721 25.376s-6.904 1.678-2.445 2.288c1.883.258 5.636.2 9.132-.1 2.858-.247 5.727-.771 5.727-.771s-1.008.441-1.737.95c-7.01 1.888-20.555 1.01-16.656-.92 3.298-1.632 5.98-1.447 5.98-1.447Zm12.385 7.086c7.127-3.79 3.832-7.434 1.532-6.943-.564.12-.815.224-.815.224s.21-.336.609-.48c4.55-1.638 8.05 4.829-1.47 7.39 0 0 .111-.1.144-.19Z" fill="#5382A1"/><path d="M31.966 4s4.03 3.979-3.823 10.097c-6.297 4.908-1.435 7.706-.002 10.903-3.676-3.273-6.373-6.154-4.563-8.835C26.233 12.228 33.591 10.32 31.965 4Z" fill="#E76F00"/><path d="M24.379 42.867C31.23 43.354 41.75 42.597 42 39c0 0-.479 1.364-5.662 2.447-5.848 1.22-13.06 1.078-17.338.296 0 0 .876.804 5.379 1.124Zm34.568-10.76c-.826.75-1.698 1.17-2.48 1.17-1.117 0-1.72-.7-1.72-1.826 0-1.217.647-2.106 3.24-2.106h.96v2.762Zm2.277 2.691v-8.332c0-2.128-1.159-3.533-3.953-3.533-1.631 0-3.06.422-4.222.96l.335 1.475c.915-.351 2.099-.678 3.26-.678 1.61 0 2.303.678 2.303 2.082v1.053h-.804c-3.91 0-5.675 1.59-5.675 3.977 0 2.06 1.163 3.23 3.352 3.23 1.407 0 2.457-.608 3.44-1.498l.177 1.264h1.787Zm7.601 0h-2.84l-3.419-11.654h2.48l2.122 7.16.472 2.154c1.073-3.114 1.832-6.272 2.212-9.313h2.413c-.647 3.837-1.81 8.049-3.44 11.653Zm10.898-2.691c-.827.75-1.7 1.17-2.483 1.17-1.115 0-1.72-.7-1.72-1.826 0-1.217.648-2.106 3.241-2.106h.962v2.762ZM82 34.798v-8.332c0-2.128-1.162-3.533-3.953-3.533-1.632 0-3.062.422-4.223.96l.335 1.475c.915-.351 2.1-.678 3.262-.678 1.608 0 2.302.678 2.302 2.082v1.053h-.805c-3.912 0-5.676 1.59-5.676 3.977 0 2.06 1.162 3.23 3.35 3.23 1.409 0 2.459-.608 3.442-1.498l.179 1.264H82Zm-32.03 1.98c-.649.992-1.697 1.778-2.846 2.222L46 37.614c.874-.47 1.623-1.228 1.971-1.935.302-.628.426-1.438.426-3.375V19h2.42v13.122c0 2.59-.197 3.635-.846 4.655Z" fill="#5382A1"/><path d="m88.49 31.547 1.452-.2c.04.93.213 1.567.523 1.91.31.343.74.515 1.287.515.404 0 .753-.092 1.046-.274a1.45 1.45 0 0 0 .606-.756c.11-.32.166-.83.166-1.527V22.83h1.61v8.293c0 1.018-.124 1.806-.373 2.365a2.604 2.604 0 0 1-1.17 1.279c-.532.293-1.157.44-1.877.44-1.068 0-1.887-.308-2.457-.922-.564-.614-.835-1.527-.813-2.74ZM97.762 35V22.831h2.424l2.88 8.616c.266.803.459 1.403.581 1.802.138-.443.354-1.093.647-1.951l2.914-8.467h2.167V35h-1.553V24.815L104.286 35h-1.453l-3.519-10.36V35h-1.552Zm13.663-3.91 1.519-.133c.072.61.238 1.11.498 1.503.266.387.675.703 1.228.946.554.238 1.176.357 1.868.357.614 0 1.157-.091 1.627-.274.47-.182.819-.431 1.046-.747a1.75 1.75 0 0 0 .349-1.046c0-.382-.111-.714-.332-.996-.222-.288-.587-.528-1.096-.722-.327-.127-1.049-.324-2.167-.59-1.118-.27-1.901-.525-2.349-.763-.581-.304-1.015-.68-1.303-1.129a2.82 2.82 0 0 1-.423-1.519c0-.614.174-1.187.523-1.718.348-.537.857-.944 1.527-1.22.67-.277 1.414-.416 2.233-.416.902 0 1.696.147 2.382.44.692.288 1.223.714 1.594 1.279.371.564.57 1.203.598 1.917l-1.544.116c-.083-.769-.366-1.35-.847-1.743-.476-.393-1.182-.589-2.117-.589-.974 0-1.685.18-2.133.54-.443.354-.664.783-.664 1.286 0 .437.158.797.473 1.08.31.281 1.118.572 2.424.87 1.311.294 2.211.551 2.698.773.708.326 1.231.741 1.568 1.245.338.498.507 1.073.507 1.727 0 .647-.186 1.258-.556 1.834-.371.57-.905 1.015-1.602 1.336-.692.316-1.472.474-2.341.474-1.101 0-2.026-.161-2.773-.482a3.916 3.916 0 0 1-1.751-1.444 4.144 4.144 0 0 1-.664-2.192Z" fill="#E76F00"/></svg>