<svg width="673" height="441" viewBox="0 0 673 441" fill="none" xmlns="http://www.w3.org/2000/svg">
<path d="M170 169.23L342.919 69.6143C352.49 64.1005 368.008 64.1005 377.579 69.6143L550.497 169.23" stroke="white"/>
<path d="M776.243 105.646H413.676V207.814L413.771 207.814C413.771 225.768 438.796 240.217 488.848 269.114C538.9 298.012 563.926 312.46 595.024 312.46C626.122 312.46 651.148 298.012 701.199 269.114C751.251 240.217 776.277 225.768 776.277 207.814C776.277 207.435 776.265 207.057 776.243 206.681V105.646Z" fill="#0070CC" stroke="white"/>
<path d="M488.848 44.346C538.9 15.4487 563.925 1 595.024 1C626.122 0.999999 651.147 15.4487 701.199 44.346C751.251 73.2433 776.277 87.692 776.277 105.646C776.277 123.601 751.251 138.05 701.199 166.947C651.147 195.844 626.122 210.293 595.024 210.293C563.925 210.293 538.9 195.844 488.848 166.947C438.796 138.05 413.771 123.601 413.771 105.646C413.771 87.692 438.796 73.2433 488.848 44.346Z" fill="#0070CC" stroke="white"/>
<path d="M1.00003 122.324L44.8748 147.656L132.624 198.318L132.624 400.967L44.8748 350.305L1.00003 324.974L1.00003 122.324Z" fill="#0070CC" stroke="white"/>
<rect width="202.649" height="202.649" transform="matrix(0.866025 -0.5 2.20305e-08 1 132.624 198.318)" fill="#0070CC" stroke="white"/>
<path d="M176.499 20.9999L220.374 46.331L308.124 96.9933L132.624 198.318L44.8748 147.656L1.00004 122.324L176.499 20.9999Z" fill="#0070CC" stroke="white"/>
<path fill-rule="evenodd" clip-rule="evenodd" d="M18.078 157.275C17.5997 156.999 17.212 157.222 17.212 157.775V188.199C17.212 188.751 17.5997 189.422 18.078 189.699L24.2319 193.252L37.4058 200.858C37.8841 201.134 38.2719 200.91 38.2719 200.358L38.2719 169.934C38.2719 169.381 37.8841 168.71 37.4058 168.434L24.2319 160.828L18.078 157.275ZM18.078 236.308C17.5997 236.032 17.212 236.256 17.212 236.808L17.212 251.02C17.212 251.572 17.5997 252.244 18.078 252.52L114.626 308.262C115.104 308.538 115.492 308.314 115.492 307.762V293.55C115.492 292.997 115.104 292.326 114.626 292.05L18.078 236.308ZM18.078 264.679C17.5997 264.402 17.212 264.626 17.212 265.179L17.212 279.391C17.212 279.943 17.5997 280.614 18.078 280.891L114.626 336.632C115.104 336.908 115.492 336.685 115.492 336.132V321.92C115.492 321.368 115.104 320.696 114.626 320.42L18.078 264.679ZM17.212 293.55C17.212 292.997 17.5997 292.773 18.078 293.05L114.626 348.791C115.104 349.067 115.492 349.739 115.492 350.291V364.503C115.492 365.056 115.104 365.279 114.626 365.003L18.078 309.262C17.5997 308.985 17.212 308.314 17.212 307.762L17.212 293.55Z" fill="#0070CC"/>
<path d="M18.078 157.275L17.828 157.708H17.828L18.078 157.275ZM18.078 189.699L18.328 189.266H18.328L18.078 189.699ZM24.2319 193.252L23.9819 193.685L24.2319 193.252ZM37.4058 200.858L37.1558 201.291L37.4058 200.858ZM38.2719 200.358H37.7719H38.2719ZM38.2719 169.934H38.7719H38.2719ZM37.4058 168.434L37.1558 168.867L37.4058 168.434ZM24.2319 160.828L24.4819 160.395L24.2319 160.828ZM17.212 236.808H16.712H17.212ZM18.078 236.308L17.828 236.741H17.828L18.078 236.308ZM17.212 251.02H16.712H17.212ZM18.078 252.52L17.828 252.953H17.828L18.078 252.52ZM114.626 308.262L114.376 308.695L114.626 308.262ZM114.626 292.05L114.376 292.483L114.626 292.05ZM17.212 265.179H16.712H17.212ZM18.078 264.679L17.828 265.112H17.828L18.078 264.679ZM17.212 279.391H16.712H17.212ZM18.078 280.891L18.328 280.457H18.328L18.078 280.891ZM114.626 336.632L114.376 337.065L114.626 336.632ZM114.626 320.42L114.876 319.987H114.876L114.626 320.42ZM18.078 293.05L18.328 292.617H18.328L18.078 293.05ZM17.212 293.55H16.712H17.212ZM114.626 348.791L114.376 349.224L114.626 348.791ZM114.626 365.003L114.376 365.436L114.626 365.003ZM18.078 309.262L18.328 308.828H18.328L18.078 309.262ZM17.212 307.762H16.712H17.212ZM17.712 157.775C17.712 157.693 17.7265 157.651 17.7335 157.635C17.7392 157.623 17.7366 157.635 17.7156 157.647C17.6946 157.659 17.683 157.656 17.6966 157.657C17.7132 157.658 17.7574 157.667 17.828 157.708L18.328 156.842C17.9977 156.651 17.5816 156.57 17.2156 156.781C16.8497 156.992 16.712 157.393 16.712 157.775H17.712ZM17.712 188.199V157.775H16.712V188.199H17.712ZM18.328 189.266C18.1827 189.182 18.0231 189.018 17.8986 188.802C17.7742 188.587 17.712 188.366 17.712 188.199H16.712C16.712 188.583 16.8436 188.975 17.0326 189.302C17.2216 189.629 17.4949 189.939 17.828 190.132L18.328 189.266ZM24.4819 192.819L18.328 189.266L17.828 190.132L23.9819 193.685L24.4819 192.819ZM37.6558 200.425L24.4819 192.819L23.9819 193.685L37.1558 201.291L37.6558 200.425ZM37.7719 200.358C37.7719 200.439 37.7574 200.482 37.7504 200.497C37.7446 200.509 37.7473 200.497 37.7682 200.485C37.7892 200.473 37.8008 200.477 37.7872 200.476C37.7707 200.474 37.7264 200.465 37.6558 200.425L37.1558 201.291C37.4861 201.481 37.9023 201.563 38.2682 201.351C38.6342 201.14 38.7719 200.739 38.7719 200.358H37.7719ZM37.7719 169.934L37.7719 200.358H38.7719L38.7719 169.934H37.7719ZM37.1558 168.867C37.3011 168.951 37.4607 169.115 37.5852 169.33C37.7097 169.546 37.7719 169.766 37.7719 169.934H38.7719C38.7719 169.549 38.6402 169.157 38.4512 168.83C38.2623 168.503 37.9889 168.193 37.6558 168.001L37.1558 168.867ZM23.9819 161.261L37.1558 168.867L37.6558 168.001L24.4819 160.395L23.9819 161.261ZM17.828 157.708L23.9819 161.261L24.4819 160.395L18.328 156.842L17.828 157.708ZM17.712 236.808C17.712 236.726 17.7265 236.684 17.7335 236.669C17.7392 236.656 17.7366 236.668 17.7156 236.68C17.6947 236.692 17.683 236.689 17.6966 236.69C17.7132 236.691 17.7574 236.7 17.828 236.741L18.328 235.875C17.9978 235.684 17.5816 235.603 17.2156 235.814C16.8497 236.025 16.712 236.427 16.712 236.808H17.712ZM17.712 251.02L17.712 236.808H16.712L16.712 251.02H17.712ZM18.328 252.087C18.1827 252.003 18.0231 251.839 17.8986 251.623C17.7742 251.408 17.712 251.188 17.712 251.02H16.712C16.712 251.404 16.8436 251.796 17.0326 252.123C17.2216 252.451 17.4949 252.761 17.828 252.953L18.328 252.087ZM114.876 307.829L18.328 252.087L17.828 252.953L114.376 308.695L114.876 307.829ZM114.992 307.762C114.992 307.843 114.977 307.886 114.97 307.901C114.964 307.913 114.967 307.901 114.988 307.889C115.009 307.877 115.021 307.881 115.007 307.88C114.99 307.878 114.946 307.869 114.876 307.829L114.376 308.695C114.706 308.885 115.122 308.966 115.488 308.755C115.854 308.544 115.992 308.143 115.992 307.762H114.992ZM114.992 293.55V307.762H115.992V293.55H114.992ZM114.376 292.483C114.521 292.566 114.68 292.73 114.805 292.946C114.929 293.162 114.992 293.382 114.992 293.55H115.992C115.992 293.165 115.86 292.773 115.671 292.446C115.482 292.119 115.209 291.809 114.876 291.617L114.376 292.483ZM17.828 236.741L114.376 292.483L114.876 291.617L18.328 235.875L17.828 236.741ZM17.712 265.179C17.712 265.097 17.7265 265.054 17.7335 265.039C17.7392 265.027 17.7366 265.039 17.7156 265.051C17.6947 265.063 17.683 265.059 17.6966 265.061C17.7132 265.062 17.7574 265.071 17.828 265.112L18.328 264.246C17.9978 264.055 17.5816 263.974 17.2156 264.185C16.8497 264.396 16.712 264.797 16.712 265.179H17.712ZM17.712 279.391L17.712 265.179H16.712L16.712 279.391H17.712ZM18.328 280.457C18.1827 280.374 18.0231 280.21 17.8986 279.994C17.7742 279.778 17.712 279.558 17.712 279.391H16.712C16.712 279.775 16.8436 280.167 17.0326 280.494C17.2216 280.821 17.495 281.131 17.828 281.324L18.328 280.457ZM114.876 336.199L18.328 280.457L17.828 281.324L114.376 337.065L114.876 336.199ZM114.992 336.132C114.992 336.214 114.977 336.256 114.97 336.272C114.964 336.284 114.967 336.272 114.988 336.26C115.009 336.248 115.021 336.251 115.007 336.25C114.99 336.249 114.946 336.24 114.876 336.199L114.376 337.065C114.706 337.256 115.122 337.337 115.488 337.126C115.854 336.915 115.992 336.514 115.992 336.132H114.992ZM114.992 321.92V336.132H115.992V321.92H114.992ZM114.375 320.853C114.521 320.937 114.68 321.101 114.805 321.317C114.929 321.532 114.992 321.753 114.992 321.92H115.992C115.992 321.536 115.86 321.144 115.671 320.817C115.482 320.489 115.209 320.18 114.876 319.987L114.375 320.853ZM17.828 265.112L114.376 320.853L114.876 319.987L18.328 264.246L17.828 265.112ZM18.328 292.617C17.9978 292.426 17.5816 292.345 17.2156 292.556C16.8497 292.767 16.712 293.168 16.712 293.55H17.712C17.712 293.468 17.7265 293.425 17.7335 293.41C17.7392 293.398 17.7366 293.41 17.7156 293.422C17.6947 293.434 17.683 293.43 17.6966 293.432C17.7132 293.433 17.7574 293.442 17.828 293.483L18.328 292.617ZM114.876 348.358L18.328 292.617L17.828 293.483L114.376 349.224L114.876 348.358ZM115.992 350.291C115.992 349.907 115.86 349.515 115.671 349.188C115.482 348.86 115.209 348.551 114.876 348.358L114.376 349.224C114.521 349.308 114.68 349.472 114.805 349.688C114.929 349.903 114.992 350.124 114.992 350.291H115.992ZM115.992 364.503V350.291H114.992V364.503H115.992ZM114.376 365.436C114.706 365.627 115.122 365.708 115.488 365.497C115.854 365.286 115.992 364.885 115.992 364.503H114.992C114.992 364.585 114.977 364.627 114.97 364.643C114.964 364.655 114.967 364.643 114.988 364.631C115.009 364.619 115.021 364.622 115.007 364.621C114.99 364.62 114.946 364.611 114.876 364.57L114.376 365.436ZM17.828 309.695L114.376 365.436L114.876 364.57L18.328 308.828L17.828 309.695ZM16.712 307.762C16.712 308.146 16.8436 308.538 17.0326 308.865C17.2216 309.192 17.495 309.502 17.828 309.695L18.328 308.828C18.1827 308.745 18.0231 308.581 17.8986 308.365C17.7742 308.149 17.712 307.929 17.712 307.762H16.712ZM16.712 293.55L16.712 307.762H17.712L17.712 293.55H16.712Z" fill="white"/>
<path d="M214 256.324L257.875 281.656L345.624 332.318L345.624 534.967L257.875 484.305L214 458.974L214 256.324Z" fill="#0070CC" stroke="white"/>
<rect width="202.649" height="202.649" transform="matrix(0.866025 -0.5 2.20305e-08 1 345.624 332.318)" fill="#0070CC" stroke="white"/>
<path d="M389.499 155L433.374 180.331L521.124 230.993L345.624 332.318L257.875 281.656L214 256.324L389.499 155Z" fill="#0070CC" stroke="white"/>
<path fill-rule="evenodd" clip-rule="evenodd" d="M231.078 291.275C230.6 290.999 230.212 291.222 230.212 291.775V322.199C230.212 322.751 230.6 323.422 231.078 323.699L237.232 327.252L250.406 334.858C250.884 335.134 251.272 334.91 251.272 334.358L251.272 303.934C251.272 303.381 250.884 302.71 250.406 302.434L237.232 294.828L231.078 291.275ZM231.078 370.308C230.6 370.032 230.212 370.256 230.212 370.808L230.212 385.02C230.212 385.572 230.6 386.244 231.078 386.52L327.626 442.262C328.104 442.538 328.492 442.314 328.492 441.762V427.55C328.492 426.997 328.104 426.326 327.626 426.05L231.078 370.308ZM231.078 398.679C230.6 398.402 230.212 398.626 230.212 399.179L230.212 413.391C230.212 413.943 230.6 414.614 231.078 414.891L327.626 470.632C328.104 470.908 328.492 470.685 328.492 470.132V455.92C328.492 455.368 328.104 454.696 327.626 454.42L231.078 398.679ZM230.212 427.55C230.212 426.997 230.6 426.773 231.078 427.05L327.626 482.791C328.104 483.067 328.492 483.739 328.492 484.291V498.503C328.492 499.056 328.104 499.279 327.626 499.003L231.078 443.262C230.6 442.985 230.212 442.314 230.212 441.762L230.212 427.55Z" fill="#0070CC"/>
<path d="M231.078 291.275L230.828 291.708H230.828L231.078 291.275ZM231.078 323.699L231.328 323.266H231.328L231.078 323.699ZM237.232 327.252L236.982 327.685L237.232 327.252ZM250.406 334.858L250.156 335.291L250.406 334.858ZM251.272 334.358H250.772H251.272ZM251.272 303.934H251.772H251.272ZM250.406 302.434L250.156 302.867L250.406 302.434ZM237.232 294.828L237.482 294.395L237.232 294.828ZM230.212 370.808H229.712H230.212ZM231.078 370.308L230.828 370.741H230.828L231.078 370.308ZM230.212 385.02H229.712H230.212ZM231.078 386.52L231.328 386.087H231.328L231.078 386.52ZM327.626 442.262L327.376 442.695L327.626 442.262ZM327.626 426.05L327.376 426.483L327.626 426.05ZM230.212 399.179H229.712H230.212ZM231.078 398.679L230.828 399.112H230.828L231.078 398.679ZM230.212 413.391H229.712H230.212ZM231.078 414.891L230.828 415.324H230.828L231.078 414.891ZM327.626 470.632L327.376 471.065L327.626 470.632ZM327.626 454.42L327.876 453.987H327.876L327.626 454.42ZM231.078 427.05L231.328 426.617H231.328L231.078 427.05ZM230.212 427.55H229.712H230.212ZM327.626 482.791L327.876 482.358H327.876L327.626 482.791ZM327.626 499.003L327.376 499.436L327.626 499.003ZM231.078 443.262L231.328 442.828H231.328L231.078 443.262ZM230.212 441.762H229.712H230.212ZM230.712 291.775C230.712 291.693 230.726 291.651 230.733 291.635C230.739 291.623 230.737 291.635 230.716 291.647C230.695 291.659 230.683 291.656 230.697 291.657C230.713 291.658 230.757 291.667 230.828 291.708L231.328 290.842C230.998 290.651 230.582 290.57 230.216 290.781C229.85 290.992 229.712 291.393 229.712 291.775H230.712ZM230.712 322.199V291.775H229.712V322.199H230.712ZM231.328 323.266C231.183 323.182 231.023 323.018 230.899 322.802C230.774 322.587 230.712 322.366 230.712 322.199H229.712C229.712 322.583 229.844 322.975 230.033 323.302C230.222 323.629 230.495 323.939 230.828 324.132L231.328 323.266ZM237.482 326.819L231.328 323.266L230.828 324.132L236.982 327.685L237.482 326.819ZM250.656 334.425L237.482 326.819L236.982 327.685L250.156 335.291L250.656 334.425ZM250.772 334.358C250.772 334.439 250.757 334.482 250.75 334.497C250.745 334.509 250.747 334.497 250.768 334.485C250.789 334.473 250.801 334.477 250.787 334.476C250.771 334.474 250.726 334.465 250.656 334.425L250.156 335.291C250.486 335.481 250.902 335.563 251.268 335.351C251.634 335.14 251.772 334.739 251.772 334.358H250.772ZM250.772 303.934L250.772 334.358H251.772L251.772 303.934H250.772ZM250.156 302.867C250.301 302.951 250.461 303.115 250.585 303.33C250.71 303.546 250.772 303.766 250.772 303.934H251.772C251.772 303.549 251.64 303.157 251.451 302.83C251.262 302.503 250.989 302.193 250.656 302.001L250.156 302.867ZM236.982 295.261L250.156 302.867L250.656 302.001L237.482 294.395L236.982 295.261ZM230.828 291.708L236.982 295.261L237.482 294.395L231.328 290.842L230.828 291.708ZM230.712 370.808C230.712 370.726 230.726 370.684 230.734 370.669C230.739 370.656 230.737 370.668 230.716 370.68C230.695 370.692 230.683 370.689 230.697 370.69C230.713 370.691 230.757 370.7 230.828 370.741L231.328 369.875C230.998 369.684 230.582 369.603 230.216 369.814C229.85 370.025 229.712 370.427 229.712 370.808H230.712ZM230.712 385.02L230.712 370.808H229.712L229.712 385.02H230.712ZM231.328 386.087C231.183 386.003 231.023 385.839 230.899 385.623C230.774 385.408 230.712 385.188 230.712 385.02H229.712C229.712 385.404 229.844 385.796 230.033 386.123C230.222 386.451 230.495 386.761 230.828 386.953L231.328 386.087ZM327.876 441.829L231.328 386.087L230.828 386.953L327.376 442.695L327.876 441.829ZM327.992 441.762C327.992 441.843 327.977 441.886 327.97 441.901C327.964 441.913 327.967 441.901 327.988 441.889C328.009 441.877 328.021 441.881 328.007 441.88C327.99 441.878 327.946 441.869 327.876 441.829L327.376 442.695C327.706 442.885 328.122 442.966 328.488 442.755C328.854 442.544 328.992 442.143 328.992 441.762H327.992ZM327.992 427.55V441.762H328.992V427.55H327.992ZM327.376 426.483C327.521 426.566 327.68 426.73 327.805 426.946C327.929 427.162 327.992 427.382 327.992 427.55H328.992C328.992 427.165 328.86 426.773 328.671 426.446C328.482 426.119 328.209 425.809 327.876 425.617L327.376 426.483ZM230.828 370.741L327.376 426.483L327.876 425.617L231.328 369.875L230.828 370.741ZM230.712 399.179C230.712 399.097 230.726 399.054 230.734 399.039C230.739 399.027 230.737 399.039 230.716 399.051C230.695 399.063 230.683 399.059 230.697 399.061C230.713 399.062 230.757 399.071 230.828 399.112L231.328 398.246C230.998 398.055 230.582 397.974 230.216 398.185C229.85 398.396 229.712 398.797 229.712 399.179H230.712ZM230.712 413.391L230.712 399.179H229.712L229.712 413.391H230.712ZM231.328 414.458C231.183 414.374 231.023 414.21 230.899 413.994C230.774 413.778 230.712 413.558 230.712 413.391H229.712C229.712 413.775 229.844 414.167 230.033 414.494C230.222 414.821 230.495 415.131 230.828 415.324L231.328 414.458ZM327.876 470.199L231.328 414.458L230.828 415.324L327.376 471.065L327.876 470.199ZM327.992 470.132C327.992 470.214 327.977 470.256 327.97 470.272C327.964 470.284 327.967 470.272 327.988 470.26C328.009 470.248 328.021 470.251 328.007 470.25C327.99 470.249 327.946 470.24 327.876 470.199L327.376 471.065C327.706 471.256 328.122 471.337 328.488 471.126C328.854 470.915 328.992 470.514 328.992 470.132H327.992ZM327.992 455.92V470.132H328.992V455.92H327.992ZM327.376 454.853C327.521 454.937 327.68 455.101 327.805 455.317C327.929 455.532 327.992 455.753 327.992 455.92H328.992C328.992 455.536 328.86 455.144 328.671 454.817C328.482 454.489 328.209 454.18 327.876 453.987L327.376 454.853ZM230.828 399.112L327.376 454.853L327.876 453.987L231.328 398.246L230.828 399.112ZM231.328 426.617C230.998 426.426 230.582 426.345 230.216 426.556C229.85 426.767 229.712 427.168 229.712 427.55H230.712C230.712 427.468 230.726 427.425 230.734 427.41C230.739 427.398 230.737 427.41 230.716 427.422C230.695 427.434 230.683 427.43 230.697 427.432C230.713 427.433 230.757 427.442 230.828 427.483L231.328 426.617ZM327.876 482.358L231.328 426.617L230.828 427.483L327.376 483.224L327.876 482.358ZM328.992 484.291C328.992 483.907 328.86 483.515 328.671 483.188C328.482 482.86 328.209 482.551 327.876 482.358L327.376 483.224C327.521 483.308 327.68 483.472 327.805 483.688C327.929 483.903 327.992 484.124 327.992 484.291H328.992ZM328.992 498.503V484.291H327.992V498.503H328.992ZM327.376 499.436C327.706 499.627 328.122 499.708 328.488 499.497C328.854 499.286 328.992 498.885 328.992 498.503H327.992C327.992 498.585 327.977 498.627 327.97 498.643C327.964 498.655 327.967 498.643 327.988 498.631C328.009 498.619 328.021 498.622 328.007 498.621C327.99 498.62 327.946 498.611 327.876 498.57L327.376 499.436ZM230.828 443.695L327.376 499.436L327.876 498.57L231.328 442.828L230.828 443.695ZM229.712 441.762C229.712 442.146 229.844 442.538 230.033 442.865C230.222 443.192 230.495 443.502 230.828 443.695L231.328 442.828C231.183 442.745 231.023 442.581 230.899 442.365C230.774 442.149 230.712 441.929 230.712 441.762H229.712ZM229.712 427.55L229.712 441.762H230.712L230.712 427.55H229.712Z" fill="white"/>
<path d="M451 396.324L494.875 421.656L582.624 472.318L582.624 674.967L494.875 624.305L451 598.974L451 396.324Z" fill="#0070CC" stroke="white"/>
<rect width="202.649" height="202.649" transform="matrix(0.866025 -0.5 2.20305e-08 1 582.624 472.318)" fill="#0070CC" stroke="white"/>
<path d="M626.499 295L670.374 320.331L758.124 370.993L582.624 472.318L494.875 421.656L451 396.324L626.499 295Z" fill="#0070CC" stroke="white"/>
<path fill-rule="evenodd" clip-rule="evenodd" d="M468.078 431.275C467.6 430.999 467.212 431.222 467.212 431.775V462.199C467.212 462.751 467.6 463.422 468.078 463.699L474.232 467.252L487.406 474.858C487.884 475.134 488.272 474.91 488.272 474.358L488.272 443.934C488.272 443.381 487.884 442.71 487.406 442.434L474.232 434.828L468.078 431.275ZM468.078 510.308C467.6 510.032 467.212 510.256 467.212 510.808L467.212 525.02C467.212 525.572 467.6 526.244 468.078 526.52L564.626 582.262C565.104 582.538 565.492 582.314 565.492 581.762V567.55C565.492 566.997 565.104 566.326 564.626 566.05L468.078 510.308ZM468.078 538.679C467.6 538.402 467.212 538.626 467.212 539.179L467.212 553.391C467.212 553.943 467.6 554.614 468.078 554.891L564.626 610.632C565.104 610.908 565.492 610.685 565.492 610.132V595.92C565.492 595.368 565.104 594.696 564.626 594.42L468.078 538.679ZM467.212 567.55C467.212 566.997 467.6 566.773 468.078 567.05L564.626 622.791C565.104 623.067 565.492 623.739 565.492 624.291V638.503C565.492 639.056 565.104 639.279 564.626 639.003L468.078 583.262C467.6 582.985 467.212 582.314 467.212 581.762L467.212 567.55Z" fill="#0070CC"/>
<path d="M468.078 431.275L467.828 431.708H467.828L468.078 431.275ZM468.078 463.699L468.328 463.266H468.328L468.078 463.699ZM474.232 467.252L473.982 467.685L474.232 467.252ZM487.406 474.858L487.156 475.291L487.406 474.858ZM488.272 474.358H487.772H488.272ZM488.272 443.934H488.772H488.272ZM487.406 442.434L487.156 442.867L487.406 442.434ZM474.232 434.828L474.482 434.395L474.232 434.828ZM467.212 510.808H466.712H467.212ZM468.078 510.308L467.828 510.741H467.828L468.078 510.308ZM467.212 525.02H466.712H467.212ZM468.078 526.52L468.328 526.087H468.328L468.078 526.52ZM564.626 582.262L564.376 582.695L564.626 582.262ZM564.626 566.05L564.376 566.483L564.626 566.05ZM467.212 539.179H466.712H467.212ZM468.078 538.679L467.828 539.112H467.828L468.078 538.679ZM467.212 553.391H466.712H467.212ZM468.078 554.891L467.828 555.324H467.828L468.078 554.891ZM564.626 610.632L564.376 611.065L564.626 610.632ZM564.626 594.42L564.876 593.987H564.876L564.626 594.42ZM468.078 567.05L468.328 566.617H468.328L468.078 567.05ZM467.212 567.55H466.712H467.212ZM564.626 622.791L564.876 622.358H564.876L564.626 622.791ZM564.626 639.003L564.376 639.436L564.626 639.003ZM468.078 583.262L468.328 582.828H468.328L468.078 583.262ZM467.212 581.762H466.712H467.212ZM467.712 431.775C467.712 431.693 467.726 431.651 467.733 431.635C467.739 431.623 467.737 431.635 467.716 431.647C467.695 431.659 467.683 431.656 467.697 431.657C467.713 431.658 467.757 431.667 467.828 431.708L468.328 430.842C467.998 430.651 467.582 430.57 467.216 430.781C466.85 430.992 466.712 431.393 466.712 431.775H467.712ZM467.712 462.199V431.775H466.712V462.199H467.712ZM468.328 463.266C468.183 463.182 468.023 463.018 467.899 462.802C467.774 462.587 467.712 462.366 467.712 462.199H466.712C466.712 462.583 466.844 462.975 467.033 463.302C467.222 463.629 467.495 463.939 467.828 464.132L468.328 463.266ZM474.482 466.819L468.328 463.266L467.828 464.132L473.982 467.685L474.482 466.819ZM487.656 474.425L474.482 466.819L473.982 467.685L487.156 475.291L487.656 474.425ZM487.772 474.358C487.772 474.439 487.757 474.482 487.75 474.497C487.745 474.509 487.747 474.497 487.768 474.485C487.789 474.473 487.801 474.477 487.787 474.476C487.771 474.474 487.726 474.465 487.656 474.425L487.156 475.291C487.486 475.481 487.902 475.563 488.268 475.351C488.634 475.14 488.772 474.739 488.772 474.358H487.772ZM487.772 443.934L487.772 474.358H488.772L488.772 443.934H487.772ZM487.156 442.867C487.301 442.951 487.461 443.115 487.585 443.33C487.71 443.546 487.772 443.766 487.772 443.934H488.772C488.772 443.549 488.64 443.157 488.451 442.83C488.262 442.503 487.989 442.193 487.656 442.001L487.156 442.867ZM473.982 435.261L487.156 442.867L487.656 442.001L474.482 434.395L473.982 435.261ZM467.828 431.708L473.982 435.261L474.482 434.395L468.328 430.842L467.828 431.708ZM467.712 510.808C467.712 510.726 467.726 510.684 467.734 510.669C467.739 510.656 467.737 510.668 467.716 510.68C467.695 510.692 467.683 510.689 467.697 510.69C467.713 510.691 467.757 510.7 467.828 510.741L468.328 509.875C467.998 509.684 467.582 509.603 467.216 509.814C466.85 510.025 466.712 510.427 466.712 510.808H467.712ZM467.712 525.02L467.712 510.808H466.712L466.712 525.02H467.712ZM468.328 526.087C468.183 526.003 468.023 525.839 467.899 525.623C467.774 525.408 467.712 525.188 467.712 525.02H466.712C466.712 525.404 466.844 525.796 467.033 526.123C467.222 526.451 467.495 526.761 467.828 526.953L468.328 526.087ZM564.876 581.829L468.328 526.087L467.828 526.953L564.376 582.695L564.876 581.829ZM564.992 581.762C564.992 581.843 564.977 581.886 564.97 581.901C564.964 581.913 564.967 581.901 564.988 581.889C565.009 581.877 565.021 581.881 565.007 581.88C564.99 581.878 564.946 581.869 564.876 581.829L564.376 582.695C564.706 582.885 565.122 582.966 565.488 582.755C565.854 582.544 565.992 582.143 565.992 581.762H564.992ZM564.992 567.55V581.762H565.992V567.55H564.992ZM564.376 566.483C564.521 566.566 564.68 566.73 564.805 566.946C564.929 567.162 564.992 567.382 564.992 567.55H565.992C565.992 567.165 565.86 566.773 565.671 566.446C565.482 566.119 565.209 565.809 564.876 565.617L564.376 566.483ZM467.828 510.741L564.376 566.483L564.876 565.617L468.328 509.875L467.828 510.741ZM467.712 539.179C467.712 539.097 467.726 539.054 467.734 539.039C467.739 539.027 467.737 539.039 467.716 539.051C467.695 539.063 467.683 539.059 467.697 539.061C467.713 539.062 467.757 539.071 467.828 539.112L468.328 538.246C467.998 538.055 467.582 537.974 467.216 538.185C466.85 538.396 466.712 538.797 466.712 539.179H467.712ZM467.712 553.391L467.712 539.179H466.712L466.712 553.391H467.712ZM468.328 554.458C468.183 554.374 468.023 554.21 467.899 553.994C467.774 553.778 467.712 553.558 467.712 553.391H466.712C466.712 553.775 466.844 554.167 467.033 554.494C467.222 554.821 467.495 555.131 467.828 555.324L468.328 554.458ZM564.876 610.199L468.328 554.458L467.828 555.324L564.376 611.065L564.876 610.199ZM564.992 610.132C564.992 610.214 564.977 610.256 564.97 610.272C564.964 610.284 564.967 610.272 564.988 610.26C565.009 610.248 565.021 610.251 565.007 610.25C564.99 610.249 564.946 610.24 564.876 610.199L564.376 611.065C564.706 611.256 565.122 611.337 565.488 611.126C565.854 610.915 565.992 610.514 565.992 610.132H564.992ZM564.992 595.92V610.132H565.992V595.92H564.992ZM564.376 594.853C564.521 594.937 564.68 595.101 564.805 595.317C564.929 595.532 564.992 595.753 564.992 595.92H565.992C565.992 595.536 565.86 595.144 565.671 594.817C565.482 594.489 565.209 594.18 564.876 593.987L564.376 594.853ZM467.828 539.112L564.376 594.853L564.876 593.987L468.328 538.246L467.828 539.112ZM468.328 566.617C467.998 566.426 467.582 566.345 467.216 566.556C466.85 566.767 466.712 567.168 466.712 567.55H467.712C467.712 567.468 467.726 567.425 467.734 567.41C467.739 567.398 467.737 567.41 467.716 567.422C467.695 567.434 467.683 567.43 467.697 567.432C467.713 567.433 467.757 567.442 467.828 567.483L468.328 566.617ZM564.876 622.358L468.328 566.617L467.828 567.483L564.376 623.224L564.876 622.358ZM565.992 624.291C565.992 623.907 565.86 623.515 565.671 623.188C565.482 622.86 565.209 622.551 564.876 622.358L564.376 623.224C564.521 623.308 564.68 623.472 564.805 623.688C564.929 623.903 564.992 624.124 564.992 624.291H565.992ZM565.992 638.503V624.291H564.992V638.503H565.992ZM564.376 639.436C564.706 639.627 565.122 639.708 565.488 639.497C565.854 639.286 565.992 638.885 565.992 638.503H564.992C564.992 638.585 564.977 638.627 564.97 638.643C564.964 638.655 564.967 638.643 564.988 638.631C565.009 638.619 565.021 638.622 565.007 638.621C564.99 638.62 564.946 638.611 564.876 638.57L564.376 639.436ZM467.828 583.695L564.376 639.436L564.876 638.57L468.328 582.828L467.828 583.695ZM466.712 581.762C466.712 582.146 466.844 582.538 467.033 582.865C467.222 583.192 467.495 583.502 467.828 583.695L468.328 582.828C468.183 582.745 468.023 582.581 467.899 582.365C467.774 582.149 467.712 581.929 467.712 581.762H466.712ZM466.712 567.55L466.712 581.762H467.712L467.712 567.55H466.712Z" fill="white"/>
<path d="M697.356 110.344C691.365 116.335 679.03 118.303 663.631 116.404C648.29 114.513 630.145 108.802 612.855 99.7061C595.566 90.6098 582.449 79.8721 575.206 69.8815C567.936 59.8537 566.685 50.7377 572.676 44.7469C578.667 38.756 591.002 36.788 606.401 38.6867C621.743 40.5783 639.887 46.2885 657.177 55.3848C674.466 64.4811 687.583 75.2189 694.826 85.2095C702.096 95.2372 703.347 104.353 697.356 110.344Z" stroke="white"/>
<path d="M665.766 131.404C659.775 137.395 647.44 139.363 632.041 137.465C616.699 135.573 598.554 129.863 581.265 120.766C563.976 111.67 550.858 100.932 543.616 90.9418C536.346 80.914 535.095 71.798 541.086 65.8072C547.077 59.8163 559.412 57.8483 574.81 59.747C590.152 61.6387 608.297 67.3488 625.586 76.4451C642.876 85.5414 655.993 96.2792 663.236 106.27C670.505 116.298 671.756 125.414 665.766 131.404Z" stroke="white"/>
<path d="M620.636 155.473C614.646 161.464 602.31 163.432 586.912 161.534C571.57 159.642 553.425 153.932 536.136 144.835C518.847 135.739 505.729 125.001 498.486 115.011C491.217 104.983 489.966 95.867 495.957 89.8762C501.947 83.8853 514.282 81.9173 529.681 83.816C545.023 85.7076 563.168 91.4178 580.457 100.514C597.746 109.61 610.864 120.348 618.107 130.339C625.376 140.367 626.627 149.482 620.636 155.473Z" stroke="white"/>
</svg>
