<svg width="49" height="49" viewBox="0 0 49 49" fill="none" xmlns="http://www.w3.org/2000/svg">
<path fill-rule="evenodd" clip-rule="evenodd" d="M0.980314 48.9219C0.452055 48.9171 0.0227507 48.4865 0.0214355 47.9602L3.02869e-06 39.3835C-0.00131214 38.8571 0.42586 38.4344 0.954119 38.4392C1.48238 38.444 1.91168 38.8745 1.913 39.4008L1.92868 45.6769L7.58169 40.6013C7.71888 40.9786 8.21229 41.8895 8.83477 42.2109L3.28474 47.0369L9.58403 47.0941C10.1123 47.0989 10.5416 47.5294 10.5429 48.0557C10.5442 48.582 10.117 49.0048 9.58879 49L0.980314 48.9219Z" fill="#ED1C24"/>
<path fill-rule="evenodd" clip-rule="evenodd" d="M47.1195 48.9218C47.6478 48.9171 48.0771 48.4865 48.0784 47.9602L48.0998 39.3834C48.1011 38.8571 47.674 38.4344 47.1457 38.4392C46.6174 38.444 46.1881 38.8745 46.1868 39.4008L46.1711 45.6769L40.5181 40.6013C40.3809 40.9786 39.8875 41.8895 39.2651 42.2109L44.8151 47.0369L38.5158 47.0941C37.9875 47.0989 37.5582 47.5294 37.5569 48.0557C37.5556 48.582 37.9828 49.0048 38.511 49L47.1195 48.9218Z" fill="#ED1C24"/>
<path fill-rule="evenodd" clip-rule="evenodd" d="M47.1195 1.01535C47.6478 1.02014 48.0771 1.45069 48.0784 1.977L48.0998 10.5538C48.1011 11.0801 47.674 11.5028 47.1457 11.498C46.6174 11.4932 46.1881 11.0627 46.1868 10.5364L46.1711 4.26032L40.5181 9.33587C40.3809 8.95861 39.8875 8.04771 39.2651 7.72632L44.8151 2.90033L38.5158 2.84314C37.9875 2.83835 37.5582 2.4078 37.5569 1.88149C37.5556 1.35518 37.9828 0.932404 38.511 0.9372L47.1195 1.01535Z" fill="#ED1C24"/>
<path fill-rule="evenodd" clip-rule="evenodd" d="M1.00175 1.06266C0.473489 1.06746 0.0441817 1.498 0.0428665 2.02431L0.0214355 10.6011C0.0201203 11.1274 0.447293 11.5501 0.975552 11.5453C1.50381 11.5406 1.93311 11.11 1.93443 10.5837L1.95011 4.30763L7.60312 9.38318C7.74031 9.00592 8.23372 8.09502 8.8562 7.77363L3.30617 2.94764L9.60546 2.89046C10.1337 2.88566 10.563 2.45511 10.5643 1.9288C10.5657 1.40249 10.1385 0.979716 9.61022 0.984512L1.00175 1.06266Z" fill="#ED1C24"/>
<path d="M9.87402 40.4654V12.0982C9.87402 12.0982 13.3465 15.8684 24.0451 15.8684C34.7437 15.8684 38.5277 11.8057 38.5277 11.8057V40.4654C27.3377 44.0622 21.064 44.1769 9.87402 40.4654Z" fill="white"/>
<path d="M39.3911 10.6563C39.3911 13.6932 32.5944 16.1551 24.0313 16.1551C15.4683 16.1551 8.67151 13.6932 8.67151 10.6563C8.67151 7.61944 15.4683 5.15756 24.0313 5.15756C32.5944 5.15756 39.3911 7.61944 39.3911 10.6563Z" fill="white"/>
<path fill-rule="evenodd" clip-rule="evenodd" d="M37.4668 10.6563C37.4669 10.6481 37.467 10.5996 37.407 10.4938C37.3401 10.3759 37.2035 10.1977 36.9436 9.97653C36.412 9.5239 35.5275 9.02882 34.2617 8.57503C31.7462 7.67325 28.1285 7.07756 23.9969 7.07756C19.8652 7.07756 16.2476 7.67325 13.7321 8.57503C12.4662 9.02882 11.5818 9.5239 11.0501 9.97653C10.7903 10.1977 10.6536 10.3759 10.5868 10.4938C10.5268 10.5996 10.5269 10.6478 10.5269 10.6559C10.5269 10.6641 10.5268 10.713 10.5868 10.8189C10.6536 10.9368 10.7903 11.1149 11.0501 11.3361C11.5818 11.7888 12.4662 12.2838 13.7321 12.7376C16.2476 13.6394 19.8652 14.2351 23.9969 14.2351C28.1285 14.2351 31.7462 13.6394 34.2617 12.7376C35.5275 12.2838 36.412 11.7888 36.9436 11.3361C37.2035 11.1149 37.3401 10.9368 37.407 10.8189C37.467 10.713 37.4669 10.6645 37.4668 10.6563ZM23.9969 16.1551C32.5791 16.1551 39.3911 13.6932 39.3911 10.6563C39.3911 7.61944 32.5791 5.15756 23.9969 5.15756C15.4146 5.15756 8.6026 7.61944 8.6026 10.6563C8.6026 13.6932 15.4146 16.1551 23.9969 16.1551Z" fill="black"/>
<path fill-rule="evenodd" clip-rule="evenodd" d="M8.70151 38.578L8.6026 10.3326L10.5226 10.3242L10.6215 38.5696L8.70151 38.578Z" fill="black"/>
<path fill-rule="evenodd" clip-rule="evenodd" d="M37.4864 38.6225L37.4864 10.518L39.3975 10.518L39.3975 38.6225L37.4864 38.6225Z" fill="black"/>
<path fill-rule="evenodd" clip-rule="evenodd" d="M14.2124 41.4233C16.685 42.3377 20.1646 42.9225 24.0546 42.9225C27.9447 42.9225 31.4242 42.3377 33.8968 41.4233C35.1369 40.9646 36.0735 40.4414 36.6824 39.9089C37.2936 39.3745 37.4848 38.9164 37.4848 38.5618H39.3975C39.3975 39.6764 38.7835 40.618 37.9387 41.3567C37.0917 42.0973 35.9214 42.7206 34.558 43.2249C31.8237 44.2361 28.1101 44.8425 24.0546 44.8425C19.9992 44.8425 16.2855 44.2361 13.5512 43.2249C12.1878 42.7206 11.0176 42.0973 10.1706 41.3567C9.32576 40.618 8.71179 39.6764 8.71179 38.5618H10.6244C10.6244 38.9164 10.8156 39.3745 11.4268 39.9089C12.0358 40.4414 12.9724 40.9646 14.2124 41.4233Z" fill="black"/>
<path fill-rule="evenodd" clip-rule="evenodd" d="M14.2124 31.8204C16.685 32.7349 20.1646 33.3196 24.0546 33.3196C27.9447 33.3196 31.4242 32.7349 33.8968 31.8204C35.1369 31.3618 36.0735 30.8386 36.6824 30.3061C37.2936 29.7717 37.4848 29.3136 37.4848 28.959H39.3975C39.3975 30.0735 38.7835 31.0152 37.9387 31.7539C37.0917 32.4945 35.9214 33.1178 34.558 33.6221C31.8237 34.6333 28.1101 35.2396 24.0546 35.2396C19.9992 35.2396 16.2855 34.6333 13.5512 33.6221C12.1878 33.1178 11.0176 32.4945 10.1706 31.7539C9.32576 31.0152 8.71179 30.0735 8.71179 28.959H10.6244C10.6244 29.3136 10.8156 29.7717 11.4268 30.3061C12.0358 30.8386 12.9724 31.3618 14.2124 31.8204Z" fill="black"/>
<path fill-rule="evenodd" clip-rule="evenodd" d="M14.2113 22.2175C16.6834 23.132 20.1622 23.7167 24.0515 23.7167C27.9407 23.7167 31.4195 23.132 33.8916 22.2175C35.1314 21.7589 36.0678 21.2357 36.6767 20.7032C37.2878 20.1688 37.4789 19.7107 37.4789 19.356H39.3911C39.3911 20.4706 38.7773 21.4123 37.9327 22.151C37.0859 22.8916 35.9158 23.5149 34.5527 24.0191C31.819 25.0304 28.1061 25.6367 24.0515 25.6367C19.9969 25.6367 16.284 25.0304 13.5502 24.0191C12.1871 23.5149 11.0171 22.8916 10.1703 22.151C9.32563 21.4123 8.71179 20.4706 8.71179 19.356H10.6241C10.6241 19.7107 10.8152 20.1688 11.4263 20.7032C12.0351 21.2357 12.9715 21.7589 14.2113 22.2175Z" fill="black"/>
</svg>
