<svg width="31" height="30" viewBox="0 0 31 30" fill="none" xmlns="http://www.w3.org/2000/svg">
<path d="M28.4401 7.89989C27.0988 5.60166 25.2793 3.78214 22.9813 2.44094C20.6829 1.09966 18.1738 0.429199 15.4521 0.429199C12.7308 0.429199 10.2208 1.09987 7.92296 2.44094C5.62473 3.78207 3.80535 5.60166 2.46401 7.89989C1.12287 10.198 0.452271 12.7077 0.452271 15.4287C0.452271 18.6972 1.40588 21.6363 3.31357 24.2468C5.22105 26.8576 7.68524 28.6641 10.7059 29.6666C11.0575 29.7318 11.3178 29.6859 11.4871 29.53C11.6564 29.3739 11.7409 29.1784 11.7409 28.9443C11.7409 28.9053 11.7376 28.5539 11.7311 27.8897C11.7244 27.2255 11.7212 26.6461 11.7212 26.1517L11.272 26.2294C10.9856 26.2819 10.6242 26.3041 10.188 26.2978C9.75198 26.2918 9.29932 26.2461 8.83066 26.1611C8.36179 26.0769 7.92569 25.8816 7.52202 25.5756C7.11855 25.2696 6.83213 24.8691 6.66282 24.3746L6.46751 23.9252C6.33733 23.626 6.13238 23.2936 5.85239 22.9292C5.5724 22.5646 5.28926 22.3173 5.00283 22.1871L4.86608 22.0893C4.77496 22.0242 4.69041 21.9457 4.61222 21.8547C4.5341 21.7636 4.47561 21.6725 4.43655 21.5813C4.39742 21.4899 4.42985 21.415 4.53417 21.3563C4.63849 21.2975 4.82702 21.269 5.10059 21.269L5.49106 21.3273C5.75149 21.3795 6.07362 21.5354 6.45787 21.796C6.84191 22.0563 7.15761 22.3948 7.40504 22.8113C7.70467 23.3453 8.06566 23.7522 8.48903 24.0322C8.91207 24.3122 9.33859 24.4519 9.76819 24.4519C10.1978 24.4519 10.5688 24.4194 10.8815 24.3546C11.1937 24.2895 11.4867 24.1916 11.7603 24.0615C11.8775 23.1887 12.1965 22.5182 12.7172 22.0496C11.9751 21.9716 11.3079 21.8541 10.7153 21.698C10.123 21.5416 9.51098 21.2878 8.87957 20.9359C8.24783 20.5845 7.72375 20.1481 7.30722 19.6275C6.89061 19.1067 6.54871 18.4229 6.28199 17.5767C6.01513 16.7302 5.88167 15.7538 5.88167 14.6471C5.88167 13.0713 6.39609 11.7304 7.42474 10.6235C6.94288 9.43886 6.98837 8.11079 7.56135 6.63947C7.93897 6.52215 8.49895 6.61019 9.24104 6.90305C9.98327 7.19604 10.5267 7.44703 10.8719 7.65512C11.2171 7.86315 11.4936 8.03944 11.702 8.18241C12.9132 7.844 14.1631 7.67476 15.452 7.67476C16.7409 7.67476 17.9911 7.844 19.2023 8.18241L19.9445 7.71388C20.452 7.40126 21.0513 7.11477 21.741 6.85434C22.4311 6.59405 22.9588 6.52236 23.3236 6.63968C23.9093 8.11106 23.9615 9.43906 23.4795 10.6238C24.508 11.7306 25.0227 13.0719 25.0227 14.6473C25.0227 15.754 24.8887 16.7335 24.6223 17.5865C24.3555 18.4396 24.0106 19.1227 23.5876 19.6373C23.1641 20.1518 22.6367 20.5848 22.0053 20.9361C21.3737 21.2877 20.7615 21.5415 20.1692 21.6979C19.5767 21.8543 18.9095 21.9718 18.1674 22.0499C18.8442 22.6356 19.1827 23.5602 19.1827 24.8231V28.9438C19.1827 29.1779 19.2641 29.3733 19.427 29.5295C19.5898 29.6854 19.8468 29.7313 20.1984 29.666C23.2195 28.6636 25.6837 26.857 27.5911 24.2463C29.4983 21.6358 30.4523 18.6966 30.4523 15.4281C30.4516 12.7075 29.7806 10.198 28.4401 7.89989Z" fill="black"/>
</svg>
