<svg width="42" height="42" viewBox="0 0 42 42" fill="none" xmlns="http://www.w3.org/2000/svg">
<path d="M40.32 0H1.68C0.75075 0 0 0.75075 0 1.68V40.32C0 41.2492 0.75075 42 1.68 42H40.32C41.2492 42 42 41.2492 42 40.32V1.68C42 0.75075 41.2492 0 40.32 0ZM12.4582 35.7892H6.2265V15.7447H12.4582V35.7892ZM9.345 13.0043C8.63061 13.0043 7.93227 12.7924 7.33828 12.3955C6.74429 11.9986 6.28133 11.4345 6.00795 10.7745C5.73456 10.1145 5.66303 9.38824 5.8024 8.68758C5.94177 7.98692 6.28578 7.34333 6.79093 6.83818C7.29608 6.33303 7.93967 5.98902 8.64033 5.84965C9.34099 5.71028 10.0672 5.78181 10.7273 6.0552C11.3873 6.32858 11.9514 6.79154 12.3483 7.38553C12.7452 7.97952 12.957 8.67786 12.957 9.39225C12.9517 11.3872 11.3348 13.0043 9.345 13.0043ZM35.7892 35.7892H29.5627V26.04C29.5627 23.7142 29.5208 20.727 26.3235 20.727C23.0843 20.727 22.5855 23.2575 22.5855 25.872V35.7892H16.3643V15.7447H22.3387V18.4853H22.4227C23.2522 16.9102 25.284 15.246 28.3185 15.246C34.629 15.246 35.7892 19.3987 35.7892 24.7957V35.7892Z" fill="black"/>
</svg>
