<svg width="42" height="42" viewBox="0 0 42 42" fill="none" xmlns="http://www.w3.org/2000/svg">
<path d="M40.32 0H1.68C0.75075 0 0 0.75075 0 1.68V40.32C0 41.2492 0.75075 42 1.68 42H40.32C41.2492 42 42 41.2492 42 40.32V1.68C42 0.75075 41.2492 0 40.32 0ZM32.3032 15.2093C32.319 15.456 32.319 15.7133 32.319 15.9653C32.319 23.6722 26.4495 32.55 15.7237 32.55C12.4162 32.55 9.35025 31.5893 6.76725 29.9355C7.23975 29.988 7.69125 30.009 8.17425 30.009C10.9043 30.009 13.4137 29.085 15.414 27.5205C12.852 27.468 10.6995 25.788 9.9645 23.478C10.8622 23.6092 11.6707 23.6092 12.5947 23.373C11.2756 23.105 10.0898 22.3885 9.23904 21.3454C8.38823 20.3022 7.9248 18.9966 7.9275 17.6505V17.577C8.69925 18.0127 9.6075 18.2805 10.5577 18.3172C9.75892 17.7849 9.1038 17.0636 8.65048 16.2174C8.19716 15.3712 7.95965 14.4262 7.959 13.4662C7.959 12.3795 8.2425 11.3872 8.75175 10.5262C10.216 12.3288 12.0431 13.803 14.1144 14.8531C16.1857 15.9032 18.4548 16.5058 20.7743 16.6215C19.95 12.6578 22.911 9.45 26.4705 9.45C28.1505 9.45 29.6625 10.1535 30.7282 11.2875C32.046 11.0407 33.306 10.5472 34.4295 9.88575C33.9937 11.235 33.0802 12.3742 31.8675 13.0935C33.0435 12.9675 34.1775 12.642 35.2275 12.1853C34.4347 13.3507 33.4425 14.385 32.3032 15.2093Z" fill="black"/>
</svg>
