<svg width="23" height="17" viewBox="0 0 23 17" fill="none" xmlns="http://www.w3.org/2000/svg">
<mask id="path-1-inside-1" fill="white">
<path d="M2.74323 4.43066C2.74323 2.77381 4.08637 1.43066 5.74323 1.43066H18.748C20.4048 1.43066 21.748 2.77381 21.748 4.43066V12.8592C21.748 14.5161 20.4048 15.8592 18.748 15.8592H5.74322C4.08637 15.8592 2.74323 14.5161 2.74323 12.8592V4.43066Z"/>
</mask>
<path d="M2.74323 4.43066C2.74323 2.77381 4.08637 1.43066 5.74323 1.43066H18.748C20.4048 1.43066 21.748 2.77381 21.748 4.43066V12.8592C21.748 14.5161 20.4048 15.8592 18.748 15.8592H5.74322C4.08637 15.8592 2.74323 14.5161 2.74323 12.8592V4.43066Z" fill="white"/>
<path d="M5.74323 2.43066H18.748V0.430664H5.74323V2.43066ZM20.748 4.43066V12.8592H22.748V4.43066H20.748ZM18.748 14.8592H5.74322V16.8592H18.748V14.8592ZM3.74323 12.8592V4.43066H1.74323V12.8592H3.74323ZM5.74322 14.8592C4.63865 14.8592 3.74323 13.9638 3.74323 12.8592H1.74323C1.74323 15.0684 3.53408 16.8592 5.74322 16.8592V14.8592ZM20.748 12.8592C20.748 13.9638 19.8525 14.8592 18.748 14.8592V16.8592C20.9571 16.8592 22.748 15.0684 22.748 12.8592H20.748ZM18.748 2.43066C19.8525 2.43066 20.748 3.32609 20.748 4.43066H22.748C22.748 2.22153 20.9571 0.430664 18.748 0.430664V2.43066ZM5.74323 0.430664C3.53409 0.430664 1.74323 2.22152 1.74323 4.43066H3.74323C3.74323 3.32609 4.63865 2.43066 5.74323 2.43066V0.430664Z" fill="#2D2D2D" mask="url(#path-1-inside-1)"/>
<mask id="path-3-inside-2" fill="white">
<path fill-rule="evenodd" clip-rule="evenodd" d="M2.73315 0.220703C1.62858 0.220703 0.733154 1.11614 0.733154 2.22071V7.60002V13.2447V13.9408C0.733154 15.5977 2.0763 16.9408 3.73315 16.9408H19.8152C21.472 16.9408 22.8152 15.5977 22.8152 13.9408V7.60002C22.8152 5.94316 21.472 4.60002 19.8152 4.60002H13.8018L11.6227 1.15219C11.2562 0.572297 10.6181 0.220703 9.93205 0.220703H2.73315Z"/>
</mask>
<path fill-rule="evenodd" clip-rule="evenodd" d="M2.73315 0.220703C1.62858 0.220703 0.733154 1.11614 0.733154 2.22071V7.60002V13.2447V13.9408C0.733154 15.5977 2.0763 16.9408 3.73315 16.9408H19.8152C21.472 16.9408 22.8152 15.5977 22.8152 13.9408V7.60002C22.8152 5.94316 21.472 4.60002 19.8152 4.60002H13.8018L11.6227 1.15219C11.2562 0.572297 10.6181 0.220703 9.93205 0.220703H2.73315Z" fill="white"/>
<path d="M13.8018 4.60002L12.9564 5.13427L13.2508 5.60002H13.8018V4.60002ZM11.6227 1.15219L10.7774 1.68645V1.68645L11.6227 1.15219ZM1.73315 2.22071C1.73315 1.66842 2.18087 1.2207 2.73315 1.2207V-0.779297C1.0763 -0.779297 -0.266846 0.563853 -0.266846 2.22071H1.73315ZM1.73315 7.60002V2.22071H-0.266846V7.60002H1.73315ZM1.73315 13.2447V7.60002H-0.266846V13.2447H1.73315ZM1.73315 13.9408V13.2447H-0.266846V13.9408H1.73315ZM3.73315 15.9408C2.62858 15.9408 1.73315 15.0454 1.73315 13.9408H-0.266846C-0.266846 16.15 1.52401 17.9408 3.73315 17.9408V15.9408ZM19.8152 15.9408H3.73315V17.9408H19.8152V15.9408ZM21.8152 13.9408C21.8152 15.0454 20.9197 15.9408 19.8152 15.9408V17.9408C22.0243 17.9408 23.8152 16.15 23.8152 13.9408H21.8152ZM21.8152 7.60002V13.9408H23.8152V7.60002H21.8152ZM19.8152 5.60002C20.9197 5.60002 21.8152 6.49545 21.8152 7.60002H23.8152C23.8152 5.39088 22.0243 3.60002 19.8152 3.60002V5.60002ZM13.8018 5.60002H19.8152V3.60002H13.8018V5.60002ZM10.7774 1.68645L12.9564 5.13427L14.6471 4.06576L12.468 0.61794L10.7774 1.68645ZM9.93205 1.2207C10.2751 1.2207 10.5941 1.3965 10.7774 1.68645L12.468 0.61794C11.9183 -0.251906 10.9611 -0.779297 9.93205 -0.779297V1.2207ZM2.73315 1.2207H9.93205V-0.779297H2.73315V1.2207Z" fill="#2D2D2D" mask="url(#path-3-inside-2)"/>
</svg>
