<svg width="115" height="48" viewBox="0 0 115 48" fill="none" xmlns="http://www.w3.org/2000/svg">
<path d="M52.546 37.9501V36.6102C51.6125 38.0698 50.3437 39.003 48.7399 39.3619C47.1361 39.7208 45.5561 39.6012 44.0002 38.9791C42.4203 38.3569 41.0797 37.1844 39.9547 35.4855C38.8296 33.7866 38.2551 31.5613 38.2551 28.7856C38.2551 25.5314 38.9971 22.9232 40.4813 20.8893C41.9655 18.8794 44.3592 17.8744 47.6627 17.8744C50.1762 17.8744 52.4982 18.5444 54.6526 19.9083C56.807 21.2722 57.8603 23.7847 57.8603 27.4457V38.5005C57.8603 42.1615 56.7831 44.65 54.6526 45.99C52.4982 47.33 50.1762 48 47.6627 48C42.8512 48 39.8589 45.7507 38.7099 41.2522H44.4311C44.838 41.994 45.4843 42.5444 46.3461 42.9511C47.2079 43.334 48.0696 43.4536 48.9314 43.2622C49.7932 43.0708 50.5831 42.5683 51.2773 41.7308C52.0194 40.8694 52.4263 39.6251 52.546 37.9501ZM43.5932 28.9292C43.5932 32.5424 44.6465 34.5523 46.7291 34.9352C48.8117 35.318 50.3677 34.8395 51.3491 33.4756C51.8279 32.9013 52.163 31.992 52.3785 30.7717C52.5939 29.5513 52.5939 28.331 52.4263 27.1107C52.2348 25.9143 51.804 24.8375 51.1337 23.9043C50.4634 22.9711 49.458 22.4925 48.1414 22.4925C46.37 22.4925 45.1492 23.1386 44.5268 24.4546C43.9044 25.7468 43.5932 27.2542 43.5932 28.9292Z" fill="black"/>
<path d="M77.0344 39.1944H74.2816C73.4916 39.1944 72.8453 38.9551 72.3665 38.4526C71.8638 37.9501 71.6245 37.3041 71.6245 36.5384V25.8664C71.6245 24.6221 71.2414 23.6889 70.4754 23.1147C69.7094 22.5404 68.8716 22.2532 67.9141 22.2532C66.9805 22.2532 66.1427 22.5404 65.4006 23.1147C64.6585 23.6889 64.2994 24.5982 64.2994 25.8664V39.2183H58.7937V26.9671C58.7937 23.4018 59.7273 21.0329 61.5705 19.8365C63.4377 18.6401 65.4724 17.9701 67.7226 17.8744C70.0206 17.8744 72.1511 18.4726 74.0901 19.669C76.029 20.8654 76.9866 23.3061 76.9866 26.9671V39.1944H77.0344Z" fill="black"/>
<path d="M78.3756 20.1476H83.8813C83.8813 23.0668 83.8813 22.0858 83.8813 22.8275V39.2184H78.3756V20.1476Z" fill="black"/>
<path d="M93.9827 39.1944C92.2591 39.2901 90.392 39.2662 88.3812 39.1226C86.3704 38.9551 85.365 37.6869 85.365 35.2702V14.8594H88.1897C88.8599 14.8594 89.4823 15.1226 89.985 15.649C90.5117 16.1755 90.775 16.7976 90.775 17.5394V18.2572H93.9827V19.3579C93.9827 20.1475 93.7193 20.7936 93.1927 21.2722C92.6661 21.7747 92.0437 22.0139 91.3016 22.0139H90.751V33.7627C90.751 34.648 91.2777 35.1027 92.3309 35.1027H93.9827V39.1944Z" fill="black"/>
<path d="M108.968 32.7577H112.894C112.319 34.9591 111.218 36.6341 109.59 37.7826C107.963 38.979 105.928 39.5772 103.462 39.5772C100.47 39.5772 98.1481 38.6201 96.4724 36.6819C94.7968 34.7916 93.9589 32.1116 93.9589 28.5942C93.9589 25.2442 94.7728 22.6361 96.4006 20.7457C98.0763 18.8076 100.398 17.8504 103.39 17.8504C106.526 17.8504 108.968 18.7836 110.692 20.674C112.367 22.6121 113.205 25.2921 113.205 28.7617C113.205 28.977 113.205 29.1445 113.205 29.312C113.205 29.4795 113.205 29.5752 113.205 29.6231C113.205 29.8863 113.181 30.0777 113.133 30.1735H99.5604C99.6083 31.8006 100.015 32.997 100.733 33.7866C101.404 34.6241 102.433 35.0309 103.797 35.0309C104.683 35.0309 105.449 34.8394 106.072 34.4805C106.239 34.4327 106.383 34.337 106.502 34.1934C106.622 34.0737 106.766 33.9302 106.933 33.7627C106.981 33.5952 107.173 33.4038 107.532 33.1405C107.867 32.9013 108.346 32.7577 108.968 32.7577ZM99.5604 26.656H107.58C107.484 25.2442 107.101 24.1914 106.478 23.5214C105.808 22.7796 104.827 22.4207 103.582 22.4207C102.433 22.4207 101.499 22.7796 100.757 23.5214C99.9913 24.2393 99.6083 25.2921 99.5604 26.656Z" fill="black"/>
<path d="M31.5765 10.5523H34.4012C35.1432 10.5523 35.7656 10.8155 36.2923 11.3419C36.8189 11.8684 37.0822 12.4905 37.0822 13.2323V39.2183H31.5765V10.5523Z" fill="black"/>
<path d="M78.3755 14.8594H81.2002C81.9423 14.8594 82.5647 15.1226 83.0913 15.649C83.618 16.1755 83.8813 16.7976 83.8813 17.5394V19.1904H78.3755V14.8594Z" fill="black"/>
<path d="M45.4843 15.1465H44.6226V14.5244C44.1917 15.003 43.5932 15.2423 42.8512 15.2423C42.157 15.2423 41.5585 15.003 41.0558 14.5483C40.5292 14.0458 40.2659 13.4237 40.2659 12.658C40.2659 11.8684 40.5531 11.2223 41.1037 10.7198C41.6064 10.2413 42.2288 10.0259 42.923 10.0259C43.6411 10.0259 44.2156 10.2652 44.6465 10.7677V10.1456H45.5083V15.1465H45.4843ZM44.5986 12.658C44.5986 12.1794 44.4311 11.7727 44.1199 11.4137C43.7847 11.0788 43.4017 10.9113 42.923 10.9113C42.4203 10.9113 42.0133 11.0788 41.6543 11.4377C41.3191 11.7727 41.1516 12.1316 41.1516 12.5144C41.1516 13.0169 41.2952 13.4476 41.6064 13.8066C41.9176 14.1894 42.3245 14.3569 42.8272 14.3569C43.306 14.3569 43.7129 14.1894 44.072 13.8544C44.4311 13.5434 44.5986 13.1366 44.5986 12.658Z" fill="black"/>
<path d="M51.7081 12.5144C51.7081 13.3041 51.4687 13.9501 50.99 14.4526C50.4873 14.979 49.8649 15.2423 49.0749 15.2423C48.3568 15.2423 47.8062 15.003 47.3753 14.5483V16.7976H46.4657V10.1216H47.3275V10.7198C47.5429 10.4805 47.8062 10.313 48.0695 10.1934C48.3568 10.0738 48.6441 10.0259 48.9792 10.0259C49.6734 10.0259 50.2958 10.2652 50.8224 10.7198C51.4209 11.1984 51.7081 11.7966 51.7081 12.5144ZM50.7745 12.6341C50.7745 12.1555 50.607 11.7487 50.2718 11.4137C49.9367 11.0788 49.5058 10.9113 49.0271 10.9113C48.5244 10.9113 48.1174 11.1027 47.7823 11.4616C47.4711 11.7966 47.3275 12.2034 47.3275 12.658C47.3275 13.0887 47.4472 13.4476 47.7105 13.7826C48.0217 14.1655 48.4765 14.3569 49.0749 14.3569C49.5537 14.3569 49.9606 14.1894 50.2958 13.8544C50.6309 13.5434 50.7745 13.1366 50.7745 12.6341Z" fill="black"/>
<path d="M57.7169 15.1465H56.8551V14.5244C56.4242 15.003 55.8258 15.2423 55.0837 15.2423C54.3895 15.2423 53.7911 15.003 53.2884 14.5483C52.7617 14.0458 52.4984 13.4237 52.4984 12.658C52.4984 11.8684 52.7857 11.2223 53.3362 10.7198C53.8389 10.2413 54.4613 10.0259 55.1555 10.0259C55.8737 10.0259 56.4482 10.2652 56.8791 10.7677V10.1456H57.7408V15.1465H57.7169ZM56.8551 12.658C56.8551 12.1794 56.6876 11.7727 56.3764 11.4137C56.0412 11.0788 55.6582 10.9113 55.1795 10.9113C54.6768 10.9113 54.2698 11.0788 53.9108 11.4377C53.5756 11.7727 53.4081 12.1316 53.4081 12.5144C53.4081 13.0169 53.5517 13.4476 53.8629 13.8066C54.1741 14.1894 54.581 14.3569 55.0837 14.3569C55.5625 14.3569 55.9694 14.1894 56.3285 13.8544C56.6636 13.5434 56.8551 13.1366 56.8551 12.658Z" fill="black"/>
<path d="M63.725 13.4955C63.4377 14.0698 63.1026 14.5005 62.7196 14.7876C62.2887 15.0987 61.786 15.2662 61.1636 15.2662C60.4694 15.2662 59.847 15.0269 59.3204 14.5244C58.7698 13.998 58.4825 13.3759 58.4825 12.6102H58.5304C58.5304 12.6102 58.5304 12.6341 58.5065 12.658C58.5065 11.8684 58.7698 11.2223 59.3204 10.7198C59.7991 10.2652 60.3736 10.0259 61.0439 10.0259C61.6663 10.0259 62.1929 10.1934 62.6717 10.5045C63.1265 10.8155 63.4856 11.2702 63.701 11.8445H62.6956C62.3605 11.2462 61.8099 10.9352 61.0678 10.9352C60.5891 10.9352 60.2061 11.1027 59.8949 11.4377C59.5837 11.7727 59.4161 12.1794 59.4161 12.658C59.4161 13.1366 59.5837 13.5673 59.9188 13.9023C60.254 14.2373 60.6609 14.4048 61.1397 14.4048C61.4508 14.4048 61.762 14.333 62.0493 14.1655C62.3366 13.998 62.552 13.7826 62.7196 13.5194H63.725V13.4955Z" fill="black"/>
<path d="M68.9191 15.1465H68.0095V12.2752C68.0095 11.8923 67.8898 11.5573 67.6265 11.318C67.3871 11.0788 67.052 10.9352 66.669 10.9352C66.286 10.9352 65.9748 11.0548 65.7354 11.2702C65.496 11.5095 65.3763 11.7966 65.3763 12.1795V15.1465H64.4667V8.47058H65.3763V10.5523C65.7354 10.1934 66.1663 10.0259 66.6929 10.0259C67.2674 10.0259 67.7701 10.2173 68.201 10.6241C68.6558 11.0548 68.8952 11.6052 68.8952 12.2752V15.1465H68.9191Z" fill="black"/>
<path d="M74.8562 12.993H70.6192C70.691 13.4237 70.9064 13.7587 71.2416 14.0219C71.5528 14.2372 71.8879 14.3569 72.2469 14.3569C72.5821 14.3569 72.8933 14.2612 73.2045 14.0697C73.5157 13.8783 73.7311 13.6151 73.8508 13.304H74.7844C74.545 13.974 74.162 14.4526 73.6593 14.7876C73.2284 15.0747 72.7497 15.2183 72.223 15.2183C71.5528 15.2183 70.9782 14.979 70.4995 14.5005C69.9968 13.974 69.7335 13.3519 69.7335 12.5862C69.7335 11.7966 69.9968 11.1505 70.5474 10.6719C71.0501 10.2173 71.6246 10.002 72.2948 10.002C72.9651 10.002 73.5635 10.2173 74.0423 10.6719C74.5929 11.1744 74.8801 11.8684 74.8801 12.7298V12.993H74.8562ZM73.9226 12.1555C73.8269 11.7726 73.6114 11.4855 73.3002 11.2462C72.989 11.0069 72.6539 10.8873 72.2709 10.8873C71.7921 10.8873 71.3852 11.0548 71.074 11.3659C70.8585 11.5812 70.691 11.8444 70.6192 12.1555H73.9226Z" fill="black"/>
<path d="M7.68626 8.13556C7.68626 8.13556 -8.95063 18.2811 6.72874 28.3549C9.74493 30.317 20.6846 35.7726 20.3734 40.8215C20.3734 40.8215 27.0042 31.0109 17.3093 24.8374C7.35113 18.5204 4.86158 11.7726 7.68626 8.13556Z" fill="#ED1C24"/>
<path d="M1.89333 27.5174C1.89333 27.5174 -4.04328 36.5144 7.63845 38.3569C8.78747 38.5005 17.2376 39.3858 19.4399 42.1615C19.4399 42.1615 19.2484 37.3758 12.3542 34.5523C5.48403 31.7288 2.65935 31.0349 1.89333 27.5174Z" fill="#ED1C24"/>
<path d="M24.8739 18.0658C17.7404 10.6002 15.7535 5.98205 18.8176 0C18.8176 0 -2.46325 8.18344 18.5543 22.7079C26.0708 27.9003 24.826 33.2123 24.826 33.4038C25.999 32.1834 32.0074 25.5314 24.8739 18.0658Z" fill="#ED1C24"/>
<path d="M115 17.8504C115 18.8315 114.234 19.5972 113.229 19.5972C112.223 19.5972 111.433 18.8315 111.433 17.8504C111.433 16.8933 112.223 16.1276 113.229 16.1276C114.234 16.1037 115 16.8933 115 17.8504ZM111.888 17.8504C111.888 18.6161 112.463 19.2383 113.253 19.2383C114.019 19.2383 114.569 18.6161 114.569 17.8744C114.569 17.1087 114.019 16.4865 113.229 16.4865C112.439 16.4626 111.888 17.0847 111.888 17.8504ZM112.941 18.7597H112.534V17.0369C112.702 17.0129 112.917 16.989 113.205 16.989C113.54 16.989 113.683 17.0369 113.803 17.1087C113.899 17.1804 113.971 17.324 113.971 17.4915C113.971 17.6829 113.827 17.8265 113.612 17.8983V17.9222C113.779 17.994 113.875 18.1136 113.923 18.3529C113.971 18.6161 114.019 18.7118 114.042 18.7836H113.612C113.564 18.7118 113.516 18.5683 113.468 18.3529C113.444 18.1615 113.324 18.0897 113.109 18.0897H112.917V18.7597H112.941ZM112.965 17.7786H113.157C113.372 17.7786 113.564 17.7069 113.564 17.5154C113.564 17.3479 113.444 17.2522 113.205 17.2522C113.109 17.2522 113.013 17.2522 112.989 17.2762V17.7786H112.965Z" fill="black"/>
</svg>
