<?xml version="1.0" encoding="utf-8"?>
<!-- Generator: Adobe Illustrator 21.0.2, SVG Export Plug-In . SVG Version: 6.00 Build 0)  -->
<svg version="1.1" id="Icon1" xmlns="http://www.w3.org/2000/svg" xmlns:xlink="http://www.w3.org/1999/xlink" x="0px" y="0px"
	 viewBox="0 0 80 80" style="enable-background:new 0 0 80 80;" xml:space="preserve">
<style type="text/css">
	.st0{fill:#e50000;}
</style>
<g>
	<path class="st0" d="M10.7,26.7v32H8.2c-0.8,0-1.5,0.3-2,0.8s-0.9,1.2-0.9,1.9v0.1h69.3v-0.1c0-0.7-0.3-1.3-0.9-1.9s-1.2-0.8-2-0.8
		h-2.5v-32h-2.7v32H53.3v-32h-2.7v32H29.4v-32h-2.7v32H13.5v-32H10.7z"/>
	<path class="st0" d="M40,0L0,16v5.3h5.3c0,0.7,0.3,1.3,0.9,1.9s1.2,0.8,2,0.8h63.6c0.8,0,1.5-0.3,2-0.8s0.9-1.2,0.9-1.9H80V16L40,0
		z M77.3,18.7l-3.6,0c0,0.6-0.2,1.6-0.7,2c-0.5,0.4-1,0.6-1.6,0.6H9.6c-0.6,0-1.2-0.2-1.6-0.6c-0.5-0.4-0.7-1.5-0.7-2H2.7V17L40,2.7
		L77.3,17V18.7z"/>
	<path class="st0" d="M77.1,64.1H2.9c-0.8,0-1.5,0.3-2,0.8C0.3,65.5,0,66.1,0,66.8l0,0h80l0,0c0-0.7-0.3-1.3-0.9-1.9
		C78.6,64.4,77.9,64.1,77.1,64.1z"/>
</g>
</svg>
