<?xml version="1.0" encoding="utf-8"?>
<!-- Generator: Adobe Illustrator 21.0.2, SVG Export Plug-In . SVG Version: 6.00 Build 0)  -->
<svg version="1.1" id="Icon5" xmlns="http://www.w3.org/2000/svg" xmlns:xlink="http://www.w3.org/1999/xlink" x="0px" y="0px"
	 viewBox="0 0 80 80" style="enable-background:new 0 0 80 80;" xml:space="preserve">
<style type="text/css">
	.st0{fill:#D7D7D7;}
</style>
<path class="st0" d="M61.8,45c-6.4,0-12.1,3.6-14.9,9l-14-7.6c0.4-1.5,0.7-3.1,0.7-4.8c0-2.1-0.4-4.1-1.1-5.9l15.1-8.3
	c3,4.6,8.2,7.7,14.1,7.7c9.3,0,16.8-7.6,16.8-16.8c0-9.3-7.6-16.8-16.8-16.8S45,9,45,18.2c0,2.3,0.5,4.5,1.3,6.4l-15,8.3
	c-2.9-4.9-8.3-8.2-14.4-8.2C7.6,24.7,0,32.3,0,41.6c0,9.3,7.6,16.8,16.8,16.8c6.6,0,12.2-3.8,15-9.3l13.9,7.6
	C45.3,58.3,45,60,45,61.8c0,9.3,7.6,16.8,16.8,16.8s16.8-7.6,16.8-16.8C78.7,52.5,71.1,45,61.8,45z M61.8,4.4
	c7.6,0,13.8,6.2,13.8,13.8c0,7.6-6.2,13.8-13.8,13.8S48,25.9,48,18.2C48,10.6,54.2,4.4,61.8,4.4z M16.8,55.4C9.2,55.4,3,49.2,3,41.6
	c0-7.6,6.2-13.8,13.8-13.8s13.8,6.2,13.8,13.8C30.7,49.2,24.5,55.4,16.8,55.4z M61.8,75.6c-7.6,0-13.8-6.2-13.8-13.8
	C48,54.2,54.2,48,61.8,48s13.8,6.2,13.8,13.8C75.7,69.4,69.5,75.6,61.8,75.6z"/>
</svg>
