<?xml version="1.0" encoding="utf-8"?>
<!-- Generator: Adobe Illustrator 24.0.1, SVG Export Plug-In . SVG Version: 6.00 Build 0)  -->
<svg version="1.1" id="Capa_1" xmlns="http://www.w3.org/2000/svg" xmlns:xlink="http://www.w3.org/1999/xlink" x="0px" y="0px"
	 viewBox="0 0 300 300" style="enable-background:new 0 0 300 300;" xml:space="preserve">
<style type="text/css">
	.st0{fill:#D93846;}
</style>
<g>
	<g>
		<g>
			<path class="st0" d="M150,3.4c-34.3,0-62.1,27.9-62.1,62.1v89.3c0,34.3,27.9,62.1,62.1,62.1s62.1-27.9,62.1-62.1V65.5
				C212.1,31.2,184.3,3.4,150,3.4z M194.9,155c-0.1,24.7-20.2,44.8-44.9,44.8s-44.9-20.1-44.9-44.8l0-89.5
				c0-24.8,20.2-44.9,44.9-44.9s44.9,20.2,44.9,44.9L194.9,155z"/>
		</g>
	</g>
	<g>
		<g>
			<path class="st0" d="M213.8,220.5c14.8-14.7,23.9-33.7,26.1-54.2c0.6-5-3.4-9.5-8.5-9.5h0c-4.4,0-8.1,3.3-8.6,7.7
				c-4.1,36.6-35.3,65.1-72.9,65.1c-37.6,0-68.8-28.6-72.9-65.1c-0.5-4.4-4.2-7.7-8.6-7.7h0c-5.1,0-9.1,4.4-8.5,9.5
				c2.2,20.5,11.3,39.5,26.1,54.2c15,14.9,34.4,24,55.2,25.9v33.1H119c-4.7,0-8.6,3.8-8.6,8.6l0,0c0,4.7,3.8,8.6,8.6,8.6H181
				c4.7,0,8.6-3.8,8.6-8.6l0,0c0-4.7-3.8-8.6-8.6-8.6h-22.4v-33.1C179.4,244.5,198.8,235.4,213.8,220.5z"/>
		</g>
	</g>
	<path class="st0" d="M123.4,164.4H120c-3.8,0-6.9-3.1-6.9-6.9V64.1c0-3.8,3.1-6.9,6.9-6.9h3.4c3.8,0,6.9,3.1,6.9,6.9v93.4
		C130.3,161.3,127.2,164.4,123.4,164.4z"/>
</g>
</svg>
