<?xml version="1.0" encoding="utf-8"?>
<!-- Generator: Adobe Illustrator 21.0.2, SVG Export Plug-In . SVG Version: 6.00 Build 0)  -->
<svg version="1.1" id="Icon1" xmlns="http://www.w3.org/2000/svg" xmlns:xlink="http://www.w3.org/1999/xlink" x="0px" y="0px"
	 viewBox="0 0 80 80" style="enable-background:new 0 0 80 80;" xml:space="preserve">
<style type="text/css">
	.st0{fill:#e50000;}
</style>
<path class="st0" d="M62,22.3h15.2V10.9H62V22.3z M80,10.9v11.4c0,0.8-0.3,1.4-0.8,2s-1.2,0.8-2,0.8H2.9c-0.8,0-1.4-0.3-2-0.8
	S0,23.1,0,22.3V10.9c0-0.8,0.3-1.4,0.8-2S2.1,8,2.9,8h74.3c0.8,0,1.4,0.3,2,0.8S80,10.1,80,10.9z"/>
<path class="st0" d="M28.6,45.2h48.6V33.7H28.6V45.2z M80,33.7v11.4c0,0.8-0.3,1.4-0.8,2s-1.2,0.8-2,0.8H2.9c-0.8,0-1.4-0.3-2-0.8
	S0,45.9,0,45.1V33.7c0-0.8,0.3-1.4,0.8-2s1.2-0.8,2-0.8h74.3c0.8,0,1.4,0.3,2,0.8S80,32.9,80,33.7z"/>
<path class="st0" d="M45.7,68h31.4V56.6H45.7V68z M80,56.6V68c0,0.8-0.3,1.4-0.8,2s-1.2,0.8-2,0.8H2.9c-0.8,0-1.4-0.3-2-0.8
	S0,68.8,0,68V56.6c0-0.8,0.3-1.4,0.8-2s1.2-0.8,2-0.8h74.3c0.8,0,1.4,0.3,2,0.8S80,55.8,80,56.6z"/>
</svg>
