<?xml version="1.0" encoding="utf-8"?>
<!-- Generator: Adobe Illustrator 22.0.1, SVG Export Plug-In . SVG Version: 6.00 Build 0)  -->
<svg version="1.1" id="Ico1" xmlns="http://www.w3.org/2000/svg" xmlns:xlink="http://www.w3.org/1999/xlink" x="0px" y="0px"
	 viewBox="0 0 80 80" style="enable-background:new 0 0 80 80;" xml:space="preserve">
<style type="text/css">
	.st0{fill:#D7D7D7;}
</style>
<path id="Used" class="st0" d="M76.4,40L80,50.7l-8.4,7.5l-2.3,11.1l-11.1,2.3L50.7,80L40,76.4L29.3,80l-7.5-8.4l-11.1-2.3L8.4,58.2
	L0,50.7L3.6,40L0,29.3l8.4-7.5l2.3-11.1l11.1-2.3L29.3,0L40,3.5L50.7,0l7.5,8.4l11.1,2.3l2.3,11.1l8.4,7.5L76.4,40z M73.7,39.9
	L77,30l-7.8-6.9L67,12.8l-10.2-2.1l-6.9-7.8L40,6.2L30,2.9l-6.9,7.8l-10.2,2.1L10.8,23L3,30l3.3,9.9L3,49.8l7.8,6.9L12.9,67
	l10.2,2.1l6.9,7.8l9.9-3.3l9.9,3.3l6.9-7.8L67,67l2.1-10.2l7.8-6.9L73.7,39.9z M56.2,55.9c2.2-1.3,2.2-3,2.2-3.8
	c0-0.7-0.1-1.4-0.3-1.9c1.1-0.8,2.3-2.1,2.3-4c0-1.3-0.5-2.3-1.2-3c0.7-0.8,1.2-1.8,1.2-3.2c0-1.9-1.1-3.2-2.2-3.9
	c0.1-0.6,0.2-1.4,0.2-2c0-2-1.9-4.2-5-4.2c-2.4,0-4.3,0.3-6.4,0.7c-1,0.2-2.1,0.4-3.3,0.5c-0.4,0.1-1,0.1-1.3-0.2
	c-0.3-0.4-0.3-1.5,0.4-2.9l0.3-0.7c1.4-3,3.2-6.7,1.3-9.9c-0.9-1.5-3-2.9-4.8-2.5C39,15,37.5,15.6,37.3,18c-0.6,5.2-3.2,7.3-5.7,9.3
	c-1.1,0.9-2.2,1.7-3,2.8c-0.8,1-1.3,2-1.7,2.9c-1,2.1-1.7,3.5-5.7,3.5v2.7c5.8,0,7-2.7,8.1-5.1c0.4-0.8,0.8-1.6,1.3-2.3
	c0.7-0.9,1.6-1.6,2.6-2.4c2.7-2.2,6-4.8,6.7-11.1c0-0.5,0.2-0.7,0.2-0.7c0.4-0.1,1.5,0.5,1.9,1.2c1.2,2-0.1,4.7-1.4,7.3L40.3,27
	c-1,2.2-1.1,4.3-0.1,5.6c0.6,0.8,1.7,1.6,3.8,1.3c1.3-0.2,2.4-0.4,3.4-0.5c2.1-0.4,3.8-0.6,6-0.6c1.6,0,2.3,1,2.3,1.5
	c0,0.8-0.2,2.1-0.3,2.5c-0.1,0.7,0.3,1.3,0.9,1.5c0,0,1.4,0.5,1.4,1.9c0,1.3-1.3,2-1.3,2.1c-0.5,0.2-0.7,0.7-0.7,1.3
	c0,0.5,0.4,1,0.8,1.2c0.1,0.1,1.2,0.5,1.2,1.6c0,1.4-1.8,2.1-1.8,2.1c-0.4,0.1-0.7,0.5-0.8,0.9s-0.1,0.6,0.1,1c0,0,0.5,0.7,0.5,1.8
	c0,0.5,0,0.9-0.8,1.4C53.8,54.2,51.2,55,45,55c-8.7,0-11.7-1.1-14.3-2.2c-2.3-0.9-4.5-1.7-9.6-1.7v2.7c4.6,0,6.5,0.7,8.7,1.6
	c2.8,1.1,6.1,2.3,15.3,2.3C50.5,57.7,54.1,57.1,56.2,55.9z"/>
</svg>
