<svg id="Layer_1" data-name="Layer 1" xmlns="http://www.w3.org/2000/svg" viewBox="0 0 582.76 265.7"><defs><style>.cls-1{fill:#fff;}.cls-2{fill:#ed1c24;}</style></defs><title>Ignite®_Logo_Inv_RGB</title><path class="cls-1" d="M275.74,190.79v-5.57a25.08,25.08,0,0,1-15.91,11.48A32.66,32.66,0,0,1,240,195.05q-9.84-3.94-16.89-14.6t-7.05-28q0-20.33,9.35-33t30-12.62a53.48,53.48,0,0,1,29.19,8.53Q298,123.88,298,146.84v46.24q0,23-13.45,31.32a54.25,54.25,0,0,1-29.19,8.36q-30.18,0-37.39-28.21H242a18.26,18.26,0,0,0,18.86,8.37q5.41-1.15,9.84-6.4T275.74,190.79Zm-37.39-37.72q0,22.63,13.12,25.09t19.35-6.07q3-3.61,4.26-11.32a47.76,47.76,0,0,0,.17-15.25,30.49,30.49,0,0,0-5.41-13.44q-4.27-5.9-12.46-5.9-11.16,0-15.09,8.2A42.68,42.68,0,0,0,238.36,153.07Z"/><path class="cls-1" d="M378.07,196H366.59a10.67,10.67,0,0,1-11.15-11.15v-44.6q0-7.87-4.75-11.48A17.23,17.23,0,0,0,340,125.19a16.53,16.53,0,0,0-10.49,3.61q-4.6,3.61-4.59,11.48V196H302V144.87q0-22.3,11.64-29.84a50.88,50.88,0,0,1,25.75-8.2,49.37,49.37,0,0,1,26.56,7.54q12.13,7.55,12.14,30.5Z"/><path class="cls-1" d="M383.64,116.37h23V196h-23Z"/><path class="cls-1" d="M448.87,196a170.48,170.48,0,0,1-23.45-.33q-12.63-1-12.63-16.07V94.29H424.6a10.4,10.4,0,0,1,7.54,3.28,10.76,10.76,0,0,1,3.28,7.87v3.08h13.45v4.59a10.59,10.59,0,0,1-3.28,8,11,11,0,0,1-7.87,3.12h-2.3V173.4q0,5.58,6.56,5.58h6.89Z"/><path class="cls-1" d="M511.51,169.14h16.4q-3.61,13.77-13.77,21-10.17,7.55-25.58,7.54-18.7,0-29.19-12.13-10.5-11.81-10.49-33.78,0-21,10.17-32.79,10.49-12.13,29.19-12.14,19.68,0,30.5,11.81,10.49,12.14,10.5,33.78V156a5.67,5.67,0,0,1-.33,2.29H472.16q.33,10.17,4.92,15.09,4.26,5.25,12.79,5.25a18.57,18.57,0,0,0,9.51-2.29,4.6,4.6,0,0,0,1.81-1.15l1.8-1.8a7.15,7.15,0,0,1,2.46-2.62A9.78,9.78,0,0,1,511.51,169.14Zm-39.36-25.58h33.45q-.66-8.85-4.59-13.12-4.27-4.59-12.14-4.59a16,16,0,0,0-11.81,4.59Q472.48,135,472.16,143.56Z"/><path class="cls-1" d="M188.17,76.27H200a11.2,11.2,0,0,1,11.15,11.15V196h-23Z"/><path class="cls-1" d="M383.64,94.29h11.81a11.2,11.2,0,0,1,11.15,11.15v6.89h-23Z"/><path class="cls-1" d="M246.25,95.48H242.6V92.9a9.56,9.56,0,0,1-7.43,3A10.57,10.57,0,0,1,227.67,93a10.29,10.29,0,0,1-3.3-7.87A10.55,10.55,0,0,1,227.86,77a10.85,10.85,0,0,1,7.58-2.94,8.8,8.8,0,0,1,7.16,3.14V74.57h3.65ZM242.6,85.14a7.24,7.24,0,0,0-2-5.17,6.64,6.64,0,0,0-5-2.14,7.15,7.15,0,0,0-5.29,2.24,6.3,6.3,0,0,0-2.08,4.48,7.89,7.89,0,0,0,1.93,5.36,6.44,6.44,0,0,0,5.11,2.33,7.32,7.32,0,0,0,5.18-2.07A6.64,6.64,0,0,0,242.6,85.14Z"/><path class="cls-1" d="M272.3,84.55a11.3,11.3,0,0,1-3,8.1,10.47,10.47,0,0,1-8,3.29A8.89,8.89,0,0,1,254.23,93v9.4h-3.81V74.49h3.65V77A9.27,9.27,0,0,1,261,74.06a11.47,11.47,0,0,1,7.73,2.87A9.67,9.67,0,0,1,272.3,84.55Zm-3.9.49a6.87,6.87,0,0,0-2.14-5.12,7.15,7.15,0,0,0-5.17-2.08,6.64,6.64,0,0,0-5.2,2.29,7.29,7.29,0,0,0-1.88,5,7.07,7.07,0,0,0,1.64,4.66,7,7,0,0,0,5.66,2.44,6.77,6.77,0,0,0,5.06-2.08A7.06,7.06,0,0,0,268.4,85Z"/><path class="cls-1" d="M297.39,95.48h-3.64V92.9a9.57,9.57,0,0,1-7.44,3A10.58,10.58,0,0,1,278.81,93a10.3,10.3,0,0,1-3.3-7.87A10.56,10.56,0,0,1,279,77a10.85,10.85,0,0,1,7.58-2.94,8.81,8.81,0,0,1,7.17,3.14V74.57h3.64Zm-3.64-10.34a7.24,7.24,0,0,0-2-5.17,6.65,6.65,0,0,0-5-2.14,7.15,7.15,0,0,0-5.29,2.24,6.3,6.3,0,0,0-2.08,4.48,7.89,7.89,0,0,0,1.93,5.36,6.45,6.45,0,0,0,5.11,2.33,7.32,7.32,0,0,0,5.18-2.07A6.64,6.64,0,0,0,293.74,85.14Z"/><path class="cls-1" d="M322.48,88.57a15.07,15.07,0,0,1-4.22,5.4,10.53,10.53,0,0,1-6.46,2,10.86,10.86,0,0,1-7.65-3.07,10.56,10.56,0,0,1-3.48-8h.17l-.07.18a10.54,10.54,0,0,1,3.36-8.07,10.2,10.2,0,0,1,7.2-2.87,11.69,11.69,0,0,1,6.76,2,11.89,11.89,0,0,1,4.34,5.59h-4.19a7.28,7.28,0,0,0-6.83-3.79,6.49,6.49,0,0,0-4.93,2.09,7.11,7.11,0,0,0-2,5.07,7,7,0,0,0,2.06,5.15,6.92,6.92,0,0,0,5.11,2.08,7.84,7.84,0,0,0,3.81-1,7.37,7.37,0,0,0,2.83-2.68Z"/><path class="cls-1" d="M344.21,95.5h-3.77v-12a5.47,5.47,0,0,0-1.55-4,6,6,0,0,0-7.91-.12,5.07,5.07,0,0,0-1.5,3.83V95.5h-3.81V67.58h3.81v8.74A7.45,7.45,0,0,1,335,74.13a9,9,0,0,1,6.31,2.47,8.89,8.89,0,0,1,2.92,6.88Z"/><path class="cls-1" d="M368.93,86.51H351.26a6.47,6.47,0,0,0,2.63,4.31,6.93,6.93,0,0,0,4.17,1.41,7.27,7.27,0,0,0,4-1.19,6.45,6.45,0,0,0,2.67-3.16h3.88a12.23,12.23,0,0,1-4.73,6.24,10.66,10.66,0,0,1-6,1.81,9.83,9.83,0,0,1-7.24-3,10.9,10.9,0,0,1-3.19-8,10.75,10.75,0,0,1,18-8.07,11,11,0,0,1,3.5,8.57ZM365.09,83a7.21,7.21,0,0,0-2.56-3.8,6.82,6.82,0,0,0-4.29-1.47,6.73,6.73,0,0,0-5,2,7.56,7.56,0,0,0-1.93,3.3Z"/><path class="cls-2" d="M88.38,66.21s-69.5,42.37-4,84.52c12.64,8.16,58.31,31,57,52.05,0,0,27.67-41-12.76-66.75C87,109.58,76.57,81.44,88.38,66.21Z"/><path class="cls-2" d="M64.19,147.24s-24.84,37.63,24,45.29c4.77.61,40.15,4.28,49.28,15.86,0,0-.84-20-29.56-31.78S67.38,161.9,64.19,147.24Z"/><path class="cls-2" d="M160.16,107.66c-29.77-31.21-38-50.48-25.31-75.45,0,0-88.94,34.22-1.14,94.93,31.45,21.75,26.18,43.91,26.2,44.73C164.88,166.74,189.93,138.87,160.16,107.66Z"/><path class="cls-1" d="M515.95,95.82h-2.41v6.39h-1.9V95.82h-2.41V94.29h6.72Zm10.1,6.39h-1.73V95.82h0L522,102.21h-1l-2.29-6.39h0v6.39h-1.73V94.29h2.78L521.48,99l1.78-4.69H526Z"/></svg>