<?xml version="1.0" encoding="utf-8"?>
<!-- Generator: Adobe Illustrator 21.0.2, SVG Export Plug-In . SVG Version: 6.00 Build 0)  -->
<svg version="1.1" id="Layer_1" xmlns="http://www.w3.org/2000/svg" xmlns:xlink="http://www.w3.org/1999/xlink" x="0px" y="0px"
	 viewBox="0 0 90 39" style="enable-background:new 0 0 90 39;" xml:space="preserve">
<style type="text/css">
	.st0{fill:#FFFFFF;}
	.st1{fill:#F90314;}
</style>
<g id="Main-Layout" transform="translate(-195.000000, -18.000000)">
	<g id="Page-1" transform="translate(195.000000, 18.000000)">
		<path id="Fill-1" class="st0" d="M34.6,23.1c0,2.9,0.8,4.5,2.5,4.8c1.7,0.3,2.9-0.1,3.7-1.2c0.4-0.5,0.6-1.2,0.8-2.2
			s0.2-1.9,0-2.9c-0.1-1-0.5-1.8-1-2.6c-0.5-0.7-1.3-1.1-2.4-1.1c-1.4,0-2.4,0.5-2.9,1.6C34.9,20.6,34.6,21.8,34.6,23.1 M41.7,30.3
			v-1.1c-0.7,1.2-1.8,1.9-3,2.2c-1.3,0.3-2.5,0.2-3.8-0.3c-1.2-0.5-2.3-1.4-3.2-2.8c-0.9-1.4-1.3-3.1-1.3-5.3c0-2.6,0.6-4.7,1.8-6.3
			c1.2-1.6,3.1-2.4,5.7-2.4c2,0,3.8,0.5,5.6,1.6c1.7,1.1,2.6,3.1,2.6,6v8.8c0,2.9-0.9,4.9-2.6,6c-1.7,1.1-3.6,1.6-5.6,1.6
			c-3.8,0-6.2-1.8-7.1-5.4h4.6c0.3,0.6,0.8,1,1.5,1.3s1.4,0.4,2.1,0.2c0.7-0.1,1.3-0.6,1.9-1.2C41.3,32.6,41.6,31.6,41.7,30.3"/>
		<path id="Fill-3" class="st0" d="M61.2,31.3H59c-0.6,0-1.1-0.2-1.5-0.6s-0.6-0.9-0.6-1.5v-8.5c0-1-0.3-1.7-0.9-2.2
			c-0.6-0.5-1.3-0.7-2-0.7s-1.4,0.2-2,0.7s-0.9,1.2-0.9,2.2v10.6h-4.4v-9.7c0-2.8,0.7-4.7,2.2-5.7s3.1-1.5,4.9-1.6
			c1.8,0,3.5,0.5,5.1,1.4c1.5,1,2.3,2.9,2.3,5.8C61.2,21.5,61.2,31.3,61.2,31.3z"/>
		<polygon id="Fill-5" class="st0" points="62.2,16.2 66.6,16.2 66.6,18.3 66.6,31.3 62.2,31.3 		"/>
		<path id="Fill-7" class="st0" d="M74.7,31.3c-1.4,0.1-2.9,0.1-4.5-0.1c-1.6-0.1-2.4-1.1-2.4-3.1V12H70c0.5,0,1,0.2,1.4,0.6
			c0.4,0.4,0.6,0.9,0.6,1.5v0.6h2.6v0.9c0,0.6-0.2,1.1-0.6,1.5s-0.9,0.6-1.5,0.6h-0.4V27c0,0.7,0.4,1.1,1.2,1.1h1.3L74.7,31.3
			L74.7,31.3z"/>
		<path id="Fill-9" class="st0" d="M79.1,21.3h6.4c-0.1-1.1-0.4-2-0.9-2.5C84,18.2,83.3,18,82.3,18c-0.9,0-1.7,0.3-2.2,0.9
			C79.4,19.4,79.1,20.2,79.1,21.3 M86.6,26.2h3.1c-0.5,1.7-1.3,3.1-2.6,4c-1.3,1-2.9,1.4-4.9,1.4c-2.4,0-4.2-0.8-5.6-2.3
			c-1.3-1.5-2-3.6-2-6.4c0-2.7,0.6-4.7,1.9-6.2s3.2-2.3,5.5-2.3c2.5,0,4.4,0.7,5.8,2.2c1.3,1.5,2,3.7,2,6.4v0.4v0.3
			c0,0.2,0,0.4-0.1,0.4H79.1c0,1.3,0.4,2.2,0.9,2.9c0.5,0.7,1.4,1,2.4,1c0.7,0,1.3-0.1,1.8-0.4c0.1,0,0.2-0.1,0.3-0.2
			c0.1-0.1,0.2-0.2,0.3-0.3c0-0.1,0.2-0.3,0.5-0.5C85.7,26.3,86.1,26.2,86.6,26.2"/>
		<path id="Fill-11" class="st0" d="M25.1,8.5h2.2c0.6,0,1.1,0.2,1.5,0.6c0.4,0.4,0.6,0.9,0.6,1.5v20.7H25L25.1,8.5L25.1,8.5z"/>
		<path id="Fill-13" class="st0" d="M62.2,12h2.2c0.6,0,1.1,0.2,1.5,0.6c0.4,0.4,0.6,0.9,0.6,1.5v1.3h-4.4V12H62.2z"/>
		<path id="Fill-15" class="st0" d="M35.4,10.2c0-0.4-0.1-0.7-0.4-1c-0.3-0.3-0.6-0.4-1-0.4s-0.7,0.1-1,0.4
			c-0.3,0.3-0.4,0.5-0.4,0.9s0.1,0.7,0.4,1c0.3,0.3,0.6,0.4,1,0.4s0.7-0.1,1-0.4C35.3,10.9,35.4,10.6,35.4,10.2L35.4,10.2z
			 M36.1,12.2h-0.7v-0.5c-0.3,0.4-0.8,0.6-1.4,0.6c-0.6,0-1-0.2-1.4-0.6c-0.4-0.4-0.6-0.9-0.6-1.5s0.2-1.1,0.7-1.5
			c0.4-0.4,0.9-0.6,1.4-0.6c0.6,0,1,0.2,1.4,0.6V8.2h0.7L36.1,12.2L36.1,12.2z"/>
		<path id="Fill-17" class="st0" d="M40.3,10.2c0-0.4-0.1-0.7-0.4-1c-0.3-0.3-0.6-0.4-1-0.4s-0.7,0.1-1,0.4c-0.2,0.3-0.4,0.6-0.4,1
			c0,0.3,0.1,0.6,0.3,0.9c0.3,0.3,0.6,0.5,1.1,0.5c0.4,0,0.7-0.1,1-0.4C40.2,10.9,40.3,10.6,40.3,10.2 M41.1,10.1
			c0,0.6-0.2,1.1-0.6,1.5c-0.4,0.4-0.9,0.6-1.5,0.6s-1-0.2-1.3-0.6v1.8H37V8.2h0.7v0.5c0.2-0.2,0.4-0.3,0.6-0.4
			c0.2-0.1,0.5-0.1,0.7-0.1c0.6,0,1,0.2,1.5,0.5C40.9,9,41.1,9.5,41.1,10.1"/>
		<path id="Fill-19" class="st0" d="M45.2,10.2c0-0.4-0.1-0.7-0.4-1c-0.3-0.3-0.6-0.4-1-0.4s-0.7,0.1-1,0.4
			c-0.3,0.3-0.4,0.5-0.4,0.9s0.1,0.7,0.4,1c0.3,0.3,0.6,0.4,1,0.4s0.7-0.1,1-0.4C45,10.9,45.2,10.6,45.2,10.2L45.2,10.2z M45.8,12.2
			h-0.7v-0.5c-0.3,0.4-0.8,0.6-1.4,0.6c-0.6,0-1-0.2-1.4-0.6c-0.4-0.4-0.6-0.9-0.6-1.5s0.2-1.1,0.7-1.5c0.4-0.4,0.9-0.6,1.4-0.6
			c0.6,0,1,0.2,1.4,0.6V8.2h0.7v4H45.8z"/>
		<path id="Fill-21" class="st0" d="M50.6,10.9c-0.2,0.5-0.5,0.8-0.8,1s-0.7,0.4-1.2,0.4c-0.6,0-1-0.2-1.5-0.6
			c-0.4-0.4-0.7-0.9-0.7-1.5l0,0l0,0c0-0.6,0.2-1.1,0.6-1.5c0.4-0.4,0.8-0.5,1.4-0.5c0.5,0,0.9,0.1,1.3,0.4c0.4,0.3,0.6,0.6,0.8,1.1
			h-0.8C49.4,9.2,49,9,48.4,9c-0.4,0-0.7,0.1-0.9,0.4c-0.3,0.3-0.4,0.6-0.4,1s0.1,0.7,0.4,1c0.3,0.3,0.6,0.4,1,0.4
			c0.3,0,0.5-0.1,0.7-0.2c0.2-0.1,0.4-0.3,0.5-0.5h0.9V10.9z"/>
		<path id="Fill-23" class="st0" d="M54.8,12.2H54V9.9c0-0.3-0.1-0.6-0.3-0.8s-0.5-0.3-0.8-0.3s-0.6,0.1-0.7,0.3
			c-0.2,0.2-0.3,0.4-0.3,0.7v2.3h-0.7V6.9h0.7v1.7c0.3-0.3,0.6-0.4,1-0.4c0.5,0,0.9,0.2,1.2,0.5c0.4,0.3,0.6,0.8,0.6,1.3L54.8,12.2
			L54.8,12.2z"/>
		<path id="Fill-25" class="st0" d="M58.7,9.8c-0.1-0.3-0.2-0.5-0.5-0.7c-0.2-0.2-0.5-0.3-0.8-0.3c-0.4,0-0.7,0.1-0.9,0.4
			c-0.2,0.2-0.3,0.4-0.4,0.6H58.7z M59.5,10.5h-3.4c0.1,0.3,0.2,0.6,0.5,0.8c0.2,0.2,0.5,0.3,0.8,0.3s0.5-0.1,0.8-0.2
			c0.2-0.2,0.4-0.4,0.5-0.6h0.7c-0.2,0.5-0.5,0.9-0.9,1.2c-0.3,0.2-0.7,0.3-1.1,0.3c-0.5,0-1-0.2-1.4-0.6c-0.4-0.4-0.6-0.9-0.6-1.5
			s0.2-1.1,0.6-1.5c0.4-0.4,0.9-0.5,1.4-0.5s1,0.2,1.4,0.5c0.4,0.4,0.7,0.9,0.7,1.6V10.5z"/>
		<g id="Group-29" transform="translate(0.000000, 6.500198)">
			<path id="Fill-27" class="st1" d="M6.1,0.1c0,0-13.2,8.1-0.8,16.1c2.4,1.6,11.1,5.9,10.8,9.9c0,0,5.3-7.8-2.4-12.7
				C5.8,8.4,3.9,3,6.1,0.1"/>
		</g>
		<path id="Fill-30" class="st1" d="M1.5,22c0,0-4.7,7.2,4.6,8.6c0.9,0.1,7.6,0.8,9.4,3c0,0-0.2-3.8-5.6-6C4.4,25.4,2.1,24.8,1.5,22
			"/>
		<g id="Group-34" transform="translate(7.277228, 0.114059)">
			<path id="Fill-32" class="st1" d="M12.5,14.4C6.8,8.4,5.2,4.8,7.7,0c0,0-16.9,6.5-0.2,18.1c6,4.1,5,8.3,5,8.5
				C13.4,25.6,18.1,20.3,12.5,14.4"/>
		</g>
	</g>
</g>
</svg>
