<?xml version="1.0" encoding="utf-8"?>
<!-- Generator: Adobe Illustrator 22.0.1, SVG Export Plug-In . SVG Version: 6.00 Build 0)  -->
<svg version="1.1" id="Ico2" xmlns="http://www.w3.org/2000/svg" xmlns:xlink="http://www.w3.org/1999/xlink" x="0px" y="0px"
	 viewBox="0 0 80 80" style="enable-background:new 0 0 80 80;" xml:space="preserve">
<style type="text/css">
	.st0{fill:#D7D7D7;}
</style>
<path id="Db" class="st0" d="M76.4,40L80,50.7l-8.4,7.5l-2.3,11.1l-11.1,2.3L50.7,80L40,76.4L29.3,80l-7.5-8.4l-11.1-2.3L8.4,58.2
	L0,50.7L3.6,40L0,29.3l8.4-7.5l2.3-11.1l11.1-2.3L29.3,0L40,3.5L50.7,0l7.5,8.4l11.1,2.3l2.3,11.1l8.4,7.5L76.4,40z M73.7,39.9
	L77,30l-7.8-6.9L67,12.8l-10.2-2.1l-6.9-7.8L40,6.2L30,2.9l-6.9,7.8l-10.2,2.1L10.8,23L3,30l3.3,9.9L3,49.8l7.8,6.9L12.9,67
	l10.2,2.1l6.9,7.8l9.9-3.3l9.9,3.3l6.9-7.8L67,67l2.1-10.2l7.8-6.9L73.7,39.9z M40,36.7c-10.4,0-18.6-3.7-18.6-8.4S29.6,20,40,20
	s18.6,3.7,18.6,8.4S50.4,36.7,40,36.7z M40,21.8c-7.9,0-16.7,2.7-16.7,6.5S32,34.8,40,34.8s16.7-2.7,16.7-6.5S47.9,21.8,40,21.8z
	 M40,44.1c-10.4,0-18.6-3.7-18.6-8.4v-7.4c0-0.5,0.4-0.9,0.9-0.9s0.9,0.4,0.9,0.9v7.4c0,3.8,8.8,6.5,16.7,6.5s16.7-2.7,16.7-6.5
	v-7.4c0-0.5,0.4-0.9,0.9-0.9s0.9,0.4,0.9,0.9v7.4C58.6,40.4,50.4,44.1,40,44.1z M40,52.5c-10.4,0-18.6-3.7-18.6-8.4v-8.3
	c0-0.5,0.4-0.9,0.9-0.9s0.9,0.4,0.9,0.9v8.4c0,3.8,8.8,6.4,16.8,6.4s16.7-2.7,16.7-6.5v-8.4c0-0.5,0.4-0.9,0.9-0.9s0.9,0.4,0.9,0.9
	v8.4C58.6,48.8,50.4,52.5,40,52.5z M40,60.9c-10.4,0-18.6-3.7-18.6-8.4v-8.3c0-0.5,0.4-0.9,0.9-0.9s0.9,0.4,0.9,0.9v8.4
	c0,3.8,8.8,6.5,16.7,6.5s16.7-2.7,16.7-6.5v-8.4c0-0.5,0.4-0.9,0.9-0.9s0.9,0.4,0.9,0.9v8.4C58.6,57.2,50.4,60.9,40,60.9z"/>
</svg>
