<?xml version="1.0" encoding="utf-8"?>
<!-- Generator: Adobe Illustrator 21.0.2, SVG Export Plug-In . SVG Version: 6.00 Build 0)  -->
<svg version="1.1" id="Icon6" xmlns="http://www.w3.org/2000/svg" xmlns:xlink="http://www.w3.org/1999/xlink" x="0px" y="0px"
	 viewBox="0 0 80 80" style="enable-background:new 0 0 80 80;" xml:space="preserve">
<style type="text/css">
	.st0{fill:#D7D7D7;}
</style>
<g>
	<path class="st0" d="M74.2,49.7c2-1.7,3.2-4.3,3.2-7c0-2.9-1.3-5.5-3.4-7.2c0.5-1.1,0.8-2.2,0.8-3.4c0-2.8-1.4-5.3-3.7-6.7
		c0.7-1.2,1.1-2.6,1.1-3.9c0-3.4-2.2-6.4-5.3-7.5c0-0.2,0-0.3,0-0.5c0-4.4-3.6-8-8-8c-1.1,0-2.1,0.2-3.1,0.6c-1.1-3.5-4.4-6-8.2-6
		c-5.6,0-8.1,5.1-8.6,7.7c0,0,0,0.1,0,0.1c0,0,0,0.1,0,0.1v62.6c-0.3,3.8-3.5,6.7-7.3,6.7c-3.8,0-7-3-7.3-6.8
		c-0.1-0.7-0.7-1.2-1.4-1.2c-0.4,0-0.8,0.2-1.1,0.5c-1,1.4-2.6,2.1-4.3,2.1c-2.9,0-5.3-2.4-5.3-5.3c0-1.2,0.4-2.4,1.2-3.3
		c0.4-0.4,0.4-1.1,0.1-1.5c-0.3-0.5-0.9-0.7-1.4-0.6c-0.4,0.1-0.8,0.2-1.2,0.2c-2.9,0-5.3-2.4-5.3-5.3c0-2.2,1.4-4.2,3.5-5
		c0.5-0.2,0.8-0.6,0.9-1.2c0-0.5-0.3-1-0.7-1.3c-2.2-1.2-3.6-3.4-3.6-5.9c0-2.4,1.2-4.5,3.2-5.7c0.3-0.2,0.5-0.5,0.6-0.9
		c0.1-0.4,0-0.7-0.2-1c-0.6-0.9-1-2-1-3.1c0-2.2,1.4-4.2,3.5-5c0.4-0.2,0.7-0.5,0.8-0.9c0.1-0.4,0-0.9-0.3-1.2
		c-0.9-1-1.4-2.2-1.4-3.5c0-2.6,1.9-4.8,4.4-5.2c0.4-0.1,0.7-0.3,0.9-0.6c0.2-0.3,0.3-0.7,0.2-1C16,14.1,16,13.7,16,13.3
		c0-2.9,2.4-5.3,5.3-5.3c1.2,0,2.3,0.4,3.2,1.1c0.4,0.3,0.9,0.4,1.4,0.2c0.4-0.2,0.7-0.6,0.8-1.1c0.3-3.1,2.9-5.5,6-5.5
		c1.5,0,2.7,0.5,3.8,1.5c0.5,0.5,1.4,0.5,1.9-0.1c0.5-0.5,0.5-1.4-0.1-1.9C36.7,0.7,34.8,0,32.7,0c-3.8,0-7.1,2.5-8.2,6
		c-1-0.4-2-0.6-3.1-0.6c-4.4,0-8,3.6-8,8c0,0.2,0,0.3,0,0.5C10.2,14.9,8,17.9,8,21.3c0,1.4,0.4,2.7,1.1,3.9c-2.3,1.4-3.7,4-3.7,6.7
		c0,1.2,0.3,2.4,0.8,3.4c-2.2,1.8-3.4,4.4-3.4,7.2c0,2.7,1.2,5.2,3.2,7c-1.9,1.5-3.2,3.8-3.2,6.3c0,4.1,3.1,7.5,7.2,8
		c-0.3,0.9-0.5,1.8-0.5,2.7c0,4.4,3.6,8,8,8c1.7,0,3.2-0.5,4.6-1.4c1.4,3.9,5.1,6.8,9.4,6.8c5.2,0,9.6-4.1,10-9.2c0,0,0,0,0-0.1
		c0,0,0,0,0-0.1V8.1c0.2-0.8,1.5-5.5,6-5.5c3.1,0,5.7,2.4,6,5.5c0,0.5,0.3,0.9,0.8,1.1c0.4,0.2,1,0.1,1.4-0.2c1-0.7,2.1-1.1,3.2-1.1
		c2.9,0,5.3,2.4,5.3,5.3c0,0.4,0,0.7-0.1,1.2c-0.1,0.4,0,0.7,0.2,1c0.2,0.3,0.5,0.5,0.9,0.6c2.5,0.5,4.4,2.7,4.4,5.2
		c0,1.3-0.5,2.5-1.4,3.5c-0.3,0.3-0.4,0.8-0.3,1.2c0.1,0.4,0.4,0.8,0.8,0.9c2.1,0.8,3.5,2.8,3.5,5c0,1.1-0.3,2.1-1,3.1
		c-0.2,0.3-0.3,0.7-0.2,1c0.1,0.4,0.3,0.7,0.6,0.9c2,1.2,3.2,3.4,3.2,5.7c0,2.5-1.4,4.8-3.6,5.9c-0.5,0.2-0.7,0.7-0.7,1.3
		c0,0.5,0.4,1,0.9,1.2c2.1,0.8,3.5,2.8,3.5,5c0,2.9-2.4,5.3-5.3,5.3c-0.4,0-0.8-0.1-1.2-0.2c-0.6-0.1-1.1,0.1-1.4,0.6
		c-0.3,0.5-0.3,1.1,0.1,1.5c0.8,1,1.2,2.1,1.2,3.3c0,2.9-2.4,5.3-5.3,5.3c-1.7,0-3.2-0.8-4.3-2.2c-0.3-0.5-0.9-0.6-1.5-0.5
		c-0.2,0.1-0.4,0.2-0.5,0.3c-0.2,0.2-0.4,0.5-0.4,0.9c-0.3,3.8-3.5,6.8-7.3,6.8c-1.7,0-3.3-0.6-4.6-1.6c-0.6-0.5-1.4-0.4-1.9,0.2
		c-0.5,0.6-0.4,1.4,0.2,1.9c1.8,1.4,4,2.2,6.2,2.2c4.3,0,8.1-2.8,9.4-6.8c1.3,0.9,2.9,1.4,4.6,1.4c4.4,0,8-3.6,8-8
		c0-0.9-0.2-1.8-0.5-2.7c4-0.4,7.2-3.8,7.2-8C77.3,53.5,76.1,51.1,74.2,49.7z"/>
	<path class="st0" d="M26.9,24c0.6,1.5,2,2.7,3.8,2.7c2.2,0,4-1.8,4-4c0-1.7-1.1-3.2-2.7-3.8v-4.2c0-0.7-0.6-1.3-1.3-1.3
		c-0.7,0-1.3,0.6-1.3,1.3v4.2c-1.1,0.4-2,1.3-2.4,2.4H20c-0.7,0-1.3,0.6-1.3,1.3v9.6c-1.5,0.6-2.7,2-2.7,3.8c0,2.2,1.8,4,4,4
		c1.7,0,3.2-1.1,3.8-2.7h3.2c0.4,1.1,1.3,2,2.4,2.4v16.5c-0.7,0.3-1.4,0.7-1.8,1.4l-3.9-3.9c0,0,0,0,0,0c0.3-0.5,0.4-1.1,0.4-1.7
		c0-2.2-1.8-4-4-4s-4,1.8-4,4s1.8,4,4,4c0.6,0,1.2-0.2,1.7-0.4c0,0,0,0,0,0l5,5c0.2,1.5,1.2,2.7,2.6,3.1V68c0,0.7,0.6,1.3,1.3,1.3
		c0.7,0,1.3-0.6,1.3-1.3v-4.2c1.5-0.6,2.7-2,2.7-3.8s-1.1-3.2-2.7-3.8V39.8c1.5-0.6,2.7-2,2.7-3.8c0-2.2-1.8-4-4-4
		c-1.7,0-3.2,1.1-3.8,2.7h-3.2c-0.4-1.1-1.3-2-2.4-2.4V24H26.9z M30.7,21.3c0.7,0,1.3,0.6,1.3,1.3c0,0.7-0.6,1.3-1.3,1.3
		c-0.7,0-1.3-0.6-1.3-1.3C29.3,21.9,29.9,21.3,30.7,21.3z M20,53.3c-0.7,0-1.3-0.6-1.3-1.3s0.6-1.3,1.3-1.3s1.3,0.6,1.3,1.3
		S20.7,53.3,20,53.3z M30.7,61.3c-0.7,0-1.3-0.6-1.3-1.3s0.6-1.3,1.3-1.3c0.7,0,1.3,0.6,1.3,1.3S31.4,61.3,30.7,61.3z M30.7,34.7
		c0.7,0,1.3,0.6,1.3,1.3s-0.6,1.3-1.3,1.3c-0.7,0-1.3-0.6-1.3-1.3S29.9,34.7,30.7,34.7z M20,37.3c-0.7,0-1.3-0.6-1.3-1.3
		s0.6-1.3,1.3-1.3s1.3,0.6,1.3,1.3S20.7,37.3,20,37.3z"/>
	<path class="st0" d="M53.1,60.1c-0.6-1.5-2-2.7-3.8-2.7c-2.2,0-4,1.8-4,4c0,1.7,1.1,3.2,2.7,3.8v4.2c0,0.7,0.6,1.3,1.3,1.3
		c0.7,0,1.3-0.6,1.3-1.3v-4.2c1.1-0.4,2-1.3,2.4-2.4H60c0.7,0,1.3-0.6,1.3-1.3v-9.6c1.5-0.6,2.7-2,2.7-3.8c0-2.2-1.8-4-4-4
		c-1.7,0-3.2,1.1-3.8,2.7h-3.2c-0.4-1.1-1.3-2-2.4-2.4V27.9c0.7-0.3,1.4-0.7,1.8-1.4l3.9,3.9c0,0,0,0,0,0c-0.3,0.5-0.4,1.1-0.4,1.7
		c0,2.2,1.8,4,4,4s4-1.8,4-4c0-2.2-1.8-4-4-4c-0.6,0-1.2,0.2-1.7,0.4c0,0,0,0,0,0l-5-5c-0.2-1.5-1.2-2.7-2.6-3.1v-4.2
		c0-0.7-0.6-1.3-1.3-1.3c-0.7,0-1.3,0.6-1.3,1.3v4.2c-1.5,0.6-2.7,2-2.7,3.8c0,1.7,1.1,3.2,2.7,3.8v16.5c-1.5,0.6-2.7,2-2.7,3.8
		c0,2.2,1.8,4,4,4c1.7,0,3.2-1.1,3.8-2.7h3.2c0.4,1.1,1.3,2,2.4,2.4v8.2H53.1z M49.3,62.8c-0.7,0-1.3-0.6-1.3-1.3s0.6-1.3,1.3-1.3
		c0.7,0,1.3,0.6,1.3,1.3S50.1,62.8,49.3,62.8z M60,30.8c0.7,0,1.3,0.6,1.3,1.3c0,0.7-0.6,1.3-1.3,1.3s-1.3-0.6-1.3-1.3
		C58.7,31.4,59.3,30.8,60,30.8z M49.3,22.8c0.7,0,1.3,0.6,1.3,1.3c0,0.7-0.6,1.3-1.3,1.3c-0.7,0-1.3-0.6-1.3-1.3
		C48,23.4,48.6,22.8,49.3,22.8z M49.3,49.5c-0.7,0-1.3-0.6-1.3-1.3c0-0.7,0.6-1.3,1.3-1.3c0.7,0,1.3,0.6,1.3,1.3
		C50.7,48.9,50.1,49.5,49.3,49.5z M60,46.8c0.7,0,1.3,0.6,1.3,1.3c0,0.7-0.6,1.3-1.3,1.3s-1.3-0.6-1.3-1.3
		C58.7,47.4,59.3,46.8,60,46.8z"/>
</g>
</svg>
