<?xml version="1.0" encoding="utf-8"?>
<!-- Generator: Adobe Illustrator 24.0.1, SVG Export Plug-In . SVG Version: 6.00 Build 0)  -->
<svg version="1.1" id="Capa_1" xmlns="http://www.w3.org/2000/svg" xmlns:xlink="http://www.w3.org/1999/xlink" x="0px" y="0px"
	 viewBox="0 0 300 300" style="enable-background:new 0 0 300 300;" xml:space="preserve">
<style type="text/css">
	.st0{fill:#ED1C40;}
	.st1{fill:#FFFFFF;}
</style>
<g id="Layer_2">
	<g id="Layer_1-2">
		<path class="st0" d="M212.8,252.6c-5.8,4-7.2,11.9-3.2,17.7c4,5.8,11.9,7.2,17.7,3.2c5.8-4,7.2-11.9,3.2-17.7
			C226.6,250.1,218.6,248.6,212.8,252.6C212.9,252.6,212.8,252.6,212.8,252.6 M138.4,275c-3.6,2.5-4.5,7.4-2,10.9
			c2.5,3.6,7.4,4.5,10.9,2c3.6-2.5,4.5-7.4,2-10.9c0,0,0,0,0,0C146.9,273.4,142,272.5,138.4,275C138.4,275,138.4,275,138.4,275
			 M48,238.5c0.7,3.1,3.7,5,6.7,4.3s5-3.7,4.3-6.7c-0.7-3-3.7-5-6.7-4.3C49.3,232.4,47.4,235.4,48,238.5C48,238.5,48,238.5,48,238.5
			 M26.2,151c3.8-5.5,2.4-13.1-3.2-16.9c-5.5-3.8-13.1-2.4-16.9,3.2s-2.4,13.1,3.2,16.9c0,0,0,0,0,0C14.8,158,22.4,156.6,26.2,151
			C26.2,151,26.2,151,26.2,151 M67.7,72.5c4.2-2.9,5.2-8.7,2.3-12.9c-2.9-4.2-8.7-5.2-12.9-2.3c-4.2,2.9-5.2,8.7-2.3,12.9
			C57.8,74.4,63.5,75.4,67.7,72.5C67.7,72.5,67.7,72.5,67.7,72.5 M95.2,15.8c-0.8-3.5-4.2-5.7-7.7-4.9c-3.5,0.8-5.7,4.2-4.9,7.7
			s4.2,5.7,7.7,4.9c0,0,0,0,0,0C93.7,22.7,96,19.3,95.2,15.8C95.2,15.8,95.2,15.8,95.2,15.8 M177.7,24.3c-3.4-5.7-10.9-7.6-16.6-4.1
			c-5.7,3.4-7.6,10.9-4.1,16.6s10.9,7.6,16.6,4.1c0,0,0,0,0,0C179.3,37.4,181.1,30,177.7,24.3 M237,110.5
			c2.3-29.9-20.1-55.9-50-58.2c-7.7-0.6-15.4,0.5-22.7,3.1c-20.3-13-47.1-13.5-68.1,1.1C86,63.6,78.1,73.6,73.7,85.3
			C67.4,86.1,61.3,88.4,56,92c-18.1,12.5-22.9,37-11.4,55.5c-15.6,14.3-19.2,38.2-7.3,56.6c7.1,10.9,18.1,17.5,30,19.4
			c0.6,26.2,22.4,46.8,48.5,46.2c9.3-0.2,18.3-3.2,25.9-8.5c0.8-0.6,1.5-1.3,2.2-1.9c12,10.7,30.1,12.5,43.9,2.9
			c7.1-4.9,12.1-12.2,14.1-20.6c10.8,0.4,21.8-2.4,31.4-9c22.9-15.9,29.2-46.9,14.4-70.5c12.7-10.5,14.4-29.3,3.9-42
			C247.9,115.5,242.8,112.2,237,110.5 M263,103.1c4.7-3.2,5.8-9.6,2.6-14.3c-3.2-4.7-9.6-5.8-14.3-2.6c-4.7,3.2-5.8,9.6-2.6,14.3
			C251.9,105.2,258.3,106.4,263,103.1C263,103.1,263,103.1,263,103.1 M283,163.3c-0.9-4.1-5-6.7-9.1-5.8c-4.1,0.9-6.7,5-5.8,9.1
			c0.9,4.1,5,6.7,9.1,5.8C281.2,171.5,283.9,167.4,283,163.3C283,163.3,283,163.3,283,163.3 M295.9,126.4c-0.7-3.1-3.7-5-6.8-4.4
			c-3.1,0.7-5,3.7-4.4,6.8c0.7,3.1,3.7,5,6.8,4.4c0,0,0,0,0,0C294.6,132.5,296.6,129.4,295.9,126.4"/>
		<path class="st1" d="M209.5,202.4c-1.8-11.2-22.5-2.5-23.8-14.8c-1.8-17.4,24.1-55.1,22-69.7c-1.8-13.1-10.7-15.9-18.4-16
			c-7.5-0.1-9.5,1.1-12,2.5c-1.5,0.8-3.6,2.5-6.5-0.2c-1.9-1.8-3.2-3.1-5.3-4.8c-1.6-1.3-3.5-2-5.5-2.3c-2.8-0.4-6.4,0-8.7,1
			c-2.3,1-4.1,2.7-6,4.3s-6.6,7-11.1,5c-1.9-0.9-8.5-4.1-13.2-6.2c-9.1-3.9-22.3,2.5-27,10.9c-7,12.5-20.9,61.7-23,68.2
			c-4.7,14.6,6,26.4,20.4,25.7c6.1-0.3,10.2-2.5,14-9.5c2.2-4,23.1-58.7,24.7-61.4c1.1-1.9,4.9-4.4,8.1-2.8s3.8,5,3.4,8.3
			c-0.8,5.2-15.5,38.6-16.1,42.3c-1,6.4,2.1,10,8.8,10.3c4.6,0.2,9.1-1.4,12.7-8.2c2-3.8,25.3-50.4,27.3-53.6
			c2.2-3.4,4.1-4.5,6.4-4.4c1.8,0.1,4.7,0.5,3.9,5.9c-0.7,5.3-19.4,39.5-21.3,47.9c-2.6,11.2,3.5,22.5,13.7,27.5
			C183.5,211.5,211.8,217,209.5,202.4"/>
	</g>
</g>
</svg>
