<?xml version="1.0" encoding="utf-8"?>
<!-- Generator: Adobe Illustrator 22.0.1, SVG Export Plug-In . SVG Version: 6.00 Build 0)  -->
<svg version="1.1" id="Ico3" xmlns="http://www.w3.org/2000/svg" xmlns:xlink="http://www.w3.org/1999/xlink" x="0px" y="0px"
	 viewBox="0 0 80 80" style="enable-background:new 0 0 80 80;" xml:space="preserve">
<style type="text/css">
	.st0{fill:#D7D7D7;}
</style>
<path id="Sql" class="st0" d="M76.4,40L80,50.7l-8.4,7.5l-2.3,11.1l-11.1,2.3L50.7,80L40,76.4L29.3,80l-7.5-8.4l-11.1-2.3L8.4,58.2
	L0,50.7L3.6,40L0,29.3l8.4-7.5l2.3-11.1l11.1-2.3L29.3,0L40,3.5L50.7,0l7.5,8.4l11.1,2.3l2.3,11.1l8.4,7.5L76.4,40z M73.7,39.9
	L77,30l-7.8-6.9L67,12.8l-10.2-2.1l-6.9-7.8L40,6.2L30,2.9l-6.9,7.8l-10.2,2.1L10.8,23L3,30l3.3,9.9L3,49.8l7.8,6.9L12.9,67
	l10.2,2.1l6.9,7.8l9.9-3.3l9.9,3.3l6.9-7.8L67,67l2.1-10.2l7.8-6.9L73.7,39.9z M27.1,57.8h-9c-1,0-1.8-0.8-1.8-1.8v-9
	c0-1,0.8-1.8,1.8-1.8h9c1,0,1.8,0.8,1.8,1.8v9C28.8,57,28,57.8,27.1,57.8z M18.1,46.8c-0.1,0-0.2,0.1-0.2,0.2v9
	c0,0.1,0.1,0.2,0.2,0.2h9c0.1,0,0.2-0.1,0.2-0.2v-9c0-0.1-0.1-0.2-0.2-0.2H18.1z M45.4,57.8h-9c-1,0-1.8-0.8-1.8-1.8v-9
	c0-1,0.8-1.8,1.8-1.8h9c1,0,1.8,0.8,1.8,1.8v9C47.1,57,46.4,57.8,45.4,57.8z M36.4,46.8c-0.1,0-0.2,0.1-0.2,0.2v9
	c0,0.1,0.1,0.2,0.2,0.2h9c0.1,0,0.2-0.1,0.2-0.2v-9c0-0.1-0.1-0.2-0.2-0.2H36.4z M45.4,30.7h-9c-1,0-1.8-0.8-1.8-1.8v-9
	c0-1,0.8-1.8,1.8-1.8h9c1,0,1.8,0.8,1.8,1.8v9C47.1,29.9,46.4,30.7,45.4,30.7z M36.4,19.7c-0.1,0-0.2,0.1-0.2,0.2v9
	c0,0.1,0.1,0.2,0.2,0.2h9c0.1,0,0.2-0.1,0.2-0.2v-9c0-0.1-0.1-0.2-0.2-0.2H36.4z M64,57.8h-9c-1,0-1.8-0.8-1.8-1.8v-9
	c0-1,0.8-1.8,1.8-1.8h9c1,0,1.8,0.8,1.8,1.8v9C65.7,57,64.9,57.8,64,57.8z M55,46.8c-0.1,0-0.2,0.1-0.2,0.2v9c0,0.1,0.1,0.2,0.2,0.2
	h9c0.1,0,0.2-0.1,0.2-0.2v-9c0-0.1-0.1-0.2-0.2-0.2H55z M60.4,37h-39v-1.5h39V37z M40.2,46.7v-16h1.5v16H40.2z M21.5,46.5v-11H23v11
	H21.5z M58.9,46.5v-11h1.5v11H58.9z"/>
</svg>
