<svg width="64" height="60" viewBox="0 0 64 60" fill="none" xmlns="http://www.w3.org/2000/svg">
<path d="M62.0775 23.2518C62.0752 23.2553 62.0725 23.2592 62.0695 23.2634C62.0485 23.2926 62.0147 23.3331 61.9612 23.3867L61.9611 23.3866L61.9516 23.3964C61.4547 23.9071 60.9529 24.4158 60.4482 24.9274L60.4464 24.9292C59.9432 25.4394 59.4371 25.9525 58.9352 26.4683L58.9319 26.4718C57.8371 27.608 56.723 28.729 55.6025 29.8564L55.5996 29.8593C54.4819 30.9839 53.3579 32.115 52.2515 33.2632C50.7805 34.7893 49.2615 36.2992 47.7372 37.7957L47.7372 37.7957L47.7307 37.8022C47.4157 38.1172 47.1583 38.4857 47.0165 38.9311C46.8742 39.378 46.8714 39.8298 46.9552 40.2753C47.5718 43.5989 48.18 46.9215 48.7885 50.2454C49.0927 51.9071 49.3969 53.5691 49.7023 55.2317C49.818 55.8703 49.9337 56.5066 50.0493 57.1425L50.0507 57.1504C50.1589 57.7452 50.267 58.3398 50.3751 58.9362C50.3744 58.9435 50.3737 58.9503 50.3729 58.9567C50.3713 58.9705 50.3697 58.9811 50.3682 58.989C50.3643 58.9935 50.3608 58.997 50.358 58.9997C50.3276 58.998 50.2339 58.9841 50.0687 58.8884C49.4642 58.5368 48.7981 58.1493 48.0889 57.7369C42.7504 54.6316 34.9724 50.1074 32.6947 48.7767L32.6947 48.7767L32.6843 48.7707C31.9708 48.3653 31.1051 48.3653 30.3916 48.7707L30.3916 48.7707L30.3848 48.7746C28.7879 49.6985 24.5173 52.1859 20.2691 54.6603C17.6222 56.2019 14.984 57.7385 13.0066 58.8888C12.8401 58.9851 12.7482 58.9982 12.7201 58.9998C12.7166 58.9968 12.7121 58.9925 12.7066 58.9867C12.7055 58.9801 12.7043 58.9717 12.7031 58.9614C12.7022 58.954 12.7014 58.946 12.7006 58.9373C12.8092 58.3379 12.9179 57.7404 13.0266 57.1425C13.1422 56.5069 13.2578 55.8709 13.3734 55.2325C13.6789 53.5694 13.9832 51.907 14.2875 50.2449C14.896 46.9207 15.5042 43.5979 16.1209 40.2741L62.0775 23.2518ZM62.0775 23.2518C62.0701 23.2291 62.0638 23.2168 62.0609 23.2117C62.0497 23.2052 62.0129 23.1872 61.9305 23.1726C60.2933 22.8858 58.6536 22.5991 57.0139 22.3123C55.3739 22.0255 53.7337 21.7386 52.0959 21.4517L52.0953 21.4517C51.0824 21.2737 50.0669 21.0966 49.0504 20.9193C47.1656 20.5906 45.2772 20.2612 43.3948 19.9244L43.3946 19.9244C43.2058 19.8906 43.0422 19.8646 42.8929 19.8413L42.8566 19.8356C42.7246 19.8149 42.592 19.7942 42.4732 19.772C42.2186 19.7245 41.8979 19.6501 41.5909 19.4476C41.2793 19.2421 41.0763 18.9686 40.915 18.7083C40.7711 18.4762 40.6127 18.1728 40.4274 17.8179C40.412 17.7884 40.3965 17.7586 40.3807 17.7284C39.1767 15.4241 37.9603 13.1307 36.7413 10.8323C36.0031 9.44047 35.2639 8.04679 34.5259 6.64779C33.5733 4.85356 32.6201 3.05825 31.6669 1.25353L31.6645 1.24904C31.6208 1.16516 31.5845 1.10449 31.5531 1.05957C31.5492 1.05391 31.5454 1.04866 31.5418 1.0438C31.5392 1.0474 31.5365 1.05121 31.5337 1.05523C31.5023 1.10074 31.4659 1.16234 31.4206 1.24903L31.4201 1.24997C30.7418 2.54685 30.053 3.84053 29.367 5.1291C29.0967 5.63678 28.8269 6.14366 28.5582 6.64963L62.0775 23.2518ZM1.12431 23.3964C1.07203 23.3425 1.03865 23.3017 1.01768 23.2718C1.01324 23.2654 1.00957 23.2599 1.00655 23.2551C1.0144 23.2303 1.02117 23.2171 1.02421 23.2117C1.03546 23.2052 1.07225 23.1872 1.15453 23.1726C2.79184 22.8858 4.43149 22.5991 6.07128 22.3123C7.71128 22.0255 9.35143 21.7386 10.9893 21.4517L10.9898 21.4517C12.0028 21.2737 13.0184 21.0965 14.0351 20.9192C15.9197 20.5905 17.8081 20.2612 19.6903 19.9244L19.6906 19.9244C19.8793 19.8906 20.0429 19.8646 20.1922 19.8413L20.2286 19.8356C20.3606 19.8149 20.4931 19.7942 20.612 19.772C20.8665 19.7245 21.1872 19.6501 21.4943 19.4476C21.8059 19.2421 22.0089 18.9686 22.1702 18.7083C22.314 18.4762 22.4724 18.1728 22.6577 17.8178C22.6731 17.7884 22.6887 17.7586 22.7044 17.7284L22.7049 17.7275C24.0344 15.1767 25.3802 12.6411 26.7276 10.1028C27.3379 8.95291 27.9486 7.80242 28.5582 6.64967L1.12431 23.3964ZM1.12431 23.3964C1.55242 23.8364 1.99871 24.2878 2.44877 24.743M1.12431 23.3964L2.44877 24.743M4.14378 26.4715L4.14404 26.4718C5.20616 27.574 6.28635 28.6598 7.37367 29.7527L7.47305 29.8526C8.59143 30.9767 9.71663 32.1089 10.8244 33.2631C12.3046 34.7985 13.8145 36.2992 15.3387 37.7957C15.6573 38.1081 15.9168 38.4765 16.0594 38.9242C16.2021 39.3725 16.204 39.8266 16.1209 40.2739L4.14378 26.4715ZM4.14378 26.4715C3.59216 25.8994 3.01746 25.3182 2.44877 24.743M4.14378 26.4715L2.44877 24.743" stroke="white" stroke-width="2"/>
</svg>
