<?xml version="1.0" encoding="utf-8"?>
<!-- Generator: Adobe Illustrator 24.0.1, SVG Export Plug-In . SVG Version: 6.00 Build 0)  -->
<svg version="1.1" id="Capa_1" xmlns="http://www.w3.org/2000/svg" xmlns:xlink="http://www.w3.org/1999/xlink" x="0px" y="0px"
	 viewBox="0 0 300 300" style="enable-background:new 0 0 300 300;" xml:space="preserve">
<style type="text/css">
	.st0{fill:#FFFFFF;}
	.st1{fill:#D93846;}
</style>
<g>
	<path class="st0" d="M294.6,224.6H5.4V40.9c0-2.7,2.2-4.9,4.9-4.9h279.5c2.7,0,4.9,2.2,4.9,4.9V224.6z"/>
	<g>
		<g>
			<path class="st1" d="M288.6,267.7H11.4c-5.2,0-9.4-4.2-9.4-9.4V41.7c0-5.2,4.2-9.4,9.4-9.4h277.2c5.2,0,9.4,4.2,9.4,9.4v216.5
				C298,263.5,293.8,267.7,288.6,267.7z M11.4,38.2c-1.9,0-3.5,1.6-3.5,3.5v216.5c0,1.9,1.6,3.5,3.5,3.5h277.2
				c1.9,0,3.5-1.6,3.5-3.5V41.7c0-1.9-1.6-3.5-3.5-3.5H11.4z"/>
			<path class="st1" d="M291.7,228.1H8.3c-1.6,0-2.9-1.3-2.9-2.9s1.3-2.9,2.9-2.9h283.4c1.6,0,2.9,1.3,2.9,2.9
				S293.3,228.1,291.7,228.1z"/>
		</g>
	</g>
	<g>
		<path class="st1" d="M129.6,176.6c-0.9,0-1.7-0.2-2.5-0.6c-1.6-0.9-2.7-2.5-2.7-4.3v-77c0-1.8,1-3.4,2.7-4.3
			c1.8-0.9,3.9-0.8,5.5,0.3l56,38.3c1.4,1,2.3,2.5,2.3,4.2c0,1.7-0.8,3.2-2.3,4.2l-56,38.3C131.7,176.2,130.7,176.6,129.6,176.6z
			 M129.3,170.8C129.3,170.8,129.3,170.8,129.3,170.8L129.3,170.8L129.3,170.8z"/>
	</g>
</g>
</svg>
