<svg width="48" height="48" fill="none" xmlns="http://www.w3.org/2000/svg"><rect x="12.85" y="9.85" width="31.3" height="34.3" rx="3.15" fill="#fff" stroke="#000" stroke-width="1.7"/><path d="m20.762 23.176-3.873 4.093a1 1 0 0 0 0 1.374l3.873 4.093m14.476 0 3.873-4.093a1 1 0 0 0 0-1.375l-3.873-4.092" stroke="#ED1C24" stroke-width="2" stroke-linecap="round" stroke-linejoin="round"/><circle cx="23.5" cy="27.5" r="1.5" fill="#ED1C24"/><circle cx="28.5" cy="27.5" r="1.5" fill="#ED1C24"/><circle cx="32.5" cy="27.5" r="1.5" fill="#ED1C24"/><rect x="4.85" y="3.85" width="21.3" height="15.3" rx="3.15" fill="#fff" stroke="#000" stroke-width="1.7"/><path d="M25.822 11.628a.15.15 0 0 1 0-.256l7.6-4.7a.15.15 0 0 1 .228.127v9.402a.15.15 0 0 1-.229.127l-7.599-4.7Z" fill="#fff" stroke="#000" stroke-width="1.7"/></svg>