<svg width="48" height="48" fill="none" xmlns="http://www.w3.org/2000/svg"><path d="M3.573 19.865c0-.719.36-1.39.958-1.789L22.807 5.892a2.15 2.15 0 0 1 2.386 0l18.276 12.184a2.15 2.15 0 0 1 .957 1.79v22.5a2.15 2.15 0 0 1-2.15 2.15H5.723a2.15 2.15 0 0 1-2.15-2.15v-22.5Z" fill="#fff"/><path fill-rule="evenodd" clip-rule="evenodd" d="M43.352 42.367V19.865c0-.36-.18-.695-.48-.894L24.597 6.786a1.075 1.075 0 0 0-1.192 0L5.127 18.971c-.3.2-.479.535-.479.894v22.502c0 .593.482 1.075 1.075 1.075h36.553c.594 0 1.075-.482 1.075-1.075ZM4.53 18.077a2.15 2.15 0 0 0-.958 1.788v22.502a2.15 2.15 0 0 0 2.15 2.15h36.553a2.15 2.15 0 0 0 2.15-2.15V19.865a2.15 2.15 0 0 0-.957-1.789L25.192 5.892a2.15 2.15 0 0 0-2.385 0L4.531 18.076Z" fill="#000"/><path fill-rule="evenodd" clip-rule="evenodd" d="M25.072 6.073a1.932 1.932 0 0 0-2.144 0L4.652 18.258c-.538.358-.86.961-.86 1.607v22.501c0 1.067.864 1.932 1.931 1.932h36.553a1.932 1.932 0 0 0 1.932-1.932v-22.5a1.93 1.93 0 0 0-.86-1.608L25.072 6.073Zm-2.386-.363a2.368 2.368 0 0 1 2.628 0L43.59 17.894a2.369 2.369 0 0 1 1.055 1.971v22.501a2.368 2.368 0 0 1-2.369 2.369H5.724a2.368 2.368 0 0 1-2.368-2.369v-22.5a2.37 2.37 0 0 1 1.055-1.972L22.686 5.71Zm1.79 1.258a.857.857 0 0 0-.951 0L5.248 19.152a.857.857 0 0 0-.381.713v22.501c0 .474.383.857.856.857h36.553a.857.857 0 0 0 .857-.857v-22.5a.857.857 0 0 0-.381-.714L24.475 6.968Zm-1.194-.363a1.292 1.292 0 0 1 1.435 0l18.277 12.184c.36.24.576.644.576 1.076v22.501c0 .715-.58 1.294-1.294 1.294H5.724c-.714 0-1.293-.58-1.293-1.294v-22.5c0-.433.216-.837.576-1.077L23.282 6.605Z" fill="#000"/><path d="M9.307 8.322v27.594a2.509 2.509 0 0 0 2.509 2.508H34.75a4.3 4.3 0 0 0 4.3-4.3V8.322a4.3 4.3 0 0 0-4.3-4.3H13.607a4.3 4.3 0 0 0-4.3 4.3Z" fill="#fff" stroke="#000" stroke-width=".5"/><path fill-rule="evenodd" clip-rule="evenodd" d="M13.607 4.56a3.763 3.763 0 0 0-3.762 3.762v27.594a1.97 1.97 0 0 0 1.97 1.97h22.936a3.763 3.763 0 0 0 3.763-3.762V8.322a3.763 3.763 0 0 0-3.763-3.763H13.607ZM8.77 8.321a4.838 4.838 0 0 1 4.837-4.838h21.144a4.838 4.838 0 0 1 4.838 4.838v25.802a4.838 4.838 0 0 1-4.838 4.838H11.816a3.046 3.046 0 0 1-3.046-3.046V8.322Z" fill="#000"/><path fill-rule="evenodd" clip-rule="evenodd" d="M8.551 8.322a5.056 5.056 0 0 1 5.056-5.056h21.144a5.056 5.056 0 0 1 5.056 5.056v25.802a5.056 5.056 0 0 1-5.056 5.056H11.816a3.264 3.264 0 0 1-3.265-3.264V8.322Zm5.056-4.62a4.62 4.62 0 0 0-4.62 4.62v27.594a2.828 2.828 0 0 0 2.829 2.828H34.75a4.62 4.62 0 0 0 4.62-4.62V8.322a4.62 4.62 0 0 0-4.62-4.62H13.607Zm0 1.075a3.544 3.544 0 0 0-3.544 3.545v27.594c0 .968.785 1.752 1.753 1.752H34.75a3.545 3.545 0 0 0 3.544-3.544V8.322a3.545 3.545 0 0 0-3.544-3.545H13.607Zm-3.98 3.545a3.981 3.981 0 0 1 3.98-3.981h21.144a3.981 3.981 0 0 1 3.98 3.98v25.803a3.981 3.981 0 0 1-3.98 3.981H11.816a2.19 2.19 0 0 1-2.19-2.19V8.323Z" fill="#000"/><path d="m30.809 32.332 12.901-8.6v17.82c0 .609-.709.94-1.176.551l-11.725-9.77Z" fill="#fff" stroke="#000" stroke-width=".5"/><path fill-rule="evenodd" clip-rule="evenodd" d="m44.248 22.727-14.336 9.557L42.19 42.516c.817.681 2.058.1 2.058-.963V22.727Zm-1.075 2.009v16.817a.18.18 0 0 1-.294.138l-11.173-9.31 11.467-7.645Z" fill="#000"/><path fill-rule="evenodd" clip-rule="evenodd" d="m44.466 22.32-14.919 9.945 12.504 10.42c.959.798 2.415.116 2.415-1.132V22.319Zm-.437.815v18.418a1.036 1.036 0 0 1-1.699.796L30.276 32.304l13.753-9.17Zm-.638 1.193-12.05 8.033 11.23 9.357-.204.246.335.28.246-.295a.398.398 0 0 0 .443-.396V24.328Zm-.437.816v16.325L32.07 32.4l10.884-7.255Z" fill="#000"/><path d="M21.41 28.918 5.092 42.533c-.514.429-.21 1.267.46 1.267h36.925c.667 0 .972-.831.464-1.263l-15.99-13.593a4.3 4.3 0 0 0-5.54-.026Z" fill="#fff" stroke="#000" stroke-width=".5"/><path fill-rule="evenodd" clip-rule="evenodd" d="M26.602 29.353a3.763 3.763 0 0 0-4.848-.022L5.436 42.945a.18.18 0 0 0 .115.317h36.926a.18.18 0 0 0 .116-.316L26.602 29.353Zm-5.536-.848a4.838 4.838 0 0 1 6.232.03L43.29 42.126c.89.756.355 2.21-.812 2.21H5.55c-1.173 0-1.704-1.466-.804-2.217l16.319-13.614Z" fill="#000"/><path fill-rule="evenodd" clip-rule="evenodd" d="M20.926 28.338a5.056 5.056 0 0 1 6.514.03L43.43 41.96c1.045.887.417 2.594-.953 2.594H5.55c-1.377 0-2-1.72-.943-2.603l16.318-13.614Zm6.231.362a4.62 4.62 0 0 0-5.951-.027L4.887 42.287c-.743.62-.305 1.832.664 1.832h36.926c.964 0 1.405-1.201.67-1.825L27.158 28.7Zm-.696.82a3.545 3.545 0 0 0-4.567-.021L5.66 43.044h36.712L26.46 29.52Zm-4.846-.357a3.981 3.981 0 0 1 5.128.024L42.734 42.78c.282.24.113.7-.257.7H5.55a.397.397 0 0 1-.255-.702l16.319-13.615Z" fill="#000"/><path d="m17.191 32.332-12.901-8.6v17.82c0 .609.709.94 1.176.551l11.725-9.77Z" fill="#fff" stroke="#000" stroke-width=".5"/><path fill-rule="evenodd" clip-rule="evenodd" d="m3.752 22.727 14.336 9.557L5.81 42.516c-.817.681-2.058.1-2.058-.963V22.727Zm1.075 2.009v16.817a.18.18 0 0 0 .294.138l11.173-9.31-11.467-7.645Z" fill="#000"/><path fill-rule="evenodd" clip-rule="evenodd" d="m3.534 22.32 14.919 9.945-12.504 10.42c-.959.798-2.415.116-2.415-1.132V22.319Zm.437.815v18.418a1.036 1.036 0 0 0 1.699.796l12.054-10.045-13.753-9.17Zm.638 1.193 12.05 8.033-11.23 9.357.204.246-.335.28-.246-.295a.398.398 0 0 1-.443-.396V24.328Zm.437.816v16.325L15.93 32.4 5.046 25.145Z" fill="#000"/><path d="M24.225 12.88c-.764 0-1.403.33-1.918.99-.521.653-.782 1.463-.782 2.431 0 .992.252 1.8.755 2.422.497.623 1.146.935 1.945.935.752 0 1.353-.318 1.803-.953.456-.635.684-1.476.684-2.522 0-1.016-.222-1.82-.666-2.413-.444-.593-1.051-.89-1.82-.89Zm.231-4.2c2.084 0 3.784.638 5.098 1.914 1.314 1.283 1.972 2.937 1.972 4.963 0 1.44-.234 2.556-.702 3.348-.468.792-1.125 1.188-1.972 1.188-.61 0-1.104-.172-1.483-.517-.385-.345-.6-.82-.648-1.424h-.036c-.48 1.276-1.302 1.914-2.469 1.914-.918 0-1.667-.35-2.247-1.052-.58-.702-.87-1.61-.87-2.722 0-1.119.29-2.035.87-2.749.586-.714 1.335-1.07 2.247-1.07a2.53 2.53 0 0 1 1.528.498c.456.34.767.778.932 1.316h.036v-1.615h.426v4.999c0 1.349.577 2.023 1.732 2.023.71 0 1.261-.36 1.652-1.08.39-.72.586-1.741.586-3.066 0-1.905-.622-3.46-1.865-4.663-1.237-1.204-2.839-1.806-4.805-1.806-1.965 0-3.597.669-4.893 2.005-1.291 1.331-1.937 3.015-1.937 5.054 0 2.129.634 3.862 1.901 5.198 1.267 1.33 2.901 1.996 4.903 1.996 1.255 0 2.22-.106 2.895-.317v.417c-.628.2-1.593.3-2.895.3-2.126 0-3.86-.705-5.205-2.114-1.344-1.41-2.016-3.236-2.016-5.48 0-2.166.684-3.95 2.052-5.353 1.367-1.403 3.105-2.105 5.213-2.105Z" fill="#ED1C24"/><path fill-rule="evenodd" clip-rule="evenodd" d="M26.354 13.034v-.72h1.143v5.357c0 .632.136 1.038.346 1.284.202.236.52.38 1.027.38.557 0 .997-.266 1.337-.892.35-.644.543-1.597.543-2.895 0-1.819-.59-3.277-1.756-4.406-1.161-1.13-2.67-1.704-4.556-1.704-1.874 0-3.411.633-4.636 1.896-1.22 1.257-1.835 2.848-1.835 4.804 0 2.052.608 3.692 1.802 4.951 1.193 1.253 2.73 1.885 4.643 1.885 1.242 0 2.164-.106 2.788-.301l.465-.146v1.167l-.25.08c-.682.216-1.692.316-3.003.316-2.214 0-4.046-.738-5.464-2.225-1.418-1.486-2.115-3.406-2.115-5.727 0-2.248.713-4.126 2.153-5.603 1.44-1.478 3.274-2.213 5.47-2.213 2.164 0 3.957.665 5.348 2.015 1.39 1.357 2.08 3.108 2.08 5.22 0 1.47-.238 2.66-.751 3.53-.526.89-1.294 1.365-2.28 1.365-.681 0-1.267-.195-1.724-.61a2.193 2.193 0 0 1-.529-.715 2.99 2.99 0 0 1-.672.744c-.482.373-1.06.553-1.712.553-1.023 0-1.874-.397-2.523-1.182-.644-.78-.952-1.773-.952-2.95 0-1.183.308-2.185.95-2.975l.001-.002c.654-.795 1.504-1.2 2.524-1.2.639 0 1.222.19 1.74.567l.002.002c.144.107.276.224.396.35Zm-2.129.205c-.642 0-1.181.27-1.636.851l-.002.003c-.463.58-.703 1.308-.703 2.208 0 .93.235 1.652.675 2.197l.001.002c.43.537.975.8 1.665.8.631 0 1.125-.258 1.51-.802l.002-.002c.4-.556.617-1.316.617-2.313 0-.967-.212-1.687-.595-2.198-.373-.499-.872-.746-1.534-.746Z" fill="#ED1C24"/><path d="M24.225 12.88c-.764 0-1.403.33-1.918.99-.521.653-.782 1.463-.782 2.431 0 .992.252 1.8.755 2.422.497.623 1.146.935 1.945.935.752 0 1.353-.318 1.803-.953.456-.635.684-1.476.684-2.522 0-1.016-.222-1.82-.666-2.413-.444-.593-1.051-.89-1.82-.89Zm.231-4.2c2.084 0 3.784.638 5.098 1.914 1.314 1.283 1.972 2.937 1.972 4.963 0 1.44-.234 2.556-.702 3.348-.468.792-1.125 1.188-1.972 1.188-.61 0-1.104-.172-1.483-.517-.385-.345-.6-.82-.648-1.424h-.036c-.48 1.276-1.302 1.914-2.469 1.914-.918 0-1.667-.35-2.247-1.052-.58-.702-.87-1.61-.87-2.722 0-1.119.29-2.035.87-2.749.586-.714 1.335-1.07 2.247-1.07a2.53 2.53 0 0 1 1.528.498c.456.34.767.778.932 1.316h.036v-1.615h.426v4.999c0 1.349.577 2.023 1.732 2.023.71 0 1.261-.36 1.652-1.08.39-.72.586-1.741.586-3.066 0-1.905-.622-3.46-1.865-4.663-1.237-1.204-2.839-1.806-4.805-1.806-1.965 0-3.597.669-4.893 2.005-1.291 1.331-1.937 3.015-1.937 5.054 0 2.129.634 3.862 1.901 5.198 1.267 1.33 2.901 1.996 4.903 1.996 1.255 0 2.22-.106 2.895-.317v.417c-.628.2-1.593.3-2.895.3-2.126 0-3.86-.705-5.205-2.114-1.344-1.41-2.016-3.236-2.016-5.48 0-2.166.684-3.95 2.052-5.353 1.367-1.403 3.105-2.105 5.213-2.105Z" stroke="#ED1C24" stroke-width=".5"/><path clip-rule="evenodd" d="M26.354 13.034v-.72h1.143v5.357c0 .632.136 1.038.346 1.284.202.236.52.38 1.027.38.557 0 .997-.266 1.337-.892.35-.644.543-1.597.543-2.895 0-1.819-.59-3.277-1.756-4.406-1.161-1.13-2.67-1.704-4.556-1.704-1.874 0-3.411.633-4.636 1.896-1.22 1.257-1.835 2.848-1.835 4.804 0 2.052.608 3.692 1.802 4.951 1.193 1.253 2.73 1.885 4.643 1.885 1.242 0 2.164-.106 2.788-.301l.465-.146v1.167l-.25.08c-.682.216-1.692.316-3.003.316-2.214 0-4.046-.738-5.464-2.225-1.418-1.486-2.115-3.406-2.115-5.727 0-2.248.713-4.126 2.153-5.603 1.44-1.478 3.274-2.213 5.47-2.213 2.164 0 3.957.665 5.348 2.015 1.39 1.357 2.08 3.108 2.08 5.22 0 1.47-.238 2.66-.751 3.53-.526.89-1.294 1.365-2.28 1.365-.681 0-1.267-.195-1.724-.61a2.193 2.193 0 0 1-.529-.715 2.99 2.99 0 0 1-.672.744c-.482.373-1.06.553-1.712.553-1.023 0-1.874-.397-2.523-1.182-.644-.78-.952-1.773-.952-2.95 0-1.183.308-2.185.95-2.975l.001-.002c.654-.795 1.504-1.2 2.524-1.2.639 0 1.222.19 1.74.567l.002.002c.144.107.276.224.396.35Zm-2.129.205c-.642 0-1.181.27-1.636.851l-.002.003c-.463.58-.703 1.308-.703 2.208 0 .93.235 1.652.675 2.197l.001.002c.43.537.975.8 1.665.8.631 0 1.125-.258 1.51-.802l.002-.002c.4-.556.617-1.316.617-2.313 0-.967-.212-1.687-.595-2.198-.373-.499-.872-.746-1.534-.746Z" stroke="#ED1C24" stroke-width=".5"/></svg>