<svg width="300" height="200" fill="none" xmlns="http://www.w3.org/2000/svg"><rect width="300" height="200" rx="10" fill="#F0F0F0"/><rect x="50.5" y="10.5" width="64" height="62" rx="9.5" fill="#fff" stroke="#2D2D2D"/><rect x="60.5" y="17.5" width="64" height="62" rx="9.5" fill="#F0F0F0" stroke="#2D2D2D"/><rect x="71.5" y="22.5" width="64" height="62" rx="9.5" fill="#2D2D2D" stroke="#2D2D2D"/><rect x="85.5" y="25.5" width="64" height="62" rx="9.5" fill="#fff" stroke="#2D2D2D"/><rect x="97.5" y="30.5" width="64" height="62" rx="9.5" fill="#fff" stroke="#2D2D2D"/><rect x="112.5" y="35.5" width="64" height="62" rx="9.5" fill="#E6E6E6" stroke="#2D2D2D"/><rect x="129.5" y="39.5" width="64" height="62" rx="9.5" fill="#fff" stroke="#2D2D2D"/><rect x="146.5" y="45.5" width="64" height="62" rx="9.5" fill="#fff" stroke="#2D2D2D"/><rect x="164.5" y="51.5" width="64" height="62" rx="9.5" fill="#2D2D2D" stroke="#2D2D2D"/><rect x="185.5" y="57.5" width="64" height="62" rx="9.5" fill="#E6E6E6" stroke="#2D2D2D"/><rect x="177.5" y="68.5" width="64" height="62" rx="9.5" fill="#fff" stroke="#2D2D2D"/><rect x="164.5" y="77.5" width="64" height="62" rx="9.5" fill="#fff" stroke="#2D2D2D"/><rect x="153.5" y="88.5" width="64" height="62" rx="9.5" fill="#E6E6E6" stroke="#2D2D2D"/><rect x="140.5" y="100.5" width="64" height="62" rx="9.5" fill="#fff" stroke="#2D2D2D"/><rect x="115.5" y="119.5" width="64" height="62" rx="9.5" fill="#fff" stroke="#2D2D2D"/><path d="m171 194-10-37 38.5 10-12.5 9 9 9.5-6 6-10-9.5-9 12Z" fill="#ED1C24"/><path fill-rule="evenodd" clip-rule="evenodd" d="M66 142.5h-.017l-.012.001-.016.001-.02.001-.023.001-.027.002-.03.003-.034.003-.037.004-.041.005-.044.006-.048.007-.05.008-.055.009-.058.009-.06.012-.064.012-.067.014-.07.015-.074.017-.076.018-.08.02-.082.021-.085.023-.088.025-.09.027-.093.028-.096.031-.098.032-.101.034-.104.036-.105.039-.108.04-.11.042-.112.045-.114.047-.116.049-.118.051-.12.054-.122.055-.123.059-.125.06-.126.063-.128.065-.129.067-.13.07-.131.072-.133.074-.133.077-.134.079-.135.082-.136.084-.137.086-.137.088-.137.091-.138.093-.138.096-.139.097-.138.1-.139.102-.138.104-.139.106-.138.109-.138.11-.137.112-.137.115-.137.116-.136.118-.135.12-.135.122-.134.123-.133.125-.131.127-.131.128-.13.13-.128.131-.128.133-.126.133-.124.135-.124.137-.122.137-.12.138-.118.139-.117.141-.116.14-.113.142-.112.142-.11.143-.108.143-.106.144-.104.144-.102.144-.1.144-.098.145-.096.144-.094.144-.092.144-.09.144-.087.143-.085.143-.083.142-.08.142-.079.14-.076.14-.074.139-.072.138-.069.137-.067.136-.065.134-.063.134-.06.131-.058.13-.056.129-.054.126-.051.125-.05.124-.047.121-.045.119-.043.117-.041.114-.039.113-.037.11-.035.108-.033.105-.03.103-.03.1-.028.097-.025.095-.024.091-.023.089-.02.086-.02.083-.017.08-.016.076-.015.074-.013.07-.012.067-.011.063-.01.06-.008.057-.008.054-.006.049-.006.047-.005.042-.004.04-.003.035-.003.032-.002.028-.001.025-.002.021v.04l-.001.006V155v-.029l-.002-.016v-.021l-.002-.024-.002-.027-.002-.031-.004-.035-.004-.039-.004-.042-.006-.046-.006-.049-.007-.053-.009-.056-.01-.06-.01-.063-.012-.066-.013-.07-.014-.073-.016-.076-.018-.079-.019-.083-.02-.085-.022-.088-.024-.092-.025-.094-.027-.097-.03-.099-.03-.102-.033-.105-.035-.108-.036-.109-.039-.112-.04-.115-.043-.116-.045-.119-.047-.121-.049-.123-.05-.124-.054-.127-.056-.128-.058-.13-.06-.131-.062-.133-.064-.134-.067-.136-.07-.137-.07-.138-.074-.138-.076-.14-.078-.141-.08-.141-.083-.143-.085-.142-.087-.143-.089-.144-.091-.144-.094-.144-.095-.144-.098-.145-.1-.144-.102-.144-.103-.144-.106-.144-.108-.143-.11-.143-.111-.142-.113-.142-.115-.141-.117-.14-.118-.14-.12-.138-.122-.138-.123-.136-.124-.135-.126-.134-.127-.133-.129-.131-.13-.13-.13-.129-.132-.127-.132-.125-.134-.124-.134-.122-.135-.12-.136-.118-.137-.117-.137-.115-.137-.112-.138-.111-.138-.109-.139-.106-.138-.105-.139-.102-.138-.1-.139-.098-.138-.096-.138-.093-.137-.091-.138-.089-.136-.087-.136-.084-.135-.082-.135-.079-.133-.078-.133-.074-.131-.073-.13-.07-.13-.068-.128-.065-.126-.063-.125-.061-.124-.058-.122-.057-.12-.053-.118-.052-.116-.049-.115-.048-.112-.045-.11-.042-.109-.041-.106-.039-.103-.036-.102-.035-.098-.032-.097-.031-.093-.029-.091-.027-.088-.025-.086-.023-.083-.022-.08-.02-.076-.018-.074-.017-.07-.016-.068-.014-.065-.012-.061-.012-.058-.01-.055-.009-.051-.008-.048-.007-.045-.006-.042-.005-.037-.004-.035-.003-.03-.003-.028-.002-.024-.002-.02-.001-.017-.001-.013-.001H42h.014l.012-.001h.016l.02-.002.022-.001.026-.002.03-.003.033-.003.037-.004.04-.005.044-.005.047-.007.05-.007.054-.009.057-.01.06-.011.064-.012.066-.014.07-.015.073-.016.076-.018.079-.02.081-.021.085-.023.087-.024.09-.027.093-.028.096-.03.098-.032.1-.034.103-.035.105-.038.108-.04.11-.043.111-.044.114-.046.116-.049.117-.051.12-.053.121-.055.123-.058.125-.06.126-.063.127-.064.129-.067.13-.07.131-.071.132-.074.134-.077.134-.079.135-.081.136-.083.136-.086.137-.088.137-.091.138-.092.138-.095.138-.098.139-.099.139-.102.138-.103.139-.106.138-.108.138-.11.137-.112.138-.114.136-.116.136-.118.136-.12.134-.121.134-.123.133-.125.132-.127.131-.128.13-.129.129-.131.128-.132.126-.134.125-.135.123-.136.122-.137.12-.138.12-.139.117-.14.115-.141.114-.142.112-.142.11-.142.109-.144.106-.143.105-.144.102-.144.1-.144.099-.145.096-.144.094-.144.092-.144.09-.144.088-.143.085-.143.084-.143.08-.141.08-.141.076-.14.074-.139.072-.139.07-.137.068-.136.065-.134.063-.134.06-.131.059-.131.056-.128.054-.128.052-.125.05-.123.047-.122.046-.119.043-.117.042-.115.039-.113.037-.111.035-.108.034-.106.031-.103.03-.1.027-.098.026-.095.025-.092.022-.089.021-.087.02-.083.017-.08.017-.077.015-.074.013-.071.012-.067.011-.064.01-.061.009-.058.008-.053.006-.051.006-.047.005-.043.004-.04.004-.036.002-.032.002-.029.002-.025.001-.022.001-.017v-.025l.001-.006V130v.026l.001.016.001.02.002.023.002.027.002.031.003.035.004.038.004.041.006.045.006.049.007.052.008.056.01.059.01.063.012.065.013.07.014.072.016.076.017.078.019.082.02.085.021.088.024.091.025.093.027.097.029.099.03.102.032.104.035.107.036.11.038.111.04.114.043.117.044.118.047.121.049.122.05.124.054.127.055.128.057.129.06.131.062.133.064.134.066.135.07.137.07.137.073.139.076.14.077.14.08.142.083.142.084.142.087.143.088.144.091.144.094.144.095.144.097.145.1.144.101.144.104.144.105.144.108.143.109.143.111.143.113.141.115.142.116.14.118.139.12.139.121.138.123.136.124.136.126.134.127.133.128.131.13.131.13.128.131.128.133.125.133.124.135.122.135.121.136.119.136.116.137.115.137.113.138.111.138.109.139.107.138.105.139.103.138.1.139.098.138.096.138.094.138.092.137.089.136.087.136.085.136.082.134.08.134.077.133.076.132.072.13.071.13.068.127.066.127.063.125.061.124.059.122.057.12.054.12.052.116.05.115.047.113.046.11.043.109.041.106.039.104.037.102.034.099.033.096.031.094.029.092.027.089.026.085.023.084.022.08.021.077.018.074.018.072.015.068.014.065.013.061.012.06.01.054.01.052.008.049.007.045.006.042.005.038.004.035.004.032.003.028.002.024.002.021.001.017.001h.014l.01.001H66Zm205-107h-.029l-.016.002h-.02l-.023.002-.027.002-.03.003-.034.003-.037.005-.041.004-.044.006-.048.007-.051.008-.054.008-.058.01-.06.012-.064.012-.067.014-.071.015-.073.017-.076.018-.08.02-.082.021-.085.023-.088.025-.09.027-.093.028-.096.03-.098.033-.101.034-.104.036-.105.039-.108.04-.11.042-.112.045-.114.047-.116.049-.118.051-.12.054-.122.055-.123.059-.125.06-.126.063-.128.065-.129.067-.13.07-.131.072-.133.074-.133.077-.134.08-.135.08-.136.085-.137.086-.137.088-.137.091-.138.093-.138.096-.139.097-.138.1-.139.102-.138.104-.139.106-.138.109-.138.11-.137.112-.137.115-.137.116-.136.118-.135.12-.135.122-.134.123-.132.125-.132.127-.131.128-.13.13-.128.131-.128.133-.126.133-.124.135-.124.137-.121.137-.121.138-.118.14-.117.14-.116.14-.113.142-.112.142-.11.143-.108.143-.106.144-.104.144-.102.144-.1.144-.098.145-.096.144-.094.144-.092.144-.089.144-.088.143-.085.143-.083.142-.08.142-.079.14-.076.14-.074.14-.072.137-.069.137-.067.136-.065.135-.063.133-.06.131-.058.13-.056.129-.054.127-.051.124-.05.123-.047.122-.045.119-.043.117-.041.114-.039.113-.037.11-.035.108-.033.105-.031.103-.029.1-.028.097-.025.095-.024.091-.023.09-.02.085-.019.083-.018.08-.016.076-.015.074-.013.07-.012.067-.011.063-.01.06-.008.057-.008.054-.006.05-.006.046-.005.043-.004.039-.003.035-.003.032-.002.028-.001.025-.001.02-.001.018-.001.013V48v-.016l-.001-.013v-.016l-.002-.02-.001-.025-.002-.027-.003-.032-.003-.035-.004-.038-.004-.042-.006-.046-.006-.05-.007-.052-.009-.056-.009-.06-.011-.063-.012-.066-.013-.07-.015-.073-.015-.076-.018-.08-.019-.082-.02-.085-.022-.088-.024-.092-.025-.094-.027-.096-.029-.1-.031-.102-.033-.105-.034-.108-.037-.11-.039-.111-.04-.115-.043-.117-.045-.118-.047-.121-.049-.123-.051-.124-.053-.127-.056-.128-.058-.13-.06-.131-.062-.133-.064-.134-.067-.136-.069-.137-.072-.138-.073-.139-.076-.14-.078-.14-.08-.141-.083-.142-.085-.143-.087-.143-.089-.144-.091-.144-.094-.144-.095-.144-.098-.145-.1-.144-.102-.144-.103-.144-.106-.144-.108-.143-.11-.143-.111-.142-.113-.142-.115-.141-.117-.14-.118-.14-.12-.138-.122-.138-.123-.136-.124-.135-.126-.134-.127-.133-.129-.131-.129-.13-.131-.129-.132-.127-.132-.125-.134-.124-.134-.122-.135-.12-.136-.118-.137-.117-.137-.115-.137-.112-.138-.111-.138-.109-.139-.106-.138-.105-.139-.102-.138-.1-.139-.098-.138-.096-.138-.093-.138-.091-.137-.09-.136-.086-.136-.084-.135-.082-.135-.08-.133-.077-.133-.074-.131-.073-.131-.07-.129-.068-.128-.065-.126-.063-.125-.061-.124-.059-.122-.056-.12-.053-.118-.052-.116-.05-.115-.047-.112-.045-.111-.042-.108-.041-.106-.039-.103-.036-.102-.035-.098-.032-.097-.031-.093-.029-.091-.027-.088-.025-.086-.023-.083-.022-.079-.02-.077-.018-.074-.017-.071-.016-.067-.014-.065-.012-.061-.012-.058-.01-.055-.009-.051-.008-.048-.007-.045-.006-.042-.005-.037-.004-.035-.003-.031-.003-.027-.002-.024-.002-.02-.001-.017-.001h-.023l-.006-.001H247h.026l.016-.002h.019l.023-.002.026-.002.03-.003.033-.003.037-.004.04-.005.044-.005.047-.007.05-.008.054-.008.057-.01.06-.01.064-.013.066-.014.07-.015.073-.016.076-.018.079-.02.081-.02.085-.024.087-.024.09-.027.093-.028.096-.03.098-.032.1-.034.103-.035.105-.038.108-.04.109-.043.112-.044.114-.046.116-.049.117-.05.12-.054.121-.056.123-.057.125-.06.126-.063.127-.064.129-.067.13-.07.131-.071.132-.075.134-.076.134-.079.135-.08.135-.084.137-.086.137-.088.137-.09.138-.093.138-.095.138-.098.139-.099.139-.102.138-.103.139-.106.138-.108.138-.11.137-.112.138-.114.136-.116.136-.118.136-.12.134-.121.134-.123.133-.125.132-.127.131-.128.13-.13.129-.13.128-.132.126-.134.125-.135.123-.136.122-.137.121-.138.118-.14.118-.14.115-.14.114-.142.112-.142.11-.142.109-.144.106-.143.104-.144.103-.144.1-.145.099-.144.096-.144.094-.144.092-.144.09-.144.088-.143.085-.143.084-.143.081-.141.078-.141.077-.14.074-.14.072-.138.07-.137.068-.136.065-.134.063-.134.06-.131.059-.13.056-.13.054-.127.052-.125.05-.123.048-.122.045-.119.043-.117.042-.115.039-.113.037-.11.035-.109.034-.106.031-.103.03-.1.027-.098.026-.095.025-.092.022-.09.021-.086.019-.083.018-.08.017-.077.015-.074.013-.07.012-.068.011-.064.01-.061.009-.057.008-.054.006-.05.006-.048.005-.043.004-.04.004-.036.002-.032.002-.03.002-.024.001-.022.001-.017.001-.014V23v.014l.001.012v.016l.001.02.002.023.002.027.002.031.003.035.004.038.004.041.006.045.006.05.007.051.008.056.01.06.01.062.012.065.013.07.014.072.016.076.017.078.018.082.021.085.021.088.024.09.025.094.027.097.029.099.03.102.032.104.035.107.036.11.038.111.041.114.042.117.044.118.047.12.049.123.051.124.053.127.055.127.057.13.06.131.062.133.064.134.066.135.069.137.071.137.073.14.076.139.077.14.08.142.083.142.084.142.087.143.088.144.091.144.094.144.095.144.097.145.1.144.101.144.104.144.105.144.108.143.109.143.111.143.113.141.115.142.116.14.118.14.12.138.121.138.123.136.124.136.126.134.127.133.128.131.129.13.131.13.131.127.133.125.133.124.135.122.135.12.136.12.136.117.137.114.137.113.138.111.138.11.139.106.138.105.139.103.138.1.139.098.138.096.138.094.138.092.137.089.136.087.136.084.136.083.134.08.134.077.133.075.132.073.13.07.129.069.129.066.126.063.125.061.124.06.122.056.121.054.118.052.117.05.115.047.113.046.11.043.109.04.106.04.104.036.102.035.099.033.096.031.094.03.092.026.089.026.085.023.084.022.08.02.077.02.074.017.072.015.068.014.065.013.061.012.059.01.055.01.052.008.049.007.045.006.042.005.039.004.034.004.032.003.028.002.024.002.021.001h.017l.014.002h.02Z" fill="#2D2D2D"/></svg>