<svg width="542" height="335" fill="none" xmlns="http://www.w3.org/2000/svg"><path fill="#C4C4C4" d="M0 0h542v335H0z"/><path fill="#91C2EA" d="M0 0h542v335H0z"/><mask id="a" style="mask-type:alpha" maskUnits="userSpaceOnUse" x="0" y="0" width="542" height="335"><path fill="#ED1C24" d="M0 0h542v335H0z"/></mask><g mask="url(#a)" fill-rule="evenodd" clip-rule="evenodd"><path d="M834.86 29.796 13.46 360.04l-.588-1.536 821.4-330.244.588 1.536Z" fill="url(#b)"/><path d="M791.762 25.992 56.501 363.813l-.659-1.505L791.104 24.487l.658 1.505Z" fill="url(#c)"/><path d="M753.812 19.66 94.66 370.103l-.74-1.464L753.07 18.195l.741 1.465Z" fill="url(#d)"/><path d="M720.365 10.805 128.073 378.907l-.835-1.411L719.531 9.394l.834 1.411Z" fill="url(#e)"/><path d="M691.028-.705 157.513 390.483l-.937-1.342L690.092-2.047l.936 1.342Z" fill="url(#f)"/><path d="M665.406-15.274 183.237 404.831l-1.042-1.257L664.364-16.531l1.042 1.257Z" fill="url(#g)"/><path d="M643.11-32.895 205.64 422.354l-1.147-1.157 437.471-455.25 1.146 1.158Z" fill="url(#h)"/><path d="M623.872-53.838 224.976 443.323l-1.243-1.048L622.63-54.885l1.242 1.047Z" fill="url(#i)"/><path d="M607.426-78.504 241.633 467.872l-1.327-.933L606.099-79.438l1.327.934Z" fill="url(#j)"/><path d="M593.508-107.432 255.621 496.551l-1.396-.82 337.887-603.984 1.396.821Z" fill="url(#k)"/><path d="M581.853-140.753 267.198 529.768l-1.45-.715 314.654-670.521 1.451.715Z" fill="url(#l)"/></g><path fill-rule="evenodd" clip-rule="evenodd" d="M134.954 265.907h34.892v34.424h-34.892v-34.424Z" fill="#000"/><path fill-rule="evenodd" clip-rule="evenodd" d="M135.963 266.902h32.873v32.434h-32.873v-32.434Z" fill="#FFF200"/><path fill-rule="evenodd" clip-rule="evenodd" d="m137.708 292.783 4.288 4.312 10.047-10.057 10.383 10.265 4.351-4.251-10.279-10.14 1.976-1.887v-4.023l1.241-1.037v3.152l1.597 1.285 4.771-4.707 1.534 1.161c.904-3.297-4.33-10.783-8.659-6.635l-5.045 4.935 1.03 1.224-2.565 2.467-2.479-2.406 1.303-1.162-5.528-5.266c-4.162-3.381-8.429 1.763-8.576 6.781l1.513-1.244 4.645 4.936 1.66-1.368v-3.028l1.03.766v3.962l2.017 1.99-10.255 9.975Zm41.05-22.749v2.986h1.303c1.786-.332 1.303-2.862 0-2.986h-1.303Zm-3.7-2.966v13.521h3.7v-4.396l3.152 4.396h4.373l-3.888-5.412c4.498-2.156 2.816-8.046-1.913-8.108h-5.424v-.001Zm17.11 6.76c1.219 0 2.206.913 2.206 2.033 0 1.119-.988 2.032-2.206 2.032-1.198 0-2.186-.913-2.186-2.032 0-1.12.988-2.033 2.186-2.033Zm-.778-2.986c1.009 0 1.954.332 2.732.871v-.518h3.615l.021 9.394h-3.657l.021-.581a4.787 4.787 0 0 1-2.732.851c-2.691 0-4.897-2.24-4.897-4.998s2.207-5.019 4.897-5.019Zm8.281.353h3.847v9.394h-3.847v-9.394Zm1.933-5.371c1.115 0 2.019.912 2.019 2.011a2.023 2.023 0 0 1-2.019 2.012 2.028 2.028 0 0 1-2.038-2.012c0-1.098.904-2.011 2.038-2.011Zm29.196 5.371h3.847v9.394H230.8v-9.394Zm1.913-5.371c1.135 0 2.039.912 2.039 2.011 0 1.099-.904 2.012-2.039 2.012a2.023 2.023 0 0 1-2.018-2.012c0-1.098.904-2.011 2.018-2.011Zm-28.481 5.371v2.986h1.325v6.408h3.721v-6.408h3.489v6.408h3.846v-6.449h2.396v-2.904h-2.502v-2.094c-.063-.767 1.766-1.078 2.397-.456v-3.07c-3.531-1.099-6.39.872-6.369 3.92v1.659h-3.279v-2.053c-.043-.767 1.556-1.078 2.479-.456v-3.07c-3.069-.891-6.347.581-6.326 3.899v1.659l-1.177.021Zm20.262 9.664c3.301-.021 4.519-1.369 5.234-3.339h-3.341c-1.514 1.908-3.721.518-3.616-1.037h7.063c0-3.816-2.06-5.62-5.339-5.62-3.278 0-5.338 2.281-5.338 5.06 0 2.779 2.395 4.956 5.337 4.936Zm-1.24-6.595c.042-1.141 2.565-1.141 2.732 0h-2.732Zm27.43 6.595c3.321-.021 4.54-1.369 5.254-3.339h-3.363c-1.513 1.908-3.72.518-3.614-1.037h7.063c0-3.816-2.039-5.62-5.339-5.62-3.279 0-5.339 2.281-5.339 5.06 0 2.779 2.395 4.956 5.338 4.936Zm-1.24-6.595c.042-1.141 2.564-1.141 2.732 0h-2.732Zm-5.107-2.882-1.136 2.281c-1.429-.436-2.817-.352-2.774.041.042.249-.189.684 2.038.996 3.321.518 3.048 6.615-2.522 6.159-1.534-.104-2.774-.498-3.804-1.1l1.241-2.447c1.744.85 3.425 1.348 3.551.498.148-1.058-1.828-.684-3.026-1.577-2.144-1.306-.926-5.35 2.585-5.392 1.24-.081 2.522.126 3.847.541Zm13.157-.187v9.394h3.595v-5.745c.105-1.431 2.963-1.68 2.985 0v5.745h3.635V274.7c-.084-3.297-3.594-4.894-6.768-2.8v-.705h-3.447Zm-80.313 15.138-2.396 13.936h6.789c4.604 0 6.495-5.64 3.216-7.569 2.796-2.551 1.366-6.387-1.639-6.429l-5.97.062Zm2.753 8.316-.483 2.302h1.576c1.787.083 1.577-2.302.547-2.302h-1.64Zm.799-4.998-.399 1.867.483.02c1.451.083 2.291-1.887.547-1.887h-.631Zm5.591 10.639h4.12l1.24-2.448h4.666l.694 2.489h3.804l-3.3-13.915h-3.889l-7.335 13.874Zm6.705-5.371h2.565l-.82-3.672-1.745 3.672Zm9.122 5.412h3.805l.966-8.73 5.444 8.689h4.078l1.702-13.958h-3.804l-1.072 8.731-5.444-8.772h-3.931l-1.744 14.04Zm18.728-14.04-2.669 13.999h4.015l1.071-5.227 3.594 5.227h5.276l-5.149-7.342 6.579-6.677h-5.108l-4.498 4.935.714-4.935-3.825.02Z" fill="#000"/><path d="M69.297 297.463v-1.005c-.698 1.094-1.647 1.794-2.847 2.063-1.2.27-2.38.18-3.544-.287-1.182-.466-2.184-1.346-3.026-2.62-.84-1.274-1.27-2.943-1.27-5.025 0-2.44.554-4.397 1.664-5.922 1.11-1.508 2.9-2.261 5.37-2.261 1.88 0 3.617.502 5.228 1.525 1.611 1.023 2.399 2.907 2.399 5.653v8.291c0 2.746-.806 4.613-2.399 5.618-1.611 1.005-3.348 1.507-5.227 1.507-3.598 0-5.836-1.687-6.695-5.061h4.278c.304.557.788.969 1.432 1.274.645.288 1.29.377 1.934.234.644-.144 1.235-.521 1.754-1.149.555-.646.86-1.579.949-2.835Zm-6.695-6.766c0 2.71.787 4.217 2.345 4.504 1.557.288 2.72-.071 3.455-1.094.358-.431.608-1.113.77-2.028a8.83 8.83 0 0 0 .035-2.746 5.597 5.597 0 0 0-.966-2.405c-.502-.7-1.254-1.059-2.238-1.059-1.325 0-2.238.485-2.703 1.472-.466.969-.698 2.1-.698 3.356Zm25.008 7.699h-2.06c-.59 0-1.074-.18-1.432-.557-.376-.376-.555-.861-.555-1.435V288.4c0-.933-.286-1.633-.86-2.064a3.084 3.084 0 0 0-1.915-.646c-.698 0-1.325.215-1.88.646-.554.431-.823 1.113-.823 2.064v10.014H73.97v-9.189c0-2.674.698-4.45 2.076-5.348 1.397-.897 2.918-1.4 4.601-1.471 1.719 0 3.312.448 4.762 1.346 1.45.897 2.166 2.728 2.166 5.473v9.171h.036Zm1.002-14.285h4.118v14.303h-4.118v-14.303Zm11.672 14.285a33.365 33.365 0 0 1-4.189-.054c-1.503-.126-2.255-1.077-2.255-2.89v-15.308h2.112c.501 0 .967.198 1.343.592.394.395.59.862.59 1.418v.539h2.399v.825c0 .592-.197 1.077-.59 1.436-.394.377-.86.556-1.415.556h-.411v8.812c0 .664.394 1.005 1.181 1.005h1.235v3.069Z" fill="#fff"/><path d="M111.49 293.568h2.936c-.429 1.651-1.253 2.907-2.47 3.769-1.217.897-2.739 1.346-4.583 1.346-2.238 0-3.974-.718-5.227-2.172-1.253-1.417-1.88-3.427-1.88-6.066 0-2.512.609-4.468 1.826-5.886 1.253-1.454 2.99-2.171 5.227-2.171 2.346 0 4.171.7 5.46 2.117 1.253 1.454 1.88 3.464 1.88 6.066v.646c0 .198-.018.341-.054.413h-10.15c.036 1.22.34 2.118.877 2.71.502.628 1.271.933 2.292.933.662 0 1.235-.144 1.7-.413a.643.643 0 0 0 .323-.215l.322-.323c.036-.126.179-.269.447-.467.251-.179.609-.287 1.074-.287Zm-7.035-4.576h5.997c-.071-1.059-.358-1.849-.823-2.351-.502-.556-1.235-.826-2.166-.826-.86 0-1.558.27-2.113.826-.573.538-.859 1.328-.895 2.351Zm-50.841-12.078h2.112c.555 0 1.02.198 1.414.593.394.394.591.861.591 1.417v19.49h-4.117v-21.5Zm34.998 3.231h2.113c.555 0 1.02.197 1.414.592.394.395.59.861.59 1.418v1.238h-4.117v-3.248Zm-24.597.215h-.644v-.466c-.322.359-.77.538-1.325.538-.519 0-.966-.179-1.342-.52-.394-.377-.591-.844-.591-1.418 0-.592.215-1.077.626-1.454.376-.359.842-.52 1.36-.52.538 0 .968.179 1.29.556v-.467h.644v3.751h-.018Zm-.662-1.866a1.38 1.38 0 0 0-.358-.933 1.2 1.2 0 0 0-.895-.377c-.376 0-.68.125-.949.395-.25.251-.376.52-.376.807 0 .377.108.7.34.969.233.287.537.413.913.413.358 0 .663-.126.931-.377.269-.233.394-.538.394-.897Zm5.317-.108c0 .592-.18 1.077-.537 1.454-.376.395-.842.592-1.432.592-.537 0-.95-.179-1.271-.52v1.686h-.68v-5.007h.644v.449c.16-.179.358-.305.555-.395.215-.089.43-.125.68-.125.52 0 .984.179 1.378.52.448.359.663.808.663 1.346Zm-.698.09c0-.359-.126-.664-.376-.915a1.279 1.279 0 0 0-.931-.377c-.376 0-.68.143-.931.412a1.28 1.28 0 0 0-.34.898c0 .323.09.592.286.843.233.287.573.431 1.02.431.359 0 .663-.126.913-.377.251-.233.359-.538.359-.915Zm5.192 1.884h-.645v-.466c-.322.359-.77.538-1.325.538-.519 0-.966-.179-1.342-.52-.394-.377-.59-.844-.59-1.418 0-.592.214-1.077.626-1.454.376-.359.841-.52 1.36-.52.537 0 .967.179 1.29.556v-.467h.644v3.751h-.018Zm-.645-1.866a1.38 1.38 0 0 0-.358-.933 1.199 1.199 0 0 0-.895-.377c-.376 0-.68.125-.949.395-.25.251-.376.52-.376.807 0 .377.108.7.34.969.233.287.537.413.913.413.358 0 .663-.126.931-.377.25-.233.394-.538.394-.897Zm5.137.628c-.215.431-.466.754-.752.969a1.913 1.913 0 0 1-1.163.359c-.52 0-.985-.18-1.379-.556-.412-.395-.626-.862-.626-1.436h.035s0 .018-.018.036c0-.592.197-1.077.61-1.454a1.81 1.81 0 0 1 1.288-.52c.465 0 .86.125 1.217.359.34.233.609.574.77 1.005h-.752c-.25-.449-.662-.682-1.217-.682-.358 0-.645.125-.877.377a1.305 1.305 0 0 0-.358.915c0 .359.125.682.376.933.25.251.555.377.913.377.232 0 .465-.054.68-.18a1.44 1.44 0 0 0 .501-.484h.752v-.018Zm3.885 1.238h-.68v-2.154c0-.287-.09-.538-.287-.717a.997.997 0 0 0-.716-.288c-.286 0-.519.09-.698.252a.905.905 0 0 0-.268.682v2.225h-.68v-5.007h.68v1.561a1.32 1.32 0 0 1 .984-.395c.43 0 .806.144 1.128.449.34.323.52.736.52 1.238v2.154h.017Zm4.439-1.615h-3.168c.054.323.215.574.466.772.232.161.483.251.751.251.251 0 .484-.072.717-.216.232-.143.393-.341.483-.574h.698c-.179.503-.465.862-.841 1.113-.323.215-.68.323-1.074.323-.502 0-.931-.18-1.29-.539a1.991 1.991 0 0 1-.572-1.435c0-.592.197-1.077.608-1.436a1.866 1.866 0 0 1 1.307-.502c.502 0 .95.161 1.307.502.412.377.627.897.627 1.543v.198h-.018Zm-.697-.628a1.208 1.208 0 0 0-.466-.682 1.216 1.216 0 0 0-.77-.269c-.358 0-.662.125-.895.359a1.224 1.224 0 0 0-.34.592h2.47Zm-49.535-3.015s-12.441 7.609-.716 15.164c2.256 1.472 10.437 5.564 10.204 9.35 0 0 4.959-7.358-2.291-11.988-7.448-4.738-9.31-9.798-7.197-12.526Zm-4.332 14.536s-4.44 6.748 4.296 8.13c.86.108 7.179.772 8.826 2.853 0 0-.143-3.589-5.299-5.707-5.138-2.117-7.25-2.638-7.823-5.276Z" fill="#fff"/><path d="M48.601 282.549c-5.334-5.599-6.82-9.062-4.529-13.549 0 0-15.914 6.138-.197 17.031 5.621 3.894 4.69 7.878 4.69 8.022.878-.915 5.371-5.904.036-11.504Z" fill="#fff"/><defs><linearGradient id="b" x1="419.552" y1="-138.945" x2="428.479" y2="527.239" gradientUnits="userSpaceOnUse"><stop stop-color="#0070CC"/><stop offset="1" stop-color="#B1C9DC"/></linearGradient><linearGradient id="c" x1="419.552" y1="-138.945" x2="428.479" y2="527.239" gradientUnits="userSpaceOnUse"><stop stop-color="#0070CC"/><stop offset="1" stop-color="#B1C9DC"/></linearGradient><linearGradient id="d" x1="419.552" y1="-138.945" x2="428.479" y2="527.239" gradientUnits="userSpaceOnUse"><stop stop-color="#0070CC"/><stop offset="1" stop-color="#B1C9DC"/></linearGradient><linearGradient id="e" x1="419.552" y1="-138.945" x2="428.479" y2="527.239" gradientUnits="userSpaceOnUse"><stop stop-color="#0070CC"/><stop offset="1" stop-color="#B1C9DC"/></linearGradient><linearGradient id="f" x1="419.552" y1="-138.945" x2="428.479" y2="527.239" gradientUnits="userSpaceOnUse"><stop stop-color="#0070CC"/><stop offset="1" stop-color="#B1C9DC"/></linearGradient><linearGradient id="g" x1="419.552" y1="-138.945" x2="428.479" y2="527.239" gradientUnits="userSpaceOnUse"><stop stop-color="#0070CC"/><stop offset="1" stop-color="#B1C9DC"/></linearGradient><linearGradient id="h" x1="419.552" y1="-138.945" x2="428.479" y2="527.239" gradientUnits="userSpaceOnUse"><stop stop-color="#0070CC"/><stop offset="1" stop-color="#B1C9DC"/></linearGradient><linearGradient id="i" x1="419.552" y1="-138.945" x2="428.479" y2="527.239" gradientUnits="userSpaceOnUse"><stop stop-color="#0070CC"/><stop offset="1" stop-color="#B1C9DC"/></linearGradient><linearGradient id="j" x1="419.552" y1="-138.945" x2="428.479" y2="527.239" gradientUnits="userSpaceOnUse"><stop stop-color="#0070CC"/><stop offset="1" stop-color="#B1C9DC"/></linearGradient><linearGradient id="k" x1="419.552" y1="-138.945" x2="428.479" y2="527.239" gradientUnits="userSpaceOnUse"><stop stop-color="#0070CC"/><stop offset="1" stop-color="#B1C9DC"/></linearGradient><linearGradient id="l" x1="419.552" y1="-138.945" x2="428.479" y2="527.239" gradientUnits="userSpaceOnUse"><stop stop-color="#0070CC"/><stop offset="1" stop-color="#B1C9DC"/></linearGradient></defs></svg>