<svg width="542" height="335" fill="none" xmlns="http://www.w3.org/2000/svg"><path fill="#0070CC" d="M0 0h542v335H0z"/><mask id="a" style="mask-type:alpha" maskUnits="userSpaceOnUse" x="277" y="149" width="265" height="186"><path fill="#0070CC" d="M277 149h265v186H277z"/></mask><g mask="url(#a)"><path d="M541.5 294.5c0 4.35-3.39 8.626-9.861 12.614-6.442 3.971-15.797 7.565-27.402 10.59-23.202 6.049-55.283 9.796-90.737 9.796-35.454 0-67.535-3.747-90.737-9.796-11.605-3.025-20.96-6.619-27.402-10.59-6.471-3.988-9.861-8.264-9.861-12.614 0-4.35 3.39-8.626 9.861-12.614 6.442-3.971 15.797-7.565 27.402-10.59 23.202-6.049 55.283-9.796 90.737-9.796 35.454 0 67.535 3.747 90.737 9.796 11.605 3.025 20.96 6.619 27.402 10.59 6.471 3.988 9.861 8.264 9.861 12.614Z" stroke="#fff"/><path d="M541.5 349.5c0 4.35-3.39 8.626-9.861 12.614-6.442 3.971-15.797 7.565-27.402 10.59-23.202 6.049-55.283 9.796-90.737 9.796-35.454 0-67.535-3.747-90.737-9.796-11.605-3.025-20.96-6.619-27.402-10.59-6.471-3.988-9.861-8.264-9.861-12.614 0-4.35 3.39-8.626 9.861-12.614 6.442-3.971 15.797-7.565 27.402-10.59 23.202-6.049 55.283-9.796 90.737-9.796 35.454 0 67.535 3.747 90.737 9.796 11.605 3.025 20.96 6.619 27.402 10.59 6.471 3.988 9.861 8.264 9.861 12.614Zm0-113c0 4.35-3.39 8.626-9.861 12.614-6.442 3.971-15.797 7.565-27.402 10.59-23.202 6.049-55.283 9.796-90.737 9.796-35.454 0-67.535-3.747-90.737-9.796-11.605-3.025-20.96-6.619-27.402-10.59-6.471-3.988-9.861-8.264-9.861-12.614 0-4.35 3.39-8.626 9.861-12.614 6.442-3.971 15.797-7.565 27.402-10.59 23.202-6.049 55.283-9.796 90.737-9.796 35.454 0 67.535 3.747 90.737 9.796 11.605 3.025 20.96 6.619 27.402 10.59 6.471 3.988 9.861 8.264 9.861 12.614Z" stroke="#fff"/><g filter="url(#b)"><ellipse cx="412.5" cy="202.5" rx="128.5" ry="33.5" fill="#fff" fill-opacity=".148"/></g></g><path d="M65.297 297.463v-1.005c-.698 1.094-1.647 1.794-2.847 2.063-1.2.27-2.38.18-3.544-.287-1.182-.466-2.184-1.346-3.026-2.62-.84-1.274-1.27-2.943-1.27-5.025 0-2.44.554-4.397 1.664-5.922 1.11-1.508 2.9-2.261 5.37-2.261 1.88 0 3.617.502 5.228 1.525 1.611 1.023 2.399 2.907 2.399 5.653v8.291c0 2.746-.806 4.613-2.399 5.618-1.611 1.005-3.348 1.507-5.227 1.507-3.599 0-5.836-1.687-6.695-5.061h4.278c.304.557.788.969 1.432 1.274.645.288 1.29.377 1.934.234.644-.144 1.235-.521 1.754-1.149.555-.646.86-1.579.949-2.835Zm-6.695-6.766c0 2.71.787 4.217 2.345 4.504 1.557.288 2.72-.071 3.455-1.094.358-.431.608-1.113.77-2.028a8.83 8.83 0 0 0 .035-2.746 5.597 5.597 0 0 0-.966-2.405c-.502-.7-1.254-1.059-2.238-1.059-1.325 0-2.238.485-2.703 1.472-.466.969-.698 2.1-.698 3.356Zm25.008 7.699h-2.06c-.59 0-1.074-.18-1.432-.557-.376-.376-.555-.861-.555-1.435V288.4c0-.933-.286-1.633-.86-2.064a3.084 3.084 0 0 0-1.915-.646c-.698 0-1.325.215-1.88.646-.554.431-.823 1.113-.823 2.064v10.014H69.97v-9.189c0-2.674.698-4.45 2.076-5.348 1.397-.897 2.918-1.4 4.601-1.471 1.719 0 3.312.448 4.762 1.346 1.45.897 2.166 2.728 2.166 5.473v9.171h.036Zm1.002-14.285h4.118v14.303h-4.118v-14.303Zm11.672 14.285a33.37 33.37 0 0 1-4.189-.054c-1.503-.126-2.255-1.077-2.255-2.89v-15.308h2.112c.501 0 .967.198 1.343.592.394.395.59.862.59 1.418v.539h2.4v.825c0 .592-.198 1.077-.591 1.436-.394.377-.86.556-1.415.556h-.411v8.812c0 .664.394 1.005 1.181 1.005h1.235v3.069Z" fill="#fff"/><path d="M107.49 293.568h2.936c-.429 1.651-1.253 2.907-2.47 3.769-1.217.897-2.739 1.346-4.583 1.346-2.238 0-3.974-.718-5.227-2.172-1.253-1.417-1.88-3.427-1.88-6.066 0-2.512.609-4.468 1.826-5.886 1.253-1.454 2.99-2.171 5.227-2.171 2.346 0 4.171.7 5.46 2.117 1.253 1.454 1.88 3.464 1.88 6.066v.646c0 .198-.018.341-.054.413h-10.15c.036 1.22.34 2.118.877 2.71.502.628 1.271.933 2.292.933.662 0 1.235-.144 1.7-.413a.643.643 0 0 0 .323-.215l.322-.323c.036-.126.179-.269.447-.467.251-.179.609-.287 1.074-.287Zm-7.035-4.576h5.997c-.071-1.059-.358-1.849-.823-2.351-.502-.556-1.235-.826-2.166-.826-.86 0-1.558.27-2.113.826-.573.538-.859 1.328-.895 2.351Zm-50.841-12.078h2.112c.555 0 1.02.198 1.414.593.394.394.591.861.591 1.417v19.49h-4.117v-21.5Zm34.998 3.231h2.113c.555 0 1.02.197 1.414.592.394.395.59.861.59 1.418v1.238h-4.117v-3.248Zm-24.597.215h-.644v-.466c-.322.359-.77.538-1.325.538-.519 0-.966-.179-1.342-.52-.394-.377-.591-.844-.591-1.418 0-.592.215-1.077.626-1.454.376-.359.842-.52 1.36-.52.538 0 .968.179 1.29.556v-.467h.644v3.751h-.018Zm-.662-1.866a1.38 1.38 0 0 0-.358-.933 1.2 1.2 0 0 0-.895-.377c-.376 0-.68.125-.949.395-.25.251-.376.52-.376.807 0 .377.108.7.34.969.233.287.537.413.913.413.358 0 .663-.126.931-.377.269-.233.394-.538.394-.897Zm5.317-.108c0 .592-.18 1.077-.537 1.454-.376.395-.842.592-1.432.592-.538 0-.95-.179-1.271-.52v1.686h-.68v-5.007h.644v.449c.16-.179.358-.305.555-.395.215-.089.43-.125.68-.125.52 0 .985.179 1.378.52.448.359.663.808.663 1.346Zm-.698.09c0-.359-.126-.664-.376-.915a1.279 1.279 0 0 0-.931-.377c-.376 0-.68.143-.931.412a1.28 1.28 0 0 0-.34.898c0 .323.09.592.286.843.233.287.573.431 1.02.431.359 0 .663-.126.913-.377.251-.233.359-.538.359-.915Zm5.192 1.884h-.645v-.466c-.322.359-.77.538-1.325.538-.519 0-.966-.179-1.342-.52-.394-.377-.59-.844-.59-1.418 0-.592.214-1.077.626-1.454.376-.359.841-.52 1.36-.52.537 0 .967.179 1.29.556v-.467h.644v3.751h-.018Zm-.645-1.866a1.38 1.38 0 0 0-.358-.933 1.199 1.199 0 0 0-.895-.377c-.376 0-.68.125-.949.395-.25.251-.376.52-.376.807 0 .377.108.7.34.969.233.287.537.413.913.413.358 0 .663-.126.931-.377.25-.233.394-.538.394-.897Zm5.137.628c-.215.431-.466.754-.752.969a1.913 1.913 0 0 1-1.163.359c-.52 0-.985-.18-1.379-.556-.412-.395-.626-.862-.626-1.436h.035s0 .018-.018.036c0-.592.197-1.077.61-1.454a1.81 1.81 0 0 1 1.288-.52c.465 0 .86.125 1.217.359.34.233.609.574.77 1.005h-.752c-.25-.449-.662-.682-1.217-.682-.358 0-.645.125-.877.377a1.305 1.305 0 0 0-.358.915c0 .359.125.682.376.933.25.251.555.377.913.377.232 0 .465-.054.68-.18a1.44 1.44 0 0 0 .501-.484h.752v-.018Zm3.885 1.238h-.68v-2.154c0-.287-.09-.538-.287-.717a.997.997 0 0 0-.716-.288c-.286 0-.519.09-.698.252a.905.905 0 0 0-.268.682v2.225h-.68v-5.007h.68v1.561a1.32 1.32 0 0 1 .984-.395c.43 0 .806.144 1.128.449.34.323.52.736.52 1.238v2.154h.017Zm4.439-1.615h-3.168c.054.323.215.574.466.772.232.161.483.251.751.251.251 0 .484-.072.717-.216.232-.143.393-.341.483-.574h.698c-.179.503-.465.862-.841 1.113-.323.215-.68.323-1.074.323-.502 0-.931-.18-1.29-.539a1.991 1.991 0 0 1-.572-1.435c0-.592.197-1.077.608-1.436a1.866 1.866 0 0 1 1.307-.502c.502 0 .95.161 1.307.502.412.377.627.897.627 1.543v.198h-.018Zm-.697-.628a1.208 1.208 0 0 0-.466-.682 1.217 1.217 0 0 0-.77-.269c-.358 0-.662.125-.895.359a1.224 1.224 0 0 0-.34.592h2.47Zm-49.535-3.015s-12.442 7.609-.716 15.164c2.256 1.472 10.437 5.564 10.204 9.35 0 0 4.959-7.358-2.291-11.988-7.448-4.738-9.31-9.798-7.197-12.526Zm-4.332 14.536s-4.44 6.748 4.296 8.13c.86.108 7.179.772 8.826 2.853 0 0-.143-3.589-5.299-5.707-5.138-2.117-7.25-2.638-7.823-5.276Z" fill="#fff"/><path d="M44.601 282.549c-5.334-5.599-6.82-9.062-4.529-13.549 0 0-15.914 6.138-.197 17.031 5.621 3.894 4.69 7.878 4.69 8.022.878-.915 5.371-5.904.036-11.504Zm112.193 9.851h-12.276c.42 2.323 2.062 3.745 4.045 3.745 1.262 0 2.844-.16 4.005-2.143l3.805.801c-1.422 3.365-4.305 4.987-7.83 4.987-4.566 0-8.271-3.465-8.271-8.531 0-5.067 3.725-8.572 8.331-8.572 4.306 0 8.011 3.325 8.171 8.251v1.462h.02Zm-12.156-3.004h7.79c-.541-2.062-2.103-2.984-3.805-2.984-1.622.02-3.464.982-3.985 2.984Zm57.676 9.933h-4.266v-1.381c-1.302 1.201-3.064 1.882-5.327 1.882-4.105 0-7.91-3.465-7.91-8.531 0-5.067 3.805-8.571 7.91-8.571 2.263 0 4.045.68 5.327 1.882V277h4.266v22.329Zm-4.266-8.05c0-2.984-2.303-4.847-4.586-4.847-2.583 0-4.526 1.883-4.526 4.847 0 2.984 1.943 4.806 4.526 4.806 2.303 0 4.586-1.842 4.586-4.806Zm39.171-8.051h-5.887v3.565h5.887c1.643 0 2.744.701 2.744 2.323v.26h-4.646c-4.065 0-6.408 2.063-6.408 5.167 0 3.164 2.463 5.267 6.148 5.267 2.203 0 3.805-.741 4.906-1.802v1.321h4.085v-10.534c0-3.845-2.703-5.487-6.829-5.567Zm2.744 9.573c0 2.062-1.962 3.625-4.225 3.625-1.643 0-2.744-.782-2.744-1.963 0-1.102.901-1.842 2.263-1.842h4.726v.18h-.02Zm-27.957-9.573h-5.887v3.565h5.887c1.643 0 2.744.701 2.744 2.323v.26h-4.646c-4.065 0-6.409 2.063-6.409 5.167 0 3.164 2.464 5.267 6.149 5.267 2.202 0 3.805-.741 4.906-1.802v1.321h4.065v-10.534c0-3.845-2.703-5.487-6.809-5.567Zm2.744 9.573c0 2.062-1.963 3.625-4.226 3.625-1.642 0-2.743-.782-2.743-1.963 0-1.102.901-1.842 2.263-1.842h4.726v.18h-.02Zm-38.21-9.573h-5.888v3.565h5.888c1.642 0 2.743.701 2.743 2.323v.26h-4.646c-4.065 0-6.408 2.063-6.408 5.167 0 3.164 2.463 5.267 6.148 5.267 2.203 0 3.805-.741 4.906-1.802v1.321h4.086v-10.534c0-3.845-2.704-5.487-6.829-5.567Zm2.743 9.573c0 2.062-1.962 3.625-4.225 3.625-1.642 0-2.744-.782-2.744-1.963 0-1.102.901-1.842 2.263-1.842h4.726v.18h-.02Zm-10.914-9.593c-2.623 0-4.486 1.042-5.788 2.924v-2.944h-4.265v16.121h4.265v-5.207c0-4.485 1.803-7.309 5.748-7.309h.2v-3.585h-.16Z" fill="#fff"/><path d="M139.471 295.424c-.641.241-1.322.401-1.842.401-1.422 0-2.363-.841-2.363-2.784v-6.368h4.365v-3.485h-4.365v-3.945H131v14.139c0 4.425 2.523 6.428 6.328 6.428 1.342 0 2.644-.28 4.286-1.182-.861-.881-1.682-1.962-2.143-3.204Zm88.096.361c-.18.02-.341.04-.481.04-1.422 0-2.363-.841-2.363-2.784v-6.368h4.486v-3.485h-4.486v-3.945h-4.266v14.139c0 4.425 2.524 6.428 6.329 6.428.941 0 1.762-.14 2.743-.521-1.261-.901-1.742-2.383-1.962-3.504Z" fill="#fff"/><path d="M251.158 296.866c0 1.522-1.162 2.704-2.804 2.704-1.622 0-2.804-1.162-2.804-2.704 0-1.462 1.162-2.724 2.804-2.724s2.804 1.282 2.804 2.724Z" fill="#F06F37"/><defs><filter id="b" x="273.2" y="158.2" width="278.6" height="88.6" filterUnits="userSpaceOnUse" color-interpolation-filters="sRGB"><feFlood flood-opacity="0" result="BackgroundImageFix"/><feGaussianBlur in="BackgroundImage" stdDeviation="4.32"/><feComposite in2="SourceAlpha" operator="in" result="effect1_backgroundBlur_101:44"/><feBlend in="SourceGraphic" in2="effect1_backgroundBlur_101:44" result="shape"/><feColorMatrix in="SourceAlpha" values="0 0 0 0 0 0 0 0 0 0 0 0 0 0 0 0 0 0 127 0" result="hardAlpha"/><feOffset dx="-10.8" dy="10.8"/><feGaussianBlur stdDeviation="5.4"/><feComposite in2="hardAlpha" operator="arithmetic" k2="-1" k3="1"/><feColorMatrix values="0 0 0 0 1 0 0 0 0 1 0 0 0 0 1 0 0 0 0.148 0"/><feBlend in2="shape" result="effect2_innerShadow_101:44"/><feColorMatrix in="SourceAlpha" values="0 0 0 0 0 0 0 0 0 0 0 0 0 0 0 0 0 0 127 0" result="hardAlpha"/><feOffset dx="10.8" dy="-10.8"/><feGaussianBlur stdDeviation="5.4"/><feComposite in2="hardAlpha" operator="arithmetic" k2="-1" k3="1"/><feColorMatrix values="0 0 0 0 0.76 0 0 0 0 0.76 0 0 0 0 0.76 0 0 0 0.148 0"/><feBlend in2="effect2_innerShadow_101:44" result="effect3_innerShadow_101:44"/></filter></defs></svg>