<svg width="542" height="335" fill="none" xmlns="http://www.w3.org/2000/svg"><path fill="#004782" d="M0 0h542v335H0z"/><mask id="a" style="mask-type:alpha" maskUnits="userSpaceOnUse" x="262" y="116" width="280" height="219"><path fill="#004782" d="M262 116h280v219H262z"/></mask><g mask="url(#a)"><path d="M589 189v90c0 5.523-4.477 10-10 10H300c-5.523 0-10-4.477-10-10v-90c0-5.523 4.477-10 10-10h279c5.523 0 10 4.477 10 10Z" stroke="url(#b)"/><path d="M589 216v35H290v-35h299Z" stroke="url(#c)"/><path d="M508 155v170c0 5.523-4.477 10-10 10H344c-5.523 0-10-4.477-10-10V155c0-5.523 4.477-10 10-10h154c5.523 0 10 4.477 10 10Z" stroke="url(#d)"/><path d="m199.001 441.575 263.326-263.326m-217.02 309.634 263.326-263.327M291.614 534.19 554.94 270.864M337.921 580.497l263.326-263.326" stroke="#fff" stroke-opacity=".1"/><path fill="#fff" d="m338.216 210.39-41.472 41.472 41.472 41.472 41.472-41.472z"/><path stroke="#fff" stroke-width="3" d="m338.347 224.202-39.572 39.572 39.572 39.571 39.572-39.571z"/><path stroke="#fff" stroke-width="2" d="m339.459 232.39-40.28 40.279 40.28 40.279 40.279-40.28z"/><path stroke="#fff" d="m339.459 241.689-40.986 40.986 40.986 40.986 40.986-40.986z"/><path stroke="#fff" stroke-opacity=".8" d="m339.323 251.559-40.986 40.986 40.986 40.986 40.986-40.986z"/><path stroke="#fff" stroke-opacity=".5" d="m339.878 260.737-40.986 40.986 40.986 40.986 40.986-40.986z"/><path stroke="#fff" stroke-opacity=".5" d="m339.878 270.72-40.986 40.987 40.986 40.986 40.986-40.986z"/><path stroke="#fff" stroke-opacity=".5" d="m339.878 280.705-40.986 40.986 40.986 40.986 40.986-40.986z"/><path stroke="#fff" stroke-opacity=".4" d="m339.878 290.689-40.986 40.986 40.986 40.986 40.986-40.986z"/><path stroke="#fff" stroke-opacity=".3" d="m339.87 300.68-40.986 40.986 40.986 40.986 40.986-40.986z"/><path stroke="#fff" stroke-opacity=".2" d="m339.87 310.665-40.986 40.986 40.986 40.986 40.986-40.986z"/><path fill="#fff" d="m429.404 298.488-41.472 41.472 41.472 41.472 41.472-41.472z"/><path stroke="#fff" stroke-width="3" d="m429.535 312.3-39.572 39.573 39.572 39.571 39.572-39.571z"/><path stroke="#fff" stroke-width="2" d="m430.646 320.488-40.28 40.279 40.28 40.279 40.279-40.28z"/><path stroke="#fff" d="m430.646 329.787-40.986 40.986 40.986 40.986 40.986-40.986z"/><path fill="#fff" d="m423.37 126-41.472 41.472 41.472 41.472 41.472-41.472z"/><path stroke="#fff" stroke-width="3" d="m423.5 139.812-39.571 39.572 39.572 39.571 39.572-39.571z"/><path stroke="#fff" stroke-width="2" d="m424.613 147.999-40.28 40.279 40.28 40.279 40.279-40.28z"/><path stroke="#fff" d="m424.613 157.298-40.986 40.986 40.986 40.986 40.986-40.986z"/><path stroke="#fff" stroke-opacity=".8" d="m424.477 167.169-40.986 40.986 40.986 40.986 40.986-40.986z"/><path stroke="#fff" stroke-opacity=".5" d="m425.032 176.346-40.986 40.986 40.986 40.986 40.986-40.986z"/><path stroke="#fff" stroke-opacity=".5" d="m425.032 186.33-40.986 40.987 40.986 40.986 40.986-40.986z"/><path stroke="#fff" stroke-opacity=".5" d="M425.032 196.315 384.046 237.3l40.986 40.986 40.986-40.986z"/><path stroke="#fff" stroke-opacity=".4" d="m425.032 206.298-40.986 40.986 40.986 40.986 40.986-40.986z"/><path stroke="#fff" stroke-opacity=".3" d="m425.024 216.29-40.986 40.986 40.986 40.986 40.986-40.986z"/><path stroke="#fff" stroke-opacity=".2" d="m425.024 226.275-40.986 40.986 40.986 40.986 40.986-40.986z"/><path fill="#fff" d="m507.463 211.801-41.472 41.472 41.472 41.472 41.472-41.472z"/><path stroke="#fff" stroke-width="3" d="m507.594 225.614-39.572 39.572 39.572 39.571 39.572-39.571z"/><path stroke="#fff" stroke-width="2" d="m508.706 233.8-40.28 40.28 40.28 40.279 40.279-40.28z"/><path stroke="#fff" d="m508.706 243.1-40.986 40.986 40.986 40.986 40.986-40.986z"/><path stroke="#fff" stroke-opacity=".8" d="m508.57 252.97-40.986 40.987 40.986 40.986 40.986-40.986z"/><path stroke="#fff" stroke-opacity=".5" d="m509.125 262.148-40.986 40.986 40.986 40.986 40.986-40.986z"/><path stroke="#fff" stroke-opacity=".5" d="m509.125 272.132-40.986 40.986 40.986 40.986 40.986-40.986z"/><path stroke="#fff" stroke-opacity=".5" d="m509.125 282.116-40.986 40.986 40.986 40.986 40.986-40.986z"/><path stroke="#fff" stroke-opacity=".4" d="m509.125 292.1-40.986 40.986 40.986 40.986 40.986-40.986z"/><path stroke="#fff" stroke-opacity=".3" d="m509.118 302.09-40.986 40.987 40.986 40.986 40.986-40.986z"/><path stroke="#fff" stroke-opacity=".2" d="m509.118 312.076-40.986 40.986 40.986 40.986 40.986-40.986z"/></g><path d="M69.297 296.463v-1.005c-.698 1.094-1.647 1.794-2.847 2.063-1.2.27-2.38.18-3.544-.287-1.182-.466-2.184-1.346-3.026-2.62-.84-1.274-1.27-2.943-1.27-5.025 0-2.44.554-4.397 1.664-5.922 1.11-1.508 2.9-2.261 5.37-2.261 1.88 0 3.617.502 5.228 1.525 1.611 1.023 2.399 2.907 2.399 5.653v8.291c0 2.746-.806 4.613-2.399 5.618-1.611 1.005-3.348 1.507-5.227 1.507-3.598 0-5.836-1.687-6.695-5.061h4.278c.304.557.788.969 1.432 1.274.645.288 1.29.377 1.934.234.644-.144 1.235-.521 1.754-1.149.555-.646.86-1.579.949-2.835Zm-6.695-6.766c0 2.71.787 4.217 2.345 4.504 1.557.288 2.72-.071 3.455-1.094.358-.431.608-1.113.77-2.028a8.83 8.83 0 0 0 .035-2.746 5.597 5.597 0 0 0-.966-2.405c-.502-.7-1.254-1.059-2.238-1.059-1.325 0-2.238.485-2.703 1.472-.466.969-.698 2.1-.698 3.356Zm25.008 7.699h-2.06c-.59 0-1.074-.18-1.432-.557-.376-.376-.555-.861-.555-1.435V287.4c0-.933-.286-1.633-.86-2.064a3.084 3.084 0 0 0-1.915-.646c-.698 0-1.325.215-1.88.646-.554.431-.823 1.113-.823 2.064v10.014H73.97v-9.189c0-2.674.698-4.45 2.076-5.348 1.397-.897 2.918-1.4 4.601-1.471 1.719 0 3.312.448 4.762 1.346 1.45.897 2.166 2.728 2.166 5.473v9.171h.036Zm1.002-14.285h4.118v14.303h-4.118v-14.303Zm11.672 14.285a33.365 33.365 0 0 1-4.189-.054c-1.503-.126-2.255-1.077-2.255-2.89v-15.308h2.112c.501 0 .967.198 1.343.592.394.395.59.862.59 1.418v.539h2.399v.825c0 .592-.197 1.077-.59 1.436-.394.377-.86.556-1.415.556h-.411v8.812c0 .664.394 1.005 1.181 1.005h1.235v3.069Z" fill="#fff"/><path d="M111.49 292.568h2.936c-.429 1.651-1.253 2.907-2.47 3.769-1.217.897-2.739 1.346-4.583 1.346-2.238 0-3.974-.718-5.227-2.172-1.253-1.417-1.88-3.427-1.88-6.066 0-2.512.609-4.468 1.826-5.886 1.253-1.454 2.99-2.171 5.227-2.171 2.346 0 4.171.7 5.46 2.117 1.253 1.454 1.88 3.464 1.88 6.066v.646c0 .198-.018.341-.054.413h-10.15c.036 1.22.34 2.118.877 2.71.502.628 1.271.933 2.292.933.662 0 1.235-.144 1.7-.413a.643.643 0 0 0 .323-.215l.322-.323c.036-.126.179-.269.447-.467.251-.179.609-.287 1.074-.287Zm-7.035-4.576h5.997c-.071-1.059-.358-1.849-.823-2.351-.502-.556-1.235-.826-2.166-.826-.86 0-1.558.27-2.113.826-.573.538-.859 1.328-.895 2.351Zm-50.841-12.078h2.112c.555 0 1.02.198 1.414.593.394.394.591.861.591 1.417v19.49h-4.117v-21.5Zm34.998 3.231h2.113c.555 0 1.02.197 1.414.592.394.395.59.861.59 1.418v1.238h-4.117v-3.248Zm-24.597.215h-.644v-.466c-.322.359-.77.538-1.325.538-.519 0-.966-.179-1.342-.52-.394-.377-.591-.844-.591-1.418 0-.592.215-1.077.626-1.454.376-.359.842-.52 1.36-.52.538 0 .968.179 1.29.556v-.467h.644v3.751h-.018Zm-.662-1.866a1.38 1.38 0 0 0-.358-.933 1.2 1.2 0 0 0-.895-.377c-.376 0-.68.125-.949.395-.25.251-.376.52-.376.807 0 .377.108.7.34.969.233.287.537.413.913.413.358 0 .663-.126.931-.377.269-.233.394-.538.394-.897Zm5.317-.108c0 .592-.18 1.077-.537 1.454-.376.395-.842.592-1.432.592-.537 0-.95-.179-1.271-.52v1.686h-.68v-5.007h.644v.449c.16-.179.358-.305.555-.395.215-.089.43-.125.68-.125.52 0 .984.179 1.378.52.448.359.663.808.663 1.346Zm-.698.09c0-.359-.126-.664-.376-.915a1.279 1.279 0 0 0-.931-.377c-.376 0-.68.143-.931.412a1.28 1.28 0 0 0-.34.898c0 .323.09.592.286.843.233.287.573.431 1.02.431.359 0 .663-.126.913-.377.251-.233.359-.538.359-.915Zm5.192 1.884h-.645v-.466c-.322.359-.77.538-1.325.538-.519 0-.966-.179-1.342-.52-.394-.377-.59-.844-.59-1.418 0-.592.214-1.077.626-1.454.376-.359.841-.52 1.36-.52.537 0 .967.179 1.29.556v-.467h.644v3.751h-.018Zm-.645-1.866a1.38 1.38 0 0 0-.358-.933 1.199 1.199 0 0 0-.895-.377c-.376 0-.68.125-.949.395-.25.251-.376.52-.376.807 0 .377.108.7.34.969.233.287.537.413.913.413.358 0 .663-.126.931-.377.25-.233.394-.538.394-.897Zm5.137.628c-.215.431-.466.754-.752.969a1.913 1.913 0 0 1-1.163.359c-.52 0-.985-.18-1.379-.556-.412-.395-.626-.862-.626-1.436h.035s0 .018-.018.036c0-.592.197-1.077.61-1.454a1.81 1.81 0 0 1 1.288-.52c.465 0 .86.125 1.217.359.34.233.609.574.77 1.005h-.752c-.25-.449-.662-.682-1.217-.682-.358 0-.645.125-.877.377a1.305 1.305 0 0 0-.358.915c0 .359.125.682.376.933.25.251.555.377.913.377.232 0 .465-.054.68-.18a1.44 1.44 0 0 0 .501-.484h.752v-.018Zm3.885 1.238h-.68v-2.154c0-.287-.09-.538-.287-.717a.997.997 0 0 0-.716-.288c-.286 0-.519.09-.698.252a.905.905 0 0 0-.268.682v2.225h-.68v-5.007h.68v1.561a1.32 1.32 0 0 1 .984-.395c.43 0 .806.144 1.128.449.34.323.52.736.52 1.238v2.154h.017Zm4.439-1.615h-3.168c.054.323.215.574.466.772.232.161.483.251.751.251.251 0 .484-.072.717-.216.232-.143.393-.341.483-.574h.698c-.179.503-.465.862-.841 1.113-.323.215-.68.323-1.074.323-.502 0-.931-.18-1.29-.539a1.991 1.991 0 0 1-.572-1.435c0-.592.197-1.077.608-1.436a1.866 1.866 0 0 1 1.307-.502c.502 0 .95.161 1.307.502.412.377.627.897.627 1.543v.198h-.018Zm-.697-.628a1.208 1.208 0 0 0-.466-.682 1.216 1.216 0 0 0-.77-.269c-.358 0-.662.125-.895.359a1.224 1.224 0 0 0-.34.592h2.47Zm-49.535-3.015s-12.441 7.609-.716 15.164c2.256 1.472 10.437 5.564 10.204 9.35 0 0 4.959-7.358-2.291-11.988-7.448-4.738-9.31-9.798-7.197-12.526Zm-4.332 14.536s-4.44 6.748 4.296 8.13c.86.108 7.179.772 8.826 2.853 0 0-.143-3.589-5.299-5.707-5.138-2.117-7.25-2.638-7.823-5.276Z" fill="#fff"/><path d="M48.601 281.549c-5.334-5.599-6.82-9.062-4.529-13.549 0 0-15.914 6.138-.197 17.031 5.621 3.894 4.69 7.878 4.69 8.022.878-.915 5.371-5.904.036-11.504Z" fill="#fff"/><g clip-path="url(#e)" fill="#FF0132"><path d="M167.258 280.098c-.557.079-2.94.551-3.735.709-.874.236-8.978 6.541-9.534 8.038-.079.473 0 5.989 0 5.989l4.608.315-.159 1.498c-.635-.079-4.926 0-7.627 0-1.351 0-5.482.157-6.912.079l.159-1.419c.873.079 2.224-.079 3.019-.315.794-.237 1.43-.552 1.43-1.34v-4.728c-.318-.867-7.071-9.299-8.819-10.639-.477-.157-3.893-.551-4.688-.709l.159-1.418h15.493l-.238 1.339c-.715.158-3.973.237-4.847.473 2.225 3.231 5.721 7.487 6.833 9.063.636-.867 6.595-5.044 6.753-6.305-.874-.157-3.654-.551-4.131-.551l-.238-1.419h13.348l-.874 1.34Zm33.052 12.293c-2.463-.157-6.754-.079-9.217 0l.159-1.261c.397 0 2.384-.315 2.86-.394v-4.413c-1.191 0-8.024.158-9.057.394v3.941s2.94.315 3.575.394l-.159 1.339c-2.622-.157-7.945-.157-10.487 0l.158-1.418c.795 0 2.94-.237 3.417-.315.079-.946.079-2.522.079-4.098v-1.97c0-.71 0-2.601-.079-3.31-.556 0-3.019-.237-3.655-.237l.159-1.26c2.225.157 8.978.157 10.806 0l-.159 1.182c-.557 0-2.94.394-3.655.394v3.467h9.057v-5.122c-.635-.079-2.304-.394-3.019-.473l.159-1.182c1.51.079 7.548.079 9.137 0l-.079 1.261c-.477 0-2.225.315-2.861.394v11.19s2.543.315 3.099.394l-.238 1.103Zm47.591-3.703h-2.463V276H251l-.477 1.891-2.622 10.797Zm-1.906 5.043-1.669.079.318-2.837 1.668.079 1.589-.079-.317 2.758h-1.589Zm-13.746-16.47c-6.594.157-10.726 2.679-10.805 7.092v.158c.159 4.413 4.211 7.013 10.805 7.171h.477c6.515-.158 10.647-2.758 10.806-7.25-.159-4.255-4.212-7.014-10.806-7.171h-.477Zm-.715 1.97h1.748c2.225.158 6.277 1.418 6.356 5.201 0 3.783-4.131 5.201-6.356 5.28h-1.748c-2.224-.158-6.277-1.497-6.356-5.28.079-3.783 4.132-5.043 6.356-5.201Z"/><path d="M209.923 279.467c-6.276.158-9.772 2.601-9.772 6.62v.158c0 3.782 3.813 6.462 9.772 6.619h.636c5.959-.157 9.772-2.679 9.852-6.619v-.158c0-4.019-3.893-6.462-9.852-6.62h-.636Zm-.318 1.813h1.272c2.065.079 6.038 1.182 6.038 4.728v.315c0 3.468-3.973 4.65-6.038 4.729h-1.272c-2.065-.079-6.038-1.182-6.038-4.729v-.315c0-3.467 3.973-4.649 6.038-4.728Zm-44.572 1.103-.08 1.103 2.543.631s-3.734 7.407-4.529 8.432c-.636.158-2.304.551-2.94.63l-.159 1.34c.477-.079 7.072 0 7.707 0l.159-1.261-2.304-.552s1.033-2.127 1.192-2.364c.715-.157 5.005-.236 5.005-.236l1.51 4.098s-1.827.315-2.542.315l-.159 1.34h9.454l.159-1.182c-.556.078-2.304-.394-2.939-.473-.715-1.104-3.258-7.487-4.45-10.324l2.145-.315.239-1.103h-3.258c-1.192 0-6.276 0-6.753-.079Zm4.37 1.813 1.827 4.649h-3.972c.238-.551 2.145-4.649 2.145-4.649Zm40.123 10.717c-.318.079-1.351.394-1.668.552 0 .945-.159 5.28-.159 5.28-.08 1.97-.954 3.309-3.258 4.255l-.874-.236c1.112-.631 1.669-1.261 1.748-1.734.238-.631.318-2.128.318-4.807 0 0 0-2.049-.08-2.758a51.97 51.97 0 0 0-2.224-.473v-.631c.874 0 2.939.079 3.655.079.794 0 1.747 0 2.542-.079v.552Zm37.104 1.261c-.159.079-.635.158-1.112.236 0 .71.079 5.832.079 7.014 0 .158-.159.236-.397.079-1.112-1.104-4.688-5.123-5.879-6.541 0 .946.079 4.571.079 5.201.477.158 1.51.394 1.668.394l.08.709h-3.893v-.709c.397-.158.715-.315 1.112-.394.08-.394.08-5.437.08-5.831-.318 0-.874-.079-1.272-.079v-.867h2.861c1.032 1.182 3.496 3.861 4.767 5.28 0-1.182-.08-3.94-.08-4.413-.238 0-.715-.079-1.191-.158l-.08-.709c.238 0 1.589.079 1.827.079.239 0 1.351-.079 1.589-.079l-.238.788Zm-21.134 2.128c0 .945-.874 1.339-1.907 1.497v.709c2.066-.236 3.416-1.024 3.416-2.285v-.079c0-1.418-.953-2.679-3.178-2.679h-4.29l.159.788c.397.079.953.079 1.351.079 0 .945.158 4.964.079 6.146-.238.079-1.033.237-1.351.315l-.079.71h4.926v-.552c-.318-.079-1.43-.315-1.669-.315 0-.237-.079-5.91-.079-6.226.477 0 1.271 0 1.589.079.874.237 1.112 1.103 1.112 1.734m-9.534-2.837-4.29.158v.551l1.112.158c-.715 1.576-2.622 5.595-2.94 6.068-.317.157-.635.236-.953.315l-.08.63h3.417v-.551l-1.033-.315s.636-1.577.874-2.049h2.94l.794 2.049s-.715.157-1.271.236l-.079.552h4.29l.079-.631c-.397.158-1.271-.079-1.271-.079-.556-1.103-1.986-4.57-2.701-6.225l1.112-.237v-.63Zm-2.304 1.418 1.192 2.995h-2.463c.159-.394 1.271-2.995 1.271-2.995Zm20.022-1.418-4.211.158v.551l1.112.158c-.715 1.576-2.622 5.595-2.94 6.068-.317.079-.635.236-.953.315l-.079.63c.953-.079 3.098 0 3.416 0v-.551l-1.033-.315s.636-1.577.874-2.049h2.94l.795 2.049s-.716.157-1.272.236l-.079.551h4.29l.08-.63c-.477.158-1.351-.079-1.351-.079-.874-1.812-2.304-5.28-2.701-6.225l1.033-.158.079-.709Zm-2.304 1.418 1.192 2.995h-2.463c.159-.394 1.271-2.995 1.271-2.995Z"/></g><defs><linearGradient id="b" x1="392.7" y1="237.746" x2="597.036" y2="196.411" gradientUnits="userSpaceOnUse"><stop stop-color="#ED1C24"/><stop offset="1" stop-color="#fff" stop-opacity="0"/></linearGradient><linearGradient id="c" x1="392.7" y1="234.692" x2="544.174" y2="138.391" gradientUnits="userSpaceOnUse"><stop stop-color="#ED1C24"/><stop offset="1" stop-color="#fff" stop-opacity="0"/></linearGradient><linearGradient id="d" x1="393.765" y1="246.47" x2="516.97" y2="238.073" gradientUnits="userSpaceOnUse"><stop stop-color="#ED1C24"/><stop offset="1" stop-color="#fff" stop-opacity="0"/></linearGradient><clipPath id="e"><path fill="#fff" transform="translate(135 276)" d="M0 0h116v29H0z"/></clipPath></defs></svg>