<svg width="542" height="335" fill="none" xmlns="http://www.w3.org/2000/svg"><path fill="#0070CC" d="M0 0h542v335H0z"/><mask id="a" style="mask-type:alpha" maskUnits="userSpaceOnUse" x="300" y="126" width="242" height="209"><path fill="#0070CC" d="M300 126h242v209H300z"/></mask><g mask="url(#a)"><path transform="rotate(-30.742 345 249.134)" fill="url(#b)" d="M345 249.134h10.144v241H345z"/><path transform="rotate(-30.742 345 179.185)" fill="url(#c)" d="M345 179.185h10.144v241H345z"/><path transform="rotate(-30.742 417 213.186)" fill="url(#d)" d="M417 213.186h10.144v241H417z"/><path transform="rotate(-30.742 426 138.185)" fill="url(#e)" d="M426 138.185h10.144v241H426z"/><circle cx="348" cy="244" r="6" fill="#BDDAF2"/><circle cx="350" cy="177" r="6" fill="#BDDAF2"/><circle cx="422" cy="210" r="6" fill="#BDDAF2"/><circle cx="432" cy="137" r="6" fill="#BDDAF2"/><path d="M509.722 142.556c.921 1.397 1.187 3.236.77 5.522-.418 2.289-1.513 4.984-3.256 8.029-3.485 6.091-9.499 13.49-17.587 21.713-16.17 16.44-40.55 36.099-69.31 55.068-28.76 18.97-56.429 33.644-77.907 42.036-10.743 4.197-19.912 6.813-26.882 7.619-3.486.403-6.395.35-8.663-.168-2.266-.516-3.852-1.485-4.773-2.881-.921-1.397-1.187-3.236-.77-5.522.417-2.289 1.513-4.984 3.256-8.029 3.485-6.091 9.499-13.49 17.587-21.713 16.169-16.44 40.55-36.099 69.31-55.068 28.76-18.97 56.428-33.644 77.907-42.036 10.743-4.197 19.912-6.813 26.882-7.619 3.486-.403 6.394-.35 8.663.168 2.266.516 3.852 1.485 4.773 2.881Z" stroke="url(#f)"/><path d="M526.722 166.556c.921 1.397 1.187 3.236.77 5.522-.418 2.289-1.513 4.984-3.256 8.029-3.485 6.091-9.499 13.49-17.587 21.713-16.17 16.44-40.55 36.099-69.31 55.068-28.76 18.97-56.429 33.644-77.907 42.036-10.743 4.197-19.912 6.813-26.882 7.619-3.486.403-6.395.35-8.663-.168-2.266-.516-3.852-1.485-4.773-2.881-.921-1.397-1.187-3.236-.77-5.522.417-2.289 1.513-4.984 3.256-8.029 3.485-6.091 9.499-13.49 17.587-21.713 16.169-16.44 40.55-36.099 69.31-55.068 28.76-18.97 56.428-33.644 77.907-42.036 10.743-4.197 19.912-6.813 26.882-7.619 3.486-.403 6.394-.35 8.663.168 2.266.516 3.852 1.485 4.773 2.881Z" stroke="url(#g)"/><path d="M543.722 190.556c.921 1.397 1.187 3.236.77 5.522-.418 2.289-1.513 4.984-3.256 8.029-3.485 6.091-9.499 13.49-17.587 21.713-16.17 16.44-40.55 36.099-69.31 55.068-28.76 18.97-56.429 33.644-77.907 42.036-10.743 4.197-19.912 6.813-26.882 7.619-3.486.403-6.395.35-8.663-.168-2.266-.516-3.852-1.485-4.773-2.881-.921-1.397-1.187-3.236-.77-5.522.417-2.289 1.513-4.984 3.256-8.029 3.485-6.091 9.499-13.49 17.587-21.713 16.169-16.44 40.55-36.099 69.31-55.068 28.76-18.97 56.428-33.644 77.907-42.036 10.743-4.197 19.912-6.813 26.882-7.619 3.486-.403 6.394-.35 8.663.168 2.266.516 3.852 1.485 4.773 2.881Z" stroke="url(#h)"/></g><path d="M72.297 294.463v-1.005c-.698 1.094-1.647 1.794-2.847 2.063-1.2.27-2.38.18-3.544-.287-1.182-.466-2.184-1.346-3.026-2.62-.84-1.274-1.27-2.943-1.27-5.025 0-2.44.554-4.397 1.664-5.922 1.11-1.507 2.9-2.261 5.37-2.261 1.88 0 3.617.502 5.228 1.525 1.611 1.023 2.399 2.907 2.399 5.653v8.291c0 2.746-.806 4.613-2.399 5.618-1.611 1.005-3.348 1.507-5.227 1.507-3.599 0-5.836-1.687-6.695-5.061h4.278c.304.557.788.969 1.432 1.274.645.288 1.29.377 1.934.234.644-.144 1.235-.521 1.754-1.149.555-.646.86-1.579.949-2.835Zm-6.695-6.766c0 2.71.787 4.217 2.345 4.504 1.557.288 2.72-.071 3.455-1.094.358-.431.608-1.113.77-2.028a8.83 8.83 0 0 0 .035-2.746 5.597 5.597 0 0 0-.966-2.405c-.502-.7-1.254-1.059-2.238-1.059-1.325 0-2.238.485-2.703 1.472-.466.969-.698 2.1-.698 3.356Zm25.008 7.699h-2.06c-.59 0-1.074-.18-1.432-.556-.376-.377-.555-.862-.555-1.436V285.4c0-.933-.286-1.633-.86-2.064a3.084 3.084 0 0 0-1.915-.646c-.698 0-1.325.215-1.88.646-.554.431-.823 1.113-.823 2.064v10.014H76.97v-9.189c0-2.674.698-4.45 2.076-5.348 1.397-.897 2.918-1.399 4.601-1.471 1.719 0 3.312.448 4.762 1.346 1.45.897 2.166 2.728 2.166 5.473v9.171h.036Zm1.002-14.285h4.118v14.303h-4.118v-14.303Zm11.672 14.285a33.364 33.364 0 0 1-4.189-.054c-1.503-.126-2.255-1.077-2.255-2.89v-15.308h2.112c.501 0 .967.198 1.343.592.394.395.591.862.591 1.418v.539h2.398v.825c0 .592-.197 1.077-.59 1.436-.394.377-.86.556-1.415.556h-.411v8.812c0 .664.393 1.005 1.181 1.005h1.235v3.069Z" fill="#fff"/><path d="M114.49 290.568h2.936c-.429 1.651-1.253 2.907-2.47 3.769-1.217.897-2.739 1.346-4.583 1.346-2.238 0-3.974-.718-5.227-2.172-1.253-1.417-1.88-3.427-1.88-6.066 0-2.512.609-4.468 1.826-5.886 1.253-1.454 2.99-2.171 5.227-2.171 2.346 0 4.171.699 5.46 2.117 1.253 1.454 1.88 3.464 1.88 6.066v.646c0 .198-.018.341-.054.413h-10.15c.036 1.22.34 2.118.877 2.71.502.628 1.271.933 2.292.933.662 0 1.235-.144 1.7-.413a.643.643 0 0 0 .323-.215l.322-.323c.036-.126.179-.269.447-.467.251-.179.609-.287 1.074-.287Zm-7.035-4.576h5.997c-.071-1.059-.358-1.849-.823-2.351-.502-.556-1.235-.826-2.166-.826-.86 0-1.558.27-2.113.826-.573.538-.859 1.328-.895 2.351Zm-50.841-12.078h2.112c.555 0 1.02.198 1.414.593.394.394.591.861.591 1.417v19.49h-4.117v-21.5Zm34.998 3.231h2.113c.555 0 1.02.197 1.414.592.394.395.59.861.59 1.418v1.238h-4.117v-3.248Zm-24.597.215h-.644v-.466c-.322.358-.77.538-1.325.538-.519 0-.967-.18-1.342-.521-.394-.376-.591-.843-.591-1.417 0-.592.215-1.077.626-1.454.376-.359.842-.52 1.36-.52.538 0 .968.179 1.29.556v-.467h.644v3.751h-.018Zm-.662-1.866a1.38 1.38 0 0 0-.358-.933 1.2 1.2 0 0 0-.895-.377c-.376 0-.68.125-.949.394-.25.252-.376.521-.376.808 0 .377.108.7.34.969.233.287.537.413.913.413.358 0 .663-.126.931-.377.269-.233.394-.538.394-.897Zm5.317-.108c0 .592-.18 1.077-.537 1.454-.376.395-.842.592-1.432.592-.537 0-.95-.18-1.271-.521v1.687h-.68v-5.007h.644v.449c.16-.179.358-.305.555-.395.215-.089.43-.125.68-.125.52 0 .984.179 1.378.52.448.359.663.808.663 1.346Zm-.698.09c0-.359-.126-.664-.376-.915a1.279 1.279 0 0 0-.931-.377c-.376 0-.68.143-.931.412a1.28 1.28 0 0 0-.34.898c0 .323.09.592.286.843.233.287.573.431 1.02.431.359 0 .663-.126.913-.377.251-.233.359-.538.359-.915Zm5.192 1.884h-.645v-.466c-.322.358-.77.538-1.325.538-.519 0-.966-.18-1.342-.521-.394-.376-.59-.843-.59-1.417 0-.592.214-1.077.626-1.454.376-.359.841-.52 1.36-.52.537 0 .967.179 1.29.556v-.467h.644v3.751h-.018Zm-.645-1.866a1.38 1.38 0 0 0-.358-.933 1.199 1.199 0 0 0-.895-.377c-.376 0-.68.125-.949.394-.25.252-.376.521-.376.808 0 .377.108.7.34.969.233.287.537.413.913.413.358 0 .663-.126.931-.377.25-.233.394-.538.394-.897Zm5.137.628c-.215.431-.466.754-.752.969a1.913 1.913 0 0 1-1.163.359c-.52 0-.985-.18-1.379-.556-.412-.395-.626-.862-.626-1.436h.035s0 .018-.018.036c0-.592.197-1.077.61-1.454a1.81 1.81 0 0 1 1.288-.52c.465 0 .86.125 1.217.359.34.233.609.574.77 1.005h-.752c-.25-.449-.662-.682-1.217-.682-.358 0-.645.125-.877.376a1.309 1.309 0 0 0-.358.916c0 .359.125.682.376.933.25.251.555.377.913.377.232 0 .465-.054.68-.18a1.44 1.44 0 0 0 .501-.484h.752v-.018Zm3.885 1.238h-.68v-2.154c0-.287-.09-.538-.287-.717a.997.997 0 0 0-.716-.288c-.286 0-.519.09-.698.252a.905.905 0 0 0-.268.682v2.225h-.68v-5.007h.68v1.561a1.32 1.32 0 0 1 .984-.395c.43 0 .806.144 1.128.449.34.323.52.736.52 1.238v2.154h.017Zm4.439-1.615h-3.168c.054.323.215.574.466.772.232.161.483.251.751.251.251 0 .484-.072.717-.216.232-.143.393-.341.483-.574h.698c-.179.503-.465.862-.841 1.113-.323.215-.68.323-1.074.323-.502 0-.931-.18-1.29-.539a1.991 1.991 0 0 1-.572-1.435c0-.592.197-1.077.608-1.436a1.866 1.866 0 0 1 1.307-.502c.502 0 .95.161 1.307.502.412.377.627.897.627 1.543v.198h-.018Zm-.697-.628a1.208 1.208 0 0 0-.466-.682 1.216 1.216 0 0 0-.77-.269c-.358 0-.662.125-.895.359a1.224 1.224 0 0 0-.34.592h2.47Zm-49.535-3.015s-12.441 7.609-.716 15.164c2.256 1.472 10.437 5.564 10.204 9.35 0 0 4.959-7.358-2.291-11.988-7.448-4.738-9.31-9.798-7.197-12.526Z" fill="#fff"/><path d="M34.416 286.638s-4.44 6.748 4.296 8.13c.86.108 7.179.772 8.826 2.853 0 0-.143-3.589-5.299-5.706-5.138-2.118-7.25-2.639-7.823-5.277Zm17.185-7.089c-5.334-5.599-6.82-9.062-4.529-13.549 0 0-15.914 6.138-.197 17.031 5.621 3.894 4.69 7.878 4.69 8.022.878-.915 5.371-5.904.036-11.504Z" fill="#fff"/><path fill-rule="evenodd" clip-rule="evenodd" d="M179.971 278.915c-6.235 0-7.666.713-8.791 3.976l-2.964 7.953h3.373l1.84-4.792h7.155l.92-2.345h-7.257l.306-.714c.511-1.427 1.329-1.733 3.374-1.733h5.212l.92-2.345h-4.088Zm5.621 0-4.497 11.929h3.476l4.395-11.929h-3.374Zm16.661 0h-11.958l-.818 2.345h4.191l-3.578 9.584h3.475l3.578-9.584h4.191l.919-2.345Zm6.338 2.345c1.737 0 2.964-.102 2.453 1.427-.204.51-1.125 3.161-1.125 3.161l-1.839 4.996h3.373s2.759-7.443 3.066-8.157c.92-2.753-1.329-3.874-5.008-3.874h-.103c-3.679 0-6.133.815-7.359 3.262-.307.612-3.271 8.769-3.271 8.769h3.373l1.84-4.996s1.022-2.651 1.329-3.161c.613-1.121 1.533-1.427 3.271-1.427Zm15.945-2.345c-6.132 0-7.666 1.529-8.483 3.874l-1.534 4.079c-.409 1.019-.409 1.835.102 2.447.716.917 2.556 1.529 5.214 1.529h4.292l.818-2.345h-4.906c-1.124 0-1.942-.204-2.147-.51-.102-.204-.102-.306-.102-.51 0-.204 0-.407.102-.714 0 0 .205-.509.307-.713h7.666l.92-2.345h-7.666l.307-.714c.511-1.427 1.941-1.733 4.804-1.733h3.475l.818-2.345h-3.987Zm8.586 0c-2.146 0-3.475 1.529-4.191 3.058l-.408 1.02c-.307.816-.205 1.733.204 2.345.409.612 1.124.714 1.942.714h5.009c.715 0 1.022.102.919.612-.204.611-.613 1.733-1.839 1.835h-8.279l-.921 2.345h9.302c1.737 0 3.475-.714 4.293-2.855l.409-1.019c.306-.816.306-1.734-.102-2.346-.511-.612-1.431-.917-2.249-.917h-4.089c-1.022 0-1.942.204-1.226-1.326.408-.713.919-1.121 1.839-1.121h7.053l.92-2.345h-8.586Zm13.493 0c-2.147 0-3.476 1.529-4.192 3.058l-.409 1.02c-.306.816-.306 1.733.206 2.345.408.612 1.124.714 1.941.714h5.009c.715 0 1.022.102.92.612-.205.611-.614 1.733-1.84 1.835h-8.279l-.92 2.345h9.301c1.738 0 3.475-.714 4.293-2.855l.409-1.019c.307-.816.307-1.734-.204-2.346-.41-.612-1.329-.917-2.147-.917h-4.088c-1.023 0-1.943.204-1.227-1.326.409-.713.92-1.121 1.84-1.121h7.053l.919-2.345h-8.585Zm-106.508 5.097c-1.84 3.671-1.942 7.545-.409 10.401 1.432 2.651 4.089 4.384 7.564 4.894 7.462 1.019 16.355-4.079 19.83-11.42 1.737-3.67 1.84-7.443.307-10.4-1.432-2.651-4.089-4.384-7.564-4.792-7.36-1.019-16.253 3.977-19.728 11.317Z" fill="#fff"/><path fill-rule="evenodd" clip-rule="evenodd" d="M143.582 285.848c-1.124 3.263-.919 6.321.716 8.565 1.533 2.141 3.987 3.262 7.053 3.262 6.439 0 13.594-5.301 15.843-11.725 1.124-3.263.92-6.322-.716-8.565-1.533-2.141-3.986-3.262-7.052-3.262-6.44 0-13.595 5.301-15.844 11.725Z" fill="#0070CC"/><path fill-rule="evenodd" clip-rule="evenodd" d="m154.52 288.295-.716 1.835c0 .102-.102.306-.307.306h-.919l-.103-.102v-.102l.716-1.937h-.613l-.716 1.937c0 .102 0 .306.102.408.102.204.205.204.511.204h.92c.511 0 .92-.306 1.022-.51l.716-2.039h-.613Zm-4.498 0c-.409 0-.817.306-.92.51l-.613 1.427c0 .102 0 .306.102.408.103.204.307.204.511.204h1.022c.409 0 .818-.204.92-.51l.511-1.427a.31.31 0 0 0 0-.408.78.78 0 0 0-.511-.204h-1.022Zm0 .51h.92v.102l-.511 1.223c0 .102-.102.306-.307.306h-.919c-.103-.102-.103-.102 0-.204l.102-.306.306-.917c.103 0 .103-.204.409-.204Zm6.848-.51c-.408 0-.919.102-.919.408l-.92 2.141h.715s.307-.714.307-.816h.715c.102 0 .409 0 .613.204l.409.612h.818l-.204-.204s-.205-.51-.41-.612l-.102-.102c.307 0 .613-.204.613-.306l.41-.917s0-.102-.102-.204-.41-.204-.716-.204h-1.227Zm0 .408h1.022c.307 0 .307.102.307.102l-.307.611s-.102.102-.306.102h-1.124c-.205 0-.205-.102-.205-.102l.205-.509c.102-.102.204-.204.408-.204Zm-9.097-.408-.409 1.019h-1.431l.307-1.019h-.613l-1.022 2.549h.715l.409-1.02h1.431l-.307 1.02h.614l1.022-2.549h-.716Zm7.462-1.631.409-1.02h-6.746c-1.023 0-.205-1.733.818-1.733h3.475c.613 0 1.226 0 1.84-.408.613-.51 1.124-1.122 1.431-1.733l.204-.714c.511-1.122 0-2.141-1.533-2.141h-5.315l-.716 1.631h4.804c1.329 0 .818.612.716 1.02-.205.611-.818.713-1.533.713h-3.169c-.613 0-1.227.204-1.942.714-.613.408-1.125 1.019-1.329 1.631l-.307.714c-.204.612-.204 1.02-.102 1.326h8.995Zm-8.995 0c.204.509.818.713 1.533.713h7.155l.307-.713h-8.995Zm16.968 0v-.102h2.657l.511-1.734h-2.453l1.022-2.651h-2.044l-1.022 2.651h-2.044c-1.125 0-.92-.714-.92-.714l2.248-5.199h-2.146l-2.351 5.607c-.204.408-.102.918.204 1.224.307.51 1.023.816 1.943.816h2.35v.102h2.045Zm-2.045 0-1.635 4.18h2.044l1.636-4.18h-2.045Z" fill="#fff"/><defs><linearGradient id="b" x1="350.072" y1="249.134" x2="350.072" y2="490.134" gradientUnits="userSpaceOnUse"><stop stop-color="#fff" stop-opacity=".36"/><stop offset="1" stop-color="#fff" stop-opacity="0"/></linearGradient><linearGradient id="c" x1="350.072" y1="179.185" x2="350.072" y2="420.185" gradientUnits="userSpaceOnUse"><stop stop-color="#fff" stop-opacity=".36"/><stop offset="1" stop-color="#fff" stop-opacity="0"/></linearGradient><linearGradient id="d" x1="422.072" y1="213.186" x2="422.072" y2="454.186" gradientUnits="userSpaceOnUse"><stop stop-color="#fff" stop-opacity=".36"/><stop offset="1" stop-color="#fff" stop-opacity="0"/></linearGradient><linearGradient id="e" x1="431.072" y1="138.185" x2="431.072" y2="379.185" gradientUnits="userSpaceOnUse"><stop stop-color="#fff" stop-opacity=".36"/><stop offset="1" stop-color="#fff" stop-opacity="0"/></linearGradient><linearGradient id="f" x1="391.222" y1="188.744" x2="420.614" y2="233.306" gradientUnits="userSpaceOnUse"><stop stop-color="#fff" stop-opacity="0"/><stop offset="1" stop-color="#fff"/></linearGradient><linearGradient id="g" x1="408.222" y1="212.744" x2="437.614" y2="257.306" gradientUnits="userSpaceOnUse"><stop stop-color="#fff" stop-opacity="0"/><stop offset="1" stop-color="#fff"/></linearGradient><linearGradient id="h" x1="425.222" y1="236.744" x2="454.614" y2="281.306" gradientUnits="userSpaceOnUse"><stop stop-color="#fff" stop-opacity="0"/><stop offset="1" stop-color="#fff"/></linearGradient></defs></svg>