<svg width="542" height="335" fill="none" xmlns="http://www.w3.org/2000/svg"><path fill="#91C2EA" d="M0 0h542v335H0z"/><mask id="a" style="mask-type:alpha" maskUnits="userSpaceOnUse" x="251" y="57" width="290" height="276"><path fill="#0070CC" d="M251 57.727h290V333H251z"/></mask><g mask="url(#a)" stroke-miterlimit="10"><path d="M363.039 65.656v142.522" stroke="#fff" stroke-opacity=".2"/><path d="M380.188 73.487V208.18" stroke="#fff" stroke-opacity=".2" stroke-width="1.636"/><path d="M397.338 81.318V208.18" stroke="#fff" stroke-opacity=".2" stroke-width="2.273"/><path d="M414.488 89.07v119.108" stroke="#fff" stroke-opacity=".2" stroke-width="2.909"/><path d="M431.716 96.902v111.277" stroke="#fff" stroke-opacity=".2" stroke-width="3.546"/><path d="M448.865 104.732v103.446" stroke="#fff" stroke-opacity=".2" stroke-width="4.182"/><path d="M466.015 112.563v95.616" stroke="#fff" stroke-opacity=".2" stroke-width="4.818"/><path d="M483.165 120.394v87.784" stroke="#fff" stroke-opacity=".2" stroke-width="5.455"/><path d="M500.314 128.225v79.953" stroke="#fff" stroke-opacity=".2" stroke-width="6.091"/><path d="M517.464 136.056v72.122" stroke="#fff" stroke-opacity=".2" stroke-width="6.727"/><path d="M534.613 143.808v64.37" stroke="#fff" stroke-opacity=".2" stroke-width="7.364"/><path d="M473.611 395.18V222.117" stroke="#fff" stroke-opacity=".2"/><path d="M454.19 385.783V222.117" stroke="#fff" stroke-opacity=".2" stroke-width="1.636"/><path d="M434.77 376.464V222.117" stroke="#fff" stroke-opacity=".2" stroke-width="2.273"/><path d="M415.349 367.067v-144.95" stroke="#fff" stroke-opacity=".2" stroke-width="2.909"/><path d="M395.928 357.67V222.117" stroke="#fff" stroke-opacity=".2" stroke-width="3.546"/><path d="M376.508 348.273V222.117" stroke="#fff" stroke-opacity=".2" stroke-width="4.182"/><path d="M357.087 338.954V222.117" stroke="#fff" stroke-opacity=".2" stroke-width="4.818"/><path d="M337.745 329.557v-107.44" stroke="#fff" stroke-opacity=".2" stroke-width="5.455"/><path d="M318.324 320.16v-98.043" stroke="#fff" stroke-opacity=".2" stroke-width="6.091"/><path d="M298.904 310.763v-88.646" stroke="#fff" stroke-opacity=".2" stroke-width="6.727"/><path d="M279.483 301.366v-79.249" stroke="#fff" stroke-opacity=".2" stroke-width="7.364"/><path d="M260.062 292.047v-69.93" stroke="#fff" stroke-opacity=".2" stroke-width="8"/><path d="M334.847 130.496v178.153" stroke="#0070CC"/><path d="M354.66 139.737v172.984" stroke="#0070CC" stroke-width="1.778"/><path d="M374.393 148.899v167.972" stroke="#0070CC" stroke-width="2.556"/><path d="M394.127 158.139v162.804" stroke="#0070CC" stroke-width="3.333"/><path d="M413.861 167.301v157.793" stroke="#0070CC" stroke-width="4.111"/><path d="M433.595 176.542v152.624" stroke="#0070CC" stroke-width="4.889"/><path d="M453.329 185.704v147.612" stroke="#0070CC" stroke-width="5.667"/><path d="M473.063 194.944v142.444" stroke="#0070CC" stroke-width="6.444"/><path d="M492.797 204.106V341.46" stroke="#0070CC" stroke-width="7.222"/><path d="M512.609 213.347v132.264" stroke="#0070CC" stroke-width="8"/></g><path d="M69.297 297.462v-1.005c-.698 1.095-1.647 1.795-2.847 2.064a5.86 5.86 0 0 1-3.544-.287c-1.182-.466-2.184-1.346-3.026-2.62-.84-1.274-1.27-2.943-1.27-5.025 0-2.441.554-4.397 1.664-5.922 1.11-1.508 2.9-2.261 5.37-2.261 1.88 0 3.617.502 5.228 1.525 1.611 1.023 2.399 2.907 2.399 5.653v8.291c0 2.746-.806 4.612-2.399 5.617-1.611 1.005-3.348 1.508-5.227 1.508-3.598 0-5.836-1.687-6.695-5.061h4.278c.304.556.788.969 1.432 1.274.645.287 1.29.377 1.934.233.644-.143 1.235-.52 1.754-1.148.555-.646.86-1.579.949-2.836Zm-6.695-6.765c0 2.71.787 4.217 2.345 4.504 1.557.287 2.72-.072 3.455-1.095.358-.43.608-1.112.77-2.027a8.83 8.83 0 0 0 .035-2.746 5.592 5.592 0 0 0-.966-2.405c-.502-.7-1.254-1.059-2.238-1.059-1.325 0-2.238.485-2.703 1.472-.466.969-.698 2.099-.698 3.356Zm25.008 7.699h-2.06c-.59 0-1.074-.18-1.432-.557-.376-.377-.555-.861-.555-1.435V288.4c0-.934-.286-1.634-.86-2.064a3.084 3.084 0 0 0-1.915-.646c-.698 0-1.325.215-1.88.646-.554.43-.823 1.112-.823 2.064v10.014H73.97v-9.189c0-2.674.698-4.451 2.076-5.348 1.397-.897 2.918-1.4 4.601-1.471 1.719 0 3.312.448 4.762 1.345 1.45.898 2.166 2.728 2.166 5.474v9.171h.036Zm1.002-14.285h4.118v14.303h-4.118v-14.303Zm11.672 14.284a33.166 33.166 0 0 1-4.189-.053c-1.503-.126-2.255-1.077-2.255-2.89v-15.308h2.112c.501 0 .967.197 1.343.592.394.395.59.862.59 1.418v.538h2.399v.826c0 .592-.197 1.077-.59 1.436-.394.377-.86.556-1.415.556h-.411v8.812c0 .664.394 1.005 1.181 1.005h1.235v3.068Z" fill="#fff"/><path d="M111.49 293.568h2.936c-.429 1.651-1.253 2.907-2.47 3.769-1.217.897-2.739 1.346-4.583 1.346-2.238 0-3.974-.718-5.227-2.172-1.253-1.418-1.88-3.428-1.88-6.066 0-2.512.609-4.468 1.826-5.886 1.253-1.454 2.99-2.172 5.227-2.172 2.346 0 4.171.7 5.46 2.118 1.253 1.454 1.88 3.464 1.88 6.066v.646c0 .197-.018.341-.054.413h-10.15c.036 1.22.34 2.117.877 2.71.502.628 1.271.933 2.292.933.662 0 1.235-.144 1.7-.413a.65.65 0 0 0 .323-.215l.322-.323c.036-.126.179-.269.447-.467.251-.179.609-.287 1.074-.287Zm-7.035-4.576h5.997c-.071-1.059-.358-1.849-.823-2.351-.502-.557-1.235-.826-2.166-.826-.86 0-1.558.269-2.113.826-.573.538-.859 1.328-.895 2.351Zm-50.841-12.078h2.112c.555 0 1.02.198 1.414.593.394.394.591.861.591 1.417v19.49h-4.117v-21.5Zm34.998 3.231h2.113c.555 0 1.02.197 1.414.592.394.395.59.861.59 1.418v1.238h-4.117v-3.248Zm-24.597.215h-.644v-.467c-.322.359-.77.539-1.325.539-.519 0-.966-.18-1.342-.521-.394-.376-.591-.843-.591-1.417 0-.593.215-1.077.626-1.454.376-.359.842-.52 1.36-.52.538 0 .968.179 1.29.556v-.467h.644v3.751h-.018Zm-.662-1.866c0-.359-.125-.664-.358-.934a1.202 1.202 0 0 0-.895-.376c-.376 0-.68.125-.949.394-.25.252-.376.521-.376.808 0 .377.108.7.34.969.233.287.537.413.913.413.358 0 .663-.126.931-.377.269-.233.394-.538.394-.897Zm5.317-.108c0 .592-.18 1.077-.537 1.454-.376.394-.842.592-1.432.592-.537 0-.95-.18-1.271-.521v1.687h-.68v-5.007h.644v.449c.16-.179.358-.305.555-.395.215-.09.43-.125.68-.125.52 0 .984.179 1.378.52.448.359.663.808.663 1.346Zm-.698.09a1.25 1.25 0 0 0-.376-.916 1.282 1.282 0 0 0-.931-.376c-.376 0-.68.143-.931.412a1.28 1.28 0 0 0-.34.898c0 .323.09.592.286.843.233.287.573.431 1.02.431.359 0 .663-.126.913-.377.251-.233.359-.538.359-.915Zm5.192 1.884h-.645v-.467c-.322.359-.77.539-1.325.539-.519 0-.966-.18-1.342-.521-.394-.376-.59-.843-.59-1.417 0-.593.214-1.077.626-1.454.376-.359.841-.52 1.36-.52.537 0 .967.179 1.29.556v-.467h.644v3.751h-.018Zm-.645-1.866c0-.359-.125-.664-.358-.934a1.202 1.202 0 0 0-.895-.376c-.376 0-.68.125-.949.394-.25.252-.376.521-.376.808 0 .377.108.7.34.969.233.287.537.413.913.413.358 0 .663-.126.931-.377.25-.233.394-.538.394-.897Zm5.137.628c-.215.43-.466.753-.752.969a1.913 1.913 0 0 1-1.163.359c-.52 0-.985-.18-1.379-.557-.412-.394-.626-.861-.626-1.435h.035s0 .018-.018.036c0-.593.197-1.077.61-1.454a1.81 1.81 0 0 1 1.288-.52c.465 0 .86.125 1.217.358.34.234.609.575.77 1.005h-.752c-.25-.448-.662-.682-1.217-.682-.358 0-.645.126-.877.377a1.309 1.309 0 0 0-.358.916c0 .359.125.682.376.933.25.251.555.377.913.377.232 0 .465-.054.68-.18a1.44 1.44 0 0 0 .501-.484h.752v-.018Zm3.885 1.238h-.68v-2.154c0-.287-.09-.538-.287-.718a1 1 0 0 0-.716-.287c-.286 0-.519.09-.698.251a.908.908 0 0 0-.268.682v2.226h-.68v-5.007h.68v1.561a1.32 1.32 0 0 1 .984-.395c.43 0 .806.144 1.128.449.34.323.52.736.52 1.238v2.154h.017Zm4.439-1.615h-3.168a1.2 1.2 0 0 0 .466.771c.232.162.483.252.751.252.251 0 .484-.072.717-.216.232-.143.393-.341.483-.574h.698c-.179.503-.465.861-.841 1.113-.323.215-.68.323-1.074.323-.502 0-.931-.18-1.29-.539a1.991 1.991 0 0 1-.572-1.435c0-.593.197-1.077.608-1.436a1.867 1.867 0 0 1 1.307-.503c.502 0 .95.162 1.307.503.412.377.627.897.627 1.543v.198h-.018Zm-.697-.628a1.205 1.205 0 0 0-.466-.682 1.218 1.218 0 0 0-.77-.27c-.358 0-.662.126-.895.359a1.232 1.232 0 0 0-.34.593h2.47Zm-49.535-3.015s-12.441 7.609-.716 15.164c2.256 1.472 10.437 5.564 10.204 9.35 0 0 4.959-7.358-2.291-11.988-7.448-4.738-9.31-9.798-7.197-12.526Zm-4.332 14.536s-4.44 6.748 4.296 8.13c.86.108 7.179.772 8.826 2.853 0 0-.143-3.589-5.299-5.707-5.138-2.117-7.25-2.638-7.823-5.276Z" fill="#fff"/><path d="M48.601 282.549c-5.334-5.599-6.82-9.062-4.529-13.549 0 0-15.914 6.138-.197 17.031 5.621 3.894 4.69 7.878 4.69 8.022.878-.915 5.371-5.904.036-11.504Z" fill="#fff"/></svg>