<svg width="542" height="335" fill="none" xmlns="http://www.w3.org/2000/svg"><path fill="#91C2EA" d="M0 0h542v335H0z"/><mask id="a" style="mask-type:alpha" maskUnits="userSpaceOnUse" x="282" y="0" width="260" height="335"><path fill="#91C2EA" d="M282 0h260v335H282z"/></mask><g mask="url(#a)"><path d="M376.923 321.819c38.875 42.427 40.999 62.177 36.334 68.351 41.738-13.606 14.71-45.063-8.326-71.874l-.088-.102c-5.501-6.402-55.166-63.592-62.329-85.12-4.145 1.381-10.817 10.464-14.096 20.457-3.278 9.992 30.971 49.689 48.505 68.288Z" fill="url(#b)"/><path d="M459.783 175.343c39.18 42.592 41.343 62.37 36.662 68.528 42.162-13.449 17.707-43.689-5.524-70.612-5.542-6.423-58.674-65.279-65.921-86.85-4.162 1.374-13.592 13.253-11.877 23.631 3.205 19.387 28.491 46.106 46.134 64.747l.526.556Z" fill="url(#c)"/><path d="M345.793 371.704c58.035 5.352 85.315-1.819 89.666-9.038 3.207 50.797-36.425 35.797-110.459 29.911-59.226-4.708-76.029 11.75-77.027 20.568-17.421-53.799 25.275-48.131 97.82-41.441Z" fill="url(#d)"/><path d="M428.957 224.557c75.041 6.687 85.478-2.143 89.864-9.43 3.026 51.153-36.623 36.189-110.771 30.531-59.318-4.527-76.212 12.112-77.243 20.998-17.257-54.126 25.496-48.573 98.15-42.099Z" fill="url(#e)"/><path d="M512.618 73.252c75.042 6.687 85.479-2.144 89.864-9.43 3.027 51.153-36.623 36.188-110.77 30.53-59.318-4.526-76.212 12.113-77.244 20.998-17.256-54.125 25.497-48.572 98.15-42.098Z" fill="url(#f)"/><g opacity=".21"><path d="M383.36 325.055c-57.242-5.882-74.359 4.199-76.529 11.625-13.987-41.611 27.385-38.692 62.645-36.203l.134.009c8.42.595 83.949 6.326 105.498-.771 1.365 4.15-1.943 14.925-8.006 23.518-6.062 8.593-58.354 4.795-83.742 1.822Z" fill="url(#g)"/><path d="M451.464 171.163c-57.557-6.029-74.719 4.037-76.868 11.468-14.364-41.859 24.494-40.278 59.961-37.7 8.461.615 87.394 8.134 109.029 1.08 1.381 4.158-2.525 18.814-11.877 23.63-17.47 8.997-53.998 4.647-79.485 1.612l-.76-.09Z" fill="url(#h)"/><path d="M361.904 379.801c-38.924-43.378-49.447-69.549-46.25-77.348-42.676 27.736-6.991 50.59 41.906 106.488 39.117 44.719 35.935 68.023 29.455 74.086 53.567-18.121 23.543-49.002-25.111-103.226Z" fill="url(#i)"/><path d="M430.364 225.265c-50.142-56.23-49.283-69.874-46.052-77.742-42.856 28.094-7.189 50.983 41.594 107.109 39.026 44.901 35.753 68.386 29.239 74.515 53.731-18.447 23.765-49.443-24.781-103.882Z" fill="url(#j)"/></g><path d="M214 451.5 342.5 185" stroke="url(#k)"/><path d="M439 451.5 567.5 185" stroke="url(#l)"/><path d="M322 254.5 450.5-12" stroke="url(#m)"/><path d="M367 133.5 495.5-133" stroke="url(#n)"/><path d="M286 269.5 414.5 3" stroke="url(#o)"/></g><path d="M81.297 294.462v-1.005c-.698 1.095-1.647 1.795-2.847 2.064a5.86 5.86 0 0 1-3.544-.287c-1.182-.466-2.184-1.346-3.026-2.62-.84-1.274-1.27-2.943-1.27-5.025 0-2.441.554-4.397 1.664-5.922 1.11-1.508 2.9-2.261 5.37-2.261 1.88 0 3.617.502 5.228 1.525 1.611 1.023 2.399 2.907 2.399 5.653v8.291c0 2.746-.806 4.612-2.399 5.617-1.611 1.005-3.348 1.508-5.227 1.508-3.599 0-5.836-1.687-6.695-5.061h4.278c.304.556.788.969 1.432 1.274.645.287 1.29.377 1.934.233.644-.143 1.235-.52 1.754-1.148.555-.646.86-1.579.949-2.836Zm-6.695-6.765c0 2.71.787 4.217 2.345 4.504 1.557.287 2.72-.072 3.455-1.095.358-.43.608-1.112.77-2.027a8.83 8.83 0 0 0 .035-2.746 5.592 5.592 0 0 0-.966-2.405c-.502-.7-1.254-1.059-2.238-1.059-1.325 0-2.238.485-2.703 1.472-.466.969-.698 2.099-.698 3.356Zm25.008 7.699h-2.06c-.59 0-1.074-.18-1.432-.557-.376-.377-.555-.861-.555-1.435V285.4c0-.934-.286-1.634-.86-2.064a3.084 3.084 0 0 0-1.915-.646c-.698 0-1.325.215-1.88.646-.554.43-.823 1.112-.823 2.064v10.014H85.97v-9.189c0-2.674.698-4.451 2.076-5.348 1.397-.897 2.918-1.4 4.601-1.471 1.719 0 3.312.448 4.762 1.345 1.45.898 2.166 2.728 2.166 5.474v9.171h.036Zm1.002-14.285h4.118v14.303h-4.118v-14.303Zm11.672 14.284a33.172 33.172 0 0 1-4.189-.053c-1.503-.126-2.255-1.077-2.255-2.89v-15.308h2.112c.501 0 .967.197 1.343.592.394.395.591.862.591 1.418v.538h2.398v.826c0 .592-.197 1.077-.59 1.436-.394.377-.86.556-1.415.556h-.411v8.812c0 .664.393 1.005 1.181 1.005h1.235v3.068Z" fill="#fff"/><path d="M123.49 290.568h2.936c-.429 1.651-1.253 2.907-2.47 3.769-1.217.897-2.739 1.346-4.583 1.346-2.238 0-3.974-.718-5.227-2.172-1.253-1.418-1.88-3.428-1.88-6.066 0-2.512.609-4.468 1.826-5.886 1.253-1.454 2.99-2.172 5.227-2.172 2.346 0 4.171.7 5.46 2.118 1.253 1.454 1.88 3.464 1.88 6.066v.646c0 .197-.018.341-.054.413h-10.15c.036 1.22.34 2.117.877 2.71.502.628 1.271.933 2.292.933.662 0 1.235-.144 1.7-.413a.65.65 0 0 0 .323-.215l.322-.323c.036-.126.179-.269.447-.467.251-.179.609-.287 1.074-.287Zm-7.035-4.576h5.997c-.071-1.059-.358-1.849-.823-2.351-.502-.557-1.235-.826-2.166-.826-.86 0-1.558.269-2.113.826-.573.538-.859 1.328-.895 2.351Zm-50.841-12.078h2.112c.555 0 1.02.198 1.414.593.394.394.591.861.591 1.417v19.49h-4.117v-21.5Zm34.998 3.231h2.113c.555 0 1.02.197 1.414.592.394.395.591.861.591 1.418v1.238h-4.118v-3.248Zm-24.597.215h-.644v-.467c-.322.359-.77.539-1.325.539-.519 0-.967-.18-1.342-.521-.394-.376-.591-.843-.591-1.417 0-.593.215-1.077.626-1.454.376-.359.842-.52 1.36-.52.538 0 .968.179 1.29.556v-.467h.644v3.751h-.018Zm-.662-1.866c0-.359-.125-.664-.358-.934a1.202 1.202 0 0 0-.895-.376c-.376 0-.68.125-.949.394-.25.252-.376.521-.376.808 0 .377.108.7.34.969.233.287.537.413.913.413.358 0 .663-.126.931-.377.269-.233.394-.538.394-.897Zm5.317-.108c0 .592-.18 1.077-.537 1.454-.376.394-.842.592-1.432.592-.537 0-.95-.18-1.271-.521v1.687h-.68v-5.007h.644v.449c.16-.179.358-.305.555-.395.215-.09.43-.125.68-.125.52 0 .984.179 1.378.52.448.359.663.808.663 1.346Zm-.698.09a1.25 1.25 0 0 0-.376-.916 1.282 1.282 0 0 0-.931-.376c-.376 0-.68.143-.931.412a1.28 1.28 0 0 0-.34.898c0 .323.09.592.286.843.233.287.573.431 1.02.431.359 0 .663-.126.913-.377.251-.233.359-.538.359-.915Zm5.192 1.884h-.645v-.467c-.322.359-.77.539-1.325.539-.519 0-.966-.18-1.342-.521-.394-.376-.59-.843-.59-1.417 0-.593.214-1.077.626-1.454.376-.359.841-.52 1.36-.52.537 0 .967.179 1.29.556v-.467h.644v3.751h-.018Zm-.645-1.866c0-.359-.125-.664-.358-.934a1.202 1.202 0 0 0-.895-.376c-.376 0-.68.125-.949.394-.25.252-.376.521-.376.808 0 .377.108.7.34.969.233.287.537.413.913.413.358 0 .663-.126.931-.377.25-.233.394-.538.394-.897Zm5.137.628c-.215.43-.466.753-.752.969a1.913 1.913 0 0 1-1.163.359c-.52 0-.985-.18-1.379-.557-.412-.394-.626-.861-.626-1.435h.035s0 .018-.018.036c0-.593.197-1.077.61-1.454a1.81 1.81 0 0 1 1.288-.52c.465 0 .86.125 1.217.358.34.234.609.575.77 1.005h-.752c-.25-.448-.662-.682-1.217-.682-.358 0-.645.126-.877.377a1.309 1.309 0 0 0-.358.916c0 .359.125.682.376.933.25.251.555.377.913.377.232 0 .465-.054.68-.18a1.44 1.44 0 0 0 .501-.484h.752v-.018Zm3.885 1.238h-.68v-2.154c0-.287-.09-.538-.287-.718a1 1 0 0 0-.716-.287c-.286 0-.519.09-.698.251a.908.908 0 0 0-.268.682v2.226h-.68v-5.007h.68v1.561a1.32 1.32 0 0 1 .984-.395c.43 0 .806.144 1.128.449.34.323.52.736.52 1.238v2.154h.017Zm4.439-1.615h-3.168a1.2 1.2 0 0 0 .466.771c.232.162.483.252.751.252.251 0 .484-.072.717-.216.232-.143.393-.341.483-.574h.698c-.179.503-.465.861-.841 1.113-.323.215-.68.323-1.074.323-.502 0-.931-.18-1.29-.539a1.991 1.991 0 0 1-.572-1.435c0-.593.197-1.077.608-1.436a1.867 1.867 0 0 1 1.307-.503c.502 0 .95.162 1.307.503.412.377.627.897.627 1.543v.198h-.018Zm-.697-.628a1.205 1.205 0 0 0-.466-.682 1.217 1.217 0 0 0-.77-.27c-.358 0-.662.126-.895.359a1.232 1.232 0 0 0-.34.593h2.47Zm-49.535-3.015s-12.441 7.609-.716 15.164c2.256 1.472 10.437 5.564 10.204 9.35 0 0 4.959-7.358-2.291-11.988-7.448-4.738-9.31-9.798-7.197-12.526Z" fill="#fff"/><path d="M43.416 286.638s-4.44 6.748 4.296 8.13c.86.108 7.179.772 8.826 2.853 0 0-.143-3.589-5.299-5.707-5.138-2.117-7.25-2.638-7.823-5.276Zm17.185-7.089c-5.334-5.599-6.82-9.062-4.529-13.549 0 0-15.914 6.138-.197 17.031 5.621 3.894 4.69 7.878 4.69 8.022.878-.915 5.371-5.904.036-11.504Z" fill="#fff"/><defs><linearGradient id="b" x1="405.977" y1="264.97" x2="355.832" y2="364.743" gradientUnits="userSpaceOnUse"><stop stop-color="#0070CC"/><stop offset="1" stop-color="#0070CC" stop-opacity="0"/></linearGradient><linearGradient id="c" x1="488.839" y1="118.495" x2="438.694" y2="218.268" gradientUnits="userSpaceOnUse"><stop stop-color="#0070CC"/><stop offset="1" stop-color="#0070CC" stop-opacity="0"/></linearGradient><linearGradient id="d" x1="367.155" y1="328.337" x2="309.092" y2="443.863" gradientUnits="userSpaceOnUse"><stop stop-color="#fff"/><stop offset="1" stop-color="#fff" stop-opacity="0"/></linearGradient><linearGradient id="e" x1="450.516" y1="180.797" x2="391.925" y2="297.374" gradientUnits="userSpaceOnUse"><stop stop-color="#fff"/><stop offset="1" stop-color="#91C2EA"/></linearGradient><linearGradient id="f" x1="534.178" y1="29.492" x2="475.587" y2="146.068" gradientUnits="userSpaceOnUse"><stop stop-color="#fff"/><stop offset="1" stop-color="#91C2EA"/></linearGradient><linearGradient id="g" x1="411.645" y1="267.819" x2="361.5" y2="367.592" gradientUnits="userSpaceOnUse"><stop stop-color="#0070CC"/><stop offset="1" stop-color="#0070CC" stop-opacity="0"/></linearGradient><linearGradient id="h" x1="479.746" y1="113.925" x2="429.601" y2="213.698" gradientUnits="userSpaceOnUse"><stop stop-color="#0070CC"/><stop offset="1" stop-color="#0070CC" stop-opacity="0"/></linearGradient><linearGradient id="i" x1="383.959" y1="336.782" x2="325.896" y2="452.309" gradientUnits="userSpaceOnUse"><stop stop-color="#fff"/><stop offset="1" stop-color="#fff" stop-opacity="0"/></linearGradient><linearGradient id="j" x1="452.617" y1="181.853" x2="394.026" y2="298.429" gradientUnits="userSpaceOnUse"><stop stop-color="#fff"/><stop offset="1" stop-color="#91C2EA"/></linearGradient><linearGradient id="k" x1="278.25" y1="185" x2="278.25" y2="451.5" gradientUnits="userSpaceOnUse"><stop stop-color="#fff"/><stop offset="1" stop-color="#fff" stop-opacity="0"/></linearGradient><linearGradient id="l" x1="503.25" y1="185" x2="503.25" y2="451.5" gradientUnits="userSpaceOnUse"><stop stop-color="#fff"/><stop offset="1" stop-color="#fff" stop-opacity="0"/></linearGradient><linearGradient id="m" x1="386.25" y1="-12" x2="386.25" y2="254.5" gradientUnits="userSpaceOnUse"><stop stop-color="#fff"/><stop offset="1" stop-color="#fff" stop-opacity="0"/></linearGradient><linearGradient id="n" x1="431.25" y1="-133" x2="431.25" y2="133.5" gradientUnits="userSpaceOnUse"><stop stop-color="#fff"/><stop offset="1" stop-color="#fff" stop-opacity="0"/></linearGradient><linearGradient id="o" x1="350.25" y1="3" x2="350.25" y2="269.5" gradientUnits="userSpaceOnUse"><stop stop-color="#fff"/><stop offset="1" stop-color="#fff" stop-opacity="0"/></linearGradient></defs></svg>