<svg width="542" height="335" fill="none" xmlns="http://www.w3.org/2000/svg"><path fill="#91C2EA" d="M0 0h542v335H0z"/><mask id="a" style="mask-type:alpha" maskUnits="userSpaceOnUse" x="172" y="0" width="370" height="335"><path fill="#91C2EA" d="M172 0h370v335H172z"/></mask><g mask="url(#a)"><path d="M442.359 471.733c14.865-37.997 60.773-33.568 88.035-60.915 28.058-28.12 17.105-44.95 54.5-83.627 23.614-24.553 136.097-21.975 166.452-37.307 36.463-18.478 39.077-54.173 79.072-64.771 23.856-6.359 47.712-12.718 71.631-18.973" fill="url(#b)"/><path d="M435.037 459.713c9.953-25.262 33.682-31.83 56.371-41.491 11.262-4.852 22.244-10.393 31.293-19.342 27.98-27.785 17.643-44.991 55.161-82.309 7.454-7.406 23.069-12.042 42.036-15.567 39.957-7.423 93.373-11.005 118.264-20.287 2.039-.812 4.079-1.624 5.682-2.457 29.588-15.438 37.035-42.04 60.705-57.026 5.173-3.293 11.202-6.105 18.445-8.08 23.895-6.526 47.712-12.718 71.67-19.139" fill="url(#c)"/><path d="M427.654 447.587c9.85-25.199 33.412-31.809 56.101-41.471 11.159-4.789 22.142-10.33 31.19-19.279 27.902-27.451 18.285-45.094 55.822-80.992 7.582-7.196 23.325-11.624 42.252-14.982 40.354-7.234 92.698-11.883 117.642-21.771a58.974 58.974 0 0 0 5.619-2.561c29.128-15.731 37.138-42.102 60.846-57.256 5.276-3.356 11.202-6.105 18.445-8.079 23.831-6.631 47.751-12.885 71.773-19.202" fill="url(#d)"/><path d="M420.27 435.461c9.811-25.032 33.245-31.851 55.73-41.387 11.159-4.789 21.975-10.372 30.984-19.154 27.824-27.117 18.823-45.136 56.484-79.676 7.748-7.154 23.579-11.205 42.403-14.501 40.648-6.983 92.023-12.761 117.059-23.422 2.04-.811 3.912-1.665 5.555-2.666 28.771-16.086 37.177-42.269 60.885-57.423 5.276-3.355 11.305-6.167 18.382-8.183 23.87-6.798 47.853-12.948 71.978-19.328" fill="url(#e)"/><path d="M412.886 423.335c9.772-24.865 33.04-31.726 55.461-41.366 11.056-4.727 21.872-10.31 30.945-18.987 27.746-26.783 19.464-45.24 57.106-78.192 7.978-7.008 23.833-10.788 42.619-13.916 41.005-6.628 91.308-13.472 116.437-24.906 1.976-.916 3.849-1.77 5.491-2.77 28.413-16.442 37.216-42.437 60.964-57.757 5.275-3.356 11.241-6.272 18.42-8.351 23.807-6.902 47.956-13.01 72.081-19.39" fill="url(#f)"/><path d="M405.566 411.314c9.669-24.803 32.874-31.768 55.192-41.346 11.056-4.727 21.808-10.415 30.842-18.925 27.502-26.491 20.168-45.238 57.767-76.875 8.208-6.861 24.088-10.369 42.732-13.268 41.401-6.439 90.632-14.35 115.918-26.452 1.975-.916 3.785-1.875 5.491-2.771 27.953-16.735 37.318-42.499 61.002-57.924 5.379-3.418 11.344-6.334 18.421-8.351 23.845-7.069 47.995-13.177 72.222-19.619" fill="url(#g)"/><path d="M398.182 399.188c9.63-24.635 32.605-31.748 54.923-41.326 10.954-4.664 21.706-10.351 30.74-18.862 27.424-26.156 20.872-45.237 58.428-75.557 8.438-6.715 24.445-10.014 42.948-12.683 41.758-6.084 89.956-15.229 115.231-28.041 1.912-1.021 3.785-1.875 5.428-2.875 27.659-16.986 37.357-42.666 61.041-58.091 5.315-3.523 11.344-6.335 18.46-8.518 23.884-7.237 47.995-13.178 72.325-19.682" fill="url(#h)"/><path d="M390.798 387.062c9.591-24.468 32.439-31.789 54.488-41.347 10.89-4.768 21.603-10.289 30.637-18.799 27.41-25.718 21.576-45.237 59.089-74.241 8.605-6.673 24.764-9.491 43.164-12.098 42.052-5.832 89.178-16.045 114.609-29.525 1.912-1.02 3.721-1.979 5.364-2.979 27.302-17.342 37.397-42.833 61.183-58.321 5.315-3.523 11.447-6.397 18.46-8.518 23.821-7.341 48.034-13.344 72.53-19.807" fill="url(#i)"/><path d="M383.414 374.937c9.489-24.406 32.234-31.665 54.219-41.327 10.787-4.706 21.437-10.331 30.535-18.737 27.331-25.384 22.28-45.235 59.814-72.819 8.834-6.526 25.018-9.073 43.379-11.513 42.512-5.539 88.566-16.818 114.09-31.071 1.912-1.021 3.657-2.084 5.3-3.084 26.842-17.635 37.499-42.896 61.222-58.488 5.417-3.585 11.447-6.397 18.498-8.685 23.86-7.508 48.137-13.407 72.57-19.974" fill="url(#j)"/><path d="M376.094 362.916c9.552-24.301 32.067-31.707 53.95-41.306 10.787-4.706 21.334-10.269 30.432-18.675 27.253-25.049 23.048-45.129 60.372-71.44 9.065-6.379 25.273-8.655 43.595-10.927 42.805-5.288 87.788-17.634 113.404-32.66 1.848-1.125 3.657-2.083 5.237-3.188 26.548-17.886 37.435-43.001 61.363-58.718 5.418-3.585 11.486-6.564 18.435-8.789 23.899-7.675 48.176-13.574 72.775-20.1" fill="url(#k)"/><path d="M368.71 350.79c9.513-24.135 31.901-31.749 53.681-41.286 10.685-4.643 21.271-10.373 30.329-18.612 27.175-24.716 23.92-45.087 61.034-70.123 9.294-6.233 25.527-8.237 43.81-10.342 43.163-4.933 87.176-18.408 112.782-34.144 1.848-1.125 3.594-2.188 5.173-3.293 26.191-18.242 37.475-43.167 61.403-58.884 5.417-3.586 11.485-6.565 18.435-8.79 23.835-7.78 48.278-13.636 72.877-20.162" fill="url(#l)"/><path d="M361.327 338.664c9.41-24.072 31.695-31.623 53.309-41.202 10.684-4.644 21.168-10.311 30.226-18.55 27.097-24.381 24.79-45.044 61.695-68.806 9.524-6.086 25.782-7.819 44.025-9.757 43.56-4.744 86.462-19.119 112.2-35.795 1.848-1.125 3.593-2.188 5.109-3.397 25.795-18.43 37.513-43.335 61.544-59.114 5.418-3.586 11.589-6.627 18.474-8.957 23.875-7.947 48.318-13.803 73.083-20.287" fill="url(#m)"/><path d="M353.943 326.538c9.371-23.904 31.529-31.665 53.04-41.182 10.518-4.685 21.065-10.248 30.084-18.319 26.956-24.153 25.622-44.834 62.42-67.385 9.755-5.94 26.101-7.296 44.241-9.172 43.917-4.389 85.786-19.997 111.577-37.279 1.785-1.23 3.53-2.293 5.11-3.397 25.437-18.786 37.616-43.397 61.583-59.282 5.52-3.647 11.588-6.626 18.474-8.956 23.913-8.114 48.317-13.804 73.122-20.454" fill="url(#n)"/><path d="M346.623 314.517c9.332-23.737 31.26-31.645 52.771-41.161 10.518-4.686 20.899-10.29 29.982-18.257 26.774-23.756 26.556-44.687 62.978-66.006 10.087-5.856 26.355-6.877 44.457-8.586 44.273-4.033 85.071-20.709 111.057-38.825a849.53 849.53 0 0 0 5.046-3.503c25.041-18.974 37.655-43.564 61.559-59.552 5.52-3.648 11.524-6.732 18.512-9.124 23.85-8.218 48.357-13.97 73.328-20.579" fill="url(#o)"/><path d="M339.239 302.391c9.229-23.675 31.094-31.687 52.502-41.141 10.518-4.685 20.796-10.228 29.879-18.195 26.697-23.421 27.491-44.538 63.64-64.688 10.317-5.709 26.609-6.46 44.569-7.939 44.631-3.677 84.46-21.482 110.372-40.413 1.785-1.23 3.466-2.398 4.982-3.607 24.684-19.33 37.694-43.731 61.701-59.782a85.324 85.324 0 0 1 18.449-9.229c23.889-8.385 48.459-14.033 73.43-20.641" fill="url(#p)"/><path d="M331.855 290.266c9.191-23.508 30.888-31.562 52.13-41.058 10.416-4.623 20.733-10.332 29.777-18.132 26.619-23.087 28.489-44.287 64.301-63.372 10.547-5.562 26.864-6.041 44.785-7.353 45.027-3.489 83.745-22.194 109.75-41.898 1.72-1.335 3.402-2.502 4.918-3.711 24.39-19.581 37.797-43.794 61.739-59.95 5.559-3.815 11.628-6.793 18.552-9.29 23.928-8.553 48.499-14.2 73.572-20.871" fill="url(#q)"/><path d="M324.535 278.245c9.152-23.341 30.722-31.604 51.861-41.038 10.416-4.623 20.63-10.269 29.674-18.069 26.541-22.753 29.32-44.077 65.026-61.95 10.777-5.417 27.182-5.519 45-6.769 45.385-3.133 83.031-22.905 109.167-43.549 1.721-1.334 3.403-2.502 4.855-3.816 23.93-19.874 37.836-43.96 61.881-60.178 5.559-3.815 11.666-6.961 18.488-9.396 23.864-8.656 48.601-14.262 73.675-20.933" fill="url(#r)"/><path d="M317.151 266.119c9.152-23.341 30.453-31.584 51.592-41.017 10.25-4.665 20.464-10.312 29.572-18.007 26.462-22.419 30.318-43.825 65.584-60.571 11.007-5.27 27.437-5.101 45.216-6.183 45.742-2.778 82.419-23.679 108.544-45.033 1.721-1.334 3.339-2.606 4.791-3.92 23.637-20.126 37.875-44.128 61.921-60.346 5.559-3.815 11.666-6.961 18.424-9.5 23.903-8.824 48.538-14.367 73.88-21.058" fill="url(#s)"/><path d="M309.767 253.993c9.113-23.174 30.35-31.521 51.26-41.101 10.249-4.665 20.361-10.25 29.468-17.945 26.385-22.085 31.38-43.468 66.245-59.254 11.34-5.185 27.692-4.682 45.432-5.598 46.1-2.422 81.704-24.389 107.923-46.516 1.657-1.44 3.275-2.711 4.727-4.025 23.343-20.377 37.978-44.19 62.062-60.576 5.662-3.877 11.769-7.023 18.527-9.562 23.943-8.991 48.64-14.43 73.983-21.121" fill="url(#t)"/><path d="M302.384 241.868c9.073-23.007 30.184-31.564 50.887-41.018 10.147-4.603 20.195-10.292 29.366-17.883 26.204-21.688 32.378-43.216 66.907-57.936 11.633-4.935 28.01-4.16 45.647-5.013 46.559-2.129 81.156-25.06 107.339-48.168 1.658-1.439 3.276-2.71 4.728-4.025 22.883-20.67 38.016-44.357 62.101-60.742 5.661-3.878 11.769-7.024 18.463-9.667 23.879-9.096 48.679-14.597 74.125-21.35" fill="url(#u)"/><path d="M295.063 229.846c8.971-22.945 29.915-31.543 50.619-40.998 10.147-4.602 20.195-10.291 29.161-17.757 26.125-21.354 33.439-42.859 67.631-56.515 11.863-4.788 28.264-3.742 45.863-4.428 46.853-1.878 80.441-25.77 106.717-49.651a305.494 305.494 0 0 0 4.664-4.13c22.589-20.92 38.055-44.524 62.14-60.91 5.661-3.877 11.808-7.19 18.566-9.729 23.917-9.263 48.782-14.66 74.227-21.413" fill="url(#v)"/><path d="M287.68 217.72c8.931-22.777 29.748-31.584 50.349-40.977 10.044-4.539 20.029-10.333 29.122-17.589 25.984-21.125 34.398-42.441 68.292-55.199 12.157-4.537 28.519-3.324 46.079-3.842 47.21-1.523 79.893-26.44 106.134-51.303 1.491-1.481 3.148-2.92 4.6-4.234 22.296-21.172 38.158-44.587 62.282-61.14 5.764-3.94 11.808-7.19 18.502-9.833 23.893-9.534 48.821-14.827 74.433-21.538" fill="url(#w)"/><path d="M280.296 205.595c8.892-22.61 29.543-31.46 50.081-40.957 10.043-4.539 19.925-10.27 29.018-17.527 25.906-20.79 35.46-42.084 68.851-53.819 12.387-4.39 28.838-2.801 46.294-3.257 47.568-1.167 79.179-27.15 105.512-52.787 1.491-1.48 3.148-2.92 4.537-4.338 21.899-21.36 38.197-44.754 62.32-61.307 5.765-3.94 11.911-7.253 18.542-10 23.829-9.64 48.821-14.827 74.471-21.706" fill="url(#x)"/><path d="M272.912 193.469c8.79-22.548 29.377-31.501 49.709-40.873 9.878-4.582 19.759-10.313 28.916-17.465 25.828-20.457 36.522-41.728 69.512-52.502 12.681-4.14 29.092-2.383 46.51-2.672 47.925-.812 78.63-27.82 104.89-54.271 1.49-1.481 3.084-3.025 4.472-4.443 21.606-21.611 38.237-44.921 62.399-61.64 5.765-3.94 11.911-7.253 18.542-10.002 23.868-9.805 48.86-14.993 74.677-21.83" fill="url(#y)"/><path d="M265.592 181.448c8.751-22.381 29.108-31.481 49.44-40.853 9.878-4.582 19.657-10.25 28.814-17.403 25.75-20.122 37.544-41.203 70.236-51.08 12.974-3.889 29.347-1.965 46.623-2.025 48.282-.455 78.082-28.489 104.307-55.921 1.427-1.586 3.084-3.025 4.409-4.548 21.248-21.967 38.339-44.983 62.438-61.807 5.7-4.045 11.949-7.42 18.477-10.106 23.908-9.973 48.963-15.056 74.78-21.893" fill="url(#z)"/><path d="M258.208 169.323c8.712-22.214 28.942-31.523 49.171-40.833a153.448 153.448 0 0 0 28.711-17.34c25.569-19.725 38.503-40.784 70.898-49.764 13.37-3.7 29.665-1.442 46.838-1.439 48.64-.1 77.431-29.095 103.685-57.405 1.427-1.586 3.02-3.13 4.409-4.548 20.852-22.155 38.275-45.088 62.477-61.974 5.803-4.108 11.949-7.42 18.58-10.169 23.844-10.077 49.065-15.118 74.882-21.955" fill="url(#A)"/><path d="M250.824 157.196c8.712-22.213 28.736-31.398 48.902-40.811a152.422 152.422 0 0 0 28.609-17.278c25.491-19.391 39.628-40.323 71.456-48.384 13.664-3.449 29.919-1.024 46.99-.959 49.06.36 76.883-29.765 102.999-58.994 1.427-1.585 2.854-3.17 4.345-4.652 20.559-22.406 38.315-45.255 62.619-62.204 5.803-4.107 11.949-7.42 18.517-10.273 23.882-10.244 49.104-15.285 75.024-22.184" fill="url(#B)"/><path d="M243.44 145.071c8.673-22.047 28.57-31.44 48.531-40.729 9.775-4.52 19.324-10.334 28.505-17.215 25.35-19.162 40.651-39.8 72.118-47.067 13.855-3.135 30.174-.606 47.206-.374 49.417.716 76.27-30.538 102.479-60.54l4.282-4.757c20.265-22.657 38.417-45.317 62.657-62.371a103.25 103.25 0 0 1 18.556-10.44c23.922-10.411 49.104-15.285 75.127-22.247" fill="url(#C)"/><path d="M236.12 133.049c8.634-21.879 28.301-31.419 48.262-40.708a166.747 166.747 0 0 0 28.403-17.152c25.271-18.828 41.673-39.276 72.842-45.646 14.148-2.884 30.492-.084 47.421.212 49.775 1.07 75.786-31.104 101.857-62.025 1.364-1.69 2.791-3.276 4.218-4.861 19.869-22.846 38.457-45.485 62.8-62.6a102.895 102.895 0 0 1 18.556-10.441c23.858-10.516 49.143-15.452 75.332-22.372" fill="url(#D)"/><path d="M228.736 120.924c8.532-21.817 28.199-31.357 47.993-40.688 9.608-4.561 19.055-10.314 28.197-17.027 25.194-18.494 42.697-38.753 73.504-44.33 14.442-2.632 30.747.336 47.637.798C476.199 21.104 501.305-12.096 527.341-44c1.363-1.69 2.791-3.276 4.154-4.966 19.575-23.096 38.496-45.651 62.839-62.767 5.906-4.17 12.091-7.65 18.595-10.607 23.833-10.788 49.246-15.515 75.434-22.435" fill="url(#E)"/><path d="M221.352 108.798c8.493-21.65 28.032-31.399 47.66-40.772 9.506-4.499 18.953-10.25 28.159-16.86 25.115-18.16 43.719-38.229 74.062-42.95 14.799-2.277 31.065.858 47.852 1.383 50.49 1.782 74.69-32.442 100.652-65.16l4.091-5.07c19.281-23.348 38.598-45.714 62.98-62.998 5.906-4.169 12.091-7.649 18.595-10.606 23.872-10.955 49.285-15.682 75.576-22.665" fill="url(#F)"/><path d="M214.032 96.777c8.39-21.588 27.763-31.379 47.288-40.69 9.506-4.498 18.889-10.355 28.056-16.797 24.935-17.763 44.703-37.538 74.723-41.632 15.094-2.027 31.32 1.275 48.069 1.967 50.846 2.138 74.141-33.111 99.965-66.748 1.364-1.69 2.728-3.38 4.028-5.175 18.988-23.6 38.637-45.881 63.019-63.164 6.009-4.233 12.13-7.817 18.634-10.774 23.809-11.059 49.387-15.745 75.679-22.727" fill="url(#G)"/><path d="M206.649 84.651c8.35-21.42 27.596-31.42 47.019-40.668 9.403-4.436 18.786-10.293 27.953-16.735 24.793-17.533 45.725-37.015 75.448-40.211 15.348-1.609 31.638 1.798 48.284 2.552 51.267 2.598 73.593-33.78 99.446-68.294 1.3-1.795 2.664-3.485 4.027-5.175 18.592-23.788 38.676-46.048 62.995-63.436 6.009-4.232 12.13-7.817 18.57-10.878 23.848-11.227 49.324-15.85 75.884-22.853" fill="url(#H)"/><path d="M199.265 72.525c8.311-21.253 27.391-31.295 46.75-40.647 9.339-4.541 18.619-10.336 27.85-16.673 24.715-17.2 46.645-36.428 76.109-38.894 15.642-1.357 31.893 2.216 48.397 3.2 51.625 2.954 73.109-34.345 98.824-69.779 1.3-1.794 2.6-3.589 3.964-5.279 18.298-24.039 38.779-46.111 63.136-63.666 5.945-4.336 12.233-7.879 18.57-10.878 23.887-11.393 49.427-15.912 75.924-23.019" fill="url(#I)"/><path d="M191.881 60.4c8.273-21.087 27.225-31.338 46.481-40.627 9.237-4.479 18.517-10.273 27.748-16.61 24.637-16.866 47.629-35.738 76.667-37.515 15.897-.94 32.045 2.697 48.613 3.785 51.982 3.31 72.56-35.014 98.138-71.367l3.9-5.384c18.004-24.29 38.818-46.278 63.175-63.833 5.945-4.336 12.17-7.983 18.61-11.045 23.823-11.498 49.465-16.079 76.128-23.144" fill="url(#J)"/><path d="M184.561 48.378c8.272-21.086 26.956-31.317 46.109-40.544 9.237-4.478 18.351-10.315 27.645-16.547 24.559-16.531 48.549-35.152 77.329-36.198 16.151-.521 32.363 3.22 48.828 4.37 52.3 3.832 72.012-35.683 97.619-72.913 1.236-1.899 2.536-3.694 3.836-5.489 17.711-24.541 38.857-46.445 63.317-64.062a115.693 115.693 0 0 1 18.61-11.045c23.862-11.665 49.568-16.142 76.231-23.207" fill="url(#K)"/><path d="M177.177 36.253c8.233-20.92 26.853-31.254 45.84-40.524 33.471-16.226 66.241-50.94 105.596-51.261 16.406-.103 32.618 3.638 49.044 4.955 52.658 4.188 71.527-36.247 96.933-74.501 18.027-27.027 40.845-50.808 67.129-69.823 28.928-20.911 61.115-25.609 94.918-34.586" fill="url(#L)"/></g><path d="M72.297 297.462v-1.005c-.698 1.095-1.647 1.795-2.847 2.064a5.86 5.86 0 0 1-3.544-.287c-1.182-.466-2.184-1.346-3.026-2.62-.84-1.274-1.27-2.943-1.27-5.025 0-2.441.554-4.397 1.664-5.922 1.11-1.508 2.9-2.261 5.37-2.261 1.88 0 3.617.502 5.228 1.525 1.611 1.023 2.399 2.907 2.399 5.653v8.291c0 2.746-.806 4.612-2.399 5.617-1.611 1.005-3.348 1.508-5.227 1.508-3.599 0-5.836-1.687-6.695-5.061h4.278c.304.556.788.969 1.432 1.274.645.287 1.29.377 1.934.233.644-.143 1.235-.52 1.754-1.148.555-.646.86-1.579.949-2.836Zm-6.695-6.765c0 2.71.787 4.217 2.345 4.504 1.557.287 2.72-.072 3.455-1.095.358-.43.608-1.112.77-2.027a8.83 8.83 0 0 0 .035-2.746 5.592 5.592 0 0 0-.966-2.405c-.502-.7-1.254-1.059-2.238-1.059-1.325 0-2.238.485-2.703 1.472-.466.969-.698 2.099-.698 3.356Zm25.008 7.699h-2.06c-.59 0-1.074-.18-1.432-.557-.376-.377-.555-.861-.555-1.435V288.4c0-.934-.286-1.634-.86-2.064a3.084 3.084 0 0 0-1.915-.646c-.698 0-1.325.215-1.88.646-.554.43-.823 1.112-.823 2.064v10.014H76.97v-9.189c0-2.674.698-4.451 2.076-5.348 1.397-.897 2.918-1.4 4.601-1.471 1.719 0 3.312.448 4.762 1.345 1.45.898 2.166 2.728 2.166 5.474v9.171h.036Zm1.002-14.285h4.118v14.303h-4.118v-14.303Zm11.672 14.284a33.165 33.165 0 0 1-4.189-.053c-1.503-.126-2.255-1.077-2.255-2.89v-15.308h2.112c.501 0 .967.197 1.343.592.394.395.591.862.591 1.418v.538h2.398v.826c0 .592-.197 1.077-.59 1.436-.394.377-.86.556-1.415.556h-.411v8.812c0 .664.393 1.005 1.181 1.005h1.235v3.068Z" fill="#fff"/><path d="M114.49 293.568h2.936c-.429 1.651-1.253 2.907-2.47 3.769-1.217.897-2.739 1.346-4.583 1.346-2.238 0-3.974-.718-5.227-2.172-1.253-1.418-1.88-3.428-1.88-6.066 0-2.512.609-4.468 1.826-5.886 1.253-1.454 2.99-2.172 5.227-2.172 2.346 0 4.171.7 5.46 2.118 1.253 1.454 1.88 3.464 1.88 6.066v.646c0 .197-.018.341-.054.413h-10.15c.036 1.22.34 2.117.877 2.71.502.628 1.271.933 2.292.933.662 0 1.235-.144 1.7-.413a.65.65 0 0 0 .323-.215l.322-.323c.036-.126.179-.269.447-.467.251-.179.609-.287 1.074-.287Zm-7.035-4.576h5.997c-.071-1.059-.358-1.849-.823-2.351-.502-.557-1.235-.826-2.166-.826-.86 0-1.558.269-2.113.826-.573.538-.859 1.328-.895 2.351Zm-50.841-12.078h2.112c.555 0 1.02.198 1.414.593.394.394.591.861.591 1.417v19.49h-4.117v-21.5Zm34.998 3.231h2.113c.555 0 1.02.197 1.414.592.394.395.59.861.59 1.418v1.238h-4.117v-3.248Zm-24.597.215h-.644v-.467c-.322.359-.77.539-1.325.539-.519 0-.967-.18-1.342-.521-.394-.376-.591-.843-.591-1.417 0-.593.215-1.077.626-1.454.376-.359.842-.52 1.36-.52.538 0 .968.179 1.29.556v-.467h.644v3.751h-.018Zm-.662-1.866c0-.359-.125-.664-.358-.934a1.202 1.202 0 0 0-.895-.376c-.376 0-.68.125-.949.394-.25.252-.376.521-.376.808 0 .377.108.7.34.969.233.287.537.413.913.413.358 0 .663-.126.931-.377.269-.233.394-.538.394-.897Zm5.317-.108c0 .592-.18 1.077-.537 1.454-.376.394-.842.592-1.432.592-.537 0-.95-.18-1.271-.521v1.687h-.68v-5.007h.644v.449c.16-.179.358-.305.555-.395.215-.09.43-.125.68-.125.52 0 .984.179 1.378.52.448.359.663.808.663 1.346Zm-.698.09a1.25 1.25 0 0 0-.376-.916 1.282 1.282 0 0 0-.931-.376c-.376 0-.68.143-.931.412a1.28 1.28 0 0 0-.34.898c0 .323.09.592.286.843.233.287.573.431 1.02.431.359 0 .663-.126.913-.377.251-.233.359-.538.359-.915Zm5.192 1.884h-.645v-.467c-.322.359-.77.539-1.325.539-.519 0-.966-.18-1.342-.521-.394-.376-.59-.843-.59-1.417 0-.593.214-1.077.626-1.454.376-.359.841-.52 1.36-.52.537 0 .967.179 1.29.556v-.467h.644v3.751h-.018Zm-.645-1.866c0-.359-.125-.664-.358-.934a1.202 1.202 0 0 0-.895-.376c-.376 0-.68.125-.949.394-.25.252-.376.521-.376.808 0 .377.108.7.34.969.233.287.537.413.913.413.358 0 .663-.126.931-.377.25-.233.394-.538.394-.897Zm5.137.628c-.215.43-.466.753-.752.969a1.913 1.913 0 0 1-1.163.359c-.52 0-.985-.18-1.379-.557-.412-.394-.626-.861-.626-1.435h.035s0 .018-.018.036c0-.593.197-1.077.61-1.454a1.81 1.81 0 0 1 1.288-.52c.465 0 .86.125 1.217.358.34.234.609.575.77 1.005h-.752c-.25-.448-.662-.682-1.217-.682-.358 0-.645.126-.877.377a1.309 1.309 0 0 0-.358.916c0 .359.125.682.376.933.25.251.555.377.913.377.232 0 .465-.054.68-.18a1.44 1.44 0 0 0 .501-.484h.752v-.018Zm3.885 1.238h-.68v-2.154c0-.287-.09-.538-.287-.718a1 1 0 0 0-.716-.287c-.286 0-.519.09-.698.251a.908.908 0 0 0-.268.682v2.226h-.68v-5.007h.68v1.561a1.32 1.32 0 0 1 .984-.395c.43 0 .806.144 1.128.449.34.323.52.736.52 1.238v2.154h.017Zm4.439-1.615h-3.168a1.2 1.2 0 0 0 .466.771c.232.162.483.252.751.252.251 0 .484-.072.717-.216.232-.143.393-.341.483-.574h.698c-.179.503-.465.861-.841 1.113-.323.215-.68.323-1.074.323-.502 0-.931-.18-1.29-.539a1.991 1.991 0 0 1-.572-1.435c0-.593.197-1.077.608-1.436a1.867 1.867 0 0 1 1.307-.503c.502 0 .95.162 1.307.503.412.377.627.897.627 1.543v.198h-.018Zm-.697-.628a1.205 1.205 0 0 0-.466-.682 1.218 1.218 0 0 0-.77-.27c-.358 0-.662.126-.895.359a1.232 1.232 0 0 0-.34.593h2.47Zm-49.535-3.015s-12.441 7.609-.716 15.164c2.256 1.472 10.437 5.564 10.204 9.35 0 0 4.959-7.358-2.291-11.988-7.448-4.738-9.31-9.798-7.197-12.526Z" fill="#fff"/><path d="M34.416 289.638s-4.44 6.748 4.296 8.13c.86.108 7.179.772 8.826 2.853 0 0-.143-3.589-5.299-5.707-5.138-2.117-7.25-2.638-7.823-5.276Zm17.185-7.089c-5.334-5.599-6.82-9.062-4.529-13.549 0 0-15.914 6.138-.197 17.031 5.621 3.894 4.69 7.878 4.69 8.022.878-.915 5.371-5.904.036-11.504Z" fill="#fff"/><defs><linearGradient id="b" x1="675.336" y1="344.11" x2="642.922" y2="290.88" gradientUnits="userSpaceOnUse"><stop stop-color="#0070CC"/><stop offset="1" stop-color="#fff" stop-opacity="0"/></linearGradient><linearGradient id="c" x1="667.952" y1="331.986" x2="636.376" y2="280.131" gradientUnits="userSpaceOnUse"><stop stop-color="#0070CC"/><stop offset="1" stop-color="#fff" stop-opacity="0"/></linearGradient><linearGradient id="d" x1="660.633" y1="319.967" x2="629.763" y2="269.271" gradientUnits="userSpaceOnUse"><stop stop-color="#0070CC"/><stop offset="1" stop-color="#fff" stop-opacity="0"/></linearGradient><linearGradient id="e" x1="653.071" y1="307.665" x2="623.069" y2="258.394" gradientUnits="userSpaceOnUse"><stop stop-color="#0070CC"/><stop offset="1" stop-color="#fff" stop-opacity="0"/></linearGradient><linearGradient id="f" x1="645.752" y1="295.645" x2="616.569" y2="247.721" gradientUnits="userSpaceOnUse"><stop stop-color="#0070CC"/><stop offset="1" stop-color="#fff" stop-opacity="0"/></linearGradient><linearGradient id="g" x1="638.496" y1="283.729" x2="609.999" y2="236.931" gradientUnits="userSpaceOnUse"><stop stop-color="#0070CC"/><stop offset="1" stop-color="#fff" stop-opacity="0"/></linearGradient><linearGradient id="h" x1="631.05" y1="271.501" x2="603.358" y2="226.025" gradientUnits="userSpaceOnUse"><stop stop-color="#0070CC"/><stop offset="1" stop-color="#fff" stop-opacity="0"/></linearGradient><linearGradient id="i" x1="623.667" y1="259.376" x2="596.633" y2="214.981" gradientUnits="userSpaceOnUse"><stop stop-color="#0070CC"/><stop offset="1" stop-color="#fff" stop-opacity="0"/></linearGradient><linearGradient id="j" x1="616.336" y1="247.221" x2="590.095" y2="204.128" gradientUnits="userSpaceOnUse"><stop stop-color="#0070CC"/><stop offset="1" stop-color="#fff" stop-opacity="0"/></linearGradient><linearGradient id="k" x1="608.952" y1="235.097" x2="583.498" y2="193.295" gradientUnits="userSpaceOnUse"><stop stop-color="#0070CC"/><stop offset="1" stop-color="#fff" stop-opacity="0"/></linearGradient><linearGradient id="l" x1="601.582" y1="223.108" x2="576.779" y2="182.376" gradientUnits="userSpaceOnUse"><stop stop-color="#0070CC"/><stop offset="1" stop-color="#fff" stop-opacity="0"/></linearGradient><linearGradient id="m" x1="594.238" y1="210.817" x2="570.208" y2="171.354" gradientUnits="userSpaceOnUse"><stop stop-color="#0070CC"/><stop offset="1" stop-color="#fff" stop-opacity="0"/></linearGradient><linearGradient id="n" x1="586.943" y1="199.068" x2="563.552" y2="160.655" gradientUnits="userSpaceOnUse"><stop stop-color="#0070CC"/><stop offset="1" stop-color="#fff" stop-opacity="0"/></linearGradient><linearGradient id="o" x1="579.611" y1="186.913" x2="556.972" y2="149.733" gradientUnits="userSpaceOnUse"><stop stop-color="#0070CC"/><stop offset="1" stop-color="#fff" stop-opacity="0"/></linearGradient><linearGradient id="p" x1="572.114" y1="174.715" x2="550.195" y2="138.72" gradientUnits="userSpaceOnUse"><stop stop-color="#0070CC"/><stop offset="1" stop-color="#fff" stop-opacity="0"/></linearGradient><linearGradient id="q" x1="564.731" y1="162.591" x2="543.452" y2="127.647" gradientUnits="userSpaceOnUse"><stop stop-color="#0070CC"/><stop offset="1" stop-color="#fff" stop-opacity="0"/></linearGradient><linearGradient id="r" x1="557.462" y1="150.539" x2="536.837" y2="116.668" gradientUnits="userSpaceOnUse"><stop stop-color="#0070CC"/><stop offset="1" stop-color="#fff" stop-opacity="0"/></linearGradient><linearGradient id="s" x1="550.288" y1="138.873" x2="529.993" y2="105.543" gradientUnits="userSpaceOnUse"><stop stop-color="#0070CC"/><stop offset="1" stop-color="#fff" stop-opacity="0"/></linearGradient><linearGradient id="t" x1="543.468" y1="127.558" x2="523.185" y2="94.248" gradientUnits="userSpaceOnUse"><stop stop-color="#0070CC"/><stop offset="1" stop-color="#fff" stop-opacity="0"/></linearGradient><linearGradient id="u" x1="536.728" y1="116.489" x2="516.352" y2="83.027" gradientUnits="userSpaceOnUse"><stop stop-color="#0070CC"/><stop offset="1" stop-color="#fff" stop-opacity="0"/></linearGradient><linearGradient id="v" x1="530.083" y1="105.693" x2="509.568" y2="72.002" gradientUnits="userSpaceOnUse"><stop stop-color="#0070CC"/><stop offset="1" stop-color="#fff" stop-opacity="0"/></linearGradient><linearGradient id="w" x1="523.605" y1="94.823" x2="502.876" y2="60.781" gradientUnits="userSpaceOnUse"><stop stop-color="#0070CC"/><stop offset="1" stop-color="#fff" stop-opacity="0"/></linearGradient><linearGradient id="x" x1="516.932" y1="83.98" x2="495.951" y2="49.525" gradientUnits="userSpaceOnUse"><stop stop-color="#0070CC"/><stop offset="1" stop-color="#fff" stop-opacity="0"/></linearGradient><linearGradient id="y" x1="510.368" y1="73.2" x2="489.059" y2="38.207" gradientUnits="userSpaceOnUse"><stop stop-color="#0070CC"/><stop offset="1" stop-color="#fff" stop-opacity="0"/></linearGradient><linearGradient id="z" x1="503.899" y1="62.692" x2="482.213" y2="27.079" gradientUnits="userSpaceOnUse"><stop stop-color="#0070CC"/><stop offset="1" stop-color="#fff" stop-opacity="0"/></linearGradient><linearGradient id="A" x1="497.384" y1="51.995" x2="475.279" y2="15.692" gradientUnits="userSpaceOnUse"><stop stop-color="#0070CC"/><stop offset="1" stop-color="#fff" stop-opacity="0"/></linearGradient><linearGradient id="B" x1="490.846" y1="41.258" x2="468.352" y2="4.316" gradientUnits="userSpaceOnUse"><stop stop-color="#0070CC"/><stop offset="1" stop-color="#fff" stop-opacity="0"/></linearGradient><linearGradient id="C" x1="484.35" y1="30.589" x2="461.389" y2="-7.117" gradientUnits="userSpaceOnUse"><stop stop-color="#0070CC"/><stop offset="1" stop-color="#fff" stop-opacity="0"/></linearGradient><linearGradient id="D" x1="478.087" y1="20.188" x2="454.549" y2="-18.466" gradientUnits="userSpaceOnUse"><stop stop-color="#0070CC"/><stop offset="1" stop-color="#fff" stop-opacity="0"/></linearGradient><linearGradient id="E" x1="471.633" y1="9.59" x2="447.55" y2="-29.959" gradientUnits="userSpaceOnUse"><stop stop-color="#0070CC"/><stop offset="1" stop-color="#fff" stop-opacity="0"/></linearGradient><linearGradient id="F" x1="465.196" y1="-.981" x2="440.526" y2="-41.494" gradientUnits="userSpaceOnUse"><stop stop-color="#0070CC"/><stop offset="1" stop-color="#fff" stop-opacity="0"/></linearGradient><linearGradient id="G" x1="458.777" y1="-11.406" x2="433.513" y2="-52.896" gradientUnits="userSpaceOnUse"><stop stop-color="#0070CC"/><stop offset="1" stop-color="#fff" stop-opacity="0"/></linearGradient><linearGradient id="H" x1="452.502" y1="-21.827" x2="426.468" y2="-64.58" gradientUnits="userSpaceOnUse"><stop stop-color="#0070CC"/><stop offset="1" stop-color="#fff" stop-opacity="0"/></linearGradient><linearGradient id="I" x1="446.057" y1="-32.296" x2="419.3" y2="-76.237" gradientUnits="userSpaceOnUse"><stop stop-color="#0070CC"/><stop offset="1" stop-color="#fff" stop-opacity="0"/></linearGradient><linearGradient id="J" x1="439.65" y1="-42.817" x2="412.171" y2="-87.944" gradientUnits="userSpaceOnUse"><stop stop-color="#0070CC"/><stop offset="1" stop-color="#fff" stop-opacity="0"/></linearGradient><linearGradient id="K" x1="433.345" y1="-53.172" x2="404.997" y2="-99.724" gradientUnits="userSpaceOnUse"><stop stop-color="#0070CC"/><stop offset="1" stop-color="#fff" stop-opacity="0"/></linearGradient><linearGradient id="L" x1="427.028" y1="-63.544" x2="397.606" y2="-111.861" gradientUnits="userSpaceOnUse"><stop stop-color="#0070CC"/><stop offset="1" stop-color="#fff" stop-opacity="0"/></linearGradient></defs></svg>