<svg width="542" height="335" fill="none" xmlns="http://www.w3.org/2000/svg"><path fill="#0070CC" d="M0 0h542v335H0z"/><mask id="a" style="mask-type:alpha" maskUnits="userSpaceOnUse" x="269" y="68" width="273" height="267"><path fill="#0070CC" d="M269 68h273v267H269z"/></mask><g mask="url(#a)" stroke-miterlimit="10"><path d="M266 370.401 558.1 71" stroke="url(#b)"/><path d="M315.279 356.788c17.43 0 31.56-14.13 31.56-31.56s-14.13-31.56-31.56-31.56-31.56 14.13-31.56 31.56 14.13 31.56 31.56 31.56Z" stroke="#fff"/><path d="M335.888 344.011c22.134 0 40.077-17.943 40.077-40.077 0-22.134-17.943-40.077-40.077-40.077-22.134 0-40.077 17.943-40.077 40.077 0 22.134 17.943 40.077 40.077 40.077Z" stroke="#fff"/><path d="M356.497 331.312c26.88 0 48.671-21.791 48.671-48.671s-21.791-48.671-48.671-48.671-48.671 21.791-48.671 48.671 21.791 48.671 48.671 48.671Z" stroke="#fff"/><path d="M377.182 318.536c31.584 0 57.188-25.604 57.188-57.188 0-31.584-25.604-57.188-57.188-57.188-31.584 0-57.188 25.604-57.188 57.188 0 31.584 25.604 57.188 57.188 57.188Z" stroke="#fff"/><path d="M397.791 305.836c36.33 0 65.781-29.452 65.781-65.782s-29.451-65.781-65.781-65.781c-36.33 0-65.781 29.451-65.781 65.781 0 36.33 29.451 65.782 65.781 65.782Z" stroke="#fff"/><path d="M418.476 293.06c41.034 0 74.299-33.265 74.299-74.299 0-41.034-33.265-74.299-74.299-74.299-41.034 0-74.299 33.265-74.299 74.299 0 41.034 33.265 74.299 74.299 74.299Z" stroke="#fff"/><path d="M439.085 280.36c45.78 0 82.892-37.112 82.892-82.893 0-45.78-37.112-82.892-82.892-82.892-45.78 0-82.892 37.112-82.892 82.892 0 45.781 37.112 82.893 82.892 82.893Z" stroke="#fff"/><path d="M459.694 267.584c50.484 0 91.41-40.926 91.41-91.41 0-50.484-40.926-91.41-91.41-91.41-50.484 0-91.41 40.926-91.41 91.41 0 50.484 40.926 91.41 91.41 91.41Z" stroke="#fff"/></g><defs><linearGradient id="b" x1="412.05" y1="71" x2="412.05" y2="370.401" gradientUnits="userSpaceOnUse"><stop stop-color="#fff"/><stop offset="1" stop-color="#fff" stop-opacity="0"/></linearGradient></defs></svg>