<svg width="542" height="335" fill="none" xmlns="http://www.w3.org/2000/svg"><path fill="#91C2EA" d="M0 0h542v335H0z"/><mask id="a" style="mask-type:alpha" maskUnits="userSpaceOnUse" x="219" y="95" width="323" height="240"><path fill="#91C2EA" d="M219 95h323v240H219z"/></mask><g mask="url(#a)"><mask id="b" style="mask-type:alpha" maskUnits="userSpaceOnUse" x="311" y="103" width="245" height="233"><path fill="#0070CC" d="M311 103h244.7v232.273H311z"/></mask><g mask="url(#b)" stroke-miterlimit="10"><path d="M405.537 109.691V229.95" stroke="#fff" stroke-opacity=".2"/><path d="M420.008 116.299V229.95" stroke="#fff" stroke-opacity=".2" stroke-width="1.636"/><path d="M434.479 122.907V229.95" stroke="#fff" stroke-opacity=".2" stroke-width="2.273"/><path d="M448.95 129.448V229.95" stroke="#fff" stroke-opacity=".2" stroke-width="2.909"/><path d="M463.486 136.055v93.895" stroke="#fff" stroke-opacity=".2" stroke-width="3.546"/><path d="M477.957 142.663v87.287" stroke="#fff" stroke-opacity=".2" stroke-width="4.182"/><path d="M492.428 149.271v80.679" stroke="#fff" stroke-opacity=".2" stroke-width="4.818"/><path d="M506.899 155.878v74.072" stroke="#fff" stroke-opacity=".2" stroke-width="5.455"/><path d="M521.369 162.486v67.464" stroke="#fff" stroke-opacity=".2" stroke-width="6.091"/><path d="M535.84 169.094v60.856" stroke="#fff" stroke-opacity=".2" stroke-width="6.727"/><path d="M498.837 387.74V241.711" stroke="#fff" stroke-opacity=".2"/><path d="M482.45 379.811v-138.1" stroke="#fff" stroke-opacity=".2" stroke-width="1.636"/><path d="M466.063 371.948V241.711" stroke="#fff" stroke-opacity=".2" stroke-width="2.273"/><path d="M449.676 364.019V241.711" stroke="#fff" stroke-opacity=".2" stroke-width="2.909"/><path d="M433.289 356.09V241.711" stroke="#fff" stroke-opacity=".2" stroke-width="3.546"/><path d="M416.902 348.16V241.711" stroke="#fff" stroke-opacity=".2" stroke-width="4.182"/><path d="M400.515 340.297v-98.586" stroke="#fff" stroke-opacity=".2" stroke-width="4.818"/><path d="M384.195 332.368v-90.657" stroke="#fff" stroke-opacity=".2" stroke-width="5.455"/><path d="M367.808 324.439v-82.728" stroke="#fff" stroke-opacity=".2" stroke-width="6.091"/><path d="M351.421 316.51v-74.799" stroke="#fff" stroke-opacity=".2" stroke-width="6.727"/><path d="M335.034 308.581v-66.87" stroke="#fff" stroke-opacity=".2" stroke-width="7.364"/><path d="M318.647 300.718v-59.007" stroke="#fff" stroke-opacity=".2" stroke-width="8"/><path d="M381.75 164.402v150.324" stroke="#0070CC"/><path d="M398.467 172.2v145.962" stroke="#0070CC" stroke-width="1.778"/><path d="M415.118 179.931v141.733" stroke="#0070CC" stroke-width="2.556"/><path d="M431.77 187.728V325.1" stroke="#0070CC" stroke-width="3.333"/><path d="M448.421 195.458v133.144" stroke="#0070CC" stroke-width="4.111"/><path d="M465.072 203.255v128.783" stroke="#0070CC" stroke-width="4.889"/><path d="M481.723 210.986V335.54" stroke="#0070CC" stroke-width="5.667"/><path d="M498.375 218.783v120.193" stroke="#0070CC" stroke-width="6.444"/><path d="M515.026 226.514v115.898" stroke="#0070CC" stroke-width="7.222"/><path d="M531.743 234.312v111.603" stroke="#0070CC" stroke-width="8"/></g><g filter="url(#c)"><path d="M269 140.16c0-6.331 6.364-10.683 12.264-8.387l159 61.884a9 9 0 0 1 5.736 8.387V361.84c0 6.331-6.364 10.683-12.264 8.387l-159-61.884a9 9 0 0 1-5.736-8.387V140.16Z" fill="#fff" fill-opacity=".1"/></g><g filter="url(#d)"><path d="M282 171.157c0-6.331 6.362-10.683 12.262-8.388l97 37.722a9 9 0 0 1 5.738 8.388v96.964c0 6.331-6.362 10.683-12.262 8.388l-97-37.722a9 9 0 0 1-5.738-8.388v-96.964Z" fill="#fff" fill-opacity=".1"/></g><g filter="url(#e)"><path d="M383 215.188c0-6.339 6.378-10.692 12.28-8.381l26 10.176a9.001 9.001 0 0 1 5.72 8.381v25.448c0 6.339-6.378 10.692-12.28 8.381l-26-10.176a9.001 9.001 0 0 1-5.72-8.381v-25.448Z" fill="#fff" fill-opacity=".1"/></g></g><defs><filter id="c" x="261.1" y="123.252" width="192.8" height="255.496" filterUnits="userSpaceOnUse" color-interpolation-filters="sRGB"><feFlood flood-opacity="0" result="BackgroundImageFix"/><feGaussianBlur in="BackgroundImage" stdDeviation="3.95"/><feComposite in2="SourceAlpha" operator="in" result="effect1_backgroundBlur_26:44"/><feBlend in="SourceGraphic" in2="effect1_backgroundBlur_26:44" result="shape"/><feColorMatrix in="SourceAlpha" values="0 0 0 0 0 0 0 0 0 0 0 0 0 0 0 0 0 0 127 0" result="hardAlpha"/><feOffset dx="-2.833" dy="2.833"/><feGaussianBlur stdDeviation="1.417"/><feComposite in2="hardAlpha" operator="arithmetic" k2="-1" k3="1"/><feColorMatrix values="0 0 0 0 1 0 0 0 0 1 0 0 0 0 1 0 0 0 0.4 0"/><feBlend in2="shape" result="effect2_innerShadow_26:44"/><feColorMatrix in="SourceAlpha" values="0 0 0 0 0 0 0 0 0 0 0 0 0 0 0 0 0 0 127 0" result="hardAlpha"/><feOffset dx="2.833" dy="-2.833"/><feGaussianBlur stdDeviation="1.417"/><feComposite in2="hardAlpha" operator="arithmetic" k2="-1" k3="1"/><feColorMatrix values="0 0 0 0 0.84 0 0 0 0 0.84 0 0 0 0 0.84 0 0 0 0.4 0"/><feBlend in2="effect2_innerShadow_26:44" result="effect3_innerShadow_26:44"/></filter><filter id="d" x="274.1" y="154.248" width="130.8" height="168.504" filterUnits="userSpaceOnUse" color-interpolation-filters="sRGB"><feFlood flood-opacity="0" result="BackgroundImageFix"/><feGaussianBlur in="BackgroundImage" stdDeviation="3.95"/><feComposite in2="SourceAlpha" operator="in" result="effect1_backgroundBlur_26:44"/><feBlend in="SourceGraphic" in2="effect1_backgroundBlur_26:44" result="shape"/><feColorMatrix in="SourceAlpha" values="0 0 0 0 0 0 0 0 0 0 0 0 0 0 0 0 0 0 127 0" result="hardAlpha"/><feOffset dx="-2.833" dy="2.833"/><feGaussianBlur stdDeviation="1.417"/><feComposite in2="hardAlpha" operator="arithmetic" k2="-1" k3="1"/><feColorMatrix values="0 0 0 0 1 0 0 0 0 1 0 0 0 0 1 0 0 0 0.4 0"/><feBlend in2="shape" result="effect2_innerShadow_26:44"/><feColorMatrix in="SourceAlpha" values="0 0 0 0 0 0 0 0 0 0 0 0 0 0 0 0 0 0 127 0" result="hardAlpha"/><feOffset dx="2.833" dy="-2.833"/><feGaussianBlur stdDeviation="1.417"/><feComposite in2="hardAlpha" operator="arithmetic" k2="-1" k3="1"/><feColorMatrix values="0 0 0 0 0.84 0 0 0 0 0.84 0 0 0 0 0.84 0 0 0 0.4 0"/><feBlend in2="effect2_innerShadow_26:44" result="effect3_innerShadow_26:44"/></filter><filter id="e" x="375.1" y="198.279" width="59.8" height="69.442" filterUnits="userSpaceOnUse" color-interpolation-filters="sRGB"><feFlood flood-opacity="0" result="BackgroundImageFix"/><feGaussianBlur in="BackgroundImage" stdDeviation="3.95"/><feComposite in2="SourceAlpha" operator="in" result="effect1_backgroundBlur_26:44"/><feBlend in="SourceGraphic" in2="effect1_backgroundBlur_26:44" result="shape"/><feColorMatrix in="SourceAlpha" values="0 0 0 0 0 0 0 0 0 0 0 0 0 0 0 0 0 0 127 0" result="hardAlpha"/><feOffset dx="-2.833" dy="2.833"/><feGaussianBlur stdDeviation="1.417"/><feComposite in2="hardAlpha" operator="arithmetic" k2="-1" k3="1"/><feColorMatrix values="0 0 0 0 1 0 0 0 0 1 0 0 0 0 1 0 0 0 0.4 0"/><feBlend in2="shape" result="effect2_innerShadow_26:44"/><feColorMatrix in="SourceAlpha" values="0 0 0 0 0 0 0 0 0 0 0 0 0 0 0 0 0 0 127 0" result="hardAlpha"/><feOffset dx="2.833" dy="-2.833"/><feGaussianBlur stdDeviation="1.417"/><feComposite in2="hardAlpha" operator="arithmetic" k2="-1" k3="1"/><feColorMatrix values="0 0 0 0 0.84 0 0 0 0 0.84 0 0 0 0 0.84 0 0 0 0.4 0"/><feBlend in2="effect2_innerShadow_26:44" result="effect3_innerShadow_26:44"/></filter></defs></svg>