<svg width="44" height="43" viewBox="0 0 44 43" fill="none" xmlns="http://www.w3.org/2000/svg">
<path d="M3.75762 9.21207H10.0973V7.03516H1.33938C0.402578 12.0506 0.842648 22.0815 10.0973 22.0815V19.8405C3.50926 19.8405 3.12583 12.7549 3.75762 9.21207Z" fill="white" stroke="black" stroke-linejoin="round"/>
<path d="M40.6315 9.21207H34.2918V7.03516H43.0497C43.9865 12.0506 43.5465 22.0815 34.2918 22.0815V19.8405C40.8798 19.8405 41.2633 12.7549 40.6315 9.21207Z" fill="white" stroke="black" stroke-linejoin="round"/>
<path d="M6.77679 29.7025L13.4937 25.8188L18.3298 29.7025L10.5382 35.0593V31.4434L6.77679 29.7025Z" fill="#F94239"/>
<path d="M37.271 29.7025L30.5541 25.8188L25.718 29.7025L33.5096 35.0593V31.4434L37.271 29.7025Z" fill="#F94239"/>
<path d="M19.606 39.3714L20.6962 30.0684H24.3302L25.4204 39.3714H19.606Z" fill="white" stroke="black"/>
<rect x="12.5" y="39.5" width="19" height="3" rx="1.5" fill="white" stroke="black"/>
<path d="M9.5 3.5H34.5V18C34.5 24.9036 28.9036 30.5 22 30.5C15.0964 30.5 9.5 24.9036 9.5 18V3.5Z" fill="white" stroke="black"/>
<rect x="7.5" y="0.5" width="29" height="4" rx="2" fill="white" stroke="black"/>
</svg>
