<svg width="67" height="66" viewBox="0 0 67 66" fill="none" xmlns="http://www.w3.org/2000/svg">
<circle cx="32.9334" cy="32.2744" r="31.7534" fill="#E8F2FA"/>
<path d="M14.5967 59.3572C7.73974 48.6586 10.7491 8.1487 48.5203 3.98193" stroke="black"/>
<path d="M14.6884 6.58443C41.12 -1.69968 64.9167 24.3525 56.239 54.1399" stroke="black"/>
<path d="M63.4999 23.3077C63.7994 40.1856 27.0491 55.5842 1.99999 39.0921" stroke="black"/>
<path d="M55.3221 53.1361C30.0739 51.0321 13.0638 35.464 14.6843 6.52832" stroke="black"/>
<circle cx="63.644" cy="23.9355" r="2" fill="#ED1C24"/>
<circle cx="2" cy="38.8716" r="2" fill="#ED1C24"/>
<circle cx="15.68" cy="25.9355" r="2" fill="#ED1C24"/>
<circle cx="36.1528" cy="7.02686" r="2" fill="#ED1C24"/>
<circle cx="57.3221" cy="34.8716" r="2" fill="#ED1C24"/>
<circle cx="32.1528" cy="45.8501" r="2" fill="#ED1C24"/>
<circle cx="14.5373" cy="7.1709" r="2" fill="#ED1C24"/>
<circle cx="48.4811" cy="4.52832" r="2" fill="#ED1C24"/>
<circle cx="14.5373" cy="59.3574" r="2" fill="#ED1C24"/>
<circle cx="56.4973" cy="53.1362" r="2" fill="#ED1C24"/>
</svg>
