<svg width="786" height="890" viewBox="0 0 786 890" fill="none" xmlns="http://www.w3.org/2000/svg">
<mask id="mask0_2331" style="mask-type:alpha" maskUnits="userSpaceOnUse" x="0" y="0" width="786" height="890">
<rect width="786" height="890" fill="#2D2D2D"/>
</mask>
<g mask="url(#mask0_2331)">
<path d="M839.593 134.633L185.433 835.478" stroke="url(#paint0_linear_2331)"/>
<path d="M427.898 -0.166992C427.898 -0.166992 793.003 157.1 483.335 485.056C173.667 813.011 156.255 835.478 156.255 835.478" stroke="url(#paint1_linear_2331)"/>
<path d="M398.72 -0.166992C398.72 -0.166992 763.825 157.1 454.157 485.056C144.489 813.011 127.077 835.478 127.077 835.478" stroke="url(#paint2_linear_2331)"/>
<path d="M369.548 -0.166992C369.548 -0.166992 734.653 157.1 424.985 485.056C115.317 813.011 97.9046 835.478 97.9046 835.478" stroke="url(#paint3_linear_2331)"/>
<path d="M334.531 -0.166992C334.531 -0.166992 699.636 157.1 389.968 485.056C80.2999 813.011 62.8877 835.478 62.8877 835.478" stroke="url(#paint4_linear_2331)"/>
<path d="M859.431 140.469L205.271 841.314" stroke="url(#paint5_linear_2331)"/>
<path d="M879.275 146.304L225.114 847.149" stroke="url(#paint6_linear_2331)"/>
<path d="M899.118 152.139L244.958 852.984" stroke="url(#paint7_linear_2331)"/>
<path d="M918.962 157.975L264.801 858.82" stroke="url(#paint8_linear_2331)"/>
<path d="M938.805 163.811L284.645 864.655" stroke="url(#paint9_linear_2331)"/>
<path d="M958.637 169.646L304.477 870.491" stroke="url(#paint10_linear_2331)"/>
<path d="M978.481 175.482L324.32 876.327" stroke="url(#paint11_linear_2331)"/>
<path d="M998.324 181.318L344.164 882.163" stroke="url(#paint12_linear_2331)"/>
<path d="M1018.16 187.153L363.996 887.998" stroke="url(#paint13_linear_2331)"/>
<path d="M1038 192.988L383.839 893.833" stroke="url(#paint14_linear_2331)"/>
<path d="M358.103 513.217L363.86 518.235L365.307 510.875L358.103 513.217Z" fill="#ED1C24"/>
<path d="M446.285 488.796L452.433 493.326L453.273 485.872L446.285 488.796Z" fill="#ED1C24"/>
<path d="M502.444 516.921L508.194 521.946L509.65 514.588L502.444 516.921Z" fill="#ED1C24"/>
<path d="M510.047 644.102L515.75 649.179L517.274 641.834L510.047 644.102Z" fill="#ED1C24"/>
<path d="M493.55 754.356L487.71 749.435L486.387 756.819L493.55 754.356Z" fill="#ED1C24"/>
<path d="M645.854 509.848L640.015 504.927L638.691 512.311L645.854 509.848Z" fill="#ED1C24"/>
<path d="M482.707 409.442L489.324 413.255L489.324 405.753L482.707 409.442Z" fill="#ED1C24"/>
</g>
<defs>
<linearGradient id="paint0_linear_2331" x1="512.513" y1="134.633" x2="512.513" y2="835.478" gradientUnits="userSpaceOnUse">
<stop stop-color="#ED1C24"/>
<stop offset="1" stop-color="#2684FF"/>
</linearGradient>
<linearGradient id="paint1_linear_2331" x1="483.335" y1="134.633" x2="483.335" y2="835.478" gradientUnits="userSpaceOnUse">
<stop stop-color="#ED1C24"/>
<stop offset="1" stop-color="#2684FF"/>
</linearGradient>
<linearGradient id="paint2_linear_2331" x1="454.157" y1="134.633" x2="454.157" y2="835.478" gradientUnits="userSpaceOnUse">
<stop stop-color="#ED1C24"/>
<stop offset="1" stop-color="#2684FF"/>
</linearGradient>
<linearGradient id="paint3_linear_2331" x1="424.985" y1="134.633" x2="424.985" y2="835.478" gradientUnits="userSpaceOnUse">
<stop stop-color="#ED1C24"/>
<stop offset="1" stop-color="#2684FF"/>
</linearGradient>
<linearGradient id="paint4_linear_2331" x1="389.968" y1="134.633" x2="389.968" y2="835.478" gradientUnits="userSpaceOnUse">
<stop stop-color="#ED1C24"/>
<stop offset="1" stop-color="#2684FF"/>
</linearGradient>
<linearGradient id="paint5_linear_2331" x1="532.351" y1="140.469" x2="532.351" y2="841.314" gradientUnits="userSpaceOnUse">
<stop stop-color="#ED1C24"/>
<stop offset="1" stop-color="#2684FF"/>
</linearGradient>
<linearGradient id="paint6_linear_2331" x1="552.194" y1="146.304" x2="552.194" y2="847.149" gradientUnits="userSpaceOnUse">
<stop stop-color="#ED1C24"/>
<stop offset="1" stop-color="#2684FF"/>
</linearGradient>
<linearGradient id="paint7_linear_2331" x1="572.038" y1="152.139" x2="572.038" y2="852.984" gradientUnits="userSpaceOnUse">
<stop stop-color="#ED1C24"/>
<stop offset="1" stop-color="#2684FF"/>
</linearGradient>
<linearGradient id="paint8_linear_2331" x1="591.881" y1="157.975" x2="591.881" y2="858.82" gradientUnits="userSpaceOnUse">
<stop stop-color="#ED1C24"/>
<stop offset="1" stop-color="#2684FF"/>
</linearGradient>
<linearGradient id="paint9_linear_2331" x1="611.725" y1="163.811" x2="611.725" y2="864.655" gradientUnits="userSpaceOnUse">
<stop stop-color="#ED1C24"/>
<stop offset="1" stop-color="#2684FF"/>
</linearGradient>
<linearGradient id="paint10_linear_2331" x1="631.557" y1="169.646" x2="631.557" y2="870.491" gradientUnits="userSpaceOnUse">
<stop stop-color="#ED1C24"/>
<stop offset="1" stop-color="#2684FF"/>
</linearGradient>
<linearGradient id="paint11_linear_2331" x1="651.401" y1="175.482" x2="651.401" y2="876.327" gradientUnits="userSpaceOnUse">
<stop stop-color="#ED1C24"/>
<stop offset="1" stop-color="#2684FF"/>
</linearGradient>
<linearGradient id="paint12_linear_2331" x1="671.244" y1="181.318" x2="671.244" y2="882.163" gradientUnits="userSpaceOnUse">
<stop stop-color="#ED1C24"/>
<stop offset="1" stop-color="#2684FF"/>
</linearGradient>
<linearGradient id="paint13_linear_2331" x1="691.076" y1="187.153" x2="691.076" y2="887.998" gradientUnits="userSpaceOnUse">
<stop stop-color="#ED1C24"/>
<stop offset="1" stop-color="#2684FF"/>
</linearGradient>
<linearGradient id="paint14_linear_2331" x1="710.92" y1="192.988" x2="710.92" y2="893.833" gradientUnits="userSpaceOnUse">
<stop stop-color="#ED1C24"/>
<stop offset="1" stop-color="#2684FF"/>
</linearGradient>
</defs>
</svg>
