<svg width="48" height="48" viewBox="0 0 48 48" fill="none" xmlns="http://www.w3.org/2000/svg">
<rect x="11.2786" y="11.3501" width="33.6571" height="35.8" rx="3.15" fill="white" stroke="black" stroke-width="1.7"/>
<path d="M20.7998 25.5L16.4766 29.8903C16.0933 30.2795 16.0933 30.9043 16.4766 31.2935L20.7998 35.6838" stroke="#ED1C24" stroke-width="1.5" stroke-linecap="round" stroke-linejoin="round"/>
<path d="M35.0714 35.6838L39.3946 31.2936C39.7778 30.9043 39.7778 30.2795 39.3946 29.8903L35.0714 25.5" stroke="#ED1C24" stroke-width="1.5" stroke-linecap="round" stroke-linejoin="round"/>
<circle cx="22.6946" cy="30.266" r="1.55172" fill="#ED1C24"/>
<circle cx="28.0517" cy="30.266" r="1.55172" fill="#ED1C24"/>
<circle cx="33.4089" cy="30.266" r="1.55172" fill="#ED1C24"/>
<rect x="4.85" y="3.85" width="23.7926" height="17.1424" rx="3.15" fill="white" stroke="black" stroke-width="1.7"/>
<path d="M28.322 12.5117C28.2272 12.4531 28.2272 12.3152 28.322 12.2566L37.059 6.85193C37.159 6.79011 37.2879 6.862 37.2879 6.9795L37.2879 17.7888C37.2879 17.9063 37.159 17.9782 37.059 17.9164L28.322 12.5117Z" fill="white" stroke="black" stroke-width="1.7"/>
</svg>
