<svg width="48" height="48" viewBox="0 0 48 48" fill="none" xmlns="http://www.w3.org/2000/svg">
<rect x="5.85" y="5.85" width="31.3" height="38.3" rx="2.15" fill="white" stroke="black" stroke-width="1.7" stroke-linecap="round"/>
<path d="M19.5931 14.0388C19.5931 14.0388 14.7226 17.009 19.3128 19.9581C20.1958 20.5325 23.3984 22.1296 23.3073 23.6077C23.3073 23.6077 25.2485 20.7356 22.4103 18.9283C19.495 17.079 18.7662 15.1036 19.5931 14.0388Z" fill="#ED1C24"/>
<path d="M17.8971 19.7128C17.8971 19.7128 16.1591 22.3467 19.579 22.8861C19.9154 22.9281 22.3892 23.1873 23.0339 23.9999C23.0339 23.9999 22.9778 22.5988 20.9595 21.7723C18.9483 20.9457 18.1213 20.7425 17.8971 19.7128Z" fill="#ED1C24"/>
<path d="M24.6248 16.9458C22.5364 14.7602 21.9547 13.4082 22.8518 11.657C22.8518 11.657 16.6217 14.0527 22.7747 18.3048C24.9752 19.8249 24.6107 21.38 24.6107 21.436C24.9541 21.0788 26.7131 19.1314 24.6248 16.9458Z" fill="#ED1C24"/>
<path d="M11.1713 28.1143H31.7428" stroke="black" stroke-width="1.7" stroke-linecap="round"/>
<path d="M11.1713 32.2283H31.7428" stroke="black" stroke-width="1.7" stroke-linecap="round"/>
<path d="M11.1713 36.3427H31.7428" stroke="black" stroke-width="1.7" stroke-linecap="round"/>
<rect x="9.85" y="2.85" width="31.3" height="38.3" rx="2.15" fill="white" stroke="black" stroke-width="1.7" stroke-linecap="round"/>
<path d="M22.642 11.1254C22.642 11.1254 15.8412 15.2727 22.2506 19.3907C23.4835 20.1927 27.9554 22.4229 27.8282 24.4868C27.8282 24.4868 30.5388 20.4764 26.5757 17.9528C22.505 15.3705 21.4873 12.6122 22.642 11.1254Z" fill="#ED1C24"/>
<path d="M20.2739 19.0485C20.2739 19.0485 17.8471 22.7263 22.6224 23.4795C23.0921 23.5382 26.5463 23.9001 27.4465 25.0347C27.4465 25.0347 27.3683 23.0784 24.5501 21.9242C21.7417 20.77 20.587 20.4864 20.2739 19.0485Z" fill="#ED1C24"/>
<path d="M29.6678 15.1848C26.7518 12.1331 25.9396 10.2453 27.1922 7.79993C27.1922 7.79993 18.493 11.1451 27.0845 17.0824C30.1571 19.205 29.6483 21.3764 29.6483 21.4547C30.1278 20.9558 32.5839 18.2366 29.6678 15.1848Z" fill="#ED1C24"/>
<path d="M15.2571 29.143H35.8286" stroke="black" stroke-width="1.7" stroke-linecap="round"/>
<path d="M15.2571 33.2571H35.8286" stroke="black" stroke-width="1.7" stroke-linecap="round"/>
</svg>
