<svg width="48" height="48" viewBox="0 0 48 48" fill="none" xmlns="http://www.w3.org/2000/svg">
<path d="M4.33963 11.2653H12.6314C12.7997 11.2653 12.9673 11.2865 13.1303 11.3285L23.2546 13.9362C23.4175 13.9782 23.5852 13.9994 23.7534 13.9994H43.6604C44.7649 13.9994 45.6604 14.8949 45.6604 15.9994V40.9499C45.6604 42.0545 44.7677 42.9499 43.6631 42.9499H29.7073C27.4673 42.9499 26.9355 43.66 26.4429 44.4916C26.1247 45.0286 25.5462 45.3274 24.922 45.3274H23.36C22.5031 45.3274 21.823 44.7248 21.3028 44.0439C20.8794 43.4897 20.2585 43.1467 19.1695 42.9713C19.0761 42.9563 18.981 42.9499 18.8863 42.9499H4.33963C3.23506 42.9499 2.33963 42.0545 2.33963 40.9499V13.2653C2.33963 12.1607 3.23506 11.2653 4.33963 11.2653Z" fill="white" stroke="black" stroke-width="1.7"/>
<path d="M13.9583 7.12134C18.1702 7.12115 20.9538 9.67076 22.8545 11.7725C23.371 12.3437 24.3526 12.1789 24.7322 11.5089C25.7316 9.74495 27.8126 7.12143 31.3502 7.12143H39.5462C40.6507 7.12143 41.544 8.01686 41.544 9.12143V36.4576C41.544 37.7603 40.3134 38.74 39.0266 38.5369C37.3811 38.2771 35.0611 38.0104 32.4707 38.0104C27.7995 38.0104 26.7383 38.8776 26.6052 39.0079C26.5941 39.0188 26.5849 39.0304 26.5753 39.0427L25.9422 39.8538C25.1289 40.8958 23.5377 40.8645 22.7504 39.8027C22.3771 39.2992 21.8538 38.9204 21.2449 38.7722C20.0109 38.472 17.6524 38.0104 14.8148 38.0104C12.7189 38.0104 10.6823 38.2622 9.16653 38.5149C7.87882 38.7295 6.64285 37.7542 6.64285 36.4487V9.51903C6.64285 8.2708 7.79094 7.14702 9.03916 7.14456C10.9396 7.14082 13.3664 7.12136 13.9583 7.12134Z" fill="white" stroke="black" stroke-width="1.7"/>
<path d="M12.1597 32.7685C20.7853 33.1691 23.9113 36.1807 24.3903 39.071V11.419C24.3903 5.31199 17.3911 3.69447 12.4097 2.97222C11.2161 2.79916 10.1574 3.74094 10.1574 4.94699V30.7236C10.1574 31.8282 11.0563 32.7173 12.1597 32.7685Z" fill="white"/>
<path d="M12.1597 32.7685L12.1202 33.6176H12.1202L12.1597 32.7685ZM12.4097 2.97222L12.5317 2.13101L12.4097 2.97222ZM23.5403 39.7765C23.5403 40.2459 23.9209 40.6265 24.3903 40.6265C24.8598 40.6265 25.2403 40.2459 25.2403 39.7765H23.5403ZM25.2289 38.932C24.6461 35.416 20.9332 32.3251 12.1991 31.9195L12.1202 33.6176C20.6373 34.0132 23.1764 36.9453 23.5518 39.21L25.2289 38.932ZM11.0074 30.7236V4.94699H9.30741V30.7236H11.0074ZM12.2877 3.81342C14.7685 4.1731 17.6367 4.74315 19.8698 5.92728C22.0657 7.09167 23.5403 8.78034 23.5403 11.419H25.2403C25.2403 7.95062 23.2153 5.77704 20.6662 4.42537C18.1544 3.09343 15.0323 2.49358 12.5317 2.13101L12.2877 3.81342ZM23.5403 11.419V39.071H25.2403V11.419H23.5403ZM23.5403 39.071V39.7765H25.2403V39.071H23.5403ZM11.0074 4.94699C11.0074 4.24374 11.6217 3.71685 12.2877 3.81342L12.5317 2.13101C10.8106 1.88147 9.30741 3.23815 9.30741 4.94699H11.0074ZM12.1991 31.9195C11.5216 31.888 11.0074 31.3468 11.0074 30.7236H9.30741C9.30741 32.3096 10.591 33.5466 12.1202 33.6176L12.1991 31.9195Z" fill="black"/>
<path d="M27.6381 16.6928C27.6381 16.6928 29.1043 14.8263 31.1055 14.3082C33.1066 13.7901 38.623 14.3083 38.623 14.3083" stroke="#ED1C24" stroke-width="1.7" stroke-linecap="round" stroke-linejoin="round"/>
<path d="M27.6381 21.517C27.6381 21.517 29.1043 19.6505 31.1055 19.1324C33.1066 18.6143 38.623 19.1325 38.623 19.1325" stroke="#ED1C24" stroke-width="1.7" stroke-linecap="round" stroke-linejoin="round"/>
<path d="M27.6381 26.3407C27.6381 26.3407 29.1043 24.4742 31.1055 23.9561C33.1066 23.438 38.623 23.9562 38.623 23.9562" stroke="#ED1C24" stroke-width="1.7" stroke-linecap="round" stroke-linejoin="round"/>
</svg>
