<svg width="48" height="48" viewBox="0 0 48 48" fill="none" xmlns="http://www.w3.org/2000/svg">
<rect x="5.85" y="5.85" width="31.3" height="38.3" rx="2.15" fill="white" stroke="black" stroke-width="1.7" stroke-linecap="round"/>
<path d="M19.5931 14.0388C19.5931 14.0388 14.7226 17.009 19.3128 19.9581C20.1958 20.5325 23.3984 22.1296 23.3073 23.6077C23.3073 23.6077 25.2485 20.7356 22.4103 18.9283C19.495 17.079 18.7662 15.1036 19.5931 14.0388Z" fill="#ED1C24"/>
<path d="M17.8971 19.7128C17.8971 19.7128 16.1591 22.3467 19.579 22.8861C19.9154 22.9281 22.3892 23.1873 23.0339 23.9999C23.0339 23.9999 22.9778 22.5988 20.9595 21.7723C18.9483 20.9457 18.1213 20.7425 17.8971 19.7128Z" fill="#ED1C24"/>
<path d="M24.6248 16.9458C22.5364 14.7602 21.9547 13.4082 22.8518 11.657C22.8518 11.657 16.6217 14.0527 22.7747 18.3048C24.9752 19.8249 24.6107 21.38 24.6107 21.436C24.9541 21.0788 26.7131 19.1314 24.6248 16.9458Z" fill="#ED1C24"/>
<path d="M11.1713 28.1143H31.7428" stroke="black" stroke-width="1.7" stroke-linecap="round"/>
<path d="M11.1713 32.2283H31.7428" stroke="black" stroke-width="1.7" stroke-linecap="round"/>
<path d="M11.1713 36.3427H31.7428" stroke="black" stroke-width="1.7" stroke-linecap="round"/>
<rect x="9.85" y="2.85" width="31.3" height="38.3" rx="2.15" fill="white" stroke="black" stroke-width="1.7" stroke-linecap="round"/>
<path d="M15.2571 29.143H35.8286" stroke="black" stroke-width="1.7" stroke-linecap="round"/>
<path d="M15.2571 33.2571H35.8286" stroke="black" stroke-width="1.7" stroke-linecap="round"/>
<path d="M18.5788 21.4226C18.4137 21.6852 18.2283 21.9899 18.0709 22.2327C17.9299 22.4651 18.0056 22.7647 18.241 22.9067L21.5425 24.8887C21.6583 24.9586 21.7981 24.98 21.9304 24.9484C22.0626 24.9167 22.1763 24.8345 22.2459 24.7203C22.378 24.5047 22.5481 24.2247 22.7335 23.925C24.0414 21.819 25.3569 22.0766 27.7288 23.1817L31.0023 24.7004C31.1263 24.758 31.2689 24.7642 31.3976 24.7175C31.5263 24.6708 31.6302 24.5753 31.6855 24.4527L33.2575 20.984C33.3685 20.7363 33.2555 20.4474 33.0035 20.3349C32.3127 20.0177 30.9388 19.3859 29.7021 18.8037C25.2528 16.6952 21.4713 16.8315 18.5788 21.4226Z" fill="url(#paint0_linear_20:272)"/>
<path d="M33.3822 13.5507C33.5473 13.2881 33.7327 12.9834 33.8901 12.7405C34.0311 12.5082 33.9554 12.2085 33.72 12.0666L30.4185 10.0845C30.3017 10.0078 30.1575 9.98177 30.0202 10.0128C29.883 10.0438 29.7651 10.129 29.6948 10.2481C29.5627 10.4636 29.3926 10.7436 29.2072 11.0434C27.8993 13.1494 26.5838 12.8917 24.2119 11.7867L20.9485 10.2753C20.8245 10.2177 20.6819 10.2116 20.5532 10.2583C20.4245 10.3049 20.3207 10.4005 20.2654 10.5231L18.6934 13.9917C18.5823 14.2395 18.6953 14.5283 18.9473 14.6409C19.6381 14.958 21.012 15.5898 22.2488 16.1721C26.7082 18.278 30.4897 18.1368 33.3822 13.5507Z" fill="url(#paint1_linear_20:272)"/>
<defs>
<linearGradient id="paint0_linear_20:272" x1="33.1686" y1="25.912" x2="29.6224" y2="17.5731" gradientUnits="userSpaceOnUse">
<stop offset="0.18" stop-color="#0052CC"/>
<stop offset="1" stop-color="#2684FF"/>
</linearGradient>
<linearGradient id="paint1_linear_20:272" x1="18.7924" y1="9.0588" x2="22.3443" y2="17.4019" gradientUnits="userSpaceOnUse">
<stop offset="0.18" stop-color="#0052CC"/>
<stop offset="1" stop-color="#2684FF"/>
</linearGradient>
</defs>
</svg>
