<svg width="583" height="365" fill="none" xmlns="http://www.w3.org/2000/svg"><path d="m81.444 32.502-26.44 18.002m23.626 75.38L54.443 142.76" stroke="#fff" stroke-linecap="round" stroke-linejoin="round"/><path d="M54.441 18 81.444 1v32.866l79.881 44.765m-.563-.001-28.69 16.877.563 63.567 28.127-16.876V78.631Z" stroke="#fff" stroke-linejoin="round"/><path d="m131.51 159.074-77.631-48.378v32.064L1 51.066 53.879 18.44v32.627l78.756 43.878" stroke="#fff" stroke-linejoin="round"/><path d="M429.606 254.374H126.843v92.425h.073c-.935 23.044 13.828 46.262 44.288 63.848 59.106 34.125 154.935 34.125 214.041 0 30.461-17.586 45.223-40.804 44.288-63.848h.073v-92.425Z" fill="#0070CC" stroke="#fff"/><path d="M171.205 194.645c59.106-34.125 154.935-34.125 214.041 0 59.106 34.125 59.106 89.452 0 123.577s-154.935 34.125-214.041 0c-59.106-34.125-59.106-89.452 0-123.577Z" fill="#0070CC" stroke="#fff"/><path d="M429.606 150.299H126.843v92.425h.073c-.935 23.045 13.828 46.262 44.288 63.848 59.106 34.125 154.935 34.125 214.041 0 30.461-17.586 45.223-40.803 44.288-63.848h.073v-92.425Z" fill="#0070CC" stroke="#fff"/><path d="M171.205 90.57c59.106-34.125 154.935-34.125 214.041 0 59.106 34.125 59.106 89.452 0 123.577s-154.935 34.125-214.041 0c-59.106-34.125-59.106-89.452 0-123.577Z" fill="#0070CC" stroke="#fff"/><path d="M410 281.572v-69.228l86.69 53.012v-38.667l59.249 99.787-66.109 38.044v-38.044L410 281.572Z" fill="#0070CC" stroke="#fff" stroke-linejoin="round"/><path d="M441.183 198 410 212.634l86.792 52.983v-34.818L441.183 198Z" fill="#0070CC" stroke="#fff" stroke-linejoin="round"/><path d="m496.69 226.689 27.442-15.592 58.001 100.577-29.313 16.673" stroke="#fff" stroke-linecap="round" stroke-linejoin="round"/></svg>