<svg width="592" height="687" viewBox="0 0 592 687" fill="none" xmlns="http://www.w3.org/2000/svg">
<path d="M572.381 268.222L590.323 257.863L590.323 629.531L572.381 639.889L572.381 268.222Z" fill="#0070CC" stroke="white"/>
<path d="M145.232 0.889877L590.323 257.863L572.381 268.222L127.291 11.2484L145.232 0.889877Z" fill="#0070CC" stroke="white"/>
<path d="M127.291 11.2495L572.381 268.223L572.381 639.89L127.291 382.917L127.291 11.2495Z" fill="#0070CC" stroke="white"/>
<path d="M150.346 80C150.346 78.8954 151.122 78.4477 152.078 79L543.327 304.888C544.284 305.44 545.059 306.783 545.059 307.888L545.059 593.927C545.059 595.031 544.284 595.479 543.327 594.927L152.078 369.039C151.122 368.487 150.346 367.143 150.346 366.039L150.346 80Z" fill="#0070CC" stroke="white"/>
<mask id="path-5-inside-1_3:159" fill="white">
<path fill-rule="evenodd" clip-rule="evenodd" d="M164.7 59.873C164.7 64.4497 161.487 66.3048 157.523 64.0165C153.56 61.7281 150.346 56.1629 150.346 51.5862C150.346 47.0095 153.56 45.1545 157.523 47.4428C161.487 49.7311 164.7 55.2964 164.7 59.873ZM185.935 72.3032C185.935 76.8798 182.722 78.7349 178.758 76.4466C174.795 74.1582 171.581 68.593 171.581 64.0163C171.581 59.4397 174.795 57.5846 178.758 59.8729C182.722 62.1613 185.935 67.7265 185.935 72.3032ZM199.734 88.8769C203.698 91.1653 206.911 89.3102 206.911 84.7335C206.911 80.1568 203.698 74.5916 199.734 72.3033C195.771 70.0149 192.557 71.87 192.557 76.4467C192.557 81.0234 195.771 86.5886 199.734 88.8769Z"/>
</mask>
<path fill-rule="evenodd" clip-rule="evenodd" d="M164.7 59.873C164.7 64.4497 161.487 66.3048 157.523 64.0165C153.56 61.7281 150.346 56.1629 150.346 51.5862C150.346 47.0095 153.56 45.1545 157.523 47.4428C161.487 49.7311 164.7 55.2964 164.7 59.873ZM185.935 72.3032C185.935 76.8798 182.722 78.7349 178.758 76.4466C174.795 74.1582 171.581 68.593 171.581 64.0163C171.581 59.4397 174.795 57.5846 178.758 59.8729C182.722 62.1613 185.935 67.7265 185.935 72.3032ZM199.734 88.8769C203.698 91.1653 206.911 89.3102 206.911 84.7335C206.911 80.1568 203.698 74.5916 199.734 72.3033C195.771 70.0149 192.557 71.87 192.557 76.4467C192.557 81.0234 195.771 86.5886 199.734 88.8769Z" fill="#0070CC"/>
<path d="M157.523 64.0165L157.023 64.8825L157.523 64.0165ZM178.758 76.4466L179.258 75.5805L178.758 76.4466ZM178.758 59.8729L178.258 60.739V60.739L178.758 59.8729ZM199.734 88.8769L199.234 89.7429L199.734 88.8769ZM199.734 72.3033L199.234 73.1693L199.734 72.3033ZM157.023 64.8825C159.187 66.1318 161.381 66.3766 163.098 65.3852C164.815 64.3938 165.7 62.3718 165.7 59.873H163.7C163.7 61.951 162.978 63.1449 162.098 63.6531C161.217 64.1613 159.823 64.1894 158.023 63.1504L157.023 64.8825ZM149.346 51.5862C149.346 54.0914 150.219 56.7983 151.582 59.1595C152.946 61.5206 154.854 63.6299 157.023 64.8825L158.023 63.1504C156.229 62.1147 154.549 60.2972 153.314 58.1595C152.08 56.0218 151.346 53.6577 151.346 51.5862H149.346ZM158.023 46.5768C155.859 45.3274 153.666 45.0827 151.948 46.0741C150.231 47.0655 149.346 49.0875 149.346 51.5862H151.346C151.346 49.5082 152.068 48.3144 152.948 47.8061C153.829 47.2979 155.223 47.2698 157.023 48.3088L158.023 46.5768ZM165.7 59.873C165.7 57.3679 164.827 54.661 163.464 52.2998C162.101 49.9386 160.193 47.8294 158.023 46.5768L157.023 48.3088C158.817 49.3446 160.497 51.1621 161.732 53.2998C162.966 55.4375 163.7 57.8015 163.7 59.873H165.7ZM178.258 77.3126C180.422 78.562 182.616 78.8067 184.333 77.8153C186.05 76.8239 186.935 74.8019 186.935 72.3032H184.935C184.935 74.3811 184.213 75.575 183.333 76.0832C182.452 76.5914 181.058 76.6195 179.258 75.5805L178.258 77.3126ZM170.581 64.0163C170.581 66.5215 171.454 69.2284 172.817 71.5896C174.181 73.9508 176.088 76.06 178.258 77.3126L179.258 75.5805C177.464 74.5448 175.784 72.7273 174.549 70.5896C173.315 68.4519 172.581 66.0878 172.581 64.0163H170.581ZM179.258 59.0069C177.094 57.7575 174.901 57.5128 173.183 58.5042C171.466 59.4956 170.581 61.5176 170.581 64.0163H172.581C172.581 61.9384 173.303 60.7445 174.183 60.2363C175.064 59.7281 176.458 59.7 178.258 60.739L179.258 59.0069ZM186.935 72.3032C186.935 69.798 186.062 67.0911 184.699 64.7299C183.335 62.3688 181.428 60.2595 179.258 59.0069L178.258 60.739C180.052 61.7747 181.732 63.5922 182.967 65.7299C184.201 67.8676 184.935 70.2317 184.935 72.3032H186.935ZM205.911 84.7335C205.911 86.8115 205.189 88.0053 204.309 88.5136C203.428 89.0218 202.034 89.0499 200.234 88.0109L199.234 89.7429C201.398 90.9923 203.592 91.237 205.309 90.2456C207.026 89.2542 207.911 87.2322 207.911 84.7335H205.911ZM199.234 73.1693C201.028 74.205 202.708 76.0226 203.943 78.1602C205.177 80.2979 205.911 82.662 205.911 84.7335H207.911C207.911 82.2283 207.038 79.5214 205.675 77.1602C204.312 74.7991 202.404 72.6898 200.234 71.4372L199.234 73.1693ZM193.557 76.4467C193.557 74.3687 194.279 73.1748 195.159 72.6666C196.04 72.1584 197.435 72.1303 199.234 73.1693L200.234 71.4372C198.07 70.1879 195.877 69.9431 194.159 70.9346C192.442 71.926 191.557 73.948 191.557 76.4467H193.557ZM200.234 88.0109C198.44 86.9751 196.76 85.1576 195.525 83.0199C194.291 80.8822 193.557 78.5182 193.557 76.4467H191.557C191.557 78.9519 192.43 81.6588 193.793 84.0199C195.157 86.3811 197.065 88.4903 199.234 89.7429L200.234 88.0109Z" fill="white" mask="url(#path-5-inside-1_3:159)"/>
<rect width="72.9525" height="12.195" transform="matrix(-0.866025 -0.5 -2.20305e-08 1 365.101 368.756)" fill="#0070CC" stroke="white"/>
<rect width="72.9525" height="12.195" transform="matrix(-0.866025 -0.5 -2.20305e-08 1 244.009 298.844)" fill="#0070CC" stroke="white"/>
<rect width="48.635" height="12.195" transform="matrix(-0.866025 -0.5 -2.20305e-08 1 423.015 402.193)" fill="#0070CC" stroke="white"/>
<rect width="30.3969" height="12.1949" transform="matrix(-0.866025 -0.499998 -2.20306e-08 1 286.128 323.162)" fill="#0070CC" stroke="white"/>
<rect width="48.6351" height="12.195" transform="matrix(0.866025 0.499999 -2.20305e-08 1 180.83 213.589)" fill="#0070CC" stroke="white"/>
<rect width="42.5557" height="12.195" transform="matrix(-0.866025 -0.5 -2.20305e-08 1 217.684 308.037)" fill="#0070CC" stroke="white"/>
<rect width="48.635" height="12.195" transform="matrix(-0.866025 -0.5 -2.20305e-08 1 449.34 441.782)" fill="#0070CC" stroke="white"/>
<rect width="109.429" height="12.195" transform="matrix(-0.866025 -0.5 -2.20305e-08 1 391.426 408.346)" fill="#0070CC" stroke="white"/>
<rect width="54.7144" height="12.195" transform="matrix(-0.866025 -0.5 -2.20305e-08 1 280.863 344.512)" fill="#0070CC" stroke="white"/>
<rect width="42.5557" height="12.195" transform="matrix(0.866025 0.500001 -2.20305e-08 1 354.571 338.288)" fill="#0070CC" stroke="white"/>
<rect width="109.429" height="12.195" transform="matrix(0.866025 0.5 -2.20305e-08 1 180.83 237.978)" fill="#0070CC" stroke="white"/>
<rect width="54.7144" height="12.195" transform="matrix(0.866025 0.5 -2.20305e-08 1 291.393 301.811)" fill="#0070CC" stroke="white"/>
<rect width="72.9525" height="12.195" transform="matrix(0.866025 0.5 -2.20305e-08 1 238.744 167.993)" fill="#0070CC" stroke="white"/>
<rect width="48.6351" height="12.195" transform="matrix(0.866025 0.5 -2.20305e-08 1 180.83 134.556)" fill="#0070CC" stroke="white"/>
<rect width="55.9361" height="12.195" transform="matrix(0.866025 0.5 -2.20305e-08 1 317.717 213.588)" fill="#0070CC" stroke="white"/>
<rect width="109.429" height="12.195" transform="matrix(0.866025 0.5 -2.20305e-08 1 180.83 158.947)" fill="#0070CC" stroke="white"/>
<rect width="54.7144" height="12.195" transform="matrix(0.866025 0.5 -2.20305e-08 1 291.393 222.779)" fill="#0070CC" stroke="white"/>
<path d="M446.381 314.222L464.323 303.863L464.323 675.531L446.381 685.889L446.381 314.222Z" fill="#0070CC" stroke="white"/>
<path d="M19.2321 46.8899L464.323 303.863L446.381 314.222L1.29056 57.2484L19.2321 46.8899Z" fill="#0070CC" stroke="white"/>
<path d="M1.29053 57.2495L446.381 314.223L446.381 685.89L1.29052 428.917L1.29053 57.2495Z" fill="#0070CC" stroke="white"/>
<path d="M24.3463 126C24.3463 124.895 25.1218 124.448 26.0784 125L417.327 350.888C418.284 351.44 419.059 352.783 419.059 353.888L419.059 639.927C419.059 641.031 418.284 641.479 417.327 640.927L26.0784 415.039C25.1218 414.487 24.3463 413.143 24.3463 412.039L24.3463 126Z" fill="#0070CC" stroke="white"/>
<mask id="path-28-inside-2_3:159" fill="white">
<path fill-rule="evenodd" clip-rule="evenodd" d="M38.6997 105.873C38.6997 110.45 35.4866 112.305 31.5231 110.016C27.5595 107.728 24.3465 102.163 24.3465 97.5862C24.3465 93.0095 27.5595 91.1545 31.5231 93.4428C35.4866 95.7311 38.6997 101.296 38.6997 105.873ZM59.9346 118.303C59.9346 122.88 56.7216 124.735 52.758 122.447C48.7945 120.158 45.5814 114.593 45.5814 110.016C45.5814 105.44 48.7945 103.585 52.758 105.873C56.7216 108.161 59.9346 113.726 59.9346 118.303ZM73.7341 134.877C77.6976 137.165 80.9107 135.31 80.9107 130.733C80.9107 126.157 77.6976 120.592 73.7341 118.303C69.7706 116.015 66.5575 117.87 66.5575 122.447C66.5575 127.023 69.7706 132.589 73.7341 134.877Z"/>
</mask>
<path fill-rule="evenodd" clip-rule="evenodd" d="M38.6997 105.873C38.6997 110.45 35.4866 112.305 31.5231 110.016C27.5595 107.728 24.3465 102.163 24.3465 97.5862C24.3465 93.0095 27.5595 91.1545 31.5231 93.4428C35.4866 95.7311 38.6997 101.296 38.6997 105.873ZM59.9346 118.303C59.9346 122.88 56.7216 124.735 52.758 122.447C48.7945 120.158 45.5814 114.593 45.5814 110.016C45.5814 105.44 48.7945 103.585 52.758 105.873C56.7216 108.161 59.9346 113.726 59.9346 118.303ZM73.7341 134.877C77.6976 137.165 80.9107 135.31 80.9107 130.733C80.9107 126.157 77.6976 120.592 73.7341 118.303C69.7706 116.015 66.5575 117.87 66.5575 122.447C66.5575 127.023 69.7706 132.589 73.7341 134.877Z" fill="#0070CC"/>
<path d="M31.5231 110.016L31.0231 110.882L31.5231 110.016ZM52.758 122.447L53.258 121.581L52.758 122.447ZM52.758 105.873L52.258 106.739L52.758 105.873ZM73.7341 134.877L73.2341 135.743L73.7341 134.877ZM73.7341 118.303L73.2341 119.169L73.7341 118.303ZM31.0231 110.882C33.187 112.132 35.3805 112.377 37.0977 111.385C38.8149 110.394 39.6997 108.372 39.6997 105.873H37.6997C37.6997 107.951 36.978 109.145 36.0977 109.653C35.2174 110.161 33.8227 110.189 32.0231 109.15L31.0231 110.882ZM23.3465 97.5862C23.3465 100.091 24.2192 102.798 25.5824 105.159C26.9456 107.521 28.8535 109.63 31.0231 110.882L32.0231 109.15C30.2291 108.115 28.5487 106.297 27.3145 104.159C26.0803 102.022 25.3465 99.6577 25.3465 97.5862H23.3465ZM32.0231 92.5768C29.8591 91.3274 27.6656 91.0827 25.9484 92.0741C24.2313 93.0655 23.3465 95.0875 23.3465 97.5862H25.3465C25.3465 95.5082 26.0682 94.3144 26.9484 93.8061C27.8287 93.2979 29.2235 93.2698 31.0231 94.3088L32.0231 92.5768ZM39.6997 105.873C39.6997 103.368 38.8269 100.661 37.4637 98.2998C36.1005 95.9386 34.1926 93.8294 32.0231 92.5768L31.0231 94.3088C32.817 95.3446 34.4975 97.1621 35.7317 99.2998C36.9659 101.437 37.6997 103.802 37.6997 105.873H39.6997ZM52.258 123.313C54.422 124.562 56.6155 124.807 58.3327 123.815C60.0498 122.824 60.9346 120.802 60.9346 118.303H58.9346C58.9346 120.381 58.2129 121.575 57.3327 122.083C56.4524 122.591 55.0576 122.62 53.258 121.581L52.258 123.313ZM44.5814 110.016C44.5814 112.522 45.4542 115.228 46.8174 117.59C48.1806 119.951 50.0885 122.06 52.258 123.313L53.258 121.581C51.4641 120.545 49.7836 118.727 48.5494 116.59C47.3153 114.452 46.5814 112.088 46.5814 110.016H44.5814ZM53.258 105.007C51.0941 103.758 48.9006 103.513 47.1834 104.504C45.4663 105.496 44.5814 107.518 44.5814 110.016H46.5814C46.5814 107.938 47.3032 106.744 48.1834 106.236C49.0637 105.728 50.4585 105.7 52.258 106.739L53.258 105.007ZM60.9346 118.303C60.9346 115.798 60.0619 113.091 58.6987 110.73C57.3355 108.369 55.4276 106.259 53.258 105.007L52.258 106.739C54.052 107.775 55.7324 109.592 56.9666 111.73C58.2008 113.868 58.9346 116.232 58.9346 118.303H60.9346ZM79.9107 130.733C79.9107 132.811 79.1889 134.005 78.3087 134.514C77.4284 135.022 76.0337 135.05 74.2341 134.011L73.2341 135.743C75.398 136.992 77.5915 137.237 79.3087 136.246C81.0259 135.254 81.9107 133.232 81.9107 130.733H79.9107ZM73.2341 119.169C75.0281 120.205 76.7085 122.023 77.9427 124.16C79.1769 126.298 79.9107 128.662 79.9107 130.733H81.9107C81.9107 128.228 81.0379 125.521 79.6747 123.16C78.3115 120.799 76.4036 118.69 74.2341 117.437L73.2341 119.169ZM67.5575 122.447C67.5575 120.369 68.2792 119.175 69.1595 118.667C70.0397 118.158 71.4345 118.13 73.2341 119.169L74.2341 117.437C72.0701 116.188 69.8766 115.943 68.1595 116.935C66.4423 117.926 65.5575 119.948 65.5575 122.447H67.5575ZM74.2341 134.011C72.4401 132.975 70.7597 131.158 69.5255 129.02C68.2913 126.882 67.5575 124.518 67.5575 122.447H65.5575C65.5575 124.952 66.4302 127.659 67.7934 130.02C69.1567 132.381 71.0645 134.49 73.2341 135.743L74.2341 134.011Z" fill="white" mask="url(#path-28-inside-2_3:159)"/>
<rect width="72.9525" height="12.195" transform="matrix(-0.866025 -0.5 -2.20305e-08 1 239.101 414.756)" fill="#0070CC" stroke="white"/>
<rect width="72.9525" height="12.195" transform="matrix(-0.866025 -0.5 -2.20305e-08 1 118.009 344.844)" fill="#0070CC" stroke="white"/>
<rect width="48.635" height="12.195" transform="matrix(-0.866025 -0.5 -2.20305e-08 1 297.015 448.193)" fill="#0070CC" stroke="white"/>
<rect width="30.3969" height="12.1949" transform="matrix(-0.866025 -0.499998 -2.20306e-08 1 160.128 369.162)" fill="#0070CC" stroke="white"/>
<rect width="48.6351" height="12.195" transform="matrix(0.866025 0.499999 -2.20305e-08 1 54.8298 259.589)" fill="#0070CC" stroke="white"/>
<rect width="42.5557" height="12.195" transform="matrix(-0.866025 -0.5 -2.20305e-08 1 91.6841 354.037)" fill="#0070CC" stroke="white"/>
<rect width="48.635" height="12.195" transform="matrix(-0.866025 -0.5 -2.20305e-08 1 323.34 487.782)" fill="#0070CC" stroke="white"/>
<rect width="109.429" height="12.195" transform="matrix(-0.866025 -0.5 -2.20305e-08 1 265.426 454.346)" fill="#0070CC" stroke="white"/>
<rect width="54.7144" height="12.195" transform="matrix(-0.866025 -0.5 -2.20305e-08 1 154.863 390.512)" fill="#0070CC" stroke="white"/>
<rect width="42.5557" height="12.195" transform="matrix(0.866025 0.500001 -2.20305e-08 1 228.571 384.288)" fill="#0070CC" stroke="white"/>
<rect width="109.429" height="12.195" transform="matrix(0.866025 0.5 -2.20305e-08 1 54.8298 283.978)" fill="#0070CC" stroke="white"/>
<rect width="54.7144" height="12.195" transform="matrix(0.866025 0.5 -2.20305e-08 1 165.393 347.811)" fill="#0070CC" stroke="white"/>
<rect width="72.9525" height="12.195" transform="matrix(0.866025 0.5 -2.20305e-08 1 112.744 213.993)" fill="#0070CC" stroke="white"/>
<rect width="48.6351" height="12.195" transform="matrix(0.866025 0.5 -2.20305e-08 1 54.8298 180.556)" fill="#0070CC" stroke="white"/>
<rect width="55.9361" height="12.195" transform="matrix(0.866025 0.5 -2.20305e-08 1 191.717 259.588)" fill="#0070CC" stroke="white"/>
<rect width="109.429" height="12.195" transform="matrix(0.866025 0.5 -2.20305e-08 1 54.8298 204.947)" fill="#0070CC" stroke="white"/>
<rect width="54.7144" height="12.195" transform="matrix(0.866025 0.5 -2.20305e-08 1 165.393 268.779)" fill="#0070CC" stroke="white"/>
</svg>
