<svg width="357" height="432" viewBox="0 0 357 432" fill="none" xmlns="http://www.w3.org/2000/svg">
<rect x="72" y="1" width="196" height="117" rx="9" fill="white" stroke="black" stroke-width="2"/>
<rect x="62" y="7" width="217" height="51" rx="10" fill="#2D2D2D"/>
<rect x="62" y="59" width="217" height="52" rx="10" fill="#2D2D2D"/>
<path d="M85.256 34.7328C85.256 34.6308 85.2504 34.5005 85.239 34.3418C85.239 34.1718 85.2334 34.0018 85.222 33.8318C85.2107 33.6505 85.1937 33.4748 85.171 33.3048C85.1597 33.1348 85.1427 32.9875 85.12 32.8628H83.981V31.7578H86.242L86.412 32.9478H86.497C86.803 32.5511 87.1884 32.2225 87.653 31.9618C88.129 31.6898 88.707 31.5538 89.387 31.5538C90.5997 31.5538 91.512 31.8881 92.124 32.5568C92.736 33.2255 93.042 34.3191 93.042 35.8378C93.042 36.5518 92.9344 37.1978 92.719 37.7758C92.515 38.3425 92.2204 38.8241 91.835 39.2208C91.4497 39.6175 90.985 39.9235 90.441 40.1388C89.897 40.3541 89.2964 40.4618 88.639 40.4618C88.401 40.4618 88.1857 40.4505 87.993 40.4278C87.8117 40.4165 87.6417 40.3938 87.483 40.3598C87.3357 40.3371 87.1884 40.3031 87.041 40.2578C86.8937 40.2125 86.735 40.1558 86.565 40.0878V43.6578H85.256V34.7328ZM89.166 32.7948C88.826 32.7948 88.503 32.8571 88.197 32.9818C87.9024 33.1065 87.636 33.2708 87.398 33.4748C87.1714 33.6788 86.9844 33.9055 86.837 34.1548C86.6897 34.4041 86.599 34.6535 86.565 34.9028V38.7788C86.8144 38.9488 87.092 39.0848 87.398 39.1868C87.7154 39.2775 88.129 39.3228 88.639 39.3228C89.5457 39.3228 90.271 39.0281 90.815 38.4388C91.359 37.8381 91.631 36.9655 91.631 35.8208C91.631 34.8575 91.4384 34.1151 91.053 33.5938C90.679 33.0611 90.05 32.7948 89.166 32.7948ZM100.588 31.7578H103.002V37.5548C103.002 38.1101 103.036 38.6428 103.104 39.1528H104.243V40.2578H101.982L101.931 38.8128H101.863C101.569 39.3001 101.178 39.6968 100.69 40.0028C100.203 40.3088 99.6137 40.4618 98.9224 40.4618C98.4011 40.4618 97.9534 40.3995 97.5794 40.2748C97.2167 40.1615 96.9164 39.9575 96.6784 39.6628C96.4404 39.3681 96.2647 38.9771 96.1514 38.4898C96.038 37.9911 95.9814 37.3735 95.9814 36.6368V32.8968H94.8424V31.7578H97.3074V36.3648C97.3074 36.8295 97.3244 37.2488 97.3584 37.6228C97.4037 37.9855 97.4887 38.2971 97.6134 38.5578C97.7381 38.8071 97.9194 38.9998 98.1574 39.1358C98.4067 39.2605 98.7354 39.3228 99.1434 39.3228C99.7327 39.3228 100.243 39.1301 100.673 38.7448C101.115 38.3595 101.45 37.8778 101.676 37.2998V32.8968H100.588V31.7578ZM105.738 31.7578H107.761V30.0748L109.087 29.7008V31.7578H113.626V32.8968H109.087V36.9088C109.087 37.7361 109.285 38.3481 109.682 38.7448C110.09 39.1415 110.668 39.3398 111.416 39.3398C111.926 39.3398 112.368 39.2435 112.742 39.0508C113.127 38.8581 113.473 38.6485 113.779 38.4218L114.221 39.4248C113.824 39.7421 113.348 39.9971 112.793 40.1898C112.249 40.3825 111.688 40.4788 111.11 40.4788C110.656 40.4788 110.226 40.4108 109.818 40.2748C109.421 40.1501 109.07 39.9518 108.764 39.6798C108.458 39.4078 108.214 39.0621 108.033 38.6428C107.851 38.2121 107.761 37.7021 107.761 37.1128V32.8968H105.738V31.7578ZM134.141 43.8618C133.382 43.6691 132.668 43.3801 131.999 42.9948C131.342 42.6208 130.764 42.1278 130.265 41.5158C129.778 40.9038 129.387 40.1558 129.092 39.2718C128.809 38.3878 128.667 37.3395 128.667 36.1268C128.667 34.9255 128.815 33.8771 129.109 32.9818C129.404 32.0751 129.801 31.3101 130.299 30.6868C130.798 30.0521 131.376 29.5478 132.033 29.1738C132.702 28.7885 133.405 28.5165 134.141 28.3578L134.566 29.4288C133.898 29.6215 133.286 29.8765 132.73 30.1938C132.175 30.4998 131.693 30.9135 131.285 31.4348C130.889 31.9448 130.577 32.5851 130.35 33.3558C130.135 34.1151 130.027 35.0388 130.027 36.1268C130.027 37.2261 130.158 38.1668 130.418 38.9488C130.69 39.7195 131.042 40.3598 131.472 40.8698C131.914 41.3911 132.402 41.7935 132.934 42.0768C133.478 42.3715 134.022 42.5755 134.566 42.6888L134.141 43.8618ZM184.657 39.3228C184.657 38.9828 184.765 38.7108 184.98 38.5068C185.207 38.2915 185.496 38.1838 185.847 38.1838C186.278 38.1838 186.612 38.3368 186.85 38.6428C187.088 38.9375 187.207 39.3568 187.207 39.9008C187.207 40.3428 187.134 40.7281 186.986 41.0568C186.839 41.3968 186.652 41.6801 186.425 41.9068C186.21 42.1448 185.972 42.3318 185.711 42.4678C185.462 42.6151 185.23 42.7228 185.014 42.7908L184.589 42.1278C184.997 41.9691 185.349 41.7425 185.643 41.4478C185.938 41.1531 186.085 40.7961 186.085 40.3768C185.927 40.4108 185.802 40.4278 185.711 40.4278C185.383 40.4278 185.122 40.3371 184.929 40.1558C184.748 39.9631 184.657 39.6855 184.657 39.3228ZM247.955 42.6888C248.499 42.5755 249.038 42.3715 249.57 42.0768C250.114 41.7935 250.602 41.3911 251.032 40.8698C251.474 40.3598 251.826 39.7195 252.086 38.9488C252.358 38.1668 252.494 37.2261 252.494 36.1268C252.494 35.0388 252.381 34.1151 252.154 33.3558C251.939 32.5851 251.627 31.9448 251.219 31.4348C250.823 30.9135 250.347 30.4998 249.791 30.1938C249.236 29.8765 248.624 29.6215 247.955 29.4288L248.38 28.3578C249.117 28.5165 249.814 28.7885 250.471 29.1738C251.14 29.5478 251.724 30.0521 252.222 30.6868C252.721 31.3101 253.118 32.0751 253.412 32.9818C253.707 33.8771 253.854 34.9255 253.854 36.1268C253.854 37.3395 253.707 38.3878 253.412 39.2718C253.129 40.1558 252.738 40.9038 252.239 41.5158C251.752 42.1278 251.174 42.6208 250.505 42.9948C249.848 43.3801 249.14 43.6691 248.38 43.8618L247.955 42.6888Z" fill="white"/>
<path d="M137.999 28.3578H140.753V35.3958H141.688L145.037 31.7578H146.635L142.878 35.7868L145.972 39.1188H147.077V40.2578H145.326L141.688 36.4158H140.753V40.2578H139.444V29.4968H137.999V28.3578ZM157.377 39.1868C157.173 39.3681 156.93 39.5381 156.646 39.6968C156.374 39.8555 156.074 39.9915 155.745 40.1048C155.417 40.2181 155.071 40.3031 154.708 40.3598C154.357 40.4278 154 40.4618 153.637 40.4618C152.957 40.4618 152.357 40.3598 151.835 40.1558C151.314 39.9405 150.878 39.6401 150.526 39.2548C150.175 38.8581 149.909 38.3878 149.727 37.8438C149.546 37.2998 149.455 36.6878 149.455 36.0078C149.455 35.2938 149.552 34.6591 149.744 34.1038C149.948 33.5485 150.237 33.0838 150.611 32.7098C150.985 32.3358 151.439 32.0525 151.971 31.8598C152.504 31.6558 153.099 31.5538 153.756 31.5538C154.232 31.5538 154.703 31.6161 155.167 31.7408C155.632 31.8655 156.04 32.1035 156.391 32.4548C156.754 32.7948 157.032 33.2708 157.224 33.8828C157.417 34.4835 157.485 35.2655 157.428 36.2288H150.849C150.849 37.2488 151.121 38.0138 151.665 38.5238C152.221 39.0225 152.957 39.2718 153.875 39.2718C154.181 39.2718 154.482 39.2378 154.776 39.1698C155.082 39.0905 155.371 38.9998 155.643 38.8978C155.915 38.7958 156.153 38.6825 156.357 38.5578C156.573 38.4331 156.737 38.3198 156.85 38.2178L157.377 39.1868ZM153.79 32.6758C153.416 32.6758 153.059 32.7155 152.719 32.7948C152.391 32.8741 152.096 33.0101 151.835 33.2028C151.586 33.3841 151.376 33.6278 151.206 33.9338C151.048 34.2285 150.946 34.5968 150.9 35.0388H156.187C156.131 34.2908 155.887 33.7128 155.456 33.3048C155.037 32.8855 154.482 32.6758 153.79 32.6758ZM164.465 38.9488H165.111L167.219 31.7578H168.596L166.233 39.3908C166.108 39.7875 165.978 40.2351 165.842 40.7338C165.717 41.2438 165.536 41.7198 165.298 42.1618C165.06 42.6038 164.737 42.9778 164.329 43.2838C163.921 43.5898 163.388 43.7428 162.731 43.7428C162.583 43.7428 162.425 43.7258 162.255 43.6918C162.096 43.6578 161.937 43.6125 161.779 43.5558C161.62 43.5105 161.473 43.4538 161.337 43.3858C161.201 43.3178 161.099 43.2498 161.031 43.1818L161.507 41.9578C161.575 42.0145 161.665 42.0711 161.779 42.1278C161.903 42.1845 162.034 42.2298 162.17 42.2638C162.317 42.3091 162.459 42.3431 162.595 42.3658C162.731 42.3998 162.844 42.4168 162.935 42.4168C163.785 42.4168 164.363 41.6971 164.669 40.2578H163.53L159.96 31.7578H161.49L164.465 38.9488ZM172.13 39.0338H174.799V30.0918L172.079 31.9958L171.416 31.0268L175.156 28.3578H176.108V39.0338H178.726V40.2578H172.13V39.0338Z" fill="#279EFF"/>
<path d="M207.485 38.6088H207.672L210.341 31.7578H211.82L208.233 40.2578H206.737L203.082 31.7578H204.646L207.485 38.6088ZM214.98 32.4208C215.468 32.1375 216.017 31.9335 216.629 31.8088C217.241 31.6841 217.842 31.6218 218.431 31.6218C219.009 31.6218 219.48 31.7125 219.842 31.8938C220.216 32.0751 220.505 32.3131 220.709 32.6078C220.925 32.8911 221.066 33.2198 221.134 33.5938C221.214 33.9565 221.253 34.3248 221.253 34.6988C221.253 35.1295 221.242 35.5885 221.219 36.0758C221.197 36.5631 221.18 37.0505 221.168 37.5378C221.168 38.1045 221.202 38.6428 221.27 39.1528H222.409V40.2578H220.148L219.995 38.9828H219.91C219.842 39.0848 219.74 39.2151 219.604 39.3738C219.468 39.5325 219.287 39.6911 219.06 39.8498C218.845 39.9971 218.579 40.1275 218.261 40.2408C217.944 40.3541 217.57 40.4108 217.139 40.4108C216.301 40.4108 215.638 40.1955 215.15 39.7648C214.663 39.3341 214.419 38.7448 214.419 37.9968C214.419 37.4188 214.544 36.9371 214.793 36.5518C215.054 36.1665 215.422 35.8718 215.898 35.6678C216.374 35.4638 216.947 35.3448 217.615 35.3108C218.295 35.2768 219.055 35.3221 219.893 35.4468C219.95 34.9255 219.956 34.4948 219.91 34.1548C219.876 33.8035 219.786 33.5258 219.638 33.3218C219.502 33.1178 219.304 32.9761 219.043 32.8968C218.794 32.8061 218.482 32.7608 218.108 32.7608C217.598 32.7608 217.111 32.8345 216.646 32.9818C216.182 33.1178 215.768 33.2595 215.405 33.4068L214.98 32.4208ZM217.479 39.2718C217.797 39.2718 218.091 39.2208 218.363 39.1188C218.635 39.0168 218.873 38.8865 219.077 38.7278C219.281 38.5691 219.451 38.3991 219.587 38.2178C219.723 38.0251 219.825 37.8438 219.893 37.6738V36.4838C219.304 36.3818 218.76 36.3308 218.261 36.3308C217.763 36.3308 217.332 36.3875 216.969 36.5008C216.607 36.6028 216.323 36.7671 216.119 36.9938C215.915 37.2205 215.813 37.5151 215.813 37.8778C215.813 38.2518 215.938 38.5805 216.187 38.8638C216.448 39.1358 216.879 39.2718 217.479 39.2718ZM225.961 28.3578H228.783V37.4018C228.783 38.0931 228.896 38.5805 229.123 38.8638C229.361 39.1471 229.706 39.2888 230.16 39.2888C230.477 39.2888 230.777 39.2321 231.061 39.1188C231.355 39.0055 231.678 38.8128 232.03 38.5408L232.642 39.4758C232.46 39.6345 232.262 39.7761 232.047 39.9008C231.831 40.0255 231.61 40.1331 231.384 40.2238C231.157 40.3031 230.93 40.3655 230.704 40.4108C230.477 40.4561 230.267 40.4788 230.075 40.4788C229.655 40.4788 229.281 40.4221 228.953 40.3088C228.624 40.2068 228.346 40.0368 228.12 39.7988C227.904 39.5608 227.74 39.2491 227.627 38.8638C227.513 38.4671 227.457 37.9798 227.457 37.4018V29.4968H225.961V28.3578ZM236.89 39.0338H239.559V30.0918L236.839 31.9958L236.176 31.0268L239.916 28.3578H240.868V39.0338H243.486V40.2578H236.89V39.0338Z" fill="#FFC700"/>
<path d="M85.256 83.6742C85.256 83.5722 85.2504 83.4419 85.239 83.2832C85.239 83.1132 85.2334 82.9432 85.222 82.7732C85.2107 82.5919 85.1937 82.4162 85.171 82.2462C85.1597 82.0762 85.1427 81.9289 85.12 81.8042H83.981V80.6992H86.242L86.412 81.8892H86.497C86.803 81.4926 87.1884 81.1639 87.653 80.9032C88.129 80.6312 88.707 80.4952 89.387 80.4952C90.5997 80.4952 91.512 80.8296 92.124 81.4982C92.736 82.1669 93.042 83.2606 93.042 84.7792C93.042 85.4932 92.9344 86.1392 92.719 86.7172C92.515 87.2839 92.2204 87.7656 91.835 88.1622C91.4497 88.5589 90.985 88.8649 90.441 89.0802C89.897 89.2956 89.2964 89.4032 88.639 89.4032C88.401 89.4032 88.1857 89.3919 87.993 89.3692C87.8117 89.3579 87.6417 89.3352 87.483 89.3012C87.3357 89.2786 87.1884 89.2446 87.041 89.1992C86.8937 89.1539 86.735 89.0972 86.565 89.0292V92.5992H85.256V83.6742ZM89.166 81.7362C88.826 81.7362 88.503 81.7986 88.197 81.9232C87.9024 82.0479 87.636 82.2122 87.398 82.4162C87.1714 82.6202 86.9844 82.8469 86.837 83.0962C86.6897 83.3456 86.599 83.5949 86.565 83.8442V87.7202C86.8144 87.8902 87.092 88.0262 87.398 88.1282C87.7154 88.2189 88.129 88.2642 88.639 88.2642C89.5457 88.2642 90.271 87.9696 90.815 87.3802C91.359 86.7796 91.631 85.9069 91.631 84.7622C91.631 83.7989 91.4384 83.0566 91.053 82.5352C90.679 82.0026 90.05 81.7362 89.166 81.7362ZM100.588 80.6992H103.002V86.4962C103.002 87.0516 103.036 87.5842 103.104 88.0942H104.243V89.1992H101.982L101.931 87.7542H101.863C101.569 88.2416 101.178 88.6382 100.69 88.9442C100.203 89.2502 99.6137 89.4032 98.9224 89.4032C98.4011 89.4032 97.9534 89.3409 97.5794 89.2162C97.2167 89.1029 96.9164 88.8989 96.6784 88.6042C96.4404 88.3096 96.2647 87.9186 96.1514 87.4312C96.038 86.9326 95.9814 86.3149 95.9814 85.5782V81.8382H94.8424V80.6992H97.3074V85.3062C97.3074 85.7709 97.3244 86.1902 97.3584 86.5642C97.4037 86.9269 97.4887 87.2386 97.6134 87.4992C97.7381 87.7486 97.9194 87.9412 98.1574 88.0772C98.4067 88.2019 98.7354 88.2642 99.1434 88.2642C99.7327 88.2642 100.243 88.0716 100.673 87.6862C101.115 87.3009 101.45 86.8192 101.676 86.2412V81.8382H100.588V80.6992ZM105.738 80.6992H107.761V79.0162L109.087 78.6422V80.6992H113.626V81.8382H109.087V85.8502C109.087 86.6776 109.285 87.2896 109.682 87.6862C110.09 88.0829 110.668 88.2812 111.416 88.2812C111.926 88.2812 112.368 88.1849 112.742 87.9922C113.127 87.7996 113.473 87.5899 113.779 87.3632L114.221 88.3662C113.824 88.6836 113.348 88.9386 112.793 89.1312C112.249 89.3239 111.688 89.4202 111.11 89.4202C110.656 89.4202 110.226 89.3522 109.818 89.2162C109.421 89.0916 109.07 88.8932 108.764 88.6212C108.458 88.3492 108.214 88.0036 108.033 87.5842C107.851 87.1536 107.761 86.6436 107.761 86.0542V81.8382H105.738V80.6992ZM134.141 92.8032C133.382 92.6106 132.668 92.3216 131.999 91.9362C131.342 91.5622 130.764 91.0692 130.265 90.4572C129.778 89.8452 129.387 89.0972 129.092 88.2132C128.809 87.3292 128.667 86.2809 128.667 85.0682C128.667 83.8669 128.815 82.8186 129.109 81.9232C129.404 81.0166 129.801 80.2516 130.299 79.6282C130.798 78.9936 131.376 78.4892 132.033 78.1152C132.702 77.7299 133.405 77.4579 134.141 77.2992L134.566 78.3702C133.898 78.5629 133.286 78.8179 132.73 79.1352C132.175 79.4412 131.693 79.8549 131.285 80.3762C130.889 80.8862 130.577 81.5266 130.35 82.2972C130.135 83.0566 130.027 83.9802 130.027 85.0682C130.027 86.1676 130.158 87.1082 130.418 87.8902C130.69 88.6609 131.042 89.3012 131.472 89.8112C131.914 90.3326 132.402 90.7349 132.934 91.0182C133.478 91.3129 134.022 91.5169 134.566 91.6302L134.141 92.8032ZM184.657 88.2642C184.657 87.9242 184.765 87.6522 184.98 87.4482C185.207 87.2329 185.496 87.1252 185.847 87.1252C186.278 87.1252 186.612 87.2782 186.85 87.5842C187.088 87.8789 187.207 88.2982 187.207 88.8422C187.207 89.2842 187.134 89.6696 186.986 89.9982C186.839 90.3382 186.652 90.6216 186.425 90.8482C186.21 91.0862 185.972 91.2732 185.711 91.4092C185.462 91.5566 185.23 91.6642 185.014 91.7322L184.589 91.0692C184.997 90.9106 185.349 90.6839 185.643 90.3892C185.938 90.0946 186.085 89.7376 186.085 89.3182C185.927 89.3522 185.802 89.3692 185.711 89.3692C185.383 89.3692 185.122 89.2786 184.929 89.0972C184.748 88.9046 184.657 88.6269 184.657 88.2642ZM237.162 91.6302C237.706 91.5169 238.244 91.3129 238.777 91.0182C239.321 90.7349 239.808 90.3326 240.239 89.8112C240.681 89.3012 241.032 88.6609 241.293 87.8902C241.565 87.1082 241.701 86.1676 241.701 85.0682C241.701 83.9802 241.588 83.0566 241.361 82.2972C241.146 81.5266 240.834 80.8862 240.426 80.3762C240.029 79.8549 239.553 79.4412 238.998 79.1352C238.443 78.8179 237.831 78.5629 237.162 78.3702L237.587 77.2992C238.324 77.4579 239.021 77.7299 239.678 78.1152C240.347 78.4892 240.93 78.9936 241.429 79.6282C241.928 80.2516 242.324 81.0166 242.619 81.9232C242.914 82.8186 243.061 83.8669 243.061 85.0682C243.061 86.2809 242.914 87.3292 242.619 88.2132C242.336 89.0972 241.945 89.8452 241.446 90.4572C240.959 91.0692 240.381 91.5622 239.712 91.9362C239.055 92.3216 238.346 92.6106 237.587 92.8032L237.162 91.6302Z" fill="white"/>
<path d="M137.999 77.2992H140.753V84.3372H141.688L145.037 80.6992H146.635L142.878 84.7282L145.972 88.0602H147.077V89.1992H145.326L141.688 85.3572H140.753V89.1992H139.444V78.4382H137.999V77.2992ZM157.377 88.1282C157.173 88.3096 156.93 88.4796 156.646 88.6382C156.374 88.7969 156.074 88.9329 155.745 89.0462C155.417 89.1596 155.071 89.2446 154.708 89.3012C154.357 89.3692 154 89.4032 153.637 89.4032C152.957 89.4032 152.357 89.3012 151.835 89.0972C151.314 88.8819 150.878 88.5816 150.526 88.1962C150.175 87.7996 149.909 87.3292 149.727 86.7852C149.546 86.2412 149.455 85.6292 149.455 84.9492C149.455 84.2352 149.552 83.6006 149.744 83.0452C149.948 82.4899 150.237 82.0252 150.611 81.6512C150.985 81.2772 151.439 80.9939 151.971 80.8012C152.504 80.5972 153.099 80.4952 153.756 80.4952C154.232 80.4952 154.703 80.5576 155.167 80.6822C155.632 80.8069 156.04 81.0449 156.391 81.3962C156.754 81.7362 157.032 82.2122 157.224 82.8242C157.417 83.4249 157.485 84.2069 157.428 85.1702H150.849C150.849 86.1902 151.121 86.9552 151.665 87.4652C152.221 87.9639 152.957 88.2132 153.875 88.2132C154.181 88.2132 154.482 88.1792 154.776 88.1112C155.082 88.0319 155.371 87.9412 155.643 87.8392C155.915 87.7372 156.153 87.6239 156.357 87.4992C156.573 87.3746 156.737 87.2612 156.85 87.1592L157.377 88.1282ZM153.79 81.6172C153.416 81.6172 153.059 81.6569 152.719 81.7362C152.391 81.8156 152.096 81.9516 151.835 82.1442C151.586 82.3256 151.376 82.5692 151.206 82.8752C151.048 83.1699 150.946 83.5382 150.9 83.9802H156.187C156.131 83.2322 155.887 82.6542 155.456 82.2462C155.037 81.8269 154.482 81.6172 153.79 81.6172ZM164.465 87.8902H165.111L167.219 80.6992H168.596L166.233 88.3322C166.108 88.7289 165.978 89.1766 165.842 89.6752C165.717 90.1852 165.536 90.6612 165.298 91.1032C165.06 91.5452 164.737 91.9192 164.329 92.2252C163.921 92.5312 163.388 92.6842 162.731 92.6842C162.583 92.6842 162.425 92.6672 162.255 92.6332C162.096 92.5992 161.937 92.5539 161.779 92.4972C161.62 92.4519 161.473 92.3952 161.337 92.3272C161.201 92.2592 161.099 92.1912 161.031 92.1232L161.507 90.8992C161.575 90.9559 161.665 91.0126 161.779 91.0692C161.903 91.1259 162.034 91.1712 162.17 91.2052C162.317 91.2506 162.459 91.2846 162.595 91.3072C162.731 91.3412 162.844 91.3582 162.935 91.3582C163.785 91.3582 164.363 90.6386 164.669 89.1992H163.53L159.96 80.6992H161.49L164.465 87.8902ZM172.13 87.9752H174.799V79.0332L172.079 80.9372L171.416 79.9682L175.156 77.2992H176.108V87.9752H178.726V89.1992H172.13V87.9752Z" fill="#279EFF"/>
<path d="M196.692 87.5502H196.879L199.548 80.6992H201.027L197.44 89.1992H195.944L192.289 80.6992H193.853L196.692 87.5502ZM204.187 81.3622C204.674 81.0789 205.224 80.8749 205.836 80.7502C206.448 80.6256 207.049 80.5632 207.638 80.5632C208.216 80.5632 208.686 80.6539 209.049 80.8352C209.423 81.0166 209.712 81.2546 209.916 81.5492C210.131 81.8326 210.273 82.1612 210.341 82.5352C210.42 82.8979 210.46 83.2662 210.46 83.6402C210.46 84.0709 210.449 84.5299 210.426 85.0172C210.403 85.5046 210.386 85.9919 210.375 86.4792C210.375 87.0459 210.409 87.5842 210.477 88.0942H211.616V89.1992H209.355L209.202 87.9242H209.117C209.049 88.0262 208.947 88.1566 208.811 88.3152C208.675 88.4739 208.494 88.6326 208.267 88.7912C208.052 88.9386 207.785 89.0689 207.468 89.1822C207.151 89.2956 206.777 89.3522 206.346 89.3522C205.507 89.3522 204.844 89.1369 204.357 88.7062C203.87 88.2756 203.626 87.6862 203.626 86.9382C203.626 86.3602 203.751 85.8786 204 85.4932C204.261 85.1079 204.629 84.8132 205.105 84.6092C205.581 84.4052 206.153 84.2862 206.822 84.2522C207.502 84.2182 208.261 84.2636 209.1 84.3882C209.157 83.8669 209.162 83.4362 209.117 83.0962C209.083 82.7449 208.992 82.4672 208.845 82.2632C208.709 82.0592 208.511 81.9176 208.25 81.8382C208.001 81.7476 207.689 81.7022 207.315 81.7022C206.805 81.7022 206.318 81.7759 205.853 81.9232C205.388 82.0592 204.975 82.2009 204.612 82.3482L204.187 81.3622ZM206.686 88.2132C207.003 88.2132 207.298 88.1622 207.57 88.0602C207.842 87.9582 208.08 87.8279 208.284 87.6692C208.488 87.5106 208.658 87.3406 208.794 87.1592C208.93 86.9666 209.032 86.7852 209.1 86.6152V85.4252C208.511 85.3232 207.967 85.2722 207.468 85.2722C206.969 85.2722 206.539 85.3289 206.176 85.4422C205.813 85.5442 205.53 85.7086 205.326 85.9352C205.122 86.1619 205.02 86.4566 205.02 86.8192C205.02 87.1932 205.145 87.5219 205.394 87.8052C205.655 88.0772 206.085 88.2132 206.686 88.2132ZM215.167 77.2992H217.989V86.3432C217.989 87.0346 218.103 87.5219 218.329 87.8052C218.567 88.0886 218.913 88.2302 219.366 88.2302C219.684 88.2302 219.984 88.1736 220.267 88.0602C220.562 87.9469 220.885 87.7542 221.236 87.4822L221.848 88.4172C221.667 88.5759 221.469 88.7176 221.253 88.8422C221.038 88.9669 220.817 89.0746 220.59 89.1652C220.364 89.2446 220.137 89.3069 219.91 89.3522C219.684 89.3976 219.474 89.4202 219.281 89.4202C218.862 89.4202 218.488 89.3636 218.159 89.2502C217.831 89.1482 217.553 88.9782 217.326 88.7402C217.111 88.5022 216.947 88.1906 216.833 87.8052C216.72 87.4086 216.663 86.9212 216.663 86.3432V78.4382H215.167V77.2992ZM232.438 80.3082C232.438 81.3509 231.945 82.5126 230.959 83.7932C229.973 85.0739 228.596 86.4679 226.828 87.9752H232.812V89.1992H225.264V87.9752C225.479 87.7712 225.774 87.5049 226.148 87.1762C226.522 86.8476 226.924 86.4849 227.355 86.0882C227.785 85.6802 228.222 85.2439 228.664 84.7792C229.117 84.3146 229.525 83.8386 229.888 83.3512C230.25 82.8639 230.545 82.3766 230.772 81.8892C230.998 81.4019 231.112 80.9316 231.112 80.4782C231.112 79.7982 230.93 79.2656 230.568 78.8802C230.216 78.4836 229.684 78.2852 228.97 78.2852C228.358 78.2852 227.842 78.3532 227.423 78.4892C227.003 78.6252 226.624 78.8236 226.284 79.0842L225.706 78.1492C226.216 77.7866 226.754 77.5202 227.321 77.3502C227.899 77.1802 228.528 77.0952 229.208 77.0952C230.273 77.0952 231.078 77.3842 231.622 77.9622C232.166 78.5402 232.438 79.3222 232.438 80.3082Z" fill="#FFC700"/>
<path d="M62.098 36.7071C62.4885 36.3166 62.4885 35.6834 62.098 35.2929L55.734 28.9289C55.3435 28.5384 54.7103 28.5384 54.3198 28.9289C53.9293 29.3195 53.9293 29.9526 54.3198 30.3431L59.9766 36L54.3198 41.6569C53.9293 42.0474 53.9293 42.6805 54.3198 43.0711C54.7103 43.4616 55.3435 43.4616 55.734 43.0711L62.098 36.7071ZM61.3908 35L12 35L12 37L61.3908 37L61.3908 35ZM1.0296e-05 47L9.65994e-06 262L2.00001 262L2.00001 47L1.0296e-05 47ZM12 274L74 274L74 272L12 272L12 274ZM9.65994e-06 262C9.60867e-06 268.627 5.37261 274 12 274L12 272C6.47717 272 2.00001 267.523 2.00001 262L9.65994e-06 262ZM12 35C5.37259 35 1.03473e-05 40.3726 1.0296e-05 47L2.00001 47C2.00001 41.4772 6.47716 37 12 37L12 35Z" fill="#2D2D2D"/>
<path d="M279.459 86.7071C279.068 86.3166 279.068 85.6834 279.459 85.2929L285.823 78.9289C286.213 78.5384 286.846 78.5384 287.237 78.9289C287.627 79.3195 287.627 79.9526 287.237 80.3431L281.58 86L287.237 91.6568C287.627 92.0474 287.627 92.6805 287.237 93.0711C286.846 93.4616 286.213 93.4616 285.823 93.0711L279.459 86.7071ZM280.166 85L345 85L345 87L280.166 87L280.166 85ZM357 97L357 327L355 327L355 97L357 97ZM345 339L274 339L274 337L345 337L345 339ZM357 327C357 333.627 351.627 339 345 339L345 337C350.523 337 355 332.523 355 327L357 327ZM345 85C351.627 85 357 90.3726 357 97L355 97C355 91.4771 350.523 87 345 87L345 85Z" fill="#2D2D2D"/>
<path d="M109.231 141.049L134.213 147.66L134.213 111.731L109.231 105.12L84.688 112.759L84.688 148.539L109.231 141.049Z" fill="white" stroke="#2D2D2D" stroke-width="2"/>
<path d="M109.67 119.644L84.688 113.033L84.688 156.845L109.67 163.456L134.213 155.817L134.213 112.154L109.67 119.644Z" fill="white" stroke="#2D2D2D" stroke-width="2"/>
<path d="M109.304 119.573L109.304 162.723" stroke="#2D2D2D" stroke-width="2"/>
<path d="M148.066 159.067L153.564 144.751H155.605L161.465 159.067H159.306L157.636 154.731H151.65L150.078 159.067H148.066ZM152.197 153.188H157.051L155.556 149.224C155.101 148.019 154.762 147.03 154.541 146.255C154.358 147.173 154.101 148.084 153.769 148.989L152.197 153.188ZM162.954 163.042V148.696H164.555V150.044C164.933 149.517 165.359 149.123 165.835 148.862C166.31 148.595 166.886 148.462 167.563 148.462C168.448 148.462 169.23 148.69 169.907 149.146C170.584 149.601 171.095 150.246 171.44 151.079C171.785 151.906 171.958 152.814 171.958 153.804C171.958 154.865 171.766 155.822 171.381 156.675C171.004 157.521 170.45 158.172 169.721 158.628C168.999 159.077 168.237 159.302 167.436 159.302C166.85 159.302 166.323 159.178 165.854 158.931C165.392 158.683 165.011 158.371 164.711 157.993V163.042H162.954ZM164.545 153.94C164.545 155.275 164.816 156.261 165.356 156.899C165.896 157.537 166.551 157.856 167.319 157.856C168.1 157.856 168.767 157.528 169.321 156.87C169.881 156.206 170.161 155.181 170.161 153.794C170.161 152.472 169.887 151.483 169.34 150.825C168.8 150.168 168.152 149.839 167.397 149.839C166.648 149.839 165.984 150.19 165.405 150.894C164.832 151.59 164.545 152.606 164.545 153.94ZM174.286 163.042V148.696H175.888V150.044C176.266 149.517 176.692 149.123 177.167 148.862C177.643 148.595 178.219 148.462 178.896 148.462C179.781 148.462 180.563 148.69 181.24 149.146C181.917 149.601 182.428 150.246 182.773 151.079C183.118 151.906 183.29 152.814 183.29 153.804C183.29 154.865 183.098 155.822 182.714 156.675C182.337 157.521 181.783 158.172 181.054 158.628C180.331 159.077 179.57 159.302 178.769 159.302C178.183 159.302 177.656 159.178 177.187 158.931C176.725 158.683 176.344 158.371 176.044 157.993V163.042H174.286ZM175.878 153.94C175.878 155.275 176.148 156.261 176.689 156.899C177.229 157.537 177.883 157.856 178.652 157.856C179.433 157.856 180.1 157.528 180.654 156.87C181.214 156.206 181.494 155.181 181.494 153.794C181.494 152.472 181.22 151.483 180.673 150.825C180.133 150.168 179.485 149.839 178.73 149.839C177.981 149.839 177.317 150.19 176.738 150.894C176.165 151.59 175.878 152.606 175.878 153.94ZM185.58 159.067V144.751H187.338V159.067H185.58ZM190.282 146.772V144.751H192.04V146.772H190.282ZM190.282 159.067V148.696H192.04V159.067H190.282ZM201.693 155.269L203.422 155.493C203.233 156.685 202.748 157.619 201.967 158.296C201.192 158.966 200.238 159.302 199.105 159.302C197.686 159.302 196.543 158.84 195.677 157.915C194.818 156.984 194.388 155.653 194.388 153.921C194.388 152.801 194.574 151.821 194.945 150.981C195.316 150.142 195.879 149.513 196.635 149.097C197.396 148.674 198.223 148.462 199.115 148.462C200.241 148.462 201.163 148.748 201.879 149.321C202.595 149.888 203.054 150.695 203.256 151.743L201.547 152.007C201.384 151.31 201.094 150.786 200.677 150.435C200.267 150.083 199.769 149.907 199.183 149.907C198.298 149.907 197.579 150.226 197.025 150.864C196.472 151.496 196.195 152.498 196.195 153.872C196.195 155.265 196.462 156.278 196.996 156.909C197.53 157.541 198.226 157.856 199.086 157.856C199.776 157.856 200.352 157.645 200.814 157.222C201.276 156.799 201.569 156.147 201.693 155.269ZM211.893 157.788C211.242 158.341 210.614 158.732 210.008 158.96C209.409 159.188 208.765 159.302 208.075 159.302C206.935 159.302 206.06 159.025 205.448 158.472C204.836 157.912 204.53 157.199 204.53 156.333C204.53 155.825 204.644 155.363 204.872 154.946C205.106 154.523 205.409 154.185 205.78 153.931C206.157 153.677 206.581 153.485 207.049 153.354C207.394 153.263 207.915 153.175 208.612 153.091C210.031 152.922 211.076 152.72 211.747 152.485C211.753 152.244 211.756 152.091 211.756 152.026C211.756 151.31 211.59 150.806 211.258 150.513C210.809 150.116 210.142 149.917 209.256 149.917C208.43 149.917 207.818 150.063 207.42 150.356C207.03 150.643 206.74 151.154 206.551 151.89L204.833 151.655C204.989 150.92 205.246 150.327 205.604 149.878C205.962 149.422 206.48 149.074 207.157 148.833C207.834 148.586 208.618 148.462 209.51 148.462C210.396 148.462 211.115 148.566 211.669 148.774C212.222 148.983 212.629 149.246 212.889 149.565C213.15 149.878 213.332 150.275 213.436 150.757C213.495 151.056 213.524 151.597 213.524 152.378V154.722C213.524 156.356 213.56 157.391 213.631 157.827C213.71 158.257 213.859 158.67 214.081 159.067H212.245C212.062 158.703 211.945 158.276 211.893 157.788ZM211.747 153.862C211.109 154.123 210.152 154.344 208.876 154.526C208.153 154.631 207.642 154.748 207.342 154.878C207.043 155.008 206.812 155.2 206.649 155.454C206.486 155.701 206.405 155.978 206.405 156.284C206.405 156.753 206.581 157.144 206.932 157.456C207.29 157.769 207.811 157.925 208.495 157.925C209.172 157.925 209.774 157.778 210.301 157.485C210.829 157.186 211.216 156.779 211.463 156.265C211.652 155.868 211.747 155.282 211.747 154.507V153.862ZM220.296 157.495L220.55 159.048C220.055 159.152 219.613 159.204 219.222 159.204C218.584 159.204 218.089 159.103 217.738 158.901C217.386 158.7 217.139 158.436 216.995 158.11C216.852 157.778 216.781 157.085 216.781 156.03V150.063H215.492V148.696H216.781V146.128L218.529 145.073V148.696H220.296V150.063H218.529V156.128C218.529 156.629 218.558 156.951 218.617 157.095C218.682 157.238 218.783 157.352 218.919 157.437C219.063 157.521 219.264 157.563 219.525 157.563C219.72 157.563 219.977 157.541 220.296 157.495ZM222.235 146.772V144.751H223.992V146.772H222.235ZM222.235 159.067V148.696H223.992V159.067H222.235ZM226.224 153.882C226.224 151.961 226.757 150.539 227.825 149.614C228.717 148.846 229.804 148.462 231.087 148.462C232.513 148.462 233.678 148.931 234.583 149.868C235.488 150.799 235.94 152.088 235.94 153.735C235.94 155.07 235.739 156.121 235.335 156.89C234.938 157.651 234.355 158.244 233.587 158.667C232.825 159.09 231.992 159.302 231.087 159.302C229.635 159.302 228.46 158.836 227.561 157.905C226.67 156.974 226.224 155.633 226.224 153.882ZM228.03 153.882C228.03 155.21 228.32 156.206 228.899 156.87C229.479 157.528 230.208 157.856 231.087 157.856C231.959 157.856 232.685 157.524 233.265 156.86C233.844 156.196 234.134 155.184 234.134 153.823C234.134 152.541 233.841 151.571 233.255 150.913C232.675 150.249 231.953 149.917 231.087 149.917C230.208 149.917 229.479 150.246 228.899 150.903C228.32 151.561 228.03 152.554 228.03 153.882ZM238.211 159.067V148.696H239.793V150.171C240.554 149.032 241.655 148.462 243.094 148.462C243.719 148.462 244.291 148.576 244.812 148.804C245.34 149.025 245.733 149.318 245.994 149.683C246.254 150.047 246.437 150.48 246.541 150.981C246.606 151.307 246.638 151.877 246.638 152.69V159.067H244.881V152.759C244.881 152.043 244.812 151.509 244.676 151.157C244.539 150.799 244.295 150.516 243.943 150.308C243.598 150.093 243.191 149.985 242.722 149.985C241.974 149.985 241.326 150.223 240.779 150.698C240.239 151.174 239.969 152.075 239.969 153.403V159.067H238.211Z" fill="#2D2D2D"/>
<path d="M57.7819 311.767V251.32C57.7819 251.32 69.441 261.458 103.714 261.458C137.987 261.458 149.574 250.379 149.574 250.379V311.767C135.276 332.773 64.2899 326.496 57.7819 311.767Z" fill="#E0454C"/>
<path d="M56.7819 354.458V291.826C56.7819 291.826 68.6388 303.941 102.912 303.941C137.185 303.941 148.574 291.826 148.574 291.826L149.543 354.458C134.968 372.745 65.6526 369.316 56.7819 354.458Z" fill="#0070CC"/>
<path d="M149.652 247.504C149.652 249.118 148.627 250.831 146.352 252.544C144.094 254.244 140.757 255.818 136.53 257.157C128.088 259.833 116.32 261.504 103.152 261.504C89.9834 261.504 78.2154 259.833 69.7734 257.157C65.5466 255.818 62.2097 254.244 59.951 252.544C57.676 250.831 56.6516 249.118 56.6516 247.504C56.6516 245.89 57.676 244.177 59.951 242.464C62.2097 240.764 65.5466 239.19 69.7734 237.851C78.2154 235.175 89.9834 233.504 103.152 233.504C116.32 233.504 128.088 235.175 136.53 237.851C140.757 239.19 144.094 240.764 146.352 242.464C148.627 244.177 149.652 245.89 149.652 247.504Z" fill="#E0454C" stroke="#2D2D2D" stroke-width="2"/>
<path d="M56.6516 246.504L57.0022 353.767" stroke="#2D2D2D" stroke-width="2"/>
<path d="M149.652 246.504L149.652 354.504" stroke="#2D2D2D" stroke-width="2"/>
<path d="M149.74 352.947C149.74 360.903 128.98 367.353 103.371 367.353C77.7623 367.353 57.0022 360.903 57.0022 352.947" stroke="#2D2D2D" stroke-width="2"/>
<path d="M149.74 288.947C149.74 296.903 128.98 303.353 103.371 303.353C77.7623 303.353 57.0022 296.903 57.0022 288.947" stroke="#2D2D2D" stroke-width="2"/>
<path d="M68.8391 286.504V275.051H71.1204L73.8313 283.16C74.0813 283.915 74.2636 284.48 74.3782 284.855C74.5084 284.439 74.7115 283.827 74.9875 283.02L77.7297 275.051H79.7688V286.504H78.3079V276.918L74.9797 286.504H73.6125L70.3 276.754V286.504H68.8391ZM82.4454 286.504V275.051H90.7266V276.402H83.961V279.91H90.2969V281.254H83.961V285.152H90.9922V286.504H82.4454ZM93.2391 286.504V275.051H95.5204L98.2313 283.16C98.4813 283.915 98.6636 284.48 98.7782 284.855C98.9084 284.439 99.1115 283.827 99.3875 283.02L102.13 275.051H104.169V286.504H102.708V276.918L99.3797 286.504H98.0125L94.7 276.754V286.504H93.2391ZM106.353 280.926C106.353 279.025 106.864 277.538 107.884 276.465C108.905 275.387 110.223 274.848 111.838 274.848C112.895 274.848 113.848 275.1 114.697 275.605C115.546 276.111 116.192 276.816 116.634 277.723C117.082 278.624 117.306 279.647 117.306 280.793C117.306 281.954 117.072 282.993 116.603 283.91C116.134 284.827 115.47 285.522 114.611 285.996C113.752 286.465 112.825 286.699 111.83 286.699C110.752 286.699 109.788 286.439 108.939 285.918C108.09 285.397 107.447 284.686 107.009 283.785C106.572 282.884 106.353 281.931 106.353 280.926ZM107.916 280.949C107.916 282.329 108.285 283.418 109.025 284.215C109.77 285.007 110.702 285.402 111.822 285.402C112.963 285.402 113.9 285.001 114.634 284.199C115.374 283.397 115.744 282.259 115.744 280.785C115.744 279.853 115.585 279.04 115.267 278.348C114.955 277.65 114.494 277.111 113.884 276.73C113.28 276.345 112.601 276.152 111.845 276.152C110.772 276.152 109.848 276.522 109.072 277.262C108.301 277.996 107.916 279.225 107.916 280.949ZM119.491 286.504V275.051H124.569C125.59 275.051 126.366 275.155 126.897 275.363C127.428 275.566 127.853 275.928 128.17 276.449C128.488 276.97 128.647 277.546 128.647 278.176C128.647 278.988 128.384 279.673 127.858 280.23C127.332 280.788 126.519 281.142 125.42 281.293C125.821 281.486 126.126 281.676 126.334 281.863C126.777 282.27 127.196 282.777 127.592 283.387L129.584 286.504H127.678L126.163 284.121C125.72 283.434 125.355 282.908 125.069 282.543C124.782 282.178 124.525 281.923 124.295 281.777C124.071 281.632 123.842 281.53 123.608 281.473C123.436 281.436 123.155 281.418 122.764 281.418H121.006V286.504H119.491ZM121.006 280.105H124.264C124.957 280.105 125.498 280.035 125.889 279.895C126.28 279.749 126.577 279.52 126.78 279.207C126.983 278.889 127.084 278.546 127.084 278.176C127.084 277.634 126.887 277.189 126.491 276.84C126.1 276.491 125.48 276.316 124.631 276.316H121.006V280.105ZM134.159 286.504V281.652L129.745 275.051H131.589L133.847 278.504C134.264 279.15 134.652 279.796 135.011 280.441C135.355 279.842 135.771 279.168 136.261 278.418L138.48 275.051H140.245L135.675 281.652V286.504H134.159Z" fill="white"/>
<path d="M84.886 349.504V338.051H88.8313C89.7219 338.051 90.4016 338.105 90.8704 338.215C91.5266 338.366 92.0865 338.639 92.55 339.035C93.1542 339.546 93.6047 340.199 93.9016 340.996C94.2037 341.788 94.3547 342.694 94.3547 343.715C94.3547 344.585 94.2532 345.355 94.05 346.027C93.8469 346.699 93.5865 347.257 93.2688 347.699C92.9511 348.137 92.6021 348.483 92.2219 348.738C91.8469 348.988 91.3912 349.178 90.8547 349.309C90.3235 349.439 89.7115 349.504 89.0188 349.504H84.886ZM86.4016 348.152H88.8469C89.6021 348.152 90.1933 348.082 90.6204 347.941C91.0527 347.801 91.3964 347.603 91.6516 347.348C92.011 346.988 92.2896 346.507 92.4875 345.902C92.6907 345.293 92.7922 344.556 92.7922 343.691C92.7922 342.493 92.5943 341.574 92.1985 340.934C91.8079 340.288 91.3313 339.855 90.7688 339.637C90.3625 339.48 89.7089 339.402 88.8079 339.402H86.4016V348.152ZM96.9063 349.504V338.051H98.4219V349.504H96.9063ZM100.786 345.824L102.216 345.699C102.283 346.272 102.44 346.743 102.684 347.113C102.934 347.478 103.32 347.775 103.841 348.004C104.362 348.228 104.947 348.34 105.598 348.34C106.177 348.34 106.687 348.254 107.13 348.082C107.572 347.91 107.901 347.676 108.114 347.379C108.333 347.077 108.442 346.749 108.442 346.395C108.442 346.035 108.338 345.723 108.13 345.457C107.921 345.186 107.578 344.96 107.098 344.777C106.791 344.658 106.112 344.473 105.059 344.223C104.007 343.967 103.27 343.728 102.848 343.504C102.302 343.217 101.893 342.863 101.622 342.441C101.356 342.014 101.223 341.538 101.223 341.012C101.223 340.434 101.388 339.895 101.716 339.395C102.044 338.889 102.523 338.507 103.153 338.246C103.783 337.986 104.484 337.855 105.255 337.855C106.104 337.855 106.851 337.993 107.497 338.27C108.148 338.54 108.648 338.941 108.997 339.473C109.346 340.004 109.533 340.605 109.559 341.277L108.106 341.387C108.028 340.663 107.763 340.116 107.309 339.746C106.862 339.376 106.197 339.191 105.317 339.191C104.401 339.191 103.731 339.361 103.309 339.699C102.893 340.033 102.684 340.436 102.684 340.91C102.684 341.322 102.833 341.66 103.13 341.926C103.421 342.191 104.182 342.465 105.411 342.746C106.645 343.022 107.492 343.264 107.95 343.473C108.617 343.78 109.109 344.171 109.427 344.645C109.744 345.113 109.903 345.655 109.903 346.27C109.903 346.879 109.729 347.454 109.38 347.996C109.031 348.533 108.528 348.952 107.872 349.254C107.221 349.551 106.487 349.699 105.669 349.699C104.632 349.699 103.763 349.548 103.059 349.246C102.362 348.944 101.812 348.491 101.411 347.887C101.015 347.277 100.807 346.59 100.786 345.824ZM112.111 349.504V338.051H113.627V343.73L119.314 338.051H121.369L116.564 342.691L121.58 349.504H119.58L115.502 343.707L113.627 345.535V349.504H112.111Z" fill="white"/>
<path d="M217.124 311.767V251.32C217.124 251.32 228.783 261.458 263.056 261.458C297.329 261.458 308.916 250.379 308.916 250.379V311.767C294.618 332.773 223.632 326.496 217.124 311.767Z" fill="#E0454C"/>
<path d="M216.124 354.458V291.826C216.124 291.826 227.981 303.941 262.254 303.941C296.527 303.941 307.916 291.826 307.916 291.826L308.885 354.458C294.31 372.745 224.994 369.316 216.124 354.458Z" fill="#0070CC"/>
<path d="M308.993 247.504C308.993 249.118 307.969 250.831 305.694 252.544C303.435 254.244 300.098 255.818 295.872 257.157C287.43 259.833 275.662 261.504 262.493 261.504C249.325 261.504 237.557 259.833 229.115 257.157C224.888 255.818 221.552 254.244 219.293 252.544C217.018 250.831 215.993 249.118 215.993 247.504C215.993 245.89 217.018 244.177 219.293 242.464C221.552 240.764 224.888 239.19 229.115 237.851C237.557 235.175 249.325 233.504 262.493 233.504C275.662 233.504 287.43 235.175 295.872 237.851C300.098 239.19 303.435 240.764 305.694 242.464C307.969 244.177 308.993 245.89 308.993 247.504Z" fill="#E0454C" stroke="black" stroke-width="2"/>
<path d="M215.993 246.504L216.344 353.767" stroke="black" stroke-width="2"/>
<path d="M308.993 246.504L308.993 354.504" stroke="black" stroke-width="2"/>
<path d="M309.082 352.947C309.082 360.903 288.322 367.353 262.713 367.353C237.104 367.353 216.344 360.903 216.344 352.947" stroke="black" stroke-width="2"/>
<path d="M309.082 288.947C309.082 296.903 288.322 303.353 262.713 303.353C237.104 303.353 216.344 296.903 216.344 288.947" stroke="black" stroke-width="2"/>
<path d="M228.181 286.504V275.051H230.462L233.173 283.16C233.423 283.915 233.605 284.48 233.72 284.855C233.85 284.439 234.053 283.827 234.329 283.02L237.072 275.051H239.111V286.504H237.65V276.918L234.322 286.504H232.954L229.642 276.754V286.504H228.181ZM241.787 286.504V275.051H250.068V276.402H243.303V279.91H249.639V281.254H243.303V285.152H250.334V286.504H241.787ZM252.581 286.504V275.051H254.862L257.573 283.16C257.823 283.915 258.005 284.48 258.12 284.855C258.25 284.439 258.453 283.827 258.729 283.02L261.472 275.051H263.511V286.504H262.05V276.918L258.722 286.504H257.354L254.042 276.754V286.504H252.581ZM265.695 280.926C265.695 279.025 266.205 277.538 267.226 276.465C268.247 275.387 269.565 274.848 271.179 274.848C272.237 274.848 273.19 275.1 274.039 275.605C274.888 276.111 275.534 276.816 275.976 277.723C276.424 278.624 276.648 279.647 276.648 280.793C276.648 281.954 276.414 282.993 275.945 283.91C275.476 284.827 274.812 285.522 273.953 285.996C273.093 286.465 272.166 286.699 271.172 286.699C270.093 286.699 269.13 286.439 268.281 285.918C267.432 285.397 266.789 284.686 266.351 283.785C265.914 282.884 265.695 281.931 265.695 280.926ZM267.257 280.949C267.257 282.329 267.627 283.418 268.367 284.215C269.112 285.007 270.044 285.402 271.164 285.402C272.304 285.402 273.242 285.001 273.976 284.199C274.716 283.397 275.086 282.259 275.086 280.785C275.086 279.853 274.927 279.04 274.609 278.348C274.297 277.65 273.836 277.111 273.226 276.73C272.622 276.345 271.942 276.152 271.187 276.152C270.114 276.152 269.19 276.522 268.414 277.262C267.643 277.996 267.257 279.225 267.257 280.949ZM278.832 286.504V275.051H283.911C284.931 275.051 285.707 275.155 286.239 275.363C286.77 275.566 287.194 275.928 287.512 276.449C287.83 276.97 287.989 277.546 287.989 278.176C287.989 278.988 287.726 279.673 287.2 280.23C286.674 280.788 285.861 281.142 284.762 281.293C285.163 281.486 285.468 281.676 285.676 281.863C286.119 282.27 286.538 282.777 286.934 283.387L288.926 286.504H287.02L285.504 284.121C285.062 283.434 284.697 282.908 284.411 282.543C284.124 282.178 283.866 281.923 283.637 281.777C283.413 281.632 283.184 281.53 282.95 281.473C282.778 281.436 282.497 281.418 282.106 281.418H280.348V286.504H278.832ZM280.348 280.105H283.606C284.299 280.105 284.84 280.035 285.231 279.895C285.622 279.749 285.918 279.52 286.122 279.207C286.325 278.889 286.426 278.546 286.426 278.176C286.426 277.634 286.228 277.189 285.832 276.84C285.442 276.491 284.822 276.316 283.973 276.316H280.348V280.105ZM293.501 286.504V281.652L289.087 275.051H290.931L293.189 278.504C293.605 279.15 293.993 279.796 294.353 280.441C294.697 279.842 295.113 279.168 295.603 278.418L297.822 275.051H299.587L295.017 281.652V286.504H293.501Z" fill="white"/>
<path d="M244.228 349.504V338.051H248.173C249.064 338.051 249.743 338.105 250.212 338.215C250.868 338.366 251.428 338.639 251.892 339.035C252.496 339.546 252.947 340.199 253.243 340.996C253.545 341.788 253.697 342.694 253.697 343.715C253.697 344.585 253.595 345.355 253.392 346.027C253.189 346.699 252.928 347.257 252.611 347.699C252.293 348.137 251.944 348.483 251.564 348.738C251.189 348.988 250.733 349.178 250.197 349.309C249.665 349.439 249.053 349.504 248.361 349.504H244.228ZM245.743 348.152H248.189C248.944 348.152 249.535 348.082 249.962 347.941C250.394 347.801 250.738 347.603 250.993 347.348C251.353 346.988 251.631 346.507 251.829 345.902C252.032 345.293 252.134 344.556 252.134 343.691C252.134 342.493 251.936 341.574 251.54 340.934C251.15 340.288 250.673 339.855 250.111 339.637C249.704 339.48 249.051 339.402 248.15 339.402H245.743V348.152ZM256.248 349.504V338.051H257.764V349.504H256.248ZM260.128 345.824L261.557 345.699C261.625 346.272 261.781 346.743 262.026 347.113C262.276 347.478 262.662 347.775 263.182 348.004C263.703 348.228 264.289 348.34 264.94 348.34C265.518 348.34 266.029 348.254 266.472 348.082C266.914 347.91 267.242 347.676 267.456 347.379C267.675 347.077 267.784 346.749 267.784 346.395C267.784 346.035 267.68 345.723 267.472 345.457C267.263 345.186 266.919 344.96 266.44 344.777C266.133 344.658 265.453 344.473 264.401 344.223C263.349 343.967 262.612 343.728 262.19 343.504C261.643 343.217 261.235 342.863 260.964 342.441C260.698 342.014 260.565 341.538 260.565 341.012C260.565 340.434 260.729 339.895 261.057 339.395C261.386 338.889 261.865 338.507 262.495 338.246C263.125 337.986 263.826 337.855 264.597 337.855C265.445 337.855 266.193 337.993 266.839 338.27C267.49 338.54 267.99 338.941 268.339 339.473C268.688 340.004 268.875 340.605 268.901 341.277L267.448 341.387C267.37 340.663 267.104 340.116 266.651 339.746C266.203 339.376 265.539 339.191 264.659 339.191C263.742 339.191 263.073 339.361 262.651 339.699C262.235 340.033 262.026 340.436 262.026 340.91C262.026 341.322 262.175 341.66 262.472 341.926C262.763 342.191 263.524 342.465 264.753 342.746C265.987 343.022 266.834 343.264 267.292 343.473C267.959 343.78 268.451 344.171 268.768 344.645C269.086 345.113 269.245 345.655 269.245 346.27C269.245 346.879 269.07 347.454 268.722 347.996C268.373 348.533 267.87 348.952 267.214 349.254C266.563 349.551 265.828 349.699 265.011 349.699C263.974 349.699 263.104 349.548 262.401 349.246C261.703 348.944 261.154 348.491 260.753 347.887C260.357 347.277 260.149 346.59 260.128 345.824ZM271.453 349.504V338.051H272.968V343.73L278.656 338.051H280.711L275.906 342.691L280.922 349.504H278.922L274.843 343.707L272.968 345.535V349.504H271.453Z" fill="white"/>
<path d="M245.076 379.565C245.076 379.565 234.577 386.065 244.472 392.518C246.375 393.775 253.279 397.271 253.083 400.505C253.083 400.505 257.267 394.22 251.149 390.265C244.865 386.218 243.293 381.895 245.076 379.565Z" fill="#ED1C24"/>
<path d="M241.42 391.982C241.42 391.982 237.674 397.746 245.046 398.926C245.771 399.018 251.104 399.586 252.494 401.364C252.494 401.364 252.373 398.298 248.022 396.489C243.686 394.68 241.904 394.235 241.42 391.982Z" fill="#ED1C24"/>
<path d="M255.923 385.927C251.421 381.144 250.167 378.185 252.101 374.353C252.101 374.353 238.671 379.595 251.935 388.901C256.679 392.227 255.893 395.63 255.893 395.753C256.633 394.971 260.425 390.709 255.923 385.927Z" fill="#ED1C24"/>
<path d="M263.37 397.458V386.005H264.925L270.941 394.997V386.005H272.394V397.458H270.839L264.823 388.458V397.458H263.37ZM274.687 391.88C274.687 389.979 275.198 388.492 276.219 387.419C277.24 386.341 278.557 385.802 280.172 385.802C281.229 385.802 282.182 386.054 283.031 386.56C283.88 387.065 284.526 387.771 284.969 388.677C285.417 389.578 285.641 390.601 285.641 391.747C285.641 392.909 285.406 393.948 284.937 394.864C284.469 395.781 283.805 396.476 282.945 396.95C282.086 397.419 281.159 397.653 280.164 397.653C279.086 397.653 278.122 397.393 277.273 396.872C276.424 396.351 275.781 395.64 275.344 394.739C274.906 393.838 274.687 392.885 274.687 391.88ZM276.25 391.903C276.25 393.284 276.62 394.372 277.359 395.169C278.104 395.961 279.036 396.356 280.156 396.356C281.297 396.356 282.234 395.955 282.969 395.153C283.708 394.351 284.078 393.213 284.078 391.739C284.078 390.807 283.919 389.994 283.602 389.302C283.289 388.604 282.828 388.065 282.219 387.685C281.615 387.299 280.935 387.106 280.18 387.106C279.107 387.106 278.182 387.476 277.406 388.216C276.635 388.95 276.25 390.179 276.25 391.903ZM287.802 397.458V386.005H291.747C292.637 386.005 293.317 386.06 293.786 386.169C294.442 386.32 295.002 386.593 295.466 386.989C296.07 387.5 296.52 388.153 296.817 388.95C297.119 389.742 297.27 390.648 297.27 391.669C297.27 392.539 297.169 393.31 296.966 393.981C296.762 394.653 296.502 395.211 296.184 395.653C295.867 396.091 295.518 396.437 295.137 396.692C294.762 396.942 294.307 397.132 293.77 397.263C293.239 397.393 292.627 397.458 291.934 397.458H287.802ZM289.317 396.106H291.762C292.518 396.106 293.109 396.036 293.536 395.896C293.968 395.755 294.312 395.557 294.567 395.302C294.927 394.942 295.205 394.461 295.403 393.856C295.606 393.247 295.708 392.51 295.708 391.646C295.708 390.448 295.51 389.528 295.114 388.888C294.723 388.242 294.247 387.81 293.684 387.591C293.278 387.435 292.624 387.356 291.723 387.356H289.317V396.106ZM299.595 397.458V386.005H307.877V387.356H301.111V390.864H307.447V392.208H301.111V396.106H308.142V397.458H299.595Z" fill="#2D2D2D"/>
<path d="M61.0023 379.565C61.0023 379.565 50.503 386.065 60.398 392.518C62.3015 393.775 69.2054 397.271 69.009 400.505C69.009 400.505 73.1936 394.22 67.0753 390.265C60.7908 386.218 59.2197 381.895 61.0023 379.565Z" fill="#ED1C24"/>
<path d="M57.3466 391.982C57.3466 391.982 53.6001 397.746 60.9723 398.926C61.6974 399.018 67.0302 399.586 68.42 401.364C68.42 401.364 68.2992 398.298 63.9484 396.489C59.6127 394.68 57.83 394.235 57.3466 391.982Z" fill="#ED1C24"/>
<path d="M71.8495 385.927C67.3476 381.144 66.0938 378.185 68.0274 374.353C68.0274 374.353 54.5973 379.595 67.8613 388.901C72.6049 392.227 71.8193 395.63 71.8193 395.753C72.5595 394.971 76.3514 390.709 71.8495 385.927Z" fill="#ED1C24"/>
<path d="M79.2966 397.458V386.005H80.8513L86.8669 394.997V386.005H88.32V397.458H86.7653L80.7497 388.458V397.458H79.2966ZM90.6138 391.88C90.6138 389.979 91.1242 388.492 92.145 387.419C93.1658 386.341 94.4835 385.802 96.0981 385.802C97.1554 385.802 98.1085 386.054 98.9575 386.56C99.8065 387.065 100.452 387.771 100.895 388.677C101.343 389.578 101.567 390.601 101.567 391.747C101.567 392.909 101.333 393.948 100.864 394.864C100.395 395.781 99.7309 396.476 98.8716 396.95C98.0122 397.419 97.0851 397.653 96.0903 397.653C95.0122 397.653 94.0487 397.393 93.1997 396.872C92.3507 396.351 91.7075 395.64 91.27 394.739C90.8325 393.838 90.6138 392.885 90.6138 391.88ZM92.1763 391.903C92.1763 393.284 92.546 394.372 93.2856 395.169C94.0304 395.961 94.9627 396.356 96.0825 396.356C97.2231 396.356 98.1606 395.955 98.895 395.153C99.6346 394.351 100.004 393.213 100.004 391.739C100.004 390.807 99.8455 389.994 99.5278 389.302C99.2153 388.604 98.7544 388.065 98.145 387.685C97.5408 387.299 96.8612 387.106 96.1059 387.106C95.033 387.106 94.1085 387.476 93.3325 388.216C92.5617 388.95 92.1763 390.179 92.1763 391.903ZM103.728 397.458V386.005H107.673C108.564 386.005 109.243 386.06 109.712 386.169C110.368 386.32 110.928 386.593 111.392 386.989C111.996 387.5 112.447 388.153 112.743 388.95C113.046 389.742 113.197 390.648 113.197 391.669C113.197 392.539 113.095 393.31 112.892 393.981C112.689 394.653 112.428 395.211 112.111 395.653C111.793 396.091 111.444 396.437 111.064 396.692C110.689 396.942 110.233 397.132 109.697 397.263C109.165 397.393 108.553 397.458 107.861 397.458H103.728ZM105.243 396.106H107.689C108.444 396.106 109.035 396.036 109.462 395.896C109.894 395.755 110.238 395.557 110.493 395.302C110.853 394.942 111.131 394.461 111.329 393.856C111.533 393.247 111.634 392.51 111.634 391.646C111.634 390.448 111.436 389.528 111.04 388.888C110.65 388.242 110.173 387.81 109.611 387.591C109.204 387.435 108.551 387.356 107.65 387.356H105.243V396.106ZM115.522 397.458V386.005H123.803V387.356H117.037V390.864H123.373V392.208H117.037V396.106H124.068V397.458H115.522Z" fill="#2D2D2D"/>
<path d="M153.002 409.565C153.002 409.565 142.503 416.065 152.398 422.518C154.302 423.775 161.205 427.271 161.009 430.505C161.009 430.505 165.194 424.22 159.075 420.265C152.791 416.218 151.22 411.895 153.002 409.565Z" fill="#ED1C24"/>
<path d="M149.347 421.982C149.347 421.982 145.6 427.746 152.972 428.926C153.697 429.018 159.03 429.586 160.42 431.364C160.42 431.364 160.299 428.298 155.948 426.489C151.613 424.68 149.83 424.235 149.347 421.982Z" fill="#ED1C24"/>
<path d="M163.85 415.927C159.348 411.144 158.094 408.185 160.027 404.353C160.027 404.353 146.597 409.595 159.861 418.901C164.605 422.227 163.819 425.63 163.819 425.753C164.56 424.971 168.351 420.709 163.85 415.927Z" fill="#ED1C24"/>
<path d="M171.297 427.458V416.005H172.851L178.867 424.997V416.005H180.32V427.458H178.765L172.75 418.458V427.458H171.297ZM182.614 421.88C182.614 419.979 183.124 418.492 184.145 417.419C185.166 416.341 186.484 415.802 188.098 415.802C189.155 415.802 190.109 416.054 190.958 416.56C191.806 417.065 192.452 417.771 192.895 418.677C193.343 419.578 193.567 420.601 193.567 421.747C193.567 422.909 193.333 423.948 192.864 424.864C192.395 425.781 191.731 426.476 190.872 426.95C190.012 427.419 189.085 427.653 188.09 427.653C187.012 427.653 186.049 427.393 185.2 426.872C184.351 426.351 183.708 425.64 183.27 424.739C182.833 423.838 182.614 422.885 182.614 421.88ZM184.176 421.903C184.176 423.284 184.546 424.372 185.286 425.169C186.03 425.961 186.963 426.356 188.083 426.356C189.223 426.356 190.161 425.955 190.895 425.153C191.635 424.351 192.004 423.213 192.004 421.739C192.004 420.807 191.846 419.994 191.528 419.302C191.215 418.604 190.754 418.065 190.145 417.685C189.541 417.299 188.861 417.106 188.106 417.106C187.033 417.106 186.109 417.476 185.333 418.216C184.562 418.95 184.176 420.179 184.176 421.903ZM195.728 427.458V416.005H199.673C200.564 416.005 201.243 416.06 201.712 416.169C202.368 416.32 202.928 416.593 203.392 416.989C203.996 417.5 204.447 418.153 204.743 418.95C205.046 419.742 205.197 420.648 205.197 421.669C205.197 422.539 205.095 423.31 204.892 423.981C204.689 424.653 204.428 425.211 204.111 425.653C203.793 426.091 203.444 426.437 203.064 426.692C202.689 426.942 202.233 427.132 201.697 427.263C201.165 427.393 200.553 427.458 199.861 427.458H195.728ZM197.243 426.106H199.689C200.444 426.106 201.035 426.036 201.462 425.896C201.894 425.755 202.238 425.557 202.493 425.302C202.853 424.942 203.131 424.461 203.329 423.856C203.533 423.247 203.634 422.51 203.634 421.646C203.634 420.448 203.436 419.528 203.04 418.888C202.65 418.242 202.173 417.81 201.611 417.591C201.204 417.435 200.551 417.356 199.65 417.356H197.243V426.106ZM207.522 427.458V416.005H215.803V417.356H209.037V420.864H215.373V422.208H209.037V426.106H216.068V427.458H207.522Z" fill="#2D2D2D"/>
<path d="M137.453 346.166V285.719C137.453 285.719 149.112 295.856 183.385 295.856C217.658 295.856 229.245 284.778 229.245 284.778V346.166C214.947 367.172 143.961 360.894 137.453 346.166Z" fill="#E0454C"/>
<path d="M136.453 388.857V326.224C136.453 326.224 148.31 338.339 182.583 338.339C216.856 338.339 228.245 326.224 228.245 326.224L229.214 388.857C214.639 407.143 145.323 403.715 136.453 388.857Z" fill="#0070CC"/>
<path d="M229.323 281.902C229.323 283.516 228.298 285.23 226.023 286.942C223.764 288.642 220.428 290.216 216.201 291.556C207.759 294.231 195.991 295.902 182.823 295.902C169.654 295.902 157.886 294.231 149.444 291.556C145.217 290.216 141.881 288.642 139.622 286.942C137.347 285.23 136.323 283.516 136.323 281.902C136.323 280.288 137.347 278.575 139.622 276.863C141.881 275.163 145.217 273.589 149.444 272.249C157.886 269.573 169.654 267.902 182.823 267.902C195.991 267.902 207.759 269.573 216.201 272.249C220.428 273.589 223.764 275.163 226.023 276.863C228.298 278.575 229.323 280.288 229.323 281.902Z" fill="#E0454C" stroke="#2D2D2D" stroke-width="2"/>
<path d="M136.323 280.902L136.673 388.166" stroke="#2D2D2D" stroke-width="2"/>
<path d="M229.323 280.902L229.323 388.902" stroke="#2D2D2D" stroke-width="2"/>
<path d="M229.411 387.345C229.411 395.301 208.651 401.751 183.042 401.751C157.433 401.751 136.673 395.301 136.673 387.345" stroke="#2D2D2D" stroke-width="2"/>
<path d="M229.411 323.345C229.411 331.301 208.651 337.751 183.042 337.751C157.433 337.751 136.673 331.301 136.673 323.345" stroke="#2D2D2D" stroke-width="2"/>
<path d="M148.51 320.902V309.449H150.791L153.502 317.559C153.752 318.314 153.934 318.879 154.049 319.254C154.179 318.837 154.382 318.225 154.658 317.418L157.401 309.449H159.44V320.902H157.979V311.316L154.651 320.902H153.283L149.971 311.152V320.902H148.51ZM162.116 320.902V309.449H170.398V310.801H163.632V314.309H169.968V315.652H163.632V319.551H170.663V320.902H162.116ZM172.91 320.902V309.449H175.191L177.902 317.559C178.152 318.314 178.334 318.879 178.449 319.254C178.579 318.837 178.782 318.225 179.058 317.418L181.801 309.449H183.84V320.902H182.379V311.316L179.051 320.902H177.683L174.371 311.152V320.902H172.91ZM186.024 315.324C186.024 313.423 186.534 311.936 187.555 310.863C188.576 309.785 189.894 309.246 191.508 309.246C192.566 309.246 193.519 309.499 194.368 310.004C195.217 310.509 195.863 311.215 196.305 312.121C196.753 313.022 196.977 314.046 196.977 315.191C196.977 316.353 196.743 317.392 196.274 318.309C195.805 319.225 195.141 319.921 194.282 320.395C193.423 320.863 192.495 321.098 191.501 321.098C190.423 321.098 189.459 320.837 188.61 320.316C187.761 319.796 187.118 319.085 186.68 318.184C186.243 317.283 186.024 316.329 186.024 315.324ZM187.587 315.348C187.587 316.728 187.956 317.816 188.696 318.613C189.441 319.405 190.373 319.801 191.493 319.801C192.633 319.801 193.571 319.4 194.305 318.598C195.045 317.796 195.415 316.658 195.415 315.184C195.415 314.251 195.256 313.439 194.938 312.746C194.626 312.048 194.165 311.509 193.555 311.129C192.951 310.743 192.271 310.551 191.516 310.551C190.443 310.551 189.519 310.921 188.743 311.66C187.972 312.395 187.587 313.624 187.587 315.348ZM199.162 320.902V309.449H204.24C205.261 309.449 206.037 309.553 206.568 309.762C207.099 309.965 207.524 310.327 207.841 310.848C208.159 311.368 208.318 311.944 208.318 312.574C208.318 313.387 208.055 314.072 207.529 314.629C207.003 315.186 206.19 315.54 205.091 315.691C205.492 315.884 205.797 316.074 206.005 316.262C206.448 316.668 206.867 317.176 207.263 317.785L209.255 320.902H207.349L205.833 318.52C205.391 317.832 205.026 317.306 204.74 316.941C204.453 316.577 204.195 316.322 203.966 316.176C203.742 316.03 203.513 315.928 203.279 315.871C203.107 315.835 202.826 315.816 202.435 315.816H200.677V320.902H199.162ZM200.677 314.504H203.935C204.628 314.504 205.169 314.434 205.56 314.293C205.951 314.147 206.248 313.918 206.451 313.605C206.654 313.288 206.755 312.944 206.755 312.574C206.755 312.033 206.557 311.587 206.162 311.238C205.771 310.889 205.151 310.715 204.302 310.715H200.677V314.504ZM213.83 320.902V316.051L209.416 309.449H211.26L213.518 312.902C213.934 313.548 214.323 314.194 214.682 314.84C215.026 314.241 215.442 313.566 215.932 312.816L218.151 309.449H219.916L215.346 316.051V320.902H213.83Z" fill="white"/>
<path d="M164.557 383.902V372.449H168.502C169.393 372.449 170.073 372.504 170.541 372.613C171.198 372.764 171.757 373.038 172.221 373.434C172.825 373.944 173.276 374.598 173.573 375.395C173.875 376.186 174.026 377.092 174.026 378.113C174.026 378.983 173.924 379.754 173.721 380.426C173.518 381.098 173.257 381.655 172.94 382.098C172.622 382.535 172.273 382.882 171.893 383.137C171.518 383.387 171.062 383.577 170.526 383.707C169.994 383.837 169.382 383.902 168.69 383.902H164.557ZM166.073 382.551H168.518C169.273 382.551 169.864 382.48 170.291 382.34C170.724 382.199 171.067 382.001 171.323 381.746C171.682 381.387 171.961 380.905 172.158 380.301C172.362 379.691 172.463 378.954 172.463 378.09C172.463 376.892 172.265 375.973 171.869 375.332C171.479 374.686 171.002 374.254 170.44 374.035C170.033 373.879 169.38 373.801 168.479 373.801H166.073V382.551ZM176.577 383.902V372.449H178.093V383.902H176.577ZM180.457 380.223L181.887 380.098C181.954 380.671 182.111 381.142 182.355 381.512C182.605 381.876 182.991 382.173 183.512 382.402C184.032 382.626 184.618 382.738 185.269 382.738C185.848 382.738 186.358 382.652 186.801 382.48C187.243 382.309 187.571 382.074 187.785 381.777C188.004 381.475 188.113 381.147 188.113 380.793C188.113 380.434 188.009 380.121 187.801 379.855C187.592 379.585 187.249 379.358 186.769 379.176C186.462 379.056 185.782 378.871 184.73 378.621C183.678 378.366 182.941 378.126 182.519 377.902C181.973 377.616 181.564 377.262 181.293 376.84C181.027 376.413 180.894 375.936 180.894 375.41C180.894 374.832 181.058 374.293 181.387 373.793C181.715 373.288 182.194 372.905 182.824 372.645C183.454 372.384 184.155 372.254 184.926 372.254C185.775 372.254 186.522 372.392 187.168 372.668C187.819 372.939 188.319 373.34 188.668 373.871C189.017 374.402 189.204 375.004 189.23 375.676L187.777 375.785C187.699 375.061 187.433 374.514 186.98 374.145C186.532 373.775 185.868 373.59 184.988 373.59C184.071 373.59 183.402 373.759 182.98 374.098C182.564 374.431 182.355 374.835 182.355 375.309C182.355 375.72 182.504 376.059 182.801 376.324C183.092 376.59 183.853 376.863 185.082 377.145C186.316 377.421 187.163 377.663 187.621 377.871C188.288 378.178 188.78 378.569 189.098 379.043C189.415 379.512 189.574 380.053 189.574 380.668C189.574 381.277 189.4 381.853 189.051 382.395C188.702 382.931 188.199 383.35 187.543 383.652C186.892 383.949 186.157 384.098 185.34 384.098C184.303 384.098 183.433 383.947 182.73 383.645C182.032 383.342 181.483 382.889 181.082 382.285C180.686 381.676 180.478 380.988 180.457 380.223ZM191.782 383.902V372.449H193.298V378.129L198.985 372.449H201.04L196.235 377.09L201.251 383.902H199.251L195.173 378.105L193.298 379.934V383.902H191.782Z" fill="white"/>
<circle cx="55.3765" cy="272.504" r="6.41162" fill="#2D2D2D"/>
<circle cx="308.885" cy="337.75" r="6.41162" fill="#2D2D2D"/>
</svg>
