<svg width="362" height="410" viewBox="0 0 362 410" fill="none" xmlns="http://www.w3.org/2000/svg">
<circle cx="181" cy="224" r="134" fill="white"/>
<path d="M162.786 191.971C162.786 191.971 115.197 220.992 160.047 249.807C168.675 255.42 199.967 271.025 199.077 285.467C199.077 285.467 218.044 257.405 190.312 239.746C161.827 221.676 154.706 202.375 162.786 191.971Z" fill="#ED1C24"/>
<path d="M146.216 247.412C146.216 247.412 129.235 273.147 162.649 278.417C165.936 278.828 190.107 281.36 196.406 289.3C196.406 289.3 195.859 275.611 176.138 267.535C156.487 259.458 148.407 257.473 146.216 247.412Z" fill="#ED1C24"/>
<path d="M211.95 220.376C191.545 199.021 185.862 185.811 194.627 168.7C194.627 168.7 133.754 192.108 193.873 233.654C215.374 248.507 211.813 263.702 211.813 264.249C215.168 260.758 232.355 241.731 211.95 220.376Z" fill="#ED1C24"/>
<path d="M2.13025 353.263V292.817C2.13025 292.817 13.7894 302.954 48.0625 302.954C82.3356 302.954 93.9226 291.875 93.9226 291.875V353.263C79.6241 374.269 8.63828 367.992 2.13025 353.263Z" fill="#E0454C"/>
<path d="M1.13025 395.954V333.322C1.13025 333.322 12.9872 345.437 47.2603 345.437C81.5334 345.437 92.9226 333.322 92.9226 333.322L93.8916 395.954C79.3167 414.241 10.001 410.812 1.13025 395.954Z" fill="#0070CC"/>
<path d="M94 289C94 290.614 92.9756 292.327 90.7007 294.04C88.4419 295.74 85.105 297.314 80.8783 298.653C72.4362 301.329 60.6682 303 47.5 303C34.3318 303 22.5638 301.329 14.1217 298.653C9.89495 297.314 6.55809 295.74 4.29934 294.04C2.02437 292.327 1 290.614 1 289C1 287.386 2.02437 285.673 4.29934 283.96C6.55809 282.26 9.89495 280.686 14.1217 279.347C22.5638 276.671 34.3318 275 47.5 275C60.6682 275 72.4362 276.671 80.8783 279.347C85.105 280.686 88.4419 282.26 90.7007 283.96C92.9756 285.673 94 287.386 94 289Z" fill="#E0454C" stroke="#2D2D2D" stroke-width="2"/>
<path d="M1 288L1.35056 395.263" stroke="#2D2D2D" stroke-width="2"/>
<path d="M94 288L94 396" stroke="#2D2D2D" stroke-width="2"/>
<path d="M94.0886 394.443C94.0886 402.399 73.3285 408.849 47.7196 408.849C22.1107 408.849 1.35056 402.399 1.35056 394.443" stroke="#2D2D2D" stroke-width="2"/>
<path d="M94.0886 330.443C94.0886 338.399 73.3285 344.849 47.7196 344.849C22.1107 344.849 1.35059 338.399 1.35059 330.443" stroke="#2D2D2D" stroke-width="2"/>
<path d="M13.1875 328V316.547H15.4688L18.1797 324.656C18.4297 325.411 18.612 325.977 18.7266 326.352C18.8568 325.935 19.0599 325.323 19.3359 324.516L22.0781 316.547H24.1172V328H22.6562V318.414L19.3281 328H17.9609L14.6484 318.25V328H13.1875ZM26.7937 328V316.547H35.075V317.898H28.3094V321.406H34.6453V322.75H28.3094V326.648H35.3406V328H26.7937ZM37.5875 328V316.547H39.8687L42.5797 324.656C42.8297 325.411 43.012 325.977 43.1266 326.352C43.2568 325.935 43.4599 325.323 43.7359 324.516L46.4781 316.547H48.5172V328H47.0562V318.414L43.7281 328H42.3609L39.0484 318.25V328H37.5875ZM50.7016 322.422C50.7016 320.521 51.212 319.034 52.2328 317.961C53.2536 316.883 54.5714 316.344 56.1859 316.344C57.2432 316.344 58.1964 316.596 59.0453 317.102C59.8943 317.607 60.5401 318.312 60.9828 319.219C61.4307 320.12 61.6547 321.143 61.6547 322.289C61.6547 323.451 61.4203 324.49 60.9516 325.406C60.4828 326.323 59.8187 327.018 58.9594 327.492C58.1 327.961 57.1729 328.195 56.1781 328.195C55.1 328.195 54.1365 327.935 53.2875 327.414C52.4385 326.893 51.7953 326.182 51.3578 325.281C50.9203 324.38 50.7016 323.427 50.7016 322.422ZM52.2641 322.445C52.2641 323.826 52.6339 324.914 53.3734 325.711C54.1182 326.503 55.0505 326.898 56.1703 326.898C57.3109 326.898 58.2484 326.497 58.9828 325.695C59.7224 324.893 60.0922 323.755 60.0922 322.281C60.0922 321.349 59.9333 320.536 59.6156 319.844C59.3031 319.146 58.8422 318.607 58.2328 318.227C57.6286 317.841 56.949 317.648 56.1937 317.648C55.1208 317.648 54.1964 318.018 53.4203 318.758C52.6495 319.492 52.2641 320.721 52.2641 322.445ZM63.8391 328V316.547H68.9172C69.938 316.547 70.7141 316.651 71.2453 316.859C71.7766 317.062 72.201 317.424 72.5187 317.945C72.8365 318.466 72.9953 319.042 72.9953 319.672C72.9953 320.484 72.7323 321.169 72.2062 321.727C71.6802 322.284 70.8677 322.638 69.7687 322.789C70.1698 322.982 70.4745 323.172 70.6828 323.359C71.1255 323.766 71.5448 324.273 71.9406 324.883L73.9328 328H72.0266L70.5109 325.617C70.0682 324.93 69.7036 324.404 69.4172 324.039C69.1307 323.674 68.8729 323.419 68.6437 323.273C68.4198 323.128 68.1906 323.026 67.9562 322.969C67.7844 322.932 67.5031 322.914 67.1125 322.914H65.3547V328H63.8391ZM65.3547 321.602H68.6125C69.3052 321.602 69.8469 321.531 70.2375 321.391C70.6281 321.245 70.925 321.016 71.1281 320.703C71.3312 320.385 71.4328 320.042 71.4328 319.672C71.4328 319.13 71.2349 318.685 70.8391 318.336C70.4484 317.987 69.8286 317.812 68.9797 317.812H65.3547V321.602ZM78.5078 328V323.148L74.0938 316.547H75.9375L78.1953 320C78.612 320.646 79 321.292 79.3594 321.938C79.7031 321.339 80.1198 320.664 80.6094 319.914L82.8281 316.547H84.5938L80.0234 323.148V328H78.5078Z" fill="white"/>
<path d="M29.2344 391V379.547H33.1797C34.0703 379.547 34.75 379.602 35.2188 379.711C35.875 379.862 36.4349 380.135 36.8984 380.531C37.5026 381.042 37.9531 381.695 38.25 382.492C38.5521 383.284 38.7031 384.19 38.7031 385.211C38.7031 386.081 38.6016 386.852 38.3984 387.523C38.1953 388.195 37.9349 388.753 37.6172 389.195C37.2995 389.633 36.9505 389.979 36.5703 390.234C36.1953 390.484 35.7396 390.674 35.2031 390.805C34.6719 390.935 34.0599 391 33.3672 391H29.2344ZM30.75 389.648H33.1953C33.9505 389.648 34.5417 389.578 34.9688 389.438C35.401 389.297 35.7448 389.099 36 388.844C36.3594 388.484 36.638 388.003 36.8359 387.398C37.0391 386.789 37.1406 386.052 37.1406 385.188C37.1406 383.99 36.9427 383.07 36.5469 382.43C36.1562 381.784 35.6797 381.352 35.1172 381.133C34.7109 380.977 34.0573 380.898 33.1562 380.898H30.75V389.648ZM41.2547 391V379.547H42.7703V391H41.2547ZM45.1344 387.32L46.5641 387.195C46.6318 387.768 46.788 388.24 47.0328 388.609C47.2828 388.974 47.6682 389.271 48.1891 389.5C48.7099 389.724 49.2958 389.836 49.9469 389.836C50.525 389.836 51.0354 389.75 51.4781 389.578C51.9208 389.406 52.249 389.172 52.4625 388.875C52.6812 388.573 52.7906 388.245 52.7906 387.891C52.7906 387.531 52.6865 387.219 52.4781 386.953C52.2698 386.682 51.926 386.456 51.4469 386.273C51.1396 386.154 50.4599 385.969 49.4078 385.719C48.3557 385.464 47.6187 385.224 47.1969 385C46.65 384.714 46.2411 384.359 45.9703 383.938C45.7047 383.51 45.5719 383.034 45.5719 382.508C45.5719 381.93 45.7359 381.391 46.0641 380.891C46.3922 380.385 46.8714 380.003 47.5016 379.742C48.1318 379.482 48.8323 379.352 49.6031 379.352C50.4521 379.352 51.1995 379.49 51.8453 379.766C52.4964 380.036 52.9964 380.438 53.3453 380.969C53.6943 381.5 53.8818 382.102 53.9078 382.773L52.4547 382.883C52.3766 382.159 52.1109 381.612 51.6578 381.242C51.2099 380.872 50.5458 380.688 49.6656 380.688C48.749 380.688 48.0797 380.857 47.6578 381.195C47.2411 381.529 47.0328 381.932 47.0328 382.406C47.0328 382.818 47.1812 383.156 47.4781 383.422C47.7698 383.688 48.5302 383.961 49.7594 384.242C50.9937 384.518 51.8401 384.76 52.2984 384.969C52.9651 385.276 53.4573 385.667 53.775 386.141C54.0927 386.609 54.2516 387.151 54.2516 387.766C54.2516 388.375 54.0771 388.951 53.7281 389.492C53.3792 390.029 52.8766 390.448 52.2203 390.75C51.5693 391.047 50.8349 391.195 50.0172 391.195C48.9807 391.195 48.1109 391.044 47.4078 390.742C46.7099 390.44 46.1604 389.987 45.7594 389.383C45.3635 388.773 45.1552 388.086 45.1344 387.32ZM56.4594 391V379.547H57.975V385.227L63.6625 379.547H65.7172L60.9125 384.188L65.9281 391H63.9281L59.85 385.203L57.975 387.031V391H56.4594Z" fill="white"/>
<path d="M268.13 353.263V292.817C268.13 292.817 279.789 302.954 314.062 302.954C348.336 302.954 359.923 291.875 359.923 291.875V353.263C345.624 374.269 274.638 367.992 268.13 353.263Z" fill="#E0454C"/>
<path d="M267.13 395.954V333.322C267.13 333.322 278.987 345.437 313.26 345.437C347.533 345.437 358.923 333.322 358.923 333.322L359.892 395.954C345.317 414.241 276.001 410.812 267.13 395.954Z" fill="#0070CC"/>
<path d="M360 289C360 290.614 358.976 292.327 356.701 294.04C354.442 295.74 351.105 297.314 346.878 298.653C338.436 301.329 326.668 303 313.5 303C300.332 303 288.564 301.329 280.122 298.653C275.895 297.314 272.558 295.74 270.299 294.04C268.024 292.327 267 290.614 267 289C267 287.386 268.024 285.673 270.299 283.96C272.558 282.26 275.895 280.686 280.122 279.347C288.564 276.671 300.332 275 313.5 275C326.668 275 338.436 276.671 346.878 279.347C351.105 280.686 354.442 282.26 356.701 283.96C358.976 285.673 360 287.386 360 289Z" fill="#E0454C" stroke="#2D2D2D" stroke-width="2"/>
<path d="M267 288L267.351 395.263" stroke="#2D2D2D" stroke-width="2"/>
<path d="M360 288L360 396" stroke="#2D2D2D" stroke-width="2"/>
<path d="M360.089 394.443C360.089 402.399 339.328 408.849 313.72 408.849C288.111 408.849 267.351 402.399 267.351 394.443" stroke="#2D2D2D" stroke-width="2"/>
<path d="M360.089 330.443C360.089 338.399 339.328 344.849 313.72 344.849C288.111 344.849 267.351 338.399 267.351 330.443" stroke="#2D2D2D" stroke-width="2"/>
<path d="M279.188 328V316.547H281.469L284.18 324.656C284.43 325.411 284.612 325.977 284.727 326.352C284.857 325.935 285.06 325.323 285.336 324.516L288.078 316.547H290.117V328H288.656V318.414L285.328 328H283.961L280.648 318.25V328H279.188ZM292.794 328V316.547H301.075V317.898H294.309V321.406H300.645V322.75H294.309V326.648H301.341V328H292.794ZM303.587 328V316.547H305.869L308.58 324.656C308.83 325.411 309.012 325.977 309.127 326.352C309.257 325.935 309.46 325.323 309.736 324.516L312.478 316.547H314.517V328H313.056V318.414L309.728 328H308.361L305.048 318.25V328H303.587ZM316.702 322.422C316.702 320.521 317.212 319.034 318.233 317.961C319.254 316.883 320.571 316.344 322.186 316.344C323.243 316.344 324.196 316.596 325.045 317.102C325.894 317.607 326.54 318.312 326.983 319.219C327.431 320.12 327.655 321.143 327.655 322.289C327.655 323.451 327.42 324.49 326.952 325.406C326.483 326.323 325.819 327.018 324.959 327.492C324.1 327.961 323.173 328.195 322.178 328.195C321.1 328.195 320.136 327.935 319.287 327.414C318.439 326.893 317.795 326.182 317.358 325.281C316.92 324.38 316.702 323.427 316.702 322.422ZM318.264 322.445C318.264 323.826 318.634 324.914 319.373 325.711C320.118 326.503 321.051 326.898 322.17 326.898C323.311 326.898 324.248 326.497 324.983 325.695C325.722 324.893 326.092 323.755 326.092 322.281C326.092 321.349 325.933 320.536 325.616 319.844C325.303 319.146 324.842 318.607 324.233 318.227C323.629 317.841 322.949 317.648 322.194 317.648C321.121 317.648 320.196 318.018 319.42 318.758C318.649 319.492 318.264 320.721 318.264 322.445ZM329.839 328V316.547H334.917C335.938 316.547 336.714 316.651 337.245 316.859C337.777 317.062 338.201 317.424 338.519 317.945C338.836 318.466 338.995 319.042 338.995 319.672C338.995 320.484 338.732 321.169 338.206 321.727C337.68 322.284 336.868 322.638 335.769 322.789C336.17 322.982 336.474 323.172 336.683 323.359C337.126 323.766 337.545 324.273 337.941 324.883L339.933 328H338.027L336.511 325.617C336.068 324.93 335.704 324.404 335.417 324.039C335.131 323.674 334.873 323.419 334.644 323.273C334.42 323.128 334.191 323.026 333.956 322.969C333.784 322.932 333.503 322.914 333.112 322.914H331.355V328H329.839ZM331.355 321.602H334.612C335.305 321.602 335.847 321.531 336.237 321.391C336.628 321.245 336.925 321.016 337.128 320.703C337.331 320.385 337.433 320.042 337.433 319.672C337.433 319.13 337.235 318.685 336.839 318.336C336.448 317.987 335.829 317.812 334.98 317.812H331.355V321.602ZM344.508 328V323.148L340.094 316.547H341.938L344.195 320C344.612 320.646 345 321.292 345.359 321.938C345.703 321.339 346.12 320.664 346.609 319.914L348.828 316.547H350.594L346.023 323.148V328H344.508Z" fill="white"/>
<path d="M295.234 391V379.547H299.18C300.07 379.547 300.75 379.602 301.219 379.711C301.875 379.862 302.435 380.135 302.898 380.531C303.503 381.042 303.953 381.695 304.25 382.492C304.552 383.284 304.703 384.19 304.703 385.211C304.703 386.081 304.602 386.852 304.398 387.523C304.195 388.195 303.935 388.753 303.617 389.195C303.299 389.633 302.951 389.979 302.57 390.234C302.195 390.484 301.74 390.674 301.203 390.805C300.672 390.935 300.06 391 299.367 391H295.234ZM296.75 389.648H299.195C299.951 389.648 300.542 389.578 300.969 389.438C301.401 389.297 301.745 389.099 302 388.844C302.359 388.484 302.638 388.003 302.836 387.398C303.039 386.789 303.141 386.052 303.141 385.188C303.141 383.99 302.943 383.07 302.547 382.43C302.156 381.784 301.68 381.352 301.117 381.133C300.711 380.977 300.057 380.898 299.156 380.898H296.75V389.648ZM307.255 391V379.547H308.77V391H307.255ZM311.134 387.32L312.564 387.195C312.632 387.768 312.788 388.24 313.033 388.609C313.283 388.974 313.668 389.271 314.189 389.5C314.71 389.724 315.296 389.836 315.947 389.836C316.525 389.836 317.035 389.75 317.478 389.578C317.921 389.406 318.249 389.172 318.462 388.875C318.681 388.573 318.791 388.245 318.791 387.891C318.791 387.531 318.686 387.219 318.478 386.953C318.27 386.682 317.926 386.456 317.447 386.273C317.14 386.154 316.46 385.969 315.408 385.719C314.356 385.464 313.619 385.224 313.197 385C312.65 384.714 312.241 384.359 311.97 383.938C311.705 383.51 311.572 383.034 311.572 382.508C311.572 381.93 311.736 381.391 312.064 380.891C312.392 380.385 312.871 380.003 313.502 379.742C314.132 379.482 314.832 379.352 315.603 379.352C316.452 379.352 317.199 379.49 317.845 379.766C318.496 380.036 318.996 380.438 319.345 380.969C319.694 381.5 319.882 382.102 319.908 382.773L318.455 382.883C318.377 382.159 318.111 381.612 317.658 381.242C317.21 380.872 316.546 380.688 315.666 380.688C314.749 380.688 314.08 380.857 313.658 381.195C313.241 381.529 313.033 381.932 313.033 382.406C313.033 382.818 313.181 383.156 313.478 383.422C313.77 383.688 314.53 383.961 315.759 384.242C316.994 384.518 317.84 384.76 318.298 384.969C318.965 385.276 319.457 385.667 319.775 386.141C320.093 386.609 320.252 387.151 320.252 387.766C320.252 388.375 320.077 388.951 319.728 389.492C319.379 390.029 318.877 390.448 318.22 390.75C317.569 391.047 316.835 391.195 316.017 391.195C314.981 391.195 314.111 391.044 313.408 390.742C312.71 390.44 312.16 389.987 311.759 389.383C311.364 388.773 311.155 388.086 311.134 387.32ZM322.459 391V379.547H323.975V385.227L329.663 379.547H331.717L326.913 384.188L331.928 391H329.928L325.85 385.203L323.975 387.031V391H322.459Z" fill="white"/>
<path d="M135.13 79.2634V18.8166C135.13 18.8166 146.789 28.9537 181.062 28.9537C215.336 28.9537 226.923 17.8754 226.923 17.8754V79.2634C212.624 100.269 141.638 93.9918 135.13 79.2634Z" fill="#E0454C"/>
<path d="M134.13 121.954V59.3221C134.13 59.3221 145.987 71.4371 180.26 71.4371C214.533 71.4371 225.923 59.3221 225.923 59.3221L226.892 121.954C212.317 140.241 143.001 136.812 134.13 121.954Z" fill="#0070CC"/>
<path d="M227 15C227 16.6141 225.976 18.3274 223.701 20.0397C221.442 21.7398 218.105 23.3137 213.878 24.6533C205.436 27.3289 193.668 29 180.5 29C167.332 29 155.564 27.3289 147.122 24.6533C142.895 23.3137 139.558 21.7398 137.299 20.0397C135.024 18.3274 134 16.6141 134 15C134 13.3859 135.024 11.6726 137.299 9.9603C139.558 8.26022 142.895 6.68627 147.122 5.34667C155.564 2.67113 167.332 1 180.5 1C193.668 1 205.436 2.67113 213.878 5.34667C218.105 6.68627 221.442 8.26022 223.701 9.9603C225.976 11.6726 227 13.3859 227 15Z" fill="#E0454C" stroke="#2D2D2D" stroke-width="2"/>
<path d="M134 14L134.351 121.263" stroke="#2D2D2D" stroke-width="2"/>
<path d="M227 14L227 122" stroke="#2D2D2D" stroke-width="2"/>
<path d="M227.089 120.443C227.089 128.399 206.328 134.849 180.72 134.849C155.111 134.849 134.351 128.399 134.351 120.443" stroke="#2D2D2D" stroke-width="2"/>
<path d="M227.089 56.4428C227.089 64.399 206.328 70.8487 180.72 70.8487C155.111 70.8487 134.351 64.399 134.351 56.4428" stroke="#2D2D2D" stroke-width="2"/>
<path d="M146.188 54V42.5469H148.469L151.18 50.6562C151.43 51.4115 151.612 51.9766 151.727 52.3516C151.857 51.9349 152.06 51.3229 152.336 50.5156L155.078 42.5469H157.117V54H155.656V44.4141L152.328 54H150.961L147.648 44.25V54H146.188ZM159.794 54V42.5469H168.075V43.8984H161.309V47.4062H167.645V48.75H161.309V52.6484H168.341V54H159.794ZM170.587 54V42.5469H172.869L175.58 50.6562C175.83 51.4115 176.012 51.9766 176.127 52.3516C176.257 51.9349 176.46 51.3229 176.736 50.5156L179.478 42.5469H181.517V54H180.056V44.4141L176.728 54H175.361L172.048 44.25V54H170.587ZM183.702 48.4219C183.702 46.5208 184.212 45.0339 185.233 43.9609C186.254 42.8828 187.571 42.3438 189.186 42.3438C190.243 42.3438 191.196 42.5964 192.045 43.1016C192.894 43.6068 193.54 44.3125 193.983 45.2188C194.431 46.1198 194.655 47.1432 194.655 48.2891C194.655 49.4505 194.42 50.4896 193.952 51.4062C193.483 52.3229 192.819 53.0182 191.959 53.4922C191.1 53.9609 190.173 54.1953 189.178 54.1953C188.1 54.1953 187.136 53.9349 186.287 53.4141C185.439 52.8932 184.795 52.1823 184.358 51.2812C183.92 50.3802 183.702 49.4271 183.702 48.4219ZM185.264 48.4453C185.264 49.8255 185.634 50.9141 186.373 51.7109C187.118 52.5026 188.051 52.8984 189.17 52.8984C190.311 52.8984 191.248 52.4974 191.983 51.6953C192.722 50.8932 193.092 49.7552 193.092 48.2812C193.092 47.349 192.933 46.5365 192.616 45.8438C192.303 45.1458 191.842 44.6068 191.233 44.2266C190.629 43.8411 189.949 43.6484 189.194 43.6484C188.121 43.6484 187.196 44.0182 186.42 44.7578C185.649 45.4922 185.264 46.7214 185.264 48.4453ZM196.839 54V42.5469H201.917C202.938 42.5469 203.714 42.651 204.245 42.8594C204.777 43.0625 205.201 43.4245 205.519 43.9453C205.836 44.4661 205.995 45.0417 205.995 45.6719C205.995 46.4844 205.732 47.1693 205.206 47.7266C204.68 48.2839 203.868 48.638 202.769 48.7891C203.17 48.9818 203.474 49.1719 203.683 49.3594C204.126 49.7656 204.545 50.2734 204.941 50.8828L206.933 54H205.027L203.511 51.6172C203.068 50.9297 202.704 50.4036 202.417 50.0391C202.131 49.6745 201.873 49.4193 201.644 49.2734C201.42 49.1276 201.191 49.026 200.956 48.9688C200.784 48.9323 200.503 48.9141 200.112 48.9141H198.355V54H196.839ZM198.355 47.6016H201.612C202.305 47.6016 202.847 47.5312 203.237 47.3906C203.628 47.2448 203.925 47.0156 204.128 46.7031C204.331 46.3854 204.433 46.0417 204.433 45.6719C204.433 45.1302 204.235 44.6849 203.839 44.3359C203.448 43.987 202.829 43.8125 201.98 43.8125H198.355V47.6016ZM211.508 54V49.1484L207.094 42.5469H208.938L211.195 46C211.612 46.6458 212 47.2917 212.359 47.9375C212.703 47.3385 213.12 46.6641 213.609 45.9141L215.828 42.5469H217.594L213.023 49.1484V54H211.508Z" fill="white"/>
<path d="M162.234 117V105.547H166.18C167.07 105.547 167.75 105.602 168.219 105.711C168.875 105.862 169.435 106.135 169.898 106.531C170.503 107.042 170.953 107.695 171.25 108.492C171.552 109.284 171.703 110.19 171.703 111.211C171.703 112.081 171.602 112.852 171.398 113.523C171.195 114.195 170.935 114.753 170.617 115.195C170.299 115.633 169.951 115.979 169.57 116.234C169.195 116.484 168.74 116.674 168.203 116.805C167.672 116.935 167.06 117 166.367 117H162.234ZM163.75 115.648H166.195C166.951 115.648 167.542 115.578 167.969 115.438C168.401 115.297 168.745 115.099 169 114.844C169.359 114.484 169.638 114.003 169.836 113.398C170.039 112.789 170.141 112.052 170.141 111.188C170.141 109.99 169.943 109.07 169.547 108.43C169.156 107.784 168.68 107.352 168.117 107.133C167.711 106.977 167.057 106.898 166.156 106.898H163.75V115.648ZM174.255 117V105.547H175.77V117H174.255ZM178.134 113.32L179.564 113.195C179.632 113.768 179.788 114.24 180.033 114.609C180.283 114.974 180.668 115.271 181.189 115.5C181.71 115.724 182.296 115.836 182.947 115.836C183.525 115.836 184.035 115.75 184.478 115.578C184.921 115.406 185.249 115.172 185.462 114.875C185.681 114.573 185.791 114.245 185.791 113.891C185.791 113.531 185.686 113.219 185.478 112.953C185.27 112.682 184.926 112.456 184.447 112.273C184.14 112.154 183.46 111.969 182.408 111.719C181.356 111.464 180.619 111.224 180.197 111C179.65 110.714 179.241 110.359 178.97 109.938C178.705 109.51 178.572 109.034 178.572 108.508C178.572 107.93 178.736 107.391 179.064 106.891C179.392 106.385 179.871 106.003 180.502 105.742C181.132 105.482 181.832 105.352 182.603 105.352C183.452 105.352 184.199 105.49 184.845 105.766C185.496 106.036 185.996 106.438 186.345 106.969C186.694 107.5 186.882 108.102 186.908 108.773L185.455 108.883C185.377 108.159 185.111 107.612 184.658 107.242C184.21 106.872 183.546 106.688 182.666 106.688C181.749 106.688 181.08 106.857 180.658 107.195C180.241 107.529 180.033 107.932 180.033 108.406C180.033 108.818 180.181 109.156 180.478 109.422C180.77 109.688 181.53 109.961 182.759 110.242C183.994 110.518 184.84 110.76 185.298 110.969C185.965 111.276 186.457 111.667 186.775 112.141C187.093 112.609 187.252 113.151 187.252 113.766C187.252 114.375 187.077 114.951 186.728 115.492C186.379 116.029 185.877 116.448 185.22 116.75C184.569 117.047 183.835 117.195 183.017 117.195C181.981 117.195 181.111 117.044 180.408 116.742C179.71 116.44 179.16 115.987 178.759 115.383C178.364 114.773 178.155 114.086 178.134 113.32ZM189.459 117V105.547H190.975V111.227L196.663 105.547H198.717L193.913 110.188L198.928 117H196.928L192.85 111.203L190.975 113.031V117H189.459Z" fill="white"/>
</svg>
