<svg width="593" height="523" viewBox="0 0 593 523" fill="none" xmlns="http://www.w3.org/2000/svg">
<path d="M390.25 99.0062H233.581V146.833H233.619C233.135 158.758 240.774 170.772 256.536 179.872C287.121 197.53 336.71 197.53 367.295 179.872C383.057 170.772 390.696 158.758 390.212 146.833H390.25V99.0062Z" fill="#0070CC" stroke="white"/>
<path d="M256.535 68.0987C287.12 50.4403 336.709 50.4403 367.294 68.0987C397.879 85.757 397.879 114.387 367.294 132.045C336.709 149.704 287.12 149.704 256.535 132.045C225.95 114.387 225.95 85.757 256.535 68.0987Z" fill="#0070CC" stroke="white"/>
<mask id="path-3-inside-1_19:245" fill="white">
<path fill-rule="evenodd" clip-rule="evenodd" d="M377.713 140.044C380.523 138.421 382.801 139.737 382.801 142.981C382.801 146.226 380.523 150.172 377.713 151.794C374.903 153.416 372.625 152.101 372.625 148.856C372.625 145.612 374.903 141.666 377.713 140.044ZM364.004 149.836C366.814 148.213 369.092 149.528 369.092 152.773C369.092 156.018 366.814 159.963 364.004 161.586C361.194 163.208 358.916 161.893 358.916 158.648C358.916 155.403 361.194 151.458 364.004 149.836Z"/>
</mask>
<path fill-rule="evenodd" clip-rule="evenodd" d="M377.713 140.044C380.523 138.421 382.801 139.737 382.801 142.981C382.801 146.226 380.523 150.172 377.713 151.794C374.903 153.416 372.625 152.101 372.625 148.856C372.625 145.612 374.903 141.666 377.713 140.044ZM364.004 149.836C366.814 148.213 369.092 149.528 369.092 152.773C369.092 156.018 366.814 159.963 364.004 161.586C361.194 163.208 358.916 161.893 358.916 158.648C358.916 155.403 361.194 151.458 364.004 149.836Z" fill="#0070CC"/>
<path d="M377.713 140.044L377.213 139.178V139.178L377.713 140.044ZM377.713 151.794L378.213 152.66V152.66L377.713 151.794ZM364.004 149.836L364.504 150.702L364.004 149.836ZM364.004 161.586L363.504 160.72L364.004 161.586ZM358.916 158.648H359.916H358.916ZM383.801 142.981C383.801 141.149 383.15 139.594 381.81 138.821C380.471 138.048 378.8 138.261 377.213 139.178L378.213 140.91C379.435 140.204 380.308 140.263 380.81 140.553C381.313 140.843 381.801 141.569 381.801 142.981H383.801ZM378.213 152.66C379.805 151.74 381.191 150.202 382.176 148.496C383.162 146.789 383.801 144.82 383.801 142.981H381.801C381.801 144.387 381.301 146.013 380.444 147.496C379.588 148.979 378.43 150.225 377.213 150.928L378.213 152.66ZM371.625 148.856C371.625 150.689 372.276 152.243 373.615 153.016C374.954 153.789 376.625 153.576 378.213 152.66L377.213 150.928C375.99 151.634 375.117 151.574 374.615 151.284C374.113 150.994 373.625 150.268 373.625 148.856H371.625ZM377.213 139.178C375.62 140.097 374.234 141.635 373.249 143.342C372.264 145.048 371.625 147.017 371.625 148.856H373.625C373.625 147.451 374.125 145.825 374.981 144.342C375.837 142.859 376.995 141.612 378.213 140.91L377.213 139.178ZM370.092 152.773C370.092 150.94 369.441 149.386 368.102 148.613C366.763 147.84 365.091 148.053 363.504 148.969L364.504 150.702C365.727 149.996 366.6 150.055 367.102 150.345C367.604 150.635 368.092 151.361 368.092 152.773H370.092ZM364.504 162.452C366.097 161.532 367.483 159.994 368.468 158.288C369.453 156.581 370.092 154.612 370.092 152.773H368.092C368.092 154.179 367.592 155.805 366.736 157.288C365.88 158.771 364.721 160.017 363.504 160.72L364.504 162.452ZM357.916 158.648C357.916 160.481 358.567 162.035 359.906 162.808C361.246 163.581 362.917 163.368 364.504 162.452L363.504 160.72C362.281 161.426 361.409 161.366 360.906 161.076C360.404 160.786 359.916 160.06 359.916 158.648H357.916ZM363.504 148.969C361.911 149.889 360.526 151.427 359.54 153.133C358.555 154.84 357.916 156.809 357.916 158.648H359.916C359.916 157.243 360.416 155.616 361.272 154.133C362.129 152.65 363.287 151.404 364.504 150.702L363.504 148.969Z" fill="white" mask="url(#path-3-inside-1_19:245)"/>
<path d="M390.25 45.1512H233.581V92.9779H233.619C233.135 104.903 240.774 116.917 256.536 126.017C287.121 143.675 336.71 143.675 367.295 126.017C383.057 116.917 390.696 104.903 390.212 92.9779H390.25V45.1512Z" fill="#0070CC" stroke="white"/>
<path d="M256.535 14.2438C287.12 -3.41459 336.709 -3.41459 367.294 14.2438C397.879 31.9021 397.879 60.5319 367.294 78.1903C336.709 95.8486 287.12 95.8487 256.535 78.1903C225.95 60.532 225.95 31.9021 256.535 14.2438Z" fill="#0070CC" stroke="white"/>
<mask id="path-7-inside-2_19:245" fill="white">
<path fill-rule="evenodd" clip-rule="evenodd" d="M377.713 89.1263C380.523 87.5039 382.801 88.8191 382.801 92.0638C382.801 95.3086 380.523 99.2541 377.713 100.876C374.903 102.499 372.625 101.184 372.625 97.9389C372.625 94.6942 374.903 90.7487 377.713 89.1263ZM364.004 98.9181C366.814 97.2958 369.092 98.6109 369.092 101.856C369.092 105.1 366.814 109.046 364.004 110.668C361.194 112.291 358.916 110.975 358.916 107.731C358.916 104.486 361.194 100.54 364.004 98.9181Z"/>
</mask>
<path fill-rule="evenodd" clip-rule="evenodd" d="M377.713 89.1263C380.523 87.5039 382.801 88.8191 382.801 92.0638C382.801 95.3086 380.523 99.2541 377.713 100.876C374.903 102.499 372.625 101.184 372.625 97.9389C372.625 94.6942 374.903 90.7487 377.713 89.1263ZM364.004 98.9181C366.814 97.2958 369.092 98.6109 369.092 101.856C369.092 105.1 366.814 109.046 364.004 110.668C361.194 112.291 358.916 110.975 358.916 107.731C358.916 104.486 361.194 100.54 364.004 98.9181Z" fill="#0070CC"/>
<path d="M377.713 89.1263L377.213 88.2603V88.2603L377.713 89.1263ZM377.713 100.876L378.213 101.742L377.713 100.876ZM364.004 98.9181L363.504 98.0521L364.004 98.9181ZM364.004 110.668L364.504 111.534L364.004 110.668ZM358.916 107.731H359.916H358.916ZM383.801 92.0638C383.801 90.2311 383.15 88.6771 381.81 87.9039C380.471 87.1307 378.8 87.3439 377.213 88.2603L378.213 89.9923C379.435 89.2863 380.308 89.3459 380.81 89.6359C381.313 89.9259 381.801 90.6518 381.801 92.0638H383.801ZM378.213 101.742C379.805 100.823 381.191 99.285 382.176 97.5785C383.162 95.872 383.801 93.903 383.801 92.0638H381.801C381.801 93.4694 381.301 95.0955 380.444 96.5785C379.588 98.0616 378.43 99.3077 377.213 100.01L378.213 101.742ZM371.625 97.9389C371.625 99.7717 372.276 101.326 373.615 102.099C374.954 102.872 376.625 102.659 378.213 101.742L377.213 100.01C375.99 100.716 375.117 100.657 374.615 100.367C374.113 100.077 373.625 99.3509 373.625 97.9389H371.625ZM377.213 88.2603C375.62 89.1799 374.234 90.7177 373.249 92.4242C372.264 94.1307 371.625 96.0997 371.625 97.9389H373.625C373.625 96.5334 374.125 94.9073 374.981 93.4242C375.837 91.9412 376.995 90.6951 378.213 89.9923L377.213 88.2603ZM370.092 101.856C370.092 100.023 369.441 98.4689 368.102 97.6957C366.763 96.9225 365.091 97.1357 363.504 98.0521L364.504 99.7841C365.727 99.0781 366.6 99.1378 367.102 99.4278C367.604 99.7178 368.092 100.444 368.092 101.856H370.092ZM364.504 111.534C366.097 110.615 367.483 109.077 368.468 107.37C369.453 105.664 370.092 103.695 370.092 101.856H368.092C368.092 103.261 367.592 104.887 366.736 106.37C365.88 107.853 364.721 109.1 363.504 109.802L364.504 111.534ZM357.916 107.731C357.916 109.563 358.567 111.118 359.906 111.891C361.246 112.664 362.917 112.451 364.504 111.534L363.504 109.802C362.281 110.508 361.409 110.449 360.906 110.159C360.404 109.869 359.916 109.143 359.916 107.731H357.916ZM363.504 98.0521C361.911 98.9717 360.526 100.51 359.54 102.216C358.555 103.923 357.916 105.892 357.916 107.731H359.916C359.916 106.325 360.416 104.699 361.272 103.216C362.129 101.733 363.287 100.487 364.504 99.7841L363.504 98.0521Z" fill="white" mask="url(#path-7-inside-2_19:245)"/>
<path d="M330.031 94.0671C330.031 84.3447 336.904 80.4255 345.386 85.3073L557.195 207.697C565.622 212.523 572.495 224.35 572.495 234.072L572.083 379.715C572.083 389.438 565.209 393.343 556.728 388.461L344.905 266.072C336.45 261.19 329.632 249.378 329.66 239.655L330.031 94.0671Z" stroke="white" stroke-miterlimit="10"/>
<path d="M331.02 66.014C325.013 62.5348 320.133 65.3264 320.105 72.2297L319.556 250.024C319.556 256.9 324.381 265.33 330.388 268.809L570.955 407.769C576.949 411.234 581.843 408.457 581.857 401.553L582.365 223.759C582.365 216.883 577.526 208.439 571.519 204.974L331.02 66.014Z" fill="#0070CC" stroke="white" stroke-linejoin="round"/>
<path d="M323.281 65.2438L332.477 59.9082C334.457 58.7531 337.192 58.9181 340.217 60.6645L580.743 199.625C586.75 203.09 591.603 211.506 591.589 218.409L591.081 396.204C591.081 399.628 589.857 402.048 587.905 403.176L578.722 408.525C580.674 407.384 581.884 404.977 581.884 401.553L582.393 223.759C582.393 216.883 577.554 208.439 571.546 204.974L330.979 66.0139C329.419 65.0216 327.604 64.5055 325.755 64.5287C324.871 64.5612 324.008 64.8065 323.24 65.2438H323.281Z" fill="#0070CC" stroke="white" stroke-linejoin="round"/>
<path d="M328.835 267.97C322.828 264.505 313.122 264.491 307.156 267.97L153.496 357.355C147.516 360.821 147.557 366.459 153.564 369.924L394.132 508.816C400.139 512.281 409.858 512.281 415.824 508.816L569.485 419.43C575.465 415.951 575.423 410.327 569.485 406.861L328.835 267.97Z" fill="#0070CC" stroke="white" stroke-linejoin="round"/>
<path d="M229.102 336.618L323.955 281.46C325.635 280.6 327.496 280.151 329.384 280.151C331.273 280.151 333.134 280.6 334.814 281.46L546.156 403.492C549.153 405.225 549.167 408.044 546.156 409.777L451.304 464.948C449.621 465.802 447.761 466.247 445.874 466.247C443.987 466.247 442.127 465.802 440.444 464.948L229.157 342.916C226.147 341.17 226.119 338.364 229.157 336.618" stroke="white" stroke-linejoin="round"/>
<path d="M243.248 407.631L280.996 385.629C282.859 384.68 284.92 384.185 287.01 384.185C289.101 384.185 291.162 384.68 293.025 385.629L364.507 426.884C367.848 428.809 367.862 431.93 364.507 433.856L326.759 455.858C324.896 456.807 322.835 457.302 320.745 457.302C318.654 457.302 316.593 456.807 314.731 455.858L243.248 414.603C239.921 412.678 239.894 409.557 243.248 407.631Z" stroke="white" stroke-linejoin="round"/>
<path d="M245.186 433.443L153.523 380.499C150.512 378.753 149 376.47 149 374.174V363.544C149 365.826 150.498 368.123 153.523 369.869L394.09 508.761C400.097 512.226 409.816 512.226 415.782 508.761L569.443 419.375C570.753 418.655 571.892 417.66 572.784 416.46C573.488 415.492 573.877 414.329 573.897 413.132V423.776C573.897 426.031 572.413 428.286 569.443 430.005L415.782 519.391C409.816 522.87 400.097 522.87 394.09 519.391L286.563 457.33" fill="#0070CC"/>
<path d="M245.186 433.443L153.523 380.499C150.512 378.753 149 376.47 149 374.174V363.544C149 365.826 150.498 368.123 153.523 369.869L394.09 508.761C400.097 512.226 409.816 512.226 415.782 508.761L569.443 419.375C570.753 418.655 571.892 417.66 572.784 416.46C573.488 415.492 573.877 414.329 573.897 413.132V413.132V423.776C573.897 426.031 572.413 428.286 569.443 430.005L415.782 519.391C409.816 522.87 400.097 522.87 394.09 519.391L286.563 457.33" stroke="white" stroke-linejoin="round"/>
<path d="M580.922 199.377L571.794 204.603" stroke="white" stroke-linejoin="round"/>
<path d="M591.356 218.945L582.228 224.171" stroke="white" stroke-linejoin="round"/>
<path d="M393.747 509.269V519.707" stroke="white" stroke-linejoin="round"/>
<path d="M413.308 510.576V519.707" stroke="white" stroke-linejoin="round"/>
<path d="M569.842 419.238V429.675" stroke="white" stroke-linejoin="round"/>
<path d="M245.186 432.921L278.481 452.75L287.127 447.758L253.833 427.929L245.186 432.921Z" stroke="white" stroke-linejoin="round"/>
<path d="M245.186 432.797L245.2 442.299L278.494 462.239L278.48 452.75L245.186 432.797Z" fill="#0070CC" stroke="white" stroke-linejoin="round"/>
<path d="M278.481 452.75L278.494 462.239L287.141 457.247L287.127 447.759L278.481 452.75Z" fill="#0070CC" stroke="white" stroke-linejoin="round"/>
<path d="M278.73 283L175.632 226.363C165.405 220.745 165.498 211.312 175.834 205.762L241.5 170.5" stroke="white"/>
<path d="M200.5 330.5L148 303" stroke="white"/>
<path d="M173.334 237.567H1V282.244L1.0448 282.244C1.04479 290.778 12.9399 297.646 36.7302 311.381C60.5205 325.116 72.4157 331.984 87.1971 331.984C101.978 331.984 113.874 325.116 137.664 311.381C161.454 297.646 173.349 290.778 173.349 282.244C173.349 282.064 173.344 281.884 173.334 281.706V237.567Z" fill="#0070CC" stroke="white"/>
<path d="M36.7299 208.43C60.5202 194.695 72.4153 187.827 87.1967 187.827C101.978 187.827 113.873 194.695 137.664 208.43C161.454 222.165 173.349 229.033 173.349 237.567C173.349 246.101 161.454 252.969 137.664 266.704C113.873 280.439 101.978 287.307 87.1967 287.307C72.4153 287.307 60.5202 280.439 36.7299 266.704C12.9396 252.969 1.04442 246.101 1.04442 237.567C1.04442 229.033 12.9396 222.165 36.7299 208.43Z" fill="#0070CC" stroke="white"/>
<path fill-rule="evenodd" clip-rule="evenodd" d="M14.2325 259.92C13.7542 259.644 13.3664 259.867 13.3664 260.42L13.3664 289.499C13.3664 290.052 13.7542 290.723 14.2325 290.999L18.3882 293.399C18.8665 293.675 19.2542 293.451 19.2542 292.899L19.2542 263.819C19.2542 263.267 18.8665 262.595 18.3882 262.319L14.2325 259.92ZM23.9448 266.233C23.4665 265.957 23.0788 266.181 23.0788 266.733L23.0788 295.812C23.0788 296.365 23.4665 297.036 23.9448 297.312L28.1005 299.712C28.5788 299.988 28.9666 299.764 28.9666 299.212L28.9666 270.132C28.9666 269.58 28.5788 268.908 28.1005 268.632L23.9448 266.233ZM32.7913 272.317C32.7913 271.765 33.179 271.541 33.6573 271.817L37.8131 274.217C38.2913 274.493 38.6791 275.164 38.6791 275.717V304.796C38.6791 305.349 38.2913 305.572 37.8131 305.296L33.6573 302.897C33.179 302.621 32.7913 301.949 32.7913 301.397V272.317ZM43.3699 276.916C42.8916 276.64 42.5039 276.864 42.5039 277.416V306.496C42.5039 307.048 42.8916 307.72 43.3699 307.996L47.5257 310.395C48.0039 310.671 48.3917 310.447 48.3917 309.895L48.3917 280.816C48.3917 280.263 48.0039 279.592 47.5257 279.316L43.3699 276.916Z" fill="#0070CC"/>
<path d="M13.3664 260.42H12.8664H13.3664ZM14.2325 259.92L14.4825 259.487L14.2325 259.92ZM13.3664 289.499H13.8664H13.3664ZM14.2325 290.999L14.4825 290.566H14.4825L14.2325 290.999ZM18.3882 293.399L18.1382 293.832L18.3882 293.399ZM19.2542 292.899H18.7542H19.2542ZM19.2542 263.819H19.7542H19.2542ZM18.3882 262.319L18.1382 262.752L18.3882 262.319ZM23.0788 266.733H23.5788H23.0788ZM23.9448 266.233L24.1948 265.8H24.1948L23.9448 266.233ZM23.0788 295.812H22.5788H23.0788ZM23.9448 297.312L24.1948 296.879H24.1948L23.9448 297.312ZM28.1005 299.712L27.8505 300.145H27.8505L28.1005 299.712ZM28.9666 299.212H28.4666H28.9666ZM28.9666 270.132H29.4666H28.9666ZM28.1005 268.632L28.3505 268.199V268.199L28.1005 268.632ZM33.6573 271.817L33.4073 272.25L33.6573 271.817ZM37.8131 274.217L38.0631 273.784L37.8131 274.217ZM37.8131 305.296L38.0631 304.863L37.8131 305.296ZM33.6573 302.897L33.4073 303.33L33.6573 302.897ZM43.3699 276.916L43.1199 277.349L43.3699 276.916ZM43.3699 307.996L43.1199 308.429L43.3699 307.996ZM47.5257 310.395L47.2757 310.828L47.5257 310.395ZM48.3917 309.895H47.8917H48.3917ZM48.3917 280.816H48.8917H48.3917ZM47.5257 279.316L47.2757 279.749L47.5257 279.316ZM13.8664 260.42C13.8664 260.338 13.8809 260.296 13.8879 260.28C13.8937 260.268 13.891 260.28 13.8701 260.292C13.8491 260.304 13.8375 260.301 13.8511 260.302C13.8676 260.303 13.9119 260.312 13.9825 260.353L14.4825 259.487C14.1522 259.296 13.736 259.215 13.3701 259.426C13.0041 259.637 12.8664 260.038 12.8664 260.42H13.8664ZM13.8664 289.499L13.8664 260.42H12.8664L12.8664 289.499H13.8664ZM14.4825 290.566C14.3372 290.482 14.1776 290.318 14.0531 290.103C13.9286 289.887 13.8664 289.667 13.8664 289.499H12.8664C12.8664 289.884 12.9981 290.275 13.1871 290.603C13.376 290.93 13.6494 291.24 13.9825 291.432L14.4825 290.566ZM18.6382 292.966L14.4825 290.566L13.9825 291.432L18.1382 293.832L18.6382 292.966ZM18.7542 292.899C18.7542 292.98 18.7397 293.023 18.7327 293.038C18.727 293.05 18.7296 293.038 18.7506 293.026C18.7715 293.014 18.7832 293.018 18.7696 293.017C18.753 293.015 18.7088 293.006 18.6382 292.966L18.1382 293.832C18.4684 294.022 18.8846 294.104 19.2506 293.892C19.6165 293.681 19.7542 293.28 19.7542 292.899H18.7542ZM18.7542 263.819L18.7542 292.899H19.7542L19.7542 263.819H18.7542ZM18.1382 262.752C18.2835 262.836 18.4431 263 18.5676 263.216C18.692 263.431 18.7542 263.651 18.7542 263.819H19.7542C19.7542 263.434 19.6226 263.043 19.4336 262.716C19.2446 262.388 18.9712 262.078 18.6382 261.886L18.1382 262.752ZM13.9825 260.353L18.1382 262.752L18.6382 261.886L14.4825 259.487L13.9825 260.353ZM23.5788 266.733C23.5788 266.651 23.5933 266.609 23.6003 266.593C23.606 266.581 23.6034 266.593 23.5824 266.605C23.5614 266.617 23.5498 266.614 23.5634 266.615C23.58 266.616 23.6242 266.625 23.6948 266.666L24.1948 265.8C23.8645 265.609 23.4484 265.528 23.0824 265.739C22.7165 265.95 22.5788 266.351 22.5788 266.733H23.5788ZM23.5788 295.812L23.5788 266.733H22.5788L22.5788 295.812H23.5788ZM24.1948 296.879C24.0495 296.795 23.8899 296.631 23.7654 296.416C23.641 296.2 23.5788 295.98 23.5788 295.812H22.5788C22.5788 296.197 22.7104 296.589 22.8994 296.916C23.0884 297.243 23.3617 297.553 23.6948 297.745L24.1948 296.879ZM28.3505 299.279L24.1948 296.879L23.6948 297.745L27.8505 300.145L28.3505 299.279ZM28.4666 299.212C28.4666 299.293 28.4521 299.336 28.445 299.351C28.4393 299.363 28.4419 299.351 28.4629 299.339C28.4839 299.327 28.4955 299.331 28.4819 299.33C28.4653 299.328 28.4211 299.319 28.3505 299.279L27.8505 300.145C28.1808 300.335 28.597 300.417 28.9629 300.205C29.3288 299.994 29.4666 299.593 29.4666 299.212H28.4666ZM28.4666 270.132L28.4666 299.212H29.4666V270.132H28.4666ZM27.8505 269.065C27.9958 269.149 28.1554 269.313 28.2799 269.529C28.4044 269.744 28.4666 269.964 28.4666 270.132H29.4666C29.4666 269.748 29.3349 269.356 29.1459 269.029C28.9569 268.701 28.6836 268.391 28.3505 268.199L27.8505 269.065ZM23.6948 266.666L27.8505 269.065L28.3505 268.199L24.1948 265.8L23.6948 266.666ZM33.9073 271.384C33.5771 271.194 33.1609 271.112 32.7949 271.324C32.429 271.535 32.2913 271.936 32.2913 272.317H33.2913C33.2913 272.236 33.3058 272.193 33.3128 272.178C33.3186 272.166 33.3159 272.178 33.2949 272.19C33.274 272.202 33.2623 272.198 33.2759 272.199C33.2925 272.201 33.3367 272.21 33.4073 272.25L33.9073 271.384ZM38.0631 273.784L33.9073 271.384L33.4073 272.25L37.5631 274.65L38.0631 273.784ZM39.1791 275.717C39.1791 275.332 39.0474 274.94 38.8584 274.613C38.6695 274.286 38.3961 273.976 38.0631 273.784L37.5631 274.65C37.7083 274.734 37.8679 274.898 37.9924 275.113C38.1169 275.329 38.1791 275.549 38.1791 275.717H39.1791ZM39.1791 304.796V275.717H38.1791V304.796H39.1791ZM37.5631 305.729C37.8933 305.92 38.3095 306.001 38.6754 305.79C39.0414 305.579 39.1791 305.178 39.1791 304.796H38.1791C38.1791 304.878 38.1646 304.92 38.1576 304.936C38.1518 304.948 38.1545 304.936 38.1754 304.924C38.1964 304.912 38.2081 304.915 38.1945 304.914C38.1779 304.913 38.1336 304.904 38.0631 304.863L37.5631 305.729ZM33.4073 303.33L37.5631 305.729L38.0631 304.863L33.9073 302.464L33.4073 303.33ZM32.2913 301.397C32.2913 301.781 32.4229 302.173 32.6119 302.5C32.8009 302.828 33.0743 303.138 33.4073 303.33L33.9073 302.464C33.7621 302.38 33.6024 302.216 33.4779 302C33.3535 301.785 33.2913 301.565 33.2913 301.397H32.2913ZM32.2913 272.317V301.397H33.2913V272.317H32.2913ZM43.0039 277.416C43.0039 277.335 43.0184 277.292 43.0254 277.277C43.0311 277.265 43.0285 277.277 43.0075 277.289C42.9866 277.301 42.9749 277.297 42.9885 277.298C43.0051 277.3 43.0493 277.309 43.1199 277.349L43.6199 276.483C43.2897 276.293 42.8735 276.211 42.5075 276.423C42.1416 276.634 42.0039 277.035 42.0039 277.416H43.0039ZM43.0039 306.496V277.416H42.0039V306.496H43.0039ZM43.6199 307.563C43.4746 307.479 43.315 307.315 43.1905 307.099C43.0661 306.884 43.0039 306.664 43.0039 306.496H42.0039C42.0039 306.88 42.1355 307.272 42.3245 307.599C42.5135 307.927 42.7869 308.237 43.1199 308.429L43.6199 307.563ZM47.7757 309.962L43.6199 307.563L43.1199 308.429L47.2757 310.828L47.7757 309.962ZM47.8917 309.895C47.8917 309.977 47.8772 310.019 47.8702 310.034C47.8644 310.047 47.8671 310.035 47.888 310.023C47.909 310.011 47.9207 310.014 47.9071 310.013C47.8905 310.012 47.8462 310.003 47.7757 309.962L47.2757 310.828C47.6059 311.019 48.0221 311.1 48.388 310.889C48.754 310.678 48.8917 310.276 48.8917 309.895H47.8917ZM47.8917 280.816L47.8917 309.895H48.8917L48.8917 280.816L47.8917 280.816ZM47.2757 279.749C47.4209 279.832 47.5806 279.996 47.705 280.212C47.8295 280.428 47.8917 280.648 47.8917 280.816H48.8917C48.8917 280.431 48.76 280.039 48.571 279.712C48.3821 279.385 48.1087 279.075 47.7757 278.883L47.2757 279.749ZM43.1199 277.349L47.2757 279.749L47.7757 278.883L43.6199 276.483L43.1199 277.349Z" fill="white"/>
<path d="M173.334 185.12H1V230.768L1.0448 230.768C1.04479 239.302 12.9399 246.17 36.7302 259.905C60.5205 273.641 72.4157 280.508 87.1971 280.508C101.978 280.508 113.874 273.641 137.664 259.905C161.454 246.17 173.349 239.302 173.349 230.768C173.349 230.588 173.344 230.409 173.334 230.23V185.12Z" fill="#0070CC" stroke="white"/>
<path d="M36.73 155.983C60.5203 142.248 72.4154 135.38 87.1968 135.38C101.978 135.38 113.873 142.248 137.664 155.983C161.454 169.718 173.349 176.586 173.349 185.12C173.349 193.654 161.454 200.522 137.664 214.257C113.873 227.993 101.978 234.86 87.1968 234.86C72.4154 234.86 60.5203 227.993 36.73 214.257C12.9397 200.522 1.04452 193.654 1.04452 185.12C1.04452 176.586 12.9397 169.718 36.73 155.983Z" fill="#0070CC" stroke="white"/>
<mask id="path-33-inside-3_19:245" fill="white">
<path fill-rule="evenodd" clip-rule="evenodd" d="M82.1505 148.213C84.9377 149.822 89.4566 149.822 92.2438 148.213C95.031 146.604 95.031 143.995 92.2438 142.386C89.4566 140.777 84.9377 140.777 82.1505 142.386C79.3633 143.995 79.3633 146.604 82.1505 148.213ZM14.2076 188.034C16.9948 189.643 21.5138 189.643 24.301 188.034C27.0882 186.425 27.0882 183.816 24.301 182.206C21.5138 180.597 16.9948 180.597 14.2076 182.206C11.4204 183.816 11.4204 186.425 14.2076 188.034ZM152.609 188.034C155.396 189.643 159.915 189.643 162.702 188.034C165.489 186.425 165.489 183.816 162.702 182.206C159.915 180.597 155.396 180.597 152.609 182.206C149.821 183.816 149.821 186.425 152.609 188.034ZM92.2438 225.426C89.4566 227.036 84.9377 227.036 82.1505 225.426C79.3633 223.817 79.3633 221.208 82.1505 219.599C84.9377 217.99 89.4566 217.99 92.2438 219.599C95.031 221.208 95.031 223.817 92.2438 225.426Z"/>
</mask>
<path fill-rule="evenodd" clip-rule="evenodd" d="M82.1505 148.213C84.9377 149.822 89.4566 149.822 92.2438 148.213C95.031 146.604 95.031 143.995 92.2438 142.386C89.4566 140.777 84.9377 140.777 82.1505 142.386C79.3633 143.995 79.3633 146.604 82.1505 148.213ZM14.2076 188.034C16.9948 189.643 21.5138 189.643 24.301 188.034C27.0882 186.425 27.0882 183.816 24.301 182.206C21.5138 180.597 16.9948 180.597 14.2076 182.206C11.4204 183.816 11.4204 186.425 14.2076 188.034ZM152.609 188.034C155.396 189.643 159.915 189.643 162.702 188.034C165.489 186.425 165.489 183.816 162.702 182.206C159.915 180.597 155.396 180.597 152.609 182.206C149.821 183.816 149.821 186.425 152.609 188.034ZM92.2438 225.426C89.4566 227.036 84.9377 227.036 82.1505 225.426C79.3633 223.817 79.3633 221.208 82.1505 219.599C84.9377 217.99 89.4566 217.99 92.2438 219.599C95.031 221.208 95.031 223.817 92.2438 225.426Z" fill="#0070CC"/>
<path d="M92.2438 148.213L91.7438 147.347L92.2438 148.213ZM82.1505 148.213L82.6505 147.347V147.347L82.1505 148.213ZM92.2438 142.386L92.7438 141.52L92.2438 142.386ZM24.301 188.034L24.801 188.9H24.801L24.301 188.034ZM14.2076 188.034L14.7076 187.168L14.2076 188.034ZM14.2076 182.206L13.7076 181.34H13.7076L14.2076 182.206ZM162.702 188.034L163.202 188.9L162.702 188.034ZM162.702 182.206L163.202 181.34L162.702 182.206ZM152.609 182.206L152.109 181.34L152.609 182.206ZM92.2438 225.426L92.7438 226.292V226.292L92.2438 225.426ZM91.7438 147.347C90.538 148.043 88.8947 148.42 87.1972 148.42C85.4996 148.42 83.8563 148.043 82.6505 147.347L81.6505 149.079C83.2319 149.992 85.2416 150.42 87.1972 150.42C89.1527 150.42 91.1624 149.992 92.7438 149.079L91.7438 147.347ZM91.7438 143.252C92.9553 143.951 93.3342 144.728 93.3342 145.3C93.3342 145.871 92.9553 146.648 91.7438 147.347L92.7438 149.079C94.3196 148.17 95.3342 146.837 95.3342 145.3C95.3342 143.762 94.3196 142.43 92.7438 141.52L91.7438 143.252ZM82.6505 143.252C83.8563 142.556 85.4996 142.179 87.1972 142.179C88.8947 142.179 90.538 142.556 91.7438 143.252L92.7438 141.52C91.1624 140.607 89.1527 140.179 87.1972 140.179C85.2416 140.179 83.2319 140.607 81.6505 141.52L82.6505 143.252ZM82.6505 147.347C81.439 146.648 81.0601 145.871 81.0601 145.3C81.0601 144.728 81.439 143.951 82.6505 143.252L81.6505 141.52C80.0747 142.43 79.0601 143.762 79.0601 145.3C79.0601 146.837 80.0747 148.17 81.6505 149.079L82.6505 147.347ZM23.801 187.168C22.5952 187.864 20.9518 188.241 19.2543 188.241C17.5568 188.241 15.9134 187.864 14.7076 187.168L13.7076 188.9C15.289 189.813 17.2987 190.241 19.2543 190.241C21.2098 190.241 23.2196 189.813 24.801 188.9L23.801 187.168ZM23.801 183.073C25.0124 183.772 25.3914 184.549 25.3914 185.12C25.3914 185.692 25.0124 186.468 23.801 187.168L24.801 188.9C26.3768 187.99 27.3914 186.658 27.3914 185.12C27.3914 183.582 26.3768 182.25 24.801 181.34L23.801 183.073ZM14.7076 183.073C15.9134 182.376 17.5568 182 19.2543 182C20.9518 182 22.5952 182.376 23.801 183.073L24.801 181.34C23.2196 180.427 21.2098 180 19.2543 180C17.2987 180 15.289 180.427 13.7076 181.34L14.7076 183.073ZM14.7076 187.168C13.4962 186.468 13.1172 185.692 13.1172 185.12C13.1172 184.549 13.4962 183.772 14.7076 183.073L13.7076 181.34C12.1318 182.25 11.1172 183.582 11.1172 185.12C11.1172 186.658 12.1318 187.99 13.7076 188.9L14.7076 187.168ZM162.202 187.168C160.996 187.864 159.353 188.241 157.655 188.241C155.958 188.241 154.314 187.864 153.109 187.168L152.109 188.9C153.69 189.813 155.7 190.241 157.655 190.241C159.611 190.241 161.621 189.813 163.202 188.9L162.202 187.168ZM162.202 183.073C163.413 183.772 163.792 184.549 163.792 185.12C163.792 185.692 163.413 186.468 162.202 187.168L163.202 188.9C164.778 187.99 165.792 186.658 165.792 185.12C165.792 183.582 164.778 182.25 163.202 181.34L162.202 183.073ZM153.109 183.073C154.314 182.376 155.958 182 157.655 182C159.353 182 160.996 182.376 162.202 183.073L163.202 181.34C161.621 180.427 159.611 180 157.655 180C155.7 180 153.69 180.427 152.109 181.34L153.109 183.073ZM153.109 187.168C151.897 186.468 151.518 185.692 151.518 185.12C151.518 184.549 151.897 183.772 153.109 183.073L152.109 181.34C150.533 182.25 149.518 183.582 149.518 185.12C149.518 186.658 150.533 187.99 152.109 188.9L153.109 187.168ZM81.6505 226.292C83.2319 227.206 85.2416 227.633 87.1972 227.633C89.1527 227.633 91.1624 227.206 92.7438 226.292L91.7438 224.56C90.538 225.257 88.8947 225.633 87.1972 225.633C85.4996 225.633 83.8563 225.257 82.6505 224.56L81.6505 226.292ZM81.6505 218.733C80.0747 219.643 79.0601 220.975 79.0601 222.513C79.0601 224.051 80.0747 225.383 81.6505 226.292L82.6505 224.56C81.439 223.861 81.0601 223.084 81.0601 222.513C81.0601 221.941 81.439 221.164 82.6505 220.465L81.6505 218.733ZM92.7438 218.733C91.1624 217.82 89.1527 217.392 87.1972 217.392C85.2416 217.392 83.2319 217.82 81.6505 218.733L82.6505 220.465C83.8563 219.769 85.4996 219.392 87.1972 219.392C88.8947 219.392 90.538 219.769 91.7438 220.465L92.7438 218.733ZM92.7438 226.292C94.3196 225.383 95.3342 224.051 95.3342 222.513C95.3342 220.975 94.3196 219.643 92.7438 218.733L91.7438 220.465C92.9553 221.164 93.3342 221.941 93.3342 222.513C93.3342 223.084 92.9553 223.861 91.7438 224.56L92.7438 226.292Z" fill="white" mask="url(#path-33-inside-3_19:245)"/>
<path d="M364 130L517 218.5" stroke="white"/>
<path d="M364 150L517 238.5" stroke="white"/>
<path d="M364 170L517 258.5" stroke="white"/>
<path d="M364 190L517 278.5" stroke="white"/>
<path d="M364 210L517 298.5" stroke="white"/>
<path d="M364 230L438.5 272.5" stroke="white"/>
<path d="M342 243V94.5L541.5 208V358L342 243Z" stroke="white"/>
</svg>
