<svg width="698" height="495" fill="none" xmlns="http://www.w3.org/2000/svg"><path d="m385.314 130.402 36.864 79.43-100.713 58.147-137.577-21.284-36.864-79.43 100.713-58.147 137.577 21.284Z" fill="#0070CC" stroke="#fff"/><path d="m147.32 167.13 36.656 79.062v61.813l-36.656-79.063V167.13Z" fill="#0070CC" stroke="#fff"/><path d="m183.976 246.551 137.371 20.305v61.813l-137.371-20.305v-61.813Z" fill="#0070CC" stroke="#fff"/><path d="m196.978 287.61 73.136 10.81v11.826l-73.136-10.81V287.61Zm225.129-77.76-100.76 57.006v61.813l100.76-57.006V209.85Z" fill="#0070CC" stroke="#fff"/><path d="M414.022 257.202c0-4.647-3.263-6.531-7.288-4.207s-7.288 7.975-7.288 12.623c0 4.647 3.263 6.531 7.288 4.207s7.288-7.975 7.288-12.623ZM385.314 58.478l36.864 79.431-100.713 58.146-137.577-21.283-36.864-79.43 100.713-58.147 137.577 21.283Z" fill="#0070CC" stroke="#fff"/><path d="m147.32 95.207 36.656 79.062v61.812l-36.656-79.062V95.206Z" fill="#0070CC" stroke="#fff"/><path d="m183.976 174.628 137.371 20.305v61.812l-137.371-20.304v-61.813Z" fill="#0070CC" stroke="#fff"/><path d="m196.978 214.932 73.136 10.81v11.825l-73.136-10.81v-11.825Zm225.129-77.005-100.76 57.006v61.812l100.76-57.006v-61.812Z" fill="#0070CC" stroke="#fff"/><path d="M414.022 185.827c0-4.648-3.263-6.531-7.288-4.208-4.025 2.324-7.288 7.976-7.288 12.623 0 4.648 3.263 6.532 7.288 4.208s7.288-7.975 7.288-12.623Zm183.191 67.575 36.864 79.43-100.713 58.147-137.577-21.284-36.864-79.43 100.713-58.147 137.577 21.284Z" fill="#0070CC" stroke="#fff"/><path d="m359.219 290.13 36.656 79.062v61.813l-36.656-79.063V290.13Zm36.656 79.421 137.371 20.305v61.813l-137.371-20.305v-61.813Z" fill="#0070CC" stroke="#fff"/><path d="m408.877 410.61 73.136 10.81v11.826l-73.136-10.811V410.61Zm225.129-77.76-100.76 57.006v61.812l100.76-57.005V332.85Z" fill="#0070CC" stroke="#fff"/><path d="M625.921 380.202c0-4.647-3.263-6.531-7.288-4.207s-7.288 7.975-7.288 12.623c0 4.647 3.263 6.531 7.288 4.207s7.288-7.975 7.288-12.623Zm-28.708-198.724 36.864 79.43-100.713 58.147-137.577-21.283-36.864-79.43 100.713-58.147 137.577 21.283Z" fill="#0070CC" stroke="#fff"/><path d="m359.219 218.207 36.656 79.062v61.812l-36.656-79.062v-61.812Zm36.656 79.421 137.371 20.305v61.812l-137.371-20.304v-61.813Z" fill="#0070CC" stroke="#fff"/><path d="m408.877 337.932 73.136 10.81v11.825l-73.136-10.81v-11.825Zm225.129-77.005-100.76 57.006v61.812l100.76-57.006v-61.812Z" fill="#0070CC" stroke="#fff"/><path d="M625.921 308.827c0-4.648-3.263-6.531-7.288-4.208-4.025 2.324-7.288 7.976-7.288 12.623 0 4.648 3.263 6.532 7.288 4.208s7.288-7.975 7.288-12.623Zm-323.708-13.425 36.864 79.43-100.713 58.147-137.577-21.284-36.864-79.43 100.713-58.147 137.577 21.284Z" fill="#0070CC" stroke="#fff"/><path d="m64.219 332.13 36.656 79.062v61.813l-36.656-79.063V332.13Zm36.656 79.421 137.371 20.305v61.813l-137.371-20.305v-61.813Z" fill="#0070CC" stroke="#fff"/><path d="m113.876 452.61 73.137 10.81v11.826l-73.137-10.811V452.61Zm225.13-77.76-100.76 57.006v61.812l100.76-57.005V374.85Z" fill="#0070CC" stroke="#fff"/><path d="M330.921 422.202c0-4.647-3.263-6.531-7.288-4.207s-7.288 7.975-7.288 12.623c0 4.647 3.263 6.531 7.288 4.207s7.288-7.975 7.288-12.623Zm-28.708-198.724 36.864 79.43-100.713 58.147-137.577-21.283-36.864-79.43 100.713-58.147 137.577 21.283Z" fill="#0070CC" stroke="#fff"/><path d="m64.219 260.207 36.656 79.062v61.812l-36.656-79.062v-61.812Zm36.656 79.421 137.371 20.305v61.812l-137.371-20.304v-61.813Z" fill="#0070CC" stroke="#fff"/><path d="m113.876 379.932 73.137 10.81v11.825l-73.137-10.81v-11.825Zm225.13-77.005-100.76 57.006v61.812l100.76-57.006v-61.812Z" fill="#0070CC" stroke="#fff"/><path d="M330.921 350.827c0-4.648-3.263-6.531-7.288-4.208-4.025 2.324-7.288 7.976-7.288 12.623 0 4.648 3.263 6.532 7.288 4.208s7.288-7.975 7.288-12.623Z" fill="#0070CC" stroke="#fff"/></svg>