<svg width="48" height="49" fill="none" xmlns="http://www.w3.org/2000/svg"><path d="M37.451 4.906H9.378c-3.24 0-5.866 2.299-5.866 5.134v22.808c0 2.835 2.626 5.133 5.866 5.133H32.09a4.8 4.8 0 0 1 3.13 1.161l6.204 5.337c.044.037.09.071.14.097.77.386 1.753-.098 1.753-.893V10.04c0-2.835-2.626-5.134-5.866-5.134Z" fill="#fff"/><path fill-rule="evenodd" clip-rule="evenodd" d="M2.552 10.04c0-3.482 3.18-6.094 6.826-6.094h28.073c3.646 0 6.826 2.612 6.826 6.094v33.643c0 .834-.521 1.447-1.116 1.747a2.266 2.266 0 0 1-2.026.004 1.652 1.652 0 0 1-.337-.227l-6.204-5.337a3.84 3.84 0 0 0-2.504-.928H9.378c-3.646 0-6.826-2.613-6.826-6.094V10.04Zm6.826-4.174c-2.834 0-4.906 1.985-4.906 4.174v22.808c0 2.189 2.072 4.174 4.906 4.174H32.09a5.76 5.76 0 0 1 3.756 1.393l6.182 5.317a.35.35 0 0 0 .27-.017.192.192 0 0 0 .059-.043V10.04c0-2.189-2.072-4.174-4.906-4.174H9.378Z" fill="#000"/><path fill-rule="evenodd" clip-rule="evenodd" d="M26.208 19.34c.816-.756 1.273-1.899 1.253-3.3-.014-1.067-.351-2.006-1.012-2.68-.655-.667-1.73-1.18-3.433-1.2-1.692-.021-2.679.478-3.266 1.188-.615.743-.937 1.891-.916 3.44l-1.919.02c-.024-1.777.333-3.452 1.355-4.688 1.052-1.27 2.662-1.907 4.764-1.88 2.09.025 3.695.669 4.782 1.776 1.08 1.1 1.545 2.553 1.565 4.003.025 1.835-.58 3.54-1.867 4.732-1.085 1.005-2.572 1.567-4.364 1.603l.065 4.692-1.92.02-.093-6.756 1.056.093c1.855.164 3.14-.313 3.95-1.064Z" fill="#ED1C24"/><path d="M23.192 30.188c0 .825-.657 1.493-1.467 1.493s-1.467-.668-1.467-1.493c0-.824.657-1.493 1.467-1.493s1.467.669 1.467 1.493Z" fill="#F41820"/></svg>