<svg width="529" height="245" fill="none" xmlns="http://www.w3.org/2000/svg"><path d="M121.355 152.96v84.568a6 6 0 0 0 6 6h101.537a6 6 0 0 0 6-6V107.099a6 6 0 0 1 6-6h69.349" stroke="#ED1C24" stroke-linecap="round" stroke-linejoin="round"/><path d="M283.503 157.086a7.5 7.5 0 0 0-7.5-7.5h-73.361a8.494 8.494 0 0 1-4.599-1.352l-18.994-12.222v86.078a7.5 7.5 0 0 0 7.5 7.5h89.454a7.5 7.5 0 0 0 7.5-7.5v-65.004Z" fill="#fff" stroke="#ED1C24" stroke-linejoin="round"/><circle cx="211.798" cy="189.609" r="5.959" fill="#ED1C24"/><circle cx="231.276" cy="189.609" r="5.959" fill="#ED1C24"/><circle cx="250.755" cy="189.609" r="5.959" fill="#ED1C24"/><path d="m442.269 32.13 21.491 5.688V6.909l-21.491-5.687-21.114 6.572v30.78l21.114-6.443Z" fill="#fff" stroke="#2D2D2D"/><path d="m442.646 13.715-21.491-5.687v37.69l21.491 5.687 21.114-6.572V7.271l-21.114 6.444Z" fill="#fff" stroke="#2D2D2D"/><path d="M442.331 13.655v37.12" stroke="#2D2D2D"/><path d="M433.252 49.475v21.993a6 6 0 0 0 6 6h40.112a6 6 0 0 1 6 6v17.638" stroke="#2D2D2D" stroke-linecap="round" stroke-linejoin="round"/><rect x=".5" y="36.274" width="164.878" height="120.6" rx="6.5" fill="#fff" stroke="#ED1C24"/><path d="M28.654 77.22h107.168M28.654 97.296h107.168M28.654 118.343h107.168m4.069-68.27 11.115 11.116m0-11.116L139.891 61.19" stroke="#2D2D2D" stroke-linecap="round" stroke-linejoin="round"/><rect x="455.894" y="101.099" width="72.338" height="72.338" rx="10" fill="#2D2D2D"/><path d="M481.298 127.605c-.107-7.661 3.182-13.005 12.073-12.897 8.892.108 12.569 5.328 12.65 11.127.104 7.456-4.59 13.119-14.252 12.28v13.053" stroke="#fff"/><circle cx="491.325" cy="158.425" r="1.141" fill="#fff"/><path d="M485.364 173.33v57.232a6 6 0 0 1-6 6h-49.811a6 6 0 0 1-6-6V107.099a6 6 0 0 0-6-6h-50.656" stroke="#2D2D2D" stroke-linecap="round" stroke-linejoin="round"/><path d="M295.599 124.299a7.5 7.5 0 0 0 7.5 7.5h76.056c1.631 0 3.228.47 4.599 1.352l19.694 12.673V56.688a7.5 7.5 0 0 0-7.5-7.5h-92.849a7.5 7.5 0 0 0-7.5 7.5v67.611Z" fill="#fff" stroke="#000" stroke-linejoin="round"/><circle cx="331.295" cy="91.754" r="5.959" fill="#000"/><circle cx="350.773" cy="91.754" r="5.959" fill="#000"/><circle cx="370.252" cy="91.754" r="5.959" fill="#000"/></svg>