<svg width="49" height="48" fill="none" xmlns="http://www.w3.org/2000/svg"><path d="M12.451 20.802a7.68 7.68 0 0 0 7.68 7.68h19.035a7.68 7.68 0 0 1 4.2 1.25l5.618 3.67V7.68A7.68 7.68 0 0 0 41.304 0H20.13a7.68 7.68 0 0 0-7.68 7.68v13.122Z" fill="#fff"/><path fill-rule="evenodd" clip-rule="evenodd" d="m48.984 33.401-5.618-3.669a7.68 7.68 0 0 0-4.2-1.25H20.131a7.68 7.68 0 0 1-7.68-7.68V7.68A7.68 7.68 0 0 1 20.131 0h21.173a7.68 7.68 0 0 1 7.68 7.68V33.4Zm-1.92-3.547-2.648-1.73a9.6 9.6 0 0 0-5.25-1.562H20.131a5.76 5.76 0 0 1-5.76-5.76V7.68a5.76 5.76 0 0 1 5.76-5.76h21.173a5.76 5.76 0 0 1 5.76 5.76v22.174Z" fill="#000"/><path d="M36.377 28.085a7.68 7.68 0 0 0-7.68-7.68h-18.13a7.68 7.68 0 0 1-4.2-1.25L.984 15.64v24.68A7.68 7.68 0 0 0 8.664 48h20.033a7.68 7.68 0 0 0 7.68-7.68V28.085Z" fill="#fff"/><path fill-rule="evenodd" clip-rule="evenodd" d="m.984 15.64 5.383 3.516a7.68 7.68 0 0 0 4.2 1.25h18.13a7.68 7.68 0 0 1 7.68 7.68V40.32a7.68 7.68 0 0 1-7.68 7.68H8.664a7.68 7.68 0 0 1-7.68-7.68V15.64Zm1.92 3.547 2.413 1.576a9.6 9.6 0 0 0 5.25 1.563h18.13a5.76 5.76 0 0 1 5.76 5.76V40.32a5.76 5.76 0 0 1-5.76 5.76H8.664a5.76 5.76 0 0 1-5.76-5.76V19.187Z" fill="#F41921"/><path d="M14.143 34.21c0 1.12-.895 2.03-2 2.03-1.104 0-2-.91-2-2.03 0-1.121.896-2.03 2-2.03 1.105 0 2 .909 2 2.03Z" fill="#F41921"/><path d="M26.6 14.67c0 1.122-.896 2.03-2 2.03-1.105 0-2-.908-2-2.03 0-1.12.895-2.03 2-2.03 1.104 0 2 .91 2 2.03Z" fill="#000"/><path d="M20.68 34.21c0 1.12-.895 2.03-2 2.03-1.104 0-2-.91-2-2.03 0-1.121.896-2.03 2-2.03 1.105 0 2 .909 2 2.03Z" fill="#F41921"/><path d="M33.137 14.67c0 1.122-.896 2.03-2 2.03-1.105 0-2-.908-2-2.03 0-1.12.895-2.03 2-2.03 1.104 0 2 .91 2 2.03Z" fill="#000"/><path d="M27.218 34.21c0 1.12-.896 2.03-2 2.03-1.105 0-2-.91-2-2.03 0-1.121.895-2.03 2-2.03 1.104 0 2 .909 2 2.03Z" fill="#F41921"/><path d="M39.674 14.67c0 1.122-.895 2.03-2 2.03-1.104 0-2-.908-2-2.03 0-1.12.896-2.03 2-2.03 1.105 0 2 .91 2 2.03Z" fill="#000"/></svg>