<svg width="49" height="48" fill="none" xmlns="http://www.w3.org/2000/svg"><path d="M7.007 28.438a6.276 6.276 0 0 1 0-8.876l13.539-13.54a6.276 6.276 0 0 1 8.876 0l13.539 13.54a6.276 6.276 0 0 1 0 8.876l-13.54 13.54a6.276 6.276 0 0 1-8.875 0l-13.54-13.54Z" fill="#fff"/><path fill-rule="evenodd" clip-rule="evenodd" d="M6.214 29.23a7.397 7.397 0 0 1 0-10.46l13.54-13.54a7.397 7.397 0 0 1 10.46 0l13.54 13.54a7.397 7.397 0 0 1 0 10.46l-13.54 13.54a7.397 7.397 0 0 1-10.46 0L6.213 29.23ZM7.8 20.355a5.156 5.156 0 0 0 0 7.29l13.54 13.54a5.155 5.155 0 0 0 7.29 0l13.54-13.54a5.156 5.156 0 0 0 0-7.29L28.63 6.815a5.155 5.155 0 0 0-7.29 0L7.8 20.355Z" fill="#000"/><path fill-rule="evenodd" clip-rule="evenodd" d="M24.984 10.755c.619 0 1.12.502 1.12 1.12v14.96a1.12 1.12 0 1 1-2.24 0v-14.96c0-.618.5-1.12 1.12-1.12Z" fill="#ED1C24"/><path d="M26.211 33.393a1.174 1.174 0 1 1-2.348 0 1.174 1.174 0 0 1 2.348 0Z" fill="#ED1C24"/></svg>