<svg width="518" height="377" fill="none" xmlns="http://www.w3.org/2000/svg"><path d="M8.988 95.829c0-5.513 4.471-9.982 9.986-9.982h488.333c5.516 0 9.987 4.469 9.987 9.982v270.515c0 5.513-4.471 9.982-9.987 9.982H18.974c-5.515 0-9.986-4.469-9.986-9.982V95.829Z" fill="#2D2D2D"/><path fill-rule="evenodd" clip-rule="evenodd" d="M358.771 137.599v.004c-4.662.126-8.414 3.898-8.506 8.566h-.003a8.748 8.748 0 0 0-8.636-8.569v-.004a8.746 8.746 0 0 0 8.505-8.566h.004a8.748 8.748 0 0 0 8.636 8.569Z" fill="#ED1C24"/><path fill-rule="evenodd" clip-rule="evenodd" d="M78.787 234.79v.004a8.747 8.747 0 0 0-8.505 8.567h-.004a8.747 8.747 0 0 0-8.636-8.569v-.004a8.747 8.747 0 0 0 8.506-8.567h.004a8.747 8.747 0 0 0 8.635 8.569Zm66.427 61.431v.003a6.4 6.4 0 0 0-6.224 6.269h-.003a6.401 6.401 0 0 0-6.32-6.271v-.003a6.4 6.4 0 0 0 6.225-6.269h.003a6.401 6.401 0 0 0 6.319 6.271Zm284.357-143.556v.003a6.401 6.401 0 0 0-6.225 6.269h-.002a6.402 6.402 0 0 0-6.32-6.271v-.003a6.4 6.4 0 0 0 6.224-6.269h.003a6.401 6.401 0 0 0 6.32 6.271Z" fill="#fff"/><mask id="a" style="mask-type:alpha" maskUnits="userSpaceOnUse" x="121" y="150" width="397" height="227"><path d="M121.834 180.677c0-16.539 13.413-29.947 29.959-29.947h335.542c16.545 0 29.959 13.408 29.959 29.947V346.38c0 16.539-13.414 29.946-29.959 29.946H151.793c-16.546 0-29.959-13.407-29.959-29.946V180.677Z" fill="#2D2D2D"/></mask><g mask="url(#a)"><path d="M422.774 272.837c2.614 31.868-21.112 59.821-52.994 62.434-31.881 2.614-59.846-21.102-62.46-52.97-2.614-31.869 21.112-59.821 52.994-62.435 31.882-2.613 59.846 21.102 62.46 52.971Z" fill="#F7F7F7"/><path fill-rule="evenodd" clip-rule="evenodd" d="M483.338 248.49c5.148-6.146 6.961-11.353 5.577-15.386-1.384-4.033-6.011-7.031-13.85-8.724-7.769-1.679-18.356-1.997-31.047-.976-25.366 2.042-58.903 9.413-94.584 21.648-35.68 12.235-66.683 26.995-87.962 40.948-10.645 6.981-18.808 13.729-23.911 19.821-5.148 6.147-6.961 11.353-5.577 15.386 1.384 4.033 6.012 7.031 13.85 8.725 7.769 1.679 18.356 1.997 31.047.975 25.366-2.041 58.904-9.413 94.584-21.648 35.681-12.235 66.683-26.995 87.962-40.948 10.646-6.981 18.809-13.728 23.911-19.821Zm-111.549 61.713c71.472-24.507 124.333-59.171 118.071-77.423-6.263-18.251-69.279-13.18-140.75 11.328s-124.333 59.172-118.07 77.423c6.262 18.252 69.278 13.18 140.749-11.328Z" fill="#fff"/><path fill-rule="evenodd" clip-rule="evenodd" d="m544.195 217.052-.969.239a10.225 10.225 0 0 0-.586-1.707l.912-.407c.135.303.256.61.363.924.108.313.201.63.28.951Zm-1.603-3.607-.83.556a11.977 11.977 0 0 0-1.143-1.444l.734-.676c.462.501.875 1.022 1.239 1.564Zm-2.67-2.923-.641.765a17.328 17.328 0 0 0-1.496-1.118l.557-.829c.564.378 1.09.772 1.58 1.182Zm-3.29-2.219-.481.875c-.54-.297-1.11-.583-1.709-.858l.416-.907c.62.284 1.211.581 1.774.89Zm-3.592-1.658-.362.931a38.275 38.275 0 0 0-1.853-.664l.313-.948c.656.217 1.291.444 1.902.681Zm-3.768-1.252-.273.96a50.932 50.932 0 0 0-1.922-.505l.236-.97c.671.163 1.324.335 1.959.515Zm-3.86-.944-.205.977a67.674 67.674 0 0 0-1.961-.381l.176-.983c.678.122 1.342.251 1.99.387Zm-3.912-.706-.152.987a79.758 79.758 0 0 0-1.968-.278l.129-.99a88.45 88.45 0 0 1 1.991.281Zm-3.948-.515-.108.993a92.237 92.237 0 0 0-1.96-.195l.09-.995c.669.061 1.329.126 1.978.197Zm-3.977-.359-.072.995c-.639-.046-1.287-.088-1.944-.126l.058-.996c.661.038 1.314.08 1.958.127Zm-3.969-.227-.043.997a149.34 149.34 0 0 0-1.957-.069l.029-.998c.665.019 1.322.042 1.971.07Zm-3.951-.115-.016.998c-.664-.011-1.335-.018-2.013-.021l.005-.998c.682.003 1.357.01 2.024.021Zm-3.978-.02c-.656.005-1.319.012-1.987.023l.016.998c.666-.011 1.325-.018 1.977-.022l-.006-.999Zm-4.008.067.026.998c-.642.017-1.29.037-1.944.06l-.035-.997c.656-.024 1.307-.044 1.953-.061Zm-3.939.14.044.998c-.664.029-1.334.062-2.01.097l-.052-.996c.678-.036 1.351-.069 2.018-.099Zm-3.973.21.061.996c-.653.04-1.31.082-1.971.127l-.068-.996c.664-.045 1.323-.088 1.978-.127Zm-3.985.272.075.995c-.649.049-1.303.101-1.962.156l-.082-.995c.661-.055 1.317-.107 1.969-.156Zm-3.937.325.089.994c-.658.059-1.32.12-1.986.184l-.095-.994c.668-.064 1.332-.125 1.992-.184Zm-3.982.381.102.993c-.646.066-1.296.134-1.949.205l-.107-.992c.655-.071 1.307-.14 1.954-.206Zm-3.931.425.113.992c-.661.075-1.325.152-1.993.232l-.118-.991c.669-.08 1.335-.158 1.998-.233Zm-3.956.472c-.65.081-1.304.165-1.96.25l.129.99a403.34 403.34 0 0 1 1.955-.249l-.124-.991Zm-3.939.513.134.989c-.659.089-1.321.18-1.986.274l-.139-.989c.666-.093 1.33-.185 1.991-.274Zm-3.935.552.144.988c-.649.094-1.301.19-1.956.288l-.148-.987c.656-.098 1.31-.195 1.96-.289Zm-3.938.59.153.986a978.2 978.2 0 0 0-1.971.309l-.157-.985c.661-.105 1.32-.209 1.975-.31Zm-3.918.623.161.985c-.648.106-1.299.214-1.953.323l-.165-.984c.655-.11 1.307-.218 1.957-.324Zm-3.93.659.17.984c-.652.112-1.307.226-1.963.341l-.174-.983c.658-.116 1.314-.23 1.967-.342Zm-3.905.688.177.982c-.648.117-1.297.235-1.949.355l-.181-.982c.653-.12 1.304-.239 1.953-.355Zm-3.918.721.184.981c-.651.122-1.305.246-1.96.372l-.189-.98c.657-.126 1.312-.251 1.965-.373Zm-3.898.747.192.98c-.645.126-1.293.254-1.942.383l-.195-.979 1.945-.384Zm-3.902.778.199.978c-.653.132-1.307.266-1.963.402l-.202-.978c.657-.136 1.313-.27 1.966-.402Zm-3.893.803c-.644.135-1.289.272-1.937.41l.209.977c.646-.138 1.291-.275 1.934-.41l-.206-.977Zm-3.884.829.211.976c-.649.141-1.301.283-1.954.427l-.215-.975c.654-.144 1.307-.287 1.958-.428Zm-3.891.857.218.974c-.64.143-1.282.288-1.925.434l-.221-.974c.644-.146 1.287-.291 1.928-.434Zm-3.865.877.223.973c-.646.148-1.294.299-1.943.45l-.227-.972c.65-.152 1.299-.302 1.947-.451Zm-3.89.907.23.972c-.638.15-1.276.303-1.917.456l-.232-.971c.641-.153 1.28-.306 1.919-.457Zm-3.847.922c-.644.156-1.289.314-1.935.473l.238.969c.646-.159 1.29-.316 1.933-.472l-.236-.97Zm-3.879.953.241.969-1.918.48-.244-.968 1.921-.481Zm-3.838.967.247.967c-.64.163-1.28.327-1.922.493l-.25-.967c.643-.166 1.285-.33 1.925-.493Zm-3.857.994.252.966c-.643.167-1.287.336-1.932.506l-.254-.965 1.934-.507Zm-3.842 1.012.258.965c-.636.169-1.274.34-1.912.512l-.259-.964 1.913-.513Zm-3.834 1.033.263.963-1.925.527-.265-.963 1.927-.527Zm-3.846 1.058.267.962c-.632.175-1.266.352-1.9.53l-.27-.961 1.903-.531Zm-3.812 1.07.272.96c-.637.18-1.274.362-1.913.544l-.274-.959c.639-.183 1.277-.365 1.915-.545Zm-3.836 1.097.278.959c-.635.183-1.27.367-1.906.553l-.279-.958c.637-.186 1.272-.371 1.907-.554Zm-3.806 1.11.282.957-1.901.562-.284-.957 1.903-.562Zm-3.811 1.132.286.956-1.911.575-.289-.955 1.914-.576Zm-3.812 1.152.291.955-1.89.579-.294-.954 1.893-.58Zm-3.79 1.166.296.954-1.898.591-.299-.952 1.901-.593Zm-3.806 1.192.3.951-1.889.599-.302-.951c.631-.201 1.261-.401 1.891-.599Zm-3.778 1.202.306.95c-.629.202-1.258.404-1.888.608l-.307-.95c.63-.204 1.26-.406 1.889-.608Zm-3.783 1.223.31.949-1.895.621-.312-.949 1.897-.621Zm-3.783 1.244.315.947-1.878.624-.316-.947 1.879-.624Zm-3.761 1.255.318.946-1.883.636-.321-.945 1.886-.637Zm-3.774 1.28.323.944-.945.324-.943.324-.326-.944.945-.325.946-.323Zm-3.776 1.299.327.943-1.877.654-.33-.942 1.88-.655Zm-3.753 1.312.332.941c-.623.219-1.245.439-1.865.659l-.334-.941 1.867-.659Zm-3.738 1.325.336.94c-.626.224-1.252.448-1.876.673l-.339-.939 1.879-.674Zm-3.751 1.351.34.938-1.863.678-.343-.937c.621-.227 1.243-.454 1.866-.679Zm-3.725 1.36.345.937c-.621.228-1.24.457-1.859.686l-.347-.936 1.861-.687Zm-3.733 1.384.349.935c-.622.232-1.242.465-1.862.698l-.352-.934c.621-.234 1.242-.467 1.865-.699Zm-3.722 1.4.354.933-1.848.703-.356-.932a652.5 652.5 0 0 1 1.85-.704Zm-3.703 1.413.358.932-1.861.718-.361-.93c.62-.241 1.241-.48 1.864-.72Zm-3.72 1.441.363.93-1.846.723-.365-.929c.614-.242 1.23-.483 1.848-.724Zm-3.688 1.45.367.928-1.843.732-.37-.927c.614-.245 1.229-.489 1.846-.733Zm-3.701 1.476.372.926c-.616.247-1.231.495-1.844.743l-.375-.925c.614-.248 1.23-.497 1.847-.744Zm-3.685 1.491.378.924-1.827.747-.379-.923c.608-.25 1.217-.499 1.828-.748Zm-3.67 1.507.382.922-1.842.765-.384-.921c.613-.256 1.228-.511 1.844-.766Zm-3.679 1.534.386.92c-.609.256-1.217.512-1.823.769l-.389-.919c.607-.257 1.215-.514 1.826-.77Zm-3.642 1.541.391.918-1.836.786-.394-.917c.611-.263 1.224-.525 1.839-.787Zm-3.672 1.577.397.916-1.82.79-.399-.915c.606-.264 1.213-.528 1.822-.791Zm-3.634 1.584.402.914-1.809.798-.404-.913 1.811-.799Zm-3.641 1.613.407.911-1.815.813-.41-.91c.604-.272 1.21-.543 1.818-.814Zm-3.625 1.63c-.601.272-1.199.544-1.796.817l.415.908 1.793-.816-.412-.909Zm-3.61 1.649.418.906c-.606.279-1.209.558-1.811.838l-.421-.906 1.814-.838Zm-3.615 1.678.423.904c-.597.279-1.192.559-1.786.839l-.426-.903 1.789-.84Zm-3.578 1.687.429.902c-.604.287-1.206.575-1.805.862l-.432-.9c.6-.288 1.203-.576 1.808-.864Zm-3.603 1.728.435.899c-.595.288-1.188.575-1.778.863l-.438-.897c.591-.288 1.185-.577 1.781-.865Zm-3.548 1.731.441.895-1.797.888-.444-.895a758.8 758.8 0 0 1 1.8-.888Zm-3.586 1.779.447.892c-.592.296-1.181.593-1.768.889l-.45-.891a417.22 417.22 0 0 1 1.771-.89Zm-3.527 1.781.453.889c-.595.303-1.187.606-1.777.909l-.456-.887c.59-.304 1.184-.608 1.78-.911Zm-3.557 1.828.461.886c-.589.305-1.174.61-1.757.915l-.463-.884 1.759-.917Zm-3.502 1.834.467.883c-.589.311-1.176.623-1.759.935l-.471-.881 1.763-.937Zm-3.525 1.883.474.878c-.584.315-1.164.629-1.741.944l-.478-.877c.578-.315 1.16-.63 1.745-.945Zm-3.471 1.89.482.874c-.586.322-1.167.644-1.746.966l-.485-.873c.58-.322 1.163-.644 1.749-.967Zm-3.495 1.943.489.87c-.577.325-1.151.649-1.721.973l-.494-.868c.572-.325 1.147-.65 1.726-.975Zm-3.43 1.948.497.866c-.582.334-1.161.669-1.736 1.002l-.502-.863 1.741-1.005Zm-3.464 2.012.506.861c-.57.335-1.135.669-1.697 1.003l-.51-.858c.563-.335 1.13-.67 1.701-1.006Zm-3.394 2.018.515.855a351.8 351.8 0 0 0-1.715 1.04l-.52-.853c.569-.347 1.143-.694 1.72-1.042Zm-3.415 2.082.524.85c-.559.345-1.114.69-1.664 1.034l-.53-.846c.552-.346 1.109-.692 1.67-1.038Zm-3.361 2.103.535.843c-.565.358-1.126.716-1.681 1.074l-.54-.84c.557-.358 1.119-.717 1.686-1.077Zm-3.344 2.151.546.836a277 277 0 0 0-1.644 1.081l-.552-.832c.545-.361 1.095-.723 1.65-1.085Zm-3.323 2.202.558.828c-.55.371-1.095.74-1.634 1.109l-.564-.823c.541-.371 1.088-.742 1.64-1.114Zm-3.251 2.225.57.819c-.555.387-1.104.772-1.647 1.156l-.577-.814c.545-.386 1.096-.773 1.654-1.161Zm-3.271 2.317.585.809c-.53.383-1.054.764-1.572 1.145l-.592-.804c.52-.382 1.047-.766 1.579-1.15Zm-3.201 2.356.6.798c-.532.399-1.057.798-1.575 1.195l-.608-.792c.521-.399 1.048-.8 1.583-1.201Zm-3.127 2.399.617.785c-.533.418-1.059.836-1.576 1.251l-.625-.778c.52-.418 1.048-.837 1.584-1.258Zm-3.12 2.509.636.77c-.51.42-1.011.839-1.503 1.256l-.646-.762c.496-.42 1-.841 1.513-1.264Zm-3.039 2.577.657.752c-.495.432-.981.863-1.456 1.292l-.669-.742c.48-.432.969-.866 1.468-1.302Zm-2.946 2.657.681.73a99.79 99.79 0 0 0-1.427 1.356l-.695-.717c.469-.454.949-.91 1.441-1.369Zm-2.842 2.754.709.703c-.474.479-.935.954-1.383 1.427l-.725-.686c.453-.478.919-.96 1.399-1.444Zm-2.721 2.876.743.667a67.953 67.953 0 0 0-1.315 1.504l-.762-.645c.429-.505.874-1.014 1.334-1.526Zm-2.571 3.031.782.621a50.037 50.037 0 0 0-1.207 1.579l-.805-.591c.39-.532.801-1.069 1.23-1.609Zm-2.352 3.204.829.557a38.51 38.51 0 0 0-1.056 1.661l-.857-.512c.337-.563.698-1.131 1.084-1.706Zm-2.048 3.427.886.461c-.304.584-.578 1.16-.823 1.726l-.917-.395c.255-.59.54-1.187.854-1.792Zm-1.567 3.659.948.313a17.483 17.483 0 0 0-.493 1.8l-.977-.21a18.57 18.57 0 0 1 .522-1.903Zm-.817 3.854.995.083a11.959 11.959 0 0 0-.016 1.842l-.996.07a12.93 12.93 0 0 1 .017-1.995Zm.288 3.952a11.283 11.283 0 0 0 .644 1.875l.912-.407a9.982 9.982 0 0 1-.586-1.707l-.97.239Zm1.604 3.607.83-.556c.333.497.714.978 1.143 1.443l-.734.677a12.993 12.993 0 0 1-1.239-1.564Zm2.67 2.923.641-.765c.461.386.959.758 1.495 1.118l-.556.829a18.405 18.405 0 0 1-1.58-1.182Zm3.29 2.219.481-.875c.54.297 1.11.583 1.709.858l-.417.907a27.641 27.641 0 0 1-1.773-.89Zm3.592 1.658.361-.931c.595.231 1.213.452 1.854.664l-.313.948a39.621 39.621 0 0 1-1.902-.681Zm3.768 1.252.272-.96c.623.176 1.264.345 1.923.505l-.236.97a53.433 53.433 0 0 1-1.959-.515Zm3.86.944.204-.977c.639.134 1.293.261 1.962.381l-.176.982a67.014 67.014 0 0 1-1.99-.386Zm3.912.706.152-.987c.643.099 1.299.191 1.968.278l-.129.99a87.645 87.645 0 0 1-1.991-.281Zm3.948.515.108-.993c.643.07 1.296.135 1.96.195l-.09.994c-.67-.06-1.329-.126-1.978-.196Zm3.976.359c.645.047 1.298.089 1.959.127l.057-.997a114.06 114.06 0 0 1-1.943-.126l-.073.996Zm3.97.227.042-.997c.645.027 1.297.05 1.958.069l-.029.998c-.665-.019-1.322-.042-1.971-.07Zm3.951.115.016-.998c.664.011 1.334.018 2.012.021l-.004.998c-.682-.003-1.357-.01-2.024-.021Zm3.978.019c.656-.004 1.318-.011 1.987-.022l-.016-.998c-.666.011-1.325.018-1.978.022l.007.998Zm4.008-.066-.027-.998c.643-.017 1.291-.037 1.944-.06l.036.997c-.657.024-1.308.044-1.953.061Zm3.939-.14-.044-.998c.664-.029 1.334-.062 2.009-.098l.053.997c-.678.036-1.351.069-2.018.099Zm3.972-.21-.06-.996c.652-.04 1.309-.082 1.971-.127l.068.996c-.664.045-1.324.087-1.979.127Zm3.986-.272-.075-.995c.649-.05 1.303-.101 1.961-.156l.083.995c-.661.055-1.317.107-1.969.156Zm3.936-.325c.66-.059 1.325-.12 1.993-.184l-.095-.994c-.666.064-1.329.125-1.986.184l.088.994Zm3.982-.381-.101-.993c.646-.066 1.296-.135 1.949-.205l.107.992c-.655.071-1.307.14-1.955.206Zm3.932-.425-.113-.992c.661-.075 1.325-.152 1.993-.232l.118.991c-.67.08-1.336.158-1.998.233Zm3.956-.472c.65-.081 1.303-.165 1.96-.25l-.129-.99c-.655.085-1.307.168-1.955.249l.124.991Zm3.939-.513a428.15 428.15 0 0 0 1.991-.274l-.139-.989c-.665.093-1.327.185-1.986.274l.134.989Zm3.935-.552-.144-.988c.649-.094 1.301-.19 1.956-.288l.148.987c-.656.098-1.31.195-1.96.289Zm3.937-.59-.152-.987c.654-.101 1.311-.204 1.971-.309l.157.986c-.661.105-1.32.209-1.976.31Zm3.918-.623-.161-.985c.649-.106 1.3-.214 1.954-.324l.165.985c-.655.11-1.308.218-1.958.324Zm3.93-.659-.169-.984c.652-.112 1.306-.226 1.963-.342l.173.984c-.658.115-1.313.23-1.967.342Zm3.906-.688-.177-.982c.647-.117 1.297-.235 1.949-.355l.18.982c-.653.12-1.303.238-1.952.355Zm3.918-.721-.185-.981c.652-.122 1.305-.247 1.961-.372l.188.98c-.657.126-1.312.25-1.964.373Zm3.897-.747-.191-.98a601.56 601.56 0 0 0 1.941-.383l.196.979-1.946.384Zm3.903-.778-.199-.978c.652-.132 1.307-.266 1.963-.402l.202.978c-.657.135-1.313.27-1.966.402Zm3.892-.803-.205-.977c.643-.135 1.288-.272 1.934-.41l.208.977c-.647.138-1.293.274-1.937.41Zm3.885-.829 1.958-.428-.215-.975c-.653.144-1.305.286-1.955.427l.212.976Zm3.89-.857-.218-.974a573.09 573.09 0 0 0 1.926-.434l.221.974-1.929.434Zm3.866-.877-.224-.973a886.32 886.32 0 0 0 1.944-.45l.227.972c-.65.152-1.299.302-1.947.451Zm3.89-.907-.23-.972 1.916-.456.233.971-1.919.457Zm3.847-.922c.643-.156 1.289-.314 1.935-.473l-.238-.969c-.646.159-1.29.316-1.933.472l.236.97Zm3.879-.953c.639-.159 1.279-.32 1.92-.481l-.243-.968-1.918.48.241.969Zm3.838-.967-.247-.967c.64-.163 1.28-.327 1.922-.493l.249.967c-.642.166-1.284.33-1.924.493Zm3.856-.994 1.935-.507-.254-.965c-.646.17-1.29.339-1.933.506l.252.966Zm3.842-1.013-.257-.964c.636-.17 1.273-.34 1.911-.512l.26.964c-.639.172-1.277.343-1.914.512Zm3.835-1.032-.263-.963c.641-.175 1.282-.35 1.924-.527l.265.963c-.643.177-1.285.352-1.926.527Zm3.846-1.058-.268-.962c.633-.175 1.267-.352 1.901-.53l.27.961-1.903.531Zm3.812-1.07-.272-.96c.636-.18 1.274-.362 1.912-.545l.275.96c-.639.183-1.277.365-1.915.545Zm3.835-1.097-.277-.959c.634-.183 1.269-.367 1.905-.553l.28.958c-.637.186-1.273.371-1.908.554Zm3.806-1.11c.634-.186 1.268-.374 1.904-.562l-.285-.957-1.901.562.282.957Zm3.812-1.132-.287-.956c.637-.191 1.274-.382 1.911-.575l.289.955-1.913.576Zm3.812-1.152-.292-.955 1.891-.579.293.954-1.892.58Zm3.789-1.166-.296-.954 1.899-.591.299.952-1.902.593Zm3.807-1.192c.63-.198 1.26-.398 1.891-.599l-.303-.951c-.63.2-1.26.4-1.889.598l.301.952Zm3.777-1.202-.305-.95 1.888-.608.307.949-1.89.609Zm3.784-1.223-.31-.949 1.14-.373.755-.248.312.948c-.633.209-1.265.416-1.897.622Zm3.782-1.244-.314-.947a824.17 824.17 0 0 0 1.877-.624l.317.946c-.627.21-1.254.418-1.88.625Zm3.762-1.255-.319-.946 1.884-.637.321.946-1.886.637Zm3.774-1.28.945-.323.945-.325-.325-.944-.944.324-.944.324.323.944Zm3.776-1.3-.328-.943 1.878-.653.329.942c-.625.219-1.252.437-1.879.654Zm3.753-1.311-.332-.941 1.865-.659.334.94c-.621.221-1.244.441-1.867.66Zm3.737-1.325-.336-.94 1.877-.673.338.939-1.879.674Zm3.752-1.351-.341-.938 1.864-.678.343.937-1.866.679Zm3.725-1.36-.345-.937c.621-.228 1.24-.457 1.859-.686l.347.935c-.619.23-1.24.459-1.861.688Zm3.733-1.384-.35-.935 1.863-.698.351.934c-.62.234-1.241.466-1.864.699Zm3.722-1.4-.354-.933 1.089-.414.759-.289.356.932a652.5 652.5 0 0 1-1.85.704Zm3.703-1.413 1.864-.72-.361-.93-1.862.718.359.932Zm3.72-1.441-.363-.93 1.846-.723.365.929-1.848.724Zm3.688-1.45-.367-.928 1.843-.732.37.927c-.614.245-1.229.489-1.846.733Zm3.701-1.476-.372-.926c.616-.247 1.231-.495 1.844-.744l.375.926-1.847.744Zm3.684-1.491-.377-.924 1.827-.747.379.923c-.608.25-1.218.499-1.829.748Zm3.67-1.507c.617-.255 1.232-.51 1.845-.766l-.384-.921-1.843.765.382.922Zm3.68-1.534-.387-.92c.61-.256 1.218-.512 1.824-.769l.389.919c-.607.257-1.216.514-1.826.77Zm3.642-1.541-.392-.918 1.837-.786.394.917c-.611.263-1.224.525-1.839.787Zm3.672-1.577-.397-.916 1.82-.79.399.915c-.606.264-1.213.528-1.822.791Zm3.634-1.584-.402-.914 1.808-.798.405.913-1.811.799Zm3.64-1.613-.407-.911a446.35 446.35 0 0 0 1.816-.814l.41.911c-.604.272-1.211.543-1.819.814Zm3.626-1.63-.412-.909 1.792-.816.415.908c-.596.273-1.195.545-1.795.817Zm3.609-1.649-.417-.907c.605-.278 1.209-.558 1.811-.837l.42.906c-.602.279-1.207.559-1.814.838Zm3.616-1.678-.424-.904c.598-.279 1.193-.559 1.786-.839l.427.903-1.789.84Zm3.578-1.688-.429-.901c.604-.287 1.206-.575 1.805-.862l.432.9c-.601.288-1.203.576-1.808.863Zm3.603-1.727-.435-.899 1.778-.863.438.897-1.781.865Zm3.548-1.731-.441-.895c.601-.296 1.2-.592 1.796-.888l.444.894c-.597.297-1.197.593-1.799.889Zm3.586-1.779-.447-.892 1.768-.889.45.891c-.588.297-1.178.594-1.771.89Zm3.527-1.781-.453-.889a583.21 583.21 0 0 0 1.777-.909l.456.887c-.59.304-1.184.608-1.78.911Zm3.556-1.828-.46-.886c.588-.305 1.174-.61 1.756-.916l.464.885c-.584.305-1.17.611-1.76.917Zm3.502-1.834-.467-.883c.59-.311 1.176-.623 1.76-.935l.47.881c-.584.312-1.172.624-1.763.937Zm3.526-1.883-.474-.879c.584-.314 1.164-.629 1.741-.943l.478.877c-.579.315-1.16.63-1.745.945Zm3.47-1.89-.481-.874c.585-.322 1.167-.644 1.746-.966l.485.872c-.58.323-1.163.645-1.75.968Zm3.496-1.943-.489-.87a506.04 506.04 0 0 0 1.721-.973l.493.868c-.571.325-1.146.65-1.725.975Zm3.43-1.949-.497-.865c.582-.335 1.161-.669 1.736-1.003l.501.863c-.576.335-1.156.67-1.74 1.005Zm3.464-2.012-.506-.86c.569-.335 1.135-.669 1.697-1.003l.51.858c-.563.335-1.13.67-1.701 1.005Zm3.393-2.017-.515-.856c.577-.346 1.149-.693 1.716-1.039l.52.852c-.569.347-1.143.695-1.721 1.043Zm3.416-2.082-.525-.85c.56-.345 1.114-.69 1.665-1.034l.53.846c-.553.346-1.109.691-1.67 1.038Zm3.361-2.103-.535-.843c.565-.358 1.125-.716 1.681-1.074l.54.84c-.557.358-1.119.717-1.686 1.077Zm3.344-2.151-.546-.836a277 277 0 0 0 1.644-1.081l.551.832c-.545.361-1.095.723-1.649 1.085Zm3.322-2.202-.557-.828c.55-.371 1.095-.74 1.634-1.109l.564.823c-.541.371-1.088.742-1.641 1.114Zm3.252-2.225c.557-.388 1.109-.775 1.654-1.161l-.578-.815c-.542.385-1.091.77-1.646 1.157l.57.819Zm3.27-2.317-.584-.809a271.7 271.7 0 0 0 1.572-1.145l.591.804c-.52.382-1.046.766-1.579 1.15Zm3.202-2.356-.6-.798c.532-.399 1.057-.798 1.575-1.195l.608.792c-.521.399-1.049.8-1.583 1.201Zm3.126-2.399-.616-.785c.533-.419 1.058-.836 1.575-1.251l.626.778c-.52.418-1.048.837-1.585 1.258Zm3.121-2.509-.636-.77c.51-.42 1.01-.839 1.503-1.256l.645.761c-.495.42-.999.842-1.512 1.265Zm3.038-2.577-.657-.752c.496-.433.981-.863 1.457-1.292l.669.741c-.48.433-.969.867-1.469 1.303Zm2.947-2.657-.682-.73c.488-.454.963-.907 1.428-1.356l.695.716c-.469.455-.95.911-1.441 1.37Zm2.842-2.754-.709-.703c.474-.479.935-.955 1.382-1.427l.726.686c-.453.478-.919.96-1.399 1.444Zm2.72-2.876-.742-.667c.455-.506.893-1.007 1.315-1.504l.762.645a70.358 70.358 0 0 1-1.335 1.526Zm2.571-3.031-.782-.621c.423-.531.825-1.057 1.208-1.579l.805.591a53.636 53.636 0 0 1-1.231 1.609Zm2.353-3.205-.829-.556a38.51 38.51 0 0 0 1.056-1.661l.857.512a39.32 39.32 0 0 1-1.084 1.705Zm2.048-3.426-.886-.461c.304-.584.578-1.16.823-1.726l.916.395c-.254.59-.539 1.187-.853 1.792Zm1.567-3.659-.949-.313c.203-.613.367-1.213.494-1.801l.976.211a18.63 18.63 0 0 1-.521 1.903Zm.816-3.854-.995-.083c.053-.631.059-1.245.017-1.842l.996-.07c.045.651.039 1.316-.018 1.995Z" fill="#fff" fill-opacity=".47"/><path fill-rule="evenodd" clip-rule="evenodd" d="M572.904 219.211c1.705-4.162 1.994-7.865.887-11.094-1.108-3.228-3.61-5.973-7.512-8.214-3.909-2.244-9.172-3.948-15.674-5.093-13.005-2.291-30.764-2.315-52.05-.162-42.557 4.304-98.989 17.28-159.193 37.925-60.205 20.644-112.723 45.027-148.962 67.743-18.126 11.362-32.132 22.278-40.991 32.066-4.431 4.895-7.539 9.469-9.247 13.639-1.705 4.163-1.994 7.866-.887 11.094 1.108 3.228 3.61 5.974 7.512 8.214 3.909 2.245 9.172 3.948 15.674 5.094 13.005 2.291 30.764 2.314 52.05.162 42.557-4.304 98.989-17.281 159.193-37.925 60.205-20.645 112.723-45.027 148.962-67.743 18.126-11.363 32.131-22.278 40.991-32.066 4.431-4.895 7.539-9.469 9.247-13.64ZM374.028 333.604c120.51-41.323 210.37-97.651 200.707-125.81-9.662-28.16-115.188-17.489-235.697 23.835-120.51 41.323-210.37 97.65-200.707 125.81 9.662 28.16 115.187 17.489 235.697-23.835Z" fill="url(#b)"/><path d="M360.328 219.952c-31.746 2.603-55.37 30.439-52.767 62.174l114.96-9.424c-2.603-31.735-30.448-55.352-62.193-52.75Z" fill="#F7F7F7"/><path d="M225.006 293.056c.789 9.616-6.37 18.05-15.99 18.838-9.619.789-18.057-6.367-18.845-15.982-.789-9.616 6.37-18.05 15.989-18.838 9.62-.789 18.057 6.367 18.846 15.982Z" fill="#C4C4C4"/><mask id="c" style="mask-type:alpha" maskUnits="userSpaceOnUse" x="190" y="277" width="36" height="35"><path d="M225.006 293.056c.789 9.616-6.37 18.05-15.99 18.838-9.619.789-18.057-6.367-18.845-15.982-.789-9.616 6.37-18.05 15.989-18.838 9.62-.789 18.057 6.367 18.846 15.982Z" fill="#C4C4C4"/></mask><g mask="url(#c)" fill-rule="evenodd" clip-rule="evenodd" fill="#2D2D2D"><path d="m228.932 288.221-49.906-2.751.055-.997 49.906 2.751-.055.997Zm-40.054 8.367 44.314-3.632.081.994-44.313 3.633-.082-.995Zm-4.676 11.535 45.976-8.076.173.983-45.976 8.076-.173-.983Z"/></g><path d="M231.622 368.755c.563 6.868-4.55 12.892-11.421 13.455-6.871.564-12.898-4.548-13.462-11.416-.563-6.868 4.55-12.892 11.421-13.455 6.872-.564 12.898 4.547 13.462 11.416Zm299.965-162.543c.789 9.615-6.37 18.049-15.99 18.838-9.619.788-18.057-6.367-18.845-15.983-.789-9.615 6.37-18.049 15.989-18.838 9.62-.788 18.057 6.367 18.846 15.983Z" fill="#C4C4C4"/><path fill-rule="evenodd" clip-rule="evenodd" d="m539.427 206.848-.004.006.004-.006Zm-.132.141-.017-.012c-.234-.16-.639-.348-1.254-.54-1.218-.38-3.027-.703-5.322-.939-4.574-.472-10.901-.583-17.888-.213-6.987.369-13.267 1.147-17.766 2.098-2.257.477-4.021.989-5.193 1.495-.591.255-.974.485-1.19.67l-.015.013.017.011c.234.161.639.349 1.254.541 1.218.38 3.026.703 5.321.939 4.575.472 10.902.583 17.889.213 6.987-.369 13.266-1.147 17.765-2.098 2.258-.477 4.022-.989 5.194-1.495.591-.256.974-.486 1.189-.67l.016-.013Zm-48.791 2.445.004.006-.004-.006Zm.014.268.004-.006-.004.006Zm48.918-2.592.005.006-.005-.006Zm-24.253 5.152c14.045-.742 25.336-3.129 25.219-5.331-.116-2.203-11.596-3.386-25.641-2.643-14.044.742-25.335 3.129-25.218 5.331.116 2.202 11.596 3.386 25.64 2.643Z" fill="#fff"/><path d="M512.95 189.986c-9.579.785-16.707 9.184-15.922 18.76l34.689-2.843c-.785-9.576-9.187-16.703-18.767-15.917Z" fill="#C4C4C4"/><path d="M273.227 306.117a7.986 7.986 0 0 1-7.309 8.612 7.987 7.987 0 1 1-1.306-15.918c4.398-.36 8.255 2.911 8.615 7.306Z" fill="#8D8D8D"/><path d="M497.92 284.157a7.986 7.986 0 0 1-7.309 8.611 7.986 7.986 0 1 1-1.306-15.918 7.988 7.988 0 0 1 8.615 7.307Z" fill="#ED1C24"/></g><path d="m157.775 86.424-59.026 66.054c-4.013 4.491-11.45 2.143-12.155-3.837l-7.94-67.31c-.497-4.206 2.835-7.884 7.072-7.804l66.967 1.255c5.977.112 9.064 7.185 5.082 11.642Z" fill="#fff"/><path fill-rule="evenodd" clip-rule="evenodd" d="M86.098 148.699c.756 6.408 8.723 8.923 13.023 4.112l59.026-66.055c4.267-4.775.959-12.353-5.445-12.473l-66.967-1.255c-4.539-.085-8.11 3.855-7.578 8.362l7.94 67.309Zm12.278 3.447c-3.726 4.17-10.632 1.99-11.287-3.563l-7.94-67.31c-.46-3.906 2.633-7.32 6.568-7.247l66.966 1.255c5.55.104 8.417 6.672 4.72 10.81l-59.027 66.055Z" fill="#000"/><path d="M199.392 213.615s-41.466 1.372-25.264-34.836c3.089-7.008 16.226-29.474 9.789-38.088 0 0 23.246 9.708 13.163 31.997-10.385 22.852-6.959 37.756 2.312 40.927Z" fill="#ED1C24"/><path d="M166.488 185.91s-21.061-9.072-2.392-25.978c1.88-1.596 15.906-13.03 16.596-20.535 0 0 5.235 8.733-3.76 21.798-8.953 13.037-13.178 17.566-10.444 24.715Zm51.961-10.007c-4.013 21.599-2.173 32.129 10.257 39.191 0 0-47.455 10.279-26.926-40.072 7.344-18.003-1.063-25.996-1.286-26.337 3.512.802 21.968 5.62 17.955 27.218Z" fill="#ED1C24"/><path d="M179.886 137.014c-4.631 11.629-14.909 24.042-27.827 31.095-2.059 1.124-4.581.717-6.331-.846a5.918 5.918 0 0 1-.471-8.358l24.607-27.536a5.978 5.978 0 0 1 8.44-.476c1.731 1.546 2.44 3.965 1.582 6.121Z" fill="#fff"/><path fill-rule="evenodd" clip-rule="evenodd" d="M145.629 159.238a5.418 5.418 0 0 0 .432 7.653c1.608 1.437 3.904 1.793 5.759.78 12.812-6.995 23.012-19.317 27.602-30.842.772-1.938.143-4.14-1.451-5.564a5.48 5.48 0 0 0-7.735.436l-24.607 27.537Zm-.234 8.398a6.418 6.418 0 0 1-.511-9.063l24.607-27.537a6.478 6.478 0 0 1 9.145-.515c1.869 1.669 2.659 4.304 1.714 6.678-4.673 11.733-15.028 24.238-28.051 31.348-2.263 1.236-5.012.778-6.904-.911Z" fill="#000"/><path d="M176.05 131.016c-5.208 13.079-16.767 27.04-31.295 34.972-2.316 1.265-5.153.806-7.121-.951a6.656 6.656 0 0 1-.53-9.4l27.675-30.97a6.724 6.724 0 0 1 9.492-.535c1.947 1.739 2.745 4.459 1.779 6.884Z" fill="#fff"/><path fill-rule="evenodd" clip-rule="evenodd" d="M137.476 155.969a6.158 6.158 0 0 0 .49 8.696c1.827 1.631 4.437 2.038 6.549.885 14.423-7.874 25.905-21.744 31.071-34.719.879-2.207.162-4.711-1.648-6.327a6.225 6.225 0 0 0-8.787.495l-27.675 30.97Zm-.175 9.44a7.156 7.156 0 0 1-.569-10.105l27.674-30.97a7.224 7.224 0 0 1 10.198-.574c2.084 1.861 2.962 4.798 1.91 7.44-5.25 13.184-16.886 27.236-31.52 35.226-2.52 1.376-5.583.867-7.693-1.017Z" fill="#000"/><path d="M102.466 176.598c6.345-18.421 11.018-27.199 22.53-43.433l14.698 13.126c-6.462 10.711-12.873 20.855-15.346 49.849l-21.882-19.542Z" fill="#fff"/><path fill-rule="evenodd" clip-rule="evenodd" d="m124.911 132.42 15.424 13.774-.214.354-.358.593c-3.11 5.151-6.168 10.216-8.769 17.388-2.701 7.448-4.915 17.188-6.148 31.653l-.085.995-22.876-20.428.108-.313c6.362-18.471 11.059-27.291 22.595-43.56l.323-.456Zm-21.865 44.027 20.891 18.657c1.255-13.985 3.443-23.538 6.118-30.915 2.635-7.266 5.737-12.403 8.845-17.55l.152-.252-13.972-12.478c-11.186 15.817-15.82 24.551-22.034 42.538Z" fill="#000"/><path d="M141.804 223.348s-16.76.554-10.211-14.081c1.248-2.832 6.558-11.912 3.956-15.394 0 0 9.396 3.924 5.321 12.933-4.198 9.236-2.813 15.26.934 16.542Z" fill="#ED1C24"/><path d="M128.505 212.15s-8.512-3.667-.966-10.5c.759-.645 6.428-5.266 6.707-8.3 0 0 2.116 3.53-1.52 8.811-3.618 5.269-5.325 7.1-4.221 9.989Zm21.002-4.045c-1.622 8.73-.878 12.986 4.145 15.84 0 0-19.18 4.155-10.883-16.196 2.969-7.276-.429-10.507-.519-10.645 1.419.324 8.879 2.272 7.257 11.001Z" fill="#ED1C24"/><path d="M121.711 208.093c-12.679-8.094-24.51-19.467-32.234-35.388 0 0-4.293-8.372-3.174-9.624 1.119-1.252 10.169 1.796 10.169 1.796 16.576 5.71 29.581 16.504 38.797 28.043 1.166 4.957-8.848 15.543-13.558 15.173Z" fill="#fff"/><path fill-rule="evenodd" clip-rule="evenodd" d="m89.92 172.477-.136.07.137-.07.005.01c7.654 15.775 19.366 27.064 31.943 35.115.997.032 2.34-.481 3.841-1.446 1.54-.99 3.165-2.404 4.615-3.988 1.451-1.586 2.711-3.325 3.534-4.958.806-1.599 1.151-3.016.946-4.07-9.165-11.447-22.07-22.133-38.494-27.791h-.002l-.002-.001-.02-.007-.074-.024a71.894 71.894 0 0 0-4.528-1.324c-1.194-.301-2.404-.558-3.376-.664-.487-.053-.893-.065-1.197-.034a1.482 1.482 0 0 0-.34.069c-.075.027-.097.05-.097.05s-.018.022-.035.094a1.332 1.332 0 0 0-.023.331c.008.296.075.686.193 1.151.236.926.657 2.063 1.121 3.181a63.488 63.488 0 0 0 1.81 3.949l.133.265.035.069.01.018.002.005Zm6.552-7.6.16-.473.002.001c16.685 5.747 29.763 16.607 39.025 28.204l.07.088.026.109c.332 1.414-.141 3.139-1.004 4.853-.874 1.734-2.193 3.548-3.689 5.182-1.496 1.635-3.185 3.109-4.812 4.155-1.604 1.031-3.231 1.701-4.579 1.595l-.124-.01-.105-.067c-12.738-8.132-24.639-19.568-32.412-35.587l-.01-.02-.037-.071-.136-.271a64.693 64.693 0 0 1-1.839-4.011c-.469-1.132-.911-2.322-1.165-3.318-.127-.496-.213-.966-.224-1.367-.011-.375.037-.813.311-1.121.272-.304.702-.407 1.08-.446.404-.042.89-.021 1.408.035 1.04.113 2.302.384 3.51.688a67.78 67.78 0 0 1 3.259.918c.436.134.796.249 1.048.33l.292.096.077.026.027.009-.16.473Z" fill="#000"/><path d="M185.245 83.962c-17.598 8.373-25.798 14.001-40.641 27.26l14.698 13.126c9.921-7.623 19.284-15.13 47.825-20.844l-21.882-19.542Z" fill="#fff"/><path fill-rule="evenodd" clip-rule="evenodd" d="m143.854 111.222 15.424 13.773.328-.252.549-.422c4.771-3.668 9.462-7.275 16.299-10.664 7.099-3.52 16.531-6.813 30.771-9.664l.98-.196-22.875-20.428-.3.142c-17.644 8.395-25.883 14.051-40.759 27.338l-.417.373Zm41.306-26.666 20.892 18.656c-13.761 2.818-23.01 6.064-30.042 9.551-6.926 3.433-11.684 7.092-16.451 10.757l-.233.179-13.973-12.477c14.465-12.889 22.626-18.473 39.807-26.666Z" fill="#000"/><path d="M236.133 117.787s-1.332-16.711-15.143-8.561c-2.675 1.558-11.104 7.852-14.858 5.659 0 0 4.956 8.892 13.453 3.832 8.709-5.207 14.852-4.508 16.548-.93Z" fill="#ED1C24"/><path d="M223.508 105.835s-4.6-8.044-10.545.219c-.556.827-4.512 6.978-7.496 7.596 0 0 3.746 1.705 8.586-2.5 4.831-4.186 6.459-6.088 9.455-5.315Zm-1.661 21.316c8.495-2.592 12.809-2.331 16.211 2.338 0 0 1.974-19.519-17.322-8.991-6.899 3.766-10.492.754-10.639.68.482 1.373 3.255 8.565 11.75 5.973Z" fill="#ED1C24"/><path d="M218.713 99.541c-9.47-11.685-22.104-22.159-38.797-28.044 0 0-8.804-3.324-9.923-2.072-1.119 1.253 2.927 9.9 2.927 9.9 7.538 15.825 19.729 27.53 32.234 35.389 5.058.601 14.456-10.535 13.559-15.173Z" fill="#fff"/><path fill-rule="evenodd" clip-rule="evenodd" d="m179.739 71.964.055-.144-.055.144.01.004c16.541 5.831 29.078 16.197 38.493 27.786.144.986-.215 2.379-1.006 3.978-.811 1.641-2.033 3.413-3.446 5.032-1.413 1.619-3 3.066-4.531 4.067-1.499.98-2.868 1.483-3.938 1.398-12.408-7.819-24.48-19.437-31.949-35.117l-.001-.001-.001-.003-.008-.018-.033-.071-.126-.274a66.636 66.636 0 0 1-1.699-4.076c-.433-1.152-.824-2.325-1.039-3.278-.107-.478-.165-.88-.168-1.186a1.446 1.446 0 0 1 .03-.345c.019-.078.038-.102.038-.102s.02-.02.09-.045a1.33 1.33 0 0 1 .327-.06c.295-.025.69-.003 1.165.062.947.13 2.125.421 3.289.756a63.475 63.475 0 0 1 4.128 1.355l.279.102.072.027.018.007.006.002Zm-6.819 7.361-.452.212.002.003c7.586 15.927 19.851 27.699 32.419 35.596l.095.06.111.013c1.443.172 3.104-.492 4.711-1.542 1.626-1.063 3.28-2.577 4.737-4.247 1.457-1.67 2.732-3.513 3.588-5.246.846-1.709 1.328-3.401 1.072-4.728l-.024-.122-.078-.097c-9.514-11.74-22.219-22.277-39.014-28.199l-.022-.008-.075-.028-.284-.104c-.245-.09-.596-.215-1.02-.362a64.425 64.425 0 0 0-3.174-1.014c-1.178-.34-2.41-.645-3.428-.786-.508-.07-.985-.102-1.385-.069-.374.032-.804.129-1.078.436-.272.304-.327.743-.323 1.122.004.407.079.886.193 1.395.23 1.02.64 2.244 1.079 3.41a67.57 67.57 0 0 0 1.724 4.138l.128.279.034.074.012.026.452-.212Z" fill="#000"/><path d="M131.214 163.584C92.749 139.1 56.861 104.692 33.431 56.522c0 0-13.021-25.33-9.626-29.119 3.396-3.79 30.854 5.429 30.854 5.429 50.292 17.27 89.742 49.925 117.699 84.837 3.535 14.996-26.851 47.034-41.144 45.915Z" fill="#fff"/><path fill-rule="evenodd" clip-rule="evenodd" d="m33.875 56.294-.445.227.445-.227.005.01c23.36 48.026 59.132 82.35 97.496 106.792 3.387.216 7.798-1.494 12.523-4.525 4.76-3.052 9.756-7.391 14.203-12.238 4.448-4.847 8.332-10.186 10.882-15.23 2.533-5.014 3.706-9.652 2.912-13.212-27.907-34.82-67.258-67.37-117.4-84.587l-.002-.001-.015-.005-.058-.02a114.256 114.256 0 0 0-1.104-.36 221.35 221.35 0 0 0-3.15-.99 203.6 203.6 0 0 0-9.785-2.748c-3.637-.914-7.361-1.704-10.378-2.032-1.51-.164-2.822-.21-3.847-.104-1.054.108-1.687.365-1.98.691-.289.323-.464.963-.434 1.992.03 1.003.25 2.263.618 3.701.734 2.873 2.033 6.368 3.445 9.764A192.664 192.664 0 0 0 31.9 52.29a208.969 208.969 0 0 0 1.939 3.933l.027.054.01.018Zm20.783-23.462.16-.473.003.002c50.4 17.306 89.924 50.028 117.927 84.997l.071.087.025.11c.925 3.923-.377 8.871-2.967 13.996-2.601 5.145-6.544 10.558-11.037 15.455-4.494 4.897-9.554 9.295-14.4 12.404-4.825 3.094-9.522 4.964-13.266 4.671l-.124-.01-.105-.067c-38.524-24.522-74.483-58.993-97.962-107.26l-.007-.014-.028-.055a209.646 209.646 0 0 1-1.95-3.955 193.55 193.55 0 0 1-4.116-9.146c-1.418-3.41-2.738-6.957-3.49-9.9-.376-1.469-.616-2.81-.648-3.917-.032-1.082.129-2.062.688-2.686.557-.621 1.524-.906 2.622-1.019 1.126-.115 2.517-.062 4.058.105 3.087.335 6.863 1.139 10.515 2.056a204.78 204.78 0 0 1 9.835 2.761 223.012 223.012 0 0 1 4.276 1.359l.078.026h.002l-.16.473Z" fill="#000"/><path d="M73.424 71.588c-6.265 6.684-12.17 8.103-15.241 7.964-.801-.037-1.52-.438-2.122-.969l-7.05-6.214c-.785-.69-.037-2.585.987-2.794 3.246-.665 7.72-2.72 12.396-7.708 5.183-5.53 6.7-11.015 6.828-14.726.035-1.003 1.51-1.814 2.264-1.15l8.41 7.412c.854 2.849.756 10.474-6.472 18.185Z" fill="#fff"/><path fill-rule="evenodd" clip-rule="evenodd" d="M80.374 53.26c.91 3.032.754 10.839-6.586 18.67-6.348 6.773-12.389 8.267-15.628 8.12-.957-.043-1.78-.52-2.43-1.092l-7.05-6.215c-.317-.28-.456-.661-.488-1.03a2.566 2.566 0 0 1 .166-1.095c.243-.658.782-1.377 1.54-1.532 3.135-.642 7.52-2.64 12.131-7.56 5.1-5.44 6.57-10.81 6.694-14.403.026-.74.563-1.328 1.13-1.624.563-.296 1.368-.406 1.963.118l8.46 7.456-.259.294.357-.107Zm-.918.421-8.3-7.316c-.16-.14-.468-.177-.84.018-.368.193-.586.511-.595.775-.133 3.83-1.696 9.431-6.963 15.05-4.738 5.055-9.303 7.169-12.66 7.856-.267.054-.613.386-.804.9a1.6 1.6 0 0 0-.107.663c.017.188.079.302.153.368l7.051 6.214c.554.488 1.169.815 1.814.844 2.903.132 8.673-1.211 14.855-7.806 7-7.468 7.153-14.792 6.396-17.566Z" fill="#000"/><path d="M76.134 92.833a2.994 2.994 0 0 1-.239-4.228l14.636-16.379a2.996 2.996 0 0 1 4.468 3.99l-14.635 16.38a2.996 2.996 0 0 1-4.23.238Zm10.985 1.997a2.994 2.994 0 0 1-.239-4.23l5.988-6.7a2.996 2.996 0 0 1 4.468 3.99l-5.987 6.701a2.996 2.996 0 0 1-4.23.238Zm10.985 2.994a2.994 2.994 0 1 1 3.991-4.467 2.996 2.996 0 0 1-3.991 4.467Z" fill="#C4C4C4"/><path fill-rule="evenodd" clip-rule="evenodd" d="m273.382 262.764-79.687-59.258.596-.801 79.687 59.258-.596.801Z" fill="url(#d)"/><path fill-rule="evenodd" clip-rule="evenodd" d="m238.848 271.519-104.593-65.772.532-.845 104.593 65.772-.532.845Z" fill="url(#e)"/><path fill-rule="evenodd" clip-rule="evenodd" d="M294.686 216.359 220.653 127l.769-.637 74.033 89.359-.769.637Z" fill="url(#f)"/><path fill-rule="evenodd" clip-rule="evenodd" d="m296.647 256.642-93.493-89.045.689-.722 93.493 89.044-.689.723Z" fill="url(#g)"/><defs><radialGradient id="d" cx="0" cy="0" r="1" gradientUnits="userSpaceOnUse" gradientTransform="matrix(0 29.6291 -39.8437 0 233.837 232.735)"><stop stop-color="#ED1C24" stop-opacity=".78"/><stop offset="1" stop-color="#ED1C24" stop-opacity="0"/></radialGradient><radialGradient id="e" cx="0" cy="0" r="1" gradientUnits="userSpaceOnUse" gradientTransform="matrix(1.69698 35.31635 -50.59912 2.43134 186.816 238.211)"><stop stop-color="#ED1C24" stop-opacity=".78"/><stop offset="1" stop-color="#ED1C24" stop-opacity="0"/></radialGradient><radialGradient id="f" cx="0" cy="0" r="1" gradientUnits="userSpaceOnUse" gradientTransform="matrix(-10.50782 22.21943 -47.51864 -22.4721 258.054 171.361)"><stop stop-color="#ED1C24" stop-opacity=".78"/><stop offset="1" stop-color="#ED1C24" stop-opacity="0"/></radialGradient><radialGradient id="g" cx="0" cy="0" r="1" gradientUnits="userSpaceOnUse" gradientTransform="matrix(0 44.5224 -46.7467 0 250.235 211.793)"><stop stop-color="#ED1C24" stop-opacity=".78"/><stop offset="1" stop-color="#ED1C24" stop-opacity="0"/></radialGradient><linearGradient id="b" x1="339.038" y1="231.629" x2="374.008" y2="333.611" gradientUnits="userSpaceOnUse"><stop stop-color="#fff"/><stop offset="1" stop-color="#fff" stop-opacity="0"/></linearGradient></defs></svg>