<svg width="511" height="318" fill="none" xmlns="http://www.w3.org/2000/svg"><rect x=".452" y="25.966" width="510" height="291.367" rx="10" fill="#2D2D2D"/><path d="M242.526 208.459s-6.187-41.861 32.391-29.633c7.461 2.319 31.754 13.031 39.742 5.511 0 0-7.152 24.68-30.913 17.043-24.366-7.879-39.077-2.683-41.22 7.079Z" fill="#ED1C24"/><path d="M266.804 171.909s6.759-22.392 26.057-5.43c1.835 1.72 15.048 14.61 22.736 14.441 0 0-8.247 6.315-22.531-1.288-14.251-7.563-19.332-11.32-26.262-7.723Zm16.156 51.498c-22.359-1.567-32.82 1.516-38.541 14.929 0 0-15.91-46.9 37.505-31.924 19.099 5.359 26.229-4.086 26.549-4.351-.406 3.652-3.155 22.913-25.513 21.346Z" fill="#ED1C24"/><path d="m371.305 51.328-6.542 160.929c-.176 4.337-5.416 6.405-8.507 3.357l-53.817-53.071a5.013 5.013 0 0 0-2.425-1.32l-69.523-15.478c-4.298-.957-5.35-6.601-1.685-9.042l134.731-89.74c3.4-2.264 7.934.284 7.768 4.365Z" fill="#fff" stroke="#000"/><path d="m386.276 8.735-41.001 24.368 27.793 6.558 20.845 21.36-.082-47.996c-.007-3.873-4.225-6.269-7.555-4.29Z" fill="#fff" stroke="#000" stroke-linejoin="round"/><mask id="a" fill="#fff"><path fill-rule="evenodd" clip-rule="evenodd" d="M391.233 66.008c.142-.212.278-.43.406-.652 4.924-8.528-2.159-21.835-15.82-29.722-13.42-7.748-28.195-7.383-33.38.716l-.011-.007-67.619 117.12 49.448 28.549 66.976-116.004Z"/></mask><path fill-rule="evenodd" clip-rule="evenodd" d="M391.233 66.008c.142-.212.278-.43.406-.652 4.924-8.528-2.159-21.835-15.82-29.722-13.42-7.748-28.195-7.383-33.38.716l-.011-.007-67.619 117.12 49.448 28.549 66.976-116.004Z" fill="#fff"/><path d="m391.233 66.008-.866-.5a1.19 1.19 0 0 1 .035-.058l.831.558ZM342.439 36.35l.843.539c-.289.45-.88.594-1.343.327l.5-.866Zm-.011-.007-.866-.5a1 1 0 0 1 1.366-.366l-.5.867Zm-67.619 117.12-.5.866a1 1 0 0 1-.366-1.366l.866.5Zm49.448 28.549.866.5a1 1 0 0 1-1.366.366l.5-.866ZM390.402 65.45c.13-.193.254-.391.371-.594l1.732 1c-.14.242-.287.479-.442.71l-1.661-1.116Zm.371-.594c2.227-3.857 1.812-8.928-.958-14.132-2.761-5.188-7.802-10.359-14.496-14.224l1-1.732c6.966 4.022 12.298 9.448 15.262 15.017 2.956 5.553 3.621 11.4.924 16.07l-1.732-1ZM375.319 36.5c-6.576-3.796-13.446-5.581-19.256-5.451-5.828.13-10.433 2.172-12.781 5.84l-1.685-1.078c2.837-4.432 8.211-6.622 14.422-6.762 6.228-.14 13.456 1.768 20.3 5.719l-1 1.732Zm-33.38.716-.011-.007 1-1.732.011.007-1 1.732Zm1.355-.373-67.619 117.12-1.732-1 67.619-117.12 1.732 1Zm-67.985 115.754 49.448 28.549-1 1.732-49.448-28.549 1-1.732Zm48.082 28.915 66.976-116.004 1.732 1-66.976 116.004-1.732-1Z" fill="#000" mask="url(#a)"/><path d="M271.41 156.199c-.052.09-.091.284.061.677.148.385.449.873.916 1.457.932 1.165 2.449 2.616 4.452 4.26 3.999 3.282 9.86 7.271 16.634 11.182 6.775 3.911 13.16 6.993 18.002 8.815 2.424.912 4.44 1.5 5.914 1.725.74.113 1.313.129 1.72.065.417-.065.565-.196.617-.286a19.7 19.7 0 0 1 .272-.447c1.114-1.805 4.414-7.148 4.721-13.918.169-3.724-.57-7.88-3.094-12.117-2.527-4.24-6.859-8.588-13.92-12.665-5.66-3.268-10.66-4.318-14.99-4.049-4.332.27-8.031 1.863-11.082 3.94-6.044 4.116-9.498 10.104-10.199 11.32l-.024.041Z" fill="#fff" stroke="#000"/><path fill-rule="evenodd" clip-rule="evenodd" d="M102.952 88.802v.003a8.42 8.42 0 0 0-8.185 8.247h-.004a8.42 8.42 0 0 0-8.31-8.25V88.8a8.42 8.42 0 0 0 8.185-8.247h.003a8.42 8.42 0 0 0 8.311 8.25Z" fill="#fff"/><mask id="b" fill="#fff"><path fill-rule="evenodd" clip-rule="evenodd" d="M391.56 224.672v.004a8.23 8.23 0 0 0-8.002 8.062h-.003a8.232 8.232 0 0 0-8.126-8.065v-.003a8.233 8.233 0 0 0 8.003-8.063h.003a8.232 8.232 0 0 0 8.125 8.065Z"/></mask><path d="M391.56 224.676h1v.973l-.973.027-.027-1Zm0-.004.013-1 .987.012v.988h-1Zm-8.002 8.066 1 .02-.02.98h-.98v-1Zm-.003 0v1h-.981l-.019-.98 1-.02Zm-8.126-8.065-.012 1-.988-.012v-.988h1Zm0-.003h-1v-.974l.973-.026.027 1Zm8.003-8.063-1-.02.019-.98h.981v1Zm.003 0v-1h.981l.019.98-1 .02Zm7.125 8.069v-.004h2v.004h-2Zm1.027 1a7.23 7.23 0 0 0-7.029 7.082l-2-.039a9.231 9.231 0 0 1 8.975-9.043l.054 2Zm-8.032 6.062h.003v2h-.003v-2Zm-1 1.02a7.232 7.232 0 0 0-7.138-7.085l.025-1.999a9.23 9.23 0 0 1 9.112 9.045l-1.999.039Zm-6.126-8.088v.003h-2v-.003h2Zm-1.027-1a7.23 7.23 0 0 0 7.03-7.083l2 .04a9.231 9.231 0 0 1-8.976 9.042l-.054-1.999Zm8.033-6.063h-.003v-2h.003v2Zm1-1.02a7.23 7.23 0 0 0 7.138 7.085l-.025 2a9.231 9.231 0 0 1-9.113-9.045l2-.04Z" fill="#fff" mask="url(#b)"/><mask id="c" fill="#fff"><path fill-rule="evenodd" clip-rule="evenodd" d="M456.278 268.885v.007c-8.326.225-15.026 6.964-15.191 15.305h-.006c-.166-8.419-6.99-15.205-15.423-15.309v-.007c8.326-.225 15.026-6.964 15.191-15.305h.006c.166 8.419 6.99 15.205 15.423 15.309Z"/></mask><path fill-rule="evenodd" clip-rule="evenodd" d="M456.278 268.885v.007c-8.326.225-15.026 6.964-15.191 15.305h-.006c-.166-8.419-6.99-15.205-15.423-15.309v-.007c8.326-.225 15.026-6.964 15.191-15.305h.006c.166 8.419 6.99 15.205 15.423 15.309Z" fill="#fff"/><path d="M456.278 268.892h1v.974l-.973.026-.027-1Zm0-.007.013-1 .987.013v.987h-1Zm-15.191 15.312 1 .02-.019.98h-.981v-1Zm-.006 0v1h-.98l-.019-.98.999-.02Zm-15.423-15.309-.013 1-.987-.012v-.988h1Zm0-.007h-1v-.974l.973-.026.027 1Zm15.191-15.305-1-.02.019-.98h.981v1Zm.006 0v-1h.98l.02.98-1 .02Zm14.423 15.316v-.007h2v.007h-2Zm1.027 1c-7.792.211-14.064 6.518-14.218 14.325l-1.999-.04c.175-8.875 7.304-16.045 16.163-16.284l.054 1.999Zm-15.224 13.305h.006v2h-.006v-2Zm-.999 1.02c-.156-7.88-6.543-14.232-14.437-14.329l.025-2c8.974.111 16.235 7.331 16.411 16.289l-1.999.04Zm-13.424-15.336v.007h-2v-.007h2Zm-1.027-1c7.792-.21 14.064-6.518 14.218-14.325l1.999.04c-.175 8.875-7.304 16.045-16.163 16.284l-.054-1.999Zm15.224-13.305h-.006v-2h.006v2Zm1-1.02c.155 7.88 6.542 14.232 14.436 14.329l-.025 2c-8.974-.111-16.235-7.331-16.411-16.289l2-.04Z" fill="#fff" mask="url(#c)"/><mask id="d" fill="#fff"><path fill-rule="evenodd" clip-rule="evenodd" d="M168.589 44.582v.002a4.308 4.308 0 0 0-4.189 4.22h-.002a4.308 4.308 0 0 0-4.253-4.222v-.002a4.308 4.308 0 0 0 4.189-4.22h.002a4.309 4.309 0 0 0 4.253 4.222Z"/></mask><path fill-rule="evenodd" clip-rule="evenodd" d="M168.589 44.582v.002a4.308 4.308 0 0 0-4.189 4.22h-.002a4.308 4.308 0 0 0-4.253-4.222v-.002a4.308 4.308 0 0 0 4.189-4.22h.002a4.309 4.309 0 0 0 4.253 4.222Z" fill="#fff"/><path d="M168.589 44.584h1v.973l-.973.026-.027-1Zm0-.002.013-1 .987.012v.988h-1Zm-4.189 4.222 1 .02-.019.98h-.981v-1Zm-.002 0v1h-.98l-.019-.98.999-.02Zm-4.253-4.222-.012 1-.988-.012v-.988h1Zm0-.002h-1v-.973l.973-.026.027 1Zm4.189-4.22-1-.02.02-.98h.98v1Zm.002 0v-1h.98l.02.98-1 .02Zm3.253 4.224v-.002h2v.002h-2Zm1.027 1a3.309 3.309 0 0 0-3.216 3.24l-2-.04a5.31 5.31 0 0 1 5.162-5.2l.054 2Zm-4.218 2.22h.002v2h-.002v-2Zm-.999 1.02a3.31 3.31 0 0 0-3.266-3.242l.024-2a5.309 5.309 0 0 1 5.241 5.202l-1.999.04Zm-2.254-4.244v.002h-2v-.002h2Zm-1.027-1a3.308 3.308 0 0 0 3.216-3.24l2 .04a5.309 5.309 0 0 1-5.162 5.2l-.054-2Zm4.218-2.22h-.002v-2h.002v2Zm1-1.02a3.308 3.308 0 0 0 3.266 3.242l-.025 2a5.308 5.308 0 0 1-5.241-5.202l2-.04Z" fill="#fff" mask="url(#d)"/><mask id="e" fill="#fff"><path fill-rule="evenodd" clip-rule="evenodd" d="M98.993 279.448v.002a4.308 4.308 0 0 0-4.189 4.22h-.001a4.308 4.308 0 0 0-4.254-4.221v-.002a4.31 4.31 0 0 0 4.19-4.221h.001a4.309 4.309 0 0 0 4.254 4.222Z"/></mask><path fill-rule="evenodd" clip-rule="evenodd" d="M98.993 279.448v.002a4.308 4.308 0 0 0-4.189 4.22h-.001a4.308 4.308 0 0 0-4.254-4.221v-.002a4.31 4.31 0 0 0 4.19-4.221h.001a4.309 4.309 0 0 0 4.254 4.222Z" fill="#fff"/><path d="M98.993 279.45h1v.973l-.972.027-.028-1Zm0-.002.013-1 .987.012v.988h-1Zm-4.189 4.222 1 .02-.02.98h-.98v-1Zm-.001 0v1h-.98l-.02-.98 1-.02Zm-4.254-4.221-.012 1-.988-.013v-.987h1Zm0-.002h-1v-.974l.973-.026.027 1Zm4.19-4.221-1-.019.019-.981h.98v1Zm.001 0v-1h.98l.02.981-1 .019Zm3.254 4.224v-.002h2v.002h-2Zm1.027 1a3.308 3.308 0 0 0-3.217 3.24l-2-.039a5.31 5.31 0 0 1 5.162-5.201l.055 2Zm-4.218 2.22h.001v2h-.001v-2Zm-1 1.02a3.308 3.308 0 0 0-3.266-3.241l.025-2a5.308 5.308 0 0 1 5.24 5.202l-2 .039Zm-2.254-4.243v.002h-2v-.002h2Zm-1.027-1a3.309 3.309 0 0 0 3.217-3.24l2 .039a5.308 5.308 0 0 1-5.163 5.2l-.054-1.999Zm4.218-2.221h-.001v-2h.001v2Zm1-1.019a3.308 3.308 0 0 0 3.266 3.241l-.025 2a5.309 5.309 0 0 1-5.24-5.202l1.999-.039Z" fill="#fff" mask="url(#e)"/><mask id="f" fill="#fff"><path fill-rule="evenodd" clip-rule="evenodd" d="M168.589 267.352v.002a4.308 4.308 0 0 0-4.189 4.22h-.002a4.308 4.308 0 0 0-4.253-4.221v-.002a4.308 4.308 0 0 0 4.189-4.221h.002a4.31 4.31 0 0 0 4.253 4.222Z"/></mask><path fill-rule="evenodd" clip-rule="evenodd" d="M168.589 267.352v.002a4.308 4.308 0 0 0-4.189 4.22h-.002a4.308 4.308 0 0 0-4.253-4.221v-.002a4.308 4.308 0 0 0 4.189-4.221h.002a4.31 4.31 0 0 0 4.253 4.222Z" fill="#fff"/><path d="M168.589 267.354h1v.973l-.973.027-.027-1Zm0-.002.013-1 .987.012v.988h-1Zm-4.189 4.222 1 .02-.019.98h-.981v-1Zm-.002 0v1h-.98l-.019-.98.999-.02Zm-4.253-4.221-.012 1-.988-.013v-.987h1Zm0-.002h-1v-.974l.973-.026.027 1Zm4.189-4.221-1-.019.02-.981h.98v1Zm.002 0v-1h.98l.02.981-1 .019Zm3.253 4.224v-.002h2v.002h-2Zm1.027 1a3.308 3.308 0 0 0-3.216 3.24l-2-.039a5.31 5.31 0 0 1 5.162-5.201l.054 2Zm-4.218 2.22h.002v2h-.002v-2Zm-.999 1.02a3.31 3.31 0 0 0-3.266-3.241l.024-2a5.308 5.308 0 0 1 5.241 5.202l-1.999.039Zm-2.254-4.243v.002h-2v-.002h2Zm-1.027-1a3.307 3.307 0 0 0 3.216-3.24l2 .039a5.308 5.308 0 0 1-5.162 5.2l-.054-1.999Zm4.218-2.221h-.002v-2h.002v2Zm1-1.019a3.308 3.308 0 0 0 3.266 3.241l-.025 2a5.308 5.308 0 0 1-5.241-5.202l2-.039Z" fill="#fff" mask="url(#f)"/><path fill-rule="evenodd" clip-rule="evenodd" d="M452.552 147.583v.005c-5.803.156-10.473 4.853-10.587 10.666h-.005c-.115-5.867-4.871-10.597-10.749-10.67v-.005c5.803-.156 10.473-4.853 10.587-10.666h.005c.115 5.867 4.871 10.597 10.749 10.67Z" fill="#fff"/><path d="m419.616 117.335-95.752 147.791" stroke="url(#g)"/><path d="m332.964 211.488-49.18 74.435" stroke="url(#h)"/><path d="m313.333 214.526-49.18 74.435" stroke="url(#i)"/><path d="m287.822 223.013-49.18 74.435" stroke="url(#j)"/><path d="m240.867 206.966-49.18 74.435" stroke="url(#k)"/><path d="m249.047 225.913-49.18 74.435" stroke="url(#l)"/><path d="m238.642 137.593-47.876 73.895" stroke="url(#m)"/><path d="m248.395 159.775-47.876 73.896" stroke="url(#n)"/><path d="m264.153 121.587-47.876 73.896" stroke="url(#o)"/><path d="M329.891 188.804c7.105-8.707 12.841-19.544 14.601-32.65 0 0 1.09-6.945.003-7.572-1.086-.628-6.796 3.65-6.796 3.65-10.428 7.926-17.132 18.626-20.975 28.97.331 3.791 9.911 8.966 13.167 7.602Zm-51.521-30.121c7.105-8.707 12.841-19.544 14.601-32.65 0 0 1.09-6.945.003-7.572-1.086-.628-6.796 3.65-6.796 3.65-10.428 7.926-17.132 18.627-20.975 28.971.331 3.79 9.911 8.965 13.167 7.601Z" fill="#fff" stroke="#000"/><mask id="p" style="mask-type:alpha" maskUnits="userSpaceOnUse" x="0" y="25" width="239" height="293"><rect x=".452" y="25.966" width="238.19" height="291.367" rx="30" fill="#2D2D2D"/></mask><g mask="url(#p)"><circle cx="43.658" cy="149.891" r="105.088" transform="rotate(-24.351 43.658 149.891)" fill="#C4C4C4"/><path d="M191.114 94.387c.416.997.309 2.474-.869 4.623-1.163 2.125-3.236 4.644-6.221 7.507-5.958 5.715-15.276 12.546-27.297 20.048-24.022 14.992-58.6 32.518-98.037 49.007-39.436 16.489-76.2 28.792-103.743 35.361-13.784 3.287-25.19 5.121-33.443 5.348-4.135.114-7.384-.18-9.713-.844-2.357-.672-3.484-1.633-3.901-2.629-.417-.996-.309-2.473.868-4.623 1.164-2.124 3.237-4.643 6.222-7.506 5.958-5.715 15.275-12.546 27.297-20.048 24.022-14.992 58.6-32.519 98.037-49.008 39.436-16.489 76.199-28.792 103.743-35.36 13.784-3.288 25.191-5.122 33.443-5.349 4.135-.113 7.384.18 9.713.844 2.357.672 3.484 1.633 3.901 2.63Z" stroke="#fff" stroke-width="3"/><path d="M222.804 81.107c.787 1.882.822 4.297-.277 7.423-1.108 3.147-3.303 6.811-6.652 10.929-6.694 8.231-17.584 17.777-31.965 28.021-28.723 20.459-70.823 43.317-119.486 63.664-48.663 20.347-94.504 34.258-129.24 40.333-17.394 3.041-31.837 4.087-42.398 3.071-5.283-.509-9.433-1.519-12.451-2.942-2.997-1.413-4.691-3.134-5.478-5.016-.787-1.883-.823-4.298.277-7.423 1.107-3.148 3.302-6.812 6.651-10.929 6.694-8.231 17.584-17.777 31.966-28.021 28.722-20.46 70.822-43.318 119.485-63.665S127.74 82.294 162.477 76.22c17.393-3.041 31.837-4.088 42.398-3.072 5.283.509 9.432 1.52 12.451 2.942 2.997 1.413 4.691 3.135 5.478 5.017Z" stroke="url(#q)" stroke-width="6"/><path d="M.327 54.153c-52.875 23.93-76.339 86.194-52.408 139.069l191.478-86.661C115.466 53.685 53.202 30.221.327 54.152Z" fill="#C4C4C4"/></g><path d="M364.465 57.804c7.816 4.834 10.381 10.358 10.852 13.404.123.794-.129 1.58-.531 2.275l-4.716 8.17c-.524.905-2.531.546-2.939-.417-1.296-3.06-4.204-7.053-10.039-10.662-6.467-4-12.163-4.402-15.838-3.791-.992.165-2.079-1.123-1.577-1.994l5.624-9.74c2.632-1.405 10.149-2.82 19.164 2.755Z" fill="#fff"/><path d="M345.301 55.048c2.632-1.404 10.149-2.82 19.164 2.756 7.816 4.834 10.381 10.358 10.852 13.404.123.794-.129 1.58-.531 2.275l-4.716 8.17c-.524.905-2.531.546-2.939-.417-1.296-3.06-4.204-7.053-10.039-10.662-6.467-4-12.163-4.402-15.838-3.791-.992.165-2.079-1.123-1.577-1.994l5.658-9.8" stroke="#000"/><rect x="313.334" y="120.95" width="21.334" height="4.562" rx="2.281" transform="rotate(30.006 313.334 120.95)" fill="#C4C4C4"/><rect x="313.863" y="129.716" width="11.649" height="4.562" rx="2.281" transform="rotate(30.006 313.863 129.716)" fill="#C4C4C4"/><rect x="313.161" y="137.772" width="4.807" height="4.562" rx="2.281" transform="rotate(30.006 313.161 137.772)" fill="#C4C4C4"/><defs><radialGradient id="g" cx="0" cy="0" r="1" gradientUnits="userSpaceOnUse" gradientTransform="matrix(0 73.8954 -47.8759 0 371.74 191.23)"><stop stop-color="#CDCDCD"/><stop offset="1" stop-color="#CDCDCD" stop-opacity="0"/></radialGradient><radialGradient id="h" cx="0" cy="0" r="1" gradientUnits="userSpaceOnUse" gradientTransform="scale(24.59 37.2174) rotate(90 2.93 9.612)"><stop stop-color="#CDCDCD"/><stop offset="1" stop-color="#CDCDCD" stop-opacity="0"/></radialGradient><radialGradient id="i" cx="0" cy="0" r="1" gradientUnits="userSpaceOnUse" gradientTransform="matrix(0 37.2174 -24.59 0 288.76 251.701)"><stop stop-color="#ED1C24"/><stop offset="1" stop-color="#ED1C24" stop-opacity="0"/></radialGradient><radialGradient id="j" cx="0" cy="0" r="1" gradientUnits="userSpaceOnUse" gradientTransform="matrix(0 37.2174 -24.59 0 263.232 260.231)"><stop stop-color="#ED1C24"/><stop offset="1" stop-color="#ED1C24" stop-opacity="0"/></radialGradient><radialGradient id="k" cx="0" cy="0" r="1" gradientUnits="userSpaceOnUse" gradientTransform="matrix(0 37.2174 -24.59 0 216.277 244.183)"><stop stop-color="#ED1C24"/><stop offset="1" stop-color="#ED1C24" stop-opacity="0"/></radialGradient><radialGradient id="l" cx="0" cy="0" r="1" gradientUnits="userSpaceOnUse" gradientTransform="matrix(0 37.2174 -24.59 0 224.457 263.13)"><stop stop-color="#ED1C24"/><stop offset="1" stop-color="#ED1C24" stop-opacity="0"/></radialGradient><radialGradient id="m" cx="0" cy="0" r="1" gradientUnits="userSpaceOnUse" gradientTransform="matrix(0 36.9477 -23.9379 0 214.704 174.54)"><stop stop-color="#CDCDCD"/><stop offset="1" stop-color="#CDCDCD" stop-opacity="0"/></radialGradient><radialGradient id="n" cx="0" cy="0" r="1" gradientUnits="userSpaceOnUse" gradientTransform="matrix(0 36.9477 -23.9379 0 224.442 196.71)"><stop stop-color="#CDCDCD"/><stop offset="1" stop-color="#CDCDCD" stop-opacity="0"/></radialGradient><radialGradient id="o" cx="0" cy="0" r="1" gradientUnits="userSpaceOnUse" gradientTransform="matrix(0 36.9477 -23.9379 0 240.215 158.535)"><stop stop-color="#CDCDCD"/><stop offset="1" stop-color="#CDCDCD" stop-opacity="0"/></radialGradient><linearGradient id="q" x1="32.079" y1="113.784" x2="279.821" y2="166.114" gradientUnits="userSpaceOnUse"><stop stop-color="#fff"/><stop offset="1" stop-color="#fff" stop-opacity="0"/></linearGradient></defs></svg>