<svg width="350" height="220" fill="none" xmlns="http://www.w3.org/2000/svg"><path fill="#91C2EA" d="M0 0h350v220H0z"/><mask id="a" style="mask-type:alpha" maskUnits="userSpaceOnUse" x="0" y="0" width="350" height="220"><path fill="#ED1C24" d="M0 0h350v220H0z"/></mask><g mask="url(#a)" fill-rule="evenodd" clip-rule="evenodd"><path d="M539.116 19.567 8.692 236.444l-.38-1.008L538.737 18.559l.379 1.008Z" fill="url(#b)"/><path d="m511.285 17.07-474.8 221.852-.425-.988 474.8-221.853.425.989Z" fill="url(#c)"/><path d="M486.779 12.91 61.128 243.054l-.479-.962L486.3 11.949l.479.962Z" fill="url(#d)"/><path d="M465.18 7.096 82.704 248.834l-.54-.926L464.642 6.169l.539.927Z" fill="url(#e)"/><path d="m446.236-.463-344.521 256.9-.605-.881 344.521-256.9.605.88Z" fill="url(#f)"/><path d="M429.69-10.03 118.327 265.858l-.673-.825 311.363-275.89.673.825Z" fill="url(#g)"/><path d="m415.292-21.603-282.499 298.97-.74-.76 282.499-298.97.74.76Z" fill="url(#h)"/><path d="M402.87-35.356 145.28 291.137l-.803-.688 257.59-326.493.803.688Z" fill="url(#i)"/><path d="M392.249-51.555 156.036 307.26l-.857-.613L391.392-52.168l.857.613Z" fill="url(#j)"/><path d="M383.262-70.552 165.069 326.093l-.902-.539L382.36-71.091l.902.539Z" fill="url(#k)"/><path d="m375.735-92.434-203.19 440.341-.937-.469L374.799-92.904l.936.47Z" fill="url(#l)"/></g><defs><linearGradient id="b" x1="270.928" y1="-91.247" x2="276.891" y2="346.244" gradientUnits="userSpaceOnUse"><stop stop-color="#0070CC"/><stop offset="1" stop-color="#B1C9DC"/></linearGradient><linearGradient id="c" x1="270.928" y1="-91.247" x2="276.891" y2="346.244" gradientUnits="userSpaceOnUse"><stop stop-color="#0070CC"/><stop offset="1" stop-color="#B1C9DC"/></linearGradient><linearGradient id="d" x1="270.928" y1="-91.247" x2="276.891" y2="346.244" gradientUnits="userSpaceOnUse"><stop stop-color="#0070CC"/><stop offset="1" stop-color="#B1C9DC"/></linearGradient><linearGradient id="e" x1="270.928" y1="-91.247" x2="276.891" y2="346.244" gradientUnits="userSpaceOnUse"><stop stop-color="#0070CC"/><stop offset="1" stop-color="#B1C9DC"/></linearGradient><linearGradient id="f" x1="270.928" y1="-91.247" x2="276.891" y2="346.244" gradientUnits="userSpaceOnUse"><stop stop-color="#0070CC"/><stop offset="1" stop-color="#B1C9DC"/></linearGradient><linearGradient id="g" x1="270.928" y1="-91.247" x2="276.891" y2="346.244" gradientUnits="userSpaceOnUse"><stop stop-color="#0070CC"/><stop offset="1" stop-color="#B1C9DC"/></linearGradient><linearGradient id="h" x1="270.928" y1="-91.247" x2="276.891" y2="346.244" gradientUnits="userSpaceOnUse"><stop stop-color="#0070CC"/><stop offset="1" stop-color="#B1C9DC"/></linearGradient><linearGradient id="i" x1="270.928" y1="-91.247" x2="276.891" y2="346.244" gradientUnits="userSpaceOnUse"><stop stop-color="#0070CC"/><stop offset="1" stop-color="#B1C9DC"/></linearGradient><linearGradient id="j" x1="270.928" y1="-91.247" x2="276.891" y2="346.244" gradientUnits="userSpaceOnUse"><stop stop-color="#0070CC"/><stop offset="1" stop-color="#B1C9DC"/></linearGradient><linearGradient id="k" x1="270.928" y1="-91.247" x2="276.891" y2="346.244" gradientUnits="userSpaceOnUse"><stop stop-color="#0070CC"/><stop offset="1" stop-color="#B1C9DC"/></linearGradient><linearGradient id="l" x1="270.928" y1="-91.247" x2="276.891" y2="346.244" gradientUnits="userSpaceOnUse"><stop stop-color="#0070CC"/><stop offset="1" stop-color="#B1C9DC"/></linearGradient></defs></svg>