<svg width="350" height="220" fill="none" xmlns="http://www.w3.org/2000/svg"><path fill="#0070CC" d="M0 0h350v220H0z"/><mask id="a" style="mask-type:alpha" maskUnits="userSpaceOnUse" x="0" y="0" width="350" height="220"><path fill="#0070CC" d="M0 0h350v220H0z"/></mask><g mask="url(#a)" fill="#fff"><path fill-rule="evenodd" clip-rule="evenodd" d="M82.915 310.302 485.88-121.42l.197.183L83.111 310.486l-.196-.184Zm149.407-514.544c-.002-.001-.003-.001.051-.124a.728.728 0 0 1 .055-.122l.008.003.031.014.122.053a99.669 99.669 0 0 1 2.32 1.068c1.603.759 3.927 1.9 6.817 3.422 5.781 3.046 13.826 7.622 22.883 13.744 18.112 12.245 40.28 30.679 56.484 55.436 16.206 24.758 26.447 55.84 20.701 93.37C336.049.149 314.321 44.107 266.62 94.625 171.242 195.635 120.871 249.6 94.346 278.313c-13.263 14.356-20.565 22.398-24.55 26.852a317.718 317.718 0 0 0-3.821 4.327 64.77 64.77 0 0 0-.794.941l-.028.034-.007.009-.106-.082-.106-.082v-.001l.002-.002.007-.009.029-.036a54.987 54.987 0 0 1 .8-.947 324.45 324.45 0 0 1 3.824-4.331c3.987-4.455 11.29-12.499 24.552-26.856 26.527-28.713 76.898-82.679 172.277-183.69C314.102 43.948 335.794.038 341.529-37.419c5.734-37.453-4.484-68.469-20.66-93.183-16.178-24.715-38.315-43.126-56.411-55.359-9.047-6.117-17.083-10.688-22.857-13.729a181.361 181.361 0 0 0-6.807-3.418 106.82 106.82 0 0 0-2.313-1.064l-.121-.053-.031-.014-.007-.003Z"/><path fill-rule="evenodd" clip-rule="evenodd" d="M214.348-204.242c-.001-.001-.002-.001.051-.124s.054-.123.056-.122l.007.003.031.014c.028.011.068.029.122.053a102.278 102.278 0 0 1 2.321 1.068c1.602.759 3.926 1.9 6.817 3.422 5.78 3.046 13.825 7.622 22.882 13.744 18.113 12.245 40.28 30.679 56.485 55.436 16.205 24.758 26.447 55.84 20.701 93.37-5.746 37.527-27.474 81.485-75.175 132.003C153.268 195.635 102.897 249.6 76.372 278.313c-13.263 14.356-20.564 22.398-24.55 26.852a317.718 317.718 0 0 0-3.821 4.327 63.823 63.823 0 0 0-.794.941l-.028.034-.007.009-.106-.082-.106-.082v-.001l.002-.002.007-.009.029-.036.132-.16c.125-.152.334-.4.668-.787a324.45 324.45 0 0 1 3.824-4.331c3.987-4.455 11.29-12.499 24.553-26.856 26.526-28.713 76.897-82.679 172.276-183.69 47.677-50.492 69.37-94.402 75.104-131.859 5.735-37.453-4.484-68.469-20.66-93.183-16.178-24.715-38.314-43.126-56.41-55.359-9.048-6.117-17.084-10.688-22.857-13.729a182.14 182.14 0 0 0-6.807-3.418 109.832 109.832 0 0 0-2.314-1.064l-.121-.053-.03-.014-.008-.003Z"/><path fill-rule="evenodd" clip-rule="evenodd" d="M196.378-204.242c-.002-.001-.002-.001.051-.124a.728.728 0 0 1 .055-.122l.008.003.031.014.122.053a99.669 99.669 0 0 1 2.32 1.068c1.603.759 3.927 1.9 6.818 3.422 5.78 3.046 13.825 7.622 22.882 13.744 18.112 12.245 40.28 30.679 56.484 55.436 16.206 24.758 26.447 55.84 20.701 93.37-5.745 37.527-27.473 81.485-75.174 132.003C135.298 195.635 84.927 249.6 58.402 278.313c-13.263 14.356-20.565 22.398-24.55 26.852a317.718 317.718 0 0 0-3.821 4.327 63.823 63.823 0 0 0-.794.941l-.028.034-.007.009-.106-.082-.106-.082v-.001l.002-.002.007-.009.029-.036.131-.16c.126-.152.335-.4.668-.787.667-.773 1.832-2.104 3.825-4.331 3.987-4.455 11.29-12.499 24.553-26.856 26.526-28.713 76.897-82.679 172.276-183.69C278.158 43.948 299.85.038 305.585-37.419c5.734-37.453-4.484-68.469-20.66-93.183-16.178-24.715-38.314-43.126-56.411-55.359-9.047-6.117-17.083-10.688-22.857-13.729a181.361 181.361 0 0 0-6.807-3.418 106.82 106.82 0 0 0-2.313-1.064l-.121-.053-.03-.014-.008-.003Z"/><path fill-rule="evenodd" clip-rule="evenodd" d="M174.807-204.242c-.001-.001-.002-.001.051-.124s.054-.123.056-.122l.008.003.031.014.121.053a102.876 102.876 0 0 1 2.321 1.068c1.602.759 3.927 1.9 6.817 3.422 5.781 3.046 13.825 7.622 22.882 13.744 18.113 12.245 40.281 30.679 56.485 55.436 16.206 24.758 26.447 55.84 20.701 93.37-5.746 37.527-27.474 81.485-75.175 132.003C113.727 195.635 63.357 249.6 36.831 278.313c-13.263 14.356-20.564 22.398-24.55 26.852a318.52 318.52 0 0 0-3.82 4.327 64.08 64.08 0 0 0-.795.941l-.027.034-.008.009-.106-.082-.106-.082v-.001l.002-.002.007-.009.03-.036.13-.16c.127-.152.335-.4.669-.787.666-.773 1.831-2.104 3.825-4.331 3.986-4.455 11.289-12.499 24.552-26.856 26.527-28.713 76.898-82.679 172.276-183.69C256.587 43.948 278.28.038 284.015-37.419c5.734-37.453-4.485-68.469-20.661-93.183-16.177-24.715-38.314-43.126-56.41-55.359-9.048-6.117-17.083-10.688-22.857-13.729a182.14 182.14 0 0 0-6.807-3.418 109.832 109.832 0 0 0-2.314-1.064 3.834 3.834 0 0 0-.121-.053l-.03-.014-.008-.003ZM95.135 313.897 498.1-117.826l.197.184L95.331 314.08l-.196-.183Zm12.224 3.595 402.965-431.723.196.183-402.965 431.723-.196-.183Zm12.224 3.594 402.965-431.723.196.184-402.965 431.722-.196-.183Zm12.223 3.595 402.966-431.723.196.183-402.966 431.723-.196-.183Zm12.224 3.595 402.965-431.723.196.183-402.965 431.723-.196-.183Zm12.217 3.594L559.212-99.852l.196.183-402.965 431.723-.196-.184Zm12.223 3.595L571.435-96.257l.197.183-402.966 431.722-.196-.183Zm12.224 3.595L583.659-92.663l.196.183L180.89 339.244l-.196-.183Zm12.217 3.595L595.876-89.068l.196.183-402.965 431.723-.196-.183Zm12.223 3.595L608.099-85.473l.197.183L205.33 346.433l-.196-.183Z"/><path d="m189.379 111.881 3.546 3.091.891-4.535-4.437 1.444Zm54.32-15.044 3.787 2.79.518-4.592-4.305 1.802Zm34.594 17.325 3.542 3.095.897-4.533-4.439 1.438Zm4.683 78.343 3.514 3.128.939-4.525-4.453 1.397Zm-10.162 67.918-3.597-3.032-.815 4.549 4.412-1.517Zm93.821-150.618-3.598-3.032-.815 4.549 4.413-1.517Zm-100.5-61.851 4.076 2.35v-4.622l-4.076 2.272Z"/></g></svg>