<svg width="349" height="274" fill="none" xmlns="http://www.w3.org/2000/svg"><path d="M2.625 108.06V24.067s16.728 16.227 63.492 16.227c46.763 0 62.75-15.924 62.75-15.924v83.69c-19.509 28.638-117.362 20.08-126.242 0Z" fill="#E0454C"/><path d="M2.259 166.261V80.874s16.178 16.517 62.94 16.517c46.764 0 63.626-17.598 63.626-17.598v86.468c-19.887 24.931-114.463 20.257-126.566 0Z" fill="#0070CC"/><path d="M128.971 20.45c0 2.368-1.496 4.798-4.623 7.162-3.111 2.351-7.683 4.512-13.441 6.345-11.505 3.661-27.519 5.942-45.421 5.942-17.903 0-33.917-2.28-45.421-5.942-5.758-1.833-10.33-3.994-13.442-6.345C3.496 25.248 2 22.818 2 20.45c0-2.369 1.496-4.799 4.623-7.162 3.112-2.352 7.684-4.513 13.442-6.346C31.569 3.281 47.583 1 65.485 1c17.903 0 33.917 2.281 45.422 5.942 5.758 1.833 10.33 3.994 13.441 6.345 3.127 2.364 4.623 4.794 4.623 7.163Z" fill="#E0454C" stroke="#2D2D2D" stroke-width="2"/><path d="m1.88 20.45.674 143.75M128.972 20.083v144.118m0 0c0 10.847-28.298 19.64-63.206 19.64s-63.207-8.793-63.207-19.64M128.976 76.95c0 10.846-28.394 19.639-63.42 19.639-35.025 0-63.419-8.793-63.419-19.64" stroke="#2D2D2D" stroke-width="2"/><path d="M22.213 72.747V58.473h2.845l3.382 10.106c.312.942.539 1.646.682 2.113.162-.519.416-1.282.76-2.288l3.42-9.931h2.544v14.274h-1.823V60.8l-4.15 11.947h-1.706l-4.132-12.151v12.15h-1.822Zm16.921 0V58.473h10.33v1.684h-8.44v4.372h7.903v1.675h-7.902v4.858h8.77v1.685h-10.66Zm13.413 0V58.473h2.846l3.381 10.106c.312.942.54 1.646.682 2.113.162-.519.416-1.282.76-2.288l3.42-9.931h2.544v14.274h-1.822V60.8l-4.152 11.947h-1.705L54.37 60.596v12.15h-1.823Zm16.308-6.952c0-2.37.636-4.223 1.91-5.56 1.273-1.343 2.916-2.015 4.93-2.015 1.319 0 2.508.315 3.567.944a6.133 6.133 0 0 1 2.416 2.639c.559 1.123.838 2.398.838 3.826 0 1.448-.292 2.743-.877 3.885-.584 1.143-1.413 2.01-2.485 2.6a7.135 7.135 0 0 1-3.469.876c-1.344 0-2.546-.324-3.605-.974a6.268 6.268 0 0 1-2.407-2.658 8.05 8.05 0 0 1-.819-3.563Zm1.948.03c0 1.72.462 3.076 1.384 4.069.929.986 2.092 1.48 3.489 1.48 1.422 0 2.592-.5 3.508-1.5.922-1 1.383-2.417 1.383-4.254 0-1.162-.198-2.175-.594-3.038-.39-.87-.965-1.542-1.725-2.016-.753-.48-1.601-.72-2.543-.72-1.338 0-2.492.46-3.46 1.382-.96.916-1.442 2.447-1.442 4.596Zm14.387 6.922V58.473h6.335c1.273 0 2.241.13 2.904.39.662.253 1.192.704 1.588 1.353a4.05 4.05 0 0 1 .594 2.152c0 1.012-.328 1.866-.984 2.56-.656.695-1.67 1.136-3.04 1.325.5.24.88.477 1.14.71.552.507 1.075 1.14 1.569 1.899l2.485 3.885h-2.378l-1.89-2.97c-.553-.857-1.007-1.512-1.365-1.967-.357-.454-.678-.772-.964-.954a2.78 2.78 0 0 0-.858-.38c-.214-.045-.565-.068-1.052-.068H87.08v6.339h-1.89Zm1.891-7.975h4.064c.864 0 1.54-.087 2.027-.262.487-.182.857-.468 1.11-.857a2.34 2.34 0 0 0 .38-1.285c0-.675-.246-1.23-.74-1.665-.487-.435-1.26-.653-2.32-.653h-4.52v4.722Zm16.356 7.975V66.7l-5.505-8.227h2.299l2.816 4.303c.52.805 1.004 1.61 1.452 2.415.429-.746.949-1.587 1.559-2.522l2.768-4.196h2.202l-5.7 8.227v6.047h-1.891ZM41.23 158.49v-14.273h4.921c1.111 0 1.96.068 2.544.204.818.188 1.517.529 2.095 1.022.753.636 1.315 1.451 1.686 2.444.376.987.565 2.116.565 3.389 0 1.084-.127 2.044-.38 2.882-.254.837-.578 1.531-.975 2.083-.396.545-.831.977-1.306 1.295-.467.312-1.036.549-1.705.711-.662.162-1.426.243-2.29.243h-5.154Zm1.89-1.684h3.05c.943 0 1.68-.088 2.213-.263.54-.175.968-.422 1.286-.74.448-.448.796-1.048 1.043-1.801.253-.76.38-1.678.38-2.756 0-1.493-.247-2.638-.74-3.437-.488-.805-1.082-1.343-1.784-1.616-.507-.195-1.322-.292-2.446-.292h-3.001v10.905Zm13.053 1.684v-14.273h1.89v14.273h-1.89Zm4.79-4.586 1.783-.155c.084.714.28 1.301.584 1.762.312.454.793.824 1.443 1.11.65.279 1.38.419 2.192.419.721 0 1.358-.108 1.91-.322.552-.214.962-.506 1.228-.876.273-.377.41-.785.41-1.227 0-.448-.13-.837-.39-1.168-.26-.338-.69-.62-1.287-.847-.383-.15-1.23-.38-2.543-.692-1.312-.318-2.232-.616-2.758-.895-.682-.357-1.192-.799-1.53-1.325a3.302 3.302 0 0 1-.497-1.781c0-.721.205-1.393.614-2.016.41-.629 1.007-1.106 1.793-1.431.786-.325 1.66-.487 2.622-.487 1.058 0 1.99.172 2.796.516.812.338 1.436.838 1.871 1.5.435.662.67 1.411.702 2.249l-1.813.136c-.097-.902-.429-1.584-.994-2.045-.558-.46-1.387-.691-2.485-.691-1.143 0-1.978.211-2.504.633-.52.415-.78.918-.78 1.509 0 .513.186.935.556 1.266.364.331 1.312.672 2.845 1.022 1.54.344 2.596.646 3.167.906.832.383 1.446.869 1.842 1.46.396.584.594 1.259.594 2.025 0 .76-.217 1.477-.652 2.152-.436.669-1.063 1.191-1.881 1.568-.812.37-1.728.555-2.748.555-1.293 0-2.378-.189-3.255-.565-.87-.377-1.556-.941-2.056-1.694-.493-.76-.753-1.616-.78-2.571Zm14.075 4.586v-14.273h1.89v7.078l7.095-7.078h2.563L80.593 150l6.256 8.49h-2.495l-5.087-7.224-2.338 2.278v4.946h-1.89Z" fill="#fff"/><path d="M220.654 108.06V24.067s16.728 16.227 63.491 16.227 62.751-15.924 62.751-15.924v83.69c-19.509 28.638-117.362 20.08-126.242 0Z" fill="#E0454C"/><path d="M220.287 166.261V80.874s16.178 16.517 62.941 16.517c46.763 0 63.625-17.598 63.625-17.598v86.468c-19.886 24.931-114.462 20.257-126.566 0Z" fill="#0070CC"/><path d="M347 20.45c0 2.368-1.496 4.798-4.623 7.162-3.112 2.351-7.684 4.512-13.442 6.345-11.504 3.661-27.518 5.942-45.421 5.942-17.902 0-33.916-2.28-45.421-5.942-5.758-1.833-10.33-3.994-13.441-6.345-3.127-2.364-4.623-4.794-4.623-7.162 0-2.369 1.496-4.799 4.623-7.162 3.111-2.352 7.683-4.513 13.441-6.346C249.598 3.281 265.612 1 283.514 1c17.903 0 33.917 2.281 45.421 5.942 5.758 1.833 10.33 3.994 13.442 6.345 3.127 2.364 4.623 4.794 4.623 7.163Z" fill="#E0454C" stroke="#2D2D2D" stroke-width="2"/><path d="m219.909 20.45.674 143.751M347.001 20.083v144.118m0 0c0 10.847-28.298 19.64-63.207 19.64-34.908 0-63.206-8.793-63.206-19.64M347.004 76.95c0 10.846-28.394 19.639-63.419 19.639-35.026 0-63.419-8.793-63.419-19.64" stroke="#2D2D2D" stroke-width="2"/><path d="M240.242 72.747V58.473h2.845l3.382 10.106c.311.942.539 1.646.682 2.113.162-.519.416-1.282.76-2.288l3.42-9.931h2.543v14.274h-1.822V60.8l-4.151 11.947h-1.705l-4.132-12.151v12.15h-1.822Zm16.921 0V58.473h10.329v1.684h-8.439v4.372h7.903v1.675h-7.903v4.858h8.77v1.685h-10.66Zm13.413 0V58.473h2.845l3.382 10.106c.312.942.539 1.646.682 2.113.162-.519.416-1.282.76-2.288l3.42-9.931h2.544v14.274h-1.823V60.8l-4.151 11.947h-1.705l-4.132-12.151v12.15h-1.822Zm16.307-6.952c0-2.37.637-4.223 1.91-5.56 1.273-1.343 2.917-2.015 4.931-2.015 1.319 0 2.507.315 3.566.944a6.132 6.132 0 0 1 2.417 2.639c.559 1.123.838 2.398.838 3.826 0 1.448-.292 2.743-.877 3.885-.585 1.143-1.413 2.01-2.485 2.6a7.135 7.135 0 0 1-3.469.876c-1.345 0-2.546-.324-3.605-.974a6.263 6.263 0 0 1-2.407-2.658 8.046 8.046 0 0 1-.819-3.563Zm1.949.03c0 1.72.461 3.076 1.384 4.069.929.986 2.092 1.48 3.488 1.48 1.423 0 2.592-.5 3.508-1.5.923-1 1.384-2.417 1.384-4.254 0-1.162-.198-2.175-.594-3.038-.39-.87-.965-1.542-1.725-2.016-.754-.48-1.601-.72-2.543-.72-1.339 0-2.492.46-3.46 1.382-.961.916-1.442 2.447-1.442 4.596Zm14.388 6.922V58.473h6.334c1.273 0 2.241.13 2.903.39.663.253 1.193.704 1.589 1.353a4.05 4.05 0 0 1 .594 2.152c0 1.012-.328 1.866-.984 2.56-.656.695-1.67 1.136-3.04 1.325.5.24.88.477 1.14.71.552.507 1.075 1.14 1.569 1.899l2.485 3.885h-2.378l-1.891-2.97c-.552-.857-1.006-1.512-1.364-1.967-.357-.454-.679-.772-.964-.954a2.794 2.794 0 0 0-.858-.38c-.214-.045-.565-.068-1.052-.068h-2.193v6.339h-1.89Zm1.89-7.975h4.064c.864 0 1.539-.087 2.026-.262.488-.182.858-.468 1.111-.857.254-.396.38-.825.38-1.285 0-.675-.247-1.23-.74-1.665-.487-.435-1.261-.653-2.319-.653h-4.522v4.722Zm16.356 7.975V66.7l-5.506-8.227h2.3l2.816 4.303c.52.805 1.004 1.61 1.452 2.415.429-.746.949-1.587 1.559-2.522l2.768-4.196h2.202l-5.701 8.227v6.047h-1.89Zm-60.207 85.743v-14.273h4.921c1.111 0 1.959.068 2.544.204.818.188 1.516.529 2.095 1.022.753.636 1.315 1.451 1.685 2.444.377.987.566 2.116.566 3.389 0 1.084-.127 2.044-.38 2.882-.254.837-.579 1.531-.975 2.083-.396.545-.831.977-1.306 1.295-.467.312-1.036.549-1.705.711-.663.162-1.426.243-2.29.243h-5.155Zm1.891-1.684h3.05c.942 0 1.679-.088 2.212-.263.539-.175.968-.422 1.286-.74.448-.448.796-1.048 1.043-1.801.253-.76.38-1.678.38-2.756 0-1.493-.247-2.638-.741-3.437-.487-.805-1.082-1.343-1.783-1.616-.507-.195-1.322-.292-2.446-.292h-3.001v10.905Zm13.052 1.684v-14.273h1.891v14.273h-1.891Zm4.789-4.586 1.784-.155c.084.714.279 1.301.584 1.762.312.454.793.824 1.443 1.11.649.279 1.38.419 2.192.419.721 0 1.358-.108 1.91-.322.552-.214.961-.506 1.228-.876.273-.377.409-.785.409-1.227 0-.448-.13-.837-.39-1.168-.26-.338-.688-.62-1.286-.847-.383-.15-1.231-.38-2.543-.692-1.313-.318-2.232-.616-2.758-.895-.682-.357-1.192-.799-1.53-1.325a3.304 3.304 0 0 1-.497-1.781c0-.721.205-1.393.614-2.016.409-.629 1.007-1.106 1.793-1.431.786-.325 1.66-.487 2.621-.487 1.059 0 1.991.172 2.797.516.812.338 1.436.838 1.871 1.5.435.662.669 1.411.701 2.249l-1.812.136c-.097-.902-.429-1.584-.994-2.045-.559-.46-1.387-.691-2.485-.691-1.143 0-1.978.211-2.504.633-.52.415-.78.918-.78 1.509 0 .513.185.935.556 1.266.364.331 1.312.672 2.845 1.022 1.54.344 2.595.646 3.167.906.832.383 1.446.869 1.842 1.46.396.584.594 1.259.594 2.025 0 .76-.217 1.477-.653 2.152-.435.669-1.062 1.191-1.88 1.568-.812.37-1.728.555-2.748.555-1.293 0-2.378-.189-3.255-.565-.87-.377-1.556-.941-2.056-1.694-.494-.76-.754-1.616-.78-2.571Zm14.076 4.586v-14.273h1.891v7.078l7.094-7.078h2.562L300.621 150l6.256 8.49h-2.494l-5.087-7.224-2.338 2.278v4.946h-1.891Z" fill="#fff"/><path d="M139.475 244.281s-14.326 8.862-.825 17.66c2.597 1.714 12.017 6.479 11.749 10.889 0 0 5.71-8.569-2.638-13.961-8.575-5.517-10.719-11.411-8.286-14.588Z" fill="#ED1C24"/><path d="M134.487 261.21s-5.112 7.858 4.947 9.467c.99.125 8.266.899 10.162 3.323 0 0-.165-4.18-6.101-6.646-5.916-2.466-8.348-3.072-9.008-6.144Zm19.788-8.256c-6.143-6.52-7.854-10.554-5.215-15.778 0 0-18.325 7.147-.227 19.833 6.472 4.535 5.4 9.175 5.4 9.342 1.01-1.066 6.184-6.876.042-13.397Z" fill="#ED1C24"/><path d="M163.989 265.215v-13.263h1.802l6.972 10.413v-10.413h1.684v13.263h-1.802l-6.972-10.422v10.422h-1.684Zm13.116-6.46c0-2.201.592-3.923 1.775-5.165 1.183-1.249 2.71-1.873 4.581-1.873 1.225 0 2.33.292 3.314.877a5.7 5.7 0 0 1 2.245 2.452c.52 1.043.779 2.229.779 3.556 0 1.344-.271 2.548-.815 3.609-.543 1.062-1.313 1.867-2.309 2.416a6.626 6.626 0 0 1-3.223.814c-1.249 0-2.366-.302-3.35-.905a5.818 5.818 0 0 1-2.236-2.47 7.479 7.479 0 0 1-.761-3.311Zm1.811.027c0 1.599.428 2.859 1.286 3.782.863.917 1.943 1.375 3.241 1.375 1.322 0 2.408-.464 3.26-1.393.857-.929 1.285-2.247 1.285-3.954 0-1.079-.184-2.02-.552-2.822-.362-.808-.896-1.433-1.603-1.873-.7-.446-1.488-.669-2.363-.669-1.243 0-2.315.428-3.214 1.284-.893.851-1.34 2.274-1.34 4.27Zm13.388 6.433v-13.263h4.572c1.032 0 1.82.063 2.363.19.761.175 1.41.492 1.947.95.7.591 1.222 1.348 1.566 2.271.35.916.525 1.966.525 3.148 0 1.007-.117 1.9-.353 2.678-.235.778-.537 1.423-.905 1.936a4.864 4.864 0 0 1-1.213 1.203c-.435.29-.963.51-1.585.661-.616.15-1.325.226-2.128.226h-4.789Zm1.756-1.565h2.834c.875 0 1.561-.082 2.055-.245.501-.162.9-.392 1.196-.687.416-.416.739-.974.968-1.674.236-.705.354-1.559.354-2.56 0-1.387-.23-2.452-.689-3.194-.452-.748-1.005-1.248-1.656-1.501-.471-.181-1.229-.272-2.273-.272h-2.789v10.133Zm11.912 1.565v-13.263h9.598v1.565h-7.841v4.062h7.343v1.556h-7.343v4.515h8.148v1.565h-9.905Z" fill="#2D2D2D"/><path d="M18.331 198.412s-14.325 8.861-.824 17.659c2.597 1.714 12.017 6.479 11.749 10.889 0 0 5.71-8.569-2.639-13.961-8.574-5.517-10.718-11.411-8.286-14.587Z" fill="#ED1C24"/><path d="M13.344 215.34s-5.112 7.858 4.947 9.467c.99.126 8.265.899 10.162 3.323 0 0-.165-4.179-6.101-6.646-5.916-2.466-8.348-3.072-9.008-6.144Zm19.788-8.255c-6.143-6.521-7.854-10.554-5.215-15.779 0 0-18.325 7.147-.227 19.833 6.472 4.535 5.4 9.175 5.4 9.342 1.01-1.066 6.184-6.876.041-13.396Z" fill="#ED1C24"/><path d="M42.846 219.345v-13.263h1.802l6.971 10.413v-10.413h1.684v13.263h-1.801l-6.972-10.422v10.422h-1.684Zm13.116-6.459c0-2.202.591-3.924 1.774-5.166 1.184-1.249 2.71-1.873 4.582-1.873 1.225 0 2.33.293 3.314.878a5.7 5.7 0 0 1 2.245 2.451c.52 1.044.779 2.229.779 3.556 0 1.345-.272 2.548-.815 3.61-.543 1.061-1.313 1.866-2.309 2.415a6.627 6.627 0 0 1-3.223.814c-1.25 0-2.366-.301-3.35-.904a5.825 5.825 0 0 1-2.237-2.47 7.48 7.48 0 0 1-.76-3.311Zm1.81.027c0 1.598.43 2.859 1.286 3.781.864.917 1.944 1.376 3.242 1.376 1.322 0 2.408-.465 3.26-1.394.856-.928 1.285-2.246 1.285-3.953 0-1.08-.184-2.021-.552-2.823-.362-.808-.897-1.432-1.603-1.873-.7-.446-1.488-.669-2.363-.669-1.243 0-2.315.428-3.214 1.285-.894.85-1.34 2.273-1.34 4.27Zm13.388 6.432v-13.263h4.573c1.032 0 1.82.064 2.363.19.76.175 1.41.492 1.947.95.7.591 1.222 1.348 1.566 2.271.35.917.525 1.966.525 3.148 0 1.008-.117 1.9-.353 2.678-.235.778-.537 1.424-.905 1.936-.369.507-.773.908-1.214 1.204-.434.289-.962.509-1.584.66-.616.151-1.325.226-2.128.226h-4.79Zm1.757-1.565h2.834c.875 0 1.56-.081 2.055-.244.501-.163.9-.392 1.195-.688.417-.416.74-.974.97-1.673.235-.706.352-1.56.352-2.561 0-1.387-.229-2.451-.688-3.193-.453-.748-1.005-1.249-1.657-1.502-.47-.181-1.228-.271-2.272-.271h-2.79v10.132Zm11.912 1.565v-13.263h9.597v1.566h-7.84v4.062h7.342v1.556h-7.343v4.514h8.15v1.565h-9.906Z" fill="#2D2D2D"/><path d="M260.618 198.412s-14.326 8.861-.825 17.659c2.597 1.714 12.017 6.479 11.749 10.889 0 0 5.71-8.569-2.638-13.961-8.575-5.517-10.718-11.411-8.286-14.587Z" fill="#ED1C24"/><path d="M255.63 215.34s-5.111 7.858 4.947 9.467c.99.126 8.266.899 10.162 3.323 0 0-.165-4.179-6.101-6.646-5.916-2.466-8.348-3.072-9.008-6.144Zm19.788-8.255c-6.142-6.521-7.853-10.554-5.215-15.779 0 0-18.324 7.147-.227 19.833 6.473 4.535 5.401 9.175 5.401 9.342 1.01-1.066 6.183-6.876.041-13.396Z" fill="#ED1C24"/><path d="M285.132 219.345v-13.263h1.802l6.972 10.413v-10.413h1.684v13.263h-1.802l-6.972-10.422v10.422h-1.684Zm13.116-6.459c0-2.202.592-3.924 1.775-5.166 1.183-1.249 2.71-1.873 4.581-1.873 1.226 0 2.33.293 3.314.878a5.7 5.7 0 0 1 2.246 2.451c.519 1.044.778 2.229.778 3.556 0 1.345-.271 2.548-.814 3.61-.544 1.061-1.313 1.866-2.309 2.415a6.63 6.63 0 0 1-3.224.814c-1.249 0-2.366-.301-3.35-.904a5.824 5.824 0 0 1-2.236-2.47 7.482 7.482 0 0 1-.761-3.311Zm1.811.027c0 1.598.429 2.859 1.286 3.781.863.917 1.944 1.376 3.241 1.376 1.322 0 2.409-.465 3.26-1.394.857-.928 1.286-2.246 1.286-3.953 0-1.08-.184-2.021-.553-2.823-.362-.808-.896-1.432-1.602-1.873-.701-.446-1.488-.669-2.363-.669-1.244 0-2.315.428-3.215 1.285-.893.85-1.34 2.273-1.34 4.27Zm13.388 6.432v-13.263h4.572c1.033 0 1.82.064 2.364.19.76.175 1.409.492 1.946.95.7.591 1.223 1.348 1.567 2.271.35.917.525 1.966.525 3.148 0 1.008-.118 1.9-.353 2.678-.236.778-.538 1.424-.906 1.936-.368.507-.772.908-1.213 1.204-.435.289-.963.509-1.585.66-.615.151-1.325.226-2.127.226h-4.79Zm1.756-1.565h2.834c.876 0 1.561-.081 2.056-.244.501-.163.899-.392 1.195-.688.416-.416.739-.974.969-1.673.235-.706.353-1.56.353-2.561 0-1.387-.229-2.451-.688-3.193-.453-.748-1.005-1.249-1.657-1.502-.471-.181-1.229-.271-2.273-.271h-2.789v10.132Zm11.912 1.565v-13.263h9.598v1.566h-7.841v4.062h7.343v1.556h-7.343v4.514h8.149v1.565h-9.906Z" fill="#2D2D2D"/><path d="M112.375 151.866V67.873S129.102 84.1 175.866 84.1c46.763 0 62.75-15.925 62.75-15.925v83.691c-19.509 28.638-117.362 20.08-126.241 0Z" fill="#E0454C"/><path d="M112.008 210.067V124.68s16.178 16.517 62.941 16.517c46.763 0 63.625-17.599 63.625-17.599v86.469c-19.887 24.931-114.463 20.256-126.566 0Z" fill="#0070CC"/><path d="M238.72 64.255c0 2.369-1.496 4.799-4.623 7.163-3.111 2.351-7.683 4.512-13.441 6.344-11.505 3.662-27.519 5.943-45.421 5.943-17.903 0-33.917-2.281-45.421-5.942-5.758-1.833-10.33-3.994-13.442-6.346-3.127-2.363-4.623-4.793-4.623-7.162 0-2.368 1.496-4.798 4.623-7.162 3.112-2.352 7.684-4.512 13.442-6.345 11.504-3.661 27.518-5.942 45.421-5.942 17.902 0 33.916 2.28 45.421 5.942 5.758 1.833 10.33 3.994 13.441 6.345 3.127 2.364 4.623 4.794 4.623 7.162Z" fill="#E0454C" stroke="#2D2D2D" stroke-width="2"/><path d="m111.629 64.255.674 143.752M238.721 63.889v144.118m0 0c0 10.846-28.298 19.639-63.206 19.639s-63.207-8.793-63.207-19.639m126.417-87.252c0 10.847-28.394 19.64-63.42 19.64-35.025 0-63.419-8.793-63.419-19.64" stroke="#2D2D2D" stroke-width="2"/><path d="M131.962 116.552v-14.273h2.846l3.381 10.106c.312.941.539 1.646.682 2.113.162-.519.416-1.282.76-2.288l3.42-9.931h2.544v14.273h-1.823v-11.946l-4.151 11.946h-1.705l-4.132-12.151v12.151h-1.822Zm16.921 0v-14.273h10.329v1.684h-8.438v4.372h7.902v1.675h-7.902v4.858h8.77v1.684h-10.661Zm13.413 0v-14.273h2.846l3.381 10.106c.312.941.539 1.646.682 2.113.163-.519.416-1.282.76-2.288l3.421-9.931h2.543v14.273h-1.822v-11.946l-4.152 11.946h-1.705l-4.131-12.151v12.151h-1.823Zm16.307-6.951c0-2.37.637-4.223 1.91-5.56 1.274-1.344 2.917-2.015 4.931-2.015 1.319 0 2.508.314 3.567.944a6.136 6.136 0 0 1 2.416 2.639c.559 1.123.838 2.398.838 3.826 0 1.448-.292 2.743-.877 3.885-.584 1.142-1.413 2.009-2.485 2.6a7.137 7.137 0 0 1-3.469.876c-1.344 0-2.546-.325-3.605-.974a6.268 6.268 0 0 1-2.407-2.658 8.046 8.046 0 0 1-.819-3.563Zm1.949.029c0 1.72.462 3.077 1.384 4.07.929.986 2.092 1.48 3.489 1.48 1.422 0 2.592-.5 3.508-1.5.922-.999 1.383-2.418 1.383-4.255 0-1.162-.198-2.174-.594-3.037-.39-.87-.965-1.542-1.725-2.016-.753-.48-1.601-.72-2.543-.72-1.338 0-2.491.46-3.459 1.382-.962.915-1.443 2.447-1.443 4.596Zm14.388 6.922v-14.273h6.334c1.273 0 2.241.13 2.904.389.662.253 1.192.705 1.588 1.354a4.05 4.05 0 0 1 .594 2.151c0 1.013-.328 1.867-.984 2.561-.656.695-1.669 1.136-3.04 1.324.5.24.88.477 1.14.711.552.506 1.075 1.139 1.569 1.899l2.485 3.884h-2.378l-1.89-2.969c-.553-.857-1.007-1.513-1.365-1.967-.357-.454-.678-.772-.964-.954a2.791 2.791 0 0 0-.858-.38c-.214-.045-.565-.068-1.052-.068h-2.193v6.338h-1.89Zm1.89-7.974h4.064c.864 0 1.539-.087 2.027-.263.487-.181.857-.467 1.11-.856.254-.396.381-.825.381-1.286 0-.675-.247-1.23-.741-1.665-.487-.434-1.26-.652-2.319-.652h-4.522v4.722Zm16.356 7.974v-6.046l-5.505-8.227h2.299l2.816 4.303c.52.805 1.004 1.61 1.452 2.415.429-.746.949-1.587 1.559-2.522l2.768-4.196h2.202l-5.7 8.227v6.046h-1.891Zm-61.206 85.744v-14.274h4.921c1.111 0 1.958.068 2.543.205.819.188 1.517.529 2.095 1.022.754.636 1.316 1.451 1.686 2.444.377.987.565 2.116.565 3.388 0 1.084-.127 2.045-.38 2.882-.253.838-.578 1.532-.974 2.084-.397.545-.832.977-1.306 1.295-.468.311-1.036.548-1.705.711-.663.162-1.426.243-2.29.243h-5.155Zm1.89-1.684h3.05c.942 0 1.679-.088 2.212-.263.539-.176.968-.422 1.286-.74.449-.448.796-1.049 1.043-1.802.253-.759.38-1.678.38-2.755 0-1.493-.247-2.639-.74-3.437-.488-.805-1.082-1.344-1.784-1.616-.506-.195-1.322-.292-2.446-.292h-3.001v10.905Zm13.053 1.684v-14.274h1.89v14.274h-1.89Zm4.789-4.586 1.783-.156c.085.714.279 1.302.585 1.763.312.454.792.824 1.442 1.11.65.279 1.38.418 2.192.418.722 0 1.358-.107 1.91-.321.553-.214.962-.506 1.228-.876.273-.377.409-.786.409-1.227 0-.448-.129-.838-.389-1.169-.26-.337-.689-.619-1.287-.847-.383-.149-1.231-.379-2.543-.691-1.312-.318-2.231-.617-2.758-.896-.682-.357-1.192-.798-1.529-1.324a3.297 3.297 0 0 1-.497-1.782c0-.72.204-1.392.613-2.015.41-.63 1.007-1.107 1.793-1.431.787-.325 1.66-.487 2.622-.487 1.059 0 1.991.172 2.796.516.812.337 1.436.837 1.871 1.499.436.662.669 1.412.702 2.249l-1.813.137c-.097-.903-.428-1.584-.993-2.045-.559-.461-1.387-.691-2.485-.691-1.144 0-1.978.211-2.505.633-.519.415-.779.918-.779 1.509 0 .513.185.934.555 1.266.364.331 1.312.671 2.846 1.022 1.539.344 2.595.646 3.167.905.831.383 1.445.87 1.841 1.461.397.584.595 1.259.595 2.025 0 .759-.218 1.477-.653 2.152-.435.668-1.062 1.191-1.881 1.567-.812.37-1.728.555-2.748.555-1.293 0-2.377-.188-3.254-.564-.871-.377-1.556-.942-2.057-1.695-.493-.759-.753-1.616-.779-2.57Zm14.076 4.586v-14.274h1.89v7.079l7.094-7.079h2.563l-5.993 5.784 6.256 8.49h-2.495l-5.086-7.225-2.339 2.279v4.946h-1.89Z" fill="#fff"/></svg>