<svg width="53" height="24" fill="none" xmlns="http://www.w3.org/2000/svg"><path d="M24.601 19.074v-.642c-.437.699-1.03 1.146-1.782 1.318-.75.172-1.49.115-2.219-.183-.74-.298-1.367-.86-1.894-1.674-.526-.814-.795-1.88-.795-3.21 0-1.56.347-2.81 1.042-3.784.695-.963 1.816-1.445 3.362-1.445a5.89 5.89 0 0 1 3.272.974c1.01.654 1.502 1.858 1.502 3.612v5.297c0 1.755-.504 2.947-1.502 3.59a5.97 5.97 0 0 1-3.272.962c-2.253 0-3.654-1.078-4.191-3.233h2.678c.19.355.493.62.897.814.403.183.807.24 1.21.149.404-.092.773-.332 1.098-.734.348-.413.538-1.009.594-1.811ZM20.41 14.75c0 1.731.493 2.694 1.468 2.878.975.183 1.703-.046 2.163-.7.224-.275.381-.71.482-1.295.1-.585.1-1.17.022-1.754a3.614 3.614 0 0 0-.605-1.537c-.314-.447-.784-.676-1.4-.676-.83 0-1.402.31-1.693.94-.292.62-.437 1.341-.437 2.144Zm15.656 4.92h-1.289c-.37 0-.672-.115-.897-.356-.235-.24-.347-.55-.347-.917v-5.113c0-.597-.18-1.044-.538-1.32a1.907 1.907 0 0 0-1.199-.412c-.437 0-.83.138-1.177.413-.347.275-.515.71-.515 1.319v6.397h-2.578v-5.87c0-1.709.437-2.844 1.3-3.417a5.598 5.598 0 0 1 2.88-.94c1.076 0 2.074.287 2.982.86.907.573 1.355 1.743 1.355 3.497v5.859h.023Zm.628-9.127h2.577v9.138h-2.577v-9.138ZM44 19.67c-.806.046-1.68.034-2.622-.035-.941-.08-1.412-.688-1.412-1.846V8.01h1.323c.313 0 .605.126.84.378.247.253.37.55.37.906v.344h1.502v.528c0 .378-.123.688-.37.917-.246.24-.538.355-.885.355h-.258v5.63c0 .424.246.642.74.642H44v1.96Z" fill="#fff"/><path d="M51.017 16.585h1.837c-.268 1.055-.784 1.858-1.546 2.408-.762.574-1.715.86-2.87.86-1.4 0-2.487-.458-3.272-1.387-.784-.906-1.176-2.19-1.176-3.876 0-1.605.38-2.854 1.143-3.76.784-.929 1.871-1.388 3.272-1.388 1.468 0 2.611.448 3.418 1.353.785.93 1.177 2.213 1.177 3.876v.413a.7.7 0 0 1-.033.263h-6.355c.023.78.213 1.353.55 1.731.313.402.795.597 1.434.597.414 0 .773-.092 1.064-.264a.402.402 0 0 0 .202-.138l.202-.206c.022-.08.112-.172.28-.298.157-.115.381-.183.672-.183Zm-4.405-2.923h3.755c-.045-.677-.225-1.181-.516-1.502-.314-.356-.773-.528-1.356-.528-.538 0-.975.172-1.323.528-.358.344-.537.848-.56 1.502ZM14.783 5.946h1.323c.347 0 .638.126.885.378s.37.55.37.906v12.452h-2.578V5.946ZM36.694 8.01h1.322c.348 0 .639.126.885.378.247.252.37.55.37.906v.79h-2.577V8.01Zm-15.399.137h-.403V7.85c-.202.23-.482.344-.83.344a1.2 1.2 0 0 1-.84-.332 1.208 1.208 0 0 1-.37-.906c0-.379.134-.688.392-.929.236-.23.527-.332.852-.332.336 0 .605.114.807.355v-.298h.403v2.396h-.01Zm-.415-1.192a.893.893 0 0 0-.224-.596.745.745 0 0 0-.56-.241.787.787 0 0 0-.594.252c-.157.16-.235.333-.235.516 0 .24.067.447.213.62a.685.685 0 0 0 .571.263c.224 0 .415-.08.583-.241a.732.732 0 0 0 .246-.573Zm3.329-.069c0 .378-.112.688-.336.929a1.162 1.162 0 0 1-.897.378 1.03 1.03 0 0 1-.796-.332v1.077h-.425V5.74h.403v.287c.1-.115.224-.195.347-.252.135-.058.27-.08.426-.08.325 0 .617.114.863.332.28.23.415.516.415.86Zm-.437.057a.806.806 0 0 0-.236-.584.794.794 0 0 0-.582-.241.757.757 0 0 0-.583.263.826.826 0 0 0-.213.574c0 .206.056.378.18.539.145.183.358.275.638.275a.77.77 0 0 0 .572-.241c.157-.149.224-.344.224-.585Zm3.25 1.204h-.403V7.85c-.202.23-.482.344-.83.344a1.2 1.2 0 0 1-.84-.332 1.208 1.208 0 0 1-.37-.906c0-.379.135-.688.392-.929.236-.23.527-.332.852-.332.336 0 .605.114.807.355v-.298h.404v2.396h-.012Zm-.403-1.192a.894.894 0 0 0-.224-.596.745.745 0 0 0-.56-.241.787.787 0 0 0-.595.252c-.157.16-.235.333-.235.516 0 .24.067.447.213.62a.685.685 0 0 0 .572.263.81.81 0 0 0 .582-.241.771.771 0 0 0 .247-.573Zm3.216.401c-.135.275-.292.482-.471.62a1.18 1.18 0 0 1-.729.229c-.325 0-.616-.115-.863-.356a1.229 1.229 0 0 1-.392-.917h.023s0 .011-.011.023c0-.379.123-.688.38-.929.225-.218.494-.332.807-.332.292 0 .538.08.762.229.213.149.381.367.482.642h-.47c-.157-.287-.415-.436-.762-.436a.705.705 0 0 0-.55.241.844.844 0 0 0-.224.585c0 .23.079.435.236.596a.77.77 0 0 0 .571.24.821.821 0 0 0 .426-.114.912.912 0 0 0 .314-.31h.47v-.011Zm2.432.791h-.426V6.771a.604.604 0 0 0-.18-.459.619.619 0 0 0-.448-.183.623.623 0 0 0-.437.16.586.586 0 0 0-.168.436v1.422h-.426V4.948h.426v.998a.818.818 0 0 1 .617-.253c.269 0 .504.092.706.287.213.206.325.47.325.791v1.376h.01Zm2.779-1.032h-1.983a.771.771 0 0 0 .291.493c.146.103.303.16.47.16a.822.822 0 0 0 .449-.137.734.734 0 0 0 .303-.367h.437c-.112.321-.292.55-.527.711a1.167 1.167 0 0 1-.672.206c-.314 0-.583-.114-.807-.343a1.288 1.288 0 0 1-.36-.918c0-.378.124-.688.382-.917.235-.218.504-.321.818-.321.314 0 .594.103.818.321.258.24.392.573.392.986v.126h-.01Zm-.437-.401a.773.773 0 0 0-.291-.436.754.754 0 0 0-.482-.172.76.76 0 0 0-.56.23.79.79 0 0 0-.213.378h1.546ZM3.599 4.788s-7.79 4.861-.449 9.688c1.412.94 6.534 3.554 6.388 5.974 0 0 3.105-4.701-1.434-7.66-4.662-3.026-5.828-6.26-4.505-8.002Z" fill="#fff"/><path d="M.887 14.075s-2.78 4.31 2.69 5.194c.537.069 4.493.493 5.524 1.823 0 0-.09-2.293-3.317-3.646-3.216-1.353-4.539-1.686-4.897-3.371Zm10.758-4.529C8.305 5.969 7.375 3.756 8.81.889c0 0-9.963 3.922-.123 10.881 3.519 2.488 2.936 5.034 2.936 5.125.549-.584 3.362-3.772.022-7.35Z" fill="#fff"/></svg>