<svg width="50" height="22" fill="none" xmlns="http://www.w3.org/2000/svg"><path d="M10.189 13.501v-.66c-.454.72-1.07 1.18-1.85 1.356a3.77 3.77 0 0 1-2.302-.189c-.768-.306-1.42-.884-1.966-1.721-.546-.838-.826-1.934-.826-3.302 0-1.604.36-2.889 1.082-3.891.721-.99 1.884-1.486 3.49-1.486 1.22 0 2.349.33 3.396 1.002 1.046.672 1.558 1.91 1.558 3.715v5.448c0 1.804-.523 3.03-1.559 3.69a6.238 6.238 0 0 1-3.396.99c-2.338 0-3.791-1.108-4.35-3.324h2.78c.198.365.512.636.93.837.42.188.838.247 1.257.153.418-.094.802-.342 1.14-.755.36-.424.558-1.037.616-1.863Zm-4.35-4.445c0 1.78.512 2.77 1.524 2.96 1.012.188 1.768-.048 2.244-.72.233-.283.396-.73.5-1.332a5.87 5.87 0 0 0 .024-1.804 3.697 3.697 0 0 0-.628-1.58c-.326-.46-.814-.696-1.454-.696-.86 0-1.454.318-1.756.967-.303.636-.454 1.38-.454 2.205Zm16.249 5.058H20.75c-.383 0-.697-.118-.93-.365-.244-.248-.36-.566-.36-.944V7.546c0-.613-.187-1.073-.559-1.356a1.99 1.99 0 0 0-1.244-.424c-.454 0-.861.141-1.221.424-.361.283-.536.731-.536 1.356v6.58h-2.675V8.09c0-1.757.454-2.925 1.35-3.514a5.845 5.845 0 0 1 2.989-.967c1.116 0 2.151.295 3.093.884.943.59 1.408 1.793 1.408 3.597v6.025h.023Zm.651-9.385h2.675v9.398H22.74V4.729Zm7.584 9.386c-.838.047-1.745.036-2.722-.035-.977-.083-1.465-.708-1.465-1.899V2.123h1.372c.326 0 .628.13.873.389.255.26.383.566.383.932v.353h1.559v.543c0 .389-.128.707-.384.943a1.263 1.263 0 0 1-.919.366h-.267v5.79c0 .436.256.66.767.66h.803v2.016Z" fill="#fff"/><path d="M37.603 10.943h1.908c-.28 1.085-.814 1.91-1.605 2.476-.791.59-1.78.884-2.978.884-1.454 0-2.582-.471-3.396-1.427-.814-.931-1.221-2.252-1.221-3.985 0-1.651.395-2.936 1.186-3.868.814-.955 1.943-1.427 3.396-1.427 1.524 0 2.71.46 3.548 1.392.814.955 1.221 2.276 1.221 3.985v.425c0 .13-.012.224-.035.271h-6.595c.024.802.221 1.391.57 1.78.326.413.826.614 1.49.614.43 0 .802-.095 1.104-.271a.418.418 0 0 0 .21-.142l.209-.212c.023-.083.116-.177.29-.307.163-.118.396-.188.698-.188Zm-4.57-3.007h3.896c-.047-.696-.233-1.215-.535-1.545-.326-.366-.803-.542-1.408-.542-.558 0-1.011.176-1.372.542-.372.354-.558.873-.582 1.545ZM0 0h1.372c.361 0 .663.13.92.39.255.259.383.565.383.93v12.807H0V0Zm22.738 2.123h1.373c.36 0 .663.13.919.39.256.259.384.565.384.93v.814h-2.676V2.123Zm-4.766 17.611v-.206l3.303-2.045.267.442-2.784 1.674 2.79 1.646-.266.427-3.31-1.938Zm6.821 1.212a.398.398 0 0 0-.175-.35 1.324 1.324 0 0 0-.435-.199 6.613 6.613 0 0 0-.568-.142 3.25 3.25 0 0 1-.561-.171 1.29 1.29 0 0 1-.435-.285c-.117-.124-.175-.295-.175-.514 0-.18.037-.334.112-.463a.981.981 0 0 1 .308-.313c.127-.086.274-.147.442-.185.168-.043.344-.065.526-.065.327 0 .608.043.842.129.238.08.427.166.568.256l-.225.45a5.055 5.055 0 0 0-.505-.243 1.632 1.632 0 0 0-.673-.121 1.37 1.37 0 0 0-.308.035c-.099.02-.19.05-.274.093a.574.574 0 0 0-.196.171.424.424 0 0 0-.07.25c0 .123.058.218.175.284.117.067.262.124.435.171.173.043.36.086.56.129.206.038.396.095.569.17.173.077.318.179.434.307.117.128.176.302.176.52 0 .328-.129.599-.386.812-.252.214-.633.321-1.143.321a2.43 2.43 0 0 1-.456-.043 2.73 2.73 0 0 1-.778-.27 1.64 1.64 0 0 1-.267-.186l.28-.463c.057.057.132.117.225.178.094.057.197.11.309.157.112.048.231.086.357.114a2.019 2.019 0 0 0 .743.014c.113-.023.211-.057.295-.1a.555.555 0 0 0 .197-.178.47.47 0 0 0 .077-.27Zm3.538-2.601h.996v2.43c0 .232.014.456.042.67h.47v.463h-.933l-.02-.606h-.029a1.49 1.49 0 0 1-.484.499 1.328 1.328 0 0 1-.729.192c-.215 0-.4-.026-.554-.078a.757.757 0 0 1-.372-.257 1.216 1.216 0 0 1-.217-.491 3.627 3.627 0 0 1-.07-.777v-1.568h-.47v-.477h1.017v1.93c0 .196.007.371.021.528.019.152.054.283.105.392a.56.56 0 0 0 .224.242.901.901 0 0 0 .407.079.904.904 0 0 0 .631-.243 1.53 1.53 0 0 0 .414-.605v-1.846h-.449v-.477Zm3.357 3.563v-2.373c0-.1-.005-.195-.014-.285a.785.785 0 0 0-.05-.25.364.364 0 0 0-.112-.178.27.27 0 0 0-.19-.064.514.514 0 0 0-.406.2c-.107.133-.19.299-.245.498v2.452h-.533v-3.563h.364l.106.435h.028c.046-.072.09-.138.133-.2a.904.904 0 0 1 .154-.17.63.63 0 0 1 .21-.108.904.904 0 0 1 .302-.043c.07 0 .143.012.218.036a.543.543 0 0 1 .203.1.555.555 0 0 1 .168.178.693.693 0 0 1 .091.278 1.53 1.53 0 0 1 .358-.435c.136-.104.32-.157.554-.157.154 0 .278.027.372.079a.526.526 0 0 1 .224.228.927.927 0 0 1 .112.349c.023.133.035.283.035.449v2.544h-.533v-2.423c0-.1-.004-.192-.014-.278a.827.827 0 0 0-.056-.235.343.343 0 0 0-.105-.157.252.252 0 0 0-.175-.057.521.521 0 0 0-.414.2c-.112.133-.196.323-.252.57v2.38h-.533Zm4.064 0v-2.373c0-.1-.005-.195-.014-.285a.788.788 0 0 0-.05-.25.364.364 0 0 0-.111-.178.27.27 0 0 0-.19-.064.515.515 0 0 0-.406.2c-.108.133-.19.299-.246.498v2.452h-.533v-3.563h.365l.105.435h.028l.133-.2a.9.9 0 0 1 .155-.17.63.63 0 0 1 .21-.108.905.905 0 0 1 .302-.043.71.71 0 0 1 .217.036.545.545 0 0 1 .203.1.555.555 0 0 1 .169.178.694.694 0 0 1 .09.278 1.53 1.53 0 0 1 .358-.435c.136-.104.32-.157.554-.157a.76.76 0 0 1 .372.079.525.525 0 0 1 .224.228.927.927 0 0 1 .113.349c.023.133.035.283.035.449v2.544h-.533v-2.423c0-.1-.005-.192-.014-.278a.82.82 0 0 0-.056-.235.342.342 0 0 0-.106-.157.252.252 0 0 0-.175-.057.521.521 0 0 0-.414.2c-.112.133-.196.323-.252.57v2.38h-.533Zm2.963 0v-.478h1.22v-2.608h-1.22v-.477h1.782v3.085h1.192v.478h-2.974Zm1.031-4.575c0-.128.042-.237.127-.327a.412.412 0 0 1 .322-.143c.136 0 .248.047.337.143a.439.439 0 0 1 0 .64.466.466 0 0 1-.337.129.433.433 0 0 1-.449-.442Zm2.515 1.012h.835v-.705l.547-.157v.862h1.872v.477h-1.873v1.682c0 .347.082.603.246.77.168.166.407.249.715.249.21 0 .393-.04.547-.121.16-.081.302-.169.428-.264l.182.42c-.163.133-.36.24-.589.321-.224.08-.456.121-.694.121a1.65 1.65 0 0 1-.533-.085 1.174 1.174 0 0 1-.736-.684 1.67 1.67 0 0 1-.112-.642v-1.767h-.835v-.477Zm4.429 3.327-.266-.427 2.79-1.646-2.783-1.674.266-.442L50 19.528v.206l-3.31 1.938Z" fill="#fff"/></svg>