<svg width="283" height="82" fill="none" xmlns="http://www.w3.org/2000/svg"><path d="M106.704 34.91c0-8.665-2.475-13.114-7.424-13.357a13.97 13.97 0 0 0-5.764.945c-1.493.534-2.498 1.062-3.026 1.595v20.683c3.166 1.984 5.978 2.906 8.43 2.76 5.187-.341 7.784-4.546 7.784-12.626Zm6.106.36c0 4.402-1.034 8.056-3.114 10.962-2.318 3.288-5.531 4.982-9.638 5.075-3.097.099-6.286-.87-9.569-2.9v18.798l-5.31-1.891V23.589c.872-1.068 1.993-1.984 3.353-2.761 3.16-1.839 7-2.784 11.52-2.83l.076.075c4.13-.052 7.314 1.641 9.551 5.075 2.085 3.15 3.131 7.186 3.131 12.122Zm32.453 12.336c0 5.905-.593 9.994-1.778 12.267-1.191 2.274-3.457 4.09-6.803 5.44-2.713 1.068-5.647 1.648-8.796 1.747l-.877-3.341c3.201-.435 5.455-.87 6.762-1.305 2.574-.87 4.34-2.204 5.31-3.99.779-1.456 1.162-4.234 1.162-8.347v-1.38a27.32 27.32 0 0 1-11.416 2.465c-2.614 0-4.92-.818-6.907-2.465-2.231-1.792-3.347-4.066-3.347-6.82V19.812l5.31-1.816v22.209c0 2.372.767 4.199 2.301 5.48 1.534 1.282 3.521 1.897 5.955 1.85 2.434-.051 5.043-.99 7.814-2.83V18.798h5.31v28.808Zm20.729 3.411c-.633.052-1.214.075-1.749.075-3.004 0-5.345-.713-7.018-2.146-1.667-1.432-2.504-3.41-2.504-5.933v-20.88h-3.637v-3.335h3.637V9.94l5.304-1.885v10.742h5.967v3.335h-5.967v20.735c0 1.99.535 3.399 1.604 4.222.918.679 2.376 1.067 4.363 1.166v2.76Zm32.15-.435h-5.31V30.119c0-2.082-.488-3.874-1.458-5.37-1.121-1.694-2.678-2.54-4.677-2.54-2.434 0-5.478 1.281-9.132 3.845v24.528h-5.31V1.67l5.31-1.67v22.278c3.392-2.465 7.099-3.7 11.125-3.7 2.812 0 5.089.945 6.832 2.83 1.749 1.885 2.62 4.234 2.62 7.041v22.133Zm28.224-16.507c0-3.33-.634-6.078-1.894-8.253-1.499-2.651-3.829-4.049-6.978-4.194-5.821.337-8.726 4.501-8.726 12.482 0 3.66.604 6.716 1.824 9.17 1.557 3.126 3.893 4.669 7.007 4.617 5.844-.047 8.767-4.652 8.767-13.822Zm5.815.035c0 4.739-1.214 8.682-3.637 11.832-2.666 3.526-6.35 5.295-11.05 5.295-4.659 0-8.29-1.769-10.91-5.295-2.376-3.15-3.561-7.093-3.561-11.832 0-4.454 1.283-8.201 3.851-11.252 2.713-3.237 6.281-4.86 10.69-4.86 4.41 0 8 1.623 10.765 4.86 2.568 3.05 3.852 6.797 3.852 11.252Zm30.443 16.472h-5.31V28.959c0-2.372-.715-4.222-2.144-5.556-1.429-1.328-3.335-1.972-5.711-1.92-2.521.047-4.921.87-7.198 2.465v26.634h-5.31v-27.29c3.056-2.22 5.868-3.67 8.435-4.35 2.423-.631 4.561-.945 6.403-.945 1.26 0 2.446.122 3.561.366 2.086.481 3.782 1.374 5.089 2.685 1.459 1.45 2.185 3.19 2.185 5.226v24.308Z" fill="#646464"/><path d="M32.734 1.866c-2.732.013-5.341.245-7.637.651-6.763 1.193-7.99 3.69-7.99 8.293v6.081h15.98v2.027H11.11c-4.645 0-8.712 2.787-9.984 8.089-1.467 6.077-1.532 9.87 0 16.215 1.136 4.724 3.849 8.09 8.494 8.09h5.494v-7.29c0-5.266 4.564-9.912 9.984-9.912H41.06c4.443 0 7.99-3.652 7.99-8.107V10.81c0-4.323-3.653-7.571-7.99-8.293a49.926 49.926 0 0 0-8.326-.65Zm-8.643 4.89c1.651 0 2.999 1.369 2.999 3.05 0 1.676-1.348 3.031-2.999 3.031-1.657 0-2.999-1.355-2.999-3.03 0-1.682 1.343-3.05 3-3.05Z" fill="url(#a)"/><path d="M51.043 18.918v7.085c0 5.493-4.664 10.116-9.983 10.116H25.097c-4.372 0-7.99 3.736-7.99 8.107V59.42c0 4.324 3.765 6.867 7.99 8.107 5.059 1.485 9.91 1.754 15.963 0 4.023-1.163 7.99-3.503 7.99-8.107v-6.08H33.088v-2.03H57.04c4.645 0 6.375-3.234 7.99-8.089 1.67-4.998 1.598-9.804 0-16.215-1.147-4.616-3.34-8.089-7.99-8.089h-5.998Zm-8.977 38.474c1.656 0 2.998 1.355 2.998 3.031 0 1.682-1.342 3.05-2.998 3.05-1.651 0-3-1.368-3-3.05 0-1.676 1.349-3.031 3-3.031Z" fill="url(#b)"/><path d="M272.964 14.072h.931v-5.83h2.205v-.694h-5.341v.694h2.205v5.83Zm3.962 0h.795V8.748l1.727 5.323h.885l1.799-5.305v5.306H283V7.548h-1.148l-1.966 5.589-1.677-5.59h-1.283v6.525Z" fill="#646464"/><path opacity=".444" d="M54.685 77.854c0 .545-.554 1.084-1.63 1.587-1.076.503-2.654.96-4.642 1.345-1.99.385-4.35.69-6.948.898a103.32 103.32 0 0 1-8.196.316c-2.812 0-5.597-.107-8.196-.316-2.598-.208-4.959-.513-6.948-.898-1.988-.385-3.566-.842-4.642-1.345-1.076-.503-1.63-1.042-1.63-1.587 0-.544.554-1.083 1.63-1.586 1.076-.503 2.654-.96 4.642-1.345 1.99-.385 4.35-.69 6.948-.9a104.29 104.29 0 0 1 8.196-.315c2.812 0 5.597.108 8.196.316 2.598.208 4.959.514 6.948.899 1.988.385 3.566.842 4.642 1.345 1.076.503 1.63 1.042 1.63 1.586Z" fill="url(#c)"/><defs><linearGradient id="a" x1="0" y1="1.866" x2="36.8" y2="33.276" gradientUnits="userSpaceOnUse"><stop stop-color="#5A9FD4"/><stop offset="1" stop-color="#306998"/></linearGradient><linearGradient id="b" x1="41.681" y1="59.912" x2="28.49" y2="41.395" gradientUnits="userSpaceOnUse"><stop stop-color="#FFD43B"/><stop offset="1" stop-color="#FFE873"/></linearGradient><radialGradient id="c" cx="0" cy="0" r="1" gradientUnits="userSpaceOnUse" gradientTransform="matrix(0 -4.1459 18.2533 0 33.269 77.854)"><stop stop-color="#B8B8B8" stop-opacity=".498"/><stop offset="1" stop-color="#7F7F7F" stop-opacity="0"/></radialGradient></defs></svg>