<svg width="48" height="48" viewBox="0 0 48 48" fill="none" xmlns="http://www.w3.org/2000/svg">
<rect x="3.98888" y="9.16663" width="41.0222" height="33.7111" rx="1.1" fill="white" stroke="black" stroke-width="1.8"/>
<path d="M3.57276 2.82283C3.6596 2.29074 4.11927 1.9 4.6584 1.9H44.3416C44.8807 1.9 45.3404 2.29074 45.4272 2.82283L46.7328 10.8228C46.842 11.4922 46.3254 12.1 45.6472 12.1H3.35285C2.67462 12.1 2.15797 11.4922 2.26721 10.8228L3.57276 2.82283Z" fill="white" stroke="#ED1C24" stroke-width="1.8"/>
<rect x="1.9" y="42.5445" width="44.1556" height="4.46667" rx="1.1" fill="white" stroke="black" stroke-width="1.8"/>
<path d="M2.94444 14.5333V12.3H9.49999V14.5333C9.49999 16.3436 8.03248 17.8111 6.22222 17.8111C4.41195 17.8111 2.94444 16.3436 2.94444 14.5333Z" fill="white" stroke="#ED1C24" stroke-width="1.8" stroke-linejoin="round"/>
<path d="M10.2555 14.5333V12.3H16.8111V14.5333C16.8111 16.3436 15.3436 17.8111 13.5333 17.8111C11.7231 17.8111 10.2555 16.3436 10.2555 14.5333Z" fill="white" stroke="#ED1C24" stroke-width="1.8" stroke-linejoin="round"/>
<path d="M17.5667 14.5333V12.3H24.1222V14.5333C24.1222 16.3436 22.6547 17.8111 20.8445 17.8111C19.0342 17.8111 17.5667 16.3436 17.5667 14.5333Z" fill="white" stroke="#ED1C24" stroke-width="1.8" stroke-linejoin="round"/>
<path d="M24.8778 14.5333V12.3H31.4333V14.5333C31.4333 16.3436 29.9658 17.8111 28.1556 17.8111C26.3453 17.8111 24.8778 16.3436 24.8778 14.5333Z" fill="white" stroke="#ED1C24" stroke-width="1.8" stroke-linejoin="round"/>
<path d="M32.1889 14.5333V12.3H38.7444V14.5333C38.7444 16.3436 37.2769 17.8111 35.4667 17.8111C33.6564 17.8111 32.1889 16.3436 32.1889 14.5333Z" fill="white" stroke="#ED1C24" stroke-width="1.8" stroke-linejoin="round"/>
<path d="M39.5 14.5333V12.3H46.0555V14.5333C46.0555 16.3436 44.588 17.8111 42.7778 17.8111C40.9675 17.8111 39.5 16.3436 39.5 14.5333Z" fill="white" stroke="#ED1C24" stroke-width="1.8" stroke-linejoin="round"/>
<path d="M38.8293 42.1218V24.7803C38.8293 24.228 38.3815 23.7803 37.8293 23.7803H28.3658C27.8136 23.7803 27.3658 24.228 27.3658 24.7803V42.1218" stroke="black" stroke-width="1.8"/>
<rect x="8.778" y="23.5339" width="13.1024" height="11.9561" rx="1.1" fill="white" stroke="black" stroke-width="1.8"/>
</svg>
