<svg width="48" height="48" viewBox="0 0 48 48" fill="none" xmlns="http://www.w3.org/2000/svg">
<path d="M4.43549 20.0793H43.2587V41.3899C43.2587 44.2065 40.9753 46.4899 38.1587 46.4899H9.5355C6.71884 46.4899 4.43549 44.2065 4.43549 41.3899V20.0793Z" fill="white" stroke="black" stroke-width="1.8"/>
<path d="M43.2 10.0897L4.37386 19.7089L3.53218 16.3116C2.73529 13.0952 4.69675 9.84172 7.91321 9.04483L35.0915 2.31134C38.308 1.51445 41.5614 3.47591 42.3583 6.69237L43.2 10.0897Z" fill="white"/>
<path d="M43.2 10.0897L43.4044 10.9147C43.8601 10.8018 44.138 10.3409 44.0251 9.88525L43.2 10.0897ZM4.37386 19.7089L3.54881 19.9133L3.75322 20.7384L4.57827 20.534L4.37386 19.7089ZM42.9956 9.26461L4.16945 18.8839L4.57827 20.534L43.4044 10.9147L42.9956 9.26461ZM5.19892 19.5045L4.35723 16.1072L2.70712 16.5161L3.54881 19.9133L5.19892 19.5045ZM8.11762 9.86989L35.2959 3.1364L34.8871 1.48629L7.7088 8.21978L8.11762 9.86989ZM41.5333 6.89678L42.375 10.2941L44.0251 9.88525L43.1834 6.48796L41.5333 6.89678ZM35.2959 3.1364C38.0567 2.4524 40.8493 4.13598 41.5333 6.89678L43.1834 6.48796C42.2736 2.81584 38.5592 0.576507 34.8871 1.48629L35.2959 3.1364ZM4.35723 16.1072C3.67324 13.3464 5.35682 10.5539 8.11762 9.86989L7.7088 8.21978C4.03667 9.12956 1.79734 12.8439 2.70712 16.5161L4.35723 16.1072Z" fill="black"/>
<path d="M4.66391 27.6427H44.1587" stroke="black" stroke-width="1.8" stroke-linejoin="round"/>
<path d="M12.5629 20.3081L8.04919 27.0786" stroke="black" stroke-width="1.8" stroke-linecap="round" stroke-linejoin="round"/>
<path d="M21.5903 20.308L17.0766 27.0786" stroke="black" stroke-width="1.8" stroke-linecap="round" stroke-linejoin="round"/>
<path d="M30.6176 20.308L26.1039 27.0786" stroke="black" stroke-width="1.8" stroke-linecap="round" stroke-linejoin="round"/>
<path d="M39.645 20.308L35.1313 27.0786" stroke="black" stroke-width="1.8" stroke-linecap="round" stroke-linejoin="round"/>
<path d="M6.8786 10.1523L14.7175 15.9641" stroke="black" stroke-width="1.8" stroke-linecap="round" stroke-linejoin="round"/>
<path d="M14.6315 7.89516L22.4185 13.9252" stroke="black" stroke-width="1.8" stroke-linecap="round" stroke-linejoin="round"/>
<path d="M22.6415 5.63841L30.3174 12.1359" stroke="black" stroke-width="1.8" stroke-linecap="round" stroke-linejoin="round"/>
<path d="M30.4591 3.99681L38.2164 10.1519" stroke="black" stroke-width="1.8" stroke-linecap="round" stroke-linejoin="round"/>
<path d="M21.5902 40.6197V31.5923L29.4892 35.9806L21.5902 40.6197Z" stroke="#ED1C24" stroke-width="1.8" stroke-linecap="round" stroke-linejoin="round"/>
</svg>
