<svg width="48" height="48" viewBox="0 0 48 48" fill="none" xmlns="http://www.w3.org/2000/svg">
<path d="M38.9657 9.87689H28.6596C28.1939 9.87689 27.8163 10.2544 27.8163 10.7201V35.7748H45C46.1046 35.7748 47 34.8794 47 33.7748V25.1659C47 24.8807 46.939 24.5987 46.8211 24.339L40.7868 11.05C40.4624 10.3356 39.7503 9.87689 38.9657 9.87689Z" fill="white" stroke="black" stroke-width="1.8" stroke-linecap="round" stroke-linejoin="round"/>
<rect x="0.9" y="31.8796" width="36.5673" height="4.91428" rx="2.1" fill="white" stroke="black" stroke-width="1.8"/>
<circle cx="35.4898" cy="36.7347" r="4.8551" fill="white" stroke="black" stroke-width="1.8"/>
<circle cx="35.4898" cy="36.7348" r="1.91837" fill="black"/>
<path d="M33.5714 10.3571V24.1837C33.5714 25.2882 34.4668 26.1837 35.5714 26.1837H46.5203" stroke="black" stroke-width="1.8" stroke-linecap="round" stroke-linejoin="round"/>
<path d="M46.5203 29.0612H43.1632" stroke="black" stroke-width="1.8" stroke-linecap="round" stroke-linejoin="round"/>
<path d="M46.5203 31.9388H43.1632" stroke="black" stroke-width="1.8" stroke-linecap="round" stroke-linejoin="round"/>
<rect x="1.85917" y="7.9" width="26.0163" height="24.0979" rx="2.1" fill="white" stroke="#ED1C24" stroke-width="1.8"/>
<circle cx="8.63266" cy="36.7347" r="4.8551" fill="white" stroke="black" stroke-width="1.8"/>
<circle cx="8.63266" cy="36.7348" r="1.91837" fill="black"/>
</svg>
