<?xml version="1.0" encoding="utf-8"?>
<!-- Generator: Adobe Illustrator 21.1.0, SVG Export Plug-In . SVG Version: 6.00 Build 0)  -->
<svg version="1.1" id="Layer_1" xmlns="http://www.w3.org/2000/svg" xmlns:xlink="http://www.w3.org/1999/xlink" x="0px" y="0px"
	 viewBox="0 0 54 54" style="enable-background:new 0 0 54 54;" xml:space="preserve">
<style type="text/css">
	.st0{fill:none;}
</style>
<g>
	<rect x="-0.2" y="0.1" class="st0" width="53.8" height="53.4" fill="#f64060" />
	<path d="M5.1,24.8c0.1,0.6,0,1.1-0.3,1.6c-0.3,0.5-0.8,0.8-1.4,0.9s-1.1,0-1.6-0.4c-0.5-0.3-0.8-0.8-0.9-1.4
		c-0.1-0.6,0-1.1,0.3-1.6C1.6,23.4,2,23.1,2.6,23s1.1,0,1.6,0.3C4.7,23.7,5,24.2,5.1,24.8z M43.9,28.4c1.3,2.1,1.7,4.4,1.2,6.8
		c-0.5,2.4-1.7,4.4-3.8,5.8c-1.7,1.2-3.5,1.7-5.6,1.7c-0.4,1.5-1.2,2.7-2.4,3.5c-1.2,0.9-2.5,1.3-4,1.2c-1.5,0-2.8-0.6-3.9-1.6
		c-0.2,0.2-0.3,0.3-0.4,0.3c-1.9,1.3-4,1.8-6.3,1.4s-4.1-1.6-5.4-3.5c-0.9-1.4-1.4-2.9-1.5-4.6c-1.5-0.3-2.9-0.9-4-2
		c-1.1-1.1-1.9-2.2-2.2-3.6c-0.4-1.3-0.4-2.7-0.1-4.2c0.4-1.5,1.1-2.8,2.3-3.9c-0.7-1.1-1-2.3-1.1-3.6c0-1.3,0.2-2.4,0.7-3.5
		c0.5-1.1,1.2-2,2.2-2.7c1-0.8,2.1-1.2,3.4-1.4c0.6-1.6,1.5-3,2.8-4.1c1.2-1.2,2.6-2,4.1-2.6s3-0.7,4.7-0.5s3.1,0.8,4.5,1.9
		c1.3-0.4,2.6-0.6,3.9-0.5c1.3,0.1,2.5,0.4,3.6,1s2.1,1.3,2.9,2.2c0.8,0.9,1.4,2,1.9,3.2c0.4,1.3,0.6,2.6,0.5,3.9
		c1,0.3,1.8,0.8,2.4,1.6c0.7,0.8,1.1,1.6,1.3,2.5s0.1,1.8-0.2,2.8C45.2,27,44.7,27.8,43.9,28.4z M10.1,41.1c0.2,0.1,0.4,0.4,0.4,0.6
		c0.1,0.3,0,0.5-0.1,0.8c-0.1,0.2-0.4,0.4-0.6,0.4c-0.3,0.1-0.5,0-0.7-0.1c-0.2-0.1-0.4-0.4-0.4-0.6c-0.1-0.3,0-0.5,0.1-0.8
		c0.1-0.2,0.4-0.4,0.6-0.4C9.6,40.9,9.9,40.9,10.1,41.1z M12.6,10c0.3,0.4,0.3,0.8,0.3,1.2c-0.1,0.5-0.3,0.8-0.7,1.1
		c-0.4,0.3-0.8,0.3-1.2,0.3c-0.5-0.1-0.8-0.3-1-0.7c-0.3-0.4-0.3-0.8-0.3-1.2c0.1-0.5,0.3-0.8,0.7-1.1c0.4-0.3,0.8-0.3,1.2-0.3
		C12,9.4,12.3,9.6,12.6,10z M37.1,35.7c-0.1-0.4-0.3-0.8-0.8-0.9c-0.4-0.2-0.9-0.3-1.4-0.3c-0.5,0-0.9-0.1-1.4-0.3s-0.7-0.6-0.7-1.1
		c-0.1-0.9,0.2-2.2,0.9-3.9c0.7-1.7,1.4-3.4,2.1-5.1s1-2.8,0.9-3.6c-0.3-1.9-1.3-2.8-3.3-2.9c-0.8,0-1.5,0.1-2.1,0.4l-0.1,0.1
		c-0.1,0-0.1,0.1-0.1,0.1c0,0-0.1,0-0.1,0.1c-0.1,0-0.1,0-0.1,0.1c0,0-0.1,0-0.1,0c-0.1,0-0.1,0-0.2,0c0,0-0.1-0.1-0.2-0.1
		c-0.1,0-0.1-0.1-0.2-0.1c-0.1,0-0.1-0.1-0.3-0.2c-0.1-0.1-0.2-0.2-0.3-0.3s-0.1-0.1-0.2-0.2c-0.1-0.1-0.2-0.2-0.3-0.2
		c-0.1,0-0.2-0.1-0.3-0.2c-0.1-0.1-0.2-0.1-0.3-0.1c-0.1,0-0.2-0.1-0.3-0.1c-0.6-0.1-1-0.1-1.3,0.1s-0.8,0.4-1.3,0.9
		c0,0-0.1,0.1-0.3,0.2s-0.3,0.2-0.3,0.3c-0.1,0.1-0.2,0.2-0.4,0.3c-0.2,0.1-0.3,0.2-0.5,0.2c-0.1,0-0.3,0-0.5-0.1
		c-1-0.5-1.8-0.9-2.3-1.1c-0.8-0.3-1.6-0.3-2.6,0.1s-1.7,1-2.1,1.8c-0.3,0.5-0.7,1.4-1.1,2.7c-0.5,1.3-0.9,2.5-1.2,3.7
		c-0.3,1.2-0.7,2.4-1.1,3.7s-0.6,2-0.6,2c-0.4,1.3-0.2,2.4,0.5,3.3s1.8,1.4,3.1,1.3c0.6,0,1-0.2,1.4-0.4c0.4-0.2,0.7-0.7,1.1-1.3
		c0.1-0.2,0.9-2.1,2.2-5.6c1.3-3.5,2.1-5.3,2.1-5.4c0.1-0.2,0.3-0.4,0.6-0.5c0.3-0.1,0.6-0.1,0.8,0c0.5,0.3,0.7,0.8,0.6,1.5
		c0,0.3-0.5,1.6-1.4,3.9c-0.9,2.3-1.4,3.5-1.4,3.7c-0.1,0.7,0.1,1.2,0.5,1.6c0.5,0.3,1,0.4,1.7,0.2c0.7-0.2,1.2-0.7,1.5-1.4
		c0.1-0.1,0.5-1,1.3-2.6s1.5-3.1,2.3-4.6s1.2-2.3,1.3-2.5c0.4-0.5,0.8-0.8,1.1-0.8c0.5,0,0.8,0.4,0.7,1.1c0,0.3-0.6,1.7-1.8,4.1
		c-1.2,2.4-1.8,3.9-2,4.5c-0.2,1-0.1,1.9,0.4,2.9c0.5,0.9,1.2,1.6,2.1,2.1c0.3,0.2,0.8,0.3,1.4,0.4c0.6,0.1,1.3,0.2,2,0.2
		c0.7,0,1.3-0.1,1.7-0.4C37,36.8,37.2,36.3,37.1,35.7z M17,2.2c0.1,0.3,0,0.6-0.1,0.9c-0.2,0.3-0.4,0.4-0.7,0.5
		c-0.3,0.1-0.6,0-0.9-0.2C15,3.2,14.8,3,14.8,2.7c-0.1-0.3,0-0.6,0.2-0.9c0.2-0.3,0.4-0.4,0.7-0.5c0.3-0.1,0.6,0,0.9,0.2
		C16.8,1.6,16.9,1.9,17,2.2z M26.4,49.1c0.2,0.3,0.3,0.7,0.2,1c-0.1,0.4-0.3,0.7-0.6,0.9s-0.7,0.3-1,0.2c-0.4-0.1-0.7-0.3-0.9-0.6
		c-0.2-0.3-0.3-0.7-0.2-1c0.1-0.4,0.3-0.7,0.6-0.9c0.3-0.2,0.7-0.3,1-0.2S26.2,48.7,26.4,49.1z M31.6,3.7c0.3,0.5,0.4,1,0.2,1.6
		s-0.5,1-1,1.3c-0.5,0.3-1,0.4-1.6,0.2c-0.6-0.1-1-0.5-1.3-1c-0.3-0.5-0.4-1.1-0.2-1.6c0.1-0.6,0.5-1,1-1.3c0.5-0.3,1-0.4,1.6-0.3
		C30.8,2.9,31.3,3.2,31.6,3.7z M40.8,45.3c0.4,0.5,0.5,1.1,0.4,1.7c-0.1,0.6-0.4,1.1-0.9,1.5c-0.5,0.4-1.1,0.5-1.7,0.4
		c-0.6-0.1-1.1-0.4-1.4-0.9c-0.4-0.5-0.5-1.1-0.4-1.7c0.1-0.6,0.4-1.1,0.9-1.5c0.5-0.4,1.1-0.5,1.7-0.4
		C39.9,44.5,40.4,44.8,40.8,45.3z M47,15.3c0.3,0.4,0.4,0.9,0.3,1.4c-0.1,0.5-0.3,0.9-0.7,1.2c-0.4,0.3-0.9,0.4-1.4,0.3
		c-0.5-0.1-0.9-0.3-1.2-0.8c-0.3-0.4-0.4-0.9-0.3-1.4c0.1-0.5,0.3-0.9,0.8-1.2c0.4-0.3,0.9-0.4,1.4-0.3C46.4,14.6,46.8,14.9,47,15.3
		z M50.1,28.6c0.1,0.4,0,0.7-0.2,1c-0.2,0.3-0.5,0.5-0.9,0.6c-0.4,0.1-0.7,0-1-0.2c-0.3-0.2-0.5-0.5-0.6-0.9c-0.1-0.4,0-0.7,0.2-1
		c0.2-0.3,0.5-0.5,0.9-0.6c0.4-0.1,0.7,0,1,0.2C49.8,28,50,28.3,50.1,28.6z M52.4,22c0.1,0.3,0,0.5-0.1,0.8
		c-0.1,0.2-0.4,0.4-0.6,0.5c-0.3,0.1-0.5,0-0.8-0.2c-0.2-0.2-0.4-0.4-0.4-0.6c-0.1-0.3,0-0.5,0.1-0.8c0.1-0.2,0.4-0.4,0.6-0.4
		c0.3-0.1,0.5,0,0.7,0.1C52.2,21.5,52.3,21.7,52.4,22z" fill="#f64060"/>
</g>
</svg>
