<svg width="620" height="496" fill="none" xmlns="http://www.w3.org/2000/svg"><rect width="620" height="496" rx="10" fill="#F6F6F6"/><path d="M26 112c0-9.941 8.015-18 17.902-18h531.196c9.887 0 17.902 8.059 17.902 18s-8.015 18-17.902 18H43.902C34.015 130 26 121.941 26 112Zm2 297c0-9.941 8-18 17.87-18h530.26c9.869 0 17.87 8.059 17.87 18s-8.001 18-17.87 18H45.87C36 427 28 418.941 28 409Z" fill="#EBEBEB"/><path d="M92.814 103.617 114 109.251V78.634L92.814 73 72 79.51V110l20.814-6.383Z" fill="#fff"/><path fill-rule="evenodd" clip-rule="evenodd" d="M72 111V78.785L93.301 72 115 77.876v32.332l-21.672-5.869L72 111Zm1.289-1.781 20.014-6.251 20.408 5.527V78.892l-20.381-5.52-20.041 6.384v29.463Z" fill="#2D2D2D"/><path d="M93.186 85.278 72 79.737v36.722L93.186 122 114 115.597V79l-20.814 6.278Z" fill="#fff"/><path fill-rule="evenodd" clip-rule="evenodd" d="M115 78v38.333L93.699 123 72 117.226V78.778l21.672 5.767L115 78Zm-1.289 1.75-20.014 6.142-20.408-5.43v35.766l20.381 5.424 20.041-6.273V79.75Z" fill="#2D2D2D"/><path fill-rule="evenodd" clip-rule="evenodd" d="M92.46 121.724V85.039h1.3v36.685h-1.3Z" fill="#2D2D2D"/><path d="M235.814 103.617 257 109.251V78.634L235.814 73 215 79.51V110l20.814-6.383Z" fill="#fff"/><path fill-rule="evenodd" clip-rule="evenodd" d="M215 111V78.785L236.301 72 258 77.876v32.332l-21.672-5.869L215 111Zm1.289-1.781 20.014-6.251 20.408 5.527V78.892l-20.381-5.52-20.041 6.384v29.463Z" fill="#2D2D2D"/><path d="M236.186 85.278 215 79.737v36.722L236.186 122 257 115.597V79l-20.814 6.278Z" fill="#fff"/><path fill-rule="evenodd" clip-rule="evenodd" d="M258 78v38.333L236.699 123 215 117.226V78.778l21.672 5.767L258 78Zm-1.289 1.75-20.014 6.142-20.408-5.43v35.766l20.381 5.424 20.041-6.273V79.75Z" fill="#2D2D2D"/><path fill-rule="evenodd" clip-rule="evenodd" d="M235.548 121.724V85.039h1.301v36.685h-1.301Z" fill="#2D2D2D"/><path d="M378.814 103.617 400 109.251V78.634L378.814 73 358 79.51V110l20.814-6.383Z" fill="#fff"/><path fill-rule="evenodd" clip-rule="evenodd" d="M358 111V78.785L379.301 72 401 77.876v32.332l-21.672-5.869L358 111Zm1.289-1.781 20.014-6.251 20.408 5.527V78.892l-20.381-5.52-20.041 6.384v29.463Z" fill="#2D2D2D"/><path d="M379.186 85.278 358 79.737v36.722L379.186 122 400 115.597V79l-20.814 6.278Z" fill="#fff"/><path fill-rule="evenodd" clip-rule="evenodd" d="M401 78v38.333L379.699 123 358 117.226V78.778l21.672 5.767L401 78Zm-1.289 1.75-20.014 6.142-20.408-5.43v35.766l20.381 5.424 20.041-6.273V79.75Z" fill="#2D2D2D"/><path fill-rule="evenodd" clip-rule="evenodd" d="M378.637 121.724V85.039h1.301v36.685h-1.301Z" fill="#2D2D2D"/><path d="m522.31 103.617 21.69 5.634V78.634L522.31 73 501 79.51V110l21.31-6.383Z" fill="#fff"/><path fill-rule="evenodd" clip-rule="evenodd" d="M501 111V78.785L522.301 72 544 77.876v32.332l-21.672-5.869L501 111Zm1.289-1.781 20.014-6.251 20.408 5.527V78.892l-20.381-5.52-20.041 6.384v29.463Z" fill="#2D2D2D"/><path d="M522.69 85.278 501 79.737v36.722L522.69 122l21.31-6.403V79l-21.31 6.278Z" fill="#fff"/><path fill-rule="evenodd" clip-rule="evenodd" d="M544 78v38.333L522.699 123 501 117.226V78.778l21.672 5.767L544 78Zm-1.289 1.75-20.014 6.142-20.408-5.43v35.766l20.381 5.424 20.041-6.273V79.75Z" fill="#2D2D2D"/><path fill-rule="evenodd" clip-rule="evenodd" d="M521.725 121.724V85.039h1.301v36.685h-1.301Z" fill="#2D2D2D"/><path d="M214 412.32v-34.838s5.044 4.219 20.723 4.219c15.679 0 21.269-4.701 21.269-4.701v35.32s1.054 5.68-20.469 5.68S214 412.32 214 412.32Z" fill="#fff"/><path d="M257 376c0 3.866-9.85 7-22 7s-22-3.134-22-7 9.85-7 22-7 22 3.134 22 7Z" fill="#fff"/><path fill-rule="evenodd" clip-rule="evenodd" d="M254.518 377.62c.983-.74 1.188-1.306 1.188-1.62 0-.314-.205-.88-1.188-1.62-.953-.717-2.414-1.418-4.337-2.03-3.829-1.218-9.196-1.991-15.181-1.991-5.985 0-11.352.773-15.181 1.991-1.923.612-3.384 1.313-4.337 2.03-.983.74-1.188 1.306-1.188 1.62 0 .314.205.88 1.188 1.62.953.717 2.414 1.418 4.337 2.03 3.829 1.218 9.196 1.991 15.181 1.991 5.985 0 11.352-.773 15.181-1.991 1.923-.612 3.384-1.313 4.337-2.03ZM235 383c12.15 0 22-3.134 22-7s-9.85-7-22-7-22 3.134-22 7 9.85 7 22 7Z" fill="#2D2D2D"/><path fill-rule="evenodd" clip-rule="evenodd" d="M213 412v-36h1v36h-1Zm43 0v-36h1v36h-1Zm-35.914 3.907c3.789 1.13 9.062 1.839 14.914 1.839s11.125-.709 14.914-1.839c1.898-.567 3.388-1.229 4.389-1.935 1.015-.716 1.412-1.391 1.412-1.972H257c0 1.179-.798 2.18-1.945 2.989-1.16.819-2.799 1.53-4.765 2.117-3.941 1.176-9.347 1.894-15.29 1.894s-11.349-.718-15.29-1.894c-1.966-.587-3.605-1.298-4.765-2.117-1.147-.809-1.945-1.81-1.945-2.989h1.285c0 .581.397 1.256 1.412 1.972 1.001.706 2.491 1.368 4.389 1.935Z" fill="#2D2D2D"/><path d="M355 412.32v-34.838s5.044 4.219 20.723 4.219c15.679 0 21.269-4.701 21.269-4.701v35.32s1.054 5.68-20.469 5.68S355 412.32 355 412.32Z" fill="#fff"/><path d="M398 376c0 3.866-9.85 7-22 7s-22-3.134-22-7 9.85-7 22-7 22 3.134 22 7Z" fill="#fff"/><path fill-rule="evenodd" clip-rule="evenodd" d="M395.518 377.62c.983-.74 1.188-1.306 1.188-1.62 0-.314-.205-.88-1.188-1.62-.953-.717-2.414-1.418-4.337-2.03-3.829-1.218-9.196-1.991-15.181-1.991-5.985 0-11.352.773-15.181 1.991-1.923.612-3.384 1.313-4.337 2.03-.983.74-1.188 1.306-1.188 1.62 0 .314.205.88 1.188 1.62.953.717 2.414 1.418 4.337 2.03 3.829 1.218 9.196 1.991 15.181 1.991 5.985 0 11.352-.773 15.181-1.991 1.923-.612 3.384-1.313 4.337-2.03ZM376 383c12.15 0 22-3.134 22-7s-9.85-7-22-7-22 3.134-22 7 9.85 7 22 7Z" fill="#2D2D2D"/><path fill-rule="evenodd" clip-rule="evenodd" d="M354 412v-36h1v36h-1Zm43 0v-36h1v36h-1Zm-35.914 3.907c3.789 1.13 9.062 1.839 14.914 1.839s11.125-.709 14.914-1.839c1.898-.567 3.388-1.229 4.389-1.935 1.015-.716 1.412-1.391 1.412-1.972H398c0 1.179-.798 2.18-1.945 2.989-1.16.819-2.799 1.53-4.765 2.117-3.941 1.176-9.347 1.894-15.29 1.894s-11.349-.718-15.29-1.894c-1.966-.587-3.605-1.298-4.765-2.117-1.147-.809-1.945-1.81-1.945-2.989h1.285c0 .581.397 1.256 1.412 1.972 1.001.706 2.491 1.368 4.389 1.935Z" fill="#2D2D2D"/><path d="M496 412.32v-34.838s5.044 4.219 20.723 4.219c15.679 0 21.269-4.701 21.269-4.701v35.32s1.054 5.68-20.469 5.68S496 412.32 496 412.32Z" fill="#fff"/><path d="M539 376c0 3.866-9.85 7-22 7s-22-3.134-22-7 9.85-7 22-7 22 3.134 22 7Z" fill="#fff"/><path fill-rule="evenodd" clip-rule="evenodd" d="M536.518 377.62c.983-.74 1.188-1.306 1.188-1.62 0-.314-.205-.88-1.188-1.62-.953-.717-2.414-1.418-4.337-2.03-3.829-1.218-9.196-1.991-15.181-1.991-5.985 0-11.352.773-15.181 1.991-1.923.612-3.384 1.313-4.337 2.03-.983.74-1.188 1.306-1.188 1.62 0 .314.205.88 1.188 1.62.953.717 2.414 1.418 4.337 2.03 3.829 1.218 9.196 1.991 15.181 1.991 5.985 0 11.352-.773 15.181-1.991 1.923-.612 3.384-1.313 4.337-2.03ZM517 383c12.15 0 22-3.134 22-7s-9.85-7-22-7-22 3.134-22 7 9.85 7 22 7Z" fill="#2D2D2D"/><path fill-rule="evenodd" clip-rule="evenodd" d="M495 412v-36h1v36h-1Zm43 0v-36h1v36h-1Zm-35.914 3.907c3.789 1.13 9.062 1.839 14.914 1.839s11.125-.709 14.914-1.839c1.898-.567 3.388-1.229 4.389-1.935 1.015-.716 1.412-1.391 1.412-1.972H539c0 1.179-.798 2.18-1.945 2.989-1.16.819-2.799 1.53-4.765 2.117-3.941 1.176-9.347 1.894-15.29 1.894s-11.349-.718-15.29-1.894c-1.966-.587-3.605-1.298-4.765-2.117-1.147-.809-1.945-1.81-1.945-2.989h1.285c0 .581.397 1.256 1.412 1.972 1.001.706 2.491 1.368 4.389 1.935Z" fill="#2D2D2D"/><path d="M73 412.32v-34.838s5.044 4.219 20.723 4.219c15.679 0 21.269-4.701 21.269-4.701v35.32s1.054 5.68-20.469 5.68S73 412.32 73 412.32Z" fill="#fff"/><path d="M116 376c0 3.866-9.85 7-22 7s-22-3.134-22-7 9.85-7 22-7 22 3.134 22 7Z" fill="#fff"/><path fill-rule="evenodd" clip-rule="evenodd" d="M113.518 377.62c.983-.74 1.188-1.306 1.188-1.62 0-.314-.205-.88-1.188-1.62-.953-.717-2.414-1.418-4.337-2.03-3.829-1.218-9.197-1.991-15.181-1.991s-11.352.773-15.181 1.991c-1.923.612-3.384 1.313-4.337 2.03-.983.74-1.188 1.306-1.188 1.62 0 .314.205.88 1.189 1.62.952.717 2.413 1.418 4.336 2.03 3.829 1.218 9.197 1.991 15.181 1.991s11.352-.773 15.181-1.991c1.923-.612 3.384-1.313 4.337-2.03ZM94 383c12.15 0 22-3.134 22-7s-9.85-7-22-7-22 3.134-22 7 9.85 7 22 7Z" fill="#2D2D2D"/><path fill-rule="evenodd" clip-rule="evenodd" d="M72 412v-36h1v36h-1Zm43 0v-36h1v36h-1Zm-35.914 3.907c3.789 1.13 9.062 1.839 14.914 1.839s11.125-.709 14.914-1.839c1.898-.567 3.388-1.229 4.389-1.935 1.015-.716 1.412-1.391 1.412-1.972H116c0 1.179-.798 2.18-1.945 2.989-1.16.819-2.799 1.53-4.765 2.117C105.349 418.282 99.943 419 94 419s-11.349-.718-15.29-1.894c-1.966-.587-3.605-1.298-4.765-2.117C72.797 414.18 72 413.179 72 412h1.285c0 .581.397 1.256 1.412 1.972 1.001.706 2.49 1.368 4.389 1.935Z" fill="#2D2D2D"/><path d="M481 55.958 485.287 45h1.591l4.568 10.958h-1.682l-1.302-3.319h-4.668l-1.226 3.319H481Zm3.221-4.5h3.784l-1.165-3.035a29.952 29.952 0 0 1-.792-2.272c-.142.703-.343 1.4-.601 2.093l-1.226 3.214Zm8.36 7.542V48.02h1.249v1.031c.294-.403.627-.705.997-.904.371-.204.82-.307 1.348-.307.69 0 1.3.175 1.827.524.528.348.927.842 1.196 1.48.269.632.403 1.328.403 2.085 0 .812-.149 1.545-.449 2.197-.294.648-.726 1.147-1.294 1.495a3.37 3.37 0 0 1-1.782.516c-.457 0-.868-.095-1.233-.284a2.792 2.792 0 0 1-.891-.717V59h-1.371Zm1.241-6.966c0 1.021.211 1.776.632 2.264.422.489.932.733 1.531.733.609 0 1.129-.252 1.561-.755.436-.508.654-1.293.654-2.355 0-1.011-.213-1.768-.639-2.272-.421-.503-.927-.755-1.515-.755-.584 0-1.102.27-1.554.808-.446.533-.67 1.31-.67 2.332ZM501.391 59V48.02h1.249v1.031c.294-.403.627-.705.997-.904.371-.204.82-.307 1.348-.307.69 0 1.299.175 1.827.524.528.348.927.842 1.196 1.48.269.632.403 1.328.403 2.085 0 .812-.15 1.545-.449 2.197-.294.648-.726 1.147-1.294 1.495a3.37 3.37 0 0 1-1.782.516c-.457 0-.868-.095-1.234-.284a2.799 2.799 0 0 1-.89-.717V59h-1.371Zm1.241-6.966c0 1.021.211 1.776.632 2.264.421.489.932.733 1.531.733.609 0 1.129-.252 1.56-.755.437-.508.655-1.293.655-2.355 0-1.011-.213-1.768-.639-2.272-.422-.503-.927-.755-1.516-.755-.583 0-1.101.27-1.553.808-.446.533-.67 1.31-.67 2.332Zm7.539 3.924V45h1.37v10.958h-1.37Zm3.64-9.411V45h1.37v1.547h-1.37Zm0 9.41V48.02h1.37v7.938h-1.37Zm8.87-2.907 1.348.172c-.147.912-.525 1.627-1.135 2.145-.604.514-1.347.77-2.23.77-1.107 0-1.998-.354-2.673-1.061-.67-.713-1.005-1.732-1.005-3.057 0-.857.145-1.607.434-2.25.289-.643.728-1.124 1.317-1.443a3.976 3.976 0 0 1 1.934-.486c.878 0 1.597.22 2.155.658.558.434.916 1.052 1.073 1.854l-1.332.202c-.127-.534-.353-.935-.678-1.204-.319-.269-.708-.403-1.165-.403-.69 0-1.251.244-1.682.732-.432.483-.647 1.25-.647 2.302 0 1.067.208 1.842.624 2.325.416.483.959.725 1.629.725.538 0 .988-.162 1.348-.486.36-.324.589-.822.685-1.495Zm7.927 1.929c-.508.423-.998.722-1.47.897a4.272 4.272 0 0 1-1.507.261c-.888 0-1.571-.212-2.048-.635-.477-.429-.716-.974-.716-1.637 0-.389.089-.743.266-1.062.183-.323.419-.582.709-.777.294-.194.624-.341.989-.44a9.94 9.94 0 0 1 1.219-.203c1.106-.13 1.921-.284 2.444-.463.005-.184.007-.302.007-.351 0-.549-.129-.935-.388-1.159-.35-.304-.871-.456-1.561-.456-.645 0-1.122.112-1.431.336-.305.22-.531.61-.678 1.174l-1.34-.18c.122-.563.322-1.016.601-1.36.28-.349.683-.615 1.211-.8.528-.189 1.14-.284 1.835-.284.69 0 1.251.08 1.683.24.431.159.748.36.951.605.204.24.346.543.427.912.046.23.068.643.068 1.24v1.795c0 1.25.028 2.043.084 2.377.061.328.178.645.35.949h-1.431a2.802 2.802 0 0 1-.274-.98Zm-.114-3.005c-.498.2-1.244.369-2.239.508-.563.08-.962.17-1.195.27a1.174 1.174 0 0 0-.541.44c-.127.19-.19.401-.19.636 0 .358.137.657.411.896.279.24.685.36 1.218.36.528 0 .998-.113 1.409-.337.411-.23.713-.54.906-.934.147-.304.221-.753.221-1.346v-.493Zm6.64 2.78.197 1.189c-.385.08-.73.12-1.035.12-.497 0-.883-.078-1.157-.232a1.314 1.314 0 0 1-.579-.606c-.112-.254-.167-.785-.167-1.592v-4.567h-1.006V48.02h1.006v-1.966l1.362-.807v2.773h1.379v1.046h-1.379v4.642c0 .384.023.63.069.74.051.11.129.197.236.262.112.064.269.097.472.097.152 0 .353-.018.602-.053Zm1.485-8.207V45h1.37v1.547h-1.37Zm0 9.41V48.02h1.37v7.938h-1.37Zm3.084-3.968c0-1.47.416-2.559 1.249-3.267.695-.588 1.543-.882 2.543-.882 1.111 0 2.02.36 2.725 1.077.706.712 1.059 1.699 1.059 2.96 0 1.021-.158 1.826-.472 2.414a3.262 3.262 0 0 1-1.363 1.36 4.006 4.006 0 0 1-1.949.486c-1.132 0-2.049-.356-2.749-1.069-.695-.712-1.043-1.739-1.043-3.08Zm1.408 0c0 1.016.226 1.779.678 2.287.452.503 1.02.755 1.706.755.68 0 1.246-.254 1.698-.762.451-.509.677-1.284.677-2.325 0-.982-.228-1.724-.685-2.227a2.168 2.168 0 0 0-1.69-.763c-.686 0-1.254.252-1.706.755-.452.503-.678 1.263-.678 2.28Zm7.912 3.969V48.02h1.233v1.128c.594-.872 1.452-1.308 2.574-1.308.487 0 .934.088 1.34.262.411.17.718.394.921.673.203.279.345.61.427.994.05.249.076.685.076 1.308v4.88h-1.371V51.13c0-.548-.053-.956-.16-1.226a1.274 1.274 0 0 0-.571-.65 1.787 1.787 0 0 0-.951-.247c-.584 0-1.089.182-1.516.546-.421.364-.632 1.054-.632 2.07v4.336h-1.37Zm8.262-2.37 1.355-.209c.076.533.287.942.632 1.226.35.284.837.426 1.462.426.629 0 1.096-.125 1.401-.374.304-.254.456-.55.456-.89 0-.303-.134-.542-.403-.717-.188-.12-.655-.271-1.401-.456-1.005-.249-1.703-.463-2.094-.643a2.073 2.073 0 0 1-.883-.755 2.01 2.01 0 0 1-.297-1.068c0-.354.081-.68.244-.98a2.22 2.22 0 0 1 .677-.755c.213-.154.503-.284.868-.388a4.16 4.16 0 0 1 1.188-.165c.634 0 1.19.09 1.667.27.483.179.838.423 1.066.732.229.304.386.712.472 1.226l-1.34.18c-.061-.41-.238-.728-.533-.958-.289-.229-.7-.343-1.233-.343-.629 0-1.079.102-1.348.306-.269.204-.403.444-.403.718 0 .174.056.331.167.47.112.145.287.265.526.36.137.05.54.164 1.21.343.97.254 1.645.464 2.026.628.385.16.687.394.906.703.218.309.327.692.327 1.15 0 .45-.135.873-.404 1.271-.263.394-.647.7-1.149.92-.503.214-1.071.321-1.706.321-1.05 0-1.852-.214-2.406-.643-.548-.428-.898-1.063-1.05-1.906ZM341 52.074l1.383-.127c.066.58.217 1.058.454 1.433.242.37.615.67 1.119.902.504.227 1.071.34 1.701.34.559 0 1.053-.086 1.482-.26.428-.175.745-.412.952-.713.212-.306.318-.638.318-.997 0-.364-.101-.681-.303-.95-.201-.275-.534-.504-.998-.689-.297-.121-.955-.308-1.973-.562-1.018-.258-1.731-.501-2.139-.728-.529-.29-.925-.65-1.187-1.077a2.783 2.783 0 0 1-.386-1.448c0-.586.159-1.132.477-1.639.317-.511.781-.9 1.391-1.163.609-.264 1.287-.396 2.033-.396.822 0 1.545.14 2.17.42.63.274 1.114.68 1.451 1.218.338.539.519 1.148.545 1.829l-1.406.11c-.076-.733-.333-1.287-.772-1.661-.433-.375-1.076-.562-1.927-.562-.887 0-1.535.171-1.943.514-.403.338-.605.747-.605 1.227 0 .417.144.76.431 1.029.282.27 1.018.546 2.207.831 1.195.28 2.014.525 2.457.736.645.312 1.122.707 1.429 1.188.308.475.461 1.023.461 1.646 0 .617-.169 1.2-.506 1.75-.338.543-.824.968-1.459 1.274-.63.3-1.341.451-2.132.451-1.003 0-1.845-.153-2.525-.46a3.61 3.61 0 0 1-1.595-1.376 4.09 4.09 0 0 1-.605-2.09Zm16.277 1.021 1.406.182c-.222.86-.633 1.528-1.232 2.003-.6.475-1.366.712-2.299.712-1.174 0-2.106-.377-2.797-1.132-.685-.76-1.028-1.823-1.028-3.19 0-1.414.348-2.512 1.043-3.293.696-.78 1.598-1.171 2.707-1.171 1.073 0 1.95.382 2.631 1.148.68.765 1.02 1.841 1.02 3.23 0 .083-.002.21-.007.38h-5.988c.051.922.3 1.63.749 2.12a2.179 2.179 0 0 0 1.678.737c.499 0 .925-.138 1.278-.412.352-.274.632-.712.839-1.314Zm-4.468-2.303h4.483c-.061-.708-.232-1.238-.514-1.592-.434-.548-.996-.823-1.686-.823-.625 0-1.152.22-1.58.657-.423.438-.658 1.024-.703 1.758Zm7.704 5.01v-8.406h1.224v1.274c.313-.596.6-.99.862-1.18.267-.19.56-.284.877-.284.459 0 .925.153 1.399.459l-.469 1.322c-.333-.206-.665-.309-.998-.309-.297 0-.564.095-.801.285a1.504 1.504 0 0 0-.507.776 5.8 5.8 0 0 0-.226 1.662v4.401h-1.361Zm7.53 0-3.054-8.406h1.436l1.724 5.034c.186.544.357 1.108.514 1.694.121-.443.29-.976.506-1.599l1.784-5.13h1.399l-3.039 8.407h-1.27Zm5.647-9.966v-1.638h1.361v1.638h-1.361Zm0 9.966v-8.406h1.361v8.406h-1.361Zm8.808-3.079 1.338.182c-.146.966-.521 1.723-1.126 2.272-.6.543-1.338.815-2.215.815-1.099 0-1.983-.375-2.654-1.124-.665-.755-.998-1.834-.998-3.237 0-.908.144-1.702.431-2.383.288-.68.724-1.19 1.308-1.528a3.754 3.754 0 0 1 1.92-.514c.872 0 1.585.232 2.14.696.554.46.909 1.114 1.066 1.963l-1.323.214c-.126-.565-.351-.99-.673-1.274a1.672 1.672 0 0 0-1.157-.428c-.685 0-1.242.259-1.67.776-.429.512-.643 1.325-.643 2.438 0 1.13.207 1.95.62 2.462.413.512.952.768 1.618.768.534 0 .98-.172 1.338-.515.358-.343.584-.87.68-1.583Zm8.127.372 1.406.182c-.221.86-.632 1.528-1.232 2.003-.599.475-1.366.712-2.298.712-1.174 0-2.107-.377-2.797-1.132-.685-.76-1.028-1.823-1.028-3.19 0-1.414.348-2.512 1.043-3.293.696-.78 1.598-1.171 2.706-1.171 1.074 0 1.951.382 2.631 1.148.681.765 1.021 1.841 1.021 3.23 0 .083-.003.21-.008.38h-5.987c.05.922.3 1.63.748 2.12a2.18 2.18 0 0 0 1.679.737c.499 0 .924-.138 1.277-.412.353-.274.633-.712.839-1.314Zm-4.467-2.303h4.482c-.06-.708-.231-1.238-.514-1.592-.433-.548-.995-.823-1.685-.823-.625 0-1.152.22-1.58.657-.424.438-.658 1.024-.703 1.758Zm7.174 2.501 1.346-.222c.076.565.285.998.627 1.298.348.301.832.452 1.452.452.625 0 1.088-.132 1.391-.396.302-.27.453-.583.453-.942a.875.875 0 0 0-.4-.76c-.187-.127-.65-.288-1.391-.483-.998-.264-1.691-.49-2.079-.68a2.102 2.102 0 0 1-.877-.8 2.232 2.232 0 0 1-.295-1.132 2.255 2.255 0 0 1 .915-1.836c.211-.164.499-.301.862-.412a3.9 3.9 0 0 1 1.179-.174c.63 0 1.182.095 1.656.285.478.19.831.448 1.058.776.227.321.383.754.469 1.298l-1.331.19c-.06-.433-.237-.77-.529-1.014-.287-.242-.696-.364-1.225-.364-.625 0-1.071.108-1.338.325-.267.216-.401.47-.401.76a.81.81 0 0 0 .167.498c.111.154.285.28.521.38.136.053.537.174 1.202.364.963.27 1.633.491 2.011.665.383.17.683.417.9.745.217.327.325.733.325 1.219 0 .474-.134.923-.401 1.345-.262.417-.642.742-1.141.974-.499.227-1.064.34-1.694.34-1.043 0-1.839-.227-2.388-.68-.545-.454-.893-1.127-1.044-2.02ZM482 442.641c0-1.764.498-3.144 1.493-4.14.996-1.001 2.281-1.501 3.855-1.501 1.032 0 1.961.234 2.789.703a4.663 4.663 0 0 1 1.89 1.965c.436.837.655 1.787.655 2.85 0 1.078-.229 2.043-.686 2.893a4.583 4.583 0 0 1-1.943 1.936 5.8 5.8 0 0 1-2.712.653c-1.052 0-1.991-.242-2.819-.725a4.76 4.76 0 0 1-1.882-1.98 5.756 5.756 0 0 1-.64-2.654Zm1.524.022c0 1.281.36 2.292 1.082 3.031.726.735 1.635 1.102 2.727 1.102 1.113 0 2.027-.372 2.743-1.116.721-.745 1.082-1.801 1.082-3.169 0-.865-.155-1.62-.465-2.262a3.364 3.364 0 0 0-1.348-1.501 3.756 3.756 0 0 0-1.989-.537c-1.046 0-1.948.343-2.705 1.03-.751.681-1.127 1.822-1.127 3.422Zm14.019 3.988.198 1.153a5.28 5.28 0 0 1-1.036.116c-.498 0-.884-.075-1.158-.225a1.286 1.286 0 0 1-.579-.587c-.112-.246-.168-.761-.168-1.544v-4.431h-1.005v-1.015h1.005v-1.907l1.364-.783v2.69h1.379v1.015h-1.379v4.503c0 .372.023.612.069.718.05.106.129.191.236.254.112.063.269.094.472.094.153 0 .353-.017.602-.051Zm1.479 1.168v-10.63h1.371v3.814c.64-.706 1.448-1.059 2.423-1.059.599 0 1.12.114 1.562.341.442.222.757.532.945.928.193.396.289.972.289 1.726v4.88h-1.371v-4.88c0-.653-.15-1.127-.45-1.422-.294-.299-.714-.449-1.257-.449-.406 0-.79.101-1.15.304-.356.199-.61.469-.762.813-.153.343-.229.817-.229 1.421v4.213h-1.371Zm14.354-2.48 1.417.167c-.223.788-.637 1.399-1.242 1.834-.604.435-1.376.653-2.316.653-1.183 0-2.123-.346-2.819-1.037-.69-.696-1.036-1.67-1.036-2.922 0-1.296.351-2.301 1.052-3.017.701-.715 1.61-1.073 2.727-1.073 1.082 0 1.966.35 2.652 1.051.685.701 1.028 1.687 1.028 2.959 0 .077-.002.193-.008.348h-6.034c.051.846.302 1.494.755 1.943.452.45 1.015.675 1.691.675.503 0 .932-.126 1.288-.377.355-.252.637-.653.845-1.204Zm-4.503-2.11h4.518c-.06-.648-.233-1.134-.518-1.458-.436-.502-1.003-.754-1.699-.754-.629 0-1.16.201-1.592.602-.427.401-.663.938-.709 1.61Zm7.765 4.59v-7.701h1.234v1.167c.315-.546.604-.906.868-1.08.27-.174.564-.261.884-.261.462 0 .932.14 1.41.421l-.473 1.21a2.038 2.038 0 0 0-1.005-.282c-.3 0-.569.087-.808.261a1.37 1.37 0 0 0-.51.71 4.84 4.84 0 0 0-.229 1.523v4.032h-1.371Zm9.265-2.299 1.356-.203c.077.517.287.914.633 1.189.35.276.838.414 1.463.414.629 0 1.097-.121 1.402-.363.304-.247.457-.534.457-.863 0-.295-.135-.527-.404-.696-.188-.116-.655-.263-1.402-.442-1.006-.242-1.704-.45-2.095-.624-.386-.179-.681-.423-.884-.732a1.906 1.906 0 0 1-.297-1.037c0-.343.081-.66.244-.95.167-.295.393-.539.678-.732.213-.15.503-.276.868-.378a4.308 4.308 0 0 1 1.189-.159c.635 0 1.191.087 1.668.261.483.174.838.411 1.067.711.229.295.386.691.472 1.189l-1.341.174c-.06-.397-.238-.706-.533-.928-.289-.223-.701-.334-1.234-.334-.63 0-1.079.099-1.349.297-.269.199-.403.431-.403.697 0 .169.055.321.167.456.112.141.287.257.526.348.137.049.541.16 1.211.334.97.247 1.646.45 2.027.609.386.155.688.382.907.682.218.299.327.672.327 1.116 0 .435-.134.846-.404 1.233-.264.382-.647.679-1.15.892-.503.208-1.072.312-1.707.312-1.051 0-1.854-.208-2.407-.624-.549-.416-.899-1.032-1.052-1.849Zm11.475 1.131.198 1.153a5.28 5.28 0 0 1-1.036.116c-.498 0-.884-.075-1.158-.225-.275-.149-.468-.345-.579-.587-.112-.246-.168-.761-.168-1.544v-4.431h-1.006v-1.015h1.006v-1.907l1.364-.783v2.69h1.379v1.015h-1.379v4.503c0 .372.023.612.068.718.051.106.13.191.237.254.111.063.269.094.472.094.152 0 .353-.017.602-.051Zm.968-2.683c0-1.426.417-2.482 1.25-3.168.695-.571 1.544-.856 2.544-.856 1.113 0 2.022.348 2.728 1.044.706.691 1.059 1.649 1.059 2.872 0 .991-.158 1.771-.473 2.342a3.21 3.21 0 0 1-1.363 1.319 4.104 4.104 0 0 1-1.951.472c-1.132 0-2.049-.346-2.75-1.037-.696-.691-1.044-1.687-1.044-2.988Zm1.41 0c0 .987.226 1.726.678 2.219.452.488 1.021.733 1.706.733.681 0 1.247-.247 1.699-.74.452-.493.678-1.245.678-2.255 0-.952-.228-1.673-.685-2.161a2.201 2.201 0 0 0-1.692-.74c-.685 0-1.254.245-1.706.733-.452.488-.678 1.225-.678 2.211Zm7.901 3.851v-7.701h1.234v1.167c.315-.546.605-.906.869-1.08.269-.174.563-.261.883-.261.463 0 .933.14 1.41.421l-.472 1.21a2.044 2.044 0 0 0-1.006-.282c-.3 0-.569.087-.808.261a1.375 1.375 0 0 0-.51.71 4.84 4.84 0 0 0-.229 1.523v4.032h-1.371Zm10.88-2.48 1.417.167c-.223.788-.637 1.399-1.242 1.834-.604.435-1.376.653-2.316.653-1.183 0-2.123-.346-2.819-1.037-.691-.696-1.036-1.67-1.036-2.922 0-1.296.351-2.301 1.051-3.017.701-.715 1.611-1.073 2.728-1.073 1.082 0 1.966.35 2.651 1.051.686.701 1.029 1.687 1.029 2.959 0 .077-.003.193-.008.348h-6.034c.051.846.302 1.494.754 1.943.453.45 1.016.675 1.692.675.503 0 .932-.126 1.287-.377.356-.252.638-.653.846-1.204Zm-4.503-2.11h4.518c-.061-.648-.233-1.134-.518-1.458-.436-.502-1.003-.754-1.699-.754-.63 0-1.16.201-1.592.602-.427.401-.663.938-.709 1.61ZM350 448.148v-10.954h1.517l5.871 8.601v-8.601h1.418v10.954h-1.517l-5.871-8.608v8.608H350Zm10.743-3.967c0-1.47.416-2.558 1.25-3.266.696-.587 1.545-.881 2.546-.881 1.114 0 2.023.358 2.73 1.076.706.712 1.06 1.698 1.06 2.958 0 1.022-.158 1.826-.473 2.414a3.26 3.26 0 0 1-1.365 1.36 4.014 4.014 0 0 1-1.952.486c-1.133 0-2.05-.357-2.752-1.069-.696-.712-1.044-1.738-1.044-3.078Zm1.41 0c0 1.016.226 1.778.679 2.286a2.198 2.198 0 0 0 1.707.755c.681 0 1.248-.254 1.701-.762.452-.509.678-1.283.678-2.324 0-.982-.229-1.724-.686-2.227a2.174 2.174 0 0 0-1.693-.762c-.686 0-1.255.252-1.707.755-.453.503-.679 1.262-.679 2.279Zm7.594.448 1.395-.12c.066.548.219.999.458 1.353.244.348.62.632 1.128.852.508.214 1.08.321 1.715.321.565 0 1.063-.082 1.495-.247.432-.164.752-.388.96-.672a1.55 1.55 0 0 0 .321-.942c0-.343-.102-.642-.305-.896-.204-.259-.539-.476-1.007-.65-.3-.115-.963-.292-1.99-.531-1.026-.244-1.745-.473-2.157-.687-.534-.274-.933-.613-1.197-1.016a2.505 2.505 0 0 1-.389-1.368c0-.553.16-1.068.48-1.547.321-.483.788-.849 1.403-1.098.615-.249 1.299-.374 2.051-.374.828 0 1.558.132 2.188.396.635.26 1.123.643 1.464 1.151a3.28 3.28 0 0 1 .549 1.726l-1.418.105c-.076-.693-.336-1.216-.778-1.569-.437-.354-1.085-.531-1.944-.531-.895 0-1.548.162-1.959.486-.407.319-.61.705-.61 1.158 0 .394.145.717.434.971.285.254 1.027.516 2.226.785 1.205.264 2.031.496 2.478.695.651.294 1.131.667 1.441 1.121.31.448.465.966.465 1.554a2.95 2.95 0 0 1-.511 1.651c-.34.513-.831.914-1.471 1.203-.635.284-1.352.426-2.15.426-1.011 0-1.86-.144-2.546-.433a3.581 3.581 0 0 1-1.609-1.301 3.678 3.678 0 0 1-.61-1.972Zm19.518 2.346c.686.463 1.319.802 1.898 1.016l-.434 1.009c-.803-.284-1.604-.732-2.402-1.345-.828.453-1.743.68-2.744.68-1.012 0-1.929-.239-2.753-.717a4.866 4.866 0 0 1-1.906-2.018c-.442-.867-.663-1.843-.663-2.929 0-1.081.224-2.065.671-2.951.447-.887 1.083-1.562 1.906-2.025.828-.463 1.753-.695 2.775-.695 1.032 0 1.962.242 2.79.725a4.69 4.69 0 0 1 1.891 2.017c.437.862.656 1.836.656 2.922 0 .901-.14 1.713-.419 2.436a5.106 5.106 0 0 1-1.266 1.875Zm-3.255-1.853c.853.234 1.557.583 2.111 1.046.869-.777 1.304-1.945 1.304-3.504 0-.887-.155-1.662-.465-2.324a3.44 3.44 0 0 0-1.349-1.539 3.674 3.674 0 0 0-1.99-.553c-1.103 0-2.018.371-2.745 1.113-.727.737-1.09 1.841-1.09 3.31 0 1.425.358 2.518 1.075 3.28.722.763 1.642 1.144 2.76 1.144.528 0 1.026-.097 1.494-.292a4.827 4.827 0 0 0-1.464-.627l.359-1.054Zm7.006 3.026v-10.954h1.479v9.662H400v1.292h-6.984ZM208 447.958V437h1.493v4.5h5.863V437h1.492v10.958h-1.492v-5.165h-5.863v5.165H208Zm16.628-.979c-.513.423-1.008.722-1.485.897-.472.174-.98.261-1.524.261-.898 0-1.587-.212-2.07-.635-.482-.429-.723-.974-.723-1.637 0-.389.09-.743.269-1.061.185-.324.424-.583.716-.778a3.493 3.493 0 0 1 1-.441c.272-.07.682-.137 1.231-.202 1.119-.129 1.942-.284 2.47-.463.005-.184.008-.302.008-.351 0-.549-.131-.935-.393-1.159-.354-.304-.879-.456-1.577-.456-.651 0-1.133.112-1.446.336-.308.22-.536.611-.685 1.174l-1.354-.179c.123-.564.325-1.017.608-1.361.282-.349.689-.615 1.223-.8.533-.189 1.151-.284 1.854-.284.698 0 1.265.08 1.701.24.436.159.756.361.961.605.206.239.349.543.431.912.046.229.069.643.069 1.241v1.794c0 1.25.029 2.043.085 2.377.062.328.18.645.354.949h-1.446a2.785 2.785 0 0 1-.277-.979Zm-.116-3.005c-.503.199-1.257.369-2.262.508-.569.08-.972.17-1.208.269a1.19 1.19 0 0 0-.546.441c-.128.19-.193.401-.193.636 0 .358.139.657.416.897.282.239.692.358 1.231.358.533 0 1.008-.112 1.423-.336.416-.229.721-.541.916-.934.149-.304.223-.753.223-1.346v-.493Zm8.987 3.984v-1.002c-.518.788-1.279 1.181-2.285 1.181a3.29 3.29 0 0 1-1.8-.523 3.512 3.512 0 0 1-1.27-1.458c-.297-.627-.446-1.347-.446-2.16 0-.792.136-1.51.408-2.152.272-.648.679-1.144 1.223-1.488a3.342 3.342 0 0 1 1.824-.516c.492 0 .931.103 1.315.307.385.199.698.461.939.785V437h1.377v10.958h-1.285Zm-4.378-3.962c0 1.017.221 1.777.662 2.28.441.503.962.755 1.562.755.605 0 1.118-.239 1.539-.718.426-.483.638-1.218.638-2.205 0-1.086-.215-1.883-.646-2.392-.431-.508-.962-.762-1.593-.762-.615 0-1.131.244-1.546.733-.41.488-.616 1.258-.616 2.309Zm7.464-.007c0-1.47.421-2.559 1.262-3.267.703-.588 1.559-.882 2.57-.882 1.123 0 2.041.359 2.754 1.077.713.712 1.07 1.699 1.07 2.96 0 1.021-.159 1.826-.477 2.414a3.279 3.279 0 0 1-1.377 1.36 4.083 4.083 0 0 1-1.97.486c-1.144 0-2.07-.356-2.778-1.069-.702-.712-1.054-1.739-1.054-3.079Zm1.424 0c0 1.016.228 1.779.684 2.287.457.503 1.031.755 1.724.755.687 0 1.259-.254 1.716-.762.456-.509.684-1.284.684-2.325 0-.982-.23-1.724-.692-2.228a2.201 2.201 0 0 0-1.708-.762c-.693 0-1.267.252-1.724.755-.456.503-.684 1.263-.684 2.28Zm7.479 0c0-1.47.42-2.559 1.262-3.267.702-.588 1.559-.882 2.57-.882 1.123 0 2.041.359 2.754 1.077.713.712 1.07 1.699 1.07 2.96 0 1.021-.159 1.826-.477 2.414a3.275 3.275 0 0 1-1.378 1.36c-.6.324-1.256.486-1.969.486-1.144 0-2.07-.356-2.778-1.069-.703-.712-1.054-1.739-1.054-3.079Zm1.423 0c0 1.016.229 1.779.685 2.287.457.503 1.031.755 1.724.755.687 0 1.259-.254 1.715-.762.457-.509.685-1.284.685-2.325 0-.982-.231-1.724-.692-2.228a2.203 2.203 0 0 0-1.708-.762c-.693 0-1.267.252-1.724.755-.456.503-.685 1.263-.685 2.28Zm7.995 7.011v-10.98h1.262v1.031c.297-.403.633-.705 1.008-.904.374-.204.828-.307 1.362-.307.697 0 1.313.175 1.846.524.534.348.936.842 1.208 1.48.272.632.408 1.328.408 2.085 0 .812-.151 1.545-.454 2.198-.297.647-.733 1.146-1.308 1.494a3.425 3.425 0 0 1-1.8.516c-.462 0-.878-.094-1.247-.284a2.822 2.822 0 0 1-.9-.717V451h-1.385Zm1.254-6.966c0 1.021.213 1.776.639 2.264.426.489.941.733 1.546.733.616 0 1.142-.252 1.578-.755.441-.508.661-1.293.661-2.354 0-1.012-.215-1.769-.646-2.273-.426-.503-.936-.755-1.531-.755-.59 0-1.113.269-1.57.808-.451.533-.677 1.31-.677 2.332ZM68 447.819v-10.638h4.966c.999 0 1.758.097 2.277.291.52.188.935.524 1.246 1.008.31.484.466 1.018.466 1.604 0 .754-.257 1.39-.772 1.908-.514.518-1.309.847-2.384.987.392.179.69.355.894.53a7.42 7.42 0 0 1 1.23 1.414l1.949 2.896h-1.865l-1.482-2.213a19.99 19.99 0 0 0-1.07-1.466c-.28-.339-.532-.576-.756-.711a2.218 2.218 0 0 0-.672-.283c-.168-.034-.444-.051-.826-.051h-1.719v4.724H68Zm1.482-5.943h3.186c.678 0 1.208-.065 1.59-.196.382-.135.672-.348.87-.638.2-.296.299-.615.299-.958a1.55 1.55 0 0 0-.58-1.241c-.383-.324-.99-.486-1.82-.486h-3.545v3.519Zm9.934 5.943v-10.638h3.858c.871 0 1.536.051 1.995.153.641.14 1.189.394 1.642.762a4.3 4.3 0 0 1 1.322 1.821c.296.735.443 1.577.443 2.525 0 .808-.099 1.524-.298 2.148-.198.624-.453 1.141-.764 1.552-.31.407-.652.728-1.024.966-.366.232-.812.408-1.337.529a7.963 7.963 0 0 1-1.795.182h-4.042Zm1.482-1.256h2.392c.738 0 1.316-.065 1.734-.196.423-.13.759-.314 1.009-.551.351-.334.624-.781.817-1.342.199-.566.298-1.251.298-2.054 0-1.112-.193-1.966-.58-2.561-.383-.6-.849-1.001-1.399-1.205-.397-.145-1.036-.217-1.918-.217h-2.353v8.126Zm9.895 1.256v-10.638h4.203c.856 0 1.54.109 2.055.327.52.213.925.544 1.215.994.295.445.443.912.443 1.4 0 .455-.13.883-.39 1.285-.26.401-.652.725-1.176.972.677.189 1.197.51 1.558.965.367.455.55.992.55 1.611 0 .498-.112.962-.336 1.393-.219.426-.491.755-.817.987-.326.232-.736.409-1.23.529-.49.117-1.09.175-1.803.175h-4.272Zm1.483-6.168h2.422c.657 0 1.128-.041 1.413-.123.377-.107.66-.283.848-.53.194-.247.29-.556.29-.929a1.62 1.62 0 0 0-.267-.928 1.328 1.328 0 0 0-.764-.552c-.33-.102-.899-.152-1.704-.152h-2.238v3.214Zm0 4.912h2.788c.48 0 .816-.017 1.01-.05.34-.059.626-.155.855-.291.229-.135.418-.331.565-.587a1.8 1.8 0 0 0 .222-.9c0-.397-.107-.74-.321-1.031a1.663 1.663 0 0 0-.894-.616c-.377-.121-.922-.182-1.635-.182h-2.59v3.657Zm9.1 1.256v-10.638h2.231l2.652 7.532c.244.701.422 1.226.535 1.575.127-.387.326-.956.595-1.706l2.682-7.401h1.995v10.638h-1.429v-8.903l-3.255 8.903h-1.337l-3.24-9.056v9.056h-1.429Zm12.707-3.418 1.399-.116c.066.532.219.97.458 1.313.244.339.621.615 1.131.827.509.208 1.082.312 1.719.312.565 0 1.065-.079 1.498-.239.433-.16.753-.377.962-.653.214-.281.321-.585.321-.914a1.33 1.33 0 0 0-.305-.871c-.204-.252-.54-.462-1.009-.631-.301-.111-.965-.283-1.994-.515-1.029-.237-1.75-.46-2.163-.668-.534-.266-.934-.595-1.199-.987a2.368 2.368 0 0 1-.39-1.328c0-.537.161-1.037.482-1.502.32-.469.789-.824 1.405-1.066.617-.242 1.302-.363 2.056-.363.83 0 1.561.128 2.193.385.636.251 1.125.624 1.467 1.117.341.493.524 1.052.55 1.676l-1.421.102c-.077-.673-.337-1.181-.78-1.524-.438-.344-1.087-.515-1.948-.515-.897 0-1.551.157-1.964.471-.407.31-.611.685-.611 1.125 0 .382.145.697.435.943.286.247 1.029.501 2.232.762 1.207.257 2.035.482 2.483.675.652.285 1.133.648 1.444 1.088.311.436.466.939.466 1.51 0 .566-.171 1.1-.512 1.603-.341.498-.833.888-1.475 1.168-.636.276-1.355.414-2.154.414-1.014 0-1.865-.14-2.552-.421-.683-.28-1.22-.701-1.612-1.262a3.499 3.499 0 0 1-.612-1.916ZM47 55.802V44.198h3.844c.868 0 1.53.055 1.987.166.64.153 1.186.43 1.637.831.589.517 1.028 1.18 1.317 1.987.295.802.442 1.72.442 2.755 0 .88-.1 1.662-.297 2.343-.198.68-.452 1.245-.761 1.694-.31.443-.65.794-1.02 1.052-.366.254-.81.446-1.333.578-.517.132-1.114.198-1.789.198H47Zm1.477-1.37h2.383c.736 0 1.312-.07 1.728-.213.421-.142.756-.343 1.005-.602.35-.364.621-.852.814-1.464.198-.617.297-1.364.297-2.24 0-1.214-.193-2.145-.578-2.794-.38-.655-.845-1.093-1.393-1.314-.396-.159-1.033-.238-1.911-.238h-2.345v8.866Zm15.021.333c-.508.449-.997.765-1.47.95a4.05 4.05 0 0 1-1.507.277c-.888 0-1.57-.224-2.048-.673-.477-.454-.715-1.031-.715-1.733a2.377 2.377 0 0 1 .974-1.947 3.32 3.32 0 0 1 .99-.468 9.527 9.527 0 0 1 1.218-.213c1.106-.137 1.92-.301 2.444-.491.005-.195.007-.32.007-.372 0-.58-.13-.99-.388-1.227-.35-.322-.87-.483-1.56-.483-.645 0-1.122.119-1.432.356-.305.233-.53.647-.678 1.243l-1.34-.19c.122-.596.323-1.076.602-1.44.28-.37.683-.652 1.21-.847.528-.2 1.14-.301 1.835-.301.69 0 1.251.084 1.683.253.431.169.748.383.951.641.203.254.345.575.427.966.045.243.068.68.068 1.314v1.9c0 1.324.028 2.163.084 2.517.06.348.178.683.35 1.005h-1.431a3.114 3.114 0 0 1-.274-1.037Zm-.114-3.182c-.498.211-1.244.39-2.239.538-.563.085-.961.18-1.195.285a1.232 1.232 0 0 0-.73 1.14c0 .38.136.697.41.95.28.253.686.38 1.218.38a2.77 2.77 0 0 0 1.409-.356 2.21 2.21 0 0 0 .906-.99c.147-.322.22-.797.22-1.425v-.522Zm6.639 2.945.198 1.258a4.867 4.867 0 0 1-1.036.127c-.497 0-.883-.082-1.157-.245a1.358 1.358 0 0 1-.579-.642c-.111-.269-.167-.83-.167-1.686v-4.836h-1.005v-1.108h1.005v-2.082l1.363-.855v2.937h1.378v1.108h-1.378v4.916c0 .406.023.667.068.783.05.116.13.209.236.277.112.069.27.103.472.103.152 0 .353-.018.602-.055Zm6.753.237c-.508.449-.998.765-1.47.95a4.06 4.06 0 0 1-1.507.277c-.888 0-1.57-.224-2.048-.673-.477-.454-.715-1.031-.715-1.733a2.377 2.377 0 0 1 .974-1.947 3.32 3.32 0 0 1 .99-.468 9.527 9.527 0 0 1 1.218-.213c1.106-.137 1.92-.301 2.444-.491.005-.195.007-.32.007-.372 0-.58-.13-.99-.388-1.227-.35-.322-.87-.483-1.56-.483-.645 0-1.122.119-1.432.356-.305.233-.53.647-.677 1.243l-1.34-.19c.121-.596.322-1.076.601-1.44.28-.37.683-.652 1.21-.847.528-.2 1.14-.301 1.835-.301.69 0 1.251.084 1.683.253.431.169.748.383.951.641.203.254.345.575.427.966.045.243.068.68.068 1.314v1.9c0 1.324.028 2.163.084 2.517.06.348.177.683.35 1.005H77.05a3.114 3.114 0 0 1-.274-1.037Zm-.114-3.182c-.498.211-1.244.39-2.239.538-.563.085-.961.18-1.195.285a1.232 1.232 0 0 0-.73 1.14c0 .38.136.697.41.95.28.253.686.38 1.218.38a2.77 2.77 0 0 0 1.409-.356 2.21 2.21 0 0 0 .906-.99c.147-.322.22-.797.22-1.425v-.522Zm7.788.491 1.394-.127c.066.58.218 1.058.457 1.433.243.37.619.67 1.126.902.508.227 1.079.34 1.713.34.564 0 1.061-.086 1.492-.26.432-.175.751-.412.96-.713a1.71 1.71 0 0 0 .32-.997c0-.364-.102-.681-.305-.95-.203-.275-.538-.504-1.005-.689-.3-.121-.962-.308-1.987-.562-1.025-.258-1.743-.501-2.154-.728-.533-.29-.932-.65-1.196-1.077a2.768 2.768 0 0 1-.388-1.448c0-.586.16-1.132.48-1.639.32-.511.786-.9 1.4-1.163.614-.264 1.297-.396 2.048-.396.827 0 1.556.14 2.185.42.635.274 1.122.68 1.462 1.218.34.539.523 1.148.548 1.829l-1.416.11c-.076-.733-.335-1.287-.776-1.661-.437-.375-1.084-.562-1.942-.562-.893 0-1.545.171-1.956.514-.406.338-.61.747-.61 1.227 0 .417.145.76.434 1.029.285.27 1.026.546 2.224.831 1.202.28 2.027.525 2.474.736.65.312 1.129.707 1.439 1.188.31.475.464 1.023.464 1.646 0 .617-.17 1.2-.51 1.75-.34.543-.83.968-1.47 1.274-.634.3-1.35.451-2.146.451-1.01 0-1.858-.153-2.543-.46a3.627 3.627 0 0 1-1.606-1.376 4.071 4.071 0 0 1-.61-2.09Zm13.85 2.454.197 1.258a4.9 4.9 0 0 1-1.035.127c-.498 0-.883-.082-1.157-.245a1.359 1.359 0 0 1-.58-.642c-.11-.269-.166-.83-.166-1.686v-4.836h-1.005v-1.108h1.004v-2.082l1.363-.855v2.937H98.3v1.108h-1.378v4.916c0 .406.023.667.069.783.05.116.13.209.236.277.111.069.269.103.472.103.152 0 .352-.018.601-.055Zm1.461 1.274v-8.406h1.234v1.274c.314-.596.604-.99.867-1.18a1.5 1.5 0 0 1 .884-.284c.461 0 .931.153 1.408.459l-.472 1.322c-.335-.206-.67-.309-1.005-.309-.299 0-.568.095-.807.285a1.509 1.509 0 0 0-.51.776 5.764 5.764 0 0 0-.228 1.662v4.401h-1.37Zm10.872-2.707 1.416.182c-.223.86-.637 1.528-1.241 2.003-.604.475-1.375.712-2.314.712-1.183 0-2.122-.377-2.817-1.132-.69-.76-1.035-1.823-1.035-3.19 0-1.414.35-2.512 1.05-3.293.701-.78 1.609-1.171 2.726-1.171 1.081 0 1.964.382 2.649 1.148.685.765 1.028 1.841 1.028 3.23 0 .083-.003.21-.008.38h-6.029c.05.922.302 1.63.753 2.12a2.202 2.202 0 0 0 1.69.737c.503 0 .932-.138 1.287-.412.355-.274.637-.712.845-1.314Zm-4.499-2.303h4.514c-.061-.708-.233-1.238-.517-1.592-.437-.548-1.003-.823-1.698-.823-.629 0-1.16.22-1.591.657-.426.438-.662 1.024-.708 1.758Zm13.049 3.973c-.508.449-.997.765-1.469.95-.467.185-.97.277-1.508.277-.888 0-1.571-.224-2.048-.673-.477-.454-.715-1.031-.715-1.733 0-.412.089-.786.266-1.124a2.35 2.35 0 0 1 .708-.824 3.34 3.34 0 0 1 .99-.466c.269-.074.675-.146 1.218-.214 1.106-.137 1.921-.301 2.444-.491.005-.195.007-.32.007-.372 0-.58-.129-.99-.388-1.227-.35-.322-.87-.483-1.561-.483-.644 0-1.121.119-1.431.356-.304.233-.53.647-.677 1.243l-1.34-.19c.122-.596.322-1.076.601-1.44.279-.37.683-.652 1.211-.847.528-.2 1.139-.301 1.834-.301.691 0 1.251.084 1.683.253.431.169.748.383.951.641.204.254.346.575.427.966.045.243.068.68.068 1.314v1.9c0 1.324.028 2.163.084 2.517.061.348.178.683.35 1.005h-1.431a3.126 3.126 0 0 1-.274-1.037Zm-.114-3.182c-.498.211-1.244.39-2.238.538-.564.085-.962.18-1.196.285a1.232 1.232 0 0 0-.731 1.14c0 .38.138.697.412.95.279.253.685.38 1.218.38a2.77 2.77 0 0 0 1.408-.356 2.21 2.21 0 0 0 .906-.99c.147-.322.221-.797.221-1.425v-.522Zm3.647 4.219v-8.406h1.226v1.18a2.892 2.892 0 0 1 1.012-.99 2.74 2.74 0 0 1 1.439-.38c.599 0 1.089.13 1.469.388.386.258.657.62.815 1.084.639-.981 1.472-1.472 2.497-1.472.802 0 1.418.232 1.85.696.431.46.647 1.17.647 2.13v5.77h-1.363v-5.295c0-.57-.045-.98-.137-1.227a1.161 1.161 0 0 0-.479-.61 1.469 1.469 0 0 0-.823-.23c-.568 0-1.04.199-1.416.594-.375.39-.563 1.019-.563 1.884v4.884h-1.37V50.34c0-.633-.112-1.108-.335-1.424-.224-.317-.589-.475-1.097-.475-.385 0-.743.105-1.073.316-.325.211-.561.52-.708.926-.147.407-.221.992-.221 1.758v4.361h-1.37Zm12.569-2.509 1.355-.222c.077.565.287.998.632 1.298.351.301.838.452 1.462.452.629 0 1.096-.132 1.401-.396.304-.27.457-.583.457-.942a.874.874 0 0 0-.404-.76c-.188-.127-.655-.288-1.401-.483-1.005-.264-1.702-.49-2.093-.68a2.112 2.112 0 0 1-.883-.8 2.224 2.224 0 0 1-.297-1.132 2.244 2.244 0 0 1 .921-1.836c.213-.164.502-.301.868-.412.37-.116.766-.174 1.187-.174.635 0 1.191.095 1.668.285.482.19.837.448 1.065.776.229.321.386.754.472 1.298l-1.339.19c-.061-.433-.239-.77-.533-1.014-.29-.242-.701-.364-1.234-.364-.629 0-1.078.108-1.347.325-.269.216-.404.47-.404.76 0 .184.056.35.168.498.112.154.287.28.525.38.137.053.541.174 1.211.364.969.27 1.644.491 2.025.665.385.17.687.417.906.745.218.327.327.733.327 1.219 0 .474-.134.923-.403 1.345-.264.417-.648.742-1.15.974-.502.227-1.071.34-1.705.34-1.051 0-1.853-.227-2.406-.68-.548-.454-.898-1.127-1.051-2.02ZM218 55.823 222.319 45h1.604l4.603 10.823h-1.695l-1.312-3.278h-4.703l-1.236 3.278H218Zm3.245-4.444h3.813l-1.173-2.998a28.917 28.917 0 0 1-.798-2.244 13.463 13.463 0 0 1-.606 2.067l-1.236 3.175Zm8.602 4.444V45h4.242c.747 0 1.317.035 1.711.103.553.089 1.015.259 1.389.51.373.246.672.593.898 1.04.23.449.345.94.345 1.477 0 .92-.305 1.7-.913 2.34-.609.635-1.709.953-3.299.953h-2.885v4.4h-1.488Zm1.488-5.677h2.908c.961 0 1.644-.173 2.048-.517.404-.345.606-.83.606-1.454 0-.453-.12-.84-.36-1.16a1.65 1.65 0 0 0-.936-.642c-.251-.064-.714-.096-1.389-.096h-2.877v3.869Zm9.376 5.677V45h1.488v10.823h-1.488Zm3.522-2.34 1.366-.207c.076.526.289.93.637 1.21.352.281.843.421 1.473.421.634 0 1.104-.123 1.411-.369.307-.25.461-.544.461-.878 0-.3-.136-.537-.407-.709-.189-.118-.66-.268-1.412-.45-1.012-.246-1.716-.458-2.11-.635a2.087 2.087 0 0 1-.89-.746 1.96 1.96 0 0 1-.299-1.056c0-.349.082-.671.246-.967.169-.3.396-.549.683-.745.214-.153.506-.28.874-.384a4.285 4.285 0 0 1 1.197-.163c.639 0 1.2.089 1.68.266.486.177.844.419 1.074.724.231.3.389.703.476 1.21l-1.35.178c-.062-.404-.241-.719-.537-.945-.292-.227-.706-.34-1.243-.34-.634 0-1.087.1-1.358.303-.271.202-.407.438-.407.708a.71.71 0 0 0 .169.465c.113.143.289.261.529.355.138.05.545.162 1.22.34.977.25 1.657.457 2.041.62.389.157.693.388.913.694.22.305.33.684.33 1.136 0 .443-.136.862-.407 1.256-.266.388-.652.691-1.158.908-.507.211-1.079.317-1.719.317-1.059 0-1.867-.212-2.424-.635-.553-.423-.906-1.05-1.059-1.882Z" fill="#2D2D2D"/><path d="m295 162.357 1.151-.099c.054.456.18.832.377 1.127.202.29.512.527.931.71.419.178.891.267 1.415.267a3.42 3.42 0 0 0 1.233-.205c.356-.137.621-.324.792-.56a1.3 1.3 0 0 0 .265-.785c0-.286-.084-.536-.252-.747-.168-.216-.444-.397-.83-.542-.248-.095-.795-.243-1.642-.442-.847-.203-1.44-.394-1.78-.573-.44-.228-.769-.51-.987-.847a2.095 2.095 0 0 1-.321-1.139c0-.461.132-.891.396-1.289.265-.403.65-.708 1.158-.915a4.419 4.419 0 0 1 1.692-.312c.683 0 1.285.11 1.805.33.524.216.926.536 1.207.959.281.424.432.903.453 1.438l-1.17.088c-.063-.577-.277-1.013-.641-1.308-.361-.295-.896-.442-1.604-.442-.738 0-1.277.135-1.617.405-.335.265-.503.587-.503.965 0 .328.12.598.359.809.235.212.847.43 1.836.654.994.22 1.675.413 2.044.579.537.245.933.556 1.189.934.256.374.384.805.384 1.295 0 .486-.141.945-.422 1.376-.281.428-.685.762-1.214 1.003-.524.237-1.115.355-1.773.355-.835 0-1.535-.121-2.101-.361a2.96 2.96 0 0 1-1.327-1.084 3.086 3.086 0 0 1-.503-1.644Zm16.123 1.956c.566.386 1.088.668 1.566.846l-.359.841c-.662-.237-1.323-.61-1.981-1.121a4.598 4.598 0 0 1-2.264.567 4.404 4.404 0 0 1-2.271-.598 4.027 4.027 0 0 1-1.572-1.681c-.365-.722-.547-1.536-.547-2.441 0-.901.184-1.721.553-2.459.369-.739.893-1.302 1.573-1.688.683-.386 1.446-.579 2.289-.579.851 0 1.619.201 2.302.604a3.903 3.903 0 0 1 1.56 1.681c.36.718.541 1.53.541 2.435 0 .751-.116 1.428-.346 2.03a4.273 4.273 0 0 1-1.044 1.563Zm-2.686-1.545c.705.195 1.285.486 1.742.872.717-.647 1.076-1.621 1.076-2.92 0-.739-.128-1.385-.384-1.937a2.86 2.86 0 0 0-1.113-1.282 3.004 3.004 0 0 0-1.642-.461c-.91 0-1.664.309-2.264.928-.599.614-.899 1.533-.899 2.758 0 1.187.295 2.098.887 2.734.595.635 1.354.952 2.276.952.436 0 .847-.081 1.233-.243a3.976 3.976 0 0 0-1.207-.523l.295-.878Zm5.802 2.522v-9.128h1.22v8.051H320v1.077h-5.761Z" fill="#9C9C9C"/><path d="M333 276.37v-67.593s7.208 6.794 29.61 6.794C385.013 215.571 393 208 393 208v68.37s-3.226 8.302-30.39 8.622c-27.163.319-29.61-8.622-29.61-8.622Z" fill="#E0454C"/><path d="M393 206c0 5.523-13.496 10-30.5 10-17.004 0-30.5-4.477-30.5-10s13.496-10 30.5-10c17.004 0 30.5 4.477 30.5 10Z" fill="#E0454C"/><path fill-rule="evenodd" clip-rule="evenodd" d="M389.853 208.827c1.391-1.087 1.863-2.056 1.863-2.827 0-.771-.472-1.74-1.863-2.827-1.37-1.071-3.436-2.092-6.115-2.973-5.341-1.758-12.829-2.867-21.238-2.867-8.409 0-15.897 1.109-21.238 2.867-2.679.881-4.745 1.902-6.115 2.973-1.391 1.087-1.863 2.056-1.863 2.827 0 .771.472 1.74 1.863 2.827 1.37 1.071 3.436 2.092 6.115 2.973 5.341 1.758 12.829 2.867 21.238 2.867 8.409 0 15.897-1.109 21.238-2.867 2.679-.881 4.745-1.902 6.115-2.973ZM362.5 216c17.004 0 30.5-4.477 30.5-10s-13.496-10-30.5-10c-17.004 0-30.5 4.477-30.5 10s13.496 10 30.5 10Z" fill="#2D2D2D"/><path fill-rule="evenodd" clip-rule="evenodd" d="m331.921 275.175-.228-69.764 1.301-.006.228 69.764-1.301.006ZM392 276v-71h1v71h-1Z" fill="#2D2D2D"/><path fill-rule="evenodd" clip-rule="evenodd" d="M341.737 280.992c5.412 1.668 12.93 2.71 21.263 2.71 8.333 0 15.85-1.042 21.263-2.71 2.711-.835 4.857-1.816 6.31-2.875 1.468-1.069 2.118-2.13 2.118-3.117H394c0 1.595-1.048 2.994-2.652 4.163-1.617 1.178-3.915 2.212-6.696 3.069C379.082 283.948 371.427 285 363 285c-8.427 0-16.082-1.052-21.652-2.768-2.781-.857-5.079-1.891-6.696-3.069-1.604-1.169-2.652-2.568-2.652-4.163h1.309c0 .987.65 2.048 2.118 3.117 1.453 1.059 3.599 2.04 6.31 2.875Z" fill="#2D2D2D"/><path d="M340 239.868v-7.731h1.47l1.746 5.474c.161.51.278.891.352 1.144.084-.281.215-.694.393-1.239l1.766-5.379h1.314v7.731h-.941v-6.471l-2.144 6.471h-.881l-2.134-6.581v6.581H340Zm8.765 0v-7.731h5.335v.912h-4.358v2.368h4.081v.907h-4.081v2.632h4.529v.912h-5.506Zm6.954 0v-7.731h1.469l1.746 5.474c.162.51.279.891.353 1.144.084-.281.215-.694.392-1.239l1.767-5.379h1.313v7.731h-.941v-6.471l-2.144 6.471h-.88l-2.134-6.581v6.581h-.941Zm8.448-3.765c0-1.283.328-2.287.986-3.011.658-.728 1.507-1.092 2.547-1.092a3.41 3.41 0 0 1 1.842.512c.547.341.963.817 1.248 1.429.288.608.433 1.299.433 2.072 0 .784-.151 1.486-.453 2.104-.302.619-.73 1.088-1.284 1.408a3.543 3.543 0 0 1-1.791.475 3.375 3.375 0 0 1-1.863-.527 3.354 3.354 0 0 1-1.243-1.44 4.549 4.549 0 0 1-.422-1.93Zm1.006.016c0 .931.238 1.666.715 2.204.48.534 1.08.802 1.802.802.734 0 1.338-.271 1.811-.813.477-.541.715-1.309.715-2.304 0-.629-.102-1.178-.307-1.645a2.378 2.378 0 0 0-.891-1.092 2.31 2.31 0 0 0-1.313-.39 2.44 2.44 0 0 0-1.787.749c-.497.495-.745 1.325-.745 2.489Zm7.457 3.749v-7.731h3.271c.658 0 1.158.07 1.5.211.342.137.616.382.82.733.205.352.307.74.307 1.166 0 .548-.169 1.01-.508 1.386-.339.377-.862.616-1.57.718.258.13.454.258.589.385.285.274.555.617.81 1.028l1.283 2.104h-1.228l-.976-1.608a14.72 14.72 0 0 0-.705-1.066c-.184-.246-.35-.418-.498-.516a1.397 1.397 0 0 0-.443-.206 2.769 2.769 0 0 0-.543-.037h-1.133v3.433h-.976Zm.976-4.319h2.099c.446 0 .795-.047 1.047-.142a1.14 1.14 0 0 0 .573-.464c.131-.215.197-.447.197-.696 0-.366-.128-.667-.383-.902-.251-.236-.651-.354-1.198-.354h-2.335v2.558Zm8.473 4.319v-3.275l-2.843-4.456h1.188l1.454 2.331c.269.436.518.872.75 1.308.221-.404.49-.86.805-1.366l1.43-2.273H386l-2.944 4.456v3.275h-.977Z" fill="#fff"/><path d="M225 276.37v-67.593s7.208 6.794 29.61 6.794C277.013 215.571 285 208 285 208v68.37s-3.226 8.302-30.39 8.622c-27.163.319-29.61-8.622-29.61-8.622Z" fill="#E0454C"/><path d="M285 206c0 5.523-13.496 10-30.5 10-17.004 0-30.5-4.477-30.5-10s13.496-10 30.5-10c17.004 0 30.5 4.477 30.5 10Z" fill="#E0454C"/><path fill-rule="evenodd" clip-rule="evenodd" d="M281.853 208.827c1.391-1.087 1.863-2.056 1.863-2.827 0-.771-.472-1.74-1.863-2.827-1.37-1.071-3.436-2.092-6.115-2.973-5.341-1.758-12.829-2.867-21.238-2.867-8.409 0-15.897 1.109-21.238 2.867-2.679.881-4.746 1.902-6.115 2.973-1.391 1.087-1.863 2.056-1.863 2.827 0 .771.472 1.74 1.863 2.827 1.369 1.071 3.436 2.092 6.115 2.973 5.341 1.758 12.829 2.867 21.238 2.867 8.409 0 15.897-1.109 21.238-2.867 2.679-.881 4.745-1.902 6.115-2.973ZM254.5 216c17.004 0 30.5-4.477 30.5-10s-13.496-10-30.5-10c-17.004 0-30.5 4.477-30.5 10s13.496 10 30.5 10Z" fill="#2D2D2D"/><path fill-rule="evenodd" clip-rule="evenodd" d="m223.861 275.175-.228-69.764 1.301-.006.228 69.764-1.301.006ZM284 276v-71h1v71h-1Z" fill="#2D2D2D"/><path fill-rule="evenodd" clip-rule="evenodd" d="M233.58 280.992c5.325 1.668 12.722 2.71 20.92 2.71 8.198 0 15.595-1.042 20.92-2.71 2.667-.835 4.778-1.816 6.209-2.875 1.443-1.069 2.083-2.13 2.083-3.117H285c0 1.595-1.031 2.994-2.609 4.163-1.591 1.178-3.852 2.212-6.589 3.069-5.48 1.716-13.011 2.768-21.302 2.768s-15.822-1.052-21.303-2.768c-2.736-.857-4.997-1.891-6.588-3.069-1.578-1.169-2.609-2.568-2.609-4.163h1.288c0 .987.64 2.048 2.083 3.117 1.431 1.059 3.542 2.04 6.209 2.875Z" fill="#2D2D2D"/><path d="M232 239.868v-7.731h1.47l1.746 5.474c.161.51.278.891.352 1.144.084-.281.215-.694.393-1.239l1.766-5.379h1.314v7.731h-.941v-6.471l-2.144 6.471h-.881l-2.134-6.581v6.581H232Zm8.765 0v-7.731h5.335v.912h-4.358v2.368h4.081v.907h-4.081v2.632h4.529v.912h-5.506Zm6.953 0v-7.731h1.47l1.746 5.474c.162.51.279.891.353 1.144.084-.281.214-.694.392-1.239l1.767-5.379h1.313v7.731h-.941v-6.471l-2.144 6.471h-.88l-2.134-6.581v6.581h-.942Zm8.449-3.765c0-1.283.328-2.287.986-3.011.658-.728 1.507-1.092 2.547-1.092a3.41 3.41 0 0 1 1.842.512c.547.341.963.817 1.248 1.429.288.608.433 1.299.433 2.072 0 .784-.151 1.486-.453 2.104-.302.619-.73 1.088-1.284 1.408a3.543 3.543 0 0 1-1.791.475 3.375 3.375 0 0 1-1.863-.527 3.354 3.354 0 0 1-1.243-1.44 4.534 4.534 0 0 1-.422-1.93Zm1.006.016c0 .931.238 1.666.715 2.204.48.534 1.08.802 1.802.802.734 0 1.338-.271 1.811-.813.477-.541.715-1.309.715-2.304 0-.629-.102-1.178-.307-1.645a2.378 2.378 0 0 0-.891-1.092 2.31 2.31 0 0 0-1.313-.39c-.692 0-1.287.249-1.787.749-.497.495-.745 1.325-.745 2.489Zm7.457 3.749v-7.731h3.271c.658 0 1.158.07 1.5.211.342.137.616.382.82.733.205.352.307.74.307 1.166 0 .548-.169 1.01-.508 1.386-.339.377-.862.616-1.57.718.258.13.454.258.589.385.285.274.555.617.81 1.028l1.283 2.104h-1.228l-.976-1.608a14.72 14.72 0 0 0-.705-1.066c-.184-.246-.35-.418-.498-.516a1.397 1.397 0 0 0-.443-.206 2.769 2.769 0 0 0-.543-.037h-1.133v3.433h-.976Zm.976-4.319h2.099c.446 0 .795-.047 1.047-.142a1.14 1.14 0 0 0 .573-.464c.131-.215.197-.447.197-.696 0-.366-.128-.667-.383-.902-.251-.236-.651-.354-1.198-.354h-2.335v2.558Zm8.473 4.319v-3.275l-2.843-4.456h1.188l1.454 2.331c.269.436.518.872.75 1.308.221-.404.49-.86.805-1.366l1.43-2.273H278l-2.944 4.456v3.275h-.977Z" fill="#fff"/><path d="M350.403 294s-7.366 4.346-.424 8.66c1.336.841 6.179 3.177 6.041 5.34 0 0 2.936-4.202-1.356-6.846-4.409-2.706-5.512-5.596-4.261-7.154Z" fill="#ED1C24"/><path d="M348.554 302s-2.181 3.686 2.111 4.441c.422.059 3.526.422 4.335 1.559 0 0-.07-1.961-2.603-3.118-2.524-1.157-3.562-1.441-3.843-2.882Zm9.002-3.428c-2.999-3.129-3.834-5.065-2.546-7.572 0 0-8.948 3.43-.111 9.517 3.161 2.176 2.637 4.403 2.637 4.483.493-.511 3.02-3.299.02-6.428Z" fill="#ED1C24"/><path d="M362 305.868v-7.731h1.042l4.031 6.07v-6.07h.973v7.731h-1.041l-4.031-6.075v6.075H362Zm7.583-3.765c0-1.283.342-2.287 1.026-3.011.684-.728 1.567-1.092 2.649-1.092.709 0 1.347.171 1.916.512a3.305 3.305 0 0 1 1.298 1.429c.3.608.45 1.299.45 2.072 0 .784-.157 1.486-.471 2.104a3.244 3.244 0 0 1-1.335 1.408 3.8 3.8 0 0 1-1.863.475c-.723 0-1.368-.176-1.937-.527-.569-.352-1-.832-1.293-1.44a4.393 4.393 0 0 1-.44-1.93Zm1.047.016c0 .931.248 1.666.744 2.204.499.534 1.123.802 1.874.802.764 0 1.392-.271 1.884-.813.496-.541.744-1.309.744-2.304 0-.629-.107-1.178-.32-1.645a2.403 2.403 0 0 0-.926-1.092 2.477 2.477 0 0 0-1.367-.39c-.719 0-1.338.249-1.858.749-.517.495-.775 1.325-.775 2.489Zm7.74 3.749v-7.731h2.644c.597 0 1.052.037 1.366.111.44.102.815.286 1.126.554.405.344.707.785.906 1.323.202.535.303 1.146.303 1.835 0 .588-.068 1.108-.204 1.561-.136.454-.311.83-.524 1.129a2.808 2.808 0 0 1-.701.701 2.839 2.839 0 0 1-.916.385 5.152 5.152 0 0 1-1.23.132h-2.77Zm1.016-.912h1.639c.506 0 .902-.048 1.188-.143.29-.094.52-.228.691-.4.241-.243.427-.568.56-.976.136-.411.204-.909.204-1.492 0-.809-.132-1.43-.398-1.862-.261-.436-.581-.728-.958-.875-.272-.106-.71-.159-1.314-.159h-1.612v5.907Zm6.887.912v-7.731h5.549v.912h-4.533v2.368h4.245v.907h-4.245v2.632H392v.912h-5.727Z" fill="#2D2D2D"/><path d="M228.063 294s-6.63 4.346-.382 8.66c1.202.841 5.561 3.177 5.437 5.34 0 0 2.642-4.202-1.221-6.846-3.968-2.706-4.96-5.596-3.834-7.154Z" fill="#ED1C24"/><path d="M225.633 302s-2.492 3.686 2.412 4.441c.483.059 4.03.422 4.955 1.559 0 0-.08-1.961-2.975-3.118-2.884-1.157-4.07-1.441-4.392-2.882Zm9.923-3.428c-2.999-3.129-3.834-5.065-2.546-7.572 0 0-8.948 3.43-.111 9.517 3.161 2.176 2.637 4.403 2.637 4.483.493-.511 3.02-3.299.02-6.428Z" fill="#ED1C24"/><path d="M240 305.868v-7.731h1.007l3.896 6.07v-6.07h.942v7.731h-1.007l-3.897-6.075v6.075H240Zm7.33-3.765c0-1.283.331-2.287.992-3.011.661-.728 1.515-1.092 2.561-1.092.685 0 1.302.171 1.852.512.55.341.968.817 1.255 1.429.29.608.435 1.299.435 2.072 0 .784-.152 1.486-.455 2.104-.304.619-.734 1.088-1.291 1.408a3.577 3.577 0 0 1-1.801.475 3.406 3.406 0 0 1-1.873-.527 3.354 3.354 0 0 1-1.249-1.44 4.508 4.508 0 0 1-.426-1.93Zm1.013.016c0 .931.239 1.666.718 2.204a2.341 2.341 0 0 0 1.812.802c.739 0 1.346-.271 1.821-.813.479-.541.719-1.309.719-2.304 0-.629-.103-1.178-.309-1.645a2.385 2.385 0 0 0-.895-1.092 2.336 2.336 0 0 0-1.321-.39 2.46 2.46 0 0 0-1.797.749c-.499.495-.748 1.325-.748 2.489Zm7.482 3.749v-7.731h2.555c.577 0 1.017.037 1.321.111.425.102.788.286 1.088.554.391.344.683.785.875 1.323.196.535.294 1.146.294 1.835 0 .588-.066 1.108-.197 1.561-.132.454-.301.83-.506 1.129a2.776 2.776 0 0 1-.679.701 2.688 2.688 0 0 1-.885.385 4.824 4.824 0 0 1-1.189.132h-2.677Zm.981-.912h1.584c.49 0 .872-.048 1.149-.143.28-.094.503-.228.668-.4.233-.243.413-.568.542-.976.131-.411.197-.909.197-1.492 0-.809-.128-1.43-.385-1.862-.253-.436-.561-.728-.926-.875-.263-.106-.686-.159-1.27-.159h-1.559v5.907Zm6.658.912v-7.731h5.364v.912h-4.382v2.368h4.104v.907h-4.104v2.632H269v.912h-5.536Z" fill="#2D2D2D"/><path d="M289.063 314s-6.63 4.346-.382 8.66c1.202.841 5.561 3.177 5.437 5.34 0 0 2.642-4.202-1.221-6.846-3.968-2.706-4.96-5.596-3.834-7.154Z" fill="#ED1C24"/><path d="M286.554 322s-2.181 3.686 2.111 4.441c.422.059 3.526.422 4.335 1.559 0 0-.07-1.961-2.603-3.118-2.524-1.157-3.562-1.441-3.843-2.882Zm9.002-3.428c-2.999-3.129-3.834-5.065-2.546-7.572 0 0-8.948 3.43-.111 9.517 3.161 2.176 2.637 4.403 2.637 4.483.493-.511 3.02-3.299.02-6.428Z" fill="#ED1C24"/><path d="M301 325.868v-7.731h1.007l3.896 6.07v-6.07h.942v7.731h-1.007l-3.897-6.075v6.075H301Zm7.33-3.765c0-1.283.331-2.287.992-3.011.661-.728 1.515-1.092 2.561-1.092.685 0 1.302.171 1.852.512.55.341.968.817 1.255 1.429.29.608.435 1.299.435 2.072 0 .784-.152 1.486-.455 2.104-.304.619-.734 1.088-1.291 1.408a3.577 3.577 0 0 1-1.801.475 3.406 3.406 0 0 1-1.873-.527 3.354 3.354 0 0 1-1.249-1.44 4.508 4.508 0 0 1-.426-1.93Zm1.013.016c0 .931.239 1.666.718 2.204a2.341 2.341 0 0 0 1.812.802c.739 0 1.346-.271 1.821-.813.479-.541.719-1.309.719-2.304 0-.629-.103-1.178-.309-1.645a2.385 2.385 0 0 0-.895-1.092 2.336 2.336 0 0 0-1.321-.39 2.46 2.46 0 0 0-1.797.749c-.499.495-.748 1.325-.748 2.489Zm7.482 3.749v-7.731h2.555c.577 0 1.017.037 1.321.111.425.102.788.286 1.088.554.391.344.683.785.875 1.323.196.535.294 1.146.294 1.835 0 .588-.066 1.108-.197 1.561-.132.454-.301.83-.506 1.129a2.776 2.776 0 0 1-.679.701 2.688 2.688 0 0 1-.885.385 4.824 4.824 0 0 1-1.189.132h-2.677Zm.981-.912h1.584c.49 0 .872-.048 1.149-.143.28-.094.503-.228.668-.4.233-.243.413-.568.542-.976.131-.411.197-.909.197-1.492 0-.809-.128-1.43-.385-1.862-.253-.436-.561-.728-.926-.875-.263-.106-.686-.159-1.27-.159h-1.559v5.907Zm6.658.912v-7.731h5.364v.912h-4.382v2.368h4.104v.907h-4.104v2.632H330v.912h-5.536Z" fill="#2D2D2D"/><path d="M279 296.37v-67.593s7.208 6.794 29.61 6.794C331.013 235.571 339 228 339 228v68.37s-3.226 8.302-30.39 8.622c-27.163.319-29.61-8.622-29.61-8.622Z" fill="#E0454C"/><path d="M339 226c0 5.523-13.496 10-30.5 10-17.004 0-30.5-4.477-30.5-10s13.496-10 30.5-10c17.004 0 30.5 4.477 30.5 10Z" fill="#E0454C"/><path fill-rule="evenodd" clip-rule="evenodd" d="M335.853 228.827c1.391-1.087 1.863-2.056 1.863-2.827 0-.771-.472-1.74-1.863-2.827-1.37-1.071-3.436-2.092-6.115-2.973-5.342-1.758-12.829-2.867-21.238-2.867-8.409 0-15.897 1.109-21.238 2.867-2.679.881-4.746 1.902-6.115 2.973-1.391 1.087-1.863 2.056-1.863 2.827 0 .771.472 1.74 1.863 2.827 1.369 1.071 3.436 2.092 6.115 2.973 5.341 1.758 12.829 2.867 21.238 2.867 8.409 0 15.896-1.109 21.238-2.867 2.679-.881 4.745-1.902 6.115-2.973ZM308.5 236c17.004 0 30.5-4.477 30.5-10s-13.496-10-30.5-10c-17.004 0-30.5 4.477-30.5 10s13.496 10 30.5 10Z" fill="#2D2D2D"/><path fill-rule="evenodd" clip-rule="evenodd" d="m277.891 294.922-.228-69.765 1.301-.006.228 69.765-1.301.006ZM338 295v-70h1v70h-1Zm-50.263 5.992c5.412 1.668 12.93 2.71 21.263 2.71 8.333 0 15.85-1.042 21.263-2.71 2.711-.835 4.856-1.816 6.31-2.875 1.468-1.069 2.118-2.13 2.118-3.117H340c0 1.595-1.048 2.994-2.652 4.163-1.617 1.178-3.915 2.212-6.696 3.069C325.082 303.948 317.427 305 309 305c-8.427 0-16.082-1.052-21.652-2.768-2.781-.857-5.079-1.891-6.696-3.069-1.604-1.169-2.652-2.568-2.652-4.163h1.309c0 .987.65 2.048 2.118 3.117 1.453 1.059 3.599 2.04 6.31 2.875Z" fill="#2D2D2D"/><path d="M286 259.868v-7.731h1.47l1.746 5.474c.161.51.278.891.352 1.144.084-.281.215-.694.393-1.239l1.766-5.379h1.314v7.731h-.941v-6.471l-2.144 6.471h-.881l-2.134-6.581v6.581H286Zm8.765 0v-7.731h5.335v.912h-4.359v2.368h4.082v.907h-4.082v2.632h4.53v.912h-5.506Zm6.953 0v-7.731h1.47l1.746 5.474c.161.51.279.891.353 1.144.084-.281.214-.694.392-1.239l1.767-5.379h1.313v7.731h-.941v-6.471l-2.144 6.471h-.88l-2.134-6.581v6.581h-.942Zm8.449-3.765c0-1.283.328-2.287.986-3.011.658-.728 1.506-1.092 2.547-1.092a3.41 3.41 0 0 1 1.842.512c.547.341.963.817 1.248 1.429.288.608.433 1.299.433 2.072 0 .784-.151 1.486-.453 2.104-.302.619-.73 1.088-1.284 1.408a3.543 3.543 0 0 1-1.791.475 3.375 3.375 0 0 1-1.863-.527 3.354 3.354 0 0 1-1.243-1.44 4.534 4.534 0 0 1-.422-1.93Zm1.006.016c0 .931.238 1.666.715 2.204.48.534 1.08.802 1.802.802.734 0 1.338-.271 1.811-.813.477-.541.715-1.309.715-2.304 0-.629-.102-1.178-.307-1.645a2.378 2.378 0 0 0-.891-1.092 2.31 2.31 0 0 0-1.313-.39c-.692 0-1.287.249-1.787.749-.497.495-.745 1.325-.745 2.489Zm7.457 3.749v-7.731h3.271c.658 0 1.158.07 1.5.211.342.137.616.382.82.733.205.352.307.74.307 1.166 0 .548-.169 1.01-.508 1.386-.339.377-.862.616-1.57.718.258.13.454.258.588.385.286.274.556.617.811 1.028l1.283 2.104h-1.228l-.976-1.608a14.72 14.72 0 0 0-.705-1.066c-.184-.246-.35-.418-.498-.516a1.397 1.397 0 0 0-.443-.206 2.774 2.774 0 0 0-.544-.037h-1.132v3.433h-.976Zm.976-4.319h2.099c.446 0 .795-.047 1.047-.142a1.14 1.14 0 0 0 .573-.464c.131-.215.197-.447.197-.696 0-.366-.128-.667-.383-.902-.251-.236-.651-.354-1.198-.354h-2.335v2.558Zm8.473 4.319v-3.275l-2.843-4.456h1.188l1.454 2.331c.268.436.518.872.75 1.308.221-.404.49-.86.805-1.366l1.43-2.273H332l-2.944 4.456v3.275h-.977Z" fill="#fff"/><path fill-rule="evenodd" clip-rule="evenodd" d="M144 145.917V120h1.304v25.917c0 31.847 25.971 57.664 58.008 57.664h11.463l-3.036-3.017a.647.647 0 0 1 0-.917.655.655 0 0 1 .922 0l4.148 4.124a.644.644 0 0 1 0 .916l-4.148 4.123a.655.655 0 0 1-.922 0 .646.646 0 0 1 0-.916l3.036-3.017h-11.463c-32.757 0-59.312-26.398-59.312-58.96Zm335 0V120h-1.304v25.917c0 31.847-25.971 57.664-58.008 57.664h-11.463l3.036-3.017a.647.647 0 0 0 0-.917.655.655 0 0 0-.922 0l-4.148 4.124a.644.644 0 0 0 0 .916l4.148 4.123a.655.655 0 0 0 .922 0 .646.646 0 0 0 0-.916l-3.036-3.017h11.463c32.757 0 59.312-26.398 59.312-58.96ZM146.311 353.812a.65.65 0 0 0 .915 0l4.122-4.091a.642.642 0 0 0 0-.91.651.651 0 0 0-.916 0l-3.016 2.994V340.5c0-31.599 25.803-57.214 57.633-57.214H218V282h-12.951c-32.545 0-58.928 26.191-58.928 58.5v11.305l-3.016-2.994a.65.65 0 0 0-.915 0 .64.64 0 0 0 0 .91l4.121 4.091ZM479 340.878V354h-1.304v-13.122c0-32.248-25.971-58.391-58.008-58.391h-11.463l3.036 3.056a.66.66 0 0 1 0 .928.65.65 0 0 1-.922 0l-4.148-4.176a.658.658 0 0 1 0-.928l4.148-4.175a.65.65 0 0 1 .922 0 .66.66 0 0 1 0 .928l-3.036 3.055h11.463c32.757 0 59.312 26.73 59.312 59.703ZM306.889 189.724V174h1.222v15.724l2.846-3.105a.576.576 0 0 1 .864 0 .71.71 0 0 1 0 .943l-3.889 4.243a.576.576 0 0 1-.864 0l-3.889-4.243a.71.71 0 0 1 0-.943.576.576 0 0 1 .864 0l2.846 3.105ZM307 145v-25h1v25h-1Z" fill="#2D2D2D"/><path d="M46 145h132v34H46v-34Zm0 155h123v24H46v-24Zm407 0h124v24H453v-24Zm-3-155h133v34H450v-34Z" fill="#F6F6F6"/><path d="m53.01 162.167 1.234.31c-.259 1.005-.725 1.773-1.4 2.304-.67.526-1.49.789-2.461.789-1.005 0-1.824-.202-2.456-.606-.627-.408-1.106-.998-1.437-1.768a6.289 6.289 0 0 1-.49-2.481c0-.963.184-1.803.553-2.518a3.795 3.795 0 0 1 1.584-1.635 4.648 4.648 0 0 1 2.265-.562c.933 0 1.717.236 2.353.707.636.471 1.08 1.134 1.33 1.988l-1.215.285c-.216-.674-.53-1.164-.941-1.471-.412-.308-.93-.461-1.553-.461-.716 0-1.316.17-1.8.511a2.71 2.71 0 0 0-1.011 1.376 5.465 5.465 0 0 0-.293 1.774c0 .787.115 1.475.344 2.064.233.585.593 1.023 1.081 1.313a3.036 3.036 0 0 0 1.584.436c.691 0 1.276-.198 1.756-.593.479-.396.803-.983.973-1.762Zm2.318-.107c0-1.241.348-2.161 1.043-2.759.581-.496 1.29-.744 2.125-.744.929 0 1.688.303 2.277.909.59.601.884 1.435.884 2.499 0 .863-.13 1.543-.394 2.039a2.732 2.732 0 0 1-1.139 1.149 3.312 3.312 0 0 1-1.628.41c-.946 0-1.711-.3-2.296-.902-.581-.602-.872-1.469-.872-2.601Zm1.177 0c0 .859.189 1.502.566 1.932.378.425.853.637 1.425.637a1.81 1.81 0 0 0 1.419-.644c.377-.429.566-1.083.566-1.963 0-.829-.191-1.456-.573-1.881a1.805 1.805 0 0 0-1.412-.644c-.572 0-1.047.213-1.425.638-.377.425-.566 1.067-.566 1.925Zm6.631 3.352v-6.704h1.024v.941a2.37 2.37 0 0 1 .847-.789 2.372 2.372 0 0 1 1.202-.303c.5 0 .91.103 1.227.309.323.206.55.494.681.865.534-.783 1.23-1.174 2.086-1.174.67 0 1.186.185 1.546.555.36.366.54.932.54 1.698v4.602h-1.138v-4.223c0-.455-.038-.781-.114-.979a.934.934 0 0 0-.401-.486 1.269 1.269 0 0 0-.687-.183c-.475 0-.87.158-1.183.474-.314.311-.47.812-.47 1.502v3.895H67.15v-4.356c0-.505-.093-.883-.28-1.136-.186-.252-.492-.379-.916-.379-.322 0-.621.085-.897.253a1.437 1.437 0 0 0-.591.738c-.123.324-.185.792-.185 1.402v3.478h-1.145Zm10.982 2.569v-9.273h1.044v.871c.246-.341.523-.595.833-.764.31-.172.685-.258 1.126-.258.577 0 1.086.147 1.527.441.44.295.773.712.998 1.25.225.535.337 1.122.337 1.762 0 .686-.125 1.304-.375 1.855a2.785 2.785 0 0 1-1.081 1.263c-.471.29-.967.435-1.489.435-.381 0-.725-.079-1.03-.239a2.35 2.35 0 0 1-.745-.606v3.263h-1.145Zm1.037-5.883c0 .863.176 1.5.528 1.913.352.412.778.618 1.279.618.509 0 .944-.212 1.304-.637.365-.43.547-1.092.547-1.989 0-.854-.178-1.494-.534-1.919-.352-.425-.774-.637-1.266-.637-.488 0-.92.227-1.298.681-.373.451-.56 1.107-.56 1.97Zm10.773 3.314v-.985c-.526.758-1.24 1.136-2.144 1.136-.399 0-.772-.075-1.12-.227-.343-.151-.6-.341-.77-.568a2.184 2.184 0 0 1-.35-.846c-.046-.223-.07-.576-.07-1.06v-4.154h1.146v3.718c0 .594.023.993.07 1.2.072.298.225.534.458.707.233.168.522.252.865.252.343 0 .666-.086.967-.259a1.46 1.46 0 0 0 .636-.713c.127-.303.19-.741.19-1.313v-3.592h1.146v6.704h-1.024Zm5.454-1.016.165 1.003c-.322.068-.61.101-.865.101-.415 0-.737-.065-.966-.195a1.103 1.103 0 0 1-.484-.512c-.093-.214-.14-.662-.14-1.344v-3.857h-.84v-.884h.84v-1.66l1.139-.682v2.342h1.151v.884h-1.151v3.92c0 .324.019.532.057.625a.503.503 0 0 0 .197.221.785.785 0 0 0 .395.082c.127 0 .294-.015.502-.044Zm5.881-1.143 1.183.145c-.187.686-.532 1.219-1.037 1.597-.505.379-1.15.568-1.934.568-.988 0-1.772-.3-2.353-.902-.577-.606-.865-1.454-.865-2.544 0-1.128.292-2.003.877-2.626.586-.623 1.345-.934 2.278-.934.903 0 1.64.305 2.213.915.573.61.859 1.469.859 2.575 0 .068-.002.169-.006.303H93.44c.042.737.252 1.301.63 1.692.377.392.848.587 1.412.587.42 0 .778-.109 1.075-.328.296-.219.532-.568.706-1.048Zm-3.76-1.837h3.772c-.05-.564-.195-.987-.432-1.269-.365-.437-.838-.656-1.419-.656-.526 0-.969.174-1.33.524-.355.349-.552.816-.59 1.401Zm15.604 2.904c-.378.417-.789.73-1.234.94-.446.207-.927.31-1.444.31-.954 0-1.711-.32-2.271-.96-.454-.522-.681-1.104-.681-1.748 0-.573.185-1.088.554-1.547.373-.463.928-.869 1.666-1.218-.42-.48-.7-.869-.839-1.168a2.035 2.035 0 0 1-.21-.865c0-.555.218-1.037.655-1.445.441-.413.994-.619 1.66-.619.636 0 1.156.194 1.558.581.408.387.611.852.611 1.395 0 .879-.587 1.631-1.762 2.253l1.673 2.115c.191-.37.339-.799.445-1.288l1.19.253c-.204.808-.479 1.473-.827 1.995a6.611 6.611 0 0 0 1.457 1.42l-.77.903c-.462-.295-.939-.731-1.431-1.307Zm-2.328-4.823c.496-.29.816-.545.96-.764a1.26 1.26 0 0 0 .223-.726c0-.315-.102-.572-.306-.77a1.01 1.01 0 0 0-.75-.303c-.31 0-.568.099-.776.297a.973.973 0 0 0-.306.726c0 .143.036.294.109.454.076.156.188.322.337.499l.509.587Zm1.609 3.927-2.099-2.582c-.619.366-1.037.707-1.253 1.022-.217.312-.325.621-.325.928 0 .375.151.764.452 1.168.301.404.727.606 1.278.606.344 0 .698-.105 1.063-.316a2.6 2.6 0 0 0 .884-.826Zm8.072 1.988v-9.254h1.857l2.207 6.552c.204.61.352 1.067.446 1.37.106-.337.271-.831.496-1.483l2.233-6.439h1.66v9.254h-1.19v-7.745l-2.709 7.745h-1.114l-2.697-7.878v7.878h-1.189Zm15.282-.827c-.424.358-.833.61-1.228.758-.39.147-.81.22-1.259.22-.742 0-1.313-.178-1.711-.536-.399-.362-.598-.823-.598-1.383 0-.328.074-.627.222-.896.153-.273.35-.492.592-.656.246-.165.522-.289.827-.373a8.11 8.11 0 0 1 1.018-.17c.924-.11 1.605-.24 2.042-.392l.006-.296c0-.463-.108-.789-.324-.979-.293-.256-.728-.385-1.304-.385-.539 0-.938.095-1.196.284-.255.185-.443.516-.566.991l-1.12-.151c.102-.476.269-.859.503-1.149.233-.295.57-.52 1.011-.676.441-.159.952-.239 1.533-.239.577 0 1.045.067 1.406.202.36.134.625.305.795.511.169.202.288.459.356.77.038.194.057.543.057 1.048v1.515c0 1.056.024 1.725.07 2.007.051.278.149.545.293.802h-1.196a2.391 2.391 0 0 1-.229-.827Zm-.095-2.538c-.416.169-1.039.312-1.871.43-.47.067-.803.143-.998.227a.987.987 0 0 0-.452.372.951.951 0 0 0-.159.537c0 .303.115.555.344.757.233.202.572.303 1.017.303a2.39 2.39 0 0 0 1.177-.284c.344-.193.596-.456.757-.789.123-.256.185-.635.185-1.136v-.417Zm7.477.909 1.126.146c-.123.77-.439 1.374-.948 1.811-.505.434-1.126.65-1.864.65-.924 0-1.669-.298-2.233-.896-.559-.602-.839-1.462-.839-2.582 0-.724.121-1.357.362-1.9a2.502 2.502 0 0 1 1.101-1.218 3.288 3.288 0 0 1 1.616-.41c.733 0 1.333.185 1.8.555.466.366.765.888.897 1.566l-1.114.17c-.106-.45-.294-.789-.566-1.016a1.446 1.446 0 0 0-.973-.341c-.577 0-1.045.206-1.406.618-.36.409-.54 1.057-.54 1.945 0 .9.173 1.555.521 1.963.348.408.802.612 1.361.612.45 0 .825-.137 1.126-.41.301-.274.492-.694.573-1.263Zm2.236 2.456v-9.254h1.145v3.32a2.565 2.565 0 0 1 2.022-.921c.501 0 .936.098 1.304.296a1.7 1.7 0 0 1 .789.808c.161.345.242.846.242 1.503v4.248h-1.145v-4.248c0-.568-.125-.981-.375-1.238-.246-.261-.596-.391-1.05-.391-.339 0-.659.088-.96.265a1.477 1.477 0 0 0-.637.707c-.127.299-.19.711-.19 1.237v3.668h-1.145Zm7.388-7.947v-1.307h1.145v1.307h-1.145Zm0 7.947v-6.704h1.145v6.704h-1.145Zm3.024 0v-6.704h1.031v.953c.496-.736 1.213-1.104 2.15-1.104.407 0 .78.073 1.119.221.344.143.6.332.77.568.17.235.288.515.356.839.043.211.064.579.064 1.105v4.122h-1.145v-4.078c0-.463-.045-.808-.134-1.035a1.069 1.069 0 0 0-.477-.549 1.477 1.477 0 0 0-.795-.209c-.488 0-.909.154-1.266.461-.352.307-.528.89-.528 1.749v3.661h-1.145Zm12.007-2.159 1.183.145c-.187.686-.532 1.219-1.037 1.597-.505.379-1.149.568-1.934.568-.988 0-1.772-.3-2.353-.902-.577-.606-.865-1.454-.865-2.544 0-1.128.292-2.003.877-2.626.586-.623 1.345-.934 2.278-.934.903 0 1.641.305 2.213.915.573.61.859 1.469.859 2.575 0 .068-.002.169-.006.303h-5.038c.042.737.252 1.301.629 1.692.378.392.849.587 1.413.587.419 0 .778-.109 1.075-.328.296-.219.532-.568.706-1.048Zm-3.76-1.837h3.772c-.05-.564-.195-.987-.432-1.269-.365-.437-.838-.656-1.419-.656-.525 0-.969.174-1.329.524-.356.349-.554.816-.592 1.401ZM46.305 180.279v-9.254h1.234v8.162h4.593v1.092h-5.827Zm11.911-2.159 1.183.146c-.186.686-.532 1.218-1.037 1.597-.504.378-1.149.568-1.933.568-.988 0-1.773-.301-2.354-.903-.577-.606-.865-1.454-.865-2.544 0-1.128.293-2.003.878-2.626.585-.623 1.344-.934 2.277-.934.903 0 1.641.305 2.214.915.572.61.858 1.469.858 2.576 0 .067-.002.168-.006.303h-5.038c.043.736.253 1.3.63 1.691.377.392.848.588 1.412.588.42 0 .778-.11 1.075-.329.297-.219.532-.568.706-1.048Zm-3.76-1.837h3.773c-.05-.563-.195-.986-.433-1.268-.364-.438-.837-.657-1.418-.657-.526 0-.97.175-1.33.524-.356.349-.553.816-.591 1.401Zm10.926 3.169c-.424.358-.834.611-1.228.758-.39.147-.81.221-1.26.221-.741 0-1.312-.179-1.71-.537-.4-.362-.598-.823-.598-1.382 0-.328.074-.627.222-.897.153-.273.35-.492.592-.656.246-.164.521-.288.827-.373a8.498 8.498 0 0 1 1.018-.17c.924-.109 1.605-.24 2.041-.391.005-.156.007-.255.007-.297 0-.463-.108-.789-.325-.978-.292-.257-.727-.386-1.304-.386-.538 0-.937.095-1.196.285-.254.185-.443.515-.566.991l-1.12-.152c.103-.475.27-.858.503-1.149.234-.294.57-.52 1.012-.675.44-.16.952-.24 1.533-.24.576 0 1.045.067 1.406.202.36.135.625.305.795.511.17.202.288.459.356.77.038.194.057.543.057 1.048v1.515c0 1.057.023 1.726.07 2.008.05.277.148.545.293.801H65.61a2.387 2.387 0 0 1-.23-.827Zm-.096-2.537c-.415.168-1.039.311-1.87.429-.47.067-.803.143-.998.227a.988.988 0 0 0-.268 1.667c.234.202.573.303 1.018.303a2.4 2.4 0 0 0 1.177-.284c.343-.194.596-.457.757-.789.123-.257.184-.636.184-1.137v-.416Zm3.057 3.364v-6.704h1.03v1.017c.263-.476.505-.789.725-.941.225-.151.471-.227.738-.227.386 0 .778.122 1.177.366l-.394 1.054a1.648 1.648 0 0 0-.84-.246c-.25 0-.475.076-.674.227a1.2 1.2 0 0 0-.427.619c-.127.404-.19.846-.19 1.326v3.509h-1.145Zm4.481 0v-6.704h1.03v.954c.497-.737 1.213-1.105 2.15-1.105.407 0 .78.074 1.12.221.344.143.6.332.77.568.17.236.288.515.356.84.042.21.064.578.064 1.104v4.122h-1.145v-4.078c0-.463-.045-.808-.134-1.035a1.077 1.077 0 0 0-.477-.549 1.48 1.48 0 0 0-.795-.208c-.488 0-.91.153-1.266.46-.352.308-.528.891-.528 1.749v3.661h-1.145Zm7.388-7.947v-1.307h1.145v1.307h-1.145Zm0 7.947v-6.704h1.145v6.704h-1.145Zm3.025 0v-6.704h1.03v.954c.496-.737 1.213-1.105 2.15-1.105.407 0 .78.074 1.12.221.343.143.6.332.77.568.169.236.288.515.356.84.042.21.063.578.063 1.104v4.122h-1.145v-4.078c0-.463-.044-.808-.133-1.035a1.077 1.077 0 0 0-.477-.549 1.48 1.48 0 0 0-.796-.208c-.487 0-.91.153-1.265.46-.352.308-.528.891-.528 1.749v3.661h-1.145Zm7.172.556 1.113.164c.046.341.176.589.388.745.284.21.672.315 1.164.315.53 0 .94-.105 1.228-.315.288-.211.483-.505.585-.884.06-.231.087-.717.082-1.458-.5.585-1.123.877-1.87.877-.928 0-1.647-.332-2.156-.997-.509-.665-.763-1.462-.763-2.393a4.4 4.4 0 0 1 .35-1.767c.233-.543.57-.962 1.01-1.256.446-.295.968-.442 1.566-.442.797 0 1.454.32 1.972.959v-.808h1.055v5.795c0 1.044-.108 1.783-.324 2.216-.212.438-.551.783-1.018 1.035-.462.253-1.032.379-1.71.379-.806 0-1.457-.181-1.954-.543-.496-.358-.735-.898-.718-1.622Zm.947-4.028c0 .88.176 1.522.528 1.926.352.404.793.606 1.323.606.526 0 .967-.2 1.324-.6.356-.404.534-1.035.534-1.894 0-.82-.185-1.439-.553-1.856-.365-.416-.806-.625-1.324-.625-.508 0-.941.207-1.297.619-.357.408-.535 1.016-.535 1.824ZM466 165.835l3.572-9.67h1.327l3.807 9.67h-1.403l-1.085-2.929h-3.889l-1.022 2.929H466Zm2.684-3.971h3.154l-.971-2.678a27.46 27.46 0 0 1-.66-2.005c-.119.62-.286 1.235-.501 1.847l-1.022 2.836Zm13.772.581 1.231.323c-.258 1.051-.723 1.853-1.396 2.407-.668.55-1.486.825-2.455.825-1.003 0-1.819-.211-2.449-.633-.627-.427-1.105-1.042-1.435-1.847a6.86 6.86 0 0 1-.488-2.593c0-1.007.184-1.884.552-2.631.372-.752.899-1.322 1.58-1.709a4.478 4.478 0 0 1 2.259-.587c.93 0 1.713.246 2.348.739.634.492 1.076 1.185 1.326 2.078l-1.212.296c-.216-.703-.529-1.215-.939-1.536-.411-.322-.927-.482-1.549-.482-.714 0-1.313.178-1.795.534a2.821 2.821 0 0 0-1.009 1.438 5.942 5.942 0 0 0-.292 1.854c0 .822.114 1.541.343 2.157.232.611.592 1.068 1.078 1.372a2.935 2.935 0 0 0 1.58.455c.69 0 1.274-.207 1.752-.62.478-.413.801-1.027.97-1.84Zm3.094 3.39v-9.67h1.231v9.67h-1.231Zm3.537 0v-9.67h3.204c.724 0 1.276.046 1.656.138.533.128.988.359 1.365.693.49.431.856.983 1.097 1.656.246.668.368 1.433.368 2.295 0 .735-.082 1.385-.247 1.953-.165.567-.376 1.038-.635 1.411-.258.37-.541.662-.85.878a3.389 3.389 0 0 1-1.11.481 6.07 6.07 0 0 1-1.491.165h-3.357Zm1.231-1.141h1.986c.613 0 1.094-.059 1.44-.178.352-.119.631-.286.838-.501.292-.304.518-.711.679-1.221.165-.514.247-1.137.247-1.867 0-1.011-.16-1.787-.482-2.328-.317-.545-.704-.91-1.161-1.095-.33-.132-.861-.198-1.593-.198h-1.954v7.388Zm14.162 1.141v-8.529h-3.064v-1.141h7.373v1.141h-3.078v8.529h-1.231Zm5.067 0v-7.005h1.028v1.062c.262-.497.503-.825.723-.983.224-.158.47-.237.736-.237.385 0 .777.127 1.174.382l-.393 1.102a1.587 1.587 0 0 0-.838-.258c-.249 0-.474.08-.672.238a1.247 1.247 0 0 0-.425.646 4.792 4.792 0 0 0-.191 1.386v3.667h-1.142Zm8.867-.864c-.423.374-.831.638-1.224.792-.389.153-.808.23-1.257.23-.74 0-1.309-.186-1.706-.56-.398-.378-.597-.86-.597-1.445a1.984 1.984 0 0 1 .812-1.623c.246-.171.521-.301.825-.389a7.962 7.962 0 0 1 1.015-.178c.923-.114 1.602-.251 2.037-.409l.007-.31c0-.484-.108-.824-.324-1.022-.292-.269-.725-.403-1.301-.403-.537 0-.935.099-1.193.297-.254.194-.442.539-.564 1.036l-1.117-.159c.101-.496.268-.897.501-1.2.233-.308.569-.543 1.009-.706.44-.167.95-.25 1.529-.25.575 0 1.043.07 1.402.211.36.14.624.318.794.534.169.211.287.479.355.805.038.202.057.567.057 1.095v1.583c0 1.104.023 1.803.07 2.097.051.291.148.57.292.838h-1.193a2.582 2.582 0 0 1-.229-.864Zm-.095-2.652c-.414.176-1.036.326-1.865.449-.47.07-.802.149-.996.237a1.027 1.027 0 0 0-.61.95c0 .317.115.581.343.792.233.211.571.316 1.015.316.44 0 .831-.099 1.174-.297.343-.202.594-.477.755-.824.123-.268.184-.664.184-1.187v-.436Zm3.062 3.516v-7.005h1.028v.996c.495-.77 1.209-1.154 2.144-1.154.406 0 .779.076 1.117.23.343.15.599.348.768.594.169.246.288.539.355.877.043.22.064.605.064 1.155v4.307h-1.142v-4.261c0-.484-.045-.844-.134-1.082a1.108 1.108 0 0 0-.476-.574 1.426 1.426 0 0 0-.793-.217c-.486 0-.907.16-1.262.481-.352.321-.527.93-.527 1.827v3.826h-1.142Zm6.906-2.091 1.13-.185c.063.471.239.832.527 1.082.291.251.698.376 1.218.376.524 0 .914-.11 1.167-.33.254-.224.381-.486.381-.785a.728.728 0 0 0-.336-.633c-.157-.105-.546-.24-1.168-.402-.837-.22-1.419-.409-1.745-.568a1.755 1.755 0 0 1-.736-.666 1.852 1.852 0 0 1-.247-.943c0-.312.067-.6.203-.864a1.92 1.92 0 0 1 .565-.666c.177-.137.418-.251.723-.343.309-.097.639-.145.99-.145.529 0 .992.079 1.389.237.402.158.698.374.889.646.19.269.321.629.393 1.082l-1.117.159c-.05-.361-.198-.643-.444-.845-.241-.202-.584-.303-1.028-.303-.524 0-.899.09-1.123.27-.224.181-.336.392-.336.633 0 .154.046.293.139.416.094.128.239.233.438.317.115.044.451.145 1.009.303.808.224 1.371.409 1.688.554.322.141.573.348.755.62.182.273.273.611.273 1.016 0 .396-.112.77-.336 1.121-.22.348-.54.618-.958.812a3.422 3.422 0 0 1-1.422.283c-.875 0-1.544-.189-2.005-.567-.457-.378-.749-.939-.876-1.682Zm11.482 1.227c-.423.374-.831.638-1.225.792-.389.153-.807.23-1.256.23-.74 0-1.309-.186-1.707-.56-.397-.378-.596-.86-.596-1.445a1.984 1.984 0 0 1 .812-1.623c.245-.171.52-.301.825-.389a7.929 7.929 0 0 1 1.015-.178c.922-.114 1.601-.251 2.037-.409l.006-.31c0-.484-.108-.824-.323-1.022-.292-.269-.726-.403-1.301-.403-.537 0-.935.099-1.193.297-.254.194-.442.539-.565 1.036l-1.117-.159c.102-.496.269-.897.502-1.2.232-.308.569-.543 1.009-.706.44-.167.949-.25 1.529-.25.575 0 1.043.07 1.402.211.36.14.624.318.793.534.17.211.288.479.356.805.038.202.057.567.057 1.095v1.583c0 1.104.023 1.803.07 2.097.05.291.148.57.291.838h-1.192a2.582 2.582 0 0 1-.229-.864Zm-.095-2.652c-.415.176-1.036.326-1.866.449-.469.07-.801.149-.996.237a1.027 1.027 0 0 0-.609.95c0 .317.114.581.343.792.232.211.571.316 1.015.316.44 0 .831-.099 1.174-.297.342-.202.594-.477.755-.824.123-.268.184-.664.184-1.187v-.436Zm7.459.95 1.123.152c-.123.805-.438 1.436-.946 1.893-.503.453-1.123.679-1.859.679-.922 0-1.664-.312-2.227-.936-.558-.629-.838-1.528-.838-2.698 0-.757.121-1.418.362-1.986.241-.567.607-.991 1.098-1.273a3.165 3.165 0 0 1 1.612-.428c.731 0 1.33.193 1.795.58.466.383.764.928.895 1.636l-1.11.178c-.106-.471-.294-.825-.565-1.062a1.406 1.406 0 0 0-.971-.356c-.575 0-1.043.215-1.402.646-.36.427-.54 1.104-.54 2.032 0 .941.174 1.625.521 2.051.347.427.799.64 1.358.64.448 0 .822-.143 1.123-.429.3-.285.49-.725.571-1.319Zm4.724 1.504.165 1.049c-.322.07-.61.105-.863.105-.415 0-.736-.068-.965-.204a1.13 1.13 0 0 1-.482-.534c-.093-.225-.14-.693-.14-1.405v-4.031h-.837v-.923h.837v-1.735l1.136-.712v2.447h1.149v.923h-1.149v4.097c0 .338.019.556.057.653a.526.526 0 0 0 .197.231c.093.057.224.085.393.085.127 0 .294-.015.502-.046Zm1.259-7.243v-1.365h1.142v1.365h-1.142Zm0 8.305v-7.005h1.142v7.005h-1.142Zm2.592-3.503c0-1.297.347-2.258 1.041-2.882.579-.519 1.286-.778 2.119-.778.926 0 1.684.316 2.272.949.588.629.882 1.5.882 2.613 0 .901-.132 1.611-.394 2.13a2.797 2.797 0 0 1-1.136 1.201 3.197 3.197 0 0 1-1.624.428c-.943 0-1.707-.314-2.291-.943-.579-.629-.869-1.535-.869-2.718Zm1.174 0c0 .898.188 1.57.565 2.019.376.444.85.666 1.421.666.567 0 1.038-.224 1.415-.673.376-.448.565-1.132.565-2.051 0-.866-.191-1.522-.571-1.966-.377-.448-.846-.673-1.409-.673-.571 0-1.045.222-1.421.667-.377.444-.565 1.114-.565 2.011Zm6.615 3.503v-7.005h1.028v.996c.495-.77 1.21-1.154 2.144-1.154.406 0 .779.076 1.117.23.343.15.599.348.768.594.169.246.288.539.355.877.043.22.064.605.064 1.155v4.307h-1.142v-4.261c0-.484-.045-.844-.134-1.082a1.108 1.108 0 0 0-.476-.574 1.426 1.426 0 0 0-.793-.217c-.486 0-.907.16-1.262.481-.352.321-.527.93-.527 1.827v3.826h-1.142Zm6.906-2.091 1.13-.185c.063.471.239.832.527 1.082.291.251.698.376 1.218.376.524 0 .914-.11 1.167-.33.254-.224.381-.486.381-.785a.728.728 0 0 0-.336-.633c-.157-.105-.546-.24-1.168-.402-.837-.22-1.419-.409-1.745-.568a1.755 1.755 0 0 1-.736-.666 1.852 1.852 0 0 1-.247-.943c0-.312.067-.6.203-.864a1.92 1.92 0 0 1 .565-.666c.177-.137.418-.251.723-.343.309-.097.639-.145.99-.145.529 0 .992.079 1.389.237.402.158.698.374.889.646.19.269.321.629.393 1.082l-1.117.159c-.05-.361-.198-.643-.444-.845-.241-.202-.584-.303-1.028-.303-.524 0-.899.09-1.123.27-.224.181-.336.392-.336.633 0 .154.046.293.139.416.094.128.239.233.438.317.115.044.451.145 1.009.303.808.224 1.371.409 1.688.554.322.141.573.348.755.62.182.273.273.611.273 1.016 0 .396-.112.77-.336 1.121-.22.348-.54.618-.958.812a3.422 3.422 0 0 1-1.422.283c-.875 0-1.544-.189-2.005-.567-.457-.378-.749-.939-.876-1.682ZM94.467 316.274 92 307h1.262l1.414 6.079c.152.637.283 1.269.393 1.898.237-.991.376-1.563.418-1.714l1.77-6.263h1.483l1.332 4.694c.334 1.164.575 2.258.723 3.283a45.18 45.18 0 0 1 .463-2.018l1.458-5.959h1.237l-2.549 9.274h-1.186l-1.96-7.066a30.21 30.21 0 0 1-.291-1.088c-.097.426-.188.788-.273 1.088l-1.972 7.066h-1.255Zm10.37 0v-6.718h1.027v1.018c.262-.476.503-.791.723-.942.224-.152.469-.228.736-.228.384 0 .775.122 1.173.367l-.393 1.056a1.64 1.64 0 0 0-.837-.247c-.25 0-.474.076-.672.228a1.195 1.195 0 0 0-.425.62 4.42 4.42 0 0 0-.191 1.328v3.518h-1.141Zm4.473-7.965V307h1.142v1.309h-1.142Zm0 7.965v-6.718h1.142v6.718h-1.142Zm5.507-1.019.165 1.006a4.267 4.267 0 0 1-.862.101c-.414 0-.736-.065-.964-.196a1.104 1.104 0 0 1-.482-.512c-.093-.215-.139-.665-.139-1.348v-3.865h-.837v-.885h.837v-1.664l1.135-.683v2.347h1.147v.885h-1.147v3.929c0 .324.019.533.057.626a.499.499 0 0 0 .196.221.777.777 0 0 0 .393.082c.127 0 .294-.014.501-.044Zm5.862-1.145 1.18.146c-.186.687-.531 1.221-1.034 1.6-.503.38-1.145.569-1.927.569-.985 0-1.767-.301-2.346-.904-.575-.607-.863-1.457-.863-2.549 0-1.131.292-2.008.875-2.632.584-.624 1.34-.936 2.27-.936.901 0 1.636.306 2.207.917.571.612.856 1.472.856 2.581 0 .067-.002.169-.006.304h-5.022c.042.738.251 1.303.627 1.695.377.392.846.588 1.408.588.419 0 .776-.109 1.072-.329.296-.219.53-.569.703-1.05Zm-3.747-1.841h3.76c-.051-.565-.194-.989-.431-1.271a1.75 1.75 0 0 0-1.414-.658c-.524 0-.966.175-1.325.525-.355.35-.552.818-.59 1.404Zm6.052 1.221v-1.145h3.507v1.145h-3.507Zm7.39 1.765.165 1.006a4.267 4.267 0 0 1-.862.101c-.414 0-.736-.065-.964-.196a1.104 1.104 0 0 1-.482-.512c-.093-.215-.139-.665-.139-1.348v-3.865h-.837v-.885h.837v-1.664l1.135-.683v2.347h1.147v.885h-1.147v3.929c0 .324.019.533.057.626a.499.499 0 0 0 .196.221c.093.055.224.082.394.082.126 0 .293-.014.5-.044Zm1.253 1.019V307h1.141v3.327c.533-.615 1.205-.923 2.016-.923.499 0 .933.099 1.3.297a1.7 1.7 0 0 1 .787.81c.16.346.241.847.241 1.505v4.258h-1.142v-4.258c0-.569-.124-.982-.374-1.24-.245-.261-.594-.392-1.046-.392a1.86 1.86 0 0 0-.958.266 1.473 1.473 0 0 0-.634.708c-.127.3-.19.713-.19 1.24v3.676h-1.141Zm7.346 0v-6.718H140v1.018c.262-.476.503-.791.723-.942.224-.152.469-.228.735-.228.385 0 .776.122 1.173.367l-.393 1.056a1.64 1.64 0 0 0-.837-.247 1.08 1.08 0 0 0-.672.228 1.2 1.2 0 0 0-.425.62c-.127.405-.19.848-.19 1.328v3.518h-1.141Zm4.042-3.359c0-1.244.346-2.166 1.04-2.765.579-.497 1.285-.746 2.118-.746.925 0 1.682.303 2.27.911.587.603.881 1.438.881 2.505 0 .864-.131 1.545-.393 2.043a2.738 2.738 0 0 1-1.135 1.151 3.296 3.296 0 0 1-1.623.411c-.943 0-1.706-.301-2.29-.904-.579-.603-.868-1.472-.868-2.606Zm1.173 0c0 .86.188 1.505.564 1.935.376.426.85.639 1.421.639.566 0 1.037-.215 1.414-.645.376-.43.564-1.086.564-1.967 0-.831-.19-1.459-.571-1.885a1.79 1.79 0 0 0-1.407-.646c-.571 0-1.045.213-1.421.639-.376.426-.564 1.069-.564 1.93Zm11.023 3.359v-.987c-.524.759-1.236 1.138-2.137 1.138-.397 0-.769-.076-1.116-.227-.342-.152-.598-.342-.767-.57a2.202 2.202 0 0 1-.349-.847c-.046-.224-.069-.578-.069-1.063v-4.162h1.141v3.725c0 .595.023.996.07 1.202.072.3.224.536.456.709.233.169.52.253.863.253.342 0 .663-.087.964-.259.3-.178.511-.416.634-.715.126-.304.19-.742.19-1.316v-3.599h1.141v6.718h-1.021Zm2.736.556 1.11.165c.047.341.175.59.387.746.283.211.67.316 1.16.316.529 0 .937-.105 1.224-.316.287-.211.482-.506.583-.885.06-.232.087-.719.083-1.462-.499.586-1.12.88-1.864.88-.926 0-1.643-.334-2.15-1-.507-.666-.761-1.465-.761-2.397 0-.641.116-1.232.349-1.772.232-.544.568-.963 1.008-1.258.444-.296.964-.443 1.56-.443.795 0 1.45.32 1.966.961v-.809h1.052v5.807c0 1.046-.108 1.786-.323 2.22-.212.439-.55.784-1.015 1.037-.461.253-1.029.38-1.705.38-.804 0-1.453-.181-1.947-.544-.495-.358-.734-.9-.717-1.626Zm.945-4.036c0 .882.176 1.525.526 1.93.351.405.791.607 1.319.607.525 0 .964-.2 1.319-.601.355-.405.533-1.037.533-1.898 0-.822-.184-1.442-.552-1.859-.363-.418-.803-.627-1.319-.627-.507 0-.938.207-1.293.62-.355.409-.533 1.019-.533 1.828Zm6.623 3.48V307h1.141v3.327c.533-.615 1.205-.923 2.017-.923.499 0 .932.099 1.3.297.368.194.63.464.786.81.161.346.241.847.241 1.505v4.258h-1.141v-4.258c0-.569-.125-.982-.374-1.24-.246-.261-.594-.392-1.047-.392-.338 0-.657.089-.957.266a1.473 1.473 0 0 0-.634.708c-.127.3-.191.713-.191 1.24v3.676h-1.141Zm301.485 0V307h4.122c.828 0 1.458.084 1.889.253.432.165.776.458 1.034.879.258.422.387.888.387 1.398 0 .658-.214 1.213-.641 1.664-.427.451-1.086.738-1.978.86.325.156.573.31.742.462.359.329.7.74 1.021 1.234l1.617 2.524h-1.547l-1.231-1.93a18.03 18.03 0 0 0-.887-1.278c-.233-.295-.442-.501-.628-.62a1.805 1.805 0 0 0-.558-.246c-.14-.03-.368-.044-.685-.044h-1.427v4.118H467Zm1.23-5.181h2.644c.563 0 1.002-.057 1.319-.171.317-.118.558-.304.723-.557.165-.257.248-.535.248-.835 0-.438-.161-.799-.482-1.081-.317-.283-.82-.424-1.51-.424h-2.942v3.068Zm12.73 3.017 1.179.146c-.186.687-.53 1.221-1.033 1.6-.503.38-1.146.569-1.928.569-.985 0-1.767-.301-2.346-.904-.575-.607-.863-1.457-.863-2.549 0-1.131.292-2.008.876-2.632.583-.624 1.34-.936 2.27-.936.9 0 1.636.306 2.206.917.571.612.856 1.472.856 2.581 0 .067-.002.169-.006.304h-5.022c.042.738.251 1.303.628 1.695.376.392.845.588 1.407.588.419 0 .776-.109 1.072-.329.296-.219.531-.569.704-1.05Zm-3.748-1.841h3.761c-.051-.565-.195-.989-.432-1.271-.363-.439-.834-.658-1.414-.658-.524 0-.966.175-1.325.525-.355.35-.552.818-.59 1.404Zm10.891 3.176c-.423.358-.831.611-1.224.759a3.498 3.498 0 0 1-1.255.221c-.74 0-1.309-.179-1.706-.537-.397-.363-.596-.825-.596-1.386 0-.329.074-.628.222-.898.152-.274.349-.493.59-.658.245-.164.52-.289.824-.373a8.193 8.193 0 0 1 1.015-.171c.921-.109 1.6-.24 2.035-.392a15.9 15.9 0 0 0 .006-.297c0-.464-.107-.791-.323-.981-.292-.257-.725-.386-1.3-.386-.537 0-.934.095-1.192.285-.254.186-.442.517-.564.993l-1.117-.152c.102-.476.269-.86.501-1.151.233-.295.569-.521 1.009-.677.439-.16.949-.24 1.528-.24.575 0 1.042.067 1.401.202.36.135.624.306.793.513.169.202.287.459.355.771.038.194.057.544.057 1.05v1.519c0 1.058.023 1.729.07 2.011.051.279.148.546.292.804h-1.193a2.431 2.431 0 0 1-.228-.829Zm-.095-2.543c-.414.169-1.036.312-1.864.43-.47.068-.801.143-.996.228a.989.989 0 0 0-.609.911c0 .303.115.556.343.759.232.202.571.303 1.014.303.44 0 .831-.094 1.174-.284.342-.194.593-.458.754-.791.123-.257.184-.637.184-1.139v-.417Zm7.429 3.372v-.848c-.427.666-1.055.999-1.884.999a2.663 2.663 0 0 1-1.484-.442 2.959 2.959 0 0 1-1.046-1.234c-.245-.531-.368-1.141-.368-1.828 0-.671.112-1.278.336-1.822.224-.548.561-.968 1.009-1.259a2.7 2.7 0 0 1 1.503-.436c.405 0 .767.086 1.084.259.317.169.575.39.773.664V307h1.136v9.274h-1.059Zm-3.609-3.353c0 .86.182 1.503.546 1.929.363.426.792.639 1.287.639.499 0 .922-.202 1.268-.607.351-.409.527-1.031.527-1.866 0-.92-.178-1.594-.533-2.024-.355-.431-.793-.646-1.313-.646-.507 0-.932.207-1.274.62-.338.414-.508 1.065-.508 1.955Zm6.154.569v-1.145h3.507v1.145h-3.507Zm7.391 1.765.165 1.006a4.276 4.276 0 0 1-.863.101c-.414 0-.735-.065-.963-.196a1.099 1.099 0 0 1-.482-.512c-.093-.215-.14-.665-.14-1.348v-3.865h-.837v-.885h.837v-1.664l1.135-.683v2.347h1.148v.885h-1.148v3.929c0 .324.019.533.057.626a.501.501 0 0 0 .197.221.777.777 0 0 0 .393.082c.127 0 .294-.014.501-.044Zm1.252 1.019V307h1.142v3.327a2.552 2.552 0 0 1 2.016-.923c.499 0 .932.099 1.3.297.368.194.63.464.786.81.161.346.241.847.241 1.505v4.258h-1.141v-4.258c0-.569-.125-.982-.374-1.24-.245-.261-.594-.392-1.047-.392-.338 0-.657.089-.957.266a1.473 1.473 0 0 0-.634.708c-.127.3-.19.713-.19 1.24v3.676h-1.142Zm7.346 0v-6.718h1.028v1.018c.262-.476.503-.791.722-.942.225-.152.47-.228.736-.228.385 0 .776.122 1.173.367l-.393 1.056a1.64 1.64 0 0 0-.837-.247c-.249 0-.474.076-.672.228a1.195 1.195 0 0 0-.425.62c-.127.405-.19.848-.19 1.328v3.518h-1.142Zm4.043-3.359c0-1.244.346-2.166 1.04-2.765.579-.497 1.285-.746 2.118-.746.925 0 1.682.303 2.27.911.587.603.881 1.438.881 2.505 0 .864-.131 1.545-.393 2.043a2.738 2.738 0 0 1-1.135 1.151 3.296 3.296 0 0 1-1.623.411c-.943 0-1.706-.301-2.29-.904-.579-.603-.868-1.472-.868-2.606Zm1.173 0c0 .86.188 1.505.564 1.935.376.426.85.639 1.421.639.566 0 1.037-.215 1.414-.645.376-.43.564-1.086.564-1.967 0-.831-.19-1.459-.571-1.885a1.79 1.79 0 0 0-1.407-.646c-.571 0-1.045.213-1.421.639-.376.426-.564 1.069-.564 1.93Zm11.024 3.359v-.987c-.524.759-1.237 1.138-2.137 1.138a2.76 2.76 0 0 1-1.116-.227c-.343-.152-.598-.342-.768-.57a2.201 2.201 0 0 1-.348-.847c-.047-.224-.07-.578-.07-1.063v-4.162h1.141v3.725c0 .595.024.996.07 1.202.072.3.224.536.457.709.232.169.52.253.862.253.342 0 .664-.087.964-.259.3-.178.511-.416.634-.715.127-.304.19-.742.19-1.316v-3.599h1.142v6.718h-1.021Zm2.736.556 1.11.165c.046.341.175.59.386.746.284.211.67.316 1.161.316.528 0 .936-.105 1.224-.316.287-.211.482-.506.583-.885.059-.232.087-.719.082-1.462-.498.586-1.12.88-1.864.88-.926 0-1.642-.334-2.15-1-.507-.666-.76-1.465-.76-2.397 0-.641.116-1.232.348-1.772.233-.544.569-.963 1.009-1.258.443-.296.963-.443 1.559-.443.795 0 1.451.32 1.966.961v-.809h1.053v5.807c0 1.046-.108 1.786-.324 2.22-.211.439-.549.784-1.014 1.037-.461.253-1.029.38-1.706.38-.803 0-1.452-.181-1.947-.544-.494-.358-.733-.9-.716-1.626Zm.945-4.036c0 .882.175 1.525.526 1.93.351.405.791.607 1.319.607.524 0 .964-.2 1.319-.601.355-.405.533-1.037.533-1.898 0-.822-.184-1.442-.552-1.859-.364-.418-.803-.627-1.319-.627-.507 0-.939.207-1.294.62-.355.409-.532 1.019-.532 1.828Zm6.623 3.48V307h1.141v3.327c.533-.615 1.205-.923 2.017-.923.499 0 .932.099 1.3.297.368.194.63.464.786.81.161.346.241.847.241 1.505v4.258h-1.141v-4.258c0-.569-.125-.982-.375-1.24-.245-.261-.593-.392-1.046-.392-.338 0-.657.089-.957.266a1.468 1.468 0 0 0-.634.708c-.127.3-.191.713-.191 1.24v3.676h-1.141Z" fill="#9C9C9C"/></svg>