<svg width="48" height="48" fill="none" xmlns="http://www.w3.org/2000/svg"><path fill="#F6F6F6" d="M0 0h48v48H0z"/><path d="M0 2.88A2.88 2.88 0 0 1 2.88 0h11.895a2.88 2.88 0 0 1 2.88 2.88v8.422a2.88 2.88 0 0 1-2.88 2.88H2.88A2.88 2.88 0 0 1 0 11.302V2.88Z" fill="#fff"/><path fill-rule="evenodd" clip-rule="evenodd" d="M14.775 1.92H2.88a.96.96 0 0 0-.96.96v8.422c0 .53.43.96.96.96h11.895c.53 0 .96-.43.96-.96V2.88a.96.96 0 0 0-.96-.96ZM2.88 0A2.88 2.88 0 0 0 0 2.88v8.422a2.88 2.88 0 0 0 2.88 2.88h11.895a2.88 2.88 0 0 0 2.88-2.88V2.88A2.88 2.88 0 0 0 14.775 0H2.88Z" fill="#000"/><path d="M19.862 2.88A2.88 2.88 0 0 1 22.742 0H45.12A2.88 2.88 0 0 1 48 2.88v8.422a2.88 2.88 0 0 1-2.88 2.88H22.742a2.88 2.88 0 0 1-2.88-2.88V2.88Z" fill="#fff"/><path fill-rule="evenodd" clip-rule="evenodd" d="M45.12 1.92H22.742a.96.96 0 0 0-.96.96v8.422c0 .53.43.96.96.96H45.12c.53 0 .96-.43.96-.96V2.88a.96.96 0 0 0-.96-.96ZM22.742 0a2.88 2.88 0 0 0-2.88 2.88v8.422a2.88 2.88 0 0 0 2.88 2.88H45.12a2.88 2.88 0 0 0 2.88-2.88V2.88A2.88 2.88 0 0 0 45.12 0H22.742Z" fill="#000"/><path d="M0 19.79a2.88 2.88 0 0 1 2.88-2.88h11.895a2.88 2.88 0 0 1 2.88 2.88v8.42a2.88 2.88 0 0 1-2.88 2.88H2.88A2.88 2.88 0 0 1 0 28.21v-8.42Z" fill="#fff"/><path fill-rule="evenodd" clip-rule="evenodd" d="M14.775 18.83H2.88a.96.96 0 0 0-.96.96v8.42c0 .531.43.96.96.96h11.895a.96.96 0 0 0 .96-.96v-8.42a.96.96 0 0 0-.96-.96ZM2.88 16.91A2.88 2.88 0 0 0 0 19.79v8.42a2.88 2.88 0 0 0 2.88 2.88h11.895a2.88 2.88 0 0 0 2.88-2.88v-8.42a2.88 2.88 0 0 0-2.88-2.88H2.88Z" fill="#000"/><path d="M19.862 19.789a2.88 2.88 0 0 1 2.88-2.88H45.12a2.88 2.88 0 0 1 2.88 2.88v8.422a2.88 2.88 0 0 1-2.88 2.88H22.742a2.88 2.88 0 0 1-2.88-2.88v-8.422Z" fill="#fff"/><path fill-rule="evenodd" clip-rule="evenodd" d="M45.12 18.829H22.742a.96.96 0 0 0-.96.96v8.422c0 .53.43.96.96.96H45.12c.53 0 .96-.43.96-.96v-8.422a.96.96 0 0 0-.96-.96Zm-22.378-1.92a2.88 2.88 0 0 0-2.88 2.88v8.422a2.88 2.88 0 0 0 2.88 2.88H45.12A2.88 2.88 0 0 0 48 28.21v-8.422a2.88 2.88 0 0 0-2.88-2.88H22.742Z" fill="#000"/><path d="M0 36.698a2.88 2.88 0 0 1 2.88-2.88h11.895a2.88 2.88 0 0 1 2.88 2.88v8.422a2.88 2.88 0 0 1-2.88 2.88H2.88A2.88 2.88 0 0 1 0 45.12v-8.422Z" fill="#fff"/><path fill-rule="evenodd" clip-rule="evenodd" d="M14.775 35.738H2.88a.96.96 0 0 0-.96.96v8.422c0 .53.43.96.96.96h11.895c.53 0 .96-.43.96-.96v-8.422a.96.96 0 0 0-.96-.96ZM2.88 33.818A2.88 2.88 0 0 0 0 36.698v8.422A2.88 2.88 0 0 0 2.88 48h11.895a2.88 2.88 0 0 0 2.88-2.88v-8.422a2.88 2.88 0 0 0-2.88-2.88H2.88Z" fill="#000"/><path fill-rule="evenodd" clip-rule="evenodd" d="M10.841 4.691h20.8v4.8h-20.8v-4.8Z" fill="#FDFDFD"/><path fill-rule="evenodd" clip-rule="evenodd" d="M11.178 6.131h17.92v1.92h-17.92v-1.92Z" fill="#F41921"/><path fill-rule="evenodd" clip-rule="evenodd" d="m27.495 2.473 3.503 4.618-3.503 4.618-1.53-1.16 2.623-3.458-2.623-3.457 1.53-1.16Z" fill="#F41921"/><path fill-rule="evenodd" clip-rule="evenodd" d="M10.841 21.6h20.8v4.8h-20.8v-4.8Z" fill="#FDFDFD"/><path fill-rule="evenodd" clip-rule="evenodd" d="M11.178 23.04h17.92v1.92h-17.92v-1.92Z" fill="#F41921"/><path fill-rule="evenodd" clip-rule="evenodd" d="M27.495 19.382 30.998 24l-3.503 4.618-1.53-1.16L28.588 24l-2.623-3.457 1.53-1.16Z" fill="#F41921"/><path d="M19.862 36.698a2.88 2.88 0 0 1 2.88-2.88H45.12a2.88 2.88 0 0 1 2.88 2.88v8.422A2.88 2.88 0 0 1 45.12 48H22.742a2.88 2.88 0 0 1-2.88-2.88v-8.422Z" fill="#fff"/><path fill-rule="evenodd" clip-rule="evenodd" d="M45.12 35.738H22.742a.96.96 0 0 0-.96.96v8.422c0 .53.43.96.96.96H45.12c.53 0 .96-.43.96-.96v-8.422a.96.96 0 0 0-.96-.96Zm-22.378-1.92a2.88 2.88 0 0 0-2.88 2.88v8.422a2.88 2.88 0 0 0 2.88 2.88H45.12A2.88 2.88 0 0 0 48 45.12v-8.422a2.88 2.88 0 0 0-2.88-2.88H22.742Z" fill="#000"/><path fill-rule="evenodd" clip-rule="evenodd" d="M10.841 38.51h20.8v4.8h-20.8v-4.8Z" fill="#FDFDFD"/><path fill-rule="evenodd" clip-rule="evenodd" d="M11.178 39.95h17.92v1.92h-17.92v-1.92Z" fill="#F41921"/><path fill-rule="evenodd" clip-rule="evenodd" d="m27.495 36.291 3.503 4.618-3.503 4.618-1.53-1.16 2.623-3.458-2.623-3.457 1.53-1.16Z" fill="#F41921"/></svg>