<svg width="443" height="123" viewBox="0 0 443 123" fill="none" xmlns="http://www.w3.org/2000/svg">
<path d="M359.51 85.9057V17.6379C359.51 17.6379 367.743 24.5006 393.335 24.5006C418.928 24.5006 428.052 16.8536 428.052 16.8536V85.9057C428.052 85.9057 424.367 94.2911 393.335 94.6136C362.304 94.936 359.51 85.9057 359.51 85.9057Z" fill="white"/>
<path d="M428.849 15.4834C428.849 21.5752 413.32 26.5136 393.755 26.5136C374.19 26.5136 358.661 21.5752 358.661 15.4834C358.661 9.39166 374.19 4.45331 393.755 4.45331C413.32 4.45331 428.849 9.39166 428.849 15.4834Z" fill="white"/>
<path fill-rule="evenodd" clip-rule="evenodd" d="M425.246 18.6274C426.85 17.4263 427.402 16.3493 427.402 15.4834C427.402 14.6176 426.85 13.5405 425.246 12.3395C423.667 11.156 421.285 10.0283 418.201 9.0557C412.051 7.11573 403.433 5.89238 393.755 5.89238C384.077 5.89238 375.458 7.11573 369.308 9.0557C366.225 10.0283 363.843 11.156 362.263 12.3395C360.66 13.5405 360.107 14.6176 360.107 15.4834C360.107 16.3493 360.66 17.4263 362.263 18.6274C363.843 19.8109 366.225 20.9386 369.308 21.9112C375.458 23.8511 384.077 25.0745 393.755 25.0745C403.433 25.0745 412.051 23.8511 418.201 21.9112C421.285 20.9386 423.667 19.8109 425.246 18.6274ZM393.755 26.5136C413.32 26.5136 428.849 21.5752 428.849 15.4834C428.849 9.39166 413.32 4.45331 393.755 4.45331C374.19 4.45331 358.661 9.39166 358.661 15.4834C358.661 21.5752 374.19 26.5136 393.755 26.5136Z" fill="#ED1C24"/>
<path fill-rule="evenodd" clip-rule="evenodd" d="M358.607 84.1891L358.607 16.0743L360.054 16.0743L360.054 84.1891L358.607 84.1891Z" fill="#ED1C24"/>
<path fill-rule="evenodd" clip-rule="evenodd" d="M427.463 84.26L427.542 15.0746L428.989 15.0762L428.91 84.2616L427.463 84.26Z" fill="#ED1C24"/>
<path fill-rule="evenodd" clip-rule="evenodd" d="M369.626 90.9925C375.769 92.8828 384.299 94.063 393.752 94.063C403.206 94.063 411.736 92.8828 417.879 90.9925C420.954 90.0459 423.391 88.9336 425.042 87.7319C426.709 86.5191 427.451 85.3132 427.451 84.1893H428.898C428.898 85.9906 427.713 87.5714 425.897 88.8934C424.064 90.2264 421.46 91.3967 418.306 92.3672C411.991 94.3109 403.31 95.5021 393.752 95.5021C384.195 95.5021 375.514 94.3109 369.199 92.3672C366.045 91.3967 363.44 90.2264 361.608 88.8934C359.791 87.5714 358.607 85.9906 358.607 84.1893H360.054C360.054 85.3132 360.796 86.5191 362.463 87.7319C364.114 88.9336 366.551 90.0459 369.626 90.9925Z" fill="#ED1C24"/>
<path fill-rule="evenodd" clip-rule="evenodd" d="M369.626 44.7566C375.769 46.6469 384.299 47.8271 393.752 47.8271C403.206 47.8271 411.736 46.6469 417.879 44.7566C420.954 43.81 423.391 42.6977 425.042 41.496C426.709 40.2832 427.451 39.0773 427.451 37.9534H428.898C428.898 39.7547 427.713 41.3355 425.897 42.6575C424.064 43.9905 421.46 45.1608 418.306 46.1313C411.991 48.075 403.31 49.2662 393.752 49.2662C384.195 49.2662 375.514 48.075 369.199 46.1313C366.045 45.1608 363.44 43.9905 361.608 42.6575C359.791 41.3355 358.607 39.7547 358.607 37.9534H360.054C360.054 39.0773 360.796 40.2832 362.463 41.496C364.114 42.6977 366.551 43.81 369.626 44.7566Z" fill="#ED1C24"/>
<path fill-rule="evenodd" clip-rule="evenodd" d="M369.626 68.0339C375.769 69.9243 384.299 71.1044 393.752 71.1044C403.206 71.1044 411.736 69.9243 417.879 68.0339C420.954 67.0874 423.391 65.9751 425.042 64.7734C426.709 63.5606 427.451 62.3546 427.451 61.2307H428.898C428.898 63.032 427.713 64.6129 425.897 65.9348C424.064 67.2678 421.46 68.4382 418.306 69.4087C411.991 71.3523 403.31 72.5435 393.752 72.5435C384.195 72.5435 375.514 71.3523 369.199 69.4087C366.045 68.4382 363.44 67.2678 361.608 65.9348C359.791 64.6129 358.607 63.032 358.607 61.2307H360.054C360.054 62.3546 360.796 63.5606 362.463 64.7734C364.114 65.9751 366.551 67.0874 369.626 68.0339Z" fill="#ED1C24"/>
<path d="M42.5189 61.5355L85.0608 72.7203L85.0608 11.9333L42.5189 0.748509L0.723447 13.6731L0.723457 74.2077L42.5189 61.5355Z" fill="white"/>
<path fill-rule="evenodd" clip-rule="evenodd" d="M0 75.1792L-9.79993e-06 13.1433L42.5027 -1.9018e-05L85.7842 11.3792L85.7842 73.6547L42.533 62.2834L0 75.1792ZM1.44691 73.2361L42.5048 60.7875L84.3373 71.7858L84.3373 12.4873L42.5351 1.49699L1.4469 14.2029L1.44691 73.2361Z" fill="#2D2D2D"/>
<path d="M43.2654 25.3197L0.723572 14.135L0.723601 88.2592L43.2654 99.444L85.0609 86.5194L85.0609 12.6476L43.2654 25.3197Z" fill="white"/>
<path fill-rule="evenodd" clip-rule="evenodd" d="M85.7844 11.676L85.7844 87.0491L43.2816 100.192L0.000151824 88.8132L0.00012207 13.2005L43.2513 24.5717L85.7844 11.676ZM84.3374 13.6191L43.2795 26.0677L1.44704 15.0694L1.44707 87.7051L43.2492 98.6954L84.3375 85.9895L84.3374 13.6191Z" fill="#2D2D2D"/>
<path fill-rule="evenodd" clip-rule="evenodd" d="M41.9193 98.2045L41.9192 25.2002L43.3661 25.2002L43.3662 98.2045L41.9193 98.2045Z" fill="#2D2D2D"/>
<rect x="191.245" y="3.26062" width="96.8025" height="96.1729" rx="48.0865" fill="#ED1C24"/>
<path d="M230.973 34.2958C230.973 34.2958 208.784 47.7153 229.696 61.0398C233.718 63.6351 248.309 70.8512 247.894 77.5293C247.894 77.5293 256.737 64.5529 243.807 56.3873C230.526 48.0318 227.205 39.1066 230.973 34.2958Z" fill="white"/>
<path d="M223.246 59.932C223.246 59.932 215.329 71.8323 230.909 74.2693C232.441 74.4592 243.711 75.6302 246.649 79.3016C246.649 79.3016 246.393 72.9717 237.198 69.237C228.035 65.5023 224.268 64.5845 223.246 59.932Z" fill="white"/>
<path d="M253.896 47.4304C244.382 37.5557 241.732 31.4473 245.818 23.5349C245.818 23.5349 217.436 34.3591 245.467 53.5704C255.492 60.4384 253.832 67.4646 253.832 67.7178C255.396 66.1037 263.41 57.3051 253.896 47.4304Z" fill="white"/>
<rect x="68.6693" y="79.8" width="28.9485" height="28.7602" rx="14.3801" fill="#ED1C24"/>
<path d="M80.5497 89.081C80.5497 89.081 73.9141 93.094 80.1678 97.0787C81.3708 97.8548 85.734 100.013 85.6099 102.01C85.6099 102.01 88.2545 98.1293 84.3878 95.6874C80.416 93.1887 79.4231 90.5196 80.5497 89.081Z" fill="white"/>
<path d="M78.2391 96.7474C78.2391 96.7474 75.8713 100.306 80.5305 101.035C80.9888 101.092 84.3591 101.442 85.2375 102.54C85.2375 102.54 85.1611 100.647 82.4114 99.53C79.6713 98.4132 78.5446 98.1387 78.2391 96.7474Z" fill="white"/>
<path d="M87.4048 93.0088C84.5596 90.0559 83.7672 88.2292 84.9893 85.863C84.9893 85.863 76.5015 89.0999 84.8842 94.845C87.8822 96.8989 87.3857 99 87.3857 99.0757C87.8535 98.593 90.2499 95.9618 87.4048 93.0088Z" fill="white"/>
<path fill-rule="evenodd" clip-rule="evenodd" d="M176.017 44.1325L180.621 48.7117C180.904 48.9927 180.904 49.4482 180.621 49.7292L176.017 54.3083C175.734 54.5893 175.276 54.5893 174.994 54.3083C174.711 54.0273 174.711 53.5718 174.994 53.2908L178.363 49.94L93.5677 49.94C93.1681 49.94 92.8442 49.6178 92.8442 49.2204C92.8442 48.823 93.1681 48.5009 93.5677 48.5009L178.363 48.5009L174.994 45.1501C174.711 44.8691 174.711 44.4135 174.994 44.1325C175.276 43.8515 175.734 43.8515 176.017 44.1325Z" fill="black"/>
<path fill-rule="evenodd" clip-rule="evenodd" d="M340.896 45.102L345.501 49.6811C345.783 49.9621 345.783 50.4177 345.501 50.6987L340.896 55.2778C340.614 55.5588 340.156 55.5588 339.873 55.2778C339.591 54.9968 339.591 54.5412 339.873 54.2602L343.242 50.9094H297.554C297.155 50.9094 296.831 50.5873 296.831 50.1899C296.831 49.7925 297.155 49.4703 297.554 49.4703H343.242L339.873 46.1196C339.591 45.8386 339.591 45.383 339.873 45.102C340.156 44.821 340.614 44.821 340.896 45.102Z" fill="black"/>
<path d="M7.92914 120.14L11.9067 109.839H13.3833L17.6223 120.14H16.061L14.8528 117.02H10.522L9.38453 120.14H7.92914ZM10.9176 115.91H14.4289L13.348 113.057C13.0183 112.191 12.7734 111.478 12.6132 110.921C12.4814 111.582 12.2953 112.237 12.0551 112.889L10.9176 115.91Z" fill="#2D2D2D"/>
<path d="M18.6996 123V112.678H19.8583V113.647C20.1314 113.268 20.44 112.985 20.7838 112.797C21.1276 112.605 21.5444 112.509 22.0343 112.509C22.6749 112.509 23.2401 112.673 23.7299 113.001C24.2197 113.329 24.5895 113.793 24.8391 114.392C25.0887 114.987 25.2135 115.641 25.2135 116.353C25.2135 117.116 25.0746 117.805 24.7967 118.419C24.5235 119.028 24.1232 119.496 23.5957 119.824C23.0728 120.147 22.5218 120.309 21.9424 120.309C21.5185 120.309 21.137 120.22 20.7979 120.042C20.4635 119.864 20.188 119.639 19.9713 119.367V123H18.6996ZM19.8512 116.451C19.8512 117.411 20.0467 118.121 20.4376 118.58C20.8285 119.039 21.3019 119.269 21.8577 119.269C22.4229 119.269 22.9056 119.032 23.306 118.559C23.7111 118.081 23.9136 117.343 23.9136 116.346C23.9136 115.395 23.7158 114.683 23.3201 114.21C22.9292 113.736 22.4605 113.5 21.9142 113.5C21.3725 113.5 20.8921 113.753 20.4729 114.259C20.0584 114.76 19.8512 115.491 19.8512 116.451Z" fill="#2D2D2D"/>
<path d="M26.8984 123V112.678H28.0571V113.647C28.3302 113.268 28.6388 112.985 28.9826 112.797C29.3264 112.605 29.7433 112.509 30.2331 112.509C30.8737 112.509 31.4389 112.673 31.9287 113.001C32.4185 113.329 32.7883 113.793 33.0379 114.392C33.2875 114.987 33.4123 115.641 33.4123 116.353C33.4123 117.116 33.2734 117.805 32.9955 118.419C32.7223 119.028 32.322 119.496 31.7945 119.824C31.2717 120.147 30.7206 120.309 30.1412 120.309C29.7173 120.309 29.3358 120.22 28.9967 120.042C28.6623 119.864 28.3868 119.639 28.1701 119.367V123H26.8984ZM28.05 116.451C28.05 117.411 28.2455 118.121 28.6364 118.58C29.0273 119.039 29.5007 119.269 30.0565 119.269C30.6217 119.269 31.1044 119.032 31.5048 118.559C31.9099 118.081 32.1124 117.343 32.1124 116.346C32.1124 115.395 31.9146 114.683 31.5189 114.21C31.128 113.736 30.6593 113.5 30.113 113.5C29.5713 113.5 29.0909 113.753 28.6717 114.259C28.2572 114.76 28.05 115.491 28.05 116.451Z" fill="#2D2D2D"/>
<path d="M35.0689 120.14V109.839H36.3407V120.14H35.0689Z" fill="#2D2D2D"/>
<path d="M38.4706 111.293V109.839H39.7423V111.293H38.4706ZM38.4706 120.14V112.678H39.7423V120.14H38.4706Z" fill="#2D2D2D"/>
<path d="M46.7259 117.407L47.9764 117.568C47.8399 118.426 47.489 119.098 46.9238 119.585C46.3633 120.068 45.6732 120.309 44.8537 120.309C43.8269 120.309 43.0003 119.976 42.3739 119.311C41.7522 118.641 41.4413 117.683 41.4413 116.437C41.4413 115.631 41.5755 114.926 41.844 114.322C42.1125 113.718 42.5199 113.266 43.0663 112.966C43.6173 112.661 44.2155 112.509 44.8608 112.509C45.6756 112.509 46.3421 112.715 46.8602 113.127C47.3783 113.535 47.7103 114.116 47.8563 114.87L46.62 115.06C46.5022 114.559 46.2926 114.181 45.9912 113.928C45.6944 113.676 45.3341 113.549 44.9102 113.549C44.2697 113.549 43.7492 113.779 43.3489 114.238C42.9485 114.692 42.7483 115.413 42.7483 116.402C42.7483 117.404 42.9414 118.133 43.3277 118.587C43.7139 119.042 44.2179 119.269 44.8396 119.269C45.3388 119.269 45.7557 119.117 46.0901 118.812C46.4245 118.508 46.6364 118.039 46.7259 117.407Z" fill="#2D2D2D"/>
<path d="M54.1052 119.22C53.6342 119.618 53.1797 119.899 52.7416 120.063C52.3083 120.227 51.842 120.309 51.3428 120.309C50.5185 120.309 49.885 120.11 49.4423 119.711C48.9995 119.309 48.7782 118.796 48.7782 118.173C48.7782 117.807 48.8606 117.475 49.0255 117.175C49.195 116.87 49.414 116.627 49.6825 116.444C49.9557 116.261 50.2618 116.123 50.601 116.029C50.8506 115.964 51.2274 115.901 51.7314 115.84C52.7581 115.718 53.5141 115.573 53.9992 115.404C54.0039 115.231 54.0063 115.121 54.0063 115.074C54.0063 114.559 53.8862 114.196 53.646 113.985C53.321 113.699 52.8382 113.556 52.1976 113.556C51.5995 113.556 51.1567 113.661 50.8694 113.872C50.5868 114.078 50.3772 114.446 50.2406 114.975L48.9972 114.807C49.1102 114.277 49.2963 113.851 49.5553 113.528C49.8144 113.2 50.1888 112.949 50.6787 112.776C51.1685 112.598 51.7361 112.509 52.3813 112.509C53.0219 112.509 53.5424 112.584 53.9427 112.734C54.3431 112.884 54.6374 113.074 54.8258 113.303C55.0142 113.528 55.1461 113.814 55.2215 114.16C55.2639 114.376 55.285 114.765 55.285 115.327V117.013C55.285 118.189 55.311 118.934 55.3628 119.248C55.4193 119.557 55.5276 119.854 55.6878 120.14H54.3595C54.2277 119.878 54.1429 119.571 54.1052 119.22ZM53.9992 116.395C53.5376 116.582 52.8453 116.742 51.9221 116.873C51.3993 116.948 51.0296 117.032 50.8129 117.126C50.5962 117.219 50.429 117.358 50.3113 117.54C50.1935 117.718 50.1347 117.917 50.1347 118.137C50.1347 118.475 50.2618 118.756 50.5162 118.981C50.7752 119.206 51.152 119.318 51.6466 119.318C52.1364 119.318 52.5721 119.213 52.9536 119.002C53.3351 118.786 53.6154 118.494 53.7943 118.123C53.9309 117.838 53.9992 117.416 53.9992 116.859V116.395Z" fill="#2D2D2D"/>
<path d="M60.1845 119.009L60.3682 120.126C60.0102 120.201 59.6899 120.238 59.4073 120.238C58.9458 120.238 58.5878 120.166 58.3335 120.021C58.0791 119.875 57.9001 119.686 57.7965 119.451C57.6929 119.213 57.6411 118.714 57.6411 117.955V113.661H56.7085V112.678H57.6411V110.83L58.9057 110.071V112.678H60.1845V113.661H58.9057V118.025C58.9057 118.386 58.9269 118.618 58.9693 118.721C59.0164 118.824 59.0894 118.906 59.1883 118.967C59.292 119.028 59.438 119.058 59.6264 119.058C59.7677 119.058 59.9537 119.042 60.1845 119.009Z" fill="#2D2D2D"/>
<path d="M61.5868 111.293V109.839H62.8585V111.293H61.5868ZM61.5868 120.14V112.678H62.8585V120.14H61.5868Z" fill="#2D2D2D"/>
<path d="M64.4727 116.409C64.4727 115.027 64.8589 114.003 65.6313 113.338C66.2766 112.785 67.0632 112.509 67.9911 112.509C69.0225 112.509 69.8656 112.846 70.5203 113.521C71.175 114.191 71.5024 115.118 71.5024 116.304C71.5024 117.264 71.3564 118.02 71.0643 118.573C70.777 119.121 70.3555 119.548 69.7997 119.852C69.2486 120.157 68.6457 120.309 67.9911 120.309C66.9407 120.309 66.0906 119.974 65.4406 119.304C64.7953 118.634 64.4727 117.669 64.4727 116.409ZM65.7797 116.409C65.7797 117.365 65.9893 118.081 66.4085 118.559C66.8277 119.032 67.3552 119.269 67.9911 119.269C68.6222 119.269 69.1474 119.03 69.5666 118.552C69.9857 118.074 70.1953 117.346 70.1953 116.367C70.1953 115.444 69.9834 114.746 69.5595 114.273C69.1403 113.795 68.6175 113.556 67.9911 113.556C67.3552 113.556 66.8277 113.793 66.4085 114.266C65.9893 114.739 65.7797 115.453 65.7797 116.409Z" fill="#2D2D2D"/>
<path d="M73.1448 120.14V112.678H74.2894V113.739C74.8404 112.919 75.6364 112.509 76.6773 112.509C77.1295 112.509 77.544 112.591 77.9208 112.755C78.3023 112.914 78.5872 113.125 78.7757 113.387C78.9641 113.65 79.0959 113.961 79.1713 114.322C79.2184 114.556 79.2419 114.966 79.2419 115.552V120.14H77.9702V115.601C77.9702 115.086 77.9208 114.701 77.8219 114.448C77.723 114.191 77.5463 113.987 77.292 113.837C77.0424 113.683 76.748 113.605 76.4089 113.605C75.8672 113.605 75.3986 113.776 75.0029 114.118C74.612 114.46 74.4165 115.109 74.4165 116.065V120.14H73.1448Z" fill="#2D2D2D"/>
<path d="M55.9141 78.0873V68.5042H57.2129L62.2386 76.0282V68.5042H63.4527V78.0873H62.1538L57.1281 70.5568V78.0873H55.9141Z" fill="#2D2D2D"/>
<path d="M70.1819 75.8517L71.3959 76.0021C71.2045 76.7124 70.8498 77.2637 70.332 77.6559C69.8142 78.0481 69.1528 78.2442 68.3478 78.2442C67.334 78.2442 66.529 77.9326 65.9329 77.3094C65.3411 76.6819 65.0452 75.8038 65.0452 74.6751C65.0452 73.5071 65.3455 72.6007 65.9459 71.9557C66.5464 71.3107 67.3253 70.9882 68.2826 70.9882C69.2094 70.9882 69.9665 71.3042 70.5539 71.9361C71.1414 72.568 71.4351 73.457 71.4351 74.6032C71.4351 74.6729 71.4329 74.7775 71.4285 74.9169H66.2592C66.3027 75.6796 66.5181 76.2635 66.9054 76.6688C67.2927 77.0741 67.7756 77.2767 68.3544 77.2767C68.7851 77.2767 69.1528 77.1634 69.4574 76.9368C69.762 76.7102 70.0035 76.3485 70.1819 75.8517ZM66.3245 73.9495H70.195C70.1427 73.3655 69.9948 72.9275 69.7511 72.6355C69.3769 72.1823 68.8918 71.9557 68.2956 71.9557C67.7561 71.9557 67.3014 72.1366 66.9315 72.4983C66.566 72.86 66.3637 73.3437 66.3245 73.9495Z" fill="#2D2D2D"/>
<path d="M77.4007 77.231C76.9655 77.6014 76.5456 77.8629 76.141 78.0154C75.7407 78.1679 75.3099 78.2442 74.8486 78.2442C74.0872 78.2442 73.5019 78.059 73.0929 77.6886C72.6839 77.3138 72.4794 76.8366 72.4794 76.257C72.4794 75.9171 72.5555 75.6077 72.7078 75.3287C72.8645 75.0455 73.0668 74.8189 73.3148 74.6489C73.5672 74.479 73.85 74.3504 74.1633 74.2632C74.3939 74.2022 74.742 74.1434 75.2076 74.0867C76.1562 73.9734 76.8546 73.8383 77.3028 73.6814C77.3071 73.5202 77.3093 73.4178 77.3093 73.3742C77.3093 72.8948 77.1983 72.5571 76.9764 72.361C76.6762 72.0952 76.2302 71.9622 75.6384 71.9622C75.0858 71.9622 74.6768 72.0603 74.4113 72.2564C74.1503 72.4481 73.9566 72.7902 73.8305 73.2827L72.6817 73.1258C72.7861 72.6334 72.958 72.2368 73.1973 71.9361C73.4367 71.631 73.7826 71.3979 74.2351 71.2366C74.6877 71.071 75.212 70.9882 75.8081 70.9882C76.3999 70.9882 76.8807 71.058 77.2506 71.1974C77.6204 71.3369 77.8924 71.5134 78.0664 71.7269C78.2405 71.9361 78.3623 72.2019 78.4319 72.5244C78.4711 72.7249 78.4907 73.0866 78.4907 73.6095V75.1784C78.4907 76.2722 78.5146 76.9652 78.5625 77.2571C78.6147 77.5448 78.7148 77.8215 78.8627 78.0873H77.6356C77.5138 77.8433 77.4355 77.5578 77.4007 77.231ZM77.3028 74.6032C76.8763 74.7775 76.2367 74.9256 75.3839 75.0477C74.9009 75.1174 74.5593 75.1958 74.3591 75.283C74.159 75.3701 74.0045 75.4987 73.8957 75.6687C73.7869 75.8343 73.7325 76.0195 73.7325 76.2243C73.7325 76.5381 73.85 76.7996 74.085 77.0087C74.3243 77.2179 74.6724 77.3225 75.1293 77.3225C75.5818 77.3225 75.9843 77.2245 76.3368 77.0283C76.6892 76.8279 76.9481 76.5555 77.1135 76.2112C77.2397 75.9454 77.3028 75.5532 77.3028 75.0346V74.6032Z" fill="#2D2D2D"/>
<path d="M80.3052 78.0873V71.1451H81.3625V72.1976C81.6323 71.7051 81.8803 71.3805 82.1066 71.2236C82.3372 71.0667 82.5896 70.9882 82.8637 70.9882C83.2597 70.9882 83.6622 71.1146 84.0712 71.3674L83.6665 72.459C83.3793 72.2891 83.0921 72.2041 82.805 72.2041C82.5482 72.2041 82.3176 72.2825 82.1131 72.4394C81.9086 72.592 81.7628 72.8055 81.6758 73.0801C81.5453 73.4984 81.48 73.956 81.48 74.4528V78.0873H80.3052Z" fill="#2D2D2D"/>
<path d="M93.0131 75.5445L94.1683 75.6948C94.0421 76.4923 93.718 77.1177 93.1958 77.5709C92.678 78.0198 92.0406 78.2442 91.2834 78.2442C90.3349 78.2442 89.5712 77.9348 88.9925 77.316C88.4181 76.6928 88.1309 75.8016 88.1309 74.6424C88.1309 73.8928 88.2549 73.2369 88.503 72.6748C88.751 72.1126 89.1274 71.692 89.6321 71.4131C90.1412 71.1299 90.6938 70.9882 91.29 70.9882C92.0427 70.9882 92.6584 71.18 93.1371 71.5635C93.6157 71.9426 93.9225 72.483 94.0574 73.1846L92.9152 73.3611C92.8064 72.8948 92.6127 72.544 92.3343 72.3087C92.0601 72.0734 91.7273 71.9557 91.3356 71.9557C90.7439 71.9557 90.2631 72.1692 89.8932 72.5963C89.5233 73.019 89.3384 73.6902 89.3384 74.6097C89.3384 75.5423 89.5168 76.2199 89.8736 76.6427C90.2304 77.0654 90.696 77.2767 91.2704 77.2767C91.7316 77.2767 92.1167 77.1351 92.4256 76.8518C92.7346 76.5686 92.9304 76.1328 93.0131 75.5445Z" fill="#2D2D2D"/>
<path d="M99.6966 77.231C99.2615 77.6014 98.8416 77.8629 98.4369 78.0154C98.0366 78.1679 97.6058 78.2442 97.1446 78.2442C96.3831 78.2442 95.7979 78.059 95.3889 77.6886C94.9798 77.3138 94.7753 76.8366 94.7753 76.257C94.7753 75.9171 94.8515 75.6077 95.0038 75.3287C95.1604 75.0455 95.3628 74.8189 95.6108 74.6489C95.8631 74.479 96.146 74.3504 96.4593 74.2632C96.6899 74.2022 97.038 74.1434 97.5036 74.0867C98.4522 73.9734 99.1505 73.8383 99.5987 73.6814C99.6031 73.5202 99.6052 73.4178 99.6052 73.3742C99.6052 72.8948 99.4943 72.5571 99.2724 72.361C98.9721 72.0952 98.5261 71.9622 97.9344 71.9622C97.3817 71.9622 96.9727 72.0603 96.7073 72.2564C96.4462 72.4481 96.2526 72.7902 96.1264 73.2827L94.9777 73.1258C95.0821 72.6334 95.254 72.2368 95.4933 71.9361C95.7326 71.631 96.0785 71.3979 96.5311 71.2366C96.9836 71.071 97.5079 70.9882 98.1041 70.9882C98.6958 70.9882 99.1766 71.058 99.5465 71.1974C99.9164 71.3369 100.188 71.5134 100.362 71.7269C100.536 71.9361 100.658 72.2019 100.728 72.5244C100.767 72.7249 100.787 73.0866 100.787 73.6095V75.1784C100.787 76.2722 100.811 76.9652 100.858 77.2571C100.911 77.5448 101.011 77.8215 101.159 78.0873H99.9316C99.8098 77.8433 99.7314 77.5578 99.6966 77.231ZM99.5987 74.6032C99.1723 74.7775 98.5327 74.9256 97.6798 75.0477C97.1968 75.1174 96.8552 75.1958 96.6551 75.283C96.4549 75.3701 96.3005 75.4987 96.1917 75.6687C96.0829 75.8343 96.0285 76.0195 96.0285 76.2243C96.0285 76.5381 96.146 76.7996 96.381 77.0087C96.6203 77.2179 96.9684 77.3225 97.4253 77.3225C97.8778 77.3225 98.2803 77.2245 98.6327 77.0283C98.9852 76.8279 99.2441 76.5555 99.4094 76.2112C99.5356 75.9454 99.5987 75.5532 99.5987 75.0346V74.6032Z" fill="#2D2D2D"/>
<path d="M102.144 76.0151L103.306 75.8321C103.371 76.2984 103.552 76.6557 103.848 76.9041C104.148 77.1525 104.566 77.2767 105.101 77.2767C105.64 77.2767 106.041 77.1678 106.302 76.9499C106.563 76.7276 106.693 76.4684 106.693 76.172C106.693 75.9062 106.578 75.697 106.348 75.5445C106.187 75.4399 105.786 75.307 105.147 75.1457C104.285 74.9278 103.687 74.7404 103.352 74.5835C103.021 74.4223 102.769 74.2022 102.595 73.9233C102.425 73.64 102.34 73.3285 102.34 72.9885C102.34 72.6791 102.41 72.3937 102.549 72.1322C102.692 71.8664 102.886 71.6463 103.13 71.472C103.313 71.3369 103.561 71.2236 103.874 71.1321C104.191 71.0362 104.531 70.9882 104.892 70.9882C105.436 70.9882 105.912 71.0667 106.321 71.2236C106.735 71.3805 107.039 71.594 107.235 71.8642C107.431 72.13 107.566 72.4874 107.64 72.9362L106.491 73.0931C106.439 72.7358 106.287 72.4569 106.034 72.2564C105.786 72.0559 105.434 71.9557 104.977 71.9557C104.437 71.9557 104.052 72.045 103.822 72.2237C103.591 72.4024 103.476 72.6116 103.476 72.8513C103.476 73.0038 103.524 73.1411 103.619 73.2631C103.715 73.3895 103.865 73.4941 104.07 73.5769C104.187 73.6204 104.533 73.7207 105.107 73.8776C105.939 74.0998 106.517 74.2828 106.844 74.4267C107.174 74.5661 107.433 74.7709 107.62 75.0411C107.807 75.3113 107.901 75.6469 107.901 76.0478C107.901 76.44 107.786 76.8104 107.555 77.1591C107.329 77.5034 107 77.7714 106.569 77.9631C106.139 78.1505 105.651 78.2442 105.107 78.2442C104.207 78.2442 103.519 78.0568 103.045 77.682C102.575 77.3073 102.275 76.7516 102.144 76.0151Z" fill="#2D2D2D"/>
<path d="M109.298 78.0873V68.5042H110.473V71.9426C111.021 71.3064 111.713 70.9882 112.548 70.9882C113.062 70.9882 113.508 71.0906 113.886 71.2955C114.265 71.4959 114.534 71.7748 114.695 72.1322C114.861 72.4895 114.944 73.0081 114.944 73.688V78.0873H113.769V73.688C113.769 73.0997 113.64 72.6726 113.384 72.4067C113.131 72.1366 112.772 72.0015 112.307 72.0015C111.959 72.0015 111.63 72.093 111.321 72.276C111.016 72.4547 110.799 72.6987 110.668 73.0081C110.538 73.3176 110.473 73.7446 110.473 74.2894V78.0873H109.298Z" fill="#2D2D2D"/>
<path d="M121.483 75.8517L122.697 76.0021C122.506 76.7124 122.151 77.2637 121.634 77.6559C121.116 78.0481 120.454 78.2442 119.649 78.2442C118.636 78.2442 117.831 77.9326 117.234 77.3094C116.643 76.6819 116.347 75.8038 116.347 74.6751C116.347 73.5071 116.647 72.6007 117.248 71.9557C117.848 71.3107 118.627 70.9882 119.584 70.9882C120.511 70.9882 121.268 71.3042 121.856 71.9361C122.443 72.568 122.737 73.457 122.737 74.6032C122.737 74.6729 122.734 74.7775 122.73 74.9169H117.561C117.604 75.6796 117.82 76.2635 118.207 76.6688C118.594 77.0741 119.077 77.2767 119.656 77.2767C120.087 77.2767 120.454 77.1634 120.759 76.9368C121.064 76.7102 121.305 76.3485 121.483 75.8517ZM117.626 73.9495H121.497C121.444 73.3655 121.296 72.9275 121.053 72.6355C120.678 72.1823 120.193 71.9557 119.597 71.9557C119.058 71.9557 118.603 72.1366 118.233 72.4983C117.868 72.86 117.665 73.3437 117.626 73.9495Z" fill="#2D2D2D"/>
<path d="M324.574 117.178V106.839H332.008V108.059H325.935V111.226H331.622V112.439H325.935V115.958H332.246V117.178H324.574Z" fill="#2D2D2D"/>
<path d="M333.243 117.178L335.964 113.285L333.446 109.688H335.024L336.167 111.444C336.382 111.778 336.555 112.058 336.686 112.284C336.892 111.973 337.081 111.698 337.254 111.458L338.509 109.688H340.017L337.443 113.215L340.213 117.178H338.663L337.135 114.851L336.728 114.223L334.771 117.178H333.243Z" fill="#2D2D2D"/>
<path d="M344.141 116.043L344.323 117.164C343.968 117.239 343.65 117.277 343.37 117.277C342.911 117.277 342.556 117.204 342.304 117.058C342.051 116.913 341.873 116.722 341.771 116.487C341.668 116.247 341.616 115.747 341.616 114.985V110.676H340.691V109.688H341.616V107.833L342.872 107.072V109.688H344.141V110.676H342.872V115.055C342.872 115.417 342.893 115.65 342.935 115.754C342.981 115.857 343.054 115.939 343.152 116C343.255 116.062 343.4 116.092 343.587 116.092C343.727 116.092 343.912 116.076 344.141 116.043Z" fill="#2D2D2D"/>
<path d="M350.6 114.766L351.905 114.928C351.699 115.695 351.318 116.29 350.761 116.713C350.205 117.136 349.494 117.348 348.63 117.348C347.54 117.348 346.675 117.011 346.035 116.339C345.399 115.662 345.081 114.714 345.081 113.497C345.081 112.237 345.404 111.259 346.049 110.563C346.694 109.867 347.531 109.519 348.559 109.519C349.555 109.519 350.369 109.86 351 110.542C351.631 111.223 351.947 112.183 351.947 113.419C351.947 113.494 351.944 113.607 351.94 113.758H346.385C346.432 114.58 346.664 115.211 347.08 115.648C347.496 116.085 348.015 116.304 348.637 116.304C349.099 116.304 349.494 116.181 349.822 115.937C350.149 115.692 350.408 115.302 350.6 114.766ZM346.456 112.714H350.614C350.558 112.084 350.399 111.611 350.137 111.296C349.735 110.807 349.214 110.563 348.573 110.563C347.994 110.563 347.505 110.758 347.108 111.148C346.715 111.538 346.498 112.06 346.456 112.714Z" fill="#2D2D2D"/>
<path d="M353.602 117.178V109.688H354.738V110.824C355.028 110.292 355.295 109.942 355.538 109.773C355.785 109.604 356.057 109.519 356.351 109.519C356.777 109.519 357.209 109.655 357.649 109.928L357.214 111.106C356.905 110.922 356.597 110.831 356.288 110.831C356.012 110.831 355.764 110.915 355.545 111.085C355.325 111.249 355.168 111.48 355.075 111.776C354.935 112.227 354.864 112.721 354.864 113.257V117.178H353.602Z" fill="#2D2D2D"/>
<path d="M358.519 117.178V109.688H359.655V110.753C360.202 109.93 360.992 109.519 362.025 109.519C362.474 109.519 362.885 109.601 363.259 109.766C363.638 109.926 363.921 110.137 364.108 110.4C364.295 110.664 364.426 110.976 364.5 111.339C364.547 111.574 364.571 111.985 364.571 112.573V117.178H363.308V112.622C363.308 112.105 363.259 111.719 363.161 111.465C363.063 111.207 362.888 111.002 362.635 110.852C362.387 110.697 362.095 110.619 361.758 110.619C361.221 110.619 360.756 110.791 360.363 111.134C359.975 111.477 359.781 112.128 359.781 113.088V117.178H358.519Z" fill="#2D2D2D"/>
<path d="M371.493 116.254C371.025 116.654 370.574 116.936 370.139 117.101C369.709 117.265 369.246 117.348 368.751 117.348C367.933 117.348 367.304 117.148 366.864 116.748C366.425 116.344 366.205 115.829 366.205 115.203C366.205 114.837 366.287 114.503 366.451 114.202C366.619 113.896 366.836 113.652 367.103 113.468C367.374 113.285 367.678 113.146 368.014 113.052C368.262 112.987 368.636 112.923 369.136 112.862C370.156 112.74 370.906 112.594 371.388 112.425C371.392 112.251 371.395 112.14 371.395 112.093C371.395 111.576 371.275 111.212 371.037 111C370.714 110.713 370.235 110.57 369.599 110.57C369.006 110.57 368.566 110.676 368.281 110.887C368 111.094 367.792 111.463 367.657 111.994L366.422 111.825C366.535 111.294 366.719 110.866 366.976 110.542C367.234 110.212 367.605 109.961 368.092 109.787C368.578 109.608 369.141 109.519 369.782 109.519C370.417 109.519 370.934 109.594 371.331 109.745C371.729 109.895 372.021 110.085 372.208 110.316C372.395 110.542 372.526 110.828 372.601 111.176C372.643 111.393 372.664 111.783 372.664 112.347V114.04C372.664 115.22 372.69 115.968 372.741 116.283C372.797 116.593 372.905 116.891 373.064 117.178H371.745C371.614 116.915 371.53 116.607 371.493 116.254ZM371.388 113.419C370.929 113.607 370.242 113.767 369.326 113.899C368.807 113.974 368.44 114.059 368.225 114.153C368.01 114.247 367.844 114.385 367.727 114.569C367.61 114.747 367.552 114.947 367.552 115.168C367.552 115.507 367.678 115.789 367.93 116.015C368.187 116.24 368.561 116.353 369.052 116.353C369.538 116.353 369.971 116.247 370.35 116.036C370.728 115.819 371.007 115.526 371.184 115.154C371.32 114.867 371.388 114.444 371.388 113.885V113.419Z" fill="#2D2D2D"/>
<path d="M374.719 117.178V106.839H375.981V117.178H374.719Z" fill="#2D2D2D"/>
<path d="M382.343 117.178V106.839H385.884C386.684 106.839 387.294 106.888 387.715 106.987C388.304 107.123 388.806 107.37 389.223 107.727C389.765 108.188 390.169 108.778 390.436 109.498C390.707 110.212 390.842 111.031 390.842 111.952C390.842 112.737 390.751 113.433 390.569 114.04C390.387 114.646 390.153 115.149 389.868 115.549C389.583 115.944 389.269 116.257 388.928 116.487C388.591 116.713 388.182 116.884 387.701 117.002C387.224 117.12 386.675 117.178 386.053 117.178H382.343ZM383.703 115.958H385.898C386.576 115.958 387.107 115.895 387.49 115.768C387.878 115.641 388.187 115.462 388.416 115.232C388.739 114.907 388.989 114.472 389.166 113.927C389.349 113.377 389.44 112.711 389.44 111.931C389.44 110.85 389.262 110.02 388.907 109.441C388.556 108.858 388.129 108.468 387.624 108.271C387.259 108.129 386.672 108.059 385.863 108.059H383.703V115.958Z" fill="#2D2D2D"/>
<path d="M397.54 116.254C397.073 116.654 396.621 116.936 396.187 117.101C395.757 117.265 395.294 117.348 394.798 117.348C393.98 117.348 393.351 117.148 392.912 116.748C392.472 116.344 392.253 115.829 392.253 115.203C392.253 114.837 392.334 114.503 392.498 114.202C392.666 113.896 392.884 113.652 393.15 113.468C393.421 113.285 393.725 113.146 394.062 113.052C394.31 112.987 394.684 112.923 395.184 112.862C396.203 112.74 396.953 112.594 397.435 112.425C397.44 112.251 397.442 112.14 397.442 112.093C397.442 111.576 397.323 111.212 397.084 111C396.762 110.713 396.283 110.57 395.647 110.57C395.053 110.57 394.613 110.676 394.328 110.887C394.048 111.094 393.84 111.463 393.704 111.994L392.47 111.825C392.582 111.294 392.767 110.866 393.024 110.542C393.281 110.212 393.653 109.961 394.139 109.787C394.625 109.608 395.189 109.519 395.829 109.519C396.465 109.519 396.981 109.594 397.379 109.745C397.776 109.895 398.068 110.085 398.255 110.316C398.442 110.542 398.573 110.828 398.648 111.176C398.69 111.393 398.711 111.783 398.711 112.347V114.04C398.711 115.22 398.737 115.968 398.788 116.283C398.845 116.593 398.952 116.891 399.111 117.178H397.793C397.662 116.915 397.578 116.607 397.54 116.254ZM397.435 113.419C396.977 113.607 396.29 113.767 395.373 113.899C394.854 113.974 394.487 114.059 394.272 114.153C394.057 114.247 393.891 114.385 393.774 114.569C393.657 114.747 393.599 114.947 393.599 115.168C393.599 115.507 393.725 115.789 393.978 116.015C394.235 116.24 394.609 116.353 395.1 116.353C395.586 116.353 396.018 116.247 396.397 116.036C396.776 115.819 397.054 115.526 397.232 115.154C397.367 114.867 397.435 114.444 397.435 113.885V113.419Z" fill="#2D2D2D"/>
<path d="M403.551 116.043L403.733 117.164C403.378 117.239 403.06 117.277 402.779 117.277C402.321 117.277 401.966 117.204 401.713 117.058C401.461 116.913 401.283 116.722 401.18 116.487C401.077 116.247 401.026 115.747 401.026 114.985V110.676H400.1V109.688H401.026V107.833L402.281 107.072V109.688H403.551V110.676H402.281V115.055C402.281 115.417 402.302 115.65 402.344 115.754C402.391 115.857 402.464 115.939 402.562 116C402.665 116.062 402.81 116.092 402.997 116.092C403.137 116.092 403.322 116.076 403.551 116.043Z" fill="#2D2D2D"/>
<path d="M409.771 116.254C409.304 116.654 408.853 116.936 408.418 117.101C407.988 117.265 407.525 117.348 407.029 117.348C406.211 117.348 405.582 117.148 405.143 116.748C404.704 116.344 404.484 115.829 404.484 115.203C404.484 114.837 404.566 114.503 404.729 114.202C404.898 113.896 405.115 113.652 405.381 113.468C405.653 113.285 405.956 113.146 406.293 113.052C406.541 112.987 406.915 112.923 407.415 112.862C408.434 112.74 409.185 112.594 409.666 112.425C409.671 112.251 409.673 112.14 409.673 112.093C409.673 111.576 409.554 111.212 409.316 111C408.993 110.713 408.514 110.57 407.878 110.57C407.284 110.57 406.845 110.676 406.56 110.887C406.279 111.094 406.071 111.463 405.935 111.994L404.701 111.825C404.813 111.294 404.998 110.866 405.255 110.542C405.512 110.212 405.884 109.961 406.37 109.787C406.856 109.608 407.42 109.519 408.06 109.519C408.696 109.519 409.213 109.594 409.61 109.745C410.008 109.895 410.3 110.085 410.487 110.316C410.674 110.542 410.805 110.828 410.879 111.176C410.922 111.393 410.943 111.783 410.943 112.347V114.04C410.943 115.22 410.968 115.968 411.02 116.283C411.076 116.593 411.183 116.891 411.342 117.178H410.024C409.893 116.915 409.809 116.607 409.771 116.254ZM409.666 113.419C409.208 113.607 408.521 113.767 407.604 113.899C407.086 113.974 406.719 114.059 406.503 114.153C406.288 114.247 406.122 114.385 406.006 114.569C405.889 114.747 405.83 114.947 405.83 115.168C405.83 115.507 405.956 115.789 406.209 116.015C406.466 116.24 406.84 116.353 407.331 116.353C407.817 116.353 408.25 116.247 408.628 116.036C409.007 115.819 409.285 115.526 409.463 115.154C409.598 114.867 409.666 114.444 409.666 113.885V113.419Z" fill="#2D2D2D"/>
<path d="M414.19 117.178H413.019V106.839H414.281V110.527C414.814 109.855 415.494 109.519 416.322 109.519C416.78 109.519 417.212 109.613 417.619 109.801C418.031 109.984 418.367 110.245 418.629 110.584C418.896 110.918 419.104 111.322 419.253 111.797C419.403 112.272 419.478 112.78 419.478 113.32C419.478 114.604 419.162 115.596 418.531 116.297C417.9 116.997 417.142 117.348 416.259 117.348C415.38 117.348 414.69 116.978 414.19 116.24V117.178ZM414.176 113.377C414.176 114.275 414.298 114.924 414.541 115.323C414.938 115.977 415.476 116.304 416.154 116.304C416.705 116.304 417.182 116.064 417.584 115.584C417.986 115.1 418.187 114.381 418.187 113.426C418.187 112.448 417.993 111.726 417.605 111.261C417.222 110.795 416.757 110.563 416.21 110.563C415.658 110.563 415.181 110.805 414.779 111.289C414.377 111.769 414.176 112.465 414.176 113.377Z" fill="#2D2D2D"/>
<path d="M426 116.254C425.532 116.654 425.081 116.936 424.647 117.101C424.216 117.265 423.754 117.348 423.258 117.348C422.44 117.348 421.811 117.148 421.372 116.748C420.932 116.344 420.712 115.829 420.712 115.203C420.712 114.837 420.794 114.503 420.958 114.202C421.126 113.896 421.344 113.652 421.61 113.468C421.881 113.285 422.185 113.146 422.522 113.052C422.769 112.987 423.143 112.923 423.644 112.862C424.663 112.74 425.413 112.594 425.895 112.425C425.899 112.251 425.902 112.14 425.902 112.093C425.902 111.576 425.783 111.212 425.544 111C425.222 110.713 424.742 110.57 424.107 110.57C423.513 110.57 423.073 110.676 422.788 110.887C422.508 111.094 422.3 111.463 422.164 111.994L420.93 111.825C421.042 111.294 421.227 110.866 421.484 110.542C421.741 110.212 422.113 109.961 422.599 109.787C423.085 109.608 423.648 109.519 424.289 109.519C424.925 109.519 425.441 109.594 425.839 109.745C426.236 109.895 426.528 110.085 426.715 110.316C426.902 110.542 427.033 110.828 427.108 111.176C427.15 111.393 427.171 111.783 427.171 112.347V114.04C427.171 115.22 427.197 115.968 427.248 116.283C427.304 116.593 427.412 116.891 427.571 117.178H426.252C426.122 116.915 426.037 116.607 426 116.254ZM425.895 113.419C425.437 113.607 424.749 113.767 423.833 113.899C423.314 113.974 422.947 114.059 422.732 114.153C422.517 114.247 422.351 114.385 422.234 114.569C422.117 114.747 422.059 114.947 422.059 115.168C422.059 115.507 422.185 115.789 422.438 116.015C422.695 116.24 423.069 116.353 423.56 116.353C424.046 116.353 424.478 116.247 424.857 116.036C425.236 115.819 425.514 115.526 425.691 115.154C425.827 114.867 425.895 114.444 425.895 113.885V113.419Z" fill="#2D2D2D"/>
<path d="M428.749 114.943L429.998 114.745C430.068 115.248 430.262 115.634 430.58 115.902C430.902 116.17 431.351 116.304 431.926 116.304C432.506 116.304 432.936 116.186 433.217 115.951C433.497 115.711 433.637 115.432 433.637 115.112C433.637 114.825 433.514 114.599 433.266 114.435C433.093 114.322 432.663 114.178 431.975 114.004C431.05 113.769 430.407 113.567 430.047 113.398C429.692 113.224 429.42 112.987 429.233 112.686C429.051 112.38 428.96 112.044 428.96 111.677C428.96 111.343 429.035 111.035 429.184 110.753C429.339 110.466 429.547 110.229 429.808 110.041C430.005 109.895 430.271 109.773 430.608 109.674C430.949 109.571 431.314 109.519 431.702 109.519C432.286 109.519 432.798 109.604 433.238 109.773C433.682 109.942 434.009 110.172 434.219 110.464C434.43 110.751 434.575 111.136 434.654 111.621L433.42 111.79C433.364 111.404 433.2 111.103 432.929 110.887C432.663 110.671 432.284 110.563 431.793 110.563C431.213 110.563 430.8 110.659 430.552 110.852C430.304 111.045 430.18 111.27 430.18 111.529C430.18 111.694 430.232 111.842 430.334 111.973C430.437 112.11 430.599 112.222 430.818 112.312C430.944 112.359 431.316 112.467 431.933 112.636C432.826 112.876 433.448 113.074 433.799 113.229C434.154 113.379 434.432 113.6 434.633 113.892C434.834 114.183 434.935 114.545 434.935 114.978C434.935 115.401 434.811 115.801 434.563 116.177C434.32 116.548 433.967 116.837 433.504 117.044C433.041 117.246 432.518 117.348 431.933 117.348C430.966 117.348 430.227 117.145 429.717 116.741C429.212 116.337 428.89 115.737 428.749 114.943Z" fill="#2D2D2D"/>
<path d="M441.654 114.766L442.958 114.928C442.752 115.695 442.371 116.29 441.815 116.713C441.258 117.136 440.548 117.348 439.683 117.348C438.594 117.348 437.729 117.011 437.088 116.339C436.452 115.662 436.134 114.714 436.134 113.497C436.134 112.237 436.457 111.259 437.102 110.563C437.747 109.867 438.584 109.519 439.613 109.519C440.609 109.519 441.422 109.86 442.053 110.542C442.684 111.223 443 112.183 443 113.419C443 113.494 442.998 113.607 442.993 113.758H437.439C437.486 114.58 437.717 115.211 438.133 115.648C438.549 116.085 439.068 116.304 439.69 116.304C440.153 116.304 440.548 116.181 440.875 115.937C441.202 115.692 441.462 115.302 441.654 114.766ZM437.509 112.714H441.668C441.611 112.084 441.452 111.611 441.191 111.296C440.789 110.807 440.267 110.563 439.627 110.563C439.047 110.563 438.559 110.758 438.161 111.148C437.768 111.538 437.551 112.06 437.509 112.714Z" fill="#2D2D2D"/>
<path d="M99.9343 88.4343C99.6219 88.7467 99.6219 89.2533 99.9343 89.5657L105.025 94.6569C105.338 94.9693 105.844 94.9693 106.157 94.6569C106.469 94.3444 106.469 93.8379 106.157 93.5255L101.631 89L106.157 84.4745C106.469 84.1621 106.469 83.6556 106.157 83.3431C105.844 83.0307 105.338 83.0307 105.025 83.3431L99.9343 88.4343ZM94 57.3H120V55.7H94V57.3ZM132.2 69.5V76H133.8V69.5H132.2ZM120 88.2H100.5V89.8H120V88.2ZM132.2 76C132.2 82.7379 126.738 88.2 120 88.2V89.8C127.622 89.8 133.8 83.6215 133.8 76H132.2ZM120 57.3C126.738 57.3 132.2 62.7621 132.2 69.5H133.8C133.8 61.8785 127.622 55.7 120 55.7V57.3Z" fill="#2D2D2D"/>
<path d="M106.055 36.6484V38H98.4844C98.474 37.6615 98.5286 37.3359 98.6484 37.0234C98.8411 36.5078 99.1484 36 99.5703 35.5C99.9974 35 100.612 34.4219 101.414 33.7656C102.659 32.7448 103.5 31.9375 103.938 31.3438C104.375 30.7448 104.594 30.1797 104.594 29.6484C104.594 29.0911 104.393 28.6224 103.992 28.2422C103.596 27.8568 103.078 27.6641 102.438 27.6641C101.76 27.6641 101.219 27.8672 100.812 28.2734C100.406 28.6797 100.201 29.2422 100.195 29.9609L98.75 29.8125C98.849 28.7344 99.2214 27.9141 99.8672 27.3516C100.513 26.7839 101.38 26.5 102.469 26.5C103.568 26.5 104.438 26.8047 105.078 27.4141C105.719 28.0234 106.039 28.7786 106.039 29.6797C106.039 30.138 105.945 30.5885 105.758 31.0312C105.57 31.474 105.258 31.9401 104.82 32.4297C104.388 32.9193 103.667 33.5911 102.656 34.4453C101.812 35.1536 101.271 35.6354 101.031 35.8906C100.792 36.1406 100.594 36.3932 100.438 36.6484H106.055Z" fill="#9C9C9C"/>
<path d="M142.961 78H141.555V69.0391C141.216 69.362 140.771 69.6849 140.219 70.0078C139.672 70.3307 139.18 70.5729 138.742 70.7344V69.375C139.529 69.0052 140.216 68.5573 140.805 68.0312C141.393 67.5052 141.81 66.9948 142.055 66.5H142.961V78Z" fill="#9C9C9C"/>
<path d="M297.672 39.9766L299.078 39.7891C299.24 40.5859 299.513 41.1615 299.898 41.5156C300.289 41.8646 300.763 42.0391 301.32 42.0391C301.982 42.0391 302.539 41.8099 302.992 41.3516C303.451 40.8932 303.68 40.3255 303.68 39.6484C303.68 39.0026 303.469 38.4714 303.047 38.0547C302.625 37.6328 302.089 37.4219 301.438 37.4219C301.172 37.4219 300.841 37.474 300.445 37.5781L300.602 36.3438C300.695 36.3542 300.771 36.3594 300.828 36.3594C301.427 36.3594 301.966 36.2031 302.445 35.8906C302.924 35.5781 303.164 35.0964 303.164 34.4453C303.164 33.9297 302.99 33.5026 302.641 33.1641C302.292 32.8255 301.841 32.6562 301.289 32.6562C300.742 32.6562 300.286 32.8281 299.922 33.1719C299.557 33.5156 299.323 34.0312 299.219 34.7188L297.812 34.4688C297.984 33.526 298.375 32.7969 298.984 32.2812C299.594 31.7604 300.352 31.5 301.258 31.5C301.883 31.5 302.458 31.6354 302.984 31.9062C303.51 32.1719 303.911 32.5365 304.188 33C304.469 33.4635 304.609 33.9557 304.609 34.4766C304.609 34.9714 304.477 35.4219 304.211 35.8281C303.945 36.2344 303.552 36.5573 303.031 36.7969C303.708 36.9531 304.234 37.2786 304.609 37.7734C304.984 38.263 305.172 38.8776 305.172 39.6172C305.172 40.6172 304.807 41.4661 304.078 42.1641C303.349 42.8568 302.427 43.2031 301.312 43.2031C300.307 43.2031 299.471 42.9036 298.805 42.3047C298.143 41.7057 297.766 40.9297 297.672 39.9766Z" fill="#9C9C9C"/>
</svg>
