<svg width="20" height="20" fill="none" xmlns="http://www.w3.org/2000/svg"><path fill-rule="evenodd" clip-rule="evenodd" d="M15.765 1.385c.838-.15 1.64-.182 2.292-.023a.797.797 0 0 1 .593.605c.153.67.12 1.48-.028 2.324-.151.856-.43 1.79-.809 2.728-.753 1.868-1.922 3.81-3.33 5.21a12.1 12.1 0 0 1-1.328 1.155c.03.767-.057 1.56-.37 2.277v.001c-.506 1.159-1.418 1.886-2.297 2.338a7.822 7.822 0 0 1-2.28.73.977.977 0 0 1-1.127-1.061v-.006l.276-2.508a7.788 7.788 0 0 1-.084-.01 1.334 1.334 0 0 1-.812-.388l-1.22-1.221-.002-.002a1.334 1.334 0 0 1-.388-.81 7.481 7.481 0 0 1-.01-.088l-2.51.276h-.004a.977.977 0 0 1-1.064-1.128v-.001a7.88 7.88 0 0 1 .735-2.276c.452-.878 1.18-1.79 2.337-2.299h.001c.718-.314 1.516-.401 2.288-.367.351-.468.737-.91 1.153-1.323 1.405-1.404 3.376-2.573 5.256-3.325.944-.378 1.882-.657 2.732-.808Zm-2.267 1.968c-1.769.708-3.582 1.795-4.838 3.05l-.002.001c-.449.445-.858.928-1.222 1.444a.625.625 0 0 1-.567.262c-.76-.07-1.465-.005-2.032.243-.814.358-1.36 1.012-1.728 1.726a6.422 6.422 0 0 0-.544 1.55l2.796-.307a.625.625 0 0 1 .694.615 6.417 6.417 0 0 0 .04.658c.001.02.01.038.024.052l.003.002 1.226 1.226.002.003a.084.084 0 0 0 .052.024l.007.001c.215.024.43.037.647.04a.625.625 0 0 1 .615.693l-.306 2.794c.436-.094 1-.259 1.551-.542.715-.367 1.368-.913 1.724-1.726.248-.57.312-1.27.247-2.028a.625.625 0 0 1 .263-.565 10.863 10.863 0 0 0 1.447-1.222l.003-.003c1.262-1.254 2.348-3.04 3.054-4.793a12.7 12.7 0 0 0 .737-2.477c.108-.612.133-1.135.087-1.546-.388-.044-.893-.02-1.495.087-.75.134-1.604.386-2.485.738ZM8.01 17.497h-.001Zm4.836-11.373a1.043 1.043 0 0 0-.738 1.78l-.442.443.443-.442a1.041 1.041 0 0 0 1.474 0 1.043 1.043 0 0 0-.737-1.78Zm-1.622 2.664a2.293 2.293 0 1 1 3.243-3.243 2.293 2.293 0 0 1-3.243 3.243Z" fill="#ED1C24"/><path fill-rule="evenodd" clip-rule="evenodd" d="M4.903 13.674a.625.625 0 0 1-.544.696c-.25.031-.484.145-.663.323-.06.06-.157.227-.253.54a6.71 6.71 0 0 0-.205.99c-.03.215-.053.424-.07.61.185-.017.394-.04.61-.07a6.96 6.96 0 0 0 .99-.206c.313-.096.478-.194.538-.253l.001-.001a1.12 1.12 0 0 0 .322-.662.625.625 0 1 1 1.242.15 2.372 2.372 0 0 1-.682 1.397c-.284.285-.697.454-1.056.564-.38.116-.8.195-1.18.248a14.097 14.097 0 0 1-1.403.124h-.034L2.5 17.5l-.625-.016v-.01l.001-.024a9.105 9.105 0 0 1 .021-.402c.018-.261.049-.618.103-1 .053-.38.132-.8.248-1.18.11-.36.279-.773.563-1.058a2.385 2.385 0 0 1 1.396-.68.625.625 0 0 1 .696.544ZM2.5 17.5l-.625-.016a.625.625 0 0 0 .64.64L2.5 17.5Z" fill="#ED1C24"/></svg>