<svg width="20" height="16" fill="none" xmlns="http://www.w3.org/2000/svg"><path d="M18.33 7.044h-1.663V5.17c0-1.035-.747-1.875-1.667-1.875H9.444L7.222.794H1.667C.747.794 0 1.634 0 2.67v11.25c0 1.035.747 1.875 1.667 1.875h13.889c.572 0 1.107-.332 1.413-.883l2.774-5c.695-1.246-.104-2.867-1.413-2.867ZM1.667 2.904c0-.13.093-.235.208-.235h4.656l2.222 2.5h6.039c.114 0 .208.106.208.234v1.641H5.278c-.584 0-1.125.344-1.427.906l-2.184 4.07V2.904Zm13.889 11.015H2.5l2.68-5h13.153l-2.777 5Z" fill="#0070CC"/></svg>