<svg width="494" height="645" viewBox="0 0 494 645" fill="none" xmlns="http://www.w3.org/2000/svg">
<path d="M493 322.344L422.714 362.924L282.143 444.083L282.143 768.719L422.714 687.56L493 646.98L493 322.344Z" fill="#0070CC" stroke="white"/>
<rect width="324.636" height="324.636" transform="matrix(-0.866025 -0.5 -2.20305e-08 1 282.143 444.083)" fill="#0070CC" stroke="white"/>
<path d="M211.857 160.026L141.571 200.606L1.00006 281.765L282.143 444.083L422.714 362.924L493 322.344L211.857 160.026Z" fill="#0070CC" stroke="white"/>
<path fill-rule="evenodd" clip-rule="evenodd" d="M466.163 378.032C466.641 377.756 467.029 377.98 467.029 378.532L467.029 428.474C467.029 429.026 466.641 429.698 466.163 429.974L455.783 435.967L434.158 448.452C433.68 448.728 433.292 448.505 433.292 447.952L433.292 398.011C433.292 397.458 433.68 396.787 434.158 396.511L455.783 384.025L466.163 378.032ZM466.163 504.64C466.641 504.364 467.029 504.588 467.029 505.14L467.029 529.111C467.029 529.663 466.641 530.335 466.163 530.611L310.455 620.509C309.977 620.785 309.589 620.561 309.589 620.009V596.038C309.589 595.486 309.977 594.814 310.455 594.538L466.163 504.64ZM466.163 550.089C466.641 549.813 467.029 550.037 467.029 550.589L467.029 574.56C467.029 575.112 466.641 575.784 466.163 576.06L310.455 665.958C309.977 666.234 309.589 666.01 309.589 665.458V641.487C309.589 640.935 309.977 640.263 310.455 639.987L466.163 550.089ZM467.029 596.038C467.029 595.486 466.641 595.262 466.163 595.538L310.455 685.436C309.977 685.712 309.589 686.384 309.589 686.936V710.907C309.589 711.459 309.977 711.683 310.455 711.407L466.163 621.509C466.641 621.233 467.029 620.561 467.029 620.009L467.029 596.038Z" fill="#0070CC"/>
<path d="M467.029 378.532H467.529H467.029ZM466.163 378.032L466.413 378.465V378.465L466.163 378.032ZM467.029 428.474H466.529H467.029ZM466.163 429.974L465.913 429.541L466.163 429.974ZM455.783 435.967L455.533 435.534L455.783 435.967ZM434.158 448.452L434.408 448.885H434.408L434.158 448.452ZM433.292 447.952H433.792H433.292ZM433.292 398.011H432.792H433.292ZM434.158 396.511L434.408 396.944L434.158 396.511ZM455.783 384.025L455.533 383.592L455.783 384.025ZM467.029 505.14H467.529H467.029ZM466.163 504.64L465.913 504.207L465.913 504.207L466.163 504.64ZM467.029 529.111H467.529H467.029ZM466.163 530.611L465.913 530.178H465.913L466.163 530.611ZM310.455 620.509L310.705 620.942L310.455 620.509ZM310.455 594.538L310.205 594.105L310.455 594.538ZM467.029 550.589H467.529H467.029ZM466.163 550.089L465.913 549.656H465.913L466.163 550.089ZM467.029 574.56H467.529H467.029ZM466.163 576.06L465.913 575.627H465.913L466.163 576.06ZM310.455 665.958L310.205 665.525L310.455 665.958ZM310.455 639.987L310.705 640.42L310.705 640.42L310.455 639.987ZM466.163 595.538L465.913 595.105H465.913L466.163 595.538ZM467.029 596.038H467.529H467.029ZM310.455 685.436L310.205 685.003V685.003L310.455 685.436ZM310.455 711.407L310.205 710.974V710.974L310.455 711.407ZM466.163 621.509L465.913 621.076H465.913L466.163 621.509ZM467.029 620.009H467.529H467.029ZM466.529 378.532C466.529 378.451 466.515 378.408 466.508 378.393C466.502 378.381 466.505 378.393 466.526 378.405C466.546 378.417 466.558 378.413 466.545 378.414C466.528 378.416 466.484 378.425 466.413 378.465L465.913 377.599C466.243 377.409 466.66 377.328 467.026 377.539C467.391 377.75 467.529 378.151 467.529 378.532H466.529ZM466.529 428.474L466.529 378.532H467.529L467.529 428.474H466.529ZM465.913 429.541C466.058 429.457 466.218 429.293 466.343 429.078C466.467 428.862 466.529 428.642 466.529 428.474H467.529C467.529 428.859 467.398 429.25 467.209 429.578C467.02 429.905 466.746 430.215 466.413 430.407L465.913 429.541ZM455.533 435.534L465.913 429.541L466.413 430.407L456.033 436.4L455.533 435.534ZM433.908 448.019L455.533 435.534L456.033 436.4L434.408 448.885L433.908 448.019ZM433.792 447.952C433.792 448.034 433.807 448.077 433.814 448.092C433.819 448.104 433.817 448.092 433.796 448.08C433.775 448.068 433.763 448.072 433.777 448.07C433.793 448.069 433.837 448.06 433.908 448.019L434.408 448.885C434.078 449.076 433.662 449.157 433.296 448.946C432.93 448.735 432.792 448.334 432.792 447.952H433.792ZM433.792 398.011L433.792 447.952H432.792L432.792 398.011H433.792ZM434.408 396.944C434.263 397.027 434.103 397.191 433.979 397.407C433.854 397.623 433.792 397.843 433.792 398.011H432.792C432.792 397.626 432.924 397.234 433.113 396.907C433.302 396.58 433.575 396.27 433.908 396.078L434.408 396.944ZM456.033 384.458L434.408 396.944L433.908 396.078L455.533 383.592L456.033 384.458ZM466.413 378.465L456.033 384.458L455.533 383.592L465.913 377.599L466.413 378.465ZM466.529 505.14C466.529 505.059 466.515 505.016 466.508 505.001C466.502 504.989 466.505 505 466.526 505.013C466.546 505.025 466.558 505.021 466.545 505.022C466.528 505.024 466.484 505.033 466.413 505.073L465.913 504.207C466.243 504.017 466.66 503.935 467.026 504.147C467.391 504.358 467.529 504.759 467.529 505.14L466.529 505.14ZM466.529 529.111L466.529 505.14H467.529L467.529 529.111H466.529ZM465.913 530.178C466.058 530.094 466.218 529.93 466.343 529.715C466.467 529.499 466.529 529.279 466.529 529.111H467.529C467.529 529.496 467.398 529.887 467.209 530.215C467.02 530.542 466.746 530.852 466.413 531.044L465.913 530.178ZM310.205 620.076L465.913 530.178L466.413 531.044L310.705 620.942L310.205 620.076ZM310.089 620.009C310.089 620.091 310.104 620.133 310.111 620.148C310.116 620.161 310.114 620.149 310.093 620.137C310.072 620.125 310.06 620.128 310.074 620.127C310.09 620.126 310.135 620.117 310.205 620.076L310.705 620.942C310.375 621.133 309.959 621.214 309.593 621.003C309.227 620.791 309.089 620.39 309.089 620.009H310.089ZM310.089 596.038V620.009H309.089V596.038H310.089ZM310.705 594.971C310.56 595.055 310.4 595.219 310.276 595.435C310.151 595.65 310.089 595.871 310.089 596.038H309.089C309.089 595.654 309.221 595.262 309.41 594.935C309.599 594.607 309.872 594.298 310.205 594.105L310.705 594.971ZM466.413 505.073L310.705 594.971L310.205 594.105L465.913 504.207L466.413 505.073ZM466.529 550.589C466.529 550.508 466.515 550.465 466.508 550.45C466.502 550.437 466.505 550.449 466.526 550.461C466.546 550.474 466.558 550.47 466.545 550.471C466.528 550.473 466.484 550.481 466.413 550.522L465.913 549.656C466.243 549.465 466.66 549.384 467.026 549.595C467.391 549.807 467.529 550.208 467.529 550.589H466.529ZM466.529 574.56L466.529 550.589H467.529L467.529 574.56H466.529ZM465.913 575.627C466.058 575.543 466.218 575.379 466.343 575.164C466.467 574.948 466.529 574.728 466.529 574.56H467.529C467.529 574.945 467.398 575.336 467.209 575.664C467.02 575.991 466.746 576.301 466.413 576.493L465.913 575.627ZM310.205 665.525L465.913 575.627L466.413 576.493L310.705 666.391L310.205 665.525ZM310.089 665.458C310.089 665.539 310.104 665.582 310.111 665.597C310.116 665.61 310.114 665.598 310.093 665.586C310.072 665.574 310.06 665.577 310.074 665.576C310.09 665.575 310.135 665.566 310.205 665.525L310.705 666.391C310.375 666.582 309.959 666.663 309.593 666.452C309.227 666.24 309.089 665.839 309.089 665.458H310.089ZM310.089 641.487V665.458H309.089V641.487H310.089ZM310.705 640.42C310.56 640.504 310.4 640.668 310.276 640.884C310.151 641.099 310.089 641.319 310.089 641.487H309.089C309.089 641.103 309.221 640.711 309.41 640.384C309.599 640.056 309.872 639.746 310.205 639.554L310.705 640.42ZM466.413 550.522L310.705 640.42L310.205 639.554L465.913 549.656L466.413 550.522ZM465.913 595.105C466.243 594.914 466.66 594.833 467.026 595.044C467.391 595.256 467.529 595.657 467.529 596.038H466.529C466.529 595.957 466.515 595.914 466.508 595.899C466.502 595.886 466.505 595.898 466.526 595.91C466.546 595.923 466.558 595.919 466.545 595.92C466.528 595.922 466.484 595.93 466.413 595.971L465.913 595.105ZM310.205 685.003L465.913 595.105L466.413 595.971L310.705 685.869L310.205 685.003ZM309.089 686.936C309.089 686.552 309.221 686.16 309.41 685.833C309.599 685.505 309.872 685.195 310.205 685.003L310.705 685.869C310.56 685.953 310.4 686.117 310.276 686.333C310.151 686.548 310.089 686.768 310.089 686.936H309.089ZM309.089 710.907V686.936H310.089V710.907H309.089ZM310.705 711.84C310.375 712.031 309.959 712.112 309.593 711.901C309.227 711.689 309.089 711.288 309.089 710.907H310.089C310.089 710.988 310.104 711.031 310.111 711.046C310.116 711.059 310.114 711.047 310.093 711.035C310.072 711.023 310.06 711.026 310.074 711.025C310.09 711.024 310.135 711.015 310.205 710.974L310.705 711.84ZM466.413 621.942L310.705 711.84L310.205 710.974L465.913 621.076L466.413 621.942ZM467.529 620.009C467.529 620.394 467.398 620.785 467.209 621.113C467.02 621.44 466.746 621.75 466.413 621.942L465.913 621.076C466.058 620.992 466.218 620.828 466.343 620.613C466.467 620.397 466.529 620.177 466.529 620.009H467.529ZM467.529 596.038L467.529 620.009H466.529L466.529 596.038H467.529Z" fill="white"/>
<path d="M182.392 266.004L267.345 315.052L263.711 171.11L311.162 198.506L230.685 55.0987L137.161 109.271L183.847 136.225L182.392 266.004Z" fill="#0070CC" stroke="white" stroke-linejoin="round"/>
<path d="M307.042 286.948L266.991 314.847L263.464 170.8L306.191 195.468L307.042 286.948Z" fill="#0070CC" stroke="white" stroke-linejoin="round"/>
<path d="M311.163 198.506L349.739 175.878L267.409 33.4419L226.18 57.6" stroke="white" stroke-linecap="round" stroke-linejoin="round"/>
</svg>
