<?xml version="1.0" encoding="UTF-8"?> <svg xmlns="http://www.w3.org/2000/svg" width="155" height="53" viewBox="0 0 155 53" fill="none"> <path d="M15.6794 50.5425C18.0739 50.5425 20.015 39.4809 20.015 25.8357C20.015 12.1905 18.0739 1.12891 15.6794 1.12891C13.285 1.12891 11.3439 12.1905 11.3439 25.8357C11.3439 39.4809 13.285 50.5425 15.6794 50.5425Z" fill="#38D430"></path> <path d="M10.215 46.681C11.7239 46.681 12.947 37.3478 12.947 25.8346C12.947 14.3215 11.7239 4.98828 10.215 4.98828C8.70618 4.98828 7.48303 14.3215 7.48303 25.8346C7.48303 37.3478 8.70618 46.681 10.215 46.681Z" fill="#38D430"></path> <path d="M6.77059 41.6935C7.91862 41.6935 8.84929 34.5939 8.84929 25.836C8.84929 17.0782 7.91862 9.97852 6.77059 9.97852C5.62256 9.97852 4.69189 17.0782 4.69189 25.836C4.69189 34.5939 5.62256 41.6935 6.77059 41.6935Z" fill="#38D430"></path> <path d="M1.5442 37.7737C2.39702 37.7737 3.08836 32.4291 3.08836 25.8361C3.08836 19.2431 2.39702 13.8984 1.5442 13.8984C0.691372 13.8984 0 19.2431 0 25.8361C0 32.4291 0.691372 37.7737 1.5442 37.7737Z" fill="#38D430"></path> <path d="M28.6859 1.12891C27.5574 7.42439 26.5477 12.9478 25.5381 19.0057C25.8944 21.2032 26.3102 23.46 26.7259 25.8357C26.3102 28.2113 25.9538 30.4682 25.5381 32.6657C26.5477 38.6642 27.5574 44.247 28.6859 50.5425C29.3392 47.0384 29.9331 43.7719 30.4676 40.5054V11.2254C29.9331 7.95891 29.3392 4.633 28.6859 1.12891Z" fill="#38D430"></path> <path d="M25.5381 19.0052C24.4096 12.591 23.4 6.65183 22.1528 0C20.5492 8.96809 19.1832 16.5108 17.639 25.8352C19.1832 35.1597 20.5492 42.7024 22.1528 51.6705C23.3406 44.9592 24.4096 39.0795 25.5381 32.6652C25.8944 30.4678 26.3102 28.2109 26.7259 25.8352C26.3102 23.4596 25.9538 21.2027 25.5381 19.0052Z" fill="#38D430"></path> <path d="M33.0222 6.17559H38.3674V9.73907H38.5456C38.9613 9.08577 39.4365 8.55123 39.9116 8.01671C40.3867 7.48219 40.9806 7.06646 41.5745 6.65072C42.1685 6.29437 42.8812 5.99741 43.7127 5.75985C44.4847 5.52228 45.435 5.46289 46.4446 5.46289C47.9888 5.46289 49.4736 5.81923 50.7802 6.53193C52.1462 7.24462 53.0965 8.31368 53.631 9.73907C54.5813 8.43247 55.7097 7.36339 56.9569 6.5913C58.2041 5.81922 59.8077 5.46289 61.6488 5.46289C64.3808 5.46289 66.4595 6.11619 68.0037 7.4228C69.4885 8.72941 70.2606 10.9863 70.2606 14.0746V31.7732H64.6184V16.8066C64.6184 15.797 64.559 14.8467 64.4996 14.0152C64.4402 13.1837 64.2621 12.4711 63.9057 11.8178C63.6088 11.2239 63.1336 10.7487 62.4803 10.3924C61.827 10.036 60.9955 9.91724 59.9265 9.91724C58.026 9.91724 56.6006 10.5112 55.7691 11.699C54.9376 12.8868 54.4625 14.5498 54.4625 16.7472V31.7732H48.8203V15.2625C48.8203 13.4807 48.5234 12.1147 47.8701 11.2239C47.2167 10.333 46.0289 9.85783 44.3066 9.85783C43.5939 9.85783 42.8812 10.036 42.1685 10.333C41.5152 10.6299 40.9212 11.0457 40.3867 11.6396C39.8522 12.1741 39.4365 12.8868 39.1395 13.7183C38.8426 14.5497 38.6644 15.5 38.6644 16.5691V31.8326H33.0222V6.17559Z" fill="black"></path> <path d="M75.6651 20.4897C75.6651 21.4994 75.7839 22.4496 76.0809 23.3405C76.3778 24.2908 76.7936 25.0629 77.3281 25.7756C77.8626 26.4883 78.5753 27.0228 79.4662 27.4385C80.2977 27.8542 81.3667 28.0324 82.5545 28.0324C84.2175 28.0324 85.5241 27.6761 86.5337 26.9634C87.5434 26.2507 88.3155 25.1816 88.7906 23.7562H94.1358C93.8389 25.1222 93.3044 26.3694 92.5917 27.4979C91.879 28.5669 90.9881 29.5172 89.9784 30.2299C88.9688 31.002 87.781 31.5365 86.5337 31.8929C85.2865 32.2492 83.9205 32.4868 82.5545 32.4868C80.5352 32.4868 78.7535 32.1304 77.2093 31.4771C75.6651 30.8238 74.3585 29.8735 73.2895 28.6857C72.2204 27.4979 71.389 26.0725 70.8544 24.4095C70.3199 22.7466 70.0229 20.9055 70.0229 18.9456C70.0229 17.1044 70.3199 15.3821 70.9138 13.7785C71.5077 12.1155 72.3392 10.6902 73.4083 9.44294C74.4773 8.19572 75.7839 7.24546 77.3281 6.47337C78.8723 5.76067 80.5946 5.4043 82.4951 5.4043C84.5144 5.4043 86.2962 5.82006 87.9591 6.65154C89.5627 7.48302 90.8693 8.61144 91.9384 9.97744C93.0074 11.3434 93.7795 12.947 94.2546 14.7882C94.7297 16.5699 94.8485 18.4704 94.611 20.3709H75.6651V20.4897ZM88.85 16.7481C88.7906 15.8572 88.6124 14.9663 88.2561 14.1942C87.9591 13.3628 87.484 12.65 86.9495 12.0561C86.415 11.4622 85.7617 10.9277 84.9896 10.5714C84.2175 10.215 83.3266 9.97744 82.3763 9.97744C81.3667 9.97744 80.4758 10.1556 79.6444 10.512C78.8129 10.8683 78.1596 11.3434 77.5657 11.9373C76.9717 12.5313 76.4966 13.244 76.1997 14.0755C75.8433 14.9069 75.6651 15.7978 75.6058 16.7481H88.85Z" fill="black"></path> <path d="M93.8984 6.17676H99.1842V11.1656H99.303C99.4812 10.4529 99.7782 9.79964 100.253 9.14633C100.728 8.49303 101.322 7.89909 101.976 7.30518C102.629 6.77066 103.401 6.29552 104.233 5.99856C105.064 5.64221 105.895 5.52344 106.786 5.52344C107.44 5.52344 107.915 5.52346 108.152 5.58285C108.39 5.64224 108.627 5.64221 108.924 5.7016V11.1656C108.509 11.1062 108.093 11.0468 107.737 10.9874C107.321 10.9281 106.905 10.9281 106.549 10.9281C105.599 10.9281 104.708 11.1062 103.817 11.522C102.985 11.8783 102.213 12.4722 101.619 13.1849C100.966 13.957 100.491 14.8479 100.135 15.9169C99.7782 16.986 99.6 18.2926 99.6 19.718V31.9526H93.9578L93.8984 6.17676Z" fill="black"></path> <path d="M130.127 30.4674C130.127 34.3279 129.058 37.2381 126.861 39.1386C124.663 41.0391 121.575 41.9894 117.477 41.9894C116.17 41.9894 114.864 41.8706 113.557 41.5736C112.25 41.3361 111.063 40.8609 109.993 40.2076C108.924 39.5543 108.034 38.7229 107.262 37.7132C106.549 36.7035 106.074 35.4563 105.955 33.9121H111.597C111.775 34.6842 112.072 35.3376 112.429 35.8721C112.844 36.3472 113.319 36.763 113.854 37.0599C114.388 37.3569 114.982 37.535 115.695 37.5944C116.348 37.6538 117.061 37.7132 117.774 37.7132C120.031 37.7132 121.753 37.1787 122.763 36.0502C123.832 34.9218 124.366 33.3182 124.366 31.1802V27.2603H124.247C123.475 28.6857 122.347 29.8142 120.981 30.5862C119.615 31.3583 118.13 31.7741 116.527 31.7741C114.448 31.7741 112.725 31.4177 111.3 30.705C109.875 29.9923 108.687 29.0421 107.737 27.7948C106.786 26.5476 106.133 25.1222 105.658 23.5187C105.242 21.9151 105.005 20.1334 105.005 18.2922C105.005 16.5699 105.242 14.9069 105.777 13.3628C106.311 11.8186 107.083 10.4526 108.034 9.26473C109.043 8.07691 110.231 7.12667 111.656 6.47337C113.082 5.76067 114.745 5.4043 116.527 5.4043C118.13 5.4043 119.615 5.76065 120.981 6.41396C122.347 7.06726 123.357 8.13632 124.129 9.6211H124.247V6.117H129.89V30.4674H130.127ZM117.536 27.3791C118.783 27.3791 119.852 27.1415 120.743 26.607C121.634 26.0725 122.347 25.4192 122.881 24.5877C123.416 23.7562 123.832 22.806 124.069 21.7369C124.307 20.6679 124.426 19.5988 124.426 18.4704C124.426 17.342 124.307 16.3323 124.01 15.3227C123.772 14.313 123.357 13.3628 122.822 12.5907C122.288 11.8186 121.575 11.1653 120.684 10.6901C119.793 10.215 118.783 9.97744 117.536 9.97744C116.289 9.97744 115.22 10.215 114.388 10.7495C113.557 11.284 112.844 11.9373 112.31 12.8282C111.775 13.6597 111.419 14.61 111.181 15.679C110.944 16.7481 110.825 17.8171 110.825 18.8861C110.825 19.9552 110.944 20.9648 111.241 21.9745C111.478 22.9841 111.894 23.875 112.429 24.7065C112.963 25.4786 113.676 26.1319 114.507 26.6664C115.339 27.2009 116.348 27.3791 117.536 27.3791Z" fill="black"></path> <path d="M135.294 20.4897C135.294 21.4994 135.413 22.4496 135.71 23.3405C136.007 24.2908 136.422 25.0629 136.957 25.7756C137.491 26.4883 138.204 27.0228 139.095 27.4385C139.927 27.8542 140.996 28.0324 142.183 28.0324C143.846 28.0324 145.153 27.6761 146.163 26.9634C147.172 26.2507 147.944 25.1816 148.42 23.7562H153.765C153.468 25.1222 152.933 26.3694 152.221 27.4979C151.508 28.5669 150.617 29.5172 149.607 30.2299C148.598 31.002 147.41 31.5365 146.163 31.8929C144.915 32.2492 143.549 32.4868 142.183 32.4868C140.164 32.4868 138.382 32.1304 136.838 31.4771C135.294 30.8238 133.987 29.8735 132.918 28.6857C131.849 27.4979 131.018 26.0725 130.483 24.4095C129.949 22.7466 129.652 20.9055 129.652 18.9456C129.652 17.1044 129.949 15.3821 130.543 13.7785C131.137 12.1155 131.968 10.6902 133.037 9.44294C134.106 8.19572 135.413 7.24546 136.957 6.47337C138.501 5.76067 140.224 5.4043 142.124 5.4043C144.143 5.4043 145.925 5.82006 147.588 6.65154C149.192 7.48302 150.498 8.61144 151.567 9.97744C152.636 11.3434 153.408 12.947 153.883 14.7882C154.359 16.5699 154.477 18.4704 154.24 20.3709H135.294V20.4897ZM148.479 16.7481C148.419 15.8572 148.241 14.9663 147.885 14.1942C147.588 13.3628 147.113 12.65 146.578 12.0561C146.044 11.4622 145.391 10.9277 144.618 10.5714C143.846 10.215 142.955 9.97744 142.005 9.97744C140.996 9.97744 140.105 10.1556 139.273 10.512C138.442 10.8683 137.788 11.3434 137.195 11.9373C136.601 12.5313 136.126 13.244 135.829 14.0755C135.472 14.9069 135.294 15.7978 135.235 16.7481H148.479Z" fill="black"></path> <path d="M33.7943 42.8793H33.0222V37.1777H33.7943V42.8793Z" fill="black"></path> <path d="M39.1991 41.7509V37.1777H39.9712V42.8793H38.9616L35.9326 38.1874V42.8793H35.1605V37.1777H36.2296L39.1991 41.7509Z" fill="black"></path> <path d="M45.4348 41.7509V37.1777H46.207V42.8793H45.1973L42.1683 38.1874V42.8793H41.3962V37.1777H42.4653L45.4348 41.7509Z" fill="black"></path> <path d="M53.3934 40.029C53.3934 40.4447 53.334 40.8605 53.1558 41.2168C52.9776 41.5732 52.7995 41.9295 52.5025 42.1671C52.2055 42.4046 51.9086 42.6422 51.5523 42.761C51.1959 42.8798 50.7802 42.9985 50.3644 42.9985C49.9487 42.9985 49.533 42.9391 49.1766 42.761C48.8203 42.6422 48.4639 42.4046 48.2263 42.1671C47.9888 41.9295 47.7512 41.5732 47.573 41.2168C47.3949 40.8605 47.3354 40.4447 47.3354 40.029C47.3354 39.5538 47.3949 39.1975 47.573 38.7817C47.7512 38.4254 47.9294 38.0691 48.2263 37.8315C48.5233 37.5939 48.8203 37.3564 49.1766 37.2376C49.533 37.1188 49.9487 37 50.3644 37C50.7802 37 51.1959 37.0594 51.5523 37.2376C51.9086 37.3564 52.2649 37.5939 52.5025 37.8315C52.7995 38.0691 52.9776 38.4254 53.1558 38.7817C53.334 39.1975 53.3934 39.6132 53.3934 40.029ZM52.5619 40.029C52.5619 39.732 52.5025 39.4351 52.3837 39.1381C52.2649 38.8412 52.1461 38.6036 51.968 38.4254C51.7898 38.2472 51.5522 38.0691 51.3147 37.9503C51.0771 37.8315 50.7208 37.7721 50.4238 37.7721C50.0675 37.7721 49.7705 37.8315 49.5329 37.9503C49.2954 38.0691 49.0578 38.2472 48.8796 38.4254C48.7015 38.663 48.5233 38.9005 48.4639 39.1381C48.3451 39.4351 48.2857 39.732 48.2857 40.029C48.2857 40.3259 48.3451 40.6229 48.4639 40.9199C48.5827 41.2168 48.7015 41.4543 48.8796 41.6325C49.0578 41.8107 49.2954 41.9889 49.5329 42.1077C49.7705 42.2265 50.0675 42.2858 50.4238 42.2858C50.7802 42.2858 51.0771 42.2265 51.3147 42.1077C51.6116 41.9889 51.7898 41.8107 52.0274 41.6325C52.2649 41.4543 52.3837 41.1574 52.4431 40.9199C52.5025 40.6823 52.5619 40.3853 52.5619 40.029Z" fill="black"></path> <path d="M54.5222 37.1777H56.2445C56.5415 37.1777 56.8385 37.2371 57.076 37.2965C57.3136 37.3559 57.5512 37.4747 57.7293 37.5935C57.9075 37.7123 58.0263 37.8904 58.1451 38.0686C58.2639 38.2468 58.2639 38.4844 58.2639 38.7813C58.2639 39.0783 58.2045 39.3158 58.0857 39.494C57.9669 39.6722 57.8481 39.8504 57.67 39.9691C57.4918 40.0879 57.2542 40.2067 57.0166 40.2661C56.7791 40.3255 56.4821 40.3849 56.1852 40.3849H55.2943V42.8793H54.5222V37.1777ZM55.2943 39.7316H56.1258C56.3039 39.7316 56.4821 39.7316 56.6603 39.6722C56.8385 39.6128 56.9573 39.6128 57.076 39.494C57.1948 39.3752 57.3136 39.3158 57.373 39.1971C57.4324 39.0783 57.4918 38.9595 57.4918 38.7813C57.4918 38.6031 57.4324 38.4843 57.373 38.3656C57.3136 38.2468 57.1948 38.128 57.076 38.0686C56.9573 38.0092 56.8385 37.9498 56.6603 37.8904C56.4821 37.8904 56.3039 37.8311 56.1258 37.8311H55.2349L55.2943 39.7316Z" fill="black"></path> <path d="M65.0933 40.029C65.0933 40.4447 65.0339 40.8605 64.8557 41.2168C64.6776 41.5732 64.4994 41.9295 64.2025 42.1671C63.9055 42.4046 63.6085 42.6422 63.2522 42.761C62.8958 42.8798 62.4801 42.9985 62.0643 42.9985C61.6486 42.9985 61.2329 42.9391 60.8765 42.761C60.5202 42.6422 60.1638 42.4046 59.9263 42.1671C59.6887 41.9295 59.4512 41.5732 59.273 41.2168C59.0948 40.8605 59.0354 40.4447 59.0354 40.029C59.0354 39.5538 59.0948 39.1975 59.273 38.7817C59.4512 38.4254 59.6293 38.0691 59.9263 37.8315C60.2232 37.5939 60.5202 37.3564 60.8765 37.2376C61.2329 37.1188 61.6486 37 62.0643 37C62.4801 37 62.8958 37.0594 63.2522 37.2376C63.6085 37.3564 63.9649 37.5939 64.2025 37.8315C64.4994 38.0691 64.6776 38.4254 64.8557 38.7817C64.9745 39.1975 65.0933 39.6132 65.0933 40.029ZM64.2025 40.029C64.2025 39.732 64.1431 39.4351 64.0243 39.1381C63.9055 38.8412 63.7867 38.6036 63.6085 38.4254C63.4304 38.2472 63.1928 38.0691 62.9552 37.9503C62.7176 37.8315 62.3613 37.7721 62.0643 37.7721C61.708 37.7721 61.411 37.8315 61.1735 37.9503C60.9359 38.0691 60.6984 38.2472 60.5202 38.4254C60.342 38.663 60.1638 38.9005 60.1044 39.1381C59.9857 39.4351 59.9263 39.732 59.9263 40.029C59.9263 40.3259 59.9857 40.6229 60.1044 40.9199C60.2232 41.2168 60.342 41.4543 60.5202 41.6325C60.6984 41.8107 60.9359 41.9889 61.1735 42.1077C61.411 42.2265 61.708 42.2858 62.0643 42.2858C62.4207 42.2858 62.7176 42.2265 62.9552 42.1077C63.2522 41.9889 63.4304 41.8107 63.6679 41.6325C63.9055 41.4543 64.0243 41.1574 64.0837 40.9199C64.1431 40.6823 64.2025 40.3853 64.2025 40.029Z" fill="black"></path> <path d="M66.9349 42.2271H69.4887V42.9398H66.1628V37.2383H66.9349V42.2271Z" fill="black"></path> <path d="M71.0921 42.8793H70.3201V37.1777H71.0921V42.8793Z" fill="black"></path> <path d="M75.3092 38.2464C75.1904 38.0682 75.0716 37.9494 74.834 37.8901C74.6559 37.7713 74.4183 37.7119 74.1807 37.7119C74.062 37.7119 73.9432 37.7119 73.765 37.7713C73.6462 37.8307 73.5275 37.8901 73.4087 37.9495C73.2899 38.0089 73.2305 38.1276 73.1711 38.2464C73.1117 38.3652 73.0523 38.484 73.0523 38.6621C73.0523 38.8403 73.1117 38.9591 73.1711 39.0779C73.2305 39.1967 73.2899 39.2561 73.4087 39.3155C73.5275 39.3748 73.6462 39.4342 73.765 39.4936C73.8838 39.553 74.062 39.6124 74.2401 39.6718C74.4183 39.7312 74.6559 39.7906 74.834 39.85C75.0122 39.9093 75.1904 40.0281 75.3686 40.1469C75.5467 40.2657 75.6655 40.4439 75.7843 40.6221C75.9031 40.8002 75.9625 41.0378 75.9625 41.3347C75.9625 41.6317 75.9031 41.8693 75.7843 42.1069C75.6655 42.3444 75.5467 42.5226 75.3686 42.6414C75.1904 42.7601 74.9528 42.8789 74.7153 42.9383C74.4777 42.9977 74.2401 43.0571 74.0026 43.0571C73.6462 43.0571 73.2899 42.9977 72.9335 42.8195C72.5772 42.7007 72.3396 42.4632 72.1021 42.2256L72.696 41.6911C72.8147 41.8693 72.9929 42.0475 73.2305 42.1662C73.4681 42.285 73.7056 42.3444 73.9432 42.3444C74.062 42.3444 74.2401 42.3444 74.3589 42.285C74.4777 42.2256 74.5965 42.1662 74.7153 42.1069C74.8341 42.0475 74.8935 41.9287 75.0122 41.8099C75.0716 41.6911 75.131 41.5129 75.131 41.3942C75.131 41.2754 75.0716 41.0972 75.0122 40.9784C74.9528 40.8596 74.8341 40.7408 74.7153 40.6815C74.5965 40.6221 74.4183 40.5033 74.2995 40.5033C74.1808 40.5033 73.9432 40.3845 73.765 40.3251C73.5868 40.2657 73.4087 40.2063 73.2305 40.1469C73.0523 40.0875 72.8741 39.9687 72.7553 39.85C72.6366 39.7312 72.5178 39.553 72.399 39.3748C72.3396 39.1967 72.2802 38.9591 72.2802 38.7215C72.2802 38.4246 72.3396 38.187 72.4584 38.0088C72.5772 37.8307 72.696 37.6525 72.9335 37.4743C73.1711 37.2961 73.3493 37.2367 73.5868 37.1773C73.8244 37.118 74.062 37.0586 74.2995 37.0586C74.6559 37.0586 74.9528 37.118 75.2498 37.2368C75.5467 37.3555 75.7843 37.5337 75.9625 37.7119L75.3092 38.2464Z" fill="black"></path> <path d="M36.7639 52.0864H33.0222V51.3737L35.2791 49.1168C35.4573 48.9386 35.576 48.7604 35.6948 48.5823C35.8136 48.4041 35.873 48.1665 35.873 47.929C35.873 47.7508 35.873 47.632 35.8136 47.5132C35.7542 47.3944 35.6948 47.2757 35.576 47.2163C35.4573 47.1569 35.3979 47.0381 35.2791 47.0381C35.1603 46.9787 35.0415 46.9787 34.8633 46.9787C34.5664 46.9787 34.3288 47.0975 34.1506 47.2756C33.9725 47.4538 33.8537 47.6914 33.7943 47.9883L33.0222 47.8695C33.0816 47.632 33.141 47.4538 33.2004 47.2756C33.3192 47.0975 33.438 46.9193 33.6161 46.8005C33.7943 46.6817 33.9725 46.5629 34.1506 46.5036C34.3882 46.4442 34.5664 46.3848 34.804 46.3848C35.0415 46.3848 35.2791 46.4442 35.4572 46.5036C35.6948 46.5629 35.873 46.6817 36.0512 46.8005C36.2293 46.9193 36.3481 47.0975 36.4669 47.335C36.5857 47.5132 36.6451 47.7508 36.6451 48.0478C36.6451 48.2259 36.6451 48.4041 36.5857 48.5823C36.5263 48.7604 36.4669 48.8792 36.4075 48.998C36.3481 49.1168 36.2294 49.295 36.1106 49.4137C35.9918 49.5325 35.873 49.6513 35.7542 49.7701L33.9131 51.5518H36.7045L36.7639 52.0864Z" fill="black"></path> <path d="M39.7332 46.2656C40.0896 46.2656 40.3865 46.325 40.6241 46.5032C40.8617 46.6813 41.0992 46.8595 41.218 47.1565C41.3962 47.4535 41.5149 47.7504 41.5743 48.1067C41.6337 48.4631 41.6931 48.8788 41.6931 49.2946C41.6931 49.7103 41.6337 50.126 41.5743 50.4824C41.5149 50.8387 41.3962 51.1357 41.218 51.4326C41.0398 51.7296 40.8617 51.9078 40.6241 52.086C40.3865 52.2641 40.0896 52.3235 39.7332 52.3235C39.3769 52.3235 39.0799 52.2641 38.8424 52.086C38.6048 51.9078 38.3672 51.7296 38.2484 51.4326C38.0703 51.1357 37.9515 50.8387 37.8921 50.4824C37.8327 50.126 37.7733 49.7103 37.7733 49.2946C37.7733 48.8788 37.8327 48.4631 37.8921 48.1067C37.9515 47.7504 38.0703 47.3941 38.2484 47.1565C38.4266 46.8595 38.6048 46.6813 38.8424 46.5032C39.0799 46.325 39.3769 46.2656 39.7332 46.2656ZM39.7332 46.9189C39.4957 46.9189 39.3175 46.9783 39.1393 47.1565C38.9611 47.3347 38.8424 47.5128 38.783 47.7504C38.7236 47.988 38.6642 48.2255 38.6048 48.5225C38.5454 48.8194 38.5454 49.057 38.5454 49.2946C38.5454 49.5321 38.5454 49.7697 38.6048 50.0666C38.6642 50.3636 38.7236 50.6012 38.783 50.8387C38.8424 51.0763 38.9611 51.2545 39.1393 51.4326C39.3175 51.6108 39.4957 51.6702 39.7332 51.6702C39.9708 51.6702 40.149 51.6108 40.3271 51.4326C40.4459 51.2545 40.5647 51.0763 40.6835 50.8387C40.7429 50.6012 40.8023 50.3636 40.8617 50.0666C40.9211 49.7697 40.921 49.5321 40.921 49.2946C40.921 49.057 40.9211 48.8194 40.8617 48.5225C40.8023 48.2255 40.7429 47.988 40.6835 47.7504C40.6241 47.5128 40.5053 47.3347 40.3271 47.1565C40.149 46.9783 39.9708 46.9189 39.7332 46.9189Z" fill="black"></path> <path d="M46.3261 52.0864H42.5845V51.3737L44.8413 49.1168C45.0195 48.9386 45.1383 48.7604 45.2571 48.5823C45.3759 48.4041 45.4352 48.1665 45.4352 47.929C45.4352 47.7508 45.4353 47.632 45.3759 47.5132C45.3165 47.3944 45.2571 47.2757 45.1383 47.2163C45.0195 47.1569 44.9601 47.0381 44.8413 47.0381C44.7226 46.9787 44.6038 46.9787 44.4256 46.9787C44.1287 46.9787 43.8911 47.0975 43.7129 47.2756C43.5347 47.4538 43.4159 47.6914 43.3566 47.9883L42.5845 47.8695C42.6439 47.632 42.7032 47.4538 42.7626 47.2756C42.8814 47.0975 43.0002 46.9193 43.1784 46.8005C43.3566 46.6817 43.5347 46.5629 43.7129 46.5036C43.9505 46.4442 44.1286 46.3848 44.3662 46.3848C44.6038 46.3848 44.8414 46.4442 45.0195 46.5036C45.2571 46.5629 45.4353 46.6817 45.6135 46.8005C45.7916 46.9193 45.9104 47.0975 46.0292 47.335C46.1479 47.5132 46.2074 47.7508 46.2074 48.0478C46.2074 48.2259 46.2073 48.4041 46.148 48.5823C46.0886 48.7604 46.0292 48.8792 45.9698 48.998C45.9104 49.1168 45.7916 49.295 45.6728 49.4137C45.554 49.5325 45.4353 49.6513 45.3165 49.7701L43.4753 51.5518H46.2667L46.3261 52.0864Z" fill="black"></path> <path d="M50.0084 52.0864H49.2363V47.335L48.1673 48.2259L47.6921 47.6914L49.2957 46.3848H50.0084V52.0864Z" fill="black"></path> </svg> 