<svg width="662" height="840" fill="none" xmlns="http://www.w3.org/2000/svg"><path d="M185.084 376.468v-89.986m310.748 89.986v-89.986m-155.375 52.713v-89.973" stroke="#fff" stroke-linejoin="round"/><path d="M120.791 466.21c0-32.565 21.446-65.13 64.339-89.976 42.892-24.846 99.11-37.27 155.327-37.27 56.218 0 112.436 12.423 155.328 37.27 42.893 24.846 64.339 57.411 64.339 89.976" stroke="#fff" stroke-width="2" stroke-linejoin="round"/><path d="m495.831 556.196.001-89.986m-310.748 89.986V466.21m155.374 37.274v89.972" stroke="#fff" stroke-linejoin="round"/><path d="M560.124 376.382v89.915c0 32.543-21.446 65.086-64.339 89.915-85.785 49.659-224.87 49.659-310.655 0-42.893-24.829-64.339-57.372-64.339-89.915v-89.915m439.333 0c0 32.543-21.446 65.085-64.338 89.915-42.893 24.829-99.111 37.244-155.328 37.244-56.218 0-112.435-12.415-155.328-37.244-42.893-24.83-64.339-57.372-64.339-89.915m439.333 0c0-32.543-21.446-65.086-64.338-89.915-85.786-49.659-224.871-49.659-310.656 0-42.893 24.829-64.339 57.372-64.339 89.915" stroke="#fff" stroke-width="2" stroke-linejoin="round"/><path d="M65.874 621.584v-89.986m310.748 89.986v-89.986m-155.374 52.713v-89.973" stroke="#fff" stroke-linejoin="round"/><path d="M1.582 711.326c0-32.565 21.446-65.13 64.338-89.976 42.893-24.847 99.11-37.27 155.328-37.27s112.435 12.423 155.328 37.27c42.893 24.846 64.339 57.411 64.339 89.976" stroke="#fff" stroke-width="2" stroke-linejoin="round"/><path d="M376.622 801.312v-89.986M65.874 801.312v-89.986M221.248 748.6v89.972" stroke="#fff" stroke-linejoin="round"/><path d="M440.915 621.498v89.915c0 32.543-21.446 65.086-64.339 89.915-85.785 49.659-224.87 49.659-310.656 0-42.892-24.829-64.338-57.372-64.338-89.915v-89.915m439.333 0c0 32.542-21.446 65.085-64.339 89.915-42.892 24.829-99.11 37.244-155.328 37.244-56.217 0-112.435-12.415-155.327-37.244-42.893-24.83-64.339-57.373-64.339-89.915m439.333 0c0-32.543-21.446-65.086-64.339-89.916-85.785-49.658-224.87-49.658-310.655 0-42.893 24.83-64.339 57.373-64.339 89.916" stroke="#fff" stroke-width="2" stroke-linejoin="round"/><path d="M285.541 128.674V38.687m310.748 89.987V38.688M440.914 91.4V1.428" stroke="#fff" stroke-linejoin="round"/><path d="M221.248 218.416c0-32.565 21.447-65.131 64.339-89.977 42.893-24.846 99.11-37.27 155.328-37.27 56.217 0 112.435 12.424 155.328 37.27 42.892 24.846 64.338 57.412 64.339 89.977" stroke="#fff" stroke-width="2" stroke-linejoin="round"/><path d="m596.288 308.402.001-89.986m-310.748 89.986v-89.986m155.374 37.273v89.972" stroke="#fff" stroke-linejoin="round"/><path d="m660.581 128.587.001 89.915c0 32.543-21.447 65.086-64.339 89.915-85.786 49.659-224.871 49.659-310.656 0-42.893-24.829-64.339-57.372-64.339-89.915l.001-89.915m439.332 0c0 32.543-21.446 65.086-64.338 89.915-42.893 24.83-99.11 37.244-155.328 37.244s-112.435-12.414-155.328-37.244c-42.892-24.829-64.338-57.372-64.338-89.915m439.332 0c0-32.543-21.446-65.086-64.338-89.915-85.785-49.659-224.871-49.659-310.656 0-42.892 24.83-64.338 57.372-64.338 89.915" stroke="#fff" stroke-width="2" stroke-linejoin="round"/></svg>