<svg width="614" height="311" fill="none" xmlns="http://www.w3.org/2000/svg"><path d="M450 245.227V231h10.287v1.679h-8.404v4.357h7.87v1.67h-7.87v4.842h8.734v1.679H450Zm11.996 0 3.765-5.357-3.484-4.949h2.184l1.582 2.416c.297.46.537.844.718 1.155.284-.427.546-.805.786-1.135l1.737-2.436h2.086l-3.561 4.852 3.833 5.454h-2.145l-2.115-3.202-.563-.864-2.708 4.066h-2.115Zm15.081-1.562.253 1.543a6.52 6.52 0 0 1-1.32.155c-.634 0-1.126-.1-1.475-.301-.35-.2-.595-.462-.738-.786-.142-.33-.213-1.019-.213-2.067v-5.93h-1.281v-1.358h1.281v-2.553l1.737-1.048v3.601h1.756v1.358h-1.756v6.027c0 .498.029.818.087.961a.765.765 0 0 0 .301.339c.142.085.343.127.602.127.194 0 .449-.023.766-.068Zm8.939-1.757 1.805.223c-.285 1.055-.812 1.873-1.582 2.456-.77.582-1.753.873-2.95.873-1.507 0-2.704-.463-3.591-1.388-.88-.931-1.32-2.235-1.32-3.911 0-1.734.447-3.079 1.34-4.037.893-.957 2.051-1.436 3.474-1.436 1.378 0 2.504.469 3.377 1.407.874.938 1.31 2.258 1.31 3.959 0 .104-.003.259-.009.466h-7.686c.064 1.133.385 1.999.96 2.601.576.602 1.294.903 2.155.903.64 0 1.187-.169 1.64-.505.453-.336.812-.873 1.077-1.611Zm-5.735-2.824h5.754c-.077-.867-.297-1.517-.659-1.951-.557-.672-1.278-1.009-2.165-1.009-.802 0-1.478.269-2.028.806-.543.537-.844 1.255-.902 2.154Zm9.889 6.143v-10.306h1.572v1.562c.402-.731.77-1.213 1.107-1.446a1.961 1.961 0 0 1 1.126-.349c.588 0 1.187.187 1.795.563l-.602 1.62c-.427-.252-.854-.378-1.281-.378-.381 0-.724.116-1.028.349-.305.227-.521.544-.651.951a6.81 6.81 0 0 0-.291 2.038v5.396h-1.747Zm6.804 0v-10.306h1.572v1.465c.757-1.132 1.85-1.698 3.28-1.698a4.22 4.22 0 0 1 1.708.339c.524.22.916.512 1.175.874.258.362.44.792.543 1.291.065.323.097.889.097 1.698v6.337h-1.747v-6.269c0-.712-.068-1.242-.204-1.592a1.643 1.643 0 0 0-.727-.844c-.343-.214-.748-.32-1.213-.32-.744 0-1.388.236-1.932.708-.537.472-.805 1.369-.805 2.688v5.629h-1.747Zm17.954-1.271c-.647.55-1.271.938-1.873 1.164a5.342 5.342 0 0 1-1.921.34c-1.132 0-2.003-.275-2.611-.825-.608-.556-.912-1.265-.912-2.125 0-.505.113-.964.34-1.378.233-.421.533-.757.902-1.01a4.305 4.305 0 0 1 1.262-.572c.343-.091.86-.178 1.553-.262 1.41-.168 2.448-.369 3.115-.602.006-.239.009-.391.009-.456 0-.712-.165-1.213-.494-1.504-.447-.395-1.11-.592-1.99-.592-.822 0-1.43.145-1.824.436-.389.285-.677.793-.864 1.524l-1.708-.233c.155-.731.411-1.32.766-1.766.356-.453.871-.799 1.544-1.038.672-.246 1.452-.369 2.338-.369.88 0 1.595.103 2.145.31.55.207.954.469 1.213.786.259.311.44.706.544 1.184.058.298.087.835.087 1.611v2.329c0 1.624.036 2.653.107 3.087.077.427.226.837.446 1.232h-1.824a3.71 3.71 0 0 1-.35-1.271Zm-.145-3.902c-.634.259-1.585.479-2.853.66-.719.104-1.226.22-1.524.35a1.506 1.506 0 0 0-.932 1.397c0 .466.175.854.524 1.165.356.31.874.466 1.553.466.673 0 1.271-.146 1.795-.437a2.745 2.745 0 0 0 1.155-1.213c.188-.395.282-.977.282-1.747v-.641Zm4.61 5.173V231h1.747v14.227h-1.747Zm10.55 0V231h4.901c1.107 0 1.951.068 2.533.204.815.187 1.511.527 2.087 1.019.75.634 1.31 1.446 1.679 2.436.375.983.563 2.109.563 3.377 0 1.08-.127 2.038-.379 2.872-.252.835-.576 1.527-.97 2.077-.395.544-.829.974-1.301 1.291-.466.311-1.032.547-1.698.708-.66.162-1.42.243-2.281.243h-5.134Zm1.883-1.679h3.038c.938 0 1.672-.087 2.203-.262.537-.175.964-.42 1.281-.737.446-.447.792-1.045 1.038-1.796.252-.757.379-1.672.379-2.746 0-1.488-.246-2.63-.738-3.426-.485-.802-1.077-1.339-1.776-1.611-.505-.194-1.317-.291-2.436-.291h-2.989v10.869Zm19.148.408c-.647.55-1.271.938-1.873 1.164a5.346 5.346 0 0 1-1.921.34c-1.133 0-2.003-.275-2.611-.825-.608-.556-.912-1.265-.912-2.125 0-.505.113-.964.339-1.378.233-.421.534-.757.903-1.01a4.305 4.305 0 0 1 1.262-.572c.343-.091.86-.178 1.552-.262 1.411-.168 2.449-.369 3.116-.602.006-.239.009-.391.009-.456 0-.712-.165-1.213-.495-1.504-.446-.395-1.109-.592-1.989-.592-.822 0-1.43.145-1.825.436-.388.285-.676.793-.863 1.524l-1.708-.233c.155-.731.41-1.32.766-1.766.356-.453.871-.799 1.543-1.038.673-.246 1.453-.369 2.339-.369.88 0 1.595.103 2.145.31.55.207.954.469 1.213.786.259.311.44.706.543 1.184.059.298.088.835.088 1.611v2.329c0 1.624.035 2.653.107 3.087.077.427.226.837.446 1.232h-1.824a3.688 3.688 0 0 1-.35-1.271Zm-.145-3.902c-.634.259-1.586.479-2.854.66-.718.104-1.226.22-1.523.35a1.501 1.501 0 0 0-.932 1.397c0 .466.175.854.524 1.165.356.31.874.466 1.553.466.673 0 1.271-.146 1.795-.437a2.75 2.75 0 0 0 1.155-1.213c.188-.395.282-.977.282-1.747v-.641Zm8.463 3.611.252 1.543a6.52 6.52 0 0 1-1.32.155c-.634 0-1.126-.1-1.475-.301-.349-.2-.595-.462-.737-.786-.143-.33-.214-1.019-.214-2.067v-5.93h-1.281v-1.358h1.281v-2.553l1.737-1.048v3.601h1.757v1.358h-1.757v6.027c0 .498.029.818.088.961a.763.763 0 0 0 .3.339c.143.085.343.127.602.127.194 0 .45-.023.767-.068Zm8.608.291c-.647.55-1.271.938-1.873 1.164a5.342 5.342 0 0 1-1.921.34c-1.132 0-2.002-.275-2.611-.825-.608-.556-.912-1.265-.912-2.125 0-.505.113-.964.34-1.378.233-.421.534-.757.902-1.01a4.316 4.316 0 0 1 1.262-.572c.343-.091.86-.178 1.553-.262 1.41-.168 2.448-.369 3.115-.602.006-.239.01-.391.01-.456 0-.712-.165-1.213-.495-1.504-.447-.395-1.11-.592-1.99-.592-.821 0-1.43.145-1.824.436-.389.285-.676.793-.864 1.524l-1.708-.233c.155-.731.411-1.32.767-1.766.355-.453.87-.799 1.543-1.038.673-.246 1.452-.369 2.338-.369.88 0 1.595.103 2.145.31.55.207.955.469 1.213.786.259.311.44.706.544 1.184.058.298.087.835.087 1.611v2.329c0 1.624.036 2.653.107 3.087.078.427.226.837.446 1.232h-1.824a3.71 3.71 0 0 1-.35-1.271Zm-.145-3.902c-.634.259-1.585.479-2.853.66-.718.104-1.226.22-1.524.35a1.506 1.506 0 0 0-.932 1.397c0 .466.175.854.524 1.165.356.31.874.466 1.553.466.673 0 1.272-.146 1.796-.437a2.742 2.742 0 0 0 1.154-1.213c.188-.395.282-.977.282-1.747v-.641Zm6.26 5.173h-1.621V231h1.747v5.076c.738-.926 1.679-1.388 2.824-1.388.634 0 1.233.129 1.796.388a3.56 3.56 0 0 1 1.397 1.077c.369.46.657 1.016.864 1.669a6.91 6.91 0 0 1 .31 2.097c0 1.766-.436 3.131-1.31 4.095-.873.964-1.921 1.446-3.144 1.446-1.216 0-2.171-.508-2.863-1.524v1.291Zm-.019-5.231c0 1.236.168 2.129.504 2.679.55.899 1.294 1.349 2.232 1.349.764 0 1.424-.33 1.98-.99.557-.667.835-1.656.835-2.97 0-1.346-.269-2.339-.806-2.979-.53-.641-1.174-.961-1.931-.961-.763 0-1.423.333-1.98 1-.556.66-.834 1.617-.834 2.872Zm16.362 3.96c-.647.55-1.271.938-1.873 1.164a5.342 5.342 0 0 1-1.921.34c-1.132 0-2.003-.275-2.611-.825-.608-.556-.912-1.265-.912-2.125 0-.505.113-.964.34-1.378.233-.421.534-.757.902-1.01a4.316 4.316 0 0 1 1.262-.572c.343-.091.86-.178 1.553-.262 1.41-.168 2.448-.369 3.115-.602.006-.239.01-.391.01-.456 0-.712-.165-1.213-.495-1.504-.447-.395-1.11-.592-1.99-.592-.822 0-1.43.145-1.824.436-.389.285-.676.793-.864 1.524l-1.708-.233c.155-.731.411-1.32.767-1.766.355-.453.87-.799 1.543-1.038.673-.246 1.452-.369 2.338-.369.88 0 1.595.103 2.145.31.55.207.955.469 1.213.786.259.311.44.706.544 1.184.058.298.087.835.087 1.611v2.329c0 1.624.036 2.653.107 3.087.077.427.226.837.446 1.232h-1.824a3.71 3.71 0 0 1-.35-1.271Zm-.145-3.902c-.634.259-1.585.479-2.853.66-.718.104-1.226.22-1.524.35a1.506 1.506 0 0 0-.932 1.397c0 .466.175.854.524 1.165.356.31.874.466 1.553.466.673 0 1.272-.146 1.796-.437a2.742 2.742 0 0 0 1.154-1.213c.188-.395.282-.977.282-1.747v-.641Zm3.95 2.097 1.728-.272c.097.692.365 1.223.805 1.592.447.368 1.068.553 1.864.553.802 0 1.397-.162 1.785-.486.388-.329.582-.714.582-1.154 0-.395-.171-.706-.514-.932-.239-.155-.834-.353-1.786-.592-1.281-.324-2.17-.602-2.668-.835-.492-.239-.867-.566-1.126-.98a2.649 2.649 0 0 1-.379-1.388c0-.459.104-.883.311-1.271.214-.395.501-.721.864-.98.271-.201.64-.369 1.106-.505a5.232 5.232 0 0 1 1.514-.213c.809 0 1.517.116 2.125.349.615.233 1.068.55 1.359.951.291.395.492.925.602 1.592l-1.708.233c-.078-.531-.304-.945-.68-1.243-.368-.297-.893-.446-1.572-.446-.802 0-1.375.133-1.718.398-.342.265-.514.576-.514.932 0 .226.071.43.214.611.142.188.365.343.669.466.175.065.689.213 1.543.446 1.236.33 2.096.602 2.582.815.491.207.876.512 1.155.913.278.401.417.899.417 1.494 0 .583-.172 1.132-.515 1.65-.336.511-.824.909-1.465 1.194-.64.278-1.365.417-2.174.417-1.339 0-2.361-.278-3.066-.835-.699-.556-1.146-1.381-1.34-2.474Zm17.858-.243 1.805.223c-.285 1.055-.812 1.873-1.582 2.456-.77.582-1.754.873-2.95.873-1.508 0-2.705-.463-3.591-1.388-.88-.931-1.32-2.235-1.32-3.911 0-1.734.446-3.079 1.339-4.037.893-.957 2.051-1.436 3.475-1.436 1.378 0 2.503.469 3.377 1.407.873.938 1.31 2.258 1.31 3.959 0 .104-.003.259-.01.466h-7.686c.065 1.133.385 1.999.961 2.601.576.602 1.294.903 2.154.903.641 0 1.187-.169 1.64-.505.453-.336.812-.873 1.078-1.611Zm-5.736-2.824h5.755c-.078-.867-.298-1.517-.66-1.951-.556-.672-1.278-1.009-2.164-1.009-.802 0-1.478.269-2.028.806-.544.537-.845 1.255-.903 2.154Z" fill="#2D2D2D"/><path d="M484.467 202.334V107.67s11.398 9.516 46.824 9.516c35.427 0 48.057-10.604 48.057-10.604v95.752s-5.101 11.628-48.057 12.075c-42.955.447-46.824-12.075-46.824-12.075Z" fill="#fff"/><path d="M580.451 104.682c0 8.448-21.497 15.295-48.58 15.295s-48.581-6.847-48.581-15.295c0-8.447 21.498-15.294 48.581-15.294 27.083 0 48.58 6.847 48.58 15.294Z" fill="#fff"/><path fill-rule="evenodd" clip-rule="evenodd" d="M575.464 109.042c2.22-1.665 2.984-3.159 2.984-4.36 0-1.2-.764-2.694-2.984-4.359-2.187-1.641-5.484-3.205-9.752-4.554-8.514-2.69-20.444-4.386-33.841-4.386-13.397 0-25.328 1.696-33.841 4.386-4.268 1.35-7.565 2.913-9.752 4.554-2.22 1.665-2.985 3.159-2.985 4.359 0 1.201.765 2.695 2.985 4.36 2.187 1.641 5.484 3.205 9.752 4.554 8.513 2.69 20.444 4.386 33.841 4.386 13.397 0 25.327-1.696 33.841-4.386 4.268-1.349 7.565-2.913 9.752-4.554Zm-43.593 10.935c27.083 0 48.58-6.847 48.58-15.295 0-8.447-21.497-15.294-48.58-15.294s-48.581 6.847-48.581 15.294c0 8.448 21.498 15.295 48.581 15.295Z" fill="#ED1C24"/><path fill-rule="evenodd" clip-rule="evenodd" d="M483.217 199.953v-94.451h2.003v94.451h-2.003Zm95.316.099.11-95.936 2.003.002-.11 95.936-2.003-.002Z" fill="#ED1C24"/><path fill-rule="evenodd" clip-rule="evenodd" d="M498.471 209.387c8.503 2.622 20.311 4.258 33.398 4.258 13.086 0 24.894-1.636 33.397-4.258 4.258-1.312 7.63-2.855 9.917-4.521 2.307-1.682 3.334-3.354 3.334-4.912h2.003c0 2.497-1.64 4.69-4.155 6.523-2.536 1.848-6.142 3.471-10.507 4.817-8.743 2.695-20.76 4.347-33.989 4.347-13.23 0-25.247-1.652-33.99-4.347-4.365-1.346-7.971-2.969-10.507-4.817-2.515-1.833-4.155-4.026-4.155-6.523h2.003c0 1.558 1.027 3.23 3.335 4.912 2.286 1.666 5.658 3.209 9.916 4.521Zm0-64.113c8.503 2.621 20.311 4.258 33.398 4.258 13.086 0 24.894-1.637 33.397-4.258 4.258-1.312 7.63-2.855 9.917-4.521 2.307-1.682 3.334-3.354 3.334-4.912h2.003c0 2.497-1.64 4.689-4.155 6.523-2.536 1.848-6.142 3.471-10.507 4.817-8.743 2.695-20.76 4.346-33.989 4.346-13.23 0-25.247-1.651-33.99-4.346-4.365-1.346-7.971-2.969-10.507-4.817-2.515-1.834-4.155-4.026-4.155-6.523h2.003c0 1.558 1.027 3.23 3.335 4.912 2.286 1.666 5.658 3.209 9.916 4.521Zm0 32.278c8.503 2.621 20.311 4.258 33.398 4.258 13.086 0 24.894-1.637 33.397-4.258 4.258-1.313 7.63-2.855 9.917-4.521 2.307-1.682 3.334-3.354 3.334-4.913h2.003c0 2.498-1.64 4.69-4.155 6.523-2.536 1.849-6.142 3.471-10.507 4.817-8.743 2.695-20.76 4.347-33.989 4.347-13.23 0-25.247-1.652-33.99-4.347-4.365-1.346-7.971-2.968-10.507-4.817-2.515-1.833-4.155-4.025-4.155-6.523h2.003c0 1.559 1.027 3.231 3.335 4.913 2.286 1.666 5.658 3.208 9.916 4.521Z" fill="#ED1C24"/><path d="m59.505 168.541 58.89 15.509V99.76l-58.89-15.51-57.857 17.922v83.941l57.857-17.572Z" fill="#fff"/><path fill-rule="evenodd" clip-rule="evenodd" d="M.647 187.46v-86.022l58.836-18.226 59.913 15.78v86.354l-59.872-15.768L.647 187.46Zm2.003-2.695 56.835-17.261 57.908 15.25v-82.226l-57.866-15.24L2.65 102.907v81.858Z" fill="#2D2D2D"/><path d="m60.538 118.322-58.89-15.509v102.784l58.89 15.51 57.857-17.922V100.75l-57.857 17.572Z" fill="#fff"/><path fill-rule="evenodd" clip-rule="evenodd" d="m119.396 99.403.001 104.516-58.836 18.226L.647 206.366V101.517l59.872 15.768 58.877-17.882Zm-2.002 2.694-56.836 17.262L2.65 104.108v100.721l57.866 15.24 56.878-17.619V102.097Z" fill="#2D2D2D"/><path fill-rule="evenodd" clip-rule="evenodd" d="M58.675 219.388V118.156h2.003v101.232h-2.003Z" fill="#2D2D2D"/><rect x="233.546" y="87.734" width="134.002" height="133.359" rx="66.679" fill="#ED1C24"/><path d="M288.54 130.769s-30.716 18.608-1.768 37.084c5.568 3.599 25.766 13.605 25.191 22.866 0 0 12.242-17.994-5.657-29.317-18.385-11.586-22.981-23.962-17.766-30.633Z" fill="#fff"/><path d="M277.843 166.317s-10.96 16.502 10.607 19.881c2.121.263 17.722 1.887 21.788 6.978 0 0-.353-8.777-13.081-13.956-12.685-5.179-17.9-6.451-19.314-12.903Zm42.429-17.335c-13.17-13.693-16.839-22.163-11.182-33.135 0 0-39.289 15.01-.486 41.649 13.878 9.524 11.579 19.266 11.579 19.618 2.166-2.239 13.259-14.439.089-28.132Z" fill="#fff"/><path fill-rule="evenodd" clip-rule="evenodd" d="M295.664 240.208a1.003 1.003 0 0 1 1.416 0l6.373 6.349a.993.993 0 0 1 0 1.411c-.391.39-1.025.39-1.416 0l-4.664-4.646v35.84c0 17.083-13.899 30.931-31.045 30.931H86.975c-17.146 0-31.046-13.848-31.046-30.931v-6.431a.999.999 0 0 1 1.002-.997.999.999 0 0 1 1.001.997v6.431c0 15.98 13.003 28.935 29.043 28.935h179.353c16.04 0 29.042-12.955 29.042-28.935v-35.84l-4.663 4.646c-.391.39-1.025.39-1.416 0a.993.993 0 0 1 0-1.411l6.373-6.349ZM56.93 73.791a1 1 0 0 0 1.002-.997V31.023c0-15.98 13.003-28.935 29.043-28.935h179.353c16.04 0 29.043 12.955 29.043 28.935l-.001 35.84-4.663-4.646a1.004 1.004 0 0 0-1.416 0 .993.993 0 0 0 0 1.41l6.373 6.35c.391.39 1.025.39 1.416 0l6.373-6.35a.993.993 0 0 0 0-1.41 1.004 1.004 0 0 0-1.416 0l-4.664 4.646v-35.84c0-17.082-13.899-30.93-31.045-30.93H86.975c-17.146 0-31.046 13.848-31.046 30.93v41.77a1 1 0 0 0 1.002.998Zm155.536 78.686 6.373 6.35a.995.995 0 0 1 0 1.411l-6.373 6.35a1.006 1.006 0 0 1-1.417 0 .995.995 0 0 1 0-1.411l4.664-4.647h-75.852a1 1 0 0 1-1.002-.997 1 1 0 0 1 1.002-.998h75.852l-4.664-4.647a.995.995 0 0 1 0-1.411 1.006 1.006 0 0 1 1.417 0Zm236.545-8.655 6.373 6.349a.995.995 0 0 1 0 1.411l-6.373 6.35c-.391.39-1.025.39-1.416 0a.995.995 0 0 1 0-1.411l4.663-4.646h-63.245a1 1 0 0 1-1.001-.998 1 1 0 0 1 1.001-.998h63.245l-4.663-4.646a.995.995 0 0 1 0-1.411 1.003 1.003 0 0 1 1.416 0Zm-54.333 36.644-6.373-6.35a.995.995 0 0 1 0-1.411l6.373-6.35a1.005 1.005 0 0 1 1.416 0 .995.995 0 0 1 0 1.411l-4.663 4.647h63.245a.999.999 0 1 1 0 1.995h-63.245l4.663 4.646a.996.996 0 0 1 0 1.412 1.005 1.005 0 0 1-1.416 0Z" fill="#000"/><path d="m152.889 141 1.79-.156c.085.715.28 1.303.587 1.764.313.455.795.825 1.447 1.111.652.279 1.386.419 2.201.419.724 0 1.363-.107 1.917-.322.554-.214.965-.506 1.232-.877.274-.376.411-.786.411-1.227a1.84 1.84 0 0 0-.391-1.17c-.261-.337-.692-.62-1.291-.847-.385-.15-1.236-.38-2.553-.692-1.317-.318-2.24-.617-2.768-.897-.684-.357-1.196-.799-1.535-1.325a3.293 3.293 0 0 1-.499-1.783c0-.721.205-1.393.616-2.017.411-.63 1.011-1.107 1.8-1.432.789-.325 1.666-.487 2.631-.487 1.062 0 1.998.172 2.806.516.815.338 1.441.838 1.878 1.501.437.662.672 1.413.704 2.251l-1.819.136c-.098-.903-.43-1.585-.997-2.046-.561-.461-1.392-.692-2.494-.692-1.148 0-1.986.211-2.514.633-.521.416-.782.919-.782 1.511 0 .513.186.935.557 1.266.366.332 1.317.673 2.856 1.023 1.545.345 2.605.647 3.179.906.834.384 1.45.871 1.848 1.462.398.585.597 1.26.597 2.027 0 .76-.219 1.477-.656 2.153-.436.669-1.066 1.192-1.887 1.569-.815.37-1.734.555-2.758.555-1.298 0-2.386-.188-3.267-.565-.873-.377-1.561-.942-2.063-1.695-.496-.76-.757-1.618-.783-2.573Zm25.071 3.06c.88.604 1.692 1.046 2.435 1.325l-.557 1.315c-1.03-.37-2.057-.955-3.081-1.754-1.063.592-2.236.887-3.521.887-1.297 0-2.474-.312-3.53-.935-1.056-.624-1.871-1.501-2.445-2.631-.567-1.13-.851-2.403-.851-3.82 0-1.409.287-2.692.861-3.848.573-1.156 1.388-2.037 2.445-2.641 1.062-.604 2.249-.906 3.56-.906 1.323 0 2.516.315 3.579.945a6.085 6.085 0 0 1 2.425 2.631c.561 1.124.842 2.394.842 3.81 0 1.175-.18 2.234-.538 3.176a6.652 6.652 0 0 1-1.624 2.446Zm-4.176-2.417c1.095.306 1.998.76 2.709 1.365 1.115-1.014 1.673-2.537 1.673-4.57 0-1.157-.199-2.167-.597-3.031-.391-.863-.968-1.533-1.731-2.007-.756-.48-1.607-.721-2.553-.721-1.414 0-2.588.484-3.52 1.452-.933.961-1.399 2.4-1.399 4.316 0 1.858.46 3.284 1.379 4.278.926.994 2.106 1.491 3.54 1.491.678 0 1.317-.127 1.917-.38a6.154 6.154 0 0 0-1.878-.819l.46-1.374Zm9.022 3.947v-14.285h1.897v12.599h7.061v1.686h-8.958ZM92.16 35.437l1.898.477c-.398 1.552-1.115 2.738-2.152 3.556-1.03.812-2.292 1.218-3.785 1.218-1.545 0-2.803-.312-3.775-.935-.965-.63-1.702-1.54-2.21-2.728-.502-1.189-.753-2.465-.753-3.83 0-1.487.283-2.783.85-3.887.574-1.111 1.386-1.952 2.436-2.524 1.056-.578 2.217-.867 3.482-.867 1.434 0 2.64.364 3.618 1.091.978.728 1.66 1.75 2.044 3.07l-1.868.438c-.332-1.04-.815-1.796-1.447-2.27-.633-.474-1.428-.712-2.387-.712-1.101 0-2.024.264-2.767.79-.737.526-1.255 1.234-1.555 2.124a8.46 8.46 0 0 0-.45 2.738c0 1.214.176 2.276.528 3.186.358.903.913 1.578 1.662 2.026.75.449 1.562.673 2.436.673 1.063 0 1.962-.305 2.699-.916.737-.61 1.236-1.517 1.496-2.718Zm3.565-.167c0-1.915.535-3.335 1.604-4.257.893-.767 1.982-1.15 3.266-1.15 1.428 0 2.595.468 3.502 1.403.906.93 1.359 2.215 1.359 3.859 0 1.331-.202 2.38-.606 3.147a4.223 4.223 0 0 1-1.751 1.773 5.084 5.084 0 0 1-2.504.633c-1.454 0-2.63-.464-3.53-1.393-.893-.929-1.34-2.267-1.34-4.014Zm1.81 0c0 1.326.29 2.32.87 2.982.58.656 1.31.984 2.19.984.874 0 1.601-.33 2.181-.993.581-.663.871-1.673.871-3.03 0-1.28-.294-2.248-.88-2.904-.581-.663-1.304-.994-2.172-.994-.88 0-1.61.328-2.19.984-.58.656-.87 1.647-.87 2.972Zm10.195 5.175V30.097h1.574v1.452c.326-.507.76-.913 1.301-1.218.541-.312 1.157-.468 1.848-.468.77 0 1.399.16 1.888.477a2.55 2.55 0 0 1 1.046 1.335c.822-1.208 1.891-1.812 3.208-1.812 1.03 0 1.823.286 2.377.858.554.565.831 1.438.831 2.62v7.104h-1.751v-6.519c0-.701-.058-1.205-.176-1.51a1.437 1.437 0 0 0-.616-.75 1.944 1.944 0 0 0-1.056-.283c-.73 0-1.337.244-1.819.73-.483.482-.724 1.255-.724 2.32v6.012h-1.76v-6.723c0-.78-.144-1.364-.43-1.754-.287-.39-.757-.585-1.409-.585-.495 0-.955.13-1.379.39-.417.26-.72.64-.909 1.14-.189.5-.284 1.221-.284 2.163v5.369h-1.76Zm16.885 3.965V30.097h1.603v1.345c.379-.527.806-.92 1.282-1.18.476-.266 1.053-.399 1.731-.399.886 0 1.669.227 2.347.682.678.455 1.19 1.098 1.535 1.93.346.824.519 1.73.519 2.718 0 1.059-.193 2.014-.577 2.864-.378.845-.933 1.494-1.663 1.95-.724.447-1.486.672-2.288.672a3.356 3.356 0 0 1-1.585-.37 3.608 3.608 0 0 1-1.144-.936v5.037h-1.76Zm1.594-9.08c0 1.33.27 2.315.811 2.952.542.636 1.197.955 1.966.955.783 0 1.451-.329 2.005-.985.561-.662.841-1.685.841-3.069 0-1.319-.274-2.306-.821-2.962-.541-.656-1.19-.984-1.947-.984-.749 0-1.414.35-1.995 1.052-.573.695-.86 1.709-.86 3.04Zm16.562 5.115v-1.52c-.809 1.169-1.907 1.754-3.296 1.754a4.245 4.245 0 0 1-1.721-.351c-.528-.234-.923-.526-1.184-.877-.254-.357-.433-.793-.537-1.306-.072-.344-.108-.89-.108-1.637v-6.411h1.76v5.739c0 .916.036 1.533.108 1.851.111.461.345.825.704 1.092.359.26.802.39 1.33.39s1.024-.134 1.487-.4c.463-.273.789-.64.978-1.101.195-.468.293-1.143.293-2.027v-5.544h1.76v10.348h-1.574Zm8.386-1.569.254 1.55a6.552 6.552 0 0 1-1.33.155c-.639 0-1.134-.1-1.486-.302-.352-.201-.6-.464-.744-.79-.143-.33-.215-1.022-.215-2.075v-5.953h-1.291v-1.364h1.291v-2.563l1.751-1.052v3.615h1.77v1.364h-1.77v6.05c0 .501.029.823.088.965a.766.766 0 0 0 .303.342c.143.084.346.126.606.126.196 0 .454-.023.773-.068Zm9.041-1.764 1.819.224c-.286 1.06-.818 1.881-1.594 2.466-.776.584-1.767.877-2.973.877-1.519 0-2.725-.465-3.618-1.394-.887-.935-1.33-2.244-1.33-3.926 0-1.741.449-3.093 1.349-4.054.9-.961 2.067-1.442 3.501-1.442 1.389 0 2.524.471 3.404 1.413.88.942 1.32 2.267 1.32 3.975 0 .104-.003.26-.01.468h-7.745c.065 1.137.388 2.007.968 2.611.58.604 1.304.907 2.171.907.645 0 1.196-.17 1.653-.507.456-.338.818-.877 1.085-1.618Zm-5.78-2.835h5.8c-.078-.87-.3-1.523-.665-1.959-.561-.675-1.288-1.013-2.181-1.013-.808 0-1.49.27-2.044.809-.548.539-.851 1.26-.91 2.163Zm23.99 4.483c-.58.642-1.212 1.126-1.897 1.45a5.204 5.204 0 0 1-2.22.478c-1.467 0-2.631-.493-3.491-1.48-.698-.806-1.047-1.706-1.047-2.7 0-.883.284-1.679.851-2.387.574-.715 1.428-1.341 2.562-1.88-.645-.741-1.076-1.342-1.291-1.803-.215-.461-.322-.906-.322-1.335 0-.857.335-1.601 1.007-2.231.678-.637 1.529-.955 2.552-.955.978 0 1.777.299 2.397.896.625.598.938 1.316.938 2.154 0 1.357-.903 2.517-2.709 3.478l2.573 3.264a8.105 8.105 0 0 0 .684-1.987l1.829.39c-.313 1.246-.737 2.273-1.271 3.078a10.21 10.21 0 0 0 2.239 2.193l-1.183 1.393c-.711-.455-1.444-1.127-2.201-2.017Zm-3.579-7.445c.763-.448 1.255-.841 1.477-1.18a1.96 1.96 0 0 0 .342-1.12c0-.487-.157-.883-.47-1.188-.306-.312-.691-.468-1.154-.468-.475 0-.873.153-1.193.458a1.505 1.505 0 0 0-.469 1.12c0 .221.055.455.166.702.117.24.29.497.518.77l.783.906Zm2.474 6.06-3.227-3.985c-.952.565-1.594 1.092-1.927 1.579-.332.48-.499.958-.499 1.432 0 .578.232 1.18.695 1.803.463.623 1.118.935 1.966.935.528 0 1.072-.162 1.633-.487a4.004 4.004 0 0 0 1.359-1.276Zm12.411 3.07V26.16h2.855l3.394 10.114c.313.942.541 1.647.685 2.115.163-.52.417-1.283.762-2.29l3.433-9.938h2.553v14.284h-1.829V28.489l-4.166 11.956h-1.712l-4.147-12.16v12.16h-1.828Zm23.496-1.277c-.652.552-1.281.942-1.888 1.17-.6.227-1.245.34-1.936.34-1.141 0-2.018-.275-2.631-.828-.613-.558-.919-1.27-.919-2.133 0-.507.114-.968.342-1.384a2.92 2.92 0 0 1 .91-1.014 4.341 4.341 0 0 1 1.271-.574c.345-.091.867-.179 1.565-.263 1.421-.17 2.467-.37 3.139-.605.007-.24.01-.393.01-.458 0-.714-.166-1.217-.499-1.51-.45-.396-1.118-.594-2.005-.594-.828 0-1.441.146-1.838.438-.392.286-.682.796-.871 1.53l-1.721-.234c.156-.734.414-1.325.772-1.773.359-.455.877-.802 1.555-1.043.679-.247 1.464-.37 2.357-.37.887 0 1.608.104 2.162.312.554.208.962.47 1.222.79.261.31.444.707.548 1.188.059.299.088.838.088 1.617v2.339c0 1.63.036 2.663.108 3.098.078.429.228.841.449 1.238h-1.838a3.7 3.7 0 0 1-.352-1.277Zm-.147-3.917c-.639.26-1.597.481-2.875.663-.724.104-1.236.22-1.536.35a1.517 1.517 0 0 0-.939 1.404c0 .468.176.857.529 1.169.358.312.88.468 1.564.468.678 0 1.282-.147 1.81-.439a2.756 2.756 0 0 0 1.163-1.218c.19-.396.284-.98.284-1.754v-.643Zm11.496 1.403 1.731.224c-.189 1.19-.675 2.121-1.457 2.797-.776.669-1.731 1.004-2.865 1.004-1.422 0-2.566-.462-3.433-1.384-.861-.929-1.291-2.257-1.291-3.985 0-1.117.186-2.095.557-2.933.372-.838.936-1.465 1.692-1.88a5.047 5.047 0 0 1 2.484-.634c1.128 0 2.051.286 2.768.858.717.565 1.177 1.37 1.379 2.416l-1.711.263c-.163-.695-.454-1.218-.871-1.569-.411-.35-.909-.526-1.496-.526-.887 0-1.607.319-2.162.955-.554.63-.831 1.63-.831 3.001 0 1.39.267 2.4.802 3.03.535.63 1.232.946 2.093.946.691 0 1.268-.212 1.731-.634.463-.422.756-1.072.88-1.949Zm3.438 3.791V26.16h1.76v5.126c.822-.949 1.858-1.423 3.11-1.423.769 0 1.438.153 2.005.458.567.299.971.715 1.213 1.247.247.533.371 1.306.371 2.32v6.557h-1.76v-6.558c0-.877-.192-1.513-.577-1.91-.378-.402-.916-.604-1.614-.604-.521 0-1.014.137-1.477.41-.456.266-.782.63-.978 1.09-.195.462-.293 1.099-.293 1.91v5.662h-1.76Zm11.359-12.268V26.16h1.76v2.017h-1.76Zm0 12.268V30.097h1.76v10.348h-1.76Zm4.65 0V30.097h1.584v1.471c.763-1.137 1.865-1.705 3.306-1.705.626 0 1.2.114 1.721.341.528.221.923.513 1.184.877.261.364.443.796.547 1.296.066.325.098.893.098 1.705v6.363h-1.76V34.15c0-.714-.069-1.247-.206-1.598a1.651 1.651 0 0 0-.733-.847c-.346-.215-.753-.322-1.223-.322-.749 0-1.398.237-1.946.711-.541.475-.812 1.374-.812 2.7v5.65h-1.76Zm18.46-3.333 1.819.224c-.287 1.06-.819 1.881-1.594 2.466-.776.584-1.767.877-2.974.877-1.519 0-2.725-.465-3.618-1.394-.887-.935-1.33-2.244-1.33-3.926 0-1.741.45-3.093 1.349-4.054.9-.961 2.067-1.442 3.502-1.442 1.388 0 2.523.471 3.403 1.413.88.942 1.32 2.267 1.32 3.975 0 .104-.003.26-.009.468h-7.746c.065 1.137.388 2.007.968 2.611.58.604 1.304.907 2.171.907.646 0 1.197-.17 1.653-.507.456-.338.818-.877 1.086-1.618Zm-5.78-2.835h5.799c-.078-.87-.3-1.523-.665-1.959-.561-.675-1.288-1.013-2.181-1.013-.808 0-1.49.27-2.044.809-.547.539-.851 1.26-.909 2.163ZM134.639 63.393V49.109h1.897v12.598h7.061v1.686h-8.958Zm18.312-3.333 1.82.225c-.287 1.059-.819 1.88-1.595 2.465-.775.584-1.767.877-2.973.877-1.519 0-2.725-.465-3.618-1.394-.887-.935-1.33-2.244-1.33-3.926 0-1.741.449-3.092 1.349-4.054.9-.961 2.067-1.442 3.501-1.442 1.389 0 2.524.471 3.404 1.413.88.942 1.32 2.267 1.32 3.976 0 .103-.003.26-.01.467h-7.745c.065 1.137.388 2.008.968 2.612.58.604 1.304.906 2.171.906.646 0 1.196-.17 1.653-.507.456-.338.818-.877 1.085-1.617Zm-5.78-2.835h5.8c-.078-.87-.3-1.523-.665-1.958-.561-.676-1.288-1.014-2.181-1.014-.808 0-1.49.27-2.044.81-.548.538-.851 1.26-.91 2.162Zm16.797 4.892c-.652.552-1.281.941-1.887 1.169-.6.227-1.245.34-1.937.34-1.141 0-2.018-.275-2.63-.827-.613-.56-.92-1.27-.92-2.134 0-.507.114-.968.343-1.384.234-.422.538-.76.909-1.013a4.344 4.344 0 0 1 1.272-.575c.345-.091.867-.179 1.564-.263 1.422-.17 2.468-.37 3.14-.604.006-.24.009-.393.009-.458 0-.715-.166-1.218-.498-1.51-.45-.397-1.118-.595-2.005-.595-.828 0-1.441.146-1.839.439-.391.285-.681.795-.87 1.53l-1.722-.234c.157-.734.415-1.326.773-1.774.359-.454.877-.802 1.555-1.042.678-.247 1.464-.37 2.357-.37.887 0 1.607.103 2.161.311.555.208.962.471 1.223.79.261.311.443.707.548 1.188.058.299.088.838.088 1.617v2.339c0 1.63.036 2.663.107 3.099.078.428.228.84.45 1.237h-1.839a3.739 3.739 0 0 1-.352-1.276Zm-.146-3.917c-.639.26-1.598.48-2.876.662-.723.104-1.235.221-1.535.35a1.517 1.517 0 0 0-.939 1.404c0 .468.176.857.528 1.17.359.311.88.467 1.565.467.678 0 1.281-.146 1.809-.438a2.764 2.764 0 0 0 1.164-1.218c.189-.397.284-.981.284-1.754V58.2Zm4.699 5.193V53.045h1.584v1.569c.404-.734.776-1.218 1.115-1.452.346-.234.724-.35 1.135-.35.593 0 1.196.188 1.809.565l-.607 1.627c-.43-.254-.86-.38-1.29-.38a1.67 1.67 0 0 0-1.037.35c-.307.228-.525.546-.655.955a6.795 6.795 0 0 0-.294 2.046v5.418h-1.76Zm6.89 0V53.045h1.584v1.471c.763-1.136 1.865-1.705 3.306-1.705a4.27 4.27 0 0 1 1.721.341c.528.221.922.514 1.183.877.261.364.444.796.548 1.296.065.325.098.893.098 1.705v6.363h-1.761v-6.294c0-.715-.068-1.248-.205-1.598a1.658 1.658 0 0 0-.734-.848c-.345-.215-.753-.322-1.222-.322-.75 0-1.399.237-1.946.712-.541.474-.812 1.373-.812 2.699v5.65h-1.76Zm11.359-12.267v-2.017h1.76v2.017h-1.76Zm0 12.267V53.045h1.76v10.348h-1.76Zm4.65 0V53.045h1.584v1.471c.763-1.136 1.865-1.705 3.306-1.705.626 0 1.2.114 1.721.341.528.221.923.514 1.184.877.26.364.443.796.547 1.296.065.325.098.893.098 1.705v6.363h-1.76v-6.294c0-.715-.069-1.248-.206-1.598a1.656 1.656 0 0 0-.733-.848c-.346-.215-.753-.322-1.223-.322-.749 0-1.398.237-1.946.712-.541.474-.812 1.373-.812 2.699v5.65h-1.76Zm11.027.857 1.711.254c.072.526.271.91.597 1.15.437.324 1.033.487 1.79.487.815 0 1.444-.163 1.887-.488.443-.324.743-.779.9-1.364.091-.357.133-1.107.127-2.25-.769.902-1.728 1.354-2.875 1.354-1.428 0-2.533-.513-3.316-1.54-.782-1.026-1.173-2.257-1.173-3.692 0-.988.179-1.897.538-2.729.358-.838.876-1.484 1.555-1.939.684-.454 1.486-.682 2.405-.682 1.226 0 2.237.494 3.032 1.481v-1.247h1.624v8.945c0 1.61-.167 2.75-.499 3.42-.326.675-.848 1.208-1.565 1.598-.711.39-1.587.584-2.631.584-1.238 0-2.239-.279-3.002-.838-.763-.552-1.131-1.386-1.105-2.504Zm1.457-6.216c0 1.358.271 2.348.812 2.972.541.623 1.219.935 2.034.935.808 0 1.486-.308 2.034-.925.548-.624.822-1.599.822-2.924 0-1.266-.284-2.221-.851-2.864-.561-.643-1.239-.965-2.034-.965-.783 0-1.448.318-1.996.955-.547.63-.821 1.569-.821 2.816Z" fill="#9C9C9C"/><path d="m11.623 249.805 5.506-14.284h2.044l5.868 14.284H22.88l-1.673-4.326h-5.995l-1.574 4.326h-2.015Zm4.137-5.866h4.86l-1.496-3.956c-.456-1.201-.795-2.189-1.017-2.962a18.16 18.16 0 0 1-.773 2.729l-1.574 4.189Zm10.772 9.832v-14.314h1.604v1.345c.378-.526.805-.919 1.281-1.179.476-.266 1.053-.4 1.731-.4.887 0 1.67.228 2.348.682.678.455 1.19 1.098 1.535 1.93.346.825.518 1.731.518 2.718 0 1.059-.192 2.014-.577 2.865-.378.844-.932 1.494-1.662 1.948-.724.449-1.487.673-2.289.673a3.362 3.362 0 0 1-1.584-.37 3.61 3.61 0 0 1-1.144-.936v5.038h-1.76Zm1.594-9.081c0 1.331.271 2.315.812 2.952.541.636 1.197.955 1.966.955.782 0 1.45-.328 2.005-.984.56-.663.84-1.686.84-3.07 0-1.318-.273-2.306-.82-2.962-.542-.656-1.19-.984-1.947-.984-.75 0-1.415.351-1.995 1.053-.574.695-.86 1.708-.86 3.04Zm9.756 9.081v-14.314h1.604v1.345c.378-.526.805-.919 1.28-1.179.477-.266 1.054-.4 1.732-.4.887 0 1.669.228 2.347.682.678.455 1.19 1.098 1.535 1.93.346.825.519 1.731.519 2.718 0 1.059-.193 2.014-.577 2.865-.378.844-.933 1.494-1.663 1.948-.723.449-1.486.673-2.288.673a3.362 3.362 0 0 1-1.585-.37 3.612 3.612 0 0 1-1.144-.936v5.038h-1.76Zm1.594-9.081c0 1.331.27 2.315.812 2.952.54.636 1.196.955 1.965.955.783 0 1.451-.328 2.005-.984.561-.663.841-1.686.841-3.07 0-1.318-.273-2.306-.821-2.962-.541-.656-1.19-.984-1.946-.984-.75 0-1.415.351-1.995 1.053-.574.695-.861 1.708-.861 3.04Zm9.716 5.115v-14.284h1.76v14.284h-1.76Zm4.709-12.267v-2.017h1.76v2.017h-1.76Zm0 12.267v-10.348h1.76v10.348h-1.76Zm11.428-3.79 1.73.224c-.188 1.189-.674 2.121-1.456 2.796-.776.669-1.732 1.004-2.866 1.004-1.421 0-2.566-.461-3.433-1.384-.86-.929-1.29-2.257-1.29-3.985 0-1.117.185-2.095.557-2.933.371-.838.935-1.465 1.692-1.88a5.039 5.039 0 0 1 2.484-.634c1.128 0 2.05.286 2.767.858.718.565 1.177 1.37 1.38 2.416l-1.712.263c-.163-.695-.453-1.218-.87-1.568-.411-.351-.91-.527-1.497-.527-.886 0-1.607.319-2.161.955-.554.63-.832 1.631-.832 3.001 0 1.39.268 2.401.802 3.031.535.63 1.233.945 2.093.945.691 0 1.269-.211 1.731-.634.463-.422.757-1.071.88-1.948Zm10.215 2.514c-.652.552-1.281.941-1.888 1.169-.6.227-1.245.341-1.936.341-1.141 0-2.018-.276-2.631-.828-.613-.559-.92-1.27-.92-2.134 0-.507.115-.968.343-1.384.235-.422.538-.76.91-1.013a4.335 4.335 0 0 1 1.27-.575c.346-.091.868-.179 1.566-.263 1.42-.169 2.467-.37 3.139-.604.006-.241.01-.393.01-.458 0-.715-.166-1.218-.5-1.51-.449-.397-1.117-.595-2.004-.595-.828 0-1.44.146-1.839.439-.39.285-.68.795-.87 1.529l-1.721-.233c.156-.734.414-1.326.772-1.774.359-.455.877-.802 1.555-1.042.678-.247 1.464-.371 2.357-.371.887 0 1.608.104 2.162.312.554.208.961.471 1.222.789.261.312.444.708.548 1.189.058.299.088.838.088 1.618v2.338c0 1.63.036 2.663.107 3.099.079.428.229.841.45 1.237h-1.838a3.71 3.71 0 0 1-.352-1.276Zm-.147-3.917c-.639.259-1.598.48-2.875.662-.724.104-1.236.221-1.536.351a1.515 1.515 0 0 0-.939 1.403c0 .468.176.857.528 1.169.359.312.88.468 1.565.468.678 0 1.281-.146 1.81-.439a2.756 2.756 0 0 0 1.163-1.217c.19-.397.284-.981.284-1.754v-.643Zm8.563 3.624.253 1.549a6.549 6.549 0 0 1-1.33.156c-.639 0-1.134-.1-1.486-.302-.352-.201-.6-.464-.744-.789-.143-.331-.215-1.023-.215-2.075v-5.954h-1.29v-1.364h1.29v-2.562l1.75-1.053v3.615h1.771v1.364h-1.77v6.051c0 .5.03.822.088.965a.77.77 0 0 0 .303.341c.144.084.346.126.606.126.196 0 .454-.022.773-.068Zm1.94-10.698v-2.017h1.76v2.017H85.9Zm0 12.267v-10.348h1.76v10.348H85.9Zm3.995-5.174c0-1.916.535-3.335 1.604-4.258.893-.766 1.982-1.15 3.267-1.15 1.427 0 2.594.468 3.5 1.403.907.929 1.36 2.216 1.36 3.859 0 1.332-.202 2.381-.606 3.147a4.217 4.217 0 0 1-1.75 1.773 5.076 5.076 0 0 1-2.504.634c-1.454 0-2.631-.465-3.531-1.394-.893-.928-1.34-2.267-1.34-4.014Zm1.81 0c0 1.325.29 2.319.87 2.982.58.656 1.31.984 2.19.984.874 0 1.601-.332 2.181-.994.58-.663.87-1.673.87-3.03 0-1.28-.293-2.248-.88-2.904-.58-.663-1.303-.994-2.17-.994-.88 0-1.61.328-2.191.984-.58.656-.87 1.647-.87 2.972Zm10.195 5.174v-10.348h1.584v1.472c.763-1.137 1.865-1.706 3.306-1.706.626 0 1.2.114 1.721.341.528.221.923.514 1.184.877.26.364.443.796.547 1.296.065.325.098.893.098 1.705v6.363h-1.76v-6.294c0-.715-.069-1.248-.206-1.598a1.655 1.655 0 0 0-.733-.848c-.346-.214-.753-.322-1.223-.322-.75 0-1.398.237-1.946.712-.541.474-.812 1.374-.812 2.699v5.651h-1.76Z" fill="#2D2D2D"/><path d="m94.532 291.359 5.507-14.284h2.044l5.868 14.284h-2.162l-1.672-4.326h-5.995l-1.575 4.326h-2.014Zm4.137-5.865h4.861l-1.496-3.956c-.457-1.202-.796-2.189-1.017-2.962a18.303 18.303 0 0 1-.773 2.728l-1.575 4.19Zm21.228.857 1.897.477c-.398 1.553-1.115 2.738-2.152 3.557-1.03.812-2.291 1.218-3.784 1.218-1.546 0-2.804-.312-3.776-.936-.965-.63-1.701-1.539-2.21-2.728a9.741 9.741 0 0 1-.753-3.829c0-1.488.284-2.784.851-3.888.574-1.111 1.385-1.952 2.435-2.523 1.056-.579 2.217-.868 3.482-.868 1.434 0 2.64.364 3.618 1.092.978.727 1.66 1.75 2.044 3.069l-1.868.438c-.332-1.039-.815-1.796-1.447-2.27-.632-.474-1.428-.711-2.386-.711-1.102 0-2.025.263-2.768.789-.737.526-1.255 1.234-1.555 2.124a8.46 8.46 0 0 0-.45 2.738c0 1.215.176 2.277.528 3.186.359.903.913 1.579 1.663 2.027.75.448 1.561.672 2.435.672 1.063 0 1.963-.305 2.699-.916.737-.61 1.236-1.516 1.497-2.718Zm4.767 5.008v-14.284h1.897v14.284h-1.897Zm5.452 0v-14.284h4.939c1.115 0 1.966.068 2.553.205.821.188 1.522.529 2.102 1.023.757.636 1.321 1.452 1.692 2.445.379.988.568 2.118.568 3.391 0 1.085-.128 2.046-.382 2.884-.254.838-.58 1.533-.978 2.085-.398.546-.834.978-1.31 1.296-.47.312-1.04.549-1.712.712-.665.162-1.431.243-2.298.243h-5.174Zm1.898-1.685h3.061c.945 0 1.685-.088 2.22-.264.541-.175.971-.422 1.291-.74.45-.448.798-1.049 1.046-1.803.254-.76.382-1.679.382-2.757 0-1.494-.248-2.641-.744-3.44-.489-.805-1.085-1.344-1.789-1.617-.509-.195-1.327-.292-2.455-.292h-3.012v10.913Zm21.828 1.685v-12.598h-4.724v-1.686h11.365v1.686h-4.744v12.598h-1.897Zm7.809 0v-10.348h1.585v1.569c.404-.734.775-1.218 1.114-1.452a1.99 1.99 0 0 1 1.135-.35c.593 0 1.196.188 1.809.565l-.606 1.627c-.43-.253-.861-.38-1.291-.38-.385 0-.73.117-1.037.351-.306.227-.525.545-.655.955a6.79 6.79 0 0 0-.293 2.046v5.417h-1.761Zm13.668-1.276c-.652.552-1.282.942-1.888 1.169-.6.227-1.245.341-1.936.341-1.141 0-2.018-.276-2.631-.828-.613-.559-.92-1.27-.92-2.134 0-.507.115-.968.343-1.384.234-.422.538-.76.909-1.013a4.358 4.358 0 0 1 1.272-.575c.345-.091.867-.178 1.564-.263 1.422-.169 2.468-.37 3.14-.604.006-.24.01-.393.01-.458 0-.715-.167-1.218-.499-1.51-.45-.396-1.118-.595-2.005-.595-.828 0-1.441.147-1.839.439-.391.286-.681.796-.87 1.53l-1.721-.234c.156-.734.414-1.325.772-1.774.359-.454.877-.802 1.555-1.042.678-.247 1.464-.37 2.357-.37.887 0 1.607.104 2.162.311.554.208.961.471 1.222.79.261.311.443.708.548 1.188.058.299.088.838.088 1.618v2.338c0 1.631.036 2.664.107 3.099.079.428.229.841.45 1.237h-1.838a3.695 3.695 0 0 1-.352-1.276Zm-.147-3.917c-.639.26-1.598.481-2.875.662-.724.104-1.236.221-1.536.351a1.52 1.52 0 0 0-.939 1.403c0 .468.176.858.528 1.169.359.312.881.468 1.565.468.678 0 1.281-.146 1.809-.438a2.76 2.76 0 0 0 1.164-1.218c.189-.396.284-.981.284-1.754v-.643Zm4.718 5.193v-10.348h1.585v1.472c.763-1.137 1.865-1.705 3.305-1.705.626 0 1.2.113 1.722.341.528.22.922.513 1.183.877.261.363.443.795.548 1.295.065.325.098.894.098 1.706v6.362h-1.761v-6.294c0-.715-.068-1.247-.205-1.598a1.66 1.66 0 0 0-.734-.848c-.345-.214-.753-.321-1.222-.321-.75 0-1.399.237-1.946.711-.542.474-.812 1.374-.812 2.699v5.651h-1.761Zm10.646-3.089 1.741-.272c.097.695.368 1.227.811 1.598.45.37 1.076.555 1.878.555.809 0 1.408-.162 1.8-.487.391-.331.586-.718.586-1.16 0-.396-.172-.708-.518-.935-.241-.156-.841-.354-1.799-.594-1.291-.325-2.188-.605-2.69-.838-.495-.241-.874-.569-1.134-.985a2.641 2.641 0 0 1-.382-1.393c0-.461.105-.887.313-1.276.215-.397.505-.725.871-.984.273-.202.645-.371 1.114-.507a5.28 5.28 0 0 1 1.526-.214c.815 0 1.529.117 2.142.35.619.234 1.076.553 1.369.955.294.396.496.929.607 1.598l-1.722.234c-.078-.533-.306-.948-.684-1.247-.372-.299-.9-.448-1.585-.448-.808 0-1.385.133-1.731.399-.345.266-.518.578-.518.936 0 .227.072.432.215.613.143.189.368.345.675.468.176.065.694.214 1.555.448 1.245.332 2.112.604 2.601.819.496.208.884.513 1.164.916.281.402.421.903.421 1.5a2.94 2.94 0 0 1-.519 1.657c-.339.513-.831.912-1.476 1.198-.646.279-1.376.419-2.191.419-1.35 0-2.38-.279-3.091-.838-.704-.559-1.154-1.387-1.349-2.485Zm17.696 1.813c-.652.552-1.281.942-1.887 1.169-.6.227-1.245.341-1.937.341-1.141 0-2.017-.276-2.63-.828-.613-.559-.92-1.27-.92-2.134 0-.507.114-.968.343-1.384.234-.422.538-.76.909-1.013a4.358 4.358 0 0 1 1.272-.575c.345-.091.867-.178 1.564-.263 1.422-.169 2.468-.37 3.14-.604.006-.24.01-.393.01-.458 0-.715-.167-1.218-.499-1.51-.45-.396-1.118-.595-2.005-.595-.828 0-1.441.147-1.839.439-.391.286-.681.796-.87 1.53l-1.721-.234c.156-.734.414-1.325.772-1.774.359-.454.877-.802 1.555-1.042.678-.247 1.464-.37 2.357-.37.887 0 1.607.104 2.161.311.555.208.962.471 1.223.79.261.311.443.708.548 1.188.058.299.088.838.088 1.618v2.338c0 1.631.036 2.664.107 3.099.079.428.228.841.45 1.237h-1.838a3.717 3.717 0 0 1-.353-1.276Zm-.146-3.917c-.639.26-1.598.481-2.876.662-.723.104-1.235.221-1.535.351a1.52 1.52 0 0 0-.939 1.403c0 .468.176.858.528 1.169.359.312.88.468 1.565.468.678 0 1.281-.146 1.809-.438a2.766 2.766 0 0 0 1.164-1.218c.189-.396.284-.981.284-1.754v-.643Zm11.496 1.403 1.731.224c-.189 1.189-.675 2.121-1.457 2.796-.776.67-1.731 1.004-2.866 1.004-1.421 0-2.565-.461-3.433-1.384-.86-.928-1.291-2.257-1.291-3.985 0-1.117.186-2.095.558-2.933.372-.837.936-1.464 1.692-1.88a5.049 5.049 0 0 1 2.484-.633c1.128 0 2.051.285 2.768.857.717.565 1.177 1.371 1.379 2.416l-1.712.264c-.163-.696-.453-1.218-.87-1.569-.411-.351-.91-.526-1.497-.526-.886 0-1.607.318-2.161.955-.554.63-.831 1.63-.831 3.001 0 1.39.267 2.4.802 3.03.534.63 1.232.945 2.093.945.691 0 1.268-.211 1.731-.633.463-.423.756-1.072.88-1.949Zm7.281 2.221.254 1.55a6.546 6.546 0 0 1-1.33.156c-.639 0-1.134-.101-1.486-.302-.353-.202-.6-.465-.744-.79-.143-.331-.215-1.023-.215-2.075v-5.953h-1.291v-1.365h1.291v-2.562l1.751-1.052v3.614h1.77v1.365h-1.77v6.05c0 .501.029.822.088.965a.763.763 0 0 0 .303.341c.143.084.345.127.606.127.196 0 .453-.023.773-.069Zm1.941-10.698v-2.017h1.76v2.017h-1.76Zm0 12.267v-10.348h1.76v10.348h-1.76Zm3.995-5.174c0-1.916.535-3.335 1.604-4.258.893-.766 1.982-1.149 3.266-1.149 1.428 0 2.595.467 3.502 1.403.906.929 1.359 2.215 1.359 3.858 0 1.332-.202 2.381-.606 3.147a4.23 4.23 0 0 1-1.751 1.774 5.086 5.086 0 0 1-2.504.633c-1.454 0-2.63-.464-3.53-1.393-.893-.929-1.34-2.267-1.34-4.015Zm1.809 0c0 1.325.29 2.319.871 2.982.58.656 1.31.984 2.19.984.874 0 1.601-.331 2.181-.994.581-.662.871-1.673.871-3.03 0-1.28-.294-2.248-.88-2.904-.581-.662-1.304-.994-2.172-.994-.88 0-1.61.328-2.19.985-.581.656-.871 1.646-.871 2.971Zm10.196 5.174v-10.348h1.584v1.472c.763-1.137 1.865-1.705 3.306-1.705a4.25 4.25 0 0 1 1.721.341c.528.22.922.513 1.183.877.261.363.444.795.548 1.295.065.325.098.894.098 1.706v6.362h-1.761v-6.294c0-.715-.068-1.247-.205-1.598a1.658 1.658 0 0 0-.733-.848c-.346-.214-.754-.321-1.223-.321-.75 0-1.399.237-1.946.711-.541.474-.812 1.374-.812 2.699v5.651h-1.76Zm10.645-3.089 1.741-.272c.098.695.368 1.227.812 1.598.449.37 1.075.555 1.877.555.809 0 1.409-.162 1.8-.487.391-.331.587-.718.587-1.16 0-.396-.173-.708-.519-.935-.241-.156-.841-.354-1.799-.594-1.291-.325-2.188-.605-2.69-.838-.495-.241-.873-.569-1.134-.985a2.641 2.641 0 0 1-.382-1.393c0-.461.105-.887.313-1.276.215-.397.506-.725.871-.984.274-.202.645-.371 1.115-.507a5.273 5.273 0 0 1 1.525-.214c.815 0 1.529.117 2.142.35.62.234 1.076.553 1.369.955.294.396.496.929.607 1.598l-1.722.234c-.078-.533-.306-.948-.684-1.247-.372-.299-.9-.448-1.585-.448-.808 0-1.385.133-1.731.399-.345.266-.518.578-.518.936 0 .227.072.432.215.613.144.189.369.345.675.468.176.065.694.214 1.555.448 1.245.332 2.113.604 2.602.819.495.208.883.513 1.163.916.281.402.421.903.421 1.5 0 .585-.173 1.137-.518 1.657-.339.513-.832.912-1.477 1.198-.646.279-1.376.419-2.191.419-1.35 0-2.38-.279-3.09-.838-.705-.559-1.154-1.387-1.35-2.485Z" fill="#9C9C9C"/></svg>