<svg width="81" height="81" fill="none" xmlns="http://www.w3.org/2000/svg"><rect x=".776" y=".601" width="80" height="80" rx="10" fill="#F6F6F6"/><path fill="#F6F6F6" d="M16.776 16.601h48v48h-48z"/><path fill-rule="evenodd" clip-rule="evenodd" d="M19.305 50.583 47.75 21.52l1.343 1.372-28.446 29.063-1.342-1.372Zm5.495 5.614 28.446-29.063 1.343 1.372L26.143 57.57 24.8 56.197Zm5.495 5.614L58.74 32.748l1.343 1.373-28.446 29.063-1.343-1.373Z" fill="#000"/><path d="M44.511 50.433c0 7.825-6.208 14.168-13.867 14.168-7.66 0-13.868-6.343-13.868-14.168 0-7.825 6.209-14.169 13.868-14.169 7.659 0 13.867 6.344 13.867 14.169Z" fill="#fff"/><path fill-rule="evenodd" clip-rule="evenodd" d="M30.644 62.681c6.56 0 11.947-5.445 11.947-12.248 0-6.804-5.387-12.249-11.947-12.249S18.696 43.63 18.696 50.433c0 6.803 5.388 12.248 11.948 12.248Zm0 1.92c7.659 0 13.867-6.343 13.867-14.168 0-7.825-6.208-14.169-13.867-14.169-7.66 0-13.868 6.344-13.868 14.169S22.985 64.6 30.644 64.6Z" fill="#000"/><path d="M39.636 50.394c0 5.096-4.043 9.226-9.03 9.226-4.987 0-9.03-4.13-9.03-9.226 0-5.095 4.043-9.226 9.03-9.226 4.987 0 9.03 4.13 9.03 9.226Z" fill="#fff"/><path fill-rule="evenodd" clip-rule="evenodd" d="M30.606 57.7c3.888 0 7.11-3.232 7.11-7.306s-3.222-7.306-7.11-7.306c-3.888 0-7.11 3.232-7.11 7.306s3.222 7.306 7.11 7.306Zm0 1.92c4.987 0 9.03-4.13 9.03-9.226 0-5.095-4.043-9.226-9.03-9.226-4.987 0-9.03 4.13-9.03 9.226 0 5.096 4.043 9.226 9.03 9.226Z" fill="#000"/><path d="M64.776 28.044c0 6.32-5.014 11.443-11.2 11.443-6.185 0-11.2-5.123-11.2-11.443 0-6.32 5.015-11.443 11.2-11.443 6.186 0 11.2 5.123 11.2 11.443Z" fill="#fff"/><path fill-rule="evenodd" clip-rule="evenodd" d="M53.576 37.567c5.087 0 9.28-4.225 9.28-9.523s-4.193-9.523-9.28-9.523-9.28 4.225-9.28 9.523 4.194 9.523 9.28 9.523Zm0 1.92c6.186 0 11.2-5.123 11.2-11.443 0-6.32-5.014-11.443-11.2-11.443-6.185 0-11.2 5.123-11.2 11.443 0 6.32 5.015 11.443 11.2 11.443Z" fill="#ED1C24"/><path fill-rule="evenodd" clip-rule="evenodd" d="m59.922 24.071-6.669 8.227-5.362-4.866 1.29-1.422 3.86 3.502 5.39-6.65 1.49 1.21Z" fill="#ED1C24"/></svg>