<svg width="80" height="81" fill="none" xmlns="http://www.w3.org/2000/svg"><rect y=".601" width="80" height="80" rx="10" fill="#F6F6F6"/><g clip-path="url(#a)"><path d="M21.995 54.608V25.679s3.537 3.845 14.432 3.845 14.749-4.143 14.749-4.143v29.227c-11.396 3.668-17.785 3.785-29.18 0Z" fill="#fff"/><path d="M52.055 24.209c0 3.097-6.922 5.607-15.642 5.607-8.72 0-15.642-2.51-15.642-5.607 0-3.097 6.921-5.608 15.642-5.608 8.72 0 15.642 2.51 15.642 5.608Z" fill="#fff"/><path fill-rule="evenodd" clip-rule="evenodd" d="M50.18 24.209c0-.008.001-.056-.06-.162-.067-.12-.206-.3-.47-.525-.543-.46-1.445-.965-2.738-1.427-2.569-.92-6.264-1.527-10.485-1.527-4.221 0-7.916.608-10.485 1.527-1.293.462-2.195.966-2.737 1.427-.265.225-.404.405-.471.525-.06.106-.06.154-.06.161 0 .008 0 .056.06.163.067.119.206.3.47.525.543.46 1.445.964 2.738 1.427 2.569.919 6.264 1.526 10.485 1.526 4.221 0 7.916-.607 10.485-1.526 1.293-.463 2.195-.967 2.737-1.427.265-.225.404-.406.471-.525.061-.107.06-.155.06-.162Zm-13.753 5.607c8.77 0 15.732-2.51 15.732-5.607 0-3.097-6.961-5.608-15.732-5.608-8.77 0-15.732 2.51-15.732 5.608 0 3.097 6.961 5.607 15.732 5.607Z" fill="#000"/><path fill-rule="evenodd" clip-rule="evenodd" d="m20.795 52.682-.1-28.659 1.968-.009.1 28.66-1.968.008Zm29.397.194V24.305h1.967v28.57h-1.967Z" fill="#000"/><path fill-rule="evenodd" clip-rule="evenodd" d="M26.438 55.58c2.526.932 6.083 1.528 10.059 1.528 3.976 0 7.532-.596 10.059-1.528 1.267-.468 2.224-1.001 2.846-1.543.624-.545.818-1.01.818-1.371h1.968c0 1.138-.629 2.1-1.493 2.853-.867.756-2.064 1.392-3.458 1.907-2.796 1.031-6.594 1.65-10.74 1.65-4.147 0-7.944-.619-10.74-1.65-1.395-.515-2.592-1.15-3.458-1.907-.865-.754-1.493-1.715-1.493-2.853h1.967c0 .36.195.826.819 1.37.622.543 1.578 1.076 2.846 1.544Z" fill="#000"/><path d="m26.867 42.092 1.373-.133c.083.461.25.8.501 1.016.255.216.597.324 1.026.324.455 0 .797-.095 1.025-.286.232-.194.349-.42.349-.677a.62.62 0 0 0-.148-.42c-.096-.118-.264-.22-.506-.305a17.324 17.324 0 0 0-1.13-.306c-.757-.187-1.288-.418-1.593-.691-.43-.385-.644-.854-.644-1.407 0-.357.1-.689.3-.997a1.91 1.91 0 0 1 .873-.711c.382-.162.841-.243 1.379-.243.877 0 1.537.192 1.979.577.445.385.679.898.701 1.54l-1.412.063c-.06-.36-.19-.617-.39-.773-.198-.16-.495-.239-.893-.239-.41 0-.731.085-.963.253a.51.51 0 0 0-.224.434c0 .166.07.307.21.425.177.15.61.305 1.297.467.687.162 1.194.33 1.521.506.331.172.589.408.773.71.188.3.282.67.282 1.112a2.068 2.068 0 0 1-1.279 1.908c-.407.168-.914.253-1.521.253-.884 0-1.563-.204-2.037-.61-.474-.411-.757-1.007-.85-1.79Zm12.502 1.388c.346.248.723.446 1.13.592l-.52.997a3.219 3.219 0 0 1-.625-.263 28.652 28.652 0 0 1-.94-.62c-.457.2-.964.3-1.52.3-1.076 0-1.918-.316-2.529-.948-.607-.633-.911-1.522-.911-2.667 0-1.141.305-2.029.916-2.661.61-.636 1.439-.954 2.485-.954 1.037 0 1.859.318 2.466.954.607.633.911 1.52.911 2.661 0 .604-.084 1.136-.253 1.593-.127.35-.33.689-.61 1.017Zm-1.136-.796c.182-.213.317-.47.406-.773a3.57 3.57 0 0 0 .138-1.04c0-.807-.178-1.41-.534-1.808-.356-.4-.822-.6-1.398-.6-.575 0-1.043.2-1.402.6-.356.401-.534 1.004-.534 1.808 0 .818.178 1.43.534 1.837.36.404.813.605 1.36.605.203 0 .395-.033.577-.1a4.089 4.089 0 0 0-.873-.438l.396-.807c.464.16.908.398 1.33.716Zm3.149 1.684v-6.936h1.412v5.758h3.51v1.178h-4.922Z" fill="#000"/><path d="m39.913 58.949-1.312-2.361 6.56-1.237 1.798 2.248c-4.085 1.087-4.722 1.125-7.046 1.35Z" fill="#fff"/><path fill-rule="evenodd" clip-rule="evenodd" d="M62.488 53.11c0 4.38-3.55 7.996-7.946 7.996v-1.63c3.481 0 6.317-2.87 6.317-6.366 0-3.553-2.882-6.47-6.419-6.47h-.163v-1.63h.163c4.452 0 8.048 3.663 8.048 8.1Z" fill="#000"/><path fill-rule="evenodd" clip-rule="evenodd" d="m54.896 46.054 3.278-2.948-1.09-1.212-4.489 4.038 4.038 4.49 1.212-1.09-2.949-3.278Z" fill="#000"/><path fill-rule="evenodd" clip-rule="evenodd" d="M39.28 52.966c0-4.38 3.55-7.996 7.946-7.996v1.629c-3.481 0-6.317 2.87-6.317 6.367 0 3.552 2.881 6.47 6.419 6.47h.163v1.629h-.163c-4.453 0-8.048-3.662-8.048-8.099Z" fill="#ED1C24"/><path fill-rule="evenodd" clip-rule="evenodd" d="m46.876 60.092-2.98-3.25 1.202-1.1 4.08 4.45-4.451 4.08-1.101-1.2 3.25-2.98Z" fill="#ED1C24"/></g><defs><clipPath id="a"><path fill="#fff" transform="translate(16 16.601)" d="M0 0h48v48H0z"/></clipPath></defs></svg>