<svg width="613" height="321" fill="none" xmlns="http://www.w3.org/2000/svg"><path d="M483.367 206.895v-95.22s11.46 9.572 47.08 9.572c35.619 0 48.319-10.666 48.319-10.666v96.314s-5.129 11.696-48.319 12.145c-43.19.45-47.08-12.145-47.08-12.145Z" fill="#fff"/><path d="M579.876 108.671c0 8.496-21.614 15.384-48.845 15.384-27.231 0-48.846-6.888-48.846-15.384 0-8.497 21.615-15.385 48.846-15.385 27.231 0 48.845 6.888 48.845 15.385Z" fill="#fff"/><path fill-rule="evenodd" clip-rule="evenodd" d="M574.873 113.074c2.234-1.676 3.01-3.184 3.01-4.403 0-1.219-.776-2.728-3.01-4.404-2.201-1.653-5.519-3.227-9.811-4.584-8.563-2.706-20.56-4.413-34.031-4.413S505.562 96.977 497 99.683c-4.293 1.357-7.61 2.931-9.812 4.584-2.233 1.676-3.009 3.185-3.009 4.404 0 1.219.776 2.727 3.009 4.403 2.202 1.653 5.519 3.227 9.812 4.584 8.562 2.706 20.56 4.413 34.031 4.413s25.468-1.707 34.031-4.413c4.292-1.357 7.61-2.931 9.811-4.584Zm-43.842 10.981c27.231 0 48.845-6.888 48.845-15.384 0-8.497-21.614-15.385-48.845-15.385-27.231 0-48.846 6.888-48.846 15.385 0 8.496 21.615 15.384 48.846 15.384Z" fill="#ED1C24"/><path fill-rule="evenodd" clip-rule="evenodd" d="M482.121 204.501v-95.006h1.993v95.006h-1.993Zm95.836.098.11-96.499 1.993.003-.11 96.499-1.993-.003Z" fill="#ED1C24"/><path fill-rule="evenodd" clip-rule="evenodd" d="M497.445 214.001c8.55 2.637 20.424 4.283 33.582 4.283 13.159 0 25.032-1.646 33.582-4.283 4.282-1.321 7.674-2.873 9.974-4.55 2.321-1.692 3.357-3.377 3.357-4.95h1.993c0 2.506-1.645 4.708-4.172 6.551-2.549 1.859-6.173 3.491-10.562 4.844-8.789 2.711-20.871 4.372-34.172 4.372-13.301 0-25.383-1.661-34.172-4.372-4.389-1.353-8.013-2.985-10.561-4.844-2.528-1.843-4.173-4.045-4.173-6.551h1.993c0 1.573 1.037 3.258 3.357 4.95 2.3 1.677 5.693 3.229 9.974 4.55Zm0-64.49c8.55 2.637 20.424 4.283 33.582 4.283 13.159 0 25.032-1.646 33.582-4.283 4.282-1.32 7.674-2.872 9.974-4.549 2.321-1.692 3.357-3.377 3.357-4.951h1.993c0 2.507-1.645 4.709-4.172 6.552-2.549 1.858-6.173 3.49-10.562 4.844-8.789 2.71-20.871 4.372-34.172 4.372-13.301 0-25.383-1.662-34.172-4.372-4.389-1.354-8.013-2.986-10.561-4.844-2.528-1.843-4.173-4.045-4.173-6.552h1.993c0 1.574 1.037 3.259 3.357 4.951 2.3 1.677 5.693 3.229 9.974 4.549Zm0 32.467c8.55 2.637 20.424 4.284 33.582 4.284 13.159 0 25.032-1.647 33.582-4.284 4.282-1.32 7.674-2.872 9.974-4.549 2.321-1.692 3.357-3.377 3.357-4.951h1.993c0 2.507-1.645 4.709-4.172 6.552-2.549 1.859-6.173 3.491-10.562 4.844-8.789 2.711-20.871 4.372-34.172 4.372-13.301 0-25.383-1.661-34.172-4.372-4.389-1.353-8.013-2.985-10.561-4.844-2.528-1.843-4.173-4.045-4.173-6.552h1.993c0 1.574 1.037 3.259 3.357 4.951 2.3 1.677 5.693 3.229 9.974 4.549Z" fill="#ED1C24"/><path d="M449 258.227V244h10.287v1.679h-8.404v4.357h7.87v1.67h-7.87v4.842h8.734v1.679H449Zm11.996 0 3.765-5.357-3.484-4.949h2.184l1.582 2.416c.297.46.537.844.718 1.155.284-.427.546-.805.786-1.135l1.737-2.436h2.086l-3.561 4.852 3.833 5.454h-2.145l-2.115-3.202-.563-.864-2.708 4.066h-2.115Zm15.081-1.562.253 1.543a6.52 6.52 0 0 1-1.32.155c-.634 0-1.126-.1-1.475-.301-.35-.2-.595-.462-.738-.786-.142-.33-.213-1.019-.213-2.067v-5.93h-1.281v-1.358h1.281v-2.553l1.737-1.048v3.601h1.756v1.358h-1.756v6.027c0 .498.029.818.087.961a.765.765 0 0 0 .301.339c.142.085.343.127.602.127.194 0 .449-.023.766-.068Zm8.939-1.757 1.805.223c-.285 1.055-.812 1.873-1.582 2.456-.77.582-1.753.873-2.95.873-1.507 0-2.704-.463-3.591-1.388-.88-.931-1.32-2.235-1.32-3.911 0-1.734.447-3.079 1.34-4.037.893-.957 2.051-1.436 3.474-1.436 1.378 0 2.504.469 3.377 1.407.874.938 1.31 2.258 1.31 3.959 0 .104-.003.259-.009.466h-7.686c.064 1.133.385 1.999.96 2.601.576.602 1.294.903 2.155.903.64 0 1.187-.169 1.64-.505.453-.336.812-.873 1.077-1.611Zm-5.735-2.824h5.754c-.077-.867-.297-1.517-.659-1.951-.557-.672-1.278-1.009-2.165-1.009-.802 0-1.478.269-2.028.806-.543.537-.844 1.255-.902 2.154Zm9.889 6.143v-10.306h1.572v1.562c.402-.731.77-1.213 1.107-1.446a1.961 1.961 0 0 1 1.126-.349c.588 0 1.187.187 1.795.563l-.602 1.62c-.427-.252-.854-.378-1.281-.378-.381 0-.724.116-1.028.349-.305.227-.521.544-.651.951a6.81 6.81 0 0 0-.291 2.038v5.396h-1.747Zm6.804 0v-10.306h1.572v1.465c.757-1.132 1.85-1.698 3.28-1.698a4.22 4.22 0 0 1 1.708.339c.524.22.916.512 1.175.874.258.362.44.792.543 1.291.065.323.097.889.097 1.698v6.337h-1.747v-6.269c0-.712-.068-1.242-.204-1.592a1.643 1.643 0 0 0-.727-.844c-.343-.214-.748-.32-1.213-.32-.744 0-1.388.236-1.932.708-.537.472-.805 1.369-.805 2.688v5.629h-1.747Zm17.954-1.271c-.647.55-1.271.938-1.873 1.164a5.342 5.342 0 0 1-1.921.34c-1.132 0-2.003-.275-2.611-.825-.608-.556-.912-1.265-.912-2.125 0-.505.113-.964.34-1.378.233-.421.533-.757.902-1.01a4.305 4.305 0 0 1 1.262-.572c.343-.091.86-.178 1.553-.262 1.41-.168 2.448-.369 3.115-.602.006-.239.009-.391.009-.456 0-.712-.165-1.213-.494-1.504-.447-.395-1.11-.592-1.99-.592-.822 0-1.43.145-1.824.436-.389.285-.677.793-.864 1.524l-1.708-.233c.155-.731.411-1.32.766-1.766.356-.453.871-.799 1.544-1.038.672-.246 1.452-.369 2.338-.369.88 0 1.595.103 2.145.31.55.207.954.469 1.213.786.259.311.44.706.544 1.184.058.298.087.835.087 1.611v2.329c0 1.624.036 2.653.107 3.087.077.427.226.837.446 1.232h-1.824a3.71 3.71 0 0 1-.35-1.271Zm-.145-3.902c-.634.259-1.585.479-2.853.66-.719.104-1.226.22-1.524.35a1.506 1.506 0 0 0-.932 1.397c0 .466.175.854.524 1.165.356.31.874.466 1.553.466.673 0 1.271-.146 1.795-.437a2.745 2.745 0 0 0 1.155-1.213c.188-.395.282-.977.282-1.747v-.641Zm4.61 5.173V244h1.747v14.227h-1.747Zm10.55 0V244h4.901c1.107 0 1.951.068 2.533.204.815.187 1.511.527 2.087 1.019.75.634 1.31 1.446 1.679 2.436.375.983.563 2.109.563 3.377 0 1.08-.127 2.038-.379 2.872-.252.835-.576 1.527-.97 2.077-.395.544-.829.974-1.301 1.291-.466.311-1.032.547-1.698.708-.66.162-1.42.243-2.281.243h-5.134Zm1.883-1.679h3.038c.938 0 1.672-.087 2.203-.262.537-.175.964-.42 1.281-.737.446-.447.792-1.045 1.038-1.796.252-.757.379-1.672.379-2.746 0-1.488-.246-2.63-.738-3.426-.485-.802-1.077-1.339-1.776-1.611-.505-.194-1.317-.291-2.436-.291h-2.989v10.869Zm19.148.408c-.647.55-1.271.938-1.873 1.164a5.346 5.346 0 0 1-1.921.34c-1.133 0-2.003-.275-2.611-.825-.608-.556-.912-1.265-.912-2.125 0-.505.113-.964.339-1.378.233-.421.534-.757.903-1.01a4.305 4.305 0 0 1 1.262-.572c.343-.091.86-.178 1.552-.262 1.411-.168 2.449-.369 3.116-.602.006-.239.009-.391.009-.456 0-.712-.165-1.213-.495-1.504-.446-.395-1.109-.592-1.989-.592-.822 0-1.43.145-1.825.436-.388.285-.676.793-.863 1.524l-1.708-.233c.155-.731.41-1.32.766-1.766.356-.453.871-.799 1.543-1.038.673-.246 1.453-.369 2.339-.369.88 0 1.595.103 2.145.31.55.207.954.469 1.213.786.259.311.44.706.543 1.184.059.298.088.835.088 1.611v2.329c0 1.624.035 2.653.107 3.087.077.427.226.837.446 1.232h-1.824a3.688 3.688 0 0 1-.35-1.271Zm-.145-3.902c-.634.259-1.586.479-2.854.66-.718.104-1.226.22-1.523.35a1.501 1.501 0 0 0-.932 1.397c0 .466.175.854.524 1.165.356.31.874.466 1.553.466.673 0 1.271-.146 1.795-.437a2.75 2.75 0 0 0 1.155-1.213c.188-.395.282-.977.282-1.747v-.641Zm8.463 3.611.252 1.543a6.52 6.52 0 0 1-1.32.155c-.634 0-1.126-.1-1.475-.301-.349-.2-.595-.462-.737-.786-.143-.33-.214-1.019-.214-2.067v-5.93h-1.281v-1.358h1.281v-2.553l1.737-1.048v3.601h1.757v1.358h-1.757v6.027c0 .498.029.818.088.961a.763.763 0 0 0 .3.339c.143.085.343.127.602.127.194 0 .45-.023.767-.068Zm8.608.291c-.647.55-1.271.938-1.873 1.164a5.342 5.342 0 0 1-1.921.34c-1.132 0-2.002-.275-2.611-.825-.608-.556-.912-1.265-.912-2.125 0-.505.113-.964.34-1.378.233-.421.534-.757.902-1.01a4.316 4.316 0 0 1 1.262-.572c.343-.091.86-.178 1.553-.262 1.41-.168 2.448-.369 3.115-.602.006-.239.01-.391.01-.456 0-.712-.165-1.213-.495-1.504-.447-.395-1.11-.592-1.99-.592-.821 0-1.43.145-1.824.436-.389.285-.676.793-.864 1.524l-1.708-.233c.155-.731.411-1.32.767-1.766.355-.453.87-.799 1.543-1.038.673-.246 1.452-.369 2.338-.369.88 0 1.595.103 2.145.31.55.207.955.469 1.213.786.259.311.44.706.544 1.184.058.298.087.835.087 1.611v2.329c0 1.624.036 2.653.107 3.087.078.427.226.837.446 1.232h-1.824a3.71 3.71 0 0 1-.35-1.271Zm-.145-3.902c-.634.259-1.585.479-2.853.66-.718.104-1.226.22-1.524.35a1.506 1.506 0 0 0-.932 1.397c0 .466.175.854.524 1.165.356.31.874.466 1.553.466.673 0 1.272-.146 1.796-.437a2.742 2.742 0 0 0 1.154-1.213c.188-.395.282-.977.282-1.747v-.641Zm6.26 5.173h-1.621V244h1.747v5.076c.738-.926 1.679-1.388 2.824-1.388.634 0 1.233.129 1.796.388a3.56 3.56 0 0 1 1.397 1.077c.369.46.657 1.016.864 1.669a6.91 6.91 0 0 1 .31 2.097c0 1.766-.436 3.131-1.31 4.095-.873.964-1.921 1.446-3.144 1.446-1.216 0-2.171-.508-2.863-1.524v1.291Zm-.019-5.231c0 1.236.168 2.129.504 2.679.55.899 1.294 1.349 2.232 1.349.764 0 1.424-.33 1.98-.99.557-.667.835-1.656.835-2.97 0-1.346-.269-2.339-.806-2.979-.53-.641-1.174-.961-1.931-.961-.763 0-1.423.333-1.98 1-.556.66-.834 1.617-.834 2.872Zm16.362 3.96c-.647.55-1.271.938-1.873 1.164a5.342 5.342 0 0 1-1.921.34c-1.132 0-2.003-.275-2.611-.825-.608-.556-.912-1.265-.912-2.125 0-.505.113-.964.34-1.378.233-.421.534-.757.902-1.01a4.316 4.316 0 0 1 1.262-.572c.343-.091.86-.178 1.553-.262 1.41-.168 2.448-.369 3.115-.602.006-.239.01-.391.01-.456 0-.712-.165-1.213-.495-1.504-.447-.395-1.11-.592-1.99-.592-.822 0-1.43.145-1.824.436-.389.285-.676.793-.864 1.524l-1.708-.233c.155-.731.411-1.32.767-1.766.355-.453.87-.799 1.543-1.038.673-.246 1.452-.369 2.338-.369.88 0 1.595.103 2.145.31.55.207.955.469 1.213.786.259.311.44.706.544 1.184.058.298.087.835.087 1.611v2.329c0 1.624.036 2.653.107 3.087.077.427.226.837.446 1.232h-1.824a3.71 3.71 0 0 1-.35-1.271Zm-.145-3.902c-.634.259-1.585.479-2.853.66-.718.104-1.226.22-1.524.35a1.506 1.506 0 0 0-.932 1.397c0 .466.175.854.524 1.165.356.31.874.466 1.553.466.673 0 1.272-.146 1.796-.437a2.742 2.742 0 0 0 1.154-1.213c.188-.395.282-.977.282-1.747v-.641Zm3.95 2.097 1.728-.272c.097.692.365 1.223.805 1.592.447.368 1.068.553 1.864.553.802 0 1.397-.162 1.785-.486.388-.329.582-.714.582-1.154 0-.395-.171-.706-.514-.932-.239-.155-.834-.353-1.786-.592-1.281-.324-2.17-.602-2.668-.835-.492-.239-.867-.566-1.126-.98a2.649 2.649 0 0 1-.379-1.388c0-.459.104-.883.311-1.271.214-.395.501-.721.864-.98.271-.201.64-.369 1.106-.505a5.232 5.232 0 0 1 1.514-.213c.809 0 1.517.116 2.125.349.615.233 1.068.55 1.359.951.291.395.492.925.602 1.592l-1.708.233c-.078-.531-.304-.945-.68-1.243-.368-.297-.893-.446-1.572-.446-.802 0-1.375.133-1.718.398-.342.265-.514.576-.514.932 0 .226.071.43.214.611.142.188.365.343.669.466.175.065.689.213 1.543.446 1.236.33 2.096.602 2.582.815.491.207.876.512 1.155.913.278.401.417.899.417 1.494 0 .583-.172 1.132-.515 1.65-.336.511-.824.909-1.465 1.194-.64.278-1.365.417-2.174.417-1.339 0-2.361-.278-3.066-.835-.699-.556-1.146-1.381-1.34-2.474Zm17.858-.243 1.805.223c-.285 1.055-.812 1.873-1.582 2.456-.77.582-1.754.873-2.95.873-1.508 0-2.705-.463-3.591-1.388-.88-.931-1.32-2.235-1.32-3.911 0-1.734.446-3.079 1.339-4.037.893-.957 2.051-1.436 3.475-1.436 1.378 0 2.503.469 3.377 1.407.873.938 1.31 2.258 1.31 3.959 0 .104-.003.259-.01.466h-7.686c.065 1.133.385 1.999.961 2.601.576.602 1.294.903 2.154.903.641 0 1.187-.169 1.64-.505.453-.336.812-.873 1.078-1.611Zm-5.736-2.824h5.755c-.078-.867-.298-1.517-.66-1.951-.556-.672-1.278-1.009-2.164-1.009-.802 0-1.478.269-2.028.806-.544.537-.845 1.255-.903 2.154Z" fill="#2D2D2D"/><path d="m295.92 172.903 59.211 15.601v-84.785l-59.211-15.6-58.172 18.026v84.433l58.172-17.675Z" fill="#fff"/><path fill-rule="evenodd" clip-rule="evenodd" d="M236.751 191.918v-86.503l59.147-18.33 60.229 15.87v86.838l-60.188-15.858-59.188 17.983Zm1.993-2.68 57.156-17.366 58.234 15.343v-82.733L295.942 89.15l-57.198 17.725v82.363Z" fill="#2D2D2D"/><path d="m296.959 122.39-59.211-15.601v103.388l59.211 15.601 58.172-18.028V104.715l-58.172 17.675Z" fill="#fff"/><path fill-rule="evenodd" clip-rule="evenodd" d="m356.127 103.375.001 105.106-59.147 18.329-60.23-15.869v-105.44l60.188 15.857 59.188-17.983Zm-1.993 2.68-57.156 17.366-58.234-15.343v101.336l58.192 15.331 57.198-17.725V106.055Z" fill="#2D2D2D"/><path fill-rule="evenodd" clip-rule="evenodd" d="M295.095 224.049V122.223h1.994v101.826h-1.994Z" fill="#2D2D2D"/><path d="M.061 158.693c0-37.042 30.16-67.07 67.366-67.07s67.366 30.028 67.366 67.07c0 37.042-30.16 67.07-67.366 67.07-37.205 0-67.366-30.028-67.366-67.07Z" fill="#ED1C24"/><path d="M55.355 134.91s-30.884 18.717-1.778 37.302c5.599 3.62 25.906 13.685 25.329 23 0 0 12.308-18.1-5.688-29.489-18.486-11.654-23.107-24.103-17.864-30.813Z" fill="#fff"/><path d="M44.6 170.667s-11.02 16.599 10.666 19.998c2.132.265 17.818 1.898 21.907 7.019 0 0-.356-8.829-13.154-14.038-12.753-5.209-17.996-6.49-19.418-12.979Zm42.66-17.437c-13.242-13.773-16.93-22.293-11.243-33.329 0 0-39.503 15.097-.488 41.893 13.953 9.579 11.642 19.379 11.642 19.732 2.177-2.251 13.331-14.523.089-28.296Z" fill="#fff"/><path fill-rule="evenodd" clip-rule="evenodd" d="M68.158 250.468a.999.999 0 0 0-1.41 0l-6.342 6.314a.989.989 0 0 0 0 1.403.999.999 0 0 0 1.41 0l4.64-4.62v26.497c0 22.468 18.295 40.681 40.862 40.681h152.185c20.84 0 37.734-16.82 37.734-37.569h-1.993c0 19.653-16.002 35.585-35.741 35.585H107.318c-21.466 0-38.868-17.325-38.868-38.697v-26.497l4.641 4.62a.999.999 0 0 0 1.41 0 .989.989 0 0 0 0-1.403l-6.343-6.314Zm0-179.448a1 1 0 0 1-1.41 0l-6.342-6.315a.99.99 0 0 1 0-1.404 1 1 0 0 1 1.41 0l4.64 4.621V41.425c0-22.468 18.295-40.681 40.862-40.681h149.059c22.566 0 40.86 18.213 40.86 40.68v28.334a.994.994 0 0 1-.996.993.994.994 0 0 1-.997-.993V41.425c0-21.372-17.401-38.697-38.867-38.697H107.318c-21.466 0-38.868 17.325-38.868 38.697v26.497l4.641-4.62a1 1 0 0 1 1.41 0 .99.99 0 0 1 0 1.403l-6.343 6.314Zm77.258 92.121a.99.99 0 0 0 0 1.403l6.343 6.314a.998.998 0 0 0 1.409 0 .99.99 0 0 0 0-1.403l-4.641-4.62h76.291c.55 0 .996-.445.996-.993a.994.994 0 0 0-.996-.992h-76.291l4.641-4.621a.99.99 0 0 0 0-1.403 1 1 0 0 0-1.409 0l-6.343 6.315Zm300.368-15.022 6.342 6.315a.99.99 0 0 1 0 1.403l-6.342 6.315a1.001 1.001 0 0 1-1.41 0 .99.99 0 0 1 0-1.404l4.641-4.62h-63.614a.994.994 0 0 1-.997-.992c0-.548.446-.993.997-.993h63.614l-4.641-4.62a.99.99 0 0 1 0-1.404 1.001 1.001 0 0 1 1.41 0Zm-54.746 36.698-6.342-6.314a.987.987 0 0 1 0-1.403l6.342-6.315a1 1 0 0 1 1.409 0 .99.99 0 0 1 0 1.403l-4.641 4.621h63.615c.55 0 .996.444.996.992a.995.995 0 0 1-.996.993h-63.615l4.641 4.62a.99.99 0 0 1 0 1.403.998.998 0 0 1-1.409 0Z" fill="#000"/><path d="m169.906 146.053 1.781-.155c.084.71.279 1.295.584 1.753.311.453.791.821 1.44 1.105.649.278 1.379.417 2.19.417.72 0 1.356-.107 1.907-.32.552-.213.961-.504 1.227-.872.272-.375.409-.782.409-1.221 0-.446-.13-.833-.39-1.163-.259-.336-.688-.617-1.284-.843-.383-.148-1.23-.378-2.541-.688-1.31-.316-2.228-.614-2.754-.891-.681-.356-1.19-.795-1.528-1.318a3.279 3.279 0 0 1-.496-1.773c0-.717.204-1.386.613-2.006.409-.627 1.006-1.101 1.791-1.424.785-.323 1.657-.485 2.618-.485 1.057 0 1.988.171 2.793.514.811.336 1.434.833 1.869 1.492.434.659.668 1.405.7 2.238l-1.81.136c-.097-.898-.428-1.576-.993-2.035-.558-.459-1.385-.688-2.481-.688-1.142 0-1.976.21-2.502.63-.519.413-.778.914-.778 1.502 0 .51.185.93.554 1.259.364.33 1.311.669 2.842 1.018 1.538.342 2.592.643 3.163.901.831.381 1.444.866 1.84 1.453.396.582.594 1.254.594 2.016 0 .756-.218 1.469-.653 2.141-.434.666-1.06 1.186-1.878 1.56-.811.369-1.726.553-2.744.553-1.292 0-2.375-.188-3.251-.562-.87-.375-1.554-.937-2.054-1.686-.493-.756-.752-1.609-.778-2.558Zm25.148 3.042c.876.601 1.684 1.04 2.423 1.318l-.554 1.308c-1.026-.368-2.047-.95-3.066-1.744-1.058.588-2.226.882-3.504.882-1.291 0-2.462-.31-3.513-.931-1.051-.62-1.862-1.492-2.433-2.616-.565-1.124-.847-2.39-.847-3.798 0-1.402.285-2.678.856-3.828.571-1.149 1.382-2.025 2.434-2.625 1.057-.601 2.238-.902 3.542-.902 1.317 0 2.505.314 3.562.94a6.052 6.052 0 0 1 2.414 2.616c.558 1.118.837 2.381.837 3.789 0 1.169-.179 2.222-.535 3.159a6.62 6.62 0 0 1-1.616 2.432Zm-4.156-2.403c1.09.304 1.989.756 2.696 1.357 1.11-1.008 1.664-2.523 1.664-4.545 0-1.15-.198-2.154-.593-3.013-.39-.859-.964-1.525-1.723-1.996-.753-.478-1.599-.717-2.54-.717-1.408 0-2.576.481-3.504 1.443-.928.956-1.392 2.387-1.392 4.293 0 1.847.458 3.265 1.373 4.254.921.988 2.095 1.482 3.523 1.482.675 0 1.311-.126 1.907-.378a6.146 6.146 0 0 0-1.868-.814l.457-1.366Zm9.178 3.924v-14.205h1.888v12.529h7.026v1.676h-8.914ZM99.864 36.25l1.888.474c-.396 1.544-1.109 2.723-2.141 3.537-1.025.807-2.28 1.211-3.766 1.211-1.538 0-2.79-.31-3.757-.93-.96-.627-1.694-1.53-2.2-2.713a9.68 9.68 0 0 1-.75-3.808c0-1.48.283-2.768.848-3.866.57-1.105 1.378-1.942 2.423-2.51 1.051-.575 2.206-.862 3.465-.862 1.427 0 2.627.361 3.6 1.085.974.723 1.652 1.74 2.035 3.052l-1.86.436c-.33-1.033-.81-1.786-1.44-2.258-.629-.471-1.42-.707-2.374-.707-1.097 0-2.015.262-2.754.785-.734.523-1.25 1.227-1.548 2.112a8.406 8.406 0 0 0-.448 2.723c0 1.208.176 2.264.526 3.169.357.898.908 1.57 1.654 2.015a4.642 4.642 0 0 0 2.424.669c1.057 0 1.953-.304 2.686-.911.733-.607 1.23-1.508 1.49-2.704Zm3.747-.165c0-1.906.532-3.317 1.596-4.235.889-.762 1.972-1.143 3.25-1.143 1.421 0 2.583.465 3.485 1.395.901.924 1.352 2.203 1.352 3.837 0 1.325-.201 2.368-.603 3.13a4.195 4.195 0 0 1-1.742 1.764c-.759.42-1.59.63-2.492.63-1.446 0-2.618-.462-3.513-1.386-.889-.924-1.333-2.255-1.333-3.992Zm1.8 0c0 1.318.289 2.306.866 2.965.578.652 1.304.979 2.18.979.87 0 1.593-.33 2.171-.989.577-.659.866-1.663.866-3.013 0-1.273-.292-2.235-.876-2.888-.577-.659-1.298-.988-2.161-.988-.876 0-1.602.326-2.18.978-.577.653-.866 1.638-.866 2.956Zm10.345 5.145V30.94h1.567v1.443a3.638 3.638 0 0 1 1.295-1.21c.538-.311 1.151-.466 1.839-.466.766 0 1.392.158 1.878.475a2.53 2.53 0 0 1 1.042 1.327c.817-1.201 1.881-1.802 3.192-1.802 1.025 0 1.814.284 2.365.853.552.562.827 1.43.827 2.606v7.064h-1.742v-6.482c0-.698-.058-1.199-.175-1.502a1.434 1.434 0 0 0-.613-.746 1.938 1.938 0 0 0-1.051-.281c-.727 0-1.33.242-1.81.726-.481.478-.721 1.247-.721 2.306v5.979h-1.751v-6.686c0-.775-.143-1.356-.429-1.744-.285-.388-.752-.581-1.401-.581a2.58 2.58 0 0 0-1.372.387c-.416.259-.717.636-.906 1.134-.188.497-.282 1.214-.282 2.151v5.339h-1.752Zm17.003 3.944V30.939h1.596v1.338c.376-.524.801-.914 1.275-1.173.473-.265 1.047-.397 1.722-.397.883 0 1.661.226 2.336.678.675.452 1.184 1.092 1.528 1.919.344.82.516 1.721.516 2.703 0 1.053-.192 2.003-.574 2.849-.377.84-.928 1.486-1.655 1.938-.72.446-1.479.669-2.277.669a3.34 3.34 0 0 1-1.577-.369 3.597 3.597 0 0 1-1.139-.93v5.01h-1.751Zm1.586-9.031c0 1.324.269 2.303.808 2.936.538.633 1.19.95 1.956.95.779 0 1.444-.327 1.995-.98.558-.658.837-1.675.837-3.051 0-1.312-.272-2.294-.817-2.946-.539-.652-1.185-.979-1.937-.979-.746 0-1.408.35-1.986 1.047-.571.69-.856 1.699-.856 3.023Zm16.681 5.087v-1.512c-.805 1.163-1.898 1.745-3.28 1.745a4.23 4.23 0 0 1-1.713-.35c-.525-.232-.918-.523-1.177-.871-.253-.356-.432-.788-.536-1.299-.071-.342-.107-.885-.107-1.628V30.94h1.752v5.707c0 .91.036 1.524.107 1.84.11.46.344.821.701 1.086.357.258.798.388 1.323.388.526 0 1.019-.133 1.48-.398.46-.27.785-.636.973-1.095.195-.465.292-1.137.292-2.015v-5.514h1.752V41.23h-1.567Zm8.545-1.56.253 1.54a6.528 6.528 0 0 1-1.324.156c-.636 0-1.129-.1-1.479-.3-.351-.201-.597-.463-.74-.786-.143-.329-.214-1.017-.214-2.063v-5.92h-1.285V30.94h1.285v-2.55l1.742-1.046v3.595h1.762v1.356h-1.762v6.017c0 .498.029.818.088.96a.764.764 0 0 0 .301.339c.143.084.344.126.604.126.194 0 .451-.023.769-.068Zm9.196-1.754 1.811.223c-.286 1.053-.815 1.87-1.587 2.451-.772.582-1.758.873-2.958.873-1.512 0-2.713-.462-3.601-1.386-.883-.93-1.324-2.232-1.324-3.905 0-1.731.448-3.075 1.343-4.03.895-.957 2.057-1.435 3.484-1.435 1.382 0 2.511.468 3.387 1.405.876.937 1.314 2.255 1.314 3.953 0 .104-.003.259-.01.466h-7.708c.065 1.13.386 1.996.964 2.596.577.601 1.297.901 2.16.901.643 0 1.191-.167 1.645-.503.454-.336.814-.872 1.08-1.609Zm-5.751-2.82h5.771c-.078-.865-.299-1.514-.662-1.947-.558-.672-1.281-1.008-2.17-1.008-.805 0-1.483.268-2.034.804-.545.536-.847 1.254-.905 2.151Zm24.271 4.458c-.577.64-1.206 1.12-1.888 1.444a5.175 5.175 0 0 1-2.209.474c-1.46 0-2.618-.49-3.474-1.473-.695-.8-1.042-1.695-1.042-2.684 0-.878.282-1.67.847-2.374.571-.71 1.421-1.334 2.55-1.87-.643-.736-1.071-1.334-1.285-1.792-.214-.459-.321-.901-.321-1.328 0-.852.334-1.592 1.002-2.219.675-.633 1.522-.95 2.541-.95.973 0 1.768.298 2.384.892.623.594.934 1.308.934 2.142 0 1.35-.898 2.503-2.696 3.459l2.56 3.246a8.029 8.029 0 0 0 .681-1.977l1.82.388c-.311 1.24-.733 2.26-1.265 3.062a10.132 10.132 0 0 0 2.229 2.18l-1.178 1.386c-.707-.453-1.437-1.121-2.19-2.006Zm-3.562-7.403c.759-.446 1.249-.837 1.47-1.173.227-.336.341-.707.341-1.114 0-.485-.156-.879-.468-1.182-.305-.31-.687-.465-1.148-.465-.474 0-.869.152-1.187.455a1.495 1.495 0 0 0-.468 1.114c0 .22.056.453.166.698.117.24.289.494.516.766l.778.9Zm2.463 6.027-3.212-3.963c-.947.562-1.586 1.085-1.917 1.57-.331.477-.497.952-.497 1.424 0 .575.231 1.172.691 1.792.461.62 1.113.93 1.957.93.525 0 1.067-.16 1.625-.484a3.992 3.992 0 0 0 1.353-1.27Zm12.748 3.052V27.025h2.842l3.377 10.058c.312.937.539 1.637.682 2.102.162-.516.415-1.275.759-2.277l3.416-9.883h2.54V41.23h-1.82V29.34l-4.146 11.89h-1.703l-4.127-12.093V41.23h-1.82Zm23.582-1.27c-.649.55-1.275.937-1.879 1.163a5.394 5.394 0 0 1-1.927.34c-1.135 0-2.008-.275-2.618-.824-.61-.556-.915-1.263-.915-2.122 0-.504.114-.963.341-1.376.234-.42.535-.756.905-1.008a4.33 4.33 0 0 1 1.265-.572c.344-.09.863-.177 1.558-.261 1.414-.168 2.455-.368 3.124-.6.006-.24.009-.392.009-.456 0-.71-.165-1.212-.496-1.502-.448-.394-1.113-.591-1.995-.591-.824 0-1.434.145-1.83.436-.389.284-.678.791-.866 1.521l-1.713-.232c.156-.73.412-1.318.769-1.764.357-.452.873-.798 1.547-1.037.675-.245 1.457-.368 2.346-.368.882 0 1.599.103 2.151.31.551.207.957.468 1.216.785.26.31.442.704.545 1.182.059.297.088.833.088 1.609v2.325c0 1.621.036 2.649.107 3.081.078.427.227.837.448 1.231h-1.83a3.68 3.68 0 0 1-.35-1.27Zm-.146-3.895c-.636.259-1.59.478-2.862.66-.72.103-1.229.219-1.528.348-.298.13-.528.32-.691.572a1.46 1.46 0 0 0-.243.823c0 .466.175.853.526 1.163.356.31.875.465 1.557.465.675 0 1.275-.145 1.8-.436a2.74 2.74 0 0 0 1.158-1.21c.189-.395.283-.976.283-1.745v-.64Zm11.639 1.395 1.723.224c-.188 1.182-.672 2.109-1.45 2.78-.772.666-1.723.999-2.852.999-1.414 0-2.553-.46-3.416-1.376-.856-.924-1.285-2.245-1.285-3.964 0-1.11.185-2.083.555-2.916.37-.833.931-1.457 1.684-1.87a5.023 5.023 0 0 1 2.472-.63c1.122 0 2.04.284 2.754.853.714.562 1.171 1.363 1.372 2.403l-1.703.261c-.162-.69-.451-1.21-.866-1.56-.409-.349-.905-.523-1.489-.523-.882 0-1.599.317-2.151.95-.551.626-.827 1.621-.827 2.984 0 1.383.266 2.387.798 3.014.532.626 1.226.94 2.083.94.687 0 1.262-.21 1.722-.63.461-.42.753-1.066.876-1.938Zm3.62 3.77V27.025h1.752v5.097c.818-.943 1.849-1.415 3.095-1.415.766 0 1.431.152 1.995.455.565.298.967.711 1.207 1.24.247.53.37 1.3.37 2.307v6.521h-1.752v-6.521c0-.872-.191-1.505-.574-1.9-.376-.4-.912-.6-1.606-.6-.519 0-1.009.136-1.47.407a2.258 2.258 0 0 0-.973 1.085c-.195.459-.292 1.092-.292 1.9v5.629h-1.752Zm11.504-12.2v-2.005h1.752v2.006h-1.752Zm0 12.2V30.94h1.752v10.29h-1.752Zm4.827 0V30.94h1.576v1.463c.759-1.13 1.856-1.696 3.29-1.696.623 0 1.194.113 1.713.34.525.219.918.51 1.177.871.26.362.442.791.545 1.289.065.323.098.888.098 1.696v6.327h-1.752v-6.26c0-.71-.068-1.24-.205-1.589a1.647 1.647 0 0 0-.729-.843c-.344-.213-.75-.32-1.217-.32-.746 0-1.392.236-1.937.708-.538.471-.808 1.366-.808 2.684v5.62h-1.751Zm18.569-3.314 1.81.223c-.286 1.053-.814 1.87-1.586 2.451-.773.582-1.759.873-2.959.873-1.512 0-2.712-.462-3.601-1.386-.883-.93-1.324-2.232-1.324-3.905 0-1.731.448-3.075 1.343-4.03.896-.957 2.057-1.435 3.485-1.435 1.382 0 2.511.468 3.386 1.405.876.937 1.314 2.255 1.314 3.953 0 .104-.003.259-.009.466h-7.708c.064 1.13.386 1.996.963 2.596.577.601 1.298.901 2.161.901.642 0 1.19-.167 1.644-.503.455-.336.815-.872 1.081-1.609Zm-5.752-2.82h5.771c-.078-.865-.298-1.514-.662-1.947-.558-.672-1.281-1.008-2.17-1.008-.805 0-1.483.268-2.034.804-.545.536-.847 1.254-.905 2.151ZM143.133 63.059V48.854h1.888v12.529h7.026v1.676h-8.914Zm18.423-3.314 1.81.223c-.286 1.053-.814 1.87-1.587 2.451-.772.582-1.758.873-2.958.873-1.512 0-2.712-.462-3.601-1.386-.883-.93-1.324-2.232-1.324-3.905 0-1.731.448-3.075 1.343-4.03.896-.957 2.057-1.435 3.484-1.435 1.382 0 2.511.468 3.387 1.405.876.937 1.314 2.255 1.314 3.953 0 .104-.003.259-.009.465h-7.709c.065 1.131.386 1.997.964 2.597.577.601 1.298.901 2.161.901.642 0 1.19-.167 1.644-.503.455-.336.815-.872 1.081-1.609Zm-5.752-2.82h5.771c-.078-.865-.298-1.514-.662-1.947-.558-.672-1.281-1.008-2.17-1.008-.805 0-1.483.268-2.034.804-.545.536-.847 1.254-.905 2.151Zm16.914 4.865c-.648.549-1.275.936-1.878 1.162a5.394 5.394 0 0 1-1.927.34c-1.135 0-2.008-.275-2.618-.824-.61-.556-.915-1.263-.915-2.122 0-.504.114-.963.341-1.376.233-.42.535-.756.905-1.008a4.33 4.33 0 0 1 1.265-.572c.344-.09.863-.177 1.557-.261 1.415-.168 2.456-.368 3.124-.6.007-.24.01-.392.01-.456 0-.71-.165-1.212-.496-1.502-.448-.394-1.113-.591-1.995-.591-.824 0-1.434.145-1.83.436-.389.284-.678.791-.866 1.521l-1.713-.232c.156-.73.412-1.318.769-1.764.357-.452.872-.798 1.547-1.037.675-.245 1.457-.368 2.346-.368.882 0 1.599.103 2.15.31.552.207.958.468 1.217.785.26.31.441.704.545 1.182.058.297.088.833.088 1.609v2.325c0 1.621.035 2.649.107 3.081.078.427.227.837.447 1.231h-1.829a3.68 3.68 0 0 1-.351-1.27Zm-.146-3.896c-.635.259-1.589.478-2.861.66-.72.103-1.23.219-1.528.348-.298.13-.529.32-.691.572-.162.245-.243.52-.243.824 0 .465.175.852.525 1.162.357.31.876.465 1.557.465.675 0 1.275-.145 1.801-.436a2.74 2.74 0 0 0 1.158-1.21c.188-.395.282-.976.282-1.745v-.64Zm4.876 5.165v-10.29h1.577v1.56c.402-.73.772-1.212 1.109-1.444a1.97 1.97 0 0 1 1.129-.349c.59 0 1.191.187 1.801.562l-.604 1.618c-.428-.252-.856-.378-1.285-.378-.382 0-.726.117-1.031.35-.305.225-.522.542-.652.949a6.755 6.755 0 0 0-.292 2.035v5.387h-1.752Zm7.056 0v-10.29h1.576v1.463c.759-1.13 1.856-1.696 3.29-1.696.623 0 1.194.113 1.713.34.525.219.918.51 1.177.871.26.362.441.791.545 1.289.065.323.098.888.098 1.696v6.327h-1.752v-6.26c0-.71-.068-1.24-.205-1.589a1.644 1.644 0 0 0-.73-.843c-.343-.213-.749-.32-1.216-.32-.746 0-1.392.236-1.937.708-.538.471-.808 1.366-.808 2.684v5.62h-1.751Zm11.503-12.199v-2.006h1.752v2.006h-1.752Zm0 12.199v-10.29h1.752v10.29h-1.752Zm4.827 0v-10.29h1.576v1.463c.76-1.13 1.856-1.696 3.29-1.696.623 0 1.194.113 1.713.34.525.219.918.51 1.178.871.259.362.441.791.545 1.289.064.323.097.888.097 1.696v6.327h-1.752v-6.26c0-.71-.068-1.24-.204-1.589a1.653 1.653 0 0 0-.73-.843c-.344-.213-.75-.32-1.217-.32-.746 0-1.392.236-1.937.708-.538.471-.807 1.366-.807 2.684v5.62h-1.752Zm11.172.853 1.703.252c.072.523.27.904.594 1.143.435.323 1.028.484 1.781.484.811 0 1.437-.161 1.878-.484.442-.323.74-.775.896-1.357.091-.355.133-1.1.126-2.238-.765.898-1.719 1.347-2.861 1.347-1.421 0-2.521-.51-3.299-1.53-.779-1.022-1.168-2.246-1.168-3.673 0-.982.178-1.887.535-2.714.357-.833.873-1.476 1.548-1.928.681-.452 1.479-.678 2.394-.678 1.22 0 2.225.49 3.017 1.473v-1.24h1.615v8.895c0 1.602-.165 2.735-.496 3.4-.324.673-.843 1.202-1.557 1.59-.707.388-1.58.581-2.618.581-1.233 0-2.229-.278-2.988-.833-.759-.55-1.126-1.38-1.1-2.49Zm1.45-6.182c0 1.35.27 2.335.808 2.955.539.62 1.213.93 2.025.93.804 0 1.479-.307 2.024-.92.545-.62.817-1.59.817-2.907 0-1.26-.282-2.21-.846-2.849-.558-.64-1.233-.96-2.025-.96-.778 0-1.44.317-1.985.95-.545.627-.818 1.56-.818 2.8Z" fill="#9C9C9C"/><path d="m247.425 257.405 5.479-14.205h2.034l5.84 14.205h-2.151l-1.664-4.302h-5.966l-1.567 4.302h-2.005Zm4.117-5.833h4.837l-1.489-3.934c-.455-1.195-.792-2.177-1.013-2.946a18.066 18.066 0 0 1-.768 2.713l-1.567 4.167Zm10.919 9.777v-14.235h1.596v1.338c.376-.524.801-.915 1.275-1.173.474-.265 1.048-.397 1.723-.397.882 0 1.661.226 2.336.678.674.452 1.184 1.092 1.528 1.919.343.82.515 1.721.515 2.703 0 1.053-.191 2.003-.574 2.849-.376.84-.928 1.486-1.654 1.938-.721.446-1.48.668-2.278.668a3.328 3.328 0 0 1-1.576-.368 3.573 3.573 0 0 1-1.139-.93v5.01h-1.752Zm1.586-9.031c0 1.324.27 2.303.808 2.936.539.633 1.191.949 1.956.949.779 0 1.444-.326 1.996-.978.558-.659.837-1.677.837-3.053 0-1.311-.273-2.293-.818-2.945-.538-.653-1.184-.979-1.937-.979-.746 0-1.408.349-1.985 1.047-.571.691-.857 1.698-.857 3.023Zm9.908 9.031v-14.235h1.596v1.338c.376-.524.801-.915 1.275-1.173.473-.265 1.048-.397 1.722-.397.883 0 1.661.226 2.336.678.675.452 1.184 1.092 1.528 1.919.344.82.516 1.721.516 2.703 0 1.053-.191 2.003-.574 2.849-.377.84-.928 1.486-1.655 1.938-.72.446-1.479.668-2.277.668-.584 0-1.11-.122-1.577-.368a3.595 3.595 0 0 1-1.139-.93v5.01h-1.751Zm1.586-9.031c0 1.324.269 2.303.808 2.936.538.633 1.19.949 1.956.949.779 0 1.444-.326 1.995-.978.558-.659.837-1.677.837-3.053 0-1.311-.272-2.293-.817-2.945-.539-.653-1.184-.979-1.937-.979-.746 0-1.408.349-1.986 1.047-.57.691-.856 1.698-.856 3.023Zm9.868 5.087V243.2h1.752v14.205h-1.752Zm4.886-12.2V243.2h1.751v2.005h-1.751Zm0 12.2v-10.291h1.751v10.291h-1.751Zm11.571-3.769 1.723.222c-.188 1.183-.672 2.11-1.45 2.781-.772.666-1.723.998-2.852.998-1.414 0-2.553-.458-3.416-1.376-.857-.923-1.285-2.244-1.285-3.963 0-1.111.185-2.083.555-2.916.37-.834.931-1.457 1.684-1.87a5.022 5.022 0 0 1 2.472-.63c1.122 0 2.04.284 2.754.852.714.562 1.171 1.364 1.372 2.404l-1.703.261c-.162-.691-.451-1.211-.866-1.56-.409-.349-.905-.523-1.489-.523-.883 0-1.599.316-2.151.949-.552.627-.827 1.622-.827 2.985 0 1.382.266 2.387.798 3.013.532.627 1.226.94 2.083.94.687 0 1.262-.21 1.722-.63.461-.419.753-1.065.876-1.937Zm10.365 2.499c-.649.55-1.275.937-1.879 1.163a5.397 5.397 0 0 1-1.927.339c-1.135 0-2.008-.274-2.618-.823-.61-.556-.914-1.263-.914-2.122 0-.504.113-.963.34-1.376.234-.42.535-.756.905-1.008a4.36 4.36 0 0 1 1.265-.572c.344-.09.863-.177 1.558-.261 1.414-.168 2.455-.368 3.124-.601.006-.239.01-.391.01-.455 0-.711-.166-1.212-.497-1.502-.448-.394-1.113-.591-1.995-.591-.824 0-1.434.145-1.83.436-.389.284-.678.791-.866 1.521l-1.713-.233c.156-.73.412-1.317.769-1.763.357-.452.873-.798 1.548-1.037.674-.245 1.456-.368 2.345-.368.882 0 1.599.103 2.151.31.551.207.957.468 1.216.785.26.31.442.704.545 1.182.059.297.088.833.088 1.608v2.326c0 1.621.036 2.648.107 3.081.078.427.227.837.448 1.231h-1.83a3.682 3.682 0 0 1-.35-1.27Zm-.146-3.895c-.636.259-1.59.478-2.862.659-.72.103-1.229.22-1.528.349-.298.129-.528.32-.691.572a1.46 1.46 0 0 0-.243.823c0 .465.175.853.526 1.163.357.31.876.465 1.557.465.675 0 1.275-.145 1.8-.436a2.75 2.75 0 0 0 1.159-1.211c.188-.394.282-.976.282-1.744v-.64Zm8.72 3.605.253 1.54a6.485 6.485 0 0 1-1.324.155c-.636 0-1.129-.1-1.479-.3-.351-.2-.597-.462-.74-.785-.143-.329-.214-1.017-.214-2.064v-5.92h-1.285v-1.357h1.285v-2.548l1.742-1.047v3.595h1.762v1.357h-1.762v6.017c0 .498.029.817.088.96a.765.765 0 0 0 .301.339c.143.084.344.126.604.126.194 0 .451-.023.769-.068Zm2.131-10.64V243.2h1.751v2.005h-1.751Zm0 12.2v-10.291h1.751v10.291h-1.751Zm4.174-5.145c0-1.906.533-3.318 1.597-4.235.888-.762 1.972-1.143 3.25-1.143 1.421 0 2.583.465 3.484 1.395.902.924 1.353 2.203 1.353 3.837 0 1.325-.201 2.368-.603 3.13a4.202 4.202 0 0 1-1.742 1.764 5.072 5.072 0 0 1-2.492.629c-1.447 0-2.618-.461-3.513-1.385-.889-.924-1.334-2.255-1.334-3.992Zm1.801 0c0 1.317.289 2.306.866 2.965.578.652 1.304.978 2.18.978.87 0 1.593-.329 2.171-.988.577-.659.866-1.663.866-3.014 0-1.272-.292-2.235-.876-2.887-.578-.659-1.298-.988-2.161-.988-.876 0-1.602.326-2.18.978-.577.653-.866 1.638-.866 2.956Zm10.345 5.145v-10.291h1.577v1.464c.759-1.131 1.855-1.696 3.289-1.696.623 0 1.194.113 1.713.339.526.22.918.51 1.178.872.259.362.441.791.545 1.289.065.323.097.888.097 1.695v6.328h-1.752v-6.26c0-.71-.068-1.24-.204-1.589a1.65 1.65 0 0 0-.73-.843c-.344-.213-.749-.32-1.216-.32-.747 0-1.392.236-1.937.708-.539.471-.808 1.366-.808 2.684v5.62h-1.752Z" fill="#2D2D2D"/><path d="m98.295 297.692 5.479-14.205h2.034l5.84 14.205h-2.151l-1.665-4.302h-5.966l-1.566 4.302h-2.005Zm4.116-5.833h4.838l-1.49-3.934c-.454-1.195-.791-2.177-1.012-2.945-.181.91-.438 1.815-.769 2.713l-1.567 4.166Zm21.324.853 1.888.475c-.396 1.544-1.11 2.723-2.141 3.537-1.025.807-2.281 1.211-3.767 1.211-1.537 0-2.79-.31-3.756-.93-.961-.627-1.694-1.531-2.2-2.714a9.689 9.689 0 0 1-.749-3.808c0-1.479.282-2.768.846-3.866.571-1.104 1.379-1.941 2.424-2.509 1.051-.575 2.206-.863 3.465-.863 1.427 0 2.627.362 3.601 1.085.973.724 1.651 1.741 2.034 3.053l-1.859.436c-.331-1.034-.811-1.786-1.441-2.258-.629-.472-1.421-.707-2.374-.707-1.097 0-2.015.261-2.755.784a4.157 4.157 0 0 0-1.547 2.113 8.39 8.39 0 0 0-.448 2.723c0 1.208.175 2.264.526 3.168.357.898.908 1.57 1.654 2.016a4.648 4.648 0 0 0 2.424.668c1.057 0 1.953-.303 2.686-.911.733-.607 1.229-1.508 1.489-2.703Zm4.944 4.98v-14.205h1.888v14.205h-1.888Zm5.625 0v-14.205h4.914c1.11 0 1.957.068 2.541.204.817.187 1.515.526 2.092 1.017.753.633 1.314 1.444 1.684 2.432.376.982.564 2.106.564 3.372 0 1.079-.126 2.035-.379 2.869-.253.833-.578 1.524-.974 2.073-.395.543-.83.972-1.304 1.289-.467.31-1.035.546-1.703.707-.662.162-1.424.242-2.287.242h-5.148Zm1.888-1.676h3.046c.941 0 1.677-.087 2.209-.261.539-.175.967-.42 1.285-.737.448-.446.795-1.043 1.041-1.792.253-.756.38-1.67.38-2.743 0-1.485-.247-2.626-.74-3.42-.487-.801-1.08-1.337-1.781-1.609-.506-.193-1.32-.29-2.443-.29h-2.997v10.852Zm22.121 1.676v-12.528h-4.701v-1.677h11.309v1.677h-4.72v12.528h-1.888Zm7.97 0v-10.29h1.577v1.56c.402-.73.772-1.211 1.109-1.444.344-.232.72-.349 1.129-.349.591 0 1.191.188 1.801.562l-.604 1.619c-.428-.252-.856-.378-1.284-.378-.383 0-.727.116-1.032.349-.305.226-.522.542-.652.949a6.757 6.757 0 0 0-.292 2.035v5.387h-1.752Zm13.8-1.269c-.648.549-1.275.937-1.878 1.163a5.397 5.397 0 0 1-1.927.339c-1.135 0-2.008-.274-2.618-.824-.61-.555-.915-1.262-.915-2.122 0-.503.114-.962.341-1.376a2.9 2.9 0 0 1 .905-1.007 4.322 4.322 0 0 1 1.265-.572c.344-.09.863-.178 1.557-.262 1.415-.168 2.456-.368 3.124-.6.007-.239.01-.391.01-.456 0-.71-.165-1.211-.496-1.502-.448-.394-1.113-.591-1.995-.591-.824 0-1.434.146-1.83.436-.389.284-.678.792-.866 1.522l-1.713-.233c.156-.73.412-1.318.769-1.764.357-.452.872-.797 1.547-1.036.675-.246 1.457-.369 2.346-.369.882 0 1.599.104 2.15.311.552.206.958.468 1.217.784.26.31.441.705.545 1.183.058.297.088.833.088 1.608v2.326c0 1.621.035 2.648.107 3.081.078.426.227.836.447 1.23h-1.829a3.67 3.67 0 0 1-.351-1.269Zm-.146-3.895c-.636.258-1.589.478-2.861.659-.72.103-1.23.219-1.528.349a1.51 1.51 0 0 0-.691.571c-.162.246-.243.52-.243.824 0 .465.175.853.525 1.163.357.31.876.465 1.557.465.675 0 1.275-.146 1.801-.436a2.742 2.742 0 0 0 1.158-1.211c.188-.395.282-.976.282-1.745v-.639Zm4.895 5.164v-10.29h1.577v1.463c.759-1.13 1.856-1.696 3.29-1.696.622 0 1.193.114 1.712.34.526.219.919.51 1.178.872.26.361.441.791.545 1.288.065.323.097.889.097 1.696v6.327h-1.751v-6.259c0-.711-.069-1.24-.205-1.589a1.646 1.646 0 0 0-.73-.843c-.344-.213-.749-.32-1.216-.32-.746 0-1.392.236-1.937.707-.539.472-.808 1.367-.808 2.684v5.62h-1.752Zm10.793-3.071 1.733-.271c.097.691.366 1.22.807 1.589.448.368 1.071.552 1.869.552.805 0 1.402-.162 1.791-.485.389-.329.584-.713.584-1.153 0-.394-.172-.704-.516-.93-.24-.155-.837-.352-1.791-.591-1.285-.323-2.177-.601-2.676-.833-.493-.239-.87-.565-1.129-.979a2.635 2.635 0 0 1-.38-1.385c0-.459.104-.882.312-1.27a2.87 2.87 0 0 1 .866-.979c.272-.2.642-.368 1.109-.503.474-.142.98-.214 1.519-.214.811 0 1.521.117 2.131.349.616.233 1.071.549 1.363.95.292.394.493.924.603 1.589l-1.713.233c-.078-.53-.305-.944-.681-1.241-.37-.297-.896-.445-1.577-.445-.804 0-1.379.132-1.723.397-.343.265-.515.575-.515.93 0 .226.071.43.214.61.143.188.366.343.671.466.176.064.691.213 1.548.445 1.239.33 2.102.601 2.589.814a2.6 2.6 0 0 1 1.158.911c.279.401.418.898.418 1.492 0 .582-.172 1.131-.516 1.648-.337.51-.827.907-1.469 1.191-.642.278-1.369.417-2.18.417-1.343 0-2.368-.278-3.076-.833-.7-.556-1.148-1.379-1.343-2.471Zm17.81 1.802c-.649.549-1.275.937-1.878 1.163a5.397 5.397 0 0 1-1.927.339c-1.136 0-2.008-.274-2.618-.824-.61-.555-.915-1.262-.915-2.122 0-.503.114-.962.341-1.376a2.9 2.9 0 0 1 .905-1.007 4.322 4.322 0 0 1 1.265-.572c.344-.09.863-.178 1.557-.262 1.415-.168 2.456-.368 3.124-.6.007-.239.01-.391.01-.456 0-.71-.165-1.211-.496-1.502-.448-.394-1.113-.591-1.996-.591-.824 0-1.433.146-1.829.436-.39.284-.678.792-.866 1.522l-1.713-.233c.155-.73.412-1.318.769-1.764.356-.452.872-.797 1.547-1.036.675-.246 1.457-.369 2.346-.369.882 0 1.599.104 2.15.311.552.206.957.468 1.217.784.259.31.441.705.545 1.183.058.297.088.833.088 1.608v2.326c0 1.621.035 2.648.107 3.081.077.426.227.836.447 1.23h-1.829a3.67 3.67 0 0 1-.351-1.269Zm-.146-3.895c-.636.258-1.589.478-2.861.659-.72.103-1.23.219-1.528.349a1.504 1.504 0 0 0-.934 1.395c0 .465.175.853.525 1.163.357.31.876.465 1.557.465.675 0 1.275-.146 1.801-.436a2.753 2.753 0 0 0 1.158-1.211c.188-.395.282-.976.282-1.745v-.639Zm11.64 1.395 1.722.223c-.188 1.182-.671 2.109-1.45 2.781-.772.665-1.722.998-2.851.998-1.415 0-2.553-.459-3.416-1.376-.857-.924-1.285-2.245-1.285-3.963 0-1.111.185-2.083.555-2.917.37-.833.931-1.456 1.683-1.87.76-.42 1.584-.63 2.472-.63 1.123 0 2.041.285 2.755.853.713.562 1.171 1.363 1.372 2.403l-1.703.262c-.162-.691-.451-1.211-.866-1.56-.409-.349-.905-.523-1.489-.523-.883 0-1.6.316-2.151.949-.552.627-.828 1.622-.828 2.985 0 1.382.266 2.386.799 3.013.532.627 1.226.94 2.082.94.688 0 1.262-.21 1.723-.63.461-.42.753-1.066.876-1.938Zm7.445 2.209.253 1.541a6.556 6.556 0 0 1-1.324.155c-.636 0-1.129-.1-1.479-.3-.351-.2-.597-.462-.74-.785-.143-.33-.214-1.018-.214-2.064v-5.92h-1.285v-1.357h1.285v-2.548l1.742-1.047v3.595h1.762v1.357h-1.762v6.017c0 .497.029.817.088.959a.765.765 0 0 0 .301.339c.143.084.344.126.604.126a5.6 5.6 0 0 0 .769-.068Zm2.131-10.639v-2.006h1.752v2.006h-1.752Zm0 12.199v-10.29h1.752v10.29h-1.752Zm4.175-5.145c0-1.905.532-3.317 1.596-4.234.889-.762 1.972-1.144 3.25-1.144 1.421 0 2.583.466 3.485 1.396.901.924 1.352 2.203 1.352 3.837 0 1.324-.201 2.367-.603 3.13a4.205 4.205 0 0 1-1.742 1.763c-.759.42-1.59.63-2.492.63-1.447 0-2.618-.462-3.513-1.386-.889-.923-1.333-2.254-1.333-3.992Zm1.8 0c0 1.318.289 2.306.866 2.965.578.653 1.304.979 2.18.979.87 0 1.593-.329 2.171-.988.577-.659.866-1.664.866-3.014 0-1.272-.292-2.235-.876-2.887-.578-.659-1.298-.989-2.161-.989-.876 0-1.602.326-2.18.979-.577.652-.866 1.637-.866 2.955Zm10.345 5.145v-10.29h1.577v1.463c.759-1.13 1.856-1.696 3.29-1.696.622 0 1.193.114 1.712.34.526.219.919.51 1.178.872.26.361.441.791.545 1.288.065.323.097.889.097 1.696v6.327h-1.751v-6.259c0-.711-.069-1.24-.205-1.589a1.646 1.646 0 0 0-.73-.843c-.344-.213-.749-.32-1.216-.32-.746 0-1.392.236-1.937.707-.539.472-.808 1.367-.808 2.684v5.62h-1.752Zm10.793-3.071 1.733-.271c.097.691.366 1.22.807 1.589.448.368 1.071.552 1.869.552.805 0 1.401-.162 1.791-.485.389-.329.584-.713.584-1.153 0-.394-.172-.704-.516-.93-.24-.155-.837-.352-1.791-.591-1.285-.323-2.177-.601-2.676-.833-.493-.239-.87-.565-1.129-.979a2.635 2.635 0 0 1-.38-1.385c0-.459.104-.882.312-1.27a2.86 2.86 0 0 1 .866-.979c.272-.2.642-.368 1.109-.503.474-.142.98-.214 1.519-.214.811 0 1.521.117 2.131.349.616.233 1.07.549 1.362.95.292.394.494.924.604 1.589l-1.713.233c-.078-.53-.305-.944-.681-1.241-.37-.297-.896-.445-1.577-.445-.805 0-1.379.132-1.723.397-.343.265-.515.575-.515.93 0 .226.071.43.214.61.142.188.366.343.671.466.175.064.691.213 1.548.445 1.239.33 2.102.601 2.589.814a2.6 2.6 0 0 1 1.158.911c.279.401.418.898.418 1.492 0 .582-.172 1.131-.516 1.648-.337.51-.827.907-1.469 1.191-.643.278-1.369.417-2.18.417-1.343 0-2.369-.278-3.076-.833-.7-.556-1.148-1.379-1.343-2.471Z" fill="#9C9C9C"/></svg>