<svg width="32" height="32" fill="none" xmlns="http://www.w3.org/2000/svg"><path d="M32 16c0 8.837-7.163 16-16 16S0 24.837 0 16 7.163 0 16 0s16 7.163 16 16Z" fill="#ED1C24"/><path fill-rule="evenodd" clip-rule="evenodd" d="M16 29.5c7.456 0 13.5-6.044 13.5-13.5S23.456 2.5 16 2.5 2.5 8.544 2.5 16 8.544 29.5 16 29.5Zm0 2.5c8.837 0 16-7.163 16-16S24.837 0 16 0 0 7.163 0 16s7.163 16 16 16Z" fill="#ED1C24"/><path fill-rule="evenodd" clip-rule="evenodd" d="M22.241 10.54a1.25 1.25 0 0 1 0 1.767l-9.934 9.934a1.25 1.25 0 1 1-1.768-1.768l9.934-9.934a1.25 1.25 0 0 1 1.768 0Z" fill="#fff"/><path fill-rule="evenodd" clip-rule="evenodd" d="M22.241 22.241a1.25 1.25 0 0 1-1.768 0l-9.934-9.934a1.25 1.25 0 1 1 1.768-1.768l9.934 9.934a1.25 1.25 0 0 1 0 1.768Z" fill="#fff"/></svg>