<svg width="599" height="576" viewBox="0 0 599 576" fill="none" xmlns="http://www.w3.org/2000/svg">
<path d="M1.154 456.405L359.921 663.54L359.921 784L1.15399 576.865L1.154 456.405Z" fill="#0070CC" stroke="white"/>
<path d="M359.922 663.541L718.689 456.406L718.689 576.866L359.922 784.001L359.922 663.541Z" fill="#0070CC" stroke="white"/>
<path d="M359.922 249.271L718.689 456.406L359.922 663.54L1.15409 456.406L359.922 249.271Z" fill="#0070CC" stroke="white"/>
<path d="M117.287 179.988L359.921 320.073L359.921 600.243L117.287 460.158L117.287 179.988Z" fill="#0070CC" stroke="white"/>
<rect width="280.17" height="280.17" transform="matrix(0.866025 -0.5 2.20305e-08 1 359.922 320.073)" fill="#0070CC" stroke="white"/>
<path d="M359.922 39.9033L602.556 179.988L359.922 320.073L117.287 179.988L359.922 39.9033Z" fill="#0070CC" stroke="white"/>
<path d="M261.314 59.0044L361.781 117.009L361.781 233.018L261.314 175.013L261.314 59.0044Z" fill="#0070CC" stroke="white"/>
<rect width="116.009" height="116.009" transform="matrix(0.866025 -0.5 2.20305e-08 1 361.781 117.009)" fill="#0070CC" stroke="white"/>
<path d="M361.781 0.999993L462.247 59.0045L361.781 117.009L261.314 59.0045L361.781 0.999993Z" fill="#0070CC" stroke="white"/>
<path d="M80.34 332.785L180.807 390.79L180.807 506.799L80.34 448.794L80.34 332.785Z" fill="#0070CC" stroke="white"/>
<rect width="116.009" height="116.009" transform="matrix(0.866025 -0.5 2.20305e-08 1 180.807 390.79)" fill="#0070CC" stroke="white"/>
<path d="M180.807 274.781L281.273 332.785L180.807 390.79L80.3399 332.785L180.807 274.781Z" fill="#0070CC" stroke="white"/>
<path d="M439.968 332.785L540.434 390.79L540.434 506.799L439.968 448.794L439.968 332.785Z" fill="#0070CC" stroke="white"/>
<rect width="116.009" height="116.009" transform="matrix(0.866025 -0.5 2.20305e-08 1 540.434 390.79)" fill="#0070CC" stroke="white"/>
<path d="M540.434 274.781L640.901 332.786L540.434 390.79L439.968 332.786L540.434 274.781Z" fill="#0070CC" stroke="white"/>
</svg>
