<svg width="81" height="81" fill="none" xmlns="http://www.w3.org/2000/svg"><rect x=".224" y=".601" width="80" height="80" rx="10" fill="#F6F6F6"/><path fill-rule="evenodd" clip-rule="evenodd" d="M40.914 38.367c-10.305 0-18.706 8.493-18.706 19.029h-1.652c0-11.38 9.089-20.651 20.358-20.651v1.622Z" fill="#000"/><path fill-rule="evenodd" clip-rule="evenodd" d="M20.35 57.395c0-11.484 9.174-20.853 20.564-20.853h.207v2.027h-.207c-10.184 0-18.5 8.396-18.5 18.826v.203H20.35v-.203Zm.414-.202h1.239c.106-10.477 8.44-18.916 18.705-19.028v-1.216c-10.987.111-19.838 9.133-19.944 20.244Z" fill="#000"/><path fill-rule="evenodd" clip-rule="evenodd" d="M39.445 36.855c4.09 0 7.446-3.31 7.446-7.444s-3.356-7.444-7.446-7.444-7.447 3.31-7.447 7.444c0 4.133 3.357 7.444 7.447 7.444Zm0 1.622c5.024 0 9.098-4.06 9.098-9.066 0-5.007-4.074-9.066-9.098-9.066-5.025 0-9.098 4.059-9.098 9.066 0 5.007 4.073 9.066 9.098 9.066Z" fill="#000"/><path fill-rule="evenodd" clip-rule="evenodd" d="M39.445 20.548c-4.908 0-8.892 3.965-8.892 8.863s3.984 8.863 8.892 8.863c4.908 0 8.891-3.965 8.891-8.863s-3.983-8.863-8.891-8.863ZM30.14 29.41c0-5.116 4.163-9.269 9.305-9.269 5.141 0 9.304 4.153 9.304 9.269 0 5.116-4.163 9.268-9.304 9.268-5.142 0-9.305-4.152-9.305-9.268Zm9.305-7.242c-3.973 0-7.24 3.217-7.24 7.242 0 4.024 3.267 7.241 7.24 7.241 3.973 0 7.24-3.217 7.24-7.241 0-4.025-3.267-7.242-7.24-7.242Zm-7.653 7.242c0-4.243 3.446-7.647 7.653-7.647 4.206 0 7.653 3.404 7.653 7.647s-3.447 7.647-7.653 7.647c-4.207 0-7.653-3.404-7.653-7.647Z" fill="#000"/><path fill-rule="evenodd" clip-rule="evenodd" d="M40.078 52.734c.04.113.084.225.128.335a3.201 3.201 0 0 0 .508 3.946l.42.411a3.349 3.349 0 0 0 3.606.702c.454.245.93.456 1.422.63a3.304 3.304 0 0 0 3.076 2.059h.534a3.304 3.304 0 0 0 3.076-2.06c.216-.076.428-.159.637-.249a3.35 3.35 0 0 0 4.223-.368l.756-.742a3.201 3.201 0 0 0 .305-4.244 9.61 9.61 0 0 0 .163-.42c1.223-.475 2.089-1.647 2.089-3.017v-.75c0-1.37-.866-2.542-2.09-3.017a9.88 9.88 0 0 0-.43-1.01 3.201 3.201 0 0 0-.205-4.368l-.419-.411a3.347 3.347 0 0 0-4.597-.07 9.85 9.85 0 0 0-.432-.164 3.304 3.304 0 0 0-3.076-2.06h-.534a3.304 3.304 0 0 0-3.076 2.06 9.978 9.978 0 0 0-.636.249 3.35 3.35 0 0 0-4.225.368l-.755.742a3.201 3.201 0 0 0-.305 4.243 9.965 9.965 0 0 0-.163.421c-1.223.475-2.089 1.647-2.089 3.017v.75c0 1.37.866 2.542 2.09 3.017Z" fill="#fff"/><path fill-rule="evenodd" clip-rule="evenodd" d="m42.04 53.211-.413.685a1.602 1.602 0 0 0 .255 1.972l.42.412a1.675 1.675 0 0 0 1.803.35l.734-.3.697.376c.378.205.774.38 1.184.525l.706.249.273.685c.242.606.842 1.03 1.54 1.03h.533c.697 0 1.297-.424 1.539-1.03l.273-.685.706-.249c.18-.063.356-.133.53-.208l.85-.366.76.522c.643.44 1.537.377 2.11-.186l.756-.742c.589-.578.64-1.486.154-2.12l-.565-.736.354-.853c.048-.116.094-.233.137-.351l.251-.694.697-.27a1.624 1.624 0 0 0 1.045-1.51v-.75c0-.682-.43-1.27-1.045-1.509l-.697-.27-.251-.694a8.31 8.31 0 0 0-.361-.847l-.465-.942.682-.804a1.6 1.6 0 0 0-.104-2.182l-.419-.412 1.168-1.146.419.411a3.201 3.201 0 0 1 .205 4.367c.161.328.306.665.43 1.01 1.224.476 2.09 1.648 2.09 3.018v.75c0 1.37-.866 2.542-2.09 3.017a9.671 9.671 0 0 1-.162.42 3.201 3.201 0 0 1-.305 4.244l-.756.742a3.35 3.35 0 0 1-4.223.368c-.209.09-.421.173-.637.25a3.304 3.304 0 0 1-3.076 2.059h-.534a3.304 3.304 0 0 1-3.076-2.06 9.975 9.975 0 0 1-1.422-.63 3.349 3.349 0 0 1-3.607-.7l-.419-.412a3.201 3.201 0 0 1-.508-3.946 9.91 9.91 0 0 1-.128-.335c-1.223-.475-2.089-1.647-2.089-3.017v-.75c0-1.37.866-2.542 2.089-3.017a9.61 9.61 0 0 1 .163-.42 3.201 3.201 0 0 1 .305-4.245l.755-.741a3.35 3.35 0 0 1 4.225-.368c.208-.09.42-.173.636-.25a3.304 3.304 0 0 1 3.076-2.059h.534a3.322 3.322 0 0 1 2.714 1.395c.146.206.268.428.362.665.146.051.29.106.432.163a3.347 3.347 0 0 1 4.597.07l-1.168 1.148a1.673 1.673 0 0 0-2.298-.036l-.776.717-.986-.4a8.195 8.195 0 0 0-.359-.136l-.706-.249-.273-.685a1.652 1.652 0 0 0-1.54-1.03h-.533a1.65 1.65 0 0 0-1.538 1.03l-.274.685-.706.25a8.07 8.07 0 0 0-.53.206l-.85.367-.76-.522a1.675 1.675 0 0 0-2.11.185l-.756.742a1.601 1.601 0 0 0-.154 2.12l.565.736-.354.854a8.362 8.362 0 0 0-.137.352l-.251.693-.697.271a1.624 1.624 0 0 0-1.045 1.51v.75c0 .682.43 1.27 1.045 1.508l.697.271.251.694c.034.094.07.187.108.28l.299.74Z" fill="#ED1C24"/><path fill-rule="evenodd" clip-rule="evenodd" d="M46.005 39.767a3.512 3.512 0 0 1 3.233-2.103h.534a3.531 3.531 0 0 1 2.884 1.482c.137.194.254.401.349.621.078.028.155.057.232.088a3.557 3.557 0 0 1 4.786.162l.419.412a3.401 3.401 0 0 1 .3 4.538c.13.27.248.547.353.83 1.253.525 2.132 1.747 2.132 3.17v.75c0 1.424-.879 2.645-2.132 3.17-.03.08-.06.16-.092.239a3.401 3.401 0 0 1-.393 4.415l-.756.742a3.56 3.56 0 0 1-4.391.455c-.151.063-.304.123-.458.18a3.512 3.512 0 0 1-3.233 2.102h-.534c-1.453 0-2.7-.868-3.233-2.103-.44-.16-.868-.35-1.278-.566a3.557 3.557 0 0 1-3.74-.781l-.419-.412a3.402 3.402 0 0 1-.59-4.105l-.063-.165c-1.253-.526-2.132-1.747-2.132-3.17v-.75c0-1.424.879-2.646 2.132-3.171.03-.08.06-.16.092-.239a3.4 3.4 0 0 1 .393-4.416l.755-.742a3.56 3.56 0 0 1 4.393-.454c.15-.063.303-.123.457-.179Zm3.233-1.697c-1.31 0-2.432.8-2.884 1.93l-.034.086-.088.032a9.737 9.737 0 0 0-.623.243l-.106.046-.095-.065a3.14 3.14 0 0 0-3.96.345l-.756.742a3.001 3.001 0 0 0-.286 3.978l.07.092-.043.107c-.057.136-.11.273-.16.412l-.032.087-.087.033c-1.147.446-1.958 1.545-1.958 2.83v.75c0 1.283.81 2.382 1.958 2.828l.087.034.032.086c.04.11.081.22.125.328l.038.093-.052.085a3.001 3.001 0 0 0 .476 3.7l.42.411a3.14 3.14 0 0 0 3.38.657l.092-.037.087.047c.445.24.91.447 1.393.617l.088.03.034.086a3.097 3.097 0 0 0 2.884 1.931h.534c1.31 0 2.432-.8 2.884-1.93l.034-.086.088-.031a9.78 9.78 0 0 0 .623-.245l.107-.045.095.065a3.14 3.14 0 0 0 3.96-.346l.755-.742a3.001 3.001 0 0 0 .286-3.978l-.07-.092.044-.106a9.75 9.75 0 0 0 .16-.412l.03-.086.088-.034c1.147-.446 1.958-1.544 1.958-2.829v-.75c0-1.284-.81-2.383-1.958-2.829l-.087-.033-.032-.087a9.696 9.696 0 0 0-.422-.99l-.058-.118.085-.1a3.001 3.001 0 0 0-.192-4.094l-.273-.269-.876.86.273.269c.684.672.724 1.74.117 2.455l-.597.704.407.824c.138.28.262.57.37.867l.22.606.61.237c.69.269 1.174.93 1.174 1.698v.75c0 .768-.484 1.43-1.175 1.698l-.61.237-.22.607c-.044.121-.09.241-.14.36l-.31.746.495.644a1.8 1.8 0 0 1-.173 2.385l-.755.742a1.884 1.884 0 0 1-2.375.209l-.666-.457-.743.321c-.178.077-.36.148-.543.213l-.618.218-.24.6a1.859 1.859 0 0 1-1.73 1.158h-.534a1.859 1.859 0 0 1-1.73-1.159l-.24-.6-.618-.217a8.524 8.524 0 0 1-1.214-.538l-.61-.329-.642.263a1.884 1.884 0 0 1-2.029-.395l-.419-.412a1.802 1.802 0 0 1-.286-2.218l.361-.6-.261-.647a8.416 8.416 0 0 1-.11-.287l-.22-.607-.61-.237a1.827 1.827 0 0 1-1.175-1.698v-.75c0-.768.484-1.43 1.175-1.697l.61-.238.22-.606c.044-.122.09-.242.14-.361l.31-.746-.495-.644a1.801 1.801 0 0 1 .172-2.386l.756-.742a1.884 1.884 0 0 1 2.375-.208l.666.457.744-.321a8.48 8.48 0 0 1 .542-.213l.618-.217.24-.6a1.859 1.859 0 0 1 1.73-1.159h.534c.784 0 1.459.478 1.73 1.159l.24.6.618.217c.124.044.247.09.368.14l.862.35.68-.628a1.884 1.884 0 0 1 2.431-.095l.88-.864a3.139 3.139 0 0 0-4.16.073l-.097.09-.123-.05a9.74 9.74 0 0 0-.423-.16l-.088-.032-.034-.085a3.013 3.013 0 0 0-.632-.977 3.114 3.114 0 0 0-2.252-.954h-.534Zm7.325 3.38a1.464 1.464 0 0 0-2.01-.03l-.874.806-1.108-.45a8.184 8.184 0 0 0-.35-.132l-.795-.28-.308-.771a1.446 1.446 0 0 0-1.346-.901h-.534c-.61 0-1.135.37-1.346.901l-.308.771-.794.28a8.034 8.034 0 0 0-.516.202l-.956.413-.856-.588a1.466 1.466 0 0 0-1.847.163l-.756.742a1.4 1.4 0 0 0-.134 1.855l.635.827-.398.96a8.202 8.202 0 0 0-.134.344l-.282.78-.784.305a1.42 1.42 0 0 0-.914 1.32v.75c0 .597.376 1.112.914 1.32l.784.306.283.78c.033.092.068.183.105.273l.336.833-.465.77a1.402 1.402 0 0 0 .223 1.726l.42.411a1.466 1.466 0 0 0 1.578.307l.825-.337.784.423c.37.199.755.37 1.155.511l.794.28.308.771c.212.53.737.901 1.346.901h.534c.61 0 1.135-.37 1.346-.901l.308-.77.794-.28c.175-.063.347-.13.517-.203l.956-.413.855.587c.563.386 1.345.33 1.846-.163l.756-.741c.515-.506.56-1.301.135-1.855l-.635-.828.398-.959c.047-.113.091-.228.133-.343l.283-.78.784-.305a1.42 1.42 0 0 0 .915-1.32v-.75a1.42 1.42 0 0 0-.914-1.322l-.785-.304-.282-.78a8.104 8.104 0 0 0-.353-.827l-.523-1.059.767-.904a1.401 1.401 0 0 0-.09-1.91l-.42-.411Z" fill="#ED1C24"/><path fill-rule="evenodd" clip-rule="evenodd" d="M49.505 51.91a2.56 2.56 0 0 0 2.553-2.568 2.56 2.56 0 0 0-2.553-2.569 2.56 2.56 0 0 0-2.553 2.569 2.56 2.56 0 0 0 2.553 2.568Zm0 1.621a4.197 4.197 0 0 0 4.205-4.19 4.197 4.197 0 0 0-4.205-4.19 4.197 4.197 0 0 0-4.205 4.19 4.197 4.197 0 0 0 4.205 4.19Z" fill="#ED1C24"/><path fill-rule="evenodd" clip-rule="evenodd" d="M49.505 45.354a3.993 3.993 0 0 0-3.998 3.988 3.993 3.993 0 0 0 3.998 3.987 3.993 3.993 0 0 0 3.998-3.987 3.993 3.993 0 0 0-3.998-3.988Zm-4.411 3.988c0-2.424 1.972-4.393 4.411-4.393 2.44 0 4.411 1.97 4.411 4.393s-1.972 4.392-4.411 4.392c-2.439 0-4.411-1.97-4.411-4.392Zm4.411-2.366a2.356 2.356 0 0 0-2.347 2.366 2.356 2.356 0 0 0 2.347 2.365 2.356 2.356 0 0 0 2.347-2.365 2.356 2.356 0 0 0-2.347-2.366Zm-2.76 2.366a2.765 2.765 0 0 1 2.76-2.771c1.504 0 2.76 1.22 2.76 2.77a2.765 2.765 0 0 1-2.76 2.771 2.765 2.765 0 0 1-2.76-2.77Z" fill="#ED1C24"/></svg>