<svg width="280" height="280" fill="none" xmlns="http://www.w3.org/2000/svg"><mask id="a" style="mask-type:alpha" maskUnits="userSpaceOnUse" x="0" y="0" width="280" height="280"><rect x=".813" y=".5" width="278.68" height="278.563" rx="9.5" fill="#fff" stroke="#E6E6E6"/></mask><g mask="url(#a)"><path d="m287.975 106.888-89.357 50.805-90.93-51.185 89.955-51.403 90.332 51.783Zm-180.332 54.034V106.61l90.716 51.145v54.123l-90.716-50.956Z" fill="#fff" stroke="#0070CC" stroke-linejoin="round"/><path d="M198.608 211.753v-54.2l89.445-50.783v54.455l-89.445 50.528Z" fill="#E8F2FA" stroke="#0070CC" stroke-linejoin="round"/><path d="m197.787 185.754-89.358 50.805L17.5 185.374l89.955-51.403 90.332 51.783Z" fill="#fff" stroke="#0070CC" stroke-linejoin="round"/><path d="M17.552 211.901v-26.543l90.956 51.233v26.317l-90.956-51.007Z" fill="#fff" stroke="#0070CC" stroke-linejoin="round"/><path d="M108.494 262.691V236.75l89.686-51.096v26.339l-89.686 50.698Z" fill="#E8F2FA" stroke="#0070CC" stroke-linejoin="round"/><path d="m348.466 257.546-89.357 50.805-90.929-51.185 89.955-51.403 90.331 51.783Z" fill="#fff" stroke="#0070CC" stroke-linejoin="round"/><path d="m348.466 241.13-89.357 50.805-90.929-51.185 89.955-51.403 90.331 51.783Z" fill="#fff" stroke="#0070CC" stroke-linejoin="round"/><path d="m348.466 222.734-89.357 50.805-90.929-51.185 89.955-51.403 90.331 51.783Z" fill="#fff" stroke="#0070CC" stroke-linejoin="round"/><path d="M181.454 17.166c0-2.407-.833-4.208-1.434-5.508-.093-.201-.18-.39-.258-.569-.29-.66-.41-1.068-.355-1.427.059-.385.337-.818 1.144-1.29 1.629-.95 4.408-2.184 7.656-2.708 3.258-.526 6.933-.33 10.366 1.503 4.54 2.423 8.894 6.763 12.105 12.065 3.211 5.302 5.014 11.132 5.014 16.208v32.726c0 5.075-1.803 8.98-5.014 10.855-1.636.956-4.4 2.308-7.328 3.112-1.464.402-2.959.664-4.369.674-1.416.01-2.708-.234-3.773-.803-2.061-1.1-3.386-3.49-4.655-6.552a100.81 100.81 0 0 1-.923-2.329l-.095-.244c-.276-.714-.556-1.44-.846-2.157-.645-1.594-1.355-3.191-2.221-4.622-3.211-5.302-5.014-11.132-5.014-16.207V17.166Z" fill="#0070CC" stroke="#0061B0"/><path d="M218.573 72.46v-.128l-.056-.142-2.354-6.03c.03-.027.068-.057.117-.091a4.45 4.45 0 0 1 .722-.38c.62-.271 1.458-.559 2.321-.832.693-.219 1.395-.427 2.009-.608l.434-.13c.35-.103.657-.196.895-.273.226-.073.417-.14.51-.196.465-.271 1.096-.227 1.754.124.657.351 1.288.98 1.753 1.748.465.768.726 1.613.726 2.348v6.546c0 7.989-2.654 14.276-7.449 17.642-2.408 1.69-6.26 3.353-9.92 4.338-1.829.492-3.6.812-5.109.883-.754.036-1.435.01-2.019-.085-.592-.095-1.049-.255-1.37-.455l-.484-.302v9.293l.448.239 17.568 9.376c.657.351 1.288.979 1.753 1.747.465.768.727 1.613.727 2.349 0 .735-.262 1.301-.727 1.573a99.845 99.845 0 0 1-3.857 2.117c-.904.467-1.809.908-2.534 1.206-.364.15-.675.26-.915.321a1.511 1.511 0 0 1-.318.05l-38.022-22.716-.013-.008-.013-.006c-.297-.159-.849-.616-1.43-1.191-.581-.577-1.074-1.157-1.283-1.501l-.13-.215-.184-.1a11.072 11.072 0 0 1-1.96-1.343 4.013 4.013 0 0 1-.6-.635.73.73 0 0 1-.113-.204l.004-.007a.857.857 0 0 1 .129-.154c.128-.126.32-.272.565-.433.486-.32 1.147-.672 1.832-1.012a67.12 67.12 0 0 1 1.951-.919l.191-.087c.466-.212.83-.378.962-.455.466-.271 1.096-.227 1.754.124l.008.004 15.839 8.144.44.226V91.273l-.403-.26c-7.182-4.64-15.41-11.83-20.167-20.248-4.769-8.438-6.915-18.878-6.915-26.918v-.126l-.053-.14-2.187-5.71c.033-.036.078-.078.137-.126.169-.136.42-.295.734-.467.627-.345 1.473-.73 2.343-1.102.853-.364 1.723-.712 2.423-.991l.038-.015.026-.01c.679-.272 1.214-.486 1.368-.576.465-.271 1.096-.227 1.753.124.657.351 1.288.98 1.753 1.748.465.768.727 1.613.727 2.348v7.484c0 7.077 2.515 15.205 6.991 22.598 4.477 7.393 10.549 13.445 16.88 16.824 6.332 3.379 12.404 3.808 16.88 1.193 2.271-1.326 3.064-3.215 3.271-5.677.102-1.212.062-2.557-.001-4.01a616.42 616.42 0 0 1-.033-.726 86.804 86.804 0 0 1-.117-4.03Zm-2.476-6.225-.002.004.002-.004Zm-52.756-28.287-.001.002.001-.002Z" fill="#0070CC" stroke="#0061B0"/><path d="M174.246 19.761c0-5.075 1.804-8.98 5.015-10.855 3.21-1.875 7.565-1.567 12.105.856s8.894 6.763 12.105 12.065c3.211 5.302 5.014 11.132 5.014 16.207v32.727c0 5.075-1.803 8.98-5.014 10.855-3.211 1.875-7.565 1.567-12.105-.856s-8.895-6.763-12.105-12.065c-3.211-5.302-5.015-11.132-5.015-16.208V19.761Z" fill="#fff" stroke="#0061B0"/><path d="m194.249 95.227-.403-.17v14.207l.448.239 17.568 9.375c.657.351 1.288.98 1.753 1.748.465.768.727 1.613.727 2.349 0 .735-.262 1.301-.727 1.573-.465.271-1.096.227-1.753-.124l-40.991-21.877c-.658-.351-1.288-.979-1.754-1.748-.465-.768-.726-1.613-.726-2.348 0-.736.261-1.301.726-1.573.466-.272 1.096-.227 1.754.124l17.567 9.376.448.239V92.41l-.403-.26c-7.111-4.594-13.704-11.836-18.499-20.32-4.794-8.483-7.449-17.605-7.449-25.594v-6.545c0-.736.261-1.301.727-1.573.465-.272 1.095-.227 1.753.124.658.35 1.288.98 1.753 1.747.466.769.727 1.613.727 2.349v6.545c0 7.076 2.515 15.205 6.991 22.598 4.477 7.393 10.549 13.444 16.88 16.823 6.331 3.38 12.403 3.809 16.88 1.194 4.477-2.615 6.992-8.059 6.992-15.135v-6.545c0-.736.261-1.301.726-1.573.465-.272 1.096-.227 1.753.124.658.35 1.289.98 1.754 1.748.465.768.726 1.612.726 2.348v6.545c.001 7.99-2.654 14.277-7.449 17.643-4.795 3.366-11.387 3.57-18.499.574Z" fill="#fff" stroke="#0061B0"/><path d="m70.423 168.381 63.012 35.551m-72.592-30.483L123.855 209m-44.99-45.688 63.011 35.551M88.04 158.244l63.012 35.551m-53.837-40.62 63.012 35.551" stroke="#0070CC" stroke-linejoin="round"/></g></svg>