<?xml version="1.0" encoding="utf-8"?>
<!-- Generator: Adobe Illustrator 24.0.3, SVG Export Plug-In . SVG Version: 6.00 Build 0)  -->
<svg version="1.1" id="Capa_1" xmlns="http://www.w3.org/2000/svg" xmlns:xlink="http://www.w3.org/1999/xlink" x="0px" y="0px"
	 viewBox="0 0 320 320" style="enable-background:new 0 0 320 320;" xml:space="preserve">
<style type="text/css">
	.st0{fill:none;}
</style>
<title>icon_</title>
<path class="st0" d="M118.3,246.9c0,0-12.2,7.1,8.7,9.5c25.2,2.9,38.1,2.5,65.9-2.8c5.6,3.3,11.4,6.2,17.5,8.5
	C148,288.8,69.4,260.6,118.3,246.9"/>
<path class="st0" d="M110.7,212.1c0,0-13.7,10.1,7.2,12.2c26.9,2.8,48.2,3,85-4.1c3.8,3.5,8.2,6.3,13.1,8
	C140.7,250.3,56.8,230,110.7,212.1"/>
<path class="st0" d="M174.8,153.1c15.3,17.7-4,33.6-4,33.6s38.9-20.1,21.1-45.3c-16.7-23.5-29.5-35.2,39.8-75.4
	C231.7,66,122.8,93.1,174.8,153.1"/>
<path class="st0" d="M257.1,272.7c0,0,9,7.4-9.9,13.1c-35.9,10.9-149.5,14.2-181.1,0.4c-11.3-4.9,9.9-11.8,16.6-13.2
	c3.6-0.9,7.3-1.3,11-1.2c-12.6-8.9-81.6,17.5-35,25C185.6,317.4,290,287.5,257.1,272.7"/>
<path class="st0" d="M124.1,176c0,0-57.8,13.7-20.5,18.7c15.8,2.1,47.2,1.6,76.4-0.8c23.9-2,47.9-6.3,47.9-6.3
	c-5,2.2-9.9,4.8-14.5,7.8c-58.7,15.4-172.1,8.3-139.4-7.5C101.7,174.5,124.1,176,124.1,176"/>
<path class="st0" d="M227.8,234c59.7-31,32.1-60.8,12.8-56.8c-2.3,0.4-4.6,1-6.8,1.8c1.3-1.8,3-3.2,5.1-3.9
	c38.1-13.4,67.4,39.5-12.3,60.4C227.1,235.1,227.5,234.5,227.8,234"/>
<path class="st0" d="M191.8,1c0,0,33.1,33-31.3,83.9c-51.6,40.8-11.8,64,0,90.6c-30.1-27.2-52.2-51.1-37.4-73.4
	C144.8,69.3,205.1,53.5,191.8,1"/>
<path class="st0" d="M130,318c57.3,3.7,145.2-2,147.3-29.1c0,0-4,10.3-47.3,18.4c-48.9,9.2-109.2,8.1-144.9,2.2
	C85,309.5,92.4,315.6,130,318"/>
</svg>
