<svg id="Capa_1" data-name="Capa 1" xmlns="http://www.w3.org/2000/svg" viewBox="0 0 320 320"><defs><style>.cls-1{fill:#c8c8c8;}</style></defs><title>icon-python</title><g id="layer1"><g id="g1894"><path id="path8615" class="cls-1" d="M158.83,2C78.18,2,83.22,37,83.22,37l.09,36.22h77V84.07H52.75S1.13,78.23,1.13,159.6s45.06,78.49,45.06,78.49H73.06V200.34s-1.44-45.06,44.34-45.06h76.34s42.9.69,42.9-41.46V44.13S243.11,2,158.83,2ZM116.39,26.35a13.84,13.84,0,1,1-13.84,13.84h0a13.83,13.83,0,0,1,13.82-13.84Z"/><path id="path8620" class="cls-1" d="M161.14,318c80.65,0,75.61-35,75.61-35l-.08-36.22h-77V235.93H267.25s51.62,5.84,51.62-75.53-45.06-78.49-45.06-78.49H246.94v37.75s1.44,45.06-44.34,45.06H126.26s-42.9-.69-42.9,41.46v69.69S76.83,318,161.14,318Zm42.44-24.34a13.84,13.84,0,1,1,13.84-13.84h0a13.83,13.83,0,0,1-13.8,13.86h0Z"/></g></g></svg>