<svg id="Capa_1" data-name="Capa 1" xmlns="http://www.w3.org/2000/svg" viewBox="0 0 320 320"><defs><style>.cls-1{fill:#c8c8c8;fill-rule:evenodd;}</style></defs><title>icon_php</title><path class="cls-1" d="M239.83,137.34h-14l-5.4,32.37h13c9.71-1.08,18.34-4.32,19.42-22.66C252.78,140.58,247.38,137.34,239.83,137.34Z"/><path class="cls-1" d="M95.27,137.34h-14l-5.4,32.37h13c9.71-1.08,18.34-4.32,19.42-22.66C108.22,140.58,102.82,137.34,95.27,137.34Z"/><path class="cls-1" d="M160,78C73,78,2.49,114.72,2.49,160S73,242,160,242s157.51-36.71,157.51-82S247,78,160,78ZM91,185.89H71.54l-4.32,22.66H46.72L64,121.16h39.9c17.26,1.08,25.89,9.71,25.89,24.82C129.79,171.87,109.3,187,91,185.89Zm81.21-48.55H156l-9.71,48.55h-20.5L143,98.51h20.5l-4.32,22.65H178.6c17.26,1.08,23.74,9.71,21.58,20.5l-7.55,44.23H171.09L178.64,146c1.08-5.42,1.08-8.66-6.47-8.66Zm63.35,48.55H216.1l-4.32,22.66H191.29l17.26-87.39h39.91c17.26,1.08,25.89,9.71,25.89,24.82,0,25.89-20.49,41-38.83,39.91Z"/></svg>