<svg id="Capa_1" data-name="Capa 1" xmlns="http://www.w3.org/2000/svg" viewBox="0 0 320 320"><defs><style>.cls-1{fill:#c8c8c8;}</style></defs><title>icon_net</title><path class="cls-1" d="M111.57,122.65c11.42,34.94,15.76,97.27,49.18,97.27h0a42.26,42.26,0,0,0,7.69-.73h0c-30.37-7.09-34-68.74-52.52-100.67h0q-2.16,2-4.35,4.13"/><path class="cls-1" d="M142.63,99.53a42.37,42.37,0,0,0-7.7.73,59,59,0,0,0-20.55,8.6,52.53,52.53,0,0,1,5.39,6.33,72.8,72.8,0,0,1,21-12.76,47.6,47.6,0,0,1,7.85-2.18,24.75,24.75,0,0,0-6-.72"/><path class="cls-1" d="M196.89,204.94c2.8-2.22,5.59-4.68,8.38-7.35-11.61-34.78-15.77-98-49.41-98a39.23,39.23,0,0,0-7.26.67c30.66,7.62,34.58,74.3,48.29,104.69"/><path class="cls-1" d="M148.6,100.25a24.27,24.27,0,0,0-6-.72h13.23a38.39,38.39,0,0,0-7.26.67"/><path class="cls-1" d="M196.31,212.32a47.55,47.55,0,0,1-3.79-4.11,69.55,69.55,0,0,1-16.91,9,26.49,26.49,0,0,0,6.3,2.15,26.94,26.94,0,0,0,5.37.53c6.28,0,11.26-.75,15.49-2.77a29.37,29.37,0,0,1-6.46-4.83"/><path class="cls-1" d="M119.77,115.19c21,28.83,28.58,88.7,55.84,102.05h0a69,69,0,0,0,16.91-9h0c-21.91-26.39-24.29-91.41-51.75-105.78h0a72.8,72.8,0,0,0-21,12.76"/><path class="cls-1" d="M98.11,121.8c-3.31,7.45-6.67,17.27-10.75,30.06a224.3,224.3,0,0,1,24.21-29.23,86.83,86.83,0,0,0-3.57-9.32,121.23,121.23,0,0,0-9.89,8.49"/><path class="cls-1" d="M110.93,111.16c-1,.7-2,1.4-2.92,2.16a84.1,84.1,0,0,1,3.56,9.33c1.46-1.44,2.91-2.81,4.35-4.13a56.39,56.39,0,0,0-5-7.36"/><path class="cls-1" d="M301.64,96.86c-15.52,59.87-47.95,108-75.15,120.09h-.05c-.5.23-1,.43-1.47.63l-.17.07c-.14.07-.28.1-.43.17l-.18.07-.68.24-.28.1-.34.11-.32.11-.29.1-.59.18c-.08,0-.16.05-.25.06l-.4.11a1.11,1.11,0,0,1-.26.07l-.42.12-.53.11a11,11,0,0,0,3.89.68c25.79,0,51.79-46.2,94.79-123H301.64Z"/><path class="cls-1" d="M81.76,102h.06l.43-.16h.2l.44-.16h0c.34-.1.67-.22,1-.35H84a3.06,3.06,0,0,1,.43-.13.66.66,0,0,1,.2-.06l.42-.13a.43.43,0,0,0,.16-.05l1.42-.36h.2a3.1,3.1,0,0,1,.42-.08l.19-.07.43-.07H88l.86-.16H89a.7.7,0,0,0,.4-.08c.13-.08.15,0,.23,0a2.32,2.32,0,0,0,.38-.06.41.41,0,0,0,.22,0l.92-.08c-.91-.09-1.83-.14-2.75-.14-29,0-69,53.87-87,123.63H5q8.65-15.42,15.69-29.15c12.56-49.38,38.27-83.08,61.1-92"/><path class="cls-1" d="M100.49,102.36a25,25,0,0,1,5.15,6.4c.48-.6,1-1.16,1.49-1.69a29.15,29.15,0,0,0-7-4.91,1.77,1.77,0,0,0,.31.15h.06"/><path class="cls-1" d="M32.62,222.91h0a1.08,1.08,0,0,0-.47.07h-.56a4.81,4.81,0,0,0-1,.07h-.1c26.79-.75,39-14.17,45.12-33.63,4.63-14.75,8.42-27.18,11.73-37.6-11.22,15.79-22.49,34.62-33.82,55.72C48.09,217.73,39.77,222,32.64,222.89"/><path class="cls-1" d="M90.32,99.75H90.1a2.29,2.29,0,0,1-.37,0h0a.45.45,0,0,0-.23,0h0a2.66,2.66,0,0,1-.39.07h0a.28.28,0,0,0-.18,0h0l-.86.15H88l-.42.09h0a.27.27,0,0,0-.21.06h0l-.42.09h0l-.2.05h0l-1.42.36h-.16l-.42.12h0a.23.23,0,0,0-.2.07h0l-.43.12H84c-.32.12-.64.25-1,.35h0l-.45.15h0l-.19.07h0l-.42.15h0a.35.35,0,0,1-.14.06h0c-22.14,8.74-34.68,41-61.15,92h0A243.34,243.34,0,0,0,15,223.15H30.59a5.88,5.88,0,0,0,1-.06h.57a3.55,3.55,0,0,0,.47-.06h0c20.7-44.45,43.13-79.82,65.49-101.1h0a55,55,0,0,1,7.53-13h0a24.92,24.92,0,0,0-5.15-6.41h0l-.31-.15h0l-.31-.16h0l-.32-.15h0c-.13,0-.23-.1-.36-.15h0l-.28-.13h0a6.14,6.14,0,0,1-.59-.25h0l-.25-.1h0l-.44-.17h0a.88.88,0,0,0-.23-.07h0L96.8,101h0l-.7-.2H96l-.58-.16h-.14c-.47-.13-1-.22-1.47-.32h-.15c-.21,0-.42-.08-.64-.1h0a.13.13,0,0,0-.12,0h0l-.76-.1H92a5.7,5.7,0,0,0-.58-.06h0l-.93.09"/><path class="cls-1" d="M210.87,210.58a24.07,24.07,0,0,1-6.52,5.71,16.87,16.87,0,0,1-1.58.85,22.65,22.65,0,0,0,8.29,2.62h0c.45.05.89.09,1.36.11h.08a3.53,3.53,0,0,1,.65,0h2.22a.53.53,0,0,0,.25,0,2,2,0,0,0,.49,0h.25a4.52,4.52,0,0,0,.53-.06h.16l.56-.09h.16a2.77,2.77,0,0,0,.64-.11h.1c.42-.09.85-.17,1.27-.28-3.5-1.28-6.44-4.31-9-8.63"/><path class="cls-1" d="M160.75,219.92a39.7,39.7,0,0,0,7.69-.75,46.85,46.85,0,0,0,7.17-1.93,26.49,26.49,0,0,0,6.3,2.15,26.94,26.94,0,0,0,5.37.53Z"/><path class="cls-1" d="M187.28,219.92c6.28,0,11.26-.75,15.49-2.77a22.65,22.65,0,0,0,8.29,2.62h0c.45,0,.89.09,1.36.11h.08a3.53,3.53,0,0,1,.65,0H187.28Z"/><path class="cls-1" d="M213.94,219.92h1.46a.53.53,0,0,0,.25,0,4,4,0,0,0,.49,0h.24a4.6,4.6,0,0,0,.52-.06h.17l.56-.09a.25.25,0,0,0,.17,0l.64-.1h.1c.42-.08.85-.16,1.27-.27h0a11,11,0,0,0,3.89.68h-9.8Z"/><path class="cls-1" d="M205.28,197.62h0q-4.2,4-8.37,7.34-2.19,1.74-4.38,3.29a50.82,50.82,0,0,0,3.79,4.11,29.3,29.3,0,0,0,6.47,4.82c.54-.26,1.06-.55,1.57-.85a23.61,23.61,0,0,0,6.52-5.71,70.82,70.82,0,0,1-5.6-13"/><path class="cls-1" d="M288.52,96.86H272.68l-2.51.13h0c-.39.83-.79,1.65-1.17,2.49h0c-13.11,27.92-26.88,52.12-40.86,71.35h0c-6.57,20.23-11.4,32.51-17.31,39.73h0c2.53,4.31,5.48,7.34,9,8.63h0a.38.38,0,0,0,.27-.07h.26a1.45,1.45,0,0,0,.44-.12h0l.26-.07h0l.39-.1h0a1,1,0,0,1,.25-.07h0l.58-.18h0l.29-.1h0l.32-.11h0l.34-.11h0l.28-.1h0c.22-.09.44-.15.68-.24h0c.06,0,.13-.06.19-.07h0c.14-.07.27-.1.42-.17h0a.64.64,0,0,1,.18-.06h0l1.47-.62h.05c.7-.31,1.42-.66,2.13-1h0c22.73-12.69,34.2-55.35,69.87-119.08h-10Z"/><path class="cls-1" d="M107.13,107.08a39.45,39.45,0,0,1,3.78,4.08c1.16-.81,2.31-1.58,3.46-2.3a36.49,36.49,0,0,0-4.77-4,25.16,25.16,0,0,0-2.47,2.26"/><path class="cls-1" d="M91.25,99.67c.72-.07,1.43-.09,2.16-.09a27.39,27.39,0,0,1,16.22,5.25c5-3.93,11-5.3,19.35-5.3H88.51a17.78,17.78,0,0,1,2.74.14"/><path class="cls-1" d="M228.18,170.87c3.59-11.08,7.7-24.54,12.81-40.86,4.6-14.7,12.75-25.69,28-30.49.4-.83.79-1.67,1.17-2.5-24.92,1.5-36.58,14.18-42.44,33-10.25,32.79-16.47,54-22.44,67.57a198.46,198.46,0,0,0,22.87-26.68"/></svg>