<svg id="Capa_1" data-name="Capa 1" xmlns="http://www.w3.org/2000/svg" viewBox="0 0 320 320"><defs><style>.cls-1{fill:#c8c8c8;}</style></defs><title>icon-python</title><path class="cls-1" d="M60,207.62s-44.84,67.92,43.28,81.75c8.61,1.11,72.46,7.73,88.94,28.63,0,0-1.51-36.08-53.36-57.36S65.74,234.08,60,207.62Z"/><path class="cls-1" d="M103.64,61.36S-21.8,137.84,96.41,213.93c22.81,14.73,105.25,56,102.82,93.95,0,0,50-74.08-23-120.49C101.12,139.64,82.32,88.85,103.64,61.36Z"/><path class="cls-1" d="M233.2,136.19C179.48,79.86,164.54,45.07,187.51,0c0,0-160.54,61.77-2.06,171.34,56.76,39.25,47.26,79.26,47.3,80.74C241.72,242.82,286.93,192.52,233.2,136.19Z"/></svg>