<svg id="Capa_1" data-name="Capa 1" xmlns="http://www.w3.org/2000/svg" viewBox="0 0 320 320"><defs><style>.cls-1{fill:#c8c8c8;}</style></defs><title>icon_node</title><path class="cls-1" d="M160.06,319.38a24.55,24.55,0,0,1-12.26-3.28L108.8,293c-5.83-3.25-3-4.4-1.07-5.07,7.77-2.72,9.34-3.33,17.63-8.05a3,3,0,0,1,2.9.21l30,17.78a4,4,0,0,0,3.62,0l116.8-67.43a3.66,3.66,0,0,0,1.78-3.15V92.52a3.75,3.75,0,0,0-1.81-3.22L161.89,22a3.57,3.57,0,0,0-3.6,0L41.55,89.3a3.75,3.75,0,0,0-1.84,3.19V227.27a3.61,3.61,0,0,0,1.81,3.13l32,18.47c17.37,8.69,28-1.54,28-11.84V104a3.33,3.33,0,0,1,3.3-3.36h14.89A3.35,3.35,0,0,1,123,104V237.1c0,23.15-12.63,36.46-34.59,36.46-6.75,0-12.07,0-26.93-7.31l-30.6-17.66a24.7,24.7,0,0,1-12.26-21.31V92.49A24.53,24.53,0,0,1,30.88,71.21L147.79,3.76a25.64,25.64,0,0,1,24.57,0L289.12,71.24a24.65,24.65,0,0,1,12.26,21.28V227.3a24.72,24.72,0,0,1-12.26,21.29L172.35,316A24.65,24.65,0,0,1,160,319.31"/><path class="cls-1" d="M196.13,226.5c-51.11,0-61.82-23.46-61.82-43.14a3.35,3.35,0,0,1,3.34-3.36h15.13a3.37,3.37,0,0,1,3.33,2.85c2.28,15.37,9.06,23.13,40,23.13,24.61,0,35.08-5.56,35.08-18.62,0-7.51-3-13.1-41.22-16.84-32-3.16-51.76-10.2-51.76-35.79,0-23.56,19.88-37.6,53.18-37.6,37.4,0,55.94,13,58.27,40.88a3.45,3.45,0,0,1-.9,2.6,3.5,3.5,0,0,1-2.49,1.08h-15.2a3.36,3.36,0,0,1-3.28-2.63c-3.65-16.17-12.48-21.34-36.48-21.34-26.87,0-30,9.36-30,16.38,0,8.51,3.68,11,39.94,15.78,35.9,4.77,52.94,11.49,52.94,36.72,0,25.44-21.23,40-58.23,40"/></svg>