<svg width="81" height="81" viewBox="0 0 81 81" fill="none" xmlns="http://www.w3.org/2000/svg">
<rect x="0.776001" y="0.601074" width="80" height="80" rx="10" fill="#F6F6F6"/>
<rect width="48.0001" height="48" transform="translate(16.776 16.6011)" fill="#F6F6F6"/>
<path fill-rule="evenodd" clip-rule="evenodd" d="M19.3045 50.5826L47.7504 21.5198L49.0934 22.8919L20.6475 51.9547L19.3045 50.5826Z" fill="black"/>
<path fill-rule="evenodd" clip-rule="evenodd" d="M24.7997 56.1969L53.2456 27.1341L54.5886 28.5062L26.1427 57.569L24.7997 56.1969Z" fill="black"/>
<path fill-rule="evenodd" clip-rule="evenodd" d="M30.2948 61.8113L58.7408 32.7485L60.0838 34.1207L31.6378 63.1835L30.2948 61.8113Z" fill="black"/>
<path d="M44.5114 50.4326C44.5114 58.2576 38.3027 64.6011 30.6437 64.6011C22.9848 64.6011 16.776 58.2576 16.776 50.4326C16.776 42.6076 22.9848 36.2642 30.6437 36.2642C38.3027 36.2642 44.5114 42.6076 44.5114 50.4326Z" fill="white"/>
<path fill-rule="evenodd" clip-rule="evenodd" d="M30.6437 62.6811C37.2036 62.6811 42.5914 57.2363 42.5914 50.4326C42.5914 43.6289 37.2036 38.1842 30.6437 38.1842C24.0838 38.1842 18.696 43.6289 18.696 50.4326C18.696 57.2363 24.0838 62.6811 30.6437 62.6811ZM30.6437 64.6011C38.3027 64.6011 44.5114 58.2576 44.5114 50.4326C44.5114 42.6076 38.3027 36.2642 30.6437 36.2642C22.9848 36.2642 16.776 42.6076 16.776 50.4326C16.776 58.2576 22.9848 64.6011 30.6437 64.6011Z" fill="black"/>
<path d="M39.6363 50.3942C39.6363 55.4896 35.5933 59.6202 30.6061 59.6202C25.6189 59.6202 21.576 55.4896 21.576 50.3942C21.576 45.2989 25.6189 41.1683 30.6061 41.1683C35.5933 41.1683 39.6363 45.2989 39.6363 50.3942Z" fill="white"/>
<path fill-rule="evenodd" clip-rule="evenodd" d="M30.6061 57.7002C34.4943 57.7002 37.7163 54.4683 37.7163 50.3942C37.7163 46.3202 34.4943 43.0883 30.6061 43.0883C26.7179 43.0883 23.496 46.3202 23.496 50.3942C23.496 54.4683 26.7179 57.7002 30.6061 57.7002ZM30.6061 59.6202C35.5933 59.6202 39.6363 55.4896 39.6363 50.3942C39.6363 45.2989 35.5933 41.1683 30.6061 41.1683C25.6189 41.1683 21.576 45.2989 21.576 50.3942C21.576 55.4896 25.6189 59.6202 30.6061 59.6202Z" fill="black"/>
<path d="M64.7761 28.044C64.7761 34.3637 59.7616 39.4869 53.576 39.4869C47.3905 39.4869 42.376 34.3637 42.376 28.044C42.376 21.7242 47.3905 16.6011 53.576 16.6011C59.7616 16.6011 64.7761 21.7242 64.7761 28.044Z" fill="white"/>
<path fill-rule="evenodd" clip-rule="evenodd" d="M53.576 37.5669C58.6626 37.5669 62.8561 33.3424 62.8561 28.044C62.8561 22.7456 58.6626 18.5211 53.576 18.5211C48.4895 18.5211 44.296 22.7456 44.296 28.044C44.296 33.3424 48.4895 37.5669 53.576 37.5669ZM53.576 39.4869C59.7616 39.4869 64.7761 34.3637 64.7761 28.044C64.7761 21.7242 59.7616 16.6011 53.576 16.6011C47.3905 16.6011 42.376 21.7242 42.376 28.044C42.376 34.3637 47.3905 39.4869 53.576 39.4869Z" fill="#ED1C24"/>
<path fill-rule="evenodd" clip-rule="evenodd" d="M59.9218 24.0714L53.2533 32.2977L47.8909 27.4318L49.1812 26.01L53.0401 29.5117L58.4303 22.8623L59.9218 24.0714Z" fill="#ED1C24"/>
</svg>
