<svg width="80" height="81" viewBox="0 0 80 81" fill="none" xmlns="http://www.w3.org/2000/svg">
<rect y="0.601074" width="80" height="80" rx="10" fill="#F6F6F6"/>
<g clip-path="url(#clip0_19:62)">
<path d="M21.9955 54.6077V25.6792C21.9955 25.6792 25.5318 29.524 36.4271 29.524C47.3224 29.524 51.1759 25.3809 51.1759 25.3809V54.6077C39.7802 58.2756 33.3911 58.3927 21.9955 54.6077Z" fill="white"/>
<path d="M52.0551 24.2087C52.0551 27.3056 45.1334 29.8162 36.4129 29.8162C27.6925 29.8162 20.7708 27.3056 20.7708 24.2087C20.7708 21.1117 27.6925 18.6011 36.4129 18.6011C45.1334 18.6011 52.0551 21.1117 52.0551 24.2087Z" fill="white"/>
<path fill-rule="evenodd" clip-rule="evenodd" d="M50.1807 24.2087C50.1807 24.2012 50.181 24.1529 50.1205 24.0465C50.0528 23.9274 49.9139 23.7465 49.6492 23.5216C49.1073 23.0613 48.205 22.5571 46.9123 22.0946C44.3435 21.1757 40.6482 20.5684 36.427 20.5684C32.2059 20.5684 28.5105 21.1757 25.9417 22.0946C24.649 22.5571 23.7467 23.0613 23.2048 23.5216C22.9401 23.7465 22.8013 23.9274 22.7336 24.0465C22.6731 24.1529 22.6733 24.2008 22.6734 24.2082C22.6733 24.2156 22.6731 24.2644 22.7336 24.3708C22.8013 24.4899 22.9401 24.6708 23.2048 24.8957C23.7467 25.356 24.649 25.8602 25.9417 26.3227C28.5105 27.2416 32.2059 27.8489 36.427 27.8489C40.6482 27.8489 44.3435 27.2416 46.9123 26.3227C48.205 25.8602 49.1073 25.356 49.6492 24.8957C49.9139 24.6708 50.0528 24.4899 50.1205 24.3708C50.181 24.2644 50.1807 24.2161 50.1807 24.2087ZM36.427 29.8162C45.1977 29.8162 52.1593 27.3056 52.1593 24.2087C52.1593 21.1117 45.1977 18.6011 36.427 18.6011C27.6563 18.6011 20.6947 21.1117 20.6947 24.2087C20.6947 27.3056 27.6563 29.8162 36.427 29.8162Z" fill="black"/>
<path fill-rule="evenodd" clip-rule="evenodd" d="M20.7954 52.6823L20.6952 24.0231L22.6625 24.0144L22.7627 52.6736L20.7954 52.6823Z" fill="black"/>
<path fill-rule="evenodd" clip-rule="evenodd" d="M50.192 52.8756L50.192 24.3047L52.1593 24.3047L52.1593 52.8756L50.192 52.8756Z" fill="black"/>
<path fill-rule="evenodd" clip-rule="evenodd" d="M26.4376 55.5798C28.9644 56.512 32.5206 57.1082 36.4967 57.1082C40.4729 57.1082 44.0291 56.512 46.5559 55.5798C47.8231 55.1123 48.7798 54.579 49.4016 54.0366C50.0257 53.4923 50.2203 53.0263 50.2203 52.6659H52.1877C52.1877 53.8038 51.5592 54.7652 50.6948 55.5192C49.8282 56.2751 48.6311 56.9111 47.2368 57.4255C44.4406 58.4571 40.6432 59.0755 36.4967 59.0755C32.3503 59.0755 28.5529 58.4571 25.7567 57.4255C24.3624 56.9111 23.1653 56.2751 22.2987 55.5192C21.4343 54.7652 20.8058 53.8038 20.8058 52.6659H22.7732C22.7732 53.0263 22.9678 53.4923 23.5919 54.0366C24.2137 54.579 25.1704 55.1123 26.4376 55.5798Z" fill="black"/>
<path d="M26.8668 42.0924L28.2405 41.9589C28.3232 42.42 28.4901 42.7586 28.7413 42.9749C28.9957 43.1911 29.3376 43.2992 29.7669 43.2992C30.2216 43.2992 30.5635 43.2038 30.7924 43.013C31.0245 42.8191 31.1406 42.5933 31.1406 42.3357C31.1406 42.1704 31.0913 42.0304 30.9927 41.916C30.8973 41.7983 30.7288 41.6965 30.4871 41.6107C30.3218 41.5534 29.945 41.4517 29.3567 41.3054C28.5998 41.1178 28.0688 40.8872 27.7635 40.6138C27.3342 40.229 27.1196 39.7599 27.1196 39.2066C27.1196 38.8505 27.2197 38.5182 27.4201 38.2097C27.6236 37.8981 27.9146 37.6612 28.293 37.499C28.6746 37.3368 29.1341 37.2557 29.6715 37.2557C30.5491 37.2557 31.209 37.4481 31.651 37.8329C32.0962 38.2177 32.3299 38.7312 32.3522 39.3736L30.9403 39.4356C30.8799 39.0763 30.7495 38.8187 30.5491 38.6629C30.352 38.5039 30.0547 38.4244 29.6572 38.4244C29.247 38.4244 28.9258 38.5086 28.6936 38.6772C28.5442 38.7853 28.4695 38.93 28.4695 39.1112C28.4695 39.2766 28.5394 39.4181 28.6793 39.5358C28.8574 39.6852 29.2899 39.841 29.9768 40.0032C30.6636 40.1654 31.1708 40.3339 31.4984 40.5088C31.8291 40.6805 32.0866 40.9175 32.2711 41.2195C32.4587 41.5185 32.5525 41.8889 32.5525 42.3309C32.5525 42.7316 32.4412 43.1068 32.2186 43.4566C31.996 43.8064 31.6812 44.0672 31.2742 44.2389C30.8671 44.4074 30.3599 44.4917 29.7526 44.4917C28.8685 44.4917 28.1896 44.2882 27.7158 43.8812C27.242 43.471 26.959 42.8747 26.8668 42.0924Z" fill="black"/>
<path d="M39.3687 43.4805C39.7154 43.7285 40.0922 43.9257 40.4992 44.072L39.9793 45.0689C39.7662 45.0053 39.5579 44.9178 39.3544 44.8065C39.3099 44.7843 38.9967 44.5776 38.4148 44.1864C37.9568 44.3868 37.4496 44.4869 36.8931 44.4869C35.8183 44.4869 34.9756 44.1705 34.3651 43.5377C33.7577 42.9049 33.454 42.0161 33.454 40.8713C33.454 39.7297 33.7593 38.8425 34.3699 38.2097C34.9804 37.5737 35.8088 37.2557 36.855 37.2557C37.8917 37.2557 38.7137 37.5737 39.321 38.2097C39.9284 38.8425 40.2321 39.7297 40.2321 40.8713C40.2321 41.4755 40.1478 42.0066 39.9793 42.4645C39.8521 42.8143 39.6486 43.153 39.3687 43.4805ZM38.2335 42.6839C38.4148 42.4709 38.5499 42.2133 38.6389 41.9112C38.7312 41.6091 38.7773 41.2625 38.7773 40.8713C38.7773 40.0636 38.5992 39.461 38.243 39.0635C37.8869 38.6629 37.421 38.4625 36.8454 38.4625C36.2699 38.4625 35.8024 38.6629 35.4431 39.0635C35.0869 39.4642 34.9089 40.0668 34.9089 40.8713C34.9089 41.6886 35.0869 42.3007 35.4431 42.7078C35.8024 43.1116 36.2556 43.3135 36.8025 43.3135C37.006 43.3135 37.1984 43.2802 37.3797 43.2134C37.0935 43.0258 36.8025 42.8795 36.5068 42.7745L36.9027 41.9684C37.367 42.1274 37.8106 42.3659 38.2335 42.6839Z" fill="black"/>
<path d="M41.3816 44.3677V37.4322H42.7935V43.1895H46.3042V44.3677H41.3816Z" fill="black"/>
<path d="M39.9131 58.9488L38.6013 56.5875L45.1604 55.3507L46.9595 57.5995C42.8741 58.6864 42.2369 58.7239 39.9131 58.9488Z" fill="white"/>
<path fill-rule="evenodd" clip-rule="evenodd" d="M62.4877 53.1096C62.4877 57.4904 58.9377 61.1059 54.5419 61.1059L54.5419 59.4768C58.023 59.4768 60.8586 56.6056 60.8586 53.1096C60.8586 49.5572 57.9775 46.6398 54.4401 46.6398H54.2765L54.2765 45.0107H54.4401C58.8921 45.0107 62.4877 48.6725 62.4877 53.1096Z" fill="black"/>
<path fill-rule="evenodd" clip-rule="evenodd" d="M54.8961 46.0542L58.1741 43.1056L57.0845 41.8944L52.5954 45.9325L56.6335 50.4217L57.8447 49.3321L54.8961 46.0542Z" fill="black"/>
<path fill-rule="evenodd" clip-rule="evenodd" d="M39.2798 52.966C39.2798 48.5852 42.8298 44.9697 47.2256 44.9697L47.2256 46.5988C43.7445 46.5988 40.909 49.4699 40.909 52.966C40.909 56.5183 43.7901 59.4358 47.3275 59.4358H47.491V61.0649H47.3275C42.8754 61.0649 39.2798 57.4031 39.2798 52.966Z" fill="#ED1C24"/>
<path fill-rule="evenodd" clip-rule="evenodd" d="M46.876 60.0922L43.8967 56.8422L45.0976 55.7413L49.1778 60.1923L44.7269 64.2724L43.626 63.0715L46.876 60.0922Z" fill="#ED1C24"/>
</g>
<defs>
<clipPath id="clip0_19:62">
<rect width="48" height="48" fill="white" transform="translate(16 16.6011)"/>
</clipPath>
</defs>
</svg>
