<svg width="81" height="81" viewBox="0 0 81 81" fill="none" xmlns="http://www.w3.org/2000/svg">
<rect x="0.22406" y="0.601074" width="80" height="80" rx="10" fill="#F6F6F6"/>
<path fill-rule="evenodd" clip-rule="evenodd" d="M40.9144 38.3665C30.6092 38.3665 22.2079 46.86 22.2079 57.3955H20.5563C20.5563 46.0165 29.6448 36.7448 40.9144 36.7448V38.3665Z" fill="black"/>
<path fill-rule="evenodd" clip-rule="evenodd" d="M20.3499 57.3955C20.3499 45.9111 29.5242 36.5421 40.9144 36.5421H41.1208V38.5693H40.9144C30.7297 38.5693 22.4144 46.9655 22.4144 57.3955V57.5982H20.3499V57.3955ZM20.7637 57.1928H22.0025C22.1088 46.7158 30.443 38.2768 40.7079 38.165V36.9485C29.7212 37.0603 20.8702 46.0816 20.7637 57.1928Z" fill="black"/>
<path fill-rule="evenodd" clip-rule="evenodd" d="M39.4448 36.8548C43.5346 36.8548 46.8913 33.5445 46.8913 29.4108C46.8913 25.277 43.5346 21.9667 39.4448 21.9667C35.355 21.9667 31.9983 25.277 31.9983 29.4108C31.9983 33.5445 35.355 36.8548 39.4448 36.8548ZM39.4448 38.4766C44.4695 38.4766 48.5429 34.4177 48.5429 29.4108C48.5429 24.4038 44.4695 20.3449 39.4448 20.3449C34.4201 20.3449 30.3467 24.4038 30.3467 29.4108C30.3467 34.4177 34.4201 38.4766 39.4448 38.4766Z" fill="black"/>
<path fill-rule="evenodd" clip-rule="evenodd" d="M39.4448 20.5477C34.5369 20.5477 30.5532 24.513 30.5532 29.4108C30.5532 34.3086 34.5369 38.2739 39.4448 38.2739C44.3526 38.2739 48.3364 34.3086 48.3364 29.4108C48.3364 24.513 44.3526 20.5477 39.4448 20.5477ZM30.1403 29.4108C30.1403 24.2947 34.3032 20.1422 39.4448 20.1422C44.5864 20.1422 48.7493 24.2947 48.7493 29.4108C48.7493 34.5269 44.5864 38.6794 39.4448 38.6794C34.3032 38.6794 30.1403 34.5269 30.1403 29.4108ZM39.4448 22.1694C35.4716 22.1694 32.2048 25.3864 32.2048 29.4108C32.2048 33.4352 35.4716 36.6521 39.4448 36.6521C43.4179 36.6521 46.6848 33.4352 46.6848 29.4108C46.6848 25.3864 43.4179 22.1694 39.4448 22.1694ZM31.7919 29.4108C31.7919 25.1677 35.2383 21.764 39.4448 21.764C43.6513 21.764 47.0977 25.1677 47.0977 29.4108C47.0977 33.6539 43.6513 37.0576 39.4448 37.0576C35.2383 37.0576 31.7919 33.6539 31.7919 29.4108Z" fill="black"/>
<path fill-rule="evenodd" clip-rule="evenodd" d="M40.0781 52.7345C40.1189 52.847 40.1617 52.9586 40.2064 53.0692C39.4554 54.3136 39.6247 55.945 40.7142 57.0149L41.1332 57.4264C42.1083 58.3839 43.5413 58.6176 44.74 58.1276C45.194 58.3726 45.6691 58.5837 46.162 58.7574C46.6438 59.9631 47.8394 60.8168 49.2381 60.8168H49.7719C51.1706 60.8168 52.3663 59.9631 52.8481 58.7574C53.0637 58.6814 53.276 58.5982 53.4846 58.5082C54.7727 59.3914 56.5588 59.2686 57.7084 58.1396L58.464 57.3977C59.6427 56.2401 59.7443 54.4253 58.7687 53.1544C58.8262 53.016 58.8806 52.876 58.9318 52.7345C60.1553 52.2594 61.0207 51.0875 61.0207 49.7172V48.9672C61.0207 47.5969 60.1553 46.4251 58.9319 45.9499C58.8065 45.6038 58.6624 45.2665 58.5008 44.9394C59.5819 43.665 59.5137 41.768 58.296 40.5723L57.877 40.1608C56.6115 38.918 54.5745 38.8945 53.2798 40.0903C53.1375 40.0326 52.9936 39.978 52.8481 39.9268C52.3665 38.721 51.1707 37.8672 49.7719 37.8672H49.2381C47.8394 37.8672 46.6436 38.7209 46.1619 39.9267C45.9465 40.0027 45.7344 40.0858 45.526 40.1757C44.2378 39.2918 42.4511 39.4144 41.3012 40.5436L40.5456 41.2855C39.3666 42.4433 39.2652 44.2586 40.2414 45.5295C40.1839 45.6681 40.1294 45.8083 40.078 45.95C38.8548 46.4252 37.9895 47.597 37.9895 48.9672L37.9895 49.7172C37.9895 51.0874 38.8548 52.2592 40.0781 52.7345Z" fill="white"/>
<path fill-rule="evenodd" clip-rule="evenodd" d="M42.0406 53.211L41.6272 53.8959C41.2516 54.5185 41.3389 55.3347 41.8821 55.8681L42.3011 56.2796C42.7868 56.7566 43.5027 56.8767 44.1051 56.6304L44.8389 56.3304L45.5355 56.7063C45.9141 56.9106 46.3099 57.0865 46.7201 57.2311L47.4257 57.4798L47.6995 58.1651C47.9415 58.7707 48.5414 59.195 49.2381 59.195H49.7719C50.4687 59.195 51.0686 58.7707 51.3106 58.1651L51.5844 57.4798L52.29 57.231C52.4694 57.1678 52.6462 57.0985 52.8199 57.0235L53.6694 56.6568L54.4302 57.1785C55.0732 57.6194 55.9669 57.5561 56.5405 56.9929L57.2961 56.2509C57.8845 55.6731 57.9367 54.7649 57.4499 54.1306L56.8853 53.3953L57.2392 52.5425C57.2873 52.4265 57.3329 52.3092 57.3759 52.1907L57.6273 51.4972L58.3244 51.2264C58.939 50.9877 59.3691 50.3998 59.3691 49.7172V48.9672C59.3691 48.2846 58.939 47.6967 58.3244 47.458L57.6273 47.1872L57.376 46.4937C57.2708 46.2037 57.1501 45.9211 57.0147 45.647L56.5497 44.7054L57.2318 43.9013C57.7713 43.2654 57.7363 42.3163 57.1281 41.719L56.7091 41.3075L57.877 40.1608L58.296 40.5723C59.5137 41.768 59.5819 43.665 58.5008 44.9394C58.6624 45.2665 58.8065 45.6038 58.9319 45.9499C60.1553 46.4251 61.0207 47.5969 61.0207 48.9672V49.7172C61.0207 51.0875 60.1553 52.2594 58.9318 52.7345C58.8806 52.876 58.8262 53.016 58.7687 53.1544C59.7443 54.4253 59.6427 56.2401 58.464 57.3977L57.7084 58.1396C56.5588 59.2686 54.7727 59.3914 53.4846 58.5082C53.276 58.5982 53.0637 58.6814 52.8481 58.7574C52.3663 59.9631 51.1706 60.8168 49.7719 60.8168H49.2381C47.8394 60.8168 46.6438 59.9631 46.162 58.7574C45.6691 58.5837 45.194 58.3726 44.74 58.1276C43.5413 58.6176 42.1083 58.3839 41.1332 57.4264L40.7142 57.0149C39.6247 55.945 39.4554 54.3136 40.2064 53.0692C40.1617 52.9586 40.1189 52.847 40.0781 52.7345C38.8548 52.2592 37.9895 51.0874 37.9895 49.7172V48.9672C37.9895 47.597 38.8548 46.4252 40.078 45.95C40.1294 45.8083 40.1839 45.6681 40.2414 45.5295C39.2652 44.2586 39.3666 42.4433 40.5456 41.2855L41.3012 40.5436C42.4511 39.4144 44.2378 39.2918 45.526 40.1757C45.7344 40.0858 45.9465 40.0027 46.1619 39.9267C46.6436 38.7209 47.8394 37.8672 49.2381 37.8672H49.7719C50.7186 37.8672 51.5722 38.2582 52.1745 38.8848C52.2877 39.0025 52.392 39.1286 52.4863 39.2619C52.6318 39.4675 52.7537 39.6904 52.8481 39.9268C52.9936 39.978 53.1375 40.0326 53.2798 40.0903C54.5745 38.8945 56.6115 38.918 57.877 40.1608L56.7091 41.3075C56.0766 40.6864 55.0579 40.6744 54.4113 41.2716L53.6347 41.9889L52.6493 41.5893C52.5309 41.5412 52.4111 41.4958 52.29 41.4531L51.5844 41.2044L51.3106 40.519C51.0686 39.9133 50.4687 39.489 49.7719 39.489H49.2381C48.5414 39.489 47.9414 39.9133 47.6995 40.519L47.4257 41.2043L46.72 41.4531C46.5407 41.5163 46.3642 41.5855 46.1906 41.6604L45.3408 42.0272L44.5799 41.5051C43.9368 41.0638 43.0428 41.1269 42.4691 41.6903L41.7135 42.4323C41.125 43.0102 41.0728 43.9187 41.56 44.5529L42.1249 45.2884L41.7709 46.1415C41.7227 46.2576 41.6771 46.3751 41.634 46.4938L41.3827 47.1872L40.6857 47.458C40.0711 47.6968 39.6411 48.2846 39.6411 48.9672V49.7172C39.6411 50.3998 40.0711 50.9876 40.6857 51.2264L41.3827 51.4972L41.6341 52.1906C41.6683 52.2849 41.7041 52.3784 41.7416 52.4711L42.0406 53.211Z" fill="#ED1C24"/>
<path fill-rule="evenodd" clip-rule="evenodd" d="M46.0053 39.767C46.5386 38.5316 47.785 37.6644 49.2381 37.6644H49.7719C50.7777 37.6644 51.685 38.0802 52.3246 38.7456C52.4448 38.8707 52.5556 39.0045 52.6559 39.1462C52.7927 39.3396 52.91 39.5474 53.0047 39.767C53.0827 39.7953 53.1602 39.8245 53.2373 39.8546C54.616 38.6739 56.7101 38.7282 58.023 40.0174L58.442 40.4289C59.7036 41.6678 59.8039 43.6151 58.7429 44.9668C58.8721 45.237 58.9897 45.5138 59.0951 45.7966C60.3483 46.3222 61.2271 47.5437 61.2271 48.9672V49.7171C61.2271 51.1407 60.3483 52.3621 59.095 52.8878C59.0652 52.9676 59.0345 53.0469 59.0028 53.1258C59.9648 54.4705 59.8339 56.339 58.6099 57.541L57.8544 58.283C56.6613 59.4546 54.8232 59.6062 53.4629 58.7382C53.312 58.8014 53.1592 58.8611 53.0046 58.9171C52.4714 60.1524 51.225 61.0195 49.7719 61.0195H49.2381C47.7851 61.0195 46.5387 60.1524 46.0054 58.9172C45.5641 58.7571 45.137 58.5676 44.7266 58.3511C43.4728 58.8228 41.9984 58.5627 40.9873 57.5697L40.5682 57.1582C39.4356 56.0459 39.2392 54.363 39.9781 53.0526C39.9566 52.9979 39.9356 52.9429 39.915 52.8877C38.6618 52.362 37.7831 51.1406 37.7831 49.7171V48.9672C37.7831 47.5438 38.6618 46.3224 39.9149 45.7966C39.9447 45.7167 39.9755 45.6371 40.0073 45.5581C39.0447 44.2133 39.1754 42.3443 40.3996 41.1422L41.1552 40.4002C42.3486 39.2282 44.1873 39.0769 45.5477 39.9456C45.6984 39.8825 45.851 39.8229 46.0053 39.767ZM49.2381 38.0699C47.9271 38.0699 46.8059 38.87 46.3541 40.0007L46.3199 40.0864L46.2317 40.1175C46.0207 40.1919 45.8131 40.2732 45.6091 40.3613L45.5028 40.4071L45.4077 40.3419C44.2002 39.5132 42.525 39.6284 41.4472 40.6869L40.6916 41.4289C39.5864 42.5142 39.4911 44.2161 40.4062 45.4074L40.4768 45.4993L40.4326 45.606C40.3762 45.7418 40.3228 45.8791 40.2725 46.0179L40.2411 46.1046L40.154 46.1384C39.0068 46.5841 38.196 47.6829 38.196 48.9672V49.7171C38.196 51.0014 39.0069 52.1003 40.1541 52.5459L40.2412 52.5798L40.2726 52.6664C40.3126 52.7767 40.3545 52.886 40.3983 52.9944L40.4356 53.0869L40.384 53.1725C39.6799 54.3391 39.839 55.8686 40.8602 56.8715L41.2792 57.283C42.1931 58.1805 43.5365 58.4 44.6606 57.9404L44.7523 57.9029L44.8394 57.9499C45.284 58.1898 45.7492 58.3965 46.2318 58.5666L46.32 58.5977L46.3542 58.6834C46.806 59.814 47.9272 60.614 49.2381 60.614H49.7719C51.0829 60.614 52.2041 59.814 52.6559 58.6833L52.6901 58.5977L52.7783 58.5666C52.9894 58.4921 53.1973 58.4107 53.4015 58.3225L53.5077 58.2767L53.6028 58.3419C54.8103 59.1699 56.4848 59.0545 57.5624 57.9963L58.318 57.2543C59.423 56.1692 59.5184 54.4677 58.6039 53.2764L58.5333 53.1845L58.5775 53.0779C58.6338 52.9423 58.6871 52.8051 58.7373 52.6665L58.7688 52.5798L58.8559 52.546C60.0032 52.1004 60.8142 51.0015 60.8142 49.7171V48.9672C60.8142 47.6828 60.0033 46.584 58.856 46.1384L58.7689 46.1045L58.7374 46.0178C58.6145 45.6787 58.4733 45.3483 58.315 45.0278L58.2569 44.9101L58.3422 44.8096C59.3556 43.615 59.2915 41.8365 58.15 40.7156L57.877 40.4474L57.0011 41.3075L57.2741 41.5756C57.9583 42.2475 57.9978 43.3152 57.3905 44.0311L56.7936 44.7346L57.2005 45.5585C57.3391 45.8393 57.4628 46.1287 57.5704 46.4257L57.7904 47.0325L58.4004 47.2694C59.0915 47.5379 59.5755 48.199 59.5755 48.9672V49.7171C59.5755 50.4853 59.0914 51.1465 58.4003 51.4149L57.7903 51.6518L57.5704 52.2586C57.5264 52.38 57.4797 52.5002 57.4304 52.619L57.1208 53.3652L57.6147 54.0086C58.1629 54.7227 58.104 55.7442 57.442 56.3942L56.6865 57.1362C56.0412 57.7699 55.036 57.8411 54.312 57.3446L53.6463 56.8882L52.903 57.2091C52.7249 57.2859 52.5437 57.3569 52.3597 57.4218L51.7423 57.6395L51.5028 58.2391C51.2306 58.9202 50.556 59.3977 49.7719 59.3977H49.2381C48.4541 59.3977 47.7795 58.9202 47.5073 58.2391L47.2677 57.6395L46.6503 57.4218C46.2298 57.2736 45.8241 57.0933 45.436 56.8839L44.8265 56.555L44.1845 56.8175C43.5072 57.0944 42.7017 56.9597 42.1552 56.423L41.7361 56.0115C41.125 55.4113 41.0268 54.4932 41.4496 53.7926L41.8113 53.1933L41.5497 52.5458C41.5113 52.4509 41.4746 52.3551 41.4396 52.2586L41.2197 51.6518L40.6098 51.4149C39.9187 51.1464 39.4347 50.4853 39.4347 49.7171V48.9672C39.4347 48.1991 39.9187 47.5379 40.6097 47.2695L41.2196 47.0325L41.4395 46.4258C41.4836 46.3042 41.5303 46.1839 41.5797 46.0649L41.8894 45.3185L41.3951 44.6749C40.8466 43.9609 40.9054 42.9391 41.5675 42.2889L42.3231 41.5469C42.9685 40.9131 43.9741 40.842 44.6982 41.3389L45.3639 41.7957L46.1075 41.4748C46.2854 41.398 46.4664 41.3271 46.6503 41.2623L47.2677 41.0446L47.5073 40.4449C47.7794 39.7638 48.454 39.2862 49.2381 39.2862H49.7719C50.556 39.2862 51.2307 39.7638 51.5028 40.4449L51.7424 41.0446L52.3598 41.2623C52.4839 41.3061 52.6067 41.3526 52.7281 41.4018L53.5904 41.7515L54.2699 41.1239C54.9471 40.4984 55.9866 40.4668 56.7011 41.0287L57.5802 40.1654C56.3879 39.1391 54.5847 39.1633 53.4212 40.2379L53.3241 40.3276L53.201 40.2776C53.0617 40.2211 52.9208 40.1677 52.7784 40.1175L52.6902 40.0864L52.656 40.0008C52.5675 39.7792 52.4532 39.5703 52.3168 39.3776C52.2283 39.2525 52.1305 39.1343 52.0244 39.0239C51.4595 38.4362 50.6594 38.0699 49.7719 38.0699H49.2381ZM56.5631 41.4508C56.0096 40.9073 55.1183 40.8969 54.5528 41.4193L53.6791 42.2261L52.5705 41.7766C52.455 41.7298 52.3382 41.6855 52.2203 41.6439L51.4264 41.364L51.1184 40.593C50.9066 40.0627 50.3814 39.6917 49.7719 39.6917H49.2381C48.6287 39.6917 48.1035 40.0627 47.8917 40.593L47.5836 41.364L46.7898 41.6439C46.615 41.7055 46.4429 41.7729 46.2737 41.846L45.3176 42.2586L44.4616 41.6712C43.8995 41.2854 43.117 41.3407 42.6151 41.8336L41.8595 42.5756C41.3445 43.0813 41.299 43.8764 41.7248 44.4308L42.3603 45.2582L41.9621 46.2179C41.9151 46.3313 41.8705 46.4459 41.8285 46.5617L41.5458 47.3418L40.7616 47.6465C40.2236 47.8555 39.8476 48.3701 39.8476 48.9672V49.7171C39.8476 50.3142 40.2236 50.8288 40.7616 51.0378L41.5458 51.3425L41.8286 52.1226C41.862 52.2146 41.8969 52.3058 41.9335 52.3963L42.2698 53.2287L41.8049 53.9992C41.4763 54.5437 41.5529 55.2581 42.0281 55.7248L42.4471 56.1363C42.872 56.5534 43.4983 56.6589 44.0258 56.4432L44.8513 56.1057L45.6349 56.5286C46.0041 56.7279 46.39 56.8993 46.7899 57.0402L47.5836 57.3201L47.8917 58.091C48.1036 58.6212 48.6287 58.9922 49.2381 58.9922H49.7719C50.3814 58.9922 50.9065 58.6212 51.1184 58.091L51.4264 57.3201L52.2202 57.0402C52.3952 56.9785 52.5674 56.911 52.7368 56.8379L53.6925 56.4254L54.5484 57.0122C55.1105 57.3977 55.8927 57.3423 56.3945 56.8495L57.1501 56.1075C57.6649 55.6019 57.7106 54.807 57.285 54.2526L56.6499 53.4254L57.048 52.466C57.095 52.3528 57.1394 52.2383 57.1814 52.1227L57.4642 51.3425L58.2484 51.0379C58.7866 50.8289 59.1626 50.3142 59.1626 49.7171V48.9672C59.1626 48.3701 58.7866 47.8555 58.2485 47.6465L57.4642 47.3418L57.1815 46.5616C57.0789 46.2786 56.961 46.0029 56.8289 45.7354L56.3058 44.6761L57.0732 43.7716C57.5448 43.2157 57.5143 42.3849 56.9821 41.8623L56.5631 41.4508Z" fill="#ED1C24"/>
<path fill-rule="evenodd" clip-rule="evenodd" d="M49.505 51.9096C50.8923 51.9096 52.0582 50.7823 52.0582 49.3415C52.0582 47.9007 50.8923 46.7735 49.505 46.7735C48.1177 46.7735 46.9519 47.9007 46.9519 49.3415C46.9519 50.7823 48.1177 51.9096 49.505 51.9096ZM49.505 53.5314C51.8272 53.5314 53.7098 51.6555 53.7098 49.3415C53.7098 47.0275 51.8272 45.1517 49.505 45.1517C47.1828 45.1517 45.3003 47.0275 45.3003 49.3415C45.3003 51.6555 47.1828 53.5314 49.505 53.5314Z" fill="#ED1C24"/>
<path fill-rule="evenodd" clip-rule="evenodd" d="M49.505 45.3544C47.2997 45.3544 45.5067 47.1367 45.5067 49.3415C45.5067 51.5464 47.2997 53.3287 49.505 53.3287C51.7104 53.3287 53.5033 51.5464 53.5033 49.3415C53.5033 47.1367 51.7104 45.3544 49.505 45.3544ZM45.0938 49.3415C45.0938 46.9184 47.066 44.949 49.505 44.949C51.9441 44.949 53.9162 46.9184 53.9162 49.3415C53.9162 51.7647 51.9441 53.7341 49.505 53.7341C47.066 53.7341 45.0938 51.7647 45.0938 49.3415ZM49.505 46.9762C48.2341 46.9762 47.1584 48.0104 47.1584 49.3415C47.1584 50.6727 48.2341 51.7069 49.505 51.7069C50.776 51.7069 51.8517 50.6727 51.8517 49.3415C51.8517 48.0104 50.776 46.9762 49.505 46.9762ZM46.7454 49.3415C46.7454 47.791 48.0014 46.5708 49.505 46.5708C51.0086 46.5708 52.2646 47.791 52.2646 49.3415C52.2646 50.8921 51.0086 52.1123 49.505 52.1123C48.0014 52.1123 46.7454 50.8921 46.7454 49.3415Z" fill="#ED1C24"/>
</svg>
