<svg width="986" height="295" viewBox="0 0 986 295" fill="none" xmlns="http://www.w3.org/2000/svg">
<path d="M824.533 203.015V82.0565C824.533 82.0565 839.055 94.216 884.193 94.216C929.33 94.216 945.423 80.6668 945.423 80.6668V203.015C945.423 203.015 938.923 217.873 884.193 218.444C829.462 219.015 824.533 203.015 824.533 203.015Z" fill="white"/>
<path d="M945.829 78.2392C945.829 80.4805 944.407 82.7914 941.409 85.0473C938.428 87.291 934.044 89.3545 928.519 91.1052C917.481 94.6029 902.114 96.7826 884.932 96.7826C867.751 96.7826 852.383 94.6029 841.345 91.1052C835.821 89.3545 831.437 87.291 828.455 85.0473C825.457 82.7914 824.035 80.4805 824.035 78.2392C824.035 75.9978 825.457 73.6869 828.455 71.431C831.437 69.1873 835.821 67.1238 841.345 65.3731C852.383 61.8754 867.751 59.6957 884.932 59.6957C902.114 59.6957 917.481 61.8754 928.519 65.3731C934.044 67.1238 938.428 69.1873 941.409 71.431C944.407 73.6869 945.829 75.9978 945.829 78.2392Z" fill="white" stroke="#ED1C24" stroke-width="2"/>
<path d="M824.217 79.2861L824.217 199.974" stroke="#ED1C24" stroke-width="2"/>
<path d="M945.801 77.5161L945.661 200.101" stroke="#ED1C24" stroke-width="2"/>
<path d="M945.64 199.974C945.64 210.34 918.458 218.743 884.928 218.743C851.398 218.743 824.217 210.34 824.217 199.974" stroke="#ED1C24" stroke-width="2"/>
<path d="M945.64 118.052C945.64 128.418 918.458 136.821 884.928 136.821C851.398 136.821 824.217 128.418 824.217 118.052" stroke="#ED1C24" stroke-width="2"/>
<path d="M945.64 159.295C945.64 169.661 918.458 178.065 884.928 178.065C851.398 178.065 824.217 169.661 824.217 159.295" stroke="#ED1C24" stroke-width="2"/>
<path d="M511.725 157.39L580.842 175.645L580.842 76.4322L511.725 58.1771L443.821 79.2719L443.821 178.073L511.725 157.39Z" fill="white" stroke="#2D2D2D" stroke-width="2"/>
<path d="M512.938 98.2809L443.821 80.0258L443.821 201.007L512.938 219.262L580.842 198.167L580.842 77.5981L512.938 98.2809Z" fill="white" stroke="#2D2D2D" stroke-width="2"/>
<path d="M511.926 98.0856L511.926 217.239" stroke="#2D2D2D" stroke-width="2"/>
<rect y="81.7343" width="127.873" height="127.624" rx="63.8121" fill="#ED1C24"/>
<path d="M52.4784 122.919C52.4784 122.919 23.1675 140.727 50.7914 158.409C56.1054 161.853 75.3789 171.429 74.8306 180.291C74.8306 180.291 86.5128 163.071 69.4323 152.235C51.888 141.147 47.5019 129.303 52.4784 122.919Z" fill="white"/>
<path d="M42.2719 156.939C42.2719 156.939 31.8128 172.731 52.3937 175.965C54.418 176.217 69.3054 177.771 73.1855 182.643C73.1855 182.643 72.8481 174.243 60.702 169.287C48.598 164.331 43.6215 163.113 42.2719 156.939Z" fill="white"/>
<path d="M82.7594 140.349C70.1916 127.245 66.6912 119.139 72.0894 108.639C72.0894 108.639 34.5968 123.003 71.6255 148.497C84.8681 157.611 82.6751 166.935 82.6751 167.271C84.7416 165.129 95.3273 153.453 82.7594 140.349Z" fill="white"/>
<path d="M84.8553 243.234C85.2459 242.843 85.8791 242.843 86.2696 243.234L92.6335 249.598C93.024 249.988 93.024 250.621 92.6335 251.012C92.243 251.403 91.6098 251.403 91.2193 251.012L85.5625 245.355L79.9056 251.012C79.5151 251.403 78.8819 251.403 78.4914 251.012C78.1009 250.621 78.1009 249.988 78.4914 249.598L84.8553 243.234ZM478.646 295H115.562V293H478.646V295ZM84.5625 264V243.941H86.5625V264H84.5625ZM115.562 295C98.4417 295 84.5625 281.121 84.5625 264H86.5625C86.5625 280.016 99.5462 293 115.562 293V295ZM506.344 267.302C506.344 282.599 493.943 295 478.646 295V293C492.839 293 504.344 281.495 504.344 267.302H506.344Z" fill="black"/>
<path d="M84.8553 51.7662C85.2459 52.1568 85.8791 52.1568 86.2696 51.7662L92.6335 45.4023C93.024 45.0118 93.024 44.3786 92.6335 43.9881C92.243 43.5975 91.6098 43.5975 91.2193 43.9881L85.5625 49.6449L79.9056 43.9881C79.5151 43.5975 78.8819 43.5975 78.4914 43.9881C78.1009 44.3786 78.1009 45.0118 78.4914 45.4023L84.8553 51.7662ZM478.646 3.03382e-06L115.562 4.42928e-05L115.562 2.00004L478.646 2L478.646 3.03382e-06ZM84.5625 31L84.5625 51.0591L86.5625 51.0591L86.5625 31L84.5625 31ZM115.562 4.42928e-05C98.4416 4.62383e-05 84.5625 13.8792 84.5625 31L86.5625 31C86.5625 14.9838 99.5462 2.00005 115.562 2.00004L115.562 4.42928e-05ZM506.344 27.698C506.344 12.4008 493.943 1.29553e-06 478.646 3.03382e-06L478.646 2C492.838 2 504.344 13.5054 504.344 27.698L506.344 27.698Z" fill="black"/>
<path d="M412.975 144.271C413.527 144.271 413.975 144.719 413.975 145.271C413.975 145.824 413.527 146.271 412.975 146.271L412.975 144.271ZM155.233 145.978C154.843 145.588 154.843 144.955 155.233 144.564L161.597 138.2C161.988 137.81 162.621 137.81 163.011 138.2C163.402 138.591 163.402 139.224 163.011 139.614L157.355 145.271L163.011 150.928C163.402 151.319 163.402 151.952 163.011 152.342C162.621 152.733 161.988 152.733 161.597 152.342L155.233 145.978ZM412.975 146.271L155.94 146.271L155.94 144.271L412.975 144.271L412.975 146.271Z" fill="black"/>
<path d="M620.396 134.922C619.843 134.922 619.396 135.37 619.396 135.922C619.396 136.475 619.843 136.922 620.396 136.922V134.922ZM793.571 136.629C793.962 136.239 793.962 135.606 793.571 135.215L787.208 128.851C786.817 128.461 786.184 128.461 785.793 128.851C785.403 129.242 785.403 129.875 785.793 130.265L791.45 135.922L785.793 141.579C785.403 141.97 785.403 142.603 785.793 142.993C786.184 143.384 786.817 143.384 787.208 142.993L793.571 136.629ZM620.396 136.922H792.864V134.922H620.396V136.922Z" fill="black"/>
<path d="M792.864 153.466C793.417 153.466 793.864 153.019 793.864 152.466C793.864 151.914 793.417 151.466 792.864 151.466L792.864 153.466ZM619.689 151.759C619.298 152.15 619.298 152.783 619.689 153.174L626.053 159.537C626.443 159.928 627.076 159.928 627.467 159.537C627.857 159.147 627.857 158.514 627.467 158.123L621.81 152.466L627.467 146.81C627.857 146.419 627.857 145.786 627.467 145.395C627.076 145.005 626.443 145.005 626.053 145.395L619.689 151.759ZM792.864 151.466L620.396 151.466L620.396 153.466L792.864 153.466L792.864 151.466Z" fill="black"/>
<path d="M265.748 129.016L267.536 128.86C267.62 129.576 267.816 130.165 268.122 130.627C268.434 131.083 268.916 131.454 269.567 131.74C270.218 132.02 270.95 132.16 271.764 132.16C272.487 132.16 273.125 132.053 273.678 131.838C274.232 131.623 274.642 131.33 274.909 130.959C275.182 130.582 275.319 130.171 275.319 129.729C275.319 129.28 275.189 128.889 274.928 128.557C274.668 128.218 274.238 127.935 273.639 127.707C273.255 127.558 272.405 127.326 271.09 127.014C269.775 126.695 268.854 126.395 268.327 126.115C267.643 125.757 267.132 125.315 266.793 124.787C266.461 124.253 266.295 123.658 266.295 123C266.295 122.278 266.5 121.604 266.911 120.979C267.321 120.347 267.92 119.869 268.707 119.543C269.495 119.218 270.371 119.055 271.334 119.055C272.396 119.055 273.33 119.227 274.137 119.573C274.951 119.911 275.576 120.412 276.012 121.076C276.448 121.74 276.683 122.492 276.715 123.332L274.899 123.469C274.801 122.564 274.469 121.88 273.903 121.418C273.343 120.956 272.513 120.725 271.413 120.725C270.267 120.725 269.43 120.936 268.903 121.36C268.382 121.776 268.122 122.281 268.122 122.873C268.122 123.388 268.307 123.811 268.678 124.143C269.043 124.475 269.993 124.817 271.53 125.168C273.073 125.513 274.131 125.816 274.704 126.076C275.537 126.461 276.152 126.949 276.549 127.541C276.946 128.127 277.145 128.804 277.145 129.573C277.145 130.334 276.927 131.054 276.491 131.731C276.054 132.401 275.426 132.925 274.606 133.303C273.792 133.674 272.874 133.86 271.852 133.86C270.556 133.86 269.469 133.671 268.59 133.293C267.718 132.916 267.031 132.349 266.53 131.594C266.035 130.832 265.775 129.973 265.748 129.016ZM290.782 132.082C291.661 132.688 292.472 133.13 293.214 133.41L292.657 134.729C291.629 134.358 290.603 133.772 289.581 132.971C288.52 133.563 287.348 133.86 286.066 133.86C284.77 133.86 283.595 133.547 282.54 132.922C281.486 132.297 280.672 131.418 280.099 130.285C279.532 129.153 279.249 127.877 279.249 126.457C279.249 125.045 279.536 123.759 280.109 122.6C280.682 121.441 281.495 120.559 282.55 119.953C283.611 119.348 284.796 119.045 286.105 119.045C287.426 119.045 288.618 119.361 289.679 119.992C290.74 120.617 291.547 121.496 292.101 122.629C292.661 123.755 292.941 125.028 292.941 126.448C292.941 127.626 292.762 128.687 292.404 129.631C292.045 130.569 291.505 131.386 290.782 132.082ZM286.613 129.66C287.706 129.966 288.608 130.422 289.318 131.028C290.431 130.012 290.988 128.485 290.988 126.448C290.988 125.289 290.789 124.276 290.392 123.41C290.001 122.545 289.425 121.874 288.663 121.399C287.908 120.917 287.058 120.676 286.114 120.676C284.702 120.676 283.53 121.161 282.599 122.131C281.668 123.095 281.202 124.537 281.202 126.457C281.202 128.319 281.661 129.748 282.579 130.744C283.504 131.74 284.682 132.239 286.114 132.239C286.792 132.239 287.43 132.112 288.029 131.858C287.436 131.474 286.811 131.2 286.154 131.037L286.613 129.66ZM295.621 133.615V119.299H297.516V131.926H304.566V133.615H295.621Z" fill="#9C9C9C"/>
<path d="M170.586 33.62L172.48 34.0985C172.083 35.6545 171.367 36.8427 170.332 37.663C169.303 38.4768 168.043 38.8837 166.553 38.8837C165.01 38.8837 163.753 38.5712 162.783 37.9462C161.82 37.3147 161.084 36.4032 160.576 35.2118C160.075 34.0204 159.824 32.7411 159.824 31.3739C159.824 29.883 160.107 28.5842 160.674 27.4774C161.247 26.3641 162.057 25.521 163.105 24.9481C164.16 24.3687 165.319 24.079 166.582 24.079C168.014 24.079 169.219 24.4436 170.195 25.1727C171.172 25.9019 171.852 26.9273 172.236 28.2489L170.371 28.6884C170.039 27.6467 169.557 26.8882 168.926 26.413C168.294 25.9377 167.5 25.7001 166.543 25.7001C165.443 25.7001 164.521 25.9637 163.779 26.4911C163.043 27.0184 162.526 27.7281 162.226 28.62C161.927 29.5054 161.777 30.4201 161.777 31.3641C161.777 32.5816 161.953 33.646 162.305 34.5575C162.663 35.4624 163.216 36.1395 163.965 36.5887C164.713 37.038 165.524 37.2626 166.396 37.2626C167.458 37.2626 168.356 36.9566 169.092 36.3446C169.827 35.7326 170.325 34.8244 170.586 33.62ZM174.145 33.454C174.145 31.5334 174.679 30.1109 175.747 29.1864C176.639 28.4182 177.726 28.0341 179.008 28.0341C180.434 28.0341 181.6 28.5028 182.505 29.4403C183.41 30.3713 183.862 31.6604 183.862 33.3075C183.862 34.6421 183.66 35.6936 183.257 36.4618C182.859 37.2235 182.277 37.816 181.508 38.2391C180.747 38.6623 179.913 38.8739 179.008 38.8739C177.557 38.8739 176.382 38.4084 175.483 37.4774C174.591 36.5464 174.145 35.2053 174.145 33.454ZM175.952 33.454C175.952 34.7821 176.242 35.7782 176.821 36.4423C177.4 37.0998 178.13 37.4286 179.008 37.4286C179.881 37.4286 180.607 37.0966 181.186 36.4325C181.766 35.7684 182.055 34.7561 182.055 33.3954C182.055 32.1128 181.762 31.1428 181.176 30.4852C180.597 29.8212 179.874 29.4891 179.008 29.4891C178.13 29.4891 177.4 29.8179 176.821 30.4755C176.242 31.133 175.952 32.1259 175.952 33.454ZM186.132 38.6395V28.2684H187.705V29.7235C188.03 29.2157 188.463 28.8088 189.003 28.5028C189.544 28.1903 190.159 28.0341 190.849 28.0341C191.617 28.0341 192.246 28.1936 192.734 28.5126C193.229 28.8316 193.577 29.2775 193.779 29.8505C194.599 28.6395 195.667 28.0341 196.982 28.0341C198.011 28.0341 198.802 28.3205 199.355 28.8934C199.908 29.4598 200.185 30.3355 200.185 31.5204V38.6395H198.437V32.1063C198.437 31.4032 198.378 30.8986 198.261 30.5927C198.151 30.2802 197.945 30.0295 197.646 29.8407C197.346 29.6519 196.995 29.5575 196.591 29.5575C195.862 29.5575 195.257 29.8016 194.775 30.2899C194.293 30.7717 194.052 31.5464 194.052 32.6141V38.6395H192.294V31.9012C192.294 31.12 192.151 30.5341 191.865 30.1434C191.578 29.7528 191.11 29.5575 190.458 29.5575C189.964 29.5575 189.505 29.6877 189.082 29.9481C188.665 30.2085 188.362 30.5894 188.173 31.0907C187.985 31.592 187.89 32.3147 187.89 33.2587V38.6395H186.132ZM202.992 42.6141V28.2684H204.594V29.6161C204.972 29.0887 205.398 28.6949 205.873 28.4344C206.349 28.1675 206.925 28.0341 207.602 28.0341C208.487 28.0341 209.268 28.2619 209.946 28.7177C210.623 29.1734 211.134 29.8179 211.479 30.6512C211.824 31.4781 211.996 32.3863 211.996 33.3759C211.996 34.4371 211.804 35.3941 211.42 36.2469C211.043 37.0933 210.489 37.7443 209.76 38.2001C209.037 38.6493 208.276 38.8739 207.475 38.8739C206.889 38.8739 206.362 38.7502 205.893 38.5028C205.431 38.2554 205.05 37.9429 204.75 37.5653V42.6141H202.992ZM204.584 33.5126C204.584 34.8472 204.854 35.8335 205.395 36.4716C205.935 37.1096 206.589 37.4286 207.358 37.4286C208.139 37.4286 208.806 37.0998 209.36 36.4423C209.92 35.7782 210.199 34.7528 210.199 33.3661C210.199 32.0445 209.926 31.0549 209.379 30.3973C208.839 29.7398 208.191 29.411 207.436 29.411C206.687 29.411 206.023 29.7626 205.444 30.4657C204.871 31.1623 204.584 32.1779 204.584 33.5126ZM221.122 38.6395V37.1161C220.315 38.288 219.218 38.8739 217.831 38.8739C217.219 38.8739 216.646 38.7567 216.112 38.5223C215.585 38.288 215.191 37.995 214.931 37.6434C214.677 37.2854 214.498 36.8492 214.394 36.3348C214.322 35.9898 214.286 35.4429 214.286 34.6942V28.2684H216.044V34.0204C216.044 34.9384 216.08 35.5568 216.151 35.8759C216.262 36.3381 216.496 36.7027 216.855 36.9696C217.213 37.23 217.655 37.3602 218.183 37.3602C218.71 37.3602 219.205 37.2268 219.667 36.9598C220.129 36.6864 220.455 36.3186 220.644 35.8563C220.839 35.3876 220.937 34.7105 220.937 33.8251V28.2684H222.694V38.6395H221.122ZM229.496 37.0673L229.75 38.62C229.255 38.7242 228.812 38.7762 228.422 38.7762C227.784 38.7762 227.289 38.6753 226.937 38.4735C226.586 38.2717 226.338 38.008 226.195 37.6825C226.052 37.3505 225.98 36.6571 225.98 35.6024V29.6356H224.691V28.2684H225.98V25.7001L227.728 24.6454V28.2684H229.496V29.6356H227.728V35.7001C227.728 36.2014 227.758 36.5236 227.816 36.6669C227.881 36.8101 227.982 36.924 228.119 37.0087C228.262 37.0933 228.464 37.1356 228.724 37.1356C228.92 37.1356 229.177 37.1128 229.496 37.0673ZM238.524 35.2997L240.34 35.5243C240.054 36.5855 239.523 37.4091 238.749 37.995C237.974 38.5809 236.984 38.8739 235.78 38.8739C234.263 38.8739 233.059 38.4084 232.167 37.4774C231.281 36.5399 230.839 35.2281 230.839 33.5419C230.839 31.7971 231.288 30.4429 232.186 29.4794C233.085 28.5158 234.25 28.0341 235.682 28.0341C237.069 28.0341 238.202 28.5061 239.081 29.4501C239.96 30.3941 240.399 31.7222 240.399 33.4344C240.399 33.5386 240.396 33.6949 240.389 33.9032H232.655C232.72 35.0425 233.042 35.9149 233.622 36.5204C234.201 37.1259 234.924 37.4286 235.79 37.4286C236.434 37.4286 236.984 37.2593 237.44 36.9208C237.896 36.5822 238.257 36.0419 238.524 35.2997ZM232.753 32.4579H238.544C238.465 31.5855 238.244 30.9312 237.88 30.495C237.32 29.8179 236.594 29.4794 235.702 29.4794C234.895 29.4794 234.214 29.7496 233.661 30.2899C233.114 30.8303 232.811 31.5529 232.753 32.4579ZM256.707 36.9501C256.128 37.5946 255.496 38.0796 254.813 38.4052C254.129 38.7242 253.39 38.8837 252.596 38.8837C251.131 38.8837 249.969 38.3889 249.11 37.3993C248.413 36.592 248.065 35.6903 248.065 34.6942C248.065 33.8088 248.348 33.0113 248.914 32.3016C249.487 31.5855 250.34 30.9572 251.473 30.4169C250.828 29.6747 250.399 29.0725 250.184 28.6102C249.969 28.148 249.862 27.702 249.862 27.2723C249.862 26.413 250.197 25.6675 250.867 25.036C251.545 24.398 252.394 24.079 253.416 24.079C254.393 24.079 255.19 24.3785 255.809 24.9774C256.434 25.5764 256.746 26.2958 256.746 27.1356C256.746 28.4963 255.845 29.6584 254.041 30.6219L256.61 33.8934C256.903 33.3205 257.13 32.6565 257.293 31.9012L259.119 32.2919C258.807 33.5419 258.384 34.5705 257.85 35.3778C258.507 36.2502 259.253 36.9826 260.086 37.5751L258.905 38.9716C258.195 38.5158 257.463 37.842 256.707 36.9501ZM253.133 29.4891C253.895 29.0399 254.386 28.646 254.608 28.3075C254.836 27.969 254.949 27.5946 254.949 27.1844C254.949 26.6962 254.793 26.299 254.481 25.993C254.175 25.6805 253.791 25.5243 253.328 25.5243C252.853 25.5243 252.456 25.6773 252.137 25.9833C251.824 26.2893 251.668 26.6636 251.668 27.1063C251.668 27.3277 251.724 27.5621 251.834 27.8094C251.951 28.0503 252.124 28.3075 252.352 28.5809L253.133 29.4891ZM255.604 35.5634L252.381 31.5692C251.431 32.1356 250.789 32.663 250.457 33.1512C250.125 33.633 249.959 34.1115 249.959 34.5868C249.959 35.1662 250.19 35.7684 250.653 36.3934C251.115 37.0184 251.769 37.3309 252.616 37.3309C253.143 37.3309 253.686 37.1682 254.246 36.8427C254.813 36.5106 255.265 36.0842 255.604 35.5634ZM267.996 38.6395V24.3231H270.848L274.236 34.4598C274.549 35.4038 274.777 36.1102 274.92 36.579C275.083 36.0581 275.336 35.2932 275.682 34.2841L279.109 24.3231H281.658V38.6395H279.832V26.6571L275.672 38.6395H273.963L269.822 26.452V38.6395H267.996ZM291.458 37.3602C290.807 37.9136 290.178 38.3042 289.573 38.5321C288.974 38.76 288.329 38.8739 287.639 38.8739C286.5 38.8739 285.624 38.5972 285.012 38.0438C284.4 37.4839 284.094 36.771 284.094 35.9052C284.094 35.3973 284.208 34.9351 284.436 34.5184C284.671 34.0953 284.973 33.7567 285.344 33.5028C285.722 33.2489 286.145 33.0568 286.614 32.9266C286.959 32.8355 287.48 32.7476 288.176 32.663C289.596 32.4937 290.641 32.2919 291.311 32.0575C291.318 31.8166 291.321 31.6636 291.321 31.5985C291.321 30.8824 291.155 30.3778 290.823 30.0848C290.374 29.6877 289.706 29.4891 288.821 29.4891C287.994 29.4891 287.382 29.6356 286.985 29.9286C286.594 30.215 286.305 30.7261 286.116 31.4618L284.397 31.2274C284.553 30.4917 284.811 29.8993 285.169 29.4501C285.527 28.9943 286.044 28.646 286.721 28.4052C287.398 28.1578 288.183 28.0341 289.075 28.0341C289.96 28.0341 290.68 28.1382 291.233 28.3466C291.786 28.5549 292.193 28.8186 292.454 29.1376C292.714 29.4501 292.896 29.8472 293.001 30.329C293.059 30.6285 293.089 31.1688 293.089 31.9501V34.2938C293.089 35.9279 293.124 36.9631 293.196 37.3993C293.274 37.829 293.424 38.2424 293.645 38.6395H291.809C291.627 38.2749 291.51 37.8485 291.458 37.3602ZM291.311 33.4344C290.673 33.6949 289.716 33.9162 288.44 34.0985C287.717 34.2027 287.206 34.3199 286.907 34.4501C286.607 34.5803 286.376 34.7723 286.214 35.0262C286.051 35.2736 285.969 35.5503 285.969 35.8563C285.969 36.3251 286.145 36.7157 286.497 37.0282C286.855 37.3407 287.376 37.4969 288.059 37.4969C288.736 37.4969 289.339 37.3505 289.866 37.0575C290.393 36.758 290.781 36.3511 291.028 35.8368C291.217 35.4397 291.311 34.8537 291.311 34.079V33.4344ZM302.79 34.8407L304.519 35.0653C304.33 36.2567 303.845 37.191 303.064 37.868C302.289 38.5386 301.335 38.8739 300.203 38.8739C298.783 38.8739 297.641 38.4117 296.775 37.4872C295.915 36.5562 295.486 35.2248 295.486 33.493C295.486 32.3733 295.671 31.3934 296.042 30.5536C296.414 29.7137 296.977 29.0855 297.732 28.6688C298.494 28.2456 299.32 28.0341 300.212 28.0341C301.339 28.0341 302.26 28.3205 302.976 28.8934C303.692 29.4598 304.151 30.2671 304.353 31.3153L302.644 31.579C302.481 30.8824 302.192 30.3583 301.775 30.0067C301.365 29.6552 300.867 29.4794 300.281 29.4794C299.395 29.4794 298.676 29.7984 298.123 30.4364C297.569 31.0679 297.292 32.0705 297.292 33.4442C297.292 34.8374 297.559 35.8498 298.093 36.4813C298.627 37.1128 299.324 37.4286 300.183 37.4286C300.873 37.4286 301.449 37.217 301.912 36.7938C302.374 36.3706 302.667 35.7196 302.79 34.8407ZM306.223 38.6395V24.3231H307.981V29.4598C308.801 28.5093 309.836 28.0341 311.086 28.0341C311.854 28.0341 312.522 28.1871 313.088 28.493C313.655 28.7925 314.058 29.2092 314.299 29.743C314.546 30.2769 314.67 31.0516 314.67 32.0673V38.6395H312.912V32.0673C312.912 31.1884 312.72 30.5503 312.336 30.1532C311.959 29.7496 311.421 29.5477 310.725 29.5477C310.204 29.5477 309.713 29.6844 309.25 29.9579C308.795 30.2248 308.469 30.5894 308.274 31.0516C308.078 31.5139 307.981 32.1519 307.981 32.9657V38.6395H306.223ZM317.566 26.3446V24.3231H319.323V26.3446H317.566ZM317.566 38.6395V28.2684H319.323V38.6395H317.566ZM322.209 38.6395V28.2684H323.791V29.743C324.553 28.6037 325.653 28.0341 327.092 28.0341C327.717 28.0341 328.29 28.148 328.81 28.3759C329.338 28.5972 329.732 28.8902 329.992 29.2548C330.252 29.6193 330.435 30.0523 330.539 30.5536C330.604 30.8791 330.637 31.4488 330.637 32.2626V38.6395H328.879V32.3309C328.879 31.6148 328.81 31.0809 328.674 30.7294C328.537 30.3713 328.293 30.0881 327.941 29.8798C327.596 29.6649 327.189 29.5575 326.721 29.5575C325.972 29.5575 325.324 29.7951 324.777 30.2704C324.237 30.7456 323.967 31.6473 323.967 32.9755V38.6395H322.209ZM340.641 35.2997L342.458 35.5243C342.171 36.5855 341.641 37.4091 340.866 37.995C340.091 38.5809 339.102 38.8739 337.897 38.8739C336.38 38.8739 335.176 38.4084 334.284 37.4774C333.398 36.5399 332.956 35.2281 332.956 33.5419C332.956 31.7971 333.405 30.4429 334.303 29.4794C335.202 28.5158 336.367 28.0341 337.799 28.0341C339.186 28.0341 340.319 28.5061 341.198 29.4501C342.077 30.3941 342.516 31.7222 342.516 33.4344C342.516 33.5386 342.513 33.6949 342.507 33.9032H334.772C334.837 35.0425 335.16 35.9149 335.739 36.5204C336.318 37.1259 337.041 37.4286 337.907 37.4286C338.551 37.4286 339.102 37.2593 339.557 36.9208C340.013 36.5822 340.374 36.0419 340.641 35.2997ZM334.87 32.4579H340.661C340.583 31.5855 340.361 30.9312 339.997 30.495C339.437 29.8179 338.711 29.4794 337.819 29.4794C337.012 29.4794 336.331 29.7496 335.778 30.2899C335.231 30.8303 334.928 31.5529 334.87 32.4579ZM350.787 38.6395V24.3231H352.682V36.9501H359.733V38.6395H350.787ZM369.073 35.2997L370.89 35.5243C370.603 36.5855 370.073 37.4091 369.298 37.995C368.523 38.5809 367.534 38.8739 366.329 38.8739C364.812 38.8739 363.608 38.4084 362.716 37.4774C361.83 36.5399 361.388 35.2281 361.388 33.5419C361.388 31.7971 361.837 30.4429 362.735 29.4794C363.634 28.5158 364.799 28.0341 366.232 28.0341C367.618 28.0341 368.751 28.5061 369.63 29.4501C370.509 30.3941 370.948 31.7222 370.948 33.4344C370.948 33.5386 370.945 33.6949 370.939 33.9032H363.204C363.269 35.0425 363.592 35.9149 364.171 36.5204C364.75 37.1259 365.473 37.4286 366.339 37.4286C366.983 37.4286 367.534 37.2593 367.989 36.9208C368.445 36.5822 368.806 36.0419 369.073 35.2997ZM363.302 32.4579H369.093C369.015 31.5855 368.793 30.9312 368.429 30.495C367.869 29.8179 367.143 29.4794 366.251 29.4794C365.444 29.4794 364.763 29.7496 364.21 30.2899C363.663 30.8303 363.36 31.5529 363.302 32.4579ZM380.074 37.3602C379.423 37.9136 378.795 38.3042 378.189 38.5321C377.59 38.76 376.946 38.8739 376.256 38.8739C375.116 38.8739 374.241 38.5972 373.629 38.0438C373.017 37.4839 372.711 36.771 372.711 35.9052C372.711 35.3973 372.825 34.9351 373.053 34.5184C373.287 34.0953 373.59 33.7567 373.961 33.5028C374.338 33.2489 374.762 33.0568 375.23 32.9266C375.575 32.8355 376.096 32.7476 376.793 32.663C378.212 32.4937 379.257 32.2919 379.928 32.0575C379.934 31.8166 379.937 31.6636 379.937 31.5985C379.937 30.8824 379.771 30.3778 379.439 30.0848C378.99 29.6877 378.323 29.4891 377.437 29.4891C376.611 29.4891 375.999 29.6356 375.601 29.9286C375.211 30.215 374.921 30.7261 374.732 31.4618L373.014 31.2274C373.17 30.4917 373.427 29.8993 373.785 29.4501C374.143 28.9943 374.661 28.646 375.338 28.4052C376.015 28.1578 376.799 28.0341 377.691 28.0341C378.577 28.0341 379.296 28.1382 379.849 28.3466C380.403 28.5549 380.81 28.8186 381.07 29.1376C381.331 29.4501 381.513 29.8472 381.617 30.329C381.676 30.6285 381.705 31.1688 381.705 31.9501V34.2938C381.705 35.9279 381.741 36.9631 381.812 37.3993C381.891 37.829 382.04 38.2424 382.262 38.6395H380.426C380.243 38.2749 380.126 37.8485 380.074 37.3602ZM379.928 33.4344C379.29 33.6949 378.333 33.9162 377.057 34.0985C376.334 34.2027 375.823 34.3199 375.523 34.4501C375.224 34.5803 374.993 34.7723 374.83 35.0262C374.667 35.2736 374.586 35.5503 374.586 35.8563C374.586 36.3251 374.762 36.7157 375.113 37.0282C375.471 37.3407 375.992 37.4969 376.676 37.4969C377.353 37.4969 377.955 37.3505 378.482 37.0575C379.01 36.758 379.397 36.3511 379.644 35.8368C379.833 35.4397 379.928 34.8537 379.928 34.079V33.4344ZM384.62 38.6395V28.2684H386.202V29.8407C386.605 29.105 386.977 28.62 387.315 28.3856C387.66 28.1512 388.038 28.0341 388.448 28.0341C389.04 28.0341 389.643 28.2229 390.255 28.6005L389.649 30.2313C389.219 29.9774 388.79 29.8505 388.36 29.8505C387.976 29.8505 387.631 29.9677 387.325 30.202C387.019 30.4299 386.801 30.7489 386.671 31.1591C386.475 31.7841 386.378 32.4677 386.378 33.2098V38.6395H384.62ZM391.499 38.6395V28.2684H393.082V29.743C393.843 28.6037 394.943 28.0341 396.382 28.0341C397.007 28.0341 397.58 28.148 398.101 28.3759C398.628 28.5972 399.022 28.8902 399.283 29.2548C399.543 29.6193 399.725 30.0523 399.83 30.5536C399.895 30.8791 399.927 31.4488 399.927 32.2626V38.6395H398.169V32.3309C398.169 31.6148 398.101 31.0809 397.964 30.7294C397.828 30.3713 397.583 30.0881 397.232 29.8798C396.887 29.6649 396.48 29.5575 396.011 29.5575C395.263 29.5575 394.615 29.7951 394.068 30.2704C393.527 30.7456 393.257 31.6473 393.257 32.9755V38.6395H391.499ZM402.842 26.3446V24.3231H404.6V26.3446H402.842ZM402.842 38.6395V28.2684H404.6V38.6395H402.842ZM407.485 38.6395V28.2684H409.067V29.743C409.829 28.6037 410.929 28.0341 412.368 28.0341C412.993 28.0341 413.566 28.148 414.087 28.3759C414.614 28.5972 415.008 28.8902 415.269 29.2548C415.529 29.6193 415.711 30.0523 415.816 30.5536C415.881 30.8791 415.913 31.4488 415.913 32.2626V38.6395H414.155V32.3309C414.155 31.6148 414.087 31.0809 413.95 30.7294C413.814 30.3713 413.569 30.0881 413.218 29.8798C412.873 29.6649 412.466 29.5575 411.997 29.5575C411.248 29.5575 410.601 29.7951 410.054 30.2704C409.513 30.7456 409.243 31.6473 409.243 32.9755V38.6395H407.485ZM418.496 39.4989L420.205 39.7528C420.277 40.2802 420.475 40.6643 420.801 40.9052C421.237 41.2307 421.833 41.3934 422.588 41.3934C423.402 41.3934 424.03 41.2307 424.473 40.9052C424.915 40.5796 425.215 40.1239 425.371 39.538C425.462 39.1799 425.504 38.4279 425.498 37.2821C424.73 38.1871 423.773 38.6395 422.627 38.6395C421.201 38.6395 420.098 38.1252 419.316 37.0966C418.535 36.0679 418.144 34.8342 418.144 33.3954C418.144 32.4058 418.323 31.4943 418.682 30.661C419.04 29.8212 419.557 29.1734 420.234 28.7177C420.918 28.2619 421.719 28.0341 422.637 28.0341C423.861 28.0341 424.87 28.5288 425.664 29.5184V28.2684H427.285V37.2333C427.285 38.8479 427.119 39.9904 426.787 40.661C426.461 41.3381 425.941 41.8719 425.224 42.2626C424.515 42.6532 423.639 42.8485 422.598 42.8485C421.361 42.8485 420.361 42.5686 419.599 42.0087C418.838 41.4553 418.47 40.6187 418.496 39.4989ZM419.951 33.2684C419.951 34.6291 420.221 35.6219 420.762 36.2469C421.302 36.8719 421.979 37.1844 422.793 37.1844C423.6 37.1844 424.277 36.8752 424.824 36.2567C425.371 35.6317 425.644 34.6552 425.644 33.327C425.644 32.0575 425.361 31.1005 424.795 30.4559C424.235 29.8114 423.558 29.4891 422.764 29.4891C421.982 29.4891 421.318 29.8081 420.771 30.4462C420.224 31.0777 419.951 32.0184 419.951 33.2684Z" fill="#9C9C9C"/>
<path d="M786.998 248V230.82H799.42V232.848H789.271V238.109H798.775V240.125H789.271V245.973H799.818V248H786.998ZM801.483 248L806.03 241.531L801.823 235.555H804.459L806.37 238.473C806.729 239.027 807.018 239.492 807.237 239.867C807.58 239.352 807.897 238.895 808.186 238.496L810.284 235.555H812.803L808.502 241.414L813.131 248H810.541L807.987 244.133L807.307 243.09L804.038 248H801.483ZM819.695 246.113L819.999 247.977C819.405 248.102 818.874 248.164 818.405 248.164C817.64 248.164 817.046 248.043 816.624 247.801C816.202 247.559 815.905 247.242 815.734 246.852C815.562 246.453 815.476 245.621 815.476 244.355V237.195H813.929V235.555H815.476V232.473L817.573 231.207V235.555H819.695V237.195H817.573V244.473C817.573 245.074 817.609 245.461 817.679 245.633C817.757 245.805 817.878 245.941 818.042 246.043C818.214 246.145 818.456 246.195 818.769 246.195C819.003 246.195 819.312 246.168 819.695 246.113ZM830.488 243.992L832.668 244.262C832.324 245.535 831.688 246.523 830.758 247.227C829.828 247.93 828.641 248.281 827.195 248.281C825.375 248.281 823.93 247.723 822.859 246.605C821.797 245.48 821.266 243.906 821.266 241.883C821.266 239.789 821.805 238.164 822.883 237.008C823.961 235.852 825.359 235.273 827.078 235.273C828.742 235.273 830.102 235.84 831.156 236.973C832.211 238.105 832.738 239.699 832.738 241.754C832.738 241.879 832.734 242.066 832.727 242.316H823.445C823.523 243.684 823.91 244.73 824.605 245.457C825.301 246.184 826.168 246.547 827.207 246.547C827.98 246.547 828.641 246.344 829.188 245.938C829.734 245.531 830.168 244.883 830.488 243.992ZM823.562 240.582H830.512C830.418 239.535 830.152 238.75 829.715 238.227C829.043 237.414 828.172 237.008 827.102 237.008C826.133 237.008 825.316 237.332 824.652 237.98C823.996 238.629 823.633 239.496 823.562 240.582ZM835.505 248V235.555H837.403V237.441C837.888 236.559 838.333 235.977 838.739 235.695C839.153 235.414 839.606 235.273 840.098 235.273C840.809 235.273 841.532 235.5 842.266 235.953L841.54 237.91C841.024 237.605 840.509 237.453 839.993 237.453C839.532 237.453 839.118 237.594 838.751 237.875C838.384 238.148 838.122 238.531 837.966 239.023C837.731 239.773 837.614 240.594 837.614 241.484V248H835.505ZM843.72 248V235.555H845.619V237.324C846.533 235.957 847.853 235.273 849.58 235.273C850.33 235.273 851.017 235.41 851.642 235.684C852.275 235.949 852.748 236.301 853.06 236.738C853.373 237.176 853.591 237.695 853.716 238.297C853.795 238.688 853.834 239.371 853.834 240.348V248H851.724V240.43C851.724 239.57 851.642 238.93 851.478 238.508C851.314 238.078 851.021 237.738 850.599 237.488C850.185 237.23 849.697 237.102 849.134 237.102C848.236 237.102 847.459 237.387 846.802 237.957C846.154 238.527 845.83 239.609 845.83 241.203V248H843.72ZM865.401 246.465C864.62 247.129 863.866 247.598 863.139 247.871C862.42 248.145 861.647 248.281 860.819 248.281C859.452 248.281 858.401 247.949 857.666 247.285C856.932 246.613 856.565 245.758 856.565 244.719C856.565 244.109 856.702 243.555 856.975 243.055C857.256 242.547 857.62 242.141 858.065 241.836C858.518 241.531 859.026 241.301 859.588 241.145C860.002 241.035 860.627 240.93 861.463 240.828C863.166 240.625 864.42 240.383 865.225 240.102C865.233 239.812 865.237 239.629 865.237 239.551C865.237 238.691 865.037 238.086 864.639 237.734C864.1 237.258 863.299 237.02 862.237 237.02C861.245 237.02 860.51 237.195 860.034 237.547C859.565 237.891 859.217 238.504 858.991 239.387L856.928 239.105C857.116 238.223 857.424 237.512 857.854 236.973C858.284 236.426 858.905 236.008 859.717 235.719C860.53 235.422 861.471 235.273 862.541 235.273C863.604 235.273 864.467 235.398 865.131 235.648C865.795 235.898 866.284 236.215 866.596 236.598C866.909 236.973 867.127 237.449 867.252 238.027C867.323 238.387 867.358 239.035 867.358 239.973V242.785C867.358 244.746 867.401 245.988 867.487 246.512C867.58 247.027 867.76 247.523 868.026 248H865.823C865.604 247.562 865.463 247.051 865.401 246.465ZM865.225 241.754C864.459 242.066 863.311 242.332 861.78 242.551C860.912 242.676 860.299 242.816 859.94 242.973C859.58 243.129 859.303 243.359 859.108 243.664C858.912 243.961 858.815 244.293 858.815 244.66C858.815 245.223 859.026 245.691 859.448 246.066C859.877 246.441 860.502 246.629 861.323 246.629C862.135 246.629 862.858 246.453 863.491 246.102C864.123 245.742 864.588 245.254 864.885 244.637C865.112 244.16 865.225 243.457 865.225 242.527V241.754ZM870.792 248V230.82H872.902V248H870.792ZM883.532 248V230.82H889.45C890.786 230.82 891.805 230.902 892.509 231.066C893.493 231.293 894.333 231.703 895.028 232.297C895.934 233.062 896.61 234.043 897.055 235.238C897.509 236.426 897.735 237.785 897.735 239.316C897.735 240.621 897.583 241.777 897.278 242.785C896.973 243.793 896.583 244.629 896.106 245.293C895.63 245.949 895.106 246.469 894.536 246.852C893.973 247.227 893.29 247.512 892.485 247.707C891.688 247.902 890.77 248 889.731 248H883.532ZM885.805 245.973H889.473C890.606 245.973 891.493 245.867 892.134 245.656C892.782 245.445 893.298 245.148 893.68 244.766C894.22 244.227 894.638 243.504 894.934 242.598C895.239 241.684 895.391 240.578 895.391 239.281C895.391 237.484 895.095 236.105 894.501 235.145C893.915 234.176 893.2 233.527 892.356 233.199C891.747 232.965 890.766 232.848 889.415 232.848H885.805V245.973ZM908.927 246.465C908.146 247.129 907.392 247.598 906.666 247.871C905.947 248.145 905.173 248.281 904.345 248.281C902.978 248.281 901.927 247.949 901.193 247.285C900.459 246.613 900.091 245.758 900.091 244.719C900.091 244.109 900.228 243.555 900.502 243.055C900.783 242.547 901.146 242.141 901.591 241.836C902.045 241.531 902.552 241.301 903.115 241.145C903.529 241.035 904.154 240.93 904.99 240.828C906.693 240.625 907.947 240.383 908.752 240.102C908.759 239.812 908.763 239.629 908.763 239.551C908.763 238.691 908.564 238.086 908.166 237.734C907.627 237.258 906.826 237.02 905.763 237.02C904.771 237.02 904.037 237.195 903.56 237.547C903.091 237.891 902.744 238.504 902.517 239.387L900.455 239.105C900.642 238.223 900.951 237.512 901.38 236.973C901.81 236.426 902.431 236.008 903.244 235.719C904.056 235.422 904.998 235.273 906.068 235.273C907.13 235.273 907.994 235.398 908.658 235.648C909.322 235.898 909.81 236.215 910.123 236.598C910.435 236.973 910.654 237.449 910.779 238.027C910.849 238.387 910.884 239.035 910.884 239.973V242.785C910.884 244.746 910.927 245.988 911.013 246.512C911.107 247.027 911.287 247.523 911.552 248H909.349C909.13 247.562 908.99 247.051 908.927 246.465ZM908.752 241.754C907.986 242.066 906.838 242.332 905.306 242.551C904.439 242.676 903.826 242.816 903.466 242.973C903.107 243.129 902.83 243.359 902.634 243.664C902.439 243.961 902.341 244.293 902.341 244.66C902.341 245.223 902.552 245.691 902.974 246.066C903.404 246.441 904.029 246.629 904.849 246.629C905.662 246.629 906.384 246.453 907.017 246.102C907.65 245.742 908.115 245.254 908.412 244.637C908.638 244.16 908.752 243.457 908.752 242.527V241.754ZM918.971 246.113L919.276 247.977C918.682 248.102 918.151 248.164 917.682 248.164C916.916 248.164 916.323 248.043 915.901 247.801C915.479 247.559 915.182 247.242 915.01 246.852C914.838 246.453 914.752 245.621 914.752 244.355V237.195H913.205V235.555H914.752V232.473L916.85 231.207V235.555H918.971V237.195H916.85V244.473C916.85 245.074 916.885 245.461 916.955 245.633C917.034 245.805 917.155 245.941 917.319 246.043C917.491 246.145 917.733 246.195 918.045 246.195C918.28 246.195 918.588 246.168 918.971 246.113ZM929.366 246.465C928.585 247.129 927.831 247.598 927.105 247.871C926.386 248.145 925.612 248.281 924.784 248.281C923.417 248.281 922.366 247.949 921.632 247.285C920.898 246.613 920.53 245.758 920.53 244.719C920.53 244.109 920.667 243.555 920.941 243.055C921.222 242.547 921.585 242.141 922.03 241.836C922.484 241.531 922.991 241.301 923.554 241.145C923.968 241.035 924.593 240.93 925.429 240.828C927.132 240.625 928.386 240.383 929.191 240.102C929.198 239.812 929.202 239.629 929.202 239.551C929.202 238.691 929.003 238.086 928.605 237.734C928.066 237.258 927.265 237.02 926.202 237.02C925.21 237.02 924.476 237.195 923.999 237.547C923.53 237.891 923.183 238.504 922.956 239.387L920.894 239.105C921.081 238.223 921.39 237.512 921.82 236.973C922.249 236.426 922.87 236.008 923.683 235.719C924.495 235.422 925.437 235.273 926.507 235.273C927.57 235.273 928.433 235.398 929.097 235.648C929.761 235.898 930.249 236.215 930.562 236.598C930.874 236.973 931.093 237.449 931.218 238.027C931.288 238.387 931.323 239.035 931.323 239.973V242.785C931.323 244.746 931.366 245.988 931.452 246.512C931.546 247.027 931.726 247.523 931.991 248H929.788C929.57 247.562 929.429 247.051 929.366 246.465ZM929.191 241.754C928.425 242.066 927.277 242.332 925.745 242.551C924.878 242.676 924.265 242.816 923.905 242.973C923.546 243.129 923.269 243.359 923.073 243.664C922.878 243.961 922.78 244.293 922.78 244.66C922.78 245.223 922.991 245.691 923.413 246.066C923.843 246.441 924.468 246.629 925.288 246.629C926.101 246.629 926.823 246.453 927.456 246.102C928.089 245.742 928.554 245.254 928.851 244.637C929.077 244.16 929.191 243.457 929.191 242.527V241.754ZM936.75 248H934.793V230.82H936.902V236.949C937.793 235.832 938.93 235.273 940.312 235.273C941.078 235.273 941.801 235.43 942.48 235.742C943.168 236.047 943.73 236.48 944.168 237.043C944.613 237.598 944.961 238.27 945.211 239.059C945.461 239.848 945.586 240.691 945.586 241.59C945.586 243.723 945.059 245.371 944.004 246.535C942.949 247.699 941.684 248.281 940.207 248.281C938.738 248.281 937.586 247.668 936.75 246.441V248ZM936.727 241.684C936.727 243.176 936.93 244.254 937.336 244.918C938 246.004 938.898 246.547 940.031 246.547C940.953 246.547 941.75 246.148 942.422 245.352C943.094 244.547 943.43 243.352 943.43 241.766C943.43 240.141 943.105 238.941 942.457 238.168C941.816 237.395 941.039 237.008 940.125 237.008C939.203 237.008 938.406 237.41 937.734 238.215C937.062 239.012 936.727 240.168 936.727 241.684ZM956.485 246.465C955.704 247.129 954.95 247.598 954.223 247.871C953.505 248.145 952.731 248.281 951.903 248.281C950.536 248.281 949.485 247.949 948.751 247.285C948.016 246.613 947.649 245.758 947.649 244.719C947.649 244.109 947.786 243.555 948.059 243.055C948.341 242.547 948.704 242.141 949.149 241.836C949.602 241.531 950.11 241.301 950.673 241.145C951.087 241.035 951.712 240.93 952.548 240.828C954.251 240.625 955.505 240.383 956.309 240.102C956.317 239.812 956.321 239.629 956.321 239.551C956.321 238.691 956.122 238.086 955.723 237.734C955.184 237.258 954.384 237.02 953.321 237.02C952.329 237.02 951.595 237.195 951.118 237.547C950.649 237.891 950.302 238.504 950.075 239.387L948.013 239.105C948.2 238.223 948.509 237.512 948.938 236.973C949.368 236.426 949.989 236.008 950.802 235.719C951.614 235.422 952.555 235.273 953.626 235.273C954.688 235.273 955.552 235.398 956.216 235.648C956.88 235.898 957.368 236.215 957.68 236.598C957.993 236.973 958.212 237.449 958.337 238.027C958.407 238.387 958.442 239.035 958.442 239.973V242.785C958.442 244.746 958.485 245.988 958.571 246.512C958.665 247.027 958.845 247.523 959.11 248H956.907C956.688 247.562 956.548 247.051 956.485 246.465ZM956.309 241.754C955.544 242.066 954.395 242.332 952.864 242.551C951.997 242.676 951.384 242.816 951.024 242.973C950.665 243.129 950.388 243.359 950.192 243.664C949.997 243.961 949.899 244.293 949.899 244.66C949.899 245.223 950.11 245.691 950.532 246.066C950.962 246.441 951.587 246.629 952.407 246.629C953.22 246.629 953.942 246.453 954.575 246.102C955.208 245.742 955.673 245.254 955.97 244.637C956.196 244.16 956.309 243.457 956.309 242.527V241.754ZM961.08 244.285L963.166 243.957C963.283 244.793 963.607 245.434 964.138 245.879C964.677 246.324 965.427 246.547 966.388 246.547C967.357 246.547 968.076 246.352 968.545 245.961C969.013 245.562 969.248 245.098 969.248 244.566C969.248 244.09 969.041 243.715 968.627 243.441C968.337 243.254 967.619 243.016 966.47 242.727C964.923 242.336 963.849 242 963.248 241.719C962.654 241.43 962.201 241.035 961.888 240.535C961.584 240.027 961.431 239.469 961.431 238.859C961.431 238.305 961.556 237.793 961.806 237.324C962.064 236.848 962.412 236.453 962.849 236.141C963.177 235.898 963.623 235.695 964.185 235.531C964.755 235.359 965.365 235.273 966.013 235.273C966.99 235.273 967.845 235.414 968.58 235.695C969.322 235.977 969.869 236.359 970.22 236.844C970.572 237.32 970.814 237.961 970.947 238.766L968.884 239.047C968.791 238.406 968.517 237.906 968.064 237.547C967.619 237.188 966.986 237.008 966.166 237.008C965.197 237.008 964.505 237.168 964.091 237.488C963.677 237.809 963.47 238.184 963.47 238.613C963.47 238.887 963.556 239.133 963.728 239.352C963.9 239.578 964.17 239.766 964.537 239.914C964.748 239.992 965.369 240.172 966.4 240.453C967.892 240.852 968.931 241.18 969.517 241.438C970.111 241.688 970.576 242.055 970.912 242.539C971.248 243.023 971.416 243.625 971.416 244.344C971.416 245.047 971.209 245.711 970.795 246.336C970.388 246.953 969.798 247.434 969.025 247.777C968.252 248.113 967.377 248.281 966.4 248.281C964.783 248.281 963.548 247.945 962.697 247.273C961.853 246.602 961.314 245.605 961.08 244.285ZM982.643 243.992L984.823 244.262C984.479 245.535 983.842 246.523 982.913 247.227C981.983 247.93 980.795 248.281 979.35 248.281C977.53 248.281 976.084 247.723 975.014 246.605C973.952 245.48 973.42 243.906 973.42 241.883C973.42 239.789 973.959 238.164 975.038 237.008C976.116 235.852 977.514 235.273 979.233 235.273C980.897 235.273 982.256 235.84 983.311 236.973C984.366 238.105 984.893 239.699 984.893 241.754C984.893 241.879 984.889 242.066 984.881 242.316H975.6C975.678 243.684 976.065 244.73 976.76 245.457C977.455 246.184 978.323 246.547 979.362 246.547C980.135 246.547 980.795 246.344 981.342 245.938C981.889 245.531 982.323 244.883 982.643 243.992ZM975.717 240.582H982.666C982.573 239.535 982.307 238.75 981.87 238.227C981.198 237.414 980.327 237.008 979.256 237.008C978.288 237.008 977.471 237.332 976.807 237.98C976.151 238.629 975.788 239.496 975.717 240.582Z" fill="#2D2D2D"/>
<path d="M452.972 247L459.57 229.82H462.019L469.05 247H466.46L464.456 241.797H457.273L455.386 247H452.972ZM457.929 239.945H463.753L461.96 235.188C461.413 233.742 461.007 232.555 460.741 231.625C460.523 232.727 460.214 233.82 459.816 234.906L457.929 239.945ZM470.797 251.77V234.555H472.719V236.172C473.172 235.539 473.684 235.066 474.254 234.754C474.824 234.434 475.516 234.273 476.328 234.273C477.391 234.273 478.328 234.547 479.141 235.094C479.953 235.641 480.566 236.414 480.981 237.414C481.395 238.406 481.602 239.496 481.602 240.684C481.602 241.957 481.371 243.105 480.91 244.129C480.457 245.145 479.793 245.926 478.918 246.473C478.051 247.012 477.137 247.281 476.176 247.281C475.473 247.281 474.84 247.133 474.277 246.836C473.723 246.539 473.266 246.164 472.906 245.711V251.77H470.797ZM472.707 240.848C472.707 242.449 473.031 243.633 473.68 244.398C474.328 245.164 475.113 245.547 476.035 245.547C476.973 245.547 477.773 245.152 478.438 244.363C479.109 243.566 479.445 242.336 479.445 240.672C479.445 239.086 479.117 237.898 478.461 237.109C477.813 236.32 477.035 235.926 476.129 235.926C475.231 235.926 474.434 236.348 473.738 237.191C473.051 238.027 472.707 239.246 472.707 240.848ZM484.356 251.77V234.555H486.278V236.172C486.731 235.539 487.243 235.066 487.813 234.754C488.384 234.434 489.075 234.273 489.888 234.273C490.95 234.273 491.888 234.547 492.7 235.094C493.513 235.641 494.126 236.414 494.54 237.414C494.954 238.406 495.161 239.496 495.161 240.684C495.161 241.957 494.931 243.105 494.47 244.129C494.016 245.145 493.352 245.926 492.477 246.473C491.61 247.012 490.696 247.281 489.735 247.281C489.032 247.281 488.399 247.133 487.837 246.836C487.282 246.539 486.825 246.164 486.466 245.711V251.77H484.356ZM486.266 240.848C486.266 242.449 486.591 243.633 487.239 244.398C487.888 245.164 488.673 245.547 489.595 245.547C490.532 245.547 491.333 245.152 491.997 244.363C492.669 243.566 493.005 242.336 493.005 240.672C493.005 239.086 492.677 237.898 492.02 237.109C491.372 236.32 490.595 235.926 489.688 235.926C488.79 235.926 487.993 236.348 487.298 237.191C486.61 238.027 486.266 239.246 486.266 240.848ZM497.869 247V229.82H499.978V247H497.869ZM503.471 232.246V229.82H505.581V232.246H503.471ZM503.471 247V234.555H505.581V247H503.471ZM517.124 242.441L519.198 242.711C518.972 244.141 518.39 245.262 517.452 246.074C516.523 246.879 515.378 247.281 514.019 247.281C512.316 247.281 510.945 246.727 509.906 245.617C508.874 244.5 508.359 242.902 508.359 240.824C508.359 239.48 508.581 238.305 509.027 237.297C509.472 236.289 510.148 235.535 511.054 235.035C511.968 234.527 512.96 234.273 514.031 234.273C515.382 234.273 516.488 234.617 517.347 235.305C518.206 235.984 518.757 236.953 518.999 238.211L516.948 238.527C516.753 237.691 516.406 237.062 515.906 236.641C515.413 236.219 514.816 236.008 514.113 236.008C513.05 236.008 512.187 236.391 511.523 237.156C510.859 237.914 510.527 239.117 510.527 240.766C510.527 242.438 510.847 243.652 511.488 244.41C512.128 245.168 512.964 245.547 513.995 245.547C514.823 245.547 515.515 245.293 516.07 244.785C516.624 244.277 516.976 243.496 517.124 242.441ZM529.324 245.465C528.543 246.129 527.789 246.598 527.063 246.871C526.344 247.145 525.57 247.281 524.742 247.281C523.375 247.281 522.324 246.949 521.59 246.285C520.856 245.613 520.488 244.758 520.488 243.719C520.488 243.109 520.625 242.555 520.898 242.055C521.18 241.547 521.543 241.141 521.988 240.836C522.441 240.531 522.949 240.301 523.512 240.145C523.926 240.035 524.551 239.93 525.387 239.828C527.09 239.625 528.344 239.383 529.148 239.102C529.156 238.812 529.16 238.629 529.16 238.551C529.16 237.691 528.961 237.086 528.563 236.734C528.023 236.258 527.223 236.02 526.16 236.02C525.168 236.02 524.434 236.195 523.957 236.547C523.488 236.891 523.141 237.504 522.914 238.387L520.852 238.105C521.039 237.223 521.348 236.512 521.777 235.973C522.207 235.426 522.828 235.008 523.641 234.719C524.453 234.422 525.395 234.273 526.465 234.273C527.527 234.273 528.391 234.398 529.055 234.648C529.719 234.898 530.207 235.215 530.52 235.598C530.832 235.973 531.051 236.449 531.176 237.027C531.246 237.387 531.281 238.035 531.281 238.973V241.785C531.281 243.746 531.324 244.988 531.41 245.512C531.504 246.027 531.684 246.523 531.949 247H529.746C529.527 246.562 529.387 246.051 529.324 245.465ZM529.148 240.754C528.383 241.066 527.234 241.332 525.703 241.551C524.836 241.676 524.223 241.816 523.863 241.973C523.504 242.129 523.227 242.359 523.031 242.664C522.836 242.961 522.738 243.293 522.738 243.66C522.738 244.223 522.949 244.691 523.371 245.066C523.801 245.441 524.426 245.629 525.246 245.629C526.059 245.629 526.781 245.453 527.414 245.102C528.047 244.742 528.512 244.254 528.809 243.637C529.035 243.16 529.148 242.457 529.148 241.527V240.754ZM539.368 245.113L539.673 246.977C539.079 247.102 538.548 247.164 538.079 247.164C537.313 247.164 536.72 247.043 536.298 246.801C535.876 246.559 535.579 246.242 535.407 245.852C535.235 245.453 535.149 244.621 535.149 243.355V236.195H533.602V234.555H535.149V231.473L537.247 230.207V234.555H539.368V236.195H537.247V243.473C537.247 244.074 537.282 244.461 537.352 244.633C537.431 244.805 537.552 244.941 537.716 245.043C537.888 245.145 538.13 245.195 538.442 245.195C538.677 245.195 538.985 245.168 539.368 245.113ZM541.654 232.246V229.82H543.763V232.246H541.654ZM541.654 247V234.555H543.763V247H541.654ZM546.401 240.777C546.401 238.473 547.041 236.766 548.323 235.656C549.393 234.734 550.698 234.273 552.237 234.273C553.948 234.273 555.346 234.836 556.432 235.961C557.518 237.078 558.061 238.625 558.061 240.602C558.061 242.203 557.819 243.465 557.334 244.387C556.858 245.301 556.159 246.012 555.237 246.52C554.323 247.027 553.323 247.281 552.237 247.281C550.495 247.281 549.084 246.723 548.006 245.605C546.936 244.488 546.401 242.879 546.401 240.777ZM548.569 240.777C548.569 242.371 548.916 243.566 549.612 244.363C550.307 245.152 551.182 245.547 552.237 245.547C553.284 245.547 554.155 245.148 554.85 244.352C555.545 243.555 555.893 242.34 555.893 240.707C555.893 239.168 555.541 238.004 554.838 237.215C554.143 236.418 553.276 236.02 552.237 236.02C551.182 236.02 550.307 236.414 549.612 237.203C548.916 237.992 548.569 239.184 548.569 240.777ZM560.745 247V234.555H562.644V236.324C563.558 234.957 564.878 234.273 566.605 234.273C567.355 234.273 568.042 234.41 568.667 234.684C569.3 234.949 569.773 235.301 570.085 235.738C570.398 236.176 570.616 236.695 570.741 237.297C570.82 237.688 570.859 238.371 570.859 239.348V247H568.749V239.43C568.749 238.57 568.667 237.93 568.503 237.508C568.339 237.078 568.046 236.738 567.624 236.488C567.21 236.23 566.722 236.102 566.159 236.102C565.261 236.102 564.484 236.387 563.827 236.957C563.179 237.527 562.855 238.609 562.855 240.203V247H560.745Z" fill="#2D2D2D"/>
<path d="M212.629 278.759L218.127 264.443H220.168L226.028 278.759H223.869L222.199 274.423H216.213L214.641 278.759H212.629ZM216.76 272.88H221.614L220.119 268.915C219.664 267.711 219.325 266.721 219.104 265.946C218.921 266.864 218.664 267.776 218.332 268.681L216.76 272.88ZM237.956 273.739L239.851 274.218C239.453 275.774 238.737 276.962 237.702 277.782C236.674 278.596 235.414 279.003 233.923 279.003C232.38 279.003 231.123 278.691 230.153 278.066C229.19 277.434 228.454 276.523 227.946 275.331C227.445 274.14 227.194 272.86 227.194 271.493C227.194 270.002 227.478 268.704 228.044 267.597C228.617 266.484 229.427 265.64 230.476 265.068C231.53 264.488 232.689 264.198 233.952 264.198C235.384 264.198 236.589 264.563 237.565 265.292C238.542 266.021 239.222 267.047 239.606 268.368L237.741 268.808C237.409 267.766 236.927 267.008 236.296 266.532C235.664 266.057 234.87 265.819 233.913 265.819C232.813 265.819 231.892 266.083 231.149 266.61C230.414 267.138 229.896 267.847 229.597 268.739C229.297 269.625 229.147 270.54 229.147 271.484C229.147 272.701 229.323 273.765 229.675 274.677C230.033 275.582 230.586 276.259 231.335 276.708C232.084 277.157 232.894 277.382 233.767 277.382C234.828 277.382 235.726 277.076 236.462 276.464C237.198 275.852 237.696 274.944 237.956 273.739ZM242.717 278.759V264.443H244.611V278.759H242.717ZM248.161 278.759V264.443H253.092C254.206 264.443 255.055 264.511 255.641 264.648C256.462 264.836 257.161 265.178 257.741 265.673C258.496 266.311 259.059 267.128 259.43 268.124C259.808 269.114 259.997 270.247 259.997 271.523C259.997 272.61 259.87 273.573 259.616 274.413C259.362 275.253 259.036 275.95 258.639 276.503C258.242 277.05 257.806 277.483 257.331 277.802C256.862 278.114 256.292 278.352 255.622 278.515C254.958 278.678 254.193 278.759 253.327 278.759H248.161ZM250.055 277.069H253.112C254.056 277.069 254.795 276.982 255.329 276.806C255.869 276.63 256.299 276.383 256.618 276.064C257.067 275.614 257.415 275.012 257.663 274.257C257.917 273.495 258.044 272.574 258.044 271.493C258.044 269.996 257.796 268.847 257.301 268.046C256.813 267.239 256.217 266.698 255.514 266.425C255.006 266.23 254.189 266.132 253.063 266.132H250.055V277.069ZM271.852 278.759V266.132H267.135V264.443H278.483V266.132H273.746V278.759H271.852ZM279.649 278.759V268.388H281.231V269.96C281.635 269.224 282.006 268.739 282.345 268.505C282.69 268.271 283.067 268.153 283.478 268.153C284.07 268.153 284.672 268.342 285.284 268.72L284.679 270.351C284.249 270.097 283.819 269.97 283.39 269.97C283.006 269.97 282.661 270.087 282.355 270.321C282.049 270.549 281.83 270.868 281.7 271.278C281.505 271.903 281.407 272.587 281.407 273.329V278.759H279.649ZM293.297 277.48C292.646 278.033 292.017 278.424 291.412 278.651C290.813 278.879 290.168 278.993 289.478 278.993C288.339 278.993 287.463 278.717 286.851 278.163C286.239 277.603 285.933 276.89 285.933 276.025C285.933 275.517 286.047 275.054 286.275 274.638C286.51 274.215 286.812 273.876 287.183 273.622C287.561 273.368 287.984 273.176 288.453 273.046C288.798 272.955 289.319 272.867 290.015 272.782C291.435 272.613 292.48 272.411 293.15 272.177C293.157 271.936 293.16 271.783 293.16 271.718C293.16 271.002 292.994 270.497 292.662 270.204C292.213 269.807 291.545 269.609 290.66 269.609C289.833 269.609 289.221 269.755 288.824 270.048C288.433 270.334 288.144 270.845 287.955 271.581L286.236 271.347C286.392 270.611 286.65 270.019 287.008 269.569C287.366 269.114 287.883 268.765 288.56 268.525C289.237 268.277 290.022 268.153 290.914 268.153C291.799 268.153 292.519 268.258 293.072 268.466C293.625 268.674 294.032 268.938 294.293 269.257C294.553 269.569 294.736 269.967 294.84 270.448C294.898 270.748 294.928 271.288 294.928 272.069V274.413C294.928 276.047 294.963 277.082 295.035 277.519C295.113 277.948 295.263 278.362 295.484 278.759H293.648C293.466 278.394 293.349 277.968 293.297 277.48ZM293.15 273.554C292.512 273.814 291.555 274.036 290.279 274.218C289.556 274.322 289.045 274.439 288.746 274.569C288.446 274.7 288.215 274.892 288.053 275.146C287.89 275.393 287.808 275.67 287.808 275.976C287.808 276.444 287.984 276.835 288.336 277.148C288.694 277.46 289.215 277.616 289.898 277.616C290.575 277.616 291.178 277.47 291.705 277.177C292.232 276.877 292.62 276.47 292.867 275.956C293.056 275.559 293.15 274.973 293.15 274.198V273.554ZM297.862 278.759V268.388H299.444V269.862C300.206 268.723 301.306 268.153 302.745 268.153C303.37 268.153 303.943 268.267 304.464 268.495C304.991 268.717 305.385 269.01 305.645 269.374C305.906 269.739 306.088 270.172 306.192 270.673C306.257 270.998 306.29 271.568 306.29 272.382V278.759H304.532V272.45C304.532 271.734 304.464 271.2 304.327 270.849C304.19 270.491 303.946 270.207 303.594 269.999C303.249 269.784 302.842 269.677 302.374 269.677C301.625 269.677 300.977 269.915 300.43 270.39C299.89 270.865 299.62 271.767 299.62 273.095V278.759H297.862ZM308.492 275.663L310.23 275.39C310.328 276.086 310.598 276.62 311.04 276.991C311.49 277.362 312.115 277.548 312.915 277.548C313.723 277.548 314.322 277.385 314.712 277.06C315.103 276.728 315.298 276.34 315.298 275.898C315.298 275.5 315.126 275.188 314.781 274.96C314.54 274.804 313.941 274.605 312.984 274.364C311.695 274.039 310.8 273.759 310.298 273.525C309.803 273.284 309.426 272.955 309.165 272.538C308.912 272.115 308.785 271.65 308.785 271.142C308.785 270.679 308.889 270.253 309.097 269.862C309.312 269.465 309.602 269.137 309.966 268.876C310.24 268.674 310.611 268.505 311.08 268.368C311.555 268.225 312.063 268.153 312.603 268.153C313.417 268.153 314.13 268.271 314.742 268.505C315.36 268.739 315.816 269.058 316.109 269.462C316.402 269.859 316.604 270.393 316.714 271.064L314.996 271.298C314.917 270.764 314.69 270.347 314.312 270.048C313.941 269.748 313.414 269.599 312.73 269.599C311.923 269.599 311.346 269.732 311.001 269.999C310.656 270.266 310.484 270.579 310.484 270.937C310.484 271.165 310.555 271.37 310.699 271.552C310.842 271.741 311.067 271.897 311.372 272.021C311.548 272.086 312.066 272.235 312.925 272.47C314.169 272.802 315.035 273.075 315.523 273.29C316.018 273.498 316.405 273.804 316.685 274.208C316.965 274.612 317.105 275.113 317.105 275.712C317.105 276.298 316.932 276.851 316.587 277.372C316.249 277.887 315.757 278.287 315.113 278.573C314.468 278.853 313.739 278.993 312.925 278.993C311.578 278.993 310.549 278.713 309.839 278.153C309.136 277.594 308.687 276.763 308.492 275.663ZM326.162 277.48C325.511 278.033 324.883 278.424 324.278 278.651C323.679 278.879 323.034 278.993 322.344 278.993C321.205 278.993 320.329 278.717 319.717 278.163C319.105 277.603 318.799 276.89 318.799 276.025C318.799 275.517 318.913 275.054 319.141 274.638C319.375 274.215 319.678 273.876 320.049 273.622C320.427 273.368 320.85 273.176 321.319 273.046C321.664 272.955 322.184 272.867 322.881 272.782C324.3 272.613 325.345 272.411 326.016 272.177C326.022 271.936 326.026 271.783 326.026 271.718C326.026 271.002 325.86 270.497 325.528 270.204C325.078 269.807 324.411 269.609 323.526 269.609C322.699 269.609 322.087 269.755 321.69 270.048C321.299 270.334 321.009 270.845 320.821 271.581L319.102 271.347C319.258 270.611 319.515 270.019 319.873 269.569C320.231 269.114 320.749 268.765 321.426 268.525C322.103 268.277 322.888 268.153 323.78 268.153C324.665 268.153 325.384 268.258 325.938 268.466C326.491 268.674 326.898 268.938 327.158 269.257C327.419 269.569 327.601 269.967 327.705 270.448C327.764 270.748 327.793 271.288 327.793 272.069V274.413C327.793 276.047 327.829 277.082 327.901 277.519C327.979 277.948 328.128 278.362 328.35 278.759H326.514C326.332 278.394 326.214 277.968 326.162 277.48ZM326.016 273.554C325.378 273.814 324.421 274.036 323.145 274.218C322.422 274.322 321.911 274.439 321.612 274.569C321.312 274.7 321.081 274.892 320.918 275.146C320.755 275.393 320.674 275.67 320.674 275.976C320.674 276.444 320.85 276.835 321.201 277.148C321.559 277.46 322.08 277.616 322.764 277.616C323.441 277.616 324.043 277.47 324.571 277.177C325.098 276.877 325.485 276.47 325.733 275.956C325.921 275.559 326.016 274.973 326.016 274.198V273.554ZM337.495 274.96L339.224 275.185C339.035 276.376 338.55 277.31 337.769 277.987C336.994 278.658 336.04 278.993 334.907 278.993C333.488 278.993 332.345 278.531 331.48 277.607C330.62 276.676 330.19 275.344 330.19 273.612C330.19 272.493 330.376 271.513 330.747 270.673C331.118 269.833 331.681 269.205 332.437 268.788C333.198 268.365 334.025 268.153 334.917 268.153C336.043 268.153 336.965 268.44 337.681 269.013C338.397 269.579 338.856 270.387 339.058 271.435L337.349 271.698C337.186 271.002 336.896 270.478 336.48 270.126C336.069 269.775 335.571 269.599 334.985 269.599C334.1 269.599 333.381 269.918 332.827 270.556C332.274 271.187 331.997 272.19 331.997 273.564C331.997 274.957 332.264 275.969 332.798 276.601C333.332 277.232 334.028 277.548 334.888 277.548C335.578 277.548 336.154 277.336 336.616 276.913C337.078 276.49 337.371 275.839 337.495 274.96ZM344.765 277.187L345.019 278.739C344.525 278.844 344.082 278.896 343.691 278.896C343.053 278.896 342.558 278.795 342.207 278.593C341.855 278.391 341.608 278.127 341.465 277.802C341.321 277.47 341.25 276.776 341.25 275.722V269.755H339.961V268.388H341.25V265.819L342.998 264.765V268.388H344.765V269.755H342.998V275.819C342.998 276.321 343.027 276.643 343.086 276.786C343.151 276.929 343.252 277.043 343.389 277.128C343.532 277.213 343.734 277.255 343.994 277.255C344.189 277.255 344.446 277.232 344.765 277.187ZM346.704 266.464V264.443H348.462V266.464H346.704ZM346.704 278.759V268.388H348.462V278.759H346.704ZM350.693 273.573C350.693 271.653 351.227 270.23 352.294 269.306C353.186 268.538 354.274 268.153 355.556 268.153C356.982 268.153 358.147 268.622 359.052 269.56C359.957 270.491 360.41 271.78 360.41 273.427C360.41 274.762 360.208 275.813 359.804 276.581C359.407 277.343 358.824 277.935 358.056 278.359C357.294 278.782 356.461 278.993 355.556 278.993C354.104 278.993 352.929 278.528 352.031 277.597C351.139 276.666 350.693 275.325 350.693 273.573ZM352.499 273.573C352.499 274.901 352.789 275.898 353.369 276.562C353.948 277.219 354.677 277.548 355.556 277.548C356.428 277.548 357.154 277.216 357.734 276.552C358.313 275.888 358.603 274.875 358.603 273.515C358.603 272.232 358.31 271.262 357.724 270.605C357.145 269.941 356.422 269.609 355.556 269.609C354.677 269.609 353.948 269.937 353.369 270.595C352.789 271.252 352.499 272.245 352.499 273.573ZM362.68 278.759V268.388H364.262V269.862C365.024 268.723 366.124 268.153 367.563 268.153C368.188 268.153 368.761 268.267 369.281 268.495C369.809 268.717 370.203 269.01 370.463 269.374C370.724 269.739 370.906 270.172 371.01 270.673C371.075 270.998 371.108 271.568 371.108 272.382V278.759H369.35V272.45C369.35 271.734 369.281 271.2 369.145 270.849C369.008 270.491 368.764 270.207 368.412 269.999C368.067 269.784 367.66 269.677 367.192 269.677C366.443 269.677 365.795 269.915 365.248 270.39C364.708 270.865 364.438 271.767 364.438 273.095V278.759H362.68ZM373.31 275.663L375.048 275.39C375.146 276.086 375.416 276.62 375.858 276.991C376.308 277.362 376.933 277.548 377.733 277.548C378.541 277.548 379.14 277.385 379.53 277.06C379.921 276.728 380.116 276.34 380.116 275.898C380.116 275.5 379.944 275.188 379.599 274.96C379.358 274.804 378.759 274.605 377.802 274.364C376.513 274.039 375.618 273.759 375.116 273.525C374.621 273.284 374.244 272.955 373.983 272.538C373.73 272.115 373.603 271.65 373.603 271.142C373.603 270.679 373.707 270.253 373.915 269.862C374.13 269.465 374.42 269.137 374.784 268.876C375.058 268.674 375.429 268.505 375.897 268.368C376.373 268.225 376.881 268.153 377.421 268.153C378.235 268.153 378.948 268.271 379.56 268.505C380.178 268.739 380.634 269.058 380.927 269.462C381.22 269.859 381.422 270.393 381.532 271.064L379.814 271.298C379.735 270.764 379.508 270.347 379.13 270.048C378.759 269.748 378.231 269.599 377.548 269.599C376.741 269.599 376.164 269.732 375.819 269.999C375.474 270.266 375.302 270.579 375.302 270.937C375.302 271.165 375.373 271.37 375.517 271.552C375.66 271.741 375.884 271.897 376.19 272.021C376.366 272.086 376.884 272.235 377.743 272.47C378.987 272.802 379.853 273.075 380.341 273.29C380.836 273.498 381.223 273.804 381.503 274.208C381.783 274.612 381.923 275.113 381.923 275.712C381.923 276.298 381.75 276.851 381.405 277.372C381.067 277.887 380.575 278.287 379.931 278.573C379.286 278.853 378.557 278.993 377.743 278.993C376.396 278.993 375.367 278.713 374.657 278.153C373.954 277.594 373.505 276.763 373.31 275.663Z" fill="#9C9C9C"/>
</svg>
