<svg width="48" height="49" viewBox="0 0 48 49" fill="none" xmlns="http://www.w3.org/2000/svg">
<path d="M6.02291 28.4428C3.5719 25.9918 3.5719 22.0179 6.02291 19.5669L19.562 6.02775C22.013 3.57674 25.9869 3.57674 28.4379 6.02775L41.977 19.5669C44.4281 22.0179 44.4281 25.9918 41.977 28.4428L28.4379 41.9819C25.9869 44.4329 22.013 44.4329 19.562 41.9819L6.02291 28.4428Z" fill="white"/>
<path fill-rule="evenodd" clip-rule="evenodd" d="M5.23044 29.2353C2.34175 26.3466 2.34175 21.6631 5.23044 18.7744L18.7696 5.23526C21.6583 2.34657 26.3417 2.34657 29.2304 5.23526L42.7696 18.7744C45.6583 21.6631 45.6583 26.3466 42.7696 29.2353L29.2304 42.7744C26.3417 45.6631 21.6583 45.6631 18.7696 42.7744L5.23044 29.2353ZM6.81542 20.3594C4.80209 22.3727 4.80209 25.6369 6.81542 27.6503L20.3545 41.1894C22.3679 43.2027 25.6321 43.2027 27.6455 41.1894L41.1846 27.6503C43.1979 25.6369 43.1979 22.3727 41.1846 20.3594L27.6455 6.82024C25.6321 4.80691 22.3679 4.80691 20.3545 6.82024L6.81542 20.3594Z" fill="black"/>
<path fill-rule="evenodd" clip-rule="evenodd" d="M24 10.7594C24.619 10.7594 25.1208 11.2611 25.1208 11.8801V26.8399C25.1208 27.4589 24.619 27.9607 24 27.9607C23.381 27.9607 22.8793 27.4589 22.8793 26.8399V11.8801C22.8793 11.2611 23.381 10.7594 24 10.7594Z" fill="#ED1C24"/>
<path d="M25.2274 33.3974C25.2274 34.0458 24.7017 34.5714 24.0533 34.5714C23.4049 34.5714 22.8793 34.0458 22.8793 33.3974C22.8793 32.7489 23.4049 32.2233 24.0533 32.2233C24.7017 32.2233 25.2274 32.7489 25.2274 33.3974Z" fill="#ED1C24"/>
</svg>
