<svg width="614" height="311" viewBox="0 0 614 311" fill="none" xmlns="http://www.w3.org/2000/svg">
<path d="M450 245.227V231H460.287V232.679H451.883V237.036H459.753V238.706H451.883V243.548H460.617V245.227H450Z" fill="#2D2D2D"/>
<path d="M461.996 245.227L465.761 239.87L462.277 234.921H464.461L466.043 237.337C466.34 237.797 466.58 238.181 466.761 238.492C467.045 238.065 467.307 237.687 467.547 237.357L469.284 234.921H471.37L467.809 239.773L471.642 245.227H469.497L467.382 242.025L466.819 241.161L464.111 245.227H461.996Z" fill="#2D2D2D"/>
<path d="M477.077 243.665L477.33 245.208C476.838 245.311 476.398 245.363 476.01 245.363C475.376 245.363 474.884 245.263 474.535 245.062C474.185 244.862 473.94 244.6 473.797 244.276C473.655 243.946 473.584 243.257 473.584 242.209V236.279H472.303V234.921H473.584V232.368L475.321 231.32V234.921H477.077V236.279H475.321V242.306C475.321 242.804 475.35 243.124 475.408 243.267C475.473 243.409 475.573 243.522 475.709 243.606C475.851 243.691 476.052 243.733 476.311 243.733C476.505 243.733 476.76 243.71 477.077 243.665Z" fill="#2D2D2D"/>
<path d="M486.016 241.908L487.821 242.131C487.536 243.186 487.009 244.004 486.239 244.587C485.469 245.169 484.486 245.46 483.289 245.46C481.782 245.46 480.585 244.997 479.698 244.072C478.818 243.141 478.378 241.837 478.378 240.161C478.378 238.427 478.825 237.082 479.718 236.124C480.611 235.167 481.769 234.688 483.192 234.688C484.57 234.688 485.696 235.157 486.569 236.095C487.443 237.033 487.879 238.353 487.879 240.054C487.879 240.158 487.876 240.313 487.87 240.52H480.184C480.248 241.653 480.569 242.519 481.144 243.121C481.72 243.723 482.438 244.024 483.299 244.024C483.939 244.024 484.486 243.855 484.939 243.519C485.392 243.183 485.751 242.646 486.016 241.908ZM480.281 239.084H486.035C485.958 238.217 485.738 237.567 485.376 237.133C484.819 236.461 484.098 236.124 483.211 236.124C482.409 236.124 481.733 236.393 481.183 236.93C480.64 237.467 480.339 238.185 480.281 239.084Z" fill="#2D2D2D"/>
<path d="M490.17 245.227V234.921H491.742V236.483C492.144 235.752 492.512 235.27 492.849 235.037C493.192 234.804 493.567 234.688 493.975 234.688C494.563 234.688 495.162 234.875 495.77 235.251L495.168 236.871C494.741 236.619 494.314 236.493 493.887 236.493C493.506 236.493 493.163 236.609 492.859 236.842C492.554 237.069 492.338 237.386 492.208 237.793C492.014 238.414 491.917 239.094 491.917 239.831V245.227H490.17Z" fill="#2D2D2D"/>
<path d="M496.974 245.227V234.921H498.546V236.386C499.303 235.254 500.396 234.688 501.826 234.688C502.447 234.688 503.017 234.801 503.534 235.027C504.058 235.247 504.45 235.539 504.709 235.901C504.967 236.263 505.149 236.693 505.252 237.192C505.317 237.515 505.349 238.081 505.349 238.89V245.227H503.602V238.958C503.602 238.246 503.534 237.716 503.398 237.366C503.263 237.01 503.02 236.729 502.671 236.522C502.328 236.308 501.923 236.202 501.458 236.202C500.714 236.202 500.07 236.438 499.526 236.91C498.989 237.382 498.721 238.279 498.721 239.598V245.227H496.974Z" fill="#2D2D2D"/>
<path d="M514.928 243.956C514.281 244.506 513.657 244.894 513.055 245.12C512.46 245.347 511.82 245.46 511.134 245.46C510.002 245.46 509.131 245.185 508.523 244.635C507.915 244.079 507.611 243.37 507.611 242.51C507.611 242.005 507.724 241.546 507.951 241.132C508.184 240.711 508.484 240.375 508.853 240.122C509.228 239.87 509.649 239.679 510.115 239.55C510.458 239.459 510.975 239.372 511.668 239.288C513.078 239.12 514.116 238.919 514.783 238.686C514.789 238.447 514.792 238.295 514.792 238.23C514.792 237.518 514.627 237.017 514.298 236.726C513.851 236.331 513.188 236.134 512.308 236.134C511.486 236.134 510.878 236.279 510.484 236.57C510.095 236.855 509.807 237.363 509.62 238.094L507.912 237.861C508.067 237.13 508.323 236.541 508.678 236.095C509.034 235.642 509.549 235.296 510.222 235.057C510.894 234.811 511.674 234.688 512.56 234.688C513.44 234.688 514.155 234.791 514.705 234.998C515.255 235.205 515.659 235.467 515.918 235.784C516.177 236.095 516.358 236.49 516.462 236.968C516.52 237.266 516.549 237.803 516.549 238.579V240.908C516.549 242.532 516.585 243.561 516.656 243.995C516.733 244.422 516.882 244.832 517.102 245.227H515.278C515.097 244.865 514.98 244.441 514.928 243.956ZM514.783 240.054C514.149 240.313 513.198 240.533 511.93 240.714C511.211 240.818 510.704 240.934 510.406 241.064C510.108 241.193 509.879 241.384 509.717 241.636C509.555 241.882 509.474 242.157 509.474 242.461C509.474 242.927 509.649 243.315 509.998 243.626C510.354 243.936 510.872 244.092 511.551 244.092C512.224 244.092 512.822 243.946 513.346 243.655C513.871 243.357 514.255 242.953 514.501 242.442C514.689 242.047 514.783 241.465 514.783 240.695V240.054Z" fill="#2D2D2D"/>
<path d="M519.393 245.227V231H521.14V245.227H519.393Z" fill="#2D2D2D"/>
<path d="M529.943 245.227V231H534.844C535.951 231 536.795 231.068 537.377 231.204C538.192 231.391 538.888 231.731 539.464 232.223C540.214 232.857 540.774 233.669 541.143 234.659C541.518 235.642 541.706 236.768 541.706 238.036C541.706 239.116 541.579 240.074 541.327 240.908C541.075 241.743 540.751 242.435 540.357 242.985C539.962 243.529 539.528 243.959 539.056 244.276C538.59 244.587 538.024 244.823 537.358 244.984C536.698 245.146 535.938 245.227 535.077 245.227H529.943ZM531.826 243.548H534.864C535.802 243.548 536.536 243.461 537.067 243.286C537.604 243.111 538.031 242.866 538.348 242.549C538.794 242.102 539.14 241.504 539.386 240.753C539.638 239.996 539.765 239.081 539.765 238.007C539.765 236.519 539.519 235.377 539.027 234.581C538.542 233.779 537.95 233.242 537.251 232.97C536.746 232.776 535.934 232.679 534.815 232.679H531.826V243.548Z" fill="#2D2D2D"/>
<path d="M550.974 243.956C550.327 244.506 549.703 244.894 549.101 245.12C548.506 245.347 547.865 245.46 547.18 245.46C546.047 245.46 545.177 245.185 544.569 244.635C543.961 244.079 543.657 243.37 543.657 242.51C543.657 242.005 543.77 241.546 543.996 241.132C544.229 240.711 544.53 240.375 544.899 240.122C545.274 239.87 545.695 239.679 546.161 239.55C546.504 239.459 547.021 239.372 547.713 239.288C549.124 239.12 550.162 238.919 550.829 238.686C550.835 238.447 550.838 238.295 550.838 238.23C550.838 237.518 550.673 237.017 550.343 236.726C549.897 236.331 549.234 236.134 548.354 236.134C547.532 236.134 546.924 236.279 546.529 236.57C546.141 236.855 545.853 237.363 545.666 238.094L543.958 237.861C544.113 237.13 544.368 236.541 544.724 236.095C545.08 235.642 545.595 235.296 546.267 235.057C546.94 234.811 547.72 234.688 548.606 234.688C549.486 234.688 550.201 234.791 550.751 234.998C551.301 235.205 551.705 235.467 551.964 235.784C552.223 236.095 552.404 236.49 552.507 236.968C552.566 237.266 552.595 237.803 552.595 238.579V240.908C552.595 242.532 552.63 243.561 552.702 243.995C552.779 244.422 552.928 244.832 553.148 245.227H551.324C551.142 244.865 551.026 244.441 550.974 243.956ZM550.829 240.054C550.195 240.313 549.243 240.533 547.975 240.714C547.257 240.818 546.749 240.934 546.452 241.064C546.154 241.193 545.924 241.384 545.763 241.636C545.601 241.882 545.52 242.157 545.52 242.461C545.52 242.927 545.695 243.315 546.044 243.626C546.4 243.936 546.918 244.092 547.597 244.092C548.27 244.092 548.868 243.946 549.392 243.655C549.916 243.357 550.301 242.953 550.547 242.442C550.735 242.047 550.829 241.465 550.829 240.695V240.054Z" fill="#2D2D2D"/>
<path d="M559.292 243.665L559.544 245.208C559.052 245.311 558.612 245.363 558.224 245.363C557.59 245.363 557.098 245.263 556.749 245.062C556.4 244.862 556.154 244.6 556.012 244.276C555.869 243.946 555.798 243.257 555.798 242.209V236.279H554.517V234.921H555.798V232.368L557.535 231.32V234.921H559.292V236.279H557.535V242.306C557.535 242.804 557.564 243.124 557.623 243.267C557.687 243.409 557.788 243.522 557.923 243.606C558.066 243.691 558.266 243.733 558.525 243.733C558.719 243.733 558.975 243.71 559.292 243.665Z" fill="#2D2D2D"/>
<path d="M567.9 243.956C567.253 244.506 566.629 244.894 566.027 245.12C565.432 245.347 564.792 245.46 564.106 245.46C562.974 245.46 562.104 245.185 561.495 244.635C560.887 244.079 560.583 243.37 560.583 242.51C560.583 242.005 560.696 241.546 560.923 241.132C561.156 240.711 561.457 240.375 561.825 240.122C562.201 239.87 562.621 239.679 563.087 239.55C563.43 239.459 563.947 239.372 564.64 239.288C566.05 239.12 567.088 238.919 567.755 238.686C567.761 238.447 567.765 238.295 567.765 238.23C567.765 237.518 567.6 237.017 567.27 236.726C566.823 236.331 566.16 236.134 565.28 236.134C564.459 236.134 563.85 236.279 563.456 236.57C563.067 236.855 562.78 237.363 562.592 238.094L560.884 237.861C561.039 237.13 561.295 236.541 561.651 236.095C562.006 235.642 562.521 235.296 563.194 235.057C563.867 234.811 564.646 234.688 565.532 234.688C566.412 234.688 567.127 234.791 567.677 234.998C568.227 235.205 568.632 235.467 568.89 235.784C569.149 236.095 569.33 236.49 569.434 236.968C569.492 237.266 569.521 237.803 569.521 238.579V240.908C569.521 242.532 569.557 243.561 569.628 243.995C569.706 244.422 569.854 244.832 570.074 245.227H568.25C568.069 244.865 567.952 244.441 567.9 243.956ZM567.755 240.054C567.121 240.313 566.17 240.533 564.902 240.714C564.184 240.818 563.676 240.934 563.378 241.064C563.08 241.193 562.851 241.384 562.689 241.636C562.527 241.882 562.446 242.157 562.446 242.461C562.446 242.927 562.621 243.315 562.97 243.626C563.326 243.936 563.844 244.092 564.523 244.092C565.196 244.092 565.795 243.946 566.319 243.655C566.843 243.357 567.228 242.953 567.473 242.442C567.661 242.047 567.755 241.465 567.755 240.695V240.054Z" fill="#2D2D2D"/>
<path d="M574.015 245.227H572.394V231H574.141V236.076C574.879 235.15 575.82 234.688 576.965 234.688C577.599 234.688 578.198 234.817 578.761 235.076C579.33 235.328 579.796 235.687 580.158 236.153C580.527 236.613 580.815 237.169 581.022 237.822C581.229 238.476 581.332 239.175 581.332 239.919C581.332 241.685 580.896 243.05 580.022 244.014C579.149 244.978 578.101 245.46 576.878 245.46C575.662 245.46 574.707 244.952 574.015 243.936V245.227ZM573.996 239.996C573.996 241.232 574.164 242.125 574.5 242.675C575.05 243.574 575.794 244.024 576.732 244.024C577.496 244.024 578.156 243.694 578.712 243.034C579.269 242.367 579.547 241.378 579.547 240.064C579.547 238.718 579.278 237.725 578.741 237.085C578.211 236.444 577.567 236.124 576.81 236.124C576.047 236.124 575.387 236.457 574.83 237.124C574.274 237.784 573.996 238.741 573.996 239.996Z" fill="#2D2D2D"/>
<path d="M590.358 243.956C589.711 244.506 589.087 244.894 588.485 245.12C587.89 245.347 587.25 245.46 586.564 245.46C585.432 245.46 584.561 245.185 583.953 244.635C583.345 244.079 583.041 243.37 583.041 242.51C583.041 242.005 583.154 241.546 583.381 241.132C583.614 240.711 583.915 240.375 584.283 240.122C584.659 239.87 585.079 239.679 585.545 239.55C585.888 239.459 586.405 239.372 587.098 239.288C588.508 239.12 589.546 238.919 590.213 238.686C590.219 238.447 590.223 238.295 590.223 238.23C590.223 237.518 590.058 237.017 589.728 236.726C589.281 236.331 588.618 236.134 587.738 236.134C586.916 236.134 586.308 236.279 585.914 236.57C585.525 236.855 585.238 237.363 585.05 238.094L583.342 237.861C583.497 237.13 583.753 236.541 584.109 236.095C584.464 235.642 584.979 235.296 585.652 235.057C586.325 234.811 587.104 234.688 587.99 234.688C588.87 234.688 589.585 234.791 590.135 234.998C590.685 235.205 591.09 235.467 591.348 235.784C591.607 236.095 591.788 236.49 591.892 236.968C591.95 237.266 591.979 237.803 591.979 238.579V240.908C591.979 242.532 592.015 243.561 592.086 243.995C592.163 244.422 592.312 244.832 592.532 245.227H590.708C590.527 244.865 590.41 244.441 590.358 243.956ZM590.213 240.054C589.579 240.313 588.628 240.533 587.36 240.714C586.642 240.818 586.134 240.934 585.836 241.064C585.538 241.193 585.309 241.384 585.147 241.636C584.985 241.882 584.904 242.157 584.904 242.461C584.904 242.927 585.079 243.315 585.428 243.626C585.784 243.936 586.302 244.092 586.981 244.092C587.654 244.092 588.253 243.946 588.777 243.655C589.301 243.357 589.686 242.953 589.931 242.442C590.119 242.047 590.213 241.465 590.213 240.695V240.054Z" fill="#2D2D2D"/>
<path d="M594.163 242.151L595.891 241.879C595.988 242.571 596.256 243.102 596.696 243.471C597.143 243.839 597.764 244.024 598.56 244.024C599.362 244.024 599.957 243.862 600.345 243.538C600.733 243.209 600.927 242.824 600.927 242.384C600.927 241.989 600.756 241.678 600.413 241.452C600.174 241.297 599.579 241.099 598.627 240.86C597.346 240.536 596.457 240.258 595.959 240.025C595.467 239.786 595.092 239.459 594.833 239.045C594.581 238.625 594.454 238.162 594.454 237.657C594.454 237.198 594.558 236.774 594.765 236.386C594.979 235.991 595.266 235.665 595.629 235.406C595.9 235.205 596.269 235.037 596.735 234.901C597.207 234.759 597.712 234.688 598.249 234.688C599.058 234.688 599.766 234.804 600.374 235.037C600.989 235.27 601.442 235.587 601.733 235.988C602.024 236.383 602.225 236.913 602.335 237.58L600.627 237.813C600.549 237.282 600.323 236.868 599.947 236.57C599.579 236.273 599.054 236.124 598.375 236.124C597.573 236.124 597 236.257 596.657 236.522C596.315 236.787 596.143 237.098 596.143 237.454C596.143 237.68 596.214 237.884 596.357 238.065C596.499 238.253 596.722 238.408 597.026 238.531C597.201 238.596 597.715 238.744 598.569 238.977C599.805 239.307 600.665 239.579 601.151 239.792C601.642 239.999 602.027 240.304 602.306 240.705C602.584 241.106 602.723 241.604 602.723 242.199C602.723 242.782 602.551 243.331 602.208 243.849C601.872 244.36 601.384 244.758 600.743 245.043C600.103 245.321 599.378 245.46 598.569 245.46C597.23 245.46 596.208 245.182 595.503 244.625C594.804 244.069 594.357 243.244 594.163 242.151Z" fill="#2D2D2D"/>
<path d="M612.021 241.908L613.826 242.131C613.541 243.186 613.014 244.004 612.244 244.587C611.474 245.169 610.49 245.46 609.294 245.46C607.786 245.46 606.589 244.997 605.703 244.072C604.823 243.141 604.383 241.837 604.383 240.161C604.383 238.427 604.829 237.082 605.722 236.124C606.615 235.167 607.773 234.688 609.197 234.688C610.575 234.688 611.7 235.157 612.574 236.095C613.447 237.033 613.884 238.353 613.884 240.054C613.884 240.158 613.881 240.313 613.874 240.52H606.188C606.253 241.653 606.573 242.519 607.149 243.121C607.725 243.723 608.443 244.024 609.303 244.024C609.944 244.024 610.49 243.855 610.943 243.519C611.396 243.183 611.755 242.646 612.021 241.908ZM606.285 239.084H612.04C611.962 238.217 611.742 237.567 611.38 237.133C610.824 236.461 610.102 236.124 609.216 236.124C608.414 236.124 607.738 236.393 607.188 236.93C606.644 237.467 606.343 238.185 606.285 239.084Z" fill="#2D2D2D"/>
<path d="M484.467 202.334V107.67C484.467 107.67 495.865 117.186 531.291 117.186C566.718 117.186 579.348 106.582 579.348 106.582V202.334C579.348 202.334 574.247 213.962 531.291 214.409C488.336 214.856 484.467 202.334 484.467 202.334Z" fill="white"/>
<path d="M580.451 104.682C580.451 113.13 558.954 119.977 531.871 119.977C504.788 119.977 483.29 113.13 483.29 104.682C483.29 96.2353 504.788 89.3875 531.871 89.3875C558.954 89.3875 580.451 96.2353 580.451 104.682Z" fill="white"/>
<path fill-rule="evenodd" clip-rule="evenodd" d="M575.464 109.042C577.684 107.377 578.448 105.883 578.448 104.682C578.448 103.482 577.684 101.988 575.464 100.323C573.277 98.6818 569.98 97.1181 565.712 95.7694C557.198 93.0794 545.268 91.383 531.871 91.383C518.474 91.383 506.543 93.0794 498.03 95.7694C493.762 97.1181 490.465 98.6818 488.278 100.323C486.058 101.988 485.293 103.482 485.293 104.682C485.293 105.883 486.058 107.377 488.278 109.042C490.465 110.683 493.762 112.247 498.03 113.596C506.543 116.286 518.474 117.982 531.871 117.982C545.268 117.982 557.198 116.286 565.712 113.596C569.98 112.247 573.277 110.683 575.464 109.042ZM531.871 119.977C558.954 119.977 580.451 113.13 580.451 104.682C580.451 96.2353 558.954 89.3875 531.871 89.3875C504.788 89.3875 483.29 96.2353 483.29 104.682C483.29 113.13 504.788 119.977 531.871 119.977Z" fill="#ED1C24"/>
<path fill-rule="evenodd" clip-rule="evenodd" d="M483.217 199.953L483.217 105.502L485.22 105.502L485.22 199.953L483.217 199.953Z" fill="#ED1C24"/>
<path fill-rule="evenodd" clip-rule="evenodd" d="M578.533 200.052L578.643 104.116L580.646 104.118L580.536 200.054L578.533 200.052Z" fill="#ED1C24"/>
<path fill-rule="evenodd" clip-rule="evenodd" d="M498.471 209.387C506.974 212.009 518.782 213.645 531.869 213.645C544.955 213.645 556.763 212.009 565.266 209.387C569.524 208.075 572.896 206.532 575.183 204.866C577.49 203.184 578.517 201.512 578.517 199.954H580.52C580.52 202.451 578.88 204.644 576.365 206.477C573.829 208.325 570.223 209.948 565.858 211.294C557.115 213.989 545.098 215.641 531.869 215.641C518.639 215.641 506.622 213.989 497.879 211.294C493.514 209.948 489.908 208.325 487.372 206.477C484.857 204.644 483.217 202.451 483.217 199.954H485.22C485.22 201.512 486.247 203.184 488.555 204.866C490.841 206.532 494.213 208.075 498.471 209.387Z" fill="#ED1C24"/>
<path fill-rule="evenodd" clip-rule="evenodd" d="M498.471 145.274C506.974 147.895 518.782 149.532 531.869 149.532C544.955 149.532 556.763 147.895 565.266 145.274C569.524 143.962 572.896 142.419 575.183 140.753C577.49 139.071 578.517 137.399 578.517 135.841H580.52C580.52 138.338 578.88 140.53 576.365 142.364C573.829 144.212 570.223 145.835 565.858 147.181C557.115 149.876 545.098 151.527 531.869 151.527C518.639 151.527 506.622 149.876 497.879 147.181C493.514 145.835 489.908 144.212 487.372 142.364C484.857 140.53 483.217 138.338 483.217 135.841H485.22C485.22 137.399 486.247 139.071 488.555 140.753C490.841 142.419 494.213 143.962 498.471 145.274Z" fill="#ED1C24"/>
<path fill-rule="evenodd" clip-rule="evenodd" d="M498.471 177.552C506.974 180.173 518.782 181.81 531.869 181.81C544.955 181.81 556.763 180.173 565.266 177.552C569.524 176.239 572.896 174.697 575.183 173.031C577.49 171.349 578.517 169.677 578.517 168.118H580.52C580.52 170.616 578.88 172.808 576.365 174.641C573.829 176.49 570.223 178.112 565.858 179.458C557.115 182.153 545.098 183.805 531.869 183.805C518.639 183.805 506.622 182.153 497.879 179.458C493.514 178.112 489.908 176.49 487.372 174.641C484.857 172.808 483.217 170.616 483.217 168.118H485.22C485.22 169.677 486.247 171.349 488.555 173.031C490.841 174.697 494.213 176.239 498.471 177.552Z" fill="#ED1C24"/>
<path d="M59.5049 168.541L118.395 184.05L118.395 99.7597L59.5049 84.2503L1.64818 102.172L1.64819 186.113L59.5049 168.541Z" fill="white"/>
<path fill-rule="evenodd" clip-rule="evenodd" d="M0.646721 187.46L0.646706 101.438L59.4825 83.2124L119.396 98.9914L119.396 185.346L59.5244 169.578L0.646721 187.46ZM2.64966 184.765L59.4854 167.504L117.393 182.754L117.393 100.528L59.5273 85.2882L2.64964 102.907L2.64966 184.765Z" fill="#2D2D2D"/>
<path d="M60.5383 118.322L1.64832 102.813L1.64836 205.597L60.5383 221.107L118.395 203.185L118.395 100.75L60.5383 118.322Z" fill="white"/>
<path fill-rule="evenodd" clip-rule="evenodd" d="M119.396 99.4029L119.397 203.919L60.5607 222.145L0.646892 206.366L0.646851 101.517L60.5188 117.285L119.396 99.4029ZM117.394 102.097L60.5578 119.359L2.64979 104.108L2.64983 204.829L60.5159 220.069L117.394 202.45L117.394 102.097Z" fill="#2D2D2D"/>
<path fill-rule="evenodd" clip-rule="evenodd" d="M58.675 219.388L58.6748 118.156L60.6777 118.156L60.6779 219.388L58.675 219.388Z" fill="#2D2D2D"/>
<rect x="233.546" y="87.7338" width="134.002" height="133.359" rx="66.6793" fill="#ED1C24"/>
<path d="M288.54 130.769C288.54 130.769 257.824 149.377 286.772 167.853C292.34 171.452 312.538 181.458 311.963 190.719C311.963 190.719 324.205 172.725 306.306 161.402C287.921 149.816 283.325 137.44 288.54 130.769Z" fill="white"/>
<path d="M277.843 166.317C277.843 166.317 266.883 182.819 288.45 186.198C290.571 186.461 306.172 188.085 310.238 193.176C310.238 193.176 309.885 184.399 297.157 179.22C284.472 174.041 279.257 172.769 277.843 166.317Z" fill="white"/>
<path d="M320.272 148.982C307.102 135.289 303.433 126.819 309.09 115.847C309.09 115.847 269.801 130.857 308.604 157.496C322.482 167.02 320.183 176.762 320.183 177.114C322.349 174.875 333.442 162.675 320.272 148.982Z" fill="white"/>
<path fill-rule="evenodd" clip-rule="evenodd" d="M295.664 240.208C296.055 239.818 296.689 239.818 297.08 240.208L303.453 246.557C303.845 246.947 303.845 247.579 303.453 247.968C303.062 248.358 302.428 248.358 302.037 247.968L297.373 243.322V279.162C297.373 296.245 283.474 310.093 266.328 310.093H86.9747C69.8288 310.093 55.9292 296.245 55.9292 279.162V272.731C55.9292 272.18 56.3776 271.734 56.9307 271.734C57.4838 271.734 57.9321 272.18 57.9321 272.731V279.162C57.9321 295.142 70.935 308.097 86.9747 308.097H266.328C282.368 308.097 295.37 295.142 295.37 279.162V243.322L290.707 247.968C290.316 248.358 289.682 248.358 289.291 247.968C288.899 247.579 288.899 246.947 289.291 246.557L295.664 240.208Z" fill="black"/>
<path fill-rule="evenodd" clip-rule="evenodd" d="M56.9307 73.7915C57.4838 73.7916 57.9321 73.3448 57.9321 72.7938L57.9321 31.0228C57.9321 15.0426 70.935 2.08804 86.9747 2.08804L266.328 2.08809C282.368 2.08809 295.371 15.0426 295.371 31.0228L295.37 66.8633L290.707 62.2169C290.316 61.8273 289.682 61.8273 289.291 62.2169C288.899 62.6065 288.899 63.2383 289.291 63.6279L295.664 69.9776C296.055 70.3672 296.689 70.3672 297.08 69.9776L303.453 63.6279C303.845 63.2383 303.845 62.6065 303.453 62.2169C303.062 61.8273 302.428 61.8273 302.037 62.2169L297.373 66.8633L297.373 31.0228C297.373 13.9405 283.474 0.0925934 266.328 0.0925892L86.9747 0.0925446C69.8288 0.0925404 55.9292 13.9405 55.9292 31.0228L55.9292 72.7938C55.9292 73.3448 56.3776 73.7915 56.9307 73.7915Z" fill="black"/>
<path fill-rule="evenodd" clip-rule="evenodd" d="M212.466 152.477L218.839 158.827C219.23 159.217 219.23 159.848 218.839 160.238L212.466 166.588C212.074 166.977 211.44 166.977 211.049 166.588C210.658 166.198 210.658 165.566 211.049 165.177L215.713 160.53L139.861 160.53C139.308 160.53 138.859 160.084 138.859 159.533C138.859 158.982 139.308 158.535 139.861 158.535L215.713 158.535L211.049 153.888C210.658 153.499 210.658 152.867 211.049 152.477C211.44 152.088 212.074 152.088 212.466 152.477Z" fill="black"/>
<path fill-rule="evenodd" clip-rule="evenodd" d="M449.011 143.822L455.384 150.171C455.775 150.561 455.775 151.193 455.384 151.582L449.011 157.932C448.62 158.322 447.986 158.322 447.595 157.932C447.204 157.542 447.204 156.911 447.595 156.521L452.258 151.875H389.013C388.46 151.875 388.012 151.428 388.012 150.877C388.012 150.326 388.46 149.879 389.013 149.879H452.258L447.595 145.233C447.204 144.843 447.204 144.211 447.595 143.822C447.986 143.432 448.62 143.432 449.011 143.822Z" fill="black"/>
<path fill-rule="evenodd" clip-rule="evenodd" d="M394.678 180.466L388.305 174.116C387.914 173.726 387.914 173.094 388.305 172.705L394.678 166.355C395.069 165.966 395.703 165.966 396.094 166.355C396.485 166.745 396.485 167.377 396.094 167.766L391.431 172.413L454.676 172.413C455.229 172.413 455.677 172.859 455.677 173.41C455.677 173.961 455.229 174.408 454.676 174.408L391.431 174.408L396.094 179.054C396.485 179.444 396.485 180.076 396.094 180.466C395.703 180.855 395.069 180.855 394.678 180.466Z" fill="black"/>
<path d="M152.889 141L154.679 140.844C154.764 141.559 154.959 142.147 155.266 142.608C155.579 143.063 156.061 143.433 156.713 143.719C157.365 143.998 158.099 144.138 158.914 144.138C159.638 144.138 160.277 144.031 160.831 143.816C161.385 143.602 161.796 143.31 162.063 142.939C162.337 142.563 162.474 142.153 162.474 141.712C162.474 141.263 162.343 140.874 162.083 140.542C161.822 140.205 161.391 139.922 160.792 139.695C160.407 139.545 159.556 139.315 158.239 139.003C156.922 138.685 155.999 138.386 155.471 138.106C154.787 137.749 154.275 137.307 153.936 136.781C153.603 136.249 153.437 135.654 153.437 134.998C153.437 134.277 153.642 133.605 154.053 132.981C154.464 132.351 155.064 131.874 155.853 131.549C156.642 131.224 157.519 131.062 158.484 131.062C159.546 131.062 160.482 131.234 161.29 131.578C162.105 131.916 162.731 132.416 163.168 133.079C163.605 133.741 163.84 134.492 163.872 135.33L162.053 135.466C161.955 134.563 161.623 133.881 161.056 133.42C160.495 132.959 159.664 132.728 158.562 132.728C157.414 132.728 156.576 132.939 156.048 133.361C155.527 133.777 155.266 134.28 155.266 134.872C155.266 135.385 155.452 135.807 155.823 136.138C156.189 136.47 157.14 136.811 158.679 137.161C160.224 137.506 161.284 137.808 161.858 138.067C162.692 138.451 163.308 138.938 163.706 139.529C164.104 140.114 164.303 140.789 164.303 141.556C164.303 142.316 164.084 143.033 163.647 143.709C163.211 144.378 162.581 144.901 161.76 145.278C160.945 145.648 160.026 145.833 159.002 145.833C157.704 145.833 156.616 145.645 155.735 145.268C154.862 144.891 154.174 144.326 153.672 143.573C153.176 142.813 152.915 141.955 152.889 141Z" fill="#9C9C9C"/>
<path d="M177.96 144.06C178.84 144.664 179.652 145.106 180.395 145.385L179.838 146.7C178.808 146.33 177.781 145.745 176.757 144.946C175.694 145.538 174.521 145.833 173.236 145.833C171.939 145.833 170.762 145.521 169.706 144.898C168.65 144.274 167.835 143.397 167.261 142.267C166.694 141.137 166.41 139.864 166.41 138.447C166.41 137.038 166.697 135.755 167.271 134.599C167.844 133.443 168.659 132.562 169.716 131.958C170.778 131.354 171.965 131.052 173.276 131.052C174.599 131.052 175.792 131.367 176.855 131.997C177.918 132.621 178.726 133.498 179.28 134.628C179.841 135.752 180.122 137.022 180.122 138.438C180.122 139.613 179.942 140.672 179.584 141.614C179.225 142.55 178.684 143.365 177.96 144.06ZM173.784 141.643C174.879 141.949 175.782 142.403 176.493 143.008C177.608 141.994 178.166 140.471 178.166 138.438C178.166 137.281 177.967 136.271 177.569 135.407C177.178 134.544 176.601 133.874 175.838 133.4C175.082 132.92 174.231 132.679 173.285 132.679C171.871 132.679 170.697 133.163 169.765 134.131C168.832 135.092 168.366 136.531 168.366 138.447C168.366 140.305 168.826 141.731 169.745 142.725C170.671 143.719 171.851 144.216 173.285 144.216C173.963 144.216 174.602 144.089 175.202 143.836C174.609 143.452 173.983 143.18 173.324 143.017L173.784 141.643Z" fill="#9C9C9C"/>
<path d="M182.806 145.59V131.305H184.703V143.904H191.764V145.59H182.806Z" fill="#9C9C9C"/>
<path d="M92.1603 35.4365L94.0577 35.9139C93.6599 37.4664 92.9427 38.6519 91.9061 39.4703C90.8759 40.2823 89.6143 40.6883 88.1212 40.6883C86.576 40.6883 85.3176 40.3765 84.3461 39.7529C83.3812 39.1228 82.6444 38.2134 82.1359 37.0247C81.6338 35.836 81.3828 34.5595 81.3828 33.1954C81.3828 31.7079 81.6664 30.412 82.2337 29.3077C82.8074 28.1969 83.6192 27.3557 84.6689 26.7841C85.7251 26.206 86.8857 25.9169 88.1506 25.9169C89.5849 25.9169 90.7911 26.2807 91.7691 27.0082C92.7471 27.7357 93.4285 28.7588 93.8132 30.0775L91.9452 30.5159C91.6127 29.4766 91.1302 28.7199 90.4977 28.2457C89.8653 27.7715 89.0699 27.5344 88.1114 27.5344C87.0096 27.5344 86.087 27.7975 85.3437 28.3236C84.6069 28.8498 84.0886 29.5578 83.7887 30.4477C83.4888 31.3311 83.3388 32.2438 83.3388 33.1857C83.3388 34.4004 83.5148 35.4625 83.8669 36.3719C84.2255 37.2748 84.7797 37.9503 85.5295 38.3985C86.2793 38.8467 87.0911 39.0708 87.9647 39.0708C89.0275 39.0708 89.9272 38.7655 90.664 38.1549C91.4008 37.5443 91.8995 36.6382 92.1603 35.4365Z" fill="#9C9C9C"/>
<path d="M95.7249 35.2708C95.7249 33.3546 96.2596 31.9353 97.3289 31.0129C98.2221 30.2464 99.3109 29.8631 100.595 29.8631C102.023 29.8631 103.19 30.3308 104.097 31.2662C105.003 32.1951 105.456 33.4812 105.456 35.1247C105.456 36.4563 105.254 37.5054 104.85 38.2719C104.452 39.0319 103.868 39.623 103.099 40.0452C102.336 40.4674 101.502 40.6785 100.595 40.6785C99.1414 40.6785 97.9646 40.2141 97.0648 39.2852C96.1716 38.3563 95.7249 37.0182 95.7249 35.2708ZM97.5342 35.2708C97.5342 36.596 97.8244 37.5898 98.4047 38.2524C98.9849 38.9085 99.7152 39.2365 100.595 39.2365C101.469 39.2365 102.196 38.9052 102.776 38.2426C103.357 37.5801 103.647 36.57 103.647 35.2124C103.647 33.9327 103.353 32.9648 102.767 32.3088C102.186 31.6462 101.463 31.3149 100.595 31.3149C99.7152 31.3149 98.9849 31.6429 98.4047 32.299C97.8244 32.9551 97.5342 33.9457 97.5342 35.2708Z" fill="#9C9C9C"/>
<path d="M107.73 40.4447V30.097H109.304V31.5488C109.63 31.0421 110.064 30.6361 110.605 30.3308C111.146 30.019 111.762 29.8631 112.453 29.8631C113.223 29.8631 113.852 30.0223 114.341 30.3405C114.836 30.6588 115.185 31.1038 115.387 31.6754C116.209 30.4672 117.278 29.8631 118.595 29.8631C119.625 29.8631 120.418 30.1489 120.972 30.7205C121.526 31.2857 121.803 32.1594 121.803 33.3416V40.4447H120.052V33.9262C120.052 33.2247 119.994 32.7212 119.876 32.4159C119.766 32.1041 119.56 31.8541 119.26 31.6657C118.96 31.4773 118.608 31.3831 118.204 31.3831C117.474 31.3831 116.867 31.6267 116.385 32.1139C115.902 32.5946 115.661 33.3676 115.661 34.4329V40.4447H113.901V33.7216C113.901 32.9421 113.757 32.3575 113.471 31.9677C113.184 31.578 112.714 31.3831 112.062 31.3831C111.567 31.3831 111.107 31.513 110.683 31.7729C110.266 32.0327 109.963 32.4127 109.774 32.9129C109.585 33.413 109.49 34.1341 109.49 35.076V40.4447H107.73Z" fill="#9C9C9C"/>
<path d="M124.615 44.4104V30.097H126.218V31.4416C126.597 30.9154 127.024 30.5224 127.5 30.2626C127.976 29.9963 128.553 29.8631 129.231 29.8631C130.117 29.8631 130.9 30.0905 131.578 30.5452C132.256 30.9999 132.768 31.6429 133.113 32.4744C133.459 33.2994 133.632 34.2055 133.632 35.1929C133.632 36.2517 133.439 37.2066 133.055 38.0575C132.677 38.902 132.122 39.5515 131.392 40.0062C130.668 40.4544 129.906 40.6785 129.104 40.6785C128.517 40.6785 127.989 40.5551 127.519 40.3083C127.056 40.0615 126.675 39.7497 126.375 39.3729V44.4104H124.615ZM126.209 35.3293C126.209 36.6609 126.479 37.645 127.02 38.2816C127.562 38.9182 128.217 39.2365 128.986 39.2365C129.769 39.2365 130.437 38.9085 130.991 38.2524C131.552 37.5898 131.832 36.5667 131.832 35.1831C131.832 33.8645 131.558 32.8771 131.011 32.2211C130.47 31.565 129.821 31.237 129.064 31.237C128.315 31.237 127.65 31.5877 127.069 32.2893C126.496 32.9843 126.209 33.9977 126.209 35.3293Z" fill="#9C9C9C"/>
<path d="M142.771 40.4447V38.9247C141.962 40.0939 140.864 40.6785 139.475 40.6785C138.862 40.6785 138.288 40.5616 137.754 40.3278C137.226 40.0939 136.831 39.8016 136.57 39.4509C136.316 39.0936 136.137 38.6584 136.033 38.1452C135.961 37.8009 135.925 37.2553 135.925 36.5083V30.097H137.685V35.836C137.685 36.7519 137.721 37.369 137.793 37.6873C137.904 38.1484 138.138 38.5122 138.497 38.7785C138.856 39.0384 139.299 39.1683 139.827 39.1683C140.355 39.1683 140.851 39.0351 141.314 38.7688C141.777 38.496 142.103 38.129 142.292 37.6678C142.487 37.2001 142.585 36.5245 142.585 35.6411V30.097H144.345V40.4447H142.771Z" fill="#9C9C9C"/>
<path d="M151.157 38.876L151.411 40.4252C150.916 40.5291 150.472 40.5811 150.081 40.5811C149.442 40.5811 148.947 40.4804 148.595 40.2791C148.243 40.0777 147.995 39.8146 147.851 39.4898C147.708 39.1585 147.636 38.4667 147.636 37.4144V31.4611H146.345V30.097H147.636V27.5344L149.387 26.4821V30.097H151.157V31.4611H149.387V37.5119C149.387 38.012 149.416 38.3336 149.475 38.4765C149.54 38.6194 149.641 38.7331 149.778 38.8175C149.921 38.902 150.124 38.9442 150.384 38.9442C150.58 38.9442 150.838 38.9214 151.157 38.876Z" fill="#9C9C9C"/>
<path d="M160.198 37.1124L162.017 37.3365C161.731 38.3953 161.199 39.217 160.423 39.8016C159.647 40.3862 158.656 40.6785 157.45 40.6785C155.931 40.6785 154.725 40.2141 153.832 39.2852C152.945 38.3498 152.502 37.0409 152.502 35.3585C152.502 33.6177 152.951 32.2665 153.851 31.3052C154.751 30.3438 155.918 29.8631 157.352 29.8631C158.741 29.8631 159.876 30.334 160.756 31.2759C161.636 32.2178 162.076 33.543 162.076 35.2513C162.076 35.3553 162.073 35.5112 162.066 35.719H154.321C154.386 36.8558 154.709 37.7262 155.289 38.3303C155.869 38.9344 156.593 39.2365 157.46 39.2365C158.105 39.2365 158.656 39.0676 159.113 38.7298C159.569 38.392 159.931 37.8529 160.198 37.1124ZM154.418 34.277H160.218C160.14 33.4065 159.918 32.7537 159.553 32.3185C158.992 31.6429 158.265 31.3052 157.372 31.3052C156.564 31.3052 155.882 31.5747 155.328 32.1139C154.78 32.653 154.477 33.3741 154.418 34.277Z" fill="#9C9C9C"/>
<path d="M178.408 38.7591C177.828 39.4021 177.196 39.8861 176.511 40.2109C175.826 40.5291 175.086 40.6883 174.291 40.6883C172.824 40.6883 171.66 40.1946 170.8 39.2073C170.102 38.4018 169.753 37.5021 169.753 36.5083C169.753 35.6248 170.037 34.8291 170.604 34.1211C171.178 33.4065 172.032 32.7797 173.166 32.2406C172.521 31.5 172.09 30.8992 171.875 30.438C171.66 29.9768 171.553 29.5318 171.553 29.1031C171.553 28.2457 171.888 27.5019 172.56 26.8718C173.238 26.2352 174.089 25.9169 175.112 25.9169C176.09 25.9169 176.889 26.2157 177.509 26.8133C178.134 27.411 178.447 28.1287 178.447 28.9667C178.447 30.3243 177.544 31.4838 175.738 32.4452L178.311 35.7093C178.604 35.1377 178.832 34.4751 178.995 33.7216L180.824 34.1113C180.511 35.3585 180.087 36.3849 179.553 37.1903C180.211 38.0608 180.958 38.7915 181.792 39.3826L180.609 40.776C179.898 40.3213 179.165 39.649 178.408 38.7591ZM174.829 31.3149C175.592 30.8667 176.084 30.4737 176.306 30.1359C176.534 29.7981 176.648 29.4246 176.648 29.0154C176.648 28.5282 176.491 28.132 176.178 27.8267C175.872 27.5149 175.487 27.359 175.024 27.359C174.549 27.359 174.151 27.5116 173.831 27.8169C173.518 28.1222 173.362 28.4957 173.362 28.9375C173.362 29.1583 173.417 29.3922 173.528 29.639C173.645 29.8793 173.818 30.1359 174.046 30.4088L174.829 31.3149ZM177.303 37.3755L174.076 33.3903C173.124 33.9554 172.482 34.4816 172.149 34.9688C171.817 35.4495 171.65 35.9269 171.65 36.4011C171.65 36.9792 171.882 37.5801 172.345 38.2037C172.808 38.8273 173.463 39.1391 174.311 39.1391C174.839 39.1391 175.383 38.9767 175.944 38.6519C176.511 38.3206 176.964 37.8951 177.303 37.3755Z" fill="#9C9C9C"/>
<path d="M189.714 40.4447V26.1605H192.569L195.963 36.2744C196.276 37.2163 196.504 37.9211 196.648 38.3888C196.811 37.8691 197.065 37.1059 197.41 36.099L200.843 26.1605H203.396V40.4447H201.567V28.4893L197.401 40.4447H195.689L191.542 28.2846V40.4447H189.714Z" fill="#9C9C9C"/>
<path d="M213.21 39.1683C212.558 39.7204 211.929 40.1102 211.322 40.3375C210.722 40.5649 210.077 40.6785 209.386 40.6785C208.245 40.6785 207.368 40.4025 206.755 39.8503C206.142 39.2917 205.836 38.5804 205.836 37.7165C205.836 37.2098 205.95 36.7486 206.178 36.3329C206.413 35.9107 206.716 35.5729 207.088 35.3195C207.466 35.0662 207.889 34.8746 208.359 34.7447C208.704 34.6537 209.226 34.566 209.924 34.4816C211.345 34.3127 212.391 34.1113 213.063 33.8775C213.07 33.6371 213.073 33.4845 213.073 33.4195C213.073 32.705 212.907 32.2016 212.574 31.9093C212.124 31.513 211.456 31.3149 210.569 31.3149C209.741 31.3149 209.128 31.4611 208.731 31.7534C208.339 32.0392 208.049 32.5491 207.86 33.2831L206.139 33.0493C206.295 32.3153 206.553 31.7241 206.911 31.2759C207.27 30.8212 207.788 30.4737 208.466 30.2334C209.145 29.9865 209.93 29.8631 210.823 29.8631C211.71 29.8631 212.431 29.967 212.985 30.1749C213.539 30.3828 213.947 30.6458 214.207 30.9641C214.468 31.2759 214.651 31.6722 214.755 32.1529C214.814 32.4517 214.843 32.9908 214.843 33.7703V36.1088C214.843 37.7392 214.879 38.772 214.951 39.2073C215.029 39.636 215.179 40.0485 215.4 40.4447H213.562C213.379 40.0809 213.262 39.6555 213.21 39.1683ZM213.063 35.2513C212.424 35.5112 211.466 35.732 210.188 35.9139C209.464 36.0178 208.952 36.1348 208.652 36.2647C208.352 36.3946 208.121 36.5862 207.958 36.8396C207.795 37.0864 207.713 37.3625 207.713 37.6678C207.713 38.1355 207.889 38.5252 208.242 38.837C208.6 39.1488 209.122 39.3047 209.806 39.3047C210.484 39.3047 211.088 39.1585 211.616 38.8662C212.144 38.5674 212.532 38.1614 212.779 37.6483C212.969 37.252 213.063 36.6674 213.063 35.8944V35.2513Z" fill="#9C9C9C"/>
<path d="M224.559 36.6544L226.29 36.8785C226.101 38.0673 225.615 38.9994 224.833 39.675C224.057 40.344 223.102 40.6785 221.968 40.6785C220.546 40.6785 219.402 40.2174 218.535 39.295C217.674 38.3661 217.244 37.0377 217.244 35.3098C217.244 34.1925 217.43 33.2149 217.801 32.377C218.173 31.539 218.737 30.9122 219.493 30.4964C220.256 30.0742 221.084 29.8631 221.977 29.8631C223.105 29.8631 224.028 30.1489 224.745 30.7205C225.462 31.2857 225.922 32.0912 226.124 33.137L224.413 33.4C224.25 32.705 223.959 32.1821 223.542 31.8313C223.131 31.4806 222.633 31.3052 222.046 31.3052C221.159 31.3052 220.439 31.6235 219.884 32.26C219.33 32.8901 219.053 33.8905 219.053 35.2611C219.053 36.6512 219.32 37.6613 219.855 38.2914C220.39 38.9214 221.087 39.2365 221.948 39.2365C222.639 39.2365 223.216 39.0254 223.679 38.6032C224.142 38.1809 224.435 37.5314 224.559 36.6544Z" fill="#9C9C9C"/>
<path d="M227.997 40.4447V26.1605H229.757V31.2857C230.579 30.3373 231.615 29.8631 232.867 29.8631C233.636 29.8631 234.305 30.0158 234.872 30.3211C235.439 30.6199 235.843 31.0356 236.085 31.5682C236.332 32.1009 236.456 32.8739 236.456 33.8872V40.4447H234.696V33.8872C234.696 33.0103 234.504 32.3737 234.119 31.9775C233.741 31.5747 233.203 31.3734 232.505 31.3734C231.984 31.3734 231.491 31.5098 231.028 31.7826C230.572 32.0489 230.246 32.4127 230.05 32.8739C229.855 33.3351 229.757 33.9717 229.757 34.7836V40.4447H227.997Z" fill="#9C9C9C"/>
<path d="M239.356 28.1775V26.1605H241.116V28.1775H239.356ZM239.356 40.4447V30.097H241.116V40.4447H239.356Z" fill="#9C9C9C"/>
<path d="M244.006 40.4447V30.097H245.59V31.5682C246.353 30.4315 247.455 29.8631 248.896 29.8631C249.522 29.8631 250.096 29.9768 250.617 30.2041C251.145 30.425 251.54 30.7173 251.801 31.0811C252.062 31.4448 252.244 31.8768 252.348 32.377C252.414 32.7018 252.446 33.2701 252.446 34.0821V40.4447H250.686V34.1503C250.686 33.4358 250.617 32.9031 250.48 32.5524C250.344 32.1951 250.099 31.9125 249.747 31.7047C249.401 31.4903 248.994 31.3831 248.524 31.3831C247.775 31.3831 247.126 31.6202 246.578 32.0944C246.037 32.5686 245.766 33.4683 245.766 34.7934V40.4447H244.006Z" fill="#9C9C9C"/>
<path d="M262.466 37.1124L264.285 37.3365C263.998 38.3953 263.466 39.217 262.691 39.8016C261.915 40.3862 260.924 40.6785 259.717 40.6785C258.198 40.6785 256.992 40.2141 256.099 39.2852C255.212 38.3498 254.769 37.0409 254.769 35.3585C254.769 33.6177 255.219 32.2665 256.118 31.3052C257.018 30.3438 258.185 29.8631 259.62 29.8631C261.008 29.8631 262.143 30.334 263.023 31.2759C263.903 32.2178 264.343 33.543 264.343 35.2513C264.343 35.3553 264.34 35.5112 264.334 35.719H256.588C256.653 36.8558 256.976 37.7262 257.556 38.3303C258.136 38.9344 258.86 39.2365 259.727 39.2365C260.373 39.2365 260.924 39.0676 261.38 38.7298C261.836 38.392 262.198 37.8529 262.466 37.1124ZM256.686 34.277H262.485C262.407 33.4065 262.185 32.7537 261.82 32.3185C261.259 31.6429 260.532 31.3052 259.639 31.3052C258.831 31.3052 258.149 31.5747 257.595 32.1139C257.048 32.653 256.744 33.3741 256.686 34.277Z" fill="#9C9C9C"/>
<path d="M134.639 63.3929V49.1087H136.536V61.7073H143.597V63.3929H134.639Z" fill="#9C9C9C"/>
<path d="M152.951 60.0606L154.771 60.2847C154.484 61.3435 153.952 62.1652 153.176 62.7498C152.401 63.3345 151.409 63.6268 150.203 63.6268C148.684 63.6268 147.478 63.1623 146.585 62.2334C145.698 61.298 145.255 59.9891 145.255 58.3067C145.255 56.5659 145.704 55.2148 146.604 54.2534C147.504 53.292 148.671 52.8113 150.105 52.8113C151.494 52.8113 152.629 53.2823 153.509 54.2242C154.389 55.166 154.829 56.4912 154.829 58.1996C154.829 58.3035 154.826 58.4594 154.819 58.6673H147.074C147.139 59.804 147.462 60.6745 148.042 61.2786C148.622 61.8827 149.346 62.1847 150.213 62.1847C150.859 62.1847 151.409 62.0158 151.866 61.678C152.322 61.3403 152.684 60.8011 152.951 60.0606ZM147.171 57.2252H152.971C152.893 56.3548 152.671 55.7019 152.306 55.2667C151.745 54.5912 151.018 54.2534 150.125 54.2534C149.317 54.2534 148.635 54.523 148.081 55.0621C147.533 55.6013 147.23 56.3223 147.171 57.2252Z" fill="#9C9C9C"/>
<path d="M163.968 62.1165C163.316 62.6687 162.687 63.0584 162.081 63.2857C161.481 63.5131 160.836 63.6268 160.144 63.6268C159.003 63.6268 158.126 63.3507 157.514 62.7986C156.901 62.2399 156.594 61.5286 156.594 60.6647C156.594 60.158 156.708 59.6968 156.937 59.2811C157.171 58.8589 157.475 58.5211 157.846 58.2678C158.224 58.0144 158.648 57.8228 159.118 57.6929C159.463 57.602 159.985 57.5143 160.682 57.4298C162.104 57.2609 163.15 57.0596 163.822 56.8257C163.828 56.5854 163.831 56.4327 163.831 56.3678C163.831 55.6532 163.665 55.1498 163.333 54.8575C162.883 54.4613 162.215 54.2631 161.328 54.2631C160.5 54.2631 159.887 54.4093 159.489 54.7016C159.098 54.9874 158.808 55.4973 158.619 56.2314L156.897 55.9975C157.054 55.2635 157.312 54.6724 157.67 54.2242C158.029 53.7695 158.547 53.4219 159.225 53.1816C159.903 52.9348 160.689 52.8113 161.582 52.8113C162.469 52.8113 163.189 52.9153 163.743 53.1231C164.298 53.331 164.705 53.5941 164.966 53.9124C165.227 54.2242 165.409 54.6204 165.514 55.1011C165.572 55.3999 165.602 55.939 165.602 56.7185V59.057C165.602 60.6874 165.638 61.7203 165.709 62.1555C165.787 62.5842 165.937 62.9967 166.159 63.3929H164.32C164.138 63.0292 164.021 62.6037 163.968 62.1165ZM163.822 58.1996C163.183 58.4594 162.224 58.6803 160.946 58.8621C160.223 58.9661 159.711 59.083 159.411 59.2129C159.111 59.3428 158.88 59.5344 158.717 59.7878C158.554 60.0346 158.472 60.3107 158.472 60.616C158.472 61.0837 158.648 61.4734 159 61.7852C159.359 62.097 159.88 62.2529 160.565 62.2529C161.243 62.2529 161.846 62.1068 162.374 61.8145C162.902 61.5157 163.29 61.1097 163.538 60.5965C163.727 60.2003 163.822 59.6156 163.822 58.8426V58.1996Z" fill="#9C9C9C"/>
<path d="M168.521 63.3929V53.0452H170.105V54.6139C170.509 53.8799 170.881 53.396 171.22 53.1621C171.566 52.9283 171.944 52.8113 172.355 52.8113C172.948 52.8113 173.551 52.9997 174.164 53.3765L173.557 55.0037C173.127 54.7503 172.697 54.6236 172.267 54.6236C171.882 54.6236 171.536 54.7406 171.23 54.9744C170.923 55.2018 170.705 55.5201 170.575 55.9293C170.379 56.5529 170.281 57.2349 170.281 57.9755V63.3929H168.521Z" fill="#9C9C9C"/>
<path d="M175.411 63.3929V53.0452H176.995V54.5165C177.758 53.3797 178.86 52.8113 180.301 52.8113C180.926 52.8113 181.5 52.925 182.022 53.1524C182.55 53.3732 182.944 53.6655 183.205 54.0293C183.466 54.3931 183.649 54.825 183.753 55.3252C183.818 55.65 183.851 56.2184 183.851 57.0303V63.3929H182.09V57.0985C182.09 56.384 182.022 55.8513 181.885 55.5006C181.748 55.1433 181.503 54.8607 181.151 54.6529C180.806 54.4385 180.398 54.3313 179.929 54.3313C179.179 54.3313 178.53 54.5684 177.983 55.0426C177.442 55.5168 177.171 56.4165 177.171 57.7416V63.3929H175.411Z" fill="#9C9C9C"/>
<path d="M186.77 51.1257V49.1087H188.53V51.1257H186.77ZM186.77 63.3929V53.0452H188.53V63.3929H186.77Z" fill="#9C9C9C"/>
<path d="M191.42 63.3929V53.0452H193.004V54.5165C193.767 53.3797 194.869 52.8113 196.31 52.8113C196.936 52.8113 197.51 52.925 198.031 53.1524C198.559 53.3732 198.954 53.6655 199.215 54.0293C199.475 54.3931 199.658 54.825 199.762 55.3252C199.827 55.65 199.86 56.2184 199.86 57.0303V63.3929H198.1V57.0985C198.1 56.384 198.031 55.8513 197.894 55.5006C197.757 55.1433 197.513 54.8607 197.161 54.6529C196.815 54.4385 196.408 54.3313 195.938 54.3313C195.189 54.3313 194.54 54.5684 193.992 55.0426C193.451 55.5168 193.18 56.4165 193.18 57.7416V63.3929H191.42Z" fill="#9C9C9C"/>
<path d="M202.447 64.2504L204.158 64.5037C204.23 65.0299 204.429 65.4131 204.755 65.6535C205.192 65.9782 205.788 66.1406 206.545 66.1406C207.36 66.1406 207.989 65.9782 208.432 65.6535C208.875 65.3287 209.175 64.874 209.332 64.2893C209.423 63.9321 209.465 63.1818 209.459 62.0386C208.69 62.9415 207.731 63.3929 206.584 63.3929C205.156 63.3929 204.051 62.8798 203.268 61.8534C202.486 60.8271 202.095 59.5962 202.095 58.1606C202.095 57.1732 202.274 56.2638 202.633 55.4324C202.991 54.5944 203.509 53.9481 204.188 53.4934C204.872 53.0387 205.674 52.8113 206.593 52.8113C207.819 52.8113 208.83 53.305 209.625 54.2924V53.0452H211.249V61.9898C211.249 63.6008 211.082 64.7408 210.75 65.4099C210.424 66.0854 209.902 66.6181 209.185 67.0078C208.474 67.3976 207.598 67.5924 206.554 67.5924C205.316 67.5924 204.315 67.3131 203.552 66.7545C202.789 66.2023 202.421 65.3676 202.447 64.2504ZM203.904 58.0339C203.904 59.3915 204.175 60.3821 204.716 61.0057C205.257 61.6293 205.935 61.9411 206.75 61.9411C207.558 61.9411 208.236 61.6326 208.784 61.0155C209.332 60.3919 209.606 59.4175 209.606 58.0924C209.606 56.8257 209.322 55.8708 208.755 55.2278C208.194 54.5847 207.516 54.2631 206.721 54.2631C205.938 54.2631 205.273 54.5814 204.725 55.218C204.178 55.8481 203.904 56.7867 203.904 58.0339Z" fill="#9C9C9C"/>
<path d="M11.6229 249.805L17.129 235.521H19.1731L25.041 249.805H22.8797L21.2073 245.479H15.2122L13.6376 249.805H11.6229ZM15.7599 243.939H20.6205L19.1242 239.983C18.6678 238.782 18.3287 237.794 18.107 237.021C17.9245 237.937 17.6669 238.847 17.3344 239.75L15.7599 243.939Z" fill="#2D2D2D"/>
<path d="M26.5323 253.771V239.457H28.1362V240.802C28.5144 240.276 28.9414 239.883 29.4174 239.623C29.8933 239.357 30.4704 239.223 31.1484 239.223C32.0352 239.223 32.8176 239.451 33.4956 239.905C34.1737 240.36 34.6855 241.003 35.0311 241.835C35.3766 242.66 35.5494 243.566 35.5494 244.553C35.5494 245.612 35.3571 246.567 34.9724 247.418C34.5942 248.262 34.0401 248.912 33.3098 249.366C32.5861 249.815 31.8233 250.039 31.0213 250.039C30.4345 250.039 29.9064 249.915 29.4369 249.669C28.974 249.422 28.5926 249.11 28.2927 248.733V253.771H26.5323ZM28.1264 244.69C28.1264 246.021 28.397 247.005 28.9382 247.642C29.4793 248.278 30.1346 248.597 30.9039 248.597C31.6863 248.597 32.3546 248.269 32.9088 247.613C33.4696 246.95 33.7499 245.927 33.7499 244.543C33.7499 243.225 33.4761 242.237 32.9284 241.581C32.3872 240.925 31.7385 240.597 30.9822 240.597C30.2324 240.597 29.5673 240.948 28.9871 241.65C28.4133 242.345 28.1264 243.358 28.1264 244.69Z" fill="#2D2D2D"/>
<path d="M37.8818 253.771V239.457H39.4857V240.802C39.8638 240.276 40.2909 239.883 40.7668 239.623C41.2428 239.357 41.8198 239.223 42.4979 239.223C43.3846 239.223 44.167 239.451 44.8451 239.905C45.5232 240.36 46.035 241.003 46.3805 241.835C46.7261 242.66 46.8989 243.566 46.8989 244.553C46.8989 245.612 46.7065 246.567 46.3219 247.418C45.9437 248.262 45.3895 248.912 44.6593 249.366C43.9356 249.815 43.1727 250.039 42.3708 250.039C41.784 250.039 41.2558 249.915 40.7864 249.669C40.3235 249.422 39.9421 249.11 39.6421 248.733V253.771H37.8818ZM39.4759 244.69C39.4759 246.021 39.7465 247.005 40.2876 247.642C40.8288 248.278 41.484 248.597 42.2534 248.597C43.0358 248.597 43.7041 248.269 44.2583 247.613C44.819 246.95 45.0994 245.927 45.0994 244.543C45.0994 243.225 44.8255 242.237 44.2779 241.581C43.7367 240.925 43.088 240.597 42.3316 240.597C41.5818 240.597 40.9168 240.948 40.3365 241.65C39.7628 242.345 39.4759 243.358 39.4759 244.69Z" fill="#2D2D2D"/>
<path d="M49.1921 249.805V235.521H50.9525V249.805H49.1921Z" fill="#2D2D2D"/>
<path d="M53.901 237.538V235.521H55.6613V237.538H53.901ZM53.901 249.805V239.457H55.6613V249.805H53.901Z" fill="#2D2D2D"/>
<path d="M65.3287 246.015L67.0597 246.239C66.8706 247.428 66.3849 248.36 65.6025 249.035C64.8266 249.704 63.8714 250.039 62.737 250.039C61.3156 250.039 60.1713 249.578 59.3042 248.655C58.4436 247.726 58.0132 246.398 58.0132 244.67C58.0132 243.553 58.1991 242.575 58.5707 241.737C58.9423 240.899 59.5063 240.272 60.2626 239.857C61.0255 239.434 61.8535 239.223 62.7467 239.223C63.8747 239.223 64.7973 239.509 65.5145 240.081C66.2317 240.646 66.6913 241.451 66.8934 242.497L65.1819 242.76C65.019 242.065 64.7288 241.542 64.3115 241.192C63.9008 240.841 63.402 240.665 62.8152 240.665C61.9285 240.665 61.208 240.984 60.6538 241.62C60.0996 242.25 59.8225 243.251 59.8225 244.621C59.8225 246.011 60.0898 247.022 60.6245 247.652C61.1591 248.282 61.8568 248.597 62.7174 248.597C63.4085 248.597 63.9855 248.386 64.4485 247.963C64.9114 247.541 65.2048 246.892 65.3287 246.015Z" fill="#2D2D2D"/>
<path d="M75.5436 248.529C74.8916 249.081 74.2625 249.47 73.6561 249.698C73.0563 249.925 72.4108 250.039 71.7197 250.039C70.5787 250.039 69.7017 249.763 69.0889 249.211C68.476 248.652 68.1695 247.941 68.1695 247.077C68.1695 246.57 68.2836 246.109 68.5118 245.693C68.7466 245.271 69.0497 244.933 69.4214 244.68C69.7995 244.426 70.2233 244.235 70.6928 244.105C71.0383 244.014 71.5599 243.926 72.2576 243.842C73.6789 243.673 74.7254 243.472 75.3969 243.238C75.4035 242.997 75.4067 242.845 75.4067 242.78C75.4067 242.065 75.2405 241.562 74.9079 241.27C74.4581 240.873 73.7898 240.675 72.903 240.675C72.075 240.675 71.4621 240.821 71.0644 241.114C70.6732 241.399 70.3831 241.909 70.194 242.643L68.4727 242.41C68.6292 241.676 68.8867 241.084 69.2453 240.636C69.6039 240.181 70.1223 239.834 70.8004 239.594C71.4784 239.347 72.2641 239.223 73.1573 239.223C74.044 239.223 74.7645 239.327 75.3187 239.535C75.8729 239.743 76.2804 240.006 76.5412 240.324C76.802 240.636 76.9845 241.032 77.0889 241.513C77.1475 241.812 77.1769 242.351 77.1769 243.131V245.469C77.1769 247.099 77.2127 248.132 77.2845 248.568C77.3627 248.996 77.5127 249.409 77.7343 249.805H75.8957C75.7132 249.441 75.5958 249.016 75.5436 248.529ZM75.3969 244.612C74.758 244.871 73.7995 245.092 72.5216 245.274C71.7979 245.378 71.2861 245.495 70.9862 245.625C70.6862 245.755 70.4548 245.946 70.2918 246.2C70.1288 246.447 70.0473 246.723 70.0473 247.028C70.0473 247.496 70.2233 247.885 70.5754 248.197C70.934 248.509 71.4556 248.665 72.1402 248.665C72.8183 248.665 73.4214 248.519 73.9495 248.226C74.4776 247.928 74.8656 247.522 75.1133 247.009C75.3024 246.612 75.3969 246.028 75.3969 245.255V244.612Z" fill="#2D2D2D"/>
<path d="M83.9591 248.236L84.2134 249.785C83.7179 249.889 83.2745 249.941 82.8833 249.941C82.2443 249.941 81.7488 249.841 81.3968 249.639C81.0447 249.438 80.7969 249.175 80.6535 248.85C80.51 248.519 80.4383 247.827 80.4383 246.775V240.821H79.1474V239.457H80.4383V236.895L82.1889 235.842V239.457H83.9591V240.821H82.1889V246.872C82.1889 247.372 82.2183 247.694 82.2769 247.837C82.3421 247.98 82.4432 248.093 82.5801 248.178C82.7236 248.262 82.9257 248.304 83.1865 248.304C83.3821 248.304 83.6396 248.282 83.9591 248.236Z" fill="#2D2D2D"/>
<path d="M85.9002 237.538V235.521H87.6606V237.538H85.9002ZM85.9002 249.805V239.457H87.6606V249.805H85.9002Z" fill="#2D2D2D"/>
<path d="M89.8952 244.631C89.8952 242.715 90.4298 241.296 91.4991 240.373C92.3923 239.607 93.4811 239.223 94.7656 239.223C96.1935 239.223 97.3605 239.691 98.2668 240.626C99.1731 241.555 99.6262 242.842 99.6262 244.485C99.6262 245.817 99.4241 246.866 99.0199 247.632C98.6221 248.392 98.0386 248.983 97.2692 249.405C96.5064 249.828 95.6719 250.039 94.7656 250.039C93.3116 250.039 92.1348 249.574 91.235 248.645C90.3418 247.717 89.8952 246.378 89.8952 244.631ZM91.7045 244.631C91.7045 245.956 91.9946 246.95 92.5749 247.613C93.1551 248.269 93.8854 248.597 94.7656 248.597C95.6393 248.597 96.3662 248.265 96.9465 247.603C97.5268 246.94 97.8169 245.93 97.8169 244.573C97.8169 243.293 97.5235 242.325 96.9367 241.669C96.3565 241.006 95.6327 240.675 94.7656 240.675C93.8854 240.675 93.1551 241.003 92.5749 241.659C91.9946 242.315 91.7045 243.306 91.7045 244.631Z" fill="#2D2D2D"/>
<path d="M101.9 249.805V239.457H103.484V240.929C104.247 239.792 105.349 239.223 106.79 239.223C107.416 239.223 107.99 239.337 108.511 239.564C109.039 239.785 109.434 240.078 109.695 240.441C109.955 240.805 110.138 241.237 110.242 241.737C110.307 242.062 110.34 242.63 110.34 243.442V249.805H108.58V243.511C108.58 242.796 108.511 242.263 108.374 241.913C108.237 241.555 107.993 241.273 107.641 241.065C107.295 240.851 106.888 240.743 106.418 240.743C105.668 240.743 105.02 240.98 104.472 241.455C103.931 241.929 103.66 242.829 103.66 244.154V249.805H101.9Z" fill="#2D2D2D"/>
<path d="M94.5325 291.359L100.039 277.075H102.083L107.951 291.359H105.789L104.117 287.033H98.1217L96.5471 291.359H94.5325ZM98.6694 285.494H103.53L102.034 281.538C101.577 280.336 101.238 279.349 101.017 278.576C100.834 279.491 100.576 280.401 100.244 281.304L98.6694 285.494Z" fill="#9C9C9C"/>
<path d="M119.897 286.351L121.794 286.828C121.396 288.381 120.679 289.566 119.642 290.385C118.612 291.197 117.351 291.603 115.858 291.603C114.312 291.603 113.054 291.291 112.082 290.667C111.117 290.037 110.381 289.128 109.872 287.939C109.37 286.75 109.119 285.474 109.119 284.11C109.119 282.622 109.403 281.326 109.97 280.222C110.544 279.111 111.355 278.27 112.405 277.699C113.461 277.12 114.622 276.831 115.887 276.831C117.321 276.831 118.527 277.195 119.505 277.923C120.483 278.65 121.165 279.673 121.549 280.992L119.681 281.43C119.349 280.391 118.866 279.634 118.234 279.16C117.602 278.686 116.806 278.449 115.848 278.449C114.746 278.449 113.823 278.712 113.08 279.238C112.343 279.764 111.825 280.472 111.525 281.362C111.225 282.246 111.075 283.158 111.075 284.1C111.075 285.315 111.251 286.377 111.603 287.286C111.962 288.189 112.516 288.865 113.266 289.313C114.016 289.761 114.827 289.985 115.701 289.985C116.764 289.985 117.664 289.68 118.4 289.069C119.137 288.459 119.636 287.553 119.897 286.351Z" fill="#9C9C9C"/>
<path d="M124.664 291.359V277.075H126.561V291.359H124.664Z" fill="#9C9C9C"/>
<path d="M130.116 291.359V277.075H135.055C136.17 277.075 137.021 277.143 137.608 277.28C138.429 277.468 139.13 277.809 139.71 278.303C140.467 278.939 141.031 279.755 141.402 280.748C141.781 281.736 141.97 282.866 141.97 284.139C141.97 285.224 141.842 286.185 141.588 287.023C141.334 287.861 141.008 288.556 140.61 289.108C140.212 289.654 139.776 290.086 139.3 290.404C138.83 290.716 138.26 290.953 137.588 291.116C136.923 291.278 136.157 291.359 135.29 291.359H130.116ZM132.014 289.674H135.075C136.02 289.674 136.76 289.586 137.295 289.41C137.836 289.235 138.266 288.988 138.586 288.67C139.036 288.222 139.384 287.621 139.632 286.867C139.886 286.107 140.014 285.188 140.014 284.11C140.014 282.616 139.766 281.469 139.27 280.67C138.781 279.865 138.185 279.326 137.481 279.053C136.972 278.858 136.154 278.761 135.026 278.761H132.014V289.674Z" fill="#9C9C9C"/>
<path d="M153.842 291.359V278.761H149.118V277.075H160.483V278.761H155.739V291.359H153.842Z" fill="#9C9C9C"/>
<path d="M161.651 291.359V281.011H163.236V282.58C163.64 281.846 164.011 281.362 164.35 281.128C164.696 280.895 165.074 280.778 165.485 280.778C166.078 280.778 166.681 280.966 167.294 281.343L166.688 282.97C166.258 282.717 165.827 282.59 165.397 282.59C165.012 282.59 164.667 282.707 164.36 282.941C164.054 283.168 163.835 283.486 163.705 283.896C163.509 284.519 163.412 285.201 163.412 285.942V291.359H161.651Z" fill="#9C9C9C"/>
<path d="M175.319 290.083C174.667 290.635 174.037 291.025 173.431 291.252C172.831 291.479 172.186 291.593 171.495 291.593C170.354 291.593 169.477 291.317 168.864 290.765C168.251 290.206 167.944 289.495 167.944 288.631C167.944 288.124 168.059 287.663 168.287 287.247C168.521 286.825 168.825 286.487 169.196 286.234C169.574 285.981 169.998 285.789 170.468 285.659C170.813 285.568 171.335 285.481 172.032 285.396C173.454 285.227 174.5 285.026 175.172 284.792C175.178 284.552 175.182 284.399 175.182 284.334C175.182 283.619 175.015 283.116 174.683 282.824C174.233 282.428 173.565 282.229 172.678 282.229C171.85 282.229 171.237 282.376 170.839 282.668C170.448 282.954 170.158 283.464 169.969 284.198L168.248 283.964C168.404 283.23 168.662 282.639 169.02 282.19C169.379 281.736 169.897 281.388 170.575 281.148C171.253 280.901 172.039 280.778 172.932 280.778C173.819 280.778 174.539 280.882 175.094 281.089C175.648 281.297 176.055 281.56 176.316 281.879C176.577 282.19 176.759 282.587 176.864 283.067C176.922 283.366 176.952 283.905 176.952 284.685V287.023C176.952 288.654 176.988 289.687 177.059 290.122C177.138 290.55 177.288 290.963 177.509 291.359H175.671C175.488 290.995 175.371 290.57 175.319 290.083ZM175.172 286.166C174.533 286.426 173.574 286.647 172.297 286.828C171.573 286.932 171.061 287.049 170.761 287.179C170.461 287.309 170.23 287.501 170.067 287.754C169.904 288.001 169.822 288.277 169.822 288.582C169.822 289.05 169.998 289.44 170.35 289.751C170.709 290.063 171.231 290.219 171.915 290.219C172.593 290.219 173.196 290.073 173.724 289.781C174.253 289.482 174.64 289.076 174.888 288.563C175.077 288.167 175.172 287.582 175.172 286.809V286.166Z" fill="#9C9C9C"/>
<path d="M179.89 291.359V281.011H181.475V282.483C182.238 281.346 183.34 280.778 184.78 280.778C185.406 280.778 185.98 280.891 186.502 281.119C187.03 281.339 187.424 281.632 187.685 281.996C187.946 282.359 188.128 282.791 188.233 283.291C188.298 283.616 188.331 284.185 188.331 284.997V291.359H186.57V285.065C186.57 284.35 186.502 283.818 186.365 283.467C186.228 283.11 185.983 282.827 185.631 282.619C185.286 282.405 184.878 282.298 184.409 282.298C183.659 282.298 183.01 282.535 182.463 283.009C181.921 283.483 181.651 284.383 181.651 285.708V291.359H179.89Z" fill="#9C9C9C"/>
<path d="M190.536 288.27L192.277 287.998C192.374 288.693 192.645 289.225 193.088 289.596C193.538 289.966 194.164 290.151 194.966 290.151C195.775 290.151 196.374 289.989 196.766 289.664C197.157 289.333 197.352 288.946 197.352 288.504C197.352 288.108 197.18 287.796 196.834 287.569C196.593 287.413 195.993 287.215 195.035 286.975C193.744 286.65 192.847 286.37 192.345 286.137C191.85 285.896 191.471 285.568 191.211 285.152C190.956 284.73 190.829 284.266 190.829 283.759C190.829 283.298 190.934 282.872 191.142 282.483C191.357 282.086 191.647 281.758 192.013 281.499C192.286 281.297 192.658 281.128 193.127 280.992C193.603 280.849 194.112 280.778 194.653 280.778C195.468 280.778 196.182 280.895 196.795 281.128C197.414 281.362 197.871 281.681 198.164 282.083C198.458 282.479 198.66 283.012 198.771 283.681L197.049 283.915C196.971 283.382 196.743 282.967 196.365 282.668C195.993 282.369 195.465 282.22 194.78 282.22C193.972 282.22 193.395 282.353 193.049 282.619C192.704 282.885 192.531 283.197 192.531 283.555C192.531 283.782 192.603 283.987 192.746 284.168C192.889 284.357 193.114 284.513 193.421 284.636C193.597 284.701 194.115 284.85 194.976 285.084C196.221 285.416 197.088 285.688 197.577 285.903C198.073 286.111 198.461 286.416 198.741 286.819C199.022 287.221 199.162 287.722 199.162 288.319C199.162 288.904 198.989 289.456 198.643 289.976C198.304 290.489 197.812 290.888 197.167 291.174C196.521 291.453 195.791 291.593 194.976 291.593C193.626 291.593 192.596 291.314 191.885 290.755C191.181 290.196 190.731 289.368 190.536 288.27Z" fill="#9C9C9C"/>
<path d="M208.232 290.083C207.58 290.635 206.951 291.025 206.345 291.252C205.745 291.479 205.1 291.593 204.408 291.593C203.267 291.593 202.391 291.317 201.778 290.765C201.165 290.206 200.858 289.495 200.858 288.631C200.858 288.124 200.972 287.663 201.201 287.247C201.435 286.825 201.739 286.487 202.11 286.234C202.488 285.981 202.912 285.789 203.382 285.659C203.727 285.568 204.249 285.481 204.946 285.396C206.368 285.227 207.414 285.026 208.086 284.792C208.092 284.552 208.096 284.399 208.096 284.334C208.096 283.619 207.929 283.116 207.597 282.824C207.147 282.428 206.479 282.229 205.592 282.229C204.764 282.229 204.151 282.376 203.753 282.668C203.362 282.954 203.072 283.464 202.883 284.198L201.162 283.964C201.318 283.23 201.576 282.639 201.934 282.19C202.293 281.736 202.811 281.388 203.489 281.148C204.167 280.901 204.953 280.778 205.846 280.778C206.733 280.778 207.453 280.882 208.007 281.089C208.562 281.297 208.969 281.56 209.23 281.879C209.491 282.19 209.673 282.587 209.778 283.067C209.836 283.366 209.866 283.905 209.866 284.685V287.023C209.866 288.654 209.902 289.687 209.973 290.122C210.052 290.55 210.201 290.963 210.423 291.359H208.585C208.402 290.995 208.285 290.57 208.232 290.083ZM208.086 286.166C207.447 286.426 206.488 286.647 205.21 286.828C204.487 286.932 203.975 287.049 203.675 287.179C203.375 287.309 203.144 287.501 202.981 287.754C202.818 288.001 202.736 288.277 202.736 288.582C202.736 289.05 202.912 289.44 203.264 289.751C203.623 290.063 204.144 290.219 204.829 290.219C205.507 290.219 206.11 290.073 206.638 289.781C207.166 289.482 207.554 289.076 207.802 288.563C207.991 288.167 208.086 287.582 208.086 286.809V286.166Z" fill="#9C9C9C"/>
<path d="M219.582 287.569L221.313 287.793C221.124 288.982 220.638 289.914 219.856 290.589C219.08 291.259 218.125 291.593 216.99 291.593C215.569 291.593 214.425 291.132 213.557 290.209C212.697 289.281 212.266 287.952 212.266 286.224C212.266 285.107 212.452 284.129 212.824 283.291C213.196 282.454 213.76 281.827 214.516 281.411C215.279 280.989 216.107 280.778 217 280.778C218.128 280.778 219.051 281.063 219.768 281.635C220.485 282.2 220.945 283.006 221.147 284.051L219.435 284.315C219.272 283.619 218.982 283.097 218.565 282.746C218.154 282.395 217.655 282.22 217.068 282.22C216.182 282.22 215.461 282.538 214.907 283.175C214.353 283.805 214.076 284.805 214.076 286.176C214.076 287.566 214.343 288.576 214.878 289.206C215.412 289.836 216.11 290.151 216.971 290.151C217.662 290.151 218.239 289.94 218.702 289.518C219.165 289.095 219.458 288.446 219.582 287.569Z" fill="#9C9C9C"/>
<path d="M226.863 289.79L227.117 291.34C226.622 291.444 226.178 291.496 225.787 291.496C225.148 291.496 224.653 291.395 224.301 291.194C223.948 290.992 223.701 290.729 223.557 290.404C223.414 290.073 223.342 289.381 223.342 288.329V282.376H222.051V281.011H223.342V278.449L225.093 277.397V281.011H226.863V282.376H225.093V288.426C225.093 288.927 225.122 289.248 225.181 289.391C225.246 289.534 225.347 289.648 225.484 289.732C225.627 289.816 225.829 289.859 226.09 289.859C226.286 289.859 226.543 289.836 226.863 289.79Z" fill="#9C9C9C"/>
<path d="M228.804 279.092V277.075H230.564V279.092H228.804ZM228.804 291.359V281.011H230.564V291.359H228.804Z" fill="#9C9C9C"/>
<path d="M232.799 286.185C232.799 284.269 233.334 282.85 234.403 281.927C235.296 281.161 236.385 280.778 237.669 280.778C239.097 280.778 240.264 281.245 241.171 282.181C242.077 283.11 242.53 284.396 242.53 286.039C242.53 287.371 242.328 288.42 241.924 289.186C241.526 289.946 240.942 290.537 240.173 290.96C239.41 291.382 238.576 291.593 237.669 291.593C236.215 291.593 235.039 291.129 234.139 290.2C233.246 289.271 232.799 287.933 232.799 286.185ZM234.608 286.185C234.608 287.51 234.898 288.504 235.479 289.167C236.059 289.823 236.789 290.151 237.669 290.151C238.543 290.151 239.27 289.82 239.85 289.157C240.431 288.495 240.721 287.484 240.721 286.127C240.721 284.847 240.427 283.879 239.841 283.223C239.26 282.561 238.537 282.229 237.669 282.229C236.789 282.229 236.059 282.557 235.479 283.214C234.898 283.87 234.608 284.86 234.608 286.185Z" fill="#9C9C9C"/>
<path d="M244.804 291.359V281.011H246.388V282.483C247.151 281.346 248.253 280.778 249.694 280.778C250.32 280.778 250.893 280.891 251.415 281.119C251.943 281.339 252.337 281.632 252.598 281.996C252.859 282.359 253.042 282.791 253.146 283.291C253.211 283.616 253.244 284.185 253.244 284.997V291.359H251.483V285.065C251.483 284.35 251.415 283.818 251.278 283.467C251.141 283.11 250.897 282.827 250.545 282.619C250.199 282.405 249.791 282.298 249.322 282.298C248.572 282.298 247.923 282.535 247.376 283.009C246.835 283.483 246.564 284.383 246.564 285.708V291.359H244.804Z" fill="#9C9C9C"/>
<path d="M255.449 288.27L257.19 287.998C257.288 288.693 257.558 289.225 258.002 289.596C258.451 289.966 259.077 290.151 259.879 290.151C260.688 290.151 261.288 289.989 261.679 289.664C262.07 289.333 262.266 288.946 262.266 288.504C262.266 288.108 262.093 287.796 261.747 287.569C261.506 287.413 260.906 287.215 259.948 286.975C258.657 286.65 257.76 286.37 257.258 286.137C256.763 285.896 256.385 285.568 256.124 285.152C255.869 284.73 255.742 284.266 255.742 283.759C255.742 283.298 255.847 282.872 256.055 282.483C256.27 282.086 256.561 281.758 256.926 281.499C257.2 281.297 257.571 281.128 258.041 280.992C258.517 280.849 259.025 280.778 259.566 280.778C260.381 280.778 261.095 280.895 261.708 281.128C262.328 281.362 262.784 281.681 263.077 282.083C263.371 282.479 263.573 283.012 263.684 283.681L261.962 283.915C261.884 283.382 261.656 282.967 261.278 282.668C260.906 282.369 260.378 282.22 259.693 282.22C258.885 282.22 258.308 282.353 257.962 282.619C257.617 282.885 257.444 283.197 257.444 283.555C257.444 283.782 257.516 283.987 257.659 284.168C257.803 284.357 258.028 284.513 258.334 284.636C258.51 284.701 259.028 284.85 259.889 285.084C261.134 285.416 262.002 285.688 262.491 285.903C262.986 286.111 263.374 286.416 263.654 286.819C263.935 287.221 264.075 287.722 264.075 288.319C264.075 288.904 263.902 289.456 263.557 289.976C263.218 290.489 262.725 290.888 262.08 291.174C261.434 291.453 260.704 291.593 259.889 291.593C258.539 291.593 257.509 291.314 256.799 290.755C256.094 290.196 255.645 289.368 255.449 288.27Z" fill="#9C9C9C"/>
</svg>
