<svg width="14" height="13" viewBox="0 0 14 13" fill="none" xmlns="http://www.w3.org/2000/svg">
<path fill-rule="evenodd" clip-rule="evenodd" d="M0 6.29988C0 5.85805 0.358172 5.49988 0.8 5.49988H12.8C13.2418 5.49988 13.6 5.85805 13.6 6.29988C13.6 6.74171 13.2418 7.09988 12.8 7.09988H0.8C0.358172 7.09988 0 6.74171 0 6.29988Z" fill="black"/>
<path fill-rule="evenodd" clip-rule="evenodd" d="M6.21022 0.259425C6.50877 -0.0662702 7.01483 -0.0882725 7.34052 0.210281L13.3405 5.71028C13.5058 5.86181 13.5999 6.07576 13.5999 6.3C13.5999 6.52425 13.5058 6.7382 13.3405 6.88973L7.34052 12.3897C7.01483 12.6883 6.50877 12.6663 6.21022 12.3406C5.91167 12.0149 5.93367 11.5088 6.25936 11.2103L11.616 6.3L6.25936 1.38973C5.93367 1.09117 5.91167 0.58512 6.21022 0.259425Z" fill="black"/>
</svg>
