<svg width="16" height="16" viewBox="0 0 16 16" fill="none" xmlns="http://www.w3.org/2000/svg">
<path d="M15.1875 1.59375H11.9062V0.34375C11.9062 0.257812 11.8359 0.1875 11.75 0.1875H10.6562C10.5703 0.1875 10.5 0.257812 10.5 0.34375V1.59375H5.5V0.34375C5.5 0.257812 5.42969 0.1875 5.34375 0.1875H4.25C4.16406 0.1875 4.09375 0.257812 4.09375 0.34375V1.59375H0.8125C0.466797 1.59375 0.1875 1.87305 0.1875 2.21875V15.1875C0.1875 15.5332 0.466797 15.8125 0.8125 15.8125H15.1875C15.5332 15.8125 15.8125 15.5332 15.8125 15.1875V2.21875C15.8125 1.87305 15.5332 1.59375 15.1875 1.59375ZM14.4062 14.4062H1.59375V6.98438H14.4062V14.4062ZM1.59375 5.65625V3H4.09375V3.9375C4.09375 4.02344 4.16406 4.09375 4.25 4.09375H5.34375C5.42969 4.09375 5.5 4.02344 5.5 3.9375V3H10.5V3.9375C10.5 4.02344 10.5703 4.09375 10.6562 4.09375H11.75C11.8359 4.09375 11.9062 4.02344 11.9062 3.9375V3H14.4062V5.65625H1.59375Z" fill="#0070CC"/>
</svg>
