<svg width="16" height="16" viewBox="0 0 16 16" fill="none" xmlns="http://www.w3.org/2000/svg">
<path d="M5.33374 6.66508C5.33374 6.48827 5.40398 6.3187 5.529 6.19368C5.65402 6.06865 5.82358 5.99841 6.00039 5.99841H10.0003C10.1771 5.99841 10.3466 6.06865 10.4717 6.19368C10.5967 6.3187 10.6669 6.48827 10.6669 6.66508C10.6669 6.84189 10.5967 7.01146 10.4717 7.13648C10.3466 7.26151 10.1771 7.33175 10.0003 7.33175H6.00039C5.82358 7.33175 5.65402 7.26151 5.529 7.13648C5.40398 7.01146 5.33374 6.84189 5.33374 6.66508Z" fill="#0070CC"/>
<path d="M6.00039 8.66504C5.82358 8.66504 5.65402 8.73528 5.529 8.8603C5.40398 8.98532 5.33374 9.15489 5.33374 9.33171C5.33374 9.50852 5.40398 9.67809 5.529 9.80311C5.65402 9.92813 5.82358 9.99837 6.00039 9.99837H8.66698C8.84378 9.99837 9.01335 9.92813 9.13837 9.80311C9.26339 9.67809 9.33362 9.50852 9.33362 9.33171C9.33362 9.15489 9.26339 8.98532 9.13837 8.8603C9.01335 8.73528 8.84378 8.66504 8.66698 8.66504H6.00039Z" fill="#0070CC"/>
<path d="M0.000460341 7.99845C0.00080054 6.23718 0.582344 4.52525 1.65488 3.12823C2.72741 1.7312 4.23098 0.727174 5.93234 0.271898C7.6337 -0.183378 9.43775 -0.0644547 11.0646 0.61022C12.6915 1.2849 14.0503 2.47761 14.9301 4.00334C15.81 5.52906 16.1618 7.30252 15.931 9.0486C15.7001 10.7947 14.8995 12.4158 13.6534 13.6604C12.4072 14.905 10.7852 15.7036 9.03887 15.9323C7.29256 16.1609 5.51959 15.8069 3.99501 14.9251L0.877768 15.9651C0.762601 16.0036 0.63912 16.0098 0.520651 15.9832C0.402182 15.9566 0.293224 15.8982 0.205537 15.8142C0.117851 15.7302 0.0547647 15.6239 0.0230878 15.5067C-0.00858905 15.3895 -0.00765368 15.2658 0.025793 15.1491L0.975098 11.8278C0.333806 10.6534 -0.00138381 9.33649 0.000460341 7.99845ZM8.00022 1.33179C6.82317 1.33172 5.66707 1.6433 4.64946 2.23486C3.63185 2.82643 2.789 3.67689 2.2066 4.69979C1.62419 5.72269 1.32299 6.88156 1.33361 8.0586C1.34423 9.23564 1.66629 10.3889 2.26706 11.4011C2.31328 11.4793 2.34304 11.5661 2.3545 11.6562C2.36597 11.7463 2.3589 11.8378 2.33372 11.9251L1.65508 14.2984L3.86568 13.5624C3.95956 13.5311 4.05924 13.5211 4.15749 13.5331C4.25573 13.5451 4.35007 13.5788 4.43366 13.6318C5.30733 14.1847 6.29763 14.5268 7.32628 14.6311C8.35494 14.7354 9.39375 14.599 10.3606 14.2327C11.3275 13.8663 12.1959 13.2801 12.8972 12.5204C13.5985 11.7606 14.1134 10.8482 14.4014 9.85512C14.6893 8.86207 14.7424 7.81565 14.5563 6.79858C14.3702 5.78151 13.9501 4.82167 13.3292 3.99491C12.7083 3.16816 11.9036 2.49717 10.9787 2.03497C10.0538 1.57277 9.03415 1.33203 8.00022 1.33179Z" fill="#0070CC"/>
</svg>
