<svg width="18" height="20" viewBox="0 0 18 20" fill="none" xmlns="http://www.w3.org/2000/svg">
<path d="M9.447 2.1069C9.3082 2.03754 9.15516 2.00143 9 2.00143C8.84484 2.00143 8.6918 2.03754 8.553 2.1069L3.236 4.7649L9 7.6469L14.764 4.7649L9.447 2.1069ZM16 6.3829L10 9.3829V17.1469L15.447 14.4229C15.6131 14.3399 15.7528 14.2123 15.8504 14.0544C15.9481 13.8965 15.9999 13.7146 16 13.5289V6.3829ZM8 17.1469V9.3829L2 6.3829V13.5289C2.0001 13.7146 2.05188 13.8965 2.14955 14.0544C2.24722 14.2123 2.38692 14.3399 2.553 14.4229L8 17.1469ZM7.658 0.316898C8.07466 0.108498 8.53413 0 9 0C9.46587 0 9.92534 0.108498 10.342 0.316898L17.447 3.8709C17.6131 3.95389 17.7528 4.08148 17.8504 4.23937C17.9481 4.39727 17.9999 4.57924 18 4.7649V13.5289C18 14.0859 17.8449 14.632 17.552 15.1059C17.2592 15.5797 16.8402 15.9627 16.342 16.2119L9.447 19.6589C9.3082 19.7283 9.15516 19.7644 9 19.7644C8.84484 19.7644 8.6918 19.7283 8.553 19.6589L1.658 16.2119C1.15979 15.9627 0.740804 15.5797 0.447969 15.1059C0.155134 14.632 1.8928e-05 14.0859 0 13.5289V4.7649C9.91486e-05 4.57924 0.0518831 4.39727 0.149552 4.23937C0.247222 4.08148 0.386919 3.95389 0.553 3.8709L7.658 0.317898V0.316898Z" fill="#0070CC"/>
</svg>
