<svg width="48" height="48" fill="none" xmlns="http://www.w3.org/2000/svg"><path d="M4.34 11.265h8.291c.169 0 .336.021.5.063l10.123 2.608a2 2 0 0 0 .5.063H43.66a2 2 0 0 1 2 2v24.95c0 1.105-.892 2-1.997 2H29.707c-2.24 0-2.772.711-3.264 1.543-.318.537-.897.835-1.521.835H23.36c-.857 0-1.537-.602-2.057-1.283-.424-.554-1.045-.897-2.134-1.073a1.79 1.79 0 0 0-.283-.021H4.34a2 2 0 0 1-2-2V13.265a2 2 0 0 1 2-2Z" fill="#fff" stroke="#000" stroke-width="1.7"/><path d="M13.958 7.121c4.212 0 6.996 2.55 8.897 4.652.516.57 1.497.406 1.877-.264 1-1.764 3.08-4.388 6.618-4.388h8.196c1.105 0 1.998.896 1.998 2v27.337c0 1.302-1.23 2.282-2.517 2.079a42.682 42.682 0 0 0-6.556-.527c-4.671 0-5.733.868-5.866.998a.33.33 0 0 0-.03.035l-.633.81c-.813 1.043-2.404 1.011-3.192-.05-.373-.504-.896-.883-1.505-1.03a27.872 27.872 0 0 0-6.43-.763c-2.096 0-4.133.252-5.649.505-1.287.215-2.523-.76-2.523-2.066V9.519c0-1.248 1.148-2.372 2.396-2.374 1.9-.004 4.327-.024 4.92-.024Z" fill="#fff" stroke="#000" stroke-width="1.7"/><path d="M12.16 32.769c8.625.4 11.751 3.412 12.23 6.302V11.419c0-6.107-6.999-7.725-11.98-8.447-1.194-.173-2.253.769-2.253 1.975v25.777c0 1.104.9 1.993 2.003 2.045Z" fill="#fff"/><path d="m12.16 32.769-.04.849.04-.85Zm.25-29.797.122-.841-.122.841Zm11.13 36.804a.85.85 0 1 0 1.7 0h-1.7Zm1.689-.844c-.583-3.516-4.296-6.607-13.03-7.013l-.079 1.699c8.517.395 11.056 3.327 11.432 5.592l1.677-.278Zm-14.222-8.208V4.947h-1.7v25.777h1.7Zm1.28-26.91c2.481.36 5.35.93 7.583 2.113 2.196 1.165 3.67 2.853 3.67 5.492h1.7c0-3.468-2.025-5.642-4.574-6.994-2.512-1.332-5.634-1.931-8.134-2.294l-.244 1.682Zm11.253 7.605v27.652h1.7V11.419h-1.7Zm0 27.652v.706h1.7v-.706h-1.7ZM11.007 4.947c0-.703.615-1.23 1.28-1.134l.245-1.682c-1.722-.25-3.225 1.107-3.225 2.816h1.7ZM12.2 31.92c-.678-.032-1.192-.573-1.192-1.196h-1.7c0 1.586 1.284 2.823 2.813 2.894l.079-1.699Z" fill="#000"/><path d="M27.638 16.693s1.466-1.867 3.467-2.385c2.002-.518 7.518 0 7.518 0m-10.985 7.209s1.466-1.866 3.467-2.385c2.002-.518 7.518 0 7.518 0M27.638 26.34s1.466-1.866 3.467-2.384c2.002-.518 7.518 0 7.518 0" stroke="#ED1C24" stroke-width="1.7" stroke-linecap="round" stroke-linejoin="round"/></svg>