<svg width="48" height="48" fill="none" xmlns="http://www.w3.org/2000/svg"><rect x="5.85" y="5.85" width="31.3" height="38.3" rx="2.15" fill="#fff" stroke="#000" stroke-width="1.7" stroke-linecap="round"/><path d="M19.593 14.04s-4.87 2.97-.28 5.918c.883.575 4.085 2.172 3.994 3.65 0 0 1.942-2.872-.897-4.68-2.915-1.849-3.644-3.824-2.817-4.889Z" fill="#ED1C24"/><path d="M17.897 19.713s-1.738 2.634 1.682 3.173c.336.042 2.81.301 3.455 1.114 0 0-.056-1.401-2.075-2.228-2.01-.826-2.838-1.03-3.062-2.06Zm6.728-2.767c-2.089-2.186-2.67-3.538-1.773-5.289 0 0-6.23 2.396-.077 6.648 2.2 1.52 1.836 3.075 1.836 3.131.343-.357 2.102-2.304.014-4.49Z" fill="#ED1C24"/><path d="M11.171 28.114h20.572m-20.572 4.114h20.572m-20.572 4.115h20.572" stroke="#000" stroke-width="1.7" stroke-linecap="round"/><rect x="9.85" y="2.85" width="31.3" height="38.3" rx="2.15" fill="#fff" stroke="#000" stroke-width="1.7" stroke-linecap="round"/><path d="M15.257 29.143h20.571m-20.571 4.114h20.571" stroke="#000" stroke-width="1.7" stroke-linecap="round"/><path d="M18.579 21.423c-.165.262-.35.567-.508.81a.489.489 0 0 0 .17.674l3.302 1.982a.519.519 0 0 0 .703-.169c.132-.215.302-.495.488-.795 1.307-2.106 2.623-1.848 4.995-.743l3.273 1.519a.52.52 0 0 0 .396.017.503.503 0 0 0 .288-.265l1.572-3.469a.49.49 0 0 0-.255-.649 398.86 398.86 0 0 1-3.3-1.531c-4.45-2.109-8.232-1.972-11.124 2.619Z" fill="#2684FF"/><path d="M33.382 13.55c.165-.262.35-.567.508-.81a.489.489 0 0 0-.17-.673l-3.301-1.982a.519.519 0 0 0-.724.163c-.132.216-.303.496-.488.795-1.308 2.106-2.623 1.849-4.995.744l-3.264-1.512a.52.52 0 0 0-.395-.017.503.503 0 0 0-.288.265l-1.572 3.469a.49.49 0 0 0 .254.649c.691.317 2.065.949 3.302 1.531 4.46 2.106 8.24 1.965 11.133-2.621Z" fill="#2684FF"/></svg>