<svg width="48" height="48" fill="none" xmlns="http://www.w3.org/2000/svg"><rect x="5.85" y="5.85" width="31.3" height="38.3" rx="2.15" fill="#fff" stroke="#000" stroke-width="1.7" stroke-linecap="round"/><path d="M19.593 14.04s-4.87 2.97-.28 5.918c.883.575 4.085 2.172 3.994 3.65 0 0 1.942-2.872-.897-4.68-2.915-1.849-3.644-3.824-2.817-4.889Z" fill="#ED1C24"/><path d="M17.897 19.713s-1.738 2.634 1.682 3.173c.336.042 2.81.301 3.455 1.114 0 0-.056-1.401-2.075-2.228-2.01-.826-2.838-1.03-3.062-2.06Zm6.728-2.767c-2.089-2.186-2.67-3.538-1.773-5.289 0 0-6.23 2.396-.077 6.648 2.2 1.52 1.836 3.075 1.836 3.131.343-.357 2.102-2.304.014-4.49Z" fill="#ED1C24"/><path d="M11.171 28.114h20.572m-20.572 4.114h20.572m-20.572 4.115h20.572" stroke="#000" stroke-width="1.7" stroke-linecap="round"/><rect x="9.85" y="2.85" width="31.3" height="38.3" rx="2.15" fill="#fff" stroke="#000" stroke-width="1.7" stroke-linecap="round"/><path d="M22.642 11.126s-6.8 4.147-.391 8.265c1.232.802 5.704 3.032 5.577 5.096 0 0 2.71-4.01-1.252-6.534-4.071-2.582-5.089-5.34-3.934-6.827Z" fill="#ED1C24"/><path d="M20.274 19.048s-2.427 3.678 2.348 4.431c.47.059 3.924.42 4.825 1.556 0 0-.079-1.957-2.897-3.11-2.808-1.155-3.963-1.439-4.276-2.877Zm9.394-3.863c-2.916-3.052-3.728-4.94-2.476-7.385 0 0-8.699 3.345-.108 9.282 3.073 2.123 2.564 4.294 2.564 4.373.48-.5 2.936-3.218.02-6.27Z" fill="#ED1C24"/><path d="M15.257 29.143H35.83m-20.573 4.114H35.83" stroke="#000" stroke-width="1.7" stroke-linecap="round"/></svg>