<svg width="18" height="18" fill="none" xmlns="http://www.w3.org/2000/svg"><path d="M18 9A9 9 0 1 1 0 9a9 9 0 0 1 18 0ZM6.183 6.787h.928c.155 0 .28-.127.3-.281.1-.738.607-1.276 1.51-1.276.77 0 1.477.386 1.477 1.314 0 .715-.42 1.043-1.085 1.542-.757.55-1.357 1.193-1.314 2.236l.003.244a.281.281 0 0 0 .281.277h.913a.281.281 0 0 0 .281-.281v-.119c0-.807.307-1.043 1.136-1.671.685-.521 1.4-1.1 1.4-2.313 0-1.7-1.436-2.521-3.007-2.521-1.426 0-2.987.663-3.094 2.571a.267.267 0 0 0 .271.278Zm2.616 7.249c.686 0 1.157-.444 1.157-1.043 0-.621-.472-1.058-1.157-1.058-.657 0-1.135.437-1.135 1.058 0 .6.478 1.043 1.136 1.043h-.001Z" fill="#0070CC"/></svg>