<svg width="656" height="645" viewBox="0 0 656 645" fill="none" xmlns="http://www.w3.org/2000/svg">
<path d="M702.085 247.151L655.688 273.938L562.893 327.513L562.893 541.814L655.688 488.239L702.085 461.451L702.085 247.151Z" fill="#0070CC" stroke="white"/>
<rect width="214.541" height="214.541" transform="matrix(-0.866025 -0.5 -2.20305e-08 1 562.798 327.459)" fill="#0070CC" stroke="white"/>
<path d="M516.495 140L470.098 166.788L377.303 220.363L562.893 327.513L655.688 273.938L702.085 247.15L516.495 140Z" fill="#0070CC" stroke="white"/>
<path fill-rule="evenodd" clip-rule="evenodd" d="M684.075 284.082C684.553 283.805 684.941 284.029 684.941 284.582V316.87C684.941 317.422 684.553 318.094 684.075 318.37L677.517 322.156L663.536 330.228C663.058 330.504 662.67 330.28 662.67 329.728L662.67 297.44C662.67 296.887 663.058 296.216 663.536 295.94L677.517 287.868L684.075 284.082ZM684.075 367.659C684.553 367.383 684.941 367.607 684.941 368.159L684.941 383.303C684.941 383.855 684.553 384.527 684.075 384.803L581.877 443.807C581.398 444.083 581.011 443.859 581.011 443.307V428.163C581.011 427.611 581.398 426.939 581.877 426.663L684.075 367.659ZM684.075 397.661C684.553 397.385 684.941 397.609 684.941 398.161L684.941 413.305C684.941 413.857 684.553 414.529 684.075 414.805L581.877 473.809C581.398 474.085 581.011 473.861 581.011 473.309V458.165C581.011 457.613 581.398 456.941 581.877 456.665L684.075 397.661ZM684.941 428.163C684.941 427.611 684.553 427.387 684.075 427.663L581.877 486.667C581.398 486.943 581.011 487.615 581.011 488.167V503.311C581.011 503.864 581.398 504.087 581.877 503.811L684.075 444.807C684.553 444.531 684.941 443.859 684.941 443.307L684.941 428.163Z" fill="#0070CC"/>
<path d="M684.075 284.082L684.325 284.515L684.075 284.082ZM684.075 318.37L683.825 317.937H683.825L684.075 318.37ZM677.517 322.156L677.767 322.589L677.517 322.156ZM663.536 330.228L663.286 329.795L663.536 330.228ZM662.67 329.728H663.17H662.67ZM662.67 297.44H662.17H662.67ZM663.536 295.94L663.786 296.373L663.536 295.94ZM677.517 287.868L677.767 288.301L677.517 287.868ZM684.941 368.159H684.441H684.941ZM684.075 367.659L683.825 367.226H683.825L684.075 367.659ZM684.941 383.303H685.441H684.941ZM684.075 384.803L684.325 385.236H684.325L684.075 384.803ZM581.877 443.807L582.127 444.24L581.877 443.807ZM581.877 426.663L582.127 427.096L581.877 426.663ZM684.941 398.161H684.441H684.941ZM684.075 397.661L683.825 397.228H683.825L684.075 397.661ZM684.941 413.305H685.441H684.941ZM684.075 414.805L684.325 415.238H684.325L684.075 414.805ZM581.877 473.809L582.127 474.242L581.877 473.809ZM581.877 456.665L581.627 456.232H581.627L581.877 456.665ZM684.075 427.663L683.825 427.23H683.825L684.075 427.663ZM684.941 428.163H684.441H684.941ZM581.877 486.667L581.627 486.234H581.627L581.877 486.667ZM581.877 503.811L582.127 504.244L581.877 503.811ZM684.075 444.807L684.325 445.24H684.325L684.075 444.807ZM684.941 443.307H685.441H684.941ZM684.441 284.582C684.441 284.5 684.427 284.457 684.42 284.442C684.414 284.43 684.416 284.442 684.437 284.454C684.458 284.466 684.47 284.462 684.456 284.464C684.44 284.465 684.396 284.474 684.325 284.515L683.825 283.649C684.155 283.458 684.572 283.377 684.937 283.588C685.303 283.799 685.441 284.2 685.441 284.582H684.441ZM684.441 316.87V284.582H685.441V316.87H684.441ZM683.825 317.937C683.97 317.853 684.13 317.689 684.254 317.473C684.379 317.258 684.441 317.037 684.441 316.87H685.441C685.441 317.254 685.309 317.646 685.12 317.973C684.931 318.301 684.658 318.61 684.325 318.803L683.825 317.937ZM677.267 321.723L683.825 317.937L684.325 318.803L677.767 322.589L677.267 321.723ZM663.286 329.795L677.267 321.723L677.767 322.589L663.786 330.661L663.286 329.795ZM663.17 329.728C663.17 329.809 663.185 329.852 663.192 329.867C663.198 329.879 663.195 329.867 663.174 329.855C663.153 329.843 663.141 329.847 663.155 329.846C663.172 329.844 663.216 329.835 663.286 329.795L663.786 330.661C663.456 330.851 663.04 330.933 662.674 330.721C662.308 330.51 662.17 330.109 662.17 329.728H663.17ZM663.17 297.44L663.17 329.728H662.17L662.17 297.44H663.17ZM663.786 296.373C663.641 296.456 663.481 296.62 663.357 296.836C663.232 297.052 663.17 297.272 663.17 297.44H662.17C662.17 297.055 662.302 296.663 662.491 296.336C662.68 296.009 662.953 295.699 663.286 295.507L663.786 296.373ZM677.767 288.301L663.786 296.373L663.286 295.507L677.267 287.435L677.767 288.301ZM684.325 284.515L677.767 288.301L677.267 287.435L683.825 283.649L684.325 284.515ZM684.441 368.159C684.441 368.077 684.427 368.035 684.42 368.019C684.414 368.007 684.416 368.019 684.437 368.031C684.458 368.043 684.47 368.04 684.456 368.041C684.44 368.042 684.396 368.051 684.325 368.092L683.825 367.226C684.155 367.035 684.571 366.954 684.937 367.165C685.303 367.376 685.441 367.777 685.441 368.159H684.441ZM684.441 383.303L684.441 368.159H685.441L685.441 383.303H684.441ZM683.825 384.37C683.97 384.286 684.13 384.122 684.254 383.906C684.379 383.691 684.441 383.471 684.441 383.303H685.441C685.441 383.687 685.309 384.079 685.12 384.406C684.931 384.734 684.658 385.044 684.325 385.236L683.825 384.37ZM581.627 443.374L683.825 384.37L684.325 385.236L582.127 444.24L581.627 443.374ZM581.511 443.307C581.511 443.389 581.525 443.431 581.532 443.446C581.538 443.459 581.535 443.447 581.514 443.435C581.493 443.423 581.482 443.426 581.495 443.425C581.512 443.424 581.556 443.415 581.627 443.374L582.127 444.24C581.796 444.431 581.38 444.512 581.014 444.301C580.648 444.09 580.511 443.688 580.511 443.307H581.511ZM581.511 428.163V443.307H580.511V428.163H581.511ZM582.127 427.096C581.981 427.18 581.822 427.344 581.697 427.559C581.573 427.775 581.511 427.995 581.511 428.163H580.511C580.511 427.778 580.642 427.387 580.831 427.059C581.02 426.732 581.294 426.422 581.627 426.23L582.127 427.096ZM684.325 368.092L582.127 427.096L581.627 426.23L683.825 367.226L684.325 368.092ZM684.441 398.161C684.441 398.079 684.427 398.037 684.42 398.022C684.414 398.009 684.416 398.021 684.437 398.033C684.458 398.045 684.47 398.042 684.456 398.043C684.44 398.044 684.396 398.053 684.325 398.094L683.825 397.228C684.155 397.037 684.571 396.956 684.937 397.167C685.303 397.378 685.441 397.779 685.441 398.161H684.441ZM684.441 413.305L684.441 398.161H685.441L685.441 413.305H684.441ZM683.825 414.372C683.97 414.288 684.13 414.124 684.254 413.908C684.379 413.693 684.441 413.473 684.441 413.305H685.441C685.441 413.689 685.309 414.081 685.12 414.408C684.931 414.736 684.658 415.046 684.325 415.238L683.825 414.372ZM581.627 473.376L683.825 414.372L684.325 415.238L582.127 474.242L581.627 473.376ZM581.511 473.309C581.511 473.391 581.525 473.433 581.532 473.448C581.538 473.461 581.535 473.449 581.514 473.437C581.493 473.425 581.482 473.428 581.495 473.427C581.512 473.426 581.556 473.417 581.627 473.376L582.127 474.242C581.796 474.433 581.38 474.514 581.014 474.303C580.648 474.092 580.511 473.69 580.511 473.309H581.511ZM581.511 458.165V473.309H580.511V458.165H581.511ZM582.127 457.098C581.981 457.182 581.822 457.346 581.697 457.562C581.573 457.777 581.511 457.997 581.511 458.165H580.511C580.511 457.781 580.642 457.389 580.831 457.062C581.02 456.734 581.294 456.424 581.627 456.232L582.127 457.098ZM684.325 398.094L582.127 457.098L581.627 456.232L683.825 397.228L684.325 398.094ZM683.825 427.23C684.155 427.039 684.571 426.958 684.937 427.169C685.303 427.381 685.441 427.782 685.441 428.163H684.441C684.441 428.082 684.427 428.039 684.42 428.024C684.414 428.011 684.416 428.023 684.437 428.035C684.458 428.047 684.47 428.044 684.456 428.045C684.44 428.046 684.396 428.055 684.325 428.096L683.825 427.23ZM581.627 486.234L683.825 427.23L684.325 428.096L582.127 487.1L581.627 486.234ZM580.511 488.167C580.511 487.783 580.642 487.391 580.831 487.064C581.02 486.736 581.294 486.427 581.627 486.234L582.127 487.1C581.981 487.184 581.822 487.348 581.697 487.564C581.573 487.779 581.511 488 581.511 488.167H580.511ZM580.511 503.311V488.167H581.511V503.311H580.511ZM582.127 504.244C581.796 504.435 581.38 504.516 581.014 504.305C580.648 504.094 580.511 503.693 580.511 503.311H581.511C581.511 503.393 581.525 503.436 581.532 503.451C581.538 503.463 581.535 503.451 581.514 503.439C581.493 503.427 581.482 503.431 581.495 503.429C581.512 503.428 581.556 503.419 581.627 503.378L582.127 504.244ZM684.325 445.24L582.127 504.244L581.627 503.378L683.825 444.374L684.325 445.24ZM685.441 443.307C685.441 443.692 685.309 444.083 685.12 444.411C684.931 444.738 684.658 445.048 684.325 445.24L683.825 444.374C683.97 444.29 684.13 444.126 684.254 443.911C684.379 443.695 684.441 443.475 684.441 443.307H685.441ZM685.441 428.163L685.441 443.307H684.441L684.441 428.163H685.441Z" fill="white"/>
<path d="M524.085 361.15L477.688 387.938L384.893 441.513L384.893 655.814L477.688 602.239L524.085 575.451L524.085 361.15Z" fill="#0070CC" stroke="white"/>
<rect width="214.541" height="214.541" transform="matrix(-0.866025 -0.5 -2.20305e-08 1 384.798 441.458)" fill="#0070CC" stroke="white"/>
<path d="M338.495 254L292.098 280.787L199.303 334.363L384.893 441.513L477.688 387.938L524.085 361.15L338.495 254Z" fill="#0070CC" stroke="white"/>
<path fill-rule="evenodd" clip-rule="evenodd" d="M506.075 398.081C506.553 397.805 506.941 398.029 506.941 398.581V430.87C506.941 431.422 506.553 432.093 506.075 432.37L499.517 436.156L485.536 444.228C485.058 444.504 484.67 444.28 484.67 443.728L484.67 411.439C484.67 410.887 485.058 410.216 485.536 409.939L499.517 401.867L506.075 398.081ZM506.075 481.659C506.553 481.383 506.941 481.606 506.941 482.159L506.941 497.303C506.941 497.855 506.553 498.527 506.075 498.803L403.877 557.807C403.398 558.083 403.011 557.859 403.011 557.307V542.163C403.011 541.611 403.398 540.939 403.877 540.663L506.075 481.659ZM506.075 511.661C506.553 511.385 506.941 511.608 506.941 512.161L506.941 527.305C506.941 527.857 506.553 528.529 506.075 528.805L403.877 587.809C403.398 588.085 403.011 587.861 403.011 587.309V572.165C403.011 571.613 403.398 570.941 403.877 570.665L506.075 511.661ZM506.941 542.163C506.941 541.611 506.553 541.387 506.075 541.663L403.877 600.667C403.398 600.943 403.011 601.615 403.011 602.167V617.311C403.011 617.863 403.398 618.087 403.877 617.811L506.075 558.807C506.553 558.531 506.941 557.859 506.941 557.307L506.941 542.163Z" fill="#0070CC"/>
<path d="M506.075 398.081L506.325 398.514L506.075 398.081ZM506.075 432.37L505.825 431.937H505.825L506.075 432.37ZM499.517 436.156L499.767 436.589L499.517 436.156ZM485.536 444.228L485.286 443.795L485.536 444.228ZM484.67 443.728H485.17H484.67ZM484.67 411.439H484.17H484.67ZM485.536 409.939L485.786 410.372L485.536 409.939ZM499.517 401.867L499.767 402.3L499.517 401.867ZM506.941 482.159H506.441H506.941ZM506.075 481.659L505.825 481.226H505.825L506.075 481.659ZM506.941 497.303H507.441H506.941ZM506.075 498.803L506.325 499.236H506.325L506.075 498.803ZM403.877 557.807L404.127 558.24L403.877 557.807ZM403.877 540.663L404.127 541.096L403.877 540.663ZM506.941 512.161H506.441H506.941ZM506.075 511.661L505.825 511.228H505.825L506.075 511.661ZM506.941 527.305H507.441H506.941ZM506.075 528.805L506.325 529.238H506.325L506.075 528.805ZM403.877 587.809L404.127 588.242L403.877 587.809ZM403.877 570.665L403.627 570.232H403.627L403.877 570.665ZM506.075 541.663L505.825 541.23H505.825L506.075 541.663ZM506.941 542.163H506.441H506.941ZM403.877 600.667L403.627 600.234H403.627L403.877 600.667ZM403.877 617.811L404.127 618.244L403.877 617.811ZM506.075 558.807L506.325 559.24H506.325L506.075 558.807ZM506.941 557.307H507.441H506.941ZM506.441 398.581C506.441 398.5 506.427 398.457 506.42 398.442C506.414 398.43 506.416 398.442 506.437 398.454C506.458 398.466 506.47 398.462 506.456 398.463C506.44 398.465 506.396 398.474 506.325 398.514L505.825 397.648C506.155 397.458 506.572 397.376 506.937 397.588C507.303 397.799 507.441 398.2 507.441 398.581H506.441ZM506.441 430.87V398.581H507.441V430.87H506.441ZM505.825 431.937C505.97 431.853 506.13 431.689 506.254 431.473C506.379 431.258 506.441 431.037 506.441 430.87H507.441C507.441 431.254 507.309 431.646 507.12 431.973C506.931 432.3 506.658 432.61 506.325 432.803L505.825 431.937ZM499.267 435.723L505.825 431.937L506.325 432.803L499.767 436.589L499.267 435.723ZM485.286 443.795L499.267 435.723L499.767 436.589L485.786 444.661L485.286 443.795ZM485.17 443.728C485.17 443.809 485.185 443.852 485.192 443.867C485.198 443.879 485.195 443.867 485.174 443.855C485.153 443.843 485.141 443.847 485.155 443.846C485.172 443.844 485.216 443.835 485.286 443.795L485.786 444.661C485.456 444.851 485.04 444.933 484.674 444.721C484.308 444.51 484.17 444.109 484.17 443.728H485.17ZM485.17 411.439L485.17 443.728H484.17L484.17 411.439H485.17ZM485.786 410.372C485.641 410.456 485.481 410.62 485.357 410.836C485.232 411.051 485.17 411.272 485.17 411.439H484.17C484.17 411.055 484.302 410.663 484.491 410.336C484.68 410.009 484.953 409.699 485.286 409.506L485.786 410.372ZM499.767 402.3L485.786 410.372L485.286 409.506L499.267 401.434L499.767 402.3ZM506.325 398.514L499.767 402.3L499.267 401.434L505.825 397.648L506.325 398.514ZM506.441 482.159C506.441 482.077 506.427 482.034 506.42 482.019C506.414 482.007 506.416 482.019 506.437 482.031C506.458 482.043 506.47 482.039 506.456 482.041C506.44 482.042 506.396 482.051 506.325 482.092L505.825 481.226C506.155 481.035 506.571 480.954 506.937 481.165C507.303 481.376 507.441 481.777 507.441 482.159H506.441ZM506.441 497.303L506.441 482.159H507.441L507.441 497.303H506.441ZM505.825 498.37C505.97 498.286 506.13 498.122 506.254 497.906C506.379 497.691 506.441 497.47 506.441 497.303H507.441C507.441 497.687 507.309 498.079 507.12 498.406C506.931 498.734 506.658 499.043 506.325 499.236L505.825 498.37ZM403.627 557.374L505.825 498.37L506.325 499.236L404.127 558.24L403.627 557.374ZM403.511 557.307C403.511 557.388 403.525 557.431 403.532 557.446C403.538 557.459 403.535 557.447 403.514 557.435C403.493 557.423 403.482 557.426 403.495 557.425C403.512 557.424 403.556 557.415 403.627 557.374L404.127 558.24C403.796 558.431 403.38 558.512 403.014 558.301C402.648 558.089 402.511 557.688 402.511 557.307H403.511ZM403.511 542.163V557.307H402.511V542.163H403.511ZM404.127 541.096C403.981 541.18 403.822 541.344 403.697 541.559C403.573 541.775 403.511 541.995 403.511 542.163H402.511C402.511 541.778 402.642 541.387 402.831 541.059C403.02 540.732 403.294 540.422 403.627 540.23L404.127 541.096ZM506.325 482.092L404.127 541.096L403.627 540.23L505.825 481.226L506.325 482.092ZM506.441 512.161C506.441 512.079 506.427 512.036 506.42 512.021C506.414 512.009 506.416 512.021 506.437 512.033C506.458 512.045 506.47 512.041 506.456 512.043C506.44 512.044 506.396 512.053 506.325 512.094L505.825 511.228C506.155 511.037 506.571 510.956 506.937 511.167C507.303 511.378 507.441 511.779 507.441 512.161H506.441ZM506.441 527.305L506.441 512.161H507.441L507.441 527.305H506.441ZM505.825 528.372C505.97 528.288 506.13 528.124 506.254 527.908C506.379 527.693 506.441 527.472 506.441 527.305H507.441C507.441 527.689 507.309 528.081 507.12 528.408C506.931 528.736 506.658 529.046 506.325 529.238L505.825 528.372ZM403.627 587.376L505.825 528.372L506.325 529.238L404.127 588.242L403.627 587.376ZM403.511 587.309C403.511 587.391 403.525 587.433 403.532 587.448C403.538 587.461 403.535 587.449 403.514 587.437C403.493 587.425 403.482 587.428 403.495 587.427C403.512 587.426 403.556 587.417 403.627 587.376L404.127 588.242C403.796 588.433 403.38 588.514 403.014 588.303C402.648 588.091 402.511 587.69 402.511 587.309H403.511ZM403.511 572.165V587.309H402.511V572.165H403.511ZM404.127 571.098C403.981 571.182 403.822 571.346 403.697 571.561C403.573 571.777 403.511 571.997 403.511 572.165H402.511C402.511 571.78 402.642 571.389 402.831 571.061C403.02 570.734 403.294 570.424 403.627 570.232L404.127 571.098ZM506.325 512.094L404.127 571.098L403.627 570.232L505.825 511.228L506.325 512.094ZM505.825 541.23C506.155 541.039 506.571 540.958 506.937 541.169C507.303 541.38 507.441 541.782 507.441 542.163H506.441C506.441 542.081 506.427 542.039 506.42 542.024C506.414 542.011 506.416 542.023 506.437 542.035C506.458 542.047 506.47 542.044 506.456 542.045C506.44 542.046 506.396 542.055 506.325 542.096L505.825 541.23ZM403.627 600.234L505.825 541.23L506.325 542.096L404.127 601.1L403.627 600.234ZM402.511 602.167C402.511 601.783 402.642 601.391 402.831 601.064C403.02 600.736 403.294 600.426 403.627 600.234L404.127 601.1C403.981 601.184 403.822 601.348 403.697 601.564C403.573 601.779 403.511 601.999 403.511 602.167H402.511ZM402.511 617.311V602.167H403.511V617.311H402.511ZM404.127 618.244C403.796 618.435 403.38 618.516 403.014 618.305C402.648 618.094 402.511 617.693 402.511 617.311H403.511C403.511 617.393 403.525 617.435 403.532 617.45C403.538 617.463 403.535 617.451 403.514 617.439C403.493 617.427 403.482 617.43 403.495 617.429C403.512 617.428 403.556 617.419 403.627 617.378L404.127 618.244ZM506.325 559.24L404.127 618.244L403.627 617.378L505.825 558.374L506.325 559.24ZM507.441 557.307C507.441 557.692 507.309 558.083 507.12 558.41C506.931 558.738 506.658 559.048 506.325 559.24L505.825 558.374C505.97 558.29 506.13 558.126 506.254 557.91C506.379 557.695 506.441 557.475 506.441 557.307H507.441ZM507.441 542.163L507.441 557.307H506.441L506.441 542.163H507.441Z" fill="white"/>
<path d="M326.627 474.15L280.229 500.938L187.434 554.513L187.434 768.814L280.229 715.239L326.627 688.451L326.627 474.15Z" fill="#0070CC" stroke="white"/>
<rect width="214.541" height="214.541" transform="matrix(-0.866025 -0.5 -2.20305e-08 1 187.34 554.458)" fill="#0070CC" stroke="white"/>
<path d="M141.037 367L94.6393 393.787L1.84427 447.363L187.434 554.513L280.229 500.938L326.627 474.15L141.037 367Z" fill="#0070CC" stroke="white"/>
<path fill-rule="evenodd" clip-rule="evenodd" d="M308.617 511.081C309.095 510.805 309.483 511.029 309.483 511.581V543.869C309.483 544.422 309.095 545.093 308.617 545.369L302.059 549.155L288.078 557.227C287.6 557.504 287.212 557.28 287.212 556.727L287.212 524.439C287.212 523.887 287.6 523.215 288.078 522.939L302.059 514.867L308.617 511.081ZM308.617 594.659C309.095 594.382 309.483 594.606 309.483 595.159L309.483 610.303C309.483 610.855 309.095 611.526 308.617 611.803L206.418 670.807C205.94 671.083 205.552 670.859 205.552 670.307V655.163C205.552 654.611 205.94 653.939 206.418 653.663L308.617 594.659ZM308.617 624.661C309.095 624.384 309.483 624.608 309.483 625.161L309.483 640.305C309.483 640.857 309.095 641.529 308.617 641.805L206.418 700.809C205.94 701.085 205.552 700.861 205.552 700.309V685.165C205.552 684.613 205.94 683.941 206.418 683.665L308.617 624.661ZM309.483 655.163C309.483 654.61 309.095 654.387 308.617 654.663L206.418 713.667C205.94 713.943 205.552 714.615 205.552 715.167V730.311C205.552 730.863 205.94 731.087 206.418 730.811L308.617 671.807C309.095 671.531 309.483 670.859 309.483 670.307L309.483 655.163Z" fill="#0070CC"/>
<path d="M308.617 511.081L308.867 511.514H308.867L308.617 511.081ZM308.617 545.369L308.867 545.802H308.867L308.617 545.369ZM302.059 549.155L301.809 548.722L301.809 548.722L302.059 549.155ZM288.078 557.227L288.328 557.66L288.078 557.227ZM287.212 556.727H287.712H287.212ZM287.212 524.439H286.712H287.212ZM288.078 522.939L287.828 522.506L288.078 522.939ZM302.059 514.867L302.309 515.3L302.059 514.867ZM309.483 595.159H308.983H309.483ZM308.617 594.659L308.367 594.226H308.367L308.617 594.659ZM309.483 610.303H309.983H309.483ZM308.617 611.803L308.867 612.236H308.867L308.617 611.803ZM206.418 670.807L206.668 671.24L206.418 670.807ZM206.418 653.663L206.668 654.096L206.418 653.663ZM309.483 625.161H308.983H309.483ZM308.617 624.661L308.367 624.228H308.367L308.617 624.661ZM309.483 640.305H309.983H309.483ZM308.617 641.805L308.367 641.372H308.367L308.617 641.805ZM206.418 700.809L206.668 701.242L206.418 700.809ZM206.418 683.665L206.168 683.232H206.168L206.418 683.665ZM308.617 654.663L308.367 654.23H308.367L308.617 654.663ZM309.483 655.163H308.983H309.483ZM206.418 713.667L206.668 714.1L206.418 713.667ZM206.418 730.811L206.168 730.378H206.168L206.418 730.811ZM308.617 671.807L308.867 672.24L308.867 672.24L308.617 671.807ZM309.483 670.307H309.983H309.483ZM308.983 511.581C308.983 511.5 308.968 511.457 308.961 511.442C308.955 511.43 308.958 511.442 308.979 511.454C309 511.466 309.012 511.462 308.998 511.463C308.982 511.465 308.937 511.474 308.867 511.514L308.367 510.648C308.697 510.458 309.113 510.376 309.479 510.588C309.845 510.799 309.983 511.2 309.983 511.581H308.983ZM308.983 543.869V511.581H309.983V543.869H308.983ZM308.367 544.936C308.512 544.853 308.672 544.689 308.796 544.473C308.921 544.257 308.983 544.037 308.983 543.869H309.983C309.983 544.254 309.851 544.646 309.662 544.973C309.473 545.3 309.2 545.61 308.867 545.802L308.367 544.936ZM301.809 548.722L308.367 544.936L308.867 545.802L302.309 549.588L301.809 548.722ZM287.828 556.794L301.809 548.722L302.309 549.588L288.328 557.66L287.828 556.794ZM287.712 556.727C287.712 556.809 287.726 556.852 287.733 556.867C287.739 556.879 287.737 556.867 287.716 556.855C287.695 556.843 287.683 556.847 287.697 556.845C287.713 556.844 287.757 556.835 287.828 556.794L288.328 557.66C287.998 557.851 287.582 557.932 287.216 557.721C286.85 557.51 286.712 557.109 286.712 556.727H287.712ZM287.712 524.439L287.712 556.727H286.712L286.712 524.439H287.712ZM288.328 523.372C288.183 523.456 288.023 523.62 287.899 523.836C287.774 524.051 287.712 524.272 287.712 524.439H286.712C286.712 524.055 286.844 523.663 287.033 523.336C287.222 523.008 287.495 522.699 287.828 522.506L288.328 523.372ZM302.309 515.3L288.328 523.372L287.828 522.506L301.809 514.434L302.309 515.3ZM308.867 511.514L302.309 515.3L301.809 514.434L308.367 510.648L308.867 511.514ZM308.983 595.159C308.983 595.077 308.968 595.034 308.961 595.019C308.955 595.007 308.958 595.019 308.979 595.031C309 595.043 309.012 595.039 308.998 595.041C308.982 595.042 308.937 595.051 308.867 595.092L308.367 594.226C308.697 594.035 309.113 593.954 309.479 594.165C309.845 594.376 309.983 594.777 309.983 595.159H308.983ZM308.983 610.303L308.983 595.159H309.983L309.983 610.303H308.983ZM308.367 611.37C308.512 611.286 308.672 611.122 308.796 610.906C308.921 610.691 308.983 610.47 308.983 610.303H309.983C309.983 610.687 309.851 611.079 309.662 611.406C309.473 611.733 309.2 612.043 308.867 612.236L308.367 611.37ZM206.168 670.374L308.367 611.37L308.867 612.236L206.668 671.24L206.168 670.374ZM206.052 670.307C206.052 670.388 206.067 670.431 206.074 670.446C206.08 670.459 206.077 670.447 206.056 670.435C206.035 670.422 206.023 670.426 206.037 670.425C206.054 670.423 206.098 670.415 206.168 670.374L206.668 671.24C206.338 671.431 205.922 671.512 205.556 671.301C205.19 671.089 205.052 670.688 205.052 670.307H206.052ZM206.052 655.163V670.307H205.052V655.163H206.052ZM206.668 654.096C206.523 654.18 206.363 654.344 206.239 654.559C206.115 654.775 206.052 654.995 206.052 655.163H205.052C205.052 654.778 205.184 654.387 205.373 654.059C205.562 653.732 205.835 653.422 206.168 653.23L206.668 654.096ZM308.867 595.092L206.668 654.096L206.168 653.23L308.367 594.226L308.867 595.092ZM308.983 625.161C308.983 625.079 308.968 625.036 308.961 625.021C308.955 625.009 308.958 625.021 308.979 625.033C309 625.045 309.012 625.041 308.998 625.043C308.982 625.044 308.937 625.053 308.867 625.094L308.367 624.228C308.697 624.037 309.113 623.956 309.479 624.167C309.845 624.378 309.983 624.779 309.983 625.161H308.983ZM308.983 640.305L308.983 625.161H309.983L309.983 640.305H308.983ZM308.367 641.372C308.512 641.288 308.672 641.124 308.796 640.908C308.921 640.693 308.983 640.472 308.983 640.305H309.983C309.983 640.689 309.851 641.081 309.662 641.408C309.473 641.736 309.2 642.045 308.867 642.238L308.367 641.372ZM206.168 700.376L308.367 641.372L308.867 642.238L206.668 701.242L206.168 700.376ZM206.052 700.309C206.052 700.39 206.067 700.433 206.074 700.448C206.08 700.461 206.077 700.449 206.056 700.437C206.035 700.424 206.023 700.428 206.037 700.427C206.054 700.425 206.098 700.417 206.168 700.376L206.668 701.242C206.338 701.433 205.922 701.514 205.556 701.303C205.19 701.091 205.052 700.69 205.052 700.309H206.052ZM206.052 685.165V700.309H205.052V685.165H206.052ZM206.668 684.098C206.523 684.182 206.363 684.346 206.239 684.561C206.115 684.777 206.052 684.997 206.052 685.165H205.052C205.052 684.78 205.184 684.389 205.373 684.061C205.562 683.734 205.835 683.424 206.168 683.232L206.668 684.098ZM308.867 625.094L206.668 684.098L206.168 683.232L308.367 624.228L308.867 625.094ZM308.367 654.23C308.697 654.039 309.113 653.958 309.479 654.169C309.845 654.38 309.983 654.781 309.983 655.163H308.983C308.983 655.081 308.968 655.039 308.961 655.023C308.955 655.011 308.958 655.023 308.979 655.035C309 655.047 309.012 655.044 308.998 655.045C308.982 655.046 308.937 655.055 308.867 655.096L308.367 654.23ZM206.168 713.234L308.367 654.23L308.867 655.096L206.668 714.1L206.168 713.234ZM205.052 715.167C205.052 714.782 205.184 714.391 205.373 714.063C205.562 713.736 205.835 713.426 206.168 713.234L206.668 714.1C206.523 714.184 206.363 714.348 206.239 714.563C206.115 714.779 206.052 714.999 206.052 715.167H205.052ZM205.052 730.311V715.167H206.052V730.311H205.052ZM206.668 731.244C206.338 731.435 205.922 731.516 205.556 731.305C205.19 731.093 205.052 730.692 205.052 730.311H206.052C206.052 730.393 206.067 730.435 206.074 730.45C206.08 730.463 206.077 730.451 206.056 730.439C206.035 730.427 206.023 730.43 206.037 730.429C206.054 730.428 206.098 730.419 206.168 730.378L206.668 731.244ZM308.867 672.24L206.668 731.244L206.168 730.378L308.367 671.374L308.867 672.24ZM309.983 670.307C309.983 670.691 309.851 671.083 309.662 671.41C309.473 671.738 309.2 672.048 308.867 672.24L308.367 671.374C308.512 671.29 308.672 671.126 308.796 670.91C308.921 670.695 308.983 670.475 308.983 670.307H309.983ZM309.983 655.163L309.983 670.307H308.983L308.983 655.163H309.983Z" fill="white"/>
<path d="M258.791 261.004L343.744 310.051L340.11 166.109L387.561 193.506L307.084 50.0984L213.56 104.271L260.246 131.225L258.791 261.004Z" fill="#0070CC" stroke="white" stroke-linejoin="round"/>
<path d="M383.441 281.947L343.389 309.847L339.862 165.8L382.589 190.468L383.441 281.947Z" fill="#0070CC" stroke="white" stroke-linejoin="round"/>
<path d="M387.561 193.506L426.137 170.877L343.808 28.4415L302.579 52.5997" stroke="white" stroke-linecap="round" stroke-linejoin="round"/>
</svg>
