<svg width="1272" height="410" viewBox="0 0 1272 410" fill="none" xmlns="http://www.w3.org/2000/svg">
<path d="M0 9.99999C0 4.47714 4.47715 0 10 0H1262C1267.52 0 1272 4.47715 1272 10V400C1272 405.523 1267.52 410 1262 410H9.99997C4.47713 410 0 405.523 0 400V9.99999Z" fill="#F6F6F6"/>
<path fill-rule="evenodd" clip-rule="evenodd" d="M889.369 192.06L893.823 196.515C894.097 196.788 894.097 197.231 893.823 197.504L889.369 201.959C889.095 202.233 888.652 202.233 888.379 201.959C888.105 201.686 888.105 201.243 888.379 200.969L891.638 197.71H793.828V196.31H891.638L888.379 193.05C888.105 192.776 888.105 192.333 888.379 192.06C888.652 191.786 889.095 191.786 889.369 192.06Z" fill="black"/>
<path fill-rule="evenodd" clip-rule="evenodd" d="M396.442 192.06L400.897 196.515C401.17 196.788 401.17 197.231 400.897 197.504L396.442 201.959C396.169 202.233 395.726 202.233 395.452 201.959C395.179 201.686 395.179 201.243 395.452 200.969L398.712 197.71H300.902V196.31H398.712L395.452 193.05C395.179 192.776 395.179 192.333 395.452 192.06C395.726 191.786 396.169 191.786 396.442 192.06Z" fill="black"/>
<path d="M85.5093 313.67L87.3857 313.506C87.4746 314.258 87.6797 314.877 88.001 315.362C88.3291 315.841 88.835 316.23 89.5186 316.531C90.2021 316.825 90.9712 316.972 91.8257 316.972C92.5845 316.972 93.2544 316.859 93.8354 316.634C94.4165 316.408 94.8472 316.101 95.1274 315.711C95.4146 315.314 95.5581 314.884 95.5581 314.419C95.5581 313.947 95.4214 313.537 95.1479 313.188C94.8745 312.833 94.4233 312.536 93.7944 312.296C93.3911 312.139 92.499 311.896 91.1182 311.568C89.7373 311.233 88.77 310.919 88.2163 310.625C87.4985 310.249 86.9619 309.784 86.6064 309.23C86.2578 308.67 86.0835 308.044 86.0835 307.354C86.0835 306.595 86.2988 305.888 86.7295 305.231C87.1602 304.568 87.7891 304.066 88.6162 303.724C89.4434 303.382 90.3628 303.211 91.3745 303.211C92.4888 303.211 93.4697 303.393 94.3174 303.755C95.1719 304.11 95.8281 304.637 96.2861 305.334C96.7441 306.031 96.9902 306.821 97.0244 307.703L95.1172 307.846C95.0146 306.896 94.666 306.178 94.0713 305.693C93.4834 305.208 92.6118 304.965 91.4565 304.965C90.2534 304.965 89.375 305.187 88.8213 305.631C88.2744 306.069 88.001 306.599 88.001 307.221C88.001 307.761 88.1958 308.205 88.5854 308.554C88.9683 308.902 89.9663 309.261 91.5796 309.63C93.1997 309.993 94.3105 310.311 94.9121 310.584C95.7871 310.987 96.4331 311.5 96.8501 312.122C97.2671 312.737 97.4756 313.448 97.4756 314.255C97.4756 315.055 97.2466 315.81 96.7886 316.521C96.3306 317.225 95.6709 317.775 94.8096 318.172C93.9551 318.562 92.9912 318.756 91.918 318.756C90.5576 318.756 89.416 318.558 88.4932 318.162C87.5771 317.765 86.856 317.17 86.3296 316.377C85.8101 315.578 85.5366 314.675 85.5093 313.67Z" fill="#2D2D2D"/>
<path d="M100.157 322.673V307.61H101.839V309.025C102.235 308.472 102.683 308.058 103.182 307.785C103.681 307.504 104.286 307.364 104.997 307.364C105.927 307.364 106.747 307.604 107.458 308.082C108.169 308.561 108.705 309.237 109.068 310.112C109.43 310.98 109.611 311.934 109.611 312.973C109.611 314.087 109.409 315.092 109.006 315.988C108.61 316.876 108.029 317.56 107.263 318.039C106.504 318.51 105.704 318.746 104.864 318.746C104.248 318.746 103.695 318.616 103.202 318.356C102.717 318.097 102.317 317.769 102.003 317.372V322.673H100.157ZM101.828 313.117C101.828 314.518 102.112 315.554 102.679 316.224C103.247 316.894 103.934 317.229 104.741 317.229C105.561 317.229 106.262 316.883 106.843 316.193C107.43 315.496 107.724 314.419 107.724 312.963C107.724 311.575 107.437 310.536 106.863 309.846C106.296 309.155 105.616 308.81 104.823 308.81C104.036 308.81 103.339 309.179 102.731 309.917C102.129 310.649 101.828 311.715 101.828 313.117Z" fill="#2D2D2D"/>
<path d="M119.152 317.157C118.469 317.738 117.809 318.148 117.173 318.387C116.545 318.626 115.868 318.746 115.143 318.746C113.947 318.746 113.027 318.456 112.385 317.875C111.742 317.287 111.421 316.538 111.421 315.629C111.421 315.096 111.541 314.61 111.78 314.173C112.026 313.729 112.344 313.373 112.733 313.106C113.13 312.84 113.574 312.638 114.067 312.501C114.429 312.406 114.976 312.313 115.707 312.225C117.197 312.047 118.295 311.835 118.999 311.589C119.005 311.336 119.009 311.175 119.009 311.107C119.009 310.355 118.835 309.825 118.486 309.518C118.014 309.101 117.314 308.892 116.384 308.892C115.516 308.892 114.873 309.046 114.456 309.354C114.046 309.654 113.742 310.191 113.544 310.963L111.739 310.717C111.903 309.945 112.173 309.323 112.549 308.851C112.925 308.373 113.468 308.007 114.179 307.754C114.89 307.494 115.714 307.364 116.65 307.364C117.58 307.364 118.336 307.474 118.917 307.692C119.498 307.911 119.925 308.188 120.198 308.523C120.472 308.851 120.663 309.268 120.773 309.774C120.834 310.088 120.865 310.656 120.865 311.476V313.937C120.865 315.653 120.902 316.74 120.978 317.198C121.06 317.649 121.217 318.083 121.449 318.5H119.522C119.33 318.117 119.207 317.669 119.152 317.157ZM118.999 313.035C118.329 313.308 117.324 313.541 115.984 313.732C115.225 313.841 114.689 313.964 114.374 314.101C114.06 314.238 113.817 314.439 113.646 314.706C113.475 314.966 113.39 315.256 113.39 315.578C113.39 316.07 113.574 316.48 113.943 316.808C114.319 317.136 114.866 317.3 115.584 317.3C116.295 317.3 116.927 317.146 117.481 316.839C118.035 316.524 118.442 316.097 118.701 315.557C118.9 315.14 118.999 314.525 118.999 313.711V313.035Z" fill="#2D2D2D"/>
<path d="M123.915 318.5V307.61H125.577V309.261C126 308.489 126.39 307.979 126.746 307.733C127.108 307.487 127.504 307.364 127.935 307.364C128.557 307.364 129.189 307.562 129.832 307.959L129.196 309.671C128.745 309.405 128.294 309.271 127.843 309.271C127.439 309.271 127.077 309.395 126.756 309.641C126.434 309.88 126.205 310.215 126.069 310.646C125.864 311.302 125.761 312.02 125.761 312.799V318.5H123.915Z" fill="#2D2D2D"/>
<path d="M131.139 318.5V303.468H132.985V312.04L137.353 307.61H139.742L135.579 311.65L140.163 318.5H137.886L134.287 312.932L132.985 314.183V318.5H131.139Z" fill="#2D2D2D"/>
<path d="M145.29 318.5L151.063 303.468H153.206L159.358 318.5H157.092L155.339 313.947H149.053L147.402 318.5H145.29ZM149.627 312.327H154.723L153.155 308.164C152.676 306.899 152.321 305.86 152.088 305.047C151.897 306.011 151.627 306.968 151.278 307.918L149.627 312.327Z" fill="#2D2D2D"/>
<path d="M160.912 322.673V307.61H162.593V309.025C162.99 308.472 163.438 308.058 163.937 307.785C164.436 307.504 165.041 307.364 165.752 307.364C166.681 307.364 167.502 307.604 168.213 308.082C168.923 308.561 169.46 309.237 169.822 310.112C170.185 310.98 170.366 311.934 170.366 312.973C170.366 314.087 170.164 315.092 169.761 315.988C169.364 316.876 168.783 317.56 168.018 318.039C167.259 318.51 166.459 318.746 165.618 318.746C165.003 318.746 164.449 318.616 163.957 318.356C163.472 318.097 163.072 317.769 162.757 317.372V322.673H160.912ZM162.583 313.117C162.583 314.518 162.867 315.554 163.434 316.224C164.002 316.894 164.689 317.229 165.495 317.229C166.316 317.229 167.016 316.883 167.597 316.193C168.185 315.496 168.479 314.419 168.479 312.963C168.479 311.575 168.192 310.536 167.618 309.846C167.05 309.155 166.37 308.81 165.577 308.81C164.791 308.81 164.094 309.179 163.485 309.917C162.884 310.649 162.583 311.715 162.583 313.117Z" fill="#2D2D2D"/>
<path d="M172.801 322.673V307.61H174.483V309.025C174.879 308.472 175.327 308.058 175.826 307.785C176.325 307.504 176.93 307.364 177.641 307.364C178.571 307.364 179.391 307.604 180.102 308.082C180.813 308.561 181.35 309.237 181.712 310.112C182.074 310.98 182.255 311.934 182.255 312.973C182.255 314.087 182.054 315.092 181.65 315.988C181.254 316.876 180.673 317.56 179.907 318.039C179.148 318.51 178.349 318.746 177.508 318.746C176.892 318.746 176.339 318.616 175.847 318.356C175.361 318.097 174.961 317.769 174.647 317.372V322.673H172.801ZM174.473 313.117C174.473 314.518 174.756 315.554 175.324 316.224C175.891 316.894 176.578 317.229 177.385 317.229C178.205 317.229 178.906 316.883 179.487 316.193C180.075 315.496 180.369 314.419 180.369 312.963C180.369 311.575 180.081 310.536 179.507 309.846C178.94 309.155 178.26 308.81 177.467 308.81C176.681 308.81 175.983 309.179 175.375 309.917C174.773 310.649 174.473 311.715 174.473 313.117Z" fill="#2D2D2D"/>
<path d="M184.65 318.5V303.468H186.495V318.5H184.65Z" fill="#2D2D2D"/>
<path d="M189.577 305.59V303.468H191.422V305.59H189.577ZM189.577 318.5V307.61H191.422V318.5H189.577Z" fill="#2D2D2D"/>
<path d="M201.548 314.511L203.363 314.747C203.165 315.998 202.656 316.979 201.835 317.69C201.022 318.394 200.02 318.746 198.831 318.746C197.341 318.746 196.141 318.261 195.232 317.29C194.329 316.312 193.878 314.915 193.878 313.096C193.878 311.92 194.073 310.892 194.463 310.01C194.852 309.128 195.444 308.468 196.237 308.031C197.036 307.586 197.905 307.364 198.841 307.364C200.024 307.364 200.991 307.665 201.743 308.267C202.495 308.861 202.977 309.709 203.189 310.81L201.394 311.086C201.223 310.355 200.919 309.805 200.482 309.436C200.051 309.066 199.528 308.882 198.913 308.882C197.983 308.882 197.228 309.217 196.647 309.887C196.066 310.55 195.775 311.603 195.775 313.045C195.775 314.508 196.055 315.571 196.616 316.234C197.177 316.897 197.908 317.229 198.81 317.229C199.535 317.229 200.14 317.006 200.625 316.562C201.111 316.118 201.418 315.434 201.548 314.511Z" fill="#2D2D2D"/>
<path d="M212.248 317.157C211.565 317.738 210.905 318.148 210.269 318.387C209.64 318.626 208.963 318.746 208.239 318.746C207.043 318.746 206.123 318.456 205.481 317.875C204.838 317.287 204.517 316.538 204.517 315.629C204.517 315.096 204.636 314.61 204.876 314.173C205.122 313.729 205.44 313.373 205.829 313.106C206.226 312.84 206.67 312.638 207.162 312.501C207.525 312.406 208.071 312.313 208.803 312.225C210.293 312.047 211.39 311.835 212.094 311.589C212.101 311.336 212.105 311.175 212.105 311.107C212.105 310.355 211.93 309.825 211.582 309.518C211.11 309.101 210.409 308.892 209.48 308.892C208.611 308.892 207.969 309.046 207.552 309.354C207.142 309.654 206.838 310.191 206.639 310.963L204.835 310.717C204.999 309.945 205.269 309.323 205.645 308.851C206.021 308.373 206.564 308.007 207.275 307.754C207.986 307.494 208.81 307.364 209.746 307.364C210.676 307.364 211.431 307.474 212.012 307.692C212.593 307.911 213.021 308.188 213.294 308.523C213.567 308.851 213.759 309.268 213.868 309.774C213.93 310.088 213.961 310.656 213.961 311.476V313.937C213.961 315.653 213.998 316.74 214.073 317.198C214.155 317.649 214.313 318.083 214.545 318.5H212.617C212.426 318.117 212.303 317.669 212.248 317.157ZM212.094 313.035C211.424 313.308 210.42 313.541 209.08 313.732C208.321 313.841 207.784 313.964 207.47 314.101C207.155 314.238 206.913 314.439 206.742 314.706C206.571 314.966 206.485 315.256 206.485 315.578C206.485 316.07 206.67 316.48 207.039 316.808C207.415 317.136 207.962 317.3 208.68 317.3C209.391 317.3 210.023 317.146 210.577 316.839C211.13 316.524 211.537 316.097 211.797 315.557C211.995 315.14 212.094 314.525 212.094 313.711V313.035Z" fill="#2D2D2D"/>
<path d="M221.061 316.849L221.328 318.479C220.809 318.589 220.344 318.644 219.934 318.644C219.264 318.644 218.744 318.538 218.375 318.326C218.006 318.114 217.746 317.837 217.596 317.495C217.445 317.146 217.37 316.418 217.37 315.311V309.046H216.017V307.61H217.37V304.914L219.205 303.806V307.61H221.061V309.046H219.205V315.414C219.205 315.94 219.236 316.278 219.298 316.429C219.366 316.579 219.472 316.699 219.616 316.788C219.766 316.876 219.978 316.921 220.251 316.921C220.456 316.921 220.726 316.897 221.061 316.849Z" fill="#2D2D2D"/>
<path d="M223.087 305.59V303.468H224.932V305.59H223.087ZM223.087 318.5V307.61H224.932V318.5H223.087Z" fill="#2D2D2D"/>
<path d="M227.265 313.055C227.265 311.039 227.826 309.545 228.947 308.574C229.883 307.768 231.025 307.364 232.372 307.364C233.869 307.364 235.092 307.856 236.042 308.841C236.993 309.818 237.468 311.172 237.468 312.901C237.468 314.303 237.256 315.407 236.832 316.213C236.415 317.013 235.803 317.635 234.997 318.08C234.197 318.524 233.322 318.746 232.372 318.746C230.847 318.746 229.613 318.257 228.67 317.28C227.733 316.302 227.265 314.894 227.265 313.055ZM229.162 313.055C229.162 314.45 229.466 315.496 230.075 316.193C230.683 316.883 231.449 317.229 232.372 317.229C233.288 317.229 234.05 316.88 234.658 316.183C235.267 315.485 235.571 314.422 235.571 312.994C235.571 311.647 235.263 310.628 234.648 309.938C234.04 309.241 233.281 308.892 232.372 308.892C231.449 308.892 230.683 309.237 230.075 309.928C229.466 310.618 229.162 311.661 229.162 313.055Z" fill="#2D2D2D"/>
<path d="M239.842 318.5V307.61H241.503V309.159C242.303 307.962 243.458 307.364 244.969 307.364C245.625 307.364 246.226 307.484 246.773 307.723C247.327 307.956 247.741 308.263 248.014 308.646C248.287 309.029 248.479 309.483 248.588 310.01C248.657 310.352 248.691 310.95 248.691 311.804V318.5H246.845V311.876C246.845 311.124 246.773 310.563 246.63 310.194C246.486 309.818 246.23 309.521 245.861 309.302C245.498 309.077 245.071 308.964 244.579 308.964C243.793 308.964 243.113 309.213 242.538 309.712C241.971 310.211 241.687 311.158 241.687 312.553V318.5H239.842Z" fill="#2D2D2D"/>
<path d="M465.902 68.5C465.902 62.9771 470.379 58.5 475.902 58.5H750.902C756.425 58.5 760.902 62.9772 760.902 68.5V341.5C760.902 347.023 756.425 351.5 750.902 351.5H475.902C470.379 351.5 465.902 347.023 465.902 341.5V68.5Z" fill="#E6E6E6"/>
<path d="M467.603 94.286L433.902 105.609L433.902 128.649L467.058 137.321L499.632 127.3L499.632 104.456L467.603 94.286Z" fill="white"/>
<path fill-rule="evenodd" clip-rule="evenodd" d="M466.813 92.9359C466.935 92.8917 467.068 92.8883 467.192 92.926L500.141 102.955L499.792 104.103L467.034 94.1322L434.243 106.011L433.834 104.883L466.813 92.9359Z" fill="#2D2D2D"/>
<path fill-rule="evenodd" clip-rule="evenodd" d="M500.196 102.993C500.353 103.106 500.447 103.288 500.447 103.482V127.219C500.447 127.48 500.279 127.711 500.03 127.79L467.946 138.071C467.837 138.106 467.72 138.109 467.61 138.08L433.884 129.16C433.621 129.09 433.438 128.852 433.438 128.58V105.447C433.438 105.261 433.524 105.085 433.673 104.971C433.821 104.858 434.013 104.819 434.193 104.868L467.742 113.892L499.652 102.914C499.835 102.851 500.038 102.881 500.196 102.993ZM499.247 104.323L467.958 115.086C467.845 115.125 467.723 115.129 467.607 115.098L434.638 106.23V128.118L467.747 136.875L499.247 126.781V104.323Z" fill="#2D2D2D"/>
<path fill-rule="evenodd" clip-rule="evenodd" d="M466.732 136.732V114.41H467.932V136.732H466.732Z" fill="#2D2D2D"/>
<path d="M467.603 187.286L433.902 198.609L433.902 221.649L467.058 230.321L499.632 220.3L499.632 197.455L467.603 187.286Z" fill="white"/>
<path fill-rule="evenodd" clip-rule="evenodd" d="M466.813 185.936C466.935 185.892 467.068 185.888 467.192 185.926L500.141 195.955L499.792 197.103L467.034 187.132L434.243 199.011L433.834 197.883L466.813 185.936Z" fill="#2D2D2D"/>
<path fill-rule="evenodd" clip-rule="evenodd" d="M500.196 195.993C500.353 196.106 500.447 196.288 500.447 196.482V220.219C500.447 220.48 500.279 220.711 500.03 220.79L467.946 231.071C467.837 231.106 467.72 231.109 467.61 231.08L433.884 222.16C433.621 222.09 433.438 221.852 433.438 221.58V198.447C433.438 198.261 433.524 198.085 433.673 197.971C433.821 197.858 434.013 197.819 434.193 197.868L467.742 206.892L499.652 195.914C499.835 195.851 500.038 195.881 500.196 195.993ZM499.247 197.323L467.958 208.086C467.845 208.125 467.723 208.129 467.607 208.098L434.638 199.23V221.118L467.747 229.875L499.247 219.781V197.323Z" fill="#2D2D2D"/>
<path fill-rule="evenodd" clip-rule="evenodd" d="M466.732 229.732V207.41H467.932V229.732H466.732Z" fill="#2D2D2D"/>
<path d="M467.603 284.286L433.902 295.609L433.902 318.649L467.058 327.321L499.632 317.3L499.632 294.455L467.603 284.286Z" fill="white"/>
<path fill-rule="evenodd" clip-rule="evenodd" d="M466.813 282.936C466.935 282.892 467.068 282.888 467.192 282.926L500.141 292.955L499.792 294.103L467.034 284.132L434.243 296.011L433.834 294.883L466.813 282.936Z" fill="#2D2D2D"/>
<path fill-rule="evenodd" clip-rule="evenodd" d="M500.196 292.993C500.353 293.106 500.447 293.288 500.447 293.482V317.219C500.447 317.48 500.279 317.711 500.03 317.79L467.946 328.071C467.837 328.106 467.72 328.109 467.61 328.08L433.884 319.16C433.621 319.09 433.438 318.852 433.438 318.58V295.447C433.438 295.261 433.524 295.085 433.673 294.971C433.821 294.858 434.013 294.819 434.193 294.868L467.742 303.892L499.652 292.914C499.835 292.851 500.038 292.881 500.196 292.993ZM499.247 294.323L467.958 305.086C467.845 305.125 467.723 305.129 467.607 305.098L434.638 296.23V318.118L467.747 326.875L499.247 316.781V294.323Z" fill="#2D2D2D"/>
<path fill-rule="evenodd" clip-rule="evenodd" d="M466.732 326.732V304.41H467.932V326.732H466.732Z" fill="#2D2D2D"/>
<path fill-rule="evenodd" clip-rule="evenodd" d="M576.778 99.1498C576.717 99.0218 576.689 98.9574 576.656 98.8959C575.769 97.248 574.884 95.6 573.987 93.9521C573.897 93.7868 573.909 93.6893 574.032 93.5467C575.444 91.9366 576.837 90.3176 578.252 88.7142C578.301 88.6576 578.346 88.5977 578.365 88.4969C577.954 88.6013 577.544 88.7046 577.131 88.8109C575.427 89.2518 573.709 89.6905 572.021 90.1381C571.863 90.1798 571.791 90.1346 571.711 90.0059C570.744 88.4269 569.77 86.8435 568.792 85.2847C568.742 85.2029 568.687 85.1237 568.58 85.0553C568.502 85.4762 568.423 85.8949 568.346 86.3158C568.074 87.8011 567.803 89.2776 567.534 90.7697C567.504 90.9298 567.464 91.0904 567.45 91.2507C567.436 91.4039 567.355 91.4605 567.213 91.5046C565.203 92.1215 563.198 92.7428 561.191 93.3641C561.103 93.3911 561.016 93.4267 560.922 93.5102C562.564 94.1471 564.206 94.7841 565.871 95.4321C565.811 95.4791 565.771 95.5156 565.726 95.5435C564.7 96.1915 563.671 96.8396 562.647 97.4898C562.524 97.5682 562.427 97.5794 562.289 97.5186C561.062 96.9796 559.825 96.4496 558.594 95.9151C558.042 95.6746 557.547 95.3562 557.161 94.893C556.288 93.8507 556.461 92.666 557.624 91.9311C558.005 91.6928 558.439 91.5169 558.87 91.3788C560.838 90.753 562.816 90.1495 564.777 89.5438C564.943 89.4923 565.019 89.4202 565.051 89.2453C565.316 87.7577 565.587 86.2612 565.863 84.7914C566.01 83.9964 566.087 83.1835 566.483 82.4531C566.635 82.1725 566.816 81.8985 567.035 81.6647C567.82 80.814 568.913 80.7828 569.75 81.5917C570.03 81.8656 570.27 82.1863 570.477 82.5181C571.39 83.9723 572.288 85.4354 573.192 86.9052C573.298 87.0783 573.393 87.113 573.588 87.0627C575.79 86.4859 577.991 85.918 580.203 85.3501C580.659 85.2328 581.118 85.1902 581.585 85.2755C582.6 85.4608 583.045 86.2153 582.701 87.1751C582.545 87.6116 582.274 87.9791 581.971 88.3287C580.433 90.0947 578.892 91.8696 577.363 93.6289C577.238 93.7732 577.235 93.8761 577.322 94.0387C578.244 95.7334 579.156 97.4237 580.082 99.1385C580.301 99.5438 580.47 99.9669 580.475 100.432C580.485 101.492 579.69 102.361 578.611 102.517C578.007 102.603 577.445 102.477 576.878 102.306C575.498 101.89 574.118 101.48 572.726 101.073C572.598 101.035 572.549 100.986 572.526 100.851C572.367 99.8999 572.193 98.9512 572.024 98.0003C572.02 97.9742 572.028 97.9464 572.032 97.888C573.608 98.3134 575.18 98.732 576.799 99.1708" fill="#E25A1C"/>
<path fill-rule="evenodd" clip-rule="evenodd" d="M574.041 113.069C572.796 113.067 571.555 113.061 570.3 113.066C570.135 113.066 570.043 113.02 569.951 112.883C568.478 110.692 566.986 108.496 565.526 106.314C565.479 106.244 565.429 106.177 565.345 106.06C565.028 108.42 564.716 110.736 564.403 113.052H561.142C561.18 112.743 561.214 112.442 561.254 112.144C561.571 109.761 561.893 107.4 562.212 105.018C562.518 102.746 562.821 100.475 563.131 98.203C563.14 98.136 563.187 98.0498 563.243 98.0142C564.365 97.2993 565.492 96.5911 566.618 95.8829C566.635 95.8725 566.658 95.8716 566.716 95.8551C566.376 98.3939 566.038 100.91 565.698 103.427C565.712 103.436 565.725 103.445 565.738 103.454C567.506 101.543 569.274 99.6234 571.076 97.6859C571.128 97.9799 571.173 98.2315 571.217 98.4832C571.344 99.2025 571.466 99.9262 571.601 100.646C571.628 100.791 571.588 100.879 571.489 100.982C570.347 102.149 569.208 103.32 568.068 104.5C568.018 104.552 567.971 104.605 567.914 104.666C567.95 104.722 567.981 104.777 568.018 104.828C569.982 107.522 571.941 110.217 573.903 112.912C573.938 112.96 573.99 112.999 574.034 113.042V113.085" fill="#3C3A3E"/>
<path fill-rule="evenodd" clip-rule="evenodd" d="M535.493 105.942C535.443 105.695 535.408 105.33 535.295 104.989C534.747 103.343 533.021 102.45 531.235 102.849C529.271 103.294 527.859 104.802 527.677 106.768C527.526 108.216 528.324 109.619 529.807 110.131C531.002 110.552 532.156 110.376 533.228 109.75C534.645 108.922 535.411 107.69 535.509 105.942H535.493ZM526.872 112.066C526.775 112.774 526.683 113.44 526.593 114.108C526.474 114.995 526.354 115.883 526.24 116.781C526.227 116.884 526.194 116.93 526.08 116.93C525.184 116.926 524.288 116.927 523.389 116.925C523.368 116.925 523.348 116.915 523.3 116.901C523.354 116.482 523.407 116.061 523.463 115.643C523.661 114.173 523.857 112.703 524.058 111.233C524.288 109.55 524.469 107.871 524.763 106.2C525.283 103.239 527.865 100.7 530.876 100.054C532.625 99.6843 534.297 99.8555 535.825 100.818C537.349 101.775 538.22 103.178 538.426 104.915C538.708 107.387 537.776 109.436 535.985 111.151C534.803 112.267 533.385 112.975 531.765 113.215C530.084 113.463 528.504 113.189 527.089 112.222C527.038 112.187 526.982 112.155 526.893 112.101" fill="#3C3A3E"/>
<path fill-rule="evenodd" clip-rule="evenodd" d="M525.366 98.0362C524.363 98.7667 523.393 99.4704 522.424 100.176C522.267 99.9358 522.127 99.6953 521.963 99.4704C521.541 98.8936 521.016 98.4638 520.255 98.4126C519.621 98.3689 519.078 98.5725 518.647 99.0294C518.261 99.437 518.211 100.018 518.571 100.479C518.968 100.987 519.401 101.468 519.846 101.938C520.583 102.717 521.351 103.466 522.081 104.254C522.745 104.967 523.276 105.764 523.441 106.748C523.636 107.906 523.399 108.997 522.838 110.022C521.801 111.904 520.17 113.006 518.003 113.34C517.049 113.49 516.101 113.461 515.175 113.194C513.941 112.84 513.081 112.049 512.529 110.944C512.334 110.55 512.184 110.134 512.009 109.711C513.088 109.147 514.139 108.597 515.202 108.043C515.238 108.129 515.265 108.201 515.299 108.27C515.481 108.624 515.63 109 515.853 109.328C516.522 110.296 517.598 110.59 518.682 110.112C518.962 109.988 519.234 109.815 519.464 109.615C520.167 109.005 520.299 108.154 519.779 107.388C519.48 106.947 519.106 106.551 518.741 106.156C517.87 105.212 516.962 104.297 516.118 103.328C515.532 102.665 515.133 101.894 515.005 101.012C514.867 100.041 515.066 99.1281 515.582 98.3175C516.866 96.2887 518.73 95.2443 521.193 95.3111C522.6 95.3607 523.725 96.0036 524.592 97.0726C524.849 97.3888 525.091 97.7162 525.353 98.0591" fill="#3C3A3E"/>
<path fill-rule="evenodd" clip-rule="evenodd" d="M549.179 108.837C549.015 110.06 548.86 111.22 548.7 112.378C548.691 112.437 548.644 112.517 548.593 112.54C546.152 113.64 542.959 113.486 540.975 111.273C539.903 110.084 539.453 108.667 539.52 107.108C539.675 103.478 542.758 100.294 546.453 99.8484C548.609 99.5901 550.491 100.158 551.951 101.795C552.945 102.908 553.406 104.244 553.337 105.714C553.293 106.685 553.137 107.65 553.013 108.609C552.838 109.977 552.646 111.349 552.461 112.707C552.454 112.755 552.445 112.803 552.433 112.865H549.536C549.574 112.551 549.61 112.244 549.651 111.937C549.861 110.358 550.094 108.774 550.278 107.193C550.393 106.209 550.321 105.231 549.859 104.32C549.368 103.352 548.547 102.837 547.464 102.726C545.224 102.494 543.084 104.013 542.628 106.155C542.313 107.576 542.81 108.939 543.969 109.696C545.098 110.429 546.296 110.431 547.528 109.957C548.153 109.716 548.682 109.333 549.188 108.819" fill="#3C3A3E"/>
<path fill-rule="evenodd" clip-rule="evenodd" d="M561.496 100.219C561.363 101.203 561.231 102.172 561.099 103.159C560.483 103.159 559.881 103.155 559.279 103.159C558.791 103.163 558.346 103.471 558.198 103.917C558.141 104.091 558.119 104.277 558.094 104.46C557.789 106.731 557.485 108.981 557.182 111.23C557.105 111.8 557.031 112.37 556.955 112.949H553.921C553.977 112.515 554.031 112.094 554.087 111.673C554.284 110.208 554.481 108.734 554.68 107.286C554.852 106.019 555.006 104.747 555.209 103.478C555.48 101.785 557.205 100.271 558.95 100.204C559.785 100.169 560.622 100.198 561.482 100.198" fill="#3C3A3E"/>
<path fill-rule="evenodd" clip-rule="evenodd" d="M576.778 191.15C576.717 191.022 576.689 190.957 576.656 190.896C575.769 189.248 574.884 187.6 573.987 185.952C573.897 185.787 573.909 185.689 574.032 185.547C575.444 183.937 576.837 182.318 578.252 180.714C578.301 180.658 578.346 180.598 578.365 180.497C577.954 180.601 577.544 180.705 577.131 180.811C575.427 181.252 573.709 181.69 572.021 182.138C571.863 182.18 571.791 182.135 571.711 182.006C570.744 180.427 569.77 178.844 568.792 177.285C568.742 177.203 568.687 177.124 568.58 177.055C568.502 177.476 568.423 177.895 568.346 178.316C568.074 179.801 567.803 181.278 567.534 182.77C567.504 182.93 567.464 183.09 567.45 183.251C567.436 183.404 567.355 183.46 567.213 183.505C565.203 184.121 563.198 184.743 561.191 185.364C561.103 185.391 561.016 185.427 560.922 185.51C562.564 186.147 564.206 186.784 565.871 187.432C565.811 187.479 565.771 187.516 565.726 187.543C564.7 188.191 563.671 188.84 562.647 189.49C562.524 189.568 562.427 189.579 562.289 189.519C561.062 188.98 559.825 188.45 558.594 187.915C558.042 187.675 557.547 187.356 557.161 186.893C556.288 185.851 556.461 184.666 557.624 183.931C558.005 183.693 558.439 183.517 558.87 183.379C560.838 182.753 562.816 182.149 564.777 181.544C564.943 181.492 565.019 181.42 565.051 181.245C565.316 179.758 565.587 178.261 565.863 176.791C566.01 175.996 566.087 175.183 566.483 174.453C566.635 174.172 566.816 173.899 567.035 173.665C567.82 172.814 568.913 172.783 569.75 173.592C570.03 173.866 570.27 174.186 570.477 174.518C571.39 175.972 572.288 177.435 573.192 178.905C573.298 179.078 573.393 179.113 573.588 179.063C575.79 178.486 577.991 177.918 580.203 177.35C580.659 177.233 581.118 177.19 581.585 177.276C582.6 177.461 583.045 178.215 582.701 179.175C582.545 179.612 582.274 179.979 581.971 180.329C580.433 182.095 578.892 183.87 577.363 185.629C577.238 185.773 577.235 185.876 577.322 186.039C578.244 187.733 579.156 189.424 580.082 191.138C580.301 191.544 580.47 191.967 580.475 192.432C580.485 193.492 579.69 194.361 578.611 194.517C578.007 194.603 577.445 194.477 576.878 194.306C575.498 193.89 574.118 193.48 572.726 193.073C572.598 193.035 572.549 192.985 572.526 192.851C572.367 191.9 572.193 190.951 572.024 190C572.02 189.974 572.028 189.946 572.032 189.888C573.608 190.313 575.18 190.732 576.799 191.171" fill="#E25A1C"/>
<path fill-rule="evenodd" clip-rule="evenodd" d="M574.041 205.068C572.796 205.067 571.555 205.061 570.3 205.066C570.135 205.066 570.043 205.02 569.951 204.883C568.478 202.692 566.986 200.496 565.526 198.314C565.479 198.244 565.429 198.177 565.345 198.06C565.028 200.42 564.716 202.736 564.403 205.052H561.142C561.18 204.743 561.214 204.442 561.254 204.144C561.571 201.761 561.893 199.4 562.212 197.018C562.518 194.746 562.821 192.474 563.131 190.203C563.14 190.136 563.187 190.05 563.243 190.014C564.365 189.299 565.492 188.591 566.618 187.883C566.635 187.872 566.658 187.872 566.716 187.855C566.376 190.394 566.038 192.91 565.698 195.427C565.712 195.435 565.725 195.445 565.738 195.454C567.506 193.543 569.274 191.623 571.076 189.686C571.128 189.98 571.173 190.231 571.217 190.483C571.344 191.202 571.466 191.926 571.601 192.646C571.628 192.791 571.588 192.879 571.489 192.982C570.347 194.149 569.208 195.32 568.068 196.5C568.018 196.552 567.971 196.605 567.914 196.666C567.95 196.722 567.981 196.777 568.018 196.828C569.982 199.522 571.941 202.217 573.903 204.911C573.938 204.96 573.99 204.999 574.034 205.042V205.085" fill="#3C3A3E"/>
<path fill-rule="evenodd" clip-rule="evenodd" d="M535.493 197.942C535.443 197.695 535.408 197.33 535.295 196.989C534.747 195.343 533.021 194.45 531.235 194.849C529.271 195.294 527.859 196.802 527.677 198.768C527.526 200.216 528.324 201.619 529.807 202.131C531.002 202.552 532.156 202.376 533.228 201.75C534.645 200.922 535.411 199.69 535.509 197.942H535.493ZM526.872 204.066C526.775 204.774 526.683 205.44 526.593 206.108C526.474 206.995 526.354 207.883 526.24 208.781C526.227 208.884 526.194 208.93 526.08 208.929C525.184 208.926 524.288 208.927 523.389 208.925C523.368 208.925 523.348 208.915 523.3 208.901C523.354 208.482 523.407 208.061 523.463 207.643C523.661 206.173 523.857 204.703 524.058 203.233C524.288 201.55 524.469 199.871 524.763 198.2C525.283 195.238 527.865 192.7 530.876 192.054C532.625 191.684 534.297 191.855 535.825 192.818C537.349 193.775 538.22 195.178 538.426 196.915C538.708 199.387 537.776 201.436 535.985 203.151C534.803 204.267 533.385 204.975 531.765 205.215C530.084 205.463 528.504 205.189 527.089 204.222C527.038 204.186 526.982 204.155 526.893 204.101" fill="#3C3A3E"/>
<path fill-rule="evenodd" clip-rule="evenodd" d="M525.366 190.036C524.363 190.767 523.393 191.47 522.424 192.176C522.267 191.936 522.127 191.695 521.963 191.47C521.541 190.894 521.016 190.464 520.255 190.413C519.621 190.369 519.078 190.572 518.647 191.029C518.261 191.437 518.211 192.018 518.571 192.479C518.968 192.987 519.401 193.468 519.846 193.938C520.583 194.717 521.351 195.466 522.081 196.254C522.745 196.967 523.276 197.764 523.441 198.748C523.636 199.906 523.399 200.997 522.838 202.022C521.801 203.904 520.17 205.006 518.003 205.34C517.049 205.49 516.101 205.461 515.175 205.194C513.941 204.84 513.081 204.049 512.529 202.944C512.334 202.55 512.184 202.134 512.009 201.711C513.088 201.147 514.139 200.597 515.202 200.043C515.238 200.129 515.265 200.201 515.299 200.27C515.481 200.624 515.63 201 515.853 201.328C516.522 202.296 517.598 202.59 518.682 202.112C518.962 201.988 519.234 201.815 519.464 201.615C520.167 201.005 520.299 200.154 519.779 199.388C519.48 198.947 519.106 198.551 518.741 198.156C517.87 197.212 516.962 196.297 516.118 195.328C515.532 194.665 515.133 193.894 515.005 193.012C514.867 192.041 515.066 191.128 515.582 190.317C516.866 188.289 518.73 187.244 521.193 187.311C522.6 187.361 523.725 188.004 524.592 189.073C524.849 189.389 525.091 189.716 525.353 190.059" fill="#3C3A3E"/>
<path fill-rule="evenodd" clip-rule="evenodd" d="M549.179 200.837C549.015 202.06 548.86 203.22 548.7 204.378C548.691 204.437 548.644 204.517 548.593 204.54C546.152 205.64 542.959 205.486 540.975 203.273C539.903 202.084 539.453 200.667 539.52 199.108C539.675 195.478 542.758 192.294 546.453 191.848C548.609 191.59 550.491 192.158 551.951 193.795C552.945 194.908 553.406 196.244 553.337 197.714C553.293 198.685 553.137 199.65 553.013 200.609C552.838 201.977 552.646 203.349 552.461 204.707C552.454 204.755 552.445 204.803 552.433 204.865H549.536C549.574 204.551 549.61 204.244 549.651 203.937C549.861 202.358 550.094 200.774 550.278 199.193C550.393 198.209 550.321 197.231 549.859 196.32C549.368 195.352 548.547 194.837 547.464 194.726C545.224 194.494 543.084 196.013 542.628 198.155C542.313 199.576 542.81 200.939 543.969 201.696C545.098 202.429 546.296 202.431 547.528 201.957C548.153 201.716 548.682 201.333 549.188 200.819" fill="#3C3A3E"/>
<path fill-rule="evenodd" clip-rule="evenodd" d="M561.496 192.219C561.363 193.203 561.231 194.172 561.099 195.159C560.483 195.159 559.881 195.155 559.279 195.159C558.791 195.163 558.346 195.471 558.198 195.917C558.141 196.091 558.119 196.277 558.094 196.46C557.789 198.731 557.485 200.981 557.182 203.23C557.105 203.8 557.031 204.37 556.955 204.949H553.921C553.977 204.515 554.031 204.094 554.087 203.673C554.284 202.208 554.481 200.734 554.68 199.286C554.852 198.019 555.006 196.747 555.209 195.478C555.48 193.785 557.205 192.271 558.95 192.204C559.785 192.169 560.622 192.198 561.482 192.198" fill="#3C3A3E"/>
<path fill-rule="evenodd" clip-rule="evenodd" d="M576.778 284.15C576.717 284.022 576.689 283.957 576.656 283.896C575.769 282.248 574.884 280.6 573.987 278.952C573.897 278.787 573.909 278.689 574.032 278.547C575.444 276.937 576.837 275.318 578.252 273.714C578.301 273.658 578.346 273.598 578.365 273.497C577.954 273.601 577.544 273.705 577.131 273.811C575.427 274.252 573.709 274.69 572.021 275.138C571.863 275.18 571.791 275.135 571.711 275.006C570.744 273.427 569.77 271.844 568.792 270.285C568.742 270.203 568.687 270.124 568.58 270.055C568.502 270.476 568.423 270.895 568.346 271.316C568.074 272.801 567.803 274.278 567.534 275.77C567.504 275.93 567.464 276.09 567.45 276.251C567.436 276.404 567.355 276.46 567.213 276.505C565.203 277.121 563.198 277.743 561.191 278.364C561.103 278.391 561.016 278.427 560.922 278.51C562.564 279.147 564.206 279.784 565.871 280.432C565.811 280.479 565.771 280.516 565.726 280.543C564.7 281.191 563.671 281.84 562.647 282.49C562.524 282.568 562.427 282.579 562.289 282.519C561.062 281.98 559.825 281.45 558.594 280.915C558.042 280.675 557.547 280.356 557.161 279.893C556.288 278.851 556.461 277.666 557.624 276.931C558.005 276.693 558.439 276.517 558.87 276.379C560.838 275.753 562.816 275.149 564.777 274.544C564.943 274.492 565.019 274.42 565.051 274.245C565.316 272.758 565.587 271.261 565.863 269.791C566.01 268.996 566.087 268.183 566.483 267.453C566.635 267.172 566.816 266.899 567.035 266.665C567.82 265.814 568.913 265.783 569.75 266.592C570.03 266.866 570.27 267.186 570.477 267.518C571.39 268.972 572.288 270.435 573.192 271.905C573.298 272.078 573.393 272.113 573.588 272.063C575.79 271.486 577.991 270.918 580.203 270.35C580.659 270.233 581.118 270.19 581.585 270.276C582.6 270.461 583.045 271.215 582.701 272.175C582.545 272.612 582.274 272.979 581.971 273.329C580.433 275.095 578.892 276.87 577.363 278.629C577.238 278.773 577.235 278.876 577.322 279.039C578.244 280.733 579.156 282.424 580.082 284.138C580.301 284.544 580.47 284.967 580.475 285.432C580.485 286.492 579.69 287.361 578.611 287.517C578.007 287.603 577.445 287.477 576.878 287.306C575.498 286.89 574.118 286.48 572.726 286.073C572.598 286.035 572.549 285.985 572.526 285.851C572.367 284.9 572.193 283.951 572.024 283C572.02 282.974 572.028 282.946 572.032 282.888C573.608 283.313 575.18 283.732 576.799 284.171" fill="#E25A1C"/>
<path fill-rule="evenodd" clip-rule="evenodd" d="M574.041 298.068C572.796 298.067 571.555 298.061 570.3 298.066C570.135 298.066 570.043 298.02 569.951 297.883C568.478 295.692 566.986 293.496 565.526 291.314C565.479 291.244 565.429 291.177 565.345 291.06C565.028 293.42 564.716 295.736 564.403 298.052H561.142C561.18 297.743 561.214 297.442 561.254 297.144C561.571 294.761 561.893 292.4 562.212 290.018C562.518 287.746 562.821 285.474 563.131 283.203C563.14 283.136 563.187 283.05 563.243 283.014C564.365 282.299 565.492 281.591 566.618 280.883C566.635 280.872 566.658 280.872 566.716 280.855C566.376 283.394 566.038 285.91 565.698 288.427C565.712 288.435 565.725 288.445 565.738 288.454C567.506 286.543 569.274 284.623 571.076 282.686C571.128 282.98 571.173 283.231 571.217 283.483C571.344 284.202 571.466 284.926 571.601 285.646C571.628 285.791 571.588 285.879 571.489 285.982C570.347 287.149 569.208 288.32 568.068 289.5C568.018 289.552 567.971 289.605 567.914 289.666C567.95 289.722 567.981 289.777 568.018 289.828C569.982 292.522 571.941 295.217 573.903 297.911C573.938 297.96 573.99 297.999 574.034 298.042V298.085" fill="#3C3A3E"/>
<path fill-rule="evenodd" clip-rule="evenodd" d="M535.493 290.942C535.443 290.695 535.408 290.33 535.295 289.989C534.747 288.343 533.021 287.45 531.235 287.849C529.271 288.294 527.859 289.802 527.677 291.768C527.526 293.216 528.324 294.619 529.807 295.131C531.002 295.552 532.156 295.376 533.228 294.75C534.645 293.922 535.411 292.69 535.509 290.942H535.493ZM526.872 297.066C526.775 297.774 526.683 298.44 526.593 299.108C526.474 299.995 526.354 300.883 526.24 301.781C526.227 301.884 526.194 301.93 526.08 301.929C525.184 301.926 524.288 301.927 523.389 301.925C523.368 301.925 523.348 301.915 523.3 301.901C523.354 301.482 523.407 301.061 523.463 300.643C523.661 299.173 523.857 297.703 524.058 296.233C524.288 294.55 524.469 292.871 524.763 291.2C525.283 288.238 527.865 285.7 530.876 285.054C532.625 284.684 534.297 284.855 535.825 285.818C537.349 286.775 538.22 288.178 538.426 289.915C538.708 292.387 537.776 294.436 535.985 296.151C534.803 297.267 533.385 297.975 531.765 298.215C530.084 298.463 528.504 298.189 527.089 297.222C527.038 297.186 526.982 297.155 526.893 297.101" fill="#3C3A3E"/>
<path fill-rule="evenodd" clip-rule="evenodd" d="M525.366 283.036C524.363 283.767 523.393 284.47 522.424 285.176C522.267 284.936 522.127 284.695 521.963 284.47C521.541 283.894 521.016 283.464 520.255 283.413C519.621 283.369 519.078 283.572 518.647 284.029C518.261 284.437 518.211 285.018 518.571 285.479C518.968 285.987 519.401 286.468 519.846 286.938C520.583 287.717 521.351 288.466 522.081 289.254C522.745 289.967 523.276 290.764 523.441 291.748C523.636 292.906 523.399 293.997 522.838 295.022C521.801 296.904 520.17 298.006 518.003 298.34C517.049 298.49 516.101 298.461 515.175 298.194C513.941 297.84 513.081 297.049 512.529 295.944C512.334 295.55 512.184 295.134 512.009 294.711C513.088 294.147 514.139 293.597 515.202 293.043C515.238 293.129 515.265 293.201 515.299 293.27C515.481 293.624 515.63 294 515.853 294.328C516.522 295.296 517.598 295.59 518.682 295.112C518.962 294.988 519.234 294.815 519.464 294.615C520.167 294.005 520.299 293.154 519.779 292.388C519.48 291.947 519.106 291.551 518.741 291.156C517.87 290.212 516.962 289.297 516.118 288.328C515.532 287.665 515.133 286.894 515.005 286.012C514.867 285.041 515.066 284.128 515.582 283.317C516.866 281.289 518.73 280.244 521.193 280.311C522.6 280.361 523.725 281.004 524.592 282.073C524.849 282.389 525.091 282.716 525.353 283.059" fill="#3C3A3E"/>
<path fill-rule="evenodd" clip-rule="evenodd" d="M549.179 293.837C549.015 295.06 548.86 296.22 548.7 297.378C548.691 297.437 548.644 297.517 548.593 297.54C546.152 298.64 542.959 298.486 540.975 296.273C539.903 295.084 539.453 293.667 539.52 292.108C539.675 288.478 542.758 285.294 546.453 284.848C548.609 284.59 550.491 285.158 551.951 286.795C552.945 287.908 553.406 289.244 553.337 290.714C553.293 291.685 553.137 292.65 553.013 293.609C552.838 294.977 552.646 296.349 552.461 297.707C552.454 297.755 552.445 297.803 552.433 297.865H549.536C549.574 297.551 549.61 297.244 549.651 296.937C549.861 295.358 550.094 293.774 550.278 292.193C550.393 291.209 550.321 290.231 549.859 289.32C549.368 288.352 548.547 287.837 547.464 287.726C545.224 287.494 543.084 289.013 542.628 291.155C542.313 292.576 542.81 293.939 543.969 294.696C545.098 295.429 546.296 295.431 547.528 294.957C548.153 294.716 548.682 294.333 549.188 293.819" fill="#3C3A3E"/>
<path fill-rule="evenodd" clip-rule="evenodd" d="M561.496 285.219C561.363 286.203 561.231 287.172 561.099 288.159C560.483 288.159 559.881 288.155 559.279 288.159C558.791 288.163 558.346 288.471 558.198 288.917C558.141 289.091 558.119 289.277 558.094 289.46C557.789 291.731 557.485 293.981 557.182 296.23C557.105 296.8 557.031 297.37 556.955 297.949H553.921C553.977 297.515 554.031 297.094 554.087 296.673C554.284 295.208 554.481 293.734 554.68 292.286C554.852 291.019 555.006 289.747 555.209 288.478C555.48 286.785 557.205 285.271 558.95 285.204C559.785 285.169 560.622 285.198 561.482 285.198" fill="#3C3A3E"/>
<path d="M514.934 136.5L512.085 125.763H513.543L515.176 132.801C515.352 133.539 515.503 134.271 515.63 134.999C515.904 133.851 516.065 133.189 516.114 133.014L518.157 125.763H519.871L521.409 131.197C521.795 132.545 522.073 133.812 522.244 134.999C522.381 134.32 522.559 133.541 522.779 132.662L524.463 125.763H525.891L522.947 136.5H521.577L519.314 128.319C519.124 127.635 519.011 127.215 518.977 127.059C518.865 127.552 518.76 127.972 518.662 128.319L516.385 136.5H514.934Z" fill="#2D2D2D"/>
<path d="M526.992 131.271C526.992 129.488 527.471 128.094 528.428 127.088C529.385 126.078 530.62 125.572 532.134 125.572C533.125 125.572 534.019 125.809 534.815 126.283C535.61 126.756 536.216 127.418 536.631 128.268C537.051 129.112 537.261 130.072 537.261 131.146C537.261 132.235 537.041 133.209 536.602 134.068C536.162 134.928 535.54 135.58 534.734 136.024C533.928 136.463 533.059 136.683 532.127 136.683C531.116 136.683 530.212 136.439 529.417 135.951C528.621 135.462 528.018 134.796 527.607 133.951C527.197 133.106 526.992 132.213 526.992 131.271ZM528.457 131.292C528.457 132.586 528.804 133.607 529.497 134.354C530.195 135.096 531.069 135.467 532.119 135.467C533.189 135.467 534.067 135.091 534.756 134.339C535.449 133.587 535.796 132.521 535.796 131.139C535.796 130.265 535.647 129.503 535.349 128.854C535.056 128.199 534.624 127.694 534.053 127.337C533.486 126.976 532.849 126.795 532.141 126.795C531.135 126.795 530.269 127.142 529.541 127.835C528.818 128.524 528.457 129.676 528.457 131.292Z" fill="#2D2D2D"/>
<path d="M539.321 136.5V125.763H544.082C545.039 125.763 545.766 125.86 546.265 126.056C546.763 126.246 547.161 126.585 547.458 127.074C547.756 127.562 547.905 128.102 547.905 128.692C547.905 129.454 547.659 130.096 547.165 130.619C546.672 131.141 545.911 131.473 544.88 131.615C545.256 131.795 545.542 131.974 545.737 132.149C546.152 132.53 546.545 133.006 546.916 133.578L548.784 136.5H546.997L545.576 134.266C545.161 133.622 544.819 133.128 544.551 132.787C544.282 132.445 544.04 132.206 543.826 132.069C543.616 131.932 543.401 131.837 543.181 131.783C543.02 131.749 542.756 131.732 542.39 131.732H540.742V136.5H539.321ZM540.742 130.501H543.796C544.446 130.501 544.953 130.436 545.32 130.304C545.686 130.167 545.964 129.952 546.155 129.659C546.345 129.361 546.44 129.039 546.44 128.692C546.44 128.185 546.255 127.767 545.884 127.44C545.517 127.113 544.936 126.949 544.141 126.949H540.742V130.501Z" fill="#2D2D2D"/>
<path d="M550.28 136.5V125.763H551.701V131.087L557.033 125.763H558.96L554.455 130.113L559.157 136.5H557.282L553.459 131.065L551.701 132.779V136.5H550.28Z" fill="#2D2D2D"/>
<path d="M560.573 136.5V125.763H568.337V127.03H561.994V130.318H567.934V131.578H561.994V135.233H568.586V136.5H560.573Z" fill="#2D2D2D"/>
<path d="M570.771 136.5V125.763H575.532C576.489 125.763 577.216 125.86 577.714 126.056C578.212 126.246 578.61 126.585 578.908 127.074C579.206 127.562 579.355 128.102 579.355 128.692C579.355 129.454 579.108 130.096 578.615 130.619C578.122 131.141 577.36 131.473 576.33 131.615C576.706 131.795 576.991 131.974 577.187 132.149C577.602 132.53 577.995 133.006 578.366 133.578L580.234 136.5H578.447L577.026 134.266C576.611 133.622 576.269 133.128 576 132.787C575.732 132.445 575.49 132.206 575.275 132.069C575.065 131.932 574.85 131.837 574.631 131.783C574.47 131.749 574.206 131.732 573.84 131.732H572.192V136.5H570.771ZM572.192 130.501H575.246C575.895 130.501 576.403 130.436 576.769 130.304C577.136 130.167 577.414 129.952 577.604 129.659C577.795 129.361 577.89 129.039 577.89 128.692C577.89 128.185 577.704 127.767 577.333 127.44C576.967 127.113 576.386 126.949 575.59 126.949H572.192V130.501Z" fill="#2D2D2D"/>
<path d="M514.934 228.5L512.085 217.763H513.543L515.176 224.801C515.352 225.539 515.503 226.271 515.63 226.999C515.904 225.851 516.065 225.189 516.114 225.014L518.157 217.763H519.871L521.409 223.197C521.795 224.545 522.073 225.812 522.244 226.999C522.381 226.32 522.559 225.541 522.779 224.662L524.463 217.763H525.891L522.947 228.5H521.577L519.314 220.319C519.124 219.635 519.011 219.215 518.977 219.059C518.865 219.552 518.76 219.972 518.662 220.319L516.385 228.5H514.934Z" fill="#2D2D2D"/>
<path d="M526.992 223.271C526.992 221.488 527.471 220.094 528.428 219.088C529.385 218.078 530.62 217.572 532.134 217.572C533.125 217.572 534.019 217.809 534.815 218.283C535.61 218.756 536.216 219.418 536.631 220.268C537.051 221.112 537.261 222.072 537.261 223.146C537.261 224.235 537.041 225.209 536.602 226.068C536.162 226.928 535.54 227.58 534.734 228.024C533.928 228.463 533.059 228.683 532.127 228.683C531.116 228.683 530.212 228.439 529.417 227.951C528.621 227.462 528.018 226.796 527.607 225.951C527.197 225.106 526.992 224.213 526.992 223.271ZM528.457 223.292C528.457 224.586 528.804 225.607 529.497 226.354C530.195 227.096 531.069 227.467 532.119 227.467C533.189 227.467 534.067 227.091 534.756 226.339C535.449 225.587 535.796 224.521 535.796 223.139C535.796 222.265 535.647 221.503 535.349 220.854C535.056 220.199 534.624 219.694 534.053 219.337C533.486 218.976 532.849 218.795 532.141 218.795C531.135 218.795 530.269 219.142 529.541 219.835C528.818 220.524 528.457 221.676 528.457 223.292Z" fill="#2D2D2D"/>
<path d="M539.321 228.5V217.763H544.082C545.039 217.763 545.766 217.86 546.265 218.056C546.763 218.246 547.161 218.585 547.458 219.074C547.756 219.562 547.905 220.102 547.905 220.692C547.905 221.454 547.659 222.096 547.165 222.619C546.672 223.141 545.911 223.473 544.88 223.615C545.256 223.795 545.542 223.974 545.737 224.149C546.152 224.53 546.545 225.006 546.916 225.578L548.784 228.5H546.997L545.576 226.266C545.161 225.622 544.819 225.128 544.551 224.787C544.282 224.445 544.04 224.206 543.826 224.069C543.616 223.932 543.401 223.837 543.181 223.783C543.02 223.749 542.756 223.732 542.39 223.732H540.742V228.5H539.321ZM540.742 222.501H543.796C544.446 222.501 544.953 222.436 545.32 222.304C545.686 222.167 545.964 221.952 546.155 221.659C546.345 221.361 546.44 221.039 546.44 220.692C546.44 220.185 546.255 219.767 545.884 219.44C545.517 219.113 544.936 218.949 544.141 218.949H540.742V222.501Z" fill="#2D2D2D"/>
<path d="M550.28 228.5V217.763H551.701V223.087L557.033 217.763H558.96L554.455 222.113L559.157 228.5H557.282L553.459 223.065L551.701 224.779V228.5H550.28Z" fill="#2D2D2D"/>
<path d="M560.573 228.5V217.763H568.337V219.03H561.994V222.318H567.934V223.578H561.994V227.233H568.586V228.5H560.573Z" fill="#2D2D2D"/>
<path d="M570.771 228.5V217.763H575.532C576.489 217.763 577.216 217.86 577.714 218.056C578.212 218.246 578.61 218.585 578.908 219.074C579.206 219.562 579.355 220.102 579.355 220.692C579.355 221.454 579.108 222.096 578.615 222.619C578.122 223.141 577.36 223.473 576.33 223.615C576.706 223.795 576.991 223.974 577.187 224.149C577.602 224.53 577.995 225.006 578.366 225.578L580.234 228.5H578.447L577.026 226.266C576.611 225.622 576.269 225.128 576 224.787C575.732 224.445 575.49 224.206 575.275 224.069C575.065 223.932 574.85 223.837 574.631 223.783C574.47 223.749 574.206 223.732 573.84 223.732H572.192V228.5H570.771ZM572.192 222.501H575.246C575.895 222.501 576.403 222.436 576.769 222.304C577.136 222.167 577.414 221.952 577.604 221.659C577.795 221.361 577.89 221.039 577.89 220.692C577.89 220.185 577.704 219.767 577.333 219.44C576.967 219.113 576.386 218.949 575.59 218.949H572.192V222.501Z" fill="#2D2D2D"/>
<path d="M514.934 321.5L512.085 310.763H513.543L515.176 317.801C515.352 318.539 515.503 319.271 515.63 319.999C515.904 318.851 516.065 318.189 516.114 318.014L518.157 310.763H519.871L521.409 316.197C521.795 317.545 522.073 318.812 522.244 319.999C522.381 319.32 522.559 318.541 522.779 317.662L524.463 310.763H525.891L522.947 321.5H521.577L519.314 313.319C519.124 312.635 519.011 312.215 518.977 312.059C518.865 312.552 518.76 312.972 518.662 313.319L516.385 321.5H514.934Z" fill="#2D2D2D"/>
<path d="M526.992 316.271C526.992 314.488 527.471 313.094 528.428 312.088C529.385 311.078 530.62 310.572 532.134 310.572C533.125 310.572 534.019 310.809 534.815 311.283C535.61 311.756 536.216 312.418 536.631 313.268C537.051 314.112 537.261 315.072 537.261 316.146C537.261 317.235 537.041 318.209 536.602 319.068C536.162 319.928 535.54 320.58 534.734 321.024C533.928 321.463 533.059 321.683 532.127 321.683C531.116 321.683 530.212 321.439 529.417 320.951C528.621 320.462 528.018 319.796 527.607 318.951C527.197 318.106 526.992 317.213 526.992 316.271ZM528.457 316.292C528.457 317.586 528.804 318.607 529.497 319.354C530.195 320.096 531.069 320.467 532.119 320.467C533.189 320.467 534.067 320.091 534.756 319.339C535.449 318.587 535.796 317.521 535.796 316.139C535.796 315.265 535.647 314.503 535.349 313.854C535.056 313.199 534.624 312.694 534.053 312.337C533.486 311.976 532.849 311.795 532.141 311.795C531.135 311.795 530.269 312.142 529.541 312.835C528.818 313.524 528.457 314.676 528.457 316.292Z" fill="#2D2D2D"/>
<path d="M539.321 321.5V310.763H544.082C545.039 310.763 545.766 310.86 546.265 311.056C546.763 311.246 547.161 311.585 547.458 312.074C547.756 312.562 547.905 313.102 547.905 313.692C547.905 314.454 547.659 315.096 547.165 315.619C546.672 316.141 545.911 316.473 544.88 316.615C545.256 316.795 545.542 316.974 545.737 317.149C546.152 317.53 546.545 318.006 546.916 318.578L548.784 321.5H546.997L545.576 319.266C545.161 318.622 544.819 318.128 544.551 317.787C544.282 317.445 544.04 317.206 543.826 317.069C543.616 316.932 543.401 316.837 543.181 316.783C543.02 316.749 542.756 316.732 542.39 316.732H540.742V321.5H539.321ZM540.742 315.501H543.796C544.446 315.501 544.953 315.436 545.32 315.304C545.686 315.167 545.964 314.952 546.155 314.659C546.345 314.361 546.44 314.039 546.44 313.692C546.44 313.185 546.255 312.767 545.884 312.44C545.517 312.113 544.936 311.949 544.141 311.949H540.742V315.501Z" fill="#2D2D2D"/>
<path d="M550.28 321.5V310.763H551.701V316.087L557.033 310.763H558.96L554.455 315.113L559.157 321.5H557.282L553.459 316.065L551.701 317.779V321.5H550.28Z" fill="#2D2D2D"/>
<path d="M560.573 321.5V310.763H568.337V312.03H561.994V315.318H567.934V316.578H561.994V320.233H568.586V321.5H560.573Z" fill="#2D2D2D"/>
<path d="M570.771 321.5V310.763H575.532C576.489 310.763 577.216 310.86 577.714 311.056C578.212 311.246 578.61 311.585 578.908 312.074C579.206 312.562 579.355 313.102 579.355 313.692C579.355 314.454 579.108 315.096 578.615 315.619C578.122 316.141 577.36 316.473 576.33 316.615C576.706 316.795 576.991 316.974 577.187 317.149C577.602 317.53 577.995 318.006 578.366 318.578L580.234 321.5H578.447L577.026 319.266C576.611 318.622 576.269 318.128 576 317.787C575.732 317.445 575.49 317.206 575.275 317.069C575.065 316.932 574.85 316.837 574.631 316.783C574.47 316.749 574.206 316.732 573.84 316.732H572.192V321.5H570.771ZM572.192 315.501H575.246C575.895 315.501 576.403 315.436 576.769 315.304C577.136 315.167 577.414 314.952 577.604 314.659C577.795 314.361 577.89 314.039 577.89 313.692C577.89 313.185 577.704 312.767 577.333 312.44C576.967 312.113 576.386 311.949 575.59 311.949H572.192V315.501Z" fill="#2D2D2D"/>
<path d="M626.738 183.82L628.168 183.695C628.235 184.268 628.392 184.74 628.637 185.109C628.887 185.474 629.272 185.771 629.793 186C630.314 186.224 630.9 186.336 631.551 186.336C632.129 186.336 632.639 186.25 633.082 186.078C633.525 185.906 633.853 185.672 634.066 185.375C634.285 185.073 634.394 184.745 634.394 184.391C634.394 184.031 634.29 183.719 634.082 183.453C633.873 183.182 633.53 182.956 633.051 182.773C632.743 182.654 632.064 182.469 631.012 182.219C629.959 181.964 629.222 181.724 628.801 181.5C628.254 181.214 627.845 180.859 627.574 180.438C627.308 180.01 627.176 179.534 627.176 179.008C627.176 178.43 627.34 177.891 627.668 177.391C627.996 176.885 628.475 176.503 629.105 176.242C629.735 175.982 630.436 175.852 631.207 175.852C632.056 175.852 632.803 175.99 633.449 176.266C634.1 176.536 634.6 176.938 634.949 177.469C635.298 178 635.485 178.602 635.512 179.273L634.058 179.383C633.98 178.659 633.715 178.112 633.262 177.742C632.814 177.372 632.15 177.188 631.269 177.188C630.353 177.188 629.683 177.357 629.262 177.695C628.845 178.029 628.637 178.432 628.637 178.906C628.637 179.318 628.785 179.656 629.082 179.922C629.373 180.188 630.134 180.461 631.363 180.742C632.597 181.018 633.444 181.26 633.902 181.469C634.569 181.776 635.061 182.167 635.379 182.641C635.696 183.109 635.855 183.651 635.855 184.266C635.855 184.875 635.681 185.451 635.332 185.992C634.983 186.529 634.48 186.948 633.824 187.25C633.173 187.547 632.439 187.695 631.621 187.695C630.584 187.695 629.715 187.544 629.012 187.242C628.314 186.94 627.764 186.487 627.363 185.883C626.967 185.273 626.759 184.586 626.738 183.82Z" fill="#2D2D2D"/>
<path d="M637.946 187.5V176.047H639.352V180.156C640.008 179.396 640.837 179.016 641.837 179.016C642.451 179.016 642.985 179.138 643.438 179.383C643.891 179.622 644.214 179.956 644.407 180.383C644.605 180.81 644.704 181.43 644.704 182.242V187.5H643.297V182.242C643.297 181.539 643.144 181.029 642.837 180.711C642.534 180.388 642.105 180.227 641.547 180.227C641.131 180.227 640.738 180.336 640.368 180.555C640.003 180.768 639.743 181.06 639.587 181.43C639.43 181.799 639.352 182.31 639.352 182.961V187.5H637.946Z" fill="#2D2D2D"/>
<path d="M652.466 186.477C651.945 186.919 651.443 187.232 650.958 187.414C650.479 187.596 649.964 187.688 649.412 187.688C648.5 187.688 647.8 187.466 647.31 187.023C646.82 186.576 646.576 186.005 646.576 185.312C646.576 184.906 646.667 184.536 646.849 184.203C647.037 183.865 647.279 183.594 647.576 183.391C647.878 183.188 648.216 183.034 648.591 182.93C648.867 182.857 649.284 182.786 649.841 182.719C650.977 182.583 651.813 182.422 652.349 182.234C652.354 182.042 652.357 181.919 652.357 181.867C652.357 181.294 652.224 180.891 651.958 180.656C651.599 180.339 651.065 180.18 650.357 180.18C649.695 180.18 649.206 180.297 648.888 180.531C648.576 180.76 648.344 181.169 648.193 181.758L646.818 181.57C646.943 180.982 647.148 180.508 647.435 180.148C647.721 179.784 648.135 179.505 648.677 179.312C649.219 179.115 649.846 179.016 650.56 179.016C651.268 179.016 651.844 179.099 652.287 179.266C652.729 179.432 653.055 179.643 653.263 179.898C653.471 180.148 653.617 180.466 653.701 180.852C653.747 181.091 653.771 181.523 653.771 182.148V184.023C653.771 185.331 653.8 186.159 653.857 186.508C653.919 186.852 654.039 187.182 654.216 187.5H652.747C652.602 187.208 652.508 186.867 652.466 186.477ZM652.349 183.336C651.839 183.544 651.073 183.721 650.052 183.867C649.474 183.951 649.065 184.044 648.826 184.148C648.586 184.253 648.401 184.406 648.271 184.609C648.141 184.807 648.076 185.029 648.076 185.273C648.076 185.648 648.216 185.961 648.497 186.211C648.784 186.461 649.201 186.586 649.747 186.586C650.289 186.586 650.771 186.469 651.193 186.234C651.615 185.995 651.925 185.669 652.122 185.258C652.273 184.94 652.349 184.471 652.349 183.852V183.336Z" fill="#2D2D2D"/>
<path d="M656.143 187.5V179.203H657.408V180.461C657.731 179.872 658.028 179.484 658.299 179.297C658.575 179.109 658.877 179.016 659.205 179.016C659.679 179.016 660.161 179.167 660.651 179.469L660.166 180.773C659.822 180.57 659.479 180.469 659.135 180.469C658.828 180.469 658.552 180.562 658.307 180.75C658.062 180.932 657.888 181.188 657.783 181.516C657.627 182.016 657.549 182.562 657.549 183.156V187.5H656.143Z" fill="#2D2D2D"/>
<path d="M667.366 184.828L668.819 185.008C668.59 185.857 668.166 186.516 667.546 186.984C666.926 187.453 666.134 187.688 665.171 187.688C663.957 187.688 662.994 187.315 662.28 186.57C661.572 185.82 661.218 184.771 661.218 183.422C661.218 182.026 661.577 180.943 662.296 180.172C663.015 179.401 663.947 179.016 665.093 179.016C666.202 179.016 667.108 179.393 667.812 180.148C668.515 180.904 668.866 181.966 668.866 183.336C668.866 183.419 668.864 183.544 668.858 183.711H662.671C662.723 184.622 662.981 185.32 663.444 185.805C663.908 186.289 664.486 186.531 665.179 186.531C665.694 186.531 666.134 186.396 666.499 186.125C666.864 185.854 667.153 185.422 667.366 184.828ZM662.749 182.555H667.382C667.319 181.857 667.142 181.333 666.851 180.984C666.403 180.443 665.822 180.172 665.108 180.172C664.463 180.172 663.918 180.388 663.476 180.82C663.038 181.253 662.796 181.831 662.749 182.555Z" fill="#2D2D2D"/>
<path d="M676.176 187.5V186.453C675.65 187.276 674.876 187.688 673.855 187.688C673.194 187.688 672.584 187.505 672.027 187.141C671.475 186.776 671.045 186.268 670.738 185.617C670.436 184.961 670.285 184.208 670.285 183.359C670.285 182.531 670.423 181.781 670.699 181.109C670.975 180.432 671.389 179.914 671.941 179.555C672.493 179.195 673.11 179.016 673.793 179.016C674.293 179.016 674.738 179.122 675.129 179.336C675.519 179.544 675.837 179.818 676.082 180.156V176.047H677.48V187.5H676.176ZM671.73 183.359C671.73 184.422 671.954 185.216 672.402 185.742C672.85 186.268 673.379 186.531 673.988 186.531C674.603 186.531 675.123 186.281 675.551 185.781C675.983 185.276 676.199 184.508 676.199 183.477C676.199 182.341 675.98 181.508 675.543 180.977C675.105 180.445 674.566 180.18 673.926 180.18C673.301 180.18 672.777 180.435 672.355 180.945C671.939 181.456 671.73 182.26 671.73 183.359Z" fill="#2D2D2D"/>
<path d="M684.755 187.5V176.047H689.833C690.854 176.047 691.63 176.151 692.162 176.359C692.693 176.562 693.117 176.924 693.435 177.445C693.753 177.966 693.912 178.542 693.912 179.172C693.912 179.984 693.648 180.669 693.122 181.227C692.596 181.784 691.784 182.138 690.685 182.289C691.086 182.482 691.391 182.672 691.599 182.859C692.042 183.266 692.461 183.773 692.857 184.383L694.849 187.5H692.943L691.427 185.117C690.984 184.43 690.62 183.904 690.333 183.539C690.047 183.174 689.789 182.919 689.56 182.773C689.336 182.628 689.107 182.526 688.872 182.469C688.701 182.432 688.419 182.414 688.029 182.414H686.271V187.5H684.755ZM686.271 181.102H689.529C690.221 181.102 690.763 181.031 691.154 180.891C691.544 180.745 691.841 180.516 692.044 180.203C692.247 179.885 692.349 179.542 692.349 179.172C692.349 178.63 692.151 178.185 691.755 177.836C691.365 177.487 690.745 177.312 689.896 177.312H686.271V181.102Z" fill="#2D2D2D"/>
<path d="M696.494 187.5V176.047H700.44C701.33 176.047 702.01 176.102 702.479 176.211C703.135 176.362 703.695 176.635 704.158 177.031C704.763 177.542 705.213 178.195 705.51 178.992C705.812 179.784 705.963 180.69 705.963 181.711C705.963 182.581 705.862 183.352 705.658 184.023C705.455 184.695 705.195 185.253 704.877 185.695C704.559 186.133 704.21 186.479 703.83 186.734C703.455 186.984 703 187.174 702.463 187.305C701.932 187.435 701.32 187.5 700.627 187.5H696.494ZM698.01 186.148H700.455C701.21 186.148 701.802 186.078 702.229 185.938C702.661 185.797 703.005 185.599 703.26 185.344C703.619 184.984 703.898 184.503 704.096 183.898C704.299 183.289 704.401 182.552 704.401 181.688C704.401 180.49 704.203 179.57 703.807 178.93C703.416 178.284 702.94 177.852 702.377 177.633C701.971 177.477 701.317 177.398 700.416 177.398H698.01V186.148Z" fill="#2D2D2D"/>
<path d="M708.257 187.5V176.047H712.202C713.093 176.047 713.772 176.102 714.241 176.211C714.897 176.362 715.457 176.635 715.921 177.031C716.525 177.542 716.976 178.195 717.272 178.992C717.575 179.784 717.726 180.69 717.726 181.711C717.726 182.581 717.624 183.352 717.421 184.023C717.218 184.695 716.957 185.253 716.64 185.695C716.322 186.133 715.973 186.479 715.593 186.734C715.218 186.984 714.762 187.174 714.226 187.305C713.694 187.435 713.082 187.5 712.39 187.5H708.257ZM709.772 186.148H712.218C712.973 186.148 713.564 186.078 713.991 185.938C714.423 185.797 714.767 185.599 715.022 185.344C715.382 184.984 715.66 184.503 715.858 183.898C716.062 183.289 716.163 182.552 716.163 181.688C716.163 180.49 715.965 179.57 715.569 178.93C715.179 178.284 714.702 177.852 714.14 177.633C713.733 177.477 713.08 177.398 712.179 177.398H709.772V186.148Z" fill="#2D2D2D"/>
<path d="M719.277 185.023L720.668 184.805C720.746 185.362 720.962 185.789 721.316 186.086C721.676 186.383 722.176 186.531 722.816 186.531C723.462 186.531 723.941 186.401 724.254 186.141C724.566 185.875 724.722 185.565 724.722 185.211C724.722 184.893 724.584 184.643 724.308 184.461C724.116 184.336 723.637 184.177 722.871 183.984C721.84 183.724 721.123 183.5 720.722 183.312C720.327 183.12 720.025 182.857 719.816 182.523C719.613 182.185 719.512 181.812 719.512 181.406C719.512 181.036 719.595 180.695 719.762 180.383C719.933 180.065 720.165 179.802 720.457 179.594C720.676 179.432 720.972 179.297 721.347 179.188C721.728 179.073 722.134 179.016 722.566 179.016C723.217 179.016 723.788 179.109 724.277 179.297C724.772 179.484 725.137 179.74 725.371 180.062C725.605 180.38 725.767 180.807 725.855 181.344L724.48 181.531C724.418 181.104 724.235 180.771 723.933 180.531C723.637 180.292 723.215 180.172 722.668 180.172C722.022 180.172 721.561 180.279 721.285 180.492C721.009 180.706 720.871 180.956 720.871 181.242C720.871 181.424 720.928 181.589 721.043 181.734C721.157 181.885 721.337 182.01 721.582 182.109C721.722 182.161 722.137 182.281 722.824 182.469C723.819 182.734 724.512 182.953 724.902 183.125C725.298 183.292 725.608 183.536 725.832 183.859C726.056 184.182 726.168 184.583 726.168 185.062C726.168 185.531 726.03 185.974 725.754 186.391C725.483 186.802 725.09 187.122 724.574 187.352C724.058 187.576 723.475 187.688 722.824 187.688C721.746 187.688 720.923 187.464 720.355 187.016C719.793 186.568 719.433 185.904 719.277 185.023Z" fill="#2D2D2D"/>
<path d="M635.362 233.5V222.047H639.307C640.197 222.047 640.877 222.102 641.346 222.211C642.002 222.362 642.562 222.635 643.026 223.031C643.63 223.542 644.08 224.195 644.377 224.992C644.679 225.784 644.83 226.69 644.83 227.711C644.83 228.581 644.729 229.352 644.526 230.023C644.322 230.695 644.062 231.253 643.744 231.695C643.427 232.133 643.078 232.479 642.697 232.734C642.322 232.984 641.867 233.174 641.33 233.305C640.799 233.435 640.187 233.5 639.494 233.5H635.362ZM636.877 232.148H639.322C640.078 232.148 640.669 232.078 641.096 231.938C641.528 231.797 641.872 231.599 642.127 231.344C642.487 230.984 642.765 230.503 642.963 229.898C643.166 229.289 643.268 228.552 643.268 227.688C643.268 226.49 643.07 225.57 642.674 224.93C642.283 224.284 641.807 223.852 641.244 223.633C640.838 223.477 640.184 223.398 639.283 223.398H636.877V232.148Z" fill="#2D2D2D"/>
<path d="M652.358 232.477C651.838 232.919 651.335 233.232 650.851 233.414C650.371 233.596 649.856 233.688 649.304 233.688C648.392 233.688 647.692 233.466 647.202 233.023C646.713 232.576 646.468 232.005 646.468 231.312C646.468 230.906 646.559 230.536 646.741 230.203C646.929 229.865 647.171 229.594 647.468 229.391C647.77 229.188 648.108 229.034 648.483 228.93C648.759 228.857 649.176 228.786 649.733 228.719C650.869 228.583 651.705 228.422 652.241 228.234C652.246 228.042 652.249 227.919 652.249 227.867C652.249 227.294 652.116 226.891 651.851 226.656C651.491 226.339 650.957 226.18 650.249 226.18C649.588 226.18 649.098 226.297 648.78 226.531C648.468 226.76 648.236 227.169 648.085 227.758L646.71 227.57C646.835 226.982 647.041 226.508 647.327 226.148C647.614 225.784 648.028 225.505 648.569 225.312C649.111 225.115 649.739 225.016 650.452 225.016C651.16 225.016 651.736 225.099 652.179 225.266C652.621 225.432 652.947 225.643 653.155 225.898C653.364 226.148 653.509 226.466 653.593 226.852C653.64 227.091 653.663 227.523 653.663 228.148V230.023C653.663 231.331 653.692 232.159 653.749 232.508C653.812 232.852 653.931 233.182 654.108 233.5H652.64C652.494 233.208 652.4 232.867 652.358 232.477ZM652.241 229.336C651.731 229.544 650.965 229.721 649.944 229.867C649.366 229.951 648.957 230.044 648.718 230.148C648.478 230.253 648.293 230.406 648.163 230.609C648.033 230.807 647.968 231.029 647.968 231.273C647.968 231.648 648.108 231.961 648.39 232.211C648.676 232.461 649.093 232.586 649.64 232.586C650.181 232.586 650.663 232.469 651.085 232.234C651.507 231.995 651.817 231.669 652.015 231.258C652.166 230.94 652.241 230.471 652.241 229.852V229.336Z" fill="#2D2D2D"/>
<path d="M659.121 232.242L659.324 233.484C658.928 233.568 658.574 233.609 658.262 233.609C657.751 233.609 657.355 233.529 657.074 233.367C656.793 233.206 656.595 232.995 656.48 232.734C656.366 232.469 656.308 231.914 656.308 231.07V226.297H655.277V225.203H656.308V223.148L657.707 222.305V225.203H659.121V226.297H657.707V231.148C657.707 231.549 657.73 231.807 657.777 231.922C657.829 232.036 657.91 232.128 658.019 232.195C658.134 232.263 658.295 232.297 658.504 232.297C658.66 232.297 658.866 232.279 659.121 232.242Z" fill="#2D2D2D"/>
<path d="M666.118 232.477C665.597 232.919 665.094 233.232 664.61 233.414C664.131 233.596 663.615 233.688 663.063 233.688C662.152 233.688 661.451 233.466 660.962 233.023C660.472 232.576 660.227 232.005 660.227 231.312C660.227 230.906 660.318 230.536 660.501 230.203C660.688 229.865 660.93 229.594 661.227 229.391C661.529 229.188 661.868 229.034 662.243 228.93C662.519 228.857 662.935 228.786 663.493 228.719C664.628 228.583 665.464 228.422 666.001 228.234C666.006 228.042 666.008 227.919 666.008 227.867C666.008 227.294 665.876 226.891 665.61 226.656C665.251 226.339 664.717 226.18 664.008 226.18C663.347 226.18 662.857 226.297 662.54 226.531C662.227 226.76 661.995 227.169 661.844 227.758L660.469 227.57C660.594 226.982 660.8 226.508 661.087 226.148C661.373 225.784 661.787 225.505 662.329 225.312C662.87 225.115 663.498 225.016 664.212 225.016C664.92 225.016 665.495 225.099 665.938 225.266C666.381 225.432 666.706 225.643 666.915 225.898C667.123 226.148 667.269 226.466 667.352 226.852C667.399 227.091 667.422 227.523 667.422 228.148V230.023C667.422 231.331 667.451 232.159 667.508 232.508C667.571 232.852 667.691 233.182 667.868 233.5H666.399C666.253 233.208 666.159 232.867 666.118 232.477ZM666.001 229.336C665.49 229.544 664.725 229.721 663.704 229.867C663.126 229.951 662.717 230.044 662.477 230.148C662.238 230.253 662.053 230.406 661.922 230.609C661.792 230.807 661.727 231.029 661.727 231.273C661.727 231.648 661.868 231.961 662.149 232.211C662.435 232.461 662.852 232.586 663.399 232.586C663.941 232.586 664.422 232.469 664.844 232.234C665.266 231.995 665.576 231.669 665.774 231.258C665.925 230.94 666.001 230.471 666.001 229.852V229.336Z" fill="#2D2D2D"/>
<path d="M670.146 233.5V226.297H668.904V225.203H670.146V224.32C670.146 223.763 670.195 223.349 670.294 223.078C670.43 222.714 670.667 222.419 671.005 222.195C671.349 221.966 671.828 221.852 672.443 221.852C672.839 221.852 673.276 221.898 673.755 221.992L673.544 223.219C673.253 223.167 672.977 223.141 672.716 223.141C672.289 223.141 671.987 223.232 671.81 223.414C671.633 223.596 671.544 223.938 671.544 224.438V225.203H673.162V226.297H671.544V233.5H670.146Z" fill="#2D2D2D"/>
<path d="M674.447 233.5V225.203H675.713V226.461C676.036 225.872 676.333 225.484 676.604 225.297C676.88 225.109 677.182 225.016 677.51 225.016C677.984 225.016 678.466 225.167 678.955 225.469L678.471 226.773C678.127 226.57 677.783 226.469 677.44 226.469C677.132 226.469 676.856 226.562 676.612 226.75C676.367 226.932 676.192 227.188 676.088 227.516C675.932 228.016 675.854 228.562 675.854 229.156V233.5H674.447Z" fill="#2D2D2D"/>
<path d="M685.405 232.477C684.884 232.919 684.382 233.232 683.897 233.414C683.418 233.596 682.903 233.688 682.351 233.688C681.439 233.688 680.739 233.466 680.249 233.023C679.759 232.576 679.515 232.005 679.515 231.312C679.515 230.906 679.606 230.536 679.788 230.203C679.976 229.865 680.218 229.594 680.515 229.391C680.817 229.188 681.155 229.034 681.53 228.93C681.806 228.857 682.223 228.786 682.78 228.719C683.916 228.583 684.752 228.422 685.288 228.234C685.293 228.042 685.296 227.919 685.296 227.867C685.296 227.294 685.163 226.891 684.897 226.656C684.538 226.339 684.004 226.18 683.296 226.18C682.634 226.18 682.145 226.297 681.827 226.531C681.515 226.76 681.283 227.169 681.132 227.758L679.757 227.57C679.882 226.982 680.088 226.508 680.374 226.148C680.66 225.784 681.075 225.505 681.616 225.312C682.158 225.115 682.785 225.016 683.499 225.016C684.207 225.016 684.783 225.099 685.226 225.266C685.668 225.432 685.994 225.643 686.202 225.898C686.41 226.148 686.556 226.466 686.64 226.852C686.687 227.091 686.71 227.523 686.71 228.148V230.023C686.71 231.331 686.739 232.159 686.796 232.508C686.858 232.852 686.978 233.182 687.155 233.5H685.687C685.541 233.208 685.447 232.867 685.405 232.477ZM685.288 229.336C684.778 229.544 684.012 229.721 682.991 229.867C682.413 229.951 682.004 230.044 681.765 230.148C681.525 230.253 681.34 230.406 681.21 230.609C681.08 230.807 681.015 231.029 681.015 231.273C681.015 231.648 681.155 231.961 681.437 232.211C681.723 232.461 682.14 232.586 682.687 232.586C683.228 232.586 683.71 232.469 684.132 232.234C684.554 231.995 684.864 231.669 685.062 231.258C685.213 230.94 685.288 230.471 685.288 229.852V229.336Z" fill="#2D2D2D"/>
<path d="M689.097 233.5V225.203H690.355V226.367C690.616 225.961 690.962 225.635 691.394 225.391C691.827 225.141 692.319 225.016 692.871 225.016C693.485 225.016 693.988 225.143 694.379 225.398C694.775 225.654 695.053 226.01 695.215 226.469C695.871 225.5 696.725 225.016 697.777 225.016C698.6 225.016 699.233 225.245 699.676 225.703C700.118 226.156 700.34 226.857 700.34 227.805V233.5H698.941V228.273C698.941 227.711 698.894 227.307 698.801 227.062C698.712 226.812 698.548 226.612 698.308 226.461C698.069 226.31 697.788 226.234 697.465 226.234C696.881 226.234 696.397 226.43 696.012 226.82C695.626 227.206 695.433 227.826 695.433 228.68V233.5H694.027V228.109C694.027 227.484 693.913 227.016 693.683 226.703C693.454 226.391 693.079 226.234 692.558 226.234C692.163 226.234 691.795 226.339 691.457 226.547C691.123 226.755 690.881 227.06 690.73 227.461C690.579 227.862 690.504 228.44 690.504 229.195V233.5H689.097Z" fill="#2D2D2D"/>
<path d="M708.305 230.828L709.758 231.008C709.529 231.857 709.105 232.516 708.485 232.984C707.865 233.453 707.073 233.688 706.11 233.688C704.896 233.688 703.933 233.315 703.219 232.57C702.511 231.82 702.157 230.771 702.157 229.422C702.157 228.026 702.516 226.943 703.235 226.172C703.954 225.401 704.886 225.016 706.032 225.016C707.141 225.016 708.047 225.393 708.751 226.148C709.454 226.904 709.805 227.966 709.805 229.336C709.805 229.419 709.803 229.544 709.797 229.711H703.61C703.662 230.622 703.92 231.32 704.383 231.805C704.847 232.289 705.425 232.531 706.118 232.531C706.633 232.531 707.073 232.396 707.438 232.125C707.803 231.854 708.092 231.422 708.305 230.828ZM703.688 228.555H708.321C708.258 227.857 708.081 227.333 707.79 226.984C707.342 226.443 706.761 226.172 706.047 226.172C705.402 226.172 704.857 226.388 704.415 226.82C703.977 227.253 703.735 227.831 703.688 228.555Z" fill="#2D2D2D"/>
<path d="M711.169 231.023L712.56 230.805C712.638 231.362 712.854 231.789 713.208 232.086C713.568 232.383 714.068 232.531 714.708 232.531C715.354 232.531 715.833 232.401 716.146 232.141C716.458 231.875 716.615 231.565 716.615 231.211C716.615 230.893 716.477 230.643 716.201 230.461C716.008 230.336 715.529 230.177 714.763 229.984C713.732 229.724 713.016 229.5 712.615 229.312C712.219 229.12 711.917 228.857 711.708 228.523C711.505 228.185 711.404 227.812 711.404 227.406C711.404 227.036 711.487 226.695 711.654 226.383C711.826 226.065 712.057 225.802 712.349 225.594C712.568 225.432 712.865 225.297 713.24 225.188C713.62 225.073 714.026 225.016 714.458 225.016C715.109 225.016 715.68 225.109 716.169 225.297C716.664 225.484 717.029 225.74 717.263 226.062C717.497 226.38 717.659 226.807 717.747 227.344L716.372 227.531C716.31 227.104 716.128 226.771 715.826 226.531C715.529 226.292 715.107 226.172 714.56 226.172C713.914 226.172 713.453 226.279 713.177 226.492C712.901 226.706 712.763 226.956 712.763 227.242C712.763 227.424 712.82 227.589 712.935 227.734C713.05 227.885 713.229 228.01 713.474 228.109C713.615 228.161 714.029 228.281 714.716 228.469C715.711 228.734 716.404 228.953 716.794 229.125C717.19 229.292 717.5 229.536 717.724 229.859C717.948 230.182 718.06 230.583 718.06 231.062C718.06 231.531 717.922 231.974 717.646 232.391C717.375 232.802 716.982 233.122 716.466 233.352C715.951 233.576 715.367 233.688 714.716 233.688C713.638 233.688 712.815 233.464 712.247 233.016C711.685 232.568 711.326 231.904 711.169 231.023Z" fill="#2D2D2D"/>
<path d="M678.668 209.148C678.204 209.664 677.699 210.052 677.152 210.312C676.605 210.568 676.014 210.695 675.379 210.695C674.207 210.695 673.277 210.299 672.59 209.508C672.032 208.862 671.754 208.141 671.754 207.344C671.754 206.635 671.98 205.997 672.433 205.43C672.892 204.857 673.574 204.354 674.48 203.922C673.965 203.328 673.621 202.846 673.449 202.477C673.277 202.107 673.191 201.75 673.191 201.406C673.191 200.719 673.459 200.122 673.996 199.617C674.538 199.107 675.217 198.852 676.035 198.852C676.816 198.852 677.454 199.091 677.949 199.57C678.449 200.049 678.699 200.625 678.699 201.297C678.699 202.385 677.978 203.315 676.535 204.086L678.59 206.703C678.824 206.245 679.006 205.714 679.137 205.109L680.597 205.422C680.347 206.422 680.009 207.245 679.582 207.891C680.108 208.589 680.704 209.174 681.371 209.648L680.426 210.766C679.858 210.401 679.272 209.862 678.668 209.148ZM675.808 203.18C676.418 202.82 676.811 202.505 676.988 202.234C677.17 201.964 677.262 201.664 677.262 201.336C677.262 200.945 677.137 200.628 676.887 200.383C676.642 200.133 676.334 200.008 675.965 200.008C675.584 200.008 675.267 200.13 675.012 200.375C674.762 200.62 674.637 200.919 674.637 201.273C674.637 201.451 674.681 201.638 674.769 201.836C674.863 202.029 675.001 202.234 675.183 202.453L675.808 203.18ZM677.785 208.039L675.207 204.844C674.446 205.297 673.933 205.719 673.668 206.109C673.402 206.495 673.269 206.878 673.269 207.258C673.269 207.721 673.454 208.203 673.824 208.703C674.194 209.203 674.717 209.453 675.394 209.453C675.816 209.453 676.251 209.323 676.699 209.062C677.152 208.797 677.514 208.456 677.785 208.039Z" fill="#2D2D2D"/>
<path fill-rule="evenodd" clip-rule="evenodd" d="M618.074 321.741L618.457 320.817C619.517 321.257 620.68 321.5 621.902 321.5H624.902V322.5H621.902C620.546 322.5 619.253 322.23 618.074 321.741ZM726.902 322.5V321.5H729.902C731.124 321.5 732.287 321.257 733.347 320.817L733.73 321.741C732.551 322.23 731.258 322.5 729.902 322.5H726.902ZM739.902 100.486H738.902V97.5C738.902 96.2778 738.659 95.115 738.22 94.0552L739.143 93.6721C739.632 94.8512 739.902 96.1441 739.902 97.5V100.486ZM624.902 87.5H621.902C620.546 87.5 619.253 87.7699 618.074 88.2588L618.457 89.1825C619.517 88.7431 620.68 88.5 621.902 88.5H624.902V87.5ZM611.902 309.514H612.902V312.5C612.902 313.722 613.145 314.885 613.585 315.945L612.661 316.328C612.172 315.149 611.902 313.856 611.902 312.5V309.514ZM611.902 303.542H612.902V297.569H611.902V303.542ZM611.902 291.597H612.902V285.625H611.902V291.597ZM611.902 279.653H612.902V273.681H611.902V279.653ZM611.902 267.708H612.902V261.736H611.902V267.708ZM611.902 255.764H612.902V249.792H611.902V255.764ZM611.902 243.819H612.902V237.847H611.902V243.819ZM611.902 231.875H612.902V225.903H611.902V231.875ZM611.902 219.931H612.902V213.958H611.902V219.931ZM611.902 207.986H612.902V202.014H611.902V207.986ZM611.902 196.042H612.902V190.069H611.902V196.042ZM611.902 184.097H612.902V178.125H611.902V184.097ZM611.902 172.153H612.902V166.181H611.902V172.153ZM611.902 160.208H612.902V154.236H611.902V160.208ZM611.902 148.264H612.902V142.292H611.902V148.264ZM611.902 136.319H612.902V130.347H611.902V136.319ZM611.902 124.375H612.902V118.403H611.902V124.375ZM611.902 112.43H612.902V106.458H611.902V112.43ZM611.902 100.486H612.902V97.5C612.902 96.2778 613.145 95.115 613.585 94.0552L612.661 93.6721C612.172 94.8512 611.902 96.1441 611.902 97.5V100.486ZM630.902 87.5V88.5H636.902V87.5H630.902ZM642.902 87.5V88.5H648.902V87.5H642.902ZM654.902 87.5V88.5H660.902V87.5H654.902ZM666.902 87.5V88.5H672.902V87.5H666.902ZM678.902 87.5V88.5H684.902V87.5H678.902ZM690.902 87.5V88.5H696.902V87.5H690.902ZM702.902 87.5V88.5H708.902V87.5H702.902ZM714.902 87.5V88.5H720.902V87.5H714.902ZM726.902 87.5V88.5H729.902C731.124 88.5 732.287 88.7431 733.347 89.1825L733.73 88.2588C732.551 87.7699 731.258 87.5 729.902 87.5H726.902ZM739.902 106.458H738.902V112.431H739.902V106.458ZM739.902 118.403H738.902V124.375H739.902V118.403ZM739.902 130.347H738.902V136.319H739.902V130.347ZM739.902 142.292H738.902V148.264H739.902V142.292ZM739.902 154.236H738.902V160.208H739.902V154.236ZM739.902 166.181H738.902V172.153H739.902V166.181ZM739.902 178.125H738.902V184.097H739.902V178.125ZM739.902 190.069H738.902V196.042H739.902V190.069ZM739.902 202.014H738.902V207.986H739.902V202.014ZM739.902 213.958H738.902V219.931H739.902V213.958ZM739.902 225.903H738.902V231.875H739.902V225.903ZM739.902 237.847H738.902V243.819H739.902V237.847ZM739.902 249.792H738.902V255.764H739.902V249.792ZM739.902 261.736H738.902V267.708H739.902V261.736ZM739.902 273.681H738.902V279.653H739.902V273.681ZM739.902 285.625H738.902V291.597H739.902V285.625ZM739.902 297.57H738.902V303.542H739.902V297.57ZM739.902 309.514H738.902V312.5C738.902 313.722 738.659 314.885 738.22 315.945L739.143 316.328C739.632 315.149 739.902 313.856 739.902 312.5V309.514ZM720.902 322.5V321.5H714.902V322.5H720.902ZM708.902 322.5V321.5H702.902V322.5H708.902ZM696.902 322.5V321.5H690.902V322.5H696.902ZM684.902 322.5V321.5H678.902V322.5H684.902ZM672.902 322.5V321.5H666.902V322.5H672.902ZM660.902 322.5V321.5H654.902V322.5H660.902ZM648.902 322.5V321.5H642.902V322.5H648.902ZM636.902 322.5V321.5H630.902V322.5H636.902Z" fill="#9C9C9C"/>
<path d="M167.619 100.052L86.4304 122.911L167.619 145.507L248.282 122.911L167.619 100.052Z" fill="white"/>
<path fill-rule="evenodd" clip-rule="evenodd" d="M167.429 99.3779C167.554 99.3428 167.686 99.343 167.81 99.3782L248.473 122.237C248.775 122.323 248.983 122.598 248.982 122.912C248.982 123.225 248.773 123.5 248.471 123.585L167.808 146.181C167.685 146.215 167.555 146.215 167.431 146.181L86.2427 123.585C85.9402 123.501 85.7308 123.226 85.7303 122.912C85.7299 122.598 85.9385 122.322 86.2406 122.237L167.429 99.3779ZM89.0271 122.907L167.618 144.78L245.701 122.907L167.618 100.779L89.0271 122.907Z" fill="black"/>
<path d="M167.429 144.794L86.3889 122.779V261.999L167.312 284.978L248.324 261.999V122.779L167.429 144.794Z" fill="white"/>
<path fill-rule="evenodd" clip-rule="evenodd" d="M85.9637 122.223C86.1369 122.091 86.3619 122.047 86.5723 122.104L167.429 144.069L248.14 122.104C248.35 122.047 248.576 122.091 248.749 122.223C248.922 122.355 249.024 122.561 249.024 122.779V261.999C249.024 262.312 248.816 262.587 248.515 262.673L167.503 285.651C167.378 285.687 167.246 285.687 167.121 285.651L86.1976 262.673C85.8966 262.587 85.6888 262.312 85.6888 261.999V122.779C85.6888 122.561 85.7905 122.356 85.9637 122.223ZM87.0888 123.695V261.47L167.312 284.25L247.624 261.47V123.695L167.613 145.469C167.492 145.502 167.366 145.502 167.245 145.47L87.0888 123.695Z" fill="black"/>
<path fill-rule="evenodd" clip-rule="evenodd" d="M168.077 144.967L168.036 285.447L166.636 285.447L166.677 144.967L168.077 144.967Z" fill="black"/>
<path d="M917.532 244.32V141.556C917.532 141.556 928.559 151.987 962.832 151.987C997.106 151.987 1009.32 140.364 1009.32 140.364V244.32C995.777 265.083 921.907 259.497 917.532 244.32Z" fill="white"/>
<path d="M1010.4 137.489C1010.4 145.773 989.383 152.489 962.902 152.489C936.421 152.489 915.402 145.773 915.402 137.489C915.402 129.205 936.421 122.489 962.902 122.489C989.383 122.489 1010.4 129.205 1010.4 137.489Z" fill="white"/>
<path fill-rule="evenodd" clip-rule="evenodd" d="M1005.5 141.73C1007.67 140.1 1008.4 138.646 1008.4 137.489C1008.4 136.332 1007.67 134.878 1005.5 133.248C1003.37 131.643 1000.15 130.111 995.978 128.789C987.659 126.152 975.998 124.489 962.902 124.489C949.806 124.489 938.145 126.152 929.826 128.789C925.655 130.111 922.436 131.643 920.303 133.248C918.137 134.878 917.402 136.332 917.402 137.489C917.402 138.646 918.137 140.1 920.303 141.73C922.436 143.335 925.655 144.867 929.826 146.189C938.145 148.826 949.806 150.489 962.902 150.489C975.998 150.489 987.659 148.826 995.978 146.189C1000.15 144.867 1003.37 143.335 1005.5 141.73ZM962.902 152.489C989.383 152.489 1010.4 145.773 1010.4 137.489C1010.4 129.205 989.383 122.489 962.902 122.489C936.421 122.489 915.402 129.205 915.402 137.489C915.402 145.773 936.421 152.489 962.902 152.489Z" fill="#ED1C24"/>
<path fill-rule="evenodd" clip-rule="evenodd" d="M915.753 243.757L915.402 136.494L917.402 136.484L917.753 243.748L915.753 243.757Z" fill="#ED1C24"/>
<path fill-rule="evenodd" clip-rule="evenodd" d="M1008.4 244.489L1008.4 136.489L1010.4 136.489L1010.4 244.489L1008.4 244.489Z" fill="#ED1C24"/>
<path fill-rule="evenodd" clip-rule="evenodd" d="M930.631 252.163C938.902 254.733 950.389 256.338 963.122 256.338C975.854 256.338 987.342 254.733 995.613 252.163C999.754 250.877 1003.03 249.365 1005.25 247.733C1007.5 246.086 1008.49 244.452 1008.49 242.932H1010.49C1010.49 245.39 1008.89 247.545 1006.44 249.345C1003.97 251.16 1000.46 252.753 996.206 254.073C987.695 256.717 975.998 258.338 963.122 258.338C950.245 258.338 938.548 256.717 930.037 254.073C925.788 252.753 922.276 251.16 919.805 249.345C917.354 247.545 915.753 245.39 915.753 242.932H917.753C917.753 244.452 918.747 246.086 920.989 247.733C923.21 249.365 926.489 250.877 930.631 252.163Z" fill="#ED1C24"/>
<path d="M1093.53 245.32V141.556C1093.53 141.556 1104.56 151.987 1138.83 151.987C1173.11 151.987 1185.32 140.364 1185.32 140.364V245.32C1185.32 245.32 1180.39 258.066 1138.83 258.556C1097.28 259.046 1093.53 245.32 1093.53 245.32Z" fill="white"/>
<path d="M1186.4 137.489C1186.4 145.773 1165.38 152.489 1138.9 152.489C1112.42 152.489 1091.4 145.773 1091.4 137.489C1091.4 129.205 1112.42 122.489 1138.9 122.489C1165.38 122.489 1186.4 129.205 1186.4 137.489Z" fill="white"/>
<path fill-rule="evenodd" clip-rule="evenodd" d="M1181.5 141.73C1183.67 140.1 1184.4 138.646 1184.4 137.489C1184.4 136.332 1183.67 134.878 1181.5 133.248C1179.37 131.643 1176.15 130.111 1171.98 128.789C1163.66 126.152 1152 124.489 1138.9 124.489C1125.81 124.489 1114.15 126.152 1105.83 128.789C1101.65 130.111 1098.44 131.643 1096.3 133.248C1094.14 134.878 1093.4 136.332 1093.4 137.489C1093.4 138.646 1094.14 140.1 1096.3 141.73C1098.44 143.335 1101.65 144.867 1105.83 146.189C1114.15 148.826 1125.81 150.489 1138.9 150.489C1152 150.489 1163.66 148.826 1171.98 146.189C1176.15 144.867 1179.37 143.335 1181.5 141.73ZM1138.9 152.489C1165.38 152.489 1186.4 145.773 1186.4 137.489C1186.4 129.205 1165.38 122.489 1138.9 122.489C1112.42 122.489 1091.4 129.205 1091.4 137.489C1091.4 145.773 1112.42 152.489 1138.9 152.489Z" fill="#ED1C24"/>
<path fill-rule="evenodd" clip-rule="evenodd" d="M1091.75 243.757L1091.4 136.494L1093.4 136.484L1093.75 243.748L1091.75 243.757Z" fill="#ED1C24"/>
<path fill-rule="evenodd" clip-rule="evenodd" d="M1184.4 244.489L1184.4 136.489L1186.4 136.489L1186.4 244.489L1184.4 244.489Z" fill="#ED1C24"/>
<path fill-rule="evenodd" clip-rule="evenodd" d="M1106.63 253.163C1114.9 255.733 1126.39 257.338 1139.12 257.338C1151.85 257.338 1163.34 255.733 1171.61 253.163C1175.75 251.877 1179.03 250.365 1181.25 248.733C1183.5 247.086 1184.49 245.452 1184.49 243.932H1186.49C1186.49 246.39 1184.89 248.545 1182.44 250.345C1179.97 252.16 1176.46 253.753 1172.21 255.073C1163.69 257.717 1152 259.338 1139.12 259.338C1126.25 259.338 1114.55 257.717 1106.04 255.073C1101.79 253.753 1098.28 252.16 1095.8 250.345C1093.35 248.545 1091.75 246.39 1091.75 243.932H1093.75C1093.75 245.452 1094.75 247.086 1096.99 248.733C1099.21 250.365 1102.49 251.877 1106.63 253.163Z" fill="#ED1C24"/>
<path d="M1005.53 274.897V171.341C1005.53 171.341 1016.56 179.885 1050.83 179.885C1085.11 179.885 1097.32 170.364 1097.32 170.364V274.325C1083.6 293.209 1013.93 290.777 1005.53 274.897Z" fill="white"/>
<path d="M1098.4 167.489C1098.4 175.773 1077.38 182.489 1050.9 182.489C1024.42 182.489 1003.4 175.773 1003.4 167.489C1003.4 159.205 1024.42 152.489 1050.9 152.489C1077.38 152.489 1098.4 159.205 1098.4 167.489Z" fill="white"/>
<path fill-rule="evenodd" clip-rule="evenodd" d="M1093.5 171.73C1095.67 170.1 1096.4 168.646 1096.4 167.489C1096.4 166.332 1095.67 164.878 1093.5 163.248C1091.37 161.643 1088.15 160.111 1083.98 158.789C1075.66 156.152 1064 154.489 1050.9 154.489C1037.81 154.489 1026.15 156.152 1017.83 158.789C1013.65 160.111 1010.44 161.643 1008.3 163.248C1006.14 164.878 1005.4 166.332 1005.4 167.489C1005.4 168.646 1006.14 170.1 1008.3 171.73C1010.44 173.335 1013.65 174.867 1017.83 176.189C1026.15 178.826 1037.81 180.489 1050.9 180.489C1064 180.489 1075.66 178.826 1083.98 176.189C1088.15 174.867 1091.37 173.335 1093.5 171.73ZM1050.9 182.489C1077.38 182.489 1098.4 175.773 1098.4 167.489C1098.4 159.205 1077.38 152.489 1050.9 152.489C1024.42 152.489 1003.4 159.205 1003.4 167.489C1003.4 175.773 1024.42 182.489 1050.9 182.489Z" fill="#ED1C24"/>
<path fill-rule="evenodd" clip-rule="evenodd" d="M1003.75 273.757L1003.4 166.494L1005.4 166.484L1005.75 273.748L1003.75 273.757Z" fill="#ED1C24"/>
<path fill-rule="evenodd" clip-rule="evenodd" d="M1096.4 274.489L1096.4 166.489L1098.4 166.489L1098.4 274.489L1096.4 274.489Z" fill="#ED1C24"/>
<path fill-rule="evenodd" clip-rule="evenodd" d="M1018.63 282.163C1026.9 284.733 1038.39 286.338 1051.12 286.338C1063.85 286.338 1075.34 284.733 1083.61 282.163C1087.75 280.877 1091.03 279.365 1093.25 277.733C1095.5 276.086 1096.49 274.452 1096.49 272.932H1098.49C1098.49 275.39 1096.89 277.545 1094.44 279.345C1091.97 281.16 1088.46 282.753 1084.21 284.073C1075.69 286.717 1064 288.338 1051.12 288.338C1038.25 288.338 1026.55 286.717 1018.04 284.073C1013.79 282.753 1010.28 281.16 1007.8 279.345C1005.35 277.545 1003.75 275.39 1003.75 272.932H1005.75C1005.75 274.452 1006.75 276.086 1008.99 277.733C1011.21 279.365 1014.49 280.877 1018.63 282.163Z" fill="#ED1C24"/>
<path d="M1114.33 268.701C1114.33 268.701 1103.83 275.201 1113.72 281.655C1115.63 282.912 1122.53 286.407 1122.33 289.642C1122.33 289.642 1126.52 283.356 1120.4 279.401C1114.12 275.354 1112.54 271.031 1114.33 268.701Z" fill="#ED1C24"/>
<path d="M1110.67 281.118C1110.67 281.118 1106.92 286.882 1114.3 288.063C1115.02 288.155 1120.35 288.722 1121.74 290.5C1121.74 290.5 1121.62 287.434 1117.27 285.625C1112.94 283.816 1111.15 283.372 1110.67 281.118Z" fill="#ED1C24"/>
<path d="M1125.17 275.063C1120.67 270.28 1119.42 267.321 1121.35 263.489C1121.35 263.489 1107.92 268.732 1121.19 278.037C1125.93 281.363 1125.14 284.767 1125.14 284.889C1125.88 284.108 1129.68 279.846 1125.17 275.063Z" fill="#ED1C24"/>
<path d="M1132.62 286.594V275.141H1134.18L1140.19 284.133V275.141H1141.64V286.594H1140.09L1134.07 277.594V286.594H1132.62Z" fill="#2D2D2D"/>
<path d="M1143.94 281.016C1143.94 279.115 1144.45 277.628 1145.47 276.555C1146.49 275.477 1147.81 274.938 1149.42 274.938C1150.48 274.938 1151.43 275.191 1152.28 275.696C1153.13 276.201 1153.78 276.907 1154.22 277.813C1154.67 278.714 1154.89 279.738 1154.89 280.883C1154.89 282.045 1154.66 283.084 1154.19 284.001C1153.72 284.917 1153.06 285.613 1152.2 286.087C1151.34 286.555 1150.41 286.79 1149.41 286.79C1148.34 286.79 1147.37 286.529 1146.52 286.008C1145.68 285.488 1145.03 284.777 1144.59 283.876C1144.16 282.975 1143.94 282.021 1143.94 281.016ZM1145.5 281.04C1145.5 282.42 1145.87 283.508 1146.61 284.305C1147.35 285.097 1148.29 285.493 1149.41 285.493C1150.55 285.493 1151.48 285.092 1152.22 284.29C1152.96 283.488 1153.33 282.35 1153.33 280.876C1153.33 279.943 1153.17 279.131 1152.85 278.438C1152.54 277.74 1152.08 277.201 1151.47 276.821C1150.87 276.436 1150.19 276.243 1149.43 276.243C1148.36 276.243 1147.43 276.613 1146.66 277.352C1145.89 278.087 1145.5 279.316 1145.5 281.04Z" fill="#2D2D2D"/>
<path d="M1157.05 286.594V275.141H1161C1161.89 275.141 1162.57 275.196 1163.04 275.305C1163.69 275.456 1164.25 275.73 1164.72 276.126C1165.32 276.636 1165.77 277.29 1166.07 278.087C1166.37 278.878 1166.52 279.784 1166.52 280.805C1166.52 281.675 1166.42 282.446 1166.22 283.118C1166.01 283.79 1165.75 284.347 1165.43 284.79C1165.12 285.227 1164.77 285.574 1164.39 285.829C1164.01 286.079 1163.56 286.269 1163.02 286.399C1162.49 286.529 1161.88 286.594 1161.18 286.594H1157.05ZM1158.57 285.243H1161.01C1161.77 285.243 1162.36 285.172 1162.79 285.032C1163.22 284.891 1163.56 284.693 1163.82 284.438C1164.18 284.079 1164.46 283.597 1164.65 282.993C1164.86 282.383 1164.96 281.646 1164.96 280.782C1164.96 279.584 1164.76 278.665 1164.36 278.024C1163.97 277.378 1163.5 276.946 1162.93 276.727C1162.53 276.571 1161.88 276.493 1160.97 276.493H1158.57V285.243Z" fill="#2D2D2D"/>
<path d="M1168.85 286.594V275.141H1177.13V276.493H1170.36V280.001H1176.7V281.344H1170.36V285.243H1177.39V286.594H1168.85Z" fill="#2D2D2D"/>
<path d="M926.253 268.701C926.253 268.701 915.753 275.201 925.649 281.655C927.552 282.912 934.456 286.407 934.26 289.642C934.26 289.642 938.444 283.356 932.326 279.401C926.041 275.354 924.47 271.031 926.253 268.701Z" fill="#ED1C24"/>
<path d="M922.597 281.118C922.597 281.118 918.851 286.882 926.223 288.063C926.948 288.155 932.281 288.722 933.671 290.5C933.671 290.5 933.55 287.434 929.199 285.625C924.863 283.816 923.081 283.372 922.597 281.118Z" fill="#ED1C24"/>
<path d="M937.1 275.063C932.598 270.28 931.344 267.321 933.278 263.489C933.278 263.489 919.848 268.732 933.112 278.037C937.855 281.363 937.07 284.767 937.07 284.889C937.81 284.108 941.602 279.846 937.1 275.063Z" fill="#ED1C24"/>
<path d="M944.547 286.594V275.141H946.102L952.117 284.133V275.141H953.57V286.594H952.016L946 277.594V286.594H944.547Z" fill="#2D2D2D"/>
<path d="M955.864 281.016C955.864 279.115 956.375 277.628 957.395 276.555C958.416 275.477 959.734 274.938 961.349 274.938C962.406 274.938 963.359 275.191 964.208 275.696C965.057 276.201 965.703 276.907 966.145 277.813C966.593 278.714 966.817 279.738 966.817 280.883C966.817 282.045 966.583 283.084 966.114 284.001C965.645 284.917 964.981 285.613 964.122 286.087C963.263 286.555 962.336 286.79 961.341 286.79C960.263 286.79 959.299 286.529 958.45 286.008C957.601 285.488 956.958 284.777 956.52 283.876C956.083 282.975 955.864 282.021 955.864 281.016ZM957.427 281.04C957.427 282.42 957.797 283.508 958.536 284.305C959.281 285.097 960.213 285.493 961.333 285.493C962.474 285.493 963.411 285.092 964.145 284.29C964.885 283.488 965.255 282.35 965.255 280.876C965.255 279.943 965.096 279.131 964.778 278.438C964.466 277.74 964.005 277.201 963.395 276.821C962.791 276.436 962.112 276.243 961.356 276.243C960.284 276.243 959.359 276.613 958.583 277.352C957.812 278.087 957.427 279.316 957.427 281.04Z" fill="#2D2D2D"/>
<path d="M968.978 286.594V275.141H972.924C973.814 275.141 974.494 275.196 974.963 275.305C975.619 275.456 976.179 275.73 976.642 276.126C977.247 276.636 977.697 277.29 977.994 278.087C978.296 278.878 978.447 279.784 978.447 280.805C978.447 281.675 978.345 282.446 978.142 283.118C977.939 283.79 977.679 284.347 977.361 284.79C977.043 285.227 976.694 285.574 976.314 285.829C975.939 286.079 975.484 286.269 974.947 286.399C974.416 286.529 973.804 286.594 973.111 286.594H968.978ZM970.494 285.243H972.939C973.694 285.243 974.286 285.172 974.713 285.032C975.145 284.891 975.489 284.693 975.744 284.438C976.103 284.079 976.382 283.597 976.58 282.993C976.783 282.383 976.885 281.646 976.885 280.782C976.885 279.584 976.687 278.665 976.291 278.024C975.9 277.378 975.424 276.946 974.861 276.727C974.455 276.571 973.801 276.493 972.9 276.493H970.494V285.243Z" fill="#2D2D2D"/>
<path d="M980.772 286.594V275.141H989.053V276.493H982.288V280.001H988.624V281.344H982.288V285.243H989.319V286.594H980.772Z" fill="#2D2D2D"/>
<path d="M1019.25 299.701C1019.25 299.701 1008.75 306.201 1018.65 312.655C1020.55 313.912 1027.46 317.407 1027.26 320.642C1027.26 320.642 1031.44 314.356 1025.33 310.401C1019.04 306.354 1017.47 302.031 1019.25 299.701Z" fill="#ED1C24"/>
<path d="M1015.6 312.118C1015.6 312.118 1011.85 317.882 1019.22 319.063C1019.95 319.155 1025.28 319.722 1026.67 321.5C1026.67 321.5 1026.55 318.434 1022.2 316.625C1017.86 314.816 1016.08 314.372 1015.6 312.118Z" fill="#ED1C24"/>
<path d="M1030.1 306.063C1025.6 301.28 1024.34 298.321 1026.28 294.489C1026.28 294.489 1012.85 299.732 1026.11 309.037C1030.86 312.363 1030.07 315.767 1030.07 315.889C1030.81 315.108 1034.6 310.846 1030.1 306.063Z" fill="#ED1C24"/>
<path d="M1037.55 317.594V306.141H1039.1L1045.12 315.133V306.141H1046.57V317.594H1045.02L1039 308.594V317.594H1037.55Z" fill="#2D2D2D"/>
<path d="M1048.86 312.016C1048.86 310.115 1049.37 308.628 1050.4 307.555C1051.42 306.477 1052.73 305.938 1054.35 305.938C1055.41 305.938 1056.36 306.191 1057.21 306.696C1058.06 307.201 1058.7 307.907 1059.15 308.813C1059.59 309.714 1059.82 310.738 1059.82 311.883C1059.82 313.045 1059.58 314.084 1059.11 315.001C1058.65 315.917 1057.98 316.613 1057.12 317.087C1056.26 317.555 1055.34 317.79 1054.34 317.79C1053.26 317.79 1052.3 317.529 1051.45 317.008C1050.6 316.488 1049.96 315.777 1049.52 314.876C1049.08 313.975 1048.86 313.021 1048.86 312.016ZM1050.43 312.04C1050.43 313.42 1050.8 314.508 1051.54 315.305C1052.28 316.097 1053.21 316.493 1054.33 316.493C1055.47 316.493 1056.41 316.092 1057.15 315.29C1057.89 314.488 1058.25 313.35 1058.25 311.876C1058.25 310.943 1058.1 310.131 1057.78 309.438C1057.47 308.74 1057 308.201 1056.4 307.821C1055.79 307.436 1055.11 307.243 1054.36 307.243C1053.28 307.243 1052.36 307.613 1051.58 308.352C1050.81 309.087 1050.43 310.316 1050.43 312.04Z" fill="#2D2D2D"/>
<path d="M1061.98 317.594V306.141H1065.92C1066.81 306.141 1067.49 306.196 1067.96 306.305C1068.62 306.456 1069.18 306.73 1069.64 307.126C1070.25 307.636 1070.7 308.29 1070.99 309.087C1071.3 309.878 1071.45 310.784 1071.45 311.805C1071.45 312.675 1071.35 313.446 1071.14 314.118C1070.94 314.79 1070.68 315.347 1070.36 315.79C1070.04 316.227 1069.69 316.574 1069.31 316.829C1068.94 317.079 1068.48 317.269 1067.95 317.399C1067.42 317.529 1066.8 317.594 1066.11 317.594H1061.98ZM1063.49 316.243H1065.94C1066.69 316.243 1067.29 316.172 1067.71 316.032C1068.14 315.891 1068.49 315.693 1068.74 315.438C1069.1 315.079 1069.38 314.597 1069.58 313.993C1069.78 313.383 1069.88 312.646 1069.88 311.782C1069.88 310.584 1069.69 309.665 1069.29 309.024C1068.9 308.378 1068.42 307.946 1067.86 307.727C1067.45 307.571 1066.8 307.493 1065.9 307.493H1063.49V316.243Z" fill="#2D2D2D"/>
<path d="M1073.77 317.594V306.141H1082.05V307.493H1075.29V311.001H1081.62V312.344H1075.29V316.243H1082.32V317.594H1073.77Z" fill="#2D2D2D"/>
</svg>
