<svg width="48" height="48" fill="none" xmlns="http://www.w3.org/2000/svg"><path fill-rule="evenodd" clip-rule="evenodd" d="m40.019 0-3.233 1.789-2.966 1.789a170.45 170.45 0 0 1-2.74 1.61l-2.544 1.51a38.844 38.844 0 0 1 .537 4.016c0 .33.033.665.066 1.006.018.197.038.396.052.596a288.898 288.898 0 0 1 6.046-2.934 383.48 383.48 0 0 1 7.308-3.363 43.762 43.762 0 0 0-1.255-3.318A44.929 44.929 0 0 0 40.02.018V0ZM25.15 8.734l.009-.005h-.009v.005Zm0 0-2.14 1.337-2.025 1.296a233.636 233.636 0 0 0-3.708 2.442c0 .376 0 .752-.081 1.145a5.337 5.337 0 0 0-.082.773c-.009.155-.018.312-.034.47a84.023 84.023 0 0 1-.367 2.782 162.852 162.852 0 0 1 4.056-2.29 150.262 150.262 0 0 1 4.613-2.477v-1.557c0-.491 0-.965-.045-1.422 0-.77-.081-1.535-.164-2.298l-.023-.2ZM8.787 19.837a225.233 225.233 0 0 1 6.019-4.32l.009-.009c-.045.367-.09.734-.134 1.127l-.011.083c-.04.369-.085.751-.15 1.134-.073.411-.144.84-.216 1.306-.071.465-.153.93-.25 1.413l-1.72 1.064-1.64 1.028a162.475 162.475 0 0 0-3.054 2.004c.126-.438.242-.903.35-1.333.107-.429.205-.84.304-1.252.18-.742.34-1.493.493-2.245Zm3.107 4.535 1.793-1.002-.01.027a81.557 81.557 0 0 1-.402 1.6 157.694 157.694 0 0 1-.978 3.534c-.178.635-.366 1.279-.564 1.94a132.364 132.364 0 0 0-3.636 1.673 111 111 0 0 0-3.27 1.646c.216-.627.422-1.217.628-1.79.206-.572.403-1.126.582-1.672.35-1.02.69-2.039 1.012-3.058a139 139 0 0 1 4.845-2.898Zm-1.119 9.516a88.444 88.444 0 0 0-3.7 1.485 73.799 73.799 0 0 0-3.313 1.502c-.896 2.433-1.791 4.848-2.687 7.263-.217.569-.44 1.138-.672 1.726L0 46.892c.546-.17 1.093-.322 1.648-.474a56.052 56.052 0 0 1 5.553-1.171c.359-1.056.708-2.111 1.048-3.167.332-1.001.645-1.976.94-2.933.296-.957.574-1.843.843-2.683.231-.724.45-1.468.66-2.186l.1-.345-.017-.045Zm13.668-4.195-.02.005.002-.014.018.01Zm-.02.005a199.565 199.565 0 0 1-.974 6.007l-.108.616a198.92 198.92 0 0 1-.699 3.81 360.29 360.29 0 0 1-.832 4.167c-.391 0-.779-.002-1.162-.004-.751-.003-1.483-.007-2.17.005a97.042 97.042 0 0 0-3 .089c-.897.045-1.837.098-2.688.17-.85.071-1.674.143-2.48.241a159.865 159.865 0 0 0 1.934-6.457c.528-1.843 1.03-3.685 1.522-5.536a71.898 71.898 0 0 1 2.339-.778c.823-.26 1.647-.52 2.543-.77 1.916-.558 3.84-1.078 5.774-1.56Zm11.235-17.552a355.488 355.488 0 0 1 7.8-3.202h.036a77.56 77.56 0 0 1 1.236 5.133c.448 2.165.834 4.338 1.155 6.52a389.746 389.746 0 0 0-9.467 2.21c-2.49.626-4.968 1.29-7.434 1.994.05-.657.09-1.353.13-2.004v-.002c.016-.288.033-.566.05-.829l.015-.235c.05-.788.1-1.609.1-2.34v-4.446c.912-.419 1.78-.8 2.726-1.219l.32-.14a270.2 270.2 0 0 1 2.848-1.233l.485-.207Zm5.463 14.238c1.693-.286 3.483-.563 5.373-.84h.019c.161 1.395.304 2.718.457 4.364.152 1.646.286 3.291.412 4.937.13 1.866.247 3.735.35 5.608.095 2.039.184 4.17.268 6.394a374.272 374.272 0 0 0-6.754-.948 234.715 234.715 0 0 0-5.679-.661 188.73 188.73 0 0 0-4.854-.456c-1.47-.117-2.866-.215-4.21-.287.466-2.87.896-5.76 1.28-8.648.311-2.35.589-4.717.834-7.102 1.182-.26 2.346-.5 3.672-.769 1.326-.268 2.643-.519 4.138-.787 1.237-.222 2.481-.431 3.831-.66l.863-.145Z" fill="#BF0811"/></svg>