<svg width="48" height="48" fill="none" xmlns="http://www.w3.org/2000/svg"><path d="M4 36.956V28.61a3 3 0 0 1 2.585-2.97l15.926-2.223a3 3 0 0 1 3.388 2.575l.555 4.161c.03.23.034.464.011.695l-.834 8.341a3 3 0 0 1-1.185 2.102l-2.52 1.889a3 3 0 0 1-.937.473l-3.883 1.165c-.4.12-.82.155-1.234.104l-6.5-.813a3 3 0 0 1-1.548-.672L6.11 42.008a3 3 0 0 1-.889-1.251l-1.03-2.748A3 3 0 0 1 4 36.956Z" fill="#fff"/><path d="M5 23.5V39c0 3.866 4.373 6 11 6s11-2.134 11-6V24" stroke="#000" stroke-width="2"/><path d="M27 32c0 3.314-4.925 6-11 6S5 35.314 5 32" stroke="#000" stroke-width="2"/><path d="M27 24c0 1.43-1 2.909-3.019 4.086C21.988 29.249 19.168 30 16 30s-5.988-.751-7.981-1.914C6 26.909 5 25.43 5 24c0-1.43 1-2.909 3.019-4.086C10.012 18.751 12.832 18 16 18c3.169 0 5.988.751 7.981 1.914C26 21.091 27 22.57 27 24Z" fill="#fff" stroke="#000" stroke-width="2"/><path d="M14.293 25.707a1 1 0 0 0 1.414 0l6.364-6.364a1 1 0 0 0-1.414-1.414L15 23.586l-5.657-5.657a1 1 0 0 0-1.414 1.414l6.364 6.364ZM16 25V11h-2v14h2Z" fill="#ED1C24"/><path d="M21 37.513V20.678a3 3 0 0 1 2.661-2.98l16.11-1.831a3 3 0 0 1 3.337 2.88L43.5 30.5l-.44 8.35a3 3 0 0 1-.874 1.964l-2.492 2.492a3 3 0 0 1-1.665.843l-5.005.77a3 3 0 0 1-1.044-.023l-6.233-1.247a2.999 2.999 0 0 1-1.332-.637l-1.76-1.466a3 3 0 0 1-.925-1.356l-.576-1.728a3 3 0 0 1-.154-.949Z" fill="#fff"/><path d="M21 15.5V39c0 3.866 4.373 6 11 6s11-2.134 11-6V16" stroke="#000" stroke-width="2"/><path d="M43 32c0 3.314-4.925 6-11 6s-11-2.686-11-6m22-8c0 3.314-4.925 6-11 6s-11-2.686-11-6" stroke="#000" stroke-width="2"/><path d="M43 16c0 1.43-1 2.909-3.019 4.086C37.988 21.249 35.168 22 32 22c-3.169 0-5.988-.751-7.981-1.914C22 18.909 21 17.43 21 16c0-1.43 1-2.909 3.019-4.086C26.012 10.751 28.832 10 32 10c3.169 0 5.988.751 7.981 1.914C42 13.091 43 14.57 43 16Z" fill="#fff" stroke="#000" stroke-width="2"/><path d="M32.707 1.293a1 1 0 0 0-1.414 0l-6.364 6.364a1 1 0 0 0 1.414 1.414L32 3.414l5.657 5.657a1 1 0 1 0 1.414-1.414l-6.364-6.364ZM31 2v15h2V2h-2Z" fill="#ED1C24"/></svg>