<svg width="42" height="42" fill="none" xmlns="http://www.w3.org/2000/svg"><path d="M40.32 0H1.68C.75 0 0 .75 0 1.68v38.64C0 41.25.75 42 1.68 42h38.64c.93 0 1.68-.75 1.68-1.68V1.68C42 .75 41.25 0 40.32 0ZM12.458 35.79H6.226V15.744h6.232v20.044ZM9.345 13.003a3.612 3.612 0 1 1 3.612-3.612 3.619 3.619 0 0 1-3.612 3.612ZM35.789 35.79h-6.226v-9.75c0-2.326-.042-5.313-3.24-5.313-3.239 0-3.738 2.53-3.738 5.145v9.917h-6.22V15.745h5.974v2.74h.084c.83-1.575 2.861-3.239 5.896-3.239 6.31 0 7.47 4.153 7.47 9.55v10.993Z" fill="#000"/></svg>