<svg width="42" height="42" fill="none" xmlns="http://www.w3.org/2000/svg"><path d="M40.32 0H1.68C.75 0 0 .75 0 1.68v38.64C0 41.25.75 42 1.68 42h38.64c.93 0 1.68-.75 1.68-1.68V1.68C42 .75 41.25 0 40.32 0Zm-8.017 15.21c.016.246.016.503.016.755 0 7.707-5.87 16.585-16.595 16.585-3.308 0-6.374-.96-8.957-2.614a12.5 12.5 0 0 0 1.407.073c2.73 0 5.24-.924 7.24-2.489a5.832 5.832 0 0 1-5.45-4.042c.898.131 1.707.131 2.63-.105a5.828 5.828 0 0 1-4.666-5.723v-.073c.771.436 1.68.703 2.63.74a5.834 5.834 0 0 1-2.599-4.85c0-1.088.284-2.08.793-2.94a16.55 16.55 0 0 0 12.022 6.095c-.824-3.964 2.137-7.172 5.697-7.172a5.82 5.82 0 0 1 4.257 1.838 11.521 11.521 0 0 0 3.701-1.402 5.804 5.804 0 0 1-2.562 3.208 11.533 11.533 0 0 0 3.36-.909 12.223 12.223 0 0 1-2.924 3.024Z" fill="#000"/></svg>