<svg width="16" height="32" fill="none" xmlns="http://www.w3.org/2000/svg"><path d="M13.413.86c-.49.288-1.305 1.105-2.277 2.289l.891 1.68a22.49 22.49 0 0 1 1.898-2.38l.074-.079-.074.08c-.208.226-.839.962-1.79 2.414.917-.045 2.314-.232 3.471-.427.344-1.91-.334-2.775-.334-2.775S14.412.274 13.41.867l.003-.007Z" fill="url(#a)"/><path d="m10.413 14.97-.35.061s-.003 0-.003.002l.181-.027c.056-.013.114-.024.172-.036Z" fill="#BD202E"/><path d="m10.413 14.97-.35.061s-.003 0-.003.002l.181-.027c.056-.013.114-.024.172-.036Z" fill="#000"/><path d="M10.72 13.507c-.002 0-.002 0-.002.002a2.23 2.23 0 0 0 .278-.05l-.276.048Z" fill="#BD202E"/><path d="M10.72 13.507c-.002 0-.002 0-.002.002a2.23 2.23 0 0 0 .278-.05l-.276.048Z" fill="#000"/><path d="M9.4 9.166c.272-.507.547-1 .823-1.48.287-.5.58-.984.875-1.452l.052-.083c.291-.46.586-.903.88-1.325l-.89-1.68a38.107 38.107 0 0 0-1.001 1.28c-.31.41-.626.85-.95 1.312a56.75 56.75 0 0 0-1.675 2.545.417.417 0 0 0-.028.047l1.163 2.288c.246-.495.499-.98.752-1.452Z" fill="url(#b)"/><path d="M4.104 22.052c-.153.42-.309.85-.462 1.289-.002.005-.004.012-.008.018-.021.061-.045.124-.065.185-.104.296-.195.563-.403 1.166.342.155.617.566.877 1.031a1.854 1.854 0 0 0-.607-1.283c1.686.076 3.145-.35 3.886-1.579.067-.11.128-.223.184-.347-.341.432-.766.614-1.563.57l-.006.003.006-.002c1.175-.525 1.762-1.027 2.277-1.856.123-.199.244-.413.367-.653-1.026 1.05-2.205 1.35-3.47 1.123l-.94.103c-.031.079-.058.157-.089.236l.016-.004Z" fill="url(#c)"/><path d="M4.556 19.958a119.771 119.771 0 0 1 1.92-4.684 76.28 76.28 0 0 1 .703-1.579c.237-.519.476-1.034.72-1.543.086-.183.177-.367.265-.55.154-.315.31-.628.467-.938l.025-.05-1.162-2.29a53.42 53.42 0 0 0-1.649 2.864 60.28 60.28 0 0 0-.634 1.228c-.042.082-.082.167-.123.25a34.65 34.65 0 0 0-.689 1.505 29.781 29.781 0 0 0-.945 2.507c-.082.258-.157.517-.233.775a23.405 23.405 0 0 0-.447 1.82l1.168 2.307c.153-.411.313-.83.475-1.251.049-.12.092-.24.14-.355v-.016Z" fill="url(#d)"/><path d="M2.749 19.35a17.747 17.747 0 0 0-.304 2.2l-.005.075c-.365-.582-1.34-1.15-1.338-1.144.7 1.01 1.23 2.018 1.307 2.991-.374.076-.886-.034-1.477-.25.617.566 1.08.72 1.262.764-.568.036-1.157.424-1.752.87.87-.353 1.573-.493 2.079-.38-.799 2.253-1.598 4.74-2.404 7.39a.696.696 0 0 0 .474-.46c.142-.478 1.088-3.623 2.566-7.732.044-.117.085-.236.129-.353a.85.85 0 0 1 .036-.097c.155-.433.32-.874.486-1.325.038-.103.076-.205.116-.308l.002-.005-1.17-2.307-.014.077.007-.005Z" fill="url(#e)"/><path d="m8.822 10.81-.101.205-.307.634a70.646 70.646 0 0 0-.512 1.09 100.785 100.785 0 0 0-1.198 2.708c-.215.508-.438 1.032-.658 1.576A139.374 139.374 0 0 0 4.82 20.13l-.027.074c-.195.514-.392 1.042-.59 1.583l-.012.037.94-.102-.056-.01c1.123-.138 2.621-.976 3.58-2.018a8.837 8.837 0 0 0 1.22-1.696 14.99 14.99 0 0 0 .787-1.632c.217-.525.425-1.094.626-1.709a3.405 3.405 0 0 1-.879.305 5.036 5.036 0 0 1-.356.061s.002 0 .002-.002c1.048-.402 1.708-1.177 2.187-2.126a3.705 3.705 0 0 1-1.482.59.598.598 0 0 0-.056.01h.004c.365-.152.67-.323.936-.523a2.04 2.04 0 0 0 .164-.133c.082-.07.158-.144.234-.22a3.53 3.53 0 0 0 .43-.555c.027-.045.056-.088.081-.135.036-.067.069-.134.101-.197a10.6 10.6 0 0 0 .48-1.104l.04-.116c.037-.11.066-.207.09-.293.036-.13.057-.233.068-.307a1.212 1.212 0 0 1-.123.083c-.316.19-.858.359-1.296.44l.862-.094-.862.094c-.005.002-.012.002-.02.003a1.907 1.907 0 0 1-.132.02l.022-.01-2.946.322a.09.09 0 0 1-.011.03l-.004.01Z" fill="url(#f)"/><path d="M12.148 4.86a44.334 44.334 0 0 0-.907 1.457 60.425 60.425 0 0 0-2.4 4.46l2.946-.322c.86-.395 1.243-.75 1.616-1.267.097-.143.198-.29.296-.446.304-.472.6-.99.866-1.508.257-.5.482-.993.656-1.44a6.856 6.856 0 0 0 .389-1.362c-1.145.196-2.55.383-3.47.429h.008Z" fill="url(#g)"/><path d="M10.232 15.007Z" fill="#BD202E"/><path opacity=".35" d="M10.232 15.007Z" fill="#BD202E"/><path d="M10.232 15.007Z" fill="url(#h)"/><path d="M10.72 13.512a.61.61 0 0 0 .056-.01c-.018.003-.036.008-.056.01Z" fill="#BD202E"/><path opacity=".35" d="M10.72 13.512a.61.61 0 0 0 .056-.01c-.018.003-.036.008-.056.01Z" fill="#BD202E"/><path d="M10.72 13.512a.61.61 0 0 0 .056-.01c-.018.003-.036.008-.056.01Z" fill="url(#i)"/><defs><linearGradient id="a" x1="11.937" y1="3.411" x2="18.468" y2="1.57" gradientUnits="userSpaceOnUse"><stop stop-color="#F59723"/><stop offset=".312" stop-color="#F69822"/><stop offset=".838" stop-color="#E87726"/></linearGradient><linearGradient id="b" x1="-2.369" y1="32.679" x2="10.855" y2="4.196" gradientUnits="userSpaceOnUse"><stop offset=".323" stop-color="#9C2063"/><stop offset=".63" stop-color="#C82037"/><stop offset=".751" stop-color="#CC2135"/><stop offset="1" stop-color="#E87726"/></linearGradient><linearGradient id="c" x1="2.103" y1="30.566" x2="9.98" y2="13.601" gradientUnits="userSpaceOnUse"><stop stop-color="#282661"/><stop offset=".096" stop-color="#662E8C"/><stop offset=".788" stop-color="#9E2064"/><stop offset=".949" stop-color="#CC2032"/></linearGradient><linearGradient id="d" x1="-1.893" y1="30.955" x2="11.331" y2="2.472" gradientUnits="userSpaceOnUse"><stop offset=".323" stop-color="#9C2063"/><stop offset=".63" stop-color="#C82037"/><stop offset=".751" stop-color="#CC2135"/><stop offset="1" stop-color="#E87726"/></linearGradient><linearGradient id="e" x1="-.533" y1="29.058" x2="6.415" y2="14.094" gradientUnits="userSpaceOnUse"><stop stop-color="#282661"/><stop offset=".096" stop-color="#662E8C"/><stop offset=".788" stop-color="#9E2064"/><stop offset=".949" stop-color="#CC2032"/></linearGradient><linearGradient id="f" x1="1.072" y1="32.339" x2="14.296" y2="3.856" gradientUnits="userSpaceOnUse"><stop offset=".323" stop-color="#9C2063"/><stop offset=".63" stop-color="#C82037"/><stop offset=".751" stop-color="#CC2135"/><stop offset="1" stop-color="#E87726"/></linearGradient><linearGradient id="g" x1=".097" y1="34.03" x2="13.32" y2="5.547" gradientUnits="userSpaceOnUse"><stop offset=".323" stop-color="#9C2063"/><stop offset=".63" stop-color="#C82037"/><stop offset=".751" stop-color="#CC2135"/><stop offset="1" stop-color="#E87726"/></linearGradient><linearGradient id="h" x1="1.948" y1="32.744" x2="15.172" y2="4.261" gradientUnits="userSpaceOnUse"><stop offset=".323" stop-color="#9C2063"/><stop offset=".63" stop-color="#C82037"/><stop offset=".751" stop-color="#CC2135"/><stop offset="1" stop-color="#E87726"/></linearGradient><linearGradient id="i" x1="1.847" y1="32.699" x2="15.072" y2="4.215" gradientUnits="userSpaceOnUse"><stop offset=".323" stop-color="#9C2063"/><stop offset=".63" stop-color="#C82037"/><stop offset=".751" stop-color="#CC2135"/><stop offset="1" stop-color="#E87726"/></linearGradient></defs></svg>