<svg width="150" height="208" fill="none" xmlns="http://www.w3.org/2000/svg"><mask id="a" style="mask-type:alpha" maskUnits="userSpaceOnUse" x="0" y="0" width="150" height="208"><rect x=".851" y=".802" width="148.343" height="206.635" rx="9.5" fill="#fff" stroke="#ED1C24"/></mask><g mask="url(#a)" stroke="#ED1C24"><rect x=".838" width="59.963" height="56.03" rx="9.5" transform="matrix(.83825 -.54529 .83825 .54529 81.469 92.754)" fill="#fff"/><rect x=".838" width="59.963" height="56.03" rx="9.5" transform="matrix(.83825 -.54529 .83825 .54529 81.47 81.808)" fill="#fff"/><rect x=".838" width="59.963" height="56.03" rx="9.5" transform="matrix(.83825 -.54529 .83825 .54529 81.51 71.081)" fill="#fff"/><rect x=".838" width="59.963" height="56.03" rx="9.5" transform="matrix(.83825 -.54529 .83825 .54529 80.74 60.033)" fill="#fff"/><path d="M109.087 52.175c-1.598 7.539 1.857 12.843 6.093 15.598 8.676 5.644 22.533 5.509 31.21-.136 2.813-1.83 6.352-6.573 5.967-15.617"/><path d="m130.467 43.278.552 28.163" stroke-linecap="round" stroke-linejoin="round"/><circle r="10.399" transform="matrix(.83825 -.54529 .83825 .54529 130.678 57.417)" fill="#fff"/><circle r="18.242" transform="matrix(.83825 -.54529 .83825 .54529 130.68 51.984)" fill="#fff"/><path d="m109.095 51.747 43.293.359m-21.921-14.261.551 28.162" stroke-linecap="round" stroke-linejoin="round"/><circle r="10.399" transform="matrix(.83825 -.54529 .83825 .54529 130.678 51.983)" fill="#fff"/><path d="M118.746 52.86s3.771-4.731 11.886-4.894c8.116-.163 11.723 4.894 11.723 4.894" stroke-linecap="round" stroke-linejoin="round"/><rect x=".838" width="86.143" height="80.522" rx="9.5" transform="matrix(.83825 -.54529 .83825 .54529 8.386 184.137)" fill="#fff"/><rect x=".838" width="86.143" height="80.522" rx="9.5" transform="matrix(.83825 -.54529 .83825 .54529 8.386 167.072)" fill="#fff"/><rect x=".838" width="86.143" height="80.522" rx="9.5" transform="matrix(.83825 -.54529 .83825 .54529 8.446 154.579)" fill="#fff"/><rect x=".838" width="86.143" height="80.522" rx="9.5" transform="matrix(.83825 -.54529 .83825 .54529 7.346 131.691)" fill="#fff"/><path d="M47.924 120.654c-2.284 10.777 2.654 18.358 8.709 22.297 12.403 8.068 32.21 7.874 44.614-.194 4.021-2.616 9.631-9.245 8.635-22.297"/><path d="m78.486 107.938.788 40.257" stroke-linecap="round" stroke-linejoin="round"/><circle r="15.08" transform="matrix(.83825 -.54529 .83825 .54529 78.788 128.15)" fill="#fff"/><circle r="26.291" transform="matrix(.83825 -.54529 .83825 .54529 78.789 120.38)" fill="#fff"/><path d="m47.934 120.043 61.887.513M78.486 100.17l.788 40.257" stroke-linecap="round" stroke-linejoin="round"/><circle r="15.08" transform="matrix(.83825 -.54529 .83825 .54529 78.788 120.381)" fill="#fff"/><path d="M61.731 121.634s5.39-6.764 16.991-6.997c11.6-.232 16.757 6.997 16.757 6.997" stroke-linecap="round" stroke-linejoin="round"/></g></svg>