<svg width="201" height="201" fill="none" xmlns="http://www.w3.org/2000/svg"><mask id="a" style="mask-type:alpha" maskUnits="userSpaceOnUse" x="0" y="0" width="201" height="201"><rect x="1.282" y=".771" width="198.492" height="199.081" rx="9.5" fill="#fff" stroke="#E5E5E5"/></mask><g mask="url(#a)" stroke="#ED1C24"><path transform="scale(-1.13787 .8398) rotate(45 -102.37 -163.61)" d="M0 .594h66.505v66.505H0z"/><path transform="matrix(-.8046 .59382 .8046 .59382 166.481 29.371)" d="M0 .594h66.505v66.505H0z"/><path transform="matrix(-.8046 .59383 .8046 .59383 166.481 38.97)" d="M0 .594h66.505v66.505H0z"/><path transform="matrix(-.8046 .59382 .8046 .59382 166.481 48.57)" d="M0 .594h66.505v66.505H0z"/><path transform="matrix(-.8046 .59382 .8046 .59382 166.481 58.169)" d="M0 .594h66.505v66.505H0z"/><path transform="matrix(-.8046 .59382 .8046 .59382 166.471 67.774)" d="M0 .594h66.505v66.505H0z"/><path transform="matrix(-.8046 .59382 .8046 .59382 166.471 77.373)" d="M0 .594h66.505v66.505H0z"/><path transform="scale(-1.13787 .8398) rotate(45 -88.807 -169.449)" fill="#fff" d="M0 .594h66.505v66.505H0z"/><path transform="matrix(-.8046 .59382 .8046 .59382 59.406 88.03)" d="M0 .594h66.505v66.505H0z"/><path transform="scale(-1.13787 .8398) rotate(45 -165.64 -6.122)" d="M0 .594h66.505v66.505H0z"/><path transform="scale(-1.13787 .8398) rotate(45 -179.435 -.408)" d="M0 .594h66.505v66.505H0z"/><path transform="scale(-1.13787 .8398) rotate(45 -193.235 5.309)" d="M0 .594h66.505v66.505H0z"/><path transform="scale(-1.13787 .8398) rotate(45 -207.033 11.024)" d="M0 .594h66.505v66.505H0z"/><path transform="scale(-1.13787 .8398) rotate(45 -220.836 16.754)" d="M0 .594h66.505v66.505H0z"/><path transform="scale(-1.13787 .8398) rotate(45 -234.632 22.468)" d="M0 .594h66.505v66.505H0z"/><path transform="matrix(-.8046 .59382 .8046 .59382 59.583 78.54)" fill="#fff" d="M0 .594h66.505v66.505H0z"/><path transform="scale(-1.13787 .8398) rotate(45 -239.9 -107.434)" d="M0 .594h66.505v66.505H0z"/><path transform="scale(-1.13787 .8398) rotate(45 -252.902 -102.947)" d="M0 .594h66.505v66.505H0z"/><path transform="scale(-1.13787 .8398) rotate(45 -266.698 -97.233)" d="M0 .594h66.505v66.505H0z"/><path transform="scale(-1.13787 .8398) rotate(45 -280.499 -91.516)" d="M0 .594h66.505v66.505H0z"/><path transform="scale(-1.13787 .8398) rotate(45 -294.296 -85.801)" d="M0 .594h66.505v66.505H0z"/><path transform="scale(-1.13787 .8398) rotate(45 -308.1 -80.071)" d="M0 .594h66.505v66.505H0z"/><path transform="scale(-1.13787 .8398) rotate(45 -321.895 -74.357)" d="M0 .594h66.505v66.505H0z"/><path transform="scale(-1.13788 .8398) rotate(45 -226.337 -113.27)" fill="#fff" d="M0 .594h66.505v66.505H0z"/></g></svg>