<svg width="49" height="48" fill="none" xmlns="http://www.w3.org/2000/svg"><path d="M38.435 4.683H10.362c-3.24 0-5.866 2.298-5.866 5.133v22.808c0 2.835 2.626 5.134 5.866 5.134h22.712a4.8 4.8 0 0 1 3.13 1.16l6.204 5.337a.73.73 0 0 0 .14.097c.77.386 1.753-.097 1.753-.893V9.816c0-2.835-2.626-5.133-5.866-5.133Z" fill="#fff"/><path fill-rule="evenodd" clip-rule="evenodd" d="M3.536 9.816c0-3.481 3.18-6.093 6.826-6.093h28.073c3.646 0 6.826 2.612 6.826 6.093V43.46c0 .834-.521 1.448-1.116 1.747a2.266 2.266 0 0 1-2.027.004 1.645 1.645 0 0 1-.336-.227l-6.204-5.336a3.84 3.84 0 0 0-2.504-.93H10.362c-3.646 0-6.826-2.611-6.826-6.093V9.816Zm6.826-4.173c-2.834 0-4.906 1.985-4.906 4.173v22.808c0 2.189 2.072 4.174 4.906 4.174h22.712a5.76 5.76 0 0 1 3.756 1.393l6.182 5.317a.35.35 0 0 0 .27-.017.195.195 0 0 0 .059-.042V9.816c0-2.188-2.072-4.173-4.906-4.173H10.362Z" fill="#000"/><path fill-rule="evenodd" clip-rule="evenodd" d="M27.192 19.116c.816-.756 1.273-1.898 1.253-3.3-.015-1.067-.351-2.006-1.013-2.68-.654-.666-1.73-1.179-3.432-1.2-1.692-.021-2.679.479-3.266 1.188-.616.744-.937 1.892-.916 3.44l-1.92.02c-.024-1.777.334-3.452 1.356-4.687 1.051-1.27 2.662-1.907 4.764-1.881 2.09.025 3.695.67 4.782 1.777 1.08 1.1 1.545 2.552 1.564 4.002.026 1.835-.579 3.54-1.866 4.732-1.085 1.005-2.572 1.568-4.364 1.603l.065 4.692-1.92.02-.093-6.755 1.056.093c1.855.163 3.139-.314 3.95-1.064Z" fill="#ED1C24"/><path d="M24.176 29.965c0 .824-.657 1.492-1.467 1.492s-1.467-.668-1.467-1.492c0-.825.657-1.493 1.467-1.493s1.467.668 1.467 1.492Z" fill="#F41820"/></svg>