<svg width="271" height="278" fill="none" xmlns="http://www.w3.org/2000/svg"><mask id="a" style="mask-type:alpha" maskUnits="userSpaceOnUse" x="0" y="0" width="271" height="278"><rect y=".934" width="271" height="277.066" rx="10" fill="#F6F6F6"/></mask><g opacity=".3" stroke="#91C2EA" stroke-linecap="round" stroke-linejoin="round" mask="url(#a)"><path d="M494.777 201.296 259.325 79.706c-31.074-16.047-68.742-6.368-86.601 22.251L32.962 325.943"/><path d="M499.223 216.851 256.271 91.388c-26.837-13.859-59.369-5.5-74.792 19.217L37.407 341.498"/><path d="M503.946 233.377 260.994 107.914c-26.836-13.859-59.369-5.5-74.792 19.217L42.131 358.024"/><path d="M508.669 249.904 265.717 124.44c-26.837-13.858-59.369-5.499-74.792 19.218L46.853 374.55"/><path d="M513.392 266.43 270.44 140.967c-26.837-13.859-59.369-5.5-74.792 19.217L51.577 391.077"/><path d="M518.115 282.956 275.163 157.493c-26.837-13.859-59.369-5.5-74.792 19.218L56.299 407.603"/><path d="M522.838 299.483 279.886 174.02c-26.837-13.859-59.369-5.5-74.792 19.217L61.023 424.13"/><path d="M527.561 316.01 284.609 190.546c-26.837-13.858-59.369-5.499-74.792 19.218L65.745 440.656"/><path d="M532.284 332.537 289.332 207.073c-26.837-13.858-59.369-5.499-74.792 19.218L70.469 457.183"/></g></svg>